<svg width="198" height="278" viewBox="0 0 198 278" fill="none" xmlns="http://www.w3.org/2000/svg">
<path d="M5.12999 55.9817C6.14957 54.3379 7.67432 52.7704 9.27732 51.6857C13.0133 49.1576 17.0598 46.9882 20.9466 44.7024L41.9185 32.3477L74.6693 13.0828L84.7927 7.13508C87.6456 5.46409 90.7437 3.11386 93.9803 2.35457C96.4146 1.78349 99.3982 1.87896 101.735 2.81122C104.471 3.90289 106.961 5.65773 109.525 7.09834C116.751 11.1568 123.879 15.4152 131.04 19.5871L168.866 41.5487C174.171 44.6679 179.546 47.6832 184.752 50.966C186.846 52.2861 188.642 53.9389 189.958 56.051L190.048 56.1768L190.174 56.4922C191.272 58.1606 191.764 60.4073 191.903 62.3755C192.064 64.6508 191.961 66.9882 191.96 69.2696C191.975 74.0353 191.943 78.8013 191.863 83.5663L191.738 118.796L191.646 142.577C191.604 146.101 191.938 149.847 191.213 153.307C190.134 158.455 187.141 162.939 182.706 165.793C179.232 168.029 175.549 170.015 171.989 172.121L144.48 188.22L118.804 203.348C113.861 206.23 108.925 209.261 103.813 211.835C101.951 212.773 99.7924 214.054 97.6346 213.862L97.5029 213.884C96.063 213.902 94.6539 213.387 93.3549 212.808C90.7226 211.636 88.2336 210.202 85.7304 208.782C82.6675 207.047 79.6141 205.295 76.5699 203.527L47.2436 186.378C39.0741 181.665 30.9376 176.895 22.8344 172.069L15.8791 167.932C14.3121 166.988 12.6699 166.058 11.231 164.924C8.23466 162.562 5.96733 159.546 4.62846 155.964C3.89585 154.044 3.46187 152.024 3.34135 149.973C3.20916 148.001 3.28352 145.99 3.2823 144.013L3.27064 133.687L3.15012 103.938L3.09885 78.8297L3.03737 68.8324C3.02935 67.002 2.9443 65.1239 3.06118 63.2984C3.19142 61.265 3.94761 58.65 4.79418 56.7855L4.99635 56.1557L5.12999 55.9817Z" fill="#C357B5" stroke="black" stroke-width="4"/>
<path d="M4.99635 56.1559L36.8218 74.7372L45.7419 79.9058C47.2487 80.7718 48.7535 81.7207 50.3186 82.4735L50.3194 82.533C51.5282 83.15 52.7254 84.0048 53.9132 84.6947C57.0193 86.458 60.1055 88.2561 63.1713 90.0888L86.2511 103.489C88.4623 104.791 90.6808 106.081 92.9061 107.358C94.3366 108.19 96.0824 109.488 97.682 109.924C97.8269 117.01 97.7 124.121 97.6964 131.209L97.6823 161.418L97.1086 161.395C97.0877 163.862 97.259 166.329 97.2568 168.8L97.2449 204.119C97.2478 205.931 97.2286 207.745 97.2799 209.555C97.318 210.896 97.4296 212.25 97.4084 213.589L97.5029 213.884C96.063 213.903 94.6539 213.387 93.3549 212.809C90.7226 211.636 88.2337 210.202 85.7304 208.782C82.6675 207.047 79.6141 205.295 76.5699 203.527L47.2436 186.378C39.0741 181.665 30.9376 176.895 22.8344 172.069L15.8791 167.932C14.3121 166.988 12.6699 166.058 11.231 164.924C8.23466 162.562 5.96733 159.547 4.62846 155.965C3.89585 154.045 3.46187 152.024 3.34135 149.973C3.20916 148.002 3.28352 145.991 3.2823 144.013L3.27064 133.687L3.15012 103.938L3.09885 78.8299L3.03737 68.8326C3.02935 67.0022 2.9443 65.1241 3.06118 63.2985C3.19142 61.2652 3.94761 58.6501 4.79418 56.7857L4.99635 56.1559Z" fill="#DBEE71" stroke="black" stroke-width="4"/>
<path d="M50.3194 82.5327C51.5283 83.1496 52.7255 84.0045 53.9132 84.6943C57.0193 86.4577 60.1055 88.2558 63.1713 90.0884L86.2512 103.489C88.4624 104.791 90.6808 106.08 92.9061 107.358C94.3366 108.19 96.0825 109.487 97.6821 109.924C97.8269 117.01 97.7001 124.121 97.6964 131.208L97.6823 161.417L97.1086 161.394C95.4993 161.246 94.0297 160.966 92.5392 160.32C90.6257 159.489 88.7814 158.324 86.9619 157.298L77.3352 151.854L64.2152 144.416C60.7278 142.437 57.2358 140.503 53.8821 138.301C51.5307 136.036 50.0524 133.493 48.7631 130.539C48.4831 129.696 48.3169 128.845 48.2261 127.963C47.9838 125.609 48.1354 123.173 48.1072 120.805C47.9942 115.218 47.9631 109.629 48.0137 104.04L48.0093 93.8898C48.0093 91.898 47.8766 89.7718 48.1631 87.8002C48.42 86.032 49.1873 83.9253 50.3194 82.5327Z" fill="#E9EBE9" stroke="black" stroke-width="4"/>
<path d="M53.8821 138.301C57.2359 140.503 60.7279 142.436 64.2152 144.416L77.3352 151.854L86.9619 157.298C88.7814 158.324 90.6257 159.489 92.5392 160.319C94.0297 160.966 95.4993 161.246 97.1086 161.394C97.0877 163.861 97.2591 166.329 97.2569 168.8L97.245 204.119C97.2479 205.93 97.2287 207.745 97.2799 209.555C97.3181 210.895 97.4296 212.25 97.4085 213.589C97.1278 212.427 96.2538 211.076 95.7049 210.009C93.3734 205.48 90.8393 201.136 88.2464 196.754L66.0814 159.3C63.3495 154.735 60.576 150.201 57.8951 145.605C56.504 143.221 54.9673 140.84 53.8821 138.301Z" fill="#77B866" stroke="black" stroke-width="4"/>
<path d="M4.99642 56.1559L36.8219 74.7372L45.742 79.9058C47.2488 80.7718 48.7536 81.7207 50.3187 82.4735L50.3194 82.533C49.1874 83.9256 48.42 86.0323 48.1632 87.8005C47.8767 89.7722 48.0093 91.8983 48.0093 93.8901L48.0137 104.04C47.9632 109.629 47.9943 115.218 48.1073 120.806C48.1355 123.173 47.9838 125.609 48.2261 127.963C48.317 128.846 48.4832 129.696 48.7631 130.539C48.1146 129.67 47.5746 128.656 47.0065 127.73C45.8241 125.804 44.6515 123.872 43.4888 121.933L31.9563 102.455L12.3689 69.5883L7.73442 61.7526C6.74837 60.1073 5.6938 58.4796 4.79425 56.7857L4.99642 56.1559Z" fill="#77B866" stroke="black" stroke-width="4"/>
<path d="M190.048 56.1768L190.174 56.4922C191.272 58.1606 191.765 60.4073 191.903 62.3755C192.064 64.6508 191.961 66.9881 191.96 69.2696C191.975 74.0353 191.943 78.8013 191.863 83.5663L191.738 118.796L191.646 142.577C191.604 146.101 191.938 149.847 191.213 153.307C190.134 158.455 187.141 162.939 182.706 165.793C179.232 168.029 175.549 170.015 171.989 172.121L144.48 188.22L118.804 203.348C113.861 206.23 108.925 209.261 103.813 211.835C101.951 212.773 99.7925 214.054 97.6348 213.862L97.5031 213.884L97.4086 213.589C97.4297 212.25 97.3182 210.895 97.28 209.555C97.2287 207.745 97.2479 205.93 97.245 204.119L97.2569 168.8C97.2591 166.329 97.0878 163.862 97.1087 161.394L97.6824 161.418L97.6965 131.209C97.7001 124.121 97.827 117.01 97.6822 109.924C98.7095 109.112 100.242 108.478 101.397 107.825L110.186 102.825C119.389 97.5763 128.444 92.0539 137.72 86.9295C139.25 86.0842 143.036 83.689 144.542 83.3821L144.302 82.917C146.55 81.0307 150.208 79.2793 152.803 77.7795L170.015 67.7988L183.655 59.8341C185.392 58.8133 188.359 56.8006 190.048 56.1768Z" fill="#0089CB" stroke="black" stroke-width="4"/>
<path d="M144.542 83.382C145.436 84.7219 146.105 86.3098 146.313 87.9145C146.554 89.7748 146.422 91.7698 146.419 93.6459L146.402 103.925L146.401 120.7C146.4 123.732 146.495 126.807 146.35 129.834C145.765 133.346 144.245 135.803 141.613 138.172C139.074 139.907 136.354 141.347 133.681 142.86L122.141 149.433L110.49 156.095C108.051 157.503 105.59 159.12 103.017 160.265C101.356 161.004 99.5047 161.44 97.6823 161.417L97.6964 131.209C97.7 124.121 97.8269 117.01 97.6821 109.924C98.7094 109.112 100.242 108.478 101.397 107.825L110.186 102.825C119.389 97.5762 128.444 92.0538 137.72 86.9294C139.25 86.0841 143.036 83.6889 144.542 83.382Z" fill="#B5CCDA" stroke="black" stroke-width="4"/>
<path d="M97.6824 161.417C99.5048 161.44 101.356 161.004 103.017 160.265C105.59 159.12 108.051 157.503 110.49 156.095L122.141 149.433L133.681 142.86C136.355 141.347 139.074 139.907 141.613 138.172C141.065 140.938 131.384 155.326 129.194 159.071L103.788 202.312C102.299 204.849 100.916 207.416 99.5702 210.032C98.9236 211.289 98.3832 212.666 97.6348 213.861L97.5031 213.884L97.4086 213.589C97.4297 212.25 97.3182 210.895 97.28 209.555C97.2287 207.745 97.2479 205.93 97.245 204.119L97.2569 168.8C97.2591 166.329 97.0878 163.862 97.1087 161.394L97.6824 161.417Z" fill="#006AB6" stroke="black" stroke-width="4"/>
<path d="M190.048 56.1768L190.174 56.4922L189.905 56.519L189.92 56.5953C189.894 56.632 189.867 56.6672 189.843 56.7051C189.744 56.8626 189.699 56.9826 189.634 57.1517C188.977 58.8655 186.771 62.2622 185.76 63.9904L175.795 80.7685L147.593 128.509C147.292 129.015 146.969 129.698 146.515 130.065C146.363 129.889 146.406 129.973 146.35 129.834C146.495 126.807 146.4 123.733 146.401 120.7L146.402 103.925L146.42 93.646C146.422 91.7698 146.555 89.7749 146.314 87.9146C146.106 86.3099 145.436 84.7219 144.542 83.3821L144.302 82.917C146.55 81.0307 150.208 79.2792 152.804 77.7795L170.015 67.7988L183.656 59.8341C185.392 58.8133 188.359 56.8006 190.048 56.1768Z" fill="#006AB6" stroke="black" stroke-width="4"/>
<path d="M95.5857 56.0419C96.8665 56.1886 98.1842 56.1709 99.472 56.1607C102.546 56.8299 109.034 61.0645 112.028 62.8047L126.848 71.425L136.339 76.9409C137.998 77.9055 139.763 78.8184 141.343 79.9044C142.489 80.6914 143.476 81.8087 144.302 82.9172L144.542 83.3822C143.036 83.6891 139.25 86.0843 137.72 86.9296C128.444 92.054 119.389 97.5764 110.186 102.825L101.397 107.825C100.242 108.478 98.7095 109.112 97.6822 109.924C96.0826 109.488 94.3367 108.19 92.9062 107.358C90.6809 106.081 88.4625 104.791 86.2513 103.489L63.1714 90.0887C60.1057 88.2561 57.0194 86.458 53.9133 84.6946C52.7256 84.0048 51.5284 83.15 50.3195 82.533L50.3188 82.4735C51.0711 81.6731 51.9157 80.8396 52.8262 80.2236C54.989 78.7606 57.45 77.5372 59.712 76.2209L76.7885 66.4457L87.4171 60.3331C90.0698 58.8056 92.7084 57.1086 95.5857 56.0419Z" fill="#D2E1E9" stroke="black" stroke-width="4"/>
<path d="M5.1301 55.9816C7.70846 55.8368 10.3162 55.9121 12.8982 55.9104L26.1015 55.9063L66.6481 55.9106L87.159 55.907C88.9503 55.907 94.2448 55.6876 95.5856 56.0416C92.7084 57.1083 90.0698 58.8054 87.4171 60.3328L76.7885 66.4454L59.712 76.2206C57.45 77.5369 54.989 78.7603 52.8262 80.2234C51.9157 80.8394 51.071 81.6728 50.3188 82.4732C48.7537 81.7204 47.2488 80.7716 45.7421 79.9056L36.8219 74.7369L4.99646 56.1556L5.1301 55.9816Z" fill="#7047A3" stroke="black" stroke-width="4"/>
<path d="M99.4719 56.1604C101.849 55.6239 106.511 55.9024 109.088 55.9041L126.833 55.9077L169.118 55.898L181.512 55.8905C183.618 55.879 185.738 55.7847 187.842 55.8299C188.562 55.8455 189.253 55.8914 189.958 56.0508L190.048 56.1767C188.359 56.8004 185.392 58.8131 183.655 59.8339L170.015 67.7986L152.803 77.7794C150.208 79.2791 146.55 81.0306 144.302 82.9169C143.476 81.8084 142.489 80.6911 141.343 79.9041C139.762 78.8182 137.998 77.9052 136.339 76.9406L126.848 71.4247L112.028 62.8045C109.034 61.0642 102.546 56.8296 99.4719 56.1604Z" fill="#7047A3" stroke="black" stroke-width="4"/>
<mask id="path-13-outside-1_151_381" maskUnits="userSpaceOnUse" x="0" y="245" width="198" height="33" fill="black">
<rect fill="white" y="245" width="198" height="33"/>
<path d="M9.64 268.96H22.78V274H3.16V248.8H9.64V268.96ZM47.5084 255.64C47.5084 254.2 46.7884 253.48 45.3484 253.48H39.2284C37.7884 253.48 37.0684 254.2 37.0684 255.64V267.16C37.0684 268.6 37.7884 269.32 39.2284 269.32H45.3484C46.7884 269.32 47.5084 268.6 47.5084 267.16V255.64ZM53.9884 267.16C53.9884 269.68 53.4124 271.516 52.2604 272.668C51.1324 273.796 49.3084 274.36 46.7884 274.36H37.7884C35.2684 274.36 33.4324 273.796 32.2804 272.668C31.1524 271.516 30.5884 269.68 30.5884 267.16V255.64C30.5884 253.12 31.1524 251.296 32.2804 250.168C33.4324 249.016 35.2684 248.44 37.7884 248.44H46.7884C49.3084 248.44 51.1324 249.016 52.2604 250.168C53.4124 251.296 53.9884 253.12 53.9884 255.64V267.16ZM75.8453 274H69.3653V253.84H61.8053V248.8H83.4053V253.84H75.8453V274ZM104.17 274H97.6895V253.84H90.1295V248.8H111.73V253.84H104.17V274ZM132.134 274H119.174V268.96H122.414V253.84H119.174V248.8H132.134V253.84H128.894V268.96H132.134V274ZM147.851 274H141.371V248.8H161.351V253.84H147.851V259.78H158.471V264.82H147.851V274ZM166.991 248.8H173.831L179.771 261.04L185.711 248.8H192.551L183.011 267.34V274H176.531V267.34L166.991 248.8Z"/>
</mask>
<path d="M9.64 268.96H22.78V274H3.16V248.8H9.64V268.96ZM47.5084 255.64C47.5084 254.2 46.7884 253.48 45.3484 253.48H39.2284C37.7884 253.48 37.0684 254.2 37.0684 255.64V267.16C37.0684 268.6 37.7884 269.32 39.2284 269.32H45.3484C46.7884 269.32 47.5084 268.6 47.5084 267.16V255.64ZM53.9884 267.16C53.9884 269.68 53.4124 271.516 52.2604 272.668C51.1324 273.796 49.3084 274.36 46.7884 274.36H37.7884C35.2684 274.36 33.4324 273.796 32.2804 272.668C31.1524 271.516 30.5884 269.68 30.5884 267.16V255.64C30.5884 253.12 31.1524 251.296 32.2804 250.168C33.4324 249.016 35.2684 248.44 37.7884 248.44H46.7884C49.3084 248.44 51.1324 249.016 52.2604 250.168C53.4124 251.296 53.9884 253.12 53.9884 255.64V267.16ZM75.8453 274H69.3653V253.84H61.8053V248.8H83.4053V253.84H75.8453V274ZM104.17 274H97.6895V253.84H90.1295V248.8H111.73V253.84H104.17V274ZM132.134 274H119.174V268.96H122.414V253.84H119.174V248.8H132.134V253.84H128.894V268.96H132.134V274ZM147.851 274H141.371V248.8H161.351V253.84H147.851V259.78H158.471V264.82H147.851V274ZM166.991 248.8H173.831L179.771 261.04L185.711 248.8H192.551L183.011 267.34V274H176.531V267.34L166.991 248.8Z" fill="#F8D342"/>
<path d="M9.64 268.96H6.64V271.96H9.64V268.96ZM22.78 268.96H25.78V265.96H22.78V268.96ZM22.78 274V277H25.78V274H22.78ZM3.16 274H0.16V277H3.16V274ZM3.16 248.8V245.8H0.16V248.8H3.16ZM9.64 248.8H12.64V245.8H9.64V248.8ZM9.64 268.96V271.96H22.78V268.96V265.96H9.64V268.96ZM22.78 268.96H19.78V274H22.78H25.78V268.96H22.78ZM22.78 274V271H3.16V274V277H22.78V274ZM3.16 274H6.16V248.8H3.16H0.16V274H3.16ZM3.16 248.8V251.8H9.64V248.8V245.8H3.16V248.8ZM9.64 248.8H6.64V268.96H9.64H12.64V248.8H9.64ZM52.2604 272.668L50.1391 270.547V270.547L52.2604 272.668ZM32.2804 272.668L30.1369 274.767L30.159 274.789L30.1816 274.812L32.2804 272.668ZM32.2804 250.168L30.1591 248.047L30.1591 248.047L32.2804 250.168ZM52.2604 250.168L50.1169 252.267L50.139 252.289L50.1616 252.312L52.2604 250.168ZM47.5084 255.64H50.5084C50.5084 254.458 50.2108 253.02 49.0898 251.899C47.9687 250.778 46.5309 250.48 45.3484 250.48V253.48V256.48C45.606 256.48 45.2482 256.542 44.8471 256.141C44.4461 255.74 44.5084 255.382 44.5084 255.64H47.5084ZM45.3484 253.48V250.48H39.2284V253.48V256.48H45.3484V253.48ZM39.2284 253.48V250.48C38.046 250.48 36.6082 250.778 35.4871 251.899C34.3661 253.02 34.0684 254.458 34.0684 255.64H37.0684H40.0684C40.0684 255.382 40.1308 255.74 39.7298 256.141C39.3287 256.542 38.9709 256.48 39.2284 256.48V253.48ZM37.0684 255.64H34.0684V267.16H37.0684H40.0684V255.64H37.0684ZM37.0684 267.16H34.0684C34.0684 268.342 34.3661 269.78 35.4871 270.901C36.6082 272.022 38.046 272.32 39.2284 272.32V269.32V266.32C38.9709 266.32 39.3287 266.258 39.7298 266.659C40.1308 267.06 40.0684 267.418 40.0684 267.16H37.0684ZM39.2284 269.32V272.32H45.3484V269.32V266.32H39.2284V269.32ZM45.3484 269.32V272.32C46.5309 272.32 47.9687 272.022 49.0898 270.901C50.2108 269.78 50.5084 268.342 50.5084 267.16H47.5084H44.5084C44.5084 267.418 44.4461 267.06 44.8471 266.659C45.2482 266.258 45.606 266.32 45.3484 266.32V269.32ZM47.5084 267.16H50.5084V255.64H47.5084H44.5084V267.16H47.5084ZM53.9884 267.16H50.9884C50.9884 269.309 50.4864 270.199 50.1391 270.547L52.2604 272.668L54.3818 274.789C56.3385 272.833 56.9884 270.051 56.9884 267.16H53.9884ZM52.2604 272.668L50.1391 270.547C49.8257 270.86 48.959 271.36 46.7884 271.36V274.36V277.36C49.6578 277.36 52.4392 276.732 54.3818 274.789L52.2604 272.668ZM46.7884 274.36V271.36H37.7884V274.36V277.36H46.7884V274.36ZM37.7884 274.36V271.36C35.6252 271.36 34.7253 270.863 34.3793 270.524L32.2804 272.668L30.1816 274.812C32.1396 276.729 34.9117 277.36 37.7884 277.36V274.36ZM32.2804 272.668L34.424 270.569C34.0852 270.223 33.5884 269.323 33.5884 267.16H30.5884H27.5884C27.5884 270.037 28.2196 272.809 30.1369 274.767L32.2804 272.668ZM30.5884 267.16H33.5884V255.64H30.5884H27.5884V267.16H30.5884ZM30.5884 255.64H33.5884C33.5884 253.469 34.0883 252.603 34.4018 252.289L32.2804 250.168L30.1591 248.047C28.2166 249.989 27.5884 252.771 27.5884 255.64H30.5884ZM32.2804 250.168L34.4018 252.289C34.749 251.942 35.6395 251.44 37.7884 251.44V248.44V245.44C34.8974 245.44 32.1159 246.09 30.1591 248.047L32.2804 250.168ZM37.7884 248.44V251.44H46.7884V248.44V245.44H37.7884V248.44ZM46.7884 248.44V251.44C48.9446 251.44 49.8018 251.945 50.1169 252.267L52.2604 250.168L54.404 248.069C52.4631 246.087 49.6723 245.44 46.7884 245.44V248.44ZM52.2604 250.168L50.1616 252.312C50.4834 252.627 50.9884 253.484 50.9884 255.64H53.9884H56.9884C56.9884 252.756 56.3415 249.965 54.3593 248.024L52.2604 250.168ZM53.9884 255.64H50.9884V267.16H53.9884H56.9884V255.64H53.9884ZM75.8453 274V277H78.8453V274H75.8453ZM69.3653 274H66.3653V277H69.3653V274ZM69.3653 253.84H72.3653V250.84H69.3653V253.84ZM61.8053 253.84H58.8053V256.84H61.8053V253.84ZM61.8053 248.8V245.8H58.8053V248.8H61.8053ZM83.4053 248.8H86.4053V245.8H83.4053V248.8ZM83.4053 253.84V256.84H86.4053V253.84H83.4053ZM75.8453 253.84V250.84H72.8453V253.84H75.8453ZM75.8453 274V271H69.3653V274V277H75.8453V274ZM69.3653 274H72.3653V253.84H69.3653H66.3653V274H69.3653ZM69.3653 253.84V250.84H61.8053V253.84V256.84H69.3653V253.84ZM61.8053 253.84H64.8053V248.8H61.8053H58.8053V253.84H61.8053ZM61.8053 248.8V251.8H83.4053V248.8V245.8H61.8053V248.8ZM83.4053 248.8H80.4053V253.84H83.4053H86.4053V248.8H83.4053ZM83.4053 253.84V250.84H75.8453V253.84V256.84H83.4053V253.84ZM75.8453 253.84H72.8453V274H75.8453H78.8453V253.84H75.8453ZM104.17 274V277H107.17V274H104.17ZM97.6895 274H94.6895V277H97.6895V274ZM97.6895 253.84H100.69V250.84H97.6895V253.84ZM90.1295 253.84H87.1295V256.84H90.1295V253.84ZM90.1295 248.8V245.8H87.1295V248.8H90.1295ZM111.73 248.8H114.73V245.8H111.73V248.8ZM111.73 253.84V256.84H114.73V253.84H111.73ZM104.17 253.84V250.84H101.17V253.84H104.17ZM104.17 274V271H97.6895V274V277H104.17V274ZM97.6895 274H100.69V253.84H97.6895H94.6895V274H97.6895ZM97.6895 253.84V250.84H90.1295V253.84V256.84H97.6895V253.84ZM90.1295 253.84H93.1295V248.8H90.1295H87.1295V253.84H90.1295ZM90.1295 248.8V251.8H111.73V248.8V245.8H90.1295V248.8ZM111.73 248.8H108.73V253.84H111.73H114.73V248.8H111.73ZM111.73 253.84V250.84H104.17V253.84V256.84H111.73V253.84ZM104.17 253.84H101.17V274H104.17H107.17V253.84H104.17ZM132.134 274V277H135.134V274H132.134ZM119.174 274H116.174V277H119.174V274ZM119.174 268.96V265.96H116.174V268.96H119.174ZM122.414 268.96V271.96H125.414V268.96H122.414ZM122.414 253.84H125.414V250.84H122.414V253.84ZM119.174 253.84H116.174V256.84H119.174V253.84ZM119.174 248.8V245.8H116.174V248.8H119.174ZM132.134 248.8H135.134V245.8H132.134V248.8ZM132.134 253.84V256.84H135.134V253.84H132.134ZM128.894 253.84V250.84H125.894V253.84H128.894ZM128.894 268.96H125.894V271.96H128.894V268.96ZM132.134 268.96H135.134V265.96H132.134V268.96ZM132.134 274V271H119.174V274V277H132.134V274ZM119.174 274H122.174V268.96H119.174H116.174V274H119.174ZM119.174 268.96V271.96H122.414V268.96V265.96H119.174V268.96ZM122.414 268.96H125.414V253.84H122.414H119.414V268.96H122.414ZM122.414 253.84V250.84H119.174V253.84V256.84H122.414V253.84ZM119.174 253.84H122.174V248.8H119.174H116.174V253.84H119.174ZM119.174 248.8V251.8H132.134V248.8V245.8H119.174V248.8ZM132.134 248.8H129.134V253.84H132.134H135.134V248.8H132.134ZM132.134 253.84V250.84H128.894V253.84V256.84H132.134V253.84ZM128.894 253.84H125.894V268.96H128.894H131.894V253.84H128.894ZM128.894 268.96V271.96H132.134V268.96V265.96H128.894V268.96ZM132.134 268.96H129.134V274H132.134H135.134V268.96H132.134ZM147.851 274V277H150.851V274H147.851ZM141.371 274H138.371V277H141.371V274ZM141.371 248.8V245.8H138.371V248.8H141.371ZM161.351 248.8H164.351V245.8H161.351V248.8ZM161.351 253.84V256.84H164.351V253.84H161.351ZM147.851 253.84V250.84H144.851V253.84H147.851ZM147.851 259.78H144.851V262.78H147.851V259.78ZM158.471 259.78H161.471V256.78H158.471V259.78ZM158.471 264.82V267.82H161.471V264.82H158.471ZM147.851 264.82V261.82H144.851V264.82H147.851ZM147.851 274V271H141.371V274V277H147.851V274ZM141.371 274H144.371V248.8H141.371H138.371V274H141.371ZM141.371 248.8V251.8H161.351V248.8V245.8H141.371V248.8ZM161.351 248.8H158.351V253.84H161.351H164.351V248.8H161.351ZM161.351 253.84V250.84H147.851V253.84V256.84H161.351V253.84ZM147.851 253.84H144.851V259.78H147.851H150.851V253.84H147.851ZM147.851 259.78V262.78H158.471V259.78V256.78H147.851V259.78ZM158.471 259.78H155.471V264.82H158.471H161.471V259.78H158.471ZM158.471 264.82V261.82H147.851V264.82V267.82H158.471V264.82ZM147.851 264.82H144.851V274H147.851H150.851V264.82H147.851ZM166.991 248.8V245.8H162.073L164.323 250.173L166.991 248.8ZM173.831 248.8L176.53 247.49L175.71 245.8H173.831V248.8ZM179.771 261.04L177.072 262.35L179.771 267.911L182.47 262.35L179.771 261.04ZM185.711 248.8V245.8H183.832L183.012 247.49L185.711 248.8ZM192.551 248.8L195.219 250.173L197.468 245.8H192.551V248.8ZM183.011 267.34L180.343 265.967L180.011 266.613V267.34H183.011ZM183.011 274V277H186.011V274H183.011ZM176.531 274H173.531V277H176.531V274ZM176.531 267.34H179.531V266.613L179.199 265.967L176.531 267.34ZM166.991 248.8V251.8H173.831V248.8V245.8H166.991V248.8ZM173.831 248.8L171.132 250.11L177.072 262.35L179.771 261.04L182.47 259.73L176.53 247.49L173.831 248.8ZM179.771 261.04L182.47 262.35L188.41 250.11L185.711 248.8L183.012 247.49L177.072 259.73L179.771 261.04ZM185.711 248.8V251.8H192.551V248.8V245.8H185.711V248.8ZM192.551 248.8L189.883 247.427L180.343 265.967L183.011 267.34L185.678 268.713L195.219 250.173L192.551 248.8ZM183.011 267.34H180.011V274H183.011H186.011V267.34H183.011ZM183.011 274V271H176.531V274V277H183.011V274ZM176.531 274H179.531V267.34H176.531H173.531V274H176.531ZM176.531 267.34L179.199 265.967L169.658 247.427L166.991 248.8L164.323 250.173L173.863 268.713L176.531 267.34Z" fill="black" mask="url(#path-13-outside-1_151_381)"/>
</svg>
