<svg width="849" height="1183" viewBox="0 0 849 1183" fill="none" xmlns="http://www.w3.org/2000/svg">
<rect x="5" y="5" width="839" height="1173" rx="45" fill="white"/>
<rect x="5" y="5" width="839" height="1173" rx="45" stroke="black" stroke-width="10"/>
<circle cx="786.5" cy="1124.5" r="11.5" fill="black"/>
<circle cx="786.5" cy="59.5" r="11.5" fill="black"/>
<path d="M77 1124.5C77 1130.85 71.8513 1136 65.5 1136C59.1487 1136 54 1130.85 54 1124.5C54 1118.15 59.1487 1113 65.5 1113C71.8513 1113 77 1118.15 77 1124.5Z" fill="black"/>
<path d="M77 59.5C77 65.8513 71.8513 71 65.5 71C59.1487 71 54 65.8513 54 59.5C54 53.1487 59.1487 48 65.5 48C71.8513 48 77 53.1487 77 59.5Z" fill="black"/>
<mask id="path-6-inside-1_97_18" fill="white">
<path d="M708 48C713.523 48 717.934 52.4996 718.616 57.9801C723.122 94.1833 751.817 122.878 788.02 127.384C793.5 128.066 798 132.477 798 138V1046C798 1051.52 793.5 1055.93 788.02 1056.62C751.817 1061.12 723.122 1089.82 718.616 1126.02C717.934 1131.5 713.523 1136 708 1136H141C135.477 1136 131.066 1131.5 130.384 1126.02C125.878 1089.82 97.1833 1061.12 60.9801 1056.62C55.4996 1055.93 51 1051.52 51 1046V138C51 132.477 55.4996 128.066 60.9801 127.384C97.1833 122.878 125.878 94.1833 130.384 57.9801C131.066 52.4996 135.477 48 141 48H708Z"/>
</mask>
<path d="M708 48C713.523 48 717.934 52.4996 718.616 57.9801C723.122 94.1833 751.817 122.878 788.02 127.384C793.5 128.066 798 132.477 798 138V1046C798 1051.52 793.5 1055.93 788.02 1056.62C751.817 1061.12 723.122 1089.82 718.616 1126.02C717.934 1131.5 713.523 1136 708 1136H141C135.477 1136 131.066 1131.5 130.384 1126.02C125.878 1089.82 97.1833 1061.12 60.9801 1056.62C55.4996 1055.93 51 1051.52 51 1046V138C51 132.477 55.4996 128.066 60.9801 127.384C97.1833 122.878 125.878 94.1833 130.384 57.9801C131.066 52.4996 135.477 48 141 48H708Z" fill="#7047A3"/>
<path d="M130.384 1126.02L138.322 1125.03L130.384 1126.02ZM718.616 1126.02L710.678 1125.03L718.616 1126.02ZM788.02 1056.62L789.008 1064.56L788.02 1056.62ZM718.616 57.9801L726.555 56.9922L718.616 57.9801ZM718.616 57.9801L710.678 58.9681C715.635 98.8063 747.194 130.365 787.032 135.322L788.02 127.384L789.008 119.445C756.44 115.392 730.608 89.5603 726.555 56.9922L718.616 57.9801ZM798 138H790V1046H798H806V138H798ZM788.02 1056.62L787.032 1048.68C747.194 1053.64 715.635 1085.19 710.678 1125.03L718.616 1126.02L726.555 1127.01C730.608 1094.44 756.44 1068.61 789.008 1064.56L788.02 1056.62ZM708 1136V1128H141V1136V1144H708V1136ZM130.384 1126.02L138.322 1125.03C133.365 1085.19 101.806 1053.64 61.9681 1048.68L60.9801 1056.62L59.9922 1064.56C92.5603 1068.61 118.392 1094.44 122.445 1127.01L130.384 1126.02ZM51 1046H59V138H51H43V1046H51ZM60.9801 127.384L61.9681 135.322C101.806 130.365 133.365 98.8063 138.322 58.9681L130.384 57.9801L122.445 56.9922C118.392 89.5603 92.5603 115.392 59.9922 119.445L60.9801 127.384ZM141 48V56H708V48V40H141V48ZM130.384 57.9801L138.322 58.9681C138.438 58.0389 138.872 57.2306 139.427 56.6958C139.954 56.1887 140.494 56 141 56V48V40C130.84 40 123.547 48.1329 122.445 56.9922L130.384 57.9801ZM51 138H59C59 137.494 59.1887 136.954 59.6958 136.427C60.2306 135.872 61.0389 135.438 61.9681 135.322L60.9801 127.384L59.9922 119.445C51.1329 120.547 43 127.84 43 138H51ZM60.9801 1056.62L61.9681 1048.68C61.0389 1048.56 60.2306 1048.13 59.6958 1047.57C59.1887 1047.05 59 1046.51 59 1046H51H43C43 1056.16 51.1329 1063.45 59.9922 1064.56L60.9801 1056.62ZM141 1136V1128C140.494 1128 139.954 1127.81 139.427 1127.3C138.872 1126.77 138.438 1125.96 138.322 1125.03L130.384 1126.02L122.445 1127.01C123.547 1135.87 130.84 1144 141 1144V1136ZM718.616 1126.02L710.678 1125.03C710.562 1125.96 710.128 1126.77 709.573 1127.3C709.046 1127.81 708.506 1128 708 1128V1136V1144C718.16 1144 725.453 1135.87 726.555 1127.01L718.616 1126.02ZM798 1046H790C790 1046.51 789.811 1047.05 789.304 1047.57C788.769 1048.13 787.961 1048.56 787.032 1048.68L788.02 1056.62L789.008 1064.56C797.867 1063.45 806 1056.16 806 1046H798ZM788.02 127.384L787.032 135.322C787.961 135.438 788.769 135.872 789.304 136.427C789.811 136.954 790 137.494 790 138H798H806C806 127.84 797.867 120.547 789.008 119.445L788.02 127.384ZM718.616 57.9801L726.555 56.9922C725.453 48.1329 718.16 40 708 40V48V56C708.506 56 709.046 56.1887 709.573 56.6958C710.128 57.2306 710.562 58.0389 710.678 58.9681L718.616 57.9801Z" fill="black" mask="url(#path-6-inside-1_97_18)"/>
<path d="M690 102C695.523 102 699.911 106.512 700.837 111.957C705.019 136.563 724.437 155.981 749.043 160.163C754.488 161.089 759 165.477 759 171V1014C759 1019.52 754.488 1023.91 749.043 1024.84C724.711 1028.97 705.454 1048 700.984 1072.22C699.993 1077.59 695.633 1082 690.175 1082H158.825C153.367 1082 149.007 1077.59 148.016 1072.22C143.546 1048 124.288 1028.97 99.9568 1024.84C94.5121 1023.91 90 1019.52 90 1014V171C90 165.477 94.512 161.089 99.9568 160.163C124.563 155.981 143.981 136.563 148.163 111.957C149.089 106.512 153.477 102 159 102H690Z" fill="#B48FE1"/>
<path d="M334.98 348.925V386.58C334.98 391.057 336.142 394.428 338.465 396.695C340.845 398.962 344.132 400.095 348.325 400.095C352.575 400.095 355.862 398.962 358.185 396.695C360.565 394.428 361.755 391.057 361.755 386.58V348.925H371.445V386.41C371.445 391.227 370.397 395.307 368.3 398.65C366.203 401.993 363.398 404.487 359.885 406.13C356.372 407.773 352.49 408.595 348.24 408.595C343.99 408.595 340.108 407.773 336.595 406.13C333.138 404.487 330.39 401.993 328.35 398.65C326.31 395.307 325.29 391.227 325.29 386.41V348.925H334.98ZM402.167 399.33L415.427 361.165H425.712L407.862 408H396.302L378.537 361.165H388.907L402.167 399.33ZM429.806 384.37C429.806 379.667 430.769 375.502 432.696 371.875C434.679 368.248 437.343 365.443 440.686 363.46C444.086 361.42 447.826 360.4 451.906 360.4C455.589 360.4 458.791 361.137 461.511 362.61C464.288 364.027 466.498 365.812 468.141 367.965V361.165H477.916V408H468.141V401.03C466.498 403.24 464.259 405.082 461.426 406.555C458.593 408.028 455.363 408.765 451.736 408.765C447.713 408.765 444.029 407.745 440.686 405.705C437.343 403.608 434.679 400.718 432.696 397.035C430.769 393.295 429.806 389.073 429.806 384.37ZM468.141 384.54C468.141 381.31 467.461 378.505 466.101 376.125C464.798 373.745 463.069 371.932 460.916 370.685C458.763 369.438 456.439 368.815 453.946 368.815C451.453 368.815 449.129 369.438 446.976 370.685C444.823 371.875 443.066 373.66 441.706 376.04C440.403 378.363 439.751 381.14 439.751 384.37C439.751 387.6 440.403 390.433 441.706 392.87C443.066 395.307 444.823 397.177 446.976 398.48C449.186 399.727 451.509 400.35 453.946 400.35C456.439 400.35 458.763 399.727 460.916 398.48C463.069 397.233 464.798 395.42 466.101 393.04C467.461 390.603 468.141 387.77 468.141 384.54ZM507.644 408.765C503.96 408.765 500.645 408.113 497.699 406.81C494.809 405.45 492.514 403.637 490.814 401.37C489.114 399.047 488.207 396.468 488.094 393.635H498.124C498.294 395.618 499.229 397.29 500.929 398.65C502.685 399.953 504.867 400.605 507.474 400.605C510.194 400.605 512.29 400.095 513.764 399.075C515.294 397.998 516.059 396.638 516.059 394.995C516.059 393.238 515.209 391.935 513.509 391.085C511.865 390.235 509.23 389.3 505.604 388.28C502.09 387.317 499.229 386.382 497.019 385.475C494.809 384.568 492.882 383.18 491.239 381.31C489.652 379.44 488.859 376.975 488.859 373.915C488.859 371.422 489.595 369.155 491.069 367.115C492.542 365.018 494.639 363.375 497.359 362.185C500.135 360.995 503.309 360.4 506.879 360.4C512.205 360.4 516.484 361.76 519.714 364.48C523 367.143 524.757 370.798 524.984 375.445H515.294C515.124 373.348 514.274 371.677 512.744 370.43C511.214 369.183 509.145 368.56 506.539 368.56C503.989 368.56 502.034 369.042 500.674 370.005C499.314 370.968 498.634 372.243 498.634 373.83C498.634 375.077 499.087 376.125 499.994 376.975C500.9 377.825 502.005 378.505 503.309 379.015C504.612 379.468 506.539 380.063 509.089 380.8C512.489 381.707 515.265 382.642 517.419 383.605C519.629 384.512 521.527 385.872 523.114 387.685C524.7 389.498 525.522 391.907 525.579 394.91C525.579 397.573 524.842 399.953 523.369 402.05C521.895 404.147 519.799 405.79 517.079 406.98C514.415 408.17 511.27 408.765 507.644 408.765Z" fill="black"/>
<mask id="path-10-outside-2_97_18" maskUnits="userSpaceOnUse" x="407" y="1007" width="35" height="31" fill="black">
<rect fill="white" x="407" y="1007" width="35" height="31"/>
<path d="M407.8 1012V1007.84H416.12V1037H411.52V1012H407.8ZM440.864 1011.36L429.744 1037H425.144L436.384 1011.84H421.584V1007.96H440.864V1011.36Z"/>
</mask>
<path d="M407.8 1012V1007.84H416.12V1037H411.52V1012H407.8ZM440.864 1011.36L429.744 1037H425.144L436.384 1011.84H421.584V1007.96H440.864V1011.36Z" fill="black"/>
<path d="M407.8 1012H407.5V1012.3H407.8V1012ZM407.8 1007.84V1007.54H407.5V1007.84H407.8ZM416.12 1007.84H416.42V1007.54H416.12V1007.84ZM416.12 1037V1037.3H416.42V1037H416.12ZM411.52 1037H411.22V1037.3H411.52V1037ZM411.52 1012H411.82V1011.7H411.52V1012ZM407.8 1012H408.1V1007.84H407.8H407.5V1012H407.8ZM407.8 1007.84V1008.14H416.12V1007.84V1007.54H407.8V1007.84ZM416.12 1007.84H415.82V1037H416.12H416.42V1007.84H416.12ZM416.12 1037V1036.7H411.52V1037V1037.3H416.12V1037ZM411.52 1037H411.82V1012H411.52H411.22V1037H411.52ZM411.52 1012V1011.7H407.8V1012V1012.3H411.52V1012ZM440.864 1011.36L441.14 1011.48L441.164 1011.42V1011.36H440.864ZM429.744 1037V1037.3H429.941L430.02 1037.12L429.744 1037ZM425.144 1037L424.87 1036.88L424.682 1037.3H425.144V1037ZM436.384 1011.84L436.658 1011.96L436.847 1011.54H436.384V1011.84ZM421.584 1011.84H421.284V1012.14H421.584V1011.84ZM421.584 1007.96V1007.66H421.284V1007.96H421.584ZM440.864 1007.96H441.164V1007.66H440.864V1007.96ZM440.864 1011.36L440.589 1011.24L429.469 1036.88L429.744 1037L430.02 1037.12L441.14 1011.48L440.864 1011.36ZM429.744 1037V1036.7H425.144V1037V1037.3H429.744V1037ZM425.144 1037L425.418 1037.12L436.658 1011.96L436.384 1011.84L436.11 1011.72L424.87 1036.88L425.144 1037ZM436.384 1011.84V1011.54H421.584V1011.84V1012.14H436.384V1011.84ZM421.584 1011.84H421.884V1007.96H421.584H421.284V1011.84H421.584ZM421.584 1007.96V1008.26H440.864V1007.96V1007.66H421.584V1007.96ZM440.864 1007.96H440.564V1011.36H440.864H441.164V1007.96H440.864Z" fill="black" mask="url(#path-10-outside-2_97_18)"/>
<path d="M281.13 222.335C279.94 220.375 278.295 218.87 276.195 217.82C274.165 216.77 271.75 216.245 268.95 216.245C263.77 216.245 259.675 217.925 256.665 221.285C253.725 224.645 252.255 229.16 252.255 234.83C252.255 241.2 253.83 246.065 256.98 249.425C260.2 252.715 264.855 254.36 270.945 254.36C278.155 254.36 283.3 251.105 286.38 244.595H265.695V229.79H304.125V249.74C302.515 253.66 300.135 257.335 296.985 260.765C293.905 264.195 289.985 267.03 285.225 269.27C280.465 271.44 275.04 272.525 268.95 272.525C261.53 272.525 254.95 270.95 249.21 267.8C243.54 264.58 239.13 260.135 235.98 254.465C232.9 248.725 231.36 242.18 231.36 234.83C231.36 227.55 232.9 221.075 235.98 215.405C239.13 209.665 243.54 205.22 249.21 202.07C254.88 198.85 261.425 197.24 268.845 197.24C278.155 197.24 285.855 199.48 291.945 203.96C298.035 208.44 301.815 214.565 303.285 222.335H281.13ZM333.928 223.49C336.238 220.13 339.038 217.47 342.328 215.51C345.618 213.55 349.153 212.57 352.933 212.57V234.515H347.158C342.678 234.515 339.353 235.39 337.183 237.14C335.013 238.89 333.928 241.935 333.928 246.275V272H313.348V213.095H333.928V223.49ZM356.951 242.495C356.951 236.405 358.036 231.085 360.206 226.535C362.446 221.985 365.456 218.485 369.236 216.035C373.086 213.585 377.356 212.36 382.046 212.36C386.106 212.36 389.606 213.165 392.546 214.775C395.486 216.385 397.761 218.555 399.371 221.285V213.095H419.951V272H399.371V263.81C397.761 266.54 395.451 268.71 392.441 270.32C389.501 271.93 386.036 272.735 382.046 272.735C377.356 272.735 373.086 271.51 369.236 269.06C365.456 266.61 362.446 263.11 360.206 258.56C358.036 253.94 356.951 248.585 356.951 242.495ZM399.371 242.495C399.371 238.715 398.321 235.74 396.221 233.57C394.191 231.4 391.671 230.315 388.661 230.315C385.581 230.315 383.026 231.4 380.996 233.57C378.966 235.67 377.951 238.645 377.951 242.495C377.951 246.275 378.966 249.285 380.996 251.525C383.026 253.695 385.581 254.78 388.661 254.78C391.671 254.78 394.191 253.695 396.221 251.525C398.321 249.355 399.371 246.345 399.371 242.495ZM452.258 221.285C453.868 218.555 456.143 216.385 459.083 214.775C462.023 213.165 465.488 212.36 469.478 212.36C474.168 212.36 478.403 213.585 482.183 216.035C486.033 218.485 489.043 221.985 491.213 226.535C493.453 231.085 494.573 236.405 494.573 242.495C494.573 248.585 493.453 253.94 491.213 258.56C489.043 263.11 486.033 266.61 482.183 269.06C478.403 271.51 474.168 272.735 469.478 272.735C465.488 272.735 462.023 271.93 459.083 270.32C456.213 268.71 453.938 266.54 452.258 263.81V300.14H431.678V213.095H452.258V221.285ZM473.678 242.495C473.678 238.645 472.628 235.67 470.528 233.57C468.498 231.4 465.978 230.315 462.968 230.315C459.958 230.315 457.403 231.4 455.303 233.57C453.273 235.74 452.258 238.715 452.258 242.495C452.258 246.345 453.273 249.355 455.303 251.525C457.403 253.695 459.958 254.78 462.968 254.78C465.978 254.78 468.498 253.695 470.528 251.525C472.628 249.285 473.678 246.275 473.678 242.495ZM559.325 241.865C559.325 243.475 559.22 245.085 559.01 246.695H520.055C520.265 249.915 521.14 252.33 522.68 253.94C524.29 255.48 526.32 256.25 528.77 256.25C532.2 256.25 534.65 254.71 536.12 251.63H558.065C557.155 255.69 555.37 259.33 552.71 262.55C550.12 265.7 546.83 268.185 542.84 270.005C538.85 271.825 534.44 272.735 529.61 272.735C523.8 272.735 518.62 271.51 514.07 269.06C509.59 266.61 506.055 263.11 503.465 258.56C500.945 254.01 499.685 248.655 499.685 242.495C499.685 236.335 500.945 231.015 503.465 226.535C505.985 221.985 509.485 218.485 513.965 216.035C518.515 213.585 523.73 212.36 529.61 212.36C535.42 212.36 540.565 213.55 545.045 215.93C549.525 218.31 553.025 221.74 555.545 226.22C558.065 230.63 559.325 235.845 559.325 241.865ZM538.325 236.72C538.325 234.2 537.485 232.24 535.805 230.84C534.125 229.37 532.025 228.635 529.505 228.635C526.985 228.635 524.92 229.335 523.31 230.735C521.7 232.065 520.65 234.06 520.16 236.72H538.325ZM592.842 272.735C587.522 272.735 582.762 271.86 578.562 270.11C574.432 268.29 571.142 265.84 568.692 262.76C566.312 259.61 564.982 256.075 564.702 252.155H584.652C584.932 254.045 585.807 255.515 587.277 256.565C588.747 257.615 590.567 258.14 592.737 258.14C594.417 258.14 595.747 257.79 596.727 257.09C597.707 256.39 598.197 255.48 598.197 254.36C598.197 252.89 597.392 251.805 595.782 251.105C594.172 250.405 591.512 249.635 587.802 248.795C583.602 247.955 580.102 247.01 577.302 245.96C574.502 244.91 572.052 243.195 569.952 240.815C567.922 238.435 566.907 235.215 566.907 231.155C566.907 227.655 567.852 224.505 569.742 221.705C571.632 218.835 574.397 216.56 578.037 214.88C581.747 213.2 586.192 212.36 591.372 212.36C599.072 212.36 605.127 214.25 609.537 218.03C613.947 221.81 616.502 226.78 617.202 232.94H598.617C598.267 231.05 597.427 229.615 596.097 228.635C594.837 227.585 593.122 227.06 590.952 227.06C589.272 227.06 587.977 227.375 587.067 228.005C586.227 228.635 585.807 229.51 585.807 230.63C585.807 232.03 586.612 233.115 588.222 233.885C589.832 234.585 592.422 235.32 595.992 236.09C600.262 237 603.797 238.015 606.597 239.135C609.467 240.255 611.952 242.075 614.052 244.595C616.222 247.045 617.307 250.405 617.307 254.675C617.307 258.105 616.292 261.185 614.262 263.915C612.302 266.645 609.467 268.815 605.757 270.425C602.117 271.965 597.812 272.735 592.842 272.735Z" fill="black"/>
<ellipse cx="199" cy="927.5" rx="25" ry="17.5" fill="white"/>
<ellipse cx="213.241" cy="849.537" rx="28.5" ry="19.5" transform="rotate(-41.8276 213.241 849.537)" fill="white"/>
<ellipse cx="242.027" cy="745.13" rx="28.5" ry="19.5" transform="rotate(-17.398 242.027 745.13)" fill="white"/>
<ellipse cx="244.027" cy="649.13" rx="28.5" ry="19.5" transform="rotate(-17.398 244.027 649.13)" fill="white"/>
<path d="M528.016 439.538C549.416 453.282 542.165 537.239 532.963 558.14C554.42 544.042 569.974 537.242 596.182 536.081C626.381 534.744 646.981 549.056 674.909 554.554C693.755 558.263 697.39 555.678 688.535 577.295C679.678 598.918 665.727 611.973 648.245 626.159C670.439 633.667 688.332 645.971 701.308 665.931C712.36 682.934 704.249 680.05 691.713 687.48C678.877 695.089 669.879 703.083 658.007 711.915C632.371 730.987 603.469 735.42 572.718 730.952C570.217 730.588 566.767 729.641 564.427 729.458L563.639 729.406L564.727 730.139C607.496 759.297 597.296 823.692 544.787 833.066C552.742 880.819 511.28 911.886 466.347 898.219C456.894 923.316 423.117 941.611 398.634 928.706C384.459 951.758 365.735 961.641 338.792 958.169C333.635 979.716 314.595 993.333 293.644 997.358C279.164 999.87 267.244 997.042 254.555 989.888C215.674 1031.61 142.197 991.341 161.334 933.862C166.829 917.362 179.207 907.322 194.285 900.024C160.94 871.192 170.719 822.489 212.316 807.945C185.632 780.541 187.858 743.461 217.624 719.478L216.8 718.727C178.934 683.786 198.059 618.289 251.18 615.076C255.999 614.785 260.806 615.34 265.677 615.19C239.409 540.325 335.6 501.052 368.021 559.808C399.976 526.051 452.762 532.934 470.675 576.743C471.601 579.011 473.126 581.853 474.229 584.089C507.434 558.302 509.943 509.855 501.691 472.002C500.358 464.534 496.436 454.933 500.456 447.65C506.499 436.703 517.423 434.221 528.016 439.538ZM265.466 736.581C245.205 731.939 208.079 749.288 222.661 760.378C229.92 759.956 236.063 741.685 259.296 744.884C269.999 746.357 272.497 740.726 265.466 736.581ZM224.267 666.794C229.884 667.717 230.508 663.013 233.565 659.04C247.754 640.605 265.296 652.007 271.226 646.906C272.969 643.764 270.835 640.931 268.474 638.907C256.082 636.649 244.597 637.862 233.992 645.342C228.241 649.4 214.432 660.619 224.267 666.794ZM186.749 940.746C195.428 942.973 197.432 929.816 209.495 929.693C216.291 929.624 226.286 925.658 218.332 920.143C204.763 916.575 176.921 929.165 186.749 940.746ZM196.756 855.23C204.713 858.503 207.569 845.521 216.314 841.019C216.474 840.936 244.017 838.256 231.878 829.862C216.449 824.686 189.018 843.797 196.756 855.23ZM516.882 458.13C519.439 456.392 521.917 454.453 524.38 452.576C518.591 445.543 509.854 447.82 510.236 456.924C512.779 457.871 514.209 458.126 516.882 458.13Z" fill="black"/>
<path d="M519.264 592.468C531.22 570.643 548.089 557.952 572.392 550.598C616.118 537.369 643.187 562.996 681.659 566.562C672.031 589.53 654.645 611.671 631.747 622.489C627.387 624.549 620.469 620.566 617.766 626.79C613.312 636.038 635.897 635.52 640.171 636.318C659.394 639.904 684.063 655.74 692.584 673.823C642.096 700.176 633.25 735.338 558.983 716.265L558.307 706.052C553.951 681.143 547.444 673.119 526.843 659.379C562.098 658.477 587.212 654.915 620.511 675.568C635.532 684.883 636.223 672.31 630.64 668.477C593.713 643.122 557.747 644.64 516.668 650.291C535.576 619.05 578.933 592.694 616.102 596.087C627.282 597.108 628.317 584.545 613.468 584.263C574.1 583.515 541.926 603.606 516.141 631.267C513.49 621.947 512.67 616.996 507.174 609.15C511.338 603.569 515.277 598.174 519.264 592.468Z" fill="#5CB05B"/>
<path d="M519.264 592.468C531.22 570.643 548.089 557.952 572.392 550.598C616.118 537.369 643.187 562.996 681.659 566.562C672.031 589.53 654.645 611.671 631.747 622.489C627.387 624.549 620.469 620.566 617.766 626.79C613.312 636.038 635.897 635.52 640.171 636.318C659.394 639.904 684.063 655.74 692.584 673.823C642.096 700.176 633.25 735.338 558.983 716.265L558.307 706.052C609.008 709.639 631.864 700.46 669.869 669.449C657.632 655.704 640.712 649.559 623.988 644.979C589.845 635.632 603.352 618.574 626.101 607.472C638.673 601.337 651.712 588.569 659.888 577.035C611.798 555.076 571.62 550.587 528.691 585.205C526.443 587.016 521.583 591.582 519.264 592.468Z" fill="#3B9038"/>
<path d="M346.989 869.144C332.576 856.324 327.561 835.945 334.377 817.9C341.192 799.855 358.43 787.883 377.718 787.795C397.007 787.705 414.354 799.519 421.335 817.499C429.122 837.551 422.16 860.324 404.496 872.594C386.83 884.864 363.059 883.438 346.989 869.144Z" fill="#9537AC"/>
<path d="M421.335 817.499C429.121 837.55 422.16 860.324 404.496 872.594C386.829 884.864 363.059 883.438 346.989 869.144C349.434 868.902 354.58 871.328 357.003 872.315C387.329 884.667 418.03 865.816 419.957 832.946C420.216 828.509 419.46 821.346 421.335 817.499Z" fill="#841B99"/>
<path d="M383.215 798.915C386.091 800.569 389.079 803.957 385.962 807.284C379.9 813.752 366.322 800.235 356.141 823.225C354.229 827.545 353.305 828.514 348.669 827.858C334.946 818.085 361.451 795.21 383.215 798.915Z" fill="#FDF8FA"/>
<path d="M511.271 804.297C533.804 816.381 542.236 844.467 530.086 866.965C517.935 889.461 489.824 897.811 467.363 885.594C444.995 873.429 436.688 845.458 448.787 823.055C460.887 800.652 488.834 792.262 511.271 804.297Z" fill="#9537AC"/>
<path d="M495.365 809.441C498.354 811.259 499.677 814.606 497.22 817.48C494.965 820.118 479.76 819.744 470.556 827.512C466.062 831.099 464.464 836.223 458.738 836.724C445.667 822.504 479.929 807.836 495.365 809.441Z" fill="#FDF8FA"/>
<path d="M276.452 895.782C280.638 896.874 285.676 898.268 289.893 898.757C292.736 899.087 298.643 898.042 301.323 899.147C311.484 903.342 319.079 910.993 324.144 920.223C345.467 952.695 312.652 994.287 273.858 986.357C267.234 985.075 256.327 979.787 252.116 974.575C223.537 950.135 242.489 899.836 276.452 895.782Z" fill="#C25BC9"/>
<path d="M324.144 920.223C345.467 952.695 312.652 994.287 273.858 986.357C267.234 985.075 256.327 979.787 252.116 974.575C254.527 974.489 266.434 979.532 270.525 980.258C300.495 985.578 328.424 963.538 325.5 932.258C325.225 929.311 323.419 922.684 324.144 920.223Z" fill="#9537AC"/>
<path d="M296.687 910.446C307.269 923.182 278.223 916.076 265.951 928.286C262.166 932.053 261.182 939.069 255.097 935.988C244.046 921.292 280.478 903.994 296.687 910.446Z" fill="#FDF8FA"/>
<path d="M467.564 715.285C489.1 728.359 496.02 756.378 483.048 777.974C470.076 799.57 442.089 806.622 420.432 793.751C398.63 780.795 391.522 752.581 404.58 730.841C417.638 709.101 445.884 702.124 467.564 715.285Z" fill="#9537AC"/>
<path d="M455.875 721.014C457.63 722.583 458.508 724.013 458.086 726.47C456.193 737.614 438.473 721.313 426.145 739.545C422.603 744.781 422.703 751.179 414.991 749.838C403.513 734.173 435.297 715.297 455.875 721.014Z" fill="#FDF8FA"/>
<path d="M251.89 813.394C243.44 809.822 235.334 808.856 226.824 804.229C205.503 792.641 199.263 765.259 211.418 744.505C230.08 712.64 283.343 720.65 291.005 751.587C296.971 759.428 298.167 778.803 294.526 788.618C290.67 788.746 288.858 788.916 285.04 789.684C270.218 792.442 260.257 801.725 251.89 813.394ZM222.661 760.378C229.92 759.956 236.063 741.685 259.296 744.884C269.999 746.357 272.497 740.726 265.466 736.581C245.205 731.939 208.079 749.288 222.661 760.378Z" fill="#C25BC9"/>
<path d="M291.005 751.587C296.971 759.428 298.167 778.803 294.526 788.618C290.669 788.746 288.858 788.916 285.04 789.684C293.097 773.771 288.688 765.322 289.746 750.499L291.005 751.587Z" fill="#9537AC"/>
<path d="M213.835 697.537C187.102 652.108 250.543 599.463 285.934 640.722C278.157 659.437 282.082 674.603 291.193 691.188C292.068 692.522 293.006 694.036 293.959 695.293C281.904 712.087 274.069 717.288 255.289 712.951C246.877 712.399 242.998 712.443 234.729 714.304C233.355 714.624 231.787 714.81 230.371 715.012C224.271 710.9 216.375 704.743 213.835 697.537ZM224.267 666.794C229.884 667.717 230.509 663.013 233.565 659.04C247.755 640.605 265.297 652.007 271.226 646.906C272.969 643.764 270.835 640.932 268.475 638.908C256.082 636.649 244.597 637.862 233.993 645.342C228.241 649.4 214.432 660.62 224.267 666.794Z" fill="#C25BC9"/>
<path d="M291.193 691.188C292.068 692.522 293.006 694.037 293.959 695.294C281.904 712.087 274.069 717.288 255.289 712.951C263.638 706.69 274.68 713.935 291.193 691.188Z" fill="#9537AC"/>
<path d="M213.834 697.537C218.583 697.224 230.637 710.833 234.728 714.304C233.354 714.624 231.786 714.81 230.37 715.011C224.271 710.9 216.375 704.743 213.834 697.537Z" fill="#9537AC"/>
<path d="M347.676 685.468C353.232 648.566 409.26 636.631 429.998 670.045C436.911 678.097 439.492 687.481 440.095 697.957L432.708 699.513C412.897 704.658 403.733 711.641 392.83 729.032C391.63 731.508 390.491 734.391 389.416 736.955C360.901 738.079 340.208 712.709 347.676 685.468Z" fill="#C25BC9"/>
<path d="M347.676 685.468C350.368 688.625 349.103 695.613 350.306 699.727C356.44 720.689 369.353 739.207 392.829 729.032C391.629 731.508 390.491 734.391 389.416 736.955C360.9 738.079 340.208 712.709 347.676 685.468Z" fill="#9537AC"/>
<path d="M429.998 670.045C436.911 678.097 439.492 687.481 440.095 697.957L432.708 699.513C433.209 692.458 429.316 671.931 429.998 670.045Z" fill="#9537AC"/>
<path d="M402.254 663.618C404.945 664.536 406.942 667.965 404.525 669.413C395.773 674.653 385.744 665.299 369.03 682.577C366.751 684.825 365.282 686.697 361.89 686.667C350.662 679.219 382.386 655.227 402.254 663.618Z" fill="#FDF8FA"/>
<path d="M317.073 804.959C320.169 806.257 323.476 809.264 326.079 811.486C313.444 828.525 322.982 853.288 332.012 869.565C317.904 888.198 298.085 893.302 276.729 883.562C221.665 854.594 271.105 776.987 317.073 804.959Z" fill="#9537AC"/>
<path d="M302.313 811.607C304.156 813.08 305.965 815.69 304.923 818.223C302.386 824.386 289.465 818.431 280.362 827.629C275.254 832.791 275.015 843.265 266.063 840.302C255.25 826.668 284.264 806.962 302.313 811.607Z" fill="#FDF8FA"/>
<path d="M341.323 548.796C348.89 552.192 357.937 562.111 360.704 569.905C358.315 586.49 355.276 586.065 356.23 606.581C332.875 602.452 305.166 607.264 292.276 629.593C242.305 587.651 295.398 522.5 341.323 548.796Z" fill="#C25BC9"/>
<path d="M334.913 557.641C336.881 558.886 338.099 560.399 336.568 562.927C332.192 569.333 314.866 556.218 298.822 580.27C295.61 581.354 294.101 581.522 291.057 580.171C282.971 569.404 313.414 549.556 334.913 557.641Z" fill="#FDF8FA"/>
<path d="M411.398 642.923C416.535 598.089 462.521 577.66 495.771 612.497C506.739 625.799 506.37 636.959 505.157 653.015C500.256 653.403 495.6 654.15 490.744 654.878C469.374 661.246 461.519 667.343 450.095 686.187C443.195 663.549 433.436 651.704 411.398 642.923Z" fill="#C25BC9"/>
<path d="M495.771 612.497C506.739 625.798 506.37 636.958 505.156 653.014C500.256 653.402 495.599 654.15 490.744 654.878C499.688 638.435 491.026 614.09 493.968 611.88L495.771 612.497Z" fill="#9537AC"/>
<path d="M474.565 608.551C476.125 609.606 477.946 611.95 477.277 613.834C474.881 620.581 453.263 610.609 438.841 627.461C436.043 630.73 434.676 633.527 430.1 632.625C418.048 620.767 455.546 600.928 474.565 608.551Z" fill="#FDF8FA"/>
<path d="M457.477 700.781C471.666 648.003 542.524 657.764 547.124 705.605C549.11 726.282 541.212 733.835 529.825 747.686C521.161 752.856 511.061 757.544 500.794 757.441C500.534 754.713 500.562 753.318 500.662 750.573C499.445 729.179 479.536 702.219 457.477 700.781Z" fill="#C25BC9"/>
<path d="M500.661 750.573C507.899 751.83 511.707 751.037 518.439 748.924L518.357 749.367C522.904 751.805 526.004 748.005 529.825 747.686C521.16 752.856 511.06 757.544 500.794 757.441C500.534 754.713 500.562 753.318 500.661 750.573Z" fill="#841B99"/>
<path d="M508.818 675.151C519.117 685.307 494.475 685.105 490.202 687.917C485.348 691.11 481.31 697.568 477.177 697.288C463.627 688.303 494.873 673.426 508.818 675.151Z" fill="#FDF8FA"/>
<path d="M233.555 914.09C233.69 915.265 230.437 921.653 229.874 923.603C223.315 946.302 228.058 967.323 245.68 983.456C232.265 996.839 210.634 998.933 193.834 991.054C161.627 975.027 160.905 928.967 193.131 913.645C210.932 905.181 206.601 910.706 219.242 912.742C224.144 913.532 228.688 913.298 233.555 914.09ZM186.75 940.747C195.429 942.974 197.432 929.816 209.495 929.693C216.291 929.625 226.287 925.659 218.332 920.143C204.764 916.575 176.921 929.166 186.75 940.747Z" fill="#9537AC"/>
<path d="M370.207 613.07C352.505 559.095 419.966 527.809 447.881 564.994C455.658 570.451 458.164 576.117 461.195 585.038C457.88 585.015 456.293 585.1 453.007 585.511C434.305 587.472 406.79 603.997 404.987 624.179C404.106 626.151 402.748 628.864 402.308 630.898C401.349 634.103 401.167 635.498 400.765 638.857C397.394 639.063 395.496 639.085 392.087 638.411C389.693 634.704 388.844 631.854 386.09 628.222C381.608 620.795 377.257 617.876 370.207 613.07Z" fill="#C25BC9"/>
<path d="M447.88 564.994C455.658 570.451 458.164 576.117 461.195 585.038C457.879 585.015 456.293 585.1 453.007 585.511C452.216 581.263 447.384 568.509 447.88 564.994Z" fill="#9537AC"/>
<path d="M402.308 630.898C401.349 634.103 401.167 635.498 400.765 638.857C397.394 639.063 395.496 639.085 392.087 638.411C389.693 634.704 388.844 631.854 386.09 628.222C388.147 628.432 390.787 628.846 392.75 629.408C395.591 630.388 399.305 630.873 402.308 630.898Z" fill="#841B99"/>
<path d="M392.75 629.408C395.792 627.729 401.599 625.528 404.987 624.179C404.106 626.151 402.747 628.864 402.308 630.898C399.304 630.873 395.591 630.388 392.75 629.408Z" fill="#9537AC"/>
<path d="M427.61 563.098C435.36 567.289 433.154 575.461 427.261 573.1C399.625 562.024 396.833 583.806 385.94 586.097C370.554 577.082 401.36 555.253 427.61 563.098Z" fill="#FDF8FA"/>
<path d="M245.71 821.921C248.167 825.634 227.746 860.176 264.391 888.657C256.776 891.56 244.611 900.534 242.249 901.24C232.301 904.216 221.469 902.606 212.403 898.761C180.521 883.412 174.473 841.162 206.888 822.314C221.288 813.941 230.74 817.577 245.71 821.921ZM196.757 855.231C204.714 858.503 207.569 845.521 216.314 841.02C216.474 840.936 244.017 838.256 231.879 829.862C216.449 824.686 189.018 843.797 196.757 855.231Z" fill="#9537AC"/>
<path d="M335.703 701.989C341.333 726.567 352.65 743.268 379.46 747.48C382.018 747.835 384.686 748.29 387.254 748.348C387.271 754.808 387.685 759.131 388.148 765.603C382.614 773.285 379.733 776.466 370.011 777.43C360.793 778.196 349.838 783.52 342.462 788.88C337.98 787.354 332.647 786.318 328.366 784.481C293.112 769.352 292.445 718.58 335.703 701.989Z" fill="#C25BC9"/>
<path d="M379.46 747.48C382.018 747.835 384.686 748.29 387.254 748.348C387.271 754.808 387.685 759.131 388.148 765.603C382.614 773.285 379.733 776.466 370.011 777.43C375.552 767.098 379.092 760.993 379.46 747.48Z" fill="#9537AC"/>
<path d="M328.422 718.169C334.486 723.253 327.437 727.811 324.723 732.491C321.614 737.389 320.213 750.62 313.45 750.483C305.845 743.608 318.129 718.285 328.422 718.169Z" fill="#FDF8FA"/>
<path d="M363.725 622.015C371.629 625.787 376.303 632.723 380.838 639.71C352.232 648.942 339.6 661.629 334.533 691.527C327.815 693.529 320.452 697.028 315.032 698.502C311.943 696.834 307.404 693.094 304.506 690.874C270.655 649.355 317.889 595.985 363.725 622.015Z" fill="#C25BC9"/>
<path d="M351.118 626.558C356.783 634.817 346.095 634.694 340.909 635.076C319.734 636.635 317.944 655.601 306.861 654.142C298.546 638.252 334.824 622.275 351.118 626.558Z" fill="#FDF8FA"/>
<path d="M553.822 735.237L563.285 742.096C582.48 760.118 587.005 790.463 568.198 810.183C560.481 818.275 553.606 820.226 543.168 822.87C540.641 818.429 537.454 811.811 533.19 809.066C523.59 794.212 507.013 788.835 490.289 787.079C494.588 779.784 496.212 776.673 498.944 768.8C527.752 767.542 538.578 756.721 553.822 735.237Z" fill="#C25BC9"/>
<path d="M563.285 742.095C582.48 760.118 587.005 790.462 568.197 810.183C560.481 818.275 553.606 820.226 543.167 822.87C540.64 818.429 537.454 811.811 533.19 809.066C556.889 796.716 565.286 783.542 564.389 756.078C564.264 752.267 562.673 745.63 563.285 742.095Z" fill="#9537AC"/>
<path d="M390.943 890.623C392.112 895.052 392.038 896.374 391.781 900.809C398.452 928.041 369.005 950.753 341.133 947.592C341.31 946.146 341.468 944.49 341.702 943.071C339.442 919.378 334.949 910.824 316.391 895.453C327.766 890.732 332.118 886.219 340.379 877.525C356.387 890.44 370.952 893.422 390.943 890.623Z" fill="#9537AC"/>
<path d="M391.781 900.809C398.452 928.042 369.005 950.753 341.133 947.593C341.31 946.146 341.468 944.49 341.703 943.071C362.102 943.769 379.285 930.199 387.309 912.193C388.741 908.978 389.39 903.137 391.781 900.809Z" fill="#841B99"/>
<path d="M433.3 850.57C435.768 869.165 442.03 878.818 454.998 891.511C455.756 892.124 457.364 893.112 456.979 894.023C446.8 918.114 425.904 924.69 401.426 919.872L403.02 913.603C405.054 901.692 404.461 898.216 402.163 886.483C418.242 878.942 427.384 866.743 433.3 850.57Z" fill="#9537AC"/>
<path d="M454.998 891.511C455.756 892.124 457.364 893.112 456.979 894.023C446.8 918.114 425.904 924.69 401.426 919.872L403.02 913.603C427.129 921.144 440.073 908.157 454.998 891.511Z" fill="#841B99"/>
<path d="M524.38 452.576C527.519 458.758 527.698 466.701 528.647 473.519C534.613 516.369 527.498 565.698 499.571 600.196C494.578 595.908 490.259 593.157 484.84 589.52C517.408 557.112 522.802 517.84 513.707 473.387C512.662 468.275 510.872 461.911 510.236 456.924C512.779 457.871 514.209 458.126 516.882 458.13C519.439 456.392 521.917 454.453 524.38 452.576Z" fill="#3B9038"/>
<path d="M299.646 701.462L306.206 706.217C301.743 711.609 293.113 731.423 291.832 732.3L290.8 731.939C287.185 726.309 287.381 726.332 281.732 722.299C289.758 716.635 294.602 709.695 299.646 701.462Z" fill="#841B99"/>
<path d="M444.971 811.662C442.58 817.159 438.97 819.975 436.064 828.364C435.192 823.364 435.155 822.057 432.537 817.736C431.73 812.962 430.879 811.92 427.943 808.176C432.239 808.61 440.878 810.465 444.971 811.662Z" fill="#C25BC9"/>
<path d="M330.846 796.961C334.547 798.759 331.113 802.865 326.93 799.752C319.372 794.127 314.35 791.337 305.084 789.617C305.322 787.162 306.414 785.252 307.514 783.107C317.898 790.953 318.968 792.166 330.846 796.961Z" fill="#841B99"/>
</svg>
