<svg width="849" height="1183" viewBox="0 0 849 1183" fill="none" xmlns="http://www.w3.org/2000/svg">
<rect x="5" y="5" width="839" height="1173" rx="45" fill="white"/>
<rect x="5" y="5" width="839" height="1173" rx="45" stroke="black" stroke-width="10"/>
<circle cx="786.5" cy="1124.5" r="11.5" fill="black"/>
<circle cx="786.5" cy="59.5" r="11.5" fill="black"/>
<path d="M77 1124.5C77 1130.85 71.8513 1136 65.5 1136C59.1487 1136 54 1130.85 54 1124.5C54 1118.15 59.1487 1113 65.5 1113C71.8513 1113 77 1118.15 77 1124.5Z" fill="black"/>
<path d="M77 59.5C77 65.8513 71.8513 71 65.5 71C59.1487 71 54 65.8513 54 59.5C54 53.1487 59.1487 48 65.5 48C71.8513 48 77 53.1487 77 59.5Z" fill="black"/>
<mask id="path-6-inside-1_97_37" fill="white">
<path d="M708 48C713.523 48 717.934 52.4996 718.616 57.9801C723.122 94.1833 751.817 122.878 788.02 127.384C793.5 128.066 798 132.477 798 138V1046C798 1051.52 793.5 1055.93 788.02 1056.62C751.817 1061.12 723.122 1089.82 718.616 1126.02C717.934 1131.5 713.523 1136 708 1136H141C135.477 1136 131.066 1131.5 130.384 1126.02C125.878 1089.82 97.1833 1061.12 60.9801 1056.62C55.4996 1055.93 51 1051.52 51 1046V138C51 132.477 55.4996 128.066 60.9801 127.384C97.1833 122.878 125.878 94.1833 130.384 57.9801C131.066 52.4996 135.477 48 141 48H708Z"/>
</mask>
<path d="M708 48C713.523 48 717.934 52.4996 718.616 57.9801C723.122 94.1833 751.817 122.878 788.02 127.384C793.5 128.066 798 132.477 798 138V1046C798 1051.52 793.5 1055.93 788.02 1056.62C751.817 1061.12 723.122 1089.82 718.616 1126.02C717.934 1131.5 713.523 1136 708 1136H141C135.477 1136 131.066 1131.5 130.384 1126.02C125.878 1089.82 97.1833 1061.12 60.9801 1056.62C55.4996 1055.93 51 1051.52 51 1046V138C51 132.477 55.4996 128.066 60.9801 127.384C97.1833 122.878 125.878 94.1833 130.384 57.9801C131.066 52.4996 135.477 48 141 48H708Z" fill="#DBEE71"/>
<path d="M130.384 1126.02L138.322 1125.03L130.384 1126.02ZM718.616 1126.02L710.678 1125.03L718.616 1126.02ZM788.02 1056.62L789.008 1064.56L788.02 1056.62ZM718.616 57.9801L726.555 56.9922L718.616 57.9801ZM718.616 57.9801L710.678 58.9681C715.635 98.8063 747.194 130.365 787.032 135.322L788.02 127.384L789.008 119.445C756.44 115.392 730.608 89.5603 726.555 56.9922L718.616 57.9801ZM798 138H790V1046H798H806V138H798ZM788.02 1056.62L787.032 1048.68C747.194 1053.64 715.635 1085.19 710.678 1125.03L718.616 1126.02L726.555 1127.01C730.608 1094.44 756.44 1068.61 789.008 1064.56L788.02 1056.62ZM708 1136V1128H141V1136V1144H708V1136ZM130.384 1126.02L138.322 1125.03C133.365 1085.19 101.806 1053.64 61.9681 1048.68L60.9801 1056.62L59.9922 1064.56C92.5603 1068.61 118.392 1094.44 122.445 1127.01L130.384 1126.02ZM51 1046H59V138H51H43V1046H51ZM60.9801 127.384L61.9681 135.322C101.806 130.365 133.365 98.8063 138.322 58.9681L130.384 57.9801L122.445 56.9922C118.392 89.5603 92.5603 115.392 59.9922 119.445L60.9801 127.384ZM141 48V56H708V48V40H141V48ZM130.384 57.9801L138.322 58.9681C138.438 58.0389 138.872 57.2306 139.427 56.6958C139.954 56.1887 140.494 56 141 56V48V40C130.84 40 123.547 48.1329 122.445 56.9922L130.384 57.9801ZM51 138H59C59 137.494 59.1887 136.954 59.6958 136.427C60.2306 135.872 61.0389 135.438 61.9681 135.322L60.9801 127.384L59.9922 119.445C51.1329 120.547 43 127.84 43 138H51ZM60.9801 1056.62L61.9681 1048.68C61.0389 1048.56 60.2306 1048.13 59.6958 1047.57C59.1887 1047.05 59 1046.51 59 1046H51H43C43 1056.16 51.1329 1063.45 59.9922 1064.56L60.9801 1056.62ZM141 1136V1128C140.494 1128 139.954 1127.81 139.427 1127.3C138.872 1126.77 138.438 1125.96 138.322 1125.03L130.384 1126.02L122.445 1127.01C123.547 1135.87 130.84 1144 141 1144V1136ZM718.616 1126.02L710.678 1125.03C710.562 1125.96 710.128 1126.77 709.573 1127.3C709.046 1127.81 708.506 1128 708 1128V1136V1144C718.16 1144 725.453 1135.87 726.555 1127.01L718.616 1126.02ZM798 1046H790C790 1046.51 789.811 1047.05 789.304 1047.57C788.769 1048.13 787.961 1048.56 787.032 1048.68L788.02 1056.62L789.008 1064.56C797.867 1063.45 806 1056.16 806 1046H798ZM788.02 127.384L787.032 135.322C787.961 135.438 788.769 135.872 789.304 136.427C789.811 136.954 790 137.494 790 138H798H806C806 127.84 797.867 120.547 789.008 119.445L788.02 127.384ZM718.616 57.9801L726.555 56.9922C725.453 48.1329 718.16 40 708 40V48V56C708.506 56 709.046 56.1887 709.573 56.6958C710.128 57.2306 710.562 58.0389 710.678 58.9681L718.616 57.9801Z" fill="black" mask="url(#path-6-inside-1_97_37)"/>
<path d="M690 102C695.523 102 699.911 106.512 700.837 111.957C705.019 136.563 724.437 155.981 749.043 160.163C754.488 161.089 759 165.477 759 171V1014C759 1019.52 754.488 1023.91 749.043 1024.84C724.711 1028.97 705.454 1048 700.984 1072.22C699.993 1077.59 695.633 1082 690.175 1082H158.825C153.367 1082 149.007 1077.59 148.016 1072.22C143.546 1048 124.288 1028.97 99.9568 1024.84C94.5121 1023.91 90 1019.52 90 1014V171C90 165.477 94.512 161.089 99.9568 160.163C124.563 155.981 143.981 136.563 148.163 111.957C149.089 106.512 153.477 102 159 102H690Z" fill="#DFE4C2"/>
<path d="M288.145 378.335C288.145 372.555 289.477 367.37 292.14 362.78C294.86 358.19 298.515 354.62 303.105 352.07C307.752 349.463 312.823 348.16 318.32 348.16C324.61 348.16 330.192 349.718 335.065 352.835C339.995 355.895 343.565 360.258 345.775 365.925H334.13C332.6 362.808 330.475 360.485 327.755 358.955C325.035 357.425 321.89 356.66 318.32 356.66C314.41 356.66 310.925 357.538 307.865 359.295C304.805 361.052 302.397 363.573 300.64 366.86C298.94 370.147 298.09 373.972 298.09 378.335C298.09 382.698 298.94 386.523 300.64 389.81C302.397 393.097 304.805 395.647 307.865 397.46C310.925 399.217 314.41 400.095 318.32 400.095C321.89 400.095 325.035 399.33 327.755 397.8C330.475 396.27 332.6 393.947 334.13 390.83H345.775C343.565 396.497 339.995 400.86 335.065 403.92C330.192 406.98 324.61 408.51 318.32 408.51C312.767 408.51 307.695 407.235 303.105 404.685C298.515 402.078 294.86 398.48 292.14 393.89C289.477 389.3 288.145 384.115 288.145 378.335ZM353.887 384.37C353.887 379.667 354.851 375.502 356.777 371.875C358.761 368.248 361.424 365.443 364.767 363.46C368.167 361.42 371.907 360.4 375.987 360.4C379.671 360.4 382.872 361.137 385.592 362.61C388.369 364.027 390.579 365.812 392.222 367.965V361.165H401.997V408H392.222V401.03C390.579 403.24 388.341 405.082 385.507 406.555C382.674 408.028 379.444 408.765 375.817 408.765C371.794 408.765 368.111 407.745 364.767 405.705C361.424 403.608 358.761 400.718 356.777 397.035C354.851 393.295 353.887 389.073 353.887 384.37ZM392.222 384.54C392.222 381.31 391.542 378.505 390.182 376.125C388.879 373.745 387.151 371.932 384.997 370.685C382.844 369.438 380.521 368.815 378.027 368.815C375.534 368.815 373.211 369.438 371.057 370.685C368.904 371.875 367.147 373.66 365.787 376.04C364.484 378.363 363.832 381.14 363.832 384.37C363.832 387.6 364.484 390.433 365.787 392.87C367.147 395.307 368.904 397.177 371.057 398.48C373.267 399.727 375.591 400.35 378.027 400.35C380.521 400.35 382.844 399.727 384.997 398.48C387.151 397.233 388.879 395.42 390.182 393.04C391.542 390.603 392.222 387.77 392.222 384.54ZM388.312 348.585L369.527 357.85V350.71L388.312 340.34V348.585ZM424.415 345.1V408H414.725V345.1H424.415ZM442.067 354.96C440.31 354.96 438.837 354.365 437.647 353.175C436.457 351.985 435.862 350.512 435.862 348.755C435.862 346.998 436.457 345.525 437.647 344.335C438.837 343.145 440.31 342.55 442.067 342.55C443.767 342.55 445.212 343.145 446.402 344.335C447.592 345.525 448.187 346.998 448.187 348.755C448.187 350.512 447.592 351.985 446.402 353.175C445.212 354.365 443.767 354.96 442.067 354.96ZM446.827 361.165V408H437.137V361.165H446.827ZM456.319 384.37C456.319 379.667 457.282 375.502 459.209 371.875C461.192 368.248 463.855 365.443 467.199 363.46C470.599 361.42 474.367 360.4 478.504 360.4C481.564 360.4 484.567 361.08 487.514 362.44C490.517 363.743 492.897 365.5 494.654 367.71V345.1H504.429V408H494.654V400.945C493.067 403.212 490.857 405.082 488.024 406.555C485.247 408.028 482.045 408.765 478.419 408.765C474.339 408.765 470.599 407.745 467.199 405.705C463.855 403.608 461.192 400.718 459.209 397.035C457.282 393.295 456.319 389.073 456.319 384.37ZM494.654 384.54C494.654 381.31 493.974 378.505 492.614 376.125C491.31 373.745 489.582 371.932 487.429 370.685C485.275 369.438 482.952 368.815 480.459 368.815C477.965 368.815 475.642 369.438 473.489 370.685C471.335 371.875 469.579 373.66 468.219 376.04C466.915 378.363 466.264 381.14 466.264 384.37C466.264 387.6 466.915 390.433 468.219 392.87C469.579 395.307 471.335 397.177 473.489 398.48C475.699 399.727 478.022 400.35 480.459 400.35C482.952 400.35 485.275 399.727 487.429 398.48C489.582 397.233 491.31 395.42 492.614 393.04C493.974 390.603 494.654 387.77 494.654 384.54ZM537.471 408.765C533.051 408.765 529.056 407.773 525.486 405.79C521.916 403.75 519.111 400.917 517.071 397.29C515.031 393.607 514.011 389.357 514.011 384.54C514.011 379.78 515.06 375.558 517.156 371.875C519.253 368.192 522.115 365.358 525.741 363.375C529.368 361.392 533.42 360.4 537.896 360.4C542.373 360.4 546.425 361.392 550.051 363.375C553.678 365.358 556.54 368.192 558.636 371.875C560.733 375.558 561.781 379.78 561.781 384.54C561.781 389.3 560.705 393.522 558.551 397.205C556.398 400.888 553.451 403.75 549.711 405.79C546.028 407.773 541.948 408.765 537.471 408.765ZM537.471 400.35C539.965 400.35 542.288 399.755 544.441 398.565C546.651 397.375 548.436 395.59 549.796 393.21C551.156 390.83 551.836 387.94 551.836 384.54C551.836 381.14 551.185 378.278 549.881 375.955C548.578 373.575 546.85 371.79 544.696 370.6C542.543 369.41 540.22 368.815 537.726 368.815C535.233 368.815 532.91 369.41 530.756 370.6C528.66 371.79 526.988 373.575 525.741 375.955C524.495 378.278 523.871 381.14 523.871 384.54C523.871 389.583 525.146 393.493 527.696 396.27C530.303 398.99 533.561 400.35 537.471 400.35Z" fill="black"/>
<mask id="path-10-outside-2_97_37" maskUnits="userSpaceOnUse" x="403" y="1006" width="34" height="32" fill="black">
<rect fill="white" x="403" y="1006" width="34" height="32"/>
<path d="M404.32 1015.04C404.48 1012.56 405.427 1010.63 407.16 1009.24C408.92 1007.85 411.16 1007.16 413.88 1007.16C415.747 1007.16 417.36 1007.49 418.72 1008.16C420.08 1008.83 421.107 1009.73 421.8 1010.88C422.493 1012.03 422.84 1013.32 422.84 1014.76C422.84 1016.41 422.4 1017.83 421.52 1019C420.64 1020.17 419.587 1020.96 418.36 1021.36V1021.52C419.933 1022 421.16 1022.88 422.04 1024.16C422.92 1025.41 423.36 1027.03 423.36 1029C423.36 1030.57 423 1031.97 422.28 1033.2C421.56 1034.43 420.493 1035.4 419.08 1036.12C417.667 1036.81 415.973 1037.16 414 1037.16C411.12 1037.16 408.747 1036.43 406.88 1034.96C405.04 1033.47 404.053 1031.33 403.92 1028.56H408.32C408.427 1029.97 408.973 1031.13 409.96 1032.04C410.947 1032.92 412.28 1033.36 413.96 1033.36C415.587 1033.36 416.84 1032.92 417.72 1032.04C418.6 1031.13 419.04 1029.97 419.04 1028.56C419.04 1026.69 418.44 1025.37 417.24 1024.6C416.067 1023.8 414.253 1023.4 411.8 1023.4H410.76V1019.64H411.84C414 1019.61 415.64 1019.25 416.76 1018.56C417.907 1017.87 418.48 1016.77 418.48 1015.28C418.48 1014 418.067 1012.99 417.24 1012.24C416.413 1011.47 415.24 1011.08 413.72 1011.08C412.227 1011.08 411.067 1011.47 410.24 1012.24C409.413 1012.99 408.92 1013.92 408.76 1015.04H404.32ZM427.55 1012V1007.84H435.87V1037H431.27V1012H427.55Z"/>
</mask>
<path d="M404.32 1015.04C404.48 1012.56 405.427 1010.63 407.16 1009.24C408.92 1007.85 411.16 1007.16 413.88 1007.16C415.747 1007.16 417.36 1007.49 418.72 1008.16C420.08 1008.83 421.107 1009.73 421.8 1010.88C422.493 1012.03 422.84 1013.32 422.84 1014.76C422.84 1016.41 422.4 1017.83 421.52 1019C420.64 1020.17 419.587 1020.96 418.36 1021.36V1021.52C419.933 1022 421.16 1022.88 422.04 1024.16C422.92 1025.41 423.36 1027.03 423.36 1029C423.36 1030.57 423 1031.97 422.28 1033.2C421.56 1034.43 420.493 1035.4 419.08 1036.12C417.667 1036.81 415.973 1037.16 414 1037.16C411.12 1037.16 408.747 1036.43 406.88 1034.96C405.04 1033.47 404.053 1031.33 403.92 1028.56H408.32C408.427 1029.97 408.973 1031.13 409.96 1032.04C410.947 1032.92 412.28 1033.36 413.96 1033.36C415.587 1033.36 416.84 1032.92 417.72 1032.04C418.6 1031.13 419.04 1029.97 419.04 1028.56C419.04 1026.69 418.44 1025.37 417.24 1024.6C416.067 1023.8 414.253 1023.4 411.8 1023.4H410.76V1019.64H411.84C414 1019.61 415.64 1019.25 416.76 1018.56C417.907 1017.87 418.48 1016.77 418.48 1015.28C418.48 1014 418.067 1012.99 417.24 1012.24C416.413 1011.47 415.24 1011.08 413.72 1011.08C412.227 1011.08 411.067 1011.47 410.24 1012.24C409.413 1012.99 408.92 1013.92 408.76 1015.04H404.32ZM427.55 1012V1007.84H435.87V1037H431.27V1012H427.55Z" fill="black"/>
<path d="M404.32 1015.04L404.021 1015.02L404 1015.34H404.32V1015.04ZM407.16 1009.24L406.974 1009L406.973 1009.01L407.16 1009.24ZM418.72 1008.16L418.588 1008.43L418.72 1008.16ZM421.8 1010.88L422.057 1010.72L421.8 1010.88ZM421.52 1019L421.76 1019.18V1019.18L421.52 1019ZM418.36 1021.36L418.267 1021.07L418.06 1021.14V1021.36H418.36ZM418.36 1021.52H418.06V1021.74L418.272 1021.81L418.36 1021.52ZM422.04 1024.16L421.793 1024.33L421.794 1024.33L422.04 1024.16ZM422.28 1033.2L422.021 1033.05L422.28 1033.2ZM419.08 1036.12L419.212 1036.39L419.216 1036.39L419.08 1036.12ZM406.88 1034.96L406.691 1035.19L406.695 1035.2L406.88 1034.96ZM403.92 1028.56V1028.26H403.605L403.62 1028.57L403.92 1028.56ZM408.32 1028.56L408.619 1028.54L408.598 1028.26H408.32V1028.56ZM409.96 1032.04L409.757 1032.26L409.76 1032.26L409.96 1032.04ZM417.72 1032.04L417.932 1032.25L417.935 1032.25L417.72 1032.04ZM417.24 1024.6L417.071 1024.85L417.077 1024.85L417.24 1024.6ZM410.76 1023.4H410.46V1023.7H410.76V1023.4ZM410.76 1019.64V1019.34H410.46V1019.64H410.76ZM411.84 1019.64V1019.94L411.844 1019.94L411.84 1019.64ZM416.76 1018.56L416.605 1018.3L416.602 1018.3L416.76 1018.56ZM417.24 1012.24L417.035 1012.46L417.039 1012.46L417.24 1012.24ZM410.24 1012.24L410.441 1012.46L410.445 1012.46L410.24 1012.24ZM408.76 1015.04V1015.34H409.02L409.057 1015.08L408.76 1015.04ZM404.32 1015.04L404.619 1015.06C404.775 1012.65 405.688 1010.8 407.347 1009.47L407.16 1009.24L406.973 1009.01C405.165 1010.45 404.185 1012.47 404.021 1015.02L404.32 1015.04ZM407.16 1009.24L407.346 1009.48C409.042 1008.14 411.213 1007.46 413.88 1007.46V1007.16V1006.86C411.108 1006.86 408.798 1007.57 406.974 1009L407.16 1009.24ZM413.88 1007.16V1007.46C415.711 1007.46 417.277 1007.79 418.588 1008.43L418.72 1008.16L418.852 1007.89C417.443 1007.2 415.782 1006.86 413.88 1006.86V1007.16ZM418.72 1008.16L418.588 1008.43C419.903 1009.07 420.883 1009.94 421.543 1011.04L421.8 1010.88L422.057 1010.72C421.33 1009.52 420.257 1008.58 418.852 1007.89L418.72 1008.16ZM421.8 1010.88L421.543 1011.04C422.206 1012.13 422.54 1013.37 422.54 1014.76H422.84H423.14C423.14 1013.27 422.78 1011.92 422.057 1010.72L421.8 1010.88ZM422.84 1014.76H422.54C422.54 1016.36 422.116 1017.71 421.28 1018.82L421.52 1019L421.76 1019.18C422.684 1017.95 423.14 1016.47 423.14 1014.76H422.84ZM421.52 1019L421.28 1018.82C420.432 1019.95 419.427 1020.7 418.267 1021.07L418.36 1021.36L418.453 1021.65C419.746 1021.22 420.848 1020.4 421.76 1019.18L421.52 1019ZM418.36 1021.36H418.06V1021.52H418.36H418.66V1021.36H418.36ZM418.36 1021.52L418.272 1021.81C419.785 1022.27 420.954 1023.11 421.793 1024.33L422.04 1024.16L422.287 1023.99C421.366 1022.65 420.082 1021.73 418.448 1021.23L418.36 1021.52ZM422.04 1024.16L421.794 1024.33C422.63 1025.52 423.06 1027.07 423.06 1029H423.36H423.66C423.66 1026.98 423.21 1025.3 422.286 1023.99L422.04 1024.16ZM423.36 1029H423.06C423.06 1030.53 422.711 1031.87 422.021 1033.05L422.28 1033.2L422.539 1033.35C423.289 1032.07 423.66 1030.62 423.66 1029H423.36ZM422.28 1033.2L422.021 1033.05C421.334 1034.22 420.312 1035.16 418.944 1035.85L419.08 1036.12L419.216 1036.39C420.674 1035.64 421.786 1034.63 422.539 1033.35L422.28 1033.2ZM419.08 1036.12L418.948 1035.85C417.585 1036.52 415.939 1036.86 414 1036.86V1037.16V1037.46C416.008 1037.46 417.749 1037.11 419.212 1036.39L419.08 1036.12ZM414 1037.16V1036.86C411.172 1036.86 408.869 1036.14 407.065 1034.72L406.88 1034.96L406.695 1035.2C408.625 1036.71 411.068 1037.46 414 1037.46V1037.16ZM406.88 1034.96L407.069 1034.73C405.307 1033.3 404.35 1031.25 404.22 1028.55L403.92 1028.56L403.62 1028.57C403.757 1031.42 404.773 1033.64 406.691 1035.19L406.88 1034.96ZM403.92 1028.56V1028.86H408.32V1028.56V1028.26H403.92V1028.56ZM408.32 1028.56L408.021 1028.58C408.133 1030.07 408.711 1031.3 409.757 1032.26L409.96 1032.04L410.163 1031.82C409.236 1030.97 408.72 1029.88 408.619 1028.54L408.32 1028.56ZM409.96 1032.04L409.76 1032.26C410.816 1033.21 412.227 1033.66 413.96 1033.66V1033.36V1033.06C412.333 1033.06 411.078 1032.63 410.16 1031.82L409.96 1032.04ZM413.96 1033.36V1033.66C415.641 1033.66 416.98 1033.2 417.932 1032.25L417.72 1032.04L417.508 1031.83C416.7 1032.64 415.533 1033.06 413.96 1033.06V1033.36ZM417.72 1032.04L417.935 1032.25C418.876 1031.28 419.34 1030.04 419.34 1028.56H419.04H418.74C418.74 1029.91 418.324 1030.99 417.505 1031.83L417.72 1032.04ZM419.04 1028.56H419.34C419.34 1026.63 418.714 1025.19 417.403 1024.35L417.24 1024.6L417.077 1024.85C418.166 1025.55 418.74 1026.76 418.74 1028.56H419.04ZM417.24 1024.6L417.409 1024.35C416.161 1023.5 414.275 1023.1 411.8 1023.1V1023.4V1023.7C414.232 1023.7 415.972 1024.1 417.071 1024.85L417.24 1024.6ZM411.8 1023.4V1023.1H410.76V1023.4V1023.7H411.8V1023.4ZM410.76 1023.4H411.06V1019.64H410.76H410.46V1023.4H410.76ZM410.76 1019.64V1019.94H411.84V1019.64V1019.34H410.76V1019.64ZM411.84 1019.64L411.844 1019.94C414.027 1019.91 415.731 1019.55 416.918 1018.82L416.76 1018.56L416.602 1018.3C415.549 1018.96 413.973 1019.31 411.836 1019.34L411.84 1019.64ZM416.76 1018.56L416.915 1018.82C418.163 1018.06 418.78 1016.86 418.78 1015.28H418.48H418.18C418.18 1016.68 417.65 1017.67 416.605 1018.3L416.76 1018.56ZM418.48 1015.28H418.78C418.78 1013.93 418.34 1012.83 417.441 1012.02L417.24 1012.24L417.039 1012.46C417.793 1013.14 418.18 1014.07 418.18 1015.28H418.48ZM417.24 1012.24L417.445 1012.02C416.546 1011.18 415.289 1010.78 413.72 1010.78V1011.08V1011.38C415.191 1011.38 416.281 1011.75 417.035 1012.46L417.24 1012.24ZM413.72 1011.08V1010.78C412.176 1010.78 410.933 1011.18 410.035 1012.02L410.24 1012.24L410.445 1012.46C411.2 1011.75 412.278 1011.38 413.72 1011.38V1011.08ZM410.24 1012.24L410.039 1012.02C409.159 1012.81 408.633 1013.81 408.463 1015L408.76 1015.04L409.057 1015.08C409.207 1014.03 409.667 1013.16 410.441 1012.46L410.24 1012.24ZM408.76 1015.04V1014.74H404.32V1015.04V1015.34H408.76V1015.04ZM427.55 1012H427.25V1012.3H427.55V1012ZM427.55 1007.84V1007.54H427.25V1007.84H427.55ZM435.87 1007.84H436.17V1007.54H435.87V1007.84ZM435.87 1037V1037.3H436.17V1037H435.87ZM431.27 1037H430.97V1037.3H431.27V1037ZM431.27 1012H431.57V1011.7H431.27V1012ZM427.55 1012H427.85V1007.84H427.55H427.25V1012H427.55ZM427.55 1007.84V1008.14H435.87V1007.84V1007.54H427.55V1007.84ZM435.87 1007.84H435.57V1037H435.87H436.17V1007.84H435.87ZM435.87 1037V1036.7H431.27V1037V1037.3H435.87V1037ZM431.27 1037H431.57V1012H431.27H430.97V1037H431.27ZM431.27 1012V1011.7H427.55V1012V1012.3H431.27V1012Z" fill="black" mask="url(#path-10-outside-2_97_37)"/>
<path d="M363.145 197.975L344.98 272H319.675L309.49 226.64L299.095 272H273.79L255.835 197.975H278.095L286.705 248.585L298.36 197.975H320.935L332.275 248.165L340.885 197.975H363.145ZM368.518 242.495C368.518 236.405 369.603 231.085 371.773 226.535C374.013 221.985 377.023 218.485 380.803 216.035C384.653 213.585 388.923 212.36 393.613 212.36C397.673 212.36 401.173 213.165 404.113 214.775C407.053 216.385 409.328 218.555 410.938 221.285V213.095H431.518V272H410.938V263.81C409.328 266.54 407.018 268.71 404.008 270.32C401.068 271.93 397.603 272.735 393.613 272.735C388.923 272.735 384.653 271.51 380.803 269.06C377.023 266.61 374.013 263.11 371.773 258.56C369.603 253.94 368.518 248.585 368.518 242.495ZM410.938 242.495C410.938 238.715 409.888 235.74 407.788 233.57C405.758 231.4 403.238 230.315 400.228 230.315C397.148 230.315 394.593 231.4 392.563 233.57C390.533 235.67 389.518 238.645 389.518 242.495C389.518 246.275 390.533 249.285 392.563 251.525C394.593 253.695 397.148 254.78 400.228 254.78C403.238 254.78 405.758 253.695 407.788 251.525C409.888 249.355 410.938 246.345 410.938 242.495ZM463.825 223.49C466.135 220.13 468.935 217.47 472.225 215.51C475.515 213.55 479.05 212.57 482.83 212.57V234.515H477.055C472.575 234.515 469.25 235.39 467.08 237.14C464.91 238.89 463.825 241.935 463.825 246.275V272H443.245V213.095H463.825V223.49ZM567.173 212.57C574.593 212.57 580.403 214.81 584.603 219.29C588.873 223.77 591.008 229.895 591.008 237.665V272H570.428V240.395C570.428 237.245 569.553 234.795 567.803 233.045C566.053 231.295 563.673 230.42 560.663 230.42C557.653 230.42 555.273 231.295 553.523 233.045C551.773 234.795 550.898 237.245 550.898 240.395V272H530.318V240.395C530.318 237.245 529.443 234.795 527.693 233.045C526.013 231.295 523.668 230.42 520.658 230.42C517.578 230.42 515.163 231.295 513.413 233.045C511.663 234.795 510.788 237.245 510.788 240.395V272H490.208V213.095H510.788V220.865C512.608 218.345 514.953 216.35 517.823 214.88C520.763 213.34 524.123 212.57 527.903 212.57C532.243 212.57 536.093 213.515 539.453 215.405C542.883 217.295 545.578 219.955 547.538 223.385C549.638 220.165 552.403 217.575 555.833 215.615C559.263 213.585 563.043 212.57 567.173 212.57Z" fill="black"/>
<path d="M404.895 628.177C420.086 626.069 433.702 640.739 434.78 655.046C467.923 645.119 486.899 682.24 464.066 705.426C487.415 727.075 471.125 763.59 434.78 756.612C431.753 764.341 426.341 770.501 419.072 774.51C419.124 782.151 418.814 789.763 419.072 797.407C428.33 782.567 443.649 773.567 461.378 772.736C504.019 770.74 486.171 814.707 469.07 831.375C455.12 844.972 437.434 847.105 419.072 846.817V894.437C432.55 897.938 442.336 903.299 449.429 916.041C464.834 911.616 478.881 914.909 491.768 924.484C497.743 922.404 503.39 920.294 509.679 919.389C511.554 912.787 514.635 895.754 520.771 892.233C524.246 890.238 528.107 891.938 529.841 895.448C532.448 900.732 526.158 914.447 524.165 920.001C531.268 922.655 536.589 925.735 542.158 930.893C549.854 924.966 557.592 922.51 567.425 924.484C571.987 916.281 579.841 908.603 588.751 905.441C569.812 905.096 557.128 907.005 541.931 893.096C525.173 877.759 507.024 836.6 545.149 837.89C562.153 838.466 577.178 844.869 588.751 857.344C588.988 852.065 588.781 846.76 588.775 841.477L588.751 812.779C578.553 809.599 570.714 804.506 567.425 793.642C538.886 800.704 520.293 762.89 542.158 749.124C522.963 731.986 537.119 698.762 567.425 706.312C574.817 680.263 607.487 677.35 618.24 705.426C648.137 698.725 663.084 725.616 644.54 749.124C664.202 767.105 644.893 797.765 620.047 792.47C615.264 802.25 612.551 807.044 602.397 811.681C602.316 817.191 603.302 822.724 602.397 828.18C612.86 817.554 626.58 809.534 641.945 810.213C653.183 810.712 663.115 814.273 662.294 827.113C660.269 858.797 634.589 882.72 602.397 880.413C601.917 887.676 602.391 895.396 602.397 902.698C617.346 902.568 629.545 910.039 638.669 921.738C640.595 921.13 645.562 920.591 646.84 919.686C653.801 914.763 649.716 896.288 656.268 891.975C659.457 889.875 664.042 891.022 665.909 894.291C668.975 899.661 664.407 913.469 662.658 919.389C674.864 921.405 682.919 927.681 690.848 936.766C720.762 929.798 744.221 945.548 740.63 977.125C733.683 987.39 705.689 983.118 693.405 983.122L506.613 983.119C487.575 983.119 468.455 983.552 449.429 983.119L139.5 983.091C119.363 983.031 103.855 987.796 112.399 958.135C118.583 936.663 139.577 930.896 159.305 936.766C166.977 926.961 177.131 919.871 190.263 921.738C194.621 916.002 199.199 910.556 205.691 907.13C209.855 904.932 211.452 906.212 211.758 900.911C177.384 915.119 144.024 882.097 148.174 848.83C151.003 826.15 199.308 841.335 211.758 859.091L211.737 828.73C211.71 823.451 211.219 818.026 211.758 812.779C202.095 810.173 195.738 803.274 192.871 793.642C167.745 799.37 149.85 769.669 165.754 749.124C153.176 730.2 160.698 704.268 184.283 704.063C186.477 704.044 189.164 704.551 191.3 704.171C194.315 703.634 196.276 687.945 213.886 684.836C227.896 682.363 241.664 691.263 244.177 705.426C271.383 698.995 286.931 728.498 270.232 749.124C287.412 773.393 272.76 794.711 244.177 793.642C241.104 804.316 235.767 810.454 224.448 812.779C225.117 818.177 224.502 824.31 224.448 829.802C236.829 819.203 247.412 810.73 264.838 811.63C276.983 812.259 286.382 815.289 285.451 828.997C283.824 852.981 263.951 881.952 237.036 879.328C232.81 878.916 228.708 877.847 224.448 877.498V902.698C228.354 903.079 231.472 903.96 235.107 905.441C234.435 902.083 233.072 896.458 235.352 893.685C245.509 881.334 249.841 911.104 258.59 920.001C270.719 916.535 279.475 918.693 290.484 924.484C295.168 922.181 299.33 920.035 304.54 919.221C311.066 913.042 307.204 892.741 319.398 890.159C323.5 891.054 324.867 892.371 326.185 896.483C324.797 904.33 320.82 911.488 319.398 919.389C328.37 922.083 333.938 925.819 340.546 932.347C346.349 920.123 361.837 918.237 373.817 920.001C381.059 906.484 389.947 898.628 404.895 894.437C405.453 890.208 405.167 886.091 404.895 881.857C369.791 890.261 332.754 858.425 336.138 823.493C337.533 809.101 357.785 809.358 368.569 810.89C383.917 813.068 395.777 822.855 404.895 834.86C405.976 816.612 404.671 795.781 404.895 777.035C392.075 774.355 383.983 768.247 379.643 755.313C344.442 764.507 324.901 727.204 347.917 705.426C322.421 679.676 346.052 644.329 376.49 653.671C380.772 638.986 388.687 629.675 404.895 628.177ZM583.241 877.498C584.643 879.007 586.042 880.469 587.57 881.857C586.402 878.963 584.979 876.469 583.241 873.885C582.193 875.624 582.058 875.795 583.241 877.498Z" fill="black"/>
<path d="M124.51 967.229C128.13 952.138 139.384 943.65 154.699 950.578C156.929 951.586 158.974 953.534 161.434 953.914C166.737 954.73 171.435 943.135 176.625 939.657C183.832 934.825 194.027 937.904 197.414 935.406C200.979 932.775 203.464 925.959 209.098 921.79C234.035 903.329 248.957 935.639 253.412 936.1C257.363 936.508 264.39 932.018 269.835 932.162C278.833 932.404 286.446 940.373 291.498 940.21C296.345 940.051 301.294 931.358 313.591 932.464C330.921 934.023 332.898 950.731 340.509 950.93C347.917 951.124 350.553 927.418 369.107 933.715C383.426 938.576 380.335 935.906 386.596 923.367C396.7 903.126 427.441 901.537 437.356 922.768C444.483 938.034 442.663 934.335 457.433 927.999C465.696 924.454 475.19 927.278 480.676 934.408C490.841 947.622 487.823 944.935 499.726 936.438C511.472 928.054 529.881 934.614 536.029 946.936C537.31 949.502 538.348 954.684 540.631 956.364C550.474 963.605 553.041 951.462 550.741 942.796C556.444 938.343 560.419 938.039 567.345 939.226C576.817 940.85 577.557 934.066 582.328 927.557C593.912 911.754 616.014 913.789 627.182 929.079C638.984 945.236 635.34 935.822 652.576 932.348L654.702 932.709C656.492 943.741 646.148 957.881 643.419 967.229L142.802 967.234C136.707 967.237 130.603 967.444 124.51 967.229Z" fill="#754325"/>
<path d="M652.576 932.347C662.446 931.08 672.553 935.416 678.369 943.465C686.454 954.653 683.815 954.787 696.989 950.483C711.573 945.72 721.578 954.037 726.413 967.229L669.882 967.238C661.727 967.241 651.256 967.911 643.419 967.229C646.149 957.881 656.493 943.741 654.702 932.709L652.576 932.347Z" fill="#582F18"/>
<path d="M386.117 715.312C381.218 706.311 382.959 695.141 390.367 688.058C397.775 680.975 409.011 679.738 417.784 685.036C425.964 689.977 430.172 699.512 428.31 708.883C426.448 718.257 418.916 725.459 409.468 726.898C400.021 728.338 390.685 723.706 386.117 715.312Z" fill="#FFDC1E"/>
<path d="M417.784 685.036C425.964 689.977 430.172 699.512 428.31 708.883C426.448 718.257 418.915 725.459 409.467 726.898C400.021 728.338 390.685 723.706 386.117 715.312C403.95 718.408 418.814 703.266 417.784 685.036Z" fill="#FAA600"/>
<path d="M582.823 765.621C576.863 761.865 573.551 755.053 574.28 748.046C575.009 741.04 579.653 735.055 586.258 732.606C592.862 730.158 600.286 731.672 605.405 736.512C612.324 743.054 613.15 753.78 607.313 761.305C601.476 768.83 590.881 770.696 582.823 765.621Z" fill="#FFDC1E"/>
<path d="M605.404 736.512C612.324 743.054 613.15 753.781 607.313 761.305C601.475 768.83 590.881 770.696 582.823 765.621C598.322 755.556 602.893 757.566 605.404 736.512Z" fill="#FAA600"/>
<path d="M202.513 758.487C197.349 749.617 200.395 738.24 209.3 733.136C218.203 728.033 229.561 731.156 234.604 740.095C239.597 748.947 236.512 760.172 227.693 765.227C218.873 770.281 207.627 767.271 202.513 758.487Z" fill="#FFDC1E"/>
<path d="M234.604 740.095C239.597 748.947 236.512 760.172 227.693 765.227C218.873 770.281 207.627 767.271 202.513 758.488C215.749 757.892 230.176 756.481 234.604 740.095Z" fill="#FAA600"/>
<path d="M466.583 786.607C469.129 786.432 471.655 786.53 474.201 786.607C472.423 810.933 459.062 827.865 434.78 832.968C440.528 826.26 458.605 816.128 456.276 806.568C448.7 793.357 428.495 818.614 422.05 824.605C427.16 801.137 441.297 786.724 466.583 786.607Z" fill="#0DBD75"/>
<path d="M355.907 824.606C373.772 817.51 394.131 840.076 400.857 854.431C393.771 849.245 385.882 840.03 377.353 837.873L376.919 837.993C371.606 839.506 368.953 843.098 370.727 848.513C375.632 854.904 385.997 862.321 392.099 868.852C367.697 868.207 351.211 849.4 349.515 825.521C351.619 824.979 353.751 824.813 355.907 824.606Z" fill="#0DBD75"/>
<path d="M162.513 851.913C183.766 850.145 200.36 860.444 208.341 880.412C202.131 875.553 193.63 866.526 186.902 863.541C183.263 864.673 181.741 865.599 179.741 868.851C177.152 877.378 193.525 884.438 198.319 892.327C184.011 889.282 171.649 883.919 165.214 869.537C163.763 866.293 160.531 855.091 161.644 852.203L162.513 851.913Z" fill="#0DBD75"/>
<path d="M261.211 825.521C264.71 825.34 268.283 825.435 271.782 825.521C271.448 847.738 258.61 862.178 236.935 866.355C242.164 861.033 253.416 853.495 256.775 848.513L256.881 848.128C257.438 846.024 257.677 843.959 256.451 842.035C249.759 831.538 234.202 850.407 225.962 855.953C229.758 840.01 244.939 826.889 261.211 825.521Z" fill="#0DBD75"/>
<path d="M535.94 851.913C548.831 850.893 559.147 852.945 570.493 859.091C568.578 861.433 567.293 863.473 566.273 866.355C557.51 863.231 552.117 871.45 558.194 878.196C561.357 881.709 573.815 889.25 578.373 892.327C554.21 891.01 538.06 876.622 535.94 851.913Z" fill="#0DBD75"/>
<path d="M638.669 824.606C641.821 823.877 645.551 824.226 648.729 824.606C648.257 843.702 634.894 861.691 616.086 866.355C622.728 860.035 637.405 850.411 635.01 841.233C628.072 828.088 611.787 853.194 602.397 859.091C605.933 841.799 620.621 825.993 638.669 824.606Z" fill="#0DBD75"/>
<path d="M393.518 669.94C391.515 664.606 389.399 661.498 390.624 655.442C393.66 640.427 411.521 636.814 419.072 650.006C424.745 657.965 421.916 662.659 417.478 669.94C410.725 668.514 405.088 667.454 398.25 669.229C396.864 669.589 394.693 670.979 393.518 669.94Z" fill="#F96173"/>
<path d="M419.072 650.006C424.745 657.966 421.916 662.659 417.477 669.94C410.725 668.514 405.088 667.454 398.25 669.229C396.864 669.589 394.693 670.98 393.518 669.94C401.363 659.602 418.161 662.722 419.072 650.006Z" fill="#DE0733"/>
<path d="M364.64 698.333C336.353 692.039 356.947 651.432 378.477 670.903C380.166 672.752 381.503 674.705 382.781 676.855C376.303 683.338 371.465 688.803 370.727 698.333H364.64Z" fill="#F96173"/>
<path d="M364.641 698.333C371.031 688.107 362.108 681.51 378.478 670.903C380.166 672.752 381.503 674.705 382.781 676.856C376.303 683.338 371.465 688.803 370.727 698.333H364.641Z" fill="#DE0733"/>
<path d="M442.376 710.901C447.425 711.065 452.204 712.372 456.276 715.432C470.923 736.688 444.388 756.727 434.78 736.217C433.693 734.337 432.525 732.536 431.326 730.729C437.096 724.633 440.329 719.084 442.376 710.901Z" fill="#F96173"/>
<path d="M456.276 715.432C470.923 736.689 444.388 756.727 434.78 736.217C448.127 735.28 454.139 728.659 456.276 715.432Z" fill="#DE0733"/>
<path d="M361.373 742.524C345.384 732.588 349.446 711.391 370.727 711.877C371.892 716.59 373.857 720.526 376.49 724.573C378.308 727.503 380.183 729.706 382.781 731.965C376.788 741.304 372.818 746.26 361.373 742.524Z" fill="#F96173"/>
<path d="M376.489 724.573C378.308 727.503 380.182 729.706 382.78 731.965C376.788 741.304 372.817 746.26 361.373 742.524C361.426 742.442 361.479 742.36 361.533 742.278L361.803 741.874C365.77 735.87 371.379 729.65 376.489 724.573Z" fill="#DE0733"/>
<path d="M429.525 676.855C438.64 664.539 448.293 663.225 458.855 674.136C466.696 689.989 444.951 711.113 440.266 691.085C437.339 685.561 433.981 681.22 429.525 676.855Z" fill="#F96173"/>
<path d="M458.854 674.136C466.696 689.989 444.95 711.113 440.266 691.085C448.089 685.391 454.784 684.189 458.854 674.136Z" fill="#DE0733"/>
<path d="M414.942 740.601C416.717 739.927 418.588 739.576 420.438 739.164C427.736 764.98 403.231 769.263 394.727 756.612C390.844 751.623 391.858 744.765 393.517 739.164C400.413 740.766 407.881 741.313 414.942 740.601Z" fill="#F96173"/>
<path d="M414.942 740.601C416.717 739.927 418.589 739.576 420.439 739.164C427.736 764.98 403.232 769.263 394.727 756.612C405.155 756.232 414.831 752.726 414.942 740.601Z" fill="#DE0733"/>
<path d="M177.613 740.601C163.132 729.567 182.325 707.865 195.037 721.282C200.122 725.631 193.679 728.095 190.54 733.493C188.768 736.539 187.762 740.271 186.902 743.666C183.714 743.032 180.202 742.717 177.613 740.601Z" fill="#F96173"/>
<path d="M195.038 721.282C200.122 725.631 193.679 728.095 190.54 733.493C188.768 736.539 187.762 740.271 186.902 743.667C183.715 743.032 180.202 742.717 177.613 740.601C183.37 737.277 187.524 727.046 195.038 721.282Z" fill="#DE0733"/>
<path d="M581.814 719.272C574.163 702.598 596.962 690.301 605.541 708.458C607.488 713.175 606.591 716.469 605.541 721.282C602.75 720.023 599.901 718.832 597.159 717.471C592.088 717.25 586.75 718.198 581.814 719.272Z" fill="#F96173"/>
<path d="M605.542 708.458C607.489 713.175 606.592 716.469 605.542 721.282C602.751 720.024 599.902 718.832 597.16 717.471C598.432 714.845 603.439 711.43 605.542 708.458Z" fill="#DE0733"/>
<path d="M209.996 717.471C196.166 708.505 217.105 689.254 227.917 702.559C229.859 705.277 231.505 708.181 233.431 710.901C231.462 712.994 229.692 715.212 227.917 717.471C224.667 717.562 221.364 717.78 218.124 717.471C215.419 717.531 212.703 717.455 209.996 717.471Z" fill="#F96173"/>
<path d="M227.917 702.56C229.86 705.277 231.505 708.182 233.432 710.901C231.462 712.995 229.692 715.212 227.917 717.472C224.667 717.563 221.364 717.781 218.124 717.472C222.22 713.519 226.114 707.983 227.917 702.56Z" fill="#DE0733"/>
<path d="M616.086 726.965C618.751 723.907 620.407 719.335 624.294 717.668C630.433 715.037 636.505 720.144 638.669 725.605C641.212 735.694 634.791 742.145 624.602 742.524C623.924 740.999 623.279 739.478 622.692 737.916C620.461 734.282 618.208 730.664 616.086 726.965Z" fill="#F96173"/>
<path d="M638.668 725.605C641.211 735.694 634.79 742.145 624.602 742.524C623.924 740.999 623.279 739.478 622.692 737.916C630.732 735.105 633.461 731.944 638.668 725.605Z" fill="#DE0733"/>
<path d="M177.614 756.612C180.723 756.451 183.791 756.509 186.902 756.612L188.776 762.183C191.631 766.441 194.04 769.72 198.318 772.733C194.421 778.654 186.377 784.913 179.741 778.551C171.522 772.802 170.747 763.728 177.614 756.612Z" fill="#F96173"/>
<path d="M188.776 762.183C191.631 766.44 194.04 769.72 198.318 772.733C194.421 778.654 186.377 784.912 179.741 778.551C184.732 774.43 187.044 768.219 188.776 762.183Z" fill="#DE0733"/>
<path d="M554.912 742.524C534.732 730.375 558.543 705.307 570.493 725.605C568.202 729.213 565.723 732.846 563.095 736.217C562.383 739.079 561.56 741.955 561.012 744.854C558.987 744.05 556.97 743.238 554.912 742.524Z" fill="#F96173"/>
<path d="M554.912 742.524C557.197 739.915 559.95 737.69 563.095 736.216C562.383 739.079 561.56 741.955 561.012 744.853C558.987 744.05 556.97 743.238 554.912 742.524Z" fill="#DE0733"/>
<path d="M554.912 756.612C556.95 756.565 558.974 756.553 561.012 756.612C561.848 760.119 563.288 763.349 564.781 766.618C566.757 769.375 569.022 772.003 571.307 774.51C565.258 779.398 559.726 783.344 552.385 778.551C543.877 771.837 544.631 760.39 554.912 756.612Z" fill="#F96173"/>
<path d="M564.781 766.618C566.756 769.375 569.021 772.003 571.306 774.51C565.257 779.398 559.726 783.344 552.385 778.551C557.584 775.122 561.061 771.58 564.781 766.618Z" fill="#DE0733"/>
<path d="M250.101 756.612C252.803 756.57 255.954 756.037 258.591 756.612C270.595 771.888 261.256 782.351 244.177 780.003C243.428 778.53 242.462 776.983 241.917 775.43C238.676 771.679 242.647 770.916 245.114 767.725C247.631 764.468 249.002 760.529 250.101 756.612Z" fill="#DE0733"/>
<path d="M250.101 756.612C252.803 756.57 255.954 756.037 258.591 756.612C258.311 766.829 252.957 775.493 241.917 775.43C238.676 771.679 242.647 770.916 245.114 767.725C247.631 764.468 249.002 760.529 250.101 756.612Z" fill="#F96173"/>
<path d="M624.602 755.312C628.097 756.074 631.626 757.004 635.01 758.162C647.146 767.644 633.539 783.552 620.715 778.551C618.325 777.147 616.662 774.873 614.974 772.733C620.591 767.843 622.447 762.219 624.602 755.312Z" fill="#F96173"/>
<path d="M635.01 758.162C647.146 767.644 633.539 783.552 620.715 778.551C630.266 773.284 633.067 769.394 635.01 758.162Z" fill="#DE0733"/>
<path d="M209.996 781.403C216.341 782.67 221.606 783.088 227.917 781.403C238.461 789.222 220.298 812.305 208.341 794.913C206.469 792.236 205.612 789.716 204.792 786.607C206.243 784.712 208.3 783.097 209.996 781.403Z" fill="#F96173"/>
<path d="M227.917 781.403C238.461 789.222 220.298 812.305 208.341 794.913C218.897 796.529 223.779 790.439 227.917 781.403Z" fill="#DE0733"/>
<path d="M240.041 725.605C245.494 719.005 252.12 714.358 259.937 722.26C267.172 729.649 263.341 743.214 253.649 742.724C252.471 742.664 251.279 742.517 250.101 742.524C246.696 738.397 247.029 732.176 240.041 725.605Z" fill="#F96173"/>
<path d="M259.937 722.26C267.172 729.649 263.341 743.214 253.649 742.724C252.471 742.665 251.279 742.517 250.101 742.524C255.346 737.175 258.831 729.622 259.937 722.26Z" fill="#DE0733"/>
<path d="M578.373 785.171C579.399 783.691 580.487 782.601 581.815 781.403C586.852 782.523 592.029 782.661 597.16 782.446C600.232 781.904 603.336 781.672 606.442 781.403C606.369 793.197 597.856 805.632 586.172 797.407C581.879 794.269 580.159 789.973 578.373 785.171Z" fill="#F96173"/>
<path d="M597.159 782.446C600.231 781.904 603.336 781.672 606.442 781.403C606.369 793.197 597.855 805.632 586.172 797.407C592.014 794.253 596.562 789.368 597.159 782.446Z" fill="#DE0733"/>
<path d="M570.493 859.091C575.473 863.39 580.351 867.863 583.241 873.885C582.193 875.623 582.058 875.795 583.241 877.498C577.365 873.967 572.503 869.392 566.273 866.355C567.293 863.473 568.578 861.433 570.493 859.091Z" fill="#029F5D"/>
<path d="M609.094 453.969C634.646 452.552 656.498 472.138 657.877 497.692C659.255 523.245 639.636 545.068 614.08 546.408C588.579 547.744 566.815 528.176 565.439 502.677C564.064 477.179 583.598 455.384 609.094 453.969Z" fill="black"/>
<path d="M593.146 525.702C561.792 501.743 591.993 455.089 626.131 472.391C666.236 493.589 627.736 553.737 593.146 525.702Z" fill="#FFDC1E"/>
<path d="M626.131 472.391C666.236 493.588 627.737 553.736 593.146 525.701C601.535 525.654 607.712 526.818 615.607 523.122C632.676 515.133 639.072 496.336 630.333 479.704C629.019 477.201 627.265 475.003 626.131 472.391Z" fill="#FD9507"/>
<path d="M197.674 632.623C200.362 629.012 204.421 619.915 208.758 618.62C212.042 617.64 216.932 619.021 217.767 622.775C218.866 627.718 212.833 634.983 210.254 639.12C210.672 641.953 214.309 646.595 215.847 649.037C215.09 652.492 213.822 654.457 211.344 656.863C203.059 659.238 201.013 652.557 197.6 646.257C190.613 646.655 171.203 648.315 179.285 635.202C184.231 632.231 192.004 633.304 197.674 632.623Z" fill="black"/>
<path d="M616.044 660.426C620.922 656.8 629.139 658.597 634.867 659.055C636.956 654.337 640.514 646.339 645.6 644.905C649.247 643.877 653.148 646.763 654.03 650.268C655.095 654.495 650.299 660.359 648.299 663.907C647.49 664.645 647.067 665.482 646.517 666.417C649.309 671.971 650.549 675.297 646.338 680.557C639.09 683.147 636.332 679.9 632.932 673.664C626.766 673.086 619.77 674.147 614.883 669.716C614.061 666.047 613.665 663.748 616.044 660.426Z" fill="black"/>
<path d="M609.677 561.461C613.428 561.239 615.965 562.064 618.193 565.305C619.361 572.237 619.265 586.513 618.193 593.568C616.852 595.217 615.55 595.964 613.638 596.882C610.391 597.034 606.424 596.417 605.207 592.859C603.487 587.831 600.79 564.245 609.677 561.461Z" fill="black"/>
<path d="M658.641 540.218C662.866 540.575 693.405 566.01 672.209 569.862C667.555 568.846 637.222 545.19 658.641 540.218Z" fill="black"/>
<path d="M670.458 431.2C692.788 430.308 666.262 455.623 659.791 459.659C638.446 457.258 662.836 434.929 670.458 431.2Z" fill="black"/>
<path d="M676.465 491.822C683.976 491.34 691.95 491.903 699.52 491.822C706.065 495.749 705.699 502.748 699.52 506.555C696.057 507.154 681.209 506.997 677.867 506.346C669.131 504.64 669.92 495.597 676.465 491.822Z" fill="black"/>
<path d="M609.676 408.016C614.025 407.872 616.293 408.64 618.748 412.509C620.114 419.831 622.07 436.421 613.638 440.178C600.954 442.829 603.173 416.832 605.084 411.767C605.903 409.596 607.68 408.893 609.676 408.016Z" fill="black"/>
<path d="M564.897 540.218C570.182 539.491 575.951 544.478 572.795 549.924C570.681 553.575 558.442 566.997 554.603 568.075C532.353 566.416 558.883 542.791 564.897 540.218Z" fill="black"/>
<path d="M526.562 491.822C532.138 491.783 544.477 490.739 549.097 493.026C556.077 496.479 552.218 505.115 545.976 506.555C540.636 506.371 526.71 507.73 522.675 505.194C517.208 501.761 520.492 492.498 526.562 491.822Z" fill="black"/>
<path d="M551.656 431.2C556.238 431.476 584.059 454.175 564.897 459.659C559.778 458.521 531.491 435.83 551.656 431.2Z" fill="black"/>
<path d="M534.093 605.135C538.968 604.849 544.031 607.5 544.175 613.085C544.407 621.962 530.274 621.688 525.908 626.166C516.539 635.78 524.588 651.692 512.207 651.761C502.814 651.813 504.954 631.948 484.001 632.321C480.452 633.144 477.626 635.475 474.191 636.322C464.697 638.662 457.481 619.543 482.412 616.198C492.036 614.907 500.479 618.247 508.032 624.022C514.592 612.208 520.35 608.009 534.093 605.135Z" fill="black"/>
<path d="M319.717 600.651C324.239 600.452 328.402 601.984 329.803 606.754C332.111 614.614 317.983 618.975 314.137 626.24C309.975 634.1 316.241 640.364 318.34 647.613L318.198 648.155C316.215 655.521 311.089 657.666 303.964 655.48C302.694 653.429 301.784 651.08 300.793 648.879C293.261 645.404 286.827 643.345 278.856 647.613C274.25 650.649 273.498 653.649 267.557 655.48C247.206 647.719 272.096 621.486 296.994 630.144C297.693 616.451 306.821 605.229 319.717 600.651Z" fill="black"/>
<path d="M412.554 505.833C416.696 505.639 419.873 506.648 421.62 510.705C428.268 526.14 392.362 522.78 402.335 546.646C400.708 550.745 397.821 554.757 392.874 554.681C383.728 554.538 385.222 535.643 364.755 535.854C355.909 538.031 349.127 546.802 345.18 532.253C349.917 515.03 374.893 517.843 387.185 526.206C394.282 515.064 399.389 509.179 412.554 505.833Z" fill="black"/>
</svg>
