<svg width="849" height="1183" viewBox="0 0 849 1183" fill="none" xmlns="http://www.w3.org/2000/svg">
<rect x="5" y="5" width="839" height="1173" rx="45" fill="white"/>
<rect x="5" y="5" width="839" height="1173" rx="45" stroke="black" stroke-width="10"/>
<circle cx="786.5" cy="1124.5" r="11.5" fill="black"/>
<circle cx="786.5" cy="59.5" r="11.5" fill="black"/>
<path d="M77 1124.5C77 1130.85 71.8513 1136 65.5 1136C59.1487 1136 54 1130.85 54 1124.5C54 1118.15 59.1487 1113 65.5 1113C71.8513 1113 77 1118.15 77 1124.5Z" fill="black"/>
<path d="M77 59.5C77 65.8513 71.8513 71 65.5 71C59.1487 71 54 65.8513 54 59.5C54 53.1487 59.1487 48 65.5 48C71.8513 48 77 53.1487 77 59.5Z" fill="black"/>
<mask id="path-6-inside-1_97_42" fill="white">
<path d="M708 48C713.523 48 717.934 52.4996 718.616 57.9801C723.122 94.1833 751.817 122.878 788.02 127.384C793.5 128.066 798 132.477 798 138V1046C798 1051.52 793.5 1055.93 788.02 1056.62C751.817 1061.12 723.122 1089.82 718.616 1126.02C717.934 1131.5 713.523 1136 708 1136H141C135.477 1136 131.066 1131.5 130.384 1126.02C125.878 1089.82 97.1833 1061.12 60.9801 1056.62C55.4996 1055.93 51 1051.52 51 1046V138C51 132.477 55.4996 128.066 60.9801 127.384C97.1833 122.878 125.878 94.1833 130.384 57.9801C131.066 52.4996 135.477 48 141 48H708Z"/>
</mask>
<path d="M708 48C713.523 48 717.934 52.4996 718.616 57.9801C723.122 94.1833 751.817 122.878 788.02 127.384C793.5 128.066 798 132.477 798 138V1046C798 1051.52 793.5 1055.93 788.02 1056.62C751.817 1061.12 723.122 1089.82 718.616 1126.02C717.934 1131.5 713.523 1136 708 1136H141C135.477 1136 131.066 1131.5 130.384 1126.02C125.878 1089.82 97.1833 1061.12 60.9801 1056.62C55.4996 1055.93 51 1051.52 51 1046V138C51 132.477 55.4996 128.066 60.9801 127.384C97.1833 122.878 125.878 94.1833 130.384 57.9801C131.066 52.4996 135.477 48 141 48H708Z" fill="#7047A3"/>
<path d="M130.384 1126.02L138.322 1125.03L130.384 1126.02ZM718.616 1126.02L710.678 1125.03L718.616 1126.02ZM788.02 1056.62L789.008 1064.56L788.02 1056.62ZM718.616 57.9801L726.555 56.9922L718.616 57.9801ZM718.616 57.9801L710.678 58.9681C715.635 98.8063 747.194 130.365 787.032 135.322L788.02 127.384L789.008 119.445C756.44 115.392 730.608 89.5603 726.555 56.9922L718.616 57.9801ZM798 138H790V1046H798H806V138H798ZM788.02 1056.62L787.032 1048.68C747.194 1053.64 715.635 1085.19 710.678 1125.03L718.616 1126.02L726.555 1127.01C730.608 1094.44 756.44 1068.61 789.008 1064.56L788.02 1056.62ZM708 1136V1128H141V1136V1144H708V1136ZM130.384 1126.02L138.322 1125.03C133.365 1085.19 101.806 1053.64 61.9681 1048.68L60.9801 1056.62L59.9922 1064.56C92.5603 1068.61 118.392 1094.44 122.445 1127.01L130.384 1126.02ZM51 1046H59V138H51H43V1046H51ZM60.9801 127.384L61.9681 135.322C101.806 130.365 133.365 98.8063 138.322 58.9681L130.384 57.9801L122.445 56.9922C118.392 89.5603 92.5603 115.392 59.9922 119.445L60.9801 127.384ZM141 48V56H708V48V40H141V48ZM130.384 57.9801L138.322 58.9681C138.438 58.0389 138.872 57.2306 139.427 56.6958C139.954 56.1887 140.494 56 141 56V48V40C130.84 40 123.547 48.1329 122.445 56.9922L130.384 57.9801ZM51 138H59C59 137.494 59.1887 136.954 59.6958 136.427C60.2306 135.872 61.0389 135.438 61.9681 135.322L60.9801 127.384L59.9922 119.445C51.1329 120.547 43 127.84 43 138H51ZM60.9801 1056.62L61.9681 1048.68C61.0389 1048.56 60.2306 1048.13 59.6958 1047.57C59.1887 1047.05 59 1046.51 59 1046H51H43C43 1056.16 51.1329 1063.45 59.9922 1064.56L60.9801 1056.62ZM141 1136V1128C140.494 1128 139.954 1127.81 139.427 1127.3C138.872 1126.77 138.438 1125.96 138.322 1125.03L130.384 1126.02L122.445 1127.01C123.547 1135.87 130.84 1144 141 1144V1136ZM718.616 1126.02L710.678 1125.03C710.562 1125.96 710.128 1126.77 709.573 1127.3C709.046 1127.81 708.506 1128 708 1128V1136V1144C718.16 1144 725.453 1135.87 726.555 1127.01L718.616 1126.02ZM798 1046H790C790 1046.51 789.811 1047.05 789.304 1047.57C788.769 1048.13 787.961 1048.56 787.032 1048.68L788.02 1056.62L789.008 1064.56C797.867 1063.45 806 1056.16 806 1046H798ZM788.02 127.384L787.032 135.322C787.961 135.438 788.769 135.872 789.304 136.427C789.811 136.954 790 137.494 790 138H798H806C806 127.84 797.867 120.547 789.008 119.445L788.02 127.384ZM718.616 57.9801L726.555 56.9922C725.453 48.1329 718.16 40 708 40V48V56C708.506 56 709.046 56.1887 709.573 56.6958C710.128 57.2306 710.562 58.0389 710.678 58.9681L718.616 57.9801Z" fill="black" mask="url(#path-6-inside-1_97_42)"/>
<path d="M690 102C695.523 102 699.911 106.512 700.837 111.957C705.019 136.563 724.437 155.981 749.043 160.163C754.488 161.089 759 165.477 759 171V1014C759 1019.52 754.488 1023.91 749.043 1024.84C724.711 1028.97 705.454 1048 700.984 1072.22C699.993 1077.59 695.633 1082 690.175 1082H158.825C153.367 1082 149.007 1077.59 148.016 1072.22C143.546 1048 124.288 1028.97 99.9568 1024.84C94.5121 1023.91 90 1019.52 90 1014V171C90 165.477 94.512 161.089 99.9568 160.163C124.563 155.981 143.981 136.563 148.163 111.957C149.089 106.512 153.477 102 159 102H690Z" fill="#B48FE1"/>
<path d="M305.595 348.925V408H295.905V367.54L277.885 408H271.17L253.065 367.54V408H243.375V348.925H253.83L274.57 395.25L295.225 348.925H305.595ZM361.256 383.435C361.256 385.192 361.143 386.778 360.916 388.195H325.131C325.414 391.935 326.803 394.938 329.296 397.205C331.789 399.472 334.849 400.605 338.476 400.605C343.689 400.605 347.373 398.423 349.526 394.06H359.981C358.564 398.367 355.986 401.908 352.246 404.685C348.563 407.405 343.973 408.765 338.476 408.765C333.999 408.765 329.976 407.773 326.406 405.79C322.893 403.75 320.116 400.917 318.076 397.29C316.093 393.607 315.101 389.357 315.101 384.54C315.101 379.723 316.064 375.502 317.991 371.875C319.974 368.192 322.723 365.358 326.236 363.375C329.806 361.392 333.886 360.4 338.476 360.4C342.896 360.4 346.834 361.363 350.291 363.29C353.748 365.217 356.439 367.937 358.366 371.45C360.293 374.907 361.256 378.902 361.256 383.435ZM351.141 380.375C351.084 376.805 349.809 373.943 347.316 371.79C344.823 369.637 341.734 368.56 338.051 368.56C334.708 368.56 331.846 369.637 329.466 371.79C327.086 373.887 325.669 376.748 325.216 380.375H351.141ZM380.482 367.965C381.899 365.585 383.769 363.743 386.092 362.44C388.472 361.08 391.277 360.4 394.507 360.4V370.43H392.042C388.245 370.43 385.355 371.393 383.372 373.32C381.445 375.247 380.482 378.59 380.482 383.35V408H370.792V361.165H380.482V367.965ZM400.184 384.54C400.184 379.723 401.147 375.502 403.074 371.875C405.057 368.192 407.777 365.358 411.234 363.375C414.691 361.392 418.657 360.4 423.134 360.4C428.801 360.4 433.476 361.76 437.159 364.48C440.899 367.143 443.421 370.968 444.724 375.955H434.269C433.419 373.632 432.059 371.818 430.189 370.515C428.319 369.212 425.967 368.56 423.134 368.56C419.167 368.56 415.994 369.977 413.614 372.81C411.291 375.587 410.129 379.497 410.129 384.54C410.129 389.583 411.291 393.522 413.614 396.355C415.994 399.188 419.167 400.605 423.134 400.605C428.744 400.605 432.456 398.14 434.269 393.21H444.724C443.364 397.97 440.814 401.767 437.074 404.6C433.334 407.377 428.687 408.765 423.134 408.765C418.657 408.765 414.691 407.773 411.234 405.79C407.777 403.75 405.057 400.917 403.074 397.29C401.147 393.607 400.184 389.357 400.184 384.54ZM496.796 361.165V408H487.106V402.475C485.576 404.402 483.564 405.932 481.071 407.065C478.634 408.142 476.028 408.68 473.251 408.68C469.568 408.68 466.253 407.915 463.306 406.385C460.416 404.855 458.121 402.588 456.421 399.585C454.778 396.582 453.956 392.955 453.956 388.705V361.165H463.561V387.26C463.561 391.453 464.609 394.683 466.706 396.95C468.803 399.16 471.664 400.265 475.291 400.265C478.918 400.265 481.779 399.16 483.876 396.95C486.029 394.683 487.106 391.453 487.106 387.26V361.165H496.796ZM519.271 367.965C520.688 365.585 522.558 363.743 524.881 362.44C527.261 361.08 530.066 360.4 533.296 360.4V370.43H530.831C527.034 370.43 524.144 371.393 522.161 373.32C520.234 375.247 519.271 378.59 519.271 383.35V408H509.581V361.165H519.271V367.965ZM547.133 354.96C545.376 354.96 543.903 354.365 542.713 353.175C541.523 351.985 540.928 350.512 540.928 348.755C540.928 346.998 541.523 345.525 542.713 344.335C543.903 343.145 545.376 342.55 547.133 342.55C548.833 342.55 550.278 343.145 551.468 344.335C552.658 345.525 553.253 346.998 553.253 348.755C553.253 350.512 552.658 351.985 551.468 353.175C550.278 354.365 548.833 354.96 547.133 354.96ZM551.893 361.165V408H542.203V361.165H551.893ZM584.93 408.765C580.51 408.765 576.515 407.773 572.945 405.79C569.375 403.75 566.57 400.917 564.53 397.29C562.49 393.607 561.47 389.357 561.47 384.54C561.47 379.78 562.519 375.558 564.615 371.875C566.712 368.192 569.574 365.358 573.2 363.375C576.827 361.392 580.879 360.4 585.355 360.4C589.832 360.4 593.884 361.392 597.51 363.375C601.137 365.358 603.999 368.192 606.095 371.875C608.192 375.558 609.24 379.78 609.24 384.54C609.24 389.3 608.164 393.522 606.01 397.205C603.857 400.888 600.91 403.75 597.17 405.79C593.487 407.773 589.407 408.765 584.93 408.765ZM584.93 400.35C587.424 400.35 589.747 399.755 591.9 398.565C594.11 397.375 595.895 395.59 597.255 393.21C598.615 390.83 599.295 387.94 599.295 384.54C599.295 381.14 598.644 378.278 597.34 375.955C596.037 373.575 594.309 371.79 592.155 370.6C590.002 369.41 587.679 368.815 585.185 368.815C582.692 368.815 580.369 369.41 578.215 370.6C576.119 371.79 574.447 373.575 573.2 375.955C571.954 378.278 571.33 381.14 571.33 384.54C571.33 389.583 572.605 393.493 575.155 396.27C577.762 398.99 581.02 400.35 584.93 400.35Z" fill="black"/>
<mask id="path-10-outside-2_97_42" maskUnits="userSpaceOnUse" x="406" y="1007" width="36" height="31" fill="black">
<rect fill="white" x="406" y="1007" width="36" height="31"/>
<path d="M406.84 1030.92V1027.48L420.28 1008.2H425.8V1026.96H429.52V1030.92H425.8V1037H421.32V1030.92H406.84ZM421.52 1012.84L412.08 1026.96H421.52V1012.84ZM432.698 1012V1007.84H441.018V1037H436.418V1012H432.698Z"/>
</mask>
<path d="M406.84 1030.92V1027.48L420.28 1008.2H425.8V1026.96H429.52V1030.92H425.8V1037H421.32V1030.92H406.84ZM421.52 1012.84L412.08 1026.96H421.52V1012.84ZM432.698 1012V1007.84H441.018V1037H436.418V1012H432.698Z" fill="black"/>
<path d="M406.84 1030.92H406.54V1031.22H406.84V1030.92ZM406.84 1027.48L406.594 1027.31L406.54 1027.39V1027.48H406.84ZM420.28 1008.2V1007.9H420.123L420.034 1008.03L420.28 1008.2ZM425.8 1008.2H426.1V1007.9H425.8V1008.2ZM425.8 1026.96H425.5V1027.26H425.8V1026.96ZM429.52 1026.96H429.82V1026.66H429.52V1026.96ZM429.52 1030.92V1031.22H429.82V1030.92H429.52ZM425.8 1030.92V1030.62H425.5V1030.92H425.8ZM425.8 1037V1037.3H426.1V1037H425.8ZM421.32 1037H421.02V1037.3H421.32V1037ZM421.32 1030.92H421.62V1030.62H421.32V1030.92ZM421.52 1012.84H421.82V1011.85L421.271 1012.67L421.52 1012.84ZM412.08 1026.96L411.831 1026.79L411.519 1027.26H412.08V1026.96ZM421.52 1026.96V1027.26H421.82V1026.96H421.52ZM406.84 1030.92H407.14V1027.48H406.84H406.54V1030.92H406.84ZM406.84 1027.48L407.086 1027.65L420.526 1008.37L420.28 1008.2L420.034 1008.03L406.594 1027.31L406.84 1027.48ZM420.28 1008.2V1008.5H425.8V1008.2V1007.9H420.28V1008.2ZM425.8 1008.2H425.5V1026.96H425.8H426.1V1008.2H425.8ZM425.8 1026.96V1027.26H429.52V1026.96V1026.66H425.8V1026.96ZM429.52 1026.96H429.22V1030.92H429.52H429.82V1026.96H429.52ZM429.52 1030.92V1030.62H425.8V1030.92V1031.22H429.52V1030.92ZM425.8 1030.92H425.5V1037H425.8H426.1V1030.92H425.8ZM425.8 1037V1036.7H421.32V1037V1037.3H425.8V1037ZM421.32 1037H421.62V1030.92H421.32H421.02V1037H421.32ZM421.32 1030.92V1030.62H406.84V1030.92V1031.22H421.32V1030.92ZM421.52 1012.84L421.271 1012.67L411.831 1026.79L412.08 1026.96L412.329 1027.13L421.769 1013.01L421.52 1012.84ZM412.08 1026.96V1027.26H421.52V1026.96V1026.66H412.08V1026.96ZM421.52 1026.96H421.82V1012.84H421.52H421.22V1026.96H421.52ZM432.698 1012H432.398V1012.3H432.698V1012ZM432.698 1007.84V1007.54H432.398V1007.84H432.698ZM441.018 1007.84H441.318V1007.54H441.018V1007.84ZM441.018 1037V1037.3H441.318V1037H441.018ZM436.418 1037H436.118V1037.3H436.418V1037ZM436.418 1012H436.718V1011.7H436.418V1012ZM432.698 1012H432.998V1007.84H432.698H432.398V1012H432.698ZM432.698 1007.84V1008.14H441.018V1007.84V1007.54H432.698V1007.84ZM441.018 1007.84H440.718V1037H441.018H441.318V1007.84H441.018ZM441.018 1037V1036.7H436.418V1037V1037.3H441.018V1037ZM436.418 1037H436.718V1012H436.418H436.118V1037H436.418ZM436.418 1012V1011.7H432.698V1012V1012.3H436.418V1012Z" fill="black" mask="url(#path-10-outside-2_97_42)"/>
<path d="M286.295 197.975V272H265.715V231.155L251.75 272H234.53L220.46 230.84V272H199.88V197.975H224.765L243.35 246.065L261.515 197.975H286.295ZM354.29 241.865C354.29 243.475 354.185 245.085 353.975 246.695H315.02C315.23 249.915 316.105 252.33 317.645 253.94C319.255 255.48 321.285 256.25 323.735 256.25C327.165 256.25 329.615 254.71 331.085 251.63H353.03C352.12 255.69 350.335 259.33 347.675 262.55C345.085 265.7 341.795 268.185 337.805 270.005C333.815 271.825 329.405 272.735 324.575 272.735C318.765 272.735 313.585 271.51 309.035 269.06C304.555 266.61 301.02 263.11 298.43 258.56C295.91 254.01 294.65 248.655 294.65 242.495C294.65 236.335 295.91 231.015 298.43 226.535C300.95 221.985 304.45 218.485 308.93 216.035C313.48 213.585 318.695 212.36 324.575 212.36C330.385 212.36 335.53 213.55 340.01 215.93C344.49 218.31 347.99 221.74 350.51 226.22C353.03 230.63 354.29 235.845 354.29 241.865ZM333.29 236.72C333.29 234.2 332.45 232.24 330.77 230.84C329.09 229.37 326.99 228.635 324.47 228.635C321.95 228.635 319.885 229.335 318.275 230.735C316.665 232.065 315.615 234.06 315.125 236.72H333.29ZM383.292 223.49C385.602 220.13 388.402 217.47 391.692 215.51C394.982 213.55 398.517 212.57 402.297 212.57V234.515H396.522C392.042 234.515 388.717 235.39 386.547 237.14C384.377 238.89 383.292 241.935 383.292 246.275V272H362.712V213.095H383.292V223.49ZM406.315 242.495C406.315 236.405 407.575 231.085 410.095 226.535C412.615 221.985 416.115 218.485 420.595 216.035C425.145 213.585 430.325 212.36 436.135 212.36C443.625 212.36 449.925 214.425 455.035 218.555C460.145 222.615 463.435 228.32 464.905 235.67H443.065C441.805 231.82 439.355 229.895 435.715 229.895C433.125 229.895 431.06 230.98 429.52 233.15C428.05 235.25 427.315 238.365 427.315 242.495C427.315 246.625 428.05 249.775 429.52 251.945C431.06 254.115 433.125 255.2 435.715 255.2C439.425 255.2 441.875 253.275 443.065 249.425H464.905C463.435 256.705 460.145 262.41 455.035 266.54C449.925 270.67 443.625 272.735 436.135 272.735C430.325 272.735 425.145 271.51 420.595 269.06C416.115 266.61 412.615 263.11 410.095 258.56C407.575 254.01 406.315 248.655 406.315 242.495ZM533.724 213.095V272H513.039V263.6C511.289 266.26 508.874 268.43 505.794 270.11C502.714 271.72 499.179 272.525 495.189 272.525C488.329 272.525 482.904 270.285 478.914 265.805C474.994 261.255 473.034 255.095 473.034 247.325V213.095H493.509V244.7C493.509 248.06 494.384 250.72 496.134 252.68C497.954 254.57 500.334 255.515 503.274 255.515C506.284 255.515 508.664 254.57 510.414 252.68C512.164 250.72 513.039 248.06 513.039 244.7V213.095H533.724ZM566.017 223.49C568.327 220.13 571.127 217.47 574.417 215.51C577.707 213.55 581.242 212.57 585.022 212.57V234.515H579.247C574.767 234.515 571.442 235.39 569.272 237.14C567.102 238.89 566.017 241.935 566.017 246.275V272H545.437V213.095H566.017V223.49ZM655.82 213.095L618.44 300.035H596.075L610.145 269.48L585.995 213.095H608.885L621.275 246.485L633.245 213.095H655.82Z" fill="black"/>
<path d="M411.788 444.332C559.699 437.031 685.494 551.081 692.679 698.998C699.864 846.915 585.715 972.621 437.791 979.689C290.033 986.748 164.498 872.755 157.321 725.002C150.145 577.249 264.041 451.625 411.788 444.332Z" fill="#111111"/>
<path d="M242.127 534.611C248.773 528.527 254.935 522.183 261.898 516.398C290.411 492.674 323.827 475.561 359.742 466.289C411.743 452.83 466.645 455.901 516.82 475.076C532.55 481.135 547.254 488.667 561.761 497.199C557.641 501.4 552.32 505.268 547.35 508.406C540.615 512.792 529.488 518.795 521.64 519.984C517.537 520.742 513.458 521.409 509.267 521.33C503.455 521.222 497.725 519.901 492.117 518.463C485.404 516.76 478.775 514.742 472.251 512.416C457.355 507.118 442.791 500.687 426.656 500.774C413.057 500.848 403.081 506.875 392.91 515.342C389.754 517.97 386.593 520.928 382.817 522.639C376.384 525.554 368.84 526.076 361.904 526.871C353.461 527.865 342.247 528.719 336.549 535.95C333.387 539.963 332.687 545.383 333.377 550.318C334.776 560.327 341.455 568.645 349.358 574.53C353.337 577.439 357.497 580.09 361.814 582.468C368.381 586.107 375.933 589.287 381.156 594.811C394.297 608.705 393.479 626.278 410.857 638.678C422.263 646.816 432.359 647.414 445.535 649.347C449.362 649.909 453.189 650.74 456.987 651.482C469.793 653.981 481.819 657.32 490.803 667.396C494.444 671.48 497.263 676.497 498.069 681.961C499.24 689.903 495.511 696.414 491.974 703.201C483.877 718.732 474.517 735.051 481.169 752.929C483.477 759.131 487.301 764.702 492.612 768.699C501.54 775.416 512.926 776.391 522.981 780.652C530.024 783.638 536.148 788.171 542.59 792.211C556.549 800.967 572.442 805.52 588.926 803.073C609.8 799.974 621.274 787.248 634.684 772.562C623.708 803.092 619.886 812.668 597.25 836.527C590.818 830.342 583.453 828.168 574.625 828.311C567.998 828.419 561.214 829.716 554.743 831.108C534.718 835.419 520.889 840.432 499.764 836.506C489.388 834.579 480.378 830.267 472.744 822.94C464.832 815.346 458.49 805.908 451.999 797.127C434.944 774.054 417.491 762.739 387.749 763.295C362.412 763.769 332.428 767.222 312.384 747.979C303.961 739.893 298.352 728.864 293.097 718.588C284.367 701.521 274.892 678.162 252.045 678.51C238.286 678.719 228.477 687.483 217.121 693.482C212.269 696.046 207.344 697.899 201.965 698.973C199.429 699.197 196.976 699.263 194.472 698.717C190.932 697.946 187.485 695.997 185.56 692.85C183.342 689.222 183.281 684.597 184.336 680.582C186.35 672.922 191.969 668.537 198.542 664.756C209.266 659.028 220.566 653.571 226.906 642.62C233.206 631.736 232.533 620.501 229.424 608.769C228.208 603.729 226.234 599.022 226.97 593.725C228.808 580.507 243.084 573.272 252.648 565.94C257.609 561.277 260.933 557.654 263.163 551.163C263.404 549.128 263.461 546.983 263.11 544.957C262.487 541.353 260.715 537.883 257.615 535.81C253.085 532.782 247.159 533.574 242.127 534.611Z" fill="#FEB700"/>
<path d="M242.126 534.611C248.773 528.527 254.935 522.183 261.898 516.398C290.411 492.674 323.827 475.561 359.742 466.289C411.742 452.83 466.644 455.901 516.819 475.076C532.549 481.135 547.254 488.667 561.761 497.199C557.64 501.4 552.32 505.268 547.35 508.406C540.535 503.144 531.484 498.784 523.695 495.096C486.382 477.279 444.655 470.822 403.702 476.527C361.794 481.961 319.606 498.732 287.489 526.586C281.705 531.603 276.018 536.871 270.79 542.471C268.2 545.246 265.943 548.623 263.163 551.163C263.404 549.128 263.461 546.983 263.11 544.957C262.486 541.353 260.715 537.883 257.615 535.81C253.085 532.782 247.159 533.574 242.126 534.611Z" fill="#FC6D00"/>
<path d="M361.903 526.871C360.69 523.41 359.115 519.559 359.432 515.823C359.648 513.274 360.89 510.534 362.882 508.884C365.997 506.303 370.859 505.069 374.631 503.777C399.686 495.196 426.689 493.501 452.946 495.991C472.715 497.865 492.569 503.057 510.265 512.195C514.051 514.15 518.893 516.663 521.64 519.984C517.536 520.743 513.458 521.41 509.267 521.331C503.454 521.222 497.725 519.902 492.117 518.464C485.404 516.76 478.774 514.743 472.25 512.417C457.354 507.118 442.79 500.687 426.656 500.775C413.056 500.849 403.081 506.875 392.909 515.343C389.754 517.97 386.592 520.928 382.817 522.639C376.383 525.555 368.839 526.077 361.903 526.871Z" fill="#FCC73A"/>
<path d="M201.965 698.974C199.429 699.197 196.976 699.264 194.472 698.718C190.932 697.947 187.485 695.998 185.56 692.851C183.342 689.223 183.281 684.598 184.336 680.583C186.35 672.923 191.969 668.537 198.542 664.757C199.293 669.893 199.426 675.227 199.966 680.403C200.608 686.546 201.689 692.818 201.965 698.974Z" fill="#DC7800"/>
<path d="M229.424 608.769C228.208 603.73 226.235 599.023 226.971 593.725C228.808 580.508 243.084 573.273 252.649 565.94C252.19 568.798 246.455 575.931 244.627 578.88C242.176 582.835 240.022 587.073 237.954 591.239C236.533 594.1 231.283 607.216 229.713 608.565C229.624 608.642 229.52 608.701 229.424 608.769Z" fill="#FC6D00"/>
<path d="M271.058 607.724C282.757 602.791 301.079 599.077 313.275 604.012C317.697 605.801 321.984 609.044 323.891 613.54C325.505 617.348 325.204 621.643 323.589 625.39C319.391 635.129 308.612 641.082 299.217 644.723C294.275 646.638 288.992 648.146 283.71 648.727C277.754 649.733 271.203 649.462 265.373 647.857C259.981 646.372 254.373 643.451 251.63 638.35C249.628 634.628 249.553 630.258 250.819 626.292C253.817 616.893 262.829 611.894 271.058 607.724Z" fill="#DC7800"/>
<path d="M271.058 607.724C271.669 622.698 275.873 636.007 283.71 648.727C277.754 649.732 271.203 649.462 265.373 647.857C259.981 646.372 254.373 643.45 251.63 638.349C249.628 634.628 249.553 630.258 250.819 626.292C253.817 616.893 262.829 611.893 271.058 607.724Z" fill="#FC6D00"/>
<path d="M350.821 672.086C363.35 670.829 377.738 676.252 387.783 683.479C392.872 687.139 399.169 692.965 400.118 699.515C400.559 702.564 399.601 705.512 397.726 707.922C394.82 711.656 390.529 713.294 386.004 713.947C372.885 715.409 359.979 711.04 349.356 703.443C343.907 699.545 337.037 693.458 336.007 686.423C335.593 683.592 336.149 680.67 337.879 678.355C340.869 674.355 346.081 672.721 350.821 672.086Z" fill="#FC6D00"/>
<path d="M410.393 647.815C416.04 647.511 421.59 649.378 425.906 653.035C428.441 655.208 430.839 658.405 431.009 661.838C431.114 664.022 430.317 666.154 428.805 667.733C426.002 670.679 421.678 671.292 417.818 671.453C412.181 671.366 406.704 669.907 402.194 666.415C399.473 664.308 396.925 661.265 396.569 657.725C396.366 655.7 396.994 653.77 398.346 652.248C401.278 648.946 406.211 648.099 410.393 647.815Z" fill="#DC7800"/>
<path d="M473.257 769.845C478.916 769.889 484.833 771.174 489.356 774.777C491.671 776.62 493.684 779.231 493.985 782.264C494.178 784.202 493.46 786.028 492.184 787.471C489.248 790.791 484.571 792.131 480.318 792.486C474.4 792.481 468.153 790.671 463.573 786.812C461.355 784.943 459.378 782.334 459.209 779.338C459.103 777.501 459.741 775.698 460.979 774.337C463.902 771.068 469.092 770.099 473.257 769.845Z" fill="#DC7800"/>
<path d="M321.284 711.532C325.751 711.743 329.814 712.955 333.546 715.472C336.161 717.235 338.818 719.898 339.355 723.119C339.597 724.576 339.333 725.999 338.432 727.189C336.474 729.774 332.985 730.446 329.97 730.837C325.302 730.802 320.736 729.782 316.871 727.067C314.332 725.283 311.7 722.592 311.254 719.402C311.048 717.933 311.375 716.534 312.296 715.361C314.352 712.742 318.137 711.857 321.284 711.532Z" fill="#DC7800"/>
<path d="M302.976 572.343C305.116 572.193 307.98 572.598 309.778 573.79C311.048 574.63 311.929 575.918 312.168 577.43C312.441 579.152 311.877 580.835 310.856 582.216C308.805 584.99 305.832 585.988 302.58 586.523C300.119 586.599 297.061 586.169 295.057 584.679C293.842 583.776 293.002 582.512 292.834 580.988C292.656 579.372 293.247 577.817 294.239 576.559C296.4 573.816 299.637 572.728 302.976 572.343Z" fill="#FCC73A"/>
<path d="M317.198 515.439C319.078 515.28 320.854 515.323 322.583 516.171C324.047 516.89 325.205 518.091 325.718 519.656C326.264 521.327 325.984 523.12 325.119 524.631C323.673 527.159 321.202 528.335 318.503 529.057C316.737 529.139 315.089 528.977 313.453 528.26C311.859 527.56 310.562 526.353 309.993 524.677C309.488 523.19 309.644 521.622 310.337 520.226C311.72 517.44 314.434 516.358 317.198 515.439Z" fill="#FC6D00"/>
<path d="M450.8 725.748C452.295 725.634 453.809 725.57 455.266 725.99C457.642 726.676 459.887 728.267 461.056 730.479C461.709 731.717 462.031 733.212 461.549 734.568C460.854 736.525 459.162 737.441 457.376 738.217C455.828 738.342 454.285 738.255 452.774 737.872C450.459 737.285 448.102 735.958 446.933 733.798C446.249 732.533 445.999 730.959 446.518 729.588C447.264 727.623 449 726.599 450.8 725.748Z" fill="#DC7800"/>
<path d="M465.344 671.205C467.571 671.175 469.884 671.552 471.896 672.532C473.651 673.387 475.321 674.77 475.934 676.687C476.258 677.702 476.164 678.805 475.616 679.725C474.474 681.641 472.237 682.24 470.237 682.806C467.77 682.989 465.563 682.583 463.422 681.29C461.73 680.27 460.081 678.623 459.649 676.629C459.434 675.637 459.57 674.649 460.139 673.798C461.258 672.126 463.476 671.517 465.344 671.205Z" fill="#DC7800"/>
<path d="M204.38 711.572C210.802 710.331 217.27 707.817 223.037 704.714C234.056 698.787 248.85 685.686 261.684 694.404C279.022 706.18 284.721 744.64 307.388 761.56C324.744 774.516 347.392 777.955 368.555 777.419C386.344 776.969 401.114 774.535 418.008 783.056C427.432 787.809 433.927 795.503 440.098 803.814C456.403 825.772 467.395 843.605 496.391 849.513C507.972 851.953 519.916 852.13 531.565 850.033C537.491 848.943 543.331 847.437 549.178 845.996C560.014 843.325 577.035 837.937 587.133 844.744C588.612 845.741 589.81 847.02 590.866 848.447C599.916 862.66 596.61 873.932 615.61 879.931C610.367 886.303 604.246 892.234 598.244 897.884C558.786 935.034 506.045 959.785 451.983 965.019C424.749 967.657 401.597 966.019 374.773 961.004C374.829 950.89 371.844 943.434 364.67 936.16C349.342 920.619 324.582 916.631 324.147 890.127C323.52 883.356 323.867 876.711 322.632 869.964C319.844 854.729 311.64 839.397 298.663 830.542C285.893 821.828 270.968 819.966 255.999 822.739C239.283 825.855 222.065 835.884 210.316 848.156C184.789 809.882 171.583 763.328 170.492 717.51C170.297 709.336 170.721 701.199 171.171 693.041C172.836 698.307 175.499 702.719 179.824 706.225C187.018 712.058 195.544 712.5 204.38 711.572Z" fill="#565656"/>
<path d="M590.866 848.447C599.916 862.66 596.609 873.933 615.61 879.932C610.367 886.304 604.245 892.234 598.244 897.884C558.786 935.035 506.044 959.785 451.983 965.02C424.748 967.657 401.597 966.02 374.773 961.005C374.829 950.891 371.844 943.435 364.669 936.161C349.342 920.62 324.582 916.631 324.146 890.127C329.094 892.809 333.903 895.675 339.015 898.047C372.931 913.511 410.235 920.053 447.388 917.05C451.907 916.704 464.271 916.261 467.734 915.07C467.911 915.01 468.078 914.922 468.249 914.848C463.52 910.005 460.249 904.254 459.667 897.425C459.066 890.375 461.406 883.554 466.025 878.212C482.594 859.049 511.769 868.963 532.947 870.652C543.382 871.483 553.998 870.729 564.425 870.021C568.236 867.147 572.232 864.533 576.008 861.603C581.257 857.53 586.089 853.057 590.866 848.447Z" fill="#434343"/>
<path d="M468.25 914.848C463.521 910.005 460.249 904.253 459.668 897.424C459.066 890.374 461.406 883.554 466.025 878.212C482.595 859.049 511.769 868.962 532.948 870.651C543.383 871.483 553.999 870.729 564.425 870.02C567.944 870.185 571.23 870.948 573.768 873.609C575.693 875.628 576.575 878.585 576.469 881.339C576.121 890.33 567.389 900.725 561.001 906.41C544.844 920.549 523.798 927.807 502.36 926.633C490.5 925.885 477.25 923.057 468.25 914.848Z" fill="#111111"/>
<path d="M447.072 922.456C453.119 921.934 460.725 923.338 465.797 926.829C468.037 928.37 470.166 930.608 470.619 933.393C470.953 935.451 470.338 937.418 469.083 939.059C465.462 943.793 458.42 945.302 452.871 946.046C445.947 946.3 438.666 945.887 432.885 941.593C430.754 940.01 428.873 937.825 428.541 935.102C428.272 932.897 429.047 930.792 430.451 929.103C434.38 924.378 441.289 922.978 447.072 922.456Z" fill="#111111"/>
<path d="M171.171 693.041C172.836 698.308 175.499 702.719 179.824 706.225C187.018 712.058 195.544 712.5 204.38 711.572C205.489 716.34 206.415 721.141 207.659 725.879C212.636 744.835 219.451 762.142 228.239 779.604C231.922 786.923 235.755 794.287 240.202 801.175C243.348 806.046 246.701 810.78 250.253 815.364C252.115 817.787 254.346 820.19 255.999 822.74C239.283 825.855 222.065 835.884 210.316 848.156C184.789 809.882 171.583 763.328 170.492 717.51C170.297 709.336 170.721 701.199 171.171 693.041Z" fill="#434343"/>
<path d="M190.902 734.623C192.747 734.538 194.258 735.186 195.657 736.364C202.223 741.89 206.319 758.493 206.909 766.736C207.19 770.658 207.085 776.098 204.282 779.151C203.123 780.414 202.086 780.641 200.421 780.73C199.777 780.487 199.114 780.244 198.502 779.926C191.694 776.379 187.956 767.66 185.82 760.741C183.945 754.667 182.101 744.73 185.363 738.853C186.634 736.564 188.435 735.345 190.902 734.623Z" fill="#111111"/>
<path d="M209.839 799.787C211.32 799.56 212.744 799.553 214.198 799.949C218.504 801.122 222.247 804.722 224.436 808.522C226.097 811.404 227.434 815.324 226.458 818.621C225.853 820.665 224.675 821.876 222.852 822.882C221.377 823.28 219.829 823.328 218.331 823.025C214.203 822.15 210.775 818.896 208.611 815.398C206.645 812.218 205.282 807.925 206.267 804.221C206.846 802.042 207.92 800.888 209.839 799.787Z" fill="#111111"/>
<path d="M312.25 781.23C320.994 780.905 336.904 785.512 343.385 791.551C344.234 792.342 344.499 792.888 344.511 794.046C343.79 795.509 342.499 795.991 341.042 796.509C334.508 797.401 327.117 796.413 321.038 793.856C317.268 792.271 310.625 789.067 309.133 784.917C308.888 784.234 308.873 783.508 309.274 782.875C309.931 781.835 311.148 781.541 312.25 781.23Z" fill="#111111"/>
<path d="M369.655 875.562C374.387 875.224 379.188 875.882 383.544 877.809C385.864 878.835 388.57 880.518 389.451 883.035C389.755 883.902 389.744 884.793 389.302 885.616C388.171 887.717 385.219 888.839 383.045 889.447C377.772 890.472 371.761 889.471 367.261 886.479C365.337 885.199 363.16 883.101 362.746 880.716C362.584 879.782 362.8 878.878 363.393 878.134C364.874 876.276 367.447 875.851 369.655 875.562Z" fill="#111111"/>
<path d="M572.569 504.229C581.843 511.224 590.876 518.433 599.356 526.387C621.75 547.393 641.299 573.531 654.152 601.461C648.838 615.808 645.196 637.107 646.968 652.276C647.856 659.878 650.721 667.504 652.667 674.902C657.34 692.668 658.6 708.273 652.687 726.039C651.416 729.86 649.903 734.116 647.847 737.585C644.638 742.998 634.796 753.196 630.269 758.163C620.95 768.387 611.215 780.303 598.388 786.145C586.627 791.501 572.669 791.086 560.731 786.494C549.892 782.325 541.045 774.355 530.505 769.467C527.169 767.933 523.739 766.615 520.234 765.521C514.149 763.652 507.626 762.322 502.134 758.98C498.453 756.753 495.542 753.452 493.793 749.521C490.985 743.218 491.174 735.653 493.616 729.267C493.744 728.934 493.885 728.626 494.039 728.306C499.283 714.967 509.506 703.287 510.827 688.642C511.593 680.145 509.554 671.233 504.729 664.126C502.995 661.572 500.749 659.237 498.759 656.875C484.148 642.686 466.664 639.479 447.281 636.794C437.597 635.452 428.095 634.035 419.563 628.875C408.849 622.397 405.654 610.927 400.22 600.485C397.598 595.446 394.32 590.606 390.414 586.469C385.114 580.855 377.947 577.289 371.34 573.446C364.255 569.326 357.595 564.997 351.79 559.133C351.155 558.456 350.542 557.769 349.988 557.024C347.807 554.093 345.454 549.998 346.106 546.221C346.83 542.02 350.999 540.381 354.718 539.686C357.784 539.113 360.961 538.936 364.064 538.626C374.995 537.537 385.201 536.082 394.43 529.611C399.771 525.867 404.402 521.126 409.831 517.524C413.587 515.032 417.747 513.236 422.23 512.597C437.53 510.417 455.764 519.467 469.99 524.543C478.745 527.643 487.705 530.13 496.806 531.987C518.613 536.321 538.59 529.355 556.56 517.319C562.048 513.437 568.018 509.203 572.569 504.229Z" fill="#565656"/>
<path d="M572.569 504.229C581.842 511.224 590.875 518.433 599.355 526.387C621.75 547.393 641.298 573.531 654.151 601.461C648.837 615.808 645.195 637.107 646.967 652.276C647.855 659.878 650.72 667.504 652.666 674.902C657.34 692.668 658.6 708.273 652.687 726.039C651.416 729.86 649.902 734.116 647.846 737.585C644.637 742.998 634.795 753.196 630.268 758.163C620.95 768.387 611.215 780.303 598.387 786.145C586.627 791.501 572.669 791.086 560.731 786.494C549.892 782.325 541.044 774.355 530.505 769.467C527.169 767.933 523.738 766.615 520.234 765.521C514.149 763.652 507.626 762.322 502.133 758.98C498.453 756.753 495.542 753.452 493.793 749.521C490.984 743.218 491.174 735.653 493.616 729.267C493.743 728.934 493.885 728.626 494.039 728.306C494.202 728.357 494.443 728.442 494.624 728.468C496.011 728.666 498.116 728.244 499.481 727.894C511.147 724.904 516.792 712.092 523.833 703.524C527.235 699.438 531.128 695.785 535.424 692.651C542.31 687.639 550.379 684.209 558.625 682.173C565.385 680.504 572.129 679.438 578.249 675.905C581.545 674.003 584.461 671.532 587.091 668.794C595.915 659.611 601.393 647.085 613.186 641.054C615.879 639.689 618.677 638.541 621.552 637.621C624.712 636.627 628.587 636.346 631.346 634.407C632.15 633.842 632.392 633.455 632.51 632.475C632.96 628.75 631.7 624.315 630.73 620.746C626.928 606.77 620.954 593.635 613.787 581.08C611.793 577.589 609.764 573.913 607.346 570.698C598.493 556.108 586.396 542.479 573.652 531.181C568.268 526.216 562.334 521.816 556.56 517.319C562.048 513.437 568.017 509.203 572.569 504.229Z" fill="#434343"/>
<path d="M624.96 657.484C627.288 657.191 629.674 657.392 631.884 658.191C637.4 660.187 641.382 665.309 643.668 670.519C649.462 683.721 651.877 701.546 646.513 715.254C644.498 720.403 641.493 724.989 637.315 728.639C629.091 735.827 618.913 736.635 611.19 742.551C599.517 751.493 594.188 764.414 579.612 770.779C570.906 774.581 562.902 774.091 554.183 770.673C551.144 769.281 548.222 767.647 545.444 765.786C538.023 760.814 527.794 754.595 526.119 745.031C525.079 739.087 527.081 733.536 530.553 728.762C540.12 715.6 555.768 710.505 570.786 706.511C577.93 704.611 585.027 702.865 590.892 698.092C599.972 690.7 601.752 678.34 608.365 669.093C612.456 663.372 617.871 658.686 624.96 657.484Z" fill="#111111"/>
<path d="M351.79 559.132C351.155 558.456 350.542 557.768 349.988 557.024C347.807 554.093 345.454 549.998 346.106 546.22C346.83 542.02 350.999 540.381 354.718 539.686C357.784 539.113 360.961 538.935 364.064 538.626C374.995 537.537 385.201 536.082 394.43 529.611C399.771 525.867 404.402 521.125 409.831 517.524C413.587 515.032 417.747 513.236 422.23 512.597C437.53 510.417 455.764 519.466 469.99 524.543C478.745 527.642 487.705 530.13 496.806 531.986C518.613 536.32 538.59 529.354 556.56 517.319C562.335 521.816 568.269 526.216 573.652 531.181C586.396 542.479 598.494 556.108 607.346 570.698C591.022 562.889 571.874 563.446 554.407 566.555C547.037 567.867 539.782 569.652 532.337 570.547C515.886 572.527 497.958 571.977 481.967 567.37C476.491 565.737 471.171 563.623 466.067 561.051C456.004 556.014 444.999 547.855 433.27 552.065C428.836 553.656 424.975 556.366 420.996 558.82C411.786 564.497 402.681 566.909 391.96 567.807C389.5 568.012 381.76 567.857 380.532 569.902C381.142 571.818 396.773 579.784 399.563 581.566C403.629 584.165 407.643 587.113 410.411 591.129C412.842 594.657 413.878 598.548 415.196 602.569C418.088 611.391 423.925 617.891 432.163 622.126C453.23 632.957 488.285 624.159 497.777 652.908C498.176 654.116 498.751 655.607 498.759 656.875C484.148 642.686 466.664 639.478 447.28 636.793C437.597 635.452 428.095 634.035 419.563 628.875C408.849 622.397 405.654 610.927 400.22 600.484C397.598 595.445 394.32 590.606 390.414 586.469C385.114 580.854 377.947 577.289 371.34 573.446C364.255 569.325 357.595 564.996 351.79 559.132Z" fill="#787978"/>
<path d="M351.79 559.132C351.155 558.456 350.542 557.768 349.988 557.024C347.807 554.093 345.454 549.998 346.106 546.22C346.83 542.02 350.999 540.381 354.718 539.686C357.784 539.113 360.961 538.935 364.064 538.626C374.995 537.537 385.201 536.082 394.43 529.611C399.771 525.867 404.402 521.125 409.831 517.524C413.587 515.032 417.747 513.236 422.23 512.597C437.53 510.417 455.764 519.466 469.99 524.543C478.745 527.642 487.705 530.13 496.806 531.986C518.613 536.32 538.59 529.354 556.56 517.319C562.335 521.816 568.269 526.216 573.652 531.181C571.876 536.652 567.41 540.183 562.461 542.689C557.138 545.384 551.493 547.32 545.746 548.883C519.684 555.97 495.182 550.764 470.154 542.427C463.659 540.262 457.272 537.809 450.736 535.762C440.919 532.688 432.356 530.351 422.645 535.203C413.094 539.974 404.526 545.879 394.14 548.945C389.681 550.261 385.06 551.179 380.401 551.282C369.883 551.515 358.674 548.793 351.79 559.132Z" fill="#8E8E8E"/>
<path d="M582.48 576.916C586.867 576.463 591.175 577.777 594.816 580.196C602.454 585.27 607.893 594.528 609.591 603.444C610.692 609.225 610.294 615.644 606.825 620.595C603.233 625.723 597.368 628.258 591.404 629.383C585.497 629.72 580.679 628.8 575.854 625.179C569.404 620.34 564.864 612.034 563.74 604.095C562.782 597.335 564.209 590.46 568.422 584.994C571.941 580.428 576.775 577.622 582.48 576.916Z" fill="#111111"/>
<path d="M581.825 586.297C584.386 586.114 586.681 586.689 588.912 587.954C594.244 590.977 598.234 597.158 599.718 603.011C600.652 606.694 600.795 611.025 598.699 614.347C596.95 617.12 594.372 618.173 591.305 618.784C588.833 618.891 586.633 618.663 584.328 617.659C579.707 615.648 576.394 611.549 574.636 606.907C572.918 602.373 572.437 596.958 574.581 592.476C576.108 589.285 578.551 587.425 581.825 586.297Z" fill="#FEB700"/>
<path d="M463.026 596.66C471 596.521 479.541 598.812 486.007 603.6C488.988 605.807 491.927 608.99 492.407 612.805C492.609 614.41 492.309 615.965 491.271 617.239C488.883 620.171 484.42 621.129 480.858 621.511C472.895 622.137 464.224 620.333 457.818 615.359C454.702 612.94 451.644 609.223 451.269 605.168C451.11 603.438 451.551 601.781 452.693 600.452C455.251 597.474 459.35 596.936 463.026 596.66Z" fill="#111111"/>
<path d="M256.614 836.006C268.078 833.553 279.618 834.32 289.67 840.834C300.209 847.665 306.825 859.619 309.339 871.717C310.263 876.169 310.837 880.853 310.813 885.405C311.727 891.783 311.59 897.806 313.604 904.085C323.736 935.666 354.412 930.677 362.893 958.316C350.927 954.937 339.232 951.307 327.732 946.529C284.256 928.468 244.675 897.731 217.684 858.995C220.056 856.892 222.282 854.648 224.716 852.607C234.112 844.734 244.75 839.097 256.614 836.006Z" fill="#DC7800"/>
<path d="M256.614 836.006C268.078 833.553 279.618 834.32 289.669 840.834C300.209 847.665 306.824 859.619 309.338 871.717C310.263 876.169 310.836 880.853 310.812 885.405L310.678 887.801L310.353 887.939C288.747 872.233 272.327 857.903 256.614 836.006Z" fill="#FEB700"/>
<path d="M242.157 858.108C244.84 857.776 247.472 857.898 250.054 858.75C253.999 860.052 257.673 862.83 259.457 866.644C260.399 868.657 260.798 871.014 259.987 873.138C259.081 875.507 257.127 877.031 254.891 878.049C252.26 878.711 249.727 878.698 247.146 877.799C243.431 876.504 240.121 873.631 238.415 870.071C237.333 867.812 236.742 865.038 237.624 862.614C238.424 860.418 240.118 859.085 242.157 858.108Z" fill="#FC6D00"/>
<path d="M679.152 720.264C680.108 722.261 677.913 739.78 677.523 742.862C672.717 782.658 658.439 820.721 635.886 853.859C633.695 857.08 628.357 865.903 625.547 867.893C623.766 869.154 621.252 869.355 619.178 868.882C614.901 867.906 612.281 864.578 610.152 861.013C606.981 855.034 604.766 848.574 601.754 842.497C618.039 827.997 630.003 809.281 636.326 788.413C638.748 780.233 640.271 770.88 644.162 763.233C646.261 759.108 651.675 753.519 654.709 749.819C662.79 739.913 670.938 730.06 679.152 720.264Z" fill="#DC7800"/>
<path d="M204.221 586.481C208.214 578.338 220.238 558.221 227.168 552.676C231.257 549.405 237.221 546.909 242.151 545.209C244.689 544.335 248.412 543.066 250.971 544.292C251.662 544.623 252.236 545.137 252.426 545.91C252.913 547.903 251.032 550.552 249.871 552.065C245.178 558.184 238.45 562.191 232.435 566.83C222.601 574.416 214.191 584.389 215.795 597.507C217.663 612.792 225.831 624.912 214.782 639.064C210.576 644.451 204.252 648.341 198.184 651.328C188.526 657.097 180.5 661.033 173.987 670.704C175.766 663.444 177.027 656.074 178.91 648.827C183.405 631.55 189.673 614.783 197.613 598.794C199.661 594.663 201.727 590.359 204.221 586.481Z" fill="#FEB700"/>
<path d="M173.987 670.704C175.766 663.444 177.027 656.074 178.91 648.827C183.405 631.55 189.673 614.784 197.613 598.794C199.661 594.663 201.727 590.36 204.221 586.481C204.133 592.214 202.393 598.368 201.522 604.051C199.488 617.021 198.321 630.113 198.031 643.239C197.962 645.737 197.513 648.913 198.184 651.328C188.526 657.097 180.5 661.033 173.987 670.704Z" fill="#DC7800"/>
<path d="M661.854 619.904C663.41 622.102 664.978 628.2 665.872 630.9C673.625 654.32 678.011 677.799 679.057 702.442C676.922 704.228 674.793 706.004 672.77 707.918L669.069 711.717C672.148 690.286 663.377 674.412 660.269 654.4C658.535 643.236 659.433 630.92 661.854 619.904Z" fill="#434343"/>
</svg>
