<svg width="849" height="1183" viewBox="0 0 849 1183" fill="none" xmlns="http://www.w3.org/2000/svg">
<rect x="5" y="5" width="839" height="1173" rx="45" fill="white"/>
<rect x="5" y="5" width="839" height="1173" rx="45" stroke="black" stroke-width="10"/>
<circle cx="786.5" cy="1124.5" r="11.5" fill="black"/>
<circle cx="786.5" cy="59.5" r="11.5" fill="black"/>
<path d="M77 1124.5C77 1130.85 71.8513 1136 65.5 1136C59.1487 1136 54 1130.85 54 1124.5C54 1118.15 59.1487 1113 65.5 1113C71.8513 1113 77 1118.15 77 1124.5Z" fill="black"/>
<path d="M77 59.5C77 65.8513 71.8513 71 65.5 71C59.1487 71 54 65.8513 54 59.5C54 53.1487 59.1487 48 65.5 48C71.8513 48 77 53.1487 77 59.5Z" fill="black"/>
<mask id="path-6-inside-1_97_5" fill="white">
<path d="M708 48C713.523 48 717.934 52.4996 718.616 57.9801C723.122 94.1833 751.817 122.878 788.02 127.384C793.5 128.066 798 132.477 798 138V1046C798 1051.52 793.5 1055.93 788.02 1056.62C751.817 1061.12 723.122 1089.82 718.616 1126.02C717.934 1131.5 713.523 1136 708 1136H141C135.477 1136 131.066 1131.5 130.384 1126.02C125.878 1089.82 97.1833 1061.12 60.9801 1056.62C55.4996 1055.93 51 1051.52 51 1046V138C51 132.477 55.4996 128.066 60.9801 127.384C97.1833 122.878 125.878 94.1833 130.384 57.9801C131.066 52.4996 135.477 48 141 48H708Z"/>
</mask>
<path d="M708 48C713.523 48 717.934 52.4996 718.616 57.9801C723.122 94.1833 751.817 122.878 788.02 127.384C793.5 128.066 798 132.477 798 138V1046C798 1051.52 793.5 1055.93 788.02 1056.62C751.817 1061.12 723.122 1089.82 718.616 1126.02C717.934 1131.5 713.523 1136 708 1136H141C135.477 1136 131.066 1131.5 130.384 1126.02C125.878 1089.82 97.1833 1061.12 60.9801 1056.62C55.4996 1055.93 51 1051.52 51 1046V138C51 132.477 55.4996 128.066 60.9801 127.384C97.1833 122.878 125.878 94.1833 130.384 57.9801C131.066 52.4996 135.477 48 141 48H708Z" fill="#77B866"/>
<path d="M130.384 1126.02L138.322 1125.03L130.384 1126.02ZM718.616 1126.02L710.678 1125.03L718.616 1126.02ZM788.02 1056.62L789.008 1064.56L788.02 1056.62ZM718.616 57.9801L726.555 56.9922L718.616 57.9801ZM718.616 57.9801L710.678 58.9681C715.635 98.8063 747.194 130.365 787.032 135.322L788.02 127.384L789.008 119.445C756.44 115.392 730.608 89.5603 726.555 56.9922L718.616 57.9801ZM798 138H790V1046H798H806V138H798ZM788.02 1056.62L787.032 1048.68C747.194 1053.64 715.635 1085.19 710.678 1125.03L718.616 1126.02L726.555 1127.01C730.608 1094.44 756.44 1068.61 789.008 1064.56L788.02 1056.62ZM708 1136V1128H141V1136V1144H708V1136ZM130.384 1126.02L138.322 1125.03C133.365 1085.19 101.806 1053.64 61.9681 1048.68L60.9801 1056.62L59.9922 1064.56C92.5603 1068.61 118.392 1094.44 122.445 1127.01L130.384 1126.02ZM51 1046H59V138H51H43V1046H51ZM60.9801 127.384L61.9681 135.322C101.806 130.365 133.365 98.8063 138.322 58.9681L130.384 57.9801L122.445 56.9922C118.392 89.5603 92.5603 115.392 59.9922 119.445L60.9801 127.384ZM141 48V56H708V48V40H141V48ZM130.384 57.9801L138.322 58.9681C138.438 58.0389 138.872 57.2306 139.427 56.6958C139.954 56.1887 140.494 56 141 56V48V40C130.84 40 123.547 48.1329 122.445 56.9922L130.384 57.9801ZM51 138H59C59 137.494 59.1887 136.954 59.6958 136.427C60.2306 135.872 61.0389 135.438 61.9681 135.322L60.9801 127.384L59.9922 119.445C51.1329 120.547 43 127.84 43 138H51ZM60.9801 1056.62L61.9681 1048.68C61.0389 1048.56 60.2306 1048.13 59.6958 1047.57C59.1887 1047.05 59 1046.51 59 1046H51H43C43 1056.16 51.1329 1063.45 59.9922 1064.56L60.9801 1056.62ZM141 1136V1128C140.494 1128 139.954 1127.81 139.427 1127.3C138.872 1126.77 138.438 1125.96 138.322 1125.03L130.384 1126.02L122.445 1127.01C123.547 1135.87 130.84 1144 141 1144V1136ZM718.616 1126.02L710.678 1125.03C710.562 1125.96 710.128 1126.77 709.573 1127.3C709.046 1127.81 708.506 1128 708 1128V1136V1144C718.16 1144 725.453 1135.87 726.555 1127.01L718.616 1126.02ZM798 1046H790C790 1046.51 789.811 1047.05 789.304 1047.57C788.769 1048.13 787.961 1048.56 787.032 1048.68L788.02 1056.62L789.008 1064.56C797.867 1063.45 806 1056.16 806 1046H798ZM788.02 127.384L787.032 135.322C787.961 135.438 788.769 135.872 789.304 136.427C789.811 136.954 790 137.494 790 138H798H806C806 127.84 797.867 120.547 789.008 119.445L788.02 127.384ZM718.616 57.9801L726.555 56.9922C725.453 48.1329 718.16 40 708 40V48V56C708.506 56 709.046 56.1887 709.573 56.6958C710.128 57.2306 710.562 58.0389 710.678 58.9681L718.616 57.9801Z" fill="black" mask="url(#path-6-inside-1_97_5)"/>
<path d="M690 102C695.523 102 699.911 106.512 700.837 111.957C705.019 136.563 724.437 155.981 749.043 160.163C754.488 161.089 759 165.477 759 171V1014C759 1019.52 754.488 1023.91 749.043 1024.84C724.711 1028.97 705.454 1048 700.984 1072.22C699.993 1077.59 695.633 1082 690.175 1082H158.825C153.367 1082 149.007 1077.59 148.016 1072.22C143.546 1048 124.288 1028.97 99.9568 1024.84C94.5121 1023.91 90 1019.52 90 1014V171C90 165.477 94.512 161.089 99.9568 160.163C124.563 155.981 143.981 136.563 148.163 111.957C149.089 106.512 153.477 102 159 102H690Z" fill="#A3CC98"/>
<path d="M299.595 348.925V408H289.905V367.54L271.885 408H265.17L247.065 367.54V408H237.375V348.925H247.83L268.57 395.25L289.225 348.925H299.595ZM332.646 408.765C328.226 408.765 324.231 407.773 320.661 405.79C317.091 403.75 314.286 400.917 312.246 397.29C310.206 393.607 309.186 389.357 309.186 384.54C309.186 379.78 310.234 375.558 312.331 371.875C314.428 368.192 317.289 365.358 320.916 363.375C324.543 361.392 328.594 360.4 333.071 360.4C337.548 360.4 341.599 361.392 345.226 363.375C348.853 365.358 351.714 368.192 353.811 371.875C355.908 375.558 356.956 379.78 356.956 384.54C356.956 389.3 355.879 393.522 353.726 397.205C351.573 400.888 348.626 403.75 344.886 405.79C341.203 407.773 337.123 408.765 332.646 408.765ZM332.646 400.35C335.139 400.35 337.463 399.755 339.616 398.565C341.826 397.375 343.611 395.59 344.971 393.21C346.331 390.83 347.011 387.94 347.011 384.54C347.011 381.14 346.359 378.278 345.056 375.955C343.753 373.575 342.024 371.79 339.871 370.6C337.718 369.41 335.394 368.815 332.901 368.815C330.408 368.815 328.084 369.41 325.931 370.6C323.834 371.79 322.163 373.575 320.916 375.955C319.669 378.278 319.046 381.14 319.046 384.54C319.046 389.583 320.321 393.493 322.871 396.27C325.478 398.99 328.736 400.35 332.646 400.35ZM390.165 360.4C393.848 360.4 397.135 361.165 400.025 362.695C402.972 364.225 405.267 366.492 406.91 369.495C408.553 372.498 409.375 376.125 409.375 380.375V408H399.77V381.82C399.77 377.627 398.722 374.425 396.625 372.215C394.528 369.948 391.667 368.815 388.04 368.815C384.413 368.815 381.523 369.948 379.37 372.215C377.273 374.425 376.225 377.627 376.225 381.82V408H366.535V361.165H376.225V366.52C377.812 364.593 379.823 363.092 382.26 362.015C384.753 360.938 387.388 360.4 390.165 360.4ZM433.04 369.07V394.995C433.04 396.752 433.437 398.027 434.23 398.82C435.08 399.557 436.497 399.925 438.48 399.925H444.43V408H436.78C432.417 408 429.074 406.98 426.75 404.94C424.427 402.9 423.265 399.585 423.265 394.995V369.07H417.74V361.165H423.265V349.52H433.04V361.165H444.43V369.07H433.04ZM450.131 384.37C450.131 379.667 451.095 375.502 453.021 371.875C455.005 368.248 457.668 365.443 461.011 363.46C464.411 361.42 468.151 360.4 472.231 360.4C475.915 360.4 479.116 361.137 481.836 362.61C484.613 364.027 486.823 365.812 488.466 367.965V361.165H498.241V408H488.466V401.03C486.823 403.24 484.585 405.082 481.751 406.555C478.918 408.028 475.688 408.765 472.061 408.765C468.038 408.765 464.355 407.745 461.011 405.705C457.668 403.608 455.005 400.718 453.021 397.035C451.095 393.295 450.131 389.073 450.131 384.37ZM488.466 384.54C488.466 381.31 487.786 378.505 486.426 376.125C485.123 373.745 483.395 371.932 481.241 370.685C479.088 369.438 476.765 368.815 474.271 368.815C471.778 368.815 469.455 369.438 467.301 370.685C465.148 371.875 463.391 373.66 462.031 376.04C460.728 378.363 460.076 381.14 460.076 384.37C460.076 387.6 460.728 390.433 462.031 392.87C463.391 395.307 465.148 397.177 467.301 398.48C469.511 399.727 471.835 400.35 474.271 400.35C476.765 400.35 479.088 399.727 481.241 398.48C483.395 397.233 485.123 395.42 486.426 393.04C487.786 390.603 488.466 387.77 488.466 384.54ZM534.599 360.4C538.282 360.4 541.569 361.165 544.459 362.695C547.405 364.225 549.7 366.492 551.344 369.495C552.987 372.498 553.809 376.125 553.809 380.375V408H544.204V381.82C544.204 377.627 543.155 374.425 541.059 372.215C538.962 369.948 536.1 368.815 532.474 368.815C528.847 368.815 525.957 369.948 523.804 372.215C521.707 374.425 520.659 377.627 520.659 381.82V408H510.969V361.165H520.659V366.52C522.245 364.593 524.257 363.092 526.694 362.015C529.187 360.938 531.822 360.4 534.599 360.4ZM519.214 356.32C519.667 353.033 520.744 350.568 522.444 348.925C524.144 347.225 526.269 346.375 528.819 346.375C529.895 346.375 530.83 346.545 531.624 346.885C532.417 347.225 533.38 347.735 534.514 348.415C535.364 348.982 536.072 349.407 536.639 349.69C537.262 349.973 537.942 350.115 538.679 350.115C539.642 350.115 540.435 349.832 541.059 349.265C541.739 348.642 542.164 347.735 542.334 346.545H547.774C547.32 349.832 546.244 352.325 544.544 354.025C542.844 355.668 540.719 356.49 538.169 356.49C537.092 356.49 536.129 356.32 535.279 355.98C534.429 355.583 533.494 355.045 532.474 354.365C531.454 353.742 530.66 353.317 530.094 353.09C529.584 352.807 528.989 352.665 528.309 352.665C527.345 352.665 526.524 352.977 525.844 353.6C525.22 354.223 524.824 355.13 524.654 356.32H519.214ZM562.939 384.37C562.939 379.667 563.902 375.502 565.829 371.875C567.812 368.248 570.476 365.443 573.819 363.46C577.219 361.42 580.959 360.4 585.039 360.4C588.722 360.4 591.924 361.137 594.644 362.61C597.421 364.027 599.631 365.812 601.274 367.965V361.165H611.049V408H601.274V401.03C599.631 403.24 597.392 405.082 594.559 406.555C591.726 408.028 588.496 408.765 584.869 408.765C580.846 408.765 577.162 407.745 573.819 405.705C570.476 403.608 567.812 400.718 565.829 397.035C563.902 393.295 562.939 389.073 562.939 384.37ZM601.274 384.54C601.274 381.31 600.594 378.505 599.234 376.125C597.931 373.745 596.202 371.932 594.049 370.685C591.896 369.438 589.572 368.815 587.079 368.815C584.586 368.815 582.262 369.438 580.109 370.685C577.956 371.875 576.199 373.66 574.839 376.04C573.536 378.363 572.884 381.14 572.884 384.37C572.884 387.6 573.536 390.433 574.839 392.87C576.199 395.307 577.956 397.177 580.109 398.48C582.319 399.727 584.642 400.35 587.079 400.35C589.572 400.35 591.896 399.727 594.049 398.48C596.202 397.233 597.931 395.42 599.234 393.04C600.594 390.603 601.274 387.77 601.274 384.54Z" fill="black"/>
<path d="M117 433H733V673.745V684.036V1049H117V992.613V968.925V433Z" fill="black"/>
<path d="M117 433H733V673.745C729.258 663.895 726.852 656.899 716.432 652.279C712.549 650.557 708.501 650.005 704.315 649.524C701.658 639.358 696.57 630.545 687.278 625.145C680.144 620.999 672.996 620.411 664.937 621.15C654.322 608.074 644.492 600.376 627.106 598.6C613.183 597.11 599.25 601.317 588.477 610.261C580.781 616.759 575.187 625.396 572.403 635.076C562.166 636.608 553.038 641.598 546.819 650.003C545.845 651.319 544.995 652.751 544.168 654.163C539.93 649.422 535.609 645.621 528.95 645.169C523.603 644.805 518.533 646.87 514.611 650.444C504.077 660.041 492.54 682.393 485.573 695.333C477.875 709.748 470.366 724.262 463.048 738.873L433.497 797.73C429.649 805.479 426.037 813.347 422.101 821.052C420.533 824.12 419.062 827.398 417.139 830.256C412.664 822.923 408.798 815.15 404.769 807.563C396.898 792.696 389.149 777.764 381.522 762.77C370.768 742.313 359.685 722.029 348.28 701.928C339.556 686.428 327.858 664.833 315.978 652.098C312.664 648.546 308.662 645.504 303.877 644.292C299.783 643.254 295.749 644.342 292.25 646.529C286.331 650.229 281.601 657.096 277.753 662.852C270.347 673.926 263.921 685.885 257.595 697.603C250.375 710.925 243.272 724.311 236.286 737.758C215.481 777.262 195.477 817.182 176.284 857.493C160.711 890.546 146.16 924.07 132.651 958.019C127.343 961.697 121.394 964.033 117 968.925V433Z" fill="#A3CC98"/>
<path d="M213.102 466.802C217.108 466.459 221.332 466.462 225.333 466.79C243.006 468.235 257.214 477.194 268.422 490.513C282.248 489.282 295.107 491.913 306.331 500.392C316.714 508.204 323.554 519.833 325.338 532.704C328.307 532.488 331.251 531.811 334.222 531.543C343.544 530.699 352.133 532.465 359.975 537.688C368.648 543.464 374.7 552.932 376.696 563.13C378.884 574.141 376.549 585.569 370.216 594.838C363.955 604.107 354.959 610.558 343.885 612.661C332.851 614.757 320.722 612.692 311.384 606.329C301.198 612.393 291.303 614.375 279.536 614.312C269.678 614.144 261.108 611.514 252.421 606.956C248.383 608.994 244.339 610.836 239.993 612.141C223.497 617.095 207.029 614.086 192.144 606.094C187.588 608.265 182.921 610.161 177.993 611.314C165.741 614.18 151.959 612.68 141.171 605.953C130.854 599.646 123.519 589.443 120.826 577.655C117.93 565.015 120.229 551.742 127.205 540.812C135.032 528.499 146.183 522.609 160.034 519.482C161.812 508.316 165.367 498.057 172.515 489.154C182.495 476.557 197.122 468.502 213.102 466.802Z" fill="black"/>
<path d="M211.344 477.914C228.331 476.487 244.179 480.153 255.706 493.708C257.684 496.033 259.891 500.427 262.786 501.536C265.755 502.674 270.142 501.014 273.308 500.95C278.169 500.846 283.012 501.582 287.623 503.126C301.496 507.833 310.979 519.145 314.094 533.335C314.864 536.841 314.636 541.471 316.36 544.656C318.401 548.427 329.969 542.563 333.391 542.048C337.834 541.379 342.663 541.628 346.942 543.04C353.991 545.366 360.238 550.809 363.555 557.441C367.288 564.901 367.838 573.556 365.08 581.429C362.367 589.305 356.753 596.138 349.195 599.785C340.551 603.957 329.784 603.689 321.074 599.798C317.951 598.404 315.131 596.251 311.881 595.161C311.771 595.125 311.66 595.092 311.55 595.057C308.864 595.872 306.206 597.494 303.666 598.715C297.123 601.86 290.768 603.602 283.52 603.941C275.771 604.01 268.507 603.009 261.368 599.79C258.441 598.471 255.648 596.849 252.639 595.717L252.264 595.581C248.685 596.798 245.377 598.876 241.811 600.213C228.34 605.264 214.925 605.091 201.685 599.237C198.878 597.996 195.118 595.06 192.04 595.157C189.321 595.244 186.055 597.7 183.446 598.63C180.094 599.862 176.644 600.808 173.132 601.456C163.446 603.174 152.955 601.744 144.791 595.92C137.188 590.482 132.062 582.241 130.548 573.017C128.864 563.117 131.219 552.955 137.088 544.806C141.993 538.032 149.491 532.516 157.711 530.608C160.068 530.061 162.511 530.01 164.894 529.619C166.237 529.4 168.357 529.103 169.185 527.945C171.261 525.041 170.924 517.725 171.815 513.978C173.199 508.16 175.935 502.182 179.483 497.364C187.164 486.978 198.595 480 211.344 477.914Z" fill="#6ED4D7"/>
<path d="M509.302 480.663C535.26 478.09 558.378 497.076 560.9 523.039C563.421 549.003 544.389 572.083 518.422 574.553C492.525 577.017 469.523 558.05 467.008 532.159C464.494 506.267 483.416 483.228 509.302 480.663Z" fill="black"/>
<path d="M510.779 491.092C530.974 489.373 548.749 504.325 550.514 524.516C552.28 544.706 537.369 562.516 517.183 564.327C496.931 566.145 479.05 551.175 477.279 530.919C475.508 510.663 490.519 492.817 510.779 491.092Z" fill="#FFBC04"/>
<path d="M427.306 625.025C431.142 624.717 435.316 625.228 438.879 626.724C447.175 630.207 451.2 636.974 454.384 644.938C459.244 645.598 463.195 646.827 466.806 650.265C470.721 653.992 472.611 658.818 472.664 664.181C472.72 669.778 470.969 675.058 466.982 679.079C460.203 685.916 450.998 685.375 442.087 685.368L427.557 685.344L413.051 685.377C404.578 685.387 395.972 685.878 389 680.196C384.902 676.815 382.305 671.952 381.775 666.665C381.26 661.363 382.832 655.781 386.289 651.696C390.98 646.154 396.792 644.748 403.733 644.142C405.087 640.462 406.874 637.073 409.411 634.062C414.231 628.341 419.952 625.657 427.306 625.025Z" fill="black"/>
<path d="M425.77 635.494C426.059 635.461 426.348 635.428 426.638 635.406C430.297 635.129 433.845 635.563 437.081 637.44C445.652 642.41 442.434 651.045 446.14 654.199C449.208 656.81 454.711 653.895 458.553 657.297C460.698 659.198 462.168 661.829 462.277 664.725C462.374 667.286 461.513 669.738 459.665 671.539C458.151 673.017 456.189 673.961 454.138 674.424C449 675.587 435.115 674.85 429.061 674.829L411.954 674.879C408.775 674.887 405.462 675.09 402.308 674.731C400.767 674.559 399.267 674.124 397.873 673.444C395.486 672.262 393.484 670.327 392.634 667.761C391.795 665.251 392.017 662.507 393.249 660.164C397.456 652.326 404.4 656.74 410.211 654.613C414.203 653.152 413.577 646.827 415.33 643.473C417.549 639.225 421.399 636.959 425.77 635.494Z" fill="#6ED4D7"/>
<path d="M681.289 708.862C683.685 709.752 686.02 710.697 688.499 711.351C697.978 713.851 708.654 713.042 717.202 708.025C726.455 702.594 730.437 694.017 733 684.036V1049H117V992.613C118.986 994.521 121.315 996.035 123.864 997.077C127.668 998.676 131.626 999.183 135.722 999.317C147.015 999.688 158.385 999.438 169.687 999.437L229.892 999.437L414.301 999.457L601.518 999.445L663.678 999.449C675.22 999.449 686.83 999.696 698.366 999.33C702.272 999.205 706.67 998.755 710.296 997.207C714.868 995.256 719.351 991.442 721.107 986.703C722.491 982.964 722.232 978.366 720.548 974.758C717.387 967.988 711.012 965.541 704.447 963.249C701.127 955.615 697.27 948.087 693.677 940.569L674.981 901.384C656.414 862.248 637.174 823.436 617.269 784.965C608.962 768.997 600.526 753.097 591.963 737.266C587.353 728.685 582.374 720.171 578.117 711.417C584.927 711.854 590.226 710.924 596.689 708.9C596.792 708.946 596.893 708.994 596.996 709.038C610.579 714.894 626.756 714.2 640.329 708.868C656.304 714.914 665.38 714.428 681.289 708.862Z" fill="#A3CC98"/>
<path d="M466.982 880.683C467.193 880.658 467.405 880.644 467.617 880.635C473.764 880.356 480.276 880.017 486.377 880.858C515.634 884.893 534.467 909.364 557.457 925.021C565.715 930.646 575.139 934.754 584.413 938.374C589.575 940.377 594.813 942.178 600.115 943.772C625.647 951.477 651.485 958.211 677.072 965.753C686.111 968.418 695.536 970.65 704.382 973.897C705.989 974.486 707.775 975.129 709.04 976.317C710.509 977.697 711.674 979.578 711.693 981.648C711.707 983.26 710.853 984.615 709.72 985.705C707.517 987.826 704.606 988.594 701.645 988.83C696.131 989.269 690.571 989.143 685.042 989.145L662.14 989.145L588.964 989.138L358.979 989.143L207.708 989.139L159.874 989.14C151.109 989.146 142.058 989.607 133.332 988.937C130.585 988.726 127.614 988.211 125.395 986.451C124.03 985.369 123.453 983.954 123.308 982.248C123.057 979.29 123.883 976.457 125.823 974.191C129.34 970.082 140.514 965.215 145.585 962.47C151.549 959.226 157.491 955.939 163.409 952.612C171.18 948.188 178.87 943.398 186.455 938.652C193.536 934.221 200.052 929.528 207.982 926.645C212.947 924.839 218.514 923.569 223.821 923.636C232.217 923.741 240.318 926.315 248.431 928.191C263.887 931.767 286.124 935.54 301.677 931.625C316.645 927.858 338.444 910.523 353.09 902.587C375.898 890.23 397.078 889.166 422.177 885.947C437.079 884.036 452.013 881.985 466.982 880.683Z" fill="#528833"/>
<path d="M367.469 759.549C369.252 761.094 381.43 785.416 383.734 789.743C392.997 807.14 402.175 824.663 411.841 841.837C408.939 848.372 405.542 854.758 402.421 861.201C399.483 867.265 396.752 873.629 393.415 879.471C367.153 881.827 346.958 893.847 325.368 907.913C316.596 913.628 307.216 920.413 296.754 922.411C284.395 924.771 266.932 922.16 254.792 919.438C239.131 915.928 225.51 910.844 209.23 915.615C197.675 919.001 187.959 925.771 177.907 932.128C171.471 936.194 164.973 940.161 158.415 944.028C155.007 946.028 150.406 949.332 146.734 950.364L146.341 950.14L146.495 949.312C158.046 919.535 171.896 890.597 185.301 861.627C194.636 841.442 204.234 821.378 214.091 801.442C219.851 789.925 225.576 778.393 232.015 767.235C234.129 769.832 235.944 772.745 237.867 775.49C242.069 781.486 246.57 787.931 251.524 793.317C253.387 795.343 256.156 797.985 259.067 797.996C260.783 798.002 262.512 797.213 263.933 796.315C266.761 794.529 269.322 791.976 271.877 789.796C278.94 783.769 285.823 777.533 292.516 771.097C297.141 776.53 301.839 781.889 306.909 786.915C311.519 791.484 317.698 797.282 324.682 797.102C327.34 797.034 329.778 796.06 331.996 794.651C339.082 790.151 345.795 782.409 351.565 776.329C356.898 770.766 362.2 765.172 367.469 759.549Z" fill="#BA6B45"/>
<path d="M233.175 826.421C233.988 826.371 234.823 826.293 235.61 826.549C236.653 826.89 237.604 827.609 238.1 828.599C239.074 830.548 238.651 832.505 237.951 834.455C236.184 839.371 233.389 844.256 231.121 848.972C228.763 853.875 224.8 863.616 221.527 867.696C220.642 868.799 219.578 869.437 218.318 870.033C217.722 870.01 217.102 869.994 216.516 869.879C215.358 869.654 214.142 868.987 213.472 867.996C212.713 866.873 212.794 865.778 213.084 864.518C214.386 858.856 218.548 852.352 221.124 847.046C223.903 841.323 226.405 834.82 229.919 829.53C230.843 828.138 231.769 827.319 233.175 826.421Z" fill="black"/>
<path d="M461.962 762.806C462.873 763.241 480.686 791.689 484.241 795.712C485.812 797.49 487.911 799.259 490.405 799.326C491.914 799.367 493.126 798.754 494.347 797.928C499.329 794.555 503.488 789.718 507.842 785.577C513.726 779.982 519.804 774.596 525.664 768.975C532.05 776.528 538.398 784.316 545.455 791.255C547.934 793.692 553.64 799.29 557.422 799.062C559.362 798.944 561.331 797.691 562.852 796.551C566.542 793.784 569.759 790.172 572.993 786.885C580.319 779.382 587.475 771.713 594.453 763.887C598.756 769.81 602.015 777.136 605.381 783.639C612.184 796.765 618.835 809.969 625.332 823.249C647.943 867.744 669.848 912.593 691.04 957.781C691.321 958.331 691.41 958.382 691.39 959.03C689.651 959.194 659.799 950.041 655.942 948.937C634.536 942.812 612.636 937.664 591.622 930.278C583.29 927.35 574.992 923.82 567.304 919.454C560.777 915.747 554.844 910.643 549.117 905.824C541.355 899.294 533.729 892.636 525.386 886.842C495.662 866.201 474.955 869.009 441.319 873.175C429.472 874.643 417.264 875.667 405.526 877.77C412.835 863.158 419.725 848.327 426.847 833.622C438.392 809.938 450.097 786.331 461.962 762.806Z" fill="#BA6B45"/>
<path d="M472.262 813.523C472.96 813.473 473.719 813.388 474.409 813.529C475.446 813.741 476.525 814.418 477.088 815.322C477.859 816.559 477.936 818.189 477.6 819.573C476.412 824.476 463.468 851.42 460.626 855.766C459.693 857.194 458.813 858.048 457.379 858.974C456.665 859.028 455.978 859.061 455.277 858.88C454.092 858.581 453.082 857.807 452.487 856.739C451.774 855.474 451.583 853.653 451.968 852.256C452.733 849.474 467.265 818.798 469.005 816.252C469.883 814.968 470.934 814.296 472.262 813.523Z" fill="black"/>
<path d="M619.091 608.475C622.163 608.139 625.507 608.634 628.517 609.253C638.102 611.223 646.792 615.438 653.063 623.137C654.939 625.44 656.955 630.15 659.624 631.538C661.644 632.589 667.636 631.236 670.126 631.267C672.71 631.297 675.272 631.733 677.721 632.556C685.69 635.182 691.712 641.775 693.606 649.95C694.25 652.625 694.313 655.926 695.639 658.368C697.157 661.162 705.885 659.734 709.645 660.799C714.107 662.062 718.271 665.802 720.433 669.859C723.134 674.928 723.357 680.787 721.697 686.228C719.97 691.966 715.997 696.762 710.683 699.533C703.741 703.121 696.267 702.746 689.059 700.262C686.571 699.405 684.193 698.279 681.682 697.482L681.323 697.371C678.876 697.997 676.498 699.192 674.128 700.085C667.31 702.652 661.609 703.142 654.427 702.149C649.578 701.165 645.301 699.512 640.713 697.702C637.69 698.578 634.798 699.886 631.754 700.718C618.342 704.384 609.094 702.355 596.443 697.713C589.99 699.851 583.029 702.407 576.173 700.506C574.176 699.952 572.39 698.953 570.988 697.414C567.968 694.098 564.787 687.157 562.447 683.107C558.689 676.607 554.713 670.229 551.013 663.698C553.725 655.226 561.866 647.944 570.532 646.001C573.118 645.421 577.956 645.808 579.926 644.08C582.43 641.882 582.608 636.384 583.868 633.331C585.307 629.821 587.267 626.548 589.68 623.621C597.029 614.715 607.682 609.509 619.091 608.475Z" fill="#6ED4D7"/>
<path d="M299.68 654.369C300.232 654.387 300.744 654.446 301.273 654.608C304.892 655.714 308.28 659.55 310.613 662.375C318.785 672.273 325.192 683.739 331.668 694.782C342.267 713.2 352.648 731.744 362.807 750.408C359.46 754.107 355.878 757.619 352.458 761.255C345.965 768.16 332.842 783.753 324.333 786.875C315.465 784.291 304.578 768.215 297.66 761.543C296.377 760.53 295.042 759.298 293.346 759.139C292.157 759.028 291.107 759.355 290.123 760.009C286.309 762.542 282.977 766.364 279.59 769.448C272.956 775.448 266.281 781.403 259.566 787.311C251.101 778.07 243.95 767.48 237.17 756.978C238.955 753.051 241.211 749.208 243.237 745.396L254.618 724.027C261.094 711.868 267.632 699.797 274.499 687.855C279.358 679.403 284.232 670.837 290.167 663.078C292.752 659.698 295.663 656.034 299.68 654.369Z" fill="#F1F0F0"/>
<path d="M525.635 655.896C526.814 655.799 527.96 655.845 529.103 656.171C532.765 657.216 535.738 661.075 537.959 663.992C544.4 672.451 549.552 682.188 554.877 691.379C566.975 712.261 578.298 733.642 589.805 754.854C578.993 766.072 568.646 777.595 557.479 788.487C552.185 784.199 547.247 779.286 542.77 774.156C538.649 769.434 534.742 764.413 530.199 760.092C528.872 759.025 527.486 758.03 525.71 758.04C523.832 758.052 522.124 759.243 520.659 760.308C517.112 762.888 513.946 766.341 510.727 769.331C504.028 775.555 497.226 781.659 491.021 788.387C482.425 776.799 475.106 764.341 467.363 752.184C472.386 741.631 478.102 731.305 483.484 720.926C489.454 709.25 495.702 697.717 502.221 686.34C507.197 677.687 512.429 668.49 519.052 660.976C521.018 658.746 522.952 657.188 525.635 655.896Z" fill="#F1F0F0"/>
<mask id="path-27-outside-2_97_5" maskUnits="userSpaceOnUse" x="418" y="1007" width="24" height="31" fill="black">
<rect fill="white" x="418" y="1007" width="24" height="31"/>
<path d="M418.84 1030.92V1027.48L432.28 1008.2H437.8V1026.96H441.52V1030.92H437.8V1037H433.32V1030.92H418.84ZM433.52 1012.84L424.08 1026.96H433.52V1012.84Z"/>
</mask>
<path d="M418.84 1030.92V1027.48L432.28 1008.2H437.8V1026.96H441.52V1030.92H437.8V1037H433.32V1030.92H418.84ZM433.52 1012.84L424.08 1026.96H433.52V1012.84Z" fill="black"/>
<path d="M418.84 1030.92H418.54V1031.22H418.84V1030.92ZM418.84 1027.48L418.594 1027.31L418.54 1027.39V1027.48H418.84ZM432.28 1008.2V1007.9H432.123L432.034 1008.03L432.28 1008.2ZM437.8 1008.2H438.1V1007.9H437.8V1008.2ZM437.8 1026.96H437.5V1027.26H437.8V1026.96ZM441.52 1026.96H441.82V1026.66H441.52V1026.96ZM441.52 1030.92V1031.22H441.82V1030.92H441.52ZM437.8 1030.92V1030.62H437.5V1030.92H437.8ZM437.8 1037V1037.3H438.1V1037H437.8ZM433.32 1037H433.02V1037.3H433.32V1037ZM433.32 1030.92H433.62V1030.62H433.32V1030.92ZM433.52 1012.84H433.82V1011.85L433.271 1012.67L433.52 1012.84ZM424.08 1026.96L423.831 1026.79L423.519 1027.26H424.08V1026.96ZM433.52 1026.96V1027.26H433.82V1026.96H433.52ZM418.84 1030.92H419.14V1027.48H418.84H418.54V1030.92H418.84ZM418.84 1027.48L419.086 1027.65L432.526 1008.37L432.28 1008.2L432.034 1008.03L418.594 1027.31L418.84 1027.48ZM432.28 1008.2V1008.5H437.8V1008.2V1007.9H432.28V1008.2ZM437.8 1008.2H437.5V1026.96H437.8H438.1V1008.2H437.8ZM437.8 1026.96V1027.26H441.52V1026.96V1026.66H437.8V1026.96ZM441.52 1026.96H441.22V1030.92H441.52H441.82V1026.96H441.52ZM441.52 1030.92V1030.62H437.8V1030.92V1031.22H441.52V1030.92ZM437.8 1030.92H437.5V1037H437.8H438.1V1030.92H437.8ZM437.8 1037V1036.7H433.32V1037V1037.3H437.8V1037ZM433.32 1037H433.62V1030.92H433.32H433.02V1037H433.32ZM433.32 1030.92V1030.62H418.84V1030.92V1031.22H433.32V1030.92ZM433.52 1012.84L433.271 1012.67L423.831 1026.79L424.08 1026.96L424.329 1027.13L433.769 1013.01L433.52 1012.84ZM424.08 1026.96V1027.26H433.52V1026.96V1026.66H424.08V1026.96ZM433.52 1026.96H433.82V1012.84H433.52H433.22V1026.96H433.52Z" fill="black" mask="url(#path-27-outside-2_97_5)"/>
<path d="M252.295 197.975V272H231.715V231.155L217.75 272H200.53L186.46 230.84V272H165.88V197.975H190.765L209.35 246.065L227.515 197.975H252.295ZM291.415 272.735C285.535 272.735 280.25 271.51 275.56 269.06C270.94 266.61 267.3 263.11 264.64 258.56C261.98 254.01 260.65 248.655 260.65 242.495C260.65 236.405 261.98 231.085 264.64 226.535C267.37 221.985 271.045 218.485 275.665 216.035C280.355 213.585 285.64 212.36 291.52 212.36C297.4 212.36 302.65 213.585 307.27 216.035C311.96 218.485 315.635 221.985 318.295 226.535C321.025 231.085 322.39 236.405 322.39 242.495C322.39 248.585 321.025 253.94 318.295 258.56C315.635 263.11 311.96 266.61 307.27 269.06C302.58 271.51 297.295 272.735 291.415 272.735ZM291.415 254.885C294.285 254.885 296.665 253.835 298.555 251.735C300.515 249.565 301.495 246.485 301.495 242.495C301.495 238.505 300.515 235.46 298.555 233.36C296.665 231.26 294.32 230.21 291.52 230.21C288.72 230.21 286.375 231.26 284.485 233.36C282.595 235.46 281.65 238.505 281.65 242.495C281.65 246.555 282.56 249.635 284.38 251.735C286.2 253.835 288.545 254.885 291.415 254.885ZM391.033 213.095V272H370.348V263.6C368.598 266.26 366.183 268.43 363.103 270.11C360.023 271.72 356.488 272.525 352.498 272.525C345.638 272.525 340.213 270.285 336.223 265.805C332.303 261.255 330.343 255.095 330.343 247.325V213.095H350.818V244.7C350.818 248.06 351.693 250.72 353.443 252.68C355.263 254.57 357.643 255.515 360.583 255.515C363.593 255.515 365.973 254.57 367.723 252.68C369.473 250.72 370.348 248.06 370.348 244.7V213.095H391.033ZM441.28 212.57C448.07 212.57 453.46 214.845 457.45 219.395C461.44 223.875 463.435 229.965 463.435 237.665V272H442.855V240.395C442.855 237.035 441.98 234.41 440.23 232.52C438.48 230.56 436.135 229.58 433.195 229.58C430.115 229.58 427.7 230.56 425.95 232.52C424.2 234.41 423.325 237.035 423.325 240.395V272H402.745V213.095H423.325V221.495C425.145 218.835 427.595 216.7 430.675 215.09C433.755 213.41 437.29 212.57 441.28 212.57ZM509.483 254.465V272H500.558C485.508 272 477.983 264.545 477.983 249.635V230.21H470.738V213.095H477.983V198.815H498.668V213.095H509.378V230.21H498.668V249.95C498.668 251.56 499.018 252.715 499.718 253.415C500.488 254.115 501.748 254.465 503.498 254.465H509.483ZM515.562 242.495C515.562 236.405 516.647 231.085 518.817 226.535C521.057 221.985 524.067 218.485 527.847 216.035C531.697 213.585 535.967 212.36 540.657 212.36C544.717 212.36 548.217 213.165 551.157 214.775C554.097 216.385 556.372 218.555 557.982 221.285V213.095H578.562V272H557.982V263.81C556.372 266.54 554.062 268.71 551.052 270.32C548.112 271.93 544.647 272.735 540.657 272.735C535.967 272.735 531.697 271.51 527.847 269.06C524.067 266.61 521.057 263.11 518.817 258.56C516.647 253.94 515.562 248.585 515.562 242.495ZM557.982 242.495C557.982 238.715 556.932 235.74 554.832 233.57C552.802 231.4 550.282 230.315 547.272 230.315C544.192 230.315 541.637 231.4 539.607 233.57C537.577 235.67 536.562 238.645 536.562 242.495C536.562 246.275 537.577 249.285 539.607 251.525C541.637 253.695 544.192 254.78 547.272 254.78C550.282 254.78 552.802 253.695 554.832 251.525C556.932 249.355 557.982 246.345 557.982 242.495ZM600.684 207.635C597.044 207.635 594.104 206.655 591.864 204.695C589.694 202.665 588.609 200.145 588.609 197.135C588.609 194.055 589.694 191.5 591.864 189.47C594.104 187.44 597.044 186.425 600.684 186.425C604.254 186.425 607.124 187.44 609.294 189.47C611.534 191.5 612.654 194.055 612.654 197.135C612.654 200.145 611.534 202.665 609.294 204.695C607.124 206.655 604.254 207.635 600.684 207.635ZM610.869 213.095V272H590.289V213.095H610.869ZM661.124 212.57C667.914 212.57 673.304 214.845 677.294 219.395C681.284 223.875 683.279 229.965 683.279 237.665V272H662.699V240.395C662.699 237.035 661.824 234.41 660.074 232.52C658.324 230.56 655.979 229.58 653.039 229.58C649.959 229.58 647.544 230.56 645.794 232.52C644.044 234.41 643.169 237.035 643.169 240.395V272H622.589V213.095H643.169V221.495C644.989 218.835 647.439 216.7 650.519 215.09C653.599 213.41 657.134 212.57 661.124 212.57Z" fill="black"/>
</svg>
