<svg width="849" height="1183" viewBox="0 0 849 1183" fill="none" xmlns="http://www.w3.org/2000/svg">
<rect x="5" y="5" width="839" height="1173" rx="45" fill="white"/>
<rect x="5" y="5" width="839" height="1173" rx="45" stroke="black" stroke-width="10"/>
<circle cx="786.5" cy="1124.5" r="11.5" fill="black"/>
<circle cx="786.5" cy="59.5" r="11.5" fill="black"/>
<path d="M77 1124.5C77 1130.85 71.8513 1136 65.5 1136C59.1487 1136 54 1130.85 54 1124.5C54 1118.15 59.1487 1113 65.5 1113C71.8513 1113 77 1118.15 77 1124.5Z" fill="black"/>
<path d="M77 59.5C77 65.8513 71.8513 71 65.5 71C59.1487 71 54 65.8513 54 59.5C54 53.1487 59.1487 48 65.5 48C71.8513 48 77 53.1487 77 59.5Z" fill="black"/>
<mask id="path-6-inside-1_97_14" fill="white">
<path d="M708 48C713.523 48 717.934 52.4996 718.616 57.9801C723.122 94.1833 751.817 122.878 788.02 127.384C793.5 128.066 798 132.477 798 138V1046C798 1051.52 793.5 1055.93 788.02 1056.62C751.817 1061.12 723.122 1089.82 718.616 1126.02C717.934 1131.5 713.523 1136 708 1136H141C135.477 1136 131.066 1131.5 130.384 1126.02C125.878 1089.82 97.1833 1061.12 60.9801 1056.62C55.4996 1055.93 51 1051.52 51 1046V138C51 132.477 55.4996 128.066 60.9801 127.384C97.1833 122.878 125.878 94.1833 130.384 57.9801C131.066 52.4996 135.477 48 141 48H708Z"/>
</mask>
<path d="M708 48C713.523 48 717.934 52.4996 718.616 57.9801C723.122 94.1833 751.817 122.878 788.02 127.384C793.5 128.066 798 132.477 798 138V1046C798 1051.52 793.5 1055.93 788.02 1056.62C751.817 1061.12 723.122 1089.82 718.616 1126.02C717.934 1131.5 713.523 1136 708 1136H141C135.477 1136 131.066 1131.5 130.384 1126.02C125.878 1089.82 97.1833 1061.12 60.9801 1056.62C55.4996 1055.93 51 1051.52 51 1046V138C51 132.477 55.4996 128.066 60.9801 127.384C97.1833 122.878 125.878 94.1833 130.384 57.9801C131.066 52.4996 135.477 48 141 48H708Z" fill="#DBEE71"/>
<path d="M130.384 1126.02L138.322 1125.03L130.384 1126.02ZM718.616 1126.02L710.678 1125.03L718.616 1126.02ZM788.02 1056.62L789.008 1064.56L788.02 1056.62ZM718.616 57.9801L726.555 56.9922L718.616 57.9801ZM718.616 57.9801L710.678 58.9681C715.635 98.8063 747.194 130.365 787.032 135.322L788.02 127.384L789.008 119.445C756.44 115.392 730.608 89.5603 726.555 56.9922L718.616 57.9801ZM798 138H790V1046H798H806V138H798ZM788.02 1056.62L787.032 1048.68C747.194 1053.64 715.635 1085.19 710.678 1125.03L718.616 1126.02L726.555 1127.01C730.608 1094.44 756.44 1068.61 789.008 1064.56L788.02 1056.62ZM708 1136V1128H141V1136V1144H708V1136ZM130.384 1126.02L138.322 1125.03C133.365 1085.19 101.806 1053.64 61.9681 1048.68L60.9801 1056.62L59.9922 1064.56C92.5603 1068.61 118.392 1094.44 122.445 1127.01L130.384 1126.02ZM51 1046H59V138H51H43V1046H51ZM60.9801 127.384L61.9681 135.322C101.806 130.365 133.365 98.8063 138.322 58.9681L130.384 57.9801L122.445 56.9922C118.392 89.5603 92.5603 115.392 59.9922 119.445L60.9801 127.384ZM141 48V56H708V48V40H141V48ZM130.384 57.9801L138.322 58.9681C138.438 58.0389 138.872 57.2306 139.427 56.6958C139.954 56.1887 140.494 56 141 56V48V40C130.84 40 123.547 48.1329 122.445 56.9922L130.384 57.9801ZM51 138H59C59 137.494 59.1887 136.954 59.6958 136.427C60.2306 135.872 61.0389 135.438 61.9681 135.322L60.9801 127.384L59.9922 119.445C51.1329 120.547 43 127.84 43 138H51ZM60.9801 1056.62L61.9681 1048.68C61.0389 1048.56 60.2306 1048.13 59.6958 1047.57C59.1887 1047.05 59 1046.51 59 1046H51H43C43 1056.16 51.1329 1063.45 59.9922 1064.56L60.9801 1056.62ZM141 1136V1128C140.494 1128 139.954 1127.81 139.427 1127.3C138.872 1126.77 138.438 1125.96 138.322 1125.03L130.384 1126.02L122.445 1127.01C123.547 1135.87 130.84 1144 141 1144V1136ZM718.616 1126.02L710.678 1125.03C710.562 1125.96 710.128 1126.77 709.573 1127.3C709.046 1127.81 708.506 1128 708 1128V1136V1144C718.16 1144 725.453 1135.87 726.555 1127.01L718.616 1126.02ZM798 1046H790C790 1046.51 789.811 1047.05 789.304 1047.57C788.769 1048.13 787.961 1048.56 787.032 1048.68L788.02 1056.62L789.008 1064.56C797.867 1063.45 806 1056.16 806 1046H798ZM788.02 127.384L787.032 135.322C787.961 135.438 788.769 135.872 789.304 136.427C789.811 136.954 790 137.494 790 138H798H806C806 127.84 797.867 120.547 789.008 119.445L788.02 127.384ZM718.616 57.9801L726.555 56.9922C725.453 48.1329 718.16 40 708 40V48V56C708.506 56 709.046 56.1887 709.573 56.6958C710.128 57.2306 710.562 58.0389 710.678 58.9681L718.616 57.9801Z" fill="black" mask="url(#path-6-inside-1_97_14)"/>
<path d="M690 102C695.523 102 699.911 106.512 700.837 111.957C705.019 136.563 724.437 155.981 749.043 160.163C754.488 161.089 759 165.477 759 171V1014C759 1019.52 754.488 1023.91 749.043 1024.84C724.711 1028.97 705.454 1048 700.984 1072.22C699.993 1077.59 695.633 1082 690.175 1082H158.825C153.367 1082 149.007 1077.59 148.016 1072.22C143.546 1048 124.288 1028.97 99.9568 1024.84C94.5121 1023.91 90 1019.52 90 1014V171C90 165.477 94.512 161.089 99.9568 160.163C124.563 155.981 143.981 136.563 148.163 111.957C149.089 106.512 153.477 102 159 102H690Z" fill="#DFE4C2"/>
<path d="M307.685 366.52C307.685 369.523 306.977 372.357 305.56 375.02C304.143 377.683 301.877 379.865 298.76 381.565C295.643 383.208 291.648 384.03 286.775 384.03H276.065V408H266.375V348.925H286.775C291.308 348.925 295.133 349.718 298.25 351.305C301.423 352.835 303.775 354.932 305.305 357.595C306.892 360.258 307.685 363.233 307.685 366.52ZM286.775 376.125C290.458 376.125 293.207 375.303 295.02 373.66C296.833 371.96 297.74 369.58 297.74 366.52C297.74 360.06 294.085 356.83 286.775 356.83H276.065V376.125H286.775ZM326.617 345.1V408H316.927V345.1H326.617ZM336.109 384.37C336.109 379.667 337.072 375.502 338.999 371.875C340.982 368.248 343.646 365.443 346.989 363.46C350.389 361.42 354.129 360.4 358.209 360.4C361.892 360.4 365.094 361.137 367.814 362.61C370.591 364.027 372.801 365.812 374.444 367.965V361.165H384.219V408H374.444V401.03C372.801 403.24 370.562 405.082 367.729 406.555C364.896 408.028 361.666 408.765 358.039 408.765C354.016 408.765 350.332 407.745 346.989 405.705C343.646 403.608 340.982 400.718 338.999 397.035C337.072 393.295 336.109 389.073 336.109 384.37ZM374.444 384.54C374.444 381.31 373.764 378.505 372.404 376.125C371.101 373.745 369.372 371.932 367.219 370.685C365.066 369.438 362.742 368.815 360.249 368.815C357.756 368.815 355.432 369.438 353.279 370.685C351.126 371.875 349.369 373.66 348.009 376.04C346.706 378.363 346.054 381.14 346.054 384.37C346.054 387.6 346.706 390.433 348.009 392.87C349.369 395.307 351.126 397.177 353.279 398.48C355.489 399.727 357.812 400.35 360.249 400.35C362.742 400.35 365.066 399.727 367.219 398.48C369.372 397.233 371.101 395.42 372.404 393.04C373.764 390.603 374.444 387.77 374.444 384.54ZM370.534 348.585L351.749 357.85V350.71L370.534 340.34V348.585ZM408.251 369.07V394.995C408.251 396.752 408.648 398.027 409.441 398.82C410.291 399.557 411.708 399.925 413.691 399.925H419.641V408H411.991C407.628 408 404.285 406.98 401.961 404.94C399.638 402.9 398.476 399.585 398.476 394.995V369.07H392.951V361.165H398.476V349.52H408.251V361.165H419.641V369.07H408.251ZM425.342 384.37C425.342 379.667 426.306 375.502 428.232 371.875C430.216 368.248 432.879 365.443 436.222 363.46C439.622 361.42 443.362 360.4 447.442 360.4C451.126 360.4 454.327 361.137 457.047 362.61C459.824 364.027 462.034 365.812 463.677 367.965V361.165H473.452V408H463.677V401.03C462.034 403.24 459.796 405.082 456.962 406.555C454.129 408.028 450.899 408.765 447.272 408.765C443.249 408.765 439.566 407.745 436.222 405.705C432.879 403.608 430.216 400.718 428.232 397.035C426.306 393.295 425.342 389.073 425.342 384.37ZM463.677 384.54C463.677 381.31 462.997 378.505 461.637 376.125C460.334 373.745 458.606 371.932 456.452 370.685C454.299 369.438 451.976 368.815 449.482 368.815C446.989 368.815 444.666 369.438 442.512 370.685C440.359 371.875 438.602 373.66 437.242 376.04C435.939 378.363 435.287 381.14 435.287 384.37C435.287 387.6 435.939 390.433 437.242 392.87C438.602 395.307 440.359 397.177 442.512 398.48C444.722 399.727 447.046 400.35 449.482 400.35C451.976 400.35 454.299 399.727 456.452 398.48C458.606 397.233 460.334 395.42 461.637 393.04C462.997 390.603 463.677 387.77 463.677 384.54ZM509.81 360.4C513.493 360.4 516.78 361.165 519.67 362.695C522.616 364.225 524.911 366.492 526.555 369.495C528.198 372.498 529.02 376.125 529.02 380.375V408H519.415V381.82C519.415 377.627 518.366 374.425 516.27 372.215C514.173 369.948 511.311 368.815 507.685 368.815C504.058 368.815 501.168 369.948 499.015 372.215C496.918 374.425 495.87 377.627 495.87 381.82V408H486.18V361.165H495.87V366.52C497.456 364.593 499.468 363.092 501.905 362.015C504.398 360.938 507.033 360.4 509.81 360.4ZM561.695 408.765C557.275 408.765 553.28 407.773 549.71 405.79C546.14 403.75 543.335 400.917 541.295 397.29C539.255 393.607 538.235 389.357 538.235 384.54C538.235 379.78 539.283 375.558 541.38 371.875C543.477 368.192 546.338 365.358 549.965 363.375C553.592 361.392 557.643 360.4 562.12 360.4C566.597 360.4 570.648 361.392 574.275 363.375C577.902 365.358 580.763 368.192 582.86 371.875C584.957 375.558 586.005 379.78 586.005 384.54C586.005 389.3 584.928 393.522 582.775 397.205C580.622 400.888 577.675 403.75 573.935 405.79C570.252 407.773 566.172 408.765 561.695 408.765ZM561.695 400.35C564.188 400.35 566.512 399.755 568.665 398.565C570.875 397.375 572.66 395.59 574.02 393.21C575.38 390.83 576.06 387.94 576.06 384.54C576.06 381.14 575.408 378.278 574.105 375.955C572.802 373.575 571.073 371.79 568.92 370.6C566.767 369.41 564.443 368.815 561.95 368.815C559.457 368.815 557.133 369.41 554.98 370.6C552.883 371.79 551.212 373.575 549.965 375.955C548.718 378.278 548.095 381.14 548.095 384.54C548.095 389.583 549.37 393.493 551.92 396.27C554.527 398.99 557.785 400.35 561.695 400.35Z" fill="black"/>
<mask id="path-10-outside-2_97_14" maskUnits="userSpaceOnUse" x="407" y="1006" width="35" height="32" fill="black">
<rect fill="white" x="407" y="1006" width="35" height="32"/>
<path d="M407.8 1012V1007.84H416.12V1037H411.52V1012H407.8ZM422.304 1015.04C422.464 1012.56 423.411 1010.63 425.144 1009.24C426.904 1007.85 429.144 1007.16 431.864 1007.16C433.731 1007.16 435.344 1007.49 436.704 1008.16C438.064 1008.83 439.091 1009.73 439.784 1010.88C440.478 1012.03 440.824 1013.32 440.824 1014.76C440.824 1016.41 440.384 1017.83 439.504 1019C438.624 1020.17 437.571 1020.96 436.344 1021.36V1021.52C437.918 1022 439.144 1022.88 440.024 1024.16C440.904 1025.41 441.344 1027.03 441.344 1029C441.344 1030.57 440.984 1031.97 440.264 1033.2C439.544 1034.43 438.478 1035.4 437.064 1036.12C435.651 1036.81 433.958 1037.16 431.984 1037.16C429.104 1037.16 426.731 1036.43 424.864 1034.96C423.024 1033.47 422.038 1031.33 421.904 1028.56H426.304C426.411 1029.97 426.958 1031.13 427.944 1032.04C428.931 1032.92 430.264 1033.36 431.944 1033.36C433.571 1033.36 434.824 1032.92 435.704 1032.04C436.584 1031.13 437.024 1029.97 437.024 1028.56C437.024 1026.69 436.424 1025.37 435.224 1024.6C434.051 1023.8 432.238 1023.4 429.784 1023.4H428.744V1019.64H429.824C431.984 1019.61 433.624 1019.25 434.744 1018.56C435.891 1017.87 436.464 1016.77 436.464 1015.28C436.464 1014 436.051 1012.99 435.224 1012.24C434.398 1011.47 433.224 1011.08 431.704 1011.08C430.211 1011.08 429.051 1011.47 428.224 1012.24C427.398 1012.99 426.904 1013.92 426.744 1015.04H422.304Z"/>
</mask>
<path d="M407.8 1012V1007.84H416.12V1037H411.52V1012H407.8ZM422.304 1015.04C422.464 1012.56 423.411 1010.63 425.144 1009.24C426.904 1007.85 429.144 1007.16 431.864 1007.16C433.731 1007.16 435.344 1007.49 436.704 1008.16C438.064 1008.83 439.091 1009.73 439.784 1010.88C440.478 1012.03 440.824 1013.32 440.824 1014.76C440.824 1016.41 440.384 1017.83 439.504 1019C438.624 1020.17 437.571 1020.96 436.344 1021.36V1021.52C437.918 1022 439.144 1022.88 440.024 1024.16C440.904 1025.41 441.344 1027.03 441.344 1029C441.344 1030.57 440.984 1031.97 440.264 1033.2C439.544 1034.43 438.478 1035.4 437.064 1036.12C435.651 1036.81 433.958 1037.16 431.984 1037.16C429.104 1037.16 426.731 1036.43 424.864 1034.96C423.024 1033.47 422.038 1031.33 421.904 1028.56H426.304C426.411 1029.97 426.958 1031.13 427.944 1032.04C428.931 1032.92 430.264 1033.36 431.944 1033.36C433.571 1033.36 434.824 1032.92 435.704 1032.04C436.584 1031.13 437.024 1029.97 437.024 1028.56C437.024 1026.69 436.424 1025.37 435.224 1024.6C434.051 1023.8 432.238 1023.4 429.784 1023.4H428.744V1019.64H429.824C431.984 1019.61 433.624 1019.25 434.744 1018.56C435.891 1017.87 436.464 1016.77 436.464 1015.28C436.464 1014 436.051 1012.99 435.224 1012.24C434.398 1011.47 433.224 1011.08 431.704 1011.08C430.211 1011.08 429.051 1011.47 428.224 1012.24C427.398 1012.99 426.904 1013.92 426.744 1015.04H422.304Z" fill="black"/>
<path d="M407.8 1012H407.5V1012.3H407.8V1012ZM407.8 1007.84V1007.54H407.5V1007.84H407.8ZM416.12 1007.84H416.42V1007.54H416.12V1007.84ZM416.12 1037V1037.3H416.42V1037H416.12ZM411.52 1037H411.22V1037.3H411.52V1037ZM411.52 1012H411.82V1011.7H411.52V1012ZM407.8 1012H408.1V1007.84H407.8H407.5V1012H407.8ZM407.8 1007.84V1008.14H416.12V1007.84V1007.54H407.8V1007.84ZM416.12 1007.84H415.82V1037H416.12H416.42V1007.84H416.12ZM416.12 1037V1036.7H411.52V1037V1037.3H416.12V1037ZM411.52 1037H411.82V1012H411.52H411.22V1037H411.52ZM411.52 1012V1011.7H407.8V1012V1012.3H411.52V1012ZM422.304 1015.04L422.005 1015.02L421.984 1015.34H422.304V1015.04ZM425.144 1009.24L424.959 1009L424.957 1009.01L425.144 1009.24ZM436.704 1008.16L436.572 1008.43L436.704 1008.16ZM439.784 1010.88L440.041 1010.72L439.784 1010.88ZM439.504 1019L439.744 1019.18V1019.18L439.504 1019ZM436.344 1021.36L436.251 1021.07L436.044 1021.14V1021.36H436.344ZM436.344 1021.52H436.044V1021.74L436.257 1021.81L436.344 1021.52ZM440.024 1024.16L439.777 1024.33L439.779 1024.33L440.024 1024.16ZM440.264 1033.2L440.006 1033.05L440.264 1033.2ZM437.064 1036.12L437.197 1036.39L437.201 1036.39L437.064 1036.12ZM424.864 1034.96L424.675 1035.19L424.679 1035.2L424.864 1034.96ZM421.904 1028.56V1028.26H421.59L421.605 1028.57L421.904 1028.56ZM426.304 1028.56L426.604 1028.54L426.583 1028.26H426.304V1028.56ZM427.944 1032.04L427.741 1032.26L427.745 1032.26L427.944 1032.04ZM435.704 1032.04L435.917 1032.25L435.92 1032.25L435.704 1032.04ZM435.224 1024.6L435.055 1024.85L435.062 1024.85L435.224 1024.6ZM428.744 1023.4H428.444V1023.7H428.744V1023.4ZM428.744 1019.64V1019.34H428.444V1019.64H428.744ZM429.824 1019.64V1019.94L429.828 1019.94L429.824 1019.64ZM434.744 1018.56L434.589 1018.3L434.586 1018.3L434.744 1018.56ZM435.224 1012.24L435.019 1012.46L435.023 1012.46L435.224 1012.24ZM428.224 1012.24L428.425 1012.46L428.429 1012.46L428.224 1012.24ZM426.744 1015.04V1015.34H427.005L427.041 1015.08L426.744 1015.04ZM422.304 1015.04L422.604 1015.06C422.759 1012.65 423.673 1010.8 425.332 1009.47L425.144 1009.24L424.957 1009.01C423.149 1010.45 422.17 1012.47 422.005 1015.02L422.304 1015.04ZM425.144 1009.24L425.33 1009.48C427.027 1008.14 429.197 1007.46 431.864 1007.46V1007.16V1006.86C429.092 1006.86 426.782 1007.57 424.959 1009L425.144 1009.24ZM431.864 1007.16V1007.46C433.696 1007.46 435.262 1007.79 436.572 1008.43L436.704 1008.16L436.836 1007.89C435.427 1007.2 433.766 1006.86 431.864 1006.86V1007.16ZM436.704 1008.16L436.572 1008.43C437.888 1009.07 438.868 1009.94 439.528 1011.04L439.784 1010.88L440.041 1010.72C439.314 1009.52 438.241 1008.58 436.836 1007.89L436.704 1008.16ZM439.784 1010.88L439.528 1011.04C440.191 1012.13 440.524 1013.37 440.524 1014.76H440.824H441.124C441.124 1013.27 440.765 1011.92 440.041 1010.72L439.784 1010.88ZM440.824 1014.76H440.524C440.524 1016.36 440.101 1017.71 439.264 1018.82L439.504 1019L439.744 1019.18C440.668 1017.95 441.124 1016.47 441.124 1014.76H440.824ZM439.504 1019L439.264 1018.82C438.416 1019.95 437.412 1020.7 436.251 1021.07L436.344 1021.36L436.437 1021.65C437.731 1021.22 438.833 1020.4 439.744 1019.18L439.504 1019ZM436.344 1021.36H436.044V1021.52H436.344H436.644V1021.36H436.344ZM436.344 1021.52L436.257 1021.81C437.769 1022.27 438.938 1023.11 439.777 1024.33L440.024 1024.16L440.272 1023.99C439.351 1022.65 438.066 1021.73 436.432 1021.23L436.344 1021.52ZM440.024 1024.16L439.779 1024.33C440.614 1025.52 441.044 1027.07 441.044 1029H441.344H441.644C441.644 1026.98 441.194 1025.3 440.27 1023.99L440.024 1024.16ZM441.344 1029H441.044C441.044 1030.53 440.696 1031.87 440.006 1033.05L440.264 1033.2L440.523 1033.35C441.273 1032.07 441.644 1030.62 441.644 1029H441.344ZM440.264 1033.2L440.006 1033.05C439.318 1034.22 438.297 1035.16 436.928 1035.85L437.064 1036.12L437.201 1036.39C438.659 1035.64 439.771 1034.63 440.523 1033.35L440.264 1033.2ZM437.064 1036.12L436.932 1035.85C435.569 1036.52 433.923 1036.86 431.984 1036.86V1037.16V1037.46C433.992 1037.46 435.733 1037.11 437.197 1036.39L437.064 1036.12ZM431.984 1037.16V1036.86C429.157 1036.86 426.853 1036.14 425.05 1034.72L424.864 1034.96L424.679 1035.2C426.609 1036.71 429.052 1037.46 431.984 1037.46V1037.16ZM424.864 1034.96L425.053 1034.73C423.291 1033.3 422.334 1031.25 422.204 1028.55L421.904 1028.56L421.605 1028.57C421.741 1031.42 422.758 1033.64 424.675 1035.19L424.864 1034.96ZM421.904 1028.56V1028.86H426.304V1028.56V1028.26H421.904V1028.56ZM426.304 1028.56L426.005 1028.58C426.117 1030.07 426.695 1031.3 427.741 1032.26L427.944 1032.04L428.147 1031.82C427.22 1030.97 426.705 1029.88 426.604 1028.54L426.304 1028.56ZM427.944 1032.04L427.745 1032.26C428.8 1033.21 430.211 1033.66 431.944 1033.66V1033.36V1033.06C430.317 1033.06 429.062 1032.63 428.144 1031.82L427.944 1032.04ZM431.944 1033.36V1033.66C433.625 1033.66 434.965 1033.2 435.917 1032.25L435.704 1032.04L435.492 1031.83C434.684 1032.64 433.517 1033.06 431.944 1033.06V1033.36ZM435.704 1032.04L435.92 1032.25C436.861 1031.28 437.324 1030.04 437.324 1028.56H437.024H436.724C436.724 1029.91 436.308 1030.99 435.489 1031.83L435.704 1032.04ZM437.024 1028.56H437.324C437.324 1026.63 436.698 1025.19 435.387 1024.35L435.224 1024.6L435.062 1024.85C436.15 1025.55 436.724 1026.76 436.724 1028.56H437.024ZM435.224 1024.6L435.393 1024.35C434.146 1023.5 432.259 1023.1 429.784 1023.1V1023.4V1023.7C432.216 1023.7 433.956 1024.1 435.055 1024.85L435.224 1024.6ZM429.784 1023.4V1023.1H428.744V1023.4V1023.7H429.784V1023.4ZM428.744 1023.4H429.044V1019.64H428.744H428.444V1023.4H428.744ZM428.744 1019.64V1019.94H429.824V1019.64V1019.34H428.744V1019.64ZM429.824 1019.64L429.828 1019.94C432.011 1019.91 433.715 1019.55 434.902 1018.82L434.744 1018.56L434.586 1018.3C433.534 1018.96 431.957 1019.31 429.821 1019.34L429.824 1019.64ZM434.744 1018.56L434.9 1018.82C436.148 1018.06 436.764 1016.86 436.764 1015.28H436.464H436.164C436.164 1016.68 435.634 1017.67 434.589 1018.3L434.744 1018.56ZM436.464 1015.28H436.764C436.764 1013.93 436.325 1012.83 435.425 1012.02L435.224 1012.24L435.023 1012.46C435.777 1013.14 436.164 1014.07 436.164 1015.28H436.464ZM435.224 1012.24L435.429 1012.02C434.53 1011.18 433.274 1010.78 431.704 1010.78V1011.08V1011.38C433.175 1011.38 434.265 1011.75 435.019 1012.46L435.224 1012.24ZM431.704 1011.08V1010.78C430.16 1010.78 428.918 1011.18 428.019 1012.02L428.224 1012.24L428.429 1012.46C429.185 1011.75 430.262 1011.38 431.704 1011.38V1011.08ZM428.224 1012.24L428.023 1012.02C427.144 1012.81 426.617 1013.81 426.447 1015L426.744 1015.04L427.041 1015.08C427.192 1014.03 427.652 1013.16 428.425 1012.46L428.224 1012.24ZM426.744 1015.04V1014.74H422.304V1015.04V1015.34H426.744V1015.04Z" fill="black" mask="url(#path-10-outside-2_97_14)"/>
<path d="M263.13 233.99C267.47 234.97 270.9 237.14 273.42 240.5C276.01 243.79 277.305 247.57 277.305 251.84C277.305 258.14 275.135 263.075 270.795 266.645C266.455 270.215 260.365 272 252.525 272H215.88V197.975H251.37C258.93 197.975 264.845 199.655 269.115 203.015C273.455 206.375 275.625 211.1 275.625 217.19C275.625 221.53 274.47 225.17 272.16 228.11C269.92 230.98 266.91 232.94 263.13 233.99ZM236.46 227.375H246.855C252.035 227.375 254.625 225.24 254.625 220.97C254.625 216.56 252.035 214.355 246.855 214.355H236.46V227.375ZM248.43 255.41C253.61 255.41 256.2 253.24 256.2 248.9C256.2 246.66 255.5 244.945 254.1 243.755C252.77 242.565 250.845 241.97 248.325 241.97H236.46V255.41H248.43ZM282.964 242.495C282.964 236.405 284.049 231.085 286.219 226.535C288.459 221.985 291.469 218.485 295.249 216.035C299.099 213.585 303.369 212.36 308.059 212.36C312.119 212.36 315.619 213.165 318.559 214.775C321.499 216.385 323.774 218.555 325.384 221.285V213.095H345.964V272H325.384V263.81C323.774 266.54 321.464 268.71 318.454 270.32C315.514 271.93 312.049 272.735 308.059 272.735C303.369 272.735 299.099 271.51 295.249 269.06C291.469 266.61 288.459 263.11 286.219 258.56C284.049 253.94 282.964 248.585 282.964 242.495ZM325.384 242.495C325.384 238.715 324.334 235.74 322.234 233.57C320.204 231.4 317.684 230.315 314.674 230.315C311.594 230.315 309.039 231.4 307.009 233.57C304.979 235.67 303.964 238.645 303.964 242.495C303.964 246.275 304.979 249.285 307.009 251.525C309.039 253.695 311.594 254.78 314.674 254.78C317.684 254.78 320.204 253.695 322.234 251.525C324.334 249.355 325.384 246.345 325.384 242.495ZM396.227 212.57C403.017 212.57 408.407 214.845 412.397 219.395C416.387 223.875 418.382 229.965 418.382 237.665V272H397.802V240.395C397.802 237.035 396.927 234.41 395.177 232.52C393.427 230.56 391.082 229.58 388.142 229.58C385.062 229.58 382.647 230.56 380.897 232.52C379.147 234.41 378.272 237.035 378.272 240.395V272H357.692V213.095H378.272V221.495C380.092 218.835 382.542 216.7 385.622 215.09C388.702 213.41 392.237 212.57 396.227 212.57ZM426.314 242.495C426.314 236.405 427.399 231.085 429.569 226.535C431.809 221.985 434.819 218.485 438.599 216.035C442.449 213.585 446.719 212.36 451.409 212.36C455.469 212.36 458.969 213.165 461.909 214.775C464.849 216.385 467.124 218.555 468.734 221.285V213.095H489.314V272H468.734V263.81C467.124 266.54 464.814 268.71 461.804 270.32C458.864 271.93 455.399 272.735 451.409 272.735C446.719 272.735 442.449 271.51 438.599 269.06C434.819 266.61 431.809 263.11 429.569 258.56C427.399 253.94 426.314 248.585 426.314 242.495ZM468.734 242.495C468.734 238.715 467.684 235.74 465.584 233.57C463.554 231.4 461.034 230.315 458.024 230.315C454.944 230.315 452.389 231.4 450.359 233.57C448.329 235.67 447.314 238.645 447.314 242.495C447.314 246.275 448.329 249.285 450.359 251.525C452.389 253.695 454.944 254.78 458.024 254.78C461.034 254.78 463.554 253.695 465.584 251.525C467.684 249.355 468.734 246.345 468.734 242.495ZM539.576 212.57C546.366 212.57 551.756 214.845 555.746 219.395C559.736 223.875 561.731 229.965 561.731 237.665V272H541.151V240.395C541.151 237.035 540.276 234.41 538.526 232.52C536.776 230.56 534.431 229.58 531.491 229.58C528.411 229.58 525.996 230.56 524.246 232.52C522.496 234.41 521.621 237.035 521.621 240.395V272H501.041V213.095H521.621V221.495C523.441 218.835 525.891 216.7 528.971 215.09C532.051 213.41 535.586 212.57 539.576 212.57ZM569.664 242.495C569.664 236.405 570.749 231.085 572.919 226.535C575.159 221.985 578.169 218.485 581.949 216.035C585.799 213.585 590.069 212.36 594.759 212.36C598.819 212.36 602.319 213.165 605.259 214.775C608.199 216.385 610.474 218.555 612.084 221.285V213.095H632.664V272H612.084V263.81C610.474 266.54 608.164 268.71 605.154 270.32C602.214 271.93 598.749 272.735 594.759 272.735C590.069 272.735 585.799 271.51 581.949 269.06C578.169 266.61 575.159 263.11 572.919 258.56C570.749 253.94 569.664 248.585 569.664 242.495ZM612.084 242.495C612.084 238.715 611.034 235.74 608.934 233.57C606.904 231.4 604.384 230.315 601.374 230.315C598.294 230.315 595.739 231.4 593.709 233.57C591.679 235.67 590.664 238.645 590.664 242.495C590.664 246.275 591.679 249.285 593.709 251.525C595.739 253.695 598.294 254.78 601.374 254.78C604.384 254.78 606.904 253.695 608.934 251.525C611.034 249.355 612.084 246.345 612.084 242.495Z" fill="black"/>
<path d="M632.129 408.061C653.055 407.386 657.958 412.124 656.434 432.999L654.725 455.105C652.71 478.906 665.116 519.554 676.056 539.484C678.835 544.12 683.523 547.693 686.858 551.703C704.6 573.034 710.458 605.644 712.58 632.579C721.613 747.23 667.547 862.673 571.842 927.074C488.175 983.373 347.205 1019.85 261.404 948.485C246.696 936.19 223.986 906.113 240.337 887.486C243.37 884.345 247.779 881.032 251.255 878.246C208.829 859.551 178.201 840.862 162.16 793.66C151.803 763.183 162.521 758.884 187.517 750.876C161.939 727.034 128.334 676.967 137.561 641.005C146.187 607.39 243.555 634.415 264.642 640.44C294.728 649.036 318.214 656.506 349.475 659.333C433.051 666.889 498.036 608.096 549.747 549.922C554.672 544.381 560.637 540.448 565.381 534.986C567.414 532.632 577.621 486.303 579.631 480.244C571.185 466.694 559.367 454.079 570.912 439.871C585.689 421.686 609.266 411.249 632.129 408.061Z" fill="black"/>
<path d="M612.578 481.621C621.951 477.636 629.225 476.138 639.297 476.636C644.71 500.411 653.486 540.457 671.239 557.732C687.843 573.889 693.337 601.037 695.981 623.331C715.082 787.134 604.915 926.292 447.03 964.13C387.362 978.43 305.441 975.339 261.545 926.074C273.266 928.445 309.585 941.158 310.958 924.51C307.933 910.479 262.337 916.327 251.375 905.151C245.413 899.073 263.628 890.449 267.326 888.416C292.428 874.612 318.69 863.642 346.252 855.766C385.699 844.495 427.655 839.186 463.662 818.292C528.726 780.536 573.128 714.822 595.991 644.243C599.444 633.58 606.034 598.874 612.578 593.189C615.845 584.002 622.517 577.792 629.257 570.92L629.17 570.382C627.565 560.221 628.437 549.547 627.26 539.262C624.803 517.775 616.567 501.281 612.578 481.621Z" fill="#E9BB14"/>
<path d="M612.578 593.188L612.762 593.638L612.403 594.082C610.334 596.657 594.446 646.346 593.018 655.06L593.991 655.263C593.592 658.869 595.008 665.802 591.174 667.43L590.592 667.149L590.417 665.965C588.731 667.853 590.792 671.781 587.042 670.526C583.27 679.088 579.364 687.272 575.319 695.709L575.808 696.186L576.221 696.173C578.231 696.127 579.706 696.36 581.687 696.59L581.592 697.169C574.846 699.361 579.581 695.329 578.611 705.392C583.214 707.226 585.146 702.983 587.247 707.018C590.668 707.723 588.791 711.695 587.488 714.905C586.282 718.78 591.507 731.95 593.488 735.049C597.33 741.06 600.711 736.207 599.136 745.392L600.573 744.732C603.56 746.494 605.675 742.515 606.184 748.923L606.506 748.828C607.186 746.583 610.019 745.749 611.182 742.623C614.687 733.196 619.8 720.754 623.872 711.482C623.499 705.081 627.191 701.402 626.109 689.125C629.079 685.933 628.2 681.336 629.683 677.307C630.977 673.799 625.616 674.142 629.769 671.398C630.308 666.598 630.266 662.086 630.618 657.289C630.834 654.343 633.956 652.519 634.807 649.316C634.597 649.005 636.092 614.98 636.19 611.641L636.794 614.318C636.932 647.089 633.384 680.015 623.872 711.482C589.888 818.53 496.146 893.76 385.462 911.142C370.59 913.478 355.593 914.267 340.66 915.801C335.403 916.342 333.929 921.343 334.33 926.074C329.967 926.799 315.13 926.18 310.958 924.509C307.933 910.479 262.337 916.327 251.375 905.151C245.413 899.073 263.628 890.449 267.326 888.416C292.428 874.612 318.69 863.641 346.252 855.766C385.699 844.495 427.655 839.186 463.662 818.292C528.726 780.536 573.128 714.822 595.991 644.243C599.444 633.58 606.034 598.874 612.578 593.188Z" fill="#F7D76A"/>
<path d="M636.794 614.318C636.848 608.025 635.231 599.086 644.384 599.048C654.577 599.383 651.527 616.271 651.582 622.924C652.364 717.348 612.938 798.538 541.085 859.617C486.762 905.795 412.165 928.893 341.771 931.018C338.2 931.126 335.717 929.227 334.33 926.074C333.929 921.343 335.403 916.342 340.66 915.801C355.593 914.267 370.59 913.478 385.462 911.142C496.146 893.76 589.888 818.53 623.872 711.482C633.384 680.015 636.932 647.089 636.794 614.318Z" fill="black"/>
<path d="M579.63 542.819C582.496 532.815 591.067 494.475 594.578 487.558C599.424 485.702 599.85 495.321 601.289 499.35C608.432 519.346 614.002 542.557 613.238 563.925C608.635 570.937 602.707 576.41 598.809 584.154C587.637 606.352 584.751 630.689 575.741 653.949C558.689 697.976 524.146 757.328 483.654 784.914C422.575 826.524 344.202 830.073 273.897 814.731C267.649 813.367 261.398 810.87 255.154 810.225C249.335 809.806 245.834 822.66 252.329 824.896C289.021 837.525 315.058 835.494 350.868 837.831C345.484 840.06 340.238 841.017 334.71 842.653C312.768 849.14 291.795 857.228 271.6 868.06C231.926 855.198 200.415 837.854 181.743 799.141C190.493 803.264 223.483 822.345 228.591 808.806C232.484 798.487 214.841 795.754 208.421 793.353C164.479 776.923 163.293 771.115 208.406 762.775C277.505 750.001 341.317 770.39 410.855 751.377C483.576 731.495 547.644 677.808 582.965 611.573C585.43 606.951 591.611 596.991 589.998 592.005C587.578 584.528 577.857 586.865 574.403 593.188C574.014 591.415 587.12 549.623 581.079 542.581L579.63 542.819Z" fill="url(#paint0_linear_97_14)"/>
<path d="M579.63 542.819L581.079 542.581C587.12 549.624 574.014 591.415 574.403 593.189C533.603 672.674 459.263 736.942 366.701 741.218C323.15 743.23 279.277 727.916 240.829 708.908C236.093 706.558 230.809 703.092 225.819 701.613C222.531 698.972 203.422 686.429 200.924 685.424C195.134 676.4 158.256 659.439 153.353 647.893C147.96 635.197 196.683 642.499 200.718 643.04C273.192 652.766 345.049 694.325 418.849 668.155C463.749 652.231 502.29 622.104 535.488 588.618C538.099 585.986 579.22 543.682 579.63 542.819Z" fill="#F7D76A"/>
<path d="M155.947 672.218C164.022 677.804 201.463 712.793 200.924 685.424C203.422 686.429 222.531 698.972 225.819 701.613C194.738 714.808 272.681 740.12 279.467 742.491C268.193 742.503 250.855 743.446 240.337 742.491C229.948 744.608 218.895 745.915 208.358 747.261C189.015 735.985 171.284 710.632 162.78 690.702C160.921 684.509 157.983 678.425 155.947 672.218Z" fill="#E9BB14"/>
<path d="M162.78 690.702C165.052 688.641 168.816 693.101 170.595 694.65C181.167 703.861 228.125 742.556 240.337 742.491C229.948 744.608 218.895 745.915 208.358 747.261C189.015 735.985 171.284 710.632 162.78 690.702Z" fill="#DBA90A"/>
<path d="M640.669 423.538L641.131 423.602C641.767 424.706 639.003 456.358 639.297 461.685C620.635 461.653 609.566 465.198 592.949 472.996L588.945 465.816C586.91 462.033 582.998 455.956 581.722 452.224C593.355 434.147 620.014 424.462 640.669 423.538Z" fill="#744728"/>
<defs>
<linearGradient id="paint0_linear_97_14" x1="466.586" y1="794.336" x2="369.057" y2="603.409" gradientUnits="userSpaceOnUse">
<stop stop-color="#EBBB08"/>
<stop offset="1" stop-color="#FFDC02"/>
</linearGradient>
</defs>
</svg>
