<svg width="849" height="1183" viewBox="0 0 849 1183" fill="none" xmlns="http://www.w3.org/2000/svg">
<rect x="5" y="5" width="839" height="1173" rx="45" fill="white"/>
<rect x="5" y="5" width="839" height="1173" rx="45" stroke="black" stroke-width="10"/>
<circle cx="786.5" cy="1124.5" r="11.5" fill="black"/>
<circle cx="786.5" cy="59.5" r="11.5" fill="black"/>
<path d="M77 1124.5C77 1130.85 71.8513 1136 65.5 1136C59.1487 1136 54 1130.85 54 1124.5C54 1118.15 59.1487 1113 65.5 1113C71.8513 1113 77 1118.15 77 1124.5Z" fill="black"/>
<path d="M77 59.5C77 65.8513 71.8513 71 65.5 71C59.1487 71 54 65.8513 54 59.5C54 53.1487 59.1487 48 65.5 48C71.8513 48 77 53.1487 77 59.5Z" fill="black"/>
<mask id="path-6-inside-1_97_25" fill="white">
<path d="M708 48C713.523 48 717.934 52.4996 718.616 57.9801C723.122 94.1833 751.817 122.878 788.02 127.384C793.5 128.066 798 132.477 798 138V1046C798 1051.52 793.5 1055.93 788.02 1056.62C751.817 1061.12 723.122 1089.82 718.616 1126.02C717.934 1131.5 713.523 1136 708 1136H141C135.477 1136 131.066 1131.5 130.384 1126.02C125.878 1089.82 97.1833 1061.12 60.9801 1056.62C55.4996 1055.93 51 1051.52 51 1046V138C51 132.477 55.4996 128.066 60.9801 127.384C97.1833 122.878 125.878 94.1833 130.384 57.9801C131.066 52.4996 135.477 48 141 48H708Z"/>
</mask>
<path d="M708 48C713.523 48 717.934 52.4996 718.616 57.9801C723.122 94.1833 751.817 122.878 788.02 127.384C793.5 128.066 798 132.477 798 138V1046C798 1051.52 793.5 1055.93 788.02 1056.62C751.817 1061.12 723.122 1089.82 718.616 1126.02C717.934 1131.5 713.523 1136 708 1136H141C135.477 1136 131.066 1131.5 130.384 1126.02C125.878 1089.82 97.1833 1061.12 60.9801 1056.62C55.4996 1055.93 51 1051.52 51 1046V138C51 132.477 55.4996 128.066 60.9801 127.384C97.1833 122.878 125.878 94.1833 130.384 57.9801C131.066 52.4996 135.477 48 141 48H708Z" fill="#DBEE71"/>
<path d="M130.384 1126.02L138.322 1125.03L130.384 1126.02ZM718.616 1126.02L710.678 1125.03L718.616 1126.02ZM788.02 1056.62L789.008 1064.56L788.02 1056.62ZM718.616 57.9801L726.555 56.9922L718.616 57.9801ZM718.616 57.9801L710.678 58.9681C715.635 98.8063 747.194 130.365 787.032 135.322L788.02 127.384L789.008 119.445C756.44 115.392 730.608 89.5603 726.555 56.9922L718.616 57.9801ZM798 138H790V1046H798H806V138H798ZM788.02 1056.62L787.032 1048.68C747.194 1053.64 715.635 1085.19 710.678 1125.03L718.616 1126.02L726.555 1127.01C730.608 1094.44 756.44 1068.61 789.008 1064.56L788.02 1056.62ZM708 1136V1128H141V1136V1144H708V1136ZM130.384 1126.02L138.322 1125.03C133.365 1085.19 101.806 1053.64 61.9681 1048.68L60.9801 1056.62L59.9922 1064.56C92.5603 1068.61 118.392 1094.44 122.445 1127.01L130.384 1126.02ZM51 1046H59V138H51H43V1046H51ZM60.9801 127.384L61.9681 135.322C101.806 130.365 133.365 98.8063 138.322 58.9681L130.384 57.9801L122.445 56.9922C118.392 89.5603 92.5603 115.392 59.9922 119.445L60.9801 127.384ZM141 48V56H708V48V40H141V48ZM130.384 57.9801L138.322 58.9681C138.438 58.0389 138.872 57.2306 139.427 56.6958C139.954 56.1887 140.494 56 141 56V48V40C130.84 40 123.547 48.1329 122.445 56.9922L130.384 57.9801ZM51 138H59C59 137.494 59.1887 136.954 59.6958 136.427C60.2306 135.872 61.0389 135.438 61.9681 135.322L60.9801 127.384L59.9922 119.445C51.1329 120.547 43 127.84 43 138H51ZM60.9801 1056.62L61.9681 1048.68C61.0389 1048.56 60.2306 1048.13 59.6958 1047.57C59.1887 1047.05 59 1046.51 59 1046H51H43C43 1056.16 51.1329 1063.45 59.9922 1064.56L60.9801 1056.62ZM141 1136V1128C140.494 1128 139.954 1127.81 139.427 1127.3C138.872 1126.77 138.438 1125.96 138.322 1125.03L130.384 1126.02L122.445 1127.01C123.547 1135.87 130.84 1144 141 1144V1136ZM718.616 1126.02L710.678 1125.03C710.562 1125.96 710.128 1126.77 709.573 1127.3C709.046 1127.81 708.506 1128 708 1128V1136V1144C718.16 1144 725.453 1135.87 726.555 1127.01L718.616 1126.02ZM798 1046H790C790 1046.51 789.811 1047.05 789.304 1047.57C788.769 1048.13 787.961 1048.56 787.032 1048.68L788.02 1056.62L789.008 1064.56C797.867 1063.45 806 1056.16 806 1046H798ZM788.02 127.384L787.032 135.322C787.961 135.438 788.769 135.872 789.304 136.427C789.811 136.954 790 137.494 790 138H798H806C806 127.84 797.867 120.547 789.008 119.445L788.02 127.384ZM718.616 57.9801L726.555 56.9922C725.453 48.1329 718.16 40 708 40V48V56C708.506 56 709.046 56.1887 709.573 56.6958C710.128 57.2306 710.562 58.0389 710.678 58.9681L718.616 57.9801Z" fill="black" mask="url(#path-6-inside-1_97_25)"/>
<path d="M690 102C695.523 102 699.911 106.512 700.837 111.957C705.019 136.563 724.437 155.981 749.043 160.163C754.488 161.089 759 165.477 759 171V1014C759 1019.52 754.488 1023.91 749.043 1024.84C724.711 1028.97 705.454 1048 700.984 1072.22C699.993 1077.59 695.633 1082 690.175 1082H158.825C153.367 1082 149.007 1077.59 148.016 1072.22C143.546 1048 124.288 1028.97 99.9568 1024.84C94.5121 1023.91 90 1019.52 90 1014V171C90 165.477 94.512 161.089 99.9568 160.163C124.563 155.981 143.981 136.563 148.163 111.957C149.089 106.512 153.477 102 159 102H690Z" fill="#DFE4C2"/>
<path d="M379.685 366.52C379.685 369.523 378.977 372.357 377.56 375.02C376.143 377.683 373.877 379.865 370.76 381.565C367.643 383.208 363.648 384.03 358.775 384.03H348.065V408H338.375V348.925H358.775C363.308 348.925 367.133 349.718 370.25 351.305C373.423 352.835 375.775 354.932 377.305 357.595C378.892 360.258 379.685 363.233 379.685 366.52ZM358.775 376.125C362.458 376.125 365.207 375.303 367.02 373.66C368.833 371.96 369.74 369.58 369.74 366.52C369.74 360.06 366.085 356.83 358.775 356.83H348.065V376.125H358.775ZM393.857 354.96C392.1 354.96 390.627 354.365 389.437 353.175C388.247 351.985 387.652 350.512 387.652 348.755C387.652 346.998 388.247 345.525 389.437 344.335C390.627 343.145 392.1 342.55 393.857 342.55C395.557 342.55 397.002 343.145 398.192 344.335C399.382 345.525 399.977 346.998 399.977 348.755C399.977 350.512 399.382 351.985 398.192 353.175C397.002 354.365 395.557 354.96 393.857 354.96ZM398.617 361.165V408H388.927V361.165H398.617ZM434.969 360.4C438.652 360.4 441.939 361.165 444.829 362.695C447.776 364.225 450.071 366.492 451.714 369.495C453.357 372.498 454.179 376.125 454.179 380.375V408H444.574V381.82C444.574 377.627 443.526 374.425 441.429 372.215C439.332 369.948 436.471 368.815 432.844 368.815C429.217 368.815 426.327 369.948 424.174 372.215C422.077 374.425 421.029 377.627 421.029 381.82V408H411.339V361.165H421.029V366.52C422.616 364.593 424.627 363.092 427.064 362.015C429.557 360.938 432.192 360.4 434.969 360.4ZM419.584 356.32C420.037 353.033 421.114 350.568 422.814 348.925C424.514 347.225 426.639 346.375 429.189 346.375C430.266 346.375 431.201 346.545 431.994 346.885C432.787 347.225 433.751 347.735 434.884 348.415C435.734 348.982 436.442 349.407 437.009 349.69C437.632 349.973 438.312 350.115 439.049 350.115C440.012 350.115 440.806 349.832 441.429 349.265C442.109 348.642 442.534 347.735 442.704 346.545H448.144C447.691 349.832 446.614 352.325 444.914 354.025C443.214 355.668 441.089 356.49 438.539 356.49C437.462 356.49 436.499 356.32 435.649 355.98C434.799 355.583 433.864 355.045 432.844 354.365C431.824 353.742 431.031 353.317 430.464 353.09C429.954 352.807 429.359 352.665 428.679 352.665C427.716 352.665 426.894 352.977 426.214 353.6C425.591 354.223 425.194 355.13 425.024 356.32H419.584ZM463.309 384.37C463.309 379.667 464.272 375.502 466.199 371.875C468.182 368.248 470.846 365.443 474.189 363.46C477.589 361.42 481.329 360.4 485.409 360.4C489.092 360.4 492.294 361.137 495.014 362.61C497.791 364.027 500.001 365.812 501.644 367.965V361.165H511.419V408H501.644V401.03C500.001 403.24 497.762 405.082 494.929 406.555C492.096 408.028 488.866 408.765 485.239 408.765C481.216 408.765 477.532 407.745 474.189 405.705C470.846 403.608 468.182 400.718 466.199 397.035C464.272 393.295 463.309 389.073 463.309 384.37ZM501.644 384.54C501.644 381.31 500.964 378.505 499.604 376.125C498.301 373.745 496.572 371.932 494.419 370.685C492.266 369.438 489.942 368.815 487.449 368.815C484.956 368.815 482.632 369.438 480.479 370.685C478.326 371.875 476.569 373.66 475.209 376.04C473.906 378.363 473.254 381.14 473.254 384.37C473.254 387.6 473.906 390.433 475.209 392.87C476.569 395.307 478.326 397.177 480.479 398.48C482.689 399.727 485.012 400.35 487.449 400.35C489.942 400.35 492.266 399.727 494.419 398.48C496.572 397.233 498.301 395.42 499.604 393.04C500.964 390.603 501.644 387.77 501.644 384.54Z" fill="black"/>
<mask id="path-10-outside-2_97_25" maskUnits="userSpaceOnUse" x="407" y="1006" width="37" height="32" fill="black">
<rect fill="white" x="407" y="1006" width="37" height="32"/>
<path d="M407.8 1012V1007.84H416.12V1037H411.52V1012H407.8ZM428.064 1029.08C428.331 1030.41 428.904 1031.43 429.784 1032.12C430.664 1032.81 431.851 1033.16 433.344 1033.16C435.238 1033.16 436.624 1032.41 437.504 1030.92C438.384 1029.43 438.824 1026.88 438.824 1023.28C438.184 1024.19 437.278 1024.89 436.104 1025.4C434.958 1025.88 433.704 1026.12 432.344 1026.12C430.611 1026.12 429.038 1025.77 427.624 1025.08C426.211 1024.36 425.091 1023.31 424.264 1021.92C423.464 1020.51 423.064 1018.8 423.064 1016.8C423.064 1013.87 423.918 1011.53 425.624 1009.8C427.358 1008.04 429.731 1007.16 432.744 1007.16C436.371 1007.16 438.944 1008.37 440.464 1010.8C442.011 1013.2 442.784 1016.89 442.784 1021.88C442.784 1025.32 442.491 1028.13 441.904 1030.32C441.344 1032.51 440.358 1034.16 438.944 1035.28C437.531 1036.4 435.571 1036.96 433.064 1036.96C430.211 1036.96 428.011 1036.21 426.464 1034.72C424.918 1033.23 424.051 1031.35 423.864 1029.08H428.064ZM433.144 1022.28C434.744 1022.28 435.998 1021.79 436.904 1020.8C437.838 1019.79 438.304 1018.45 438.304 1016.8C438.304 1014.96 437.811 1013.53 436.824 1012.52C435.864 1011.48 434.544 1010.96 432.864 1010.96C431.184 1010.96 429.851 1011.49 428.864 1012.56C427.904 1013.6 427.424 1014.97 427.424 1016.68C427.424 1018.31 427.891 1019.65 428.824 1020.72C429.784 1021.76 431.224 1022.28 433.144 1022.28Z"/>
</mask>
<path d="M407.8 1012V1007.84H416.12V1037H411.52V1012H407.8ZM428.064 1029.08C428.331 1030.41 428.904 1031.43 429.784 1032.12C430.664 1032.81 431.851 1033.16 433.344 1033.16C435.238 1033.16 436.624 1032.41 437.504 1030.92C438.384 1029.43 438.824 1026.88 438.824 1023.28C438.184 1024.19 437.278 1024.89 436.104 1025.4C434.958 1025.88 433.704 1026.12 432.344 1026.12C430.611 1026.12 429.038 1025.77 427.624 1025.08C426.211 1024.36 425.091 1023.31 424.264 1021.92C423.464 1020.51 423.064 1018.8 423.064 1016.8C423.064 1013.87 423.918 1011.53 425.624 1009.8C427.358 1008.04 429.731 1007.16 432.744 1007.16C436.371 1007.16 438.944 1008.37 440.464 1010.8C442.011 1013.2 442.784 1016.89 442.784 1021.88C442.784 1025.32 442.491 1028.13 441.904 1030.32C441.344 1032.51 440.358 1034.16 438.944 1035.28C437.531 1036.4 435.571 1036.96 433.064 1036.96C430.211 1036.96 428.011 1036.21 426.464 1034.72C424.918 1033.23 424.051 1031.35 423.864 1029.08H428.064ZM433.144 1022.28C434.744 1022.28 435.998 1021.79 436.904 1020.8C437.838 1019.79 438.304 1018.45 438.304 1016.8C438.304 1014.96 437.811 1013.53 436.824 1012.52C435.864 1011.48 434.544 1010.96 432.864 1010.96C431.184 1010.96 429.851 1011.49 428.864 1012.56C427.904 1013.6 427.424 1014.97 427.424 1016.68C427.424 1018.31 427.891 1019.65 428.824 1020.72C429.784 1021.76 431.224 1022.28 433.144 1022.28Z" fill="black"/>
<path d="M407.8 1012H407.5V1012.3H407.8V1012ZM407.8 1007.84V1007.54H407.5V1007.84H407.8ZM416.12 1007.84H416.42V1007.54H416.12V1007.84ZM416.12 1037V1037.3H416.42V1037H416.12ZM411.52 1037H411.22V1037.3H411.52V1037ZM411.52 1012H411.82V1011.7H411.52V1012ZM407.8 1012H408.1V1007.84H407.8H407.5V1012H407.8ZM407.8 1007.84V1008.14H416.12V1007.84V1007.54H407.8V1007.84ZM416.12 1007.84H415.82V1037H416.12H416.42V1007.84H416.12ZM416.12 1037V1036.7H411.52V1037V1037.3H416.12V1037ZM411.52 1037H411.82V1012H411.52H411.22V1037H411.52ZM411.52 1012V1011.7H407.8V1012V1012.3H411.52V1012ZM428.064 1029.08L428.359 1029.02L428.31 1028.78H428.064V1029.08ZM429.784 1032.12L429.599 1032.36L429.784 1032.12ZM437.504 1030.92L437.246 1030.77L437.504 1030.92ZM438.824 1023.28H439.124V1022.33L438.579 1023.11L438.824 1023.28ZM436.104 1025.4L436.22 1025.68L436.223 1025.68L436.104 1025.4ZM427.624 1025.08L427.488 1025.35L427.492 1025.35L427.624 1025.08ZM424.264 1021.92L424.003 1022.07L424.007 1022.07L424.264 1021.92ZM425.624 1009.8L425.411 1009.59L425.411 1009.59L425.624 1009.8ZM440.464 1010.8L440.21 1010.96L440.212 1010.96L440.464 1010.8ZM441.904 1030.32L441.615 1030.24L441.614 1030.25L441.904 1030.32ZM438.944 1035.28L439.131 1035.52L438.944 1035.28ZM426.464 1034.72L426.256 1034.94L426.464 1034.72ZM423.864 1029.08V1028.78H423.539L423.565 1029.1L423.864 1029.08ZM436.904 1020.8L436.684 1020.6L436.683 1020.6L436.904 1020.8ZM436.824 1012.52L436.604 1012.72L436.609 1012.73L436.824 1012.52ZM428.864 1012.56L428.644 1012.36L428.644 1012.36L428.864 1012.56ZM428.824 1020.72L428.599 1020.92L428.604 1020.92L428.824 1020.72ZM428.064 1029.08L427.77 1029.14C428.048 1030.53 428.651 1031.61 429.599 1032.36L429.784 1032.12L429.97 1031.88C429.157 1031.24 428.614 1030.3 428.359 1029.02L428.064 1029.08ZM429.784 1032.12L429.599 1032.36C430.547 1033.1 431.806 1033.46 433.344 1033.46V1033.16V1032.86C431.896 1032.86 430.782 1032.52 429.97 1031.88L429.784 1032.12ZM433.344 1033.16V1033.46C435.332 1033.46 436.823 1032.67 437.763 1031.07L437.504 1030.92L437.246 1030.77C436.426 1032.16 435.143 1032.86 433.344 1032.86V1033.16ZM437.504 1030.92L437.763 1031.07C438.687 1029.5 439.124 1026.89 439.124 1023.28H438.824H438.524C438.524 1026.87 438.082 1029.35 437.246 1030.77L437.504 1030.92ZM438.824 1023.28L438.579 1023.11C437.976 1023.96 437.116 1024.64 435.985 1025.12L436.104 1025.4L436.223 1025.68C437.439 1025.15 438.393 1024.41 439.069 1023.45L438.824 1023.28ZM436.104 1025.4L435.989 1025.12C434.882 1025.59 433.668 1025.82 432.344 1025.82V1026.12V1026.42C433.74 1026.42 435.034 1026.17 436.22 1025.68L436.104 1025.4ZM432.344 1026.12V1025.82C430.652 1025.82 429.125 1025.48 427.757 1024.81L427.624 1025.08L427.492 1025.35C428.951 1026.06 430.57 1026.42 432.344 1026.42V1026.12ZM427.624 1025.08L427.761 1024.81C426.399 1024.12 425.32 1023.11 424.522 1021.77L424.264 1021.92L424.007 1022.07C424.862 1023.51 426.024 1024.6 427.488 1025.35L427.624 1025.08ZM424.264 1021.92L424.525 1021.77C423.756 1020.41 423.364 1018.76 423.364 1016.8H423.064H422.764C422.764 1018.84 423.173 1020.6 424.003 1022.07L424.264 1021.92ZM423.064 1016.8H423.364C423.364 1013.93 424.198 1011.68 425.838 1010.01L425.624 1009.8L425.411 1009.59C423.638 1011.39 422.764 1013.81 422.764 1016.8H423.064ZM425.624 1009.8L425.838 1010.01C427.503 1008.32 429.793 1007.46 432.744 1007.46V1007.16V1006.86C429.67 1006.86 427.212 1007.76 425.411 1009.59L425.624 1009.8ZM432.744 1007.16V1007.46C436.299 1007.46 438.76 1008.64 440.21 1010.96L440.464 1010.8L440.719 1010.64C439.129 1008.1 436.443 1006.86 432.744 1006.86V1007.16ZM440.464 1010.8L440.212 1010.96C441.712 1013.29 442.484 1016.91 442.484 1021.88H442.784H443.084C443.084 1016.87 442.31 1013.11 440.717 1010.64L440.464 1010.8ZM442.784 1021.88H442.484C442.484 1025.31 442.192 1028.09 441.615 1030.24L441.904 1030.32L442.194 1030.4C442.79 1028.18 443.084 1025.33 443.084 1021.88H442.784ZM441.904 1030.32L441.614 1030.25C441.066 1032.38 440.108 1033.97 438.758 1035.04L438.944 1035.28L439.131 1035.52C440.607 1034.35 441.623 1032.63 442.195 1030.39L441.904 1030.32ZM438.944 1035.28L438.758 1035.04C437.415 1036.11 435.529 1036.66 433.064 1036.66V1036.96V1037.26C435.613 1037.26 437.647 1036.69 439.131 1035.52L438.944 1035.28ZM433.064 1036.96V1036.66C430.263 1036.66 428.147 1035.93 426.673 1034.5L426.464 1034.72L426.256 1034.94C427.875 1036.5 430.159 1037.26 433.064 1037.26V1036.96ZM426.464 1034.72L426.673 1034.5C425.182 1033.06 424.344 1031.25 424.163 1029.06L423.864 1029.08L423.565 1029.1C423.758 1031.44 424.654 1033.39 426.256 1034.94L426.464 1034.72ZM423.864 1029.08V1029.38H428.064V1029.08V1028.78H423.864V1029.08ZM433.144 1022.28V1022.58C434.811 1022.58 436.151 1022.06 437.125 1021L436.904 1020.8L436.683 1020.6C435.845 1021.51 434.678 1021.98 433.144 1021.98V1022.28ZM436.904 1020.8L437.125 1021C438.119 1019.92 438.604 1018.51 438.604 1016.8H438.304H438.004C438.004 1018.39 437.556 1019.65 436.684 1020.6L436.904 1020.8ZM438.304 1016.8H438.604C438.604 1014.91 438.095 1013.4 437.039 1012.31L436.824 1012.52L436.609 1012.73C437.527 1013.67 438.004 1015.01 438.004 1016.8H438.304ZM436.824 1012.52L437.045 1012.32C436.017 1011.2 434.611 1010.66 432.864 1010.66V1010.96V1011.26C434.478 1011.26 435.711 1011.76 436.604 1012.72L436.824 1012.52ZM432.864 1010.96V1010.66C431.115 1010.66 429.697 1011.22 428.644 1012.36L428.864 1012.56L429.085 1012.76C430.005 1011.77 431.254 1011.26 432.864 1011.26V1010.96ZM428.864 1012.56L428.644 1012.36C427.623 1013.46 427.124 1014.91 427.124 1016.68H427.424H427.724C427.724 1015.03 428.186 1013.74 429.085 1012.76L428.864 1012.56ZM427.424 1016.68H427.124C427.124 1018.37 427.61 1019.79 428.599 1020.92L428.824 1020.72L429.05 1020.52C428.172 1019.52 427.724 1018.25 427.724 1016.68H427.424ZM428.824 1020.72L428.604 1020.92C429.639 1022.04 431.172 1022.58 433.144 1022.58V1022.28V1021.98C431.277 1021.98 429.93 1021.48 429.045 1020.52L428.824 1020.72Z" fill="black" mask="url(#path-10-outside-2_97_25)"/>
<path d="M215.365 222.65C215.365 227.13 214.315 231.225 212.215 234.935C210.185 238.575 207.07 241.515 202.87 243.755C198.74 245.925 193.665 247.01 187.645 247.01H177.46V272H156.88V197.975H187.645C193.595 197.975 198.635 199.025 202.765 201.125C206.965 203.225 210.115 206.13 212.215 209.84C214.315 213.55 215.365 217.82 215.365 222.65ZM185.65 230.63C191.46 230.63 194.365 227.97 194.365 222.65C194.365 217.26 191.46 214.565 185.65 214.565H177.46V230.63H185.65ZM234.028 207.635C230.388 207.635 227.448 206.655 225.208 204.695C223.038 202.665 221.953 200.145 221.953 197.135C221.953 194.055 223.038 191.5 225.208 189.47C227.448 187.44 230.388 186.425 234.028 186.425C237.598 186.425 240.468 187.44 242.638 189.47C244.878 191.5 245.998 194.055 245.998 197.135C245.998 200.145 244.878 202.665 242.638 204.695C240.468 206.655 237.598 207.635 234.028 207.635ZM244.213 213.095V272H223.633V213.095H244.213ZM294.468 212.57C301.258 212.57 306.648 214.845 310.638 219.395C314.628 223.875 316.623 229.965 316.623 237.665V272H296.043V240.395C296.043 237.035 295.168 234.41 293.418 232.52C291.668 230.56 289.323 229.58 286.383 229.58C283.303 229.58 280.888 230.56 279.138 232.52C277.388 234.41 276.513 237.035 276.513 240.395V272H255.933V213.095H276.513V221.495C278.333 218.835 280.783 216.7 283.863 215.09C286.943 213.41 290.478 212.57 294.468 212.57ZM384.195 241.865C384.195 243.475 384.09 245.085 383.88 246.695H344.925C345.135 249.915 346.01 252.33 347.55 253.94C349.16 255.48 351.19 256.25 353.64 256.25C357.07 256.25 359.52 254.71 360.99 251.63H382.935C382.025 255.69 380.24 259.33 377.58 262.55C374.99 265.7 371.7 268.185 367.71 270.005C363.72 271.825 359.31 272.735 354.48 272.735C348.67 272.735 343.49 271.51 338.94 269.06C334.46 266.61 330.925 263.11 328.335 258.56C325.815 254.01 324.555 248.655 324.555 242.495C324.555 236.335 325.815 231.015 328.335 226.535C330.855 221.985 334.355 218.485 338.835 216.035C343.385 213.585 348.6 212.36 354.48 212.36C360.29 212.36 365.435 213.55 369.915 215.93C374.395 218.31 377.895 221.74 380.415 226.22C382.935 230.63 384.195 235.845 384.195 241.865ZM363.195 236.72C363.195 234.2 362.355 232.24 360.675 230.84C358.995 229.37 356.895 228.635 354.375 228.635C351.855 228.635 349.79 229.335 348.18 230.735C346.57 232.065 345.52 234.06 345.03 236.72H363.195ZM389.257 242.495C389.257 236.405 390.342 231.085 392.512 226.535C394.752 221.985 397.762 218.485 401.542 216.035C405.392 213.585 409.662 212.36 414.352 212.36C418.412 212.36 421.912 213.165 424.852 214.775C427.792 216.385 430.067 218.555 431.677 221.285V213.095H452.257V272H431.677V263.81C430.067 266.54 427.757 268.71 424.747 270.32C421.807 271.93 418.342 272.735 414.352 272.735C409.662 272.735 405.392 271.51 401.542 269.06C397.762 266.61 394.752 263.11 392.512 258.56C390.342 253.94 389.257 248.585 389.257 242.495ZM431.677 242.495C431.677 238.715 430.627 235.74 428.527 233.57C426.497 231.4 423.977 230.315 420.967 230.315C417.887 230.315 415.332 231.4 413.302 233.57C411.272 235.67 410.257 238.645 410.257 242.495C410.257 246.275 411.272 249.285 413.302 251.525C415.332 253.695 417.887 254.78 420.967 254.78C423.977 254.78 426.497 253.695 428.527 251.525C430.627 249.355 431.677 246.345 431.677 242.495ZM484.564 221.285C486.174 218.555 488.449 216.385 491.389 214.775C494.329 213.165 497.794 212.36 501.784 212.36C506.474 212.36 510.709 213.585 514.489 216.035C518.339 218.485 521.349 221.985 523.519 226.535C525.759 231.085 526.879 236.405 526.879 242.495C526.879 248.585 525.759 253.94 523.519 258.56C521.349 263.11 518.339 266.61 514.489 269.06C510.709 271.51 506.474 272.735 501.784 272.735C497.794 272.735 494.329 271.93 491.389 270.32C488.519 268.71 486.244 266.54 484.564 263.81V300.14H463.984V213.095H484.564V221.285ZM505.984 242.495C505.984 238.645 504.934 235.67 502.834 233.57C500.804 231.4 498.284 230.315 495.274 230.315C492.264 230.315 489.709 231.4 487.609 233.57C485.579 235.74 484.564 238.715 484.564 242.495C484.564 246.345 485.579 249.355 487.609 251.525C489.709 253.695 492.264 254.78 495.274 254.78C498.284 254.78 500.804 253.695 502.834 251.525C504.934 249.285 505.984 246.275 505.984 242.495ZM555.932 221.285C557.542 218.555 559.817 216.385 562.757 214.775C565.697 213.165 569.162 212.36 573.152 212.36C577.842 212.36 582.077 213.585 585.857 216.035C589.707 218.485 592.717 221.985 594.887 226.535C597.127 231.085 598.247 236.405 598.247 242.495C598.247 248.585 597.127 253.94 594.887 258.56C592.717 263.11 589.707 266.61 585.857 269.06C582.077 271.51 577.842 272.735 573.152 272.735C569.162 272.735 565.697 271.93 562.757 270.32C559.887 268.71 557.612 266.54 555.932 263.81V300.14H535.352V213.095H555.932V221.285ZM577.352 242.495C577.352 238.645 576.302 235.67 574.202 233.57C572.172 231.4 569.652 230.315 566.642 230.315C563.632 230.315 561.077 231.4 558.977 233.57C556.947 235.74 555.932 238.715 555.932 242.495C555.932 246.345 556.947 249.355 558.977 251.525C561.077 253.695 563.632 254.78 566.642 254.78C569.652 254.78 572.172 253.695 574.202 251.525C576.302 249.285 577.352 246.275 577.352 242.495ZM627.299 194.3V272H606.719V194.3H627.299ZM695.299 241.865C695.299 243.475 695.194 245.085 694.984 246.695H656.029C656.239 249.915 657.114 252.33 658.654 253.94C660.264 255.48 662.294 256.25 664.744 256.25C668.174 256.25 670.624 254.71 672.094 251.63H694.039C693.129 255.69 691.344 259.33 688.684 262.55C686.094 265.7 682.804 268.185 678.814 270.005C674.824 271.825 670.414 272.735 665.584 272.735C659.774 272.735 654.594 271.51 650.044 269.06C645.564 266.61 642.029 263.11 639.439 258.56C636.919 254.01 635.659 248.655 635.659 242.495C635.659 236.335 636.919 231.015 639.439 226.535C641.959 221.985 645.459 218.485 649.939 216.035C654.489 213.585 659.704 212.36 665.584 212.36C671.394 212.36 676.539 213.55 681.019 215.93C685.499 218.31 688.999 221.74 691.519 226.22C694.039 230.63 695.299 235.845 695.299 241.865ZM674.299 236.72C674.299 234.2 673.459 232.24 671.779 230.84C670.099 229.37 667.999 228.635 665.479 228.635C662.959 228.635 660.894 229.335 659.284 230.735C657.674 232.065 656.624 234.06 656.134 236.72H674.299Z" fill="black"/>
<ellipse cx="378" cy="810.146" rx="61.5435" ry="119.427" transform="rotate(1.53098 378 810.146)" fill="white"/>
<ellipse cx="330.05" cy="622.657" rx="5.15301" ry="42.531" transform="rotate(12.2358 330.05 622.657)" fill="white"/>
<ellipse cx="345.461" cy="660.427" rx="5.15301" ry="29.5568" transform="rotate(21.1296 345.461 660.427)" fill="white"/>
<ellipse cx="490.706" cy="473.565" rx="5.15301" ry="41.0079" transform="rotate(18.2045 490.706 473.565)" fill="white"/>
<path d="M514.715 517.254C499.653 538.392 492.818 562.152 490.5 560.5C488.182 558.848 491.26 532.412 506.322 511.274C521.384 490.136 535.473 474.339 537.791 475.99C540.109 477.642 529.777 496.116 514.715 517.254Z" fill="white"/>
<path d="M524.061 555.843C515.297 565.058 499.176 586.594 497.5 585C495.824 583.406 509.229 559.286 517.993 550.072C526.758 540.858 535.22 534.68 536.896 536.274C538.572 537.867 532.825 546.629 524.061 555.843Z" fill="white"/>
<path d="M637.562 591.385C632.077 602.859 612.5 650.5 600.5 650C588.5 649.5 624.522 599.247 630.007 587.774C635.491 576.301 641.628 567.808 643.715 568.806C645.801 569.803 643.046 579.912 637.562 591.385Z" fill="white"/>
<path d="M655.153 644.15C643.5 652 608.405 703.881 600.5 704C592.595 704.119 633.5 644.15 649.041 638.425C657.734 629.144 666.149 622.901 667.837 624.482C669.525 626.062 663.846 634.868 655.153 644.15Z" fill="white"/>
<path d="M648.087 700.7C638.306 704.797 609.556 741.722 602.791 739.968C596.025 738.214 629.547 695.613 642.711 694.28C649.921 688.241 656.97 684.783 658.455 686.556C659.939 688.329 655.298 694.661 648.087 700.7Z" fill="white"/>
<path d="M619.952 751.247C625 754.733 671 849.5 634.5 859.5C598 869.5 610.139 767.78 612.338 754.733C600.5 747.586 606.954 738.469 609.056 737.506C611.159 736.543 616.037 742.696 619.952 751.247Z" fill="white"/>
<path d="M580.981 754.154C586.029 757.64 632.029 852.407 595.529 862.407C559.029 872.407 571.169 770.686 573.367 757.64C561.529 750.492 567.983 741.375 570.086 740.413C572.188 739.45 577.066 745.602 580.981 754.154Z" fill="white"/>
<path d="M397.782 422.013C402.078 421.675 409.022 427.844 412.37 430.641C431.158 446.334 444.355 466.089 453.743 488.417C461.392 466.082 483.47 431.349 506.782 422.013C508.346 422.465 510.034 422.885 510.829 424.466C514.252 431.272 496.131 482.407 491.789 497.303C505.127 489.607 513.42 481.6 529.298 474.973C546.059 467.979 546.83 475.884 537.453 487.348C522.372 505.782 509.684 529.283 499.851 550.735C502.935 548.917 506.954 545.786 510.198 544.128C512.713 542.866 548.965 526.697 545.998 537.036C545.173 539.912 540.396 541.966 537.964 543.431C539.618 545.478 542.246 547.685 544.177 549.545C565.741 570.25 575.489 591.563 582.576 619.673C591.379 599.926 621.639 575.92 639.862 566.726C666.955 553.058 621.779 631.307 619.318 637.429C624.483 634.78 671.704 612.678 673.244 625.721C673.586 628.626 670.181 631.885 668.142 633.517C648.429 649.795 630.873 670.161 617.08 691.65C624.979 689.074 653.892 681.421 660.415 684.02C670.341 687.978 642.179 707.287 639.563 709.476C630.735 716.867 622.454 726.539 616.031 736.072C674.859 793.551 658.689 949.426 597.422 998.516C555.276 1032.29 474.542 1024.73 437.138 986.446C433.243 982.444 430.187 976.339 426.601 971.785L426.247 971.339C421.152 972.874 414.334 978.694 408.575 981.411C384.357 992.833 358.152 996.748 331.799 991.943C276.616 979.62 253.907 924.771 243.32 875.092C233.989 831.312 231.441 775.008 256.88 736.072C247.699 732.573 238.51 726.302 229.116 722.68C224.182 720.777 197.276 711.55 194.448 709.272C180.274 697.851 225.056 688.234 235.277 688.873C218.333 671.562 193.076 661.058 176.525 646.302C174.13 644.167 174.551 638.248 177.822 637.032C193.53 631.189 220.669 639.115 235.277 643.248C226.389 632.807 199.059 596.995 195.515 585.135C192.365 574.589 211.384 582.158 214.936 583.705C236.553 593.115 249.889 606.283 266.592 622.138C264.205 594.167 276.999 564.91 291.45 541.69C293.081 539.07 296.11 534.084 299.504 537.614C303.661 541.938 305.495 597.36 305.619 606.962C313.249 599.195 328.53 577.639 340.093 576.953C343.688 576.741 343.459 581.311 342.89 583.754C337.908 605.148 332.428 626.642 330.016 648.533C336.98 643.31 355.571 623.241 363.325 629.386C366.639 632.013 361.856 641.328 360.161 644.802C352.934 659.627 344.411 674.803 343.356 691.65C344.944 692.068 346.663 692.431 348.273 692.801C356.352 651.835 372.019 619.111 405.307 593.935C394.38 582.158 385.395 571.078 373.668 559.293C370.7 556.31 344.122 536.643 357.78 532.603C372.793 528.16 388.617 537.741 402.041 543.431C391.116 524.222 380.045 505.415 367.429 487.235C359.726 476.139 359.956 469.443 375.92 474.485C391.038 479.26 404.691 487.508 417.055 497.303C413.242 485.021 390.012 429.003 397.782 422.013ZM592.922 805.939C599.641 804.06 590.703 785.073 585.138 785.008C576.171 789.892 589.137 803.881 592.922 805.939ZM383.033 716.483C379.062 712.419 373.642 706.038 367.503 706.473C363.426 714.589 377.647 722.12 381.825 722.528C383.209 720.474 382.963 718.996 383.033 716.483ZM386.212 882.438L386.898 882.277C387.825 880.592 388.107 879.029 388.766 877.256C393.497 864.524 402.885 843.321 405.307 830.631C395.52 822.84 371.108 807.084 359.778 800.961C352.456 818.315 345.831 836.13 339.142 853.751L371.061 872.905C376.276 876.101 381.288 878.773 386.212 882.438ZM531.541 549.39C521.394 557.673 509.439 576.208 503.476 587.706C511.624 591.623 524.629 600.391 530.702 606.962C535.162 609.969 540.55 616.399 544.392 620.528L535.75 569.862C534.838 564.748 533.349 554.208 532.188 549.65L531.541 549.39ZM634.91 787.825C634.356 788.534 633.596 789.567 633.019 790.212C630.498 791.777 629.812 792.438 628.249 794.969L628.384 795.611C632.921 816.802 635.338 829.946 632.52 852.587C632.387 853.653 632.453 854.117 633.019 854.914C633.289 856.43 633.378 857.572 633.494 859.11C636.771 857.23 638.071 854.254 639.455 850.977C643.954 833.209 640.731 804.479 634.91 787.825ZM606.091 700.125C610.321 680.328 649.337 643.606 666.813 627.23C664.904 627.617 663.29 628.039 661.414 628.542C640.264 644.985 608.971 676.091 601.211 703.037C602.515 702.461 605.427 701.285 606.091 700.125ZM324.786 655.383C323.732 634.93 338.405 591.363 337.304 583.608L336.557 583.86C335.926 588.293 331.35 597.256 330.016 603.29C324.974 618.487 319.904 644.397 320.895 660.219C322.154 658.247 322.873 656.625 324.786 655.383ZM394.038 768.149C394.301 771.468 399.525 778.807 403.573 776.113C405.241 771.578 397.321 768.554 394.038 768.149ZM295.706 560.945C296.516 574.71 293.631 614.779 297.124 625.054C297.79 622.958 301.04 616.7 300.987 615.17C300.363 596.983 299.567 572.938 297.124 555.222C296.752 556.443 295.923 560.406 295.706 560.945ZM626.782 788.996C628.268 787.701 629.705 786.35 631.148 785.008C631.406 784.672 632.665 783.405 633.019 783.033C630.203 772.047 626.445 762.747 620.958 752.865C616.423 747.342 614.146 744.354 606.913 746.502L606.402 746.634C607.712 747.365 608.548 747.172 610.005 747.907C614.275 753.748 625.252 781.39 626.782 788.996ZM611.094 730.93L611.527 731.167C612.543 730.877 614.993 727.532 615.841 726.41C626.951 711.72 640.933 700.738 654.946 688.873C652.605 689.451 650.476 689.885 648.105 690.341C641.652 696.107 612.139 722.933 611.094 730.93ZM326.109 792.384C321.866 799.462 332.527 806.194 338.215 805.939C343.54 800.677 331.535 792.5 326.109 792.384ZM497.808 583.86C501.503 585.995 505.401 574.07 507.99 570.208C516.64 557.307 524.869 548.463 536.886 538.788C534.579 539.139 531.203 540.281 528.786 540.942C528.769 541.357 528.754 541.771 528.739 542.187C515 554.771 506.482 567.398 497.808 583.86ZM536.886 478.355L534.249 479.722C516.165 503.047 503.34 516.069 493.883 546.762C492.813 550.237 490.039 556.482 491.789 559.755C492.522 557.881 493.109 555.684 493.752 553.744C503.268 525.011 520.363 502.867 536.886 478.355ZM479.59 509.611C486.262 503.241 485.475 502.74 487.552 494.006C492.018 475.237 499.954 457.249 503.476 438.246L503.087 438.232C497.988 450.258 478.951 497.689 479.59 509.611ZM347.229 737.455C336.098 743.918 359.759 755.205 363.113 756.157C373.831 750.13 353.423 738.302 347.229 737.455ZM642.111 572.688C633.826 588.776 602.174 638.343 601.211 649.889C613.755 639.017 609.106 643.164 617.186 627.991C621.078 620.681 642.794 577.655 642.517 572.268L642.111 572.688Z" fill="url(#paint0_linear_97_25)"/>
<path d="M295.706 543.431C296.629 548.095 297.063 550.475 297.124 555.221C296.752 556.443 295.923 560.406 295.706 560.944C296.516 574.71 293.631 614.778 297.124 625.054C295.308 634.806 284.731 666.128 291.022 672.622C294.409 673.202 294.859 656.5 295.239 653.658C299.476 621.993 312.118 602.5 336.557 583.86C335.926 588.292 331.35 597.255 330.016 603.289C324.975 618.486 319.904 644.396 320.895 660.218C322.154 658.246 322.873 656.625 324.786 655.382C325.023 657.92 324.767 662.501 324.786 665.347C330.063 658.862 333.165 651.086 340.403 645.783C341.155 645.232 362.849 627.609 358.266 635.2C351.221 654.213 343.512 664.162 339.142 685.247C339.186 687.036 339.193 688.546 339.142 690.341C324.981 690.685 316.61 693.861 303.949 699.189C298.336 701.96 293.829 704.279 288.515 707.626C283.172 696.292 250.909 659.188 250.705 656.91C260.01 661.921 268.758 669.703 275.231 677.983C276.687 679.845 279.23 685.681 281.972 682.707C284.994 668.818 250.712 653.808 244.31 646.267C232.291 632.109 208.359 601.424 201.092 583.86C223.56 592.597 240.558 604.03 258.059 621.044C260.528 623.445 269.311 635.249 271.145 634.708L271.587 633.458C268.145 609.24 277.713 577.823 288.873 556.716C291.215 552.289 293.647 548.005 295.706 543.431Z" fill="#58D85E"/>
<path d="M295.706 543.431C296.629 548.095 297.063 550.475 297.124 555.221C296.752 556.443 295.923 560.406 295.706 560.944C286.114 573.003 280.981 603.088 276.595 618.125C275.588 621.578 275.825 632.704 271.803 633.122L271.587 633.458C268.145 609.24 277.713 577.823 288.873 556.716C291.215 552.289 293.647 548.005 295.706 543.431Z" fill="#36C048"/>
<path d="M339.142 685.248C336.596 674.012 350.799 638.1 358.266 635.2C351.221 654.214 343.511 664.163 339.142 685.248Z" fill="#FEFDFC"/>
<path d="M565.398 667.64C562.908 661.624 561.498 653.69 558.973 647.202C553.765 633.82 552.184 632.795 549.567 618.102L540.962 567.924C540.075 562.946 538.738 556.643 538.535 551.741L538.915 551.789C541.627 553.925 542.565 555.491 544.392 558.321C566.155 573.041 577.189 615.602 577.889 640.311C581.244 636.061 583.845 627.679 587.036 622.504C599.2 602.786 620.098 580.769 642.111 572.688C633.826 588.776 602.174 638.343 601.211 649.888C598.652 652.855 573.146 674.924 580.799 677.758C583.38 677.414 619.603 630.058 661.414 628.541C640.264 644.985 608.971 676.09 601.211 703.036C602.515 702.461 605.427 701.284 606.091 700.125C610.184 698.373 645.139 690.085 648.105 690.341C641.652 696.107 612.139 722.933 611.094 730.93C600.837 721.049 583.528 714.916 569.879 711.739C566.287 711.655 562.612 711.254 559.025 710.925C563.206 696.926 565.177 689.973 565.398 675.004C565.261 673.212 565.389 669.548 565.398 667.64Z" fill="#58D85E"/>
<path d="M565.398 667.64C562.908 661.624 561.498 653.69 558.973 647.202C553.765 633.82 552.184 632.795 549.567 618.102L540.962 567.924C540.075 562.946 538.738 556.643 538.535 551.741L538.915 551.789C541.627 553.925 542.565 555.491 544.392 558.321C539.071 555.388 547.727 573.534 548.563 576.933C551.455 588.71 570.675 659.943 565.398 667.64Z" fill="#36C048"/>
<path d="M565.399 675.004L565.462 675.494C567.298 688.943 569.193 696.819 569.879 711.739C566.287 711.655 562.612 711.254 559.025 710.925C563.206 696.927 565.177 689.973 565.399 675.004Z" fill="#36C048"/>
<path d="M400.43 428.741C418.772 438.02 436.658 464.776 446.046 483.729C449.419 490.537 451.389 499.634 454.776 505.871L455.01 506.292C460.422 476.2 478.372 444.566 505.416 428.741C504.835 432.329 504.512 434.76 503.476 438.246L503.087 438.232C497.988 450.258 478.951 497.688 479.59 509.61C477.332 512.898 455.635 543.734 464.047 545.837C465.766 544.838 468.002 538.237 468.918 536.129C478.204 514.777 510.56 483.987 534.249 479.721C516.165 503.046 503.34 516.069 493.883 546.761C492.813 550.236 490.039 556.482 491.789 559.754L492.591 561.01C493.165 560.954 514.071 543.896 528.786 540.942C528.77 541.356 528.754 541.771 528.739 542.187C515 554.771 506.482 567.397 497.808 583.86C496.775 582.666 494.507 581.899 493.007 581.363C490.231 583.13 489.974 583.516 488.566 586.437C479.059 580.747 467.536 579.184 456.653 578.72H453.743C452.345 571.195 451.237 561.622 450.284 553.971L451.339 553.05C454.827 539.288 427.623 511.97 425.221 504.807C419.272 487.072 413.009 469.395 407.407 451.549C404.975 443.765 403.807 436.183 400.43 428.741Z" fill="#58D85E"/>
<path d="M628.249 794.97L628.384 795.612C632.921 816.803 635.338 829.946 632.52 852.588C632.387 853.654 632.453 854.118 633.019 854.914L631.148 855.629C629.567 858.889 630.071 861.565 631.148 864.747L626.782 869.885C627.299 871.09 628.103 872.478 629.082 873.353C630.44 872.083 631.551 871.054 633.019 869.885C634.695 880.996 641.764 900.842 639.456 911.169C636.588 928.326 627.296 944.703 620.958 960.476C618.589 956.827 616.848 952.241 615.034 948.23L604.442 924.895C601.533 918.501 598.711 911.419 594.653 905.751C604.915 898.035 617.146 885.004 626.782 875.911C626.611 873.724 626.033 872.492 624.902 870.633L617.08 877.999C609.348 886.252 599.685 893.022 592.922 901.525C585.413 885.185 576.25 863.897 566.837 848.629C575.014 838.979 590.127 827.888 599.995 819.172C603.342 816.132 606.165 813.363 610.005 810.932C615.526 824.701 622.671 842.851 628.967 856.111L629.442 856.103L630.3 854.914C632.25 841.698 620.007 818.79 613.118 806.872C616.431 803.876 624.478 796.682 628.249 794.97Z" fill="#FCCC35"/>
<path d="M599.995 819.172C600.694 822.81 605.789 830.99 606.913 834.936C606.087 836.993 604.945 839.833 605.386 842.096C606.494 847.789 614.536 873.558 617.08 877.999C609.348 886.252 599.685 893.022 592.922 901.525C585.413 885.185 576.25 863.897 566.837 848.629C575.014 838.979 590.127 827.888 599.995 819.172Z" fill="#FAB618"/>
<path d="M628.249 794.97L628.384 795.612C632.921 816.803 635.339 829.946 632.52 852.588C632.387 853.654 632.453 854.118 633.019 854.914L631.148 855.629C629.567 858.889 630.071 861.565 631.148 864.747L626.782 869.885C625.804 863.076 617.038 829.764 608.647 832.808C607.566 833.199 607.263 833.94 606.913 834.936C609.983 842.793 611.282 851.198 616.032 858.114C617.22 857.264 618.197 856.56 619.318 855.629C620.718 860.859 622.365 865.819 624.902 870.633L617.08 877.999C614.536 873.558 606.495 847.789 605.386 842.096C604.945 839.833 606.087 836.993 606.913 834.936C605.789 830.99 600.694 822.81 599.995 819.172C603.342 816.132 606.165 813.363 610.005 810.932C615.526 824.701 622.671 842.851 628.967 856.111L629.442 856.103L630.3 854.914C632.25 841.698 620.007 818.79 613.118 806.872C616.431 803.876 624.478 796.682 628.249 794.97Z" fill="#FCCC35"/>
<path d="M606.913 834.936C607.263 833.94 607.566 833.199 608.647 832.808C617.038 829.764 625.804 863.076 626.782 869.885C627.299 871.09 628.103 872.478 629.082 873.353C635.034 881.478 637.724 898.785 636.279 908.23L634.91 916.635C633.041 919.108 629.126 931.633 626.782 936.004C629.939 919.465 630.213 892.335 626.782 875.911C626.611 873.723 626.033 872.492 624.902 870.632C622.365 865.818 620.717 860.858 619.318 855.628C618.197 856.56 617.22 857.263 616.032 858.113C611.282 851.197 609.983 842.793 606.913 834.936Z" fill="#FEFDFC"/>
<path d="M633.019 869.884C634.695 880.996 641.764 900.841 639.456 911.169C637.898 904.236 639.304 889.731 634.812 882.026L634.256 881.705C633.582 883.986 641.892 904.559 634.91 916.634L636.279 908.23C637.724 898.785 635.034 881.478 629.082 873.353C630.441 872.083 631.551 871.054 633.019 869.884Z" fill="#FEE05F"/>
<path d="M409.64 591.38C401.841 578.457 379.153 556.759 367.802 546.477C366.212 545.037 360.117 539.718 359.725 538.214C367.867 528.942 409.946 554.737 411.771 554.567C414.925 550.066 383.423 501.898 379.814 496.417C369.355 480.536 359.63 471.97 384.894 483.811C409.803 494.321 431.924 515.648 443.078 540.497C444.87 544.489 445.699 552.355 450.284 553.971C451.237 561.622 452.345 571.195 453.743 578.72H456.653C437.824 578.212 425.347 581.073 409.64 591.38Z" fill="#21A32F"/>
<path d="M384.894 483.811C409.803 494.32 431.924 515.647 443.078 540.497C444.87 544.489 445.699 552.355 450.284 553.971C451.237 561.622 452.345 571.195 453.743 578.72C451.551 578.479 449.094 578.421 446.911 578.72C440.582 561.891 420.11 533.022 409.964 516.377C406.232 510.256 384.679 486.14 384.894 483.811Z" fill="#36C048"/>
<path d="M494.528 587.706C497.78 589.329 499.577 590.341 502.437 592.614C552.125 622.695 566.265 654.704 555.721 709.495L555.594 711.061C555.265 711.309 527.604 710.899 520.327 712.937C510.961 691.939 496.624 673.242 486.974 652.419L487.197 652.023C489.298 651.862 492.53 653.446 494.528 654.284C504.483 658.534 518.321 664.201 526.467 671.723C528.438 673.544 529.088 678.187 531.541 680.81C532.608 680.378 533.424 680.23 533.972 679.268C535.378 667.191 501.386 599.751 494.528 587.706Z" fill="#21A32F"/>
<path d="M502.437 592.614C552.125 622.695 566.265 654.704 555.721 709.495C554.727 707.707 554.068 704.973 553.444 702.986C543.571 671.537 535.22 638.464 515.727 611.294C513.399 608.049 502.35 595.691 502.437 592.614Z" fill="#58D85E"/>
<path d="M494.528 654.284C504.483 658.534 518.321 664.201 526.467 671.723C528.438 673.544 529.088 678.187 531.541 680.81C534.475 688.235 500.614 659.092 495.97 656.676C495.004 656.173 494.641 655.342 494.528 654.284Z" fill="#58D85E"/>
<path d="M194.414 651.947C191.27 649.908 182.394 644.71 180.578 642.266L180.54 641.489C187.915 634.215 243.244 649.179 250.705 656.911C250.909 659.189 283.172 696.293 288.515 707.626C284.85 710.121 281.77 712.162 278.482 715.187C270.449 721.275 266.062 724.997 259.872 733.061C240.889 721.119 221.118 713.057 199.751 706.303C198.982 706.06 198.298 705.597 197.852 704.927L198.11 704.079C211.637 689.804 239.664 693.654 256.052 700.125C247.547 691.318 233.228 680.03 223.711 672.209C218.868 668.793 214.027 665.522 209.264 661.977C204.374 658.906 199.212 655.23 194.414 651.947Z" fill="#36C048"/>
<path d="M223.711 672.209C232.834 669.388 272.705 708.587 278.482 715.186C270.449 721.274 266.062 724.996 259.872 733.061C240.889 721.119 221.118 713.057 199.751 706.302C198.982 706.06 198.298 705.597 197.852 704.926L198.11 704.079C211.637 689.804 239.664 693.654 256.052 700.125C247.547 691.318 233.228 680.03 223.711 672.209Z" fill="#21A32F"/>
<path d="M194.414 651.946C198.322 649.536 208.953 658.273 209.264 661.977C204.374 658.906 199.212 655.23 194.414 651.946Z" fill="#21A32F"/>
<path d="M591.419 909.359L605.169 939.433C608.175 946.072 611.796 953.688 614.263 960.476L617.08 965.983C610.891 982.05 591.145 997.003 576.786 1004.95C574.222 1000.5 572.966 998.675 571.648 993.672C567.415 988.934 556.744 966.491 553.758 959.881C551.868 956.524 549.304 951.658 547.221 948.532C562.539 935.836 576.488 922.3 591.419 909.359Z" fill="#FCCC35"/>
<path d="M614.263 960.476L617.08 965.982C610.891 982.05 591.145 997.003 576.786 1004.95C574.222 1000.5 572.966 998.675 571.648 993.672C576.63 992.769 592.758 983.719 596.653 980.108C603.169 975.251 608.54 966.36 614.263 960.476Z" fill="#E98F0D"/>
<path d="M553.758 959.881C563.897 963.427 569.192 974.263 588.367 978.169C590.415 978.586 594.933 979.3 596.653 980.108C592.758 983.72 576.63 992.769 571.648 993.673C567.415 988.935 556.744 966.491 553.758 959.881Z" fill="#FAB618"/>
<path d="M594.653 930.975C600.293 931.567 605.837 945.875 606.913 950.896C606.252 952.569 606.09 952.864 605.03 954.319C599.13 954.149 592.524 935.063 592.667 932.512C593.409 931.347 593.23 931.691 594.653 930.975Z" fill="#FCFCF1"/>
<path d="M562.388 850.977C571.148 868.916 579.78 886.993 588.818 904.786C584.098 908.963 547.367 942.74 545.038 943.022L544.392 941.963C534.42 926.513 525.644 906.542 516.107 889.988C531.14 878.613 548.33 863.504 562.388 850.977Z" fill="#FCCC35"/>
<path d="M562.388 874.39C565.142 874.591 578.039 886.414 569.879 892.453C565.887 894.068 554.992 878.295 562.388 874.39Z" fill="#FCFCF1"/>
<path d="M531.541 794.97C535.519 798.983 555.984 839.595 559.51 846.661C544.738 860.039 528.688 872.06 513.898 885.459C512.85 883.955 506.861 871.893 505.639 869.58L493.942 847.377C491.386 842.477 488.382 837.119 486.521 831.975C498.081 820.706 518.417 804.57 531.541 794.97Z" fill="#FCCC35"/>
<path d="M529.775 828.881C530.867 827.162 531.871 826.344 533.501 825.198C537.582 827.813 540.14 832.178 541.947 836.553C542.667 839.217 543.2 841.035 543.523 843.76C541.568 844.104 539.943 843.888 537.964 843.76C533.984 840.251 531.111 833.922 529.775 828.881Z" fill="#FCFCF1"/>
<path d="M543.523 843.76C537.764 842.966 537.271 840.637 541.947 836.553C542.667 839.217 543.201 841.035 543.523 843.76Z" fill="#FEFDFC"/>
<path d="M478.667 922.894C488.741 913.766 501.438 901.782 512.282 893.792C521.332 908.351 532.181 934.958 541.947 947.042L511.257 972.572C507.255 975.861 501.877 980.738 497.809 983.395C493.401 975.481 488.251 968.373 483.865 960.475C477.904 950.745 473.627 941.745 468.061 932.197C471.617 929.261 475.207 925.976 478.667 922.894Z" fill="#FCCC35"/>
<path d="M478.667 922.895C480.513 927.522 484.237 959.231 483.865 960.476C477.904 950.746 473.627 941.746 468.061 932.198C471.617 929.261 475.207 925.976 478.667 922.895Z" fill="#FAB618"/>
<path d="M516.107 932.198C523.635 931.199 527.551 935.115 529.775 941.964C529.125 943.856 528.786 944.616 527.22 945.849C523.998 945.254 505.642 935.716 516.107 932.198Z" fill="#FEFDFC"/>
<path d="M441.502 875.911C449.414 867.611 472.962 841.55 482.344 836.553C482.974 837.772 484.579 840.112 485.386 841.358C491.945 857.802 502.489 872.674 509.654 888.911C501.906 896.486 488.014 907.839 479.59 914.949C475.086 919.607 470.707 922.741 466.131 927.952C461.867 920.015 458.934 913.012 455.193 904.927L441.502 875.911Z" fill="#FAB618"/>
<path d="M479.59 914.948C477.86 908.152 481.778 844.767 485.386 841.357C491.945 857.802 502.489 872.673 509.654 888.91C501.906 896.486 488.014 907.838 479.59 914.948Z" fill="#FCCC35"/>
<path d="M580.995 759.551C587.324 764.903 603.011 797.823 606.913 805.939C601.876 810.323 565.13 843.249 564.022 843.485L563.316 842.7C560.645 836.858 557.185 830.653 554.133 824.954L535.672 791.154C549.345 782.093 567.072 766.259 580.995 759.551ZM592.922 805.939C599.641 804.06 590.703 785.072 585.138 785.008C576.171 789.892 589.137 803.881 592.922 805.939Z" fill="#FCCC35"/>
<path d="M338.215 858.113C352.737 868.078 369.804 877.172 384.894 886.661C379.581 899.94 374.337 914.452 369.263 927.951C367.835 932.102 366.215 936.168 364.62 940.258C349.515 931.054 334.648 922.879 319.492 913.149C320.746 908.239 322.952 902.089 324.786 897.351C327.104 887.154 333.793 867.891 338.215 858.113Z" fill="#FCCC35"/>
<path d="M319.492 913.15C320.746 908.24 322.952 902.09 324.786 897.352C337.795 906.121 353.723 923.759 369.263 927.952C367.835 932.103 366.215 936.169 364.62 940.259C349.515 931.055 334.648 922.88 319.492 913.15Z" fill="#FAB618"/>
<path d="M352.616 887.7C344.378 882.839 349.926 878.515 357.546 879.639C378.258 883.293 375.889 909.418 352.616 887.7Z" fill="white"/>
<path d="M352.616 887.7C344.378 882.839 349.926 878.515 357.546 879.639L359.229 880.934L358.339 881.265C357.455 886.541 356.15 883.676 354.407 884.977C353.922 887.854 356.155 887.818 352.616 887.7Z" fill="#FCFCF1"/>
<path d="M359.778 800.96C371.108 807.083 395.52 822.839 405.307 830.631C402.885 843.321 393.497 864.523 388.766 877.256C388.107 879.028 387.825 880.592 386.898 882.276L386.212 882.437C381.288 878.772 376.276 876.1 371.061 872.904L339.142 853.75C345.831 836.129 352.456 818.314 359.778 800.96ZM388.993 825.197C383.899 824.452 386.684 823.587 386.227 826.342C385.653 829.787 383.324 830.068 386.212 833.098C393.025 835.434 396.372 829.124 388.993 825.197ZM375.692 818.092C369.53 815.794 366.165 820.427 370.123 823.76C375.533 825 373.869 818.642 382.061 822.5L382.569 822.076C380.811 820.346 377.358 820.641 375.692 818.092Z" fill="#FCCC35"/>
<path d="M375.692 818.094C379.597 819.412 385.952 822.372 388.993 825.198C383.899 824.453 386.685 823.588 386.227 826.343C385.653 829.788 383.324 830.069 386.212 833.099C384.063 832.154 371.981 825.095 370.123 823.762C375.533 825.001 373.869 818.643 382.061 822.501L382.569 822.077C380.811 820.347 377.358 820.642 375.692 818.094Z" fill="#FEFDFC"/>
<path d="M310.457 770.777C325.298 779.495 341.233 789.028 355.657 798.46C349.065 814.457 342.616 836.469 335.516 850.871L334.831 850.977C321.984 842.748 300.512 831.392 289.863 822.016C290.756 812.311 304.69 782.507 310.457 770.777ZM338.215 805.939C343.54 800.678 331.535 792.5 326.109 792.385C321.866 799.463 332.527 806.194 338.215 805.939Z" fill="#FCCC35"/>
<path d="M287.45 826.389C288.748 827.284 289.533 827.833 290.701 828.881C304.834 837.151 319.637 847.071 333.831 855.628C329.773 866.63 322.829 882.354 320.895 893.792C318.201 898.65 316.716 905.098 315.235 910.498C310.91 906.669 272.86 878.515 271.587 877.999C277.404 861.56 281.51 843.549 287.45 826.389Z" fill="#FAB618"/>
<path d="M290.701 828.88C304.834 837.15 319.637 847.07 333.831 855.628C329.773 866.629 322.829 882.354 320.895 893.791C304.772 876.376 298.147 856.114 291.58 833.933C291.027 832.068 290.064 830.803 290.701 828.88Z" fill="#FCCC35"/>
<path d="M505.416 746.502L506.782 749.43C512.35 761.357 522.989 779.057 529.775 790.212C519.097 797.69 494.383 816.665 486.521 826.389C485.953 826.683 484.471 827.669 483.865 828.051C478.565 817.688 468.026 795.709 464.819 785.008C464.791 783.234 463.299 779.645 462.637 777.97C464.813 775.627 466.452 774.455 469.061 772.66C473.683 767.303 498.581 749.991 505.416 746.502Z" fill="#FCCC35"/>
<path d="M505.416 746.502L506.782 749.43C494.393 756.299 484.317 814.704 486.521 826.389C485.953 826.683 484.471 827.669 483.865 828.051C478.565 817.688 468.026 795.709 464.819 785.008C464.791 783.234 463.299 779.645 462.637 777.97C464.813 775.627 466.452 774.455 469.061 772.66C473.683 767.303 498.581 749.991 505.416 746.502Z" fill="#FAB618"/>
<path d="M462.637 777.969C464.813 775.626 466.452 774.454 469.061 772.659C468.7 775.559 466.493 782.638 464.819 785.008C464.791 783.233 463.299 779.644 462.637 777.969Z" fill="#E98F0D"/>
<path d="M380.174 749.43C395.935 758.292 409.909 767.911 424.887 777.97C419.017 791.919 411.869 810.423 407.877 825.198C392.678 818.389 376.259 805.018 361.517 796.37C366.774 782.187 373.468 762.679 380.174 749.43ZM403.573 776.113C405.241 771.579 397.321 768.554 394.038 768.149C394.301 771.468 399.525 778.807 403.573 776.113Z" fill="#FCCC35"/>
<path d="M424.887 651.947C427.892 654.157 456.702 689.343 458.12 691.65C448.339 702.975 435.393 719.516 424.887 729.767C424.593 730.559 423.749 732.224 423.359 733.061C415.633 721.486 403.441 706.111 394.038 695.596C398.525 686.99 417.646 659.043 424.887 651.947Z" fill="#FAB618"/>
<path d="M432.499 680.81C434.695 678.598 435.107 678.439 438.25 678.008C443.035 682.441 445.401 685.58 447.846 691.65C442.51 702.833 433.305 687.03 432.499 680.81Z" fill="#FEFDFC"/>
<path d="M432.499 680.81C424.842 669.945 435.103 668.435 438.25 678.008C435.107 678.439 434.695 678.598 432.499 680.81Z" fill="#FEE05F"/>
<path d="M463.7 613.272C467.492 615.266 468.768 616.677 471.882 619.673C475.561 623.04 480.075 627.452 483.865 630.467C489.766 637.838 497.034 645.079 503.476 651.946C497.799 650.423 492.001 648.322 486.521 647.05C484.552 647.324 484.132 647.609 482.344 648.533C480.389 652.769 483.659 657.904 485.386 661.977C479.971 665.766 465.931 682.402 461.489 687.883C452.422 676.419 438.665 658.282 427.86 648.533C432.542 642.13 457.186 617.476 463.7 613.272Z" fill="#FCCC35"/>
<path d="M483.865 630.467C489.766 637.838 497.034 645.079 503.476 651.946C497.799 650.423 492.001 648.322 486.521 647.05C484.552 647.324 484.132 647.609 482.344 648.533C481.743 646.71 479.588 642.354 478.667 640.312C481.752 639.004 482.378 638.157 483.865 635.2L482.344 633.459C482.635 632.588 483.395 631.321 483.865 630.467Z" fill="#FCCC35"/>
<path d="M483.865 635.2C487.102 639.342 491.898 642.865 486.521 647.05C484.552 647.324 484.132 647.609 482.344 648.533C481.743 646.71 479.588 642.354 478.667 640.312C481.752 639.005 482.378 638.157 483.865 635.2Z" fill="#F7EFCB"/>
<path d="M471.882 619.673C475.561 623.041 480.075 627.452 483.865 630.467C483.395 631.321 482.635 632.589 482.345 633.459L483.865 635.2C482.378 638.157 481.752 639.005 478.667 640.312C473.438 636.011 471.684 632.901 468.061 627.231C468.856 625.988 470.879 623.514 471.882 622.138C471.23 621.703 469.794 620.943 469.061 620.528C469.998 620.527 470.981 620.03 471.882 619.673Z" fill="#FEFDFC"/>
<path d="M471.882 619.673C475.561 623.041 480.075 627.452 483.865 630.467C483.395 631.321 482.635 632.589 482.344 633.459C479.223 629.338 475.616 625.7 471.882 622.138C471.23 621.703 469.794 620.943 469.061 620.528C469.998 620.527 470.981 620.03 471.882 619.673Z" fill="#FEE05F"/>
<path d="M468.061 627.23C464.817 624.123 461.237 617.983 469.061 620.528C469.794 620.943 471.23 621.703 471.882 622.138C470.879 623.514 468.856 625.988 468.061 627.23Z" fill="#F7EFCB"/>
<path d="M458.12 781.901C459.995 784.43 469.051 808.326 471.101 812.895C473.846 819.016 477.572 825.654 479.59 831.975C468.375 841.663 453.966 854.82 444.37 866.23L440.355 870.633C434.552 860.93 430.261 843.727 426.758 832.83C425.756 829.707 430.227 820.017 431.488 816.501C437.586 799.525 442.899 791.591 458.12 781.901Z" fill="url(#paint1_linear_97_25)"/>
<path d="M543.523 951.797C550.616 965.038 559.474 981.381 565.399 995.217C566.999 997.466 570.337 1004.33 571.648 1006.94C554.115 1013.6 539.991 1013.79 521.774 1013.69C516.069 1008.59 507.808 996.79 502.437 990.363L500.762 987.91C515.002 976.691 529.349 962.704 543.523 951.797Z" fill="#FAB618"/>
<path d="M502.437 990.363L502.913 990.421C526.202 993.386 539.079 999.219 565.399 995.217C566.999 997.466 570.336 1004.33 571.648 1006.94C554.115 1013.6 539.991 1013.79 521.774 1013.68C516.069 1008.59 507.808 996.79 502.437 990.363Z" fill="#E98F0D"/>
<path d="M318.086 918.257C333.527 927.68 346.467 936.811 363.113 944.381C359.051 953.199 355.374 963.417 351.525 972.518C349.872 976.113 347.386 984.009 346.118 987.909C332.193 986.667 317.342 981.954 305.619 974.415C306.395 968.401 307.243 962.799 308.25 956.817C309.94 945.359 314.779 929.695 318.086 918.257Z" fill="#FAB618"/>
<path d="M305.619 974.415C306.395 968.401 307.243 962.799 308.25 956.817C310.781 962.54 345.469 971.586 351.525 972.518C349.872 976.113 347.386 984.009 346.118 987.909C332.193 986.667 317.342 981.953 305.619 974.415Z" fill="#E98F0D"/>
<path d="M334.831 724.147C347.27 730.899 364.378 738.159 375.692 746.502C372.131 760.195 363.247 779.546 357.766 793.329C357.033 793.488 356.529 792.917 355.657 792.384C341.627 785.334 326.658 774.584 312.561 766.513C317.512 754.206 327.083 735.424 334.831 724.147ZM363.113 756.158C373.831 750.13 353.423 738.302 347.229 737.455C336.098 743.918 359.759 755.206 363.113 756.158Z" fill="#FCCC35"/>
<path d="M270.634 882.438C283.642 893.741 299.387 905.375 313.797 914.949C310.767 925.094 304.789 944.44 303.949 954.319C302.119 958.757 301.082 966.375 300.224 971.34C286.567 958.542 267.963 938.644 263.587 920.676C264.621 911.862 266.616 902.726 267.872 893.792C269.089 889.847 269.782 886.469 270.634 882.438Z" fill="#FAB618"/>
<path d="M267.872 893.792C271.603 913.651 287.651 942.966 303.949 954.318C302.119 958.756 301.082 966.375 300.224 971.339C286.567 958.541 267.963 938.644 263.587 920.675C264.621 911.862 266.616 902.725 267.872 893.792Z" fill="#E98F0D"/>
<path d="M550.452 722.528C555.824 726.948 574.459 748.926 577.889 754.907C563.32 765.828 547.946 775.435 533.501 787.092C528.793 778.007 523.119 768.452 517.949 759.551C514.952 753.886 511.818 749.277 509.654 743.169C512.509 741.331 514.786 740.494 517.949 739.268C523.833 734.677 543.508 724.338 550.452 722.528Z" fill="#FCCC35"/>
<path d="M517.949 739.268C517.834 743.927 518.519 756.734 517.949 759.551C514.952 753.886 511.818 749.277 509.654 743.168C512.509 741.331 514.786 740.493 517.949 739.268Z" fill="#FAB618"/>
<path d="M432.499 968.201C421.995 951.088 417.42 931.111 416.84 911.052C416.691 905.908 435.548 881.837 437.964 881.564L438.25 882.438C442.735 889.136 458.425 921.87 461.489 930.974C456.298 936.805 448.846 944.741 444.37 950.896C439.875 956.247 435.947 962.13 432.499 968.201Z" fill="#E98F0D"/>
<path d="M438.25 882.438C442.735 889.137 458.425 921.871 461.489 930.975C456.298 936.806 448.846 944.742 444.37 950.896C436.074 937.737 436.301 901.694 437.359 886.674C437.473 885.046 437.244 883.856 438.25 882.438Z" fill="#FAB618"/>
<path d="M388.993 889.989C396.399 893.551 403.347 897.991 410.529 901.524C410.394 916.801 410.549 925.371 414.114 940.258C415.345 944.797 417.241 950.747 418.186 955.152C420.247 958.251 421.765 961.05 423.359 964.412C417.599 963.441 413.301 961.92 407.877 959.88C397.979 956.536 377.862 947.535 369.263 941.963C370.296 938.583 372.09 934.334 373.4 930.975C378.383 917.442 384.383 903.409 388.993 889.989Z" fill="#FCCC35"/>
<path d="M373.4 930.975C384.594 934.724 402.456 940.461 414.114 940.258C415.345 944.797 417.241 950.747 418.186 955.152C420.247 958.251 421.765 961.05 423.359 964.412C417.599 963.441 413.301 961.92 407.877 959.881C397.979 956.536 377.862 947.535 369.263 941.963C370.296 938.583 372.09 934.334 373.4 930.975Z" fill="#FAB618"/>
<path d="M407.877 959.881C410.223 958.159 415.282 956.329 418.186 955.152C420.247 958.251 421.765 961.05 423.359 964.413C417.599 963.442 413.301 961.921 407.877 959.881Z" fill="#E98F0D"/>
<path d="M396.992 620.528C398.417 621.851 399.359 623.436 400.429 625.054C404.823 628.495 418.154 643.653 421.407 648.533C409.816 661.013 400.164 677.627 390.625 691.65L388.076 688.873C382.674 679.931 371.316 666.463 363.113 660.219C371.179 641.056 378.994 631.957 396.992 620.528Z" fill="#FCCC35"/>
<path d="M396.992 620.528C398.417 621.851 399.359 623.436 400.429 625.054C387.861 631.804 391.435 680.912 388.076 688.873C382.674 679.931 371.316 666.463 363.113 660.219C371.179 641.056 378.994 631.957 396.992 620.528Z" fill="#E98F0D"/>
<path d="M270.634 749.43C273.442 750.718 276.386 752.299 279.151 753.717C286.848 757.59 298.681 763.34 305.619 768.149C300.779 783.387 292.014 799.711 286.239 815.294C285.97 816.308 285.274 818.118 284.908 819.172C279.534 814.151 262.601 801.99 256.053 798.46C257.659 790.453 259.114 777.029 259.872 768.945C262.748 762.214 265.631 754.726 270.634 749.43Z" fill="#FAB618"/>
<path d="M279.151 753.717C286.848 757.59 298.682 763.341 305.619 768.149C300.779 783.387 292.014 799.711 286.24 815.295C281.437 811.08 275.511 760.634 279.151 753.717Z" fill="#FCCC35"/>
<path d="M461.489 695.596C468.874 702.249 480.065 718.093 486.521 726.403C471.485 739.133 460.927 748.885 450.284 766.513C449.492 767.588 449.98 767.356 448.955 767.663C441.096 758.55 435.385 745.663 426.247 735.386C437.881 723.167 449.844 706.956 461.489 695.596Z" fill="#FCCC35"/>
<path d="M446.911 956.817C450.85 949.983 458.836 941.404 464.819 936.003C474.174 955.23 483.57 968.97 494.528 986.514L491.789 987.909C487.422 992.631 479.142 998.179 473.711 1002.62C456.049 994.636 447.568 987.296 435.718 972.518C439.273 966.756 442.417 961.915 446.911 956.817Z" fill="#FAB618"/>
<path d="M446.911 956.817C456.065 971.294 470.834 981.659 487.343 986.778C488.62 987.175 490.708 987.243 491.789 987.909C487.422 992.631 479.142 998.179 473.711 1002.62C456.049 994.636 447.568 987.296 435.718 972.518C439.273 966.757 442.417 961.915 446.911 956.817Z" fill="#E98F0D"/>
<path d="M242.649 794.97C246.78 797.336 253.891 802.295 256.88 805.939C263.276 808.864 277.479 819.069 283.274 823.761C275.782 842.202 272.949 855.862 267.872 874.39C266.463 873.162 264.957 871.889 263.587 870.633C257.862 866.078 251.916 859.893 245.791 854.914C240.967 832.633 244.544 815.427 242.649 794.97Z" fill="#FAB618"/>
<path d="M242.649 794.97C246.78 797.336 253.891 802.295 256.88 805.939C252.78 810.768 262.103 858.289 263.587 870.633C257.862 866.078 251.916 859.893 245.791 854.914C240.967 832.633 244.544 815.427 242.649 794.97Z" fill="#E98F0D"/>
<path d="M295.706 714.221C305.213 715.409 321.247 718.567 330.016 722.528C323.385 736.688 314.807 749.236 308.25 764.499C298.261 757.923 289.034 753.802 279.151 747.907C276.116 746.948 274.421 746.095 271.587 744.649C275.31 739.525 280.618 732.614 284.908 728.239C288.231 722.801 292.511 719.481 295.706 714.221Z" fill="#FCCC35"/>
<path d="M284.908 728.239C285.085 731.08 280.523 745.159 279.151 747.907C276.116 746.948 274.421 746.095 271.587 744.649C275.31 739.525 280.618 732.613 284.908 728.239Z" fill="#FAB618"/>
<path d="M432.499 591.38C435.659 592.241 456.618 607.19 460.573 609.955C450.485 616.338 434.144 634.364 426.247 643.248C425.581 644 425.603 644.151 424.67 644.403C416.59 636.926 408.608 625.441 400.43 617.126C411.219 608.641 421.426 599.581 432.499 591.38Z" fill="#FCCC35"/>
<path d="M394.038 714.221C406.657 718.907 425.887 740.664 432.499 752.865C431.218 758.117 427.966 767.44 426.247 772.66L422.624 770.777C409.502 761.581 395.638 752.723 381.825 744.649C384.718 735.928 390.304 722.778 394.038 714.221Z" fill="#FCCC35"/>
<path d="M406.507 741.586C406.177 741.163 383.733 713.64 398.892 724.598C409.316 732.133 420.593 747.757 418.185 761.158C415.429 757.042 413.9 753.962 411.858 749.431C411.075 749.567 410.443 749.472 409.64 749.431C400.991 755.202 392.638 736.146 405.307 743.169L406.507 741.586Z" fill="#FEFDFC"/>
<path d="M406.507 741.585C409.336 744.178 410.431 745.796 411.858 749.43C411.075 749.566 410.443 749.471 409.64 749.43C408.805 747.138 407.168 744.751 405.307 743.168L406.507 741.585Z" fill="#FCCC35"/>
<path d="M487.511 665.347C489.236 666.785 512.868 709.852 513.898 714.221C505.706 715.979 497.857 719.111 491.136 724.147L490.415 724.238C482.667 713.425 473.317 701.91 464.819 691.65C471.498 682.284 480.095 674.291 487.511 665.347Z" fill="#FCCC35"/>
<path d="M367.503 947.042C377.545 952.533 391.263 959.278 402.041 963.179C406.967 964.893 412.261 966.457 417.055 968.201C402.118 981.941 371.028 988.538 351.525 987.909C352.484 983.684 354.896 975.998 357.546 972.518C359.029 966.687 364.751 952.566 367.503 947.042Z" fill="#E98F0D"/>
<path d="M367.503 947.042C377.546 952.533 391.263 959.278 402.041 963.179C392.089 969.631 369.011 971.124 357.546 972.518C359.029 966.687 364.751 952.566 367.503 947.042Z" fill="#FAB618"/>
<path d="M352.616 697.024C368.747 700.148 376.576 705.566 390.625 710.925C387.324 719.174 383.386 727.215 380.424 735.631C379.193 739.129 379.212 742.361 375.692 740.299C362.313 733.945 351.281 725.897 336.557 720.284C341.742 714.254 348.148 703.949 352.616 697.024ZM381.825 722.528C383.209 720.475 382.963 718.997 383.033 716.483C379.062 712.42 373.642 706.038 367.503 706.473C363.426 714.589 377.647 722.121 381.825 722.528Z" fill="#FCCC35"/>
<path d="M491.136 591.38C502.862 614.458 514.35 638.768 523.803 662.824C519.165 659.857 514.267 657.28 509.654 654.284C495.331 634.717 482.484 625.901 468.061 609.955C470.571 606.177 486.442 595.117 491.136 591.38Z" fill="#FCCC35"/>
<path d="M585.138 756.158C592.187 751.72 599.406 746.612 606.913 743.169C606.965 744.235 607.096 745.471 606.913 746.502L606.402 746.634C607.712 747.366 608.548 747.173 610.005 747.907C614.275 753.749 625.252 781.39 626.782 788.996C621.924 792.283 615.644 798.099 611.094 802.073C603.364 785.719 595.606 771.013 585.138 756.158Z" fill="#FCCC35"/>
<path d="M562.388 716.483C577.627 715.256 597.014 726.691 608 736.072C603.193 738.831 598.935 741.081 594.653 744.649C590.276 746.899 586.682 749.361 582.576 752.062C574.666 741.966 562.152 728.973 555.721 719.106C558.129 718.329 560.058 717.484 562.388 716.483Z" fill="#FCCC35"/>
<path d="M409.64 833.099C412.307 835.506 415.294 837.626 418.186 839.771C413.296 858.226 411.355 877.071 410.529 896.094C408.239 895.047 405.805 893.663 403.573 892.453C399.34 890.043 395.045 887.489 390.625 885.459C397.238 869.948 404.217 849.233 409.64 833.099Z" fill="#FCCC35"/>
<path d="M458.12 764.499C461.471 760.88 464.697 756.504 467.69 752.685C470.317 749.335 493.654 723.367 496.662 729.766C499.063 733.662 500.613 737.401 502.437 741.586C494.793 746.865 484.079 755.562 476.237 759.551C473.323 762.858 464.404 769.682 460.573 772.66C459.932 769.758 459.065 767.303 458.12 764.499Z" fill="#E98F0D"/>
<path d="M476.237 759.551L476.031 758.788C477.878 754.797 493.698 731.798 496.663 729.766C499.063 733.661 500.613 737.401 502.437 741.586C494.793 746.865 484.079 755.562 476.237 759.551Z" fill="#FCCC35"/>
<path d="M361.517 665.347C368.002 670.281 381.609 685.616 384.894 692.801C385.92 693.735 386.986 694.749 388.076 695.596C386.766 697.986 385.424 700.574 383.88 702.797L383.033 703.037C377.795 699.843 359.914 694.538 353.755 692.801C356.064 683.106 358.068 674.654 361.517 665.347Z" fill="#E98F0D"/>
<path d="M384.894 692.801C385.92 693.735 386.986 694.749 388.076 695.596C386.766 697.986 385.424 700.574 383.88 702.797L383.033 703.037C382.693 700.074 382.915 695.104 384.894 692.801Z" fill="#FAB618"/>
<path d="M336.557 695.596C339.598 695.199 345.091 695.463 348.273 695.596C343.95 702.872 336.523 711.796 333.831 719.105C327.503 716.746 321.7 714.849 315.235 712.938C308.946 711.472 303.504 710.421 297.124 709.495C307.293 701.592 323.896 696.752 336.557 695.596Z" fill="#FCCC35"/>
<path d="M450.284 583.86C460.802 583.108 476.441 585.258 486.521 588.587C481.152 593.788 473.969 597.228 469.061 603.29C466.23 605.033 466.272 604.685 463.7 606.962C454.381 599.998 446.26 594.229 436.604 587.706C441.364 584.564 444.742 583.934 450.284 583.86Z" fill="#FCCC35"/>
<path d="M516.107 719.106C528.513 715.213 542.76 714.949 555.721 715.187C537.594 722.476 526.971 727.965 509.654 737.455C509.438 737.659 507.187 739.017 506.782 739.268C504.631 734.41 502.549 729.764 499.851 725.181C504.544 722.809 511.063 720.294 516.107 719.106Z" fill="#FCCC35"/>
<path d="M499.851 725.181C504.544 722.809 511.063 720.294 516.107 719.105C514.296 722.537 509.5 734.144 509.654 737.455C509.438 737.659 507.187 739.017 506.782 739.268C504.631 734.41 502.549 729.764 499.851 725.181Z" fill="#E98F0D"/>
<path d="M423.359 842.7C424.717 843.678 434.261 871.853 435.718 875.911C431.366 880.577 425.747 886.96 422.624 892.453C420.063 895.385 419.188 896.704 417.055 899.996C416.146 887.839 420.279 856.161 423.359 842.7Z" fill="#E98F0D"/>
<path d="M427.86 780.698C431.404 782.757 434.908 785.417 438.25 787.824C430.702 801.414 424.275 818.218 419.794 833.098L419.519 833.579C418.951 833.584 411.734 829.459 410.529 828.88C415.515 819.633 425.469 791.028 427.86 780.698Z" fill="#FCCC35"/>
<path d="M258.707 744.649C261.109 745.453 262.963 746.575 265.088 747.906C260.952 754.47 257.497 761.278 256.053 768.945C257.233 769.052 258.667 768.974 259.872 768.945C259.114 777.029 257.659 790.453 256.053 798.46C253.23 795.809 247.766 790.848 244.542 788.996C246.409 776.118 251.356 755.171 258.707 744.649Z" fill="#E98F0D"/>
<path d="M247.204 863.353C250.486 865.252 262.957 876.391 266.592 879.639C263.883 888.468 261.997 895.548 261.36 904.786C260.632 906.464 260.196 908.708 259.872 910.498C254.838 898.942 248.926 875.427 247.204 863.353Z" fill="#E98F0D"/>
<path d="M634.91 787.826C636.737 786.819 637.724 786.225 639.456 785.009C643.227 809.053 647.794 821.725 647.307 848.629C645.135 851.195 642.666 853.391 640.159 855.629C639.165 854.137 639.422 852.796 639.456 850.978C643.954 833.209 640.731 804.48 634.91 787.826Z" fill="#FCCC35"/>
<path d="M497.809 991.943C497.222 991.708 513.525 1013.08 513.898 1013.68C509.406 1012.9 504.339 1011.67 499.851 1010.67C494.152 1009.4 484.697 1007.3 479.59 1004.95C483.181 1001.57 493.539 993.942 497.809 991.943Z" fill="#E98F0D"/>
<path d="M435.718 757.912C437.895 759.599 444.352 771.179 445.823 774.155C443.838 777.012 442.119 780.034 440.355 783.033C436.823 780.643 433.436 778.37 429.818 776.113C431.735 770.048 433.622 763.912 435.718 757.912Z" fill="#FCCC35"/>
<path d="M289.863 714.221L290.143 714.364C290.122 715.217 271.288 737.79 267.872 743.169L263.587 741.586L261.36 740.299C268.254 729.466 278.107 719.607 289.863 714.221Z" fill="#FAB618"/>
<path d="M642.111 861.06C643.811 859.254 645.544 857.362 647.307 855.629C647.162 864.892 645.349 880.704 643.734 889.989C641.854 885.317 640.881 880.74 639.455 875.911C638.46 872.589 637.698 869.575 636.574 866.231C638.315 864.368 640.206 862.751 642.111 861.06Z" fill="#FAB618"/>
<path d="M642.111 861.06C642.199 863.846 640.592 873.455 639.455 875.911C638.46 872.588 637.698 869.575 636.574 866.23C638.315 864.368 640.206 862.751 642.111 861.06Z" fill="#FEE05F"/>
<path d="M427.86 587.706L428.568 587.844C428.495 588.008 399.792 612.061 397.793 613.454L396.992 613.272L394.038 609.955C401.384 601.371 417.106 591.143 427.86 587.706Z" fill="#E98F0D"/>
<path d="M622.808 752.865C628.514 760.632 634.323 771.577 637.486 780.698C635.867 781.368 634.277 781.858 633.019 783.033C630.204 772.047 626.445 762.747 620.958 752.865C621.672 753.047 622.02 752.93 622.808 752.865Z" fill="#FCCC35"/>
<path d="M391.501 700.125C395.772 704.407 399.504 710.343 404.015 714.297L406.507 716.483L403.573 715.187C398.238 711.206 393.34 708.957 388.076 705.399C389.065 702.796 389.547 702.106 391.501 700.125Z" fill="#FCCC35"/>
<path d="M455.01 768.945C455.506 771.43 456.033 773.654 456.653 776.113C453.706 779.726 449.363 782.803 445.823 787.092L445.401 787.352L445.125 787.106C445.631 784.209 453.028 771.499 455.01 768.945Z" fill="#E98F0D"/>
<path d="M606.913 743.169C609.293 741.738 610.454 741.234 613.118 740.3C615.675 744.493 619.822 748.639 622.808 752.866C622.02 752.93 621.672 753.048 620.958 752.866C616.423 747.342 614.146 744.355 606.913 746.502C607.096 745.471 606.966 744.235 606.913 743.169Z" fill="#FCCC35"/>
<path d="M390.625 614.106C391.908 615.043 392.89 616.036 394.038 617.126C388.132 620.876 385.146 623.703 380.174 628.542C375.497 632.503 389.905 614.838 390.625 614.106Z" fill="#FAB618"/>
<path d="M633.494 859.11C636.771 857.23 638.071 854.253 639.455 850.977C639.422 852.795 639.165 854.136 640.159 855.628C639.132 856.645 634.026 862.844 633.494 859.11Z" fill="#FCCC35"/>
<path d="M633.019 783.033C633.392 784.829 633.569 786.522 634.91 787.825C634.356 788.535 633.596 789.568 633.019 790.212C632.639 788.55 632.231 786.035 631.148 785.008C631.406 784.672 632.665 783.405 633.019 783.033Z" fill="#977CBD"/>
<defs>
<linearGradient id="paint0_linear_97_25" x1="424.132" y1="422.678" x2="423.742" y2="1018.74" gradientUnits="userSpaceOnUse">
<stop/>
<stop offset="1"/>
</linearGradient>
<linearGradient id="paint1_linear_97_25" x1="429.91" y1="820.384" x2="477.435" y2="834.866" gradientUnits="userSpaceOnUse">
<stop stop-color="#DE7B04"/>
<stop offset="1" stop-color="#FFCE1C"/>
</linearGradient>
</defs>
</svg>
