<svg width="849" height="1183" viewBox="0 0 849 1183" fill="none" xmlns="http://www.w3.org/2000/svg">
<rect x="5" y="5" width="839" height="1173" rx="45" fill="white"/>
<rect x="5" y="5" width="839" height="1173" rx="45" stroke="black" stroke-width="10"/>
<circle cx="786.5" cy="1124.5" r="11.5" fill="black"/>
<circle cx="786.5" cy="59.5" r="11.5" fill="black"/>
<path d="M77 1124.5C77 1130.85 71.8513 1136 65.5 1136C59.1487 1136 54 1130.85 54 1124.5C54 1118.15 59.1487 1113 65.5 1113C71.8513 1113 77 1118.15 77 1124.5Z" fill="black"/>
<path d="M77 59.5C77 65.8513 71.8513 71 65.5 71C59.1487 71 54 65.8513 54 59.5C54 53.1487 59.1487 48 65.5 48C71.8513 48 77 53.1487 77 59.5Z" fill="black"/>
<mask id="path-6-inside-1_97_55" fill="white">
<path d="M708 48C713.523 48 717.934 52.4996 718.616 57.9801C723.122 94.1833 751.817 122.878 788.02 127.384C793.5 128.066 798 132.477 798 138V1046C798 1051.52 793.5 1055.93 788.02 1056.62C751.817 1061.12 723.122 1089.82 718.616 1126.02C717.934 1131.5 713.523 1136 708 1136H141C135.477 1136 131.066 1131.5 130.384 1126.02C125.878 1089.82 97.1833 1061.12 60.9801 1056.62C55.4996 1055.93 51 1051.52 51 1046V138C51 132.477 55.4996 128.066 60.9801 127.384C97.1833 122.878 125.878 94.1833 130.384 57.9801C131.066 52.4996 135.477 48 141 48H708Z"/>
</mask>
<path d="M708 48C713.523 48 717.934 52.4996 718.616 57.9801C723.122 94.1833 751.817 122.878 788.02 127.384C793.5 128.066 798 132.477 798 138V1046C798 1051.52 793.5 1055.93 788.02 1056.62C751.817 1061.12 723.122 1089.82 718.616 1126.02C717.934 1131.5 713.523 1136 708 1136H141C135.477 1136 131.066 1131.5 130.384 1126.02C125.878 1089.82 97.1833 1061.12 60.9801 1056.62C55.4996 1055.93 51 1051.52 51 1046V138C51 132.477 55.4996 128.066 60.9801 127.384C97.1833 122.878 125.878 94.1833 130.384 57.9801C131.066 52.4996 135.477 48 141 48H708Z" fill="#0089CB"/>
<path d="M130.384 1126.02L138.322 1125.03L130.384 1126.02ZM718.616 1126.02L710.678 1125.03L718.616 1126.02ZM788.02 1056.62L789.008 1064.56L788.02 1056.62ZM718.616 57.9801L726.555 56.9922L718.616 57.9801ZM718.616 57.9801L710.678 58.9681C715.635 98.8063 747.194 130.365 787.032 135.322L788.02 127.384L789.008 119.445C756.44 115.392 730.608 89.5603 726.555 56.9922L718.616 57.9801ZM798 138H790V1046H798H806V138H798ZM788.02 1056.62L787.032 1048.68C747.194 1053.64 715.635 1085.19 710.678 1125.03L718.616 1126.02L726.555 1127.01C730.608 1094.44 756.44 1068.61 789.008 1064.56L788.02 1056.62ZM708 1136V1128H141V1136V1144H708V1136ZM130.384 1126.02L138.322 1125.03C133.365 1085.19 101.806 1053.64 61.9681 1048.68L60.9801 1056.62L59.9922 1064.56C92.5603 1068.61 118.392 1094.44 122.445 1127.01L130.384 1126.02ZM51 1046H59V138H51H43V1046H51ZM60.9801 127.384L61.9681 135.322C101.806 130.365 133.365 98.8063 138.322 58.9681L130.384 57.9801L122.445 56.9922C118.392 89.5603 92.5603 115.392 59.9922 119.445L60.9801 127.384ZM141 48V56H708V48V40H141V48ZM130.384 57.9801L138.322 58.9681C138.438 58.0389 138.872 57.2306 139.427 56.6958C139.954 56.1887 140.494 56 141 56V48V40C130.84 40 123.547 48.1329 122.445 56.9922L130.384 57.9801ZM51 138H59C59 137.494 59.1887 136.954 59.6958 136.427C60.2306 135.872 61.0389 135.438 61.9681 135.322L60.9801 127.384L59.9922 119.445C51.1329 120.547 43 127.84 43 138H51ZM60.9801 1056.62L61.9681 1048.68C61.0389 1048.56 60.2306 1048.13 59.6958 1047.57C59.1887 1047.05 59 1046.51 59 1046H51H43C43 1056.16 51.1329 1063.45 59.9922 1064.56L60.9801 1056.62ZM141 1136V1128C140.494 1128 139.954 1127.81 139.427 1127.3C138.872 1126.77 138.438 1125.96 138.322 1125.03L130.384 1126.02L122.445 1127.01C123.547 1135.87 130.84 1144 141 1144V1136ZM718.616 1126.02L710.678 1125.03C710.562 1125.96 710.128 1126.77 709.573 1127.3C709.046 1127.81 708.506 1128 708 1128V1136V1144C718.16 1144 725.453 1135.87 726.555 1127.01L718.616 1126.02ZM798 1046H790C790 1046.51 789.811 1047.05 789.304 1047.57C788.769 1048.13 787.961 1048.56 787.032 1048.68L788.02 1056.62L789.008 1064.56C797.867 1063.45 806 1056.16 806 1046H798ZM788.02 127.384L787.032 135.322C787.961 135.438 788.769 135.872 789.304 136.427C789.811 136.954 790 137.494 790 138H798H806C806 127.84 797.867 120.547 789.008 119.445L788.02 127.384ZM718.616 57.9801L726.555 56.9922C725.453 48.1329 718.16 40 708 40V48V56C708.506 56 709.046 56.1887 709.573 56.6958C710.128 57.2306 710.562 58.0389 710.678 58.9681L718.616 57.9801Z" fill="black" mask="url(#path-6-inside-1_97_55)"/>
<path d="M690 102C695.523 102 699.911 106.512 700.837 111.957C705.019 136.563 724.437 155.981 749.043 160.163C754.488 161.089 759 165.477 759 171V1014C759 1019.52 754.488 1023.91 749.043 1024.84C724.711 1028.97 705.454 1048 700.984 1072.22C699.993 1077.59 695.633 1082 690.175 1082H158.825C153.367 1082 149.007 1077.59 148.016 1072.22C143.546 1048 124.288 1028.97 99.9568 1024.84C94.5121 1023.91 90 1019.52 90 1014V171C90 165.477 94.512 161.089 99.9568 160.163C124.563 155.981 143.981 136.563 148.163 111.957C149.089 106.512 153.477 102 159 102H690Z" fill="#4BADDC"/>
<path d="M234.99 395.93H210.255L206.005 408H195.89L217.055 348.84H228.275L249.44 408H239.24L234.99 395.93ZM232.27 388.025L222.665 360.57L212.975 388.025H232.27ZM282.273 360.4C285.956 360.4 289.243 361.165 292.133 362.695C295.079 364.225 297.374 366.492 299.018 369.495C300.661 372.498 301.483 376.125 301.483 380.375V408H291.878V381.82C291.878 377.627 290.829 374.425 288.733 372.215C286.636 369.948 283.774 368.815 280.148 368.815C276.521 368.815 273.631 369.948 271.478 372.215C269.381 374.425 268.333 377.627 268.333 381.82V408H258.643V361.165H268.333V366.52C269.919 364.593 271.931 363.092 274.368 362.015C276.861 360.938 279.496 360.4 282.273 360.4ZM334.158 408.765C329.738 408.765 325.743 407.773 322.173 405.79C318.603 403.75 315.798 400.917 313.758 397.29C311.718 393.607 310.698 389.357 310.698 384.54C310.698 379.78 311.746 375.558 313.843 371.875C315.939 368.192 318.801 365.358 322.428 363.375C326.054 361.392 330.106 360.4 334.583 360.4C339.059 360.4 343.111 361.392 346.738 363.375C350.364 365.358 353.226 368.192 355.323 371.875C357.419 375.558 358.468 379.78 358.468 384.54C358.468 389.3 357.391 393.522 355.238 397.205C353.084 400.888 350.138 403.75 346.398 405.79C342.714 407.773 338.634 408.765 334.158 408.765ZM334.158 400.35C336.651 400.35 338.974 399.755 341.128 398.565C343.338 397.375 345.123 395.59 346.483 393.21C347.843 390.83 348.523 387.94 348.523 384.54C348.523 381.14 347.871 378.278 346.568 375.955C345.264 373.575 343.536 371.79 341.383 370.6C339.229 369.41 336.906 368.815 334.413 368.815C331.919 368.815 329.596 369.41 327.443 370.6C325.346 371.79 323.674 373.575 322.428 375.955C321.181 378.278 320.558 381.14 320.558 384.54C320.558 389.583 321.833 393.493 324.383 396.27C326.989 398.99 330.248 400.35 334.158 400.35ZM364.817 384.54C364.817 379.723 365.78 375.502 367.707 371.875C369.69 368.192 372.41 365.358 375.867 363.375C379.324 361.392 383.29 360.4 387.767 360.4C393.434 360.4 398.109 361.76 401.792 364.48C405.532 367.143 408.054 370.968 409.357 375.955H398.902C398.052 373.632 396.692 371.818 394.822 370.515C392.952 369.212 390.6 368.56 387.767 368.56C383.8 368.56 380.627 369.977 378.247 372.81C375.924 375.587 374.762 379.497 374.762 384.54C374.762 389.583 375.924 393.522 378.247 396.355C380.627 399.188 383.8 400.605 387.767 400.605C393.377 400.605 397.089 398.14 398.902 393.21H409.357C407.997 397.97 405.447 401.767 401.707 404.6C397.967 407.377 393.32 408.765 387.767 408.765C383.29 408.765 379.324 407.773 375.867 405.79C372.41 403.75 369.69 400.917 367.707 397.29C365.78 393.607 364.817 389.357 364.817 384.54ZM443.239 360.4C446.809 360.4 449.982 361.165 452.759 362.695C455.592 364.225 457.802 366.492 459.389 369.495C461.032 372.498 461.854 376.125 461.854 380.375V408H452.249V381.82C452.249 377.627 451.2 374.425 449.104 372.215C447.007 369.948 444.145 368.815 440.519 368.815C436.892 368.815 434.002 369.948 431.849 372.215C429.752 374.425 428.704 377.627 428.704 381.82V408H419.014V345.1H428.704V366.605C430.347 364.622 432.415 363.092 434.909 362.015C437.459 360.938 440.235 360.4 443.239 360.4ZM517.139 383.435C517.139 385.192 517.026 386.778 516.799 388.195H481.014C481.297 391.935 482.686 394.938 485.179 397.205C487.672 399.472 490.732 400.605 494.359 400.605C499.572 400.605 503.256 398.423 505.409 394.06H515.864C514.447 398.367 511.869 401.908 508.129 404.685C504.446 407.405 499.856 408.765 494.359 408.765C489.882 408.765 485.859 407.773 482.289 405.79C478.776 403.75 475.999 400.917 473.959 397.29C471.976 393.607 470.984 389.357 470.984 384.54C470.984 379.723 471.947 375.502 473.874 371.875C475.857 368.192 478.606 365.358 482.119 363.375C485.689 361.392 489.769 360.4 494.359 360.4C498.779 360.4 502.717 361.363 506.174 363.29C509.631 365.217 512.322 367.937 514.249 371.45C516.176 374.907 517.139 378.902 517.139 383.435ZM507.024 380.375C506.967 376.805 505.692 373.943 503.199 371.79C500.706 369.637 497.617 368.56 493.934 368.56C490.591 368.56 487.729 369.637 485.349 371.79C482.969 373.887 481.552 376.748 481.099 380.375H507.024ZM523.445 384.54C523.445 379.723 524.408 375.502 526.335 371.875C528.318 368.192 531.038 365.358 534.495 363.375C537.951 361.392 541.918 360.4 546.395 360.4C552.061 360.4 556.736 361.76 560.42 364.48C564.16 367.143 566.681 370.968 567.985 375.955H557.53C556.68 373.632 555.32 371.818 553.45 370.515C551.58 369.212 549.228 368.56 546.395 368.56C542.428 368.56 539.255 369.977 536.875 372.81C534.551 375.587 533.39 379.497 533.39 384.54C533.39 389.583 534.551 393.522 536.875 396.355C539.255 399.188 542.428 400.605 546.395 400.605C552.005 400.605 555.716 398.14 557.53 393.21H567.985C566.625 397.97 564.075 401.767 560.335 404.6C556.595 407.377 551.948 408.765 546.395 408.765C541.918 408.765 537.951 407.773 534.495 405.79C531.038 403.75 528.318 400.917 526.335 397.29C524.408 393.607 523.445 389.357 523.445 384.54ZM620.567 383.435C620.567 385.192 620.453 386.778 620.227 388.195H584.442C584.725 391.935 586.113 394.938 588.607 397.205C591.1 399.472 594.16 400.605 597.787 400.605C603 400.605 606.683 398.423 608.837 394.06H619.292C617.875 398.367 615.297 401.908 611.557 404.685C607.873 407.405 603.283 408.765 597.787 408.765C593.31 408.765 589.287 407.773 585.717 405.79C582.203 403.75 579.427 400.917 577.387 397.29C575.403 393.607 574.412 389.357 574.412 384.54C574.412 379.723 575.375 375.502 577.302 371.875C579.285 368.192 582.033 365.358 585.547 363.375C589.117 361.392 593.197 360.4 597.787 360.4C602.207 360.4 606.145 361.363 609.602 363.29C613.058 365.217 615.75 367.937 617.677 371.45C619.603 374.907 620.567 378.902 620.567 383.435ZM610.452 380.375C610.395 376.805 609.12 373.943 606.627 371.79C604.133 369.637 601.045 368.56 597.362 368.56C594.018 368.56 591.157 369.637 588.777 371.79C586.397 373.887 584.98 376.748 584.527 380.375H610.452ZM639.793 367.965C641.209 365.585 643.079 363.743 645.403 362.44C647.783 361.08 650.588 360.4 653.818 360.4V370.43H651.353C647.556 370.43 644.666 371.393 642.683 373.32C640.756 375.247 639.793 378.59 639.793 383.35V408H630.103V361.165H639.793V367.965Z" fill="black"/>
<mask id="path-10-outside-2_97_55" maskUnits="userSpaceOnUse" x="401" y="1007" width="49" height="31" fill="black">
<rect fill="white" x="401" y="1007" width="49" height="31"/>
<path d="M420.2 1011.76H406.8V1019.72C407.36 1018.97 408.187 1018.35 409.28 1017.84C410.4 1017.33 411.587 1017.08 412.84 1017.08C415.08 1017.08 416.893 1017.56 418.28 1018.52C419.693 1019.48 420.693 1020.69 421.28 1022.16C421.893 1023.63 422.2 1025.17 422.2 1026.8C422.2 1028.77 421.813 1030.53 421.04 1032.08C420.293 1033.6 419.16 1034.8 417.64 1035.68C416.147 1036.56 414.307 1037 412.12 1037C409.213 1037 406.88 1036.28 405.12 1034.84C403.36 1033.4 402.307 1031.49 401.96 1029.12H406.4C406.693 1030.37 407.347 1031.37 408.36 1032.12C409.373 1032.84 410.64 1033.2 412.16 1033.2C414.053 1033.2 415.467 1032.63 416.4 1031.48C417.36 1030.33 417.84 1028.81 417.84 1026.92C417.84 1025 417.36 1023.53 416.4 1022.52C415.44 1021.48 414.027 1020.96 412.16 1020.96C410.853 1020.96 409.747 1021.29 408.84 1021.96C407.96 1022.6 407.32 1023.48 406.92 1024.6H402.6V1007.76H420.2V1011.76ZM426.387 1030.92V1027.48L439.827 1008.2H445.347V1026.96H449.067V1030.92H445.347V1037H440.867V1030.92H426.387ZM441.067 1012.84L431.627 1026.96H441.067V1012.84Z"/>
</mask>
<path d="M420.2 1011.76H406.8V1019.72C407.36 1018.97 408.187 1018.35 409.28 1017.84C410.4 1017.33 411.587 1017.08 412.84 1017.08C415.08 1017.08 416.893 1017.56 418.28 1018.52C419.693 1019.48 420.693 1020.69 421.28 1022.16C421.893 1023.63 422.2 1025.17 422.2 1026.8C422.2 1028.77 421.813 1030.53 421.04 1032.08C420.293 1033.6 419.16 1034.8 417.64 1035.68C416.147 1036.56 414.307 1037 412.12 1037C409.213 1037 406.88 1036.28 405.12 1034.84C403.36 1033.4 402.307 1031.49 401.96 1029.12H406.4C406.693 1030.37 407.347 1031.37 408.36 1032.12C409.373 1032.84 410.64 1033.2 412.16 1033.2C414.053 1033.2 415.467 1032.63 416.4 1031.48C417.36 1030.33 417.84 1028.81 417.84 1026.92C417.84 1025 417.36 1023.53 416.4 1022.52C415.44 1021.48 414.027 1020.96 412.16 1020.96C410.853 1020.96 409.747 1021.29 408.84 1021.96C407.96 1022.6 407.32 1023.48 406.92 1024.6H402.6V1007.76H420.2V1011.76ZM426.387 1030.92V1027.48L439.827 1008.2H445.347V1026.96H449.067V1030.92H445.347V1037H440.867V1030.92H426.387ZM441.067 1012.84L431.627 1026.96H441.067V1012.84Z" fill="black"/>
<path d="M420.2 1011.76V1012.06H420.5V1011.76H420.2ZM406.8 1011.76V1011.46H406.5V1011.76H406.8ZM406.8 1019.72H406.5V1020.62L407.04 1019.9L406.8 1019.72ZM409.28 1017.84L409.156 1017.57L409.154 1017.57L409.28 1017.84ZM418.28 1018.52L418.109 1018.77L418.111 1018.77L418.28 1018.52ZM421.28 1022.16L421.001 1022.27L421.003 1022.28L421.28 1022.16ZM421.04 1032.08L420.772 1031.95L420.771 1031.95L421.04 1032.08ZM417.64 1035.68L417.49 1035.42L417.488 1035.42L417.64 1035.68ZM405.12 1034.84L405.31 1034.61L405.12 1034.84ZM401.96 1029.12V1028.82H401.613L401.663 1029.16L401.96 1029.12ZM406.4 1029.12L406.692 1029.05L406.638 1028.82H406.4V1029.12ZM408.36 1032.12L408.182 1032.36L408.186 1032.36L408.36 1032.12ZM416.4 1031.48L416.17 1031.29L416.167 1031.29L416.4 1031.48ZM416.4 1022.52L416.18 1022.72L416.182 1022.73L416.4 1022.52ZM408.84 1021.96L409.016 1022.2L409.018 1022.2L408.84 1021.96ZM406.92 1024.6V1024.9H407.131L407.203 1024.7L406.92 1024.6ZM402.6 1024.6H402.3V1024.9H402.6V1024.6ZM402.6 1007.76V1007.46H402.3V1007.76H402.6ZM420.2 1007.76H420.5V1007.46H420.2V1007.76ZM420.2 1011.76V1011.46H406.8V1011.76V1012.06H420.2V1011.76ZM406.8 1011.76H406.5V1019.72H406.8H407.1V1011.76H406.8ZM406.8 1019.72L407.04 1019.9C407.563 1019.2 408.345 1018.6 409.406 1018.11L409.28 1017.84L409.154 1017.57C408.028 1018.09 407.157 1018.74 406.56 1019.54L406.8 1019.72ZM409.28 1017.84L409.404 1018.11C410.484 1017.62 411.628 1017.38 412.84 1017.38V1017.08V1016.78C411.545 1016.78 410.316 1017.04 409.156 1017.57L409.28 1017.84ZM412.84 1017.08V1017.38C415.039 1017.38 416.787 1017.85 418.109 1018.77L418.28 1018.52L418.451 1018.27C417 1017.27 415.121 1016.78 412.84 1016.78V1017.08ZM418.28 1018.52L418.111 1018.77C419.48 1019.7 420.439 1020.86 421.001 1022.27L421.28 1022.16L421.559 1022.05C420.948 1020.52 419.907 1019.26 418.449 1018.27L418.28 1018.52ZM421.28 1022.16L421.003 1022.28C421.601 1023.7 421.9 1025.21 421.9 1026.8H422.2H422.5C422.5 1025.13 422.186 1023.55 421.557 1022.04L421.28 1022.16ZM422.2 1026.8H421.9C421.9 1028.73 421.521 1030.45 420.772 1031.95L421.04 1032.08L421.308 1032.21C422.105 1030.62 422.5 1028.81 422.5 1026.8H422.2ZM421.04 1032.08L420.771 1031.95C420.051 1033.41 418.96 1034.57 417.49 1035.42L417.64 1035.68L417.79 1035.94C419.36 1035.03 420.535 1033.79 421.309 1032.21L421.04 1032.08ZM417.64 1035.68L417.488 1035.42C416.051 1036.27 414.267 1036.7 412.12 1036.7V1037V1037.3C414.346 1037.3 416.242 1036.85 417.792 1035.94L417.64 1035.68ZM412.12 1037V1036.7C409.263 1036.7 407.003 1035.99 405.31 1034.61L405.12 1034.84L404.93 1035.07C406.757 1036.57 409.164 1037.3 412.12 1037.3V1037ZM405.12 1034.84L405.31 1034.61C403.611 1033.22 402.593 1031.38 402.257 1029.08L401.96 1029.12L401.663 1029.16C402.02 1031.61 403.109 1033.58 404.93 1035.07L405.12 1034.84ZM401.96 1029.12V1029.42H406.4V1029.12V1028.82H401.96V1029.12ZM406.4 1029.12L406.108 1029.19C406.417 1030.51 407.11 1031.57 408.182 1032.36L408.36 1032.12L408.538 1031.88C407.583 1031.18 406.97 1030.24 406.692 1029.05L406.4 1029.12ZM408.36 1032.12L408.186 1032.36C409.261 1033.13 410.592 1033.5 412.16 1033.5V1033.2V1032.9C410.688 1032.9 409.486 1032.55 408.534 1031.88L408.36 1032.12ZM412.16 1033.2V1033.5C414.116 1033.5 415.627 1032.9 416.633 1031.67L416.4 1031.48L416.167 1031.29C415.306 1032.35 413.991 1032.9 412.16 1032.9V1033.2ZM416.4 1031.48L416.63 1031.67C417.646 1030.46 418.14 1028.86 418.14 1026.92H417.84H417.54C417.54 1028.76 417.074 1030.21 416.17 1031.29L416.4 1031.48ZM417.84 1026.92H418.14C418.14 1024.95 417.648 1023.4 416.618 1022.31L416.4 1022.52L416.182 1022.73C417.072 1023.67 417.54 1025.05 417.54 1026.92H417.84ZM416.4 1022.52L416.62 1022.32C415.587 1021.2 414.082 1020.66 412.16 1020.66V1020.96V1021.26C413.971 1021.26 415.293 1021.76 416.18 1022.72L416.4 1022.52ZM412.16 1020.96V1020.66C410.8 1020.66 409.628 1021.01 408.662 1021.72L408.84 1021.96L409.018 1022.2C409.865 1021.58 410.907 1021.26 412.16 1021.26V1020.96ZM408.84 1021.96L408.664 1021.72C407.73 1022.4 407.056 1023.33 406.637 1024.5L406.92 1024.6L407.203 1024.7C407.584 1023.63 408.19 1022.8 409.016 1022.2L408.84 1021.96ZM406.92 1024.6V1024.3H402.6V1024.6V1024.9H406.92V1024.6ZM402.6 1024.6H402.9V1007.76H402.6H402.3V1024.6H402.6ZM402.6 1007.76V1008.06H420.2V1007.76V1007.46H402.6V1007.76ZM420.2 1007.76H419.9V1011.76H420.2H420.5V1007.76H420.2ZM426.387 1030.92H426.087V1031.22H426.387V1030.92ZM426.387 1027.48L426.141 1027.31L426.087 1027.39V1027.48H426.387ZM439.827 1008.2V1007.9H439.67L439.581 1008.03L439.827 1008.2ZM445.347 1008.2H445.647V1007.9H445.347V1008.2ZM445.347 1026.96H445.047V1027.26H445.347V1026.96ZM449.067 1026.96H449.367V1026.66H449.067V1026.96ZM449.067 1030.92V1031.22H449.367V1030.92H449.067ZM445.347 1030.92V1030.62H445.047V1030.92H445.347ZM445.347 1037V1037.3H445.647V1037H445.347ZM440.867 1037H440.567V1037.3H440.867V1037ZM440.867 1030.92H441.167V1030.62H440.867V1030.92ZM441.067 1012.84H441.367V1011.85L440.817 1012.67L441.067 1012.84ZM431.627 1026.96L431.377 1026.79L431.065 1027.26H431.627V1026.96ZM441.067 1026.96V1027.26H441.367V1026.96H441.067ZM426.387 1030.92H426.687V1027.48H426.387H426.087V1030.92H426.387ZM426.387 1027.48L426.633 1027.65L440.073 1008.37L439.827 1008.2L439.581 1008.03L426.141 1027.31L426.387 1027.48ZM439.827 1008.2V1008.5H445.347V1008.2V1007.9H439.827V1008.2ZM445.347 1008.2H445.047V1026.96H445.347H445.647V1008.2H445.347ZM445.347 1026.96V1027.26H449.067V1026.96V1026.66H445.347V1026.96ZM449.067 1026.96H448.767V1030.92H449.067H449.367V1026.96H449.067ZM449.067 1030.92V1030.62H445.347V1030.92V1031.22H449.067V1030.92ZM445.347 1030.92H445.047V1037H445.347H445.647V1030.92H445.347ZM445.347 1037V1036.7H440.867V1037V1037.3H445.347V1037ZM440.867 1037H441.167V1030.92H440.867H440.567V1037H440.867ZM440.867 1030.92V1030.62H426.387V1030.92V1031.22H440.867V1030.92ZM441.067 1012.84L440.817 1012.67L431.377 1026.79L431.627 1026.96L431.876 1027.13L441.316 1013.01L441.067 1012.84ZM431.627 1026.96V1027.26H441.067V1026.96V1026.66H431.627V1026.96ZM441.067 1026.96H441.367V1012.84H441.067H440.767V1026.96H441.067Z" fill="black" mask="url(#path-10-outside-2_97_55)"/>
<path d="M261.445 272H240.865L213.46 230.63V272H192.88V197.975H213.46L240.865 239.87V197.975H261.445V272ZM283.563 207.635C279.923 207.635 276.983 206.655 274.743 204.695C272.573 202.665 271.488 200.145 271.488 197.135C271.488 194.055 272.573 191.5 274.743 189.47C276.983 187.44 279.923 186.425 283.563 186.425C287.133 186.425 290.003 187.44 292.173 189.47C294.413 191.5 295.533 194.055 295.533 197.135C295.533 200.145 294.413 202.665 292.173 204.695C290.003 206.655 287.133 207.635 283.563 207.635ZM293.748 213.095V272H273.168V213.095H293.748ZM327.203 212.36C331.193 212.36 334.658 213.165 337.598 214.775C340.608 216.385 342.918 218.555 344.528 221.285V213.095H365.108V271.37C365.108 276.9 364.058 281.87 361.958 286.28C359.858 290.76 356.568 294.33 352.088 296.99C347.678 299.65 342.078 300.98 335.288 300.98C326.188 300.98 318.908 298.845 313.448 294.575C307.988 290.305 304.873 284.495 304.103 277.145H324.368C324.788 279.035 325.838 280.505 327.518 281.555C329.198 282.605 331.368 283.13 334.028 283.13C341.028 283.13 344.528 279.21 344.528 271.37V263.81C342.918 266.54 340.608 268.71 337.598 270.32C334.658 271.93 331.193 272.735 327.203 272.735C322.513 272.735 318.243 271.51 314.393 269.06C310.613 266.61 307.603 263.11 305.363 258.56C303.193 253.94 302.108 248.585 302.108 242.495C302.108 236.405 303.193 231.085 305.363 226.535C307.603 221.985 310.613 218.485 314.393 216.035C318.243 213.585 322.513 212.36 327.203 212.36ZM344.528 242.495C344.528 238.715 343.478 235.74 341.378 233.57C339.348 231.4 336.828 230.315 333.818 230.315C330.738 230.315 328.183 231.4 326.153 233.57C324.123 235.67 323.108 238.645 323.108 242.495C323.108 246.275 324.123 249.285 326.153 251.525C328.183 253.695 330.738 254.78 333.818 254.78C336.828 254.78 339.348 253.695 341.378 251.525C343.478 249.355 344.528 246.345 344.528 242.495ZM415.58 212.57C422.3 212.57 427.62 214.845 431.54 219.395C435.53 223.875 437.525 229.965 437.525 237.665V272H416.945V240.395C416.945 237.035 416.07 234.41 414.32 232.52C412.57 230.56 410.225 229.58 407.285 229.58C404.205 229.58 401.79 230.56 400.04 232.52C398.29 234.41 397.415 237.035 397.415 240.395V272H376.835V194.3H397.415V221.495C399.235 218.835 401.685 216.7 404.765 215.09C407.915 213.41 411.52 212.57 415.58 212.57ZM483.573 254.465V272H474.648C459.598 272 452.073 264.545 452.073 249.635V230.21H444.828V213.095H452.073V198.815H472.758V213.095H483.468V230.21H472.758V249.95C472.758 251.56 473.108 252.715 473.807 253.415C474.578 254.115 475.838 254.465 477.588 254.465H483.573ZM524.827 230.21H515.587V272H494.902V230.21H488.497V213.095H494.902V212.57C494.902 205.01 497.107 199.235 501.517 195.245C505.997 191.185 512.402 189.155 520.732 189.155C522.412 189.155 523.707 189.19 524.617 189.26V206.795C524.057 206.725 523.287 206.69 522.307 206.69C520.067 206.69 518.422 207.215 517.372 208.265C516.322 209.245 515.727 210.855 515.587 213.095H524.827V230.21ZM528.822 242.495C528.822 236.405 529.907 231.085 532.077 226.535C534.317 221.985 537.327 218.485 541.107 216.035C544.957 213.585 549.227 212.36 553.917 212.36C557.977 212.36 561.477 213.165 564.417 214.775C567.357 216.385 569.632 218.555 571.242 221.285V213.095H591.822V272H571.242V263.81C569.632 266.54 567.322 268.71 564.312 270.32C561.372 271.93 557.907 272.735 553.917 272.735C549.227 272.735 544.957 271.51 541.107 269.06C537.327 266.61 534.317 263.11 532.077 258.56C529.907 253.94 528.822 248.585 528.822 242.495ZM571.242 242.495C571.242 238.715 570.192 235.74 568.092 233.57C566.062 231.4 563.542 230.315 560.532 230.315C557.452 230.315 554.897 231.4 552.867 233.57C550.837 235.67 549.822 238.645 549.822 242.495C549.822 246.275 550.837 249.285 552.867 251.525C554.897 253.695 557.452 254.78 560.532 254.78C563.542 254.78 566.062 253.695 568.092 251.525C570.192 249.355 571.242 246.345 571.242 242.495ZM624.129 194.3V272H603.549V194.3H624.129ZM656.429 194.3V272H635.849V194.3H656.429Z" fill="black"/>
<path d="M255.889 442.311C259.78 441.79 264.055 442.081 267.989 442.083L290.048 442.108L363.265 442.114L513.471 442.11L563.48 442.098C572.19 442.097 580.933 441.925 589.636 442.133C593.722 442.23 597.829 442.706 601.765 443.846C613.522 447.25 623.7 456.501 629.492 467.128C632.916 473.411 634.404 479.985 634.747 487.1C635.249 497.535 634.85 508.177 634.842 518.631L634.803 577.312L634.392 769.157L634.507 875.434L634.606 913.478C634.653 925.177 635.995 940.139 632.696 951.251C629.064 963.444 620.712 973.686 609.496 979.7C606.339 981.398 597.655 985.878 594.308 984.883C593.665 985.454 592.855 985.556 592.033 985.664C586.171 986.431 579.923 986.002 574.006 986.002L542.059 986.007L434.707 986.002L313.99 985.998L277.095 986.015C270.613 986.02 263.789 986.457 257.348 985.792C248.615 984.892 240.345 981.248 233.39 975.932C223.384 968.284 216.309 957.146 214.687 944.559C213.712 936.997 214.209 928.988 214.208 921.362L214.208 881.616L214.22 742.429L214.266 567.442L214.232 511.429C214.228 502.66 213.622 491.693 214.386 483.209C215.124 475.007 218.565 467.044 223.603 460.569C232.157 449.574 242.107 444.055 255.889 442.311Z" fill="black"/>
<path d="M257.25 458.366C261.051 457.854 265.287 458.18 269.131 458.184L291.564 458.211L367.69 458.205L515.125 458.211L563.205 458.19C571.69 458.184 580.223 457.994 588.704 458.21C592.041 458.296 595.137 458.694 598.312 459.785C606.171 462.486 612.604 468.497 616.188 475.968C618.008 479.763 618.759 483.839 618.913 488.021C619.209 496.016 618.956 504.117 618.949 512.122L618.924 557.526L618.908 696.799L618.907 857.857V913.863L618.911 931.273C618.915 934.519 619.096 937.905 618.801 941.134C618.581 943.556 617.979 945.991 617.172 948.28C614.223 956.653 607.323 963.431 599.363 967.156C597.547 968.005 594.048 969.54 592.056 968.82C591.702 969.124 591.314 969.278 590.856 969.364C587.639 969.964 583.741 969.557 580.441 969.561L558.693 969.566L477.959 969.561L330.865 969.557L283.879 969.57C275.613 969.578 267.068 970.029 258.838 969.446C253.404 969.06 248.603 966.985 244.167 963.911C237.187 959.075 232.018 951.86 230.529 943.406C229.592 938.086 230.091 932.144 230.107 926.729L230.152 898.726L230.155 793.242L230.156 587.545L230.149 521.748C230.137 510.28 229.635 498.562 230.204 487.117C230.486 481.449 231.864 476.448 235.205 471.791C241.029 463.673 247.499 459.957 257.25 458.366Z" fill="#34478D"/>
<path d="M431.089 825.708C437.58 806.316 448.983 790.985 467.623 781.706C482.858 774.122 501.487 772.63 517.66 778.052C531.713 782.833 543.301 792.983 549.89 806.283C553.516 813.602 555.65 821.828 556.318 829.956C556.392 829.969 556.465 829.982 556.539 829.986C559.851 830.355 563.509 829.099 566.941 829.249C578.606 829.751 590.934 836.923 598.267 845.78C606.779 856.06 609.408 869.578 608.158 882.636C606.86 896.196 600.788 908.659 590.195 917.353C581.857 924.199 571.228 928.058 560.619 929.515C546.212 931.496 527.615 930.287 512.786 930.021C493.378 929.781 473.969 929.678 454.559 929.713C445.699 929.717 436.854 930.176 427.998 930.21C410.508 930.274 392.963 930.377 375.476 930.184C369.078 930.116 362.685 929.798 356.287 929.721C348.881 929.627 341.46 929.918 334.051 929.944C331.313 929.953 328.403 930.141 325.681 929.884C325.203 929.837 324.782 929.687 324.363 929.46C322.491 930.441 319.522 930.098 317.506 929.777C309.09 928.444 300.87 922.866 295.969 915.925C292.124 910.485 290.631 903.964 291.783 897.409C292.1 885.779 295.094 874.765 303.744 866.487C312.364 858.238 324.496 855.593 336.115 855.97C338.914 856.06 348.595 858.23 349.925 857.917C351.2 854.29 352.495 850.65 354.295 847.246C359.746 836.944 369.228 828.027 379.716 823.007C391.983 817.132 406.627 815.588 419.573 820.165C423.651 821.605 427.338 823.573 431.089 825.708Z" fill="black"/>
<path d="M291.783 897.409C292.911 907.475 297.364 915.102 305.244 921.378C309.006 924.375 319.265 930.167 323.891 929.575C324.079 929.55 324.17 929.515 324.363 929.459C322.491 930.441 319.522 930.098 317.506 929.777C309.09 928.443 300.87 922.866 295.969 915.925C292.124 910.485 290.631 903.964 291.783 897.409Z" fill="#2A2F5F"/>
<path d="M443.525 828.931C444.594 825.3 445.815 821.746 447.502 818.351C453.786 805.701 465.775 794.747 479.251 790.276C492.504 785.879 508.444 787.029 520.922 793.255C531.794 799.155 538.637 808.833 542.099 820.606C543.425 825.155 544.122 829.862 544.17 834.603C544.204 837.604 543.631 841.544 544.409 844.408C544.725 845.57 545.69 846.68 546.749 847.246C548.41 848.133 550.44 847.833 552.151 847.254C554.422 846.483 556.591 845.227 558.786 844.245C564.831 841.548 570.651 841.883 576.582 844.755C584.735 848.703 591.451 855.992 594.35 864.6C597.707 874.563 596.353 886.048 591.683 895.39C587.225 904.376 579.333 911.188 569.789 914.287C563.863 916.234 557.597 917.087 551.385 917.4C545.15 917.717 538.851 917.588 532.606 917.571C514.351 917.52 496.059 916.705 477.808 916.894L378.273 917.125L345.943 917.151C340.006 917.16 333.934 917.421 328.015 917.057C323.72 916.791 319.496 915.912 315.649 913.923C310.447 911.235 306.082 906.746 304.37 901.062C302.528 894.94 304.068 888.016 307.064 882.52C310.539 876.145 316.222 871.734 323.168 869.697C332.097 867.078 340.614 868.621 349.019 872.111C351.459 873.123 354.345 874.679 356.983 874.919C358.364 875.043 359.554 874.349 360.254 873.17C361.166 871.631 361.309 869.534 361.599 867.794C361.678 864.93 362.442 861.856 363.316 859.125C366.641 848.742 374.381 840.258 384.024 835.302C392.474 830.963 403.176 829.064 412.466 831.315C415.94 832.155 419.081 833.634 422.447 834.71C423.893 835.885 425.679 836.678 427.134 837.857C430.446 840.549 432.76 845.004 437.235 846.037C438.216 846.264 439.242 846.311 440.106 845.715C443.07 843.683 442.723 832.721 443.525 828.931Z" fill="#63BED8"/>
<path d="M443.525 828.931C444.594 825.3 445.815 821.746 447.503 818.351C453.787 805.701 465.775 794.747 479.251 790.276C492.505 785.879 508.444 787.029 520.922 793.255C520.857 795.333 520.489 796.889 518.853 798.354C516.219 800.713 512.271 800.625 508.983 800.332C505.178 799.992 501.445 799.564 497.616 799.874C487.198 800.715 476.699 806.495 468.817 813.058C464.828 816.379 461.376 820.224 458.094 824.228C455.891 826.917 453.747 829.952 451.111 832.22C450.216 832.991 449.18 833.707 447.945 833.664C446.682 833.622 445.659 832.811 444.875 831.89C444.105 830.981 443.716 830.115 443.525 828.931Z" fill="#B6DFFD"/>
<path d="M361.6 867.794C361.678 864.93 362.442 861.856 363.316 859.126C366.641 848.742 374.382 840.258 384.025 835.302C392.474 830.964 403.176 829.064 412.466 831.315C415.94 832.155 419.081 833.634 422.448 834.711C423.018 837.497 424.79 841.793 422.998 844.438C422.536 845.12 421.755 845.565 420.951 845.694C417.39 846.269 412.936 844.729 409.254 844.498C395.7 843.645 384.079 850.577 375.924 860.948C373.738 863.726 370.005 870.341 366.344 870.808C365.22 870.949 364.251 870.563 363.38 869.873C362.644 869.29 362.097 868.587 361.6 867.794Z" fill="#B6DFFD"/>
<path d="M364.658 697.823C349.838 666.936 349.257 630.518 360.566 598.423C371.349 567.826 392.252 543.66 421.652 529.629C429.844 525.719 455.345 516.418 463.551 519.244C465.705 519.994 467.463 521.583 468.427 523.65C469.728 526.376 470.284 530.209 469.214 533.096C467.647 537.323 460.276 546.699 457.484 551.289C447.326 567.985 436.69 590.334 437.387 610.345C437.682 618.81 440.073 627.448 443.474 635.17C451.498 653.345 466.474 667.545 485.052 674.595C503.904 681.891 527.653 682.395 546.263 674.087C550.467 672.21 558.833 666.263 563.468 667.897C565.21 668.511 566.794 670.021 567.538 671.709C570.014 677.327 566.568 685.443 564.332 690.746C553.317 716.873 531.022 738.172 504.867 748.798C477.289 759.972 446.395 759.699 419.02 748.04C410.014 744.229 400.33 739.086 393.041 732.492C391.055 731.756 389.197 730.392 387.504 729.127C379.317 723.016 366.165 708.21 364.658 697.823Z" fill="black"/>
<path d="M364.658 697.823C370.26 706.645 375.753 713.87 382.796 721.57C386.068 725.147 390.135 728.669 393.041 732.492C391.055 731.756 389.197 730.392 387.504 729.127C379.317 723.016 366.165 708.21 364.658 697.823Z" fill="#2A2F5F"/>
<path d="M451.346 532.325C451.845 532.28 452.307 532.394 452.769 532.58C453.397 532.831 453.887 533.331 454.094 533.979C454.374 534.851 454.177 535.479 453.744 536.248C451.846 539.62 449.151 542.762 446.903 545.922C442.555 552.037 438.602 558.427 435.478 565.257C424.657 588.92 420.729 611.937 430.083 636.731C438.3 658.564 454.924 676.196 476.24 685.685C500.74 696.756 527.219 695.696 552.054 686.361C541.047 710.013 522.256 727.584 497.897 736.745C492.071 738.835 486.068 740.395 479.961 741.408C454.226 745.62 426.758 739.977 405.468 724.671C384.751 709.777 371.993 690.021 367.884 664.866C362.767 633.548 368.842 600.781 387.619 574.806C399.404 558.503 415.853 546.328 434.109 538.095C439.661 535.59 445.306 533.296 451.346 532.325Z" fill="url(#paint0_linear_97_55)"/>
<path d="M416.777 555.096C417.611 555.11 418.544 555.193 419.252 555.68C419.981 556.182 420.38 556.98 420.513 557.838C421.021 561.121 418.707 564.696 416.886 567.217C411.53 574.629 398.911 591.702 389.633 593.167C389.256 593.019 388.876 592.879 388.504 592.72C387.4 592.248 386.629 591.584 386.225 590.414C385.492 588.288 386.377 585.811 387.322 583.896C391.495 575.438 407.693 558.1 416.777 555.096Z" fill="#FFE682"/>
<path d="M262.635 729.235C263.173 724.085 264.564 719.93 268.7 716.579C275.292 711.24 284.063 711.435 290.993 706.962C300.28 700.969 300.635 683.646 315.984 685.505C319.995 685.991 323.155 688.298 325.585 691.431C329.028 695.872 330.841 702.681 335.316 706.095C341.642 710.92 358.462 708.491 362.752 719.761C363.662 722.116 363.949 724.666 363.587 727.165C362.165 737.059 353.682 741.198 350.768 748.707C346.804 758.92 359.276 773.034 344.928 783.393C341.511 785.86 337.477 787.103 333.269 786.422C327.165 785.434 322.104 781.273 316.03 780.066C313.663 781.177 310.773 781.162 308.323 782.276C304.443 784.039 301.26 786.995 297.158 788.415C296.171 788.76 295.152 789.007 294.116 789.152C289.955 789.713 286.311 788.116 283.056 785.628C280.622 783.767 278.893 781.645 278.483 778.555C274.691 769.617 277.732 764.559 277.668 755.881C277.642 752.389 276.676 750.25 274.194 747.847C273.762 747.783 273.333 747.697 272.915 747.569C268.989 746.364 265.427 744.35 263.436 740.631C261.516 737.041 261.493 733.066 262.635 729.235Z" fill="black"/>
<path d="M278.483 778.556C281.135 782.147 283.757 784.466 288.326 785.171C298.547 786.746 307.696 778.149 316.031 780.067C313.664 781.178 310.773 781.163 308.324 782.276C304.443 784.039 301.26 786.996 297.158 788.416C296.171 788.761 295.152 789.008 294.117 789.153C289.956 789.714 286.311 788.117 283.056 785.629C280.623 783.768 278.893 781.645 278.483 778.556Z" fill="#2A2F5F"/>
<path d="M262.635 729.235C263.837 737.22 269.263 742.041 274.194 747.846C273.762 747.783 273.333 747.697 272.915 747.569C268.989 746.364 265.427 744.35 263.436 740.63C261.516 737.041 261.493 733.066 262.635 729.235Z" fill="#2A2F5F"/>
<path d="M277.504 724.498C285.752 720.375 296.789 720.681 302.048 713.237C304.914 709.18 306.569 703.79 310.322 700.44C311.286 699.58 312.532 698.623 313.896 698.777C318.437 699.291 322.888 711.121 325.613 714.772C330.452 721.257 337.953 721.025 345.37 722.079C347.184 722.358 349.527 722.91 350.699 724.449C351.334 725.283 351.47 726.295 351.319 727.311C350.068 735.733 339.064 738.94 338.102 747.053C337.393 753.024 343.051 770.007 338.254 773.433C329.889 775.834 321.804 766.131 313.095 766.635C307.066 766.984 294.621 776.36 289.765 773.564C288.551 772.865 287.853 771.578 287.553 770.245C286.01 763.394 291.471 751.13 288.595 745.528C286.268 740.994 270.935 732.048 275.139 726.306C275.696 725.544 276.687 724.956 277.504 724.498Z" fill="#FFBE07"/>
<path d="M345.37 722.079C347.184 722.358 349.527 722.91 350.699 724.449C351.334 725.282 351.47 726.295 351.319 727.311C350.068 735.733 339.064 738.94 338.102 747.053C337.393 753.024 343.051 770.007 338.254 773.433C329.889 775.834 321.804 766.131 313.095 766.634C307.066 766.983 294.621 776.36 289.765 773.564C288.551 772.864 287.853 771.577 287.553 770.245C286.01 763.393 291.471 751.13 288.595 745.528C286.268 740.994 270.935 732.048 275.139 726.306C275.696 725.544 276.687 724.956 277.504 724.498C279.79 729.368 288.564 734.433 291.478 741.507C293.745 747.012 290.121 755.025 291.969 758.868C293.884 762.849 306.596 756.246 309.943 755.467C316.23 754.003 322.462 758.113 328.217 760.238C329.863 760.846 332.334 761.745 334.025 760.962C336.533 758.118 333.929 746.584 335.003 741.755C336.657 734.323 343.722 731.59 345.37 722.079Z" fill="#FE9200"/>
<path d="M261.629 546.785C262.135 542.482 263.607 539.103 267.075 536.378C273.175 531.585 280.034 531.978 285.258 528.338C294.182 522.118 295.167 505.736 309.299 507.455C312.924 507.896 315.551 509.957 317.735 512.773C320.773 516.69 322.793 522.985 326.725 525.948C334.204 531.584 346.777 527.976 351.263 538.347C352.314 540.777 352.701 543.645 352.376 546.271C351.283 555.102 344.256 558.63 341.961 565.635C338.652 575.735 348.3 588.519 337.965 596.38C334.547 598.979 330.356 600.001 326.118 599.368C322.722 598.861 319.829 597.359 316.915 595.64C314.783 595.195 312.456 594.669 310.269 594.858C303.809 595.417 298.369 603.323 290.119 604.454C285.2 605.13 280.984 603.241 277.137 600.31C273.384 597.427 270.964 593.145 270.431 588.444C270.046 585.247 270.592 583.192 272.585 580.69C273.288 576.222 273.761 571.72 274.001 567.204C269.412 563.683 263.152 559.332 261.211 553.685C260.388 551.292 260.549 549.056 261.629 546.785Z" fill="black"/>
<path d="M316.916 595.64C314.783 595.196 312.457 594.669 310.269 594.858C303.809 595.417 298.369 603.323 290.119 604.455C285.2 605.13 280.984 603.242 277.137 600.31C273.384 597.428 270.964 593.145 270.431 588.444C270.046 585.247 270.592 583.193 272.585 580.69C272.455 585.912 272.958 590.175 276.752 594.146C280.105 597.655 284.732 599.662 289.585 599.712C297.84 599.768 302.399 593.017 310.021 591.474C312.679 592.498 314.707 593.864 316.916 595.64Z" fill="#2A2F5F"/>
<path d="M274.001 567.204C269.412 563.684 263.152 559.332 261.211 553.685C260.388 551.292 260.549 549.056 261.629 546.785C263.258 557.173 272.997 560.227 274.001 567.204Z" fill="#2A2F5F"/>
<path d="M283.959 577.782C286.737 564.862 286.515 561.489 276.963 552.237C275.65 550.966 274.008 549.503 273.393 547.738C273.05 546.753 273.086 545.499 273.573 544.563C275.489 540.883 284.832 540.028 288.676 538.905C295.51 536.909 297.541 531.37 300.676 525.64C301.935 523.341 304.183 520.274 306.889 519.609C311.684 518.43 315.318 531.149 318.486 534.598C323.437 539.989 331.95 537.698 337.887 541.067C339.19 541.806 340.566 542.999 340.883 544.525C341.987 549.856 332.706 557.074 330.17 561.449C327.795 565.547 330.215 572.09 331.337 576.316C331.882 579.221 332.974 584.125 331.092 586.684C330.598 587.356 329.934 587.705 329.107 587.761C322.619 588.197 315.817 578.06 307.97 579.421C301.829 580.487 289.729 591.525 284.904 586.558C283.604 585.22 283.353 582.991 283.48 581.208C283.561 580.062 283.77 578.914 283.959 577.782Z" fill="#FFBE07"/>
<path d="M283.959 577.783C294.063 580.264 299.391 572.326 308.414 572.382C314.167 572.418 319.178 576.659 324.766 577.644C327.126 578.059 329.346 577.703 331.337 576.317C331.882 579.221 332.974 584.125 331.092 586.685C330.599 587.357 329.935 587.706 329.108 587.761C322.619 588.198 315.817 578.061 307.97 579.422C301.829 580.488 289.729 591.526 284.904 586.559C283.604 585.221 283.353 582.991 283.48 581.208C283.561 580.063 283.77 578.915 283.959 577.783Z" fill="#FE9200"/>
<path d="M498.872 545.661C497.603 542.327 497.067 538.834 498.546 535.441C500.087 531.903 503.793 529.478 507.279 528.145C511.838 526.401 517.831 526.375 521.767 523.331C528.281 518.291 527.383 507.701 537.907 506.015C540.452 505.608 542.987 505.884 545.327 506.984C551.796 510.025 554.035 517.094 559.331 521.34C566.186 526.835 578.86 522.974 582.265 532.966C583.499 536.587 582.334 540.157 580.666 543.437C578.217 548.253 574.912 552.505 571.305 556.499C571.535 564.674 575.088 575.825 568.715 582.435C567.195 584.012 565.369 584.967 563.335 585.722C554.286 590.453 549.184 582.738 540.734 583.356C534.432 583.817 530.341 589.088 523.006 588.958C518.957 588.886 515.404 587.077 512.649 584.146C510.609 581.976 510.136 579.85 510.253 576.944C509.266 570.881 511.271 564.837 510.145 558.651C508.281 557.739 506.547 556.402 504.959 555.069C502.027 552.61 499.202 549.632 498.872 545.661Z" fill="black"/>
<path d="M510.253 576.944C511.377 580.231 513.413 583.46 516.627 585.051C519.802 586.622 523.841 586.619 527.144 585.477C531.145 584.093 534.559 581.297 538.672 580.203C546.647 578.081 555.004 585.406 563.335 585.722C554.287 590.453 549.185 582.737 540.734 583.356C534.432 583.817 530.341 589.088 523.007 588.958C518.958 588.886 515.404 587.077 512.649 584.146C510.61 581.976 510.136 579.85 510.253 576.944Z" fill="#2A2F5F"/>
<path d="M498.873 545.661C502.24 550.125 508.209 553.348 510.145 558.651C508.281 557.739 506.547 556.402 504.959 555.07C502.027 552.61 499.202 549.633 498.873 545.661Z" fill="#2A2F5F"/>
<path d="M515.887 536.664C522.343 534.966 527.904 534.981 531.582 528.626C533.411 525.466 535.489 517.478 539.12 516.404C540.057 516.127 541.144 516.423 541.945 516.935C546.654 519.939 546.808 527.842 551.263 531.369C555.446 534.679 568.419 533.5 570.695 537.13C570.786 541.281 564.034 547.89 561.274 550.765C560.957 551.094 560.637 551.421 560.313 551.743C560.267 554.067 560.212 556.401 560.503 558.712C561.183 564.104 562.798 569.554 562.685 575.012C552.323 572.755 544.492 563.748 534.432 569.642C532.178 571.138 529.915 572.76 527.542 574.062C526.058 574.877 524.466 575.557 522.767 575.054C522.202 574.651 521.795 574.298 521.613 573.604C520.487 569.31 523.33 560.786 522.262 555.249C520.981 548.607 512.339 547.399 510.45 541.377C510.191 540.552 510.127 539.63 510.599 538.867C511.518 537.379 514.288 537.051 515.887 536.664Z" fill="#FFBE07"/>
<path d="M534.432 569.641C532.178 571.138 529.915 572.76 527.542 574.062C526.058 574.877 524.466 575.556 522.767 575.054C522.202 574.65 521.795 574.298 521.613 573.603C520.487 569.31 523.33 560.786 522.262 555.248C520.981 548.607 512.339 547.399 510.45 541.377C510.191 540.551 510.127 539.63 510.599 538.867C511.518 537.378 514.288 537.051 515.887 536.664C515.67 537.98 515.354 539.111 516.152 540.292C519.271 544.913 524.317 542.585 525.976 550.965C526.807 555.159 525.864 565.536 527.796 568.557C528.165 569.135 528.879 569.509 529.538 569.631C531.161 569.931 532.78 569.349 534.432 569.641Z" fill="#FE9200"/>
<path d="M276.497 646.348C279.615 645.629 282.742 647.513 283.563 650.606C284.383 653.699 282.6 656.885 279.535 657.805C277.462 658.427 275.214 657.87 273.67 656.353C272.128 654.835 271.534 652.597 272.122 650.514C272.711 648.432 274.387 646.835 276.497 646.348Z" fill="#FFE682"/>
<path d="M284.748 827.444C285.332 827.376 285.92 827.337 286.508 827.328C287.905 827.315 289.208 827.834 290.17 828.863C291.227 829.995 291.679 831.521 291.618 833.052C291.55 834.728 290.847 836.323 289.582 837.437C288.881 838.055 288.125 838.565 287.165 838.509C287.084 838.569 287.006 838.633 286.924 838.693C286.079 839.315 284.97 839.409 283.958 839.178C282.851 838.925 281.919 838.106 281.323 837.167C280.367 835.654 280.129 833.832 280.568 832.113C281.167 829.768 282.748 828.589 284.748 827.444Z" fill="#FFE682"/>
<path d="M392.71 776.925C393.798 776.922 394.915 777.075 395.893 777.583C397.049 778.183 397.824 779.14 398.206 780.382C398.723 782.063 398.334 783.956 397.503 785.471C396.403 787.475 394.964 788.279 392.839 788.889C392.058 788.805 391.172 788.634 390.45 788.315C389.067 787.706 387.941 786.587 387.434 785.151C386.899 783.634 387.118 781.99 387.839 780.576C388.898 778.502 390.579 777.619 392.71 776.925Z" fill="#FFE682"/>
<path d="M566.786 748.005C567.53 747.99 568.348 748.026 569.067 748.216C570.44 748.579 571.692 749.831 572.294 751.082C573.067 752.688 573.072 754.565 572.476 756.224C571.714 758.342 570.32 759.261 568.386 760.146C567.625 760.191 566.772 760.236 566.029 760.044C564.629 759.683 563.397 758.64 562.772 757.346C562.05 755.854 562.069 754.06 562.581 752.506C563.32 750.264 564.741 749.044 566.786 748.005Z" fill="#FFE682"/>
<path d="M388.387 502.324C389.153 502.284 389.911 502.252 390.66 502.45C391.924 502.776 392.996 503.613 393.62 504.76C394.305 506.052 394.283 507.616 393.81 508.974C393.104 511.004 391.743 512.029 389.91 512.926C389.061 512.949 388.206 512.981 387.389 512.707C386.006 512.238 384.894 511.191 384.343 509.838C383.789 508.474 383.916 506.885 384.51 505.557C385.319 503.749 386.654 503.023 388.387 502.324Z" fill="#FFE682"/>
<path d="M492.794 616.972C495.371 616.868 497.554 618.852 497.697 621.426C497.84 624 495.89 626.213 493.317 626.395C491.618 626.516 489.986 625.711 489.046 624.29C488.106 622.869 488.005 621.053 488.782 619.537C489.559 618.02 491.092 617.04 492.794 616.972Z" fill="#FFE682"/>
<defs>
<linearGradient id="paint0_linear_97_55" x1="471.48" y1="742.252" x2="433.578" y2="535.891" gradientUnits="userSpaceOnUse">
<stop stop-color="#FFC100"/>
<stop offset="1" stop-color="#FFDB06"/>
</linearGradient>
</defs>
</svg>
