<svg width="849" height="1183" viewBox="0 0 849 1183" fill="none" xmlns="http://www.w3.org/2000/svg">
<rect x="5" y="5" width="839" height="1173" rx="45" fill="white"/>
<rect x="5" y="5" width="839" height="1173" rx="45" stroke="black" stroke-width="10"/>
<circle cx="786.5" cy="1124.5" r="11.5" fill="black"/>
<circle cx="786.5" cy="59.5" r="11.5" fill="black"/>
<path d="M77 1124.5C77 1130.85 71.8513 1136 65.5 1136C59.1487 1136 54 1130.85 54 1124.5C54 1118.15 59.1487 1113 65.5 1113C71.8513 1113 77 1118.15 77 1124.5Z" fill="black"/>
<path d="M77 59.5C77 65.8513 71.8513 71 65.5 71C59.1487 71 54 65.8513 54 59.5C54 53.1487 59.1487 48 65.5 48C71.8513 48 77 53.1487 77 59.5Z" fill="black"/>
<mask id="path-6-inside-1_97_28" fill="white">
<path d="M708 48C713.523 48 717.934 52.4996 718.616 57.9801C723.122 94.1833 751.817 122.878 788.02 127.384C793.5 128.066 798 132.477 798 138V1046C798 1051.52 793.5 1055.93 788.02 1056.62C751.817 1061.12 723.122 1089.82 718.616 1126.02C717.934 1131.5 713.523 1136 708 1136H141C135.477 1136 131.066 1131.5 130.384 1126.02C125.878 1089.82 97.1833 1061.12 60.9801 1056.62C55.4996 1055.93 51 1051.52 51 1046V138C51 132.477 55.4996 128.066 60.9801 127.384C97.1833 122.878 125.878 94.1833 130.384 57.9801C131.066 52.4996 135.477 48 141 48H708Z"/>
</mask>
<path d="M708 48C713.523 48 717.934 52.4996 718.616 57.9801C723.122 94.1833 751.817 122.878 788.02 127.384C793.5 128.066 798 132.477 798 138V1046C798 1051.52 793.5 1055.93 788.02 1056.62C751.817 1061.12 723.122 1089.82 718.616 1126.02C717.934 1131.5 713.523 1136 708 1136H141C135.477 1136 131.066 1131.5 130.384 1126.02C125.878 1089.82 97.1833 1061.12 60.9801 1056.62C55.4996 1055.93 51 1051.52 51 1046V138C51 132.477 55.4996 128.066 60.9801 127.384C97.1833 122.878 125.878 94.1833 130.384 57.9801C131.066 52.4996 135.477 48 141 48H708Z" fill="#006AB6"/>
<path d="M130.384 1126.02L138.322 1125.03L130.384 1126.02ZM718.616 1126.02L710.678 1125.03L718.616 1126.02ZM788.02 1056.62L789.008 1064.56L788.02 1056.62ZM718.616 57.9801L726.555 56.9922L718.616 57.9801ZM718.616 57.9801L710.678 58.9681C715.635 98.8063 747.194 130.365 787.032 135.322L788.02 127.384L789.008 119.445C756.44 115.392 730.608 89.5603 726.555 56.9922L718.616 57.9801ZM798 138H790V1046H798H806V138H798ZM788.02 1056.62L787.032 1048.68C747.194 1053.64 715.635 1085.19 710.678 1125.03L718.616 1126.02L726.555 1127.01C730.608 1094.44 756.44 1068.61 789.008 1064.56L788.02 1056.62ZM708 1136V1128H141V1136V1144H708V1136ZM130.384 1126.02L138.322 1125.03C133.365 1085.19 101.806 1053.64 61.9681 1048.68L60.9801 1056.62L59.9922 1064.56C92.5603 1068.61 118.392 1094.44 122.445 1127.01L130.384 1126.02ZM51 1046H59V138H51H43V1046H51ZM60.9801 127.384L61.9681 135.322C101.806 130.365 133.365 98.8063 138.322 58.9681L130.384 57.9801L122.445 56.9922C118.392 89.5603 92.5603 115.392 59.9922 119.445L60.9801 127.384ZM141 48V56H708V48V40H141V48ZM130.384 57.9801L138.322 58.9681C138.438 58.0389 138.872 57.2306 139.427 56.6958C139.954 56.1887 140.494 56 141 56V48V40C130.84 40 123.547 48.1329 122.445 56.9922L130.384 57.9801ZM51 138H59C59 137.494 59.1887 136.954 59.6958 136.427C60.2306 135.872 61.0389 135.438 61.9681 135.322L60.9801 127.384L59.9922 119.445C51.1329 120.547 43 127.84 43 138H51ZM60.9801 1056.62L61.9681 1048.68C61.0389 1048.56 60.2306 1048.13 59.6958 1047.57C59.1887 1047.05 59 1046.51 59 1046H51H43C43 1056.16 51.1329 1063.45 59.9922 1064.56L60.9801 1056.62ZM141 1136V1128C140.494 1128 139.954 1127.81 139.427 1127.3C138.872 1126.77 138.438 1125.96 138.322 1125.03L130.384 1126.02L122.445 1127.01C123.547 1135.87 130.84 1144 141 1144V1136ZM718.616 1126.02L710.678 1125.03C710.562 1125.96 710.128 1126.77 709.573 1127.3C709.046 1127.81 708.506 1128 708 1128V1136V1144C718.16 1144 725.453 1135.87 726.555 1127.01L718.616 1126.02ZM798 1046H790C790 1046.51 789.811 1047.05 789.304 1047.57C788.769 1048.13 787.961 1048.56 787.032 1048.68L788.02 1056.62L789.008 1064.56C797.867 1063.45 806 1056.16 806 1046H798ZM788.02 127.384L787.032 135.322C787.961 135.438 788.769 135.872 789.304 136.427C789.811 136.954 790 137.494 790 138H798H806C806 127.84 797.867 120.547 789.008 119.445L788.02 127.384ZM718.616 57.9801L726.555 56.9922C725.453 48.1329 718.16 40 708 40V48V56C708.506 56 709.046 56.1887 709.573 56.6958C710.128 57.2306 710.562 58.0389 710.678 58.9681L718.616 57.9801Z" fill="black" mask="url(#path-6-inside-1_97_28)"/>
<path d="M690 102C695.523 102 699.911 106.512 700.837 111.957C705.019 136.563 724.437 155.981 749.043 160.163C754.488 161.089 759 165.477 759 171V1014C759 1019.52 754.488 1023.91 749.043 1024.84C724.711 1028.97 705.454 1048 700.984 1072.22C699.993 1077.59 695.633 1082 690.175 1082H158.825C153.367 1082 149.007 1077.59 148.016 1072.22C143.546 1048 124.288 1028.97 99.9568 1024.84C94.5121 1023.91 90 1019.52 90 1014V171C90 165.477 94.512 161.089 99.9568 160.163C124.563 155.981 143.981 136.563 148.163 111.957C149.089 106.512 153.477 102 159 102H690Z" fill="#5298CB"/>
<path d="M312.91 408H303.22L274.065 363.885V408H264.375V348.84H274.065L303.22 392.87V348.84H312.91V408ZM368.56 383.435C368.56 385.192 368.446 386.778 368.22 388.195H332.435C332.718 391.935 334.106 394.938 336.6 397.205C339.093 399.472 342.153 400.605 345.78 400.605C350.993 400.605 354.676 398.423 356.83 394.06H367.285C365.868 398.367 363.29 401.908 359.55 404.685C355.866 407.405 351.276 408.765 345.78 408.765C341.303 408.765 337.28 407.773 333.71 405.79C330.196 403.75 327.42 400.917 325.38 397.29C323.396 393.607 322.405 389.357 322.405 384.54C322.405 379.723 323.368 375.502 325.295 371.875C327.278 368.192 330.026 365.358 333.54 363.375C337.11 361.392 341.19 360.4 345.78 360.4C350.2 360.4 354.138 361.363 357.595 363.29C361.051 365.217 363.743 367.937 365.67 371.45C367.596 374.907 368.56 378.902 368.56 383.435ZM358.445 380.375C358.388 376.805 357.113 373.943 354.62 371.79C352.126 369.637 349.038 368.56 345.355 368.56C342.011 368.56 339.15 369.637 336.77 371.79C334.39 373.887 332.973 376.748 332.52 380.375H358.445ZM396.201 399.33L409.461 361.165H419.746L401.896 408H390.336L372.571 361.165H382.941L396.201 399.33ZM423.84 384.37C423.84 379.667 424.804 375.502 426.73 371.875C428.714 368.248 431.377 365.443 434.72 363.46C438.12 361.42 441.86 360.4 445.94 360.4C449.624 360.4 452.825 361.137 455.545 362.61C458.322 364.027 460.532 365.812 462.175 367.965V361.165H471.95V408H462.175V401.03C460.532 403.24 458.294 405.082 455.46 406.555C452.627 408.028 449.397 408.765 445.77 408.765C441.747 408.765 438.064 407.745 434.72 405.705C431.377 403.608 428.714 400.718 426.73 397.035C424.804 393.295 423.84 389.073 423.84 384.37ZM462.175 384.54C462.175 381.31 461.495 378.505 460.135 376.125C458.832 373.745 457.104 371.932 454.95 370.685C452.797 369.438 450.474 368.815 447.98 368.815C445.487 368.815 443.164 369.438 441.01 370.685C438.857 371.875 437.1 373.66 435.74 376.04C434.437 378.363 433.785 381.14 433.785 384.37C433.785 387.6 434.437 390.433 435.74 392.87C437.1 395.307 438.857 397.177 441.01 398.48C443.22 399.727 445.544 400.35 447.98 400.35C450.474 400.35 452.797 399.727 454.95 398.48C457.104 397.233 458.832 395.42 460.135 393.04C461.495 390.603 462.175 387.77 462.175 384.54ZM481.448 384.37C481.448 379.667 482.411 375.502 484.338 371.875C486.321 368.248 488.984 365.443 492.328 363.46C495.728 361.42 499.496 360.4 503.633 360.4C506.693 360.4 509.696 361.08 512.643 362.44C515.646 363.743 518.026 365.5 519.783 367.71V345.1H529.558V408H519.783V400.945C518.196 403.212 515.986 405.082 513.153 406.555C510.376 408.028 507.174 408.765 503.548 408.765C499.468 408.765 495.728 407.745 492.328 405.705C488.984 403.608 486.321 400.718 484.338 397.035C482.411 393.295 481.448 389.073 481.448 384.37ZM519.783 384.54C519.783 381.31 519.103 378.505 517.743 376.125C516.439 373.745 514.711 371.932 512.558 370.685C510.404 369.438 508.081 368.815 505.588 368.815C503.094 368.815 500.771 369.438 498.618 370.685C496.464 371.875 494.708 373.66 493.348 376.04C492.044 378.363 491.393 381.14 491.393 384.37C491.393 387.6 492.044 390.433 493.348 392.87C494.708 395.307 496.464 397.177 498.618 398.48C500.828 399.727 503.151 400.35 505.588 400.35C508.081 400.35 510.404 399.727 512.558 398.48C514.711 397.233 516.439 395.42 517.743 393.04C519.103 390.603 519.783 387.77 519.783 384.54ZM562.6 408.765C558.18 408.765 554.185 407.773 550.615 405.79C547.045 403.75 544.24 400.917 542.2 397.29C540.16 393.607 539.14 389.357 539.14 384.54C539.14 379.78 540.188 375.558 542.285 371.875C544.382 368.192 547.243 365.358 550.87 363.375C554.497 361.392 558.548 360.4 563.025 360.4C567.502 360.4 571.553 361.392 575.18 363.375C578.807 365.358 581.668 368.192 583.765 371.875C585.862 375.558 586.91 379.78 586.91 384.54C586.91 389.3 585.833 393.522 583.68 397.205C581.527 400.888 578.58 403.75 574.84 405.79C571.157 407.773 567.077 408.765 562.6 408.765ZM562.6 400.35C565.093 400.35 567.417 399.755 569.57 398.565C571.78 397.375 573.565 395.59 574.925 393.21C576.285 390.83 576.965 387.94 576.965 384.54C576.965 381.14 576.313 378.278 575.01 375.955C573.707 373.575 571.978 371.79 569.825 370.6C567.672 369.41 565.348 368.815 562.855 368.815C560.362 368.815 558.038 369.41 555.885 370.6C553.788 371.79 552.117 373.575 550.87 375.955C549.623 378.278 549 381.14 549 384.54C549 389.583 550.275 393.493 552.825 396.27C555.432 398.99 558.69 400.35 562.6 400.35Z" fill="black"/>
<mask id="path-10-outside-2_97_28" maskUnits="userSpaceOnUse" x="403" y="1006" width="44" height="32" fill="black">
<rect fill="white" x="403" y="1006" width="44" height="32"/>
<path d="M406.92 1030.8C409.48 1028.59 411.493 1026.77 412.96 1025.36C414.453 1023.92 415.693 1022.43 416.68 1020.88C417.667 1019.33 418.16 1017.79 418.16 1016.24C418.16 1014.64 417.773 1013.39 417 1012.48C416.253 1011.57 415.067 1011.12 413.44 1011.12C411.867 1011.12 410.64 1011.63 409.76 1012.64C408.907 1013.63 408.453 1014.96 408.4 1016.64H404C404.08 1013.6 404.987 1011.28 406.72 1009.68C408.48 1008.05 410.707 1007.24 413.4 1007.24C416.307 1007.24 418.573 1008.04 420.2 1009.64C421.853 1011.24 422.68 1013.37 422.68 1016.04C422.68 1017.96 422.187 1019.81 421.2 1021.6C420.24 1023.36 419.08 1024.95 417.72 1026.36C416.387 1027.75 414.68 1029.36 412.6 1031.2L410.8 1032.8H423.48V1036.6H404.04V1033.28L406.92 1030.8ZM445.966 1011.36L434.846 1037H430.246L441.486 1011.84H426.686V1007.96H445.966V1011.36Z"/>
</mask>
<path d="M406.92 1030.8C409.48 1028.59 411.493 1026.77 412.96 1025.36C414.453 1023.92 415.693 1022.43 416.68 1020.88C417.667 1019.33 418.16 1017.79 418.16 1016.24C418.16 1014.64 417.773 1013.39 417 1012.48C416.253 1011.57 415.067 1011.12 413.44 1011.12C411.867 1011.12 410.64 1011.63 409.76 1012.64C408.907 1013.63 408.453 1014.96 408.4 1016.64H404C404.08 1013.6 404.987 1011.28 406.72 1009.68C408.48 1008.05 410.707 1007.24 413.4 1007.24C416.307 1007.24 418.573 1008.04 420.2 1009.64C421.853 1011.24 422.68 1013.37 422.68 1016.04C422.68 1017.96 422.187 1019.81 421.2 1021.6C420.24 1023.36 419.08 1024.95 417.72 1026.36C416.387 1027.75 414.68 1029.36 412.6 1031.2L410.8 1032.8H423.48V1036.6H404.04V1033.28L406.92 1030.8ZM445.966 1011.36L434.846 1037H430.246L441.486 1011.84H426.686V1007.96H445.966V1011.36Z" fill="black"/>
<path d="M406.92 1030.8L407.116 1031.03L407.116 1031.03L406.92 1030.8ZM412.96 1025.36L413.168 1025.58L413.168 1025.58L412.96 1025.36ZM417 1012.48L416.768 1012.67L416.772 1012.67L417 1012.48ZM409.76 1012.64L409.533 1012.44L409.533 1012.44L409.76 1012.64ZM408.4 1016.64V1016.94H408.691L408.7 1016.65L408.4 1016.64ZM404 1016.64L403.7 1016.63L403.692 1016.94H404V1016.64ZM406.72 1009.68L406.923 1009.9L406.924 1009.9L406.72 1009.68ZM420.2 1009.64L419.99 1009.85L419.991 1009.86L420.2 1009.64ZM421.2 1021.6L420.937 1021.45L420.937 1021.46L421.2 1021.6ZM417.72 1026.36L417.504 1026.15L417.504 1026.15L417.72 1026.36ZM412.6 1031.2L412.401 1030.98L412.401 1030.98L412.6 1031.2ZM410.8 1032.8L410.601 1032.58L410.011 1033.1H410.8V1032.8ZM423.48 1032.8H423.78V1032.5H423.48V1032.8ZM423.48 1036.6V1036.9H423.78V1036.6H423.48ZM404.04 1036.6H403.74V1036.9H404.04V1036.6ZM404.04 1033.28L403.844 1033.05L403.74 1033.14V1033.28H404.04ZM406.92 1030.8L407.116 1031.03C409.678 1028.81 411.696 1026.99 413.168 1025.58L412.96 1025.36L412.752 1025.14C411.291 1026.55 409.282 1028.36 406.724 1030.57L406.92 1030.8ZM412.96 1025.36L413.168 1025.58C414.676 1024.12 415.932 1022.61 416.933 1021.04L416.68 1020.88L416.427 1020.72C415.455 1022.24 414.23 1023.72 412.752 1025.14L412.96 1025.36ZM416.68 1020.88L416.933 1021.04C417.945 1019.46 418.46 1017.85 418.46 1016.24H418.16H417.86C417.86 1017.72 417.389 1019.21 416.427 1020.72L416.68 1020.88ZM418.16 1016.24H418.46C418.46 1014.59 418.062 1013.26 417.228 1012.29L417 1012.48L416.772 1012.67C417.485 1013.51 417.86 1014.69 417.86 1016.24H418.16ZM417 1012.48L417.232 1012.29C416.408 1011.29 415.12 1010.82 413.44 1010.82V1011.12V1011.42C415.013 1011.42 416.098 1011.86 416.768 1012.67L417 1012.48ZM413.44 1011.12V1010.82C411.796 1010.82 410.48 1011.35 409.533 1012.44L409.76 1012.64L409.987 1012.84C410.8 1011.9 411.937 1011.42 413.44 1011.42V1011.12ZM409.76 1012.64L409.533 1012.44C408.623 1013.5 408.155 1014.9 408.1 1016.63L408.4 1016.64L408.7 1016.65C408.752 1015.02 409.19 1013.76 409.987 1012.84L409.76 1012.64ZM408.4 1016.64V1016.34H404V1016.64V1016.94H408.4V1016.64ZM404 1016.64L404.3 1016.65C404.378 1013.66 405.266 1011.43 406.923 1009.9L406.72 1009.68L406.517 1009.46C404.708 1011.13 403.782 1013.54 403.7 1016.63L404 1016.64ZM406.72 1009.68L406.924 1009.9C408.621 1008.33 410.772 1007.54 413.4 1007.54V1007.24V1006.94C410.641 1006.94 408.339 1007.78 406.516 1009.46L406.72 1009.68ZM413.4 1007.24V1007.54C416.251 1007.54 418.433 1008.32 419.99 1009.85L420.2 1009.64L420.41 1009.43C418.713 1007.76 416.363 1006.94 413.4 1006.94V1007.24ZM420.2 1009.64L419.991 1009.86C421.577 1011.39 422.38 1013.44 422.38 1016.04H422.68H422.98C422.98 1013.31 422.13 1011.09 420.409 1009.42L420.2 1009.64ZM422.68 1016.04H422.38C422.38 1017.91 421.901 1019.71 420.937 1021.45L421.2 1021.6L421.463 1021.75C422.472 1019.92 422.98 1018.01 422.98 1016.04H422.68ZM421.2 1021.6L420.937 1021.46C419.989 1023.19 418.845 1024.76 417.504 1026.15L417.72 1026.36L417.936 1026.57C419.315 1025.14 420.491 1023.53 421.463 1021.74L421.2 1021.6ZM417.72 1026.36L417.504 1026.15C416.178 1027.53 414.478 1029.14 412.401 1030.98L412.6 1031.2L412.799 1031.42C414.882 1029.58 416.595 1027.96 417.936 1026.57L417.72 1026.36ZM412.6 1031.2L412.401 1030.98L410.601 1032.58L410.8 1032.8L410.999 1033.02L412.799 1031.42L412.6 1031.2ZM410.8 1032.8V1033.1H423.48V1032.8V1032.5H410.8V1032.8ZM423.48 1032.8H423.18V1036.6H423.48H423.78V1032.8H423.48ZM423.48 1036.6V1036.3H404.04V1036.6V1036.9H423.48V1036.6ZM404.04 1036.6H404.34V1033.28H404.04H403.74V1036.6H404.04ZM404.04 1033.28L404.236 1033.51L407.116 1031.03L406.92 1030.8L406.724 1030.57L403.844 1033.05L404.04 1033.28ZM445.966 1011.36L446.241 1011.48L446.266 1011.42V1011.36H445.966ZM434.846 1037V1037.3H435.043L435.121 1037.12L434.846 1037ZM430.246 1037L429.972 1036.88L429.783 1037.3H430.246V1037ZM441.486 1011.84L441.76 1011.96L441.949 1011.54H441.486V1011.84ZM426.686 1011.84H426.386V1012.14H426.686V1011.84ZM426.686 1007.96V1007.66H426.386V1007.96H426.686ZM445.966 1007.96H446.266V1007.66H445.966V1007.96ZM445.966 1011.36L445.691 1011.24L434.571 1036.88L434.846 1037L435.121 1037.12L446.241 1011.48L445.966 1011.36ZM434.846 1037V1036.7H430.246V1037V1037.3H434.846V1037ZM430.246 1037L430.52 1037.12L441.76 1011.96L441.486 1011.84L441.212 1011.72L429.972 1036.88L430.246 1037ZM441.486 1011.84V1011.54H426.686V1011.84V1012.14H441.486V1011.84ZM426.686 1011.84H426.986V1007.96H426.686H426.386V1011.84H426.686ZM426.686 1007.96V1008.26H445.966V1007.96V1007.66H426.686V1007.96ZM445.966 1007.96H445.666V1011.36H445.966H446.266V1007.96H445.966Z" fill="black" mask="url(#path-10-outside-2_97_28)"/>
<path d="M275.81 272.735C267.2 272.735 260.13 270.705 254.6 266.645C249.07 262.515 246.095 256.635 245.675 249.005H267.62C267.83 251.595 268.6 253.485 269.93 254.675C271.26 255.865 272.975 256.46 275.075 256.46C276.965 256.46 278.505 256.005 279.695 255.095C280.955 254.115 281.585 252.785 281.585 251.105C281.585 248.935 280.57 247.255 278.54 246.065C276.51 244.875 273.22 243.545 268.67 242.075C263.84 240.465 259.92 238.925 256.91 237.455C253.97 235.915 251.38 233.71 249.14 230.84C246.97 227.9 245.885 224.085 245.885 219.395C245.885 214.635 247.075 210.575 249.455 207.215C251.835 203.785 255.125 201.195 259.325 199.445C263.525 197.695 268.285 196.82 273.605 196.82C282.215 196.82 289.075 198.85 294.185 202.91C299.365 206.9 302.13 212.535 302.48 219.815H280.115C280.045 217.575 279.345 215.895 278.015 214.775C276.755 213.655 275.11 213.095 273.08 213.095C271.54 213.095 270.28 213.55 269.3 214.46C268.32 215.37 267.83 216.665 267.83 218.345C267.83 219.745 268.355 220.97 269.405 222.02C270.525 223 271.89 223.875 273.5 224.645C275.11 225.345 277.49 226.255 280.64 227.375C285.33 228.985 289.18 230.595 292.19 232.205C295.27 233.745 297.895 235.95 300.065 238.82C302.305 241.62 303.425 245.19 303.425 249.53C303.425 253.94 302.305 257.895 300.065 261.395C297.895 264.895 294.71 267.66 290.51 269.69C286.38 271.72 281.48 272.735 275.81 272.735ZM351.527 212.57C358.317 212.57 363.707 214.845 367.697 219.395C371.687 223.875 373.682 229.965 373.682 237.665V272H353.102V240.395C353.102 237.035 352.227 234.41 350.477 232.52C348.727 230.56 346.382 229.58 343.442 229.58C340.362 229.58 337.947 230.56 336.197 232.52C334.447 234.41 333.572 237.035 333.572 240.395V272H312.992V213.095H333.572V221.495C335.392 218.835 337.842 216.7 340.922 215.09C344.002 213.41 347.537 212.57 351.527 212.57ZM412.38 272.735C406.5 272.735 401.215 271.51 396.525 269.06C391.905 266.61 388.265 263.11 385.605 258.56C382.945 254.01 381.615 248.655 381.615 242.495C381.615 236.405 382.945 231.085 385.605 226.535C388.335 221.985 392.01 218.485 396.63 216.035C401.32 213.585 406.605 212.36 412.485 212.36C418.365 212.36 423.615 213.585 428.235 216.035C432.925 218.485 436.6 221.985 439.26 226.535C441.99 231.085 443.355 236.405 443.355 242.495C443.355 248.585 441.99 253.94 439.26 258.56C436.6 263.11 432.925 266.61 428.235 269.06C423.545 271.51 418.26 272.735 412.38 272.735ZM412.38 254.885C415.25 254.885 417.63 253.835 419.52 251.735C421.48 249.565 422.46 246.485 422.46 242.495C422.46 238.505 421.48 235.46 419.52 233.36C417.63 231.26 415.285 230.21 412.485 230.21C409.685 230.21 407.34 231.26 405.45 233.36C403.56 235.46 402.615 238.505 402.615 242.495C402.615 246.555 403.525 249.635 405.345 251.735C407.165 253.835 409.51 254.885 412.38 254.885ZM538.773 213.095L523.758 272H500.658L492.468 236.3L483.963 272H460.968L446.058 213.095H466.533L473.148 252.155L481.863 213.095H503.913L512.943 252.26L519.453 213.095H538.773ZM608.048 213.095L570.668 300.035H548.303L562.373 269.48L538.223 213.095H561.113L573.503 246.485L585.473 213.095H608.048Z" fill="black"/>
<path d="M237.719 710.724C230.928 710.706 218.241 711.698 212.19 709.92C209.774 709.211 207.557 707.742 205.801 705.954C202.87 702.914 201.284 698.822 201.402 694.6C201.524 689.005 204.245 684.125 207.714 679.892C212.726 673.776 219.168 668.396 224.918 662.956L254.833 634.703L354.803 540.381L398.206 499.613C404.767 493.452 415.903 481.597 423.204 477.479C430.549 473.338 439.691 471.752 448.061 472.031C456.336 472.308 464.128 474.131 471.18 478.668C478.81 483.577 485.653 491.008 492.314 497.162L529.185 531.281L572.763 571.527C579.917 578.123 587.812 584.551 594.435 591.639C594.785 592.011 595.009 592.26 595.139 592.764C595.452 592.139 595.624 591.585 595.661 590.886C595.833 587.631 595.89 552.211 595.238 550.476C595.134 550.203 595.045 550.094 594.884 549.832C594.821 549.784 594.764 549.736 594.701 549.689C593.142 548.513 591.343 547.731 589.747 546.613C585.7 543.776 583.161 539.032 582.452 534.212C581.263 526.111 581.471 515.01 586.493 508.286C589.987 503.607 594.185 501.611 599.864 500.841C604.844 500.166 610.163 500.505 615.19 500.501L640.894 500.491L664.418 500.501C668.871 500.505 673.58 500.213 678.002 500.757C681.413 501.177 684.714 502.379 687.457 504.466C692.046 507.95 694.648 513.202 695.341 518.856C696.291 526.582 696.53 536.751 691.498 543.145C689.089 546.188 685.83 548.453 682.138 549.653C683.42 553.248 682.529 608.097 682.497 615.891C682.435 633.687 682.873 651.586 682.409 669.369C682.378 670.49 682.398 671.601 681.955 672.647C687.326 675.658 692.51 683.107 694.121 688.911C695.43 693.604 695.143 698.59 692.635 702.844C690.434 706.496 686.883 709.132 682.748 710.179C677.09 711.582 670.243 710.621 664.407 710.723C664.725 711.524 664.892 712.237 664.939 713.097C665.32 720.303 665.294 777.468 664.517 779.435C664.413 779.708 664.397 779.714 664.267 779.967L664.141 780.222C664.048 780.409 663.948 780.591 663.844 780.773C663.943 780.708 664.048 780.646 664.152 780.58C669.607 776.971 675.661 761.509 678.31 755.301C679.509 752.487 680.73 748.475 682.925 746.309C683.624 745.622 684.432 745.486 685.366 745.636C686.878 745.879 688.03 747.262 688.818 748.487C691.086 752.021 692.27 756.873 693.96 760.77C699.399 773.327 706.574 783.405 716.54 792.775C719.314 795.386 724.304 798.851 723.329 803.212C722.996 804.71 721.937 805.679 720.649 806.404C716.618 808.667 710.068 808.057 705.531 808.05C709.416 810.724 712.467 815.403 715.888 818.718C719.116 821.847 728.56 826.842 729.457 830.772C729.681 831.751 729.404 832.777 728.8 833.565C726.109 837.067 719.126 838.141 715.038 838.486C713.129 838.64 711.221 838.739 709.307 838.783C712.509 840.991 715.252 844.517 718.073 847.234C724.132 853.073 730.766 857.763 738.223 861.649C740.575 862.875 744.585 864.291 744.992 867.32C745.127 868.338 744.772 869.269 744.131 870.053C740.298 874.759 727.214 877.101 721.228 877.472C719.288 877.592 717.327 877.591 715.387 877.52C717.895 879.029 719.945 881.287 722.161 883.18C727.501 887.738 733.472 892.043 739.991 894.747C742.369 895.735 746.102 896.591 746.853 899.381C747.14 900.457 747.01 901.493 746.436 902.453C743.625 907.173 732.064 909.117 727.006 910.154C716.289 912.349 705.083 913.461 694.142 913.673C695.639 916.058 696.489 923.467 695.988 926.31C695.936 926.613 695.826 926.924 695.717 927.211C705.714 928.34 731.141 931.644 737.32 939.772C738.327 941.092 738.901 942.713 738.593 944.376C738.223 946.396 736.679 947.909 735.005 948.964C727.392 953.766 711.627 954.214 702.439 954.814C685.152 955.939 667.854 955.981 650.541 956.057L587.922 956.116L403.723 956.275C402.922 958.994 401.619 960.562 399.151 961.944C372.407 976.927 211.721 970.125 172.733 968.105L146.134 966.679C136.058 966.119 125.207 965.869 115.489 963.016C112.121 962.028 108.28 960.277 106.487 957.065C105.473 955.247 105.097 953.152 105.634 951.118C106.626 947.359 110.411 944.907 113.621 943.193C122.984 938.192 136.863 934.004 147.394 932.97C136.322 918.308 130.585 898.932 133.121 880.602C134.721 869.034 138.584 857.922 145.028 848.156C141.565 849.235 137.617 849.668 134.42 851.33C131.628 852.783 128.899 855.839 126.065 856.829C125.22 857.125 124.752 856.871 123.94 856.618C122.757 855.31 123.605 854.011 122.954 853.034C122.459 852.292 121.097 851.911 120.44 851.106L118.719 848.393C118.117 847.628 117.816 846.939 117.482 846.028C117.319 844.93 116.79 844.208 116.192 843.301C114.909 842.526 114.73 841.916 114.345 840.509C113.829 839.589 113.262 838.882 112.535 838.119L111.345 836.433C110.946 835.218 110.441 834.484 109.59 833.535C108.429 832.079 108.49 831.51 108.697 829.674C107.989 828.504 106.771 826.857 107.05 825.429C107.195 824.682 107.605 824.221 108.259 823.843C110.573 822.509 115.592 823.117 118.321 822.943L117.993 822.634C114.737 819.62 102.137 813.318 102.001 809.048C101.979 808.345 102.312 808.151 102.749 807.658C104.111 807.174 104.901 806.862 106.259 807.5C109.508 809.026 112.291 811.675 115.401 813.496C114.539 810.288 112.335 805.134 114.126 802.04C114.364 801.63 114.546 801.389 114.992 801.198C116.255 801.419 116.875 801.903 117.631 802.973C121.593 808.584 121.41 816.467 125.64 822.101C139.609 822.104 153.352 818.745 166.382 813.846C162.491 806.633 160.465 798.743 161.961 790.553C158.724 787.853 155.611 784.933 155.191 780.48C154.907 777.465 156.072 774.646 158.002 772.374C161.609 768.129 167.321 765.436 172.388 763.303C169.766 754.195 166.608 745.262 163.915 736.18C173.596 725.002 188.899 719.627 203.325 718.573C209.659 718.11 226.788 718.542 231.712 722.385C232.599 723.077 232.612 723.89 232.667 724.931C232.821 727.872 232.368 731.023 232.138 733.965C231.638 740.395 230.989 746.932 230.959 753.384C233.204 753.588 235.493 753.708 237.721 754.046L237.719 710.724Z" fill="#090908"/>
<path d="M109.59 833.535C111.802 832.751 114.22 832.26 116.52 831.784C118.143 831.449 122.338 830.246 123.622 831.089C124.521 832.371 125.254 833.647 125.951 835.049C121.976 836.634 118.1 838.457 114.345 840.509C113.829 839.589 113.262 838.882 112.535 838.119L111.345 836.433C110.946 835.218 110.441 834.484 109.59 833.535Z" fill="#CE2626"/>
<path d="M111.345 836.433C114.512 834.741 119.808 832.512 123.423 832.668C122.726 834.322 119.417 835.204 117.743 835.885C116.006 836.591 114.182 837.219 112.535 838.119L111.345 836.433Z" fill="#090908"/>
<path d="M116.192 843.301C118.99 841.424 123.371 837.679 126.715 837.534C127.542 838.013 127.536 838.021 127.867 838.919C125.036 841.841 120.596 843.248 117.482 846.029C117.319 844.93 116.79 844.208 116.192 843.301Z" fill="#CE2626"/>
<path d="M118.719 848.393L119.099 848.216C122.223 846.732 126.406 841.754 129.694 841.752C130.351 842.316 130.385 842.255 130.451 843.109C127.489 846.075 123.411 847.94 120.44 851.106L118.719 848.393Z" fill="#CE2626"/>
<path d="M221.553 680.594L351.154 558.65L398.337 514.557C407.035 506.452 415.651 497.724 424.87 490.235C427.873 487.795 430.878 486.05 434.569 484.843C443.841 481.81 454.603 482.217 463.306 486.784C470.632 490.628 479.516 500.191 485.887 506.067L515.426 533.269L637.958 646.051C641.473 649.307 673.356 677.814 674.07 680.095C677.799 681.818 682.669 687.214 684.02 691.032C684.755 693.111 684.959 695.456 683.916 697.478C683.175 698.915 681.653 700.266 680.088 700.724C675.974 701.928 660.59 701.177 655.599 701.178L598.252 701.136C590.102 701.069 581.946 700.594 573.8 700.643C573.263 703.277 572.283 708.827 569.889 710.377C569.769 710.452 569.649 710.516 569.529 710.585C568.773 710.233 568.659 710.175 568.372 709.375C567.892 708.021 568.127 705.727 568.095 704.249C562.923 698.533 557.097 693.278 551.565 687.902L519.344 656.746C505.73 643.463 491.951 630.35 478.01 617.412C471.716 611.593 465.352 604.855 458.344 599.939C455.136 597.7 451.353 596.427 447.444 596.271C439.511 595.904 434.07 599.859 428.566 604.972C396.167 635.068 365.038 666.49 333.07 697.03C331.195 698.821 328.307 701.102 327.24 703.485C326.276 705.639 327.422 710.249 325.26 711.172C323.229 710.514 322.478 708.85 321.555 707.034C320.456 704.869 320.108 702.84 319.735 700.467C297.418 701.188 275.167 701.17 252.838 701.185C242.077 701.192 230.509 701.904 219.859 701.143C218.32 701.032 215.082 700.815 213.907 699.743C212.46 698.421 211.508 696.561 211.541 694.579C211.633 689.158 217.958 684.057 221.553 680.594Z" fill="#FEFEFE"/>
<path d="M221.553 680.594C230.303 680.23 239.178 680.515 247.941 680.519L296.797 680.539C304.256 680.54 317.93 681.302 324.614 680.201C327.213 679.774 329.59 678.159 331.61 676.55C337.344 671.982 342.496 666.334 347.898 661.346L387.527 624.584C397.169 615.636 406.92 606.13 417.493 598.301C428.782 589.94 441.152 584.83 455.387 588.073C462.151 589.614 468.553 593.47 474.185 597.404C485.997 605.657 496.672 616.058 507.402 625.663L551.199 664.69C556.835 669.742 565.261 679.117 572.705 680.151C577.831 680.862 583.312 680.517 588.485 680.517L615.091 680.505L653.248 680.531C659.74 680.544 666.405 680.852 672.887 680.523C673.418 680.496 673.653 680.418 674.07 680.095C677.799 681.818 682.669 687.215 684.02 691.032C684.755 693.111 684.959 695.457 683.916 697.478C683.175 698.915 681.653 700.266 680.088 700.724C675.974 701.928 660.59 701.178 655.6 701.178L598.252 701.136C590.102 701.069 581.946 700.595 573.8 700.644C573.263 703.278 572.283 708.827 569.889 710.377C569.769 710.452 569.649 710.516 569.529 710.586C568.773 710.233 568.659 710.175 568.372 709.375C567.892 708.021 568.127 705.728 568.095 704.249C562.923 698.533 557.097 693.278 551.565 687.902L519.344 656.746C505.73 643.463 491.951 630.35 478.01 617.412C471.716 611.593 465.352 604.855 458.344 599.939C455.136 597.701 451.353 596.428 447.444 596.271C439.511 595.905 434.07 599.86 428.566 604.973C396.167 635.068 365.038 666.49 333.07 697.03C331.195 698.822 328.307 701.102 327.24 703.485C326.276 705.639 327.422 710.249 325.26 711.172C323.229 710.514 322.478 708.851 321.555 707.034C320.456 704.869 320.108 702.84 319.735 700.467C297.418 701.188 275.167 701.17 252.838 701.185C242.077 701.192 230.509 701.905 219.859 701.143C218.32 701.033 215.082 700.815 213.907 699.743C212.46 698.421 211.508 696.562 211.541 694.579C211.633 689.158 217.958 684.057 221.553 680.594Z" fill="#A6C7E0"/>
<path d="M342.757 713.07C340.681 713.058 338.646 713.195 337.04 711.644C336.721 711.335 336.587 710.744 336.424 710.328C336.491 708.48 337.379 707.118 338.543 705.756C341.917 701.807 346.101 698.269 349.837 694.631L371.394 673.548C392.741 652.711 413.914 631.543 435.75 611.222C438.904 608.288 441.944 604.903 446.612 605.026C448.846 605.086 450.986 605.729 452.782 607.083C459.046 611.807 464.749 618.032 470.45 623.439C481.731 634.02 492.915 644.704 504.002 655.488L543.016 693.471C547.236 697.64 551.918 701.634 555.928 705.958C556.916 707.022 557.84 708.365 557.751 709.871C557.703 710.67 557.269 711.391 556.621 711.875C554.837 713.202 552.342 713.049 550.239 713.036C541.862 713.017 533.468 712.896 525.094 713.138L525.111 882.217C521.538 884.029 518.417 886.208 515.224 888.603L499.185 888.577C498.546 840.378 499.147 792.084 499.137 743.875C501.927 742.529 504.347 740.951 505.954 738.218C507.568 735.473 507.704 732.355 506.852 729.334C504.829 722.158 497.658 716.862 491.459 713.351C470.651 701.565 443.506 699.484 420.641 705.824C409.814 708.827 393.811 715.037 388.075 725.456C386.345 728.597 385.613 732.571 386.677 736.054C387.834 739.839 390.74 742.038 394.083 743.837L394.112 888.585C387.51 888.482 378.707 889.574 372.433 888.346C371.161 888.098 369.854 887.288 368.719 886.671L368.681 713.099C360.049 712.897 351.392 713.048 342.757 713.07Z" fill="#FDD090"/>
<path d="M342.757 713.07C340.681 713.058 338.646 713.195 337.04 711.644C336.721 711.335 336.587 710.744 336.424 710.328C336.491 708.48 337.379 707.118 338.543 705.756C341.917 701.807 346.101 698.269 349.837 694.631L371.394 673.548C392.741 652.711 413.914 631.543 435.75 611.222C438.904 608.288 441.944 604.903 446.612 605.026C448.846 605.086 450.986 605.729 452.782 607.083C459.046 611.807 464.749 618.032 470.45 623.439C481.731 634.02 492.915 644.704 504.002 655.488L543.016 693.471C547.236 697.64 551.918 701.634 555.928 705.958C556.916 707.022 557.84 708.365 557.751 709.871C557.703 710.67 557.269 711.391 556.621 711.875C554.837 713.202 552.342 713.049 550.239 713.036C546.61 708.536 541.838 704.419 537.724 700.348L512.321 675.522C503.135 666.709 494.293 657.538 485.179 648.651C475.479 639.258 465.633 630.018 455.644 620.933C452.984 618.485 449.08 614.54 445.13 615.038C443.508 615.242 441.214 617.276 439.997 618.308C435.779 621.885 431.831 625.869 427.804 629.661C417.106 639.734 406.698 650.08 396.159 660.318C378.269 677.697 359.652 694.724 342.757 713.07Z" fill="#E2B174"/>
<path d="M446.347 631.063C448.803 631.891 498.057 681.892 504.539 688.313L448.648 688.326L389.982 688.309C408.542 669.004 427.332 649.921 446.347 631.063Z" fill="#090908"/>
<path d="M449.638 647.803C452.549 649.389 477.095 674.849 480.787 678.823C470.444 679.212 459.973 678.874 449.616 678.872L449.638 647.803Z" fill="#A6C7E0"/>
<path d="M442.643 648.329C443.943 650.214 443.163 674.708 443.15 678.877L413.774 678.892L413.512 678.613C413.82 676.453 439.654 651.326 442.643 648.329Z" fill="#A6C7E0"/>
<path d="M580.893 710.674L654.932 710.69C655.975 713.577 655.73 789.4 654.995 790.847C654.927 790.974 654.849 791.095 654.781 791.219C654.729 791.351 654.682 791.484 654.625 791.614C653.211 794.905 645.29 797.595 646.104 802.966C647.032 804.821 649.149 805.846 651.058 806.471C652.241 806.857 653.597 806.928 654.828 807.035C655.657 809.645 655.662 815.996 654.562 818.443C654.505 818.578 654.453 818.714 654.395 818.847C652.377 823.212 638.574 828.1 640.107 833.405C640.487 834.72 641.697 835.462 642.85 836.053C646.896 838.123 651.355 838.409 655.803 838.614C654.995 842.549 637.901 858.101 634.344 860.36C634.115 860.506 633.875 860.622 633.635 860.747C633.114 857.105 627.143 852.73 627.602 849.393C628.921 849.018 629.959 849.433 631.085 848.574C631.283 847.483 631.017 846.902 630.579 845.903C629.203 845.173 626.287 845.582 624.686 845.609C624.692 845.536 624.702 845.464 624.697 845.391C624.582 843.534 621.318 838.132 619.91 836.865C622.898 836.838 627.857 837.573 630.569 836.617C631.174 835.039 631.445 833.535 630.762 831.927C630.621 831.589 630.631 831.631 630.48 831.37L540.278 831.396L540.311 849.533L582.697 849.519C590.889 849.514 599.181 849.757 607.363 849.342C607.493 856.266 590.389 868.437 595.426 873.148C596.078 873.756 598.07 874.905 598.263 875.576C598.232 875.654 598.201 875.733 598.164 875.811C596.073 880.437 583.651 888.824 585.716 893.745C586.566 895.772 588.918 896.662 590.827 897.374C591.265 897.537 591.108 897.431 591.38 897.688C590.081 901.285 585.742 907.69 582.551 909.848C581.946 902.886 574.155 893.136 568.946 888.768C559.847 881.14 548.361 877.837 536.604 879.036C536.173 879.08 535.755 879.143 535.327 879.212L535.337 723.023C541.541 723.084 549.3 723.844 555.324 722.979C557.714 722.635 559.727 721.012 562.052 720.669C567.616 719.849 572.992 720.797 577.487 716.452C578.64 715.338 580.731 712.516 580.898 710.911C580.903 710.832 580.893 710.753 580.893 710.674Z" fill="#FDD090"/>
<path d="M630.569 836.617C631.492 838.522 631.612 843.136 630.923 845.185C630.829 845.475 630.73 845.621 630.579 845.903C629.202 845.173 626.287 845.582 624.686 845.609C624.692 845.536 624.702 845.464 624.697 845.391C624.582 843.534 621.318 838.132 619.91 836.865C622.898 836.838 627.857 837.573 630.569 836.617Z" fill="#CE2626"/>
<path d="M540.122 730.122L630.407 730.112C630.975 731.021 630.981 731.731 631.017 732.769C631.32 742.068 631.481 823.595 630.871 825.205C630.782 825.433 630.188 825.928 629.995 826.133C600.13 826.795 570.046 826.447 540.17 826.186C539.507 794.224 540.014 762.096 540.122 730.122Z" fill="#090908"/>
<path d="M549.642 780.437L582.358 780.476C582.639 780.954 582.869 781.466 582.968 782.015C583.495 784.959 583.641 805.671 582.368 807.518C583.479 809.429 583.474 813.887 582.916 816.023C582.801 816.475 582.634 816.751 582.389 817.144L570.202 817.15L549.601 817.192C549.694 804.94 549.708 792.688 549.642 780.437Z" fill="#A6C7E0"/>
<path d="M570.202 817.15L570.891 816.483L570.755 816.171C571.381 815.405 581.456 807.972 582.368 807.519C583.479 809.429 583.474 813.887 582.916 816.023C582.801 816.475 582.634 816.751 582.389 817.144L570.202 817.15Z" fill="#A6C7E0"/>
<path d="M616.41 780.442L621.229 780.419C621.349 780.721 621.411 780.853 621.484 781.151C622.261 784.243 622.006 810.599 621.656 815.25C621.599 815.965 621.396 816.525 621.036 817.146L593.064 817.147L588.214 817.159C588.344 816.809 588.454 816.466 588.537 816.102C589.309 812.889 589.121 786.649 588.694 782.365C588.621 781.671 588.381 781.089 588.016 780.498L616.41 780.442Z" fill="#A6C7E0"/>
<path d="M549.598 739.143L582.368 739.13C583.448 740.796 583.286 768.262 582.916 772.418C582.822 773.51 582.859 773.482 582.003 774.194L549.605 774.175C549.723 762.5 549.62 750.818 549.598 739.143Z" fill="#A6C7E0"/>
<path d="M587.969 739.127L621.026 739.125C621.38 739.713 621.583 740.241 621.636 740.926C621.954 744.876 622.225 770.243 621.61 772.797C621.484 773.309 621.161 773.633 620.817 774.011C619.425 774.685 591.39 774.423 588.423 773.959C588.986 769.914 589.309 741.309 587.969 739.127Z" fill="#A6C7E0"/>
<path d="M517.217 896.061C525.543 889.077 534.354 884.556 545.593 885.596C555.005 886.467 563.273 891.031 569.206 898.355C572.794 902.788 574.906 907.457 576.528 912.86C576.929 914.193 577.722 917.826 578.807 918.583C580.069 919.461 582.879 919.534 584.402 919.7C601.674 921.595 724.216 933.961 730.62 942.112C730.698 942.212 730.766 942.32 730.839 942.424C730.62 943.136 730.573 943.221 729.864 943.573C723.455 946.753 707.503 947.436 700.092 947.821C687.196 948.491 674.258 948.51 661.346 948.625C638.803 948.792 616.259 948.818 593.716 948.704L426.048 948.491C417.701 948.493 409.355 948.541 401.009 948.635C382.239 936.46 332.017 932.735 308.499 930.795C308.903 922.712 310.414 913.386 316.28 907.31C322.451 898.339 332.027 892.733 342.637 890.75C351.091 889.169 362.771 889.27 370.027 894.328C370.819 894.89 371.595 895.474 372.354 896.079L467.41 896.085C484.003 896.084 500.626 896.294 517.217 896.061Z" fill="#FEFEFE"/>
<path d="M316.28 907.31C318.607 907.861 327.116 903.039 330.343 902.201C336.135 900.697 342.404 900.544 348.349 900.782C364.368 901.421 377.717 911.308 393.89 913.044C401.628 913.874 409.489 913.829 417.264 913.86L452.637 913.935C464.625 913.977 477.014 913.914 488.874 915.877C478.939 918.181 468.979 920.271 458.821 921.318C453.817 921.849 448.796 922.204 443.767 922.379C435.046 922.715 393.241 922.613 389.228 928.138C389.601 929.07 390.121 929.321 391.038 929.726C394.376 931.201 398.175 931.879 401.649 933C411.181 936.079 418.998 941.432 426.048 948.491C417.701 948.493 409.355 948.541 401.009 948.635C382.239 936.46 332.017 932.735 308.499 930.795C308.903 922.712 310.414 913.386 316.28 907.31Z" fill="#A6C7E0"/>
<path d="M169.526 834.764L172.229 837.115L175.779 839.044C172.07 846.126 160.378 870.918 162.473 878.331C162.628 878.875 162.931 879.193 163.317 879.586C164.304 879.963 164.863 879.949 165.9 879.786C167.487 881.068 168.941 881.454 170.959 881.657C172.112 882.188 172.868 882.486 174.146 882.338C175.15 883.109 175.758 883.71 177.113 883.525C177.322 883.497 177.573 883.428 177.769 883.379L180.418 883.862C181.834 884.51 183.038 884.542 184.549 884.177L186.574 884.922C188.672 885.311 190.436 885.644 192.425 884.597C193.456 885.167 194.024 885.415 195.204 885.209C196.077 884.624 196.472 884.132 196.686 883.077C197.359 879.759 196.495 875.805 196.622 872.37C196.945 863.11 198.031 853.893 199.87 844.811C215.116 845.319 234.573 845.233 246.925 834.941C251.28 838.67 255.08 842.579 258.452 847.229C256.518 848.789 253.903 850.427 253.67 853.144C253.576 854.238 253.857 854.581 254.516 855.35C255.875 855.805 257.122 855.731 258.411 855.059C259.704 854.384 260.843 853.128 261.896 852.131C271.569 868.247 275.735 885.07 271.765 903.755C271.397 905.736 270.869 907.717 270.297 909.649C266.498 922.475 258.151 932.855 246.381 939.197C226.636 949.836 198.121 951.174 176.886 944.7C163.412 940.592 152.95 932.246 146.354 919.73C138.174 903.966 136.62 885.589 142.035 868.674C146.825 853.284 155.181 842.313 169.526 834.764Z" fill="#FEFEFE"/>
<path d="M169.526 834.764L172.229 837.115C169.329 840.486 165.889 843.426 163.201 846.965C156.746 855.464 155.044 867.552 155.818 877.949C156.974 893.483 163.988 906.851 175.799 916.939C190.485 929.481 208.993 933.838 228.004 932.284C241.122 931.213 254.28 926.32 262.958 916.088C266.244 912.213 268.523 907.572 271.765 903.755C271.397 905.736 270.869 907.717 270.297 909.649C266.498 922.475 258.151 932.855 246.381 939.197C226.636 949.836 198.121 951.174 176.886 944.7C163.412 940.592 152.95 932.246 146.354 919.73C138.174 903.966 136.62 885.589 142.035 868.674C146.825 853.284 155.181 842.313 169.526 834.764Z" fill="#A6C7E0"/>
<path d="M217.431 905.623C220.164 904.942 223.052 905.783 224.992 907.826C226.932 909.87 227.623 912.798 226.801 915.494C225.98 918.189 223.772 920.233 221.022 920.846C216.845 921.776 212.695 919.175 211.712 915.008C210.729 910.842 213.278 906.659 217.431 905.623Z" fill="#090908"/>
<path d="M217.319 879.373C221.49 878.399 225.668 880.963 226.688 885.124C227.708 889.285 225.189 893.492 221.041 894.558C218.317 895.257 215.426 894.439 213.473 892.415C211.52 890.39 210.804 887.473 211.6 884.774C212.396 882.075 214.579 880.013 217.319 879.373Z" fill="#090908"/>
<path d="M216.105 852.468C220.19 851.175 224.546 853.461 225.801 857.559C227.056 861.657 224.729 865.992 220.621 867.209C216.567 868.411 212.302 866.12 211.063 862.076C209.824 858.032 212.074 853.745 216.105 852.468Z" fill="#090908"/>
<path d="M442.936 731.124C454.108 730.412 467.04 732.046 477.406 736.388C482.245 738.415 486.876 741.098 491.534 743.513L491.561 801.781C490.684 801.278 489.791 800.746 488.855 800.359C486.276 799.291 483.199 799.242 480.64 800.389C476.896 802.066 475.056 805.394 473.652 809.05L433.526 809.038C426.513 809.037 419.455 808.869 412.45 809.242C411.919 815.215 411.996 874.518 413.075 878.227C417.206 879.432 475.328 879.14 481.272 878.506C481.995 867.717 481.421 856.509 481.417 845.666L481.331 825.663C485.527 826.785 487.669 826.566 491.519 824.468C492.007 845.786 491.568 867.242 491.565 888.573L401.935 888.568L401.905 743.417C406.051 741.862 409.938 739.481 413.944 737.585C423.363 733.128 432.618 731.755 442.936 731.124Z" fill="#CE2626"/>
<path d="M445.17 739.732C449.892 739.3 455.304 739.97 459.917 741.044C468.664 743.08 477.194 747.38 482.078 755.186C482.268 761.958 481.937 768.854 481.937 775.64C481.935 781.613 482.367 787.963 481.771 793.896C481.602 795.577 481.31 797.194 480.339 798.611C476.682 800.476 454.873 799.473 449.43 799.454L427.453 799.513C423.652 799.523 419.53 799.833 415.765 799.344C414.596 799.193 413.876 799.056 412.974 798.264C410.904 793.36 411.869 762.941 411.627 755.395C412.363 753.983 413.258 752.659 414.295 751.45C421.819 742.798 434.27 740.418 445.17 739.732Z" fill="#090908"/>
<path d="M440.72 745.989C443.454 745.001 449.028 745.758 452.088 745.8C456.909 746.471 461.502 747.302 466.021 749.191C470.408 750.79 473.711 753.591 476.669 757.161C476.742 763.451 476.728 769.741 476.628 776.03C468.126 775.972 459.369 776.44 450.908 775.886C448.244 775.943 445.562 775.842 442.898 775.807C434.247 776.26 425.472 775.968 416.807 775.96C416.777 769.677 416.593 763.349 416.904 757.072C419.657 753.478 423.567 751.355 427.427 749.168C431.699 747.333 436.164 746.719 440.72 745.989Z" fill="#CE2626"/>
<path d="M440.72 745.989L441.574 746.323C442.572 749.735 444.728 773.495 443.871 775.371L443.074 775.621C436.508 767.886 432.183 758.083 427.427 749.168C431.699 747.333 436.164 746.718 440.72 745.989Z" fill="#FDD090"/>
<path d="M452.088 745.8C456.909 746.471 461.502 747.301 466.022 749.19C463.482 753.963 461.099 758.851 458.385 763.525C455.979 767.669 453.244 771.608 450.682 775.653L449.426 775.513C449.273 775.314 449.033 775.16 448.966 774.919C448.38 772.812 451.603 750.097 452.088 745.8Z" fill="#FDD090"/>
<path d="M417.19 781.681C436.871 781.231 456.686 781.651 476.374 781.735L476.302 793.722C468.843 794.105 461.263 793.845 453.792 793.846L417.172 793.775L417.19 781.681Z" fill="#FDD090"/>
<path d="M655.287 800.025C665.565 795.519 679.515 772.451 683.546 762.138C683.973 761.038 684.573 759.937 684.375 758.738C687.499 762.554 689.303 768.453 691.67 772.858C697.85 784.354 704.676 791.393 713.854 800.504L713.698 800.949C708.931 803.214 702.063 799.526 697.229 799.958C696.077 800.06 695.634 800.507 694.966 801.348C694.007 806.585 708.081 820.592 712.05 824.182C713.885 825.841 717.995 828.49 719.074 830.465C719.137 830.583 719.194 830.706 719.257 830.827C712.018 833.885 703.232 829.632 699.023 831.1C698.392 831.783 698.064 832.073 698.178 833.098C699.044 840.988 719.257 857.734 725.551 862.283C728.002 864.051 731.584 865.398 733.691 867.431C733.816 867.552 733.936 867.677 734.061 867.8C733.206 868.562 731.616 868.938 730.536 869.293C726.114 870.751 720.748 871.047 716.112 870.713C712.514 870.454 707.148 868.291 703.79 869.655C703.252 870.302 703.023 870.429 703.08 871.318C703.461 876.964 720.659 891.329 725.52 894.635C728.539 896.69 732.565 898.155 735.25 900.534C735.308 900.584 735.36 900.637 735.417 900.689C735.224 900.817 734.948 901.008 734.729 901.118C722.479 907.285 675.906 907.505 661.153 906.085C655.506 905.541 649.9 904.293 644.435 902.787C647.663 900.67 650.672 896.048 652.883 892.88C656.314 887.96 665.982 873.323 664.971 867.627C664.762 867.489 664.59 867.26 664.345 867.214C664.204 867.187 655.694 869.864 654.244 870.035C647.95 870.778 642.547 870.107 636.842 867.452C638.85 866.381 640.81 864.29 642.542 862.775C649.498 856.686 666.029 841.078 668.392 831.94C668.689 830.792 668.558 830.26 667.953 829.292C666.399 828.865 659.688 831.087 657.331 831.423C654.426 831.836 651.584 831.843 648.654 831.788C656.929 828.04 668.105 816.153 672.928 808.357C675.197 804.69 678.633 798.998 677.585 794.587C673.836 797.028 666.071 799.409 661.607 799.374C659.667 800.063 657.331 799.941 655.287 800.025Z" fill="#39965C"/>
<path d="M655.287 800.025C665.565 795.519 679.515 772.451 683.546 762.138C683.973 761.038 684.573 759.937 684.375 758.738C687.498 762.554 689.303 768.453 691.67 772.858C697.85 784.354 704.676 791.393 713.854 800.504L713.697 800.949C708.509 801.085 695.587 788.085 692.322 783.845C690.351 781.288 687.858 776.56 685.72 774.603C685.71 774.725 685.715 774.848 685.694 774.969C685.512 776.216 684.343 777.758 683.66 778.842C678.315 787.319 670.19 794.334 661.607 799.374C659.667 800.063 657.331 799.941 655.287 800.025Z" fill="#8CBD44"/>
<path d="M247.275 710.619L312.615 710.675C313.53 712.487 314.739 714.312 316.148 715.778C320.854 720.678 326.445 719.455 332.461 720.478C334.408 720.809 336.016 722.316 337.938 722.698C344.233 723.948 352.112 723.002 358.572 723.098C359.428 724.897 359.112 869.678 358.926 883.801C352.934 883.149 347.514 883.181 341.544 884.116C338.404 878.182 333.955 874.249 327.487 872.211C320.354 869.971 312.62 870.684 306.016 874.191C304.185 875.176 302.659 876.446 301.113 877.823C295.991 872.995 289.995 870.075 282.832 870.288C280.938 870.344 279.085 870.659 277.241 871.073C274.753 863.377 271.561 855.988 267.274 849.107C296.282 849.885 325.374 849.496 354.395 849.527C354.315 843.466 354.299 837.404 354.346 831.343L309.559 831.243C301.052 831.244 292.495 831.058 283.994 831.333C285.392 829.668 286.801 828.036 287.957 826.187C310.034 826.233 332.143 826.43 354.216 826.162L354.237 730.108L265.823 730.107C265.826 762.105 265.433 794.153 265.847 826.146L279.298 826.159C277.995 827.916 276.733 829.735 275.264 831.358C271.931 831.335 268.535 831.195 265.21 831.396C265.18 833.751 266.278 839.498 264.637 841.273C264.087 841.869 263.363 842.384 262.724 842.883C258.791 838.06 254.857 833.767 250.047 829.812C250.793 825.911 251.792 817.305 249.451 813.97C249.294 813.746 249.119 813.535 248.95 813.32C248.858 813.203 248.77 813.084 248.677 812.967C248.621 812.897 248.562 812.831 248.504 812.762C253.016 802.157 254.038 791.371 249.677 780.482C248.924 778.603 248.075 776.72 247.11 774.941C250.147 772.715 254.001 769.962 254.596 765.943C254.858 764.177 254.313 762.361 253.215 760.968C251.894 759.291 247.641 757.094 247.161 755.966L247.221 755.434C246.929 750.598 247.133 745.616 247.129 740.764L247.275 710.619Z" fill="#FDD090"/>
<path d="M247.275 710.619L312.615 710.675C313.53 712.487 314.739 714.312 316.148 715.778C320.854 720.678 326.445 719.455 332.461 720.478C334.408 720.809 336.016 722.316 337.938 722.698C344.233 723.948 352.112 723.002 358.572 723.098L358.2 724.419C344.995 725.343 331.527 724.691 318.287 724.687L247.562 724.619C247.561 730.395 248.361 750.895 247.221 755.434C246.929 750.598 247.133 745.616 247.129 740.764L247.275 710.619Z" fill="#E2B174"/>
<path d="M262.618 935.216C299.689 936.189 344.948 938.377 380.861 947.378C385.18 948.46 393.135 950.13 396.199 953.481C396.653 953.979 396.636 954.257 396.754 954.92C395.912 956.543 394.165 957.175 392.509 957.709C382.833 960.825 365.682 961.759 355.184 962.488C300.627 966.273 245.751 964.284 191.17 962.085C191.181 962.024 191.175 961.957 191.205 961.901C192.085 960.204 213.616 955.76 217.149 954.356C233.953 952.739 250.201 946.891 262.618 935.216Z" fill="#FEFEFE"/>
<path d="M272.52 945.499C278.309 945.615 285.604 946.016 290.6 949.145C291.682 949.823 293.126 950.903 293.366 952.223C293.505 952.982 293.307 953.53 292.783 954.087C290.763 956.231 284.941 956.945 282.169 957.153C276.927 957.309 271.23 957.217 266.254 955.411C263.9 954.558 261.443 953.254 260.347 950.896C260.336 949.913 260.343 949.493 261.067 948.765C263.483 946.337 269.301 945.731 272.52 945.499Z" fill="#A6C7E0"/>
<path d="M416.854 813.725C429.682 814.033 442.565 813.785 455.4 813.782C461.334 813.781 467.398 813.548 473.312 814.016C473.823 817.34 475.102 820.293 477.029 823.049L477.019 874.18L428.054 874.16L416.832 874.176L416.854 813.725Z" fill="#CE2626"/>
<path d="M473.312 814.016C473.823 817.34 475.102 820.293 477.029 823.049L477.018 874.18L428.054 874.16C432.753 868.472 438.013 863.216 442.841 857.625C450.826 848.394 458.214 838.663 464.963 828.493C467.99 823.969 471.411 819.151 473.312 814.016Z" fill="#8D1A17"/>
<path d="M171.696 810.793L171.475 810.324C168.185 803.289 166.226 795.21 169.024 787.666C171.998 779.645 179.423 773.995 186.957 770.532C199.237 764.89 215.121 762.27 228.02 767.15C234.516 769.607 239.75 774.294 242.614 780.641C246.697 788.998 246.557 799.06 243.584 807.749C243.28 808.631 242.966 809.509 242.642 810.384L242.171 810.449C237.223 811.169 232.868 814.79 228.142 816.417C213.745 821.371 190.04 819.374 177.134 811.259C175.141 810.473 173.76 810.447 171.696 810.793Z" fill="#FEFEFE"/>
<path d="M171.696 810.793L171.475 810.324C168.185 803.289 166.226 795.21 169.024 787.666C171.998 779.645 179.423 773.995 186.957 770.532C199.237 764.89 215.121 762.27 228.02 767.15C234.516 769.607 239.75 774.294 242.614 780.641C242.54 780.607 242.466 780.574 242.393 780.538C239.207 778.97 236.057 775.638 232.129 773.77C221.501 768.713 205.352 770.562 194.453 774.076C186.87 776.522 178.846 780.79 175.143 788.193C172.693 793.09 172.453 798.784 174.195 803.941C175.036 806.432 176.341 808.771 177.134 811.259C175.141 810.473 173.76 810.447 171.696 810.793Z" fill="#A6C7E0"/>
<path d="M235.029 789.251C235.206 789.287 235.424 789.503 235.57 789.613C235.44 790.972 234.944 792.206 234.195 793.341C230.879 798.371 223.457 801.933 217.66 803.08C213.741 803.856 210.528 803.331 207.217 801.113C206.862 800.698 206.536 800.258 206.242 799.797C205.513 798.675 205.135 797.503 205.503 796.173C208.327 785.963 221.146 792.434 227.902 791.896C230.411 791.697 232.842 790.395 235.029 789.251Z" fill="#CE2626"/>
<path d="M193.809 800.437C197.87 802.301 200.89 805.784 205.156 807.385C210.486 809.385 216.708 809.404 221.73 806.54C223.657 805.44 225.468 803.915 227.517 803.065C228.692 802.579 229.591 802.611 230.741 803.089C231.28 803.751 231.437 803.901 231.478 804.748C231.547 806.215 230.728 807.062 229.789 808.058C225.087 812.302 219.64 814.403 213.294 814.429C206.558 814.458 198.462 811.867 193.652 806.977C192.453 805.759 191.695 804.533 191.713 802.777C192.106 801.56 192.778 801.131 193.809 800.437Z" fill="#090908"/>
<path d="M199.405 779.991C202.242 779.294 205.107 781.033 205.799 783.873C206.491 786.713 204.748 789.576 201.908 790.264C199.074 790.95 196.219 789.211 195.529 786.377C194.838 783.543 196.572 780.686 199.405 779.991Z" fill="#090908"/>
<path d="M224.758 779.326C227.656 778.944 230.312 780.99 230.683 783.89C231.055 786.79 228.999 789.44 226.099 789.801C223.213 790.16 220.58 788.117 220.21 785.231C219.841 782.345 221.875 779.705 224.758 779.326Z" fill="#090908"/>
<path d="M591.677 527.093C591.713 527.019 591.75 526.946 591.776 526.871C594.232 520.93 589.606 515.663 598.649 511.628C599.895 511.073 600.954 510.842 602.31 510.763C609.96 510.322 675.411 510.092 678.686 511.361C681.502 512.454 683.64 514.695 684.797 517.468C685.762 519.792 686.231 523.877 685.293 526.233C685.168 526.543 684.985 526.824 684.792 527.093C684.969 527.351 685.136 527.614 685.256 527.902C686.091 529.858 685.715 533.185 684.886 535.099C684.062 536.994 682.597 538.432 680.672 539.179C679.129 539.779 677.22 539.908 675.588 539.984C661.998 540.609 648.122 539.972 634.506 539.968C623.769 539.965 612.614 540.697 601.924 540.006C600.156 539.892 598.216 539.575 596.594 538.832C590.978 536.259 593.491 531.671 591.781 527.329C591.75 527.249 591.713 527.172 591.677 527.093Z" fill="#FEFEFE"/>
<path d="M591.677 527.093L654.4 527.099C664.423 527.097 674.816 527.734 684.792 527.093C684.969 527.351 685.136 527.614 685.256 527.902C686.091 529.858 685.715 533.185 684.886 535.099C684.062 536.994 682.597 538.432 680.672 539.179C679.129 539.779 677.22 539.908 675.588 539.984C661.998 540.609 648.122 539.972 634.506 539.968C623.769 539.964 612.614 540.697 601.924 540.006C600.156 539.892 598.216 539.575 596.594 538.832C590.978 536.259 593.491 531.671 591.781 527.328C591.75 527.249 591.713 527.172 591.677 527.093Z" fill="#A6C7E0"/>
<path d="M606.732 868.278C605.991 868.293 605.266 868.207 604.531 868.13L604.197 867.552C607.237 863.154 610.215 858.766 612.744 854.048C614.257 851.22 615.43 848.205 616.999 845.417L617.365 845.567L617.552 846.687C618.746 847.667 628.55 864.297 629.619 866.684C629.405 867.221 629.432 867.35 628.947 867.702C627.951 868.424 627.007 869.034 626.861 870.361C626.313 875.34 638.072 888.227 638.088 892.375C636.607 892.381 635.006 892.19 633.687 892.953C632.905 893.971 632.529 894.507 632.722 895.878C633.598 902.157 644.852 917.34 644.867 920.297C637.999 918.57 630.13 918.246 623.085 917.424C611.029 916.017 598.873 914.301 586.754 913.552C591.118 910.938 599.175 899.009 600.354 893.983C600.62 892.844 600.583 892.454 600.177 891.414C598.278 890.431 595.551 890.766 593.449 890.779C598.049 888.058 606.45 876.199 607.754 871.032C607.973 870.166 608.004 869.646 607.681 868.815L606.732 868.278Z" fill="#39965C"/>
<path d="M606.732 868.278C605.991 868.293 605.266 868.207 604.531 868.13L604.197 867.552C607.237 863.154 610.215 858.766 612.744 854.048C614.257 851.22 615.43 848.205 617 845.417L617.365 845.567L617.552 846.687C618.454 851.195 613.261 859.298 610.773 863.052C609.589 864.845 608.333 866.837 606.732 868.278Z" fill="#8CBD44"/>
<path d="M278.39 877.199C283.902 876.33 289.361 876.129 294.123 879.565C296.547 881.314 298.207 885.047 300.983 886.006C303.057 885.146 304.936 882.878 306.687 881.445C312.249 876.894 320.429 875.879 327.059 878.615C330.663 880.103 333.521 882.601 335.988 885.57C334.403 886.066 332.82 886.608 331.223 887.058C325.971 888.699 320.999 891.756 316.865 895.361C306.295 904.579 302.153 916.441 301.217 930.112C290.222 930.094 279.12 929.103 268.094 928.915C277.741 914.479 280.088 899.511 279.296 882.434L278.39 877.199Z" fill="#39965C"/>
<path d="M278.39 877.199C283.902 876.33 289.361 876.129 294.123 879.565C296.547 881.314 298.207 885.047 300.983 886.006C303.057 885.146 304.936 882.878 306.687 881.445C312.249 876.894 320.429 875.879 327.059 878.615C330.663 880.103 333.521 882.601 335.988 885.57C334.403 886.066 332.82 886.608 331.223 887.058C327.506 884.846 323.553 883.051 319.168 882.832C311.451 882.447 306.053 887.287 300.695 892.126C299.551 890.812 298.412 889.442 297.154 888.237C292.175 883.467 285.94 882.225 279.296 882.434L278.39 877.199Z" fill="#8CBD44"/>
<path d="M393.101 734.776C392.961 731.994 394.358 729.236 395.983 727.056C403.288 717.254 418.449 712.781 430.034 711.17C449.494 708.465 476.115 709.564 492.367 722.084C496.499 725.267 499.605 728.872 500.283 734.152C499.342 735.09 498.231 736.241 496.808 736.231C493.082 736.204 485.981 732.367 482.199 731.01C467.136 725.495 451.006 723.523 435.058 725.245C426.813 726.241 418.722 728.251 410.97 731.23C406.587 732.864 401.182 735.902 396.586 736.445C395.234 736.605 394.032 735.626 393.101 734.776Z" fill="#FEFEFE"/>
<path d="M393.101 734.776C405.017 727.061 416.131 722.13 430.321 720.259C453.68 717.179 481.035 719.397 500.283 734.152C499.342 735.09 498.231 736.241 496.808 736.231C493.082 736.204 485.981 732.367 482.199 731.01C467.136 725.495 451.006 723.523 435.058 725.245C426.813 726.241 418.722 728.251 410.97 731.229C406.587 732.864 401.182 735.902 396.586 736.445C395.234 736.605 394.032 735.626 393.101 734.776Z" fill="#A6C7E0"/>
<path d="M173.277 816.079C177.001 816.167 181.772 819.024 185.367 820.282C196.196 824.07 208.511 824.859 219.839 823.44C227.53 822.476 233.774 818.34 241.068 816.526C242.046 816.282 242.771 816.197 243.733 816.541C245.078 817.669 245.392 819.153 245.532 820.829C245.839 824.486 245.529 828.677 243.097 831.556C235.936 837.296 223.653 839.24 214.732 839.787C204.338 840.424 182.574 839.516 174.47 832.165C171.948 829.878 171.176 827.111 171.076 823.796C170.977 820.55 170.966 818.537 173.277 816.079Z" fill="#CE2626"/>
<path d="M153.869 939.288C158.366 942.906 162.857 945.728 168.064 948.211C184.151 954.333 200.055 956.033 217.149 954.356C213.616 955.761 192.085 960.204 191.205 961.901C191.175 961.957 191.181 962.024 191.17 962.086C182.782 962.056 174.311 961.383 165.928 960.953C149.649 960.118 133.421 959.232 117.337 956.478C116.203 956.257 114.653 956.041 113.648 955.48C112.992 955.113 112.67 954.544 112.552 953.82C112.388 952.818 112.912 951.752 113.538 951.001C119.125 944.304 145.414 940.159 153.869 939.288Z" fill="#A6C7E0"/>
<path d="M153.869 939.288C158.366 942.906 162.857 945.728 168.064 948.211C164.194 948.908 159.815 947.753 155.878 947.683C144.304 947.477 127.024 949.662 117.337 956.478C116.203 956.256 114.653 956.041 113.648 955.48C112.992 955.113 112.67 954.544 112.552 953.82C112.388 952.818 112.912 951.752 113.538 951.001C119.125 944.304 145.414 940.159 153.869 939.288Z" fill="#FEFEFE"/>
<path d="M314.239 780.46L345.552 780.473L345.504 817.093C335.15 817.462 324.635 817.144 314.266 817.155L314.239 780.46Z" fill="#A6C7E0"/>
<path d="M275.217 739.148C286.068 738.996 296.946 739.141 307.801 739.14L307.788 774.219C296.946 774.154 286.104 774.171 275.263 774.27L275.217 739.148Z" fill="#A6C7E0"/>
<path d="M313.993 739.13L345.565 739.144C345.58 745.097 346.351 770.457 345.325 774.132L326.159 774.243C322.302 774.276 318.315 774.534 314.478 774.107C313.807 773.179 313.986 772.58 314.006 771.487L313.993 739.13Z" fill="#A6C7E0"/>
<path d="M180.416 840.877C185.006 842.367 189.639 843.289 194.394 844.066C193.149 857.506 191.049 871.076 192.425 884.597C190.436 885.644 188.672 885.311 186.574 884.922L184.548 884.177C183.038 884.542 181.834 884.51 180.418 883.862L177.769 883.379C177.573 883.428 177.322 883.497 177.113 883.525C175.758 883.71 175.15 883.109 174.146 882.338C172.868 882.486 172.112 882.187 170.959 881.657C168.941 881.454 167.487 881.068 165.9 879.786C166.851 876.087 167.397 872.306 168.381 868.61C170.915 859.088 175.211 849.239 180.416 840.877Z" fill="#CE2626"/>
<path d="M170.959 881.657C171.632 878.471 172.414 870.793 174.503 868.55C175.731 870.201 174.412 879.781 174.146 882.338C172.868 882.486 172.112 882.188 170.959 881.657Z" fill="#090908"/>
<path d="M177.769 883.379L177.844 882.995C178.586 879.028 177.77 872.671 179.986 869.331L180.649 869.116C181.584 870.217 180.475 881.709 180.418 883.862L177.769 883.379Z" fill="#090908"/>
<path d="M184.548 884.178C184.568 884.07 184.59 883.961 184.607 883.852C185.293 879.707 183.964 873.75 185.825 870.023C186.913 872.228 187.13 882.38 186.574 884.922L184.548 884.178Z" fill="#090908"/>
<path d="M275.269 780.376C286.124 780.492 296.981 780.508 307.836 780.427C307.74 785.791 308.687 797.35 307.64 801.94C307.382 803.07 304.261 802.418 302.444 803.623C298.917 805.962 296.136 809.32 292.566 811.626L293.682 802.876C293.984 800.693 294.826 797.509 294.116 795.404C293.446 794.511 292.982 794.038 291.939 793.616C291.518 793.688 291.046 793.673 290.706 793.942C286.776 797.06 286.32 812.207 285.756 817.206L275.266 817.174L275.269 780.376Z" fill="#A6C7E0"/>
<path d="M605.068 585.226C609.641 584.414 615.06 584.961 619.748 584.965L649.592 585.003C649.785 585.341 649.978 585.717 650.072 586.097C650.703 588.746 650.87 597.55 649.545 599.774C646.046 600.756 638.761 600.025 634.808 600.015L604.792 599.991C604.823 599.931 604.849 599.87 604.88 599.811C604.917 599.743 604.959 599.677 604.99 599.609C606.038 597.489 605.788 587.502 605.068 585.226Z" fill="#CE2626"/>
<path d="M289.056 836.777L350.245 836.668L350.267 845.593L331.022 845.573L269.974 845.517L278.746 836.893C282.179 836.794 285.622 836.811 289.056 836.777Z" fill="#CE2626"/>
<path d="M604.964 550.409C609.324 549.369 615.221 550.112 619.774 550.12L649.644 550.122C650.108 550.983 650.129 551.67 650.166 552.622C650.286 555.494 651.057 562.846 649.191 564.879C634.407 565.062 619.612 564.946 604.828 564.948C604.912 564.796 605 564.647 605.079 564.493C606.049 562.568 605.658 552.523 604.964 550.409Z" fill="#CE2626"/>
<path d="M630 567.626C643.835 566.838 658.045 567.531 671.922 567.475C672.188 567.917 672.375 568.401 672.475 568.905C672.975 571.538 673.335 579.842 671.88 582.103C669.742 582.945 635.011 582.261 629.546 582.25C631.189 579.247 630.485 571.021 630 567.626Z" fill="#CE2626"/>
<path d="M630.089 602.834C634.986 602.578 639.987 602.78 644.894 602.781L671.943 602.724C672.198 603.138 672.391 603.539 672.48 604.022C672.986 606.655 673.236 615.245 671.818 617.011C667.74 617.661 662.833 617.161 658.687 617.156L629.583 617.131C631.262 614.426 630.37 606.083 630.089 602.834Z" fill="#CE2626"/>
<path d="M544.368 836.884L613.276 836.876C613.287 836.964 613.307 837.051 613.313 837.139C613.37 838.93 611.686 841.733 610.544 843.069C610.554 843.187 610.575 843.304 610.58 843.423C610.601 844.369 610.038 845.024 609.443 845.683C587.781 845.455 566.104 845.638 544.44 845.655L544.368 836.884Z" fill="#CE2626"/>
<path d="M165.984 819.397C166.688 822.649 166.417 826.702 166.549 830.063C157.45 835.972 147.436 840.489 137.602 845.01C135.74 843.164 134.162 841.191 132.564 839.122C130.005 835.428 127.934 831.871 126.326 827.663C140.197 826.949 152.86 823.759 165.984 819.397Z" fill="#CE2626"/>
<path d="M210.492 745.212C215.59 745.104 220.523 745.464 225.572 746.158C225.853 748.72 225.85 751.316 225.912 753.891C212.567 753.773 200.167 755.222 187.257 758.634C183.802 759.682 180.37 760.696 177.049 762.123C176 759.485 175.204 756.721 174.329 754.02C186.01 748.35 197.545 745.779 210.492 745.212Z" fill="#CE2626"/>
<path d="M605.146 567.624C612.327 566.914 620.061 567.494 627.299 567.523C627.507 567.907 627.664 568.185 627.742 568.621C628.211 571.261 628.404 580.004 627.059 582.103C623.059 582.975 609.913 582.277 604.833 582.269C605.996 580.156 605.736 570.011 605.146 567.624Z" fill="#CE2626"/>
<path d="M643.449 637.261C652.768 636.529 662.541 637.125 671.901 637.13C672.094 637.438 672.261 637.708 672.36 638.061C672.986 640.276 673.054 650.264 671.912 652.129C670.071 653.028 662.108 652.411 659.631 652.401C659.083 650.496 645.827 639.28 643.449 637.261Z" fill="#CE2626"/>
<path d="M652.033 585.23C657.576 584.256 666.024 584.974 671.88 584.972C672.256 585.595 672.454 586.127 672.511 586.849C672.746 589.696 673.445 597.982 671.765 599.907C667.755 600.651 656.846 600.096 651.965 600.185C652.997 597.663 652.935 587.696 652.033 585.23Z" fill="#CE2626"/>
<path d="M669.903 550.023C670.743 549.961 671.384 549.981 672.203 550.176C672.255 550.269 672.323 550.357 672.36 550.456C673.084 552.187 672.829 563.178 671.979 564.928L654.468 564.908L653.154 564.79C650.812 561.695 654.108 553.755 651.751 550.083C657.805 550.127 663.854 550.107 669.903 550.023Z" fill="#CE2626"/>
<path d="M652.106 620.047C658.379 619.161 665.549 619.856 671.917 619.879C671.948 619.944 671.979 620.008 672.011 620.071C672.151 620.344 672.308 620.627 672.396 620.923C673.126 623.371 673.194 631.991 671.922 634.134C670.238 635.083 654.791 634.447 651.803 634.427C651.845 634.357 651.887 634.288 651.928 634.216C653.295 631.668 652.924 622.803 652.106 620.047Z" fill="#CE2626"/>
<path d="M624.999 620.047C632.9 619.143 641.629 619.848 649.618 619.852C649.816 620.187 649.989 620.475 650.072 620.863C650.578 623.27 650.839 632.364 649.53 634.223C647.235 634.976 642.985 634.521 640.487 634.547C639.94 632.632 627.393 622.178 624.999 620.047Z" fill="#CE2626"/>
<path d="M647.511 911.104C651.073 911.265 654.807 912.168 658.363 912.601C663.667 913.247 669.017 913.473 674.352 913.733C674.571 914.137 674.764 914.567 674.837 915.027C675.124 916.868 674.785 921.459 673.804 922.973C673.783 923.227 673.627 923.48 673.523 923.712C667.682 923.956 660.814 922.349 654.948 921.594C654.541 920.005 648.867 913.154 647.511 911.104Z" fill="#A6C7E0"/>
<path d="M606.867 602.835C613.647 602.721 620.431 602.719 627.21 602.828C627.32 603.025 627.518 603.338 627.596 603.571C628.389 605.911 628.384 614.721 627.242 616.723C626.355 617.568 622.746 617.155 621.464 617.134C620.817 614.86 609.318 605.419 606.867 602.835Z" fill="#CE2626"/>
<path d="M483.153 805.677C484.244 805.639 485.426 805.555 486.505 805.731C488.648 806.08 489.883 807.482 491.115 809.107L491.077 817.074C489.724 818.568 488.499 819.655 486.758 820.685C485.951 820.721 485.106 820.682 484.309 820.552C482.647 820.281 481.066 819.022 480.148 817.652C478.875 815.752 478.545 813.348 479.024 811.137C479.589 808.527 480.965 807.044 483.153 805.677Z" fill="#FDD090"/>
<path d="M636.174 875.11C637.754 875.059 639.554 875.79 641.149 876.046C645.467 876.737 649.509 876.941 653.868 876.598C653.889 876.765 653.925 877.013 653.91 877.192C653.712 879.065 650.854 883.724 649.368 884.894C649.368 885.057 649.383 885.222 649.363 885.384C649.117 887.036 646.745 889.39 645.467 890.325C645.509 888.226 637.791 877.69 636.174 875.11Z" fill="#FDD090"/>
<path d="M680.672 913.843C683.285 913.688 685.944 913.774 688.567 913.763C689.866 916.108 689.715 922.18 689.558 924.976C689.532 925.537 689.183 925.639 688.786 926.001C685.991 925.237 682.633 925.133 679.744 924.859C681.016 922.091 680.782 916.89 680.672 913.843Z" fill="#85492B"/>
<path d="M307.61 807.241C308.246 810.254 307.868 814.05 307.87 817.164L296.466 817.156L296.248 816.957C296.51 815.845 306.013 808.635 307.61 807.241Z" fill="#A6C7E0"/>
<path d="M663.297 655.255C666.076 654.801 669.075 655.015 671.885 655.015C672.052 655.281 672.136 655.387 672.25 655.663C673.022 657.551 672.84 661.218 672.104 663.083C668.897 661.239 666.504 657.395 663.297 655.255Z" fill="#CE2626"/>
</svg>
