<svg width="849" height="1183" viewBox="0 0 849 1183" fill="none" xmlns="http://www.w3.org/2000/svg">
<rect x="5" y="5" width="839" height="1173" rx="45" fill="white"/>
<rect x="5" y="5" width="839" height="1173" rx="45" stroke="black" stroke-width="10"/>
<circle cx="786.5" cy="1124.5" r="11.5" fill="black"/>
<circle cx="786.5" cy="59.5" r="11.5" fill="black"/>
<path d="M77 1124.5C77 1130.85 71.8513 1136 65.5 1136C59.1487 1136 54 1130.85 54 1124.5C54 1118.15 59.1487 1113 65.5 1113C71.8513 1113 77 1118.15 77 1124.5Z" fill="black"/>
<path d="M77 59.5C77 65.8513 71.8513 71 65.5 71C59.1487 71 54 65.8513 54 59.5C54 53.1487 59.1487 48 65.5 48C71.8513 48 77 53.1487 77 59.5Z" fill="black"/>
<mask id="path-6-inside-1_97_53" fill="white">
<path d="M708 48C713.523 48 717.934 52.4996 718.616 57.9801C723.122 94.1833 751.817 122.878 788.02 127.384C793.5 128.066 798 132.477 798 138V1046C798 1051.52 793.5 1055.93 788.02 1056.62C751.817 1061.12 723.122 1089.82 718.616 1126.02C717.934 1131.5 713.523 1136 708 1136H141C135.477 1136 131.066 1131.5 130.384 1126.02C125.878 1089.82 97.1833 1061.12 60.9801 1056.62C55.4996 1055.93 51 1051.52 51 1046V138C51 132.477 55.4996 128.066 60.9801 127.384C97.1833 122.878 125.878 94.1833 130.384 57.9801C131.066 52.4996 135.477 48 141 48H708Z"/>
</mask>
<path d="M708 48C713.523 48 717.934 52.4996 718.616 57.9801C723.122 94.1833 751.817 122.878 788.02 127.384C793.5 128.066 798 132.477 798 138V1046C798 1051.52 793.5 1055.93 788.02 1056.62C751.817 1061.12 723.122 1089.82 718.616 1126.02C717.934 1131.5 713.523 1136 708 1136H141C135.477 1136 131.066 1131.5 130.384 1126.02C125.878 1089.82 97.1833 1061.12 60.9801 1056.62C55.4996 1055.93 51 1051.52 51 1046V138C51 132.477 55.4996 128.066 60.9801 127.384C97.1833 122.878 125.878 94.1833 130.384 57.9801C131.066 52.4996 135.477 48 141 48H708Z" fill="#77B866"/>
<path d="M130.384 1126.02L138.322 1125.03L130.384 1126.02ZM718.616 1126.02L710.678 1125.03L718.616 1126.02ZM788.02 1056.62L789.008 1064.56L788.02 1056.62ZM718.616 57.9801L726.555 56.9922L718.616 57.9801ZM718.616 57.9801L710.678 58.9681C715.635 98.8063 747.194 130.365 787.032 135.322L788.02 127.384L789.008 119.445C756.44 115.392 730.608 89.5603 726.555 56.9922L718.616 57.9801ZM798 138H790V1046H798H806V138H798ZM788.02 1056.62L787.032 1048.68C747.194 1053.64 715.635 1085.19 710.678 1125.03L718.616 1126.02L726.555 1127.01C730.608 1094.44 756.44 1068.61 789.008 1064.56L788.02 1056.62ZM708 1136V1128H141V1136V1144H708V1136ZM130.384 1126.02L138.322 1125.03C133.365 1085.19 101.806 1053.64 61.9681 1048.68L60.9801 1056.62L59.9922 1064.56C92.5603 1068.61 118.392 1094.44 122.445 1127.01L130.384 1126.02ZM51 1046H59V138H51H43V1046H51ZM60.9801 127.384L61.9681 135.322C101.806 130.365 133.365 98.8063 138.322 58.9681L130.384 57.9801L122.445 56.9922C118.392 89.5603 92.5603 115.392 59.9922 119.445L60.9801 127.384ZM141 48V56H708V48V40H141V48ZM130.384 57.9801L138.322 58.9681C138.438 58.0389 138.872 57.2306 139.427 56.6958C139.954 56.1887 140.494 56 141 56V48V40C130.84 40 123.547 48.1329 122.445 56.9922L130.384 57.9801ZM51 138H59C59 137.494 59.1887 136.954 59.6958 136.427C60.2306 135.872 61.0389 135.438 61.9681 135.322L60.9801 127.384L59.9922 119.445C51.1329 120.547 43 127.84 43 138H51ZM60.9801 1056.62L61.9681 1048.68C61.0389 1048.56 60.2306 1048.13 59.6958 1047.57C59.1887 1047.05 59 1046.51 59 1046H51H43C43 1056.16 51.1329 1063.45 59.9922 1064.56L60.9801 1056.62ZM141 1136V1128C140.494 1128 139.954 1127.81 139.427 1127.3C138.872 1126.77 138.438 1125.96 138.322 1125.03L130.384 1126.02L122.445 1127.01C123.547 1135.87 130.84 1144 141 1144V1136ZM718.616 1126.02L710.678 1125.03C710.562 1125.96 710.128 1126.77 709.573 1127.3C709.046 1127.81 708.506 1128 708 1128V1136V1144C718.16 1144 725.453 1135.87 726.555 1127.01L718.616 1126.02ZM798 1046H790C790 1046.51 789.811 1047.05 789.304 1047.57C788.769 1048.13 787.961 1048.56 787.032 1048.68L788.02 1056.62L789.008 1064.56C797.867 1063.45 806 1056.16 806 1046H798ZM788.02 127.384L787.032 135.322C787.961 135.438 788.769 135.872 789.304 136.427C789.811 136.954 790 137.494 790 138H798H806C806 127.84 797.867 120.547 789.008 119.445L788.02 127.384ZM718.616 57.9801L726.555 56.9922C725.453 48.1329 718.16 40 708 40V48V56C708.506 56 709.046 56.1887 709.573 56.6958C710.128 57.2306 710.562 58.0389 710.678 58.9681L718.616 57.9801Z" fill="black" mask="url(#path-6-inside-1_97_53)"/>
<path d="M690 102C695.523 102 699.911 106.512 700.837 111.957C705.019 136.563 724.437 155.981 749.043 160.163C754.488 161.089 759 165.477 759 171V1014C759 1019.52 754.488 1023.91 749.043 1024.84C724.711 1028.97 705.454 1048 700.984 1072.22C699.993 1077.59 695.633 1082 690.175 1082H158.825C153.367 1082 149.007 1077.59 148.016 1072.22C143.546 1048 124.288 1028.97 99.9568 1024.84C94.5121 1023.91 90 1019.52 90 1014V171C90 165.477 94.512 161.089 99.9568 160.163C124.563 155.981 143.981 136.563 148.163 111.957C149.089 106.512 153.477 102 159 102H690Z" fill="#A3CC98"/>
<path d="M241.99 395.93H217.255L213.005 408H202.89L224.055 348.84H235.275L256.44 408H246.24L241.99 395.93ZM239.27 388.025L229.665 360.57L219.975 388.025H239.27ZM322.338 360.4C326.021 360.4 329.308 361.165 332.198 362.695C335.144 364.225 337.439 366.492 339.083 369.495C340.783 372.498 341.633 376.125 341.633 380.375V408H332.028V381.82C332.028 377.627 330.979 374.425 328.883 372.215C326.786 369.948 323.924 368.815 320.298 368.815C316.671 368.815 313.781 369.948 311.628 372.215C309.531 374.425 308.483 377.627 308.483 381.82V408H298.878V381.82C298.878 377.627 297.829 374.425 295.733 372.215C293.636 369.948 290.774 368.815 287.148 368.815C283.521 368.815 280.631 369.948 278.478 372.215C276.381 374.425 275.333 377.627 275.333 381.82V408H265.643V361.165H275.333V366.52C276.919 364.593 278.931 363.092 281.368 362.015C283.804 360.938 286.411 360.4 289.188 360.4C292.928 360.4 296.271 361.193 299.218 362.78C302.164 364.367 304.431 366.662 306.018 369.665C307.434 366.832 309.644 364.593 312.648 362.95C315.651 361.25 318.881 360.4 322.338 360.4ZM350.733 384.37C350.733 379.667 351.696 375.502 353.623 371.875C355.606 368.248 358.27 365.443 361.613 363.46C365.013 361.42 368.753 360.4 372.833 360.4C376.516 360.4 379.718 361.137 382.438 362.61C385.215 364.027 387.425 365.812 389.068 367.965V361.165H398.843V408H389.068V401.03C387.425 403.24 385.186 405.082 382.353 406.555C379.52 408.028 376.29 408.765 372.663 408.765C368.64 408.765 364.956 407.745 361.613 405.705C358.27 403.608 355.606 400.718 353.623 397.035C351.696 393.295 350.733 389.073 350.733 384.37ZM389.068 384.54C389.068 381.31 388.388 378.505 387.028 376.125C385.725 373.745 383.996 371.932 381.843 370.685C379.69 369.438 377.366 368.815 374.873 368.815C372.38 368.815 370.056 369.438 367.903 370.685C365.75 371.875 363.993 373.66 362.633 376.04C361.33 378.363 360.678 381.14 360.678 384.37C360.678 387.6 361.33 390.433 362.633 392.87C363.993 395.307 365.75 397.177 367.903 398.48C370.113 399.727 372.436 400.35 374.873 400.35C377.366 400.35 379.69 399.727 381.843 398.48C383.996 397.233 385.725 395.42 387.028 393.04C388.388 390.603 389.068 387.77 389.068 384.54ZM435.2 360.4C438.884 360.4 442.17 361.165 445.06 362.695C448.007 364.225 450.302 366.492 451.945 369.495C453.589 372.498 454.41 376.125 454.41 380.375V408H444.805V381.82C444.805 377.627 443.757 374.425 441.66 372.215C439.564 369.948 436.702 368.815 433.075 368.815C429.449 368.815 426.559 369.948 424.405 372.215C422.309 374.425 421.26 377.627 421.26 381.82V408H411.57V361.165H421.26V366.52C422.847 364.593 424.859 363.092 427.295 362.015C429.789 360.938 432.424 360.4 435.2 360.4ZM509.696 383.435C509.696 385.192 509.582 386.778 509.356 388.195H473.571C473.854 391.935 475.242 394.938 477.736 397.205C480.229 399.472 483.289 400.605 486.916 400.605C492.129 400.605 495.812 398.423 497.966 394.06H508.421C507.004 398.367 504.426 401.908 500.686 404.685C497.002 407.405 492.412 408.765 486.916 408.765C482.439 408.765 478.416 407.773 474.846 405.79C471.332 403.75 468.556 400.917 466.516 397.29C464.532 393.607 463.541 389.357 463.541 384.54C463.541 379.723 464.504 375.502 466.431 371.875C468.414 368.192 471.162 365.358 474.676 363.375C478.246 361.392 482.326 360.4 486.916 360.4C491.336 360.4 495.274 361.363 498.731 363.29C502.187 365.217 504.879 367.937 506.806 371.45C508.732 374.907 509.696 378.902 509.696 383.435ZM499.581 380.375C499.524 376.805 498.249 373.943 495.756 371.79C493.262 369.637 490.174 368.56 486.491 368.56C483.147 368.56 480.286 369.637 477.906 371.79C475.526 373.887 474.109 376.748 473.656 380.375H499.581ZM516.001 384.54C516.001 379.723 516.965 375.502 518.891 371.875C520.875 368.192 523.595 365.358 527.051 363.375C530.508 361.392 534.475 360.4 538.951 360.4C544.618 360.4 549.293 361.76 552.976 364.48C556.716 367.143 559.238 370.968 560.541 375.955H550.086C549.236 373.632 547.876 371.818 546.006 370.515C544.136 369.212 541.785 368.56 538.951 368.56C534.985 368.56 531.811 369.977 529.431 372.81C527.108 375.587 525.946 379.497 525.946 384.54C525.946 389.583 527.108 393.522 529.431 396.355C531.811 399.188 534.985 400.605 538.951 400.605C544.561 400.605 548.273 398.14 550.086 393.21H560.541C559.181 397.97 556.631 401.767 552.891 404.6C549.151 407.377 544.505 408.765 538.951 408.765C534.475 408.765 530.508 407.773 527.051 405.79C523.595 403.75 520.875 400.917 518.891 397.29C516.965 393.607 516.001 389.357 516.001 384.54ZM613.123 383.435C613.123 385.192 613.01 386.778 612.783 388.195H576.998C577.282 391.935 578.67 394.938 581.163 397.205C583.657 399.472 586.717 400.605 590.343 400.605C595.557 400.605 599.24 398.423 601.393 394.06H611.848C610.432 398.367 607.853 401.908 604.113 404.685C600.43 407.405 595.84 408.765 590.343 408.765C585.867 408.765 581.843 407.773 578.273 405.79C574.76 403.75 571.983 400.917 569.943 397.29C567.96 393.607 566.968 389.357 566.968 384.54C566.968 379.723 567.932 375.502 569.858 371.875C571.842 368.192 574.59 365.358 578.103 363.375C581.673 361.392 585.753 360.4 590.343 360.4C594.763 360.4 598.702 361.363 602.158 363.29C605.615 365.217 608.307 367.937 610.233 371.45C612.16 374.907 613.123 378.902 613.123 383.435ZM603.008 380.375C602.952 376.805 601.677 373.943 599.183 371.79C596.69 369.637 593.602 368.56 589.918 368.56C586.575 368.56 583.713 369.637 581.333 371.79C578.953 373.887 577.537 376.748 577.083 380.375H603.008ZM632.349 367.965C633.766 365.585 635.636 363.743 637.959 362.44C640.339 361.08 643.144 360.4 646.374 360.4V370.43H643.909C640.113 370.43 637.223 371.393 635.239 373.32C633.313 375.247 632.349 378.59 632.349 383.35V408H622.659V361.165H632.349V367.965Z" fill="black"/>
<path d="M251.81 272.735C243.2 272.735 236.13 270.705 230.6 266.645C225.07 262.515 222.095 256.635 221.675 249.005H243.62C243.83 251.595 244.6 253.485 245.93 254.675C247.26 255.865 248.975 256.46 251.075 256.46C252.965 256.46 254.505 256.005 255.695 255.095C256.955 254.115 257.585 252.785 257.585 251.105C257.585 248.935 256.57 247.255 254.54 246.065C252.51 244.875 249.22 243.545 244.67 242.075C239.84 240.465 235.92 238.925 232.91 237.455C229.97 235.915 227.38 233.71 225.14 230.84C222.97 227.9 221.885 224.085 221.885 219.395C221.885 214.635 223.075 210.575 225.455 207.215C227.835 203.785 231.125 201.195 235.325 199.445C239.525 197.695 244.285 196.82 249.605 196.82C258.215 196.82 265.075 198.85 270.185 202.91C275.365 206.9 278.13 212.535 278.48 219.815H256.115C256.045 217.575 255.345 215.895 254.015 214.775C252.755 213.655 251.11 213.095 249.08 213.095C247.54 213.095 246.28 213.55 245.3 214.46C244.32 215.37 243.83 216.665 243.83 218.345C243.83 219.745 244.355 220.97 245.405 222.02C246.525 223 247.89 223.875 249.5 224.645C251.11 225.345 253.49 226.255 256.64 227.375C261.33 228.985 265.18 230.595 268.19 232.205C271.27 233.745 273.895 235.95 276.065 238.82C278.305 241.62 279.425 245.19 279.425 249.53C279.425 253.94 278.305 257.895 276.065 261.395C273.895 264.895 270.71 267.66 266.51 269.69C262.38 271.72 257.48 272.735 251.81 272.735ZM349.262 213.095V272H328.577V263.6C326.827 266.26 324.412 268.43 321.332 270.11C318.252 271.72 314.717 272.525 310.727 272.525C303.867 272.525 298.442 270.285 294.452 265.805C290.532 261.255 288.572 255.095 288.572 247.325V213.095H309.047V244.7C309.047 248.06 309.922 250.72 311.672 252.68C313.492 254.57 315.872 255.515 318.812 255.515C321.822 255.515 324.202 254.57 325.952 252.68C327.702 250.72 328.577 248.06 328.577 244.7V213.095H349.262ZM399.51 212.57C406.3 212.57 411.69 214.845 415.68 219.395C419.67 223.875 421.665 229.965 421.665 237.665V272H401.085V240.395C401.085 237.035 400.21 234.41 398.46 232.52C396.71 230.56 394.365 229.58 391.425 229.58C388.345 229.58 385.93 230.56 384.18 232.52C382.43 234.41 381.555 237.035 381.555 240.395V272H360.975V213.095H381.555V221.495C383.375 218.835 385.825 216.7 388.905 215.09C391.985 213.41 395.52 212.57 399.51 212.57ZM453.537 223.49C455.847 220.13 458.647 217.47 461.937 215.51C465.227 213.55 468.762 212.57 472.542 212.57V234.515H466.767C462.287 234.515 458.962 235.39 456.792 237.14C454.622 238.89 453.537 241.935 453.537 246.275V272H432.957V213.095H453.537V223.49ZM490.315 207.635C486.675 207.635 483.735 206.655 481.495 204.695C479.325 202.665 478.24 200.145 478.24 197.135C478.24 194.055 479.325 191.5 481.495 189.47C483.735 187.44 486.675 186.425 490.315 186.425C493.885 186.425 496.755 187.44 498.925 189.47C501.165 191.5 502.285 194.055 502.285 197.135C502.285 200.145 501.165 202.665 498.925 204.695C496.755 206.655 493.885 207.635 490.315 207.635ZM500.5 213.095V272H479.92V213.095H500.5ZM537.315 272.735C531.995 272.735 527.235 271.86 523.035 270.11C518.905 268.29 515.615 265.84 513.165 262.76C510.785 259.61 509.455 256.075 509.175 252.155H529.125C529.405 254.045 530.28 255.515 531.75 256.565C533.22 257.615 535.04 258.14 537.21 258.14C538.89 258.14 540.22 257.79 541.2 257.09C542.18 256.39 542.67 255.48 542.67 254.36C542.67 252.89 541.865 251.805 540.255 251.105C538.645 250.405 535.985 249.635 532.275 248.795C528.075 247.955 524.575 247.01 521.775 245.96C518.975 244.91 516.525 243.195 514.425 240.815C512.395 238.435 511.38 235.215 511.38 231.155C511.38 227.655 512.325 224.505 514.215 221.705C516.105 218.835 518.87 216.56 522.51 214.88C526.22 213.2 530.665 212.36 535.845 212.36C543.545 212.36 549.6 214.25 554.01 218.03C558.42 221.81 560.975 226.78 561.675 232.94H543.09C542.74 231.05 541.9 229.615 540.57 228.635C539.31 227.585 537.595 227.06 535.425 227.06C533.745 227.06 532.45 227.375 531.54 228.005C530.7 228.635 530.28 229.51 530.28 230.63C530.28 232.03 531.085 233.115 532.695 233.885C534.305 234.585 536.895 235.32 540.465 236.09C544.735 237 548.27 238.015 551.07 239.135C553.94 240.255 556.425 242.075 558.525 244.595C560.695 247.045 561.78 250.405 561.78 254.675C561.78 258.105 560.765 261.185 558.735 263.915C556.775 266.645 553.94 268.815 550.23 270.425C546.59 271.965 542.285 272.735 537.315 272.735ZM628.178 241.865C628.178 243.475 628.073 245.085 627.863 246.695H588.908C589.118 249.915 589.993 252.33 591.533 253.94C593.143 255.48 595.173 256.25 597.623 256.25C601.053 256.25 603.503 254.71 604.973 251.63H626.918C626.008 255.69 624.223 259.33 621.563 262.55C618.973 265.7 615.683 268.185 611.693 270.005C607.703 271.825 603.293 272.735 598.463 272.735C592.653 272.735 587.473 271.51 582.923 269.06C578.443 266.61 574.908 263.11 572.318 258.56C569.798 254.01 568.538 248.655 568.538 242.495C568.538 236.335 569.798 231.015 572.318 226.535C574.838 221.985 578.338 218.485 582.818 216.035C587.368 213.585 592.583 212.36 598.463 212.36C604.273 212.36 609.418 213.55 613.898 215.93C618.378 218.31 621.878 221.74 624.398 226.22C626.918 230.63 628.178 235.845 628.178 241.865ZM607.178 236.72C607.178 234.2 606.338 232.24 604.658 230.84C602.978 229.37 600.878 228.635 598.358 228.635C595.838 228.635 593.773 229.335 592.163 230.735C590.553 232.065 589.503 234.06 589.013 236.72H607.178Z" fill="black"/>
<mask id="path-11-outside-2_97_53" maskUnits="userSpaceOnUse" x="402" y="1006" width="46" height="32" fill="black">
<rect fill="white" x="402" y="1006" width="46" height="32"/>
<path d="M421.2 1011.76H407.8V1019.72C408.36 1018.97 409.187 1018.35 410.28 1017.84C411.4 1017.33 412.587 1017.08 413.84 1017.08C416.08 1017.08 417.893 1017.56 419.28 1018.52C420.693 1019.48 421.693 1020.69 422.28 1022.16C422.893 1023.63 423.2 1025.17 423.2 1026.8C423.2 1028.77 422.813 1030.53 422.04 1032.08C421.293 1033.6 420.16 1034.8 418.64 1035.68C417.147 1036.56 415.307 1037 413.12 1037C410.213 1037 407.88 1036.28 406.12 1034.84C404.36 1033.4 403.307 1031.49 402.96 1029.12H407.4C407.693 1030.37 408.347 1031.37 409.36 1032.12C410.373 1032.84 411.64 1033.2 413.16 1033.2C415.053 1033.2 416.467 1032.63 417.4 1031.48C418.36 1030.33 418.84 1028.81 418.84 1026.92C418.84 1025 418.36 1023.53 417.4 1022.52C416.44 1021.48 415.027 1020.96 413.16 1020.96C411.853 1020.96 410.747 1021.29 409.84 1021.96C408.96 1022.6 408.32 1023.48 407.92 1024.6H403.6V1007.76H421.2V1011.76ZM430.467 1030.8C433.027 1028.59 435.04 1026.77 436.507 1025.36C438 1023.92 439.24 1022.43 440.227 1020.88C441.214 1019.33 441.707 1017.79 441.707 1016.24C441.707 1014.64 441.32 1013.39 440.547 1012.48C439.8 1011.57 438.614 1011.12 436.987 1011.12C435.414 1011.12 434.187 1011.63 433.307 1012.64C432.454 1013.63 432 1014.96 431.947 1016.64H427.547C427.627 1013.6 428.534 1011.28 430.267 1009.68C432.027 1008.05 434.254 1007.24 436.947 1007.24C439.854 1007.24 442.12 1008.04 443.747 1009.64C445.4 1011.24 446.227 1013.37 446.227 1016.04C446.227 1017.96 445.734 1019.81 444.747 1021.6C443.787 1023.36 442.627 1024.95 441.267 1026.36C439.934 1027.75 438.227 1029.36 436.147 1031.2L434.347 1032.8H447.027V1036.6H427.587V1033.28L430.467 1030.8Z"/>
</mask>
<path d="M421.2 1011.76H407.8V1019.72C408.36 1018.97 409.187 1018.35 410.28 1017.84C411.4 1017.33 412.587 1017.08 413.84 1017.08C416.08 1017.08 417.893 1017.56 419.28 1018.52C420.693 1019.48 421.693 1020.69 422.28 1022.16C422.893 1023.63 423.2 1025.17 423.2 1026.8C423.2 1028.77 422.813 1030.53 422.04 1032.08C421.293 1033.6 420.16 1034.8 418.64 1035.68C417.147 1036.56 415.307 1037 413.12 1037C410.213 1037 407.88 1036.28 406.12 1034.84C404.36 1033.4 403.307 1031.49 402.96 1029.12H407.4C407.693 1030.37 408.347 1031.37 409.36 1032.12C410.373 1032.84 411.64 1033.2 413.16 1033.2C415.053 1033.2 416.467 1032.63 417.4 1031.48C418.36 1030.33 418.84 1028.81 418.84 1026.92C418.84 1025 418.36 1023.53 417.4 1022.52C416.44 1021.48 415.027 1020.96 413.16 1020.96C411.853 1020.96 410.747 1021.29 409.84 1021.96C408.96 1022.6 408.32 1023.48 407.92 1024.6H403.6V1007.76H421.2V1011.76ZM430.467 1030.8C433.027 1028.59 435.04 1026.77 436.507 1025.36C438 1023.92 439.24 1022.43 440.227 1020.88C441.214 1019.33 441.707 1017.79 441.707 1016.24C441.707 1014.64 441.32 1013.39 440.547 1012.48C439.8 1011.57 438.614 1011.12 436.987 1011.12C435.414 1011.12 434.187 1011.63 433.307 1012.64C432.454 1013.63 432 1014.96 431.947 1016.64H427.547C427.627 1013.6 428.534 1011.28 430.267 1009.68C432.027 1008.05 434.254 1007.24 436.947 1007.24C439.854 1007.24 442.12 1008.04 443.747 1009.64C445.4 1011.24 446.227 1013.37 446.227 1016.04C446.227 1017.96 445.734 1019.81 444.747 1021.6C443.787 1023.36 442.627 1024.95 441.267 1026.36C439.934 1027.75 438.227 1029.36 436.147 1031.2L434.347 1032.8H447.027V1036.6H427.587V1033.28L430.467 1030.8Z" fill="black"/>
<path d="M421.2 1011.76V1012.06H421.5V1011.76H421.2ZM407.8 1011.76V1011.46H407.5V1011.76H407.8ZM407.8 1019.72H407.5V1020.62L408.04 1019.9L407.8 1019.72ZM410.28 1017.84L410.156 1017.57L410.154 1017.57L410.28 1017.84ZM419.28 1018.52L419.109 1018.77L419.111 1018.77L419.28 1018.52ZM422.28 1022.16L422.001 1022.27L422.003 1022.28L422.28 1022.16ZM422.04 1032.08L421.772 1031.95L421.771 1031.95L422.04 1032.08ZM418.64 1035.68L418.49 1035.42L418.488 1035.42L418.64 1035.68ZM406.12 1034.84L406.31 1034.61L406.12 1034.84ZM402.96 1029.12V1028.82H402.613L402.663 1029.16L402.96 1029.12ZM407.4 1029.12L407.692 1029.05L407.638 1028.82H407.4V1029.12ZM409.36 1032.12L409.182 1032.36L409.186 1032.36L409.36 1032.12ZM417.4 1031.48L417.17 1031.29L417.167 1031.29L417.4 1031.48ZM417.4 1022.52L417.18 1022.72L417.182 1022.73L417.4 1022.52ZM409.84 1021.96L410.016 1022.2L410.018 1022.2L409.84 1021.96ZM407.92 1024.6V1024.9H408.131L408.203 1024.7L407.92 1024.6ZM403.6 1024.6H403.3V1024.9H403.6V1024.6ZM403.6 1007.76V1007.46H403.3V1007.76H403.6ZM421.2 1007.76H421.5V1007.46H421.2V1007.76ZM421.2 1011.76V1011.46H407.8V1011.76V1012.06H421.2V1011.76ZM407.8 1011.76H407.5V1019.72H407.8H408.1V1011.76H407.8ZM407.8 1019.72L408.04 1019.9C408.563 1019.2 409.345 1018.6 410.406 1018.11L410.28 1017.84L410.154 1017.57C409.028 1018.09 408.157 1018.74 407.56 1019.54L407.8 1019.72ZM410.28 1017.84L410.404 1018.11C411.484 1017.62 412.628 1017.38 413.84 1017.38V1017.08V1016.78C412.545 1016.78 411.316 1017.04 410.156 1017.57L410.28 1017.84ZM413.84 1017.08V1017.38C416.039 1017.38 417.787 1017.85 419.109 1018.77L419.28 1018.52L419.451 1018.27C418 1017.27 416.121 1016.78 413.84 1016.78V1017.08ZM419.28 1018.52L419.111 1018.77C420.48 1019.7 421.439 1020.86 422.001 1022.27L422.28 1022.16L422.559 1022.05C421.948 1020.52 420.907 1019.26 419.449 1018.27L419.28 1018.52ZM422.28 1022.16L422.003 1022.28C422.601 1023.7 422.9 1025.21 422.9 1026.8H423.2H423.5C423.5 1025.13 423.186 1023.55 422.557 1022.04L422.28 1022.16ZM423.2 1026.8H422.9C422.9 1028.73 422.521 1030.45 421.772 1031.95L422.04 1032.08L422.308 1032.21C423.105 1030.62 423.5 1028.81 423.5 1026.8H423.2ZM422.04 1032.08L421.771 1031.95C421.051 1033.41 419.96 1034.57 418.49 1035.42L418.64 1035.68L418.79 1035.94C420.36 1035.03 421.535 1033.79 422.309 1032.21L422.04 1032.08ZM418.64 1035.68L418.488 1035.42C417.051 1036.27 415.267 1036.7 413.12 1036.7V1037V1037.3C415.346 1037.3 417.242 1036.85 418.792 1035.94L418.64 1035.68ZM413.12 1037V1036.7C410.263 1036.7 408.003 1035.99 406.31 1034.61L406.12 1034.84L405.93 1035.07C407.757 1036.57 410.164 1037.3 413.12 1037.3V1037ZM406.12 1034.84L406.31 1034.61C404.611 1033.22 403.593 1031.38 403.257 1029.08L402.96 1029.12L402.663 1029.16C403.02 1031.61 404.109 1033.58 405.93 1035.07L406.12 1034.84ZM402.96 1029.12V1029.42H407.4V1029.12V1028.82H402.96V1029.12ZM407.4 1029.12L407.108 1029.19C407.417 1030.51 408.11 1031.57 409.182 1032.36L409.36 1032.12L409.538 1031.88C408.583 1031.18 407.97 1030.24 407.692 1029.05L407.4 1029.12ZM409.36 1032.12L409.186 1032.36C410.261 1033.13 411.592 1033.5 413.16 1033.5V1033.2V1032.9C411.688 1032.9 410.486 1032.55 409.534 1031.88L409.36 1032.12ZM413.16 1033.2V1033.5C415.116 1033.5 416.627 1032.9 417.633 1031.67L417.4 1031.48L417.167 1031.29C416.306 1032.35 414.991 1032.9 413.16 1032.9V1033.2ZM417.4 1031.48L417.63 1031.67C418.646 1030.46 419.14 1028.86 419.14 1026.92H418.84H418.54C418.54 1028.76 418.074 1030.21 417.17 1031.29L417.4 1031.48ZM418.84 1026.92H419.14C419.14 1024.95 418.648 1023.4 417.618 1022.31L417.4 1022.52L417.182 1022.73C418.072 1023.67 418.54 1025.05 418.54 1026.92H418.84ZM417.4 1022.52L417.62 1022.32C416.587 1021.2 415.082 1020.66 413.16 1020.66V1020.96V1021.26C414.971 1021.26 416.293 1021.76 417.18 1022.72L417.4 1022.52ZM413.16 1020.96V1020.66C411.8 1020.66 410.628 1021.01 409.662 1021.72L409.84 1021.96L410.018 1022.2C410.865 1021.58 411.907 1021.26 413.16 1021.26V1020.96ZM409.84 1021.96L409.664 1021.72C408.73 1022.4 408.056 1023.33 407.637 1024.5L407.92 1024.6L408.203 1024.7C408.584 1023.63 409.19 1022.8 410.016 1022.2L409.84 1021.96ZM407.92 1024.6V1024.3H403.6V1024.6V1024.9H407.92V1024.6ZM403.6 1024.6H403.9V1007.76H403.6H403.3V1024.6H403.6ZM403.6 1007.76V1008.06H421.2V1007.76V1007.46H403.6V1007.76ZM421.2 1007.76H420.9V1011.76H421.2H421.5V1007.76H421.2ZM430.467 1030.8L430.663 1031.03L430.663 1031.03L430.467 1030.8ZM436.507 1025.36L436.715 1025.58L436.715 1025.58L436.507 1025.36ZM440.547 1012.48L440.315 1012.67L440.319 1012.67L440.547 1012.48ZM433.307 1012.64L433.08 1012.44L433.08 1012.44L433.307 1012.64ZM431.947 1016.64V1016.94H432.238L432.247 1016.65L431.947 1016.64ZM427.547 1016.64L427.247 1016.63L427.239 1016.94H427.547V1016.64ZM430.267 1009.68L430.47 1009.9L430.47 1009.9L430.267 1009.68ZM443.747 1009.64L443.536 1009.85L443.538 1009.86L443.747 1009.64ZM444.747 1021.6L444.484 1021.45L444.484 1021.46L444.747 1021.6ZM441.267 1026.36L441.051 1026.15L441.051 1026.15L441.267 1026.36ZM436.147 1031.2L435.948 1030.98L435.948 1030.98L436.147 1031.2ZM434.347 1032.8L434.148 1032.58L433.558 1033.1H434.347V1032.8ZM447.027 1032.8H447.327V1032.5H447.027V1032.8ZM447.027 1036.6V1036.9H447.327V1036.6H447.027ZM427.587 1036.6H427.287V1036.9H427.587V1036.6ZM427.587 1033.28L427.391 1033.05L427.287 1033.14V1033.28H427.587ZM430.467 1030.8L430.663 1031.03C433.225 1028.81 435.243 1026.99 436.715 1025.58L436.507 1025.36L436.299 1025.14C434.838 1026.55 432.829 1028.36 430.271 1030.57L430.467 1030.8ZM436.507 1025.36L436.715 1025.58C438.223 1024.12 439.479 1022.61 440.48 1021.04L440.227 1020.88L439.974 1020.72C439.002 1022.24 437.777 1023.72 436.299 1025.14L436.507 1025.36ZM440.227 1020.88L440.48 1021.04C441.491 1019.46 442.007 1017.85 442.007 1016.24H441.707H441.407C441.407 1017.72 440.936 1019.21 439.974 1020.72L440.227 1020.88ZM441.707 1016.24H442.007C442.007 1014.59 441.609 1013.26 440.775 1012.29L440.547 1012.48L440.319 1012.67C441.032 1013.51 441.407 1014.69 441.407 1016.24H441.707ZM440.547 1012.48L440.778 1012.29C439.955 1011.29 438.667 1010.82 436.987 1010.82V1011.12V1011.42C438.56 1011.42 439.645 1011.86 440.315 1012.67L440.547 1012.48ZM436.987 1011.12V1010.82C435.343 1010.82 434.027 1011.35 433.08 1012.44L433.307 1012.64L433.533 1012.84C434.346 1011.9 435.484 1011.42 436.987 1011.42V1011.12ZM433.307 1012.64L433.08 1012.44C432.17 1013.5 431.702 1014.9 431.647 1016.63L431.947 1016.64L432.247 1016.65C432.299 1015.02 432.737 1013.76 433.534 1012.84L433.307 1012.64ZM431.947 1016.64V1016.34H427.547V1016.64V1016.94H431.947V1016.64ZM427.547 1016.64L427.847 1016.65C427.925 1013.66 428.812 1011.43 430.47 1009.9L430.267 1009.68L430.063 1009.46C428.255 1011.13 427.328 1013.54 427.247 1016.63L427.547 1016.64ZM430.267 1009.68L430.47 1009.9C432.168 1008.33 434.319 1007.54 436.947 1007.54V1007.24V1006.94C434.188 1006.94 431.886 1007.78 430.063 1009.46L430.267 1009.68ZM436.947 1007.24V1007.54C439.797 1007.54 441.98 1008.32 443.537 1009.85L443.747 1009.64L443.957 1009.43C442.26 1007.76 439.91 1006.94 436.947 1006.94V1007.24ZM443.747 1009.64L443.538 1009.86C445.124 1011.39 445.927 1013.44 445.927 1016.04H446.227H446.527C446.527 1013.31 445.677 1011.09 443.956 1009.42L443.747 1009.64ZM446.227 1016.04H445.927C445.927 1017.91 445.448 1019.71 444.484 1021.45L444.747 1021.6L445.009 1021.75C446.019 1019.92 446.527 1018.01 446.527 1016.04H446.227ZM444.747 1021.6L444.484 1021.46C443.536 1023.19 442.392 1024.76 441.051 1026.15L441.267 1026.36L441.483 1026.57C442.862 1025.14 444.038 1023.53 445.01 1021.74L444.747 1021.6ZM441.267 1026.36L441.051 1026.15C439.725 1027.53 438.024 1029.14 435.948 1030.98L436.147 1031.2L436.346 1031.42C438.429 1029.58 440.142 1027.96 441.483 1026.57L441.267 1026.36ZM436.147 1031.2L435.948 1030.98L434.148 1032.58L434.347 1032.8L434.546 1033.02L436.346 1031.42L436.147 1031.2ZM434.347 1032.8V1033.1H447.027V1032.8V1032.5H434.347V1032.8ZM447.027 1032.8H446.727V1036.6H447.027H447.327V1032.8H447.027ZM447.027 1036.6V1036.3H427.587V1036.6V1036.9H447.027V1036.6ZM427.587 1036.6H427.887V1033.28H427.587H427.287V1036.6H427.587ZM427.587 1033.28L427.783 1033.51L430.663 1031.03L430.467 1030.8L430.271 1030.57L427.391 1033.05L427.587 1033.28Z" fill="black" mask="url(#path-11-outside-2_97_53)"/>
<path d="M571.411 443.163C575.351 442.948 579.434 443.19 583.391 443.171C595.259 443.114 605.36 443.168 615.774 449.615C624.973 455.25 631.527 464.342 633.958 474.851C635.745 482.629 635.211 490.983 635.207 498.917L635.203 526.755L635.199 631.405L635.195 841.918L635.191 910.355C635.195 922.827 635.641 935.497 635.017 947.949C634.653 955.256 633.276 961.616 629.339 967.877C623.601 977 613.957 983.579 603.455 985.887C594.477 987.859 581.227 986.954 571.692 986.945L523.933 986.937L332.371 986.941L296.698 986.962C290.902 986.962 284.729 987.384 278.973 986.9C278.451 986.854 278.038 986.685 277.602 986.408C276.655 986.995 275.669 986.954 274.592 986.987C271.604 987.073 268.611 986.916 265.623 986.941C250.56 987.073 237.863 985.982 226.399 975.077C218.334 967.406 214.385 957.415 214.128 946.357C213.863 934.997 214.125 923.575 214.126 912.211L214.117 844.87L214.116 639.48L214.115 531.084L214.098 498.384C214.095 492.187 213.726 485.717 214.438 479.562C215.497 470.694 219.397 462.407 225.556 455.939C231.631 449.63 240.181 445.151 248.848 443.817C257.778 442.442 270.351 443.218 279.681 443.217L338.979 443.237L495.664 443.222C520.897 443.21 546.185 443.617 571.411 443.163Z" fill="black"/>
<path d="M257.977 455.234C262.935 455.141 267.893 455.087 272.851 455.07L495.292 455.052L562.655 455.078C574.464 455.092 586.944 454.156 598.645 455.786C604.619 456.618 610.59 460.023 614.805 464.269C619.279 468.777 622.592 475.65 623.427 481.982C623.995 486.287 623.742 490.81 623.74 495.155L623.785 514.959L623.755 588.585L623.736 827.425C620.557 823.706 617.236 820.111 613.779 816.649C591.56 794.561 564.243 781.157 532.598 781.284C532.596 767.52 530.377 754.729 525.748 741.754C521.149 730.227 515.34 719.752 507.375 710.183C489.305 688.478 461.567 673.643 433.403 671.128C404.596 668.556 376.774 676.632 354.532 695.261C332.553 713.669 317.328 740.012 314.782 768.763C312.153 768.875 309.533 769.125 306.931 769.512C273.306 774.524 245.296 794.594 225.328 821.48L225.313 585.501L225.298 515.922L225.288 494.98C225.287 490.535 225.052 485.942 225.586 481.528C226.348 475.244 229.125 469.377 233.501 464.802C240.165 457.74 248.591 455.537 257.977 455.234Z" fill="#5DDBEB"/>
<path d="M296.746 522.503C302.737 521.608 309.384 522.715 314.859 525.176C324.16 529.358 329.653 537.168 333.159 546.422C336.398 545.483 339.978 545.099 343.347 545.049C350.656 544.943 357.821 546.832 363.136 552.08C368.314 557.269 371.247 564.284 371.302 571.613C371.302 579.023 368.371 586.132 363.147 591.389C354.391 600.171 343.531 600.495 332.014 600.505L316.341 600.494L287.5 600.575C279.386 600.589 270.72 601.178 262.757 599.438C257.744 598.343 252.842 596.113 248.944 592.743C243.989 588.393 240.965 582.254 240.536 575.676C240.173 569.515 242.158 563.278 246.325 558.68C251.656 552.796 257.835 551.467 265.398 551.092C266.266 546.044 268.538 540.95 271.604 536.87C277.791 528.637 286.654 523.956 296.746 522.503Z" fill="black"/>
<path d="M255.108 564.537C257.477 562.981 259.399 562.181 262.252 561.947C265.978 561.643 273.856 564.317 274.957 559.3C275.418 557.2 275.385 555.007 275.749 552.889C276.867 546.383 280.778 540.742 286.254 537.123C291.881 533.405 298.95 531.739 305.593 533.192C311.81 534.545 317.212 538.361 320.565 543.766C321.518 545.274 322.407 546.869 322.94 548.577C324.008 551.999 324.01 557.741 328.329 558.723C330.778 559.28 334.809 556.595 337.223 555.802C344.457 553.425 352.695 554.113 357.328 560.786C358.86 562.993 360.129 566.167 360.282 568.876C360.573 569.903 360.647 571.084 360.642 572.15C360.621 576.914 358.53 581.532 355.137 584.85C352.215 587.71 348.401 589.534 344.395 590.288C338.058 591.482 328.546 590.806 321.893 590.804C307.009 590.817 292.126 590.741 277.243 590.576C269.282 590.447 260.986 590.227 255.066 583.995C252.221 580.999 250.944 576.899 251.09 572.807C251.212 569.37 252.627 566.842 255.108 564.537Z" fill="#FCF2E3"/>
<path d="M255.108 564.538C254.693 569.787 254.974 574.843 258.546 579.052C262.133 583.279 267.686 584.886 273.056 585.283C283.933 586.087 295.184 585.717 306.101 585.775C313.287 585.818 320.473 585.789 327.658 585.689C333.328 585.628 339.342 585.864 344.904 584.672C348.448 583.913 351.71 582.036 354.418 579.656C356.77 577.589 360.05 573.759 360.312 570.485C360.354 569.956 360.314 569.404 360.282 568.876C360.573 569.903 360.647 571.085 360.642 572.151C360.621 576.914 358.53 581.532 355.137 584.851C352.215 587.711 348.401 589.535 344.395 590.289C338.058 591.483 328.546 590.806 321.893 590.805C307.009 590.818 292.126 590.742 277.243 590.576C269.282 590.448 260.986 590.228 255.066 583.995C252.221 581 250.944 576.9 251.09 572.808C251.212 569.371 252.627 566.842 255.108 564.538Z" fill="#DDC2A6"/>
<path d="M540.35 588.258C547.637 587.394 555.002 589.024 561.244 592.88C568.723 597.543 573.028 604.446 574.952 612.907C580.629 613.307 585.548 615.039 589.72 619.027C593.644 622.777 596.012 627.759 596.047 633.218C596.081 638.335 594.302 643.365 590.678 647.033C588.314 649.396 585.373 651.102 582.148 651.982C576.215 653.61 569.454 653.068 563.363 653.075L545.403 653.166C535.681 653.147 525.883 653.374 516.174 652.845C508.2 652.411 500.518 651.291 494.927 644.951C491.4 640.915 489.659 635.623 490.101 630.282C490.551 624.356 493.581 618.727 498.103 614.907C502.89 610.861 508.244 609.4 514.42 609.895C515.827 606.155 517.473 602.687 519.973 599.526C525.056 593.104 532.261 589.225 540.35 588.258Z" fill="black"/>
<path d="M502.937 624.298C505.316 621.918 507.837 620.059 511.34 620.017C513.98 619.985 519.587 622.968 521.487 620.964C523.16 619.199 523.18 615.396 523.898 613.077C526.347 605.165 534.054 598.856 542.311 598.241C548.023 597.816 554.208 599.557 558.548 603.367C561.99 606.388 564.646 610.978 564.902 615.613C565.032 617.967 564.175 622.623 565.968 624.432C566.73 625.201 568.126 625.486 569.168 625.41C570.962 625.28 571.78 623.764 573.295 623.101C575.826 621.994 579.877 623.6 581.877 625.17C584.13 626.939 585.251 629.009 585.896 631.755C585.825 634.207 585.403 636.323 584.019 638.394C582.599 640.52 579.985 642.544 577.442 643.034C571.751 644.129 557.785 643.219 551.303 643.166C539.207 643.066 523.758 643.844 512.041 642.482C509.343 642.168 506.803 641.692 504.53 640.119C502.277 638.561 500.818 636.139 500.375 633.446C499.802 629.967 500.931 627.084 502.937 624.298Z" fill="#FCF2E3"/>
<path d="M502.937 624.298C502.985 628.019 503.348 631.879 506.16 634.649C507.98 636.44 510.35 637.07 512.799 637.531C520.537 638.987 528.96 638.699 536.838 638.842C547.872 639.043 558.965 639.274 569.998 639.065C577.135 638.93 580.967 636.816 585.896 631.755C585.825 634.207 585.403 636.323 584.019 638.394C582.599 640.52 579.985 642.544 577.442 643.034C571.751 644.129 557.785 643.219 551.303 643.166C539.207 643.067 523.758 643.844 512.041 642.482C509.343 642.168 506.803 641.692 504.53 640.119C502.277 638.561 500.818 636.139 500.375 633.446C499.802 629.967 500.931 627.084 502.937 624.298Z" fill="#DDC2A6"/>
<path d="M422.434 558.382C423.256 558.389 424.144 558.537 424.921 558.821C426.313 559.329 427.347 560.382 427.935 561.727C428.478 562.967 428.419 564.556 428.465 565.899C428.959 580.355 428.518 594.979 428.516 609.451C428.513 623.108 428.981 636.949 428.475 650.588C428.441 651.52 428.305 652.444 427.915 653.301C427.081 655.133 425.504 655.807 423.726 656.408C422.824 656.378 421.9 656.232 421.059 655.89C419.742 655.354 418.659 654.168 418.187 652.83C417.283 650.263 417.527 573.249 417.767 565.543C417.808 564.22 417.758 562.488 418.422 561.303C419.318 559.707 420.771 558.933 422.434 558.382Z" fill="black"/>
<path d="M304.534 621.063C305.535 621.058 306.653 621.174 307.59 621.552C308.392 621.876 309.057 622.401 309.631 623.039C312.231 625.922 314.524 629.177 316.902 632.25L329.752 648.884L341.529 664.17C343.861 667.208 346.991 670.577 348.557 674.071C349.101 675.285 349.087 676.921 348.555 678.134C347.795 679.864 346.499 680.645 344.84 681.302C343.669 681.22 342.536 681.181 341.456 680.664C340.448 680.182 339.729 679.487 338.999 678.664C333.437 672.38 328.5 665.097 323.37 658.43C316.516 649.523 309.248 640.747 302.762 631.578C301.864 630.308 300.61 628.644 300.203 627.124C299.906 626.016 300.238 624.631 300.814 623.669C301.701 622.189 302.943 621.518 304.534 621.063Z" fill="black"/>
<path d="M564.777 675.036C565.723 675.012 566.606 675.006 567.511 675.336C569.015 675.884 570.451 677.012 571.057 678.521C571.572 679.803 571.419 681.154 570.843 682.386C570.357 683.425 569.726 684.102 568.879 684.848C563.416 689.657 557.121 693.88 551.32 698.292C546.971 701.6 533.607 712.664 529.306 714.368C528.138 714.535 526.803 714.548 525.684 714.113C524.436 713.628 523.241 712.507 522.749 711.253C522.215 709.892 522.423 708.376 523.009 707.072C523.446 706.1 524.173 705.369 524.961 704.674C530.05 700.189 535.976 696.233 541.391 692.121C545.977 688.638 560.44 676.687 564.777 675.036Z" fill="black"/>
<path d="M275.618 677.517C276.135 677.57 276.653 677.651 277.154 677.795C280.8 678.838 314.117 700.418 318.263 703.545C319.393 704.398 320.429 705.239 321.096 706.511C321.749 707.758 321.972 709.195 321.494 710.542C320.833 712.4 319.729 713.096 318.05 713.88C316.344 713.839 314.999 713.778 313.457 712.978C307.463 709.868 300.139 704.46 294.236 700.645L281.386 692.331C278.876 690.705 276.136 689.141 273.857 687.196C272.926 686.401 272.13 685.167 271.789 683.986C271.382 682.574 271.432 681.105 272.189 679.814C273.006 678.42 274.154 677.939 275.618 677.517Z" fill="black"/>
<path d="M261.65 725.6C262.737 725.484 263.782 725.482 264.859 725.671C271.098 726.769 277.315 728.731 283.476 730.231C289.228 731.633 297.164 732.907 302.436 735.125C303.605 735.616 304.685 736.542 305.373 737.616C306.055 738.68 306.252 739.911 305.956 741.136C305.469 743.154 304.088 744.032 302.411 744.979C297.871 745.719 274.033 739.086 267.504 737.479C264.543 736.751 260.238 735.927 258.648 733.045C257.991 731.855 257.945 730.542 258.311 729.251C258.859 727.316 260.003 726.522 261.65 725.6Z" fill="black"/>
<path d="M366.531 620.431C367.538 620.38 368.595 620.446 369.538 620.823C371.109 621.452 371.867 622.623 372.498 624.107C375.225 630.514 377.088 637.626 379.121 644.297C380.357 648.353 381.977 652.599 382.713 656.767C382.959 658.167 383.238 659.666 382.659 661.019C381.978 662.612 380.625 663.279 379.108 663.858C378.107 663.872 377.123 663.879 376.155 663.576C374.747 663.136 373.923 662.189 373.299 660.901C371.418 657.016 363.31 630.677 362.623 626.254C362.478 625.323 362.611 624.37 362.959 623.494C363.627 621.81 364.969 621.095 366.531 620.431Z" fill="black"/>
<path d="M469.128 623.23C470.051 623.166 471.168 623.091 472.07 623.329C473.443 623.693 474.596 624.382 475.285 625.657C475.933 626.858 475.749 628.147 475.573 629.439C475.074 633.097 473.813 636.778 472.873 640.352C471.452 645.76 470.146 651.241 468.535 656.595C467.715 659.32 467.121 660.592 464.538 661.982C463.88 662.013 463.208 662.043 462.556 661.934C460.993 661.671 459.557 660.855 458.715 659.486C457.362 657.284 458.152 654.477 458.738 652.128C459.962 647.222 464.222 629.245 466.2 625.715C466.863 624.532 468.002 623.9 469.128 623.23Z" fill="black"/>
<path d="M571.096 729.345C572.783 729.158 574.444 729.062 575.989 729.923C577.348 730.679 578.684 732.123 579.059 733.655C579.299 734.633 579.022 735.595 578.483 736.424C577.474 737.979 575.781 738.969 574.087 739.614C571.214 740.708 567.751 741.043 564.718 741.617L548.554 744.696C546.833 744.994 544.727 745.519 543.074 744.708C541.692 744.03 540.008 742.417 539.555 740.935C539.25 739.933 539.513 739.012 540.064 738.148C541.027 736.635 542.713 735.545 544.345 734.876C547.389 733.63 551.075 733.287 554.313 732.665L571.096 729.345Z" fill="black"/>
<path d="M508.817 665.118C510.146 665.03 511.361 665.055 512.631 665.485C513.766 665.87 514.793 666.467 515.298 667.602C515.926 669.014 515.67 670.761 515.092 672.15C513.583 675.779 505.764 683.47 502.12 685.001C501.194 685.156 500.226 685.158 499.313 684.921C497.983 684.577 496.604 683.722 495.93 682.489C495.315 681.365 495.392 680.069 495.747 678.878C496.779 675.423 505.545 666.784 508.817 665.118Z" fill="black"/>
<path d="M236.745 824.392C254.865 802.108 281.447 783.371 310.631 780.39C337.727 777.622 362.209 788.674 382.79 805.499C396.375 816.605 408.201 829.872 420.956 841.9C444.588 864.146 470.884 883.38 499.243 899.164C503.246 901.352 516.388 908.63 519.95 909.246C523.828 911.5 536.526 917.447 540.452 916.45C541.79 916.111 543.014 915.321 543.665 914.076C544.4 912.67 544.691 910.814 544.16 909.308C543.231 906.674 540.379 905.372 538.001 904.342C532.136 901.799 526.154 899.64 520.369 896.886C490.662 882.577 463.089 864.208 438.441 842.309C462.79 817.223 495.863 793.385 532.131 792.816C560.266 792.375 585.225 804.425 605.171 823.839C609.895 828.437 621.129 839.964 623.192 845.763C623.833 847.567 623.686 849.991 623.707 851.906C623.851 865.126 623.716 878.364 623.707 891.584C623.704 897.06 624.222 906.083 623.633 911.202C623.883 915.329 623.717 919.568 623.719 923.708L623.696 944.227C623.602 953.056 621.107 961.674 614.584 967.964C610.309 972.087 604.922 974.816 598.997 975.466C594.479 975.958 589.606 975.639 585.054 975.648L558.883 975.693L472.918 975.743L342.439 975.792L286.174 975.805C276.561 975.797 266.904 976.02 257.297 975.809C248.743 975.623 239.466 971.86 233.543 965.615C229.976 961.856 227.131 956.993 225.935 951.923C224.562 946.113 225.292 936.453 225.294 930.283C225.298 919.32 225.137 908.332 225.374 897.374C225.205 891.89 224.715 843.319 225.631 840.424C227.138 835.656 233.24 828.121 236.745 824.392Z" fill="#169E2D"/>
<path d="M225.374 897.373C227.171 899.689 228.757 902.154 230.573 904.453C234.923 909.957 240.026 915.172 245.405 919.679C266.719 937.527 302.859 946.559 330.054 949.971C338.163 950.984 346.344 951.583 354.487 952.278C378.548 954.329 402.681 955.437 426.83 955.603C432.425 955.64 438.04 955.388 443.641 955.363C479.094 955.214 518.212 954.619 552.775 946.592C575.131 941.402 597.494 932.892 615.702 918.699C618.54 916.487 620.962 913.633 623.633 911.202C623.883 915.329 623.717 919.567 623.72 923.707L623.696 944.227C623.602 953.056 621.108 961.674 614.584 967.963C610.309 972.086 604.922 974.816 598.998 975.465C594.479 975.957 589.607 975.639 585.054 975.647L558.883 975.692L472.918 975.742L342.439 975.792L286.174 975.804C276.561 975.796 266.904 976.019 257.297 975.808C248.744 975.622 239.467 971.859 233.543 965.615C229.976 961.856 227.132 956.992 225.935 951.922C224.562 946.112 225.292 936.452 225.294 930.282C225.298 919.319 225.137 908.332 225.374 897.373Z" fill="#017D38"/>
<path d="M236.745 824.392C254.865 802.108 281.447 783.371 310.631 780.39C337.727 777.622 362.209 788.674 382.79 805.499C396.375 816.605 408.201 829.872 420.956 841.9C444.589 864.146 470.884 883.38 499.243 899.164C503.246 901.352 516.388 908.63 519.95 909.246L519.727 909.871C516.398 908.084 512.716 906.782 509.316 905.095C506.266 903.585 503.24 901.546 500.107 900.273C498.813 899.743 496.248 899.508 494.96 900.116C493.963 900.587 492.679 900.368 491.802 900.955L492.585 900.703L492.646 901.397C494.76 902.001 496.622 903.25 498.647 904.098C504.207 906.426 510.874 909.044 516.698 910.396L517.019 910.466L516.766 910.599C515.265 909.788 512.622 909.445 510.901 908.911C506.885 907.712 502.931 906.31 499.055 904.714C483.202 897.932 467.986 889.752 453.591 880.262C437.838 869.944 423.353 857.546 409.239 845.124C381.195 820.438 352.682 792.4 312.388 793.974C293.317 794.719 276.169 801.082 259.768 810.462C255.001 813.188 250.501 816.157 245.95 819.224C243.677 820.756 241.362 822.566 238.971 823.889C238.276 824.273 237.763 824.431 236.963 824.405C236.89 824.403 236.818 824.396 236.745 824.392Z" fill="url(#paint0_linear_97_53)"/>
<path d="M335.621 850.611C336.025 850.607 336.426 850.623 336.827 850.681C340.648 851.248 344.771 854.217 347.938 856.338C360.819 864.973 372.1 875.613 382.749 886.828C389.832 894.289 396.601 901.98 404.283 908.849C409.103 913.158 423.426 922.206 426.011 925.866C426.811 926.999 427.147 928.19 426.879 929.571C426.602 930.998 425.865 932.359 424.623 933.165C423.723 933.748 423.145 933.727 422.166 933.521C421.868 933.674 421.552 933.835 421.224 933.913C420.3 934.124 419.209 933.64 418.424 933.198C390.688 917.529 375.514 891.691 351.121 873.062C348.247 870.829 345.266 868.74 342.187 866.801C338.863 864.671 334.816 862.608 332.045 859.767C331.303 859.006 330.806 858.092 330.554 857.058C330.244 855.784 330.451 854.535 331.134 853.415C332.203 851.665 333.734 851.037 335.621 850.611Z" fill="black"/>
<path d="M326.311 762.675C327.362 757.746 328.646 752.936 330.338 748.185C339.226 723.24 357.697 701.702 381.766 690.33C404.61 679.536 432.815 678.947 456.463 687.467C481.32 696.607 501.526 715.244 512.637 739.279C518.646 752.874 521.675 767.255 521.267 782.141C484.894 788.926 455.438 808.374 430.824 835.422C418.676 823.378 406.802 810.645 393.81 799.525C376.255 784.195 356.414 773.049 333.189 769.45L325.18 768.643L326.311 762.675Z" fill="#FDD413"/>
<path d="M512.637 739.278C518.646 752.873 521.675 767.254 521.267 782.14C484.894 788.926 455.439 808.374 430.824 835.421C418.676 823.377 406.802 810.644 393.81 799.525C398.948 799.621 404.083 800.155 409.224 799.956C435.055 798.961 461.661 791.454 483.678 777.832C494.336 771.238 504.81 761.603 509.657 749.795C511.046 746.413 511.8 742.825 512.637 739.278Z" fill="#FEAA01"/>
<path d="M326.311 762.675C328.862 764.139 332.213 765.73 333.054 768.818C333.111 769.026 333.148 769.238 333.189 769.45L325.18 768.643L326.311 762.675Z" fill="#FEAA01"/>
<path d="M395.74 694.623C396.833 694.455 398.534 694.321 399.568 694.747C400.657 695.196 401.821 696.381 402.292 697.459C402.764 698.54 402.693 699.694 402.203 700.757C398.955 707.796 368.602 723.933 360.767 726.562C359.21 726.885 357.411 727.288 355.989 726.347C355 725.693 354.227 724.503 354.057 723.328C353.784 721.442 354.822 719.615 355.896 718.147C363.273 708.071 383.343 696.485 395.74 694.623Z" fill="#FEEE91"/>
<defs>
<linearGradient id="paint0_linear_97_53" x1="365.58" y1="886.244" x2="376.686" y2="786.297" gradientUnits="userSpaceOnUse">
<stop stop-color="#46B72A"/>
<stop offset="1" stop-color="#8ECE26"/>
</linearGradient>
</defs>
</svg>
