<svg width="849" height="1183" viewBox="0 0 849 1183" fill="none" xmlns="http://www.w3.org/2000/svg">
<rect x="5" y="5" width="839" height="1173" rx="45" fill="white"/>
<rect x="5" y="5" width="839" height="1173" rx="45" stroke="black" stroke-width="10"/>
<circle cx="786.5" cy="1124.5" r="11.5" fill="black"/>
<circle cx="786.5" cy="59.5" r="11.5" fill="black"/>
<path d="M77 1124.5C77 1130.85 71.8513 1136 65.5 1136C59.1487 1136 54 1130.85 54 1124.5C54 1118.15 59.1487 1113 65.5 1113C71.8513 1113 77 1118.15 77 1124.5Z" fill="black"/>
<path d="M77 59.5C77 65.8513 71.8513 71 65.5 71C59.1487 71 54 65.8513 54 59.5C54 53.1487 59.1487 48 65.5 48C71.8513 48 77 53.1487 77 59.5Z" fill="black"/>
<mask id="path-6-inside-1_97_20" fill="white">
<path d="M708 48C713.523 48 717.934 52.4996 718.616 57.9801C723.122 94.1833 751.817 122.878 788.02 127.384C793.5 128.066 798 132.477 798 138V1046C798 1051.52 793.5 1055.93 788.02 1056.62C751.817 1061.12 723.122 1089.82 718.616 1126.02C717.934 1131.5 713.523 1136 708 1136H141C135.477 1136 131.066 1131.5 130.384 1126.02C125.878 1089.82 97.1833 1061.12 60.9801 1056.62C55.4996 1055.93 51 1051.52 51 1046V138C51 132.477 55.4996 128.066 60.9801 127.384C97.1833 122.878 125.878 94.1833 130.384 57.9801C131.066 52.4996 135.477 48 141 48H708Z"/>
</mask>
<path d="M708 48C713.523 48 717.934 52.4996 718.616 57.9801C723.122 94.1833 751.817 122.878 788.02 127.384C793.5 128.066 798 132.477 798 138V1046C798 1051.52 793.5 1055.93 788.02 1056.62C751.817 1061.12 723.122 1089.82 718.616 1126.02C717.934 1131.5 713.523 1136 708 1136H141C135.477 1136 131.066 1131.5 130.384 1126.02C125.878 1089.82 97.1833 1061.12 60.9801 1056.62C55.4996 1055.93 51 1051.52 51 1046V138C51 132.477 55.4996 128.066 60.9801 127.384C97.1833 122.878 125.878 94.1833 130.384 57.9801C131.066 52.4996 135.477 48 141 48H708Z" fill="#0089CB"/>
<path d="M130.384 1126.02L138.322 1125.03L130.384 1126.02ZM718.616 1126.02L710.678 1125.03L718.616 1126.02ZM788.02 1056.62L789.008 1064.56L788.02 1056.62ZM718.616 57.9801L726.555 56.9922L718.616 57.9801ZM718.616 57.9801L710.678 58.9681C715.635 98.8063 747.194 130.365 787.032 135.322L788.02 127.384L789.008 119.445C756.44 115.392 730.608 89.5603 726.555 56.9922L718.616 57.9801ZM798 138H790V1046H798H806V138H798ZM788.02 1056.62L787.032 1048.68C747.194 1053.64 715.635 1085.19 710.678 1125.03L718.616 1126.02L726.555 1127.01C730.608 1094.44 756.44 1068.61 789.008 1064.56L788.02 1056.62ZM708 1136V1128H141V1136V1144H708V1136ZM130.384 1126.02L138.322 1125.03C133.365 1085.19 101.806 1053.64 61.9681 1048.68L60.9801 1056.62L59.9922 1064.56C92.5603 1068.61 118.392 1094.44 122.445 1127.01L130.384 1126.02ZM51 1046H59V138H51H43V1046H51ZM60.9801 127.384L61.9681 135.322C101.806 130.365 133.365 98.8063 138.322 58.9681L130.384 57.9801L122.445 56.9922C118.392 89.5603 92.5603 115.392 59.9922 119.445L60.9801 127.384ZM141 48V56H708V48V40H141V48ZM130.384 57.9801L138.322 58.9681C138.438 58.0389 138.872 57.2306 139.427 56.6958C139.954 56.1887 140.494 56 141 56V48V40C130.84 40 123.547 48.1329 122.445 56.9922L130.384 57.9801ZM51 138H59C59 137.494 59.1887 136.954 59.6958 136.427C60.2306 135.872 61.0389 135.438 61.9681 135.322L60.9801 127.384L59.9922 119.445C51.1329 120.547 43 127.84 43 138H51ZM60.9801 1056.62L61.9681 1048.68C61.0389 1048.56 60.2306 1048.13 59.6958 1047.57C59.1887 1047.05 59 1046.51 59 1046H51H43C43 1056.16 51.1329 1063.45 59.9922 1064.56L60.9801 1056.62ZM141 1136V1128C140.494 1128 139.954 1127.81 139.427 1127.3C138.872 1126.77 138.438 1125.96 138.322 1125.03L130.384 1126.02L122.445 1127.01C123.547 1135.87 130.84 1144 141 1144V1136ZM718.616 1126.02L710.678 1125.03C710.562 1125.96 710.128 1126.77 709.573 1127.3C709.046 1127.81 708.506 1128 708 1128V1136V1144C718.16 1144 725.453 1135.87 726.555 1127.01L718.616 1126.02ZM798 1046H790C790 1046.51 789.811 1047.05 789.304 1047.57C788.769 1048.13 787.961 1048.56 787.032 1048.68L788.02 1056.62L789.008 1064.56C797.867 1063.45 806 1056.16 806 1046H798ZM788.02 127.384L787.032 135.322C787.961 135.438 788.769 135.872 789.304 136.427C789.811 136.954 790 137.494 790 138H798H806C806 127.84 797.867 120.547 789.008 119.445L788.02 127.384ZM718.616 57.9801L726.555 56.9922C725.453 48.1329 718.16 40 708 40V48V56C708.506 56 709.046 56.1887 709.573 56.6958C710.128 57.2306 710.562 58.0389 710.678 58.9681L718.616 57.9801Z" fill="black" mask="url(#path-6-inside-1_97_20)"/>
<path d="M690 102C695.523 102 699.911 106.512 700.837 111.957C705.019 136.563 724.437 155.981 749.043 160.163C754.488 161.089 759 165.477 759 171V1014C759 1019.52 754.488 1023.91 749.043 1024.84C724.711 1028.97 705.454 1048 700.984 1072.22C699.993 1077.59 695.633 1082 690.175 1082H158.825C153.367 1082 149.007 1077.59 148.016 1072.22C143.546 1048 124.288 1028.97 99.9568 1024.84C94.5121 1023.91 90 1019.52 90 1014V171C90 165.477 94.512 161.089 99.9568 160.163C124.563 155.981 143.981 136.563 148.163 111.957C149.089 106.512 153.477 102 159 102H690Z" fill="#4BADDC"/>
<path d="M274.84 408.595C270.873 408.595 267.303 407.915 264.13 406.555C260.957 405.138 258.463 403.155 256.65 400.605C254.837 398.055 253.93 395.08 253.93 391.68H264.3C264.527 394.23 265.518 396.327 267.275 397.97C269.088 399.613 271.61 400.435 274.84 400.435C278.183 400.435 280.79 399.642 282.66 398.055C284.53 396.412 285.465 394.315 285.465 391.765C285.465 389.782 284.87 388.167 283.68 386.92C282.547 385.673 281.102 384.71 279.345 384.03C277.645 383.35 275.265 382.613 272.205 381.82C268.352 380.8 265.207 379.78 262.77 378.76C260.39 377.683 258.35 376.04 256.65 373.83C254.95 371.62 254.1 368.673 254.1 364.99C254.1 361.59 254.95 358.615 256.65 356.065C258.35 353.515 260.73 351.56 263.79 350.2C266.85 348.84 270.392 348.16 274.415 348.16C280.138 348.16 284.813 349.605 288.44 352.495C292.123 355.328 294.163 359.238 294.56 364.225H283.85C283.68 362.072 282.66 360.23 280.79 358.7C278.92 357.17 276.455 356.405 273.395 356.405C270.618 356.405 268.352 357.113 266.595 358.53C264.838 359.947 263.96 361.987 263.96 364.65C263.96 366.463 264.498 367.965 265.575 369.155C266.708 370.288 268.125 371.195 269.825 371.875C271.525 372.555 273.848 373.292 276.795 374.085C280.705 375.162 283.878 376.238 286.315 377.315C288.808 378.392 290.905 380.063 292.605 382.33C294.362 384.54 295.24 387.515 295.24 391.255C295.24 394.258 294.418 397.092 292.775 399.755C291.188 402.418 288.837 404.572 285.72 406.215C282.66 407.802 279.033 408.595 274.84 408.595ZM326.989 408.765C322.569 408.765 318.574 407.773 315.004 405.79C311.434 403.75 308.629 400.917 306.589 397.29C304.549 393.607 303.529 389.357 303.529 384.54C303.529 379.78 304.577 375.558 306.674 371.875C308.77 368.192 311.632 365.358 315.259 363.375C318.885 361.392 322.937 360.4 327.414 360.4C331.89 360.4 335.942 361.392 339.569 363.375C343.195 365.358 346.057 368.192 348.154 371.875C350.25 375.558 351.299 379.78 351.299 384.54C351.299 389.3 350.222 393.522 348.069 397.205C345.915 400.888 342.969 403.75 339.229 405.79C335.545 407.773 331.465 408.765 326.989 408.765ZM326.989 400.35C329.482 400.35 331.805 399.755 333.959 398.565C336.169 397.375 337.954 395.59 339.314 393.21C340.674 390.83 341.354 387.94 341.354 384.54C341.354 381.14 340.702 378.278 339.399 375.955C338.095 373.575 336.367 371.79 334.214 370.6C332.06 369.41 329.737 368.815 327.244 368.815C324.75 368.815 322.427 369.41 320.274 370.6C318.177 371.79 316.505 373.575 315.259 375.955C314.012 378.278 313.389 381.14 313.389 384.54C313.389 389.583 314.664 393.493 317.214 396.27C319.82 398.99 323.079 400.35 326.989 400.35ZM370.568 345.1V408H360.878V345.1H370.568ZM426.215 383.435C426.215 385.192 426.102 386.778 425.875 388.195H390.09C390.373 391.935 391.762 394.938 394.255 397.205C396.748 399.472 399.808 400.605 403.435 400.605C408.648 400.605 412.332 398.423 414.485 394.06H424.94C423.523 398.367 420.945 401.908 417.205 404.685C413.522 407.405 408.932 408.765 403.435 408.765C398.958 408.765 394.935 407.773 391.365 405.79C387.852 403.75 385.075 400.917 383.035 397.29C381.052 393.607 380.06 389.357 380.06 384.54C380.06 379.723 381.023 375.502 382.95 371.875C384.933 368.192 387.682 365.358 391.195 363.375C394.765 361.392 398.845 360.4 403.435 360.4C407.855 360.4 411.793 361.363 415.25 363.29C418.707 365.217 421.398 367.937 423.325 371.45C425.252 374.907 426.215 378.902 426.215 383.435ZM416.1 380.375C416.043 376.805 414.768 373.943 412.275 371.79C409.782 369.637 406.693 368.56 403.01 368.56C399.667 368.56 396.805 369.637 394.425 371.79C392.045 373.887 390.628 376.748 390.175 380.375H416.1ZM432.521 384.37C432.521 379.667 433.484 375.502 435.411 371.875C437.394 368.248 440.058 365.443 443.401 363.46C446.801 361.42 450.541 360.4 454.621 360.4C458.304 360.4 461.506 361.137 464.226 362.61C467.003 364.027 469.213 365.812 470.856 367.965V361.165H480.631V408H470.856V401.03C469.213 403.24 466.974 405.082 464.141 406.555C461.308 408.028 458.078 408.765 454.451 408.765C450.428 408.765 446.744 407.745 443.401 405.705C440.058 403.608 437.394 400.718 435.411 397.035C433.484 393.295 432.521 389.073 432.521 384.37ZM470.856 384.54C470.856 381.31 470.176 378.505 468.816 376.125C467.513 373.745 465.784 371.932 463.631 370.685C461.478 369.438 459.154 368.815 456.661 368.815C454.168 368.815 451.844 369.438 449.691 370.685C447.538 371.875 445.781 373.66 444.421 376.04C443.118 378.363 442.466 381.14 442.466 384.37C442.466 387.6 443.118 390.433 444.421 392.87C445.781 395.307 447.538 397.177 449.691 398.48C451.901 399.727 454.224 400.35 456.661 400.35C459.154 400.35 461.478 399.727 463.631 398.48C465.784 397.233 467.513 395.42 468.816 393.04C470.176 390.603 470.856 387.77 470.856 384.54ZM490.128 384.37C490.128 379.667 491.092 375.502 493.018 371.875C495.002 368.248 497.665 365.443 501.008 363.46C504.408 361.42 508.177 360.4 512.313 360.4C515.373 360.4 518.377 361.08 521.323 362.44C524.327 363.743 526.707 365.5 528.463 367.71V345.1H538.238V408H528.463V400.945C526.877 403.212 524.667 405.082 521.833 406.555C519.057 408.028 515.855 408.765 512.228 408.765C508.148 408.765 504.408 407.745 501.008 405.705C497.665 403.608 495.002 400.718 493.018 397.035C491.092 393.295 490.128 389.073 490.128 384.37ZM528.463 384.54C528.463 381.31 527.783 378.505 526.423 376.125C525.12 373.745 523.392 371.932 521.238 370.685C519.085 369.438 516.762 368.815 514.268 368.815C511.775 368.815 509.452 369.438 507.298 370.685C505.145 371.875 503.388 373.66 502.028 376.04C500.725 378.363 500.073 381.14 500.073 384.37C500.073 387.6 500.725 390.433 502.028 392.87C503.388 395.307 505.145 397.177 507.298 398.48C509.508 399.727 511.832 400.35 514.268 400.35C516.762 400.35 519.085 399.727 521.238 398.48C523.392 397.233 525.12 395.42 526.423 393.04C527.783 390.603 528.463 387.77 528.463 384.54ZM571.281 408.765C566.861 408.765 562.866 407.773 559.296 405.79C555.726 403.75 552.921 400.917 550.881 397.29C548.841 393.607 547.821 389.357 547.821 384.54C547.821 379.78 548.869 375.558 550.966 371.875C553.062 368.192 555.924 365.358 559.551 363.375C563.177 361.392 567.229 360.4 571.706 360.4C576.182 360.4 580.234 361.392 583.861 363.375C587.487 365.358 590.349 368.192 592.446 371.875C594.542 375.558 595.591 379.78 595.591 384.54C595.591 389.3 594.514 393.522 592.361 397.205C590.207 400.888 587.261 403.75 583.521 405.79C579.837 407.773 575.757 408.765 571.281 408.765ZM571.281 400.35C573.774 400.35 576.097 399.755 578.251 398.565C580.461 397.375 582.246 395.59 583.606 393.21C584.966 390.83 585.646 387.94 585.646 384.54C585.646 381.14 584.994 378.278 583.691 375.955C582.387 373.575 580.659 371.79 578.506 370.6C576.352 369.41 574.029 368.815 571.536 368.815C569.042 368.815 566.719 369.41 564.566 370.6C562.469 371.79 560.797 373.575 559.551 375.955C558.304 378.278 557.681 381.14 557.681 384.54C557.681 389.583 558.956 393.493 561.506 396.27C564.112 398.99 567.371 400.35 571.281 400.35Z" fill="black"/>
<mask id="path-10-outside-2_97_20" maskUnits="userSpaceOnUse" x="401" y="1006" width="47" height="32" fill="black">
<rect fill="white" x="401" y="1006" width="47" height="32"/>
<path d="M404.92 1030.8C407.48 1028.59 409.493 1026.77 410.96 1025.36C412.453 1023.92 413.693 1022.43 414.68 1020.88C415.667 1019.33 416.16 1017.79 416.16 1016.24C416.16 1014.64 415.773 1013.39 415 1012.48C414.253 1011.57 413.067 1011.12 411.44 1011.12C409.867 1011.12 408.64 1011.63 407.76 1012.64C406.907 1013.63 406.453 1014.96 406.4 1016.64H402C402.08 1013.6 402.987 1011.28 404.72 1009.68C406.48 1008.05 408.707 1007.24 411.4 1007.24C414.307 1007.24 416.573 1008.04 418.2 1009.64C419.853 1011.24 420.68 1013.37 420.68 1016.04C420.68 1017.96 420.187 1019.81 419.2 1021.6C418.24 1023.36 417.08 1024.95 415.72 1026.36C414.387 1027.75 412.68 1029.36 410.6 1031.2L408.8 1032.8H421.48V1036.6H402.04V1033.28L404.92 1030.8ZM424.926 1030.92V1027.48L438.366 1008.2H443.886V1026.96H447.606V1030.92H443.886V1037H439.406V1030.92H424.926ZM439.606 1012.84L430.166 1026.96H439.606V1012.84Z"/>
</mask>
<path d="M404.92 1030.8C407.48 1028.59 409.493 1026.77 410.96 1025.36C412.453 1023.92 413.693 1022.43 414.68 1020.88C415.667 1019.33 416.16 1017.79 416.16 1016.24C416.16 1014.64 415.773 1013.39 415 1012.48C414.253 1011.57 413.067 1011.12 411.44 1011.12C409.867 1011.12 408.64 1011.63 407.76 1012.64C406.907 1013.63 406.453 1014.96 406.4 1016.64H402C402.08 1013.6 402.987 1011.28 404.72 1009.68C406.48 1008.05 408.707 1007.24 411.4 1007.24C414.307 1007.24 416.573 1008.04 418.2 1009.64C419.853 1011.24 420.68 1013.37 420.68 1016.04C420.68 1017.96 420.187 1019.81 419.2 1021.6C418.24 1023.36 417.08 1024.95 415.72 1026.36C414.387 1027.75 412.68 1029.36 410.6 1031.2L408.8 1032.8H421.48V1036.6H402.04V1033.28L404.92 1030.8ZM424.926 1030.92V1027.48L438.366 1008.2H443.886V1026.96H447.606V1030.92H443.886V1037H439.406V1030.92H424.926ZM439.606 1012.84L430.166 1026.96H439.606V1012.84Z" fill="black"/>
<path d="M404.92 1030.8L405.116 1031.03L405.116 1031.03L404.92 1030.8ZM410.96 1025.36L411.168 1025.58L411.168 1025.58L410.96 1025.36ZM415 1012.48L414.768 1012.67L414.772 1012.67L415 1012.48ZM407.76 1012.64L407.533 1012.44L407.533 1012.44L407.76 1012.64ZM406.4 1016.64V1016.94H406.691L406.7 1016.65L406.4 1016.64ZM402 1016.64L401.7 1016.63L401.692 1016.94H402V1016.64ZM404.72 1009.68L404.923 1009.9L404.924 1009.9L404.72 1009.68ZM418.2 1009.64L417.99 1009.85L417.991 1009.86L418.2 1009.64ZM419.2 1021.6L418.937 1021.45L418.937 1021.46L419.2 1021.6ZM415.72 1026.36L415.504 1026.15L415.504 1026.15L415.72 1026.36ZM410.6 1031.2L410.401 1030.98L410.401 1030.98L410.6 1031.2ZM408.8 1032.8L408.601 1032.58L408.011 1033.1H408.8V1032.8ZM421.48 1032.8H421.78V1032.5H421.48V1032.8ZM421.48 1036.6V1036.9H421.78V1036.6H421.48ZM402.04 1036.6H401.74V1036.9H402.04V1036.6ZM402.04 1033.28L401.844 1033.05L401.74 1033.14V1033.28H402.04ZM404.92 1030.8L405.116 1031.03C407.678 1028.81 409.696 1026.99 411.168 1025.58L410.96 1025.36L410.752 1025.14C409.291 1026.55 407.282 1028.36 404.724 1030.57L404.92 1030.8ZM410.96 1025.36L411.168 1025.58C412.676 1024.12 413.932 1022.61 414.933 1021.04L414.68 1020.88L414.427 1020.72C413.455 1022.24 412.23 1023.72 410.752 1025.14L410.96 1025.36ZM414.68 1020.88L414.933 1021.04C415.945 1019.46 416.46 1017.85 416.46 1016.24H416.16H415.86C415.86 1017.72 415.389 1019.21 414.427 1020.72L414.68 1020.88ZM416.16 1016.24H416.46C416.46 1014.59 416.062 1013.26 415.228 1012.29L415 1012.48L414.772 1012.67C415.485 1013.51 415.86 1014.69 415.86 1016.24H416.16ZM415 1012.48L415.232 1012.29C414.408 1011.29 413.12 1010.82 411.44 1010.82V1011.12V1011.42C413.013 1011.42 414.098 1011.86 414.768 1012.67L415 1012.48ZM411.44 1011.12V1010.82C409.796 1010.82 408.48 1011.35 407.533 1012.44L407.76 1012.64L407.987 1012.84C408.8 1011.9 409.937 1011.42 411.44 1011.42V1011.12ZM407.76 1012.64L407.533 1012.44C406.623 1013.5 406.155 1014.9 406.1 1016.63L406.4 1016.64L406.7 1016.65C406.752 1015.02 407.19 1013.76 407.987 1012.84L407.76 1012.64ZM406.4 1016.64V1016.34H402V1016.64V1016.94H406.4V1016.64ZM402 1016.64L402.3 1016.65C402.378 1013.66 403.266 1011.43 404.923 1009.9L404.72 1009.68L404.517 1009.46C402.708 1011.13 401.782 1013.54 401.7 1016.63L402 1016.64ZM404.72 1009.68L404.924 1009.9C406.621 1008.33 408.772 1007.54 411.4 1007.54V1007.24V1006.94C408.641 1006.94 406.339 1007.78 404.516 1009.46L404.72 1009.68ZM411.4 1007.24V1007.54C414.251 1007.54 416.433 1008.32 417.99 1009.85L418.2 1009.64L418.41 1009.43C416.713 1007.76 414.363 1006.94 411.4 1006.94V1007.24ZM418.2 1009.64L417.991 1009.86C419.577 1011.39 420.38 1013.44 420.38 1016.04H420.68H420.98C420.98 1013.31 420.13 1011.09 418.409 1009.42L418.2 1009.64ZM420.68 1016.04H420.38C420.38 1017.91 419.901 1019.71 418.937 1021.45L419.2 1021.6L419.463 1021.75C420.472 1019.92 420.98 1018.01 420.98 1016.04H420.68ZM419.2 1021.6L418.937 1021.46C417.989 1023.19 416.845 1024.76 415.504 1026.15L415.72 1026.36L415.936 1026.57C417.315 1025.14 418.491 1023.53 419.463 1021.74L419.2 1021.6ZM415.72 1026.36L415.504 1026.15C414.178 1027.53 412.478 1029.14 410.401 1030.98L410.6 1031.2L410.799 1031.42C412.882 1029.58 414.595 1027.96 415.936 1026.57L415.72 1026.36ZM410.6 1031.2L410.401 1030.98L408.601 1032.58L408.8 1032.8L408.999 1033.02L410.799 1031.42L410.6 1031.2ZM408.8 1032.8V1033.1H421.48V1032.8V1032.5H408.8V1032.8ZM421.48 1032.8H421.18V1036.6H421.48H421.78V1032.8H421.48ZM421.48 1036.6V1036.3H402.04V1036.6V1036.9H421.48V1036.6ZM402.04 1036.6H402.34V1033.28H402.04H401.74V1036.6H402.04ZM402.04 1033.28L402.236 1033.51L405.116 1031.03L404.92 1030.8L404.724 1030.57L401.844 1033.05L402.04 1033.28ZM424.926 1030.92H424.626V1031.22H424.926V1030.92ZM424.926 1027.48L424.68 1027.31L424.626 1027.39V1027.48H424.926ZM438.366 1008.2V1007.9H438.209L438.12 1008.03L438.366 1008.2ZM443.886 1008.2H444.186V1007.9H443.886V1008.2ZM443.886 1026.96H443.586V1027.26H443.886V1026.96ZM447.606 1026.96H447.906V1026.66H447.606V1026.96ZM447.606 1030.92V1031.22H447.906V1030.92H447.606ZM443.886 1030.92V1030.62H443.586V1030.92H443.886ZM443.886 1037V1037.3H444.186V1037H443.886ZM439.406 1037H439.106V1037.3H439.406V1037ZM439.406 1030.92H439.706V1030.62H439.406V1030.92ZM439.606 1012.84H439.906V1011.85L439.357 1012.67L439.606 1012.84ZM430.166 1026.96L429.917 1026.79L429.605 1027.26H430.166V1026.96ZM439.606 1026.96V1027.26H439.906V1026.96H439.606ZM424.926 1030.92H425.226V1027.48H424.926H424.626V1030.92H424.926ZM424.926 1027.48L425.172 1027.65L438.612 1008.37L438.366 1008.2L438.12 1008.03L424.68 1027.31L424.926 1027.48ZM438.366 1008.2V1008.5H443.886V1008.2V1007.9H438.366V1008.2ZM443.886 1008.2H443.586V1026.96H443.886H444.186V1008.2H443.886ZM443.886 1026.96V1027.26H447.606V1026.96V1026.66H443.886V1026.96ZM447.606 1026.96H447.306V1030.92H447.606H447.906V1026.96H447.606ZM447.606 1030.92V1030.62H443.886V1030.92V1031.22H447.606V1030.92ZM443.886 1030.92H443.586V1037H443.886H444.186V1030.92H443.886ZM443.886 1037V1036.7H439.406V1037V1037.3H443.886V1037ZM439.406 1037H439.706V1030.92H439.406H439.106V1037H439.406ZM439.406 1030.92V1030.62H424.926V1030.92V1031.22H439.406V1030.92ZM439.606 1012.84L439.357 1012.67L429.917 1026.79L430.166 1026.96L430.415 1027.13L439.855 1013.01L439.606 1012.84ZM430.166 1026.96V1027.26H439.606V1026.96V1026.66H430.166V1026.96ZM439.606 1026.96H439.906V1012.84H439.606H439.306V1026.96H439.606Z" fill="black" mask="url(#path-10-outside-2_97_20)"/>
<path d="M282.81 272.735C274.2 272.735 267.13 270.705 261.6 266.645C256.07 262.515 253.095 256.635 252.675 249.005H274.62C274.83 251.595 275.6 253.485 276.93 254.675C278.26 255.865 279.975 256.46 282.075 256.46C283.965 256.46 285.505 256.005 286.695 255.095C287.955 254.115 288.585 252.785 288.585 251.105C288.585 248.935 287.57 247.255 285.54 246.065C283.51 244.875 280.22 243.545 275.67 242.075C270.84 240.465 266.92 238.925 263.91 237.455C260.97 235.915 258.38 233.71 256.14 230.84C253.97 227.9 252.885 224.085 252.885 219.395C252.885 214.635 254.075 210.575 256.455 207.215C258.835 203.785 262.125 201.195 266.325 199.445C270.525 197.695 275.285 196.82 280.605 196.82C289.215 196.82 296.075 198.85 301.185 202.91C306.365 206.9 309.13 212.535 309.48 219.815H287.115C287.045 217.575 286.345 215.895 285.015 214.775C283.755 213.655 282.11 213.095 280.08 213.095C278.54 213.095 277.28 213.55 276.3 214.46C275.32 215.37 274.83 216.665 274.83 218.345C274.83 219.745 275.355 220.97 276.405 222.02C277.525 223 278.89 223.875 280.5 224.645C282.11 225.345 284.49 226.255 287.64 227.375C292.33 228.985 296.18 230.595 299.19 232.205C302.27 233.745 304.895 235.95 307.065 238.82C309.305 241.62 310.425 245.19 310.425 249.53C310.425 253.94 309.305 257.895 307.065 261.395C304.895 264.895 301.71 267.66 297.51 269.69C293.38 271.72 288.48 272.735 282.81 272.735ZM380.262 213.095V272H359.577V263.6C357.827 266.26 355.412 268.43 352.332 270.11C349.252 271.72 345.717 272.525 341.727 272.525C334.867 272.525 329.442 270.285 325.452 265.805C321.532 261.255 319.572 255.095 319.572 247.325V213.095H340.047V244.7C340.047 248.06 340.922 250.72 342.672 252.68C344.492 254.57 346.872 255.515 349.812 255.515C352.822 255.515 355.202 254.57 356.952 252.68C358.702 250.72 359.577 248.06 359.577 244.7V213.095H380.262ZM430.51 212.57C437.3 212.57 442.69 214.845 446.68 219.395C450.67 223.875 452.665 229.965 452.665 237.665V272H432.085V240.395C432.085 237.035 431.21 234.41 429.46 232.52C427.71 230.56 425.365 229.58 422.425 229.58C419.345 229.58 416.93 230.56 415.18 232.52C413.43 234.41 412.555 237.035 412.555 240.395V272H391.975V213.095H412.555V221.495C414.375 218.835 416.825 216.7 419.905 215.09C422.985 213.41 426.52 212.57 430.51 212.57ZM502.492 212.57C509.282 212.57 514.672 214.845 518.662 219.395C522.652 223.875 524.647 229.965 524.647 237.665V272H504.067V240.395C504.067 237.035 503.192 234.41 501.442 232.52C499.692 230.56 497.347 229.58 494.407 229.58C491.327 229.58 488.912 230.56 487.162 232.52C485.412 234.41 484.537 237.035 484.537 240.395V272H463.957V213.095H484.537V221.495C486.357 218.835 488.807 216.7 491.887 215.09C494.967 213.41 498.502 212.57 502.492 212.57ZM599.36 213.095L561.98 300.035H539.615L553.685 269.48L529.535 213.095H552.425L564.815 246.485L576.785 213.095H599.36Z" fill="black"/>
<path d="M413.242 431.264C420.003 430.791 427.048 431.047 433.818 431.31C465.028 432.378 495.815 438.771 524.812 450.205C594.092 477.932 645.845 528.994 674.807 596.816C698.917 653.996 702.428 717.596 684.757 777.02C681.988 786.481 678.737 795.798 675.019 804.937C672.796 810.366 670.255 815.661 668.018 821.084C674.381 820.214 681.147 821.445 686.983 824.002C697.996 828.923 706.603 837.918 710.942 849.046C715.334 860.194 714.982 872.616 709.971 883.506C704.748 894.899 695.1 903.746 683.198 908.057C669.55 913.034 655.93 911.594 642.905 905.748C638.301 908.628 633.686 911.283 628.657 913.389C615.618 918.852 598.366 921.921 584.287 919.652C571.69 929.364 558.652 938.369 544.593 945.915C506.343 966.055 463.23 975.481 419.932 973.172C389.158 971.814 359.389 964.38 331.129 952.465C321.463 955.964 312.103 958.227 301.746 958.524C277.946 959.206 256.132 948.867 239.151 933.005C236.997 934.069 234.812 935.069 232.598 936.005C220.06 941.183 205.942 941.2 193.391 936.052C179.619 930.464 168.673 919.694 162.975 906.126C157.774 893.373 157.864 879.115 163.226 866.427C169.256 852.403 178.579 844.225 192.722 838.573C160.323 784.63 148.109 721.202 158.2 659.304C154.736 657.728 151.38 655.889 148.393 653.535C140.469 647.291 135.214 637.385 134.185 627.465C133.126 617.247 136.671 607.067 143.297 599.218C149.749 591.573 157.886 587.818 167.803 586.931C168.21 584.62 168.767 582.466 169.651 580.284C174.304 568.798 183.273 562.264 194.46 557.584C204.236 542.464 214.168 528.786 226.602 515.619C274.836 463.973 342.078 433.582 413.242 431.264Z" fill="#151515"/>
<path d="M412.004 445.724C421.308 445.077 431.093 445.353 440.408 445.882C494.588 448.929 546.414 468.746 588.513 502.511C630.908 537.35 661.32 584.281 675.566 636.855C679.673 652.312 681.978 668.003 683.563 683.878C682.905 682.878 682.213 681.9 681.486 680.948C677.241 675.375 672.198 673.927 665.507 672.979C664.268 670.951 662.976 669.017 661.267 667.339C657.39 663.537 653.083 662.78 647.843 662.832C646.455 659.41 644.988 656.315 642.417 653.591C637.686 648.581 630.772 645.849 623.891 645.635C616.17 645.394 608.365 648.066 602.75 653.371C596.641 659.142 594.714 666.49 594.53 674.591C589.673 677.15 585.478 680.073 582.643 684.845C579.778 689.669 578.747 695.919 580.254 701.346C581.557 706.037 584.831 709.738 589.079 712.096C602.725 719.674 630.6 717.991 645.901 716.867C652.82 716.359 660.04 715.983 666.747 714.124C675.222 711.773 679.918 707.849 684.219 700.35C683.707 739.821 675.752 779.335 658.123 814.982C653.825 809.58 649.124 805.071 642.743 802.127C633.027 797.644 623.283 798.218 613.404 801.733C613.371 801.659 613.339 801.585 613.305 801.513C607.193 788.506 596.901 779.398 583.174 774.633C568.701 769.611 553.261 770.708 539.494 777.148C536.68 771.502 534.127 765.732 531.844 759.858L555.014 754.952C560.382 753.819 565.948 752.84 571.161 751.142C574.104 750.183 576.614 749.156 578.061 746.295C578.201 745.41 578.262 744.461 578.149 743.567C577.936 741.89 576.918 740.284 575.846 739.013C572.27 734.775 567.457 731.174 563.203 727.612C556.641 722.041 549.985 716.576 543.241 711.22C549.517 705.233 576.643 685.324 578.342 678.827C578.694 677.476 578.422 676.05 577.678 674.872C576.934 673.718 575.864 672.804 574.6 672.241C569.903 670.175 562.974 669.312 557.887 668.195C548.831 666.188 539.792 664.103 530.773 661.939C534.721 654.174 551.785 626.279 550.498 618.925C550.281 617.618 549.517 616.461 548.392 615.738C546.816 614.731 544.882 614.479 543.04 614.511C537.149 614.611 530.899 616.177 525.105 617.214C516.789 618.703 508.417 620.053 500.149 621.776C499.667 612.842 501.719 578.748 498.44 573.557C497.737 572.445 496.566 571.789 495.273 571.579C493.216 571.244 491.206 571.888 489.381 572.776C482.086 576.328 475.459 582.355 469.023 587.27C463.413 591.476 457.75 595.612 452.035 599.676C448.145 591.73 444.173 583.824 440.12 575.957C437.744 571.258 435.517 565.942 432.538 561.602C431.568 560.188 430.39 558.868 428.875 558.008C427.256 557.089 425.477 556.73 423.674 557.307C421.486 558.007 419.613 559.736 418.268 561.523C415.041 565.807 412.781 571.232 410.367 576.011L397.932 600.675L377.155 584.296C372.502 580.575 367.724 576.181 362.548 573.197C360.92 572.259 359.046 571.475 357.131 571.465C355.539 571.457 354.112 572.054 353.041 573.221C351.817 574.555 351.147 576.31 350.755 578.042C349.85 582.05 349.851 586.443 349.714 590.542C349.357 601.202 349.74 611.875 349.967 622.533C341.639 619.102 333.056 616.222 324.537 613.284C319.149 603.869 315.963 597.077 305.154 592.439C297.816 589.291 291.08 589.524 283.766 592.414C280.547 586.431 276.194 581.577 269.83 578.764C263.184 575.827 256.061 576.07 249.347 578.573C247.491 574.765 245.367 571.187 242.517 568.011C235.043 559.684 225.316 555.94 214.259 555.235C218.573 547.568 226.799 537.947 232.712 531.266C268.886 490.592 317.379 462.483 371.015 451.1C384.572 448.23 398.181 446.646 412.004 445.724Z" fill="#2683E5"/>
<path d="M387.335 459.507C392.649 458.938 398.447 459.778 403.471 461.529C413.033 464.863 419.874 471.269 424.202 480.221C429.536 479.002 434.753 478.651 440.117 479.967C447.97 481.894 452.75 486.69 456.848 493.316C463.425 491.666 470.013 491.894 476.113 495.083C482.822 498.591 487.725 505.366 489.872 512.453C492.173 520.086 491.326 528.306 487.515 535.327C483.653 542.329 476.824 547.038 469.171 549.265C459.477 552.085 451.994 549.804 443.471 545.167C438.177 548.777 432.956 551.282 426.79 553.089C423.797 553.886 420.737 554.41 417.648 554.656C404.988 555.656 392.669 552.828 382.868 544.635C376.208 549.424 369.217 552.161 360.934 552.661C351.158 553.252 342.166 550.601 334.812 544.071C328.442 538.375 324.619 530.424 324.178 521.956C323.728 513.752 326.601 505.708 332.166 499.592C337.89 493.378 345.18 490.776 353.533 490.415C354.131 483.92 356.335 478.215 360.553 473.144C367.256 465.087 376.927 460.519 387.335 459.507Z" fill="#151515"/>
<path d="M389.152 465.988C399.399 464.723 410.416 469.896 415.835 478.536C417.189 480.694 418.59 484.954 420.681 486.342C423.243 488.044 429.364 485.552 432.559 485.438C435.472 485.338 438.373 485.865 441.058 486.984C448.046 489.923 451.857 499.849 454.749 500.698C458.768 501.879 463.235 496.596 471.591 500.396C477.101 502.9 481.193 508.321 483.212 513.844C485.259 519.448 485.21 525.37 482.547 530.771C479.812 536.314 474.533 540.556 468.632 542.47C463.784 544.043 457.846 544.391 453.208 542.037C451.253 541.045 449.484 539.694 447.498 538.758C446.295 538.191 444.803 537.843 443.471 538.104C440.328 538.722 436.386 542.125 433.502 543.689C431.283 544.892 429.028 545.789 426.639 546.608C416.293 549.962 402.693 549.371 393.196 543.853C389.962 541.974 386.476 538.046 382.553 538.005C379.687 537.975 374.121 542.533 371.119 543.827C368.009 545.168 364.672 545.932 361.305 546.296C353.701 547.118 346.71 545.497 340.728 540.659C335.269 536.23 331.805 529.854 331.089 522.918C330.491 516.625 332.357 510.071 336.49 505.193C342.406 498.213 347.35 498.272 355.824 497.458C361.413 496.921 359.895 490.622 360.986 486.656C361.933 483.211 363.796 479.914 366.095 477.174C371.871 470.293 380.278 466.776 389.152 465.988Z" fill="#7BD8F8"/>
<path d="M556.408 538.062C560.696 537.797 564.331 538.088 568.216 540.044C573.771 542.84 576.905 547.42 578.812 553.143C585.649 553.337 589.473 556.083 594.129 560.71C598.017 561.199 601.499 561.972 604.667 564.394C608.109 567.024 610.057 570.871 610.569 575.086C611.155 579.916 610.15 585.035 606.947 588.85C599.628 597.567 584.397 598.005 573.803 598.819C561.176 599.739 540.711 601.009 529.47 594.765C525.065 592.319 521.85 588.449 520.552 583.605C519.261 578.781 519.827 573.437 522.424 569.123C525.77 563.563 531.019 561.388 537.097 559.843C537.339 555.083 538.122 550.853 540.967 546.873C544.622 541.76 550.309 539.127 556.408 538.062Z" fill="#151515"/>
<path d="M556.45 544.488C573.109 542.626 571.355 557.521 574.825 559.585C576.953 560.85 580.029 559.075 582.427 559.887C585.973 561.087 587.221 564.443 590.327 566.084C593.689 567.86 597.813 567.042 601.003 569.457C603.072 571.023 603.821 573.555 604.099 576.014C604.478 579.383 604.003 582.532 601.746 585.193C596.009 591.963 583.014 592.082 574.703 592.704C563.539 593.033 543.993 594.955 533.909 590.228C530.703 588.726 528.071 586.294 526.923 582.919C525.721 579.382 526.011 575.618 527.822 572.34C530.482 567.524 534.679 567.412 539.372 565.906C545.4 563.973 542.308 557.39 545.281 552.112C547.617 547.964 551.962 545.665 556.45 544.488Z" fill="#F4F4F4"/>
<path d="M423.84 604.16C484.456 603.696 533.976 651.775 534.443 711.546C534.909 771.317 486.145 820.142 425.528 820.598C364.918 821.054 315.407 772.977 314.941 713.211C314.474 653.447 363.229 604.623 423.84 604.16Z" fill="#FEBF14"/>
<path d="M261.969 804.763C281.439 802.945 298.635 814.619 307.794 830.929C309.141 833.329 311.611 840.486 313.523 841.863C314.966 842.902 321.382 841.426 323.269 841.239C330.519 840.522 337.329 841.836 343.834 845.023C351.872 848.963 358.733 855.016 362.698 863.066C363.724 865.147 365.699 871.06 367.301 872.224C368.738 873.267 375.628 871.186 377.537 870.903C379.284 870.641 381.048 870.508 382.814 870.505C388.212 870.453 393.551 871.618 398.423 873.91C407.554 878.206 414.751 886.546 418.062 895.923C421.373 905.226 420.729 915.453 416.275 924.28C410.887 935.092 401.041 942.484 389.594 946.27C378.029 950.1 365.449 949.682 354.172 945.093C350.591 943.613 347.321 941.551 343.848 939.856C340.977 941.011 338.219 942.64 335.416 943.973C332.041 945.58 328.581 946.848 325.043 948.049C320.34 949.361 315.632 950.407 310.769 950.964C290.202 953.317 268.558 947.852 252.02 935.418C247.996 932.392 244.951 928.353 241.023 925.348C240.947 925.29 240.869 925.234 240.792 925.177C238.525 926.085 236.342 927.324 234.128 928.363C228.925 930.865 223.288 932.373 217.516 932.808C204.586 933.777 191.808 929.55 182.087 921.088C172.814 913.287 167.084 902.158 166.168 890.173C165.278 877.957 168.79 866.315 177.034 857.053C183.61 849.665 193.292 844.513 203.281 843.753C206.093 843.54 208.952 844.014 211.739 843.779C212.597 843.706 213.187 843.715 213.702 842.969C215.15 840.87 215.824 837.766 216.737 835.396C218.423 831.016 221.283 826.792 224.308 823.205C233.572 812.223 247.705 806.043 261.969 804.763Z" fill="#7BD8F8"/>
<path d="M560.033 778.567C574.996 776.881 593.607 783.597 602.6 795.782C604.286 798.066 608.998 808.237 610.624 808.981C612.267 809.734 621.272 806.466 623.914 806.091C627.255 805.616 631.134 805.57 634.417 806.426C653.414 811.385 654.061 826.529 658.734 828.947C660.579 829.902 669.265 827.827 672.441 827.883C677.215 827.967 681.879 829.192 686.186 831.192C695.25 835.4 701.841 843.143 705.125 852.412C708.764 862.519 708.114 873.645 703.323 883.273C698.593 892.647 690.264 899.772 680.185 903.069C671.33 905.949 660.96 905.982 652.195 902.757C648.988 901.577 646.001 899.916 642.951 898.4C640.014 900.187 637.255 902.235 634.277 903.957C628.312 907.409 621.979 909.594 615.388 911.532C596.45 916.323 573.773 915.299 556.526 905.545C553.875 904.046 550.004 899.596 547 899.467C544.781 899.372 535.994 905.003 532.761 906.282C528.282 908.064 523.576 909.231 518.776 909.75C506.701 911.011 494.504 907.758 485.034 900.163C476.245 893.22 470.645 883.093 469.489 872.047C467.451 852.702 479.48 834.609 498.283 828.734C500.702 827.983 512.36 826.359 513.404 825.399C515.17 823.776 515.068 817.841 515.62 815.48C515.969 813.986 516.546 812.49 517.078 811.05C519.125 805.495 522.129 800.33 525.958 795.782C534.816 785.209 546.33 779.816 560.033 778.567Z" fill="#7BD8F8"/>
<path d="M313.25 653.302C314.938 654.342 317.334 660.459 318.282 662.546C309.305 664.153 300.395 666.515 291.53 668.649C286.756 669.798 281.379 670.663 276.805 672.383C275.135 673.011 273.487 673.846 272.31 675.21C271.386 676.281 270.899 677.585 271.025 678.996C271.232 681.32 272.891 683.448 274.408 685.146C277.911 689.066 282.448 692.319 286.515 695.66C293.19 701.175 299.905 706.645 306.657 712.07C299.19 718.077 274.192 736.73 271.796 744.206C271.35 745.596 271.505 747.018 272.266 748.269C273.117 749.669 274.491 750.714 275.988 751.372C280.867 753.518 286.736 754.379 291.931 755.531L317.329 761.135C313.116 768.733 296.176 797.174 297.452 804.394C297.694 805.76 298.442 806.889 299.631 807.635C301.271 808.664 303.337 808.863 305.236 808.848C313.119 808.785 321.452 806.549 329.113 804.824C335.938 803.259 342.781 801.773 349.641 800.366C349.664 813.893 350.178 827.353 350.758 840.865C340.158 835.308 329.721 832.979 317.766 835.357C312.578 823.571 305.459 814.264 294.75 806.869C291.486 804.781 288.122 803.025 284.493 801.629C270.294 796.163 254.858 796.915 240.973 802.963C224.595 810.097 215.099 821.119 208.675 837.317C200.368 825.625 193.641 812.431 188.153 799.246C170.081 755.829 165.268 709.261 172.065 662.952C183.473 662.914 191.189 660.813 201.148 655.307C206.401 659.858 212.818 662.87 219.572 664.548C233.451 667.996 249.509 666.332 262.613 660.785C266.362 659.199 269.819 657.185 273.309 655.122C278.104 658.611 283.102 660.966 289.117 661.468C297.937 662.206 306.607 658.882 313.25 653.302Z" fill="#2683E5"/>
<path d="M207.67 562.222C209.402 561.911 211.467 561.977 213.23 562.02C224.225 562.287 234.382 567.467 240.554 576.527C242.381 579.209 243.887 584.056 246.593 585.823C249.623 586.36 253.444 584.184 256.439 583.499C263.543 581.873 271.252 585.261 275.43 591.023C277.072 593.287 278.321 597.587 280.947 598.836C283.187 599.9 286.852 598.174 289.013 597.542C294.324 595.991 299.985 597.202 304.756 599.818C311.615 603.579 316.587 610.178 318.702 617.582C320.889 625.24 319.979 634 315.953 640.923C312.188 647.398 305.65 652.429 298.316 654.325C292.44 655.844 285.914 655.353 280.767 651.958C279.023 650.807 277.469 649.259 275.618 648.286C275.051 647.988 274.188 647.665 273.53 647.771C270.893 648.199 265.986 652.007 263.398 653.339C260.776 654.688 258.1 655.751 255.307 656.701C251.321 657.985 247.218 658.887 243.055 659.392C231.597 660.801 219.088 659.885 209.068 653.738C207.325 652.669 205.772 651.164 204.128 649.942C203.102 649.179 201.825 648.535 200.505 648.646C197.35 648.911 193.608 651.725 190.671 652.993C187.167 654.529 183.456 655.559 179.655 656.054C170.532 657.201 160.824 654.786 153.547 649.167C146.806 643.962 142.364 635.932 141.355 627.569C140.338 619.504 142.676 611.377 147.836 605.041C151.948 599.96 157.812 595.851 164.438 594.863C166.583 594.544 168.783 594.642 170.925 594.331C175.622 593.648 175.732 586.796 177.055 583.226C177.995 580.691 179.473 578.279 181.149 576.155C187.572 568.012 197.464 563.496 207.67 562.222Z" fill="#7BD8F8"/>
<path d="M451.021 823.077C456.468 825.962 467.676 835.344 472.662 839.687C469.739 843.904 467.221 848.439 465.491 853.264C461.327 864.872 462.4 877.345 467.8 888.371C473.588 900.187 483.894 908.875 496.469 913.081C509.405 917.411 523.522 916.759 535.992 911.257C539.396 909.791 542.449 907.814 545.761 906.219L546.291 905.966C552.558 911.236 559.786 914.218 567.497 916.805C529.461 945.46 481.66 960.235 433.973 960.57C426.664 960.621 419.299 960.105 412.018 959.526C402.739 958.709 393.074 957.46 384.074 955.048C387.496 953.984 390.972 953.147 394.329 951.873C405.154 947.765 414.395 940.434 420.386 930.602C426.515 920.542 428.535 908.639 425.574 897.226C422.476 885.607 414.846 875.667 404.348 869.57C393.787 863.444 383.166 862.237 371.423 865.207C369.081 859.365 365.852 854.623 361.895 849.757C374.356 842.056 384.548 831.37 396.793 823.432C405.891 832.343 412.828 858.7 421.518 865.49C422.769 866.468 424.281 866.981 425.876 866.723C428.221 866.343 430.021 864.505 431.308 862.658C433.422 859.623 434.895 855.766 436.416 852.404C440.663 843.017 444.772 831.827 450.776 823.416L451.021 823.077Z" fill="#2683E5"/>
<path d="M619.303 652.246C628.451 651.541 636.959 654.107 640.916 663.034C641.748 664.91 642.625 668.423 644.379 669.599C646.532 671.042 651.096 669.151 653.832 670.203C658.289 671.919 658.559 676.59 662.056 678.841C665.056 680.771 669.334 678.539 674.021 682.357C676.711 684.581 678.391 687.77 678.69 691.219C679.024 695.326 677.676 699.394 674.947 702.513C668.545 709.802 654.674 709.912 645.598 710.532C633.583 711.865 601.529 712.806 591.749 706.418C588.799 704.49 586.594 701.813 585.932 698.323C585.479 695.936 585.809 693.515 586.552 691.222C589.754 681.338 598.269 681.972 600.31 677.599C600.935 676.26 600.729 674.067 600.781 672.608C600.907 668.495 602.236 664.505 604.609 661.12C608.138 656.093 613.296 653.323 619.303 652.246Z" fill="#F4F4F4"/>
<path d="M425.232 562.843C425.356 562.875 425.483 562.898 425.605 562.939C426.362 563.197 426.715 563.66 427.146 564.288C429.841 568.218 431.784 572.96 433.889 577.234C437.612 584.736 441.284 592.264 444.904 599.814C438.657 599.06 432.377 598.593 426.086 598.413C419.267 598.248 412.442 598.908 405.67 599.603C409.341 592.491 412.962 585.355 416.531 578.193C419.112 573.062 421.564 567.309 425.232 562.843Z" fill="#FEBF14"/>
<path d="M493.645 578.278C495.071 580.866 494.097 615.506 493.84 620.417C486.854 615.523 479.834 611.326 472.023 607.826C467.698 605.904 463.23 604.363 458.775 602.764C462.944 599.309 467.594 596.204 471.961 592.988C478.898 587.881 485.867 582.079 493.645 578.278Z" fill="#FEBF14"/>
<path d="M357.31 577.26C362.044 579.834 366.435 583.932 370.669 587.261C377.252 592.436 383.91 597.509 390.453 602.734C386.156 604.385 381.816 605.883 377.545 607.608C370.014 610.755 363.229 614.941 356.458 619.421C355.883 606.817 354.707 589.429 357.31 577.26Z" fill="#FEBF14"/>
<path d="M322.013 766.54C323.886 767.853 328.091 775.635 329.928 778.094C334.411 784.096 339.851 789.456 344.751 795.131C337.668 797.131 330.328 798.412 323.111 799.857C316.536 800.821 310.301 802.826 303.576 802.779C305.925 793.476 316.602 775.19 322.013 766.54Z" fill="#FEBF14"/>
<path d="M531.529 668.512C537.846 669.461 544.255 671.312 550.49 672.762C557.628 674.422 565.091 675.766 572.03 678.076C568.625 683.027 562.698 687.204 558.071 691.093C552.438 695.839 546.807 700.927 540.419 704.672C538.986 692.012 536 680.449 531.529 668.512Z" fill="#FEBF14"/>
<path d="M542.091 620.502C542.842 620.386 543.382 620.381 544.132 620.506C544.868 624.824 529.147 651.985 526.514 656.739C523.946 652.824 521.292 648.965 518.554 645.164C513.935 638.84 508.618 633.282 503.157 627.678C510.518 626.196 517.894 624.794 525.285 623.474C530.865 622.433 536.461 621.24 542.091 620.502Z" fill="#FEBF14"/>
<path d="M316.312 669.333L316.947 669.375C317.047 669.882 317.115 669.844 317.012 670.234C316.516 672.123 315.62 673.987 314.981 675.846C313.794 679.383 312.746 682.963 311.84 686.58C310.305 692.709 309.119 699.132 308.917 705.448C302.889 701.523 297.389 696.444 291.863 691.86C286.885 687.823 280.878 683.753 277.217 678.451C281.892 676.625 287.092 675.71 291.977 674.576C300.063 672.698 308.142 670.82 316.312 669.333Z" fill="#FEBF14"/>
<path d="M540.483 717.589C543.718 719.275 546.731 722.032 549.571 724.29C557.332 730.462 565.257 736.76 572.032 743.995C567.806 745.779 563.201 746.69 558.745 747.746L532.757 753.607C536.93 740.878 538.956 730.873 540.483 717.589Z" fill="#FEBF14"/>
<path d="M308.089 719.214L308.361 719.303C309.073 720.392 309.668 728.241 309.975 730.126C311.371 738.704 313.837 746.651 316.739 754.846C308.595 753.127 300.476 751.296 292.383 749.355C287.581 748.261 282.676 747.228 278.024 745.611C283.409 737.77 299.765 724.77 308.089 719.214Z" fill="#FEBF14"/>
<path d="M406.167 824.77C418.616 826.389 430.562 826.595 443.006 824.826C439.445 832.719 435.378 840.41 431.761 848.289C429.677 852.686 427.587 856.928 424.874 860.996C421.576 856.751 407.605 829.761 406.167 824.77Z" fill="#FEBF14"/>
<path d="M356.117 804.429C359.648 805.967 362.883 808.68 366.224 810.621C373.641 814.93 381.225 818.104 389.351 820.848C384.924 824.388 380.384 827.767 375.999 831.364C370.219 836.065 364.369 841.46 357.66 844.801C357.161 841.013 357.139 837.066 356.955 833.248C356.57 823.645 356.29 814.038 356.117 804.429Z" fill="#FEBF14"/>
<path d="M493.699 804.935C494.599 806.738 493.426 821.143 493.177 823.998C486.846 826.912 481.71 830.485 476.558 835.099C473.368 832.812 470.397 830.117 467.318 827.675C464.662 825.726 462.049 823.721 459.48 821.662C472.54 816.762 481.766 812.007 493.699 804.935Z" fill="#FEBF14"/>
<path d="M325.905 620.171C332.388 622.459 339.451 624.495 345.474 627.799C339.13 633.841 333.505 640.579 328.711 647.88C326.674 650.89 324.85 654.052 322.968 657.158C321.18 654.393 319.722 651.484 318.375 648.491C324.503 639.286 326.904 631.215 325.905 620.171Z" fill="#FEBF14"/>
<path d="M527.12 766.236C528.686 767.07 533.259 777.823 534.228 779.853C527.144 784.938 522.116 790.452 516.835 797.274L514.008 796.895C511.214 796.431 508.427 795.92 505.65 795.365C508.999 791.632 512.447 788.028 515.46 784.013C519.721 778.335 523.27 772.184 527.12 766.236Z" fill="#FEBF14"/>
<path d="M500.311 800.408L513.63 803.239C511.631 807.99 509.934 812.668 509.042 817.75C508.967 818.303 508.85 818.822 508.708 819.362C506.901 820.813 502.042 820.747 499.638 821.327C499.729 814.357 500.049 807.373 500.311 800.408Z" fill="#3C7ABB"/>
</svg>
