<svg width="849" height="1183" viewBox="0 0 849 1183" fill="none" xmlns="http://www.w3.org/2000/svg">
<rect x="5" y="5" width="839" height="1173" rx="45" fill="white"/>
<rect x="5" y="5" width="839" height="1173" rx="45" stroke="black" stroke-width="10"/>
<circle cx="786.5" cy="1124.5" r="11.5" fill="black"/>
<circle cx="786.5" cy="59.5" r="11.5" fill="black"/>
<path d="M77 1124.5C77 1130.85 71.8513 1136 65.5 1136C59.1487 1136 54 1130.85 54 1124.5C54 1118.15 59.1487 1113 65.5 1113C71.8513 1113 77 1118.15 77 1124.5Z" fill="black"/>
<path d="M77 59.5C77 65.8513 71.8513 71 65.5 71C59.1487 71 54 65.8513 54 59.5C54 53.1487 59.1487 48 65.5 48C71.8513 48 77 53.1487 77 59.5Z" fill="black"/>
<mask id="path-6-inside-1_97_24" fill="white">
<path d="M708 48C713.523 48 717.934 52.4996 718.616 57.9801C723.122 94.1833 751.817 122.878 788.02 127.384C793.5 128.066 798 132.477 798 138V1046C798 1051.52 793.5 1055.93 788.02 1056.62C751.817 1061.12 723.122 1089.82 718.616 1126.02C717.934 1131.5 713.523 1136 708 1136H141C135.477 1136 131.066 1131.5 130.384 1126.02C125.878 1089.82 97.1833 1061.12 60.9801 1056.62C55.4996 1055.93 51 1051.52 51 1046V138C51 132.477 55.4996 128.066 60.9801 127.384C97.1833 122.878 125.878 94.1833 130.384 57.9801C131.066 52.4996 135.477 48 141 48H708Z"/>
</mask>
<path d="M708 48C713.523 48 717.934 52.4996 718.616 57.9801C723.122 94.1833 751.817 122.878 788.02 127.384C793.5 128.066 798 132.477 798 138V1046C798 1051.52 793.5 1055.93 788.02 1056.62C751.817 1061.12 723.122 1089.82 718.616 1126.02C717.934 1131.5 713.523 1136 708 1136H141C135.477 1136 131.066 1131.5 130.384 1126.02C125.878 1089.82 97.1833 1061.12 60.9801 1056.62C55.4996 1055.93 51 1051.52 51 1046V138C51 132.477 55.4996 128.066 60.9801 127.384C97.1833 122.878 125.878 94.1833 130.384 57.9801C131.066 52.4996 135.477 48 141 48H708Z" fill="#C357B5"/>
<path d="M130.384 1126.02L138.322 1125.03L130.384 1126.02ZM718.616 1126.02L710.678 1125.03L718.616 1126.02ZM788.02 1056.62L789.008 1064.56L788.02 1056.62ZM718.616 57.9801L726.555 56.9922L718.616 57.9801ZM718.616 57.9801L710.678 58.9681C715.635 98.8063 747.194 130.365 787.032 135.322L788.02 127.384L789.008 119.445C756.44 115.392 730.608 89.5603 726.555 56.9922L718.616 57.9801ZM798 138H790V1046H798H806V138H798ZM788.02 1056.62L787.032 1048.68C747.194 1053.64 715.635 1085.19 710.678 1125.03L718.616 1126.02L726.555 1127.01C730.608 1094.44 756.44 1068.61 789.008 1064.56L788.02 1056.62ZM708 1136V1128H141V1136V1144H708V1136ZM130.384 1126.02L138.322 1125.03C133.365 1085.19 101.806 1053.64 61.9681 1048.68L60.9801 1056.62L59.9922 1064.56C92.5603 1068.61 118.392 1094.44 122.445 1127.01L130.384 1126.02ZM51 1046H59V138H51H43V1046H51ZM60.9801 127.384L61.9681 135.322C101.806 130.365 133.365 98.8063 138.322 58.9681L130.384 57.9801L122.445 56.9922C118.392 89.5603 92.5603 115.392 59.9922 119.445L60.9801 127.384ZM141 48V56H708V48V40H141V48ZM130.384 57.9801L138.322 58.9681C138.438 58.0389 138.872 57.2306 139.427 56.6958C139.954 56.1887 140.494 56 141 56V48V40C130.84 40 123.547 48.1329 122.445 56.9922L130.384 57.9801ZM51 138H59C59 137.494 59.1887 136.954 59.6958 136.427C60.2306 135.872 61.0389 135.438 61.9681 135.322L60.9801 127.384L59.9922 119.445C51.1329 120.547 43 127.84 43 138H51ZM60.9801 1056.62L61.9681 1048.68C61.0389 1048.56 60.2306 1048.13 59.6958 1047.57C59.1887 1047.05 59 1046.51 59 1046H51H43C43 1056.16 51.1329 1063.45 59.9922 1064.56L60.9801 1056.62ZM141 1136V1128C140.494 1128 139.954 1127.81 139.427 1127.3C138.872 1126.77 138.438 1125.96 138.322 1125.03L130.384 1126.02L122.445 1127.01C123.547 1135.87 130.84 1144 141 1144V1136ZM718.616 1126.02L710.678 1125.03C710.562 1125.96 710.128 1126.77 709.573 1127.3C709.046 1127.81 708.506 1128 708 1128V1136V1144C718.16 1144 725.453 1135.87 726.555 1127.01L718.616 1126.02ZM798 1046H790C790 1046.51 789.811 1047.05 789.304 1047.57C788.769 1048.13 787.961 1048.56 787.032 1048.68L788.02 1056.62L789.008 1064.56C797.867 1063.45 806 1056.16 806 1046H798ZM788.02 127.384L787.032 135.322C787.961 135.438 788.769 135.872 789.304 136.427C789.811 136.954 790 137.494 790 138H798H806C806 127.84 797.867 120.547 789.008 119.445L788.02 127.384ZM718.616 57.9801L726.555 56.9922C725.453 48.1329 718.16 40 708 40V48V56C708.506 56 709.046 56.1887 709.573 56.6958C710.128 57.2306 710.562 58.0389 710.678 58.9681L718.616 57.9801Z" fill="black" mask="url(#path-6-inside-1_97_24)"/>
<path d="M690 102C695.523 102 699.911 106.512 700.837 111.957C705.019 136.563 724.437 155.981 749.043 160.163C754.488 161.089 759 165.477 759 171V1014C759 1019.52 754.488 1023.91 749.043 1024.84C724.711 1028.97 705.454 1048 700.984 1072.22C699.993 1077.59 695.633 1082 690.175 1082H158.825C153.367 1082 149.007 1077.59 148.016 1072.22C143.546 1048 124.288 1028.97 99.9568 1024.84C94.5121 1023.91 90 1019.52 90 1014V171C90 165.477 94.512 161.089 99.9568 160.163C124.563 155.981 143.981 136.563 148.163 111.957C149.089 106.512 153.477 102 159 102H690Z" fill="#D78BCD"/>
<path d="M250.685 366.52C250.685 369.523 249.977 372.357 248.56 375.02C247.143 377.683 244.877 379.865 241.76 381.565C238.643 383.208 234.648 384.03 229.775 384.03H219.065V408H209.375V348.925H229.775C234.308 348.925 238.133 349.718 241.25 351.305C244.423 352.835 246.775 354.932 248.305 357.595C249.892 360.258 250.685 363.233 250.685 366.52ZM229.775 376.125C233.458 376.125 236.207 375.303 238.02 373.66C239.833 371.96 240.74 369.58 240.74 366.52C240.74 360.06 237.085 356.83 229.775 356.83H219.065V376.125H229.775ZM269.617 367.965C271.033 365.585 272.903 363.743 275.227 362.44C277.607 361.08 280.412 360.4 283.642 360.4V370.43H281.177C277.38 370.43 274.49 371.393 272.507 373.32C270.58 375.247 269.617 378.59 269.617 383.35V408H259.927V361.165H269.617V367.965ZM297.479 354.96C295.722 354.96 294.249 354.365 293.059 353.175C291.869 351.985 291.274 350.512 291.274 348.755C291.274 346.998 291.869 345.525 293.059 344.335C294.249 343.145 295.722 342.55 297.479 342.55C299.179 342.55 300.624 343.145 301.814 344.335C303.004 345.525 303.599 346.998 303.599 348.755C303.599 350.512 303.004 351.985 301.814 353.175C300.624 354.365 299.179 354.96 297.479 354.96ZM302.239 361.165V408H292.549V361.165H302.239ZM371.656 360.4C375.339 360.4 378.626 361.165 381.516 362.695C384.463 364.225 386.758 366.492 388.401 369.495C390.101 372.498 390.951 376.125 390.951 380.375V408H381.346V381.82C381.346 377.627 380.298 374.425 378.201 372.215C376.104 369.948 373.243 368.815 369.616 368.815C365.989 368.815 363.099 369.948 360.946 372.215C358.849 374.425 357.801 377.627 357.801 381.82V408H348.196V381.82C348.196 377.627 347.148 374.425 345.051 372.215C342.954 369.948 340.093 368.815 336.466 368.815C332.839 368.815 329.949 369.948 327.796 372.215C325.699 374.425 324.651 377.627 324.651 381.82V408H314.961V361.165H324.651V366.52C326.238 364.593 328.249 363.092 330.686 362.015C333.123 360.938 335.729 360.4 338.506 360.4C342.246 360.4 345.589 361.193 348.536 362.78C351.483 364.367 353.749 366.662 355.336 369.665C356.753 366.832 358.963 364.593 361.966 362.95C364.969 361.25 368.199 360.4 371.656 360.4ZM400.051 384.37C400.051 379.667 401.015 375.502 402.941 371.875C404.925 368.248 407.588 365.443 410.931 363.46C414.331 361.42 418.071 360.4 422.151 360.4C425.835 360.4 429.036 361.137 431.756 362.61C434.533 364.027 436.743 365.812 438.386 367.965V361.165H448.161V408H438.386V401.03C436.743 403.24 434.505 405.082 431.671 406.555C428.838 408.028 425.608 408.765 421.981 408.765C417.958 408.765 414.275 407.745 410.931 405.705C407.588 403.608 404.925 400.718 402.941 397.035C401.015 393.295 400.051 389.073 400.051 384.37ZM438.386 384.54C438.386 381.31 437.706 378.505 436.346 376.125C435.043 373.745 433.315 371.932 431.161 370.685C429.008 369.438 426.685 368.815 424.191 368.815C421.698 368.815 419.375 369.438 417.221 370.685C415.068 371.875 413.311 373.66 411.951 376.04C410.648 378.363 409.996 381.14 409.996 384.37C409.996 387.6 410.648 390.433 411.951 392.87C413.311 395.307 415.068 397.177 417.221 398.48C419.431 399.727 421.755 400.35 424.191 400.35C426.685 400.35 429.008 399.727 431.161 398.48C433.315 397.233 435.043 395.42 436.346 393.04C437.706 390.603 438.386 387.77 438.386 384.54ZM478.994 399.33L492.254 361.165H502.539L484.689 408H473.129L455.364 361.165H465.734L478.994 399.33ZM552.788 383.435C552.788 385.192 552.675 386.778 552.448 388.195H516.663C516.947 391.935 518.335 394.938 520.828 397.205C523.322 399.472 526.382 400.605 530.008 400.605C535.222 400.605 538.905 398.423 541.058 394.06H551.513C550.097 398.367 547.518 401.908 543.778 404.685C540.095 407.405 535.505 408.765 530.008 408.765C525.532 408.765 521.508 407.773 517.938 405.79C514.425 403.75 511.648 400.917 509.608 397.29C507.625 393.607 506.633 389.357 506.633 384.54C506.633 379.723 507.597 375.502 509.523 371.875C511.507 368.192 514.255 365.358 517.768 363.375C521.338 361.392 525.418 360.4 530.008 360.4C534.428 360.4 538.367 361.363 541.823 363.29C545.28 365.217 547.972 367.937 549.898 371.45C551.825 374.907 552.788 378.902 552.788 383.435ZM542.673 380.375C542.617 376.805 541.342 373.943 538.848 371.79C536.355 369.637 533.267 368.56 529.583 368.56C526.24 368.56 523.378 369.637 520.998 371.79C518.618 373.887 517.202 376.748 516.748 380.375H542.673ZM572.014 367.965C573.431 365.585 575.301 363.743 577.624 362.44C580.004 361.08 582.809 360.4 586.039 360.4V370.43H583.574C579.778 370.43 576.888 371.393 574.904 373.32C572.978 375.247 572.014 378.59 572.014 383.35V408H562.324V361.165H572.014V367.965ZM591.716 384.37C591.716 379.667 592.68 375.502 594.606 371.875C596.59 368.248 599.253 365.443 602.596 363.46C605.996 361.42 609.736 360.4 613.816 360.4C617.5 360.4 620.701 361.137 623.421 362.61C626.198 364.027 628.408 365.812 630.051 367.965V361.165H639.826V408H630.051V401.03C628.408 403.24 626.17 405.082 623.336 406.555C620.503 408.028 617.273 408.765 613.646 408.765C609.623 408.765 605.94 407.745 602.596 405.705C599.253 403.608 596.59 400.718 594.606 397.035C592.68 393.295 591.716 389.073 591.716 384.37ZM630.051 384.54C630.051 381.31 629.371 378.505 628.011 376.125C626.708 373.745 624.98 371.932 622.826 370.685C620.673 369.438 618.35 368.815 615.856 368.815C613.363 368.815 611.04 369.438 608.886 370.685C606.733 371.875 604.976 373.66 603.616 376.04C602.313 378.363 601.661 381.14 601.661 384.37C601.661 387.6 602.313 390.433 603.616 392.87C604.976 395.307 606.733 397.177 608.886 398.48C611.096 399.727 613.42 400.35 615.856 400.35C618.35 400.35 620.673 399.727 622.826 398.48C624.98 397.233 626.708 395.42 628.011 393.04C629.371 390.603 630.051 387.77 630.051 384.54Z" fill="black"/>
<mask id="path-10-outside-2_97_24" maskUnits="userSpaceOnUse" x="401" y="1006" width="46" height="32" fill="black">
<rect fill="white" x="401" y="1006" width="46" height="32"/>
<path d="M404.92 1030.8C407.48 1028.59 409.493 1026.77 410.96 1025.36C412.453 1023.92 413.693 1022.43 414.68 1020.88C415.667 1019.33 416.16 1017.79 416.16 1016.24C416.16 1014.64 415.773 1013.39 415 1012.48C414.253 1011.57 413.067 1011.12 411.44 1011.12C409.867 1011.12 408.64 1011.63 407.76 1012.64C406.907 1013.63 406.453 1014.96 406.4 1016.64H402C402.08 1013.6 402.987 1011.28 404.72 1009.68C406.48 1008.05 408.707 1007.24 411.4 1007.24C414.307 1007.24 416.573 1008.04 418.2 1009.64C419.853 1011.24 420.68 1013.37 420.68 1016.04C420.68 1017.96 420.187 1019.81 419.2 1021.6C418.24 1023.36 417.08 1024.95 415.72 1026.36C414.387 1027.75 412.68 1029.36 410.6 1031.2L408.8 1032.8H421.48V1036.6H402.04V1033.28L404.92 1030.8ZM425.486 1022.04C425.486 1017.43 426.259 1013.83 427.806 1011.24C429.379 1008.63 432.073 1007.32 435.886 1007.32C439.699 1007.32 442.379 1008.63 443.926 1011.24C445.499 1013.83 446.286 1017.43 446.286 1022.04C446.286 1026.71 445.499 1030.36 443.926 1033C442.379 1035.61 439.699 1036.92 435.886 1036.92C432.073 1036.92 429.379 1035.61 427.806 1033C426.259 1030.36 425.486 1026.71 425.486 1022.04ZM441.806 1022.04C441.806 1019.88 441.659 1018.05 441.366 1016.56C441.099 1015.07 440.539 1013.85 439.686 1012.92C438.833 1011.96 437.566 1011.48 435.886 1011.48C434.206 1011.48 432.939 1011.96 432.086 1012.92C431.233 1013.85 430.659 1015.07 430.366 1016.56C430.099 1018.05 429.966 1019.88 429.966 1022.04C429.966 1024.28 430.099 1026.16 430.366 1027.68C430.633 1029.2 431.193 1030.43 432.046 1031.36C432.926 1032.29 434.206 1032.76 435.886 1032.76C437.566 1032.76 438.833 1032.29 439.686 1031.36C440.566 1030.43 441.139 1029.2 441.406 1027.68C441.673 1026.16 441.806 1024.28 441.806 1022.04Z"/>
</mask>
<path d="M404.92 1030.8C407.48 1028.59 409.493 1026.77 410.96 1025.36C412.453 1023.92 413.693 1022.43 414.68 1020.88C415.667 1019.33 416.16 1017.79 416.16 1016.24C416.16 1014.64 415.773 1013.39 415 1012.48C414.253 1011.57 413.067 1011.12 411.44 1011.12C409.867 1011.12 408.64 1011.63 407.76 1012.64C406.907 1013.63 406.453 1014.96 406.4 1016.64H402C402.08 1013.6 402.987 1011.28 404.72 1009.68C406.48 1008.05 408.707 1007.24 411.4 1007.24C414.307 1007.24 416.573 1008.04 418.2 1009.64C419.853 1011.24 420.68 1013.37 420.68 1016.04C420.68 1017.96 420.187 1019.81 419.2 1021.6C418.24 1023.36 417.08 1024.95 415.72 1026.36C414.387 1027.75 412.68 1029.36 410.6 1031.2L408.8 1032.8H421.48V1036.6H402.04V1033.28L404.92 1030.8ZM425.486 1022.04C425.486 1017.43 426.259 1013.83 427.806 1011.24C429.379 1008.63 432.073 1007.32 435.886 1007.32C439.699 1007.32 442.379 1008.63 443.926 1011.24C445.499 1013.83 446.286 1017.43 446.286 1022.04C446.286 1026.71 445.499 1030.36 443.926 1033C442.379 1035.61 439.699 1036.92 435.886 1036.92C432.073 1036.92 429.379 1035.61 427.806 1033C426.259 1030.36 425.486 1026.71 425.486 1022.04ZM441.806 1022.04C441.806 1019.88 441.659 1018.05 441.366 1016.56C441.099 1015.07 440.539 1013.85 439.686 1012.92C438.833 1011.96 437.566 1011.48 435.886 1011.48C434.206 1011.48 432.939 1011.96 432.086 1012.92C431.233 1013.85 430.659 1015.07 430.366 1016.56C430.099 1018.05 429.966 1019.88 429.966 1022.04C429.966 1024.28 430.099 1026.16 430.366 1027.68C430.633 1029.2 431.193 1030.43 432.046 1031.36C432.926 1032.29 434.206 1032.76 435.886 1032.76C437.566 1032.76 438.833 1032.29 439.686 1031.36C440.566 1030.43 441.139 1029.2 441.406 1027.68C441.673 1026.16 441.806 1024.28 441.806 1022.04Z" fill="black"/>
<path d="M404.92 1030.8L405.116 1031.03L405.116 1031.03L404.92 1030.8ZM410.96 1025.36L411.168 1025.58L411.168 1025.58L410.96 1025.36ZM415 1012.48L414.768 1012.67L414.772 1012.67L415 1012.48ZM407.76 1012.64L407.533 1012.44L407.533 1012.44L407.76 1012.64ZM406.4 1016.64V1016.94H406.691L406.7 1016.65L406.4 1016.64ZM402 1016.64L401.7 1016.63L401.692 1016.94H402V1016.64ZM404.72 1009.68L404.923 1009.9L404.924 1009.9L404.72 1009.68ZM418.2 1009.64L417.99 1009.85L417.991 1009.86L418.2 1009.64ZM419.2 1021.6L418.937 1021.45L418.937 1021.46L419.2 1021.6ZM415.72 1026.36L415.504 1026.15L415.504 1026.15L415.72 1026.36ZM410.6 1031.2L410.401 1030.98L410.401 1030.98L410.6 1031.2ZM408.8 1032.8L408.601 1032.58L408.011 1033.1H408.8V1032.8ZM421.48 1032.8H421.78V1032.5H421.48V1032.8ZM421.48 1036.6V1036.9H421.78V1036.6H421.48ZM402.04 1036.6H401.74V1036.9H402.04V1036.6ZM402.04 1033.28L401.844 1033.05L401.74 1033.14V1033.28H402.04ZM404.92 1030.8L405.116 1031.03C407.678 1028.81 409.696 1026.99 411.168 1025.58L410.96 1025.36L410.752 1025.14C409.291 1026.55 407.282 1028.36 404.724 1030.57L404.92 1030.8ZM410.96 1025.36L411.168 1025.58C412.676 1024.12 413.932 1022.61 414.933 1021.04L414.68 1020.88L414.427 1020.72C413.455 1022.24 412.23 1023.72 410.752 1025.14L410.96 1025.36ZM414.68 1020.88L414.933 1021.04C415.945 1019.46 416.46 1017.85 416.46 1016.24H416.16H415.86C415.86 1017.72 415.389 1019.21 414.427 1020.72L414.68 1020.88ZM416.16 1016.24H416.46C416.46 1014.59 416.062 1013.26 415.228 1012.29L415 1012.48L414.772 1012.67C415.485 1013.51 415.86 1014.69 415.86 1016.24H416.16ZM415 1012.48L415.232 1012.29C414.408 1011.29 413.12 1010.82 411.44 1010.82V1011.12V1011.42C413.013 1011.42 414.098 1011.86 414.768 1012.67L415 1012.48ZM411.44 1011.12V1010.82C409.796 1010.82 408.48 1011.35 407.533 1012.44L407.76 1012.64L407.987 1012.84C408.8 1011.9 409.937 1011.42 411.44 1011.42V1011.12ZM407.76 1012.64L407.533 1012.44C406.623 1013.5 406.155 1014.9 406.1 1016.63L406.4 1016.64L406.7 1016.65C406.752 1015.02 407.19 1013.76 407.987 1012.84L407.76 1012.64ZM406.4 1016.64V1016.34H402V1016.64V1016.94H406.4V1016.64ZM402 1016.64L402.3 1016.65C402.378 1013.66 403.266 1011.43 404.923 1009.9L404.72 1009.68L404.517 1009.46C402.708 1011.13 401.782 1013.54 401.7 1016.63L402 1016.64ZM404.72 1009.68L404.924 1009.9C406.621 1008.33 408.772 1007.54 411.4 1007.54V1007.24V1006.94C408.641 1006.94 406.339 1007.78 404.516 1009.46L404.72 1009.68ZM411.4 1007.24V1007.54C414.251 1007.54 416.433 1008.32 417.99 1009.85L418.2 1009.64L418.41 1009.43C416.713 1007.76 414.363 1006.94 411.4 1006.94V1007.24ZM418.2 1009.64L417.991 1009.86C419.577 1011.39 420.38 1013.44 420.38 1016.04H420.68H420.98C420.98 1013.31 420.13 1011.09 418.409 1009.42L418.2 1009.64ZM420.68 1016.04H420.38C420.38 1017.91 419.901 1019.71 418.937 1021.45L419.2 1021.6L419.463 1021.75C420.472 1019.92 420.98 1018.01 420.98 1016.04H420.68ZM419.2 1021.6L418.937 1021.46C417.989 1023.19 416.845 1024.76 415.504 1026.15L415.72 1026.36L415.936 1026.57C417.315 1025.14 418.491 1023.53 419.463 1021.74L419.2 1021.6ZM415.72 1026.36L415.504 1026.15C414.178 1027.53 412.478 1029.14 410.401 1030.98L410.6 1031.2L410.799 1031.42C412.882 1029.58 414.595 1027.96 415.936 1026.57L415.72 1026.36ZM410.6 1031.2L410.401 1030.98L408.601 1032.58L408.8 1032.8L408.999 1033.02L410.799 1031.42L410.6 1031.2ZM408.8 1032.8V1033.1H421.48V1032.8V1032.5H408.8V1032.8ZM421.48 1032.8H421.18V1036.6H421.48H421.78V1032.8H421.48ZM421.48 1036.6V1036.3H402.04V1036.6V1036.9H421.48V1036.6ZM402.04 1036.6H402.34V1033.28H402.04H401.74V1036.6H402.04ZM402.04 1033.28L402.236 1033.51L405.116 1031.03L404.92 1030.8L404.724 1030.57L401.844 1033.05L402.04 1033.28ZM427.806 1011.24L427.549 1011.09L427.548 1011.09L427.806 1011.24ZM443.926 1011.24L443.668 1011.39L443.67 1011.4L443.926 1011.24ZM443.926 1033L443.668 1032.85L443.668 1032.85L443.926 1033ZM427.806 1033L427.547 1033.15L427.549 1033.15L427.806 1033ZM441.366 1016.56L441.071 1016.61L441.072 1016.62L441.366 1016.56ZM439.686 1012.92L439.462 1013.12L439.465 1013.12L439.686 1012.92ZM432.086 1012.92L432.307 1013.12L432.31 1013.12L432.086 1012.92ZM430.366 1016.56L430.072 1016.5L430.071 1016.51L430.366 1016.56ZM430.366 1027.68L430.661 1027.63L430.366 1027.68ZM432.046 1031.36L431.825 1031.56L431.828 1031.57L432.046 1031.36ZM439.686 1031.36L439.468 1031.15L439.465 1031.16L439.686 1031.36ZM441.406 1027.68L441.701 1027.73L441.406 1027.68ZM425.486 1022.04H425.786C425.786 1017.45 426.556 1013.92 428.063 1011.39L427.806 1011.24L427.548 1011.09C425.963 1013.74 425.186 1017.4 425.186 1022.04H425.486ZM427.806 1011.24L428.063 1011.39C429.568 1008.89 432.147 1007.62 435.886 1007.62V1007.32V1007.02C431.998 1007.02 429.191 1008.36 427.549 1011.09L427.806 1011.24ZM435.886 1007.32V1007.62C439.625 1007.62 442.189 1008.89 443.668 1011.39L443.926 1011.24L444.184 1011.09C442.569 1008.36 439.774 1007.02 435.886 1007.02V1007.32ZM443.926 1011.24L443.67 1011.4C445.203 1013.92 445.986 1017.46 445.986 1022.04H446.286H446.586C446.586 1017.4 445.795 1013.74 444.182 1011.08L443.926 1011.24ZM446.286 1022.04H445.986C445.986 1026.68 445.203 1030.27 443.668 1032.85L443.926 1033L444.184 1033.15C445.795 1030.45 446.586 1026.73 446.586 1022.04H446.286ZM443.926 1033L443.668 1032.85C442.189 1035.35 439.625 1036.62 435.886 1036.62V1036.92V1037.22C439.774 1037.22 442.569 1035.88 444.184 1033.15L443.926 1033ZM435.886 1036.92V1036.62C432.147 1036.62 429.568 1035.35 428.063 1032.85L427.806 1033L427.549 1033.15C429.191 1035.88 431.998 1037.22 435.886 1037.22V1036.92ZM427.806 1033L428.065 1032.85C426.556 1030.27 425.786 1026.68 425.786 1022.04H425.486H425.186C425.186 1026.73 425.963 1030.45 427.547 1033.15L427.806 1033ZM441.806 1022.04H442.106C442.106 1019.87 441.959 1018.02 441.66 1016.5L441.366 1016.56L441.072 1016.62C441.36 1018.09 441.506 1019.89 441.506 1022.04H441.806ZM441.366 1016.56L441.661 1016.51C441.387 1014.97 440.806 1013.7 439.907 1012.72L439.686 1012.92L439.465 1013.12C440.273 1014.01 440.812 1015.16 441.071 1016.61L441.366 1016.56ZM439.686 1012.92L439.91 1012.72C438.984 1011.68 437.624 1011.18 435.886 1011.18V1011.48V1011.78C437.508 1011.78 438.682 1012.24 439.462 1013.12L439.686 1012.92ZM435.886 1011.48V1011.18C434.148 1011.18 432.788 1011.68 431.862 1012.72L432.086 1012.92L432.31 1013.12C433.09 1012.24 434.264 1011.78 435.886 1011.78V1011.48ZM432.086 1012.92L431.865 1012.72C430.967 1013.7 430.373 1014.97 430.072 1016.5L430.366 1016.56L430.66 1016.62C430.945 1015.17 431.498 1014.01 432.307 1013.12L432.086 1012.92ZM430.366 1016.56L430.071 1016.51C429.8 1018.02 429.666 1019.87 429.666 1022.04H429.966H430.266C430.266 1019.89 430.399 1018.08 430.661 1016.61L430.366 1016.56ZM429.966 1022.04H429.666C429.666 1024.29 429.8 1026.19 430.07 1027.73L430.366 1027.68L430.661 1027.63C430.399 1026.13 430.266 1024.27 430.266 1022.04H429.966ZM430.366 1027.68L430.07 1027.73C430.345 1029.3 430.925 1030.58 431.825 1031.56L432.046 1031.36L432.267 1031.16C431.46 1030.27 430.92 1029.1 430.661 1027.63L430.366 1027.68ZM432.046 1031.36L431.828 1031.57C432.78 1032.58 434.15 1033.06 435.886 1033.06V1032.76V1032.46C434.262 1032.46 433.071 1032.01 432.264 1031.15L432.046 1031.36ZM435.886 1032.76V1033.06C437.621 1033.06 438.98 1032.58 439.907 1031.56L439.686 1031.36L439.465 1031.16C438.685 1032.01 437.511 1032.46 435.886 1032.46V1032.76ZM439.686 1031.36L439.904 1031.57C440.832 1030.58 441.427 1029.3 441.701 1027.73L441.406 1027.68L441.11 1027.63C440.852 1029.1 440.3 1030.27 439.468 1031.15L439.686 1031.36ZM441.406 1027.68L441.701 1027.73C441.972 1026.19 442.106 1024.29 442.106 1022.04H441.806H441.506C441.506 1024.27 441.373 1026.13 441.11 1027.63L441.406 1027.68Z" fill="black" mask="url(#path-10-outside-2_97_24)"/>
<path d="M278.81 272.735C270.2 272.735 263.13 270.705 257.6 266.645C252.07 262.515 249.095 256.635 248.675 249.005H270.62C270.83 251.595 271.6 253.485 272.93 254.675C274.26 255.865 275.975 256.46 278.075 256.46C279.965 256.46 281.505 256.005 282.695 255.095C283.955 254.115 284.585 252.785 284.585 251.105C284.585 248.935 283.57 247.255 281.54 246.065C279.51 244.875 276.22 243.545 271.67 242.075C266.84 240.465 262.92 238.925 259.91 237.455C256.97 235.915 254.38 233.71 252.14 230.84C249.97 227.9 248.885 224.085 248.885 219.395C248.885 214.635 250.075 210.575 252.455 207.215C254.835 203.785 258.125 201.195 262.325 199.445C266.525 197.695 271.285 196.82 276.605 196.82C285.215 196.82 292.075 198.85 297.185 202.91C302.365 206.9 305.13 212.535 305.48 219.815H283.115C283.045 217.575 282.345 215.895 281.015 214.775C279.755 213.655 278.11 213.095 276.08 213.095C274.54 213.095 273.28 213.55 272.3 214.46C271.32 215.37 270.83 216.665 270.83 218.345C270.83 219.745 271.355 220.97 272.405 222.02C273.525 223 274.89 223.875 276.5 224.645C278.11 225.345 280.49 226.255 283.64 227.375C288.33 228.985 292.18 230.595 295.19 232.205C298.27 233.745 300.895 235.95 303.065 238.82C305.305 241.62 306.425 245.19 306.425 249.53C306.425 253.94 305.305 257.895 303.065 261.395C300.895 264.895 297.71 267.66 293.51 269.69C289.38 271.72 284.48 272.735 278.81 272.735ZM336.572 221.285C338.182 218.555 340.457 216.385 343.397 214.775C346.337 213.165 349.802 212.36 353.792 212.36C358.482 212.36 362.717 213.585 366.497 216.035C370.347 218.485 373.357 221.985 375.527 226.535C377.767 231.085 378.887 236.405 378.887 242.495C378.887 248.585 377.767 253.94 375.527 258.56C373.357 263.11 370.347 266.61 366.497 269.06C362.717 271.51 358.482 272.735 353.792 272.735C349.802 272.735 346.337 271.93 343.397 270.32C340.527 268.71 338.252 266.54 336.572 263.81V300.14H315.992V213.095H336.572V221.285ZM357.992 242.495C357.992 238.645 356.942 235.67 354.842 233.57C352.812 231.4 350.292 230.315 347.282 230.315C344.272 230.315 341.717 231.4 339.617 233.57C337.587 235.74 336.572 238.715 336.572 242.495C336.572 246.345 337.587 249.355 339.617 251.525C341.717 253.695 344.272 254.78 347.282 254.78C350.292 254.78 352.812 253.695 354.842 251.525C356.942 249.285 357.992 246.275 357.992 242.495ZM407.939 223.49C410.249 220.13 413.049 217.47 416.339 215.51C419.629 213.55 423.164 212.57 426.944 212.57V234.515H421.169C416.689 234.515 413.364 235.39 411.194 237.14C409.024 238.89 407.939 241.935 407.939 246.275V272H387.359V213.095H407.939V223.49ZM444.717 207.635C441.077 207.635 438.137 206.655 435.897 204.695C433.727 202.665 432.642 200.145 432.642 197.135C432.642 194.055 433.727 191.5 435.897 189.47C438.137 187.44 441.077 186.425 444.717 186.425C448.287 186.425 451.157 187.44 453.327 189.47C455.567 191.5 456.687 194.055 456.687 197.135C456.687 200.145 455.567 202.665 453.327 204.695C451.157 206.655 448.287 207.635 444.717 207.635ZM454.902 213.095V272H434.322V213.095H454.902ZM505.157 212.57C511.947 212.57 517.337 214.845 521.327 219.395C525.317 223.875 527.312 229.965 527.312 237.665V272H506.732V240.395C506.732 237.035 505.857 234.41 504.107 232.52C502.357 230.56 500.012 229.58 497.072 229.58C493.992 229.58 491.577 230.56 489.827 232.52C488.077 234.41 487.202 237.035 487.202 240.395V272H466.622V213.095H487.202V221.495C489.022 218.835 491.472 216.7 494.552 215.09C497.632 213.41 501.167 212.57 505.157 212.57ZM560.34 212.36C564.33 212.36 567.795 213.165 570.735 214.775C573.745 216.385 576.055 218.555 577.665 221.285V213.095H598.245V271.37C598.245 276.9 597.195 281.87 595.095 286.28C592.995 290.76 589.705 294.33 585.225 296.99C580.815 299.65 575.215 300.98 568.425 300.98C559.325 300.98 552.045 298.845 546.585 294.575C541.125 290.305 538.01 284.495 537.24 277.145H557.505C557.925 279.035 558.975 280.505 560.655 281.555C562.335 282.605 564.505 283.13 567.165 283.13C574.165 283.13 577.665 279.21 577.665 271.37V263.81C576.055 266.54 573.745 268.71 570.735 270.32C567.795 271.93 564.33 272.735 560.34 272.735C555.65 272.735 551.38 271.51 547.53 269.06C543.75 266.61 540.74 263.11 538.5 258.56C536.33 253.94 535.245 248.585 535.245 242.495C535.245 236.405 536.33 231.085 538.5 226.535C540.74 221.985 543.75 218.485 547.53 216.035C551.38 213.585 555.65 212.36 560.34 212.36ZM577.665 242.495C577.665 238.715 576.615 235.74 574.515 233.57C572.485 231.4 569.965 230.315 566.955 230.315C563.875 230.315 561.32 231.4 559.29 233.57C557.26 235.67 556.245 238.645 556.245 242.495C556.245 246.275 557.26 249.285 559.29 251.525C561.32 253.695 563.875 254.78 566.955 254.78C569.965 254.78 572.485 253.695 574.515 251.525C576.615 249.355 577.665 246.345 577.665 242.495Z" fill="black"/>
<path d="M398.585 455.944C406.742 445.482 411.614 437.224 426.029 435.277C446.217 432.552 459.145 450.381 459.225 468.12C498.127 472.371 506.359 514.191 468.842 529.847C471.55 535.667 471.626 539.97 470.875 546.266C477.51 546.642 482.753 548.201 488.15 552.021C497.227 534.442 509.134 531.055 527.893 535.948C535.402 509.326 570.803 502.681 584.242 526.669C586.746 531.138 588.176 536.19 589.323 541.129C628.439 537.438 643.183 581.998 605.719 596.881C608.718 605.984 609.275 615.115 605.719 624.168C612.271 625.547 618.758 627.932 624.057 632.048C640.171 603.01 678.425 631.095 672.055 659.734C699.875 671.839 702.156 704.301 673.652 714.441C670.065 715.718 666.052 716.451 662.295 717.109C660.795 742.494 638.26 756.048 615.927 741.045C617.797 746.732 620.293 753.687 617.256 759.389C610.559 771.962 595.285 779.999 581.245 782.067C579.759 800.63 567.327 815.502 547.097 813.822C531.858 812.557 523.568 795.756 520.559 795.278C513.399 794.138 510.741 796.943 501.433 792.479C465.775 827.617 453.024 864.431 472.972 910.565C484.972 910.987 494.877 914.71 501.433 924.727C513.228 919.248 527.231 927.017 532.41 937.649C536.408 945.858 535.236 951.351 532.482 959.637C540.09 960.652 550.374 966.012 540.787 972.196C536.041 975.259 488.639 973.495 480.081 973.493L329.834 973.496C322.003 973.495 313.509 974.659 305.904 972.46C297.317 964.904 305.725 959.55 314.468 959.637C310.661 943.844 315.917 927.246 333.823 923.247C338.368 922.233 343.171 923.247 347.791 923.185C360.658 908.586 373.07 912.471 374.793 910.301C377.2 907.269 386.623 881.983 388.074 877.098C389.346 872.825 389.985 861.297 395.968 860.875C400.724 860.357 398.364 853.202 398.585 849.009C392.166 846.379 393.586 840.928 393.017 835.109C390.479 809.176 372.708 788.198 350.703 774.542C340.442 783.876 330.311 788.822 316.401 785.318C308.141 815.878 274.326 824.625 258.655 798.009C255.845 793.234 254.672 787.411 253.624 782.067C230.984 783.594 210.805 767.943 217.531 745.163C196.802 743.39 188.161 737.239 184.576 717.109C152.113 715.502 141.36 673.284 178.151 659.734C170.311 629.277 202.849 607.974 229.289 632.755C234.085 629.388 237.94 628.074 243.627 626.738C238.695 618.647 238.254 607.184 241.921 598.501C204.768 573.733 225.565 534.536 265.168 539.814C271.878 510.868 317.558 499.567 327.142 542.773C355.671 538.674 375.18 559.034 363.695 586.501C372.51 590.304 383.448 593.675 390.698 599.976C390.57 586.346 390.224 572.444 395.264 559.486C362.53 565.193 346.927 530.152 366.769 510.2C333.631 479.452 369.882 439.884 398.585 455.944ZM397.768 698.611C395.76 722.758 368.338 729.03 354.777 713.235C353.328 711.547 352.18 709.443 350.703 707.848C344.751 708.093 339.755 707.176 334.043 705.706C333.75 711.865 333.275 717.301 331.435 723.235C341.978 724.214 343.044 731.185 350.703 733.474C371.591 740.944 390.669 749.908 407.259 764.613C414.141 739.467 425.065 722.361 420.764 694.934C420.191 691.279 420.074 686.756 417.926 683.593C413.485 692.082 407.401 697.122 397.768 698.611ZM504.141 688.679C510.557 686.636 516.875 687.037 523.037 689.78L527.893 692.085C535.746 680.355 549.977 673.672 564.22 676.804C567.728 672.184 571.731 668.879 576.316 665.315C572.679 657.822 572.748 651.463 574.847 643.527C570.041 642.191 565.658 639.713 560.876 638.299C545.731 664.431 521.509 670.81 504.141 688.679ZM294.767 632.048C287.809 638.6 281.355 642.67 271.53 643.527C274.003 648.457 275.802 653.185 275.696 658.745C283.791 656.534 291.421 654.885 299.844 654.316C307.983 654.247 315.863 655.067 323.9 656.242C323.851 652.112 323.997 649.224 325.969 645.471C316.043 643.88 310.008 644.187 301.295 638.013C298.994 636.383 297.195 633.285 294.767 632.048ZM501.433 637.065C500.432 640.281 497.731 645.38 497.248 647.53L497.424 647.643C503.218 644.26 508.65 640.964 513.565 636.403L513.591 635.898C509.533 636.519 505.559 637.176 501.433 637.065ZM361.225 632.048C363.004 630.176 364.791 628.411 366.769 626.738C361.111 623.587 355.303 621.675 349.438 619.069C348.909 623.417 348.164 627.034 346.363 631.049C350.98 631.224 354.782 632.26 359.073 633.872L361.225 632.048ZM472.972 663.399C474.828 662.173 476.676 660.827 478.616 659.734C472.257 658.916 464.787 656.718 459.225 656.242C461.195 660.574 462.205 665.141 463.309 669.733C466.455 667.478 469.55 665.255 472.972 663.399ZM481.495 714.147C466.886 734.59 461.023 760.936 458.29 785.318C459.945 783.861 461.608 782.419 463.309 781.012C467.633 775.667 473.295 771.196 478.616 766.805C478.467 755.661 479.706 747.477 488.15 739.556C480.288 732.69 479.394 723.52 481.495 714.147Z" fill="black"/>
<path d="M435.601 769.981C437.282 772.076 438.668 773.392 441.203 774.542H445.573C444.839 781.947 443.132 802.575 447.734 808.219C454.576 816.612 461.18 803.315 463.778 799.443C468.374 792.596 477.34 782.64 484.782 778.637L489.213 785.318C451.7 814.222 439.064 872.711 459.225 914.678C455.995 917.084 453.097 919.757 450.987 923.185H443.102C435.641 916.369 431.264 909.951 426.203 901.362C425.872 895.62 423.139 890.057 421.726 884.492C417.616 868.321 416.499 851.681 419.094 835.164C425.595 814.376 428.214 792.353 435.601 769.981Z" fill="#BA8048"/>
<path d="M434.352 849.721C445.727 849.138 444.026 860.607 444.555 868.394C445.004 874.993 446.801 880.532 438.816 883.155C434.691 883.229 432.088 881.938 430.363 878.01C427.737 872.031 424.703 853.19 434.352 849.721Z" fill="#F8B516"/>
<path d="M355.745 598.501C369.007 601.075 382.164 608.421 392.429 616.844C400.277 623.285 400.566 630.089 411.806 624.168C413.574 636.504 421.216 638.812 428.206 647.183C459.509 684.671 446.281 728.898 435.602 769.982C428.214 792.353 425.596 814.376 419.094 835.165L418.834 834.827C416.189 831.428 414.938 824.133 413.581 819.944C405.833 796.054 401.245 793.513 387.154 776.271L383.192 772.183C382.813 770.369 380.146 771.702 379.103 769.982L381.147 770.196C385.838 767.93 385.87 765.433 390.233 768.986L390.698 768.637C401.733 774.958 415.432 803.832 419.218 774.447C421.34 757.976 429.189 743.013 432.546 726.858C437.192 704.501 433.868 653.28 404.274 647.643C397.806 619.899 373.538 613.92 347.792 604.545C350.712 602.896 353.184 600.625 355.745 598.501Z" fill="#C77705"/>
<path d="M411.806 620.144C402.789 593.303 400.975 584.959 409.592 555.316C411.55 557.081 413.615 558.805 415.406 560.727C413.304 572.839 411.304 585.151 414.214 597.333C418.793 616.496 421.023 627.816 441.204 633.872C439.242 635.227 437.731 636.089 436.719 638.3C442.643 654.477 448.759 660.103 451.763 680.402C455.014 702.358 467.93 683.858 476.314 677.719C489.029 668.407 503.905 660.33 517.132 650.942C527.165 643.82 534.028 636.228 545.164 629.038C553.532 633.937 545.169 638.444 540.378 642.645C518.124 662.162 486.106 679.053 470.668 703.447C457.053 724.958 449.147 749.697 445.573 774.542H441.204C438.668 773.392 437.282 772.076 435.601 769.982C446.281 728.897 459.509 684.671 428.206 647.183C421.216 638.812 413.574 636.504 411.806 624.168C411.86 622.829 411.976 621.478 411.806 620.144Z" fill="#F8B516"/>
<path d="M404.274 872.621L405.63 874.465C408.176 877.906 412.173 879.985 415.083 883.068C420.063 888.347 421.363 896.126 426.204 901.362C431.264 909.952 435.641 916.369 443.102 923.185C435.119 924.849 430.166 927.594 423.809 932.391C412.629 923.867 409.374 923.054 395.264 923.185C393.206 920.442 390.833 917.986 387.928 916.092C390.909 907.236 395.24 898.909 398.628 890.211C400.865 884.468 402.12 878.404 404.274 872.621Z" fill="#6B3C12"/>
<path d="M356.628 759.132C364.886 760.25 380.845 770.248 386.774 775.798L387.154 776.27C401.245 793.513 405.833 796.054 413.58 819.944C414.938 824.132 416.189 831.428 418.834 834.827L419.094 835.164C416.499 851.681 417.616 868.321 421.726 884.493C423.139 890.057 425.872 895.62 426.203 901.362C421.363 896.126 420.063 888.347 415.083 883.067C412.172 879.985 408.176 877.906 405.63 874.465L404.274 872.621C405.54 865.678 404.062 860.716 395.967 860.875C400.724 860.357 398.364 853.202 398.584 849.008C400.179 849.038 401.774 849.016 403.369 849.008C409.802 842.42 407.989 833.539 406.647 825.309C402.862 802.101 386.309 783.342 367.764 769.224C363.061 765.644 356.339 764.209 356.628 759.132Z" fill="#A55801"/>
<path d="M356.628 749.718C363.558 752.091 386.638 763.391 390.698 768.637L390.233 768.986C385.87 765.433 387.515 768.398 382.825 770.664L382.64 771.211C383.683 772.931 386.395 773.983 386.774 775.798C380.845 770.248 364.886 760.25 356.628 759.133C356.706 755.991 356.742 752.861 356.628 749.718Z" fill="#F8B516"/>
<path d="M373.542 471.067C385.877 453.664 400.809 476.832 405.638 476.238C413.157 475.314 407.311 452.347 426.184 448.615C439.935 445.897 448.447 461.047 444.712 472.441C440.001 477.249 438.19 481.693 445.573 485.082C454.034 482.162 460.395 480.2 469 484.122C478.244 488.335 482.52 496.672 477.927 505.91C470.078 521.706 452.121 517.789 448.737 523.537C445.752 528.609 461.161 533.909 455.898 546.462C449.699 561.252 431.393 559.548 421.478 549.05C419.174 546.61 413.74 536.773 410.523 537.896C403.712 540.275 401.925 545.647 390.698 547.683C377.448 551.961 359.354 528.345 384.544 512.766C386.263 509.38 385.335 507.298 382.861 504.502C370.561 498.453 358.712 478.966 373.542 471.067Z" fill="#FA55A8"/>
<path d="M384.544 512.766C383.854 515.935 381.335 518.451 379.653 521.153C373.157 531.59 378.21 545.248 390.698 547.683C377.448 551.961 359.354 528.345 384.544 512.766Z" fill="#FA1E5A"/>
<path d="M382.861 504.502C370.561 498.453 358.712 478.966 373.542 471.066C373.226 473.555 371.954 475.821 371.747 478.315C370.775 490.081 380.749 495.147 382.861 504.502Z" fill="#FA1E5A"/>
<path d="M417.745 484.449C427.914 482.426 437.857 488.754 440.014 498.62C442.171 508.486 435.732 518.195 425.596 520.365C415.352 522.556 405.233 516.219 403.054 506.249C400.874 496.28 407.47 486.493 417.745 484.449Z" fill="black"/>
<path d="M419.617 493.089C424.793 492.003 429.892 495.212 430.986 500.246C432.081 505.281 428.755 510.22 423.569 511.261C418.417 512.296 413.373 509.089 412.286 504.086C411.198 499.085 414.475 494.169 419.617 493.089Z" fill="#FDD402"/>
<path d="M381.727 483.893C384.77 483.121 387.885 484.876 388.709 487.826C389.533 490.775 387.758 493.819 384.732 494.649C381.661 495.491 378.474 493.737 377.639 490.745C376.803 487.754 378.641 484.675 381.727 483.893Z" fill="black"/>
<path d="M423.809 460.252C431.747 459.952 431.92 468.426 425.548 471.067C417.273 471.093 416.316 462.991 423.809 460.252Z" fill="black"/>
<path d="M385.313 526.5C392.773 526.296 395.328 535.456 387.928 537.278C380.035 537.099 378.525 529.557 385.313 526.5Z" fill="black"/>
<path d="M425.225 533.382C427.143 532.745 429.263 533.162 430.774 534.475C432.285 535.787 432.948 537.792 432.509 539.713C432.07 541.635 430.598 543.178 428.657 543.747C425.733 544.604 422.641 543.027 421.706 540.202C420.769 537.377 422.335 534.344 425.225 533.382Z" fill="black"/>
<path d="M453.643 496.343C455.554 495.72 457.661 496.151 459.151 497.469C460.64 498.787 461.28 500.786 460.822 502.692C460.362 504.599 458.878 506.114 456.941 506.653C454.036 507.461 451.001 505.868 450.104 503.065C449.207 500.262 450.78 497.277 453.643 496.343Z" fill="black"/>
<path d="M277.502 555.316C276.223 518.908 315.732 520.215 314.866 549.231C314.782 552.067 313.477 554.694 312.383 557.27L312.594 557.673C316.938 565.792 320.855 560.556 325.952 557.283C333.387 552.511 347.1 556.124 351.732 563.24C359.7 575.481 346.903 594.818 331.435 596.881C323.128 601.382 331.186 604.924 332.979 609.961C338.766 618.377 336.587 629.698 324.722 631.399C302.54 634.579 300.744 607.691 292.375 609.629C287.4 610.781 288.032 618.58 285.007 623.035C271.3 643.209 239.708 620.574 258.507 596.881L258.295 596.32C257.533 594.35 257.078 592.481 256.682 590.414C241.251 586.796 225.794 566.226 244.694 555.846C267.16 543.507 268.504 563.616 277.502 555.316Z" fill="#1DD7DB"/>
<path d="M256.682 590.414C261.389 585.703 268.019 583.545 274.746 584.167C276.954 592.125 280.986 596.295 288.207 599.976C295.149 600.776 299.805 600.694 305.904 596.882C307.214 595.254 308.722 593.728 310.135 592.181C315.146 593.071 328.405 592.817 331.435 596.882C323.128 601.382 331.186 604.924 332.979 609.961C338.766 618.377 336.587 629.698 324.722 631.399C302.54 634.579 300.744 607.691 292.375 609.629C287.4 610.781 288.032 618.58 285.007 623.036C271.3 643.21 239.708 620.575 258.507 596.882L258.295 596.32C257.533 594.35 257.078 592.481 256.682 590.414Z" fill="#1DD7DB"/>
<path d="M310.135 592.181C315.146 593.071 328.405 592.816 331.435 596.881C323.128 601.382 331.186 604.924 332.98 609.961C329.381 613.278 326.474 620.412 320.216 618.857C313.334 617.147 309.294 602.875 305.904 596.881C307.214 595.254 308.722 593.728 310.135 592.181Z" fill="#1DD7DB"/>
<path d="M256.682 590.414C261.389 585.703 268.019 583.545 274.746 584.167C276.954 592.125 280.986 596.295 288.207 599.976C277.817 606.116 265.748 607.855 258.507 596.882L258.295 596.32C257.533 594.35 257.078 592.481 256.682 590.414Z" fill="#1DD7DB"/>
<path d="M265.65 610.577C268.26 610.071 270.812 611.671 271.414 614.191C272.016 616.71 270.449 619.238 267.876 619.901C266.14 620.348 264.29 619.841 263.05 618.577C261.809 617.315 261.374 615.495 261.916 613.83C262.457 612.165 263.888 610.919 265.65 610.577Z" fill="black"/>
<path d="M274.746 584.167C278.247 548.939 321.82 562.212 310.135 592.181C308.722 593.728 307.214 595.254 305.904 596.882C299.805 600.694 295.149 600.776 288.207 599.976C280.986 596.295 276.954 592.125 274.746 584.167Z" fill="black"/>
<path d="M291.564 573.782C296.272 572.364 301.27 574.93 302.718 579.508C304.167 584.087 301.516 588.937 296.801 590.334C292.101 591.728 287.127 589.161 285.684 584.597C284.239 580.034 286.871 575.195 291.564 573.782Z" fill="#F8B516"/>
<path d="M254.832 567.903C261.642 567.189 262.646 575.073 256.682 577.824C249.422 577.363 249.124 570.771 254.832 567.903Z" fill="black"/>
<path d="M291.278 542.773C297.493 542.422 300.202 549.014 294.767 552.021C287.393 553.18 285.163 545.968 291.278 542.773Z" fill="black"/>
<path d="M324.296 576.658C326.922 576.276 329.38 578.008 329.823 580.553C330.264 583.097 328.528 585.517 325.918 585.994C324.187 586.31 322.413 585.693 321.282 584.38C320.151 583.068 319.837 581.262 320.463 579.662C321.087 578.061 322.554 576.913 324.296 576.658Z" fill="black"/>
<path d="M493.714 717.109C496.061 703.052 510.362 694.402 522.535 705.497C530.753 712.984 534.068 721.541 537.376 704.816C540.796 687.516 566.858 680.264 571.115 702.396C574.015 717.473 560.628 722.983 569.677 729.154C581.632 728.884 588.32 728.847 597.571 737.383C604.584 743.855 608.592 751.359 601.062 758.791C578.55 781.003 558.159 747.813 567.191 776.319C570.203 785.829 563.46 801.047 551.696 800.619C541.112 799.93 537.194 796.005 532.482 786.469C534.594 782.808 537.335 779.374 539.632 775.798C540.042 774.092 540.269 772.436 539.204 770.897C534.145 763.592 528.636 773.809 525.583 777.297C516.098 785.39 502.957 782.274 496.448 771.96C484.275 752.666 505.237 745.018 505.527 742.149C506.006 737.432 492.651 730.071 493.714 717.109Z" fill="#E600F7"/>
<path d="M525.583 777.297C516.098 785.39 502.957 782.274 496.448 771.96C484.275 752.666 505.237 745.018 505.527 742.149C506.006 737.432 492.651 730.071 493.714 717.109C494.608 719.263 499.24 720.611 501.433 720.579C501.588 723.89 502.868 726.304 506.156 727.377C508.147 730.646 513.551 731.756 516.029 735.028C511.425 735.884 505.26 739.154 510.456 743.818L511.957 745.162C508.739 747.294 504.79 756.122 506.156 760.157C512.044 759.654 515.019 761.747 513.591 767.881C517.109 771.529 520.611 775.539 525.583 777.297Z" fill="#E600F7"/>
<path d="M506.156 760.158C512.044 759.655 515.019 761.747 513.591 767.881C506.928 773.811 498.629 766.86 506.156 760.158Z" fill="black"/>
<path d="M539.631 775.798C540.152 778.892 541.153 781.182 542.903 783.794C543.502 786.602 544.485 788.112 546.978 789.618C546.096 792.162 550.153 798.355 551.696 800.62C541.112 799.931 537.194 796.005 532.482 786.47C534.594 782.809 537.335 779.374 539.631 775.798Z" fill="#E600F7"/>
<path d="M516.029 735.029C527.362 740.102 520.819 748.973 511.957 745.163L510.456 743.818C505.26 739.155 511.425 735.884 516.029 735.029Z" fill="black"/>
<path d="M501.433 720.579C505.218 709.154 521.231 722.781 506.156 727.377C502.868 726.304 501.588 723.891 501.433 720.579Z" fill="black"/>
<path d="M542.903 783.794C547.095 769.001 562.942 790.851 546.978 789.618C544.485 788.112 543.503 786.602 542.903 783.794Z" fill="black"/>
<path d="M544.297 723.741C554.775 723.24 563.69 731.079 564.222 741.261C564.755 751.441 556.702 760.117 546.226 760.65C535.726 761.184 526.774 753.338 526.241 743.135C525.708 732.931 533.796 724.243 544.297 723.741Z" fill="black"/>
<path d="M543.565 733.27C546.823 732.715 550.135 733.92 552.219 736.417C554.303 738.914 554.832 742.311 553.601 745.295C552.37 748.279 549.572 750.381 546.291 750.788C541.376 751.397 536.86 748.083 536.12 743.323C535.38 738.564 538.686 734.1 543.565 733.27Z" fill="#FDD402"/>
<path d="M581.838 743.135C585.063 743.263 587.568 745.912 587.43 749.045C587.291 752.179 584.562 754.609 581.337 754.469C578.121 754.33 575.628 751.686 575.765 748.56C575.904 745.433 578.621 743.006 581.838 743.135Z" fill="black"/>
<path d="M548.753 702.682C557.847 701.552 556.893 709.914 551.696 714.147C545.517 712.831 542.407 705.78 548.753 702.682Z" fill="black"/>
<path d="M296.673 690.951C315.82 688.378 326.114 704.167 319.457 720.166C317.671 724.457 309.664 730.22 315.634 734.818C318.763 737.227 325.427 735.818 329.32 736.517C348.852 740.021 348.293 770.897 327.656 773.335C314.838 774.849 312.775 762.648 306.36 763.025C297.938 763.519 301.637 771.306 302.951 776.178C304.546 782.086 302.667 787.321 299.844 792.479C284.877 812.459 258.008 790.404 271.53 769.981C271.727 764.865 268.878 762.993 263.904 762.771C261.924 764.217 260.828 765.857 259.566 767.881C244.548 770.995 228.94 767.248 230.389 749.717C232.729 723.873 271.563 738.047 263.35 722.812C262.615 721.449 260.976 720.957 259.566 720.579C255.121 720.796 250.564 720.59 246.107 720.579C240.558 712.941 236.82 698.572 248.509 694.755C258.636 688.574 268.658 693.888 274.746 702.682C272.638 707.307 272.078 715.746 279.191 712.951C282.14 711.791 289.008 696.062 296.673 690.951Z" fill="#FA55A8"/>
<path d="M271.53 769.981C275.674 790.237 277.104 797.177 299.844 792.479C284.877 812.459 258.008 790.404 271.53 769.981Z" fill="#DA0A80"/>
<path d="M230.389 749.718L230.727 750.011C241.121 759.154 241.285 763.515 258.533 762.786C260.32 762.71 262.127 762.53 263.904 762.771C261.924 764.217 260.828 765.857 259.566 767.881C244.548 770.995 228.94 767.248 230.389 749.718Z" fill="#DA0A80"/>
<path d="M246.107 720.579C240.558 712.941 236.82 698.572 248.509 694.755C244.863 712.359 253.563 710.493 259.566 720.579C255.121 720.796 250.564 720.59 246.107 720.579Z" fill="#DA0A80"/>
<path d="M285.394 723.276C295.885 721.17 306.14 727.752 308.268 737.956C310.394 748.159 303.582 758.099 293.074 760.127C282.623 762.143 272.461 755.567 270.346 745.42C268.23 735.271 274.958 725.372 285.394 723.276Z" fill="black"/>
<path d="M287.34 733.498C291.988 732.487 296.596 735.337 297.621 739.858C298.645 744.379 295.694 748.846 291.039 749.825C286.406 750.799 281.838 747.95 280.818 743.451C279.8 738.955 282.715 734.503 287.34 733.498Z" fill="#FDD402"/>
<path d="M319.483 746.035C326.332 745.376 328.573 751.882 322.863 755.14C316.924 756.752 313.376 749.273 319.483 746.035Z" fill="black"/>
<path d="M295.714 701.53C298.158 700.751 300.794 702.01 301.654 704.365C302.516 706.721 301.285 709.313 298.882 710.205C297.275 710.802 295.462 710.505 294.146 709.431C292.828 708.357 292.213 706.673 292.539 705.032C292.864 703.391 294.08 702.051 295.714 701.53Z" fill="black"/>
<path d="M279.471 777.428C281.686 776.514 284.247 777.482 285.242 779.611C286.239 781.739 285.308 784.252 283.143 785.273C281.693 785.958 279.976 785.824 278.656 784.925C277.338 784.024 276.624 782.501 276.794 780.943C276.963 779.386 277.988 778.04 279.471 777.428Z" fill="black"/>
<path d="M243.331 741.241C245.634 740.784 247.895 742.185 248.439 744.409C248.983 746.631 247.612 748.873 245.342 749.47C243.809 749.874 242.172 749.435 241.069 748.324C239.967 747.213 239.574 745.608 240.044 744.133C240.515 742.659 241.774 741.551 243.331 741.241Z" fill="black"/>
<path d="M503.273 552.021C508.683 545.251 521.107 544.691 527.742 550.05C530.829 552.543 532.511 558.751 537.175 558.545C547.018 558.111 536.614 540.262 546.335 529.979C556.598 519.125 574.637 527.137 575.536 541.407C575.878 546.845 573.056 551.208 571.694 556.271C575.58 564.681 579.469 559.438 585.319 556.088C597.326 549.212 618.252 559.051 613.098 574.039C608.873 586.324 590.828 584.284 588.745 590.725C587.429 594.795 608.307 619.98 581.245 632.048C575.76 630.25 560.666 624.209 556.284 621.14C552.361 618.393 548.06 607.439 542.257 610.309C536.502 613.156 543.087 618.359 525.583 621.953C531.922 607.838 538.39 589.796 519.095 580.444C537.569 573.212 515.287 558.828 514.174 576.121C513.318 575.929 512.72 575.654 511.957 575.254C510.059 575.057 508.064 575.216 506.156 575.254C501.067 568.462 497.488 559.459 503.273 552.021Z" fill="#E600F7"/>
<path d="M503.273 552.021C502.95 563.127 504.193 567.495 511.957 575.255C510.059 575.057 508.064 575.216 506.156 575.255C501.067 568.462 497.488 559.46 503.273 552.021Z" fill="#E600F7"/>
<path d="M554.383 562.932C564.522 561.487 573.952 568.284 575.475 578.13C576.997 587.977 570.036 597.166 559.909 598.679C549.731 600.201 540.219 593.395 538.69 583.5C537.159 573.604 544.195 564.384 554.383 562.932Z" fill="black"/>
<path d="M555.676 571.609C560.884 570.67 565.889 574.009 566.858 579.069C567.827 584.129 564.392 588.994 559.187 589.938C553.976 590.883 548.965 587.543 547.995 582.48C547.026 577.416 550.465 572.548 555.676 571.609Z" fill="#FDD402"/>
<path d="M589.323 570.016C591.429 569.447 593.686 570.05 595.194 571.588C596.703 573.125 597.215 575.345 596.53 577.362C595.844 579.378 594.069 580.863 591.916 581.224C588.809 581.743 585.827 579.807 585.136 576.818C584.445 573.828 586.286 570.837 589.323 570.016Z" fill="black"/>
<path d="M553.305 539.852C556.431 539.032 559.652 540.819 560.514 543.851C561.379 546.883 559.562 550.025 556.447 550.883C553.304 551.751 550.034 549.965 549.163 546.904C548.291 543.845 550.15 540.68 553.305 539.852Z" fill="black"/>
<path d="M566.783 609.961C575.352 609.606 577.641 617.074 571.694 621.953L571.288 621.924C564.208 621.357 560.04 614.78 566.783 609.961Z" fill="black"/>
<path d="M601.34 638.3C620.149 631.902 618.793 657.239 627.262 654.76C633.358 652.974 632.571 625.811 648.023 633.329C658.362 638.359 659.852 652.174 657.863 661.892C656.028 670.853 659.321 669.508 667.482 672.373C676.307 675.47 684.361 684.873 679.408 694.069C670.41 710.771 651.158 697.988 647.238 704.153C643.971 709.292 654.154 719.235 644.92 729.128C637.854 736.699 628.337 735.339 622.022 727.377C621.018 726.915 620.091 725.699 619.422 724.866C617.464 722.886 615.616 720.817 614.29 718.372C611.599 713.416 618.85 705.971 609.597 704.934C605.83 704.512 602.262 708.162 599.58 710.33C595.916 712.669 586.843 715.663 585.158 710.035C583.499 704.494 584.587 698.411 581.245 688.68C583.53 683.567 586.496 680.042 591.932 677.89C598.07 677.655 599.38 675.387 599.58 669.733C598.066 668.152 596.449 666.737 594.779 665.315C580.838 655.394 585.53 643.793 601.34 638.3Z" fill="#1DD7DB"/>
<path d="M581.245 688.679C583.53 683.567 586.496 680.042 591.932 677.89C590.076 687.922 593.647 701.897 599.58 710.33C595.916 712.669 586.843 715.663 585.158 710.035C583.499 704.494 584.587 698.411 581.245 688.679Z" fill="#1DD7DB"/>
<path d="M594.779 665.314C580.838 655.394 585.53 643.792 601.34 638.299C598.541 642.189 594.054 648.065 595.913 653.112L596.679 653.477C593.763 656.422 593.773 659.039 596.679 662.039C596.029 663.122 595.375 664.201 594.779 665.314Z" fill="#1DD7DB"/>
<path d="M619.421 723.949C618.942 722.047 618.535 720.088 619.629 718.3C626.211 707.537 638.055 728.932 622.022 727.377C621.018 726.915 620.091 725.699 619.421 724.866V723.949Z" fill="black"/>
<path d="M619.422 723.949C620.159 725.312 620.801 726.379 622.022 727.377C621.018 726.914 620.091 725.698 619.422 724.865V723.949Z" fill="#FA1E5A"/>
<path d="M596.68 653.477C609.222 648.896 607.676 669.556 596.68 662.039C593.774 659.039 593.763 656.422 596.68 653.477Z" fill="black"/>
<path d="M625.705 665.406C635.427 664.044 644.429 670.647 645.743 680.107C647.057 689.567 640.182 698.253 630.435 699.445C620.813 700.621 612.012 694.042 610.714 684.703C609.415 675.364 616.107 666.752 625.705 665.406Z" fill="black"/>
<path d="M626.628 673.006C631.892 672.072 636.95 675.421 637.983 680.522C639.016 685.622 635.64 690.584 630.405 691.657C626.955 692.366 623.378 691.213 621.046 688.642C618.715 686.071 617.988 682.479 619.143 679.242C620.299 676.004 623.159 673.621 626.628 673.006Z" fill="#F8B516"/>
<path d="M657.436 686.352C665.794 685.546 668.554 692.715 662.295 697.433C654.751 698.874 651.607 690.395 657.436 686.352Z" fill="black"/>
<path d="M644.497 643.527C652.242 643.162 656.186 650.485 648.992 654.316C640.899 656.995 639.511 647.84 644.497 643.527Z" fill="black"/>
<path d="M201.23 703.769C200.666 701.126 199.275 698.409 196.586 697.269C190.242 694.581 191.227 708.913 177.742 702.087C161.236 693.732 168.993 672.363 186.741 671.181C191.163 670.885 198.012 672.444 200.496 667.541C203.949 660.724 199.53 661.251 194.832 659.089C183.532 653.893 195.89 627.735 211.751 635.898C221.361 641.215 222.756 651.346 226.356 653.284C235.992 658.476 232.912 632.878 252.212 643.025C261.467 647.891 264.651 658.308 259.288 667.125C256.217 672.173 250.142 675.174 247.972 680.568C245.8 681.427 243.81 682.223 241.921 683.593C239.926 676.621 238.589 670.268 231.497 666.393C215.232 657.502 194.121 674.345 206.247 694.755C207.989 696.42 210.108 697.878 211.751 699.579C217.871 701.95 223.109 701.318 229.289 699.579C227.068 707.746 227.375 716.579 231.958 723.949C227.904 727.079 222.66 730.631 217.531 731.726C209.442 732.828 202.285 729.318 199.28 721.816C195.918 713.428 198.048 710.836 201.23 703.769Z" fill="#FF0046"/>
<path d="M201.23 703.769C200.666 701.126 199.275 698.409 196.586 697.269C190.242 694.581 191.227 708.913 177.742 702.087C161.236 693.732 168.993 672.363 186.741 671.181C191.163 670.885 198.012 672.444 200.496 667.541C203.949 660.724 199.53 661.251 194.832 659.089C183.532 653.893 195.89 627.735 211.751 635.898C188.254 643.065 207.896 659.094 203.127 668.791C200.227 674.688 181.481 674.582 182.69 683.362L182.84 683.593C187.986 685.57 189.398 689.871 184.576 693.511C187.696 694.618 203.342 695.634 206.247 694.755C207.989 696.42 210.108 697.878 211.751 699.579C217.871 701.95 223.109 701.318 229.289 699.579C227.068 707.746 227.375 716.579 231.958 723.949C227.904 727.079 222.66 730.631 217.531 731.726C209.442 732.828 202.285 729.318 199.28 721.816C195.918 713.428 198.048 710.836 201.23 703.769Z" fill="#FF0046"/>
<path d="M212.645 720.58C207.003 717.206 207.365 703.767 211.751 699.579C217.871 701.95 223.109 701.318 229.289 699.579C227.069 707.746 227.375 716.579 231.958 723.949C227.904 727.079 222.66 730.631 217.531 731.727C216.566 730.79 216.599 728.321 217.531 727.377C214.702 725.957 213.136 723.625 212.645 720.58Z" fill="#FA1E5A"/>
<path d="M212.645 720.579C216.411 713.53 226.638 720.844 217.531 727.377C214.702 725.957 213.136 723.625 212.645 720.579Z" fill="black"/>
<path d="M182.84 683.593C187.986 685.571 189.399 689.872 184.576 693.511C178.179 692.207 176.251 685.838 182.84 683.593Z" fill="black"/>
<path d="M344.185 671.168C348.397 663.891 332.134 659.134 337.572 648.613C340.239 643.453 346.413 641.256 351.699 644.264C356.49 646.99 360.676 658.121 366.022 649.168C369.012 644.159 370.628 637.956 377.21 636.098C385.352 633.8 392.51 645.351 390.717 652.094C389.878 655.252 385.577 660.126 389.394 662.844C394.089 666.189 405.077 658.966 407.278 668.5C412.029 689.086 387.115 683.782 384.855 686.99C381.34 691.98 390.701 704.946 376.893 708.306C371.928 709.514 365.132 708.107 363.695 702.682C362.315 699.588 361.364 693.706 357.848 692.24C354.532 690.858 348.536 698.171 336.493 692.931C324.09 687.536 333.628 674.289 344.185 671.168Z" fill="#E600F7"/>
<path d="M363.695 702.682C362.315 699.588 361.364 693.706 357.848 692.239C354.532 690.858 348.536 698.171 336.493 692.931C324.09 687.536 333.628 674.289 344.185 671.167C346.825 689.498 366.897 684.03 368.534 694.919C369.033 698.237 366.402 701.048 363.695 702.682Z" fill="#E600F7"/>
<path d="M369.265 657.685C377.501 656.528 385.14 662.085 386.316 670.091C387.491 678.096 381.758 685.508 373.517 686.637C365.3 687.761 357.695 682.208 356.522 674.223C355.349 666.239 361.051 658.839 369.265 657.685Z" fill="black"/>
<path d="M371.932 666.63C379.104 667.66 378.849 677.302 371.932 677.89C362.847 676.863 363.259 668.011 371.932 666.63Z" fill="#F8B516"/>
<path d="M462.185 598.501C462.145 591.476 470.537 587.097 476.871 586.501C483.081 587.504 487.792 590.033 490.396 595.66C500.935 599.056 503.844 602.798 517.576 605.791C513.26 608.255 508.181 609.809 503.273 608.272C500.74 617.408 506.277 614.111 516.029 613.895C504.107 635.605 494.015 613.272 487.876 621.613C486.644 623.286 486.863 625.258 488.15 626.738C489.077 628.041 488.394 630.505 488.15 632.048C487.343 639.331 482.856 644.351 475.391 645.47C466.161 645.274 457.336 638.625 458.142 628.972C459.059 617.992 457.744 622.398 447.103 621.571C430.234 620.258 426.388 596.921 443.102 592.181H445.573C449.057 591.346 451.733 591.252 455.202 592.181C456.925 594.812 459.472 596.888 462.185 598.501Z" fill="#FF0046"/>
<path d="M462.185 598.501C462.145 591.476 470.537 587.097 476.871 586.501C483.081 587.504 487.792 590.033 490.396 595.66C497.814 615.887 473.117 625.142 462.185 608.272C461.081 604.77 461.473 602.005 462.185 598.501Z" fill="black"/>
<path d="M475.391 595.66C482.973 596.075 485.52 604.911 478.616 608.272C468.58 608.486 467.292 599.476 475.391 595.66Z" fill="#FDD402"/>
<path d="M488.15 626.738C489.077 628.041 488.394 630.505 488.15 632.048C487.343 639.331 482.856 644.351 475.391 645.471C472.786 640.659 467.581 632.047 475.391 629.039C479.447 626.705 483.618 626.86 488.15 626.738Z" fill="#FF0046"/>
<path d="M488.15 626.738C489.077 628.041 488.394 630.505 488.15 632.048C486.29 629.658 478.369 629.248 475.391 629.039C479.447 626.705 483.618 626.86 488.15 626.738Z" fill="#FA1E5A"/>
<path d="M445.573 592.181C449.057 591.346 451.733 591.252 455.202 592.181C456.925 594.812 459.472 596.888 462.185 598.501C461.473 602.005 461.08 604.77 462.185 608.272C459.232 609.098 454.062 608.52 450.987 608.272C448.396 606.799 446.994 605.517 445.573 602.916C445.744 599.373 445.734 595.725 445.573 592.181Z" fill="#FF0046"/>
<path d="M443.102 592.181H445.573C445.734 595.725 445.744 599.373 445.573 602.916C443.155 599.323 443.115 596.325 443.102 592.181Z" fill="#FA1E5A"/>
<path d="M349.438 939.855C357.634 938.127 356.901 932.71 362.28 928.053C367.874 923.209 376.985 923.336 381.889 928.875C384.355 932.259 385.509 939.099 390.372 939.908C394.17 940.54 403.893 931.001 412.783 941.784C417 946.897 416.249 953.575 415.406 959.637H349.438H330.658C325.175 953.386 324.943 942.425 333.2 938.16C339.951 934.673 342.97 937.82 348.988 939.718L349.438 939.855Z" fill="#0ED261"/>
<path d="M349.438 939.855C357.634 938.127 356.901 932.71 362.28 928.053C367.874 923.209 376.985 923.336 381.889 928.875C364.933 930.825 369.65 941.695 357.314 945.158C349.204 947.434 348.63 952.281 349.438 959.637H330.658C325.175 953.386 324.943 942.425 333.2 938.16C339.951 934.673 342.97 937.82 348.988 939.718L349.438 939.855Z" fill="#076317"/>
<path d="M432.71 959.637C431.482 951.444 431.322 940.303 441.6 937.639C447.765 936.043 450.197 939.997 454.872 939.565C459.94 939.099 468.441 913.922 484.782 927.239C492.566 931.16 490.503 943.383 498.679 941.089C504.431 939.475 507.983 934.822 514.491 938.23C523.506 942.954 523.353 956.951 512.342 959.151C503.843 960.848 464.28 960.122 453.836 959.637C446.801 959.537 439.746 959.633 432.71 959.637Z" fill="#0ED261"/>
<path d="M432.71 959.637C431.482 951.444 431.322 940.303 441.6 937.639C447.765 936.043 450.197 939.997 454.872 939.565C459.94 939.099 468.441 913.922 484.782 927.239C469.961 929.6 472.873 937.507 464.199 943.332C459.742 946.326 449.78 945.879 450.964 953.485C451.294 955.596 451.911 958.38 453.836 959.637C446.801 959.537 439.746 959.633 432.71 959.637Z" fill="#076317"/>
<path d="M455.202 592.18C467.26 590.179 454.028 580.216 453.497 577.897C450.463 564.667 468.752 554.956 481.495 562.979C480.727 569.405 480.63 581.298 476.871 586.501C470.537 587.097 462.145 591.476 462.185 598.501C459.472 596.888 456.925 594.812 455.202 592.18Z" fill="#FF0046"/>
<path d="M467.398 562.979C474.7 562.6 474.05 571.282 467.398 573.684C457.766 572.91 459.907 565.22 467.398 562.979Z" fill="black"/>
<path d="M481.494 562.979C486.622 568.763 489.371 574.232 490.038 581.85C491.484 598.367 501.186 580.017 513.771 592.888C516.426 595.603 522.607 602.815 517.576 605.791C503.844 602.798 500.935 599.056 490.396 595.66C487.792 590.033 483.081 587.504 476.871 586.501C480.63 581.298 480.727 569.405 481.494 562.979Z" fill="#FF0046"/>
<path d="M299.844 668.54C307.296 667.305 316.428 668.683 323.9 669.733C322.332 672.418 320.813 675.08 319.483 677.89C308.414 676.278 296.182 675.111 285.79 679.928C281.994 679.994 278.142 682.11 274.746 683.593C271.464 682.527 268.333 681.278 265.168 679.928C275.539 671.235 286.458 668.935 299.844 668.54Z" fill="#C77705"/>
<path d="M220.147 674.722C224.746 673.951 229.11 676.972 229.864 681.448C230.618 685.925 227.473 690.139 222.861 690.835C218.303 691.522 214.027 688.51 213.282 684.086C212.537 679.662 215.601 675.482 220.147 674.722Z" fill="#FDD402"/>
<path d="M427.302 567.903C429.649 568.205 431.996 568.019 434.352 567.903C435.059 572.105 435.8 576.281 436.719 580.444C434.74 581.591 432.885 582.853 431.019 584.167L426.203 588.012C425.984 581.285 426.728 574.599 427.302 567.903Z" fill="#F8B516"/>
</svg>
