<svg width="849" height="1183" viewBox="0 0 849 1183" fill="none" xmlns="http://www.w3.org/2000/svg">
<rect x="5" y="5" width="839" height="1173" rx="45" fill="white"/>
<rect x="5" y="5" width="839" height="1173" rx="45" stroke="black" stroke-width="10"/>
<circle cx="786.5" cy="1124.5" r="11.5" fill="black"/>
<circle cx="786.5" cy="59.5" r="11.5" fill="black"/>
<path d="M77 1124.5C77 1130.85 71.8513 1136 65.5 1136C59.1487 1136 54 1130.85 54 1124.5C54 1118.15 59.1487 1113 65.5 1113C71.8513 1113 77 1118.15 77 1124.5Z" fill="black"/>
<path d="M77 59.5C77 65.8513 71.8513 71 65.5 71C59.1487 71 54 65.8513 54 59.5C54 53.1487 59.1487 48 65.5 48C71.8513 48 77 53.1487 77 59.5Z" fill="black"/>
<mask id="path-6-inside-1_97_31" fill="white">
<path d="M708 48C713.523 48 717.934 52.4996 718.616 57.9801C723.122 94.1833 751.817 122.878 788.02 127.384C793.5 128.066 798 132.477 798 138V1046C798 1051.52 793.5 1055.93 788.02 1056.62C751.817 1061.12 723.122 1089.82 718.616 1126.02C717.934 1131.5 713.523 1136 708 1136H141C135.477 1136 131.066 1131.5 130.384 1126.02C125.878 1089.82 97.1833 1061.12 60.9801 1056.62C55.4996 1055.93 51 1051.52 51 1046V138C51 132.477 55.4996 128.066 60.9801 127.384C97.1833 122.878 125.878 94.1833 130.384 57.9801C131.066 52.4996 135.477 48 141 48H708Z"/>
</mask>
<path d="M708 48C713.523 48 717.934 52.4996 718.616 57.9801C723.122 94.1833 751.817 122.878 788.02 127.384C793.5 128.066 798 132.477 798 138V1046C798 1051.52 793.5 1055.93 788.02 1056.62C751.817 1061.12 723.122 1089.82 718.616 1126.02C717.934 1131.5 713.523 1136 708 1136H141C135.477 1136 131.066 1131.5 130.384 1126.02C125.878 1089.82 97.1833 1061.12 60.9801 1056.62C55.4996 1055.93 51 1051.52 51 1046V138C51 132.477 55.4996 128.066 60.9801 127.384C97.1833 122.878 125.878 94.1833 130.384 57.9801C131.066 52.4996 135.477 48 141 48H708Z" fill="#0089CB"/>
<path d="M130.384 1126.02L138.322 1125.03L130.384 1126.02ZM718.616 1126.02L710.678 1125.03L718.616 1126.02ZM788.02 1056.62L789.008 1064.56L788.02 1056.62ZM718.616 57.9801L726.555 56.9922L718.616 57.9801ZM718.616 57.9801L710.678 58.9681C715.635 98.8063 747.194 130.365 787.032 135.322L788.02 127.384L789.008 119.445C756.44 115.392 730.608 89.5603 726.555 56.9922L718.616 57.9801ZM798 138H790V1046H798H806V138H798ZM788.02 1056.62L787.032 1048.68C747.194 1053.64 715.635 1085.19 710.678 1125.03L718.616 1126.02L726.555 1127.01C730.608 1094.44 756.44 1068.61 789.008 1064.56L788.02 1056.62ZM708 1136V1128H141V1136V1144H708V1136ZM130.384 1126.02L138.322 1125.03C133.365 1085.19 101.806 1053.64 61.9681 1048.68L60.9801 1056.62L59.9922 1064.56C92.5603 1068.61 118.392 1094.44 122.445 1127.01L130.384 1126.02ZM51 1046H59V138H51H43V1046H51ZM60.9801 127.384L61.9681 135.322C101.806 130.365 133.365 98.8063 138.322 58.9681L130.384 57.9801L122.445 56.9922C118.392 89.5603 92.5603 115.392 59.9922 119.445L60.9801 127.384ZM141 48V56H708V48V40H141V48ZM130.384 57.9801L138.322 58.9681C138.438 58.0389 138.872 57.2306 139.427 56.6958C139.954 56.1887 140.494 56 141 56V48V40C130.84 40 123.547 48.1329 122.445 56.9922L130.384 57.9801ZM51 138H59C59 137.494 59.1887 136.954 59.6958 136.427C60.2306 135.872 61.0389 135.438 61.9681 135.322L60.9801 127.384L59.9922 119.445C51.1329 120.547 43 127.84 43 138H51ZM60.9801 1056.62L61.9681 1048.68C61.0389 1048.56 60.2306 1048.13 59.6958 1047.57C59.1887 1047.05 59 1046.51 59 1046H51H43C43 1056.16 51.1329 1063.45 59.9922 1064.56L60.9801 1056.62ZM141 1136V1128C140.494 1128 139.954 1127.81 139.427 1127.3C138.872 1126.77 138.438 1125.96 138.322 1125.03L130.384 1126.02L122.445 1127.01C123.547 1135.87 130.84 1144 141 1144V1136ZM718.616 1126.02L710.678 1125.03C710.562 1125.96 710.128 1126.77 709.573 1127.3C709.046 1127.81 708.506 1128 708 1128V1136V1144C718.16 1144 725.453 1135.87 726.555 1127.01L718.616 1126.02ZM798 1046H790C790 1046.51 789.811 1047.05 789.304 1047.57C788.769 1048.13 787.961 1048.56 787.032 1048.68L788.02 1056.62L789.008 1064.56C797.867 1063.45 806 1056.16 806 1046H798ZM788.02 127.384L787.032 135.322C787.961 135.438 788.769 135.872 789.304 136.427C789.811 136.954 790 137.494 790 138H798H806C806 127.84 797.867 120.547 789.008 119.445L788.02 127.384ZM718.616 57.9801L726.555 56.9922C725.453 48.1329 718.16 40 708 40V48V56C708.506 56 709.046 56.1887 709.573 56.6958C710.128 57.2306 710.562 58.0389 710.678 58.9681L718.616 57.9801Z" fill="black" mask="url(#path-6-inside-1_97_31)"/>
<path d="M690 102C695.523 102 699.911 106.512 700.837 111.957C705.019 136.563 724.437 155.981 749.043 160.163C754.488 161.089 759 165.477 759 171V1014C759 1019.52 754.488 1023.91 749.043 1024.84C724.711 1028.97 705.454 1048 700.984 1072.22C699.993 1077.59 695.633 1082 690.175 1082H158.825C153.367 1082 149.007 1077.59 148.016 1072.22C143.546 1048 124.288 1028.97 99.9568 1024.84C94.5121 1023.91 90 1019.52 90 1014V171C90 165.477 94.512 161.089 99.9568 160.163C124.563 155.981 143.981 136.563 148.163 111.957C149.089 106.512 153.477 102 159 102H690Z" fill="#4BADDC"/>
<path d="M389.14 348.925V356.83H364.065V374.255H383.615V382.16H364.065V408H354.375V348.925H389.14ZM407.81 367.965C409.227 365.585 411.097 363.743 413.42 362.44C415.8 361.08 418.605 360.4 421.835 360.4V370.43H419.37C415.573 370.43 412.683 371.393 410.7 373.32C408.773 375.247 407.81 378.59 407.81 383.35V408H398.12V361.165H407.81V367.965ZM440.432 361.165V408H430.742V361.165H440.432ZM444.342 348.585L425.557 357.85V350.71L444.342 340.34V348.585ZM473.469 408.765C469.049 408.765 465.054 407.773 461.484 405.79C457.914 403.75 455.109 400.917 453.069 397.29C451.029 393.607 450.009 389.357 450.009 384.54C450.009 379.78 451.058 375.558 453.154 371.875C455.251 368.192 458.113 365.358 461.739 363.375C465.366 361.392 469.418 360.4 473.894 360.4C478.371 360.4 482.423 361.392 486.049 363.375C489.676 365.358 492.538 368.192 494.634 371.875C496.731 375.558 497.779 379.78 497.779 384.54C497.779 389.3 496.703 393.522 494.549 397.205C492.396 400.888 489.449 403.75 485.709 405.79C482.026 407.773 477.946 408.765 473.469 408.765ZM473.469 400.35C475.963 400.35 478.286 399.755 480.439 398.565C482.649 397.375 484.434 395.59 485.794 393.21C487.154 390.83 487.834 387.94 487.834 384.54C487.834 381.14 487.183 378.278 485.879 375.955C484.576 373.575 482.848 371.79 480.694 370.6C478.541 369.41 476.218 368.815 473.724 368.815C471.231 368.815 468.908 369.41 466.754 370.6C464.658 371.79 462.986 373.575 461.739 375.955C460.493 378.278 459.869 381.14 459.869 384.54C459.869 389.583 461.144 393.493 463.694 396.27C466.301 398.99 469.559 400.35 473.469 400.35Z" fill="black"/>
<mask id="path-10-outside-2_97_31" maskUnits="userSpaceOnUse" x="401" y="1006" width="47" height="32" fill="black">
<rect fill="white" x="401" y="1006" width="47" height="32"/>
<path d="M402.32 1015.04C402.48 1012.56 403.427 1010.63 405.16 1009.24C406.92 1007.85 409.16 1007.16 411.88 1007.16C413.747 1007.16 415.36 1007.49 416.72 1008.16C418.08 1008.83 419.107 1009.73 419.8 1010.88C420.493 1012.03 420.84 1013.32 420.84 1014.76C420.84 1016.41 420.4 1017.83 419.52 1019C418.64 1020.17 417.587 1020.96 416.36 1021.36V1021.52C417.933 1022 419.16 1022.88 420.04 1024.16C420.92 1025.41 421.36 1027.03 421.36 1029C421.36 1030.57 421 1031.97 420.28 1033.2C419.56 1034.43 418.493 1035.4 417.08 1036.12C415.667 1036.81 413.973 1037.16 412 1037.16C409.12 1037.16 406.747 1036.43 404.88 1034.96C403.04 1033.47 402.053 1031.33 401.92 1028.56H406.32C406.427 1029.97 406.973 1031.13 407.96 1032.04C408.947 1032.92 410.28 1033.36 411.96 1033.36C413.587 1033.36 414.84 1032.92 415.72 1032.04C416.6 1031.13 417.04 1029.97 417.04 1028.56C417.04 1026.69 416.44 1025.37 415.24 1024.6C414.067 1023.8 412.253 1023.4 409.8 1023.4H408.76V1019.64H409.84C412 1019.61 413.64 1019.25 414.76 1018.56C415.907 1017.87 416.48 1016.77 416.48 1015.28C416.48 1014 416.067 1012.99 415.24 1012.24C414.413 1011.47 413.24 1011.08 411.72 1011.08C410.227 1011.08 409.067 1011.47 408.24 1012.24C407.413 1012.99 406.92 1013.92 406.76 1015.04H402.32ZM426.15 1022.04C426.15 1017.43 426.923 1013.83 428.47 1011.24C430.043 1008.63 432.737 1007.32 436.55 1007.32C440.363 1007.32 443.043 1008.63 444.59 1011.24C446.163 1013.83 446.95 1017.43 446.95 1022.04C446.95 1026.71 446.163 1030.36 444.59 1033C443.043 1035.61 440.363 1036.92 436.55 1036.92C432.737 1036.92 430.043 1035.61 428.47 1033C426.923 1030.36 426.15 1026.71 426.15 1022.04ZM442.47 1022.04C442.47 1019.88 442.323 1018.05 442.03 1016.56C441.763 1015.07 441.203 1013.85 440.35 1012.92C439.497 1011.96 438.23 1011.48 436.55 1011.48C434.87 1011.48 433.603 1011.96 432.75 1012.92C431.897 1013.85 431.323 1015.07 431.03 1016.56C430.763 1018.05 430.63 1019.88 430.63 1022.04C430.63 1024.28 430.763 1026.16 431.03 1027.68C431.297 1029.2 431.857 1030.43 432.71 1031.36C433.59 1032.29 434.87 1032.76 436.55 1032.76C438.23 1032.76 439.497 1032.29 440.35 1031.36C441.23 1030.43 441.803 1029.2 442.07 1027.68C442.337 1026.16 442.47 1024.28 442.47 1022.04Z"/>
</mask>
<path d="M402.32 1015.04C402.48 1012.56 403.427 1010.63 405.16 1009.24C406.92 1007.85 409.16 1007.16 411.88 1007.16C413.747 1007.16 415.36 1007.49 416.72 1008.16C418.08 1008.83 419.107 1009.73 419.8 1010.88C420.493 1012.03 420.84 1013.32 420.84 1014.76C420.84 1016.41 420.4 1017.83 419.52 1019C418.64 1020.17 417.587 1020.96 416.36 1021.36V1021.52C417.933 1022 419.16 1022.88 420.04 1024.16C420.92 1025.41 421.36 1027.03 421.36 1029C421.36 1030.57 421 1031.97 420.28 1033.2C419.56 1034.43 418.493 1035.4 417.08 1036.12C415.667 1036.81 413.973 1037.16 412 1037.16C409.12 1037.16 406.747 1036.43 404.88 1034.96C403.04 1033.47 402.053 1031.33 401.92 1028.56H406.32C406.427 1029.97 406.973 1031.13 407.96 1032.04C408.947 1032.92 410.28 1033.36 411.96 1033.36C413.587 1033.36 414.84 1032.92 415.72 1032.04C416.6 1031.13 417.04 1029.97 417.04 1028.56C417.04 1026.69 416.44 1025.37 415.24 1024.6C414.067 1023.8 412.253 1023.4 409.8 1023.4H408.76V1019.64H409.84C412 1019.61 413.64 1019.25 414.76 1018.56C415.907 1017.87 416.48 1016.77 416.48 1015.28C416.48 1014 416.067 1012.99 415.24 1012.24C414.413 1011.47 413.24 1011.08 411.72 1011.08C410.227 1011.08 409.067 1011.47 408.24 1012.24C407.413 1012.99 406.92 1013.92 406.76 1015.04H402.32ZM426.15 1022.04C426.15 1017.43 426.923 1013.83 428.47 1011.24C430.043 1008.63 432.737 1007.32 436.55 1007.32C440.363 1007.32 443.043 1008.63 444.59 1011.24C446.163 1013.83 446.95 1017.43 446.95 1022.04C446.95 1026.71 446.163 1030.36 444.59 1033C443.043 1035.61 440.363 1036.92 436.55 1036.92C432.737 1036.92 430.043 1035.61 428.47 1033C426.923 1030.36 426.15 1026.71 426.15 1022.04ZM442.47 1022.04C442.47 1019.88 442.323 1018.05 442.03 1016.56C441.763 1015.07 441.203 1013.85 440.35 1012.92C439.497 1011.96 438.23 1011.48 436.55 1011.48C434.87 1011.48 433.603 1011.96 432.75 1012.92C431.897 1013.85 431.323 1015.07 431.03 1016.56C430.763 1018.05 430.63 1019.88 430.63 1022.04C430.63 1024.28 430.763 1026.16 431.03 1027.68C431.297 1029.2 431.857 1030.43 432.71 1031.36C433.59 1032.29 434.87 1032.76 436.55 1032.76C438.23 1032.76 439.497 1032.29 440.35 1031.36C441.23 1030.43 441.803 1029.2 442.07 1027.68C442.337 1026.16 442.47 1024.28 442.47 1022.04Z" fill="black"/>
<path d="M402.32 1015.04L402.021 1015.02L402 1015.34H402.32V1015.04ZM405.16 1009.24L404.974 1009L404.973 1009.01L405.16 1009.24ZM416.72 1008.16L416.588 1008.43L416.72 1008.16ZM419.8 1010.88L420.057 1010.72L419.8 1010.88ZM419.52 1019L419.76 1019.18V1019.18L419.52 1019ZM416.36 1021.36L416.267 1021.07L416.06 1021.14V1021.36H416.36ZM416.36 1021.52H416.06V1021.74L416.272 1021.81L416.36 1021.52ZM420.04 1024.16L419.793 1024.33L419.794 1024.33L420.04 1024.16ZM420.28 1033.2L420.021 1033.05L420.28 1033.2ZM417.08 1036.12L417.212 1036.39L417.216 1036.39L417.08 1036.12ZM404.88 1034.96L404.691 1035.19L404.695 1035.2L404.88 1034.96ZM401.92 1028.56V1028.26H401.605L401.62 1028.57L401.92 1028.56ZM406.32 1028.56L406.619 1028.54L406.598 1028.26H406.32V1028.56ZM407.96 1032.04L407.757 1032.26L407.76 1032.26L407.96 1032.04ZM415.72 1032.04L415.932 1032.25L415.935 1032.25L415.72 1032.04ZM415.24 1024.6L415.071 1024.85L415.077 1024.85L415.24 1024.6ZM408.76 1023.4H408.46V1023.7H408.76V1023.4ZM408.76 1019.64V1019.34H408.46V1019.64H408.76ZM409.84 1019.64V1019.94L409.844 1019.94L409.84 1019.64ZM414.76 1018.56L414.605 1018.3L414.602 1018.3L414.76 1018.56ZM415.24 1012.24L415.035 1012.46L415.039 1012.46L415.24 1012.24ZM408.24 1012.24L408.441 1012.46L408.445 1012.46L408.24 1012.24ZM406.76 1015.04V1015.34H407.02L407.057 1015.08L406.76 1015.04ZM402.32 1015.04L402.619 1015.06C402.775 1012.65 403.688 1010.8 405.347 1009.47L405.16 1009.24L404.973 1009.01C403.165 1010.45 402.185 1012.47 402.021 1015.02L402.32 1015.04ZM405.16 1009.24L405.346 1009.48C407.042 1008.14 409.213 1007.46 411.88 1007.46V1007.16V1006.86C409.108 1006.86 406.798 1007.57 404.974 1009L405.16 1009.24ZM411.88 1007.16V1007.46C413.711 1007.46 415.277 1007.79 416.588 1008.43L416.72 1008.16L416.852 1007.89C415.443 1007.2 413.782 1006.86 411.88 1006.86V1007.16ZM416.72 1008.16L416.588 1008.43C417.903 1009.07 418.883 1009.94 419.543 1011.04L419.8 1010.88L420.057 1010.72C419.33 1009.52 418.257 1008.58 416.852 1007.89L416.72 1008.16ZM419.8 1010.88L419.543 1011.04C420.206 1012.13 420.54 1013.37 420.54 1014.76H420.84H421.14C421.14 1013.27 420.78 1011.92 420.057 1010.72L419.8 1010.88ZM420.84 1014.76H420.54C420.54 1016.36 420.116 1017.71 419.28 1018.82L419.52 1019L419.76 1019.18C420.684 1017.95 421.14 1016.47 421.14 1014.76H420.84ZM419.52 1019L419.28 1018.82C418.432 1019.95 417.427 1020.7 416.267 1021.07L416.36 1021.36L416.453 1021.65C417.746 1021.22 418.848 1020.4 419.76 1019.18L419.52 1019ZM416.36 1021.36H416.06V1021.52H416.36H416.66V1021.36H416.36ZM416.36 1021.52L416.272 1021.81C417.785 1022.27 418.954 1023.11 419.793 1024.33L420.04 1024.16L420.287 1023.99C419.366 1022.65 418.082 1021.73 416.448 1021.23L416.36 1021.52ZM420.04 1024.16L419.794 1024.33C420.63 1025.52 421.06 1027.07 421.06 1029H421.36H421.66C421.66 1026.98 421.21 1025.3 420.286 1023.99L420.04 1024.16ZM421.36 1029H421.06C421.06 1030.53 420.711 1031.87 420.021 1033.05L420.28 1033.2L420.539 1033.35C421.289 1032.07 421.66 1030.62 421.66 1029H421.36ZM420.28 1033.2L420.021 1033.05C419.334 1034.22 418.312 1035.16 416.944 1035.85L417.08 1036.12L417.216 1036.39C418.674 1035.64 419.786 1034.63 420.539 1033.35L420.28 1033.2ZM417.08 1036.12L416.948 1035.85C415.585 1036.52 413.939 1036.86 412 1036.86V1037.16V1037.46C414.008 1037.46 415.749 1037.11 417.212 1036.39L417.08 1036.12ZM412 1037.16V1036.86C409.172 1036.86 406.869 1036.14 405.065 1034.72L404.88 1034.96L404.695 1035.2C406.625 1036.71 409.068 1037.46 412 1037.46V1037.16ZM404.88 1034.96L405.069 1034.73C403.307 1033.3 402.35 1031.25 402.22 1028.55L401.92 1028.56L401.62 1028.57C401.757 1031.42 402.773 1033.64 404.691 1035.19L404.88 1034.96ZM401.92 1028.56V1028.86H406.32V1028.56V1028.26H401.92V1028.56ZM406.32 1028.56L406.021 1028.58C406.133 1030.07 406.711 1031.3 407.757 1032.26L407.96 1032.04L408.163 1031.82C407.236 1030.97 406.72 1029.88 406.619 1028.54L406.32 1028.56ZM407.96 1032.04L407.76 1032.26C408.816 1033.21 410.227 1033.66 411.96 1033.66V1033.36V1033.06C410.333 1033.06 409.078 1032.63 408.16 1031.82L407.96 1032.04ZM411.96 1033.36V1033.66C413.641 1033.66 414.98 1033.2 415.932 1032.25L415.72 1032.04L415.508 1031.83C414.7 1032.64 413.533 1033.06 411.96 1033.06V1033.36ZM415.72 1032.04L415.935 1032.25C416.876 1031.28 417.34 1030.04 417.34 1028.56H417.04H416.74C416.74 1029.91 416.324 1030.99 415.505 1031.83L415.72 1032.04ZM417.04 1028.56H417.34C417.34 1026.63 416.714 1025.19 415.403 1024.35L415.24 1024.6L415.077 1024.85C416.166 1025.55 416.74 1026.76 416.74 1028.56H417.04ZM415.24 1024.6L415.409 1024.35C414.161 1023.5 412.275 1023.1 409.8 1023.1V1023.4V1023.7C412.232 1023.7 413.972 1024.1 415.071 1024.85L415.24 1024.6ZM409.8 1023.4V1023.1H408.76V1023.4V1023.7H409.8V1023.4ZM408.76 1023.4H409.06V1019.64H408.76H408.46V1023.4H408.76ZM408.76 1019.64V1019.94H409.84V1019.64V1019.34H408.76V1019.64ZM409.84 1019.64L409.844 1019.94C412.027 1019.91 413.731 1019.55 414.918 1018.82L414.76 1018.56L414.602 1018.3C413.549 1018.96 411.973 1019.31 409.836 1019.34L409.84 1019.64ZM414.76 1018.56L414.915 1018.82C416.163 1018.06 416.78 1016.86 416.78 1015.28H416.48H416.18C416.18 1016.68 415.65 1017.67 414.605 1018.3L414.76 1018.56ZM416.48 1015.28H416.78C416.78 1013.93 416.34 1012.83 415.441 1012.02L415.24 1012.24L415.039 1012.46C415.793 1013.14 416.18 1014.07 416.18 1015.28H416.48ZM415.24 1012.24L415.445 1012.02C414.546 1011.18 413.289 1010.78 411.72 1010.78V1011.08V1011.38C413.191 1011.38 414.281 1011.75 415.035 1012.46L415.24 1012.24ZM411.72 1011.08V1010.78C410.176 1010.78 408.933 1011.18 408.035 1012.02L408.24 1012.24L408.445 1012.46C409.2 1011.75 410.278 1011.38 411.72 1011.38V1011.08ZM408.24 1012.24L408.039 1012.02C407.159 1012.81 406.633 1013.81 406.463 1015L406.76 1015.04L407.057 1015.08C407.207 1014.03 407.667 1013.16 408.441 1012.46L408.24 1012.24ZM406.76 1015.04V1014.74H402.32V1015.04V1015.34H406.76V1015.04ZM428.47 1011.24L428.213 1011.09L428.213 1011.09L428.47 1011.24ZM444.59 1011.24L444.332 1011.39L444.334 1011.4L444.59 1011.24ZM444.59 1033L444.332 1032.85L444.332 1032.85L444.59 1033ZM428.47 1033L428.211 1033.15L428.213 1033.15L428.47 1033ZM442.03 1016.56L441.735 1016.61L441.736 1016.62L442.03 1016.56ZM440.35 1012.92L440.126 1013.12L440.129 1013.12L440.35 1012.92ZM432.75 1012.92L432.971 1013.12L432.974 1013.12L432.75 1012.92ZM431.03 1016.56L430.736 1016.5L430.735 1016.51L431.03 1016.56ZM431.03 1027.68L431.325 1027.63L431.03 1027.68ZM432.71 1031.36L432.489 1031.56L432.492 1031.57L432.71 1031.36ZM440.35 1031.36L440.132 1031.15L440.129 1031.16L440.35 1031.36ZM442.07 1027.68L442.365 1027.73L442.07 1027.68ZM426.15 1022.04H426.45C426.45 1017.45 427.22 1013.92 428.727 1011.39L428.47 1011.24L428.213 1011.09C426.627 1013.74 425.85 1017.4 425.85 1022.04H426.15ZM428.47 1011.24L428.727 1011.39C430.232 1008.89 432.811 1007.62 436.55 1007.62V1007.32V1007.02C432.662 1007.02 429.855 1008.36 428.213 1011.09L428.47 1011.24ZM436.55 1007.32V1007.62C440.289 1007.62 442.853 1008.89 444.332 1011.39L444.59 1011.24L444.848 1011.09C443.233 1008.36 440.438 1007.02 436.55 1007.02V1007.32ZM444.59 1011.24L444.334 1011.4C445.867 1013.92 446.65 1017.46 446.65 1022.04H446.95H447.25C447.25 1017.4 446.459 1013.74 444.846 1011.08L444.59 1011.24ZM446.95 1022.04H446.65C446.65 1026.68 445.867 1030.27 444.332 1032.85L444.59 1033L444.848 1033.15C446.46 1030.45 447.25 1026.73 447.25 1022.04H446.95ZM444.59 1033L444.332 1032.85C442.853 1035.35 440.289 1036.62 436.55 1036.62V1036.92V1037.22C440.438 1037.22 443.233 1035.88 444.848 1033.15L444.59 1033ZM436.55 1036.92V1036.62C432.811 1036.62 430.232 1035.35 428.727 1032.85L428.47 1033L428.213 1033.15C429.855 1035.88 432.662 1037.22 436.55 1037.22V1036.92ZM428.47 1033L428.729 1032.85C427.22 1030.27 426.45 1026.68 426.45 1022.04H426.15H425.85C425.85 1026.73 426.627 1030.45 428.211 1033.15L428.47 1033ZM442.47 1022.04H442.77C442.77 1019.87 442.623 1018.02 442.324 1016.5L442.03 1016.56L441.736 1016.62C442.024 1018.09 442.17 1019.89 442.17 1022.04H442.47ZM442.03 1016.56L442.325 1016.51C442.051 1014.97 441.47 1013.7 440.571 1012.72L440.35 1012.92L440.129 1013.12C440.937 1014.01 441.476 1015.16 441.735 1016.61L442.03 1016.56ZM440.35 1012.92L440.574 1012.72C439.648 1011.68 438.288 1011.18 436.55 1011.18V1011.48V1011.78C438.172 1011.78 439.346 1012.24 440.126 1013.12L440.35 1012.92ZM436.55 1011.48V1011.18C434.812 1011.18 433.452 1011.68 432.526 1012.72L432.75 1012.92L432.974 1013.12C433.754 1012.24 434.928 1011.78 436.55 1011.78V1011.48ZM432.75 1012.92L432.529 1012.72C431.631 1013.7 431.037 1014.97 430.736 1016.5L431.03 1016.56L431.324 1016.62C431.609 1015.17 432.162 1014.01 432.971 1013.12L432.75 1012.92ZM431.03 1016.56L430.735 1016.51C430.464 1018.02 430.33 1019.87 430.33 1022.04H430.63H430.93C430.93 1019.89 431.063 1018.08 431.325 1016.61L431.03 1016.56ZM430.63 1022.04H430.33C430.33 1024.29 430.464 1026.19 430.735 1027.73L431.03 1027.68L431.325 1027.63C431.063 1026.13 430.93 1024.27 430.93 1022.04H430.63ZM431.03 1027.68L430.735 1027.73C431.009 1029.3 431.589 1030.58 432.489 1031.56L432.71 1031.36L432.931 1031.16C432.124 1030.27 431.584 1029.1 431.325 1027.63L431.03 1027.68ZM432.71 1031.36L432.492 1031.57C433.445 1032.58 434.814 1033.06 436.55 1033.06V1032.76V1032.46C434.926 1032.46 433.735 1032.01 432.928 1031.15L432.71 1031.36ZM436.55 1032.76V1033.06C438.285 1033.06 439.644 1032.58 440.571 1031.56L440.35 1031.36L440.129 1031.16C439.349 1032.01 438.175 1032.46 436.55 1032.46V1032.76ZM440.35 1031.36L440.568 1031.57C441.496 1030.58 442.091 1029.3 442.365 1027.73L442.07 1027.68L441.775 1027.63C441.516 1029.1 440.964 1030.27 440.132 1031.15L440.35 1031.36ZM442.07 1027.68L442.365 1027.73C442.636 1026.19 442.77 1024.29 442.77 1022.04H442.47H442.17C442.17 1024.27 442.037 1026.13 441.775 1027.63L442.07 1027.68Z" fill="black" mask="url(#path-10-outside-2_97_31)"/>
<path d="M303.36 234.83C303.36 227.55 304.865 221.075 307.875 215.405C310.955 209.665 315.295 205.22 320.895 202.07C326.495 198.85 332.935 197.24 340.215 197.24C349.455 197.24 357.225 199.725 363.525 204.695C369.825 209.595 373.885 216.28 375.705 224.75H353.55C352.22 221.95 350.365 219.815 347.985 218.345C345.675 216.875 342.98 216.14 339.9 216.14C335.14 216.14 331.325 217.855 328.455 221.285C325.655 224.645 324.255 229.16 324.255 234.83C324.255 240.57 325.655 245.155 328.455 248.585C331.325 251.945 335.14 253.625 339.9 253.625C342.98 253.625 345.675 252.89 347.985 251.42C350.365 249.95 352.22 247.815 353.55 245.015H375.705C373.885 253.485 369.825 260.205 363.525 265.175C357.225 270.075 349.455 272.525 340.215 272.525C332.935 272.525 326.495 270.95 320.895 267.8C315.295 264.58 310.955 260.135 307.875 254.465C304.865 248.725 303.36 242.18 303.36 234.83ZM412.855 272.735C406.975 272.735 401.69 271.51 397 269.06C392.38 266.61 388.74 263.11 386.08 258.56C383.42 254.01 382.09 248.655 382.09 242.495C382.09 236.405 383.42 231.085 386.08 226.535C388.81 221.985 392.485 218.485 397.105 216.035C401.795 213.585 407.08 212.36 412.96 212.36C418.84 212.36 424.09 213.585 428.71 216.035C433.4 218.485 437.075 221.985 439.735 226.535C442.465 231.085 443.83 236.405 443.83 242.495C443.83 248.585 442.465 253.94 439.735 258.56C437.075 263.11 433.4 266.61 428.71 269.06C424.02 271.51 418.735 272.735 412.855 272.735ZM412.855 254.885C415.725 254.885 418.105 253.835 419.995 251.735C421.955 249.565 422.935 246.485 422.935 242.495C422.935 238.505 421.955 235.46 419.995 233.36C418.105 231.26 415.76 230.21 412.96 230.21C410.16 230.21 407.815 231.26 405.925 233.36C404.035 235.46 403.09 238.505 403.09 242.495C403.09 246.555 404 249.635 405.82 251.735C407.64 253.835 409.985 254.885 412.855 254.885ZM472.783 194.3V272H452.203V194.3H472.783ZM481.143 242.495C481.143 236.405 482.228 231.085 484.398 226.535C486.638 221.985 489.683 218.485 493.533 216.035C497.383 213.585 501.653 212.36 506.343 212.36C510.123 212.36 513.483 213.165 516.423 214.775C519.433 216.315 521.778 218.45 523.458 221.18V194.3H544.143V272H523.458V263.81C521.848 266.54 519.573 268.71 516.633 270.32C513.693 271.93 510.228 272.735 506.238 272.735C501.548 272.735 497.278 271.51 493.428 269.06C489.648 266.61 486.638 263.11 484.398 258.56C482.228 253.94 481.143 248.585 481.143 242.495ZM523.563 242.495C523.563 238.715 522.513 235.74 520.413 233.57C518.383 231.4 515.863 230.315 512.853 230.315C509.773 230.315 507.218 231.4 505.188 233.57C503.158 235.67 502.143 238.645 502.143 242.495C502.143 246.275 503.158 249.285 505.188 251.525C507.218 253.695 509.773 254.78 512.853 254.78C515.863 254.78 518.383 253.695 520.413 251.525C522.513 249.355 523.563 246.345 523.563 242.495Z" fill="black"/>
<path d="M410.869 442.285C416.634 441.506 423.176 442.456 428.846 443.543C441.394 445.948 453.89 449.62 466.286 452.752L531.455 469.129L592.712 484.331C604.121 487.128 615.873 489.473 627.08 492.935C638.041 496.32 647.117 502.545 652.526 512.944C655.685 519.017 657.079 525.334 657.509 532.105C658.48 547.432 657.711 563.181 657.711 578.559L657.699 667.48L657.677 790.146L657.669 829.199C657.666 841.974 659.146 860.477 655.287 872.365C651.762 883.226 644.396 890.527 634.382 895.669C625.114 900.421 615.076 904.102 605.443 908.085L557.827 927.802L481.028 959.461C468.664 964.57 456.416 970.125 443.932 974.921C442.077 975.629 439.149 977.112 437.233 976.492C435.552 977.964 432.517 978.277 430.365 978.508C423.723 979.228 416.831 978.283 410.453 976.415C400.267 973.432 390.161 968.96 380.202 965.23L323.239 944.03L252.678 917.765C240.324 913.194 227.613 909.118 215.491 903.987C211.582 902.333 207.952 900.421 204.64 897.729C197.708 892.098 192.237 883.462 191.384 874.436C190.736 867.575 191.103 860.471 191.107 853.577L191.131 816.967L191.087 699.034L191.06 590.593L191.052 557.391C191.059 549.786 190.789 542.023 191.666 534.46C192.52 527.098 195.898 519.903 200.671 514.27C205.018 509.139 210.614 504.734 216.799 502.023C226.814 497.634 237.955 494.732 248.386 491.429L304.082 473.884L368.583 453.591C381.742 449.495 397.213 443.427 410.869 442.285Z" fill="#070416"/>
<path d="M204.861 547.169C204.826 544.783 204.767 542.383 204.845 539.998C205.104 532.035 207.923 525.043 213.817 519.588C217.203 516.454 221.173 514.304 225.473 512.676C235.874 508.736 246.773 505.797 257.407 502.556C273.296 497.727 289.153 492.792 304.975 487.749L369.261 467.412C380.415 463.888 391.593 459.874 402.898 456.927C407.228 455.799 411.626 455.066 416.116 455.28C427.626 455.827 444.711 461.257 456.443 464.181L533.252 483.458L593.511 498.346C603.782 500.855 614.629 502.764 624.628 506.152C629.465 507.789 633.895 510.427 637.317 514.252C644.633 522.427 644.729 532.404 644.177 542.716L644.124 816.67C641.46 813.856 639.076 810.364 636.807 807.207C636.289 764.673 636.713 722.09 636.69 679.551L636.722 648.571C636.736 641.415 637.251 633.784 635.917 626.73C634.328 618.122 630.127 610.212 623.886 604.072C615.879 596.079 604.986 591.653 593.672 591.793C582.239 592.102 571.407 596.976 563.596 605.328C557.935 611.309 554.157 618.599 552.747 626.709C551.456 634.139 552.02 642.055 552.038 649.585L552.042 682.006L551.972 805.677C540.064 821.523 533.753 835.344 536.612 855.648C537.518 862.082 542 877.118 546.945 881.133C547.023 881.199 547.113 881.249 547.196 881.304C544.128 884.078 527.428 883.814 522.905 883.584C520.126 883.441 513.987 883.452 512.057 881.474C511.553 881.754 511.241 881.908 510.649 881.881C508.032 881.754 502.061 881.101 500.266 879.156C497.856 880.194 491.805 878.513 489.135 878.134C486.189 877.716 483.499 877.546 480.529 877.727C477.078 877.931 464.777 880.436 462.676 879.683C462.559 879.639 462.448 879.584 462.334 879.535C460.258 881.1 455.095 881.199 452.462 880.793C451.862 880.699 451.357 880.441 450.847 880.128C443.536 883.661 424.964 872.591 417.678 869.806C413.916 868.372 410.151 867.476 406.127 867.224C391.92 866.328 380.804 873.717 367.674 877.497C362.383 879.024 344.022 883.133 339.504 880.645L338.66 880.683C338.072 880.787 337.477 880.853 336.88 880.831C334.594 880.727 330.486 880.436 328.886 878.617C328.265 878.903 327.663 878.887 327.007 878.749C324.16 878.145 321.134 876.585 318.436 875.486C312.624 873.124 306.861 870.657 300.836 868.877C296.726 867.663 292.907 867.026 288.629 866.894C269.518 866.306 245.568 880.293 232.034 878.832C227.6 879.711 221.021 876.931 217.371 874.453C209.443 869.075 207.033 860.439 205.359 851.528C205.292 852.539 205.133 853.478 204.91 854.467C204.766 845.54 205.174 836.525 205.182 827.583L205.093 750.9L204.841 614.358C204.845 591.971 204.541 569.553 204.861 547.169Z" fill="#070416"/>
<path d="M204.861 547.169C204.827 544.783 204.767 542.383 204.845 539.998C205.105 532.035 207.924 525.043 213.817 519.588C217.203 516.454 221.174 514.304 225.473 512.676C235.874 508.736 246.773 505.797 257.408 502.556C273.297 497.727 289.153 492.792 304.975 487.749L369.261 467.412C380.416 463.888 391.593 459.874 402.898 456.927C407.228 455.799 411.627 455.066 416.116 455.28C427.626 455.827 444.712 461.257 456.443 464.181L533.252 483.458L593.512 498.346C603.783 500.855 614.629 502.764 624.629 506.152C629.465 507.789 633.895 510.427 637.318 514.252C644.633 522.427 644.729 532.404 644.177 542.716C642.735 536.283 640.955 525.088 634.868 521.315C633.219 520.292 631.324 519.884 629.418 520.344C622.212 522.083 614.683 525.662 607.722 528.277L563.809 544.763L515.952 562.649C508.894 565.296 499.881 567.899 493.341 571.378C489.069 568.781 484.33 567.6 480.536 564.2C467.094 550.907 449.484 541.952 431.775 535.771C394.627 522.806 355.479 523.172 319.847 540.411C314.394 543.35 309.029 546.41 303.884 549.865C290.112 545.068 275.59 541.573 261.548 537.523C249.946 534.176 237.062 529.566 225.221 527.56C223.112 527.203 221.166 527.248 219.121 527.91C212.483 530.062 209.172 535.274 206.927 541.557C206.288 543.346 205.852 545.276 204.975 546.961C204.938 547.031 204.899 547.1 204.861 547.169Z" fill="#61C7F3"/>
<path d="M204.861 547.169C204.827 544.783 204.767 542.383 204.845 539.998C205.105 532.035 207.924 525.043 213.817 519.588C217.203 516.454 221.174 514.304 225.473 512.676C235.874 508.736 246.773 505.797 257.408 502.556C273.297 497.727 289.153 492.792 304.975 487.749L369.261 467.412C380.416 463.888 391.593 459.874 402.898 456.927C407.228 455.799 411.627 455.066 416.116 455.28C427.626 455.827 444.712 461.257 456.443 464.181L533.252 483.458L593.512 498.346C603.783 500.855 614.629 502.764 624.629 506.152C629.465 507.789 633.895 510.427 637.318 514.252C644.633 522.427 644.729 532.404 644.177 542.716C642.735 536.283 640.955 525.088 634.868 521.315C633.219 520.292 631.324 519.884 629.418 520.344C622.212 522.083 614.683 525.662 607.722 528.277L563.809 544.763L515.952 562.649C508.894 565.296 499.881 567.899 493.341 571.378C489.069 568.781 484.33 567.6 480.536 564.2C490.387 560.601 500.309 557.232 510.116 553.434C525.513 547.471 540.731 540.992 556.077 534.892C564.586 531.538 573.076 528.137 581.547 524.689C585.203 523.21 589.265 521.927 592.749 520.108C593.873 519.522 595.022 518.529 595.676 517.443C596.273 516.452 596.312 515.709 596.091 514.604C595.266 513.499 594.288 512.844 593.079 512.228C585.526 508.385 572.132 506.056 563.686 503.999L518.512 492.911L455.803 477.317C444.763 474.622 432.946 470.785 421.615 470.063C415.191 469.654 408.988 470.267 402.726 471.72C394.745 473.571 386.988 476.543 379.215 479.121L346.603 489.652L299.975 504.443C288.966 507.82 277.781 510.897 266.89 514.6C264.318 515.474 261.463 516.728 260.313 519.388C259.924 520.286 259.972 521.072 260.405 521.945C260.858 522.858 261.45 523.47 262.367 523.921C267.83 526.607 274.664 527.866 280.548 529.508C293.633 533.159 306.831 536.535 319.847 540.411C314.394 543.35 309.029 546.41 303.884 549.865C290.112 545.068 275.59 541.573 261.548 537.523C249.946 534.176 237.062 529.566 225.221 527.56C223.112 527.203 221.166 527.248 219.121 527.91C212.483 530.062 209.172 535.274 206.927 541.557C206.288 543.346 205.852 545.276 204.975 546.961C204.938 547.031 204.899 547.1 204.861 547.169Z" fill="#FEFEF5"/>
<path d="M443.854 493.823C448.865 493.315 453.361 496.908 453.969 501.907C454.578 506.905 451.074 511.471 446.088 512.179C442.772 512.649 439.461 511.291 437.431 508.629C435.4 505.966 434.968 502.415 436.301 499.343C437.633 496.272 440.523 494.16 443.854 493.823Z" fill="#FEFEF5"/>
<path d="M360.645 500.79C364.558 500.669 367.836 503.726 367.985 507.637C368.134 511.548 365.1 514.847 361.189 515.024C357.238 515.203 353.898 512.132 353.747 508.181C353.596 504.23 356.692 500.913 360.645 500.79Z" fill="#FEFEF5"/>
<path d="M498.887 521.042C500.979 520.278 503.32 520.7 505.013 522.147C506.706 523.593 507.489 525.838 507.061 528.023C506.633 530.208 505.062 531.993 502.948 532.694C499.747 533.756 496.286 532.052 495.176 528.868C494.067 525.684 495.719 522.198 498.887 521.042Z" fill="#FEFEF5"/>
<path d="M464.133 524.35C465.29 524.059 466.516 524.414 467.338 525.279C468.16 526.145 468.451 527.387 468.099 528.528C467.748 529.669 466.808 530.531 465.641 530.784C463.878 531.166 462.134 530.065 461.723 528.308C461.311 526.553 462.384 524.791 464.133 524.35Z" fill="#FEFEF5"/>
<path d="M204.861 547.169C204.899 547.1 204.937 547.03 204.974 546.961C205.852 545.276 206.287 543.346 206.927 541.556C209.171 535.274 212.483 530.062 219.12 527.91C221.166 527.248 223.112 527.203 225.221 527.56C237.061 529.565 249.946 534.176 261.547 537.522C275.59 541.572 290.112 545.068 303.883 549.865C289.782 560.044 265.683 579.505 262.771 597.789C262.179 601.505 262.917 605.004 265.182 608.032C268.369 612.295 273.529 614.652 278.469 616.223C274.298 622.495 271.996 629.392 273.483 636.962C274.912 644.238 279.646 650.157 285.743 654.183C287.648 655.442 289.644 656.483 291.709 657.452L291.683 663.601C283.073 665.477 275.879 669.386 270.998 676.96C266.646 683.741 265.162 691.97 266.87 699.843C268.493 707.117 272.968 713.435 279.293 717.38C283.151 719.768 287.421 720.968 291.871 721.666C294.455 740.283 305.145 758.566 320.134 769.879C325.49 773.922 331.08 776.969 337.112 779.879C321.989 780.312 308.005 776.859 296.75 766.175C292.327 761.977 289.216 757.175 286.405 751.813C288.266 745.494 290.351 737.548 287.053 731.363C285.654 728.739 283.379 726.954 280.531 726.129C277.256 725.18 273.822 725.567 270.548 726.302C267.68 718.29 263.228 711.421 255.328 707.615C248.779 704.439 241.226 704.037 234.376 706.501C226.406 709.358 220.026 715.916 216.547 723.551C210.858 736.038 212.839 750.859 217.616 763.297C229.156 793.347 252.252 820.909 281.962 834.069C294.969 839.832 309.769 843.793 324.003 844.633C325.871 844.743 328.584 845.078 330.297 844.381C330.411 844.331 330.521 844.276 330.633 844.221C330.019 855.67 328.883 867.146 328.886 878.617C328.265 878.903 327.663 878.886 327.007 878.749C324.16 878.145 321.134 876.585 318.436 875.486C312.624 873.124 306.861 870.657 300.836 868.877C296.726 867.663 292.907 867.026 288.629 866.894C269.518 866.306 245.568 880.293 232.034 878.831C227.6 879.71 221.021 876.931 217.371 874.453C209.443 869.075 207.033 860.439 205.359 851.528C205.292 852.539 205.133 853.478 204.91 854.467C204.766 845.54 205.174 836.525 205.182 827.583L205.093 750.899L204.841 614.358C204.845 591.97 204.541 569.553 204.861 547.169Z" fill="#61C7F3"/>
<path d="M235.994 625.655C238.796 624.713 241.89 625.359 244.079 627.344C246.27 629.33 247.215 632.344 246.549 635.225C245.885 638.105 243.714 640.4 240.874 641.225C236.609 642.464 232.136 640.066 230.808 635.829C229.481 631.592 231.785 627.071 235.994 625.655Z" fill="#FEFEF5"/>
<path d="M241.046 565.944C245.128 564.647 249.487 566.906 250.78 570.987C252.073 575.069 249.808 579.425 245.724 580.712C241.647 581.998 237.299 579.738 236.008 575.664C234.717 571.589 236.972 567.239 241.046 565.944Z" fill="#FEFEF5"/>
<path d="M244.903 834.124C248.756 832.97 252.816 835.151 253.981 839.002C255.146 842.853 252.978 846.919 249.133 848.094C245.267 849.281 241.176 847.1 240.005 843.232C238.834 839.365 241.03 835.278 244.903 834.124Z" fill="#FEFEF5"/>
<path d="M253.323 659.419C256.062 659.024 258.608 660.907 259.031 663.641C259.454 666.376 257.596 668.941 254.866 669.392C253.075 669.688 251.263 668.999 250.121 667.588C248.978 666.177 248.682 664.262 249.344 662.572C250.007 660.881 251.526 659.678 253.323 659.419Z" fill="#FEFEF5"/>
<path d="M493.341 571.378C499.881 567.899 508.894 565.296 515.952 562.649L563.809 544.763L607.721 528.277C614.682 525.662 622.211 522.083 629.418 520.344C631.324 519.884 633.219 520.292 634.868 521.315C640.955 525.088 642.735 536.283 644.177 542.716L644.124 816.67C641.46 813.855 639.076 810.364 636.807 807.207C636.289 764.673 636.713 722.09 636.69 679.551L636.722 648.571C636.737 641.414 637.251 633.784 635.917 626.73C634.328 618.122 630.127 610.212 623.886 604.072C615.879 596.079 604.986 591.653 593.672 591.793C582.239 592.102 571.407 596.976 563.596 605.328C557.935 611.309 554.157 618.599 552.748 626.709C551.456 634.139 552.02 642.055 552.038 649.585L552.042 682.006L551.972 805.677C540.064 821.522 533.753 835.344 536.612 855.648C537.518 862.081 542 877.118 546.945 881.133C547.023 881.199 547.113 881.249 547.196 881.304C544.128 884.078 527.428 883.814 522.906 883.584C520.126 883.441 513.987 883.452 512.057 881.474C513.551 874.563 511.436 843.919 510.221 836.344C506.04 810.304 493.154 788.18 471.693 772.704C487.864 759.278 498.475 743.877 504.363 723.589C506.72 723.572 509.061 723.553 511.385 723.107C519.043 721.61 525.778 717.101 530.078 710.591C534.408 704.068 535.903 696.067 534.22 688.421C532.373 679.866 527.131 673.626 519.936 668.965C525.855 652.394 527.811 633.705 524.058 616.416C519.941 597.454 509.696 581.917 493.341 571.378Z" fill="#61C7F3"/>
<path d="M578.405 557.684C582.404 556.703 586.445 559.131 587.454 563.122C588.463 567.113 586.062 571.169 582.077 572.205C578.054 573.252 573.948 570.823 572.929 566.793C571.91 562.763 574.368 558.675 578.405 557.684Z" fill="#FEFEF5"/>
<path d="M529.182 743.493C533.197 743.387 536.578 746.471 536.839 750.478C537.1 754.485 534.149 757.982 530.154 758.398C527.429 758.682 524.767 757.452 523.216 755.194C521.666 752.936 521.475 750.011 522.719 747.57C523.963 745.13 526.443 743.565 529.182 743.493Z" fill="#FEFEF5"/>
<path d="M542.032 584.431C545.241 583.702 548.429 585.724 549.137 588.936C549.845 592.148 547.802 595.323 544.585 596.009C541.397 596.689 538.258 594.67 537.557 591.488C536.855 588.306 538.854 585.154 542.032 584.431Z" fill="#FEFEF5"/>
<path d="M509.236 780.131C510.891 779.492 512.763 779.827 514.092 781.001C515.421 782.175 515.984 783.992 515.552 785.711C515.121 787.431 513.766 788.766 512.04 789.174C509.613 789.748 507.155 788.344 506.416 785.962C505.677 783.579 506.91 781.031 509.236 780.131Z" fill="#FEFEF5"/>
<path d="M522.173 806.109C523.884 805.417 525.836 806.205 526.585 807.891C527.335 809.577 526.614 811.554 524.953 812.36C523.829 812.907 522.495 812.796 521.475 812.072C520.455 811.349 519.912 810.126 520.057 808.884C520.202 807.642 521.013 806.578 522.173 806.109Z" fill="#FEFEF5"/>
<path d="M239.933 780.477C253.437 776.129 267.33 770.633 279.842 763.932C285.949 773.241 293.95 780.484 304.075 785.242C317.64 791.617 332.611 793.237 346.849 788.12C351.602 792.252 369.881 795.073 376.514 795.853C400.548 798.678 444.733 797.5 464.323 782.035C484.125 796.417 494.824 815.43 498.673 839.491C500.247 849.33 501.671 869.245 500.266 879.155C497.856 880.194 491.806 878.513 489.135 878.133C486.189 877.716 483.499 877.546 480.529 877.727C477.078 877.93 464.777 880.435 462.677 879.683C462.56 879.639 462.448 879.584 462.334 879.534C460.258 881.1 455.095 881.199 452.462 880.792C451.862 880.699 451.358 880.441 450.847 880.128C443.536 883.66 424.964 872.59 417.678 869.805C413.916 868.371 410.151 867.476 406.127 867.223C391.92 866.328 380.804 873.717 367.674 877.496C362.383 879.023 344.022 883.133 339.504 880.644C339.445 875.661 339.92 870.629 340.237 865.657C340.796 856.252 341.498 846.858 342.341 837.475C342.944 831.267 343.901 825.043 344.335 818.826C344.411 817.74 344.589 816.172 344.067 815.177C343.518 814.111 342.535 813.334 341.372 813.046C340.145 812.755 338.95 812.994 337.923 813.712C333.092 817.089 332.555 827.986 331.645 833.47C324.656 833.322 317.695 832.547 310.843 831.163C279.382 824.585 257.3 806.946 239.933 780.477Z" fill="#FE750A"/>
<path d="M450.847 880.128C451.285 869.234 451.243 857.878 450.077 847.051C449.443 841.156 447.916 835.234 447.607 829.33C447.531 827.869 447.522 826.365 448.439 825.139C449.391 823.864 450.736 823.056 452.333 822.937C453.661 822.838 454.759 823.25 455.748 824.135C462.816 830.465 461.978 868.349 462.334 879.534C460.259 881.1 455.096 881.199 452.462 880.792C451.862 880.699 451.358 880.441 450.847 880.128Z" fill="#070416"/>
<path d="M459.42 778.655L464.323 782.035C444.734 797.5 400.549 798.678 376.515 795.853C369.882 795.074 351.602 792.252 346.85 788.12C348.93 787.181 350.822 785.961 352.749 784.749C382.386 794.739 431.09 792.263 459.42 778.655Z" fill="#FD6234"/>
<path d="M382.317 642.196C382.923 647.309 383.663 652.576 387.942 656.041C391.034 658.546 394.969 659 398.808 658.517C414.811 656.501 435.576 642.539 445.858 630.451C455.229 651.743 469.778 673.286 492.415 682.043C493.341 682.395 494.28 682.712 495.231 682.991C498.951 679.984 502.193 677.248 507.228 677.193C511.055 677.151 514.958 678.633 517.685 681.368C520.926 684.618 522.967 689.297 522.929 693.902C522.891 698.615 521.465 703.411 518.018 706.765C511.527 713.082 505.788 710.894 497.997 710.925C497.361 710.928 496.769 711.02 496.167 711.235C493.646 712.136 493.163 717.263 492.656 719.604C489.691 733.293 483.404 745.581 473.513 755.583C454.739 774.568 425.931 778.697 400.445 778.873C373.467 779.06 341.924 775.409 321.814 755.462C304.546 738.335 303.497 718.326 303.397 695.358L303.3 665.798L303.272 660.397C329.203 665.042 359.772 657.789 381.351 642.882C381.676 642.657 381.998 642.429 382.317 642.196Z" fill="#FEC290"/>
<path d="M382.317 642.196C382.923 647.309 383.663 652.576 387.942 656.041C391.034 658.546 394.969 659 398.808 658.517C414.811 656.501 435.576 642.539 445.858 630.451C455.229 651.743 469.778 673.286 492.415 682.043C493.341 682.395 494.28 682.712 495.231 682.991C494.587 683.729 493.889 684.62 492.994 685.054C491.48 685.788 489.658 685.538 488.108 685.057C467.334 678.606 453.995 656.784 444.282 638.814C434.454 647.643 422.669 656.209 410.199 660.847C403.36 663.392 394.802 665.256 387.901 662.008C383.028 659.714 380.725 655.628 378.932 650.771C355.293 664.818 330.425 669.308 303.3 665.798L303.272 660.397C329.203 665.042 359.772 657.789 381.351 642.882C381.676 642.657 381.998 642.429 382.317 642.196Z" fill="#FEA76A"/>
<path d="M452.897 703.338C461.605 701.727 469.977 707.464 471.614 716.165C473.251 724.867 467.537 733.252 458.839 734.915C450.103 736.585 441.673 730.844 440.028 722.105C438.384 713.367 444.151 704.956 452.897 703.338Z" fill="#FD6234"/>
<path d="M325.726 703.513C334.254 701.631 342.698 706.996 344.617 715.513C346.536 724.031 341.207 732.497 332.696 734.452C324.132 736.42 315.6 731.052 313.67 722.482C311.739 713.912 317.145 705.405 325.726 703.513Z" fill="#FD6234"/>
<path d="M417.52 723.479C418.991 723.538 420.547 723.989 421.725 724.887C422.636 725.581 423.246 726.576 423.383 727.72C423.667 730.093 422.352 732.449 420.905 734.232C414.987 741.521 405.038 746.097 395.813 746.979C383.92 748.115 373.155 744.649 363.938 737.054C362.759 735.901 361.474 734.726 360.651 733.279C359.676 731.567 359.167 728.893 359.75 726.97C360.068 725.92 360.711 725.124 361.71 724.651C363.041 724.02 365.143 723.941 366.5 724.512C370.418 726.163 373.447 731.913 381.331 734.6C389.318 737.322 402.469 736.596 409.135 730.889C411.831 728.582 413.889 725.186 417.135 723.656L417.52 723.479Z" fill="#070416"/>
<path d="M435.421 674.982C436.595 675.06 437.774 675.297 438.853 675.78C441.517 676.972 443.399 679.612 444.277 682.323C445.669 686.619 445.442 692.405 443.275 696.419C441.592 699.536 439.461 700.828 436.127 701.803C434.408 701.575 432.876 701.298 431.37 700.367C428.692 698.71 426.994 695.989 426.279 692.959C425.278 688.718 425.755 683.474 428.147 679.757C429.974 676.917 432.175 675.686 435.421 674.982Z" fill="#070416"/>
<path d="M341.638 675.406C343.266 675.225 344.841 675.091 346.426 675.646C348.958 676.532 350.949 678.55 352.112 680.927C354.049 684.885 354.125 690.464 352.684 694.59C351.461 698.092 349.664 699.893 346.363 701.468C344.932 701.668 343.653 701.761 342.23 701.375C339.652 700.675 337.624 698.941 336.345 696.626C334.182 692.711 333.953 687.028 335.275 682.81C336.424 679.144 338.276 677.153 341.638 675.406Z" fill="#070416"/>
<path d="M375.049 700.854C382.402 701.77 379.172 706.788 383.635 709.571C390.593 713.911 391.272 705.902 396.281 705.058C397.56 704.843 398.817 705.191 399.834 705.995C401.054 706.96 401.788 708.47 401.9 710.011C402.125 713.104 400.492 715.113 398.539 717.226C397.388 718.235 396.119 719.101 394.76 719.805C390.814 721.884 385.862 721.94 381.684 720.567C377.3 719.126 373.588 716.08 371.583 711.895C370.505 709.647 369.897 706.901 370.862 704.507C371.681 702.476 373.175 701.687 375.049 700.854Z" fill="#070416"/>
<path d="M275.418 601.878C274.385 600.145 274.338 598.907 274.802 596.991C278.211 582.951 305.465 562.258 317.595 555.045C347.535 537.242 381.389 535.693 414.667 544.15C431.111 548.328 448.542 554.724 462.408 564.703C467.179 568.136 471.211 572.619 476.059 575.876C479.097 577.917 482.82 579.134 486.049 580.882C493.457 584.891 499.765 592.085 504.002 599.267C508.373 606.678 512.153 616.357 512.718 625.009C515.898 635.227 511.892 655.242 508.889 665.303C503.222 665.492 499.01 666.934 494.147 669.762C476.227 660.365 463.583 643.737 456.538 625.011C455.136 621.285 454.636 615.807 451.715 612.952C450.791 612.049 449.461 611.314 448.131 611.437C444.837 611.741 441.673 617.795 439.828 620.238C431.994 630.607 412.48 644.582 399.372 646.301C397.935 646.489 396.144 646.533 394.968 645.562C389.57 641.108 400.649 625.992 399.728 620.509C399.574 619.59 399.155 618.775 398.37 618.247C396.222 616.803 393.96 617.184 391.951 618.618C387.665 621.675 384.022 626.147 379.86 629.518C367.156 639.804 350.864 646.18 334.809 648.656C322.849 650.5 301.24 651.374 291.044 643.771C287.578 641.187 285.277 637.439 284.718 633.129C283.371 622.747 293.19 618.275 298.375 611.316C298.957 610.534 299.246 609.644 299.046 608.668C298.207 604.58 286.608 605.838 283.129 605.198C280.079 604.637 277.943 603.648 275.418 601.878Z" fill="#A4511A"/>
<path d="M275.418 601.878C274.385 600.145 274.338 598.907 274.802 596.991C278.211 582.951 305.465 562.258 317.595 555.045C347.535 537.242 381.389 535.693 414.667 544.15C431.111 548.328 448.542 554.724 462.408 564.703C467.179 568.136 471.211 572.619 476.059 575.876C479.097 577.917 482.82 579.134 486.049 580.882C493.457 584.891 499.765 592.085 504.002 599.267C508.373 606.678 512.153 616.357 512.718 625.009C511.004 622.743 509.839 618.981 508.57 616.37C505.986 610.922 502.754 605.805 498.945 601.13C489.301 589.211 483.666 588.269 471.627 580.649C465.686 576.888 460.647 571.714 454.669 567.886C436.767 556.424 411.096 549.231 390.094 547.064C353.906 543.33 326.487 555.768 299.761 579.422C291.525 586.712 283.915 594.957 275.418 601.878Z" fill="#FEFEF5"/>
<path d="M240.072 717.016C244.034 716.717 247.765 716.789 251.349 718.737C260.072 723.476 259.339 732.235 261.966 740.358C262.44 741.823 263.397 743.795 264.915 744.391C269.526 746.201 272.309 737.795 275.977 736.383C276.634 736.13 276.619 736.288 277.201 736.566C278.711 740.553 275.531 749.395 274.032 753.245C270.046 755.45 265.755 757.149 261.577 758.959C252.458 762.909 243.335 766.576 233.719 769.143C230.979 764.163 228.542 758.967 226.884 753.521C224.243 744.846 223.456 734.665 227.935 726.437C230.681 721.394 234.665 718.642 240.072 717.016Z" fill="#FE060A"/>
<path d="M291.199 675.815C292.616 678.052 291.749 704.837 291.602 709.526C288.389 708.52 285.888 707.264 283.201 705.222C280.994 703.07 279.406 700.366 278.603 697.391C277.328 692.679 277.993 687.654 280.451 683.436C282.984 679.18 286.506 677.041 291.199 675.815Z" fill="#FEC290"/>
<path d="M204.91 854.467C205.133 853.478 205.292 852.539 205.359 851.528C207.033 860.439 209.443 869.075 217.371 874.453C221.021 876.93 227.6 879.71 232.034 878.831C245.568 880.293 269.518 866.306 288.629 866.894C292.907 867.025 296.726 867.663 300.836 868.877C306.861 870.657 312.624 873.123 318.436 875.486C321.134 876.584 324.16 878.145 327.007 878.749C327.663 878.886 328.265 878.903 328.886 878.617C330.486 880.435 334.594 880.727 336.88 880.831C337.478 880.853 338.072 880.787 338.66 880.683L339.504 880.644C344.022 883.133 362.383 879.024 367.674 877.496C380.804 873.717 391.92 866.328 406.127 867.223C410.151 867.476 413.916 868.371 417.678 869.805C424.964 872.59 443.536 883.66 450.847 880.128C451.357 880.441 451.862 880.699 452.462 880.792C455.095 881.199 460.258 881.1 462.334 879.534C462.448 879.584 462.56 879.639 462.677 879.683C464.777 880.435 477.078 877.93 480.529 877.727C483.499 877.546 486.189 877.716 489.135 878.134C491.805 878.513 497.856 880.194 500.266 879.155C502.061 881.1 508.032 881.754 510.649 881.88C511.241 881.908 511.553 881.754 512.057 881.474C513.987 883.451 520.126 883.44 522.906 883.583C527.428 883.814 544.128 884.078 547.196 881.303C549.276 884.962 557.185 893.801 561.125 895.158C561.291 895.213 561.471 895.213 561.645 895.241C562.499 896.092 563.434 896.691 564.463 897.306C567.976 899.41 577.095 904.481 580.846 903.542C580.166 904.168 579.518 904.679 578.673 905.069C570.825 908.684 562.526 911.656 554.525 914.935L503.873 935.778L460.242 953.852C452.6 957.039 444.922 960.692 437.115 963.422C433.329 964.741 429.35 965.416 425.342 965.433C421.827 965.422 418.336 964.873 414.989 963.801C405.265 960.741 395.639 956.775 386.07 953.243L331.876 933.306L259.007 906.47C246.308 901.762 233.349 897.389 220.853 892.181C217.644 890.84 213.616 889.148 211.192 886.649C202.803 878.013 204.774 865.465 204.91 854.467Z" fill="#FEFEF5"/>
<path d="M339.505 880.644C344.022 883.133 362.383 879.023 367.674 877.496C380.804 873.717 391.92 866.328 406.128 867.223C410.151 867.476 413.916 868.371 417.678 869.805C424.964 872.59 443.536 883.66 450.847 880.128C451.358 880.441 451.862 880.699 452.462 880.792C455.096 881.199 460.259 881.1 462.334 879.534C462.448 879.584 462.56 879.639 462.677 879.683C464.777 880.435 477.078 877.93 480.529 877.727C483.499 877.546 486.189 877.716 489.135 878.133C491.806 878.513 497.857 880.194 500.266 879.155C502.061 881.1 508.032 881.754 510.65 881.88C511.241 881.908 511.554 881.754 512.057 881.474C513.988 883.451 520.127 883.44 522.906 883.583C527.428 883.814 544.128 884.078 547.197 881.303C549.276 884.962 557.186 893.801 561.126 895.158C561.291 895.213 561.472 895.213 561.645 895.241C557.711 897.74 552.55 899.278 548.225 901.042L522.925 911.425L469.658 933.268C461.882 936.465 454.182 940.058 446.32 943.008C444.6 943.656 442.052 944.793 440.254 944.387C438.542 943.997 437.201 943.03 436.294 941.525C435.466 940.151 435.009 938.443 434.851 936.855C434.456 932.872 434.799 928.554 434.812 924.544L434.862 899.894C434.866 896.894 435.395 892.516 434.458 889.692C434.079 888.544 432.949 887.599 431.82 887.231C430.913 886.934 430.242 887.033 429.368 887.357C427.753 888.593 427.232 890.285 426.967 892.225C426.512 895.537 426.779 899.141 426.792 902.487L426.898 925.813C426.913 929.955 427.255 934.432 426.685 938.514C426.536 939.58 426.16 941.371 425.188 942.002C425.064 942.085 424.922 942.134 424.789 942.2C424.292 942.255 423.939 942.288 423.444 942.195C420.488 941.645 417.199 939.437 414.421 938.201C389.629 927.065 367.168 911.343 348.224 891.862C344.955 888.451 341.045 884.781 338.66 880.682L339.505 880.644Z" fill="#61C7F3"/>
<path d="M376.354 897.197C379.7 897.081 382.54 899.63 382.78 902.97C383.021 906.311 380.578 909.244 377.249 909.612C374.981 909.859 372.758 908.849 371.455 906.975C370.151 905.108 369.976 902.674 370.997 900.63C372.019 898.592 374.073 897.274 376.354 897.197Z" fill="#FEFEF5"/>
<path d="M232.035 878.831C245.568 880.293 269.518 866.306 288.629 866.894C292.908 867.025 296.727 867.663 300.836 868.877C306.862 870.657 312.624 873.123 318.436 875.486C321.135 876.584 324.161 878.145 327.008 878.749C327.663 878.886 328.265 878.903 328.886 878.617C330.487 880.435 334.595 880.727 336.88 880.831C337.478 880.853 338.072 880.787 338.66 880.683C341.046 884.781 344.955 888.451 348.224 891.862C367.168 911.343 389.629 927.065 414.421 938.201C417.199 939.437 420.488 941.646 423.444 942.195C423.939 942.288 424.292 942.255 424.79 942.2C424.274 943.596 423.535 944.436 422.267 945.233C419.711 946.837 416.555 947.139 413.651 946.458C405.191 944.464 396.655 940.657 388.501 937.602L349.895 923.308C311.847 909.156 273.442 895.713 235.592 881.073C234.178 880.523 232.863 880.183 232.035 878.831Z" fill="#A0E2F9" fill-opacity="0.376471"/>
<path d="M590.782 604.167C592.07 604.082 593.366 603.999 594.657 604C602.389 604.008 610.015 607.446 615.461 612.865C620.155 617.538 622.964 623.043 624.069 629.546C625.227 636.365 624.695 643.704 624.697 650.616L624.688 684.091L624.375 811.898C629.311 816.527 633.468 821.366 636.514 827.457C641.792 837.997 642.626 850.215 638.829 861.373C634.744 873.277 626.078 883.062 614.751 888.555C611.238 890.269 603.362 893.829 599.794 892.587C598.443 893.379 596.868 893.368 595.346 893.406C583.533 893.708 571.227 888.55 562.75 880.436C553.638 871.646 548.404 859.593 548.204 846.935C548.072 832.822 554.561 821.657 564.124 811.961L564.111 687.666L564.112 651.046C564.113 644.127 563.637 636.829 564.509 629.969C565.174 624.738 567.019 620.164 570.193 615.93C575.261 609.168 582.505 605.348 590.782 604.167Z" fill="#FEFEF5"/>
<path d="M588.805 665.226C588.8 660.598 587.593 645.883 590.822 642.686C591.889 641.629 593.505 640.899 595.026 640.984C596.147 641.047 597.001 641.568 597.697 642.433C600.76 646.238 599.928 654.201 599.894 658.85C603.052 658.794 611.013 657.743 613.504 659.874C614.258 660.519 614.58 661.338 614.563 662.322C614.55 663.082 614.09 663.846 613.501 664.302C610.451 666.664 603.507 665.416 599.889 665.459L599.873 683.461C603.118 683.407 611.161 682.363 613.684 684.613C614.397 685.249 614.59 686.085 614.538 687.009C614.475 688.113 613.635 688.759 612.847 689.407C609.107 690.65 603.917 689.902 599.935 690.075L599.92 707.49C603.153 707.436 610.962 706.434 613.516 708.63C614.188 709.207 614.629 710.049 614.579 710.954C614.525 711.942 613.872 712.727 613.066 713.236C609.947 715.204 603.385 714.023 599.777 714.095L599.683 732.16C603.727 732.014 610.29 730.914 613.794 733.26C614.358 734.18 614.736 734.672 614.486 735.812C614.317 736.581 613.663 737.544 612.968 737.928C610.368 739.366 602.924 738.468 599.79 738.476C599.679 743.134 599.742 747.771 599.857 752.428C603.196 752.377 610.989 751.395 613.663 753.569C614.346 754.125 614.585 754.717 614.616 755.568C614.65 756.469 614.198 757.288 613.569 757.909C611.208 760.242 603.02 758.957 599.756 759.031C599.788 763.406 599.704 767.818 599.914 772.187C603.296 772.177 611.125 771.144 613.669 773.551C614.308 774.156 614.546 774.879 614.743 775.712C614.422 776.844 614.281 777.085 613.245 777.685C611.79 778.528 610.363 778.676 609.333 780.134C608.862 781.589 609.472 815.022 609.466 820.191C616.36 824.426 621.421 830.542 623.324 838.514C625.158 846.205 624.072 854.912 619.798 861.625C615.587 868.24 608.67 872.755 601.053 874.431C592.973 876.244 584.502 874.717 577.563 870.201C571.094 866.009 566.628 859.351 565.208 851.775C563.699 844.007 565.041 835.591 569.554 829.01C572.242 825.09 575.721 822.278 579.787 819.89L579.791 791.647C578.254 791.624 576.811 791.727 575.413 791.002C574.679 790.211 574.125 789.324 574.137 788.197C574.148 787.215 574.651 786.469 575.44 785.92C578.181 784.012 584.951 784.935 588.305 785.034C588.137 782.666 588.211 780.551 589.705 778.6C588.741 777.762 588.762 777.556 588.677 776.28C588.507 773.719 588.712 771.02 588.767 768.452C585.926 768.46 577.276 769.411 575.317 767.558C574.371 766.662 574.13 765.701 574.147 764.444C574.708 763.28 575.124 762.691 576.443 762.249C580.069 761.034 584.834 761.856 588.623 761.817C588.725 756.189 588.737 750.559 588.657 744.931C584.754 745.01 578.039 746.022 574.759 743.589C574.223 742.649 573.913 742.149 574.23 741.013C574.498 740.051 575.432 738.99 576.37 738.64C579.413 737.506 585.23 738.287 588.594 738.277L588.858 719.943C586.154 719.933 577.37 720.822 575.509 719.203C574.589 718.402 574.224 717.273 574.084 716.107C574.5 715.026 574.678 714.56 575.791 714.009C579.21 712.315 585.016 713.359 588.781 713.261C588.662 707.339 588.616 701.415 588.643 695.492C585.941 695.516 577.227 696.445 575.358 694.681C574.468 693.84 574.159 692.688 574.121 691.51C574.702 690.327 575.118 689.782 576.465 689.344C580.018 688.19 584.919 688.831 588.619 688.908L588.664 671.976C585.614 672.026 577.238 672.99 574.967 670.691C574.329 670.045 574.158 669.444 574.218 668.562C574.275 667.706 574.802 666.609 575.471 666.055C577.754 664.163 585.694 665.396 588.805 665.226Z" fill="#070416"/>
<path d="M589.706 778.6C593.571 777.986 597.689 778.249 601.6 778.277L601.69 824.451C608.116 828.124 613.542 832.207 615.567 839.716C617.073 845.303 616.259 851.731 613.305 856.719C610.318 861.674 605.44 865.201 599.795 866.487C593.953 867.921 587.778 866.943 582.665 863.773C577.836 860.691 574.427 855.818 573.187 850.226C571.921 844.573 572.8 838.398 575.949 833.498C578.769 829.115 582.715 826.592 587.369 824.485C587.671 820.709 587.965 792.363 588.054 792.17C588.14 791.983 588.785 791.38 588.968 791.216C589.956 790.334 590.611 790.007 590.944 788.651C590.873 787.555 590.628 786.825 589.779 786.08C589.328 785.686 588.808 785.357 588.306 785.033C588.137 782.665 588.212 780.55 589.706 778.6Z" fill="#0590DE"/>
</svg>
