<svg width="849" height="1183" viewBox="0 0 849 1183" fill="none" xmlns="http://www.w3.org/2000/svg">
<rect x="5" y="5" width="839" height="1173" rx="45" fill="white"/>
<rect x="5" y="5" width="839" height="1173" rx="45" stroke="black" stroke-width="10"/>
<circle cx="786.5" cy="1124.5" r="11.5" fill="black"/>
<circle cx="786.5" cy="59.5" r="11.5" fill="black"/>
<path d="M77 1124.5C77 1130.85 71.8513 1136 65.5 1136C59.1487 1136 54 1130.85 54 1124.5C54 1118.15 59.1487 1113 65.5 1113C71.8513 1113 77 1118.15 77 1124.5Z" fill="black"/>
<path d="M77 59.5C77 65.8513 71.8513 71 65.5 71C59.1487 71 54 65.8513 54 59.5C54 53.1487 59.1487 48 65.5 48C71.8513 48 77 53.1487 77 59.5Z" fill="black"/>
<mask id="path-6-inside-1_97_15" fill="white">
<path d="M708 48C713.523 48 717.934 52.4996 718.616 57.9801C723.122 94.1833 751.817 122.878 788.02 127.384C793.5 128.066 798 132.477 798 138V1046C798 1051.52 793.5 1055.93 788.02 1056.62C751.817 1061.12 723.122 1089.82 718.616 1126.02C717.934 1131.5 713.523 1136 708 1136H141C135.477 1136 131.066 1131.5 130.384 1126.02C125.878 1089.82 97.1833 1061.12 60.9801 1056.62C55.4996 1055.93 51 1051.52 51 1046V138C51 132.477 55.4996 128.066 60.9801 127.384C97.1833 122.878 125.878 94.1833 130.384 57.9801C131.066 52.4996 135.477 48 141 48H708Z"/>
</mask>
<path d="M708 48C713.523 48 717.934 52.4996 718.616 57.9801C723.122 94.1833 751.817 122.878 788.02 127.384C793.5 128.066 798 132.477 798 138V1046C798 1051.52 793.5 1055.93 788.02 1056.62C751.817 1061.12 723.122 1089.82 718.616 1126.02C717.934 1131.5 713.523 1136 708 1136H141C135.477 1136 131.066 1131.5 130.384 1126.02C125.878 1089.82 97.1833 1061.12 60.9801 1056.62C55.4996 1055.93 51 1051.52 51 1046V138C51 132.477 55.4996 128.066 60.9801 127.384C97.1833 122.878 125.878 94.1833 130.384 57.9801C131.066 52.4996 135.477 48 141 48H708Z" fill="#C357B5"/>
<path d="M130.384 1126.02L138.322 1125.03L130.384 1126.02ZM718.616 1126.02L710.678 1125.03L718.616 1126.02ZM788.02 1056.62L789.008 1064.56L788.02 1056.62ZM718.616 57.9801L726.555 56.9922L718.616 57.9801ZM718.616 57.9801L710.678 58.9681C715.635 98.8063 747.194 130.365 787.032 135.322L788.02 127.384L789.008 119.445C756.44 115.392 730.608 89.5603 726.555 56.9922L718.616 57.9801ZM798 138H790V1046H798H806V138H798ZM788.02 1056.62L787.032 1048.68C747.194 1053.64 715.635 1085.19 710.678 1125.03L718.616 1126.02L726.555 1127.01C730.608 1094.44 756.44 1068.61 789.008 1064.56L788.02 1056.62ZM708 1136V1128H141V1136V1144H708V1136ZM130.384 1126.02L138.322 1125.03C133.365 1085.19 101.806 1053.64 61.9681 1048.68L60.9801 1056.62L59.9922 1064.56C92.5603 1068.61 118.392 1094.44 122.445 1127.01L130.384 1126.02ZM51 1046H59V138H51H43V1046H51ZM60.9801 127.384L61.9681 135.322C101.806 130.365 133.365 98.8063 138.322 58.9681L130.384 57.9801L122.445 56.9922C118.392 89.5603 92.5603 115.392 59.9922 119.445L60.9801 127.384ZM141 48V56H708V48V40H141V48ZM130.384 57.9801L138.322 58.9681C138.438 58.0389 138.872 57.2306 139.427 56.6958C139.954 56.1887 140.494 56 141 56V48V40C130.84 40 123.547 48.1329 122.445 56.9922L130.384 57.9801ZM51 138H59C59 137.494 59.1887 136.954 59.6958 136.427C60.2306 135.872 61.0389 135.438 61.9681 135.322L60.9801 127.384L59.9922 119.445C51.1329 120.547 43 127.84 43 138H51ZM60.9801 1056.62L61.9681 1048.68C61.0389 1048.56 60.2306 1048.13 59.6958 1047.57C59.1887 1047.05 59 1046.51 59 1046H51H43C43 1056.16 51.1329 1063.45 59.9922 1064.56L60.9801 1056.62ZM141 1136V1128C140.494 1128 139.954 1127.81 139.427 1127.3C138.872 1126.77 138.438 1125.96 138.322 1125.03L130.384 1126.02L122.445 1127.01C123.547 1135.87 130.84 1144 141 1144V1136ZM718.616 1126.02L710.678 1125.03C710.562 1125.96 710.128 1126.77 709.573 1127.3C709.046 1127.81 708.506 1128 708 1128V1136V1144C718.16 1144 725.453 1135.87 726.555 1127.01L718.616 1126.02ZM798 1046H790C790 1046.51 789.811 1047.05 789.304 1047.57C788.769 1048.13 787.961 1048.56 787.032 1048.68L788.02 1056.62L789.008 1064.56C797.867 1063.45 806 1056.16 806 1046H798ZM788.02 127.384L787.032 135.322C787.961 135.438 788.769 135.872 789.304 136.427C789.811 136.954 790 137.494 790 138H798H806C806 127.84 797.867 120.547 789.008 119.445L788.02 127.384ZM718.616 57.9801L726.555 56.9922C725.453 48.1329 718.16 40 708 40V48V56C708.506 56 709.046 56.1887 709.573 56.6958C710.128 57.2306 710.562 58.0389 710.678 58.9681L718.616 57.9801Z" fill="black" mask="url(#path-6-inside-1_97_15)"/>
<path d="M690 102C695.523 102 699.911 106.512 700.837 111.957C705.019 136.563 724.437 155.981 749.043 160.163C754.488 161.089 759 165.477 759 171V1014C759 1019.52 754.488 1023.91 749.043 1024.84C724.711 1028.97 705.454 1048 700.984 1072.22C699.993 1077.59 695.633 1082 690.175 1082H158.825C153.367 1082 149.007 1077.59 148.016 1072.22C143.546 1048 124.288 1028.97 99.9568 1024.84C94.5121 1023.91 90 1019.52 90 1014V171C90 165.477 94.512 161.089 99.9568 160.163C124.563 155.981 143.981 136.563 148.163 111.957C149.089 106.512 153.477 102 159 102H690Z" fill="#D78BCD"/>
<path d="M299.84 408.595C295.873 408.595 292.303 407.915 289.13 406.555C285.957 405.138 283.463 403.155 281.65 400.605C279.837 398.055 278.93 395.08 278.93 391.68H289.3C289.527 394.23 290.518 396.327 292.275 397.97C294.088 399.613 296.61 400.435 299.84 400.435C303.183 400.435 305.79 399.642 307.66 398.055C309.53 396.412 310.465 394.315 310.465 391.765C310.465 389.782 309.87 388.167 308.68 386.92C307.547 385.673 306.102 384.71 304.345 384.03C302.645 383.35 300.265 382.613 297.205 381.82C293.352 380.8 290.207 379.78 287.77 378.76C285.39 377.683 283.35 376.04 281.65 373.83C279.95 371.62 279.1 368.673 279.1 364.99C279.1 361.59 279.95 358.615 281.65 356.065C283.35 353.515 285.73 351.56 288.79 350.2C291.85 348.84 295.392 348.16 299.415 348.16C305.138 348.16 309.813 349.605 313.44 352.495C317.123 355.328 319.163 359.238 319.56 364.225H308.85C308.68 362.072 307.66 360.23 305.79 358.7C303.92 357.17 301.455 356.405 298.395 356.405C295.618 356.405 293.352 357.113 291.595 358.53C289.838 359.947 288.96 361.987 288.96 364.65C288.96 366.463 289.498 367.965 290.575 369.155C291.708 370.288 293.125 371.195 294.825 371.875C296.525 372.555 298.848 373.292 301.795 374.085C305.705 375.162 308.878 376.238 311.315 377.315C313.808 378.392 315.905 380.063 317.605 382.33C319.362 384.54 320.24 387.515 320.24 391.255C320.24 394.258 319.418 397.092 317.775 399.755C316.188 402.418 313.837 404.572 310.72 406.215C307.66 407.802 304.033 408.595 299.84 408.595ZM328.444 384.37C328.444 379.667 329.407 375.502 331.334 371.875C333.317 368.248 335.98 365.443 339.324 363.46C342.724 361.42 346.464 360.4 350.544 360.4C354.227 360.4 357.429 361.137 360.149 362.61C362.925 364.027 365.135 365.812 366.779 367.965V361.165H376.554V408H366.779V401.03C365.135 403.24 362.897 405.082 360.064 406.555C357.23 408.028 354 408.765 350.374 408.765C346.35 408.765 342.667 407.745 339.324 405.705C335.98 403.608 333.317 400.718 331.334 397.035C329.407 393.295 328.444 389.073 328.444 384.37ZM366.779 384.54C366.779 381.31 366.099 378.505 364.739 376.125C363.435 373.745 361.707 371.932 359.554 370.685C357.4 369.438 355.077 368.815 352.584 368.815C350.09 368.815 347.767 369.438 345.614 370.685C343.46 371.875 341.704 373.66 340.344 376.04C339.04 378.363 338.389 381.14 338.389 384.37C338.389 387.6 339.04 390.433 340.344 392.87C341.704 395.307 343.46 397.177 345.614 398.48C347.824 399.727 350.147 400.35 352.584 400.35C355.077 400.35 357.4 399.727 359.554 398.48C361.707 397.233 363.435 395.42 364.739 393.04C366.099 390.603 366.779 387.77 366.779 384.54ZM412.911 360.4C416.595 360.4 419.881 361.165 422.771 362.695C425.718 364.225 428.013 366.492 429.656 369.495C431.3 372.498 432.121 376.125 432.121 380.375V408H422.516V381.82C422.516 377.627 421.468 374.425 419.371 372.215C417.275 369.948 414.413 368.815 410.786 368.815C407.16 368.815 404.27 369.948 402.116 372.215C400.02 374.425 398.971 377.627 398.971 381.82V408H389.281V361.165H398.971V366.52C400.558 364.593 402.57 363.092 405.006 362.015C407.5 360.938 410.135 360.4 412.911 360.4ZM441.251 384.37C441.251 379.667 442.215 375.502 444.141 371.875C446.125 368.248 448.788 365.443 452.131 363.46C455.531 361.42 459.3 360.4 463.436 360.4C466.496 360.4 469.5 361.08 472.446 362.44C475.45 363.743 477.83 365.5 479.586 367.71V345.1H489.361V408H479.586V400.945C478 403.212 475.79 405.082 472.956 406.555C470.18 408.028 466.978 408.765 463.351 408.765C459.271 408.765 455.531 407.745 452.131 405.705C448.788 403.608 446.125 400.718 444.141 397.035C442.215 393.295 441.251 389.073 441.251 384.37ZM479.586 384.54C479.586 381.31 478.906 378.505 477.546 376.125C476.243 373.745 474.515 371.932 472.361 370.685C470.208 369.438 467.885 368.815 465.391 368.815C462.898 368.815 460.575 369.438 458.421 370.685C456.268 371.875 454.511 373.66 453.151 376.04C451.848 378.363 451.196 381.14 451.196 384.37C451.196 387.6 451.848 390.433 453.151 392.87C454.511 395.307 456.268 397.177 458.421 398.48C460.631 399.727 462.955 400.35 465.391 400.35C467.885 400.35 470.208 399.727 472.361 398.48C474.515 397.233 476.243 395.42 477.546 393.04C478.906 390.603 479.586 387.77 479.586 384.54ZM511.779 361.165V408H502.089V361.165H511.779ZM515.689 348.585L496.904 357.85V350.71L515.689 340.34V348.585ZM521.271 384.37C521.271 379.667 522.234 375.502 524.161 371.875C526.144 368.248 528.808 365.443 532.151 363.46C535.551 361.42 539.291 360.4 543.371 360.4C547.054 360.4 550.256 361.137 552.976 362.61C555.753 364.027 557.963 365.812 559.606 367.965V361.165H569.381V408H559.606V401.03C557.963 403.24 555.724 405.082 552.891 406.555C550.058 408.028 546.828 408.765 543.201 408.765C539.178 408.765 535.494 407.745 532.151 405.705C528.808 403.608 526.144 400.718 524.161 397.035C522.234 393.295 521.271 389.073 521.271 384.37ZM559.606 384.54C559.606 381.31 558.926 378.505 557.566 376.125C556.263 373.745 554.534 371.932 552.381 370.685C550.228 369.438 547.904 368.815 545.411 368.815C542.918 368.815 540.594 369.438 538.441 370.685C536.288 371.875 534.531 373.66 533.171 376.04C531.868 378.363 531.216 381.14 531.216 384.37C531.216 387.6 531.868 390.433 533.171 392.87C534.531 395.307 536.288 397.177 538.441 398.48C540.651 399.727 542.974 400.35 545.411 400.35C547.904 400.35 550.228 399.727 552.381 398.48C554.534 397.233 556.263 395.42 557.566 393.04C558.926 390.603 559.606 387.77 559.606 384.54Z" fill="black"/>
<mask id="path-10-outside-2_97_15" maskUnits="userSpaceOnUse" x="406" y="1007" width="38" height="31" fill="black">
<rect fill="white" x="406" y="1007" width="38" height="31"/>
<path d="M406.8 1012V1007.84H415.12V1037H410.52V1012H406.8ZM420.824 1030.92V1027.48L434.264 1008.2H439.784V1026.96H443.504V1030.92H439.784V1037H435.304V1030.92H420.824ZM435.504 1012.84L426.064 1026.96H435.504V1012.84Z"/>
</mask>
<path d="M406.8 1012V1007.84H415.12V1037H410.52V1012H406.8ZM420.824 1030.92V1027.48L434.264 1008.2H439.784V1026.96H443.504V1030.92H439.784V1037H435.304V1030.92H420.824ZM435.504 1012.84L426.064 1026.96H435.504V1012.84Z" fill="black"/>
<path d="M406.8 1012H406.5V1012.3H406.8V1012ZM406.8 1007.84V1007.54H406.5V1007.84H406.8ZM415.12 1007.84H415.42V1007.54H415.12V1007.84ZM415.12 1037V1037.3H415.42V1037H415.12ZM410.52 1037H410.22V1037.3H410.52V1037ZM410.52 1012H410.82V1011.7H410.52V1012ZM406.8 1012H407.1V1007.84H406.8H406.5V1012H406.8ZM406.8 1007.84V1008.14H415.12V1007.84V1007.54H406.8V1007.84ZM415.12 1007.84H414.82V1037H415.12H415.42V1007.84H415.12ZM415.12 1037V1036.7H410.52V1037V1037.3H415.12V1037ZM410.52 1037H410.82V1012H410.52H410.22V1037H410.52ZM410.52 1012V1011.7H406.8V1012V1012.3H410.52V1012ZM420.824 1030.92H420.524V1031.22H420.824V1030.92ZM420.824 1027.48L420.578 1027.31L420.524 1027.39V1027.48H420.824ZM434.264 1008.2V1007.9H434.108L434.018 1008.03L434.264 1008.2ZM439.784 1008.2H440.084V1007.9H439.784V1008.2ZM439.784 1026.96H439.484V1027.26H439.784V1026.96ZM443.504 1026.96H443.804V1026.66H443.504V1026.96ZM443.504 1030.92V1031.22H443.804V1030.92H443.504ZM439.784 1030.92V1030.62H439.484V1030.92H439.784ZM439.784 1037V1037.3H440.084V1037H439.784ZM435.304 1037H435.004V1037.3H435.304V1037ZM435.304 1030.92H435.604V1030.62H435.304V1030.92ZM435.504 1012.84H435.804V1011.85L435.255 1012.67L435.504 1012.84ZM426.064 1026.96L425.815 1026.79L425.503 1027.26H426.064V1026.96ZM435.504 1026.96V1027.26H435.804V1026.96H435.504ZM420.824 1030.92H421.124V1027.48H420.824H420.524V1030.92H420.824ZM420.824 1027.48L421.07 1027.65L434.51 1008.37L434.264 1008.2L434.018 1008.03L420.578 1027.31L420.824 1027.48ZM434.264 1008.2V1008.5H439.784V1008.2V1007.9H434.264V1008.2ZM439.784 1008.2H439.484V1026.96H439.784H440.084V1008.2H439.784ZM439.784 1026.96V1027.26H443.504V1026.96V1026.66H439.784V1026.96ZM443.504 1026.96H443.204V1030.92H443.504H443.804V1026.96H443.504ZM443.504 1030.92V1030.62H439.784V1030.92V1031.22H443.504V1030.92ZM439.784 1030.92H439.484V1037H439.784H440.084V1030.92H439.784ZM439.784 1037V1036.7H435.304V1037V1037.3H439.784V1037ZM435.304 1037H435.604V1030.92H435.304H435.004V1037H435.304ZM435.304 1030.92V1030.62H420.824V1030.92V1031.22H435.304V1030.92ZM435.504 1012.84L435.255 1012.67L425.815 1026.79L426.064 1026.96L426.314 1027.13L435.754 1013.01L435.504 1012.84ZM426.064 1026.96V1027.26H435.504V1026.96V1026.66H426.064V1026.96ZM435.504 1026.96H435.804V1012.84H435.504H435.204V1026.96H435.504Z" fill="black" mask="url(#path-10-outside-2_97_15)"/>
<path d="M201.9 195.5L184.6 266H160.5L150.8 222.8L140.9 266H116.8L99.7 195.5H120.9L129.1 243.7L140.2 195.5H161.7L172.5 243.3L180.7 195.5H201.9ZM207.017 237.9C207.017 232.1 208.051 227.033 210.117 222.7C212.251 218.367 215.117 215.033 218.717 212.7C222.384 210.367 226.451 209.2 230.917 209.2C234.784 209.2 238.117 209.967 240.917 211.5C243.717 213.033 245.884 215.1 247.417 217.7V209.9H267.017V266H247.417V258.2C245.884 260.8 243.684 262.867 240.817 264.4C238.017 265.933 234.717 266.7 230.917 266.7C226.451 266.7 222.384 265.533 218.717 263.2C215.117 260.867 212.251 257.533 210.117 253.2C208.051 248.8 207.017 243.7 207.017 237.9ZM247.417 237.9C247.417 234.3 246.417 231.467 244.417 229.4C242.484 227.333 240.084 226.3 237.217 226.3C234.284 226.3 231.851 227.333 229.917 229.4C227.984 231.4 227.017 234.233 227.017 237.9C227.017 241.5 227.984 244.367 229.917 246.5C231.851 248.567 234.284 249.6 237.217 249.6C240.084 249.6 242.484 248.567 244.417 246.5C246.417 244.433 247.417 241.567 247.417 237.9ZM311.286 249.3V266H302.786C288.453 266 281.286 258.9 281.286 244.7V226.2H274.386V209.9H281.286V196.3H300.986V209.9H311.186V226.2H300.986V245C300.986 246.533 301.319 247.633 301.986 248.3C302.719 248.967 303.919 249.3 305.586 249.3H311.286ZM373.876 237.3C373.876 238.833 373.776 240.367 373.576 241.9H336.476C336.676 244.967 337.509 247.267 338.976 248.8C340.509 250.267 342.442 251 344.776 251C348.042 251 350.376 249.533 351.776 246.6H372.676C371.809 250.467 370.109 253.933 367.576 257C365.109 260 361.976 262.367 358.176 264.1C354.376 265.833 350.176 266.7 345.576 266.7C340.042 266.7 335.109 265.533 330.776 263.2C326.509 260.867 323.142 257.533 320.676 253.2C318.276 248.867 317.076 243.767 317.076 237.9C317.076 232.033 318.276 226.967 320.676 222.7C323.076 218.367 326.409 215.033 330.676 212.7C335.009 210.367 339.976 209.2 345.576 209.2C351.109 209.2 356.009 210.333 360.276 212.6C364.542 214.867 367.876 218.133 370.276 222.4C372.676 226.6 373.876 231.567 373.876 237.3ZM353.876 232.4C353.876 230 353.076 228.133 351.476 226.8C349.876 225.4 347.876 224.7 345.476 224.7C343.076 224.7 341.109 225.367 339.576 226.7C338.042 227.967 337.042 229.867 336.576 232.4H353.876ZM401.497 219.8C403.697 216.6 406.364 214.067 409.497 212.2C412.63 210.333 415.997 209.4 419.597 209.4V230.3H414.097C409.83 230.3 406.664 231.133 404.597 232.8C402.53 234.467 401.497 237.367 401.497 241.5V266H381.897V209.9H401.497V219.8ZM499.923 209.4C506.99 209.4 512.523 211.533 516.523 215.8C520.59 220.067 522.623 225.9 522.623 233.3V266H503.023V235.9C503.023 232.9 502.19 230.567 500.523 228.9C498.857 227.233 496.59 226.4 493.723 226.4C490.857 226.4 488.59 227.233 486.923 228.9C485.257 230.567 484.423 232.9 484.423 235.9V266H464.823V235.9C464.823 232.9 463.99 230.567 462.323 228.9C460.723 227.233 458.49 226.4 455.623 226.4C452.69 226.4 450.39 227.233 448.723 228.9C447.057 230.567 446.223 232.9 446.223 235.9V266H426.623V209.9H446.223V217.3C447.957 214.9 450.19 213 452.923 211.6C455.723 210.133 458.923 209.4 462.523 209.4C466.657 209.4 470.323 210.3 473.523 212.1C476.79 213.9 479.357 216.433 481.223 219.7C483.223 216.633 485.857 214.167 489.123 212.3C492.39 210.367 495.99 209.4 499.923 209.4ZM586.962 237.3C586.962 238.833 586.862 240.367 586.662 241.9H549.562C549.762 244.967 550.595 247.267 552.062 248.8C553.595 250.267 555.528 251 557.862 251C561.128 251 563.462 249.533 564.862 246.6H585.762C584.895 250.467 583.195 253.933 580.662 257C578.195 260 575.062 262.367 571.262 264.1C567.462 265.833 563.262 266.7 558.662 266.7C553.128 266.7 548.195 265.533 543.862 263.2C539.595 260.867 536.228 257.533 533.762 253.2C531.362 248.867 530.162 243.767 530.162 237.9C530.162 232.033 531.362 226.967 533.762 222.7C536.162 218.367 539.495 215.033 543.762 212.7C548.095 210.367 553.062 209.2 558.662 209.2C564.195 209.2 569.095 210.333 573.362 212.6C577.628 214.867 580.962 218.133 583.362 222.4C585.762 226.6 586.962 231.567 586.962 237.3ZM566.962 232.4C566.962 230 566.162 228.133 564.562 226.8C562.962 225.4 560.962 224.7 558.562 224.7C556.162 224.7 554.195 225.367 552.662 226.7C551.128 227.967 550.128 229.867 549.662 232.4H566.962ZM614.583 192V266H594.983V192H614.583ZM651.845 266.7C646.245 266.7 641.211 265.533 636.745 263.2C632.345 260.867 628.878 257.533 626.345 253.2C623.811 248.867 622.545 243.767 622.545 237.9C622.545 232.1 623.811 227.033 626.345 222.7C628.945 218.367 632.445 215.033 636.845 212.7C641.311 210.367 646.345 209.2 651.945 209.2C657.545 209.2 662.545 210.367 666.945 212.7C671.411 215.033 674.911 218.367 677.445 222.7C680.045 227.033 681.345 232.1 681.345 237.9C681.345 243.7 680.045 248.8 677.445 253.2C674.911 257.533 671.411 260.867 666.945 263.2C662.478 265.533 657.445 266.7 651.845 266.7ZM651.845 249.7C654.578 249.7 656.845 248.7 658.645 246.7C660.511 244.633 661.445 241.7 661.445 237.9C661.445 234.1 660.511 231.2 658.645 229.2C656.845 227.2 654.611 226.2 651.945 226.2C649.278 226.2 647.045 227.2 645.245 229.2C643.445 231.2 642.545 234.1 642.545 237.9C642.545 241.767 643.411 244.7 645.145 246.7C646.878 248.7 649.111 249.7 651.845 249.7ZM726.019 209.4C732.485 209.4 737.619 211.567 741.419 215.9C745.219 220.167 747.119 225.967 747.119 233.3V266H727.519V235.9C727.519 232.7 726.685 230.2 725.019 228.4C723.352 226.533 721.119 225.6 718.319 225.6C715.385 225.6 713.085 226.533 711.419 228.4C709.752 230.2 708.919 232.7 708.919 235.9V266H689.319V209.9H708.919V217.9C710.652 215.367 712.985 213.333 715.919 211.8C718.852 210.2 722.219 209.4 726.019 209.4Z" fill="black"/>
<path d="M299.266 424C315.071 427.143 331.904 445.742 338.926 459.664C341.268 464.31 344.053 475.129 346.334 478.398C350.393 484.213 353.186 486.037 357.008 493.066C363.744 493.829 370.237 494.152 376.967 495.327C466.898 511.03 535.254 584.391 558.224 670.575C559.498 675.359 560.425 680.203 561.928 684.895C571.343 683.588 583.646 679.166 593.244 676.769L687.248 652.492C695.743 650.327 725.018 639.775 731.844 646.502C740.23 654.765 742.873 693.716 743.252 705.231C747.352 829.81 660.08 954.38 529.053 958.601C504.047 960.599 465.069 954.622 442.505 943.077C438.512 947.176 431.871 950.008 426.628 952.32C354.182 984.285 268.865 977.521 204.464 930.491C31.3159 804.054 95.2498 525.12 311.032 493.066C313.364 487.437 316.832 482.555 320.886 478.059C307.589 456.315 291.857 455.441 288.312 450.695C288.609 447.136 297.214 427.097 299.266 424Z" fill="black"/>
<path d="M361.488 503.289C384.081 504.889 435.489 520.069 452.604 536.965C458.311 539.399 466.165 546.02 471.093 550.111C512.908 584.834 541.872 633.951 553.448 687.017C540.308 690.488 526.731 693.783 513.693 697.397C508.085 698.918 502.225 700.6 496.588 701.916C481.341 706.047 465.513 710.254 450.191 714.063C444.333 715.85 437.815 717.369 431.849 718.947L401.498 727.104C393.614 729.145 385.621 730.94 377.79 733.137C353.493 740.316 328.308 745.362 304.181 753.001C287.895 758.156 298.179 783.435 303.657 793.335C308.981 821.429 352.846 880.579 373.301 897.387C381.338 905.388 397.837 916.704 402.847 922.394C409.685 925.648 422.927 934.117 429.66 938.497C412.016 947.022 392.707 954.204 373.301 957.271C368.53 958.668 357.752 959.827 352.586 960.062C346.591 960.636 338.179 961.062 332.306 960.678C325.809 961.134 315.488 960.516 308.84 960.062C301.529 959.166 293.152 957.372 286.019 955.604C282.62 955.537 277.214 954.082 273.9 953.069C157.107 917.352 89.2799 789.74 123.092 673.142C147.539 582.567 215.223 519.096 307.03 503.289C303.944 516.012 304.526 523.556 317.944 528.778C323.01 530.038 329.944 531.044 335.183 531.1C346.911 531.084 353.016 529.204 360.268 519.509C360.903 517.035 361.145 515.051 361.488 512.525C361.416 509.701 361.641 505.764 361.488 503.289Z" fill="url(#paint0_linear_97_15)"/>
<path d="M361.487 503.289C384.081 504.889 435.488 520.069 452.604 536.965C458.311 539.399 466.165 546.02 471.092 550.111C512.907 584.834 541.872 633.951 553.448 687.017C540.308 690.488 526.731 693.783 513.693 697.397C508.084 698.918 502.224 700.6 496.587 701.916C481.34 706.047 465.513 710.254 450.191 714.063C444.333 715.85 437.815 717.369 431.849 718.947L401.498 727.104C393.614 729.145 385.621 730.94 377.79 733.137C376.635 724.508 370.115 715.668 370.479 704.205C370.907 690.68 379.597 681.029 376.696 667.464C372.944 649.933 361.734 643.462 359.169 623.799C357.39 610.156 362.978 602.247 360.348 590.644C358.771 583.693 350.192 573.032 346.742 565.692C341.319 554.145 338.307 543.417 335.183 531.1C346.911 531.084 353.016 529.204 360.268 519.509C360.903 517.035 361.144 515.051 361.487 512.525C361.416 509.701 361.64 505.764 361.487 503.289Z" fill="#27B155"/>
<path d="M360.268 519.509C368.737 530.083 377.598 540.545 386.025 551.184C389.273 555.283 396.014 557.513 398.986 561.999C402.295 566.832 402.412 575.497 404.905 580.641C409.055 589.2 416.461 594.851 419.959 604.19C425.314 618.489 426.106 634.095 431.999 649.732C436.408 661.433 446.129 670.185 449.234 681.837C451.864 691.71 449.755 703.597 450.191 714.063C444.333 715.85 437.815 717.369 431.849 718.947L401.498 727.104C393.614 729.145 385.621 730.94 377.79 733.137C376.635 724.507 370.115 715.668 370.479 704.205C370.907 690.68 379.597 681.029 376.696 667.464C372.944 649.933 361.734 643.462 359.169 623.799C357.39 610.156 362.978 602.247 360.348 590.644C358.771 583.693 350.192 573.032 346.742 565.692C341.319 554.145 338.307 543.417 335.183 531.1C346.911 531.084 353.016 529.204 360.268 519.509Z" fill="#27B155"/>
<path d="M361.488 512.525C402.487 529.023 453.51 576.462 473 616.417C476.45 623.491 477.598 632.068 481.47 639.024C484.328 644.477 490.69 645.395 493.567 652.69C499.631 668.063 494.539 687.639 496.588 701.916C481.34 706.047 465.513 710.254 450.191 714.063C449.755 703.597 451.864 691.71 449.234 681.837C446.129 670.185 436.408 661.433 431.999 649.732C426.106 634.095 425.314 618.489 419.959 604.19C416.462 594.851 409.055 589.2 404.905 580.641C402.412 575.497 402.295 566.832 398.986 561.999C396.014 557.513 389.273 555.283 386.025 551.184C377.599 540.545 368.737 530.083 360.268 519.509C360.903 517.035 361.145 515.051 361.488 512.525Z" fill="#76F17B"/>
<path d="M446.151 605.503C464.361 604.797 480.484 641.339 459.535 649.058C456.098 649.214 453.631 649.208 450.191 649.058L449.984 648.902C439.047 640.786 425.203 609.808 446.151 605.503Z" fill="#B7FEBD"/>
<path d="M452.604 536.964C458.311 539.398 466.165 546.019 471.093 550.111C512.907 584.834 541.872 633.951 553.448 687.016C540.308 690.487 526.731 693.782 513.693 697.397C511.047 691.135 509.351 676.522 508.006 669.34C501.495 634.53 482.513 574.025 459.936 547.02C457.944 544.639 453.807 539.595 452.604 536.964Z" fill="#108D4B"/>
<path d="M123.092 673.142C123.622 673.756 124.324 674.682 124.542 675.457C134.021 709.145 140.533 719.048 159.514 746.051C177.617 762.491 190.08 770.648 208.983 784.111C208.579 785.125 208.686 784.585 208.983 785.808C212.667 805.076 217.429 807.133 222.015 821.473C224.574 829.472 223.692 837.917 227.543 845.67C231.187 853.007 238.326 858.006 241.346 865.453C244.298 872.734 243.746 880.61 247.892 887.577C252.308 895.003 260.545 898.927 264.93 905.866C269.64 913.325 271.613 924.415 277.429 931.263C288.655 944.48 297.763 949.774 308.84 960.062C301.529 959.166 293.152 957.372 286.019 955.604C282.62 955.537 277.214 954.082 273.9 953.069C157.107 917.352 89.2799 789.74 123.092 673.142Z" fill="#108D4B"/>
<path d="M159.514 746.051C177.617 762.491 190.08 770.648 208.983 784.111C208.579 785.125 208.686 784.585 208.983 785.808C212.667 805.076 217.429 807.133 222.015 821.473C224.574 829.472 223.692 837.917 227.543 845.67C231.187 853.007 238.326 858.006 241.346 865.453C244.298 872.734 243.746 880.61 247.892 887.577C252.308 895.003 260.545 898.927 264.93 905.866C269.64 913.325 271.613 924.415 277.429 931.263C288.655 944.48 297.763 949.774 308.84 960.062C301.529 959.166 293.152 957.373 286.02 955.604C283.037 952.936 278.572 950.816 275.057 948.662C241.392 928.018 213.171 896.077 193.266 862.332C178.24 836.854 174.25 823.952 166.594 796.848C163.419 785.605 156.517 757.857 159.514 746.051Z" fill="#27B155"/>
<path d="M317.944 528.778C323.01 530.038 329.944 531.044 335.183 531.1C338.307 543.417 341.319 554.145 346.743 565.692C350.192 573.031 358.771 583.693 360.348 590.644C362.978 602.247 357.39 610.156 359.169 623.798C361.734 643.462 372.944 649.933 376.696 667.464C379.598 681.029 370.908 690.679 370.479 704.205C370.115 715.668 376.635 724.507 377.79 733.137C353.493 740.316 328.308 745.362 304.181 753.001C287.895 758.156 298.179 783.434 303.657 793.334C298.269 794.075 294.303 783.294 292.308 779.597C276.182 749.686 296.366 741.086 295.032 712.293C294.323 696.954 284.714 688.043 286.596 671.701C288.82 652.403 304.429 641.112 303.297 621.514C301.557 591.383 291.229 604.625 308.873 568.65C313.149 559.62 315.138 550.978 316.666 541.274C317.033 538.945 316.958 530.205 317.944 528.778Z" fill="#76F17B"/>
<path d="M159.514 746.051C160.608 737.208 163.152 729.045 162.933 720.031C162.654 708.587 159.847 700.117 161.195 688.501C162.444 677.748 169.272 671.088 171.701 662.537C175.081 650.635 174.327 641.595 179.537 629.211C194.933 592.614 261.748 525.753 303.657 511.449C291.309 525.296 280.189 537.738 269.896 553.267C267.732 556.532 260.856 559.495 258.767 563.178C254.638 570.125 255.566 579.207 251.251 586.149C240.777 603.173 235.91 602.469 234.819 625.029C233.763 646.828 223.645 663.285 214.375 682.234C203.902 703.642 212.825 716.706 212.552 736.65C212.363 750.541 206.113 763.254 208.493 777.49C208.727 778.894 209.042 782.778 208.982 784.111C190.08 770.648 177.616 762.491 159.514 746.051Z" fill="#76F17B"/>
<path d="M213.171 608.289C240.244 607.797 221.076 652.06 206.559 659.097C183.567 657.322 194.167 632.203 199.862 619.727C202.514 613.914 206.601 609.234 213.171 608.289Z" fill="#B7FEBD"/>
<path d="M188.053 675.231C199.193 675.158 206.183 702.976 188.053 707.132C175.586 707.589 168.258 680.804 188.053 675.231Z" fill="#B7FEBD"/>
<path d="M208.982 785.808L209.431 784.909C210.787 785.104 212.979 786.587 214.225 787.311C242.018 803.459 270.191 810.553 301.34 816.829C298.528 827.655 298.753 853.269 300.147 864.787C301.413 875.251 309.284 882.079 313.148 891.397C317.541 901.99 314.087 912.88 317.688 923.625C322.317 937.447 329.359 943.129 332.306 960.678C325.809 961.133 315.487 960.516 308.84 960.062C297.763 949.774 288.655 944.48 277.429 931.263C271.613 924.414 269.64 913.325 264.929 905.866C260.545 898.927 252.308 895.002 247.892 887.577C243.746 880.61 244.298 872.734 241.346 865.453C238.326 858.006 231.187 853.007 227.543 845.67C223.692 837.917 224.574 829.472 222.015 821.473C217.429 807.133 212.667 805.076 208.982 785.808Z" fill="#108D4B"/>
<path d="M373.301 897.387C381.338 905.388 397.837 916.704 402.847 922.394C409.685 925.648 422.926 934.117 429.66 938.497C412.016 947.022 392.707 954.204 373.301 957.271C368.529 958.668 357.751 959.827 352.585 960.062C355.986 951.67 359.01 944.191 361.623 935.504C365.732 921.845 362.604 907.786 373.301 897.387Z" fill="#108D4B"/>
<path d="M402.847 922.394C409.685 925.648 422.926 934.117 429.66 938.497C412.016 947.022 392.707 954.204 373.301 957.271C375.046 954.932 382.816 948.507 385.696 945.455C393.165 937.541 396.968 931.078 402.847 922.394Z" fill="#27B155"/>
<path d="M682.939 664.463C690.159 662.803 697.892 660.577 704.929 659.097C704.456 666.543 705.629 674.224 705.989 681.581C708.873 740.433 697.875 797.281 662.904 845.765C627.466 895.402 571.508 925.674 509.889 922.161C426.971 917.435 364.433 852.146 333.404 779.443C330.527 772.705 327.747 765.061 324.697 758.53C332.684 756.765 340.795 754.119 348.492 752.504C381.589 741.27 420.705 733.477 454.961 724.394L682.939 664.463Z" fill="#FA5856"/>
<path d="M682.939 664.463C690.159 662.803 697.892 660.577 704.929 659.097C704.456 666.543 705.629 674.224 705.989 681.581C708.873 740.433 697.875 797.281 662.904 845.765C627.466 895.402 571.508 925.674 509.889 922.161C426.971 917.435 364.433 852.146 333.404 779.443C330.527 772.705 327.747 765.061 324.697 758.53C332.684 756.765 340.795 754.119 348.492 752.504L348.717 753.59C374.14 832.503 448.786 911.244 538.434 898.009C643.944 880.067 699.308 763.657 682.939 664.463Z" fill="#F42B2D"/>
<path d="M446.151 774.217C455.605 774.116 457.845 828.382 428.648 814.787C406.312 801.301 432.239 779.851 446.151 774.217Z" fill="black"/>
<path d="M446.151 780.031C446.856 781.233 448.142 813.867 431.734 804.723C429.588 802.544 429.412 801.423 428.648 798.538C430.728 788.955 437.937 784.23 446.151 780.031Z" fill="#60595B"/>
<path d="M610.731 781.763C628.706 780.84 662.217 792.192 640.195 813.175C625.779 823.133 616.989 811.834 612.111 798.984C610.303 794.22 604.373 783.692 610.731 781.763Z" fill="black"/>
<path d="M612.671 785.807C620.53 786.263 645.013 793.117 635.356 804.722C624.131 814.162 615.199 794.081 612.671 785.807Z" fill="#60595B"/>
<path d="M534.752 744.107C542.717 744.451 571.967 770.952 550.071 785.808C521.077 795.164 525.753 757.763 534.752 744.107Z" fill="black"/>
<path d="M537.249 749.067C543.773 753.388 557.064 770.107 545.658 775.558C528.827 781.393 533.282 757.155 537.249 749.067Z" fill="#60595B"/>
<path d="M494.135 826.47C504.373 826.328 507.38 877.83 479.206 865.993C456.544 853.662 480.171 832.734 494.135 826.47Z" fill="black"/>
<path d="M494.135 831.427C496.209 832.264 498.236 863.537 481.59 855.908C470.963 847.727 487.562 835.505 494.135 831.427Z" fill="#60595B"/>
<path d="M559.773 833.43C567.825 832.673 600.228 855.667 579.989 870.543C553.245 885.787 551.008 844.59 559.773 833.43Z" fill="black"/>
<path d="M561.928 838.228C569.428 841.125 583.234 853.974 575.291 861.781C572.933 863.253 572.155 863.409 569.551 864.103C558.196 860.698 559.802 847.431 561.928 838.228Z" fill="#60595B"/>
<path d="M624.148 719.786C642.45 718.654 675.874 726.588 654.136 747.846C642.026 756.5 633.347 746.368 627.292 736.703C624.496 732.24 616.504 721.986 624.148 719.786Z" fill="black"/>
<path d="M625.514 723.629C633.655 723.566 657.485 727.144 647.758 740.13C639.15 747.261 627.962 730.277 625.514 723.629Z" fill="#60595B"/>
<path d="M724.098 654.602C724.835 654.402 725.316 654.773 725.521 655.473C740.56 706.792 731.834 769.118 711.422 817.582C667.251 922.455 548.274 979.955 441.495 932.222C375.557 902.795 334.174 845.254 308.84 780.031C303.855 766.578 300.431 763.647 315.704 761.545C349.975 848.195 408.749 925.773 510.026 932.444C596.247 938.124 669.769 878.864 699.264 800.344C714.35 760.182 722.317 700.351 714.458 657.025C717.666 656.292 720.906 655.422 724.098 654.602Z" fill="#76F17B"/>
<path d="M332.306 482.625C345.28 483.4 368.186 521.378 336.842 521.342C319.629 521.131 309.757 519.662 317.469 501.071C320.615 493.486 324.377 486.046 332.306 482.625Z" fill="#F42B2D"/>
<path d="M336.842 489.985C343.861 490.197 352.09 505.039 348.492 511.449C340.011 515.391 336.571 495.444 336.842 489.985Z" fill="#FEFEFE"/>
<path d="M302.379 426.89C320.857 435.338 337.253 454.123 342.656 473.8L343.752 477.792L339.708 476.904C336.935 476.294 335.354 475.924 333.786 475.863C332.329 475.805 330.793 476.02 328.309 476.837L328.179 476.88L328.043 476.908C327.15 477.096 325.725 477.715 324.358 478.242L322.215 479.07L321.21 477.002C317.631 469.637 314.133 464.822 309.762 461.054C305.357 457.258 299.919 454.394 292.22 451.144L289.981 450.199L290.862 447.934C291.5 446.296 292.196 444.713 292.861 443.174C294.872 438.101 296.834 433.196 299.052 428.156L300.073 425.835L302.379 426.89Z" fill="#FA5856" stroke="black" stroke-width="5"/>
<path d="M296.676 442.124C296.709 442.142 296.766 442.174 296.854 442.219C297.075 442.332 297.383 442.48 297.77 442.658C298.541 443.012 299.535 443.446 300.58 443.898C302.324 444.652 304.343 445.512 305.415 446.034L305.813 446.235C318.298 452.921 323.515 461.858 329.724 473.267L331.331 476.217L328.043 476.909C327.15 477.096 325.725 477.714 324.358 478.242L322.215 479.07L321.21 477.002C317.631 469.637 314.134 464.821 309.762 461.053C305.357 457.257 299.919 454.394 292.22 451.144L289.981 450.199L290.862 447.934C291.505 446.282 292.207 444.686 292.878 443.134L294.211 440.048L296.676 442.124Z" fill="#C76050" stroke="black" stroke-width="5"/>
<defs>
<linearGradient id="paint0_linear_97_15" x1="188.669" y1="556.736" x2="417.23" y2="917.412" gradientUnits="userSpaceOnUse">
<stop stop-color="#0EA458"/>
<stop offset="1" stop-color="#3FBB52"/>
</linearGradient>
</defs>
</svg>
