<svg width="849" height="1183" viewBox="0 0 849 1183" fill="none" xmlns="http://www.w3.org/2000/svg">
<rect x="5" y="5" width="839" height="1173" rx="45" fill="white"/>
<rect x="5" y="5" width="839" height="1173" rx="45" stroke="black" stroke-width="10"/>
<circle cx="786.5" cy="1124.5" r="11.5" fill="black"/>
<circle cx="786.5" cy="59.5" r="11.5" fill="black"/>
<path d="M77 1124.5C77 1130.85 71.8513 1136 65.5 1136C59.1487 1136 54 1130.85 54 1124.5C54 1118.15 59.1487 1113 65.5 1113C71.8513 1113 77 1118.15 77 1124.5Z" fill="black"/>
<path d="M77 59.5C77 65.8513 71.8513 71 65.5 71C59.1487 71 54 65.8513 54 59.5C54 53.1487 59.1487 48 65.5 48C71.8513 48 77 53.1487 77 59.5Z" fill="black"/>
<mask id="path-6-inside-1_97_43" fill="white">
<path d="M708 48C713.523 48 717.934 52.4996 718.616 57.9801C723.122 94.1833 751.817 122.878 788.02 127.384C793.5 128.066 798 132.477 798 138V1046C798 1051.52 793.5 1055.93 788.02 1056.62C751.817 1061.12 723.122 1089.82 718.616 1126.02C717.934 1131.5 713.523 1136 708 1136H141C135.477 1136 131.066 1131.5 130.384 1126.02C125.878 1089.82 97.1833 1061.12 60.9801 1056.62C55.4996 1055.93 51 1051.52 51 1046V138C51 132.477 55.4996 128.066 60.9801 127.384C97.1833 122.878 125.878 94.1833 130.384 57.9801C131.066 52.4996 135.477 48 141 48H708Z"/>
</mask>
<path d="M708 48C713.523 48 717.934 52.4996 718.616 57.9801C723.122 94.1833 751.817 122.878 788.02 127.384C793.5 128.066 798 132.477 798 138V1046C798 1051.52 793.5 1055.93 788.02 1056.62C751.817 1061.12 723.122 1089.82 718.616 1126.02C717.934 1131.5 713.523 1136 708 1136H141C135.477 1136 131.066 1131.5 130.384 1126.02C125.878 1089.82 97.1833 1061.12 60.9801 1056.62C55.4996 1055.93 51 1051.52 51 1046V138C51 132.477 55.4996 128.066 60.9801 127.384C97.1833 122.878 125.878 94.1833 130.384 57.9801C131.066 52.4996 135.477 48 141 48H708Z" fill="#0089CB"/>
<path d="M130.384 1126.02L138.322 1125.03L130.384 1126.02ZM718.616 1126.02L710.678 1125.03L718.616 1126.02ZM788.02 1056.62L789.008 1064.56L788.02 1056.62ZM718.616 57.9801L726.555 56.9922L718.616 57.9801ZM718.616 57.9801L710.678 58.9681C715.635 98.8063 747.194 130.365 787.032 135.322L788.02 127.384L789.008 119.445C756.44 115.392 730.608 89.5603 726.555 56.9922L718.616 57.9801ZM798 138H790V1046H798H806V138H798ZM788.02 1056.62L787.032 1048.68C747.194 1053.64 715.635 1085.19 710.678 1125.03L718.616 1126.02L726.555 1127.01C730.608 1094.44 756.44 1068.61 789.008 1064.56L788.02 1056.62ZM708 1136V1128H141V1136V1144H708V1136ZM130.384 1126.02L138.322 1125.03C133.365 1085.19 101.806 1053.64 61.9681 1048.68L60.9801 1056.62L59.9922 1064.56C92.5603 1068.61 118.392 1094.44 122.445 1127.01L130.384 1126.02ZM51 1046H59V138H51H43V1046H51ZM60.9801 127.384L61.9681 135.322C101.806 130.365 133.365 98.8063 138.322 58.9681L130.384 57.9801L122.445 56.9922C118.392 89.5603 92.5603 115.392 59.9922 119.445L60.9801 127.384ZM141 48V56H708V48V40H141V48ZM130.384 57.9801L138.322 58.9681C138.438 58.0389 138.872 57.2306 139.427 56.6958C139.954 56.1887 140.494 56 141 56V48V40C130.84 40 123.547 48.1329 122.445 56.9922L130.384 57.9801ZM51 138H59C59 137.494 59.1887 136.954 59.6958 136.427C60.2306 135.872 61.0389 135.438 61.9681 135.322L60.9801 127.384L59.9922 119.445C51.1329 120.547 43 127.84 43 138H51ZM60.9801 1056.62L61.9681 1048.68C61.0389 1048.56 60.2306 1048.13 59.6958 1047.57C59.1887 1047.05 59 1046.51 59 1046H51H43C43 1056.16 51.1329 1063.45 59.9922 1064.56L60.9801 1056.62ZM141 1136V1128C140.494 1128 139.954 1127.81 139.427 1127.3C138.872 1126.77 138.438 1125.96 138.322 1125.03L130.384 1126.02L122.445 1127.01C123.547 1135.87 130.84 1144 141 1144V1136ZM718.616 1126.02L710.678 1125.03C710.562 1125.96 710.128 1126.77 709.573 1127.3C709.046 1127.81 708.506 1128 708 1128V1136V1144C718.16 1144 725.453 1135.87 726.555 1127.01L718.616 1126.02ZM798 1046H790C790 1046.51 789.811 1047.05 789.304 1047.57C788.769 1048.13 787.961 1048.56 787.032 1048.68L788.02 1056.62L789.008 1064.56C797.867 1063.45 806 1056.16 806 1046H798ZM788.02 127.384L787.032 135.322C787.961 135.438 788.769 135.872 789.304 136.427C789.811 136.954 790 137.494 790 138H798H806C806 127.84 797.867 120.547 789.008 119.445L788.02 127.384ZM718.616 57.9801L726.555 56.9922C725.453 48.1329 718.16 40 708 40V48V56C708.506 56 709.046 56.1887 709.573 56.6958C710.128 57.2306 710.562 58.0389 710.678 58.9681L718.616 57.9801Z" fill="black" mask="url(#path-6-inside-1_97_43)"/>
<path d="M690 102C695.523 102 699.911 106.512 700.837 111.957C705.019 136.563 724.437 155.981 749.043 160.163C754.488 161.089 759 165.477 759 171V1014C759 1019.52 754.488 1023.91 749.043 1024.84C724.711 1028.97 705.454 1048 700.984 1072.22C699.993 1077.59 695.633 1082 690.175 1082H158.825C153.367 1082 149.007 1077.59 148.016 1072.22C143.546 1048 124.288 1028.97 99.9568 1024.84C94.5121 1023.91 90 1019.52 90 1014V171C90 165.477 94.512 161.089 99.9568 160.163C124.563 155.981 143.981 136.563 148.163 111.957C149.089 106.512 153.477 102 159 102H690Z" fill="#4BADDC"/>
<path d="M347.29 348.925L325.105 408H313.885L291.615 348.925H301.985L319.495 398.055L337.09 348.925H347.29ZM398.319 383.435C398.319 385.192 398.205 386.778 397.979 388.195H362.194C362.477 391.935 363.865 394.938 366.359 397.205C368.852 399.472 371.912 400.605 375.539 400.605C380.752 400.605 384.435 398.423 386.589 394.06H397.044C395.627 398.367 393.049 401.908 389.309 404.685C385.625 407.405 381.035 408.765 375.539 408.765C371.062 408.765 367.039 407.773 363.469 405.79C359.955 403.75 357.179 400.917 355.139 397.29C353.155 393.607 352.164 389.357 352.164 384.54C352.164 379.723 353.127 375.502 355.054 371.875C357.037 368.192 359.785 365.358 363.299 363.375C366.869 361.392 370.949 360.4 375.539 360.4C379.959 360.4 383.897 361.363 387.354 363.29C390.81 365.217 393.502 367.937 395.429 371.45C397.355 374.907 398.319 378.902 398.319 383.435ZM388.204 380.375C388.147 376.805 386.872 373.943 384.379 371.79C381.885 369.637 378.797 368.56 375.114 368.56C371.77 368.56 368.909 369.637 366.529 371.79C364.149 373.887 362.732 376.748 362.279 380.375H388.204ZM431.484 360.4C435.168 360.4 438.454 361.165 441.344 362.695C444.291 364.225 446.586 366.492 448.229 369.495C449.873 372.498 450.694 376.125 450.694 380.375V408H441.089V381.82C441.089 377.627 440.041 374.425 437.944 372.215C435.848 369.948 432.986 368.815 429.359 368.815C425.733 368.815 422.843 369.948 420.689 372.215C418.593 374.425 417.544 377.627 417.544 381.82V408H407.854V361.165H417.544V366.52C419.131 364.593 421.143 363.092 423.579 362.015C426.073 360.938 428.708 360.4 431.484 360.4ZM505.47 361.165V408H495.78V402.475C494.25 404.402 492.238 405.932 489.745 407.065C487.308 408.142 484.701 408.68 481.925 408.68C478.241 408.68 474.926 407.915 471.98 406.385C469.09 404.855 466.795 402.588 465.095 399.585C463.451 396.582 462.63 392.955 462.63 388.705V361.165H472.235V387.26C472.235 391.453 473.283 394.683 475.38 396.95C477.476 399.16 480.338 400.265 483.965 400.265C487.591 400.265 490.453 399.16 492.55 396.95C494.703 394.683 495.78 391.453 495.78 387.26V361.165H505.47ZM535.255 408.765C531.572 408.765 528.257 408.113 525.31 406.81C522.42 405.45 520.125 403.637 518.425 401.37C516.725 399.047 515.818 396.468 515.705 393.635H525.735C525.905 395.618 526.84 397.29 528.54 398.65C530.297 399.953 532.478 400.605 535.085 400.605C537.805 400.605 539.902 400.095 541.375 399.075C542.905 397.998 543.67 396.638 543.67 394.995C543.67 393.238 542.82 391.935 541.12 391.085C539.477 390.235 536.842 389.3 533.215 388.28C529.702 387.317 526.84 386.382 524.63 385.475C522.42 384.568 520.493 383.18 518.85 381.31C517.263 379.44 516.47 376.975 516.47 373.915C516.47 371.422 517.207 369.155 518.68 367.115C520.153 365.018 522.25 363.375 524.97 362.185C527.747 360.995 530.92 360.4 534.49 360.4C539.817 360.4 544.095 361.76 547.325 364.48C550.612 367.143 552.368 370.798 552.595 375.445H542.905C542.735 373.348 541.885 371.677 540.355 370.43C538.825 369.183 536.757 368.56 534.15 368.56C531.6 368.56 529.645 369.042 528.285 370.005C526.925 370.968 526.245 372.243 526.245 373.83C526.245 375.077 526.698 376.125 527.605 376.975C528.512 377.825 529.617 378.505 530.92 379.015C532.223 379.468 534.15 380.063 536.7 380.8C540.1 381.707 542.877 382.642 545.03 383.605C547.24 384.512 549.138 385.872 550.725 387.685C552.312 389.498 553.133 391.907 553.19 394.91C553.19 397.573 552.453 399.953 550.98 402.05C549.507 404.147 547.41 405.79 544.69 406.98C542.027 408.17 538.882 408.765 535.255 408.765Z" fill="black"/>
<mask id="path-10-outside-2_97_43" maskUnits="userSpaceOnUse" x="401" y="1006" width="47" height="32" fill="black">
<rect fill="white" x="401" y="1006" width="47" height="32"/>
<path d="M401.84 1030.92V1027.48L415.28 1008.2H420.8V1026.96H424.52V1030.92H420.8V1037H416.32V1030.92H401.84ZM416.52 1012.84L407.08 1026.96H416.52V1012.84ZM430.818 1030.8C433.378 1028.59 435.392 1026.77 436.858 1025.36C438.352 1023.92 439.592 1022.43 440.578 1020.88C441.565 1019.33 442.058 1017.79 442.058 1016.24C442.058 1014.64 441.672 1013.39 440.898 1012.48C440.152 1011.57 438.965 1011.12 437.338 1011.12C435.765 1011.12 434.538 1011.63 433.658 1012.64C432.805 1013.63 432.352 1014.96 432.298 1016.64H427.898C427.978 1013.6 428.885 1011.28 430.618 1009.68C432.378 1008.05 434.605 1007.24 437.298 1007.24C440.205 1007.24 442.472 1008.04 444.098 1009.64C445.752 1011.24 446.578 1013.37 446.578 1016.04C446.578 1017.96 446.085 1019.81 445.098 1021.6C444.138 1023.36 442.978 1024.95 441.618 1026.36C440.285 1027.75 438.578 1029.36 436.498 1031.2L434.698 1032.8H447.378V1036.6H427.938V1033.28L430.818 1030.8Z"/>
</mask>
<path d="M401.84 1030.92V1027.48L415.28 1008.2H420.8V1026.96H424.52V1030.92H420.8V1037H416.32V1030.92H401.84ZM416.52 1012.84L407.08 1026.96H416.52V1012.84ZM430.818 1030.8C433.378 1028.59 435.392 1026.77 436.858 1025.36C438.352 1023.92 439.592 1022.43 440.578 1020.88C441.565 1019.33 442.058 1017.79 442.058 1016.24C442.058 1014.64 441.672 1013.39 440.898 1012.48C440.152 1011.57 438.965 1011.12 437.338 1011.12C435.765 1011.12 434.538 1011.63 433.658 1012.64C432.805 1013.63 432.352 1014.96 432.298 1016.64H427.898C427.978 1013.6 428.885 1011.28 430.618 1009.68C432.378 1008.05 434.605 1007.24 437.298 1007.24C440.205 1007.24 442.472 1008.04 444.098 1009.64C445.752 1011.24 446.578 1013.37 446.578 1016.04C446.578 1017.96 446.085 1019.81 445.098 1021.6C444.138 1023.36 442.978 1024.95 441.618 1026.36C440.285 1027.75 438.578 1029.36 436.498 1031.2L434.698 1032.8H447.378V1036.6H427.938V1033.28L430.818 1030.8Z" fill="black"/>
<path d="M401.84 1030.92H401.54V1031.22H401.84V1030.92ZM401.84 1027.48L401.594 1027.31L401.54 1027.39V1027.48H401.84ZM415.28 1008.2V1007.9H415.123L415.034 1008.03L415.28 1008.2ZM420.8 1008.2H421.1V1007.9H420.8V1008.2ZM420.8 1026.96H420.5V1027.26H420.8V1026.96ZM424.52 1026.96H424.82V1026.66H424.52V1026.96ZM424.52 1030.92V1031.22H424.82V1030.92H424.52ZM420.8 1030.92V1030.62H420.5V1030.92H420.8ZM420.8 1037V1037.3H421.1V1037H420.8ZM416.32 1037H416.02V1037.3H416.32V1037ZM416.32 1030.92H416.62V1030.62H416.32V1030.92ZM416.52 1012.84H416.82V1011.85L416.271 1012.67L416.52 1012.84ZM407.08 1026.96L406.831 1026.79L406.519 1027.26H407.08V1026.96ZM416.52 1026.96V1027.26H416.82V1026.96H416.52ZM401.84 1030.92H402.14V1027.48H401.84H401.54V1030.92H401.84ZM401.84 1027.48L402.086 1027.65L415.526 1008.37L415.28 1008.2L415.034 1008.03L401.594 1027.31L401.84 1027.48ZM415.28 1008.2V1008.5H420.8V1008.2V1007.9H415.28V1008.2ZM420.8 1008.2H420.5V1026.96H420.8H421.1V1008.2H420.8ZM420.8 1026.96V1027.26H424.52V1026.96V1026.66H420.8V1026.96ZM424.52 1026.96H424.22V1030.92H424.52H424.82V1026.96H424.52ZM424.52 1030.92V1030.62H420.8V1030.92V1031.22H424.52V1030.92ZM420.8 1030.92H420.5V1037H420.8H421.1V1030.92H420.8ZM420.8 1037V1036.7H416.32V1037V1037.3H420.8V1037ZM416.32 1037H416.62V1030.92H416.32H416.02V1037H416.32ZM416.32 1030.92V1030.62H401.84V1030.92V1031.22H416.32V1030.92ZM416.52 1012.84L416.271 1012.67L406.831 1026.79L407.08 1026.96L407.329 1027.13L416.769 1013.01L416.52 1012.84ZM407.08 1026.96V1027.26H416.52V1026.96V1026.66H407.08V1026.96ZM416.52 1026.96H416.82V1012.84H416.52H416.22V1026.96H416.52ZM430.818 1030.8L431.014 1031.03L431.015 1031.03L430.818 1030.8ZM436.858 1025.36L437.067 1025.58L437.067 1025.58L436.858 1025.36ZM440.898 1012.48L440.667 1012.67L440.67 1012.67L440.898 1012.48ZM433.658 1012.64L433.432 1012.44L433.432 1012.44L433.658 1012.64ZM432.298 1016.64V1016.94H432.589L432.598 1016.65L432.298 1016.64ZM427.898 1016.64L427.599 1016.63L427.59 1016.94H427.898V1016.64ZM430.618 1009.68L430.822 1009.9L430.822 1009.9L430.618 1009.68ZM444.098 1009.64L443.888 1009.85L443.89 1009.86L444.098 1009.64ZM445.098 1021.6L444.836 1021.45L444.835 1021.46L445.098 1021.6ZM441.618 1026.36L441.402 1026.15L441.402 1026.15L441.618 1026.36ZM436.498 1031.2L436.3 1030.98L436.299 1030.98L436.498 1031.2ZM434.698 1032.8L434.499 1032.58L433.909 1033.1H434.698V1032.8ZM447.378 1032.8H447.678V1032.5H447.378V1032.8ZM447.378 1036.6V1036.9H447.678V1036.6H447.378ZM427.938 1036.6H427.638V1036.9H427.938V1036.6ZM427.938 1033.28L427.743 1033.05L427.638 1033.14V1033.28H427.938ZM430.818 1030.8L431.015 1031.03C433.576 1028.81 435.594 1026.99 437.067 1025.58L436.858 1025.36L436.65 1025.14C435.189 1026.55 433.18 1028.36 430.622 1030.57L430.818 1030.8ZM436.858 1025.36L437.067 1025.58C438.575 1024.12 439.83 1022.61 440.831 1021.04L440.578 1020.88L440.326 1020.72C439.353 1022.24 438.129 1023.72 436.65 1025.14L436.858 1025.36ZM440.578 1020.88L440.831 1021.04C441.843 1019.46 442.358 1017.85 442.358 1016.24H442.058H441.758C441.758 1017.72 441.287 1019.21 440.326 1020.72L440.578 1020.88ZM442.058 1016.24H442.358C442.358 1014.59 441.96 1013.26 441.127 1012.29L440.898 1012.48L440.67 1012.67C441.383 1013.51 441.758 1014.69 441.758 1016.24H442.058ZM440.898 1012.48L441.13 1012.29C440.307 1011.29 439.018 1010.82 437.338 1010.82V1011.12V1011.42C438.912 1011.42 439.997 1011.86 440.667 1012.67L440.898 1012.48ZM437.338 1011.12V1010.82C435.695 1010.82 434.379 1011.35 433.432 1012.44L433.658 1012.64L433.885 1012.84C434.698 1011.9 435.835 1011.42 437.338 1011.42V1011.12ZM433.658 1012.64L433.432 1012.44C432.522 1013.5 432.053 1014.9 431.999 1016.63L432.298 1016.64L432.598 1016.65C432.65 1015.02 433.089 1013.76 433.885 1012.84L433.658 1012.64ZM432.298 1016.64V1016.34H427.898V1016.64V1016.94H432.298V1016.64ZM427.898 1016.64L428.198 1016.65C428.277 1013.66 429.164 1011.43 430.822 1009.9L430.618 1009.68L430.415 1009.46C428.606 1011.13 427.68 1013.54 427.599 1016.63L427.898 1016.64ZM430.618 1009.68L430.822 1009.9C432.52 1008.33 434.671 1007.54 437.298 1007.54V1007.24V1006.94C434.54 1006.94 432.237 1007.78 430.415 1009.46L430.618 1009.68ZM437.298 1007.24V1007.54C440.149 1007.54 442.332 1008.32 443.888 1009.85L444.098 1009.64L444.309 1009.43C442.612 1007.76 440.261 1006.94 437.298 1006.94V1007.24ZM444.098 1009.64L443.89 1009.86C445.475 1011.39 446.278 1013.44 446.278 1016.04H446.578H446.878C446.878 1013.31 446.028 1011.09 444.307 1009.42L444.098 1009.64ZM446.578 1016.04H446.278C446.278 1017.91 445.8 1019.71 444.836 1021.45L445.098 1021.6L445.361 1021.75C446.371 1019.92 446.878 1018.01 446.878 1016.04H446.578ZM445.098 1021.6L444.835 1021.46C443.888 1023.19 442.743 1024.76 441.402 1026.15L441.618 1026.36L441.835 1026.57C443.214 1025.14 444.389 1023.53 445.362 1021.74L445.098 1021.6ZM441.618 1026.36L441.402 1026.15C440.076 1027.53 438.376 1029.14 436.3 1030.98L436.498 1031.2L436.697 1031.42C438.781 1029.58 440.494 1027.96 441.835 1026.57L441.618 1026.36ZM436.498 1031.2L436.299 1030.98L434.499 1032.58L434.698 1032.8L434.898 1033.02L436.698 1031.42L436.498 1031.2ZM434.698 1032.8V1033.1H447.378V1032.8V1032.5H434.698V1032.8ZM447.378 1032.8H447.078V1036.6H447.378H447.678V1032.8H447.378ZM447.378 1036.6V1036.3H427.938V1036.6V1036.9H447.378V1036.6ZM427.938 1036.6H428.238V1033.28H427.938H427.638V1036.6H427.938ZM427.938 1033.28L428.134 1033.51L431.014 1031.03L430.818 1030.8L430.623 1030.57L427.743 1033.05L427.938 1033.28Z" fill="black" mask="url(#path-10-outside-2_97_43)"/>
<path d="M328.91 197.975L303.395 272H277.04L251.42 197.975H273.47L290.27 251.42L306.965 197.975H328.91ZM391.602 241.865C391.602 243.475 391.497 245.085 391.287 246.695H352.332C352.542 249.915 353.417 252.33 354.957 253.94C356.567 255.48 358.597 256.25 361.047 256.25C364.477 256.25 366.927 254.71 368.397 251.63H390.342C389.432 255.69 387.647 259.33 384.987 262.55C382.397 265.7 379.107 268.185 375.117 270.005C371.127 271.825 366.717 272.735 361.887 272.735C356.077 272.735 350.897 271.51 346.347 269.06C341.867 266.61 338.332 263.11 335.742 258.56C333.222 254.01 331.962 248.655 331.962 242.495C331.962 236.335 333.222 231.015 335.742 226.535C338.262 221.985 341.762 218.485 346.242 216.035C350.792 213.585 356.007 212.36 361.887 212.36C367.697 212.36 372.842 213.55 377.322 215.93C381.802 218.31 385.302 221.74 387.822 226.22C390.342 230.63 391.602 235.845 391.602 241.865ZM370.602 236.72C370.602 234.2 369.762 232.24 368.082 230.84C366.402 229.37 364.302 228.635 361.782 228.635C359.262 228.635 357.197 229.335 355.587 230.735C353.977 232.065 352.927 234.06 352.437 236.72H370.602ZM438.56 212.57C445.35 212.57 450.74 214.845 454.73 219.395C458.72 223.875 460.715 229.965 460.715 237.665V272H440.135V240.395C440.135 237.035 439.26 234.41 437.51 232.52C435.76 230.56 433.415 229.58 430.475 229.58C427.395 229.58 424.98 230.56 423.23 232.52C421.48 234.41 420.605 237.035 420.605 240.395V272H400.025V213.095H420.605V221.495C422.425 218.835 424.875 216.7 427.955 215.09C431.035 213.41 434.57 212.57 438.56 212.57ZM532.277 213.095V272H511.592V263.6C509.842 266.26 507.427 268.43 504.347 270.11C501.267 271.72 497.732 272.525 493.742 272.525C486.882 272.525 481.457 270.285 477.467 265.805C473.547 261.255 471.587 255.095 471.587 247.325V213.095H492.062V244.7C492.062 248.06 492.937 250.72 494.687 252.68C496.507 254.57 498.887 255.515 501.827 255.515C504.837 255.515 507.217 254.57 508.967 252.68C510.717 250.72 511.592 248.06 511.592 244.7V213.095H532.277ZM569.084 272.735C563.764 272.735 559.004 271.86 554.804 270.11C550.674 268.29 547.384 265.84 544.934 262.76C542.554 259.61 541.224 256.075 540.944 252.155H560.894C561.174 254.045 562.049 255.515 563.519 256.565C564.989 257.615 566.809 258.14 568.979 258.14C570.659 258.14 571.989 257.79 572.969 257.09C573.949 256.39 574.439 255.48 574.439 254.36C574.439 252.89 573.634 251.805 572.024 251.105C570.414 250.405 567.754 249.635 564.044 248.795C559.844 247.955 556.344 247.01 553.544 245.96C550.744 244.91 548.294 243.195 546.194 240.815C544.164 238.435 543.149 235.215 543.149 231.155C543.149 227.655 544.094 224.505 545.984 221.705C547.874 218.835 550.639 216.56 554.279 214.88C557.989 213.2 562.434 212.36 567.614 212.36C575.314 212.36 581.369 214.25 585.779 218.03C590.189 221.81 592.744 226.78 593.444 232.94H574.859C574.509 231.05 573.669 229.615 572.339 228.635C571.079 227.585 569.364 227.06 567.194 227.06C565.514 227.06 564.219 227.375 563.309 228.005C562.469 228.635 562.049 229.51 562.049 230.63C562.049 232.03 562.854 233.115 564.464 233.885C566.074 234.585 568.664 235.32 572.234 236.09C576.504 237 580.039 238.015 582.839 239.135C585.709 240.255 588.194 242.075 590.294 244.595C592.464 247.045 593.549 250.405 593.549 254.675C593.549 258.105 592.534 261.185 590.504 263.915C588.544 266.645 585.709 268.815 581.999 270.425C578.359 271.965 574.054 272.735 569.084 272.735Z" fill="black"/>
<path d="M418.825 464.054C559.086 461.195 675.102 572.59 677.947 712.851C680.791 853.112 569.385 969.118 429.123 971.948C288.881 974.776 172.897 863.39 170.053 723.149C167.21 582.909 278.585 466.912 418.825 464.054Z" fill="black"/>
<path d="M616.401 590.025C618.207 591.168 620.098 593.566 620.771 595.619C643.605 625.17 657.82 686.964 656.015 722.845C649.597 729.715 640.851 734.507 632.417 738.496C579.745 751.973 515.455 743.125 472.793 775.867C448.18 794.757 429.92 822.934 402.503 838.08C354.631 870.025 288.596 840.203 254.051 874.849C226.996 846.147 208.87 812.349 198.786 774.277C217.987 779.642 234.52 775.088 249.081 760.865C266.714 743.642 282.791 731.064 309.743 741.451C323.338 745.837 335.303 753.439 349.633 755.87C409.566 766.034 413.431 698.821 462.4 679.269C512.862 659.121 571.891 694.818 605.854 633.208L606.999 631.419C603.066 631.155 599.45 631.353 599.189 628.177C599.65 627.071 600.717 625.901 601.42 624.907C603.823 614.665 609.002 596.566 616.401 590.025Z" fill="#FD9E30"/>
<path d="M198.786 774.277C217.987 779.642 234.52 775.088 249.081 760.865C266.714 743.642 282.791 731.064 309.743 741.452C308.995 745.287 321.904 763.717 324.725 767.9C344.429 797.103 371.446 821.495 402.503 838.08C354.631 870.026 288.596 840.203 254.051 874.849C226.996 846.147 208.87 812.349 198.786 774.277Z" fill="#F05D22"/>
<path d="M268.185 788.366C299.351 785.602 323.852 828.773 291.504 839.334C259.35 846.102 237.124 795.297 268.185 788.366Z" fill="black"/>
<path d="M271.208 797.998C291.842 799.273 306.988 824.841 288.784 830.457C269.751 832.265 252.225 800.198 271.208 797.998Z" fill="#11181E"/>
<path d="M616.401 590.025C618.207 591.168 620.098 593.566 620.772 595.619C643.605 625.17 657.82 686.964 656.016 722.845C649.598 729.715 640.851 734.507 632.417 738.496C631.264 734.842 631.758 729.294 631.62 725.38C631.103 710.579 628.818 698.935 626.343 684.395C637.767 669.943 629.627 657.269 623.567 672.014C621.69 670.981 610.191 640.009 605.854 633.208L606.999 631.419C603.066 631.155 599.451 631.353 599.189 628.177C599.65 627.071 600.717 625.901 601.42 624.907C603.823 614.665 609.002 596.566 616.401 590.025Z" fill="#FFDE8F"/>
<path d="M616.401 590.025C618.207 591.168 620.098 593.566 620.772 595.619C614.079 602.467 610.978 620.943 606.999 631.419C603.066 631.155 599.451 631.353 599.189 628.177C599.65 627.071 600.717 625.901 601.42 624.907C603.823 614.665 609.002 596.566 616.401 590.025Z" fill="black"/>
<path d="M623.567 672.014C629.627 657.269 637.767 669.943 626.342 684.395C623.823 686.945 615.636 694.529 612.937 688.101C611.653 685.044 620.925 678.096 623.567 672.014Z" fill="black"/>
<path d="M411.04 769.816C414.328 769.476 418.569 770.939 416.416 775.194C414.318 779.342 404.824 783.982 400.543 785.559C396.638 786.273 392.66 784.056 395.151 779.505C397.772 774.716 406.127 771.431 411.04 769.816Z" fill="black"/>
<path d="M497.348 705.142C500.491 705.108 504.437 707.789 502.208 711.286C499.799 715.067 491.833 717.12 487.684 717.958C484 718.008 479.446 715.258 482.358 711.052C484.98 707.262 493.118 705.929 497.348 705.142Z" fill="black"/>
<path d="M361.647 495.469C389.042 483.685 441.609 484.973 469.407 491.088C474.491 492.207 479.882 492.981 484.523 495.469C488.61 495.327 493.641 497.764 497.348 499.367C505.943 501.858 514.859 505.527 522.798 509.619C526.415 511.266 530.29 512.796 533.607 515.001C536.197 516.236 539.521 517.455 541.52 519.531C556.907 527.004 586.406 551.043 596.999 564.585C598.476 565.505 600.788 567.556 601.42 569.214C592.521 577.655 583.397 582.144 572.88 588.116C570.316 585.345 570.43 587.562 568.353 583.294H566.762C536.793 602.486 529.858 634.566 493.6 639.945C419.838 650.889 383.935 570.169 312.085 615.96C298.756 624.454 286.9 635.365 275.559 646.303L260.463 660.064C238.864 679.61 222.917 693.332 193.341 691.851C199.724 621.692 246.137 552.833 306.938 518.495C320.315 510.063 346.239 497.838 361.647 495.469Z" fill="#FD9E30"/>
<path d="M193.341 691.851C199.724 621.692 246.137 552.833 306.938 518.495C305.291 527.793 293.866 539.917 291.504 555.376C316.525 572.117 297.894 600.685 272.724 598.899C273.483 609.744 271.214 637.893 275.559 646.303L260.463 660.065C238.864 679.61 222.917 693.332 193.341 691.851Z" fill="#F05D22"/>
<path d="M272.724 598.899C237.944 593.366 263.919 546.908 291.504 555.376C316.525 572.117 297.894 600.685 272.724 598.899Z" fill="black"/>
<path d="M284.535 562.151C299.123 569.207 295.406 581.131 283.502 588.116C280.893 589.095 278.326 589.709 275.56 590.025C276.157 580.762 281.127 570.757 284.535 562.151Z" fill="#473B47"/>
<path d="M234.705 621.503C244.057 623.7 230.123 639.166 223.996 640.665C214.51 638.75 228.782 623.149 234.705 621.503Z" fill="black"/>
<path d="M361.647 495.469C389.043 483.685 441.609 484.973 469.407 491.088C474.491 492.207 479.882 492.981 484.523 495.469C488.611 495.327 493.641 497.764 497.348 499.367C505.943 501.858 514.859 505.527 522.798 509.619C526.415 511.266 530.29 512.796 533.607 515.001C536.198 516.236 539.522 517.455 541.52 519.531C539.165 537.405 541.477 537.414 523.847 550.078C521.304 548.288 517.702 546.997 514.826 545.804C508.596 541.923 501.458 539.54 494.87 536.331C491.563 534.94 487.899 534.324 484.523 533.051C479.655 527.056 430.757 512.205 420.427 509.407C414.809 507.886 405.264 506.833 400.543 504.249C399.428 504.211 398.327 504.162 397.215 504.249C388.789 498.824 360.384 502.472 361.647 495.469Z" fill="#FC9277"/>
<path d="M497.348 499.367C505.943 501.858 514.859 505.527 522.798 509.619C526.415 511.266 530.289 512.796 533.607 515C536.197 516.236 539.521 517.455 541.52 519.53C539.165 537.405 541.477 537.414 523.847 550.078C521.303 548.288 517.702 546.997 514.826 545.804C508.596 541.923 501.458 539.54 494.87 536.331C491.563 534.94 487.898 534.324 484.523 533.051C492.574 526.707 497.91 523.864 495.533 512.088H503.725C502.58 507.206 498.215 503.157 497.348 499.367Z" fill="#FDC49F"/>
<path d="M533.607 515.001C536.198 516.236 539.522 517.456 541.521 519.531C539.165 537.405 541.477 537.415 523.847 550.079C521.304 548.289 517.703 546.998 514.827 545.805C528.896 538.631 535.154 531.361 533.607 515.001Z" fill="#847C7F"/>
<path d="M495.533 512.088H503.725C505.003 522.134 503.005 530.156 494.87 536.331C491.563 534.94 487.898 534.324 484.523 533.05C492.574 526.707 497.91 523.864 495.533 512.088Z" fill="#847C7F"/>
<path d="M497.348 499.367C505.943 501.858 514.859 505.527 522.798 509.619C517.355 511.394 505.736 511.112 503.725 512.088C502.58 507.206 498.215 503.157 497.348 499.367Z" fill="#FC9277"/>
<path d="M400.542 504.249C429.484 494.542 465.773 509.654 495.533 512.088C497.91 523.864 492.574 526.707 484.523 533.051C479.655 527.055 430.757 512.205 420.426 509.407C414.809 507.886 405.264 506.832 400.542 504.249Z" fill="#FFDE8F"/>
<path d="M484.523 495.47C488.61 495.327 493.641 497.765 497.348 499.368C498.215 503.158 502.58 507.206 503.725 512.089H495.533C493.369 505.373 489.714 500.227 484.523 495.47Z" fill="#11181E"/>
<path d="M400.543 504.249C405.264 506.832 414.809 507.886 420.427 509.407C430.758 512.204 479.655 527.055 484.523 533.05C481.804 534.247 478.588 535.995 475.632 536.331C463.474 534.386 427.652 539.098 415.804 541.195C400.914 543.829 386.243 547.716 371.386 550.606C362.554 552.324 342.408 558.467 339.366 545.374C334.642 525.051 379.522 508.369 397.215 504.249C398.327 504.161 399.428 504.211 400.543 504.249Z" fill="#FECF5E"/>
<path d="M523.847 550.078C541.477 537.414 539.165 537.405 541.52 519.53C556.907 527.004 586.406 551.042 596.999 564.585C598.476 565.504 600.788 567.556 601.42 569.214C592.521 577.654 583.397 582.143 572.88 588.116C570.316 585.344 570.43 587.561 568.353 583.294H566.762C550.911 568.958 540.366 561.932 523.847 550.078Z" fill="#FFDE8F"/>
<path d="M596.999 564.585C598.476 565.504 600.788 567.556 601.419 569.214C592.521 577.655 583.397 582.144 572.88 588.116C570.316 585.345 570.429 587.561 568.353 583.294C569.613 581.306 588.991 572.747 596.999 564.585Z" fill="#11181E"/>
<path d="M494.87 536.331C501.458 539.54 508.596 541.923 514.826 545.805C494.077 556.867 484.713 582.951 463.618 580.495C455.933 579.601 443.741 575.653 445.268 565.83C447.289 552.826 482.916 545.522 494.87 536.331Z" fill="#F05D22"/>
<path d="M484.523 533.051C487.898 534.324 491.563 534.94 494.87 536.331C482.917 545.522 447.289 552.826 445.268 565.83C443.741 575.653 455.933 579.601 463.618 580.495C484.713 582.951 494.077 556.867 514.826 545.805C517.702 546.998 521.303 548.288 523.847 550.078C504.405 560.784 496.18 579.33 483.446 586.18C465.45 595.859 429.06 585.324 436.912 561.388C441.998 545.885 462.854 542.705 475.632 536.331C478.587 535.995 481.804 534.248 484.523 533.051Z" fill="black"/>
<path d="M601.42 569.214C606.404 576.218 612.14 582.493 616.401 590.025C609.002 596.566 603.823 614.665 601.42 624.907C600.717 625.901 599.65 627.071 599.189 628.177C587.322 649.87 562.174 664.659 537.319 662.293C527.567 663.922 517.4 662.587 507.558 662.846C462.412 664.034 439.241 673.513 411.842 710.345C378.218 755.542 369.253 754.027 320.224 735.253C314.748 733.156 308.98 731.943 303.609 729.569C302.639 726.938 300.942 724.195 299.726 721.635C289.891 700.923 283.141 679.335 277.52 657.123C300.881 633.892 330.535 606.257 366.049 611.828C393.118 616.074 415.199 635.591 440.988 643.939C462.804 651 473.318 649.154 493.991 650.215C496.707 649.106 499.742 648.639 502.586 647.926C534.112 640.011 547.568 606.41 572.88 588.116C583.397 582.143 592.521 577.654 601.42 569.214Z" fill="url(#paint0_linear_97_43)"/>
<path d="M601.42 569.214C606.405 576.218 612.141 582.493 616.401 590.025C609.002 596.566 603.823 614.665 601.42 624.907C600.717 625.901 599.65 627.071 599.189 628.177C587.323 649.87 562.174 664.659 537.319 662.293C526.131 660.765 496.144 662.437 485.346 663.587C480.985 664.051 476.784 665.216 472.505 665.672L472.062 665.195C472.196 663.993 473.22 663.586 473.335 662.434C469.608 660.452 476.088 656.991 466.887 652.255L466.86 651.52C465.51 650.39 465.399 651.841 462.979 649.832C467.358 648.629 488.763 653.345 493.992 650.215C496.708 649.106 499.742 648.639 502.587 647.926C534.112 640.011 547.568 606.41 572.881 588.116C583.398 582.143 592.521 577.654 601.42 569.214Z" fill="#854348"/>
<path d="M601.42 569.214C606.404 576.218 612.141 582.493 616.401 590.025C609.002 596.566 603.823 614.665 601.42 624.907C597.165 619.72 593.917 613.675 589.749 608.362C584.502 601.672 577.648 594.83 572.88 588.116C583.398 582.143 592.521 577.654 601.42 569.214Z" fill="#F6696F"/>
<path d="M567.999 613.689C575.295 613.135 581.646 618.628 582.152 625.927C582.658 633.226 577.124 639.543 569.822 640.001C562.586 640.454 556.34 634.982 555.84 627.749C555.339 620.518 560.77 614.236 567.999 613.689Z" fill="#F6696F"/>
<path d="M320.49 655.923C347.486 653.543 345.827 676.841 355.179 685.125C360.12 689.503 368.242 687.971 373.949 691.674C390.35 702.315 380.924 723.465 361.647 727.127C312.821 734.855 275.484 664.452 320.49 655.923Z" fill="#F6696F"/>
<path d="M389.037 654.048C395.747 653.116 401.944 657.794 402.889 664.502C403.833 671.21 399.169 677.417 392.463 678.374C385.737 679.335 379.508 674.654 378.561 667.927C377.614 661.2 382.308 654.98 389.037 654.048Z" fill="#F6696F"/>
<path d="M519.805 873.774C548.127 851.041 560.638 813.373 595.193 798.056C612.019 790.597 630.144 792.188 646.003 785.559C639.881 807.869 623.259 842.432 606.999 860.1C600.788 868.374 593.553 875.856 586.128 883.039C506.697 959.886 380.031 972.505 290.736 907.026C289.072 905.806 290.959 904.985 292.282 904.699C302.57 902.472 319.603 912.039 330.757 913.662C346.276 915.921 362.519 907.925 375.73 900.807C397.653 888.993 404.465 887.345 429.271 887.355C458.949 887.368 494.878 892.106 519.805 873.774Z" fill="#F05D22"/>
<path d="M519.805 873.774C548.127 851.041 560.637 813.373 595.193 798.056C612.019 790.597 630.144 792.188 646.002 785.559C639.88 807.869 623.258 842.432 606.999 860.1C600.231 861.314 593.839 864.12 587.284 866.112C564.844 872.932 556.226 874.962 532.509 874.856C529.088 874.841 522.612 875.884 519.805 873.774Z" fill="#FD9E30"/>
<path d="M493.991 907.625C499.441 906.996 502.235 909.813 497.932 914.02C488.318 923.42 468.534 925.292 455.286 925.046C432.475 923.296 472.973 914.164 473.978 913.868C480.668 911.896 487.063 908.708 493.991 907.625Z" fill="black"/>
<path d="M630.46 749.439C642.178 745.252 645.284 742.825 655.089 736.646C653.927 747.042 652.332 763.519 648.799 773.245C640.934 778.323 632.941 781.468 623.567 782.4C584.112 785.14 563.376 804.161 540.955 835.849C534.463 845.022 527.76 855.561 518.626 862.327C500.257 862.471 475.129 860.623 457.177 855.232C445.962 853.356 424.761 846.22 414.779 841.994C419.872 838.392 424.419 834.095 429.483 830.457C431.384 827.885 435.076 825.339 437.482 823.132C452.036 809.779 464.631 793.508 480.651 782.005C521.36 752.777 581.539 761.289 630.46 749.439Z" fill="url(#paint1_linear_97_43)"/>
<path d="M630.46 749.439C642.178 745.252 645.284 742.825 655.089 736.646C653.926 747.042 652.332 763.519 648.799 773.245C640.933 778.323 632.941 781.468 623.566 782.4C624.783 772.035 629.248 761.816 630.46 749.439Z" fill="#C16572"/>
<path d="M429.483 830.457C425.955 837.406 441.627 854.181 444.814 849.765L445.013 850.004C445.507 850.584 445.813 851.003 446.58 851.211L447.204 850.194L447.584 850.365L447.369 851.213L448.012 851.647C448.686 851.511 449.024 851.229 449.555 850.803L450.02 850.971L449.971 852.042C451.639 852.799 456.2 853.98 457.177 855.231C445.962 853.355 424.761 846.22 414.779 841.994C419.872 838.392 424.419 834.095 429.483 830.457Z" fill="#473B47"/>
<path d="M495.534 806.246C517.962 805.717 500.749 840.038 475.633 843.123C449.286 843.755 469.927 809.134 495.534 806.246Z" fill="#F6696F"/>
<path d="M559.14 774.277C568.41 772.418 568.345 781.096 562.691 785.559C555.336 785.147 552.034 777.64 559.14 774.277Z" fill="#FC9277"/>
<path d="M261.334 881.693C283.112 864.175 304.304 866.353 330.883 865.911C358.409 865.451 381.577 860.796 405.91 847.422C408.755 845.858 411.349 843.772 414.209 842.287L414.779 841.995C424.761 846.221 445.962 853.356 457.176 855.232C475.129 860.624 500.257 862.472 518.626 862.328C508.016 876.79 477.782 877.562 461.973 877.466L430.165 877.425C419.519 877.501 410.255 877.177 399.714 879.494C378.669 884.119 360.754 901.435 339.64 903.578C320.123 905.558 299.277 886.18 279.931 899.667C273.796 893.593 266.966 888.287 261.334 881.693Z" fill="#11181E"/>
<path d="M192.133 701.716C225.414 701.971 239.712 690.862 264.942 668.674C269.015 665.092 272.718 660.782 277.015 657.503L277.52 657.124C283.141 679.336 289.891 700.923 299.726 721.636C300.942 724.196 302.639 726.938 303.609 729.57C295.302 729.998 287.177 728.332 278.928 730.122C248.875 736.646 228.044 785.015 195.98 759.838C191.608 745.426 192.12 716.763 192.133 701.716Z" fill="#11181E"/>
<defs>
<linearGradient id="paint0_linear_97_43" x1="317.273" y1="739.269" x2="412.407" y2="611.025" gradientUnits="userSpaceOnUse">
<stop stop-color="#1F1D2B"/>
<stop offset="1" stop-color="#753B43"/>
</linearGradient>
<linearGradient id="paint1_linear_97_43" x1="473.407" y1="874.983" x2="590.977" y2="720.961" gradientUnits="userSpaceOnUse">
<stop stop-color="#2A2431"/>
<stop offset="1" stop-color="#91474D"/>
</linearGradient>
</defs>
</svg>
