<svg width="849" height="1183" viewBox="0 0 849 1183" fill="none" xmlns="http://www.w3.org/2000/svg">
<rect x="5" y="5" width="839" height="1173" rx="45" fill="white"/>
<rect x="5" y="5" width="839" height="1173" rx="45" stroke="black" stroke-width="10"/>
<circle cx="786.5" cy="1124.5" r="11.5" fill="black"/>
<circle cx="786.5" cy="59.5" r="11.5" fill="black"/>
<path d="M77 1124.5C77 1130.85 71.8513 1136 65.5 1136C59.1487 1136 54 1130.85 54 1124.5C54 1118.15 59.1487 1113 65.5 1113C71.8513 1113 77 1118.15 77 1124.5Z" fill="black"/>
<path d="M77 59.5C77 65.8513 71.8513 71 65.5 71C59.1487 71 54 65.8513 54 59.5C54 53.1487 59.1487 48 65.5 48C71.8513 48 77 53.1487 77 59.5Z" fill="black"/>
<mask id="path-6-inside-1_97_48" fill="white">
<path d="M708 48C713.523 48 717.934 52.4996 718.616 57.9801C723.122 94.1833 751.817 122.878 788.02 127.384C793.5 128.066 798 132.477 798 138V1046C798 1051.52 793.5 1055.93 788.02 1056.62C751.817 1061.12 723.122 1089.82 718.616 1126.02C717.934 1131.5 713.523 1136 708 1136H141C135.477 1136 131.066 1131.5 130.384 1126.02C125.878 1089.82 97.1833 1061.12 60.9801 1056.62C55.4996 1055.93 51 1051.52 51 1046V138C51 132.477 55.4996 128.066 60.9801 127.384C97.1833 122.878 125.878 94.1833 130.384 57.9801C131.066 52.4996 135.477 48 141 48H708Z"/>
</mask>
<path d="M708 48C713.523 48 717.934 52.4996 718.616 57.9801C723.122 94.1833 751.817 122.878 788.02 127.384C793.5 128.066 798 132.477 798 138V1046C798 1051.52 793.5 1055.93 788.02 1056.62C751.817 1061.12 723.122 1089.82 718.616 1126.02C717.934 1131.5 713.523 1136 708 1136H141C135.477 1136 131.066 1131.5 130.384 1126.02C125.878 1089.82 97.1833 1061.12 60.9801 1056.62C55.4996 1055.93 51 1051.52 51 1046V138C51 132.477 55.4996 128.066 60.9801 127.384C97.1833 122.878 125.878 94.1833 130.384 57.9801C131.066 52.4996 135.477 48 141 48H708Z" fill="#C357B5"/>
<path d="M130.384 1126.02L138.322 1125.03L130.384 1126.02ZM718.616 1126.02L710.678 1125.03L718.616 1126.02ZM788.02 1056.62L789.008 1064.56L788.02 1056.62ZM718.616 57.9801L726.555 56.9922L718.616 57.9801ZM718.616 57.9801L710.678 58.9681C715.635 98.8063 747.194 130.365 787.032 135.322L788.02 127.384L789.008 119.445C756.44 115.392 730.608 89.5603 726.555 56.9922L718.616 57.9801ZM798 138H790V1046H798H806V138H798ZM788.02 1056.62L787.032 1048.68C747.194 1053.64 715.635 1085.19 710.678 1125.03L718.616 1126.02L726.555 1127.01C730.608 1094.44 756.44 1068.61 789.008 1064.56L788.02 1056.62ZM708 1136V1128H141V1136V1144H708V1136ZM130.384 1126.02L138.322 1125.03C133.365 1085.19 101.806 1053.64 61.9681 1048.68L60.9801 1056.62L59.9922 1064.56C92.5603 1068.61 118.392 1094.44 122.445 1127.01L130.384 1126.02ZM51 1046H59V138H51H43V1046H51ZM60.9801 127.384L61.9681 135.322C101.806 130.365 133.365 98.8063 138.322 58.9681L130.384 57.9801L122.445 56.9922C118.392 89.5603 92.5603 115.392 59.9922 119.445L60.9801 127.384ZM141 48V56H708V48V40H141V48ZM130.384 57.9801L138.322 58.9681C138.438 58.0389 138.872 57.2306 139.427 56.6958C139.954 56.1887 140.494 56 141 56V48V40C130.84 40 123.547 48.1329 122.445 56.9922L130.384 57.9801ZM51 138H59C59 137.494 59.1887 136.954 59.6958 136.427C60.2306 135.872 61.0389 135.438 61.9681 135.322L60.9801 127.384L59.9922 119.445C51.1329 120.547 43 127.84 43 138H51ZM60.9801 1056.62L61.9681 1048.68C61.0389 1048.56 60.2306 1048.13 59.6958 1047.57C59.1887 1047.05 59 1046.51 59 1046H51H43C43 1056.16 51.1329 1063.45 59.9922 1064.56L60.9801 1056.62ZM141 1136V1128C140.494 1128 139.954 1127.81 139.427 1127.3C138.872 1126.77 138.438 1125.96 138.322 1125.03L130.384 1126.02L122.445 1127.01C123.547 1135.87 130.84 1144 141 1144V1136ZM718.616 1126.02L710.678 1125.03C710.562 1125.96 710.128 1126.77 709.573 1127.3C709.046 1127.81 708.506 1128 708 1128V1136V1144C718.16 1144 725.453 1135.87 726.555 1127.01L718.616 1126.02ZM798 1046H790C790 1046.51 789.811 1047.05 789.304 1047.57C788.769 1048.13 787.961 1048.56 787.032 1048.68L788.02 1056.62L789.008 1064.56C797.867 1063.45 806 1056.16 806 1046H798ZM788.02 127.384L787.032 135.322C787.961 135.438 788.769 135.872 789.304 136.427C789.811 136.954 790 137.494 790 138H798H806C806 127.84 797.867 120.547 789.008 119.445L788.02 127.384ZM718.616 57.9801L726.555 56.9922C725.453 48.1329 718.16 40 708 40V48V56C708.506 56 709.046 56.1887 709.573 56.6958C710.128 57.2306 710.562 58.0389 710.678 58.9681L718.616 57.9801Z" fill="black" mask="url(#path-6-inside-1_97_48)"/>
<path d="M690 102C695.523 102 699.911 106.512 700.837 111.957C705.019 136.563 724.437 155.981 749.043 160.163C754.488 161.089 759 165.477 759 171V1014C759 1019.52 754.488 1023.91 749.043 1024.84C724.711 1028.97 705.454 1048 700.984 1072.22C699.993 1077.59 695.633 1082 690.175 1082H158.825C153.367 1082 149.007 1077.59 148.016 1072.22C143.546 1048 124.288 1028.97 99.9568 1024.84C94.5121 1023.91 90 1019.52 90 1014V171C90 165.477 94.512 161.089 99.9568 160.163C124.563 155.981 143.981 136.563 148.163 111.957C149.089 106.512 153.477 102 159 102H690Z" fill="#D78BCD"/>
<path d="M368.595 348.925V408H358.905V367.54L340.885 408H334.17L316.065 367.54V408H306.375V348.925H316.83L337.57 395.25L358.225 348.925H368.595ZM378.101 384.37C378.101 379.667 379.064 375.502 380.991 371.875C382.974 368.248 385.638 365.443 388.981 363.46C392.381 361.42 396.121 360.4 400.201 360.4C403.884 360.4 407.086 361.137 409.806 362.61C412.583 364.027 414.793 365.812 416.436 367.965V361.165H426.211V408H416.436V401.03C414.793 403.24 412.554 405.082 409.721 406.555C406.888 408.028 403.658 408.765 400.031 408.765C396.008 408.765 392.324 407.745 388.981 405.705C385.638 403.608 382.974 400.718 380.991 397.035C379.064 393.295 378.101 389.073 378.101 384.37ZM416.436 384.54C416.436 381.31 415.756 378.505 414.396 376.125C413.093 373.745 411.364 371.932 409.211 370.685C407.058 369.438 404.734 368.815 402.241 368.815C399.748 368.815 397.424 369.438 395.271 370.685C393.118 371.875 391.361 373.66 390.001 376.04C388.698 378.363 388.046 381.14 388.046 384.37C388.046 387.6 388.698 390.433 390.001 392.87C391.361 395.307 393.118 397.177 395.271 398.48C397.481 399.727 399.804 400.35 402.241 400.35C404.734 400.35 407.058 399.727 409.211 398.48C411.364 397.233 413.093 395.42 414.396 393.04C415.756 390.603 416.436 387.77 416.436 384.54ZM448.628 367.965C450.045 365.585 451.915 363.743 454.238 362.44C456.618 361.08 459.423 360.4 462.653 360.4V370.43H460.188C456.392 370.43 453.502 371.393 451.518 373.32C449.592 375.247 448.628 378.59 448.628 383.35V408H438.938V361.165H448.628V367.965ZM482.866 369.07V394.995C482.866 396.752 483.262 398.027 484.056 398.82C484.906 399.557 486.322 399.925 488.306 399.925H494.256V408H486.606C482.242 408 478.899 406.98 476.576 404.94C474.252 402.9 473.091 399.585 473.091 394.995V369.07H467.566V361.165H473.091V349.52H482.866V361.165H494.256V369.07H482.866ZM546.112 383.435C546.112 385.192 545.998 386.778 545.772 388.195H509.987C510.27 391.935 511.658 394.938 514.152 397.205C516.645 399.472 519.705 400.605 523.332 400.605C528.545 400.605 532.228 398.423 534.382 394.06H544.837C543.42 398.367 540.842 401.908 537.102 404.685C533.418 407.405 528.828 408.765 523.332 408.765C518.855 408.765 514.832 407.773 511.262 405.79C507.748 403.75 504.972 400.917 502.932 397.29C500.948 393.607 499.957 389.357 499.957 384.54C499.957 379.723 500.92 375.502 502.847 371.875C504.83 368.192 507.578 365.358 511.092 363.375C514.662 361.392 518.742 360.4 523.332 360.4C527.752 360.4 531.69 361.363 535.147 363.29C538.603 365.217 541.295 367.937 543.222 371.45C545.148 374.907 546.112 378.902 546.112 383.435ZM535.997 380.375C535.94 376.805 534.665 373.943 532.172 371.79C529.678 369.637 526.59 368.56 522.907 368.56C519.563 368.56 516.702 369.637 514.322 371.79C511.942 373.887 510.525 376.748 510.072 380.375H535.997Z" fill="black"/>
<mask id="path-10-outside-2_97_48" maskUnits="userSpaceOnUse" x="400" y="1007" width="50" height="31" fill="black">
<rect fill="white" x="400" y="1007" width="50" height="31"/>
<path d="M400.84 1030.92V1027.48L414.28 1008.2H419.8V1026.96H423.52V1030.92H419.8V1037H415.32V1030.92H400.84ZM415.52 1012.84L406.08 1026.96H415.52V1012.84ZM426.738 1030.92V1027.48L440.178 1008.2H445.698V1026.96H449.418V1030.92H445.698V1037H441.218V1030.92H426.738ZM441.418 1012.84L431.978 1026.96H441.418V1012.84Z"/>
</mask>
<path d="M400.84 1030.92V1027.48L414.28 1008.2H419.8V1026.96H423.52V1030.92H419.8V1037H415.32V1030.92H400.84ZM415.52 1012.84L406.08 1026.96H415.52V1012.84ZM426.738 1030.92V1027.48L440.178 1008.2H445.698V1026.96H449.418V1030.92H445.698V1037H441.218V1030.92H426.738ZM441.418 1012.84L431.978 1026.96H441.418V1012.84Z" fill="black"/>
<path d="M400.84 1030.92H400.54V1031.22H400.84V1030.92ZM400.84 1027.48L400.594 1027.31L400.54 1027.39V1027.48H400.84ZM414.28 1008.2V1007.9H414.123L414.034 1008.03L414.28 1008.2ZM419.8 1008.2H420.1V1007.9H419.8V1008.2ZM419.8 1026.96H419.5V1027.26H419.8V1026.96ZM423.52 1026.96H423.82V1026.66H423.52V1026.96ZM423.52 1030.92V1031.22H423.82V1030.92H423.52ZM419.8 1030.92V1030.62H419.5V1030.92H419.8ZM419.8 1037V1037.3H420.1V1037H419.8ZM415.32 1037H415.02V1037.3H415.32V1037ZM415.32 1030.92H415.62V1030.62H415.32V1030.92ZM415.52 1012.84H415.82V1011.85L415.271 1012.67L415.52 1012.84ZM406.08 1026.96L405.831 1026.79L405.519 1027.26H406.08V1026.96ZM415.52 1026.96V1027.26H415.82V1026.96H415.52ZM400.84 1030.92H401.14V1027.48H400.84H400.54V1030.92H400.84ZM400.84 1027.48L401.086 1027.65L414.526 1008.37L414.28 1008.2L414.034 1008.03L400.594 1027.31L400.84 1027.48ZM414.28 1008.2V1008.5H419.8V1008.2V1007.9H414.28V1008.2ZM419.8 1008.2H419.5V1026.96H419.8H420.1V1008.2H419.8ZM419.8 1026.96V1027.26H423.52V1026.96V1026.66H419.8V1026.96ZM423.52 1026.96H423.22V1030.92H423.52H423.82V1026.96H423.52ZM423.52 1030.92V1030.62H419.8V1030.92V1031.22H423.52V1030.92ZM419.8 1030.92H419.5V1037H419.8H420.1V1030.92H419.8ZM419.8 1037V1036.7H415.32V1037V1037.3H419.8V1037ZM415.32 1037H415.62V1030.92H415.32H415.02V1037H415.32ZM415.32 1030.92V1030.62H400.84V1030.92V1031.22H415.32V1030.92ZM415.52 1012.84L415.271 1012.67L405.831 1026.79L406.08 1026.96L406.329 1027.13L415.769 1013.01L415.52 1012.84ZM406.08 1026.96V1027.26H415.52V1026.96V1026.66H406.08V1026.96ZM415.52 1026.96H415.82V1012.84H415.52H415.22V1026.96H415.52ZM426.738 1030.92H426.438V1031.22H426.738V1030.92ZM426.738 1027.48L426.492 1027.31L426.438 1027.39V1027.48H426.738ZM440.178 1008.2V1007.9H440.022L439.932 1008.03L440.178 1008.2ZM445.698 1008.2H445.998V1007.9H445.698V1008.2ZM445.698 1026.96H445.398V1027.26H445.698V1026.96ZM449.418 1026.96H449.718V1026.66H449.418V1026.96ZM449.418 1030.92V1031.22H449.718V1030.92H449.418ZM445.698 1030.92V1030.62H445.398V1030.92H445.698ZM445.698 1037V1037.3H445.998V1037H445.698ZM441.218 1037H440.918V1037.3H441.218V1037ZM441.218 1030.92H441.518V1030.62H441.218V1030.92ZM441.418 1012.84H441.718V1011.85L441.169 1012.67L441.418 1012.84ZM431.978 1026.96L431.729 1026.79L431.417 1027.26H431.978V1026.96ZM441.418 1026.96V1027.26H441.718V1026.96H441.418ZM426.738 1030.92H427.038V1027.48H426.738H426.438V1030.92H426.738ZM426.738 1027.48L426.985 1027.65L440.425 1008.37L440.178 1008.2L439.932 1008.03L426.492 1027.31L426.738 1027.48ZM440.178 1008.2V1008.5H445.698V1008.2V1007.9H440.178V1008.2ZM445.698 1008.2H445.398V1026.96H445.698H445.998V1008.2H445.698ZM445.698 1026.96V1027.26H449.418V1026.96V1026.66H445.698V1026.96ZM449.418 1026.96H449.118V1030.92H449.418H449.718V1026.96H449.418ZM449.418 1030.92V1030.62H445.698V1030.92V1031.22H449.418V1030.92ZM445.698 1030.92H445.398V1037H445.698H445.998V1030.92H445.698ZM445.698 1037V1036.7H441.218V1037V1037.3H445.698V1037ZM441.218 1037H441.518V1030.92H441.218H440.918V1037H441.218ZM441.218 1030.92V1030.62H426.738V1030.92V1031.22H441.218V1030.92ZM441.418 1012.84L441.169 1012.67L431.729 1026.79L431.978 1026.96L432.228 1027.13L441.668 1013.01L441.418 1012.84ZM431.978 1026.96V1027.26H441.418V1026.96V1026.66H431.978V1026.96ZM441.418 1026.96H441.718V1012.84H441.418H441.118V1026.96H441.418Z" fill="black" mask="url(#path-10-outside-2_97_48)"/>
<path d="M378.295 197.975V272H357.715V231.155L343.75 272H326.53L312.46 230.84V272H291.88V197.975H316.765L335.35 246.065L353.515 197.975H378.295ZM386.65 242.495C386.65 236.405 387.735 231.085 389.905 226.535C392.145 221.985 395.155 218.485 398.935 216.035C402.785 213.585 407.055 212.36 411.745 212.36C415.805 212.36 419.305 213.165 422.245 214.775C425.185 216.385 427.46 218.555 429.07 221.285V213.095H449.65V272H429.07V263.81C427.46 266.54 425.15 268.71 422.14 270.32C419.2 271.93 415.735 272.735 411.745 272.735C407.055 272.735 402.785 271.51 398.935 269.06C395.155 266.61 392.145 263.11 389.905 258.56C387.735 253.94 386.65 248.585 386.65 242.495ZM429.07 242.495C429.07 238.715 428.02 235.74 425.92 233.57C423.89 231.4 421.37 230.315 418.36 230.315C415.28 230.315 412.725 231.4 410.695 233.57C408.665 235.67 407.65 238.645 407.65 242.495C407.65 246.275 408.665 249.285 410.695 251.525C412.725 253.695 415.28 254.78 418.36 254.78C421.37 254.78 423.89 253.695 425.92 251.525C428.02 249.355 429.07 246.345 429.07 242.495ZM481.957 223.49C484.267 220.13 487.067 217.47 490.357 215.51C493.647 213.55 497.182 212.57 500.962 212.57V234.515H495.187C490.707 234.515 487.382 235.39 485.212 237.14C483.042 238.89 481.957 241.935 481.957 246.275V272H461.377V213.095H481.957V223.49ZM533.435 272.735C528.115 272.735 523.355 271.86 519.155 270.11C515.025 268.29 511.735 265.84 509.285 262.76C506.905 259.61 505.575 256.075 505.295 252.155H525.245C525.525 254.045 526.4 255.515 527.87 256.565C529.34 257.615 531.16 258.14 533.33 258.14C535.01 258.14 536.34 257.79 537.32 257.09C538.3 256.39 538.79 255.48 538.79 254.36C538.79 252.89 537.985 251.805 536.375 251.105C534.765 250.405 532.105 249.635 528.395 248.795C524.195 247.955 520.695 247.01 517.895 245.96C515.095 244.91 512.645 243.195 510.545 240.815C508.515 238.435 507.5 235.215 507.5 231.155C507.5 227.655 508.445 224.505 510.335 221.705C512.225 218.835 514.99 216.56 518.63 214.88C522.34 213.2 526.785 212.36 531.965 212.36C539.665 212.36 545.72 214.25 550.13 218.03C554.54 221.81 557.095 226.78 557.795 232.94H539.21C538.86 231.05 538.02 229.615 536.69 228.635C535.43 227.585 533.715 227.06 531.545 227.06C529.865 227.06 528.57 227.375 527.66 228.005C526.82 228.635 526.4 229.51 526.4 230.63C526.4 232.03 527.205 233.115 528.815 233.885C530.425 234.585 533.015 235.32 536.585 236.09C540.855 237 544.39 238.015 547.19 239.135C550.06 240.255 552.545 242.075 554.645 244.595C556.815 247.045 557.9 250.405 557.9 254.675C557.9 258.105 556.885 261.185 554.855 263.915C552.895 266.645 550.06 268.815 546.35 270.425C542.71 271.965 538.405 272.735 533.435 272.735Z" fill="black"/>
<path d="M419.364 447.064C559.538 443.953 675.72 555.01 678.932 695.182C682.144 835.353 571.169 951.616 431 954.928C290.688 958.242 174.283 847.132 171.068 706.818C167.853 566.504 279.048 450.178 419.364 447.064Z" fill="black"/>
<path d="M343.411 561.11C347.262 559.107 351.457 558.022 355.518 556.539C408.086 537.327 385.437 488.942 453.152 474.295C471.33 470.364 475.202 468.68 492.557 474.173C567.023 497.742 629.397 558.574 651.344 633.931C629.176 643.475 627.231 637.869 605.366 633.928C575.169 628.487 552.025 640.911 538.22 667.006C533.788 677.603 523.027 715.342 526.232 726.876C523.922 739.794 512.054 754.883 503.357 763.958C480.699 760.077 459.851 750.973 438.743 765.892C423.598 776.596 414.099 793.99 411.085 812.077C405.978 842.721 419.912 856.898 388.477 879.569C377.316 887.618 361.724 896.635 348.166 898.843C320.158 903.405 297.439 877.162 272.334 881.367C250.218 859.937 231.036 843.105 216.901 814C203.41 794.441 193.157 758.855 190.051 736.066C185.071 699.526 193.425 692.612 212.905 667.006C220.426 661.653 226.727 655.156 235.278 651.238C270.579 635.063 282.774 649.043 297.914 604.217C305.975 580.353 315.724 562.986 343.411 561.11Z" fill="#ED7C31"/>
<path d="M343.411 561.11C347.262 559.107 351.457 558.022 355.518 556.539C408.086 537.327 385.436 488.942 453.152 474.295C471.329 470.364 475.202 468.68 492.557 474.173C567.022 497.742 629.397 558.574 651.344 633.931C629.176 643.475 627.231 637.869 605.365 633.928C575.169 628.487 552.024 640.911 538.22 667.006C536.097 666.503 534.988 665.934 533.401 664.473C524.482 666.982 516.219 673.35 506.628 673.232C504.962 678.561 500.125 682.268 494.547 682.487C488.968 682.708 483.854 679.395 481.775 674.214C410.348 682.787 337.786 638.616 343.411 561.11Z" fill="#F4944A"/>
<path d="M481.776 674.214C479.611 668.822 481.227 662.649 485.755 659.009C490.283 655.368 496.66 655.116 501.461 658.388C506.262 661.66 508.359 667.686 506.628 673.232C504.963 678.561 500.126 682.268 494.548 682.488C488.968 682.708 483.854 679.395 481.776 674.214Z" fill="black"/>
<path d="M492.569 662.946C500.552 662.401 502.088 671.366 495.659 674.87C487.561 676.568 485.363 666.295 492.569 662.946Z" fill="#171915"/>
<path d="M506.585 501.825C512.81 498.19 537.458 506.617 544.098 509.542C565.779 519.093 586.695 535.168 595.408 557.925C607.074 588.393 591.568 606.865 563.562 617.194C539.946 620.889 515.865 621.642 496.474 604.251C467.507 578.272 456.417 504.14 506.585 501.825Z" fill="#FAB065"/>
<path d="M557.378 534.474C578.164 535.145 590.34 598.817 544.134 599.852C496.326 600.925 470.399 521.73 521.154 522.028C527.718 522.067 541.888 524.065 546.317 529.241C548.345 527.598 551.134 527.262 553.494 528.378C555.852 529.495 557.362 531.864 557.378 534.474Z" fill="#FCC77E"/>
<path d="M546.317 529.241C548.345 527.598 551.134 527.263 553.494 528.378C555.852 529.495 557.362 531.864 557.378 534.474C557.397 537.639 555.226 540.397 552.145 541.122C549.065 541.846 545.892 540.345 544.498 537.504C543.103 534.663 543.858 531.234 546.317 529.241Z" fill="black"/>
<path d="M561.356 544.183C567.71 543.946 568.334 549.718 563.562 552.581C556.824 552.981 556.284 547.1 561.356 544.183Z" fill="black"/>
<path d="M428.205 541.804C442.744 540.808 455.373 551.709 456.51 566.238C457.647 580.768 446.867 593.501 432.349 594.778C417.633 596.072 404.686 585.112 403.534 570.384C402.381 555.655 413.465 542.814 428.205 541.804Z" fill="black"/>
<path d="M422.776 551.156C427.391 549.153 432.619 549.086 437.285 550.969C442.261 552.98 446.14 557.023 447.942 562.079C449.742 567.135 449.294 572.72 446.71 577.424C442.661 584.792 434.208 588.571 426.016 586.674C418.121 584.846 412.289 578.159 411.553 570.087C410.816 562.016 415.342 554.383 422.776 551.156Z" fill="#E51715"/>
<path d="M437.285 550.969C442.261 552.979 446.14 557.023 447.942 562.078C449.742 567.135 449.294 572.719 446.71 577.424C431.427 579.561 420.762 557.521 437.285 550.969Z" fill="#F75047"/>
<path d="M422.776 551.156C423.821 560.971 410.926 564.714 426.016 586.674C418.121 584.845 412.289 578.158 411.553 570.087C410.816 562.015 415.342 554.383 422.776 551.156Z" fill="#C6372C"/>
<path d="M612.896 614.326C615.089 614.104 621.031 619.238 624.766 620.005C627.442 620.555 649.012 614.515 637.692 625.164C626.481 632.515 602.448 621.586 612.896 614.326Z" fill="black"/>
<path d="M212.905 667.007C215.67 670.403 213.284 680.878 213.114 684.934C210.918 737.485 226.143 787.559 257.533 830.117C259.9 833.329 277.525 856.536 260.624 853.439C239.515 849.571 223.374 816.259 216.901 814.001C203.41 794.441 193.157 758.855 190.051 736.067C185.071 699.527 193.425 692.613 212.905 667.007Z" fill="#FAB065"/>
<path d="M283.457 741.889C304.936 738.684 324.916 753.578 327.984 775.075C331.05 796.573 316.03 816.459 294.514 819.39C273.189 822.292 253.521 807.438 250.48 786.133C247.441 764.826 262.172 745.063 283.457 741.889Z" fill="black"/>
<path d="M271.296 755.337C280.94 748.875 294.811 746.557 304.717 753.973C311.319 757.412 315.972 764.047 318.937 770.724C322.467 789.133 315.164 808.433 294.969 811.387C267.778 818.213 242.597 776.899 271.296 755.337Z" fill="#E51715"/>
<path d="M304.716 753.972C311.319 757.411 315.972 764.046 318.937 770.723L318.508 771.218C312.504 763.289 319.669 772.056 316.913 780.434C311.127 798.027 277.045 786.676 286.999 761.792C292.195 748.804 303.388 755.911 304.914 754.67L304.094 754.176L304.716 753.972Z" fill="#F75047"/>
<path d="M294.969 811.387C267.778 818.213 242.597 776.899 271.296 755.337C272.107 758.907 268.692 762.51 267.535 765.729C260.318 785.822 272.237 804.056 291.591 809.46C292.648 809.756 294.086 809.91 294.855 810.708L294.232 810.985C294.6 811.276 294.556 811.243 294.969 811.387Z" fill="#C6372C"/>
<path d="M336.344 671.629C371.277 670.435 420.828 737.262 381.085 744.904C340.469 745.476 293.328 672.694 336.344 671.629Z" fill="black"/>
<path d="M336.344 680.11C366.668 680.918 402.777 732.44 381.085 736.771C350.548 738.035 314.75 682.136 336.344 680.11Z" fill="#39331C"/>
<path d="M437.55 744.905C439.297 744.347 441.698 743.982 442.841 745.826C446.045 750.99 436.3 753.463 433.226 754.808C403.066 768.001 407.934 795.537 401.526 800.311C385.911 803.294 404.449 749.932 437.55 744.905Z" fill="black"/>
<path d="M316.596 601.009C325.718 601.033 315.97 620.392 314.23 623.803C306.478 639.005 293.001 652.001 276.59 657.365C274.201 657.293 270.493 655.872 271.84 652.734C273.523 648.814 298.685 642.182 309.371 616.068C311.382 611.154 311.481 603.628 316.596 601.009Z" fill="black"/>
<path d="M300.031 850.194C305.968 849.838 309.87 855.44 304.716 859.4C297.996 860.424 293.924 853.951 300.031 850.194Z" fill="black"/>
<path d="M234.952 730.225C236.639 730.003 238.313 730.708 239.334 732.07C240.356 733.43 240.563 735.236 239.878 736.793C239.195 738.35 237.723 739.417 236.031 739.586C233.47 739.841 231.178 737.993 230.884 735.436C230.588 732.879 232.401 730.559 234.952 730.225Z" fill="black"/>
<path d="M229.912 713.34C232.33 712.385 235.064 713.573 236.016 715.991C236.969 718.41 235.779 721.143 233.361 722.094C230.944 723.045 228.214 721.857 227.262 719.44C226.31 717.024 227.497 714.294 229.912 713.34Z" fill="black"/>
<path d="M318.937 860.626C325.937 862.093 324.986 868.352 318.937 869.936C312.427 868.296 312.966 862.109 318.937 860.626Z" fill="black"/>
<path d="M390.358 888.536C424.921 861.819 415.228 859.061 418.623 819.747C420.108 802.555 427.278 786.274 440.74 775.093C455.737 762.636 466.062 764.748 483.583 768.641C521.827 777.138 554.046 770.404 570.981 730.338C576.608 717.022 579.438 701.427 591.147 691.741C604.39 680.788 624.336 674.473 641.425 676.011C649.209 676.157 655.101 679.448 661.957 682.753C660.815 724.412 661.633 743.137 645.817 785.409C639.582 780.451 633.414 776.18 626.134 772.852C594.522 760.432 579.397 775.661 559.49 797.081C533.206 832.599 507.186 812.329 491.523 833.63C473.497 858.146 491.347 911.952 454.197 918.124C438.125 920.794 415.705 900.357 401.526 890.892C397.765 890.044 394.208 889.014 390.358 888.536Z" fill="#C6372C"/>
<path d="M401.526 890.892C408.641 889.255 423.152 897.417 438.593 893.209C475.019 883.279 455.501 833.931 487.149 815.443C501.378 807.132 517.84 811.778 533.282 808.089C543.838 805.566 551.237 799.228 559.49 797.081C533.206 832.599 507.186 812.329 491.523 833.63C473.497 858.146 491.346 911.952 454.197 918.124C438.125 920.794 415.705 900.357 401.526 890.892Z" fill="#AC2421"/>
<path d="M641.425 676.012C649.209 676.158 655.102 679.448 661.957 682.754C660.815 724.413 661.634 743.137 645.817 785.409C639.582 780.452 633.414 776.18 626.135 772.852C629.134 766.997 630.148 760.015 633.105 753.972C642.752 754.31 644.914 742.971 635.928 739.736C640.781 734.365 640.761 688.583 641.425 676.012Z" fill="#AC2421"/>
<path d="M633.105 753.972C624.07 749.755 625.619 738.649 635.927 739.735C644.914 742.971 642.752 754.309 633.105 753.972Z" fill="black"/>
<path d="M481.097 909.7C492.314 883.986 486.491 868.578 493.528 847.86C499.941 828.981 515.264 831.073 531.501 827.504C569.81 819.08 574.552 763.709 622.399 780.624C629.877 784.025 636.007 788.141 642.1 793.634C618.294 850.579 568.955 896.227 512.189 919.469C440.655 948.756 344.917 939.128 283.893 889.696C307.869 893.777 317.986 910.807 350.832 906.781C372.587 902.496 382.865 888.538 405.147 903.443C412.824 908.579 423.442 916.55 430.68 922.445C433.162 922.984 435.543 924.085 437.928 924.949C457.461 932.031 469.181 922.821 481.097 909.7Z" fill="#AC2421"/>
<path d="M481.097 909.7C492.314 883.986 486.491 868.578 493.528 847.86C499.941 828.981 515.264 831.073 531.501 827.504C569.81 819.08 574.552 763.709 622.4 780.624C612.335 803.442 576.227 856.404 553.748 868.874C558.316 876.354 556.242 886.099 549.027 891.071C541.81 896.045 531.966 894.513 526.602 887.581C524.166 891.602 486.96 910.623 481.097 909.7Z" fill="#C6372C"/>
<path d="M526.602 887.582C522.861 882.746 522.098 876.237 524.621 870.667C527.145 865.097 532.541 861.378 538.645 861.002C544.749 860.626 550.56 863.656 553.748 868.874C558.316 876.354 556.242 886.099 549.027 891.072C541.81 896.045 531.966 894.513 526.602 887.582Z" fill="black"/>
<path d="M539.628 869.749C543.84 869.854 547.178 873.337 547.102 877.549C547.024 881.762 543.561 885.122 539.349 885.071C535.097 885.02 531.701 881.52 531.779 877.268C531.858 873.019 535.38 869.645 539.628 869.749Z" fill="#F75047"/>
<path d="M350.832 906.781C372.587 902.496 382.865 888.538 405.147 903.443C412.824 908.578 423.442 916.55 430.68 922.445C428.012 923.332 424.808 922.367 422.038 922.45C406.368 922.92 363.533 916.987 350.832 906.781Z" fill="#C6372C"/>
<path d="M229.832 608.521C234.818 605.459 239.95 604.394 245.104 600.461C268.192 582.836 271.903 556.065 289.003 542.299C299.398 533.93 312.833 538.305 325.027 536.526C353.902 532.316 376.988 493.873 403.733 477.236C404.538 477.989 411.296 480.108 414.122 482.079C390.688 501.107 387.725 529.534 365.821 543.378C350.735 552.911 332.185 552.72 316.596 561.11C289.025 580.551 294.193 610.792 277.515 626.435C263.192 639.868 235.682 637.54 218.593 652.55C218.645 651.301 218.632 650.066 218.593 648.817C219.588 643.354 229.847 609.302 229.832 608.521Z" fill="#C6372C"/>
<path d="M218.593 648.817C220.25 647.462 221.66 645.846 223.368 644.516C235.988 634.687 255.004 629.435 265.287 619.609C275.802 609.559 301.574 556.668 316.596 561.11C289.025 580.552 294.193 610.792 277.515 626.435C263.192 639.868 235.682 637.54 218.593 652.55C218.645 651.301 218.632 650.066 218.593 648.817Z" fill="#AC2421"/>
<path d="M209.475 603.533C215.651 586.635 229.955 566.841 241.058 552.643C283.062 498.93 341.497 472.474 407.373 464.44C401.371 468.847 386.872 480.988 381.085 483.63C377.792 488.585 371.121 493.742 366.724 498.067C354.139 510.444 344.037 524.296 325.81 528.012C303.055 532.651 290.811 521.772 273.862 546.981C264.073 561.539 251.682 592.08 233.679 597.485C226.951 602.388 217.524 603.194 209.475 603.533Z" fill="#706246"/>
<path d="M233.679 597.485C253.144 555.658 289.372 522.898 330.27 502.543C345.305 495.06 364.897 486.361 381.085 483.63C377.792 488.585 371.121 493.742 366.724 498.067C354.139 510.444 344.037 524.296 325.81 528.012C303.055 532.651 290.811 521.772 273.861 546.982C264.072 561.539 251.682 592.08 233.679 597.485Z" fill="#39331C"/>
<path d="M526.231 726.876C536.704 730.318 534.73 718.271 535.583 711.833C540.729 673.004 555.79 632.256 604.053 641.933C614.708 644.069 621.772 647.296 633.105 646.869C639.202 647.416 639.781 661.616 639.937 667.006C620.781 666.731 598.61 672.924 584.546 686.601C555.894 714.459 568.182 766.91 503.357 763.958C512.053 754.883 523.921 739.794 526.231 726.876Z" fill="#C6372C"/>
<path d="M205.725 611.524C214.02 611.6 221.797 610.421 229.832 608.521C229.847 609.302 219.588 643.353 218.593 648.816C218.632 650.066 218.645 651.301 218.593 652.55C205.274 662.102 195.587 675.48 187.716 689.623C188.301 664.786 197.101 634.383 205.725 611.524Z" fill="#F75047"/>
<path d="M633.104 646.869C640.827 646.378 647.004 644.907 653.905 641.196C656.124 650.977 658.813 661.614 659.355 671.63C653.137 668.483 646.931 666.91 639.937 667.007C639.781 661.616 639.202 647.416 633.104 646.869Z" fill="#AC2421"/>
<path d="M403.733 477.237C430.963 457.95 422.676 465.791 456.201 465.057C439.9 471.831 429.941 470.641 414.122 482.079C411.297 480.108 404.539 477.99 403.733 477.237Z" fill="#F75047"/>
</svg>
