<svg width="849" height="1183" viewBox="0 0 849 1183" fill="none" xmlns="http://www.w3.org/2000/svg">
<rect x="5" y="5" width="839" height="1173" rx="45" fill="white"/>
<rect x="5" y="5" width="839" height="1173" rx="45" stroke="black" stroke-width="10"/>
<circle cx="786.5" cy="1124.5" r="11.5" fill="black"/>
<circle cx="786.5" cy="59.5" r="11.5" fill="black"/>
<path d="M77 1124.5C77 1130.85 71.8513 1136 65.5 1136C59.1487 1136 54 1130.85 54 1124.5C54 1118.15 59.1487 1113 65.5 1113C71.8513 1113 77 1118.15 77 1124.5Z" fill="black"/>
<path d="M77 59.5C77 65.8513 71.8513 71 65.5 71C59.1487 71 54 65.8513 54 59.5C54 53.1487 59.1487 48 65.5 48C71.8513 48 77 53.1487 77 59.5Z" fill="black"/>
<mask id="path-6-inside-1_97_39" fill="white">
<path d="M708 48C713.523 48 717.934 52.4996 718.616 57.9801C723.122 94.1833 751.817 122.878 788.02 127.384C793.5 128.066 798 132.477 798 138V1046C798 1051.52 793.5 1055.93 788.02 1056.62C751.817 1061.12 723.122 1089.82 718.616 1126.02C717.934 1131.5 713.523 1136 708 1136H141C135.477 1136 131.066 1131.5 130.384 1126.02C125.878 1089.82 97.1833 1061.12 60.9801 1056.62C55.4996 1055.93 51 1051.52 51 1046V138C51 132.477 55.4996 128.066 60.9801 127.384C97.1833 122.878 125.878 94.1833 130.384 57.9801C131.066 52.4996 135.477 48 141 48H708Z"/>
</mask>
<path d="M708 48C713.523 48 717.934 52.4996 718.616 57.9801C723.122 94.1833 751.817 122.878 788.02 127.384C793.5 128.066 798 132.477 798 138V1046C798 1051.52 793.5 1055.93 788.02 1056.62C751.817 1061.12 723.122 1089.82 718.616 1126.02C717.934 1131.5 713.523 1136 708 1136H141C135.477 1136 131.066 1131.5 130.384 1126.02C125.878 1089.82 97.1833 1061.12 60.9801 1056.62C55.4996 1055.93 51 1051.52 51 1046V138C51 132.477 55.4996 128.066 60.9801 127.384C97.1833 122.878 125.878 94.1833 130.384 57.9801C131.066 52.4996 135.477 48 141 48H708Z" fill="#C357B5"/>
<path d="M130.384 1126.02L138.322 1125.03L130.384 1126.02ZM718.616 1126.02L710.678 1125.03L718.616 1126.02ZM788.02 1056.62L789.008 1064.56L788.02 1056.62ZM718.616 57.9801L726.555 56.9922L718.616 57.9801ZM718.616 57.9801L710.678 58.9681C715.635 98.8063 747.194 130.365 787.032 135.322L788.02 127.384L789.008 119.445C756.44 115.392 730.608 89.5603 726.555 56.9922L718.616 57.9801ZM798 138H790V1046H798H806V138H798ZM788.02 1056.62L787.032 1048.68C747.194 1053.64 715.635 1085.19 710.678 1125.03L718.616 1126.02L726.555 1127.01C730.608 1094.44 756.44 1068.61 789.008 1064.56L788.02 1056.62ZM708 1136V1128H141V1136V1144H708V1136ZM130.384 1126.02L138.322 1125.03C133.365 1085.19 101.806 1053.64 61.9681 1048.68L60.9801 1056.62L59.9922 1064.56C92.5603 1068.61 118.392 1094.44 122.445 1127.01L130.384 1126.02ZM51 1046H59V138H51H43V1046H51ZM60.9801 127.384L61.9681 135.322C101.806 130.365 133.365 98.8063 138.322 58.9681L130.384 57.9801L122.445 56.9922C118.392 89.5603 92.5603 115.392 59.9922 119.445L60.9801 127.384ZM141 48V56H708V48V40H141V48ZM130.384 57.9801L138.322 58.9681C138.438 58.0389 138.872 57.2306 139.427 56.6958C139.954 56.1887 140.494 56 141 56V48V40C130.84 40 123.547 48.1329 122.445 56.9922L130.384 57.9801ZM51 138H59C59 137.494 59.1887 136.954 59.6958 136.427C60.2306 135.872 61.0389 135.438 61.9681 135.322L60.9801 127.384L59.9922 119.445C51.1329 120.547 43 127.84 43 138H51ZM60.9801 1056.62L61.9681 1048.68C61.0389 1048.56 60.2306 1048.13 59.6958 1047.57C59.1887 1047.05 59 1046.51 59 1046H51H43C43 1056.16 51.1329 1063.45 59.9922 1064.56L60.9801 1056.62ZM141 1136V1128C140.494 1128 139.954 1127.81 139.427 1127.3C138.872 1126.77 138.438 1125.96 138.322 1125.03L130.384 1126.02L122.445 1127.01C123.547 1135.87 130.84 1144 141 1144V1136ZM718.616 1126.02L710.678 1125.03C710.562 1125.96 710.128 1126.77 709.573 1127.3C709.046 1127.81 708.506 1128 708 1128V1136V1144C718.16 1144 725.453 1135.87 726.555 1127.01L718.616 1126.02ZM798 1046H790C790 1046.51 789.811 1047.05 789.304 1047.57C788.769 1048.13 787.961 1048.56 787.032 1048.68L788.02 1056.62L789.008 1064.56C797.867 1063.45 806 1056.16 806 1046H798ZM788.02 127.384L787.032 135.322C787.961 135.438 788.769 135.872 789.304 136.427C789.811 136.954 790 137.494 790 138H798H806C806 127.84 797.867 120.547 789.008 119.445L788.02 127.384ZM718.616 57.9801L726.555 56.9922C725.453 48.1329 718.16 40 708 40V48V56C708.506 56 709.046 56.1887 709.573 56.6958C710.128 57.2306 710.562 58.0389 710.678 58.9681L718.616 57.9801Z" fill="black" mask="url(#path-6-inside-1_97_39)"/>
<path d="M690 102C695.523 102 699.911 106.512 700.837 111.957C705.019 136.563 724.437 155.981 749.043 160.163C754.488 161.089 759 165.477 759 171V1014C759 1019.52 754.488 1023.91 749.043 1024.84C724.711 1028.97 705.454 1048 700.984 1072.22C699.993 1077.59 695.633 1082 690.175 1082H158.825C153.367 1082 149.007 1077.59 148.016 1072.22C143.546 1048 124.288 1028.97 99.9568 1024.84C94.5121 1023.91 90 1019.52 90 1014V171C90 165.477 94.512 161.089 99.9568 160.163C124.563 155.981 143.981 136.563 148.163 111.957C149.089 106.512 153.477 102 159 102H690Z" fill="#D78BCD"/>
<path d="M306.99 395.93H282.255L278.005 408H267.89L289.055 348.84H300.275L321.44 408H311.24L306.99 395.93ZM304.27 388.025L294.665 360.57L284.975 388.025H304.27ZM340.333 367.965C341.749 365.585 343.619 363.743 345.943 362.44C348.323 361.08 351.128 360.4 354.358 360.4V370.43H351.893C348.096 370.43 345.206 371.393 343.223 373.32C341.296 375.247 340.333 378.59 340.333 383.35V408H330.643V361.165H340.333V367.965ZM360.035 384.54C360.035 379.723 360.998 375.502 362.925 371.875C364.908 368.192 367.628 365.358 371.085 363.375C374.541 361.392 378.508 360.4 382.985 360.4C388.651 360.4 393.326 361.76 397.01 364.48C400.75 367.143 403.271 370.968 404.575 375.955H394.12C393.27 373.632 391.91 371.818 390.04 370.515C388.17 369.212 385.818 368.56 382.985 368.56C379.018 368.56 375.845 369.977 373.465 372.81C371.141 375.587 369.98 379.497 369.98 384.54C369.98 389.583 371.141 393.522 373.465 396.355C375.845 399.188 379.018 400.605 382.985 400.605C388.595 400.605 392.306 398.14 394.12 393.21H404.575C403.215 397.97 400.665 401.767 396.925 404.6C393.185 407.377 388.538 408.765 382.985 408.765C378.508 408.765 374.541 407.773 371.085 405.79C367.628 403.75 364.908 400.917 362.925 397.29C360.998 393.607 360.035 389.357 360.035 384.54ZM434.546 408.765C430.126 408.765 426.131 407.773 422.561 405.79C418.991 403.75 416.186 400.917 414.146 397.29C412.106 393.607 411.086 389.357 411.086 384.54C411.086 379.78 412.135 375.558 414.231 371.875C416.328 368.192 419.19 365.358 422.816 363.375C426.443 361.392 430.495 360.4 434.971 360.4C439.448 360.4 443.5 361.392 447.126 363.375C450.753 365.358 453.615 368.192 455.711 371.875C457.808 375.558 458.856 379.78 458.856 384.54C458.856 389.3 457.78 393.522 455.626 397.205C453.473 400.888 450.526 403.75 446.786 405.79C443.103 407.773 439.023 408.765 434.546 408.765ZM434.546 400.35C437.04 400.35 439.363 399.755 441.516 398.565C443.726 397.375 445.511 395.59 446.871 393.21C448.231 390.83 448.911 387.94 448.911 384.54C448.911 381.14 448.26 378.278 446.956 375.955C445.653 373.575 443.925 371.79 441.771 370.6C439.618 369.41 437.295 368.815 434.801 368.815C432.308 368.815 429.985 369.41 427.831 370.6C425.735 371.79 424.063 373.575 422.816 375.955C421.57 378.278 420.946 381.14 420.946 384.54C420.946 389.583 422.221 393.493 424.771 396.27C427.378 398.99 430.636 400.35 434.546 400.35ZM478.126 361.165V408H468.436V361.165H478.126ZM482.036 348.585L463.251 357.85V350.71L482.036 340.34V348.585ZM500.538 367.965C501.954 365.585 503.824 363.743 506.148 362.44C508.528 361.08 511.333 360.4 514.563 360.4V370.43H512.098C508.301 370.43 505.411 371.393 503.428 373.32C501.501 375.247 500.538 378.59 500.538 383.35V408H490.848V361.165H500.538V367.965ZM528.4 354.96C526.643 354.96 525.17 354.365 523.98 353.175C522.79 351.985 522.195 350.512 522.195 348.755C522.195 346.998 522.79 345.525 523.98 344.335C525.17 343.145 526.643 342.55 528.4 342.55C530.1 342.55 531.545 343.145 532.735 344.335C533.925 345.525 534.52 346.998 534.52 348.755C534.52 350.512 533.925 351.985 532.735 353.175C531.545 354.365 530.1 354.96 528.4 354.96ZM533.16 361.165V408H523.47V361.165H533.16ZM562.882 408.765C559.199 408.765 555.884 408.113 552.937 406.81C550.047 405.45 547.752 403.637 546.052 401.37C544.352 399.047 543.445 396.468 543.332 393.635H553.362C553.532 395.618 554.467 397.29 556.167 398.65C557.924 399.953 560.105 400.605 562.712 400.605C565.432 400.605 567.529 400.095 569.002 399.075C570.532 397.998 571.297 396.638 571.297 394.995C571.297 393.238 570.447 391.935 568.747 391.085C567.104 390.235 564.469 389.3 560.842 388.28C557.329 387.317 554.467 386.382 552.257 385.475C550.047 384.568 548.12 383.18 546.477 381.31C544.89 379.44 544.097 376.975 544.097 373.915C544.097 371.422 544.834 369.155 546.307 367.115C547.78 365.018 549.877 363.375 552.597 362.185C555.374 360.995 558.547 360.4 562.117 360.4C567.444 360.4 571.722 361.76 574.952 364.48C578.239 367.143 579.995 370.798 580.222 375.445H570.532C570.362 373.348 569.512 371.677 567.982 370.43C566.452 369.183 564.384 368.56 561.777 368.56C559.227 368.56 557.272 369.042 555.912 370.005C554.552 370.968 553.872 372.243 553.872 373.83C553.872 375.077 554.325 376.125 555.232 376.975C556.139 377.825 557.244 378.505 558.547 379.015C559.85 379.468 561.777 380.063 564.327 380.8C567.727 381.707 570.504 382.642 572.657 383.605C574.867 384.512 576.765 385.872 578.352 387.685C579.939 389.498 580.76 391.907 580.817 394.91C580.817 397.573 580.08 399.953 578.607 402.05C577.134 404.147 575.037 405.79 572.317 406.98C569.654 408.17 566.509 408.765 562.882 408.765Z" fill="black"/>
<mask id="path-10-outside-2_97_39" maskUnits="userSpaceOnUse" x="401" y="1006" width="47" height="33" fill="black">
<rect fill="white" x="401" y="1006" width="47" height="33"/>
<path d="M402.32 1015.04C402.48 1012.56 403.427 1010.63 405.16 1009.24C406.92 1007.85 409.16 1007.16 411.88 1007.16C413.747 1007.16 415.36 1007.49 416.72 1008.16C418.08 1008.83 419.107 1009.73 419.8 1010.88C420.493 1012.03 420.84 1013.32 420.84 1014.76C420.84 1016.41 420.4 1017.83 419.52 1019C418.64 1020.17 417.587 1020.96 416.36 1021.36V1021.52C417.933 1022 419.16 1022.88 420.04 1024.16C420.92 1025.41 421.36 1027.03 421.36 1029C421.36 1030.57 421 1031.97 420.28 1033.2C419.56 1034.43 418.493 1035.4 417.08 1036.12C415.667 1036.81 413.973 1037.16 412 1037.16C409.12 1037.16 406.747 1036.43 404.88 1034.96C403.04 1033.47 402.053 1031.33 401.92 1028.56H406.32C406.427 1029.97 406.973 1031.13 407.96 1032.04C408.947 1032.92 410.28 1033.36 411.96 1033.36C413.587 1033.36 414.84 1032.92 415.72 1032.04C416.6 1031.13 417.04 1029.97 417.04 1028.56C417.04 1026.69 416.44 1025.37 415.24 1024.6C414.067 1023.8 412.253 1023.4 409.8 1023.4H408.76V1019.64H409.84C412 1019.61 413.64 1019.25 414.76 1018.56C415.907 1017.87 416.48 1016.77 416.48 1015.28C416.48 1014 416.067 1012.99 415.24 1012.24C414.413 1011.47 413.24 1011.08 411.72 1011.08C410.227 1011.08 409.067 1011.47 408.24 1012.24C407.413 1012.99 406.92 1013.92 406.76 1015.04H402.32ZM431.07 1021.76C428.297 1020.37 426.91 1018.19 426.91 1015.2C426.91 1013.76 427.27 1012.44 427.99 1011.24C428.71 1010.04 429.79 1009.09 431.23 1008.4C432.67 1007.68 434.43 1007.32 436.51 1007.32C438.563 1007.32 440.31 1007.68 441.75 1008.4C443.217 1009.09 444.31 1010.04 445.03 1011.24C445.75 1012.44 446.11 1013.76 446.11 1015.2C446.11 1016.69 445.723 1018.01 444.95 1019.16C444.203 1020.28 443.203 1021.15 441.95 1021.76C443.47 1022.32 444.67 1023.24 445.55 1024.52C446.43 1025.77 446.87 1027.25 446.87 1028.96C446.87 1030.69 446.43 1032.23 445.55 1033.56C444.67 1034.89 443.443 1035.92 441.87 1036.64C440.297 1037.36 438.51 1037.72 436.51 1037.72C434.51 1037.72 432.723 1037.36 431.15 1036.64C429.603 1035.92 428.39 1034.89 427.51 1033.56C426.63 1032.23 426.19 1030.69 426.19 1028.96C426.19 1027.23 426.63 1025.73 427.51 1024.48C428.39 1023.23 429.577 1022.32 431.07 1021.76ZM441.75 1015.76C441.75 1014.27 441.283 1013.12 440.35 1012.32C439.417 1011.52 438.137 1011.12 436.51 1011.12C434.91 1011.12 433.643 1011.52 432.71 1012.32C431.777 1013.12 431.31 1014.28 431.31 1015.8C431.31 1017.13 431.79 1018.23 432.75 1019.08C433.737 1019.91 434.99 1020.32 436.51 1020.32C438.03 1020.32 439.283 1019.89 440.27 1019.04C441.257 1018.19 441.75 1017.09 441.75 1015.76ZM436.51 1023.76C434.75 1023.76 433.31 1024.2 432.19 1025.08C431.097 1025.93 430.55 1027.17 430.55 1028.8C430.55 1030.32 431.083 1031.56 432.15 1032.52C433.217 1033.45 434.67 1033.92 436.51 1033.92C438.323 1033.92 439.75 1033.44 440.79 1032.48C441.857 1031.52 442.39 1030.29 442.39 1028.8C442.39 1027.2 441.843 1025.96 440.75 1025.08C439.683 1024.2 438.27 1023.76 436.51 1023.76Z"/>
</mask>
<path d="M402.32 1015.04C402.48 1012.56 403.427 1010.63 405.16 1009.24C406.92 1007.85 409.16 1007.16 411.88 1007.16C413.747 1007.16 415.36 1007.49 416.72 1008.16C418.08 1008.83 419.107 1009.73 419.8 1010.88C420.493 1012.03 420.84 1013.32 420.84 1014.76C420.84 1016.41 420.4 1017.83 419.52 1019C418.64 1020.17 417.587 1020.96 416.36 1021.36V1021.52C417.933 1022 419.16 1022.88 420.04 1024.16C420.92 1025.41 421.36 1027.03 421.36 1029C421.36 1030.57 421 1031.97 420.28 1033.2C419.56 1034.43 418.493 1035.4 417.08 1036.12C415.667 1036.81 413.973 1037.16 412 1037.16C409.12 1037.16 406.747 1036.43 404.88 1034.96C403.04 1033.47 402.053 1031.33 401.92 1028.56H406.32C406.427 1029.97 406.973 1031.13 407.96 1032.04C408.947 1032.92 410.28 1033.36 411.96 1033.36C413.587 1033.36 414.84 1032.92 415.72 1032.04C416.6 1031.13 417.04 1029.97 417.04 1028.56C417.04 1026.69 416.44 1025.37 415.24 1024.6C414.067 1023.8 412.253 1023.4 409.8 1023.4H408.76V1019.64H409.84C412 1019.61 413.64 1019.25 414.76 1018.56C415.907 1017.87 416.48 1016.77 416.48 1015.28C416.48 1014 416.067 1012.99 415.24 1012.24C414.413 1011.47 413.24 1011.08 411.72 1011.08C410.227 1011.08 409.067 1011.47 408.24 1012.24C407.413 1012.99 406.92 1013.92 406.76 1015.04H402.32ZM431.07 1021.76C428.297 1020.37 426.91 1018.19 426.91 1015.2C426.91 1013.76 427.27 1012.44 427.99 1011.24C428.71 1010.04 429.79 1009.09 431.23 1008.4C432.67 1007.68 434.43 1007.32 436.51 1007.32C438.563 1007.32 440.31 1007.68 441.75 1008.4C443.217 1009.09 444.31 1010.04 445.03 1011.24C445.75 1012.44 446.11 1013.76 446.11 1015.2C446.11 1016.69 445.723 1018.01 444.95 1019.16C444.203 1020.28 443.203 1021.15 441.95 1021.76C443.47 1022.32 444.67 1023.24 445.55 1024.52C446.43 1025.77 446.87 1027.25 446.87 1028.96C446.87 1030.69 446.43 1032.23 445.55 1033.56C444.67 1034.89 443.443 1035.92 441.87 1036.64C440.297 1037.36 438.51 1037.72 436.51 1037.72C434.51 1037.72 432.723 1037.36 431.15 1036.64C429.603 1035.92 428.39 1034.89 427.51 1033.56C426.63 1032.23 426.19 1030.69 426.19 1028.96C426.19 1027.23 426.63 1025.73 427.51 1024.48C428.39 1023.23 429.577 1022.32 431.07 1021.76ZM441.75 1015.76C441.75 1014.27 441.283 1013.12 440.35 1012.32C439.417 1011.52 438.137 1011.12 436.51 1011.12C434.91 1011.12 433.643 1011.52 432.71 1012.32C431.777 1013.12 431.31 1014.28 431.31 1015.8C431.31 1017.13 431.79 1018.23 432.75 1019.08C433.737 1019.91 434.99 1020.32 436.51 1020.32C438.03 1020.32 439.283 1019.89 440.27 1019.04C441.257 1018.19 441.75 1017.09 441.75 1015.76ZM436.51 1023.76C434.75 1023.76 433.31 1024.2 432.19 1025.08C431.097 1025.93 430.55 1027.17 430.55 1028.8C430.55 1030.32 431.083 1031.56 432.15 1032.52C433.217 1033.45 434.67 1033.92 436.51 1033.92C438.323 1033.92 439.75 1033.44 440.79 1032.48C441.857 1031.52 442.39 1030.29 442.39 1028.8C442.39 1027.2 441.843 1025.96 440.75 1025.08C439.683 1024.2 438.27 1023.76 436.51 1023.76Z" fill="black"/>
<path d="M402.32 1015.04L402.021 1015.02L402 1015.34H402.32V1015.04ZM405.16 1009.24L404.974 1009L404.973 1009.01L405.16 1009.24ZM416.72 1008.16L416.588 1008.43L416.72 1008.16ZM419.8 1010.88L420.057 1010.72L419.8 1010.88ZM419.52 1019L419.76 1019.18V1019.18L419.52 1019ZM416.36 1021.36L416.267 1021.07L416.06 1021.14V1021.36H416.36ZM416.36 1021.52H416.06V1021.74L416.272 1021.81L416.36 1021.52ZM420.04 1024.16L419.793 1024.33L419.794 1024.33L420.04 1024.16ZM420.28 1033.2L420.021 1033.05L420.28 1033.2ZM417.08 1036.12L417.212 1036.39L417.216 1036.39L417.08 1036.12ZM404.88 1034.96L404.691 1035.19L404.695 1035.2L404.88 1034.96ZM401.92 1028.56V1028.26H401.605L401.62 1028.57L401.92 1028.56ZM406.32 1028.56L406.619 1028.54L406.598 1028.26H406.32V1028.56ZM407.96 1032.04L407.757 1032.26L407.76 1032.26L407.96 1032.04ZM415.72 1032.04L415.932 1032.25L415.935 1032.25L415.72 1032.04ZM415.24 1024.6L415.071 1024.85L415.077 1024.85L415.24 1024.6ZM408.76 1023.4H408.46V1023.7H408.76V1023.4ZM408.76 1019.64V1019.34H408.46V1019.64H408.76ZM409.84 1019.64V1019.94L409.844 1019.94L409.84 1019.64ZM414.76 1018.56L414.605 1018.3L414.602 1018.3L414.76 1018.56ZM415.24 1012.24L415.035 1012.46L415.039 1012.46L415.24 1012.24ZM408.24 1012.24L408.441 1012.46L408.445 1012.46L408.24 1012.24ZM406.76 1015.04V1015.34H407.02L407.057 1015.08L406.76 1015.04ZM402.32 1015.04L402.619 1015.06C402.775 1012.65 403.688 1010.8 405.347 1009.47L405.16 1009.24L404.973 1009.01C403.165 1010.45 402.185 1012.47 402.021 1015.02L402.32 1015.04ZM405.16 1009.24L405.346 1009.48C407.042 1008.14 409.213 1007.46 411.88 1007.46V1007.16V1006.86C409.108 1006.86 406.798 1007.57 404.974 1009L405.16 1009.24ZM411.88 1007.16V1007.46C413.711 1007.46 415.277 1007.79 416.588 1008.43L416.72 1008.16L416.852 1007.89C415.443 1007.2 413.782 1006.86 411.88 1006.86V1007.16ZM416.72 1008.16L416.588 1008.43C417.903 1009.07 418.883 1009.94 419.543 1011.04L419.8 1010.88L420.057 1010.72C419.33 1009.52 418.257 1008.58 416.852 1007.89L416.72 1008.16ZM419.8 1010.88L419.543 1011.04C420.206 1012.13 420.54 1013.37 420.54 1014.76H420.84H421.14C421.14 1013.27 420.78 1011.92 420.057 1010.72L419.8 1010.88ZM420.84 1014.76H420.54C420.54 1016.36 420.116 1017.71 419.28 1018.82L419.52 1019L419.76 1019.18C420.684 1017.95 421.14 1016.47 421.14 1014.76H420.84ZM419.52 1019L419.28 1018.82C418.432 1019.95 417.427 1020.7 416.267 1021.07L416.36 1021.36L416.453 1021.65C417.746 1021.22 418.848 1020.4 419.76 1019.18L419.52 1019ZM416.36 1021.36H416.06V1021.52H416.36H416.66V1021.36H416.36ZM416.36 1021.52L416.272 1021.81C417.785 1022.27 418.954 1023.11 419.793 1024.33L420.04 1024.16L420.287 1023.99C419.366 1022.65 418.082 1021.73 416.448 1021.23L416.36 1021.52ZM420.04 1024.16L419.794 1024.33C420.63 1025.52 421.06 1027.07 421.06 1029H421.36H421.66C421.66 1026.98 421.21 1025.3 420.286 1023.99L420.04 1024.16ZM421.36 1029H421.06C421.06 1030.53 420.711 1031.87 420.021 1033.05L420.28 1033.2L420.539 1033.35C421.289 1032.07 421.66 1030.62 421.66 1029H421.36ZM420.28 1033.2L420.021 1033.05C419.334 1034.22 418.312 1035.16 416.944 1035.85L417.08 1036.12L417.216 1036.39C418.674 1035.64 419.786 1034.63 420.539 1033.35L420.28 1033.2ZM417.08 1036.12L416.948 1035.85C415.585 1036.52 413.939 1036.86 412 1036.86V1037.16V1037.46C414.008 1037.46 415.749 1037.11 417.212 1036.39L417.08 1036.12ZM412 1037.16V1036.86C409.172 1036.86 406.869 1036.14 405.065 1034.72L404.88 1034.96L404.695 1035.2C406.625 1036.71 409.068 1037.46 412 1037.46V1037.16ZM404.88 1034.96L405.069 1034.73C403.307 1033.3 402.35 1031.25 402.22 1028.55L401.92 1028.56L401.62 1028.57C401.757 1031.42 402.773 1033.64 404.691 1035.19L404.88 1034.96ZM401.92 1028.56V1028.86H406.32V1028.56V1028.26H401.92V1028.56ZM406.32 1028.56L406.021 1028.58C406.133 1030.07 406.711 1031.3 407.757 1032.26L407.96 1032.04L408.163 1031.82C407.236 1030.97 406.72 1029.88 406.619 1028.54L406.32 1028.56ZM407.96 1032.04L407.76 1032.26C408.816 1033.21 410.227 1033.66 411.96 1033.66V1033.36V1033.06C410.333 1033.06 409.078 1032.63 408.16 1031.82L407.96 1032.04ZM411.96 1033.36V1033.66C413.641 1033.66 414.98 1033.2 415.932 1032.25L415.72 1032.04L415.508 1031.83C414.7 1032.64 413.533 1033.06 411.96 1033.06V1033.36ZM415.72 1032.04L415.935 1032.25C416.876 1031.28 417.34 1030.04 417.34 1028.56H417.04H416.74C416.74 1029.91 416.324 1030.99 415.505 1031.83L415.72 1032.04ZM417.04 1028.56H417.34C417.34 1026.63 416.714 1025.19 415.403 1024.35L415.24 1024.6L415.077 1024.85C416.166 1025.55 416.74 1026.76 416.74 1028.56H417.04ZM415.24 1024.6L415.409 1024.35C414.161 1023.5 412.275 1023.1 409.8 1023.1V1023.4V1023.7C412.232 1023.7 413.972 1024.1 415.071 1024.85L415.24 1024.6ZM409.8 1023.4V1023.1H408.76V1023.4V1023.7H409.8V1023.4ZM408.76 1023.4H409.06V1019.64H408.76H408.46V1023.4H408.76ZM408.76 1019.64V1019.94H409.84V1019.64V1019.34H408.76V1019.64ZM409.84 1019.64L409.844 1019.94C412.027 1019.91 413.731 1019.55 414.918 1018.82L414.76 1018.56L414.602 1018.3C413.549 1018.96 411.973 1019.31 409.836 1019.34L409.84 1019.64ZM414.76 1018.56L414.915 1018.82C416.163 1018.06 416.78 1016.86 416.78 1015.28H416.48H416.18C416.18 1016.68 415.65 1017.67 414.605 1018.3L414.76 1018.56ZM416.48 1015.28H416.78C416.78 1013.93 416.34 1012.83 415.441 1012.02L415.24 1012.24L415.039 1012.46C415.793 1013.14 416.18 1014.07 416.18 1015.28H416.48ZM415.24 1012.24L415.445 1012.02C414.546 1011.18 413.289 1010.78 411.72 1010.78V1011.08V1011.38C413.191 1011.38 414.281 1011.75 415.035 1012.46L415.24 1012.24ZM411.72 1011.08V1010.78C410.176 1010.78 408.933 1011.18 408.035 1012.02L408.24 1012.24L408.445 1012.46C409.2 1011.75 410.278 1011.38 411.72 1011.38V1011.08ZM408.24 1012.24L408.039 1012.02C407.159 1012.81 406.633 1013.81 406.463 1015L406.76 1015.04L407.057 1015.08C407.207 1014.03 407.667 1013.16 408.441 1012.46L408.24 1012.24ZM406.76 1015.04V1014.74H402.32V1015.04V1015.34H406.76V1015.04ZM431.07 1021.76L431.175 1022.04L431.819 1021.8L431.204 1021.49L431.07 1021.76ZM427.99 1011.24L427.733 1011.09L427.99 1011.24ZM431.23 1008.4L431.36 1008.67L431.364 1008.67L431.23 1008.4ZM441.75 1008.4L441.616 1008.67L441.622 1008.67L441.75 1008.4ZM445.03 1011.24L445.287 1011.09L445.03 1011.24ZM444.95 1019.16L444.701 1018.99L444.7 1018.99L444.95 1019.16ZM441.95 1021.76L441.818 1021.49L441.188 1021.8L441.846 1022.04L441.95 1021.76ZM445.55 1024.52L445.303 1024.69L445.304 1024.69L445.55 1024.52ZM445.55 1033.56L445.8 1033.73L445.55 1033.56ZM441.87 1036.64L441.745 1036.37L441.87 1036.64ZM431.15 1036.64L431.023 1036.91L431.025 1036.91L431.15 1036.64ZM427.51 1033.56L427.26 1033.73L427.51 1033.56ZM427.51 1024.48L427.264 1024.31L427.51 1024.48ZM440.35 1012.32L440.545 1012.09V1012.09L440.35 1012.32ZM432.71 1012.32L432.515 1012.09V1012.09L432.71 1012.32ZM432.75 1019.08L432.551 1019.3L432.557 1019.31L432.75 1019.08ZM432.19 1025.08L432.375 1025.32L432.375 1025.32L432.19 1025.08ZM432.15 1032.52L431.949 1032.74L431.952 1032.75L432.15 1032.52ZM440.79 1032.48L440.589 1032.26L440.587 1032.26L440.79 1032.48ZM440.75 1025.08L440.559 1025.31L440.562 1025.31L440.75 1025.08ZM431.07 1021.76L431.204 1021.49C429.857 1020.82 428.862 1019.96 428.203 1018.92C427.545 1017.88 427.21 1016.65 427.21 1015.2H426.91H426.61C426.61 1016.74 426.968 1018.09 427.697 1019.24C428.424 1020.39 429.51 1021.32 430.936 1022.03L431.07 1021.76ZM426.91 1015.2H427.21C427.21 1013.81 427.556 1012.55 428.247 1011.39L427.99 1011.24L427.733 1011.09C426.984 1012.33 426.61 1013.71 426.61 1015.2H426.91ZM427.99 1011.24L428.247 1011.39C428.933 1010.25 429.965 1009.34 431.36 1008.67L431.23 1008.4L431.1 1008.13C429.615 1008.84 428.487 1009.83 427.733 1011.09L427.99 1011.24ZM431.23 1008.4L431.364 1008.67C432.752 1007.97 434.463 1007.62 436.51 1007.62V1007.32V1007.02C434.397 1007.02 432.588 1007.39 431.096 1008.13L431.23 1008.4ZM436.51 1007.32V1007.62C438.529 1007.62 440.227 1007.97 441.616 1008.67L441.75 1008.4L441.884 1008.13C440.393 1007.39 438.597 1007.02 436.51 1007.02V1007.32ZM441.75 1008.4L441.622 1008.67C443.044 1009.34 444.088 1010.25 444.773 1011.39L445.03 1011.24L445.287 1011.09C444.532 1009.83 443.39 1008.84 441.878 1008.13L441.75 1008.4ZM445.03 1011.24L444.773 1011.39C445.464 1012.55 445.81 1013.81 445.81 1015.2H446.11H446.41C446.41 1013.71 446.036 1012.33 445.287 1011.09L445.03 1011.24ZM446.11 1015.2H445.81C445.81 1016.64 445.439 1017.9 444.701 1018.99L444.95 1019.16L445.199 1019.33C446.008 1018.13 446.41 1016.75 446.41 1015.2H446.11ZM444.95 1019.16L444.7 1018.99C443.984 1020.07 443.026 1020.9 441.818 1021.49L441.95 1021.76L442.082 1022.03C443.381 1021.39 444.422 1020.49 445.2 1019.33L444.95 1019.16ZM441.95 1021.76L441.846 1022.04C443.311 1022.58 444.46 1023.46 445.303 1024.69L445.55 1024.52L445.797 1024.35C444.88 1023.02 443.629 1022.06 442.054 1021.48L441.95 1021.76ZM445.55 1024.52L445.304 1024.69C446.145 1025.89 446.57 1027.31 446.57 1028.96H446.87H447.17C447.17 1027.2 446.715 1025.66 445.796 1024.35L445.55 1024.52ZM446.87 1028.96H446.57C446.57 1030.64 446.144 1032.11 445.3 1033.39L445.55 1033.56L445.8 1033.73C446.716 1032.34 447.17 1030.75 447.17 1028.96H446.87ZM445.55 1033.56L445.3 1033.39C444.453 1034.68 443.272 1035.67 441.745 1036.37L441.87 1036.64L441.995 1036.91C443.615 1036.17 444.887 1035.11 445.8 1033.73L445.55 1033.56ZM441.87 1036.64L441.745 1036.37C440.217 1037.07 438.474 1037.42 436.51 1037.42V1037.72V1038.02C438.546 1038.02 440.377 1037.65 441.995 1036.91L441.87 1036.64ZM436.51 1037.72V1037.42C434.546 1037.42 432.803 1037.07 431.275 1036.37L431.15 1036.64L431.025 1036.91C432.643 1037.65 434.474 1038.02 436.51 1038.02V1037.72ZM431.15 1036.64L431.277 1036.37C429.777 1035.67 428.608 1034.68 427.76 1033.39L427.51 1033.56L427.26 1033.73C428.172 1035.11 429.43 1036.17 431.023 1036.91L431.15 1036.64ZM427.51 1033.56L427.76 1033.39C426.916 1032.11 426.49 1030.64 426.49 1028.96H426.19H425.89C425.89 1030.75 426.344 1032.34 427.26 1033.73L427.51 1033.56ZM426.19 1028.96H426.49C426.49 1027.28 426.916 1025.85 427.756 1024.65L427.51 1024.48L427.264 1024.31C426.344 1025.62 425.89 1027.17 425.89 1028.96H426.19ZM427.51 1024.48L427.756 1024.65C428.599 1023.45 429.736 1022.58 431.175 1022.04L431.07 1021.76L430.965 1021.48C429.417 1022.06 428.181 1023 427.264 1024.31L427.51 1024.48ZM441.75 1015.76H442.05C442.05 1014.2 441.559 1012.96 440.545 1012.09L440.35 1012.32L440.155 1012.55C441.007 1013.28 441.45 1014.33 441.45 1015.76H441.75ZM440.35 1012.32L440.545 1012.09C439.542 1011.23 438.185 1010.82 436.51 1010.82V1011.12V1011.42C438.089 1011.42 439.291 1011.81 440.155 1012.55L440.35 1012.32ZM436.51 1011.12V1010.82C434.86 1010.82 433.517 1011.23 432.515 1012.09L432.71 1012.32L432.905 1012.55C433.77 1011.81 434.96 1011.42 436.51 1011.42V1011.12ZM432.71 1012.32L432.515 1012.09C431.5 1012.96 431.01 1014.21 431.01 1015.8H431.31H431.61C431.61 1014.35 432.054 1013.28 432.905 1012.55L432.71 1012.32ZM431.31 1015.8H431.01C431.01 1017.22 431.524 1018.39 432.551 1019.3L432.75 1019.08L432.949 1018.86C432.056 1018.06 431.61 1017.05 431.61 1015.8H431.31ZM432.75 1019.08L432.557 1019.31C433.607 1020.19 434.933 1020.62 436.51 1020.62V1020.32V1020.02C435.047 1020.02 433.866 1019.62 432.943 1018.85L432.75 1019.08ZM436.51 1020.32V1020.62C438.089 1020.62 439.416 1020.18 440.466 1019.27L440.27 1019.04L440.074 1018.81C439.15 1019.61 437.971 1020.02 436.51 1020.02V1020.32ZM440.27 1019.04L440.466 1019.27C441.52 1018.36 442.05 1017.18 442.05 1015.76H441.75H441.45C441.45 1017.01 440.993 1018.02 440.074 1018.81L440.27 1019.04ZM436.51 1023.76V1023.46C434.699 1023.46 433.189 1023.91 432.005 1024.84L432.19 1025.08L432.375 1025.32C433.431 1024.49 434.801 1024.06 436.51 1024.06V1023.76ZM432.19 1025.08L432.005 1024.84C430.826 1025.76 430.25 1027.1 430.25 1028.8H430.55H430.85C430.85 1027.25 431.367 1026.1 432.375 1025.32L432.19 1025.08ZM430.55 1028.8H430.25C430.25 1030.4 430.815 1031.72 431.949 1032.74L432.15 1032.52L432.351 1032.3C431.351 1031.4 430.85 1030.24 430.85 1028.8H430.55ZM432.15 1032.52L431.952 1032.75C433.088 1033.74 434.619 1034.22 436.51 1034.22V1033.92V1033.62C434.721 1033.62 433.345 1033.17 432.348 1032.29L432.15 1032.52ZM436.51 1033.92V1034.22C438.377 1034.22 439.884 1033.72 440.993 1032.7L440.79 1032.48L440.587 1032.26C439.616 1033.16 438.27 1033.62 436.51 1033.62V1033.92ZM440.79 1032.48L440.991 1032.7C442.123 1031.68 442.69 1030.37 442.69 1028.8H442.39H442.09C442.09 1030.21 441.59 1031.36 440.589 1032.26L440.79 1032.48ZM442.39 1028.8H442.69C442.69 1027.12 442.113 1025.79 440.938 1024.85L440.75 1025.08L440.562 1025.31C441.574 1026.13 442.09 1027.28 442.09 1028.8H442.39ZM440.75 1025.08L440.941 1024.85C439.807 1023.91 438.32 1023.46 436.51 1023.46V1023.76V1024.06C438.22 1024.06 439.559 1024.49 440.559 1025.31L440.75 1025.08Z" fill="black" mask="url(#path-10-outside-2_97_39)"/>
<path d="M229.365 272L214.665 244.7H212.46V272H191.88V197.975H224.325C230.275 197.975 235.315 199.025 239.445 201.125C243.575 203.155 246.69 205.99 248.79 209.63C250.89 213.2 251.94 217.225 251.94 221.705C251.94 226.745 250.54 231.19 247.74 235.04C245.01 238.82 240.985 241.515 235.665 243.125L252.36 272H229.365ZM212.46 230.63H222.645C225.445 230.63 227.545 229.965 228.945 228.635C230.345 227.305 231.045 225.38 231.045 222.86C231.045 220.48 230.31 218.625 228.84 217.295C227.44 215.895 225.375 215.195 222.645 215.195H212.46V230.63ZM257.939 242.495C257.939 236.405 259.024 231.085 261.194 226.535C263.434 221.985 266.444 218.485 270.224 216.035C274.074 213.585 278.344 212.36 283.034 212.36C287.094 212.36 290.594 213.165 293.534 214.775C296.474 216.385 298.749 218.555 300.359 221.285V213.095H320.939V272H300.359V263.81C298.749 266.54 296.439 268.71 293.429 270.32C290.489 271.93 287.024 272.735 283.034 272.735C278.344 272.735 274.074 271.51 270.224 269.06C266.444 266.61 263.434 263.11 261.194 258.56C259.024 253.94 257.939 248.585 257.939 242.495ZM300.359 242.495C300.359 238.715 299.309 235.74 297.209 233.57C295.179 231.4 292.659 230.315 289.649 230.315C286.569 230.315 284.014 231.4 281.984 233.57C279.954 235.67 278.939 238.645 278.939 242.495C278.939 246.275 279.954 249.285 281.984 251.525C284.014 253.695 286.569 254.78 289.649 254.78C292.659 254.78 295.179 253.695 297.209 251.525C299.309 249.355 300.359 246.345 300.359 242.495ZM343.061 207.635C339.421 207.635 336.481 206.655 334.241 204.695C332.071 202.665 330.986 200.145 330.986 197.135C330.986 194.055 332.071 191.5 334.241 189.47C336.481 187.44 339.421 186.425 343.061 186.425C346.631 186.425 349.501 187.44 351.671 189.47C353.911 191.5 355.031 194.055 355.031 197.135C355.031 200.145 353.911 202.665 351.671 204.695C349.501 206.655 346.631 207.635 343.061 207.635ZM353.246 213.095V272H332.666V213.095H353.246ZM403.501 212.57C410.291 212.57 415.681 214.845 419.671 219.395C423.661 223.875 425.656 229.965 425.656 237.665V272H405.076V240.395C405.076 237.035 404.201 234.41 402.451 232.52C400.701 230.56 398.356 229.58 395.416 229.58C392.336 229.58 389.921 230.56 388.171 232.52C386.421 234.41 385.546 237.035 385.546 240.395V272H364.966V213.095H385.546V221.495C387.366 218.835 389.816 216.7 392.896 215.09C395.976 213.41 399.511 212.57 403.501 212.57ZM457.528 221.285C459.138 218.485 461.413 216.315 464.353 214.775C467.293 213.165 470.758 212.36 474.748 212.36C479.438 212.36 483.673 213.585 487.453 216.035C491.303 218.485 494.313 221.985 496.483 226.535C498.723 231.085 499.843 236.405 499.843 242.495C499.843 248.585 498.723 253.94 496.483 258.56C494.313 263.11 491.303 266.61 487.453 269.06C483.673 271.51 479.438 272.735 474.748 272.735C470.758 272.735 467.293 271.965 464.353 270.425C461.413 268.815 459.138 266.61 457.528 263.81V272H436.948V194.3H457.528V221.285ZM478.948 242.495C478.948 238.645 477.898 235.67 475.798 233.57C473.768 231.4 471.248 230.315 468.238 230.315C465.228 230.315 462.673 231.4 460.573 233.57C458.543 235.74 457.528 238.715 457.528 242.495C457.528 246.345 458.543 249.355 460.573 251.525C462.673 253.695 465.228 254.78 468.238 254.78C471.248 254.78 473.768 253.695 475.798 251.525C477.898 249.285 478.948 246.275 478.948 242.495ZM535.721 272.735C529.841 272.735 524.556 271.51 519.866 269.06C515.246 266.61 511.606 263.11 508.946 258.56C506.286 254.01 504.956 248.655 504.956 242.495C504.956 236.405 506.286 231.085 508.946 226.535C511.676 221.985 515.351 218.485 519.971 216.035C524.661 213.585 529.946 212.36 535.826 212.36C541.706 212.36 546.956 213.585 551.576 216.035C556.266 218.485 559.941 221.985 562.601 226.535C565.331 231.085 566.696 236.405 566.696 242.495C566.696 248.585 565.331 253.94 562.601 258.56C559.941 263.11 556.266 266.61 551.576 269.06C546.886 271.51 541.601 272.735 535.721 272.735ZM535.721 254.885C538.591 254.885 540.971 253.835 542.861 251.735C544.821 249.565 545.801 246.485 545.801 242.495C545.801 238.505 544.821 235.46 542.861 233.36C540.971 231.26 538.626 230.21 535.826 230.21C533.026 230.21 530.681 231.26 528.791 233.36C526.901 235.46 525.956 238.505 525.956 242.495C525.956 246.555 526.866 249.635 528.686 251.735C530.506 253.835 532.851 254.885 535.721 254.885ZM662.113 213.095L647.098 272H623.998L615.808 236.3L607.303 272H584.308L569.398 213.095H589.873L596.488 252.155L605.203 213.095H627.253L636.283 252.26L642.793 213.095H662.113Z" fill="black"/>
<path d="M413.048 452.461C425.086 451.45 438.002 452.273 450.037 453.287C500.456 457.535 551.095 472.353 593.752 500.096C605.689 507.859 617.666 516.3 628.461 525.614C676.131 567 709.148 622.686 722.588 684.367C724.094 691.543 725.597 698.885 726.498 706.158C729.939 733.887 729.324 772.662 724.424 800.13C723.373 806.027 722.655 813.569 719.317 818.681C724.287 822.205 729.025 826.32 732.723 831.181C740.757 841.738 743.869 855.787 741.983 868.852C740.132 881.151 733.528 892.233 723.59 899.711C708.447 910.89 694.957 909.606 677.643 906.915C674.642 915.422 668.656 923.202 662.397 929.616C645.289 947.149 620.121 954.518 596.221 954.736C572.638 954.951 558.727 949.585 541.948 933.072C530.841 939.803 519.7 942.398 506.796 942.465C487.984 942.56 469.816 936.407 456.32 922.922C445.113 911.724 437.855 895.315 437.903 879.388C437.944 865.892 442.035 848.793 451.865 839.139C450.703 834.621 450.25 829.794 449.584 825.175C447.98 814.067 446.749 802.971 444.069 792.046C442.407 785.27 438.739 778.925 432.653 775.256C430.867 774.405 428.98 773.604 427.03 773.225C422.379 772.333 417.565 773.396 413.722 776.165C410.57 778.413 408.219 781.712 406.615 785.201C400.135 799.302 399.572 824.327 397.014 840.335C402.682 847.152 407.093 854.89 409.467 863.455C414.348 880.496 412.046 898.792 403.092 914.092C394.194 929.628 379.734 939.618 362.603 944.247C344.982 948.921 326.236 946.559 310.323 937.664C306.247 943.501 299.517 948.156 293.217 951.278C273.242 961.179 246.728 960.01 225.928 953.041C203.076 945.384 184.491 930.13 173.676 908.458C164.746 912.059 156.134 912.867 146.62 911.175C133.701 908.874 123.647 901.884 116.288 891.131C109.062 880.741 106.404 867.846 108.935 855.447C111.651 841.682 118.637 831.376 130.304 823.587C125.291 812.425 122.342 782.505 121.648 769.659C116.488 688.004 144.513 607.725 199.37 547.024C218.687 525.591 242.21 506.512 267.394 492.359C300.345 473.84 341.771 460.844 379.104 455.44C390.301 453.819 401.75 453.035 413.048 452.461Z" fill="black"/>
<path d="M421.217 547.087C432.662 546.129 444.983 547.509 456.302 549.327C495.973 555.699 533.806 571.358 564.632 597.481C605.251 631.763 630.637 680.737 635.236 733.689C636.423 747.533 636.677 761.44 635.996 775.317C624.754 774.303 615.316 774.495 604.99 779.598C606.037 738.485 600.374 698.772 576.476 664.249C572.293 658.206 568.053 652.512 562.99 647.172C556.328 640.147 549.322 633.223 541.659 627.284C511.868 604.201 473.263 591.828 435.792 590.84C388.855 589.602 338.381 603.801 303.784 636.633C273.123 665.732 254.794 704.458 249.444 746.2C248.608 752.719 247.824 759.178 247.667 765.754C247.512 772.232 247.523 778.9 248.094 785.352L244.114 783.538C234.481 779.48 222.84 778.903 212.698 781.118C213.023 760.759 211.945 740.881 216.289 720.781C217.069 712.805 220.501 701.207 222.987 693.537C224.638 688.445 226.19 683.244 228.135 678.256C237.983 653.529 252.492 630.924 270.876 611.674C310.433 571.047 364.518 547.812 421.217 547.087Z" fill="#FEDC46"/>
<path d="M421.217 547.087C432.662 546.129 444.983 547.509 456.301 549.327C495.973 555.699 533.805 571.358 564.632 597.481C605.251 631.763 630.637 680.737 635.236 733.689C636.422 747.533 636.676 761.44 635.995 775.317C624.753 774.303 615.316 774.495 604.99 779.598C606.036 738.485 600.373 698.772 576.475 664.249C572.292 658.206 568.053 652.512 562.99 647.172C556.327 640.147 549.322 633.223 541.659 627.284C511.868 604.201 473.263 591.828 435.792 590.84C388.855 589.602 338.38 603.801 303.784 636.633C273.122 665.732 254.794 704.458 249.443 746.2C248.608 752.719 247.824 759.178 247.666 765.754C247.512 772.232 247.523 778.9 248.093 785.352L244.114 783.538C244.878 783.223 245.038 783.167 245.53 782.515C244.619 775.524 244.472 767.87 244.847 760.823C245.248 753.294 247.135 745.629 245.438 738.133C249.529 722.25 253.931 706.383 260.416 691.281C271.095 666.414 289.244 641.861 310.434 624.964C348.58 594.546 404.671 581.605 452.761 587.182C505.845 593.338 553.658 620.458 582.096 666.186C587.751 675.281 592.454 683.879 596.201 693.949C598.399 699.89 600.378 705.91 602.132 711.997C603.269 715.903 605.331 729.292 607.591 731.831C609.145 733.578 613.625 735.316 615.954 735.37C616.147 735.375 616.34 735.365 616.531 735.365C617.901 735.359 619.195 735.295 620.535 734.96C623.546 734.207 625.901 732.369 627.447 729.682C631.923 721.909 628.01 709.781 626.035 701.722C623.067 689.619 619.721 680.847 614.658 669.569C596.637 629.422 568.285 600.446 530.85 577.805C502.126 560.433 465.985 551.319 432.722 549.497C429.104 549.298 423.546 547.694 420.121 548.666C419.588 548.816 419.115 548.9 418.567 548.971L418.171 548.378C419.871 547.711 422.091 547.909 423.909 547.855L423.935 547.639L421.217 547.087Z" fill="#FE982A"/>
<path d="M212.698 781.118C213.023 760.759 211.945 740.882 216.289 720.781C216.443 722.746 216.806 724.699 216.863 726.665C217.048 733.029 216.603 737.982 221.914 742.5C225.047 745.166 229.046 746.54 233.169 746.178C236.904 745.85 240.865 744.134 243.328 741.249C244.136 740.302 244.786 739.192 245.438 738.133C247.136 745.63 245.248 753.295 244.847 760.823C244.472 767.87 244.619 775.524 245.53 782.516C245.039 783.168 244.878 783.223 244.114 783.538C234.481 779.481 222.84 778.904 212.698 781.118Z" fill="#FEA500"/>
<path d="M287.632 602.687C288.414 602.878 289.204 603.13 289.921 603.508C291.088 604.125 292.013 605.18 292.395 606.45C293.19 609.09 292.134 611.926 290.943 614.277C286.243 623.554 272.061 641.116 263.52 646.976C261.879 648.101 260.069 648.696 258.198 649.321C257.817 649.331 257.425 649.361 257.047 649.278C255.61 648.961 254.66 647.068 254.126 645.854C253.05 643.407 253.523 640.624 254.458 638.209C258.716 627.203 277.029 607.298 287.632 602.687Z" fill="#FEFEFA"/>
<path d="M314.792 582.097C316.304 581.872 317.863 581.788 319.37 582.102C320.992 582.44 322.704 583.357 323.532 584.852C324.141 585.953 324.084 587.185 323.702 588.347C321.491 595.056 311.774 601.495 305.734 604.364C304.505 604.791 303.137 605.216 301.845 604.782C300.361 604.283 298.85 602.761 298.183 601.367C297.52 599.982 297.569 598.529 298.065 597.1C300.156 591.059 309.304 584.805 314.792 582.097Z" fill="#FEFEFA"/>
<path d="M344.714 566.354C345.969 566.36 347.135 566.499 348.297 567.012C349.607 567.592 350.969 568.828 351.458 570.2C351.817 571.211 351.66 572.268 351.207 573.223C348.889 578.099 340.686 581.967 335.913 583.734C334.926 583.903 333.818 584.042 332.894 583.577C331.528 582.888 329.909 581.376 329.412 579.893C329.057 578.831 329.222 577.699 329.71 576.706C332.043 571.96 339.992 568.028 344.714 566.354Z" fill="#FEFEFA"/>
<path d="M406.703 550.769C408.678 550.657 410.708 550.472 412.653 550.925C414.64 551.385 416.161 552.018 417.23 553.801C417.373 554.722 417.352 555.203 416.821 556.002C414.96 558.798 409.197 558.87 406.136 559.182C403.435 559.546 400.306 560.353 397.753 559.02C396.766 558.502 396.416 557.932 396.082 556.902C396.123 555.83 396.344 555.128 397.04 554.284C399.325 551.519 403.384 551.125 406.703 550.769Z" fill="#FEFEFA"/>
<path d="M247.691 653.455C248.981 653.539 250.72 653.992 251.583 655.05C252.111 655.696 252.358 656.386 252.283 657.211C252.01 660.229 249.398 662.628 247.298 664.561L245.952 665.089C244.979 664.907 244.183 664.878 243.54 664.004C242.779 662.972 242.697 661.415 242.891 660.203C243.436 656.772 244.999 655.35 247.691 653.455Z" fill="#FEFEFA"/>
<path d="M232.707 681.824C233.859 681.807 235.111 681.867 236.166 682.401C237.003 682.825 237.453 683.443 237.582 684.377C237.862 686.418 235.395 688.887 234.186 690.309C234.011 690.384 233.846 690.485 233.664 690.537C232.75 690.8 232.113 690.56 231.3 690.17C230.644 689.325 230.332 688.662 230.304 687.572C230.241 685.006 230.965 683.622 232.707 681.824Z" fill="#FEFEFA"/>
<path d="M364.213 561.75C364.989 561.817 366.129 561.931 366.763 562.442C367.527 563.059 367.559 563.357 367.7 564.263C366.925 566.6 365.552 567.347 363.534 568.512C362.801 568.582 361.665 568.396 361.039 567.967C360.211 567.399 360.289 566.991 360.179 566.075C360.985 563.753 362.216 562.982 364.213 561.75Z" fill="#FEFEFA"/>
<path d="M487.858 836.006C498.155 833.426 511.681 837.395 519.71 844.132C523.017 846.905 526.308 851.033 530.362 852.682C532.089 853.384 534.285 853.615 536.001 852.746C540.908 850.259 540.282 840.433 541.965 835.751C543.796 830.665 547.306 825.504 552.341 823.19C558.564 820.332 566.162 819.945 571.944 824.077C574.301 825.763 576.692 828.276 579.456 829.196C586.117 831.412 589.004 819.865 590.723 815.545C591.531 813.55 592.486 811.62 593.583 809.768C597.264 803.481 602.405 797.978 609.104 794.924C619.422 790.22 630.679 790.592 641.13 794.633C651.147 798.507 660.304 807.096 663.87 817.374C665.063 820.807 665.343 824.523 666.84 827.861C667.501 829.338 668.571 831.335 670.306 831.706C672.394 832.153 675.025 831.321 677.065 830.83C686.472 828.566 694.114 827.579 703.392 831.032C712.061 834.617 718.678 840.049 722.388 848.904C725.449 856.204 725.578 865.844 722.549 873.18C719.696 880.091 713.798 885.553 706.937 888.385C701.412 890.665 689.744 892.554 684.181 890.345C679.479 888.478 679.213 880.669 671.095 884.023C665.686 886.257 663.538 897.271 660.978 902.218C659.144 905.758 656.781 909.043 654.21 912.081C648.398 919.071 641.177 924.757 633.018 928.765C615.842 937.298 590.398 939.756 572.365 932.858C564.768 929.951 557.732 924.943 554.234 917.424C553.083 914.949 552.07 912.021 550.057 910.097C548.729 908.827 546.836 908.311 545.102 907.876L544.589 908.023C538.93 909.672 537.516 914.768 533.128 918.033C528.951 921.139 523.792 922.583 518.745 923.512C505.277 925.99 492.106 924.771 479.891 918.195C468.952 912.306 461.384 902.558 457.883 890.685C454.4 878.865 455.401 865.982 461.367 855.118C465.853 846.951 473.092 839.92 482.194 837.275C484.056 836.741 485.946 836.317 487.858 836.006Z" fill="#FEFEFA"/>
<path d="M703.392 831.033C712.061 834.618 718.678 840.05 722.388 848.905C725.449 856.205 725.578 865.846 722.549 873.181C719.696 880.092 713.798 885.554 706.937 888.386C701.412 890.666 689.744 892.555 684.181 890.347C679.479 888.479 679.213 880.67 671.095 884.024C665.686 886.258 663.538 897.272 660.978 902.219C659.144 905.759 656.781 909.044 654.21 912.082C648.398 919.072 641.177 924.758 633.018 928.766C615.842 937.299 590.398 939.757 572.365 932.859C564.768 929.953 557.732 924.945 554.234 917.425C553.083 914.95 552.07 912.022 550.057 910.098C548.729 908.828 546.836 908.312 545.102 907.877L544.589 908.024C538.93 909.673 537.516 914.769 533.128 918.034C528.951 921.14 523.792 922.584 518.745 923.513C505.277 925.991 492.106 924.772 479.891 918.196C468.952 912.307 461.384 902.559 457.883 890.686C454.4 878.866 455.401 865.983 461.367 855.119C465.853 846.952 473.092 839.921 482.194 837.276C484.056 836.742 485.946 836.318 487.858 836.007C487.072 838.305 485.324 840.365 483.99 842.398C479.677 848.962 477.479 855.62 477.594 863.539C477.825 874.13 482.286 884.189 489.979 891.473C501.193 902.159 518.504 906.419 533.494 902.568C536.775 901.725 542.484 898.734 545.798 899.423C548.861 900.059 551.782 903.313 554.354 905.024C565.182 912.233 579.044 914.938 591.849 914.554C613.482 913.905 633.373 903.465 644.717 884.809C647.821 879.703 649.785 872.75 653.986 868.525C658.07 864.421 667.994 868.692 673.121 869.673C676.507 870.351 679.956 870.656 683.408 870.581C690.692 870.362 699.356 868.296 704.49 862.746C710.71 856.018 709.418 846.509 706.143 838.776C705.223 836.601 703.388 833.65 703.382 831.309C703.382 831.217 703.389 831.125 703.392 831.033Z" fill="#E4C8B8"/>
<path d="M143.045 836.175C150.919 831.516 161.698 832.346 170.245 834.538C173.204 835.297 177.127 836.804 179.951 835.005C185.31 831.587 184.615 823.613 187.27 818.308C195.579 801.706 214.386 794.277 232.062 797.52C241.64 799.277 249.904 804.291 255.444 812.36C257.084 814.774 258.467 817.353 259.571 820.054C261.331 824.309 263.03 833.73 268.145 834.801C270.332 835.26 272.886 834.945 274.774 833.685C276.751 832.366 278.202 830.151 279.881 828.491C283.202 825.204 289.289 824.21 293.757 824.9C299.337 825.763 304.221 829.121 307.474 833.679C312.267 840.395 310.849 845.875 312.814 853.163C314.522 854.96 316.167 856.651 318.827 856.718C327.926 856.946 337.561 833.629 363.541 840.257C364.978 840.429 366.519 840.779 367.901 841.206C376.973 844.015 384.997 851.45 389.303 859.815C394.715 870.333 395.857 884.308 392.147 895.544C388.083 907.853 379.224 917.998 367.577 923.686C355.366 929.799 341.504 930.374 328.571 926.436C324.911 925.322 320.895 923.857 317.877 921.433C314.82 918.978 313.561 914.351 309.483 913.148C301.28 910.727 299.29 921.891 295.794 926.713C293.345 930.091 289.649 932.989 285.939 934.856C269.789 942.98 248.607 941.609 231.829 935.984C215.782 930.604 200.028 920.172 191.7 905.033C188.948 900.03 187.391 894.619 184.81 889.598C183.719 887.478 182.06 885.656 179.712 884.971C177.597 884.354 174.877 884.795 172.979 885.875C170.367 887.365 169.272 889.731 168.533 892.483C160.517 894.528 153.229 894.99 145.307 892.255C138.25 889.817 132.61 884.417 129.406 877.721C125.774 870.131 125.221 860.735 128.051 852.794C130.619 845.469 136.022 839.481 143.045 836.175Z" fill="#FEFEFA"/>
<path d="M168.533 892.483C160.517 894.528 153.229 894.99 145.307 892.255C138.25 889.817 132.61 884.417 129.406 877.721C125.774 870.131 125.221 860.735 128.051 852.794C130.619 845.469 136.022 839.482 143.045 836.176C143.035 836.277 143.027 836.378 143.015 836.477C142.707 838.983 141.511 841.38 140.772 843.784C138.422 851.431 138.614 859.12 143.594 865.755C147.82 871.386 155.145 873.918 161.885 874.804C165.723 875.307 169.534 875.099 173.353 874.536C178.376 873.795 190.294 869.738 194.587 871.296C196.195 871.879 198.132 874.196 199.172 875.526C202.686 880.018 204.82 885.493 207.999 890.218C219.04 906.618 235.647 915.31 254.948 917.823C267.277 919.427 281.369 917.979 292.51 912.195C296.761 909.988 300.721 906.873 305.233 905.263C305.409 905.2 305.585 905.13 305.761 905.064C322.178 909.394 336.592 910.655 351.987 901.623C361.326 896.144 368.177 887.702 370.916 877.167C374.247 864.359 372.551 856.139 365.98 845.088C365.019 843.47 363.899 842.145 363.541 840.258C364.978 840.429 366.519 840.78 367.901 841.207C376.973 844.015 384.997 851.451 389.303 859.815C394.715 870.333 395.857 884.308 392.147 895.544C388.083 907.853 379.224 917.999 367.577 923.686C355.366 929.799 341.504 930.375 328.571 926.437C324.911 925.323 320.895 923.858 317.877 921.433C314.82 918.978 313.561 914.352 309.483 913.149C301.28 910.727 299.29 921.891 295.794 926.714C293.345 930.092 289.649 932.989 285.939 934.856C269.789 942.98 248.607 941.609 231.829 935.984C215.782 930.604 200.028 920.172 191.7 905.034C188.948 900.03 187.391 894.62 184.81 889.598C183.719 887.478 182.06 885.657 179.712 884.971C177.597 884.354 174.877 884.795 172.979 885.876C170.367 887.365 169.272 889.731 168.533 892.483Z" fill="#E4C8B8"/>
<path d="M359.992 518.076C427.455 500.743 499.03 510.671 559.229 545.712C561.557 547.082 563.825 548.519 565.976 550.156C595.919 567.967 628.379 600.841 645.333 631.121C659.829 655.825 670.901 685.504 674.666 713.939C676.298 726.266 676.596 738.824 676.671 751.249C676.769 767.361 676.062 782.852 672.828 798.685C664.272 788.613 659.497 784.154 647.659 778.087C650.114 752.359 646.639 722.983 640.797 697.876C639.075 690.476 635.443 683.13 634.345 675.684C613.23 621.664 571.476 578.271 518.308 555.092C462.041 530.267 398.168 529.04 340.987 551.681C287.112 572.255 243.817 613.697 220.906 666.62C215.834 678.029 211.741 689.848 208.672 701.95C207.29 707.335 205.907 716.005 204.095 720.771C203.456 729.01 202.693 737.364 201.401 745.529C200.79 758.054 199.642 771.345 201.418 783.796C189.843 788.708 185.351 794.068 177.167 802.946C176.49 796.227 175.132 789.592 174.414 782.876C172.978 769.436 172.839 752.23 174.531 738.781C174.456 734.385 175.383 729.743 176.018 725.398C177.425 713.8 179.106 702.273 182.149 690.967C194.875 643.682 215.275 606.756 251.936 573.803C260.876 565.768 270.525 557.592 280.972 551.574C284.067 549.162 287.719 547.253 291.111 545.274C312.223 532.95 336.19 523.663 359.992 518.076Z" fill="#FE982A"/>
<path d="M645.333 631.121C659.829 655.826 670.901 685.505 674.666 713.939C676.298 726.266 676.596 738.824 676.671 751.249C676.769 767.361 676.062 782.852 672.828 798.685C664.272 788.613 659.497 784.154 647.659 778.087C650.114 752.359 646.639 722.983 640.796 697.876C639.075 690.476 635.443 683.131 634.345 675.685C642.18 686.345 647.17 710.27 648.731 723.457C649.727 731.875 649.986 740.564 650.393 749.044C650.759 756.637 650.364 764.746 651.616 772.234C651.994 774.498 652.661 776.581 654.203 778.334C656.01 780.388 658.823 782.048 661.62 782.064C663.746 782.076 665.689 781.158 667.198 779.693C678.847 768.376 671.819 712.805 668.657 697.179C666.944 688.717 664.078 679.975 661.321 671.795C658.536 663.535 654.804 655.08 651.204 647.155C649.355 643.084 646.668 638.488 645.469 634.199C645.238 633.369 645.273 632.445 645.307 631.591C645.313 631.435 645.325 631.277 645.333 631.121Z" fill="#F66306"/>
<path d="M199.192 744.233C198.778 737.188 201.425 727.209 204.095 720.771C203.456 729.01 202.693 737.364 201.401 745.53C200.79 758.054 199.642 771.345 201.418 783.796C189.843 788.708 185.351 794.068 177.167 802.947C176.49 796.227 175.132 789.593 174.414 782.877C172.978 769.437 172.839 752.23 174.531 738.781C175.271 744.008 174.958 749.68 176.075 754.753C176.078 762.973 176.251 772.902 180.173 780.284C181.53 782.838 184.676 786.284 187.552 787.032C188.972 787.402 190.812 786.697 191.991 785.93C193.914 784.678 195.217 782.598 195.884 780.435C196.696 777.8 196.774 774.896 196.993 772.164C197.735 762.92 197.116 753.303 199.192 744.233Z" fill="#F66306"/>
<path d="M359.992 518.076C427.455 500.743 499.03 510.671 559.229 545.712C561.557 547.082 563.825 548.519 565.976 550.156C562.854 549.587 551.312 542.187 547.626 540.16C538.574 535.186 529.246 531.462 519.57 527.948C488.175 516.546 455.261 509.742 421.723 510.263C415.459 510.359 407.944 509.914 401.892 511.669L401.704 512.104C405.793 512.407 409.986 511.694 414.074 511.49C419.117 511.238 424.282 511.359 429.332 511.504C463.394 512.487 489.989 518.101 521.85 529.946L521.918 530.164C518.128 529.366 514.756 527.641 511.098 526.402C503.683 523.871 496.16 521.659 488.555 519.774C458.917 512.539 428.274 510.339 397.906 513.272C386.841 514.447 375.853 516.61 364.906 518.584C357.494 521.22 349.662 522.953 342.121 525.254C334.029 527.726 325.876 530.97 318.084 534.263C310.453 537.49 302.809 541.018 295.484 544.887C291.804 546.831 288.172 549.449 284.318 550.988C283.27 551.407 282.087 551.48 280.973 551.574C284.067 549.162 287.719 547.253 291.111 545.274C312.223 532.95 336.19 523.663 359.992 518.076Z" fill="#F66306"/>
<path d="M176.019 725.398L176.598 728.352C177.547 733.351 176.555 738.977 176.283 744.022C176.09 747.594 176.184 751.177 176.076 754.753C174.959 749.681 175.272 744.008 174.532 738.782C174.457 734.386 175.384 729.744 176.019 725.398Z" fill="#F97C0D"/>
<path d="M428.221 468.806C439.051 467.9 456.618 470.201 467.525 471.909C522.544 480.523 573.503 501.598 616.239 537.786C651.976 568.05 681.618 609.771 696.553 654.292C696.51 654.405 696.466 654.517 696.425 654.63C695.753 656.526 695.909 658.266 695.662 660.219C694.955 665.798 692.226 671.887 686.943 674.424C685.219 675.251 683.476 675.539 681.606 675.779C679.861 674.256 678.179 672.409 676.29 671.095C674.034 666.066 672.39 660.617 670.37 655.472C667.37 647.83 663.844 640.489 660.022 633.225C641.206 597.459 612.072 566.453 578.53 544.083C573.506 540.734 568.399 537.173 563.036 534.385C552.921 529.099 542.917 523.789 532.373 519.381C488.296 500.932 440.168 494.303 392.746 500.153C376.836 502.053 360.456 504.798 345.126 509.635C322.968 516.628 302.275 525.903 281.879 536.993C249.88 555.163 223.193 582.578 202.809 613.008C199.661 617.707 196.87 622.615 194.181 627.588C192.706 630.314 191.259 633.807 189.39 636.239C188.362 636.802 187.766 637.319 187.107 638.299C185.058 641.348 183.732 645.116 182.289 648.491C178.548 657.244 175.282 666.176 171.6 674.948C168.306 675.846 164.727 677.091 161.478 675.312C157.757 673.276 155.344 666.635 154.348 662.72C154.039 661.505 153.88 660.593 153.19 659.515C162.064 629.547 176.58 601.549 195.958 577.026C199.863 572.04 203.861 566.585 208.602 562.355C215.692 553.401 224.13 545.405 232.686 537.872C265.393 509.072 301.568 490.451 343.947 479.947C347.5 477.716 371.699 472.957 376.842 472.233C380.523 471.715 384.112 471.437 387.834 471.459L391.498 470.806C398.276 468.439 410.56 468.811 417.767 468.799C421.249 468.762 424.742 468.664 428.221 468.806Z" fill="#FF4945"/>
<path d="M343.948 479.948C345.87 480.912 347.629 481.641 348.822 483.528C349.061 484.563 349.018 485.23 348.478 486.174C347.416 488.035 345.55 489.267 343.678 490.209C337.51 493.309 330.465 495.316 324.058 497.965C310.481 503.582 296.814 510.018 284.083 517.348C277.035 521.406 264.25 531.054 257.003 532.648C256.336 532.796 255.666 532.923 254.991 533.029C252.583 531.013 251.607 529.475 250.613 526.499C244.263 533.355 237.36 539.682 231.116 546.631C225.763 552.586 220.01 560.849 214.059 565.853C213.092 566.667 211.965 567.145 210.692 567.194C209.849 567.226 209.605 566.988 208.924 566.545C208.197 565.141 208.434 563.874 208.603 562.356C215.692 553.402 224.13 545.406 232.686 537.873C265.394 509.073 301.568 490.452 343.948 479.948Z" fill="#FEFEFA"/>
<path d="M281.879 536.994C281.856 536.369 281.95 535.904 282.115 535.303C285.995 531.219 293.002 528.385 298.023 525.891C306.562 521.653 314.939 517.369 323.769 513.739C335.251 509.019 349.424 504.686 361.503 501.577C369.39 499.547 377.672 498.191 385.727 497.005C443.295 488.532 505.991 498.406 556.377 528.225C559.093 529.832 562.217 531.189 563.036 534.386C552.921 529.099 542.917 523.79 532.373 519.382C488.296 500.933 440.168 494.304 392.746 500.154C376.836 502.053 360.456 504.799 345.126 509.635C322.968 516.628 302.275 525.904 281.879 536.994Z" fill="#EB1F08"/>
<path d="M417.767 468.8C421.249 468.763 424.742 468.665 428.221 468.807C428.652 468.864 429.085 468.925 429.509 469.023C430.861 469.335 432.469 470.463 433.152 471.685C433.535 472.38 433.602 473.205 433.337 473.953C432.947 475.056 432.281 475.868 431.198 476.338C428.236 477.624 416.041 478.616 413.11 477.167C412.543 476.888 412.314 476.451 412.156 475.852C411.686 474.07 411.463 471.662 412.378 470.005C413.648 468.965 416.131 469.02 417.767 468.8Z" fill="#FEFEFA"/>
<path d="M391.498 470.807C393.072 471.314 394.296 472.371 394.991 473.896C395.425 474.85 395.543 475.679 395.182 476.64C392.73 478.553 388.077 479.526 385.007 479.127C383.962 478.991 383.369 478.644 382.56 477.995C382.055 477.143 381.73 476.316 381.969 475.301C382.266 474.03 383.16 473.325 384.251 472.731C385.42 472.094 386.53 471.703 387.834 471.459L391.498 470.807Z" fill="#FEFEFA"/>
<path d="M367.195 477.831C367.402 477.831 367.608 477.826 367.815 477.829C368.807 477.844 369.682 478.077 370.362 478.853C370.809 479.365 370.942 480.095 370.818 480.758C370.475 482.584 369.164 483.63 367.732 484.646C367.388 484.649 367.169 484.66 366.843 484.635C365.697 484.546 364.987 484.147 364.224 483.286C364.058 482.777 363.901 482.322 363.993 481.778C364.315 479.877 365.723 478.877 367.195 477.831Z" fill="#FDC9C9"/>
<path d="M405.241 472.143C405.603 472.177 406.112 472.194 406.463 472.331C407.279 472.653 408.03 473.347 408.252 474.229C408.472 475.109 408.289 476.109 407.771 476.865C407.026 477.954 406.103 478.012 404.915 478.332C403.167 477.551 401.945 476.465 400.529 475.205C402.004 473.946 403.55 473.07 405.241 472.143Z" fill="#FEFEFA"/>
<path d="M386.514 669.613C406.079 661.702 420.417 657.857 441.756 661.876C449.082 663.257 455.841 665.11 462.709 668.022C477.342 674.225 489.239 684.256 499.32 696.39C509.764 707.805 516.892 723.479 520.911 738.261C521.598 740.79 522.618 743.776 522.765 746.379C524.249 752.304 525.365 758.126 525.458 764.25C525.542 766.474 525.686 768.706 525.555 770.929L525.501 771.618C526.1 775.57 525.798 779.88 525.818 783.882C525.913 793.105 525.68 802.33 525.12 811.538C524.737 817.57 523.863 823.612 523.782 829.652C516.198 825.123 509.464 822.235 500.719 820.721C500.679 816.247 500.539 811.751 500.605 807.278C500.249 801.755 499.757 796.242 499.131 790.742C496.014 764.931 486.543 735.895 465.218 719.35C451.311 708.56 435.571 703.826 417.979 706.186C400.673 708.506 384.804 718.548 374.398 732.401C359.614 752.084 353.155 775.088 350.596 799.241C349.713 807.591 349.064 816.024 350.254 824.382C340.588 826.476 335.684 828.89 327.555 834.501C327.254 826.588 325.785 818.647 325.208 810.73C324.545 801.651 324.816 792.319 324.905 783.217C324.801 752.724 331.46 726.563 348.829 701.222C356.914 687.335 371.859 675.555 386.514 669.613Z" fill="#76CAF6"/>
<path d="M324.905 783.217C328.895 783.174 332.162 786.777 336.609 786.613C351.708 786.054 353.423 764.639 357.866 754.122C362.161 743.956 367.536 734.247 375.042 726.095C388.559 711.417 404.787 701.697 425.237 700.982C448.932 700.154 470.838 715.726 483.35 734.897C487.617 741.433 490.992 749.912 496.713 755.195C499.803 758.05 503.809 760.263 508.134 759.971C511.512 759.743 515.571 757.946 517.763 755.321C519.598 753.126 520.302 751.197 520.091 748.369C520.79 750.59 521.597 752.834 522.013 755.125C521.623 752.276 522.674 749.287 522.765 746.379C524.249 752.304 525.365 758.126 525.458 764.25C525.542 766.474 525.686 768.705 525.555 770.929L525.501 771.618C526.1 775.57 525.798 779.88 525.818 783.882C525.913 793.105 525.68 802.33 525.12 811.538C524.737 817.57 523.863 823.612 523.782 829.652C516.198 825.123 509.464 822.235 500.719 820.721C500.679 816.247 500.539 811.751 500.605 807.278C500.249 801.755 499.757 796.242 499.131 790.742C496.014 764.931 486.543 735.895 465.218 719.35C451.311 708.559 435.571 703.826 417.979 706.186C400.673 708.506 384.804 718.548 374.398 732.401C359.614 752.084 353.155 775.088 350.596 799.241C349.713 807.59 349.064 816.024 350.254 824.382C340.588 826.476 335.684 828.89 327.555 834.501C327.254 826.588 325.785 818.647 325.208 810.73C324.545 801.65 324.816 792.319 324.905 783.217Z" fill="url(#paint0_linear_97_39)"/>
<path d="M525.501 771.617C526.099 775.569 525.798 779.879 525.818 783.881C525.913 793.105 525.68 802.329 525.12 811.537C524.737 817.569 523.863 823.611 523.782 829.651C516.198 825.122 509.464 822.234 500.718 820.72C500.678 816.246 500.539 811.75 500.605 807.277C503.077 807.444 505.23 808.829 507.693 809.163C510.965 809.605 514.836 808.098 517.386 806.088C519.275 804.619 520.791 802.724 521.814 800.558C523.62 796.681 525.124 787.694 525.264 783.346C525.386 779.575 525.01 775.667 525.46 771.926C525.472 771.824 525.487 771.72 525.501 771.617Z" fill="#6197D6"/>
<path d="M522.764 746.379C524.249 752.304 525.365 758.126 525.458 764.25C525.542 766.473 525.686 768.705 525.554 770.929C524.081 766.622 523.132 766.568 522.755 761.308C522.594 759.231 522.314 757.186 522.013 755.124C521.622 752.276 522.674 749.287 522.764 746.379Z" fill="#5D89CF"/>
<path d="M386.513 669.613C388.443 670.245 390.086 671.771 391.048 673.553C391.708 674.77 392.089 676.345 391.576 677.685C389.288 683.668 363.316 706.111 356.81 708.641C355.376 709.198 353.934 709.718 352.469 708.973C351.044 708.246 350.215 706.786 349.765 705.298C349.364 703.979 349.185 702.564 348.828 701.222C356.914 687.336 371.858 675.555 386.513 669.613Z" fill="#FEFEFA"/>
<path d="M499.32 696.39C509.764 707.804 516.892 723.479 520.911 738.261C521.598 740.789 522.618 743.775 522.764 746.379C522.674 749.287 521.623 752.276 522.013 755.124C521.597 752.833 520.79 750.589 520.091 748.369C519.466 746.139 519.197 743.794 518.601 741.536C516.264 732.662 513.163 723.762 508.916 715.612C507.438 712.777 505.858 709.947 504.147 707.249C502.422 704.529 499.875 701.688 498.847 698.641C498.511 697.649 498.902 697.274 499.32 696.39Z" fill="#6197D6"/>
<path d="M339.924 723.002C341.215 722.947 342.899 723.309 343.845 724.256C344.59 725.001 344.85 726.01 344.821 727.037C344.723 730.447 342.369 733.5 340.042 735.769C339.93 735.812 339.821 735.862 339.706 735.896C338.494 736.263 337.645 736.099 336.55 735.527C336.106 734.964 335.816 734.546 335.724 733.819C335.255 730.083 337.646 725.753 339.924 723.002Z" fill="#FEFEFA"/>
<path d="M403.475 665.831C404.15 665.759 404.837 665.683 405.516 665.689C406.778 665.703 408.324 666.162 409.083 667.245C409.74 668.187 409.614 669.319 409.262 670.339C408.365 672.941 406.339 673.767 404.023 674.819C403.224 674.962 402.399 675.123 401.584 675.086C400.48 675.036 399.347 674.716 398.683 673.759C398.001 672.777 398.167 671.647 398.509 670.584C399.344 667.983 401.205 666.987 403.475 665.831Z" fill="#FEFEFA"/>
<path d="M384.365 607.368C390.674 605.328 397.612 604.636 404.163 603.731C439.698 598.823 476.87 603.672 509.001 620.147C511.324 621.337 513.599 622.625 515.815 624.005C549.794 642.009 574.969 674.331 586.146 710.868C589.682 722.43 592.69 735.671 592.504 747.831C594.001 754.389 593.579 765.901 593.361 772.923C593.242 776.755 592.858 780.814 593.588 784.596C585.366 791.543 579.688 798.705 575.446 808.655C573.533 807.712 571.588 806.804 569.739 805.742C570.95 796.149 571.873 787.2 571.836 777.499C571.813 771.502 571.026 764.998 571.397 759.067C569.944 750.168 569.128 741.04 567.305 732.226C561.352 703.436 548.718 680.041 526.917 660.285C498.275 634.327 458.779 623.783 420.786 625.701C414.304 626.433 407.844 626.815 401.437 628.128C366.083 635.333 334.384 654.726 311.874 682.922C303.505 693.425 296.833 704.714 291.867 717.214C290.204 721.398 289.173 725.915 287.385 730.017C281.03 749.524 280.228 773.273 281.428 793.636C281.742 798.959 282.024 804.691 283.308 809.881C280.625 810.926 278.125 812.157 275.586 813.51C271.426 804.688 267.229 797.963 259.835 791.4C259.212 778.785 257.702 764.659 260.233 752.185C261.106 737.8 264.361 722.66 269.64 709.28C271.985 699.489 278.431 686.877 284.405 678.785C286.352 674.082 290.084 669.667 293.068 665.578C296.545 659.156 302.622 653.529 307.974 648.615C311.9 643.391 320.174 637.402 325.666 633.77C330.726 629.712 335.735 626.054 341.746 623.497C345.173 621.346 349.092 619.638 352.703 617.791C356.032 616.479 359.194 614.774 362.54 613.518C369.67 610.839 376.964 609.099 384.365 607.368Z" fill="#A7D750"/>
<path d="M284.101 732.678C284.769 727.716 286.715 722.631 288.461 717.961C297.497 693.793 314.101 672.486 334.01 656.186C352.73 640.86 380.276 628.411 404.206 625.054C408.453 624.457 413.025 623.822 417.307 624.251C416.678 624.742 413.279 624.656 412.374 624.717C407.501 625.05 402.654 625.677 397.857 626.597C382.926 629.419 368.487 635.473 355.28 642.897C352.432 644.5 336.863 653.069 336.135 655.673L336.938 655.835C340.351 654.894 342.812 652.399 345.655 650.44C356.515 642.951 370.65 636.478 383.204 632.376C385.354 631.674 387.52 631.368 389.65 630.729C397.435 628.395 403.093 626.716 411.338 625.896C414.442 625.587 417.699 625.115 420.786 625.7C414.304 626.432 407.844 626.814 401.437 628.128C366.083 635.332 334.384 654.725 311.874 682.921C303.505 693.424 296.833 704.713 291.867 717.213C290.204 721.398 289.173 725.914 287.385 730.016C281.03 749.523 280.228 773.272 281.428 793.635C281.742 798.958 282.024 804.69 283.308 809.88C280.625 810.925 278.125 812.156 275.586 813.509C271.426 804.687 267.229 797.962 259.835 791.399C259.212 778.784 257.702 764.658 260.233 752.184C261.471 754.407 261.661 757.318 262.284 759.782C263.262 763.657 265.633 768.869 269.26 770.877C272.165 772.486 274.648 771.967 277.665 771.208C278.984 764.986 279.334 758.464 280.163 752.155C281.027 745.565 282.441 739.111 284.101 732.678Z" fill="#98A933"/>
<path d="M589.547 747.686C589.733 747.562 589.963 747.485 590.107 747.312C590.535 746.795 589.75 734.442 590.263 732.322C591.288 736.689 590.37 741.495 591.775 745.708C592.012 746.417 592.25 747.127 592.504 747.83C594.001 754.388 593.578 765.899 593.361 772.922C593.241 776.754 592.857 780.813 593.587 784.595C585.365 791.542 579.687 798.704 575.446 808.654C573.533 807.711 571.587 806.803 569.738 805.741C570.949 796.148 571.872 787.198 571.835 777.498C571.812 771.501 571.025 764.996 571.396 759.066C575.262 759.217 579.385 759.566 582.938 757.702C586.903 755.62 588.402 751.72 589.547 747.686Z" fill="#98A933"/>
<path d="M384.365 607.367C386.023 607.614 388.892 609.239 389.837 610.623C390.389 611.431 390.516 612.308 390.267 613.252C389.474 616.234 384.901 618.566 382.299 619.798C376.605 622.495 360.346 629.291 354.576 627.485C353.552 627.163 352.764 626.245 352.299 625.308C351.132 622.954 352.393 620.213 352.703 617.79C356.032 616.479 359.194 614.774 362.539 613.517C369.67 610.838 376.963 609.098 384.365 607.367Z" fill="#FEFEFA"/>
<path d="M515.814 624.004C549.794 642.008 574.968 674.33 586.146 710.867C589.681 722.429 592.689 735.67 592.504 747.83C592.25 747.127 592.012 746.417 591.775 745.708C590.37 741.495 591.288 736.689 590.263 732.322C589.75 734.442 590.535 746.795 590.107 747.312C589.963 747.485 589.733 747.562 589.547 747.686C590.2 740.287 588.587 732.25 587.017 725.022C580.426 693.725 563.893 665.399 539.883 644.271C536.985 641.723 534.063 639.139 531.014 636.773C528.162 634.56 517.652 628.666 516.513 626.012C516.244 625.384 516.047 624.654 515.814 624.004Z" fill="url(#paint1_linear_97_39)"/>
<path d="M284.405 678.784C286.385 678.827 288.813 678.965 290.242 680.543C290.883 681.25 291.116 681.946 291.219 682.889C289.781 687.779 280.266 704.753 276.952 709.276C276.107 710.428 274.927 711.726 273.617 712.357C273.091 712.611 272.583 712.614 272.012 712.629C271.119 712.216 270.561 711.945 270.134 711.005C269.892 710.477 269.773 709.844 269.639 709.279C271.984 699.488 278.431 686.876 284.405 678.784Z" fill="#FEFEFA"/>
<path d="M307.974 648.614C310.256 650.223 312.945 651.825 313.407 654.834C313.883 657.935 311.304 661.681 309.437 663.992C306.851 667.194 301.373 673.172 297.032 673.571C296.004 673.665 295.082 673.372 294.334 672.653C292.534 670.92 293.008 667.861 293.068 665.577C296.545 659.155 302.622 653.529 307.974 648.614Z" fill="#FEFEFA"/>
<path d="M341.745 623.496C343.234 625.022 346.107 627.376 346.14 629.689C346.18 632.516 341.908 636.385 339.865 638.055C336.971 640.422 331.926 644.087 327.987 643.686C327.006 643.586 326.047 643.131 325.432 642.348C324.544 641.218 324.199 639.331 324.416 637.932C324.517 637.276 324.754 636.64 324.962 636.014C325.21 635.271 325.48 634.53 325.665 633.769C330.725 629.712 335.734 626.054 341.745 623.496Z" fill="#FEFEFA"/>
<path d="M387.276 643.381C421.447 632.17 458.641 634.712 490.969 650.468C492.528 651.242 494.106 651.995 495.619 652.859C525.063 668.755 544.291 692.515 553.873 724.56C557.012 735.06 559.305 747.275 559.181 758.26C560.408 768.758 560.488 779.153 560.004 789.711C559.771 794.78 559.061 800.057 559.181 805.111C549.211 806.743 542.668 809.441 535.479 816.695C536.916 808.44 536.975 799.937 537.179 791.574C537.266 787.96 537.017 783.939 537.654 780.401C537.13 773.178 537.156 765.923 536.498 758.702C535.678 749.696 533.582 740.538 530.892 731.908C521.407 701.489 502.716 675.54 474.093 660.626C448.025 647.043 418.653 646.785 391.033 655.563C369.304 662.469 350.065 678.627 337.59 697.512C333.878 703.129 330.886 709.219 327.788 715.186C325.472 721.494 322.341 727.428 320.495 733.935C314.305 755.748 310.298 796.631 315.224 818.539C308.215 812.536 302.532 810.425 293.637 808.42C292.875 796.161 292.148 784.253 292.644 771.957C292.763 768.992 292.666 765.775 293.162 762.859C293.051 757.003 294.099 751.267 295.239 745.552C298.969 726.865 305.861 709.844 316.991 694.298C331.545 674.106 351.236 658.174 374.021 648.152C378.132 646.355 382.836 644.121 387.276 643.381Z" fill="#83EBE9"/>
<path d="M311.18 782.34C311.082 761.114 314.852 736.818 324.174 717.507C325.783 714.177 328.23 711.166 330.012 707.863C329.519 710.395 327.462 712.75 327.788 715.185C325.472 721.494 322.341 727.428 320.495 733.935C314.305 755.748 310.298 796.63 315.224 818.539C308.215 812.536 302.532 810.425 293.637 808.42C292.875 796.161 292.148 784.253 292.644 771.956C292.763 768.992 292.666 765.775 293.162 762.859C293.602 766.163 292.521 769.705 293.386 772.901C294.203 773.689 294.779 774.355 295.229 775.412C295.836 776.842 296.499 778.247 297.306 779.579C298.695 781.87 300.694 784.069 303.425 784.623C306.386 785.223 308.786 783.878 311.18 782.34Z" fill="#76CAF6"/>
<path d="M559.181 758.259C560.408 768.757 560.488 779.152 560.004 789.71C559.772 794.779 559.061 800.057 559.181 805.11C549.211 806.742 542.668 809.44 535.479 816.694C536.916 808.439 536.976 799.936 537.179 791.573C537.266 787.959 537.017 783.938 537.654 780.4C539.541 780.749 541.145 781.489 543.115 781.647C546.809 781.944 550.579 781.127 553.372 778.566C558.292 774.056 559.045 764.586 559.181 758.259Z" fill="#76CAF6"/>
<path d="M387.275 643.381C421.446 632.17 458.64 634.712 490.968 650.468C492.528 651.242 494.106 651.995 495.618 652.859C495.271 653.2 494.92 653.532 494.525 653.818C491.545 655.973 485.518 652.217 482.276 651.48C480.477 651.071 478.622 651.059 476.809 650.728C471.794 649.814 466.989 647.362 462.139 645.809C453.877 643.163 444.331 641.927 435.68 641.5C427.042 641.075 417.799 641.849 409.181 642.687C407.081 642.89 401.817 644.577 400.181 644.266C403.343 642.137 407.191 643.201 410.283 640.071L409.943 639.589C404.186 637.57 392.383 644.223 387.275 643.381Z" fill="url(#paint2_linear_97_39)"/>
<path d="M389.379 732.735C396.173 725.68 404.055 720.887 413.634 718.533C427.402 715.147 441.162 717.665 453.209 724.882C459.268 728.042 466.116 735.003 469.751 740.856C479.207 752.817 485.006 770.715 487.049 785.603C488.433 797.005 489.347 808.252 489.417 819.742C480.548 820.652 474.822 822.442 466.93 826.519C467.105 816.949 465.039 802.669 462.896 793.337C459.893 780.254 454.155 767.5 442.311 760.164C434.408 755.269 423.778 754.19 414.834 756.379C403.12 759.244 396.649 767.34 390.663 777.22C388.364 782.799 385.947 788.696 385.002 794.684C383.01 806.325 381.653 817.62 381.68 829.45C374.932 826.267 368.75 824.618 361.296 824.067C361.22 814.76 360.603 797.376 363.517 788.887C363.522 788.774 363.523 788.659 363.534 788.545C363.764 785.855 364.541 782.984 365.126 780.347C368.785 763.819 376.574 744.217 389.379 732.735Z" fill="#C192E1"/>
<path d="M390.663 777.221C390.231 774.967 391.991 772.447 393.24 770.637C398.083 763.61 403.695 759.785 411.255 756.233L411.045 755.763C410.554 754.626 411.062 753.563 410.496 752.815C405.615 753.17 396.88 762.312 393.676 766.022C393.155 766.628 392.622 767.236 392.114 767.854C390.782 769.478 390.755 772.455 390.064 774.458C389.748 771.97 390.421 769.314 391.955 767.331C399.255 757.884 408.742 750.619 420.948 749.296C430.875 748.22 440.396 751.878 448.02 758.06C454.571 763.373 458.578 769.155 461.93 776.785C464.991 783.753 467.588 806.543 478.345 805.311C481.27 804.976 483.829 802.795 485.6 800.58C485.725 797.365 485.78 794.184 485.722 790.965C485.762 790.401 485.737 789.869 485.725 789.305C485.684 787.485 485.812 786.882 487.049 785.604C488.433 797.006 489.346 808.253 489.417 819.743C480.547 820.653 474.821 822.443 466.93 826.52C467.104 816.949 465.038 802.669 462.895 793.338C459.893 780.255 454.154 767.5 442.311 760.165C434.407 755.27 423.778 754.191 414.833 756.38C403.12 759.245 396.649 767.341 390.663 777.221Z" fill="#9F66BA"/>
<path d="M363.517 788.889L363.996 788.862L364.916 786.91C365.437 792.839 364.391 801.613 369.565 805.776C370.565 806.582 371.767 806.839 373.024 806.621C374.318 806.396 375.431 805.675 376.611 805.141C381.437 802.953 382.288 798.7 385.002 794.685C383.01 806.327 381.653 817.622 381.68 829.452C374.932 826.268 368.75 824.62 361.296 824.069C361.22 814.762 360.603 797.378 363.517 788.889Z" fill="#9F66BA"/>
<path d="M389.379 732.735C396.173 725.68 404.055 720.887 413.633 718.533C427.402 715.147 441.162 717.665 453.209 724.882C453.118 725.067 453.022 725.25 452.938 725.44C452.071 727.413 453.885 728.66 452.001 730.662C449.557 730.73 446.538 727.333 444.241 726.167C435.886 721.923 424.026 720.728 414.867 722.664C411.434 723.401 408.106 724.56 404.96 726.115C402.627 727.271 391.786 735.266 389.767 733.364C389.604 733.211 389.48 732.934 389.379 732.735Z" fill="#F7C5FE"/>
<path d="M469.75 740.857C479.206 752.819 485.005 770.717 487.048 785.604C485.812 786.882 485.683 787.486 485.725 789.305C485.737 789.87 485.761 790.401 485.722 790.966C484.561 787.127 484.044 783.168 483.241 779.248C482.227 774.309 480.836 769.342 479.235 764.563C478.168 761.362 476.921 758.226 475.497 755.168C473.906 751.784 471.262 747.713 470.502 744.11C470.272 743.02 470.003 741.941 469.75 740.857Z" fill="#AE77B9"/>
<path d="M171.6 674.949C175.283 666.178 178.548 657.245 182.29 648.492C183.732 645.117 185.058 641.349 187.108 638.3C187.766 637.321 188.363 636.803 189.39 636.24C185.648 645.707 181.655 655.187 178.281 664.79C172.89 680.133 168.432 696.708 165.705 712.775C164.521 719.75 163.988 726.856 163.269 733.891C162.478 741.631 161.576 749.178 161.417 756.97C161.466 761.508 161.539 766.044 161.637 770.581C162.48 780.571 163.652 790.913 165.448 800.777C166.503 806.575 168.045 812.268 169.117 818.065C161.157 817.241 153.51 816.938 145.516 817.355C144.835 810.733 143.177 804.201 142.255 797.603C139.571 778.385 137.621 756.987 139.31 737.689C139.291 731.088 140.114 724.568 140.86 718.02C143.111 698.247 146.735 678.395 153.19 659.517C153.88 660.594 154.039 661.507 154.348 662.722C155.345 666.637 157.758 673.278 161.479 675.314C164.727 677.092 168.307 675.848 171.6 674.949Z" fill="#FC4033"/>
<path d="M139.31 737.688C139.479 741.885 139.265 746.074 139.394 750.268C139.782 762.851 140.588 775.214 141.981 787.73C142.486 792.266 142.675 797.354 143.991 801.725L144.331 801.515C144.74 799.754 144.386 797.856 145.179 796.22L145.825 795.883C148.514 797.533 149.502 802.002 152.901 802.409C153.88 802.002 154.207 802.031 154.714 801.067C154.07 799.102 152.388 797.401 151.489 795.444C151.212 794.841 151.345 795.067 150.777 794.576C150.732 793.737 150.559 792.915 151.075 792.196C151.522 792.571 151.874 792.926 152.233 793.385C152.433 792.173 152.697 792.006 153.497 791.12C154.517 790.75 155.332 790.711 156.412 790.71C156.854 789.808 156.614 789.262 156.312 788.301C155.954 787.165 155.387 786.077 154.972 784.958C154.195 785.452 153.444 785.959 152.696 786.498C152.057 785.919 151.633 785.454 151.588 784.534C151.542 783.611 152.006 783.15 152.595 782.534L154.058 782.067C152.706 780.936 150.743 780.726 149.492 779.603C145.464 775.989 142.253 763.529 141.759 758.169C141.659 757.077 141.619 756.066 141.823 754.984L141.866 755.483C142.579 763.143 144.832 774.751 151.001 779.866C152.431 781.052 154.055 781.788 155.944 781.533C157.246 781.355 159.107 780.836 160.103 779.984C160.029 777.421 161.047 757.642 161.417 756.969C161.466 761.507 161.539 766.043 161.637 770.58C162.48 780.57 163.652 790.912 165.448 800.776C166.503 806.574 168.045 812.267 169.117 818.064C161.157 817.24 153.51 816.937 145.516 817.353C144.835 810.732 143.177 804.2 142.255 797.602C139.571 778.384 137.621 756.986 139.31 737.688Z" fill="#FF1A00"/>
<path d="M696.553 654.293C702.539 671.366 706.098 688.652 708.576 706.529C709.226 711.216 710.188 716.043 710.324 720.775C711.283 727.81 711.062 735.293 711.112 742.399C711.198 754.418 711.239 766.595 709.973 778.557C709.135 786.486 708.049 794.676 706.579 802.513C705.855 806.365 704.855 810.172 704.177 814.03C696.38 812.758 688.985 813.791 681.202 813.998C685.679 799.061 686.665 783.808 688.122 768.394C687.828 743.772 688.593 723.195 683.752 698.549C681.917 689.206 678.395 680.335 676.291 671.097C678.179 672.41 679.861 674.257 681.606 675.78C683.476 675.54 685.22 675.252 686.943 674.426C692.227 671.888 694.956 665.8 695.663 660.221C695.909 658.268 695.753 656.528 696.425 654.631C696.466 654.518 696.511 654.406 696.553 654.293Z" fill="#FC4033"/>
<path d="M688.121 768.392L688.513 768.841C689.54 769.2 690.512 769.448 691.608 769.47C694.696 769.532 697.282 768.161 699.417 766.011C710.143 755.203 708.53 727.315 708.53 712.746L708.747 712.794C709.714 714.849 709.593 721.508 710.065 724.331L710.323 720.774C711.283 727.808 711.061 735.291 711.112 742.397C711.197 754.417 711.239 766.594 709.973 778.555C709.134 786.485 708.049 794.675 706.578 802.511C705.854 806.364 704.855 810.17 704.177 814.029C696.38 812.757 688.984 813.79 681.202 813.996C685.679 799.06 686.664 783.806 688.121 768.392Z" fill="#FF1A00"/>
<defs>
<linearGradient id="paint0_linear_97_39" x1="394.11" y1="709.52" x2="439.694" y2="834.34" gradientUnits="userSpaceOnUse">
<stop stop-color="#5A97D6"/>
<stop offset="1" stop-color="#68BAF8"/>
</linearGradient>
<linearGradient id="paint1_linear_97_39" x1="544.523" y1="684.254" x2="569.188" y2="672.618" gradientUnits="userSpaceOnUse">
<stop stop-color="#95B73F"/>
<stop offset="1" stop-color="#8E9B33"/>
</linearGradient>
<linearGradient id="paint2_linear_97_39" x1="445.758" y1="658.681" x2="456.516" y2="635.24" gradientUnits="userSpaceOnUse">
<stop stop-color="#D9FCFF"/>
<stop offset="1" stop-color="#A2FFFF"/>
</linearGradient>
</defs>
</svg>
