<svg width="849" height="1183" viewBox="0 0 849 1183" fill="none" xmlns="http://www.w3.org/2000/svg">
<rect x="5" y="5" width="839" height="1173" rx="45" fill="white"/>
<rect x="5" y="5" width="839" height="1173" rx="45" stroke="black" stroke-width="10"/>
<circle cx="786.5" cy="1124.5" r="11.5" fill="black"/>
<circle cx="786.5" cy="59.5" r="11.5" fill="black"/>
<path d="M77 1124.5C77 1130.85 71.8513 1136 65.5 1136C59.1487 1136 54 1130.85 54 1124.5C54 1118.15 59.1487 1113 65.5 1113C71.8513 1113 77 1118.15 77 1124.5Z" fill="black"/>
<path d="M77 59.5C77 65.8513 71.8513 71 65.5 71C59.1487 71 54 65.8513 54 59.5C54 53.1487 59.1487 48 65.5 48C71.8513 48 77 53.1487 77 59.5Z" fill="black"/>
<mask id="path-6-inside-1_97_7" fill="white">
<path d="M708 48C713.523 48 717.934 52.4996 718.616 57.9801C723.122 94.1833 751.817 122.878 788.02 127.384C793.5 128.066 798 132.477 798 138V1046C798 1051.52 793.5 1055.93 788.02 1056.62C751.817 1061.12 723.122 1089.82 718.616 1126.02C717.934 1131.5 713.523 1136 708 1136H141C135.477 1136 131.066 1131.5 130.384 1126.02C125.878 1089.82 97.1833 1061.12 60.9801 1056.62C55.4996 1055.93 51 1051.52 51 1046V138C51 132.477 55.4996 128.066 60.9801 127.384C97.1833 122.878 125.878 94.1833 130.384 57.9801C131.066 52.4996 135.477 48 141 48H708Z"/>
</mask>
<path d="M708 48C713.523 48 717.934 52.4996 718.616 57.9801C723.122 94.1833 751.817 122.878 788.02 127.384C793.5 128.066 798 132.477 798 138V1046C798 1051.52 793.5 1055.93 788.02 1056.62C751.817 1061.12 723.122 1089.82 718.616 1126.02C717.934 1131.5 713.523 1136 708 1136H141C135.477 1136 131.066 1131.5 130.384 1126.02C125.878 1089.82 97.1833 1061.12 60.9801 1056.62C55.4996 1055.93 51 1051.52 51 1046V138C51 132.477 55.4996 128.066 60.9801 127.384C97.1833 122.878 125.878 94.1833 130.384 57.9801C131.066 52.4996 135.477 48 141 48H708Z" fill="#0089CB"/>
<path d="M130.384 1126.02L138.322 1125.03L130.384 1126.02ZM718.616 1126.02L710.678 1125.03L718.616 1126.02ZM788.02 1056.62L789.008 1064.56L788.02 1056.62ZM718.616 57.9801L726.555 56.9922L718.616 57.9801ZM718.616 57.9801L710.678 58.9681C715.635 98.8063 747.194 130.365 787.032 135.322L788.02 127.384L789.008 119.445C756.44 115.392 730.608 89.5603 726.555 56.9922L718.616 57.9801ZM798 138H790V1046H798H806V138H798ZM788.02 1056.62L787.032 1048.68C747.194 1053.64 715.635 1085.19 710.678 1125.03L718.616 1126.02L726.555 1127.01C730.608 1094.44 756.44 1068.61 789.008 1064.56L788.02 1056.62ZM708 1136V1128H141V1136V1144H708V1136ZM130.384 1126.02L138.322 1125.03C133.365 1085.19 101.806 1053.64 61.9681 1048.68L60.9801 1056.62L59.9922 1064.56C92.5603 1068.61 118.392 1094.44 122.445 1127.01L130.384 1126.02ZM51 1046H59V138H51H43V1046H51ZM60.9801 127.384L61.9681 135.322C101.806 130.365 133.365 98.8063 138.322 58.9681L130.384 57.9801L122.445 56.9922C118.392 89.5603 92.5603 115.392 59.9922 119.445L60.9801 127.384ZM141 48V56H708V48V40H141V48ZM130.384 57.9801L138.322 58.9681C138.438 58.0389 138.872 57.2306 139.427 56.6958C139.954 56.1887 140.494 56 141 56V48V40C130.84 40 123.547 48.1329 122.445 56.9922L130.384 57.9801ZM51 138H59C59 137.494 59.1887 136.954 59.6958 136.427C60.2306 135.872 61.0389 135.438 61.9681 135.322L60.9801 127.384L59.9922 119.445C51.1329 120.547 43 127.84 43 138H51ZM60.9801 1056.62L61.9681 1048.68C61.0389 1048.56 60.2306 1048.13 59.6958 1047.57C59.1887 1047.05 59 1046.51 59 1046H51H43C43 1056.16 51.1329 1063.45 59.9922 1064.56L60.9801 1056.62ZM141 1136V1128C140.494 1128 139.954 1127.81 139.427 1127.3C138.872 1126.77 138.438 1125.96 138.322 1125.03L130.384 1126.02L122.445 1127.01C123.547 1135.87 130.84 1144 141 1144V1136ZM718.616 1126.02L710.678 1125.03C710.562 1125.96 710.128 1126.77 709.573 1127.3C709.046 1127.81 708.506 1128 708 1128V1136V1144C718.16 1144 725.453 1135.87 726.555 1127.01L718.616 1126.02ZM798 1046H790C790 1046.51 789.811 1047.05 789.304 1047.57C788.769 1048.13 787.961 1048.56 787.032 1048.68L788.02 1056.62L789.008 1064.56C797.867 1063.45 806 1056.16 806 1046H798ZM788.02 127.384L787.032 135.322C787.961 135.438 788.769 135.872 789.304 136.427C789.811 136.954 790 137.494 790 138H798H806C806 127.84 797.867 120.547 789.008 119.445L788.02 127.384ZM718.616 57.9801L726.555 56.9922C725.453 48.1329 718.16 40 708 40V48V56C708.506 56 709.046 56.1887 709.573 56.6958C710.128 57.2306 710.562 58.0389 710.678 58.9681L718.616 57.9801Z" fill="black" mask="url(#path-6-inside-1_97_7)"/>
<path d="M690 102C695.523 102 699.911 106.512 700.837 111.957C705.019 136.563 724.437 155.981 749.043 160.163C754.488 161.089 759 165.477 759 171V1014C759 1019.52 754.488 1023.91 749.043 1024.84C724.711 1028.97 705.454 1048 700.984 1072.22C699.993 1077.59 695.633 1082 690.175 1082H158.825C153.367 1082 149.007 1077.59 148.016 1072.22C143.546 1048 124.288 1028.97 99.9568 1024.84C94.5121 1023.91 90 1019.52 90 1014V171C90 165.477 94.512 161.089 99.9568 160.163C124.563 155.981 143.981 136.563 148.163 111.957C149.089 106.512 153.477 102 159 102H690Z" fill="#4BADDC"/>
<path d="M334.685 366.52C334.685 369.523 333.977 372.357 332.56 375.02C331.143 377.683 328.877 379.865 325.76 381.565C322.643 383.208 318.648 384.03 313.775 384.03H303.065V408H293.375V348.925H313.775C318.308 348.925 322.133 349.718 325.25 351.305C328.423 352.835 330.775 354.932 332.305 357.595C333.892 360.258 334.685 363.233 334.685 366.52ZM313.775 376.125C317.458 376.125 320.207 375.303 322.02 373.66C323.833 371.96 324.74 369.58 324.74 366.52C324.74 360.06 321.085 356.83 313.775 356.83H303.065V376.125H313.775ZM340.697 384.37C340.697 379.667 341.66 375.502 343.587 371.875C345.57 368.248 348.233 365.443 351.577 363.46C354.977 361.42 358.717 360.4 362.797 360.4C366.48 360.4 369.682 361.137 372.402 362.61C375.178 364.027 377.388 365.812 379.032 367.965V361.165H388.807V408H379.032V401.03C377.388 403.24 375.15 405.082 372.317 406.555C369.483 408.028 366.253 408.765 362.627 408.765C358.603 408.765 354.92 407.745 351.577 405.705C348.233 403.608 345.57 400.718 343.587 397.035C341.66 393.295 340.697 389.073 340.697 384.37ZM379.032 384.54C379.032 381.31 378.352 378.505 376.992 376.125C375.688 373.745 373.96 371.932 371.807 370.685C369.653 369.438 367.33 368.815 364.837 368.815C362.343 368.815 360.02 369.438 357.867 370.685C355.713 371.875 353.957 373.66 352.597 376.04C351.293 378.363 350.642 381.14 350.642 384.37C350.642 387.6 351.293 390.433 352.597 392.87C353.957 395.307 355.713 397.177 357.867 398.48C360.077 399.727 362.4 400.35 364.837 400.35C367.33 400.35 369.653 399.727 371.807 398.48C373.96 397.233 375.688 395.42 376.992 393.04C378.352 390.603 379.032 387.77 379.032 384.54ZM375.122 348.585L356.337 357.85V350.71L375.122 340.34V348.585ZM406.464 354.96C404.708 354.96 403.234 354.365 402.044 353.175C400.854 351.985 400.259 350.512 400.259 348.755C400.259 346.998 400.854 345.525 402.044 344.335C403.234 343.145 404.708 342.55 406.464 342.55C408.164 342.55 409.609 343.145 410.799 344.335C411.989 345.525 412.584 346.998 412.584 348.755C412.584 350.512 411.989 351.985 410.799 353.175C409.609 354.365 408.164 354.96 406.464 354.96ZM411.224 417.18C411.224 421.77 410.063 425.085 407.739 427.125C405.473 429.222 402.158 430.27 397.794 430.27H392.779V422.11H396.094C398.078 422.11 399.466 421.713 400.259 420.92C401.109 420.183 401.534 418.937 401.534 417.18V361.165H411.224V417.18ZM420.716 384.37C420.716 379.667 421.68 375.502 423.606 371.875C425.59 368.248 428.253 365.443 431.596 363.46C434.996 361.42 438.736 360.4 442.816 360.4C446.5 360.4 449.701 361.137 452.421 362.61C455.198 364.027 457.408 365.812 459.051 367.965V361.165H468.826V408H459.051V401.03C457.408 403.24 455.17 405.082 452.336 406.555C449.503 408.028 446.273 408.765 442.646 408.765C438.623 408.765 434.94 407.745 431.596 405.705C428.253 403.608 425.59 400.718 423.606 397.035C421.68 393.295 420.716 389.073 420.716 384.37ZM459.051 384.54C459.051 381.31 458.371 378.505 457.011 376.125C455.708 373.745 453.98 371.932 451.826 370.685C449.673 369.438 447.35 368.815 444.856 368.815C442.363 368.815 440.04 369.438 437.886 370.685C435.733 371.875 433.976 373.66 432.616 376.04C431.313 378.363 430.661 381.14 430.661 384.37C430.661 387.6 431.313 390.433 432.616 392.87C433.976 395.307 435.733 397.177 437.886 398.48C440.096 399.727 442.42 400.35 444.856 400.35C447.35 400.35 449.673 399.727 451.826 398.48C453.98 397.233 455.708 395.42 457.011 393.04C458.371 390.603 459.051 387.77 459.051 384.54ZM491.244 367.965C492.66 365.585 494.53 363.743 496.854 362.44C499.234 361.08 502.039 360.4 505.269 360.4V370.43H502.804C499.007 370.43 496.117 371.393 494.134 373.32C492.207 375.247 491.244 378.59 491.244 383.35V408H481.554V361.165H491.244V367.965ZM534.491 408.765C530.071 408.765 526.076 407.773 522.506 405.79C518.936 403.75 516.131 400.917 514.091 397.29C512.051 393.607 511.031 389.357 511.031 384.54C511.031 379.78 512.079 375.558 514.176 371.875C516.272 368.192 519.134 365.358 522.761 363.375C526.387 361.392 530.439 360.4 534.916 360.4C539.392 360.4 543.444 361.392 547.071 363.375C550.697 365.358 553.559 368.192 555.656 371.875C557.752 375.558 558.801 379.78 558.801 384.54C558.801 389.3 557.724 393.522 555.571 397.205C553.417 400.888 550.471 403.75 546.731 405.79C543.047 407.773 538.967 408.765 534.491 408.765ZM534.491 400.35C536.984 400.35 539.307 399.755 541.461 398.565C543.671 397.375 545.456 395.59 546.816 393.21C548.176 390.83 548.856 387.94 548.856 384.54C548.856 381.14 548.204 378.278 546.901 375.955C545.597 373.575 543.869 371.79 541.716 370.6C539.562 369.41 537.239 368.815 534.746 368.815C532.252 368.815 529.929 369.41 527.776 370.6C525.679 371.79 524.007 373.575 522.761 375.955C521.514 378.278 520.891 381.14 520.891 384.54C520.891 389.583 522.166 393.493 524.716 396.27C527.322 398.99 530.581 400.35 534.491 400.35Z" fill="black"/>
<mask id="path-10-outside-2_97_7" maskUnits="userSpaceOnUse" x="419" y="1006" width="22" height="32" fill="black">
<rect fill="white" x="419" y="1006" width="22" height="32"/>
<path d="M435.08 1014.6C434.787 1013.37 434.253 1012.45 433.48 1011.84C432.707 1011.23 431.627 1010.92 430.24 1010.92C428.133 1010.92 426.56 1011.73 425.52 1013.36C424.48 1014.96 423.933 1017.63 423.88 1021.36C424.573 1020.19 425.587 1019.28 426.92 1018.64C428.253 1018 429.693 1017.68 431.24 1017.68C433 1017.68 434.547 1018.07 435.88 1018.84C437.24 1019.59 438.293 1020.68 439.04 1022.12C439.813 1023.56 440.2 1025.28 440.2 1027.28C440.2 1029.15 439.827 1030.81 439.08 1032.28C438.36 1033.75 437.28 1034.91 435.84 1035.76C434.4 1036.59 432.667 1037 430.64 1037C427.893 1037 425.733 1036.4 424.16 1035.2C422.613 1033.97 421.52 1032.25 420.88 1030.04C420.267 1027.83 419.96 1025.07 419.96 1021.76C419.96 1012 423.4 1007.12 430.28 1007.12C432.947 1007.12 435.04 1007.84 436.56 1009.28C438.107 1010.72 439.013 1012.49 439.28 1014.6H435.08ZM430.24 1021.52C428.613 1021.52 427.227 1022.01 426.08 1023C424.96 1023.96 424.4 1025.36 424.4 1027.2C424.4 1029.04 424.92 1030.51 425.96 1031.6C427.027 1032.67 428.507 1033.2 430.4 1033.2C432.08 1033.2 433.4 1032.68 434.36 1031.64C435.347 1030.6 435.84 1029.21 435.84 1027.48C435.84 1025.67 435.36 1024.23 434.4 1023.16C433.467 1022.07 432.08 1021.52 430.24 1021.52Z"/>
</mask>
<path d="M435.08 1014.6C434.787 1013.37 434.253 1012.45 433.48 1011.84C432.707 1011.23 431.627 1010.92 430.24 1010.92C428.133 1010.92 426.56 1011.73 425.52 1013.36C424.48 1014.96 423.933 1017.63 423.88 1021.36C424.573 1020.19 425.587 1019.28 426.92 1018.64C428.253 1018 429.693 1017.68 431.24 1017.68C433 1017.68 434.547 1018.07 435.88 1018.84C437.24 1019.59 438.293 1020.68 439.04 1022.12C439.813 1023.56 440.2 1025.28 440.2 1027.28C440.2 1029.15 439.827 1030.81 439.08 1032.28C438.36 1033.75 437.28 1034.91 435.84 1035.76C434.4 1036.59 432.667 1037 430.64 1037C427.893 1037 425.733 1036.4 424.16 1035.2C422.613 1033.97 421.52 1032.25 420.88 1030.04C420.267 1027.83 419.96 1025.07 419.96 1021.76C419.96 1012 423.4 1007.12 430.28 1007.12C432.947 1007.12 435.04 1007.84 436.56 1009.28C438.107 1010.72 439.013 1012.49 439.28 1014.6H435.08ZM430.24 1021.52C428.613 1021.52 427.227 1022.01 426.08 1023C424.96 1023.96 424.4 1025.36 424.4 1027.2C424.4 1029.04 424.92 1030.51 425.96 1031.6C427.027 1032.67 428.507 1033.2 430.4 1033.2C432.08 1033.2 433.4 1032.68 434.36 1031.64C435.347 1030.6 435.84 1029.21 435.84 1027.48C435.84 1025.67 435.36 1024.23 434.4 1023.16C433.467 1022.07 432.08 1021.52 430.24 1021.52Z" fill="black"/>
<path d="M435.08 1014.6L434.788 1014.67L434.843 1014.9H435.08V1014.6ZM433.48 1011.84L433.666 1011.6L433.48 1011.84ZM425.52 1013.36L425.772 1013.52L425.773 1013.52L425.52 1013.36ZM423.88 1021.36L423.58 1021.36L423.564 1022.48L424.138 1021.51L423.88 1021.36ZM435.88 1018.84L435.729 1019.1L435.736 1019.1L435.88 1018.84ZM439.04 1022.12L438.774 1022.26L438.776 1022.26L439.04 1022.12ZM439.08 1032.28L438.813 1032.14L438.811 1032.15L439.08 1032.28ZM435.84 1035.76L435.989 1036.02L435.993 1036.02L435.84 1035.76ZM424.16 1035.2L423.974 1035.44L423.978 1035.44L424.16 1035.2ZM420.88 1030.04L420.591 1030.12L420.592 1030.12L420.88 1030.04ZM436.56 1009.28L436.354 1009.5L436.356 1009.5L436.56 1009.28ZM439.28 1014.6V1014.9H439.62L439.578 1014.56L439.28 1014.6ZM426.08 1023L426.275 1023.23L426.276 1023.23L426.08 1023ZM425.96 1031.6L425.743 1031.81L425.748 1031.81L425.96 1031.6ZM434.36 1031.64L434.142 1031.43L434.14 1031.44L434.36 1031.64ZM434.4 1023.16L434.172 1023.35L434.177 1023.36L434.4 1023.16ZM435.08 1014.6L435.372 1014.53C435.067 1013.26 434.506 1012.27 433.666 1011.6L433.48 1011.84L433.294 1012.08C434.001 1012.64 434.506 1013.49 434.788 1014.67L435.08 1014.6ZM433.48 1011.84L433.666 1011.6C432.822 1010.94 431.667 1010.62 430.24 1010.62V1010.92V1011.22C431.586 1011.22 432.591 1011.52 433.294 1012.08L433.48 1011.84ZM430.24 1010.92V1010.62C428.042 1010.62 426.368 1011.48 425.267 1013.2L425.52 1013.36L425.773 1013.52C426.752 1011.99 428.225 1011.22 430.24 1011.22V1010.92ZM425.52 1013.36L425.268 1013.2C424.18 1014.87 423.634 1017.61 423.58 1021.36L423.88 1021.36L424.18 1021.36C424.233 1017.64 424.78 1015.05 425.772 1013.52L425.52 1013.36ZM423.88 1021.36L424.138 1021.51C424.799 1020.39 425.765 1019.53 427.05 1018.91L426.92 1018.64L426.79 1018.37C425.408 1019.03 424.348 1019.98 423.622 1021.21L423.88 1021.36ZM426.92 1018.64L427.05 1018.91C428.341 1018.29 429.736 1017.98 431.24 1017.98V1017.68V1017.38C429.651 1017.38 428.166 1017.71 426.79 1018.37L426.92 1018.64ZM431.24 1017.68V1017.98C432.955 1017.98 434.448 1018.36 435.729 1019.1L435.88 1018.84L436.031 1018.58C434.645 1017.78 433.045 1017.38 431.24 1017.38V1017.68ZM435.88 1018.84L435.736 1019.1C437.041 1019.82 438.053 1020.87 438.774 1022.26L439.04 1022.12L439.306 1021.98C438.534 1020.49 437.439 1019.35 436.024 1018.58L435.88 1018.84ZM439.04 1022.12L438.776 1022.26C439.521 1023.65 439.9 1025.32 439.9 1027.28H440.2H440.5C440.5 1025.24 440.106 1023.47 439.304 1021.98L439.04 1022.12ZM440.2 1027.28H439.9C439.9 1029.11 439.535 1030.72 438.813 1032.14L439.08 1032.28L439.347 1032.42C440.118 1030.9 440.5 1029.19 440.5 1027.28H440.2ZM439.08 1032.28L438.811 1032.15C438.117 1033.56 437.078 1034.68 435.687 1035.5L435.84 1035.76L435.993 1036.02C437.482 1035.14 438.603 1033.93 439.349 1032.41L439.08 1032.28ZM435.84 1035.76L435.691 1035.5C434.305 1036.3 432.626 1036.7 430.64 1036.7V1037V1037.3C432.708 1037.3 434.495 1036.88 435.989 1036.02L435.84 1035.76ZM430.64 1037V1036.7C427.934 1036.7 425.846 1036.11 424.342 1034.96L424.16 1035.2L423.978 1035.44C425.621 1036.69 427.853 1037.3 430.64 1037.3V1037ZM424.16 1035.2L424.346 1034.96C422.856 1033.78 421.794 1032.12 421.168 1029.96L420.88 1030.04L420.592 1030.12C421.246 1032.39 422.37 1034.16 423.974 1035.44L424.16 1035.2ZM420.88 1030.04L421.169 1029.96C420.565 1027.78 420.26 1025.05 420.26 1021.76H419.96H419.66C419.66 1025.08 419.968 1027.87 420.591 1030.12L420.88 1030.04ZM419.96 1021.76H420.26C420.26 1016.91 421.117 1013.32 422.785 1010.95C424.44 1008.61 426.92 1007.42 430.28 1007.42V1007.12V1006.82C426.76 1006.82 424.08 1008.07 422.295 1010.61C420.523 1013.12 419.66 1016.85 419.66 1021.76H419.96ZM430.28 1007.12V1007.42C432.892 1007.42 434.903 1008.12 436.354 1009.5L436.56 1009.28L436.766 1009.06C435.177 1007.56 433.002 1006.82 430.28 1006.82V1007.12ZM436.56 1009.28L436.356 1009.5C437.851 1010.89 438.724 1012.6 438.982 1014.64L439.28 1014.6L439.578 1014.56C439.302 1012.39 438.363 1010.55 436.764 1009.06L436.56 1009.28ZM439.28 1014.6V1014.3H435.08V1014.6V1014.9H439.28V1014.6ZM430.24 1021.52V1021.22C428.547 1021.22 427.09 1021.74 425.884 1022.77L426.08 1023L426.276 1023.23C427.364 1022.29 428.679 1021.82 430.24 1021.82V1021.52ZM426.08 1023L425.885 1022.77C424.682 1023.8 424.1 1025.3 424.1 1027.2H424.4H424.7C424.7 1025.42 425.238 1024.12 426.275 1023.23L426.08 1023ZM424.4 1027.2H424.1C424.1 1029.1 424.638 1030.65 425.743 1031.81L425.96 1031.6L426.177 1031.39C425.202 1030.37 424.7 1028.98 424.7 1027.2H424.4ZM425.96 1031.6L425.748 1031.81C426.884 1032.95 428.449 1033.5 430.4 1033.5V1033.2V1032.9C428.565 1032.9 427.169 1032.38 426.172 1031.39L425.96 1031.6ZM430.4 1033.2V1033.5C432.147 1033.5 433.553 1032.96 434.58 1031.84L434.36 1031.64L434.14 1031.44C433.247 1032.4 432.013 1032.9 430.4 1032.9V1033.2ZM434.36 1031.64L434.578 1031.85C435.628 1030.74 436.14 1029.27 436.14 1027.48H435.84H435.54C435.54 1029.15 435.065 1030.46 434.142 1031.43L434.36 1031.64ZM435.84 1027.48H436.14C436.14 1025.61 435.645 1024.09 434.623 1022.96L434.4 1023.16L434.177 1023.36C435.075 1024.36 435.54 1025.72 435.54 1027.48H435.84ZM434.4 1023.16L434.628 1022.97C433.623 1021.79 432.141 1021.22 430.24 1021.22V1021.52V1021.82C432.019 1021.82 433.311 1022.35 434.172 1023.35L434.4 1023.16Z" fill="black" mask="url(#path-10-outside-2_97_7)"/>
<path d="M367.13 233.99C371.47 234.97 374.9 237.14 377.42 240.5C380.01 243.79 381.305 247.57 381.305 251.84C381.305 258.14 379.135 263.075 374.795 266.645C370.455 270.215 364.365 272 356.525 272H319.88V197.975H355.37C362.93 197.975 368.845 199.655 373.115 203.015C377.455 206.375 379.625 211.1 379.625 217.19C379.625 221.53 378.47 225.17 376.16 228.11C373.92 230.98 370.91 232.94 367.13 233.99ZM340.46 227.375H350.855C356.035 227.375 358.625 225.24 358.625 220.97C358.625 216.56 356.035 214.355 350.855 214.355H340.46V227.375ZM352.43 255.41C357.61 255.41 360.2 253.24 360.2 248.9C360.2 246.66 359.5 244.945 358.1 243.755C356.77 242.565 354.845 241.97 352.325 241.97H340.46V255.41H352.43ZM400.719 207.635C397.079 207.635 394.139 206.655 391.899 204.695C389.729 202.665 388.644 200.145 388.644 197.135C388.644 194.055 389.729 191.5 391.899 189.47C394.139 187.44 397.079 186.425 400.719 186.425C404.289 186.425 407.159 187.44 409.329 189.47C411.569 191.5 412.689 194.055 412.689 197.135C412.689 200.145 411.569 202.665 409.329 204.695C407.159 206.655 404.289 207.635 400.719 207.635ZM410.904 213.095V272H390.324V213.095H410.904ZM443.204 223.49C445.514 220.13 448.314 217.47 451.604 215.51C454.894 213.55 458.429 212.57 462.209 212.57V234.515H456.434C451.954 234.515 448.629 235.39 446.459 237.14C444.289 238.89 443.204 241.935 443.204 246.275V272H422.624V213.095H443.204V223.49ZM466.227 242.495C466.227 236.405 467.312 231.085 469.482 226.535C471.722 221.985 474.767 218.485 478.617 216.035C482.467 213.585 486.737 212.36 491.427 212.36C495.207 212.36 498.567 213.165 501.507 214.775C504.517 216.315 506.862 218.45 508.542 221.18V194.3H529.227V272H508.542V263.81C506.932 266.54 504.657 268.71 501.717 270.32C498.777 271.93 495.312 272.735 491.322 272.735C486.632 272.735 482.362 271.51 478.512 269.06C474.732 266.61 471.722 263.11 469.482 258.56C467.312 253.94 466.227 248.585 466.227 242.495ZM508.647 242.495C508.647 238.715 507.597 235.74 505.497 233.57C503.467 231.4 500.947 230.315 497.937 230.315C494.857 230.315 492.302 231.4 490.272 233.57C488.242 235.67 487.227 238.645 487.227 242.495C487.227 246.275 488.242 249.285 490.272 251.525C492.302 253.695 494.857 254.78 497.937 254.78C500.947 254.78 503.467 253.695 505.497 251.525C507.597 249.355 508.647 246.345 508.647 242.495Z" fill="black"/>
<rect x="157.454" y="802.66" width="44.7019" height="15" transform="rotate(-55.0953 157.454 802.66)" fill="white"/>
<rect x="187" y="758.615" width="58.0601" height="23.0864" transform="rotate(-55.0953 187 758.615)" fill="white"/>
<rect x="597.993" y="813.869" width="58.0601" height="23.0864" transform="rotate(-128.31 597.993 813.869)" fill="white"/>
<rect x="648.968" y="878.824" width="82.2165" height="23.0864" transform="rotate(-128.31 648.968 878.824)" fill="white"/>
<rect x="658.754" y="684.45" width="148.01" height="26.5621" transform="rotate(-128.31 658.754 684.45)" fill="white"/>
<path d="M506.851 467.406C564.179 461.704 597.763 517.178 618.421 562.649C635.245 599.683 640.002 628.495 680.971 644.963C685.794 646.902 695.474 647.845 697.562 653.364C699.308 657.976 685.223 678.28 682.686 683.243C693.417 683.239 704.306 686.346 715.133 686.93C735.405 688.021 745.982 678.7 736.941 706.754C718.527 763.894 682.696 768.856 632.524 741.591C627.197 738.697 621.957 734.139 616.229 732.304L615.682 732.133C611.739 732.514 607.98 733.496 604.149 734.453C613.887 776.733 639.12 835.413 678.029 855.927C681.578 857.799 689.022 859.605 689.76 864.312C690.683 870.186 674.187 888.045 670.516 893.415L670.155 893.947C679.871 897.296 689.01 900.903 699.113 903.094C703.221 903.984 715.422 902.769 717.148 907.546C718.832 912.204 711.073 926.414 708.68 931.118C682.017 983.5 644.652 976.454 600.148 949.391C594.293 945.831 589.181 941.061 582.971 938.085C579.537 938.699 576.042 938.913 572.567 939.2C570.887 939.121 569.194 939.18 567.512 939.2C568.036 950.362 567.527 961.67 567.512 972.853C568.574 973.577 595.869 990.505 582.675 992.718C578.287 993.454 567.35 984.156 563.486 981.324C561.035 982.737 538.437 1000.77 539.725 988.207C540.169 983.884 554.791 975.474 558.718 972.853C559.087 961.684 558.726 950.385 558.718 939.2C546.437 939.003 535.367 936.789 523.51 933.949C524.219 942.082 523.525 952.721 523.51 961.128C526.062 962.971 545.999 973.855 536.327 978.245C532.472 979.994 522.791 971.204 518.543 969.052C515.359 971.184 503.072 980.366 499.971 979.799C486.788 977.391 511.873 962.431 514.573 961.128V930.127C498.908 924.986 478.21 909.618 466.617 897.94C435.345 866.436 421.075 825.303 421.202 781.592C415.33 779.784 385.411 768.952 388.687 760.497C389.964 757.2 424.621 734.27 429.312 732.133C434.396 715.919 441.656 698.28 454.757 686.944C432.494 655.893 421.661 626.88 420.063 587.809C402.035 573.784 374.701 580.04 402.631 558.368C425.864 540.34 423.272 546.147 434.763 521.863C448.165 493.539 474.976 470.526 506.851 467.406ZM679.423 866.643C678.734 866.257 677.876 865.622 677.142 865.389C673.088 863.6 669.335 861.385 665.518 859.149C661.169 856.639 657.492 853.372 653.695 850.116C649.894 847.357 646.6 843.729 643.142 840.545C641.754 837.965 639.517 835.573 637.694 833.283C614.652 804.32 602.761 747.451 557.057 756.783C529.521 759.804 514.682 788.241 517.796 813.7C523.925 863.799 573.594 902.829 619.092 917.616C643.212 908.966 665.66 888.084 679.423 866.643ZM600.587 726.133C624.219 720.402 647.252 708.192 663.483 689.757C673.524 680.316 681.494 668.813 687.351 656.364C659.96 646.502 636.822 631.021 621.543 605.259C608.07 582.542 594.27 559.56 563.486 564.252C530.478 567.118 516.125 606.754 526.104 635.972C535.932 664.748 540.223 661.932 560.11 675.474C578.799 688.201 591.324 705.847 600.587 726.133Z" fill="black"/>
<path d="M439.918 727.635C456.054 686.315 495.424 657.061 540.528 675.094C582.274 691.785 590.737 726.699 604.149 763.184C557.319 726.452 501.452 758.897 509.276 817.081C514.021 852.365 538.981 881.852 567.511 901.457C580.134 910.177 593.588 916.255 607.266 923.049C582.092 932.498 550.155 933.15 524.535 924.486C469.172 905.767 427.196 844.172 430.174 785.794C435.751 788.752 441.609 791.143 447.39 793.67L457.876 797.556C457.631 784.776 457.9 771.962 457.909 759.177C457.925 741.357 459.714 731.814 439.918 727.635Z" fill="#4FCFDD"/>
<path d="M430.174 785.794C435.751 788.752 441.609 791.143 447.39 793.67C449.466 803.6 451.329 813.706 454.687 823.299C469.441 865.442 509.243 897.338 553.726 901.78C558.141 902.222 563.24 903.005 567.511 901.457C580.134 910.177 593.588 916.255 607.266 923.049C582.092 932.499 550.155 933.15 524.535 924.486C469.172 905.767 427.196 844.172 430.174 785.794Z" fill="#37B7C3"/>
<path d="M495.677 702.784C504.372 702.627 511.567 709.511 511.794 718.205C512.021 726.899 505.193 734.15 496.503 734.445C487.711 734.746 480.36 727.824 480.132 719.031C479.901 710.238 486.882 702.943 495.677 702.784Z" fill="black"/>
<path d="M500.729 708.783C509.365 707.941 509.609 717.48 502.861 720.376C494.212 720.186 494.207 712.244 500.729 708.783Z" fill="#FEFDFD"/>
<path d="M502.861 677.761C504.82 677.52 506.774 677.673 508.741 677.761C509.922 678.638 510.917 679.552 511.923 680.625C524.921 674.61 526.396 691.229 511.923 686.944C497.682 688.106 485.176 689.39 475.065 701.207C472.373 704.28 470.638 709.262 467.152 711.382C455.89 712.654 462.729 700.849 466.054 696.504C474.953 684.88 488.78 679.666 502.861 677.761Z" fill="#FEFDFD"/>
<path d="M438.465 534.819C449.225 510.917 463.934 490.302 489.374 480.625C549.606 457.713 585.478 515.074 608.117 561.351C612.357 570.02 617.26 578.631 620.325 587.809C609.351 573.042 598.237 558.445 578.693 555.664C546.976 551.153 518.774 573.433 514.73 605.119C511.798 628.095 518.435 643.318 529.422 662.697C510.798 660.481 496.705 661.384 479.269 668.917C472.746 672.052 466.827 675.718 461.485 680.625C443.335 657.425 428.3 621.045 429.312 590.745C435.838 594.123 446.284 597.441 451.819 601.308C461.452 602.092 457.914 588.027 457.89 582.066C457.799 558.186 464.353 544.302 438.465 534.819Z" fill="#FECE37"/>
<path d="M429.312 590.745C435.838 594.123 446.284 597.441 451.819 601.308C450.133 604.339 455.038 618.552 456.149 622.465C462.313 644.19 468.689 651.246 479.269 668.917C472.746 672.052 466.827 675.718 461.485 680.625C443.335 657.425 428.3 621.045 429.312 590.745Z" fill="#FFA433"/>
<path d="M489.668 513.87C494.907 512.86 500.285 514.746 503.746 518.807C507.208 522.867 508.218 528.477 506.391 533.49C504.566 538.504 500.184 542.148 494.921 543.03C486.92 544.372 479.328 539.03 477.889 531.046C476.451 523.062 481.701 515.404 489.668 513.87Z" fill="black"/>
<path d="M497.148 521.21C503.944 521.593 506.906 527.937 500.729 532.365C492.71 533.363 490.017 524.727 497.148 521.21Z" fill="#FEFDFD"/>
<path d="M505.201 485.195C507.977 485.769 510.015 488.105 509.268 491.085C508.459 494.31 496.714 496.333 493.61 497.404C471.954 504.87 469.329 521.165 461.485 525.011C454.389 523.225 455.618 518.168 459.09 513.033C469.85 497.117 486.811 488.757 505.201 485.195Z" fill="#FEFDFD"/>
<path d="M484.376 543.377C495.326 545.066 501.551 557.273 490.011 562.599C479.811 564.877 472.527 549.762 484.376 543.377Z" fill="#FEFDFD"/>
<path d="M521.597 483.519C530.608 482.96 530.462 491.397 523.509 495.166C515.613 495.432 515.767 487.212 521.597 483.519Z" fill="#FEFDFD"/>
<path d="M557.057 756.783C602.761 747.451 614.652 804.32 637.694 833.283C639.517 835.573 641.754 837.965 643.142 840.545C646.6 843.729 649.894 847.357 653.695 850.116C657.492 853.372 661.169 856.639 665.518 859.149C669.335 861.385 673.088 863.599 677.142 865.389C677.876 865.622 678.734 866.257 679.423 866.643C665.66 888.084 643.212 908.966 619.092 917.616C573.594 902.829 523.925 863.799 517.796 813.7C514.682 788.241 529.521 759.804 557.057 756.783ZM651.864 851.946C648.325 849.259 645.033 846.534 642.026 843.249C628.185 833.259 618.557 812.072 611.106 807.781C605.886 813.065 607.292 814.686 610.93 820.453C622.481 838.759 636.009 853.714 657.389 860.876C659.593 861.615 661.841 863.014 663.483 860.763C659.387 858.121 655.802 854.811 651.864 851.946ZM605.089 803.847C606.58 802.727 608.128 801.653 609.461 800.343C603.491 783.032 592.743 766.488 572.567 767.504C561.611 775.883 576.839 775.78 580.192 776.576C596.671 780.489 599.574 805.409 605.089 803.847Z" fill="#88E446"/>
<path d="M619.092 917.616C573.594 902.829 523.925 863.799 517.796 813.7C514.682 788.241 529.521 759.804 557.057 756.783C555.199 760.388 550.46 762.657 547.859 765.848C521.558 798.127 537.933 844.308 570.464 865.006C596.381 881.496 633.562 885.934 661.642 871.999C665.503 870.084 675.195 866.54 677.142 865.389C677.876 865.622 678.734 866.257 679.423 866.643C665.66 888.084 643.212 908.966 619.092 917.616Z" fill="#62BF49"/>
<path d="M563.486 564.252C594.27 559.56 608.07 582.542 621.543 605.259C636.822 631.021 659.96 646.502 687.351 656.364C681.494 668.813 673.524 680.316 663.483 689.757C647.252 708.192 624.219 720.402 600.587 726.133C591.324 705.847 578.799 688.201 560.11 675.474C540.223 661.932 535.932 664.748 526.104 635.972C516.125 606.754 530.478 567.118 563.486 564.252ZM605.089 607.369C606.712 606.018 608.08 604.625 609.461 603.03C604.463 591.659 592.709 576.885 579.966 573.957C577.167 577.027 574.226 578.77 578.123 582.106C585.783 588.666 589.738 590.462 596.584 598.918C598.443 601.216 601.765 607.162 605.089 607.369ZM663.483 657.712C664.622 656.353 665.752 654.735 667.099 653.59C662.293 648.825 649.714 643.721 642.027 637.458C628.536 647.02 657.142 657.844 663.483 657.712ZM611.106 613.747C612.711 619.453 624.19 636.535 631.27 635.678C637.509 631.495 629.317 626.368 626.323 622.511C622.215 617.217 620.068 611.652 613.705 608.743C612.737 610.386 611.836 611.979 611.106 613.747Z" fill="#FECE37"/>
<path d="M600.587 726.133C591.324 705.847 578.799 688.201 560.11 675.474C540.223 661.932 535.932 664.748 526.104 635.972C516.125 606.754 530.478 567.118 563.486 564.252C562.117 567.801 557.368 569.513 554.895 572.292C542.517 586.202 540.131 606.441 545.27 623.863C557.72 666.075 603.615 691.201 645.868 690.737C651.585 690.674 657.869 689.284 663.483 689.757C647.252 708.192 624.219 720.402 600.587 726.133Z" fill="#FFA433"/>
<path d="M677.142 689.757C694.94 693.588 712.155 696.179 730.44 695.809C728.546 703.334 725.837 710.807 722.75 717.923C707.278 758.018 674.454 752.665 641.958 736.071C636.851 733.462 632.043 730.208 626.794 727.899L626.184 727.635C637.593 721.104 648.806 715.314 659.171 707.073C665.073 701.275 670.788 695.054 677.142 689.757Z" fill="#62BF49"/>
<path d="M677.142 689.757C694.94 693.588 712.155 696.179 730.44 695.809C728.546 703.334 725.837 710.807 722.75 717.923C718.206 717.26 711.584 719.254 706.699 719.411C689.47 719.963 674.353 714.561 659.171 707.073C665.073 701.275 670.788 695.054 677.142 689.757Z" fill="#88E446"/>
<path d="M663.483 899.345C677.475 907.619 690.781 910.723 706.455 913.837C704.311 919.488 701.781 924.802 698.928 930.127C672.088 979.434 633.997 961.304 595.541 935.446C612.686 932.693 621.974 924.591 634.674 921.488C645.355 913.722 653.629 908.619 663.483 899.345Z" fill="#37B7C3"/>
<path d="M663.483 899.345C677.475 907.619 690.781 910.723 706.455 913.837C704.31 919.488 701.78 924.802 698.928 930.127C693.505 929.901 687.561 932.53 682.057 933.049C665.347 934.629 649.749 927.659 634.674 921.488C645.355 913.722 653.628 908.619 663.483 899.345Z" fill="#4FCFDD"/>
<path d="M438.465 736.789C452.111 735.367 449.547 749.85 449.527 758.595L449.488 785.794C441.287 780.46 431.887 776.882 422.951 772.941C415.427 769.981 408.391 765.693 400.684 763.184C405.865 756.555 430.624 739.941 438.465 736.789Z" fill="#FECE37"/>
<path d="M435.873 543.377C450.387 546.404 449.525 555.925 449.505 568.467L449.488 590.745C442.231 586.854 434.48 583.657 427.023 580.144C419.01 576.624 410.97 573.151 403.018 569.491C413.181 560.002 425.19 552.305 435.873 543.377Z" fill="#FFA433"/>
<path d="M276.785 615.704C309.239 614.589 336.515 627.795 353.987 656.308C357.161 661.49 358.916 668.226 363.79 672.1C371.053 677.877 399.802 693.678 402.942 698.53C407.039 704.863 381.227 716.689 376.868 719.233C375.897 733.378 377.147 742.761 374.855 757.786C367.63 805.129 338.211 861.093 291.674 879.941C291.313 890.697 291.657 901.587 291.674 912.357C295.135 914.28 307.288 920.17 307.777 923.988C309.221 935.268 290.383 921.522 288.2 919.972C286.529 920.704 266.563 934.948 268.916 923.503C269.857 918.928 280.113 914.495 283.894 912.357C284.002 902.996 283.916 893.63 283.894 884.267C271.449 888.982 259.069 891.104 246.152 893.947V921.488C247.372 922.141 274.363 934.615 261.929 938.281C258.767 939.213 253.805 935.499 251.128 933.949C248.396 932.2 245.497 930.726 242.634 929.206C240.863 930.138 223.812 944.496 224.643 933.074C224.845 930.278 234.838 923.63 237.412 921.488C237.443 912.31 237.539 903.125 237.412 893.947C226.569 894.117 215.84 894.112 205.148 892.068C190.75 907.667 176.218 927.589 152.308 925.327C139.917 924.155 128.312 916.827 120.514 907.343C117.603 903.803 106.401 884.343 110.943 880.343C112.392 879.067 135.647 875.895 145.634 868.82C133.889 860.898 110.635 838.958 109.021 826.788C108.58 823.461 115.101 820.848 117.578 819.468C136.017 809.192 152.284 791.914 163.833 774.442C166.816 769.93 170.397 750.628 172.511 743.309C188.721 687.202 212.151 625.269 276.785 615.704ZM119.905 828.311C128.102 847.84 156.72 869.52 176.563 875.5C183.843 877.694 199.004 869.332 205.64 865.761C236.936 848.926 267.461 817.878 277.777 783.181C286.154 755.009 276.221 724.813 246.152 715.921C208.152 704.277 197.974 732.603 184.596 757.383C170.658 783.203 149.273 811.928 123.219 826.421L119.905 828.311Z" fill="black"/>
<path d="M180.875 747.678C182.118 737.755 186.616 728.136 190.005 718.809C201.044 688.427 215.233 654.867 243.566 636.739C285.383 609.983 325.744 627.921 350.744 667.35L349.379 667.762C328.657 674.133 335.218 690.05 337.48 706.091C338.909 716.226 339.805 730.501 342.845 739.895C345.43 737.923 347.935 736.104 350.744 734.453C356.596 730.706 362.581 727.663 368.718 724.435C370.181 804.888 318.46 883.984 232.554 885.504C225.819 885.622 218.532 885.624 211.886 884.494C204.361 883.215 204.171 882.512 194.947 881.79C200.569 878.418 216.282 868.99 221.987 866.643C257.631 841.287 303.806 789.629 285.758 741.944C274.938 713.355 242.018 697.113 213.08 708.546C192.912 716.515 188.539 730.278 180.875 747.678Z" fill="#FA5553"/>
<path d="M350.744 734.453C356.596 730.706 362.581 727.663 368.718 724.435C370.18 804.888 318.46 883.984 232.554 885.504C225.819 885.622 218.532 885.624 211.886 884.494C204.361 883.215 204.171 882.512 194.947 881.79C200.569 878.418 216.282 868.99 221.986 866.643C224.713 867.89 231.39 865.635 234.268 864.851C294.855 848.339 337.996 806.544 349.788 744.947C350.355 741.985 351.554 737.38 350.744 734.453Z" fill="#EF3D3B"/>
<path d="M287.664 653.655C292.989 652.488 298.529 654.276 302.17 658.332C305.811 662.389 306.989 668.091 305.255 673.258C303.522 678.426 299.143 682.263 293.793 683.304C285.654 684.888 277.755 679.629 276.076 671.508C274.397 663.388 279.563 655.429 287.664 653.655Z" fill="black"/>
<path d="M295.983 660.116C297.841 659.433 299.924 659.806 301.431 661.091C302.937 662.377 303.632 664.375 303.251 666.317C302.87 668.26 301.471 669.847 299.591 670.468C296.748 671.407 293.68 669.892 292.695 667.067C291.71 664.241 293.174 661.147 295.983 660.116Z" fill="#FEFDFD"/>
<path d="M123.219 826.421C149.273 811.928 170.658 783.203 184.596 757.383C197.973 732.603 208.152 704.277 246.152 715.921C276.221 724.813 286.154 755.009 277.777 783.181C267.461 817.878 236.936 848.926 205.64 865.761C199.004 869.332 183.843 877.694 176.563 875.5C156.72 869.52 128.102 847.84 119.905 828.311L123.219 826.421ZM205.148 749.981C209.247 744.462 212.905 738.342 218.622 734.284C221.938 731.928 229.711 729.673 231.701 726.657C234.821 721.935 228.685 719.442 225.05 719.233C211.899 725.89 201.437 732.605 198.163 747.678C200.376 749.312 202.329 750.484 205.148 749.981ZM167.13 807.781C171.546 804.746 202.766 769.911 183.989 770.994C178.695 774.78 174.432 786.587 167.988 793.213C163.484 797.845 155.321 805.764 167.13 807.781ZM201.033 759.134C205.976 755.494 204.191 750.638 198.531 750.018L198.163 749.981C193.156 754.133 194.307 759.559 201.033 759.134Z" fill="#F7689D"/>
<path d="M246.152 715.921C276.221 724.813 286.154 755.009 277.777 783.181C267.461 817.878 236.936 848.926 205.64 865.761C199.004 869.332 183.843 877.694 176.563 875.5C156.72 869.52 128.102 847.84 119.905 828.311L123.219 826.421C158.157 848.081 209.084 845.308 237.718 814.073C256.274 793.834 267.912 760.97 255.619 734.825C253.36 730.02 245.967 720.808 246.152 715.921Z" fill="#DA588E"/>
<path d="M153.58 874.512C160.536 878.58 168.223 881.209 175.101 885.406C181.712 886.187 188.379 889.123 194.947 890.571C183.085 901.703 171.913 917.114 153.78 916.566C142.073 916.211 130.678 908.302 124.75 898.356C122.512 894.861 121.214 891.384 119.905 887.452C133.877 884.7 141.273 881.594 153.58 874.512Z" fill="#EF3D3B"/>
<path d="M153.58 874.512C160.536 878.58 168.223 881.209 175.101 885.406C155.125 894.907 148.449 897.498 124.75 898.356C122.512 894.861 121.214 891.384 119.905 887.452C133.877 884.7 141.273 881.594 153.58 874.512Z" fill="#FA5553"/>
<path d="M349.32 676.512C357.743 675.938 385.977 695.852 391.772 701.207C384.627 704.003 377.973 708.41 371.363 712.292C363.897 716.468 355.863 720.59 349.32 726.133C346.835 711.894 344.568 697.598 342.845 683.243L343.2 682.372C344.56 679.065 346.077 677.866 349.32 676.512Z" fill="#FECE37"/>
</svg>
