<svg width="849" height="1183" viewBox="0 0 849 1183" fill="none" xmlns="http://www.w3.org/2000/svg">
<rect x="5" y="5" width="839" height="1173" rx="45" fill="white"/>
<rect x="5" y="5" width="839" height="1173" rx="45" stroke="black" stroke-width="10"/>
<circle cx="786.5" cy="1124.5" r="11.5" fill="black"/>
<circle cx="786.5" cy="59.5" r="11.5" fill="black"/>
<path d="M77 1124.5C77 1130.85 71.8513 1136 65.5 1136C59.1487 1136 54 1130.85 54 1124.5C54 1118.15 59.1487 1113 65.5 1113C71.8513 1113 77 1118.15 77 1124.5Z" fill="black"/>
<path d="M77 59.5C77 65.8513 71.8513 71 65.5 71C59.1487 71 54 65.8513 54 59.5C54 53.1487 59.1487 48 65.5 48C71.8513 48 77 53.1487 77 59.5Z" fill="black"/>
<mask id="path-6-inside-1_97_32" fill="white">
<path d="M708 48C713.523 48 717.934 52.4996 718.616 57.9801C723.122 94.1833 751.817 122.878 788.02 127.384C793.5 128.066 798 132.477 798 138V1046C798 1051.52 793.5 1055.93 788.02 1056.62C751.817 1061.12 723.122 1089.82 718.616 1126.02C717.934 1131.5 713.523 1136 708 1136H141C135.477 1136 131.066 1131.5 130.384 1126.02C125.878 1089.82 97.1833 1061.12 60.9801 1056.62C55.4996 1055.93 51 1051.52 51 1046V138C51 132.477 55.4996 128.066 60.9801 127.384C97.1833 122.878 125.878 94.1833 130.384 57.9801C131.066 52.4996 135.477 48 141 48H708Z"/>
</mask>
<path d="M708 48C713.523 48 717.934 52.4996 718.616 57.9801C723.122 94.1833 751.817 122.878 788.02 127.384C793.5 128.066 798 132.477 798 138V1046C798 1051.52 793.5 1055.93 788.02 1056.62C751.817 1061.12 723.122 1089.82 718.616 1126.02C717.934 1131.5 713.523 1136 708 1136H141C135.477 1136 131.066 1131.5 130.384 1126.02C125.878 1089.82 97.1833 1061.12 60.9801 1056.62C55.4996 1055.93 51 1051.52 51 1046V138C51 132.477 55.4996 128.066 60.9801 127.384C97.1833 122.878 125.878 94.1833 130.384 57.9801C131.066 52.4996 135.477 48 141 48H708Z" fill="#0089CB"/>
<path d="M130.384 1126.02L138.322 1125.03L130.384 1126.02ZM718.616 1126.02L710.678 1125.03L718.616 1126.02ZM788.02 1056.62L789.008 1064.56L788.02 1056.62ZM718.616 57.9801L726.555 56.9922L718.616 57.9801ZM718.616 57.9801L710.678 58.9681C715.635 98.8063 747.194 130.365 787.032 135.322L788.02 127.384L789.008 119.445C756.44 115.392 730.608 89.5603 726.555 56.9922L718.616 57.9801ZM798 138H790V1046H798H806V138H798ZM788.02 1056.62L787.032 1048.68C747.194 1053.64 715.635 1085.19 710.678 1125.03L718.616 1126.02L726.555 1127.01C730.608 1094.44 756.44 1068.61 789.008 1064.56L788.02 1056.62ZM708 1136V1128H141V1136V1144H708V1136ZM130.384 1126.02L138.322 1125.03C133.365 1085.19 101.806 1053.64 61.9681 1048.68L60.9801 1056.62L59.9922 1064.56C92.5603 1068.61 118.392 1094.44 122.445 1127.01L130.384 1126.02ZM51 1046H59V138H51H43V1046H51ZM60.9801 127.384L61.9681 135.322C101.806 130.365 133.365 98.8063 138.322 58.9681L130.384 57.9801L122.445 56.9922C118.392 89.5603 92.5603 115.392 59.9922 119.445L60.9801 127.384ZM141 48V56H708V48V40H141V48ZM130.384 57.9801L138.322 58.9681C138.438 58.0389 138.872 57.2306 139.427 56.6958C139.954 56.1887 140.494 56 141 56V48V40C130.84 40 123.547 48.1329 122.445 56.9922L130.384 57.9801ZM51 138H59C59 137.494 59.1887 136.954 59.6958 136.427C60.2306 135.872 61.0389 135.438 61.9681 135.322L60.9801 127.384L59.9922 119.445C51.1329 120.547 43 127.84 43 138H51ZM60.9801 1056.62L61.9681 1048.68C61.0389 1048.56 60.2306 1048.13 59.6958 1047.57C59.1887 1047.05 59 1046.51 59 1046H51H43C43 1056.16 51.1329 1063.45 59.9922 1064.56L60.9801 1056.62ZM141 1136V1128C140.494 1128 139.954 1127.81 139.427 1127.3C138.872 1126.77 138.438 1125.96 138.322 1125.03L130.384 1126.02L122.445 1127.01C123.547 1135.87 130.84 1144 141 1144V1136ZM718.616 1126.02L710.678 1125.03C710.562 1125.96 710.128 1126.77 709.573 1127.3C709.046 1127.81 708.506 1128 708 1128V1136V1144C718.16 1144 725.453 1135.87 726.555 1127.01L718.616 1126.02ZM798 1046H790C790 1046.51 789.811 1047.05 789.304 1047.57C788.769 1048.13 787.961 1048.56 787.032 1048.68L788.02 1056.62L789.008 1064.56C797.867 1063.45 806 1056.16 806 1046H798ZM788.02 127.384L787.032 135.322C787.961 135.438 788.769 135.872 789.304 136.427C789.811 136.954 790 137.494 790 138H798H806C806 127.84 797.867 120.547 789.008 119.445L788.02 127.384ZM718.616 57.9801L726.555 56.9922C725.453 48.1329 718.16 40 708 40V48V56C708.506 56 709.046 56.1887 709.573 56.6958C710.128 57.2306 710.562 58.0389 710.678 58.9681L718.616 57.9801Z" fill="black" mask="url(#path-6-inside-1_97_32)"/>
<path d="M690 102C695.523 102 699.911 106.512 700.837 111.957C705.019 136.563 724.437 155.981 749.043 160.163C754.488 161.089 759 165.477 759 171V1014C759 1019.52 754.488 1023.91 749.043 1024.84C724.711 1028.97 705.454 1048 700.984 1072.22C699.993 1077.59 695.633 1082 690.175 1082H158.825C153.367 1082 149.007 1077.59 148.016 1072.22C143.546 1048 124.288 1028.97 99.9568 1024.84C94.5121 1023.91 90 1019.52 90 1014V171C90 165.477 94.512 161.089 99.9568 160.163C124.563 155.981 143.981 136.563 148.163 111.957C149.089 106.512 153.477 102 159 102H690Z" fill="#4BADDC"/>
<path d="M286.065 356.745V374.085H306.465V381.99H286.065V400.095H309.015V408H276.375V348.84H309.015V356.745H286.065ZM337.95 408.765C334.267 408.765 330.952 408.113 328.005 406.81C325.115 405.45 322.82 403.637 321.12 401.37C319.42 399.047 318.514 396.468 318.4 393.635H328.43C328.6 395.618 329.535 397.29 331.235 398.65C332.992 399.953 335.174 400.605 337.78 400.605C340.5 400.605 342.597 400.095 344.07 399.075C345.6 397.998 346.365 396.638 346.365 394.995C346.365 393.238 345.515 391.935 343.815 391.085C342.172 390.235 339.537 389.3 335.91 388.28C332.397 387.317 329.535 386.382 327.325 385.475C325.115 384.568 323.189 383.18 321.545 381.31C319.959 379.44 319.165 376.975 319.165 373.915C319.165 371.422 319.902 369.155 321.375 367.115C322.849 365.018 324.945 363.375 327.665 362.185C330.442 360.995 333.615 360.4 337.185 360.4C342.512 360.4 346.79 361.76 350.02 364.48C353.307 367.143 355.064 370.798 355.29 375.445H345.6C345.43 373.348 344.58 371.677 343.05 370.43C341.52 369.183 339.452 368.56 336.845 368.56C334.295 368.56 332.34 369.042 330.98 370.005C329.62 370.968 328.94 372.243 328.94 373.83C328.94 375.077 329.394 376.125 330.3 376.975C331.207 377.825 332.312 378.505 333.615 379.015C334.919 379.468 336.845 380.063 339.395 380.8C342.795 381.707 345.572 382.642 347.725 383.605C349.935 384.512 351.834 385.872 353.42 387.685C355.007 389.498 355.829 391.907 355.885 394.91C355.885 397.573 355.149 399.953 353.675 402.05C352.202 404.147 350.105 405.79 347.385 406.98C344.722 408.17 341.577 408.765 337.95 408.765ZM377.66 369.07V394.995C377.66 396.752 378.057 398.027 378.85 398.82C379.7 399.557 381.117 399.925 383.1 399.925H389.05V408H381.4C377.037 408 373.694 406.98 371.37 404.94C369.047 402.9 367.885 399.585 367.885 394.995V369.07H362.36V361.165H367.885V349.52H377.66V361.165H389.05V369.07H377.66ZM407.671 367.965C409.088 365.585 410.958 363.743 413.281 362.44C415.661 361.08 418.466 360.4 421.696 360.4V370.43H419.231C415.435 370.43 412.545 371.393 410.561 373.32C408.635 375.247 407.671 378.59 407.671 383.35V408H397.981V361.165H407.671V367.965ZM473.529 383.435C473.529 385.192 473.415 386.778 473.189 388.195H437.404C437.687 391.935 439.075 394.938 441.569 397.205C444.062 399.472 447.122 400.605 450.749 400.605C455.962 400.605 459.645 398.423 461.799 394.06H472.254C470.837 398.367 468.259 401.908 464.519 404.685C460.835 407.405 456.245 408.765 450.749 408.765C446.272 408.765 442.249 407.773 438.679 405.79C435.165 403.75 432.389 400.917 430.349 397.29C428.365 393.607 427.374 389.357 427.374 384.54C427.374 379.723 428.337 375.502 430.264 371.875C432.247 368.192 434.995 365.358 438.509 363.375C442.079 361.392 446.159 360.4 450.749 360.4C455.169 360.4 459.107 361.363 462.564 363.29C466.02 365.217 468.712 367.937 470.639 371.45C472.565 374.907 473.529 378.902 473.529 383.435ZM463.414 380.375C463.357 376.805 462.082 373.943 459.589 371.79C457.095 369.637 454.007 368.56 450.324 368.56C446.98 368.56 444.119 369.637 441.739 371.79C439.359 373.887 437.942 376.748 437.489 380.375H463.414ZM492.754 345.1V408H483.064V345.1H492.754ZM515.167 345.1V408H505.477V345.1H515.167ZM524.659 384.37C524.659 379.667 525.622 375.502 527.549 371.875C529.532 368.248 532.195 365.443 535.539 363.46C538.939 361.42 542.679 360.4 546.759 360.4C550.442 360.4 553.644 361.137 556.364 362.61C559.14 364.027 561.35 365.812 562.994 367.965V361.165H572.769V408H562.994V401.03C561.35 403.24 559.112 405.082 556.279 406.555C553.445 408.028 550.215 408.765 546.589 408.765C542.565 408.765 538.882 407.745 535.539 405.705C532.195 403.608 529.532 400.718 527.549 397.035C525.622 393.295 524.659 389.073 524.659 384.37ZM562.994 384.54C562.994 381.31 562.314 378.505 560.954 376.125C559.65 373.745 557.922 371.932 555.769 370.685C553.615 369.438 551.292 368.815 548.799 368.815C546.305 368.815 543.982 369.438 541.829 370.685C539.675 371.875 537.919 373.66 536.559 376.04C535.255 378.363 534.604 381.14 534.604 384.37C534.604 387.6 535.255 390.433 536.559 392.87C537.919 395.307 539.675 397.177 541.829 398.48C544.039 399.727 546.362 400.35 548.799 400.35C551.292 400.35 553.615 399.727 555.769 398.48C557.922 397.233 559.65 395.42 560.954 393.04C562.314 390.603 562.994 387.77 562.994 384.54Z" fill="black"/>
<mask id="path-10-outside-2_97_32" maskUnits="userSpaceOnUse" x="401" y="1006" width="47" height="32" fill="black">
<rect fill="white" x="401" y="1006" width="47" height="32"/>
<path d="M402.32 1015.04C402.48 1012.56 403.427 1010.63 405.16 1009.24C406.92 1007.85 409.16 1007.16 411.88 1007.16C413.747 1007.16 415.36 1007.49 416.72 1008.16C418.08 1008.83 419.107 1009.73 419.8 1010.88C420.493 1012.03 420.84 1013.32 420.84 1014.76C420.84 1016.41 420.4 1017.83 419.52 1019C418.64 1020.17 417.587 1020.96 416.36 1021.36V1021.52C417.933 1022 419.16 1022.88 420.04 1024.16C420.92 1025.41 421.36 1027.03 421.36 1029C421.36 1030.57 421 1031.97 420.28 1033.2C419.56 1034.43 418.493 1035.4 417.08 1036.12C415.667 1036.81 413.973 1037.16 412 1037.16C409.12 1037.16 406.747 1036.43 404.88 1034.96C403.04 1033.47 402.053 1031.33 401.92 1028.56H406.32C406.427 1029.97 406.973 1031.13 407.96 1032.04C408.947 1032.92 410.28 1033.36 411.96 1033.36C413.587 1033.36 414.84 1032.92 415.72 1032.04C416.6 1031.13 417.04 1029.97 417.04 1028.56C417.04 1026.69 416.44 1025.37 415.24 1024.6C414.067 1023.8 412.253 1023.4 409.8 1023.4H408.76V1019.64H409.84C412 1019.61 413.64 1019.25 414.76 1018.56C415.907 1017.87 416.48 1016.77 416.48 1015.28C416.48 1014 416.067 1012.99 415.24 1012.24C414.413 1011.47 413.24 1011.08 411.72 1011.08C410.227 1011.08 409.067 1011.47 408.24 1012.24C407.413 1012.99 406.92 1013.92 406.76 1015.04H402.32ZM441.83 1014.6C441.537 1013.37 441.003 1012.45 440.23 1011.84C439.457 1011.23 438.377 1010.92 436.99 1010.92C434.883 1010.92 433.31 1011.73 432.27 1013.36C431.23 1014.96 430.683 1017.63 430.63 1021.36C431.323 1020.19 432.337 1019.28 433.67 1018.64C435.003 1018 436.443 1017.68 437.99 1017.68C439.75 1017.68 441.297 1018.07 442.63 1018.84C443.99 1019.59 445.043 1020.68 445.79 1022.12C446.563 1023.56 446.95 1025.28 446.95 1027.28C446.95 1029.15 446.577 1030.81 445.83 1032.28C445.11 1033.75 444.03 1034.91 442.59 1035.76C441.15 1036.59 439.417 1037 437.39 1037C434.643 1037 432.483 1036.4 430.91 1035.2C429.363 1033.97 428.27 1032.25 427.63 1030.04C427.017 1027.83 426.71 1025.07 426.71 1021.76C426.71 1012 430.15 1007.12 437.03 1007.12C439.697 1007.12 441.79 1007.84 443.31 1009.28C444.857 1010.72 445.763 1012.49 446.03 1014.6H441.83ZM436.99 1021.52C435.363 1021.52 433.977 1022.01 432.83 1023C431.71 1023.96 431.15 1025.36 431.15 1027.2C431.15 1029.04 431.67 1030.51 432.71 1031.6C433.777 1032.67 435.257 1033.2 437.15 1033.2C438.83 1033.2 440.15 1032.68 441.11 1031.64C442.097 1030.6 442.59 1029.21 442.59 1027.48C442.59 1025.67 442.11 1024.23 441.15 1023.16C440.217 1022.07 438.83 1021.52 436.99 1021.52Z"/>
</mask>
<path d="M402.32 1015.04C402.48 1012.56 403.427 1010.63 405.16 1009.24C406.92 1007.85 409.16 1007.16 411.88 1007.16C413.747 1007.16 415.36 1007.49 416.72 1008.16C418.08 1008.83 419.107 1009.73 419.8 1010.88C420.493 1012.03 420.84 1013.32 420.84 1014.76C420.84 1016.41 420.4 1017.83 419.52 1019C418.64 1020.17 417.587 1020.96 416.36 1021.36V1021.52C417.933 1022 419.16 1022.88 420.04 1024.16C420.92 1025.41 421.36 1027.03 421.36 1029C421.36 1030.57 421 1031.97 420.28 1033.2C419.56 1034.43 418.493 1035.4 417.08 1036.12C415.667 1036.81 413.973 1037.16 412 1037.16C409.12 1037.16 406.747 1036.43 404.88 1034.96C403.04 1033.47 402.053 1031.33 401.92 1028.56H406.32C406.427 1029.97 406.973 1031.13 407.96 1032.04C408.947 1032.92 410.28 1033.36 411.96 1033.36C413.587 1033.36 414.84 1032.92 415.72 1032.04C416.6 1031.13 417.04 1029.97 417.04 1028.56C417.04 1026.69 416.44 1025.37 415.24 1024.6C414.067 1023.8 412.253 1023.4 409.8 1023.4H408.76V1019.64H409.84C412 1019.61 413.64 1019.25 414.76 1018.56C415.907 1017.87 416.48 1016.77 416.48 1015.28C416.48 1014 416.067 1012.99 415.24 1012.24C414.413 1011.47 413.24 1011.08 411.72 1011.08C410.227 1011.08 409.067 1011.47 408.24 1012.24C407.413 1012.99 406.92 1013.92 406.76 1015.04H402.32ZM441.83 1014.6C441.537 1013.37 441.003 1012.45 440.23 1011.84C439.457 1011.23 438.377 1010.92 436.99 1010.92C434.883 1010.92 433.31 1011.73 432.27 1013.36C431.23 1014.96 430.683 1017.63 430.63 1021.36C431.323 1020.19 432.337 1019.28 433.67 1018.64C435.003 1018 436.443 1017.68 437.99 1017.68C439.75 1017.68 441.297 1018.07 442.63 1018.84C443.99 1019.59 445.043 1020.68 445.79 1022.12C446.563 1023.56 446.95 1025.28 446.95 1027.28C446.95 1029.15 446.577 1030.81 445.83 1032.28C445.11 1033.75 444.03 1034.91 442.59 1035.76C441.15 1036.59 439.417 1037 437.39 1037C434.643 1037 432.483 1036.4 430.91 1035.2C429.363 1033.97 428.27 1032.25 427.63 1030.04C427.017 1027.83 426.71 1025.07 426.71 1021.76C426.71 1012 430.15 1007.12 437.03 1007.12C439.697 1007.12 441.79 1007.84 443.31 1009.28C444.857 1010.72 445.763 1012.49 446.03 1014.6H441.83ZM436.99 1021.52C435.363 1021.52 433.977 1022.01 432.83 1023C431.71 1023.96 431.15 1025.36 431.15 1027.2C431.15 1029.04 431.67 1030.51 432.71 1031.6C433.777 1032.67 435.257 1033.2 437.15 1033.2C438.83 1033.2 440.15 1032.68 441.11 1031.64C442.097 1030.6 442.59 1029.21 442.59 1027.48C442.59 1025.67 442.11 1024.23 441.15 1023.16C440.217 1022.07 438.83 1021.52 436.99 1021.52Z" fill="black"/>
<path d="M402.32 1015.04L402.021 1015.02L402 1015.34H402.32V1015.04ZM405.16 1009.24L404.974 1009L404.973 1009.01L405.16 1009.24ZM416.72 1008.16L416.588 1008.43L416.72 1008.16ZM419.8 1010.88L420.057 1010.72L419.8 1010.88ZM419.52 1019L419.76 1019.18V1019.18L419.52 1019ZM416.36 1021.36L416.267 1021.07L416.06 1021.14V1021.36H416.36ZM416.36 1021.52H416.06V1021.74L416.272 1021.81L416.36 1021.52ZM420.04 1024.16L419.793 1024.33L419.794 1024.33L420.04 1024.16ZM420.28 1033.2L420.021 1033.05L420.28 1033.2ZM417.08 1036.12L417.212 1036.39L417.216 1036.39L417.08 1036.12ZM404.88 1034.96L404.691 1035.19L404.695 1035.2L404.88 1034.96ZM401.92 1028.56V1028.26H401.605L401.62 1028.57L401.92 1028.56ZM406.32 1028.56L406.619 1028.54L406.598 1028.26H406.32V1028.56ZM407.96 1032.04L407.757 1032.26L407.76 1032.26L407.96 1032.04ZM415.72 1032.04L415.932 1032.25L415.935 1032.25L415.72 1032.04ZM415.24 1024.6L415.071 1024.85L415.077 1024.85L415.24 1024.6ZM408.76 1023.4H408.46V1023.7H408.76V1023.4ZM408.76 1019.64V1019.34H408.46V1019.64H408.76ZM409.84 1019.64V1019.94L409.844 1019.94L409.84 1019.64ZM414.76 1018.56L414.605 1018.3L414.602 1018.3L414.76 1018.56ZM415.24 1012.24L415.035 1012.46L415.039 1012.46L415.24 1012.24ZM408.24 1012.24L408.441 1012.46L408.445 1012.46L408.24 1012.24ZM406.76 1015.04V1015.34H407.02L407.057 1015.08L406.76 1015.04ZM402.32 1015.04L402.619 1015.06C402.775 1012.65 403.688 1010.8 405.347 1009.47L405.16 1009.24L404.973 1009.01C403.165 1010.45 402.185 1012.47 402.021 1015.02L402.32 1015.04ZM405.16 1009.24L405.346 1009.48C407.042 1008.14 409.213 1007.46 411.88 1007.46V1007.16V1006.86C409.108 1006.86 406.798 1007.57 404.974 1009L405.16 1009.24ZM411.88 1007.16V1007.46C413.711 1007.46 415.277 1007.79 416.588 1008.43L416.72 1008.16L416.852 1007.89C415.443 1007.2 413.782 1006.86 411.88 1006.86V1007.16ZM416.72 1008.16L416.588 1008.43C417.903 1009.07 418.883 1009.94 419.543 1011.04L419.8 1010.88L420.057 1010.72C419.33 1009.52 418.257 1008.58 416.852 1007.89L416.72 1008.16ZM419.8 1010.88L419.543 1011.04C420.206 1012.13 420.54 1013.37 420.54 1014.76H420.84H421.14C421.14 1013.27 420.78 1011.92 420.057 1010.72L419.8 1010.88ZM420.84 1014.76H420.54C420.54 1016.36 420.116 1017.71 419.28 1018.82L419.52 1019L419.76 1019.18C420.684 1017.95 421.14 1016.47 421.14 1014.76H420.84ZM419.52 1019L419.28 1018.82C418.432 1019.95 417.427 1020.7 416.267 1021.07L416.36 1021.36L416.453 1021.65C417.746 1021.22 418.848 1020.4 419.76 1019.18L419.52 1019ZM416.36 1021.36H416.06V1021.52H416.36H416.66V1021.36H416.36ZM416.36 1021.52L416.272 1021.81C417.785 1022.27 418.954 1023.11 419.793 1024.33L420.04 1024.16L420.287 1023.99C419.366 1022.65 418.082 1021.73 416.448 1021.23L416.36 1021.52ZM420.04 1024.16L419.794 1024.33C420.63 1025.52 421.06 1027.07 421.06 1029H421.36H421.66C421.66 1026.98 421.21 1025.3 420.286 1023.99L420.04 1024.16ZM421.36 1029H421.06C421.06 1030.53 420.711 1031.87 420.021 1033.05L420.28 1033.2L420.539 1033.35C421.289 1032.07 421.66 1030.62 421.66 1029H421.36ZM420.28 1033.2L420.021 1033.05C419.334 1034.22 418.312 1035.16 416.944 1035.85L417.08 1036.12L417.216 1036.39C418.674 1035.64 419.786 1034.63 420.539 1033.35L420.28 1033.2ZM417.08 1036.12L416.948 1035.85C415.585 1036.52 413.939 1036.86 412 1036.86V1037.16V1037.46C414.008 1037.46 415.749 1037.11 417.212 1036.39L417.08 1036.12ZM412 1037.16V1036.86C409.172 1036.86 406.869 1036.14 405.065 1034.72L404.88 1034.96L404.695 1035.2C406.625 1036.71 409.068 1037.46 412 1037.46V1037.16ZM404.88 1034.96L405.069 1034.73C403.307 1033.3 402.35 1031.25 402.22 1028.55L401.92 1028.56L401.62 1028.57C401.757 1031.42 402.773 1033.64 404.691 1035.19L404.88 1034.96ZM401.92 1028.56V1028.86H406.32V1028.56V1028.26H401.92V1028.56ZM406.32 1028.56L406.021 1028.58C406.133 1030.07 406.711 1031.3 407.757 1032.26L407.96 1032.04L408.163 1031.82C407.236 1030.97 406.72 1029.88 406.619 1028.54L406.32 1028.56ZM407.96 1032.04L407.76 1032.26C408.816 1033.21 410.227 1033.66 411.96 1033.66V1033.36V1033.06C410.333 1033.06 409.078 1032.63 408.16 1031.82L407.96 1032.04ZM411.96 1033.36V1033.66C413.641 1033.66 414.98 1033.2 415.932 1032.25L415.72 1032.04L415.508 1031.83C414.7 1032.64 413.533 1033.06 411.96 1033.06V1033.36ZM415.72 1032.04L415.935 1032.25C416.876 1031.28 417.34 1030.04 417.34 1028.56H417.04H416.74C416.74 1029.91 416.324 1030.99 415.505 1031.83L415.72 1032.04ZM417.04 1028.56H417.34C417.34 1026.63 416.714 1025.19 415.403 1024.35L415.24 1024.6L415.077 1024.85C416.166 1025.55 416.74 1026.76 416.74 1028.56H417.04ZM415.24 1024.6L415.409 1024.35C414.161 1023.5 412.275 1023.1 409.8 1023.1V1023.4V1023.7C412.232 1023.7 413.972 1024.1 415.071 1024.85L415.24 1024.6ZM409.8 1023.4V1023.1H408.76V1023.4V1023.7H409.8V1023.4ZM408.76 1023.4H409.06V1019.64H408.76H408.46V1023.4H408.76ZM408.76 1019.64V1019.94H409.84V1019.64V1019.34H408.76V1019.64ZM409.84 1019.64L409.844 1019.94C412.027 1019.91 413.731 1019.55 414.918 1018.82L414.76 1018.56L414.602 1018.3C413.549 1018.96 411.973 1019.31 409.836 1019.34L409.84 1019.64ZM414.76 1018.56L414.915 1018.82C416.163 1018.06 416.78 1016.86 416.78 1015.28H416.48H416.18C416.18 1016.68 415.65 1017.67 414.605 1018.3L414.76 1018.56ZM416.48 1015.28H416.78C416.78 1013.93 416.34 1012.83 415.441 1012.02L415.24 1012.24L415.039 1012.46C415.793 1013.14 416.18 1014.07 416.18 1015.28H416.48ZM415.24 1012.24L415.445 1012.02C414.546 1011.18 413.289 1010.78 411.72 1010.78V1011.08V1011.38C413.191 1011.38 414.281 1011.75 415.035 1012.46L415.24 1012.24ZM411.72 1011.08V1010.78C410.176 1010.78 408.933 1011.18 408.035 1012.02L408.24 1012.24L408.445 1012.46C409.2 1011.75 410.278 1011.38 411.72 1011.38V1011.08ZM408.24 1012.24L408.039 1012.02C407.159 1012.81 406.633 1013.81 406.463 1015L406.76 1015.04L407.057 1015.08C407.207 1014.03 407.667 1013.16 408.441 1012.46L408.24 1012.24ZM406.76 1015.04V1014.74H402.32V1015.04V1015.34H406.76V1015.04ZM441.83 1014.6L441.538 1014.67L441.593 1014.9H441.83V1014.6ZM440.23 1011.84L440.416 1011.6L440.23 1011.84ZM432.27 1013.36L432.522 1013.52L432.523 1013.52L432.27 1013.36ZM430.63 1021.36L430.33 1021.36L430.314 1022.48L430.888 1021.51L430.63 1021.36ZM442.63 1018.84L442.479 1019.1L442.486 1019.1L442.63 1018.84ZM445.79 1022.12L445.524 1022.26L445.526 1022.26L445.79 1022.12ZM445.83 1032.28L445.563 1032.14L445.561 1032.15L445.83 1032.28ZM442.59 1035.76L442.739 1036.02L442.743 1036.02L442.59 1035.76ZM430.91 1035.2L430.724 1035.44L430.728 1035.44L430.91 1035.2ZM427.63 1030.04L427.341 1030.12L427.342 1030.12L427.63 1030.04ZM443.31 1009.28L443.104 1009.5L443.106 1009.5L443.31 1009.28ZM446.03 1014.6V1014.9H446.37L446.328 1014.56L446.03 1014.6ZM432.83 1023L433.025 1023.23L433.026 1023.23L432.83 1023ZM432.71 1031.6L432.493 1031.81L432.498 1031.81L432.71 1031.6ZM441.11 1031.64L440.892 1031.43L440.89 1031.44L441.11 1031.64ZM441.15 1023.16L440.922 1023.35L440.927 1023.36L441.15 1023.16ZM441.83 1014.6L442.122 1014.53C441.817 1013.26 441.256 1012.27 440.416 1011.6L440.23 1011.84L440.044 1012.08C440.751 1012.64 441.256 1013.49 441.538 1014.67L441.83 1014.6ZM440.23 1011.84L440.416 1011.6C439.572 1010.94 438.417 1010.62 436.99 1010.62V1010.92V1011.22C438.336 1011.22 439.341 1011.52 440.044 1012.08L440.23 1011.84ZM436.99 1010.92V1010.62C434.792 1010.62 433.118 1011.48 432.017 1013.2L432.27 1013.36L432.523 1013.52C433.502 1011.99 434.975 1011.22 436.99 1011.22V1010.92ZM432.27 1013.36L432.018 1013.2C430.93 1014.87 430.384 1017.61 430.33 1021.36L430.63 1021.36L430.93 1021.36C430.983 1017.64 431.53 1015.05 432.522 1013.52L432.27 1013.36ZM430.63 1021.36L430.888 1021.51C431.549 1020.39 432.515 1019.53 433.8 1018.91L433.67 1018.64L433.54 1018.37C432.158 1019.03 431.098 1019.98 430.372 1021.21L430.63 1021.36ZM433.67 1018.64L433.8 1018.91C435.091 1018.29 436.486 1017.98 437.99 1017.98V1017.68V1017.38C436.401 1017.38 434.916 1017.71 433.54 1018.37L433.67 1018.64ZM437.99 1017.68V1017.98C439.705 1017.98 441.198 1018.36 442.479 1019.1L442.63 1018.84L442.781 1018.58C441.395 1017.78 439.795 1017.38 437.99 1017.38V1017.68ZM442.63 1018.84L442.486 1019.1C443.791 1019.82 444.803 1020.87 445.524 1022.26L445.79 1022.12L446.056 1021.98C445.284 1020.49 444.189 1019.35 442.774 1018.58L442.63 1018.84ZM445.79 1022.12L445.526 1022.26C446.271 1023.65 446.65 1025.32 446.65 1027.28H446.95H447.25C447.25 1025.24 446.856 1023.47 446.054 1021.98L445.79 1022.12ZM446.95 1027.28H446.65C446.65 1029.11 446.285 1030.72 445.563 1032.14L445.83 1032.28L446.097 1032.42C446.868 1030.9 447.25 1029.19 447.25 1027.28H446.95ZM445.83 1032.28L445.561 1032.15C444.867 1033.56 443.828 1034.68 442.437 1035.5L442.59 1035.76L442.743 1036.02C444.232 1035.14 445.353 1033.93 446.099 1032.41L445.83 1032.28ZM442.59 1035.76L442.441 1035.5C441.055 1036.3 439.376 1036.7 437.39 1036.7V1037V1037.3C439.458 1037.3 441.245 1036.88 442.739 1036.02L442.59 1035.76ZM437.39 1037V1036.7C434.684 1036.7 432.596 1036.11 431.092 1034.96L430.91 1035.2L430.728 1035.44C432.371 1036.69 434.603 1037.3 437.39 1037.3V1037ZM430.91 1035.2L431.096 1034.96C429.606 1033.78 428.544 1032.12 427.918 1029.96L427.63 1030.04L427.342 1030.12C427.996 1032.39 429.12 1034.16 430.724 1035.44L430.91 1035.2ZM427.63 1030.04L427.919 1029.96C427.315 1027.78 427.01 1025.05 427.01 1021.76H426.71H426.41C426.41 1025.08 426.718 1027.87 427.341 1030.12L427.63 1030.04ZM426.71 1021.76H427.01C427.01 1016.91 427.867 1013.32 429.535 1010.95C431.19 1008.61 433.67 1007.42 437.03 1007.42V1007.12V1006.82C433.51 1006.82 430.83 1008.07 429.045 1010.61C427.273 1013.12 426.41 1016.85 426.41 1021.76H426.71ZM437.03 1007.12V1007.42C439.642 1007.42 441.653 1008.12 443.104 1009.5L443.31 1009.28L443.516 1009.06C441.927 1007.56 439.752 1006.82 437.03 1006.82V1007.12ZM443.31 1009.28L443.106 1009.5C444.601 1010.89 445.474 1012.6 445.732 1014.64L446.03 1014.6L446.328 1014.56C446.052 1012.39 445.113 1010.55 443.514 1009.06L443.31 1009.28ZM446.03 1014.6V1014.3H441.83V1014.6V1014.9H446.03V1014.6ZM436.99 1021.52V1021.22C435.297 1021.22 433.84 1021.74 432.634 1022.77L432.83 1023L433.026 1023.23C434.114 1022.29 435.429 1021.82 436.99 1021.82V1021.52ZM432.83 1023L432.635 1022.77C431.432 1023.8 430.85 1025.3 430.85 1027.2H431.15H431.45C431.45 1025.42 431.988 1024.12 433.025 1023.23L432.83 1023ZM431.15 1027.2H430.85C430.85 1029.1 431.388 1030.65 432.493 1031.81L432.71 1031.6L432.927 1031.39C431.952 1030.37 431.45 1028.98 431.45 1027.2H431.15ZM432.71 1031.6L432.498 1031.81C433.634 1032.95 435.199 1033.5 437.15 1033.5V1033.2V1032.9C435.315 1032.9 433.919 1032.38 432.922 1031.39L432.71 1031.6ZM437.15 1033.2V1033.5C438.897 1033.5 440.303 1032.96 441.33 1031.84L441.11 1031.64L440.89 1031.44C439.997 1032.4 438.763 1032.9 437.15 1032.9V1033.2ZM441.11 1031.64L441.328 1031.85C442.378 1030.74 442.89 1029.27 442.89 1027.48H442.59H442.29C442.29 1029.15 441.815 1030.46 440.892 1031.43L441.11 1031.64ZM442.59 1027.48H442.89C442.89 1025.61 442.395 1024.09 441.373 1022.96L441.15 1023.16L440.927 1023.36C441.825 1024.36 442.29 1025.72 442.29 1027.48H442.59ZM441.15 1023.16L441.378 1022.97C440.373 1021.79 438.891 1021.22 436.99 1021.22V1021.52V1021.82C438.769 1021.82 440.061 1022.35 440.922 1023.35L441.15 1023.16Z" fill="black" mask="url(#path-10-outside-2_97_32)"/>
<path d="M344.81 272.735C336.2 272.735 329.13 270.705 323.6 266.645C318.07 262.515 315.095 256.635 314.675 249.005H336.62C336.83 251.595 337.6 253.485 338.93 254.675C340.26 255.865 341.975 256.46 344.075 256.46C345.965 256.46 347.505 256.005 348.695 255.095C349.955 254.115 350.585 252.785 350.585 251.105C350.585 248.935 349.57 247.255 347.54 246.065C345.51 244.875 342.22 243.545 337.67 242.075C332.84 240.465 328.92 238.925 325.91 237.455C322.97 235.915 320.38 233.71 318.14 230.84C315.97 227.9 314.885 224.085 314.885 219.395C314.885 214.635 316.075 210.575 318.455 207.215C320.835 203.785 324.125 201.195 328.325 199.445C332.525 197.695 337.285 196.82 342.605 196.82C351.215 196.82 358.075 198.85 363.185 202.91C368.365 206.9 371.13 212.535 371.48 219.815H349.115C349.045 217.575 348.345 215.895 347.015 214.775C345.755 213.655 344.11 213.095 342.08 213.095C340.54 213.095 339.28 213.55 338.3 214.46C337.32 215.37 336.83 216.665 336.83 218.345C336.83 219.745 337.355 220.97 338.405 222.02C339.525 223 340.89 223.875 342.5 224.645C344.11 225.345 346.49 226.255 349.64 227.375C354.33 228.985 358.18 230.595 361.19 232.205C364.27 233.745 366.895 235.95 369.065 238.82C371.305 241.62 372.425 245.19 372.425 249.53C372.425 253.94 371.305 257.895 369.065 261.395C366.895 264.895 363.71 267.66 359.51 269.69C355.38 271.72 350.48 272.735 344.81 272.735ZM416.747 254.465V272H407.822C392.772 272 385.247 264.545 385.247 249.635V230.21H378.002V213.095H385.247V198.815H405.932V213.095H416.642V230.21H405.932V249.95C405.932 251.56 406.282 252.715 406.982 253.415C407.752 254.115 409.012 254.465 410.762 254.465H416.747ZM422.827 242.495C422.827 236.405 423.912 231.085 426.082 226.535C428.322 221.985 431.332 218.485 435.112 216.035C438.962 213.585 443.232 212.36 447.922 212.36C451.982 212.36 455.482 213.165 458.422 214.775C461.362 216.385 463.637 218.555 465.247 221.285V213.095H485.827V272H465.247V263.81C463.637 266.54 461.327 268.71 458.317 270.32C455.377 271.93 451.912 272.735 447.922 272.735C443.232 272.735 438.962 271.51 435.112 269.06C431.332 266.61 428.322 263.11 426.082 258.56C423.912 253.94 422.827 248.585 422.827 242.495ZM465.247 242.495C465.247 238.715 464.197 235.74 462.097 233.57C460.067 231.4 457.547 230.315 454.537 230.315C451.457 230.315 448.902 231.4 446.872 233.57C444.842 235.67 443.827 238.645 443.827 242.495C443.827 246.275 444.842 249.285 446.872 251.525C448.902 253.695 451.457 254.78 454.537 254.78C457.547 254.78 460.067 253.695 462.097 251.525C464.197 249.355 465.247 246.345 465.247 242.495ZM518.134 223.49C520.444 220.13 523.244 217.47 526.534 215.51C529.824 213.55 533.359 212.57 537.139 212.57V234.515H531.364C526.884 234.515 523.559 235.39 521.389 237.14C519.219 238.89 518.134 241.935 518.134 246.275V272H497.554V213.095H518.134V223.49Z" fill="black"/>
<path d="M486.984 434.06C489.1 433.965 491.163 433.9 493.211 434.536C495.72 435.312 497.322 437.052 498.719 439.196C503.473 446.484 506.725 455.712 510.335 463.67C517.156 478.858 524.211 493.938 531.496 508.91L578.973 513.203C588.103 514.014 597.886 514.173 606.841 515.972C609.471 516.5 612.032 517.033 613.981 519.009C615.749 520.813 616.704 523.259 616.63 525.783C616.559 527.804 615.86 529.339 614.571 530.866C608.866 537.624 601.025 543.411 594.451 549.415C580.941 561.744 567.52 574.169 554.189 586.69C558.035 602.279 561.048 618.158 564.387 633.866C566.259 642.67 569.125 652.152 569.859 661.083C570.088 663.864 570.068 666.924 568.833 669.494C567.912 671.412 566.345 672.841 564.262 673.387C561.404 674.136 558.203 673.318 555.552 672.207C548.172 669.111 541.055 664.102 534.137 660.031C519.748 651.638 505.436 643.116 491.201 634.464C490.208 633.854 489.483 633.417 488.284 633.746C484.209 634.867 479.126 638.868 475.427 641.134L444.477 660.171C438.297 663.965 431.96 668.416 425.277 671.26C422.046 672.635 418.446 673.702 414.896 673.352C412.615 673.128 410.194 672.252 408.947 670.19C407.9 668.459 407.71 666.064 407.85 664.093C408.532 654.408 411.484 644.324 413.577 634.848L424.241 586.066L386.142 550.709C379.551 544.566 372.202 538.522 366.294 531.727C365.032 530.276 363.86 528.774 363.643 526.801C363.334 524.01 364.741 520.901 366.605 518.887C368.205 517.159 370.349 516.45 372.591 515.952C381.094 514.062 390.547 514.274 399.273 513.425C415.831 511.813 432.419 509.572 449.023 508.548C456.069 493.525 463.022 478.459 469.882 463.35C473.59 455.203 476.97 445.48 482.086 438.117C483.367 436.274 485.085 435.188 486.984 434.06Z" fill="black"/>
<path d="M489.494 455.76C495.78 460.419 514.898 509.763 522.129 521.278C546.132 525.499 570.669 525.602 594.787 528.944C588.839 537.827 579.469 544.613 571.643 551.816C560.719 561.843 549.894 571.977 539.169 582.217C543.177 606.673 549.894 630.976 554.935 655.265C546.906 652.039 539.372 647.141 531.951 642.742C517.969 634.451 504.201 625.732 490.02 617.788C488.541 617.862 487.37 618.037 486.014 618.666C479.007 621.915 472.212 626.806 465.626 630.864C451.851 639.456 437.995 647.917 424.06 656.248C425.015 644.421 427.917 633.066 430.539 621.532C433.642 608.219 436.528 594.857 439.195 581.451C430.118 570.54 409.906 553.951 398.605 543.764C393.802 539.435 388.325 535.172 384.543 529.9C397.162 525.781 423.76 524.875 437.901 523.622C443.16 523.155 448.927 523.053 454.046 521.735C456.284 521.158 457.769 520.357 459.155 518.463C463.471 512.565 465.931 504.781 468.949 498.146C475.375 484.014 481.838 469.258 489.494 455.76Z" fill="#F5C355"/>
<path d="M209.811 577.189C211.133 577.388 212.522 577.642 213.743 578.21C220.254 581.237 231.871 615.409 235.464 623.634C243.817 624.078 275.619 625.199 280.551 630.907C281.785 632.335 282.243 633.539 282.086 635.425C281.477 642.789 254.769 663.433 248.28 669.202C250.494 678.52 258.954 706.134 256.555 713.877C256.028 715.578 254.996 717.012 253.272 717.659C251.197 718.441 248.638 717.847 246.617 717.137C238.503 714.287 219.122 701.614 210.584 696.641C202.402 700.625 173.628 720.786 166.556 719.004C165.068 718.628 164.278 717.918 163.527 716.635C159.451 709.665 169.765 677.266 171.919 668.643C164.422 661.692 140.594 645.006 138.304 636.35C137.804 634.459 137.82 632.362 139.125 630.771C143.262 625.726 177.392 624.76 185.725 623.664L195.991 598.238C199.215 590.265 201.329 580.788 209.811 577.189Z" fill="black"/>
<path d="M210.229 597.538C214.201 600.862 222.489 628.181 226.169 635.209C238.244 637.478 251.587 638.303 263.863 638.633C253.83 647.504 243.598 656.228 233.917 665.48C237.019 677.239 239.98 689.035 242.804 700.863C234.045 696.349 217.716 684.263 209.536 682.32C198.424 688.403 187.923 695.578 176.746 701.56C179.935 689.013 183.341 676.476 185.976 663.8C176.653 654.748 166.15 646.792 155.924 638.794C168.696 638.236 181.576 637.547 194.249 635.831C200.884 624.276 205.251 609.953 210.229 597.538Z" fill="#F5C355"/>
<path d="M641.597 780.539C643.927 780.37 645.682 780.23 647.839 781.256C655.592 784.947 664.167 812.829 667.592 821.637C675.562 821.807 705.087 822.552 710.042 827.221C711.357 828.459 712.095 829.787 711.994 831.643C711.602 838.784 686.47 858.424 680.635 863.669C682.516 871.755 691.471 901.19 688.188 907.35C687.399 908.83 686.276 909.809 684.616 910.202C677.554 911.874 652.899 895.54 645.884 891.529C640.29 889.206 615.428 912.371 604.719 910.403C603.126 910.11 601.67 909.596 600.863 908.08C598.169 903.02 607.257 871.356 609.149 864.279C602.454 858.163 577.289 840.041 576.112 832.424C575.836 830.638 576.168 829.476 577.313 828.075C581.809 822.578 613.814 822.129 621.991 821.629C625.896 812.453 632.918 790.445 638.147 783.513C639.053 782.313 640.376 781.396 641.597 780.539Z" fill="black"/>
<path d="M644.54 799.609C647.207 802.565 655.452 827.465 658.61 833.567C670.1 834.632 681.661 834.793 693.159 835.888C684.205 843.613 674.918 851.186 666.593 859.585C669.299 870.668 671.791 881.801 674.065 892.979C664.251 887.914 654.626 879.982 644.287 876.298C634.338 881.369 624.783 887.627 615.223 893.388C617.814 881.927 620.504 870.489 623.292 859.073C615.452 850.705 604.695 843.47 595.679 836.265C607.543 834.783 619.594 835.066 631.479 833.594C636.579 822.74 640.185 810.824 644.54 799.609Z" fill="#F5C355"/>
<path d="M372.194 861.041C373.986 861.053 376.811 860.749 378.419 861.586C383.708 864.341 392.531 890.024 395.128 896.215C404.116 897.233 427.594 896.964 433.84 902.146C435.026 903.129 435.854 904.34 435.803 905.947C435.589 912.851 413.533 930.353 408.057 935.322C409.971 943.69 416.492 964.159 414.075 971.701C413.57 973.277 412.511 974.779 410.899 975.364C404.805 977.574 382.967 963.201 376.579 959.557C371.689 957.691 350.317 977.266 340.503 975.935C339.002 975.731 337.457 975.197 336.662 973.823C333.76 968.81 341.696 941.935 343.331 934.694C337.444 929.62 315.887 913.293 315.2 906.361C315.095 905.293 315.361 904.38 316.03 903.569C321.437 897 345.817 897.618 354.478 896.909C358.136 887.887 364.729 866.308 372.194 861.041Z" fill="black"/>
<path d="M374.726 880.154C377.918 883.727 383.758 902.204 386.528 907.957C396.682 909.278 407.056 909.291 417.253 910.503C410.205 917.839 402.123 924.438 394.604 931.313C396.095 940.677 398.656 950.07 400.735 959.334C392.168 954.799 383.871 949.649 375.44 944.853C366.792 948.525 358.507 954.582 350.544 959.55L356.698 930.479C349.961 923.126 341.444 916.863 333.84 910.389C343.538 909.791 353.304 909.39 362.961 908.325C367.324 899.206 371.178 889.624 374.726 880.154Z" fill="#F5C355"/>
<path d="M204.551 779.132C205.784 779.102 207.023 779.168 208.255 779.204C213.539 781.984 212.143 789.675 216.087 793.877C220.785 798.887 229.858 798.802 233.486 804.303C233.383 810.094 223.219 811.361 219.259 814.394C213.374 818.904 213.268 826.732 208.695 832.167C207.718 832.123 206.451 832.144 205.528 831.831C200.576 830.159 200.609 820.078 197.105 816.338C192.602 811.531 182.562 811.483 179.57 806.073C180.502 799.681 192.179 799.026 196.404 794.569C200.502 790.245 200.78 783.734 204.551 779.132Z" fill="black"/>
<path d="M206.689 801.065C208.116 802.086 209.081 802.871 210.153 804.295C209.827 806.689 208.626 807.522 207.069 809.325L206.561 809.417C204.713 808.453 204.652 808.481 203.839 806.576C204.219 803.669 204.848 803.244 206.689 801.065Z" fill="#F5C355"/>
<path d="M473.258 761.054C479.12 763.305 478.112 772.317 482.141 776.332C485.506 779.684 491.407 778.891 494.794 782.566L494.617 783.892C492.363 786.295 489.233 786.864 486.215 787.941C478.594 790.66 478.835 798.048 475.756 804.548C471.094 802.081 469.729 794.408 467.478 789.746C464.194 788.416 455.594 786.217 453.767 783.562L454.248 782.27C457.077 780.024 460.521 779.138 463.768 777.663C464.518 777.323 466.528 776.558 467.112 775.952C469.998 772.956 471.697 765.057 473.258 761.054Z" fill="black"/>
<path d="M667.07 661.748C673.322 659.652 680.087 663.039 682.155 669.3C684.224 675.56 680.808 682.31 674.538 684.351C668.307 686.379 661.608 682.99 659.553 676.767C657.497 670.545 660.858 663.832 667.07 661.748Z" fill="black"/>
<path d="M207.453 481.55C213.746 480.179 219.977 484.1 221.461 490.367C222.947 496.633 219.138 502.934 212.898 504.531C208.761 505.589 204.375 504.333 201.427 501.244C198.478 498.156 197.427 493.717 198.675 489.633C199.925 485.551 203.281 482.46 207.453 481.55Z" fill="black"/>
<path d="M527.312 925.453C533.384 923.584 539.838 926.902 541.853 932.927C543.867 938.953 540.706 945.484 534.73 947.642C530.736 949.087 526.272 948.251 523.069 945.461C519.866 942.671 518.426 938.365 519.307 934.21C520.189 930.054 523.252 926.703 527.312 925.453Z" fill="black"/>
<path d="M657.676 481.26C661.487 483.213 662.753 489.089 664.197 492.878C667.042 493.978 671.62 495.122 673.233 497.801L672.866 499.12C670.513 501.186 667.307 501.953 664.388 502.964C662.866 506.587 661.276 510.135 659.532 513.656C658.976 513.644 658.318 513.394 657.777 513.253C655.542 510.282 654.573 506.532 653.36 503.05C650.23 502.002 646.514 501.305 644.293 498.726L644.461 497.227C646.736 494.898 650.264 494.056 653.27 492.956L657.676 481.26Z" fill="black"/>
<path d="M248.043 920.936C251.318 923.448 252.579 929.088 253.942 932.84C256.203 933.701 260.097 934.42 261.85 936.11C262.711 936.94 262.476 937.056 262.517 938.166C260.33 940.626 256.529 941.765 253.595 943.195C252.1 946.999 250.65 950.578 248.478 954.06C246.004 950.52 244.743 946.618 243.309 942.582C240.089 941.512 236.358 940.773 233.929 938.297L234.036 936.892C236.433 934.625 239.907 933.751 242.959 932.626C244.748 928.751 246.046 924.731 248.043 920.936Z" fill="black"/>
<path d="M337.789 700.426C343.075 698.43 348.978 701.113 350.948 706.409C352.92 711.705 350.207 717.594 344.902 719.541C339.633 721.473 333.792 718.784 331.834 713.524C329.876 708.263 332.538 702.41 337.789 700.426Z" fill="black"/>
</svg>
