<svg width="849" height="1183" viewBox="0 0 849 1183" fill="none" xmlns="http://www.w3.org/2000/svg">
<rect x="5" y="5" width="839" height="1173" rx="45" fill="white"/>
<rect x="5" y="5" width="839" height="1173" rx="45" stroke="black" stroke-width="10"/>
<circle cx="786.5" cy="1124.5" r="11.5" fill="black"/>
<circle cx="786.5" cy="59.5" r="11.5" fill="black"/>
<path d="M77 1124.5C77 1130.85 71.8513 1136 65.5 1136C59.1487 1136 54 1130.85 54 1124.5C54 1118.15 59.1487 1113 65.5 1113C71.8513 1113 77 1118.15 77 1124.5Z" fill="black"/>
<path d="M77 59.5C77 65.8513 71.8513 71 65.5 71C59.1487 71 54 65.8513 54 59.5C54 53.1487 59.1487 48 65.5 48C71.8513 48 77 53.1487 77 59.5Z" fill="black"/>
<mask id="path-6-inside-1_97_16" fill="white">
<path d="M708 48C713.523 48 717.934 52.4996 718.616 57.9801C723.122 94.1833 751.817 122.878 788.02 127.384C793.5 128.066 798 132.477 798 138V1046C798 1051.52 793.5 1055.93 788.02 1056.62C751.817 1061.12 723.122 1089.82 718.616 1126.02C717.934 1131.5 713.523 1136 708 1136H141C135.477 1136 131.066 1131.5 130.384 1126.02C125.878 1089.82 97.1833 1061.12 60.9801 1056.62C55.4996 1055.93 51 1051.52 51 1046V138C51 132.477 55.4996 128.066 60.9801 127.384C97.1833 122.878 125.878 94.1833 130.384 57.9801C131.066 52.4996 135.477 48 141 48H708Z"/>
</mask>
<path d="M708 48C713.523 48 717.934 52.4996 718.616 57.9801C723.122 94.1833 751.817 122.878 788.02 127.384C793.5 128.066 798 132.477 798 138V1046C798 1051.52 793.5 1055.93 788.02 1056.62C751.817 1061.12 723.122 1089.82 718.616 1126.02C717.934 1131.5 713.523 1136 708 1136H141C135.477 1136 131.066 1131.5 130.384 1126.02C125.878 1089.82 97.1833 1061.12 60.9801 1056.62C55.4996 1055.93 51 1051.52 51 1046V138C51 132.477 55.4996 128.066 60.9801 127.384C97.1833 122.878 125.878 94.1833 130.384 57.9801C131.066 52.4996 135.477 48 141 48H708Z" fill="#006AB6"/>
<path d="M130.384 1126.02L138.322 1125.03L130.384 1126.02ZM718.616 1126.02L710.678 1125.03L718.616 1126.02ZM788.02 1056.62L789.008 1064.56L788.02 1056.62ZM718.616 57.9801L726.555 56.9922L718.616 57.9801ZM718.616 57.9801L710.678 58.9681C715.635 98.8063 747.194 130.365 787.032 135.322L788.02 127.384L789.008 119.445C756.44 115.392 730.608 89.5603 726.555 56.9922L718.616 57.9801ZM798 138H790V1046H798H806V138H798ZM788.02 1056.62L787.032 1048.68C747.194 1053.64 715.635 1085.19 710.678 1125.03L718.616 1126.02L726.555 1127.01C730.608 1094.44 756.44 1068.61 789.008 1064.56L788.02 1056.62ZM708 1136V1128H141V1136V1144H708V1136ZM130.384 1126.02L138.322 1125.03C133.365 1085.19 101.806 1053.64 61.9681 1048.68L60.9801 1056.62L59.9922 1064.56C92.5603 1068.61 118.392 1094.44 122.445 1127.01L130.384 1126.02ZM51 1046H59V138H51H43V1046H51ZM60.9801 127.384L61.9681 135.322C101.806 130.365 133.365 98.8063 138.322 58.9681L130.384 57.9801L122.445 56.9922C118.392 89.5603 92.5603 115.392 59.9922 119.445L60.9801 127.384ZM141 48V56H708V48V40H141V48ZM130.384 57.9801L138.322 58.9681C138.438 58.0389 138.872 57.2306 139.427 56.6958C139.954 56.1887 140.494 56 141 56V48V40C130.84 40 123.547 48.1329 122.445 56.9922L130.384 57.9801ZM51 138H59C59 137.494 59.1887 136.954 59.6958 136.427C60.2306 135.872 61.0389 135.438 61.9681 135.322L60.9801 127.384L59.9922 119.445C51.1329 120.547 43 127.84 43 138H51ZM60.9801 1056.62L61.9681 1048.68C61.0389 1048.56 60.2306 1048.13 59.6958 1047.57C59.1887 1047.05 59 1046.51 59 1046H51H43C43 1056.16 51.1329 1063.45 59.9922 1064.56L60.9801 1056.62ZM141 1136V1128C140.494 1128 139.954 1127.81 139.427 1127.3C138.872 1126.77 138.438 1125.96 138.322 1125.03L130.384 1126.02L122.445 1127.01C123.547 1135.87 130.84 1144 141 1144V1136ZM718.616 1126.02L710.678 1125.03C710.562 1125.96 710.128 1126.77 709.573 1127.3C709.046 1127.81 708.506 1128 708 1128V1136V1144C718.16 1144 725.453 1135.87 726.555 1127.01L718.616 1126.02ZM798 1046H790C790 1046.51 789.811 1047.05 789.304 1047.57C788.769 1048.13 787.961 1048.56 787.032 1048.68L788.02 1056.62L789.008 1064.56C797.867 1063.45 806 1056.16 806 1046H798ZM788.02 127.384L787.032 135.322C787.961 135.438 788.769 135.872 789.304 136.427C789.811 136.954 790 137.494 790 138H798H806C806 127.84 797.867 120.547 789.008 119.445L788.02 127.384ZM718.616 57.9801L726.555 56.9922C725.453 48.1329 718.16 40 708 40V48V56C708.506 56 709.046 56.1887 709.573 56.6958C710.128 57.2306 710.562 58.0389 710.678 58.9681L718.616 57.9801Z" fill="black" mask="url(#path-6-inside-1_97_16)"/>
<path d="M690 102C695.523 102 699.911 106.512 700.837 111.957C705.019 136.563 724.437 155.981 749.043 160.163C754.488 161.089 759 165.477 759 171V1014C759 1019.52 754.488 1023.91 749.043 1024.84C724.711 1028.97 705.454 1048 700.984 1072.22C699.993 1077.59 695.633 1082 690.175 1082H158.825C153.367 1082 149.007 1077.59 148.016 1072.22C143.546 1048 124.288 1028.97 99.9568 1024.84C94.5121 1023.91 90 1019.52 90 1014V171C90 165.477 94.512 161.089 99.9568 160.163C124.563 155.981 143.981 136.563 148.163 111.957C149.089 106.512 153.477 102 159 102H690Z" fill="#5298CB"/>
<path d="M220.725 399.585H248.18V408H209.25V400.435L236.62 357.34H209.25V348.925H248.18V356.49L220.725 399.585ZM255.542 384.37C255.542 379.667 256.506 375.502 258.432 371.875C260.416 368.248 263.079 365.443 266.422 363.46C269.822 361.42 273.562 360.4 277.642 360.4C281.326 360.4 284.527 361.137 287.247 362.61C290.024 364.027 292.234 365.812 293.877 367.965V361.165H303.652V408H293.877V401.03C292.234 403.24 289.996 405.082 287.162 406.555C284.329 408.028 281.099 408.765 277.472 408.765C273.449 408.765 269.766 407.745 266.422 405.705C263.079 403.608 260.416 400.718 258.432 397.035C256.506 393.295 255.542 389.073 255.542 384.37ZM293.877 384.54C293.877 381.31 293.197 378.505 291.837 376.125C290.534 373.745 288.806 371.932 286.652 370.685C284.499 369.438 282.176 368.815 279.682 368.815C277.189 368.815 274.866 369.438 272.712 370.685C270.559 371.875 268.802 373.66 267.442 376.04C266.139 378.363 265.487 381.14 265.487 384.37C265.487 387.6 266.139 390.433 267.442 392.87C268.802 395.307 270.559 397.177 272.712 398.48C274.922 399.727 277.246 400.35 279.682 400.35C282.176 400.35 284.499 399.727 286.652 398.48C288.806 397.233 290.534 395.42 291.837 393.04C293.197 390.603 293.877 387.77 293.877 384.54ZM340.01 360.4C343.693 360.4 346.98 361.165 349.87 362.695C352.817 364.225 355.112 366.492 356.755 369.495C358.398 372.498 359.22 376.125 359.22 380.375V408H349.615V381.82C349.615 377.627 348.567 374.425 346.47 372.215C344.373 369.948 341.512 368.815 337.885 368.815C334.258 368.815 331.368 369.948 329.215 372.215C327.118 374.425 326.07 377.627 326.07 381.82V408H316.38V361.165H326.07V366.52C327.657 364.593 329.668 363.092 332.105 362.015C334.598 360.938 337.233 360.4 340.01 360.4ZM368.35 384.37C368.35 379.667 369.313 375.502 371.24 371.875C373.223 368.248 375.887 365.443 379.23 363.46C382.63 361.42 386.37 360.4 390.45 360.4C394.133 360.4 397.335 361.137 400.055 362.61C402.832 364.027 405.042 365.812 406.685 367.965V361.165H416.46V408H406.685V401.03C405.042 403.24 402.803 405.082 399.97 406.555C397.137 408.028 393.907 408.765 390.28 408.765C386.257 408.765 382.573 407.745 379.23 405.705C375.887 403.608 373.223 400.718 371.24 397.035C369.313 393.295 368.35 389.073 368.35 384.37ZM406.685 384.54C406.685 381.31 406.005 378.505 404.645 376.125C403.342 373.745 401.613 371.932 399.46 370.685C397.307 369.438 394.983 368.815 392.49 368.815C389.997 368.815 387.673 369.438 385.52 370.685C383.367 371.875 381.61 373.66 380.25 376.04C378.947 378.363 378.295 381.14 378.295 384.37C378.295 387.6 378.947 390.433 380.25 392.87C381.61 395.307 383.367 397.177 385.52 398.48C387.73 399.727 390.053 400.35 392.49 400.35C394.983 400.35 397.307 399.727 399.46 398.48C401.613 397.233 403.342 395.42 404.645 393.04C406.005 390.603 406.685 387.77 406.685 384.54ZM453.413 360.4C456.983 360.4 460.156 361.165 462.933 362.695C465.766 364.225 467.976 366.492 469.563 369.495C471.206 372.498 472.028 376.125 472.028 380.375V408H462.423V381.82C462.423 377.627 461.374 374.425 459.278 372.215C457.181 369.948 454.319 368.815 450.693 368.815C447.066 368.815 444.176 369.948 442.023 372.215C439.926 374.425 438.878 377.627 438.878 381.82V408H429.188V345.1H438.878V366.605C440.521 364.622 442.589 363.092 445.083 362.015C447.633 360.938 450.409 360.4 453.413 360.4ZM504.703 408.765C500.283 408.765 496.288 407.773 492.718 405.79C489.148 403.75 486.343 400.917 484.303 397.29C482.263 393.607 481.243 389.357 481.243 384.54C481.243 379.78 482.291 375.558 484.388 371.875C486.484 368.192 489.346 365.358 492.973 363.375C496.599 361.392 500.651 360.4 505.128 360.4C509.604 360.4 513.656 361.392 517.283 363.375C520.909 365.358 523.771 368.192 525.868 371.875C527.964 375.558 529.013 379.78 529.013 384.54C529.013 389.3 527.936 393.522 525.783 397.205C523.629 400.888 520.683 403.75 516.943 405.79C513.259 407.773 509.179 408.765 504.703 408.765ZM504.703 400.35C507.196 400.35 509.519 399.755 511.673 398.565C513.883 397.375 515.668 395.59 517.028 393.21C518.388 390.83 519.068 387.94 519.068 384.54C519.068 381.14 518.416 378.278 517.113 375.955C515.809 373.575 514.081 371.79 511.928 370.6C509.774 369.41 507.451 368.815 504.958 368.815C502.464 368.815 500.141 369.41 497.988 370.6C495.891 371.79 494.219 373.575 492.973 375.955C491.726 378.278 491.103 381.14 491.103 384.54C491.103 389.583 492.378 393.493 494.928 396.27C497.534 398.99 500.793 400.35 504.703 400.35ZM548.282 367.965C549.698 365.585 551.568 363.743 553.892 362.44C556.272 361.08 559.077 360.4 562.307 360.4V370.43H559.842C556.045 370.43 553.155 371.393 551.172 373.32C549.245 375.247 548.282 378.59 548.282 383.35V408H538.592V361.165H548.282V367.965ZM576.144 354.96C574.387 354.96 572.914 354.365 571.724 353.175C570.534 351.985 569.939 350.512 569.939 348.755C569.939 346.998 570.534 345.525 571.724 344.335C572.914 343.145 574.387 342.55 576.144 342.55C577.844 342.55 579.289 343.145 580.479 344.335C581.669 345.525 582.264 346.998 582.264 348.755C582.264 350.512 581.669 351.985 580.479 353.175C579.289 354.365 577.844 354.96 576.144 354.96ZM580.904 361.165V408H571.214V361.165H580.904ZM590.396 384.37C590.396 379.667 591.359 375.502 593.286 371.875C595.269 368.248 597.933 365.443 601.276 363.46C604.676 361.42 608.416 360.4 612.496 360.4C616.179 360.4 619.381 361.137 622.101 362.61C624.878 364.027 627.088 365.812 628.731 367.965V361.165H638.506V408H628.731V401.03C627.088 403.24 624.849 405.082 622.016 406.555C619.183 408.028 615.953 408.765 612.326 408.765C608.303 408.765 604.619 407.745 601.276 405.705C597.933 403.608 595.269 400.718 593.286 397.035C591.359 393.295 590.396 389.073 590.396 384.37ZM628.731 384.54C628.731 381.31 628.051 378.505 626.691 376.125C625.388 373.745 623.659 371.932 621.506 370.685C619.353 369.438 617.029 368.815 614.536 368.815C612.043 368.815 609.719 369.438 607.566 370.685C605.413 371.875 603.656 373.66 602.296 376.04C600.993 378.363 600.341 381.14 600.341 384.37C600.341 387.6 600.993 390.433 602.296 392.87C603.656 395.307 605.413 397.177 607.566 398.48C609.776 399.727 612.099 400.35 614.536 400.35C617.029 400.35 619.353 399.727 621.506 398.48C623.659 397.233 625.388 395.42 626.691 393.04C628.051 390.603 628.731 387.77 628.731 384.54Z" fill="black"/>
<mask id="path-10-outside-2_97_16" maskUnits="userSpaceOnUse" x="406" y="1007" width="37" height="31" fill="black">
<rect fill="white" x="406" y="1007" width="37" height="31"/>
<path d="M406.8 1012V1007.84H415.12V1037H410.52V1012H406.8ZM440.184 1011.76H426.784V1019.72C427.344 1018.97 428.171 1018.35 429.264 1017.84C430.384 1017.33 431.571 1017.08 432.824 1017.08C435.064 1017.08 436.878 1017.56 438.264 1018.52C439.678 1019.48 440.678 1020.69 441.264 1022.16C441.878 1023.63 442.184 1025.17 442.184 1026.8C442.184 1028.77 441.798 1030.53 441.024 1032.08C440.278 1033.6 439.144 1034.8 437.624 1035.68C436.131 1036.56 434.291 1037 432.104 1037C429.198 1037 426.864 1036.28 425.104 1034.84C423.344 1033.4 422.291 1031.49 421.944 1029.12H426.384C426.678 1030.37 427.331 1031.37 428.344 1032.12C429.358 1032.84 430.624 1033.2 432.144 1033.2C434.038 1033.2 435.451 1032.63 436.384 1031.48C437.344 1030.33 437.824 1028.81 437.824 1026.92C437.824 1025 437.344 1023.53 436.384 1022.52C435.424 1021.48 434.011 1020.96 432.144 1020.96C430.838 1020.96 429.731 1021.29 428.824 1021.96C427.944 1022.6 427.304 1023.48 426.904 1024.6H422.584V1007.76H440.184V1011.76Z"/>
</mask>
<path d="M406.8 1012V1007.84H415.12V1037H410.52V1012H406.8ZM440.184 1011.76H426.784V1019.72C427.344 1018.97 428.171 1018.35 429.264 1017.84C430.384 1017.33 431.571 1017.08 432.824 1017.08C435.064 1017.08 436.878 1017.56 438.264 1018.52C439.678 1019.48 440.678 1020.69 441.264 1022.16C441.878 1023.63 442.184 1025.17 442.184 1026.8C442.184 1028.77 441.798 1030.53 441.024 1032.08C440.278 1033.6 439.144 1034.8 437.624 1035.68C436.131 1036.56 434.291 1037 432.104 1037C429.198 1037 426.864 1036.28 425.104 1034.84C423.344 1033.4 422.291 1031.49 421.944 1029.12H426.384C426.678 1030.37 427.331 1031.37 428.344 1032.12C429.358 1032.84 430.624 1033.2 432.144 1033.2C434.038 1033.2 435.451 1032.63 436.384 1031.48C437.344 1030.33 437.824 1028.81 437.824 1026.92C437.824 1025 437.344 1023.53 436.384 1022.52C435.424 1021.48 434.011 1020.96 432.144 1020.96C430.838 1020.96 429.731 1021.29 428.824 1021.96C427.944 1022.6 427.304 1023.48 426.904 1024.6H422.584V1007.76H440.184V1011.76Z" fill="black"/>
<path d="M406.8 1012H406.5V1012.3H406.8V1012ZM406.8 1007.84V1007.54H406.5V1007.84H406.8ZM415.12 1007.84H415.42V1007.54H415.12V1007.84ZM415.12 1037V1037.3H415.42V1037H415.12ZM410.52 1037H410.22V1037.3H410.52V1037ZM410.52 1012H410.82V1011.7H410.52V1012ZM406.8 1012H407.1V1007.84H406.8H406.5V1012H406.8ZM406.8 1007.84V1008.14H415.12V1007.84V1007.54H406.8V1007.84ZM415.12 1007.84H414.82V1037H415.12H415.42V1007.84H415.12ZM415.12 1037V1036.7H410.52V1037V1037.3H415.12V1037ZM410.52 1037H410.82V1012H410.52H410.22V1037H410.52ZM410.52 1012V1011.7H406.8V1012V1012.3H410.52V1012ZM440.184 1011.76V1012.06H440.484V1011.76H440.184ZM426.784 1011.76V1011.46H426.484V1011.76H426.784ZM426.784 1019.72H426.484V1020.62L427.024 1019.9L426.784 1019.72ZM429.264 1017.84L429.141 1017.57L429.138 1017.57L429.264 1017.84ZM438.264 1018.52L438.094 1018.77L438.096 1018.77L438.264 1018.52ZM441.264 1022.16L440.986 1022.27L440.988 1022.28L441.264 1022.16ZM441.024 1032.08L440.756 1031.95L440.755 1031.95L441.024 1032.08ZM437.624 1035.68L437.474 1035.42L437.472 1035.42L437.624 1035.68ZM425.104 1034.84L425.294 1034.61L425.104 1034.84ZM421.944 1029.12V1028.82H421.597L421.648 1029.16L421.944 1029.12ZM426.384 1029.12L426.676 1029.05L426.622 1028.82H426.384V1029.12ZM428.344 1032.12L428.166 1032.36L428.171 1032.36L428.344 1032.12ZM436.384 1031.48L436.154 1031.29L436.152 1031.29L436.384 1031.48ZM436.384 1022.52L436.164 1022.72L436.167 1022.73L436.384 1022.52ZM428.824 1021.96L429.001 1022.2L429.002 1022.2L428.824 1021.96ZM426.904 1024.6V1024.9H427.116L427.187 1024.7L426.904 1024.6ZM422.584 1024.6H422.284V1024.9H422.584V1024.6ZM422.584 1007.76V1007.46H422.284V1007.76H422.584ZM440.184 1007.76H440.484V1007.46H440.184V1007.76ZM440.184 1011.76V1011.46H426.784V1011.76V1012.06H440.184V1011.76ZM426.784 1011.76H426.484V1019.72H426.784H427.084V1011.76H426.784ZM426.784 1019.72L427.024 1019.9C427.547 1019.2 428.329 1018.6 429.391 1018.11L429.264 1017.84L429.138 1017.57C428.013 1018.09 427.142 1018.74 426.544 1019.54L426.784 1019.72ZM429.264 1017.84L429.388 1018.11C430.468 1017.62 431.613 1017.38 432.824 1017.38V1017.08V1016.78C431.529 1016.78 430.3 1017.04 429.141 1017.57L429.264 1017.84ZM432.824 1017.08V1017.38C435.023 1017.38 436.771 1017.85 438.094 1018.77L438.264 1018.52L438.435 1018.27C436.984 1017.27 435.106 1016.78 432.824 1016.78V1017.08ZM438.264 1018.52L438.096 1018.77C439.464 1019.7 440.423 1020.86 440.986 1022.27L441.264 1022.16L441.543 1022.05C440.932 1020.52 439.892 1019.26 438.433 1018.27L438.264 1018.52ZM441.264 1022.16L440.988 1022.28C441.585 1023.7 441.884 1025.21 441.884 1026.8H442.184H442.484C442.484 1025.13 442.17 1023.55 441.541 1022.04L441.264 1022.16ZM442.184 1026.8H441.884C441.884 1028.73 441.506 1030.45 440.756 1031.95L441.024 1032.08L441.293 1032.21C442.09 1030.62 442.484 1028.81 442.484 1026.8H442.184ZM441.024 1032.08L440.755 1031.95C440.036 1033.41 438.945 1034.57 437.474 1035.42L437.624 1035.68L437.775 1035.94C439.344 1035.03 440.52 1033.79 441.294 1032.21L441.024 1032.08ZM437.624 1035.68L437.472 1035.42C436.035 1036.27 434.251 1036.7 432.104 1036.7V1037V1037.3C434.331 1037.3 436.227 1036.85 437.777 1035.94L437.624 1035.68ZM432.104 1037V1036.7C429.247 1036.7 426.987 1035.99 425.294 1034.61L425.104 1034.84L424.914 1035.07C426.741 1036.57 429.148 1037.3 432.104 1037.3V1037ZM425.104 1034.84L425.294 1034.61C423.596 1033.22 422.578 1031.38 422.241 1029.08L421.944 1029.12L421.648 1029.16C422.004 1031.61 423.093 1033.58 424.914 1035.07L425.104 1034.84ZM421.944 1029.12V1029.42H426.384V1029.12V1028.82H421.944V1029.12ZM426.384 1029.12L426.092 1029.19C426.401 1030.51 427.094 1031.57 428.166 1032.36L428.344 1032.12L428.522 1031.88C427.568 1031.18 426.954 1030.24 426.676 1029.05L426.384 1029.12ZM428.344 1032.12L428.171 1032.36C429.245 1033.13 430.576 1033.5 432.144 1033.5V1033.2V1032.9C430.673 1032.9 429.47 1032.55 428.518 1031.88L428.344 1032.12ZM432.144 1033.2V1033.5C434.101 1033.5 435.611 1032.9 436.617 1031.67L436.384 1031.48L436.152 1031.29C435.291 1032.35 433.975 1032.9 432.144 1032.9V1033.2ZM436.384 1031.48L436.614 1031.67C437.631 1030.46 438.124 1028.86 438.124 1026.92H437.824H437.524C437.524 1028.76 437.058 1030.21 436.154 1031.29L436.384 1031.48ZM437.824 1026.92H438.124C438.124 1024.95 437.632 1023.4 436.602 1022.31L436.384 1022.52L436.167 1022.73C437.057 1023.67 437.524 1025.05 437.524 1026.92H437.824ZM436.384 1022.52L436.605 1022.32C435.571 1021.2 434.067 1020.66 432.144 1020.66V1020.96V1021.26C433.955 1021.26 435.277 1021.76 436.164 1022.72L436.384 1022.52ZM432.144 1020.96V1020.66C430.784 1020.66 429.613 1021.01 428.647 1021.72L428.824 1021.96L429.002 1022.2C429.849 1021.58 430.891 1021.26 432.144 1021.26V1020.96ZM428.824 1021.96L428.648 1021.72C427.715 1022.4 427.04 1023.33 426.622 1024.5L426.904 1024.6L427.187 1024.7C427.569 1023.63 428.174 1022.8 429.001 1022.2L428.824 1021.96ZM426.904 1024.6V1024.3H422.584V1024.6V1024.9H426.904V1024.6ZM422.584 1024.6H422.884V1007.76H422.584H422.284V1024.6H422.584ZM422.584 1007.76V1008.06H440.184V1007.76V1007.46H422.584V1007.76ZM440.184 1007.76H439.884V1011.76H440.184H440.484V1007.76H440.184Z" fill="black" mask="url(#path-10-outside-2_97_16)"/>
<path d="M250.36 234.83C250.36 227.55 251.865 221.075 254.875 215.405C257.955 209.665 262.295 205.22 267.895 202.07C273.495 198.85 279.935 197.24 287.215 197.24C296.455 197.24 304.225 199.725 310.525 204.695C316.825 209.595 320.885 216.28 322.705 224.75H300.55C299.22 221.95 297.365 219.815 294.985 218.345C292.675 216.875 289.98 216.14 286.9 216.14C282.14 216.14 278.325 217.855 275.455 221.285C272.655 224.645 271.255 229.16 271.255 234.83C271.255 240.57 272.655 245.155 275.455 248.585C278.325 251.945 282.14 253.625 286.9 253.625C289.98 253.625 292.675 252.89 294.985 251.42C297.365 249.95 299.22 247.815 300.55 245.015H322.705C320.885 253.485 316.825 260.205 310.525 265.175C304.225 270.075 296.455 272.525 287.215 272.525C279.935 272.525 273.495 270.95 267.895 267.8C262.295 264.58 257.955 260.135 254.875 254.465C251.865 248.725 250.36 242.18 250.36 234.83ZM329.09 242.495C329.09 236.405 330.175 231.085 332.345 226.535C334.585 221.985 337.595 218.485 341.375 216.035C345.225 213.585 349.495 212.36 354.185 212.36C358.245 212.36 361.745 213.165 364.685 214.775C367.625 216.385 369.9 218.555 371.51 221.285V213.095H392.09V272H371.51V263.81C369.9 266.54 367.59 268.71 364.58 270.32C361.64 271.93 358.175 272.735 354.185 272.735C349.495 272.735 345.225 271.51 341.375 269.06C337.595 266.61 334.585 263.11 332.345 258.56C330.175 253.94 329.09 248.585 329.09 242.495ZM371.51 242.495C371.51 238.715 370.46 235.74 368.36 233.57C366.33 231.4 363.81 230.315 360.8 230.315C357.72 230.315 355.165 231.4 353.135 233.57C351.105 235.67 350.09 238.645 350.09 242.495C350.09 246.275 351.105 249.285 353.135 251.525C355.165 253.695 357.72 254.78 360.8 254.78C363.81 254.78 366.33 253.695 368.36 251.525C370.46 249.355 371.51 246.345 371.51 242.495ZM424.398 223.49C426.708 220.13 429.508 217.47 432.798 215.51C436.088 213.55 439.623 212.57 443.403 212.57V234.515H437.628C433.148 234.515 429.823 235.39 427.653 237.14C425.483 238.89 424.398 241.935 424.398 246.275V272H403.818V213.095H424.398V223.49ZM471.36 223.49C473.67 220.13 476.47 217.47 479.76 215.51C483.05 213.55 486.585 212.57 490.365 212.57V234.515H484.59C480.11 234.515 476.785 235.39 474.615 237.14C472.445 238.89 471.36 241.935 471.36 246.275V272H450.78V213.095H471.36V223.49ZM525.148 272.735C519.268 272.735 513.983 271.51 509.293 269.06C504.673 266.61 501.033 263.11 498.373 258.56C495.713 254.01 494.383 248.655 494.383 242.495C494.383 236.405 495.713 231.085 498.373 226.535C501.103 221.985 504.778 218.485 509.398 216.035C514.088 213.585 519.373 212.36 525.253 212.36C531.133 212.36 536.383 213.585 541.003 216.035C545.693 218.485 549.368 221.985 552.028 226.535C554.758 231.085 556.123 236.405 556.123 242.495C556.123 248.585 554.758 253.94 552.028 258.56C549.368 263.11 545.693 266.61 541.003 269.06C536.313 271.51 531.028 272.735 525.148 272.735ZM525.148 254.885C528.018 254.885 530.398 253.835 532.288 251.735C534.248 249.565 535.228 246.485 535.228 242.495C535.228 238.505 534.248 235.46 532.288 233.36C530.398 231.26 528.053 230.21 525.253 230.21C522.453 230.21 520.108 231.26 518.218 233.36C516.328 235.46 515.383 238.505 515.383 242.495C515.383 246.555 516.293 249.635 518.113 251.735C519.933 253.835 522.278 254.885 525.148 254.885ZM599.251 254.465V272H590.326C575.276 272 567.751 264.545 567.751 249.635V230.21H560.506V213.095H567.751V198.815H588.436V213.095H599.146V230.21H588.436V249.95C588.436 251.56 588.786 252.715 589.486 253.415C590.256 254.115 591.516 254.465 593.266 254.465H599.251Z" fill="black"/>
<path d="M299.633 424.167C316.387 422.055 332.968 440.463 341.194 452.806C343.936 456.921 346.102 461.887 349.077 466.378C368.024 459.139 374.105 483.099 373.745 497.507C405.292 477.497 433.758 505.522 416.86 534.655C413.974 539.631 409.447 542.816 404.77 546.464C406.584 572.685 381.237 590.02 357.578 592.756C353.292 606.217 350.823 613.807 349.077 627.841C375.35 630.896 402.055 649.761 412.73 673.796C414.701 678.233 416.436 682.733 418.38 687.179C436.541 665.038 457.447 653.054 486.267 650.159C486.805 637.656 485.198 624.551 483.208 612.241C481.497 611.919 479.78 611.553 478.078 611.227C456.137 607.026 435.089 580.99 445.754 559.569C421.156 539.565 435.739 509.313 462.729 511.275C470.661 511.851 481.815 516.257 487.019 522.239C491.916 498.734 507.539 473.109 534.693 485.722C569.543 434.78 612.337 472.457 601.557 523.232C622.531 525.381 625.473 541.707 616.088 557.899C624.393 557.55 632.81 557.48 640.063 562.28C663.243 577.626 650.16 610.055 621.398 615.744C614.923 638.357 580.566 646.866 560.816 640.692C552.432 649.001 544.856 658.447 539.858 669.196C549.091 675.523 562.005 691.78 568.694 700.876C569.675 704.424 571.423 707.662 572.798 711.065C588.001 748.7 569.543 765.158 555.283 795.456C536.511 838.249 478.079 982.554 422.469 988.862C397.407 991.705 394.823 949.885 393.756 933.738C389.017 950.089 382.427 967.019 364.879 973.575C331.13 986.186 302.283 903.895 292.726 879.712C278.333 841.631 263.834 803.569 253.535 764.119C251.676 757.211 250.534 748.749 247.116 742.422C227.899 706.841 256.474 650.382 292.268 637.633C276.795 579.23 265.016 613.107 240.141 597.408C228.854 590.285 223.75 578.788 220.886 566.334C213.764 562.51 209.031 561.475 203.481 555.082C193.876 544.012 195.064 526.287 206.267 516.764C215.732 508.719 231.474 510.976 243.034 512.079C237.908 490.874 240.836 461.157 268.679 462.702C270.145 445.085 280.323 426.138 299.633 424.167ZM401.72 934.959C403.854 932.336 404.621 924.611 404.77 921.324L404.111 919.258L403.525 918.701C401.346 919.696 402.073 925.518 401.72 927.903C401.838 930.548 401.847 932.316 401.72 934.959Z" fill="black"/>
<path d="M334.706 634.355C365.1 632.68 397.266 653.47 408.091 682.263C409.596 686.266 410.697 690.938 412.523 694.796C400.35 717.172 401.01 755.771 398.16 781C398.046 783.151 397.774 790.366 397.362 792.146C397.005 812.692 395.28 834.027 394.464 854.622L393.573 880.76C393.411 885.888 393.29 893.715 392.565 898.697C385.057 901.751 375.983 905.495 367.845 905.543C346.506 905.259 353.323 914.441 366.172 913.466C376.463 913.558 382.973 911.188 392.565 907.578C388.682 925.774 383.046 953.171 367.21 963.732C355.257 971.705 345.687 965.278 338.678 954.729C326.124 941.524 310.344 902.388 303.311 885.603H308.734H315.594C324.816 882.952 322.736 877.067 313.884 879.624C311.56 880.081 308.863 880.693 306.535 880.829C305.054 880.949 302.716 880.847 301.17 880.829C299.691 876.076 297.605 871.909 296.455 867.164C305.19 867.73 319.073 867.144 327.333 864.104C330.882 861.809 329.207 857.083 325.112 857.976C314.497 860.29 304.516 860.076 293.66 859.98C279.111 823.14 267.2 786.311 257.175 747.998C253.821 735.175 247.988 733.214 248.095 717.949C248.415 672.478 290.339 634.114 334.706 634.355Z" fill="#FF8B40"/>
<path d="M334.706 634.355C365.1 632.68 397.266 653.47 408.091 682.263C409.596 686.266 410.697 690.938 412.523 694.796C400.35 717.172 401.01 755.771 398.16 781C394.298 779.747 392.681 778.651 387.907 777.425C390.813 772.347 392.921 723.093 392.565 714.582C390.144 712.687 390.46 709.431 392.565 707.458L393.206 706.812C396.951 692.716 383.369 674.061 372.349 666.409C368.68 663.861 363.941 661.104 360.78 658.091C370 658.809 371.245 651.128 356.522 650.159C347.682 635.855 340.582 639.118 334.706 634.355Z" fill="#FA6822"/>
<path d="M392.565 707.458C410.958 710.809 408.943 718.71 392.565 714.583C390.144 712.687 390.46 709.431 392.565 707.458Z" fill="#57312F"/>
<path d="M387.907 788.503C389.791 789.101 396.631 790.899 397.362 792.147C397.005 812.693 395.28 834.028 394.464 854.623L393.572 880.76C393.411 885.889 393.29 893.715 392.565 898.697C385.057 901.751 375.983 905.495 367.844 905.543C377.306 866.982 380.487 827.433 387.907 788.503Z" fill="#FA6822"/>
<path d="M366.172 913.467C376.463 913.559 382.972 911.189 392.565 907.578C388.682 925.774 383.046 953.171 367.21 963.732C355.257 971.706 345.687 965.279 338.678 954.729C350.661 951.698 365.675 925.528 366.172 913.467Z" fill="#FA6822"/>
<path d="M387.907 788.503C385.593 787.92 366.913 787.096 368.877 782.561C371.875 775.639 381.887 776.773 387.907 777.425C392.681 778.651 394.298 779.747 398.16 781C398.045 783.151 397.774 790.366 397.362 792.147C396.631 790.899 389.791 789.101 387.907 788.503Z" fill="#F2441D"/>
<path d="M308.734 885.604H315.594C317.641 889.647 325.602 911.229 320.822 913.903C316.031 913.175 309.384 891.06 308.734 885.604Z" fill="#FEC899"/>
<path d="M356.522 650.159C371.245 651.128 370 658.809 360.78 658.091C356.93 656.384 348.084 659.664 347.255 654.932C348.693 650.882 352.851 650.731 356.522 650.159Z" fill="black"/>
<path d="M306.535 880.829C298.166 874.623 312.526 864.534 313.884 879.624C311.56 880.081 308.863 880.693 306.535 880.829Z" fill="#FEC899"/>
<path d="M307.962 658.091C317.224 656.742 333.513 659.344 332.819 671.698C332.004 686.183 304.049 687.817 292.901 693.547C280.814 699.758 277.373 702.479 267.625 711.378C255.417 722.937 248.896 732.147 256.872 704.009C263.834 679.443 281.591 660.209 307.962 658.091Z" fill="#FEC899"/>
<path d="M310.389 669.196C312.631 668.779 317.1 668.143 317.709 671.354C318.755 676.875 311.35 675.379 308.303 675.917C296.765 677.948 282.474 683.868 275.15 693.406C258.744 701.794 272.068 672.648 310.389 669.196Z" fill="black"/>
<path d="M320.899 753.391L321.347 753.363C332.138 752.79 330.236 759.898 325.42 760.2C306.832 761.359 291.718 768.394 277.054 779.615C271.926 784.691 264.495 780.035 279.024 769.25C290.151 760.989 307.004 754.355 320.899 753.391Z" fill="black"/>
<path d="M280.951 786.246C292.441 785.799 296.422 808.662 297.001 816.981C296.029 819.261 295.665 820.042 293.659 821.465C284.259 823.512 273.637 791.556 280.951 786.246Z" fill="#FEC899"/>
<path d="M301.17 745.038C313.834 743.455 321.888 750.887 304.453 753.867C297.509 755.054 285.229 759.406 280.951 765.383C276.958 767.186 274.864 767.834 270.368 770.133C274.149 756.021 287.206 747.119 301.17 745.038Z" fill="#FEC899"/>
<path d="M346.243 816.981C358.664 813.233 378.15 826.625 346.243 828.309C331.956 835.452 318.949 816.657 346.243 816.981Z" fill="#F2441D"/>
<path d="M366.172 699.691C382.813 696.948 400.555 713.277 377.041 710.298C371.578 709.347 355.6 713.911 353.091 707.777C353.646 702.399 361.747 700.369 366.172 699.691Z" fill="#F2441D"/>
<path d="M296.454 826.822C303.662 826.691 306.719 850.591 305.944 854.251C304.67 856.147 303.362 856.215 301.17 856.802C298.999 855.664 282.718 829.589 296.454 826.822Z" fill="#FEC899"/>
<path d="M275.15 728.276C283.222 729.5 285.385 744.253 277.053 746.676C268.498 745.337 267.413 731.514 275.15 728.276Z" fill="#FEC899"/>
<path d="M303.31 691.494C308.907 691.303 308.551 699.807 301.17 700.876C293.511 697.613 296.476 692.392 303.31 691.494Z" fill="#FEC899"/>
<path d="M331.638 910.27C338.154 910.134 339.327 914.585 333.368 916.94C325.933 916.934 324.583 911.828 331.638 910.27Z" fill="black"/>
<path d="M488.876 659.391C521.045 652.788 562.515 693.662 568.853 723.629C574.819 756.383 558.558 766.237 546.946 793.754C531.902 829.397 516.69 864.859 498.324 898.948C491.762 911.127 483.039 922.01 476.112 933.738C468.961 931.495 455.655 927.815 449.307 924.679C434.15 919.97 432.434 927.781 445.753 932.578C453.563 935.673 463.527 938.936 471.679 940.758L471.2 941.183C458.297 952.772 422.209 1004.42 407.73 969.548C404.283 960.372 401.584 944.758 401.72 934.959C403.854 932.336 404.62 924.611 404.77 921.324L404.111 919.258L403.525 918.701C401.345 919.696 402.073 925.518 401.72 927.903C401.324 922.306 401.704 911.479 401.72 905.543C401.01 900.922 401.493 894.443 401.72 889.665C402.033 889.578 403.677 889.654 404.111 889.665C406.953 890.42 409.604 890.552 412.523 890.823C414.829 888.273 414.815 887.019 412.523 884.466C409.271 883.166 407.76 882.663 404.77 880.829C399.611 880.768 401.979 871.934 402.5 867.165C405.944 868.55 428.157 876.189 430.588 874.125C439.869 866.25 419.086 864.36 414.781 863.458C411.31 862.541 409.622 861.623 406.457 859.981C405.799 859.843 404.056 859.237 403.331 859.008C402.652 848.662 403.989 836.464 404.298 825.95C405.041 800.753 406.122 726.149 416.911 703.923C428.898 679.227 461.012 657.389 488.876 659.391Z" fill="#FF8B40"/>
<path d="M488.877 659.391C521.045 652.788 562.515 693.662 568.853 723.629C574.819 756.383 558.558 766.237 546.946 793.754C531.902 829.397 516.69 864.859 498.324 898.948C491.762 911.127 483.039 922.01 476.112 933.738C468.961 931.495 455.655 927.815 449.307 924.679C451.831 919.49 458.21 913.088 462.033 908.423C482.532 883.418 499.723 856.99 514.653 828.309C515.755 825.444 517.09 821.81 519.725 819.978H518.113C525.994 795.451 544.123 748.772 546.904 724.027C550.31 693.709 516.553 662.483 488.877 659.391Z" fill="#FA6822"/>
<path d="M514.653 828.309C515.755 825.444 517.09 821.81 519.725 819.978C531.079 826.931 528.59 833.862 514.653 828.309Z" fill="#E62818"/>
<path d="M545.518 754.823C551.705 754.679 561.378 765.446 558.794 770.133C555.834 769.146 543.034 759.386 545.518 754.823Z" fill="black"/>
<path d="M445.754 932.578C453.563 935.673 463.527 938.936 471.679 940.758L471.2 941.183C458.297 952.772 422.209 1004.42 407.73 969.547C415.77 966.715 441.515 940.561 445.754 932.578Z" fill="#FA6822"/>
<path d="M406.457 859.981C407.454 854.297 407.332 813.552 420.163 826.822C420.183 835.143 416.784 855.495 414.781 863.458C411.31 862.541 409.623 861.623 406.457 859.981Z" fill="#FEC899"/>
<path d="M401.72 889.665C402.033 889.578 403.677 889.654 404.111 889.665C406.953 890.42 409.604 890.552 412.523 890.823C412.042 895.752 411.894 914.294 406.457 915.002C404.599 916.404 404.619 916.932 404.111 919.258L403.525 918.701C401.345 919.696 402.073 925.518 401.72 927.903C401.324 922.306 401.704 911.479 401.72 905.543C401.01 900.922 401.493 894.443 401.72 889.665Z" fill="#FEC899"/>
<path d="M401.72 889.665C402.033 889.578 403.677 889.654 404.111 889.665C403.389 894.376 402.585 901.024 401.72 905.543C401.01 900.922 401.493 894.443 401.72 889.665Z" fill="#FE8739"/>
<path d="M498.177 814.291C505.641 813.932 511.75 816.159 518.113 819.978H519.725C517.09 821.811 515.755 825.444 514.653 828.31C509.749 826.778 486.364 821.443 498.177 814.291Z" fill="#F2441D"/>
<path d="M406.457 915.002C430.289 917.353 423.018 932.098 404.77 921.323L404.112 919.258C404.619 916.932 404.599 916.404 406.457 915.002Z" fill="black"/>
<path d="M404.77 880.829C408.558 865.813 418.667 879.955 412.523 884.467C409.271 883.166 407.761 882.663 404.77 880.829Z" fill="#FEC899"/>
<path d="M465.232 675.607C505.959 671.371 523.09 700.826 494.551 706.181C483.036 708.342 468.074 701.556 449.307 704.534C438.042 707.008 431.423 711.653 423.066 719.325C412.007 729.476 421.373 699.532 427.112 692.413C436.638 680.6 451.108 677.316 465.232 675.607Z" fill="#FEC899"/>
<path d="M461.922 686.082C495.743 684.126 497.325 701.381 489.849 698.622C484.29 696.569 479.508 694.529 473.615 693.406C463.98 691.831 455.99 692.683 447.537 697.626C439.071 702.578 435.972 688.194 461.922 686.082Z" fill="black"/>
<path d="M434.555 765.383C443.906 764.643 469.3 768.892 474.266 774.501C482.259 783.529 459.667 776.276 456.786 775.495C445.278 772.564 433.072 770.943 421.619 775.123C409.928 778.686 410.336 767.527 434.555 765.383Z" fill="black"/>
<path d="M458.205 838.318C483.49 836.84 494.285 857.513 479.96 855.142C473.062 853.939 465.841 851.269 458.994 849.73C449.796 847.662 446.624 840.153 458.205 838.318Z" fill="#F2441D"/>
<path d="M434.555 750.282C439.889 748.637 465.408 752.612 456.739 762.276C455.773 763.352 444.875 760.838 442.466 760.65C438.263 760.517 421.932 763.496 420.957 762.872C410.924 756.43 428.392 750.712 434.555 750.282Z" fill="#FEC899"/>
<path d="M420.163 784.623C430.7 786.017 423.77 817.521 416.634 819.978C404.854 816.308 412.595 786.49 420.163 784.623Z" fill="#FEC899"/>
<path d="M508.404 735.984C523.351 734.577 547.214 746.867 530.695 750.282C523.87 749.329 516.822 747.508 510.205 745.593C504.196 743.853 499.398 738.287 508.404 735.984Z" fill="#F2441D"/>
<path d="M429.808 728.276C443.491 723.864 436.856 745.021 432.247 748.418C419.642 751.74 423.002 731.772 429.808 728.276Z" fill="#FEC899"/>
<path d="M524.105 691.493C528.348 692.217 542.74 701.772 537.256 707.458C536.91 707.493 517.869 697.972 524.105 691.493Z" fill="black"/>
<path d="M467.613 707.459C476.04 706.371 478.827 713.526 471.679 718.035C464.78 719.65 460.503 711.221 467.613 707.459Z" fill="#FEC899"/>
<path d="M293.659 433.615C297.514 431.865 300.082 431.85 303.877 433.615C317.433 434.776 337.841 459.383 340.846 472.104C341.2 474.073 339.767 475.21 340.67 477.302C343.936 484.855 350.376 471.997 356.853 473.715C366.994 476.405 367.333 491.313 364.875 499.198C364.017 501.952 358.133 508.837 364.054 510.217C370.849 511.801 396.162 482.753 411.631 508.101C414.493 512.425 414.552 518.19 413.637 523.176C411.467 535 402.159 537.282 396.102 543.631C402.415 567.217 374.026 584.68 353.578 585.098C346.594 596.103 342.93 613.522 341.614 626.404H331.638C330.629 613.331 339.832 584.209 346.243 574.616C349.078 566.718 353.908 559.956 358.137 552.839C361.043 547.951 354.717 543.958 350.623 549.961C348.216 553.492 345.893 557.345 343.661 561.074C342.732 562.792 341.723 564.598 340.846 566.334C335.447 577.934 333.361 584.93 329.407 596.819C328.259 586.061 326.405 571.614 326.501 561.074C324.711 552.675 321.099 515.779 315.244 511.96C299.34 501.584 303.936 581.845 303.877 588.074C304.445 589.359 303.992 593.448 303.877 595.125L303.081 593.297C298.14 581.752 283.022 566.611 271.709 561.074C257.159 559.628 281.085 575.478 282.505 576.917C298.5 593.123 303.84 604.244 306.535 625.751C307.1 627.481 307.574 630.068 307.962 631.909C303.972 632.431 303.187 632.636 299.633 634.356C295.115 620.619 287.03 592.194 268.11 593.82C248.311 595.52 234.982 592.098 229.153 568.798C228.56 566.423 228.895 561.729 227.483 559.86C224.824 556.34 200.684 555.898 205.918 532.265C210.109 511.408 249.686 517.635 259.469 528.294C267.242 533.848 274.33 527.484 257.434 517.45C255.651 516.67 253.874 515.796 252.116 514.956C247.94 505.273 247.01 493.058 250.643 483.067C257.581 463.996 269.963 473.82 275.157 470.67C277.958 468.972 274.072 443.589 293.659 433.615Z" fill="#00F43B"/>
<path d="M411.631 508.101C414.493 512.425 414.552 518.19 413.637 523.176C411.467 535 402.159 537.281 396.102 543.631C402.415 567.217 374.026 584.68 353.578 585.097C346.594 596.103 342.93 613.522 341.614 626.404H331.638C330.629 613.331 339.832 584.208 346.243 574.616C359.935 574.104 375.222 568.338 383.705 557.178C388.997 550.215 386.694 546.415 385.593 538.828C390.718 526.259 404.017 533.367 411.631 508.101Z" fill="#298E43"/>
<path d="M299.633 634.356C295.115 620.619 287.03 592.194 268.11 593.82C248.311 595.52 234.982 592.098 229.153 568.798C228.56 566.423 228.895 561.729 227.483 559.86C224.824 556.34 200.684 555.897 205.918 532.265C207.808 533.599 208.619 534.013 210.702 535.032C217.262 545.938 223.006 549.916 235.983 551.896C245.789 590.333 255.62 576.054 279.133 587.177C299.752 596.932 298.291 616.185 306.535 625.751C307.1 627.481 307.574 630.068 307.962 631.909C303.972 632.431 303.187 632.636 299.633 634.356Z" fill="#298E43"/>
<path d="M293.659 433.615C303.59 440.344 290.162 443.244 286.96 454.62C284.332 463.961 288.236 481.242 277.401 482.243C271.409 482.797 267.303 477.924 262.445 483.878C254.168 494.023 258.544 506.113 257.434 517.45C255.65 516.67 253.874 515.796 252.116 514.956C247.94 505.273 247.01 493.058 250.643 483.067C257.58 463.996 269.963 473.82 275.157 470.67C277.958 468.972 274.072 443.589 293.659 433.615Z" fill="#C8F7E3"/>
<path d="M326.501 561.074L326.682 561.276L327.061 561.254C326.757 541.026 343.056 522.879 338.678 546.464C338.675 551.378 340.356 557.357 343.661 561.074C342.732 562.792 341.723 564.598 340.846 566.334C335.447 577.934 333.361 584.93 329.407 596.819C328.259 586.061 326.405 571.614 326.501 561.074Z" fill="#338C45"/>
<path d="M340.846 566.333C336.222 563.3 337.251 550.875 338.678 546.463C338.675 551.378 340.356 557.357 343.661 561.074C342.732 562.792 341.723 564.598 340.846 566.333Z" fill="#298E43"/>
<path d="M205.918 532.265C210.109 511.408 249.686 517.635 259.469 528.294C259.035 531.136 258.912 532.484 257.434 535.032L256.955 534.808C246.567 529.901 236.103 520.813 222.841 525.057C216.722 527.013 214.808 532.658 210.702 535.032C208.619 534.013 207.808 533.599 205.918 532.265Z" fill="#C8F7E3"/>
<path d="M271.709 561.074C285.26 558.287 297.751 578.382 303.877 588.074C304.445 589.359 303.992 593.448 303.877 595.125L303.081 593.297C298.14 581.752 283.022 566.611 271.709 561.074Z" fill="#298E43"/>
<path d="M303.877 433.615C317.433 434.776 337.841 459.383 340.846 472.104C338.085 470.636 336.442 466.398 334.683 463.761C327.607 453.15 322.102 446.017 311.5 438.626C309.263 437.076 305.671 435.46 303.877 433.615Z" fill="#298E43"/>
<path d="M564.404 470.503C567.835 469.676 569.05 469.949 572.429 470.503C580.381 470.077 585.558 478.267 589.534 483.956C595.372 495.677 600.855 518.339 589.534 528.294C587.693 538.632 595.807 532.203 599.65 530.497C622.194 531.282 612.713 550.803 604.395 561.753C597.167 571.268 602.893 572.967 611.528 568.57C619.511 564.505 629.009 564.148 636.71 569.333C635.092 591.594 624.038 593.036 604.643 601.564C597.333 604.776 587.597 602.658 579.748 603.314C581.462 592.187 568.128 601.041 564.404 603.314C553.507 611.035 543.572 621.077 535.794 631.909C536.854 626.076 543.154 604.044 545.518 598.344C547.321 586.231 557.444 550.582 553.293 542.989C545.949 529.552 527.96 579.304 526.664 583.681C521.734 592.23 515.198 609.978 512.178 619.363C511.066 611.599 509.243 602.677 508.404 595.125C496.153 563.823 481.783 569.402 488.394 578.319C503.551 598.762 506.514 610.289 505.028 637.633C503.922 640.227 502.618 649.4 502.171 652.443C498.767 651.268 497.42 650.772 493.871 650.159C493.895 639.55 494.648 612.641 488.877 604.449C463.511 600.779 442.991 587.495 454.089 557.9C448.37 550.799 434.872 542.805 442.466 530.497C443.752 526.418 445.174 523.559 449.246 521.53C470.335 511.022 492.377 535.09 503.646 549.996C518.052 549.794 499.851 532.321 496.289 528.294L493.871 525.812C495.426 507.118 517.986 476.914 535.794 497.507C541.824 486.712 552.141 474.228 564.404 470.503Z" fill="#00F43B"/>
<path d="M442.466 530.497L445.754 532.264C446.939 532.547 446.461 532.26 447.275 533.084L447.355 533.455C450.464 547.368 459.839 545.614 462.658 552.91C465.308 559.768 451.834 571.631 470.69 583.477C476.408 587.069 480.296 585.945 486.152 587.722C499.826 591.871 502.396 635.039 505.028 637.633C503.922 640.227 502.618 649.399 502.171 652.442C498.767 651.268 497.42 650.772 493.871 650.159C493.895 639.55 494.648 612.641 488.877 604.449C463.511 600.778 442.991 587.495 454.089 557.899C448.37 550.799 434.872 542.805 442.466 530.497Z" fill="#298E43"/>
<path d="M564.404 470.503C567.834 469.676 569.05 469.949 572.429 470.503C572.189 474.14 572.349 474.541 568.694 475.832C546.975 485.125 546.449 503.262 537.256 508.102C532.141 504.939 526.047 499.525 519.683 501.191C506.646 504.603 504.705 526.788 496.288 528.294L493.871 525.812C495.426 507.118 517.986 476.914 535.794 497.507C541.824 486.712 552.14 474.228 564.404 470.503Z" fill="#C8F7E3"/>
<path d="M442.465 530.497C443.752 526.417 445.174 523.558 449.246 521.53C470.335 511.021 492.377 535.09 503.646 549.995C502.161 551.804 501.273 552.58 499.427 553.974C485.095 542.667 468.311 517.271 445.753 532.264L442.465 530.497Z" fill="#C8F7E3"/>
<path d="M545.518 598.344C550.418 595.535 563.392 577.262 568.144 585.536C571.607 591.565 558.678 599.772 564.404 603.314C553.507 611.035 543.572 621.077 535.794 631.909C536.854 626.076 543.154 604.044 545.518 598.344Z" fill="#298E43"/>
<path d="M508.404 595.125C513.982 590.448 518.15 577.642 526.664 583.681C521.734 592.23 515.198 609.978 512.178 619.363C511.066 611.599 509.243 602.677 508.404 595.125Z" fill="#298E43"/>
<path d="M589.534 483.956C595.372 495.677 600.855 518.339 589.534 528.294C589.351 526.096 589.898 522.386 590.138 520.112C591.408 508.885 588.117 491.49 589.534 483.956Z" fill="#298E43"/>
<path d="M636.71 569.333C652.124 583.065 639.667 605.308 620.907 608.097C618.976 608.384 615.524 607.71 614.109 609.136C611.582 618.278 613.859 621.453 602.997 628.115C595.918 632.457 574.032 635.042 566.177 634.356C564.404 631.457 562.331 628.893 559.021 631.883C546.267 643.405 542.611 651.812 533.203 663.772C530.558 662.23 529.111 661.242 526.664 659.391C534.267 637.375 559.107 614.891 579.748 603.314C587.597 602.658 597.333 604.776 604.643 601.564C624.038 593.036 635.092 591.594 636.71 569.333Z" fill="#298E43"/>
<path d="M545.518 557.9C546.884 567.888 527.252 639.321 519.726 656.641C517.109 655.335 514.925 654.535 512.178 653.556C510.811 653.217 509.742 652.885 508.404 652.443C515.858 621.988 531.721 586.671 545.518 557.9Z" fill="#847A3D"/>
<path d="M312.033 522.239C319.194 534.457 321.655 603.468 326.501 626.404H323.328C320.593 627.083 316.789 628.343 313.884 629.153C309.855 611.211 309.243 533.026 312.033 522.239Z" fill="#847A3D"/>
</svg>
