<svg width="849" height="1183" viewBox="0 0 849 1183" fill="none" xmlns="http://www.w3.org/2000/svg">
<rect x="5" y="5" width="839" height="1173" rx="45" fill="white"/>
<rect x="5" y="5" width="839" height="1173" rx="45" stroke="black" stroke-width="10"/>
<circle cx="786.5" cy="1124.5" r="11.5" fill="black"/>
<circle cx="786.5" cy="59.5" r="11.5" fill="black"/>
<path d="M77 1124.5C77 1130.85 71.8513 1136 65.5 1136C59.1487 1136 54 1130.85 54 1124.5C54 1118.15 59.1487 1113 65.5 1113C71.8513 1113 77 1118.15 77 1124.5Z" fill="black"/>
<path d="M77 59.5C77 65.8513 71.8513 71 65.5 71C59.1487 71 54 65.8513 54 59.5C54 53.1487 59.1487 48 65.5 48C71.8513 48 77 53.1487 77 59.5Z" fill="black"/>
<mask id="path-6-inside-1_97_35" fill="white">
<path d="M708 48C713.523 48 717.934 52.4996 718.616 57.9801C723.122 94.1833 751.817 122.878 788.02 127.384C793.5 128.066 798 132.477 798 138V1046C798 1051.52 793.5 1055.93 788.02 1056.62C751.817 1061.12 723.122 1089.82 718.616 1126.02C717.934 1131.5 713.523 1136 708 1136H141C135.477 1136 131.066 1131.5 130.384 1126.02C125.878 1089.82 97.1833 1061.12 60.9801 1056.62C55.4996 1055.93 51 1051.52 51 1046V138C51 132.477 55.4996 128.066 60.9801 127.384C97.1833 122.878 125.878 94.1833 130.384 57.9801C131.066 52.4996 135.477 48 141 48H708Z"/>
</mask>
<path d="M708 48C713.523 48 717.934 52.4996 718.616 57.9801C723.122 94.1833 751.817 122.878 788.02 127.384C793.5 128.066 798 132.477 798 138V1046C798 1051.52 793.5 1055.93 788.02 1056.62C751.817 1061.12 723.122 1089.82 718.616 1126.02C717.934 1131.5 713.523 1136 708 1136H141C135.477 1136 131.066 1131.5 130.384 1126.02C125.878 1089.82 97.1833 1061.12 60.9801 1056.62C55.4996 1055.93 51 1051.52 51 1046V138C51 132.477 55.4996 128.066 60.9801 127.384C97.1833 122.878 125.878 94.1833 130.384 57.9801C131.066 52.4996 135.477 48 141 48H708Z" fill="#006AB6"/>
<path d="M130.384 1126.02L138.322 1125.03L130.384 1126.02ZM718.616 1126.02L710.678 1125.03L718.616 1126.02ZM788.02 1056.62L789.008 1064.56L788.02 1056.62ZM718.616 57.9801L726.555 56.9922L718.616 57.9801ZM718.616 57.9801L710.678 58.9681C715.635 98.8063 747.194 130.365 787.032 135.322L788.02 127.384L789.008 119.445C756.44 115.392 730.608 89.5603 726.555 56.9922L718.616 57.9801ZM798 138H790V1046H798H806V138H798ZM788.02 1056.62L787.032 1048.68C747.194 1053.64 715.635 1085.19 710.678 1125.03L718.616 1126.02L726.555 1127.01C730.608 1094.44 756.44 1068.61 789.008 1064.56L788.02 1056.62ZM708 1136V1128H141V1136V1144H708V1136ZM130.384 1126.02L138.322 1125.03C133.365 1085.19 101.806 1053.64 61.9681 1048.68L60.9801 1056.62L59.9922 1064.56C92.5603 1068.61 118.392 1094.44 122.445 1127.01L130.384 1126.02ZM51 1046H59V138H51H43V1046H51ZM60.9801 127.384L61.9681 135.322C101.806 130.365 133.365 98.8063 138.322 58.9681L130.384 57.9801L122.445 56.9922C118.392 89.5603 92.5603 115.392 59.9922 119.445L60.9801 127.384ZM141 48V56H708V48V40H141V48ZM130.384 57.9801L138.322 58.9681C138.438 58.0389 138.872 57.2306 139.427 56.6958C139.954 56.1887 140.494 56 141 56V48V40C130.84 40 123.547 48.1329 122.445 56.9922L130.384 57.9801ZM51 138H59C59 137.494 59.1887 136.954 59.6958 136.427C60.2306 135.872 61.0389 135.438 61.9681 135.322L60.9801 127.384L59.9922 119.445C51.1329 120.547 43 127.84 43 138H51ZM60.9801 1056.62L61.9681 1048.68C61.0389 1048.56 60.2306 1048.13 59.6958 1047.57C59.1887 1047.05 59 1046.51 59 1046H51H43C43 1056.16 51.1329 1063.45 59.9922 1064.56L60.9801 1056.62ZM141 1136V1128C140.494 1128 139.954 1127.81 139.427 1127.3C138.872 1126.77 138.438 1125.96 138.322 1125.03L130.384 1126.02L122.445 1127.01C123.547 1135.87 130.84 1144 141 1144V1136ZM718.616 1126.02L710.678 1125.03C710.562 1125.96 710.128 1126.77 709.573 1127.3C709.046 1127.81 708.506 1128 708 1128V1136V1144C718.16 1144 725.453 1135.87 726.555 1127.01L718.616 1126.02ZM798 1046H790C790 1046.51 789.811 1047.05 789.304 1047.57C788.769 1048.13 787.961 1048.56 787.032 1048.68L788.02 1056.62L789.008 1064.56C797.867 1063.45 806 1056.16 806 1046H798ZM788.02 127.384L787.032 135.322C787.961 135.438 788.769 135.872 789.304 136.427C789.811 136.954 790 137.494 790 138H798H806C806 127.84 797.867 120.547 789.008 119.445L788.02 127.384ZM718.616 57.9801L726.555 56.9922C725.453 48.1329 718.16 40 708 40V48V56C708.506 56 709.046 56.1887 709.573 56.6958C710.128 57.2306 710.562 58.0389 710.678 58.9681L718.616 57.9801Z" fill="black" mask="url(#path-6-inside-1_97_35)"/>
<path d="M690 102C695.523 102 699.911 106.512 700.837 111.957C705.019 136.563 724.437 155.981 749.043 160.163C754.488 161.089 759 165.477 759 171V1014C759 1019.52 754.488 1023.91 749.043 1024.84C724.711 1028.97 705.454 1048 700.984 1072.22C699.993 1077.59 695.633 1082 690.175 1082H158.825C153.367 1082 149.007 1077.59 148.016 1072.22C143.546 1048 124.288 1028.97 99.9568 1024.84C94.5121 1023.91 90 1019.52 90 1014V171C90 165.477 94.512 161.089 99.9568 160.163C124.563 155.981 143.981 136.563 148.163 111.957C149.089 106.512 153.477 102 159 102H690Z" fill="#5298CB"/>
<path d="M167.145 378.335C167.145 372.555 168.477 367.37 171.14 362.78C173.86 358.19 177.515 354.62 182.105 352.07C186.752 349.463 191.823 348.16 197.32 348.16C203.61 348.16 209.192 349.718 214.065 352.835C218.995 355.895 222.565 360.258 224.775 365.925H213.13C211.6 362.808 209.475 360.485 206.755 358.955C204.035 357.425 200.89 356.66 197.32 356.66C193.41 356.66 189.925 357.538 186.865 359.295C183.805 361.052 181.397 363.573 179.64 366.86C177.94 370.147 177.09 373.972 177.09 378.335C177.09 382.698 177.94 386.523 179.64 389.81C181.397 393.097 183.805 395.647 186.865 397.46C189.925 399.217 193.41 400.095 197.32 400.095C200.89 400.095 204.035 399.33 206.755 397.8C209.475 396.27 211.6 393.947 213.13 390.83H224.775C222.565 396.497 218.995 400.86 214.065 403.92C209.192 406.98 203.61 408.51 197.32 408.51C191.767 408.51 186.695 407.235 182.105 404.685C177.515 402.078 173.86 398.48 171.14 393.89C168.477 389.3 167.145 384.115 167.145 378.335ZM256.432 408.765C252.012 408.765 248.017 407.773 244.447 405.79C240.877 403.75 238.072 400.917 236.032 397.29C233.992 393.607 232.972 389.357 232.972 384.54C232.972 379.78 234.021 375.558 236.117 371.875C238.214 368.192 241.076 365.358 244.702 363.375C248.329 361.392 252.381 360.4 256.857 360.4C261.334 360.4 265.386 361.392 269.012 363.375C272.639 365.358 275.501 368.192 277.597 371.875C279.694 375.558 280.742 379.78 280.742 384.54C280.742 389.3 279.666 393.522 277.512 397.205C275.359 400.888 272.412 403.75 268.672 405.79C264.989 407.773 260.909 408.765 256.432 408.765ZM256.432 400.35C258.926 400.35 261.249 399.755 263.402 398.565C265.612 397.375 267.397 395.59 268.757 393.21C270.117 390.83 270.797 387.94 270.797 384.54C270.797 381.14 270.146 378.278 268.842 375.955C267.539 373.575 265.811 371.79 263.657 370.6C261.504 369.41 259.181 368.815 256.687 368.815C254.194 368.815 251.871 369.41 249.717 370.6C247.621 371.79 245.949 373.575 244.702 375.955C243.456 378.278 242.832 381.14 242.832 384.54C242.832 389.583 244.107 393.493 246.657 396.27C249.264 398.99 252.522 400.35 256.432 400.35ZM313.951 360.4C317.635 360.4 320.921 361.165 323.811 362.695C326.758 364.225 329.053 366.492 330.696 369.495C332.34 372.498 333.161 376.125 333.161 380.375V408H323.556V381.82C323.556 377.627 322.508 374.425 320.411 372.215C318.315 369.948 315.453 368.815 311.826 368.815C308.2 368.815 305.31 369.948 303.156 372.215C301.06 374.425 300.011 377.627 300.011 381.82V408H290.321V361.165H300.011V366.52C301.598 364.593 303.61 363.092 306.046 362.015C308.54 360.938 311.175 360.4 313.951 360.4ZM391.232 360.4C394.915 360.4 398.202 361.165 401.092 362.695C404.038 364.225 406.333 366.492 407.977 369.495C409.62 372.498 410.442 376.125 410.442 380.375V408H400.837V381.82C400.837 377.627 399.788 374.425 397.692 372.215C395.595 369.948 392.733 368.815 389.107 368.815C385.48 368.815 382.59 369.948 380.437 372.215C378.34 374.425 377.292 377.627 377.292 381.82V408H367.602V361.165H377.292V366.52C378.878 364.593 380.89 363.092 383.327 362.015C385.82 360.938 388.455 360.4 391.232 360.4ZM465.727 383.435C465.727 385.192 465.613 386.778 465.387 388.195H429.602C429.885 391.935 431.273 394.938 433.767 397.205C436.26 399.472 439.32 400.605 442.947 400.605C448.16 400.605 451.843 398.423 453.997 394.06H464.452C463.035 398.367 460.457 401.908 456.717 404.685C453.033 407.405 448.443 408.765 442.947 408.765C438.47 408.765 434.447 407.773 430.877 405.79C427.363 403.75 424.587 400.917 422.547 397.29C420.563 393.607 419.572 389.357 419.572 384.54C419.572 379.723 420.535 375.502 422.462 371.875C424.445 368.192 427.193 365.358 430.707 363.375C434.277 361.392 438.357 360.4 442.947 360.4C447.367 360.4 451.305 361.363 454.762 363.29C458.218 365.217 460.91 367.937 462.837 371.45C464.763 374.907 465.727 378.902 465.727 383.435ZM455.612 380.375C455.555 376.805 454.28 373.943 451.787 371.79C449.293 369.637 446.205 368.56 442.522 368.56C439.178 368.56 436.317 369.637 433.937 371.79C431.557 373.887 430.14 376.748 429.687 380.375H455.612ZM484.953 368.135C486.596 365.868 488.834 364.027 491.668 362.61C494.558 361.137 497.759 360.4 501.273 360.4C505.409 360.4 509.149 361.392 512.493 363.375C515.836 365.358 518.471 368.192 520.398 371.875C522.324 375.502 523.288 379.667 523.288 384.37C523.288 389.073 522.324 393.295 520.398 397.035C518.471 400.718 515.808 403.608 512.408 405.705C509.064 407.745 505.353 408.765 501.273 408.765C497.646 408.765 494.416 408.057 491.583 406.64C488.806 405.223 486.596 403.41 484.953 401.2V408H475.263V345.1H484.953V368.135ZM513.428 384.37C513.428 381.14 512.748 378.363 511.388 376.04C510.084 373.66 508.328 371.875 506.118 370.685C503.964 369.438 501.641 368.815 499.148 368.815C496.711 368.815 494.388 369.438 492.178 370.685C490.024 371.932 488.268 373.745 486.908 376.125C485.604 378.505 484.953 381.31 484.953 384.54C484.953 387.77 485.604 390.603 486.908 393.04C488.268 395.42 490.024 397.233 492.178 398.48C494.388 399.727 496.711 400.35 499.148 400.35C501.641 400.35 503.964 399.727 506.118 398.48C508.328 397.177 510.084 395.307 511.388 392.87C512.748 390.433 513.428 387.6 513.428 384.37ZM542.56 345.1V408H532.87V345.1H542.56ZM560.212 354.96C558.456 354.96 556.982 354.365 555.792 353.175C554.602 351.985 554.007 350.512 554.007 348.755C554.007 346.998 554.602 345.525 555.792 344.335C556.982 343.145 558.456 342.55 560.212 342.55C561.912 342.55 563.357 343.145 564.547 344.335C565.737 345.525 566.332 346.998 566.332 348.755C566.332 350.512 565.737 351.985 564.547 353.175C563.357 354.365 561.912 354.96 560.212 354.96ZM564.972 361.165V408H555.282V361.165H564.972ZM601.324 360.4C605.008 360.4 608.294 361.165 611.184 362.695C614.131 364.225 616.426 366.492 618.069 369.495C619.713 372.498 620.534 376.125 620.534 380.375V408H610.929V381.82C610.929 377.627 609.881 374.425 607.784 372.215C605.688 369.948 602.826 368.815 599.199 368.815C595.573 368.815 592.683 369.948 590.529 372.215C588.433 374.425 587.384 377.627 587.384 381.82V408H577.694V361.165H587.384V366.52C588.971 364.593 590.983 363.092 593.419 362.015C595.913 360.938 598.548 360.4 601.324 360.4ZM629.665 384.37C629.665 379.667 630.628 375.502 632.555 371.875C634.538 368.248 637.201 365.443 640.545 363.46C643.945 361.42 647.685 360.4 651.765 360.4C655.448 360.4 658.65 361.137 661.37 362.61C664.146 364.027 666.356 365.812 668 367.965V361.165H677.775V408H668V401.03C666.356 403.24 664.118 405.082 661.285 406.555C658.451 408.028 655.221 408.765 651.595 408.765C647.571 408.765 643.888 407.745 640.545 405.705C637.201 403.608 634.538 400.718 632.555 397.035C630.628 393.295 629.665 389.073 629.665 384.37ZM668 384.54C668 381.31 667.32 378.505 665.96 376.125C664.656 373.745 662.928 371.932 660.775 370.685C658.621 369.438 656.298 368.815 653.805 368.815C651.311 368.815 648.988 369.438 646.835 370.685C644.681 371.875 642.925 373.66 641.565 376.04C640.261 378.363 639.61 381.14 639.61 384.37C639.61 387.6 640.261 390.433 641.565 392.87C642.925 395.307 644.681 397.177 646.835 398.48C649.045 399.727 651.368 400.35 653.805 400.35C656.298 400.35 658.621 399.727 660.775 398.48C662.928 397.233 664.656 395.42 665.96 393.04C667.32 390.603 668 387.77 668 384.54Z" fill="black"/>
<mask id="path-10-outside-2_97_35" maskUnits="userSpaceOnUse" x="401" y="1006" width="45" height="32" fill="black">
<rect fill="white" x="401" y="1006" width="45" height="32"/>
<path d="M402.32 1015.04C402.48 1012.56 403.427 1010.63 405.16 1009.24C406.92 1007.85 409.16 1007.16 411.88 1007.16C413.747 1007.16 415.36 1007.49 416.72 1008.16C418.08 1008.83 419.107 1009.73 419.8 1010.88C420.493 1012.03 420.84 1013.32 420.84 1014.76C420.84 1016.41 420.4 1017.83 419.52 1019C418.64 1020.17 417.587 1020.96 416.36 1021.36V1021.52C417.933 1022 419.16 1022.88 420.04 1024.16C420.92 1025.41 421.36 1027.03 421.36 1029C421.36 1030.57 421 1031.97 420.28 1033.2C419.56 1034.43 418.493 1035.4 417.08 1036.12C415.667 1036.81 413.973 1037.16 412 1037.16C409.12 1037.16 406.747 1036.43 404.88 1034.96C403.04 1033.47 402.053 1031.33 401.92 1028.56H406.32C406.427 1029.97 406.973 1031.13 407.96 1032.04C408.947 1032.92 410.28 1033.36 411.96 1033.36C413.587 1033.36 414.84 1032.92 415.72 1032.04C416.6 1031.13 417.04 1029.97 417.04 1028.56C417.04 1026.69 416.44 1025.37 415.24 1024.6C414.067 1023.8 412.253 1023.4 409.8 1023.4H408.76V1019.64H409.84C412 1019.61 413.64 1019.25 414.76 1018.56C415.907 1017.87 416.48 1016.77 416.48 1015.28C416.48 1014 416.067 1012.99 415.24 1012.24C414.413 1011.47 413.24 1011.08 411.72 1011.08C410.227 1011.08 409.067 1011.47 408.24 1012.24C407.413 1012.99 406.92 1013.92 406.76 1015.04H402.32ZM426.07 1015.04C426.23 1012.56 427.177 1010.63 428.91 1009.24C430.67 1007.85 432.91 1007.16 435.63 1007.16C437.497 1007.16 439.11 1007.49 440.47 1008.16C441.83 1008.83 442.857 1009.73 443.55 1010.88C444.243 1012.03 444.59 1013.32 444.59 1014.76C444.59 1016.41 444.15 1017.83 443.27 1019C442.39 1020.17 441.337 1020.96 440.11 1021.36V1021.52C441.683 1022 442.91 1022.88 443.79 1024.16C444.67 1025.41 445.11 1027.03 445.11 1029C445.11 1030.57 444.75 1031.97 444.03 1033.2C443.31 1034.43 442.243 1035.4 440.83 1036.12C439.417 1036.81 437.723 1037.16 435.75 1037.16C432.87 1037.16 430.497 1036.43 428.63 1034.96C426.79 1033.47 425.803 1031.33 425.67 1028.56H430.07C430.177 1029.97 430.723 1031.13 431.71 1032.04C432.697 1032.92 434.03 1033.36 435.71 1033.36C437.337 1033.36 438.59 1032.92 439.47 1032.04C440.35 1031.13 440.79 1029.97 440.79 1028.56C440.79 1026.69 440.19 1025.37 438.99 1024.6C437.817 1023.8 436.003 1023.4 433.55 1023.4H432.51V1019.64H433.59C435.75 1019.61 437.39 1019.25 438.51 1018.56C439.657 1017.87 440.23 1016.77 440.23 1015.28C440.23 1014 439.817 1012.99 438.99 1012.24C438.163 1011.47 436.99 1011.08 435.47 1011.08C433.977 1011.08 432.817 1011.47 431.99 1012.24C431.163 1012.99 430.67 1013.92 430.51 1015.04H426.07Z"/>
</mask>
<path d="M402.32 1015.04C402.48 1012.56 403.427 1010.63 405.16 1009.24C406.92 1007.85 409.16 1007.16 411.88 1007.16C413.747 1007.16 415.36 1007.49 416.72 1008.16C418.08 1008.83 419.107 1009.73 419.8 1010.88C420.493 1012.03 420.84 1013.32 420.84 1014.76C420.84 1016.41 420.4 1017.83 419.52 1019C418.64 1020.17 417.587 1020.96 416.36 1021.36V1021.52C417.933 1022 419.16 1022.88 420.04 1024.16C420.92 1025.41 421.36 1027.03 421.36 1029C421.36 1030.57 421 1031.97 420.28 1033.2C419.56 1034.43 418.493 1035.4 417.08 1036.12C415.667 1036.81 413.973 1037.16 412 1037.16C409.12 1037.16 406.747 1036.43 404.88 1034.96C403.04 1033.47 402.053 1031.33 401.92 1028.56H406.32C406.427 1029.97 406.973 1031.13 407.96 1032.04C408.947 1032.92 410.28 1033.36 411.96 1033.36C413.587 1033.36 414.84 1032.92 415.72 1032.04C416.6 1031.13 417.04 1029.97 417.04 1028.56C417.04 1026.69 416.44 1025.37 415.24 1024.6C414.067 1023.8 412.253 1023.4 409.8 1023.4H408.76V1019.64H409.84C412 1019.61 413.64 1019.25 414.76 1018.56C415.907 1017.87 416.48 1016.77 416.48 1015.28C416.48 1014 416.067 1012.99 415.24 1012.24C414.413 1011.47 413.24 1011.08 411.72 1011.08C410.227 1011.08 409.067 1011.47 408.24 1012.24C407.413 1012.99 406.92 1013.92 406.76 1015.04H402.32ZM426.07 1015.04C426.23 1012.56 427.177 1010.63 428.91 1009.24C430.67 1007.85 432.91 1007.16 435.63 1007.16C437.497 1007.16 439.11 1007.49 440.47 1008.16C441.83 1008.83 442.857 1009.73 443.55 1010.88C444.243 1012.03 444.59 1013.32 444.59 1014.76C444.59 1016.41 444.15 1017.83 443.27 1019C442.39 1020.17 441.337 1020.96 440.11 1021.36V1021.52C441.683 1022 442.91 1022.88 443.79 1024.16C444.67 1025.41 445.11 1027.03 445.11 1029C445.11 1030.57 444.75 1031.97 444.03 1033.2C443.31 1034.43 442.243 1035.4 440.83 1036.12C439.417 1036.81 437.723 1037.16 435.75 1037.16C432.87 1037.16 430.497 1036.43 428.63 1034.96C426.79 1033.47 425.803 1031.33 425.67 1028.56H430.07C430.177 1029.97 430.723 1031.13 431.71 1032.04C432.697 1032.92 434.03 1033.36 435.71 1033.36C437.337 1033.36 438.59 1032.92 439.47 1032.04C440.35 1031.13 440.79 1029.97 440.79 1028.56C440.79 1026.69 440.19 1025.37 438.99 1024.6C437.817 1023.8 436.003 1023.4 433.55 1023.4H432.51V1019.64H433.59C435.75 1019.61 437.39 1019.25 438.51 1018.56C439.657 1017.87 440.23 1016.77 440.23 1015.28C440.23 1014 439.817 1012.99 438.99 1012.24C438.163 1011.47 436.99 1011.08 435.47 1011.08C433.977 1011.08 432.817 1011.47 431.99 1012.24C431.163 1012.99 430.67 1013.92 430.51 1015.04H426.07Z" fill="black"/>
<path d="M402.32 1015.04L402.021 1015.02L402 1015.34H402.32V1015.04ZM405.16 1009.24L404.974 1009L404.973 1009.01L405.16 1009.24ZM416.72 1008.16L416.588 1008.43L416.72 1008.16ZM419.8 1010.88L420.057 1010.72L419.8 1010.88ZM419.52 1019L419.76 1019.18V1019.18L419.52 1019ZM416.36 1021.36L416.267 1021.07L416.06 1021.14V1021.36H416.36ZM416.36 1021.52H416.06V1021.74L416.272 1021.81L416.36 1021.52ZM420.04 1024.16L419.793 1024.33L419.794 1024.33L420.04 1024.16ZM420.28 1033.2L420.021 1033.05L420.28 1033.2ZM417.08 1036.12L417.212 1036.39L417.216 1036.39L417.08 1036.12ZM404.88 1034.96L404.691 1035.19L404.695 1035.2L404.88 1034.96ZM401.92 1028.56V1028.26H401.605L401.62 1028.57L401.92 1028.56ZM406.32 1028.56L406.619 1028.54L406.598 1028.26H406.32V1028.56ZM407.96 1032.04L407.757 1032.26L407.76 1032.26L407.96 1032.04ZM415.72 1032.04L415.932 1032.25L415.935 1032.25L415.72 1032.04ZM415.24 1024.6L415.071 1024.85L415.077 1024.85L415.24 1024.6ZM408.76 1023.4H408.46V1023.7H408.76V1023.4ZM408.76 1019.64V1019.34H408.46V1019.64H408.76ZM409.84 1019.64V1019.94L409.844 1019.94L409.84 1019.64ZM414.76 1018.56L414.605 1018.3L414.602 1018.3L414.76 1018.56ZM415.24 1012.24L415.035 1012.46L415.039 1012.46L415.24 1012.24ZM408.24 1012.24L408.441 1012.46L408.445 1012.46L408.24 1012.24ZM406.76 1015.04V1015.34H407.02L407.057 1015.08L406.76 1015.04ZM402.32 1015.04L402.619 1015.06C402.775 1012.65 403.688 1010.8 405.347 1009.47L405.16 1009.24L404.973 1009.01C403.165 1010.45 402.185 1012.47 402.021 1015.02L402.32 1015.04ZM405.16 1009.24L405.346 1009.48C407.042 1008.14 409.213 1007.46 411.88 1007.46V1007.16V1006.86C409.108 1006.86 406.798 1007.57 404.974 1009L405.16 1009.24ZM411.88 1007.16V1007.46C413.711 1007.46 415.277 1007.79 416.588 1008.43L416.72 1008.16L416.852 1007.89C415.443 1007.2 413.782 1006.86 411.88 1006.86V1007.16ZM416.72 1008.16L416.588 1008.43C417.903 1009.07 418.883 1009.94 419.543 1011.04L419.8 1010.88L420.057 1010.72C419.33 1009.52 418.257 1008.58 416.852 1007.89L416.72 1008.16ZM419.8 1010.88L419.543 1011.04C420.206 1012.13 420.54 1013.37 420.54 1014.76H420.84H421.14C421.14 1013.27 420.78 1011.92 420.057 1010.72L419.8 1010.88ZM420.84 1014.76H420.54C420.54 1016.36 420.116 1017.71 419.28 1018.82L419.52 1019L419.76 1019.18C420.684 1017.95 421.14 1016.47 421.14 1014.76H420.84ZM419.52 1019L419.28 1018.82C418.432 1019.95 417.427 1020.7 416.267 1021.07L416.36 1021.36L416.453 1021.65C417.746 1021.22 418.848 1020.4 419.76 1019.18L419.52 1019ZM416.36 1021.36H416.06V1021.52H416.36H416.66V1021.36H416.36ZM416.36 1021.52L416.272 1021.81C417.785 1022.27 418.954 1023.11 419.793 1024.33L420.04 1024.16L420.287 1023.99C419.366 1022.65 418.082 1021.73 416.448 1021.23L416.36 1021.52ZM420.04 1024.16L419.794 1024.33C420.63 1025.52 421.06 1027.07 421.06 1029H421.36H421.66C421.66 1026.98 421.21 1025.3 420.286 1023.99L420.04 1024.16ZM421.36 1029H421.06C421.06 1030.53 420.711 1031.87 420.021 1033.05L420.28 1033.2L420.539 1033.35C421.289 1032.07 421.66 1030.62 421.66 1029H421.36ZM420.28 1033.2L420.021 1033.05C419.334 1034.22 418.312 1035.16 416.944 1035.85L417.08 1036.12L417.216 1036.39C418.674 1035.64 419.786 1034.63 420.539 1033.35L420.28 1033.2ZM417.08 1036.12L416.948 1035.85C415.585 1036.52 413.939 1036.86 412 1036.86V1037.16V1037.46C414.008 1037.46 415.749 1037.11 417.212 1036.39L417.08 1036.12ZM412 1037.16V1036.86C409.172 1036.86 406.869 1036.14 405.065 1034.72L404.88 1034.96L404.695 1035.2C406.625 1036.71 409.068 1037.46 412 1037.46V1037.16ZM404.88 1034.96L405.069 1034.73C403.307 1033.3 402.35 1031.25 402.22 1028.55L401.92 1028.56L401.62 1028.57C401.757 1031.42 402.773 1033.64 404.691 1035.19L404.88 1034.96ZM401.92 1028.56V1028.86H406.32V1028.56V1028.26H401.92V1028.56ZM406.32 1028.56L406.021 1028.58C406.133 1030.07 406.711 1031.3 407.757 1032.26L407.96 1032.04L408.163 1031.82C407.236 1030.97 406.72 1029.88 406.619 1028.54L406.32 1028.56ZM407.96 1032.04L407.76 1032.26C408.816 1033.21 410.227 1033.66 411.96 1033.66V1033.36V1033.06C410.333 1033.06 409.078 1032.63 408.16 1031.82L407.96 1032.04ZM411.96 1033.36V1033.66C413.641 1033.66 414.98 1033.2 415.932 1032.25L415.72 1032.04L415.508 1031.83C414.7 1032.64 413.533 1033.06 411.96 1033.06V1033.36ZM415.72 1032.04L415.935 1032.25C416.876 1031.28 417.34 1030.04 417.34 1028.56H417.04H416.74C416.74 1029.91 416.324 1030.99 415.505 1031.83L415.72 1032.04ZM417.04 1028.56H417.34C417.34 1026.63 416.714 1025.19 415.403 1024.35L415.24 1024.6L415.077 1024.85C416.166 1025.55 416.74 1026.76 416.74 1028.56H417.04ZM415.24 1024.6L415.409 1024.35C414.161 1023.5 412.275 1023.1 409.8 1023.1V1023.4V1023.7C412.232 1023.7 413.972 1024.1 415.071 1024.85L415.24 1024.6ZM409.8 1023.4V1023.1H408.76V1023.4V1023.7H409.8V1023.4ZM408.76 1023.4H409.06V1019.64H408.76H408.46V1023.4H408.76ZM408.76 1019.64V1019.94H409.84V1019.64V1019.34H408.76V1019.64ZM409.84 1019.64L409.844 1019.94C412.027 1019.91 413.731 1019.55 414.918 1018.82L414.76 1018.56L414.602 1018.3C413.549 1018.96 411.973 1019.31 409.836 1019.34L409.84 1019.64ZM414.76 1018.56L414.915 1018.82C416.163 1018.06 416.78 1016.86 416.78 1015.28H416.48H416.18C416.18 1016.68 415.65 1017.67 414.605 1018.3L414.76 1018.56ZM416.48 1015.28H416.78C416.78 1013.93 416.34 1012.83 415.441 1012.02L415.24 1012.24L415.039 1012.46C415.793 1013.14 416.18 1014.07 416.18 1015.28H416.48ZM415.24 1012.24L415.445 1012.02C414.546 1011.18 413.289 1010.78 411.72 1010.78V1011.08V1011.38C413.191 1011.38 414.281 1011.75 415.035 1012.46L415.24 1012.24ZM411.72 1011.08V1010.78C410.176 1010.78 408.933 1011.18 408.035 1012.02L408.24 1012.24L408.445 1012.46C409.2 1011.75 410.278 1011.38 411.72 1011.38V1011.08ZM408.24 1012.24L408.039 1012.02C407.159 1012.81 406.633 1013.81 406.463 1015L406.76 1015.04L407.057 1015.08C407.207 1014.03 407.667 1013.16 408.441 1012.46L408.24 1012.24ZM406.76 1015.04V1014.74H402.32V1015.04V1015.34H406.76V1015.04ZM426.07 1015.04L425.771 1015.02L425.75 1015.34H426.07V1015.04ZM428.91 1009.24L428.724 1009L428.723 1009.01L428.91 1009.24ZM440.47 1008.16L440.338 1008.43L440.47 1008.16ZM443.55 1010.88L443.807 1010.72L443.55 1010.88ZM443.27 1019L443.51 1019.18V1019.18L443.27 1019ZM440.11 1021.36L440.017 1021.07L439.81 1021.14V1021.36H440.11ZM440.11 1021.52H439.81V1021.74L440.022 1021.81L440.11 1021.52ZM443.79 1024.16L443.543 1024.33L443.544 1024.33L443.79 1024.16ZM444.03 1033.2L443.771 1033.05L444.03 1033.2ZM440.83 1036.12L440.962 1036.39L440.966 1036.39L440.83 1036.12ZM428.63 1034.96L428.441 1035.19L428.445 1035.2L428.63 1034.96ZM425.67 1028.56V1028.26H425.355L425.37 1028.57L425.67 1028.56ZM430.07 1028.56L430.369 1028.54L430.348 1028.26H430.07V1028.56ZM431.71 1032.04L431.507 1032.26L431.51 1032.26L431.71 1032.04ZM439.47 1032.04L439.682 1032.25L439.685 1032.25L439.47 1032.04ZM438.99 1024.6L438.821 1024.85L438.827 1024.85L438.99 1024.6ZM432.51 1023.4H432.21V1023.7H432.51V1023.4ZM432.51 1019.64V1019.34H432.21V1019.64H432.51ZM433.59 1019.64V1019.94L433.594 1019.94L433.59 1019.64ZM438.51 1018.56L438.355 1018.3L438.352 1018.3L438.51 1018.56ZM438.99 1012.24L438.785 1012.46L438.789 1012.46L438.99 1012.24ZM431.99 1012.24L432.191 1012.46L432.195 1012.46L431.99 1012.24ZM430.51 1015.04V1015.34H430.77L430.807 1015.08L430.51 1015.04ZM426.07 1015.04L426.369 1015.06C426.525 1012.65 427.438 1010.8 429.097 1009.47L428.91 1009.24L428.723 1009.01C426.915 1010.45 425.935 1012.47 425.771 1015.02L426.07 1015.04ZM428.91 1009.24L429.096 1009.48C430.792 1008.14 432.963 1007.46 435.63 1007.46V1007.16V1006.86C432.858 1006.86 430.548 1007.57 428.724 1009L428.91 1009.24ZM435.63 1007.16V1007.46C437.461 1007.46 439.027 1007.79 440.338 1008.43L440.47 1008.16L440.602 1007.89C439.193 1007.2 437.532 1006.86 435.63 1006.86V1007.16ZM440.47 1008.16L440.338 1008.43C441.653 1009.07 442.633 1009.94 443.293 1011.04L443.55 1010.88L443.807 1010.72C443.08 1009.52 442.007 1008.58 440.602 1007.89L440.47 1008.16ZM443.55 1010.88L443.293 1011.04C443.956 1012.13 444.29 1013.37 444.29 1014.76H444.59H444.89C444.89 1013.27 444.53 1011.92 443.807 1010.72L443.55 1010.88ZM444.59 1014.76H444.29C444.29 1016.36 443.866 1017.71 443.03 1018.82L443.27 1019L443.51 1019.18C444.434 1017.95 444.89 1016.47 444.89 1014.76H444.59ZM443.27 1019L443.03 1018.82C442.182 1019.95 441.177 1020.7 440.017 1021.07L440.11 1021.36L440.203 1021.65C441.496 1021.22 442.598 1020.4 443.51 1019.18L443.27 1019ZM440.11 1021.36H439.81V1021.52H440.11H440.41V1021.36H440.11ZM440.11 1021.52L440.022 1021.81C441.535 1022.27 442.704 1023.11 443.543 1024.33L443.79 1024.16L444.037 1023.99C443.116 1022.65 441.832 1021.73 440.198 1021.23L440.11 1021.52ZM443.79 1024.16L443.544 1024.33C444.38 1025.52 444.81 1027.07 444.81 1029H445.11H445.41C445.41 1026.98 444.96 1025.3 444.036 1023.99L443.79 1024.16ZM445.11 1029H444.81C444.81 1030.53 444.461 1031.87 443.771 1033.05L444.03 1033.2L444.289 1033.35C445.039 1032.07 445.41 1030.62 445.41 1029H445.11ZM444.03 1033.2L443.771 1033.05C443.084 1034.22 442.062 1035.16 440.694 1035.85L440.83 1036.12L440.966 1036.39C442.424 1035.64 443.536 1034.63 444.289 1033.35L444.03 1033.2ZM440.83 1036.12L440.698 1035.85C439.335 1036.52 437.689 1036.86 435.75 1036.86V1037.16V1037.46C437.758 1037.46 439.499 1037.11 440.962 1036.39L440.83 1036.12ZM435.75 1037.16V1036.86C432.922 1036.86 430.619 1036.14 428.815 1034.72L428.63 1034.96L428.445 1035.2C430.375 1036.71 432.818 1037.46 435.75 1037.46V1037.16ZM428.63 1034.96L428.819 1034.73C427.057 1033.3 426.1 1031.25 425.97 1028.55L425.67 1028.56L425.37 1028.57C425.507 1031.42 426.523 1033.64 428.441 1035.19L428.63 1034.96ZM425.67 1028.56V1028.86H430.07V1028.56V1028.26H425.67V1028.56ZM430.07 1028.56L429.771 1028.58C429.883 1030.07 430.461 1031.3 431.507 1032.26L431.71 1032.04L431.913 1031.82C430.986 1030.97 430.47 1029.88 430.369 1028.54L430.07 1028.56ZM431.71 1032.04L431.51 1032.26C432.566 1033.21 433.977 1033.66 435.71 1033.66V1033.36V1033.06C434.083 1033.06 432.828 1032.63 431.91 1031.82L431.71 1032.04ZM435.71 1033.36V1033.66C437.391 1033.66 438.73 1033.2 439.682 1032.25L439.47 1032.04L439.258 1031.83C438.45 1032.64 437.283 1033.06 435.71 1033.06V1033.36ZM439.47 1032.04L439.685 1032.25C440.626 1031.28 441.09 1030.04 441.09 1028.56H440.79H440.49C440.49 1029.91 440.074 1030.99 439.255 1031.83L439.47 1032.04ZM440.79 1028.56H441.09C441.09 1026.63 440.464 1025.19 439.153 1024.35L438.99 1024.6L438.827 1024.85C439.916 1025.55 440.49 1026.76 440.49 1028.56H440.79ZM438.99 1024.6L439.159 1024.35C437.911 1023.5 436.025 1023.1 433.55 1023.1V1023.4V1023.7C435.982 1023.7 437.722 1024.1 438.821 1024.85L438.99 1024.6ZM433.55 1023.4V1023.1H432.51V1023.4V1023.7H433.55V1023.4ZM432.51 1023.4H432.81V1019.64H432.51H432.21V1023.4H432.51ZM432.51 1019.64V1019.94H433.59V1019.64V1019.34H432.51V1019.64ZM433.59 1019.64L433.594 1019.94C435.777 1019.91 437.481 1019.55 438.668 1018.82L438.51 1018.56L438.352 1018.3C437.299 1018.96 435.723 1019.31 433.586 1019.34L433.59 1019.64ZM438.51 1018.56L438.665 1018.82C439.913 1018.06 440.53 1016.86 440.53 1015.28H440.23H439.93C439.93 1016.68 439.4 1017.67 438.355 1018.3L438.51 1018.56ZM440.23 1015.28H440.53C440.53 1013.93 440.09 1012.83 439.191 1012.02L438.99 1012.24L438.789 1012.46C439.543 1013.14 439.93 1014.07 439.93 1015.28H440.23ZM438.99 1012.24L439.195 1012.02C438.296 1011.18 437.039 1010.78 435.47 1010.78V1011.08V1011.38C436.941 1011.38 438.031 1011.75 438.785 1012.46L438.99 1012.24ZM435.47 1011.08V1010.78C433.925 1010.78 432.683 1011.18 431.785 1012.02L431.99 1012.24L432.195 1012.46C432.95 1011.75 434.028 1011.38 435.47 1011.38V1011.08ZM431.99 1012.24L431.789 1012.02C430.909 1012.81 430.383 1013.81 430.213 1015L430.51 1015.04L430.807 1015.08C430.957 1014.03 431.417 1013.16 432.191 1012.46L431.99 1012.24ZM430.51 1015.04V1014.74H426.07V1015.04V1015.34H430.51V1015.04Z" fill="black" mask="url(#path-10-outside-2_97_35)"/>
<path d="M311.07 197.975V214.355H281.46V227.375H303.3V243.02H281.46V272H260.88V197.975H311.07ZM347.142 272.735C341.262 272.735 335.977 271.51 331.287 269.06C326.667 266.61 323.027 263.11 320.367 258.56C317.707 254.01 316.377 248.655 316.377 242.495C316.377 236.405 317.707 231.085 320.367 226.535C323.097 221.985 326.772 218.485 331.392 216.035C336.082 213.585 341.367 212.36 347.247 212.36C353.127 212.36 358.377 213.585 362.997 216.035C367.687 218.485 371.362 221.985 374.022 226.535C376.752 231.085 378.117 236.405 378.117 242.495C378.117 248.585 376.752 253.94 374.022 258.56C371.362 263.11 367.687 266.61 362.997 269.06C358.307 271.51 353.022 272.735 347.142 272.735ZM347.142 254.885C350.012 254.885 352.392 253.835 354.282 251.735C356.242 249.565 357.222 246.485 357.222 242.495C357.222 238.505 356.242 235.46 354.282 233.36C352.392 231.26 350.047 230.21 347.247 230.21C344.447 230.21 342.102 231.26 340.212 233.36C338.322 235.46 337.377 238.505 337.377 242.495C337.377 246.555 338.287 249.635 340.107 251.735C341.927 253.835 344.272 254.885 347.142 254.885ZM408.225 212.36C412.215 212.36 415.68 213.165 418.62 214.775C421.63 216.385 423.94 218.555 425.55 221.285V213.095H446.13V271.37C446.13 276.9 445.08 281.87 442.98 286.28C440.88 290.76 437.59 294.33 433.11 296.99C428.7 299.65 423.1 300.98 416.31 300.98C407.21 300.98 399.93 298.845 394.47 294.575C389.01 290.305 385.895 284.495 385.125 277.145H405.39C405.81 279.035 406.86 280.505 408.54 281.555C410.22 282.605 412.39 283.13 415.05 283.13C422.05 283.13 425.55 279.21 425.55 271.37V263.81C423.94 266.54 421.63 268.71 418.62 270.32C415.68 271.93 412.215 272.735 408.225 272.735C403.535 272.735 399.265 271.51 395.415 269.06C391.635 266.61 388.625 263.11 386.385 258.56C384.215 253.94 383.13 248.585 383.13 242.495C383.13 236.405 384.215 231.085 386.385 226.535C388.625 221.985 391.635 218.485 395.415 216.035C399.265 213.585 403.535 212.36 408.225 212.36ZM425.55 242.495C425.55 238.715 424.5 235.74 422.4 233.57C420.37 231.4 417.85 230.315 414.84 230.315C411.76 230.315 409.205 231.4 407.175 233.57C405.145 235.67 404.13 238.645 404.13 242.495C404.13 246.275 405.145 249.285 407.175 251.525C409.205 253.695 411.76 254.78 414.84 254.78C417.85 254.78 420.37 253.695 422.4 251.525C424.5 249.355 425.55 246.345 425.55 242.495ZM479.593 212.36C483.583 212.36 487.048 213.165 489.988 214.775C492.998 216.385 495.308 218.555 496.918 221.285V213.095H517.498V271.37C517.498 276.9 516.448 281.87 514.348 286.28C512.248 290.76 508.958 294.33 504.478 296.99C500.068 299.65 494.468 300.98 487.678 300.98C478.578 300.98 471.298 298.845 465.838 294.575C460.378 290.305 457.263 284.495 456.493 277.145H476.758C477.178 279.035 478.228 280.505 479.908 281.555C481.588 282.605 483.758 283.13 486.418 283.13C493.418 283.13 496.918 279.21 496.918 271.37V263.81C495.308 266.54 492.998 268.71 489.988 270.32C487.048 271.93 483.583 272.735 479.593 272.735C474.903 272.735 470.633 271.51 466.783 269.06C463.003 266.61 459.993 263.11 457.753 258.56C455.583 253.94 454.498 248.585 454.498 242.495C454.498 236.405 455.583 231.085 457.753 226.535C459.993 221.985 463.003 218.485 466.783 216.035C470.633 213.585 474.903 212.36 479.593 212.36ZM496.918 242.495C496.918 238.715 495.868 235.74 493.768 233.57C491.738 231.4 489.218 230.315 486.208 230.315C483.128 230.315 480.573 231.4 478.543 233.57C476.513 235.67 475.498 238.645 475.498 242.495C475.498 246.275 476.513 249.285 478.543 251.525C480.573 253.695 483.128 254.78 486.208 254.78C489.218 254.78 491.738 253.695 493.768 251.525C495.868 249.355 496.918 246.345 496.918 242.495ZM592.645 213.095L555.265 300.035H532.9L546.97 269.48L522.82 213.095H545.71L558.1 246.485L570.07 213.095H592.645Z" fill="black"/>
<path d="M586.191 434.149C587.399 434.134 588.606 434.127 589.813 434.127C620.847 434.14 647.037 446.613 668.791 468.449C682.602 482.313 693.527 503.942 697.33 523.165C700.907 541.243 699.852 559.701 699.863 578.028L699.872 645.832L699.895 880.438C699.772 910.454 688.903 939.341 667.386 960.61C656.307 971.561 643.506 979.305 629.138 985.187C624.234 987.195 619.324 989.046 614.122 990.14C595.88 993.977 575.906 993.05 557.335 993.07L492.573 993.09L262.386 992.998C255.273 992.843 248.26 992.517 241.225 991.393C219.645 987.928 199.62 978.007 183.79 962.936C176.642 956.068 169.524 947.714 164.37 939.25C154.328 922.761 149.002 902.746 148.647 883.552C148.153 856.842 148.609 830.029 148.608 803.308L148.601 646.211L148.575 577.339C148.532 560.759 147.133 543.51 150.309 527.158C154.549 505.077 165.105 484.702 180.696 468.504C197.015 451.613 213.026 441.726 236.035 436.639C252.172 433.072 268.969 434.221 285.386 434.226L341.476 434.217L501.91 434.22C529.99 434.221 558.119 434.608 586.191 434.149Z" fill="black"/>
<path d="M264.281 445.565L493.611 445.702L556.319 445.687C567.061 445.672 577.831 445.43 588.568 445.613C613.926 446.046 640.125 456.98 657.785 475.325C673.726 491.884 684.391 513.106 686.848 536.044C687.762 544.574 687.551 553.207 687.521 561.773C687.519 570.55 687.453 579.328 687.325 588.104C683.694 587.423 680.063 586.665 676.388 586.257C676.368 582.831 676.125 579.497 675.255 576.171C672.654 566.235 666.064 556.78 657.093 551.604C645.539 544.94 635.023 545.788 622.637 549.076C620.37 544.137 618.704 539.278 615.519 534.783C607.792 523.882 594.918 515.058 581.662 512.814C567.622 510.437 551.803 513.226 540.143 521.595C530.5 528.516 520.999 540.331 517.178 551.589C515.704 555.932 515.096 560.51 514.365 565.021C508.123 565.04 501.452 566.671 496.038 569.82C488.005 574.494 481.902 583.244 479.495 592.134C469.28 591.908 465.616 593.191 456.027 595.211C456.963 594.537 457.891 593.852 458.813 593.158C465.481 588.107 470.016 580.933 471.086 572.54C472.103 564.56 469.042 555.423 464.106 549.173C456.57 539.63 446.296 539.259 435.152 537.921C433.716 535.582 432.299 533.208 430.642 531.016C423.387 521.422 413.73 517.376 402.106 515.747C401.013 510.37 399.931 504.984 397.933 499.853C392.349 485.513 378.997 471.934 364.922 465.771C348.858 458.738 329.141 457.265 312.743 463.843C300.751 468.653 289.263 477.627 282.206 488.538C279.759 492.321 277.954 496.336 276.193 500.464C271.263 498.82 266.657 497.118 261.44 496.524C247.369 494.919 232.47 497.519 221.271 506.6C210.045 515.702 203.871 529.338 202.397 543.552C192.858 544.13 184.638 544.966 177.46 551.971C171.918 557.38 169.063 564.872 168.98 572.559C168.905 579.442 170.565 586.015 175.535 591.014C179.118 594.618 184.168 597.003 189.114 597.996C197.102 599.599 205.738 598.481 213.845 598.466L260.204 598.489L385.005 598.79L425.848 598.876C432.689 598.883 439.691 598.47 446.509 598.958C444.276 600.957 442.176 602.885 440.553 605.426C437.803 609.729 436.831 614.819 438.005 619.812C439.115 624.531 441.609 628.491 445.839 631.025C448.955 632.892 452.308 633.787 455.911 634.048C466.525 634.815 478.806 634.29 489.63 634.286L554.977 634.203L634.707 634.138L658.611 634.131C668.434 634.156 677.848 634.682 687.464 632.22C687.685 644.415 687.533 656.641 687.539 668.838C687.543 677.438 687.835 686.149 687.39 694.735C670.689 689.187 653.914 683.441 637.765 676.412C629.969 673.018 622.098 669.234 614.587 665.248C598.667 656.799 583.829 647.196 565.017 647.623C540.389 648.18 520.429 662.225 501.581 676.448C496.889 679.989 491.257 683.436 487.2 687.666C473.1 682.461 459.925 676.527 447.143 668.59C438.077 662.961 429.193 655.439 419.252 651.493C404.795 645.753 391.154 648.383 376.856 653.146C373.125 654.388 369.312 655.543 365.695 657.09C348.911 642.985 328.374 621.84 307.923 613.92C302.847 611.955 296.85 610.158 291.441 609.665C262.779 607.051 237.155 630.622 214.267 644.734C196.954 655.428 178.943 664.95 160.357 673.236C160.279 671.149 160.216 669.062 160.167 666.975C159.635 643.112 160.06 619.165 160.019 595.292L159.954 561.65C159.942 552.657 159.683 543.611 160.877 534.675C163.817 512.677 174.456 491.817 189.804 475.875C201.705 463.511 219.799 453.167 236.424 448.894C245.571 446.544 254.865 445.716 264.281 445.565Z" fill="#E1E6E7"/>
<path d="M264.281 445.565L493.611 445.702L556.319 445.687C567.061 445.672 577.831 445.43 588.568 445.613C613.926 446.046 640.125 456.98 657.785 475.325C673.726 491.884 684.391 513.106 686.848 536.044C687.762 544.574 687.551 553.207 687.521 561.773C687.519 570.55 687.453 579.328 687.325 588.104C683.694 587.423 680.063 586.665 676.388 586.257C676.368 582.831 676.125 579.497 675.255 576.171C672.654 566.235 666.064 556.78 657.093 551.604C645.539 544.94 635.023 545.788 622.637 549.076C620.37 544.137 618.704 539.278 615.519 534.783C607.792 523.882 594.918 515.058 581.662 512.814C567.622 510.437 551.803 513.226 540.143 521.595C530.5 528.516 520.999 540.331 517.178 551.589C515.704 555.932 515.096 560.51 514.365 565.021C508.123 565.04 501.452 566.671 496.038 569.82C488.005 574.494 481.902 583.244 479.495 592.134C469.28 591.908 465.616 593.191 456.027 595.211C456.963 594.537 457.891 593.852 458.813 593.158C465.481 588.107 470.016 580.933 471.086 572.54C472.103 564.56 469.042 555.423 464.106 549.173C456.57 539.63 446.296 539.259 435.152 537.921C433.716 535.582 432.299 533.208 430.642 531.016C423.387 521.422 413.73 517.376 402.106 515.747C401.013 510.37 399.931 504.984 397.933 499.853C392.349 485.513 378.997 471.934 364.922 465.771C348.858 458.738 329.141 457.265 312.743 463.843C300.751 468.653 289.263 477.627 282.206 488.538C279.759 492.321 277.954 496.336 276.193 500.464C271.263 498.82 266.657 497.118 261.44 496.524C247.369 494.919 232.47 497.519 221.271 506.6C210.045 515.702 203.871 529.338 202.397 543.552C192.858 544.13 184.638 544.966 177.46 551.971C171.918 557.38 169.063 564.872 168.98 572.559C168.905 579.442 170.565 586.015 175.535 591.014C179.118 594.618 184.168 597.003 189.114 597.996C197.102 599.599 205.738 598.481 213.845 598.466L260.204 598.489L385.005 598.79L425.848 598.876C432.689 598.883 439.691 598.47 446.509 598.958C444.276 600.957 442.176 602.885 440.553 605.426C437.803 609.729 436.831 614.819 438.005 619.812C439.115 624.531 441.609 628.491 445.839 631.025C448.955 632.892 452.308 633.787 455.911 634.048C466.525 634.815 478.806 634.29 489.63 634.286L554.977 634.203L634.707 634.138L658.611 634.131C668.434 634.156 677.848 634.682 687.464 632.22C687.685 644.415 687.533 656.641 687.539 668.838C687.543 677.438 687.835 686.149 687.39 694.735C670.689 689.187 653.914 683.441 637.765 676.412C629.969 673.018 622.098 669.234 614.587 665.248C598.667 656.799 583.829 647.196 565.017 647.623C540.389 648.18 520.429 662.225 501.581 676.448C496.889 679.989 491.257 683.436 487.2 687.666C473.1 682.461 459.925 676.527 447.143 668.59C438.077 662.961 429.193 655.439 419.252 651.493C404.795 645.753 391.154 648.383 376.856 653.146C373.125 654.388 369.312 655.543 365.695 657.09C348.911 642.985 328.374 621.84 307.923 613.92C302.847 611.955 296.85 610.158 291.441 609.665C262.779 607.051 237.155 630.622 214.267 644.734C196.954 655.428 178.943 664.95 160.357 673.236C160.279 671.149 160.216 669.062 160.167 666.975C159.635 643.112 160.06 619.165 160.019 595.292L159.954 561.65C159.942 552.657 159.683 543.611 160.877 534.675C163.817 512.677 174.456 491.817 189.804 475.875C201.705 463.511 219.799 453.167 236.424 448.894C245.571 446.544 254.865 445.716 264.281 445.565Z" fill="#E1E6E7"/>
<path d="M615.316 832.788C638.622 830.985 665.438 834.628 687.651 841.811C687.79 849.35 687.699 856.909 687.694 864.451C687.688 877.367 688.578 899.055 683.079 910.791C682.235 906.462 680.815 902.408 677.92 899.004C674.515 894.998 669.831 892.642 664.599 892.224C656.682 891.59 650.313 894.506 644.459 899.567C643.813 895.242 642.678 890.812 640.73 886.879C637.656 880.673 631.136 874.866 624.518 872.735C620.234 871.356 615.967 871.908 612.031 873.969C602.29 879.069 597.181 889.615 594.041 899.633C589.269 894.941 583.104 892.233 576.383 892.181C571.414 892.142 566.728 893.95 563.212 897.49C557.142 903.601 556.278 912.899 556.344 921.046C549.937 918.144 542.484 916.8 535.689 919.216C530.467 921.072 526.351 924.972 524.03 929.986C520.801 936.966 521.794 944.197 524.367 951.177C520.774 951.509 517.093 951.854 513.638 952.946C508.904 954.442 504.908 957.314 502.623 961.832C499.296 968.41 500.438 975.386 502.694 982.071C495.742 981.991 488.783 982.052 481.831 982.047L349.558 981.969C350.303 980.804 351.101 979.728 352.021 978.698C357.448 972.627 363.329 966.819 368.972 960.936C378.697 950.796 388.402 940.573 399.078 931.414C423.148 910.764 449.248 893.46 476.948 878.083C486.338 872.871 495.764 867.62 505.433 862.94C539.739 846.337 577.105 834.836 615.316 832.788Z" fill="#6D9879"/>
<path d="M294.8 778.78C315.691 773.34 337.142 772.877 358.617 772.773C373.88 772.698 389.335 772.193 404.581 772.992C425.033 774.062 445.368 776.733 465.779 778.386C496.491 780.992 527.267 782.755 558.075 783.675C584.783 784.463 611.514 783.675 638.129 781.315C654.688 779.788 671.137 777.185 687.676 775.682L687.674 801.535L687.72 817.705C687.57 822.449 687.705 827.236 687.706 831.983C675.957 828.505 663.937 826.021 651.771 824.558C600.354 818.563 548.539 832.143 502.289 854.046C492.762 858.558 483.65 863.918 474.387 868.937C467.691 864.383 460.505 860.541 453.455 856.569C438.866 848.348 424.79 840.529 408.694 835.606C401.657 833.456 394.508 831.688 387.28 830.309C379.167 828.778 371.116 827.678 363.258 825.019C356.146 822.613 349.655 819.153 343.394 815.056C338.939 812.809 333.454 807.56 329.459 804.307C318.187 795.295 306.809 786.787 294.8 778.78Z" fill="#E1E6E7"/>
<path d="M343.395 815.056C363.323 811.08 389.451 811.326 409.693 813.663C419.305 814.773 428.874 816.644 438.487 817.589C455.315 819.243 474.715 819.613 491.701 819.663C506.655 819.741 521.6 818.933 536.458 817.244C553.229 815.22 569.852 812.12 586.598 810.011C601.474 808.137 616.982 807.123 631.961 807.472C647.027 807.864 661.993 810.035 676.549 813.941C680.192 814.883 684.478 815.756 687.72 817.705C687.57 822.448 687.705 827.235 687.706 831.983C675.957 828.505 663.937 826.021 651.771 824.557C600.354 818.563 548.539 832.143 502.29 854.046C492.763 858.557 483.65 863.917 474.387 868.937C467.691 864.383 460.505 860.541 453.456 856.569C438.866 848.347 424.79 840.528 408.694 835.606C401.657 833.456 394.508 831.687 387.28 830.309C379.167 828.777 371.116 827.678 363.258 825.019C356.146 822.613 349.655 819.153 343.395 815.056Z" fill="#E1E6E7"/>
<path d="M329.459 804.307C333.15 802.548 338.76 802.411 342.882 801.808C364.578 798.634 387.021 799.024 408.751 801.595C420.518 802.988 432.153 805.09 443.957 806.227C458.908 807.584 473.905 808.369 488.915 808.58C511.199 808.777 533.435 806.362 555.499 803.414C590.97 798.673 621.213 793.103 657.402 796.414C667.564 797.344 677.828 798.801 687.674 801.535L687.72 817.706C684.479 815.756 680.192 814.884 676.55 813.941C661.993 810.035 647.027 807.864 631.961 807.472C616.982 807.124 601.474 808.137 586.598 810.011C569.852 812.121 553.229 815.221 536.458 817.244C521.6 818.933 506.655 819.741 491.701 819.664C474.715 819.613 455.315 819.244 438.487 817.59C428.874 816.645 419.305 814.773 409.693 813.663C389.451 811.326 363.323 811.081 343.395 815.057C338.939 812.809 333.454 807.561 329.459 804.307Z" fill="#96A8A8"/>
<path d="M243.577 695.363C258.483 694.913 274.352 701.124 283.777 712.98C285.195 714.762 287.753 719.924 289.387 720.944C290.372 721.559 296.206 717.981 297.437 717.336C310.026 710.738 324.674 707.671 338.591 711.674C353.564 715.98 362.09 725.283 369.405 738.495C373.973 737.648 378.32 736.321 382.96 735.722C401.804 733.29 420.021 738.01 436.166 747.856C441.186 750.918 446.147 755.978 451.818 757.591C456.756 758.996 463.069 756.441 468.006 755.615C471.544 754.989 475.136 754.723 478.727 754.824C485.309 755.026 491.827 756.816 497.898 759.316C499.865 760.127 502.522 761.87 504.541 762.153C504.923 762.207 505.295 762.216 505.57 761.921C506.324 761.111 508.406 755.041 509.341 753.32C513.056 746.478 518.381 741.321 524.918 737.156C542.144 726.385 562.924 722.846 582.745 727.306C593.196 729.705 605.249 734.399 612.718 742.353C615.133 744.923 616.932 747.91 618.803 750.88C623.731 749.898 627.743 744.867 631.872 742.066C635.624 739.502 639.636 737.343 643.842 735.624C656.115 730.674 675.246 728.672 687.662 734.009L687.728 766.982C676.255 769.058 664.382 769.855 652.8 771.249C641.229 772.148 629.772 773.805 618.16 774.426C581.835 776.37 545.161 775.366 508.849 773.42C473.116 771.506 437.548 767.084 401.823 765.213C388.842 764.533 375.825 764.629 362.831 764.645C344.807 764.666 326.535 764.88 308.675 767.475C300.403 768.678 292.146 770.567 284.043 772.603C255.25 755.684 222.4 746.91 189.005 747.221C179.387 747.314 169.373 748.04 160.021 750.395C159.836 736.65 159.614 722.714 160.108 708.98C171.296 706.53 182.986 708.005 193.215 713.155C196.312 714.707 199.122 716.66 202.048 718.494C204 715.357 205.982 712.297 208.473 709.549C217.614 699.464 230.397 695.968 243.577 695.363Z" fill="#E1E6E7"/>
<path d="M182.49 756.382C231.588 753.225 273.112 772.481 311.578 801.363C324.501 811.067 336.139 822.587 350.892 829.589C362.281 834.994 374.164 836.6 386.368 838.962C393.267 840.298 400.214 842.03 406.9 844.195C429.095 851.384 445.811 863.444 466.183 873.699C458.672 878.427 450.749 882.501 443.225 887.248C430.475 895.292 418.36 904.308 406.446 913.528C404.247 915.279 402.063 917.019 399.736 918.6C393.191 914.638 387.269 909.725 380.607 905.872C353.541 890.214 322.784 880.503 292.212 874.503C290.874 871.408 289.609 868.14 287.292 865.62C283.654 861.663 278.896 861.127 273.856 860.983C273.473 855.999 272.723 851.266 269.896 847.019C267.428 843.3 263.577 840.718 259.198 839.848C253.118 838.665 246.603 840.624 241.585 844.063C241.114 842.162 240.645 840.253 240.042 838.389C236.967 828.879 231.504 819.466 222.298 814.815C218.097 812.694 213.73 812.221 209.214 813.749C200.393 816.735 194.064 825.252 190.079 833.249C186.091 829.301 181.112 826.122 175.339 825.973C169.16 825.814 164.301 829.33 160.029 833.375C159.378 820.24 159.639 807.002 159.568 793.852C159.507 782.48 159.068 770.985 159.489 759.623C166.688 757.241 174.959 756.896 182.49 756.382Z" fill="#6D9879"/>
<path d="M233.772 878.444C279.227 878.151 328.731 888.336 369.085 909.695C377.311 914.049 385.027 919.185 392.716 924.409C381.449 934.432 371.008 945.726 360.606 956.639C354.799 962.732 347.999 969 343.192 975.895C341.795 977.9 341.11 979.662 340.526 982.014L320.708 982.038L278.288 982.045C269.848 982.045 261.226 982.398 252.817 981.746C232.068 980.137 212.546 971.554 196.351 958.633C188.861 952.657 182.365 945.015 177.19 936.967C167.064 921.221 162.973 907.793 160.866 889.38C182.174 880.392 210.868 879.088 233.772 878.444Z" fill="#6D9879"/>
<path d="M159 556C159 495.249 208.249 446 269 446H578C638.752 446 688 495.249 688 556V812H159V556Z" fill="#D9D9D9" fill-opacity="0.6"/>
<path d="M283.475 618.388C292.128 616.776 302.475 620.76 309.936 624.754C319.77 630.021 328.75 637.238 337.325 644.314C352.377 656.733 366.529 670.169 381.103 683.135C385.405 686.963 393.404 695.417 399.021 696.191C400.255 696.362 401.777 696.258 402.738 695.364C403.334 694.811 403.499 694.116 403.48 693.329C403.451 692.07 402.467 690.725 401.651 689.843C399.752 687.792 397.27 686.037 395.176 684.159C387.755 677.5 379.612 670.901 372.787 663.69L373.072 663.57C377.403 661.78 382.053 660.515 386.555 659.237C413.827 651.489 423.171 663.969 444.476 677.205C455.348 683.959 467.1 689.089 478.884 693.998C478.573 694.275 478.258 694.548 477.94 694.817C473.255 698.771 467.945 702.368 462.813 705.722C457.494 709.198 424.419 729.421 419.703 730.053C415.234 730.65 409.862 728.593 405.51 727.67C403.084 727.155 400.654 726.842 398.184 726.627C390.219 725.806 381.981 727.226 374.268 729.114C366.648 717.631 357.508 709.021 344.38 704.274C331.731 699.702 316.97 699.941 304.258 704.166C300.119 705.542 296.194 707.428 292.256 709.284C289.825 706.265 287.325 703.396 284.353 700.891C271.677 690.203 254.673 685.298 238.238 686.743C223.661 688.024 208.898 694.742 199.376 706.004C186.933 699.86 173.525 696.59 159.732 699.246C159.643 694.138 159.646 689.029 159.739 683.92C165.162 681.042 170.797 678.532 176.298 675.802C186.025 670.982 195.623 665.906 205.083 660.581C212.018 656.696 218.82 652.58 225.479 648.238C242.887 636.709 262.373 620.97 283.475 618.388Z" fill="#96A8A8"/>
<path d="M564.048 656.574C570.893 656.321 577.431 657.528 583.847 659.907C591.007 662.562 597.528 666.527 604.163 670.246C609.086 673 614.104 675.583 619.206 677.989C641.53 688.449 664.392 696.719 687.633 704.835C687.668 711.137 687.656 717.439 687.596 723.741C684.054 722.743 680.434 722.047 676.775 721.659C661.582 720.09 645.272 723.104 632.129 731.015C628.457 733.225 625.2 735.86 621.874 738.545C617.83 733.929 613.092 730.124 607.82 726.987C588.903 715.736 563.893 713.649 542.784 718.924C538.951 719.773 535.102 721.471 531.531 723.096C516.583 729.896 509.52 737.425 500.305 750.546C490.196 746.929 478.459 745.292 467.823 746.929C463.946 747.526 458.118 750.148 454.352 749.251C450.558 748.347 444.041 743.223 440.267 741.037C436.836 739.051 433.275 737.281 429.821 735.331C442.353 728.949 456.273 721.221 467.727 713.118C479.681 704.663 491.334 695.724 503.05 686.943C521.805 672.885 539.575 658.29 564.048 656.574Z" fill="#96A8A8"/>
<path d="M619.388 881.084C619.921 881.047 620.454 881.023 620.989 881.015C624.04 880.978 626.981 882.321 629.112 884.472C636.459 891.886 637.082 908.395 637.148 918.301C638.789 917.283 640.36 916.698 642.204 916.202C643.87 914.448 645.192 912.323 646.736 910.452C650.644 905.714 656.165 901.687 662.4 900.906C664.966 900.585 667.616 900.92 669.691 902.574C674.211 906.177 674.664 914.052 674.406 919.348C674.329 920.918 673.858 923.39 674.243 924.883C674.516 925.944 675.571 926.406 676.445 926.882L676.799 927.071C676.592 929.04 675.149 931.055 674.162 932.746C669.686 940.416 664.676 946.834 658.416 953.106C651.448 960.086 643.667 965.518 634.956 970.096C613.061 981.602 599.295 982.02 575.377 982.038L543.081 982.047L512.297 982.071C511.193 979.995 510.334 977.8 509.736 975.527C508.893 972.242 508.686 967.725 510.579 964.761C513.438 960.285 522.959 960.3 527.691 960.56C531.92 960.793 535.561 961.812 539.799 960.93C537.275 958.278 535.392 955.595 533.882 952.242C531.315 946.54 529.61 939.174 532.074 933.143C533.176 930.446 535.07 928.218 537.851 927.198C546.875 923.887 556.963 931.686 564.804 935.227C566.247 935.879 568.1 936.949 569.654 936.364C569.683 935.015 568.598 933.987 568.087 932.77C566.943 930.053 566.142 926.97 565.642 924.063C564.645 918.26 564.492 909.108 568.185 904.146C569.629 902.205 571.731 901.255 574.089 900.965C582.297 899.956 588.399 905.961 592.896 912.085C594.246 913.926 595.625 916.413 597.452 917.763C598.025 918.188 598.034 918.235 598.763 918.103C600.855 915.16 600.877 909.71 601.742 906.173C603.149 900.414 605.339 893.573 608.6 888.611C611.189 884.67 614.724 882.039 619.388 881.084Z" fill="#376448"/>
<path d="M213.767 821.557C215.531 821.356 217.328 821.669 218.971 822.321C227.65 825.762 232.23 839.349 233.733 847.694C234.286 850.765 234.121 854.644 235.342 857.498C239.161 859.935 247.381 848.17 255.92 847.884C258.242 847.806 260.618 848.662 262.285 850.304C266.895 854.842 263.603 861.042 263.703 866.336C263.725 867.509 264.041 868.453 264.957 869.238C267.897 871.761 272.461 868.782 275.637 868.796C278.682 868.809 280.512 870.897 282.439 872.941C262.574 869.566 239.183 869.108 218.986 869.91C202.498 870.759 174.455 873.14 159.724 879.989C159.519 869.731 159.002 859.292 159.606 849.048C162.75 845.649 164.317 841.12 167.74 838.007C169.859 836.079 172.718 834.292 175.684 834.512C183.142 835.067 186.49 844.296 190.432 848.659C191.207 849.516 191.797 849.829 192.95 849.864C193.914 849.309 194.426 848.772 194.909 847.757C195.65 846.197 195.896 844.294 196.295 842.619C197.325 838.298 198.669 834.073 201.092 830.313C204.155 825.556 208.243 822.764 213.767 821.557Z" fill="#376448"/>
<path d="M571.471 521.312C577.119 521.342 582.42 522.084 587.7 524.163C598.404 528.377 607.777 537.298 612.421 547.826C614.392 552.295 615.629 557.055 617.584 561.552C622.016 559.622 626.229 557.771 631.018 556.874C639.012 555.377 647.625 556.587 654.409 561.279C663.511 567.454 668.323 578.256 666.828 589.152C666.632 590.671 665.391 594.401 665.771 595.743C665.999 596.548 671.79 595.482 672.784 595.397C677.755 594.973 683.316 596.305 687.482 599.021L687.602 621.612C683.994 622.977 680.249 624.2 676.4 624.618C671.672 625.134 666.84 624.947 662.087 624.947L639.885 624.932L567.28 624.939L493.23 624.95L470.115 624.981C465.827 624.988 461.416 625.214 457.149 624.85C454.972 624.664 453.043 624.276 451.217 622.996C449.077 621.496 447.445 619.215 447.006 616.612C446.59 614.142 447.263 611.498 448.753 609.496C453.927 602.544 470.28 600.733 478.361 601.474C480.662 601.685 484.722 603.278 486.739 602.945C487.344 602.44 487.617 602.041 487.801 601.286C488.176 599.747 488.044 598.073 488.194 596.502C488.438 593.93 490.014 590.738 491.201 588.473C496.098 579.133 505.563 574.584 515.964 575.704C518.216 575.946 521.529 577.146 523.688 576.487C524.033 574.338 523.538 571.888 523.439 569.705C522.894 557.568 529.048 545.38 537.046 536.592C547.277 525.349 556.3 522.082 571.471 521.312Z" fill="#96A8A8"/>
<path d="M330.347 470.193C345.131 468.615 359.97 472.641 371.929 481.476C383.555 490.21 390.659 502.247 392.99 516.595C393.512 519.806 393.285 522.967 393.723 526.124C394.27 526.606 394.636 526.728 395.382 526.708C402.197 526.533 405.829 525.275 412.677 528.238C421.085 531.877 426.106 539.993 429.34 548.189C431.7 547.9 434.071 547.623 436.449 547.554C443.245 547.355 450.514 549.524 455.46 554.321C459.327 558.072 461.719 563.455 461.756 568.859C461.793 574.283 459.509 579.425 455.7 583.247C452.534 586.423 448.801 588.026 444.4 588.687C438.896 589.514 433.002 589.122 427.436 589.123L399.797 589.128L302.365 589.117L229.588 589.12L206.175 589.141C201.752 589.143 197.203 589.349 192.799 588.96C190.904 588.792 188.994 588.285 187.212 587.626C183.72 586.336 181.532 584.345 180.023 580.888C177.936 576.106 177.962 569.418 180.028 564.631C184.392 554.519 196.062 553.244 205.74 553.412C207.998 553.451 211.397 554.007 213.453 553.215C213.5 552.019 212.573 550.817 212.271 549.635C211.683 547.332 211.825 544.506 211.969 542.153C212.561 532.433 218.227 521.644 225.513 515.264C236.739 505.435 255.976 502.715 269.718 508.275C271.707 509.079 278.969 513.595 280.465 513.511C281.293 513.464 281.574 513.278 281.955 512.57C283.057 510.52 283.561 507.862 284.362 505.651C286.559 499.592 289.567 493.858 293.727 488.913C302.99 478.091 316.15 471.363 330.347 470.193Z" fill="#E1E6E7"/>
</svg>
