<svg width="849" height="1183" viewBox="0 0 849 1183" fill="none" xmlns="http://www.w3.org/2000/svg">
<rect x="5" y="5" width="839" height="1173" rx="45" fill="white"/>
<rect x="5" y="5" width="839" height="1173" rx="45" stroke="black" stroke-width="10"/>
<circle cx="786.5" cy="1124.5" r="11.5" fill="black"/>
<circle cx="786.5" cy="59.5" r="11.5" fill="black"/>
<path d="M77 1124.5C77 1130.85 71.8513 1136 65.5 1136C59.1487 1136 54 1130.85 54 1124.5C54 1118.15 59.1487 1113 65.5 1113C71.8513 1113 77 1118.15 77 1124.5Z" fill="black"/>
<path d="M77 59.5C77 65.8513 71.8513 71 65.5 71C59.1487 71 54 65.8513 54 59.5C54 53.1487 59.1487 48 65.5 48C71.8513 48 77 53.1487 77 59.5Z" fill="black"/>
<mask id="path-6-inside-1_97_21" fill="white">
<path d="M708 48C713.523 48 717.934 52.4996 718.616 57.9801C723.122 94.1833 751.817 122.878 788.02 127.384C793.5 128.066 798 132.477 798 138V1046C798 1051.52 793.5 1055.93 788.02 1056.62C751.817 1061.12 723.122 1089.82 718.616 1126.02C717.934 1131.5 713.523 1136 708 1136H141C135.477 1136 131.066 1131.5 130.384 1126.02C125.878 1089.82 97.1833 1061.12 60.9801 1056.62C55.4996 1055.93 51 1051.52 51 1046V138C51 132.477 55.4996 128.066 60.9801 127.384C97.1833 122.878 125.878 94.1833 130.384 57.9801C131.066 52.4996 135.477 48 141 48H708Z"/>
</mask>
<path d="M708 48C713.523 48 717.934 52.4996 718.616 57.9801C723.122 94.1833 751.817 122.878 788.02 127.384C793.5 128.066 798 132.477 798 138V1046C798 1051.52 793.5 1055.93 788.02 1056.62C751.817 1061.12 723.122 1089.82 718.616 1126.02C717.934 1131.5 713.523 1136 708 1136H141C135.477 1136 131.066 1131.5 130.384 1126.02C125.878 1089.82 97.1833 1061.12 60.9801 1056.62C55.4996 1055.93 51 1051.52 51 1046V138C51 132.477 55.4996 128.066 60.9801 127.384C97.1833 122.878 125.878 94.1833 130.384 57.9801C131.066 52.4996 135.477 48 141 48H708Z" fill="#7047A3"/>
<path d="M130.384 1126.02L138.322 1125.03L130.384 1126.02ZM718.616 1126.02L710.678 1125.03L718.616 1126.02ZM788.02 1056.62L789.008 1064.56L788.02 1056.62ZM718.616 57.9801L726.555 56.9922L718.616 57.9801ZM718.616 57.9801L710.678 58.9681C715.635 98.8063 747.194 130.365 787.032 135.322L788.02 127.384L789.008 119.445C756.44 115.392 730.608 89.5603 726.555 56.9922L718.616 57.9801ZM798 138H790V1046H798H806V138H798ZM788.02 1056.62L787.032 1048.68C747.194 1053.64 715.635 1085.19 710.678 1125.03L718.616 1126.02L726.555 1127.01C730.608 1094.44 756.44 1068.61 789.008 1064.56L788.02 1056.62ZM708 1136V1128H141V1136V1144H708V1136ZM130.384 1126.02L138.322 1125.03C133.365 1085.19 101.806 1053.64 61.9681 1048.68L60.9801 1056.62L59.9922 1064.56C92.5603 1068.61 118.392 1094.44 122.445 1127.01L130.384 1126.02ZM51 1046H59V138H51H43V1046H51ZM60.9801 127.384L61.9681 135.322C101.806 130.365 133.365 98.8063 138.322 58.9681L130.384 57.9801L122.445 56.9922C118.392 89.5603 92.5603 115.392 59.9922 119.445L60.9801 127.384ZM141 48V56H708V48V40H141V48ZM130.384 57.9801L138.322 58.9681C138.438 58.0389 138.872 57.2306 139.427 56.6958C139.954 56.1887 140.494 56 141 56V48V40C130.84 40 123.547 48.1329 122.445 56.9922L130.384 57.9801ZM51 138H59C59 137.494 59.1887 136.954 59.6958 136.427C60.2306 135.872 61.0389 135.438 61.9681 135.322L60.9801 127.384L59.9922 119.445C51.1329 120.547 43 127.84 43 138H51ZM60.9801 1056.62L61.9681 1048.68C61.0389 1048.56 60.2306 1048.13 59.6958 1047.57C59.1887 1047.05 59 1046.51 59 1046H51H43C43 1056.16 51.1329 1063.45 59.9922 1064.56L60.9801 1056.62ZM141 1136V1128C140.494 1128 139.954 1127.81 139.427 1127.3C138.872 1126.77 138.438 1125.96 138.322 1125.03L130.384 1126.02L122.445 1127.01C123.547 1135.87 130.84 1144 141 1144V1136ZM718.616 1126.02L710.678 1125.03C710.562 1125.96 710.128 1126.77 709.573 1127.3C709.046 1127.81 708.506 1128 708 1128V1136V1144C718.16 1144 725.453 1135.87 726.555 1127.01L718.616 1126.02ZM798 1046H790C790 1046.51 789.811 1047.05 789.304 1047.57C788.769 1048.13 787.961 1048.56 787.032 1048.68L788.02 1056.62L789.008 1064.56C797.867 1063.45 806 1056.16 806 1046H798ZM788.02 127.384L787.032 135.322C787.961 135.438 788.769 135.872 789.304 136.427C789.811 136.954 790 137.494 790 138H798H806C806 127.84 797.867 120.547 789.008 119.445L788.02 127.384ZM718.616 57.9801L726.555 56.9922C725.453 48.1329 718.16 40 708 40V48V56C708.506 56 709.046 56.1887 709.573 56.6958C710.128 57.2306 710.562 58.0389 710.678 58.9681L718.616 57.9801Z" fill="black" mask="url(#path-6-inside-1_97_21)"/>
<path d="M690 102C695.523 102 699.911 106.512 700.837 111.957C705.019 136.563 724.437 155.981 749.043 160.163C754.488 161.089 759 165.477 759 171V1014C759 1019.52 754.488 1023.91 749.043 1024.84C724.711 1028.97 705.454 1048 700.984 1072.22C699.993 1077.59 695.633 1082 690.175 1082H158.825C153.367 1082 149.007 1077.59 148.016 1072.22C143.546 1048 124.288 1028.97 99.9568 1024.84C94.5121 1023.91 90 1019.52 90 1014V171C90 165.477 94.512 161.089 99.9568 160.163C124.563 155.981 143.981 136.563 148.163 111.957C149.089 106.512 153.477 102 159 102H690Z" fill="#B48FE1"/>
<path d="M269.065 348.925V408H259.375V348.925H269.065ZM305.417 360.4C309.1 360.4 312.387 361.165 315.277 362.695C318.224 364.225 320.519 366.492 322.162 369.495C323.805 372.498 324.627 376.125 324.627 380.375V408H315.022V381.82C315.022 377.627 313.974 374.425 311.877 372.215C309.78 369.948 306.919 368.815 303.292 368.815C299.665 368.815 296.775 369.948 294.622 372.215C292.525 374.425 291.477 377.627 291.477 381.82V408H281.787V361.165H291.477V366.52C293.064 364.593 295.075 363.092 297.512 362.015C300.005 360.938 302.64 360.4 305.417 360.4ZM355.092 399.33L368.352 361.165H378.637L360.787 408H349.227L331.462 361.165H341.832L355.092 399.33ZM390.892 354.96C389.135 354.96 387.662 354.365 386.472 353.175C385.282 351.985 384.687 350.512 384.687 348.755C384.687 346.998 385.282 345.525 386.472 344.335C387.662 343.145 389.135 342.55 390.892 342.55C392.592 342.55 394.037 343.145 395.227 344.335C396.417 345.525 397.012 346.998 397.012 348.755C397.012 350.512 396.417 351.985 395.227 353.175C394.037 354.365 392.592 354.96 390.892 354.96ZM395.652 361.165V408H385.962V361.165H395.652ZM451.299 383.435C451.299 385.192 451.186 386.778 450.959 388.195H415.174C415.457 391.935 416.846 394.938 419.339 397.205C421.832 399.472 424.892 400.605 428.519 400.605C433.732 400.605 437.416 398.423 439.569 394.06H450.024C448.607 398.367 446.029 401.908 442.289 404.685C438.606 407.405 434.016 408.765 428.519 408.765C424.042 408.765 420.019 407.773 416.449 405.79C412.936 403.75 410.159 400.917 408.119 397.29C406.136 393.607 405.144 389.357 405.144 384.54C405.144 379.723 406.107 375.502 408.034 371.875C410.017 368.192 412.766 365.358 416.279 363.375C419.849 361.392 423.929 360.4 428.519 360.4C432.939 360.4 436.877 361.363 440.334 363.29C443.791 365.217 446.482 367.937 448.409 371.45C450.336 374.907 451.299 378.902 451.299 383.435ZM441.184 380.375C441.127 376.805 439.852 373.943 437.359 371.79C434.866 369.637 431.777 368.56 428.094 368.56C424.751 368.56 421.889 369.637 419.509 371.79C417.129 373.887 415.712 376.748 415.259 380.375H441.184ZM470.525 367.965C471.942 365.585 473.812 363.743 476.135 362.44C478.515 361.08 481.32 360.4 484.55 360.4V370.43H482.085C478.288 370.43 475.398 371.393 473.415 373.32C471.488 375.247 470.525 378.59 470.525 383.35V408H460.835V361.165H470.525V367.965ZM517.087 360.4C520.77 360.4 524.057 361.165 526.947 362.695C529.894 364.225 532.189 366.492 533.832 369.495C535.475 372.498 536.297 376.125 536.297 380.375V408H526.692V381.82C526.692 377.627 525.644 374.425 523.547 372.215C521.45 369.948 518.589 368.815 514.962 368.815C511.335 368.815 508.445 369.948 506.292 372.215C504.195 374.425 503.147 377.627 503.147 381.82V408H493.457V361.165H503.147V366.52C504.734 364.593 506.745 363.092 509.182 362.015C511.675 360.938 514.31 360.4 517.087 360.4ZM568.972 408.765C564.552 408.765 560.557 407.773 556.987 405.79C553.417 403.75 550.612 400.917 548.572 397.29C546.532 393.607 545.512 389.357 545.512 384.54C545.512 379.78 546.561 375.558 548.657 371.875C550.754 368.192 553.616 365.358 557.242 363.375C560.869 361.392 564.921 360.4 569.397 360.4C573.874 360.4 577.926 361.392 581.552 363.375C585.179 365.358 588.041 368.192 590.137 371.875C592.234 375.558 593.282 379.78 593.282 384.54C593.282 389.3 592.206 393.522 590.052 397.205C587.899 400.888 584.952 403.75 581.212 405.79C577.529 407.773 573.449 408.765 568.972 408.765ZM568.972 400.35C571.466 400.35 573.789 399.755 575.942 398.565C578.152 397.375 579.937 395.59 581.297 393.21C582.657 390.83 583.337 387.94 583.337 384.54C583.337 381.14 582.686 378.278 581.382 375.955C580.079 373.575 578.351 371.79 576.197 370.6C574.044 369.41 571.721 368.815 569.227 368.815C566.734 368.815 564.411 369.41 562.257 370.6C560.161 371.79 558.489 373.575 557.242 375.955C555.996 378.278 555.372 381.14 555.372 384.54C555.372 389.583 556.647 393.493 559.197 396.27C561.804 398.99 565.062 400.35 568.972 400.35Z" fill="black"/>
<mask id="path-10-outside-2_97_21" maskUnits="userSpaceOnUse" x="402" y="1006" width="44" height="32" fill="black">
<rect fill="white" x="402" y="1006" width="44" height="32"/>
<path d="M405.92 1030.8C408.48 1028.59 410.493 1026.77 411.96 1025.36C413.453 1023.92 414.693 1022.43 415.68 1020.88C416.667 1019.33 417.16 1017.79 417.16 1016.24C417.16 1014.64 416.773 1013.39 416 1012.48C415.253 1011.57 414.067 1011.12 412.44 1011.12C410.867 1011.12 409.64 1011.63 408.76 1012.64C407.907 1013.63 407.453 1014.96 407.4 1016.64H403C403.08 1013.6 403.987 1011.28 405.72 1009.68C407.48 1008.05 409.707 1007.24 412.4 1007.24C415.307 1007.24 417.573 1008.04 419.2 1009.64C420.853 1011.24 421.68 1013.37 421.68 1016.04C421.68 1017.96 421.187 1019.81 420.2 1021.6C419.24 1023.36 418.08 1024.95 416.72 1026.36C415.387 1027.75 413.68 1029.36 411.6 1031.2L409.8 1032.8H422.48V1036.6H403.04V1033.28L405.92 1030.8ZM426.406 1015.04C426.566 1012.56 427.513 1010.63 429.246 1009.24C431.006 1007.85 433.246 1007.16 435.966 1007.16C437.833 1007.16 439.446 1007.49 440.806 1008.16C442.166 1008.83 443.193 1009.73 443.886 1010.88C444.579 1012.03 444.926 1013.32 444.926 1014.76C444.926 1016.41 444.486 1017.83 443.606 1019C442.726 1020.17 441.673 1020.96 440.446 1021.36V1021.52C442.019 1022 443.246 1022.88 444.126 1024.16C445.006 1025.41 445.446 1027.03 445.446 1029C445.446 1030.57 445.086 1031.97 444.366 1033.2C443.646 1034.43 442.579 1035.4 441.166 1036.12C439.753 1036.81 438.059 1037.16 436.086 1037.16C433.206 1037.16 430.833 1036.43 428.966 1034.96C427.126 1033.47 426.139 1031.33 426.006 1028.56H430.406C430.513 1029.97 431.059 1031.13 432.046 1032.04C433.033 1032.92 434.366 1033.36 436.046 1033.36C437.673 1033.36 438.926 1032.92 439.806 1032.04C440.686 1031.13 441.126 1029.97 441.126 1028.56C441.126 1026.69 440.526 1025.37 439.326 1024.6C438.153 1023.8 436.339 1023.4 433.886 1023.4H432.846V1019.64H433.926C436.086 1019.61 437.726 1019.25 438.846 1018.56C439.993 1017.87 440.566 1016.77 440.566 1015.28C440.566 1014 440.153 1012.99 439.326 1012.24C438.499 1011.47 437.326 1011.08 435.806 1011.08C434.313 1011.08 433.153 1011.47 432.326 1012.24C431.499 1012.99 431.006 1013.92 430.846 1015.04H426.406Z"/>
</mask>
<path d="M405.92 1030.8C408.48 1028.59 410.493 1026.77 411.96 1025.36C413.453 1023.92 414.693 1022.43 415.68 1020.88C416.667 1019.33 417.16 1017.79 417.16 1016.24C417.16 1014.64 416.773 1013.39 416 1012.48C415.253 1011.57 414.067 1011.12 412.44 1011.12C410.867 1011.12 409.64 1011.63 408.76 1012.64C407.907 1013.63 407.453 1014.96 407.4 1016.64H403C403.08 1013.6 403.987 1011.28 405.72 1009.68C407.48 1008.05 409.707 1007.24 412.4 1007.24C415.307 1007.24 417.573 1008.04 419.2 1009.64C420.853 1011.24 421.68 1013.37 421.68 1016.04C421.68 1017.96 421.187 1019.81 420.2 1021.6C419.24 1023.36 418.08 1024.95 416.72 1026.36C415.387 1027.75 413.68 1029.36 411.6 1031.2L409.8 1032.8H422.48V1036.6H403.04V1033.28L405.92 1030.8ZM426.406 1015.04C426.566 1012.56 427.513 1010.63 429.246 1009.24C431.006 1007.85 433.246 1007.16 435.966 1007.16C437.833 1007.16 439.446 1007.49 440.806 1008.16C442.166 1008.83 443.193 1009.73 443.886 1010.88C444.579 1012.03 444.926 1013.32 444.926 1014.76C444.926 1016.41 444.486 1017.83 443.606 1019C442.726 1020.17 441.673 1020.96 440.446 1021.36V1021.52C442.019 1022 443.246 1022.88 444.126 1024.16C445.006 1025.41 445.446 1027.03 445.446 1029C445.446 1030.57 445.086 1031.97 444.366 1033.2C443.646 1034.43 442.579 1035.4 441.166 1036.12C439.753 1036.81 438.059 1037.16 436.086 1037.16C433.206 1037.16 430.833 1036.43 428.966 1034.96C427.126 1033.47 426.139 1031.33 426.006 1028.56H430.406C430.513 1029.97 431.059 1031.13 432.046 1032.04C433.033 1032.92 434.366 1033.36 436.046 1033.36C437.673 1033.36 438.926 1032.92 439.806 1032.04C440.686 1031.13 441.126 1029.97 441.126 1028.56C441.126 1026.69 440.526 1025.37 439.326 1024.6C438.153 1023.8 436.339 1023.4 433.886 1023.4H432.846V1019.64H433.926C436.086 1019.61 437.726 1019.25 438.846 1018.56C439.993 1017.87 440.566 1016.77 440.566 1015.28C440.566 1014 440.153 1012.99 439.326 1012.24C438.499 1011.47 437.326 1011.08 435.806 1011.08C434.313 1011.08 433.153 1011.47 432.326 1012.24C431.499 1012.99 431.006 1013.92 430.846 1015.04H426.406Z" fill="black"/>
<path d="M405.92 1030.8L406.116 1031.03L406.116 1031.03L405.92 1030.8ZM411.96 1025.36L412.168 1025.58L412.168 1025.58L411.96 1025.36ZM416 1012.48L415.768 1012.67L415.772 1012.67L416 1012.48ZM408.76 1012.64L408.533 1012.44L408.533 1012.44L408.76 1012.64ZM407.4 1016.64V1016.94H407.691L407.7 1016.65L407.4 1016.64ZM403 1016.64L402.7 1016.63L402.692 1016.94H403V1016.64ZM405.72 1009.68L405.923 1009.9L405.924 1009.9L405.72 1009.68ZM419.2 1009.64L418.99 1009.85L418.991 1009.86L419.2 1009.64ZM420.2 1021.6L419.937 1021.45L419.937 1021.46L420.2 1021.6ZM416.72 1026.36L416.504 1026.15L416.504 1026.15L416.72 1026.36ZM411.6 1031.2L411.401 1030.98L411.401 1030.98L411.6 1031.2ZM409.8 1032.8L409.601 1032.58L409.011 1033.1H409.8V1032.8ZM422.48 1032.8H422.78V1032.5H422.48V1032.8ZM422.48 1036.6V1036.9H422.78V1036.6H422.48ZM403.04 1036.6H402.74V1036.9H403.04V1036.6ZM403.04 1033.28L402.844 1033.05L402.74 1033.14V1033.28H403.04ZM405.92 1030.8L406.116 1031.03C408.678 1028.81 410.696 1026.99 412.168 1025.58L411.96 1025.36L411.752 1025.14C410.291 1026.55 408.282 1028.36 405.724 1030.57L405.92 1030.8ZM411.96 1025.36L412.168 1025.58C413.676 1024.12 414.932 1022.61 415.933 1021.04L415.68 1020.88L415.427 1020.72C414.455 1022.24 413.23 1023.72 411.752 1025.14L411.96 1025.36ZM415.68 1020.88L415.933 1021.04C416.945 1019.46 417.46 1017.85 417.46 1016.24H417.16H416.86C416.86 1017.72 416.389 1019.21 415.427 1020.72L415.68 1020.88ZM417.16 1016.24H417.46C417.46 1014.59 417.062 1013.26 416.228 1012.29L416 1012.48L415.772 1012.67C416.485 1013.51 416.86 1014.69 416.86 1016.24H417.16ZM416 1012.48L416.232 1012.29C415.408 1011.29 414.12 1010.82 412.44 1010.82V1011.12V1011.42C414.013 1011.42 415.098 1011.86 415.768 1012.67L416 1012.48ZM412.44 1011.12V1010.82C410.796 1010.82 409.48 1011.35 408.533 1012.44L408.76 1012.64L408.987 1012.84C409.8 1011.9 410.937 1011.42 412.44 1011.42V1011.12ZM408.76 1012.64L408.533 1012.44C407.623 1013.5 407.155 1014.9 407.1 1016.63L407.4 1016.64L407.7 1016.65C407.752 1015.02 408.19 1013.76 408.987 1012.84L408.76 1012.64ZM407.4 1016.64V1016.34H403V1016.64V1016.94H407.4V1016.64ZM403 1016.64L403.3 1016.65C403.378 1013.66 404.266 1011.43 405.923 1009.9L405.72 1009.68L405.517 1009.46C403.708 1011.13 402.782 1013.54 402.7 1016.63L403 1016.64ZM405.72 1009.68L405.924 1009.9C407.621 1008.33 409.772 1007.54 412.4 1007.54V1007.24V1006.94C409.641 1006.94 407.339 1007.78 405.516 1009.46L405.72 1009.68ZM412.4 1007.24V1007.54C415.251 1007.54 417.433 1008.32 418.99 1009.85L419.2 1009.64L419.41 1009.43C417.713 1007.76 415.363 1006.94 412.4 1006.94V1007.24ZM419.2 1009.64L418.991 1009.86C420.577 1011.39 421.38 1013.44 421.38 1016.04H421.68H421.98C421.98 1013.31 421.13 1011.09 419.409 1009.42L419.2 1009.64ZM421.68 1016.04H421.38C421.38 1017.91 420.901 1019.71 419.937 1021.45L420.2 1021.6L420.463 1021.75C421.472 1019.92 421.98 1018.01 421.98 1016.04H421.68ZM420.2 1021.6L419.937 1021.46C418.989 1023.19 417.845 1024.76 416.504 1026.15L416.72 1026.36L416.936 1026.57C418.315 1025.14 419.491 1023.53 420.463 1021.74L420.2 1021.6ZM416.72 1026.36L416.504 1026.15C415.178 1027.53 413.478 1029.14 411.401 1030.98L411.6 1031.2L411.799 1031.42C413.882 1029.58 415.595 1027.96 416.936 1026.57L416.72 1026.36ZM411.6 1031.2L411.401 1030.98L409.601 1032.58L409.8 1032.8L409.999 1033.02L411.799 1031.42L411.6 1031.2ZM409.8 1032.8V1033.1H422.48V1032.8V1032.5H409.8V1032.8ZM422.48 1032.8H422.18V1036.6H422.48H422.78V1032.8H422.48ZM422.48 1036.6V1036.3H403.04V1036.6V1036.9H422.48V1036.6ZM403.04 1036.6H403.34V1033.28H403.04H402.74V1036.6H403.04ZM403.04 1033.28L403.236 1033.51L406.116 1031.03L405.92 1030.8L405.724 1030.57L402.844 1033.05L403.04 1033.28ZM426.406 1015.04L426.107 1015.02L426.086 1015.34H426.406V1015.04ZM429.246 1009.24L429.06 1009L429.059 1009.01L429.246 1009.24ZM440.806 1008.16L440.674 1008.43L440.806 1008.16ZM443.886 1010.88L444.143 1010.72L443.886 1010.88ZM443.606 1019L443.846 1019.18V1019.18L443.606 1019ZM440.446 1021.36L440.353 1021.07L440.146 1021.14V1021.36H440.446ZM440.446 1021.52H440.146V1021.74L440.358 1021.81L440.446 1021.52ZM444.126 1024.16L443.879 1024.33L443.88 1024.33L444.126 1024.16ZM444.366 1033.2L444.107 1033.05L444.366 1033.2ZM441.166 1036.12L441.298 1036.39L441.302 1036.39L441.166 1036.12ZM428.966 1034.96L428.777 1035.19L428.781 1035.2L428.966 1034.96ZM426.006 1028.56V1028.26H425.691L425.706 1028.57L426.006 1028.56ZM430.406 1028.56L430.705 1028.54L430.684 1028.26H430.406V1028.56ZM432.046 1032.04L431.843 1032.26L431.846 1032.26L432.046 1032.04ZM439.806 1032.04L440.018 1032.25L440.021 1032.25L439.806 1032.04ZM439.326 1024.6L439.157 1024.85L439.163 1024.85L439.326 1024.6ZM432.846 1023.4H432.546V1023.7H432.846V1023.4ZM432.846 1019.64V1019.34H432.546V1019.64H432.846ZM433.926 1019.64V1019.94L433.93 1019.94L433.926 1019.64ZM438.846 1018.56L438.691 1018.3L438.688 1018.3L438.846 1018.56ZM439.326 1012.24L439.121 1012.46L439.125 1012.46L439.326 1012.24ZM432.326 1012.24L432.527 1012.46L432.531 1012.46L432.326 1012.24ZM430.846 1015.04V1015.34H431.106L431.143 1015.08L430.846 1015.04ZM426.406 1015.04L426.705 1015.06C426.861 1012.65 427.774 1010.8 429.433 1009.47L429.246 1009.24L429.059 1009.01C427.251 1010.45 426.271 1012.47 426.107 1015.02L426.406 1015.04ZM429.246 1009.24L429.432 1009.48C431.128 1008.14 433.298 1007.46 435.966 1007.46V1007.16V1006.86C433.193 1006.86 430.884 1007.57 429.06 1009L429.246 1009.24ZM435.966 1007.16V1007.46C437.797 1007.46 439.363 1007.79 440.674 1008.43L440.806 1008.16L440.938 1007.89C439.528 1007.2 437.868 1006.86 435.966 1006.86V1007.16ZM440.806 1008.16L440.674 1008.43C441.989 1009.07 442.969 1009.94 443.629 1011.04L443.886 1010.88L444.143 1010.72C443.416 1009.52 442.343 1008.58 440.938 1007.89L440.806 1008.16ZM443.886 1010.88L443.629 1011.04C444.292 1012.13 444.626 1013.37 444.626 1014.76H444.926H445.226C445.226 1013.27 444.866 1011.92 444.143 1010.72L443.886 1010.88ZM444.926 1014.76H444.626C444.626 1016.36 444.202 1017.71 443.366 1018.82L443.606 1019L443.846 1019.18C444.77 1017.95 445.226 1016.47 445.226 1014.76H444.926ZM443.606 1019L443.366 1018.82C442.518 1019.95 441.513 1020.7 440.353 1021.07L440.446 1021.36L440.539 1021.65C441.832 1021.22 442.934 1020.4 443.846 1019.18L443.606 1019ZM440.446 1021.36H440.146V1021.52H440.446H440.746V1021.36H440.446ZM440.446 1021.52L440.358 1021.81C441.871 1022.27 443.04 1023.11 443.879 1024.33L444.126 1024.16L444.373 1023.99C443.452 1022.65 442.168 1021.73 440.533 1021.23L440.446 1021.52ZM444.126 1024.16L443.88 1024.33C444.716 1025.52 445.146 1027.07 445.146 1029H445.446H445.746C445.746 1026.98 445.296 1025.3 444.371 1023.99L444.126 1024.16ZM445.446 1029H445.146C445.146 1030.53 444.797 1031.87 444.107 1033.05L444.366 1033.2L444.625 1033.35C445.374 1032.07 445.746 1030.62 445.746 1029H445.446ZM444.366 1033.2L444.107 1033.05C443.419 1034.22 442.398 1035.16 441.03 1035.85L441.166 1036.12L441.302 1036.39C442.76 1035.64 443.872 1034.63 444.625 1033.35L444.366 1033.2ZM441.166 1036.12L441.034 1035.85C439.671 1036.52 438.025 1036.86 436.086 1036.86V1037.16V1037.46C438.094 1037.46 439.835 1037.11 441.298 1036.39L441.166 1036.12ZM436.086 1037.16V1036.86C433.258 1036.86 430.955 1036.14 429.151 1034.72L428.966 1034.96L428.781 1035.2C430.711 1036.71 433.153 1037.46 436.086 1037.46V1037.16ZM428.966 1034.96L429.155 1034.73C427.393 1033.3 426.436 1031.25 426.306 1028.55L426.006 1028.56L425.706 1028.57C425.843 1031.42 426.859 1033.64 428.777 1035.19L428.966 1034.96ZM426.006 1028.56V1028.86H430.406V1028.56V1028.26H426.006V1028.56ZM430.406 1028.56L430.107 1028.58C430.219 1030.07 430.797 1031.3 431.843 1032.26L432.046 1032.04L432.249 1031.82C431.322 1030.97 430.806 1029.88 430.705 1028.54L430.406 1028.56ZM432.046 1032.04L431.846 1032.26C432.902 1033.21 434.313 1033.66 436.046 1033.66V1033.36V1033.06C434.419 1033.06 433.164 1032.63 432.246 1031.82L432.046 1032.04ZM436.046 1033.36V1033.66C437.727 1033.66 439.066 1033.2 440.018 1032.25L439.806 1032.04L439.594 1031.83C438.786 1032.64 437.618 1033.06 436.046 1033.06V1033.36ZM439.806 1032.04L440.021 1032.25C440.962 1031.28 441.426 1030.04 441.426 1028.56H441.126H440.826C440.826 1029.91 440.41 1030.99 439.591 1031.83L439.806 1032.04ZM441.126 1028.56H441.426C441.426 1026.63 440.8 1025.19 439.488 1024.35L439.326 1024.6L439.163 1024.85C440.252 1025.55 440.826 1026.76 440.826 1028.56H441.126ZM439.326 1024.6L439.495 1024.35C438.247 1023.5 436.361 1023.1 433.886 1023.1V1023.4V1023.7C436.318 1023.7 438.058 1024.1 439.157 1024.85L439.326 1024.6ZM433.886 1023.4V1023.1H432.846V1023.4V1023.7H433.886V1023.4ZM432.846 1023.4H433.146V1019.64H432.846H432.546V1023.4H432.846ZM432.846 1019.64V1019.94H433.926V1019.64V1019.34H432.846V1019.64ZM433.926 1019.64L433.93 1019.94C436.113 1019.91 437.817 1019.55 439.004 1018.82L438.846 1018.56L438.688 1018.3C437.635 1018.96 436.059 1019.31 433.922 1019.34L433.926 1019.64ZM438.846 1018.56L439.001 1018.82C440.249 1018.06 440.866 1016.86 440.866 1015.28H440.566H440.266C440.266 1016.68 439.736 1017.67 438.691 1018.3L438.846 1018.56ZM440.566 1015.28H440.866C440.866 1013.93 440.426 1012.83 439.527 1012.02L439.326 1012.24L439.125 1012.46C439.879 1013.14 440.266 1014.07 440.266 1015.28H440.566ZM439.326 1012.24L439.531 1012.02C438.632 1011.18 437.375 1010.78 435.806 1010.78V1011.08V1011.38C437.276 1011.38 438.367 1011.75 439.121 1012.46L439.326 1012.24ZM435.806 1011.08V1010.78C434.261 1010.78 433.019 1011.18 432.121 1012.02L432.326 1012.24L432.531 1012.46C433.286 1011.75 434.364 1011.38 435.806 1011.38V1011.08ZM432.326 1012.24L432.125 1012.02C431.245 1012.81 430.719 1013.81 430.549 1015L430.846 1015.04L431.143 1015.08C431.293 1014.03 431.753 1013.16 432.527 1012.46L432.326 1012.24ZM430.846 1015.04V1014.74H426.406V1015.04V1015.34H430.846V1015.04Z" fill="black" mask="url(#path-10-outside-2_97_21)"/>
<path d="M348.145 197.975L329.98 272H304.675L294.49 226.64L284.095 272H258.79L240.835 197.975H263.095L271.705 248.585L283.36 197.975H305.935L317.275 248.165L325.885 197.975H348.145ZM367.273 207.635C363.633 207.635 360.693 206.655 358.453 204.695C356.283 202.665 355.198 200.145 355.198 197.135C355.198 194.055 356.283 191.5 358.453 189.47C360.693 187.44 363.633 186.425 367.273 186.425C370.843 186.425 373.713 187.44 375.883 189.47C378.123 191.5 379.243 194.055 379.243 197.135C379.243 200.145 378.123 202.665 375.883 204.695C373.713 206.655 370.843 207.635 367.273 207.635ZM377.458 213.095V272H356.878V213.095H377.458ZM427.713 212.57C434.503 212.57 439.893 214.845 443.883 219.395C447.873 223.875 449.868 229.965 449.868 237.665V272H429.288V240.395C429.288 237.035 428.413 234.41 426.663 232.52C424.913 230.56 422.568 229.58 419.628 229.58C416.548 229.58 414.133 230.56 412.383 232.52C410.633 234.41 409.758 237.035 409.758 240.395V272H389.178V213.095H409.758V221.495C411.578 218.835 414.028 216.7 417.108 215.09C420.188 213.41 423.723 212.57 427.713 212.57ZM495.915 254.465V272H486.99C471.94 272 464.415 264.545 464.415 249.635V230.21H457.17V213.095H464.415V198.815H485.1V213.095H495.81V230.21H485.1V249.95C485.1 251.56 485.45 252.715 486.15 253.415C486.92 254.115 488.18 254.465 489.93 254.465H495.915ZM561.635 241.865C561.635 243.475 561.53 245.085 561.32 246.695H522.365C522.575 249.915 523.45 252.33 524.99 253.94C526.6 255.48 528.63 256.25 531.08 256.25C534.51 256.25 536.96 254.71 538.43 251.63H560.375C559.465 255.69 557.68 259.33 555.02 262.55C552.43 265.7 549.14 268.185 545.15 270.005C541.16 271.825 536.75 272.735 531.92 272.735C526.11 272.735 520.93 271.51 516.38 269.06C511.9 266.61 508.365 263.11 505.775 258.56C503.255 254.01 501.995 248.655 501.995 242.495C501.995 236.335 503.255 231.015 505.775 226.535C508.295 221.985 511.795 218.485 516.275 216.035C520.825 213.585 526.04 212.36 531.92 212.36C537.73 212.36 542.875 213.55 547.355 215.93C551.835 218.31 555.335 221.74 557.855 226.22C560.375 230.63 561.635 235.845 561.635 241.865ZM540.635 236.72C540.635 234.2 539.795 232.24 538.115 230.84C536.435 229.37 534.335 228.635 531.815 228.635C529.295 228.635 527.23 229.335 525.62 230.735C524.01 232.065 522.96 234.06 522.47 236.72H540.635ZM590.637 223.49C592.947 220.13 595.747 217.47 599.037 215.51C602.327 213.55 605.862 212.57 609.642 212.57V234.515H603.867C599.387 234.515 596.062 235.39 593.892 237.14C591.722 238.89 590.637 241.935 590.637 246.275V272H570.057V213.095H590.637V223.49Z" fill="black"/>
<path d="M423.851 429C429.802 429.171 435.503 429.872 441.086 432.053C450.449 435.71 458.453 442.932 462.421 452.24C466.984 462.943 465.766 474.702 461.526 485.245C494.458 495.36 521.028 518.789 537.742 548.624C540.456 553.489 542.932 558.484 545.159 563.59C546.573 566.849 547.753 570.358 549.437 573.48C550.456 575.37 552.558 576.965 554.058 578.5C556.703 581.205 558.856 583.898 560.631 587.252C564.665 594.872 565.843 604.679 563.206 612.951C560.739 620.693 555.377 625.942 548.308 629.617C548.598 631.151 548.87 632.688 549.121 634.229C554.069 665.039 546.659 696.556 528.501 721.933C534.474 727.1 538.927 732.107 542.532 739.173C545.659 734.143 549.265 729.344 552.602 724.448C555.092 720.793 557.342 716.98 559.871 713.354C556.232 712.149 552.948 710.181 551.013 706.746C549.578 704.199 549.346 701.426 550.202 698.646C553.225 688.823 586.835 654.543 596.538 649.294C599.555 647.662 603.139 647.099 606.44 648.186C615.927 651.312 650.457 686.24 655.232 696.516C656.43 699.094 656.484 702.148 655.487 704.801C653.885 709.062 650.326 711.371 646.372 713.138C651.113 719.286 655.231 726.148 659.558 732.614C665.749 741.867 674.18 752.52 678.195 762.863C680.066 767.684 680.498 773.229 678.29 778.026C675.982 783.041 671.757 785.682 666.786 787.509C672.663 796.474 678.835 805.292 684.961 814.089C689.056 819.968 694.128 826.131 696.907 832.736C698.857 837.356 698.89 842.562 697 847.207C694.957 852.109 690.753 856.128 685.828 858.079C675.336 862.236 663.074 857.472 653.394 853.252C653.109 855.805 652.461 858.436 651.268 860.725C649.256 864.669 645.7 867.603 641.445 868.828C634.032 871.037 626.546 868.193 620.083 864.642L620.141 908.317C630.209 904.863 640.886 903.55 651.491 904.46C668.301 906.021 683.77 914.299 694.395 927.42C698.34 932.23 704.21 940.355 703.38 946.965C703.066 949.467 701.795 951.551 699.814 953.089C698.316 954.251 696.56 954.799 694.685 954.936C691.247 955.187 687.704 955.033 684.257 955.031L665.579 955.022H607.158L552.707 955.028C541.506 955.029 530.082 955.538 518.934 954.397C514.061 957.32 509.485 960.645 504.466 963.359C477.116 978.143 449.587 983.64 418.71 983.215C387.535 982.915 355.532 971.535 329.556 954.741C311.928 955.09 294.296 955.184 276.665 955.023L198.134 955.033L165.251 955.035C159.656 955.035 148.125 955.751 143.359 954.359C141.475 953.808 139.741 952.183 138.812 950.485C137.176 947.496 137.466 943.996 138.484 940.862C142.479 928.573 156.015 916.082 167.351 910.465C185.169 901.636 204.105 902.773 222.488 909.03C222.806 894.508 222.478 879.933 222.542 865.403C218.669 867.521 214.303 869.117 209.932 869.785C204.873 870.559 199.769 869.883 195.602 866.67C191.387 863.419 189.751 858.949 189.011 853.904C183.814 856.179 178.56 858.207 172.969 859.296C165.907 860.671 158.435 860.329 152.339 856.14C148.368 853.385 145.656 849.163 144.8 844.406C144.238 841.203 144.511 837.487 145.658 834.437C148.132 827.863 153.554 821.497 157.54 815.705L175.792 789.245C174.057 788.635 172.403 787.892 170.85 786.904C166.794 784.323 163.771 780.57 162.763 775.786C161.963 771.986 162.484 768.083 163.832 764.472C167.099 755.714 173.728 747.496 178.949 739.785L195.909 714.43C195.427 714.192 194.952 713.94 194.485 713.674C191.246 711.83 188.355 709.145 187.4 705.418C186.616 702.352 187.304 699.843 188.823 697.168C194.297 687.531 229.141 651.592 238.894 649.205C242.579 648.303 245.866 649.126 249.038 651.07C259.001 657.181 293.442 690.39 295.729 700.899C296.341 703.711 295.658 706.603 294.087 708.985C292.297 711.697 289.627 713.6 286.447 714.254C292.211 723.484 298.383 732.291 304.687 741.158C308.56 733.463 312.911 727.723 319.432 722.062C317.935 720.141 316.502 718.172 315.134 716.158C298.766 691.81 293.18 658.179 298.864 629.581C298.611 629.455 298.356 629.329 298.107 629.195C291.407 625.6 286.68 620.149 284.516 612.802C281.349 602.046 284.317 589.839 291.468 581.319C293.582 578.8 296.698 576.657 298.323 573.82C300.18 570.581 301.341 566.714 302.79 563.265C305.033 557.921 307.569 552.706 310.387 547.642C326.807 517.889 353.692 494.517 386.625 484.989C384.686 480.09 383.361 475.154 383.102 469.873C382.59 459.442 385.698 449.451 392.848 441.715C401.227 432.65 411.859 429.49 423.851 429Z" fill="black"/>
<path d="M307.205 768.778C308.241 769.813 309.295 770.828 310.369 771.824C336.568 796.079 379.578 802.93 414.021 803.619C422.152 803.781 430.209 803.356 438.328 803.03C439.234 821.874 437.502 840.698 438.944 859.51C439.216 863.057 439.228 866.905 440.027 870.366C440.555 872.653 441.438 874.752 442.926 876.587C445.308 879.542 448.795 881.394 452.576 881.711C457.126 882.085 460.751 880.241 464.145 877.446C466.868 879.545 469.835 881.044 473.342 881.179C477.953 881.355 481.304 879.178 484.548 876.195C484.944 876.533 485.347 876.861 485.76 877.177C488.748 879.477 492.996 880.461 496.714 879.835C500.291 879.232 503.568 876.976 505.643 874.034C509.203 868.984 508.364 862.734 509.131 856.941C509.626 853.208 510.387 849.52 510.816 845.773C512.945 827.163 513.395 807.958 510.539 789.404C521.989 784.865 532.206 778.252 540.383 768.985C542.54 771.678 544.574 774.467 546.478 777.344C564.834 805.11 569.754 837.703 563.208 870.021C559.216 886.276 552.414 901.225 542.168 914.51C518.396 945.331 482.171 964.318 443.803 969.182C404.296 974.191 361.669 963.515 330.057 939.023C304.508 919.229 286.364 890.748 282.288 858.431C278.379 826.425 287.342 794.177 307.205 768.778Z" fill="#FDFDFD"/>
<path d="M420.604 852.88C427.616 851.496 434.416 856.081 435.761 863.102C437.107 870.122 432.484 876.896 425.457 878.203C418.484 879.501 411.772 874.921 410.437 867.955C409.102 860.989 413.645 854.252 420.604 852.88Z" fill="black"/>
<path d="M422.655 814.179C429.693 813.889 435.649 819.328 435.998 826.363C436.346 833.399 430.958 839.4 423.926 839.808C416.809 840.221 410.72 834.753 410.368 827.634C410.015 820.515 415.533 814.472 422.655 814.179Z" fill="black"/>
<path d="M422.315 891.257C429.253 890.623 435.405 895.7 436.099 902.633C436.794 909.565 431.77 915.761 424.844 916.515C417.832 917.278 411.543 912.179 410.84 905.161C410.138 898.144 415.292 891.899 422.315 891.257Z" fill="black"/>
<path d="M311.575 632.451C321.074 632.532 328.995 628.927 337.726 625.738C343.745 623.54 349.851 621.423 356.022 619.693C397.221 608.236 440.642 607.346 482.275 617.103C493.931 619.877 505.228 623.733 516.518 627.7C522.811 630.117 529.015 632.519 535.854 632.688C540.368 661.752 536.034 690.284 518.368 714.414C515.648 718.129 512.64 722.039 509.034 724.931C501.526 730.954 484.126 736.966 474.525 739.135C444.348 746.595 412.903 747.361 382.398 741.379C371.047 739.043 349.279 732.828 340.297 725.879C334.533 721.42 329.283 714.312 325.285 708.191C311.158 686.566 306.256 657.68 311.575 632.451Z" fill="#FDFDFD"/>
<path d="M516.518 627.7C522.811 630.117 529.015 632.519 535.854 632.688C540.368 661.752 536.034 690.284 518.368 714.414C515.648 718.129 512.64 722.039 509.034 724.931C501.526 730.954 484.126 736.966 474.525 739.135C474.621 738.359 474.728 737.833 475.232 737.194C477.155 734.76 479.91 733 482.235 730.968C485.671 727.966 488.977 724.639 492.017 721.237C498.229 714.285 504.28 706.147 508.483 697.809C516.292 682.315 519.386 663.584 518.688 646.35C518.436 640.137 516.836 634.13 516.53 628.003C516.524 627.902 516.522 627.801 516.518 627.7Z" fill="#EFEFEF"/>
<path d="M419.135 658.451C425.91 658.673 484.049 676.523 490.223 679.895C491.968 680.848 493.726 682.281 494.217 684.305C494.548 685.67 494.126 687.115 493.374 688.271C490.457 692.754 476.024 694.519 470.568 695.643C460.874 697.626 451.131 699.365 441.35 700.858C434.83 701.817 422.119 704.139 416.07 703.079C413.809 702.672 411.684 701.717 409.879 700.296C405.561 696.95 403.292 691.637 402.567 686.338C401.584 679.164 402.769 670.968 407.304 665.122C410.352 661.195 414.186 659.071 419.135 658.451Z" fill="black"/>
<path d="M419.439 666.577C424.445 667.045 429.695 668.966 434.553 670.336C450.214 674.751 465.645 680.007 481.121 685.022C475.839 686.36 470.475 687.42 465.128 688.465C454.403 690.821 443.144 692.474 432.258 693.866C428.04 694.406 423.504 695.238 419.245 695.112C417.76 695.069 416.317 694.861 415.052 694.035C412.629 692.452 411.337 689.393 410.749 686.665C409.652 681.577 410.284 675.13 413.235 670.74C414.806 668.404 416.711 667.155 419.439 666.577Z" fill="#EF8815"/>
<path d="M378.059 691.681C378.886 691.611 379.704 691.572 380.532 691.653C384.17 692.009 385.153 696.957 386.589 699.683C387.338 701.106 388.369 702.458 389.406 703.686C400.131 716.392 421.429 719.257 436.477 713.964C438.815 713.142 441.213 712.145 443.386 710.951C446.193 709.409 449.341 706.346 452.75 706.729C454.234 706.897 455.52 707.951 456.364 709.145C457.089 710.17 457.387 711.373 457.153 712.612C456.783 714.573 455.418 715.69 453.85 716.757C453.662 716.883 453.472 717.005 453.278 717.122C439.207 725.744 423.032 729.026 406.858 724.999C394.652 721.961 383.667 714.945 377.199 703.99C375.675 701.409 373.877 698.006 374.798 694.948C375.316 693.228 376.538 692.456 378.059 691.681Z" fill="black"/>
<path d="M382.408 632.974C385.185 632.736 388.106 633.531 390.417 635.075C393.696 637.265 395.781 640.903 396.539 644.724C397.409 649.109 396.584 653.789 393.98 657.459C391.625 660.778 388.548 662.427 384.622 663.128C381.899 663.365 379.033 662.632 376.738 661.155C373.444 659.034 371.363 655.446 370.571 651.665C369.648 647.254 370.443 642.481 373.012 638.743C375.354 635.335 378.443 633.707 382.408 632.974Z" fill="black"/>
<path d="M463.605 632.993C466.125 632.813 468.416 632.855 470.78 633.869C474.298 635.378 476.793 638.502 478.066 642.052C479.619 646.335 479.351 651.067 477.325 655.148C475.491 658.786 472.595 660.978 468.796 662.232C465.845 662.786 462.914 662.513 460.225 661.105C456.823 659.325 454.48 656.028 453.44 652.378C452.224 648.115 452.732 643.268 454.946 639.417C456.916 635.991 459.842 633.98 463.605 632.993Z" fill="black"/>
<path d="M270.946 713.823C275 718.419 278.082 724.338 281.45 729.482C287.431 738.616 293.911 747.763 301.237 755.883C295.225 762.225 290.54 769.96 286.026 777.399C283.893 776.448 281.788 775.436 279.713 774.365C277.611 773.544 275.843 773.008 273.687 773.972C272.2 774.638 271.066 775.824 270.559 777.381C270.074 778.871 270.275 780.426 271.051 781.784C273.018 785.229 277.532 786.218 280.827 787.921C270.973 810.268 268.169 831.672 269.17 855.929C264.224 853.618 259.348 850.97 255.099 847.508C251.529 844.6 247.974 840.294 243.825 838.359C242.604 837.789 241.45 837.99 240.228 838.437C236.203 839.909 232.564 843.931 229.185 846.604C224.177 850.567 210.713 860.095 203.983 856.974C202.879 856.461 202.161 855.579 201.805 854.426C200.166 849.122 206.004 839.512 200.121 836.125C198.714 835.315 197.041 835.231 195.5 835.684C193.137 836.379 191.03 838.249 188.961 839.566C182.235 843.848 174.499 847.459 166.389 847.58C163.817 847.494 160.994 847.115 158.991 845.334C157.614 844.111 157.07 842.529 156.992 840.725C156.92 839.041 157.853 837.588 158.664 836.176C161.249 831.678 164.33 827.421 167.276 823.155L180.233 804.389C183.061 800.271 187.947 792.015 191.017 788.723C195.003 788.192 199.991 787.403 203.569 785.544C205.381 784.603 207.002 783.201 207.534 781.156C208.106 778.954 207.356 776.983 206.26 775.098C204.624 773.733 203.559 773.357 201.416 773.567C196.409 774.058 191.554 776.242 186.491 776.895C183.665 777.443 179.217 777.375 176.757 775.712C175.612 774.939 174.883 773.787 174.641 772.427C174.26 770.274 175.611 767.507 176.626 765.625C180.012 759.348 184.779 753.427 188.762 747.489C196.093 736.559 203.191 725.359 210.877 714.679C211.329 719.612 212.004 723.594 214.069 728.114C216.373 731.594 219.27 734.134 223.494 734.931C227.744 735.732 231.93 734.431 235.58 732.294C238.015 730.881 240.111 729.152 242.225 727.303C243.187 728.572 244.372 729.69 245.476 730.835C249.034 733.779 253.299 735.852 258.039 735.52C262.115 735.234 264.873 733.147 267.411 730.143C270.283 725.015 270.993 719.655 270.946 713.823Z" fill="#599F33"/>
<path d="M206.26 775.097C207.907 774.85 209.267 775.26 210.609 776.265C211.733 777.122 212.466 778.393 212.642 779.794C212.887 781.822 211.929 783.468 210.685 784.978C207.761 788.525 204.056 791.514 200.967 794.951C196.409 800.021 192.389 805.517 188.124 810.827C181.922 818.549 165.541 836.646 166.35 847.156C166.361 847.298 166.376 847.439 166.389 847.58C163.817 847.493 160.994 847.114 158.991 845.334C157.614 844.111 157.07 842.529 156.992 840.725C156.92 839.04 157.853 837.588 158.664 836.175C161.249 831.677 164.33 827.421 167.276 823.154L180.233 804.388C183.061 800.271 187.947 792.015 191.017 788.722C195.003 788.192 199.991 787.402 203.569 785.544C205.381 784.603 207.002 783.201 207.534 781.156C208.106 778.953 207.356 776.982 206.26 775.097Z" fill="#428226"/>
<path d="M210.877 714.679C211.329 719.611 212.004 723.594 214.069 728.113C213.111 728.475 212.383 728.836 211.698 729.619C209.005 732.697 207.245 736.746 205.057 740.197C198.824 750.029 191.701 759.498 186.888 770.156C185.995 772.134 185.275 773.959 185.137 776.156L185.389 776.618L186.49 776.895C183.665 777.443 179.217 777.375 176.757 775.712C175.611 774.938 174.883 773.787 174.641 772.426C174.26 770.273 175.611 767.506 176.626 765.625C180.012 759.348 184.779 753.427 188.762 747.488C196.093 736.559 203.191 725.358 210.877 714.679Z" fill="#428226"/>
<path d="M270.946 713.823C275 718.419 278.082 724.338 281.45 729.482C287.431 738.616 293.911 747.763 301.236 755.883C295.225 762.225 290.54 769.96 286.026 777.399C283.893 776.448 281.788 775.436 279.713 774.365C280.068 774.049 280.415 773.736 280.75 773.398C283.809 770.308 287.27 763.492 287.11 759.109C286.929 754.127 275.569 739.139 272.008 734.861C270.597 733.167 269.015 731.652 267.411 730.143C270.283 725.015 270.993 719.655 270.946 713.823Z" fill="#428226"/>
<path d="M242.225 727.303C243.187 728.572 244.372 729.689 245.476 730.835C243.859 732.5 241.829 734.846 239.327 734.95C238.345 734.99 237.392 734.614 236.701 733.914C236.249 733.449 235.912 732.848 235.58 732.294C238.015 730.88 240.111 729.152 242.225 727.303Z" fill="#428226"/>
<path d="M232.26 777.441C235.533 776.829 238.68 778.993 239.28 782.268C239.88 785.542 237.706 788.681 234.429 789.27C231.169 789.857 228.048 787.696 227.45 784.436C226.852 781.177 229.004 778.049 232.26 777.441Z" fill="black"/>
<path d="M211.732 747.806C214.899 747.063 218.071 749.023 218.822 752.187C219.574 755.352 217.623 758.529 214.461 759.29C211.286 760.053 208.094 758.093 207.339 754.916C206.584 751.739 208.553 748.553 211.732 747.806Z" fill="black"/>
<path d="M211.728 809.265C213.51 808.632 215.496 809.009 216.922 810.252C218.349 811.495 218.994 813.41 218.61 815.263C218.227 817.115 216.874 818.617 215.072 819.192C212.347 820.06 209.43 818.584 208.517 815.874C207.604 813.163 209.033 810.222 211.728 809.265Z" fill="black"/>
<path d="M260.128 751.08C262.957 750.601 265.644 752.49 266.151 755.314C266.658 758.138 264.797 760.844 261.978 761.38C260.13 761.731 258.234 761.062 257.015 759.629C255.796 758.195 255.44 756.217 256.084 754.449C256.729 752.68 258.273 751.394 260.128 751.08Z" fill="black"/>
<path d="M255.453 803.164C258.12 802.729 260.641 804.523 261.103 807.186C261.564 809.849 259.795 812.388 257.137 812.876C254.441 813.371 251.859 811.571 251.391 808.871C250.922 806.17 252.748 803.606 255.453 803.164Z" fill="black"/>
<path d="M179.079 824.548C179.689 824.51 180.329 824.487 180.938 824.571C181.884 824.702 182.844 825.279 183.326 826.114C183.777 826.893 183.788 827.815 183.567 828.665C183.104 830.458 181.911 831.389 180.404 832.319C180.2 832.37 179.996 832.422 179.789 832.462C178.9 832.634 178.006 832.54 177.283 831.935C176.652 831.406 176.473 830.667 176.474 829.882C176.48 827.714 177.592 826.023 179.079 824.548Z" fill="#94C36C"/>
<path d="M545.975 754.851C549.753 749.512 553.726 744.312 557.474 738.948C563.178 730.807 568.642 722.501 573.857 714.04C574.067 719.833 575.227 724.563 578.393 729.431C580.854 732.136 583.569 733.827 587.326 734.016C592.108 734.256 596.081 732.046 599.847 729.392C600.964 728.469 602.025 727.472 603.1 726.5C604.058 727.352 605.074 728.15 606.062 728.969C610.393 731.517 614.934 734.182 620.178 733.568C623.94 733.128 626.632 731.096 628.927 728.226C631.341 723.628 632.035 719.164 632.111 713.994L652.916 745.242C657.317 751.761 662.613 758.512 666.035 765.606C666.912 767.424 667.681 769.416 667.253 771.458C666.931 772.992 666.087 774.278 664.737 775.092C660.825 777.45 654.65 775.828 650.468 775.018C646.875 774.107 639.365 771.16 636.167 772.95C634.804 773.713 633.929 775.192 633.604 776.69C633.218 778.46 633.767 780.477 634.766 781.957C634.992 782.285 635.229 782.605 635.477 782.916C640.432 786.12 645.727 786.398 651.393 787.427C658.623 796.993 665.148 807.175 671.954 817.053C676.018 822.951 682.092 830.515 685.128 836.854C685.868 838.402 686.242 839.969 686.011 841.694C685.815 843.161 685.139 844.381 683.957 845.281C680.976 847.553 676.469 847.452 672.936 846.841C669.967 846.328 667.114 845.41 664.315 844.313C661.899 843.346 659.558 842.202 657.31 840.889C654.017 838.989 650.113 835.803 646.389 835.065C644.916 834.772 643.15 834.711 641.88 835.646C637.488 838.873 641.994 848.484 641.104 853.196C640.873 854.417 640.357 855.572 639.285 856.27C637.939 857.146 635.933 857.043 634.408 856.885C626.268 856.04 618.361 849.586 612.328 844.499C609.615 842.212 606.356 838.714 602.762 837.968C601.757 837.76 600.507 837.743 599.566 838.197C596.219 839.812 593.036 843.495 590.113 845.857C586.398 848.88 582.492 851.658 578.418 854.176C579.443 829.79 576.324 810.471 566.731 787.996C569.998 786.535 575.102 785.23 576.711 781.766C577.474 780.109 577.495 778.205 576.769 776.531C576.221 775.276 575.241 774.229 573.928 773.781C570.521 772.619 564.937 776.029 561.794 777.506C558.772 772.507 555.559 767.627 552.163 762.874C549.922 760.718 547.896 757.356 545.975 754.851Z" fill="#599F33"/>
<path d="M635.477 782.916C640.432 786.12 645.727 786.398 651.393 787.427C658.623 796.993 665.149 807.175 671.954 817.053C676.018 822.951 682.093 830.515 685.128 836.854C685.868 838.402 686.242 839.969 686.011 841.694C685.816 843.161 685.139 844.381 683.957 845.281C680.976 847.553 676.469 847.452 672.936 846.841C669.968 846.329 667.115 845.41 664.316 844.314C664.928 843.498 665.571 842.671 666.076 841.783C667.81 838.729 668.424 835.262 667.44 831.857C665.629 825.591 654.945 812.769 650.637 806.805C647.003 801.812 643.538 796.698 640.249 791.471C638.652 788.937 636.277 785.793 635.477 782.916Z" fill="#428226"/>
<path d="M628.928 728.226C631.341 723.628 632.036 719.164 632.111 713.994L652.916 745.242C657.318 751.761 662.614 758.512 666.036 765.606C666.912 767.424 667.681 769.416 667.253 771.458C666.931 772.992 666.088 774.278 664.738 775.092C660.825 777.45 654.65 775.828 650.468 775.018C651.879 773.055 653.515 771.076 653.604 768.55C653.671 766.637 652.807 764.842 651.963 763.167C650.321 759.908 647.988 756.925 646.053 753.829C641.348 746.297 634.749 734.487 628.928 728.226Z" fill="#428226"/>
<path d="M545.975 754.852C549.753 749.512 553.726 744.313 557.474 738.948C563.178 730.808 568.642 722.501 573.857 714.04C574.067 719.833 575.227 724.564 578.393 729.431C572.556 734.222 563.998 747.033 559.682 753.668C558.515 755.462 555.411 761.74 554.093 762.692C553.736 762.95 552.598 762.88 552.163 762.875C549.922 760.719 547.896 757.356 545.975 754.852Z" fill="#428226"/>
<path d="M603.1 726.5C604.058 727.352 605.075 728.15 606.062 728.969C606.007 730.004 606.13 730.53 605.491 731.368C604.211 731.876 603.427 731.938 602.139 731.364C601.04 730.873 600.397 730.478 599.848 729.392C600.965 728.469 602.026 727.472 603.1 726.5Z" fill="#428226"/>
<path d="M628.389 809.258C631.538 808.624 634.618 810.617 635.328 813.75C636.039 816.882 634.121 820.009 631.006 820.796C628.924 821.321 626.72 820.676 625.248 819.112C623.777 817.547 623.269 815.308 623.921 813.261C624.574 811.215 626.284 809.683 628.389 809.258Z" fill="black"/>
<path d="M575.867 745.67C577.94 745.177 580.117 745.844 581.559 747.413C583.001 748.982 583.481 751.208 582.815 753.232C582.149 755.256 580.441 756.762 578.349 757.169C575.206 757.78 572.151 755.765 571.475 752.635C570.8 749.505 572.751 746.409 575.867 745.67Z" fill="black"/>
<path d="M599.607 775.606C601.667 775.096 603.841 775.736 605.297 777.28C606.753 778.824 607.262 781.033 606.632 783.059C606.001 785.085 604.327 786.614 602.253 787.059C599.114 787.732 596.015 785.762 595.293 782.635C594.57 779.507 596.491 776.378 599.607 775.606Z" fill="black"/>
<path d="M624.551 747.471C627.314 746.963 629.967 748.782 630.492 751.541C631.016 754.301 629.213 756.966 626.457 757.507C623.677 758.052 620.984 756.231 620.455 753.448C619.927 750.664 621.764 747.982 624.551 747.471Z" fill="black"/>
<path d="M585.361 808.323C587.891 807.462 590.637 808.83 591.475 811.366C592.314 813.903 590.925 816.637 588.381 817.455C585.867 818.263 583.172 816.893 582.344 814.386C581.515 811.879 582.861 809.173 585.361 808.323Z" fill="black"/>
<path d="M411.847 557.964C419.19 557.408 427.057 557.645 434.432 557.868C464.691 558.928 494.575 564.914 522.908 575.591C531.211 578.748 539.439 581.488 545.652 588.161C549.84 592.659 552.01 597.949 551.752 604.127C551.567 608.558 550.095 612.407 546.711 615.399C543.232 618.476 538.196 619.855 533.593 619.418C527.729 618.86 522.152 616.154 516.647 614.192C511.77 612.48 506.865 610.852 501.933 609.308C480.612 602.476 458.483 598.482 436.118 597.43C407.243 595.32 372.851 600.422 345.36 609.292C340.492 610.862 335.599 612.493 330.813 614.298C325.606 616.263 320.795 619.01 315.132 619.384C310.189 619.711 305.021 618.964 301.218 615.509C298.143 612.716 296.575 608.791 296.347 604.692C296.019 598.803 297.951 593.26 301.893 588.883C304.018 586.523 306.587 584.484 309.309 582.857C312.895 580.713 316.9 579.209 320.757 577.616C339.18 570.171 358.366 564.776 377.968 561.525C389.182 559.682 400.495 558.493 411.847 557.964Z" fill="#FDFDFD"/>
<path d="M417.598 493.175C430.677 491.639 449.222 495.209 461.69 499.381C493.899 510.156 516.624 535.238 531.441 564.939C500.447 552.456 463.087 544.697 429.684 544.537C388.966 544.342 353.797 550.673 315.81 565.486C321.465 553.545 328.065 542.292 336.843 532.347C357.873 508.521 385.928 495.124 417.598 493.175Z" fill="#D72D3C"/>
<path d="M154.054 938.276C157.142 933.452 161.652 929.2 166.364 925.987C179.345 917.138 195.281 915.033 210.414 918.651C214.946 919.734 219.286 921.988 223.863 922.756C228.905 923.602 232.358 919.855 236.147 917.18C250.027 907.383 268.699 903.415 285.371 906.299C291.339 917.85 299.3 927.621 308.212 937.011C310.043 938.789 311.889 940.552 313.751 942.299L151.55 942.316C152.333 940.972 153.066 939.478 154.054 938.276Z" fill="#FDFDFD"/>
<path d="M308.212 937.01C310.043 938.789 311.889 940.552 313.751 942.298L151.55 942.315C152.333 940.971 153.066 939.478 154.054 938.276C157.971 939.886 289.742 938.462 303.609 937.682C305.183 937.593 306.704 937.512 308.212 937.01Z" fill="#EFEFEF"/>
<path d="M563.23 905.354C578.346 905.322 591.323 908.943 604.009 917.249C606.928 919.16 609.729 922.013 613.212 922.771C617.505 923.704 623.273 920.753 627.438 919.656C646.471 914.64 666.733 917.251 681.123 931.545C684.334 934.733 686.958 938.394 689.225 942.301L534.679 942.306L540.231 936.764C547.922 928.407 554.541 919.931 560.464 910.243L563.23 905.354Z" fill="#FDFDFD"/>
<path d="M563.23 905.354C578.346 905.322 591.323 908.943 604.009 917.249C606.928 919.16 609.729 922.013 613.212 922.771C617.505 923.704 623.273 920.753 627.438 919.656C646.471 914.64 666.733 917.251 681.123 931.545C684.334 934.733 686.958 938.394 689.225 942.301L534.679 942.306L540.231 936.764C542.376 937.767 545.33 937.704 547.691 937.85C567.35 939.066 587.234 938.65 606.935 938.981C620.552 939.209 634.136 939.201 647.754 939.196C654.963 939.194 662.319 939.552 669.508 939.045C667.127 936.551 665.025 933.876 662.292 931.735C659.258 929.358 655.7 927.671 652.062 926.44C639.676 922.249 630.14 925.305 617.852 926.763C613.487 927.281 605.306 927.279 600.967 926.644C592.862 925.458 586.822 918.979 579.365 915.955C576.007 914.631 572.573 913.509 569.081 912.596C566.281 911.884 563.069 911.487 560.464 910.243L563.23 905.354Z" fill="#EFEFEF"/>
<path d="M241.693 661.295C241.824 661.325 241.96 661.337 242.086 661.384C244.475 662.276 247.157 665.069 249.101 666.755C259.063 675.268 268.3 684.593 276.72 694.633C278.958 697.272 281.451 699.933 283.258 702.89C283.181 702.886 283.105 702.881 283.028 702.879C278.997 702.744 275.135 701.603 271.125 701.338C254.093 700.211 263.084 718.56 257.542 722.351C253.632 725.025 247.562 713.54 242.279 712.706C242.174 712.69 242.068 712.676 241.963 712.66C237.293 713.861 234.564 718.726 230.592 721.225C229.355 722.003 227.523 722.939 226.01 722.45C221.539 721.002 223.182 709.775 220.65 705.239C216.303 697.454 205.24 704.095 200.858 702.375C200.398 702.194 200.455 701.999 200.302 701.579C201.14 698.763 204.724 695.887 206.738 693.728C217.497 682.198 228.895 670.583 241.693 661.295Z" fill="#FDFDFD"/>
<path d="M602.189 660.375C602.351 660.432 602.521 660.47 602.674 660.547C608.529 663.513 641.099 694.3 643.022 700.228C641.508 703.212 629.176 697.952 623.669 702.203C619.647 705.309 621.012 713.019 620.206 717.466C619.989 718.668 619.561 720.209 618.396 720.833C615.202 722.545 607.032 712.981 603.563 711.604C603.447 711.559 603.331 711.516 603.214 711.472C596.722 712.119 594.705 720.375 588.554 721.834C584.297 720.724 586.233 707.065 582.941 703.42C577.653 697.567 568.434 701.62 561.664 701.329C563.675 697.756 567.022 694.554 569.772 691.525C579.671 680.619 590.321 669.133 602.189 660.375Z" fill="#FDFDFD"/>
<path d="M400.074 481.626C398.976 479.479 398.149 477.086 397.596 474.739C396.008 468.004 396.304 460.577 400.064 454.603C403.808 448.656 409.971 444.777 416.767 443.266C425.634 441.294 434.452 442.65 442.076 447.569C447.247 451.534 450.853 456.716 451.721 463.284C452.583 469.799 450.849 475.791 448.605 481.841C444.159 481.007 439.672 480.26 435.162 479.885C423.343 478.923 411.724 479.318 400.074 481.626Z" fill="#FDFDFD"/>
<path d="M442.076 447.568C447.247 451.534 450.853 456.716 451.721 463.283C452.583 469.799 450.849 475.791 448.605 481.84C444.159 481.007 439.672 480.26 435.162 479.885C435.547 479.816 435.654 479.827 436.034 479.591C436.688 479.184 437.379 478.195 437.869 477.596C442.145 472.367 444.047 463.641 443.45 457.01C443.188 454.104 441.263 450.369 442.076 447.568Z" fill="#EFEFEF"/>
<path d="M491.056 818.346C494.059 818.25 497.063 818.175 500.066 818.121C500.063 827.401 499.418 836.531 498.608 845.77L487.214 846.438C475.033 847.567 462.64 847.245 450.414 847.864C450.356 838.58 450.775 829.311 450.649 820.019C464.094 819.224 477.596 818.848 491.056 818.346Z" fill="#D72D3C"/>
<path d="M491.057 818.346C494.059 818.25 497.063 818.175 500.067 818.121C500.063 827.401 499.418 836.531 498.609 845.77L487.214 846.438C489.42 837.224 490.707 827.814 491.057 818.346Z" fill="#C32533"/>
<path d="M488.177 780.307C490.836 780.13 493.537 780.043 496.178 779.679C498.285 788.783 499.87 797.473 500.15 806.839L490.34 806.989C477.025 807.292 463.718 807.883 450.429 808.761C450.287 800.144 449.769 791.362 448.572 782.827C461.737 781.536 474.969 780.969 488.177 780.307Z" fill="#D72D3C"/>
<path d="M488.177 780.307C490.836 780.13 493.538 780.043 496.178 779.679C498.285 788.783 499.87 797.473 500.151 806.839L490.34 806.989C490.347 798.584 489.59 788.583 488.177 780.307Z" fill="#C32533"/>
<path d="M510.596 739.539C514.27 737.254 517.666 734.777 520.88 731.874C526.589 736.755 532.221 742.836 532.834 750.717C533.22 755.674 531.611 760.175 528.376 763.934C522.933 770.259 515.252 773.79 507.739 776.994L506.188 771.366C503.489 762.305 499.469 754.443 493.333 747.235C499.357 745.231 504.99 742.488 510.596 739.539Z" fill="#C32533"/>
<path d="M510.596 739.539C513.931 741.88 515.488 747.847 516.173 751.616C516.969 755.99 516.501 759.92 513.838 763.621C512.119 766.011 509.738 767.614 507.674 769.649C507.129 770.187 506.767 770.876 506.188 771.366C503.489 762.305 499.469 754.443 493.333 747.235C499.357 745.231 504.99 742.488 510.596 739.539Z" fill="#D72D3C"/>
<path d="M410.287 758.217C417.305 758.626 424.673 758.971 431.671 758.263C433.028 762.911 434.137 767.628 434.992 772.393C435.477 775.149 437.984 788.603 436.808 790.284L435.553 790.391C426.568 791.229 417.404 791.036 408.404 790.618C407.983 779.782 408.615 768.931 410.287 758.217Z" fill="#D72D3C"/>
<path d="M376.309 753.296C383.739 755.406 391.406 756.372 399.051 757.333C397.389 763.833 396.918 774.932 396.89 781.806C396.884 783.589 397.425 788.524 396.471 789.892L395.859 789.858C387.98 789.21 380.145 788.104 372.395 786.545C372.622 775.191 373.509 764.335 376.309 753.296Z" fill="#D72D3C"/>
<path d="M346.55 743.556C352.658 746.443 359.106 748.674 365.558 750.65C362.446 761.573 361.575 772.518 361.323 783.824L358.364 783.091C351.615 781.049 345.015 778.772 338.611 775.807C338.783 764.211 341.538 753.956 346.55 743.556Z" fill="#D72D3C"/>
<path d="M479.719 751.657L480.399 751.603C485.098 753.445 490.23 764.154 492.529 768.516C480.17 769.004 467.823 769.739 455.495 770.719C452.675 770.939 449.883 771.264 447.079 771.616C446.418 766.828 445.215 762.185 443.991 757.518C456.03 756.461 467.973 754.502 479.719 751.657Z" fill="#D72D3C"/>
<path d="M601.632 852.684C603.562 854.489 605.514 856.137 607.601 857.763L607.566 904.34L603.866 902.37C601.076 900.82 598.16 899.512 595.269 898.165C595.534 884.887 595.385 871.582 595.39 858.301C597.543 856.525 599.569 854.564 601.632 852.684Z" fill="#7B4020"/>
<path d="M241.408 852.941C243.052 853.769 245.018 856.124 246.413 857.392L246.453 897.248C243.746 898.06 241.223 899.412 238.707 900.679L234.753 902.791L234.843 858.002C237.126 856.428 239.258 854.69 241.408 852.941Z" fill="#7B4020"/>
<path d="M327.465 732.147C329.055 732.521 334.884 737.449 336.81 738.69C331.737 748.637 328.177 758.82 327.654 770.063L325.223 768.5C322.747 766.847 320.37 765.001 318.505 762.659C315.718 759.159 314.538 754.87 315.093 750.433C316.062 742.689 321.555 736.718 327.465 732.147Z" fill="#D72D3C"/>
<path d="M258.965 864.824C263.028 866.868 267.07 868.61 271.427 869.934C272.642 874.749 273.746 879.736 275.482 884.396C276.28 886.539 278.459 890.619 278.499 892.726L277.915 892.818C271.48 892.726 265.148 893.3 258.785 894.192L258.747 874.93C258.741 871.656 258.439 868.047 258.965 864.824Z" fill="#B48FE1"/>
<path d="M582.696 865.817C583.406 867.27 582.962 890.667 582.959 894.431C579.07 893.599 575.132 893.178 571.171 892.873C570.628 892.815 570.101 892.702 569.565 892.598C569.158 891.828 570.313 889.48 570.638 888.576C572.985 882.043 574.808 875.618 576.255 868.827C578.422 867.867 580.569 866.863 582.696 865.817Z" fill="#B48FE1"/>
<path d="M495.995 858.285L496.749 858.32C497.499 860.136 497.138 864.414 496.475 866.265C496.16 867.146 495.633 867.969 494.702 868.29C493.768 868.613 492.956 868.23 492.107 867.878C491.333 867.138 490.763 866.234 490.157 865.358C489.942 863.175 489.86 861.004 489.798 858.811L495.995 858.285Z" fill="#EFEFEF"/>
<path d="M451.091 859.959L458.575 859.973C458.611 862.957 458.668 865.455 457.084 868.101C456.347 868.841 455.268 869.76 454.154 869.764C453.663 869.766 453.175 869.599 452.825 869.26C450.869 867.359 451.203 862.57 451.091 859.959Z" fill="#EFEFEF"/>
<path d="M470.63 859.388L477.818 859.381C477.711 862.311 477.722 865.102 476.569 867.848C475.818 868.541 474.972 869.153 473.913 869.234C473.198 869.289 472.613 869.042 472.137 868.508C470.24 866.381 470.631 862.097 470.63 859.388Z" fill="#EFEFEF"/>
<path d="M635.906 455.593C638.283 455.437 640.615 455.912 642.455 457.505C644.999 459.707 645.761 463.102 646.058 466.301C647.459 466.06 648.991 465.786 650.413 465.931C652.931 466.188 655.367 467.551 656.932 469.529C658.238 471.177 658.856 473.188 658.556 475.281C657.674 481.429 650.016 486.472 645.439 489.911C645.443 495.847 645.489 501.781 645.579 507.716C650.819 504.47 656.092 501.277 661.397 498.137C661.494 492.889 661.695 485.99 664.779 481.533C666.046 479.701 667.883 478.399 670.097 478.02C672.412 477.615 674.791 478.209 676.645 479.653C678.979 481.465 679.729 483.64 680.089 486.449C682.403 485.058 684.842 484.141 687.587 484.372C689.972 484.573 692.216 485.696 693.717 487.573C695.173 489.426 695.825 491.784 695.529 494.122C695.06 497.82 692.601 500.018 689.839 502.171C690.873 502.983 691.841 503.808 692.62 504.879C694.002 506.778 694.465 508.909 693.995 511.207C693.572 513.277 692.519 515.091 690.666 516.175C685.009 519.479 675.631 515.628 669.779 514.043C664.739 516.814 659.735 519.652 654.77 522.556C659.618 525.574 664.682 528.159 669.451 531.334C674.394 529.526 679.9 527.225 685.223 527.137C687.729 527.095 690.568 527.603 692.366 529.501C693.761 530.974 694.373 533.168 694.279 535.163C694.132 538.278 691.829 540.425 689.723 542.427C692.017 543.99 694.027 545.479 695.116 548.133C696.032 550.368 695.944 552.976 694.981 555.179C694.017 557.385 692.176 559.088 689.9 559.875C686.353 561.089 683.154 559.74 679.979 558.239C679.634 560.021 679.32 561.869 678.238 563.373C676.786 565.392 674.793 566.701 672.302 566.999C670.25 567.243 668.252 566.703 666.644 565.397C661.559 561.267 661.844 552.762 661.07 546.828L645.851 538.134C645.957 543.811 645.947 549.489 645.821 555.166C649.499 558.119 654.791 561.458 657.067 565.606C658.358 567.96 658.834 570.701 657.991 573.29C657.296 575.445 655.756 577.226 653.723 578.226C651.063 579.514 648.767 579.106 646.09 578.254C645.762 580.837 645.554 583.633 644.074 585.863C642.677 587.967 640.583 588.765 638.205 589.252C635.561 589.399 632.946 589.005 630.954 587.119C628.5 584.796 628.147 581.611 628.003 578.436C626.59 578.817 625.213 579.211 623.735 579.089C621.386 578.896 619.182 577.806 617.705 575.955C616.214 574.085 615.68 571.607 616.04 569.263C617.03 562.83 623.269 559.001 628.171 555.588C628.136 549.811 628.15 544.035 628.211 538.259C623.164 541.412 618.032 544.428 612.821 547.301C612.383 552.574 612.203 559.644 608.678 563.953C607.204 565.756 605.153 566.89 602.818 567.056C600.509 567.22 598.131 566.461 596.452 564.842C594.389 562.85 594.142 560.849 594.094 558.143C591.219 559.633 588.329 561.012 584.991 560.349C582.643 559.877 580.59 558.468 579.305 556.446C578.034 554.419 577.616 551.972 578.141 549.637C578.929 546.119 581.444 544.126 584.278 542.229C583.005 541.088 581.696 540.008 580.919 538.449C579.867 536.335 579.609 534.006 580.387 531.753C581.013 529.942 582.255 528.585 584.007 527.813C589.929 525.204 598.721 529.088 604.213 531.327C609.322 528.839 614.466 525.641 619.295 522.628C614.452 519.519 609.36 516.581 604.27 513.897C599.77 515.398 595.063 517.085 590.29 517.37C587.471 517.537 584.288 517.14 582.144 515.121C580.491 513.564 579.708 511.132 579.772 508.896C579.857 505.896 581.861 504.041 583.906 502.144C581.728 500.506 579.778 498.796 578.782 496.185C577.961 494.001 578.068 491.577 579.077 489.474C580.116 487.315 582.009 485.689 584.3 484.986C587.738 483.896 590.812 484.915 593.887 486.447C594.254 484.444 594.591 482.754 595.909 481.115C597.402 479.259 599.466 478.048 601.86 477.853C604.03 477.657 606.188 478.345 607.844 479.761C612.714 483.963 612.598 492.452 613.037 498.301L628.158 507.269C628.336 501.339 628.298 495.365 628.202 489.434C624.493 486.658 619.963 483.736 617.458 479.76C616.026 477.486 615.35 474.777 616.034 472.135C616.603 469.946 618.042 468.085 620.017 466.983C622.678 465.493 625.176 465.746 627.984 466.582C628.267 463.978 628.513 461.387 630.008 459.141C631.409 457.036 633.514 456.101 635.906 455.593Z" fill="#0179CA"/>
<path d="M635.976 461.785C636.963 461.76 637.964 461.728 638.745 462.457C641.188 464.739 640.114 474.829 640 478.369C642.373 476.849 647.307 471.465 650.252 472.049C651.2 472.237 651.539 472.636 652.096 473.348C652.301 474.005 652.391 474.325 652.258 475.026C651.664 478.156 642.772 483.999 640.143 485.989C639.781 496.39 640.27 506.95 640.3 517.369C645.441 514.622 650.414 511.49 655.4 508.47C659.248 506.139 663.362 503.896 666.92 501.14C667.417 497.042 667.263 489.184 669.286 485.744C669.784 484.896 671.034 483.988 672.044 483.947C672.684 483.922 673.161 484.106 673.54 484.638C675.327 487.145 673.509 494.585 673.084 497.529C676.923 495.558 682.516 491.149 686.711 490.715C687.468 490.913 688.092 491.253 688.524 491.931C688.928 492.566 689.085 493.207 688.901 493.948C687.958 497.743 679.482 501.472 676.171 503.272C679.403 504.201 684.25 505.152 686.686 507.563C687.375 508.245 687.456 508.771 687.453 509.71C687.102 510.427 686.861 510.734 686.204 511.192C681.059 511.72 674.799 508.851 670.044 507.009L643.737 522.294C651.968 528.247 661.215 533.508 670.27 538.125C674.3 536.657 681.287 532.833 685.369 532.971C686.171 532.999 686.89 533.375 687.389 534.011C687.833 534.578 688.037 535.197 687.82 535.91C686.997 538.609 679.323 540.841 676.919 541.796C680.315 544.062 686.627 546.239 688.597 549.916C689.034 550.731 689.207 551.746 688.826 552.621C688.503 553.363 687.918 553.847 687.141 554.06C684.574 554.765 675.79 548.763 673.134 547.286C673.925 550.412 675.164 556.059 673.717 559.099C673.48 559.598 673.029 560.14 672.478 560.281C671.731 560.471 670.911 560.249 670.279 559.819C667.605 557.997 667.157 546.836 666.786 543.372C658.492 537.765 649.121 532.789 640.261 528.157C640.246 538.367 640.01 548.519 640.249 558.733C643.225 561.309 650.697 565.533 652.145 569.11C652.425 569.804 652.42 570.779 652.033 571.449C651.652 572.109 651.255 572.517 650.49 572.692C647.537 573.369 642.365 568.483 639.917 566.927C639.9 570.581 639.96 574.261 639.804 577.912C639.712 580.099 639.61 581.786 637.926 583.344C636.978 583.317 636.012 583.274 635.285 582.559C632.901 580.215 633.994 570.343 634.111 566.805C631.883 568.408 627.387 572.765 624.569 572.69C623.715 572.667 623.042 572.418 622.476 571.749C621.959 571.138 621.8 570.387 621.971 569.611C622.625 566.629 631.134 561.103 633.888 559.052C633.948 548.721 633.94 538.39 633.866 528.06C628.523 531.003 623.219 534.017 617.956 537.1C614.526 539.083 610.969 540.957 607.734 543.245C606.88 546.774 606.195 557.165 604.246 559.381C603.713 559.986 603.021 560.347 602.205 560.337C601.473 560.329 600.8 560.055 600.373 559.444C598.554 556.851 600.293 550.307 600.742 547.308C598.31 548.642 589.082 554.361 586.972 554.097C586.338 554.017 585.534 553.348 585.184 552.831C584.725 552.151 584.705 551.525 584.922 550.756C585.91 547.27 594.39 543.48 597.337 541.822C594.239 540.566 589.168 539.418 586.921 536.796C586.407 536.196 586.085 535.471 586.266 534.666C586.424 533.964 586.949 533.327 587.576 532.987C590.189 531.57 601.258 536.725 604.057 537.881C613.117 533.041 622.008 527.89 630.713 522.437C626.535 519.797 622.066 517.525 617.799 515.022C613.25 512.353 608.781 509.338 604.025 507.061C599.768 508.627 592.893 511.733 588.459 511.509C587.64 511.467 587.112 511.102 586.625 510.447C586.234 509.921 586.153 509.096 586.401 508.502C587.567 505.7 595.563 504.296 598.382 503.486C595.082 501.044 586.902 498.219 585.155 494.701C584.756 493.896 584.75 493.039 585.149 492.232C585.5 491.52 586.004 491.115 586.757 490.89C589.658 490.027 598.145 495.839 601.066 497.436C600.521 494.03 599.326 489.592 600.093 486.192C600.328 485.151 600.731 484.706 601.597 484.125C602.727 484.028 603.502 484.197 604.37 484.979C606.543 486.934 607.12 498.071 607.431 501.156C612.98 505.712 627.137 513.43 633.839 516.723C633.932 506.51 634.219 496.187 633.706 485.986C630.928 483.936 623.921 479.106 622.382 476.397C621.859 475.477 621.925 474.16 622.292 473.184C622.532 472.544 622.997 472.034 623.677 471.861C626.396 471.166 631.618 476.131 633.814 477.643C633.954 474.29 633.692 470.937 633.81 467.586C633.897 465.113 634.132 463.501 635.976 461.785Z" fill="#8AD2F8"/>
<path d="M209.377 521.593C211.488 521.436 213.603 521.913 215.208 523.369C217.527 525.475 217.894 528.3 218.121 531.232C219.409 531.014 220.752 530.738 222.061 530.839C224.272 531.009 226.529 532.146 227.893 533.904C229.051 535.397 229.51 537.237 229.22 539.101C228.355 544.666 221.772 548.602 217.649 551.776L217.686 566.751C222.1 564.167 226.493 561.546 230.863 558.887C231.069 554.437 231.505 548.555 233.775 544.659C234.837 542.838 236.443 541.38 238.541 540.906C240.43 540.478 242.51 540.891 244.114 541.969C246.57 543.619 247.367 545.628 247.839 548.423C249.779 547.667 251.5 547.031 253.632 547.164C255.97 547.31 258.196 548.332 259.667 550.187C260.92 551.768 261.53 553.869 261.258 555.872C260.816 559.123 258.664 560.915 256.253 562.808C257.258 563.71 258.274 564.605 258.986 565.767C259.951 567.343 260.263 569.007 259.764 570.798C259.278 572.544 258.271 574.037 256.644 574.897C251.866 577.421 243.953 574.113 239.2 572.665C234.445 574.837 229.818 577.669 225.263 580.248C229.804 582.713 234.316 585.23 238.798 587.801C242.803 586.12 247.121 584.356 251.524 584.194C253.802 584.111 256.432 584.409 258.134 586.091C259.382 587.323 259.868 589.151 259.768 590.866C259.591 593.88 257.95 595.678 255.817 597.559C257.837 598.936 259.646 600.286 260.656 602.587C261.489 604.51 261.475 606.695 260.616 608.606C259.786 610.483 258.232 611.945 256.308 612.658C253.144 613.822 250.495 612.712 247.659 611.342C247.372 613.183 247.129 614.924 245.957 616.452C244.708 618.079 243.012 619.21 240.952 619.463C239.072 619.695 237.344 619.139 235.917 617.907C231.494 614.089 231.408 606.724 230.871 601.362C226.371 598.998 221.967 596.456 217.668 593.742C217.773 598.653 217.748 603.573 217.777 608.485C220.914 611.374 225.403 613.538 227.616 617.295C228.802 619.31 229.407 621.756 228.782 624.056C228.244 626.009 226.898 627.641 225.083 628.543C222.595 629.798 220.508 629.451 217.978 628.68C217.988 629.987 217.972 631.352 217.649 632.624C217.018 635.114 215.66 636.584 213.503 637.889C212.633 638.161 211.8 638.323 210.888 638.39C208.714 638.548 206.585 638.19 204.925 636.675C202.616 634.567 202.262 631.74 202.046 628.811C200.852 629.276 199.557 629.61 198.267 629.514C196.237 629.362 194.249 628.387 193.006 626.756C191.691 625.032 191.3 622.867 191.615 620.749C192.449 615.134 197.961 611.801 202.144 608.664L202.161 593.973C197.821 596.323 193.415 598.613 189.314 601.366C188.91 606.079 188.791 611.527 186.189 615.653C185.092 617.391 183.466 618.772 181.421 619.202C179.483 619.61 177.324 619.16 175.726 617.985C173.277 616.184 172.762 613.971 172.369 611.141C170.372 612.186 168.591 613.019 166.266 612.974C164.192 612.955 162.219 612.075 160.818 610.545C159.412 608.985 158.754 606.857 158.919 604.776C159.171 601.576 161.051 599.716 163.323 597.743C162.44 596.941 161.539 596.103 160.928 595.068C159.889 593.303 159.499 591.069 160.057 589.082C160.546 587.338 161.672 585.925 163.297 585.115C168.376 582.586 176.037 586.146 180.956 587.898C185.605 585.681 190.049 582.865 194.567 580.378C190.18 577.556 185.45 575.115 180.828 572.697C176.715 574.11 172.258 576.005 167.849 576.002C165.728 576.001 163.565 575.479 162.047 573.912C160.793 572.616 159.935 570.595 159.97 568.781C160.022 566.052 161.956 564.259 163.786 562.509C162.173 561.377 160.677 560.275 159.741 558.478C158.8 556.671 158.584 554.648 159.236 552.707C159.899 550.731 161.418 549.141 163.294 548.265C166.201 546.908 169.069 547.525 171.921 548.608C172.268 547.126 172.616 545.709 173.575 544.488C175.025 542.641 177.22 541.352 179.577 541.173C181.455 541.015 183.317 541.633 184.727 542.885C188.895 546.523 188.699 553.704 189.144 558.791C193.459 561.457 197.822 564.045 202.23 566.556C202.599 561.532 202.291 556.334 202.204 551.301C198.88 549.222 194.838 546.244 192.534 543.037C191.239 541.233 190.622 538.884 191.094 536.692C191.541 534.705 192.783 532.989 194.53 531.943C196.999 530.453 199.048 530.568 201.737 531.294C202.031 529.11 202.359 526.918 203.579 525.03C204.961 522.889 206.992 522.123 209.377 521.593Z" fill="#0179CA"/>
<path d="M209.745 527.253C210.451 527.44 211.218 527.581 211.711 528.174C213.783 530.668 212.815 538.311 212.805 541.626C214.924 539.991 218.257 536.322 220.97 536.067C221.74 535.995 222.426 536.107 222.997 536.676C223.477 537.155 223.74 537.956 223.615 538.629C223.158 541.105 215.071 546.829 212.762 548.588L212.729 575.545C220.566 571.727 228.723 566.666 235.935 561.741C236.236 557.553 236.093 552.052 237.8 548.237C238.168 547.415 238.818 546.544 239.76 546.363C240.566 546.208 240.945 546.476 241.599 546.857C243.46 549.592 241.918 555.048 241.453 558.168C243.94 557.006 250.82 552.038 253.237 552.412C254.009 552.532 254.783 552.912 255.251 553.556C255.697 554.169 255.889 554.707 255.67 555.46C254.773 558.542 247.539 561.744 244.803 563.313C247.479 564.277 251.684 564.968 253.6 567.19C253.991 567.644 254.229 568.211 254.119 568.805C253.983 569.536 253.576 570.176 252.884 570.507C250.387 571.703 241.455 567.735 238.819 566.704C230.956 570.837 223.552 575.977 215.822 580.372C222.86 584.254 231.816 590.733 238.802 593.644C243.164 592.148 248.041 589.589 252.692 589.62C253.437 589.956 253.626 590.272 254.032 590.969C254.053 591.437 254.14 591.731 253.919 592.166C252.537 594.88 246.763 596.159 244.054 596.916C247.251 598.735 253.153 601.113 255.065 604.231C255.431 604.829 255.649 605.576 255.4 606.263C255.064 607.193 254.204 607.641 253.339 607.95C250.176 607.596 244.8 603.49 241.692 601.956C242.092 604.76 243.024 608.498 242.413 611.255C242.212 612.161 241.716 613.001 240.835 613.395C240.223 613.669 239.637 613.567 239.128 613.142C236.654 611.08 236.671 602.141 236.009 598.849L235.926 598.455C228.419 593.666 220.543 588.956 212.592 584.949C212.35 593.696 212.592 602.51 212.589 611.265C215.307 613.614 221.877 617.419 223.169 620.672C223.625 621.82 223.379 622.449 222.894 623.491C222.501 623.808 222.307 624.076 221.785 624.143C219.069 624.489 214.593 619.897 212.623 618.272C212.685 622.103 212.758 625.922 212.593 629.751C212.529 630.208 212.485 630.761 212.32 631.191C212.069 631.846 211.37 632.512 210.677 632.713C209.847 632.956 209.624 632.888 208.882 632.557C206.564 629.937 207.541 622.219 207.442 618.673C205.226 620.102 201.716 623.693 199.087 623.785C198.32 623.811 197.687 623.58 197.179 622.978C196.859 622.598 196.7 622.026 196.738 621.536C197.002 618.134 204.675 613.604 207.299 611.52C207.438 602.745 207.437 593.969 207.294 585.194C199.371 589.503 191.562 594.17 183.902 598.931C183.67 601.94 183.428 610.077 181.721 612.318C181.069 613.173 180.231 613.464 179.195 613.588C178.685 613.358 178.443 613.343 178.12 612.862C176.376 610.266 177.906 604.767 178.538 601.938C175.333 603.377 170.846 607.223 167.372 607.327C166.603 607.35 165.928 607.089 165.406 606.503C164.953 605.994 164.745 605.396 164.912 604.72C165.643 601.754 172.435 598.949 174.975 597.609C172.538 596.6 167.168 595.304 165.787 592.956C165.54 592.535 165.449 592.126 165.575 591.66C165.767 590.948 166.33 590.271 167.004 589.94C169.426 588.752 177.961 592.923 180.45 593.989C183.396 592.56 186.251 590.682 189.095 589.037C194.182 586.141 199.239 583.191 204.263 580.188C198.226 576.246 187.262 569.511 180.834 566.798C177.042 568.195 172.502 570.542 168.432 570.586C167.646 570.594 166.881 570.357 166.384 569.704C165.821 568.965 165.874 568.634 165.964 567.777C167.784 564.998 172.586 564.174 175.641 563.282C172.648 561.441 168.158 559.653 165.922 556.958C165.31 556.22 164.884 555.348 165.073 554.363C165.231 553.536 165.789 553.212 166.438 552.799C170.022 552.335 174.759 556.046 177.746 557.835C177.599 555.361 176.726 550.175 178.06 548.046C178.461 547.405 178.847 547.029 179.61 546.883C180.055 546.797 180.766 546.978 181.108 547.243C183.629 549.196 183.624 558.663 183.883 561.709C191.755 565.9 199.128 571.022 207.101 575.065C207.272 566.283 207.308 557.498 207.207 548.714C204.667 546.275 197.71 542.07 196.816 538.851C196.612 538.119 196.563 537.469 197.014 536.817C197.297 536.406 197.845 536.014 198.326 535.931C200.909 535.487 205.081 539.357 207.088 540.843C207.024 537.476 206.174 531.981 207.545 528.963C208.025 527.907 208.727 527.603 209.745 527.253Z" fill="#8AD2F8"/>
<path d="M687.063 599.589C688.175 599.62 689.355 599.792 690.088 600.729C691.607 602.669 690.649 607.008 690.486 609.351C692.211 608.118 694.688 605.165 696.961 605.387C697.608 605.451 698.185 605.878 698.582 606.368C699.172 607.095 699.458 607.984 699.223 608.92C698.433 612.078 692.846 615.278 690.279 617.16C690.072 618.557 689.625 620.387 689.916 621.773C690.079 622.547 690.38 622.879 691.008 623.316C693.469 623.899 697.355 621.624 699.567 620.502C700.558 617.517 701.727 612.652 704.583 610.901C705.274 610.477 705.814 610.384 706.609 610.557C707.208 611.027 707.514 611.398 707.731 612.12C708.361 614.211 707.637 615.835 706.738 617.686C706.983 617.526 707.23 617.37 707.478 617.216C709.143 616.187 711.262 615.125 713.277 615.776C714.091 616.039 714.319 616.374 714.715 617.095C714.73 617.653 714.695 618.016 714.483 618.546C713.516 620.954 710.396 621.875 708.217 622.72C708.782 623.207 709.447 623.72 709.886 624.326C710.622 625.342 710.575 626.872 710.322 628.033C709.999 628.408 709.864 628.709 709.368 628.852C706.813 629.595 703.288 626.702 701.207 625.414C699.019 626.195 696.249 626.967 694.393 628.388C693.609 628.988 693.414 629.461 693.273 630.416C694.093 632.955 698.072 635.228 700.128 636.813C702.327 635.526 704.621 633.913 707.246 633.805C708.352 633.759 709.167 634.02 709.982 634.798C710.163 635.483 710.236 635.731 710.019 636.433C709.346 638.6 707.2 639.492 705.341 640.409C707.259 641.603 709.333 642.579 710.472 644.634C710.996 645.58 711.07 646.314 710.807 647.364C710.205 648.087 709.769 648.538 708.78 648.591C705.948 648.743 703.614 646.128 701.744 644.355C701.368 645.446 701.027 646.697 700.132 647.49C699.542 648.012 699.01 648.173 698.227 648.132C697.561 647.841 697.206 647.565 696.832 646.925C695.642 644.884 696.422 642.917 697.01 640.829C694.35 638.744 691.431 636.958 688.256 635.787C687.988 638.411 687.895 641.053 687.762 643.686C689.941 644.941 692.409 646.146 693.386 648.63C693.723 649.488 693.683 650.163 693.293 651.003C692.981 651.291 692.706 651.526 692.288 651.646C690.401 652.182 689.025 651.425 687.447 650.523L687.114 654.758C686.946 655.837 686.531 657.237 685.595 657.911C685.048 658.306 684.404 658.408 683.761 658.224C683.148 658.049 682.652 657.464 682.325 656.942C680.98 654.792 681.702 652.552 682.154 650.26C680.724 650.995 679.648 651.459 678.003 651.397C677.013 651.36 676.261 651.204 675.565 650.461C675.447 649.893 675.337 649.662 675.489 649.082C676.175 646.463 679.76 645.011 681.907 643.873C682.332 641.705 682.797 639.258 681.941 637.167C681.531 636.811 681.366 636.53 680.799 636.466C678.723 636.232 675.772 638.477 674.192 639.699C673.318 641.608 672.974 645.112 671.398 646.433C670.364 646.522 669.889 646.504 668.935 646.095C668.102 645.142 668.211 644.851 668.118 643.623C667.077 642.788 663.784 646.72 661.571 646.356C660.872 646.242 660.249 646.003 659.883 645.365C659.461 644.629 659.418 643.835 659.647 643.031C660.281 640.804 664.044 639.254 665.946 638.209C664.934 637.606 663.6 636.907 663.027 635.829C662.478 634.795 662.367 633.763 662.68 632.652C663.021 632.297 663.174 632.027 663.665 631.883C666.24 631.128 668.894 633.635 671.023 634.866C673.045 633.847 676.966 632.359 678.299 630.476C678.741 629.851 678.859 629.282 678.68 628.531C678.239 626.672 674.986 624.93 673.526 623.933C670.886 625.075 667.131 626.648 664.268 625.724C663.379 625.437 662.805 624.986 662.371 624.149C662.314 623.399 662.414 623.029 662.879 622.419C664.231 620.645 666.415 620.454 668.444 620.118C667.083 618.747 663.635 616.627 663.053 614.891C662.8 614.14 663.217 612.437 663.701 611.819C664.111 611.297 664.702 611.11 665.348 611.148C667.767 611.292 670.318 614.321 672.064 615.875C672.509 615.33 673.112 614.504 673.737 614.167C674.514 613.746 675.009 613.749 675.842 613.949C676.208 614.334 676.455 614.484 676.587 615.021C676.934 616.427 676.053 617.492 675.353 618.628C676.781 620.072 678.717 622.113 680.563 622.95C681.483 623.367 681.996 623.292 682.9 622.909C684.223 621.333 683.861 619.375 683.809 617.448C681.169 614.637 676.997 612.171 675.092 608.88C675.012 607.742 675.087 607.016 675.788 606.058C676.238 605.442 676.788 605 677.584 604.954C679.987 604.816 682.589 608.148 684.133 609.732C684.404 606.019 684.109 602.293 687.063 599.589Z" fill="#FDFDFD"/>
<path d="M281.787 464.21C282.762 464.272 283.598 464.452 284.253 465.243C286.272 467.679 285.552 472.55 285.405 475.481C286.978 473.403 288.634 470.886 291.236 470.055C292.188 469.751 292.767 469.901 293.621 470.357C293.914 470.868 294.003 471.133 293.99 471.741C293.935 474.205 291.341 476.457 289.75 478.075C291.013 478.11 292.307 478.114 293.562 478.265C295.515 478.501 297.449 479.236 298.664 480.828C298.822 481.555 298.935 481.911 298.439 482.575C296.783 484.798 291.684 484.285 289.208 484.261C290.583 485.786 292.136 487.355 293.118 489.168C293.783 490.397 294.162 491.414 293.745 492.787C293.235 493.212 293.098 493.363 292.398 493.372C289.848 493.404 287.167 490.306 285.425 488.667C285.417 490.366 285.439 492.067 285.384 493.763C285.316 495.863 284.965 497.304 283.416 498.777C282.993 498.878 282.565 498.971 282.125 498.957C281.373 498.934 280.65 498.578 280.207 497.957C278.757 495.921 279.476 491.723 279.615 489.358C277.928 491.225 276.226 493.721 273.635 494.327C272.863 494.508 272.311 494.437 271.628 494.026C271.259 493.453 271.09 493.008 271.088 492.314C271.082 488.874 274.354 486.199 276.602 484.039C274.693 484.028 272.609 484.166 270.729 483.81C268.937 483.472 267.422 482.933 266.371 481.387C266.304 480.705 266.181 480.384 266.672 479.824C268.584 477.642 272.405 477.851 275.01 477.889C274.948 477.829 274.885 477.771 274.824 477.711C273.338 476.256 271.015 474.182 271.181 471.895C271.233 471.192 271.443 470.583 272.041 470.174C272.745 469.695 273.347 469.665 274.17 469.811C276.553 470.234 278.094 472.599 279.426 474.398C279.44 472.407 279.379 470.355 279.559 468.374C279.738 466.398 280.303 465.475 281.787 464.21Z" fill="#FDFDFD"/>
<path d="M149.698 645.575C150.635 645.551 151.549 645.493 152.288 646.193C154.198 648.001 153.408 653.744 153.419 656.218C155.187 654.14 157.161 651.383 159.821 650.466C160.715 650.157 161.262 650.245 162.108 650.616C162.309 650.967 162.45 651.26 162.449 651.676C162.441 654.503 159.842 656.994 158.062 658.908C160.342 658.544 162.844 658.134 165.037 659.069C166.004 659.482 166.53 659.99 166.951 660.959C166.948 661.813 166.837 662.21 166.27 662.87C164.438 665.003 160.328 664.693 157.818 664.747C159.261 666.135 160.906 667.545 161.763 669.388C162.296 670.536 162.392 671.358 161.933 672.543C161.217 673.139 160.743 673.433 159.782 673.339C156.975 673.064 155.11 670.48 153.417 668.518C153.435 670.87 153.412 673.182 153.211 675.527C153.078 675.967 152.895 676.343 152.651 676.734C152.192 677.471 151.308 678.102 150.423 678.178C150.035 678.212 149.623 678.1 149.337 677.836C147.554 676.191 148.255 671.173 148.331 668.865C147.054 670.593 145.678 672.43 143.525 673.066C142.605 673.338 142.038 673.188 141.22 672.744C140.88 672.226 140.728 671.937 140.696 671.3C140.574 668.905 142.98 666.801 144.497 665.257C141.927 665.363 139.067 665.613 136.702 664.407C135.827 663.961 135.335 663.469 135 662.525C135.16 661.721 135.299 661.314 135.942 660.767C138.195 658.852 142.383 659.402 145.101 659.539C143.418 657.844 141.601 656.348 140.667 654.091C140.227 653.027 140.133 652.21 140.611 651.126C140.996 650.884 141.215 650.653 141.689 650.642C144.334 650.576 146.24 652.786 147.941 654.494C147.876 651.25 147.53 648.248 149.698 645.575Z" fill="#FDFDFD"/>
<path d="M528.55 456.684C534.58 455.51 540.422 459.436 541.614 465.461C542.807 471.488 538.899 477.342 532.877 478.553C526.829 479.769 520.943 475.841 519.745 469.789C518.548 463.736 522.494 457.863 528.55 456.684Z" fill="#FDFDFD"/>
<path d="M167.991 493.534C171.796 492.539 175.842 493.671 178.579 496.495C181.316 499.319 182.321 503.398 181.208 507.171C180.096 510.943 177.039 513.824 173.207 514.711C167.397 516.056 161.584 512.485 160.158 506.694C158.732 500.903 162.221 495.041 167.991 493.534Z" fill="#FDFDFD"/>
<path d="M693.941 697.744C699.505 696.435 705.082 699.865 706.423 705.42C707.765 710.977 704.367 716.573 698.818 717.946C693.225 719.331 687.573 715.899 686.221 710.298C684.869 704.697 688.332 699.065 693.941 697.744Z" fill="#FDFDFD"/>
<path d="M335.59 450.505C337.77 450.246 339.919 451.187 341.205 452.965C342.492 454.743 342.716 457.079 341.788 459.068C340.86 461.057 338.928 462.388 336.74 462.546C333.462 462.781 330.595 460.358 330.283 457.086C329.971 453.815 332.327 450.893 335.59 450.505Z" fill="#FDFDFD"/>
<path d="M602.834 594.944C606.048 594.569 608.982 596.804 609.473 600.001C609.964 603.199 607.836 606.212 604.658 606.818C602.498 607.229 600.285 606.429 598.889 604.731C597.493 603.032 597.136 600.706 597.958 598.667C598.78 596.627 600.651 595.199 602.834 594.944Z" fill="#FDFDFD"/>
<path d="M150.722 721.483C153.967 720.876 157.093 723.008 157.712 726.251C158.332 729.494 156.212 732.628 152.971 733.26C149.713 733.896 146.558 731.762 145.935 728.501C145.312 725.24 147.458 722.093 150.722 721.483Z" fill="#FDFDFD"/>
</svg>
