<svg width="849" height="1183" viewBox="0 0 849 1183" fill="none" xmlns="http://www.w3.org/2000/svg">
<rect x="5" y="5" width="839" height="1173" rx="45" fill="white"/>
<rect x="5" y="5" width="839" height="1173" rx="45" stroke="black" stroke-width="10"/>
<circle cx="786.5" cy="1124.5" r="11.5" fill="black"/>
<circle cx="786.5" cy="59.5" r="11.5" fill="black"/>
<path d="M77 1124.5C77 1130.85 71.8513 1136 65.5 1136C59.1487 1136 54 1130.85 54 1124.5C54 1118.15 59.1487 1113 65.5 1113C71.8513 1113 77 1118.15 77 1124.5Z" fill="black"/>
<path d="M77 59.5C77 65.8513 71.8513 71 65.5 71C59.1487 71 54 65.8513 54 59.5C54 53.1487 59.1487 48 65.5 48C71.8513 48 77 53.1487 77 59.5Z" fill="black"/>
<mask id="path-6-inside-1_97_36" fill="white">
<path d="M708 48C713.523 48 717.934 52.4996 718.616 57.9801C723.122 94.1833 751.817 122.878 788.02 127.384C793.5 128.066 798 132.477 798 138V1046C798 1051.52 793.5 1055.93 788.02 1056.62C751.817 1061.12 723.122 1089.82 718.616 1126.02C717.934 1131.5 713.523 1136 708 1136H141C135.477 1136 131.066 1131.5 130.384 1126.02C125.878 1089.82 97.1833 1061.12 60.9801 1056.62C55.4996 1055.93 51 1051.52 51 1046V138C51 132.477 55.4996 128.066 60.9801 127.384C97.1833 122.878 125.878 94.1833 130.384 57.9801C131.066 52.4996 135.477 48 141 48H708Z"/>
</mask>
<path d="M708 48C713.523 48 717.934 52.4996 718.616 57.9801C723.122 94.1833 751.817 122.878 788.02 127.384C793.5 128.066 798 132.477 798 138V1046C798 1051.52 793.5 1055.93 788.02 1056.62C751.817 1061.12 723.122 1089.82 718.616 1126.02C717.934 1131.5 713.523 1136 708 1136H141C135.477 1136 131.066 1131.5 130.384 1126.02C125.878 1089.82 97.1833 1061.12 60.9801 1056.62C55.4996 1055.93 51 1051.52 51 1046V138C51 132.477 55.4996 128.066 60.9801 127.384C97.1833 122.878 125.878 94.1833 130.384 57.9801C131.066 52.4996 135.477 48 141 48H708Z" fill="#C357B5"/>
<path d="M130.384 1126.02L138.322 1125.03L130.384 1126.02ZM718.616 1126.02L710.678 1125.03L718.616 1126.02ZM788.02 1056.62L789.008 1064.56L788.02 1056.62ZM718.616 57.9801L726.555 56.9922L718.616 57.9801ZM718.616 57.9801L710.678 58.9681C715.635 98.8063 747.194 130.365 787.032 135.322L788.02 127.384L789.008 119.445C756.44 115.392 730.608 89.5603 726.555 56.9922L718.616 57.9801ZM798 138H790V1046H798H806V138H798ZM788.02 1056.62L787.032 1048.68C747.194 1053.64 715.635 1085.19 710.678 1125.03L718.616 1126.02L726.555 1127.01C730.608 1094.44 756.44 1068.61 789.008 1064.56L788.02 1056.62ZM708 1136V1128H141V1136V1144H708V1136ZM130.384 1126.02L138.322 1125.03C133.365 1085.19 101.806 1053.64 61.9681 1048.68L60.9801 1056.62L59.9922 1064.56C92.5603 1068.61 118.392 1094.44 122.445 1127.01L130.384 1126.02ZM51 1046H59V138H51H43V1046H51ZM60.9801 127.384L61.9681 135.322C101.806 130.365 133.365 98.8063 138.322 58.9681L130.384 57.9801L122.445 56.9922C118.392 89.5603 92.5603 115.392 59.9922 119.445L60.9801 127.384ZM141 48V56H708V48V40H141V48ZM130.384 57.9801L138.322 58.9681C138.438 58.0389 138.872 57.2306 139.427 56.6958C139.954 56.1887 140.494 56 141 56V48V40C130.84 40 123.547 48.1329 122.445 56.9922L130.384 57.9801ZM51 138H59C59 137.494 59.1887 136.954 59.6958 136.427C60.2306 135.872 61.0389 135.438 61.9681 135.322L60.9801 127.384L59.9922 119.445C51.1329 120.547 43 127.84 43 138H51ZM60.9801 1056.62L61.9681 1048.68C61.0389 1048.56 60.2306 1048.13 59.6958 1047.57C59.1887 1047.05 59 1046.51 59 1046H51H43C43 1056.16 51.1329 1063.45 59.9922 1064.56L60.9801 1056.62ZM141 1136V1128C140.494 1128 139.954 1127.81 139.427 1127.3C138.872 1126.77 138.438 1125.96 138.322 1125.03L130.384 1126.02L122.445 1127.01C123.547 1135.87 130.84 1144 141 1144V1136ZM718.616 1126.02L710.678 1125.03C710.562 1125.96 710.128 1126.77 709.573 1127.3C709.046 1127.81 708.506 1128 708 1128V1136V1144C718.16 1144 725.453 1135.87 726.555 1127.01L718.616 1126.02ZM798 1046H790C790 1046.51 789.811 1047.05 789.304 1047.57C788.769 1048.13 787.961 1048.56 787.032 1048.68L788.02 1056.62L789.008 1064.56C797.867 1063.45 806 1056.16 806 1046H798ZM788.02 127.384L787.032 135.322C787.961 135.438 788.769 135.872 789.304 136.427C789.811 136.954 790 137.494 790 138H798H806C806 127.84 797.867 120.547 789.008 119.445L788.02 127.384ZM718.616 57.9801L726.555 56.9922C725.453 48.1329 718.16 40 708 40V48V56C708.506 56 709.046 56.1887 709.573 56.6958C710.128 57.2306 710.562 58.0389 710.678 58.9681L718.616 57.9801Z" fill="black" mask="url(#path-6-inside-1_97_36)"/>
<path d="M690 102C695.523 102 699.911 106.512 700.837 111.957C705.019 136.563 724.437 155.981 749.043 160.163C754.488 161.089 759 165.477 759 171V1014C759 1019.52 754.488 1023.91 749.043 1024.84C724.711 1028.97 705.454 1048 700.984 1072.22C699.993 1077.59 695.633 1082 690.175 1082H158.825C153.367 1082 149.007 1077.59 148.016 1072.22C143.546 1048 124.288 1028.97 99.9568 1024.84C94.5121 1023.91 90 1019.52 90 1014V171C90 165.477 94.512 161.089 99.9568 160.163C124.563 155.981 143.981 136.563 148.163 111.957C149.089 106.512 153.477 102 159 102H690Z" fill="#D78BCD"/>
<path d="M210.54 348.925V356.83H194.815V408H185.125V356.83H169.315V348.925H210.54ZM240.669 408.765C236.249 408.765 232.254 407.773 228.684 405.79C225.114 403.75 222.309 400.917 220.269 397.29C218.229 393.607 217.209 389.357 217.209 384.54C217.209 379.78 218.257 375.558 220.354 371.875C222.45 368.192 225.312 365.358 228.939 363.375C232.565 361.392 236.617 360.4 241.094 360.4C245.57 360.4 249.622 361.392 253.249 363.375C256.875 365.358 259.737 368.192 261.834 371.875C263.93 375.558 264.979 379.78 264.979 384.54C264.979 389.3 263.902 393.522 261.749 397.205C259.595 400.888 256.649 403.75 252.909 405.79C249.225 407.773 245.145 408.765 240.669 408.765ZM240.669 400.35C243.162 400.35 245.485 399.755 247.639 398.565C249.849 397.375 251.634 395.59 252.994 393.21C254.354 390.83 255.034 387.94 255.034 384.54C255.034 381.14 254.382 378.278 253.079 375.955C251.775 373.575 250.047 371.79 247.894 370.6C245.74 369.41 243.417 368.815 240.924 368.815C238.43 368.815 236.107 369.41 233.954 370.6C231.857 371.79 230.185 373.575 228.939 375.955C227.692 378.278 227.069 381.14 227.069 384.54C227.069 389.583 228.344 393.493 230.894 396.27C233.5 398.99 236.759 400.35 240.669 400.35ZM284.248 367.965C285.664 365.585 287.534 363.743 289.858 362.44C292.238 361.08 295.043 360.4 298.273 360.4V370.43H295.808C292.011 370.43 289.121 371.393 287.138 373.32C285.211 375.247 284.248 378.59 284.248 383.35V408H274.558V361.165H284.248V367.965ZM363.875 360.4C367.558 360.4 370.845 361.165 373.735 362.695C376.681 364.225 378.976 366.492 380.62 369.495C382.32 372.498 383.17 376.125 383.17 380.375V408H373.565V381.82C373.565 377.627 372.516 374.425 370.42 372.215C368.323 369.948 365.461 368.815 361.835 368.815C358.208 368.815 355.318 369.948 353.165 372.215C351.068 374.425 350.02 377.627 350.02 381.82V408H340.415V381.82C340.415 377.627 339.366 374.425 337.27 372.215C335.173 369.948 332.311 368.815 328.685 368.815C325.058 368.815 322.168 369.948 320.015 372.215C317.918 374.425 316.87 377.627 316.87 381.82V408H307.18V361.165H316.87V366.52C318.456 364.593 320.468 363.092 322.905 362.015C325.341 360.938 327.948 360.4 330.725 360.4C334.465 360.4 337.808 361.193 340.755 362.78C343.701 364.367 345.968 366.662 347.555 369.665C348.971 366.832 351.181 364.593 354.185 362.95C357.188 361.25 360.418 360.4 363.875 360.4ZM438.425 383.435C438.425 385.192 438.312 386.778 438.085 388.195H402.3C402.583 391.935 403.972 394.938 406.465 397.205C408.958 399.472 412.018 400.605 415.645 400.605C420.858 400.605 424.542 398.423 426.695 394.06H437.15C435.733 398.367 433.155 401.908 429.415 404.685C425.732 407.405 421.142 408.765 415.645 408.765C411.168 408.765 407.145 407.773 403.575 405.79C400.062 403.75 397.285 400.917 395.245 397.29C393.262 393.607 392.27 389.357 392.27 384.54C392.27 379.723 393.233 375.502 395.16 371.875C397.143 368.192 399.892 365.358 403.405 363.375C406.975 361.392 411.055 360.4 415.645 360.4C420.065 360.4 424.003 361.363 427.46 363.29C430.917 365.217 433.608 367.937 435.535 371.45C437.462 374.907 438.425 378.902 438.425 383.435ZM428.31 380.375C428.253 376.805 426.978 373.943 424.485 371.79C421.992 369.637 418.903 368.56 415.22 368.56C411.877 368.56 409.015 369.637 406.635 371.79C404.255 373.887 402.838 376.748 402.385 380.375H428.31ZM471.591 360.4C475.274 360.4 478.561 361.165 481.451 362.695C484.398 364.225 486.693 366.492 488.336 369.495C489.979 372.498 490.801 376.125 490.801 380.375V408H481.196V381.82C481.196 377.627 480.148 374.425 478.051 372.215C475.954 369.948 473.093 368.815 469.466 368.815C465.839 368.815 462.949 369.948 460.796 372.215C458.699 374.425 457.651 377.627 457.651 381.82V408H447.961V361.165H457.651V366.52C459.238 364.593 461.249 363.092 463.686 362.015C466.179 360.938 468.814 360.4 471.591 360.4ZM514.466 369.07V394.995C514.466 396.752 514.863 398.027 515.656 398.82C516.506 399.557 517.923 399.925 519.906 399.925H525.856V408H518.206C513.843 408 510.499 406.98 508.176 404.94C505.853 402.9 504.691 399.585 504.691 394.995V369.07H499.166V361.165H504.691V349.52H514.466V361.165H525.856V369.07H514.466ZM555.102 408.765C550.682 408.765 546.687 407.773 543.117 405.79C539.547 403.75 536.742 400.917 534.702 397.29C532.662 393.607 531.642 389.357 531.642 384.54C531.642 379.78 532.69 375.558 534.787 371.875C536.884 368.192 539.745 365.358 543.372 363.375C546.999 361.392 551.05 360.4 555.527 360.4C560.004 360.4 564.055 361.392 567.682 363.375C571.309 365.358 574.17 368.192 576.267 371.875C578.364 375.558 579.412 379.78 579.412 384.54C579.412 389.3 578.335 393.522 576.182 397.205C574.029 400.888 571.082 403.75 567.342 405.79C563.659 407.773 559.579 408.765 555.102 408.765ZM555.102 400.35C557.595 400.35 559.919 399.755 562.072 398.565C564.282 397.375 566.067 395.59 567.427 393.21C568.787 390.83 569.467 387.94 569.467 384.54C569.467 381.14 568.815 378.278 567.512 375.955C566.209 373.575 564.48 371.79 562.327 370.6C560.174 369.41 557.85 368.815 555.357 368.815C552.864 368.815 550.54 369.41 548.387 370.6C546.29 371.79 544.619 373.575 543.372 375.955C542.125 378.278 541.502 381.14 541.502 384.54C541.502 389.583 542.777 393.493 545.327 396.27C547.934 398.99 551.192 400.35 555.102 400.35ZM605.991 408.765C602.308 408.765 598.993 408.113 596.046 406.81C593.156 405.45 590.861 403.637 589.161 401.37C587.461 399.047 586.555 396.468 586.441 393.635H596.471C596.641 395.618 597.576 397.29 599.276 398.65C601.033 399.953 603.215 400.605 605.821 400.605C608.541 400.605 610.638 400.095 612.111 399.075C613.641 397.998 614.406 396.638 614.406 394.995C614.406 393.238 613.556 391.935 611.856 391.085C610.213 390.235 607.578 389.3 603.951 388.28C600.438 387.317 597.576 386.382 595.366 385.475C593.156 384.568 591.23 383.18 589.586 381.31C588 379.44 587.206 376.975 587.206 373.915C587.206 371.422 587.943 369.155 589.416 367.115C590.89 365.018 592.986 363.375 595.706 362.185C598.483 360.995 601.656 360.4 605.226 360.4C610.553 360.4 614.831 361.76 618.061 364.48C621.348 367.143 623.105 370.798 623.331 375.445H613.641C613.471 373.348 612.621 371.677 611.091 370.43C609.561 369.183 607.493 368.56 604.886 368.56C602.336 368.56 600.381 369.042 599.021 370.005C597.661 370.968 596.981 372.243 596.981 373.83C596.981 375.077 597.435 376.125 598.341 376.975C599.248 377.825 600.353 378.505 601.656 379.015C602.96 379.468 604.886 380.063 607.436 380.8C610.836 381.707 613.613 382.642 615.766 383.605C617.976 384.512 619.875 385.872 621.461 387.685C623.048 389.498 623.87 391.907 623.926 394.91C623.926 397.573 623.19 399.953 621.716 402.05C620.243 404.147 618.146 405.79 615.426 406.98C612.763 408.17 609.618 408.765 605.991 408.765ZM654.711 408.765C650.291 408.765 646.296 407.773 642.726 405.79C639.156 403.75 636.351 400.917 634.311 397.29C632.271 393.607 631.251 389.357 631.251 384.54C631.251 379.78 632.3 375.558 634.396 371.875C636.493 368.192 639.355 365.358 642.981 363.375C646.608 361.392 650.66 360.4 655.136 360.4C659.613 360.4 663.665 361.392 667.291 363.375C670.918 365.358 673.78 368.192 675.876 371.875C677.973 375.558 679.021 379.78 679.021 384.54C679.021 389.3 677.945 393.522 675.791 397.205C673.638 400.888 670.691 403.75 666.951 405.79C663.268 407.773 659.188 408.765 654.711 408.765ZM654.711 400.35C657.205 400.35 659.528 399.755 661.681 398.565C663.891 397.375 665.676 395.59 667.036 393.21C668.396 390.83 669.076 387.94 669.076 384.54C669.076 381.14 668.425 378.278 667.121 375.955C665.818 373.575 664.09 371.79 661.936 370.6C659.783 369.41 657.46 368.815 654.966 368.815C652.473 368.815 650.15 369.41 647.996 370.6C645.9 371.79 644.228 373.575 642.981 375.955C641.735 378.278 641.111 381.14 641.111 384.54C641.111 389.583 642.386 393.493 644.936 396.27C647.543 398.99 650.801 400.35 654.711 400.35Z" fill="black"/>
<mask id="path-10-outside-2_97_36" maskUnits="userSpaceOnUse" x="400" y="1022" width="45" height="32" fill="black">
<rect fill="white" x="400" y="1022" width="45" height="32"/>
<path d="M401.32 1031.04C401.48 1028.56 402.427 1026.63 404.16 1025.24C405.92 1023.85 408.16 1023.16 410.88 1023.16C412.747 1023.16 414.36 1023.49 415.72 1024.16C417.08 1024.83 418.107 1025.73 418.8 1026.88C419.493 1028.03 419.84 1029.32 419.84 1030.76C419.84 1032.41 419.4 1033.83 418.52 1035C417.64 1036.17 416.587 1036.96 415.36 1037.36V1037.52C416.933 1038 418.16 1038.88 419.04 1040.16C419.92 1041.41 420.36 1043.03 420.36 1045C420.36 1046.57 420 1047.97 419.28 1049.2C418.56 1050.43 417.493 1051.4 416.08 1052.12C414.667 1052.81 412.973 1053.16 411 1053.16C408.12 1053.16 405.747 1052.43 403.88 1050.96C402.04 1049.47 401.053 1047.33 400.92 1044.56H405.32C405.427 1045.97 405.973 1047.13 406.96 1048.04C407.947 1048.92 409.28 1049.36 410.96 1049.36C412.587 1049.36 413.84 1048.92 414.72 1048.04C415.6 1047.13 416.04 1045.97 416.04 1044.56C416.04 1042.69 415.44 1041.37 414.24 1040.6C413.067 1039.8 411.253 1039.4 408.8 1039.4H407.76V1035.64H408.84C411 1035.61 412.64 1035.25 413.76 1034.56C414.907 1033.87 415.48 1032.77 415.48 1031.28C415.48 1030 415.067 1028.99 414.24 1028.24C413.413 1027.47 412.24 1027.08 410.72 1027.08C409.227 1027.08 408.067 1027.47 407.24 1028.24C406.413 1028.99 405.92 1029.92 405.76 1031.04H401.32ZM427.67 1046.8C430.23 1044.59 432.243 1042.77 433.71 1041.36C435.203 1039.92 436.443 1038.43 437.43 1036.88C438.417 1035.33 438.91 1033.79 438.91 1032.24C438.91 1030.64 438.523 1029.39 437.75 1028.48C437.003 1027.57 435.817 1027.12 434.19 1027.12C432.617 1027.12 431.39 1027.63 430.51 1028.64C429.657 1029.63 429.203 1030.96 429.15 1032.64H424.75C424.83 1029.6 425.737 1027.28 427.47 1025.68C429.23 1024.05 431.457 1023.24 434.15 1023.24C437.057 1023.24 439.323 1024.04 440.95 1025.64C442.603 1027.24 443.43 1029.37 443.43 1032.04C443.43 1033.96 442.937 1035.81 441.95 1037.6C440.99 1039.36 439.83 1040.95 438.47 1042.36C437.137 1043.75 435.43 1045.36 433.35 1047.2L431.55 1048.8H444.23V1052.6H424.79V1049.28L427.67 1046.8Z"/>
</mask>
<path d="M401.32 1031.04C401.48 1028.56 402.427 1026.63 404.16 1025.24C405.92 1023.85 408.16 1023.16 410.88 1023.16C412.747 1023.16 414.36 1023.49 415.72 1024.16C417.08 1024.83 418.107 1025.73 418.8 1026.88C419.493 1028.03 419.84 1029.32 419.84 1030.76C419.84 1032.41 419.4 1033.83 418.52 1035C417.64 1036.17 416.587 1036.96 415.36 1037.36V1037.52C416.933 1038 418.16 1038.88 419.04 1040.16C419.92 1041.41 420.36 1043.03 420.36 1045C420.36 1046.57 420 1047.97 419.28 1049.2C418.56 1050.43 417.493 1051.4 416.08 1052.12C414.667 1052.81 412.973 1053.16 411 1053.16C408.12 1053.16 405.747 1052.43 403.88 1050.96C402.04 1049.47 401.053 1047.33 400.92 1044.56H405.32C405.427 1045.97 405.973 1047.13 406.96 1048.04C407.947 1048.92 409.28 1049.36 410.96 1049.36C412.587 1049.36 413.84 1048.92 414.72 1048.04C415.6 1047.13 416.04 1045.97 416.04 1044.56C416.04 1042.69 415.44 1041.37 414.24 1040.6C413.067 1039.8 411.253 1039.4 408.8 1039.4H407.76V1035.64H408.84C411 1035.61 412.64 1035.25 413.76 1034.56C414.907 1033.87 415.48 1032.77 415.48 1031.28C415.48 1030 415.067 1028.99 414.24 1028.24C413.413 1027.47 412.24 1027.08 410.72 1027.08C409.227 1027.08 408.067 1027.47 407.24 1028.24C406.413 1028.99 405.92 1029.92 405.76 1031.04H401.32ZM427.67 1046.8C430.23 1044.59 432.243 1042.77 433.71 1041.36C435.203 1039.92 436.443 1038.43 437.43 1036.88C438.417 1035.33 438.91 1033.79 438.91 1032.24C438.91 1030.64 438.523 1029.39 437.75 1028.48C437.003 1027.57 435.817 1027.12 434.19 1027.12C432.617 1027.12 431.39 1027.63 430.51 1028.64C429.657 1029.63 429.203 1030.96 429.15 1032.64H424.75C424.83 1029.6 425.737 1027.28 427.47 1025.68C429.23 1024.05 431.457 1023.24 434.15 1023.24C437.057 1023.24 439.323 1024.04 440.95 1025.64C442.603 1027.24 443.43 1029.37 443.43 1032.04C443.43 1033.96 442.937 1035.81 441.95 1037.6C440.99 1039.36 439.83 1040.95 438.47 1042.36C437.137 1043.75 435.43 1045.36 433.35 1047.2L431.55 1048.8H444.23V1052.6H424.79V1049.28L427.67 1046.8Z" fill="black"/>
<path d="M401.32 1031.04L401.021 1031.02L401 1031.34H401.32V1031.04ZM404.16 1025.24L403.974 1025L403.973 1025.01L404.16 1025.24ZM415.72 1024.16L415.588 1024.43L415.72 1024.16ZM418.8 1026.88L419.057 1026.72L418.8 1026.88ZM418.52 1035L418.76 1035.18V1035.18L418.52 1035ZM415.36 1037.36L415.267 1037.07L415.06 1037.14V1037.36H415.36ZM415.36 1037.52H415.06V1037.74L415.272 1037.81L415.36 1037.52ZM419.04 1040.16L418.793 1040.33L418.794 1040.33L419.04 1040.16ZM419.28 1049.2L419.021 1049.05L419.28 1049.2ZM416.08 1052.12L416.212 1052.39L416.216 1052.39L416.08 1052.12ZM403.88 1050.96L403.691 1051.19L403.695 1051.2L403.88 1050.96ZM400.92 1044.56V1044.26H400.605L400.62 1044.57L400.92 1044.56ZM405.32 1044.56L405.619 1044.54L405.598 1044.26H405.32V1044.56ZM406.96 1048.04L406.757 1048.26L406.76 1048.26L406.96 1048.04ZM414.72 1048.04L414.932 1048.25L414.935 1048.25L414.72 1048.04ZM414.24 1040.6L414.071 1040.85L414.077 1040.85L414.24 1040.6ZM407.76 1039.4H407.46V1039.7H407.76V1039.4ZM407.76 1035.64V1035.34H407.46V1035.64H407.76ZM408.84 1035.64V1035.94L408.844 1035.94L408.84 1035.64ZM413.76 1034.56L413.605 1034.3L413.602 1034.3L413.76 1034.56ZM414.24 1028.24L414.035 1028.46L414.039 1028.46L414.24 1028.24ZM407.24 1028.24L407.441 1028.46L407.445 1028.46L407.24 1028.24ZM405.76 1031.04V1031.34H406.02L406.057 1031.08L405.76 1031.04ZM401.32 1031.04L401.619 1031.06C401.775 1028.65 402.688 1026.8 404.347 1025.47L404.16 1025.24L403.973 1025.01C402.165 1026.45 401.185 1028.47 401.021 1031.02L401.32 1031.04ZM404.16 1025.24L404.346 1025.48C406.042 1024.14 408.213 1023.46 410.88 1023.46V1023.16V1022.86C408.108 1022.86 405.798 1023.57 403.974 1025L404.16 1025.24ZM410.88 1023.16V1023.46C412.711 1023.46 414.277 1023.79 415.588 1024.43L415.72 1024.16L415.852 1023.89C414.443 1023.2 412.782 1022.86 410.88 1022.86V1023.16ZM415.72 1024.16L415.588 1024.43C416.903 1025.07 417.883 1025.94 418.543 1027.04L418.8 1026.88L419.057 1026.72C418.33 1025.52 417.257 1024.58 415.852 1023.89L415.72 1024.16ZM418.8 1026.88L418.543 1027.04C419.206 1028.13 419.54 1029.37 419.54 1030.76H419.84H420.14C420.14 1029.27 419.78 1027.92 419.057 1026.72L418.8 1026.88ZM419.84 1030.76H419.54C419.54 1032.36 419.116 1033.71 418.28 1034.82L418.52 1035L418.76 1035.18C419.684 1033.95 420.14 1032.47 420.14 1030.76H419.84ZM418.52 1035L418.28 1034.82C417.432 1035.95 416.427 1036.7 415.267 1037.07L415.36 1037.36L415.453 1037.65C416.746 1037.22 417.848 1036.4 418.76 1035.18L418.52 1035ZM415.36 1037.36H415.06V1037.52H415.36H415.66V1037.36H415.36ZM415.36 1037.52L415.272 1037.81C416.785 1038.27 417.954 1039.11 418.793 1040.33L419.04 1040.16L419.287 1039.99C418.366 1038.65 417.082 1037.73 415.448 1037.23L415.36 1037.52ZM419.04 1040.16L418.794 1040.33C419.63 1041.52 420.06 1043.07 420.06 1045H420.36H420.66C420.66 1042.98 420.21 1041.3 419.286 1039.99L419.04 1040.16ZM420.36 1045H420.06C420.06 1046.53 419.711 1047.87 419.021 1049.05L419.28 1049.2L419.539 1049.35C420.289 1048.07 420.66 1046.62 420.66 1045H420.36ZM419.28 1049.2L419.021 1049.05C418.334 1050.22 417.312 1051.16 415.944 1051.85L416.08 1052.12L416.216 1052.39C417.674 1051.64 418.786 1050.63 419.539 1049.35L419.28 1049.2ZM416.08 1052.12L415.948 1051.85C414.585 1052.52 412.939 1052.86 411 1052.86V1053.16V1053.46C413.008 1053.46 414.749 1053.11 416.212 1052.39L416.08 1052.12ZM411 1053.16V1052.86C408.172 1052.86 405.869 1052.14 404.065 1050.72L403.88 1050.96L403.695 1051.2C405.625 1052.71 408.068 1053.46 411 1053.46V1053.16ZM403.88 1050.96L404.069 1050.73C402.307 1049.3 401.35 1047.25 401.22 1044.55L400.92 1044.56L400.62 1044.57C400.757 1047.42 401.773 1049.64 403.691 1051.19L403.88 1050.96ZM400.92 1044.56V1044.86H405.32V1044.56V1044.26H400.92V1044.56ZM405.32 1044.56L405.021 1044.58C405.133 1046.07 405.711 1047.3 406.757 1048.26L406.96 1048.04L407.163 1047.82C406.236 1046.97 405.72 1045.88 405.619 1044.54L405.32 1044.56ZM406.96 1048.04L406.76 1048.26C407.816 1049.21 409.227 1049.66 410.96 1049.66V1049.36V1049.06C409.333 1049.06 408.078 1048.63 407.16 1047.82L406.96 1048.04ZM410.96 1049.36V1049.66C412.641 1049.66 413.98 1049.2 414.932 1048.25L414.72 1048.04L414.508 1047.83C413.7 1048.64 412.533 1049.06 410.96 1049.06V1049.36ZM414.72 1048.04L414.935 1048.25C415.876 1047.28 416.34 1046.04 416.34 1044.56H416.04H415.74C415.74 1045.91 415.324 1046.99 414.505 1047.83L414.72 1048.04ZM416.04 1044.56H416.34C416.34 1042.63 415.714 1041.19 414.403 1040.35L414.24 1040.6L414.077 1040.85C415.166 1041.55 415.74 1042.76 415.74 1044.56H416.04ZM414.24 1040.6L414.409 1040.35C413.161 1039.5 411.275 1039.1 408.8 1039.1V1039.4V1039.7C411.232 1039.7 412.972 1040.1 414.071 1040.85L414.24 1040.6ZM408.8 1039.4V1039.1H407.76V1039.4V1039.7H408.8V1039.4ZM407.76 1039.4H408.06V1035.64H407.76H407.46V1039.4H407.76ZM407.76 1035.64V1035.94H408.84V1035.64V1035.34H407.76V1035.64ZM408.84 1035.64L408.844 1035.94C411.027 1035.91 412.731 1035.55 413.918 1034.82L413.76 1034.56L413.602 1034.3C412.549 1034.96 410.973 1035.31 408.836 1035.34L408.84 1035.64ZM413.76 1034.56L413.915 1034.82C415.163 1034.06 415.78 1032.86 415.78 1031.28H415.48H415.18C415.18 1032.68 414.65 1033.67 413.605 1034.3L413.76 1034.56ZM415.48 1031.28H415.78C415.78 1029.93 415.34 1028.83 414.441 1028.02L414.24 1028.24L414.039 1028.46C414.793 1029.14 415.18 1030.07 415.18 1031.28H415.48ZM414.24 1028.24L414.445 1028.02C413.546 1027.18 412.289 1026.78 410.72 1026.78V1027.08V1027.38C412.191 1027.38 413.281 1027.75 414.035 1028.46L414.24 1028.24ZM410.72 1027.08V1026.78C409.176 1026.78 407.933 1027.18 407.035 1028.02L407.24 1028.24L407.445 1028.46C408.2 1027.75 409.278 1027.38 410.72 1027.38V1027.08ZM407.24 1028.24L407.039 1028.02C406.159 1028.81 405.633 1029.81 405.463 1031L405.76 1031.04L406.057 1031.08C406.207 1030.03 406.667 1029.16 407.441 1028.46L407.24 1028.24ZM405.76 1031.04V1030.74H401.32V1031.04V1031.34H405.76V1031.04ZM427.67 1046.8L427.866 1047.03L427.866 1047.03L427.67 1046.8ZM433.71 1041.36L433.918 1041.58L433.918 1041.58L433.71 1041.36ZM437.75 1028.48L437.518 1028.67L437.522 1028.67L437.75 1028.48ZM430.51 1028.64L430.283 1028.44L430.283 1028.44L430.51 1028.64ZM429.15 1032.64V1032.94H429.441L429.45 1032.65L429.15 1032.64ZM424.75 1032.64L424.45 1032.63L424.442 1032.94H424.75V1032.64ZM427.47 1025.68L427.673 1025.9L427.674 1025.9L427.47 1025.68ZM440.95 1025.64L440.74 1025.85L440.741 1025.86L440.95 1025.64ZM441.95 1037.6L441.687 1037.45L441.687 1037.46L441.95 1037.6ZM438.47 1042.36L438.254 1042.15L438.254 1042.15L438.47 1042.36ZM433.35 1047.2L433.151 1046.98L433.151 1046.98L433.35 1047.2ZM431.55 1048.8L431.351 1048.58L430.761 1049.1H431.55V1048.8ZM444.23 1048.8H444.53V1048.5H444.23V1048.8ZM444.23 1052.6V1052.9H444.53V1052.6H444.23ZM424.79 1052.6H424.49V1052.9H424.79V1052.6ZM424.79 1049.28L424.594 1049.05L424.49 1049.14V1049.28H424.79ZM427.67 1046.8L427.866 1047.03C430.428 1044.81 432.446 1042.99 433.918 1041.58L433.71 1041.36L433.502 1041.14C432.041 1042.55 430.032 1044.36 427.474 1046.57L427.67 1046.8ZM433.71 1041.36L433.918 1041.58C435.426 1040.12 436.682 1038.61 437.683 1037.04L437.43 1036.88L437.177 1036.72C436.205 1038.24 434.98 1039.72 433.502 1041.14L433.71 1041.36ZM437.43 1036.88L437.683 1037.04C438.695 1035.46 439.21 1033.85 439.21 1032.24H438.91H438.61C438.61 1033.72 438.139 1035.21 437.177 1036.72L437.43 1036.88ZM438.91 1032.24H439.21C439.21 1030.59 438.812 1029.26 437.978 1028.29L437.75 1028.48L437.522 1028.67C438.235 1029.51 438.61 1030.69 438.61 1032.24H438.91ZM437.75 1028.48L437.982 1028.29C437.158 1027.29 435.87 1026.82 434.19 1026.82V1027.12V1027.42C435.763 1027.42 436.848 1027.86 437.518 1028.67L437.75 1028.48ZM434.19 1027.12V1026.82C432.546 1026.82 431.23 1027.35 430.283 1028.44L430.51 1028.64L430.737 1028.84C431.55 1027.9 432.687 1027.42 434.19 1027.42V1027.12ZM430.51 1028.64L430.283 1028.44C429.373 1029.5 428.905 1030.9 428.85 1032.63L429.15 1032.64L429.45 1032.65C429.502 1031.02 429.94 1029.76 430.737 1028.84L430.51 1028.64ZM429.15 1032.64V1032.34H424.75V1032.64V1032.94H429.15V1032.64ZM424.75 1032.64L425.05 1032.65C425.128 1029.66 426.016 1027.43 427.673 1025.9L427.47 1025.68L427.267 1025.46C425.458 1027.13 424.532 1029.54 424.45 1032.63L424.75 1032.64ZM427.47 1025.68L427.674 1025.9C429.371 1024.33 431.522 1023.54 434.15 1023.54V1023.24V1022.94C431.391 1022.94 429.089 1023.78 427.266 1025.46L427.47 1025.68ZM434.15 1023.24V1023.54C437.001 1023.54 439.183 1024.32 440.74 1025.85L440.95 1025.64L441.16 1025.43C439.463 1023.76 437.113 1022.94 434.15 1022.94V1023.24ZM440.95 1025.64L440.741 1025.86C442.327 1027.39 443.13 1029.44 443.13 1032.04H443.43H443.73C443.73 1029.31 442.88 1027.09 441.159 1025.42L440.95 1025.64ZM443.43 1032.04H443.13C443.13 1033.91 442.651 1035.71 441.687 1037.45L441.95 1037.6L442.213 1037.75C443.222 1035.92 443.73 1034.01 443.73 1032.04H443.43ZM441.95 1037.6L441.687 1037.46C440.739 1039.19 439.595 1040.76 438.254 1042.15L438.47 1042.36L438.686 1042.57C440.065 1041.14 441.241 1039.53 442.213 1037.74L441.95 1037.6ZM438.47 1042.36L438.254 1042.15C436.928 1043.53 435.228 1045.14 433.151 1046.98L433.35 1047.2L433.549 1047.42C435.632 1045.58 437.345 1043.96 438.686 1042.57L438.47 1042.36ZM433.35 1047.2L433.151 1046.98L431.351 1048.58L431.55 1048.8L431.749 1049.02L433.549 1047.42L433.35 1047.2ZM431.55 1048.8V1049.1H444.23V1048.8V1048.5H431.55V1048.8ZM444.23 1048.8H443.93V1052.6H444.23H444.53V1048.8H444.23ZM444.23 1052.6V1052.3H424.79V1052.6V1052.9H444.23V1052.6ZM424.79 1052.6H425.09V1049.28H424.79H424.49V1052.6H424.79ZM424.79 1049.28L424.986 1049.51L427.866 1047.03L427.67 1046.8L427.474 1046.57L424.594 1049.05L424.79 1049.28Z" fill="black" mask="url(#path-10-outside-2_97_36)"/>
<path d="M256.81 272.735C248.2 272.735 241.13 270.705 235.6 266.645C230.07 262.515 227.095 256.635 226.675 249.005H248.62C248.83 251.595 249.6 253.485 250.93 254.675C252.26 255.865 253.975 256.46 256.075 256.46C257.965 256.46 259.505 256.005 260.695 255.095C261.955 254.115 262.585 252.785 262.585 251.105C262.585 248.935 261.57 247.255 259.54 246.065C257.51 244.875 254.22 243.545 249.67 242.075C244.84 240.465 240.92 238.925 237.91 237.455C234.97 235.915 232.38 233.71 230.14 230.84C227.97 227.9 226.885 224.085 226.885 219.395C226.885 214.635 228.075 210.575 230.455 207.215C232.835 203.785 236.125 201.195 240.325 199.445C244.525 197.695 249.285 196.82 254.605 196.82C263.215 196.82 270.075 198.85 275.185 202.91C280.365 206.9 283.13 212.535 283.48 219.815H261.115C261.045 217.575 260.345 215.895 259.015 214.775C257.755 213.655 256.11 213.095 254.08 213.095C252.54 213.095 251.28 213.55 250.3 214.46C249.32 215.37 248.83 216.665 248.83 218.345C248.83 219.745 249.355 220.97 250.405 222.02C251.525 223 252.89 223.875 254.5 224.645C256.11 225.345 258.49 226.255 261.64 227.375C266.33 228.985 270.18 230.595 273.19 232.205C276.27 233.745 278.895 235.95 281.065 238.82C283.305 241.62 284.425 245.19 284.425 249.53C284.425 253.94 283.305 257.895 281.065 261.395C278.895 264.895 275.71 267.66 271.51 269.69C267.38 271.72 262.48 272.735 256.81 272.735ZM328.747 254.465V272H319.822C304.772 272 297.247 264.545 297.247 249.635V230.21H290.002V213.095H297.247V198.815H317.932V213.095H328.642V230.21H317.932V249.95C317.932 251.56 318.282 252.715 318.982 253.415C319.752 254.115 321.012 254.465 322.762 254.465H328.747ZM365.592 272.735C359.712 272.735 354.427 271.51 349.737 269.06C345.117 266.61 341.477 263.11 338.817 258.56C336.157 254.01 334.827 248.655 334.827 242.495C334.827 236.405 336.157 231.085 338.817 226.535C341.547 221.985 345.222 218.485 349.842 216.035C354.532 213.585 359.817 212.36 365.697 212.36C371.577 212.36 376.827 213.585 381.447 216.035C386.137 218.485 389.812 221.985 392.472 226.535C395.202 231.085 396.567 236.405 396.567 242.495C396.567 248.585 395.202 253.94 392.472 258.56C389.812 263.11 386.137 266.61 381.447 269.06C376.757 271.51 371.472 272.735 365.592 272.735ZM365.592 254.885C368.462 254.885 370.842 253.835 372.732 251.735C374.692 249.565 375.672 246.485 375.672 242.495C375.672 238.505 374.692 235.46 372.732 233.36C370.842 231.26 368.497 230.21 365.697 230.21C362.897 230.21 360.552 231.26 358.662 233.36C356.772 235.46 355.827 238.505 355.827 242.495C355.827 246.555 356.737 249.635 358.557 251.735C360.377 253.835 362.722 254.885 365.592 254.885ZM425.52 223.49C427.83 220.13 430.63 217.47 433.92 215.51C437.21 213.55 440.745 212.57 444.525 212.57V234.515H438.75C434.27 234.515 430.945 235.39 428.775 237.14C426.605 238.89 425.52 241.935 425.52 246.275V272H404.94V213.095H425.52V223.49ZM528.867 212.57C536.287 212.57 542.097 214.81 546.297 219.29C550.567 223.77 552.702 229.895 552.702 237.665V272H532.122V240.395C532.122 237.245 531.247 234.795 529.497 233.045C527.747 231.295 525.367 230.42 522.357 230.42C519.347 230.42 516.967 231.295 515.217 233.045C513.467 234.795 512.592 237.245 512.592 240.395V272H492.012V240.395C492.012 237.245 491.137 234.795 489.387 233.045C487.707 231.295 485.362 230.42 482.352 230.42C479.272 230.42 476.857 231.295 475.107 233.045C473.357 234.795 472.482 237.245 472.482 240.395V272H451.902V213.095H472.482V220.865C474.302 218.345 476.647 216.35 479.517 214.88C482.457 213.34 485.817 212.57 489.597 212.57C493.937 212.57 497.787 213.515 501.147 215.405C504.577 217.295 507.272 219.955 509.232 223.385C511.332 220.165 514.097 217.575 517.527 215.615C520.957 213.585 524.737 212.57 528.867 212.57ZM627.398 213.095L590.018 300.035H567.653L581.723 269.48L557.573 213.095H580.463L592.853 246.485L604.823 213.095H627.398Z" fill="black"/>
<path d="M359.847 432.165C370.726 431.395 382.875 433.376 393.105 436.851C416.527 444.807 434.418 462.09 445.207 484.043C455.15 469.388 472.233 456.932 488.712 450.934C511.365 442.69 539.347 443.851 561.134 454.169C583.208 464.622 599.685 482.628 607.925 505.608C612.834 504.375 618.335 504.502 623.285 505.429C634.418 507.443 644.267 513.864 650.602 523.238C656.73 532.3 658.965 543.441 656.807 554.165C659.872 554.571 662.892 555.271 665.824 556.255C683.034 561.861 697.308 574.082 705.498 590.225C713.089 605.305 714.755 623.747 709.32 639.782C703.663 656.469 691.23 671.651 675.249 679.385C661.553 686.013 643.381 688.092 628.881 683.08C615.127 701.051 601.277 718.947 587.33 736.77C595.354 736.84 603.375 737.099 611.397 737.128C617.417 737.15 627.345 736.387 632.945 737.765C635.333 738.375 637.368 739.934 638.58 742.079C640.115 744.736 640.199 748.059 639.377 750.965C638.879 752.726 637.997 753.998 636.88 755.414C632.885 760.477 628.507 765.314 624.315 770.218L599.899 798.617C577.02 825.122 553.953 851.463 530.699 877.638L472.037 943.219C461.832 954.547 451.869 966.453 441.109 977.234C439.413 978.934 437.103 981.279 434.923 982.315C432.931 983.259 430.469 983.191 428.47 982.333C426.982 981.694 425.88 980.67 425.293 979.142C424.229 976.37 425.123 973.214 426.077 970.542C428.34 964.207 431.624 957.994 434.405 951.856C439.268 941.139 444.052 930.386 448.757 919.598L485.066 836.838C491.614 821.947 498.37 807.132 504.746 792.167C485.375 792.062 466.016 792.514 446.648 792.505C445.528 794.789 444.39 796.928 442.785 798.913C438.385 804.35 431.612 807.817 424.677 808.509C417.492 809.227 410.253 807.537 404.655 802.838C399.367 798.399 396.316 792.16 395.75 785.311C393.943 763.465 407.211 735.642 421.129 719.021C421.88 718.053 422.818 717.172 423.658 716.276C425.835 719.377 428.295 722.223 430.299 725.458C437.292 736.747 442.132 750.446 445.833 763.153C457.532 739.852 469.504 716.69 481.746 693.671C474.838 691.863 468.65 688.578 462.696 684.732C459.95 687.648 457.218 690.568 454.088 693.082C440.743 703.801 423.4 708.184 406.511 706.27C387.804 704.15 371.941 694.881 360.26 680.273C353.268 692.405 345.291 704.136 337.753 715.945C345.477 715.452 353.213 715.679 360.946 715.502C369.99 715.296 384.328 714.511 392.937 715.613C396.004 716.006 398.843 716.985 400.728 719.597C402.188 721.621 402.601 724.301 402.145 726.72C401.687 729.151 400.461 731.332 398.99 733.29C395.25 738.268 391.104 743.029 387.173 747.86L363.31 777.241C332.611 815.516 301.63 853.562 270.368 891.377L255.202 909.63C250.489 915.388 241.231 928.415 235.426 932.069C233.536 933.258 231.171 933.947 228.953 933.402C227.14 932.956 225.401 931.726 224.512 930.063C223.374 927.93 223.832 925.339 224.318 923.092C225.777 916.357 228.121 909.734 230.277 903.194C233.617 893.116 237.019 883.058 240.481 873.021C251.535 840.743 263.015 808.529 273.596 776.097C264.277 776.393 254.96 776.768 245.647 777.223C240.445 777.454 235.129 777.918 229.926 777.7C228.206 777.628 226.237 777.486 224.679 776.715C222.658 775.714 221.136 773.512 220.408 771.432C219.77 769.607 219.619 767.692 220.104 765.814C221.967 758.613 229.304 744.485 232.623 737.338C241.367 718.29 250.258 699.311 259.295 680.4C255.91 678.63 252.681 676.578 249.64 674.267C242.342 678.808 234.26 682.124 225.637 682.907C211.781 684.166 200.534 679.522 190.068 670.734C180.221 673.421 170.083 673.452 160.608 669.25C150.963 665.014 143.408 657.105 139.619 647.276C135.703 636.613 136.195 624.828 140.987 614.528C145.969 603.887 154.653 597.403 165.475 593.416C165.075 577.563 170.336 562.248 179.008 549.087C189.936 532.491 206.988 520.894 226.439 516.83C229.092 502.73 235.603 491.501 247.496 483.149C260.322 474.141 274.65 471.498 289.935 474.111C292.514 469.568 295.917 465.341 299.387 461.44C314.826 444.003 336.595 433.463 359.847 432.165Z" fill="black"/>
<path d="M443.287 521.968C448.588 505.671 457.102 491.995 470.222 480.812C486.312 467.096 505.938 460.471 527.046 462.209C547.463 463.89 566.537 472.805 579.848 488.559C586.251 494.568 590.594 504.8 593.185 513.029C594.018 515.675 594.779 518.412 595.338 521.128C595.64 522.601 595.694 524.223 596.144 525.649C596.321 526.207 596.309 526.285 596.848 526.554L597.063 526.512C602.146 521.981 609.495 519.834 616.216 520.204C623.223 520.59 630.151 523.77 634.777 529.081C635.766 530.216 636.713 531.476 637.522 532.745C641.515 537.942 642.686 545.143 641.831 551.529C640.969 557.965 637.966 563.575 634.879 569.187C638.948 568.994 643.079 568.716 647.145 568.986C658.847 569.762 671.329 574.374 680.049 582.37C680.426 582.716 680.798 583.068 681.164 583.425C690.129 591.413 695.687 604.729 696.406 616.578C697.241 630.351 692.292 643.411 683.086 653.614C673.74 663.974 661.56 669.762 647.607 670.371C640.159 670.696 632.048 669.247 626.414 664.016C622.184 660.089 620.03 655.017 618.222 649.648C609.905 661.809 598.81 670.765 584.035 673.531C573.293 675.543 561.835 673.903 552.725 667.631C551.135 666.535 549.629 665.335 548.131 664.118C533.353 676.164 516.273 682.782 496.993 680.746C481.974 679.16 468.554 672.391 457.941 661.702C451.632 674.962 445.786 682.702 431.437 687.843C418.4 692.514 403.268 691.621 390.794 685.676C384.677 682.761 380.576 678.97 375.864 674.218C383.2 668.119 385.344 663.509 388.422 654.585C377.099 663.191 361.112 666.938 347.059 664.993C333.391 663.171 321.062 655.846 312.926 644.714C311.169 642.349 309.155 639.475 308.186 636.67C306.799 634.084 305.704 631.441 304.914 628.614L304.784 628.218C300.661 615.485 302.35 601.318 308.447 589.517C314.998 576.839 326.321 566.517 340.03 562.24C352.651 558.301 365.63 559.97 377.243 566.098C385.057 569.016 396.604 580.674 401.469 587.185C400.173 578.498 399.297 571.275 394.274 563.751C388.885 555.679 379.575 547.844 369.86 545.884C368.265 545.409 366.57 545.159 364.937 544.835C367.054 539.554 369.936 534.612 373.492 530.17C382.432 519.01 395.362 512.943 409.438 511.486C422.139 510.171 433.425 514.022 443.287 521.968Z" fill="#717071"/>
<path d="M681.164 583.425C690.129 591.413 695.687 604.729 696.406 616.578C697.241 630.351 692.292 643.411 683.087 653.614C673.74 663.974 661.56 669.762 647.607 670.371C640.159 670.696 632.048 669.247 626.414 664.016C622.184 660.089 620.03 655.017 618.222 649.648C609.905 661.809 598.81 670.765 584.035 673.531C573.293 675.543 561.835 673.903 552.725 667.631C551.135 666.535 549.629 665.335 548.131 664.118C533.353 676.164 516.273 682.782 496.993 680.746C481.974 679.16 468.554 672.391 457.941 661.702C451.632 674.962 445.786 682.702 431.437 687.843C418.401 692.514 403.269 691.621 390.794 685.676C384.677 682.761 380.577 678.97 375.864 674.218C383.2 668.119 385.344 663.509 388.422 654.585C377.099 663.191 361.112 666.938 347.059 664.993C333.392 663.171 321.062 655.846 312.926 644.714C311.169 642.349 309.155 639.474 308.187 636.67C310.355 637.854 312.322 640.029 314.239 641.632C316.977 643.915 319.873 646.001 322.906 647.873C334.595 655.056 348.544 658.598 362.042 655.347C376.619 651.837 388.634 641.863 396.39 629.27C399.792 632.892 403.71 635.99 408.019 638.463C420.363 645.536 435.04 647.327 448.721 643.428C462.774 639.526 474.114 630.593 481.218 617.973C485.323 620.831 489.455 623.222 494.117 625.072C508.328 630.755 524.231 630.453 538.216 624.234C551.793 618.247 560.366 607.903 565.584 594.269C568.491 598.664 571.857 602.266 576.159 605.333C585.903 612.28 597.798 616.024 609.768 613.962C620.809 612.061 630.161 605.954 636.585 596.815C638.919 601.514 641.436 605.693 645.696 608.896C650.462 612.479 656.433 614.149 662.357 613.253C668.375 612.343 673.81 608.841 677.361 603.927C681.912 597.627 682.319 590.849 681.164 583.425Z" fill="#45403F"/>
<path d="M443.287 521.968C448.588 505.671 457.102 491.995 470.221 480.812C486.312 467.096 505.938 460.471 527.045 462.209C547.462 463.89 566.537 472.805 579.848 488.559C579.741 488.548 579.632 488.548 579.528 488.524C579.222 488.453 566.783 480.908 564.46 479.757C540.343 467.805 512.057 467.316 488.034 479.947C470.219 489.182 456.9 505.235 451.111 524.448C450.29 527.118 449.616 529.861 449.038 532.594C436.712 523.389 424.76 519.357 409.248 521.67C392.62 524.147 380.319 533.176 369.86 545.884C368.265 545.409 366.57 545.159 364.936 544.835C367.053 539.554 369.935 534.612 373.491 530.17C382.431 519.01 395.362 512.943 409.438 511.486C422.138 510.171 433.425 514.022 443.287 521.968Z" fill="#EEEEF0"/>
<path d="M304.914 628.614L304.784 628.218C300.661 615.485 302.35 601.318 308.447 589.517C314.998 576.84 326.321 566.517 340.03 562.24C352.651 558.301 365.63 559.97 377.243 566.098L376.663 566.089C372.967 566.001 369.373 565.56 365.639 565.668C351.171 566.084 336.569 571.065 325.871 581.09C316.953 589.448 309.983 602.162 307.142 614.007C306.289 617.517 305.765 621.098 305.578 624.705C305.535 625.432 305.66 627.81 305.317 628.359C305.232 628.493 305.049 628.529 304.914 628.614Z" fill="#EEEEF0"/>
<path d="M597.063 526.512C602.147 521.981 609.496 519.834 616.217 520.204C623.223 520.589 630.152 523.769 634.777 529.081C635.766 530.216 636.714 531.475 637.523 532.745C634.855 532.548 628.594 528.89 623.869 528.16C614.36 526.692 605.731 529.664 598.091 535.238C597.964 532.407 597.99 529.208 597.063 526.512Z" fill="#EEEEF0"/>
<path d="M508.034 484.911C508.348 484.891 508.662 484.875 508.977 484.863C511.684 484.771 513.994 485.526 515.967 487.44C517.484 488.911 518.556 490.951 518.476 493.104C518.205 500.389 504.962 502.586 499.576 505.032C493.16 507.947 487.619 512.426 483.056 517.779C480.613 520.645 478.358 523.708 475.67 526.351C474.937 526.868 474.166 527.307 473.287 527.524C471.947 527.856 470.318 527.795 469.154 526.984C467.718 525.984 466.726 524.509 466.429 522.781C465.602 517.984 469.019 512.224 471.783 508.528C479.604 498.066 494.903 486.845 508.034 484.911Z" fill="#EEEEF0"/>
<path d="M578.27 533.549C582.343 533.204 586.76 533.734 590.378 535.708C596.728 539.172 599.561 545.586 601.511 552.192C609.728 551.149 617.169 552.29 623.948 557.306C631.986 563.255 634.74 569.721 636.148 579.277C633.714 574.576 631.077 571.162 626.822 567.963C624.056 566.056 620.793 564.641 617.543 563.808C608.357 561.453 598.901 563.956 590.908 568.666C591.348 561.429 591.432 553.404 586.521 547.498C580.797 540.614 571.825 539.676 563.489 538.962C568.376 535.863 572.467 534.053 578.27 533.549Z" fill="black"/>
<path d="M485.36 561.217C487.073 561.169 488.806 561.382 490.513 561.519C477.242 568.501 470.175 580.798 464.905 594.326C461.597 593.44 458.473 592.807 455.034 592.851C445.924 592.965 436.742 597.188 430.417 603.68C429.436 605.011 428.478 606.361 427.542 607.725C428.2 601.816 429.806 596.881 433.685 592.286C440.38 584.354 448.68 581.835 458.673 580.986C460.317 578.356 462.031 575.772 464.017 573.383C469.574 566.701 476.567 562.01 485.36 561.217Z" fill="black"/>
<path d="M346.968 580.782C347.991 580.669 349.004 580.622 350.025 580.802C352.182 581.183 354.681 582.824 355.831 584.698C356.472 585.74 356.652 586.882 356.331 588.066C354.651 594.272 345.232 595.943 341.166 600.344C337.247 604.586 336.822 610.745 331.585 613.976C331.45 614.022 331.317 614.074 331.18 614.115C329.339 614.666 326.524 614.8 324.789 613.861C323.689 613.265 322.996 612.301 322.679 611.099C321.492 606.596 324.226 600.298 326.524 596.491C330.911 589.228 338.694 582.878 346.968 580.782Z" fill="#EEEEF0"/>
<path d="M298.376 495.325C302.756 480.897 312.699 468.884 325.103 460.496C340.459 450.11 360.514 446.31 378.67 449.971C395.423 453.348 413.206 463.491 422.841 477.895C427.429 482.97 430.989 491.503 432.754 498.018C415.885 492.836 396.775 494.901 381.232 503.193C364.465 512.139 354.757 527.033 348.656 544.589C330.622 546.178 315.446 553.868 303.804 567.83C298.885 573.729 295.137 580.252 291.824 587.146C290.377 591.663 288.827 596.168 287.95 600.84C285.118 615.92 287.888 632.362 294.879 645.94C298.995 653.934 304.955 661.512 312.079 667.058C298.738 672.88 284.495 673.765 270.825 668.328C261.901 664.778 255.195 659.28 249.694 651.451C244.298 659.318 236.996 664.839 227.456 666.572C219.58 668.002 211.214 666.81 204.613 662.106C200.46 659.198 197.234 655.153 195.322 650.457C188.264 655.334 180.605 657.901 171.955 656.299C165.8 655.106 160.369 651.525 156.848 646.337C153.215 640.909 151.888 634.259 153.158 627.852C153.816 624.464 155.177 621.461 156.981 618.543C158.281 616.461 160.093 614.542 162.008 613.011C168.06 608.171 175.168 607.431 182.634 608.204C182.11 605.433 181.758 602.632 181.58 599.817C181.544 598.986 181.517 598.157 181.499 597.326C181.082 579.384 186.502 562.902 199.103 549.824C211.105 537.369 225.192 531.467 242.335 531.13C240.887 522.014 242.411 513.077 247.529 505.304C252.865 497.199 261.751 491.697 271.199 489.78C281.415 487.707 289.774 489.67 298.376 495.325Z" fill="#717071"/>
<path d="M225.13 610.455C230.079 613.436 235.298 614.607 241.039 614.726C256.045 615.037 270.288 608.71 281.122 598.505C284.798 595.041 287.83 590.965 291.475 587.477L291.824 587.146C290.377 591.663 288.827 596.168 287.95 600.839C285.118 615.92 287.888 632.361 294.879 645.94C298.995 653.934 304.955 661.512 312.079 667.057C298.738 672.879 284.495 673.764 270.825 668.327C261.901 664.777 255.195 659.279 249.694 651.45C244.298 659.318 236.996 664.838 227.456 666.571C219.58 668.002 211.214 666.81 204.613 662.106C200.46 659.197 197.234 655.152 195.322 650.456C188.264 655.334 180.605 657.901 171.955 656.299C165.8 655.105 160.369 651.524 156.848 646.337C153.215 640.909 151.888 634.259 153.158 627.851C153.816 624.464 155.177 621.461 156.981 618.542C157.632 620.098 157.995 621.782 158.673 623.334C160.228 626.896 164.016 629.903 167.573 631.259C171.773 632.813 176.421 632.628 180.484 630.742C186.678 627.851 189.774 622.345 191.923 616.169C194.803 619.939 198.185 623.03 202.787 624.511C206.945 625.849 211.689 625.58 215.574 623.543C221.105 620.643 223.268 616.065 225.13 610.455Z" fill="#45403F"/>
<path d="M298.376 495.325C302.756 480.897 312.7 468.884 325.103 460.496C340.459 450.11 360.515 446.31 378.67 449.971C395.424 453.348 413.207 463.491 422.842 477.895C422.713 477.86 422.582 477.834 422.456 477.79C420.786 477.209 419.076 475.909 417.556 474.995C413.689 472.668 409.85 470.196 405.848 468.108C401.885 466.041 397.733 464.566 393.503 463.146C375.535 457.11 357.995 457.164 340.461 464.839C321.795 473.008 310.947 487.013 303.747 505.6L303.585 506.018C293.319 500.676 283.04 497.788 271.605 501.365C263.033 504.045 255.62 509.85 251.474 517.886C248.311 524.017 247.727 530.813 248.85 537.555C228.889 539.119 212.391 546.876 199.269 562.23C192.142 570.449 186.964 580.172 184.12 590.672C183.363 593.454 183.168 597.537 181.881 600.018L181.58 599.817C181.545 598.986 181.518 598.157 181.499 597.326C181.082 579.384 186.503 562.902 199.104 549.824C211.105 537.369 225.192 531.467 242.335 531.13C240.887 522.014 242.412 513.077 247.529 505.304C252.865 497.199 261.751 491.697 271.199 489.78C281.416 487.707 289.774 489.67 298.376 495.325Z" fill="#EEEEF0"/>
<path d="M303.74 537.07C310.344 536.388 315.656 537.554 321.583 540.389C317.84 541.05 314.373 542.13 310.873 543.615C295.248 550.243 284.517 560.863 278.179 576.583C266.788 573.616 256.904 574.615 246.285 579.671C241.522 582.19 237.874 585.221 234.651 589.527C236.212 584.594 238.341 580.341 241.864 576.505C249.74 567.932 259.739 564.064 271.191 563.594C272.551 559.659 274.368 555.92 276.876 552.583C283.417 543.88 293.027 538.573 303.74 537.07Z" fill="black"/>
<path d="M353.596 472.034C354.428 471.986 355.2 471.993 356.028 472.107C358.567 472.459 360.852 473.635 362.354 475.755C363.381 477.204 364.003 478.896 363.609 480.68C363.158 482.723 361.533 484.415 359.916 485.635C355.53 488.944 349.885 490.15 345.289 493.117C340.775 496.032 337.333 500.404 332.796 503.242C332.232 503.455 331.677 503.619 331.084 503.724C329.265 504.046 327.392 503.757 325.881 502.653C324.251 501.462 323.099 499.649 322.821 497.646C322.383 494.488 324.255 490.964 326.119 488.511C331.198 481.827 345.167 473.203 353.596 472.034Z" fill="#EEEEF0"/>
<path d="M550.678 745.832L551.008 745.538C555.705 741.29 559.641 735.904 563.544 730.934C571.598 720.676 579.185 710.086 586.82 699.516C589.445 695.881 593.218 689.369 596.362 686.601C599.135 684.161 604.785 682.575 608.186 680.376C610.517 678.87 613.65 675.788 616.378 675.457C616.519 676.398 614.343 678.962 613.733 679.791C610.031 684.818 606.033 689.647 602.228 694.6L576.898 727.883C571.225 735.425 565.39 743.032 560.312 750.989C565.153 751.615 570.274 751.312 575.156 751.314L600.319 751.312L622.301 751.298L502.522 888.307C491.162 901.249 479.559 913.943 468.059 926.757C463.477 931.862 459.255 938.281 453.904 942.559C453.339 943.418 452.576 944.218 451.921 945.013C454.708 937.802 458.404 930.772 461.686 923.761C468.159 910.057 474.495 896.289 480.691 882.457C490.396 860.126 500.27 837.869 510.315 815.688C515.859 803.275 520.955 790.442 527.376 778.461C503.035 777.885 478.54 778.254 454.187 778.398C454.9 777.038 455.642 775.737 456.464 774.44C469.924 748.461 483.108 722.387 496.925 696.59C517.563 696.947 531.794 694.126 549.542 683.069C554.471 685.284 559.301 687.073 564.569 688.337C573.515 689.768 582.649 690.275 591.446 687.642C577.06 706.506 563.985 726.221 550.678 745.832Z" fill="#FED200"/>
<path d="M600.319 751.313L622.301 751.298L502.522 888.307C491.162 901.25 479.559 913.943 468.059 926.757C463.477 931.863 459.255 938.281 453.904 942.559C455.227 939.475 458.492 936.471 460.478 933.652C471.159 918.491 482.451 904.045 493.989 889.531C499.408 882.714 504.639 875.704 510.273 869.065C512.182 865.74 514.625 862.62 516.864 859.507C522.071 852.331 527.391 845.239 532.821 838.231C542.586 825.38 552.676 812.877 562.633 800.183C565.734 796.23 568.644 792.133 571.741 788.181C579.003 778.917 586.21 770.147 593.286 760.669C595.047 757.159 597.773 754.264 600.319 751.313Z" fill="#FC1013"/>
<path d="M551.989 745.427L560.311 722.641C565.008 718.393 559.64 735.904 563.543 730.934C571.597 720.676 579.185 710.086 586.819 699.516C589.444 695.881 593.217 689.369 596.362 686.601C599.134 684.161 604.784 682.575 608.186 680.376C610.517 678.87 613.649 675.788 616.377 675.457C616.518 676.398 614.342 678.962 613.732 679.791C610.03 684.818 606.032 689.647 602.227 694.6L576.897 727.883C571.224 735.425 565.39 743.032 560.311 750.989C556.191 750.349 551.758 750.653 547.584 750.626L529.165 750.357L555.349 704.94C558.402 699.52 562.235 694.085 564.569 688.337C573.514 689.768 583.96 689.869 592.757 687.237C588.131 710.005 565.296 725.816 551.989 745.427Z" fill="#FC1013"/>
<path d="M456.464 774.44C458.621 775.066 465.642 773.81 468.476 773.67C491.922 772.515 515.569 772.572 539.047 772.562C536.354 774.249 530.319 777.432 527.375 778.461C503.034 777.886 478.54 778.254 454.187 778.399C454.9 777.038 455.642 775.737 456.464 774.44Z" fill="#FA8100"/>
<path d="M540.277 778.691C540.836 778.697 541.713 778.664 542.239 778.876C543.097 779.222 543.203 779.443 543.527 780.234C543.33 782.836 538.533 790.82 537.12 793.685C526.516 815.19 515.821 836.511 504.265 857.521C500.175 864.96 496.402 872.848 491.7 879.908C491.057 880.497 491.05 880.598 490.193 880.643L489.602 880.066C488.598 876.883 492.895 869.201 494.352 865.968C502.634 847.598 511.661 829.577 520.259 811.353L527.794 795.07C529.621 791.115 531.368 786.686 533.937 783.156C535.688 780.748 537.573 779.716 540.277 778.691Z" fill="#FEFE91"/>
<path d="M504.275 702.678C505.645 702.687 506.605 702.856 507.621 703.827C507.899 704.473 508.096 705.005 507.971 705.719C506.912 711.774 495.373 729.734 491.889 735.955C486.14 746.22 480.186 758.238 473.638 767.848C472.46 769.579 470.958 770.872 469.265 772.069C468.711 772.142 467.95 772.256 467.394 772.11C466.46 771.865 466.361 771.685 465.908 770.904C465.923 769.785 466.278 768.875 466.695 767.851C468.482 763.465 471.004 759.188 473.192 754.983C477.53 746.592 481.955 738.247 486.466 729.949C489.712 723.871 493.069 717.854 496.533 711.898C497.911 709.521 499.251 706.713 500.983 704.593C501.805 703.587 503.107 703.161 504.275 702.678Z" fill="#FEFE91"/>
<path d="M559.448 754.364C563.23 754.301 575.454 753.439 578.509 755.02C579.213 755.384 579.489 755.67 579.771 756.396L579.314 757.063C575.239 759.257 569.199 759.193 564.624 759.556C559.511 760.066 549.917 761.094 545.495 758.348C544.758 757.89 544.483 757.606 544.309 756.766C544.379 756.663 544.437 756.551 544.52 756.459C546.81 753.856 556.126 754.444 559.448 754.364Z" fill="#FEFE91"/>
<path d="M328.063 675.171C333.34 677.412 338.235 678.745 343.903 679.62C341.073 685.215 337.489 690.502 334.159 695.815C326.807 707.545 319.102 719.027 311.649 730.69C328.273 729.85 344.929 730.104 361.567 729.733C369.382 729.516 377.2 729.416 385.018 729.433C374.191 741.486 364.234 754.566 354.011 767.139C330.757 795.738 307.908 824.671 284.419 853.08L265.572 876.147C261.966 880.582 258.267 885.805 254.015 889.609C250.771 893.755 247.574 897.939 244.427 902.159L277.954 806.928C281.272 797.434 284.533 787.918 287.738 778.384C289.738 772.485 291.591 766.492 293.923 760.717C289.697 761.158 285.277 761.05 281.02 761.248L255.621 762.559C249.01 762.897 242.339 763.105 235.764 763.906C236.547 762.546 237.299 761.192 238.245 759.936C241.697 752.868 244.735 745.549 247.973 738.378C255.998 720.604 264.08 702.644 273.24 685.418C292.506 689.165 307.133 687.732 324.351 677.969C325.516 676.915 326.77 676.053 328.063 675.171Z" fill="#FED200"/>
<path d="M361.567 729.733C369.382 729.516 377.2 729.416 385.018 729.433C374.191 741.486 364.234 754.566 354.011 767.139C330.757 795.738 307.908 824.671 284.419 853.08L265.572 876.148C261.966 880.582 258.267 885.805 254.015 889.609C255.56 886.128 258.232 882.827 260.399 879.701L271.694 863.462C279.673 851.862 287.403 840.093 294.877 828.16C304.723 813.337 313.713 798.006 323.928 783.411C329.059 776.078 334.092 768.615 339.455 761.453C345.165 753.827 351.19 746.484 356.426 738.508C357.714 735.379 359.684 732.527 361.567 729.733Z" fill="#FC1013"/>
<path d="M328.063 675.171C333.34 677.412 338.235 678.745 343.903 679.62C341.073 685.215 337.489 690.502 334.159 695.815C326.807 707.545 319.102 719.027 311.649 730.69C306.3 731.884 301 733.114 295.806 734.884C298.255 730.202 300.379 725.299 302.69 720.542C306.173 713.471 309.721 706.431 313.334 699.425C316.643 692.907 321.902 684.436 324.352 677.969C325.516 676.915 326.77 676.053 328.063 675.171Z" fill="#FC1013"/>
<path d="M238.245 759.936C259.285 756.823 280.522 755.22 301.791 755.138C298.98 756.739 296.326 758.54 293.923 760.717C289.697 761.158 285.277 761.05 281.02 761.248L255.621 762.559C249.01 762.897 242.339 763.105 235.764 763.906C236.547 762.546 237.299 761.192 238.245 759.936Z" fill="#FA8100"/>
<path d="M306.948 760.342C307.503 760.286 308.104 760.197 308.66 760.233C309.524 760.29 309.801 760.575 310.307 761.223C310.493 762.84 309.609 764.864 309.044 766.379C306.026 774.47 302.357 782.424 298.929 790.355C293.778 802.554 288.424 814.666 282.87 826.687C279.358 834.277 276.469 842.437 272.174 849.604C271.877 849.93 271.692 850.132 271.277 850.309C270.857 850.489 270.734 850.321 270.334 850.164C270.106 849.781 270.053 849.734 269.904 849.257C269.487 847.92 270.171 846.071 270.561 844.781C274.502 831.725 280.708 817.171 285.68 804.289C290.694 791.295 295.285 777.836 301.05 765.178C302.433 762.14 303.956 761.455 306.948 760.342Z" fill="#FEFE91"/>
<path d="M281.55 691.421C281.936 691.436 282.366 691.431 282.747 691.52C283.593 691.718 283.95 691.965 284.441 692.658C284.418 692.77 284.403 692.882 284.374 692.992C283.493 696.282 278.771 704.501 276.979 708.198L264.856 733.627C262.662 738.142 260.454 743.211 257.651 747.36C256.524 749.028 255.172 750.214 253.404 751.161C252.4 751.175 251.767 751.17 250.845 750.686C250.385 749.635 250.695 748.911 251.048 747.847C252.494 743.494 254.759 739.246 256.691 735.085C260.398 727.056 264.204 719.073 268.109 711.138C270.574 706.147 272.871 700.303 276.094 695.796C277.566 693.738 279.331 692.528 281.55 691.421Z" fill="#FEFE91"/>
<path d="M422.905 733.389C423.982 734.937 424.883 736.565 425.796 738.213C432.227 749.626 441.842 774.334 438.08 787.205C436.839 791.45 434.141 795.036 430.172 797.077C426.025 799.21 420.533 799.683 416.12 798.16C412.216 796.812 408.823 793.962 407.032 790.213C403.306 782.41 406.529 766.667 409.415 758.937C411.239 754.05 413.86 748.154 416.877 743.905C418.763 740.333 420.86 736.872 422.905 733.389Z" fill="#00CAF6"/>
<path d="M422.906 733.389C423.983 734.937 424.883 736.565 425.797 738.213C424.417 743.332 423.227 748.546 422.695 753.83C422.086 759.874 423.829 778.929 418.013 781.965C416.571 782.718 414.79 782.555 413.306 782C412.114 781.553 411.224 780.807 410.728 779.625C409.927 777.716 410.041 774.928 409.994 772.878C409.812 765.03 411.552 759.359 414.376 752.124C415.386 749.535 416.703 746.69 416.878 743.905C418.763 740.333 420.861 736.872 422.906 733.389Z" fill="#95F3FD"/>
<path d="M371.085 809.521C373.31 811.939 375.412 816.538 377.094 819.486C387.499 837.719 398.208 861.796 397.776 883.221C397.577 893.051 394.805 903.173 387.453 910.084C380.853 916.288 372.855 918.538 363.946 918.229C358.256 917.812 352.942 915.75 348.305 912.461C341.875 907.901 337.646 901.412 336.359 893.597C335.568 888.794 335.785 883.759 336.35 878.943C339.419 852.771 356.176 830.28 371.085 809.521Z" fill="black"/>
<path d="M365.463 835.031C366.397 833.538 367.343 832.051 368.3 830.571C368.952 829.582 369.775 828.098 370.987 827.847L371.422 828.848C374.538 834.826 377.345 841.296 379.781 847.582C385.51 861.491 391.212 881.534 385.069 896.005C383.027 900.817 379.232 905.096 374.329 907.074C370.708 908.535 367.093 908.606 363.256 908.282C359.412 907.583 355.818 906.405 352.756 903.896C348.552 900.45 346.356 895.266 345.861 889.941C344.426 874.48 350.941 859.269 358.358 846.103C360.482 842.332 362.699 838.368 365.463 835.031Z" fill="#00CAF6"/>
<path d="M365.462 835.031C366.397 833.538 367.343 832.051 368.3 830.571C368.951 829.582 369.775 828.098 370.986 827.847L371.421 828.848C371.401 828.945 371.379 829.042 371.361 829.138C370.672 832.666 370.967 836.351 370.233 839.865C368.449 848.413 365.576 856.268 364.67 865.062C363.942 872.125 365.165 879.501 364.078 886.471C363.808 888.196 363.284 889.785 361.803 890.844C360.552 891.737 359.057 891.847 357.585 891.555C355.429 891.128 353.701 889.95 352.034 888.577C349.461 869.222 355.157 861.368 362.147 844.377C363.295 841.587 365.217 838.041 365.462 835.031Z" fill="#95F3FD"/>
<path d="M379.781 847.582C385.51 861.491 391.211 881.534 385.069 896.005C383.027 900.816 379.232 905.096 374.329 907.074C370.708 908.535 367.092 908.606 363.256 908.282L364.385 907.876L365.201 908.409C364.666 907.957 362.097 908.423 361.66 907.876C364.385 906.103 367.09 903.333 368.567 902.293C371.211 900.429 373.351 897.905 375.157 895.244C382.363 884.627 381.894 872.265 380.698 860.016C380.329 856.233 379.054 851.653 379.715 847.919C379.735 847.806 379.759 847.694 379.781 847.582Z" fill="#0078B0"/>
<path d="M635.808 782.095C635.943 782.223 636.088 782.343 636.214 782.481C638.228 784.688 640.004 788.175 641.561 790.775C650.504 805.708 660.568 827.739 659.404 845.362C658.9 852.987 656.578 860.41 650.648 865.547C644.816 870.599 637.909 872.393 630.336 871.907C624.755 871.187 619.808 869.382 615.398 865.816C609.888 861.359 606.657 855.107 605.963 848.073C603.663 824.763 621.74 799.385 635.808 782.095Z" fill="black"/>
<path d="M634.848 799.448C635.701 800.894 636.403 802.437 637.146 803.941C643.943 816.446 652.868 835.864 648.753 850.122C647.462 854.597 644.811 858.623 640.594 860.827C636.384 863.029 631.251 863.194 626.786 861.679C622.474 860.25 618.922 857.139 616.938 853.052C613.556 846.089 615.964 835.226 618.489 828.261C620.806 821.867 625.16 812.943 629.449 807.676C631.21 804.908 633.01 802.165 634.848 799.448Z" fill="#00CAF6"/>
<path d="M634.848 799.448C635.7 800.894 636.403 802.437 637.145 803.941C635.58 810.636 632.579 817.336 631.693 824.123C630.959 829.737 631.687 835.632 631.516 841.297C631.442 843.74 631.795 847.413 629.41 848.89C627.921 849.811 625.386 850.292 623.667 849.892C622.629 849.651 621.803 849.035 621.278 848.107C618.74 843.63 621.211 831.346 622.746 826.498C624.006 822.516 629.436 810.659 629.449 807.676C631.21 804.908 633.009 802.165 634.848 799.448Z" fill="#95F3FD"/>
<path d="M199.143 758.287C199.253 758.384 199.372 758.473 199.473 758.579C201.496 760.677 203.15 764.283 204.556 766.889C212.418 781.471 221.487 804.252 220.953 820.934C220.706 828.627 218.293 835.654 212.554 840.965C206.891 846.205 199.631 848.021 192.074 847.761C186.838 847.209 181.956 845.415 177.928 841.942C172.77 837.498 169.852 830.448 169.358 823.747C167.589 799.714 184.14 775.592 199.143 758.287Z" fill="black"/>
<path d="M186.51 793.164C189.529 786.75 193.605 780.751 197.606 774.918L198.827 777.983C204.905 789.943 214.412 814.17 210.084 827.159C208.762 831.126 206.197 834.636 202.405 836.547C198.534 838.497 193.284 838.952 189.164 837.539C185.241 836.196 182.034 833.315 180.28 829.558C176.487 821.353 179.404 809.587 182.491 801.607C183.606 798.691 184.95 795.868 186.51 793.164Z" fill="#00CAF6"/>
<path d="M186.51 793.164C189.529 786.75 193.606 780.751 197.607 774.918L198.827 777.983C197.231 784.95 195.158 792.349 195.003 799.513C194.883 805.066 196.074 812.009 195.26 817.306C194.95 819.318 194.133 821.37 192.358 822.516C191.012 823.385 189.178 823.599 187.647 823.186C186.909 822.987 186.174 822.73 185.458 822.465C181.756 814.767 183.067 807.374 185.191 799.434C185.707 797.5 186.629 795.156 186.51 793.164Z" fill="#95F3FD"/>
<path d="M571.546 853.239C571.677 853.354 571.826 853.452 571.94 853.584C573.804 855.74 575.184 859.573 576.424 862.202C582.48 875.033 590.278 893.386 588.537 907.714C587.627 915.197 584.295 922.199 578.249 926.864C573.046 930.879 566.93 931.987 560.521 931.154C556.62 930.491 552.976 928.766 549.989 926.17C545.549 922.264 543.151 916.323 542.806 910.49C541.657 891.043 559.112 867.267 571.546 853.239Z" fill="black"/>
<path d="M562.35 880.757C564.618 877.202 566.917 873.08 569.74 869.96C570.312 870.498 570.475 871.413 570.728 872.151C575.561 884.091 582.786 899.783 577.477 912.552C575.918 916.302 573.33 919.738 569.426 921.227C566.094 922.499 562.103 922.215 558.92 920.644C556.039 919.222 553.957 916.813 552.981 913.752C550.08 904.649 555.388 892.92 559.719 885.035C560.517 883.582 561.378 882.101 562.35 880.757Z" fill="#00CAF6"/>
<path d="M562.35 880.757C564.618 877.202 566.917 873.08 569.74 869.96C570.312 870.498 570.476 871.413 570.729 872.151C568.763 879.073 566.796 886.169 566.127 893.35C565.672 898.226 566.059 903.701 565.052 908.452C564.767 909.794 564.362 911.362 563.097 912.094C561.74 912.878 559.735 912.911 558.269 912.439C556.7 911.935 555.304 910.648 554.657 909.136C553.318 906.004 554.18 901.204 555.551 898.238C558.229 892.441 562.268 887.594 562.35 880.757Z" fill="#95F3FD"/>
<path d="M170.034 682.725C170.124 682.806 170.218 682.882 170.303 682.968C179.405 692.11 190.234 722.023 190.48 734.637C190.617 741.659 188.109 748.091 183.166 753.106C178.28 758.061 172.247 759.877 165.43 759.947C160.385 759.469 155.564 757.984 151.738 754.525C147.261 750.478 145.152 744.534 144.972 738.599C144.567 725.289 152.832 706.365 160.093 695.203C163.021 690.702 166.355 686.627 170.034 682.725Z" fill="black"/>
<path d="M155.657 729.238C158.445 717.847 163.232 707.986 169.159 697.971C170.59 700.793 171.839 703.7 173.117 706.592C177.053 715.938 183.646 731.498 179.528 741.291C178.049 744.811 175.34 747.747 171.767 749.177C168.435 750.511 164.01 750.679 160.694 749.219C158.05 748.055 156.203 745.846 155.276 743.136C153.857 738.987 154.318 733.366 155.657 729.238Z" fill="#00CAF6"/>
<path d="M155.657 729.238C158.445 717.847 163.232 707.986 169.159 697.971C170.59 700.793 171.839 703.7 173.117 706.592C169.175 715.56 167.858 721.56 168.029 731.36C168.077 734.132 168.555 737.714 167.827 740.397C167.514 741.548 166.456 742.239 165.414 742.659C163.773 743.32 161.346 743.533 159.715 742.74C158.32 742.063 157.589 740.301 157.166 738.91C156.212 735.766 156.203 732.457 155.657 729.238Z" fill="#95F3FD"/>
<path d="M671.572 689.091C680.54 697.777 692.265 727.261 693.057 739.971C693.502 747.119 691.671 754.11 686.809 759.506C682.481 764.31 677.341 766.578 670.923 766.954C665.266 766.707 660.197 764.965 656.035 761.03C651.636 756.872 649.312 751.199 649.16 745.18C648.753 729.16 660.683 700.698 671.572 689.091Z" fill="black"/>
<path d="M668.938 709.307C669.71 707.734 670.425 706.079 671.338 704.583C672.222 706.498 673.177 708.408 673.964 710.364L674.535 711.91C678.968 721.355 686.354 737.96 682.675 748.165C681.405 751.688 678.789 754.751 675.326 756.261C672.221 757.616 668.709 757.484 665.611 756.17C662.788 754.973 660.528 752.806 659.46 749.908C657.495 744.571 658.719 739.111 660.067 733.813C662.391 725.381 665.249 717.241 668.938 709.307Z" fill="#00CAF6"/>
<path d="M668.938 709.307C669.711 707.734 670.426 706.079 671.339 704.583C672.223 706.498 673.177 708.408 673.965 710.364L674.536 711.91C674.491 711.995 674.445 712.079 674.402 712.164C672.165 716.706 670.62 730.137 670.348 735.402C670.19 738.462 670.733 743.144 669.611 745.96C669.339 746.643 668.556 747.241 667.869 747.451C666.492 747.872 664.14 747.38 662.984 746.571C661.342 745.422 660.84 743.124 660.58 741.272C660.236 738.827 660.577 736.214 660.068 733.813C662.392 725.381 665.25 717.241 668.938 709.307Z" fill="#95F3FD"/>
<path d="M668.938 709.307C669.71 707.734 670.425 706.079 671.338 704.583C672.222 706.498 673.177 708.408 673.964 710.364C673.156 710.661 672.452 710.888 671.579 710.842C670.382 710.778 669.71 710.153 668.938 709.307Z" fill="#95F3FD"/>
<path d="M443.366 809.813C444.649 811.353 445.709 813.409 446.747 815.125C453.741 826.693 461.132 844.082 460.668 857.592C460.424 864.712 457.826 872.398 452.472 877.315C447.845 881.564 442.421 882.513 436.37 882.286C432.157 881.548 428.351 880.089 425.123 877.189C420.66 873.179 418.746 867.42 418.475 861.556C417.642 843.54 431.623 822.639 443.366 809.813Z" fill="black"/>
<path d="M431.294 845.875C433.55 840.413 438.091 830.471 441.95 826.288C442.511 826.614 442.744 827.479 443.026 828.067C447.677 838.686 454.252 852.715 449.715 864.282C448.461 867.48 446.383 870.639 443.169 872.114C440.562 873.31 437.634 873.193 435.024 872.077C432.148 870.832 429.888 868.491 428.743 865.574C426.397 859.739 428.355 852.184 430.887 846.717C431.018 846.433 431.154 846.153 431.294 845.875Z" fill="#00CAF6"/>
<path d="M431.294 845.875C433.549 840.413 438.09 830.471 441.949 826.288C442.511 826.614 442.744 827.479 443.025 828.067C442.452 834.367 440.835 840.497 439.933 846.742C439.368 850.65 439.427 854.68 438.779 858.559C438.625 859.484 438.655 859.875 437.923 860.525C436.988 861.356 435.431 861.564 434.228 861.449C433.043 861.336 431.991 860.922 431.282 859.925C428.752 856.371 431.267 849.888 431.294 845.875Z" fill="#95F3FD"/>
<path d="M223.269 690.354C223.437 690.485 223.617 690.601 223.772 690.746C224.486 691.414 225.126 692.558 225.699 693.363C229.71 699.006 232.011 705.637 232.094 712.575C232.195 721.051 229.757 732.91 223.498 739.103C220.078 742.488 216.533 743.023 211.952 742.953C209.998 742.547 208.335 741.878 206.796 740.573C204.131 738.314 203.054 735.2 202.8 731.792C201.756 717.846 214.519 700.654 223.269 690.354Z" fill="black"/>
<path d="M217.349 714.624L222.101 707.133C222.405 709.048 222.603 710.941 222.749 712.874C222.747 719.08 221.062 727.588 216.392 732.057C215.552 732.861 214.844 733.32 213.667 733.447C212.899 733.046 212.744 732.958 212.431 732.089C211.033 728.211 215.038 718.414 217.114 714.97C217.186 714.85 217.271 714.74 217.349 714.624Z" fill="#00CAF6"/>
<path d="M217.349 714.624L222.101 707.133C222.405 709.048 222.603 710.941 222.749 712.874C221.793 713.847 220.657 715.399 219.145 715.273C218.503 715.22 217.917 714.898 217.349 714.624Z" fill="#95F3FD"/>
<path d="M421.23 889.977C421.332 890.089 421.446 890.19 421.535 890.313C422.281 891.345 422.728 893.397 423.078 894.647C425.651 903.836 425.092 913.651 422.774 922.827C420.946 930.067 416.856 940.752 409.944 944.628C407.203 946.165 404.803 946.178 401.848 945.341C401.571 945.178 401.293 945.019 401.029 944.838C398.971 943.431 397.798 941.127 397.396 938.71C394.94 923.986 412.73 901.545 421.23 889.977Z" fill="black"/>
<path d="M337.178 917.327C337.211 917.37 337.251 917.41 337.279 917.457C341.206 923.98 339.872 940.048 337.823 947.165C335.821 954.116 331.159 965.391 324.391 968.953C321.71 970.365 319.392 970.348 316.57 969.416C316.19 969.138 315.812 968.865 315.451 968.563C313.679 967.076 312.927 964.794 312.774 962.538C311.796 948.074 327.973 927.962 337.178 917.327Z" fill="black"/>
<path d="M526.153 905.129C526.21 905.214 526.282 905.291 526.325 905.384C526.879 906.563 527.062 908.184 527.287 909.462C528.896 918.613 527.636 928.791 524.221 937.397C522.008 942.972 518.136 951.686 512.151 954.112C509.688 955.111 507.57 954.841 505.186 953.82C503.132 952.105 502.246 950.298 502.035 947.606C500.934 933.545 517.417 915.272 526.153 905.129Z" fill="black"/>
<path d="M305.912 883.196C306.021 883.315 306.151 883.418 306.24 883.552C306.699 884.248 306.895 885.654 307.089 886.5C308.85 894.191 308.013 903.128 305.743 910.625C304.038 916.256 300.527 924.918 294.944 927.729C292.407 929.006 290.416 928.742 287.823 927.811C286 926.473 285.033 924.894 284.706 922.63C283.049 911.17 299.315 891.876 305.912 883.196Z" fill="black"/>
<path d="M228.071 847.805C228.151 847.926 228.233 848.045 228.31 848.168C231.379 853.07 230.569 862.984 229.201 868.308C227.788 873.802 224.43 882.371 219.245 885.294C217.103 886.502 215.484 886.335 213.197 885.649C213.117 885.598 213.036 885.549 212.956 885.497C211.444 884.511 210.494 883.186 210.148 881.397C208.479 872.752 222.969 854.948 228.071 847.805Z" fill="black"/>
<path d="M678.075 773.482C678.106 773.52 678.142 773.555 678.169 773.596C681.703 778.889 682.637 787.343 681.709 793.519C681.019 798.113 678.907 803.909 674.946 806.636C672.688 808.19 670.635 808.372 668 807.913C667.09 807.589 666.251 807.094 665.527 806.455C664.004 805.12 663.286 803.207 663.183 801.221C662.671 791.347 671.785 780.164 678.075 773.482Z" fill="black"/>
<path d="M616.63 879.682C616.736 879.793 616.863 879.887 616.948 880.014C619.832 884.3 619.717 896.222 618.436 901.109C617.302 905.437 614.792 910.551 610.756 912.808C608.284 914.19 606.305 913.989 603.655 913.294C603.089 912.959 602.514 912.616 602.029 912.169C600.538 910.794 599.902 908.755 599.895 906.769C599.858 897.199 610.183 886.112 616.63 879.682Z" fill="black"/>
<path d="M380.067 927.03C380.135 927.128 380.213 927.22 380.27 927.325C382.771 931.883 380.941 944.997 379.338 949.867C377.974 954.013 375.542 959.228 371.373 961.155C369.14 962.187 367.289 961.866 365.069 961.026C364.693 960.72 364.329 960.409 364.001 960.052C362.639 958.563 362.236 956.532 362.325 954.563C362.732 945.592 373.645 933.131 380.067 927.03Z" fill="black"/>
<path d="M241.349 788.848L241.768 789.139C244.578 795.137 245.874 801.6 244.912 808.202C244.273 812.585 242.432 817.893 238.696 820.556C236.726 821.961 234.686 822.259 232.341 821.862C231.427 821.494 230.549 821.122 229.804 820.459C228.426 819.231 227.752 817.401 227.626 815.593C226.963 806.054 235.502 795.686 241.349 788.848Z" fill="black"/>
<path d="M334.527 833.037C337.318 838.383 336.382 846.272 334.673 851.815C333.146 856.767 330.002 863.716 325.134 866.146C322.933 867.245 321.253 867.08 318.984 866.336C317.439 865.102 316.595 863.794 316.415 861.784C315.643 853.189 329.124 839.485 334.527 833.037Z" fill="black"/>
<path d="M476.328 795.927L476.753 796.186C479.429 801.652 480.444 807.783 479.669 813.819C479.077 818.228 477.185 823.806 473.475 826.521C471.336 828.086 469.385 828.277 466.826 827.883C465.985 827.573 465.18 827.168 464.51 826.561C463.2 825.372 462.562 823.562 462.487 821.831C462.076 812.458 470.563 802.522 476.328 795.927Z" fill="black"/>
<path d="M383.884 766.716C386.405 770.5 386.803 777.532 386.421 781.933C385.994 786.859 384.068 793.386 380.081 796.578C377.857 798.358 375.948 798.466 373.21 798.167C372.653 797.835 372.066 797.495 371.581 797.061C370.262 795.882 369.697 793.956 369.658 792.241C369.455 783.291 378.209 772.835 383.884 766.716Z" fill="black"/>
<path d="M599.753 814.951L600.182 815.527C600.944 823.837 601.173 833.625 596.92 841.136C595.805 843.105 594.294 845.013 591.995 845.586C590.062 846.067 588.47 845.282 586.853 844.296C585.469 842.671 584.625 841.219 584.645 839.027C584.712 831.837 594.659 819.998 599.753 814.951Z" fill="black"/>
<path d="M455.642 699.998C455.721 700.055 455.807 700.104 455.879 700.169C458.277 702.3 459.589 707.635 459.966 710.742C460.577 715.775 459.826 722.062 456.482 726.088C454.692 728.241 453.1 728.765 450.376 729.01C449.529 728.826 448.703 728.65 447.973 728.157C446.584 727.221 445.756 725.757 445.501 724.118C444.241 716.038 451.2 706.178 455.642 699.998Z" fill="black"/>
<path d="M634.034 704.511L634.468 704.774C636.531 708.165 637.629 711.51 637.85 715.488C638.11 720.156 636.97 726.095 633.669 729.577C632.108 731.222 630.566 731.721 628.343 731.75C627.533 731.513 626.599 731.228 625.923 730.708C624.704 729.768 623.971 728.246 623.765 726.744C622.72 719.13 629.772 710.228 634.034 704.511Z" fill="black"/>
<path d="M590.833 687.879L590.831 687.879C590.831 687.879 591.152 688.005 591.153 687.879L590.826 687.881L591.248 687.656L593.908 687.05L597.286 685.944L596.969 686.354L597.862 690.278L591.741 691.671L590.833 687.879Z" fill="#FC1013"/>
<rect x="582.457" y="691.445" width="9.01214" height="5.1498" transform="rotate(-21.0896 582.457 691.445)" fill="#FC1013"/>
</svg>
