<svg width="849" height="1183" viewBox="0 0 849 1183" fill="none" xmlns="http://www.w3.org/2000/svg">
<rect x="5" y="5" width="839" height="1173" rx="45" fill="white"/>
<rect x="5" y="5" width="839" height="1173" rx="45" stroke="black" stroke-width="10"/>
<circle cx="786.5" cy="1124.5" r="11.5" fill="black"/>
<circle cx="786.5" cy="59.5" r="11.5" fill="black"/>
<path d="M77 1124.5C77 1130.85 71.8513 1136 65.5 1136C59.1487 1136 54 1130.85 54 1124.5C54 1118.15 59.1487 1113 65.5 1113C71.8513 1113 77 1118.15 77 1124.5Z" fill="black"/>
<path d="M77 59.5C77 65.8513 71.8513 71 65.5 71C59.1487 71 54 65.8513 54 59.5C54 53.1487 59.1487 48 65.5 48C71.8513 48 77 53.1487 77 59.5Z" fill="black"/>
<mask id="path-6-inside-1_97_12" fill="white">
<path d="M708 48C713.523 48 717.934 52.4996 718.616 57.9801C723.122 94.1833 751.817 122.878 788.02 127.384C793.5 128.066 798 132.477 798 138V1046C798 1051.52 793.5 1055.93 788.02 1056.62C751.817 1061.12 723.122 1089.82 718.616 1126.02C717.934 1131.5 713.523 1136 708 1136H141C135.477 1136 131.066 1131.5 130.384 1126.02C125.878 1089.82 97.1833 1061.12 60.9801 1056.62C55.4996 1055.93 51 1051.52 51 1046V138C51 132.477 55.4996 128.066 60.9801 127.384C97.1833 122.878 125.878 94.1833 130.384 57.9801C131.066 52.4996 135.477 48 141 48H708Z"/>
</mask>
<path d="M708 48C713.523 48 717.934 52.4996 718.616 57.9801C723.122 94.1833 751.817 122.878 788.02 127.384C793.5 128.066 798 132.477 798 138V1046C798 1051.52 793.5 1055.93 788.02 1056.62C751.817 1061.12 723.122 1089.82 718.616 1126.02C717.934 1131.5 713.523 1136 708 1136H141C135.477 1136 131.066 1131.5 130.384 1126.02C125.878 1089.82 97.1833 1061.12 60.9801 1056.62C55.4996 1055.93 51 1051.52 51 1046V138C51 132.477 55.4996 128.066 60.9801 127.384C97.1833 122.878 125.878 94.1833 130.384 57.9801C131.066 52.4996 135.477 48 141 48H708Z" fill="#C357B5"/>
<path d="M130.384 1126.02L138.322 1125.03L130.384 1126.02ZM718.616 1126.02L710.678 1125.03L718.616 1126.02ZM788.02 1056.62L789.008 1064.56L788.02 1056.62ZM718.616 57.9801L726.555 56.9922L718.616 57.9801ZM718.616 57.9801L710.678 58.9681C715.635 98.8063 747.194 130.365 787.032 135.322L788.02 127.384L789.008 119.445C756.44 115.392 730.608 89.5603 726.555 56.9922L718.616 57.9801ZM798 138H790V1046H798H806V138H798ZM788.02 1056.62L787.032 1048.68C747.194 1053.64 715.635 1085.19 710.678 1125.03L718.616 1126.02L726.555 1127.01C730.608 1094.44 756.44 1068.61 789.008 1064.56L788.02 1056.62ZM708 1136V1128H141V1136V1144H708V1136ZM130.384 1126.02L138.322 1125.03C133.365 1085.19 101.806 1053.64 61.9681 1048.68L60.9801 1056.62L59.9922 1064.56C92.5603 1068.61 118.392 1094.44 122.445 1127.01L130.384 1126.02ZM51 1046H59V138H51H43V1046H51ZM60.9801 127.384L61.9681 135.322C101.806 130.365 133.365 98.8063 138.322 58.9681L130.384 57.9801L122.445 56.9922C118.392 89.5603 92.5603 115.392 59.9922 119.445L60.9801 127.384ZM141 48V56H708V48V40H141V48ZM130.384 57.9801L138.322 58.9681C138.438 58.0389 138.872 57.2306 139.427 56.6958C139.954 56.1887 140.494 56 141 56V48V40C130.84 40 123.547 48.1329 122.445 56.9922L130.384 57.9801ZM51 138H59C59 137.494 59.1887 136.954 59.6958 136.427C60.2306 135.872 61.0389 135.438 61.9681 135.322L60.9801 127.384L59.9922 119.445C51.1329 120.547 43 127.84 43 138H51ZM60.9801 1056.62L61.9681 1048.68C61.0389 1048.56 60.2306 1048.13 59.6958 1047.57C59.1887 1047.05 59 1046.51 59 1046H51H43C43 1056.16 51.1329 1063.45 59.9922 1064.56L60.9801 1056.62ZM141 1136V1128C140.494 1128 139.954 1127.81 139.427 1127.3C138.872 1126.77 138.438 1125.96 138.322 1125.03L130.384 1126.02L122.445 1127.01C123.547 1135.87 130.84 1144 141 1144V1136ZM718.616 1126.02L710.678 1125.03C710.562 1125.96 710.128 1126.77 709.573 1127.3C709.046 1127.81 708.506 1128 708 1128V1136V1144C718.16 1144 725.453 1135.87 726.555 1127.01L718.616 1126.02ZM798 1046H790C790 1046.51 789.811 1047.05 789.304 1047.57C788.769 1048.13 787.961 1048.56 787.032 1048.68L788.02 1056.62L789.008 1064.56C797.867 1063.45 806 1056.16 806 1046H798ZM788.02 127.384L787.032 135.322C787.961 135.438 788.769 135.872 789.304 136.427C789.811 136.954 790 137.494 790 138H798H806C806 127.84 797.867 120.547 789.008 119.445L788.02 127.384ZM718.616 57.9801L726.555 56.9922C725.453 48.1329 718.16 40 708 40V48V56C708.506 56 709.046 56.1887 709.573 56.6958C710.128 57.2306 710.562 58.0389 710.678 58.9681L718.616 57.9801Z" fill="black" mask="url(#path-6-inside-1_97_12)"/>
<path d="M690 102C695.523 102 699.911 106.512 700.837 111.957C705.019 136.563 724.437 155.981 749.043 160.163C754.488 161.089 759 165.477 759 171V1014C759 1019.52 754.488 1023.91 749.043 1024.84C724.711 1028.97 705.454 1048 700.984 1072.22C699.993 1077.59 695.633 1082 690.175 1082H158.825C153.367 1082 149.007 1077.59 148.016 1072.22C143.546 1048 124.288 1028.97 99.9568 1024.84C94.5121 1023.91 90 1019.52 90 1014V171C90 165.477 94.512 161.089 99.9568 160.163C124.563 155.981 143.981 136.563 148.163 111.957C149.089 106.512 153.477 102 159 102H690Z" fill="#D78BCD"/>
<path d="M360.685 366.52C360.685 369.523 359.977 372.357 358.56 375.02C357.143 377.683 354.877 379.865 351.76 381.565C348.643 383.208 344.648 384.03 339.775 384.03H329.065V408H319.375V348.925H339.775C344.308 348.925 348.133 349.718 351.25 351.305C354.423 352.835 356.775 354.932 358.305 357.595C359.892 360.258 360.685 363.233 360.685 366.52ZM339.775 376.125C343.458 376.125 346.207 375.303 348.02 373.66C349.833 371.96 350.74 369.58 350.74 366.52C350.74 360.06 347.085 356.83 339.775 356.83H329.065V376.125H339.775ZM412.852 383.435C412.852 385.192 412.738 386.778 412.512 388.195H376.727C377.01 391.935 378.398 394.938 380.892 397.205C383.385 399.472 386.445 400.605 390.072 400.605C395.285 400.605 398.968 398.423 401.122 394.06H411.577C410.16 398.367 407.582 401.908 403.842 404.685C400.158 407.405 395.568 408.765 390.072 408.765C385.595 408.765 381.572 407.773 378.002 405.79C374.488 403.75 371.712 400.917 369.672 397.29C367.688 393.607 366.697 389.357 366.697 384.54C366.697 379.723 367.66 375.502 369.587 371.875C371.57 368.192 374.318 365.358 377.832 363.375C381.402 361.392 385.482 360.4 390.072 360.4C394.492 360.4 398.43 361.363 401.887 363.29C405.343 365.217 408.035 367.937 409.962 371.45C411.888 374.907 412.852 378.902 412.852 383.435ZM402.737 380.375C402.68 376.805 401.405 373.943 398.912 371.79C396.418 369.637 393.33 368.56 389.647 368.56C386.303 368.56 383.442 369.637 381.062 371.79C378.682 373.887 377.265 376.748 376.812 380.375H402.737ZM432.078 367.965C433.494 365.585 435.364 363.743 437.688 362.44C440.068 361.08 442.873 360.4 446.103 360.4V370.43H443.638C439.841 370.43 436.951 371.393 434.968 373.32C433.041 375.247 432.078 378.59 432.078 383.35V408H422.388V361.165H432.078V367.965ZM464.7 367.965C466.116 365.585 467.986 363.743 470.31 362.44C472.69 361.08 475.495 360.4 478.725 360.4V370.43H476.26C472.463 370.43 469.573 371.393 467.59 373.32C465.663 375.247 464.7 378.59 464.7 383.35V408H455.01V361.165H464.7V367.965ZM507.947 408.765C503.527 408.765 499.532 407.773 495.962 405.79C492.392 403.75 489.587 400.917 487.547 397.29C485.507 393.607 484.487 389.357 484.487 384.54C484.487 379.78 485.535 375.558 487.632 371.875C489.729 368.192 492.59 365.358 496.217 363.375C499.844 361.392 503.895 360.4 508.372 360.4C512.849 360.4 516.9 361.392 520.527 363.375C524.154 365.358 527.015 368.192 529.112 371.875C531.209 375.558 532.257 379.78 532.257 384.54C532.257 389.3 531.18 393.522 529.027 397.205C526.874 400.888 523.927 403.75 520.187 405.79C516.504 407.773 512.424 408.765 507.947 408.765ZM507.947 400.35C510.44 400.35 512.764 399.755 514.917 398.565C517.127 397.375 518.912 395.59 520.272 393.21C521.632 390.83 522.312 387.94 522.312 384.54C522.312 381.14 521.66 378.278 520.357 375.955C519.054 373.575 517.325 371.79 515.172 370.6C513.019 369.41 510.695 368.815 508.202 368.815C505.709 368.815 503.385 369.41 501.232 370.6C499.135 371.79 497.464 373.575 496.217 375.955C494.97 378.278 494.347 381.14 494.347 384.54C494.347 389.583 495.622 393.493 498.172 396.27C500.779 398.99 504.037 400.35 507.947 400.35Z" fill="black"/>
<mask id="path-10-outside-2_97_12" maskUnits="userSpaceOnUse" x="414" y="1007" width="22" height="32" fill="black">
<rect fill="white" x="414" y="1007" width="22" height="32"/>
<path d="M419.32 1021.76C416.547 1020.37 415.16 1018.19 415.16 1015.2C415.16 1013.76 415.52 1012.44 416.24 1011.24C416.96 1010.04 418.04 1009.09 419.48 1008.4C420.92 1007.68 422.68 1007.32 424.76 1007.32C426.813 1007.32 428.56 1007.68 430 1008.4C431.467 1009.09 432.56 1010.04 433.28 1011.24C434 1012.44 434.36 1013.76 434.36 1015.2C434.36 1016.69 433.973 1018.01 433.2 1019.16C432.453 1020.28 431.453 1021.15 430.2 1021.76C431.72 1022.32 432.92 1023.24 433.8 1024.52C434.68 1025.77 435.12 1027.25 435.12 1028.96C435.12 1030.69 434.68 1032.23 433.8 1033.56C432.92 1034.89 431.693 1035.92 430.12 1036.64C428.547 1037.36 426.76 1037.72 424.76 1037.72C422.76 1037.72 420.973 1037.36 419.4 1036.64C417.853 1035.92 416.64 1034.89 415.76 1033.56C414.88 1032.23 414.44 1030.69 414.44 1028.96C414.44 1027.23 414.88 1025.73 415.76 1024.48C416.64 1023.23 417.827 1022.32 419.32 1021.76ZM430 1015.76C430 1014.27 429.533 1013.12 428.6 1012.32C427.667 1011.52 426.387 1011.12 424.76 1011.12C423.16 1011.12 421.893 1011.52 420.96 1012.32C420.027 1013.12 419.56 1014.28 419.56 1015.8C419.56 1017.13 420.04 1018.23 421 1019.08C421.987 1019.91 423.24 1020.32 424.76 1020.32C426.28 1020.32 427.533 1019.89 428.52 1019.04C429.507 1018.19 430 1017.09 430 1015.76ZM424.76 1023.76C423 1023.76 421.56 1024.2 420.44 1025.08C419.347 1025.93 418.8 1027.17 418.8 1028.8C418.8 1030.32 419.333 1031.56 420.4 1032.52C421.467 1033.45 422.92 1033.92 424.76 1033.92C426.573 1033.92 428 1033.44 429.04 1032.48C430.107 1031.52 430.64 1030.29 430.64 1028.8C430.64 1027.2 430.093 1025.96 429 1025.08C427.933 1024.2 426.52 1023.76 424.76 1023.76Z"/>
</mask>
<path d="M419.32 1021.76C416.547 1020.37 415.16 1018.19 415.16 1015.2C415.16 1013.76 415.52 1012.44 416.24 1011.24C416.96 1010.04 418.04 1009.09 419.48 1008.4C420.92 1007.68 422.68 1007.32 424.76 1007.32C426.813 1007.32 428.56 1007.68 430 1008.4C431.467 1009.09 432.56 1010.04 433.28 1011.24C434 1012.44 434.36 1013.76 434.36 1015.2C434.36 1016.69 433.973 1018.01 433.2 1019.16C432.453 1020.28 431.453 1021.15 430.2 1021.76C431.72 1022.32 432.92 1023.24 433.8 1024.52C434.68 1025.77 435.12 1027.25 435.12 1028.96C435.12 1030.69 434.68 1032.23 433.8 1033.56C432.92 1034.89 431.693 1035.92 430.12 1036.64C428.547 1037.36 426.76 1037.72 424.76 1037.72C422.76 1037.72 420.973 1037.36 419.4 1036.64C417.853 1035.92 416.64 1034.89 415.76 1033.56C414.88 1032.23 414.44 1030.69 414.44 1028.96C414.44 1027.23 414.88 1025.73 415.76 1024.48C416.64 1023.23 417.827 1022.32 419.32 1021.76ZM430 1015.76C430 1014.27 429.533 1013.12 428.6 1012.32C427.667 1011.52 426.387 1011.12 424.76 1011.12C423.16 1011.12 421.893 1011.52 420.96 1012.32C420.027 1013.12 419.56 1014.28 419.56 1015.8C419.56 1017.13 420.04 1018.23 421 1019.08C421.987 1019.91 423.24 1020.32 424.76 1020.32C426.28 1020.32 427.533 1019.89 428.52 1019.04C429.507 1018.19 430 1017.09 430 1015.76ZM424.76 1023.76C423 1023.76 421.56 1024.2 420.44 1025.08C419.347 1025.93 418.8 1027.17 418.8 1028.8C418.8 1030.32 419.333 1031.56 420.4 1032.52C421.467 1033.45 422.92 1033.92 424.76 1033.92C426.573 1033.92 428 1033.44 429.04 1032.48C430.107 1031.52 430.64 1030.29 430.64 1028.8C430.64 1027.2 430.093 1025.96 429 1025.08C427.933 1024.2 426.52 1023.76 424.76 1023.76Z" fill="black"/>
<path d="M419.32 1021.76L419.425 1022.04L420.069 1021.8L419.454 1021.49L419.32 1021.76ZM416.24 1011.24L415.983 1011.09L416.24 1011.24ZM419.48 1008.4L419.61 1008.67L419.614 1008.67L419.48 1008.4ZM430 1008.4L429.866 1008.67L429.872 1008.67L430 1008.4ZM433.28 1011.24L433.537 1011.09L433.28 1011.24ZM433.2 1019.16L432.951 1018.99L432.95 1018.99L433.2 1019.16ZM430.2 1021.76L430.068 1021.49L429.438 1021.8L430.096 1022.04L430.2 1021.76ZM433.8 1024.52L433.553 1024.69L433.554 1024.69L433.8 1024.52ZM433.8 1033.56L434.05 1033.73L433.8 1033.56ZM430.12 1036.64L429.995 1036.37L430.12 1036.64ZM419.4 1036.64L419.273 1036.91L419.275 1036.91L419.4 1036.64ZM415.76 1033.56L415.51 1033.73L415.76 1033.56ZM415.76 1024.48L415.514 1024.31L415.76 1024.48ZM428.6 1012.32L428.795 1012.09V1012.09L428.6 1012.32ZM420.96 1012.32L420.765 1012.09V1012.09L420.96 1012.32ZM421 1019.08L420.801 1019.3L420.807 1019.31L421 1019.08ZM420.44 1025.08L420.625 1025.32L420.625 1025.32L420.44 1025.08ZM420.4 1032.52L420.199 1032.74L420.202 1032.75L420.4 1032.52ZM429.04 1032.48L428.839 1032.26L428.837 1032.26L429.04 1032.48ZM429 1025.08L428.809 1025.31L428.812 1025.31L429 1025.08ZM419.32 1021.76L419.454 1021.49C418.107 1020.82 417.112 1019.96 416.453 1018.92C415.795 1017.88 415.46 1016.65 415.46 1015.2H415.16H414.86C414.86 1016.74 415.218 1018.09 415.947 1019.24C416.674 1020.39 417.76 1021.32 419.186 1022.03L419.32 1021.76ZM415.16 1015.2H415.46C415.46 1013.81 415.806 1012.55 416.497 1011.39L416.24 1011.24L415.983 1011.09C415.234 1012.33 414.86 1013.71 414.86 1015.2H415.16ZM416.24 1011.24L416.497 1011.39C417.183 1010.25 418.215 1009.34 419.61 1008.67L419.48 1008.4L419.35 1008.13C417.865 1008.84 416.737 1009.83 415.983 1011.09L416.24 1011.24ZM419.48 1008.4L419.614 1008.67C421.002 1007.97 422.713 1007.62 424.76 1007.62V1007.32V1007.02C422.647 1007.02 420.838 1007.39 419.346 1008.13L419.48 1008.4ZM424.76 1007.32V1007.62C426.779 1007.62 428.477 1007.97 429.866 1008.67L430 1008.4L430.134 1008.13C428.643 1007.39 426.847 1007.02 424.76 1007.02V1007.32ZM430 1008.4L429.872 1008.67C431.294 1009.34 432.338 1010.25 433.023 1011.39L433.28 1011.24L433.537 1011.09C432.782 1009.83 431.64 1008.84 430.128 1008.13L430 1008.4ZM433.28 1011.24L433.023 1011.39C433.714 1012.55 434.06 1013.81 434.06 1015.2H434.36H434.66C434.66 1013.71 434.286 1012.33 433.537 1011.09L433.28 1011.24ZM434.36 1015.2H434.06C434.06 1016.64 433.689 1017.9 432.951 1018.99L433.2 1019.16L433.449 1019.33C434.258 1018.13 434.66 1016.75 434.66 1015.2H434.36ZM433.2 1019.16L432.95 1018.99C432.234 1020.07 431.276 1020.9 430.068 1021.49L430.2 1021.76L430.332 1022.03C431.631 1021.39 432.672 1020.49 433.45 1019.33L433.2 1019.16ZM430.2 1021.76L430.096 1022.04C431.561 1022.58 432.71 1023.46 433.553 1024.69L433.8 1024.52L434.047 1024.35C433.13 1023.02 431.879 1022.06 430.304 1021.48L430.2 1021.76ZM433.8 1024.52L433.554 1024.69C434.395 1025.89 434.82 1027.31 434.82 1028.96H435.12H435.42C435.42 1027.2 434.965 1025.66 434.046 1024.35L433.8 1024.52ZM435.12 1028.96H434.82C434.82 1030.64 434.394 1032.11 433.55 1033.39L433.8 1033.56L434.05 1033.73C434.966 1032.34 435.42 1030.75 435.42 1028.96H435.12ZM433.8 1033.56L433.55 1033.39C432.703 1034.68 431.522 1035.67 429.995 1036.37L430.12 1036.64L430.245 1036.91C431.865 1036.17 433.137 1035.11 434.05 1033.73L433.8 1033.56ZM430.12 1036.64L429.995 1036.37C428.467 1037.07 426.724 1037.42 424.76 1037.42V1037.72V1038.02C426.796 1038.02 428.627 1037.65 430.245 1036.91L430.12 1036.64ZM424.76 1037.72V1037.42C422.796 1037.42 421.053 1037.07 419.525 1036.37L419.4 1036.64L419.275 1036.91C420.893 1037.65 422.724 1038.02 424.76 1038.02V1037.72ZM419.4 1036.64L419.527 1036.37C418.027 1035.67 416.858 1034.68 416.01 1033.39L415.76 1033.56L415.51 1033.73C416.422 1035.11 417.68 1036.17 419.273 1036.91L419.4 1036.64ZM415.76 1033.56L416.01 1033.39C415.166 1032.11 414.74 1030.64 414.74 1028.96H414.44H414.14C414.14 1030.75 414.594 1032.34 415.51 1033.73L415.76 1033.56ZM414.44 1028.96H414.74C414.74 1027.28 415.166 1025.85 416.006 1024.65L415.76 1024.48L415.514 1024.31C414.594 1025.62 414.14 1027.17 414.14 1028.96H414.44ZM415.76 1024.48L416.006 1024.65C416.849 1023.45 417.986 1022.58 419.425 1022.04L419.32 1021.76L419.215 1021.48C417.667 1022.06 416.431 1023 415.514 1024.31L415.76 1024.48ZM430 1015.76H430.3C430.3 1014.2 429.809 1012.96 428.795 1012.09L428.6 1012.32L428.405 1012.55C429.257 1013.28 429.7 1014.33 429.7 1015.76H430ZM428.6 1012.32L428.795 1012.09C427.792 1011.23 426.435 1010.82 424.76 1010.82V1011.12V1011.42C426.339 1011.42 427.541 1011.81 428.405 1012.55L428.6 1012.32ZM424.76 1011.12V1010.82C423.11 1010.82 421.767 1011.23 420.765 1012.09L420.96 1012.32L421.155 1012.55C422.02 1011.81 423.21 1011.42 424.76 1011.42V1011.12ZM420.96 1012.32L420.765 1012.09C419.75 1012.96 419.26 1014.21 419.26 1015.8H419.56H419.86C419.86 1014.35 420.304 1013.28 421.155 1012.55L420.96 1012.32ZM419.56 1015.8H419.26C419.26 1017.22 419.774 1018.39 420.801 1019.3L421 1019.08L421.199 1018.86C420.306 1018.06 419.86 1017.05 419.86 1015.8H419.56ZM421 1019.08L420.807 1019.31C421.857 1020.19 423.183 1020.62 424.76 1020.62V1020.32V1020.02C423.297 1020.02 422.116 1019.62 421.193 1018.85L421 1019.08ZM424.76 1020.32V1020.62C426.339 1020.62 427.666 1020.18 428.716 1019.27L428.52 1019.04L428.324 1018.81C427.4 1019.61 426.221 1020.02 424.76 1020.02V1020.32ZM428.52 1019.04L428.716 1019.27C429.77 1018.36 430.3 1017.18 430.3 1015.76H430H429.7C429.7 1017.01 429.243 1018.02 428.324 1018.81L428.52 1019.04ZM424.76 1023.76V1023.46C422.949 1023.46 421.439 1023.91 420.255 1024.84L420.44 1025.08L420.625 1025.32C421.681 1024.49 423.051 1024.06 424.76 1024.06V1023.76ZM420.44 1025.08L420.255 1024.84C419.076 1025.76 418.5 1027.1 418.5 1028.8H418.8H419.1C419.1 1027.25 419.617 1026.1 420.625 1025.32L420.44 1025.08ZM418.8 1028.8H418.5C418.5 1030.4 419.065 1031.72 420.199 1032.74L420.4 1032.52L420.601 1032.3C419.601 1031.4 419.1 1030.24 419.1 1028.8H418.8ZM420.4 1032.52L420.202 1032.75C421.338 1033.74 422.869 1034.22 424.76 1034.22V1033.92V1033.62C422.971 1033.62 421.595 1033.17 420.598 1032.29L420.4 1032.52ZM424.76 1033.92V1034.22C426.627 1034.22 428.134 1033.72 429.243 1032.7L429.04 1032.48L428.837 1032.26C427.866 1033.16 426.52 1033.62 424.76 1033.62V1033.92ZM429.04 1032.48L429.241 1032.7C430.373 1031.68 430.94 1030.37 430.94 1028.8H430.64H430.34C430.34 1030.21 429.84 1031.36 428.839 1032.26L429.04 1032.48ZM430.64 1028.8H430.94C430.94 1027.12 430.363 1025.79 429.188 1024.85L429 1025.08L428.812 1025.31C429.824 1026.13 430.34 1027.28 430.34 1028.8H430.64ZM429 1025.08L429.191 1024.85C428.057 1023.91 426.57 1023.46 424.76 1023.46V1023.76V1024.06C426.47 1024.06 427.809 1024.49 428.809 1025.31L429 1025.08Z" fill="black" mask="url(#path-10-outside-2_97_12)"/>
<path d="M352.175 197.975C359.945 197.975 366.735 199.55 372.545 202.7C378.425 205.78 382.94 210.12 386.09 215.72C389.24 221.32 390.815 227.725 390.815 234.935C390.815 242.075 389.205 248.445 385.985 254.045C382.835 259.645 378.32 264.055 372.44 267.275C366.63 270.425 359.875 272 352.175 272H322.88V197.975H352.175ZM350.6 253.835C356.62 253.835 361.345 252.19 364.775 248.9C368.205 245.61 369.92 240.955 369.92 234.935C369.92 228.845 368.205 224.155 364.775 220.865C361.345 217.505 356.62 215.825 350.6 215.825H343.46V253.835H350.6ZM427.497 272.735C421.617 272.735 416.332 271.51 411.642 269.06C407.022 266.61 403.382 263.11 400.722 258.56C398.062 254.01 396.732 248.655 396.732 242.495C396.732 236.405 398.062 231.085 400.722 226.535C403.452 221.985 407.127 218.485 411.747 216.035C416.437 213.585 421.722 212.36 427.602 212.36C433.482 212.36 438.732 213.585 443.352 216.035C448.042 218.485 451.717 221.985 454.377 226.535C457.107 231.085 458.472 236.405 458.472 242.495C458.472 248.585 457.107 253.94 454.377 258.56C451.717 263.11 448.042 266.61 443.352 269.06C438.662 271.51 433.377 272.735 427.497 272.735ZM427.497 254.885C430.367 254.885 432.747 253.835 434.637 251.735C436.597 249.565 437.577 246.485 437.577 242.495C437.577 238.505 436.597 235.46 434.637 233.36C432.747 231.26 430.402 230.21 427.602 230.21C424.802 230.21 422.457 231.26 420.567 233.36C418.677 235.46 417.732 238.505 417.732 242.495C417.732 246.555 418.642 249.635 420.462 251.735C422.282 253.835 424.627 254.885 427.497 254.885ZM488.58 212.36C492.57 212.36 496.035 213.165 498.975 214.775C501.985 216.385 504.295 218.555 505.905 221.285V213.095H526.485V271.37C526.485 276.9 525.435 281.87 523.335 286.28C521.235 290.76 517.945 294.33 513.465 296.99C509.055 299.65 503.455 300.98 496.665 300.98C487.565 300.98 480.285 298.845 474.825 294.575C469.365 290.305 466.25 284.495 465.48 277.145H485.745C486.165 279.035 487.215 280.505 488.895 281.555C490.575 282.605 492.745 283.13 495.405 283.13C502.405 283.13 505.905 279.21 505.905 271.37V263.81C504.295 266.54 501.985 268.71 498.975 270.32C496.035 271.93 492.57 272.735 488.58 272.735C483.89 272.735 479.62 271.51 475.77 269.06C471.99 266.61 468.98 263.11 466.74 258.56C464.57 253.94 463.485 248.585 463.485 242.495C463.485 236.405 464.57 231.085 466.74 226.535C468.98 221.985 471.99 218.485 475.77 216.035C479.62 213.585 483.89 212.36 488.58 212.36ZM505.905 242.495C505.905 238.715 504.855 235.74 502.755 233.57C500.725 231.4 498.205 230.315 495.195 230.315C492.115 230.315 489.56 231.4 487.53 233.57C485.5 235.67 484.485 238.645 484.485 242.495C484.485 246.275 485.5 249.285 487.53 251.525C489.56 253.695 492.115 254.78 495.195 254.78C498.205 254.78 500.725 253.695 502.755 251.525C504.855 249.355 505.905 246.345 505.905 242.495Z" fill="black"/>
<path d="M238.912 436.156C262.915 434.207 278.052 450.813 287.51 471.482C317.636 460.661 369.033 456.81 398.44 473.006C420.977 419.558 471.439 429.559 490.403 480.097C503.397 514.728 499.423 507.849 525.155 531.795C559.359 563.625 500.823 645.55 439.996 586.329C438.319 602.929 434.009 620.712 425.861 635.307C443.526 666.47 462.806 684.484 502.159 683.955C542.057 683.419 550.293 679.738 589.214 699.544C594.236 695.566 599.503 691.981 604.368 687.788C642.45 654.97 651.842 601.657 630.637 556.429C625.916 546.361 610.769 532.914 625.223 527.115C652.975 531.573 678.829 557.036 689.254 582.069C715.765 645.736 683.051 709.308 621.979 734.385C655.063 785.935 632.556 841.39 653.56 874.855C656.414 879.402 660.173 883.389 661.578 888.703C655.692 908.745 651.778 929.65 648.666 950.293C648.021 954.572 647.628 975.412 643.647 977.089C641.83 977.855 588.834 978.507 583.084 976.456C570.496 971.962 575.175 949.984 589.214 944.122C594.174 941.105 598.817 940.988 604.436 940.968C607.166 930.918 613.551 904.279 606.221 895.275C602.891 891.182 591.946 884.811 587.164 881.59C582.867 887.486 576.338 891.364 570.755 895.901C547.808 914.555 547.053 943.599 540.398 950.701C537.41 953.891 498.762 953.789 493.353 952.586C473.795 948.241 481.857 916.079 505.555 916.079C510.124 905.955 516.672 895.447 523.648 886.806C512.7 879.447 504.127 868.531 497.271 857.374C478.294 867.309 459.08 875.008 438.121 879.562C435.983 893.27 433.108 906.921 430.608 920.573C425.655 947.603 421.666 977.321 387.404 983.282C382.551 984.126 351.087 984.241 346.011 983.279C319.517 978.251 336.641 932.764 366.766 929.886V877.313C358.574 875.104 348.544 872.074 341.613 867.056C339.202 873.63 338.711 880.838 337.855 887.751L332.948 930.481C330.206 954.344 326.841 976.081 297.8 982.72C291.419 984.177 265.023 984.397 258.282 983.344C232.457 979.311 244.526 936.195 276.081 929.886C272.757 884.459 267.387 841.989 267.831 795.61C267.976 780.498 267.216 778.108 265.005 763.764C259.297 726.748 270.51 691.228 283.01 656.808C253.445 642.575 248.704 615.656 244.084 585.576C231.663 594.836 227.127 603.03 208.921 605.644C180.553 609.714 156.014 588.436 152.408 560.603C148.881 533.38 169.02 531.04 182.33 510.591C198.074 486.401 202.081 440.518 238.912 436.156ZM256.358 604.373C259.549 597.997 278.625 564.836 288.555 569.877C290.664 570.947 291.769 573.982 290.419 576.054C287.638 580.327 279.076 582.912 273.611 592.225L274.185 592.908C283.594 591.696 307.669 568.513 315.603 573.294C333.148 565.047 354.179 562.416 370.642 575.05L370.958 574.282C373.28 572.048 387.794 574.459 391.826 573.982C383.5 567.985 387.905 559.712 404.009 571.783C416.201 580.918 422.606 591.891 427.933 605.884C432.987 577.971 437.322 528.539 422.622 502.472C417.593 490.04 409.493 486.713 397.863 481.626C364.038 466.832 323.629 466.727 289.397 480.091C278.518 484.338 268.199 488.317 263.247 499.627C260.869 502.744 259.661 507.053 258.384 510.709C248.663 538.535 249.299 575.508 256.358 604.373Z" fill="black"/>
<path d="M431.576 668.448L434.893 665.163C438.696 669.103 443.15 672.589 446.744 676.666C450.806 678.473 454.449 680.913 458.36 682.994C484.948 697.144 503.244 690.735 529.336 691.256C602.941 692.725 632.249 751.283 634.674 817.277C635.368 836.167 633.773 853.182 642.004 871.033C644.494 877.505 648.233 883.039 652.149 888.704C646.153 915.099 640.251 941.492 637.664 968.498H587.164C576.235 947.617 608.415 951.619 611.325 947.116C616.781 938.667 619.968 904.419 616.277 895.167C613.386 887.924 606.441 884.354 600.446 879.97C563.942 853.274 542.927 833.531 535.349 786.638C534.631 782.193 535.584 769.159 531.182 766.567C523.146 761.834 525.455 777.188 525.797 780.284C528.426 804.005 533.882 815.617 543.219 836.049C538.554 835.979 533.877 836.046 529.21 836.049C515.835 838.556 505.21 843.629 493.098 849.785C475.889 858.534 458.302 864.94 439.996 871.033C441.611 854.874 445.47 839.058 445.991 822.747C446.223 819.465 445.909 785.415 437.193 798.78C436.617 799.666 437.393 819.388 437.198 822.424C435.041 855.765 427.901 889.206 421.347 921.928C416.727 945 413.101 972.874 381.791 974.818C373.909 975.307 356.611 975.3 349.202 974.653C333.434 973.276 345.749 942.159 366.402 938.496C372.524 937.409 374.628 938.947 375.049 931.817C375.594 922.6 375.314 913.182 375.419 903.94L376.026 860.08C376.035 858.497 379.045 817.495 367.693 833.305C365.93 845.127 367.546 856.859 366.766 868.677C361.675 866.688 355.688 864.883 351.012 862.117C305.023 842.501 289.05 809.75 273.611 767.033C273.825 746.845 268.157 731.684 276.081 709.86C277.027 700.911 280.436 692.47 283.01 683.903C294.842 690.422 310.407 692.45 318.111 701.09C330.136 714.577 350.163 715.159 363.281 702.772C373.924 692.722 377.245 694.132 391.044 689.219C405.543 684.059 418.995 677.342 431.576 668.448Z" fill="#EB9B57"/>
<path d="M273.611 767.033C313.341 756.046 328.006 765.143 352.764 792.25C363.069 808.899 361.956 821.29 367.693 833.306C365.93 845.127 367.546 856.859 366.766 868.677C361.675 866.688 355.688 864.884 351.012 862.117C305.024 842.501 289.05 809.75 273.611 767.033Z" fill="#FECD79"/>
<path d="M352.764 792.25C363.069 808.899 361.956 821.29 367.693 833.305C365.93 845.127 367.546 856.859 366.766 868.677C361.675 866.688 355.688 864.883 351.012 862.117C353.949 841.141 348.68 805.761 352.764 792.25Z" fill="#FCC08C"/>
<path d="M446.744 676.666C450.806 678.473 454.449 680.913 458.36 682.994C484.948 697.144 503.244 690.734 529.336 691.256C602.941 692.725 632.249 751.283 634.674 817.277C635.368 836.166 633.773 853.182 642.004 871.032C639.774 870.788 637.84 868.928 636.286 867.417C610.534 842.34 632.288 787.836 601.12 742.237C556.534 677.004 487.318 727.605 439.996 682.195C442.175 680.162 444.199 678.243 446.744 676.666Z" fill="#FCC08C"/>
<path d="M445.991 822.747C464.314 816.613 504.859 811.378 520.828 819.325C529.289 823.538 529.947 827.691 529.21 836.048C515.835 838.556 505.21 843.629 493.098 849.785C475.889 858.533 458.302 864.94 439.996 871.032C441.611 854.874 445.47 839.058 445.991 822.747Z" fill="#FECD79"/>
<path d="M283.01 683.903C294.843 690.421 310.407 692.45 318.111 701.09C330.137 714.576 350.163 715.159 363.281 702.772C373.924 692.722 377.245 694.132 391.044 689.219C405.543 684.058 418.995 677.341 431.576 668.448C433.82 673.516 436.423 677.952 439.996 682.195C422.654 695.575 401.467 703.908 380.052 707.893C378.35 710.201 376.922 712.8 374.975 714.905C361.103 729.913 334.733 731.553 318.322 719.131C303.345 707.795 294.021 705.179 276.081 709.86C277.027 700.911 280.436 692.47 283.01 683.903Z" fill="#D57539"/>
<path d="M263.247 499.627C268.199 488.317 278.518 484.338 289.397 480.091C323.629 466.727 364.038 466.832 397.863 481.626C409.493 486.713 417.593 490.04 422.622 502.472C437.322 528.539 432.987 577.971 427.933 605.884C422.606 591.891 416.201 580.918 404.009 571.783C387.905 559.712 383.5 567.985 391.826 573.982C387.794 574.459 373.28 572.048 370.958 574.282L370.642 575.05C354.179 562.416 333.148 565.047 315.603 573.294C307.669 568.513 283.594 591.696 274.185 592.908L273.611 592.225C279.076 582.912 287.638 580.327 290.419 576.054C291.769 573.982 290.664 570.947 288.555 569.877C278.625 564.836 259.549 597.997 256.358 604.373C249.299 575.508 248.663 538.535 258.384 510.709C259.661 507.053 260.869 502.744 263.247 499.627ZM383.171 529.59C386.686 528.735 388.83 525.178 387.943 521.672C387.058 518.164 383.482 516.053 379.983 516.972C376.527 517.877 374.448 521.398 375.323 524.861C376.2 528.325 379.702 530.435 383.171 529.59ZM303.844 544.594C312.658 543.076 318.569 534.697 317.043 525.884C315.517 517.074 307.133 511.169 298.323 512.704C289.523 514.237 283.631 522.607 285.154 531.407C286.678 540.206 295.043 546.108 303.844 544.594Z" fill="#EB9B57"/>
<path d="M263.247 499.627C268.199 488.317 278.518 484.338 289.397 480.091C323.629 466.727 364.038 466.832 397.863 481.626C409.493 486.713 417.593 490.04 422.622 502.472C419.722 502.938 415.418 499.704 412.811 498.51C369.442 478.642 318.058 478.001 273.911 495.992C271.521 496.967 265.664 500.834 263.247 499.627Z" fill="#FCC08C"/>
<path d="M379.463 512.621C388.53 512.062 396.35 518.923 396.973 527.985C397.597 537.048 390.791 544.917 381.733 545.604C372.584 546.299 364.619 539.408 363.99 530.255C363.36 521.103 370.305 513.187 379.463 512.621ZM383.171 529.59C386.686 528.735 388.83 525.178 387.943 521.672C387.058 518.164 383.481 516.053 379.982 516.972C376.527 517.877 374.448 521.398 375.323 524.861C376.2 528.325 379.701 530.435 383.171 529.59Z" fill="black"/>
<path d="M298.322 512.704C307.133 511.169 315.517 517.074 317.043 525.884C318.569 534.697 312.658 543.076 303.844 544.593C295.043 546.108 286.678 540.206 285.154 531.407C283.631 522.607 289.523 514.237 298.322 512.704ZM307.873 530.212C311.701 529.501 314.245 525.841 313.573 522.005C312.904 518.169 309.269 515.588 305.427 516.217C302.905 516.631 300.799 518.368 299.914 520.765C299.027 523.161 299.498 525.851 301.143 527.805C302.79 529.759 305.36 530.679 307.873 530.212Z" fill="black"/>
<path d="M406.164 475.846C416.338 454.895 431.122 437.5 455.735 449.527C474.002 458.451 481.316 479.376 487.731 497.165C496.935 520.376 499.378 521.398 517.215 535.963C547.81 560.942 499.086 623.218 456.166 588.922C450.847 584.995 445.829 580.688 441.359 575.812C439.961 548.087 443.112 507.571 422.488 486.206C419.895 483.52 416.237 481.58 413.194 479.398C410.853 478.221 408.469 477.091 406.164 475.846Z" fill="#EB9B57"/>
<path d="M414.85 478.362C418.529 479.996 422.59 481.482 425.785 483.977C448.541 501.742 456.986 562.931 456.166 588.922C450.847 584.995 445.829 580.688 441.359 575.812C439.961 548.087 443.112 507.571 422.489 486.206C419.895 483.52 416.238 481.58 413.194 479.398L414.85 478.362Z" fill="#D57539"/>
<path d="M406.164 475.846C416.338 454.895 431.122 437.5 455.735 449.527C474.002 458.451 481.316 479.376 487.731 497.165L487.042 497.874C485.082 496.777 483.287 492.745 482.023 490.735C471.748 474.385 452.262 449.445 430.303 461.736C424.479 464.996 416.728 471.686 414.85 478.362L413.194 479.398C410.853 478.221 408.469 477.091 406.164 475.846Z" fill="#FCC08C"/>
<path d="M197.121 502.472C204.031 483.278 210.688 456.745 230.714 447.293C252.961 436.792 270.827 455.68 279.645 474.505C278.695 475.061 277.718 475.446 276.695 475.846L273.611 478.362C248.727 486.014 243.449 531.595 243.064 552.727C242.785 568.028 245.196 575.428 231.24 585.576C207.521 609.993 166.391 594.823 161.387 562.299C158.758 545.209 162.64 543.037 174.107 532.834C187.502 520.916 188.335 514.343 197.121 502.472Z" fill="#EB9B57"/>
<path d="M197.121 502.472C204.031 483.278 210.688 456.745 230.714 447.293C252.961 436.792 270.827 455.68 279.645 474.505C278.695 475.061 277.717 475.446 276.695 475.846C274.949 475.704 273.278 475.751 271.535 475.846C257.915 450.492 237.674 451.67 219.661 472.77C216.266 476.747 200.06 502.127 197.121 502.472Z" fill="#FCC08C"/>
<path d="M231.239 585.577C230.398 562.316 231.721 537.348 239.117 515.114C242.879 503.803 257.468 472.992 273.611 478.362C248.727 486.014 243.449 531.595 243.064 552.727C242.785 568.028 245.196 575.428 231.239 585.577Z" fill="#D57539"/>
<path d="M629.449 536.771C642.622 541.157 656.695 550.761 665.615 561.382C716.008 619.617 683.756 700.004 617.793 726.815C614.429 723.228 611.824 719.641 609.052 715.635C604.55 712.845 600.698 708.85 596.387 705.716C603.6 699.988 610.93 694.282 617.431 687.736C659.263 645.627 659.509 585.126 629.449 536.771Z" fill="#D57539"/>
<path d="M609.052 715.635C611.901 712.101 616.65 709.784 620.304 707.111C660.24 677.892 684.104 622.14 668.633 573.826C667.841 571.356 663.107 563.065 665.615 561.382C716.008 619.617 683.756 700.004 617.793 726.815C614.429 723.228 611.824 719.641 609.052 715.635Z" fill="#EB9B57"/>
<path d="M279.645 865.82C283.507 866.916 318.677 898.724 326.604 906.201L326.805 906.912C323.657 930.312 326.662 969.267 295.147 974.069C290.211 974.82 260.97 975.323 257.475 974.126C250.687 971.799 253.96 960.363 255.849 955.821C263.024 938.576 272.762 941.157 284.801 936.281C286.017 934.765 279.973 871.618 279.645 865.82Z" fill="#D57539"/>
<path d="M531.529 844.883C537.06 844.185 543.139 844.935 548.747 844.883C559.641 859.333 565.729 864.862 580.796 876.024C574.971 881.918 567.816 886.043 561.744 891.611C548.11 904.113 538.358 926.442 534.128 944.122H512.777C504.108 944.105 486.129 947.474 492.42 932.444C496.987 921.534 504.019 927.368 509.457 924.886C512.483 923.504 522.729 902.5 525.247 898.531C534.853 883.383 538.604 888.966 522.454 874.689C515.794 868.802 509.88 861.143 505.555 853.41C513.646 848.948 522.312 845.799 531.529 844.883Z" fill="#D57539"/>
<path d="M370.642 575.05L370.958 574.281C373.28 572.048 387.794 574.459 391.826 573.982C407.058 581.215 428.751 610.188 420.038 628.168C409.499 649.915 397.552 648.447 379.046 653.989C367.903 640.998 354.191 639.671 346.279 621.048C357.621 618.552 370.394 614.908 377.118 604.553C383.873 594.151 381.009 581.713 370.642 575.05Z" fill="#FECD79"/>
<path d="M273.611 592.225L274.185 592.908C283.594 591.696 307.669 568.512 315.603 573.294C304.106 582.066 298.866 594.4 308.92 606.571C316.49 615.736 327.788 618.584 338.851 621.048C328.931 644.322 310.568 642.145 301.359 653.989C282.028 648.648 265.415 638.463 260.367 618.066C262.659 608.782 267.787 599.756 273.611 592.225Z" fill="#FECD79"/>
<path d="M276.695 799.054C287.58 824.649 308.107 848.037 332.195 862.117C330.39 876.998 329.037 892.096 326.805 906.912L326.604 906.201C318.677 898.724 283.507 866.916 279.645 865.82C276.922 847.163 275.688 817.16 276.695 799.054Z" fill="#CF6831"/>
<path d="M346.279 638.511C352.492 643.824 358.968 649.682 365.926 653.989C365.837 655.819 365.795 657.588 365.926 659.422C365.847 672.918 367.68 685.264 357.303 696.18C348.198 705.759 334.222 705.488 325.018 696.247C314.934 686.122 315.619 672.666 315.603 659.422C315.555 657.615 315.599 655.797 315.603 653.989C323.964 650.28 331.36 644.858 337.896 638.511V646.614L337.851 665.728C337.832 669.116 337.372 673.19 338.056 676.501C338.771 679.948 343.318 680.209 345.179 677.605C347.301 674.636 346.268 651.782 346.279 646.614C346.264 643.914 346.216 641.21 346.279 638.511Z" fill="#FE867E"/>
<path d="M346.279 638.511C352.492 643.824 358.968 649.682 365.926 653.989C365.837 655.819 365.795 657.588 365.926 659.422C357.936 656.99 351.866 648.543 346.279 646.614C346.264 643.914 346.216 641.21 346.279 638.511Z" fill="#EE4B49"/>
<path d="M315.603 653.989C323.964 650.28 331.36 644.858 337.896 638.511V646.614C334.157 647.706 320.247 656.61 315.603 659.422C315.555 657.615 315.599 655.797 315.603 653.989Z" fill="#EE4B49"/>
<path d="M338.851 575.05C352.003 573.597 383.614 583.264 369.502 600.785C363.992 607.627 354.699 610.707 346.279 611.678C336.912 612.869 326.812 610.67 319.283 604.77C299.917 589.598 322.044 576.339 338.851 575.05Z" fill="#7E6460"/>
<path d="M338.851 579.02C342.127 578.449 361.07 578.424 354.685 585.986C351.314 587.396 345.287 586.331 341.613 586.329C340.494 586.3 321.126 589.072 325.177 583.296C327.307 580.259 335.373 579.177 338.851 579.02Z" fill="white"/>
<path d="M420.737 643.731C423.85 647.499 427.107 654.927 430.152 659.422C415.811 668.378 395.551 680.328 379.046 683.903C376.829 685.266 374.582 686.394 372.137 687.285C375.708 674.526 374.588 675.277 374.516 662.056C394.816 660.412 405.601 658.139 420.737 643.731Z" fill="#EE4B49"/>
<path d="M291.501 659.422C296.59 661.151 301.916 661.952 307.279 662.056C307.085 669.988 307.727 677.742 308.552 685.622L304.341 683.903C299.304 682.595 291.268 680.249 287.51 676.666C287.724 670.51 289.617 665.231 291.501 659.422Z" fill="#EE4B49"/>
</svg>
