<svg width="849" height="1183" viewBox="0 0 849 1183" fill="none" xmlns="http://www.w3.org/2000/svg">
<rect x="5" y="5" width="839" height="1173" rx="45" fill="white"/>
<rect x="5" y="5" width="839" height="1173" rx="45" stroke="black" stroke-width="10"/>
<circle cx="786.5" cy="1124.5" r="11.5" fill="black"/>
<circle cx="786.5" cy="59.5" r="11.5" fill="black"/>
<path d="M77 1124.5C77 1130.85 71.8513 1136 65.5 1136C59.1487 1136 54 1130.85 54 1124.5C54 1118.15 59.1487 1113 65.5 1113C71.8513 1113 77 1118.15 77 1124.5Z" fill="black"/>
<path d="M77 59.5C77 65.8513 71.8513 71 65.5 71C59.1487 71 54 65.8513 54 59.5C54 53.1487 59.1487 48 65.5 48C71.8513 48 77 53.1487 77 59.5Z" fill="black"/>
<mask id="path-6-inside-1_97_50" fill="white">
<path d="M708 48C713.523 48 717.934 52.4996 718.616 57.9801C723.122 94.1833 751.817 122.878 788.02 127.384C793.5 128.066 798 132.477 798 138V1046C798 1051.52 793.5 1055.93 788.02 1056.62C751.817 1061.12 723.122 1089.82 718.616 1126.02C717.934 1131.5 713.523 1136 708 1136H141C135.477 1136 131.066 1131.5 130.384 1126.02C125.878 1089.82 97.1833 1061.12 60.9801 1056.62C55.4996 1055.93 51 1051.52 51 1046V138C51 132.477 55.4996 128.066 60.9801 127.384C97.1833 122.878 125.878 94.1833 130.384 57.9801C131.066 52.4996 135.477 48 141 48H708Z"/>
</mask>
<path d="M708 48C713.523 48 717.934 52.4996 718.616 57.9801C723.122 94.1833 751.817 122.878 788.02 127.384C793.5 128.066 798 132.477 798 138V1046C798 1051.52 793.5 1055.93 788.02 1056.62C751.817 1061.12 723.122 1089.82 718.616 1126.02C717.934 1131.5 713.523 1136 708 1136H141C135.477 1136 131.066 1131.5 130.384 1126.02C125.878 1089.82 97.1833 1061.12 60.9801 1056.62C55.4996 1055.93 51 1051.52 51 1046V138C51 132.477 55.4996 128.066 60.9801 127.384C97.1833 122.878 125.878 94.1833 130.384 57.9801C131.066 52.4996 135.477 48 141 48H708Z" fill="#DBEE71"/>
<path d="M130.384 1126.02L138.322 1125.03L130.384 1126.02ZM718.616 1126.02L710.678 1125.03L718.616 1126.02ZM788.02 1056.62L789.008 1064.56L788.02 1056.62ZM718.616 57.9801L726.555 56.9922L718.616 57.9801ZM718.616 57.9801L710.678 58.9681C715.635 98.8063 747.194 130.365 787.032 135.322L788.02 127.384L789.008 119.445C756.44 115.392 730.608 89.5603 726.555 56.9922L718.616 57.9801ZM798 138H790V1046H798H806V138H798ZM788.02 1056.62L787.032 1048.68C747.194 1053.64 715.635 1085.19 710.678 1125.03L718.616 1126.02L726.555 1127.01C730.608 1094.44 756.44 1068.61 789.008 1064.56L788.02 1056.62ZM708 1136V1128H141V1136V1144H708V1136ZM130.384 1126.02L138.322 1125.03C133.365 1085.19 101.806 1053.64 61.9681 1048.68L60.9801 1056.62L59.9922 1064.56C92.5603 1068.61 118.392 1094.44 122.445 1127.01L130.384 1126.02ZM51 1046H59V138H51H43V1046H51ZM60.9801 127.384L61.9681 135.322C101.806 130.365 133.365 98.8063 138.322 58.9681L130.384 57.9801L122.445 56.9922C118.392 89.5603 92.5603 115.392 59.9922 119.445L60.9801 127.384ZM141 48V56H708V48V40H141V48ZM130.384 57.9801L138.322 58.9681C138.438 58.0389 138.872 57.2306 139.427 56.6958C139.954 56.1887 140.494 56 141 56V48V40C130.84 40 123.547 48.1329 122.445 56.9922L130.384 57.9801ZM51 138H59C59 137.494 59.1887 136.954 59.6958 136.427C60.2306 135.872 61.0389 135.438 61.9681 135.322L60.9801 127.384L59.9922 119.445C51.1329 120.547 43 127.84 43 138H51ZM60.9801 1056.62L61.9681 1048.68C61.0389 1048.56 60.2306 1048.13 59.6958 1047.57C59.1887 1047.05 59 1046.51 59 1046H51H43C43 1056.16 51.1329 1063.45 59.9922 1064.56L60.9801 1056.62ZM141 1136V1128C140.494 1128 139.954 1127.81 139.427 1127.3C138.872 1126.77 138.438 1125.96 138.322 1125.03L130.384 1126.02L122.445 1127.01C123.547 1135.87 130.84 1144 141 1144V1136ZM718.616 1126.02L710.678 1125.03C710.562 1125.96 710.128 1126.77 709.573 1127.3C709.046 1127.81 708.506 1128 708 1128V1136V1144C718.16 1144 725.453 1135.87 726.555 1127.01L718.616 1126.02ZM798 1046H790C790 1046.51 789.811 1047.05 789.304 1047.57C788.769 1048.13 787.961 1048.56 787.032 1048.68L788.02 1056.62L789.008 1064.56C797.867 1063.45 806 1056.16 806 1046H798ZM788.02 127.384L787.032 135.322C787.961 135.438 788.769 135.872 789.304 136.427C789.811 136.954 790 137.494 790 138H798H806C806 127.84 797.867 120.547 789.008 119.445L788.02 127.384ZM718.616 57.9801L726.555 56.9922C725.453 48.1329 718.16 40 708 40V48V56C708.506 56 709.046 56.1887 709.573 56.6958C710.128 57.2306 710.562 58.0389 710.678 58.9681L718.616 57.9801Z" fill="black" mask="url(#path-6-inside-1_97_50)"/>
<path d="M690 102C695.523 102 699.911 106.512 700.837 111.957C705.019 136.563 724.437 155.981 749.043 160.163C754.488 161.089 759 165.477 759 171V1014C759 1019.52 754.488 1023.91 749.043 1024.84C724.711 1028.97 705.454 1048 700.984 1072.22C699.993 1077.59 695.633 1082 690.175 1082H158.825C153.367 1082 149.007 1077.59 148.016 1072.22C143.546 1048 124.288 1028.97 99.9568 1024.84C94.5121 1023.91 90 1019.52 90 1014V171C90 165.477 94.512 161.089 99.9568 160.163C124.563 155.981 143.981 136.563 148.163 111.957C149.089 106.512 153.477 102 159 102H690Z" fill="#DFE4C2"/>
<path d="M253.145 378.335C253.145 372.555 254.477 367.37 257.14 362.78C259.86 358.19 263.515 354.62 268.105 352.07C272.752 349.463 277.823 348.16 283.32 348.16C289.61 348.16 295.192 349.718 300.065 352.835C304.995 355.895 308.565 360.258 310.775 365.925H299.13C297.6 362.808 295.475 360.485 292.755 358.955C290.035 357.425 286.89 356.66 283.32 356.66C279.41 356.66 275.925 357.538 272.865 359.295C269.805 361.052 267.397 363.573 265.64 366.86C263.94 370.147 263.09 373.972 263.09 378.335C263.09 382.698 263.94 386.523 265.64 389.81C267.397 393.097 269.805 395.647 272.865 397.46C275.925 399.217 279.41 400.095 283.32 400.095C286.89 400.095 290.035 399.33 292.755 397.8C295.475 396.27 297.6 393.947 299.13 390.83H310.775C308.565 396.497 304.995 400.86 300.065 403.92C295.192 406.98 289.61 408.51 283.32 408.51C277.767 408.51 272.695 407.235 268.105 404.685C263.515 402.078 259.86 398.48 257.14 393.89C254.477 389.3 253.145 384.115 253.145 378.335ZM342.432 408.765C338.012 408.765 334.017 407.773 330.447 405.79C326.877 403.75 324.072 400.917 322.032 397.29C319.992 393.607 318.972 389.357 318.972 384.54C318.972 379.78 320.021 375.558 322.117 371.875C324.214 368.192 327.076 365.358 330.702 363.375C334.329 361.392 338.381 360.4 342.857 360.4C347.334 360.4 351.386 361.392 355.012 363.375C358.639 365.358 361.501 368.192 363.597 371.875C365.694 375.558 366.742 379.78 366.742 384.54C366.742 389.3 365.666 393.522 363.512 397.205C361.359 400.888 358.412 403.75 354.672 405.79C350.989 407.773 346.909 408.765 342.432 408.765ZM342.432 400.35C344.926 400.35 347.249 399.755 349.402 398.565C351.612 397.375 353.397 395.59 354.757 393.21C356.117 390.83 356.797 387.94 356.797 384.54C356.797 381.14 356.146 378.278 354.842 375.955C353.539 373.575 351.811 371.79 349.657 370.6C347.504 369.41 345.181 368.815 342.687 368.815C340.194 368.815 337.871 369.41 335.717 370.6C333.621 371.79 331.949 373.575 330.702 375.955C329.456 378.278 328.832 381.14 328.832 384.54C328.832 389.583 330.107 393.493 332.657 396.27C335.264 398.99 338.522 400.35 342.432 400.35ZM433.016 360.4C436.7 360.4 439.986 361.165 442.876 362.695C445.823 364.225 448.118 366.492 449.761 369.495C451.461 372.498 452.311 376.125 452.311 380.375V408H442.706V381.82C442.706 377.627 441.658 374.425 439.561 372.215C437.465 369.948 434.603 368.815 430.976 368.815C427.35 368.815 424.46 369.948 422.306 372.215C420.21 374.425 419.161 377.627 419.161 381.82V408H409.556V381.82C409.556 377.627 408.508 374.425 406.411 372.215C404.315 369.948 401.453 368.815 397.826 368.815C394.2 368.815 391.31 369.948 389.156 372.215C387.06 374.425 386.011 377.627 386.011 381.82V408H376.321V361.165H386.011V366.52C387.598 364.593 389.61 363.092 392.046 362.015C394.483 360.938 397.09 360.4 399.866 360.4C403.606 360.4 406.95 361.193 409.896 362.78C412.843 364.367 415.11 366.662 416.696 369.665C418.113 366.832 420.323 364.593 423.326 362.95C426.33 361.25 429.56 360.4 433.016 360.4ZM507.567 383.435C507.567 385.192 507.453 386.778 507.227 388.195H471.442C471.725 391.935 473.113 394.938 475.607 397.205C478.1 399.472 481.16 400.605 484.787 400.605C490 400.605 493.683 398.423 495.837 394.06H506.292C504.875 398.367 502.297 401.908 498.557 404.685C494.873 407.405 490.283 408.765 484.787 408.765C480.31 408.765 476.287 407.773 472.717 405.79C469.203 403.75 466.427 400.917 464.387 397.29C462.403 393.607 461.412 389.357 461.412 384.54C461.412 379.723 462.375 375.502 464.302 371.875C466.285 368.192 469.033 365.358 472.547 363.375C476.117 361.392 480.197 360.4 484.787 360.4C489.207 360.4 493.145 361.363 496.602 363.29C500.058 365.217 502.75 367.937 504.677 371.45C506.603 374.907 507.567 378.902 507.567 383.435ZM497.452 380.375C497.395 376.805 496.12 373.943 493.627 371.79C491.133 369.637 488.045 368.56 484.362 368.56C481.018 368.56 478.157 369.637 475.777 371.79C473.397 373.887 471.98 376.748 471.527 380.375H497.452ZM528.408 369.07V394.995C528.408 396.752 528.804 398.027 529.598 398.82C530.448 399.557 531.864 399.925 533.848 399.925H539.798V408H532.148C527.784 408 524.441 406.98 522.118 404.94C519.794 402.9 518.633 399.585 518.633 394.995V369.07H513.108V361.165H518.633V349.52H528.408V361.165H539.798V369.07H528.408ZM545.499 384.37C545.499 379.667 546.462 375.502 548.389 371.875C550.372 368.248 553.035 365.443 556.379 363.46C559.779 361.42 563.519 360.4 567.599 360.4C571.282 360.4 574.484 361.137 577.204 362.61C579.98 364.027 582.19 365.812 583.834 367.965V361.165H593.609V408H583.834V401.03C582.19 403.24 579.952 405.082 577.119 406.555C574.285 408.028 571.055 408.765 567.429 408.765C563.405 408.765 559.722 407.745 556.379 405.705C553.035 403.608 550.372 400.718 548.389 397.035C546.462 393.295 545.499 389.073 545.499 384.37ZM583.834 384.54C583.834 381.31 583.154 378.505 581.794 376.125C580.49 373.745 578.762 371.932 576.609 370.685C574.455 369.438 572.132 368.815 569.639 368.815C567.145 368.815 564.822 369.438 562.669 370.685C560.515 371.875 558.759 373.66 557.399 376.04C556.095 378.363 555.444 381.14 555.444 384.37C555.444 387.6 556.095 390.433 557.399 392.87C558.759 395.307 560.515 397.177 562.669 398.48C564.879 399.727 567.202 400.35 569.639 400.35C572.132 400.35 574.455 399.727 576.609 398.48C578.762 397.233 580.49 395.42 581.794 393.04C583.154 390.603 583.834 387.77 583.834 384.54Z" fill="black"/>
<mask id="path-10-outside-2_97_50" maskUnits="userSpaceOnUse" x="400" y="1006" width="48" height="32" fill="black">
<rect fill="white" x="400" y="1006" width="48" height="32"/>
<path d="M400.84 1030.92V1027.48L414.28 1008.2H419.8V1026.96H423.52V1030.92H419.8V1037H415.32V1030.92H400.84ZM415.52 1012.84L406.08 1026.96H415.52V1012.84ZM432.978 1029.08C433.245 1030.41 433.818 1031.43 434.698 1032.12C435.578 1032.81 436.765 1033.16 438.258 1033.16C440.152 1033.16 441.538 1032.41 442.418 1030.92C443.298 1029.43 443.738 1026.88 443.738 1023.28C443.098 1024.19 442.192 1024.89 441.018 1025.4C439.872 1025.88 438.618 1026.12 437.258 1026.12C435.525 1026.12 433.952 1025.77 432.538 1025.08C431.125 1024.36 430.005 1023.31 429.178 1021.92C428.378 1020.51 427.978 1018.8 427.978 1016.8C427.978 1013.87 428.832 1011.53 430.538 1009.8C432.272 1008.04 434.645 1007.16 437.658 1007.16C441.285 1007.16 443.858 1008.37 445.378 1010.8C446.925 1013.2 447.698 1016.89 447.698 1021.88C447.698 1025.32 447.405 1028.13 446.818 1030.32C446.258 1032.51 445.272 1034.16 443.858 1035.28C442.445 1036.4 440.485 1036.96 437.978 1036.96C435.125 1036.96 432.925 1036.21 431.378 1034.72C429.832 1033.23 428.965 1031.35 428.778 1029.08H432.978ZM438.058 1022.28C439.658 1022.28 440.912 1021.79 441.818 1020.8C442.752 1019.79 443.218 1018.45 443.218 1016.8C443.218 1014.96 442.725 1013.53 441.738 1012.52C440.778 1011.48 439.458 1010.96 437.778 1010.96C436.098 1010.96 434.765 1011.49 433.778 1012.56C432.818 1013.6 432.338 1014.97 432.338 1016.68C432.338 1018.31 432.805 1019.65 433.738 1020.72C434.698 1021.76 436.138 1022.28 438.058 1022.28Z"/>
</mask>
<path d="M400.84 1030.92V1027.48L414.28 1008.2H419.8V1026.96H423.52V1030.92H419.8V1037H415.32V1030.92H400.84ZM415.52 1012.84L406.08 1026.96H415.52V1012.84ZM432.978 1029.08C433.245 1030.41 433.818 1031.43 434.698 1032.12C435.578 1032.81 436.765 1033.16 438.258 1033.16C440.152 1033.16 441.538 1032.41 442.418 1030.92C443.298 1029.43 443.738 1026.88 443.738 1023.28C443.098 1024.19 442.192 1024.89 441.018 1025.4C439.872 1025.88 438.618 1026.12 437.258 1026.12C435.525 1026.12 433.952 1025.77 432.538 1025.08C431.125 1024.36 430.005 1023.31 429.178 1021.92C428.378 1020.51 427.978 1018.8 427.978 1016.8C427.978 1013.87 428.832 1011.53 430.538 1009.8C432.272 1008.04 434.645 1007.16 437.658 1007.16C441.285 1007.16 443.858 1008.37 445.378 1010.8C446.925 1013.2 447.698 1016.89 447.698 1021.88C447.698 1025.32 447.405 1028.13 446.818 1030.32C446.258 1032.51 445.272 1034.16 443.858 1035.28C442.445 1036.4 440.485 1036.96 437.978 1036.96C435.125 1036.96 432.925 1036.21 431.378 1034.72C429.832 1033.23 428.965 1031.35 428.778 1029.08H432.978ZM438.058 1022.28C439.658 1022.28 440.912 1021.79 441.818 1020.8C442.752 1019.79 443.218 1018.45 443.218 1016.8C443.218 1014.96 442.725 1013.53 441.738 1012.52C440.778 1011.48 439.458 1010.96 437.778 1010.96C436.098 1010.96 434.765 1011.49 433.778 1012.56C432.818 1013.6 432.338 1014.97 432.338 1016.68C432.338 1018.31 432.805 1019.65 433.738 1020.72C434.698 1021.76 436.138 1022.28 438.058 1022.28Z" fill="black"/>
<path d="M400.84 1030.92H400.54V1031.22H400.84V1030.92ZM400.84 1027.48L400.594 1027.31L400.54 1027.39V1027.48H400.84ZM414.28 1008.2V1007.9H414.123L414.034 1008.03L414.28 1008.2ZM419.8 1008.2H420.1V1007.9H419.8V1008.2ZM419.8 1026.96H419.5V1027.26H419.8V1026.96ZM423.52 1026.96H423.82V1026.66H423.52V1026.96ZM423.52 1030.92V1031.22H423.82V1030.92H423.52ZM419.8 1030.92V1030.62H419.5V1030.92H419.8ZM419.8 1037V1037.3H420.1V1037H419.8ZM415.32 1037H415.02V1037.3H415.32V1037ZM415.32 1030.92H415.62V1030.62H415.32V1030.92ZM415.52 1012.84H415.82V1011.85L415.271 1012.67L415.52 1012.84ZM406.08 1026.96L405.831 1026.79L405.519 1027.26H406.08V1026.96ZM415.52 1026.96V1027.26H415.82V1026.96H415.52ZM400.84 1030.92H401.14V1027.48H400.84H400.54V1030.92H400.84ZM400.84 1027.48L401.086 1027.65L414.526 1008.37L414.28 1008.2L414.034 1008.03L400.594 1027.31L400.84 1027.48ZM414.28 1008.2V1008.5H419.8V1008.2V1007.9H414.28V1008.2ZM419.8 1008.2H419.5V1026.96H419.8H420.1V1008.2H419.8ZM419.8 1026.96V1027.26H423.52V1026.96V1026.66H419.8V1026.96ZM423.52 1026.96H423.22V1030.92H423.52H423.82V1026.96H423.52ZM423.52 1030.92V1030.62H419.8V1030.92V1031.22H423.52V1030.92ZM419.8 1030.92H419.5V1037H419.8H420.1V1030.92H419.8ZM419.8 1037V1036.7H415.32V1037V1037.3H419.8V1037ZM415.32 1037H415.62V1030.92H415.32H415.02V1037H415.32ZM415.32 1030.92V1030.62H400.84V1030.92V1031.22H415.32V1030.92ZM415.52 1012.84L415.271 1012.67L405.831 1026.79L406.08 1026.96L406.329 1027.13L415.769 1013.01L415.52 1012.84ZM406.08 1026.96V1027.26H415.52V1026.96V1026.66H406.08V1026.96ZM415.52 1026.96H415.82V1012.84H415.52H415.22V1026.96H415.52ZM432.978 1029.08L433.273 1029.02L433.224 1028.78H432.978V1029.08ZM434.698 1032.12L434.513 1032.36L434.698 1032.12ZM442.418 1030.92L442.16 1030.77L442.418 1030.92ZM443.738 1023.28H444.038V1022.33L443.493 1023.11L443.738 1023.28ZM441.018 1025.4L441.134 1025.68L441.137 1025.68L441.018 1025.4ZM432.538 1025.08L432.402 1025.35L432.406 1025.35L432.538 1025.08ZM429.178 1021.92L428.917 1022.07L428.921 1022.07L429.178 1021.92ZM430.538 1009.8L430.325 1009.59L430.325 1009.59L430.538 1009.8ZM445.378 1010.8L445.124 1010.96L445.126 1010.96L445.378 1010.8ZM446.818 1030.32L446.529 1030.24L446.528 1030.25L446.818 1030.32ZM443.858 1035.28L444.045 1035.52L443.858 1035.28ZM431.378 1034.72L431.17 1034.94L431.378 1034.72ZM428.778 1029.08V1028.78H428.453L428.479 1029.1L428.778 1029.08ZM441.818 1020.8L441.598 1020.6L441.598 1020.6L441.818 1020.8ZM441.738 1012.52L441.518 1012.72L441.523 1012.73L441.738 1012.52ZM433.778 1012.56L433.558 1012.36L433.558 1012.36L433.778 1012.56ZM433.738 1020.72L433.513 1020.92L433.518 1020.92L433.738 1020.72ZM432.978 1029.08L432.684 1029.14C432.962 1030.53 433.565 1031.61 434.513 1032.36L434.698 1032.12L434.884 1031.88C434.071 1031.24 433.528 1030.3 433.273 1029.02L432.978 1029.08ZM434.698 1032.12L434.513 1032.36C435.461 1033.1 436.72 1033.46 438.258 1033.46V1033.16V1032.86C436.81 1032.86 435.696 1032.52 434.884 1031.88L434.698 1032.12ZM438.258 1033.16V1033.46C440.246 1033.46 441.737 1032.67 442.677 1031.07L442.418 1030.92L442.16 1030.77C441.34 1032.16 440.057 1032.86 438.258 1032.86V1033.16ZM442.418 1030.92L442.677 1031.07C443.601 1029.5 444.038 1026.89 444.038 1023.28H443.738H443.438C443.438 1026.87 442.996 1029.35 442.16 1030.77L442.418 1030.92ZM443.738 1023.28L443.493 1023.11C442.89 1023.96 442.03 1024.64 440.9 1025.12L441.018 1025.4L441.137 1025.68C442.354 1025.15 443.307 1024.41 443.984 1023.45L443.738 1023.28ZM441.018 1025.4L440.903 1025.12C439.796 1025.59 438.582 1025.82 437.258 1025.82V1026.12V1026.42C438.654 1026.42 439.948 1026.17 441.134 1025.68L441.018 1025.4ZM437.258 1026.12V1025.82C435.566 1025.82 434.039 1025.48 432.671 1024.81L432.538 1025.08L432.406 1025.35C433.865 1026.06 435.484 1026.42 437.258 1026.42V1026.12ZM432.538 1025.08L432.675 1024.81C431.313 1024.12 430.234 1023.11 429.436 1021.77L429.178 1021.92L428.921 1022.07C429.776 1023.51 430.938 1024.6 432.402 1025.35L432.538 1025.08ZM429.178 1021.92L429.44 1021.77C428.67 1020.41 428.278 1018.76 428.278 1016.8H427.978H427.678C427.678 1018.84 428.087 1020.6 428.917 1022.07L429.178 1021.92ZM427.978 1016.8H428.278C428.278 1013.93 429.112 1011.68 430.752 1010.01L430.538 1009.8L430.325 1009.59C428.552 1011.39 427.678 1013.81 427.678 1016.8H427.978ZM430.538 1009.8L430.752 1010.01C432.417 1008.32 434.707 1007.46 437.658 1007.46V1007.16V1006.86C434.584 1006.86 432.126 1007.76 430.325 1009.59L430.538 1009.8ZM437.658 1007.16V1007.46C441.213 1007.46 443.674 1008.64 445.124 1010.96L445.378 1010.8L445.633 1010.64C444.043 1008.1 441.357 1006.86 437.658 1006.86V1007.16ZM445.378 1010.8L445.126 1010.96C446.626 1013.29 447.398 1016.91 447.398 1021.88H447.698H447.998C447.998 1016.87 447.224 1013.11 445.631 1010.64L445.378 1010.8ZM447.698 1021.88H447.398C447.398 1025.31 447.106 1028.09 446.529 1030.24L446.818 1030.32L447.108 1030.4C447.704 1028.18 447.998 1025.33 447.998 1021.88H447.698ZM446.818 1030.32L446.528 1030.25C445.98 1032.38 445.022 1033.97 443.672 1035.04L443.858 1035.28L444.045 1035.52C445.521 1034.35 446.537 1032.63 447.109 1030.39L446.818 1030.32ZM443.858 1035.28L443.672 1035.04C442.329 1036.11 440.443 1036.66 437.978 1036.66V1036.96V1037.26C440.527 1037.26 442.561 1036.69 444.045 1035.52L443.858 1035.28ZM437.978 1036.96V1036.66C435.177 1036.66 433.061 1035.93 431.587 1034.5L431.378 1034.72L431.17 1034.94C432.789 1036.5 435.074 1037.26 437.978 1037.26V1036.96ZM431.378 1034.72L431.587 1034.5C430.096 1033.06 429.258 1031.25 429.077 1029.06L428.778 1029.08L428.479 1029.1C428.672 1031.44 429.568 1033.39 431.17 1034.94L431.378 1034.72ZM428.778 1029.08V1029.38H432.978V1029.08V1028.78H428.778V1029.08ZM438.058 1022.28V1022.58C439.725 1022.58 441.065 1022.06 442.039 1021L441.818 1020.8L441.598 1020.6C440.759 1021.51 439.592 1021.98 438.058 1021.98V1022.28ZM441.818 1020.8L442.039 1021C443.033 1019.92 443.518 1018.51 443.518 1016.8H443.218H442.918C442.918 1018.39 442.47 1019.65 441.598 1020.6L441.818 1020.8ZM443.218 1016.8H443.518C443.518 1014.91 443.01 1013.4 441.953 1012.31L441.738 1012.52L441.523 1012.73C442.441 1013.67 442.918 1015.01 442.918 1016.8H443.218ZM441.738 1012.52L441.959 1012.32C440.931 1011.2 439.525 1010.66 437.778 1010.66V1010.96V1011.26C439.392 1011.26 440.625 1011.76 441.518 1012.72L441.738 1012.52ZM437.778 1010.96V1010.66C436.029 1010.66 434.611 1011.22 433.558 1012.36L433.778 1012.56L433.999 1012.76C434.92 1011.77 436.168 1011.26 437.778 1011.26V1010.96ZM433.778 1012.56L433.558 1012.36C432.537 1013.46 432.038 1014.91 432.038 1016.68H432.338H432.638C432.638 1015.03 433.1 1013.74 433.999 1012.76L433.778 1012.56ZM432.338 1016.68H432.038C432.038 1018.37 432.524 1019.79 433.513 1020.92L433.738 1020.72L433.964 1020.52C433.086 1019.52 432.638 1018.25 432.638 1016.68H432.338ZM433.738 1020.72L433.518 1020.92C434.553 1022.04 436.086 1022.58 438.058 1022.58V1022.28V1021.98C436.191 1021.98 434.844 1021.48 433.959 1020.52L433.738 1020.72Z" fill="black" mask="url(#path-10-outside-2_97_50)"/>
<path d="M244.36 234.83C244.36 227.55 245.865 221.075 248.875 215.405C251.955 209.665 256.295 205.22 261.895 202.07C267.495 198.85 273.935 197.24 281.215 197.24C290.455 197.24 298.225 199.725 304.525 204.695C310.825 209.595 314.885 216.28 316.705 224.75H294.55C293.22 221.95 291.365 219.815 288.985 218.345C286.675 216.875 283.98 216.14 280.9 216.14C276.14 216.14 272.325 217.855 269.455 221.285C266.655 224.645 265.255 229.16 265.255 234.83C265.255 240.57 266.655 245.155 269.455 248.585C272.325 251.945 276.14 253.625 280.9 253.625C283.98 253.625 286.675 252.89 288.985 251.42C291.365 249.95 293.22 247.815 294.55 245.015H316.705C314.885 253.485 310.825 260.205 304.525 265.175C298.225 270.075 290.455 272.525 281.215 272.525C273.935 272.525 267.495 270.95 261.895 267.8C256.295 264.58 251.955 260.135 248.875 254.465C245.865 248.725 244.36 242.18 244.36 234.83ZM353.855 272.735C347.975 272.735 342.69 271.51 338 269.06C333.38 266.61 329.74 263.11 327.08 258.56C324.42 254.01 323.09 248.655 323.09 242.495C323.09 236.405 324.42 231.085 327.08 226.535C329.81 221.985 333.485 218.485 338.105 216.035C342.795 213.585 348.08 212.36 353.96 212.36C359.84 212.36 365.09 213.585 369.71 216.035C374.4 218.485 378.075 221.985 380.735 226.535C383.465 231.085 384.83 236.405 384.83 242.495C384.83 248.585 383.465 253.94 380.735 258.56C378.075 263.11 374.4 266.61 369.71 269.06C365.02 271.51 359.735 272.735 353.855 272.735ZM353.855 254.885C356.725 254.885 359.105 253.835 360.995 251.735C362.955 249.565 363.935 246.485 363.935 242.495C363.935 238.505 362.955 235.46 360.995 233.36C359.105 231.26 356.76 230.21 353.96 230.21C351.16 230.21 348.815 231.26 346.925 233.36C345.035 235.46 344.09 238.505 344.09 242.495C344.09 246.555 345 249.635 346.82 251.735C348.64 253.835 350.985 254.885 353.855 254.885ZM470.168 212.57C477.588 212.57 483.398 214.81 487.598 219.29C491.868 223.77 494.003 229.895 494.003 237.665V272H473.423V240.395C473.423 237.245 472.548 234.795 470.798 233.045C469.048 231.295 466.668 230.42 463.658 230.42C460.648 230.42 458.268 231.295 456.518 233.045C454.768 234.795 453.893 237.245 453.893 240.395V272H433.313V240.395C433.313 237.245 432.438 234.795 430.688 233.045C429.008 231.295 426.663 230.42 423.653 230.42C420.573 230.42 418.158 231.295 416.408 233.045C414.658 234.795 413.783 237.245 413.783 240.395V272H393.203V213.095H413.783V220.865C415.603 218.345 417.948 216.35 420.818 214.88C423.758 213.34 427.118 212.57 430.898 212.57C435.238 212.57 439.088 213.515 442.448 215.405C445.878 217.295 448.573 219.955 450.533 223.385C452.633 220.165 455.398 217.575 458.828 215.615C462.258 213.585 466.038 212.57 470.168 212.57ZM561.558 241.865C561.558 243.475 561.453 245.085 561.243 246.695H522.288C522.498 249.915 523.373 252.33 524.913 253.94C526.523 255.48 528.553 256.25 531.003 256.25C534.433 256.25 536.883 254.71 538.353 251.63H560.298C559.388 255.69 557.603 259.33 554.943 262.55C552.353 265.7 549.063 268.185 545.073 270.005C541.083 271.825 536.673 272.735 531.843 272.735C526.033 272.735 520.853 271.51 516.303 269.06C511.823 266.61 508.288 263.11 505.698 258.56C503.178 254.01 501.918 248.655 501.918 242.495C501.918 236.335 503.178 231.015 505.698 226.535C508.218 221.985 511.718 218.485 516.198 216.035C520.748 213.585 525.963 212.36 531.843 212.36C537.653 212.36 542.798 213.55 547.278 215.93C551.758 218.31 555.258 221.74 557.778 226.22C560.298 230.63 561.558 235.845 561.558 241.865ZM540.558 236.72C540.558 234.2 539.718 232.24 538.038 230.84C536.358 229.37 534.258 228.635 531.738 228.635C529.218 228.635 527.153 229.335 525.543 230.735C523.933 232.065 522.883 234.06 522.393 236.72H540.558ZM604.736 254.465V272H595.811C580.761 272 573.236 264.545 573.236 249.635V230.21H565.991V213.095H573.236V198.815H593.921V213.095H604.631V230.21H593.921V249.95C593.921 251.56 594.271 252.715 594.971 253.415C595.741 254.115 597.001 254.465 598.751 254.465H604.736Z" fill="black"/>
<path d="M706.433 408.11C711.088 407.363 715.775 410.508 716.739 415.155C718.242 422.407 706.971 432.364 702.766 437.38C654.633 494.799 599.439 559.592 559.792 623.419C567.125 615.751 575.736 609.885 583.365 602.607C612.476 574.837 652.471 536.874 677.528 506.417C645.417 577.637 601.5 641.035 556.086 704.242C544.497 720.37 533.459 737.043 522.46 753.58L463.424 843.915C431.267 892.771 398.559 944.999 342.537 968.705C305.796 984.25 264.548 983.342 227.878 968.488C156.571 939.058 121.123 858.54 142.235 785.261C155.322 739.838 191.766 710.508 228.061 683.255C282.295 642.53 339.583 610.551 394.314 572.529C425.762 550.683 456.387 526.958 487.967 504.877L510.829 489.166C515.223 486.195 519.591 482.977 524.234 480.414C497.038 503.88 464.601 537.833 447.083 568.216C516.869 513.23 594.387 456.097 676.28 420.176C684.915 416.388 697.44 409.71 706.433 408.11Z" fill="#010000"/>
<path d="M638.962 459.508C627.637 466.841 617.278 477.058 607.183 486.007C555.003 532.266 501.287 589.864 463.982 649.089C472.436 641.105 480.605 632.179 488.708 623.806L520.465 591.541C558.932 552.565 610.955 502.026 654.71 468.327C650.478 474.468 645.164 480.141 640.456 485.942C621.889 508.822 495.334 672.726 492.576 697.086C492.072 701.539 496.107 705.845 500.577 705.84C505.741 705.835 517.254 688.714 520.853 684.841C541.195 662.936 562.024 641.322 583.567 620.59C590.653 612.441 604.473 598.865 612.672 591.841C580.445 640.619 545.826 687.758 513.265 736.327L447.586 836.364C436.71 852.908 418.876 882.082 405.863 896.464C400.78 904.512 370.771 938.296 360.175 938.537C335.751 959.024 297.602 966.075 266.699 961.792C192.59 951.519 144.439 881.905 155.068 809.027C158.445 785.865 169.263 757.274 188.545 742.893C190.578 735.33 209.838 719.709 216.572 714.949C223.047 708.245 238.636 696.344 246.713 691.296C283.906 663.196 326.147 636.893 365.667 611.369C388.094 596.886 410.119 583.718 430.834 566.646C422.704 587.07 413.425 594.138 398.172 608.703C393.423 613.237 383.456 621.271 385.593 628.905C389.879 644.206 410.159 620.544 414.206 616.933C421.846 610.113 430.03 603.747 438.022 597.341C492.629 553.565 553.756 506.747 614.794 472.424C622.831 467.905 630.094 462.338 638.962 459.508Z" fill="#1E1F62"/>
<path d="M178.106 846.786C179.902 843.643 178.099 837.851 178.017 834.301C176.159 754.473 256.615 701.722 328.628 733.916C415.594 772.794 407.632 901.46 322.903 933.282C316.921 935.529 304.997 940.287 299.208 941.517C267.985 942.253 238.988 935.522 214.769 914.128C196.971 898.409 179.567 870.814 178.106 846.786Z" fill="#010000"/>
<path d="M251.259 916.254C216.319 902.482 193.644 868.419 194.423 830.872C195.201 793.324 219.269 760.228 254.749 747.916C290.228 735.604 329.623 746.678 353.492 775.672C379.498 807.261 380.854 852.44 356.79 885.532C332.724 918.626 289.327 931.26 251.259 916.254Z" fill="#7A6C86"/>
<path d="M337.571 849.172C340.341 836.716 341.963 822.893 338.512 810.391C335.405 799.136 326.989 786.965 340.367 776.862C344.662 773.616 348.686 775.231 353.492 775.671C379.498 807.261 380.854 852.44 356.79 885.532C332.724 918.626 289.327 931.26 251.259 916.254C259.287 902.924 332.558 878.372 329.474 859.7C331.064 858.67 332.247 857.117 332.819 855.31L334.11 855.611C334.965 853.355 336.365 851.259 337.571 849.172Z" fill="#4B3D47"/>
<path d="M337.571 849.172C357.957 837.225 372.256 864.513 354.526 874.394C341.448 881.681 332.109 869.346 334.11 855.611C334.965 853.355 336.365 851.259 337.571 849.172Z" fill="#010000"/>
<path d="M325.518 887.225C332.946 886.538 333.447 891.718 329.494 896.464C322.282 898.046 320.623 891.243 325.518 887.225Z" fill="#010000"/>
<path d="M329.473 859.7C326.139 861.865 321.731 861.316 319.028 858.402C316.324 855.487 316.11 851.051 318.519 847.888C320.927 844.725 325.262 843.753 328.79 845.584C332.318 847.415 334.018 851.52 332.819 855.31C332.247 857.117 331.064 858.67 329.473 859.7Z" fill="#010000"/>
<path d="M297.478 789.317C309.094 787.628 319.9 795.624 321.681 807.227C323.46 818.831 315.549 829.698 303.96 831.569C292.241 833.461 281.226 825.442 279.427 813.709C277.627 801.976 285.733 791.024 297.478 789.317Z" fill="#010000"/>
<path d="M240.98 851.537C250.441 851.476 258.174 859.072 258.278 868.533C258.383 877.994 250.82 885.76 241.36 885.906C231.841 886.054 224.014 878.434 223.91 868.914C223.805 859.394 231.459 851.602 240.98 851.537Z" fill="#010000"/>
<path d="M284.838 862.228C290.803 860.986 296.662 864.755 298.005 870.699C299.346 876.642 295.674 882.563 289.754 884.004C285.836 884.957 281.708 883.723 278.956 880.776C276.203 877.828 275.255 873.626 276.475 869.781C277.694 865.938 280.89 863.051 284.838 862.228Z" fill="#010000"/>
<path d="M312.107 776.249C312.097 773.006 313.902 770.029 316.781 768.535C319.659 767.041 323.131 767.281 325.779 769.155C328.425 771.031 329.803 774.227 329.35 777.438C330.693 779.361 329.921 781.548 329.494 783.652C327.401 786.138 324.696 787.686 321.796 789.027C315.548 786.872 311.335 783.303 312.107 776.249Z" fill="#FEDE04"/>
<path d="M312.107 776.249C312.119 781.05 316.033 784.924 320.832 784.89C325.126 784.859 328.749 781.689 329.35 777.438C330.693 779.361 329.921 781.548 329.494 783.652C327.401 786.138 324.696 787.686 321.796 789.027C315.548 786.872 311.335 783.303 312.107 776.249Z" fill="#6B3A01"/>
<path d="M225.499 779C221.447 768.811 239.75 764.253 239.783 779C240.349 788.953 227.798 788.279 225.499 779Z" fill="#FEDE04"/>
<path d="M239.783 779C240.349 788.953 227.798 788.279 225.498 779C230.085 785.701 235.121 785.163 239.783 779Z" fill="#6B3A01"/>
<path d="M256.788 767.01C259.928 766.163 263.162 768.012 264.028 771.147C264.893 774.281 263.065 777.527 259.935 778.412C256.779 779.304 253.5 777.457 252.626 774.294C251.752 771.132 253.62 767.865 256.788 767.01Z" fill="#010000"/>
<path d="M249.597 810.935C252.171 810.128 254.908 811.571 255.697 814.149C256.488 816.725 255.03 819.454 252.447 820.23C249.888 820.997 247.186 819.554 246.403 816.998C245.619 814.442 247.046 811.734 249.597 810.935Z" fill="#010000"/>
<path d="M216.581 820.832C218.149 820.203 219.936 820.464 221.257 821.52C222.578 822.575 223.229 824.258 222.962 825.926C222.694 827.596 221.549 828.991 219.963 829.581C217.558 830.475 214.881 829.27 213.955 826.876C213.03 824.482 214.2 821.79 216.581 820.832Z" fill="#010000"/>
<path d="M638.962 459.508C627.636 466.841 617.278 477.058 607.183 486.007C555.003 532.266 501.287 589.864 463.982 649.089C472.436 641.105 480.605 632.179 488.707 623.806L520.465 591.541C558.932 552.565 610.955 502.026 654.71 468.327C650.478 474.468 645.163 480.141 640.456 485.942C621.889 508.822 495.333 672.726 492.576 697.086C492.072 701.539 496.107 705.845 500.577 705.84C505.741 705.835 517.254 688.714 520.853 684.841C541.194 662.936 562.024 641.322 583.567 620.59C590.653 612.441 604.473 598.865 612.672 591.841C580.445 640.619 545.826 687.758 513.265 736.327L447.586 836.364C436.71 852.908 418.876 882.082 405.863 896.464C406.776 891.388 410.195 885.859 412.142 881.049C418.326 865.773 445.567 805.059 445.339 797.805C444.988 786.68 423.964 810.432 419.963 800.454C413.223 783.641 463.246 719.806 455.942 704.646C449.69 691.67 411.738 717.08 402.976 722.062C398.71 724.488 388.829 731.046 385.474 723.741C379.668 711.096 422.527 670.847 416.361 660.005C407.033 643.603 345.443 706.761 323.853 701.139C310.253 697.598 340.441 659.11 343.198 651.928L343.395 651.403C331.831 655.98 321.584 664.087 311.021 670.55C290.548 683.075 240.457 710.873 216.572 714.949C223.047 708.245 238.636 696.344 246.713 691.296C283.906 663.196 326.147 636.893 365.667 611.369C388.094 596.886 410.119 583.718 430.834 566.646C422.703 587.07 413.425 594.138 398.171 608.703C393.423 613.237 383.456 621.271 385.593 628.905C389.879 644.206 410.158 620.544 414.206 616.933C421.846 610.113 430.03 603.747 438.021 597.341C492.628 553.565 553.755 506.747 614.793 472.424C622.831 467.905 630.094 462.338 638.962 459.508Z" fill="#FEDE04"/>
<path d="M583.567 620.59C590.653 612.441 604.473 598.865 612.672 591.841C580.445 640.619 545.826 687.758 513.265 736.327L447.586 836.364C436.71 852.908 418.876 882.082 405.863 896.463C406.776 891.388 410.195 885.859 412.142 881.048C418.326 865.773 445.567 805.059 445.339 797.805C444.988 786.68 423.964 810.432 419.963 800.454C413.223 783.641 463.246 719.806 455.942 704.646C449.69 691.67 411.738 717.08 402.976 722.062C398.711 724.488 388.829 731.046 385.474 723.741C379.668 711.096 422.527 670.847 416.361 660.004C407.033 643.603 345.443 706.761 323.853 701.139C310.253 697.598 340.441 659.11 343.198 651.928L343.395 651.403C331.831 655.98 321.584 664.087 311.021 670.55C290.548 683.074 240.457 710.873 216.572 714.949C223.047 708.245 238.636 696.344 246.713 691.296C257.26 696.277 345.009 628.615 372.731 620.59C367.835 627.469 363.798 634.911 359.373 642.092C358.049 644.241 341.056 668.451 345.656 669.955C356.032 673.352 397.276 642.914 407.296 636.34C411.701 633.451 455.683 601.43 459.357 611.951C464.252 625.965 408.235 692.383 411.053 701.169C415.728 703.162 471.865 658.24 486.841 660.512C501.306 662.706 466.581 731.942 460.219 746.732C458.986 749.599 444.632 782.222 452.485 782.559C464.326 783.068 472.747 769.176 478.996 761.01L495.297 739.82C506.191 725.79 583.562 627.784 583.567 620.59Z" fill="#F05B0E"/>
<path d="M188.545 742.894C198.236 736.103 209.28 728.395 220.014 723.445C193.246 749.42 173.936 773.652 173.316 813.813C173.146 824.766 173.43 836.721 178.106 846.787C179.568 870.814 196.971 898.41 214.769 914.129C238.988 935.523 267.985 942.254 299.208 941.518C331.516 942.649 363.625 926.794 384.889 902.971C390.09 897.143 394 890.341 399.101 884.512L399.372 884.209C391.268 905.562 376.579 923.114 360.175 938.537C335.751 959.024 297.602 966.075 266.699 961.793C192.59 951.52 144.439 881.905 155.068 809.028C158.445 785.866 169.263 757.275 188.545 742.894Z" fill="#5473FC"/>
<path d="M619.675 780.93C627.878 782.888 620.23 800.469 641.022 806.077C664.656 812.454 636.957 816.202 631.868 820.81C624.102 827.843 624.621 840.106 621.267 842.894C615.824 842.03 616.006 837.098 614.714 832.54C609.564 814.357 591.725 816.86 590.277 811.002C591.349 807.299 602.461 805.4 606.75 802.747C616.428 796.757 613.877 784.291 619.675 780.93Z" fill="#FEAF1D"/>
<path d="M619.676 802.191C622.615 804.605 624.093 808.424 628.369 811.483C625.331 814.421 622.465 817.391 619.676 820.568C617.911 819.368 614.067 813.482 612.672 811.483C614.976 808.339 617.556 805.481 619.676 802.191Z" fill="#FEDE04"/>
<path d="M355.813 433.521C359.602 436.496 361.115 450.854 365.582 455.081C371.188 460.388 381.387 463.303 388.217 467.099C360.424 480.504 369.121 472.179 355.813 497.425C353.848 499.465 349.612 486.091 349.066 484.762C343.891 472.171 335.825 472.064 323.91 467.099C331.674 462.262 344.679 460.533 348.592 451.394C351.045 445.666 352.326 439.523 355.485 434.081L355.813 433.521Z" fill="#FEAF1D"/>
<path d="M355.813 459.508C363.657 460.895 365.395 469.407 357.349 472.552C348.093 473.163 348.015 463.004 355.813 459.508Z" fill="#FEDE04"/>
<path d="M155.909 623.419C160.153 627.578 159.154 635.328 164.232 638.997C168.255 641.905 173.666 643.376 178.106 645.669C157.21 658.525 168.616 645.469 156.126 667.88L155.909 668.262C146.643 650.473 154.888 656.218 134 645.669C138.91 642.587 144.662 641.35 149.588 638.193C152.711 633.654 153.01 628.003 155.909 623.419ZM158.006 649.089C161.142 645.116 158.233 643.186 153.87 642.842C153.193 645.488 152.91 649.329 156.359 649.76L158.006 649.089Z" fill="#FEAF1D"/>
<path d="M663.588 651.647C666.339 650.837 669.312 651.568 671.373 653.561C673.433 655.554 674.264 658.501 673.545 661.276C672.825 664.052 670.671 666.228 667.902 666.97C663.693 668.1 659.356 665.635 658.175 661.439C656.995 657.244 659.407 652.879 663.588 651.647Z" fill="#FEDE04"/>
<path d="M479.562 918.539C490.131 919.662 490.737 932.389 480.948 934.885C469.975 934.086 470.296 921.678 479.562 918.539Z" fill="#FEDE04"/>
<path d="M235.684 562.254C246.225 563.148 246 574.263 235.684 575.904C224.095 573.906 223.662 564.528 235.684 562.254Z" fill="#FEDE04"/>
</svg>
