<svg width="849" height="1183" viewBox="0 0 849 1183" fill="none" xmlns="http://www.w3.org/2000/svg">
<rect x="5" y="5" width="839" height="1173" rx="45" fill="white"/>
<rect x="5" y="5" width="839" height="1173" rx="45" stroke="black" stroke-width="10"/>
<circle cx="786.5" cy="1124.5" r="11.5" fill="black"/>
<circle cx="786.5" cy="59.5" r="11.5" fill="black"/>
<path d="M77 1124.5C77 1130.85 71.8513 1136 65.5 1136C59.1487 1136 54 1130.85 54 1124.5C54 1118.15 59.1487 1113 65.5 1113C71.8513 1113 77 1118.15 77 1124.5Z" fill="black"/>
<path d="M77 59.5C77 65.8513 71.8513 71 65.5 71C59.1487 71 54 65.8513 54 59.5C54 53.1487 59.1487 48 65.5 48C71.8513 48 77 53.1487 77 59.5Z" fill="black"/>
<mask id="path-6-inside-1_97_47" fill="white">
<path d="M708 48C713.523 48 717.934 52.4996 718.616 57.9801C723.122 94.1833 751.817 122.878 788.02 127.384C793.5 128.066 798 132.477 798 138V1046C798 1051.52 793.5 1055.93 788.02 1056.62C751.817 1061.12 723.122 1089.82 718.616 1126.02C717.934 1131.5 713.523 1136 708 1136H141C135.477 1136 131.066 1131.5 130.384 1126.02C125.878 1089.82 97.1833 1061.12 60.9801 1056.62C55.4996 1055.93 51 1051.52 51 1046V138C51 132.477 55.4996 128.066 60.9801 127.384C97.1833 122.878 125.878 94.1833 130.384 57.9801C131.066 52.4996 135.477 48 141 48H708Z"/>
</mask>
<path d="M708 48C713.523 48 717.934 52.4996 718.616 57.9801C723.122 94.1833 751.817 122.878 788.02 127.384C793.5 128.066 798 132.477 798 138V1046C798 1051.52 793.5 1055.93 788.02 1056.62C751.817 1061.12 723.122 1089.82 718.616 1126.02C717.934 1131.5 713.523 1136 708 1136H141C135.477 1136 131.066 1131.5 130.384 1126.02C125.878 1089.82 97.1833 1061.12 60.9801 1056.62C55.4996 1055.93 51 1051.52 51 1046V138C51 132.477 55.4996 128.066 60.9801 127.384C97.1833 122.878 125.878 94.1833 130.384 57.9801C131.066 52.4996 135.477 48 141 48H708Z" fill="#006AB6"/>
<path d="M130.384 1126.02L138.322 1125.03L130.384 1126.02ZM718.616 1126.02L710.678 1125.03L718.616 1126.02ZM788.02 1056.62L789.008 1064.56L788.02 1056.62ZM718.616 57.9801L726.555 56.9922L718.616 57.9801ZM718.616 57.9801L710.678 58.9681C715.635 98.8063 747.194 130.365 787.032 135.322L788.02 127.384L789.008 119.445C756.44 115.392 730.608 89.5603 726.555 56.9922L718.616 57.9801ZM798 138H790V1046H798H806V138H798ZM788.02 1056.62L787.032 1048.68C747.194 1053.64 715.635 1085.19 710.678 1125.03L718.616 1126.02L726.555 1127.01C730.608 1094.44 756.44 1068.61 789.008 1064.56L788.02 1056.62ZM708 1136V1128H141V1136V1144H708V1136ZM130.384 1126.02L138.322 1125.03C133.365 1085.19 101.806 1053.64 61.9681 1048.68L60.9801 1056.62L59.9922 1064.56C92.5603 1068.61 118.392 1094.44 122.445 1127.01L130.384 1126.02ZM51 1046H59V138H51H43V1046H51ZM60.9801 127.384L61.9681 135.322C101.806 130.365 133.365 98.8063 138.322 58.9681L130.384 57.9801L122.445 56.9922C118.392 89.5603 92.5603 115.392 59.9922 119.445L60.9801 127.384ZM141 48V56H708V48V40H141V48ZM130.384 57.9801L138.322 58.9681C138.438 58.0389 138.872 57.2306 139.427 56.6958C139.954 56.1887 140.494 56 141 56V48V40C130.84 40 123.547 48.1329 122.445 56.9922L130.384 57.9801ZM51 138H59C59 137.494 59.1887 136.954 59.6958 136.427C60.2306 135.872 61.0389 135.438 61.9681 135.322L60.9801 127.384L59.9922 119.445C51.1329 120.547 43 127.84 43 138H51ZM60.9801 1056.62L61.9681 1048.68C61.0389 1048.56 60.2306 1048.13 59.6958 1047.57C59.1887 1047.05 59 1046.51 59 1046H51H43C43 1056.16 51.1329 1063.45 59.9922 1064.56L60.9801 1056.62ZM141 1136V1128C140.494 1128 139.954 1127.81 139.427 1127.3C138.872 1126.77 138.438 1125.96 138.322 1125.03L130.384 1126.02L122.445 1127.01C123.547 1135.87 130.84 1144 141 1144V1136ZM718.616 1126.02L710.678 1125.03C710.562 1125.96 710.128 1126.77 709.573 1127.3C709.046 1127.81 708.506 1128 708 1128V1136V1144C718.16 1144 725.453 1135.87 726.555 1127.01L718.616 1126.02ZM798 1046H790C790 1046.51 789.811 1047.05 789.304 1047.57C788.769 1048.13 787.961 1048.56 787.032 1048.68L788.02 1056.62L789.008 1064.56C797.867 1063.45 806 1056.16 806 1046H798ZM788.02 127.384L787.032 135.322C787.961 135.438 788.769 135.872 789.304 136.427C789.811 136.954 790 137.494 790 138H798H806C806 127.84 797.867 120.547 789.008 119.445L788.02 127.384ZM718.616 57.9801L726.555 56.9922C725.453 48.1329 718.16 40 708 40V48V56C708.506 56 709.046 56.1887 709.573 56.6958C710.128 57.2306 710.562 58.0389 710.678 58.9681L718.616 57.9801Z" fill="black" mask="url(#path-6-inside-1_97_47)"/>
<path d="M690 102C695.523 102 699.911 106.512 700.837 111.957C705.019 136.563 724.437 155.981 749.043 160.163C754.488 161.089 759 165.477 759 171V1014C759 1019.52 754.488 1023.91 749.043 1024.84C724.711 1028.97 705.454 1048 700.984 1072.22C699.993 1077.59 695.633 1082 690.175 1082H158.825C153.367 1082 149.007 1077.59 148.016 1072.22C143.546 1048 124.288 1028.97 99.9568 1024.84C94.5121 1023.91 90 1019.52 90 1014V171C90 165.477 94.512 161.089 99.9568 160.163C124.563 155.981 143.981 136.563 148.163 111.957C149.089 106.512 153.477 102 159 102H690Z" fill="#5298CB"/>
<path d="M313.59 348.925V391.51C313.59 396.78 311.975 400.945 308.745 404.005C305.572 407.065 301.378 408.595 296.165 408.595C290.952 408.595 286.73 407.065 283.5 404.005C280.327 400.945 278.74 396.78 278.74 391.51H288.515C288.572 394.117 289.223 396.185 290.47 397.715C291.773 399.245 293.672 400.01 296.165 400.01C298.658 400.01 300.557 399.245 301.86 397.715C303.163 396.128 303.815 394.06 303.815 391.51V348.925H313.59ZM371.769 361.165V408H362.079V402.475C360.549 404.402 358.537 405.932 356.044 407.065C353.607 408.142 351 408.68 348.224 408.68C344.54 408.68 341.225 407.915 338.279 406.385C335.389 404.855 333.094 402.588 331.394 399.585C329.75 396.582 328.929 392.955 328.929 388.705V361.165H338.534V387.26C338.534 391.453 339.582 394.683 341.679 396.95C343.775 399.16 346.637 400.265 350.264 400.265C353.89 400.265 356.752 399.16 358.849 396.95C361.002 394.683 362.079 391.453 362.079 387.26V361.165H371.769ZM359.359 348.585L340.574 357.85V350.71L359.359 340.34V348.585ZM394.244 368.05C395.887 365.897 398.125 364.083 400.959 362.61C403.792 361.137 406.994 360.4 410.564 360.4C414.644 360.4 418.355 361.42 421.699 363.46C425.099 365.443 427.762 368.248 429.689 371.875C431.615 375.502 432.579 379.667 432.579 384.37C432.579 389.073 431.615 393.295 429.689 397.035C427.762 400.718 425.099 403.608 421.699 405.705C418.355 407.745 414.644 408.765 410.564 408.765C406.994 408.765 403.82 408.057 401.044 406.64C398.267 405.167 396 403.353 394.244 401.2V430.27H384.554V361.165H394.244V368.05ZM422.719 384.37C422.719 381.14 422.039 378.363 420.679 376.04C419.375 373.66 417.619 371.875 415.409 370.685C413.255 369.438 410.932 368.815 408.439 368.815C406.002 368.815 403.679 369.438 401.469 370.685C399.315 371.932 397.559 373.745 396.199 376.125C394.895 378.505 394.244 381.31 394.244 384.54C394.244 387.77 394.895 390.603 396.199 393.04C397.559 395.42 399.315 397.233 401.469 398.48C403.679 399.727 406.002 400.35 408.439 400.35C410.932 400.35 413.255 399.727 415.409 398.48C417.619 397.177 419.375 395.307 420.679 392.87C422.039 390.433 422.719 387.6 422.719 384.37ZM447.091 354.96C445.334 354.96 443.861 354.365 442.671 353.175C441.481 351.985 440.886 350.512 440.886 348.755C440.886 346.998 441.481 345.525 442.671 344.335C443.861 343.145 445.334 342.55 447.091 342.55C448.791 342.55 450.236 343.145 451.426 344.335C452.616 345.525 453.211 346.998 453.211 348.755C453.211 350.512 452.616 351.985 451.426 353.175C450.236 354.365 448.791 354.96 447.091 354.96ZM451.851 361.165V408H442.161V361.165H451.851ZM475.878 369.07V394.995C475.878 396.752 476.275 398.027 477.068 398.82C477.918 399.557 479.335 399.925 481.318 399.925H487.268V408H479.618C475.255 408 471.912 406.98 469.588 404.94C467.265 402.9 466.103 399.585 466.103 394.995V369.07H460.578V361.165H466.103V349.52H475.878V361.165H487.268V369.07H475.878ZM539.124 383.435C539.124 385.192 539.011 386.778 538.784 388.195H502.999C503.283 391.935 504.671 394.938 507.164 397.205C509.658 399.472 512.718 400.605 516.344 400.605C521.558 400.605 525.241 398.423 527.394 394.06H537.849C536.433 398.367 533.854 401.908 530.114 404.685C526.431 407.405 521.841 408.765 516.344 408.765C511.868 408.765 507.844 407.773 504.274 405.79C500.761 403.75 497.984 400.917 495.944 397.29C493.961 393.607 492.969 389.357 492.969 384.54C492.969 379.723 493.933 375.502 495.859 371.875C497.843 368.192 500.591 365.358 504.104 363.375C507.674 361.392 511.754 360.4 516.344 360.4C520.764 360.4 524.703 361.363 528.159 363.29C531.616 365.217 534.308 367.937 536.234 371.45C538.161 374.907 539.124 378.902 539.124 383.435ZM529.009 380.375C528.953 376.805 527.678 373.943 525.184 371.79C522.691 369.637 519.603 368.56 515.919 368.56C512.576 368.56 509.714 369.637 507.334 371.79C504.954 373.887 503.538 376.748 503.084 380.375H529.009ZM558.35 367.965C559.767 365.585 561.637 363.743 563.96 362.44C566.34 361.08 569.145 360.4 572.375 360.4V370.43H569.91C566.113 370.43 563.223 371.393 561.24 373.32C559.313 375.247 558.35 378.59 558.35 383.35V408H548.66V361.165H558.35V367.965Z" fill="black"/>
<mask id="path-10-outside-2_97_47" maskUnits="userSpaceOnUse" x="400" y="1007" width="49" height="31" fill="black">
<rect fill="white" x="400" y="1007" width="49" height="31"/>
<path d="M400.84 1030.92V1027.48L414.28 1008.2H419.8V1026.96H423.52V1030.92H419.8V1037H415.32V1030.92H400.84ZM415.52 1012.84L406.08 1026.96H415.52V1012.84ZM446.098 1011.76H432.698V1019.72C433.258 1018.97 434.085 1018.35 435.178 1017.84C436.298 1017.33 437.485 1017.08 438.738 1017.08C440.978 1017.08 442.792 1017.56 444.178 1018.52C445.592 1019.48 446.592 1020.69 447.178 1022.16C447.792 1023.63 448.098 1025.17 448.098 1026.8C448.098 1028.77 447.712 1030.53 446.938 1032.08C446.192 1033.6 445.058 1034.8 443.538 1035.68C442.045 1036.56 440.205 1037 438.018 1037C435.112 1037 432.778 1036.28 431.018 1034.84C429.258 1033.4 428.205 1031.49 427.858 1029.12H432.298C432.592 1030.37 433.245 1031.37 434.258 1032.12C435.272 1032.84 436.538 1033.2 438.058 1033.2C439.952 1033.2 441.365 1032.63 442.298 1031.48C443.258 1030.33 443.738 1028.81 443.738 1026.92C443.738 1025 443.258 1023.53 442.298 1022.52C441.338 1021.48 439.925 1020.96 438.058 1020.96C436.752 1020.96 435.645 1021.29 434.738 1021.96C433.858 1022.6 433.218 1023.48 432.818 1024.6H428.498V1007.76H446.098V1011.76Z"/>
</mask>
<path d="M400.84 1030.92V1027.48L414.28 1008.2H419.8V1026.96H423.52V1030.92H419.8V1037H415.32V1030.92H400.84ZM415.52 1012.84L406.08 1026.96H415.52V1012.84ZM446.098 1011.76H432.698V1019.72C433.258 1018.97 434.085 1018.35 435.178 1017.84C436.298 1017.33 437.485 1017.08 438.738 1017.08C440.978 1017.08 442.792 1017.56 444.178 1018.52C445.592 1019.48 446.592 1020.69 447.178 1022.16C447.792 1023.63 448.098 1025.17 448.098 1026.8C448.098 1028.77 447.712 1030.53 446.938 1032.08C446.192 1033.6 445.058 1034.8 443.538 1035.68C442.045 1036.56 440.205 1037 438.018 1037C435.112 1037 432.778 1036.28 431.018 1034.84C429.258 1033.4 428.205 1031.49 427.858 1029.12H432.298C432.592 1030.37 433.245 1031.37 434.258 1032.12C435.272 1032.84 436.538 1033.2 438.058 1033.2C439.952 1033.2 441.365 1032.63 442.298 1031.48C443.258 1030.33 443.738 1028.81 443.738 1026.92C443.738 1025 443.258 1023.53 442.298 1022.52C441.338 1021.48 439.925 1020.96 438.058 1020.96C436.752 1020.96 435.645 1021.29 434.738 1021.96C433.858 1022.6 433.218 1023.48 432.818 1024.6H428.498V1007.76H446.098V1011.76Z" fill="black"/>
<path d="M400.84 1030.92H400.54V1031.22H400.84V1030.92ZM400.84 1027.48L400.594 1027.31L400.54 1027.39V1027.48H400.84ZM414.28 1008.2V1007.9H414.123L414.034 1008.03L414.28 1008.2ZM419.8 1008.2H420.1V1007.9H419.8V1008.2ZM419.8 1026.96H419.5V1027.26H419.8V1026.96ZM423.52 1026.96H423.82V1026.66H423.52V1026.96ZM423.52 1030.92V1031.22H423.82V1030.92H423.52ZM419.8 1030.92V1030.62H419.5V1030.92H419.8ZM419.8 1037V1037.3H420.1V1037H419.8ZM415.32 1037H415.02V1037.3H415.32V1037ZM415.32 1030.92H415.62V1030.62H415.32V1030.92ZM415.52 1012.84H415.82V1011.85L415.271 1012.67L415.52 1012.84ZM406.08 1026.96L405.831 1026.79L405.519 1027.26H406.08V1026.96ZM415.52 1026.96V1027.26H415.82V1026.96H415.52ZM400.84 1030.92H401.14V1027.48H400.84H400.54V1030.92H400.84ZM400.84 1027.48L401.086 1027.65L414.526 1008.37L414.28 1008.2L414.034 1008.03L400.594 1027.31L400.84 1027.48ZM414.28 1008.2V1008.5H419.8V1008.2V1007.9H414.28V1008.2ZM419.8 1008.2H419.5V1026.96H419.8H420.1V1008.2H419.8ZM419.8 1026.96V1027.26H423.52V1026.96V1026.66H419.8V1026.96ZM423.52 1026.96H423.22V1030.92H423.52H423.82V1026.96H423.52ZM423.52 1030.92V1030.62H419.8V1030.92V1031.22H423.52V1030.92ZM419.8 1030.92H419.5V1037H419.8H420.1V1030.92H419.8ZM419.8 1037V1036.7H415.32V1037V1037.3H419.8V1037ZM415.32 1037H415.62V1030.92H415.32H415.02V1037H415.32ZM415.32 1030.92V1030.62H400.84V1030.92V1031.22H415.32V1030.92ZM415.52 1012.84L415.271 1012.67L405.831 1026.79L406.08 1026.96L406.329 1027.13L415.769 1013.01L415.52 1012.84ZM406.08 1026.96V1027.26H415.52V1026.96V1026.66H406.08V1026.96ZM415.52 1026.96H415.82V1012.84H415.52H415.22V1026.96H415.52ZM446.098 1011.76V1012.06H446.398V1011.76H446.098ZM432.698 1011.76V1011.46H432.398V1011.76H432.698ZM432.698 1019.72H432.398V1020.62L432.938 1019.9L432.698 1019.72ZM435.178 1017.84L435.055 1017.57L435.052 1017.57L435.178 1017.84ZM444.178 1018.52L444.008 1018.77L444.01 1018.77L444.178 1018.52ZM447.178 1022.16L446.9 1022.27L446.902 1022.28L447.178 1022.16ZM446.938 1032.08L446.67 1031.95L446.669 1031.95L446.938 1032.08ZM443.538 1035.68L443.388 1035.42L443.386 1035.42L443.538 1035.68ZM431.018 1034.84L431.208 1034.61L431.018 1034.84ZM427.858 1029.12V1028.82H427.511L427.562 1029.16L427.858 1029.12ZM432.298 1029.12L432.591 1029.05L432.536 1028.82H432.298V1029.12ZM434.258 1032.12L434.08 1032.36L434.085 1032.36L434.258 1032.12ZM442.298 1031.48L442.068 1031.29L442.066 1031.29L442.298 1031.48ZM442.298 1022.52L442.078 1022.72L442.081 1022.73L442.298 1022.52ZM434.738 1021.96L434.915 1022.2L434.916 1022.2L434.738 1021.96ZM432.818 1024.6V1024.9H433.03L433.101 1024.7L432.818 1024.6ZM428.498 1024.6H428.198V1024.9H428.498V1024.6ZM428.498 1007.76V1007.46H428.198V1007.76H428.498ZM446.098 1007.76H446.398V1007.46H446.098V1007.76ZM446.098 1011.76V1011.46H432.698V1011.76V1012.06H446.098V1011.76ZM432.698 1011.76H432.398V1019.72H432.698H432.998V1011.76H432.698ZM432.698 1019.72L432.938 1019.9C433.461 1019.2 434.244 1018.6 435.305 1018.11L435.178 1017.84L435.052 1017.57C433.927 1018.09 433.056 1018.74 432.458 1019.54L432.698 1019.72ZM435.178 1017.84L435.302 1018.11C436.382 1017.62 437.527 1017.38 438.738 1017.38V1017.08V1016.78C437.443 1016.78 436.214 1017.04 435.055 1017.57L435.178 1017.84ZM438.738 1017.08V1017.38C440.937 1017.38 442.685 1017.85 444.008 1018.77L444.178 1018.52L444.349 1018.27C442.898 1017.27 441.02 1016.78 438.738 1016.78V1017.08ZM444.178 1018.52L444.01 1018.77C445.378 1019.7 446.337 1020.86 446.9 1022.27L447.178 1022.16L447.457 1022.05C446.846 1020.52 445.806 1019.26 444.347 1018.27L444.178 1018.52ZM447.178 1022.16L446.902 1022.28C447.499 1023.7 447.798 1025.21 447.798 1026.8H448.098H448.398C448.398 1025.13 448.084 1023.55 447.455 1022.04L447.178 1022.16ZM448.098 1026.8H447.798C447.798 1028.73 447.42 1030.45 446.67 1031.95L446.938 1032.08L447.207 1032.21C448.004 1030.62 448.398 1028.81 448.398 1026.8H448.098ZM446.938 1032.08L446.669 1031.95C445.95 1033.41 444.859 1034.57 443.388 1035.42L443.538 1035.68L443.689 1035.94C445.258 1035.03 446.434 1033.79 447.208 1032.21L446.938 1032.08ZM443.538 1035.68L443.386 1035.42C441.95 1036.27 440.165 1036.7 438.018 1036.7V1037V1037.3C440.245 1037.3 442.141 1036.85 443.691 1035.94L443.538 1035.68ZM438.018 1037V1036.7C435.161 1036.7 432.901 1035.99 431.208 1034.61L431.018 1034.84L430.828 1035.07C432.656 1036.57 435.062 1037.3 438.018 1037.3V1037ZM431.018 1034.84L431.208 1034.61C429.51 1033.22 428.492 1031.38 428.155 1029.08L427.858 1029.12L427.562 1029.16C427.918 1031.61 429.007 1033.58 430.828 1035.07L431.018 1034.84ZM427.858 1029.12V1029.42H432.298V1029.12V1028.82H427.858V1029.12ZM432.298 1029.12L432.006 1029.19C432.316 1030.51 433.008 1031.57 434.08 1032.36L434.258 1032.12L434.436 1031.88C433.482 1031.18 432.868 1030.24 432.591 1029.05L432.298 1029.12ZM434.258 1032.12L434.085 1032.36C435.159 1033.13 436.49 1033.5 438.058 1033.5V1033.2V1032.9C436.587 1032.9 435.384 1032.55 434.432 1031.88L434.258 1032.12ZM438.058 1033.2V1033.5C440.015 1033.5 441.525 1032.9 442.531 1031.67L442.298 1031.48L442.066 1031.29C441.205 1032.35 439.889 1032.9 438.058 1032.9V1033.2ZM442.298 1031.48L442.528 1031.67C443.545 1030.46 444.038 1028.86 444.038 1026.92H443.738H443.438C443.438 1028.76 442.972 1030.21 442.068 1031.29L442.298 1031.48ZM443.738 1026.92H444.038C444.038 1024.95 443.546 1023.4 442.516 1022.31L442.298 1022.52L442.081 1022.73C442.971 1023.67 443.438 1025.05 443.438 1026.92H443.738ZM442.298 1022.52L442.519 1022.32C441.486 1021.2 439.981 1020.66 438.058 1020.66V1020.96V1021.26C439.869 1021.26 441.191 1021.76 442.078 1022.72L442.298 1022.52ZM438.058 1020.96V1020.66C436.699 1020.66 435.527 1021.01 434.561 1021.72L434.738 1021.96L434.916 1022.2C435.763 1021.58 436.805 1021.26 438.058 1021.26V1020.96ZM434.738 1021.96L434.562 1021.72C433.629 1022.4 432.954 1023.33 432.536 1024.5L432.818 1024.6L433.101 1024.7C433.483 1023.63 434.088 1022.8 434.915 1022.2L434.738 1021.96ZM432.818 1024.6V1024.3H428.498V1024.6V1024.9H432.818V1024.6ZM428.498 1024.6H428.798V1007.76H428.498H428.198V1024.6H428.498ZM428.498 1007.76V1008.06H446.098V1007.76V1007.46H428.498V1007.76ZM446.098 1007.76H445.798V1011.76H446.098H446.398V1007.76H446.098Z" fill="black" mask="url(#path-10-outside-2_97_47)"/>
<path d="M282.915 197.975V247.01C282.915 255.34 280.64 261.71 276.09 266.12C271.61 270.53 265.415 272.735 257.505 272.735C249.105 272.735 242.385 270.39 237.345 265.7C232.375 261.01 229.89 254.255 229.89 245.435H250.26C250.33 251.245 252.465 254.15 256.665 254.15C260.445 254.15 262.335 251.77 262.335 247.01V197.975H282.915ZM355.468 213.095V272H334.783V263.6C333.033 266.26 330.618 268.43 327.538 270.11C324.458 271.72 320.923 272.525 316.933 272.525C310.073 272.525 304.648 270.285 300.658 265.805C296.738 261.255 294.778 255.095 294.778 247.325V213.095H315.253V244.7C315.253 248.06 316.128 250.72 317.878 252.68C319.698 254.57 322.078 255.515 325.018 255.515C328.028 255.515 330.408 254.57 332.158 252.68C333.908 250.72 334.783 248.06 334.783 244.7V213.095H355.468ZM387.761 221.285C389.371 218.555 391.646 216.385 394.586 214.775C397.526 213.165 400.991 212.36 404.981 212.36C409.671 212.36 413.906 213.585 417.686 216.035C421.536 218.485 424.546 221.985 426.716 226.535C428.956 231.085 430.076 236.405 430.076 242.495C430.076 248.585 428.956 253.94 426.716 258.56C424.546 263.11 421.536 266.61 417.686 269.06C413.906 271.51 409.671 272.735 404.981 272.735C400.991 272.735 397.526 271.93 394.586 270.32C391.716 268.71 389.441 266.54 387.761 263.81V300.14H367.181V213.095H387.761V221.285ZM409.181 242.495C409.181 238.645 408.131 235.67 406.031 233.57C404.001 231.4 401.481 230.315 398.471 230.315C395.461 230.315 392.906 231.4 390.806 233.57C388.776 235.74 387.761 238.715 387.761 242.495C387.761 246.345 388.776 249.355 390.806 251.525C392.906 253.695 395.461 254.78 398.471 254.78C401.481 254.78 404.001 253.695 406.031 251.525C408.131 249.285 409.181 246.275 409.181 242.495ZM448.943 207.635C445.303 207.635 442.363 206.655 440.123 204.695C437.953 202.665 436.868 200.145 436.868 197.135C436.868 194.055 437.953 191.5 440.123 189.47C442.363 187.44 445.303 186.425 448.943 186.425C452.513 186.425 455.383 187.44 457.553 189.47C459.793 191.5 460.913 194.055 460.913 197.135C460.913 200.145 459.793 202.665 457.553 204.695C455.383 206.655 452.513 207.635 448.943 207.635ZM459.128 213.095V272H438.548V213.095H459.128ZM505.603 254.465V272H496.678C481.628 272 474.103 264.545 474.103 249.635V230.21H466.858V213.095H474.103V198.815H494.788V213.095H505.498V230.21H494.788V249.95C494.788 251.56 495.138 252.715 495.838 253.415C496.608 254.115 497.868 254.465 499.618 254.465H505.603ZM571.322 241.865C571.322 243.475 571.217 245.085 571.007 246.695H532.052C532.262 249.915 533.137 252.33 534.677 253.94C536.287 255.48 538.317 256.25 540.767 256.25C544.197 256.25 546.647 254.71 548.117 251.63H570.062C569.152 255.69 567.367 259.33 564.707 262.55C562.117 265.7 558.827 268.185 554.837 270.005C550.847 271.825 546.437 272.735 541.607 272.735C535.797 272.735 530.617 271.51 526.067 269.06C521.587 266.61 518.052 263.11 515.462 258.56C512.942 254.01 511.682 248.655 511.682 242.495C511.682 236.335 512.942 231.015 515.462 226.535C517.982 221.985 521.482 218.485 525.962 216.035C530.512 213.585 535.727 212.36 541.607 212.36C547.417 212.36 552.562 213.55 557.042 215.93C561.522 218.31 565.022 221.74 567.542 226.22C570.062 230.63 571.322 235.845 571.322 241.865ZM550.322 236.72C550.322 234.2 549.482 232.24 547.802 230.84C546.122 229.37 544.022 228.635 541.502 228.635C538.982 228.635 536.917 229.335 535.307 230.735C533.697 232.065 532.647 234.06 532.157 236.72H550.322ZM600.324 223.49C602.634 220.13 605.434 217.47 608.724 215.51C612.014 213.55 615.549 212.57 619.329 212.57V234.515H613.554C609.074 234.515 605.749 235.39 603.579 237.14C601.409 238.89 600.324 241.935 600.324 246.275V272H579.744V213.095H600.324V223.49Z" fill="black"/>
<path d="M414.047 447.241C554.177 441.192 672.683 549.873 678.757 690.002C684.83 830.13 576.171 948.656 436.044 954.755C295.881 960.855 177.318 852.162 171.243 711.998C165.168 571.835 273.881 453.291 414.047 447.241Z" fill="black"/>
<path d="M291.333 672.626C339.07 692.483 369.91 709.807 424.188 687.351C446.083 678.294 464.706 663.787 485.94 653.626C512.737 640.803 543.078 637.273 572.186 642.877C604.108 649.024 619.347 651.354 651.856 638.624C657.584 657.456 657.612 672.056 660.372 690.341C595.172 682.827 586.396 716.693 535.442 728.071C500.417 735.891 462.465 723.771 426.831 727.713C403.703 730.272 384.043 743.087 361.736 748.234C339.571 753.348 313.48 752.499 291.333 747.727C286.791 739.545 285.806 676.994 291.333 672.626Z" fill="#FDA735"/>
<path d="M320.597 722.857C333.853 721.293 346.046 730.182 329.55 733.307C315.887 735.831 303.412 726.072 320.597 722.857Z" fill="#FAF9FA"/>
<path d="M481.997 688.209C486.864 687.754 491.284 689.225 495.654 691.215C491.926 694.771 488.16 696.209 483.221 697.316C466.808 698.616 466.564 690.533 481.997 688.209Z" fill="black"/>
<path d="M579.919 666.788C593.593 667.08 596.923 673.253 582.473 674.9C568.291 675.257 564.799 667.675 579.919 666.788Z" fill="#FAF9FA"/>
<path d="M608.717 583.209C614.572 584.516 627.076 588.12 631.665 591.613C637.214 595.837 647.465 624.974 649.652 632.118L649.086 632.199C644.252 632.912 639.419 634.896 634.755 636.348C610.35 643.949 596.41 640.517 572.159 635.791C483.284 618.467 455.666 683.449 387.926 690.047C357.134 693.046 336.036 684.357 308.528 672.083C302.659 669.464 296.464 666.298 290.235 664.669C293.37 656.668 294.118 646.997 296.687 638.625C331.455 650.956 372.659 653.301 407.352 640.327C421.986 634.853 436.014 627.671 450.599 622.01C489.121 607.055 522.31 604.296 562.674 601.74C567.04 601.464 581.212 601.827 584.52 599.445C594.53 592.239 571.116 594.548 570.117 594.641C572.116 581.286 599.403 585.816 608.717 583.209Z" fill="#4B4A4A"/>
<path d="M259.424 533.41C262.419 530.172 265.99 527.247 269.337 524.377C314.219 485.904 377.874 460.343 437.649 464.954C486.731 469.764 528.853 483.985 568.413 515.038C503.903 506.776 472.657 518.493 410.573 531.678C379.248 538.332 333.473 543.546 300.973 539.123C288.673 539.43 271.543 535.619 259.424 533.41Z" fill="#8DBDD6"/>
<path d="M259.424 533.41C262.419 530.172 265.99 527.247 269.337 524.377C314.219 485.904 377.874 460.343 437.649 464.954L437.215 465.003C428.221 465.933 429.063 465.558 420.443 467.637C402.614 471.938 385.201 477.179 368.902 485.752L369.397 485.982C384.226 492.746 351.91 495.52 345.516 498.376L346.196 498.57C346.296 501.347 335.613 506.999 333.272 508.726C326.208 513.936 304.829 532.45 300.973 539.123C288.673 539.43 271.543 535.619 259.424 533.41Z" fill="#699EBA"/>
<path d="M368.902 485.751L369.397 485.981C384.225 492.745 351.909 495.519 345.516 498.375C342.098 499.713 325.426 507.847 323.539 507.299C317.59 497.588 362.907 487.651 368.902 485.751Z" fill="#FAF9FA"/>
<path d="M441.656 496.698C453.348 495.976 459.261 501.918 447.154 503.788C437.89 504.485 427.87 499.327 441.656 496.698Z" fill="#FAF9FA"/>
<path d="M654.201 751.88L654.394 752.067C655.275 758.043 643.278 788.112 640.538 794.763C622.769 795.741 604.526 792.322 586.852 790.674C524.744 784.882 474.49 814.631 413.438 804.783C384.759 800.157 368.037 795.21 337.41 798.541C298.878 802.731 263.967 820.496 226.01 826.986C222.183 820.375 218.788 813.292 214.559 806.944C211.142 796.778 205.248 785.478 201.286 774.827C248.217 783.701 260.44 778.428 307.843 770.59C347.658 764.009 387.198 763.955 426.881 771.237C438.853 773.435 450.682 776.354 462.647 778.569C513.391 787.961 557.49 779.254 605.758 765.575L654.201 751.88Z" fill="#D36643"/>
<path d="M315.35 808.941C371.455 795.664 394.956 813.99 442.912 813.383C479.62 812.918 514.154 799.688 550.515 796.931C581.797 794.558 609.183 802.38 637.452 800.701C632.463 812.861 622.141 829.269 614.133 839.701C607.407 841.916 600.808 844.489 594.071 846.676C545.461 862.459 514.569 853.351 469.012 841.387C426.732 830.284 389.267 832.927 349.006 847.487C339.082 841.059 317.761 818.619 315.35 808.941Z" fill="#F59F5E"/>
<path d="M511.094 819.946C525.113 818.273 539.737 826.7 520.593 830.037C516.242 830.234 503.087 831.461 501.5 825.648C501.831 821.343 507.72 820.416 511.094 819.946Z" fill="#FAF9FA"/>
<path d="M364.679 557.59C370.781 555.784 377.672 555.522 383.988 554.587C449.509 544.893 506.692 518.391 574.505 534.764C581.128 536.362 589.992 537.792 595.954 540.919C602.674 544.442 623.657 573.689 627.51 581.392C584.164 565.527 539.107 564.896 494.471 575.856C443.596 588.35 409.193 609.535 352.183 601.486C342.956 600.184 329.264 597.714 320.597 594.641C327.32 581.264 352.911 567.549 364.679 557.59Z" fill="#F59F5E"/>
<path d="M534.89 540.37C550.871 536.234 579.553 548.467 546.811 556.365C514.674 559.627 510.351 539.005 534.89 540.37Z" fill="#FAF9FA"/>
<path d="M458.643 562.71C466.668 561.875 476.28 566.036 465.373 569.355C457.182 570.596 447.16 565.57 458.643 562.71Z" fill="#FAF9FA"/>
<path d="M293.502 755.907C329.662 761.952 353.383 760.335 387.334 747.202C423.578 733.182 435.645 732.626 473.87 735.571C532.923 740.12 541.847 737.252 592.245 710.069C615.969 697.273 634.487 694.85 660.372 697.793C660.406 713.25 659.787 729.907 656.246 745.006C591.677 760.155 536.89 785.013 468.073 772.553C455.725 770.318 443.558 767.131 431.21 764.91C394.05 758.223 334.532 756.613 296.687 765.576C295.162 763.415 292.629 758.26 293.502 755.907Z" fill="#4B4A4A"/>
<path d="M358.926 851.395C389.138 840.576 422.91 839.55 454.292 845.511C469.291 848.361 483.576 853.579 498.404 857.052C533.675 865.313 572.571 864.536 606.266 850.378C598.404 859.968 568.121 892.947 554.989 894.29C520.102 897.859 487.959 893.116 453.545 888.807C444.371 887.658 434.816 887.533 425.795 885.525C409.764 876.996 368.05 864.162 358.926 851.395Z" fill="#F59F5E"/>
<path d="M315.35 601.198C323.126 602.402 330.61 604.6 338.325 606.084C392.487 616.502 423.824 604.894 474.886 588.282C518.347 574.142 564.543 569.966 608.717 583.209C599.403 585.815 572.116 581.286 570.117 594.64C534.805 593.521 482.845 602.748 450.831 614.52C438.224 619.155 426.291 625.2 413.816 630.107C370.167 647.275 342.072 643.151 299.288 632.118C299.017 628.03 312.697 602.579 315.35 601.198Z" fill="#D36643"/>
<path d="M189.661 681.16C197.232 678.916 204.363 675.295 211.83 672.721C240.048 662.997 262.998 663.257 291.333 672.626C285.806 676.995 286.791 739.545 291.333 747.727C252.499 741.105 233.517 727.221 191.965 734C189.423 715.115 191.661 697.362 189.661 681.16Z" fill="#F59F5E"/>
<path d="M204.952 712.288C209.659 712.11 225.603 710.229 228.433 714.771C228.87 716.903 227.999 718.329 226.01 719.015C222.434 719.087 204.577 719.555 202.304 718.255C198.533 716.1 201.424 712.849 204.952 712.288Z" fill="black"/>
<path d="M402.378 904.055C444.996 903.923 482.476 915.015 522.115 915.691C494.652 927.812 476.393 930.006 449.009 935.922C402.477 935.548 375.883 937.267 329.551 916.75C353.168 909.056 377.677 905.58 402.378 904.055Z" fill="#699EBA"/>
<path d="M258.168 866.714C296.565 871.292 323.083 863.38 358.926 851.395C368.05 864.161 409.764 876.995 425.796 885.525C416.809 886.063 407.702 885.258 398.681 885.69C367.11 887.2 337.079 893.773 307.619 905.132C292.181 896.708 269.646 880.037 258.168 866.714Z" fill="#D36643"/>
<path d="M332.914 872.784C352.567 870.576 361.964 883.562 337.586 884.851C315.054 886.431 308.525 874.728 332.914 872.784Z" fill="#FAF9FA"/>
<path d="M229.44 831.802C259.485 828.247 286.252 814.911 315.35 808.941C317.761 818.62 339.082 841.059 349.006 847.487C320.32 860.083 279.994 864.163 249.799 858.304C242.572 849.691 235.417 841.354 229.44 831.802Z" fill="#D36643"/>
<path d="M300.973 839.702C303.801 839.327 317.265 840.732 309.826 843.057C306.345 843.35 292.621 841.537 300.973 839.702Z" fill="#FAF9FA"/>
<path d="M245.007 548.991C278.897 556.776 313.925 559.963 348.664 558.152C353.983 557.874 359.353 557.366 364.679 557.589C352.911 567.548 327.32 581.263 320.597 594.64C286.635 588.281 268.034 575.666 229.797 586.304C225.536 587.49 221.377 589.184 216.952 589.678C225.525 575.244 234.68 562.211 245.007 548.991Z" fill="#D36643"/>
<path d="M308.679 574.346C316.021 573.8 321.921 578.544 311.667 580.126C302.55 580.526 297.684 575.329 308.679 574.346Z" fill="#FAF9FA"/>
<path d="M212.163 600.147C229.817 591.299 257.753 587.608 276.95 590.853C285.171 592.242 308.323 597.953 315.35 601.198C312.697 602.579 299.018 628.029 299.288 632.118C275.795 624.478 250.372 619.892 225.785 623.695C217.808 624.929 209.836 628.064 201.886 628.79L201.286 628.84C202.495 620.895 208.289 607.361 212.163 600.147Z" fill="#DA4C0E"/>
<path d="M197.689 638.624C243.639 621.447 254.911 630.258 296.687 638.624C294.118 646.996 293.37 656.668 290.235 664.669C263.201 657.057 241.702 655.586 214.019 664.893C206.114 667.551 198.578 671.146 190.702 673.853L190.783 673.537C193.532 663.327 195.356 649.488 197.689 638.624Z" fill="#2F2E2E"/>
<path d="M193.287 741.41C230.151 734.92 258.4 748.113 293.502 755.907C292.629 758.26 295.162 763.415 296.687 765.576C254.632 771.307 240.489 777.227 198.879 766.851C196.641 758.475 195.012 749.906 193.287 741.41Z" fill="#2F2E2E"/>
</svg>
