<svg width="849" height="1183" viewBox="0 0 849 1183" fill="none" xmlns="http://www.w3.org/2000/svg">
<rect x="5" y="5" width="839" height="1173" rx="45" fill="white"/>
<rect x="5" y="5" width="839" height="1173" rx="45" stroke="black" stroke-width="10"/>
<circle cx="786.5" cy="1124.5" r="11.5" fill="black"/>
<circle cx="786.5" cy="59.5" r="11.5" fill="black"/>
<path d="M77 1124.5C77 1130.85 71.8513 1136 65.5 1136C59.1487 1136 54 1130.85 54 1124.5C54 1118.15 59.1487 1113 65.5 1113C71.8513 1113 77 1118.15 77 1124.5Z" fill="black"/>
<path d="M77 59.5C77 65.8513 71.8513 71 65.5 71C59.1487 71 54 65.8513 54 59.5C54 53.1487 59.1487 48 65.5 48C71.8513 48 77 53.1487 77 59.5Z" fill="black"/>
<mask id="path-6-inside-1_97_33" fill="white">
<path d="M708 48C713.523 48 717.934 52.4996 718.616 57.9801C723.122 94.1833 751.817 122.878 788.02 127.384C793.5 128.066 798 132.477 798 138V1046C798 1051.52 793.5 1055.93 788.02 1056.62C751.817 1061.12 723.122 1089.82 718.616 1126.02C717.934 1131.5 713.523 1136 708 1136H141C135.477 1136 131.066 1131.5 130.384 1126.02C125.878 1089.82 97.1833 1061.12 60.9801 1056.62C55.4996 1055.93 51 1051.52 51 1046V138C51 132.477 55.4996 128.066 60.9801 127.384C97.1833 122.878 125.878 94.1833 130.384 57.9801C131.066 52.4996 135.477 48 141 48H708Z"/>
</mask>
<path d="M708 48C713.523 48 717.934 52.4996 718.616 57.9801C723.122 94.1833 751.817 122.878 788.02 127.384C793.5 128.066 798 132.477 798 138V1046C798 1051.52 793.5 1055.93 788.02 1056.62C751.817 1061.12 723.122 1089.82 718.616 1126.02C717.934 1131.5 713.523 1136 708 1136H141C135.477 1136 131.066 1131.5 130.384 1126.02C125.878 1089.82 97.1833 1061.12 60.9801 1056.62C55.4996 1055.93 51 1051.52 51 1046V138C51 132.477 55.4996 128.066 60.9801 127.384C97.1833 122.878 125.878 94.1833 130.384 57.9801C131.066 52.4996 135.477 48 141 48H708Z" fill="#7047A3"/>
<path d="M130.384 1126.02L138.322 1125.03L130.384 1126.02ZM718.616 1126.02L710.678 1125.03L718.616 1126.02ZM788.02 1056.62L789.008 1064.56L788.02 1056.62ZM718.616 57.9801L726.555 56.9922L718.616 57.9801ZM718.616 57.9801L710.678 58.9681C715.635 98.8063 747.194 130.365 787.032 135.322L788.02 127.384L789.008 119.445C756.44 115.392 730.608 89.5603 726.555 56.9922L718.616 57.9801ZM798 138H790V1046H798H806V138H798ZM788.02 1056.62L787.032 1048.68C747.194 1053.64 715.635 1085.19 710.678 1125.03L718.616 1126.02L726.555 1127.01C730.608 1094.44 756.44 1068.61 789.008 1064.56L788.02 1056.62ZM708 1136V1128H141V1136V1144H708V1136ZM130.384 1126.02L138.322 1125.03C133.365 1085.19 101.806 1053.64 61.9681 1048.68L60.9801 1056.62L59.9922 1064.56C92.5603 1068.61 118.392 1094.44 122.445 1127.01L130.384 1126.02ZM51 1046H59V138H51H43V1046H51ZM60.9801 127.384L61.9681 135.322C101.806 130.365 133.365 98.8063 138.322 58.9681L130.384 57.9801L122.445 56.9922C118.392 89.5603 92.5603 115.392 59.9922 119.445L60.9801 127.384ZM141 48V56H708V48V40H141V48ZM130.384 57.9801L138.322 58.9681C138.438 58.0389 138.872 57.2306 139.427 56.6958C139.954 56.1887 140.494 56 141 56V48V40C130.84 40 123.547 48.1329 122.445 56.9922L130.384 57.9801ZM51 138H59C59 137.494 59.1887 136.954 59.6958 136.427C60.2306 135.872 61.0389 135.438 61.9681 135.322L60.9801 127.384L59.9922 119.445C51.1329 120.547 43 127.84 43 138H51ZM60.9801 1056.62L61.9681 1048.68C61.0389 1048.56 60.2306 1048.13 59.6958 1047.57C59.1887 1047.05 59 1046.51 59 1046H51H43C43 1056.16 51.1329 1063.45 59.9922 1064.56L60.9801 1056.62ZM141 1136V1128C140.494 1128 139.954 1127.81 139.427 1127.3C138.872 1126.77 138.438 1125.96 138.322 1125.03L130.384 1126.02L122.445 1127.01C123.547 1135.87 130.84 1144 141 1144V1136ZM718.616 1126.02L710.678 1125.03C710.562 1125.96 710.128 1126.77 709.573 1127.3C709.046 1127.81 708.506 1128 708 1128V1136V1144C718.16 1144 725.453 1135.87 726.555 1127.01L718.616 1126.02ZM798 1046H790C790 1046.51 789.811 1047.05 789.304 1047.57C788.769 1048.13 787.961 1048.56 787.032 1048.68L788.02 1056.62L789.008 1064.56C797.867 1063.45 806 1056.16 806 1046H798ZM788.02 127.384L787.032 135.322C787.961 135.438 788.769 135.872 789.304 136.427C789.811 136.954 790 137.494 790 138H798H806C806 127.84 797.867 120.547 789.008 119.445L788.02 127.384ZM718.616 57.9801L726.555 56.9922C725.453 48.1329 718.16 40 708 40V48V56C708.506 56 709.046 56.1887 709.573 56.6958C710.128 57.2306 710.562 58.0389 710.678 58.9681L718.616 57.9801Z" fill="black" mask="url(#path-6-inside-1_97_33)"/>
<path d="M690 102C695.523 102 699.911 106.512 700.837 111.957C705.019 136.563 724.437 155.981 749.043 160.163C754.488 161.089 759 165.477 759 171V1014C759 1019.52 754.488 1023.91 749.043 1024.84C724.711 1028.97 705.454 1048 700.984 1072.22C699.993 1077.59 695.633 1082 690.175 1082H158.825C153.367 1082 149.007 1077.59 148.016 1072.22C143.546 1048 124.288 1028.97 99.9568 1024.84C94.5121 1023.91 90 1019.52 90 1014V171C90 165.477 94.512 161.089 99.9568 160.163C124.563 155.981 143.981 136.563 148.163 111.957C149.089 106.512 153.477 102 159 102H690Z" fill="#B48FE1"/>
<path d="M338.065 400.18H358.04V408H328.375V348.925H338.065V400.18ZM408.559 361.165V408H398.869V402.475C397.339 404.402 395.327 405.932 392.834 407.065C390.397 408.142 387.79 408.68 385.014 408.68C381.33 408.68 378.015 407.915 375.069 406.385C372.179 404.855 369.884 402.588 368.184 399.585C366.54 396.582 365.719 392.955 365.719 388.705V361.165H375.324V387.26C375.324 391.453 376.372 394.683 378.469 396.95C380.565 399.16 383.427 400.265 387.054 400.265C390.68 400.265 393.542 399.16 395.639 396.95C397.792 394.683 398.869 391.453 398.869 387.26V361.165H408.559ZM444.974 360.4C448.657 360.4 451.944 361.165 454.834 362.695C457.78 364.225 460.075 366.492 461.719 369.495C463.362 372.498 464.184 376.125 464.184 380.375V408H454.579V381.82C454.579 377.627 453.53 374.425 451.434 372.215C449.337 369.948 446.475 368.815 442.849 368.815C439.222 368.815 436.332 369.948 434.179 372.215C432.082 374.425 431.034 377.627 431.034 381.82V408H421.344V361.165H431.034V366.52C432.62 364.593 434.632 363.092 437.069 362.015C439.562 360.938 442.197 360.4 444.974 360.4ZM473.314 384.37C473.314 379.667 474.277 375.502 476.204 371.875C478.187 368.248 480.851 365.443 484.194 363.46C487.594 361.42 491.334 360.4 495.414 360.4C499.097 360.4 502.299 361.137 505.019 362.61C507.796 364.027 510.006 365.812 511.649 367.965V361.165H521.424V408H511.649V401.03C510.006 403.24 507.767 405.082 504.934 406.555C502.101 408.028 498.871 408.765 495.244 408.765C491.221 408.765 487.537 407.745 484.194 405.705C480.851 403.608 478.187 400.718 476.204 397.035C474.277 393.295 473.314 389.073 473.314 384.37ZM511.649 384.54C511.649 381.31 510.969 378.505 509.609 376.125C508.306 373.745 506.577 371.932 504.424 370.685C502.271 369.438 499.947 368.815 497.454 368.815C494.961 368.815 492.637 369.438 490.484 370.685C488.331 371.875 486.574 373.66 485.214 376.04C483.911 378.363 483.259 381.14 483.259 384.37C483.259 387.6 483.911 390.433 485.214 392.87C486.574 395.307 488.331 397.177 490.484 398.48C492.694 399.727 495.017 400.35 497.454 400.35C499.947 400.35 502.271 399.727 504.424 398.48C506.577 397.233 508.306 395.42 509.609 393.04C510.969 390.603 511.649 387.77 511.649 384.54Z" fill="black"/>
<mask id="path-10-outside-2_97_33" maskUnits="userSpaceOnUse" x="401" y="1006" width="47" height="32" fill="black">
<rect fill="white" x="401" y="1006" width="47" height="32"/>
<path d="M402.32 1015.04C402.48 1012.56 403.427 1010.63 405.16 1009.24C406.92 1007.85 409.16 1007.16 411.88 1007.16C413.747 1007.16 415.36 1007.49 416.72 1008.16C418.08 1008.83 419.107 1009.73 419.8 1010.88C420.493 1012.03 420.84 1013.32 420.84 1014.76C420.84 1016.41 420.4 1017.83 419.52 1019C418.64 1020.17 417.587 1020.96 416.36 1021.36V1021.52C417.933 1022 419.16 1022.88 420.04 1024.16C420.92 1025.41 421.36 1027.03 421.36 1029C421.36 1030.57 421 1031.97 420.28 1033.2C419.56 1034.43 418.493 1035.4 417.08 1036.12C415.667 1036.81 413.973 1037.16 412 1037.16C409.12 1037.16 406.747 1036.43 404.88 1034.96C403.04 1033.47 402.053 1031.33 401.92 1028.56H406.32C406.427 1029.97 406.973 1031.13 407.96 1032.04C408.947 1032.92 410.28 1033.36 411.96 1033.36C413.587 1033.36 414.84 1032.92 415.72 1032.04C416.6 1031.13 417.04 1029.97 417.04 1028.56C417.04 1026.69 416.44 1025.37 415.24 1024.6C414.067 1023.8 412.253 1023.4 409.8 1023.4H408.76V1019.64H409.84C412 1019.61 413.64 1019.25 414.76 1018.56C415.907 1017.87 416.48 1016.77 416.48 1015.28C416.48 1014 416.067 1012.99 415.24 1012.24C414.413 1011.47 413.24 1011.08 411.72 1011.08C410.227 1011.08 409.067 1011.47 408.24 1012.24C407.413 1012.99 406.92 1013.92 406.76 1015.04H402.32ZM444.95 1011.76H431.55V1019.72C432.11 1018.97 432.937 1018.35 434.03 1017.84C435.15 1017.33 436.337 1017.08 437.59 1017.08C439.83 1017.08 441.643 1017.56 443.03 1018.52C444.443 1019.48 445.443 1020.69 446.03 1022.16C446.643 1023.63 446.95 1025.17 446.95 1026.8C446.95 1028.77 446.563 1030.53 445.79 1032.08C445.043 1033.6 443.91 1034.8 442.39 1035.68C440.897 1036.56 439.057 1037 436.87 1037C433.963 1037 431.63 1036.28 429.87 1034.84C428.11 1033.4 427.057 1031.49 426.71 1029.12H431.15C431.443 1030.37 432.097 1031.37 433.11 1032.12C434.123 1032.84 435.39 1033.2 436.91 1033.2C438.803 1033.2 440.217 1032.63 441.15 1031.48C442.11 1030.33 442.59 1028.81 442.59 1026.92C442.59 1025 442.11 1023.53 441.15 1022.52C440.19 1021.48 438.777 1020.96 436.91 1020.96C435.603 1020.96 434.497 1021.29 433.59 1021.96C432.71 1022.6 432.07 1023.48 431.67 1024.6H427.35V1007.76H444.95V1011.76Z"/>
</mask>
<path d="M402.32 1015.04C402.48 1012.56 403.427 1010.63 405.16 1009.24C406.92 1007.85 409.16 1007.16 411.88 1007.16C413.747 1007.16 415.36 1007.49 416.72 1008.16C418.08 1008.83 419.107 1009.73 419.8 1010.88C420.493 1012.03 420.84 1013.32 420.84 1014.76C420.84 1016.41 420.4 1017.83 419.52 1019C418.64 1020.17 417.587 1020.96 416.36 1021.36V1021.52C417.933 1022 419.16 1022.88 420.04 1024.16C420.92 1025.41 421.36 1027.03 421.36 1029C421.36 1030.57 421 1031.97 420.28 1033.2C419.56 1034.43 418.493 1035.4 417.08 1036.12C415.667 1036.81 413.973 1037.16 412 1037.16C409.12 1037.16 406.747 1036.43 404.88 1034.96C403.04 1033.47 402.053 1031.33 401.92 1028.56H406.32C406.427 1029.97 406.973 1031.13 407.96 1032.04C408.947 1032.92 410.28 1033.36 411.96 1033.36C413.587 1033.36 414.84 1032.92 415.72 1032.04C416.6 1031.13 417.04 1029.97 417.04 1028.56C417.04 1026.69 416.44 1025.37 415.24 1024.6C414.067 1023.8 412.253 1023.4 409.8 1023.4H408.76V1019.64H409.84C412 1019.61 413.64 1019.25 414.76 1018.56C415.907 1017.87 416.48 1016.77 416.48 1015.28C416.48 1014 416.067 1012.99 415.24 1012.24C414.413 1011.47 413.24 1011.08 411.72 1011.08C410.227 1011.08 409.067 1011.47 408.24 1012.24C407.413 1012.99 406.92 1013.92 406.76 1015.04H402.32ZM444.95 1011.76H431.55V1019.72C432.11 1018.97 432.937 1018.35 434.03 1017.84C435.15 1017.33 436.337 1017.08 437.59 1017.08C439.83 1017.08 441.643 1017.56 443.03 1018.52C444.443 1019.48 445.443 1020.69 446.03 1022.16C446.643 1023.63 446.95 1025.17 446.95 1026.8C446.95 1028.77 446.563 1030.53 445.79 1032.08C445.043 1033.6 443.91 1034.8 442.39 1035.68C440.897 1036.56 439.057 1037 436.87 1037C433.963 1037 431.63 1036.28 429.87 1034.84C428.11 1033.4 427.057 1031.49 426.71 1029.12H431.15C431.443 1030.37 432.097 1031.37 433.11 1032.12C434.123 1032.84 435.39 1033.2 436.91 1033.2C438.803 1033.2 440.217 1032.63 441.15 1031.48C442.11 1030.33 442.59 1028.81 442.59 1026.92C442.59 1025 442.11 1023.53 441.15 1022.52C440.19 1021.48 438.777 1020.96 436.91 1020.96C435.603 1020.96 434.497 1021.29 433.59 1021.96C432.71 1022.6 432.07 1023.48 431.67 1024.6H427.35V1007.76H444.95V1011.76Z" fill="black"/>
<path d="M402.32 1015.04L402.021 1015.02L402 1015.34H402.32V1015.04ZM405.16 1009.24L404.974 1009L404.973 1009.01L405.16 1009.24ZM416.72 1008.16L416.588 1008.43L416.72 1008.16ZM419.8 1010.88L420.057 1010.72L419.8 1010.88ZM419.52 1019L419.76 1019.18V1019.18L419.52 1019ZM416.36 1021.36L416.267 1021.07L416.06 1021.14V1021.36H416.36ZM416.36 1021.52H416.06V1021.74L416.272 1021.81L416.36 1021.52ZM420.04 1024.16L419.793 1024.33L419.794 1024.33L420.04 1024.16ZM420.28 1033.2L420.021 1033.05L420.28 1033.2ZM417.08 1036.12L417.212 1036.39L417.216 1036.39L417.08 1036.12ZM404.88 1034.96L404.691 1035.19L404.695 1035.2L404.88 1034.96ZM401.92 1028.56V1028.26H401.605L401.62 1028.57L401.92 1028.56ZM406.32 1028.56L406.619 1028.54L406.598 1028.26H406.32V1028.56ZM407.96 1032.04L407.757 1032.26L407.76 1032.26L407.96 1032.04ZM415.72 1032.04L415.932 1032.25L415.935 1032.25L415.72 1032.04ZM415.24 1024.6L415.071 1024.85L415.077 1024.85L415.24 1024.6ZM408.76 1023.4H408.46V1023.7H408.76V1023.4ZM408.76 1019.64V1019.34H408.46V1019.64H408.76ZM409.84 1019.64V1019.94L409.844 1019.94L409.84 1019.64ZM414.76 1018.56L414.605 1018.3L414.602 1018.3L414.76 1018.56ZM415.24 1012.24L415.035 1012.46L415.039 1012.46L415.24 1012.24ZM408.24 1012.24L408.441 1012.46L408.445 1012.46L408.24 1012.24ZM406.76 1015.04V1015.34H407.02L407.057 1015.08L406.76 1015.04ZM402.32 1015.04L402.619 1015.06C402.775 1012.65 403.688 1010.8 405.347 1009.47L405.16 1009.24L404.973 1009.01C403.165 1010.45 402.185 1012.47 402.021 1015.02L402.32 1015.04ZM405.16 1009.24L405.346 1009.48C407.042 1008.14 409.213 1007.46 411.88 1007.46V1007.16V1006.86C409.108 1006.86 406.798 1007.57 404.974 1009L405.16 1009.24ZM411.88 1007.16V1007.46C413.711 1007.46 415.277 1007.79 416.588 1008.43L416.72 1008.16L416.852 1007.89C415.443 1007.2 413.782 1006.86 411.88 1006.86V1007.16ZM416.72 1008.16L416.588 1008.43C417.903 1009.07 418.883 1009.94 419.543 1011.04L419.8 1010.88L420.057 1010.72C419.33 1009.52 418.257 1008.58 416.852 1007.89L416.72 1008.16ZM419.8 1010.88L419.543 1011.04C420.206 1012.13 420.54 1013.37 420.54 1014.76H420.84H421.14C421.14 1013.27 420.78 1011.92 420.057 1010.72L419.8 1010.88ZM420.84 1014.76H420.54C420.54 1016.36 420.116 1017.71 419.28 1018.82L419.52 1019L419.76 1019.18C420.684 1017.95 421.14 1016.47 421.14 1014.76H420.84ZM419.52 1019L419.28 1018.82C418.432 1019.95 417.427 1020.7 416.267 1021.07L416.36 1021.36L416.453 1021.65C417.746 1021.22 418.848 1020.4 419.76 1019.18L419.52 1019ZM416.36 1021.36H416.06V1021.52H416.36H416.66V1021.36H416.36ZM416.36 1021.52L416.272 1021.81C417.785 1022.27 418.954 1023.11 419.793 1024.33L420.04 1024.16L420.287 1023.99C419.366 1022.65 418.082 1021.73 416.448 1021.23L416.36 1021.52ZM420.04 1024.16L419.794 1024.33C420.63 1025.52 421.06 1027.07 421.06 1029H421.36H421.66C421.66 1026.98 421.21 1025.3 420.286 1023.99L420.04 1024.16ZM421.36 1029H421.06C421.06 1030.53 420.711 1031.87 420.021 1033.05L420.28 1033.2L420.539 1033.35C421.289 1032.07 421.66 1030.62 421.66 1029H421.36ZM420.28 1033.2L420.021 1033.05C419.334 1034.22 418.312 1035.16 416.944 1035.85L417.08 1036.12L417.216 1036.39C418.674 1035.64 419.786 1034.63 420.539 1033.35L420.28 1033.2ZM417.08 1036.12L416.948 1035.85C415.585 1036.52 413.939 1036.86 412 1036.86V1037.16V1037.46C414.008 1037.46 415.749 1037.11 417.212 1036.39L417.08 1036.12ZM412 1037.16V1036.86C409.172 1036.86 406.869 1036.14 405.065 1034.72L404.88 1034.96L404.695 1035.2C406.625 1036.71 409.068 1037.46 412 1037.46V1037.16ZM404.88 1034.96L405.069 1034.73C403.307 1033.3 402.35 1031.25 402.22 1028.55L401.92 1028.56L401.62 1028.57C401.757 1031.42 402.773 1033.64 404.691 1035.19L404.88 1034.96ZM401.92 1028.56V1028.86H406.32V1028.56V1028.26H401.92V1028.56ZM406.32 1028.56L406.021 1028.58C406.133 1030.07 406.711 1031.3 407.757 1032.26L407.96 1032.04L408.163 1031.82C407.236 1030.97 406.72 1029.88 406.619 1028.54L406.32 1028.56ZM407.96 1032.04L407.76 1032.26C408.816 1033.21 410.227 1033.66 411.96 1033.66V1033.36V1033.06C410.333 1033.06 409.078 1032.63 408.16 1031.82L407.96 1032.04ZM411.96 1033.36V1033.66C413.641 1033.66 414.98 1033.2 415.932 1032.25L415.72 1032.04L415.508 1031.83C414.7 1032.64 413.533 1033.06 411.96 1033.06V1033.36ZM415.72 1032.04L415.935 1032.25C416.876 1031.28 417.34 1030.04 417.34 1028.56H417.04H416.74C416.74 1029.91 416.324 1030.99 415.505 1031.83L415.72 1032.04ZM417.04 1028.56H417.34C417.34 1026.63 416.714 1025.19 415.403 1024.35L415.24 1024.6L415.077 1024.85C416.166 1025.55 416.74 1026.76 416.74 1028.56H417.04ZM415.24 1024.6L415.409 1024.35C414.161 1023.5 412.275 1023.1 409.8 1023.1V1023.4V1023.7C412.232 1023.7 413.972 1024.1 415.071 1024.85L415.24 1024.6ZM409.8 1023.4V1023.1H408.76V1023.4V1023.7H409.8V1023.4ZM408.76 1023.4H409.06V1019.64H408.76H408.46V1023.4H408.76ZM408.76 1019.64V1019.94H409.84V1019.64V1019.34H408.76V1019.64ZM409.84 1019.64L409.844 1019.94C412.027 1019.91 413.731 1019.55 414.918 1018.82L414.76 1018.56L414.602 1018.3C413.549 1018.96 411.973 1019.31 409.836 1019.34L409.84 1019.64ZM414.76 1018.56L414.915 1018.82C416.163 1018.06 416.78 1016.86 416.78 1015.28H416.48H416.18C416.18 1016.68 415.65 1017.67 414.605 1018.3L414.76 1018.56ZM416.48 1015.28H416.78C416.78 1013.93 416.34 1012.83 415.441 1012.02L415.24 1012.24L415.039 1012.46C415.793 1013.14 416.18 1014.07 416.18 1015.28H416.48ZM415.24 1012.24L415.445 1012.02C414.546 1011.18 413.289 1010.78 411.72 1010.78V1011.08V1011.38C413.191 1011.38 414.281 1011.75 415.035 1012.46L415.24 1012.24ZM411.72 1011.08V1010.78C410.176 1010.78 408.933 1011.18 408.035 1012.02L408.24 1012.24L408.445 1012.46C409.2 1011.75 410.278 1011.38 411.72 1011.38V1011.08ZM408.24 1012.24L408.039 1012.02C407.159 1012.81 406.633 1013.81 406.463 1015L406.76 1015.04L407.057 1015.08C407.207 1014.03 407.667 1013.16 408.441 1012.46L408.24 1012.24ZM406.76 1015.04V1014.74H402.32V1015.04V1015.34H406.76V1015.04ZM444.95 1011.76V1012.06H445.25V1011.76H444.95ZM431.55 1011.76V1011.46H431.25V1011.76H431.55ZM431.55 1019.72H431.25V1020.62L431.79 1019.9L431.55 1019.72ZM434.03 1017.84L433.906 1017.57L433.904 1017.57L434.03 1017.84ZM443.03 1018.52L442.859 1018.77L442.861 1018.77L443.03 1018.52ZM446.03 1022.16L445.751 1022.27L445.753 1022.28L446.03 1022.16ZM445.79 1032.08L445.522 1031.95L445.521 1031.95L445.79 1032.08ZM442.39 1035.68L442.24 1035.42L442.238 1035.42L442.39 1035.68ZM429.87 1034.84L430.06 1034.61L429.87 1034.84ZM426.71 1029.12V1028.82H426.363L426.413 1029.16L426.71 1029.12ZM431.15 1029.12L431.442 1029.05L431.388 1028.82H431.15V1029.12ZM433.11 1032.12L432.932 1032.36L432.936 1032.36L433.11 1032.12ZM441.15 1031.48L440.92 1031.29L440.917 1031.29L441.15 1031.48ZM441.15 1022.52L440.93 1022.72L440.932 1022.73L441.15 1022.52ZM433.59 1021.96L433.766 1022.2L433.768 1022.2L433.59 1021.96ZM431.67 1024.6V1024.9H431.881L431.953 1024.7L431.67 1024.6ZM427.35 1024.6H427.05V1024.9H427.35V1024.6ZM427.35 1007.76V1007.46H427.05V1007.76H427.35ZM444.95 1007.76H445.25V1007.46H444.95V1007.76ZM444.95 1011.76V1011.46H431.55V1011.76V1012.06H444.95V1011.76ZM431.55 1011.76H431.25V1019.72H431.55H431.85V1011.76H431.55ZM431.55 1019.72L431.79 1019.9C432.313 1019.2 433.095 1018.6 434.156 1018.11L434.03 1017.84L433.904 1017.57C432.778 1018.09 431.907 1018.74 431.31 1019.54L431.55 1019.72ZM434.03 1017.84L434.154 1018.11C435.234 1017.62 436.378 1017.38 437.59 1017.38V1017.08V1016.78C436.295 1016.78 435.066 1017.04 433.906 1017.57L434.03 1017.84ZM437.59 1017.08V1017.38C439.789 1017.38 441.537 1017.85 442.859 1018.77L443.03 1018.52L443.201 1018.27C441.75 1017.27 439.871 1016.78 437.59 1016.78V1017.08ZM443.03 1018.52L442.861 1018.77C444.23 1019.7 445.189 1020.86 445.751 1022.27L446.03 1022.16L446.309 1022.05C445.698 1020.52 444.657 1019.26 443.199 1018.27L443.03 1018.52ZM446.03 1022.16L445.753 1022.28C446.351 1023.7 446.65 1025.21 446.65 1026.8H446.95H447.25C447.25 1025.13 446.936 1023.55 446.307 1022.04L446.03 1022.16ZM446.95 1026.8H446.65C446.65 1028.73 446.271 1030.45 445.522 1031.95L445.79 1032.08L446.058 1032.21C446.855 1030.62 447.25 1028.81 447.25 1026.8H446.95ZM445.79 1032.08L445.521 1031.95C444.801 1033.41 443.71 1034.57 442.24 1035.42L442.39 1035.68L442.54 1035.94C444.11 1035.03 445.285 1033.79 446.059 1032.21L445.79 1032.08ZM442.39 1035.68L442.238 1035.42C440.801 1036.27 439.017 1036.7 436.87 1036.7V1037V1037.3C439.096 1037.3 440.992 1036.85 442.542 1035.94L442.39 1035.68ZM436.87 1037V1036.7C434.013 1036.7 431.753 1035.99 430.06 1034.61L429.87 1034.84L429.68 1035.07C431.507 1036.57 433.914 1037.3 436.87 1037.3V1037ZM429.87 1034.84L430.06 1034.61C428.361 1033.22 427.343 1031.38 427.007 1029.08L426.71 1029.12L426.413 1029.16C426.77 1031.61 427.859 1033.58 429.68 1035.07L429.87 1034.84ZM426.71 1029.12V1029.42H431.15V1029.12V1028.82H426.71V1029.12ZM431.15 1029.12L430.858 1029.19C431.167 1030.51 431.86 1031.57 432.932 1032.36L433.11 1032.12L433.288 1031.88C432.333 1031.18 431.72 1030.24 431.442 1029.05L431.15 1029.12ZM433.11 1032.12L432.936 1032.36C434.011 1033.13 435.342 1033.5 436.91 1033.5V1033.2V1032.9C435.438 1032.9 434.236 1032.55 433.284 1031.88L433.11 1032.12ZM436.91 1033.2V1033.5C438.866 1033.5 440.377 1032.9 441.383 1031.67L441.15 1031.48L440.917 1031.29C440.056 1032.35 438.741 1032.9 436.91 1032.9V1033.2ZM441.15 1031.48L441.38 1031.67C442.396 1030.46 442.89 1028.86 442.89 1026.92H442.59H442.29C442.29 1028.76 441.824 1030.21 440.92 1031.29L441.15 1031.48ZM442.59 1026.92H442.89C442.89 1024.95 442.398 1023.4 441.368 1022.31L441.15 1022.52L440.932 1022.73C441.822 1023.67 442.29 1025.05 442.29 1026.92H442.59ZM441.15 1022.52L441.37 1022.32C440.337 1021.2 438.832 1020.66 436.91 1020.66V1020.96V1021.26C438.721 1021.26 440.043 1021.76 440.93 1022.72L441.15 1022.52ZM436.91 1020.96V1020.66C435.55 1020.66 434.378 1021.01 433.412 1021.72L433.59 1021.96L433.768 1022.2C434.615 1021.58 435.657 1021.26 436.91 1021.26V1020.96ZM433.59 1021.96L433.414 1021.72C432.48 1022.4 431.806 1023.33 431.387 1024.5L431.67 1024.6L431.953 1024.7C432.334 1023.63 432.94 1022.8 433.766 1022.2L433.59 1021.96ZM431.67 1024.6V1024.3H427.35V1024.6V1024.9H431.67V1024.6ZM427.35 1024.6H427.65V1007.76H427.35H427.05V1024.6H427.35ZM427.35 1007.76V1008.06H444.95V1007.76V1007.46H427.35V1007.76ZM444.95 1007.76H444.65V1011.76H444.95H445.25V1007.76H444.95Z" fill="black" mask="url(#path-10-outside-2_97_33)"/>
<path d="M365.295 197.975V272H344.715V231.155L330.75 272H313.53L299.46 230.84V272H278.88V197.975H303.765L322.35 246.065L340.515 197.975H365.295ZM404.415 272.735C398.535 272.735 393.25 271.51 388.56 269.06C383.94 266.61 380.3 263.11 377.64 258.56C374.98 254.01 373.65 248.655 373.65 242.495C373.65 236.405 374.98 231.085 377.64 226.535C380.37 221.985 384.045 218.485 388.665 216.035C393.355 213.585 398.64 212.36 404.52 212.36C410.4 212.36 415.65 213.585 420.27 216.035C424.96 218.485 428.635 221.985 431.295 226.535C434.025 231.085 435.39 236.405 435.39 242.495C435.39 248.585 434.025 253.94 431.295 258.56C428.635 263.11 424.96 266.61 420.27 269.06C415.58 271.51 410.295 272.735 404.415 272.735ZM404.415 254.885C407.285 254.885 409.665 253.835 411.555 251.735C413.515 249.565 414.495 246.485 414.495 242.495C414.495 238.505 413.515 235.46 411.555 233.36C409.665 231.26 407.32 230.21 404.52 230.21C401.72 230.21 399.375 231.26 397.485 233.36C395.595 235.46 394.65 238.505 394.65 242.495C394.65 246.555 395.56 249.635 397.38 251.735C399.2 253.835 401.545 254.885 404.415 254.885ZM471.168 272.735C465.288 272.735 460.003 271.51 455.313 269.06C450.693 266.61 447.053 263.11 444.393 258.56C441.733 254.01 440.403 248.655 440.403 242.495C440.403 236.405 441.733 231.085 444.393 226.535C447.123 221.985 450.798 218.485 455.418 216.035C460.108 213.585 465.393 212.36 471.273 212.36C477.153 212.36 482.403 213.585 487.023 216.035C491.713 218.485 495.388 221.985 498.048 226.535C500.778 231.085 502.143 236.405 502.143 242.495C502.143 248.585 500.778 253.94 498.048 258.56C495.388 263.11 491.713 266.61 487.023 269.06C482.333 271.51 477.048 272.735 471.168 272.735ZM471.168 254.885C474.038 254.885 476.418 253.835 478.308 251.735C480.268 249.565 481.248 246.485 481.248 242.495C481.248 238.505 480.268 235.46 478.308 233.36C476.418 231.26 474.073 230.21 471.273 230.21C468.473 230.21 466.128 231.26 464.238 233.36C462.348 235.46 461.403 238.505 461.403 242.495C461.403 246.555 462.313 249.635 464.133 251.735C465.953 253.835 468.298 254.885 471.168 254.885ZM549.051 212.57C555.841 212.57 561.231 214.845 565.221 219.395C569.211 223.875 571.206 229.965 571.206 237.665V272H550.626V240.395C550.626 237.035 549.751 234.41 548.001 232.52C546.251 230.56 543.906 229.58 540.966 229.58C537.886 229.58 535.471 230.56 533.721 232.52C531.971 234.41 531.096 237.035 531.096 240.395V272H510.516V213.095H531.096V221.495C532.916 218.835 535.366 216.7 538.446 215.09C541.526 213.41 545.061 212.57 549.051 212.57Z" fill="black"/>
<path d="M418.318 455.187C425.019 454.816 431.821 455.057 438.522 455.39C492.14 458.057 550.349 480.847 590.835 516.233C640.671 559.789 671.362 621.217 676.271 687.231C681.463 756.12 658.768 824.208 613.285 876.2C593.077 899.196 570.336 916.772 543.712 931.751C530.101 939.408 515.934 946.141 501.03 950.88C479.017 957.881 455.524 961.443 432.516 962.93C382.893 963.931 343.361 954.214 300.209 929.369C284.014 920.045 268.888 909.505 255.097 896.858C205.206 851.294 175.692 787.604 173.176 720.077C172.207 697.563 175.303 670.038 180.85 648.292C183.103 639.459 186.136 630.808 189.305 622.267C198.271 598.111 209.415 575.618 224.898 554.91C229.592 548.631 234.893 542.743 240.196 536.977C255.031 520.833 271.875 506.659 290.316 494.804C329.903 469.218 371.323 457.114 418.318 455.187Z" fill="black"/>
<path d="M229.791 851.128C162.206 758.291 169.498 630.667 247.216 546.133C324.935 461.599 451.498 443.63 549.674 503.191C633.111 553.811 677.791 649.747 662.842 746.186C647.893 842.626 576.266 920.534 481.421 943.518C386.574 966.502 287.229 930.025 229.791 851.128Z" fill="#A5A5A5"/>
<path d="M549.674 503.191C633.111 553.811 677.791 649.747 662.842 746.186C647.893 842.626 576.266 920.534 481.421 943.518C386.574 966.502 287.229 930.025 229.791 851.128C232.458 850.547 235.371 852.467 237.557 853.878C240.536 855.801 243.284 858.078 246.224 860.059C250.942 863.24 256.107 866.192 261.064 869C289.95 885.365 324.77 896.734 358.216 896.085C355.818 891.376 354.367 888.041 355.092 882.638C365.314 882.603 375.524 883.074 385.743 883.24C390.509 883.317 395.413 883.526 400.162 883.201C402.401 885.924 404.657 889 407.304 891.327C416.21 899.159 431.208 900.547 442.518 899.771C456.463 898.815 469.425 893.691 478.688 882.974C485.892 874.64 488.31 866.311 487.505 855.435C490.683 853.477 494.196 851.972 497.455 850.121C518.434 838.206 542.537 819.586 556.122 799.433C558.121 796.468 560.03 793.327 561.484 790.053C562.797 787.1 563.57 782.932 565.583 780.45C567.652 777.901 571.266 776.153 573.944 774.304C575.992 772.888 577.967 771.288 579.815 769.619C594.533 756.331 604.722 735.673 608.567 716.369C609.84 709.976 610.613 703.181 610.293 696.67C609.938 689.452 606.097 673.678 607.908 667.831C608.361 666.37 609.279 665.085 610.664 664.386C613.131 663.141 615.813 663.922 618.236 664.811C618.262 659.545 617.541 646.82 615.97 642.055C615.361 640.206 614.198 638.559 613.637 636.686C612.709 633.589 613.352 630.612 614.932 627.903C614.167 622.366 612.749 616.768 611.321 611.363C602.873 579.374 586.736 548.739 566.492 522.667C563.147 518.387 559.619 514.255 555.916 510.281C554.122 508.371 551.755 506.445 550.215 504.376C549.94 504.008 549.816 503.621 549.674 503.191Z" fill="#757575"/>
<path d="M580.173 841.84C580.922 842.567 581.58 843.422 582.254 844.22C581.428 847.213 580.375 849.893 578.879 852.619C572.7 863.886 560.556 874.971 548.076 878.609C547.337 877.612 546.88 876.376 546.358 875.25C553.736 868.825 561.307 862.874 568.18 855.842C572.521 851.401 576.219 846.605 580.173 841.84Z" fill="black"/>
<path d="M518.975 899.285C519.512 899.351 519.687 899.482 520.133 899.765C520.527 900.501 521.043 901.357 521.06 902.208C521.087 903.488 520.021 904.729 519.156 905.563C516.855 907.784 513.777 909.528 511.017 911.097C502.257 916.08 494.787 918.451 484.712 918.192C483.993 918.007 483.487 917.887 482.852 917.479C482.301 917.126 482.474 917.298 482.317 916.617C485.133 912.742 501.228 908.508 506.27 906.182C510.654 904.159 514.63 901.382 518.975 899.285Z" fill="black"/>
<path d="M618.777 794.067C619.752 794.203 620.475 794.23 621.221 794.948C622.231 796.878 621.898 798.954 621.449 801.002C619.656 809.208 615.993 817.699 608.732 822.391C608.49 822.425 608.269 822.464 608.021 822.46C607.151 822.448 606.976 822.428 606.371 821.863C606.229 821.286 606.167 820.806 606.216 820.209C606.854 812.359 613.023 799.29 618.777 794.067Z" fill="black"/>
<path d="M639.983 720.671C640.756 721.183 641.23 721.978 641.629 722.801C643.349 726.349 642.221 731.462 640.979 735.034C639.95 737.994 638.63 741.251 635.695 742.693C634.67 742.575 634.338 742.632 633.524 741.96C632.748 740.333 632.904 738.751 633.221 737.007C633.851 733.538 636.532 725.047 638.478 722.025C638.843 721.458 639.436 721.048 639.983 720.671Z" fill="black"/>
<path d="M616.722 627.848C618.106 627.77 619.33 627.684 620.614 628.286C621.919 628.897 622.784 630.059 623.196 631.423C624.234 634.862 622.978 640.036 621.317 643.109C620.894 643.233 620.357 643.441 619.921 643.456C619.111 643.485 618.734 643.244 618.201 642.646C616.043 640.229 615.055 632.913 615.375 629.684C615.478 628.649 615.927 628.445 616.722 627.848Z" fill="black"/>
<path d="M357.278 917.181C361.549 917.535 366.668 918.485 370.74 919.829C372.366 920.365 374.201 920.936 375.01 922.559C374.806 923.418 374.601 923.418 373.874 923.944C373.754 923.981 373.636 924.023 373.515 924.056C369.255 925.225 362.218 924.778 358.353 922.528C357.322 921.928 356.439 921.064 356.26 919.831C356.118 918.853 356.79 917.969 357.278 917.181Z" fill="black"/>
<path d="M400.163 883.201C397.899 879.953 396.13 876.376 395.23 872.508C393.415 864.714 395.096 855.741 399.389 849.024C406.445 837.979 418.296 830.109 431.034 827.374C444.756 824.429 461.247 826.492 473.147 834.226C481.095 839.392 485.579 846.227 487.505 855.436C488.311 866.311 485.892 874.64 478.688 882.974C469.425 893.691 456.463 898.815 442.519 899.771C431.208 900.547 416.21 899.159 407.304 891.327C404.657 889 402.401 885.924 400.163 883.201Z" fill="black"/>
<path d="M419.642 882.607C419.055 882.365 418.528 882.102 417.987 881.765C413.315 878.852 409.572 873.937 408.341 868.529C407.236 863.681 408.208 858.762 410.798 854.562C415.278 847.292 423.955 843.259 431.967 841.328C442.519 838.783 455.808 838.802 465.3 844.765C469.815 847.603 472.233 851.321 473.431 856.475C474.051 863.301 472.123 869.591 467.725 874.882C461.951 881.827 452.072 885.526 443.275 886.292C435.46 886.973 426.821 885.833 419.642 882.607Z" fill="#A5A5A5"/>
<path d="M419.642 882.607C419.055 882.365 418.528 882.102 417.987 881.765C413.315 878.852 409.572 873.937 408.341 868.529C407.236 863.681 408.208 858.762 410.798 854.562C415.278 847.292 423.955 843.259 431.967 841.328C442.519 838.783 455.808 838.802 465.3 844.765C469.815 847.603 472.233 851.321 473.431 856.475L473.002 856.418C468.758 855.814 464.678 854.399 460.461 853.655C449.954 851.802 437.951 852.942 429.152 859.405C423.991 863.195 419.706 868.877 418.829 875.368C418.497 877.821 419.34 880.19 419.642 882.607Z" fill="#757575"/>
<path d="M468.45 514.115C483.145 513.207 500.863 519.23 512.212 528.599C521.97 536.656 528.697 551.316 529.873 563.784C531.075 576.53 527.632 588.68 519.456 598.571C508.893 611.35 495.035 617.957 478.653 619.543C478.538 619.554 478.424 619.569 478.309 619.579C461.918 621.089 451.256 617.596 438.738 607.084C427.141 597.346 418.27 587.24 416.986 571.556C415.854 557.74 419.986 542.355 429.126 531.742C439.004 520.273 453.721 515.148 468.45 514.115Z" fill="black"/>
<path d="M442.91 592.581C439.935 590.084 437.427 586.92 435.396 583.623C430.583 575.872 429.126 566.497 431.361 557.651C433.798 548.005 439.989 539.733 448.556 534.675C458.452 528.825 471.033 526.991 482.147 529.94C495.344 533.442 503.548 540.383 510.244 551.939C515 560.372 518.105 570.608 515.443 580.231C513.182 588.405 507.304 594.962 499.98 599.047C489.054 605.141 476.185 607.667 464.08 604.114C456.384 601.856 448.825 598.057 442.91 592.581Z" fill="#A5A5A5"/>
<path d="M442.91 592.581C439.935 590.084 437.427 586.92 435.396 583.623C430.583 575.872 429.126 566.497 431.361 557.651C433.798 548.005 439.989 539.733 448.556 534.675C458.452 528.825 471.033 526.991 482.147 529.94C495.344 533.442 503.548 540.383 510.244 551.939C510.147 551.909 510.05 551.883 509.954 551.851C506.337 550.655 503.186 547.484 499.765 545.704C488.788 539.993 473.296 539.53 462.107 544.855C453.185 549.174 446.35 556.87 443.114 566.24C440.867 572.688 440.793 579.136 441.799 585.839C442.133 588.073 442.8 590.327 442.91 592.581Z" fill="#757575"/>
<path d="M552.866 668.003C563.738 668.193 573.403 671.109 581.655 678.472C590.612 686.464 595.293 699.877 595.951 711.623C596.691 724.826 591.243 739.878 582.376 749.675C574.49 758.389 563.065 765.641 551.117 766.284C540.334 766.384 529.197 762.921 521.006 755.717C512.234 748.002 507.989 737.082 507.36 725.602C506.525 710.401 511.368 692.503 521.738 681.057C530.109 671.818 540.695 668.538 552.866 668.003Z" fill="black"/>
<path d="M530.506 745.357C527.453 742.047 525.292 738.501 523.849 734.223C520.059 722.996 521.544 709.506 526.832 698.996C530.716 691.276 537.085 684.661 545.463 681.982C551.505 680.049 557.661 680.203 563.341 683.151C571.728 687.505 576.907 696.074 579.615 704.848C582.65 715.097 582.117 726.452 576.952 735.92C572.669 743.771 566.256 749.709 557.561 752.212C550.649 754.202 542.848 753.564 536.513 750.068C534.261 748.844 532.231 747.252 530.506 745.357Z" fill="#A5A5A5"/>
<path d="M530.506 745.357C527.453 742.047 525.292 738.501 523.849 734.223C520.059 722.996 521.544 709.506 526.832 698.996C530.716 691.276 537.085 684.661 545.463 681.982C551.505 680.049 557.661 680.203 563.341 683.151C571.728 687.505 576.907 696.074 579.615 704.848C579.43 704.813 579.244 704.78 579.059 704.742C576.641 704.247 574.327 703.193 571.852 702.69C563.637 701.018 554.132 702.229 546.999 706.757C538.839 711.939 533.036 721.396 531.014 730.764C529.963 735.634 530.168 740.425 530.506 745.357Z" fill="#757575"/>
<path d="M239.906 727.279C239.936 727.276 239.966 727.271 239.997 727.269C248.632 726.732 256.171 729.288 262.776 734.911C278.02 747.889 288.357 772.434 289.786 792.244C290.472 801.758 289.603 812.208 283.036 819.688C279.171 824.089 274.067 826.523 268.258 826.942C259.664 826.805 251.856 824.575 244.96 819.346C230.248 808.193 220.948 789.177 218.516 771.145C217.004 759.936 217.608 744.758 224.863 735.429C228.744 730.439 233.747 728.08 239.906 727.279Z" fill="black"/>
<path d="M245.531 800.96C238.34 794.029 233.909 781.465 232.132 771.876C230.776 764.564 230.013 753.454 234.648 747.062C236.412 744.63 239.129 742.911 242.135 742.545C245.89 742.089 248.942 743.976 251.761 746.194C265.447 757.477 276.055 777.697 277.802 795.258C278.289 800.159 277.627 805.868 274.355 809.756C272.353 812.134 269.418 813.77 266.297 813.992C260.212 814.426 254.214 809.663 249.996 805.798C248.503 804.43 246.565 802.7 245.531 800.96Z" fill="#A5A5A5"/>
<path d="M245.531 800.96C238.34 794.029 233.909 781.465 232.132 771.876C230.776 764.564 230.013 753.454 234.648 747.062C236.412 744.63 239.129 742.911 242.135 742.545C245.89 742.089 248.942 743.976 251.761 746.194C250.001 748.391 248.211 750.275 246.762 752.717C241.559 761.486 240.421 773.48 241.512 783.429C241.746 785.556 242.066 787.748 242.602 789.823C243.451 793.116 245.951 797.623 245.531 800.96Z" fill="#757575"/>
<path d="M294.003 550.014C300.814 550.184 307.31 551.831 312.611 556.313C317.615 560.545 320.415 566.725 320.903 573.212C321.802 585.183 315.182 598.117 307.551 606.931C299.65 616.058 289.933 622.171 277.723 623.096C271.362 623.606 264.283 621.896 259.36 617.711C254.14 613.275 251.593 606.557 251.134 599.851C250.274 587.274 256.601 574.994 264.735 565.794C272.611 556.884 281.96 550.801 294.003 550.014Z" fill="black"/>
<path d="M271.297 610.101C269.163 609.489 267.393 608.705 265.816 607.096C263.569 604.802 262.67 601.61 262.699 598.459C262.787 588.779 269.905 578.085 276.681 571.665C281.592 567.012 288.16 562.925 295.176 563.242C298.622 563.398 302.001 564.754 304.278 567.404C307.039 570.618 307.408 574.656 307.101 578.697C305.15 589.416 298.58 598.645 289.645 604.824C284.656 608.275 278.012 611.336 271.797 610.201C271.63 610.17 271.464 610.134 271.297 610.101Z" fill="#757575"/>
<path d="M271.297 610.101C271.286 609.589 271.28 609.076 271.282 608.563C271.293 599.854 275.383 593.169 281.452 587.202C286.042 582.689 292.271 578.725 298.89 578.334C301.58 578.176 304.385 578.664 307.101 578.697C305.15 589.416 298.58 598.645 289.645 604.824C284.656 608.275 278.012 611.336 271.797 610.201C271.63 610.17 271.464 610.134 271.297 610.101Z" fill="#A5A5A5"/>
<path d="M315.921 670.023C328.511 668.479 339.97 677.435 341.51 690.026C343.05 702.617 334.09 714.072 321.498 715.609C308.913 717.144 297.464 708.189 295.924 695.604C294.384 683.018 303.336 671.567 315.921 670.023Z" fill="black"/>
<path d="M314.45 704.439C312.976 703.907 311.608 703.228 310.433 702.175C308.417 700.371 307.39 697.941 307.338 695.25C307.27 691.716 308.923 688.175 311.454 685.753C313.617 683.683 316.525 682.355 319.554 682.513C322.539 682.669 324.743 684.11 326.731 686.234C328.722 689.224 329.831 692.406 329.081 696.036C328.464 699.06 326.63 701.698 324.01 703.33C321.121 705.096 317.67 705.284 314.45 704.439Z" fill="#A5A5A5"/>
<path d="M314.45 704.439C312.976 703.907 311.608 703.228 310.433 702.175C308.417 700.371 307.39 697.941 307.338 695.25C307.27 691.716 308.923 688.175 311.454 685.753C313.617 683.683 316.525 682.355 319.554 682.513C322.539 682.669 324.743 684.11 326.731 686.234C322.244 687.298 318.343 688.886 315.812 693.01C313.302 697.099 313.965 700.049 314.45 704.439Z" fill="#757575"/>
<path d="M407.912 599.315C408.213 599.294 408.514 599.27 408.815 599.264C412.032 599.203 414.558 603.166 416.43 605.363C422.06 611.97 428.427 617.012 435.582 621.871C438.595 623.917 442.647 626.014 445.136 628.633C445.715 629.242 446.01 629.73 445.847 630.61C445.556 632.183 443.91 633.605 442.612 634.368C439.492 635.122 436.713 634.731 433.724 633.702C423.412 630.149 410.765 619.671 405.959 609.795C404.858 607.532 403.665 604.591 404.629 602.094C405.242 600.51 406.434 599.959 407.912 599.315Z" fill="#757575"/>
<path d="M203.923 676.863C204.963 676.818 206.136 676.771 207.149 677.048C209.303 677.635 211.056 679.51 212.115 681.402C215.158 686.836 216.197 702.074 214.29 708.014C213.45 710.63 212.392 711.753 210.006 713.024C209.381 713.072 208.729 713.123 208.118 712.951C205.651 712.256 203.881 709.78 202.781 707.619C199.107 700.399 198.043 688.462 200.716 680.784C201.413 678.781 202 677.787 203.923 676.863Z" fill="#757575"/>
<path d="M439.299 783.327C441.123 783.185 442.494 783.161 444.192 783.927C445.112 784.343 445.855 784.898 446.126 785.932C446.697 788.107 445.068 791.194 443.85 792.893C439.42 799.072 429.136 803.476 421.817 804.554C420.493 804.525 419.311 804.522 418.075 803.983C416.722 803.392 415.67 802.552 415.167 801.122C414.61 799.537 414.824 797.902 415.625 796.442C419.01 790.271 432.636 785.207 439.299 783.327Z" fill="#757575"/>
<path d="M283.217 847.678C283.715 847.665 284.212 847.654 284.71 847.686C289.969 848.02 299.439 855.713 302.715 859.68C304.112 861.372 305.39 863.406 305.119 865.699C304.889 867.634 303.407 868.737 301.946 869.812C301.559 869.828 301.195 869.84 300.809 869.8C293.698 869.054 287.47 865.396 283.071 859.814C281.346 857.626 279.653 854.888 280.084 851.986C280.393 849.909 281.623 848.896 283.217 847.678Z" fill="#757575"/>
<path d="M342.897 507.63C344.049 507.539 344.99 507.473 346.06 507.975C347.32 508.567 348.245 509.153 348.667 510.572C349.33 512.801 347.876 515.793 346.793 517.67C343.962 522.576 340.175 526.66 334.588 528.165C333.455 528.187 332.263 528.206 331.164 527.893C330.051 527.576 328.995 526.868 328.531 525.771C327.845 524.151 328.565 522.255 329.256 520.772C331.884 515.133 337.034 509.787 342.897 507.63Z" fill="#757575"/>
<path d="M353.379 799.01C355.416 798.965 357.556 799.302 359.415 800.144C362.83 801.692 365.608 804.59 366.841 808.154C367.391 809.744 367.637 811.485 366.803 813.022C365.878 814.73 364.682 815.427 362.867 815.959C361.09 816.046 359.406 816.036 357.716 815.4C354.189 814.071 351.35 811.259 349.808 807.84C349.041 806.141 348.526 804.145 349.292 802.351C350.065 800.538 351.609 799.657 353.379 799.01Z" fill="#757575"/>
<path d="M545.8 626.233C546.961 626.16 548.126 626.08 549.289 626.068C552.325 626.039 555.048 626.825 557.19 629.072C558.723 630.679 559.711 632.833 559.624 635.078C559.543 637.114 558.561 638.508 557.096 639.831C556.729 639.981 556.358 640.118 555.982 640.242C553.759 640.958 551.087 640.622 549.042 639.526C546.87 638.362 545.074 636.257 544.365 633.887C543.462 630.867 544.47 628.867 545.8 626.233Z" fill="#757575"/>
<path d="M523.622 799.27C524.009 799.247 524.147 799.208 524.563 799.354C525.507 799.687 526.934 800.759 527.384 801.689C528.285 803.55 527.465 805.926 526.684 807.683C524.753 812.031 521.55 815.866 517.036 817.594C516.339 817.662 515.823 817.638 515.137 817.496C513.224 816.039 512.983 813.299 512.442 811.093C512.789 809.998 513.214 808.928 513.714 807.891C515.773 803.671 519.256 800.859 523.622 799.27Z" fill="#757575"/>
<path d="M238.324 656.69L239.187 656.789C240.282 657.536 241.235 658.311 241.683 659.606C242.541 662.083 241.833 665.338 240.646 667.595C239.119 670.495 236.993 672.063 233.899 672.982C233.031 672.804 232.165 672.533 231.425 672.027C230.516 671.405 230.011 670.315 229.845 669.253C229.39 666.352 231.004 662.705 232.641 660.389C234.277 658.075 235.556 657.187 238.324 656.69Z" fill="#757575"/>
<path d="M486.522 730.342C487.235 730.268 487.964 730.175 488.648 730.459C490.008 731.025 491.01 732.371 491.502 733.72C492.447 736.306 492.307 739.52 491.133 742.008C490.266 743.846 489.025 744.536 487.178 745.206C486.71 745.192 486.245 745.185 485.781 745.12C484.348 744.921 483.025 744.348 482.166 743.142C481.162 741.733 481.109 739.894 481.426 738.251C482.076 734.883 483.728 732.28 486.522 730.342Z" fill="#757575"/>
<path d="M461.907 696.361C462.342 696.547 462.441 696.568 462.871 696.868C464.24 697.821 465.138 699.927 465.368 701.518C465.756 704.207 464.9 707.167 463.244 709.3C461.847 711.098 460.665 711.476 458.462 711.8C458.09 711.698 457.953 711.668 457.564 711.524C456.526 711.137 455.884 710.625 455.442 709.614C454.438 707.323 455.188 704.589 456.156 702.418C457.426 699.566 458.986 697.529 461.907 696.361Z" fill="#757575"/>
<path d="M566.173 590.459C566.573 590.541 566.89 590.697 567.26 590.864C568.911 593.13 570.295 595.884 570.746 598.665C571.002 600.24 570.88 602.111 569.841 603.405C568.839 604.654 567.724 604.75 566.228 604.903C564.424 604.587 562.857 604.363 561.755 602.758C560.751 601.293 560.664 599.518 561 597.824C561.651 594.548 563.458 592.277 566.173 590.459Z" fill="#757575"/>
</svg>
