<svg width="849" height="1183" viewBox="0 0 849 1183" fill="none" xmlns="http://www.w3.org/2000/svg">
<rect x="5" y="5" width="839" height="1173" rx="45" fill="white"/>
<rect x="5" y="5" width="839" height="1173" rx="45" stroke="black" stroke-width="10"/>
<circle cx="786.5" cy="1124.5" r="11.5" fill="black"/>
<circle cx="786.5" cy="59.5" r="11.5" fill="black"/>
<path d="M77 1124.5C77 1130.85 71.8513 1136 65.5 1136C59.1487 1136 54 1130.85 54 1124.5C54 1118.15 59.1487 1113 65.5 1113C71.8513 1113 77 1118.15 77 1124.5Z" fill="black"/>
<path d="M77 59.5C77 65.8513 71.8513 71 65.5 71C59.1487 71 54 65.8513 54 59.5C54 53.1487 59.1487 48 65.5 48C71.8513 48 77 53.1487 77 59.5Z" fill="black"/>
<mask id="path-6-inside-1_97_54" fill="white">
<path d="M708 48C713.523 48 717.934 52.4996 718.616 57.9801C723.122 94.1833 751.817 122.878 788.02 127.384C793.5 128.066 798 132.477 798 138V1046C798 1051.52 793.5 1055.93 788.02 1056.62C751.817 1061.12 723.122 1089.82 718.616 1126.02C717.934 1131.5 713.523 1136 708 1136H141C135.477 1136 131.066 1131.5 130.384 1126.02C125.878 1089.82 97.1833 1061.12 60.9801 1056.62C55.4996 1055.93 51 1051.52 51 1046V138C51 132.477 55.4996 128.066 60.9801 127.384C97.1833 122.878 125.878 94.1833 130.384 57.9801C131.066 52.4996 135.477 48 141 48H708Z"/>
</mask>
<path d="M708 48C713.523 48 717.934 52.4996 718.616 57.9801C723.122 94.1833 751.817 122.878 788.02 127.384C793.5 128.066 798 132.477 798 138V1046C798 1051.52 793.5 1055.93 788.02 1056.62C751.817 1061.12 723.122 1089.82 718.616 1126.02C717.934 1131.5 713.523 1136 708 1136H141C135.477 1136 131.066 1131.5 130.384 1126.02C125.878 1089.82 97.1833 1061.12 60.9801 1056.62C55.4996 1055.93 51 1051.52 51 1046V138C51 132.477 55.4996 128.066 60.9801 127.384C97.1833 122.878 125.878 94.1833 130.384 57.9801C131.066 52.4996 135.477 48 141 48H708Z" fill="#7047A3"/>
<path d="M130.384 1126.02L138.322 1125.03L130.384 1126.02ZM718.616 1126.02L710.678 1125.03L718.616 1126.02ZM788.02 1056.62L789.008 1064.56L788.02 1056.62ZM718.616 57.9801L726.555 56.9922L718.616 57.9801ZM718.616 57.9801L710.678 58.9681C715.635 98.8063 747.194 130.365 787.032 135.322L788.02 127.384L789.008 119.445C756.44 115.392 730.608 89.5603 726.555 56.9922L718.616 57.9801ZM798 138H790V1046H798H806V138H798ZM788.02 1056.62L787.032 1048.68C747.194 1053.64 715.635 1085.19 710.678 1125.03L718.616 1126.02L726.555 1127.01C730.608 1094.44 756.44 1068.61 789.008 1064.56L788.02 1056.62ZM708 1136V1128H141V1136V1144H708V1136ZM130.384 1126.02L138.322 1125.03C133.365 1085.19 101.806 1053.64 61.9681 1048.68L60.9801 1056.62L59.9922 1064.56C92.5603 1068.61 118.392 1094.44 122.445 1127.01L130.384 1126.02ZM51 1046H59V138H51H43V1046H51ZM60.9801 127.384L61.9681 135.322C101.806 130.365 133.365 98.8063 138.322 58.9681L130.384 57.9801L122.445 56.9922C118.392 89.5603 92.5603 115.392 59.9922 119.445L60.9801 127.384ZM141 48V56H708V48V40H141V48ZM130.384 57.9801L138.322 58.9681C138.438 58.0389 138.872 57.2306 139.427 56.6958C139.954 56.1887 140.494 56 141 56V48V40C130.84 40 123.547 48.1329 122.445 56.9922L130.384 57.9801ZM51 138H59C59 137.494 59.1887 136.954 59.6958 136.427C60.2306 135.872 61.0389 135.438 61.9681 135.322L60.9801 127.384L59.9922 119.445C51.1329 120.547 43 127.84 43 138H51ZM60.9801 1056.62L61.9681 1048.68C61.0389 1048.56 60.2306 1048.13 59.6958 1047.57C59.1887 1047.05 59 1046.51 59 1046H51H43C43 1056.16 51.1329 1063.45 59.9922 1064.56L60.9801 1056.62ZM141 1136V1128C140.494 1128 139.954 1127.81 139.427 1127.3C138.872 1126.77 138.438 1125.96 138.322 1125.03L130.384 1126.02L122.445 1127.01C123.547 1135.87 130.84 1144 141 1144V1136ZM718.616 1126.02L710.678 1125.03C710.562 1125.96 710.128 1126.77 709.573 1127.3C709.046 1127.81 708.506 1128 708 1128V1136V1144C718.16 1144 725.453 1135.87 726.555 1127.01L718.616 1126.02ZM798 1046H790C790 1046.51 789.811 1047.05 789.304 1047.57C788.769 1048.13 787.961 1048.56 787.032 1048.68L788.02 1056.62L789.008 1064.56C797.867 1063.45 806 1056.16 806 1046H798ZM788.02 127.384L787.032 135.322C787.961 135.438 788.769 135.872 789.304 136.427C789.811 136.954 790 137.494 790 138H798H806C806 127.84 797.867 120.547 789.008 119.445L788.02 127.384ZM718.616 57.9801L726.555 56.9922C725.453 48.1329 718.16 40 708 40V48V56C708.506 56 709.046 56.1887 709.573 56.6958C710.128 57.2306 710.562 58.0389 710.678 58.9681L718.616 57.9801Z" fill="black" mask="url(#path-6-inside-1_97_54)"/>
<path d="M690 102C695.523 102 699.911 106.512 700.837 111.957C705.019 136.563 724.437 155.981 749.043 160.163C754.488 161.089 759 165.477 759 171V1014C759 1019.52 754.488 1023.91 749.043 1024.84C724.711 1028.97 705.454 1048 700.984 1072.22C699.993 1077.59 695.633 1082 690.175 1082H158.825C153.367 1082 149.007 1077.59 148.016 1072.22C143.546 1048 124.288 1028.97 99.9568 1024.84C94.5121 1023.91 90 1019.52 90 1014V171C90 165.477 94.512 161.089 99.9568 160.163C124.563 155.981 143.981 136.563 148.163 111.957C149.089 106.512 153.477 102 159 102H690Z" fill="#B48FE1"/>
<path d="M252.99 395.93H228.255L224.005 408H213.89L235.055 348.84H246.275L267.44 408H257.24L252.99 395.93ZM250.27 388.025L240.665 360.57L230.975 388.025H250.27ZM287.948 369.07V394.995C287.948 396.752 288.344 398.027 289.138 398.82C289.988 399.557 291.404 399.925 293.388 399.925H299.338V408H291.688C287.324 408 283.981 406.98 281.658 404.94C279.334 402.9 278.173 399.585 278.173 394.995V369.07H272.648V361.165H278.173V349.52H287.948V361.165H299.338V369.07H287.948ZM305.039 384.37C305.039 379.667 306.002 375.502 307.929 371.875C309.912 368.248 312.575 365.443 315.919 363.46C319.319 361.42 323.059 360.4 327.139 360.4C330.822 360.4 334.024 361.137 336.744 362.61C339.52 364.027 341.73 365.812 343.374 367.965V361.165H353.149V408H343.374V401.03C341.73 403.24 339.492 405.082 336.659 406.555C333.825 408.028 330.595 408.765 326.969 408.765C322.945 408.765 319.262 407.745 315.919 405.705C312.575 403.608 309.912 400.718 307.929 397.035C306.002 393.295 305.039 389.073 305.039 384.37ZM343.374 384.54C343.374 381.31 342.694 378.505 341.334 376.125C340.03 373.745 338.302 371.932 336.149 370.685C333.995 369.438 331.672 368.815 329.179 368.815C326.685 368.815 324.362 369.438 322.209 370.685C320.055 371.875 318.299 373.66 316.939 376.04C315.635 378.363 314.984 381.14 314.984 384.37C314.984 387.6 315.635 390.433 316.939 392.87C318.299 395.307 320.055 397.177 322.209 398.48C324.419 399.727 326.742 400.35 329.179 400.35C331.672 400.35 333.995 399.727 336.149 398.48C338.302 397.233 340.03 395.42 341.334 393.04C342.694 390.603 343.374 387.77 343.374 384.54ZM375.566 367.965C376.983 365.585 378.853 363.743 381.176 362.44C383.556 361.08 386.361 360.4 389.591 360.4V370.43H387.126C383.329 370.43 380.439 371.393 378.456 373.32C376.529 375.247 375.566 378.59 375.566 383.35V408H365.876V361.165H375.566V367.965ZM395.268 384.37C395.268 379.667 396.231 375.502 398.158 371.875C400.141 368.248 402.805 365.443 406.148 363.46C409.548 361.42 413.316 360.4 417.453 360.4C420.513 360.4 423.516 361.08 426.463 362.44C429.466 363.743 431.846 365.5 433.603 367.71V345.1H443.378V408H433.603V400.945C432.016 403.212 429.806 405.082 426.973 406.555C424.196 408.028 420.995 408.765 417.368 408.765C413.288 408.765 409.548 407.745 406.148 405.705C402.805 403.608 400.141 400.718 398.158 397.035C396.231 393.295 395.268 389.073 395.268 384.37ZM433.603 384.54C433.603 381.31 432.923 378.505 431.563 376.125C430.26 373.745 428.531 371.932 426.378 370.685C424.225 369.438 421.901 368.815 419.408 368.815C416.915 368.815 414.591 369.438 412.438 370.685C410.285 371.875 408.528 373.66 407.168 376.04C405.865 378.363 405.213 381.14 405.213 384.37C405.213 387.6 405.865 390.433 407.168 392.87C408.528 395.307 410.285 397.177 412.438 398.48C414.648 399.727 416.971 400.35 419.408 400.35C421.901 400.35 424.225 399.727 426.378 398.48C428.531 397.233 430.26 395.42 431.563 393.04C432.923 390.603 433.603 387.77 433.603 384.54ZM499.03 383.435C499.03 385.192 498.917 386.778 498.69 388.195H462.905C463.189 391.935 464.577 394.938 467.07 397.205C469.564 399.472 472.624 400.605 476.25 400.605C481.464 400.605 485.147 398.423 487.3 394.06H497.755C496.339 398.367 493.76 401.908 490.02 404.685C486.337 407.405 481.747 408.765 476.25 408.765C471.774 408.765 467.75 407.773 464.18 405.79C460.667 403.75 457.89 400.917 455.85 397.29C453.867 393.607 452.875 389.357 452.875 384.54C452.875 379.723 453.839 375.502 455.765 371.875C457.749 368.192 460.497 365.358 464.01 363.375C467.58 361.392 471.66 360.4 476.25 360.4C480.67 360.4 484.609 361.363 488.065 363.29C491.522 365.217 494.214 367.937 496.14 371.45C498.067 374.907 499.03 378.902 499.03 383.435ZM488.915 380.375C488.859 376.805 487.584 373.943 485.09 371.79C482.597 369.637 479.509 368.56 475.825 368.56C472.482 368.56 469.62 369.637 467.24 371.79C464.86 373.887 463.444 376.748 462.99 380.375H488.915ZM505.336 384.54C505.336 379.723 506.3 375.502 508.226 371.875C510.21 368.192 512.93 365.358 516.386 363.375C519.843 361.392 523.81 360.4 528.286 360.4C533.953 360.4 538.628 361.76 542.311 364.48C546.051 367.143 548.573 370.968 549.876 375.955H539.421C538.571 373.632 537.211 371.818 535.341 370.515C533.471 369.212 531.12 368.56 528.286 368.56C524.32 368.56 521.146 369.977 518.766 372.81C516.443 375.587 515.281 379.497 515.281 384.54C515.281 389.583 516.443 393.522 518.766 396.355C521.146 399.188 524.32 400.605 528.286 400.605C533.896 400.605 537.608 398.14 539.421 393.21H549.876C548.516 397.97 545.966 401.767 542.226 404.6C538.486 407.377 533.84 408.765 528.286 408.765C523.81 408.765 519.843 407.773 516.386 405.79C512.93 403.75 510.21 400.917 508.226 397.29C506.3 393.607 505.336 389.357 505.336 384.54ZM602.458 383.435C602.458 385.192 602.345 386.778 602.118 388.195H566.333C566.617 391.935 568.005 394.938 570.498 397.205C572.992 399.472 576.052 400.605 579.678 400.605C584.892 400.605 588.575 398.423 590.728 394.06H601.183C599.767 398.367 597.188 401.908 593.448 404.685C589.765 407.405 585.175 408.765 579.678 408.765C575.202 408.765 571.178 407.773 567.608 405.79C564.095 403.75 561.318 400.917 559.278 397.29C557.295 393.607 556.303 389.357 556.303 384.54C556.303 379.723 557.267 375.502 559.193 371.875C561.177 368.192 563.925 365.358 567.438 363.375C571.008 361.392 575.088 360.4 579.678 360.4C584.098 360.4 588.037 361.363 591.493 363.29C594.95 365.217 597.642 367.937 599.568 371.45C601.495 374.907 602.458 378.902 602.458 383.435ZM592.343 380.375C592.287 376.805 591.012 373.943 588.518 371.79C586.025 369.637 582.937 368.56 579.253 368.56C575.91 368.56 573.048 369.637 570.668 371.79C568.288 373.887 566.872 376.748 566.418 380.375H592.343ZM621.684 367.965C623.101 365.585 624.971 363.743 627.294 362.44C629.674 361.08 632.479 360.4 635.709 360.4V370.43H633.244C629.447 370.43 626.557 371.393 624.574 373.32C622.647 375.247 621.684 378.59 621.684 383.35V408H611.994V361.165H621.684V367.965Z" fill="black"/>
<mask id="path-10-outside-2_97_54" maskUnits="userSpaceOnUse" x="402" y="1006" width="46" height="32" fill="black">
<rect fill="white" x="402" y="1006" width="46" height="32"/>
<path d="M421.2 1011.76H407.8V1019.72C408.36 1018.97 409.187 1018.35 410.28 1017.84C411.4 1017.33 412.587 1017.08 413.84 1017.08C416.08 1017.08 417.893 1017.56 419.28 1018.52C420.693 1019.48 421.693 1020.69 422.28 1022.16C422.893 1023.63 423.2 1025.17 423.2 1026.8C423.2 1028.77 422.813 1030.53 422.04 1032.08C421.293 1033.6 420.16 1034.8 418.64 1035.68C417.147 1036.56 415.307 1037 413.12 1037C410.213 1037 407.88 1036.28 406.12 1034.84C404.36 1033.4 403.307 1031.49 402.96 1029.12H407.4C407.693 1030.37 408.347 1031.37 409.36 1032.12C410.373 1032.84 411.64 1033.2 413.16 1033.2C415.053 1033.2 416.467 1032.63 417.4 1031.48C418.36 1030.33 418.84 1028.81 418.84 1026.92C418.84 1025 418.36 1023.53 417.4 1022.52C416.44 1021.48 415.027 1020.96 413.16 1020.96C411.853 1020.96 410.747 1021.29 409.84 1021.96C408.96 1022.6 408.32 1023.48 407.92 1024.6H403.6V1007.76H421.2V1011.76ZM427.867 1015.04C428.027 1012.56 428.974 1010.63 430.707 1009.24C432.467 1007.85 434.707 1007.16 437.427 1007.16C439.294 1007.16 440.907 1007.49 442.267 1008.16C443.627 1008.83 444.654 1009.73 445.347 1010.88C446.04 1012.03 446.387 1013.32 446.387 1014.76C446.387 1016.41 445.947 1017.83 445.067 1019C444.187 1020.17 443.134 1020.96 441.907 1021.36V1021.52C443.48 1022 444.707 1022.88 445.587 1024.16C446.467 1025.41 446.907 1027.03 446.907 1029C446.907 1030.57 446.547 1031.97 445.827 1033.2C445.107 1034.43 444.04 1035.4 442.627 1036.12C441.214 1036.81 439.52 1037.16 437.547 1037.16C434.667 1037.16 432.294 1036.43 430.427 1034.96C428.587 1033.47 427.6 1031.33 427.467 1028.56H431.867C431.974 1029.97 432.52 1031.13 433.507 1032.04C434.494 1032.92 435.827 1033.36 437.507 1033.36C439.134 1033.36 440.387 1032.92 441.267 1032.04C442.147 1031.13 442.587 1029.97 442.587 1028.56C442.587 1026.69 441.987 1025.37 440.787 1024.6C439.614 1023.8 437.8 1023.4 435.347 1023.4H434.307V1019.64H435.387C437.547 1019.61 439.187 1019.25 440.307 1018.56C441.454 1017.87 442.027 1016.77 442.027 1015.28C442.027 1014 441.614 1012.99 440.787 1012.24C439.96 1011.47 438.787 1011.08 437.267 1011.08C435.774 1011.08 434.614 1011.47 433.787 1012.24C432.96 1012.99 432.467 1013.92 432.307 1015.04H427.867Z"/>
</mask>
<path d="M421.2 1011.76H407.8V1019.72C408.36 1018.97 409.187 1018.35 410.28 1017.84C411.4 1017.33 412.587 1017.08 413.84 1017.08C416.08 1017.08 417.893 1017.56 419.28 1018.52C420.693 1019.48 421.693 1020.69 422.28 1022.16C422.893 1023.63 423.2 1025.17 423.2 1026.8C423.2 1028.77 422.813 1030.53 422.04 1032.08C421.293 1033.6 420.16 1034.8 418.64 1035.68C417.147 1036.56 415.307 1037 413.12 1037C410.213 1037 407.88 1036.28 406.12 1034.84C404.36 1033.4 403.307 1031.49 402.96 1029.12H407.4C407.693 1030.37 408.347 1031.37 409.36 1032.12C410.373 1032.84 411.64 1033.2 413.16 1033.2C415.053 1033.2 416.467 1032.63 417.4 1031.48C418.36 1030.33 418.84 1028.81 418.84 1026.92C418.84 1025 418.36 1023.53 417.4 1022.52C416.44 1021.48 415.027 1020.96 413.16 1020.96C411.853 1020.96 410.747 1021.29 409.84 1021.96C408.96 1022.6 408.32 1023.48 407.92 1024.6H403.6V1007.76H421.2V1011.76ZM427.867 1015.04C428.027 1012.56 428.974 1010.63 430.707 1009.24C432.467 1007.85 434.707 1007.16 437.427 1007.16C439.294 1007.16 440.907 1007.49 442.267 1008.16C443.627 1008.83 444.654 1009.73 445.347 1010.88C446.04 1012.03 446.387 1013.32 446.387 1014.76C446.387 1016.41 445.947 1017.83 445.067 1019C444.187 1020.17 443.134 1020.96 441.907 1021.36V1021.52C443.48 1022 444.707 1022.88 445.587 1024.16C446.467 1025.41 446.907 1027.03 446.907 1029C446.907 1030.57 446.547 1031.97 445.827 1033.2C445.107 1034.43 444.04 1035.4 442.627 1036.12C441.214 1036.81 439.52 1037.16 437.547 1037.16C434.667 1037.16 432.294 1036.43 430.427 1034.96C428.587 1033.47 427.6 1031.33 427.467 1028.56H431.867C431.974 1029.97 432.52 1031.13 433.507 1032.04C434.494 1032.92 435.827 1033.36 437.507 1033.36C439.134 1033.36 440.387 1032.92 441.267 1032.04C442.147 1031.13 442.587 1029.97 442.587 1028.56C442.587 1026.69 441.987 1025.37 440.787 1024.6C439.614 1023.8 437.8 1023.4 435.347 1023.4H434.307V1019.64H435.387C437.547 1019.61 439.187 1019.25 440.307 1018.56C441.454 1017.87 442.027 1016.77 442.027 1015.28C442.027 1014 441.614 1012.99 440.787 1012.24C439.96 1011.47 438.787 1011.08 437.267 1011.08C435.774 1011.08 434.614 1011.47 433.787 1012.24C432.96 1012.99 432.467 1013.92 432.307 1015.04H427.867Z" fill="black"/>
<path d="M421.2 1011.76V1012.06H421.5V1011.76H421.2ZM407.8 1011.76V1011.46H407.5V1011.76H407.8ZM407.8 1019.72H407.5V1020.62L408.04 1019.9L407.8 1019.72ZM410.28 1017.84L410.156 1017.57L410.154 1017.57L410.28 1017.84ZM419.28 1018.52L419.109 1018.77L419.111 1018.77L419.28 1018.52ZM422.28 1022.16L422.001 1022.27L422.003 1022.28L422.28 1022.16ZM422.04 1032.08L421.772 1031.95L421.771 1031.95L422.04 1032.08ZM418.64 1035.68L418.49 1035.42L418.488 1035.42L418.64 1035.68ZM406.12 1034.84L406.31 1034.61L406.12 1034.84ZM402.96 1029.12V1028.82H402.613L402.663 1029.16L402.96 1029.12ZM407.4 1029.12L407.692 1029.05L407.638 1028.82H407.4V1029.12ZM409.36 1032.12L409.182 1032.36L409.186 1032.36L409.36 1032.12ZM417.4 1031.48L417.17 1031.29L417.167 1031.29L417.4 1031.48ZM417.4 1022.52L417.18 1022.72L417.182 1022.73L417.4 1022.52ZM409.84 1021.96L410.016 1022.2L410.018 1022.2L409.84 1021.96ZM407.92 1024.6V1024.9H408.131L408.203 1024.7L407.92 1024.6ZM403.6 1024.6H403.3V1024.9H403.6V1024.6ZM403.6 1007.76V1007.46H403.3V1007.76H403.6ZM421.2 1007.76H421.5V1007.46H421.2V1007.76ZM421.2 1011.76V1011.46H407.8V1011.76V1012.06H421.2V1011.76ZM407.8 1011.76H407.5V1019.72H407.8H408.1V1011.76H407.8ZM407.8 1019.72L408.04 1019.9C408.563 1019.2 409.345 1018.6 410.406 1018.11L410.28 1017.84L410.154 1017.57C409.028 1018.09 408.157 1018.74 407.56 1019.54L407.8 1019.72ZM410.28 1017.84L410.404 1018.11C411.484 1017.62 412.628 1017.38 413.84 1017.38V1017.08V1016.78C412.545 1016.78 411.316 1017.04 410.156 1017.57L410.28 1017.84ZM413.84 1017.08V1017.38C416.039 1017.38 417.787 1017.85 419.109 1018.77L419.28 1018.52L419.451 1018.27C418 1017.27 416.121 1016.78 413.84 1016.78V1017.08ZM419.28 1018.52L419.111 1018.77C420.48 1019.7 421.439 1020.86 422.001 1022.27L422.28 1022.16L422.559 1022.05C421.948 1020.52 420.907 1019.26 419.449 1018.27L419.28 1018.52ZM422.28 1022.16L422.003 1022.28C422.601 1023.7 422.9 1025.21 422.9 1026.8H423.2H423.5C423.5 1025.13 423.186 1023.55 422.557 1022.04L422.28 1022.16ZM423.2 1026.8H422.9C422.9 1028.73 422.521 1030.45 421.772 1031.95L422.04 1032.08L422.308 1032.21C423.105 1030.62 423.5 1028.81 423.5 1026.8H423.2ZM422.04 1032.08L421.771 1031.95C421.051 1033.41 419.96 1034.57 418.49 1035.42L418.64 1035.68L418.79 1035.94C420.36 1035.03 421.535 1033.79 422.309 1032.21L422.04 1032.08ZM418.64 1035.68L418.488 1035.42C417.051 1036.27 415.267 1036.7 413.12 1036.7V1037V1037.3C415.346 1037.3 417.242 1036.85 418.792 1035.94L418.64 1035.68ZM413.12 1037V1036.7C410.263 1036.7 408.003 1035.99 406.31 1034.61L406.12 1034.84L405.93 1035.07C407.757 1036.57 410.164 1037.3 413.12 1037.3V1037ZM406.12 1034.84L406.31 1034.61C404.611 1033.22 403.593 1031.38 403.257 1029.08L402.96 1029.12L402.663 1029.16C403.02 1031.61 404.109 1033.58 405.93 1035.07L406.12 1034.84ZM402.96 1029.12V1029.42H407.4V1029.12V1028.82H402.96V1029.12ZM407.4 1029.12L407.108 1029.19C407.417 1030.51 408.11 1031.57 409.182 1032.36L409.36 1032.12L409.538 1031.88C408.583 1031.18 407.97 1030.24 407.692 1029.05L407.4 1029.12ZM409.36 1032.12L409.186 1032.36C410.261 1033.13 411.592 1033.5 413.16 1033.5V1033.2V1032.9C411.688 1032.9 410.486 1032.55 409.534 1031.88L409.36 1032.12ZM413.16 1033.2V1033.5C415.116 1033.5 416.627 1032.9 417.633 1031.67L417.4 1031.48L417.167 1031.29C416.306 1032.35 414.991 1032.9 413.16 1032.9V1033.2ZM417.4 1031.48L417.63 1031.67C418.646 1030.46 419.14 1028.86 419.14 1026.92H418.84H418.54C418.54 1028.76 418.074 1030.21 417.17 1031.29L417.4 1031.48ZM418.84 1026.92H419.14C419.14 1024.95 418.648 1023.4 417.618 1022.31L417.4 1022.52L417.182 1022.73C418.072 1023.67 418.54 1025.05 418.54 1026.92H418.84ZM417.4 1022.52L417.62 1022.32C416.587 1021.2 415.082 1020.66 413.16 1020.66V1020.96V1021.26C414.971 1021.26 416.293 1021.76 417.18 1022.72L417.4 1022.52ZM413.16 1020.96V1020.66C411.8 1020.66 410.628 1021.01 409.662 1021.72L409.84 1021.96L410.018 1022.2C410.865 1021.58 411.907 1021.26 413.16 1021.26V1020.96ZM409.84 1021.96L409.664 1021.72C408.73 1022.4 408.056 1023.33 407.637 1024.5L407.92 1024.6L408.203 1024.7C408.584 1023.63 409.19 1022.8 410.016 1022.2L409.84 1021.96ZM407.92 1024.6V1024.3H403.6V1024.6V1024.9H407.92V1024.6ZM403.6 1024.6H403.9V1007.76H403.6H403.3V1024.6H403.6ZM403.6 1007.76V1008.06H421.2V1007.76V1007.46H403.6V1007.76ZM421.2 1007.76H420.9V1011.76H421.2H421.5V1007.76H421.2ZM427.867 1015.04L427.567 1015.02L427.547 1015.34H427.867V1015.04ZM430.707 1009.24L430.521 1009L430.519 1009.01L430.707 1009.24ZM442.267 1008.16L442.135 1008.43L442.267 1008.16ZM445.347 1010.88L445.604 1010.72L445.347 1010.88ZM445.067 1019L445.307 1019.18V1019.18L445.067 1019ZM441.907 1021.36L441.814 1021.07L441.607 1021.14V1021.36H441.907ZM441.907 1021.52H441.607V1021.74L441.819 1021.81L441.907 1021.52ZM445.587 1024.16L445.34 1024.33L445.341 1024.33L445.587 1024.16ZM445.827 1033.2L445.568 1033.05L445.827 1033.2ZM442.627 1036.12L442.759 1036.39L442.763 1036.39L442.627 1036.12ZM430.427 1034.96L430.238 1035.19L430.242 1035.2L430.427 1034.96ZM427.467 1028.56V1028.26H427.152L427.167 1028.57L427.467 1028.56ZM431.867 1028.56L432.166 1028.54L432.145 1028.26H431.867V1028.56ZM433.507 1032.04L433.304 1032.26L433.307 1032.26L433.507 1032.04ZM441.267 1032.04L441.479 1032.25L441.482 1032.25L441.267 1032.04ZM440.787 1024.6L440.618 1024.85L440.624 1024.85L440.787 1024.6ZM434.307 1023.4H434.007V1023.7H434.307V1023.4ZM434.307 1019.64V1019.34H434.007V1019.64H434.307ZM435.387 1019.64V1019.94L435.391 1019.94L435.387 1019.64ZM440.307 1018.56L440.152 1018.3L440.149 1018.3L440.307 1018.56ZM440.787 1012.24L440.582 1012.46L440.586 1012.46L440.787 1012.24ZM433.787 1012.24L433.988 1012.46L433.992 1012.46L433.787 1012.24ZM432.307 1015.04V1015.34H432.567L432.604 1015.08L432.307 1015.04ZM427.867 1015.04L428.166 1015.06C428.322 1012.65 429.235 1010.8 430.894 1009.47L430.707 1009.24L430.519 1009.01C428.712 1010.45 427.732 1012.47 427.567 1015.02L427.867 1015.04ZM430.707 1009.24L430.893 1009.48C432.589 1008.14 434.759 1007.46 437.427 1007.46V1007.16V1006.86C434.654 1006.86 432.345 1007.57 430.521 1009L430.707 1009.24ZM437.427 1007.16V1007.46C439.258 1007.46 440.824 1007.79 442.135 1008.43L442.267 1008.16L442.399 1007.89C440.989 1007.2 439.329 1006.86 437.427 1006.86V1007.16ZM442.267 1008.16L442.135 1008.43C443.45 1009.07 444.43 1009.94 445.09 1011.04L445.347 1010.88L445.604 1010.72C444.877 1009.52 443.804 1008.58 442.399 1007.89L442.267 1008.16ZM445.347 1010.88L445.09 1011.04C445.753 1012.13 446.087 1013.37 446.087 1014.76H446.387H446.687C446.687 1013.27 446.327 1011.92 445.604 1010.72L445.347 1010.88ZM446.387 1014.76H446.087C446.087 1016.36 445.663 1017.71 444.827 1018.82L445.067 1019L445.307 1019.18C446.231 1017.95 446.687 1016.47 446.687 1014.76H446.387ZM445.067 1019L444.827 1018.82C443.979 1019.95 442.974 1020.7 441.814 1021.07L441.907 1021.36L442 1021.65C443.293 1021.22 444.395 1020.4 445.307 1019.18L445.067 1019ZM441.907 1021.36H441.607V1021.52H441.907H442.207V1021.36H441.907ZM441.907 1021.52L441.819 1021.81C443.332 1022.27 444.5 1023.11 445.34 1024.33L445.587 1024.16L445.834 1023.99C444.913 1022.65 443.629 1021.73 441.994 1021.23L441.907 1021.52ZM445.587 1024.16L445.341 1024.33C446.177 1025.52 446.607 1027.07 446.607 1029H446.907H447.207C447.207 1026.98 446.757 1025.3 445.832 1023.99L445.587 1024.16ZM446.907 1029H446.607C446.607 1030.53 446.258 1031.87 445.568 1033.05L445.827 1033.2L446.086 1033.35C446.835 1032.07 447.207 1030.62 447.207 1029H446.907ZM445.827 1033.2L445.568 1033.05C444.88 1034.22 443.859 1035.16 442.491 1035.85L442.627 1036.12L442.763 1036.39C444.221 1035.64 445.333 1034.63 446.086 1033.35L445.827 1033.2ZM442.627 1036.12L442.495 1035.85C441.132 1036.52 439.486 1036.86 437.547 1036.86V1037.16V1037.46C439.555 1037.46 441.295 1037.11 442.759 1036.39L442.627 1036.12ZM437.547 1037.16V1036.86C434.719 1036.86 432.415 1036.14 430.612 1034.72L430.427 1034.96L430.242 1035.2C432.172 1036.71 434.614 1037.46 437.547 1037.46V1037.16ZM430.427 1034.96L430.616 1034.73C428.854 1033.3 427.897 1031.25 427.767 1028.55L427.467 1028.56L427.167 1028.57C427.304 1031.42 428.32 1033.64 430.238 1035.19L430.427 1034.96ZM427.467 1028.56V1028.86H431.867V1028.56V1028.26H427.467V1028.56ZM431.867 1028.56L431.568 1028.58C431.68 1030.07 432.258 1031.3 433.304 1032.26L433.507 1032.04L433.71 1031.82C432.783 1030.97 432.267 1029.88 432.166 1028.54L431.867 1028.56ZM433.507 1032.04L433.307 1032.26C434.362 1033.21 435.774 1033.66 437.507 1033.66V1033.36V1033.06C435.88 1033.06 434.625 1032.63 433.707 1031.82L433.507 1032.04ZM437.507 1033.36V1033.66C439.188 1033.66 440.527 1033.2 441.479 1032.25L441.267 1032.04L441.055 1031.83C440.247 1032.64 439.079 1033.06 437.507 1033.06V1033.36ZM441.267 1032.04L441.482 1032.25C442.423 1031.28 442.887 1030.04 442.887 1028.56H442.587H442.287C442.287 1029.91 441.871 1030.99 441.052 1031.83L441.267 1032.04ZM442.587 1028.56H442.887C442.887 1026.63 442.261 1025.19 440.949 1024.35L440.787 1024.6L440.624 1024.85C441.713 1025.55 442.287 1026.76 442.287 1028.56H442.587ZM440.787 1024.6L440.956 1024.35C439.708 1023.5 437.822 1023.1 435.347 1023.1V1023.4V1023.7C437.779 1023.7 439.519 1024.1 440.618 1024.85L440.787 1024.6ZM435.347 1023.4V1023.1H434.307V1023.4V1023.7H435.347V1023.4ZM434.307 1023.4H434.607V1019.64H434.307H434.007V1023.4H434.307ZM434.307 1019.64V1019.94H435.387V1019.64V1019.34H434.307V1019.64ZM435.387 1019.64L435.391 1019.94C437.574 1019.91 439.278 1019.55 440.465 1018.82L440.307 1018.56L440.149 1018.3C439.096 1018.96 437.52 1019.31 435.383 1019.34L435.387 1019.64ZM440.307 1018.56L440.462 1018.82C441.71 1018.06 442.327 1016.86 442.327 1015.28H442.027H441.727C441.727 1016.68 441.197 1017.67 440.152 1018.3L440.307 1018.56ZM442.027 1015.28H442.327C442.327 1013.93 441.887 1012.83 440.988 1012.02L440.787 1012.24L440.586 1012.46C441.34 1013.14 441.727 1014.07 441.727 1015.28H442.027ZM440.787 1012.24L440.992 1012.02C440.093 1011.18 438.836 1010.78 437.267 1010.78V1011.08V1011.38C438.737 1011.38 439.828 1011.75 440.582 1012.46L440.787 1012.24ZM437.267 1011.08V1010.78C435.722 1010.78 434.48 1011.18 433.582 1012.02L433.787 1012.24L433.992 1012.46C434.747 1011.75 435.825 1011.38 437.267 1011.38V1011.08ZM433.787 1012.24L433.586 1012.02C432.706 1012.81 432.18 1013.81 432.01 1015L432.307 1015.04L432.604 1015.08C432.754 1014.03 433.214 1013.16 433.988 1012.46L433.787 1012.24ZM432.307 1015.04V1014.74H427.867V1015.04V1015.34H432.307V1015.04Z" fill="black" mask="url(#path-10-outside-2_97_54)"/>
<path d="M269.81 272.735C261.2 272.735 254.13 270.705 248.6 266.645C243.07 262.515 240.095 256.635 239.675 249.005H261.62C261.83 251.595 262.6 253.485 263.93 254.675C265.26 255.865 266.975 256.46 269.075 256.46C270.965 256.46 272.505 256.005 273.695 255.095C274.955 254.115 275.585 252.785 275.585 251.105C275.585 248.935 274.57 247.255 272.54 246.065C270.51 244.875 267.22 243.545 262.67 242.075C257.84 240.465 253.92 238.925 250.91 237.455C247.97 235.915 245.38 233.71 243.14 230.84C240.97 227.9 239.885 224.085 239.885 219.395C239.885 214.635 241.075 210.575 243.455 207.215C245.835 203.785 249.125 201.195 253.325 199.445C257.525 197.695 262.285 196.82 267.605 196.82C276.215 196.82 283.075 198.85 288.185 202.91C293.365 206.9 296.13 212.535 296.48 219.815H274.115C274.045 217.575 273.345 215.895 272.015 214.775C270.755 213.655 269.11 213.095 267.08 213.095C265.54 213.095 264.28 213.55 263.3 214.46C262.32 215.37 261.83 216.665 261.83 218.345C261.83 219.745 262.355 220.97 263.405 222.02C264.525 223 265.89 223.875 267.5 224.645C269.11 225.345 271.49 226.255 274.64 227.375C279.33 228.985 283.18 230.595 286.19 232.205C289.27 233.745 291.895 235.95 294.065 238.82C296.305 241.62 297.425 245.19 297.425 249.53C297.425 253.94 296.305 257.895 294.065 261.395C291.895 264.895 288.71 267.66 284.51 269.69C280.38 271.72 275.48 272.735 269.81 272.735ZM367.262 213.095V272H346.577V263.6C344.827 266.26 342.412 268.43 339.332 270.11C336.252 271.72 332.717 272.525 328.727 272.525C321.867 272.525 316.442 270.285 312.452 265.805C308.532 261.255 306.572 255.095 306.572 247.325V213.095H327.047V244.7C327.047 248.06 327.922 250.72 329.672 252.68C331.492 254.57 333.872 255.515 336.812 255.515C339.822 255.515 342.202 254.57 343.952 252.68C345.702 250.72 346.577 248.06 346.577 244.7V213.095H367.262ZM417.51 212.57C424.3 212.57 429.69 214.845 433.68 219.395C437.67 223.875 439.665 229.965 439.665 237.665V272H419.085V240.395C419.085 237.035 418.21 234.41 416.46 232.52C414.71 230.56 412.365 229.58 409.425 229.58C406.345 229.58 403.93 230.56 402.18 232.52C400.43 234.41 399.555 237.035 399.555 240.395V272H378.975V213.095H399.555V221.495C401.375 218.835 403.825 216.7 406.905 215.09C409.985 213.41 413.52 212.57 417.51 212.57ZM476.052 272.735C470.732 272.735 465.972 271.86 461.772 270.11C457.642 268.29 454.352 265.84 451.902 262.76C449.522 259.61 448.192 256.075 447.912 252.155H467.862C468.142 254.045 469.017 255.515 470.487 256.565C471.957 257.615 473.777 258.14 475.947 258.14C477.627 258.14 478.957 257.79 479.937 257.09C480.917 256.39 481.407 255.48 481.407 254.36C481.407 252.89 480.602 251.805 478.992 251.105C477.382 250.405 474.722 249.635 471.012 248.795C466.812 247.955 463.312 247.01 460.512 245.96C457.712 244.91 455.262 243.195 453.162 240.815C451.132 238.435 450.117 235.215 450.117 231.155C450.117 227.655 451.062 224.505 452.952 221.705C454.842 218.835 457.607 216.56 461.247 214.88C464.957 213.2 469.402 212.36 474.582 212.36C482.282 212.36 488.337 214.25 492.747 218.03C497.157 221.81 499.712 226.78 500.412 232.94H481.827C481.477 231.05 480.637 229.615 479.307 228.635C478.047 227.585 476.332 227.06 474.162 227.06C472.482 227.06 471.187 227.375 470.277 228.005C469.437 228.635 469.017 229.51 469.017 230.63C469.017 232.03 469.822 233.115 471.432 233.885C473.042 234.585 475.632 235.32 479.202 236.09C483.472 237 487.007 238.015 489.807 239.135C492.677 240.255 495.162 242.075 497.262 244.595C499.432 247.045 500.517 250.405 500.517 254.675C500.517 258.105 499.502 261.185 497.472 263.915C495.512 266.645 492.677 268.815 488.967 270.425C485.327 271.965 481.022 272.735 476.052 272.735ZM566.915 241.865C566.915 243.475 566.81 245.085 566.6 246.695H527.645C527.855 249.915 528.73 252.33 530.27 253.94C531.88 255.48 533.91 256.25 536.36 256.25C539.79 256.25 542.24 254.71 543.71 251.63H565.655C564.745 255.69 562.96 259.33 560.3 262.55C557.71 265.7 554.42 268.185 550.43 270.005C546.44 271.825 542.03 272.735 537.2 272.735C531.39 272.735 526.21 271.51 521.66 269.06C517.18 266.61 513.645 263.11 511.055 258.56C508.535 254.01 507.275 248.655 507.275 242.495C507.275 236.335 508.535 231.015 511.055 226.535C513.575 221.985 517.075 218.485 521.555 216.035C526.105 213.585 531.32 212.36 537.2 212.36C543.01 212.36 548.155 213.55 552.635 215.93C557.115 218.31 560.615 221.74 563.135 226.22C565.655 230.63 566.915 235.845 566.915 241.865ZM545.915 236.72C545.915 234.2 545.075 232.24 543.395 230.84C541.715 229.37 539.615 228.635 537.095 228.635C534.575 228.635 532.51 229.335 530.9 230.735C529.29 232.065 528.24 234.06 527.75 236.72H545.915ZM610.092 254.465V272H601.167C586.117 272 578.592 264.545 578.592 249.635V230.21H571.347V213.095H578.592V198.815H599.277V213.095H609.987V230.21H599.277V249.95C599.277 251.56 599.627 252.715 600.327 253.415C601.097 254.115 602.357 254.465 604.107 254.465H610.092Z" fill="black"/>
<path d="M370.134 442.134L522.543 442.144L567.898 442.172C576.633 442.165 585.768 441.593 594.437 442.575C601.779 443.374 608.858 445.762 615.181 449.574C626.224 456.511 634.131 467.471 637.237 480.135C639.363 489.168 638.604 499.027 638.595 508.246L638.524 543.017L638.156 665.91L637.722 842.611L637.49 900.571C637.456 911.684 637.996 923.08 637.131 934.139C636.325 944.446 633.186 955.112 627.699 963.922C621.358 974.103 611.938 981.588 600.144 984.279C596.8 985.009 593.398 985.44 589.977 985.566C583.121 985.853 576.191 985.684 569.327 985.714L532.119 985.862L499.294 985.942C493.672 985.95 487.914 986.203 482.307 985.9C481.625 985.866 481.155 985.744 480.571 985.376C479.635 985.95 478.73 985.912 477.671 985.921L321.96 985.95H277.486C269.379 985.95 260.411 986.71 252.445 985.338C242.849 983.685 233.292 979.086 226.344 972.229C215.633 961.665 211.102 944.134 211 929.489L211.7 622.062L211.992 529.778L212.002 501.921C212.005 495.598 211.677 489.059 212.57 482.789C213.947 473.11 219.266 463.433 226.103 456.533C232.791 449.784 241.408 445.459 250.644 443.441C257.579 441.925 264.63 442.264 271.682 442.273L293.194 442.298L370.134 442.134Z" fill="black"/>
<path d="M259.022 455.394C260.832 455.152 262.819 455.23 264.645 455.219L490.79 455.21L558.888 455.211L579.349 455.189C584.116 455.186 589 454.983 593.734 455.606C601.615 456.602 608.947 460.17 614.591 465.757C619.993 471.157 624.033 478.626 625.14 486.234C625.799 490.762 625.448 495.511 625.459 500.078C625.475 506.537 625.655 512.987 625.62 519.45L625.476 578.161L625.166 798.07L514.566 798.08C526.607 773.963 528.817 749.066 520.641 723.335C519.01 718.467 517.036 713.721 514.735 709.132C502.5 684.861 480.204 666.773 454.508 658.368C428.56 650.061 400.391 652.236 376.026 664.426C350.654 677.291 332.138 698.669 323.36 725.746C315.187 750.953 317.288 774.471 329.31 798.031L223.835 798.076C223.674 790.751 223.89 783.375 223.927 776.045L224.026 737.278L224.587 594.221L224.733 522.549L224.917 501.806C224.94 496.869 224.687 491.758 225.263 486.851C226.059 480.129 228.795 473.785 233.138 468.592C239.803 460.533 248.746 456.366 259.022 455.394Z" fill="#FF8448"/>
<path d="M313.715 500.016C319.099 499.513 325.304 501.137 330.007 503.709C337.663 507.897 342.578 514.255 344.974 522.565C345.427 522.504 345.87 522.459 346.328 522.442C353.803 522.154 361.761 524.388 367.275 529.619C372.196 534.287 374.917 541.218 375.059 547.948C375.196 554.473 372.789 560.428 368.267 565.125C358.822 574.938 346.025 574.924 333.455 575.029L317.577 575.281C309.674 575.562 301.676 575.612 293.773 575.344C282.225 574.952 270.341 573.421 262.043 564.413C257.697 559.719 255.446 553.46 255.807 547.074C256.122 540.896 258.836 534.721 263.486 530.583C268.827 525.831 274.995 524.632 281.906 524.982C283.516 520.226 285.946 515.587 289.145 511.705C295.497 503.995 304.072 500.926 313.715 500.016Z" fill="black"/>
<path d="M312.25 512.33C312.859 512.259 313.502 512.258 314.115 512.25C322.152 512.142 329.679 516.781 332.431 524.478C333.413 527.226 333.517 532.237 335.777 534.209C338.13 536.261 344.427 534.509 347.323 534.442C351.74 534.34 356.65 535.601 359.887 538.751C362.579 541.372 363.868 545.274 363.883 548.976C363.898 552.682 362.629 555.906 359.983 558.53C353.306 565.147 342.216 564.449 333.521 564.456L319.464 564.446L302.367 564.476C293.195 564.486 281.276 565.413 273.37 559.858C270.274 557.683 268.106 554.418 267.505 550.661C266.925 547.037 267.314 543.126 269.552 540.1C274.847 532.936 280.216 538.22 286.66 537.161C291.674 536.338 292.136 530.862 293.656 527.01C294.557 524.769 295.745 522.655 297.191 520.72C300.933 515.703 306.134 513.178 312.25 512.33Z" fill="#FE9600"/>
<path d="M527.807 533.233C532.963 532.905 538.017 533.76 542.691 536.006C550.955 539.978 555.885 546.937 558.875 555.356C560.407 555.18 561.947 555.064 563.488 555.009C568.614 554.836 573.596 556.723 577.319 560.25C581.725 564.465 583.373 570.179 583.517 576.13C583.67 582.482 582.072 588.392 577.557 593.033C569.9 600.903 558.611 600.824 548.457 600.984L533.113 601.155C529.646 601.152 526.179 601.199 522.714 601.298C509.558 601.599 493.33 602.687 483.198 592.865C478.875 588.675 476.554 583.393 476.536 577.364C476.519 571.674 478.623 566.299 482.715 562.302C487.619 557.511 494.071 555.552 500.807 555.597C502.316 551.461 504.201 547.604 506.975 544.156C512.325 537.503 519.426 534.147 527.807 533.233Z" fill="black"/>
<path d="M489.169 571.107C490.739 568.966 492.33 567.443 495.075 567.051C499.264 566.453 505.414 569.713 508.533 565.638C510.096 563.598 510.483 560.467 511.312 558.066C513.464 551.837 519.173 545.948 525.854 544.793C530.963 543.909 536.094 544.89 540.276 548.027C549.704 555.099 546.692 563.115 549.996 567.023C550.967 568.171 553.054 568.215 554.435 568.024C559.656 567.303 564.56 564.544 569.469 568.095C571.63 569.658 572.995 571.937 573.393 574.563C573.566 575.708 573.52 576.936 573.462 578.09C573.22 579.862 572.879 581.555 572.068 583.165C570.705 585.871 568.272 588.117 565.365 589.062C562.784 589.901 560.064 590.33 557.365 590.543C549.919 591.133 542.174 590.795 534.687 590.886C524.28 591.011 512.315 591.672 502.076 590.597C499.577 590.334 497.311 589.925 495.07 588.738C491.754 586.98 489.225 584.083 488.15 580.467C487.15 577.106 487.51 574.154 489.169 571.107Z" fill="#FE9600"/>
<path d="M489.169 571.107C489.231 571.149 489.296 571.188 489.357 571.232C491.872 573.05 492.665 579.884 497.081 582.805C499.715 584.548 503.719 585.205 506.802 585.497C512.413 586.027 518.532 585.374 524.205 585.343C534.263 585.286 545.373 585.981 555.304 584.674C560.102 584.043 563.913 582.614 568.202 580.472C569.829 579.66 571.682 578.442 573.462 578.09C573.22 579.863 572.879 581.555 572.068 583.166C570.705 585.871 568.272 588.118 565.365 589.062C562.784 589.901 560.064 590.33 557.365 590.544C549.919 591.134 542.174 590.795 534.687 590.886C524.28 591.012 512.315 591.672 502.076 590.597C499.577 590.335 497.311 589.925 495.07 588.738C491.754 586.98 489.225 584.084 488.15 580.468C487.15 577.107 487.51 574.155 489.169 571.107Z" fill="#FF8448"/>
<path d="M423.785 556.236C424.579 556.202 425.466 556.124 426.249 556.276C427.887 556.596 429.254 557.466 430.177 558.862C431.239 560.468 431.239 562.903 431.333 564.773C431.64 570.918 431.41 577.195 431.384 583.352L431.133 616.821C431.078 621.841 431.633 634.469 430.673 638.595C430.138 640.9 428.514 642.037 426.611 643.148C425.662 643.282 424.617 643.389 423.675 643.173C422.137 642.821 420.812 641.908 420.007 640.546C419.238 639.244 419.145 637.887 419.059 636.418C418.743 631.014 418.952 625.487 418.951 620.067C418.928 609.245 418.98 598.422 419.108 587.6C419.143 582.537 418.451 564.461 419.604 560.668C420.314 558.335 421.763 557.323 423.785 556.236Z" fill="black"/>
<path d="M306.363 601.815C307.466 601.745 308.584 601.748 309.647 602.095C310.853 602.488 311.743 603.164 312.591 604.084C315.53 607.275 318.071 610.966 320.708 614.408L335.086 633.261L345.47 647.006C347.527 649.739 349.973 652.563 351.54 655.606C352.201 656.892 352.299 658.658 351.806 660.017C351.071 662.039 349.614 663.04 347.8 663.962C346.549 664.102 345.283 664.226 344.065 663.81C343.009 663.45 342.253 662.814 341.516 662.005C338.953 659.19 336.724 655.978 334.416 652.946L322.86 637.773L310.41 621.437C307.633 617.788 304.298 614.02 302.33 609.863C301.716 608.563 301.712 607.071 302.235 605.735C303.028 603.713 304.506 602.707 306.363 601.815Z" fill="black"/>
<path d="M533.591 623.64C534.811 623.52 535.931 623.424 537.1 623.909C538.622 624.54 540.002 625.819 540.607 627.361C541.205 628.887 541.042 630.659 540.38 632.14C539.028 635.161 511.439 665.745 507.551 669.433C506.72 670.221 505.943 670.709 504.869 671.114C503.902 671.199 502.884 671.292 501.935 671.032C500.396 670.612 498.838 669.251 498.103 667.85C497.292 666.306 497.324 664.526 497.919 662.912C498.809 660.501 526.609 629.506 530.491 625.748C531.434 624.836 532.423 624.225 533.591 623.64Z" fill="black"/>
<path d="M282.493 662.266C283.505 662.346 284.438 662.669 285.343 663.119C291.244 666.048 296.931 670.152 302.557 673.611C308.312 677.15 315.998 681.114 321.106 685.398C322.198 686.315 323.115 687.536 323.522 688.917C323.983 690.485 323.818 692.116 322.959 693.523C321.842 695.355 320.265 696.124 318.259 696.638C317.025 696.503 316.001 696.169 314.903 695.61C308.554 692.383 302.495 688.025 296.424 684.273C290.96 680.895 283.924 677.295 279.069 673.284C278.038 672.448 277.287 671.316 276.918 670.041C276.49 668.606 276.688 667.139 277.406 665.832C278.554 663.74 280.272 662.88 282.493 662.266Z" fill="black"/>
<path d="M574.098 727.851C576.39 727.633 578.684 727.524 580.726 728.803C582.045 729.63 582.944 731.519 583.231 733.026C583.527 734.585 582.839 736.373 581.89 737.607C581.167 738.547 580.315 739.139 579.181 739.488C575.321 740.677 570.792 740.762 566.774 741.221L545.375 743.666C543.308 743.955 541.044 743.95 539.221 742.785C537.829 741.895 536.919 740.324 536.649 738.711C536.368 737.032 536.752 735.21 537.788 733.844C538.514 732.887 539.478 732.258 540.615 731.895C544.657 730.604 549.388 730.494 553.61 730.04L574.098 727.851Z" fill="black"/>
<path d="M266.53 715.108C269.923 714.841 299.646 720.432 303.764 721.726C305.322 722.215 306.375 722.782 307.138 724.313C307.92 725.882 308.187 727.889 307.555 729.549C306.735 731.699 304.878 732.783 302.871 733.608C298.768 733.928 271.146 728.472 266.623 727.138C264.651 726.556 263.155 725.625 262.162 723.761C261.399 722.329 261.284 720.861 261.817 719.329C262.618 717.023 264.459 716.06 266.53 715.108Z" fill="black"/>
<path d="M299.884 760.746C301.068 760.692 302.412 761.076 303.424 761.672C304.731 762.443 305.718 763.586 306.083 765.077C306.518 766.852 306.144 768.824 305.112 770.33C304.467 771.271 303.681 771.934 302.625 772.353C299.17 773.726 294.893 774.246 291.249 775.026C283.778 776.674 276.288 778.232 268.781 779.699C266.67 779.578 265.237 778.982 263.45 777.882C262.733 776.715 262.082 775.501 261.9 774.12C261.691 772.529 262.029 771.174 263.01 769.897C263.881 768.762 265.143 768.226 266.453 767.759C270.635 766.269 275.466 765.677 279.818 764.763C286.452 763.37 293.17 761.659 299.884 760.746Z" fill="black"/>
<path d="M371.301 604.675C372.366 604.592 373.432 604.661 374.448 605.021C375.873 605.527 376.835 606.451 377.489 607.796C380.161 613.286 381.823 619.578 383.815 625.369C385.447 630.113 387.861 635.451 388.674 640.403C388.861 641.539 388.641 642.674 388.253 643.745C387.449 645.964 385.785 646.907 383.779 647.846C382.682 647.959 381.609 647.868 380.573 647.461C378.671 646.714 377.86 645.464 377.064 643.689C374.916 638.895 373.436 633.609 371.737 628.631C369.948 623.385 367.461 617.667 366.581 612.213C366.368 610.895 366.402 609.737 366.919 608.487C367.795 606.369 369.324 605.536 371.301 604.675Z" fill="black"/>
<path d="M555.864 678.078C556.966 677.978 558.173 678.005 559.223 678.388C560.816 678.97 562.069 680.294 562.709 681.851C563.392 683.492 563.35 685.345 562.593 686.954C562.013 688.191 561.082 689.02 559.999 689.806C556.045 692.676 551.191 694.87 546.874 697.195C541.885 699.882 536.774 703.106 531.474 705.097C530.633 705.228 529.813 705.236 528.979 705.034C527.404 704.653 525.658 703.477 524.881 702.047C524.008 700.443 523.79 698.426 524.411 696.697C524.788 695.644 525.306 695.001 526.189 694.338C530.382 691.189 535.999 688.857 540.621 686.353C545.659 683.624 550.629 680.393 555.864 678.078Z" fill="black"/>
<path d="M540.233 769.836C544.061 769.614 566.558 777.955 571.506 780.156C573.291 780.949 574.756 781.886 575.433 783.839C575.926 785.261 575.951 787.324 575.256 788.682C574.314 790.52 572.656 791.307 570.817 791.949C568.651 792.086 566.645 791.394 564.629 790.697C559.223 788.827 553.857 786.816 548.483 784.856C545.261 783.68 541.266 782.633 538.365 780.805C537.386 780.188 536.534 779.271 536.068 778.208C535.461 776.823 535.481 774.878 536.057 773.473C536.834 771.577 538.461 770.62 540.233 769.836Z" fill="black"/>
<path d="M472.527 613.187C473.543 613.199 474.557 613.207 475.521 613.562C477.035 614.121 478.256 615.127 478.881 616.639C480.435 620.403 474.336 639.462 472.521 643.964C471.542 646.392 470.341 647.337 467.988 648.349C467.063 648.421 466.05 648.401 465.161 648.122C463.649 647.651 462.411 646.558 461.755 645.118C461.229 643.978 461.046 642.766 461.127 641.523C461.439 636.684 465.647 624.092 467.467 618.91C468.509 615.943 469.684 614.548 472.527 613.187Z" fill="black"/>
<path d="M223.74 810.288L625.3 810.351L625.171 891.432L625.097 914.996C625.084 921.557 625.195 928.105 624.512 934.641C623.927 940.24 622.617 945.927 620.446 951.129C619.002 954.589 614.966 962.58 611.609 963.96C611.425 964.247 611.268 964.483 611.033 964.732C601.864 974.516 585.696 972.799 573.51 972.812L351.608 972.791L287.477 972.812L268.107 972.824C263.057 972.816 257.92 972.934 252.908 972.242C246.301 971.331 240.008 967.922 235.339 963.2C229.605 957.403 226.267 949.307 224.748 941.396C223.145 933.046 223.363 924.612 223.373 916.161L223.474 890.66L223.74 810.288Z" fill="#0F90C5"/>
<path d="M371.562 860.156L449.086 860.102C454.344 860.094 485.278 859.42 488.144 860.471C489.945 861.129 491.126 862.513 491.844 864.247C492.451 865.716 492.511 867.348 491.817 868.796C490.931 870.644 489.203 871.876 487.281 872.466C485.095 873.141 479.752 873.593 477.77 872.449C477.718 872.42 477.669 872.386 477.618 872.357C477.087 872.597 476.647 872.749 476.063 872.804C470.841 873.276 465.249 872.88 459.989 872.884L427.378 872.918L385.967 872.964C378.527 872.977 370.895 873.319 363.476 872.863C361.898 872.766 360.737 872.627 359.467 871.568C358.058 870.395 357.038 868.407 356.962 866.581C356.893 864.906 358.027 862.948 359.242 861.817C361.951 859.295 368.051 860.17 371.562 860.156Z" fill="black"/>
<path d="M373.341 829.14C377.818 829.157 386.652 827.747 390.114 830.822C391.316 831.889 391.943 833.521 392.031 835.103C392.13 836.896 391.522 838.7 390.259 839.994C389.201 841.078 387.974 841.458 386.515 841.637C380.074 842.426 372.232 841.883 365.623 841.916L321.284 842.01C316.711 841.97 306.409 843.322 302.931 840.287C301.714 839.224 301.092 837.517 301.075 835.926C301.061 834.177 301.738 832.492 302.96 831.24C303.847 830.339 304.997 829.7 306.253 829.518C312.316 828.637 321.534 829.245 327.874 829.238L373.341 829.14Z" fill="black"/>
<path d="M501.277 829.144L528.016 829.05C532.566 829.034 537.484 828.629 541.977 829.243C543.255 829.418 544.295 829.779 545.274 830.655C546.603 831.843 547.489 833.677 547.489 835.465C547.488 837.138 546.72 838.831 545.529 839.996C544.592 840.915 543.504 841.325 542.234 841.526C538.506 842.117 534.286 841.744 530.504 841.758L506.604 841.843L480.106 841.912C475.724 841.92 470.709 842.381 466.388 841.651C465.108 841.435 463.916 840.92 462.964 840.019C461.795 838.896 461.128 837.35 461.112 835.73C461.106 834.02 461.876 832.22 463.103 831.03C463.998 830.161 464.987 829.658 466.212 829.44C470.277 828.717 474.959 829.152 479.09 829.157L501.277 829.144Z" fill="black"/>
<path d="M535.972 885.917C536.381 886.022 536.956 886.001 537.382 886.022C539.145 886.12 540.799 886.529 542.292 887.525C543.399 888.263 544.017 889.356 544.292 890.638C544.639 892.258 544.579 893.794 543.615 895.208C542.106 897.427 539.27 898.334 536.777 898.853C532.69 899.705 514.446 901.001 511.781 899.245C511.588 899.33 511.441 899.41 511.239 899.456C509.851 899.786 507.175 899.275 505.97 898.554C504.462 897.651 503.35 895.98 503.034 894.258C502.736 892.634 503.076 890.972 504.051 889.63C505.195 888.06 506.93 887.246 508.793 886.879C511.49 886.347 514.754 886.774 517.503 886.828C523.327 886.946 529.939 887.052 535.69 885.972L535.972 885.917Z" fill="#30A9CC"/>
<path d="M296.742 869.627C299.867 869.404 303.073 869.197 305.958 870.644C307.665 871.496 309.233 873.028 309.8 874.889C310.211 876.239 310.212 877.602 309.507 878.859C308.377 880.871 306.053 882.099 303.875 882.627C301.282 883.251 285.065 883.551 283.385 882.509C282.939 882.774 282.539 882.926 282.027 883.002C278.7 883.487 274.825 883.449 272.072 881.264C270.721 880.192 269.789 878.644 269.623 876.905C269.48 875.424 269.864 873.948 270.838 872.804C271.907 871.547 273.448 870.779 275.033 870.391C279.287 869.349 291.403 869.999 296.742 869.627Z" fill="#30A9CC"/>
<path d="M332.045 739.347C337.703 714.376 351.609 693.517 373.452 679.793C394.387 666.662 419.696 662.416 443.772 667.997C467.34 673.387 487.795 687.93 500.624 708.417C507.03 718.648 511.266 730.084 513.071 742.018C515.895 761.762 512.018 781.294 501.21 798.086C483.117 797.789 464.978 798.03 446.881 798.024L342.809 798.011C331.266 780.225 328.686 759.967 332.045 739.347Z" fill="#FE9600"/>
<path d="M342.809 798.01C331.266 780.224 328.686 759.967 332.045 739.347C332.099 739.41 332.154 739.473 332.207 739.538C335.163 743.173 336.086 747.058 339.933 751.018C351.155 762.57 375.889 768.698 391.567 770.492C423.221 774.113 459.362 773.308 488.831 760.187C494.185 757.804 499.429 755.237 504.025 751.558C507.77 748.56 510.072 744.487 513.071 742.017C515.895 761.761 512.018 781.293 501.21 798.086C483.117 797.788 464.978 798.029 446.881 798.023L342.809 798.01Z" fill="#FF8448"/>
<path d="M394.097 681.25C395.672 681.087 397.263 681.14 398.689 681.905C399.71 682.453 400.26 683.28 400.608 684.362C401.251 686.359 401.26 688.693 400.213 690.561C398.309 693.959 389.757 696.929 386.239 699.326C381.851 702.315 378.047 706.211 373.588 709.013C372.481 709.709 371.215 710.07 369.971 710.441C368.445 710.441 366.804 710.447 365.423 709.699C364.055 708.959 362.81 707.115 362.426 705.611C361.935 703.69 362.617 701.682 363.622 700.048C368.355 692.352 385.44 683.246 394.097 681.25Z" fill="#FFC43F"/>
</svg>
