<svg width="849" height="1183" viewBox="0 0 849 1183" fill="none" xmlns="http://www.w3.org/2000/svg">
<rect x="5" y="5" width="839" height="1173" rx="45" fill="white"/>
<rect x="5" y="5" width="839" height="1173" rx="45" stroke="black" stroke-width="10"/>
<circle cx="786.5" cy="1124.5" r="11.5" fill="black"/>
<circle cx="786.5" cy="59.5" r="11.5" fill="black"/>
<path d="M77 1124.5C77 1130.85 71.8513 1136 65.5 1136C59.1487 1136 54 1130.85 54 1124.5C54 1118.15 59.1487 1113 65.5 1113C71.8513 1113 77 1118.15 77 1124.5Z" fill="black"/>
<path d="M77 59.5C77 65.8513 71.8513 71 65.5 71C59.1487 71 54 65.8513 54 59.5C54 53.1487 59.1487 48 65.5 48C71.8513 48 77 53.1487 77 59.5Z" fill="black"/>
<mask id="path-6-inside-1_97_45" fill="white">
<path d="M708 48C713.523 48 717.934 52.4996 718.616 57.9801C723.122 94.1833 751.817 122.878 788.02 127.384C793.5 128.066 798 132.477 798 138V1046C798 1051.52 793.5 1055.93 788.02 1056.62C751.817 1061.12 723.122 1089.82 718.616 1126.02C717.934 1131.5 713.523 1136 708 1136H141C135.477 1136 131.066 1131.5 130.384 1126.02C125.878 1089.82 97.1833 1061.12 60.9801 1056.62C55.4996 1055.93 51 1051.52 51 1046V138C51 132.477 55.4996 128.066 60.9801 127.384C97.1833 122.878 125.878 94.1833 130.384 57.9801C131.066 52.4996 135.477 48 141 48H708Z"/>
</mask>
<path d="M708 48C713.523 48 717.934 52.4996 718.616 57.9801C723.122 94.1833 751.817 122.878 788.02 127.384C793.5 128.066 798 132.477 798 138V1046C798 1051.52 793.5 1055.93 788.02 1056.62C751.817 1061.12 723.122 1089.82 718.616 1126.02C717.934 1131.5 713.523 1136 708 1136H141C135.477 1136 131.066 1131.5 130.384 1126.02C125.878 1089.82 97.1833 1061.12 60.9801 1056.62C55.4996 1055.93 51 1051.52 51 1046V138C51 132.477 55.4996 128.066 60.9801 127.384C97.1833 122.878 125.878 94.1833 130.384 57.9801C131.066 52.4996 135.477 48 141 48H708Z" fill="#7047A3"/>
<path d="M130.384 1126.02L138.322 1125.03L130.384 1126.02ZM718.616 1126.02L710.678 1125.03L718.616 1126.02ZM788.02 1056.62L789.008 1064.56L788.02 1056.62ZM718.616 57.9801L726.555 56.9922L718.616 57.9801ZM718.616 57.9801L710.678 58.9681C715.635 98.8063 747.194 130.365 787.032 135.322L788.02 127.384L789.008 119.445C756.44 115.392 730.608 89.5603 726.555 56.9922L718.616 57.9801ZM798 138H790V1046H798H806V138H798ZM788.02 1056.62L787.032 1048.68C747.194 1053.64 715.635 1085.19 710.678 1125.03L718.616 1126.02L726.555 1127.01C730.608 1094.44 756.44 1068.61 789.008 1064.56L788.02 1056.62ZM708 1136V1128H141V1136V1144H708V1136ZM130.384 1126.02L138.322 1125.03C133.365 1085.19 101.806 1053.64 61.9681 1048.68L60.9801 1056.62L59.9922 1064.56C92.5603 1068.61 118.392 1094.44 122.445 1127.01L130.384 1126.02ZM51 1046H59V138H51H43V1046H51ZM60.9801 127.384L61.9681 135.322C101.806 130.365 133.365 98.8063 138.322 58.9681L130.384 57.9801L122.445 56.9922C118.392 89.5603 92.5603 115.392 59.9922 119.445L60.9801 127.384ZM141 48V56H708V48V40H141V48ZM130.384 57.9801L138.322 58.9681C138.438 58.0389 138.872 57.2306 139.427 56.6958C139.954 56.1887 140.494 56 141 56V48V40C130.84 40 123.547 48.1329 122.445 56.9922L130.384 57.9801ZM51 138H59C59 137.494 59.1887 136.954 59.6958 136.427C60.2306 135.872 61.0389 135.438 61.9681 135.322L60.9801 127.384L59.9922 119.445C51.1329 120.547 43 127.84 43 138H51ZM60.9801 1056.62L61.9681 1048.68C61.0389 1048.56 60.2306 1048.13 59.6958 1047.57C59.1887 1047.05 59 1046.51 59 1046H51H43C43 1056.16 51.1329 1063.45 59.9922 1064.56L60.9801 1056.62ZM141 1136V1128C140.494 1128 139.954 1127.81 139.427 1127.3C138.872 1126.77 138.438 1125.96 138.322 1125.03L130.384 1126.02L122.445 1127.01C123.547 1135.87 130.84 1144 141 1144V1136ZM718.616 1126.02L710.678 1125.03C710.562 1125.96 710.128 1126.77 709.573 1127.3C709.046 1127.81 708.506 1128 708 1128V1136V1144C718.16 1144 725.453 1135.87 726.555 1127.01L718.616 1126.02ZM798 1046H790C790 1046.51 789.811 1047.05 789.304 1047.57C788.769 1048.13 787.961 1048.56 787.032 1048.68L788.02 1056.62L789.008 1064.56C797.867 1063.45 806 1056.16 806 1046H798ZM788.02 127.384L787.032 135.322C787.961 135.438 788.769 135.872 789.304 136.427C789.811 136.954 790 137.494 790 138H798H806C806 127.84 797.867 120.547 789.008 119.445L788.02 127.384ZM718.616 57.9801L726.555 56.9922C725.453 48.1329 718.16 40 708 40V48V56C708.506 56 709.046 56.1887 709.573 56.6958C710.128 57.2306 710.562 58.0389 710.678 58.9681L718.616 57.9801Z" fill="black" mask="url(#path-6-inside-1_97_45)"/>
<path d="M690 102C695.523 102 699.911 106.512 700.837 111.957C705.019 136.563 724.437 155.981 749.043 160.163C754.488 161.089 759 165.477 759 171V1014C759 1019.52 754.488 1023.91 749.043 1024.84C724.711 1028.97 705.454 1048 700.984 1072.22C699.993 1077.59 695.633 1082 690.175 1082H158.825C153.367 1082 149.007 1077.59 148.016 1072.22C143.546 1048 124.288 1028.97 99.9568 1024.84C94.5121 1023.91 90 1019.52 90 1014V171C90 165.477 94.512 161.089 99.9568 160.163C124.563 155.981 143.981 136.563 148.163 111.957C149.089 106.512 153.477 102 159 102H690Z" fill="#B48FE1"/>
<path d="M310.98 348.925V386.58C310.98 391.057 312.142 394.428 314.465 396.695C316.845 398.962 320.132 400.095 324.325 400.095C328.575 400.095 331.862 398.962 334.185 396.695C336.565 394.428 337.755 391.057 337.755 386.58V348.925H347.445V386.41C347.445 391.227 346.397 395.307 344.3 398.65C342.203 401.993 339.398 404.487 335.885 406.13C332.372 407.773 328.49 408.595 324.24 408.595C319.99 408.595 316.108 407.773 312.595 406.13C309.138 404.487 306.39 401.993 304.35 398.65C302.31 395.307 301.29 391.227 301.29 386.41V348.925H310.98ZM369.752 367.965C371.168 365.585 373.038 363.743 375.362 362.44C377.742 361.08 380.547 360.4 383.777 360.4V370.43H381.312C377.515 370.43 374.625 371.393 372.642 373.32C370.715 375.247 369.752 378.59 369.752 383.35V408H360.062V361.165H369.752V367.965ZM389.454 384.37C389.454 379.667 390.417 375.502 392.344 371.875C394.327 368.248 396.99 365.443 400.334 363.46C403.734 361.42 407.474 360.4 411.554 360.4C415.237 360.4 418.439 361.137 421.159 362.61C423.935 364.027 426.145 365.812 427.789 367.965V361.165H437.564V408H427.789V401.03C426.145 403.24 423.907 405.082 421.074 406.555C418.24 408.028 415.01 408.765 411.384 408.765C407.36 408.765 403.677 407.745 400.334 405.705C396.99 403.608 394.327 400.718 392.344 397.035C390.417 393.295 389.454 389.073 389.454 384.37ZM427.789 384.54C427.789 381.31 427.109 378.505 425.749 376.125C424.445 373.745 422.717 371.932 420.564 370.685C418.41 369.438 416.087 368.815 413.594 368.815C411.1 368.815 408.777 369.438 406.624 370.685C404.47 371.875 402.714 373.66 401.354 376.04C400.05 378.363 399.399 381.14 399.399 384.37C399.399 387.6 400.05 390.433 401.354 392.87C402.714 395.307 404.47 397.177 406.624 398.48C408.834 399.727 411.157 400.35 413.594 400.35C416.087 400.35 418.41 399.727 420.564 398.48C422.717 397.233 424.445 395.42 425.749 393.04C427.109 390.603 427.789 387.77 427.789 384.54ZM473.921 360.4C477.604 360.4 480.891 361.165 483.781 362.695C486.728 364.225 489.023 366.492 490.666 369.495C492.309 372.498 493.131 376.125 493.131 380.375V408H483.526V381.82C483.526 377.627 482.478 374.425 480.381 372.215C478.284 369.948 475.423 368.815 471.796 368.815C468.169 368.815 465.279 369.948 463.126 372.215C461.029 374.425 459.981 377.627 459.981 381.82V408H450.291V361.165H459.981V366.52C461.568 364.593 463.579 363.092 466.016 362.015C468.509 360.938 471.144 360.4 473.921 360.4ZM525.806 408.765C521.386 408.765 517.391 407.773 513.821 405.79C510.251 403.75 507.446 400.917 505.406 397.29C503.366 393.607 502.346 389.357 502.346 384.54C502.346 379.78 503.395 375.558 505.491 371.875C507.588 368.192 510.45 365.358 514.076 363.375C517.703 361.392 521.755 360.4 526.231 360.4C530.708 360.4 534.76 361.392 538.386 363.375C542.013 365.358 544.875 368.192 546.971 371.875C549.068 375.558 550.116 379.78 550.116 384.54C550.116 389.3 549.04 393.522 546.886 397.205C544.733 400.888 541.786 403.75 538.046 405.79C534.363 407.773 530.283 408.765 525.806 408.765ZM525.806 400.35C528.3 400.35 530.623 399.755 532.776 398.565C534.986 397.375 536.771 395.59 538.131 393.21C539.491 390.83 540.171 387.94 540.171 384.54C540.171 381.14 539.52 378.278 538.216 375.955C536.913 373.575 535.185 371.79 533.031 370.6C530.878 369.41 528.555 368.815 526.061 368.815C523.568 368.815 521.245 369.41 519.091 370.6C516.995 371.79 515.323 373.575 514.076 375.955C512.83 378.278 512.206 381.14 512.206 384.54C512.206 389.583 513.481 393.493 516.031 396.27C518.638 398.99 521.896 400.35 525.806 400.35Z" fill="black"/>
<mask id="path-10-outside-2_97_45" maskUnits="userSpaceOnUse" x="401" y="1007" width="47" height="31" fill="black">
<rect fill="white" x="401" y="1007" width="47" height="31"/>
<path d="M401.84 1030.92V1027.48L415.28 1008.2H420.8V1026.96H424.52V1030.92H420.8V1037H416.32V1030.92H401.84ZM416.52 1012.84L407.08 1026.96H416.52V1012.84ZM446.778 1011.36L435.658 1037H431.058L442.298 1011.84H427.498V1007.96H446.778V1011.36Z"/>
</mask>
<path d="M401.84 1030.92V1027.48L415.28 1008.2H420.8V1026.96H424.52V1030.92H420.8V1037H416.32V1030.92H401.84ZM416.52 1012.84L407.08 1026.96H416.52V1012.84ZM446.778 1011.36L435.658 1037H431.058L442.298 1011.84H427.498V1007.96H446.778V1011.36Z" fill="black"/>
<path d="M401.84 1030.92H401.54V1031.22H401.84V1030.92ZM401.84 1027.48L401.594 1027.31L401.54 1027.39V1027.48H401.84ZM415.28 1008.2V1007.9H415.123L415.034 1008.03L415.28 1008.2ZM420.8 1008.2H421.1V1007.9H420.8V1008.2ZM420.8 1026.96H420.5V1027.26H420.8V1026.96ZM424.52 1026.96H424.82V1026.66H424.52V1026.96ZM424.52 1030.92V1031.22H424.82V1030.92H424.52ZM420.8 1030.92V1030.62H420.5V1030.92H420.8ZM420.8 1037V1037.3H421.1V1037H420.8ZM416.32 1037H416.02V1037.3H416.32V1037ZM416.32 1030.92H416.62V1030.62H416.32V1030.92ZM416.52 1012.84H416.82V1011.85L416.271 1012.67L416.52 1012.84ZM407.08 1026.96L406.831 1026.79L406.519 1027.26H407.08V1026.96ZM416.52 1026.96V1027.26H416.82V1026.96H416.52ZM401.84 1030.92H402.14V1027.48H401.84H401.54V1030.92H401.84ZM401.84 1027.48L402.086 1027.65L415.526 1008.37L415.28 1008.2L415.034 1008.03L401.594 1027.31L401.84 1027.48ZM415.28 1008.2V1008.5H420.8V1008.2V1007.9H415.28V1008.2ZM420.8 1008.2H420.5V1026.96H420.8H421.1V1008.2H420.8ZM420.8 1026.96V1027.26H424.52V1026.96V1026.66H420.8V1026.96ZM424.52 1026.96H424.22V1030.92H424.52H424.82V1026.96H424.52ZM424.52 1030.92V1030.62H420.8V1030.92V1031.22H424.52V1030.92ZM420.8 1030.92H420.5V1037H420.8H421.1V1030.92H420.8ZM420.8 1037V1036.7H416.32V1037V1037.3H420.8V1037ZM416.32 1037H416.62V1030.92H416.32H416.02V1037H416.32ZM416.32 1030.92V1030.62H401.84V1030.92V1031.22H416.32V1030.92ZM416.52 1012.84L416.271 1012.67L406.831 1026.79L407.08 1026.96L407.329 1027.13L416.769 1013.01L416.52 1012.84ZM407.08 1026.96V1027.26H416.52V1026.96V1026.66H407.08V1026.96ZM416.52 1026.96H416.82V1012.84H416.52H416.22V1026.96H416.52ZM446.778 1011.36L447.054 1011.48L447.078 1011.42V1011.36H446.778ZM435.658 1037V1037.3H435.855L435.934 1037.12L435.658 1037ZM431.058 1037L430.785 1036.88L430.596 1037.3H431.058V1037ZM442.298 1011.84L442.572 1011.96L442.761 1011.54H442.298V1011.84ZM427.498 1011.84H427.198V1012.14H427.498V1011.84ZM427.498 1007.96V1007.66H427.198V1007.96H427.498ZM446.778 1007.96H447.078V1007.66H446.778V1007.96ZM446.778 1011.36L446.503 1011.24L435.383 1036.88L435.658 1037L435.934 1037.12L447.054 1011.48L446.778 1011.36ZM435.658 1037V1036.7H431.058V1037V1037.3H435.658V1037ZM431.058 1037L431.332 1037.12L442.572 1011.96L442.298 1011.84L442.025 1011.72L430.785 1036.88L431.058 1037ZM442.298 1011.84V1011.54H427.498V1011.84V1012.14H442.298V1011.84ZM427.498 1011.84H427.798V1007.96H427.498H427.198V1011.84H427.498ZM427.498 1007.96V1008.26H446.778V1007.96V1007.66H427.498V1007.96ZM446.778 1007.96H446.478V1011.36H446.778H447.078V1007.96H446.778Z" fill="black" mask="url(#path-10-outside-2_97_45)"/>
<path d="M252.04 197.975V240.92C252.04 244.91 252.95 247.99 254.77 250.16C256.66 252.33 259.495 253.415 263.275 253.415C267.055 253.415 269.89 252.33 271.78 250.16C273.74 247.92 274.72 244.84 274.72 240.92V197.975H295.3V240.92C295.3 247.71 293.865 253.52 290.995 258.35C288.125 263.11 284.205 266.715 279.235 269.165C274.335 271.545 268.875 272.735 262.855 272.735C256.835 272.735 251.445 271.545 246.685 269.165C241.995 266.715 238.285 263.11 235.555 258.35C232.895 253.59 231.565 247.78 231.565 240.92V197.975H252.04ZM327.211 223.49C329.521 220.13 332.321 217.47 335.611 215.51C338.901 213.55 342.436 212.57 346.216 212.57V234.515H340.441C335.961 234.515 332.636 235.39 330.466 237.14C328.296 238.89 327.211 241.935 327.211 246.275V272H306.631V213.095H327.211V223.49ZM350.234 242.495C350.234 236.405 351.319 231.085 353.489 226.535C355.729 221.985 358.739 218.485 362.519 216.035C366.369 213.585 370.639 212.36 375.329 212.36C379.389 212.36 382.889 213.165 385.829 214.775C388.769 216.385 391.044 218.555 392.654 221.285V213.095H413.234V272H392.654V263.81C391.044 266.54 388.734 268.71 385.724 270.32C382.784 271.93 379.319 272.735 375.329 272.735C370.639 272.735 366.369 271.51 362.519 269.06C358.739 266.61 355.729 263.11 353.489 258.56C351.319 253.94 350.234 248.585 350.234 242.495ZM392.654 242.495C392.654 238.715 391.604 235.74 389.504 233.57C387.474 231.4 384.954 230.315 381.944 230.315C378.864 230.315 376.309 231.4 374.279 233.57C372.249 235.67 371.234 238.645 371.234 242.495C371.234 246.275 372.249 249.285 374.279 251.525C376.309 253.695 378.864 254.78 381.944 254.78C384.954 254.78 387.474 253.695 389.504 251.525C391.604 249.355 392.654 246.345 392.654 242.495ZM463.496 212.57C470.286 212.57 475.676 214.845 479.666 219.395C483.656 223.875 485.651 229.965 485.651 237.665V272H465.071V240.395C465.071 237.035 464.196 234.41 462.446 232.52C460.696 230.56 458.351 229.58 455.411 229.58C452.331 229.58 449.916 230.56 448.166 232.52C446.416 234.41 445.541 237.035 445.541 240.395V272H424.961V213.095H445.541V221.495C447.361 218.835 449.811 216.7 452.891 215.09C455.971 213.41 459.506 212.57 463.496 212.57ZM557.213 213.095V272H536.528V263.6C534.778 266.26 532.363 268.43 529.283 270.11C526.203 271.72 522.668 272.525 518.678 272.525C511.818 272.525 506.393 270.285 502.403 265.805C498.483 261.255 496.523 255.095 496.523 247.325V213.095H516.998V244.7C516.998 248.06 517.873 250.72 519.623 252.68C521.443 254.57 523.823 255.515 526.763 255.515C529.773 255.515 532.153 254.57 533.903 252.68C535.653 250.72 536.528 248.06 536.528 244.7V213.095H557.213ZM594.021 272.735C588.701 272.735 583.941 271.86 579.741 270.11C575.611 268.29 572.321 265.84 569.871 262.76C567.491 259.61 566.161 256.075 565.881 252.155H585.831C586.111 254.045 586.986 255.515 588.456 256.565C589.926 257.615 591.746 258.14 593.916 258.14C595.596 258.14 596.926 257.79 597.906 257.09C598.886 256.39 599.376 255.48 599.376 254.36C599.376 252.89 598.571 251.805 596.961 251.105C595.351 250.405 592.691 249.635 588.981 248.795C584.781 247.955 581.281 247.01 578.481 245.96C575.681 244.91 573.231 243.195 571.131 240.815C569.101 238.435 568.086 235.215 568.086 231.155C568.086 227.655 569.031 224.505 570.921 221.705C572.811 218.835 575.576 216.56 579.216 214.88C582.926 213.2 587.371 212.36 592.551 212.36C600.251 212.36 606.306 214.25 610.716 218.03C615.126 221.81 617.681 226.78 618.381 232.94H599.796C599.446 231.05 598.606 229.615 597.276 228.635C596.016 227.585 594.301 227.06 592.131 227.06C590.451 227.06 589.156 227.375 588.246 228.005C587.406 228.635 586.986 229.51 586.986 230.63C586.986 232.03 587.791 233.115 589.401 233.885C591.011 234.585 593.601 235.32 597.171 236.09C601.441 237 604.976 238.015 607.776 239.135C610.646 240.255 613.131 242.075 615.231 244.595C617.401 247.045 618.486 250.405 618.486 254.675C618.486 258.105 617.471 261.185 615.441 263.915C613.481 266.645 610.646 268.815 606.936 270.425C603.296 271.965 598.991 272.735 594.021 272.735Z" fill="black"/>
<path d="M414.162 460.071C472.224 458.706 538.446 476.924 581.649 517.636L582.831 517.482C621.881 512.507 697.299 511.265 703.548 564.535C707.574 598.86 683.938 627.697 664.107 653.057C683.336 734.077 657.839 810.834 602.155 870.042C553.455 921.822 503.558 941.149 435.646 948.016C378.709 950.071 320.048 932.09 275.024 896.849C271.744 894.281 268.572 891.474 265.084 889.191L264.657 888.915C230.38 890.517 192.906 902.358 161.831 876.167C125.054 845.169 160.691 780.85 184.645 753.296C182.803 746.238 181.798 738.415 181.075 731.154C168.966 609.559 248.525 494.466 367.821 466.607C384.299 462.759 397.536 461.729 414.162 460.071Z" fill="#020202"/>
<path d="M419.042 479.543C427.759 479.405 436.966 479.255 445.602 480.632C451.249 480.069 467.629 482.663 473.382 484.075C470.509 485.921 467.577 487.66 465.053 489.977C474.022 493.062 501.8 510.93 508.964 517.636C516.719 520.35 533.089 538.108 539.962 544.037C542.453 541.555 545.463 539.394 548.217 537.194L562.1 526.017C576.891 537.894 585.18 549.147 597.767 560.731C595.368 562.204 572.213 581.399 571.432 582.874C577.903 591.918 582.646 602.22 587.586 612.137C591.165 621.078 594.159 631.389 597.767 639.796C590.03 647.151 582.658 654.929 574.821 662.163C507.33 724.46 387.114 791.292 302.434 817.522C292.571 820.577 282.338 824.072 272.184 825.893C261.261 828.708 250.093 831.161 238.84 832.142C231.32 820.908 224.457 809.583 218.674 797.362C229.364 793.283 241.214 791.109 252.219 787.788C250.88 777.331 244.6 766.248 243.268 753.296C238.64 739.575 239.213 711.413 239.232 696.968C225.788 700.532 213.129 706.037 199.06 707.108C199.011 696.361 199.571 685.848 200.952 675.182C207.973 610.564 249.557 549.335 303.517 514.551C312.742 508.604 323.069 502.671 333.521 499.24C336.995 500.722 368.298 490.185 375.741 492.148C376.331 492.098 376.854 492.087 377.443 492.148C392.017 483.754 413.19 483.416 419.165 480.027L419.042 479.543Z" fill="#4ED1EA"/>
<path d="M419.042 479.543C427.759 479.405 436.966 479.255 445.602 480.632C451.249 480.069 467.629 482.663 473.382 484.075C470.509 485.921 467.577 487.66 465.053 489.977C474.022 493.062 501.8 510.93 508.964 517.636C516.719 520.35 533.089 538.108 539.962 544.037C538.8 544.709 537.663 545.393 536.551 546.146C532.073 549.053 527.765 552.245 523.348 555.249C455.209 601.553 382.275 641.194 306.052 672.486C284.165 681.471 262.061 690.614 239.232 696.968C225.788 700.532 213.129 706.037 199.06 707.108C199.011 696.361 199.571 685.848 200.952 675.182C207.973 610.564 249.557 549.335 303.517 514.551C312.742 508.604 323.069 502.671 333.521 499.24C336.995 500.722 368.298 490.185 375.741 492.148C376.331 492.098 376.854 492.087 377.443 492.148C392.017 483.754 413.19 483.416 419.165 480.027L419.042 479.543Z" fill="#4ED1EA"/>
<path d="M508.964 517.636C516.719 520.35 533.089 538.108 539.961 544.037C538.8 544.71 537.662 545.393 536.551 546.147C532.073 549.053 527.765 552.246 523.348 555.249C455.208 601.553 382.274 641.194 306.051 672.486C284.164 681.471 262.06 690.614 239.232 696.968C241.268 682.789 241.862 671.609 245.536 656.989C292.995 636.344 337.849 618.06 383.694 593.215C424.187 571.27 464.737 549.166 501.97 521.892C504.22 520.115 506.415 518.932 508.964 517.636Z" fill="#1EB3AD"/>
<path d="M508.964 517.636C516.719 520.35 533.089 538.108 539.962 544.037C538.8 544.71 537.663 545.393 536.551 546.147C530.025 542.803 520.297 533.665 512.996 529.112C510.784 527.734 503.045 523.622 501.97 521.892C504.22 520.115 506.416 518.932 508.964 517.636Z" fill="#1D8B89"/>
<path d="M333.521 499.241C336.995 500.723 368.298 490.186 375.741 492.149C370.436 495.91 364.444 498.67 358.829 501.943C343.138 511.093 329.356 522.21 316.132 534.589C312.843 537.668 309.491 541.556 305.737 544.037C295.727 559.477 282.029 570.351 273.407 588.823C264.84 602.018 258.996 623.194 252.219 632.649C249.229 640.366 247.633 648.967 245.537 656.989C241.862 671.609 241.268 682.79 239.232 696.968C225.788 700.532 213.129 706.038 199.06 707.108C199.011 696.362 199.571 685.849 200.952 675.183C207.973 610.564 249.557 549.335 303.517 514.551C312.742 508.605 323.069 502.672 333.521 499.241Z" fill="#77E5F5"/>
<path d="M252.219 632.649C245.368 636.412 236.394 637.409 233.649 628.18C228.342 610.326 284.805 537.684 299.095 533.539C305.51 535.439 306.063 537.414 305.737 544.037C295.727 559.477 282.029 570.351 273.408 588.823C264.841 602.018 258.996 623.194 252.219 632.649Z" fill="#FEFFFE"/>
<path d="M245.537 656.989C241.862 671.609 241.268 682.79 239.232 696.968C225.788 700.532 213.129 706.038 199.06 707.108C199.011 696.362 199.571 685.849 200.952 675.183C212.564 674.127 223.351 665.409 234.05 661.176C236.229 660.593 237.707 660.146 239.232 658.441C241.366 658.034 243.45 657.597 245.537 656.989Z" fill="#4ED1EA"/>
<path d="M234.049 644.781C241.44 647.285 243.481 652.128 239.232 658.441C237.706 660.146 236.229 660.593 234.049 661.176C222.727 659.498 224.751 647.888 234.049 644.781Z" fill="#FEFFFE"/>
<path d="M419.042 479.543C427.759 479.405 436.966 479.255 445.603 480.632C451.25 480.069 467.629 482.663 473.382 484.075C470.51 485.921 467.577 487.66 465.053 489.977C459.992 493.194 454.679 495.996 449.632 499.24C396.549 529.911 346.668 557.695 289.726 581.929C285.478 583.738 277.437 588.303 273.408 588.822C282.029 570.35 295.727 559.476 305.738 544.037C309.491 541.555 312.843 537.668 316.132 534.588C329.356 522.209 343.138 511.093 358.83 501.943C364.444 498.67 370.437 495.909 375.742 492.148C376.331 492.098 376.854 492.087 377.443 492.148C392.018 483.754 413.19 483.416 419.165 480.027L419.042 479.543Z" fill="#1EB3AD"/>
<path d="M419.042 479.543C427.759 479.405 436.966 479.255 445.602 480.632C451.249 480.069 467.629 482.663 473.382 484.075C470.509 485.921 467.577 487.66 465.053 489.977C459.992 493.194 454.679 495.996 449.631 499.24C420.254 493.002 405.239 493.726 377.442 492.148C392.017 483.754 413.189 483.416 419.165 480.027L419.042 479.543Z" fill="#1D8B89"/>
<path d="M445.602 480.632C451.249 480.069 467.628 482.664 473.381 484.075C470.509 485.922 467.577 487.661 465.053 489.977C458.632 486.74 451.693 484.493 445.602 480.632Z" fill="#034543"/>
<path d="M562.1 526.018C576.891 537.894 585.18 549.147 597.766 560.731C595.368 562.205 572.213 581.399 571.432 582.874C553.382 595.693 535.543 608.965 516.96 621.01C439.565 671.181 346.287 718.129 258.493 748.458C253.525 750.174 248.406 752.179 243.268 753.296C238.64 739.575 239.213 711.413 239.232 696.968C262.06 690.614 284.164 681.471 306.052 672.486C382.275 641.194 455.209 601.553 523.348 555.249C527.765 552.246 532.073 549.053 536.551 546.147C537.663 545.393 538.8 544.71 539.962 544.037C542.453 541.555 545.463 539.394 548.217 537.194L562.1 526.018Z" fill="#4ED1EA"/>
<path d="M562.1 526.018C576.891 537.894 585.18 549.147 597.767 560.731C595.368 562.205 572.213 581.399 571.432 582.874C567.247 577.143 563.273 571.261 558.666 565.849C553.482 558.031 546.672 550.576 539.962 544.037C542.453 541.555 545.463 539.394 548.217 537.194L562.1 526.018Z" fill="#1D8B89"/>
<path d="M243.268 753.297C248.407 752.18 253.525 750.175 258.494 748.459C346.287 718.13 439.565 671.182 516.96 621.011C535.544 608.965 553.382 595.694 571.432 582.875C577.903 591.919 582.646 602.221 587.586 612.138C501.716 682.445 371.03 750.422 264.722 784.258C260.814 785.501 256.261 787.245 252.219 787.789C250.88 777.332 244.6 766.249 243.268 753.297Z" fill="#1EB3AD"/>
<path d="M252.219 787.789C252.219 787.789 261.995 808.008 263.259 810.18C265.513 814.054 272.178 821.657 272.184 825.894C261.261 828.709 250.093 831.162 238.84 832.143C231.32 820.909 224.457 809.584 218.674 797.363C229.364 793.283 241.214 791.11 252.219 787.789Z" fill="#77E5F5"/>
<path d="M611.109 708.396C612.754 712.548 608.359 743.945 607.179 749.447C601.963 772.387 595.639 787.352 586.012 807.968C591.922 807.824 634.223 771.132 642.296 769.168C635.087 791.581 624.074 814.088 609.792 832.87C604.615 839.677 587.368 860.339 580.505 864.045C577.044 870.293 551.998 888.366 545.522 892.717C511.338 915.689 471.329 928.392 430.189 929.276C392.429 929.467 356.129 922.047 322.276 904.687C316.764 901.86 309.838 898.872 305.737 894.164C299.373 891.923 294.005 887.538 288.568 883.652C394.952 855.588 511.369 790.006 595.274 721.665C600.422 717.473 605.174 712.703 610.545 708.801L611.109 708.396Z" fill="#1EB3AD"/>
<path d="M586.013 807.969C591.922 807.824 634.223 771.132 642.296 769.168C635.087 791.581 624.074 814.088 609.792 832.87C604.615 839.677 587.368 860.339 580.505 864.045C577.044 870.294 551.998 888.366 545.522 892.718C511.338 915.689 471.329 928.393 430.189 929.277C392.429 929.467 356.129 922.047 322.276 904.687C316.764 901.861 309.838 898.873 305.737 894.164C322.204 892.291 330.968 889.825 346.299 886.762L346.71 886.683C354.067 892.238 391.643 905.237 402.63 904.74C405.881 902.703 410.023 901.455 413.581 899.95L438.814 889.26C480.91 871.122 520.733 849.673 559.599 825.432C565.005 822.061 580.524 810.269 586.013 809.453V807.969Z" fill="#4ED1EA"/>
<path d="M519.193 888.915C538.475 888.995 568.861 865.218 580.505 864.045C577.044 870.294 551.998 888.366 545.522 892.718C511.338 915.689 471.329 928.393 430.189 929.277C392.429 929.467 356.129 922.047 322.276 904.687C316.764 901.861 309.838 898.873 305.737 894.164C322.204 892.291 330.968 889.825 346.299 886.762L346.71 886.683C354.067 892.238 391.643 905.237 402.63 904.74C427.709 911.162 468.148 904.216 492.299 897.474C498.045 895.869 511.081 890.642 516.168 890.582C517.132 889.962 518.181 889.453 519.193 888.915Z" fill="#1D8B89"/>
<path d="M519.193 888.915C538.474 888.995 568.861 865.218 580.504 864.045C577.043 870.294 551.998 888.366 545.521 892.718C511.338 915.689 471.329 928.393 430.188 929.277C448.389 924.386 505.995 901.365 516.168 890.582C517.132 889.962 518.181 889.453 519.193 888.915Z" fill="#095850"/>
<path d="M586.013 807.969C591.922 807.824 634.223 771.132 642.296 769.168C635.087 791.581 624.074 814.088 609.792 832.87C604.615 839.677 587.368 860.339 580.505 864.045C568.861 865.218 538.475 888.995 519.193 888.915C538.942 872.685 556.38 854.873 570.837 833.674C576.218 825.782 580.595 817.287 586.013 809.453V807.969Z" fill="#1B6A67"/>
<path d="M611.109 708.396C612.754 712.548 608.359 743.945 607.179 749.447C599.424 753.114 593.072 759.033 586.074 763.879C549.436 789.253 511.256 811.809 471.999 832.9C432.779 853.97 389.969 875.63 346.71 886.682L346.299 886.761C330.968 889.825 322.204 892.291 305.737 894.164C299.373 891.923 294.005 887.538 288.568 883.652C394.952 855.588 511.369 790.006 595.274 721.665C600.422 717.473 605.174 712.703 610.545 708.801L611.109 708.396Z" fill="#4ED1EA"/>
<path d="M641.09 613.546C650.626 619.551 673.005 594.069 677.363 586.861C679.12 583.955 683.759 572.687 685.349 571.298C685.798 595.875 667.682 619.964 652.885 638.152C588.912 716.787 490.881 779.425 400.565 821.906C358.109 841.876 301.147 865.912 254.259 872.015C249.232 864.87 241.459 858.811 235.616 850.289C254.339 850.097 273.311 844.98 291.225 840.046C395.806 811.244 568.475 714.647 629.945 630.433C633.921 624.987 637.16 619.026 641.09 613.546Z" fill="url(#paint0_linear_97_45)"/>
<path d="M611.109 708.396C621.771 697.025 637.099 682.168 648.632 671.152C651.041 684.642 652.659 698.865 651.95 712.583C650.495 733.027 648.518 749.492 642.296 769.167C634.223 771.131 591.922 807.824 586.013 807.968C595.639 787.351 601.963 772.387 607.18 749.447C608.359 743.944 612.754 712.548 611.109 708.396Z" fill="#095850"/>
<path d="M611.109 708.396C621.77 697.025 637.098 682.168 648.632 671.152C651.041 684.642 652.659 698.865 651.95 712.583C636.717 723.896 623.06 737.961 607.179 749.447C608.359 743.944 612.754 712.548 611.109 708.396Z" fill="#1D8B89"/>
<path d="M189.935 775.649C193.471 786.819 197.456 797.403 202.534 807.968C186.258 835.217 208.498 852.901 235.616 850.288C241.459 858.81 249.232 864.87 254.259 872.015C168.361 884.424 137.013 856.638 189.935 775.649Z" fill="#B5DAF2"/>
<path d="M199.06 707.108C213.129 706.037 225.788 700.532 239.232 696.968C239.213 711.413 238.64 739.575 243.268 753.296C244.6 766.249 250.88 777.331 252.219 787.789C241.214 791.109 229.364 793.283 218.674 797.362C213.7 786.395 209.856 775.144 206.462 763.604C201.451 745.006 199.074 726.364 199.06 707.108Z" fill="#77E5F5"/>
<path d="M243.267 753.297C244.599 766.25 250.88 777.332 252.218 787.79C241.213 791.11 229.364 793.284 218.674 797.363C213.7 786.396 209.856 775.145 206.462 763.604C215.374 762.586 234.891 756.207 243.267 753.297Z" fill="#4ED1EA"/>
<path d="M598.732 533.539C626.475 535.052 686.293 529.276 685.349 571.298C683.759 572.687 679.12 583.955 677.363 586.861C673.005 594.069 650.626 619.551 641.091 613.546C657.204 585.531 654.283 559.758 618.099 559.115C612.429 549.927 604.566 542.498 598.732 533.539Z" fill="#B5DAF2"/>
<path d="M597.766 560.731C602.066 569.857 611.19 578.965 614.61 587.342C617.484 592.907 621.939 600.708 623.672 606.523C617.472 616.463 606.212 632.061 597.766 639.797C594.159 631.389 591.165 621.079 587.585 612.137C582.646 602.221 577.903 591.919 571.432 582.875C572.213 581.4 595.368 562.205 597.766 560.731Z" fill="#095850"/>
<path d="M587.585 612.137C597.934 604.385 605.305 594.808 614.61 587.342C617.484 592.907 621.939 600.707 623.672 606.523C617.472 616.463 606.212 632.06 597.766 639.797C594.158 631.389 591.165 621.079 587.585 612.137Z" fill="#1D8B89"/>
<path d="M473.382 484.075C502.605 490.384 539.151 505.771 562.1 526.018L548.217 537.194C545.463 539.394 542.453 541.555 539.962 544.037C533.089 538.108 516.719 520.35 508.964 517.636C501.8 510.931 474.022 493.063 465.053 489.977C467.577 487.66 470.509 485.922 473.382 484.075Z" fill="#095850"/>
<path d="M333.521 499.241C352.33 486.633 397.529 479.831 419.042 479.544L419.164 480.028C413.189 483.417 392.017 483.755 377.442 492.149C376.854 492.088 376.331 492.099 375.741 492.149C368.298 490.186 336.995 500.723 333.521 499.241Z" fill="#4ED1EA"/>
<defs>
<linearGradient id="paint0_linear_97_45" x1="490.654" y1="787.061" x2="443.449" y2="668.333" gradientUnits="userSpaceOnUse">
<stop stop-color="#838DAB"/>
<stop offset="1" stop-color="#8FB1D6"/>
</linearGradient>
</defs>
</svg>
