<svg width="849" height="1183" viewBox="0 0 849 1183" fill="none" xmlns="http://www.w3.org/2000/svg">
<rect x="5" y="5" width="839" height="1173" rx="45" fill="white"/>
<rect x="5" y="5" width="839" height="1173" rx="45" stroke="black" stroke-width="10"/>
<circle cx="786.5" cy="1124.5" r="11.5" fill="black"/>
<circle cx="786.5" cy="59.5" r="11.5" fill="black"/>
<path d="M77 1124.5C77 1130.85 71.8513 1136 65.5 1136C59.1487 1136 54 1130.85 54 1124.5C54 1118.15 59.1487 1113 65.5 1113C71.8513 1113 77 1118.15 77 1124.5Z" fill="black"/>
<path d="M77 59.5C77 65.8513 71.8513 71 65.5 71C59.1487 71 54 65.8513 54 59.5C54 53.1487 59.1487 48 65.5 48C71.8513 48 77 53.1487 77 59.5Z" fill="black"/>
<mask id="path-6-inside-1_97_23" fill="white">
<path d="M708 48C713.523 48 717.934 52.4996 718.616 57.9801C723.122 94.1833 751.817 122.878 788.02 127.384C793.5 128.066 798 132.477 798 138V1046C798 1051.52 793.5 1055.93 788.02 1056.62C751.817 1061.12 723.122 1089.82 718.616 1126.02C717.934 1131.5 713.523 1136 708 1136H141C135.477 1136 131.066 1131.5 130.384 1126.02C125.878 1089.82 97.1833 1061.12 60.9801 1056.62C55.4996 1055.93 51 1051.52 51 1046V138C51 132.477 55.4996 128.066 60.9801 127.384C97.1833 122.878 125.878 94.1833 130.384 57.9801C131.066 52.4996 135.477 48 141 48H708Z"/>
</mask>
<path d="M708 48C713.523 48 717.934 52.4996 718.616 57.9801C723.122 94.1833 751.817 122.878 788.02 127.384C793.5 128.066 798 132.477 798 138V1046C798 1051.52 793.5 1055.93 788.02 1056.62C751.817 1061.12 723.122 1089.82 718.616 1126.02C717.934 1131.5 713.523 1136 708 1136H141C135.477 1136 131.066 1131.5 130.384 1126.02C125.878 1089.82 97.1833 1061.12 60.9801 1056.62C55.4996 1055.93 51 1051.52 51 1046V138C51 132.477 55.4996 128.066 60.9801 127.384C97.1833 122.878 125.878 94.1833 130.384 57.9801C131.066 52.4996 135.477 48 141 48H708Z" fill="#006AB6"/>
<path d="M130.384 1126.02L138.322 1125.03L130.384 1126.02ZM718.616 1126.02L710.678 1125.03L718.616 1126.02ZM788.02 1056.62L789.008 1064.56L788.02 1056.62ZM718.616 57.9801L726.555 56.9922L718.616 57.9801ZM718.616 57.9801L710.678 58.9681C715.635 98.8063 747.194 130.365 787.032 135.322L788.02 127.384L789.008 119.445C756.44 115.392 730.608 89.5603 726.555 56.9922L718.616 57.9801ZM798 138H790V1046H798H806V138H798ZM788.02 1056.62L787.032 1048.68C747.194 1053.64 715.635 1085.19 710.678 1125.03L718.616 1126.02L726.555 1127.01C730.608 1094.44 756.44 1068.61 789.008 1064.56L788.02 1056.62ZM708 1136V1128H141V1136V1144H708V1136ZM130.384 1126.02L138.322 1125.03C133.365 1085.19 101.806 1053.64 61.9681 1048.68L60.9801 1056.62L59.9922 1064.56C92.5603 1068.61 118.392 1094.44 122.445 1127.01L130.384 1126.02ZM51 1046H59V138H51H43V1046H51ZM60.9801 127.384L61.9681 135.322C101.806 130.365 133.365 98.8063 138.322 58.9681L130.384 57.9801L122.445 56.9922C118.392 89.5603 92.5603 115.392 59.9922 119.445L60.9801 127.384ZM141 48V56H708V48V40H141V48ZM130.384 57.9801L138.322 58.9681C138.438 58.0389 138.872 57.2306 139.427 56.6958C139.954 56.1887 140.494 56 141 56V48V40C130.84 40 123.547 48.1329 122.445 56.9922L130.384 57.9801ZM51 138H59C59 137.494 59.1887 136.954 59.6958 136.427C60.2306 135.872 61.0389 135.438 61.9681 135.322L60.9801 127.384L59.9922 119.445C51.1329 120.547 43 127.84 43 138H51ZM60.9801 1056.62L61.9681 1048.68C61.0389 1048.56 60.2306 1048.13 59.6958 1047.57C59.1887 1047.05 59 1046.51 59 1046H51H43C43 1056.16 51.1329 1063.45 59.9922 1064.56L60.9801 1056.62ZM141 1136V1128C140.494 1128 139.954 1127.81 139.427 1127.3C138.872 1126.77 138.438 1125.96 138.322 1125.03L130.384 1126.02L122.445 1127.01C123.547 1135.87 130.84 1144 141 1144V1136ZM718.616 1126.02L710.678 1125.03C710.562 1125.96 710.128 1126.77 709.573 1127.3C709.046 1127.81 708.506 1128 708 1128V1136V1144C718.16 1144 725.453 1135.87 726.555 1127.01L718.616 1126.02ZM798 1046H790C790 1046.51 789.811 1047.05 789.304 1047.57C788.769 1048.13 787.961 1048.56 787.032 1048.68L788.02 1056.62L789.008 1064.56C797.867 1063.45 806 1056.16 806 1046H798ZM788.02 127.384L787.032 135.322C787.961 135.438 788.769 135.872 789.304 136.427C789.811 136.954 790 137.494 790 138H798H806C806 127.84 797.867 120.547 789.008 119.445L788.02 127.384ZM718.616 57.9801L726.555 56.9922C725.453 48.1329 718.16 40 708 40V48V56C708.506 56 709.046 56.1887 709.573 56.6958C710.128 57.2306 710.562 58.0389 710.678 58.9681L718.616 57.9801Z" fill="black" mask="url(#path-6-inside-1_97_23)"/>
<path d="M690 102C695.523 102 699.911 106.512 700.837 111.957C705.019 136.563 724.437 155.981 749.043 160.163C754.488 161.089 759 165.477 759 171V1014C759 1019.52 754.488 1023.91 749.043 1024.84C724.711 1028.97 705.454 1048 700.984 1072.22C699.993 1077.59 695.633 1082 690.175 1082H158.825C153.367 1082 149.007 1077.59 148.016 1072.22C143.546 1048 124.288 1028.97 99.9568 1024.84C94.5121 1023.91 90 1019.52 90 1014V171C90 165.477 94.512 161.089 99.9568 160.163C124.563 155.981 143.981 136.563 148.163 111.957C149.089 106.512 153.477 102 159 102H690Z" fill="#5298CB"/>
<rect x="111" y="435" width="630" height="555" rx="40" fill="black"/>
<path d="M326.29 348.925L304.105 408H292.885L270.615 348.925H280.985L298.495 398.055L316.09 348.925H326.29ZM377.319 383.435C377.319 385.192 377.205 386.778 376.979 388.195H341.194C341.477 391.935 342.865 394.938 345.359 397.205C347.852 399.472 350.912 400.605 354.539 400.605C359.752 400.605 363.435 398.423 365.589 394.06H376.044C374.627 398.367 372.049 401.908 368.309 404.685C364.625 407.405 360.035 408.765 354.539 408.765C350.062 408.765 346.039 407.773 342.469 405.79C338.955 403.75 336.179 400.917 334.139 397.29C332.155 393.607 331.164 389.357 331.164 384.54C331.164 379.723 332.127 375.502 334.054 371.875C336.037 368.192 338.785 365.358 342.299 363.375C345.869 361.392 349.949 360.4 354.539 360.4C358.959 360.4 362.897 361.363 366.354 363.29C369.81 365.217 372.502 367.937 374.429 371.45C376.355 374.907 377.319 378.902 377.319 383.435ZM367.204 380.375C367.147 376.805 365.872 373.943 363.379 371.79C360.885 369.637 357.797 368.56 354.114 368.56C350.77 368.56 347.909 369.637 345.529 371.79C343.149 373.887 341.732 376.748 341.279 380.375H367.204ZM396.544 367.965C397.961 365.585 399.831 363.743 402.154 362.44C404.534 361.08 407.339 360.4 410.569 360.4V370.43H408.104C404.308 370.43 401.418 371.393 399.434 373.32C397.508 375.247 396.544 378.59 396.544 383.35V408H386.854V361.165H396.544V367.965ZM416.247 384.37C416.247 379.667 417.21 375.502 419.137 371.875C421.12 368.248 423.783 365.443 427.127 363.46C430.527 361.42 434.267 360.4 438.347 360.4C442.03 360.4 445.232 361.137 447.952 362.61C450.728 364.027 452.938 365.812 454.582 367.965V361.165H464.357V408H454.582V401.03C452.938 403.24 450.7 405.082 447.867 406.555C445.033 408.028 441.803 408.765 438.177 408.765C434.153 408.765 430.47 407.745 427.127 405.705C423.783 403.608 421.12 400.718 419.137 397.035C417.21 393.295 416.247 389.073 416.247 384.37ZM454.582 384.54C454.582 381.31 453.902 378.505 452.542 376.125C451.238 373.745 449.51 371.932 447.357 370.685C445.203 369.438 442.88 368.815 440.387 368.815C437.893 368.815 435.57 369.438 433.417 370.685C431.263 371.875 429.507 373.66 428.147 376.04C426.843 378.363 426.192 381.14 426.192 384.37C426.192 387.6 426.843 390.433 428.147 392.87C429.507 395.307 431.263 397.177 433.417 398.48C435.627 399.727 437.95 400.35 440.387 400.35C442.88 400.35 445.203 399.727 447.357 398.48C449.51 397.233 451.238 395.42 452.542 393.04C453.902 390.603 454.582 387.77 454.582 384.54ZM500.714 360.4C504.397 360.4 507.684 361.165 510.574 362.695C513.521 364.225 515.816 366.492 517.459 369.495C519.102 372.498 519.924 376.125 519.924 380.375V408H510.319V381.82C510.319 377.627 509.271 374.425 507.174 372.215C505.077 369.948 502.216 368.815 498.589 368.815C494.962 368.815 492.072 369.948 489.919 372.215C487.822 374.425 486.774 377.627 486.774 381.82V408H477.084V361.165H486.774V366.52C488.361 364.593 490.372 363.092 492.809 362.015C495.302 360.938 497.937 360.4 500.714 360.4ZM552.599 408.765C548.179 408.765 544.184 407.773 540.614 405.79C537.044 403.75 534.239 400.917 532.199 397.29C530.159 393.607 529.139 389.357 529.139 384.54C529.139 379.78 530.188 375.558 532.284 371.875C534.381 368.192 537.243 365.358 540.869 363.375C544.496 361.392 548.548 360.4 553.024 360.4C557.501 360.4 561.553 361.392 565.179 363.375C568.806 365.358 571.668 368.192 573.764 371.875C575.861 375.558 576.909 379.78 576.909 384.54C576.909 389.3 575.833 393.522 573.679 397.205C571.526 400.888 568.579 403.75 564.839 405.79C561.156 407.773 557.076 408.765 552.599 408.765ZM552.599 400.35C555.093 400.35 557.416 399.755 559.569 398.565C561.779 397.375 563.564 395.59 564.924 393.21C566.284 390.83 566.964 387.94 566.964 384.54C566.964 381.14 566.313 378.278 565.009 375.955C563.706 373.575 561.978 371.79 559.824 370.6C557.671 369.41 555.348 368.815 552.854 368.815C550.361 368.815 548.038 369.41 545.884 370.6C543.788 371.79 542.116 373.575 540.869 375.955C539.623 378.278 538.999 381.14 538.999 384.54C538.999 389.583 540.274 393.493 542.824 396.27C545.431 398.99 548.689 400.35 552.599 400.35Z" fill="black"/>
<mask id="path-11-outside-2_97_23" maskUnits="userSpaceOnUse" x="420" y="1006" width="33" height="32" fill="black">
<rect fill="white" x="420" y="1006" width="33" height="32"/>
<path d="M423.92 1030.8C426.48 1028.59 428.493 1026.77 429.96 1025.36C431.453 1023.92 432.693 1022.43 433.68 1020.88C434.667 1019.33 435.16 1017.79 435.16 1016.24C435.16 1014.64 434.773 1013.39 434 1012.48C433.253 1011.57 432.067 1011.12 430.44 1011.12C428.867 1011.12 427.64 1011.63 426.76 1012.64C425.907 1013.63 425.453 1014.96 425.4 1016.64H421C421.08 1013.6 421.987 1011.28 423.72 1009.68C425.48 1008.05 427.707 1007.24 430.4 1007.24C433.307 1007.24 435.573 1008.04 437.2 1009.64C438.853 1011.24 439.68 1013.37 439.68 1016.04C439.68 1017.96 439.187 1019.81 438.2 1021.6C437.24 1023.36 436.08 1024.95 434.72 1026.36C433.387 1027.75 431.68 1029.36 429.6 1031.2L427.8 1032.8H440.48V1036.6H421.04V1033.28L423.92 1030.8ZM443.886 1012V1007.84H452.206V1037H447.606V1012H443.886Z"/>
</mask>
<path d="M423.92 1030.8C426.48 1028.59 428.493 1026.77 429.96 1025.36C431.453 1023.92 432.693 1022.43 433.68 1020.88C434.667 1019.33 435.16 1017.79 435.16 1016.24C435.16 1014.64 434.773 1013.39 434 1012.48C433.253 1011.57 432.067 1011.12 430.44 1011.12C428.867 1011.12 427.64 1011.63 426.76 1012.64C425.907 1013.63 425.453 1014.96 425.4 1016.64H421C421.08 1013.6 421.987 1011.28 423.72 1009.68C425.48 1008.05 427.707 1007.24 430.4 1007.24C433.307 1007.24 435.573 1008.04 437.2 1009.64C438.853 1011.24 439.68 1013.37 439.68 1016.04C439.68 1017.96 439.187 1019.81 438.2 1021.6C437.24 1023.36 436.08 1024.95 434.72 1026.36C433.387 1027.75 431.68 1029.36 429.6 1031.2L427.8 1032.8H440.48V1036.6H421.04V1033.28L423.92 1030.8ZM443.886 1012V1007.84H452.206V1037H447.606V1012H443.886Z" fill="black"/>
<path d="M423.92 1030.8L424.116 1031.03L424.116 1031.03L423.92 1030.8ZM429.96 1025.36L430.168 1025.58L430.168 1025.58L429.96 1025.36ZM434 1012.48L433.768 1012.67L433.772 1012.67L434 1012.48ZM426.76 1012.64L426.533 1012.44L426.533 1012.44L426.76 1012.64ZM425.4 1016.64V1016.94H425.691L425.7 1016.65L425.4 1016.64ZM421 1016.64L420.7 1016.63L420.692 1016.94H421V1016.64ZM423.72 1009.68L423.923 1009.9L423.924 1009.9L423.72 1009.68ZM437.2 1009.64L436.99 1009.85L436.991 1009.86L437.2 1009.64ZM438.2 1021.6L437.937 1021.45L437.937 1021.46L438.2 1021.6ZM434.72 1026.36L434.504 1026.15L434.504 1026.15L434.72 1026.36ZM429.6 1031.2L429.401 1030.98L429.401 1030.98L429.6 1031.2ZM427.8 1032.8L427.601 1032.58L427.011 1033.1H427.8V1032.8ZM440.48 1032.8H440.78V1032.5H440.48V1032.8ZM440.48 1036.6V1036.9H440.78V1036.6H440.48ZM421.04 1036.6H420.74V1036.9H421.04V1036.6ZM421.04 1033.28L420.844 1033.05L420.74 1033.14V1033.28H421.04ZM423.92 1030.8L424.116 1031.03C426.678 1028.81 428.696 1026.99 430.168 1025.58L429.96 1025.36L429.752 1025.14C428.291 1026.55 426.282 1028.36 423.724 1030.57L423.92 1030.8ZM429.96 1025.36L430.168 1025.58C431.676 1024.12 432.932 1022.61 433.933 1021.04L433.68 1020.88L433.427 1020.72C432.455 1022.24 431.23 1023.72 429.752 1025.14L429.96 1025.36ZM433.68 1020.88L433.933 1021.04C434.945 1019.46 435.46 1017.85 435.46 1016.24H435.16H434.86C434.86 1017.72 434.389 1019.21 433.427 1020.72L433.68 1020.88ZM435.16 1016.24H435.46C435.46 1014.59 435.062 1013.26 434.228 1012.29L434 1012.48L433.772 1012.67C434.485 1013.51 434.86 1014.69 434.86 1016.24H435.16ZM434 1012.48L434.232 1012.29C433.408 1011.29 432.12 1010.82 430.44 1010.82V1011.12V1011.42C432.013 1011.42 433.098 1011.86 433.768 1012.67L434 1012.48ZM430.44 1011.12V1010.82C428.796 1010.82 427.48 1011.35 426.533 1012.44L426.76 1012.64L426.987 1012.84C427.8 1011.9 428.937 1011.42 430.44 1011.42V1011.12ZM426.76 1012.64L426.533 1012.44C425.623 1013.5 425.155 1014.9 425.1 1016.63L425.4 1016.64L425.7 1016.65C425.752 1015.02 426.19 1013.76 426.987 1012.84L426.76 1012.64ZM425.4 1016.64V1016.34H421V1016.64V1016.94H425.4V1016.64ZM421 1016.64L421.3 1016.65C421.378 1013.66 422.266 1011.43 423.923 1009.9L423.72 1009.68L423.517 1009.46C421.708 1011.13 420.782 1013.54 420.7 1016.63L421 1016.64ZM423.72 1009.68L423.924 1009.9C425.621 1008.33 427.772 1007.54 430.4 1007.54V1007.24V1006.94C427.641 1006.94 425.339 1007.78 423.516 1009.46L423.72 1009.68ZM430.4 1007.24V1007.54C433.251 1007.54 435.433 1008.32 436.99 1009.85L437.2 1009.64L437.41 1009.43C435.713 1007.76 433.363 1006.94 430.4 1006.94V1007.24ZM437.2 1009.64L436.991 1009.86C438.577 1011.39 439.38 1013.44 439.38 1016.04H439.68H439.98C439.98 1013.31 439.13 1011.09 437.409 1009.42L437.2 1009.64ZM439.68 1016.04H439.38C439.38 1017.91 438.901 1019.71 437.937 1021.45L438.2 1021.6L438.463 1021.75C439.472 1019.92 439.98 1018.01 439.98 1016.04H439.68ZM438.2 1021.6L437.937 1021.46C436.989 1023.19 435.845 1024.76 434.504 1026.15L434.72 1026.36L434.936 1026.57C436.315 1025.14 437.491 1023.53 438.463 1021.74L438.2 1021.6ZM434.72 1026.36L434.504 1026.15C433.178 1027.53 431.478 1029.14 429.401 1030.98L429.6 1031.2L429.799 1031.42C431.882 1029.58 433.595 1027.96 434.936 1026.57L434.72 1026.36ZM429.6 1031.2L429.401 1030.98L427.601 1032.58L427.8 1032.8L427.999 1033.02L429.799 1031.42L429.6 1031.2ZM427.8 1032.8V1033.1H440.48V1032.8V1032.5H427.8V1032.8ZM440.48 1032.8H440.18V1036.6H440.48H440.78V1032.8H440.48ZM440.48 1036.6V1036.3H421.04V1036.6V1036.9H440.48V1036.6ZM421.04 1036.6H421.34V1033.28H421.04H420.74V1036.6H421.04ZM421.04 1033.28L421.236 1033.51L424.116 1031.03L423.92 1030.8L423.724 1030.57L420.844 1033.05L421.04 1033.28ZM443.886 1012H443.586V1012.3H443.886V1012ZM443.886 1007.84V1007.54H443.586V1007.84H443.886ZM452.206 1007.84H452.506V1007.54H452.206V1007.84ZM452.206 1037V1037.3H452.506V1037H452.206ZM447.606 1037H447.306V1037.3H447.606V1037ZM447.606 1012H447.906V1011.7H447.606V1012ZM443.886 1012H444.186V1007.84H443.886H443.586V1012H443.886ZM443.886 1007.84V1008.14H452.206V1007.84V1007.54H443.886V1007.84ZM452.206 1007.84H451.906V1037H452.206H452.506V1007.84H452.206ZM452.206 1037V1036.7H447.606V1037V1037.3H452.206V1037ZM447.606 1037H447.906V1012H447.606H447.306V1037H447.606ZM447.606 1012V1011.7H443.886V1012V1012.3H447.606V1012Z" fill="black" mask="url(#path-11-outside-2_97_23)"/>
<path d="M221.81 272.735C213.2 272.735 206.13 270.705 200.6 266.645C195.07 262.515 192.095 256.635 191.675 249.005H213.62C213.83 251.595 214.6 253.485 215.93 254.675C217.26 255.865 218.975 256.46 221.075 256.46C222.965 256.46 224.505 256.005 225.695 255.095C226.955 254.115 227.585 252.785 227.585 251.105C227.585 248.935 226.57 247.255 224.54 246.065C222.51 244.875 219.22 243.545 214.67 242.075C209.84 240.465 205.92 238.925 202.91 237.455C199.97 235.915 197.38 233.71 195.14 230.84C192.97 227.9 191.885 224.085 191.885 219.395C191.885 214.635 193.075 210.575 195.455 207.215C197.835 203.785 201.125 201.195 205.325 199.445C209.525 197.695 214.285 196.82 219.605 196.82C228.215 196.82 235.075 198.85 240.185 202.91C245.365 206.9 248.13 212.535 248.48 219.815H226.115C226.045 217.575 225.345 215.895 224.015 214.775C222.755 213.655 221.11 213.095 219.08 213.095C217.54 213.095 216.28 213.55 215.3 214.46C214.32 215.37 213.83 216.665 213.83 218.345C213.83 219.745 214.355 220.97 215.405 222.02C216.525 223 217.89 223.875 219.5 224.645C221.11 225.345 223.49 226.255 226.64 227.375C231.33 228.985 235.18 230.595 238.19 232.205C241.27 233.745 243.895 235.95 246.065 238.82C248.305 241.62 249.425 245.19 249.425 249.53C249.425 253.94 248.305 257.895 246.065 261.395C243.895 264.895 240.71 267.66 236.51 269.69C232.38 271.72 227.48 272.735 221.81 272.735ZM319.262 213.095V272H298.577V263.6C296.827 266.26 294.412 268.43 291.332 270.11C288.252 271.72 284.717 272.525 280.727 272.525C273.867 272.525 268.442 270.285 264.452 265.805C260.532 261.255 258.572 255.095 258.572 247.325V213.095H279.047V244.7C279.047 248.06 279.922 250.72 281.672 252.68C283.492 254.57 285.872 255.515 288.812 255.515C291.822 255.515 294.202 254.57 295.952 252.68C297.702 250.72 298.577 248.06 298.577 244.7V213.095H319.262ZM407.94 212.57C415.36 212.57 421.17 214.81 425.37 219.29C429.64 223.77 431.775 229.895 431.775 237.665V272H411.195V240.395C411.195 237.245 410.32 234.795 408.57 233.045C406.82 231.295 404.44 230.42 401.43 230.42C398.42 230.42 396.04 231.295 394.29 233.045C392.54 234.795 391.665 237.245 391.665 240.395V272H371.085V240.395C371.085 237.245 370.21 234.795 368.46 233.045C366.78 231.295 364.435 230.42 361.425 230.42C358.345 230.42 355.93 231.295 354.18 233.045C352.43 234.795 351.555 237.245 351.555 240.395V272H330.975V213.095H351.555V220.865C353.375 218.345 355.72 216.35 358.59 214.88C361.53 213.34 364.89 212.57 368.67 212.57C373.01 212.57 376.86 213.515 380.22 215.405C383.65 217.295 386.345 219.955 388.305 223.385C390.405 220.165 393.17 217.575 396.6 215.615C400.03 213.585 403.81 212.57 407.94 212.57ZM520.015 212.57C527.435 212.57 533.245 214.81 537.445 219.29C541.715 223.77 543.85 229.895 543.85 237.665V272H523.27V240.395C523.27 237.245 522.395 234.795 520.645 233.045C518.895 231.295 516.515 230.42 513.505 230.42C510.495 230.42 508.115 231.295 506.365 233.045C504.615 234.795 503.74 237.245 503.74 240.395V272H483.16V240.395C483.16 237.245 482.285 234.795 480.535 233.045C478.855 231.295 476.51 230.42 473.5 230.42C470.42 230.42 468.005 231.295 466.255 233.045C464.505 234.795 463.63 237.245 463.63 240.395V272H443.05V213.095H463.63V220.865C465.45 218.345 467.795 216.35 470.665 214.88C473.605 213.34 476.965 212.57 480.745 212.57C485.085 212.57 488.935 213.515 492.295 215.405C495.725 217.295 498.42 219.955 500.38 223.385C502.48 220.165 505.245 217.575 508.675 215.615C512.105 213.585 515.885 212.57 520.015 212.57ZM611.405 241.865C611.405 243.475 611.3 245.085 611.09 246.695H572.135C572.345 249.915 573.22 252.33 574.76 253.94C576.37 255.48 578.4 256.25 580.85 256.25C584.28 256.25 586.73 254.71 588.2 251.63H610.145C609.235 255.69 607.45 259.33 604.79 262.55C602.2 265.7 598.91 268.185 594.92 270.005C590.93 271.825 586.52 272.735 581.69 272.735C575.88 272.735 570.7 271.51 566.15 269.06C561.67 266.61 558.135 263.11 555.545 258.56C553.025 254.01 551.765 248.655 551.765 242.495C551.765 236.335 553.025 231.015 555.545 226.535C558.065 221.985 561.565 218.485 566.045 216.035C570.595 213.585 575.81 212.36 581.69 212.36C587.5 212.36 592.645 213.55 597.125 215.93C601.605 218.31 605.105 221.74 607.625 226.22C610.145 230.63 611.405 235.845 611.405 241.865ZM590.405 236.72C590.405 234.2 589.565 232.24 587.885 230.84C586.205 229.37 584.105 228.635 581.585 228.635C579.065 228.635 577 229.335 575.39 230.735C573.78 232.065 572.73 234.06 572.24 236.72H590.405ZM640.407 223.49C642.717 220.13 645.517 217.47 648.807 215.51C652.097 213.55 655.632 212.57 659.412 212.57V234.515H653.637C649.157 234.515 645.832 235.39 643.662 237.14C641.492 238.89 640.407 241.935 640.407 246.275V272H619.827V213.095H640.407V223.49Z" fill="black"/>
<path d="M124.291 723.842L124.302 543.332L124.262 498.187C124.256 489.664 123.303 479.851 125.07 471.544C126.591 464.393 131.147 457.609 137.376 453.699C142.035 450.774 147.19 449.465 152.637 449.264C167.421 448.72 182.387 449.184 197.187 449.191L281.811 449.202L541.857 449.216L655.073 449.192L683.19 449.201C690.009 449.207 697.724 448.523 704.357 450.127C712.581 452.117 718.052 456.777 722.397 463.862C723.903 467.41 725.457 470.991 725.754 474.884C726.83 489.045 725.941 505.966 725.929 520.489L725.923 608.266L725.931 889.619L725.893 897.157L725.961 931.234C725.969 938.358 726.641 946.241 725.182 953.209C724.125 958.261 721.859 963.219 718.182 966.894C713.986 971.095 708.655 974.213 702.735 975.102C694.509 976.348 685.292 975.597 676.964 975.597L628.415 975.565L454.069 975.603C450.109 976.16 429.737 976.129 425.854 975.522C425.374 975.559 424.9 975.59 424.418 975.603C403.849 976.004 383.181 975.584 362.601 975.584L239.279 975.578L180.188 975.559C169.84 975.59 158.47 976.573 148.238 975.152C142.177 974.307 136.368 971.108 132.054 966.819C128.454 963.244 126.181 958.154 125.132 953.246C123.504 945.627 124.268 936.987 124.272 929.218L124.362 894.258L124.317 886.527C124.016 868.339 124.309 850.098 124.308 831.906L124.291 723.842Z" fill="black"/>
<path d="M124.291 723.842L124.302 543.332L124.262 498.187C124.256 489.664 123.303 479.851 125.07 471.544C126.591 464.393 131.147 457.609 137.376 453.699C142.035 450.774 147.19 449.465 152.637 449.264C167.421 448.72 182.387 449.184 197.187 449.191L281.811 449.202L541.857 449.216L655.073 449.192L683.19 449.201C690.009 449.207 697.724 448.523 704.357 450.127C712.581 452.117 718.052 456.777 722.397 463.862C718.121 484.683 712.619 505.234 705.918 525.406C703.815 531.809 701.83 538.993 698.587 544.879C704.311 552.291 708.309 561.033 707.032 570.618C706.307 576.064 703.687 580.749 699.297 584.085C695.234 587.173 690.935 588.506 685.908 589.123C679.609 589.895 672.968 589.521 666.623 589.519L634.431 589.498C594.4 589.487 554.243 588.791 514.225 589.56C517.751 590.786 547.193 589.898 553.588 589.898L677.266 589.918C659.436 621.292 637.344 650.046 611.62 675.359C607.268 679.724 602.503 685.472 597.371 688.859C563.507 653.755 525.567 628.001 478.091 614.902C464.178 611.064 449.783 608.115 435.304 607.874C380.81 606.97 329.648 635.993 291.477 673.066C276.577 687.374 263.055 703.052 251.09 719.891C223.767 719.26 196.431 719.498 169.124 720.605C154.147 721.314 139.231 723.116 124.291 723.842Z" fill="#B2E8FD"/>
<path d="M547.577 531.387C553.531 519.74 560.689 510.34 572.072 503.543C585.721 495.549 601.979 493.279 617.297 497.227C635.679 501.961 648.152 514.589 657.562 530.496C660.634 530.027 663.788 529.771 666.895 529.886C679.454 530.347 690.079 535.847 698.587 544.879C704.312 552.291 708.309 561.032 707.032 570.618C706.307 576.064 703.687 580.749 699.297 584.085C695.234 587.173 690.935 588.506 685.908 589.123C679.609 589.895 672.968 589.521 666.623 589.519L634.431 589.498C594.4 589.487 554.243 588.791 514.225 589.56C512.551 589.469 510.838 589.392 509.191 589.064C504.63 588.155 500.3 585.803 497.718 581.845C494.507 576.921 494.604 570.582 495.879 565.049C498.56 553.405 505.927 543.92 515.954 537.617C525.5 531.617 536.467 528.846 547.577 531.387Z" fill="black"/>
<path d="M511.708 581.45C510.761 581.358 509.867 581.198 508.964 580.882C506.758 580.112 504.963 578.821 503.996 576.631C501.873 571.823 503.847 565.239 505.754 560.686C511.157 547.783 524.356 538.96 538.287 538.264C540.987 538.13 549.587 540.053 551.46 538.739C553.768 537.121 555.257 533.298 556.573 530.831C562.375 519.956 571.344 511.704 582.908 507.127C596.297 501.827 610.994 502.417 624.123 508.157C625.241 508.789 626.423 509.38 627.499 510.078C635.524 514.597 642.062 521.593 647.122 529.217C648.916 531.921 650.805 535.792 653.419 537.767C655.63 539.438 663.695 537.385 666.78 537.581C680.969 538.479 694.462 547.397 698.401 561.464C699.562 565.611 699.968 570.437 697.68 574.289C695.486 577.981 690.871 580.007 686.846 580.973C679.97 582.624 662.272 581.705 654.508 581.747L569.008 581.79L530.637 581.858C524.831 581.868 517.347 582.717 511.708 581.45Z" fill="#00CAC2"/>
<path d="M511.708 581.45C510.761 581.358 509.867 581.198 508.964 580.882C506.758 580.112 504.963 578.821 503.996 576.631C501.873 571.823 503.847 565.239 505.754 560.686C511.158 547.783 524.356 538.96 538.287 538.264C540.987 538.13 549.587 540.053 551.46 538.739C553.768 537.121 555.257 533.298 556.573 530.831C562.375 519.956 571.344 511.704 582.908 507.127C596.297 501.827 610.994 502.417 624.123 508.157L588.213 556.152C582.106 564.328 574.933 572.618 569.671 581.34C550.36 581.693 531.02 581.008 511.708 581.45Z" fill="#07F8F9"/>
<path d="M627.499 510.078C635.524 514.597 642.062 521.593 647.122 529.217C648.916 531.921 650.805 535.792 653.419 537.767C655.63 539.438 663.695 537.385 666.78 537.581C680.969 538.479 694.462 547.397 698.401 561.464C699.562 565.611 699.969 570.436 697.68 574.289C695.487 577.981 690.871 580.007 686.846 580.973C679.97 582.624 662.272 581.705 654.508 581.747L569.008 581.79L530.637 581.858C524.831 581.868 517.347 582.717 511.708 581.45C531.02 581.008 550.36 581.693 569.671 581.34C599.688 580.948 629.758 581.306 659.781 581.272C649.977 557.119 639.207 533.368 627.499 510.078Z" fill="#00A281"/>
<path d="M266.033 519.233C300.985 516.052 331.875 541.858 334.954 576.811C338.033 611.764 312.13 642.571 277.159 645.546C242.334 648.508 211.677 622.743 208.611 587.935C205.545 553.127 231.226 522.401 266.033 519.233Z" fill="black"/>
<path d="M224.12 610.584C210.464 587.55 215.244 558.048 235.475 540.502C255.705 522.956 285.593 522.39 306.474 539.158C323.768 553.046 331.11 575.907 325.133 597.264C319.157 618.62 301.015 634.355 279.024 637.255C257.032 640.154 235.431 629.661 224.12 610.584Z" fill="#FEF638"/>
<path d="M306.474 539.158C323.768 553.046 331.11 575.907 325.133 597.264C319.157 618.62 301.015 634.355 279.023 637.254C257.032 640.154 235.431 629.661 224.12 610.584C234.485 612.781 245.073 614.854 255.695 613.606C271.464 611.909 285.865 603.878 295.593 591.356C304.469 580.122 308.885 566.008 307.996 551.72C307.771 547.481 306.985 543.363 306.474 539.158Z" fill="#FFDA08"/>
<path d="M206.498 638.592C207.972 638.592 209.428 638.708 210.525 639.8C211.144 640.416 211.521 641.311 211.457 642.199C211.114 646.928 195.932 660.923 191.872 664.171C191.639 664.18 191.406 664.185 191.173 664.185C189.519 664.178 188.598 663.867 187.43 662.684C187.235 662.126 186.858 661.422 186.914 660.836C187.417 655.632 202.184 642.121 206.498 638.592Z" fill="black"/>
<path d="M188.572 501.445C188.935 501.431 189.299 501.421 189.664 501.422C193.66 501.433 204.779 513.83 207.866 517.095C209.271 518.581 211.392 520.56 211.212 522.776C211.084 524.35 209.854 525.307 208.76 526.29C206.073 526.443 205.075 525.713 203.129 524.014C200.08 521.349 186.372 508.81 186.34 505.495C186.323 503.776 187.502 502.635 188.572 501.445Z" fill="black"/>
<path d="M357.012 579.144C363.939 579.021 370.979 578.732 377.9 578.98C379.946 579.053 383.78 579.603 385.09 581.333C385.543 581.931 385.758 582.548 385.669 583.288C385.45 585.116 384.016 586.203 382.635 587.229C382.237 587.28 381.838 587.322 381.438 587.355C376.879 587.744 358.432 588.757 355.281 585.476C354.613 584.781 354.372 584.053 354.415 583.111C354.493 581.403 355.844 580.214 357.012 579.144Z" fill="black"/>
<path d="M158.903 579.555C163.572 579.09 183.679 578.016 186.847 581.018C187.574 581.706 187.813 582.458 187.787 583.425C187.741 585.097 186.486 586.256 185.399 587.374C180.637 587.74 161.27 588.877 157.913 585.872C157.223 585.254 156.908 584.517 156.857 583.605C156.764 581.941 157.872 580.714 158.903 579.555Z" fill="black"/>
<path d="M350.703 501.962C352.007 502.292 353.404 502.556 354.262 503.686C354.842 504.449 355.011 505.314 354.841 506.252C354.068 510.524 339.858 524.573 336.13 527.076C335.636 527.021 335.681 527.037 335.107 526.909C333.803 526.619 332.637 526.167 331.98 524.934C331.478 523.991 331.54 522.937 331.873 521.95C333.308 517.699 346.641 503.819 350.703 501.962Z" fill="black"/>
<path d="M269.827 471.894C271.527 471.923 272.964 472.171 274.249 473.347C276.468 477.141 275.51 491.225 275.314 495.924C275.192 498.848 275.06 500.492 272.799 502.571C272.547 502.578 272.296 502.58 272.044 502.576C270.736 502.553 269.232 502.358 268.337 501.302C266.017 498.563 266.897 481.725 267.215 477.394C267.406 474.8 267.811 473.606 269.827 471.894Z" fill="black"/>
<path d="M269.397 663.461C270.861 663.405 272.308 663.207 273.463 664.295C276.465 667.122 275.369 676.826 275.281 680.8C275.198 684.552 275.616 688.038 272.714 690.816C271.292 690.874 269.633 690.967 268.497 689.95C266.874 688.497 267.011 685.476 266.994 683.455C266.952 678.383 266.134 670.784 267.56 665.988C267.86 664.982 268.68 664.191 269.397 663.461Z" fill="black"/>
<path d="M124.362 894.258L125.264 894.628C131.247 891.986 136.994 888.799 142.898 885.982C153.867 880.742 164.994 875.844 176.265 871.293C236.045 847.05 299.225 832.228 363.552 827.356C380.252 826.043 396.797 825.931 413.502 825.295C414.206 839.272 415.395 853.242 416.235 867.215C418.068 897.733 419.893 928.235 423.566 958.599C424.108 963.075 424.306 971.202 425.926 975.158L425.854 975.521C425.374 975.559 424.9 975.59 424.418 975.603C403.849 976.004 383.181 975.584 362.601 975.584L239.279 975.578L180.188 975.559C169.84 975.59 158.47 976.573 148.238 975.152C142.177 974.307 136.368 971.108 132.054 966.819C128.454 963.244 126.181 958.154 125.132 953.246C123.504 945.627 124.268 936.987 124.272 929.218L124.362 894.258Z" fill="#FEC364"/>
<path d="M299.826 865.463C300.25 865.434 300.672 865.408 301.097 865.417C302.356 865.441 303.576 865.772 304.445 866.727C307.635 870.233 306.233 881.843 305.954 886.357C305.461 894.308 304.187 905.803 297.822 911.256C295.533 913.222 292.627 914.054 289.639 913.823C285.346 913.491 277.655 910.849 274.828 907.506C274.495 907.487 274.359 907.499 274.015 907.349C270.354 905.715 265.556 899.674 263.767 896.124C262.39 893.394 261.834 890.458 262.952 887.503C266.723 877.536 290.713 869.305 299.826 865.463Z" fill="black"/>
<path d="M298.1 874.428L298.398 874.733C299.818 881.111 298.143 893.131 296.133 899.448C295.361 901.877 294.316 904.688 291.922 905.909C291.036 906.141 290.183 906.078 289.289 905.916C285.64 905.252 279.293 902.986 277.152 899.805C276.934 899.755 276.72 899.699 276.509 899.624C273.415 898.559 270.786 893.062 269.46 890.37C276.795 882.714 288.557 878.732 298.1 874.428Z" fill="#FE8214"/>
<path d="M380.486 897.013C380.593 897.051 380.701 897.082 380.808 897.12C380.986 897.176 381.162 897.239 381.339 897.301C382.434 897.664 383.477 897.933 384.222 898.879C386.787 902.147 385.798 919.019 385.4 923.558C384.77 930.733 382.706 938.853 376.877 943.624C373.537 946.353 369.485 947.305 365.24 946.842C361.545 946.435 355.924 945.176 353.476 942.146C351.87 941.983 350.197 940.424 349.113 939.26C346.138 936.073 343.324 931.71 343.675 927.158C344.583 915.388 363.939 906.673 372.989 901.627C375.366 900.3 378.234 899.042 380.256 897.226C380.335 897.157 380.41 897.088 380.486 897.013Z" fill="black"/>
<path d="M376.605 907.838L377.663 908.351C378.744 912.402 378.177 917.936 377.777 922.093C377.275 927.315 376.076 933.569 371.713 937.037C369.718 938.603 367.16 939.273 364.652 938.884C361.884 938.471 357.998 936.9 356.287 934.621C355.946 934.571 355.791 934.571 355.487 934.446C352.931 933.431 351.494 929.418 350.657 927.071C352.262 926.075 356.219 920.578 358.71 918.7C363.081 915.401 373.523 911.532 376.605 907.838Z" fill="#FE8214"/>
<path d="M698.587 544.88C701.83 538.993 703.815 531.809 705.918 525.406C712.619 505.234 718.121 484.683 722.397 463.862C723.903 467.41 725.458 470.991 725.754 474.884C726.83 489.045 725.941 505.966 725.93 520.489L725.923 608.266L725.931 889.619C639.66 843.851 540.019 820.156 442.662 817.506L441.809 775.768C458.315 777.613 473.321 781.348 488.814 787.329C494.431 789.497 509.203 799.403 513.338 799.663C518.146 799.964 524.317 794.482 528.457 792.196C531.374 790.585 534.478 789.226 537.537 787.908C551.061 782.071 565.54 778.759 580.258 778.137C597.864 777.467 615.852 781.385 632.001 788.291C636.563 790.242 643.86 794.768 648.536 795.238C649.547 795.34 650.684 794.984 651.455 794.334C652.507 793.449 652.801 792.625 652.892 791.247C653.227 786.193 650.638 779.56 649.12 774.783C638.741 742.137 620.011 714.214 597.371 688.859C602.504 685.472 607.268 679.724 611.62 675.359C637.344 650.046 659.436 621.293 677.266 589.918L553.588 589.899C547.193 589.899 517.751 590.786 514.225 589.56C554.243 588.791 594.4 589.487 634.431 589.498L666.623 589.519C672.968 589.521 679.609 589.895 685.908 589.123C690.935 588.506 695.234 587.173 699.297 584.085C703.687 580.749 706.307 576.064 707.032 570.618C708.309 561.033 704.312 552.291 698.587 544.88Z" fill="#65C8FE"/>
<path d="M443.191 825.402C513.851 827.308 583.739 840.606 650.159 864.783C671.499 872.614 692.384 881.631 712.718 891.792C715.728 893.288 722.727 897.864 725.893 897.157L725.961 931.234C725.969 938.358 726.641 946.24 725.182 953.209C724.125 958.261 721.86 963.219 718.182 966.894C713.986 971.095 708.655 974.213 702.735 975.102C694.509 976.348 685.292 975.597 676.964 975.597L628.415 975.565L454.069 975.603L454.07 975.258C454.723 972.253 450.016 937.438 449.287 929.988C446.105 895.204 444.072 860.321 443.191 825.402Z" fill="#FEC364"/>
<path d="M596.658 884.411C597.623 884.285 598.634 884.129 599.608 884.129C601.026 884.129 602.398 884.448 603.346 885.575C605.133 887.697 604.467 892.111 604.133 894.628C602.796 904.708 599.651 923.364 591.023 929.782C588.91 931.353 586.401 932.048 583.783 931.61C579.88 930.959 572.958 926.739 570.733 923.552C570.215 923.515 569.983 923.402 569.546 923.114C564.435 919.739 555.433 910.636 554.383 904.451C554.002 902.203 554.446 900.256 555.741 898.378C561.891 889.457 586.4 886.051 596.658 884.411Z" fill="black"/>
<path d="M596.273 892.23C596.303 892.293 596.342 892.349 596.362 892.412C597.51 896.18 592.704 911.676 591.169 915.695C590.216 918.187 588.573 922.738 585.973 923.903C585.622 923.903 585.384 923.921 585.048 923.859C581.582 923.208 574.087 917.742 572.131 914.624C571.716 914.53 571.627 914.537 571.205 914.286C567.637 912.189 563.222 906.398 561.886 902.535C562.46 902.372 562.269 902.466 562.732 902.216C573.316 896.45 584.644 894.722 596.273 892.23Z" fill="#FE8214"/>
<path d="M124.291 723.843C139.231 723.116 154.147 721.315 169.124 720.605C196.431 719.498 223.767 719.26 251.09 719.891C238.585 738.196 227.792 757.084 221.143 778.348C220.249 781.207 218.313 785.956 219.013 788.968C219.333 790.339 219.889 790.716 220.942 791.514C225.076 792.479 234.655 786.217 239.004 784.449C268.216 772.575 301.65 779.58 329.289 792.501C333.291 794.372 336.96 796.907 340.854 798.983C342.295 799.751 344.179 800.639 345.835 800.561C348.828 800.42 370.942 787.958 376.445 785.852C387.977 781.439 400.162 778.557 412.369 776.791C413.418 790.274 413.731 803.685 413.952 817.199C396.357 817.685 378.816 818.202 361.266 819.649C295.663 824.794 231.267 840.157 170.41 865.184C158.851 869.937 147.434 875.031 136.176 880.46C132.253 882.382 128.015 884.21 124.317 886.527C124.016 868.339 124.309 850.099 124.308 831.906L124.291 723.843Z" fill="#65C8FE"/>
<path d="M421.686 775.869L433.791 775.717C435.681 833.378 436.758 890.802 443.18 948.206C443.843 954.129 444.786 969.981 446.402 974.776C448.83 975.772 451.511 975.546 454.07 975.258L454.069 975.603C450.11 976.16 429.737 976.129 425.855 975.521L425.926 975.158C428.441 975.665 431.043 975.434 433.588 975.271C433.079 964.628 430.883 953.709 429.841 943.06C427.547 919.451 425.771 895.792 424.514 872.101C423.362 853.822 422.697 835.516 422.521 817.203C422.367 803.582 423.021 789.407 421.686 775.869Z" fill="#B46F30"/>
<path d="M429.687 615.746L432.977 617.808C468.512 637.623 488.157 677.507 498.89 715.225C505.692 739.37 509.249 764.312 509.467 789.396C493.376 779.437 475.55 772.603 456.925 769.251C451.581 768.248 446.068 767.947 440.775 766.905C408.297 765.32 376.127 773.849 348.701 791.315C349.799 768.647 352.884 746.743 359.006 724.854C369.91 685.869 392.787 636.526 429.687 615.746Z" fill="#CA23FA"/>
<path d="M432.977 617.808C468.512 637.623 488.156 677.507 498.89 715.224C505.692 739.37 509.249 764.312 509.467 789.396C493.376 779.437 475.55 772.603 456.925 769.251C451.581 768.248 446.068 767.947 440.775 766.905C442.006 766.875 443.176 766.923 444.327 766.426C445.797 760.848 446.114 754.628 446.815 748.887C451.032 714.32 449.972 678.493 441.868 644.549C439.69 635.423 435.467 627.154 433.086 618.226L432.977 617.808Z" fill="#AB1ECE"/>
<path d="M449.273 616.694C461.481 618.662 474.018 621.191 485.556 625.74C543.611 643.3 597.907 688.906 626.463 742.206C633.725 755.909 639.545 770.329 643.829 785.233C627.426 776.696 609.434 771.64 590.983 770.382C564.89 768.805 540.052 776.323 517.685 789.372C517.555 781.039 517.087 772.715 516.283 764.42C511.121 710.945 491.938 651.85 449.273 616.694Z" fill="#FEF638"/>
<path d="M485.556 625.74C543.611 643.299 597.907 688.906 626.463 742.206C633.725 755.909 639.545 770.329 643.829 785.233C627.426 776.696 609.434 771.64 590.983 770.382C589.549 762.27 586.796 754.172 584 746.441C570.565 709.935 548.19 677.377 518.922 651.746C513.5 646.963 507.856 642.435 502.009 638.18C496.611 634.273 490.753 630.543 485.858 626.024L485.556 625.74Z" fill="#FFDA08"/>
<path d="M390.759 621.582C397.22 619.384 403.676 618.242 410.33 616.837C371.581 654.063 351.365 706.149 343.328 758.45C341.736 768.807 341.803 779.252 340.454 789.579C321.203 778.348 298.085 771.404 275.787 770.568C260.186 769.23 242.511 773.448 228.755 780.736C232.67 768.013 238.252 756.094 244.859 744.561C274.882 692.15 331.738 637.627 390.759 621.582Z" fill="#FE2928"/>
<path d="M228.755 780.736C232.67 768.013 238.252 756.094 244.859 744.561C274.882 692.15 331.738 637.627 390.759 621.583C390.685 621.666 390.611 621.75 390.535 621.832C386.514 626.179 380.925 629.467 376.319 633.199C367.636 640.281 359.267 647.741 351.237 655.555C325.91 680.737 304.761 709.795 288.585 741.634C285.448 747.914 282.51 754.291 279.775 760.756C278.426 763.948 277.356 767.5 275.787 770.568C260.186 769.23 242.511 773.448 228.755 780.736Z" fill="#FF6261"/>
</svg>
