<svg width="849" height="1183" viewBox="0 0 849 1183" fill="none" xmlns="http://www.w3.org/2000/svg">
<rect x="5" y="5" width="839" height="1173" rx="45" fill="white"/>
<rect x="5" y="5" width="839" height="1173" rx="45" stroke="black" stroke-width="10"/>
<circle cx="786.5" cy="1124.5" r="11.5" fill="black"/>
<circle cx="786.5" cy="59.5" r="11.5" fill="black"/>
<path d="M77 1124.5C77 1130.85 71.8513 1136 65.5 1136C59.1487 1136 54 1130.85 54 1124.5C54 1118.15 59.1487 1113 65.5 1113C71.8513 1113 77 1118.15 77 1124.5Z" fill="black"/>
<path d="M77 59.5C77 65.8513 71.8513 71 65.5 71C59.1487 71 54 65.8513 54 59.5C54 53.1487 59.1487 48 65.5 48C71.8513 48 77 53.1487 77 59.5Z" fill="black"/>
<mask id="path-6-inside-1_97_3" fill="white">
<path d="M708 48C713.523 48 717.934 52.4996 718.616 57.9801C723.122 94.1833 751.817 122.878 788.02 127.384C793.5 128.066 798 132.477 798 138V1046C798 1051.52 793.5 1055.93 788.02 1056.62C751.817 1061.12 723.122 1089.82 718.616 1126.02C717.934 1131.5 713.523 1136 708 1136H141C135.477 1136 131.066 1131.5 130.384 1126.02C125.878 1089.82 97.1833 1061.12 60.9801 1056.62C55.4996 1055.93 51 1051.52 51 1046V138C51 132.477 55.4996 128.066 60.9801 127.384C97.1833 122.878 125.878 94.1833 130.384 57.9801C131.066 52.4996 135.477 48 141 48H708Z"/>
</mask>
<path d="M708 48C713.523 48 717.934 52.4996 718.616 57.9801C723.122 94.1833 751.817 122.878 788.02 127.384C793.5 128.066 798 132.477 798 138V1046C798 1051.52 793.5 1055.93 788.02 1056.62C751.817 1061.12 723.122 1089.82 718.616 1126.02C717.934 1131.5 713.523 1136 708 1136H141C135.477 1136 131.066 1131.5 130.384 1126.02C125.878 1089.82 97.1833 1061.12 60.9801 1056.62C55.4996 1055.93 51 1051.52 51 1046V138C51 132.477 55.4996 128.066 60.9801 127.384C97.1833 122.878 125.878 94.1833 130.384 57.9801C131.066 52.4996 135.477 48 141 48H708Z" fill="#C357B5"/>
<path d="M130.384 1126.02L138.322 1125.03L130.384 1126.02ZM718.616 1126.02L710.678 1125.03L718.616 1126.02ZM788.02 1056.62L789.008 1064.56L788.02 1056.62ZM718.616 57.9801L726.555 56.9922L718.616 57.9801ZM718.616 57.9801L710.678 58.9681C715.635 98.8063 747.194 130.365 787.032 135.322L788.02 127.384L789.008 119.445C756.44 115.392 730.608 89.5603 726.555 56.9922L718.616 57.9801ZM798 138H790V1046H798H806V138H798ZM788.02 1056.62L787.032 1048.68C747.194 1053.64 715.635 1085.19 710.678 1125.03L718.616 1126.02L726.555 1127.01C730.608 1094.44 756.44 1068.61 789.008 1064.56L788.02 1056.62ZM708 1136V1128H141V1136V1144H708V1136ZM130.384 1126.02L138.322 1125.03C133.365 1085.19 101.806 1053.64 61.9681 1048.68L60.9801 1056.62L59.9922 1064.56C92.5603 1068.61 118.392 1094.44 122.445 1127.01L130.384 1126.02ZM51 1046H59V138H51H43V1046H51ZM60.9801 127.384L61.9681 135.322C101.806 130.365 133.365 98.8063 138.322 58.9681L130.384 57.9801L122.445 56.9922C118.392 89.5603 92.5603 115.392 59.9922 119.445L60.9801 127.384ZM141 48V56H708V48V40H141V48ZM130.384 57.9801L138.322 58.9681C138.438 58.0389 138.872 57.2306 139.427 56.6958C139.954 56.1887 140.494 56 141 56V48V40C130.84 40 123.547 48.1329 122.445 56.9922L130.384 57.9801ZM51 138H59C59 137.494 59.1887 136.954 59.6958 136.427C60.2306 135.872 61.0389 135.438 61.9681 135.322L60.9801 127.384L59.9922 119.445C51.1329 120.547 43 127.84 43 138H51ZM60.9801 1056.62L61.9681 1048.68C61.0389 1048.56 60.2306 1048.13 59.6958 1047.57C59.1887 1047.05 59 1046.51 59 1046H51H43C43 1056.16 51.1329 1063.45 59.9922 1064.56L60.9801 1056.62ZM141 1136V1128C140.494 1128 139.954 1127.81 139.427 1127.3C138.872 1126.77 138.438 1125.96 138.322 1125.03L130.384 1126.02L122.445 1127.01C123.547 1135.87 130.84 1144 141 1144V1136ZM718.616 1126.02L710.678 1125.03C710.562 1125.96 710.128 1126.77 709.573 1127.3C709.046 1127.81 708.506 1128 708 1128V1136V1144C718.16 1144 725.453 1135.87 726.555 1127.01L718.616 1126.02ZM798 1046H790C790 1046.51 789.811 1047.05 789.304 1047.57C788.769 1048.13 787.961 1048.56 787.032 1048.68L788.02 1056.62L789.008 1064.56C797.867 1063.45 806 1056.16 806 1046H798ZM788.02 127.384L787.032 135.322C787.961 135.438 788.769 135.872 789.304 136.427C789.811 136.954 790 137.494 790 138H798H806C806 127.84 797.867 120.547 789.008 119.445L788.02 127.384ZM718.616 57.9801L726.555 56.9922C725.453 48.1329 718.16 40 708 40V48V56C708.506 56 709.046 56.1887 709.573 56.6958C710.128 57.2306 710.562 58.0389 710.678 58.9681L718.616 57.9801Z" fill="black" mask="url(#path-6-inside-1_97_3)"/>
<path d="M690 102C695.523 102 699.911 106.512 700.837 111.957C705.019 136.563 724.437 155.981 749.043 160.163C754.488 161.089 759 165.477 759 171V1014C759 1019.52 754.488 1023.91 749.043 1024.84C724.711 1028.97 705.454 1048 700.984 1072.22C699.993 1077.59 695.633 1082 690.175 1082H158.825C153.367 1082 149.007 1077.59 148.016 1072.22C143.546 1048 124.288 1028.97 99.9568 1024.84C94.5121 1023.91 90 1019.52 90 1014V171C90 165.477 94.512 161.089 99.9568 160.163C124.563 155.981 143.981 136.563 148.163 111.957C149.089 106.512 153.477 102 159 102H690Z" fill="#D78BCD"/>
<path d="M389.14 348.925V356.83H364.065V374.255H383.615V382.16H364.065V408H354.375V348.925H389.14ZM407.81 345.1V408H398.12V345.1H407.81ZM440.847 408.765C436.427 408.765 432.432 407.773 428.862 405.79C425.292 403.75 422.487 400.917 420.447 397.29C418.407 393.607 417.387 389.357 417.387 384.54C417.387 379.78 418.436 375.558 420.532 371.875C422.629 368.192 425.491 365.358 429.117 363.375C432.744 361.392 436.796 360.4 441.272 360.4C445.749 360.4 449.801 361.392 453.427 363.375C457.054 365.358 459.916 368.192 462.012 371.875C464.109 375.558 465.157 379.78 465.157 384.54C465.157 389.3 464.081 393.522 461.927 397.205C459.774 400.888 456.827 403.75 453.087 405.79C449.404 407.773 445.324 408.765 440.847 408.765ZM440.847 400.35C443.341 400.35 445.664 399.755 447.817 398.565C450.027 397.375 451.812 395.59 453.172 393.21C454.532 390.83 455.212 387.94 455.212 384.54C455.212 381.14 454.561 378.278 453.257 375.955C451.954 373.575 450.226 371.79 448.072 370.6C445.919 369.41 443.596 368.815 441.102 368.815C438.609 368.815 436.286 369.41 434.132 370.6C432.036 371.79 430.364 373.575 429.117 375.955C427.871 378.278 427.247 381.14 427.247 384.54C427.247 389.583 428.522 393.493 431.072 396.27C433.679 398.99 436.937 400.35 440.847 400.35ZM484.426 367.965C485.843 365.585 487.713 363.743 490.036 362.44C492.416 361.08 495.221 360.4 498.451 360.4V370.43H495.986C492.19 370.43 489.3 371.393 487.316 373.32C485.39 375.247 484.426 378.59 484.426 383.35V408H474.736V361.165H484.426V367.965Z" fill="black"/>
<mask id="path-10-outside-2_97_3" maskUnits="userSpaceOnUse" x="418" y="1006" width="21" height="31" fill="black">
<rect fill="white" x="418" y="1006" width="21" height="31"/>
<path d="M421.92 1030.8C424.48 1028.59 426.493 1026.77 427.96 1025.36C429.453 1023.92 430.693 1022.43 431.68 1020.88C432.667 1019.33 433.16 1017.79 433.16 1016.24C433.16 1014.64 432.773 1013.39 432 1012.48C431.253 1011.57 430.067 1011.12 428.44 1011.12C426.867 1011.12 425.64 1011.63 424.76 1012.64C423.907 1013.63 423.453 1014.96 423.4 1016.64H419C419.08 1013.6 419.987 1011.28 421.72 1009.68C423.48 1008.05 425.707 1007.24 428.4 1007.24C431.307 1007.24 433.573 1008.04 435.2 1009.64C436.853 1011.24 437.68 1013.37 437.68 1016.04C437.68 1017.96 437.187 1019.81 436.2 1021.6C435.24 1023.36 434.08 1024.95 432.72 1026.36C431.387 1027.75 429.68 1029.36 427.6 1031.2L425.8 1032.8H438.48V1036.6H419.04V1033.28L421.92 1030.8Z"/>
</mask>
<path d="M421.92 1030.8C424.48 1028.59 426.493 1026.77 427.96 1025.36C429.453 1023.92 430.693 1022.43 431.68 1020.88C432.667 1019.33 433.16 1017.79 433.16 1016.24C433.16 1014.64 432.773 1013.39 432 1012.48C431.253 1011.57 430.067 1011.12 428.44 1011.12C426.867 1011.12 425.64 1011.63 424.76 1012.64C423.907 1013.63 423.453 1014.96 423.4 1016.64H419C419.08 1013.6 419.987 1011.28 421.72 1009.68C423.48 1008.05 425.707 1007.24 428.4 1007.24C431.307 1007.24 433.573 1008.04 435.2 1009.64C436.853 1011.24 437.68 1013.37 437.68 1016.04C437.68 1017.96 437.187 1019.81 436.2 1021.6C435.24 1023.36 434.08 1024.95 432.72 1026.36C431.387 1027.75 429.68 1029.36 427.6 1031.2L425.8 1032.8H438.48V1036.6H419.04V1033.28L421.92 1030.8Z" fill="black"/>
<path d="M421.92 1030.8L422.116 1031.03L422.116 1031.03L421.92 1030.8ZM427.96 1025.36L428.168 1025.58L428.168 1025.58L427.96 1025.36ZM432 1012.48L431.768 1012.67L431.772 1012.67L432 1012.48ZM424.76 1012.64L424.533 1012.44L424.533 1012.44L424.76 1012.64ZM423.4 1016.64V1016.94H423.691L423.7 1016.65L423.4 1016.64ZM419 1016.64L418.7 1016.63L418.692 1016.94H419V1016.64ZM421.72 1009.68L421.923 1009.9L421.924 1009.9L421.72 1009.68ZM435.2 1009.64L434.99 1009.85L434.991 1009.86L435.2 1009.64ZM436.2 1021.6L435.937 1021.45L435.937 1021.46L436.2 1021.6ZM432.72 1026.36L432.504 1026.15L432.504 1026.15L432.72 1026.36ZM427.6 1031.2L427.401 1030.98L427.401 1030.98L427.6 1031.2ZM425.8 1032.8L425.601 1032.58L425.011 1033.1H425.8V1032.8ZM438.48 1032.8H438.78V1032.5H438.48V1032.8ZM438.48 1036.6V1036.9H438.78V1036.6H438.48ZM419.04 1036.6H418.74V1036.9H419.04V1036.6ZM419.04 1033.28L418.844 1033.05L418.74 1033.14V1033.28H419.04ZM421.92 1030.8L422.116 1031.03C424.678 1028.81 426.696 1026.99 428.168 1025.58L427.96 1025.36L427.752 1025.14C426.291 1026.55 424.282 1028.36 421.724 1030.57L421.92 1030.8ZM427.96 1025.36L428.168 1025.58C429.676 1024.12 430.932 1022.61 431.933 1021.04L431.68 1020.88L431.427 1020.72C430.455 1022.24 429.23 1023.72 427.752 1025.14L427.96 1025.36ZM431.68 1020.88L431.933 1021.04C432.945 1019.46 433.46 1017.85 433.46 1016.24H433.16H432.86C432.86 1017.72 432.389 1019.21 431.427 1020.72L431.68 1020.88ZM433.16 1016.24H433.46C433.46 1014.59 433.062 1013.26 432.228 1012.29L432 1012.48L431.772 1012.67C432.485 1013.51 432.86 1014.69 432.86 1016.24H433.16ZM432 1012.48L432.232 1012.29C431.408 1011.29 430.12 1010.82 428.44 1010.82V1011.12V1011.42C430.013 1011.42 431.098 1011.86 431.768 1012.67L432 1012.48ZM428.44 1011.12V1010.82C426.796 1010.82 425.48 1011.35 424.533 1012.44L424.76 1012.64L424.987 1012.84C425.8 1011.9 426.937 1011.42 428.44 1011.42V1011.12ZM424.76 1012.64L424.533 1012.44C423.623 1013.5 423.155 1014.9 423.1 1016.63L423.4 1016.64L423.7 1016.65C423.752 1015.02 424.19 1013.76 424.987 1012.84L424.76 1012.64ZM423.4 1016.64V1016.34H419V1016.64V1016.94H423.4V1016.64ZM419 1016.64L419.3 1016.65C419.378 1013.66 420.266 1011.43 421.923 1009.9L421.72 1009.68L421.517 1009.46C419.708 1011.13 418.782 1013.54 418.7 1016.63L419 1016.64ZM421.72 1009.68L421.924 1009.9C423.621 1008.33 425.772 1007.54 428.4 1007.54V1007.24V1006.94C425.641 1006.94 423.339 1007.78 421.516 1009.46L421.72 1009.68ZM428.4 1007.24V1007.54C431.251 1007.54 433.433 1008.32 434.99 1009.85L435.2 1009.64L435.41 1009.43C433.713 1007.76 431.363 1006.94 428.4 1006.94V1007.24ZM435.2 1009.64L434.991 1009.86C436.577 1011.39 437.38 1013.44 437.38 1016.04H437.68H437.98C437.98 1013.31 437.13 1011.09 435.409 1009.42L435.2 1009.64ZM437.68 1016.04H437.38C437.38 1017.91 436.901 1019.71 435.937 1021.45L436.2 1021.6L436.463 1021.75C437.472 1019.92 437.98 1018.01 437.98 1016.04H437.68ZM436.2 1021.6L435.937 1021.46C434.989 1023.19 433.845 1024.76 432.504 1026.15L432.72 1026.36L432.936 1026.57C434.315 1025.14 435.491 1023.53 436.463 1021.74L436.2 1021.6ZM432.72 1026.36L432.504 1026.15C431.178 1027.53 429.478 1029.14 427.401 1030.98L427.6 1031.2L427.799 1031.42C429.882 1029.58 431.595 1027.96 432.936 1026.57L432.72 1026.36ZM427.6 1031.2L427.401 1030.98L425.601 1032.58L425.8 1032.8L425.999 1033.02L427.799 1031.42L427.6 1031.2ZM425.8 1032.8V1033.1H438.48V1032.8V1032.5H425.8V1032.8ZM438.48 1032.8H438.18V1036.6H438.48H438.78V1032.8H438.48ZM438.48 1036.6V1036.3H419.04V1036.6V1036.9H438.48V1036.6ZM419.04 1036.6H419.34V1033.28H419.04H418.74V1036.6H419.04ZM419.04 1033.28L419.236 1033.51L422.116 1031.03L421.92 1030.8L421.724 1030.57L418.844 1033.05L419.04 1033.28Z" fill="black" mask="url(#path-10-outside-2_97_3)"/>
<path d="M299.07 197.975V214.355H269.46V227.375H291.3V243.02H269.46V272H248.88V197.975H299.07ZM328.317 194.3V272H307.737V194.3H328.317ZM367.442 272.735C361.562 272.735 356.277 271.51 351.587 269.06C346.967 266.61 343.327 263.11 340.667 258.56C338.007 254.01 336.677 248.655 336.677 242.495C336.677 236.405 338.007 231.085 340.667 226.535C343.397 221.985 347.072 218.485 351.692 216.035C356.382 213.585 361.667 212.36 367.547 212.36C373.427 212.36 378.677 213.585 383.297 216.035C387.987 218.485 391.662 221.985 394.322 226.535C397.052 231.085 398.417 236.405 398.417 242.495C398.417 248.585 397.052 253.94 394.322 258.56C391.662 263.11 387.987 266.61 383.297 269.06C378.607 271.51 373.322 272.735 367.442 272.735ZM367.442 254.885C370.312 254.885 372.692 253.835 374.582 251.735C376.542 249.565 377.522 246.485 377.522 242.495C377.522 238.505 376.542 235.46 374.582 233.36C372.692 231.26 370.347 230.21 367.547 230.21C364.747 230.21 362.402 231.26 360.512 233.36C358.622 235.46 357.677 238.505 357.677 242.495C357.677 246.555 358.587 249.635 360.407 251.735C362.227 253.835 364.572 254.885 367.442 254.885ZM493.835 213.095L478.82 272H455.72L447.53 236.3L439.025 272H416.03L401.12 213.095H421.595L428.21 252.155L436.925 213.095H458.975L468.005 252.26L474.515 213.095H493.835ZM555.971 241.865C555.971 243.475 555.866 245.085 555.656 246.695H516.701C516.911 249.915 517.786 252.33 519.326 253.94C520.936 255.48 522.966 256.25 525.416 256.25C528.846 256.25 531.296 254.71 532.766 251.63H554.711C553.801 255.69 552.016 259.33 549.356 262.55C546.766 265.7 543.476 268.185 539.486 270.005C535.496 271.825 531.086 272.735 526.256 272.735C520.446 272.735 515.266 271.51 510.716 269.06C506.236 266.61 502.701 263.11 500.111 258.56C497.591 254.01 496.331 248.655 496.331 242.495C496.331 236.335 497.591 231.015 500.111 226.535C502.631 221.985 506.131 218.485 510.611 216.035C515.161 213.585 520.376 212.36 526.256 212.36C532.066 212.36 537.211 213.55 541.691 215.93C546.171 218.31 549.671 221.74 552.191 226.22C554.711 230.63 555.971 235.845 555.971 241.865ZM534.971 236.72C534.971 234.2 534.131 232.24 532.451 230.84C530.771 229.37 528.671 228.635 526.151 228.635C523.631 228.635 521.566 229.335 519.956 230.735C518.346 232.065 517.296 234.06 516.806 236.72H534.971ZM584.973 223.49C587.283 220.13 590.083 217.47 593.373 215.51C596.663 213.55 600.198 212.57 603.978 212.57V234.515H598.203C593.723 234.515 590.398 235.39 588.228 237.14C586.058 238.89 584.973 241.935 584.973 246.275V272H564.393V213.095H584.973V223.49Z" fill="black"/>
<g clip-path="url(#clip0_97_3)">
<path d="M404.039 426.415C411.071 425.99 417.871 427.52 423.804 431.37C432.601 437.077 437.927 446.165 440.115 456.27C443.886 454.516 447.883 453.296 451.992 452.647C461.643 451.106 471.125 453.564 478.966 459.352C487.54 465.681 492.762 474.509 494.36 484.996C498.2 481.146 502.232 479.134 507.511 477.96C509.83 471.823 513.527 466.3 519.52 463.252C524.781 460.576 531.359 459.982 536.982 461.813C545.138 464.468 548.918 470.851 552.559 478.098C553.939 478.231 555.275 478.446 556.625 478.764C562.556 480.161 567.633 483.476 570.849 488.715C573.936 493.835 574.875 499.968 573.463 505.777C571.518 513.572 565.584 519.392 558.896 523.368C557.566 530.054 554.487 536.674 548.754 540.692C543.745 544.203 537.978 544.855 532.097 543.822C522.802 563.096 513.438 581.671 495.88 594.741C489.464 599.517 482.169 603.166 475.962 608.167C453.198 626.505 450.275 657.314 449.303 684.442C448.8 698.497 448.976 712.564 448.982 726.627C448.985 734.562 449.259 742.765 448.379 750.656C450.332 746.204 452.12 741.692 454.186 737.287C464.31 715.705 477.025 695.252 493.885 678.265C491.733 675.384 490.094 672.154 489.041 668.716C486.677 661.037 487.443 653.488 491.26 646.422C498.016 633.917 510.502 626.939 523.666 622.986C521.769 617.417 520.975 611.62 520.934 605.749C520.868 596.17 522.934 586.028 529.933 579.023C535.599 573.353 543.909 570.428 551.836 570.44C565.343 570.46 576.054 577.012 585.293 586.347C589.182 582.254 593.221 578.675 598.243 576.015C606.707 571.53 618.284 569.317 627.594 572.297C634.837 574.615 640.108 580.305 643.505 586.943C649.346 598.357 649.595 612.545 645.644 624.596C651.504 625.804 656.964 627.587 662.165 630.585C669.983 635.09 676.29 641.793 678.601 650.684C680.71 658.796 678.9 666.915 674.692 674.03C668.123 685.134 657.11 693.7 644.592 696.881C646.459 702.048 647.813 707.196 648.099 712.706C648.569 721.721 645.88 730.821 639.764 737.579C634.454 743.414 627.035 746.889 619.152 747.234C605.548 747.853 594.744 740.753 585.068 731.979C581.093 736.539 576.881 739.874 571.596 742.805C578.224 747.91 581.466 753.631 583.425 761.665C583.671 761.749 583.916 761.834 584.161 761.92C590.59 764.195 595.54 769.039 598.432 775.186C601.393 781.48 601.45 789.217 599.107 795.718C596.346 803.379 590.992 809.082 583.674 812.545C583.532 813.211 583.348 813.864 583.152 814.517C581.031 821.577 575.755 827.244 569.3 830.651C562.646 834.162 554.514 835.081 547.317 832.768C539.042 830.11 534.27 823.999 530.448 816.525C529.347 816.151 528.263 815.728 527.199 815.259C519.992 812.095 513.295 805.976 510.421 798.543C507.635 791.341 509.093 784.395 512.122 777.564C509.487 776.158 506.755 774.946 503.945 773.936C494.292 779.407 474.805 795.181 469.249 804.624C466.622 809.087 465.865 819.164 465.03 824.655C459.783 859.175 455.964 901.501 465.034 935.341C465.894 937.943 466.954 940.538 467.621 943.195C468.408 946.331 468.353 949.671 466.575 952.476C465.165 954.703 463.097 956.132 460.516 956.648C457.272 957.295 453.498 956.914 450.174 956.914L432.039 956.919L410.677 956.925C406.983 956.925 403.028 957.206 399.374 956.742C397.845 956.544 396.547 955.955 395.306 955.047C392.708 953.154 391.181 950.406 391.11 947.162C391.019 943.01 394.27 932.824 395.207 928.034C399.203 907.612 401.89 885.528 398.74 864.799C396.023 846.915 389.145 828.792 379.528 813.49C376.561 808.769 373.204 803.847 368.637 800.538C359.544 793.949 345.872 795.539 335.407 797.2C336.479 802.857 336.512 808.552 334.557 814.032C331.937 821.377 326.771 826.104 319.86 829.379C319.691 829.901 319.505 830.419 319.302 830.929C316.571 837.852 310.976 843.235 304.147 846.093C297.083 849.049 288.945 849.279 281.832 846.342C273.105 842.739 267.762 835.631 264.213 827.152C263.76 826.933 263.31 826.705 262.865 826.47C255.608 822.619 250.361 815.817 247.997 807.995C245.724 800.636 246.49 792.673 250.125 785.882C253.556 779.587 258.947 775.676 265.733 773.652C268.321 769.075 271.054 764.912 275.197 761.586C280.612 757.239 287.328 754.929 294.285 755.708C302.151 756.59 307.248 761.367 311.987 767.25L322.114 764.163C314.403 759.163 307.552 753.126 302.117 745.678C299.731 745.729 297.321 745.751 294.942 745.553C284.406 744.677 275.881 740.306 269.061 732.257C265.76 735.899 262.366 739.414 258.31 742.231C250.555 747.617 240.252 751.156 230.76 749.38C223.444 748.006 217.001 743.717 212.912 737.498C205.003 725.674 204.95 710.645 207.616 697.177C205.574 696.628 203.573 695.934 201.628 695.103C191.933 690.996 183.49 683.841 179.503 673.913C176.196 665.677 176.125 657.355 179.683 649.188C185 636.982 195.586 628.725 207.746 623.958C205.517 616.453 204.574 608.623 205.683 600.838C206.933 592.067 211.198 583.371 218.44 578.034C225.899 572.537 235.549 571.139 244.554 572.497C255.47 574.142 264.011 579.888 270.493 588.673C274.862 582.417 281.165 576.885 288.117 573.696C295.295 570.402 303.136 569.567 310.605 572.403C319.162 575.652 326.373 582.915 330.064 591.231C334.666 601.598 333.549 612.057 329.526 622.361C333.305 622.723 336.933 623.383 340.521 624.653C352.415 628.865 359.749 637.312 365 648.434C382.471 657.39 397.349 669.066 410.282 683.799C411.378 657.004 415.977 628.463 431.164 605.728C427.306 608.266 423.104 610.239 418.687 611.586C409.103 614.595 398.718 613.69 389.8 609.069C378.242 602.959 371.723 593.574 368.001 581.33C363.297 582.95 358.534 583.797 353.549 583.703C343.927 583.618 334.742 579.681 328.045 572.77C321.091 565.563 317.327 555.863 317.599 545.852C317.94 534.392 323.786 525.102 331.924 517.45C328.588 513.964 325.684 510.244 323.512 505.915C319.117 497.196 318.406 487.079 321.538 477.831C324.82 468.343 331.739 460.549 340.771 456.165C349.852 451.813 359.331 451.738 368.726 455.089C370.448 449.307 373.349 443.945 377.247 439.341C384.392 430.992 393.224 427.209 404.039 426.415Z" fill="black"/>
<path d="M359.69 519.214C359.108 517.767 358.637 516.41 357.409 515.369C354.377 512.797 350.14 511.651 346.782 509.516C337.618 503.689 331.984 492.218 336.43 481.705C338.661 476.429 343.092 471.645 348.472 469.538C353.815 467.445 359.277 468.053 364.419 470.388C368.257 472.131 373.542 476.854 377.953 475.375C379.9 474.722 381.176 473.002 381.997 471.199C383.313 468.309 383.222 465.096 383.721 462.02C385.009 454.081 389.546 446.56 397.219 443.487C402.173 441.503 407.985 441.216 412.918 443.402C418.223 445.753 421.598 450.294 423.584 455.626C424.263 457.447 424.798 459.346 425.046 461.276C425.679 466.193 425.063 472.983 430.515 475.38C432.36 476.191 433.999 476.307 435.883 475.547C438.627 474.439 441.076 472.595 443.7 471.232C450.349 467.778 458.611 466.379 465.702 469.278C470.885 471.41 474.98 475.555 477.047 480.763C479.451 486.671 479.184 493.411 476.649 499.223C475.121 502.729 472.873 505.874 470.051 508.455C465.957 512.208 458.688 514.614 461.383 521.719C462.831 525.534 468.356 527.077 471.307 529.655C478.602 536.026 481.614 547.545 477.945 556.544C475.463 562.567 470.655 567.333 464.611 569.764C458.339 572.317 451.822 572.043 445.615 569.477C442.166 568.051 437.404 563.536 433.538 565.1C432.688 565.444 431.843 566.054 431.149 566.646C429.79 568.791 429.499 570.865 429.425 573.364C429.47 574.936 429.44 576.51 429.335 578.08C428.971 583.552 426.755 588.632 422.581 592.262C418.003 596.245 411.907 598.472 405.826 598.001C401.263 597.648 396.739 595.778 393.05 593.105C377.427 581.785 385.23 568.218 380.002 562.543C378.672 561.098 377.009 560.643 375.109 560.533L373.2 561.284C369.692 563.748 365.561 565.97 361.437 567.152C355.614 568.822 348.989 568.415 343.648 565.434C338.899 562.769 335.416 558.311 333.979 553.058C332.444 547.57 333.015 541.43 335.872 536.472C339.512 530.156 345.283 526.573 352.189 524.732C353.697 524.434 355.384 524.09 356.738 523.334C358.491 522.356 359.206 521.113 359.69 519.214Z" fill="black"/>
<path d="M359.69 519.214C359.108 517.767 358.637 516.41 357.409 515.369C354.377 512.797 350.14 511.651 346.782 509.516C337.618 503.689 331.984 492.218 336.43 481.705C338.661 476.429 343.092 471.645 348.472 469.538C353.815 467.445 359.277 468.053 364.419 470.388C368.257 472.131 373.542 476.854 377.953 475.375C379.9 474.722 381.176 473.002 381.997 471.199C383.313 468.309 383.222 465.096 383.721 462.02C385.009 454.081 389.546 446.56 397.219 443.487C402.173 441.503 407.985 441.216 412.918 443.402C418.223 445.753 421.598 450.294 423.584 455.626C424.263 457.447 424.798 459.346 425.046 461.276C425.679 466.193 425.063 472.983 430.515 475.38C432.36 476.191 433.999 476.307 435.883 475.547C438.627 474.439 441.076 472.595 443.7 471.232C450.349 467.778 458.611 466.379 465.702 469.278C470.885 471.41 474.98 475.555 477.047 480.763C479.451 486.671 479.184 493.411 476.649 499.223C475.121 502.729 472.873 505.874 470.051 508.455C465.957 512.208 458.688 514.614 461.383 521.719C462.831 525.534 468.356 527.077 471.307 529.655C478.602 536.026 481.614 547.545 477.945 556.544C475.463 562.567 470.655 567.333 464.611 569.764C458.339 572.317 451.822 572.043 445.615 569.477C442.166 568.051 437.404 563.536 433.538 565.1C432.688 565.444 431.843 566.054 431.149 566.646C430.911 563.31 430.686 559.88 429.46 556.727C429.027 555.615 428.556 554.424 427.43 553.911C428.406 553.591 429.226 553.26 429.983 552.541C431.163 551.42 431.703 549.944 431.726 548.333C431.797 543.338 425.644 535.175 422.239 531.783C426.214 533.605 435.618 538.922 439.303 539.795C440.585 540.099 441.881 540.064 443.134 539.647C445.21 538.955 446.992 537.234 447.863 535.236C448.527 533.715 448.508 532.157 447.861 530.636C445.406 524.865 435.774 522.118 430.298 519.807C435.824 517.331 444.432 515.702 447.815 510.265C448.637 508.944 448.874 507.483 448.436 505.984C447.842 503.953 446.235 501.906 444.327 500.965C443.285 500.45 442.178 500.242 441.021 500.353C435.809 500.851 426.291 505.412 420.792 507.227C423.635 502.761 426.931 498.591 429.763 494.128C431.336 491.648 432.945 488.467 432.181 485.469C431.744 483.752 430.55 482.345 428.99 481.528C427.203 480.593 425.073 480.489 423.172 481.133C418.127 482.841 413.556 490.814 411.276 495.229C411.507 493.34 411.689 491.445 411.822 489.547C412.153 484.657 413.572 477.75 409.951 473.81C408.852 472.614 407.368 471.731 405.712 471.688C403.856 471.64 402.071 472.603 400.757 473.853C396.788 477.626 397.676 484.834 397.57 489.923C395.92 487.61 394.418 484.986 392.405 482.979C390.79 481.367 388.72 480.34 386.401 480.399C384.425 480.448 382.444 481.288 381.141 482.795C377.366 487.158 380.958 491.838 383.58 495.547C385.127 497.736 386.702 499.904 388.307 502.051C389.171 503.223 390.43 504.603 390.567 506.097C390.459 506.253 390.404 506.467 390.242 506.566C388.208 507.818 372.706 499.223 366.676 501.226C364.892 501.818 363.848 502.865 363.085 504.558C362.252 506.405 362.037 508.347 362.848 510.245C365.334 516.061 376.346 517.639 381.877 519.916C378.801 521.585 375.579 523.043 372.415 524.536C369.784 523.022 367.617 521.395 364.659 520.464C363.176 519.997 361.587 519.886 360.129 519.374C359.982 519.322 359.837 519.268 359.69 519.214Z" fill="#F15C8E"/>
<path d="M398.651 545.04C398.703 549.56 397.621 559.237 400.474 562.69C401.592 564.043 403.318 564.966 405.082 565.04C406.87 565.116 408.625 564.376 409.913 563.153C413.319 559.922 412.493 552.4 412.526 548.102C412.845 547.882 412.7 547.951 413.072 547.819C413.909 547.523 414.683 547.21 415.479 546.814C417.253 549.663 419.112 553.302 422.637 554.192C424.177 554.581 425.901 554.252 427.43 553.911C428.556 554.424 429.027 555.615 429.46 556.727C430.686 559.88 430.911 563.31 431.149 566.646C429.79 568.791 429.499 570.865 429.425 573.364C429.47 574.936 429.44 576.51 429.335 578.08C428.971 583.552 426.755 588.632 422.581 592.262C418.003 596.244 411.907 598.472 405.826 598.001C401.263 597.648 396.739 595.778 393.05 593.105C377.427 581.785 385.229 568.218 380.002 562.543C378.672 561.098 377.009 560.643 375.109 560.533C375.801 559.756 377.192 559.181 378.093 558.613C380.216 557.277 381.881 555.992 383.548 554.117C384.982 554.863 386.379 555.446 387.911 555.962C388.588 555.897 389.277 555.799 389.935 555.621C393.923 554.543 396.703 548.323 398.651 545.04Z" fill="#F15C8E"/>
<path d="M383.548 554.117C384.982 554.863 386.379 555.446 387.911 555.962C387.87 556.111 387.834 556.26 387.789 556.406C387.156 558.493 385.402 560.179 384.407 562.091C382.448 565.855 384.071 572.278 385.84 575.899C388.475 581.258 393.158 585.329 398.831 587.193C404.814 589.208 411.935 588.734 417.569 585.887C422.885 583.201 426.866 578.713 429.425 573.364C429.47 574.936 429.44 576.511 429.335 578.08C428.971 583.552 426.755 588.632 422.581 592.262C418.003 596.245 411.907 598.472 405.826 598.001C401.263 597.648 396.739 595.778 393.05 593.105C377.427 581.785 385.229 568.218 380.002 562.543C378.672 561.098 377.009 560.643 375.109 560.533C375.801 559.756 377.192 559.181 378.093 558.613C380.216 557.277 381.881 555.992 383.548 554.117Z" fill="#F15C8E"/>
<path d="M359.69 519.214C359.837 519.268 359.982 519.322 360.129 519.374C361.587 519.886 363.176 519.997 364.659 520.464C367.617 521.395 369.784 523.022 372.415 524.536C368.976 526.317 364.794 528.857 363.549 532.778C363.493 532.958 363.44 533.14 363.391 533.323C363.942 535.844 364.829 538.198 367.162 539.606C369.183 540.826 371.504 540.769 373.709 540.153C376.137 539.475 378.503 538.15 380.763 537.047C381.565 538.761 382.617 540.347 383.884 541.752C382.319 544.101 380.268 546.654 380.764 549.667C381.043 551.366 382.233 553.044 383.548 554.117C381.881 555.992 380.216 557.277 378.093 558.613C377.192 559.181 375.801 559.756 375.109 560.533L373.2 561.284C369.692 563.748 365.561 565.97 361.437 567.152C355.614 568.822 348.989 568.415 343.648 565.434C338.899 562.769 335.416 558.311 333.979 553.058C332.444 547.57 333.015 541.43 335.872 536.472C339.512 530.156 345.283 526.573 352.189 524.732C353.697 524.433 355.384 524.09 356.738 523.334C358.491 522.356 359.206 521.113 359.69 519.214Z" fill="#F15C8E"/>
<path d="M373.2 561.284C369.692 563.748 365.561 565.97 361.437 567.152C355.614 568.822 348.989 568.416 343.648 565.434C338.899 562.769 335.416 558.311 333.979 553.058C332.444 547.57 333.015 541.43 335.872 536.473C339.512 530.156 345.283 526.573 352.189 524.732C352.097 524.874 352.008 525.017 351.913 525.157C350.868 526.704 348.909 527.927 347.593 529.282C343.996 532.982 342.982 539.013 343.771 543.975C344.715 549.636 347.881 554.687 352.565 558.005C357.633 561.589 362.874 562.394 368.908 561.639C370.242 561.472 371.891 560.98 373.2 561.284Z" fill="#F15C8E"/>
<path d="M380.763 537.047C384.355 534.93 388.485 533.445 391.85 531.046C388.829 534.339 386.402 538.074 383.884 541.752C382.617 540.347 381.565 538.761 380.763 537.047Z" fill="#F15C8E"/>
<path d="M412.492 542.511L415.479 546.814C414.683 547.21 413.909 547.523 413.072 547.819C412.7 547.951 412.845 547.882 412.526 548.102L412.492 542.511Z" fill="#F15C8E"/>
<path d="M404.839 511.801C407.346 510.973 410.105 511.562 412.056 513.341C414.007 515.119 414.848 517.811 414.255 520.384C413.663 522.957 411.73 525.011 409.197 525.757C405.368 526.886 401.341 524.734 400.151 520.923C398.961 517.112 401.048 513.052 404.839 511.801Z" fill="#F89B58"/>
<path d="M227.485 634.563C227.507 634.482 227.53 634.403 227.55 634.322C228.505 630.495 222.987 622.234 221.702 618.081C218.915 609.07 219.378 595.706 228.207 590.061C232.671 587.206 238.859 586.713 243.931 587.912C248.6 589.016 252.527 591.444 255.804 594.924C257.418 596.639 258.809 598.516 260.11 600.476C262.709 604.392 267.306 613.634 273.181 609.957C276.04 608.168 277.591 604.313 279.447 601.611C285.023 593.491 293.541 584.232 304.424 586.425C308.812 587.31 312.522 590.263 314.92 593.973C318.261 599.143 318.835 605.603 317.477 611.513C316.907 614.02 315.989 616.434 314.751 618.687C312.276 623.268 307.052 629.237 310.204 634.656C310.939 635.92 312.655 636.746 314.032 637.04C317.224 637.72 320.877 637.035 324.129 637.03C333.43 637.018 342.787 640.535 348.221 648.402C351.282 652.834 352.465 658.037 351.427 663.339C350.305 669.069 346.89 673.901 342.039 677.101C338.729 679.285 334.927 680.83 331.073 681.736C326.756 682.75 315.548 682.043 314.553 687.077C313.671 691.537 316.804 696.437 318.014 700.61C320.796 710.201 319.276 720.996 310.62 727.061C305.665 730.532 299.789 731.801 293.834 730.713C287.245 729.51 282.267 725.705 278.513 720.261C276.189 716.893 273.486 710.491 269.167 709.747C267.746 709.502 266.383 709.968 265.265 710.844C262.323 713.149 260.781 717.629 258.764 720.732C253.712 728.504 244.157 735.766 234.383 734.715C230.884 734.339 227.899 732.503 225.764 729.742C220.685 723.176 220.277 713.176 221.343 705.293C221.489 704.212 221.648 703.109 221.875 702.042C222.46 698.655 225.376 690.865 225.036 688.242C224.85 686.798 224.06 685.789 222.739 685.199C220.851 684.356 218.393 684.344 216.363 684.056C210.63 683.243 204.92 681.106 200.251 677.631C196.038 674.495 192.779 669.867 192.033 664.593C191.278 659.264 192.962 653.986 196.189 649.736C200.724 643.764 208.689 638.154 216.285 637.261C218.831 636.962 221.458 637.513 223.994 637.097C225.614 636.831 226.364 636.136 227.305 634.82L227.485 634.563Z" fill="black"/>
<path d="M227.485 634.563C227.507 634.482 227.53 634.403 227.55 634.322C228.505 630.495 222.987 622.234 221.702 618.081C218.915 609.07 219.378 595.706 228.207 590.061C232.671 587.206 238.859 586.713 243.931 587.912C248.6 589.016 252.527 591.444 255.804 594.924C257.418 596.639 258.809 598.516 260.11 600.476C262.709 604.392 267.306 613.634 273.181 609.957C276.04 608.168 277.591 604.313 279.447 601.611C285.023 593.491 293.541 584.232 304.424 586.425C308.812 587.31 312.522 590.263 314.92 593.973C318.262 599.143 318.835 605.603 317.477 611.513C316.907 614.02 315.989 616.434 314.751 618.687C312.276 623.268 307.052 629.237 310.204 634.656C310.939 635.92 312.655 636.746 314.032 637.04C317.224 637.72 320.877 637.035 324.129 637.03C333.43 637.018 342.787 640.535 348.221 648.402C351.282 652.834 352.465 658.037 351.427 663.339C350.305 669.069 346.89 673.901 342.039 677.101C338.729 679.285 334.927 680.83 331.073 681.736C326.756 682.75 315.548 682.043 314.553 687.077C313.671 691.537 316.804 696.437 318.014 700.61C320.796 710.201 319.276 720.996 310.62 727.061C305.665 730.532 299.789 731.801 293.834 730.713C287.245 729.51 282.267 725.705 278.513 720.261C276.189 716.893 273.486 710.491 269.167 709.747C267.746 709.502 266.383 709.968 265.265 710.844C262.323 713.149 260.781 717.629 258.764 720.732C253.712 728.504 244.157 735.766 234.383 734.715C230.884 734.339 227.899 732.503 225.764 729.742C220.685 723.176 220.277 713.176 221.343 705.293C221.489 704.212 221.648 703.109 221.875 702.042L222.914 702.485C225.089 709.155 226.45 714.491 233.226 717.863C238.054 720.266 243.743 720.468 248.818 718.734C255.082 716.595 261.007 711.579 263.799 705.545C264.206 704.664 264.454 703.671 265.026 702.883C266.093 704.413 267.315 705.418 269.191 705.771C271.187 706.148 273.269 705.579 274.876 704.358C278.321 701.738 277.599 698.634 278.091 694.913L278.122 694.694C280.199 692.83 281.528 690.457 282.872 688.049C284.59 689.762 286.114 691.09 288.331 692.131C289.564 692.064 290.713 691.923 291.92 691.667C293.448 693.402 295.276 694.665 297.659 694.759C299.581 694.837 301.448 694.103 302.803 692.737C304.246 691.299 305.017 689.321 304.93 687.286C304.688 681.501 297.623 675.769 293.776 672.044C297.202 671.824 301.333 671.943 304.546 670.662C306.371 669.934 307.338 668.804 308.077 667.022C309.746 666.633 311.187 666.189 312.527 665.052C313.942 663.851 314.837 662.189 314.981 660.333C315.127 658.304 314.437 656.303 313.071 654.795C311.369 652.927 309.416 652.465 307.001 652.32L306.381 652.011C305.692 650.664 304.588 648.098 303.387 647.228C301.895 646.147 300.017 646.62 298.392 647.012C299.539 645.071 301.091 642.802 301.349 640.524C301.484 639.331 301.351 638.457 300.613 637.506C302.069 635.358 302.921 633.689 302.687 630.977C302.513 628.956 301.671 626.82 300.048 625.531C298.907 624.626 297.477 624.301 296.045 624.457C291.154 624.991 287.838 629.84 284.933 633.342C283.542 630.147 281.077 627.317 279.846 624.149C279.313 622.778 279.341 620.397 278.438 619.285C278.259 619.064 277.662 618.788 277.401 618.621C276.046 616.321 274.452 614.178 271.732 613.432C270.364 613.056 268.89 613.178 267.648 613.885C265.736 614.973 264.616 617.372 264.111 619.423C263.969 620.02 263.844 620.619 263.735 621.222C260.239 623.162 258.228 630.576 256.981 634.299C254.493 630.843 251.756 625.693 247.24 624.837C245.44 624.496 243.476 624.742 241.966 625.831C240.581 626.83 239.735 628.386 239.55 630.074C239.249 632.808 240.433 635.317 241.625 637.689L241.174 639.9C239.853 639.334 238.576 638.439 237.279 637.784C234.071 636.163 230.982 635.277 227.485 634.563Z" fill="#FFBB00"/>
<path d="M227.485 634.563C230.982 635.277 234.071 636.163 237.279 637.784C238.576 638.439 239.853 639.334 241.174 639.9L240.978 643.168C242.242 645.163 243.839 646.422 245.687 647.837C243.644 647.71 242.469 647.987 240.91 649.355C239.928 650.233 238.968 651.133 238.031 652.057C237.354 652.072 236.351 651.971 235.759 652.266C232.767 652.454 229.294 652.72 227.178 655.138C226.148 656.313 225.666 657.871 225.853 659.422C226.084 661.443 227.344 663.159 228.955 664.332C230.711 665.611 232.711 666.215 234.811 666.636C237.087 669.216 241.35 669.911 244.339 671.435C242.662 672.212 239.709 673.178 238.953 674.971C238.602 675.803 238.807 676.638 239.217 677.393C239.725 678.327 240.437 679.091 241.157 679.862C239.37 682.296 237.383 684.813 237.854 688.043C238.149 690.066 239.364 691.851 241.029 693.008C242.8 694.236 245.083 694.869 247.211 694.36C248.731 693.997 249.552 692.888 250.493 691.741C251.249 692.334 252.1 692.738 252.95 693.178C257.43 692.448 260.837 691.279 264.433 688.455C264.287 693.241 263.313 698.298 265.026 702.883C264.454 703.671 264.206 704.664 263.799 705.545C261.007 711.579 255.082 716.595 248.818 718.734C243.743 720.468 238.054 720.266 233.226 717.863C226.45 714.491 225.089 709.155 222.914 702.485L221.875 702.042C222.46 698.655 225.376 690.865 225.036 688.242C224.85 686.798 224.06 685.789 222.739 685.199C220.851 684.356 218.393 684.344 216.363 684.056C210.63 683.243 204.92 681.106 200.251 677.631C196.038 674.495 192.779 669.867 192.033 664.593C191.278 659.264 192.962 653.986 196.189 649.736C200.724 643.764 208.689 638.154 216.285 637.261C218.831 636.962 221.458 637.513 223.994 637.097C225.614 636.831 226.364 636.136 227.305 634.82L227.485 634.563Z" fill="#FFBB00"/>
<path d="M250.493 691.741C253.182 686.985 260.874 678.192 265.35 675.308C265.075 679.673 264.953 684.115 264.433 688.455C260.837 691.279 257.43 692.448 252.95 693.178C252.1 692.738 251.249 692.334 250.493 691.741Z" fill="#DDFF00"/>
<path d="M300.613 637.506C301.351 638.457 301.484 639.331 301.349 640.524C301.091 642.802 299.539 645.071 298.393 647.012C300.017 646.62 301.895 646.147 303.387 647.228C304.588 648.098 305.692 650.663 306.381 652.01L307.001 652.32C303.461 652.216 299.958 652.154 296.43 652.55C292.944 652.941 289.514 653.704 286.024 654.084C291.115 648.567 296.075 643.517 300.613 637.506Z" fill="#DDFF00"/>
<path d="M278.122 694.694C278.157 688.246 278.869 681.784 277.914 675.355C282.687 680.579 287.698 686.005 291.92 691.667C290.713 691.923 289.564 692.064 288.331 692.131C286.114 691.09 284.59 689.762 282.872 688.049C281.528 690.457 280.199 692.83 278.122 694.694Z" fill="#DDFF00"/>
<path d="M234.812 666.636C240.663 666.947 248.987 665.863 254.372 667.104C249.784 671.263 245.054 674.99 241.157 679.862C240.437 679.091 239.725 678.327 239.217 677.393C238.807 676.638 238.602 675.803 238.953 674.971C239.709 673.178 242.662 672.212 244.339 671.435C241.35 669.911 237.087 669.216 234.812 666.636Z" fill="#DDFF00"/>
<path d="M241.625 637.689C245.55 643.896 250.258 649.302 255.316 654.596C248.833 653.565 242.341 652.317 235.759 652.265C236.351 651.971 237.354 652.072 238.031 652.057C238.968 651.133 239.928 650.233 240.91 649.355C242.469 647.987 243.644 647.71 245.687 647.837C243.839 646.422 242.242 645.163 240.978 643.168L241.174 639.9L241.625 637.689Z" fill="#DDFF00"/>
<path d="M256.981 634.299C258.228 630.576 260.239 623.162 263.735 621.222C263.303 629.751 264.099 638.242 265.051 646.71C262.392 642.552 259.598 638.482 256.981 634.299Z" fill="#DDFF00"/>
<path d="M277.401 618.621C277.662 618.788 278.259 619.064 278.438 619.285C279.341 620.397 279.313 622.778 279.846 624.149C281.077 627.317 283.542 630.147 284.933 633.342C282.295 636.636 279.718 639.96 277.42 643.504C277.308 635.805 279.112 625.942 277.401 618.621Z" fill="#DDFF00"/>
<path d="M286.321 665.812C293.612 666.396 300.76 666.882 308.077 667.022C307.338 668.804 306.371 669.934 304.547 670.662C301.333 671.943 297.202 671.824 293.776 672.044C291.278 669.981 288.794 667.904 286.321 665.812Z" fill="#DDFF00"/>
<path d="M269.974 654.082C273.849 653.36 277.576 655.913 278.304 659.786C279.032 663.66 276.485 667.391 272.613 668.125C268.732 668.861 264.99 666.308 264.261 662.426C263.531 658.543 266.09 654.806 269.974 654.082Z" fill="#F89B58"/>
<path d="M539.804 622.666C536.472 615.353 534.48 606.867 536.268 598.891C537.279 594.381 539.491 590.187 543.551 587.709C547.545 585.271 552.486 585.168 556.938 586.193C564.842 588.015 572.383 593.785 576.652 600.631C578.457 603.497 580.737 607.342 584.335 608.107C585.735 608.405 587.136 608.044 588.315 607.261C590.625 605.73 592.005 603.12 593.466 600.845C598.307 593.741 605.204 588.203 613.787 586.538C617.843 585.751 621.846 585.858 625.418 588.212C629.675 591.018 631.984 596.121 632.911 600.984C634.841 611.116 631.639 619.612 627.261 628.566C626.572 630.833 625.809 633.221 626.975 635.483C627.618 636.73 628.659 637.545 629.841 638.247C632.199 638.388 634.555 638.275 636.91 638.402C641.175 638.631 645.274 639.653 649.359 640.842C654.995 642.655 660.505 645.424 663.331 650.924C665.147 654.457 665.356 658.576 664.134 662.326C661.717 669.737 654.212 676.59 647.402 679.995C645.1 681.147 642.723 681.983 640.179 682.394C635.895 683.086 630.065 682.159 626.989 685.76C626.358 687.147 625.691 689.279 625.872 690.809C626.145 693.121 627.769 695.155 628.779 697.188C631.902 703.474 634.347 711.807 632.813 718.841C631.842 723.29 629.142 727.557 625.221 729.98C621.192 732.469 616.214 732.624 611.709 731.555C604.588 729.866 598.112 724.883 593.977 718.921C592.918 717.396 592.141 715.698 591.165 714.122C590.216 712.59 588.983 711.032 587.121 710.653C579.96 709.198 577.805 716.727 574.597 721.197C572.879 723.606 570.714 725.662 568.218 727.252C563.571 730.14 557.96 731.046 552.64 729.765C548.266 728.699 544.525 726.11 542.204 722.224C538.154 715.441 537.951 704.823 539.847 697.346C540.629 694.259 542.085 691.375 542.871 688.272L542.975 687.854C542.808 687.141 542.644 686.42 542.383 685.734C541.902 684.467 541.198 683.451 539.97 682.816C536.427 680.984 531.223 681.321 527.309 680.654C523.574 679.978 519.931 678.868 516.454 677.345C511.025 674.905 505.783 670.788 503.674 665.035C502.252 661.208 502.419 656.972 504.136 653.269C508.272 644.372 519.633 639.188 528.626 637.034C531.736 636.29 535.178 636.134 538.152 634.968C539.807 634.32 540.921 633.532 541.593 631.85C542.882 628.63 541.127 625.545 539.804 622.666Z" fill="#FF0C5F"/>
<path d="M593.466 600.845C598.307 593.741 605.204 588.203 613.787 586.538C617.843 585.751 621.846 585.858 625.418 588.212C629.675 591.018 631.984 596.121 632.911 600.984C634.841 611.116 631.639 619.612 627.261 628.566C624.602 625.543 625.767 618.344 625.477 614.433C625.317 612.27 624.834 610.119 624.158 608.061C622.889 604.198 620.74 600.16 616.919 598.319C610.328 595.144 602.2 598.912 595.895 601.018C594.824 601.375 594.474 601.358 593.466 600.845Z" fill="#F57F7F"/>
<path d="M649.359 640.842C654.995 642.655 660.505 645.424 663.331 650.924C665.147 654.457 665.356 658.577 664.134 662.326C661.717 669.737 654.212 676.59 647.402 679.995C645.1 681.147 642.723 681.983 640.178 682.394C635.894 683.086 630.065 682.159 626.989 685.76C625.828 684.257 622.626 682.451 620.777 680.047C630.594 679.506 637.686 678.447 645.807 672.384C652.524 667.369 657.259 658.672 654.168 650.181C653.478 648.285 649.269 642.168 649.224 641.791C649.186 641.474 649.314 641.158 649.359 640.842Z" fill="#F57F7F"/>
<path d="M539.804 622.666C536.472 615.353 534.48 606.867 536.268 598.891C537.279 594.381 539.491 590.187 543.551 587.709C547.545 585.271 552.486 585.168 556.938 586.193C564.842 588.015 572.384 593.785 576.652 600.631L576.568 601.486C575.252 601.595 571.19 598.827 569.602 598.211C561.271 594.971 550.58 595.695 544.549 602.904C541.66 606.356 539.479 611.974 539.918 616.475C540.117 618.51 540.799 620.805 539.804 622.666Z" fill="#F57F7F"/>
<path d="M576.238 626.275C576.122 622.473 575.276 617.676 578.212 614.723C579.768 613.158 582.08 612.447 584.251 612.489C586.491 612.533 588.545 613.439 590.051 615.106C593.821 619.274 592.726 627.72 592.674 632.998C593.705 633.59 594.343 633.946 594.829 635.08C599.053 630.815 604.127 624.737 610.697 624.635C612.17 624.612 613.512 625.013 614.592 626.047C616.363 627.744 617.446 631.267 617.41 633.717C617.349 637.881 613.35 641.475 610.512 644.108L606.998 647.329C607.101 647.38 607.201 647.436 607.307 647.482C607.725 647.668 608.064 647.749 608.501 647.854C609.26 648.036 609.917 648.235 610.376 648.925C610.666 649.362 610.755 649.828 610.866 650.328C615.969 650.856 623.726 650.471 627.345 654.696C628.508 656.053 629.225 657.813 629.032 659.617C628.824 661.551 627.592 663.282 626.072 664.435C622 667.523 615.881 667.068 611.084 666.84C609.736 668.389 607.85 668.816 605.961 669.405C610.021 673.631 616.833 680.087 616.758 686.416C616.733 688.529 615.767 690.323 614.239 691.742C612.832 693.05 611.228 693.598 609.318 693.504C607.9 693.436 606.579 692.997 605.227 692.608C603.835 692.912 602.215 692.81 600.962 692.07C599.917 691.454 597.833 689.47 596.632 689.708C594.842 690.064 594.292 689.865 592.699 689.038C592.704 690.408 593.06 694.824 592.485 695.853C592.452 697.938 592.133 700.018 590.976 701.799C589.44 704.164 587.113 705.041 584.49 705.609C582.633 705.17 581.042 704.445 579.696 703.052C575.208 698.404 576.619 688.813 576.795 682.801C574.638 685.771 567.116 692.614 563.705 693.217C563.102 693.324 562.457 693.254 561.864 693.128C560.74 693.715 559.527 694.2 558.247 694.268C555.751 694.399 553.051 693.334 551.247 691.623C549.739 690.193 548.955 688.299 548.979 686.225C549.045 680.777 554.835 675.55 558.503 672.013C555.799 671.749 554.043 670.841 551.943 669.203C550.065 669.315 549.038 669.189 547.381 668.264C545.305 667.899 543.275 667.123 541.664 665.735C539.903 664.218 538.847 662.111 538.738 659.782C538.65 657.884 539.233 656.14 540.538 654.746C545.234 649.734 556.784 650.109 563.059 650C558.463 645.84 549.592 640.15 549.185 633.383C549.036 630.896 549.92 628.323 551.627 626.497C552.984 625.046 554.807 624.211 556.802 624.231C563.259 624.296 569.607 630.925 573.791 635.195C574.046 633.028 573.326 630.654 573.948 628.58C574.336 627.289 575.096 626.843 576.238 626.275Z" fill="black"/>
<path d="M591.719 679.606C595.223 683.233 601.316 689.852 605.227 692.608C603.835 692.912 602.215 692.81 600.962 692.07C599.917 691.454 597.833 689.47 596.632 689.708C594.842 690.064 594.292 689.865 592.699 689.039C592.704 690.408 593.06 694.824 592.485 695.853C592.162 690.401 592.92 684.997 591.719 679.606Z" fill="#F15C8E"/>
<path d="M561.864 693.128C567.445 689.012 572.341 683.6 577.181 678.652C577.03 680.032 576.902 681.416 576.795 682.801C574.638 685.771 567.116 692.614 563.705 693.217C563.102 693.324 562.457 693.254 561.864 693.128Z" fill="#F15C8E"/>
<path d="M547.381 668.264C553.446 668.226 559.759 667.562 565.656 666.124C563.23 668.041 560.799 669.94 558.503 672.013C555.799 671.749 554.043 670.841 551.943 669.203C550.065 669.315 549.038 669.189 547.381 668.264Z" fill="#F15C8E"/>
<path d="M576.238 626.275C576.363 630.345 576.542 634.415 576.775 638.481C575.764 637.407 574.699 636.357 573.791 635.195C574.047 633.028 573.326 630.654 573.948 628.58C574.336 627.289 575.096 626.843 576.238 626.275Z" fill="#F15C8E"/>
<path d="M601.966 665.857C604.981 666.536 608.059 666.329 611.085 666.84C609.736 668.389 607.85 668.816 605.961 669.405C604.708 668.123 603.346 666.998 601.966 665.857Z" fill="#F15C8E"/>
<path d="M606.998 647.329C607.101 647.38 607.201 647.436 607.307 647.482C607.725 647.668 608.064 647.749 608.501 647.854C609.26 648.036 609.917 648.235 610.376 648.925C610.666 649.362 610.755 649.828 610.866 650.328L603.844 650.189C604.841 649.175 605.924 648.26 606.998 647.329Z" fill="#F15C8E"/>
<path d="M592.675 632.998C593.705 633.59 594.343 633.946 594.829 635.08L592.376 637.659L592.675 632.998Z" fill="#F15C8E"/>
<path d="M582.257 654.491C583.422 654.427 584.685 654.471 585.8 654.839C587.491 655.381 588.881 656.603 589.635 658.211C590.475 660.028 590.417 662.173 589.621 663.994C588.583 666.365 586.869 667.451 584.584 668.381C583.289 668.573 582.039 668.57 580.78 668.163C579.187 667.648 577.877 666.547 577.147 665.034C576.285 663.235 576.221 661.157 576.97 659.309C577.952 656.841 579.887 655.48 582.257 654.491Z" fill="#FFFB00"/>
<path d="M515.296 527.105C515.621 527.41 515.547 527.271 515.699 527.643C516.676 530.032 517.84 532.186 519.382 534.26C513.599 548.138 506.885 563.199 496.388 574.221C489.877 581.059 482.332 585.605 474.52 590.732C458.712 601.106 448.53 614.954 442.5 632.756C438.342 645.033 436.405 657.7 435.385 670.591C433.78 690.872 434.665 711.264 434.376 731.583L433.431 772.924C433.35 778.274 432.893 834.665 433.756 836.065C434.032 836.512 434.717 836.795 435.22 836.816C436.841 836.886 437.956 835.171 438.572 833.889C440.433 830.011 441.507 823.059 442.568 818.703C444.519 810.765 446.608 802.862 448.834 794.997C460.742 753.448 475.21 719.12 505.766 687.674C507.813 689 510.07 690.066 512.229 691.202C493.23 709.758 480.189 731.983 470.121 756.428C467.083 763.803 463.898 771.676 462.498 779.549C484.419 756.701 507.108 745.864 536.951 736.529C538.617 738.136 540.434 739.508 542.37 740.772C532.01 744.088 520.287 748.416 510.767 753.628C519.021 755.117 527.997 759.88 534.424 765.18C532.16 766.466 530.621 767.834 528.965 769.836C521.226 765.059 512.756 760.11 503.395 759.788C502.143 759.746 500.789 759.799 499.605 760.241C491.931 763.103 475.837 776.659 469.589 782.54C464.304 787.514 457.645 793.782 454.78 800.488C452.697 805.365 452.243 811.769 451.426 817.012C447.924 838.816 445.794 860.818 445.046 882.888C443.801 902.814 446.725 922.962 451.356 942.289L407.09 942.255C413.605 913.619 417.829 882.139 411.489 853.086C410.416 848.095 409.021 843.179 407.312 838.37C402.105 823.877 388.682 795.718 375.625 787.499C362.009 778.928 342.256 780.867 327.222 784.367C324.769 782.361 322.444 780.563 319.585 779.153C329.332 775.955 340.582 774.21 350.833 773.874C355.223 773.73 359.615 773.992 364.006 773.951C358.016 768.006 347.399 762.629 340.064 757.945C331.537 752.499 323.835 746.539 316.265 739.852L318.987 738.181C321.2 740.331 323.675 742.235 326.09 744.152C332.355 749.11 338.921 753.676 345.751 757.824C352.263 761.832 358.89 765.535 365.203 769.878C393.66 789.456 411.644 820.068 419.68 853.312C421.649 861.459 422.388 869.693 423.9 877.9C425.4 869.915 424.932 861.123 424.974 853.019L425.294 830.105C425.522 801.634 425.49 773.161 425.197 744.689C425.004 731.398 424.919 718.104 424.943 704.811C424.937 691.427 424.883 678.104 426.555 664.794C428.211 651.434 431.684 638.362 436.879 625.942C442.922 611.599 453.878 593.442 467.672 585.654C469.81 584.447 472.213 583.603 474.448 582.578C479.973 580.045 484.65 576.792 488.998 572.545C501.399 560.429 508.713 542.858 515.296 527.105Z" fill="#40A43D"/>
<path d="M356.068 684.613C359.985 685.37 372.973 697.021 376.426 700.433C389.23 713.08 399.208 727.002 406.629 743.422C407.89 746.212 409.769 749.492 410.204 752.542C410.824 756.884 410.215 761.712 410.199 766.124L410.217 796.613C406.775 790.558 402.472 785.055 397.97 779.763C382.105 761.515 364.087 753.043 344.676 739.891C339.248 736.213 334.263 732.224 329.24 728.014C329.629 727.328 330.009 726.638 330.379 725.943C335.122 716.969 335.297 706.519 332.316 696.985C341.588 695.063 349.239 691.2 356.068 684.613Z" fill="#D78BCD"/>
<path d="M556.262 753.88C557.789 753.619 559.353 753.654 560.866 753.984C570.8 756.121 567.278 768.342 570.601 773.07C572.344 775.55 575.888 775.324 578.572 775.736C580.836 776.084 583.108 777.198 584.441 779.108C586.374 781.879 586.468 786.021 585.882 789.259C584.157 798.786 578.853 797.19 573.107 801.301C570.491 803.172 570.636 805.272 570.108 808.14C569.465 811.633 566.794 815.069 563.867 816.977C560.048 819.468 556.093 819.907 551.698 818.938C551.119 818.756 550.554 818.552 550.005 818.289C544.764 815.777 544.049 811.901 542.21 807.043C540.209 801.757 535.282 802.711 530.952 800.691C527.897 799.265 525.408 796.736 524.316 793.517C523.301 790.523 523.304 786.71 524.736 783.845C525.974 781.37 528.184 780.389 530.666 779.557C532.849 780.849 535.119 782.005 537.745 781.65C539.27 781.445 540.887 780.762 542.08 779.788C548.032 774.926 540.8 764.964 546.027 758.398C548.562 755.214 552.465 754.403 556.262 753.88Z" fill="#FFEA00"/>
<path d="M550.39 781.499C552.173 781.427 553.653 781.588 555.247 782.457C557.013 783.429 558.286 785.103 558.751 787.065C559.251 789.166 558.843 791.38 557.629 793.165C556.118 795.411 554.046 796.301 551.496 796.806C549.666 796.831 548.125 796.737 546.481 795.812C544.694 794.808 543.427 793.193 542.905 791.208C542.397 789.29 542.694 787.248 543.727 785.553C545.233 783.08 547.69 782.084 550.39 781.499Z" fill="black"/>
<path d="M289.914 770.277C291.814 770.129 293.948 770.674 295.664 771.499C304.001 775.507 301.67 784.324 305.245 787.385C307.038 788.919 312.584 789.068 315.655 791.233C318.783 793.439 320.644 796.916 321.24 800.643C322.086 805.926 320.511 813.089 315.301 815.593C313.047 816.676 310.116 816.666 308.36 818.639C305.95 821.344 305.91 825.705 303.646 828.702C301.227 831.905 297.108 833.263 293.29 833.817C286.74 834.077 281.25 830.014 279.077 823.918C278.313 821.778 277.896 818.884 276.351 817.167C274.475 815.081 271.134 814.494 268.775 813.074C265.556 811.136 263.248 807.744 262.305 804.136C261.265 800.161 261.628 795.279 263.834 791.751C267.045 786.618 270.587 788.816 275 787.615C278.919 786.548 279.506 779.064 281.463 775.847C283.371 772.711 286.446 771.079 289.914 770.277Z" fill="#C9275E"/>
<path d="M287.553 796.854C289.243 796.741 290.862 796.983 292.433 797.639C294.5 798.502 296.212 800.165 296.974 802.288C297.662 804.182 297.548 806.274 296.66 808.083C295.48 810.426 293.457 811.422 291.074 812.16C289.075 812.309 287.28 812.138 285.471 811.2C283.415 810.161 281.894 808.303 281.28 806.083C280.766 804.193 280.964 802.055 282.009 800.375C283.314 798.279 285.275 797.455 287.553 796.854Z" fill="black"/>
<path d="M514.15 492.353L514.477 492.314C516.463 492.06 518.011 491.444 519.236 489.799C522.625 485.247 521.516 478.262 528.761 476.99C530.559 476.674 532.393 476.832 533.927 477.895C538.807 481.277 537.295 489.196 542.509 492.405C547.266 495.332 557.055 492.062 558.281 499.78C558.601 501.796 558.024 503.654 556.783 505.249C553.981 508.848 549.248 508.995 546.388 512.173C542.472 516.524 543.73 527.952 537.448 528.757C536.118 528.931 534.774 528.566 533.715 527.743C531.885 526.302 531.111 523.825 530.878 521.593C530.745 520.317 530.773 518.978 531.167 517.748C531.774 515.852 533.122 514.226 534.038 512.481C535.972 508.796 535.254 505.112 532.1 502.393C530.511 501.027 528.439 500.359 526.352 500.54C524.461 500.7 522.915 501.475 521.732 502.971C520.926 503.99 520.325 505.209 519.722 506.358C519.29 507.067 518.765 507.792 518.188 508.391C517.068 509.555 515.231 510.02 513.666 510.069C510.518 510.169 506.705 509.185 504.44 506.939C503.137 505.645 502.3 503.864 502.305 502.013C502.314 499.417 503.845 497.276 505.692 495.591C508.03 493.458 510.969 492.209 514.15 492.353Z" fill="#F15C8E"/>
<path d="M519.722 506.358C519.29 507.067 518.765 507.792 518.188 508.391C517.068 509.555 515.231 510.02 513.666 510.069C510.518 510.169 506.705 509.185 504.44 506.939C503.137 505.645 502.3 503.864 502.305 502.013C502.314 499.417 503.845 497.276 505.692 495.591C508.03 493.458 510.969 492.209 514.15 492.353C513.535 493.826 517.187 501.909 518.024 503.936C518.458 504.986 518.774 505.685 519.722 506.358Z" fill="#DA3E75"/>
<path d="M365.203 665.003C383.333 674.505 400.008 691.587 411.171 708.563C411.342 711.338 411.995 718.531 411.345 720.769L411.11 720.564C409.33 717.108 407.074 713.754 404.872 710.553C393.878 694.576 379.728 682.353 363.59 671.793C364.293 669.556 364.749 667.3 365.203 665.003Z" fill="#40A43D"/>
<path d="M524.079 700.081C524.462 700.652 523.871 706.642 523.851 707.827C523.755 713.516 525.411 719.369 527.304 724.684C518.146 726.61 508.085 731.395 499.471 735.029L496.71 736.324C504.62 721.215 511.86 711.938 524.079 700.081Z" fill="#D78BCD"/>
<path d="M488.222 510.413C489.086 511.213 489.842 512.753 490.529 513.76C493.525 518.152 496.059 520.373 500.756 522.871C498.574 527.793 496.237 532.655 494.024 537.564L493.855 537.703L493.572 537.562C491.955 530.61 486.736 523.34 482.031 518.118C484.352 515.725 486.297 513.124 488.222 510.413Z" fill="#D78BCD"/>
</g>
<defs>
<clipPath id="clip0_97_3">
<rect width="534" height="534" fill="white" transform="translate(158 425)"/>
</clipPath>
</defs>
</svg>
