<svg width="849" height="1183" viewBox="0 0 849 1183" fill="none" xmlns="http://www.w3.org/2000/svg">
<rect x="5" y="5" width="839" height="1173" rx="45" fill="white"/>
<rect x="5" y="5" width="839" height="1173" rx="45" stroke="black" stroke-width="10"/>
<circle cx="786.5" cy="1124.5" r="11.5" fill="black"/>
<circle cx="786.5" cy="59.5" r="11.5" fill="black"/>
<path d="M77 1124.5C77 1130.85 71.8513 1136 65.5 1136C59.1487 1136 54 1130.85 54 1124.5C54 1118.15 59.1487 1113 65.5 1113C71.8513 1113 77 1118.15 77 1124.5Z" fill="black"/>
<path d="M77 59.5C77 65.8513 71.8513 71 65.5 71C59.1487 71 54 65.8513 54 59.5C54 53.1487 59.1487 48 65.5 48C71.8513 48 77 53.1487 77 59.5Z" fill="black"/>
<mask id="path-6-inside-1_97_49" fill="white">
<path d="M708 48C713.523 48 717.934 52.4996 718.616 57.9801C723.122 94.1833 751.817 122.878 788.02 127.384C793.5 128.066 798 132.477 798 138V1046C798 1051.52 793.5 1055.93 788.02 1056.62C751.817 1061.12 723.122 1089.82 718.616 1126.02C717.934 1131.5 713.523 1136 708 1136H141C135.477 1136 131.066 1131.5 130.384 1126.02C125.878 1089.82 97.1833 1061.12 60.9801 1056.62C55.4996 1055.93 51 1051.52 51 1046V138C51 132.477 55.4996 128.066 60.9801 127.384C97.1833 122.878 125.878 94.1833 130.384 57.9801C131.066 52.4996 135.477 48 141 48H708Z"/>
</mask>
<path d="M708 48C713.523 48 717.934 52.4996 718.616 57.9801C723.122 94.1833 751.817 122.878 788.02 127.384C793.5 128.066 798 132.477 798 138V1046C798 1051.52 793.5 1055.93 788.02 1056.62C751.817 1061.12 723.122 1089.82 718.616 1126.02C717.934 1131.5 713.523 1136 708 1136H141C135.477 1136 131.066 1131.5 130.384 1126.02C125.878 1089.82 97.1833 1061.12 60.9801 1056.62C55.4996 1055.93 51 1051.52 51 1046V138C51 132.477 55.4996 128.066 60.9801 127.384C97.1833 122.878 125.878 94.1833 130.384 57.9801C131.066 52.4996 135.477 48 141 48H708Z" fill="#DBEE71"/>
<path d="M130.384 1126.02L138.322 1125.03L130.384 1126.02ZM718.616 1126.02L710.678 1125.03L718.616 1126.02ZM788.02 1056.62L789.008 1064.56L788.02 1056.62ZM718.616 57.9801L726.555 56.9922L718.616 57.9801ZM718.616 57.9801L710.678 58.9681C715.635 98.8063 747.194 130.365 787.032 135.322L788.02 127.384L789.008 119.445C756.44 115.392 730.608 89.5603 726.555 56.9922L718.616 57.9801ZM798 138H790V1046H798H806V138H798ZM788.02 1056.62L787.032 1048.68C747.194 1053.64 715.635 1085.19 710.678 1125.03L718.616 1126.02L726.555 1127.01C730.608 1094.44 756.44 1068.61 789.008 1064.56L788.02 1056.62ZM708 1136V1128H141V1136V1144H708V1136ZM130.384 1126.02L138.322 1125.03C133.365 1085.19 101.806 1053.64 61.9681 1048.68L60.9801 1056.62L59.9922 1064.56C92.5603 1068.61 118.392 1094.44 122.445 1127.01L130.384 1126.02ZM51 1046H59V138H51H43V1046H51ZM60.9801 127.384L61.9681 135.322C101.806 130.365 133.365 98.8063 138.322 58.9681L130.384 57.9801L122.445 56.9922C118.392 89.5603 92.5603 115.392 59.9922 119.445L60.9801 127.384ZM141 48V56H708V48V40H141V48ZM130.384 57.9801L138.322 58.9681C138.438 58.0389 138.872 57.2306 139.427 56.6958C139.954 56.1887 140.494 56 141 56V48V40C130.84 40 123.547 48.1329 122.445 56.9922L130.384 57.9801ZM51 138H59C59 137.494 59.1887 136.954 59.6958 136.427C60.2306 135.872 61.0389 135.438 61.9681 135.322L60.9801 127.384L59.9922 119.445C51.1329 120.547 43 127.84 43 138H51ZM60.9801 1056.62L61.9681 1048.68C61.0389 1048.56 60.2306 1048.13 59.6958 1047.57C59.1887 1047.05 59 1046.51 59 1046H51H43C43 1056.16 51.1329 1063.45 59.9922 1064.56L60.9801 1056.62ZM141 1136V1128C140.494 1128 139.954 1127.81 139.427 1127.3C138.872 1126.77 138.438 1125.96 138.322 1125.03L130.384 1126.02L122.445 1127.01C123.547 1135.87 130.84 1144 141 1144V1136ZM718.616 1126.02L710.678 1125.03C710.562 1125.96 710.128 1126.77 709.573 1127.3C709.046 1127.81 708.506 1128 708 1128V1136V1144C718.16 1144 725.453 1135.87 726.555 1127.01L718.616 1126.02ZM798 1046H790C790 1046.51 789.811 1047.05 789.304 1047.57C788.769 1048.13 787.961 1048.56 787.032 1048.68L788.02 1056.62L789.008 1064.56C797.867 1063.45 806 1056.16 806 1046H798ZM788.02 127.384L787.032 135.322C787.961 135.438 788.769 135.872 789.304 136.427C789.811 136.954 790 137.494 790 138H798H806C806 127.84 797.867 120.547 789.008 119.445L788.02 127.384ZM718.616 57.9801L726.555 56.9922C725.453 48.1329 718.16 40 708 40V48V56C708.506 56 709.046 56.1887 709.573 56.6958C710.128 57.2306 710.562 58.0389 710.678 58.9681L718.616 57.9801Z" fill="black" mask="url(#path-6-inside-1_97_49)"/>
<path d="M690 102C695.523 102 699.911 106.512 700.837 111.957C705.019 136.563 724.437 155.981 749.043 160.163C754.488 161.089 759 165.477 759 171V1014C759 1019.52 754.488 1023.91 749.043 1024.84C724.711 1028.97 705.454 1048 700.984 1072.22C699.993 1077.59 695.633 1082 690.175 1082H158.825C153.367 1082 149.007 1077.59 148.016 1072.22C143.546 1048 124.288 1028.97 99.9568 1024.84C94.5121 1023.91 90 1019.52 90 1014V171C90 165.477 94.512 161.089 99.9568 160.163C124.563 155.981 143.981 136.563 148.163 111.957C149.089 106.512 153.477 102 159 102H690Z" fill="#DFE4C2"/>
<path d="M346.54 348.925V356.83H330.815V408H321.125V356.83H305.315V348.925H346.54ZM361.284 354.96C359.527 354.96 358.054 354.365 356.864 353.175C355.674 351.985 355.079 350.512 355.079 348.755C355.079 346.998 355.674 345.525 356.864 344.335C358.054 343.145 359.527 342.55 361.284 342.55C362.984 342.55 364.429 343.145 365.619 344.335C366.809 345.525 367.404 346.998 367.404 348.755C367.404 350.512 366.809 351.985 365.619 353.175C364.429 354.365 362.984 354.96 361.284 354.96ZM366.044 361.165V408H356.354V361.165H366.044ZM421.691 383.435C421.691 385.192 421.577 386.778 421.351 388.195H385.566C385.849 391.935 387.237 394.938 389.731 397.205C392.224 399.472 395.284 400.605 398.911 400.605C404.124 400.605 407.807 398.423 409.961 394.06H420.416C418.999 398.367 416.421 401.908 412.681 404.685C408.997 407.405 404.407 408.765 398.911 408.765C394.434 408.765 390.411 407.773 386.841 405.79C383.327 403.75 380.551 400.917 378.511 397.29C376.527 393.607 375.536 389.357 375.536 384.54C375.536 379.723 376.499 375.502 378.426 371.875C380.409 368.192 383.157 365.358 386.671 363.375C390.241 361.392 394.321 360.4 398.911 360.4C403.331 360.4 407.269 361.363 410.726 363.29C414.182 365.217 416.874 367.937 418.801 371.45C420.727 374.907 421.691 378.902 421.691 383.435ZM411.576 380.375C411.519 376.805 410.244 373.943 407.751 371.79C405.257 369.637 402.169 368.56 398.486 368.56C395.142 368.56 392.281 369.637 389.901 371.79C387.521 373.887 386.104 376.748 385.651 380.375H411.576ZM440.917 367.965C442.333 365.585 444.203 363.743 446.527 362.44C448.907 361.08 451.712 360.4 454.942 360.4V370.43H452.477C448.68 370.43 445.79 371.393 443.807 373.32C441.88 375.247 440.917 378.59 440.917 383.35V408H431.227V361.165H440.917V367.965ZM473.539 367.965C474.955 365.585 476.825 363.743 479.149 362.44C481.529 361.08 484.334 360.4 487.564 360.4V370.43H485.099C481.302 370.43 478.412 371.393 476.429 373.32C474.502 375.247 473.539 378.59 473.539 383.35V408H463.849V361.165H473.539V367.965ZM493.241 384.37C493.241 379.667 494.204 375.502 496.131 371.875C498.114 368.248 500.777 365.443 504.121 363.46C507.521 361.42 511.261 360.4 515.341 360.4C519.024 360.4 522.226 361.137 524.946 362.61C527.722 364.027 529.932 365.812 531.576 367.965V361.165H541.351V408H531.576V401.03C529.932 403.24 527.694 405.082 524.861 406.555C522.027 408.028 518.797 408.765 515.171 408.765C511.147 408.765 507.464 407.745 504.121 405.705C500.777 403.608 498.114 400.718 496.131 397.035C494.204 393.295 493.241 389.073 493.241 384.37ZM531.576 384.54C531.576 381.31 530.896 378.505 529.536 376.125C528.232 373.745 526.504 371.932 524.351 370.685C522.197 369.438 519.874 368.815 517.381 368.815C514.887 368.815 512.564 369.438 510.411 370.685C508.257 371.875 506.501 373.66 505.141 376.04C503.837 378.363 503.186 381.14 503.186 384.37C503.186 387.6 503.837 390.433 505.141 392.87C506.501 395.307 508.257 397.177 510.411 398.48C512.621 399.727 514.944 400.35 517.381 400.35C519.874 400.35 522.197 399.727 524.351 398.48C526.504 397.233 528.232 395.42 529.536 393.04C530.896 390.603 531.576 387.77 531.576 384.54Z" fill="black"/>
<path d="M304.46 214.46V226.535H328.085V242.18H304.46V255.515H331.235V272H283.88V197.975H331.235V214.46H304.46ZM338.044 242.495C338.044 236.405 339.129 231.085 341.299 226.535C343.539 221.985 346.549 218.485 350.329 216.035C354.179 213.585 358.449 212.36 363.139 212.36C367.199 212.36 370.699 213.165 373.639 214.775C376.579 216.385 378.854 218.555 380.464 221.285V213.095H401.044V272H380.464V263.81C378.854 266.54 376.544 268.71 373.534 270.32C370.594 271.93 367.129 272.735 363.139 272.735C358.449 272.735 354.179 271.51 350.329 269.06C346.549 266.61 343.539 263.11 341.299 258.56C339.129 253.94 338.044 248.585 338.044 242.495ZM380.464 242.495C380.464 238.715 379.414 235.74 377.314 233.57C375.284 231.4 372.764 230.315 369.754 230.315C366.674 230.315 364.119 231.4 362.089 233.57C360.059 235.67 359.044 238.645 359.044 242.495C359.044 246.275 360.059 249.285 362.089 251.525C364.119 253.695 366.674 254.78 369.754 254.78C372.764 254.78 375.284 253.695 377.314 251.525C379.414 249.355 380.464 246.345 380.464 242.495ZM433.352 223.49C435.662 220.13 438.462 217.47 441.752 215.51C445.042 213.55 448.577 212.57 452.357 212.57V234.515H446.582C442.102 234.515 438.777 235.39 436.607 237.14C434.437 238.89 433.352 241.935 433.352 246.275V272H412.772V213.095H433.352V223.49ZM494.489 254.465V272H485.564C470.514 272 462.989 264.545 462.989 249.635V230.21H455.744V213.095H462.989V198.815H483.674V213.095H494.384V230.21H483.674V249.95C483.674 251.56 484.024 252.715 484.724 253.415C485.494 254.115 486.754 254.465 488.504 254.465H494.489ZM542.674 212.57C549.394 212.57 554.714 214.845 558.634 219.395C562.624 223.875 564.619 229.965 564.619 237.665V272H544.039V240.395C544.039 237.035 543.164 234.41 541.414 232.52C539.664 230.56 537.319 229.58 534.379 229.58C531.299 229.58 528.884 230.56 527.134 232.52C525.384 234.41 524.509 237.035 524.509 240.395V272H503.929V194.3H524.509V221.495C526.329 218.835 528.779 216.7 531.859 215.09C535.009 213.41 538.614 212.57 542.674 212.57Z" fill="black"/>
<mask id="path-11-outside-2_97_49" maskUnits="userSpaceOnUse" x="401" y="1006" width="47" height="32" fill="black">
<rect fill="white" x="401" y="1006" width="47" height="32"/>
<path d="M401.84 1030.92V1027.48L415.28 1008.2H420.8V1026.96H424.52V1030.92H420.8V1037H416.32V1030.92H401.84ZM416.52 1012.84L407.08 1026.96H416.52V1012.84ZM428.218 1015.04C428.378 1012.56 429.325 1010.63 431.058 1009.24C432.818 1007.85 435.058 1007.16 437.778 1007.16C439.645 1007.16 441.258 1007.49 442.618 1008.16C443.978 1008.83 445.005 1009.73 445.698 1010.88C446.392 1012.03 446.738 1013.32 446.738 1014.76C446.738 1016.41 446.298 1017.83 445.418 1019C444.538 1020.17 443.485 1020.96 442.258 1021.36V1021.52C443.832 1022 445.058 1022.88 445.938 1024.16C446.818 1025.41 447.258 1027.03 447.258 1029C447.258 1030.57 446.898 1031.97 446.178 1033.2C445.458 1034.43 444.392 1035.4 442.978 1036.12C441.565 1036.81 439.872 1037.16 437.898 1037.16C435.018 1037.16 432.645 1036.43 430.778 1034.96C428.938 1033.47 427.952 1031.33 427.818 1028.56H432.218C432.325 1029.97 432.872 1031.13 433.858 1032.04C434.845 1032.92 436.178 1033.36 437.858 1033.36C439.485 1033.36 440.738 1032.92 441.618 1032.04C442.498 1031.13 442.938 1029.97 442.938 1028.56C442.938 1026.69 442.338 1025.37 441.138 1024.6C439.965 1023.8 438.152 1023.4 435.698 1023.4H434.658V1019.64H435.738C437.898 1019.61 439.538 1019.25 440.658 1018.56C441.805 1017.87 442.378 1016.77 442.378 1015.28C442.378 1014 441.965 1012.99 441.138 1012.24C440.312 1011.47 439.138 1011.08 437.618 1011.08C436.125 1011.08 434.965 1011.47 434.138 1012.24C433.312 1012.99 432.818 1013.92 432.658 1015.04H428.218Z"/>
</mask>
<path d="M401.84 1030.92V1027.48L415.28 1008.2H420.8V1026.96H424.52V1030.92H420.8V1037H416.32V1030.92H401.84ZM416.52 1012.84L407.08 1026.96H416.52V1012.84ZM428.218 1015.04C428.378 1012.56 429.325 1010.63 431.058 1009.24C432.818 1007.85 435.058 1007.16 437.778 1007.16C439.645 1007.16 441.258 1007.49 442.618 1008.16C443.978 1008.83 445.005 1009.73 445.698 1010.88C446.392 1012.03 446.738 1013.32 446.738 1014.76C446.738 1016.41 446.298 1017.83 445.418 1019C444.538 1020.17 443.485 1020.96 442.258 1021.36V1021.52C443.832 1022 445.058 1022.88 445.938 1024.16C446.818 1025.41 447.258 1027.03 447.258 1029C447.258 1030.57 446.898 1031.97 446.178 1033.2C445.458 1034.43 444.392 1035.4 442.978 1036.12C441.565 1036.81 439.872 1037.16 437.898 1037.16C435.018 1037.16 432.645 1036.43 430.778 1034.96C428.938 1033.47 427.952 1031.33 427.818 1028.56H432.218C432.325 1029.97 432.872 1031.13 433.858 1032.04C434.845 1032.92 436.178 1033.36 437.858 1033.36C439.485 1033.36 440.738 1032.92 441.618 1032.04C442.498 1031.13 442.938 1029.97 442.938 1028.56C442.938 1026.69 442.338 1025.37 441.138 1024.6C439.965 1023.8 438.152 1023.4 435.698 1023.4H434.658V1019.64H435.738C437.898 1019.61 439.538 1019.25 440.658 1018.56C441.805 1017.87 442.378 1016.77 442.378 1015.28C442.378 1014 441.965 1012.99 441.138 1012.24C440.312 1011.47 439.138 1011.08 437.618 1011.08C436.125 1011.08 434.965 1011.47 434.138 1012.24C433.312 1012.99 432.818 1013.92 432.658 1015.04H428.218Z" fill="black"/>
<path d="M401.84 1030.92H401.54V1031.22H401.84V1030.92ZM401.84 1027.48L401.594 1027.31L401.54 1027.39V1027.48H401.84ZM415.28 1008.2V1007.9H415.123L415.034 1008.03L415.28 1008.2ZM420.8 1008.2H421.1V1007.9H420.8V1008.2ZM420.8 1026.96H420.5V1027.26H420.8V1026.96ZM424.52 1026.96H424.82V1026.66H424.52V1026.96ZM424.52 1030.92V1031.22H424.82V1030.92H424.52ZM420.8 1030.92V1030.62H420.5V1030.92H420.8ZM420.8 1037V1037.3H421.1V1037H420.8ZM416.32 1037H416.02V1037.3H416.32V1037ZM416.32 1030.92H416.62V1030.62H416.32V1030.92ZM416.52 1012.84H416.82V1011.85L416.271 1012.67L416.52 1012.84ZM407.08 1026.96L406.831 1026.79L406.519 1027.26H407.08V1026.96ZM416.52 1026.96V1027.26H416.82V1026.96H416.52ZM401.84 1030.92H402.14V1027.48H401.84H401.54V1030.92H401.84ZM401.84 1027.48L402.086 1027.65L415.526 1008.37L415.28 1008.2L415.034 1008.03L401.594 1027.31L401.84 1027.48ZM415.28 1008.2V1008.5H420.8V1008.2V1007.9H415.28V1008.2ZM420.8 1008.2H420.5V1026.96H420.8H421.1V1008.2H420.8ZM420.8 1026.96V1027.26H424.52V1026.96V1026.66H420.8V1026.96ZM424.52 1026.96H424.22V1030.92H424.52H424.82V1026.96H424.52ZM424.52 1030.92V1030.62H420.8V1030.92V1031.22H424.52V1030.92ZM420.8 1030.92H420.5V1037H420.8H421.1V1030.92H420.8ZM420.8 1037V1036.7H416.32V1037V1037.3H420.8V1037ZM416.32 1037H416.62V1030.92H416.32H416.02V1037H416.32ZM416.32 1030.92V1030.62H401.84V1030.92V1031.22H416.32V1030.92ZM416.52 1012.84L416.271 1012.67L406.831 1026.79L407.08 1026.96L407.329 1027.13L416.769 1013.01L416.52 1012.84ZM407.08 1026.96V1027.26H416.52V1026.96V1026.66H407.08V1026.96ZM416.52 1026.96H416.82V1012.84H416.52H416.22V1026.96H416.52ZM428.218 1015.04L427.919 1015.02L427.898 1015.34H428.218V1015.04ZM431.058 1009.24L430.873 1009L430.871 1009.01L431.058 1009.24ZM442.618 1008.16L442.486 1008.43L442.618 1008.16ZM445.698 1010.88L445.955 1010.72L445.698 1010.88ZM445.418 1019L445.658 1019.18V1019.18L445.418 1019ZM442.258 1021.36L442.165 1021.07L441.958 1021.14V1021.36H442.258ZM442.258 1021.52H441.958V1021.74L442.171 1021.81L442.258 1021.52ZM445.938 1024.16L445.691 1024.33L445.693 1024.33L445.938 1024.16ZM446.178 1033.2L445.92 1033.05L446.178 1033.2ZM442.978 1036.12L443.111 1036.39L443.115 1036.39L442.978 1036.12ZM430.778 1034.96L430.589 1035.19L430.593 1035.2L430.778 1034.96ZM427.818 1028.56V1028.26H427.504L427.519 1028.57L427.818 1028.56ZM432.218 1028.56L432.518 1028.54L432.497 1028.26H432.218V1028.56ZM433.858 1032.04L433.655 1032.26L433.659 1032.26L433.858 1032.04ZM441.618 1032.04L441.831 1032.25L441.834 1032.25L441.618 1032.04ZM441.138 1024.6L440.969 1024.85L440.976 1024.85L441.138 1024.6ZM434.658 1023.4H434.358V1023.7H434.658V1023.4ZM434.658 1019.64V1019.34H434.358V1019.64H434.658ZM435.738 1019.64V1019.94L435.742 1019.94L435.738 1019.64ZM440.658 1018.56L440.503 1018.3L440.501 1018.3L440.658 1018.56ZM441.138 1012.24L440.933 1012.46L440.937 1012.46L441.138 1012.24ZM434.138 1012.24L434.34 1012.46L434.343 1012.46L434.138 1012.24ZM432.658 1015.04V1015.34H432.919L432.955 1015.08L432.658 1015.04ZM428.218 1015.04L428.518 1015.06C428.673 1012.65 429.587 1010.8 431.246 1009.47L431.058 1009.24L430.871 1009.01C429.064 1010.45 428.084 1012.47 427.919 1015.02L428.218 1015.04ZM431.058 1009.24L431.244 1009.48C432.941 1008.14 435.111 1007.46 437.778 1007.46V1007.16V1006.86C435.006 1006.86 432.696 1007.57 430.873 1009L431.058 1009.24ZM437.778 1007.16V1007.46C439.61 1007.46 441.176 1007.79 442.486 1008.43L442.618 1008.16L442.75 1007.89C441.341 1007.2 439.68 1006.86 437.778 1006.86V1007.16ZM442.618 1008.16L442.486 1008.43C443.802 1009.07 444.782 1009.94 445.442 1011.04L445.698 1010.88L445.955 1010.72C445.228 1009.52 444.155 1008.58 442.75 1007.89L442.618 1008.16ZM445.698 1010.88L445.442 1011.04C446.105 1012.13 446.438 1013.37 446.438 1014.76H446.738H447.038C447.038 1013.27 446.679 1011.92 445.955 1010.72L445.698 1010.88ZM446.738 1014.76H446.438C446.438 1016.36 446.015 1017.71 445.178 1018.82L445.418 1019L445.658 1019.18C446.582 1017.95 447.038 1016.47 447.038 1014.76H446.738ZM445.418 1019L445.178 1018.82C444.33 1019.95 443.326 1020.7 442.165 1021.07L442.258 1021.36L442.351 1021.65C443.645 1021.22 444.747 1020.4 445.658 1019.18L445.418 1019ZM442.258 1021.36H441.958V1021.52H442.258H442.558V1021.36H442.258ZM442.258 1021.52L442.171 1021.81C443.683 1022.27 444.852 1023.11 445.691 1024.33L445.938 1024.16L446.186 1023.99C445.265 1022.65 443.98 1021.73 442.346 1021.23L442.258 1021.52ZM445.938 1024.16L445.693 1024.33C446.528 1025.52 446.958 1027.07 446.958 1029H447.258H447.558C447.558 1026.98 447.108 1025.3 446.184 1023.99L445.938 1024.16ZM447.258 1029H446.958C446.958 1030.53 446.61 1031.87 445.92 1033.05L446.178 1033.2L446.437 1033.35C447.187 1032.07 447.558 1030.62 447.558 1029H447.258ZM446.178 1033.2L445.92 1033.05C445.232 1034.22 444.211 1035.16 442.842 1035.85L442.978 1036.12L443.115 1036.39C444.573 1035.64 445.685 1034.63 446.437 1033.35L446.178 1033.2ZM442.978 1036.12L442.846 1035.85C441.483 1036.52 439.837 1036.86 437.898 1036.86V1037.16V1037.46C439.906 1037.46 441.647 1037.11 443.111 1036.39L442.978 1036.12ZM437.898 1037.16V1036.86C435.071 1036.86 432.767 1036.14 430.964 1034.72L430.778 1034.96L430.593 1035.2C432.523 1036.71 434.966 1037.46 437.898 1037.46V1037.16ZM430.778 1034.96L430.967 1034.73C429.205 1033.3 428.248 1031.25 428.118 1028.55L427.818 1028.56L427.519 1028.57C427.655 1031.42 428.672 1033.64 430.589 1035.19L430.778 1034.96ZM427.818 1028.56V1028.86H432.218V1028.56V1028.26H427.818V1028.56ZM432.218 1028.56L431.919 1028.58C432.031 1030.07 432.609 1031.3 433.655 1032.26L433.858 1032.04L434.061 1031.82C433.134 1030.97 432.619 1029.88 432.518 1028.54L432.218 1028.56ZM433.858 1032.04L433.659 1032.26C434.714 1033.21 436.125 1033.66 437.858 1033.66V1033.36V1033.06C436.231 1033.06 434.976 1032.63 434.058 1031.82L433.858 1032.04ZM437.858 1033.36V1033.66C439.539 1033.66 440.879 1033.2 441.831 1032.25L441.618 1032.04L441.406 1031.83C440.598 1032.64 439.431 1033.06 437.858 1033.06V1033.36ZM441.618 1032.04L441.834 1032.25C442.775 1031.28 443.238 1030.04 443.238 1028.56H442.938H442.638C442.638 1029.91 442.222 1030.99 441.403 1031.83L441.618 1032.04ZM442.938 1028.56H443.238C443.238 1026.63 442.613 1025.19 441.301 1024.35L441.138 1024.6L440.976 1024.85C442.064 1025.55 442.638 1026.76 442.638 1028.56H442.938ZM441.138 1024.6L441.307 1024.35C440.06 1023.5 438.173 1023.1 435.698 1023.1V1023.4V1023.7C438.13 1023.7 439.871 1024.1 440.969 1024.85L441.138 1024.6ZM435.698 1023.4V1023.1H434.658V1023.4V1023.7H435.698V1023.4ZM434.658 1023.4H434.958V1019.64H434.658H434.358V1023.4H434.658ZM434.658 1019.64V1019.94H435.738V1019.64V1019.34H434.658V1019.64ZM435.738 1019.64L435.742 1019.94C437.925 1019.91 439.629 1019.55 440.816 1018.82L440.658 1018.56L440.501 1018.3C439.448 1018.96 437.871 1019.31 435.735 1019.34L435.738 1019.64ZM440.658 1018.56L440.814 1018.82C442.062 1018.06 442.678 1016.86 442.678 1015.28H442.378H442.078C442.078 1016.68 441.548 1017.67 440.503 1018.3L440.658 1018.56ZM442.378 1015.28H442.678C442.678 1013.93 442.239 1012.83 441.34 1012.02L441.138 1012.24L440.937 1012.46C441.691 1013.14 442.078 1014.07 442.078 1015.28H442.378ZM441.138 1012.24L441.343 1012.02C440.444 1011.18 439.188 1010.78 437.618 1010.78V1011.08V1011.38C439.089 1011.38 440.179 1011.75 440.933 1012.46L441.138 1012.24ZM437.618 1011.08V1010.78C436.074 1010.78 434.832 1011.18 433.933 1012.02L434.138 1012.24L434.343 1012.46C435.099 1011.75 436.176 1011.38 437.618 1011.38V1011.08ZM434.138 1012.24L433.937 1012.02C433.058 1012.81 432.531 1013.81 432.361 1015L432.658 1015.04L432.955 1015.08C433.106 1014.03 433.566 1013.16 434.34 1012.46L434.138 1012.24ZM432.658 1015.04V1014.74H428.218V1015.04V1015.34H432.658V1015.04Z" fill="black" mask="url(#path-11-outside-2_97_49)"/>
<ellipse cx="425" cy="712.896" rx="254" ry="256.896" fill="black"/>
<path d="M297.047 506.736C347.115 472.767 404.382 463.493 463.04 472.005C469.634 473.443 476.193 474.791 482.601 476.955C502.947 480.401 524.895 490.969 542.646 501.277C532.74 505.162 518.827 514.389 514.368 524.41C505.886 543.474 537.087 534.628 542.646 534.927C532.765 540.262 519.987 540.738 516.289 553.248C509.601 575.868 495.867 564.997 491.716 578.44C489.63 585.196 493.661 587.656 495.367 593.137C497.053 598.549 495.587 605.086 502.705 606.881C519.503 611.12 534.729 576.507 557.985 597.004C546.39 607.98 569.209 611.948 566.978 597.004C564.351 589.659 559.065 586.571 552.4 583.352C530.458 576.03 523.446 592.541 505.227 598.493C505.221 590.503 499.447 583.427 500.157 581.228C503.018 572.357 516.729 583.844 525.878 552.73C530.369 548.59 537.023 546.743 542.646 544.645C545.665 542.706 548.096 541.117 549.607 537.745C553.548 520.658 530.639 527.851 521.784 528.593C523.408 526.044 525.249 523.759 527.182 521.439C535.61 514.298 541.744 510.134 552.4 506.736C580.191 528.651 606.246 547.597 625.312 579.217C645.88 608.921 655.982 641.43 662.606 676.527C660.689 678.257 648.621 712.28 643.188 681.842C640.233 665.283 639.558 661.376 626.906 649.917C624.678 647.9 623.116 644.37 620.139 643.513C610.312 647.971 617.403 652.002 620.139 658.086C623.548 660.593 627.419 663.252 629.583 666.997C636.222 678.477 632.535 710.923 658.436 700.907C660.837 697.972 663.207 695.003 665.709 692.154C665.247 707.515 666.386 722.806 664.804 738.153C651.917 863.264 545.116 958.625 418.914 954.859C406.546 954.488 391.209 953.487 379.268 950.563C399.148 942.634 378.31 929.507 377.989 914.709C372.019 900.205 390.884 884.833 396.27 872.507C399.682 864.698 399.816 855.2 404.145 847.99C414.413 830.884 421.919 844.489 422.786 810.579C423.391 804.744 424.138 799.749 426.481 794.336C426.343 782.741 434.264 780.154 421.46 770.798C409.099 763.681 395.403 757.565 385.652 746.827C381.143 741.863 377.133 731.604 370.635 729.071C363.052 726.112 352.382 725.179 344.276 723.521C321.439 718.849 313.82 710.496 296.077 728.326C291.879 724.283 288.505 719.678 285.073 714.994C285.374 674.9 265.878 707.324 254.825 705.895C245.017 704.627 243.824 679.927 255.983 672.507C274.039 661.49 281.203 680.322 291.919 682.512C301.041 684.377 296.403 663.524 296.898 657.936C298.319 641.868 313.994 650.731 315.695 625.44C316.417 614.708 327.535 620.077 333.277 615.994C339.399 611.64 337.22 602.072 343.364 597.982C350.823 593.016 365.555 598.923 365.344 582.154C365.219 572.289 354.221 565.422 348.043 559.045C325.023 535.27 379.983 546.51 337.011 506.736C335.294 505.45 333.786 504.586 331.821 503.727C320.041 504.935 308.861 510.387 297.047 512.204C296.985 510.386 297.038 508.554 297.047 506.736Z" fill="#20A1DC"/>
<path d="M297.047 506.736C347.115 472.767 404.382 463.493 463.04 472.005C469.634 473.443 476.193 474.791 482.601 476.955C485.622 481.989 506.963 485.449 504.468 499.825C501.66 516.004 443.473 511.764 435.774 546.922C429.696 574.678 436.1 606.388 406.844 625.323C390.358 635.992 322.503 652.687 343.243 686.071C356.847 707.966 394.253 697.341 405.456 714.405C411.381 723.433 422.142 763.644 421.46 770.798C409.099 763.681 395.403 757.565 385.652 746.827C381.143 741.863 377.133 731.604 370.635 729.071C363.052 726.112 352.382 725.179 344.276 723.521C321.439 718.849 313.82 710.496 296.077 728.326C291.879 724.283 288.505 719.678 285.073 714.994C285.374 674.9 265.878 707.324 254.825 705.895C245.017 704.627 243.824 679.927 255.983 672.507C274.039 661.49 281.203 680.322 291.919 682.512C301.041 684.377 296.403 663.524 296.898 657.936C298.319 641.868 313.994 650.731 315.695 625.44C316.417 614.708 327.535 620.077 333.277 615.994C339.399 611.64 337.22 602.072 343.364 597.982C350.823 593.016 365.555 598.923 365.344 582.154C365.219 572.289 354.221 565.422 348.043 559.045C325.023 535.27 379.983 546.51 337.011 506.736C335.294 505.45 333.786 504.586 331.821 503.727C320.041 504.935 308.861 510.387 297.047 512.204C296.985 510.386 297.038 508.554 297.047 506.736Z" fill="#5FC8E9"/>
<path d="M351.015 498.023C368.792 501.129 425.882 476.889 441.385 498.928C452.93 515.34 420.395 527.18 410.868 534.081C400.015 541.945 397.321 551.238 382.736 554.309C355.761 546.498 371.006 513.052 370.012 510.728C367.826 505.623 353.262 504.555 348.633 503.727C348.695 501.407 348.517 498.958 351.015 498.023Z" fill="black"/>
<path d="M403.397 496.942C410.719 496.22 426.234 496.247 432.357 501.039C442.839 509.244 410.615 523.233 406.22 526.425C401.41 529.917 397.358 534.873 393.322 539.198C377.963 553.359 372.389 535 375.696 523.08C378.613 512.564 384.264 509.493 372.234 501.277C382.207 498.145 392.973 497.105 403.397 496.942Z" fill="#FE9B39"/>
<path d="M297.046 506.736C347.115 472.767 404.382 463.493 463.04 472.005C460.586 476.11 446.768 473.56 442.462 473.514C422.124 473.297 361.548 485.889 351.015 498.023C348.517 498.958 348.695 501.407 348.632 503.727C344.739 502.523 339.462 503.125 337.011 506.736C335.294 505.45 333.786 504.586 331.82 503.727C320.041 504.935 308.861 510.387 297.046 512.204C296.985 510.386 297.038 508.554 297.046 506.736Z" fill="#20A1DC"/>
<path d="M552.4 506.735C580.191 528.65 606.246 547.597 625.312 579.217C645.88 608.921 655.982 641.43 662.606 676.526C660.688 678.257 648.621 712.28 643.188 681.841C640.233 665.283 639.558 661.376 626.906 649.917C624.678 647.9 623.116 644.37 620.139 643.513C610.312 647.971 617.403 652.002 620.139 658.086C619.949 700.91 597.627 770.265 580.15 807.762C578.601 811.085 569.298 832.123 566.978 832.6C562.098 818.324 561.202 809.028 565.537 794.652C572.454 771.716 563.608 772.795 557.109 753.585C553.56 743.093 557.083 729.163 547.807 721.067C535.492 710.316 515.506 719.569 501.339 720.363C491.402 720.919 478.876 707.269 471.628 700.907C472.556 689.491 470.314 677.953 472.25 666.588C474.241 654.907 481.394 653.445 488.068 645.12C491.855 640.397 493.47 632.845 498.595 629.354C500.2 628.26 530.405 612.634 531.544 612.257C542.202 608.731 549.695 622.958 559.932 623.784C567.544 624.399 573.729 619.352 581.01 619.28C591.18 619.18 602.641 627.906 612.38 620.67C620.171 614.883 618.51 602.418 613.128 595.612C605.005 585.34 584.689 583.955 583.535 600.265C578.651 598.352 573.243 593.466 566.978 590.828C567.124 592.923 567.269 594.909 566.978 597.004C564.35 589.658 559.065 586.571 552.4 583.352C530.458 576.03 523.446 592.541 505.227 598.493C505.221 590.502 499.447 583.427 500.157 581.228C503.018 572.357 516.729 583.844 525.878 552.73C530.369 548.59 537.023 546.743 542.645 544.645C545.665 542.706 548.096 541.117 549.607 537.745C553.548 520.658 530.639 527.851 521.784 528.593C523.408 526.044 525.249 523.759 527.182 521.439C535.61 514.297 541.744 510.134 552.4 506.735Z" fill="url(#paint0_linear_97_49)"/>
<path d="M625.312 579.218C645.88 608.922 655.983 641.43 662.606 676.527C660.689 678.258 648.621 712.281 643.188 681.842C640.233 665.283 639.558 661.376 626.906 649.917C624.679 647.9 623.116 644.371 620.14 643.514C620.289 624.137 620.293 597.097 625.312 579.218Z" fill="#44932C"/>
<path d="M525.878 552.73C530.369 548.59 537.023 546.744 542.645 544.646C542.506 548.152 541.464 551.519 541.045 554.988C539.051 571.52 552.41 577.995 553.221 582.633L552.4 583.353C530.458 576.031 523.446 592.541 505.227 598.493C505.221 590.503 499.447 583.427 500.157 581.228C503.018 572.357 516.729 583.844 525.878 552.73Z" fill="#B4C922"/>
<path d="M527.182 521.439C536.672 525.017 550.86 516.492 556.964 528.361C560.219 534.689 556.63 538.553 549.607 537.745C553.548 520.658 530.639 527.851 521.784 528.593C523.408 526.045 525.249 523.759 527.182 521.439Z" fill="#B4C922"/>
<path d="M525.878 639.877C543.784 639.011 531.632 661.545 538.757 669.675C547.55 679.708 566.7 672.976 582.274 695.044C588.907 704.442 594.652 717.809 592.456 729.561C591.452 734.939 585.935 743.932 579.243 742.57C574.722 739.236 573.595 727.407 571.264 721.916C565.717 699.748 536.045 700.167 518.152 701.204C503.161 702.073 486.713 702.448 484.072 682.233C481.115 659.606 505.818 642.258 525.878 639.877Z" fill="#72BA32"/>
<path d="M583.535 600.266C584.689 583.955 605.005 585.34 613.128 595.613C618.51 602.419 620.171 614.884 612.38 620.67C602.641 627.906 591.18 619.181 581.01 619.28C573.729 619.353 567.544 624.4 559.932 623.784C549.695 622.959 542.202 608.731 531.544 612.258C530.405 612.635 500.2 628.26 498.595 629.354C493.47 632.846 491.855 640.398 488.068 645.12C481.394 653.445 474.241 654.908 472.25 666.589C470.314 677.953 472.556 689.492 471.628 700.908C478.876 707.27 491.402 720.92 501.339 720.364C515.506 719.57 535.492 710.316 547.807 721.067C557.083 729.164 553.56 743.093 557.109 753.586C563.608 772.795 572.454 771.716 565.537 794.653C561.202 809.029 562.098 818.325 566.978 832.6C569.298 832.124 578.601 811.086 580.15 807.763C597.627 770.265 619.949 700.911 620.139 658.087C623.548 660.594 627.419 663.253 629.583 666.997C636.222 678.478 632.535 710.924 658.436 700.908C660.837 697.972 663.207 695.004 665.709 692.154C665.247 707.515 666.386 722.806 664.804 738.154C651.917 863.264 545.116 958.626 418.914 954.859C406.546 954.489 391.208 953.488 379.268 950.564C399.148 942.634 378.31 929.507 377.989 914.709C389.809 915.839 401.342 918.148 413.278 918.608C461.4 920.464 512.051 903.664 549.519 873.171C552.979 870.354 557.111 865.152 561.499 864.028C564.465 846.611 553.515 826.969 553.211 808.244C553.05 798.295 560.528 787.827 559.064 779.418C557.576 770.861 550.358 763.527 547.628 755.169C545.422 748.423 546.369 741.182 544.714 734.348C540.185 715.655 511.454 729.47 498.855 728.91C488.167 728.436 465.668 711.493 463.763 702.48C461.208 690.389 461.513 662.621 467.605 653.343C470.739 648.57 475.874 645.597 479.607 641.357C485.088 635.132 486.886 626.758 494.031 621.8C498.597 618.633 504.104 617.637 509.018 615.195C516.22 611.612 520.94 605.574 529.284 603.888C543.157 601.085 546.88 607.656 556.524 613.775C564.221 618.661 574.328 609.435 582.916 610.257C590.229 610.957 597.175 616.791 604.886 614.619C617.039 611.197 603.056 592.235 592.393 596.996L592.156 597.775C595.072 601.374 602.606 598.455 605.048 602.884C608.854 609.782 586.64 611.591 583.668 600.769L583.535 600.266Z" fill="black"/>
<path d="M665.709 692.154C665.247 707.515 666.386 722.806 664.804 738.154C651.917 863.264 545.116 958.626 418.914 954.86C406.546 954.489 391.208 953.488 379.268 950.564C399.148 942.635 378.31 929.508 377.989 914.709C389.809 915.84 401.342 918.148 413.278 918.608C461.4 920.465 512.051 903.664 549.519 873.171C552.979 870.355 557.111 865.152 561.499 864.029C558.736 893.663 597.284 860.779 604.507 853.42C612.931 844.835 612.644 832.73 617.869 822.606C623.169 812.338 633.432 807.619 634.569 794.911C635.616 783.194 630.088 772.163 630.038 760.474C638.603 746.658 661.862 734.077 662.72 721.196C663.063 716.075 659.985 715.646 655.751 716.636L658.436 700.908C660.837 697.972 663.207 695.004 665.709 692.154Z" fill="#0477B2"/>
<path d="M620.139 658.086C623.548 660.593 627.419 663.252 629.583 666.997C636.222 678.477 632.535 710.923 658.436 700.907L655.751 716.635C648.258 736.985 629.78 739.242 621.913 755.609C616.83 766.182 626.05 780.732 625.306 791.958C624.587 802.785 612.415 811.585 607.787 821.384C604.026 829.346 604.241 839.147 598.373 846.038C591.159 854.51 580.319 860.146 571.264 866.45C571.085 852.521 571.497 846.398 566.978 832.6C569.298 832.123 578.601 811.085 580.15 807.762C597.627 770.265 619.949 700.91 620.139 658.086Z" fill="#44932C"/>
<path d="M426.481 794.336C428.721 796.696 425.888 810.956 424.007 812.869L423.429 812.784C423.125 812.035 422.925 811.375 422.786 810.579C423.391 804.744 424.137 799.749 426.481 794.336Z" fill="#5FC8E9"/>
<path d="M294.449 521.44C306.25 522.327 317.226 514.659 328.888 513.997C335.386 517.493 340.463 524.041 344.393 530.134C340.584 538.353 330.55 544.126 333.765 554.483C337.442 566.323 357.568 574.863 356.113 584.649C350.684 592.476 336.889 579.22 328.888 608.502C311.856 609.908 306.751 614.798 305.989 632.053C295.686 647.872 286.304 635.477 288.286 670.036C281.429 664.746 274.008 659.209 264.826 660.329C228.22 664.8 232.451 719.535 259.867 714.594C267.043 713.3 270.458 708.998 276.192 705.223C276.44 716.876 284.899 738.056 296.035 738.215C303.861 738.328 306.457 725.5 316.149 727.089C328.509 729.116 354.684 734.249 366.618 737.442C377.81 752.171 384.194 760.93 401.158 770.117C407.211 773.395 414.52 776.365 419.734 780.838C418.771 789 414.96 796.413 413.673 804.512C412.592 811.318 414.846 819.689 412.326 826.038C409.616 832.864 400.741 836.521 396.664 842.741C391.96 849.919 392.463 859.098 389.17 866.867C382.172 883.376 366.525 893.671 368.327 912.682C362.34 911.392 357.255 908.322 351.015 907.665C348.704 895.99 343.073 887.68 339.72 876.777C333.743 857.33 338.984 840.851 322.617 823.462C311.924 812.102 299.135 804.773 290.548 791.049C282.728 778.552 288.626 773.151 291.488 760.226C295.981 739.946 287.356 744.291 279.616 738.985C274.167 735.25 271.157 729.854 264.844 726.622C250.981 719.528 234.807 723.18 225.554 708.837C220.564 702.192 218.363 694.032 209.191 692.154C206.9 691.137 204.498 690.369 202.055 689.826C197.247 678.218 196.884 674.287 188.632 663.854C201.043 620.563 209.404 594.238 239.646 557.185C252.205 539.779 269.338 528.046 285.073 513.997C287.959 516.656 291.267 519.148 294.449 521.44Z" fill="#B4C922"/>
<path d="M239.646 557.185C241.443 561.874 244.168 572.277 245.601 577.619C252.731 597.171 280.804 594.834 268.21 624.25C254.209 656.953 215.533 649.197 224.308 697.606C224.968 701.25 226.049 705.132 225.554 708.837C220.564 702.191 218.363 694.032 209.191 692.154C206.9 691.136 204.498 690.368 202.055 689.825C197.247 678.218 196.884 674.286 188.632 663.853C201.043 620.562 209.404 594.237 239.646 557.185Z" fill="#72BA32"/>
<path d="M239.646 557.185C241.443 561.874 244.168 572.277 245.601 577.619C230.522 603.864 218.758 628.228 213.7 658.439C211.841 669.543 211.939 681.244 209.191 692.154C206.9 691.136 204.498 690.368 202.055 689.825C197.247 678.218 196.884 674.286 188.632 663.853C201.043 620.562 209.404 594.237 239.646 557.185Z" fill="#44932C"/>
<path d="M285.073 513.997C287.959 516.656 291.267 519.148 294.449 521.44C288.205 524.66 248.234 570.37 245.601 577.619C244.168 572.278 241.443 561.875 239.646 557.185C252.205 539.779 269.338 528.046 285.073 513.997Z" fill="#A9AD12"/>
<path d="M321.139 751.959C339.791 749.866 368.526 766.969 382.657 777.322C408.459 796.228 386.681 817.456 375.94 840.251C371.989 848.636 368.709 857.424 366.618 866.451C356.416 903.242 352.001 857.097 349.981 846.195C342.656 806.687 311.016 804.807 306.328 777.135C304.337 765.385 308.401 753.637 321.139 751.959Z" fill="#72BA32"/>
<path d="M323.366 521.439C344.951 522.07 320.363 559.185 318.746 564.141C315.854 573.012 322.918 589.268 305.989 581.1C276.74 565.29 305.294 527.891 323.366 521.439Z" fill="black"/>
<path d="M323.367 531.709C325.397 534.914 309.902 558.251 308.951 572.776L305.989 569.554C294.239 557 313.288 538.237 323.367 531.709Z" fill="#FFFEFE"/>
<path d="M186.705 676.527C188.559 679.708 190.405 683.186 191.521 686.704C195.729 699.962 195.892 695.654 208.654 700.691L209.191 700.908C217.554 709.486 217.884 719.239 231.2 725.335C241.342 729.126 252.558 730.518 262.291 735.27C271.948 739.984 266.724 745.137 283.59 749.616C283.62 761.175 277.19 771.475 277.661 782.81C285.303 811.842 311.386 818.814 322.283 838.602C329.085 850.957 327.387 866.427 331.203 879.838C333.55 888.085 338.224 895.359 340.837 903.524C342.899 925.618 348.944 936.075 368.327 948.324C313.271 935.306 260.096 897.663 228.18 851.016C195.794 803.679 175.856 734.309 186.705 676.527Z" fill="#20A1DC"/>
<path d="M186.705 676.527C188.559 679.708 190.405 683.186 191.521 686.704C195.729 699.962 195.892 695.654 208.654 700.691L209.191 700.908C204.213 781.414 248.968 860.142 321.798 895.712C327.972 898.727 334.19 901.702 340.837 903.524C342.899 925.618 348.944 936.075 368.327 948.324C313.271 935.306 260.096 897.663 228.18 851.016C195.794 803.679 175.856 734.309 186.705 676.527Z" fill="#0477B2"/>
<path d="M231.2 725.334C241.342 729.125 252.558 730.517 262.291 735.269C271.948 739.983 266.724 745.136 283.59 749.615C283.62 761.174 277.19 771.474 277.661 782.809C271.182 781.221 229.713 734.083 231.2 725.334Z" fill="#5FC8E9"/>
<path d="M351.015 907.665C357.255 908.322 362.34 911.391 368.327 912.682C368.524 924.772 373.372 929.949 377.989 940.395C360.465 937.425 353.322 924.416 351.015 907.665Z" fill="#44932C"/>
<defs>
<linearGradient id="paint0_linear_97_49" x1="480.346" y1="763.922" x2="631.738" y2="568.635" gradientUnits="userSpaceOnUse">
<stop stop-color="#C6D322"/>
<stop offset="1" stop-color="#76AF30"/>
</linearGradient>
</defs>
</svg>
