<svg width="849" height="1183" viewBox="0 0 849 1183" fill="none" xmlns="http://www.w3.org/2000/svg">
<rect x="5" y="5" width="839" height="1173" rx="45" fill="white"/>
<rect x="5" y="5" width="839" height="1173" rx="45" stroke="black" stroke-width="10"/>
<circle cx="786.5" cy="1124.5" r="11.5" fill="black"/>
<circle cx="786.5" cy="59.5" r="11.5" fill="black"/>
<path d="M77 1124.5C77 1130.85 71.8513 1136 65.5 1136C59.1487 1136 54 1130.85 54 1124.5C54 1118.15 59.1487 1113 65.5 1113C71.8513 1113 77 1118.15 77 1124.5Z" fill="black"/>
<path d="M77 59.5C77 65.8513 71.8513 71 65.5 71C59.1487 71 54 65.8513 54 59.5C54 53.1487 59.1487 48 65.5 48C71.8513 48 77 53.1487 77 59.5Z" fill="black"/>
<mask id="path-6-inside-1_97_44" fill="white">
<path d="M708 48C713.523 48 717.934 52.4996 718.616 57.9801C723.122 94.1833 751.817 122.878 788.02 127.384C793.5 128.066 798 132.477 798 138V1046C798 1051.52 793.5 1055.93 788.02 1056.62C751.817 1061.12 723.122 1089.82 718.616 1126.02C717.934 1131.5 713.523 1136 708 1136H141C135.477 1136 131.066 1131.5 130.384 1126.02C125.878 1089.82 97.1833 1061.12 60.9801 1056.62C55.4996 1055.93 51 1051.52 51 1046V138C51 132.477 55.4996 128.066 60.9801 127.384C97.1833 122.878 125.878 94.1833 130.384 57.9801C131.066 52.4996 135.477 48 141 48H708Z"/>
</mask>
<path d="M708 48C713.523 48 717.934 52.4996 718.616 57.9801C723.122 94.1833 751.817 122.878 788.02 127.384C793.5 128.066 798 132.477 798 138V1046C798 1051.52 793.5 1055.93 788.02 1056.62C751.817 1061.12 723.122 1089.82 718.616 1126.02C717.934 1131.5 713.523 1136 708 1136H141C135.477 1136 131.066 1131.5 130.384 1126.02C125.878 1089.82 97.1833 1061.12 60.9801 1056.62C55.4996 1055.93 51 1051.52 51 1046V138C51 132.477 55.4996 128.066 60.9801 127.384C97.1833 122.878 125.878 94.1833 130.384 57.9801C131.066 52.4996 135.477 48 141 48H708Z" fill="#0089CB"/>
<path d="M130.384 1126.02L138.322 1125.03L130.384 1126.02ZM718.616 1126.02L710.678 1125.03L718.616 1126.02ZM788.02 1056.62L789.008 1064.56L788.02 1056.62ZM718.616 57.9801L726.555 56.9922L718.616 57.9801ZM718.616 57.9801L710.678 58.9681C715.635 98.8063 747.194 130.365 787.032 135.322L788.02 127.384L789.008 119.445C756.44 115.392 730.608 89.5603 726.555 56.9922L718.616 57.9801ZM798 138H790V1046H798H806V138H798ZM788.02 1056.62L787.032 1048.68C747.194 1053.64 715.635 1085.19 710.678 1125.03L718.616 1126.02L726.555 1127.01C730.608 1094.44 756.44 1068.61 789.008 1064.56L788.02 1056.62ZM708 1136V1128H141V1136V1144H708V1136ZM130.384 1126.02L138.322 1125.03C133.365 1085.19 101.806 1053.64 61.9681 1048.68L60.9801 1056.62L59.9922 1064.56C92.5603 1068.61 118.392 1094.44 122.445 1127.01L130.384 1126.02ZM51 1046H59V138H51H43V1046H51ZM60.9801 127.384L61.9681 135.322C101.806 130.365 133.365 98.8063 138.322 58.9681L130.384 57.9801L122.445 56.9922C118.392 89.5603 92.5603 115.392 59.9922 119.445L60.9801 127.384ZM141 48V56H708V48V40H141V48ZM130.384 57.9801L138.322 58.9681C138.438 58.0389 138.872 57.2306 139.427 56.6958C139.954 56.1887 140.494 56 141 56V48V40C130.84 40 123.547 48.1329 122.445 56.9922L130.384 57.9801ZM51 138H59C59 137.494 59.1887 136.954 59.6958 136.427C60.2306 135.872 61.0389 135.438 61.9681 135.322L60.9801 127.384L59.9922 119.445C51.1329 120.547 43 127.84 43 138H51ZM60.9801 1056.62L61.9681 1048.68C61.0389 1048.56 60.2306 1048.13 59.6958 1047.57C59.1887 1047.05 59 1046.51 59 1046H51H43C43 1056.16 51.1329 1063.45 59.9922 1064.56L60.9801 1056.62ZM141 1136V1128C140.494 1128 139.954 1127.81 139.427 1127.3C138.872 1126.77 138.438 1125.96 138.322 1125.03L130.384 1126.02L122.445 1127.01C123.547 1135.87 130.84 1144 141 1144V1136ZM718.616 1126.02L710.678 1125.03C710.562 1125.96 710.128 1126.77 709.573 1127.3C709.046 1127.81 708.506 1128 708 1128V1136V1144C718.16 1144 725.453 1135.87 726.555 1127.01L718.616 1126.02ZM798 1046H790C790 1046.51 789.811 1047.05 789.304 1047.57C788.769 1048.13 787.961 1048.56 787.032 1048.68L788.02 1056.62L789.008 1064.56C797.867 1063.45 806 1056.16 806 1046H798ZM788.02 127.384L787.032 135.322C787.961 135.438 788.769 135.872 789.304 136.427C789.811 136.954 790 137.494 790 138H798H806C806 127.84 797.867 120.547 789.008 119.445L788.02 127.384ZM718.616 57.9801L726.555 56.9922C725.453 48.1329 718.16 40 708 40V48V56C708.506 56 709.046 56.1887 709.573 56.6958C710.128 57.2306 710.562 58.0389 710.678 58.9681L718.616 57.9801Z" fill="black" mask="url(#path-6-inside-1_97_44)"/>
<path d="M690 102C695.523 102 699.911 106.512 700.837 111.957C705.019 136.563 724.437 155.981 749.043 160.163C754.488 161.089 759 165.477 759 171V1014C759 1019.52 754.488 1023.91 749.043 1024.84C724.711 1028.97 705.454 1048 700.984 1072.22C699.993 1077.59 695.633 1082 690.175 1082H158.825C153.367 1082 149.007 1077.59 148.016 1072.22C143.546 1048 124.288 1028.97 99.9568 1024.84C94.5121 1023.91 90 1019.52 90 1014V171C90 165.477 94.512 161.089 99.9568 160.163C124.563 155.981 143.981 136.563 148.163 111.957C149.089 106.512 153.477 102 159 102H690Z" fill="#4BADDC"/>
<path d="M295.91 408H286.22L257.065 363.885V408H247.375V348.84H257.065L286.22 392.87V348.84H295.91V408ZM351.56 383.435C351.56 385.192 351.446 386.778 351.22 388.195H315.435C315.718 391.935 317.106 394.938 319.6 397.205C322.093 399.472 325.153 400.605 328.78 400.605C333.993 400.605 337.676 398.423 339.83 394.06H350.285C348.868 398.367 346.29 401.908 342.55 404.685C338.866 407.405 334.276 408.765 328.78 408.765C324.303 408.765 320.28 407.773 316.71 405.79C313.196 403.75 310.42 400.917 308.38 397.29C306.396 393.607 305.405 389.357 305.405 384.54C305.405 379.723 306.368 375.502 308.295 371.875C310.278 368.192 313.026 365.358 316.54 363.375C320.11 361.392 324.19 360.4 328.78 360.4C333.2 360.4 337.138 361.363 340.595 363.29C344.051 365.217 346.743 367.937 348.67 371.45C350.596 374.907 351.56 378.902 351.56 383.435ZM341.445 380.375C341.388 376.805 340.113 373.943 337.62 371.79C335.126 369.637 332.038 368.56 328.355 368.56C325.011 368.56 322.15 369.637 319.77 371.79C317.39 373.887 315.973 376.748 315.52 380.375H341.445ZM370.786 368.05C372.429 365.897 374.667 364.083 377.501 362.61C380.334 361.137 383.536 360.4 387.106 360.4C391.186 360.4 394.897 361.42 398.241 363.46C401.641 365.443 404.304 368.248 406.231 371.875C408.157 375.502 409.121 379.667 409.121 384.37C409.121 389.073 408.157 393.295 406.231 397.035C404.304 400.718 401.641 403.608 398.241 405.705C394.897 407.745 391.186 408.765 387.106 408.765C383.536 408.765 380.362 408.057 377.586 406.64C374.809 405.167 372.542 403.353 370.786 401.2V430.27H361.096V361.165H370.786V368.05ZM399.261 384.37C399.261 381.14 398.581 378.363 397.221 376.04C395.917 373.66 394.161 371.875 391.951 370.685C389.797 369.438 387.474 368.815 384.981 368.815C382.544 368.815 380.221 369.438 378.011 370.685C375.857 371.932 374.101 373.745 372.741 376.125C371.437 378.505 370.786 381.31 370.786 384.54C370.786 387.77 371.437 390.603 372.741 393.04C374.101 395.42 375.857 397.233 378.011 398.48C380.221 399.727 382.544 400.35 384.981 400.35C387.474 400.35 389.797 399.727 391.951 398.48C394.161 397.177 395.917 395.307 397.221 392.87C398.581 390.433 399.261 387.6 399.261 384.37ZM430.008 369.07V394.995C430.008 396.752 430.405 398.027 431.198 398.82C432.048 399.557 433.465 399.925 435.448 399.925H441.398V408H433.748C429.385 408 426.041 406.98 423.718 404.94C421.395 402.9 420.233 399.585 420.233 394.995V369.07H414.708V361.165H420.233V349.52H430.008V361.165H441.398V369.07H430.008ZM492.744 361.165V408H483.054V402.475C481.524 404.402 479.512 405.932 477.019 407.065C474.582 408.142 471.976 408.68 469.199 408.68C465.516 408.68 462.201 407.915 459.254 406.385C456.364 404.855 454.069 402.588 452.369 399.585C450.726 396.582 449.904 392.955 449.904 388.705V361.165H459.509V387.26C459.509 391.453 460.557 394.683 462.654 396.95C464.751 399.16 467.612 400.265 471.239 400.265C474.866 400.265 477.727 399.16 479.824 396.95C481.977 394.683 483.054 391.453 483.054 387.26V361.165H492.744ZM529.159 360.4C532.843 360.4 536.129 361.165 539.019 362.695C541.966 364.225 544.261 366.492 545.904 369.495C547.548 372.498 548.369 376.125 548.369 380.375V408H538.764V381.82C538.764 377.627 537.716 374.425 535.619 372.215C533.523 369.948 530.661 368.815 527.034 368.815C523.408 368.815 520.518 369.948 518.364 372.215C516.268 374.425 515.219 377.627 515.219 381.82V408H505.529V361.165H515.219V366.52C516.806 364.593 518.818 363.092 521.254 362.015C523.748 360.938 526.383 360.4 529.159 360.4ZM581.044 408.765C576.624 408.765 572.629 407.773 569.059 405.79C565.489 403.75 562.684 400.917 560.644 397.29C558.604 393.607 557.584 389.357 557.584 384.54C557.584 379.78 558.633 375.558 560.729 371.875C562.826 368.192 565.688 365.358 569.314 363.375C572.941 361.392 576.993 360.4 581.469 360.4C585.946 360.4 589.998 361.392 593.624 363.375C597.251 365.358 600.113 368.192 602.209 371.875C604.306 375.558 605.354 379.78 605.354 384.54C605.354 389.3 604.278 393.522 602.124 397.205C599.971 400.888 597.024 403.75 593.284 405.79C589.601 407.773 585.521 408.765 581.044 408.765ZM581.044 400.35C583.538 400.35 585.861 399.755 588.014 398.565C590.224 397.375 592.009 395.59 593.369 393.21C594.729 390.83 595.409 387.94 595.409 384.54C595.409 381.14 594.758 378.278 593.454 375.955C592.151 373.575 590.423 371.79 588.269 370.6C586.116 369.41 583.793 368.815 581.299 368.815C578.806 368.815 576.483 369.41 574.329 370.6C572.233 371.79 570.561 373.575 569.314 375.955C568.068 378.278 567.444 381.14 567.444 384.54C567.444 389.583 568.719 393.493 571.269 396.27C573.876 398.99 577.134 400.35 581.044 400.35Z" fill="black"/>
<mask id="path-10-outside-2_97_44" maskUnits="userSpaceOnUse" x="400" y="1007" width="49" height="32" fill="black">
<rect fill="white" x="400" y="1007" width="49" height="32"/>
<path d="M400.84 1030.92V1027.48L414.28 1008.2H419.8V1026.96H423.52V1030.92H419.8V1037H415.32V1030.92H400.84ZM415.52 1012.84L406.08 1026.96H415.52V1012.84ZM432.218 1021.76C429.445 1020.37 428.058 1018.19 428.058 1015.2C428.058 1013.76 428.418 1012.44 429.138 1011.24C429.858 1010.04 430.938 1009.09 432.378 1008.4C433.818 1007.68 435.578 1007.32 437.658 1007.32C439.712 1007.32 441.458 1007.68 442.898 1008.4C444.365 1009.09 445.458 1010.04 446.178 1011.24C446.898 1012.44 447.258 1013.76 447.258 1015.2C447.258 1016.69 446.872 1018.01 446.098 1019.16C445.352 1020.28 444.352 1021.15 443.098 1021.76C444.618 1022.32 445.818 1023.24 446.698 1024.52C447.578 1025.77 448.018 1027.25 448.018 1028.96C448.018 1030.69 447.578 1032.23 446.698 1033.56C445.818 1034.89 444.592 1035.92 443.018 1036.64C441.445 1037.36 439.658 1037.72 437.658 1037.72C435.658 1037.72 433.872 1037.36 432.298 1036.64C430.752 1035.92 429.538 1034.89 428.658 1033.56C427.778 1032.23 427.338 1030.69 427.338 1028.96C427.338 1027.23 427.778 1025.73 428.658 1024.48C429.538 1023.23 430.725 1022.32 432.218 1021.76ZM442.898 1015.76C442.898 1014.27 442.432 1013.12 441.498 1012.32C440.565 1011.52 439.285 1011.12 437.658 1011.12C436.058 1011.12 434.792 1011.52 433.858 1012.32C432.925 1013.12 432.458 1014.28 432.458 1015.8C432.458 1017.13 432.938 1018.23 433.898 1019.08C434.885 1019.91 436.138 1020.32 437.658 1020.32C439.178 1020.32 440.432 1019.89 441.418 1019.04C442.405 1018.19 442.898 1017.09 442.898 1015.76ZM437.658 1023.76C435.898 1023.76 434.458 1024.2 433.338 1025.08C432.245 1025.93 431.698 1027.17 431.698 1028.8C431.698 1030.32 432.232 1031.56 433.298 1032.52C434.365 1033.45 435.818 1033.92 437.658 1033.92C439.472 1033.92 440.898 1033.44 441.938 1032.48C443.005 1031.52 443.538 1030.29 443.538 1028.8C443.538 1027.2 442.992 1025.96 441.898 1025.08C440.832 1024.2 439.418 1023.76 437.658 1023.76Z"/>
</mask>
<path d="M400.84 1030.92V1027.48L414.28 1008.2H419.8V1026.96H423.52V1030.92H419.8V1037H415.32V1030.92H400.84ZM415.52 1012.84L406.08 1026.96H415.52V1012.84ZM432.218 1021.76C429.445 1020.37 428.058 1018.19 428.058 1015.2C428.058 1013.76 428.418 1012.44 429.138 1011.24C429.858 1010.04 430.938 1009.09 432.378 1008.4C433.818 1007.68 435.578 1007.32 437.658 1007.32C439.712 1007.32 441.458 1007.68 442.898 1008.4C444.365 1009.09 445.458 1010.04 446.178 1011.24C446.898 1012.44 447.258 1013.76 447.258 1015.2C447.258 1016.69 446.872 1018.01 446.098 1019.16C445.352 1020.28 444.352 1021.15 443.098 1021.76C444.618 1022.32 445.818 1023.24 446.698 1024.52C447.578 1025.77 448.018 1027.25 448.018 1028.96C448.018 1030.69 447.578 1032.23 446.698 1033.56C445.818 1034.89 444.592 1035.92 443.018 1036.64C441.445 1037.36 439.658 1037.72 437.658 1037.72C435.658 1037.72 433.872 1037.36 432.298 1036.64C430.752 1035.92 429.538 1034.89 428.658 1033.56C427.778 1032.23 427.338 1030.69 427.338 1028.96C427.338 1027.23 427.778 1025.73 428.658 1024.48C429.538 1023.23 430.725 1022.32 432.218 1021.76ZM442.898 1015.76C442.898 1014.27 442.432 1013.12 441.498 1012.32C440.565 1011.52 439.285 1011.12 437.658 1011.12C436.058 1011.12 434.792 1011.52 433.858 1012.32C432.925 1013.12 432.458 1014.28 432.458 1015.8C432.458 1017.13 432.938 1018.23 433.898 1019.08C434.885 1019.91 436.138 1020.32 437.658 1020.32C439.178 1020.32 440.432 1019.89 441.418 1019.04C442.405 1018.19 442.898 1017.09 442.898 1015.76ZM437.658 1023.76C435.898 1023.76 434.458 1024.2 433.338 1025.08C432.245 1025.93 431.698 1027.17 431.698 1028.8C431.698 1030.32 432.232 1031.56 433.298 1032.52C434.365 1033.45 435.818 1033.92 437.658 1033.92C439.472 1033.92 440.898 1033.44 441.938 1032.48C443.005 1031.52 443.538 1030.29 443.538 1028.8C443.538 1027.2 442.992 1025.96 441.898 1025.08C440.832 1024.2 439.418 1023.76 437.658 1023.76Z" fill="black"/>
<path d="M400.84 1030.92H400.54V1031.22H400.84V1030.92ZM400.84 1027.48L400.594 1027.31L400.54 1027.39V1027.48H400.84ZM414.28 1008.2V1007.9H414.123L414.034 1008.03L414.28 1008.2ZM419.8 1008.2H420.1V1007.9H419.8V1008.2ZM419.8 1026.96H419.5V1027.26H419.8V1026.96ZM423.52 1026.96H423.82V1026.66H423.52V1026.96ZM423.52 1030.92V1031.22H423.82V1030.92H423.52ZM419.8 1030.92V1030.62H419.5V1030.92H419.8ZM419.8 1037V1037.3H420.1V1037H419.8ZM415.32 1037H415.02V1037.3H415.32V1037ZM415.32 1030.92H415.62V1030.62H415.32V1030.92ZM415.52 1012.84H415.82V1011.85L415.271 1012.67L415.52 1012.84ZM406.08 1026.96L405.831 1026.79L405.519 1027.26H406.08V1026.96ZM415.52 1026.96V1027.26H415.82V1026.96H415.52ZM400.84 1030.92H401.14V1027.48H400.84H400.54V1030.92H400.84ZM400.84 1027.48L401.086 1027.65L414.526 1008.37L414.28 1008.2L414.034 1008.03L400.594 1027.31L400.84 1027.48ZM414.28 1008.2V1008.5H419.8V1008.2V1007.9H414.28V1008.2ZM419.8 1008.2H419.5V1026.96H419.8H420.1V1008.2H419.8ZM419.8 1026.96V1027.26H423.52V1026.96V1026.66H419.8V1026.96ZM423.52 1026.96H423.22V1030.92H423.52H423.82V1026.96H423.52ZM423.52 1030.92V1030.62H419.8V1030.92V1031.22H423.52V1030.92ZM419.8 1030.92H419.5V1037H419.8H420.1V1030.92H419.8ZM419.8 1037V1036.7H415.32V1037V1037.3H419.8V1037ZM415.32 1037H415.62V1030.92H415.32H415.02V1037H415.32ZM415.32 1030.92V1030.62H400.84V1030.92V1031.22H415.32V1030.92ZM415.52 1012.84L415.271 1012.67L405.831 1026.79L406.08 1026.96L406.329 1027.13L415.769 1013.01L415.52 1012.84ZM406.08 1026.96V1027.26H415.52V1026.96V1026.66H406.08V1026.96ZM415.52 1026.96H415.82V1012.84H415.52H415.22V1026.96H415.52ZM432.218 1021.76L432.324 1022.04L432.968 1021.8L432.353 1021.49L432.218 1021.76ZM429.138 1011.24L428.881 1011.09L429.138 1011.24ZM432.378 1008.4L432.509 1008.67L432.513 1008.67L432.378 1008.4ZM442.898 1008.4L442.764 1008.67L442.77 1008.67L442.898 1008.4ZM446.178 1011.24L446.436 1011.09L446.178 1011.24ZM446.098 1019.16L445.85 1018.99L445.849 1018.99L446.098 1019.16ZM443.098 1021.76L442.967 1021.49L442.336 1021.8L442.995 1022.04L443.098 1021.76ZM446.698 1024.52L446.451 1024.69L446.453 1024.69L446.698 1024.52ZM446.698 1033.56L446.949 1033.73L446.698 1033.56ZM443.018 1036.64L442.894 1036.37L443.018 1036.64ZM432.298 1036.64L432.172 1036.91L432.174 1036.91L432.298 1036.64ZM428.658 1033.56L428.408 1033.73L428.658 1033.56ZM428.658 1024.48L428.413 1024.31L428.658 1024.48ZM441.498 1012.32L441.694 1012.09V1012.09L441.498 1012.32ZM433.858 1012.32L433.663 1012.09V1012.09L433.858 1012.32ZM433.898 1019.08L433.699 1019.3L433.706 1019.31L433.898 1019.08ZM433.338 1025.08L433.523 1025.32L433.524 1025.32L433.338 1025.08ZM433.298 1032.52L433.098 1032.74L433.101 1032.75L433.298 1032.52ZM441.938 1032.48L441.738 1032.26L441.735 1032.26L441.938 1032.48ZM441.898 1025.08L441.708 1025.31L441.71 1025.31L441.898 1025.08ZM432.218 1021.76L432.353 1021.49C431.005 1020.82 430.011 1019.96 429.352 1018.92C428.693 1017.88 428.358 1016.65 428.358 1015.2H428.058H427.758C427.758 1016.74 428.117 1018.09 428.845 1019.24C429.573 1020.39 430.659 1021.32 432.084 1022.03L432.218 1021.76ZM428.058 1015.2H428.358C428.358 1013.81 428.705 1012.55 429.396 1011.39L429.138 1011.24L428.881 1011.09C428.132 1012.33 427.758 1013.71 427.758 1015.2H428.058ZM429.138 1011.24L429.396 1011.39C430.081 1010.25 431.114 1009.34 432.509 1008.67L432.378 1008.4L432.248 1008.13C430.763 1008.84 429.635 1009.83 428.881 1011.09L429.138 1011.24ZM432.378 1008.4L432.513 1008.67C433.901 1007.97 435.612 1007.62 437.658 1007.62V1007.32V1007.02C435.545 1007.02 433.736 1007.39 432.244 1008.13L432.378 1008.4ZM437.658 1007.32V1007.62C439.678 1007.62 441.376 1007.97 442.764 1008.67L442.898 1008.4L443.033 1008.13C441.541 1007.39 439.746 1007.02 437.658 1007.02V1007.32ZM442.898 1008.4L442.77 1008.67C444.192 1009.34 445.236 1010.25 445.921 1011.39L446.178 1011.24L446.436 1011.09C445.681 1009.83 444.538 1008.84 443.027 1008.13L442.898 1008.4ZM446.178 1011.24L445.921 1011.39C446.612 1012.55 446.958 1013.81 446.958 1015.2H447.258H447.558C447.558 1013.71 447.185 1012.33 446.436 1011.09L446.178 1011.24ZM447.258 1015.2H446.958C446.958 1016.64 446.587 1017.9 445.85 1018.99L446.098 1019.16L446.347 1019.33C447.157 1018.13 447.558 1016.75 447.558 1015.2H447.258ZM446.098 1019.16L445.849 1018.99C445.133 1020.07 444.174 1020.9 442.967 1021.49L443.098 1021.76L443.23 1022.03C444.529 1021.39 445.571 1020.49 446.348 1019.33L446.098 1019.16ZM443.098 1021.76L442.995 1022.04C444.459 1022.58 445.608 1023.46 446.451 1024.69L446.698 1024.52L446.946 1024.35C446.029 1023.02 444.778 1022.06 443.202 1021.48L443.098 1021.76ZM446.698 1024.52L446.453 1024.69C447.293 1025.89 447.718 1027.31 447.718 1028.96H448.018H448.318C448.318 1027.2 447.863 1025.66 446.944 1024.35L446.698 1024.52ZM448.018 1028.96H447.718C447.718 1030.64 447.293 1032.11 446.448 1033.39L446.698 1033.56L446.949 1033.73C447.864 1032.34 448.318 1030.75 448.318 1028.96H448.018ZM446.698 1033.56L446.448 1033.39C445.602 1034.68 444.42 1035.67 442.894 1036.37L443.018 1036.64L443.143 1036.91C444.763 1036.17 446.035 1035.11 446.949 1033.73L446.698 1033.56ZM443.018 1036.64L442.894 1036.37C441.365 1037.07 439.622 1037.42 437.658 1037.42V1037.72V1038.02C439.695 1038.02 441.525 1037.65 443.143 1036.91L443.018 1036.64ZM437.658 1037.72V1037.42C435.695 1037.42 433.952 1037.07 432.423 1036.37L432.298 1036.64L432.174 1036.91C433.792 1037.65 435.622 1038.02 437.658 1038.02V1037.72ZM432.298 1036.64L432.425 1036.37C430.925 1035.67 429.756 1034.68 428.909 1033.39L428.658 1033.56L428.408 1033.73C429.321 1035.11 430.578 1036.17 432.172 1036.91L432.298 1036.64ZM428.658 1033.56L428.909 1033.39C428.064 1032.11 427.638 1030.64 427.638 1028.96H427.338H427.038C427.038 1030.75 427.493 1032.34 428.408 1033.73L428.658 1033.56ZM427.338 1028.96H427.638C427.638 1027.28 428.064 1025.85 428.904 1024.65L428.658 1024.48L428.413 1024.31C427.493 1025.62 427.038 1027.17 427.038 1028.96H427.338ZM428.658 1024.48L428.904 1024.65C429.748 1023.45 430.885 1022.58 432.324 1022.04L432.218 1021.76L432.113 1021.48C430.566 1022.06 429.329 1023 428.413 1024.31L428.658 1024.48ZM442.898 1015.76H443.198C443.198 1014.2 442.708 1012.96 441.694 1012.09L441.498 1012.32L441.303 1012.55C442.156 1013.28 442.598 1014.33 442.598 1015.76H442.898ZM441.498 1012.32L441.694 1012.09C440.69 1011.23 439.333 1010.82 437.658 1010.82V1011.12V1011.42C439.237 1011.42 440.44 1011.81 441.303 1012.55L441.498 1012.32ZM437.658 1011.12V1010.82C436.009 1010.82 434.666 1011.23 433.663 1012.09L433.858 1012.32L434.054 1012.55C434.918 1011.81 436.108 1011.42 437.658 1011.42V1011.12ZM433.858 1012.32L433.663 1012.09C432.648 1012.96 432.158 1014.21 432.158 1015.8H432.458H432.758C432.758 1014.35 433.202 1013.28 434.054 1012.55L433.858 1012.32ZM432.458 1015.8H432.158C432.158 1017.22 432.672 1018.39 433.699 1019.3L433.898 1019.08L434.098 1018.86C433.205 1018.06 432.758 1017.05 432.758 1015.8H432.458ZM433.898 1019.08L433.706 1019.31C434.756 1020.19 436.081 1020.62 437.658 1020.62V1020.32V1020.02C436.196 1020.02 435.014 1019.62 434.091 1018.85L433.898 1019.08ZM437.658 1020.32V1020.62C439.238 1020.62 440.565 1020.18 441.615 1019.27L441.418 1019.04L441.222 1018.81C440.299 1019.61 439.119 1020.02 437.658 1020.02V1020.32ZM441.418 1019.04L441.615 1019.27C442.669 1018.36 443.198 1017.18 443.198 1015.76H442.898H442.598C442.598 1017.01 442.141 1018.02 441.222 1018.81L441.418 1019.04ZM437.658 1023.76V1023.46C435.847 1023.46 434.337 1023.91 433.153 1024.84L433.338 1025.08L433.524 1025.32C434.579 1024.49 435.949 1024.06 437.658 1024.06V1023.76ZM433.338 1025.08L433.154 1024.84C431.975 1025.76 431.398 1027.1 431.398 1028.8H431.698H431.998C431.998 1027.25 432.516 1026.1 433.523 1025.32L433.338 1025.08ZM431.698 1028.8H431.398C431.398 1030.4 431.964 1031.72 433.098 1032.74L433.298 1032.52L433.499 1032.3C432.5 1031.4 431.998 1030.24 431.998 1028.8H431.698ZM433.298 1032.52L433.101 1032.75C434.237 1033.74 435.768 1034.22 437.658 1034.22V1033.92V1033.62C435.869 1033.62 434.493 1033.17 433.496 1032.29L433.298 1032.52ZM437.658 1033.92V1034.22C439.525 1034.22 441.032 1033.72 442.142 1032.7L441.938 1032.48L441.735 1032.26C440.765 1033.16 439.418 1033.62 437.658 1033.62V1033.92ZM441.938 1032.48L442.139 1032.7C443.272 1031.68 443.838 1030.37 443.838 1028.8H443.538H443.238C443.238 1030.21 442.738 1031.36 441.738 1032.26L441.938 1032.48ZM443.538 1028.8H443.838C443.838 1027.12 443.261 1025.79 442.087 1024.85L441.898 1025.08L441.71 1025.31C442.722 1026.13 443.238 1027.28 443.238 1028.8H443.538ZM441.898 1025.08L442.089 1024.85C440.956 1023.91 439.469 1023.46 437.658 1023.46V1023.76V1024.06C439.368 1024.06 440.708 1024.49 441.708 1025.31L441.898 1025.08Z" fill="black" mask="url(#path-10-outside-2_97_44)"/>
<path d="M264.445 272H243.865L216.46 230.63V272H195.88V197.975H216.46L243.865 239.87V197.975H264.445V272ZM332.448 241.865C332.448 243.475 332.343 245.085 332.133 246.695H293.178C293.388 249.915 294.263 252.33 295.803 253.94C297.413 255.48 299.443 256.25 301.893 256.25C305.323 256.25 307.773 254.71 309.243 251.63H331.188C330.278 255.69 328.493 259.33 325.833 262.55C323.243 265.7 319.953 268.185 315.963 270.005C311.973 271.825 307.563 272.735 302.733 272.735C296.923 272.735 291.743 271.51 287.193 269.06C282.713 266.61 279.178 263.11 276.588 258.56C274.068 254.01 272.808 248.655 272.808 242.495C272.808 236.335 274.068 231.015 276.588 226.535C279.108 221.985 282.608 218.485 287.088 216.035C291.638 213.585 296.853 212.36 302.733 212.36C308.543 212.36 313.688 213.55 318.168 215.93C322.648 218.31 326.148 221.74 328.668 226.22C331.188 230.63 332.448 235.845 332.448 241.865ZM311.448 236.72C311.448 234.2 310.608 232.24 308.928 230.84C307.248 229.37 305.148 228.635 302.628 228.635C300.108 228.635 298.043 229.335 296.433 230.735C294.823 232.065 293.773 234.06 293.283 236.72H311.448ZM361.45 221.285C363.06 218.555 365.335 216.385 368.275 214.775C371.215 213.165 374.68 212.36 378.67 212.36C383.36 212.36 387.595 213.585 391.375 216.035C395.225 218.485 398.235 221.985 400.405 226.535C402.645 231.085 403.765 236.405 403.765 242.495C403.765 248.585 402.645 253.94 400.405 258.56C398.235 263.11 395.225 266.61 391.375 269.06C387.595 271.51 383.36 272.735 378.67 272.735C374.68 272.735 371.215 271.93 368.275 270.32C365.405 268.71 363.13 266.54 361.45 263.81V300.14H340.87V213.095H361.45V221.285ZM382.87 242.495C382.87 238.645 381.82 235.67 379.72 233.57C377.69 231.4 375.17 230.315 372.16 230.315C369.15 230.315 366.595 231.4 364.495 233.57C362.465 235.74 361.45 238.715 361.45 242.495C361.45 246.345 362.465 249.355 364.495 251.525C366.595 253.695 369.15 254.78 372.16 254.78C375.17 254.78 377.69 253.695 379.72 251.525C381.82 249.285 382.87 246.275 382.87 242.495ZM446.992 254.465V272H438.067C423.017 272 415.492 264.545 415.492 249.635V230.21H408.247V213.095H415.492V198.815H436.177V213.095H446.887V230.21H436.177V249.95C436.177 251.56 436.527 252.715 437.227 253.415C437.997 254.115 439.257 254.465 441.007 254.465H446.992ZM516.702 213.095V272H496.017V263.6C494.267 266.26 491.852 268.43 488.772 270.11C485.692 271.72 482.157 272.525 478.167 272.525C471.307 272.525 465.882 270.285 461.892 265.805C457.972 261.255 456.012 255.095 456.012 247.325V213.095H476.487V244.7C476.487 248.06 477.362 250.72 479.112 252.68C480.932 254.57 483.312 255.515 486.252 255.515C489.262 255.515 491.642 254.57 493.392 252.68C495.142 250.72 496.017 248.06 496.017 244.7V213.095H516.702ZM566.949 212.57C573.739 212.57 579.129 214.845 583.119 219.395C587.109 223.875 589.104 229.965 589.104 237.665V272H568.524V240.395C568.524 237.035 567.649 234.41 565.899 232.52C564.149 230.56 561.804 229.58 558.864 229.58C555.784 229.58 553.369 230.56 551.619 232.52C549.869 234.41 548.994 237.035 548.994 240.395V272H528.414V213.095H548.994V221.495C550.814 218.835 553.264 216.7 556.344 215.09C559.424 213.41 562.959 212.57 566.949 212.57ZM656.677 241.865C656.677 243.475 656.572 245.085 656.362 246.695H617.407C617.617 249.915 618.492 252.33 620.032 253.94C621.642 255.48 623.672 256.25 626.122 256.25C629.552 256.25 632.002 254.71 633.472 251.63H655.417C654.507 255.69 652.722 259.33 650.062 262.55C647.472 265.7 644.182 268.185 640.192 270.005C636.202 271.825 631.792 272.735 626.962 272.735C621.152 272.735 615.972 271.51 611.422 269.06C606.942 266.61 603.407 263.11 600.817 258.56C598.297 254.01 597.037 248.655 597.037 242.495C597.037 236.335 598.297 231.015 600.817 226.535C603.337 221.985 606.837 218.485 611.317 216.035C615.867 213.585 621.082 212.36 626.962 212.36C632.772 212.36 637.917 213.55 642.397 215.93C646.877 218.31 650.377 221.74 652.897 226.22C655.417 230.63 656.677 235.845 656.677 241.865ZM635.677 236.72C635.677 234.2 634.837 232.24 633.157 230.84C631.477 229.37 629.377 228.635 626.857 228.635C624.337 228.635 622.272 229.335 620.662 230.735C619.052 232.065 618.002 234.06 617.512 236.72H635.677Z" fill="black"/>
<circle cx="425" cy="722" r="254" fill="black"/>
<path d="M388.731 646.692C395.138 646.035 402.179 646.49 408.601 646.969C420.356 647.841 432.003 649.808 443.391 652.846C456.512 656.405 469.178 661.269 482.028 665.654C498.398 671.241 515.447 676.075 532.692 677.937C549.821 679.786 566.768 678.676 583.692 675.634C600.387 672.633 617.026 668.444 634.05 667.835C643.958 667.481 653.338 668.597 663.081 670.339C668.733 694.551 668.864 719.274 667.492 743.946C660.447 745.71 653.453 747.288 646.47 749.33C628.094 754.704 610.5 760.755 591.188 761.698C576.45 762.418 561.55 758.857 547.047 756.706C508.799 751.035 485.964 757.247 449.87 769.29C420.44 781.04 391.4 788.833 359.782 781.466C348.626 778.866 337.834 774.766 327.157 770.672C313.961 765.612 300.984 760.108 287.495 755.834C272.025 750.932 255.979 747.154 239.685 746.864C220.655 746.525 202.342 750.871 184.127 755.946C181.381 734.89 181.366 713.569 184.083 692.51C227.524 707.287 253.237 696.31 292.419 675.891C301.181 671.326 309.772 666.335 318.853 662.413C340.734 652.966 364.992 647.974 388.731 646.692Z" fill="#40496D"/>
<path d="M374.618 698.779C390.068 698.335 420.065 701.45 431.886 711.854C433.884 713.613 435.479 715.862 435.589 718.604C435.691 721.129 434.481 723.355 432.73 725.097C421.871 735.904 393.135 738.42 378.285 738.615C361.963 738.418 334.031 735.394 321.117 725.059C319.028 723.387 317.083 721.113 316.854 718.336C316.686 716.301 317.534 714.418 318.869 712.919C328.036 702.626 361.044 699.277 374.618 698.779Z" fill="black"/>
<path d="M373.652 706.344C385.858 705.69 416.026 708.967 425.48 716.487C426.263 717.111 426.889 717.83 426.943 718.874C426.974 719.494 426.623 720.143 426.206 720.592C424.887 722.017 422.554 722.961 420.795 723.725C408.34 729.134 393.081 730.844 379.609 731.011C367.13 731.012 354.195 729.63 342.179 726.161C338.55 725.114 327.293 721.495 325.463 718.2C325.595 717.527 325.65 717.262 326.137 716.741C327.509 715.274 330.328 714.384 332.183 713.694C345.309 708.813 359.735 706.951 373.652 706.344Z" fill="#40496D"/>
<path d="M372.299 714.238C382.253 713.291 394.84 714.563 403.976 718.781C397.576 720.918 390.854 721.768 384.133 722.015C373.198 722.713 363.216 721.632 352.648 718.747C358.89 715.976 365.548 714.897 372.299 714.238Z" fill="#637297"/>
<path d="M665.713 752.543L666.16 752.528L666.404 752.923C665.01 767.817 661.169 782.664 656.777 796.921C653.663 797.618 650.203 797.729 647.013 797.901C635.514 798.522 624.092 797.705 612.597 797.533C597.586 797.308 583.69 798.907 569.036 802.24C550.688 806.413 533.385 813.392 515.965 820.344C494.725 828.821 473.553 837.218 451.075 841.889C439.538 844.287 427.652 845.727 415.852 845.212C338.775 841.85 273.859 778.553 194.139 796.306C194.126 796.304 194.111 796.305 194.1 796.298C191.722 794.821 186.212 768.316 185.347 764.129C194.719 761.42 204.068 758.709 213.702 757.076C257.489 749.654 291.156 765.537 331.052 780.533C348.719 787.173 365.876 792.427 384.906 792.548C425.319 792.806 459.314 769.86 498.647 764.29C517.686 761.594 535.897 763.06 554.788 765.978C566.54 767.794 578.431 770.103 590.373 769.819C616.702 769.193 640.324 757.682 665.713 752.543Z" fill="#4B98D7"/>
<path d="M215.879 844.893C218.893 845.765 225.953 850.914 228.89 852.822C235.067 856.915 241.328 860.88 247.671 864.712C267.249 876.376 288.479 886.258 310.37 892.696C364.73 908.682 406.669 902.652 459.072 884.268C466.445 881.681 473.697 878.75 481.091 876.23C494.195 871.652 507.755 868.502 521.535 866.834C540.428 864.663 556.145 866.781 574.873 867.834C582.977 868.216 591.093 868.281 599.202 868.028C606.479 867.815 614.001 867.307 621.142 865.849C617.596 869.685 614.561 874.134 611.191 878.144C605.485 884.901 599.394 891.324 592.948 897.379C581.555 908.1 569.129 917.668 555.851 925.942C501.025 960.657 434.587 971.992 371.351 957.418C318.041 945.37 270.298 915.825 235.73 873.49C228.411 864.438 222.026 854.762 215.879 844.893Z" fill="#006CDE"/>
<path d="M386.243 600.143C407.567 598.838 429.343 601.776 450.068 606.635C469.907 611.286 489.259 617.785 508.961 622.965C544.777 632.382 572.749 634.461 608.595 624.362C619.939 621.276 630.995 617.213 641.638 612.221C650.007 628.09 656.135 644.603 660.964 661.847C634.198 655.682 609.317 662.868 583.022 667.502C570.306 669.743 557.495 671.126 544.57 670.69C522.962 669.962 502.264 664.217 481.95 657.171C472.185 653.784 462.516 650.041 452.58 647.175C445.299 644.588 437.229 642.996 429.624 641.686C391.509 635.196 352.336 639.68 316.674 654.616C309.642 657.617 302.98 661.424 296.229 664.992C286.036 670.379 275.764 675.692 265.225 680.373C258.706 683.269 252.053 686.011 245.163 687.898C225.342 693.195 204.345 691.999 185.254 684.486C188.17 667.765 192.474 651.501 199.091 635.84C206.591 634.748 214.238 634.421 221.773 633.52C233.345 632.064 244.831 629.996 256.183 627.322C276.795 622.575 296.954 615.971 317.438 610.714C340.179 604.879 362.783 601.285 386.243 600.143Z" fill="#4B98D7"/>
<path d="M420.573 482.023C423.7 481.943 426.829 481.947 429.956 482.035C476.97 483.098 521.727 496.326 561.029 522.367C574.236 531.118 586.857 541.246 597.816 552.708C583.29 560.917 567.043 565.644 550.579 567.931C524.033 571.62 505.907 569.674 479.867 564.44C470.682 562.594 461.525 560.724 452.444 558.397C439.474 555.073 426.675 551.313 413.488 548.865C399.421 546.391 385.176 545.056 370.894 544.873C361.867 544.706 352.838 545.116 343.862 546.101C320.179 548.655 304.263 554.454 283.315 565.69C276.312 569.446 269.568 573.701 262.616 577.559C246.358 586.582 237.46 591.745 218.776 595.089C227.643 581.371 237.415 568.651 248.687 556.806C294.402 508.762 354.586 483.621 420.573 482.023Z" fill="#006CDE"/>
<path d="M214.337 801.477C220.942 800.642 228.606 801.166 235.236 801.759C267.965 804.683 297.745 818.088 327.811 830.244C355.767 841.548 385.766 852.177 416.172 853.151C453.5 854.346 488.344 839.778 522.377 826.274C538.483 819.883 554.338 813.706 571.299 809.884C583.381 807.162 596.003 805.29 608.409 805.32C623.584 805.356 638.595 807.11 653.762 805.438C648.797 819.632 641.802 833.092 634.182 846.018C631.998 849.568 629.885 853.494 627.24 856.711C609.602 860.455 591.045 860.612 573.116 859.546C561.273 858.842 549.57 857.608 537.681 857.717C510.23 857.97 486.52 865.627 461.13 875.149C442.743 882.044 423.468 888.013 404.056 891.186C361.394 898.158 318.687 890.374 279.578 872.558C270.402 868.439 261.473 863.794 252.833 858.645C242.106 852.232 231.792 845.139 221.168 838.559C218.124 836.674 210.976 833.262 208.872 831.048C205.593 827.597 198.495 809.407 196.525 804.134C202.331 802.719 208.383 801.923 214.337 801.477Z" fill="#637297"/>
<path d="M254.621 591.124C256.858 589.491 259.481 588.222 261.891 586.853L275.826 578.928C288.393 571.742 301.263 564.784 315.02 560.129C341.855 551.05 377.934 551.453 405.618 555.751C423.849 558.58 441.522 564.056 459.422 568.38C477.054 572.639 498.486 576.898 516.563 577.887C546.3 579.513 577.61 573.334 603.549 558.492C616.286 572.452 629.232 588.728 638.022 605.521C615.761 615.352 590.527 622.516 566.069 622.943C527.725 623.614 491.736 608.765 455.12 599.65C431.915 593.678 407.968 591.098 384.024 591.988C351.648 593.295 320.733 601.322 289.746 610.152C270.529 615.628 249.18 622.081 229.461 624.392C220.515 625.721 211.512 626.636 202.48 627.133C205.578 619.36 209.329 611.307 213.638 604.121C228.4 601.857 241.283 597.905 254.621 591.124Z" fill="url(#paint0_linear_97_44)"/>
<path d="M213.638 604.121C228.4 601.857 241.283 597.906 254.621 591.124C254.15 593.111 250.425 597.21 249.098 598.883L236.103 615.158C234.041 617.738 231.514 620.397 229.777 623.189C229.528 623.588 229.471 623.931 229.461 624.392C220.515 625.721 211.512 626.636 202.48 627.133C205.578 619.36 209.329 611.307 213.638 604.121Z" fill="#40496D"/>
<defs>
<linearGradient id="paint0_linear_97_44" x1="374.497" y1="711.162" x2="503.774" y2="498.724" gradientUnits="userSpaceOnUse">
<stop stop-color="#58648A"/>
<stop offset="1" stop-color="#6A7A9F"/>
</linearGradient>
</defs>
</svg>
