<svg width="849" height="1183" viewBox="0 0 849 1183" fill="none" xmlns="http://www.w3.org/2000/svg">
<rect x="5" y="5" width="839" height="1173" rx="45" fill="white"/>
<rect x="5" y="5" width="839" height="1173" rx="45" stroke="black" stroke-width="10"/>
<circle cx="786.5" cy="1124.5" r="11.5" fill="black"/>
<circle cx="786.5" cy="59.5" r="11.5" fill="black"/>
<path d="M77 1124.5C77 1130.85 71.8513 1136 65.5 1136C59.1487 1136 54 1130.85 54 1124.5C54 1118.15 59.1487 1113 65.5 1113C71.8513 1113 77 1118.15 77 1124.5Z" fill="black"/>
<path d="M77 59.5C77 65.8513 71.8513 71 65.5 71C59.1487 71 54 65.8513 54 59.5C54 53.1487 59.1487 48 65.5 48C71.8513 48 77 53.1487 77 59.5Z" fill="black"/>
<mask id="path-6-inside-1_97_51" fill="white">
<path d="M708 48C713.523 48 717.934 52.4996 718.616 57.9801C723.122 94.1833 751.817 122.878 788.02 127.384C793.5 128.066 798 132.477 798 138V1046C798 1051.52 793.5 1055.93 788.02 1056.62C751.817 1061.12 723.122 1089.82 718.616 1126.02C717.934 1131.5 713.523 1136 708 1136H141C135.477 1136 131.066 1131.5 130.384 1126.02C125.878 1089.82 97.1833 1061.12 60.9801 1056.62C55.4996 1055.93 51 1051.52 51 1046V138C51 132.477 55.4996 128.066 60.9801 127.384C97.1833 122.878 125.878 94.1833 130.384 57.9801C131.066 52.4996 135.477 48 141 48H708Z"/>
</mask>
<path d="M708 48C713.523 48 717.934 52.4996 718.616 57.9801C723.122 94.1833 751.817 122.878 788.02 127.384C793.5 128.066 798 132.477 798 138V1046C798 1051.52 793.5 1055.93 788.02 1056.62C751.817 1061.12 723.122 1089.82 718.616 1126.02C717.934 1131.5 713.523 1136 708 1136H141C135.477 1136 131.066 1131.5 130.384 1126.02C125.878 1089.82 97.1833 1061.12 60.9801 1056.62C55.4996 1055.93 51 1051.52 51 1046V138C51 132.477 55.4996 128.066 60.9801 127.384C97.1833 122.878 125.878 94.1833 130.384 57.9801C131.066 52.4996 135.477 48 141 48H708Z" fill="#C357B5"/>
<path d="M130.384 1126.02L138.322 1125.03L130.384 1126.02ZM718.616 1126.02L710.678 1125.03L718.616 1126.02ZM788.02 1056.62L789.008 1064.56L788.02 1056.62ZM718.616 57.9801L726.555 56.9922L718.616 57.9801ZM718.616 57.9801L710.678 58.9681C715.635 98.8063 747.194 130.365 787.032 135.322L788.02 127.384L789.008 119.445C756.44 115.392 730.608 89.5603 726.555 56.9922L718.616 57.9801ZM798 138H790V1046H798H806V138H798ZM788.02 1056.62L787.032 1048.68C747.194 1053.64 715.635 1085.19 710.678 1125.03L718.616 1126.02L726.555 1127.01C730.608 1094.44 756.44 1068.61 789.008 1064.56L788.02 1056.62ZM708 1136V1128H141V1136V1144H708V1136ZM130.384 1126.02L138.322 1125.03C133.365 1085.19 101.806 1053.64 61.9681 1048.68L60.9801 1056.62L59.9922 1064.56C92.5603 1068.61 118.392 1094.44 122.445 1127.01L130.384 1126.02ZM51 1046H59V138H51H43V1046H51ZM60.9801 127.384L61.9681 135.322C101.806 130.365 133.365 98.8063 138.322 58.9681L130.384 57.9801L122.445 56.9922C118.392 89.5603 92.5603 115.392 59.9922 119.445L60.9801 127.384ZM141 48V56H708V48V40H141V48ZM130.384 57.9801L138.322 58.9681C138.438 58.0389 138.872 57.2306 139.427 56.6958C139.954 56.1887 140.494 56 141 56V48V40C130.84 40 123.547 48.1329 122.445 56.9922L130.384 57.9801ZM51 138H59C59 137.494 59.1887 136.954 59.6958 136.427C60.2306 135.872 61.0389 135.438 61.9681 135.322L60.9801 127.384L59.9922 119.445C51.1329 120.547 43 127.84 43 138H51ZM60.9801 1056.62L61.9681 1048.68C61.0389 1048.56 60.2306 1048.13 59.6958 1047.57C59.1887 1047.05 59 1046.51 59 1046H51H43C43 1056.16 51.1329 1063.45 59.9922 1064.56L60.9801 1056.62ZM141 1136V1128C140.494 1128 139.954 1127.81 139.427 1127.3C138.872 1126.77 138.438 1125.96 138.322 1125.03L130.384 1126.02L122.445 1127.01C123.547 1135.87 130.84 1144 141 1144V1136ZM718.616 1126.02L710.678 1125.03C710.562 1125.96 710.128 1126.77 709.573 1127.3C709.046 1127.81 708.506 1128 708 1128V1136V1144C718.16 1144 725.453 1135.87 726.555 1127.01L718.616 1126.02ZM798 1046H790C790 1046.51 789.811 1047.05 789.304 1047.57C788.769 1048.13 787.961 1048.56 787.032 1048.68L788.02 1056.62L789.008 1064.56C797.867 1063.45 806 1056.16 806 1046H798ZM788.02 127.384L787.032 135.322C787.961 135.438 788.769 135.872 789.304 136.427C789.811 136.954 790 137.494 790 138H798H806C806 127.84 797.867 120.547 789.008 119.445L788.02 127.384ZM718.616 57.9801L726.555 56.9922C725.453 48.1329 718.16 40 708 40V48V56C708.506 56 709.046 56.1887 709.573 56.6958C710.128 57.2306 710.562 58.0389 710.678 58.9681L718.616 57.9801Z" fill="black" mask="url(#path-6-inside-1_97_51)"/>
<path d="M690 102C695.523 102 699.911 106.512 700.837 111.957C705.019 136.563 724.437 155.981 749.043 160.163C754.488 161.089 759 165.477 759 171V1014C759 1019.52 754.488 1023.91 749.043 1024.84C724.711 1028.97 705.454 1048 700.984 1072.22C699.993 1077.59 695.633 1082 690.175 1082H158.825C153.367 1082 149.007 1077.59 148.016 1072.22C143.546 1048 124.288 1028.97 99.9568 1024.84C94.5121 1023.91 90 1019.52 90 1014V171C90 165.477 94.512 161.089 99.9568 160.163C124.563 155.981 143.981 136.563 148.163 111.957C149.089 106.512 153.477 102 159 102H690Z" fill="#D78BCD"/>
<path d="M272.145 378.335C272.145 372.555 273.477 367.37 276.14 362.78C278.86 358.19 282.515 354.62 287.105 352.07C291.752 349.463 296.823 348.16 302.32 348.16C308.61 348.16 314.192 349.718 319.065 352.835C323.995 355.895 327.565 360.258 329.775 365.925H318.13C316.6 362.808 314.475 360.485 311.755 358.955C309.035 357.425 305.89 356.66 302.32 356.66C298.41 356.66 294.925 357.538 291.865 359.295C288.805 361.052 286.397 363.573 284.64 366.86C282.94 370.147 282.09 373.972 282.09 378.335C282.09 382.698 282.94 386.523 284.64 389.81C286.397 393.097 288.805 395.647 291.865 397.46C294.925 399.217 298.41 400.095 302.32 400.095C305.89 400.095 309.035 399.33 311.755 397.8C314.475 396.27 316.6 393.947 318.13 390.83H329.775C327.565 396.497 323.995 400.86 319.065 403.92C314.192 406.98 308.61 408.51 302.32 408.51C296.767 408.51 291.695 407.235 287.105 404.685C282.515 402.078 278.86 398.48 276.14 393.89C273.477 389.3 272.145 384.115 272.145 378.335ZM361.432 408.765C357.012 408.765 353.017 407.773 349.447 405.79C345.877 403.75 343.072 400.917 341.032 397.29C338.992 393.607 337.972 389.357 337.972 384.54C337.972 379.78 339.021 375.558 341.117 371.875C343.214 368.192 346.076 365.358 349.702 363.375C353.329 361.392 357.381 360.4 361.857 360.4C366.334 360.4 370.386 361.392 374.012 363.375C377.639 365.358 380.501 368.192 382.597 371.875C384.694 375.558 385.742 379.78 385.742 384.54C385.742 389.3 384.666 393.522 382.512 397.205C380.359 400.888 377.412 403.75 373.672 405.79C369.989 407.773 365.909 408.765 361.432 408.765ZM361.432 400.35C363.926 400.35 366.249 399.755 368.402 398.565C370.612 397.375 372.397 395.59 373.757 393.21C375.117 390.83 375.797 387.94 375.797 384.54C375.797 381.14 375.146 378.278 373.842 375.955C372.539 373.575 370.811 371.79 368.657 370.6C366.504 369.41 364.181 368.815 361.687 368.815C359.194 368.815 356.871 369.41 354.717 370.6C352.621 371.79 350.949 373.575 349.702 375.955C348.456 378.278 347.832 381.14 347.832 384.54C347.832 389.583 349.107 393.493 351.657 396.27C354.264 398.99 357.522 400.35 361.432 400.35ZM419.546 360.4C423.116 360.4 426.29 361.165 429.066 362.695C431.9 364.225 434.11 366.492 435.696 369.495C437.34 372.498 438.161 376.125 438.161 380.375V408H428.556V381.82C428.556 377.627 427.508 374.425 425.411 372.215C423.315 369.948 420.453 368.815 416.826 368.815C413.2 368.815 410.31 369.948 408.156 372.215C406.06 374.425 405.011 377.627 405.011 381.82V408H395.321V345.1H405.011V366.605C406.655 364.622 408.723 363.092 411.216 362.015C413.766 360.938 416.543 360.4 419.546 360.4ZM493.446 383.435C493.446 385.192 493.333 386.778 493.106 388.195H457.321C457.605 391.935 458.993 394.938 461.486 397.205C463.98 399.472 467.04 400.605 470.666 400.605C475.88 400.605 479.563 398.423 481.716 394.06H492.171C490.755 398.367 488.176 401.908 484.436 404.685C480.753 407.405 476.163 408.765 470.666 408.765C466.19 408.765 462.166 407.773 458.596 405.79C455.083 403.75 452.306 400.917 450.266 397.29C448.283 393.607 447.291 389.357 447.291 384.54C447.291 379.723 448.255 375.502 450.181 371.875C452.165 368.192 454.913 365.358 458.426 363.375C461.996 361.392 466.076 360.4 470.666 360.4C475.086 360.4 479.025 361.363 482.481 363.29C485.938 365.217 488.63 367.937 490.556 371.45C492.483 374.907 493.446 378.902 493.446 383.435ZM483.331 380.375C483.275 376.805 482 373.943 479.506 371.79C477.013 369.637 473.925 368.56 470.241 368.56C466.898 368.56 464.036 369.637 461.656 371.79C459.276 373.887 457.86 376.748 457.406 380.375H483.331ZM514.287 369.07V394.995C514.287 396.752 514.684 398.027 515.477 398.82C516.327 399.557 517.744 399.925 519.727 399.925H525.677V408H518.027C513.664 408 510.321 406.98 507.997 404.94C505.674 402.9 504.512 399.585 504.512 394.995V369.07H498.987V361.165H504.512V349.52H514.287V361.165H525.677V369.07H514.287ZM577.533 383.435C577.533 385.192 577.42 386.778 577.193 388.195H541.408C541.692 391.935 543.08 394.938 545.573 397.205C548.067 399.472 551.127 400.605 554.753 400.605C559.967 400.605 563.65 398.423 565.803 394.06H576.258C574.842 398.367 572.263 401.908 568.523 404.685C564.84 407.405 560.25 408.765 554.753 408.765C550.277 408.765 546.253 407.773 542.683 405.79C539.17 403.75 536.393 400.917 534.353 397.29C532.37 393.607 531.378 389.357 531.378 384.54C531.378 379.723 532.342 375.502 534.268 371.875C536.252 368.192 539 365.358 542.513 363.375C546.083 361.392 550.163 360.4 554.753 360.4C559.173 360.4 563.112 361.363 566.568 363.29C570.025 365.217 572.717 367.937 574.643 371.45C576.57 374.907 577.533 378.902 577.533 383.435ZM567.418 380.375C567.362 376.805 566.087 373.943 563.593 371.79C561.1 369.637 558.012 368.56 554.328 368.56C550.985 368.56 548.123 369.637 545.743 371.79C543.363 373.887 541.947 376.748 541.493 380.375H567.418Z" fill="black"/>
<mask id="path-10-outside-2_97_51" maskUnits="userSpaceOnUse" x="401" y="1007" width="48" height="31" fill="black">
<rect fill="white" x="401" y="1007" width="48" height="31"/>
<path d="M420.2 1011.76H406.8V1019.72C407.36 1018.97 408.187 1018.35 409.28 1017.84C410.4 1017.33 411.587 1017.08 412.84 1017.08C415.08 1017.08 416.893 1017.56 418.28 1018.52C419.693 1019.48 420.693 1020.69 421.28 1022.16C421.893 1023.63 422.2 1025.17 422.2 1026.8C422.2 1028.77 421.813 1030.53 421.04 1032.08C420.293 1033.6 419.16 1034.8 417.64 1035.68C416.147 1036.56 414.307 1037 412.12 1037C409.213 1037 406.88 1036.28 405.12 1034.84C403.36 1033.4 402.307 1031.49 401.96 1029.12H406.4C406.693 1030.37 407.347 1031.37 408.36 1032.12C409.373 1032.84 410.64 1033.2 412.16 1033.2C414.053 1033.2 415.467 1032.63 416.4 1031.48C417.36 1030.33 417.84 1028.81 417.84 1026.92C417.84 1025 417.36 1023.53 416.4 1022.52C415.44 1021.48 414.027 1020.96 412.16 1020.96C410.853 1020.96 409.747 1021.29 408.84 1021.96C407.96 1022.6 407.32 1023.48 406.92 1024.6H402.6V1007.76H420.2V1011.76ZM426.947 1022.04C426.947 1017.43 427.72 1013.83 429.267 1011.24C430.84 1008.63 433.534 1007.32 437.347 1007.32C441.16 1007.32 443.84 1008.63 445.387 1011.24C446.96 1013.83 447.747 1017.43 447.747 1022.04C447.747 1026.71 446.96 1030.36 445.387 1033C443.84 1035.61 441.16 1036.92 437.347 1036.92C433.534 1036.92 430.84 1035.61 429.267 1033C427.72 1030.36 426.947 1026.71 426.947 1022.04ZM443.267 1022.04C443.267 1019.88 443.12 1018.05 442.827 1016.56C442.56 1015.07 442 1013.85 441.147 1012.92C440.294 1011.96 439.027 1011.48 437.347 1011.48C435.667 1011.48 434.4 1011.96 433.547 1012.92C432.694 1013.85 432.12 1015.07 431.827 1016.56C431.56 1018.05 431.427 1019.88 431.427 1022.04C431.427 1024.28 431.56 1026.16 431.827 1027.68C432.094 1029.2 432.654 1030.43 433.507 1031.36C434.387 1032.29 435.667 1032.76 437.347 1032.76C439.027 1032.76 440.294 1032.29 441.147 1031.36C442.027 1030.43 442.6 1029.2 442.867 1027.68C443.134 1026.16 443.267 1024.28 443.267 1022.04Z"/>
</mask>
<path d="M420.2 1011.76H406.8V1019.72C407.36 1018.97 408.187 1018.35 409.28 1017.84C410.4 1017.33 411.587 1017.08 412.84 1017.08C415.08 1017.08 416.893 1017.56 418.28 1018.52C419.693 1019.48 420.693 1020.69 421.28 1022.16C421.893 1023.63 422.2 1025.17 422.2 1026.8C422.2 1028.77 421.813 1030.53 421.04 1032.08C420.293 1033.6 419.16 1034.8 417.64 1035.68C416.147 1036.56 414.307 1037 412.12 1037C409.213 1037 406.88 1036.28 405.12 1034.84C403.36 1033.4 402.307 1031.49 401.96 1029.12H406.4C406.693 1030.37 407.347 1031.37 408.36 1032.12C409.373 1032.84 410.64 1033.2 412.16 1033.2C414.053 1033.2 415.467 1032.63 416.4 1031.48C417.36 1030.33 417.84 1028.81 417.84 1026.92C417.84 1025 417.36 1023.53 416.4 1022.52C415.44 1021.48 414.027 1020.96 412.16 1020.96C410.853 1020.96 409.747 1021.29 408.84 1021.96C407.96 1022.6 407.32 1023.48 406.92 1024.6H402.6V1007.76H420.2V1011.76ZM426.947 1022.04C426.947 1017.43 427.72 1013.83 429.267 1011.24C430.84 1008.63 433.534 1007.32 437.347 1007.32C441.16 1007.32 443.84 1008.63 445.387 1011.24C446.96 1013.83 447.747 1017.43 447.747 1022.04C447.747 1026.71 446.96 1030.36 445.387 1033C443.84 1035.61 441.16 1036.92 437.347 1036.92C433.534 1036.92 430.84 1035.61 429.267 1033C427.72 1030.36 426.947 1026.71 426.947 1022.04ZM443.267 1022.04C443.267 1019.88 443.12 1018.05 442.827 1016.56C442.56 1015.07 442 1013.85 441.147 1012.92C440.294 1011.96 439.027 1011.48 437.347 1011.48C435.667 1011.48 434.4 1011.96 433.547 1012.92C432.694 1013.85 432.12 1015.07 431.827 1016.56C431.56 1018.05 431.427 1019.88 431.427 1022.04C431.427 1024.28 431.56 1026.16 431.827 1027.68C432.094 1029.2 432.654 1030.43 433.507 1031.36C434.387 1032.29 435.667 1032.76 437.347 1032.76C439.027 1032.76 440.294 1032.29 441.147 1031.36C442.027 1030.43 442.6 1029.2 442.867 1027.68C443.134 1026.16 443.267 1024.28 443.267 1022.04Z" fill="black"/>
<path d="M420.2 1011.76V1012.06H420.5V1011.76H420.2ZM406.8 1011.76V1011.46H406.5V1011.76H406.8ZM406.8 1019.72H406.5V1020.62L407.04 1019.9L406.8 1019.72ZM409.28 1017.84L409.156 1017.57L409.154 1017.57L409.28 1017.84ZM418.28 1018.52L418.109 1018.77L418.111 1018.77L418.28 1018.52ZM421.28 1022.16L421.001 1022.27L421.003 1022.28L421.28 1022.16ZM421.04 1032.08L420.772 1031.95L420.771 1031.95L421.04 1032.08ZM417.64 1035.68L417.49 1035.42L417.488 1035.42L417.64 1035.68ZM405.12 1034.84L405.31 1034.61L405.12 1034.84ZM401.96 1029.12V1028.82H401.613L401.663 1029.16L401.96 1029.12ZM406.4 1029.12L406.692 1029.05L406.638 1028.82H406.4V1029.12ZM408.36 1032.12L408.182 1032.36L408.186 1032.36L408.36 1032.12ZM416.4 1031.48L416.17 1031.29L416.167 1031.29L416.4 1031.48ZM416.4 1022.52L416.18 1022.72L416.182 1022.73L416.4 1022.52ZM408.84 1021.96L409.016 1022.2L409.018 1022.2L408.84 1021.96ZM406.92 1024.6V1024.9H407.131L407.203 1024.7L406.92 1024.6ZM402.6 1024.6H402.3V1024.9H402.6V1024.6ZM402.6 1007.76V1007.46H402.3V1007.76H402.6ZM420.2 1007.76H420.5V1007.46H420.2V1007.76ZM420.2 1011.76V1011.46H406.8V1011.76V1012.06H420.2V1011.76ZM406.8 1011.76H406.5V1019.72H406.8H407.1V1011.76H406.8ZM406.8 1019.72L407.04 1019.9C407.563 1019.2 408.345 1018.6 409.406 1018.11L409.28 1017.84L409.154 1017.57C408.028 1018.09 407.157 1018.74 406.56 1019.54L406.8 1019.72ZM409.28 1017.84L409.404 1018.11C410.484 1017.62 411.628 1017.38 412.84 1017.38V1017.08V1016.78C411.545 1016.78 410.316 1017.04 409.156 1017.57L409.28 1017.84ZM412.84 1017.08V1017.38C415.039 1017.38 416.787 1017.85 418.109 1018.77L418.28 1018.52L418.451 1018.27C417 1017.27 415.121 1016.78 412.84 1016.78V1017.08ZM418.28 1018.52L418.111 1018.77C419.48 1019.7 420.439 1020.86 421.001 1022.27L421.28 1022.16L421.559 1022.05C420.948 1020.52 419.907 1019.26 418.449 1018.27L418.28 1018.52ZM421.28 1022.16L421.003 1022.28C421.601 1023.7 421.9 1025.21 421.9 1026.8H422.2H422.5C422.5 1025.13 422.186 1023.55 421.557 1022.04L421.28 1022.16ZM422.2 1026.8H421.9C421.9 1028.73 421.521 1030.45 420.772 1031.95L421.04 1032.08L421.308 1032.21C422.105 1030.62 422.5 1028.81 422.5 1026.8H422.2ZM421.04 1032.08L420.771 1031.95C420.051 1033.41 418.96 1034.57 417.49 1035.42L417.64 1035.68L417.79 1035.94C419.36 1035.03 420.535 1033.79 421.309 1032.21L421.04 1032.08ZM417.64 1035.68L417.488 1035.42C416.051 1036.27 414.267 1036.7 412.12 1036.7V1037V1037.3C414.346 1037.3 416.242 1036.85 417.792 1035.94L417.64 1035.68ZM412.12 1037V1036.7C409.263 1036.7 407.003 1035.99 405.31 1034.61L405.12 1034.84L404.93 1035.07C406.757 1036.57 409.164 1037.3 412.12 1037.3V1037ZM405.12 1034.84L405.31 1034.61C403.611 1033.22 402.593 1031.38 402.257 1029.08L401.96 1029.12L401.663 1029.16C402.02 1031.61 403.109 1033.58 404.93 1035.07L405.12 1034.84ZM401.96 1029.12V1029.42H406.4V1029.12V1028.82H401.96V1029.12ZM406.4 1029.12L406.108 1029.19C406.417 1030.51 407.11 1031.57 408.182 1032.36L408.36 1032.12L408.538 1031.88C407.583 1031.18 406.97 1030.24 406.692 1029.05L406.4 1029.12ZM408.36 1032.12L408.186 1032.36C409.261 1033.13 410.592 1033.5 412.16 1033.5V1033.2V1032.9C410.688 1032.9 409.486 1032.55 408.534 1031.88L408.36 1032.12ZM412.16 1033.2V1033.5C414.116 1033.5 415.627 1032.9 416.633 1031.67L416.4 1031.48L416.167 1031.29C415.306 1032.35 413.991 1032.9 412.16 1032.9V1033.2ZM416.4 1031.48L416.63 1031.67C417.646 1030.46 418.14 1028.86 418.14 1026.92H417.84H417.54C417.54 1028.76 417.074 1030.21 416.17 1031.29L416.4 1031.48ZM417.84 1026.92H418.14C418.14 1024.95 417.648 1023.4 416.618 1022.31L416.4 1022.52L416.182 1022.73C417.072 1023.67 417.54 1025.05 417.54 1026.92H417.84ZM416.4 1022.52L416.62 1022.32C415.587 1021.2 414.082 1020.66 412.16 1020.66V1020.96V1021.26C413.971 1021.26 415.293 1021.76 416.18 1022.72L416.4 1022.52ZM412.16 1020.96V1020.66C410.8 1020.66 409.628 1021.01 408.662 1021.72L408.84 1021.96L409.018 1022.2C409.865 1021.58 410.907 1021.26 412.16 1021.26V1020.96ZM408.84 1021.96L408.664 1021.72C407.73 1022.4 407.056 1023.33 406.637 1024.5L406.92 1024.6L407.203 1024.7C407.584 1023.63 408.19 1022.8 409.016 1022.2L408.84 1021.96ZM406.92 1024.6V1024.3H402.6V1024.6V1024.9H406.92V1024.6ZM402.6 1024.6H402.9V1007.76H402.6H402.3V1024.6H402.6ZM402.6 1007.76V1008.06H420.2V1007.76V1007.46H402.6V1007.76ZM420.2 1007.76H419.9V1011.76H420.2H420.5V1007.76H420.2ZM429.267 1011.24L429.01 1011.09L429.009 1011.09L429.267 1011.24ZM445.387 1011.24L445.129 1011.39L445.131 1011.4L445.387 1011.24ZM445.387 1033L445.129 1032.85L445.129 1032.85L445.387 1033ZM429.267 1033L429.008 1033.15L429.01 1033.15L429.267 1033ZM442.827 1016.56L442.532 1016.61L442.533 1016.62L442.827 1016.56ZM441.147 1012.92L440.923 1013.12L440.925 1013.12L441.147 1012.92ZM433.547 1012.92L433.768 1013.12L433.771 1013.12L433.547 1012.92ZM431.827 1016.56L431.532 1016.5L431.532 1016.51L431.827 1016.56ZM431.827 1027.68L432.122 1027.63L431.827 1027.68ZM433.507 1031.36L433.285 1031.56L433.289 1031.57L433.507 1031.36ZM441.147 1031.36L440.929 1031.15L440.925 1031.16L441.147 1031.36ZM442.867 1027.68L443.162 1027.73L442.867 1027.68ZM426.947 1022.04H427.247C427.247 1017.45 428.017 1013.92 429.524 1011.39L429.267 1011.24L429.009 1011.09C427.424 1013.74 426.647 1017.4 426.647 1022.04H426.947ZM429.267 1011.24L429.524 1011.39C431.029 1008.89 433.608 1007.62 437.347 1007.62V1007.32V1007.02C433.459 1007.02 430.651 1008.36 429.01 1011.09L429.267 1011.24ZM437.347 1007.32V1007.62C441.086 1007.62 443.65 1008.89 445.129 1011.39L445.387 1011.24L445.645 1011.09C444.03 1008.36 441.235 1007.02 437.347 1007.02V1007.32ZM445.387 1011.24L445.131 1011.4C446.664 1013.92 447.447 1017.46 447.447 1022.04H447.747H448.047C448.047 1017.4 447.256 1013.74 445.643 1011.08L445.387 1011.24ZM447.747 1022.04H447.447C447.447 1026.68 446.664 1030.27 445.129 1032.85L445.387 1033L445.645 1033.15C447.256 1030.45 448.047 1026.73 448.047 1022.04H447.747ZM445.387 1033L445.129 1032.85C443.65 1035.35 441.086 1036.62 437.347 1036.62V1036.92V1037.22C441.235 1037.22 444.03 1035.88 445.645 1033.15L445.387 1033ZM437.347 1036.92V1036.62C433.608 1036.62 431.029 1035.35 429.524 1032.85L429.267 1033L429.01 1033.15C430.651 1035.88 433.459 1037.22 437.347 1037.22V1036.92ZM429.267 1033L429.526 1032.85C428.017 1030.27 427.247 1026.68 427.247 1022.04H426.947H426.647C426.647 1026.73 427.424 1030.45 429.008 1033.15L429.267 1033ZM443.267 1022.04H443.567C443.567 1019.87 443.42 1018.02 443.121 1016.5L442.827 1016.56L442.533 1016.62C442.821 1018.09 442.967 1019.89 442.967 1022.04H443.267ZM442.827 1016.56L443.122 1016.51C442.848 1014.97 442.267 1013.7 441.368 1012.72L441.147 1012.92L440.925 1013.12C441.733 1014.01 442.273 1015.16 442.532 1016.61L442.827 1016.56ZM441.147 1012.92L441.371 1012.72C440.445 1011.68 439.085 1011.18 437.347 1011.18V1011.48V1011.78C438.969 1011.78 440.143 1012.24 440.923 1013.12L441.147 1012.92ZM437.347 1011.48V1011.18C435.609 1011.18 434.249 1011.68 433.323 1012.72L433.547 1012.92L433.771 1013.12C434.551 1012.24 435.725 1011.78 437.347 1011.78V1011.48ZM433.547 1012.92L433.325 1012.72C432.428 1013.7 431.834 1014.97 431.533 1016.5L431.827 1016.56L432.121 1016.62C432.406 1015.17 432.959 1014.01 433.768 1013.12L433.547 1012.92ZM431.827 1016.56L431.532 1016.51C431.261 1018.02 431.127 1019.87 431.127 1022.04H431.427H431.727C431.727 1019.89 431.86 1018.08 432.122 1016.61L431.827 1016.56ZM431.427 1022.04H431.127C431.127 1024.29 431.261 1026.19 431.531 1027.73L431.827 1027.68L432.122 1027.63C431.86 1026.13 431.727 1024.27 431.727 1022.04H431.427ZM431.827 1027.68L431.531 1027.73C431.806 1029.3 432.386 1030.58 433.285 1031.56L433.507 1031.36L433.728 1031.16C432.921 1030.27 432.381 1029.1 432.122 1027.63L431.827 1027.68ZM433.507 1031.36L433.289 1031.57C434.241 1032.58 435.611 1033.06 437.347 1033.06V1032.76V1032.46C435.723 1032.46 434.532 1032.01 433.725 1031.15L433.507 1031.36ZM437.347 1032.76V1033.06C439.082 1033.06 440.441 1032.58 441.368 1031.56L441.147 1031.36L440.925 1031.16C440.146 1032.01 438.972 1032.46 437.347 1032.46V1032.76ZM441.147 1031.36L441.365 1031.57C442.293 1030.58 442.888 1029.3 443.162 1027.73L442.867 1027.68L442.571 1027.63C442.313 1029.1 441.761 1030.27 440.929 1031.15L441.147 1031.36ZM442.867 1027.68L443.162 1027.73C443.433 1026.19 443.567 1024.29 443.567 1022.04H443.267H442.967C442.967 1024.27 442.834 1026.13 442.571 1027.63L442.867 1027.68Z" fill="black" mask="url(#path-10-outside-2_97_51)"/>
<path d="M279.365 272L264.665 244.7H262.46V272H241.88V197.975H274.325C280.275 197.975 285.315 199.025 289.445 201.125C293.575 203.155 296.69 205.99 298.79 209.63C300.89 213.2 301.94 217.225 301.94 221.705C301.94 226.745 300.54 231.19 297.74 235.04C295.01 238.82 290.985 241.515 285.665 243.125L302.36 272H279.365ZM262.46 230.63H272.645C275.445 230.63 277.545 229.965 278.945 228.635C280.345 227.305 281.045 225.38 281.045 222.86C281.045 220.48 280.31 218.625 278.84 217.295C277.44 215.895 275.375 215.195 272.645 215.195H262.46V230.63ZM338.704 272.735C332.824 272.735 327.539 271.51 322.849 269.06C318.229 266.61 314.589 263.11 311.929 258.56C309.269 254.01 307.939 248.655 307.939 242.495C307.939 236.405 309.269 231.085 311.929 226.535C314.659 221.985 318.334 218.485 322.954 216.035C327.644 213.585 332.929 212.36 338.809 212.36C344.689 212.36 349.939 213.585 354.559 216.035C359.249 218.485 362.924 221.985 365.584 226.535C368.314 231.085 369.679 236.405 369.679 242.495C369.679 248.585 368.314 253.94 365.584 258.56C362.924 263.11 359.249 266.61 354.559 269.06C349.869 271.51 344.584 272.735 338.704 272.735ZM338.704 254.885C341.574 254.885 343.954 253.835 345.844 251.735C347.804 249.565 348.784 246.485 348.784 242.495C348.784 238.505 347.804 235.46 345.844 233.36C343.954 231.26 341.609 230.21 338.809 230.21C336.009 230.21 333.664 231.26 331.774 233.36C329.884 235.46 328.939 238.505 328.939 242.495C328.939 246.555 329.849 249.635 331.669 251.735C333.489 253.835 335.834 254.885 338.704 254.885ZM374.692 242.495C374.692 236.405 375.952 231.085 378.472 226.535C380.992 221.985 384.492 218.485 388.972 216.035C393.522 213.585 398.702 212.36 404.512 212.36C412.002 212.36 418.302 214.425 423.412 218.555C428.522 222.615 431.812 228.32 433.282 235.67H411.442C410.182 231.82 407.732 229.895 404.092 229.895C401.502 229.895 399.437 230.98 397.897 233.15C396.427 235.25 395.692 238.365 395.692 242.495C395.692 246.625 396.427 249.775 397.897 251.945C399.437 254.115 401.502 255.2 404.092 255.2C407.802 255.2 410.252 253.275 411.442 249.425H433.282C431.812 256.705 428.522 262.41 423.412 266.54C418.302 270.67 412.002 272.735 404.512 272.735C398.702 272.735 393.522 271.51 388.972 269.06C384.492 266.61 380.992 263.11 378.472 258.56C375.952 254.01 374.692 248.655 374.692 242.495ZM478.686 272L462.411 247.85V272H441.831V194.3H462.411V236.195L478.686 213.095H503.361L480.156 242.705L503.781 272H478.686ZM566.095 241.865C566.095 243.475 565.99 245.085 565.78 246.695H526.825C527.035 249.915 527.91 252.33 529.45 253.94C531.06 255.48 533.09 256.25 535.54 256.25C538.97 256.25 541.42 254.71 542.89 251.63H564.835C563.925 255.69 562.14 259.33 559.48 262.55C556.89 265.7 553.6 268.185 549.61 270.005C545.62 271.825 541.21 272.735 536.38 272.735C530.57 272.735 525.39 271.51 520.84 269.06C516.36 266.61 512.825 263.11 510.235 258.56C507.715 254.01 506.455 248.655 506.455 242.495C506.455 236.335 507.715 231.015 510.235 226.535C512.755 221.985 516.255 218.485 520.735 216.035C525.285 213.585 530.5 212.36 536.38 212.36C542.19 212.36 547.335 213.55 551.815 215.93C556.295 218.31 559.795 221.74 562.315 226.22C564.835 230.63 566.095 235.845 566.095 241.865ZM545.095 236.72C545.095 234.2 544.255 232.24 542.575 230.84C540.895 229.37 538.795 228.635 536.275 228.635C533.755 228.635 531.69 229.335 530.08 230.735C528.47 232.065 527.42 234.06 526.93 236.72H545.095ZM609.272 254.465V272H600.347C585.297 272 577.772 264.545 577.772 249.635V230.21H570.527V213.095H577.772V198.815H598.457V213.095H609.167V230.21H598.457V249.95C598.457 251.56 598.807 252.715 599.507 253.415C600.277 254.115 601.537 254.465 603.287 254.465H609.272Z" fill="black"/>
<path d="M661.558 442.063C689.99 441.284 686.477 447.537 685.782 472.795C682.778 582.051 623.152 681.424 545.373 754.766C564.074 781.78 561.922 820.51 540.295 845.459C531.258 855.887 520.849 865.616 511.041 875.312L447.713 938.482C442.748 943.46 437.882 948.63 432.731 953.403C426.566 959.114 415.353 955.936 412.984 947.856C411.942 944.302 411.687 940.394 411.22 936.725L408.955 919.477C405.619 895.191 402.828 870.653 398.549 846.521C391.031 854.919 378.467 865.808 372.364 874.245C371.634 883.655 373.39 893.194 373.064 902.675C371.953 905.546 319.499 957.638 314.028 963C310.549 940.825 303.988 917.999 299.971 895.583C277.176 907.405 264.237 912.388 237.027 912.228C232.458 911.917 227.917 911.415 223.396 910.697C215.355 884.611 220.491 853.889 232.599 830.058C211.007 827.409 185.331 823.257 164 819.001C166.74 815.589 169.961 812.53 173.017 809.404L212.715 769.085C216.57 765.199 220.519 760.416 224.981 757.293C235.815 757.946 246.989 759.964 257.684 761.83C264.819 755.423 276.191 744.474 282.575 737.32C257.899 730.168 232.711 724.385 207.416 719.928C200.955 718.79 180.606 716.412 176.494 713.527C164.318 704.985 179.471 693.213 185.222 687.475L259.075 614.216C267.939 605.361 278.905 592.958 288.858 585.938C314.618 567.769 352.34 568.954 377.533 587.463C385.685 579.207 393.067 570.215 401.51 562.215C468.689 498.555 551.687 452.362 644.74 443.416C650.338 442.878 655.969 442.705 661.558 442.063Z" fill="#1D1F20"/>
<path d="M514.448 503.783C536.024 527.393 562.712 552.116 585.954 574.118C590.372 578.04 594.388 582.427 598.654 586.516L628.107 614.493C626.19 619.001 623.548 623.325 621.133 627.586C570.126 717.595 494.978 782.828 400.446 822.71C391.093 811.494 380.086 801.773 370.099 791.152L366.209 787.543C369.515 783.236 373.685 779.503 377.485 775.63L457.803 694.899C463.701 688.923 485.579 670.68 487.053 663.123C488.044 658.047 484.349 652.528 479.116 651.944C471.764 651.126 465.54 659.207 460.915 663.776L366.624 758.731C361.93 763.532 357.469 769.193 352.138 773.244L351.696 773.575C340.787 760.616 323.438 743.995 310.66 732.061C317.768 716.789 324.546 701.52 332.672 686.732C370.25 618.344 426.559 555.679 494.182 515.665C500.912 511.681 507.955 508.153 514.448 503.783Z" fill="#4D7792"/>
<path d="M585.954 574.118C590.372 578.04 594.388 582.427 598.654 586.516L628.107 614.493C626.19 619.002 623.548 623.326 621.133 627.587C570.126 717.596 494.978 782.828 400.446 822.71C391.093 811.495 380.086 801.774 370.099 791.153C414.621 772.614 454.625 745.785 491.284 714.71C500.749 706.686 543.866 666.382 548.88 655.894C562.011 650.296 572.354 639.671 577.596 626.394C582.838 613.117 582.542 598.293 576.777 585.236C579.751 582.835 583.457 577.26 585.954 574.118Z" fill="#32495A"/>
<path d="M548.88 655.893C521.846 667.417 490.582 654.918 478.943 627.933C467.303 600.949 479.668 569.632 506.602 557.876C533.536 546.121 564.906 558.352 576.777 585.236C582.542 598.293 582.837 613.117 577.595 626.394C572.354 639.671 562.011 650.296 548.88 655.893Z" fill="#1D1F20"/>
<path d="M501.741 627.209C491.511 614.178 492.39 595.615 503.805 583.607C515.219 571.601 533.714 569.784 547.247 579.342C557.935 586.891 563.224 599.989 560.778 612.843C558.331 625.697 548.597 635.936 535.884 639.03C523.17 642.123 509.82 637.502 501.741 627.209Z" fill="#FC8A0A"/>
<path d="M501.741 627.209C491.511 614.178 492.39 595.615 503.805 583.607C515.219 571.601 533.714 569.784 547.247 579.342C543.751 585.959 508.021 621.024 501.741 627.209Z" fill="#FECB11"/>
<path d="M533.194 494.295C567.49 476.225 628.613 461.856 665.884 462.336V466.442C666.617 509.028 654.107 557.246 637.167 596.097L610.299 569.698C604.484 564.07 598.491 558.629 592.834 552.837C572.368 534.145 552.12 514.565 533.194 494.295Z" fill="#F5F7F7"/>
<path d="M665.883 466.441C666.617 509.028 654.107 557.246 637.166 596.097L610.299 569.697C604.484 564.069 598.49 558.628 592.834 552.837C611.317 531.525 629.164 509.62 647.303 488.01C651.102 483.484 662.08 469.049 665.883 466.441Z" fill="#B0DAE9"/>
<path d="M202.992 698.896L281.551 620.408C298.334 603.414 322.363 582.857 348.432 596.097C354.349 596.718 359.314 599.888 364.485 602.628C341.054 630.459 306.613 684.396 294.082 720.128C288.036 718.053 281.996 716.13 275.827 714.452C251.895 708.207 227.469 702.478 202.992 698.896Z" fill="#FC384A"/>
<path d="M348.431 596.098C354.349 596.719 359.314 599.888 364.484 602.628C341.054 630.46 306.612 684.397 294.081 720.129C288.036 718.053 281.995 716.131 275.827 714.453C277.268 709.512 279.973 704.575 282.197 699.942C292.949 677.536 328.722 612.31 348.431 596.098Z" fill="#C70D2E"/>
<path d="M529.548 767.594C533.977 773.79 536.018 780.323 538.145 787.544C540.636 826.27 520.466 837.18 496.174 861.291L430.873 925.651C426.963 903.053 424.826 880.154 420.928 857.523C419.661 850.675 418.599 843.84 417.691 836.935C454.925 821.429 500.299 794.073 529.548 767.594Z" fill="#FC384A"/>
<path d="M529.548 767.594C533.977 773.79 536.018 780.323 538.145 787.544L537.691 787.82C533.488 790.41 529.763 794.045 525.947 797.176C506.042 813.507 447.174 851.265 420.928 857.523C419.661 850.675 418.599 843.84 417.691 836.935C454.925 821.429 500.299 794.073 529.548 767.594Z" fill="#C70D2E"/>
<path d="M303.418 824.975C318.192 839.549 338.616 858.419 351.696 874.245C351.503 881.342 352.151 888.496 352.545 895.583C343.455 903.498 336.068 913.243 327.008 921.099C323.249 907.315 313.437 870.509 314.027 859.549C290.674 877.837 271.087 893.083 240.112 892.226V886.773C244.461 886.517 268.755 859.977 272.726 856.097L293.165 835.964C296.551 832.574 300.872 829.016 303.418 824.975Z" fill="#FC8A0A"/>
<path d="M206.017 805.29C215.436 797.149 223.235 787.198 232.599 778.972C238.941 779.78 253.873 780.272 258.915 782.004C262.408 783.203 297.808 819.288 303.418 824.975C300.872 829.016 296.551 832.574 293.165 835.964L272.726 856.097C268.755 859.977 244.461 886.517 240.112 886.773C239.054 857.07 248.42 836.074 269.085 814.874C262.889 814.193 256.658 813.048 250.488 812.132L206.017 805.29Z" fill="#FECB11"/>
<path d="M340.468 789.693C355.364 802.483 369.515 819.302 384.657 832.962C376.958 840.577 369.599 848.623 361.785 856.099C348.3 840.335 332.424 826.781 318.391 811.536C320.76 810.019 339.415 791.735 340.468 789.693Z" fill="#048FF0"/>
<path d="M298.771 748.924C312.915 762.271 326.195 776.519 340.468 789.693C339.416 791.735 320.76 810.019 318.391 811.535C304.399 798.12 290.803 784.074 277.249 770.203C284.563 763.228 291.518 755.95 298.771 748.924Z" fill="#03D1F4"/>
</svg>
