<svg width="849" height="1183" viewBox="0 0 849 1183" fill="none" xmlns="http://www.w3.org/2000/svg">
<rect x="5" y="5" width="839" height="1173" rx="45" fill="white"/>
<rect x="5" y="5" width="839" height="1173" rx="45" stroke="black" stroke-width="10"/>
<circle cx="786.5" cy="1124.5" r="11.5" fill="black"/>
<circle cx="786.5" cy="59.5" r="11.5" fill="black"/>
<path d="M77 1124.5C77 1130.85 71.8513 1136 65.5 1136C59.1487 1136 54 1130.85 54 1124.5C54 1118.15 59.1487 1113 65.5 1113C71.8513 1113 77 1118.15 77 1124.5Z" fill="black"/>
<path d="M77 59.5C77 65.8513 71.8513 71 65.5 71C59.1487 71 54 65.8513 54 59.5C54 53.1487 59.1487 48 65.5 48C71.8513 48 77 53.1487 77 59.5Z" fill="black"/>
<mask id="path-6-inside-1_97_4" fill="white">
<path d="M708 48C713.523 48 717.934 52.4996 718.616 57.9801C723.122 94.1833 751.817 122.878 788.02 127.384C793.5 128.066 798 132.477 798 138V1046C798 1051.52 793.5 1055.93 788.02 1056.62C751.817 1061.12 723.122 1089.82 718.616 1126.02C717.934 1131.5 713.523 1136 708 1136H141C135.477 1136 131.066 1131.5 130.384 1126.02C125.878 1089.82 97.1833 1061.12 60.9801 1056.62C55.4996 1055.93 51 1051.52 51 1046V138C51 132.477 55.4996 128.066 60.9801 127.384C97.1833 122.878 125.878 94.1833 130.384 57.9801C131.066 52.4996 135.477 48 141 48H708Z"/>
</mask>
<path d="M708 48C713.523 48 717.934 52.4996 718.616 57.9801C723.122 94.1833 751.817 122.878 788.02 127.384C793.5 128.066 798 132.477 798 138V1046C798 1051.52 793.5 1055.93 788.02 1056.62C751.817 1061.12 723.122 1089.82 718.616 1126.02C717.934 1131.5 713.523 1136 708 1136H141C135.477 1136 131.066 1131.5 130.384 1126.02C125.878 1089.82 97.1833 1061.12 60.9801 1056.62C55.4996 1055.93 51 1051.52 51 1046V138C51 132.477 55.4996 128.066 60.9801 127.384C97.1833 122.878 125.878 94.1833 130.384 57.9801C131.066 52.4996 135.477 48 141 48H708Z" fill="#006AB6"/>
<path d="M130.384 1126.02L138.322 1125.03L130.384 1126.02ZM718.616 1126.02L710.678 1125.03L718.616 1126.02ZM788.02 1056.62L789.008 1064.56L788.02 1056.62ZM718.616 57.9801L726.555 56.9922L718.616 57.9801ZM718.616 57.9801L710.678 58.9681C715.635 98.8063 747.194 130.365 787.032 135.322L788.02 127.384L789.008 119.445C756.44 115.392 730.608 89.5603 726.555 56.9922L718.616 57.9801ZM798 138H790V1046H798H806V138H798ZM788.02 1056.62L787.032 1048.68C747.194 1053.64 715.635 1085.19 710.678 1125.03L718.616 1126.02L726.555 1127.01C730.608 1094.44 756.44 1068.61 789.008 1064.56L788.02 1056.62ZM708 1136V1128H141V1136V1144H708V1136ZM130.384 1126.02L138.322 1125.03C133.365 1085.19 101.806 1053.64 61.9681 1048.68L60.9801 1056.62L59.9922 1064.56C92.5603 1068.61 118.392 1094.44 122.445 1127.01L130.384 1126.02ZM51 1046H59V138H51H43V1046H51ZM60.9801 127.384L61.9681 135.322C101.806 130.365 133.365 98.8063 138.322 58.9681L130.384 57.9801L122.445 56.9922C118.392 89.5603 92.5603 115.392 59.9922 119.445L60.9801 127.384ZM141 48V56H708V48V40H141V48ZM130.384 57.9801L138.322 58.9681C138.438 58.0389 138.872 57.2306 139.427 56.6958C139.954 56.1887 140.494 56 141 56V48V40C130.84 40 123.547 48.1329 122.445 56.9922L130.384 57.9801ZM51 138H59C59 137.494 59.1887 136.954 59.6958 136.427C60.2306 135.872 61.0389 135.438 61.9681 135.322L60.9801 127.384L59.9922 119.445C51.1329 120.547 43 127.84 43 138H51ZM60.9801 1056.62L61.9681 1048.68C61.0389 1048.56 60.2306 1048.13 59.6958 1047.57C59.1887 1047.05 59 1046.51 59 1046H51H43C43 1056.16 51.1329 1063.45 59.9922 1064.56L60.9801 1056.62ZM141 1136V1128C140.494 1128 139.954 1127.81 139.427 1127.3C138.872 1126.77 138.438 1125.96 138.322 1125.03L130.384 1126.02L122.445 1127.01C123.547 1135.87 130.84 1144 141 1144V1136ZM718.616 1126.02L710.678 1125.03C710.562 1125.96 710.128 1126.77 709.573 1127.3C709.046 1127.81 708.506 1128 708 1128V1136V1144C718.16 1144 725.453 1135.87 726.555 1127.01L718.616 1126.02ZM798 1046H790C790 1046.51 789.811 1047.05 789.304 1047.57C788.769 1048.13 787.961 1048.56 787.032 1048.68L788.02 1056.62L789.008 1064.56C797.867 1063.45 806 1056.16 806 1046H798ZM788.02 127.384L787.032 135.322C787.961 135.438 788.769 135.872 789.304 136.427C789.811 136.954 790 137.494 790 138H798H806C806 127.84 797.867 120.547 789.008 119.445L788.02 127.384ZM718.616 57.9801L726.555 56.9922C725.453 48.1329 718.16 40 708 40V48V56C708.506 56 709.046 56.1887 709.573 56.6958C710.128 57.2306 710.562 58.0389 710.678 58.9681L718.616 57.9801Z" fill="black" mask="url(#path-6-inside-1_97_4)"/>
<path d="M690 102C695.523 102 699.911 106.512 700.837 111.957C705.019 136.563 724.437 155.981 749.043 160.163C754.488 161.089 759 165.477 759 171V1014C759 1019.52 754.488 1023.91 749.043 1024.84C724.711 1028.97 705.454 1048 700.984 1072.22C699.993 1077.59 695.633 1082 690.175 1082H158.825C153.367 1082 149.007 1077.59 148.016 1072.22C143.546 1048 124.288 1028.97 99.9568 1024.84C94.5121 1023.91 90 1019.52 90 1014V171C90 165.477 94.512 161.089 99.9568 160.163C124.563 155.981 143.981 136.563 148.163 111.957C149.089 106.512 153.477 102 159 102H690Z" fill="#5298CB"/>
<path d="M352.685 366.52C352.685 369.523 351.977 372.357 350.56 375.02C349.143 377.683 346.877 379.865 343.76 381.565C340.643 383.208 336.648 384.03 331.775 384.03H321.065V408H311.375V348.925H331.775C336.308 348.925 340.133 349.718 343.25 351.305C346.423 352.835 348.775 354.932 350.305 357.595C351.892 360.258 352.685 363.233 352.685 366.52ZM331.775 376.125C335.458 376.125 338.207 375.303 340.02 373.66C341.833 371.96 342.74 369.58 342.74 366.52C342.74 360.06 339.085 356.83 331.775 356.83H321.065V376.125H331.775ZM358.697 384.37C358.697 379.667 359.66 375.502 361.587 371.875C363.57 368.248 366.233 365.443 369.577 363.46C372.977 361.42 376.717 360.4 380.797 360.4C384.48 360.4 387.682 361.137 390.402 362.61C393.178 364.027 395.388 365.812 397.032 367.965V361.165H406.807V408H397.032V401.03C395.388 403.24 393.15 405.082 390.317 406.555C387.483 408.028 384.253 408.765 380.627 408.765C376.603 408.765 372.92 407.745 369.577 405.705C366.233 403.608 363.57 400.718 361.587 397.035C359.66 393.295 358.697 389.073 358.697 384.37ZM397.032 384.54C397.032 381.31 396.352 378.505 394.992 376.125C393.688 373.745 391.96 371.932 389.807 370.685C387.653 369.438 385.33 368.815 382.837 368.815C380.343 368.815 378.02 369.438 375.867 370.685C373.713 371.875 371.957 373.66 370.597 376.04C369.293 378.363 368.642 381.14 368.642 384.37C368.642 387.6 369.293 390.433 370.597 392.87C371.957 395.307 373.713 397.177 375.867 398.48C378.077 399.727 380.4 400.35 382.837 400.35C385.33 400.35 387.653 399.727 389.807 398.48C391.96 397.233 393.688 395.42 394.992 393.04C396.352 390.603 397.032 387.77 397.032 384.54ZM436.534 408.765C432.851 408.765 429.536 408.113 426.589 406.81C423.699 405.45 421.404 403.637 419.704 401.37C418.004 399.047 417.098 396.468 416.984 393.635H427.014C427.184 395.618 428.119 397.29 429.819 398.65C431.576 399.953 433.758 400.605 436.364 400.605C439.084 400.605 441.181 400.095 442.654 399.075C444.184 397.998 444.949 396.638 444.949 394.995C444.949 393.238 444.099 391.935 442.399 391.085C440.756 390.235 438.121 389.3 434.494 388.28C430.981 387.317 428.119 386.382 425.909 385.475C423.699 384.568 421.773 383.18 420.129 381.31C418.543 379.44 417.749 376.975 417.749 373.915C417.749 371.422 418.486 369.155 419.959 367.115C421.433 365.018 423.529 363.375 426.249 362.185C429.026 360.995 432.199 360.4 435.769 360.4C441.096 360.4 445.374 361.76 448.604 364.48C451.891 367.143 453.648 370.798 453.874 375.445H444.184C444.014 373.348 443.164 371.677 441.634 370.43C440.104 369.183 438.036 368.56 435.429 368.56C432.879 368.56 430.924 369.042 429.564 370.005C428.204 370.968 427.524 372.243 427.524 373.83C427.524 375.077 427.978 376.125 428.884 376.975C429.791 377.825 430.896 378.505 432.199 379.015C433.503 379.468 435.429 380.063 437.979 380.8C441.379 381.707 444.156 382.642 446.309 383.605C448.519 384.512 450.418 385.872 452.004 387.685C453.591 389.498 454.413 391.907 454.469 394.91C454.469 397.573 453.733 399.953 452.259 402.05C450.786 404.147 448.689 405.79 445.969 406.98C443.306 408.17 440.161 408.765 436.534 408.765ZM476.244 369.07V394.995C476.244 396.752 476.641 398.027 477.434 398.82C478.284 399.557 479.701 399.925 481.684 399.925H487.634V408H479.984C475.621 408 472.278 406.98 469.954 404.94C467.631 402.9 466.469 399.585 466.469 394.995V369.07H460.944V361.165H466.469V349.52H476.244V361.165H487.634V369.07H476.244ZM516.88 408.765C512.46 408.765 508.465 407.773 504.895 405.79C501.325 403.75 498.52 400.917 496.48 397.29C494.44 393.607 493.42 389.357 493.42 384.54C493.42 379.78 494.469 375.558 496.565 371.875C498.662 368.192 501.524 365.358 505.15 363.375C508.777 361.392 512.829 360.4 517.305 360.4C521.782 360.4 525.834 361.392 529.46 363.375C533.087 365.358 535.949 368.192 538.045 371.875C540.142 375.558 541.19 379.78 541.19 384.54C541.19 389.3 540.114 393.522 537.96 397.205C535.807 400.888 532.86 403.75 529.12 405.79C525.437 407.773 521.357 408.765 516.88 408.765ZM516.88 400.35C519.374 400.35 521.697 399.755 523.85 398.565C526.06 397.375 527.845 395.59 529.205 393.21C530.565 390.83 531.245 387.94 531.245 384.54C531.245 381.14 530.594 378.278 529.29 375.955C527.987 373.575 526.259 371.79 524.105 370.6C521.952 369.41 519.629 368.815 517.135 368.815C514.642 368.815 512.319 369.41 510.165 370.6C508.069 371.79 506.397 373.575 505.15 375.955C503.904 378.278 503.28 381.14 503.28 384.54C503.28 389.583 504.555 393.493 507.105 396.27C509.712 398.99 512.97 400.35 516.88 400.35Z" fill="black"/>
<mask id="path-10-outside-2_97_4" maskUnits="userSpaceOnUse" x="418" y="1006" width="21" height="32" fill="black">
<rect fill="white" x="418" y="1006" width="21" height="32"/>
<path d="M419.32 1015.04C419.48 1012.56 420.427 1010.63 422.16 1009.24C423.92 1007.85 426.16 1007.16 428.88 1007.16C430.747 1007.16 432.36 1007.49 433.72 1008.16C435.08 1008.83 436.107 1009.73 436.8 1010.88C437.493 1012.03 437.84 1013.32 437.84 1014.76C437.84 1016.41 437.4 1017.83 436.52 1019C435.64 1020.17 434.587 1020.96 433.36 1021.36V1021.52C434.933 1022 436.16 1022.88 437.04 1024.16C437.92 1025.41 438.36 1027.03 438.36 1029C438.36 1030.57 438 1031.97 437.28 1033.2C436.56 1034.43 435.493 1035.4 434.08 1036.12C432.667 1036.81 430.973 1037.16 429 1037.16C426.12 1037.16 423.747 1036.43 421.88 1034.96C420.04 1033.47 419.053 1031.33 418.92 1028.56H423.32C423.427 1029.97 423.973 1031.13 424.96 1032.04C425.947 1032.92 427.28 1033.36 428.96 1033.36C430.587 1033.36 431.84 1032.92 432.72 1032.04C433.6 1031.13 434.04 1029.97 434.04 1028.56C434.04 1026.69 433.44 1025.37 432.24 1024.6C431.067 1023.8 429.253 1023.4 426.8 1023.4H425.76V1019.64H426.84C429 1019.61 430.64 1019.25 431.76 1018.56C432.907 1017.87 433.48 1016.77 433.48 1015.28C433.48 1014 433.067 1012.99 432.24 1012.24C431.413 1011.47 430.24 1011.08 428.72 1011.08C427.227 1011.08 426.067 1011.47 425.24 1012.24C424.413 1012.99 423.92 1013.92 423.76 1015.04H419.32Z"/>
</mask>
<path d="M419.32 1015.04C419.48 1012.56 420.427 1010.63 422.16 1009.24C423.92 1007.85 426.16 1007.16 428.88 1007.16C430.747 1007.16 432.36 1007.49 433.72 1008.16C435.08 1008.83 436.107 1009.73 436.8 1010.88C437.493 1012.03 437.84 1013.32 437.84 1014.76C437.84 1016.41 437.4 1017.83 436.52 1019C435.64 1020.17 434.587 1020.96 433.36 1021.36V1021.52C434.933 1022 436.16 1022.88 437.04 1024.16C437.92 1025.41 438.36 1027.03 438.36 1029C438.36 1030.57 438 1031.97 437.28 1033.2C436.56 1034.43 435.493 1035.4 434.08 1036.12C432.667 1036.81 430.973 1037.16 429 1037.16C426.12 1037.16 423.747 1036.43 421.88 1034.96C420.04 1033.47 419.053 1031.33 418.92 1028.56H423.32C423.427 1029.97 423.973 1031.13 424.96 1032.04C425.947 1032.92 427.28 1033.36 428.96 1033.36C430.587 1033.36 431.84 1032.92 432.72 1032.04C433.6 1031.13 434.04 1029.97 434.04 1028.56C434.04 1026.69 433.44 1025.37 432.24 1024.6C431.067 1023.8 429.253 1023.4 426.8 1023.4H425.76V1019.64H426.84C429 1019.61 430.64 1019.25 431.76 1018.56C432.907 1017.87 433.48 1016.77 433.48 1015.28C433.48 1014 433.067 1012.99 432.24 1012.24C431.413 1011.47 430.24 1011.08 428.72 1011.08C427.227 1011.08 426.067 1011.47 425.24 1012.24C424.413 1012.99 423.92 1013.92 423.76 1015.04H419.32Z" fill="black"/>
<path d="M419.32 1015.04L419.021 1015.02L419 1015.34H419.32V1015.04ZM422.16 1009.24L421.974 1009L421.973 1009.01L422.16 1009.24ZM433.72 1008.16L433.588 1008.43L433.72 1008.16ZM436.8 1010.88L437.057 1010.72L436.8 1010.88ZM436.52 1019L436.76 1019.18V1019.18L436.52 1019ZM433.36 1021.36L433.267 1021.07L433.06 1021.14V1021.36H433.36ZM433.36 1021.52H433.06V1021.74L433.272 1021.81L433.36 1021.52ZM437.04 1024.16L436.793 1024.33L436.794 1024.33L437.04 1024.16ZM437.28 1033.2L437.021 1033.05L437.28 1033.2ZM434.08 1036.12L434.212 1036.39L434.216 1036.39L434.08 1036.12ZM421.88 1034.96L421.691 1035.19L421.695 1035.2L421.88 1034.96ZM418.92 1028.56V1028.26H418.605L418.62 1028.57L418.92 1028.56ZM423.32 1028.56L423.619 1028.54L423.598 1028.26H423.32V1028.56ZM424.96 1032.04L424.757 1032.26L424.76 1032.26L424.96 1032.04ZM432.72 1032.04L432.932 1032.25L432.935 1032.25L432.72 1032.04ZM432.24 1024.6L432.071 1024.85L432.077 1024.85L432.24 1024.6ZM425.76 1023.4H425.46V1023.7H425.76V1023.4ZM425.76 1019.64V1019.34H425.46V1019.64H425.76ZM426.84 1019.64V1019.94L426.844 1019.94L426.84 1019.64ZM431.76 1018.56L431.605 1018.3L431.602 1018.3L431.76 1018.56ZM432.24 1012.24L432.035 1012.46L432.039 1012.46L432.24 1012.24ZM425.24 1012.24L425.441 1012.46L425.445 1012.46L425.24 1012.24ZM423.76 1015.04V1015.34H424.02L424.057 1015.08L423.76 1015.04ZM419.32 1015.04L419.619 1015.06C419.775 1012.65 420.688 1010.8 422.347 1009.47L422.16 1009.24L421.973 1009.01C420.165 1010.45 419.185 1012.47 419.021 1015.02L419.32 1015.04ZM422.16 1009.24L422.346 1009.48C424.042 1008.14 426.213 1007.46 428.88 1007.46V1007.16V1006.86C426.108 1006.86 423.798 1007.57 421.974 1009L422.16 1009.24ZM428.88 1007.16V1007.46C430.711 1007.46 432.277 1007.79 433.588 1008.43L433.72 1008.16L433.852 1007.89C432.443 1007.2 430.782 1006.86 428.88 1006.86V1007.16ZM433.72 1008.16L433.588 1008.43C434.903 1009.07 435.883 1009.94 436.543 1011.04L436.8 1010.88L437.057 1010.72C436.33 1009.52 435.257 1008.58 433.852 1007.89L433.72 1008.16ZM436.8 1010.88L436.543 1011.04C437.206 1012.13 437.54 1013.37 437.54 1014.76H437.84H438.14C438.14 1013.27 437.78 1011.92 437.057 1010.72L436.8 1010.88ZM437.84 1014.76H437.54C437.54 1016.36 437.116 1017.71 436.28 1018.82L436.52 1019L436.76 1019.18C437.684 1017.95 438.14 1016.47 438.14 1014.76H437.84ZM436.52 1019L436.28 1018.82C435.432 1019.95 434.427 1020.7 433.267 1021.07L433.36 1021.36L433.453 1021.65C434.746 1021.22 435.848 1020.4 436.76 1019.18L436.52 1019ZM433.36 1021.36H433.06V1021.52H433.36H433.66V1021.36H433.36ZM433.36 1021.52L433.272 1021.81C434.785 1022.27 435.954 1023.11 436.793 1024.33L437.04 1024.16L437.287 1023.99C436.366 1022.65 435.082 1021.73 433.448 1021.23L433.36 1021.52ZM437.04 1024.16L436.794 1024.33C437.63 1025.52 438.06 1027.07 438.06 1029H438.36H438.66C438.66 1026.98 438.21 1025.3 437.286 1023.99L437.04 1024.16ZM438.36 1029H438.06C438.06 1030.53 437.711 1031.87 437.021 1033.05L437.28 1033.2L437.539 1033.35C438.289 1032.07 438.66 1030.62 438.66 1029H438.36ZM437.28 1033.2L437.021 1033.05C436.334 1034.22 435.312 1035.16 433.944 1035.85L434.08 1036.12L434.216 1036.39C435.674 1035.64 436.786 1034.63 437.539 1033.35L437.28 1033.2ZM434.08 1036.12L433.948 1035.85C432.585 1036.52 430.939 1036.86 429 1036.86V1037.16V1037.46C431.008 1037.46 432.749 1037.11 434.212 1036.39L434.08 1036.12ZM429 1037.16V1036.86C426.172 1036.86 423.869 1036.14 422.065 1034.72L421.88 1034.96L421.695 1035.2C423.625 1036.71 426.068 1037.46 429 1037.46V1037.16ZM421.88 1034.96L422.069 1034.73C420.307 1033.3 419.35 1031.25 419.22 1028.55L418.92 1028.56L418.62 1028.57C418.757 1031.42 419.773 1033.64 421.691 1035.19L421.88 1034.96ZM418.92 1028.56V1028.86H423.32V1028.56V1028.26H418.92V1028.56ZM423.32 1028.56L423.021 1028.58C423.133 1030.07 423.711 1031.3 424.757 1032.26L424.96 1032.04L425.163 1031.82C424.236 1030.97 423.72 1029.88 423.619 1028.54L423.32 1028.56ZM424.96 1032.04L424.76 1032.26C425.816 1033.21 427.227 1033.66 428.96 1033.66V1033.36V1033.06C427.333 1033.06 426.078 1032.63 425.16 1031.82L424.96 1032.04ZM428.96 1033.36V1033.66C430.641 1033.66 431.98 1033.2 432.932 1032.25L432.72 1032.04L432.508 1031.83C431.7 1032.64 430.533 1033.06 428.96 1033.06V1033.36ZM432.72 1032.04L432.935 1032.25C433.876 1031.28 434.34 1030.04 434.34 1028.56H434.04H433.74C433.74 1029.91 433.324 1030.99 432.505 1031.83L432.72 1032.04ZM434.04 1028.56H434.34C434.34 1026.63 433.714 1025.19 432.403 1024.35L432.24 1024.6L432.077 1024.85C433.166 1025.55 433.74 1026.76 433.74 1028.56H434.04ZM432.24 1024.6L432.409 1024.35C431.161 1023.5 429.275 1023.1 426.8 1023.1V1023.4V1023.7C429.232 1023.7 430.972 1024.1 432.071 1024.85L432.24 1024.6ZM426.8 1023.4V1023.1H425.76V1023.4V1023.7H426.8V1023.4ZM425.76 1023.4H426.06V1019.64H425.76H425.46V1023.4H425.76ZM425.76 1019.64V1019.94H426.84V1019.64V1019.34H425.76V1019.64ZM426.84 1019.64L426.844 1019.94C429.027 1019.91 430.731 1019.55 431.918 1018.82L431.76 1018.56L431.602 1018.3C430.549 1018.96 428.973 1019.31 426.836 1019.34L426.84 1019.64ZM431.76 1018.56L431.915 1018.82C433.163 1018.06 433.78 1016.86 433.78 1015.28H433.48H433.18C433.18 1016.68 432.65 1017.67 431.605 1018.3L431.76 1018.56ZM433.48 1015.28H433.78C433.78 1013.93 433.34 1012.83 432.441 1012.02L432.24 1012.24L432.039 1012.46C432.793 1013.14 433.18 1014.07 433.18 1015.28H433.48ZM432.24 1012.24L432.445 1012.02C431.546 1011.18 430.289 1010.78 428.72 1010.78V1011.08V1011.38C430.191 1011.38 431.281 1011.75 432.035 1012.46L432.24 1012.24ZM428.72 1011.08V1010.78C427.176 1010.78 425.933 1011.18 425.035 1012.02L425.24 1012.24L425.445 1012.46C426.2 1011.75 427.278 1011.38 428.72 1011.38V1011.08ZM425.24 1012.24L425.039 1012.02C424.159 1012.81 423.633 1013.81 423.463 1015L423.76 1015.04L424.057 1015.08C424.207 1014.03 424.667 1013.16 425.441 1012.46L425.24 1012.24ZM423.76 1015.04V1014.74H419.32V1015.04V1015.34H423.76V1015.04Z" fill="black" mask="url(#path-10-outside-2_97_4)"/>
<path d="M319.13 222.335C317.94 220.375 316.295 218.87 314.195 217.82C312.165 216.77 309.75 216.245 306.95 216.245C301.77 216.245 297.675 217.925 294.665 221.285C291.725 224.645 290.255 229.16 290.255 234.83C290.255 241.2 291.83 246.065 294.98 249.425C298.2 252.715 302.855 254.36 308.945 254.36C316.155 254.36 321.3 251.105 324.38 244.595H303.695V229.79H342.125V249.74C340.515 253.66 338.135 257.335 334.985 260.765C331.905 264.195 327.985 267.03 323.225 269.27C318.465 271.44 313.04 272.525 306.95 272.525C299.53 272.525 292.95 270.95 287.21 267.8C281.54 264.58 277.13 260.135 273.98 254.465C270.9 248.725 269.36 242.18 269.36 234.83C269.36 227.55 270.9 221.075 273.98 215.405C277.13 209.665 281.54 205.22 287.21 202.07C292.88 198.85 299.425 197.24 306.845 197.24C316.155 197.24 323.855 199.48 329.945 203.96C336.035 208.44 339.815 214.565 341.285 222.335H319.13ZM371.928 223.49C374.238 220.13 377.038 217.47 380.328 215.51C383.618 213.55 387.153 212.57 390.933 212.57V234.515H385.158C380.678 234.515 377.353 235.39 375.183 237.14C373.013 238.89 371.928 241.935 371.928 246.275V272H351.348V213.095H371.928V223.49ZM394.951 242.495C394.951 236.405 396.036 231.085 398.206 226.535C400.446 221.985 403.456 218.485 407.236 216.035C411.086 213.585 415.356 212.36 420.046 212.36C424.106 212.36 427.606 213.165 430.546 214.775C433.486 216.385 435.761 218.555 437.371 221.285V213.095H457.951V272H437.371V263.81C435.761 266.54 433.451 268.71 430.441 270.32C427.501 271.93 424.036 272.735 420.046 272.735C415.356 272.735 411.086 271.51 407.236 269.06C403.456 266.61 400.446 263.11 398.206 258.56C396.036 253.94 394.951 248.585 394.951 242.495ZM437.371 242.495C437.371 238.715 436.321 235.74 434.221 233.57C432.191 231.4 429.671 230.315 426.661 230.315C423.581 230.315 421.026 231.4 418.996 233.57C416.966 235.67 415.951 238.645 415.951 242.495C415.951 246.275 416.966 249.285 418.996 251.525C421.026 253.695 423.581 254.78 426.661 254.78C429.671 254.78 432.191 253.695 434.221 251.525C436.321 249.355 437.371 246.345 437.371 242.495ZM494.773 272.735C489.453 272.735 484.693 271.86 480.493 270.11C476.363 268.29 473.073 265.84 470.623 262.76C468.243 259.61 466.913 256.075 466.633 252.155H486.583C486.863 254.045 487.738 255.515 489.208 256.565C490.678 257.615 492.498 258.14 494.668 258.14C496.348 258.14 497.678 257.79 498.658 257.09C499.638 256.39 500.128 255.48 500.128 254.36C500.128 252.89 499.323 251.805 497.713 251.105C496.103 250.405 493.443 249.635 489.733 248.795C485.533 247.955 482.033 247.01 479.233 245.96C476.433 244.91 473.983 243.195 471.883 240.815C469.853 238.435 468.838 235.215 468.838 231.155C468.838 227.655 469.783 224.505 471.673 221.705C473.563 218.835 476.328 216.56 479.968 214.88C483.678 213.2 488.123 212.36 493.303 212.36C501.003 212.36 507.058 214.25 511.468 218.03C515.878 221.81 518.433 226.78 519.133 232.94H500.548C500.198 231.05 499.358 229.615 498.028 228.635C496.768 227.585 495.053 227.06 492.883 227.06C491.203 227.06 489.908 227.375 488.998 228.005C488.158 228.635 487.738 229.51 487.738 230.63C487.738 232.03 488.543 233.115 490.153 233.885C491.763 234.585 494.353 235.32 497.923 236.09C502.193 237 505.728 238.015 508.528 239.135C511.398 240.255 513.883 242.075 515.983 244.595C518.153 247.045 519.238 250.405 519.238 254.675C519.238 258.105 518.223 261.185 516.193 263.915C514.233 266.645 511.398 268.815 507.688 270.425C504.048 271.965 499.743 272.735 494.773 272.735ZM554.451 272.735C549.131 272.735 544.371 271.86 540.171 270.11C536.041 268.29 532.751 265.84 530.301 262.76C527.921 259.61 526.591 256.075 526.311 252.155H546.261C546.541 254.045 547.416 255.515 548.886 256.565C550.356 257.615 552.176 258.14 554.346 258.14C556.026 258.14 557.356 257.79 558.336 257.09C559.316 256.39 559.806 255.48 559.806 254.36C559.806 252.89 559.001 251.805 557.391 251.105C555.781 250.405 553.121 249.635 549.411 248.795C545.211 247.955 541.711 247.01 538.911 245.96C536.111 244.91 533.661 243.195 531.561 240.815C529.531 238.435 528.516 235.215 528.516 231.155C528.516 227.655 529.461 224.505 531.351 221.705C533.241 218.835 536.006 216.56 539.646 214.88C543.356 213.2 547.801 212.36 552.981 212.36C560.681 212.36 566.736 214.25 571.146 218.03C575.556 221.81 578.111 226.78 578.811 232.94H560.226C559.876 231.05 559.036 229.615 557.706 228.635C556.446 227.585 554.731 227.06 552.561 227.06C550.881 227.06 549.586 227.375 548.676 228.005C547.836 228.635 547.416 229.51 547.416 230.63C547.416 232.03 548.221 233.115 549.831 233.885C551.441 234.585 554.031 235.32 557.601 236.09C561.871 237 565.406 238.015 568.206 239.135C571.076 240.255 573.561 242.075 575.661 244.595C577.831 247.045 578.916 250.405 578.916 254.675C578.916 258.105 577.901 261.185 575.871 263.915C573.911 266.645 571.076 268.815 567.366 270.425C563.726 271.965 559.421 272.735 554.451 272.735Z" fill="black"/>
<path d="M266.941 448.003C270.572 447.901 274.159 450.874 276.922 453.092C340.998 504.509 368.129 552.825 398.274 628.192C410.763 587.444 460.61 527.54 490.339 501.844C495.899 497.038 502.093 494.834 507.258 501.999C512.586 509.391 503.887 519.215 501.339 526.268C480.967 570.016 471.896 605.459 462.878 652.1C488.706 592.083 522.111 542.231 572.297 502.402C580.365 495.999 594.685 480.214 602.296 493.834C607.328 502.838 597.396 511.37 593.612 518.724C568.891 561.943 553.537 603.493 541.878 652.1C544.195 648.745 546.004 644.703 547.992 641.078C569.104 602.592 597.088 567.487 630.109 540.315C640.345 531.892 650.717 542.425 645.178 554.328C625.9 595.756 611.315 639.258 602.128 684.491C618.56 654.505 641.38 628.19 667.024 607.051C677.311 598.573 690.331 587.625 693.809 608.831C692.095 613.636 689.327 618.338 687.129 622.934C672.129 654.291 656.023 698.864 652.6 734.561C663.911 712.1 722.446 643.305 737.528 645.559C755.107 648.187 740.492 668.465 736.627 675.899C719.213 709.397 705.208 747.323 699.57 785.428C696.009 796.587 694.535 848.205 697.865 859.218C699.45 864.461 702.633 869.5 704.807 874.529C710.802 888.412 726.067 936.231 716.803 949.533C713.579 954.161 701.466 952.013 696.833 951.959L182.656 951.936C171.37 951.937 136.942 957.612 136.316 942.741C135.094 913.723 146.422 881.735 163.137 859.325C162.73 855.096 163.141 849.98 163.183 845.625C163.774 784.603 146.734 723.602 118.349 671.061C114.832 664.452 106.75 655.221 113.79 647.936C126.73 634.545 177.255 692.885 185.418 702.904C192.008 710.994 197.824 720.069 204.762 727.705C197.922 693.354 188.734 660.376 174.36 628.807C169.712 617.088 157.085 600.725 175.896 595.554C192.323 600.681 235.229 651.735 245.497 667.766C249.125 673.431 252.776 678.97 256.621 684.491C246.828 644.131 236.697 605.113 218.107 568.204C214.997 562.031 211.185 556.21 209.023 549.555C211.123 542.137 212.108 539.49 219.464 537.699C222.627 538.645 224.919 539.909 227.523 542.086C262.193 571.062 300.571 616.849 321.283 659.563C314.102 597.312 297.982 532.105 267.398 478.64C263.939 470.603 246.744 453.912 266.941 448.003Z" fill="black"/>
<path d="M572.708 811.333C574.64 821.612 572.855 878.995 572.644 891.353C572.454 902.397 571.356 912.718 571.407 924.143C577.499 906.723 581.109 895.422 590.176 878.257C598.235 862.999 609.281 846.48 615.087 829.963C622.117 860.392 621.913 886.54 617.941 917.541C632.948 890.853 642.476 876.929 653.575 847.543C663.384 868.828 664.712 887.647 672.011 905.542C678.552 893.096 682.945 880.093 684.654 865.862C696.012 884.785 706.263 913.992 709.631 936.173H149.107C151.308 922.724 154.443 912.521 159.516 900.034C161.91 903.484 180.938 930.311 182.39 930.611C186.341 915.094 195.278 890.304 201.707 874.873C207.196 882.83 217.676 918.24 221.053 928.648C225.611 914.952 234.583 897.632 240.95 884.367C247.263 894.254 255.69 914.151 260.254 925.126C267.786 913.168 278.165 891.883 286.877 882.354C296.883 896.518 303.976 913.535 312.687 928.648C313.557 907.548 331.068 873.25 340.84 854.639C343.907 874.493 363.136 911.282 374.721 924.143C372.991 902.659 376.052 863.724 378.345 842.757C386.728 855.609 396.277 881.379 402.076 895.926C404.944 903.119 408.995 910.105 411.723 917.541C421.487 891.515 431.192 872.861 438.451 845.09C455.745 871.095 457.734 894.709 463.958 924.143C473.052 898.99 485.166 873.152 500.52 851.772C504.354 877.52 506.706 895.472 513.484 920.547C531.75 871.473 536.093 853.001 572.708 811.333Z" fill="#85502B"/>
<path d="M298.679 495.865C301.791 499.572 306.058 503.74 309.487 507.245C314.999 515.068 321.516 522.016 327.114 529.597C383.75 606.307 415.942 727.413 416.418 823.397L416.473 844.467C416.478 846.643 416.63 852.809 416.416 854.639C414.946 858.645 413.289 862.705 411.723 866.679C407.94 859.99 401.847 845.559 398.765 838.057C394.119 828.874 380.679 786.373 368.39 804.466C364.566 810.329 359.839 840.696 358.687 849.385C355.457 838.662 355.429 823.339 344.342 821.021C342.218 821.807 341.227 822.779 339.427 824.204C351.854 730.488 341.863 621.584 312.687 533.008C308.089 520.523 303.925 508.116 298.679 495.865Z" fill="#98BA02"/>
<path d="M298.679 495.865C301.791 499.572 306.058 503.74 309.487 507.245C308.102 509.408 309.772 512.521 310.799 514.668L311.148 514.844L314.598 523.163C319.275 530.773 324.191 544.424 327.564 552.908C349.699 608.588 361.738 669.174 367.306 729.283C368.361 740.918 366.76 801.777 368.39 804.466C364.566 810.329 359.839 840.696 358.687 849.385C355.457 838.662 355.429 823.339 344.342 821.021C342.218 821.807 341.227 822.779 339.427 824.204C351.854 730.488 341.863 621.584 312.687 533.008C308.089 520.523 303.925 508.116 298.679 495.865Z" fill="#98BA02"/>
<path d="M298.679 495.865C301.791 499.573 306.058 503.74 309.487 507.245C308.102 509.408 309.772 512.521 310.799 514.668L311.148 514.844L314.598 523.163C312.287 521.656 308.078 506.628 305.009 503.787C302.798 512.106 313.348 524.009 312.687 533.008C308.089 520.523 303.925 508.116 298.679 495.865Z" fill="#83A501"/>
<path d="M311.148 514.844C314 515.443 319.524 529.472 321.959 533.578C366.819 609.221 393.079 711.896 398.319 802.134C398.767 809.856 398.124 818.915 398.765 826.311C398.951 829.923 399.335 834.585 398.765 838.057C394.119 828.874 380.679 786.373 368.389 804.466C366.76 801.777 368.361 740.918 367.306 729.284C361.738 669.174 349.699 608.588 327.563 552.908C324.191 544.424 319.275 530.773 314.598 523.163L311.148 514.844Z" fill="#DBEF01"/>
<path d="M398.765 826.311C404.9 834.018 411.392 848.833 416.416 854.639C414.946 858.645 413.289 862.705 411.723 866.679C407.94 859.99 401.847 845.56 398.765 838.057C399.335 834.585 398.951 829.923 398.765 826.311Z" fill="#345E02"/>
<path d="M559.347 541.331C561.314 541.361 560.743 541.831 563.093 541.331C518.237 634.277 511.911 722.004 519.553 824.204H518.823C516.796 812.004 505.799 806.904 500.52 819.864C489.195 829.618 477.7 849.935 469.568 862.913C467.786 858.673 466.283 854.809 463.958 850.868C460.099 841.303 450.575 826.261 444.473 817.986C440.918 756.445 479.109 655.867 509.357 605.334C515.985 594.261 550.225 546.283 559.347 541.331Z" fill="#98BA02"/>
<path d="M463.958 850.868C465.001 843.692 463.961 832.89 463.936 825.132C463.667 741.238 492.556 658.811 531.852 587.433C537.851 576.537 546.59 561.091 554.077 551.331L554.389 551.537C543.653 575.964 529.937 596.02 520.969 622.797C503.531 674.859 496.467 730.649 497.611 785.86C497.778 793.906 497.485 812.619 500.34 819.446L500.52 819.864C489.194 829.618 477.7 849.935 469.568 862.913C467.786 858.673 466.283 854.809 463.958 850.868Z" fill="#DBEF01"/>
<path d="M243.548 583.573C248.879 589.733 258.49 599.3 262.529 605.971C276.749 624.965 323.392 696.858 324.752 721.135C325.735 738.722 323.452 756.87 323.302 774.372C323.149 792.207 318.81 812.603 319.766 829.963C318.067 836.806 318.02 842.447 317.373 849.385C318.059 858.447 311.108 869.522 307.465 877.542C305.682 874.18 303.544 869.875 301.639 866.679C297.613 859.906 296.895 858.353 296.182 850.283C293.297 817.609 286.872 786.883 283.854 755.501C279.661 711.902 271.04 668.835 258.611 627.122C254.17 612.218 248.119 598.235 243.548 583.573Z" fill="#345E02"/>
<path d="M262.529 605.971C276.749 624.965 323.392 696.858 324.752 721.135C325.735 738.722 323.452 756.869 323.302 774.372C323.149 792.207 318.81 812.603 319.766 829.963C315.465 825.976 311.638 778.357 310.258 768.927C302.966 719.085 289.491 666.525 268.597 621.025C267.041 617.639 261.524 609.448 262.529 605.971Z" fill="#5C9002"/>
<path d="M309.487 829.964C312.302 835.768 315.039 844.909 317.373 849.385C318.059 858.447 311.107 869.522 307.465 877.542C305.682 874.18 303.544 869.875 301.639 866.679C303.366 864.812 308.486 834.758 309.487 829.964Z" fill="#254B01"/>
<path d="M196.749 641.389C203.096 647.727 220.819 667.895 224.535 675.529C253.052 716.123 268.051 768.19 272.933 818.246C273.778 826.918 275.728 842.415 275.141 850.868C275.461 854.989 276.071 858.894 275.141 862.913C274.011 864.117 272.747 865.536 271.594 866.679C270.22 870.083 264.831 877.504 262.529 882.354C259.821 877.299 255.204 865.785 253.418 860.252C257.22 848.738 264.19 838.367 267.622 826.84C270.094 818.538 259.077 802.917 246.451 828.043C240.535 839.49 228.189 862.582 224.535 874.873C219.055 864.844 219.749 864.292 221.165 852.783C229.957 781.393 221.517 708.303 196.749 641.389Z" fill="#345E02"/>
<path d="M224.535 675.529C253.052 716.123 268.051 768.19 272.933 818.246C273.779 826.918 275.729 842.415 275.141 850.868C275.462 854.989 276.072 858.894 275.141 862.913C274.011 864.117 272.747 865.536 271.595 866.679C270.22 870.083 264.832 877.504 262.53 882.354C259.821 877.299 255.205 865.785 253.418 860.252C257.221 848.738 264.19 838.367 267.623 826.84C270.094 818.538 259.078 802.917 246.451 828.043C245.423 824.703 246.49 803.877 246.532 798.833C246.759 770.882 243.5 743.751 236.718 716.75C235.195 710.69 223.856 678.212 224.535 675.529Z" fill="#5C9002"/>
<path d="M275.141 850.868C275.461 854.989 276.071 858.894 275.141 862.913C274.01 864.117 272.747 865.536 271.594 866.679C272.513 860.805 274.842 856.605 275.141 850.868Z" fill="#254B01"/>
<path d="M538.96 821.021C536.628 787.219 531.404 747.16 541.282 714.837C554.244 672.418 575.603 631.708 603.125 598.294C608.197 592.14 613.599 586.91 617.941 580.059C613.206 595.352 606.805 614.076 601.295 629.419C588.614 677.012 581.223 717.35 577.308 767.423C576.937 772.18 576.755 776.895 576.298 781.645C564.58 790.602 559.151 796.741 549.137 807.793C545.922 812.153 542.285 816.553 538.96 821.021Z" fill="#345E02"/>
<path d="M549.137 807.793C548.087 804.899 556.129 755.525 557.579 748.747C562.102 727.592 586.042 643.694 600.385 629.265L601.295 629.419C588.614 677.012 581.223 717.35 577.308 767.423C576.937 772.18 576.755 776.895 576.298 781.645C564.58 790.602 559.151 796.741 549.137 807.793Z" fill="#5C9002"/>
<path d="M591.751 835.479C591.615 767.749 610.739 699.268 655.335 649.975C658.872 646.064 662.762 642.487 666.18 638.458C662.637 646.432 661.332 649.597 658.26 658.009C646.184 696.774 636.858 737.057 635.938 778.068C635.511 797.132 636.902 816.484 635.855 835.479C634.947 825.513 627.873 787.606 617.941 784.541C607.082 784.52 605.914 799.643 602.258 809.121C598.889 817.864 595.562 826.96 591.751 835.479Z" fill="#345E02"/>
<path d="M617.941 784.541C619.782 779.271 620.161 772.38 620.933 766.729C624.32 741.94 640.249 675.937 657.521 657.918L658.26 658.009C646.184 696.774 636.858 737.057 635.938 778.068C635.511 797.131 636.902 816.484 635.855 835.479C634.947 825.513 627.872 787.606 617.941 784.541Z" fill="#5C9002"/>
<path d="M448.538 576.971C455.249 566.231 463.629 557.847 471.555 548.351C469.615 555.14 467.057 562.292 464.835 568.986C448.829 617.235 442.05 667.97 439.055 718.908C438.607 726.506 433.974 745.661 431.688 753.407C428.017 734.751 425.489 717.865 421.051 699.278C416.683 685.209 412.721 668.251 408.549 653.615C414.583 631.528 436.192 594.877 448.538 576.971Z" fill="#345E02"/>
<path d="M448.538 576.971C448.58 578.616 438.347 607.343 436.94 612.376C431.228 632.786 427.479 652.219 424.342 673.288C423.63 678.071 422.537 696.466 421.051 699.278C416.683 685.209 412.721 668.251 408.549 653.615C414.583 631.528 436.192 594.877 448.538 576.971Z" fill="#5C9002"/>
<path d="M143.567 691.372C146.084 694.1 149.657 698.095 151.904 700.984C154.027 703.501 155.793 705.588 157.496 708.469C168.495 718.83 203.681 778.745 204.63 793.576C205.465 806.621 202.866 819.84 203.654 832.914L202.992 833.163C200.093 831.3 194.731 823.229 193.262 819.864C190.747 824.104 179.992 843.409 177.493 846.342L177.217 842.757C177.855 794.575 164.13 734.241 143.567 691.372Z" fill="#DBEF01"/>
<path d="M143.567 691.372C146.084 694.1 149.657 698.095 151.904 700.984C154.027 703.501 155.793 705.588 157.496 708.469C156.647 707.97 155.504 706.984 154.642 706.947L154.862 707.699C155.153 708.713 155.304 709.512 155.492 710.546L155.649 710.943C170.38 747.478 183.671 771.495 191.582 813.428C191.945 815.352 192.659 818.011 193.262 819.864C190.747 824.104 179.992 843.409 177.493 846.342L177.217 842.757C177.855 794.575 164.13 734.241 143.567 691.372Z" fill="#5C9002"/>
<path d="M151.904 700.984C154.027 703.5 155.793 705.588 157.496 708.469C156.647 707.97 155.504 706.984 154.642 706.947L154.862 707.699C155.153 708.713 155.304 709.512 155.492 710.546C154.027 708.256 151.354 703.647 151.904 700.984Z" fill="#B7C410"/>
<path d="M703.232 708.469C705.505 704.088 711.794 698.627 715.342 694.188C711.53 702.077 711.683 702.25 709.631 710.546C696.597 726.977 683.479 809.026 684.654 828.95C676.566 820.492 673.083 825.481 669.742 835.479C668.513 833.045 667.201 830.582 666.18 828.043C655.859 805.488 650.487 803.03 660.282 779.219C667.107 762.629 689.127 719.954 703.232 708.469Z" fill="#98BA02"/>
<path d="M666.18 828.043C655.859 805.488 650.487 803.03 660.282 779.219C667.107 762.629 689.127 719.954 703.232 708.469C703.018 710.595 702.508 712.407 702.006 714.469C690.246 732.507 678.081 772.895 672.57 793.753C670.607 801.181 667.997 825.807 666.18 828.043Z" fill="#DBEF01"/>
<path d="M703.232 708.469C705.504 704.088 711.794 698.627 715.341 694.188C711.53 702.077 711.683 702.25 709.631 710.546C709.327 707.633 710.738 705.702 709.058 703.84C704.115 702.939 702.94 714.441 702.006 714.469C702.508 712.408 703.018 710.595 703.232 708.469Z" fill="#83A501"/>
<path d="M193.262 819.864C194.731 823.229 200.093 831.3 202.992 833.163L203.654 832.914L203.417 833.586C201.196 839.989 198.227 835.903 196.755 838.497C187.531 854.741 183.418 871.547 176.229 887.947C175.266 886.764 174.288 885.586 173.365 884.367C176.238 868.545 175.818 857.48 177.217 842.757L177.493 846.342C179.993 843.409 190.747 824.104 193.262 819.864Z" fill="#345E02"/>
<path d="M559.347 541.331C562.679 536.85 565.512 533.909 569.408 529.977C567.359 533.552 564.808 537.651 563.093 541.331C560.743 541.831 561.314 541.361 559.347 541.331Z" fill="#B7C410"/>
<path d="M518.823 824.204H519.553C519.8 825.936 520.148 832.683 519.52 833.996C518.97 830.791 518.94 827.468 518.823 824.204Z" fill="#5C9002"/>
</svg>
