<svg width="849" height="1183" viewBox="0 0 849 1183" fill="none" xmlns="http://www.w3.org/2000/svg">
<rect x="5" y="5" width="839" height="1173" rx="45" fill="white"/>
<rect x="5" y="5" width="839" height="1173" rx="45" stroke="black" stroke-width="10"/>
<circle cx="786.5" cy="1124.5" r="11.5" fill="black"/>
<circle cx="786.5" cy="59.5" r="11.5" fill="black"/>
<path d="M77 1124.5C77 1130.85 71.8513 1136 65.5 1136C59.1487 1136 54 1130.85 54 1124.5C54 1118.15 59.1487 1113 65.5 1113C71.8513 1113 77 1118.15 77 1124.5Z" fill="black"/>
<path d="M77 59.5C77 65.8513 71.8513 71 65.5 71C59.1487 71 54 65.8513 54 59.5C54 53.1487 59.1487 48 65.5 48C71.8513 48 77 53.1487 77 59.5Z" fill="black"/>
<mask id="path-6-inside-1_97_52" fill="white">
<path d="M708 48C713.523 48 717.934 52.4996 718.616 57.9801C723.122 94.1833 751.817 122.878 788.02 127.384C793.5 128.066 798 132.477 798 138V1046C798 1051.52 793.5 1055.93 788.02 1056.62C751.817 1061.12 723.122 1089.82 718.616 1126.02C717.934 1131.5 713.523 1136 708 1136H141C135.477 1136 131.066 1131.5 130.384 1126.02C125.878 1089.82 97.1833 1061.12 60.9801 1056.62C55.4996 1055.93 51 1051.52 51 1046V138C51 132.477 55.4996 128.066 60.9801 127.384C97.1833 122.878 125.878 94.1833 130.384 57.9801C131.066 52.4996 135.477 48 141 48H708Z"/>
</mask>
<path d="M708 48C713.523 48 717.934 52.4996 718.616 57.9801C723.122 94.1833 751.817 122.878 788.02 127.384C793.5 128.066 798 132.477 798 138V1046C798 1051.52 793.5 1055.93 788.02 1056.62C751.817 1061.12 723.122 1089.82 718.616 1126.02C717.934 1131.5 713.523 1136 708 1136H141C135.477 1136 131.066 1131.5 130.384 1126.02C125.878 1089.82 97.1833 1061.12 60.9801 1056.62C55.4996 1055.93 51 1051.52 51 1046V138C51 132.477 55.4996 128.066 60.9801 127.384C97.1833 122.878 125.878 94.1833 130.384 57.9801C131.066 52.4996 135.477 48 141 48H708Z" fill="#006AB6"/>
<path d="M130.384 1126.02L138.322 1125.03L130.384 1126.02ZM718.616 1126.02L710.678 1125.03L718.616 1126.02ZM788.02 1056.62L789.008 1064.56L788.02 1056.62ZM718.616 57.9801L726.555 56.9922L718.616 57.9801ZM718.616 57.9801L710.678 58.9681C715.635 98.8063 747.194 130.365 787.032 135.322L788.02 127.384L789.008 119.445C756.44 115.392 730.608 89.5603 726.555 56.9922L718.616 57.9801ZM798 138H790V1046H798H806V138H798ZM788.02 1056.62L787.032 1048.68C747.194 1053.64 715.635 1085.19 710.678 1125.03L718.616 1126.02L726.555 1127.01C730.608 1094.44 756.44 1068.61 789.008 1064.56L788.02 1056.62ZM708 1136V1128H141V1136V1144H708V1136ZM130.384 1126.02L138.322 1125.03C133.365 1085.19 101.806 1053.64 61.9681 1048.68L60.9801 1056.62L59.9922 1064.56C92.5603 1068.61 118.392 1094.44 122.445 1127.01L130.384 1126.02ZM51 1046H59V138H51H43V1046H51ZM60.9801 127.384L61.9681 135.322C101.806 130.365 133.365 98.8063 138.322 58.9681L130.384 57.9801L122.445 56.9922C118.392 89.5603 92.5603 115.392 59.9922 119.445L60.9801 127.384ZM141 48V56H708V48V40H141V48ZM130.384 57.9801L138.322 58.9681C138.438 58.0389 138.872 57.2306 139.427 56.6958C139.954 56.1887 140.494 56 141 56V48V40C130.84 40 123.547 48.1329 122.445 56.9922L130.384 57.9801ZM51 138H59C59 137.494 59.1887 136.954 59.6958 136.427C60.2306 135.872 61.0389 135.438 61.9681 135.322L60.9801 127.384L59.9922 119.445C51.1329 120.547 43 127.84 43 138H51ZM60.9801 1056.62L61.9681 1048.68C61.0389 1048.56 60.2306 1048.13 59.6958 1047.57C59.1887 1047.05 59 1046.51 59 1046H51H43C43 1056.16 51.1329 1063.45 59.9922 1064.56L60.9801 1056.62ZM141 1136V1128C140.494 1128 139.954 1127.81 139.427 1127.3C138.872 1126.77 138.438 1125.96 138.322 1125.03L130.384 1126.02L122.445 1127.01C123.547 1135.87 130.84 1144 141 1144V1136ZM718.616 1126.02L710.678 1125.03C710.562 1125.96 710.128 1126.77 709.573 1127.3C709.046 1127.81 708.506 1128 708 1128V1136V1144C718.16 1144 725.453 1135.87 726.555 1127.01L718.616 1126.02ZM798 1046H790C790 1046.51 789.811 1047.05 789.304 1047.57C788.769 1048.13 787.961 1048.56 787.032 1048.68L788.02 1056.62L789.008 1064.56C797.867 1063.45 806 1056.16 806 1046H798ZM788.02 127.384L787.032 135.322C787.961 135.438 788.769 135.872 789.304 136.427C789.811 136.954 790 137.494 790 138H798H806C806 127.84 797.867 120.547 789.008 119.445L788.02 127.384ZM718.616 57.9801L726.555 56.9922C725.453 48.1329 718.16 40 708 40V48V56C708.506 56 709.046 56.1887 709.573 56.6958C710.128 57.2306 710.562 58.0389 710.678 58.9681L718.616 57.9801Z" fill="black" mask="url(#path-6-inside-1_97_52)"/>
<path d="M690 102C695.523 102 699.911 106.512 700.837 111.957C705.019 136.563 724.437 155.981 749.043 160.163C754.488 161.089 759 165.477 759 171V1014C759 1019.52 754.488 1023.91 749.043 1024.84C724.711 1028.97 705.454 1048 700.984 1072.22C699.993 1077.59 695.633 1082 690.175 1082H158.825C153.367 1082 149.007 1077.59 148.016 1072.22C143.546 1048 124.288 1028.97 99.9568 1024.84C94.5121 1023.91 90 1019.52 90 1014V171C90 165.477 94.512 161.089 99.9568 160.163C124.563 155.981 143.981 136.563 148.163 111.957C149.089 106.512 153.477 102 159 102H690Z" fill="#5298CB"/>
<path d="M292.065 356.745V374.085H312.465V381.99H292.065V400.095H315.015V408H282.375V348.84H315.015V356.745H292.065ZM323.72 384.54C323.72 379.723 324.684 375.502 326.61 371.875C328.594 368.192 331.314 365.358 334.77 363.375C338.227 361.392 342.194 360.4 346.67 360.4C352.337 360.4 357.012 361.76 360.695 364.48C364.435 367.143 366.957 370.968 368.26 375.955H357.805C356.955 373.632 355.595 371.818 353.725 370.515C351.855 369.212 349.504 368.56 346.67 368.56C342.704 368.56 339.53 369.977 337.15 372.81C334.827 375.587 333.665 379.497 333.665 384.54C333.665 389.583 334.827 393.522 337.15 396.355C339.53 399.188 342.704 400.605 346.67 400.605C352.28 400.605 355.992 398.14 357.805 393.21H368.26C366.9 397.97 364.35 401.767 360.61 404.6C356.87 407.377 352.224 408.765 346.67 408.765C342.194 408.765 338.227 407.773 334.77 405.79C331.314 403.75 328.594 400.917 326.61 397.29C324.684 393.607 323.72 389.357 323.72 384.54ZM387.607 345.1V408H377.917V345.1H387.607ZM405.259 354.96C403.502 354.96 402.029 354.365 400.839 353.175C399.649 351.985 399.054 350.512 399.054 348.755C399.054 346.998 399.649 345.525 400.839 344.335C402.029 343.145 403.502 342.55 405.259 342.55C406.959 342.55 408.404 343.145 409.594 344.335C410.784 345.525 411.379 346.998 411.379 348.755C411.379 350.512 410.784 351.985 409.594 353.175C408.404 354.365 406.959 354.96 405.259 354.96ZM410.019 361.165V408H400.329V361.165H410.019ZM432.431 368.05C434.075 365.897 436.313 364.083 439.146 362.61C441.98 361.137 445.181 360.4 448.751 360.4C452.831 360.4 456.543 361.42 459.886 363.46C463.286 365.443 465.95 368.248 467.876 371.875C469.803 375.502 470.766 379.667 470.766 384.37C470.766 389.073 469.803 393.295 467.876 397.035C465.95 400.718 463.286 403.608 459.886 405.705C456.543 407.745 452.831 408.765 448.751 408.765C445.181 408.765 442.008 408.057 439.231 406.64C436.455 405.167 434.188 403.353 432.431 401.2V430.27H422.741V361.165H432.431V368.05ZM460.906 384.37C460.906 381.14 460.226 378.363 458.866 376.04C457.563 373.66 455.806 371.875 453.596 370.685C451.443 369.438 449.12 368.815 446.626 368.815C444.19 368.815 441.866 369.438 439.656 370.685C437.503 371.932 435.746 373.745 434.386 376.125C433.083 378.505 432.431 381.31 432.431 384.54C432.431 387.77 433.083 390.603 434.386 393.04C435.746 395.42 437.503 397.233 439.656 398.48C441.866 399.727 444.19 400.35 446.626 400.35C449.12 400.35 451.443 399.727 453.596 398.48C455.806 397.177 457.563 395.307 458.866 392.87C460.226 390.433 460.906 387.6 460.906 384.37ZM497.349 408.765C493.665 408.765 490.35 408.113 487.404 406.81C484.514 405.45 482.219 403.637 480.519 401.37C478.819 399.047 477.912 396.468 477.799 393.635H487.829C487.999 395.618 488.934 397.29 490.634 398.65C492.39 399.953 494.572 400.605 497.179 400.605C499.899 400.605 501.995 400.095 503.469 399.075C504.999 397.998 505.764 396.638 505.764 394.995C505.764 393.238 504.914 391.935 503.214 391.085C501.57 390.235 498.935 389.3 495.309 388.28C491.795 387.317 488.934 386.382 486.724 385.475C484.514 384.568 482.587 383.18 480.944 381.31C479.357 379.44 478.564 376.975 478.564 373.915C478.564 371.422 479.3 369.155 480.774 367.115C482.247 365.018 484.344 363.375 487.064 362.185C489.84 360.995 493.014 360.4 496.584 360.4C501.91 360.4 506.189 361.76 509.419 364.48C512.705 367.143 514.462 370.798 514.689 375.445H504.999C504.829 373.348 503.979 371.677 502.449 370.43C500.919 369.183 498.85 368.56 496.244 368.56C493.694 368.56 491.739 369.042 490.379 370.005C489.019 370.968 488.339 372.243 488.339 373.83C488.339 375.077 488.792 376.125 489.699 376.975C490.605 377.825 491.71 378.505 493.014 379.015C494.317 379.468 496.244 380.063 498.794 380.8C502.194 381.707 504.97 382.642 507.124 383.605C509.334 384.512 511.232 385.872 512.819 387.685C514.405 389.498 515.227 391.907 515.284 394.91C515.284 397.573 514.547 399.953 513.074 402.05C511.6 404.147 509.504 405.79 506.784 406.98C504.12 408.17 500.975 408.765 497.349 408.765ZM568.679 383.435C568.679 385.192 568.566 386.778 568.339 388.195H532.554C532.837 391.935 534.226 394.938 536.719 397.205C539.212 399.472 542.272 400.605 545.899 400.605C551.112 400.605 554.796 398.423 556.949 394.06H567.404C565.987 398.367 563.409 401.908 559.669 404.685C555.986 407.405 551.396 408.765 545.899 408.765C541.422 408.765 537.399 407.773 533.829 405.79C530.316 403.75 527.539 400.917 525.499 397.29C523.516 393.607 522.524 389.357 522.524 384.54C522.524 379.723 523.487 375.502 525.414 371.875C527.397 368.192 530.146 365.358 533.659 363.375C537.229 361.392 541.309 360.4 545.899 360.4C550.319 360.4 554.257 361.363 557.714 363.29C561.171 365.217 563.862 367.937 565.789 371.45C567.716 374.907 568.679 378.902 568.679 383.435ZM558.564 380.375C558.507 376.805 557.232 373.943 554.739 371.79C552.246 369.637 549.157 368.56 545.474 368.56C542.131 368.56 539.269 369.637 536.889 371.79C534.509 373.887 533.092 376.748 532.639 380.375H558.564Z" fill="black"/>
<mask id="path-10-outside-2_97_52" maskUnits="userSpaceOnUse" x="406" y="1007" width="34" height="31" fill="black">
<rect fill="white" x="406" y="1007" width="34" height="31"/>
<path d="M425.2 1011.76H411.8V1019.72C412.36 1018.97 413.187 1018.35 414.28 1017.84C415.4 1017.33 416.587 1017.08 417.84 1017.08C420.08 1017.08 421.893 1017.56 423.28 1018.52C424.693 1019.48 425.693 1020.69 426.28 1022.16C426.893 1023.63 427.2 1025.17 427.2 1026.8C427.2 1028.77 426.813 1030.53 426.04 1032.08C425.293 1033.6 424.16 1034.8 422.64 1035.68C421.147 1036.56 419.307 1037 417.12 1037C414.213 1037 411.88 1036.28 410.12 1034.84C408.36 1033.4 407.307 1031.49 406.96 1029.12H411.4C411.693 1030.37 412.347 1031.37 413.36 1032.12C414.373 1032.84 415.64 1033.2 417.16 1033.2C419.053 1033.2 420.467 1032.63 421.4 1031.48C422.36 1030.33 422.84 1028.81 422.84 1026.92C422.84 1025 422.36 1023.53 421.4 1022.52C420.44 1021.48 419.027 1020.96 417.16 1020.96C415.853 1020.96 414.747 1021.29 413.84 1021.96C412.96 1022.6 412.32 1023.48 411.92 1024.6H407.6V1007.76H425.2V1011.76ZM431.347 1012V1007.84H439.667V1037H435.067V1012H431.347Z"/>
</mask>
<path d="M425.2 1011.76H411.8V1019.72C412.36 1018.97 413.187 1018.35 414.28 1017.84C415.4 1017.33 416.587 1017.08 417.84 1017.08C420.08 1017.08 421.893 1017.56 423.28 1018.52C424.693 1019.48 425.693 1020.69 426.28 1022.16C426.893 1023.63 427.2 1025.17 427.2 1026.8C427.2 1028.77 426.813 1030.53 426.04 1032.08C425.293 1033.6 424.16 1034.8 422.64 1035.68C421.147 1036.56 419.307 1037 417.12 1037C414.213 1037 411.88 1036.28 410.12 1034.84C408.36 1033.4 407.307 1031.49 406.96 1029.12H411.4C411.693 1030.37 412.347 1031.37 413.36 1032.12C414.373 1032.84 415.64 1033.2 417.16 1033.2C419.053 1033.2 420.467 1032.63 421.4 1031.48C422.36 1030.33 422.84 1028.81 422.84 1026.92C422.84 1025 422.36 1023.53 421.4 1022.52C420.44 1021.48 419.027 1020.96 417.16 1020.96C415.853 1020.96 414.747 1021.29 413.84 1021.96C412.96 1022.6 412.32 1023.48 411.92 1024.6H407.6V1007.76H425.2V1011.76ZM431.347 1012V1007.84H439.667V1037H435.067V1012H431.347Z" fill="black"/>
<path d="M425.2 1011.76V1012.06H425.5V1011.76H425.2ZM411.8 1011.76V1011.46H411.5V1011.76H411.8ZM411.8 1019.72H411.5V1020.62L412.04 1019.9L411.8 1019.72ZM414.28 1017.84L414.156 1017.57L414.154 1017.57L414.28 1017.84ZM423.28 1018.52L423.109 1018.77L423.111 1018.77L423.28 1018.52ZM426.28 1022.16L426.001 1022.27L426.003 1022.28L426.28 1022.16ZM426.04 1032.08L425.772 1031.95L425.771 1031.95L426.04 1032.08ZM422.64 1035.68L422.49 1035.42L422.488 1035.42L422.64 1035.68ZM410.12 1034.84L410.31 1034.61L410.12 1034.84ZM406.96 1029.12V1028.82H406.613L406.663 1029.16L406.96 1029.12ZM411.4 1029.12L411.692 1029.05L411.638 1028.82H411.4V1029.12ZM413.36 1032.12L413.182 1032.36L413.186 1032.36L413.36 1032.12ZM421.4 1031.48L421.17 1031.29L421.167 1031.29L421.4 1031.48ZM421.4 1022.52L421.18 1022.72L421.182 1022.73L421.4 1022.52ZM413.84 1021.96L414.016 1022.2L414.018 1022.2L413.84 1021.96ZM411.92 1024.6V1024.9H412.131L412.203 1024.7L411.92 1024.6ZM407.6 1024.6H407.3V1024.9H407.6V1024.6ZM407.6 1007.76V1007.46H407.3V1007.76H407.6ZM425.2 1007.76H425.5V1007.46H425.2V1007.76ZM425.2 1011.76V1011.46H411.8V1011.76V1012.06H425.2V1011.76ZM411.8 1011.76H411.5V1019.72H411.8H412.1V1011.76H411.8ZM411.8 1019.72L412.04 1019.9C412.563 1019.2 413.345 1018.6 414.406 1018.11L414.28 1017.84L414.154 1017.57C413.028 1018.09 412.157 1018.74 411.56 1019.54L411.8 1019.72ZM414.28 1017.84L414.404 1018.11C415.484 1017.62 416.628 1017.38 417.84 1017.38V1017.08V1016.78C416.545 1016.78 415.316 1017.04 414.156 1017.57L414.28 1017.84ZM417.84 1017.08V1017.38C420.039 1017.38 421.787 1017.85 423.109 1018.77L423.28 1018.52L423.451 1018.27C422 1017.27 420.121 1016.78 417.84 1016.78V1017.08ZM423.28 1018.52L423.111 1018.77C424.48 1019.7 425.439 1020.86 426.001 1022.27L426.28 1022.16L426.559 1022.05C425.948 1020.52 424.907 1019.26 423.449 1018.27L423.28 1018.52ZM426.28 1022.16L426.003 1022.28C426.601 1023.7 426.9 1025.21 426.9 1026.8H427.2H427.5C427.5 1025.13 427.186 1023.55 426.557 1022.04L426.28 1022.16ZM427.2 1026.8H426.9C426.9 1028.73 426.521 1030.45 425.772 1031.95L426.04 1032.08L426.308 1032.21C427.105 1030.62 427.5 1028.81 427.5 1026.8H427.2ZM426.04 1032.08L425.771 1031.95C425.051 1033.41 423.96 1034.57 422.49 1035.42L422.64 1035.68L422.79 1035.94C424.36 1035.03 425.535 1033.79 426.309 1032.21L426.04 1032.08ZM422.64 1035.68L422.488 1035.42C421.051 1036.27 419.267 1036.7 417.12 1036.7V1037V1037.3C419.346 1037.3 421.242 1036.85 422.792 1035.94L422.64 1035.68ZM417.12 1037V1036.7C414.263 1036.7 412.003 1035.99 410.31 1034.61L410.12 1034.84L409.93 1035.07C411.757 1036.57 414.164 1037.3 417.12 1037.3V1037ZM410.12 1034.84L410.31 1034.61C408.611 1033.22 407.593 1031.38 407.257 1029.08L406.96 1029.12L406.663 1029.16C407.02 1031.61 408.109 1033.58 409.93 1035.07L410.12 1034.84ZM406.96 1029.12V1029.42H411.4V1029.12V1028.82H406.96V1029.12ZM411.4 1029.12L411.108 1029.19C411.417 1030.51 412.11 1031.57 413.182 1032.36L413.36 1032.12L413.538 1031.88C412.583 1031.18 411.97 1030.24 411.692 1029.05L411.4 1029.12ZM413.36 1032.12L413.186 1032.36C414.261 1033.13 415.592 1033.5 417.16 1033.5V1033.2V1032.9C415.688 1032.9 414.486 1032.55 413.534 1031.88L413.36 1032.12ZM417.16 1033.2V1033.5C419.116 1033.5 420.627 1032.9 421.633 1031.67L421.4 1031.48L421.167 1031.29C420.306 1032.35 418.991 1032.9 417.16 1032.9V1033.2ZM421.4 1031.48L421.63 1031.67C422.646 1030.46 423.14 1028.86 423.14 1026.92H422.84H422.54C422.54 1028.76 422.074 1030.21 421.17 1031.29L421.4 1031.48ZM422.84 1026.92H423.14C423.14 1024.95 422.648 1023.4 421.618 1022.31L421.4 1022.52L421.182 1022.73C422.072 1023.67 422.54 1025.05 422.54 1026.92H422.84ZM421.4 1022.52L421.62 1022.32C420.587 1021.2 419.082 1020.66 417.16 1020.66V1020.96V1021.26C418.971 1021.26 420.293 1021.76 421.18 1022.72L421.4 1022.52ZM417.16 1020.96V1020.66C415.8 1020.66 414.628 1021.01 413.662 1021.72L413.84 1021.96L414.018 1022.2C414.865 1021.58 415.907 1021.26 417.16 1021.26V1020.96ZM413.84 1021.96L413.664 1021.72C412.73 1022.4 412.056 1023.33 411.637 1024.5L411.92 1024.6L412.203 1024.7C412.584 1023.63 413.19 1022.8 414.016 1022.2L413.84 1021.96ZM411.92 1024.6V1024.3H407.6V1024.6V1024.9H411.92V1024.6ZM407.6 1024.6H407.9V1007.76H407.6H407.3V1024.6H407.6ZM407.6 1007.76V1008.06H425.2V1007.76V1007.46H407.6V1007.76ZM425.2 1007.76H424.9V1011.76H425.2H425.5V1007.76H425.2ZM431.347 1012H431.047V1012.3H431.347V1012ZM431.347 1007.84V1007.54H431.047V1007.84H431.347ZM439.667 1007.84H439.967V1007.54H439.667V1007.84ZM439.667 1037V1037.3H439.967V1037H439.667ZM435.067 1037H434.767V1037.3H435.067V1037ZM435.067 1012H435.367V1011.7H435.067V1012ZM431.347 1012H431.647V1007.84H431.347H431.047V1012H431.347ZM431.347 1007.84V1008.14H439.667V1007.84V1007.54H431.347V1007.84ZM439.667 1007.84H439.367V1037H439.667H439.967V1007.84H439.667ZM439.667 1037V1036.7H435.067V1037V1037.3H439.667V1037ZM435.067 1037H435.367V1012H435.067H434.767V1037H435.067ZM435.067 1012V1011.7H431.347V1012V1012.3H435.067V1012Z" fill="black" mask="url(#path-10-outside-2_97_52)"/>
<path d="M259.46 214.46V226.535H283.085V242.18H259.46V255.515H286.235V272H238.88V197.975H286.235V214.46H259.46ZM293.044 242.495C293.044 236.405 294.304 231.085 296.824 226.535C299.344 221.985 302.844 218.485 307.324 216.035C311.874 213.585 317.054 212.36 322.864 212.36C330.354 212.36 336.654 214.425 341.764 218.555C346.874 222.615 350.164 228.32 351.634 235.67H329.794C328.534 231.82 326.084 229.895 322.444 229.895C319.854 229.895 317.789 230.98 316.249 233.15C314.779 235.25 314.044 238.365 314.044 242.495C314.044 246.625 314.779 249.775 316.249 251.945C317.789 254.115 319.854 255.2 322.444 255.2C326.154 255.2 328.604 253.275 329.794 249.425H351.634C350.164 256.705 346.874 262.41 341.764 266.54C336.654 270.67 330.354 272.735 322.864 272.735C317.054 272.735 311.874 271.51 307.324 269.06C302.844 266.61 299.344 263.11 296.824 258.56C294.304 254.01 293.044 248.655 293.044 242.495ZM380.764 194.3V272H360.184V194.3H380.764ZM402.879 207.635C399.239 207.635 396.299 206.655 394.059 204.695C391.889 202.665 390.804 200.145 390.804 197.135C390.804 194.055 391.889 191.5 394.059 189.47C396.299 187.44 399.239 186.425 402.879 186.425C406.449 186.425 409.319 187.44 411.489 189.47C413.729 191.5 414.849 194.055 414.849 197.135C414.849 200.145 413.729 202.665 411.489 204.695C409.319 206.655 406.449 207.635 402.879 207.635ZM413.064 213.095V272H392.484V213.095H413.064ZM445.363 221.285C446.973 218.555 449.248 216.385 452.188 214.775C455.128 213.165 458.593 212.36 462.583 212.36C467.273 212.36 471.508 213.585 475.288 216.035C479.138 218.485 482.148 221.985 484.318 226.535C486.558 231.085 487.678 236.405 487.678 242.495C487.678 248.585 486.558 253.94 484.318 258.56C482.148 263.11 479.138 266.61 475.288 269.06C471.508 271.51 467.273 272.735 462.583 272.735C458.593 272.735 455.128 271.93 452.188 270.32C449.318 268.71 447.043 266.54 445.363 263.81V300.14H424.783V213.095H445.363V221.285ZM466.783 242.495C466.783 238.645 465.733 235.67 463.633 233.57C461.603 231.4 459.083 230.315 456.073 230.315C453.063 230.315 450.508 231.4 448.408 233.57C446.378 235.74 445.363 238.715 445.363 242.495C445.363 246.345 446.378 249.355 448.408 251.525C450.508 253.695 453.063 254.78 456.073 254.78C459.083 254.78 461.603 253.695 463.633 251.525C465.733 249.285 466.783 246.275 466.783 242.495ZM521.246 272.735C515.926 272.735 511.166 271.86 506.966 270.11C502.836 268.29 499.546 265.84 497.096 262.76C494.716 259.61 493.386 256.075 493.106 252.155H513.056C513.336 254.045 514.211 255.515 515.681 256.565C517.151 257.615 518.971 258.14 521.141 258.14C522.821 258.14 524.151 257.79 525.131 257.09C526.111 256.39 526.601 255.48 526.601 254.36C526.601 252.89 525.796 251.805 524.186 251.105C522.576 250.405 519.916 249.635 516.206 248.795C512.006 247.955 508.506 247.01 505.706 245.96C502.906 244.91 500.456 243.195 498.356 240.815C496.326 238.435 495.311 235.215 495.311 231.155C495.311 227.655 496.256 224.505 498.146 221.705C500.036 218.835 502.801 216.56 506.441 214.88C510.151 213.2 514.596 212.36 519.776 212.36C527.476 212.36 533.531 214.25 537.941 218.03C542.351 221.81 544.906 226.78 545.606 232.94H527.021C526.671 231.05 525.831 229.615 524.501 228.635C523.241 227.585 521.526 227.06 519.356 227.06C517.676 227.06 516.381 227.375 515.471 228.005C514.631 228.635 514.211 229.51 514.211 230.63C514.211 232.03 515.016 233.115 516.626 233.885C518.236 234.585 520.826 235.32 524.396 236.09C528.666 237 532.201 238.015 535.001 239.135C537.871 240.255 540.356 242.075 542.456 244.595C544.626 247.045 545.711 250.405 545.711 254.675C545.711 258.105 544.696 261.185 542.666 263.915C540.706 266.645 537.871 268.815 534.161 270.425C530.521 271.965 526.216 272.735 521.246 272.735ZM612.108 241.865C612.108 243.475 612.003 245.085 611.793 246.695H572.838C573.048 249.915 573.923 252.33 575.463 253.94C577.073 255.48 579.103 256.25 581.553 256.25C584.983 256.25 587.433 254.71 588.903 251.63H610.848C609.938 255.69 608.153 259.33 605.493 262.55C602.903 265.7 599.613 268.185 595.623 270.005C591.633 271.825 587.223 272.735 582.393 272.735C576.583 272.735 571.403 271.51 566.853 269.06C562.373 266.61 558.838 263.11 556.248 258.56C553.728 254.01 552.468 248.655 552.468 242.495C552.468 236.335 553.728 231.015 556.248 226.535C558.768 221.985 562.268 218.485 566.748 216.035C571.298 213.585 576.513 212.36 582.393 212.36C588.203 212.36 593.348 213.55 597.828 215.93C602.308 218.31 605.808 221.74 608.328 226.22C610.848 230.63 612.108 235.845 612.108 241.865ZM591.108 236.72C591.108 234.2 590.268 232.24 588.588 230.84C586.908 229.37 584.808 228.635 582.288 228.635C579.768 228.635 577.703 229.335 576.093 230.735C574.483 232.065 573.433 234.06 572.943 236.72H591.108Z" fill="black"/>
<path d="M298.606 482.23C317.003 480.028 320.921 494.139 333.045 503.238L333.57 503.629C352.311 503.055 370.075 506.764 387.705 512.85C394.528 510.187 401.036 506.171 407.773 503.179C548.729 440.551 709.244 535.029 728.275 688.637C743.67 812.916 654.305 930.761 529.301 946.043C522.688 947.485 515.239 947.451 508.489 947.728C468.76 949.358 430.761 939.568 395.773 921.317C372.839 928.182 356.211 927.827 333.57 928.78C319.767 939.28 316.014 953.419 294.264 947.802C277.074 943.362 274.656 927.848 266.648 914.345C240.903 903.486 217.206 886.826 197.574 866.993C180.681 866.281 160.426 871.262 154.437 848.503C151.305 836.604 157.944 827.322 163.725 817.493C159.626 806.651 154.162 796.419 150.351 785.398C146.089 773.068 144.455 761.697 141.434 749.301C110.292 728.427 110.085 709.584 141.434 686.102C141.363 659.199 153.7 639.569 162.303 616.164C154.921 602.097 147.585 587.902 160.751 574.879C172.528 563.231 182.286 565.013 197.574 565.048C212.385 545.09 245.905 522.008 269.819 515.35C275.145 500.106 281.094 485.62 298.606 482.23Z" fill="#020205"/>
<path d="M410.709 525.962C436.658 538.795 474.62 562.92 490.9 588.167C494.579 591.458 497.534 596.603 500.376 600.67C553.471 676.676 544.338 782.006 482.884 850.528C469.452 865.504 432.342 895.047 410.837 896.265C392.709 897.292 374.612 884.366 361.36 873.288C332.577 849.536 309.031 809.033 299.432 773.696C275.511 685.642 311.913 587.974 388.703 538.212C395.71 533.672 402.983 529.172 410.709 525.962Z" fill="#474747"/>
<path d="M490.9 588.167C494.579 591.458 497.534 596.604 500.376 600.671C553.471 676.676 544.338 782.006 482.884 850.528C469.452 865.504 432.342 895.047 410.837 896.265C392.709 897.292 374.612 884.366 361.36 873.288C410.906 861.688 461.109 825.987 485.92 781.306C515.071 728.812 526.017 668.901 501.434 612.799C497.866 604.655 493.337 596.749 490.9 588.167Z" fill="#1C1C1C"/>
<path d="M385.615 803.971C401.154 802.857 414.639 814.586 415.689 830.129C416.74 845.673 404.955 859.109 389.408 860.095C373.95 861.076 360.608 849.375 359.564 833.921C358.519 818.468 370.166 805.079 385.615 803.971Z" fill="#020205"/>
<path d="M472.951 630.945C488.249 628.927 502.273 639.729 504.227 655.036C506.181 670.344 495.32 684.322 480.005 686.212C464.78 688.091 450.901 677.308 448.96 662.09C447.017 646.873 457.743 632.95 472.951 630.945Z" fill="#020205"/>
<path d="M392.44 581.834C403.167 580.38 413.034 587.917 414.453 598.647C415.873 609.379 408.304 619.222 397.57 620.608C386.881 621.987 377.092 614.46 375.678 603.777C374.264 593.094 381.761 583.28 392.44 581.834Z" fill="#020205"/>
<path d="M437.802 515.35C471.871 501.888 523.218 503.819 557.247 513.934C606.853 528.682 653.57 564.366 678.353 610.09C710.776 665.417 716.18 736.403 691.962 795.916C654.271 888.54 548.857 944.953 451.344 918.974C445.325 917.371 439.598 915.123 433.387 914.345C434.457 913.545 468.341 894.116 468.838 894.021L469.94 892.931C474.767 888.066 480.651 884.257 485.747 879.657C545.597 825.631 570.431 737.123 550.621 659.401C533.506 592.252 495.29 549.451 437.802 515.35Z" fill="#6392C8"/>
<path d="M678.353 610.09C710.776 665.417 716.18 736.403 691.962 795.916C654.271 888.539 548.857 944.952 451.344 918.973C445.325 917.37 439.598 915.122 433.387 914.345C434.457 913.545 468.341 894.115 468.838 894.02C470.376 894.952 481.639 894.046 483.979 893.976C535.842 892.441 589.686 869.118 625.223 831.106C626.779 829.442 629.748 826.727 629.67 824.341C634.806 819.451 636.737 818.559 640.494 811.853C647.864 811.938 666.564 774.086 669.75 766.97C688.624 724.816 692.836 677.119 683.065 632.1C681.608 625.386 677.642 616.926 678.353 610.09Z" fill="#3F7CAB"/>
<path d="M629.67 824.341C606.1 838.317 576.148 816.23 584.897 789.113C596.69 752.562 655.844 768.802 640.494 811.853C636.737 818.559 634.806 819.452 629.67 824.341Z" fill="#020205"/>
<path d="M582.743 558.203C599.259 555.561 614.791 566.809 617.432 583.325C620.074 599.842 608.827 615.372 592.309 618.014C575.794 620.655 560.264 609.408 557.622 592.891C554.98 576.376 566.228 560.845 582.743 558.203Z" fill="#020205"/>
<path d="M141.434 717.762C160.205 693.302 159.337 710.859 165.472 675.866C167.584 663.819 171.2 652.448 175.968 641.193C178.753 634.623 185.502 624.417 185.47 617.536C185.427 608.038 175.94 596.725 176.466 590.874C179.17 586.12 200.342 590.432 208.437 584.721C212.612 581.776 215.69 577.317 219.369 573.803C232.401 561.346 247.465 550.137 263.706 542.178C270.608 538.796 279.016 536.453 284.81 531.264C290.391 526.262 296.497 502.811 303.223 505.842C308.802 508.355 316.147 520.383 322.56 524.394C328.259 527.958 351.697 526.557 362.786 529.237C355.11 534.653 349.031 542.643 341.188 547.6L324.264 566.199C298.183 602.901 282.498 629.348 273.68 675.765C259.679 750.128 281.59 822.637 334.143 876.381C337.728 880.049 341.633 883.447 345.146 887.174C352.66 893.51 359.791 898.308 367.601 904.069C354.623 906.149 328.635 904.201 320.962 909.358C317.023 912.005 303.608 927.387 299.655 925.976C296.985 925.023 291.019 911.145 289.448 908.003C282.977 895.072 275.785 893.748 263.554 887.451C249.331 880.127 236.288 871.003 224.046 860.738C219.061 856.557 211.954 848.247 206.129 845.929C195.653 841.761 184.059 846.061 176.527 843.55C175.376 839.553 181.826 831.463 183.284 827.499C189.26 811.252 181.681 803.346 176.022 788.836C171.612 777.528 167.962 766.275 165.696 754.345C160.59 727.877 159.135 736.781 141.434 717.762Z" fill="url(#paint0_linear_97_52)"/>
<path d="M141.434 717.762C160.205 693.302 159.337 710.859 165.472 675.866C167.584 663.819 171.2 652.448 175.968 641.193C178.753 634.623 185.502 624.417 185.47 617.536C185.427 608.038 175.94 596.725 176.466 590.874C179.17 586.12 200.342 590.432 208.437 584.721C212.612 581.776 215.69 577.317 219.369 573.803C232.401 561.346 247.465 550.137 263.706 542.178C270.608 538.796 279.016 536.453 284.81 531.264C290.391 526.262 296.497 502.811 303.223 505.842C308.802 508.355 316.147 520.383 322.56 524.394C328.259 527.958 351.697 526.557 362.786 529.237C355.11 534.653 349.031 542.643 341.188 547.6C337.659 546.582 331.77 547.516 328.037 547.86C232.751 556.644 172.569 642.127 182.03 735.935C182.642 741.997 183.369 748.503 185.136 754.345C178.679 754.522 172.129 753.864 165.696 754.345C160.59 727.877 159.135 736.781 141.434 717.762Z" fill="#F43D38"/>
<path d="M165.696 754.345C172.129 753.865 178.679 754.523 185.136 754.345C198.605 825.772 260.371 877.152 330.836 886.278C334.768 886.787 341.414 888.701 345.146 887.175C352.66 893.511 359.791 898.308 367.601 904.069C354.623 906.149 328.635 904.201 320.962 909.358C317.022 912.005 303.608 927.388 299.655 925.977C296.985 925.023 291.019 911.146 289.448 908.004C282.976 895.073 275.785 893.748 263.554 887.452C249.331 880.128 236.287 871.003 224.045 860.738C219.06 856.557 211.954 848.247 206.129 845.93C195.653 841.762 184.059 846.062 176.527 843.551C175.375 839.553 181.826 831.464 183.284 827.499C189.26 811.253 181.681 803.346 176.022 788.836C171.612 777.529 167.962 766.276 165.696 754.345Z" fill="#CA2927"/>
<path d="M273.68 675.765C271.553 674.599 267.629 674.468 265.174 673.982C231.762 667.359 217.421 642.465 237.626 613.597C256.997 585.923 291.896 571.978 324.264 566.199C298.183 602.901 282.497 629.348 273.68 675.765Z" fill="#FE890C"/>
<defs>
<linearGradient id="paint0_linear_97_52" x1="398.337" y1="845.31" x2="215.928" y2="602.078" gradientUnits="userSpaceOnUse">
<stop stop-color="#EBAB1A"/>
<stop offset="1" stop-color="#FFD03F"/>
</linearGradient>
</defs>
</svg>
