<svg width="849" height="1183" viewBox="0 0 849 1183" fill="none" xmlns="http://www.w3.org/2000/svg">
<rect x="5" y="5" width="839" height="1173" rx="45" fill="white"/>
<rect x="5" y="5" width="839" height="1173" rx="45" stroke="black" stroke-width="10"/>
<circle cx="786.5" cy="1124.5" r="11.5" fill="black"/>
<circle cx="786.5" cy="59.5" r="11.5" fill="black"/>
<path d="M77 1124.5C77 1130.85 71.8513 1136 65.5 1136C59.1487 1136 54 1130.85 54 1124.5C54 1118.15 59.1487 1113 65.5 1113C71.8513 1113 77 1118.15 77 1124.5Z" fill="black"/>
<path d="M77 59.5C77 65.8513 71.8513 71 65.5 71C59.1487 71 54 65.8513 54 59.5C54 53.1487 59.1487 48 65.5 48C71.8513 48 77 53.1487 77 59.5Z" fill="black"/>
<mask id="path-6-inside-1_97_2" fill="white">
<path d="M708 48C713.523 48 717.934 52.4996 718.616 57.9801C723.122 94.1833 751.817 122.878 788.02 127.384C793.5 128.066 798 132.477 798 138V1046C798 1051.52 793.5 1055.93 788.02 1056.62C751.817 1061.12 723.122 1089.82 718.616 1126.02C717.934 1131.5 713.523 1136 708 1136H141C135.477 1136 131.066 1131.5 130.384 1126.02C125.878 1089.82 97.1833 1061.12 60.9801 1056.62C55.4996 1055.93 51 1051.52 51 1046V138C51 132.477 55.4996 128.066 60.9801 127.384C97.1833 122.878 125.878 94.1833 130.384 57.9801C131.066 52.4996 135.477 48 141 48H708Z"/>
</mask>
<path d="M708 48C713.523 48 717.934 52.4996 718.616 57.9801C723.122 94.1833 751.817 122.878 788.02 127.384C793.5 128.066 798 132.477 798 138V1046C798 1051.52 793.5 1055.93 788.02 1056.62C751.817 1061.12 723.122 1089.82 718.616 1126.02C717.934 1131.5 713.523 1136 708 1136H141C135.477 1136 131.066 1131.5 130.384 1126.02C125.878 1089.82 97.1833 1061.12 60.9801 1056.62C55.4996 1055.93 51 1051.52 51 1046V138C51 132.477 55.4996 128.066 60.9801 127.384C97.1833 122.878 125.878 94.1833 130.384 57.9801C131.066 52.4996 135.477 48 141 48H708Z" fill="#DBEE71"/>
<path d="M130.384 1126.02L138.322 1125.03L130.384 1126.02ZM718.616 1126.02L710.678 1125.03L718.616 1126.02ZM788.02 1056.62L789.008 1064.56L788.02 1056.62ZM718.616 57.9801L726.555 56.9922L718.616 57.9801ZM718.616 57.9801L710.678 58.9681C715.635 98.8063 747.194 130.365 787.032 135.322L788.02 127.384L789.008 119.445C756.44 115.392 730.608 89.5603 726.555 56.9922L718.616 57.9801ZM798 138H790V1046H798H806V138H798ZM788.02 1056.62L787.032 1048.68C747.194 1053.64 715.635 1085.19 710.678 1125.03L718.616 1126.02L726.555 1127.01C730.608 1094.44 756.44 1068.61 789.008 1064.56L788.02 1056.62ZM708 1136V1128H141V1136V1144H708V1136ZM130.384 1126.02L138.322 1125.03C133.365 1085.19 101.806 1053.64 61.9681 1048.68L60.9801 1056.62L59.9922 1064.56C92.5603 1068.61 118.392 1094.44 122.445 1127.01L130.384 1126.02ZM51 1046H59V138H51H43V1046H51ZM60.9801 127.384L61.9681 135.322C101.806 130.365 133.365 98.8063 138.322 58.9681L130.384 57.9801L122.445 56.9922C118.392 89.5603 92.5603 115.392 59.9922 119.445L60.9801 127.384ZM141 48V56H708V48V40H141V48ZM130.384 57.9801L138.322 58.9681C138.438 58.0389 138.872 57.2306 139.427 56.6958C139.954 56.1887 140.494 56 141 56V48V40C130.84 40 123.547 48.1329 122.445 56.9922L130.384 57.9801ZM51 138H59C59 137.494 59.1887 136.954 59.6958 136.427C60.2306 135.872 61.0389 135.438 61.9681 135.322L60.9801 127.384L59.9922 119.445C51.1329 120.547 43 127.84 43 138H51ZM60.9801 1056.62L61.9681 1048.68C61.0389 1048.56 60.2306 1048.13 59.6958 1047.57C59.1887 1047.05 59 1046.51 59 1046H51H43C43 1056.16 51.1329 1063.45 59.9922 1064.56L60.9801 1056.62ZM141 1136V1128C140.494 1128 139.954 1127.81 139.427 1127.3C138.872 1126.77 138.438 1125.96 138.322 1125.03L130.384 1126.02L122.445 1127.01C123.547 1135.87 130.84 1144 141 1144V1136ZM718.616 1126.02L710.678 1125.03C710.562 1125.96 710.128 1126.77 709.573 1127.3C709.046 1127.81 708.506 1128 708 1128V1136V1144C718.16 1144 725.453 1135.87 726.555 1127.01L718.616 1126.02ZM798 1046H790C790 1046.51 789.811 1047.05 789.304 1047.57C788.769 1048.13 787.961 1048.56 787.032 1048.68L788.02 1056.62L789.008 1064.56C797.867 1063.45 806 1056.16 806 1046H798ZM788.02 127.384L787.032 135.322C787.961 135.438 788.769 135.872 789.304 136.427C789.811 136.954 790 137.494 790 138H798H806C806 127.84 797.867 120.547 789.008 119.445L788.02 127.384ZM718.616 57.9801L726.555 56.9922C725.453 48.1329 718.16 40 708 40V48V56C708.506 56 709.046 56.1887 709.573 56.6958C710.128 57.2306 710.562 58.0389 710.678 58.9681L718.616 57.9801Z" fill="black" mask="url(#path-6-inside-1_97_2)"/>
<path d="M690 102C695.523 102 699.911 106.512 700.837 111.957C705.019 136.563 724.437 155.981 749.043 160.163C754.488 161.089 759 165.477 759 171V1014C759 1019.52 754.488 1023.91 749.043 1024.84C724.711 1028.97 705.454 1048 700.984 1072.22C699.993 1077.59 695.633 1082 690.175 1082H158.825C153.367 1082 149.007 1077.59 148.016 1072.22C143.546 1048 124.288 1028.97 99.9568 1024.84C94.5121 1023.91 90 1019.52 90 1014V171C90 165.477 94.512 161.089 99.9568 160.163C124.563 155.981 143.981 136.563 148.163 111.957C149.089 106.512 153.477 102 159 102H690Z" fill="#DFE4C2"/>
<path d="M352.99 395.93H328.255L324.005 408H313.89L335.055 348.84H346.275L367.44 408H357.24L352.99 395.93ZM350.27 388.025L340.665 360.57L330.975 388.025H350.27ZM349.42 336.26L330.635 345.525V338.385L349.42 328.015V336.26ZM386.333 367.965C387.749 365.585 389.619 363.743 391.943 362.44C394.323 361.08 397.128 360.4 400.358 360.4V370.43H397.893C394.096 370.43 391.206 371.393 389.223 373.32C387.296 375.247 386.333 378.59 386.333 383.35V408H376.643V361.165H386.333V367.965ZM418.955 368.135C420.598 365.868 422.836 364.027 425.67 362.61C428.56 361.137 431.761 360.4 435.275 360.4C439.411 360.4 443.151 361.392 446.495 363.375C449.838 365.358 452.473 368.192 454.4 371.875C456.326 375.502 457.29 379.667 457.29 384.37C457.29 389.073 456.326 393.295 454.4 397.035C452.473 400.718 449.81 403.608 446.41 405.705C443.066 407.745 439.355 408.765 435.275 408.765C431.648 408.765 428.418 408.057 425.585 406.64C422.808 405.223 420.598 403.41 418.955 401.2V408H409.265V345.1H418.955V368.135ZM447.43 384.37C447.43 381.14 446.75 378.363 445.39 376.04C444.086 373.66 442.33 371.875 440.12 370.685C437.966 369.438 435.643 368.815 433.15 368.815C430.713 368.815 428.39 369.438 426.18 370.685C424.026 371.932 422.27 373.745 420.91 376.125C419.606 378.505 418.955 381.31 418.955 384.54C418.955 387.77 419.606 390.603 420.91 393.04C422.27 395.42 424.026 397.233 426.18 398.48C428.39 399.727 430.713 400.35 433.15 400.35C435.643 400.35 437.966 399.727 440.12 398.48C442.33 397.177 444.086 395.307 445.39 392.87C446.75 390.433 447.43 387.6 447.43 384.37ZM487.187 408.765C482.767 408.765 478.772 407.773 475.202 405.79C471.632 403.75 468.827 400.917 466.787 397.29C464.747 393.607 463.727 389.357 463.727 384.54C463.727 379.78 464.775 375.558 466.872 371.875C468.969 368.192 471.83 365.358 475.457 363.375C479.084 361.392 483.135 360.4 487.612 360.4C492.089 360.4 496.14 361.392 499.767 363.375C503.394 365.358 506.255 368.192 508.352 371.875C510.449 375.558 511.497 379.78 511.497 384.54C511.497 389.3 510.42 393.522 508.267 397.205C506.114 400.888 503.167 403.75 499.427 405.79C495.744 407.773 491.664 408.765 487.187 408.765ZM487.187 400.35C489.68 400.35 492.004 399.755 494.157 398.565C496.367 397.375 498.152 395.59 499.512 393.21C500.872 390.83 501.552 387.94 501.552 384.54C501.552 381.14 500.9 378.278 499.597 375.955C498.294 373.575 496.565 371.79 494.412 370.6C492.259 369.41 489.935 368.815 487.442 368.815C484.949 368.815 482.625 369.41 480.472 370.6C478.375 371.79 476.704 373.575 475.457 375.955C474.21 378.278 473.587 381.14 473.587 384.54C473.587 389.583 474.862 393.493 477.412 396.27C480.019 398.99 483.277 400.35 487.187 400.35ZM530.766 345.1V408H521.076V345.1H530.766Z" fill="black"/>
<mask id="path-10-outside-2_97_2" maskUnits="userSpaceOnUse" x="418" y="1007" width="10" height="31" fill="black">
<rect fill="white" x="418" y="1007" width="10" height="31"/>
<path d="M418.8 1012V1007.84H427.12V1037H422.52V1012H418.8Z"/>
</mask>
<path d="M418.8 1012V1007.84H427.12V1037H422.52V1012H418.8Z" fill="black"/>
<path d="M418.8 1012H418.5V1012.3H418.8V1012ZM418.8 1007.84V1007.54H418.5V1007.84H418.8ZM427.12 1007.84H427.42V1007.54H427.12V1007.84ZM427.12 1037V1037.3H427.42V1037H427.12ZM422.52 1037H422.22V1037.3H422.52V1037ZM422.52 1012H422.82V1011.7H422.52V1012ZM418.8 1012H419.1V1007.84H418.8H418.5V1012H418.8ZM418.8 1007.84V1008.14H427.12V1007.84V1007.54H418.8V1007.84ZM427.12 1007.84H426.82V1037H427.12H427.42V1007.84H427.12ZM427.12 1037V1036.7H422.52V1037V1037.3H427.12V1037ZM422.52 1037H422.82V1012H422.52H422.22V1037H422.52ZM422.52 1012V1011.7H418.8V1012V1012.3H422.52V1012Z" fill="black" mask="url(#path-10-outside-2_97_2)"/>
<path d="M366.635 197.975V214.355H346.895V272H326.315V214.355H306.785V197.975H366.635ZM394.829 223.49C397.139 220.13 399.939 217.47 403.229 215.51C406.519 213.55 410.054 212.57 413.834 212.57V234.515H408.059C403.579 234.515 400.254 235.39 398.084 237.14C395.914 238.89 394.829 241.935 394.829 246.275V272H374.249V213.095H394.829V223.49ZM477.492 241.865C477.492 243.475 477.387 245.085 477.177 246.695H438.222C438.432 249.915 439.307 252.33 440.847 253.94C442.457 255.48 444.487 256.25 446.937 256.25C450.367 256.25 452.817 254.71 454.287 251.63H476.232C475.322 255.69 473.537 259.33 470.877 262.55C468.287 265.7 464.997 268.185 461.007 270.005C457.017 271.825 452.607 272.735 447.777 272.735C441.967 272.735 436.787 271.51 432.237 269.06C427.757 266.61 424.222 263.11 421.632 258.56C419.112 254.01 417.852 248.655 417.852 242.495C417.852 236.335 419.112 231.015 421.632 226.535C424.152 221.985 427.652 218.485 432.132 216.035C436.682 213.585 441.897 212.36 447.777 212.36C453.587 212.36 458.732 213.55 463.212 215.93C467.692 218.31 471.192 221.74 473.712 226.22C476.232 230.63 477.492 235.845 477.492 241.865ZM456.492 236.72C456.492 234.2 455.652 232.24 453.972 230.84C452.292 229.37 450.192 228.635 447.672 228.635C445.152 228.635 443.087 229.335 441.477 230.735C439.867 232.065 438.817 234.06 438.327 236.72H456.492ZM542.194 241.865C542.194 243.475 542.089 245.085 541.879 246.695H502.924C503.134 249.915 504.009 252.33 505.549 253.94C507.159 255.48 509.189 256.25 511.639 256.25C515.069 256.25 517.519 254.71 518.989 251.63H540.934C540.024 255.69 538.239 259.33 535.579 262.55C532.989 265.7 529.699 268.185 525.709 270.005C521.719 271.825 517.309 272.735 512.479 272.735C506.669 272.735 501.489 271.51 496.939 269.06C492.459 266.61 488.924 263.11 486.334 258.56C483.814 254.01 482.554 248.655 482.554 242.495C482.554 236.335 483.814 231.015 486.334 226.535C488.854 221.985 492.354 218.485 496.834 216.035C501.384 213.585 506.599 212.36 512.479 212.36C518.289 212.36 523.434 213.55 527.914 215.93C532.394 218.31 535.894 221.74 538.414 226.22C540.934 230.63 542.194 235.845 542.194 241.865ZM521.194 236.72C521.194 234.2 520.354 232.24 518.674 230.84C516.994 229.37 514.894 228.635 512.374 228.635C509.854 228.635 507.789 229.335 506.179 230.735C504.569 232.065 503.519 234.06 503.029 236.72H521.194Z" fill="black"/>
<path d="M418.591 442.272C445.558 439.798 469.95 454.405 481.798 478.298C521.063 463.058 561.108 489.585 567.108 530.595C606.029 538.062 623.678 579.329 613.541 615.659C635.117 631.891 645.92 655.89 638.838 682.862C634.061 701.056 624.286 710.01 610.035 720.864C608.796 761.697 577.229 788.305 537.288 785.012C514.551 816.73 490.513 832.234 450.317 816.712C449.274 850.028 454.387 913.193 479.804 935.46C489.696 944.125 508.433 942.494 511.213 965.194C511.554 967.982 510.329 972.062 507.079 972.168C497.144 972.49 483.369 973.313 473.742 971.996C469.516 971.417 461.571 961.578 453.906 963.475C442.67 964.13 439.225 972.662 425.667 973.437C410.185 973.127 405.48 963.95 394.373 964.107C388.427 964.19 383.751 964.456 378.805 968.509C372.486 973.686 368.313 972.609 360.468 972.592L338.137 972.559C329.832 963.488 348.035 942.204 358.078 940.559C361.716 939.254 368.342 936.634 370.724 933.54C394.54 902.62 398.2 850.786 398.161 814.361C361.567 832.534 324.581 822.796 306.951 784.064C265.084 792.573 233.094 756.339 235.933 715.376C218.844 704.55 207.863 679.626 208.001 659.866C208.149 638.802 218.374 623.533 232.735 609.301C223.408 579.192 245.624 544.912 273.484 533.109C275.961 532.059 278.801 530.776 281.515 530.595C286.467 490.033 331.873 458.635 367.243 479.692C375.427 459.051 396.543 444.022 418.591 442.272Z" fill="black"/>
<path d="M351.061 483.887C375.262 488.781 366.153 500.234 378.553 478.345C399.91 440.651 455.795 443.234 473.511 483.987C478.05 494.106 484.889 485.851 493.965 484.441C522.299 479.196 548.852 497.781 556.227 524.82C562.025 546.071 552.37 533.219 573.504 542.495C595.714 552.244 609.238 575.243 606.802 599.391C606.137 605.989 603.477 612.724 603.41 618.855C604.845 621.542 606.658 622.895 609.124 624.649C638.114 645.271 638.799 687.523 610.183 708.795C606.996 711.165 603.257 712.884 600.167 715.376C600.602 733.061 597.521 745.908 584.896 759.207C561.845 783.49 534.999 772.198 530.066 777.892C527.093 781.324 525.334 786.316 522.473 789.855C504.64 811.914 478.081 819.258 452.123 807.834C452.13 803.225 453.376 790.305 456.846 787.08C458.472 778.396 460.555 772.83 464.998 764.896C470.558 764.905 494.551 758.977 487.297 751.044C481.526 744.733 463.777 766.468 447.004 745.371C443.564 742.168 445.596 738.747 443.876 736.316C439.963 730.79 433.093 735.578 434.815 741.919C435.571 744.696 435.125 748.639 434.193 750.98C431.779 757.694 429.212 764.404 427.401 771.303C422.12 755.314 415.772 744.882 403.779 732.798C388.294 717.199 393.331 733.192 385.172 743.952C379.351 738.763 373.738 733.466 365.596 732.571C359.696 736.783 360.955 740.161 367.18 742.815C383.192 749.645 390.302 768.078 393.172 784.064C395.872 787.598 396.211 798.532 398.161 804.086C383.348 811.426 371.9 817.328 354.809 813.402C340.021 810.009 327.377 801.183 319.395 788.228C309.527 772.215 318.84 773.258 301.594 775.383C266.647 779.691 238.784 745.437 246.216 712.108C243.852 709.513 239.443 706.362 236.573 703.664C214.151 682.576 210.069 647.886 230.965 624.342C242.141 611.747 243.578 617.701 240.875 599.904C238.148 572.689 261.136 540.867 288.579 538.728C291.286 535.865 291.366 526.415 292.85 522.073C302.019 495.245 323.014 481 351.061 483.887Z" fill="#10CC38"/>
<path d="M288.579 538.728C291.286 535.865 291.366 526.415 292.85 522.073C302.019 495.245 323.014 481 351.061 483.887C326.847 488.516 307.83 515.364 306.465 539.261C305.378 547.603 307.426 550.753 297.843 553.691C275.232 560.625 273.981 597.342 279.895 599.3C267.029 607.265 275.228 627.369 283.418 636.417C268.763 641.471 271.105 663.962 274.917 675.401C278.061 684.832 281.839 688.956 288.579 695.826C291.431 694.024 294.369 694.13 297.711 693.877C295.215 690.364 293.815 689.817 290.778 687.103C283.765 680.831 299.787 671.599 305.767 692.616C322.281 687.045 329.995 698.639 332.046 713.276C332.06 715.287 332.263 719.795 332.046 721.582C340.34 727.785 348.379 727.977 354.949 719.873C377.79 691.698 426.379 708.281 422.001 748.979C425.895 749.895 430.211 750.538 434.193 750.98C431.779 757.694 429.212 764.404 427.401 771.303C422.12 755.314 415.772 744.882 403.779 732.798C388.294 717.199 393.331 733.192 385.172 743.952C379.351 738.763 373.738 733.466 365.596 732.571C359.696 736.783 360.955 740.161 367.18 742.815C383.192 749.645 390.302 768.078 393.172 784.064C395.872 787.598 396.211 798.531 398.161 804.086C383.348 811.426 371.9 817.328 354.809 813.402C340.021 810.009 327.377 801.183 319.395 788.228C309.527 772.215 318.84 773.258 301.594 775.383C266.647 779.691 238.784 745.437 246.216 712.108C243.852 709.513 239.443 706.362 236.573 703.664C214.151 682.576 210.069 647.886 230.965 624.342C242.141 611.747 243.578 617.701 240.875 599.904C238.148 572.689 261.136 540.867 288.579 538.728Z" fill="#187F2B"/>
<path d="M246.216 712.108C243.852 709.513 239.443 706.362 236.573 703.664C214.151 682.576 210.069 647.886 230.965 624.342C242.141 611.747 243.578 617.701 240.875 599.904C238.148 572.689 261.136 540.867 288.579 538.728C272.703 563.283 250.746 577.039 256.679 608.707C257.963 615.561 261.468 619.182 255.632 624.466C234.288 643.794 233.914 679.064 257.088 697.233C259.292 698.96 263.237 702.134 264.743 704.437C261.919 718.324 261.498 727.433 269.739 740.322C278.44 753.934 297.67 760.397 313.239 757.958C327.044 755.797 323.204 760.174 329.977 771.851C342.009 792.592 369.034 801.279 389.516 787.158C390.445 786.517 392.919 785.002 393.172 784.064C395.872 787.598 396.211 798.531 398.161 804.086C383.348 811.426 371.9 817.328 354.809 813.402C340.021 810.009 327.377 801.183 319.395 788.228C309.527 772.215 318.84 773.258 301.594 775.383C266.647 779.691 238.784 745.437 246.216 712.108Z" fill="#005A03"/>
<path d="M297.711 693.877C295.215 690.364 293.815 689.817 290.778 687.103C283.765 680.831 299.787 671.599 305.767 692.616C322.281 687.045 329.995 698.639 332.046 713.276C332.06 715.287 332.263 719.795 332.046 721.582C330.155 724.576 328.441 728.76 326.583 731.873C298.018 778.875 249.714 703.528 288.579 695.826C291.431 694.024 294.369 694.13 297.711 693.877Z" fill="black"/>
<path d="M301.765 703.302C308.455 701.019 306.718 700.169 315.028 700.157C331.755 710.369 316.469 747.567 296.168 734.491C282.395 725.476 276.386 702.361 295.378 704.361L295.839 704.406C295.931 704.416 296.024 704.427 296.116 704.437C297.98 704.1 299.903 703.683 301.765 703.302Z" fill="#FF0000"/>
<path d="M301.765 703.302C304.459 704.643 309.237 702.012 313.19 701.601C326.725 712.019 317.36 739.329 301.022 723.306C298 720.343 288.318 705.042 296.116 704.437C297.98 704.1 299.903 703.683 301.765 703.302Z" fill="#FF0000"/>
<path d="M591.288 717.85C594.694 716.727 596.66 716.163 600.167 715.376C600.603 733.061 597.521 745.908 584.896 759.207C561.845 783.49 534.999 772.199 530.066 777.892C527.093 781.324 525.334 786.316 522.474 789.855C504.64 811.914 478.081 819.258 452.123 807.834C452.13 803.225 453.376 790.305 456.846 787.08C458.472 778.396 460.555 772.83 464.998 764.896C470.558 764.905 494.551 758.977 487.297 751.044C481.526 744.733 463.777 766.468 447.004 745.371C461.48 745.566 474.915 749.352 487.591 738.923C489.887 737.034 491.626 734.533 493.93 732.571C502.853 732.966 509.976 732.058 518.783 731.102C538.396 757.199 559.506 747.68 567.108 720.864C575.137 720.54 583.384 719.261 591.288 717.85Z" fill="#187F2B"/>
<path d="M591.288 717.85C594.694 716.727 596.66 716.163 600.167 715.376C600.602 733.061 597.521 745.908 584.896 759.207C561.845 783.49 534.999 772.199 530.066 777.892C527.093 781.324 525.334 786.316 522.473 789.855C504.64 811.914 478.08 819.258 452.123 807.834C452.13 803.225 453.376 790.305 456.846 787.08C476.954 798.174 495.223 793.504 509.889 775.623C523.296 759.282 509.923 756.716 536.735 757.308C564.691 758.815 584.313 745.344 591.288 717.85Z" fill="#005A03"/>
<path d="M296.116 592.924C293.888 588.805 291.469 586.918 288.784 583.362C286.153 579.875 296.329 570.757 304.247 590.594L304.347 590.852C329.324 584.942 335.615 615.169 323.834 632.396C322.016 635.055 320.279 637.427 318.23 639.768C305.113 649.992 295.984 647.054 283.418 636.417C275.228 627.369 267.029 607.265 279.895 599.3C284.963 594.199 289.118 593.831 296.116 592.924Z" fill="black"/>
<path d="M301.765 601.51C301.854 600.919 301.928 600.383 301.992 599.789L302.519 599.745L302.918 600.374C306.924 599.469 309.076 599.25 313.19 599.3C327.841 607.065 317.624 647.483 294.099 632.718C281.219 624.636 275.534 601.827 296.116 602.719C297.951 602.662 299.958 601.998 301.765 601.51Z" fill="#FF0000"/>
<path d="M301.765 601.51C305.457 601.58 309.766 601.054 313.19 601.51C316.038 603.957 318.008 608.201 318.047 611.947C318.384 644.357 283.502 615.523 296.116 602.719C297.951 602.662 299.958 601.998 301.765 601.51Z" fill="#FF0000"/>
<path d="M535.475 692.616C533.264 687.52 529.509 685.92 527.943 681.948C524.867 674.147 540.398 671.363 544.725 692.616C562.986 691.43 572.087 701.999 567.108 720.864C559.506 747.68 538.396 757.199 518.783 731.102C512.985 722.558 509.078 708.171 516.274 699.129C520.609 693.68 529.039 693.264 535.475 692.616Z" fill="black"/>
<path d="M537.288 702.602C543.235 702.487 545.789 700.164 552.757 702.602C554.081 702.813 555.644 703.019 556.935 703.302C562.412 716.461 554.188 732.884 541.728 737.892C525.343 730.827 508.986 700.67 537.288 702.602Z" fill="#FF0000"/>
<path d="M537.288 702.602C543.235 702.487 545.789 700.164 552.757 702.602C564.513 715.069 550.308 737.094 538.455 722.569C532.777 715.611 529.389 708.561 537.288 702.602Z" fill="#FF0000"/>
<path d="M283.418 636.417C295.984 647.054 305.113 649.992 318.23 639.768C317.932 642.364 316.854 645.08 316.106 647.598C310.56 666.011 313.575 673.191 330.719 680.746C345.158 687.108 345.797 701.865 334.247 711.472C333.658 711.962 332.395 712.593 332.046 713.276C329.995 698.639 322.281 687.045 305.767 692.616C299.787 671.599 283.765 680.831 290.778 687.103C293.815 689.817 295.215 690.364 297.711 693.877C294.369 694.13 291.431 694.024 288.579 695.826C281.839 688.956 278.061 684.832 274.918 675.401C271.105 663.962 268.763 641.471 283.418 636.417Z" fill="#19A825"/>
<path d="M474.077 520.467C481.17 519.405 485.926 530.683 488.021 535.859C524.547 527.747 516.314 587.894 485.731 590.852C464.132 588.631 445.04 560.037 459.706 542.965C464.641 537.219 471.597 537.115 478.684 536.75C476.046 530.774 463.14 523.932 474.077 520.467Z" fill="black"/>
<path d="M493.93 545.403C504.353 541.504 503.673 561.518 500.522 567.54C499.042 571.585 490.435 580.847 485.854 581.204C473.104 582.198 447.077 546.141 480.546 546.388C486.302 546.013 487.254 544.552 493.93 545.403Z" fill="#FF0000"/>
<path d="M500.522 567.54C499.042 571.585 490.435 580.847 485.855 581.204C473.104 582.198 447.077 546.141 480.546 546.388C469.477 554.295 485.416 583.345 498.005 568.817C499.153 568.208 500.451 566.562 500.483 565.242L500.637 565.188C500.473 566.152 500.386 566.55 500.522 567.54Z" fill="#FF0000"/>
<path d="M493.93 545.403C504.353 541.504 503.673 561.518 500.522 567.54C500.386 566.55 500.473 566.152 500.637 565.188L500.483 565.242C500.451 566.562 499.153 568.208 498.005 568.817C502.583 561.248 503.966 548.915 493.93 545.403Z" fill="#F82C16"/>
<path d="M456.846 659.852C462.977 661.117 466.639 668.111 468.563 673.476L468.988 673.42C500.927 669.396 499.465 725.029 463.254 728.391C434.071 729.168 417.956 674.395 459.127 675.06C456.885 670.451 453.975 668.788 452.123 664.901C453.368 661.671 453.791 661.287 456.846 659.852Z" fill="black"/>
<path d="M464.998 684.092C466.513 681.772 473.294 682.531 475.8 682.786C478.876 685.028 481.744 687.081 481.798 691.244C484.758 702.823 475.892 718.617 463.184 719.099C446.962 719.76 437.393 690.36 450.381 685.402C452.81 684.475 458.214 684.975 460.999 685.048C462.174 684.949 463.913 684.52 464.998 684.092Z" fill="#FF0000"/>
<path d="M481.798 691.244C484.758 702.823 475.892 718.617 463.184 719.099C446.962 719.76 437.393 690.361 450.381 685.402C452.81 684.475 458.214 684.975 460.999 685.048C452.799 693.265 459.305 711.435 471.061 711.974C477.427 712.265 480.344 700.33 481.798 695.826C481.874 695.488 481.805 691.845 481.798 691.244Z" fill="#FF0000"/>
<path d="M464.998 684.092C466.513 681.772 473.294 682.531 475.8 682.786C478.876 685.028 481.744 687.081 481.798 691.244C481.805 691.845 481.874 695.488 481.798 695.826C479.921 689.137 480.503 688.285 474.077 684.092C470.631 683.746 468.409 683.746 464.998 684.092Z" fill="#F82C16"/>
<path d="M352.256 505.595C360.216 505.442 363.842 513.659 364.347 520.467C407.56 517.437 389 571.658 364.347 575.602C336.873 577.329 313.859 522.096 355.779 521.835C354.025 514.8 345.421 509.871 352.256 505.595Z" fill="black"/>
<path d="M360.39 530.595C363.376 529.223 371.59 528.955 374.701 530.121C388.92 535.448 377.173 562.666 362.765 566.437C341.618 560.262 331.982 529.699 356.8 531.36C357.8 531.08 359.332 530.815 360.39 530.595Z" fill="#FF0000"/>
<path d="M360.39 530.595C363.376 529.223 371.59 528.955 374.701 530.121C388.92 535.448 377.173 562.666 362.765 566.437C341.618 560.262 331.982 529.699 356.8 531.36C345.006 542.435 367.404 572.138 376.969 549.956C384.5 532.494 372.794 530.681 360.39 530.595Z" fill="#FF0000"/>
<path d="M413.219 578.524C419.088 579.331 423.723 587.934 425.667 592.924C461.634 587.26 453.242 648.092 422.001 647.995C400.854 643.659 381.985 618.366 399.447 600.144C404.309 595.069 410.025 595.576 416.396 595.573C414.009 587.075 400.527 582.564 413.219 578.524Z" fill="black"/>
<path d="M417.575 605.043C423.272 603.413 424.077 602.514 430.92 601.51C439.083 603.297 441.521 612.482 439.899 619.756C437.511 630.461 431.165 633.633 423.155 639.768L422.708 639.45C420.376 637.814 417.219 636.186 414.192 634.668C398.941 627.022 396.979 601.181 417.575 605.043Z" fill="#FF0000"/>
<path d="M430.92 601.51C439.083 603.297 441.521 612.482 439.899 619.756C437.511 630.461 431.165 633.633 423.155 639.768L422.708 639.45C420.376 637.814 417.219 636.186 414.192 634.668C398.941 627.022 396.979 601.181 417.575 605.043C403.701 614.175 433.787 649.561 438.385 616.9C439.519 608.848 434.555 606.558 430.92 601.51Z" fill="#FF0000"/>
<path d="M542.867 581.622C549.327 581.537 554.435 590.603 556.935 595.573C562.036 595.074 568.263 594.451 572.786 597.06C592.313 608.327 578.49 645.329 556.935 651.469C535.556 651.94 504.064 601.297 547.24 596.948C544.165 591.062 533.235 586.382 542.867 581.622Z" fill="black"/>
<path d="M563.756 605.043C578.439 603.111 574.026 631.643 555.879 642.095C547.654 637.589 538.908 632.296 536.545 622.612C533.499 610.124 537.722 606.128 550.119 607.102C555.282 605.882 558.461 605.411 563.756 605.043Z" fill="#FF0000"/>
<path d="M550.119 607.102C555.282 605.882 558.461 605.411 563.756 605.043C577.073 610.202 568.954 640.273 554.483 628.587C549.193 624.313 543.853 612.575 550.119 607.102Z" fill="#FF0000"/>
<path d="M414.644 473.209C434.815 472.456 453.43 479.559 459.437 500.826C460.879 505.933 458.687 509.095 453.591 510.048C445.738 508.049 446.869 485.685 422.519 485.161C415.741 485.016 410.894 486.881 407.641 479.692C409.271 475.221 409.809 474.084 414.644 473.209Z" fill="#F4FFF3"/>
<path d="M501.539 501.253C525.653 500.623 549.058 538.326 533.691 545.403C530.908 545.704 529.643 544.653 527.704 542.782C523.603 520.508 519.376 519.562 501.118 512.718C494.579 510.267 495.415 503.72 501.539 501.253Z" fill="#F4FFF3"/>
<path d="M603.41 649.563C620.322 648.393 614.795 691.356 600.168 696.764C596.716 696.727 594.933 694.002 593.353 691.244C599.067 676.655 607.726 674.445 598.852 655.14C599.944 652.02 600.54 651.087 603.41 649.563Z" fill="#F4FFF3"/>
<path d="M499.261 636.453C505.585 635.913 511.164 640.57 511.761 646.889C512.36 653.21 507.754 658.83 501.44 659.486C495.045 660.15 489.335 655.471 488.729 649.069C488.123 642.668 492.854 637 499.261 636.453Z" fill="#1E8B49"/>
<path d="M370.038 633.33C373.986 632.532 378.056 633.922 380.691 636.968C383.325 640.013 384.115 644.241 382.757 648.032C381.398 651.823 378.103 654.588 374.134 655.268C368.124 656.296 362.4 652.311 361.281 646.316C360.162 640.322 364.062 634.54 370.038 633.33Z" fill="#1E8B49"/>
<path d="M397.101 741.239L397.726 740.826C404.287 743.201 417.607 769.984 419.827 776.838C420.906 780.17 421.523 783.727 423.045 786.85L423.155 787.08C424.014 787.683 424.713 788.225 425.667 788.678C434.004 787.626 441.443 762.624 443.091 755.45C447.219 759.129 450.127 760.807 455.42 762.047C453.158 766.079 451.358 769.769 450.317 774.286C434.004 815.9 439.504 877.18 456.952 917.734C461.683 928.729 469.472 941.719 480.546 947.282C491.696 950.759 495.575 952.118 501.539 963.027C497.576 963.056 492.884 963.196 488.981 963.027H476.944C470.24 957.782 464.267 953.875 455.42 953.223C440.774 955.301 429.816 966.832 418.807 963.068C410.859 960.351 406.393 954.341 396.485 953.826C385.389 953.251 378.767 956.081 370.435 963.027C365.676 963.417 350.41 963.685 346.688 963.027C354.48 950.404 356.178 952.201 368.622 946.387C404.13 927.881 409.544 835.969 406.756 802.457C405.226 784.054 399.574 767.399 391.189 750.98C393.613 748.168 395.932 744.785 397.101 741.239Z" fill="#A77545"/>
<path d="M391.189 750.98C393.613 748.168 395.932 744.785 397.101 741.239C423.536 792.549 420.863 825.453 414.754 882.499C411.844 909.672 409.404 933.078 438.084 946.269C441.969 948.057 452.913 951.64 455.42 953.223C440.774 955.301 429.816 966.832 418.807 963.068C410.859 960.351 406.393 954.341 396.485 953.826C385.389 953.251 378.767 956.081 370.435 963.027C365.676 963.417 350.41 963.685 346.688 963.027C354.48 950.404 356.178 952.201 368.622 946.387C404.13 927.881 409.544 835.969 406.756 802.457C405.226 784.054 399.574 767.399 391.189 750.98Z" fill="#704928"/>
<path d="M443.091 755.45C447.219 759.129 450.127 760.807 455.42 762.047C453.158 766.079 451.358 769.769 450.317 774.286C442.335 774.963 435.528 792.684 425.667 788.678C434.004 787.626 441.443 762.624 443.091 755.45Z" fill="#704928"/>
<path d="M480.546 947.282C491.696 950.759 495.575 952.118 501.539 963.027C497.576 963.056 492.884 963.196 488.981 963.027C487.656 958.273 480.715 949.115 480.546 947.282Z" fill="#704928"/>
<path d="M428.69 864.917C439.757 864.248 439.294 890.791 432.259 893.173C421.346 893.945 423.583 877.065 424.23 869.459C425.458 866.664 425.96 866.177 428.69 864.917Z" fill="#F1C829"/>
<path d="M435.634 898.456C442.887 898.021 448.106 912.445 449.567 918.046L449.419 918.499C448.335 921.724 447.72 922.361 444.616 923.92C435.996 924.441 432.518 910.987 430.92 904.036C431.958 900.888 432.699 900.004 435.634 898.456Z" fill="#F1C829"/>
</svg>
