<svg width="849" height="1183" viewBox="0 0 849 1183" fill="none" xmlns="http://www.w3.org/2000/svg">
<rect x="5" y="5" width="839" height="1173" rx="45" fill="white"/>
<rect x="5" y="5" width="839" height="1173" rx="45" stroke="black" stroke-width="10"/>
<circle cx="786.5" cy="1124.5" r="11.5" fill="black"/>
<circle cx="786.5" cy="59.5" r="11.5" fill="black"/>
<path d="M77 1124.5C77 1130.85 71.8513 1136 65.5 1136C59.1487 1136 54 1130.85 54 1124.5C54 1118.15 59.1487 1113 65.5 1113C71.8513 1113 77 1118.15 77 1124.5Z" fill="black"/>
<path d="M77 59.5C77 65.8513 71.8513 71 65.5 71C59.1487 71 54 65.8513 54 59.5C54 53.1487 59.1487 48 65.5 48C71.8513 48 77 53.1487 77 59.5Z" fill="black"/>
<mask id="path-6-inside-1_97_29" fill="white">
<path d="M708 48C713.523 48 717.934 52.4996 718.616 57.9801C723.122 94.1833 751.817 122.878 788.02 127.384C793.5 128.066 798 132.477 798 138V1046C798 1051.52 793.5 1055.93 788.02 1056.62C751.817 1061.12 723.122 1089.82 718.616 1126.02C717.934 1131.5 713.523 1136 708 1136H141C135.477 1136 131.066 1131.5 130.384 1126.02C125.878 1089.82 97.1833 1061.12 60.9801 1056.62C55.4996 1055.93 51 1051.52 51 1046V138C51 132.477 55.4996 128.066 60.9801 127.384C97.1833 122.878 125.878 94.1833 130.384 57.9801C131.066 52.4996 135.477 48 141 48H708Z"/>
</mask>
<path d="M708 48C713.523 48 717.934 52.4996 718.616 57.9801C723.122 94.1833 751.817 122.878 788.02 127.384C793.5 128.066 798 132.477 798 138V1046C798 1051.52 793.5 1055.93 788.02 1056.62C751.817 1061.12 723.122 1089.82 718.616 1126.02C717.934 1131.5 713.523 1136 708 1136H141C135.477 1136 131.066 1131.5 130.384 1126.02C125.878 1089.82 97.1833 1061.12 60.9801 1056.62C55.4996 1055.93 51 1051.52 51 1046V138C51 132.477 55.4996 128.066 60.9801 127.384C97.1833 122.878 125.878 94.1833 130.384 57.9801C131.066 52.4996 135.477 48 141 48H708Z" fill="#77B866"/>
<path d="M130.384 1126.02L138.322 1125.03L130.384 1126.02ZM718.616 1126.02L710.678 1125.03L718.616 1126.02ZM788.02 1056.62L789.008 1064.56L788.02 1056.62ZM718.616 57.9801L726.555 56.9922L718.616 57.9801ZM718.616 57.9801L710.678 58.9681C715.635 98.8063 747.194 130.365 787.032 135.322L788.02 127.384L789.008 119.445C756.44 115.392 730.608 89.5603 726.555 56.9922L718.616 57.9801ZM798 138H790V1046H798H806V138H798ZM788.02 1056.62L787.032 1048.68C747.194 1053.64 715.635 1085.19 710.678 1125.03L718.616 1126.02L726.555 1127.01C730.608 1094.44 756.44 1068.61 789.008 1064.56L788.02 1056.62ZM708 1136V1128H141V1136V1144H708V1136ZM130.384 1126.02L138.322 1125.03C133.365 1085.19 101.806 1053.64 61.9681 1048.68L60.9801 1056.62L59.9922 1064.56C92.5603 1068.61 118.392 1094.44 122.445 1127.01L130.384 1126.02ZM51 1046H59V138H51H43V1046H51ZM60.9801 127.384L61.9681 135.322C101.806 130.365 133.365 98.8063 138.322 58.9681L130.384 57.9801L122.445 56.9922C118.392 89.5603 92.5603 115.392 59.9922 119.445L60.9801 127.384ZM141 48V56H708V48V40H141V48ZM130.384 57.9801L138.322 58.9681C138.438 58.0389 138.872 57.2306 139.427 56.6958C139.954 56.1887 140.494 56 141 56V48V40C130.84 40 123.547 48.1329 122.445 56.9922L130.384 57.9801ZM51 138H59C59 137.494 59.1887 136.954 59.6958 136.427C60.2306 135.872 61.0389 135.438 61.9681 135.322L60.9801 127.384L59.9922 119.445C51.1329 120.547 43 127.84 43 138H51ZM60.9801 1056.62L61.9681 1048.68C61.0389 1048.56 60.2306 1048.13 59.6958 1047.57C59.1887 1047.05 59 1046.51 59 1046H51H43C43 1056.16 51.1329 1063.45 59.9922 1064.56L60.9801 1056.62ZM141 1136V1128C140.494 1128 139.954 1127.81 139.427 1127.3C138.872 1126.77 138.438 1125.96 138.322 1125.03L130.384 1126.02L122.445 1127.01C123.547 1135.87 130.84 1144 141 1144V1136ZM718.616 1126.02L710.678 1125.03C710.562 1125.96 710.128 1126.77 709.573 1127.3C709.046 1127.81 708.506 1128 708 1128V1136V1144C718.16 1144 725.453 1135.87 726.555 1127.01L718.616 1126.02ZM798 1046H790C790 1046.51 789.811 1047.05 789.304 1047.57C788.769 1048.13 787.961 1048.56 787.032 1048.68L788.02 1056.62L789.008 1064.56C797.867 1063.45 806 1056.16 806 1046H798ZM788.02 127.384L787.032 135.322C787.961 135.438 788.769 135.872 789.304 136.427C789.811 136.954 790 137.494 790 138H798H806C806 127.84 797.867 120.547 789.008 119.445L788.02 127.384ZM718.616 57.9801L726.555 56.9922C725.453 48.1329 718.16 40 708 40V48V56C708.506 56 709.046 56.1887 709.573 56.6958C710.128 57.2306 710.562 58.0389 710.678 58.9681L718.616 57.9801Z" fill="black" mask="url(#path-6-inside-1_97_29)"/>
<path d="M690 102C695.523 102 699.911 106.512 700.837 111.957C705.019 136.563 724.437 155.981 749.043 160.163C754.488 161.089 759 165.477 759 171V1014C759 1019.52 754.488 1023.91 749.043 1024.84C724.711 1028.97 705.454 1048 700.984 1072.22C699.993 1077.59 695.633 1082 690.175 1082H158.825C153.367 1082 149.007 1077.59 148.016 1072.22C143.546 1048 124.288 1028.97 99.9568 1024.84C94.5121 1023.91 90 1019.52 90 1014V171C90 165.477 94.512 161.089 99.9568 160.163C124.563 155.981 143.981 136.563 148.163 111.957C149.089 106.512 153.477 102 159 102H690Z" fill="#A3CC98"/>
<path d="M305.29 348.925L283.105 408H271.885L249.615 348.925H259.985L277.495 398.055L295.09 348.925H305.29ZM356.319 383.435C356.319 385.192 356.205 386.778 355.979 388.195H320.194C320.477 391.935 321.865 394.938 324.359 397.205C326.852 399.472 329.912 400.605 333.539 400.605C338.752 400.605 342.435 398.423 344.589 394.06H355.044C353.627 398.367 351.049 401.908 347.309 404.685C343.625 407.405 339.035 408.765 333.539 408.765C329.062 408.765 325.039 407.773 321.469 405.79C317.955 403.75 315.179 400.917 313.139 397.29C311.155 393.607 310.164 389.357 310.164 384.54C310.164 379.723 311.127 375.502 313.054 371.875C315.037 368.192 317.785 365.358 321.299 363.375C324.869 361.392 328.949 360.4 333.539 360.4C337.959 360.4 341.897 361.363 345.354 363.29C348.81 365.217 351.502 367.937 353.429 371.45C355.355 374.907 356.319 378.902 356.319 383.435ZM346.204 380.375C346.147 376.805 344.872 373.943 342.379 371.79C339.885 369.637 336.797 368.56 333.114 368.56C329.77 368.56 326.909 369.637 324.529 371.79C322.149 373.887 320.732 376.748 320.279 380.375H346.204ZM389.484 360.4C393.168 360.4 396.454 361.165 399.344 362.695C402.291 364.225 404.586 366.492 406.229 369.495C407.873 372.498 408.694 376.125 408.694 380.375V408H399.089V381.82C399.089 377.627 398.041 374.425 395.944 372.215C393.848 369.948 390.986 368.815 387.359 368.815C383.733 368.815 380.843 369.948 378.689 372.215C376.593 374.425 375.544 377.627 375.544 381.82V408H365.854V361.165H375.544V366.52C377.131 364.593 379.143 363.092 381.579 362.015C384.073 360.938 386.708 360.4 389.484 360.4ZM432.36 369.07V394.995C432.36 396.752 432.756 398.027 433.55 398.82C434.4 399.557 435.816 399.925 437.8 399.925H443.75V408H436.1C431.736 408 428.393 406.98 426.07 404.94C423.746 402.9 422.585 399.585 422.585 394.995V369.07H417.06V361.165H422.585V349.52H432.36V361.165H443.75V369.07H432.36ZM472.996 408.765C468.576 408.765 464.581 407.773 461.011 405.79C457.441 403.75 454.636 400.917 452.596 397.29C450.556 393.607 449.536 389.357 449.536 384.54C449.536 379.78 450.584 375.558 452.681 371.875C454.777 368.192 457.639 365.358 461.266 363.375C464.892 361.392 468.944 360.4 473.421 360.4C477.897 360.4 481.949 361.392 485.576 363.375C489.202 365.358 492.064 368.192 494.161 371.875C496.257 375.558 497.306 379.78 497.306 384.54C497.306 389.3 496.229 393.522 494.076 397.205C491.922 400.888 488.976 403.75 485.236 405.79C481.552 407.773 477.472 408.765 472.996 408.765ZM472.996 400.35C475.489 400.35 477.812 399.755 479.966 398.565C482.176 397.375 483.961 395.59 485.321 393.21C486.681 390.83 487.361 387.94 487.361 384.54C487.361 381.14 486.709 378.278 485.406 375.955C484.102 373.575 482.374 371.79 480.221 370.6C478.067 369.41 475.744 368.815 473.251 368.815C470.757 368.815 468.434 369.41 466.281 370.6C464.184 371.79 462.512 373.575 461.266 375.955C460.019 378.278 459.396 381.14 459.396 384.54C459.396 389.583 460.671 393.493 463.221 396.27C465.827 398.99 469.086 400.35 472.996 400.35ZM523.885 408.765C520.201 408.765 516.886 408.113 513.94 406.81C511.05 405.45 508.755 403.637 507.055 401.37C505.355 399.047 504.448 396.468 504.335 393.635H514.365C514.535 395.618 515.47 397.29 517.17 398.65C518.926 399.953 521.108 400.605 523.715 400.605C526.435 400.605 528.531 400.095 530.005 399.075C531.535 397.998 532.3 396.638 532.3 394.995C532.3 393.238 531.45 391.935 529.75 391.085C528.106 390.235 525.471 389.3 521.845 388.28C518.331 387.317 515.47 386.382 513.26 385.475C511.05 384.568 509.123 383.18 507.48 381.31C505.893 379.44 505.1 376.975 505.1 373.915C505.1 371.422 505.836 369.155 507.31 367.115C508.783 365.018 510.88 363.375 513.6 362.185C516.376 360.995 519.55 360.4 523.12 360.4C528.446 360.4 532.725 361.76 535.955 364.48C539.241 367.143 540.998 370.798 541.225 375.445H531.535C531.365 373.348 530.515 371.677 528.985 370.43C527.455 369.183 525.386 368.56 522.78 368.56C520.23 368.56 518.275 369.042 516.915 370.005C515.555 370.968 514.875 372.243 514.875 373.83C514.875 375.077 515.328 376.125 516.235 376.975C517.141 377.825 518.246 378.505 519.55 379.015C520.853 379.468 522.78 380.063 525.33 380.8C528.73 381.707 531.506 382.642 533.66 383.605C535.87 384.512 537.768 385.872 539.355 387.685C540.941 389.498 541.763 391.907 541.82 394.91C541.82 397.573 541.083 399.953 539.61 402.05C538.136 404.147 536.04 405.79 533.32 406.98C530.656 408.17 527.511 408.765 523.885 408.765ZM572.605 408.765C568.185 408.765 564.19 407.773 560.62 405.79C557.05 403.75 554.245 400.917 552.205 397.29C550.165 393.607 549.145 389.357 549.145 384.54C549.145 379.78 550.193 375.558 552.29 371.875C554.387 368.192 557.248 365.358 560.875 363.375C564.502 361.392 568.553 360.4 573.03 360.4C577.507 360.4 581.558 361.392 585.185 363.375C588.812 365.358 591.673 368.192 593.77 371.875C595.867 375.558 596.915 379.78 596.915 384.54C596.915 389.3 595.838 393.522 593.685 397.205C591.532 400.888 588.585 403.75 584.845 405.79C581.162 407.773 577.082 408.765 572.605 408.765ZM572.605 400.35C575.098 400.35 577.422 399.755 579.575 398.565C581.785 397.375 583.57 395.59 584.93 393.21C586.29 390.83 586.97 387.94 586.97 384.54C586.97 381.14 586.318 378.278 585.015 375.955C583.712 373.575 581.983 371.79 579.83 370.6C577.677 369.41 575.353 368.815 572.86 368.815C570.367 368.815 568.043 369.41 565.89 370.6C563.793 371.79 562.122 373.575 560.875 375.955C559.628 378.278 559.005 381.14 559.005 384.54C559.005 389.583 560.28 393.493 562.83 396.27C565.437 398.99 568.695 400.35 572.605 400.35Z" fill="black"/>
<path d="M356.145 197.975L337.98 272H312.675L302.49 226.64L292.095 272H266.79L248.835 197.975H271.095L279.705 248.585L291.36 197.975H313.935L325.275 248.165L333.885 197.975H356.145ZM375.273 207.635C371.633 207.635 368.693 206.655 366.453 204.695C364.283 202.665 363.198 200.145 363.198 197.135C363.198 194.055 364.283 191.5 366.453 189.47C368.693 187.44 371.633 186.425 375.273 186.425C378.843 186.425 381.713 187.44 383.883 189.47C386.123 191.5 387.243 194.055 387.243 197.135C387.243 200.145 386.123 202.665 383.883 204.695C381.713 206.655 378.843 207.635 375.273 207.635ZM385.458 213.095V272H364.878V213.095H385.458ZM435.713 212.57C442.503 212.57 447.893 214.845 451.883 219.395C455.873 223.875 457.868 229.965 457.868 237.665V272H437.288V240.395C437.288 237.035 436.413 234.41 434.663 232.52C432.913 230.56 430.568 229.58 427.628 229.58C424.548 229.58 422.133 230.56 420.383 232.52C418.633 234.41 417.758 237.035 417.758 240.395V272H397.178V213.095H417.758V221.495C419.578 218.835 422.028 216.7 425.108 215.09C428.188 213.41 431.723 212.57 435.713 212.57ZM465.8 242.495C465.8 236.405 466.885 231.085 469.055 226.535C471.295 221.985 474.34 218.485 478.19 216.035C482.04 213.585 486.31 212.36 491 212.36C494.78 212.36 498.14 213.165 501.08 214.775C504.09 216.315 506.435 218.45 508.115 221.18V194.3H528.8V272H508.115V263.81C506.505 266.54 504.23 268.71 501.29 270.32C498.35 271.93 494.885 272.735 490.895 272.735C486.205 272.735 481.935 271.51 478.085 269.06C474.305 266.61 471.295 263.11 469.055 258.56C466.885 253.94 465.8 248.585 465.8 242.495ZM508.22 242.495C508.22 238.715 507.17 235.74 505.07 233.57C503.04 231.4 500.52 230.315 497.51 230.315C494.43 230.315 491.875 231.4 489.845 233.57C487.815 235.67 486.8 238.645 486.8 242.495C486.8 246.275 487.815 249.285 489.845 251.525C491.875 253.695 494.43 254.78 497.51 254.78C500.52 254.78 503.04 253.695 505.07 251.525C507.17 249.355 508.22 246.345 508.22 242.495ZM603.947 213.095L566.567 300.035H544.202L558.272 269.48L534.122 213.095H557.012L569.402 246.485L581.372 213.095H603.947Z" fill="black"/>
<mask id="path-11-outside-2_97_29" maskUnits="userSpaceOnUse" x="407" y="1006" width="46" height="33" fill="black">
<rect fill="white" x="407" y="1006" width="46" height="33"/>
<path d="M410.92 1030.8C413.48 1028.59 415.493 1026.77 416.96 1025.36C418.453 1023.92 419.693 1022.43 420.68 1020.88C421.667 1019.33 422.16 1017.79 422.16 1016.24C422.16 1014.64 421.773 1013.39 421 1012.48C420.253 1011.57 419.067 1011.12 417.44 1011.12C415.867 1011.12 414.64 1011.63 413.76 1012.64C412.907 1013.63 412.453 1014.96 412.4 1016.64H408C408.08 1013.6 408.987 1011.28 410.72 1009.68C412.48 1008.05 414.707 1007.24 417.4 1007.24C420.307 1007.24 422.573 1008.04 424.2 1009.64C425.853 1011.24 426.68 1013.37 426.68 1016.04C426.68 1017.96 426.187 1019.81 425.2 1021.6C424.24 1023.36 423.08 1024.95 421.72 1026.36C420.387 1027.75 418.68 1029.36 416.6 1031.2L414.8 1032.8H427.48V1036.6H408.04V1033.28L410.92 1030.8ZM436.406 1021.76C433.633 1020.37 432.246 1018.19 432.246 1015.2C432.246 1013.76 432.606 1012.44 433.326 1011.24C434.046 1010.04 435.126 1009.09 436.566 1008.4C438.006 1007.68 439.766 1007.32 441.846 1007.32C443.899 1007.32 445.646 1007.68 447.086 1008.4C448.553 1009.09 449.646 1010.04 450.366 1011.24C451.086 1012.44 451.446 1013.76 451.446 1015.2C451.446 1016.69 451.059 1018.01 450.286 1019.16C449.539 1020.28 448.539 1021.15 447.286 1021.76C448.806 1022.32 450.006 1023.24 450.886 1024.52C451.766 1025.77 452.206 1027.25 452.206 1028.96C452.206 1030.69 451.766 1032.23 450.886 1033.56C450.006 1034.89 448.779 1035.92 447.206 1036.64C445.633 1037.36 443.846 1037.72 441.846 1037.72C439.846 1037.72 438.059 1037.36 436.486 1036.64C434.939 1035.92 433.726 1034.89 432.846 1033.56C431.966 1032.23 431.526 1030.69 431.526 1028.96C431.526 1027.23 431.966 1025.73 432.846 1024.48C433.726 1023.23 434.913 1022.32 436.406 1021.76ZM447.086 1015.76C447.086 1014.27 446.619 1013.12 445.686 1012.32C444.753 1011.52 443.473 1011.12 441.846 1011.12C440.246 1011.12 438.979 1011.52 438.046 1012.32C437.113 1013.12 436.646 1014.28 436.646 1015.8C436.646 1017.13 437.126 1018.23 438.086 1019.08C439.073 1019.91 440.326 1020.32 441.846 1020.32C443.366 1020.32 444.619 1019.89 445.606 1019.04C446.593 1018.19 447.086 1017.09 447.086 1015.76ZM441.846 1023.76C440.086 1023.76 438.646 1024.2 437.526 1025.08C436.433 1025.93 435.886 1027.17 435.886 1028.8C435.886 1030.32 436.419 1031.56 437.486 1032.52C438.553 1033.45 440.006 1033.92 441.846 1033.92C443.659 1033.92 445.086 1033.44 446.126 1032.48C447.193 1031.52 447.726 1030.29 447.726 1028.8C447.726 1027.2 447.179 1025.96 446.086 1025.08C445.019 1024.2 443.606 1023.76 441.846 1023.76Z"/>
</mask>
<path d="M410.92 1030.8C413.48 1028.59 415.493 1026.77 416.96 1025.36C418.453 1023.92 419.693 1022.43 420.68 1020.88C421.667 1019.33 422.16 1017.79 422.16 1016.24C422.16 1014.64 421.773 1013.39 421 1012.48C420.253 1011.57 419.067 1011.12 417.44 1011.12C415.867 1011.12 414.64 1011.63 413.76 1012.64C412.907 1013.63 412.453 1014.96 412.4 1016.64H408C408.08 1013.6 408.987 1011.28 410.72 1009.68C412.48 1008.05 414.707 1007.24 417.4 1007.24C420.307 1007.24 422.573 1008.04 424.2 1009.64C425.853 1011.24 426.68 1013.37 426.68 1016.04C426.68 1017.96 426.187 1019.81 425.2 1021.6C424.24 1023.36 423.08 1024.95 421.72 1026.36C420.387 1027.75 418.68 1029.36 416.6 1031.2L414.8 1032.8H427.48V1036.6H408.04V1033.28L410.92 1030.8ZM436.406 1021.76C433.633 1020.37 432.246 1018.19 432.246 1015.2C432.246 1013.76 432.606 1012.44 433.326 1011.24C434.046 1010.04 435.126 1009.09 436.566 1008.4C438.006 1007.68 439.766 1007.32 441.846 1007.32C443.899 1007.32 445.646 1007.68 447.086 1008.4C448.553 1009.09 449.646 1010.04 450.366 1011.24C451.086 1012.44 451.446 1013.76 451.446 1015.2C451.446 1016.69 451.059 1018.01 450.286 1019.16C449.539 1020.28 448.539 1021.15 447.286 1021.76C448.806 1022.32 450.006 1023.24 450.886 1024.52C451.766 1025.77 452.206 1027.25 452.206 1028.96C452.206 1030.69 451.766 1032.23 450.886 1033.56C450.006 1034.89 448.779 1035.92 447.206 1036.64C445.633 1037.36 443.846 1037.72 441.846 1037.72C439.846 1037.72 438.059 1037.36 436.486 1036.64C434.939 1035.92 433.726 1034.89 432.846 1033.56C431.966 1032.23 431.526 1030.69 431.526 1028.96C431.526 1027.23 431.966 1025.73 432.846 1024.48C433.726 1023.23 434.913 1022.32 436.406 1021.76ZM447.086 1015.76C447.086 1014.27 446.619 1013.12 445.686 1012.32C444.753 1011.52 443.473 1011.12 441.846 1011.12C440.246 1011.12 438.979 1011.52 438.046 1012.32C437.113 1013.12 436.646 1014.28 436.646 1015.8C436.646 1017.13 437.126 1018.23 438.086 1019.08C439.073 1019.91 440.326 1020.32 441.846 1020.32C443.366 1020.32 444.619 1019.89 445.606 1019.04C446.593 1018.19 447.086 1017.09 447.086 1015.76ZM441.846 1023.76C440.086 1023.76 438.646 1024.2 437.526 1025.08C436.433 1025.93 435.886 1027.17 435.886 1028.8C435.886 1030.32 436.419 1031.56 437.486 1032.52C438.553 1033.45 440.006 1033.92 441.846 1033.92C443.659 1033.92 445.086 1033.44 446.126 1032.48C447.193 1031.52 447.726 1030.29 447.726 1028.8C447.726 1027.2 447.179 1025.96 446.086 1025.08C445.019 1024.2 443.606 1023.76 441.846 1023.76Z" fill="black"/>
<path d="M410.92 1030.8L411.116 1031.03L411.116 1031.03L410.92 1030.8ZM416.96 1025.36L417.168 1025.58L417.168 1025.58L416.96 1025.36ZM421 1012.48L420.768 1012.67L420.772 1012.67L421 1012.48ZM413.76 1012.64L413.533 1012.44L413.533 1012.44L413.76 1012.64ZM412.4 1016.64V1016.94H412.691L412.7 1016.65L412.4 1016.64ZM408 1016.64L407.7 1016.63L407.692 1016.94H408V1016.64ZM410.72 1009.68L410.923 1009.9L410.924 1009.9L410.72 1009.68ZM424.2 1009.64L423.99 1009.85L423.991 1009.86L424.2 1009.64ZM425.2 1021.6L424.937 1021.45L424.937 1021.46L425.2 1021.6ZM421.72 1026.36L421.504 1026.15L421.504 1026.15L421.72 1026.36ZM416.6 1031.2L416.401 1030.98L416.401 1030.98L416.6 1031.2ZM414.8 1032.8L414.601 1032.58L414.011 1033.1H414.8V1032.8ZM427.48 1032.8H427.78V1032.5H427.48V1032.8ZM427.48 1036.6V1036.9H427.78V1036.6H427.48ZM408.04 1036.6H407.74V1036.9H408.04V1036.6ZM408.04 1033.28L407.844 1033.05L407.74 1033.14V1033.28H408.04ZM410.92 1030.8L411.116 1031.03C413.678 1028.81 415.696 1026.99 417.168 1025.58L416.96 1025.36L416.752 1025.14C415.291 1026.55 413.282 1028.36 410.724 1030.57L410.92 1030.8ZM416.96 1025.36L417.168 1025.58C418.676 1024.12 419.932 1022.61 420.933 1021.04L420.68 1020.88L420.427 1020.72C419.455 1022.24 418.23 1023.72 416.752 1025.14L416.96 1025.36ZM420.68 1020.88L420.933 1021.04C421.945 1019.46 422.46 1017.85 422.46 1016.24H422.16H421.86C421.86 1017.72 421.389 1019.21 420.427 1020.72L420.68 1020.88ZM422.16 1016.24H422.46C422.46 1014.59 422.062 1013.26 421.228 1012.29L421 1012.48L420.772 1012.67C421.485 1013.51 421.86 1014.69 421.86 1016.24H422.16ZM421 1012.48L421.232 1012.29C420.408 1011.29 419.12 1010.82 417.44 1010.82V1011.12V1011.42C419.013 1011.42 420.098 1011.86 420.768 1012.67L421 1012.48ZM417.44 1011.12V1010.82C415.796 1010.82 414.48 1011.35 413.533 1012.44L413.76 1012.64L413.987 1012.84C414.8 1011.9 415.937 1011.42 417.44 1011.42V1011.12ZM413.76 1012.64L413.533 1012.44C412.623 1013.5 412.155 1014.9 412.1 1016.63L412.4 1016.64L412.7 1016.65C412.752 1015.02 413.19 1013.76 413.987 1012.84L413.76 1012.64ZM412.4 1016.64V1016.34H408V1016.64V1016.94H412.4V1016.64ZM408 1016.64L408.3 1016.65C408.378 1013.66 409.266 1011.43 410.923 1009.9L410.72 1009.68L410.517 1009.46C408.708 1011.13 407.782 1013.54 407.7 1016.63L408 1016.64ZM410.72 1009.68L410.924 1009.9C412.621 1008.33 414.772 1007.54 417.4 1007.54V1007.24V1006.94C414.641 1006.94 412.339 1007.78 410.516 1009.46L410.72 1009.68ZM417.4 1007.24V1007.54C420.251 1007.54 422.433 1008.32 423.99 1009.85L424.2 1009.64L424.41 1009.43C422.713 1007.76 420.363 1006.94 417.4 1006.94V1007.24ZM424.2 1009.64L423.991 1009.86C425.577 1011.39 426.38 1013.44 426.38 1016.04H426.68H426.98C426.98 1013.31 426.13 1011.09 424.409 1009.42L424.2 1009.64ZM426.68 1016.04H426.38C426.38 1017.91 425.901 1019.71 424.937 1021.45L425.2 1021.6L425.463 1021.75C426.472 1019.92 426.98 1018.01 426.98 1016.04H426.68ZM425.2 1021.6L424.937 1021.46C423.989 1023.19 422.845 1024.76 421.504 1026.15L421.72 1026.36L421.936 1026.57C423.315 1025.14 424.491 1023.53 425.463 1021.74L425.2 1021.6ZM421.72 1026.36L421.504 1026.15C420.178 1027.53 418.478 1029.14 416.401 1030.98L416.6 1031.2L416.799 1031.42C418.882 1029.58 420.595 1027.96 421.936 1026.57L421.72 1026.36ZM416.6 1031.2L416.401 1030.98L414.601 1032.58L414.8 1032.8L414.999 1033.02L416.799 1031.42L416.6 1031.2ZM414.8 1032.8V1033.1H427.48V1032.8V1032.5H414.8V1032.8ZM427.48 1032.8H427.18V1036.6H427.48H427.78V1032.8H427.48ZM427.48 1036.6V1036.3H408.04V1036.6V1036.9H427.48V1036.6ZM408.04 1036.6H408.34V1033.28H408.04H407.74V1036.6H408.04ZM408.04 1033.28L408.236 1033.51L411.116 1031.03L410.92 1030.8L410.724 1030.57L407.844 1033.05L408.04 1033.28ZM436.406 1021.76L436.511 1022.04L437.155 1021.8L436.54 1021.49L436.406 1021.76ZM433.326 1011.24L433.069 1011.09L433.326 1011.24ZM436.566 1008.4L436.696 1008.67L436.7 1008.67L436.566 1008.4ZM447.086 1008.4L446.952 1008.67L446.958 1008.67L447.086 1008.4ZM450.366 1011.24L450.623 1011.09L450.366 1011.24ZM450.286 1019.16L450.037 1018.99L450.036 1018.99L450.286 1019.16ZM447.286 1021.76L447.154 1021.49L446.524 1021.8L447.182 1022.04L447.286 1021.76ZM450.886 1024.52L450.639 1024.69L450.64 1024.69L450.886 1024.52ZM450.886 1033.56L451.136 1033.73L450.886 1033.56ZM447.206 1036.64L447.081 1036.37L447.206 1036.64ZM436.486 1036.64L436.359 1036.91L436.361 1036.91L436.486 1036.64ZM432.846 1033.56L432.596 1033.73L432.846 1033.56ZM432.846 1024.48L432.6 1024.31L432.846 1024.48ZM445.686 1012.32L445.881 1012.09V1012.09L445.686 1012.32ZM438.046 1012.32L437.851 1012.09V1012.09L438.046 1012.32ZM438.086 1019.08L437.887 1019.3L437.893 1019.31L438.086 1019.08ZM437.526 1025.08L437.711 1025.32L437.711 1025.32L437.526 1025.08ZM437.486 1032.52L437.285 1032.74L437.288 1032.75L437.486 1032.52ZM446.126 1032.48L445.925 1032.26L445.922 1032.26L446.126 1032.48ZM446.086 1025.08L445.895 1025.31L445.898 1025.31L446.086 1025.08ZM436.406 1021.76L436.54 1021.49C435.193 1020.82 434.198 1019.96 433.539 1018.92C432.881 1017.88 432.546 1016.65 432.546 1015.2H432.246H431.946C431.946 1016.74 432.304 1018.09 433.033 1019.24C433.76 1020.39 434.846 1021.32 436.272 1022.03L436.406 1021.76ZM432.246 1015.2H432.546C432.546 1013.81 432.892 1012.55 433.583 1011.39L433.326 1011.24L433.069 1011.09C432.32 1012.33 431.946 1013.71 431.946 1015.2H432.246ZM433.326 1011.24L433.583 1011.39C434.269 1010.25 435.301 1009.34 436.696 1008.67L436.566 1008.4L436.436 1008.13C434.951 1008.84 433.823 1009.83 433.069 1011.09L433.326 1011.24ZM436.566 1008.4L436.7 1008.67C438.088 1007.97 439.799 1007.62 441.846 1007.62V1007.32V1007.02C439.733 1007.02 437.924 1007.39 436.432 1008.13L436.566 1008.4ZM441.846 1007.32V1007.62C443.865 1007.62 445.563 1007.97 446.952 1008.67L447.086 1008.4L447.22 1008.13C445.729 1007.39 443.933 1007.02 441.846 1007.02V1007.32ZM447.086 1008.4L446.958 1008.67C448.38 1009.34 449.424 1010.25 450.109 1011.39L450.366 1011.24L450.623 1011.09C449.868 1009.83 448.726 1008.84 447.214 1008.13L447.086 1008.4ZM450.366 1011.24L450.109 1011.39C450.8 1012.55 451.146 1013.81 451.146 1015.2H451.446H451.746C451.746 1013.71 451.372 1012.33 450.623 1011.09L450.366 1011.24ZM451.446 1015.2H451.146C451.146 1016.64 450.774 1017.9 450.037 1018.99L450.286 1019.16L450.535 1019.33C451.344 1018.13 451.746 1016.75 451.746 1015.2H451.446ZM450.286 1019.16L450.036 1018.99C449.32 1020.07 448.362 1020.9 447.154 1021.49L447.286 1021.76L447.418 1022.03C448.717 1021.39 449.758 1020.49 450.536 1019.33L450.286 1019.16ZM447.286 1021.76L447.182 1022.04C448.647 1022.58 449.795 1023.46 450.639 1024.69L450.886 1024.52L451.133 1024.35C450.216 1023.02 448.965 1022.06 447.39 1021.48L447.286 1021.76ZM450.886 1024.52L450.64 1024.69C451.481 1025.89 451.906 1027.31 451.906 1028.96H452.206H452.506C452.506 1027.2 452.051 1025.66 451.131 1024.35L450.886 1024.52ZM452.206 1028.96H451.906C451.906 1030.64 451.48 1032.11 450.636 1033.39L450.886 1033.56L451.136 1033.73C452.051 1032.34 452.506 1030.75 452.506 1028.96H452.206ZM450.886 1033.56L450.636 1033.39C449.789 1034.68 448.608 1035.67 447.081 1036.37L447.206 1036.64L447.331 1036.91C448.951 1036.17 450.223 1035.11 451.136 1033.73L450.886 1033.56ZM447.206 1036.64L447.081 1036.37C445.553 1037.07 443.81 1037.42 441.846 1037.42V1037.72V1038.02C443.882 1038.02 445.713 1037.65 447.331 1036.91L447.206 1036.64ZM441.846 1037.72V1037.42C439.882 1037.42 438.139 1037.07 436.611 1036.37L436.486 1036.64L436.361 1036.91C437.979 1037.65 439.81 1038.02 441.846 1038.02V1037.72ZM436.486 1036.64L436.613 1036.37C435.113 1035.67 433.944 1034.68 433.096 1033.39L432.846 1033.56L432.596 1033.73C433.508 1035.11 434.766 1036.17 436.359 1036.91L436.486 1036.64ZM432.846 1033.56L433.096 1033.39C432.251 1032.11 431.826 1030.64 431.826 1028.96H431.526H431.226C431.226 1030.75 431.68 1032.34 432.596 1033.73L432.846 1033.56ZM431.526 1028.96H431.826C431.826 1027.28 432.251 1025.85 433.091 1024.65L432.846 1024.48L432.6 1024.31C431.68 1025.62 431.226 1027.17 431.226 1028.96H431.526ZM432.846 1024.48L433.091 1024.65C433.935 1023.45 435.072 1022.58 436.511 1022.04L436.406 1021.76L436.301 1021.48C434.753 1022.06 433.517 1023 432.6 1024.31L432.846 1024.48ZM447.086 1015.76H447.386C447.386 1014.2 446.895 1012.96 445.881 1012.09L445.686 1012.32L445.491 1012.55C446.343 1013.28 446.786 1014.33 446.786 1015.76H447.086ZM445.686 1012.32L445.881 1012.09C444.878 1011.23 443.521 1010.82 441.846 1010.82V1011.12V1011.42C443.424 1011.42 444.627 1011.81 445.491 1012.55L445.686 1012.32ZM441.846 1011.12V1010.82C440.196 1010.82 438.853 1011.23 437.851 1012.09L438.046 1012.32L438.241 1012.55C439.105 1011.81 440.296 1011.42 441.846 1011.42V1011.12ZM438.046 1012.32L437.851 1012.09C436.835 1012.96 436.346 1014.21 436.346 1015.8H436.646H436.946C436.946 1014.35 437.39 1013.28 438.241 1012.55L438.046 1012.32ZM436.646 1015.8H436.346C436.346 1017.22 436.86 1018.39 437.887 1019.3L438.086 1019.08L438.285 1018.86C437.392 1018.06 436.946 1017.05 436.946 1015.8H436.646ZM438.086 1019.08L437.893 1019.31C438.943 1020.19 440.269 1020.62 441.846 1020.62V1020.32V1020.02C440.383 1020.02 439.202 1019.62 438.279 1018.85L438.086 1019.08ZM441.846 1020.32V1020.62C443.425 1020.62 444.752 1020.18 445.802 1019.27L445.606 1019.04L445.41 1018.81C444.486 1019.61 443.306 1020.02 441.846 1020.02V1020.32ZM445.606 1019.04L445.802 1019.27C446.856 1018.36 447.386 1017.18 447.386 1015.76H447.086H446.786C446.786 1017.01 446.329 1018.02 445.41 1018.81L445.606 1019.04ZM441.846 1023.76V1023.46C440.035 1023.46 438.525 1023.91 437.341 1024.84L437.526 1025.08L437.711 1025.32C438.767 1024.49 440.137 1024.06 441.846 1024.06V1023.76ZM437.526 1025.08L437.341 1024.84C436.162 1025.76 435.586 1027.1 435.586 1028.8H435.886H436.186C436.186 1027.25 436.703 1026.1 437.711 1025.32L437.526 1025.08ZM435.886 1028.8H435.586C435.586 1030.4 436.151 1031.72 437.285 1032.74L437.486 1032.52L437.687 1032.3C436.687 1031.4 436.186 1030.24 436.186 1028.8H435.886ZM437.486 1032.52L437.288 1032.75C438.424 1033.74 439.955 1034.22 441.846 1034.22V1033.92V1033.62C440.056 1033.62 438.681 1033.17 437.683 1032.29L437.486 1032.52ZM441.846 1033.92V1034.22C443.713 1034.22 445.22 1033.72 446.329 1032.7L446.126 1032.48L445.922 1032.26C444.952 1033.16 443.606 1033.62 441.846 1033.62V1033.92ZM446.126 1032.48L446.327 1032.7C447.459 1031.68 448.026 1030.37 448.026 1028.8H447.726H447.426C447.426 1030.21 446.926 1031.36 445.925 1032.26L446.126 1032.48ZM447.726 1028.8H448.026C448.026 1027.12 447.449 1025.79 446.274 1024.85L446.086 1025.08L445.898 1025.31C446.91 1026.13 447.426 1027.28 447.426 1028.8H447.726ZM446.086 1025.08L446.277 1024.85C445.143 1023.91 443.656 1023.46 441.846 1023.46V1023.76V1024.06C443.556 1024.06 444.895 1024.49 445.895 1025.31L446.086 1025.08Z" fill="black" mask="url(#path-11-outside-2_97_29)"/>
<path d="M325.784 433.241C325.809 433.237 325.833 433.231 325.857 433.229C333.612 432.459 341.997 433.517 348.475 438.16C352.793 441.253 355.601 445.22 356.504 450.499C359.313 449.21 362.352 448.226 365.404 447.719C369.793 446.99 375.536 447.187 379.219 449.955C381.911 451.979 382.609 454.532 382.993 457.7C392.257 451.282 403.354 446.196 414.855 446.721C419.959 446.954 425.783 448.414 429.251 452.427C432.485 456.168 432.596 460.45 432.198 465.096C434.658 464.483 437.133 463.923 439.618 463.418C452.366 460.929 468.7 460.515 479.909 468.177C484.084 471.031 487.514 475.101 488.341 480.227C489.448 487.096 485.905 493.498 482.03 498.858C488.44 500.616 494.916 502.826 500.444 506.609C504.849 509.624 508.541 514.092 509.475 519.471C510.29 524.167 508.839 527.894 506.136 531.624C515.921 534.349 527.297 538.701 532.847 547.83C535.396 552.026 536.346 557.105 535.116 561.898C533.311 568.933 527.586 573.111 521.739 576.718C528.551 581.143 535.46 586.62 538.523 594.417C540.362 599.099 540.578 604.448 538.456 609.082C533.279 620.392 517.699 625.766 506.895 629.699C510.142 632.894 512.814 636.419 513.611 641.031C514.317 644.962 513.373 649.011 511.001 652.225C505.23 660.197 492.871 663.704 483.688 665.23C484.566 667.989 485.172 670.608 484.901 673.518C484.462 678.258 481.878 682.275 478.218 685.192C466.123 694.838 446.982 694.258 432.411 692.551C432.312 694.769 432.152 696.868 431.457 698.999C430.143 703.03 427.372 706.262 423.556 708.123C415.77 711.92 406.578 709.858 398.772 707.309C398.408 708.865 398.025 710.348 397.246 711.76C395.335 715.223 392.065 717.338 388.327 718.398C377.132 721.573 365.279 716.454 355.664 711.077C355.373 712.823 354.962 714.361 353.966 715.85C352.243 718.428 349.619 719.907 346.593 720.424C337.342 722.006 327.341 717.046 320.041 711.885C318.844 714.944 317.474 717.456 314.377 718.991C310.291 721.016 304.923 720.158 300.772 718.706C291.467 715.451 285.022 708.883 280.776 700.146C266.306 710.258 254.582 725.347 247.968 741.636C237.662 767.02 239.672 796.043 250.214 820.979C257.773 838.859 270.59 854.5 284.973 867.326C297.342 878.357 310.436 888.501 320.937 901.448C325.024 906.414 328.617 911.767 331.664 917.432C336.349 926.182 339.395 936.272 347.03 943.085C354.974 950.173 367.949 950.937 377.642 955.815C387.079 960.564 393.374 969.515 403.138 973.472C406.514 974.296 409.954 975.074 413.247 976.184C416.429 977.258 419.55 978.705 422.863 979.321C427.194 980.125 432.013 980.009 436.43 980.305C442.572 980.716 462.552 982.145 466.801 985.782C467.348 986.25 467.186 985.994 467.234 986.765C466.974 987.051 466.737 987.317 466.411 987.531C462.905 989.831 452.795 990.119 448.367 990.394C422.215 992.021 394.882 991.997 368.624 992.058L272.624 992.073C246.488 992.057 220.389 992.115 194.261 991.517C181.299 991.22 163.069 991.163 150.672 988.757C148.993 988.431 147.209 988.108 146.206 986.635L146.396 985.945C150.944 981.476 175.193 979.995 182.004 979.696C186.989 974.752 192.636 969.551 198.82 966.198C202.515 964.194 206.397 962.257 210.383 960.911C218.247 958.257 227.897 957.827 232.718 950.004C235.301 945.813 235.936 940.708 235.516 935.888C233.971 918.123 221.434 905.823 211.013 892.583C206.568 886.966 202.466 881.085 198.728 874.975C189.987 860.424 183.55 844.608 179.646 828.088C167.987 777.583 183.611 723.727 210.545 680.68C205.069 679.136 199.765 677.211 196.274 672.408C193.452 668.526 193.026 664.098 193.81 659.52C190.285 657.863 186.816 656.212 183.839 653.65C180.102 650.437 177.237 646.052 176.983 641.01C176.722 635.829 179.005 631.56 182.41 627.885C176.01 622.962 170.32 617.755 167.364 610.029C165.094 604.094 165.105 597.629 167.79 591.826C169.636 587.836 172.547 585.134 176.65 583.643C174.326 576.222 172.316 568.994 172.03 561.159C171.649 550.749 173.766 538.29 181.175 530.432C184.419 526.992 188.223 525.072 192.983 524.95C194.46 511.779 197.535 499.115 205.146 488.046C209.289 482.019 215.564 475.584 223.119 474.369C227.886 473.603 231.04 475.515 234.724 478.174C241.313 466.746 249.418 455.739 260.088 447.824C267.429 442.379 277.265 437.503 286.687 438.954C291.336 439.67 294.659 441.86 297.424 445.596C306.13 439.009 314.865 434.662 325.784 433.241Z" fill="#0D0E0D"/>
<path d="M288.787 465.435C291.586 463.319 294.059 460.758 296.697 458.449C300.31 455.286 304.378 452.356 308.492 449.886C316.87 444.856 327.439 442.153 337.09 444.591C340.397 445.427 343.306 446.873 345.024 449.973C348.71 456.626 343.59 464.872 341.816 471.412C344.09 469.92 346.121 467.971 348.264 466.289C353.125 462.475 363.275 456.141 369.797 457.153C370.818 457.312 371.765 457.821 372.371 458.672C375.486 463.05 370.687 474.037 369.855 478.997L369.76 479.588C370.047 479.244 370.34 478.907 370.632 478.567C377.155 470.952 392.247 462.206 401.852 458.871C406.431 457.282 414.184 455.357 418.775 457.729C420.055 458.39 420.965 459.497 421.352 460.889C423.206 467.559 417.002 476.308 413.771 481.614C428.913 476.527 444.466 471.643 460.663 473.019C464.455 473.341 468.61 473.995 472.039 475.738C474.413 476.944 476.626 478.998 477.355 481.635C479.445 489.188 468.587 497.365 463.484 501.313C461.684 502.706 458.75 504.414 457.691 506.396C458.038 507.297 459.921 507.094 460.827 507.118C470.877 507.39 480.562 507.639 489.791 512.222C492.968 513.799 496.986 516.122 498.09 519.71C498.721 521.761 498.196 523.797 497.169 525.618C494.201 530.874 487.526 534.512 481.891 536.1C494.213 539.482 516.004 540.861 523.713 552.387C525.049 554.383 525.8 556.914 525.222 559.296C523.263 567.371 512.696 571.247 505.771 573.686C503.509 574.483 500.82 575.13 498.8 576.423C498.724 576.471 498.65 576.524 498.576 576.574C498.649 576.683 498.707 576.803 498.796 576.9C500.015 578.238 506.223 579.786 508.254 580.682C515.285 583.786 529.189 592.577 529.555 601.236C529.678 604.16 528.159 606.67 526.18 608.703C524.559 610.367 522.56 611.981 520.456 612.976C506.697 613.46 495.982 613.407 483.155 607.833C488.658 605.546 492.995 603.628 497.312 599.444C492.304 600.756 486.656 600.865 481.584 599.794C477.491 598.932 473.485 596.959 471.13 593.384C463.785 594.856 457.557 597.952 449.804 597.575C444.667 597.326 441.579 595.53 438.176 591.8C447.92 589.663 457.176 582.571 464.186 575.777C461.645 577.237 459.031 578.415 456.305 579.487C441.668 585.243 425.342 587.51 410.598 581.066C416.722 577.324 421.89 572.929 426.565 567.477C417.126 571.462 405.736 574.998 395.517 575.633C398.645 564.747 409.031 555.616 417.07 548.074C414.391 549.18 411.585 550.019 408.883 551.082C395.919 556.184 390.047 565.626 384.71 577.947C379.874 579.613 374.749 581.192 369.696 582.027C363.294 584.699 343.316 588.92 336.118 589.878C339.437 581.693 343.38 573.037 349.829 566.847L354.193 568.071C354.986 568.223 355.791 568.375 356.597 568.44C365.645 569.175 371.869 563.475 378.248 557.991C372.075 559.668 364.061 561.808 357.641 560.433C355.946 560.07 353.79 559.236 352.848 557.673C352.187 556.578 352.213 555.332 352.567 554.142C355.171 545.41 371.031 535.149 379.054 530.791C376.21 530.631 373.378 530.422 370.544 530.803C362.733 531.85 354.949 537.23 349.122 542.24C347.427 543.697 345.949 545.375 344.235 546.81L343.455 546.65C343.101 546.17 342.967 546.112 342.911 545.483C342.249 538.182 354.615 524.015 359.105 518.38C352.273 522.732 345.606 526.884 340.172 533.038C334.309 539.678 334.057 546.799 334.604 555.221C332.144 558.71 329.323 561.878 327.024 565.503C323.944 570.272 321.256 575.317 317.996 579.968C308.556 593.433 295.799 604.447 281.761 612.881C282.642 605.979 283.267 598.906 283.271 591.947C283.278 579.309 280.761 571.573 285.995 559.213C288.263 553.541 291.085 546.175 295.289 541.657C300.777 535.759 308.084 538.422 309.982 525.608C304.865 528.861 298.962 532.871 292.529 531.447C290.606 531.022 288.931 530.013 287.955 528.264C286.172 525.068 287.22 520.486 288.285 517.176C289.832 512.371 292.532 507.488 296.021 503.819C290.298 505.237 286.375 507.847 283.296 512.941C279.387 519.407 278.604 526.324 279.102 533.726C275.475 537.832 272.634 542.317 269.308 546.627C265.347 541.557 264.838 535.691 265.589 529.495C266.358 523.147 268.756 517.231 271.443 511.481C265.134 514.701 261.453 519.41 259.279 526.118C256.928 533.378 256.275 542.103 259.916 549.046C261.355 551.793 263.255 553.98 265.381 556.211C263.307 561.848 261.605 567.433 260.667 573.385C258.548 575.411 256.283 577.727 253.117 577.651C250.544 577.589 248.427 576.199 246.283 574.938C245.066 572.46 244.655 569.904 244.171 567.212C242.721 571.899 240.792 576.656 236.23 579.136C234.57 580.039 232.881 580.337 231.039 580.593C227.392 577.955 225.328 574.51 224.625 570.046C223.393 562.226 225.8 552.196 230.539 545.848C230.952 545.303 231.386 544.774 231.84 544.262C224.971 547.781 220.633 551.328 218.189 558.901C216.146 565.234 215.795 572.311 216.822 578.872C211.459 587.485 209.998 596.699 210.6 606.77C211.028 611.034 211.019 615.254 212.392 619.371C214.396 625.382 218.403 630.432 220.687 636.3C224.132 645.147 222.679 662.411 216.411 669.846C215.617 670.79 214.685 671.543 213.427 671.689C210.657 672.013 206.202 669.003 204.256 667.151C203.377 666.316 202.313 665.118 202.205 663.842C202.108 662.702 202.833 661.583 203.623 660.839C205.592 658.984 209.523 658.282 210.527 655.719C209.862 654.708 208.811 654.593 207.679 654.359C199.782 652.731 191.792 650.046 187.159 642.935C186.019 641.186 185.982 639.639 186.45 637.618C186.745 636.351 187.278 634.897 188.401 634.143C190.287 632.875 196.666 632.984 199.117 632.557C201.273 632.175 203.387 631.588 205.431 630.805C199.445 627.375 192.748 624.696 187.761 619.786C185.127 617.793 182.558 615.677 180.408 613.155C177.228 609.423 174.851 604.716 175.362 599.683C175.594 597.396 176.384 594.478 178.315 593.023C182.898 589.57 186.477 594.091 190.836 594.676C191.482 594.763 191.207 594.817 191.747 594.401L191.435 593.386C184.353 579.525 178.992 563.032 183.179 547.479C184.555 542.365 186.782 537.787 191.525 535.053C196.166 536.281 199.623 540.382 202.157 544.232C202.257 537.32 201.899 530.378 202.679 523.495C204.034 511.536 209.575 494.611 219.493 486.946C221.149 485.667 223.368 484.34 225.557 484.699C226.665 484.881 227.549 485.546 228.199 486.44C232.23 491.988 230.635 501.967 229.808 508.272C241.086 489.756 248.974 468.753 267.21 455.547C271.706 452.291 279.252 448.03 285.003 449.078C286.632 449.375 288.159 450.114 289.099 451.523C291.472 455.078 289.521 461.515 288.787 465.435Z" fill="#488336"/>
<path d="M288.787 465.435C291.586 463.319 294.059 460.758 296.697 458.449C300.31 455.286 304.378 452.356 308.492 449.886C316.87 444.856 327.439 442.153 337.09 444.591C340.397 445.427 343.306 446.873 345.024 449.973C348.71 456.626 343.59 464.872 341.816 471.412C344.09 469.92 346.121 467.971 348.264 466.289C353.125 462.475 363.275 456.141 369.797 457.153C370.818 457.312 371.765 457.821 372.371 458.672C375.486 463.05 370.687 474.037 369.855 478.997L369.76 479.588C370.047 479.244 370.34 478.907 370.632 478.567C377.155 470.952 392.247 462.206 401.852 458.871C406.431 457.282 414.184 455.357 418.775 457.729C420.055 458.39 420.965 459.497 421.352 460.889C423.206 467.559 417.002 476.308 413.771 481.614C428.913 476.527 444.466 471.643 460.663 473.019C464.455 473.341 468.61 473.995 472.039 475.738C474.413 476.944 476.627 478.998 477.355 481.635C479.445 489.188 468.587 497.365 463.484 501.313C461.684 502.706 458.75 504.414 457.691 506.396C458.038 507.297 459.921 507.094 460.827 507.118C470.877 507.39 480.562 507.639 489.791 512.222C492.968 513.799 496.986 516.122 498.09 519.71C498.721 521.761 498.196 523.797 497.169 525.618C494.201 530.874 487.526 534.512 481.891 536.1C494.213 539.482 516.004 540.861 523.713 552.387C525.049 554.383 525.8 556.914 525.222 559.296C523.263 567.371 512.696 571.247 505.771 573.686C503.509 574.483 500.82 575.13 498.8 576.423C498.724 576.471 498.65 576.524 498.576 576.574L498.21 576.418C499.76 572.126 501.697 569.145 499.411 564.55C495.739 557.169 485.485 552.477 478.051 550.188C471.382 548.134 464.065 547.357 457.092 547.367C460.88 544.614 467.756 540.487 468.442 535.4C468.603 534.204 468.273 533.002 467.481 532.086C464.053 528.12 449.688 527.182 444.691 527.031C441.506 526.95 438.319 527.008 435.139 527.203C437.767 523.38 441.354 518.748 440.37 513.816C439.98 511.859 438.848 510.372 437.155 509.339C429.785 504.838 417.789 507.125 410.03 509.212C406.007 510.294 402.059 511.623 398.057 512.773C399.578 508.65 400.771 504.107 398.902 499.855C397.743 497.219 395.509 495.42 392.853 494.414C385.469 491.62 376.54 493.033 369.595 496.358C365.259 498.434 360.486 501.154 356.912 504.4C358.565 500.033 361.084 494.595 359.026 489.978C358.208 488.143 356.699 486.89 354.824 486.226C348.473 483.979 340.199 486.851 334.521 489.748C331.172 491.457 328.261 493.598 325.346 495.956C326.06 491.277 327.798 483.189 324.8 479.111C323.46 477.288 321.248 476.625 319.101 476.354C309.88 475.193 294.97 479.54 287.757 485.333C287.396 485.623 287.069 485.929 286.736 486.249C287.057 483.313 288.114 477.21 286.121 474.725C285.568 474.035 284.779 473.814 283.93 473.794C281.948 473.746 279.799 474.631 277.965 475.306C268.568 478.769 260.835 484.321 253.876 491.452C244.248 501.318 239.608 512.543 234.777 525.16C233.302 522.264 231.668 518.276 228.265 517.235C226.641 516.738 224.975 517.277 223.56 518.1C215.638 522.707 210.675 532.413 208.593 540.987C207.162 546.88 206.751 552.814 206.343 558.839C204.883 556.191 202.533 551.701 199.347 550.933C198.413 550.708 197.615 550.771 196.789 551.298C193.381 553.47 191.811 560.026 191.168 563.774C189.981 570.687 190.375 585.686 191.71 592.741L191.435 593.386C184.353 579.525 178.992 563.032 183.179 547.479C184.555 542.365 186.782 537.787 191.525 535.053C196.166 536.281 199.623 540.382 202.157 544.232C202.257 537.32 201.899 530.378 202.679 523.495C204.034 511.536 209.575 494.611 219.493 486.946C221.149 485.667 223.368 484.34 225.557 484.699C226.665 484.881 227.549 485.546 228.199 486.44C232.23 491.988 230.635 501.967 229.808 508.272C241.086 489.756 248.974 468.753 267.21 455.547C271.706 452.291 279.252 448.03 285.003 449.078C286.632 449.375 288.159 450.114 289.099 451.523C291.472 455.078 289.521 461.515 288.787 465.435Z" fill="#79A92D"/>
<path d="M204.485 621.063C201.546 617.266 197.979 613.26 196.56 608.585C196.289 607.694 196.033 606.804 196.498 605.935C199.42 604.728 204.441 609.632 208.812 608.187C209.767 607.871 210.165 607.648 210.6 606.77C211.028 611.034 211.019 615.254 212.392 619.371C214.396 625.382 218.403 630.432 220.687 636.3C224.132 645.147 222.679 662.412 216.411 669.847C215.617 670.79 214.684 671.543 213.427 671.69C210.657 672.013 206.202 669.003 204.256 667.152C203.377 666.316 202.313 665.118 202.205 663.842C202.108 662.703 202.833 661.584 203.623 660.839C205.591 658.984 209.523 658.283 210.526 655.719C209.862 654.708 208.811 654.593 207.679 654.359C199.782 652.731 191.792 650.047 187.159 642.935C186.019 641.186 185.981 639.639 186.45 637.618C186.745 636.351 187.278 634.897 188.401 634.143C190.287 632.875 196.666 632.984 199.117 632.557C201.272 632.175 203.387 631.588 205.43 630.805C199.445 627.375 192.748 624.696 187.761 619.787C192.193 620.908 198.829 622.174 202.819 623.875L202.951 623.413C202.52 623.092 202.075 622.771 201.678 622.408C201.216 621.984 200.532 621.438 200.486 620.807C201.609 620.455 202.968 621.101 204.2 621.073C204.295 621.071 204.39 621.066 204.485 621.063Z" fill="#295D32"/>
<path d="M318.42 551.874C318.211 556.766 317.945 561.011 321.42 564.985C321.889 565.521 322.402 566.021 322.913 566.516C324.251 566.157 325.651 565.671 327.024 565.503C323.944 570.272 321.256 575.317 317.996 579.968C308.556 593.433 295.799 604.447 281.761 612.881C282.642 605.979 283.267 598.907 283.271 591.947C283.278 579.309 280.761 571.573 285.995 559.213C288.41 563.409 290.927 568.012 296.004 569.326C299.511 570.233 303.111 569.157 306.098 567.265C311.469 563.862 315.623 557.443 318.42 551.874Z" fill="#295D32"/>
<path d="M349.829 566.847L354.193 568.071C353.978 569.227 353.662 570.266 353.248 571.366C354.565 575.045 355.611 578.358 359.467 580.066C362.763 581.526 366.256 581.357 369.696 582.028C363.294 584.699 343.316 588.921 336.117 589.878C339.437 581.693 343.38 573.037 349.829 566.847Z" fill="#295D32"/>
<path d="M285.056 538.112C286.064 538.525 286.915 538.836 287.695 539.614C287.008 542.029 284.442 545.355 282.972 547.469C273.966 565.061 275.354 575.968 275.554 594.789C275.47 606.074 274.316 616.449 269.695 626.875C268.855 628.768 267.983 631 266.817 632.693C266.117 634.055 265.534 634.996 265.689 636.564L266.107 636.881C268.451 635.889 271.695 631.616 273.75 629.783C276.088 627.732 278.489 625.753 280.949 623.851C287.387 618.8 294.459 614.595 301.038 609.737C308.126 604.503 314.021 598.491 319.451 591.577C328.128 580.525 333.572 567.651 343.938 557.822L344.839 560.705C334.578 570.696 330.293 584.373 322.591 596.132C319.242 601.246 314.892 604.938 310.853 609.409C310.962 609.456 311.068 609.514 311.182 609.548C312.814 610.046 319.341 605.84 321.018 604.986L321.618 605.209C324.417 604.041 330.756 602.13 333.79 602.876C333.679 603.467 333.64 603.288 333.768 603.786C333.795 603.887 333.83 603.987 333.862 604.087C294.63 615.097 262.224 650.96 242.826 685.45C237.157 695.529 232.94 706.027 229.61 717.084C228.853 719.275 228.158 721.486 227.525 723.716C231.324 716.57 235.895 709.862 241.157 703.713C246.535 697.418 252.41 691.782 259.254 687.075C277.07 674.822 319.11 658.08 340.563 653.479C354.6 650.468 371.142 649.151 385.543 648.022C394.762 646.253 404.349 645.694 413.453 643.519C410.324 645.007 406.554 646.996 403.229 647.854C390.876 652.982 377.54 656.024 364.276 657.587C356.52 658.501 348.523 658.911 340.885 660.546C333.838 662.053 327.231 664.459 320.602 667.215C315.817 669.62 310.811 671.561 306.057 674.038C274.545 690.458 248.56 710.62 236.86 745.57C227.79 772.663 230.889 805.184 243.729 830.636C252.215 847.458 263.698 860.763 277.85 873.057C288.776 882.549 300.023 891.33 309.644 902.23C315.555 908.926 320.252 916.299 324.246 924.269C328.288 932.336 331.593 941.29 337.685 948.091C342.143 953.067 347.902 956.497 354.227 958.554C363.846 961.682 372.76 963.272 380.91 969.828C384.546 972.753 387.702 976.248 391.404 979.09C384.927 977.725 378.919 974.981 372.499 973.434C351.318 968.332 338.128 968.493 324.92 948.361C320.794 942.072 317.187 935.024 313.89 928.263C312.058 924.505 310.378 920.631 308.289 917.008C304.252 910.009 294.411 895.453 286.622 893.123C296.131 903.333 303.406 916.467 307.887 929.641C311.995 941.717 312.716 955.118 322.088 964.699C328.608 971.364 336.049 973.886 343.31 978.958C344.593 979.393 346.014 980.491 347.201 981.191C330.009 981.65 309.856 983.567 294.707 973.862C285.742 968.119 279.99 956.846 277.761 946.702C276.159 940.666 275.381 934.698 272.341 929.151C272.726 934.401 273.429 939.689 274.029 944.921C274.765 952.076 274.065 959.281 269.381 965.055C261.816 974.381 245.334 978.611 233.95 979.706C229.902 980.095 225.828 980.129 221.774 980.416C224.388 979.396 232.845 975.04 233.938 972.57C233.987 972.461 234.004 972.341 234.038 972.225C230.032 973.908 225.657 974.779 221.457 975.853C212.924 978.035 204.689 980.463 195.812 980.717C202.031 976.293 207.915 972.466 215.27 970.154C220.551 968.494 225.917 967.543 230.836 964.877C237.378 961.363 242.229 955.363 244.296 948.23C245.734 943.302 245.744 938.188 245.141 933.125C242.852 913.913 230.515 901.122 219.31 886.564C213.687 879.257 208.399 871.738 203.949 863.65C175.162 811.327 182.044 752.724 208.391 700.977C210.538 696.711 212.835 692.523 215.278 688.419C221.427 678.289 228.156 668.901 230.042 656.889C231.004 650.771 231.045 644.091 229.3 638.106C227.951 633.482 225.562 629.225 223.435 624.925C217.529 612.989 216.943 602.732 220.658 589.938C221.044 588.214 221.433 586.473 222.547 585.061C223.326 584.923 223.841 585.299 224.5 585.655C224.629 585.852 224.87 586.01 224.887 586.245C225.003 587.902 223.766 591.664 223.433 593.504C223.113 595.269 223.259 597.075 222.969 598.802C222.949 598.925 222.89 599.037 222.85 599.154C222.697 602.924 222.586 606.565 223.28 610.299C225.626 622.905 235.583 631.88 236.907 644.904C237.57 651.416 235.744 657.055 235.249 663.41L235.216 663.864C240.946 658.64 245.801 651.359 250.254 645.039C263.581 626.122 266.559 614.161 267.383 591.403C267.75 581.283 268.538 571.954 271.579 562.21C274.306 553.31 278.901 545.095 285.056 538.112Z" fill="#9D5D22"/>
<path d="M225.556 805.113C224.762 803.936 224.614 801.013 224.416 799.49C222.689 786.92 222.78 774.167 224.688 761.623C228.783 735.213 241.925 709.577 263.802 693.644C279.407 682.278 293.482 675.372 311.472 668.749C313.255 668.092 317.965 665.861 319.746 666.282C320.279 666.407 320.337 666.782 320.602 667.215C315.817 669.62 310.811 671.561 306.057 674.039C274.545 690.458 248.56 710.62 236.86 745.571C227.79 772.664 230.889 805.185 243.729 830.636C252.215 847.459 263.697 860.763 277.85 873.057C288.776 882.549 300.023 891.33 309.644 902.23C315.555 908.926 320.252 916.299 324.246 924.27C328.288 932.336 331.593 941.29 337.685 948.091C342.143 953.067 347.902 956.497 354.227 958.554C363.846 961.682 372.76 963.272 380.91 969.828C384.546 972.754 387.702 976.248 391.404 979.09C384.927 977.725 378.919 974.982 372.499 973.435C351.318 968.332 338.128 968.493 324.92 948.361C320.794 942.073 317.187 935.024 313.89 928.263C312.058 924.506 310.378 920.631 308.289 917.008C304.252 910.009 294.411 895.453 286.622 893.123C282.949 890.301 280.392 885.153 277.51 881.483C276.559 880.272 275.435 879.222 274.474 878.013C274.462 877.811 274.464 877.608 274.438 877.407C274.052 874.477 261.556 863.693 258.806 860.864C249.394 851.182 241.387 840.878 235.212 828.84C232.848 824.231 230.618 819.415 229.027 814.478C228.127 811.688 227.61 808.75 226.524 806.026C226.338 805.56 225.952 805.405 225.556 805.113Z" fill="#76491D"/>
<path d="M321.018 604.986L321.618 605.209C324.417 604.041 330.756 602.13 333.79 602.876C333.679 603.467 333.64 603.288 333.768 603.786C333.795 603.888 333.83 603.987 333.862 604.087C294.63 615.097 262.224 650.96 242.826 685.451C237.158 695.53 232.94 706.028 229.61 717.084C228.932 716.87 228.79 716.836 228.319 716.314C227.542 713.524 228.007 710.289 228.32 707.45C231.404 679.478 264.735 644.128 286.136 627.068C292.005 622.389 298.177 618.026 304.323 613.721C306.212 612.398 309.074 610.969 310.676 609.582C310.739 609.528 310.794 609.467 310.853 609.409C310.962 609.456 311.068 609.514 311.182 609.549C312.814 610.046 319.341 605.84 321.018 604.986Z" fill="#76491D"/>
<path d="M274.029 944.921C274.765 952.076 274.066 959.281 269.381 965.055C261.816 974.381 245.334 978.611 233.95 979.706C229.902 980.095 225.828 980.129 221.774 980.416C224.388 979.396 232.846 975.04 233.938 972.571C233.987 972.461 234.004 972.341 234.038 972.225C236.636 969.973 240.506 968.678 243.361 966.62C244.849 966.828 246.091 966.564 247.544 966.287L247.986 966.559C255.513 965.533 261.589 962.757 266.631 956.99C269.492 953.719 270.235 946.919 274.029 944.921Z" fill="#76491D"/>
<path d="M277.761 946.702C281.393 948.321 284.411 955.196 287.01 958.37C290.122 962.173 294.007 965.918 298.257 968.432C307.379 973.828 318.727 975.58 329.098 976.71C333.571 977.198 337.853 977.311 342.147 978.836C342.582 978.991 342.854 979.015 343.31 978.958C344.592 979.393 346.014 980.491 347.2 981.191C330.009 981.65 309.856 983.567 294.707 973.863C285.742 968.119 279.989 956.846 277.761 946.702Z" fill="#76491D"/>
<path d="M243.361 966.62C247.137 963.525 250.602 961.582 253.009 957.123C259.596 944.916 254.532 922.952 249.726 910.758C248.088 906.601 245.428 902.61 244.171 898.348C244.139 898.239 244.111 898.13 244.081 898.021C247.969 902.661 251.572 907.503 254.352 912.9C260.265 924.383 263.127 939.341 259.096 951.884C257.067 958.193 253.477 963.197 247.544 966.287C246.091 966.564 244.849 966.828 243.361 966.62Z" fill="#0D0E0D"/>
<path d="M225.556 805.113C225.952 805.406 226.338 805.56 226.524 806.026C227.61 808.75 228.127 811.688 229.027 814.478C230.618 819.415 232.848 824.231 235.212 828.84C241.387 840.878 249.394 851.182 258.806 860.864C261.556 863.693 274.052 874.477 274.438 877.407C274.464 877.608 274.462 877.811 274.474 878.013C270.164 874.126 265.188 870.907 260.773 867.108C249.533 857.435 238.719 845.531 232.754 831.804C230.892 827.516 229.649 822.974 228.411 818.475C227.205 814.092 225.911 809.662 225.556 805.113Z" fill="#0D0E0D"/>
<path d="M266.817 632.694C265.969 630.348 270.878 612.87 271.467 608.387C271.987 604.431 271.444 598.858 273.225 595.273C273.625 594.467 273.845 594.429 274.636 594.196L275.554 594.789C275.47 606.075 274.316 616.45 269.695 626.875C268.855 628.769 267.983 631 266.817 632.694Z" fill="#76491D"/>
<path d="M285.056 538.112C286.064 538.525 286.915 538.836 287.695 539.614C287.008 542.029 284.442 545.355 282.972 547.469C282.737 547.564 282.469 547.602 282.266 547.754C281.369 548.427 274.435 561.213 272.493 563.663C272.476 563.146 272.474 562.901 272.258 562.419L271.579 562.21C274.306 553.31 278.901 545.095 285.056 538.112Z" fill="#76491D"/>
<path d="M220.658 589.939C221.044 588.214 221.433 586.474 222.547 585.062C223.326 584.923 223.841 585.299 224.5 585.655C224.629 585.852 224.87 586.01 224.886 586.245C225.003 587.902 223.766 591.664 223.433 593.505C223.113 595.269 223.259 597.076 222.969 598.803C222.949 598.925 222.89 599.037 222.85 599.154C222.193 599.369 222.048 599.732 221.613 600.25C220.049 598.738 221.002 592.746 220.742 590.574C220.717 590.362 220.685 590.15 220.658 589.939Z" fill="#76491D"/>
<path d="M210.589 713.254C211.17 714.932 205.234 734.249 204.39 737.652C201.575 749.022 200.475 760.645 199.902 772.319C198.434 802.244 203.918 828.331 217.887 854.915C221.439 861.675 225.52 868.171 229.451 874.714C228.353 873.942 227.316 873.07 226.266 872.235C213.478 858.445 204.921 838.518 199.908 820.589C197.547 812.144 195.845 803.243 195.156 794.499C193.144 768.976 197.917 735.775 210.589 713.254Z" fill="#0D0E0D"/>
<path d="M218.078 825.038C220.726 829.079 222.539 834.243 224.6 838.656C228.302 846.585 232.526 854.221 237.691 861.301C243.186 868.833 249.515 875.454 255.949 882.176C278.671 905.916 291.903 919.725 296.956 953.924C294.979 952.164 292.765 944.487 291.734 941.823C288.285 932.908 284.223 924.166 278.782 916.279C272.972 907.859 266.114 900.409 259.237 892.865C243.693 875.814 230.83 861.349 222.388 839.532C220.663 835.077 218.381 829.815 218.078 825.038Z" fill="#0D0E0D"/>
<path d="M258.309 645.817C258.319 647.403 251.748 655.757 250.445 657.681C243.572 667.831 236.355 677.866 230.467 688.635C227.72 693.675 225.096 698.781 222.599 703.951C220.658 707.931 218.837 712.111 216.456 715.85C216.341 715.457 216.268 715.108 216.274 714.695C216.329 711.114 218.391 706.825 219.769 703.541C226.714 686.99 235.831 673.698 246.877 659.683C250.576 654.99 254.202 650.164 258.309 645.817Z" fill="#0D0E0D"/>
<path d="M220.709 735.668L220.894 735.845C221.113 736.663 217.273 753.805 216.885 756.788C215.679 766.063 215.518 775.646 215.827 784.982C215.976 789.493 216.947 794.827 216.342 799.245L215.979 799.237L215.165 797.72C214.389 795.474 213.754 793.253 213.3 790.917C210.573 776.885 212.575 747.729 220.709 735.668Z" fill="#0D0E0D"/>
<path d="M403.726 588.527C415.247 594.166 425.72 594.305 438.176 591.801C441.579 595.531 444.667 597.326 449.804 597.576C457.558 597.952 463.785 594.856 471.13 593.385C473.485 596.959 477.491 598.932 481.584 599.795C486.656 600.865 492.304 600.756 497.312 599.444C492.995 603.628 488.659 605.547 483.155 607.833C495.982 613.408 506.698 613.46 520.456 612.976C512.438 618.691 502.722 620.964 493.304 623.193C490.813 623.783 487.781 623.972 485.495 625.053L485.332 625.623C485.506 626.002 485.655 626.191 486.01 626.418C490.549 629.305 495.322 631.601 499.26 635.38C501.576 637.602 503.738 640.135 503.7 643.535C503.606 652.066 487.479 655.205 481.023 656.07C478.578 656.397 467.001 656.582 465.845 657.699C465.98 660.148 470.151 663.085 471.75 665.114C473.51 667.348 475.517 670.573 475.064 673.524C474.766 675.465 473.275 676.935 471.754 678.038C461.583 685.406 443.761 684.615 431.843 682.773C427.985 682.176 424.249 680.973 420.4 680.383C419.381 680.227 418.403 679.974 417.553 680.603C417.03 683.02 422.916 689.103 422.639 694.195C422.534 696.136 421.728 697.793 420.231 699.036C414.084 704.139 401.716 699.615 395.431 696.54C393.511 695.6 388.822 692.233 386.737 692.395C385.916 692.459 385.808 692.598 385.34 693.196C384.95 696.264 387.491 699.664 388.383 702.587C388.846 704.101 389.008 705.98 388.172 707.401C387.326 708.841 385.824 709.583 384.235 709.904C374.339 711.901 361.93 705.252 354.365 699.529C351.552 697.401 348.427 694.136 345.292 692.597C344.544 692.229 344.223 692.515 343.511 692.806C342.407 694.798 345.324 699.822 345.92 702.009C346.844 705.407 346.779 708.186 345.013 711.255L344.782 711.65C344.195 711.659 343.608 711.641 343.024 711.595C334.154 710.851 325.301 705.591 319.328 699.178C317.618 697.341 316.274 695.104 314.537 693.33C313.88 692.658 313.548 692.447 312.618 692.42C309.7 695.076 312.435 705.321 310.391 709.455C310.095 710.055 309.712 710.424 309.072 710.593C306.197 711.352 301.649 709.328 299.15 707.867C294.717 705.273 290.408 700.494 289.125 695.45C289.201 694.972 289.292 694.567 289.567 694.158C293.029 689.019 320.957 674.714 327.716 673.194C330.831 674.514 333.203 676.666 335.836 678.723C340.115 682.067 345.029 684.914 350.381 686.066C360.398 688.223 368.095 685.348 376.416 679.993C374.335 680.581 372.335 681.028 370.17 681.093C359.272 681.416 348.042 677.032 340.085 669.616C349.13 665.857 360.112 666.687 369.705 665.309C381.808 663.493 393.694 660.445 405.178 656.213C409.651 659.533 414.212 662.168 419.696 663.396C430.684 665.857 441.708 662.469 451.044 656.63C449.419 657.099 447.763 657.457 446.089 657.7C436.341 659.023 424.414 658.134 416.329 651.953C418.868 650.289 421.358 648.545 423.878 646.851C433.386 646.411 442.354 645.287 450.583 640.075C454.419 637.645 458.019 634.859 461.872 632.432C448.584 636.609 427.168 640.803 413.951 635.713C420.015 629.165 427.517 624.772 435.255 620.518C433.814 620.537 432.375 620.608 430.939 620.732C421.897 621.442 411.774 625.576 404.936 631.564C402.82 633.417 401.028 635.62 399.212 637.76C392.506 639.012 373.874 642.171 368.085 641.382C367.325 641.278 367.275 641.213 366.849 640.624C366.329 637.636 367.302 634.447 367.93 631.52C361.833 635.634 351.761 642.173 344.467 642.814C343.1 642.934 341.894 642.77 340.835 641.839C338.033 639.378 337.955 634.728 337.614 631.31C333.611 636.125 331.009 641.494 326.046 645.586C316.248 653.666 298.581 658.239 286.713 663.266C276.127 667.816 265.834 673.024 255.897 678.858C256.183 678.264 256.479 677.686 256.813 677.118C260.796 670.351 266.195 664.164 271.434 658.347C285.79 642.406 304.792 624.626 324.602 615.839C333.525 611.88 343.508 610.803 352.855 608.1C362.658 605.264 372.22 601.277 382.086 598.765C384.518 602.69 388.512 605.867 392.593 607.937C402.85 613.141 414.029 610.104 424.348 606.721C414.348 607.627 403.276 605.445 395.428 598.829C394.234 597.823 392.501 596.474 392.369 594.87C395.29 592.401 400.232 590.362 403.726 588.527Z" fill="#295D32"/>
<path d="M231.039 580.594C232.881 580.337 234.57 580.039 236.23 579.136C240.792 576.656 242.721 571.899 244.172 567.212C244.655 569.904 245.066 572.46 246.283 574.938C248.427 576.199 250.544 577.589 253.117 577.651C256.283 577.727 258.548 575.411 260.667 573.385C260.088 579.527 260.055 585.597 259.87 591.756C259.269 611.818 255.937 622.002 244.529 638.53C238.778 622.44 224.928 609.824 232.274 591.405C236.149 588.747 240.226 587.685 243.613 584.154C239.574 583.202 234.43 583.197 231.039 580.594Z" fill="#295D32"/>
<path d="M389.032 584.502C392.002 583.005 395.524 582.385 398.745 581.61C394.857 583.92 387.721 588.73 383.474 589.533C377.906 592 372.12 593.744 366.309 595.525C355.548 598.823 344.838 601.594 333.862 604.087C333.83 603.987 333.795 603.888 333.768 603.786C333.64 603.288 333.679 603.467 333.79 602.876C330.756 602.13 324.417 604.041 321.618 605.209L321.018 604.986C333.941 596.592 343.908 596.334 358.39 593.038C368.892 590.649 378.865 588.071 389.032 584.502Z" fill="#9D5D22"/>
<path d="M389.032 584.502C392.002 583.005 395.524 582.385 398.745 581.61C394.857 583.92 387.721 588.73 383.474 589.533C383.508 589.303 383.643 589.099 383.741 588.887C384.564 588.62 385.06 588.479 385.695 587.856C385.118 587.422 383.944 587.894 383.192 587.94C384.718 586.62 387.364 586.095 389.174 584.931L389.032 584.502Z" fill="#76491D"/>
<path d="M533.032 822.451C533.843 822.557 534.704 822.853 535.385 823.31C537.038 824.42 538.463 826.366 539.808 827.834C543.067 831.391 546.853 834.898 551.193 837.095C566.92 845.059 582.022 840.832 598.376 851.625C605.608 856.398 610.868 862.805 616.414 869.321C618.659 871.958 620.898 874.819 623.594 877.007C623.692 877.086 623.792 877.162 623.891 877.24C627.602 877.208 633.053 874.867 636.477 875.991C637.383 876.288 638.226 877.424 638.418 878.344C638.573 879.09 638.292 879.769 637.804 880.321C635.135 883.342 627.139 883.443 623.504 883.552C622.707 884.448 621.97 885.412 621.21 886.342C618.922 888.781 616.249 890.813 613.487 892.686C601.801 900.608 588.822 903.396 574.93 900.704C560.876 897.981 549.162 890.262 541.208 878.351C533.013 866.078 530.32 851.539 529.75 837.039C529.62 833.744 529.213 830 529.943 826.751C530.417 824.639 531.192 823.556 533.032 822.451Z" fill="#0D0E0D"/>
<path d="M537.121 834.807C540.767 837.69 543.574 841.066 547.715 843.431C554.214 847.143 561.192 848.73 568.508 849.824C573.615 850.587 578.735 851.198 583.672 852.781C596.315 856.835 606.557 867.904 614.913 877.845C604.069 877.905 593.336 875.584 582.94 872.715C578.735 867.542 575.301 861.737 570.971 856.641C572.423 861.758 575.488 866.556 577.804 871.34C566.918 866.919 557.47 859.855 548.111 852.9C550.4 857.909 554.303 861.525 558.439 865.021C561.431 867.43 564.589 869.626 567.888 871.594C569.836 872.757 578.22 876.408 578.946 877.727C578.783 878.044 578.793 878.078 578.489 878.364C575.614 881.068 559.088 881.44 554.333 881.534C555.301 881.954 556.276 882.372 557.269 882.728C565.395 885.647 578.182 883.37 585.841 879.709C594.706 881.466 603.185 883.45 612.249 884.081C603.891 889.762 594.896 893.81 584.628 893.886C573.041 893.939 561.907 889.394 553.665 881.249C541.667 869.352 537.173 851.22 537.121 834.807Z" fill="#79A92D"/>
<path d="M490.364 707.806C509.1 705.988 519.724 719.162 535.181 726.331C538.457 727.85 543.353 727.693 545.996 729.208C546.543 729.522 546.761 729.816 546.819 730.465C546.991 732.417 545.129 734.503 543.858 735.754C541.166 738.405 538.05 740.791 535.111 743.165C521.216 754.385 506.525 761.662 488.377 761.651C475.042 761.674 463.379 755.942 453.319 747.59C448.946 748.623 446.183 751.212 442.205 752.897C441.204 753.32 439.896 753.765 438.859 753.21C438.214 752.865 437.768 752.334 437.652 751.602C437.46 750.374 437.896 749.058 438.589 748.053C440.836 744.792 444.912 743.36 447.358 740.302C450.302 736.621 451.94 732 454.956 728.233C463.773 717.219 476.221 709.326 490.364 707.806Z" fill="#0D0E0D"/>
<path d="M486.479 716.597C491.244 715.433 496.087 715.331 500.847 716.545C509.173 718.24 516.663 724.593 523.76 729.027C526.979 731.038 530.228 732.742 533.703 734.268C524.215 742.792 512.177 750.266 499.504 752.456C484.869 754.986 472.037 751.799 460.008 743.301C465.964 740.737 472.312 739.201 478.782 738.759C484.185 741.875 488.173 746.036 494.273 748.04C490.842 744.592 486.51 741.271 483.967 737.108C490.376 736.644 496.776 736.581 503.197 736.477C507.477 736.407 512.257 736.58 516.458 735.75C517.444 735.555 518.223 735.309 518.989 734.633L518.802 734.204C516.58 733.604 514.121 733.783 511.831 733.534C502.867 732.557 495.484 731.289 486.302 731.448C488.793 729.197 491.128 726.756 493.504 724.385C491.622 725.214 489.711 726.038 487.921 727.051C485.351 728.505 482.816 730.496 480.011 731.435C476.822 732.504 473.206 732.706 469.891 733.307C466.019 734.01 462.254 735.049 458.486 736.169C465.997 727.109 474.625 719.091 486.479 716.597Z" fill="#79A92D"/>
<path d="M702.027 607.844C702.534 607.851 702.972 607.866 703.443 608.092C704.434 608.567 704.979 609.612 705.31 610.608C705.941 612.505 705.949 614.749 705.988 616.732C706.212 628.029 703.216 640.375 697.91 650.345C692.009 661.433 682.654 670.519 670.432 674.15C659.793 677.311 650.178 676.233 640.521 670.964C636.44 672.42 632.891 675.069 628.748 676.515C628.128 676.683 627.504 676.845 626.87 676.948C625.298 677.203 622.993 677.478 621.713 676.327C620.989 675.677 620.5 674.57 620.623 673.592C621.141 669.487 632.548 667.904 636.054 664.632C636.133 664.559 636.209 664.484 636.286 664.409C636.215 661.458 636.135 658.473 636.435 655.532C638.099 639.246 651.175 628.312 665.986 623.663C673.593 621.275 681.625 620.202 688.947 616.935C693.856 614.745 697.891 611.2 702.027 607.844Z" fill="#0D0E0D"/>
<path d="M698.063 620.298L698.304 620.729C697.976 626.433 696.273 632.823 694.37 638.2C690.355 649.542 683.576 659.229 672.498 664.485C664.442 668.307 655.512 669.029 647.091 666.034C656.522 659.975 684.42 642.829 689.317 634.594L689.204 634.327C687.049 635.114 685.06 636.879 683.198 638.216C676.887 642.112 670.34 645.363 663.667 648.579C664.758 643.842 666.282 640.157 668.496 635.882C663.634 640.036 661.186 645.54 659.154 651.486C654.557 655.11 648.789 658.122 643.597 660.827C643.612 658.362 643.686 655.945 644.204 653.529C646.843 641.223 657.263 634.598 668.572 631.113C674.384 629.322 680.404 628.263 686.16 626.269C690.488 624.769 694.224 622.785 698.063 620.298Z" fill="#79A92D"/>
<path d="M645.643 505.517C646.271 505.56 646.926 505.585 647.526 505.797C648.368 506.093 648.873 506.678 649.227 507.478C650.777 510.975 646.088 522.679 644.582 526.492C638.525 541.825 629.871 557.077 613.972 563.847C603.215 568.428 592.503 567.064 581.971 562.803C578.787 564.48 576.317 567.218 573.168 568.996C572.563 569.213 571.973 569.413 571.345 569.554C569.769 569.908 568.494 569.882 567.163 568.848C566.571 568.387 566.124 567.837 566.078 567.059C565.772 561.916 575.457 559.473 577.628 555.868C578.406 554.576 577.51 546.073 577.926 543.512C578.742 538.505 581.278 533.482 584.44 529.558C595.818 515.438 612.196 513.673 628.536 509.718C634.174 508.354 639.872 506.147 645.643 505.517Z" fill="#0D0E0D"/>
<path d="M639.708 513.67C639.909 516.246 636.573 524.239 635.502 527.063C631.012 538.895 622.717 551.304 610.778 556.573C603.59 559.745 595.852 560.12 588.543 557.234C592.023 554.415 595.527 551.292 599.344 548.946C601.738 549.401 604.141 549.898 606.551 550.25C612.418 551.106 617.302 550.011 622.093 546.462C615.794 547.222 609.844 548.043 603.779 545.678C606.1 543.349 608.819 541.32 611.354 539.223L624.187 528.612C626.518 526.486 628.502 524.322 630.281 521.709C620.897 527.158 611.775 533.047 602.945 539.355C603.903 535.54 605.144 531.846 606.479 528.151C601.922 532.69 601.575 537.652 598.211 541.76C595.472 545.105 588.537 548.959 584.784 551.467C584.854 546.455 585.411 542.074 587.952 537.661C595.563 524.446 611.853 520.85 625.458 517.487C630.229 516.307 634.968 514.967 639.708 513.67Z" fill="#79A92D"/>
<path d="M324.273 744.091C328.865 743.528 333.794 744.167 338.132 745.73C344.414 747.994 350.245 752.475 353.089 758.636C355.195 763.2 355.553 768.504 353.717 773.229C352.016 777.605 348.148 781.71 343.847 783.599C340.049 785.266 335.457 785.603 331.575 784.003C328.794 782.857 325.988 780.337 324.848 777.518C323.885 775.139 324.34 771.911 325.415 769.637C325.906 768.6 326.46 768.221 327.511 767.834C329.958 768.404 329.605 773.674 332.225 775.399C333.885 776.492 335.904 776.518 337.783 776.075C340.394 775.459 342.868 773.836 344.256 771.508C345.658 769.158 345.428 766.142 344.674 763.618C343.564 759.899 341.459 756.968 337.995 755.107C333.028 752.386 327.176 751.769 321.75 753.396C315.885 755.154 311.108 758.866 308.202 764.282C304.869 770.494 304.646 777.843 306.701 784.506C310.066 795.421 318.993 803.29 328.871 808.377C352.064 820.322 385.104 820.373 410.318 816.097C420.529 814.28 430.6 811.75 440.458 808.527C458.993 802.492 476.648 793.617 495.351 788.26C489.57 793.098 482.667 796.347 476.037 799.854C451.69 812.732 427.675 822.583 400.143 826.033C372.807 829.458 336.115 827.325 313.683 809.723C304.332 802.386 297.494 792.517 296.145 780.506C295.142 771.567 297.218 762.495 302.904 755.41C308.436 748.515 315.604 745.084 324.273 744.091Z" fill="#0D0E0D"/>
<path d="M553.726 780.078C564.227 778.719 577.552 781.011 586.676 786.409C591.91 789.505 597.132 794.601 598.595 800.696C599.389 804.005 598.925 807.777 597.1 810.682C595.622 813.035 593.234 814.488 590.538 815.03C586.747 815.79 583.52 814.72 580.401 812.643C578.686 811.501 577.082 810.212 576.675 808.107C576.898 807.18 576.968 806.986 577.605 806.283C579.793 805.593 582.887 808.12 584.952 808.957C586.47 809.572 588.328 809.869 589.869 809.166C591.583 808.385 592.197 806.972 592.876 805.315C592.809 804.394 592.763 803.417 592.579 802.511C591.845 798.888 588.849 795.904 585.834 793.982C579.34 789.844 570.794 788.221 563.2 788.093C534.432 787.608 509.535 804.169 485.754 818.331C475.592 824.495 465.248 830.353 454.734 835.897C439.061 844.221 422.372 850.471 405.087 854.491C402.052 855.227 398.962 855.786 395.884 856.303C371.722 860.362 340.059 859.326 319.511 844.745C328.709 846.488 337.696 848.723 347.037 849.675C386.73 853.719 424.265 842.457 458.848 823.642C472.116 816.425 484.824 808.186 497.945 800.706C515.713 790.579 533.017 781.895 553.726 780.078Z" fill="#0D0E0D"/>
<path d="M687.444 765.462C688.3 765.412 689.288 765.387 690.047 765.845C691.294 766.597 691.764 768.107 691.958 769.465C693.231 778.377 685.885 795.478 680.427 802.568C674.559 810.189 665.991 815.683 656.363 816.901C649.753 817.737 644.927 815.969 639.769 811.932C637.539 812.624 635.326 813.379 633.106 814.104C631.072 814.619 629.295 814.923 627.247 814.281C626.115 813.926 624.966 813.299 624.493 812.145C624.117 811.232 624.275 810.325 624.619 809.438C625.576 806.966 632.993 807.456 635.495 806.298C638.677 804.825 637.74 800.387 639.076 796.895C645.057 781.26 662.261 776.459 676.243 770.748C680.074 769.184 683.66 767.126 687.444 765.462Z" fill="#0D0E0D"/>
<path d="M683.693 774.851L684.42 774.944C684.695 775.885 684.316 776.975 684.08 777.902C681.318 788.747 675.646 800.485 665.633 806.338C659.755 809.773 653.123 810.492 646.565 808.817C655.582 803.878 663.697 798.819 671.183 791.652C672.252 790.46 673.195 789.118 674.174 787.85C664.176 793.776 655.024 799.978 643.98 803.995C644.424 802.413 644.905 800.82 645.589 799.323C651.58 786.199 671.108 779.698 683.693 774.851Z" fill="#79A92D"/>
<path d="M613.579 723.26C619.797 722.478 626.858 723.348 632.626 725.796C636.47 727.427 639.494 729.516 641.118 733.503C639.457 738.611 635.278 742.732 631.334 746.201C622.784 753.72 614.799 757.549 603.319 756.793C600.668 756.494 598.139 755.871 595.59 755.096C592.327 754.104 576.958 748.503 575.322 746.527C575.13 745.294 575.584 744.44 576.31 743.485C578.249 740.932 581.17 738.812 583.709 736.895C592.641 730.154 602.312 724.61 613.579 723.26Z" fill="#0D0E0D"/>
<path d="M616.864 730.541C622.367 730.281 627.484 731.65 632.088 734.619C627.851 739.299 622.335 744.956 616.443 747.383C608.972 750.46 600.215 749.638 592.927 746.56C595.137 746.142 597.383 745.891 599.612 745.596C604.048 744.916 608.279 744.24 612.519 742.698C603.742 742.446 594.81 743.661 585.999 743.688C594.517 736.219 605.542 731.237 616.864 730.541Z" fill="#79A92D"/>
<path d="M467.292 859.598C474.637 858.933 481.923 860.489 489.226 860.916C493.23 861.15 497.886 860.452 501.735 861.576C501.928 861.873 502.125 862.136 502.229 862.485C502.737 864.171 501.548 866.111 500.72 867.482C493.933 878.717 483.571 886.915 470.78 890.038C459.546 892.455 452.232 889.33 442.15 885.156C440.419 884.439 438.204 884.138 436.653 883.115C435.907 882.623 435.582 882.017 435.447 881.142C435.275 880.028 435.731 878.933 436.438 878.089C444.873 868.024 453.901 861.046 467.292 859.598Z" fill="#0D0E0D"/>
<path d="M467.262 866.531C475.537 865.327 484.47 867.41 492.84 867.347C486.517 874.761 479.006 881.051 469.291 883.228C462.764 884.691 454.105 884.159 448.312 880.526L448.511 880.212C458.555 878.158 468.817 876.632 478.356 872.771C474.588 872.808 470.709 873.516 466.947 873.867C460.919 874.429 454.839 874.761 448.84 875.574C454.366 870.734 459.88 867.42 467.262 866.531Z" fill="#79A92D"/>
<path d="M584.368 606.164C586.228 605.947 588.305 605.651 589.907 606.852C590.8 607.521 591.28 608.46 591.43 609.555C592.122 614.632 586.63 622.605 583.649 626.402C576.486 635.526 566.468 641.543 554.933 642.961C552.977 643.016 550.775 643.285 548.897 642.689C548.196 642.111 547.78 641.62 547.602 640.714C546.855 636.89 551.931 629.674 554.026 626.669C561.408 616.08 571.508 608.43 584.368 606.164Z" fill="#0D0E0D"/>
<path d="M583.524 613.786L583.728 613.991C583.687 614.322 583.693 614.411 583.55 614.763C582.765 616.684 581.071 618.863 579.806 620.531C573.708 628.567 566.766 632.871 557.278 635.901L557.107 635.444C558.378 632.43 560.178 629.606 562.216 627.053C567.542 620.38 574.851 614.793 583.524 613.786Z" fill="#79A92D"/>
<path d="M541.385 673.411C547.364 673.542 553.711 674.591 558.76 678.01C561.24 679.689 563.495 682.167 563.962 685.228C564.295 687.411 563.538 689.507 562.192 691.208C558.923 695.341 551.96 697.686 546.878 698.208L546.501 698.261C540.269 699.085 532.926 697.571 527.944 693.596C525.789 691.877 524.109 689.512 523.829 686.711C523.562 684.037 524.623 681.45 526.351 679.446C530.126 675.067 535.898 673.789 541.385 673.411Z" fill="#0D0E0D"/>
<path d="M540.405 680.955C544.362 680.659 548.711 681.175 552.169 683.254C553.355 683.967 555.095 685.33 555.244 686.841C555.299 687.401 555.156 687.889 554.851 688.342C553.574 690.242 550.036 690.864 547.91 691.23C543.942 691.634 539.436 691.672 535.726 690.009C534.346 689.391 532.448 688.188 531.989 686.635C531.765 685.875 531.774 685.227 532.214 684.542C533.685 682.252 537.859 681.323 540.405 680.955Z" fill="#79A92D"/>
<path d="M278.453 760.882L279.075 761.166C280.012 764.051 278.411 768.779 278.364 771.895C278.335 776.671 278.947 781.429 280.182 786.042C284.41 801.919 296.316 815.588 310.777 823.153C315.373 825.557 320.605 826.924 325.052 829.543C325.153 829.602 325.253 829.664 325.353 829.725C323.818 829.93 322.28 830.027 320.735 830.132C308.528 829.375 296.155 822.826 287.386 814.515C278.431 806.026 272.921 794.728 272.606 782.311C272.435 775.596 273.57 765.978 278.453 760.882Z" fill="#0D0E0D"/>
<path d="M153.822 788.381C153.947 788.523 154.091 788.648 154.195 788.805C154.693 789.56 156.937 808.085 157.461 810.652C160.398 825.031 164.972 839.477 170.598 853.031C172.002 856.414 180.415 872.548 180.213 874.193L179.693 873.904C170.712 866.463 164.518 857.538 160.283 846.674C154.825 832.67 147.791 802.228 153.822 788.381Z" fill="#0D0E0D"/>
<path d="M476.553 922.462C481.006 922.864 484.645 925.541 488.671 927.255C497.21 930.889 506.621 932.546 515.884 932.565C518.801 932.57 529.713 931.174 531.616 932.671L531.647 933.314C530.868 934.518 529.611 935.131 528.416 935.869C525.068 937.622 521.585 938.917 517.867 939.634C506.543 941.824 494.812 939.436 485.244 932.994C481.52 930.468 477.424 927.098 476.553 922.462Z" fill="#0D0E0D"/>
<path d="M417.699 778.417C418.825 778.288 420.117 778.15 421.229 778.428C422.032 778.628 422.292 778.939 422.677 779.629C422.504 781.369 421.159 782.572 419.87 783.628C406.84 794.301 386.576 798.849 370.084 797.185C368.138 796.923 365.92 796.629 364.146 795.741C363.481 795.407 363.428 795.418 363.212 794.677C365.2 793.534 374.904 792.885 377.951 792.348C381.45 791.723 384.923 790.96 388.361 790.058C394.27 788.504 400.04 786.469 405.617 783.975C409.664 782.156 413.576 780.067 417.699 778.417Z" fill="#0D0E0D"/>
<path d="M145.054 855.461C148.749 856.564 151.872 863.107 154.052 866.16C158.815 872.83 164.033 879.45 170.115 884.976C174.139 888.632 181.476 892.928 184.41 897.133C183.636 897.127 182.883 897.076 182.117 896.964C170.709 895.304 159.849 886.597 153.219 877.558C148.962 871.752 143.893 862.957 145.054 855.461Z" fill="#0D0E0D"/>
<path d="M157.533 645.661C157.81 645.839 158.133 645.96 158.363 646.195C159.467 647.324 160.918 656.324 161.631 658.335C164.625 666.783 169.197 674.957 175.24 681.612C176.614 683.125 182.43 687.701 182.804 688.571C182.111 689.211 181.607 689.088 180.685 689.167C175.666 688.681 171.106 686.331 167.315 683.077C160.186 676.959 155.657 667.65 155.01 658.305C154.741 654.409 154.848 648.746 157.533 645.661Z" fill="#0D0E0D"/>
<path d="M347.432 872.95C350.815 872.649 357.562 875.47 361.267 876.217C367.754 877.525 374.126 878.612 380.746 878.981C384.518 879.19 395.023 877.956 397.569 879.142C398.052 879.367 397.899 879.335 398.06 879.921C397.444 880.968 396.279 881.454 395.249 882.026C391.662 883.715 387.506 884.612 383.582 885.056C373.536 886.196 358.289 883.681 350.31 877.113C348.856 875.917 347.642 874.888 347.432 872.95Z" fill="#0D0E0D"/>
<path d="M702.234 710.117C703.051 710.136 703.181 710.192 703.878 710.623C704.524 711.642 704.571 712.379 704.389 713.545C703.601 718.604 699.6 723.513 695.569 726.444C690.042 730.464 682.548 733.326 675.674 732.238C675.192 732.081 674.647 731.931 674.206 731.682C673.484 731.275 673.322 730.862 673.133 730.099C674.103 726.869 686.162 722.315 689.484 720.079C693.984 717.05 697.882 713.322 702.234 710.117Z" fill="#0D0E0D"/>
<path d="M666.513 580.278C667.069 580.199 667.635 580.176 668.196 580.154C669.91 580.086 671.648 580.283 672.915 581.551C673.513 582.149 673.891 582.825 673.867 583.691C673.857 584.079 673.834 584.152 673.626 584.491C673.089 585.369 672.195 585.754 671.264 586.092C668.884 586.955 666.201 587.333 663.732 587.902C659.762 588.791 655.884 590.047 652.146 591.654C646.771 593.985 641.765 596.965 637.354 600.829C635.871 602.208 634.377 603.574 632.873 604.928C633.66 602.478 634.54 600.44 636.011 598.327C642.55 588.924 655.427 582.218 666.513 580.278Z" fill="#0D0E0D"/>
<path d="M680.996 838.218C681.374 838.396 681.659 838.683 681.978 838.951C682.231 839.663 682.411 840.221 682.255 840.994C681.55 844.464 677.818 848.129 675.007 850.148C669.967 853.764 663.74 855.915 657.542 854.912C657.398 854.841 657.252 854.773 657.11 854.698C656.214 854.222 655.731 853.906 655.406 852.93C655.477 852.68 655.467 852.39 655.619 852.178C656.374 851.135 663.165 848.245 664.656 847.458C670.199 844.552 675.648 841.471 680.996 838.218Z" fill="#0D0E0D"/>
<path d="M144.242 686.632C144.716 686.726 145.144 686.833 145.555 687.102C148.048 688.733 150.342 691.835 152.499 693.962C155.369 696.793 158.383 699.381 161.523 701.903C162.294 702.522 164.397 703.842 164.596 704.728L163.877 705.433C158.314 705.854 153.731 704.293 149.536 700.681C146.529 698.092 143.205 694.02 143.009 689.925C142.939 688.454 143.273 687.723 144.242 686.632Z" fill="#0D0E0D"/>
</svg>
