<svg width="849" height="1183" viewBox="0 0 849 1183" fill="none" xmlns="http://www.w3.org/2000/svg">
<rect x="5" y="5" width="839" height="1173" rx="45" fill="white"/>
<rect x="5" y="5" width="839" height="1173" rx="45" stroke="black" stroke-width="10"/>
<circle cx="786.5" cy="1124.5" r="11.5" fill="black"/>
<circle cx="786.5" cy="59.5" r="11.5" fill="black"/>
<path d="M77 1124.5C77 1130.85 71.8513 1136 65.5 1136C59.1487 1136 54 1130.85 54 1124.5C54 1118.15 59.1487 1113 65.5 1113C71.8513 1113 77 1118.15 77 1124.5Z" fill="black"/>
<path d="M77 59.5C77 65.8513 71.8513 71 65.5 71C59.1487 71 54 65.8513 54 59.5C54 53.1487 59.1487 48 65.5 48C71.8513 48 77 53.1487 77 59.5Z" fill="black"/>
<mask id="path-6-inside-1_97_6" fill="white">
<path d="M708 48C713.523 48 717.934 52.4996 718.616 57.9801C723.122 94.1833 751.817 122.878 788.02 127.384C793.5 128.066 798 132.477 798 138V1046C798 1051.52 793.5 1055.93 788.02 1056.62C751.817 1061.12 723.122 1089.82 718.616 1126.02C717.934 1131.5 713.523 1136 708 1136H141C135.477 1136 131.066 1131.5 130.384 1126.02C125.878 1089.82 97.1833 1061.12 60.9801 1056.62C55.4996 1055.93 51 1051.52 51 1046V138C51 132.477 55.4996 128.066 60.9801 127.384C97.1833 122.878 125.878 94.1833 130.384 57.9801C131.066 52.4996 135.477 48 141 48H708Z"/>
</mask>
<path d="M708 48C713.523 48 717.934 52.4996 718.616 57.9801C723.122 94.1833 751.817 122.878 788.02 127.384C793.5 128.066 798 132.477 798 138V1046C798 1051.52 793.5 1055.93 788.02 1056.62C751.817 1061.12 723.122 1089.82 718.616 1126.02C717.934 1131.5 713.523 1136 708 1136H141C135.477 1136 131.066 1131.5 130.384 1126.02C125.878 1089.82 97.1833 1061.12 60.9801 1056.62C55.4996 1055.93 51 1051.52 51 1046V138C51 132.477 55.4996 128.066 60.9801 127.384C97.1833 122.878 125.878 94.1833 130.384 57.9801C131.066 52.4996 135.477 48 141 48H708Z" fill="#7047A3"/>
<path d="M130.384 1126.02L138.322 1125.03L130.384 1126.02ZM718.616 1126.02L710.678 1125.03L718.616 1126.02ZM788.02 1056.62L789.008 1064.56L788.02 1056.62ZM718.616 57.9801L726.555 56.9922L718.616 57.9801ZM718.616 57.9801L710.678 58.9681C715.635 98.8063 747.194 130.365 787.032 135.322L788.02 127.384L789.008 119.445C756.44 115.392 730.608 89.5603 726.555 56.9922L718.616 57.9801ZM798 138H790V1046H798H806V138H798ZM788.02 1056.62L787.032 1048.68C747.194 1053.64 715.635 1085.19 710.678 1125.03L718.616 1126.02L726.555 1127.01C730.608 1094.44 756.44 1068.61 789.008 1064.56L788.02 1056.62ZM708 1136V1128H141V1136V1144H708V1136ZM130.384 1126.02L138.322 1125.03C133.365 1085.19 101.806 1053.64 61.9681 1048.68L60.9801 1056.62L59.9922 1064.56C92.5603 1068.61 118.392 1094.44 122.445 1127.01L130.384 1126.02ZM51 1046H59V138H51H43V1046H51ZM60.9801 127.384L61.9681 135.322C101.806 130.365 133.365 98.8063 138.322 58.9681L130.384 57.9801L122.445 56.9922C118.392 89.5603 92.5603 115.392 59.9922 119.445L60.9801 127.384ZM141 48V56H708V48V40H141V48ZM130.384 57.9801L138.322 58.9681C138.438 58.0389 138.872 57.2306 139.427 56.6958C139.954 56.1887 140.494 56 141 56V48V40C130.84 40 123.547 48.1329 122.445 56.9922L130.384 57.9801ZM51 138H59C59 137.494 59.1887 136.954 59.6958 136.427C60.2306 135.872 61.0389 135.438 61.9681 135.322L60.9801 127.384L59.9922 119.445C51.1329 120.547 43 127.84 43 138H51ZM60.9801 1056.62L61.9681 1048.68C61.0389 1048.56 60.2306 1048.13 59.6958 1047.57C59.1887 1047.05 59 1046.51 59 1046H51H43C43 1056.16 51.1329 1063.45 59.9922 1064.56L60.9801 1056.62ZM141 1136V1128C140.494 1128 139.954 1127.81 139.427 1127.3C138.872 1126.77 138.438 1125.96 138.322 1125.03L130.384 1126.02L122.445 1127.01C123.547 1135.87 130.84 1144 141 1144V1136ZM718.616 1126.02L710.678 1125.03C710.562 1125.96 710.128 1126.77 709.573 1127.3C709.046 1127.81 708.506 1128 708 1128V1136V1144C718.16 1144 725.453 1135.87 726.555 1127.01L718.616 1126.02ZM798 1046H790C790 1046.51 789.811 1047.05 789.304 1047.57C788.769 1048.13 787.961 1048.56 787.032 1048.68L788.02 1056.62L789.008 1064.56C797.867 1063.45 806 1056.16 806 1046H798ZM788.02 127.384L787.032 135.322C787.961 135.438 788.769 135.872 789.304 136.427C789.811 136.954 790 137.494 790 138H798H806C806 127.84 797.867 120.547 789.008 119.445L788.02 127.384ZM718.616 57.9801L726.555 56.9922C725.453 48.1329 718.16 40 708 40V48V56C708.506 56 709.046 56.1887 709.573 56.6958C710.128 57.2306 710.562 58.0389 710.678 58.9681L718.616 57.9801Z" fill="black" mask="url(#path-6-inside-1_97_6)"/>
<path d="M690 102C695.523 102 699.911 106.512 700.837 111.957C705.019 136.563 724.437 155.981 749.043 160.163C754.488 161.089 759 165.477 759 171V1014C759 1019.52 754.488 1023.91 749.043 1024.84C724.711 1028.97 705.454 1048 700.984 1072.22C699.993 1077.59 695.633 1082 690.175 1082H158.825C153.367 1082 149.007 1077.59 148.016 1072.22C143.546 1048 124.288 1028.97 99.9568 1024.84C94.5121 1023.91 90 1019.52 90 1014V171C90 165.477 94.512 161.089 99.9568 160.163C124.563 155.981 143.981 136.563 148.163 111.957C149.089 106.512 153.477 102 159 102H690Z" fill="#B48FE1"/>
<path d="M400.685 366.52C400.685 369.523 399.977 372.357 398.56 375.02C397.143 377.683 394.877 379.865 391.76 381.565C388.643 383.208 384.648 384.03 379.775 384.03H369.065V408H359.375V348.925H379.775C384.308 348.925 388.133 349.718 391.25 351.305C394.423 352.835 396.775 354.932 398.305 357.595C399.892 360.258 400.685 363.233 400.685 366.52ZM379.775 376.125C383.458 376.125 386.207 375.303 388.02 373.66C389.833 371.96 390.74 369.58 390.74 366.52C390.74 360.06 387.085 356.83 379.775 356.83H369.065V376.125H379.775ZM452.852 383.435C452.852 385.192 452.738 386.778 452.512 388.195H416.727C417.01 391.935 418.398 394.938 420.892 397.205C423.385 399.472 426.445 400.605 430.072 400.605C435.285 400.605 438.968 398.423 441.122 394.06H451.577C450.16 398.367 447.582 401.908 443.842 404.685C440.158 407.405 435.568 408.765 430.072 408.765C425.595 408.765 421.572 407.773 418.002 405.79C414.488 403.75 411.712 400.917 409.672 397.29C407.688 393.607 406.697 389.357 406.697 384.54C406.697 379.723 407.66 375.502 409.587 371.875C411.57 368.192 414.318 365.358 417.832 363.375C421.402 361.392 425.482 360.4 430.072 360.4C434.492 360.4 438.43 361.363 441.887 363.29C445.343 365.217 448.035 367.937 449.962 371.45C451.888 374.907 452.852 378.902 452.852 383.435ZM442.737 380.375C442.68 376.805 441.405 373.943 438.912 371.79C436.418 369.637 433.33 368.56 429.647 368.56C426.303 368.56 423.442 369.637 421.062 371.79C418.682 373.887 417.265 376.748 416.812 380.375H442.737ZM470.973 400.095H492.223V408H459.753V400.095L481.088 369.07H459.753V361.165H492.223V369.07L470.973 400.095Z" fill="black"/>
<mask id="path-10-outside-2_97_6" maskUnits="userSpaceOnUse" x="414" y="1007" width="22" height="31" fill="black">
<rect fill="white" x="414" y="1007" width="22" height="31"/>
<path d="M433.2 1011.76H419.8V1019.72C420.36 1018.97 421.187 1018.35 422.28 1017.84C423.4 1017.33 424.587 1017.08 425.84 1017.08C428.08 1017.08 429.893 1017.56 431.28 1018.52C432.693 1019.48 433.693 1020.69 434.28 1022.16C434.893 1023.63 435.2 1025.17 435.2 1026.8C435.2 1028.77 434.813 1030.53 434.04 1032.08C433.293 1033.6 432.16 1034.8 430.64 1035.68C429.147 1036.56 427.307 1037 425.12 1037C422.213 1037 419.88 1036.28 418.12 1034.84C416.36 1033.4 415.307 1031.49 414.96 1029.12H419.4C419.693 1030.37 420.347 1031.37 421.36 1032.12C422.373 1032.84 423.64 1033.2 425.16 1033.2C427.053 1033.2 428.467 1032.63 429.4 1031.48C430.36 1030.33 430.84 1028.81 430.84 1026.92C430.84 1025 430.36 1023.53 429.4 1022.52C428.44 1021.48 427.027 1020.96 425.16 1020.96C423.853 1020.96 422.747 1021.29 421.84 1021.96C420.96 1022.6 420.32 1023.48 419.92 1024.6H415.6V1007.76H433.2V1011.76Z"/>
</mask>
<path d="M433.2 1011.76H419.8V1019.72C420.36 1018.97 421.187 1018.35 422.28 1017.84C423.4 1017.33 424.587 1017.08 425.84 1017.08C428.08 1017.08 429.893 1017.56 431.28 1018.52C432.693 1019.48 433.693 1020.69 434.28 1022.16C434.893 1023.63 435.2 1025.17 435.2 1026.8C435.2 1028.77 434.813 1030.53 434.04 1032.08C433.293 1033.6 432.16 1034.8 430.64 1035.68C429.147 1036.56 427.307 1037 425.12 1037C422.213 1037 419.88 1036.28 418.12 1034.84C416.36 1033.4 415.307 1031.49 414.96 1029.12H419.4C419.693 1030.37 420.347 1031.37 421.36 1032.12C422.373 1032.84 423.64 1033.2 425.16 1033.2C427.053 1033.2 428.467 1032.63 429.4 1031.48C430.36 1030.33 430.84 1028.81 430.84 1026.92C430.84 1025 430.36 1023.53 429.4 1022.52C428.44 1021.48 427.027 1020.96 425.16 1020.96C423.853 1020.96 422.747 1021.29 421.84 1021.96C420.96 1022.6 420.32 1023.48 419.92 1024.6H415.6V1007.76H433.2V1011.76Z" fill="black"/>
<path d="M433.2 1011.76V1012.06H433.5V1011.76H433.2ZM419.8 1011.76V1011.46H419.5V1011.76H419.8ZM419.8 1019.72H419.5V1020.62L420.04 1019.9L419.8 1019.72ZM422.28 1017.84L422.156 1017.57L422.154 1017.57L422.28 1017.84ZM431.28 1018.52L431.109 1018.77L431.111 1018.77L431.28 1018.52ZM434.28 1022.16L434.001 1022.27L434.003 1022.28L434.28 1022.16ZM434.04 1032.08L433.772 1031.95L433.771 1031.95L434.04 1032.08ZM430.64 1035.68L430.49 1035.42L430.488 1035.42L430.64 1035.68ZM418.12 1034.84L418.31 1034.61L418.12 1034.84ZM414.96 1029.12V1028.82H414.613L414.663 1029.16L414.96 1029.12ZM419.4 1029.12L419.692 1029.05L419.638 1028.82H419.4V1029.12ZM421.36 1032.12L421.182 1032.36L421.186 1032.36L421.36 1032.12ZM429.4 1031.48L429.17 1031.29L429.167 1031.29L429.4 1031.48ZM429.4 1022.52L429.18 1022.72L429.182 1022.73L429.4 1022.52ZM421.84 1021.96L422.016 1022.2L422.018 1022.2L421.84 1021.96ZM419.92 1024.6V1024.9H420.131L420.203 1024.7L419.92 1024.6ZM415.6 1024.6H415.3V1024.9H415.6V1024.6ZM415.6 1007.76V1007.46H415.3V1007.76H415.6ZM433.2 1007.76H433.5V1007.46H433.2V1007.76ZM433.2 1011.76V1011.46H419.8V1011.76V1012.06H433.2V1011.76ZM419.8 1011.76H419.5V1019.72H419.8H420.1V1011.76H419.8ZM419.8 1019.72L420.04 1019.9C420.563 1019.2 421.345 1018.6 422.406 1018.11L422.28 1017.84L422.154 1017.57C421.028 1018.09 420.157 1018.74 419.56 1019.54L419.8 1019.72ZM422.28 1017.84L422.404 1018.11C423.484 1017.62 424.628 1017.38 425.84 1017.38V1017.08V1016.78C424.545 1016.78 423.316 1017.04 422.156 1017.57L422.28 1017.84ZM425.84 1017.08V1017.38C428.039 1017.38 429.787 1017.85 431.109 1018.77L431.28 1018.52L431.451 1018.27C430 1017.27 428.121 1016.78 425.84 1016.78V1017.08ZM431.28 1018.52L431.111 1018.77C432.48 1019.7 433.439 1020.86 434.001 1022.27L434.28 1022.16L434.559 1022.05C433.948 1020.52 432.907 1019.26 431.449 1018.27L431.28 1018.52ZM434.28 1022.16L434.003 1022.28C434.601 1023.7 434.9 1025.21 434.9 1026.8H435.2H435.5C435.5 1025.13 435.186 1023.55 434.557 1022.04L434.28 1022.16ZM435.2 1026.8H434.9C434.9 1028.73 434.521 1030.45 433.772 1031.95L434.04 1032.08L434.308 1032.21C435.105 1030.62 435.5 1028.81 435.5 1026.8H435.2ZM434.04 1032.08L433.771 1031.95C433.051 1033.41 431.96 1034.57 430.49 1035.42L430.64 1035.68L430.79 1035.94C432.36 1035.03 433.535 1033.79 434.309 1032.21L434.04 1032.08ZM430.64 1035.68L430.488 1035.42C429.051 1036.27 427.267 1036.7 425.12 1036.7V1037V1037.3C427.346 1037.3 429.242 1036.85 430.792 1035.94L430.64 1035.68ZM425.12 1037V1036.7C422.263 1036.7 420.003 1035.99 418.31 1034.61L418.12 1034.84L417.93 1035.07C419.757 1036.57 422.164 1037.3 425.12 1037.3V1037ZM418.12 1034.84L418.31 1034.61C416.611 1033.22 415.593 1031.38 415.257 1029.08L414.96 1029.12L414.663 1029.16C415.02 1031.61 416.109 1033.58 417.93 1035.07L418.12 1034.84ZM414.96 1029.12V1029.42H419.4V1029.12V1028.82H414.96V1029.12ZM419.4 1029.12L419.108 1029.19C419.417 1030.51 420.11 1031.57 421.182 1032.36L421.36 1032.12L421.538 1031.88C420.583 1031.18 419.97 1030.24 419.692 1029.05L419.4 1029.12ZM421.36 1032.12L421.186 1032.36C422.261 1033.13 423.592 1033.5 425.16 1033.5V1033.2V1032.9C423.688 1032.9 422.486 1032.55 421.534 1031.88L421.36 1032.12ZM425.16 1033.2V1033.5C427.116 1033.5 428.627 1032.9 429.633 1031.67L429.4 1031.48L429.167 1031.29C428.306 1032.35 426.991 1032.9 425.16 1032.9V1033.2ZM429.4 1031.48L429.63 1031.67C430.646 1030.46 431.14 1028.86 431.14 1026.92H430.84H430.54C430.54 1028.76 430.074 1030.21 429.17 1031.29L429.4 1031.48ZM430.84 1026.92H431.14C431.14 1024.95 430.648 1023.4 429.618 1022.31L429.4 1022.52L429.182 1022.73C430.072 1023.67 430.54 1025.05 430.54 1026.92H430.84ZM429.4 1022.52L429.62 1022.32C428.587 1021.2 427.082 1020.66 425.16 1020.66V1020.96V1021.26C426.971 1021.26 428.293 1021.76 429.18 1022.72L429.4 1022.52ZM425.16 1020.96V1020.66C423.8 1020.66 422.628 1021.01 421.662 1021.72L421.84 1021.96L422.018 1022.2C422.865 1021.58 423.907 1021.26 425.16 1021.26V1020.96ZM421.84 1021.96L421.664 1021.72C420.73 1022.4 420.056 1023.33 419.637 1024.5L419.92 1024.6L420.203 1024.7C420.584 1023.63 421.19 1022.8 422.016 1022.2L421.84 1021.96ZM419.92 1024.6V1024.3H415.6V1024.6V1024.9H419.92V1024.6ZM415.6 1024.6H415.9V1007.76H415.6H415.3V1024.6H415.6ZM415.6 1007.76V1008.06H433.2V1007.76V1007.46H415.6V1007.76ZM433.2 1007.76H432.9V1011.76H433.2H433.5V1007.76H433.2Z" fill="black" mask="url(#path-10-outside-2_97_6)"/>
<path d="M369.07 197.975V214.355H339.46V227.375H361.3V243.02H339.46V272H318.88V197.975H369.07ZM388.132 207.635C384.492 207.635 381.552 206.655 379.312 204.695C377.142 202.665 376.057 200.145 376.057 197.135C376.057 194.055 377.142 191.5 379.312 189.47C381.552 187.44 384.492 186.425 388.132 186.425C391.702 186.425 394.572 187.44 396.742 189.47C398.982 191.5 400.102 194.055 400.102 197.135C400.102 200.145 398.982 202.665 396.742 204.695C394.572 206.655 391.702 207.635 388.132 207.635ZM398.317 213.095V272H377.737V213.095H398.317ZM435.132 272.735C429.812 272.735 425.052 271.86 420.852 270.11C416.722 268.29 413.432 265.84 410.982 262.76C408.602 259.61 407.272 256.075 406.992 252.155H426.942C427.222 254.045 428.097 255.515 429.567 256.565C431.037 257.615 432.857 258.14 435.027 258.14C436.707 258.14 438.037 257.79 439.017 257.09C439.997 256.39 440.487 255.48 440.487 254.36C440.487 252.89 439.682 251.805 438.072 251.105C436.462 250.405 433.802 249.635 430.092 248.795C425.892 247.955 422.392 247.01 419.592 245.96C416.792 244.91 414.342 243.195 412.242 240.815C410.212 238.435 409.197 235.215 409.197 231.155C409.197 227.655 410.142 224.505 412.032 221.705C413.922 218.835 416.687 216.56 420.327 214.88C424.037 213.2 428.482 212.36 433.662 212.36C441.362 212.36 447.417 214.25 451.827 218.03C456.237 221.81 458.792 226.78 459.492 232.94H440.907C440.557 231.05 439.717 229.615 438.387 228.635C437.127 227.585 435.412 227.06 433.242 227.06C431.562 227.06 430.267 227.375 429.357 228.005C428.517 228.635 428.097 229.51 428.097 230.63C428.097 232.03 428.902 233.115 430.512 233.885C432.122 234.585 434.712 235.32 438.282 236.09C442.552 237 446.087 238.015 448.887 239.135C451.757 240.255 454.242 242.075 456.342 244.595C458.512 247.045 459.597 250.405 459.597 254.675C459.597 258.105 458.582 261.185 456.552 263.915C454.592 266.645 451.757 268.815 448.047 270.425C444.407 271.965 440.102 272.735 435.132 272.735ZM508.46 212.57C515.18 212.57 520.5 214.845 524.42 219.395C528.41 223.875 530.405 229.965 530.405 237.665V272H509.825V240.395C509.825 237.035 508.95 234.41 507.2 232.52C505.45 230.56 503.105 229.58 500.165 229.58C497.085 229.58 494.67 230.56 492.92 232.52C491.17 234.41 490.295 237.035 490.295 240.395V272H469.715V194.3H490.295V221.495C492.115 218.835 494.565 216.7 497.645 215.09C500.795 213.41 504.4 212.57 508.46 212.57Z" fill="black"/>
<path d="M391.276 508.138C393.412 507.892 395.978 507.964 398.075 508.44C400.534 508.997 402.54 510.487 403.844 512.64C407.906 519.346 404.793 529.23 403.146 536.345C413.538 532.576 428.643 527.517 439.6 531.402C442.394 532.393 444.869 534.166 446.138 536.915C448.351 541.708 446.813 546.977 445.107 551.646C453.98 549.458 464.765 546.698 473.787 549.517C477.026 550.529 479.804 552.397 481.387 555.473C484.441 561.408 481.91 568.23 479.959 574.068C488.193 573.57 498.81 572.248 506.029 577.053C508.171 578.479 509.639 580.47 510.099 583.033C511.675 591.825 503.047 602.108 498.227 608.875C525.175 621.181 552.945 631.545 581.981 637.71C588.753 639.148 595.6 640.677 602.536 641.041C624.021 642.17 647.736 629.522 663.223 615.483C680.936 599.424 683.793 576.228 684.961 553.668C685.373 545.654 687.147 537.912 693.383 532.373C696.767 529.373 700.97 527.439 705.556 527.767C713.421 528.329 720.442 534.832 725.366 540.551C745.598 564.028 750.786 596.811 748.5 626.826C745.991 659.732 729.873 680.509 705.581 701.379C708.488 704.588 712.149 707.231 715.31 710.214C721.361 715.933 726.226 722.963 730.533 730.051C746.468 756.274 747.899 787.305 740.674 816.617C736.541 833.383 728.084 855.144 712.458 864.477C707.325 867.544 700.051 869.435 694.133 867.878C676.44 863.222 675.322 834.741 672.053 820.025C670.164 811.533 667.655 803.038 663.268 795.471C652.635 777.142 635.901 771.142 616.389 765.981C608.578 772.215 601.021 778.778 593.255 785.072C566.37 804.73 541.544 824.241 511.033 838.258C493.185 846.457 474.29 852.435 455.845 859.136C456.231 870.849 456.764 884.344 448.076 893.524C443.506 898.353 438.053 899.275 431.716 899.486C427.951 909.698 425.898 919.79 417.54 927.582C412.256 932.509 406.02 934.198 398.881 933.952C370.51 932.975 329.59 897.003 308.547 878.268C302.939 873.275 298.228 866.3 291.704 862.496C285.943 859.137 278.723 858.296 272.411 856.284C265.961 854.228 259.654 851.652 253.377 849.126C221.742 836.415 191.878 819.677 164.524 799.325C153.932 791.562 143.549 783.548 134.584 773.888C124.344 762.854 117.341 751.234 117.905 735.7C116.891 734.912 115.89 734.109 114.901 733.289C107.137 726.817 100.984 718.831 100.109 708.406C99.4342 700.376 101.966 692.693 105.924 685.812C119.046 662.998 159.346 631.822 182.431 617.807C193.088 611.372 204.195 605.715 215.667 600.88C229.282 595.003 243.213 589.347 257.233 584.499C263.197 582.437 274.274 580.58 279.081 577.737C285.001 574.236 290.215 564.098 294.801 558.66C312.434 537.752 364.219 510.398 391.276 508.138Z" fill="black"/>
<path d="M335.003 594.805C335.494 594.453 336.111 593.929 336.674 593.715C337.768 593.3 338.568 593.898 339.529 594.345C354.318 593.926 368.805 595.033 383.541 595.955C383.296 596.602 383.008 597.33 383.04 598.032C383.201 601.642 386.624 608.84 387.224 613.653C387.703 617.5 387.25 621.739 386.158 625.448C384.449 631.256 380.927 636.475 376.497 640.569C375.389 641.593 373.67 642.582 372.838 643.811C372.194 644.764 371.886 646.101 372.143 647.216C373.027 647.912 373.422 648.009 374.611 647.927C378.265 647.676 382.073 644.696 384.252 641.934C387.664 637.611 389.214 631.714 392.04 628.221C392.608 627.519 393.06 627.087 393.979 626.978C397.614 626.547 403.235 629.731 405.903 632.051C410.56 636.1 413.354 642.276 413.734 648.396C414.188 655.702 411.631 663.816 406.748 669.307C403.766 672.656 399.989 675.2 395.764 676.705C392.727 677.777 380.267 677.966 380.594 682.665C380.657 683.569 380.934 684.211 381.662 684.769C383.159 685.918 387.912 685.694 389.934 686.184C398.2 688.188 408.337 695.36 410.342 704.088C411.683 709.922 410.009 716.491 406.807 721.436C402.007 728.849 394.135 733.472 385.77 735.768C383.351 736.431 380.316 736.859 378.169 738.17C376.905 738.941 376.4 739.833 376.725 741.319C376.883 742.042 377.698 742.759 378.309 743.113C380.558 744.412 383.467 744.568 385.952 745.238C392.856 747.1 399.571 752.566 401.637 759.561C403.07 764.417 402.381 769.418 399.934 773.813C395.751 781.326 386.95 787.588 378.736 789.832C377.291 790.226 375.822 790.568 374.319 790.576C371.044 790.595 361.636 788.407 359.841 791.432C359.292 792.356 359.155 793.668 359.561 794.67C360.152 796.131 362.551 796.933 363.932 797.404C370.737 799.719 375.332 800.926 378.77 807.918C380.919 812.29 381.615 817.411 379.956 822.064C378.013 827.519 373.107 831.466 367.986 833.813C363.785 835.738 359.203 836.738 355.003 838.699C354.519 839.61 353.839 840.654 354.137 841.72C354.485 842.967 355.185 844.319 356.395 844.914C358.576 845.985 361.685 844.937 363.783 844.091C367.401 842.634 370.873 840.681 374.322 838.869C380.564 834.276 384.18 828.995 387.826 822.275C396.931 827.006 407.22 831.276 417.716 830.744C420.541 830.6 423.394 829.024 426.204 829.876C427.239 830.887 427.452 832.221 427.82 833.575C428.417 842.755 427.485 850.003 422.212 857.861C411.986 860.607 401.026 861.028 390.513 861.835C342.278 865.539 301.416 860.146 256.346 842.46C248.001 839.186 239.354 836.148 231.439 831.925C235.559 826.533 239.391 820.929 243.268 815.361C259.933 790.857 273.134 751.821 275.297 722.763C278.086 685.307 266.442 640.703 241.711 611.93C249.989 609.712 258.024 606.594 266.282 604.286C288.641 597.967 311.768 594.776 335.003 594.805Z" fill="#13A3D5"/>
<path d="M231.439 831.925C235.559 826.533 239.391 820.929 243.268 815.361C261.132 826.725 283.202 831.2 303.653 835.611C302.169 837.538 301.411 838.939 301.824 841.44C301.99 842.439 302.248 842.989 303.022 843.635C304.334 844.032 305.236 843.781 306.436 843.134C308.968 841.77 310.753 839.225 312.536 837.035C318.916 838.892 326.51 838.312 333.114 838.347C340.414 838.385 347.708 838.371 355.003 838.699C354.519 839.61 353.839 840.654 354.137 841.72C354.485 842.967 355.185 844.32 356.395 844.914C358.576 845.985 361.685 844.937 363.783 844.091C367.401 842.634 370.873 840.681 374.322 838.869C380.564 834.276 384.18 828.995 387.826 822.275C396.931 827.006 407.22 831.276 417.716 830.744C420.541 830.601 423.394 829.024 426.204 829.876C427.239 830.887 427.452 832.221 427.82 833.575C428.417 842.755 427.485 850.003 422.212 857.861C411.986 860.607 401.026 861.028 390.513 861.835C342.278 865.54 301.416 860.146 256.346 842.46C248.001 839.186 239.354 836.148 231.439 831.925Z" fill="#007BB1"/>
<path d="M387.826 822.275C396.931 827.006 407.22 831.276 417.715 830.744C420.541 830.601 423.394 829.024 426.203 829.876C427.238 830.887 427.451 832.221 427.82 833.575C420.159 835.012 378.881 841.862 374.321 838.869C380.564 834.276 384.18 828.995 387.826 822.275Z" fill="#13A3D5"/>
<path d="M303.653 835.611C307.307 831.863 311.694 826.844 311.481 821.243C311.407 819.309 310.633 817.627 309.199 816.331C306.901 814.254 302.244 813.889 301.112 810.863C301.249 809.896 301.536 809.318 302.08 808.514C304.465 807.093 308.767 807.778 311.539 807.425C320.887 806.235 327.598 796.945 329.797 788.425C331.484 781.886 330.808 774.556 327.279 768.726C326.007 766.602 324.361 764.724 322.421 763.187C319.979 761.278 311.906 757.996 312.885 754.791C313.197 753.767 314.312 752.275 315.338 751.877C317.873 750.895 321.71 753.214 324.385 753.282C334.286 753.532 346.611 744.99 351.188 736.472C354.562 730.195 355.191 722.524 353.087 715.722C351.761 711.437 349.137 707.762 345.106 705.662C342.907 704.524 340.481 703.895 338.006 703.821C334.459 703.704 325.546 706.072 324.097 701.7C324.174 700.33 324.874 699.528 325.852 698.648C329.035 695.785 333.357 694.755 337.033 692.705C346.76 687.282 356.065 675.923 356.825 664.544C357.169 659.39 355.472 653.337 352.007 649.417C349.698 646.804 345.258 645.233 345.53 641.246C345.587 640.404 345.823 639.843 346.29 639.155C347.17 638.62 347.538 638.367 348.619 638.615C353.136 639.652 359.181 647.115 361.334 651.187C364.958 658.038 364.703 666.653 362.356 673.836C359.288 683.229 353.108 691.193 345.169 696.973C352.291 700.656 357.297 705.102 359.834 712.962C362.586 721.487 361.547 731.422 357.447 739.346C352.183 749.52 342.504 755.836 331.851 759.144C330.987 759.414 330.117 759.66 329.241 759.881C335.296 768.576 338.577 777.476 336.612 788.208C334.183 801.475 327.024 806.692 317.491 814.577C318.92 823.519 317.531 829.437 312.536 837.034C310.753 839.225 308.968 841.77 306.436 843.134C305.236 843.781 304.334 844.032 303.022 843.635C302.248 842.989 301.99 842.439 301.824 841.44C301.411 838.939 302.169 837.538 303.653 835.611Z" fill="black"/>
<path d="M335.003 594.805C335.494 594.453 336.111 593.929 336.674 593.715C337.768 593.3 338.568 593.898 339.529 594.345C345.773 603.633 349.724 613.502 347.514 624.952C345.618 634.451 340.047 642.818 332.014 648.229C329.025 650.252 323.777 653.836 320.066 653.171C319.634 653.093 319.274 652.718 318.924 652.457C318.441 651.616 318.134 650.752 318.34 649.765C318.542 648.796 318.985 648.14 319.83 647.631C321.272 646.763 322.88 646.187 324.33 645.287C331.573 640.789 336.782 634.309 339.319 626.137C341.892 617.85 340.496 611.05 337.492 603.214C336.438 600.466 335.358 597.751 335.003 594.805Z" fill="black"/>
<path d="M223.728 605.042C227.657 607.343 230.468 610.558 233.278 614.064C237.642 619.248 242.59 624.13 246.266 629.841C262.45 654.979 270.723 694.544 268.209 724.16C267.63 730.972 266.236 737.686 264.768 744.354C259.499 768.294 250.997 791.163 237.112 811.497C233.463 817.106 229.957 823.766 224.171 827.401C222.048 826.68 220.009 825.839 218.042 824.756C214.183 822.63 210.514 820.136 206.702 817.922C182.941 804.121 134.223 775.397 126.544 748.531C125.825 746.015 124.655 741.977 126.018 739.538C132.63 738.296 139.236 739.765 145.896 738.229C151.153 737.016 160.265 734.214 163.055 729.392C163.646 728.372 163.947 727.142 163.607 725.986C163.305 724.96 162.872 724.047 161.903 723.545C158.178 723.862 153.607 727.748 150.25 729.519C143.039 733.322 134.216 733.293 126.537 730.856C119.278 728.552 113.025 723.94 109.491 717.095C106.096 710.519 106.145 703.969 108.319 697.04C108.725 695.728 109.211 694.413 109.779 693.163C120.092 670.458 166.75 635.311 188.669 622.12C199.781 615.317 211.522 609.598 223.728 605.042Z" fill="#FEC61E"/>
<path d="M224.171 827.401C222.048 826.68 220.009 825.839 218.043 824.756C214.183 822.63 210.515 820.136 206.702 817.922C182.941 804.121 134.224 775.397 126.544 748.531C125.825 746.015 124.655 741.977 126.018 739.538C130.598 745.938 134.499 752.849 140.275 758.286C159.24 776.138 185.17 786.265 208.3 797.497C217.889 802.155 227.248 807.44 237.112 811.497C233.463 817.106 229.957 823.766 224.171 827.401Z" fill="#FEA300"/>
<path d="M223.728 605.042C227.657 607.343 230.468 610.558 233.278 614.064C228.201 616.89 222.668 618.968 217.334 621.266C210.139 624.347 203.054 627.68 196.093 631.259C172.977 643.349 152.344 659.835 132.228 676.296C128.185 679.604 123.739 682.839 119.992 686.464C116.873 689.481 114.21 693.081 110.88 695.863C110.111 696.505 109.36 697.039 108.319 697.04C108.725 695.728 109.211 694.413 109.779 693.163C120.092 670.458 166.75 635.311 188.669 622.12C199.781 615.317 211.522 609.598 223.728 605.042Z" fill="#FFE053"/>
<path d="M194.249 655.757C209.703 654.51 223.23 666.058 224.427 681.52C225.625 696.982 214.037 710.476 198.575 711.624C183.182 712.768 169.765 701.241 168.573 685.848C167.381 670.455 178.863 656.998 194.249 655.757Z" fill="black"/>
<path d="M194.55 662.811C205.84 661.909 215.748 670.276 216.749 681.561C217.75 692.845 209.472 702.827 198.199 703.929C186.786 705.043 176.654 696.636 175.64 685.211C174.626 673.786 183.12 663.725 194.55 662.811Z" fill="#464FBC"/>
<path d="M188.769 668.617C190.387 668.544 192.137 668.441 193.716 668.864C195.911 669.451 198.033 670.909 199.133 672.92C199.993 674.461 200.196 676.284 199.697 677.977C198.813 680.95 196.546 682.442 193.984 683.869C192.237 684.413 190.158 684.555 188.388 684.04C186.435 683.483 184.798 682.147 183.861 680.345C182.883 678.471 182.731 676.203 183.366 674.197C184.289 671.284 186.174 669.938 188.769 668.617Z" fill="white"/>
<path d="M617.482 647.346C632.477 643.049 646.862 637.886 659.368 628.321C677.916 614.134 688.081 594.83 690.869 571.756C691.718 564.738 691.525 557.621 692.484 550.616C693.159 545.649 694.58 539.503 698.858 536.349C700.806 534.913 703.166 534.482 705.521 534.874C713.337 536.174 719.592 543.685 723.89 549.88C742.92 577.313 744.644 610.988 738.911 642.882C734.275 661.693 723.195 675.91 709.427 689.074C708.189 690.258 706.942 691.406 705.566 692.429C703.613 693.88 693.721 699.628 695.882 702.708C696.091 703.003 696.444 703.256 696.727 703.48L696.856 703.839C718.161 720.096 733.639 742.046 737.301 769.056C739.825 787.661 736.536 806.041 730.966 823.789C730.106 826.637 729.157 829.372 728.009 832.119C724.02 842.496 716.899 854.471 706.873 859.948C703.608 861.733 699.628 862.854 695.957 861.734C682.785 857.717 681.508 829.315 678.919 817.894C676.962 809.237 674.293 800.393 670.01 792.577C663.352 780.55 652.834 771.117 640.159 765.797C634.385 763.41 628.229 761.84 622.242 760.085C625.983 754.778 630.525 749.903 634.614 744.852C645.212 728.682 648.64 711.73 645.649 692.626C642.663 673.548 632.954 658.659 617.482 647.346Z" fill="#FE504E"/>
<path d="M622.242 760.085C625.983 754.778 630.524 749.903 634.614 744.852L634.822 750.019C640.283 755.85 647.457 758.665 654.294 762.503C666.587 769.409 677.831 783.471 684.335 795.785C692.404 811.055 693.368 825.813 705.243 840.531C706.604 842.216 709.218 845.15 711.538 845.363C714.39 845.624 717.361 842.997 719.279 841.183C721.56 839.026 724.283 836.169 725.704 833.361L728.009 832.119C724.019 842.496 716.899 854.471 706.873 859.948C703.608 861.733 699.628 862.854 695.956 861.734C682.785 857.717 681.508 829.315 678.919 817.894C676.961 809.237 674.293 800.393 670.01 792.577C663.352 780.55 652.834 771.117 640.159 765.797C634.385 763.41 628.229 761.84 622.242 760.085Z" fill="#DB3433"/>
<path d="M738.911 642.882C734.275 661.693 723.195 675.91 709.427 689.074C708.19 690.258 706.942 691.406 705.566 692.429C703.613 693.879 693.721 699.628 695.882 702.708C696.091 703.003 696.444 703.256 696.727 703.48C693.11 703.499 689.542 705.193 686.044 706.008C684.579 705.71 682.909 705.272 681.776 704.239C681.041 703.57 680.698 702.803 680.728 701.806C680.792 699.643 682.616 697.51 683.997 695.975C687.838 691.709 692.479 688.077 696.95 684.507C706.088 677.215 716.124 670.168 724.372 661.877C730.151 656.071 733.366 648.302 738.911 642.882Z" fill="#DB3433"/>
<path d="M725.704 833.361C726.33 831.587 726.782 829.75 727.438 827.983C728.178 825.979 728.968 824.71 730.966 823.789C730.106 826.637 729.157 829.372 728.01 832.119L725.704 833.361Z" fill="#EB413F"/>
<path d="M686.044 706.008C689.542 705.193 693.109 703.499 696.727 703.48L696.856 703.839C692.861 705.888 690.665 707.195 686.044 706.008Z" fill="#EB413F"/>
<path d="M715.304 572.285C715.856 572.357 716.407 572.425 716.949 572.551C717.804 572.749 718.489 573.209 718.907 573.998C720.372 576.795 717.714 582.93 716.795 585.702C707.424 613.983 687.584 641.029 660.654 654.547C659.914 654.681 659.348 654.589 658.617 654.459C657.822 653.827 657.216 653.249 657.062 652.195C656.804 650.429 658.403 648.691 659.601 647.576C663.049 644.365 667.998 642.15 671.923 639.497C676.832 636.177 681.279 631.552 685.314 627.238C695.46 616.403 703.817 602.4 709.138 588.58C711.245 583.12 711.941 577.203 715.304 572.285Z" fill="#DB3433"/>
<path d="M659.934 743.81C670.472 745.817 681.289 754.225 688.568 761.744C699.887 773.438 708.04 788.504 713.247 803.828C714.4 807.215 715.861 810.891 715.762 814.518C715.697 816.856 714.952 817.948 713.317 819.506C711.682 818.552 710.41 817.592 709.069 816.251C705.476 794.8 693.765 771.84 675.496 759.287C670.542 755.886 662.503 753.251 658.513 749.327C657.832 748.657 657.599 748.264 657.599 747.314C657.604 745.897 659.01 744.756 659.934 743.81Z" fill="#DB3433"/>
<path d="M724.372 614.838C724.954 614.876 725.495 614.993 726.052 615.154C727.065 615.449 727.92 615.892 728.392 616.886C728.899 617.955 728.69 619.321 728.278 620.383C726.807 624.157 723.707 628.133 721.436 631.558C707.459 652.654 688.792 667.052 665.434 676.472C664.461 676.373 663.685 676.102 662.905 675.496C662.12 674.89 661.33 674.114 661.256 673.07C661.166 671.743 662.488 670.814 663.477 670.136C666.085 668.347 669.394 667.294 672.266 665.977C677.419 663.614 682.402 660.98 687.078 657.768C697.527 650.594 708.185 640.867 714.932 630.025C717.983 625.119 720.239 619.574 724.064 615.192L724.372 614.838Z" fill="#DB3433"/>
<path d="M672.221 721.922C675.978 722.183 679.55 724.013 682.844 725.729C698.038 733.602 710.828 745.422 719.876 759.948C721.724 762.866 723.945 766.166 724.944 769.486C725.326 770.758 725.624 772.347 724.879 773.545C724.188 774.659 722.882 774.976 721.684 775.204C717.804 771.542 716.621 766.807 713.868 762.445C709.556 755.61 703.772 749.408 697.696 744.116C692.26 739.381 686.183 735.198 679.625 732.172C676.33 730.65 669.995 729.879 667.7 727.277C667.447 726.441 667.307 725.99 667.695 725.128C668.53 723.264 670.423 722.512 672.221 721.922Z" fill="#DB3433"/>
<path d="M504.859 619.943C514.03 623.019 522.97 627.032 532.046 630.408C544.603 635.084 557.406 639.067 570.399 642.341C575.696 643.714 581.077 645.07 586.478 645.975C594.428 647.309 601.91 647.041 609.289 650.881C619.882 656.395 627.713 665.509 632.994 676.091C638.822 687.767 640.179 699.337 639.608 712.241C636.91 733.418 626.923 746.597 611.535 760.834C604.449 767.326 597.086 773.515 589.474 779.385C580.342 786.391 571.05 793.188 561.609 799.77C552.789 806.027 543.968 812.341 534.62 817.798C524.222 823.869 513.436 829.038 502.394 833.818C495.463 836.817 488.446 839.949 481.137 841.904C484.591 834.296 487.966 826.792 490.316 818.752C490.907 816.842 491.139 814.867 491.417 812.894C495.013 809.7 500.04 805.838 502.119 801.418C503.432 798.625 503.903 794.215 505.898 791.875C508.275 789.087 517.872 790.695 521.549 790.081C533.683 788.054 547.281 781.214 554.373 770.901C558.233 765.287 559.703 758.623 558.445 751.909C556.755 742.886 550.456 737.171 543.264 732.211C549.108 726.369 555.887 721.927 559.101 713.95C561.34 708.54 561.324 702.461 559.058 697.062C555.256 688.174 546.993 683.691 538.496 680.221C539.273 678.993 540.038 677.758 540.79 676.515C546.883 666.394 548.578 656.334 545.719 644.829C546.495 644.658 547.048 644.473 547.749 644.101C546.916 641.277 528.607 631.232 525.16 629.643C519.286 626.934 509.265 624.515 504.859 619.943Z" fill="#13A3D5"/>
<path d="M591.322 762.612C598.02 759.971 625.75 731.944 630.743 725.796C634.207 721.53 636.929 717.03 639.608 712.241C636.91 733.418 626.923 746.597 611.535 760.834C604.449 767.326 597.086 773.515 589.474 779.385C580.342 786.391 571.05 793.188 561.609 799.77C552.789 806.027 543.968 812.341 534.62 817.798C524.222 823.869 513.436 829.038 502.394 833.818C495.463 836.817 488.446 839.949 481.137 841.904C484.591 834.296 487.966 826.792 490.316 818.752C496.249 817.532 501.659 814.705 507.182 812.318C529.193 802.805 549.632 791.617 569.237 777.79C573.137 775.04 577.857 772.302 580.759 768.469C582.1 769.785 583.775 770.477 585.454 771.273C588.073 768.59 589.698 765.943 591.322 762.612Z" fill="#007BB1"/>
<path d="M587.894 689.783C585.489 691.855 582.806 695.26 579.661 696.047C578.707 696.285 577.773 696.183 576.963 695.597C576.014 694.908 575.328 693.663 575.199 692.508C576.685 688.559 582.259 685.016 585.206 681.965C590.647 676.333 590.428 668.967 590.353 661.76C590.339 660.319 590.209 658.961 591.412 657.959C592.276 657.24 592.902 657.247 593.951 657.252C595.272 657.867 595.953 658.703 596.465 660.069C599.282 667.55 595.993 676.717 593.012 683.627C599.53 685.453 604.713 688.692 608.072 694.733C611.232 700.415 611.873 707.463 610.034 713.678C606.69 725.017 597.881 732.249 587.894 737.595C588.321 738.294 588.734 738.998 589.136 739.707C593.414 747.156 593.503 754.487 591.322 762.612C589.698 765.943 588.073 768.59 585.454 771.273C583.775 770.476 582.1 769.785 580.759 768.469C583.76 762.481 587.188 755.252 585.738 748.41C583.656 738.562 575.626 739.614 569.793 735.319C568.934 734.687 568.814 734.373 568.65 733.354C570.345 728.306 578.458 731.345 582.463 731.05C585.216 730.847 587.963 729.761 590.348 728.409C596.485 724.928 601.622 718.482 603.441 711.644C604.628 707.176 604.251 702.539 601.871 698.525C598.676 693.13 593.643 691.259 587.894 689.783Z" fill="black"/>
<path d="M232.268 601.832C245.382 596.02 259.007 590.737 272.922 587.198C328.897 572.962 398.317 576.908 452.324 597.758C464.293 602.47 476.188 607.369 488.004 612.451C493.373 614.706 500.077 616.709 504.859 619.943C509.265 624.515 519.286 626.935 525.16 629.643C528.606 631.232 546.916 641.278 547.749 644.101C547.048 644.473 546.495 644.658 545.719 644.829C545.597 644.538 545.473 644.247 545.326 643.968C544.929 643.213 544.268 642.387 543.396 642.188C542.023 641.876 540.824 642.643 539.677 643.28C537.335 646.349 540.379 653.593 540.433 657.405C540.516 663.291 538.142 670.212 533.923 674.406C531.262 677.052 527.598 678.257 524.035 679.151C508.259 683.112 512.103 675.418 500.236 671.034C492.941 668.339 485.251 668.394 477.592 668.353C486.7 655.03 492.165 641.799 490.619 625.388C490.004 624.585 489.364 623.723 488.39 623.341C487.291 622.91 486.317 623.363 485.295 623.786C482.547 627.496 484.075 632.682 483.496 636.987C482.993 640.727 481.807 644.507 480.408 648.004C475.258 660.868 465.563 671.792 452.728 677.296C439.851 670.848 427.836 670.51 413.723 671.386C417.171 665.303 420.333 659.485 420.745 652.326C421.244 643.639 417.954 635.185 412.109 628.799C407.081 623.305 401.372 620.484 393.96 620.156C393.682 611.783 392.727 604.393 390.021 596.439C389.796 596.09 389.571 595.736 389.323 595.404C388.744 594.631 388.083 594.199 387.127 594.12C385.731 594.005 384.565 595.147 383.542 595.956C368.805 595.033 354.318 593.926 339.529 594.345C338.568 593.898 337.768 593.3 336.674 593.715C336.111 593.929 335.494 594.454 335.003 594.805C311.768 594.776 288.642 597.967 266.282 604.286C258.024 606.594 249.989 609.712 241.711 611.93C238.56 608.57 235.358 605.247 232.268 601.832Z" fill="#59C2E6"/>
<path d="M390.021 596.439C396.506 597.908 403.089 598.963 409.599 600.328C421.034 602.681 432.342 605.614 443.479 609.117C452.253 611.902 460.785 615.292 469.401 618.523C474.477 620.428 479.99 622.753 485.295 623.786C482.547 627.496 484.075 632.682 483.496 636.987C482.993 640.727 481.807 644.507 480.408 648.004C475.258 660.868 465.563 671.792 452.728 677.296C439.851 670.848 427.836 670.51 413.723 671.386C417.171 665.303 420.333 659.485 420.745 652.326C421.243 643.639 417.954 635.185 412.109 628.799C407.081 623.305 401.372 620.484 393.96 620.156C393.682 611.783 392.727 604.393 390.021 596.439Z" fill="#13A3D5"/>
<path d="M490.62 625.388C493.844 626.95 497.229 628.178 500.516 629.605C511.709 634.465 527.722 641.503 539.677 643.28C537.335 646.349 540.379 653.593 540.433 657.405C540.517 663.291 538.142 670.212 533.923 674.406C531.263 677.052 527.598 678.257 524.036 679.151C508.26 683.112 512.103 675.418 500.236 671.034C492.941 668.339 485.251 668.394 477.592 668.353C486.7 655.03 492.166 641.799 490.62 625.388Z" fill="#13A3D5"/>
<path d="M391.847 514.804C393.705 514.692 395.861 514.551 397.394 515.824C398.644 516.862 399.018 518.37 399.091 519.929C399.353 525.55 392.335 539.731 395.706 542.836C396.486 543.555 397.702 544.034 398.651 544.505C406.658 542.001 429.909 533.68 437.242 537.755C438.53 538.471 439.493 539.664 439.857 541.096C441.078 545.891 437.395 551.431 435.045 555.369L437.537 558.212C440.008 558.893 442.222 559.265 444.793 559.065C451.932 558.508 470.694 551.013 475.587 558.889C476.564 560.462 476.388 562.33 475.92 564.036C474.821 568.032 468.056 576.957 469.975 580.455C471.789 582.184 474.059 582.425 476.46 582.36C485.645 582.112 496.142 578.253 504.097 584.822C500.914 592.875 496.573 599.334 491.058 605.973C483.94 603.42 477.173 600.022 470.246 597.007C462.208 593.573 454.043 590.442 445.769 587.622C397.773 571.332 339.406 567.176 289.729 576.84C297.44 563.698 308.875 554.196 321.192 545.511C324.853 542.929 328.756 540.015 332.907 538.279C335.469 535.975 339.314 534.221 342.336 532.598C357.642 524.377 374.53 517.138 391.847 514.804Z" fill="#FE504E"/>
<path d="M332.907 538.279C335.468 535.975 339.314 534.221 342.336 532.598C357.642 524.377 374.53 517.138 391.847 514.804L393.035 515.327C393.159 515.928 393.317 515.99 392.948 516.543C390.546 520.144 364.479 530.745 358.574 533.545C354.349 535.599 350.184 537.774 346.084 540.067C333.859 546.884 321.972 554.539 310.451 562.479C304.514 566.572 298.761 571.208 292.644 575C299.248 561.806 313.004 552.644 324.794 544.411C327.469 542.543 331.023 541.006 332.907 538.279Z" fill="#FE807E"/>
<path d="M422.56 678.097C429.271 677.196 438.233 679.067 444.375 681.833C449.565 684.169 454.002 687.795 456.008 693.267C457.615 697.656 457.39 702.506 455.384 706.726C450.311 717.382 441.012 719.141 431.22 722.682C430.052 723.105 427.445 724.264 426.962 725.466C426.675 726.183 426.866 727.259 427.222 727.921C428.949 731.137 437.218 730.148 440.621 731.369C446.202 733.372 452.144 737.564 454.656 743.093C456.149 746.379 456.473 750.191 455.151 753.589C451.718 762.42 441.675 768.698 432.829 771.278C429.823 772.155 426.455 772.3 423.592 773.571C422.35 774.122 421.271 774.804 420.763 776.121C420.873 778.72 431.727 782.188 434.07 783.636C437.137 785.533 439.809 788.034 441.716 791.107C444.535 795.689 445.393 801.213 444.096 806.434C442.711 811.785 437.187 816.519 432.639 819.18C430.407 820.403 427.959 821.324 425.501 821.966C412.194 825.44 399.386 821.506 387.879 814.779C387.438 807.269 384.255 803.114 379.324 797.797C388.946 793.66 399.147 788.157 405.005 779.112C408.796 773.259 410.314 766.118 408.833 759.266C406.937 750.497 400.879 745.74 393.764 741.088C400.971 737.378 407.772 731.818 412.268 725.042C416.544 718.597 418.988 711.069 417.344 703.342C415.472 694.534 409.401 689.249 402.154 684.623C408.015 680.005 415.339 678.734 422.56 678.097Z" fill="#FE504E"/>
<path d="M479.476 676.215C479.647 676.187 479.818 676.155 479.991 676.136C487.843 675.284 498.085 677.068 504.226 682.244C506.501 684.161 507.931 686.62 508.118 689.62C508.619 697.661 501.237 706.402 495.457 711.455C492.054 714.428 488.307 716.847 485.316 720.285C485.152 721.171 485.284 721.546 485.676 722.347C487.827 724.558 492.1 724.85 494.982 725.65C499.265 726.838 502.938 729.629 505.101 733.558C506.71 736.482 506.967 739.788 505.998 742.964C503.843 750.024 494.142 757.837 486.995 759.502C483.932 760.215 480.019 760.044 477.276 761.657C476.263 762.252 475.415 763.192 475.189 764.375C475.148 764.587 475.018 765.628 475.119 765.805C476 767.339 490.412 770.841 495.423 779.6C497.831 783.81 499.1 788.793 497.743 793.557C495.925 799.94 490.479 803.262 485.021 806.247C482.114 807.299 479.216 808.024 476.159 808.471C470.866 809.245 457.662 810.171 453.471 806.74C450.383 804.211 452.097 799.261 451.631 795.834C450.489 787.442 443.081 781.879 436.823 777.103C445.863 772.964 456.143 767.544 460.749 758.241C463.266 753.156 463.725 747.391 461.826 742.023C458.904 733.763 452.115 729.41 444.58 725.836C452.391 721.187 460.265 715.626 463.042 706.474C465.468 698.474 463.365 691.103 459.563 683.984C465.501 679.52 472.138 677.093 479.476 676.215Z" fill="#FEC61E"/>
<path d="M305.248 865.32C311.684 866.088 318.006 867.667 324.449 868.444C343.604 870.69 362.917 871.288 382.175 870.235C397.018 869.294 411.793 867.471 426.42 864.777C430.214 864.04 443.019 860.811 446.464 861.763C446.987 861.908 447.588 862.522 447.896 862.944C450.382 866.358 449.088 873.117 448.306 876.882C447.006 881.872 445.406 887.002 440.705 889.821C436.427 892.387 429.2 890.601 427.096 892.13C426.015 892.915 425.146 896.1 424.687 897.394C418.651 914.386 414.741 931.723 392.09 925.767C368.416 919.541 337.545 895.14 319.206 878.51C313.981 874.77 309.694 869.924 305.248 865.32Z" fill="#FE504E"/>
<path d="M305.248 865.32C311.684 866.088 318.006 867.667 324.449 868.444C343.604 870.69 362.917 871.288 382.175 870.235C397.018 869.294 411.793 867.471 426.42 864.777C430.214 864.04 443.019 860.811 446.464 861.763C446.987 861.908 447.588 862.522 447.896 862.944C450.382 866.358 449.088 873.117 448.306 876.882L447.968 875.972C444.301 875.682 438.271 877.775 434.437 878.385C427.736 879.451 420.941 880.161 414.195 880.883C393.271 883.12 372.431 882.927 351.467 881.4C346.159 881.014 340.747 880.739 335.472 880.049C331.148 879.483 326.795 878.412 322.447 878.127C321.311 878.053 320.255 877.984 319.206 878.51C313.981 874.77 309.694 869.924 305.248 865.32Z" fill="#DB3433"/>
<path d="M525.413 685.557C530.815 684.588 537.822 687.266 542.452 690.012C546.696 692.529 551.507 696.392 552.763 701.421C558.416 724.054 529.771 725.738 527.343 730.496C527.021 731.128 527 732.049 527.255 732.716C528.52 736.029 536.508 736.719 539.593 738.015C544.093 739.906 548.795 745.189 550.566 749.722C552.309 754.183 551.885 759.078 549.948 763.402C545.734 772.813 536.321 777.851 527.156 781.327C519.718 783.654 512.824 783.271 505.195 782.571C501.686 774.992 498.298 769.797 491.236 765.077C500.004 760.871 508.269 755.343 512.146 745.989C514.059 741.374 514.475 735.925 512.518 731.253C509.883 724.964 504.209 721.749 498.215 719.279C503.983 713.634 510.788 705.518 513.044 697.603C513.897 694.613 513.63 691.286 514.705 688.377C517.527 685.655 521.737 685.813 525.413 685.557Z" fill="#FEC61E"/>
<path d="M450.279 812.771C462.001 816.599 472.264 816.735 484.341 814.642L482.639 821.457C479.897 828.063 476.099 840.037 470.985 844.931C469.479 846.372 467.441 847.328 465.538 848.116C455.111 852.432 442.494 855.575 431.257 856.697C435.08 848.758 435.753 841.486 435.441 832.842L434.277 826.879C440.498 822.823 444.678 817.453 450.279 812.771Z" fill="#007BB1"/>
<path d="M450.279 812.771C462.001 816.599 472.263 816.735 484.341 814.642L482.639 821.457C475.567 823.798 468.393 825.814 461.137 827.498C452.599 829.398 443.94 830.774 435.441 832.842L434.277 826.879C440.497 822.823 444.678 817.453 450.279 812.771Z" fill="#13A3D5"/>
</svg>
