<svg width="849" height="1183" viewBox="0 0 849 1183" fill="none" xmlns="http://www.w3.org/2000/svg">
<rect x="5" y="5" width="839" height="1173" rx="45" fill="white"/>
<rect x="5" y="5" width="839" height="1173" rx="45" stroke="black" stroke-width="10"/>
<circle cx="786.5" cy="1124.5" r="11.5" fill="black"/>
<circle cx="786.5" cy="59.5" r="11.5" fill="black"/>
<path d="M77 1124.5C77 1130.85 71.8513 1136 65.5 1136C59.1487 1136 54 1130.85 54 1124.5C54 1118.15 59.1487 1113 65.5 1113C71.8513 1113 77 1118.15 77 1124.5Z" fill="black"/>
<path d="M77 59.5C77 65.8513 71.8513 71 65.5 71C59.1487 71 54 65.8513 54 59.5C54 53.1487 59.1487 48 65.5 48C71.8513 48 77 53.1487 77 59.5Z" fill="black"/>
<mask id="path-6-inside-1_97_40" fill="white">
<path d="M708 48C713.523 48 717.934 52.4996 718.616 57.9801C723.122 94.1833 751.817 122.878 788.02 127.384C793.5 128.066 798 132.477 798 138V1046C798 1051.52 793.5 1055.93 788.02 1056.62C751.817 1061.12 723.122 1089.82 718.616 1126.02C717.934 1131.5 713.523 1136 708 1136H141C135.477 1136 131.066 1131.5 130.384 1126.02C125.878 1089.82 97.1833 1061.12 60.9801 1056.62C55.4996 1055.93 51 1051.52 51 1046V138C51 132.477 55.4996 128.066 60.9801 127.384C97.1833 122.878 125.878 94.1833 130.384 57.9801C131.066 52.4996 135.477 48 141 48H708Z"/>
</mask>
<path d="M708 48C713.523 48 717.934 52.4996 718.616 57.9801C723.122 94.1833 751.817 122.878 788.02 127.384C793.5 128.066 798 132.477 798 138V1046C798 1051.52 793.5 1055.93 788.02 1056.62C751.817 1061.12 723.122 1089.82 718.616 1126.02C717.934 1131.5 713.523 1136 708 1136H141C135.477 1136 131.066 1131.5 130.384 1126.02C125.878 1089.82 97.1833 1061.12 60.9801 1056.62C55.4996 1055.93 51 1051.52 51 1046V138C51 132.477 55.4996 128.066 60.9801 127.384C97.1833 122.878 125.878 94.1833 130.384 57.9801C131.066 52.4996 135.477 48 141 48H708Z" fill="#006AB6"/>
<path d="M130.384 1126.02L138.322 1125.03L130.384 1126.02ZM718.616 1126.02L710.678 1125.03L718.616 1126.02ZM788.02 1056.62L789.008 1064.56L788.02 1056.62ZM718.616 57.9801L726.555 56.9922L718.616 57.9801ZM718.616 57.9801L710.678 58.9681C715.635 98.8063 747.194 130.365 787.032 135.322L788.02 127.384L789.008 119.445C756.44 115.392 730.608 89.5603 726.555 56.9922L718.616 57.9801ZM798 138H790V1046H798H806V138H798ZM788.02 1056.62L787.032 1048.68C747.194 1053.64 715.635 1085.19 710.678 1125.03L718.616 1126.02L726.555 1127.01C730.608 1094.44 756.44 1068.61 789.008 1064.56L788.02 1056.62ZM708 1136V1128H141V1136V1144H708V1136ZM130.384 1126.02L138.322 1125.03C133.365 1085.19 101.806 1053.64 61.9681 1048.68L60.9801 1056.62L59.9922 1064.56C92.5603 1068.61 118.392 1094.44 122.445 1127.01L130.384 1126.02ZM51 1046H59V138H51H43V1046H51ZM60.9801 127.384L61.9681 135.322C101.806 130.365 133.365 98.8063 138.322 58.9681L130.384 57.9801L122.445 56.9922C118.392 89.5603 92.5603 115.392 59.9922 119.445L60.9801 127.384ZM141 48V56H708V48V40H141V48ZM130.384 57.9801L138.322 58.9681C138.438 58.0389 138.872 57.2306 139.427 56.6958C139.954 56.1887 140.494 56 141 56V48V40C130.84 40 123.547 48.1329 122.445 56.9922L130.384 57.9801ZM51 138H59C59 137.494 59.1887 136.954 59.6958 136.427C60.2306 135.872 61.0389 135.438 61.9681 135.322L60.9801 127.384L59.9922 119.445C51.1329 120.547 43 127.84 43 138H51ZM60.9801 1056.62L61.9681 1048.68C61.0389 1048.56 60.2306 1048.13 59.6958 1047.57C59.1887 1047.05 59 1046.51 59 1046H51H43C43 1056.16 51.1329 1063.45 59.9922 1064.56L60.9801 1056.62ZM141 1136V1128C140.494 1128 139.954 1127.81 139.427 1127.3C138.872 1126.77 138.438 1125.96 138.322 1125.03L130.384 1126.02L122.445 1127.01C123.547 1135.87 130.84 1144 141 1144V1136ZM718.616 1126.02L710.678 1125.03C710.562 1125.96 710.128 1126.77 709.573 1127.3C709.046 1127.81 708.506 1128 708 1128V1136V1144C718.16 1144 725.453 1135.87 726.555 1127.01L718.616 1126.02ZM798 1046H790C790 1046.51 789.811 1047.05 789.304 1047.57C788.769 1048.13 787.961 1048.56 787.032 1048.68L788.02 1056.62L789.008 1064.56C797.867 1063.45 806 1056.16 806 1046H798ZM788.02 127.384L787.032 135.322C787.961 135.438 788.769 135.872 789.304 136.427C789.811 136.954 790 137.494 790 138H798H806C806 127.84 797.867 120.547 789.008 119.445L788.02 127.384ZM718.616 57.9801L726.555 56.9922C725.453 48.1329 718.16 40 708 40V48V56C708.506 56 709.046 56.1887 709.573 56.6958C710.128 57.2306 710.562 58.0389 710.678 58.9681L718.616 57.9801Z" fill="black" mask="url(#path-6-inside-1_97_40)"/>
<path d="M690 102C695.523 102 699.911 106.512 700.837 111.957C705.019 136.563 724.437 155.981 749.043 160.163C754.488 161.089 759 165.477 759 171V1014C759 1019.52 754.488 1023.91 749.043 1024.84C724.711 1028.97 705.454 1048 700.984 1072.22C699.993 1077.59 695.633 1082 690.175 1082H158.825C153.367 1082 149.007 1077.59 148.016 1072.22C143.546 1048 124.288 1028.97 99.9568 1024.84C94.5121 1023.91 90 1019.52 90 1014V171C90 165.477 94.512 161.089 99.9568 160.163C124.563 155.981 143.981 136.563 148.163 111.957C149.089 106.512 153.477 102 159 102H690Z" fill="#5298CB"/>
<path d="M320.54 348.925V356.83H304.815V408H295.125V356.83H279.315V348.925H320.54ZM340.044 367.965C341.46 365.585 343.33 363.743 345.654 362.44C348.034 361.08 350.839 360.4 354.069 360.4V370.43H351.604C347.807 370.43 344.917 371.393 342.934 373.32C341.007 375.247 340.044 378.59 340.044 383.35V408H330.354V361.165H340.044V367.965ZM405.391 361.165V408H395.701V402.475C394.171 404.402 392.159 405.932 389.666 407.065C387.229 408.142 384.622 408.68 381.846 408.68C378.162 408.68 374.847 407.915 371.901 406.385C369.011 404.855 366.716 402.588 365.016 399.585C363.372 396.582 362.551 392.955 362.551 388.705V361.165H372.156V387.26C372.156 391.453 373.204 394.683 375.301 396.95C377.397 399.16 380.259 400.265 383.886 400.265C387.512 400.265 390.374 399.16 392.471 396.95C394.624 394.683 395.701 391.453 395.701 387.26V361.165H405.391ZM461.101 383.435C461.101 385.192 460.987 386.778 460.761 388.195H424.976C425.259 391.935 426.647 394.938 429.141 397.205C431.634 399.472 434.694 400.605 438.321 400.605C443.534 400.605 447.217 398.423 449.371 394.06H459.826C458.409 398.367 455.831 401.908 452.091 404.685C448.407 407.405 443.817 408.765 438.321 408.765C433.844 408.765 429.821 407.773 426.251 405.79C422.737 403.75 419.961 400.917 417.921 397.29C415.937 393.607 414.946 389.357 414.946 384.54C414.946 379.723 415.909 375.502 417.836 371.875C419.819 368.192 422.567 365.358 426.081 363.375C429.651 361.392 433.731 360.4 438.321 360.4C442.741 360.4 446.679 361.363 450.136 363.29C453.592 365.217 456.284 367.937 458.211 371.45C460.137 374.907 461.101 378.902 461.101 383.435ZM450.986 380.375C450.929 376.805 449.654 373.943 447.161 371.79C444.667 369.637 441.579 368.56 437.896 368.56C434.552 368.56 431.691 369.637 429.311 371.79C426.931 373.887 425.514 376.748 425.061 380.375H450.986ZM494.267 360.4C497.95 360.4 501.237 361.165 504.127 362.695C507.073 364.225 509.368 366.492 511.012 369.495C512.655 372.498 513.477 376.125 513.477 380.375V408H503.872V381.82C503.872 377.627 502.823 374.425 500.727 372.215C498.63 369.948 495.768 368.815 492.142 368.815C488.515 368.815 485.625 369.948 483.472 372.215C481.375 374.425 480.327 377.627 480.327 381.82V408H470.637V361.165H480.327V366.52C481.913 364.593 483.925 363.092 486.362 362.015C488.855 360.938 491.49 360.4 494.267 360.4ZM546.152 408.765C541.732 408.765 537.737 407.773 534.167 405.79C530.597 403.75 527.792 400.917 525.752 397.29C523.712 393.607 522.692 389.357 522.692 384.54C522.692 379.78 523.74 375.558 525.837 371.875C527.934 368.192 530.795 365.358 534.422 363.375C538.049 361.392 542.1 360.4 546.577 360.4C551.054 360.4 555.105 361.392 558.732 363.375C562.359 365.358 565.22 368.192 567.317 371.875C569.414 375.558 570.462 379.78 570.462 384.54C570.462 389.3 569.385 393.522 567.232 397.205C565.079 400.888 562.132 403.75 558.392 405.79C554.709 407.773 550.629 408.765 546.152 408.765ZM546.152 400.35C548.645 400.35 550.969 399.755 553.122 398.565C555.332 397.375 557.117 395.59 558.477 393.21C559.837 390.83 560.517 387.94 560.517 384.54C560.517 381.14 559.865 378.278 558.562 375.955C557.259 373.575 555.53 371.79 553.377 370.6C551.224 369.41 548.9 368.815 546.407 368.815C543.914 368.815 541.59 369.41 539.437 370.6C537.34 371.79 535.669 373.575 534.422 375.955C533.175 378.278 532.552 381.14 532.552 384.54C532.552 389.583 533.827 393.493 536.377 396.27C538.984 398.99 542.242 400.35 546.152 400.35Z" fill="black"/>
<mask id="path-10-outside-2_97_40" maskUnits="userSpaceOnUse" x="401" y="1006" width="46" height="32" fill="black">
<rect fill="white" x="401" y="1006" width="46" height="32"/>
<path d="M402.32 1015.04C402.48 1012.56 403.427 1010.63 405.16 1009.24C406.92 1007.85 409.16 1007.16 411.88 1007.16C413.747 1007.16 415.36 1007.49 416.72 1008.16C418.08 1008.83 419.107 1009.73 419.8 1010.88C420.493 1012.03 420.84 1013.32 420.84 1014.76C420.84 1016.41 420.4 1017.83 419.52 1019C418.64 1020.17 417.587 1020.96 416.36 1021.36V1021.52C417.933 1022 419.16 1022.88 420.04 1024.16C420.92 1025.41 421.36 1027.03 421.36 1029C421.36 1030.57 421 1031.97 420.28 1033.2C419.56 1034.43 418.493 1035.4 417.08 1036.12C415.667 1036.81 413.973 1037.16 412 1037.16C409.12 1037.16 406.747 1036.43 404.88 1034.96C403.04 1033.47 402.053 1031.33 401.92 1028.56H406.32C406.427 1029.97 406.973 1031.13 407.96 1032.04C408.947 1032.92 410.28 1033.36 411.96 1033.36C413.587 1033.36 414.84 1032.92 415.72 1032.04C416.6 1031.13 417.04 1029.97 417.04 1028.56C417.04 1026.69 416.44 1025.37 415.24 1024.6C414.067 1023.8 412.253 1023.4 409.8 1023.4H408.76V1019.64H409.84C412 1019.61 413.64 1019.25 414.76 1018.56C415.907 1017.87 416.48 1016.77 416.48 1015.28C416.48 1014 416.067 1012.99 415.24 1012.24C414.413 1011.47 413.24 1011.08 411.72 1011.08C410.227 1011.08 409.067 1011.47 408.24 1012.24C407.413 1012.99 406.92 1013.92 406.76 1015.04H402.32ZM431.83 1029.08C432.097 1030.41 432.67 1031.43 433.55 1032.12C434.43 1032.81 435.617 1033.16 437.11 1033.16C439.003 1033.16 440.39 1032.41 441.27 1030.92C442.15 1029.43 442.59 1026.88 442.59 1023.28C441.95 1024.19 441.043 1024.89 439.87 1025.4C438.723 1025.88 437.47 1026.12 436.11 1026.12C434.377 1026.12 432.803 1025.77 431.39 1025.08C429.977 1024.36 428.857 1023.31 428.03 1021.92C427.23 1020.51 426.83 1018.8 426.83 1016.8C426.83 1013.87 427.683 1011.53 429.39 1009.8C431.123 1008.04 433.497 1007.16 436.51 1007.16C440.137 1007.16 442.71 1008.37 444.23 1010.8C445.777 1013.2 446.55 1016.89 446.55 1021.88C446.55 1025.32 446.257 1028.13 445.67 1030.32C445.11 1032.51 444.123 1034.16 442.71 1035.28C441.297 1036.4 439.337 1036.96 436.83 1036.96C433.977 1036.96 431.777 1036.21 430.23 1034.72C428.683 1033.23 427.817 1031.35 427.63 1029.08H431.83ZM436.91 1022.28C438.51 1022.28 439.763 1021.79 440.67 1020.8C441.603 1019.79 442.07 1018.45 442.07 1016.8C442.07 1014.96 441.577 1013.53 440.59 1012.52C439.63 1011.48 438.31 1010.96 436.63 1010.96C434.95 1010.96 433.617 1011.49 432.63 1012.56C431.67 1013.6 431.19 1014.97 431.19 1016.68C431.19 1018.31 431.657 1019.65 432.59 1020.72C433.55 1021.76 434.99 1022.28 436.91 1022.28Z"/>
</mask>
<path d="M402.32 1015.04C402.48 1012.56 403.427 1010.63 405.16 1009.24C406.92 1007.85 409.16 1007.16 411.88 1007.16C413.747 1007.16 415.36 1007.49 416.72 1008.16C418.08 1008.83 419.107 1009.73 419.8 1010.88C420.493 1012.03 420.84 1013.32 420.84 1014.76C420.84 1016.41 420.4 1017.83 419.52 1019C418.64 1020.17 417.587 1020.96 416.36 1021.36V1021.52C417.933 1022 419.16 1022.88 420.04 1024.16C420.92 1025.41 421.36 1027.03 421.36 1029C421.36 1030.57 421 1031.97 420.28 1033.2C419.56 1034.43 418.493 1035.4 417.08 1036.12C415.667 1036.81 413.973 1037.16 412 1037.16C409.12 1037.16 406.747 1036.43 404.88 1034.96C403.04 1033.47 402.053 1031.33 401.92 1028.56H406.32C406.427 1029.97 406.973 1031.13 407.96 1032.04C408.947 1032.92 410.28 1033.36 411.96 1033.36C413.587 1033.36 414.84 1032.92 415.72 1032.04C416.6 1031.13 417.04 1029.97 417.04 1028.56C417.04 1026.69 416.44 1025.37 415.24 1024.6C414.067 1023.8 412.253 1023.4 409.8 1023.4H408.76V1019.64H409.84C412 1019.61 413.64 1019.25 414.76 1018.56C415.907 1017.87 416.48 1016.77 416.48 1015.28C416.48 1014 416.067 1012.99 415.24 1012.24C414.413 1011.47 413.24 1011.08 411.72 1011.08C410.227 1011.08 409.067 1011.47 408.24 1012.24C407.413 1012.99 406.92 1013.92 406.76 1015.04H402.32ZM431.83 1029.08C432.097 1030.41 432.67 1031.43 433.55 1032.12C434.43 1032.81 435.617 1033.16 437.11 1033.16C439.003 1033.16 440.39 1032.41 441.27 1030.92C442.15 1029.43 442.59 1026.88 442.59 1023.28C441.95 1024.19 441.043 1024.89 439.87 1025.4C438.723 1025.88 437.47 1026.12 436.11 1026.12C434.377 1026.12 432.803 1025.77 431.39 1025.08C429.977 1024.36 428.857 1023.31 428.03 1021.92C427.23 1020.51 426.83 1018.8 426.83 1016.8C426.83 1013.87 427.683 1011.53 429.39 1009.8C431.123 1008.04 433.497 1007.16 436.51 1007.16C440.137 1007.16 442.71 1008.37 444.23 1010.8C445.777 1013.2 446.55 1016.89 446.55 1021.88C446.55 1025.32 446.257 1028.13 445.67 1030.32C445.11 1032.51 444.123 1034.16 442.71 1035.28C441.297 1036.4 439.337 1036.96 436.83 1036.96C433.977 1036.96 431.777 1036.21 430.23 1034.72C428.683 1033.23 427.817 1031.35 427.63 1029.08H431.83ZM436.91 1022.28C438.51 1022.28 439.763 1021.79 440.67 1020.8C441.603 1019.79 442.07 1018.45 442.07 1016.8C442.07 1014.96 441.577 1013.53 440.59 1012.52C439.63 1011.48 438.31 1010.96 436.63 1010.96C434.95 1010.96 433.617 1011.49 432.63 1012.56C431.67 1013.6 431.19 1014.97 431.19 1016.68C431.19 1018.31 431.657 1019.65 432.59 1020.72C433.55 1021.76 434.99 1022.28 436.91 1022.28Z" fill="black"/>
<path d="M402.32 1015.04L402.021 1015.02L402 1015.34H402.32V1015.04ZM405.16 1009.24L404.974 1009L404.973 1009.01L405.16 1009.24ZM416.72 1008.16L416.588 1008.43L416.72 1008.16ZM419.8 1010.88L420.057 1010.72L419.8 1010.88ZM419.52 1019L419.76 1019.18V1019.18L419.52 1019ZM416.36 1021.36L416.267 1021.07L416.06 1021.14V1021.36H416.36ZM416.36 1021.52H416.06V1021.74L416.272 1021.81L416.36 1021.52ZM420.04 1024.16L419.793 1024.33L419.794 1024.33L420.04 1024.16ZM420.28 1033.2L420.021 1033.05L420.28 1033.2ZM417.08 1036.12L417.212 1036.39L417.216 1036.39L417.08 1036.12ZM404.88 1034.96L404.691 1035.19L404.695 1035.2L404.88 1034.96ZM401.92 1028.56V1028.26H401.605L401.62 1028.57L401.92 1028.56ZM406.32 1028.56L406.619 1028.54L406.598 1028.26H406.32V1028.56ZM407.96 1032.04L407.757 1032.26L407.76 1032.26L407.96 1032.04ZM415.72 1032.04L415.932 1032.25L415.935 1032.25L415.72 1032.04ZM415.24 1024.6L415.071 1024.85L415.077 1024.85L415.24 1024.6ZM408.76 1023.4H408.46V1023.7H408.76V1023.4ZM408.76 1019.64V1019.34H408.46V1019.64H408.76ZM409.84 1019.64V1019.94L409.844 1019.94L409.84 1019.64ZM414.76 1018.56L414.605 1018.3L414.602 1018.3L414.76 1018.56ZM415.24 1012.24L415.035 1012.46L415.039 1012.46L415.24 1012.24ZM408.24 1012.24L408.441 1012.46L408.445 1012.46L408.24 1012.24ZM406.76 1015.04V1015.34H407.02L407.057 1015.08L406.76 1015.04ZM402.32 1015.04L402.619 1015.06C402.775 1012.65 403.688 1010.8 405.347 1009.47L405.16 1009.24L404.973 1009.01C403.165 1010.45 402.185 1012.47 402.021 1015.02L402.32 1015.04ZM405.16 1009.24L405.346 1009.48C407.042 1008.14 409.213 1007.46 411.88 1007.46V1007.16V1006.86C409.108 1006.86 406.798 1007.57 404.974 1009L405.16 1009.24ZM411.88 1007.16V1007.46C413.711 1007.46 415.277 1007.79 416.588 1008.43L416.72 1008.16L416.852 1007.89C415.443 1007.2 413.782 1006.86 411.88 1006.86V1007.16ZM416.72 1008.16L416.588 1008.43C417.903 1009.07 418.883 1009.94 419.543 1011.04L419.8 1010.88L420.057 1010.72C419.33 1009.52 418.257 1008.58 416.852 1007.89L416.72 1008.16ZM419.8 1010.88L419.543 1011.04C420.206 1012.13 420.54 1013.37 420.54 1014.76H420.84H421.14C421.14 1013.27 420.78 1011.92 420.057 1010.72L419.8 1010.88ZM420.84 1014.76H420.54C420.54 1016.36 420.116 1017.71 419.28 1018.82L419.52 1019L419.76 1019.18C420.684 1017.95 421.14 1016.47 421.14 1014.76H420.84ZM419.52 1019L419.28 1018.82C418.432 1019.95 417.427 1020.7 416.267 1021.07L416.36 1021.36L416.453 1021.65C417.746 1021.22 418.848 1020.4 419.76 1019.18L419.52 1019ZM416.36 1021.36H416.06V1021.52H416.36H416.66V1021.36H416.36ZM416.36 1021.52L416.272 1021.81C417.785 1022.27 418.954 1023.11 419.793 1024.33L420.04 1024.16L420.287 1023.99C419.366 1022.65 418.082 1021.73 416.448 1021.23L416.36 1021.52ZM420.04 1024.16L419.794 1024.33C420.63 1025.52 421.06 1027.07 421.06 1029H421.36H421.66C421.66 1026.98 421.21 1025.3 420.286 1023.99L420.04 1024.16ZM421.36 1029H421.06C421.06 1030.53 420.711 1031.87 420.021 1033.05L420.28 1033.2L420.539 1033.35C421.289 1032.07 421.66 1030.62 421.66 1029H421.36ZM420.28 1033.2L420.021 1033.05C419.334 1034.22 418.312 1035.16 416.944 1035.85L417.08 1036.12L417.216 1036.39C418.674 1035.64 419.786 1034.63 420.539 1033.35L420.28 1033.2ZM417.08 1036.12L416.948 1035.85C415.585 1036.52 413.939 1036.86 412 1036.86V1037.16V1037.46C414.008 1037.46 415.749 1037.11 417.212 1036.39L417.08 1036.12ZM412 1037.16V1036.86C409.172 1036.86 406.869 1036.14 405.065 1034.72L404.88 1034.96L404.695 1035.2C406.625 1036.71 409.068 1037.46 412 1037.46V1037.16ZM404.88 1034.96L405.069 1034.73C403.307 1033.3 402.35 1031.25 402.22 1028.55L401.92 1028.56L401.62 1028.57C401.757 1031.42 402.773 1033.64 404.691 1035.19L404.88 1034.96ZM401.92 1028.56V1028.86H406.32V1028.56V1028.26H401.92V1028.56ZM406.32 1028.56L406.021 1028.58C406.133 1030.07 406.711 1031.3 407.757 1032.26L407.96 1032.04L408.163 1031.82C407.236 1030.97 406.72 1029.88 406.619 1028.54L406.32 1028.56ZM407.96 1032.04L407.76 1032.26C408.816 1033.21 410.227 1033.66 411.96 1033.66V1033.36V1033.06C410.333 1033.06 409.078 1032.63 408.16 1031.82L407.96 1032.04ZM411.96 1033.36V1033.66C413.641 1033.66 414.98 1033.2 415.932 1032.25L415.72 1032.04L415.508 1031.83C414.7 1032.64 413.533 1033.06 411.96 1033.06V1033.36ZM415.72 1032.04L415.935 1032.25C416.876 1031.28 417.34 1030.04 417.34 1028.56H417.04H416.74C416.74 1029.91 416.324 1030.99 415.505 1031.83L415.72 1032.04ZM417.04 1028.56H417.34C417.34 1026.63 416.714 1025.19 415.403 1024.35L415.24 1024.6L415.077 1024.85C416.166 1025.55 416.74 1026.76 416.74 1028.56H417.04ZM415.24 1024.6L415.409 1024.35C414.161 1023.5 412.275 1023.1 409.8 1023.1V1023.4V1023.7C412.232 1023.7 413.972 1024.1 415.071 1024.85L415.24 1024.6ZM409.8 1023.4V1023.1H408.76V1023.4V1023.7H409.8V1023.4ZM408.76 1023.4H409.06V1019.64H408.76H408.46V1023.4H408.76ZM408.76 1019.64V1019.94H409.84V1019.64V1019.34H408.76V1019.64ZM409.84 1019.64L409.844 1019.94C412.027 1019.91 413.731 1019.55 414.918 1018.82L414.76 1018.56L414.602 1018.3C413.549 1018.96 411.973 1019.31 409.836 1019.34L409.84 1019.64ZM414.76 1018.56L414.915 1018.82C416.163 1018.06 416.78 1016.86 416.78 1015.28H416.48H416.18C416.18 1016.68 415.65 1017.67 414.605 1018.3L414.76 1018.56ZM416.48 1015.28H416.78C416.78 1013.93 416.34 1012.83 415.441 1012.02L415.24 1012.24L415.039 1012.46C415.793 1013.14 416.18 1014.07 416.18 1015.28H416.48ZM415.24 1012.24L415.445 1012.02C414.546 1011.18 413.289 1010.78 411.72 1010.78V1011.08V1011.38C413.191 1011.38 414.281 1011.75 415.035 1012.46L415.24 1012.24ZM411.72 1011.08V1010.78C410.176 1010.78 408.933 1011.18 408.035 1012.02L408.24 1012.24L408.445 1012.46C409.2 1011.75 410.278 1011.38 411.72 1011.38V1011.08ZM408.24 1012.24L408.039 1012.02C407.159 1012.81 406.633 1013.81 406.463 1015L406.76 1015.04L407.057 1015.08C407.207 1014.03 407.667 1013.16 408.441 1012.46L408.24 1012.24ZM406.76 1015.04V1014.74H402.32V1015.04V1015.34H406.76V1015.04ZM431.83 1029.08L432.124 1029.02L432.076 1028.78H431.83V1029.08ZM433.55 1032.12L433.364 1032.36L433.55 1032.12ZM441.27 1030.92L441.012 1030.77L441.27 1030.92ZM442.59 1023.28H442.89V1022.33L442.345 1023.11L442.59 1023.28ZM439.87 1025.4L439.986 1025.68L439.989 1025.68L439.87 1025.4ZM431.39 1025.08L431.254 1025.35L431.258 1025.35L431.39 1025.08ZM428.03 1021.92L427.769 1022.07L427.772 1022.07L428.03 1021.92ZM429.39 1009.8L429.176 1009.59L429.176 1009.59L429.39 1009.8ZM444.23 1010.8L443.976 1010.96L443.978 1010.96L444.23 1010.8ZM445.67 1030.32L445.38 1030.24L445.379 1030.25L445.67 1030.32ZM442.71 1035.28L442.896 1035.52L442.71 1035.28ZM430.23 1034.72L430.022 1034.94L430.23 1034.72ZM427.63 1029.08V1028.78H427.304L427.331 1029.1L427.63 1029.08ZM440.67 1020.8L440.449 1020.6L440.449 1020.6L440.67 1020.8ZM440.59 1012.52L440.369 1012.72L440.375 1012.73L440.59 1012.52ZM432.63 1012.56L432.41 1012.36L432.41 1012.36L432.63 1012.56ZM432.59 1020.72L432.364 1020.92L432.37 1020.92L432.59 1020.72ZM431.83 1029.08L431.536 1029.14C431.813 1030.53 432.417 1031.61 433.364 1032.36L433.55 1032.12L433.736 1031.88C432.923 1031.24 432.38 1030.3 432.124 1029.02L431.83 1029.08ZM433.55 1032.12L433.364 1032.36C434.313 1033.1 435.572 1033.46 437.11 1033.46V1033.16V1032.86C435.662 1032.86 434.547 1032.52 433.736 1031.88L433.55 1032.12ZM437.11 1033.16V1033.46C439.098 1033.46 440.589 1032.67 441.528 1031.07L441.27 1030.92L441.012 1030.77C440.191 1032.16 438.909 1032.86 437.11 1032.86V1033.16ZM441.27 1030.92L441.528 1031.07C442.452 1029.5 442.89 1026.89 442.89 1023.28H442.59H442.29C442.29 1026.87 441.848 1029.35 441.012 1030.77L441.27 1030.92ZM442.59 1023.28L442.345 1023.11C441.741 1023.96 440.882 1024.64 439.751 1025.12L439.87 1025.4L439.989 1025.68C441.205 1025.15 442.159 1024.41 442.835 1023.45L442.59 1023.28ZM439.87 1025.4L439.754 1025.12C438.648 1025.59 437.434 1025.82 436.11 1025.82V1026.12V1026.42C437.506 1026.42 438.799 1026.17 439.986 1025.68L439.87 1025.4ZM436.11 1026.12V1025.82C434.418 1025.82 432.89 1025.48 431.522 1024.81L431.39 1025.08L431.258 1025.35C432.716 1026.06 434.336 1026.42 436.11 1026.42V1026.12ZM431.39 1025.08L431.526 1024.81C430.164 1024.12 429.086 1023.11 428.288 1021.77L428.03 1021.92L427.772 1022.07C428.627 1023.51 429.789 1024.6 431.254 1025.35L431.39 1025.08ZM428.03 1021.92L428.291 1021.77C427.522 1020.41 427.13 1018.76 427.13 1016.8H426.83H426.53C426.53 1018.84 426.938 1020.6 427.769 1022.07L428.03 1021.92ZM426.83 1016.8H427.13C427.13 1013.93 427.963 1011.68 429.604 1010.01L429.39 1009.8L429.176 1009.59C427.403 1011.39 426.53 1013.81 426.53 1016.8H426.83ZM429.39 1009.8L429.604 1010.01C431.269 1008.32 433.558 1007.46 436.51 1007.46V1007.16V1006.86C433.435 1006.86 430.978 1007.76 429.176 1009.59L429.39 1009.8ZM436.51 1007.16V1007.46C440.065 1007.46 442.525 1008.64 443.976 1010.96L444.23 1010.8L444.484 1010.64C442.895 1008.1 440.209 1006.86 436.51 1006.86V1007.16ZM444.23 1010.8L443.978 1010.96C445.478 1013.29 446.25 1016.91 446.25 1021.88H446.55H446.85C446.85 1016.87 446.076 1013.11 444.482 1010.64L444.23 1010.8ZM446.55 1021.88H446.25C446.25 1025.31 445.958 1028.09 445.38 1030.24L445.67 1030.32L445.96 1030.4C446.556 1028.18 446.85 1025.33 446.85 1021.88H446.55ZM445.67 1030.32L445.379 1030.25C444.831 1032.38 443.874 1033.97 442.524 1035.04L442.71 1035.28L442.896 1035.52C444.373 1034.35 445.389 1032.63 445.961 1030.39L445.67 1030.32ZM442.71 1035.28L442.524 1035.04C441.181 1036.11 439.295 1036.66 436.83 1036.66V1036.96V1037.26C439.378 1037.26 441.413 1036.69 442.896 1035.52L442.71 1035.28ZM436.83 1036.96V1036.66C434.028 1036.66 431.913 1035.93 430.438 1034.5L430.23 1034.72L430.022 1034.94C431.641 1036.5 433.925 1037.26 436.83 1037.26V1036.96ZM430.23 1034.72L430.438 1034.5C428.947 1033.06 428.11 1031.25 427.929 1029.06L427.63 1029.08L427.331 1029.1C427.523 1031.44 428.419 1033.39 430.022 1034.94L430.23 1034.72ZM427.63 1029.08V1029.38H431.83V1029.08V1028.78H427.63V1029.08ZM436.91 1022.28V1022.58C438.576 1022.58 439.916 1022.06 440.891 1021L440.67 1020.8L440.449 1020.6C439.61 1021.51 438.444 1021.98 436.91 1021.98V1022.28ZM440.67 1020.8L440.891 1021C441.885 1019.92 442.37 1018.51 442.37 1016.8H442.07H441.77C441.77 1018.39 441.322 1019.65 440.449 1020.6L440.67 1020.8ZM442.07 1016.8H442.37C442.37 1014.91 441.861 1013.4 440.805 1012.31L440.59 1012.52L440.375 1012.73C441.292 1013.67 441.77 1015.01 441.77 1016.8H442.07ZM440.59 1012.52L440.81 1012.32C439.783 1011.2 438.377 1010.66 436.63 1010.66V1010.96V1011.26C438.243 1011.26 439.477 1011.76 440.37 1012.72L440.59 1012.52ZM436.63 1010.96V1010.66C434.881 1010.66 433.462 1011.22 432.41 1012.36L432.63 1012.56L432.85 1012.76C433.771 1011.77 435.019 1011.26 436.63 1011.26V1010.96ZM432.63 1012.56L432.41 1012.36C431.388 1013.46 430.89 1014.91 430.89 1016.68H431.19H431.49C431.49 1015.03 431.952 1013.74 432.85 1012.76L432.63 1012.56ZM431.19 1016.68H430.89C430.89 1018.37 431.376 1019.79 432.364 1020.92L432.59 1020.72L432.816 1020.52C431.937 1019.52 431.49 1018.25 431.49 1016.68H431.19ZM432.59 1020.72L432.37 1020.92C433.404 1022.04 434.937 1022.58 436.91 1022.58V1022.28V1021.98C435.043 1021.98 433.696 1021.48 432.81 1020.52L432.59 1020.72Z" fill="black" mask="url(#path-10-outside-2_97_40)"/>
<path d="M254.635 197.975V214.355H234.895V272H214.315V214.355H194.785V197.975H254.635ZM300.994 212.57C307.714 212.57 313.034 214.845 316.954 219.395C320.944 223.875 322.939 229.965 322.939 237.665V272H302.359V240.395C302.359 237.035 301.484 234.41 299.734 232.52C297.984 230.56 295.639 229.58 292.699 229.58C289.619 229.58 287.204 230.56 285.454 232.52C283.704 234.41 282.829 237.035 282.829 240.395V272H262.249V194.3H282.829V221.495C284.649 218.835 287.099 216.7 290.179 215.09C293.329 213.41 296.934 212.57 300.994 212.57ZM394.502 213.095V272H373.817V263.6C372.067 266.26 369.652 268.43 366.572 270.11C363.492 271.72 359.957 272.525 355.967 272.525C349.107 272.525 343.682 270.285 339.692 265.805C335.772 261.255 333.812 255.095 333.812 247.325V213.095H354.287V244.7C354.287 248.06 355.162 250.72 356.912 252.68C358.732 254.57 361.112 255.515 364.052 255.515C367.062 255.515 369.442 254.57 371.192 252.68C372.942 250.72 373.817 248.06 373.817 244.7V213.095H394.502ZM444.749 212.57C451.539 212.57 456.929 214.845 460.919 219.395C464.909 223.875 466.904 229.965 466.904 237.665V272H446.324V240.395C446.324 237.035 445.449 234.41 443.699 232.52C441.949 230.56 439.604 229.58 436.664 229.58C433.584 229.58 431.169 230.56 429.419 232.52C427.669 234.41 426.794 237.035 426.794 240.395V272H406.214V213.095H426.794V221.495C428.614 218.835 431.064 216.7 434.144 215.09C437.224 213.41 440.759 212.57 444.749 212.57ZM474.836 242.495C474.836 236.405 475.921 231.085 478.091 226.535C480.331 221.985 483.376 218.485 487.226 216.035C491.076 213.585 495.346 212.36 500.036 212.36C503.816 212.36 507.176 213.165 510.116 214.775C513.126 216.315 515.471 218.45 517.151 221.18V194.3H537.836V272H517.151V263.81C515.541 266.54 513.266 268.71 510.326 270.32C507.386 271.93 503.921 272.735 499.931 272.735C495.241 272.735 490.971 271.51 487.121 269.06C483.341 266.61 480.331 263.11 478.091 258.56C475.921 253.94 474.836 248.585 474.836 242.495ZM517.256 242.495C517.256 238.715 516.206 235.74 514.106 233.57C512.076 231.4 509.556 230.315 506.546 230.315C503.466 230.315 500.911 231.4 498.881 233.57C496.851 235.67 495.836 238.645 495.836 242.495C495.836 246.275 496.851 249.285 498.881 251.525C500.911 253.695 503.466 254.78 506.546 254.78C509.556 254.78 512.076 253.695 514.106 251.525C516.206 249.355 517.256 246.345 517.256 242.495ZM605.844 241.865C605.844 243.475 605.739 245.085 605.529 246.695H566.574C566.784 249.915 567.659 252.33 569.199 253.94C570.809 255.48 572.839 256.25 575.289 256.25C578.719 256.25 581.169 254.71 582.639 251.63H604.584C603.674 255.69 601.889 259.33 599.229 262.55C596.639 265.7 593.349 268.185 589.359 270.005C585.369 271.825 580.959 272.735 576.129 272.735C570.319 272.735 565.139 271.51 560.589 269.06C556.109 266.61 552.574 263.11 549.984 258.56C547.464 254.01 546.204 248.655 546.204 242.495C546.204 236.335 547.464 231.015 549.984 226.535C552.504 221.985 556.004 218.485 560.484 216.035C565.034 213.585 570.249 212.36 576.129 212.36C581.939 212.36 587.084 213.55 591.564 215.93C596.044 218.31 599.544 221.74 602.064 226.22C604.584 230.63 605.844 235.845 605.844 241.865ZM584.844 236.72C584.844 234.2 584.004 232.24 582.324 230.84C580.644 229.37 578.544 228.635 576.024 228.635C573.504 228.635 571.439 229.335 569.829 230.735C568.219 232.065 567.169 234.06 566.679 236.72H584.844ZM634.846 223.49C637.156 220.13 639.956 217.47 643.246 215.51C646.536 213.55 650.071 212.57 653.851 212.57V234.515H648.076C643.596 234.515 640.271 235.39 638.101 237.14C635.931 238.89 634.846 241.935 634.846 246.275V272H614.266V213.095H634.846V223.49Z" fill="black"/>
<path d="M431.968 475.018C465.824 474.37 494.92 490.975 508.333 522.997C538.292 522.07 559.826 542.774 567.161 570.947C595.754 542.06 642.289 546.417 660.952 583.318C684.908 586.669 700.076 604.056 699.724 628.333C736.133 637.512 744.726 684.083 719.758 709.279C699.579 729.643 668.278 722.075 642.435 722.292C621.007 751.185 573.534 752.673 556.968 719.416L555.837 719.576C532.984 722.886 508.889 718.998 486.119 716.91C461.355 746.221 437.71 753.714 399.322 743.192L398.952 743.021C387.017 737.415 371.767 728.594 366.992 715.565C344.388 719.694 315.386 723.48 293.681 714.891C282.138 730.528 267.078 742.668 246.667 743.301C221.664 744.075 212.825 734.347 197.008 719.416C174.996 724.41 153.458 727.15 134.325 711.711C101.894 685.541 116.073 631.53 149.098 628.333C149.171 604.512 168.192 580.053 193.115 582.067C210.696 545.575 268.299 541.341 291.8 574.241C294.148 577.527 295.741 581.237 297.978 584.587L298.214 584.932C296.216 545.083 323.377 521.481 362.046 521.867C370.735 492.387 402.999 475.989 431.968 475.018Z" fill="#010101"/>
<path d="M368.918 531.11C375.79 488.216 431.81 474.557 467.387 491.077C485.462 499.47 495.158 512.884 501.731 531.11L508.846 531.098C535.291 531.302 556.885 551.826 559.132 578.069C559.365 580.783 558.329 591.483 559.716 593.345C560.095 593.854 584.318 599.891 595.357 611.111C617.846 628.335 617.517 665.3 601.209 686.342C576.414 718.331 531.157 713.56 495.504 709.175C491.177 708.644 486.479 708.372 482.276 707.276C467.51 724.418 457.113 736.722 431.852 738.652C411.119 740.234 389.203 732.559 376.503 715.596C375.014 713.606 372.646 709.148 370.841 707.724C365.35 703.39 312.346 723.957 281.69 697.627C267.649 685.567 258.885 667.853 259.948 649.214C259.452 620.507 278.508 595.492 308.17 594.218C301.557 554.551 327.092 524.58 368.918 531.11Z" fill="#514E4E"/>
<path d="M595.357 611.11C617.846 628.334 617.517 665.3 601.209 686.341C576.414 718.331 531.157 713.559 495.504 709.175C491.177 708.643 486.479 708.371 482.276 707.276C467.51 724.418 457.113 736.721 431.852 738.651C411.119 740.234 389.203 732.559 376.503 715.596C375.014 713.606 372.646 709.148 370.841 707.723C365.35 703.389 312.346 723.956 281.69 697.627C267.649 685.567 258.885 667.853 259.948 649.213C262.637 652.241 264.437 656.572 266.708 659.969C290.034 694.854 333.437 693.969 368.918 682.303C378.569 703.842 403.365 719.186 427.069 714.404C449.337 709.912 461.539 693.491 473.119 675.859C504.68 696.237 549.284 704.06 579.388 676.225C591.98 664.583 599.922 648.124 597.871 630.813C597.117 624.45 595 618.084 595.325 611.645L595.357 611.11Z" fill="#3C3A3A"/>
<path d="M433.512 522.997C451.568 517.666 469.453 535.16 476.425 550.352C497.02 526.901 535.582 538.707 536.443 576.347C534.808 570.797 532.615 565.883 530.047 560.724C514.519 543.744 487.797 536.999 473.118 558.408C458.402 535.484 446.63 520.078 415.181 531.11C420.937 526.556 426.19 523.842 433.512 522.997Z" fill="#868585"/>
<path d="M358.02 538.059C370.156 535.577 383.901 542.633 391.038 552.095C368.626 542.375 345.247 545.682 329.837 565.926C323.625 575.423 322.201 583.952 322.377 595.101C312.779 569.123 330.067 541.24 358.02 538.059Z" fill="#BEBDBD"/>
<path d="M295.672 603.74C299.184 603.472 305.704 604.438 307.117 608.359C305.845 615.316 290.783 610.185 281.412 622.033C279.507 624.632 277.873 627.516 276.152 630.245C277.112 616.427 281.015 607.147 295.672 603.74Z" fill="#868585"/>
<path d="M394.495 505.507C398.087 505.138 401.854 506.198 403.564 509.678C407.541 517.776 391.127 515.001 383.018 518.557C380.333 519.903 377.779 521.45 375.207 522.997C379.009 513.384 383.713 507.821 394.495 505.507Z" fill="#BEBDBD"/>
<path d="M215.566 570.947C233.042 549.971 279.893 560.855 289.756 589.319C282.26 592.066 275.874 596.484 269.921 601.748L268.434 603.74C244.175 632.655 244.84 674.007 272.283 700.366C276.763 704.266 281.054 707.692 286.248 710.63C280.715 717.432 275.373 723.453 267.846 728.126C244.919 742.362 215.178 733.123 201.307 710.63C189.21 713.91 177.164 716.795 164.52 715.482C140.148 712.952 120.886 693.76 123.858 668.389C125.902 649.655 139.848 638.055 157.829 634.78C155.902 609.134 171.591 589.376 198.072 590.954C199.054 588.892 199.968 586.792 201.307 584.932C203.981 579.726 209.485 571.716 215.566 570.947Z" fill="#514E4E"/>
<path d="M201.307 710.63C189.21 713.91 177.164 716.795 164.52 715.482C140.148 712.952 120.886 693.76 123.858 668.389C123.916 670.259 123.954 671.528 124.924 673.183C141.739 701.868 171.527 705.444 201.307 698.124C209.573 707.985 218.189 717.002 231.749 718.12C246.577 719.344 263.131 712.305 272.283 700.366C276.763 704.266 281.054 707.692 286.248 710.63C280.715 717.432 275.373 723.453 267.846 728.126C244.919 742.361 215.178 733.123 201.307 710.63Z" fill="#3C3A3A"/>
<path d="M228.422 594.218C244.159 581.861 261.125 582.791 269.921 601.748L268.434 603.74C253.844 594.354 250.77 587.412 228.422 594.218Z" fill="#868585"/>
<path d="M215.566 570.947C217.451 570.747 219.918 570.15 221.487 571.526C230.077 579.054 213.214 580.153 210.233 581.556C207.734 582.734 202.647 588.564 201.307 584.932C203.98 579.726 209.485 571.716 215.566 570.947Z" fill="#BEBDBD"/>
<path d="M197.008 594.218C205.49 594.415 212.666 597.689 218.586 603.74C200.055 600.833 185.095 601.429 173.446 618.623C169.51 623.789 167.644 629.886 165.241 635.832C163.844 614.216 174.377 596.486 197.008 594.218Z" fill="#BEBDBD"/>
<path d="M145.334 640.954C148.489 640.495 150.211 642.297 152.422 644.242C146.502 646.296 141.916 648.725 136.87 652.435L132.518 655.864C134.452 648.386 137.9 643.969 145.334 640.954Z" fill="#BEBDBD"/>
<path d="M578.392 572.535C598.274 549.493 644.244 560.545 654.853 590.954C679.684 594.64 695.111 607.402 691.092 634.442L691.038 634.779C704.316 636.284 715.21 643.886 720.91 655.864C734.127 679.183 718.422 710.066 692.184 714.368C677.976 716.697 654.243 713.985 638.5 714.071L638.017 714.424C634.057 717.369 631.193 721.482 627.57 724.795C607.624 743.03 582.136 737.814 565.753 717.889L569.849 716.909C610.184 705.615 633.062 665.918 616.689 626.162C608.826 607.067 595.14 596.954 576.639 589.319C573.976 588.302 571.18 587.625 568.43 586.88C568.1 580.205 573.731 576.471 578.392 572.535Z" fill="#514E4E"/>
<path d="M720.91 655.864C734.127 679.183 718.422 710.066 692.184 714.368C677.976 716.697 654.243 713.985 638.5 714.071L638.017 714.424C634.057 717.369 631.193 721.482 627.57 724.795C607.624 743.03 582.136 737.814 565.753 717.889L569.849 716.909C571.799 719.647 582.965 720.333 586.369 720.516C600.374 721.272 613.621 716.942 623.693 706.877C626.428 704.143 628.21 700.629 631.205 698.124C652.612 700.038 666.185 710.481 691.12 697.313C710.498 687.079 714.834 675.652 720.91 655.864Z" fill="#3C3A3A"/>
<path d="M578.392 572.536C581.636 572.306 585.312 571.925 587.978 574.201C595.677 580.767 583.532 582.071 580.569 583.714C578.462 584.881 578.362 587.995 576.639 589.32C573.976 588.303 571.179 587.625 568.429 586.88C568.099 580.205 573.731 576.471 578.392 572.536Z" fill="#BEBDBD"/>
<path d="M608.881 584.931C623.194 583.128 633.957 591.312 640.154 603.739C660.392 587.717 681.414 601.875 685.12 624.59C681.467 620.283 678.887 615.295 674.98 611.11C666.131 601.937 644.407 593.287 638.5 609.574C626.337 590.575 612.485 584.501 590.754 594.217C595.931 588.393 600.949 585.499 608.881 584.931Z" fill="#868585"/>
<path d="M603.524 792.504C614.033 792.509 649.459 787.752 642.474 809.461C639.542 818.577 626.549 836.785 621.377 846.258C628.607 846.231 644.957 844.983 650.646 847.998C667.099 856.723 649.489 874.759 643.341 883.084C630.075 901.046 610.679 923.801 600.014 943.074C595.033 948.445 590.397 959.801 581.12 956.893C567.452 952.608 573.576 938.677 576.517 929.222C580.733 915.666 585.575 902.416 590.303 889.038C579.722 888.689 562.114 892.881 557.192 879.979C553.732 870.909 559.39 864.222 563.7 856.693L592.583 807.124C595.583 802.017 597.566 794.667 603.524 792.504ZM575.255 876.814C580.166 869.413 583.777 861.256 588.377 853.676L614.862 808.734C615.561 807.547 616.456 806.571 617.033 805.306L616.65 804.766L614.456 804.579C612.421 804.56 610.386 804.527 608.351 804.579C602.727 813.023 569.596 868.897 568.285 874.318C569.564 877.28 572.502 876.773 575.255 876.814Z" fill="black"/>
<path d="M614.456 804.579C619.857 804.611 625.459 804.272 630.835 804.579C628.634 812.122 615.386 832.518 610.222 840.788C607.347 845.393 598.11 856.096 608.292 858.612C616.594 860.663 638.131 856.083 644.43 859.321C644.987 860.878 606.952 911.383 603.784 915.678C598.678 922.603 591.442 931.168 587.228 938.235C590.491 924.881 595.357 912.033 599.716 899.013C609.405 870.064 600.704 876.956 575.256 876.814C580.166 869.413 583.777 861.256 588.377 853.676L614.862 808.734C615.561 807.547 616.456 806.571 617.033 805.306L616.651 804.766L614.456 804.579Z" fill="#FECA04"/>
<path d="M243.663 792.504C254.561 789.268 281.869 792.053 276.567 810.332C274.59 817.149 261.199 837.901 257.081 846.257C264.001 846.236 277.379 844.228 282.873 847.349C300.48 857.348 280.377 877 273.472 886.337L244.103 926.391C239.432 932.839 234.438 939.086 230.242 945.865C226.028 950.431 222.242 960.084 214.471 957.755C200.448 953.551 208.672 934.353 211.497 925.364C215.317 913.205 219.441 901.159 223.372 889.038C195.552 888.979 181.905 887.171 199.877 855.817L226.979 808.789C231.508 800.942 233.708 793.831 243.663 792.504ZM211.918 876.813C213.299 870.313 233.761 836.873 238.87 828.045C243.345 820.311 248.374 812.894 251.73 804.579C249.045 804.571 246.347 804.511 243.663 804.579C235.886 816.763 205.136 868.517 203.926 874.716C205.076 877.684 209.41 876.836 211.918 876.813Z" fill="black"/>
<path d="M251.731 804.579C253.964 804.437 264.724 802.843 264.884 806.458C265.154 812.553 240.678 843.936 239.1 853.076C237.264 863.709 272.356 855.532 277.3 858.483C278.738 861.385 224.114 933.367 219.841 939.523C224.78 920.214 232.318 901.319 237.33 881.715C233.691 873.429 220.119 876.863 211.918 876.814C213.299 870.313 233.762 836.873 238.87 828.045C243.345 820.312 248.375 812.895 251.731 804.579Z" fill="#FECA04"/>
<path d="M428.601 780.236C439.632 779.916 462.737 776.408 467.426 789.256L468.12 791.149C471.969 801.76 455.286 822.555 450.416 832.862C460.171 833.179 494.153 829.094 486.629 850.872C483.905 858.753 456.813 895.644 450.762 904.675C446.291 911.348 439.784 918.375 437.322 926.082C430.967 933.532 419.761 947.195 410.339 931.668C405.39 923.514 420.425 885.626 423.201 874.286C415.714 874.311 407.652 874.887 400.218 874.151C388.599 873 382.1 863.141 387.279 852.708C391.805 843.591 423.547 783.765 428.601 780.236ZM404.681 862.3C407.06 856.739 410.769 851.509 413.795 846.26C420.937 833.873 438.202 804.316 442.013 792.624C439.256 792.626 436.495 792.654 433.736 792.624C429.04 804.666 398.388 853.904 397.952 860.586C399.357 862.605 402.492 862.229 404.681 862.3Z" fill="black"/>
<path d="M442.013 792.624C444.78 792.596 456.617 790.854 456.39 795.268C456.132 800.282 435.995 828.98 433.648 837.895C430.988 847.996 445.384 845.519 451.19 845.455C459.102 845.367 467.044 845.198 474.951 845.41C469.284 858.535 451.94 880.359 443.581 892.9L429.456 914.555C426.687 918.835 424.07 923.481 420.745 927.354C423.502 911.721 432.86 885.872 437.322 869.365C432.542 857.473 416.753 862.602 404.681 862.3C407.06 856.739 410.769 851.509 413.795 846.26C420.937 833.873 438.202 804.315 442.013 792.624Z" fill="#FECA04"/>
</svg>
