<svg width="849" height="1183" viewBox="0 0 849 1183" fill="none" xmlns="http://www.w3.org/2000/svg">
<rect x="5" y="5" width="839" height="1173" rx="45" fill="white"/>
<rect x="5" y="5" width="839" height="1173" rx="45" stroke="black" stroke-width="10"/>
<circle cx="786.5" cy="1124.5" r="11.5" fill="black"/>
<circle cx="786.5" cy="59.5" r="11.5" fill="black"/>
<path d="M77 1124.5C77 1130.85 71.8513 1136 65.5 1136C59.1487 1136 54 1130.85 54 1124.5C54 1118.15 59.1487 1113 65.5 1113C71.8513 1113 77 1118.15 77 1124.5Z" fill="black"/>
<path d="M77 59.5C77 65.8513 71.8513 71 65.5 71C59.1487 71 54 65.8513 54 59.5C54 53.1487 59.1487 48 65.5 48C71.8513 48 77 53.1487 77 59.5Z" fill="black"/>
<mask id="path-6-inside-1_97_46" fill="white">
<path d="M708 48C713.523 48 717.934 52.4996 718.616 57.9801C723.122 94.1833 751.817 122.878 788.02 127.384C793.5 128.066 798 132.477 798 138V1046C798 1051.52 793.5 1055.93 788.02 1056.62C751.817 1061.12 723.122 1089.82 718.616 1126.02C717.934 1131.5 713.523 1136 708 1136H141C135.477 1136 131.066 1131.5 130.384 1126.02C125.878 1089.82 97.1833 1061.12 60.9801 1056.62C55.4996 1055.93 51 1051.52 51 1046V138C51 132.477 55.4996 128.066 60.9801 127.384C97.1833 122.878 125.878 94.1833 130.384 57.9801C131.066 52.4996 135.477 48 141 48H708Z"/>
</mask>
<path d="M708 48C713.523 48 717.934 52.4996 718.616 57.9801C723.122 94.1833 751.817 122.878 788.02 127.384C793.5 128.066 798 132.477 798 138V1046C798 1051.52 793.5 1055.93 788.02 1056.62C751.817 1061.12 723.122 1089.82 718.616 1126.02C717.934 1131.5 713.523 1136 708 1136H141C135.477 1136 131.066 1131.5 130.384 1126.02C125.878 1089.82 97.1833 1061.12 60.9801 1056.62C55.4996 1055.93 51 1051.52 51 1046V138C51 132.477 55.4996 128.066 60.9801 127.384C97.1833 122.878 125.878 94.1833 130.384 57.9801C131.066 52.4996 135.477 48 141 48H708Z" fill="#77B866"/>
<path d="M130.384 1126.02L138.322 1125.03L130.384 1126.02ZM718.616 1126.02L710.678 1125.03L718.616 1126.02ZM788.02 1056.62L789.008 1064.56L788.02 1056.62ZM718.616 57.9801L726.555 56.9922L718.616 57.9801ZM718.616 57.9801L710.678 58.9681C715.635 98.8063 747.194 130.365 787.032 135.322L788.02 127.384L789.008 119.445C756.44 115.392 730.608 89.5603 726.555 56.9922L718.616 57.9801ZM798 138H790V1046H798H806V138H798ZM788.02 1056.62L787.032 1048.68C747.194 1053.64 715.635 1085.19 710.678 1125.03L718.616 1126.02L726.555 1127.01C730.608 1094.44 756.44 1068.61 789.008 1064.56L788.02 1056.62ZM708 1136V1128H141V1136V1144H708V1136ZM130.384 1126.02L138.322 1125.03C133.365 1085.19 101.806 1053.64 61.9681 1048.68L60.9801 1056.62L59.9922 1064.56C92.5603 1068.61 118.392 1094.44 122.445 1127.01L130.384 1126.02ZM51 1046H59V138H51H43V1046H51ZM60.9801 127.384L61.9681 135.322C101.806 130.365 133.365 98.8063 138.322 58.9681L130.384 57.9801L122.445 56.9922C118.392 89.5603 92.5603 115.392 59.9922 119.445L60.9801 127.384ZM141 48V56H708V48V40H141V48ZM130.384 57.9801L138.322 58.9681C138.438 58.0389 138.872 57.2306 139.427 56.6958C139.954 56.1887 140.494 56 141 56V48V40C130.84 40 123.547 48.1329 122.445 56.9922L130.384 57.9801ZM51 138H59C59 137.494 59.1887 136.954 59.6958 136.427C60.2306 135.872 61.0389 135.438 61.9681 135.322L60.9801 127.384L59.9922 119.445C51.1329 120.547 43 127.84 43 138H51ZM60.9801 1056.62L61.9681 1048.68C61.0389 1048.56 60.2306 1048.13 59.6958 1047.57C59.1887 1047.05 59 1046.51 59 1046H51H43C43 1056.16 51.1329 1063.45 59.9922 1064.56L60.9801 1056.62ZM141 1136V1128C140.494 1128 139.954 1127.81 139.427 1127.3C138.872 1126.77 138.438 1125.96 138.322 1125.03L130.384 1126.02L122.445 1127.01C123.547 1135.87 130.84 1144 141 1144V1136ZM718.616 1126.02L710.678 1125.03C710.562 1125.96 710.128 1126.77 709.573 1127.3C709.046 1127.81 708.506 1128 708 1128V1136V1144C718.16 1144 725.453 1135.87 726.555 1127.01L718.616 1126.02ZM798 1046H790C790 1046.51 789.811 1047.05 789.304 1047.57C788.769 1048.13 787.961 1048.56 787.032 1048.68L788.02 1056.62L789.008 1064.56C797.867 1063.45 806 1056.16 806 1046H798ZM788.02 127.384L787.032 135.322C787.961 135.438 788.769 135.872 789.304 136.427C789.811 136.954 790 137.494 790 138H798H806C806 127.84 797.867 120.547 789.008 119.445L788.02 127.384ZM718.616 57.9801L726.555 56.9922C725.453 48.1329 718.16 40 708 40V48V56C708.506 56 709.046 56.1887 709.573 56.6958C710.128 57.2306 710.562 58.0389 710.678 58.9681L718.616 57.9801Z" fill="black" mask="url(#path-6-inside-1_97_46)"/>
<path d="M690 102C695.523 102 699.911 106.512 700.837 111.957C705.019 136.563 724.437 155.981 749.043 160.163C754.488 161.089 759 165.477 759 171V1014C759 1019.52 754.488 1023.91 749.043 1024.84C724.711 1028.97 705.454 1048 700.984 1072.22C699.993 1077.59 695.633 1082 690.175 1082H158.825C153.367 1082 149.007 1077.59 148.016 1072.22C143.546 1048 124.288 1028.97 99.9568 1024.84C94.5121 1023.91 90 1019.52 90 1014V171C90 165.477 94.512 161.089 99.9568 160.163C124.563 155.981 143.981 136.563 148.163 111.957C149.089 106.512 153.477 102 159 102H690Z" fill="#A3CC98"/>
<path d="M281.84 408.595C277.873 408.595 274.303 407.915 271.13 406.555C267.957 405.138 265.463 403.155 263.65 400.605C261.837 398.055 260.93 395.08 260.93 391.68H271.3C271.527 394.23 272.518 396.327 274.275 397.97C276.088 399.613 278.61 400.435 281.84 400.435C285.183 400.435 287.79 399.642 289.66 398.055C291.53 396.412 292.465 394.315 292.465 391.765C292.465 389.782 291.87 388.167 290.68 386.92C289.547 385.673 288.102 384.71 286.345 384.03C284.645 383.35 282.265 382.613 279.205 381.82C275.352 380.8 272.207 379.78 269.77 378.76C267.39 377.683 265.35 376.04 263.65 373.83C261.95 371.62 261.1 368.673 261.1 364.99C261.1 361.59 261.95 358.615 263.65 356.065C265.35 353.515 267.73 351.56 270.79 350.2C273.85 348.84 277.392 348.16 281.415 348.16C287.138 348.16 291.813 349.605 295.44 352.495C299.123 355.328 301.163 359.238 301.56 364.225H290.85C290.68 362.072 289.66 360.23 287.79 358.7C285.92 357.17 283.455 356.405 280.395 356.405C277.618 356.405 275.352 357.113 273.595 358.53C271.838 359.947 270.96 361.987 270.96 364.65C270.96 366.463 271.498 367.965 272.575 369.155C273.708 370.288 275.125 371.195 276.825 371.875C278.525 372.555 280.848 373.292 283.795 374.085C287.705 375.162 290.878 376.238 293.315 377.315C295.808 378.392 297.905 380.063 299.605 382.33C301.362 384.54 302.24 387.515 302.24 391.255C302.24 394.258 301.418 397.092 299.775 399.755C298.188 402.418 295.837 404.572 292.72 406.215C289.66 407.802 286.033 408.595 281.84 408.595ZM310.444 384.37C310.444 379.667 311.407 375.502 313.334 371.875C315.317 368.248 317.98 365.443 321.324 363.46C324.724 361.42 328.464 360.4 332.544 360.4C336.227 360.4 339.429 361.137 342.149 362.61C344.925 364.027 347.135 365.812 348.779 367.965V361.165H358.554V408H348.779V401.03C347.135 403.24 344.897 405.082 342.064 406.555C339.23 408.028 336 408.765 332.374 408.765C328.35 408.765 324.667 407.745 321.324 405.705C317.98 403.608 315.317 400.718 313.334 397.035C311.407 393.295 310.444 389.073 310.444 384.37ZM348.779 384.54C348.779 381.31 348.099 378.505 346.739 376.125C345.435 373.745 343.707 371.932 341.554 370.685C339.4 369.438 337.077 368.815 334.584 368.815C332.09 368.815 329.767 369.438 327.614 370.685C325.46 371.875 323.704 373.66 322.344 376.04C321.04 378.363 320.389 381.14 320.389 384.37C320.389 387.6 321.04 390.433 322.344 392.87C323.704 395.307 325.46 397.177 327.614 398.48C329.824 399.727 332.147 400.35 334.584 400.35C337.077 400.35 339.4 399.727 341.554 398.48C343.707 397.233 345.435 395.42 346.739 393.04C348.099 390.603 348.779 387.77 348.779 384.54ZM382.586 369.07V394.995C382.586 396.752 382.983 398.027 383.776 398.82C384.626 399.557 386.043 399.925 388.026 399.925H393.976V408H386.326C381.963 408 378.62 406.98 376.296 404.94C373.973 402.9 372.811 399.585 372.811 394.995V369.07H367.286V361.165H372.811V349.52H382.586V361.165H393.976V369.07H382.586ZM445.322 361.165V408H435.632V402.475C434.102 404.402 432.091 405.932 429.597 407.065C427.161 408.142 424.554 408.68 421.777 408.68C418.094 408.68 414.779 407.915 411.832 406.385C408.942 404.855 406.647 402.588 404.947 399.585C403.304 396.582 402.482 392.955 402.482 388.705V361.165H412.087V387.26C412.087 391.453 413.136 394.683 415.232 396.95C417.329 399.16 420.191 400.265 423.817 400.265C427.444 400.265 430.306 399.16 432.402 396.95C434.556 394.683 435.632 391.453 435.632 387.26V361.165H445.322ZM467.797 367.965C469.214 365.585 471.084 363.743 473.407 362.44C475.787 361.08 478.592 360.4 481.822 360.4V370.43H479.357C475.561 370.43 472.671 371.393 470.687 373.32C468.761 375.247 467.797 378.59 467.797 383.35V408H458.107V361.165H467.797V367.965ZM514.359 360.4C518.043 360.4 521.329 361.165 524.219 362.695C527.166 364.225 529.461 366.492 531.104 369.495C532.748 372.498 533.569 376.125 533.569 380.375V408H523.964V381.82C523.964 377.627 522.916 374.425 520.819 372.215C518.723 369.948 515.861 368.815 512.234 368.815C508.608 368.815 505.718 369.948 503.564 372.215C501.468 374.425 500.419 377.627 500.419 381.82V408H490.729V361.165H500.419V366.52C502.006 364.593 504.018 363.092 506.454 362.015C508.948 360.938 511.583 360.4 514.359 360.4ZM566.245 408.765C561.825 408.765 557.83 407.773 554.26 405.79C550.69 403.75 547.885 400.917 545.845 397.29C543.805 393.607 542.785 389.357 542.785 384.54C542.785 379.78 543.833 375.558 545.93 371.875C548.026 368.192 550.888 365.358 554.515 363.375C558.141 361.392 562.193 360.4 566.67 360.4C571.146 360.4 575.198 361.392 578.825 363.375C582.451 365.358 585.313 368.192 587.41 371.875C589.506 375.558 590.555 379.78 590.555 384.54C590.555 389.3 589.478 393.522 587.325 397.205C585.171 400.888 582.225 403.75 578.485 405.79C574.801 407.773 570.721 408.765 566.245 408.765ZM566.245 400.35C568.738 400.35 571.061 399.755 573.215 398.565C575.425 397.375 577.21 395.59 578.57 393.21C579.93 390.83 580.61 387.94 580.61 384.54C580.61 381.14 579.958 378.278 578.655 375.955C577.351 373.575 575.623 371.79 573.47 370.6C571.316 369.41 568.993 368.815 566.5 368.815C564.006 368.815 561.683 369.41 559.53 370.6C557.433 371.79 555.761 373.575 554.515 375.955C553.268 378.278 552.645 381.14 552.645 384.54C552.645 389.583 553.92 393.493 556.47 396.27C559.076 398.99 562.335 400.35 566.245 400.35Z" fill="black"/>
<path d="M272.81 272.735C264.2 272.735 257.13 270.705 251.6 266.645C246.07 262.515 243.095 256.635 242.675 249.005H264.62C264.83 251.595 265.6 253.485 266.93 254.675C268.26 255.865 269.975 256.46 272.075 256.46C273.965 256.46 275.505 256.005 276.695 255.095C277.955 254.115 278.585 252.785 278.585 251.105C278.585 248.935 277.57 247.255 275.54 246.065C273.51 244.875 270.22 243.545 265.67 242.075C260.84 240.465 256.92 238.925 253.91 237.455C250.97 235.915 248.38 233.71 246.14 230.84C243.97 227.9 242.885 224.085 242.885 219.395C242.885 214.635 244.075 210.575 246.455 207.215C248.835 203.785 252.125 201.195 256.325 199.445C260.525 197.695 265.285 196.82 270.605 196.82C279.215 196.82 286.075 198.85 291.185 202.91C296.365 206.9 299.13 212.535 299.48 219.815H277.115C277.045 217.575 276.345 215.895 275.015 214.775C273.755 213.655 272.11 213.095 270.08 213.095C268.54 213.095 267.28 213.55 266.3 214.46C265.32 215.37 264.83 216.665 264.83 218.345C264.83 219.745 265.355 220.97 266.405 222.02C267.525 223 268.89 223.875 270.5 224.645C272.11 225.345 274.49 226.255 277.64 227.375C282.33 228.985 286.18 230.595 289.19 232.205C292.27 233.745 294.895 235.95 297.065 238.82C299.305 241.62 300.425 245.19 300.425 249.53C300.425 253.94 299.305 257.895 297.065 261.395C294.895 264.895 291.71 267.66 287.51 269.69C283.38 271.72 278.48 272.735 272.81 272.735ZM306.632 242.495C306.632 236.405 307.717 231.085 309.887 226.535C312.127 221.985 315.137 218.485 318.917 216.035C322.767 213.585 327.037 212.36 331.727 212.36C335.787 212.36 339.287 213.165 342.227 214.775C345.167 216.385 347.442 218.555 349.052 221.285V213.095H369.632V272H349.052V263.81C347.442 266.54 345.132 268.71 342.122 270.32C339.182 271.93 335.717 272.735 331.727 272.735C327.037 272.735 322.767 271.51 318.917 269.06C315.137 266.61 312.127 263.11 309.887 258.56C307.717 253.94 306.632 248.585 306.632 242.495ZM349.052 242.495C349.052 238.715 348.002 235.74 345.902 233.57C343.872 231.4 341.352 230.315 338.342 230.315C335.262 230.315 332.707 231.4 330.677 233.57C328.647 235.67 327.632 238.645 327.632 242.495C327.632 246.275 328.647 249.285 330.677 251.525C332.707 253.695 335.262 254.78 338.342 254.78C341.352 254.78 343.872 253.695 345.902 251.525C348.002 249.355 349.052 246.345 349.052 242.495ZM416.114 254.465V272H407.189C392.139 272 384.614 264.545 384.614 249.635V230.21H377.369V213.095H384.614V198.815H405.299V213.095H416.009V230.21H405.299V249.95C405.299 251.56 405.649 252.715 406.349 253.415C407.119 254.115 408.379 254.465 410.129 254.465H416.114ZM485.824 213.095V272H465.139V263.6C463.389 266.26 460.974 268.43 457.894 270.11C454.814 271.72 451.279 272.525 447.289 272.525C440.429 272.525 435.004 270.285 431.014 265.805C427.094 261.255 425.134 255.095 425.134 247.325V213.095H445.609V244.7C445.609 248.06 446.484 250.72 448.234 252.68C450.054 254.57 452.434 255.515 455.374 255.515C458.384 255.515 460.764 254.57 462.514 252.68C464.264 250.72 465.139 248.06 465.139 244.7V213.095H485.824ZM518.116 223.49C520.426 220.13 523.226 217.47 526.516 215.51C529.806 213.55 533.341 212.57 537.121 212.57V234.515H531.346C526.866 234.515 523.541 235.39 521.371 237.14C519.201 238.89 518.116 241.935 518.116 246.275V272H497.536V213.095H518.116V223.49ZM583.034 212.57C589.824 212.57 595.214 214.845 599.204 219.395C603.194 223.875 605.189 229.965 605.189 237.665V272H584.609V240.395C584.609 237.035 583.734 234.41 581.984 232.52C580.234 230.56 577.889 229.58 574.949 229.58C571.869 229.58 569.454 230.56 567.704 232.52C565.954 234.41 565.079 237.035 565.079 240.395V272H544.499V213.095H565.079V221.495C566.899 218.835 569.349 216.7 572.429 215.09C575.509 213.41 579.044 212.57 583.034 212.57Z" fill="black"/>
<mask id="path-11-outside-2_97_46" maskUnits="userSpaceOnUse" x="400" y="1006" width="49" height="32" fill="black">
<rect fill="white" x="400" y="1006" width="49" height="32"/>
<path d="M400.84 1030.92V1027.48L414.28 1008.2H419.8V1026.96H423.52V1030.92H419.8V1037H415.32V1030.92H400.84ZM415.52 1012.84L406.08 1026.96H415.52V1012.84ZM442.978 1014.6C442.685 1013.37 442.152 1012.45 441.378 1011.84C440.605 1011.23 439.525 1010.92 438.138 1010.92C436.032 1010.92 434.458 1011.73 433.418 1013.36C432.378 1014.96 431.832 1017.63 431.778 1021.36C432.472 1020.19 433.485 1019.28 434.818 1018.64C436.152 1018 437.592 1017.68 439.138 1017.68C440.898 1017.68 442.445 1018.07 443.778 1018.84C445.138 1019.59 446.192 1020.68 446.938 1022.12C447.712 1023.56 448.098 1025.28 448.098 1027.28C448.098 1029.15 447.725 1030.81 446.978 1032.28C446.258 1033.75 445.178 1034.91 443.738 1035.76C442.298 1036.59 440.565 1037 438.538 1037C435.792 1037 433.632 1036.4 432.058 1035.2C430.512 1033.97 429.418 1032.25 428.778 1030.04C428.165 1027.83 427.858 1025.07 427.858 1021.76C427.858 1012 431.298 1007.12 438.178 1007.12C440.845 1007.12 442.938 1007.84 444.458 1009.28C446.005 1010.72 446.912 1012.49 447.178 1014.6H442.978ZM438.138 1021.52C436.512 1021.52 435.125 1022.01 433.978 1023C432.858 1023.96 432.298 1025.36 432.298 1027.2C432.298 1029.04 432.818 1030.51 433.858 1031.6C434.925 1032.67 436.405 1033.2 438.298 1033.2C439.978 1033.2 441.298 1032.68 442.258 1031.64C443.245 1030.6 443.738 1029.21 443.738 1027.48C443.738 1025.67 443.258 1024.23 442.298 1023.16C441.365 1022.07 439.978 1021.52 438.138 1021.52Z"/>
</mask>
<path d="M400.84 1030.92V1027.48L414.28 1008.2H419.8V1026.96H423.52V1030.92H419.8V1037H415.32V1030.92H400.84ZM415.52 1012.84L406.08 1026.96H415.52V1012.84ZM442.978 1014.6C442.685 1013.37 442.152 1012.45 441.378 1011.84C440.605 1011.23 439.525 1010.92 438.138 1010.92C436.032 1010.92 434.458 1011.73 433.418 1013.36C432.378 1014.96 431.832 1017.63 431.778 1021.36C432.472 1020.19 433.485 1019.28 434.818 1018.64C436.152 1018 437.592 1017.68 439.138 1017.68C440.898 1017.68 442.445 1018.07 443.778 1018.84C445.138 1019.59 446.192 1020.68 446.938 1022.12C447.712 1023.56 448.098 1025.28 448.098 1027.28C448.098 1029.15 447.725 1030.81 446.978 1032.28C446.258 1033.75 445.178 1034.91 443.738 1035.76C442.298 1036.59 440.565 1037 438.538 1037C435.792 1037 433.632 1036.4 432.058 1035.2C430.512 1033.97 429.418 1032.25 428.778 1030.04C428.165 1027.83 427.858 1025.07 427.858 1021.76C427.858 1012 431.298 1007.12 438.178 1007.12C440.845 1007.12 442.938 1007.84 444.458 1009.28C446.005 1010.72 446.912 1012.49 447.178 1014.6H442.978ZM438.138 1021.52C436.512 1021.52 435.125 1022.01 433.978 1023C432.858 1023.96 432.298 1025.36 432.298 1027.2C432.298 1029.04 432.818 1030.51 433.858 1031.6C434.925 1032.67 436.405 1033.2 438.298 1033.2C439.978 1033.2 441.298 1032.68 442.258 1031.64C443.245 1030.6 443.738 1029.21 443.738 1027.48C443.738 1025.67 443.258 1024.23 442.298 1023.16C441.365 1022.07 439.978 1021.52 438.138 1021.52Z" fill="black"/>
<path d="M400.84 1030.92H400.54V1031.22H400.84V1030.92ZM400.84 1027.48L400.594 1027.31L400.54 1027.39V1027.48H400.84ZM414.28 1008.2V1007.9H414.123L414.034 1008.03L414.28 1008.2ZM419.8 1008.2H420.1V1007.9H419.8V1008.2ZM419.8 1026.96H419.5V1027.26H419.8V1026.96ZM423.52 1026.96H423.82V1026.66H423.52V1026.96ZM423.52 1030.92V1031.22H423.82V1030.92H423.52ZM419.8 1030.92V1030.62H419.5V1030.92H419.8ZM419.8 1037V1037.3H420.1V1037H419.8ZM415.32 1037H415.02V1037.3H415.32V1037ZM415.32 1030.92H415.62V1030.62H415.32V1030.92ZM415.52 1012.84H415.82V1011.85L415.271 1012.67L415.52 1012.84ZM406.08 1026.96L405.831 1026.79L405.519 1027.26H406.08V1026.96ZM415.52 1026.96V1027.26H415.82V1026.96H415.52ZM400.84 1030.92H401.14V1027.48H400.84H400.54V1030.92H400.84ZM400.84 1027.48L401.086 1027.65L414.526 1008.37L414.28 1008.2L414.034 1008.03L400.594 1027.31L400.84 1027.48ZM414.28 1008.2V1008.5H419.8V1008.2V1007.9H414.28V1008.2ZM419.8 1008.2H419.5V1026.96H419.8H420.1V1008.2H419.8ZM419.8 1026.96V1027.26H423.52V1026.96V1026.66H419.8V1026.96ZM423.52 1026.96H423.22V1030.92H423.52H423.82V1026.96H423.52ZM423.52 1030.92V1030.62H419.8V1030.92V1031.22H423.52V1030.92ZM419.8 1030.92H419.5V1037H419.8H420.1V1030.92H419.8ZM419.8 1037V1036.7H415.32V1037V1037.3H419.8V1037ZM415.32 1037H415.62V1030.92H415.32H415.02V1037H415.32ZM415.32 1030.92V1030.62H400.84V1030.92V1031.22H415.32V1030.92ZM415.52 1012.84L415.271 1012.67L405.831 1026.79L406.08 1026.96L406.329 1027.13L415.769 1013.01L415.52 1012.84ZM406.08 1026.96V1027.26H415.52V1026.96V1026.66H406.08V1026.96ZM415.52 1026.96H415.82V1012.84H415.52H415.22V1026.96H415.52ZM442.978 1014.6L442.687 1014.67L442.742 1014.9H442.978V1014.6ZM441.378 1011.84L441.565 1011.6L441.378 1011.84ZM433.418 1013.36L433.67 1013.52L433.671 1013.52L433.418 1013.36ZM431.778 1021.36L431.478 1021.36L431.462 1022.48L432.037 1021.51L431.778 1021.36ZM443.778 1018.84L443.628 1019.1L443.634 1019.1L443.778 1018.84ZM446.938 1022.12L446.672 1022.26L446.674 1022.26L446.938 1022.12ZM446.978 1032.28L446.711 1032.14L446.709 1032.15L446.978 1032.28ZM443.738 1035.76L443.888 1036.02L443.891 1036.02L443.738 1035.76ZM432.058 1035.2L431.872 1035.44L431.877 1035.44L432.058 1035.2ZM428.778 1030.04L428.489 1030.12L428.49 1030.12L428.778 1030.04ZM444.458 1009.28L444.252 1009.5L444.254 1009.5L444.458 1009.28ZM447.178 1014.6V1014.9H447.519L447.476 1014.56L447.178 1014.6ZM433.978 1023L434.174 1023.23L434.174 1023.23L433.978 1023ZM433.858 1031.6L433.641 1031.81L433.646 1031.81L433.858 1031.6ZM442.258 1031.64L442.041 1031.43L442.038 1031.44L442.258 1031.64ZM442.298 1023.16L442.07 1023.35L442.075 1023.36L442.298 1023.16ZM442.978 1014.6L443.27 1014.53C442.966 1013.26 442.404 1012.27 441.565 1011.6L441.378 1011.84L441.192 1012.08C441.9 1012.64 442.405 1013.49 442.687 1014.67L442.978 1014.6ZM441.378 1011.84L441.565 1011.6C440.721 1010.94 439.566 1010.62 438.138 1010.62V1010.92V1011.22C439.484 1011.22 440.49 1011.52 441.192 1012.08L441.378 1011.84ZM438.138 1010.92V1010.62C435.941 1010.62 434.267 1011.48 433.166 1013.2L433.418 1013.36L433.671 1013.52C434.65 1011.99 436.123 1011.22 438.138 1011.22V1010.92ZM433.418 1013.36L433.167 1013.2C432.078 1014.87 431.532 1017.61 431.478 1021.36L431.778 1021.36L432.078 1021.36C432.132 1017.64 432.679 1015.05 433.67 1013.52L433.418 1013.36ZM431.778 1021.36L432.037 1021.51C432.697 1020.39 433.664 1019.53 434.948 1018.91L434.818 1018.64L434.689 1018.37C433.307 1019.03 432.246 1019.98 431.52 1021.21L431.778 1021.36ZM434.818 1018.64L434.948 1018.91C436.239 1018.29 437.635 1017.98 439.138 1017.98V1017.68V1017.38C437.549 1017.38 436.064 1017.71 434.689 1018.37L434.818 1018.64ZM439.138 1017.68V1017.98C440.853 1017.98 442.346 1018.36 443.628 1019.1L443.778 1018.84L443.929 1018.58C442.544 1017.78 440.944 1017.38 439.138 1017.38V1017.68ZM443.778 1018.84L443.634 1019.1C444.939 1019.82 445.952 1020.87 446.672 1022.26L446.938 1022.12L447.205 1021.98C446.432 1020.49 445.337 1019.35 443.923 1018.58L443.778 1018.84ZM446.938 1022.12L446.674 1022.26C447.419 1023.65 447.798 1025.32 447.798 1027.28H448.098H448.398C448.398 1025.24 448.004 1023.47 447.203 1021.98L446.938 1022.12ZM448.098 1027.28H447.798C447.798 1029.11 447.434 1030.72 446.711 1032.14L446.978 1032.28L447.246 1032.42C448.017 1030.9 448.398 1029.19 448.398 1027.28H448.098ZM446.978 1032.28L446.709 1032.15C446.016 1033.56 444.977 1034.68 443.585 1035.5L443.738 1035.76L443.891 1036.02C445.38 1035.14 446.501 1033.93 447.248 1032.41L446.978 1032.28ZM443.738 1035.76L443.589 1035.5C442.204 1036.3 440.524 1036.7 438.538 1036.7V1037V1037.3C440.606 1037.3 442.393 1036.88 443.888 1036.02L443.738 1035.76ZM438.538 1037V1036.7C435.832 1036.7 433.745 1036.11 432.24 1034.96L432.058 1035.2L431.877 1035.44C433.519 1036.69 435.751 1037.3 438.538 1037.3V1037ZM432.058 1035.2L432.245 1034.96C430.755 1033.78 429.692 1032.12 429.067 1029.96L428.778 1030.04L428.49 1030.12C429.145 1032.39 430.269 1034.16 431.872 1035.44L432.058 1035.2ZM428.778 1030.04L429.068 1029.96C428.464 1027.78 428.158 1025.05 428.158 1021.76H427.858H427.558C427.558 1025.08 427.866 1027.87 428.489 1030.12L428.778 1030.04ZM427.858 1021.76H428.158C428.158 1016.91 429.015 1013.32 430.684 1010.95C432.338 1008.61 434.819 1007.42 438.178 1007.42V1007.12V1006.82C434.658 1006.82 431.979 1008.07 430.193 1010.61C428.421 1013.12 427.558 1016.85 427.558 1021.76H427.858ZM438.178 1007.12V1007.42C440.79 1007.42 442.802 1008.12 444.252 1009.5L444.458 1009.28L444.665 1009.06C443.075 1007.56 440.9 1006.82 438.178 1006.82V1007.12ZM444.458 1009.28L444.254 1009.5C445.749 1010.89 446.623 1012.6 446.881 1014.64L447.178 1014.6L447.476 1014.56C447.201 1012.39 446.261 1010.55 444.663 1009.06L444.458 1009.28ZM447.178 1014.6V1014.3H442.978V1014.6V1014.9H447.178V1014.6ZM438.138 1021.52V1021.22C436.446 1021.22 434.988 1021.74 433.783 1022.77L433.978 1023L434.174 1023.23C435.262 1022.29 436.578 1021.82 438.138 1021.82V1021.52ZM433.978 1023L433.783 1022.77C432.581 1023.8 431.998 1025.3 431.998 1027.2H432.298H432.598C432.598 1025.42 433.136 1024.12 434.174 1023.23L433.978 1023ZM432.298 1027.2H431.998C431.998 1029.1 432.537 1030.65 433.641 1031.81L433.858 1031.6L434.076 1031.39C433.1 1030.37 432.598 1028.98 432.598 1027.2H432.298ZM433.858 1031.6L433.646 1031.81C434.783 1032.95 436.347 1033.5 438.298 1033.5V1033.2V1032.9C436.463 1032.9 435.067 1032.38 434.071 1031.39L433.858 1031.6ZM438.298 1033.2V1033.5C440.045 1033.5 441.451 1032.96 442.479 1031.84L442.258 1031.64L442.038 1031.44C441.145 1032.4 439.912 1032.9 438.298 1032.9V1033.2ZM442.258 1031.64L442.476 1031.85C443.526 1030.74 444.038 1029.27 444.038 1027.48H443.738H443.438C443.438 1029.15 442.964 1030.46 442.041 1031.43L442.258 1031.64ZM443.738 1027.48H444.038C444.038 1025.61 443.543 1024.09 442.521 1022.96L442.298 1023.16L442.075 1023.36C442.974 1024.36 443.438 1025.72 443.438 1027.48H443.738ZM442.298 1023.16L442.527 1022.97C441.521 1021.79 440.04 1021.22 438.138 1021.22V1021.52V1021.82C439.917 1021.82 441.209 1022.35 442.07 1023.35L442.298 1023.16Z" fill="black" mask="url(#path-11-outside-2_97_46)"/>
<path d="M401.03 481.304C449.92 478.568 503.775 494.342 540.982 526.822C550.767 522.898 560.162 518.102 570.044 514.293C603.612 501.354 649.788 488.641 685.688 491.616C702.374 493 718.833 498.468 729.927 511.735C738.779 522.32 741.351 535.503 740.078 548.966C735.072 601.92 660.793 663.467 621.52 696.168C621.601 736.877 607.136 779.749 585.316 813.818C554.448 861.9 505.608 895.623 449.701 907.461C399.429 916.025 353.878 906.359 309.526 881.912C298.937 885.522 288.56 889.951 277.993 893.684C247.61 904.417 214.274 913.029 181.944 913C161.341 912.982 137.972 910.363 122.744 894.913C113.439 885.473 109.819 872.828 110.007 859.791C110.619 817.22 146.246 774.679 174.74 745.74C185.03 735.289 195.964 725.618 206.448 715.399C206.148 712.373 205.908 709.341 205.73 706.306C202.625 649.245 221.015 591.675 259.357 548.952C295.645 508.386 346.663 484.026 401.03 481.304ZM589.896 583.925C593.197 590.273 596.709 596.585 599.741 603.062L602.538 599.703C605.182 596.657 611.002 590.246 610.469 585.966C610.325 584.807 609.835 584.121 608.898 583.478C606.268 581.671 598.708 582.393 595.49 582.84C593.642 583.182 591.709 583.443 589.896 583.925ZM230.651 812.124C232.536 812.135 234.459 812.218 236.34 812.139C233.667 807.399 231.359 802.566 229.11 797.615C227.214 800.195 222.584 805.407 222.97 808.644C223.101 809.741 223.472 810.431 224.369 811.113C225.787 812.19 228.912 812.026 230.651 812.124Z" fill="#0E121A"/>
<path d="M257.472 804.385C236.192 777.095 225.744 734.603 224.165 700.619C221.752 649.077 240.04 598.707 274.961 560.713C308.592 524.254 355.353 502.676 404.921 500.741C453.121 499.09 500.076 516.231 535.869 548.545L535.207 550.9C535.645 556.798 534.375 585.267 531.479 589.069C505.15 562.561 467.371 534.796 428.255 534.74C427.982 534.74 427.708 534.742 427.435 534.747C474.031 547.873 508.719 573.425 532.561 615.922C539.271 627.882 544.651 641.001 547.815 654.363C512.982 682.823 473.799 707.213 435.001 729.914C382.232 760.79 320.205 795.413 260.145 808.296C259.263 807.045 258.154 805.745 257.472 804.385Z" fill="#FFCB3C"/>
<path d="M257.472 804.385C236.192 777.095 225.744 734.603 224.165 700.619C221.752 649.077 240.04 598.707 274.961 560.713C308.592 524.254 355.353 502.676 404.921 500.741C453.121 499.09 500.076 516.231 535.869 548.545L535.207 550.9C528.979 546.493 522.175 542.727 515.486 539.057C475.578 517.16 429.355 506.126 384.06 513.904C334.632 522.391 293.788 548.508 264.906 589.381C234.811 631.969 225.338 683.839 234.154 734.812C236.553 748.537 240.2 762.016 245.047 775.08C247.225 781.035 257.683 800.275 257.472 804.385Z" fill="#FEE79A"/>
<path d="M323.386 590.254C329.202 590.415 334.766 591.692 339.402 595.403C344.204 599.248 346.761 605.086 347.416 611.108C348.643 622.382 343.17 633.727 336.169 642.232C326.468 654.018 312.28 662.602 297.003 664.129C291.045 664.137 284.884 662.891 280.172 659.016C275.838 655.452 273.788 650.223 273.249 644.747C272.118 633.259 277.315 621.886 284.508 613.198C294.327 601.337 307.717 591.697 323.386 590.254Z" fill="#0E121A"/>
<path d="M320.491 599.625C324.982 599.261 329.093 599.427 333.001 601.936C335.87 603.777 337.552 606.587 338.192 609.889C339.779 618.081 336.342 626.781 331.717 633.405C324.405 643.876 312.164 652.484 299.529 654.741C295.217 655.054 290.742 654.788 286.968 652.451C284.583 650.973 283.038 648.641 282.437 645.923C280.745 638.275 284.418 629.48 288.508 623.19C295.708 612.115 307.472 602.416 320.491 599.625Z" fill="#FCC734"/>
<path d="M367.666 544.436C378.292 542.013 388.869 548.662 391.288 559.286C393.707 569.909 387.051 580.482 376.424 582.895C365.803 585.307 355.238 578.658 352.82 568.041C350.402 557.425 357.048 546.858 367.666 544.436Z" fill="#0E121A"/>
<path d="M369.207 553.937C372.694 552.902 376.467 553.842 379.06 556.392C381.654 558.942 382.657 562.698 381.68 566.201C380.704 569.704 377.901 572.4 374.362 573.24C369.096 574.491 363.79 571.324 362.394 566.095C360.998 560.867 364.018 555.477 369.207 553.937Z" fill="#FCC734"/>
<path d="M305.442 706.323C315.154 704.517 324.499 710.896 326.353 720.595C328.208 730.294 321.874 739.669 312.181 741.571C302.421 743.485 292.965 737.1 291.097 727.332C289.23 717.565 295.664 708.143 305.442 706.323Z" fill="#0E121A"/>
<path d="M306.506 715.733C309.525 714.91 312.754 715.786 314.942 718.023C317.13 720.26 317.934 723.507 317.044 726.506C316.153 729.505 313.707 731.787 310.652 732.468C306.079 733.487 301.53 730.671 300.403 726.124C299.277 721.579 301.986 716.965 306.506 715.733Z" fill="#FCC734"/>
<path d="M557.584 540.67C595.864 523.33 659.544 502.826 700.361 514.074C708.214 517.189 714.673 521.093 718.228 529.159C722.874 539.701 720.405 551.967 716.297 562.281C703.753 593.776 671.304 626.298 646.273 649.251C555.118 732.838 432.05 808.226 318.078 856.96C275.258 875.269 227.466 893.627 180.349 893.605C169.797 893.6 159.232 892.925 149.307 888.998C143.689 886.775 138.88 883.48 134.942 878.898C130.566 872.904 128.457 866.918 128.394 859.45C128.05 818.922 181.421 765.123 208.843 737.576C209.838 742.34 211.035 747.075 212.156 751.811C199.034 764.712 186.676 780.511 177.561 796.502C170.482 808.922 162.543 826.207 166.643 840.685C168.683 847.888 173.664 853.272 180.154 856.824C204.456 870.124 247.438 859.748 272.503 852.296C322.993 837.283 371.395 812.626 417.268 787.105C485.24 749.29 552.23 706.65 609.906 654.159C630.198 635.691 651.714 614.585 664.8 590.325C670.514 579.733 675.853 566.341 672.132 554.291C670.049 547.544 665.13 542.367 658.94 539.13C633.945 526.06 589.434 539.875 564.073 547.98C562.256 545.335 559.777 543.013 557.584 540.67Z" fill="#DDF1F1"/>
<path d="M700.36 514.074C708.214 517.188 714.673 521.093 718.228 529.159C722.874 539.701 720.405 551.967 716.297 562.281C703.753 593.776 671.303 626.298 646.273 649.251C555.118 732.837 432.049 808.225 318.077 856.96C275.258 875.269 227.466 893.627 180.349 893.605C169.797 893.6 159.232 892.925 149.306 888.997C143.688 886.775 138.879 883.48 134.941 878.898C140.211 879.722 145.583 882.018 150.785 883.344C160.255 885.759 170.384 886.346 180.118 886.503C280.962 888.129 437.037 797.407 519.199 739.696C556.018 713.834 592.132 685.472 624.434 654.127C654.906 624.56 687.544 586.296 697.286 544.196C699.582 534.277 700.211 524.226 700.36 514.074Z" fill="#97D0CB"/>
<path d="M622.064 541.81C633.908 541.16 648.585 540.68 658.623 547.943C662.82 550.98 665.227 555.135 665.944 560.26C668.005 574.985 655.452 593.313 647.029 604.51C636.055 619.1 622.837 632.278 609.537 644.733C551.27 699.295 476.443 746.335 406.555 784.368C356.056 811.849 288.082 846.304 230.775 854.383C215.705 856.507 193.348 857.969 180.629 848.166C176.263 844.801 173.662 840.154 173.012 834.688C170.721 815.397 189.684 789.861 200.863 775.574C205.246 770.095 209.86 764.805 214.691 759.718C216.522 765.751 218.354 771.735 220.64 777.617C217.596 780.928 214.789 784.448 212.239 788.152C207.005 795.857 201.562 806.224 203.477 815.763C204.313 819.928 206.655 823.462 210.204 825.812C221.647 833.389 241.305 831.061 254.101 828.582C278.865 823.783 302.892 815.154 326.088 805.384C364.01 789.41 400.598 770.107 436.25 749.601C485.341 721.365 533.649 690.224 576.857 653.499C593.43 639.413 610.717 623.946 622.931 605.811C628.015 598.262 632.897 589.024 630.954 579.632C630.012 575.08 627.384 571.291 623.498 568.753C611.651 561.015 591.572 563.875 578.462 566.634C575.505 562.183 572.338 557.924 569.112 553.665C586.369 548.117 603.93 543.283 622.064 541.81Z" fill="#FEE79A"/>
<path d="M599.563 713.325C600.073 717.126 598.879 722.119 598.204 725.893C594.768 745.104 589.365 764.29 580.903 781.925C559.197 827.157 518.548 864.35 471.111 880.981C426.066 896.773 377.771 892.319 335.009 871.829C351.36 863.119 368.624 855.883 385.206 847.588C418.716 831.093 451.513 813.184 483.505 793.91C502.954 781.677 523.021 769.552 541.492 755.876C536.141 767.988 530.619 779.71 523.016 790.614C502.827 819.569 473.517 843.024 440.233 855.094C427.944 859.55 415.369 862.351 402.537 864.666C433.77 868.505 470.713 856.719 496.829 839.917C533.623 815.85 559.573 778.38 569.157 735.479C579.604 728.656 589.631 720.884 599.563 713.325Z" fill="#F4AB34"/>
<path d="M535.869 548.546C558.546 568.904 573.593 593.76 585.816 621.402C578.519 628.64 570.897 635.265 562.995 641.829C555.028 622.094 545.165 605.434 531.479 589.07C534.375 585.267 535.645 556.798 535.207 550.9L535.869 548.546Z" fill="#F4AB34"/>
</svg>
