<svg width="849" height="1183" viewBox="0 0 849 1183" fill="none" xmlns="http://www.w3.org/2000/svg">
<rect x="5" y="5" width="839" height="1173" rx="45" fill="white"/>
<rect x="5" y="5" width="839" height="1173" rx="45" stroke="black" stroke-width="10"/>
<circle cx="786.5" cy="1124.5" r="11.5" fill="black"/>
<circle cx="786.5" cy="59.5" r="11.5" fill="black"/>
<path d="M77 1124.5C77 1130.85 71.8513 1136 65.5 1136C59.1487 1136 54 1130.85 54 1124.5C54 1118.15 59.1487 1113 65.5 1113C71.8513 1113 77 1118.15 77 1124.5Z" fill="black"/>
<path d="M77 59.5C77 65.8513 71.8513 71 65.5 71C59.1487 71 54 65.8513 54 59.5C54 53.1487 59.1487 48 65.5 48C71.8513 48 77 53.1487 77 59.5Z" fill="black"/>
<mask id="path-6-inside-1_97_13" fill="white">
<path d="M708 48C713.523 48 717.934 52.4996 718.616 57.9801C723.122 94.1833 751.817 122.878 788.02 127.384C793.5 128.066 798 132.477 798 138V1046C798 1051.52 793.5 1055.93 788.02 1056.62C751.817 1061.12 723.122 1089.82 718.616 1126.02C717.934 1131.5 713.523 1136 708 1136H141C135.477 1136 131.066 1131.5 130.384 1126.02C125.878 1089.82 97.1833 1061.12 60.9801 1056.62C55.4996 1055.93 51 1051.52 51 1046V138C51 132.477 55.4996 128.066 60.9801 127.384C97.1833 122.878 125.878 94.1833 130.384 57.9801C131.066 52.4996 135.477 48 141 48H708Z"/>
</mask>
<path d="M708 48C713.523 48 717.934 52.4996 718.616 57.9801C723.122 94.1833 751.817 122.878 788.02 127.384C793.5 128.066 798 132.477 798 138V1046C798 1051.52 793.5 1055.93 788.02 1056.62C751.817 1061.12 723.122 1089.82 718.616 1126.02C717.934 1131.5 713.523 1136 708 1136H141C135.477 1136 131.066 1131.5 130.384 1126.02C125.878 1089.82 97.1833 1061.12 60.9801 1056.62C55.4996 1055.93 51 1051.52 51 1046V138C51 132.477 55.4996 128.066 60.9801 127.384C97.1833 122.878 125.878 94.1833 130.384 57.9801C131.066 52.4996 135.477 48 141 48H708Z" fill="#DBEE71"/>
<path d="M130.384 1126.02L138.322 1125.03L130.384 1126.02ZM718.616 1126.02L710.678 1125.03L718.616 1126.02ZM788.02 1056.62L789.008 1064.56L788.02 1056.62ZM718.616 57.9801L726.555 56.9922L718.616 57.9801ZM718.616 57.9801L710.678 58.9681C715.635 98.8063 747.194 130.365 787.032 135.322L788.02 127.384L789.008 119.445C756.44 115.392 730.608 89.5603 726.555 56.9922L718.616 57.9801ZM798 138H790V1046H798H806V138H798ZM788.02 1056.62L787.032 1048.68C747.194 1053.64 715.635 1085.19 710.678 1125.03L718.616 1126.02L726.555 1127.01C730.608 1094.44 756.44 1068.61 789.008 1064.56L788.02 1056.62ZM708 1136V1128H141V1136V1144H708V1136ZM130.384 1126.02L138.322 1125.03C133.365 1085.19 101.806 1053.64 61.9681 1048.68L60.9801 1056.62L59.9922 1064.56C92.5603 1068.61 118.392 1094.44 122.445 1127.01L130.384 1126.02ZM51 1046H59V138H51H43V1046H51ZM60.9801 127.384L61.9681 135.322C101.806 130.365 133.365 98.8063 138.322 58.9681L130.384 57.9801L122.445 56.9922C118.392 89.5603 92.5603 115.392 59.9922 119.445L60.9801 127.384ZM141 48V56H708V48V40H141V48ZM130.384 57.9801L138.322 58.9681C138.438 58.0389 138.872 57.2306 139.427 56.6958C139.954 56.1887 140.494 56 141 56V48V40C130.84 40 123.547 48.1329 122.445 56.9922L130.384 57.9801ZM51 138H59C59 137.494 59.1887 136.954 59.6958 136.427C60.2306 135.872 61.0389 135.438 61.9681 135.322L60.9801 127.384L59.9922 119.445C51.1329 120.547 43 127.84 43 138H51ZM60.9801 1056.62L61.9681 1048.68C61.0389 1048.56 60.2306 1048.13 59.6958 1047.57C59.1887 1047.05 59 1046.51 59 1046H51H43C43 1056.16 51.1329 1063.45 59.9922 1064.56L60.9801 1056.62ZM141 1136V1128C140.494 1128 139.954 1127.81 139.427 1127.3C138.872 1126.77 138.438 1125.96 138.322 1125.03L130.384 1126.02L122.445 1127.01C123.547 1135.87 130.84 1144 141 1144V1136ZM718.616 1126.02L710.678 1125.03C710.562 1125.96 710.128 1126.77 709.573 1127.3C709.046 1127.81 708.506 1128 708 1128V1136V1144C718.16 1144 725.453 1135.87 726.555 1127.01L718.616 1126.02ZM798 1046H790C790 1046.51 789.811 1047.05 789.304 1047.57C788.769 1048.13 787.961 1048.56 787.032 1048.68L788.02 1056.62L789.008 1064.56C797.867 1063.45 806 1056.16 806 1046H798ZM788.02 127.384L787.032 135.322C787.961 135.438 788.769 135.872 789.304 136.427C789.811 136.954 790 137.494 790 138H798H806C806 127.84 797.867 120.547 789.008 119.445L788.02 127.384ZM718.616 57.9801L726.555 56.9922C725.453 48.1329 718.16 40 708 40V48V56C708.506 56 709.046 56.1887 709.573 56.6958C710.128 57.2306 710.562 58.0389 710.678 58.9681L718.616 57.9801Z" fill="black" mask="url(#path-6-inside-1_97_13)"/>
<path d="M690 102C695.523 102 699.911 106.512 700.837 111.957C705.019 136.563 724.437 155.981 749.043 160.163C754.488 161.089 759 165.477 759 171V1014C759 1019.52 754.488 1023.91 749.043 1024.84C724.711 1028.97 705.454 1048 700.984 1072.22C699.993 1077.59 695.633 1082 690.175 1082H158.825C153.367 1082 149.007 1077.59 148.016 1072.22C143.546 1048 124.288 1028.97 99.9568 1024.84C94.5121 1023.91 90 1019.52 90 1014V171C90 165.477 94.512 161.089 99.9568 160.163C124.563 155.981 143.981 136.563 148.163 111.957C149.089 106.512 153.477 102 159 102H690Z" fill="#DFE4C2"/>
<path d="M369.13 365.925C367.6 362.978 365.475 360.768 362.755 359.295C360.035 357.765 356.89 357 353.32 357C349.41 357 345.925 357.878 342.865 359.635C339.805 361.392 337.397 363.885 335.64 367.115C333.94 370.345 333.09 374.085 333.09 378.335C333.09 382.585 333.94 386.353 335.64 389.64C337.397 392.87 339.805 395.363 342.865 397.12C345.925 398.877 349.41 399.755 353.32 399.755C358.59 399.755 362.868 398.282 366.155 395.335C369.442 392.388 371.453 388.393 372.19 383.35H350.005V375.615H382.56V383.18C381.937 387.77 380.293 391.992 377.63 395.845C375.023 399.698 371.595 402.787 367.345 405.11C363.152 407.377 358.477 408.51 353.32 408.51C347.767 408.51 342.695 407.235 338.105 404.685C333.515 402.078 329.86 398.48 327.14 393.89C324.477 389.3 323.145 384.115 323.145 378.335C323.145 372.555 324.477 367.37 327.14 362.78C329.86 358.19 333.515 354.62 338.105 352.07C342.752 349.463 347.823 348.16 353.32 348.16C359.61 348.16 365.192 349.718 370.065 352.835C374.995 355.895 378.565 360.258 380.775 365.925H369.13ZM388.887 384.37C388.887 379.667 389.851 375.502 391.777 371.875C393.761 368.248 396.424 365.443 399.767 363.46C403.167 361.42 406.907 360.4 410.987 360.4C414.671 360.4 417.872 361.137 420.592 362.61C423.369 364.027 425.579 365.812 427.222 367.965V361.165H436.997V408H427.222V401.03C425.579 403.24 423.341 405.082 420.507 406.555C417.674 408.028 414.444 408.765 410.817 408.765C406.794 408.765 403.111 407.745 399.767 405.705C396.424 403.608 393.761 400.718 391.777 397.035C389.851 393.295 388.887 389.073 388.887 384.37ZM427.222 384.54C427.222 381.31 426.542 378.505 425.182 376.125C423.879 373.745 422.151 371.932 419.997 370.685C417.844 369.438 415.521 368.815 413.027 368.815C410.534 368.815 408.211 369.438 406.057 370.685C403.904 371.875 402.147 373.66 400.787 376.04C399.484 378.363 398.832 381.14 398.832 384.37C398.832 387.6 399.484 390.433 400.787 392.87C402.147 395.307 403.904 397.177 406.057 398.48C408.267 399.727 410.591 400.35 413.027 400.35C415.521 400.35 417.844 399.727 419.997 398.48C422.151 397.233 423.879 395.42 425.182 393.04C426.542 390.603 427.222 387.77 427.222 384.54ZM461.03 369.07V394.995C461.03 396.752 461.426 398.027 462.22 398.82C463.07 399.557 464.486 399.925 466.47 399.925H472.42V408H464.77C460.406 408 457.063 406.98 454.74 404.94C452.416 402.9 451.255 399.585 451.255 394.995V369.07H445.73V361.165H451.255V349.52H461.03V361.165H472.42V369.07H461.03ZM501.666 408.765C497.246 408.765 493.251 407.773 489.681 405.79C486.111 403.75 483.306 400.917 481.266 397.29C479.226 393.607 478.206 389.357 478.206 384.54C478.206 379.78 479.254 375.558 481.351 371.875C483.447 368.192 486.309 365.358 489.936 363.375C493.562 361.392 497.614 360.4 502.091 360.4C506.567 360.4 510.619 361.392 514.246 363.375C517.872 365.358 520.734 368.192 522.831 371.875C524.927 375.558 525.976 379.78 525.976 384.54C525.976 389.3 524.899 393.522 522.746 397.205C520.592 400.888 517.646 403.75 513.906 405.79C510.222 407.773 506.142 408.765 501.666 408.765ZM501.666 400.35C504.159 400.35 506.482 399.755 508.636 398.565C510.846 397.375 512.631 395.59 513.991 393.21C515.351 390.83 516.031 387.94 516.031 384.54C516.031 381.14 515.379 378.278 514.076 375.955C512.772 373.575 511.044 371.79 508.891 370.6C506.737 369.41 504.414 368.815 501.921 368.815C499.427 368.815 497.104 369.41 494.951 370.6C492.854 371.79 491.182 373.575 489.936 375.955C488.689 378.278 488.066 381.14 488.066 384.54C488.066 389.583 489.341 393.493 491.891 396.27C494.497 398.99 497.756 400.35 501.666 400.35Z" fill="black"/>
<mask id="path-10-outside-2_97_13" maskUnits="userSpaceOnUse" x="418" y="1007" width="21" height="31" fill="black">
<rect fill="white" x="418" y="1007" width="21" height="31"/>
<path d="M437.88 1011.36L426.76 1037H422.16L433.4 1011.84H418.6V1007.96H437.88V1011.36Z"/>
</mask>
<path d="M437.88 1011.36L426.76 1037H422.16L433.4 1011.84H418.6V1007.96H437.88V1011.36Z" fill="black"/>
<path d="M437.88 1011.36L438.155 1011.48L438.18 1011.42V1011.36H437.88ZM426.76 1037V1037.3H426.957L427.035 1037.12L426.76 1037ZM422.16 1037L421.886 1036.88L421.697 1037.3H422.16V1037ZM433.4 1011.84L433.674 1011.96L433.863 1011.54H433.4V1011.84ZM418.6 1011.84H418.3V1012.14H418.6V1011.84ZM418.6 1007.96V1007.66H418.3V1007.96H418.6ZM437.88 1007.96H438.18V1007.66H437.88V1007.96ZM437.88 1011.36L437.605 1011.24L426.485 1036.88L426.76 1037L427.035 1037.12L438.155 1011.48L437.88 1011.36ZM426.76 1037V1036.7H422.16V1037V1037.3H426.76V1037ZM422.16 1037L422.434 1037.12L433.674 1011.96L433.4 1011.84L433.126 1011.72L421.886 1036.88L422.16 1037ZM433.4 1011.84V1011.54H418.6V1011.84V1012.14H433.4V1011.84ZM418.6 1011.84H418.9V1007.96H418.6H418.3V1011.84H418.6ZM418.6 1007.96V1008.26H437.88V1007.96V1007.66H418.6V1007.96ZM437.88 1007.96H437.58V1011.36H437.88H438.18V1007.96H437.88Z" fill="black" mask="url(#path-10-outside-2_97_13)"/>
<path d="M330.36 234.83C330.36 227.55 331.865 221.075 334.875 215.405C337.955 209.665 342.295 205.22 347.895 202.07C353.495 198.85 359.935 197.24 367.215 197.24C376.455 197.24 384.225 199.725 390.525 204.695C396.825 209.595 400.885 216.28 402.705 224.75H380.55C379.22 221.95 377.365 219.815 374.985 218.345C372.675 216.875 369.98 216.14 366.9 216.14C362.14 216.14 358.325 217.855 355.455 221.285C352.655 224.645 351.255 229.16 351.255 234.83C351.255 240.57 352.655 245.155 355.455 248.585C358.325 251.945 362.14 253.625 366.9 253.625C369.98 253.625 372.675 252.89 374.985 251.42C377.365 249.95 379.22 247.815 380.55 245.015H402.705C400.885 253.485 396.825 260.205 390.525 265.175C384.225 270.075 376.455 272.525 367.215 272.525C359.935 272.525 353.495 270.95 347.895 267.8C342.295 264.58 337.955 260.135 334.875 254.465C331.865 248.725 330.36 242.18 330.36 234.83ZM409.09 242.495C409.09 236.405 410.175 231.085 412.345 226.535C414.585 221.985 417.595 218.485 421.375 216.035C425.225 213.585 429.495 212.36 434.185 212.36C438.245 212.36 441.745 213.165 444.685 214.775C447.625 216.385 449.9 218.555 451.51 221.285V213.095H472.09V272H451.51V263.81C449.9 266.54 447.59 268.71 444.58 270.32C441.64 271.93 438.175 272.735 434.185 272.735C429.495 272.735 425.225 271.51 421.375 269.06C417.595 266.61 414.585 263.11 412.345 258.56C410.175 253.94 409.09 248.585 409.09 242.495ZM451.51 242.495C451.51 238.715 450.46 235.74 448.36 233.57C446.33 231.4 443.81 230.315 440.8 230.315C437.72 230.315 435.165 231.4 433.135 233.57C431.105 235.67 430.09 238.645 430.09 242.495C430.09 246.275 431.105 249.285 433.135 251.525C435.165 253.695 437.72 254.78 440.8 254.78C443.81 254.78 446.33 253.695 448.36 251.525C450.46 249.355 451.51 246.345 451.51 242.495ZM518.573 254.465V272H509.648C494.598 272 487.073 264.545 487.073 249.635V230.21H479.828V213.095H487.073V198.815H507.758V213.095H518.468V230.21H507.758V249.95C507.758 251.56 508.108 252.715 508.807 253.415C509.578 254.115 510.838 254.465 512.588 254.465H518.573Z" fill="black"/>
<path d="M218.484 421.08C229.655 419.244 259.93 449.392 267.009 458.155C273.114 465.712 278.269 475.539 285.032 482.276L285.384 482.621C302.562 477.82 329.408 479.321 346.739 482.621C358.929 462.156 370.533 447.267 389.721 432.71C412.475 415.447 415.446 419.181 422.597 445.268C431.238 476.791 432.809 516.901 416.196 546.084C419.847 553.537 421.261 562.226 425.38 569.472C427.253 572.767 431.709 574.548 433.036 577.857C435.715 584.539 419.145 599.669 416.416 606.476L416.196 607.031C420.804 608.215 457.652 622.055 447.537 628.829C445.121 628.992 441.671 624.547 439.804 622.926C432.361 616.461 422.142 614.064 413.342 610.011C411.571 613.615 409.523 616.977 407.384 620.371C420.681 625.726 431.419 630.724 439.167 643.476C440.471 645.622 442.949 652.353 437.941 650.127C437.889 650.104 430.147 639.218 428.926 637.926C422.536 631.159 412.81 627.677 404.333 624.432C402.71 626.676 400.899 628.787 399.135 630.921C402.324 640.648 408.328 651.844 417.482 656.92C422.489 659.696 433.468 660.748 423.532 667.208C437.853 674.93 452.859 679.699 467.544 686.444C514.73 708.118 548.272 754.466 566.983 801.46C569.647 808.154 584.788 848.397 580.98 854.385C579.214 855.528 576.69 854.975 574.683 854.812C579.992 870.911 581.515 882.782 581.464 899.782C607.514 889.786 602.143 862.883 597.305 841.266C590.923 812.741 587.276 784.414 596.79 755.908C602.853 737.739 614.818 717.071 632.59 708.361C642.874 703.32 655.915 702.732 661.315 714.628C669.833 733.391 652.588 750.833 646.655 767.439C625.859 805.126 679.313 866.201 630.051 919.363C616.904 933.551 596.726 944.416 577.126 945.212C575.706 977.573 548.65 972.224 524.921 975.531C483.523 981.298 449.338 992.527 405.697 983.782C384.554 979.546 387.466 961.788 399.135 948.97C392.889 949.854 386.698 950.271 380.395 950.45C377.368 961.91 373.298 976.436 360.755 980.556C350.581 983.898 311.197 986.12 306.724 970.737C290.185 972.212 269.066 972.555 271.607 951.083C274.212 929.068 295.84 929.545 300.831 914.643C307.189 895.662 302.946 845.393 299.83 824.576C296.918 805.121 295.204 810.007 285.536 793.731C259.18 749.362 255.031 696.037 260.385 645.709C249.361 642.117 240.248 634.818 232.835 626.041C223.433 630.229 213.906 636.321 208.782 645.589C207.581 647.761 206.074 655.245 203.063 655.428C200.932 655.556 200.978 653.139 201.299 651.661C205.017 634.545 218.247 629.466 230.652 621.601C227.882 619.588 225.749 617.077 223.485 614.532C212.941 616.256 201.738 620.988 194.666 629.284C192.793 631.48 190.802 637.098 187.291 636.579C180.572 631.096 202.075 616.798 205.959 615.006C210.575 612.878 215.66 611.534 220.511 610.011C217.202 603.897 201.247 583.451 200.728 582.009C199.271 577.958 205.97 573.47 207.973 570.358C211.059 565.564 214.624 553.177 217.024 547.198C200.058 520.842 198.457 487.706 204.463 457.577C206.149 449.111 211.572 425.702 218.484 421.08Z" fill="black"/>
<path d="M393.615 635.576C398.968 646.344 404.701 657.605 416.196 662.862C413.893 663.852 412.436 665.411 410.747 667.208C414.986 668.97 418.771 671.637 422.721 673.952C438.152 682.99 455.719 687.389 471.408 695.858C514.107 718.906 541.781 758.944 559.91 802.729C565.887 817.166 569.75 832.442 574.683 847.259C571.737 845.611 569.152 843.458 565.747 845.038C569.902 869.329 580.928 884.608 571.925 913.142C570.36 918.101 567.516 922.433 565.747 927.268C569.497 932.126 571.518 942.768 570.783 948.853C567.942 972.338 538.169 967.548 521.33 969.931C500.406 972.893 480.082 977.687 458.927 979.501C447.066 980.518 435.408 980.313 423.532 980.313C423.049 976.979 422.954 974.063 423.532 970.737C424.549 966.867 434.781 958.891 427.858 958.966C420.011 959.051 418.329 973.784 418.382 979.375C401.759 976.892 405.594 976.596 411.448 962.16C413.624 956.792 401.662 959.525 402.21 976.265C391.224 972.29 399.608 955.67 406.025 951.133C418.678 942.186 451.291 944.564 466.416 948.146C471.362 949.317 479.02 952.646 483.27 953.176C486.286 953.553 487.895 951.449 485.335 949.184C475.763 940.716 446.884 938.787 434.031 939.388C424.418 932.307 419.795 919.153 418.04 907.777C409.808 854.424 458.434 790.546 515.809 817.515C534.193 826.156 527.917 817.327 517.61 812.178C477.023 791.905 439.253 815.763 420.685 853.398C415.719 855.759 412.296 860.979 407.384 863.682C405.99 862.421 404.581 861.174 403.223 859.875C403.375 853.716 406.192 832.81 403.617 828.542C402.424 826.565 400.121 827.464 399.527 829.432C398.637 832.391 398.865 842.756 398.608 846.646C396.102 884.524 389.067 906.648 376.662 941.783C364.028 977.564 368.278 976.385 327.228 976.265C326.197 972.267 325.768 968.685 325.917 964.558C334.545 954.441 326.302 957.365 323.755 960.298C320.351 964.222 320.4 969.389 320.808 974.241C313.499 973.412 310.962 969.26 312.878 962.386C317.067 947.354 334.678 944.233 340.68 930.729C356.069 896.106 344.628 836.343 331.914 802.988C327.855 792.34 321.285 787.953 324.618 801.665C329.33 814.008 333.226 828.023 338.202 839.704C336.341 838.642 331.438 836.528 330.979 834.25C312.447 822.524 284.617 788.906 280.906 767.438C271.011 757.579 265.174 704.392 265.175 691.174C265.068 685.799 265.07 680.443 265.175 675.067C265.428 666.296 266.354 657.343 265.863 648.585C292.481 653.355 309.807 671.445 335.736 661.97C343.135 659.265 349.32 654.693 356.422 651.548C370.64 645.25 379.156 645.291 393.615 635.576Z" fill="#7F858E"/>
<path d="M393.615 635.576C398.968 646.344 404.701 657.605 416.196 662.862C413.893 663.852 412.436 665.411 410.747 667.208C414.986 668.97 418.771 671.637 422.721 673.952C438.152 682.99 455.719 687.389 471.408 695.858C514.107 718.906 541.781 758.944 559.91 802.729C565.887 817.166 569.75 832.442 574.683 847.259C571.737 845.611 569.152 843.458 565.747 845.038C561.909 828.088 543.424 799.612 528.659 790.929C522.979 787.59 516.994 785.999 511.155 783.244C500.689 778.305 539.943 782.638 528.947 767.217C518.088 751.99 495.643 763.092 493.674 759.561C495.412 755.348 518.689 744.352 495.684 733.645C485.979 729.127 476.061 728.012 465.521 728.525C463.832 728.608 449.556 730.999 449.916 728.473C450.06 727.471 459.281 722.731 461.137 715.421C456.091 694.739 420.924 707.585 408.72 712.429C412.461 707.175 422.097 697.472 423.87 691.8C426.25 684.185 403.103 671.693 397.368 670.088C361.053 659.914 344.765 705.803 296.672 681.943C286.871 677.079 276.337 668.711 265.175 675.067C265.428 666.296 266.354 657.343 265.863 648.585C292.481 653.355 309.807 671.445 335.736 661.97C343.135 659.265 349.32 654.693 356.422 651.548C370.64 645.25 379.156 645.291 393.615 635.576Z" fill="#5E6670"/>
<path d="M565.747 927.268C569.497 932.126 571.519 942.768 570.783 948.853C567.942 972.338 538.169 967.548 521.33 969.931C500.406 972.893 480.082 977.687 458.927 979.501C447.066 980.518 435.408 980.313 423.532 980.313C423.049 976.979 422.954 974.063 423.532 970.737C432.177 974.108 508.826 962.254 521.914 960.098C531.512 958.516 542.002 957.948 551.131 954.496C570.683 947.102 560.82 936.035 565.747 927.268Z" fill="#5E6670"/>
<path d="M265.175 691.175C271.244 682.931 275.212 680.118 279.359 691.992C283.922 705.062 286.095 718.98 290.592 732.207C292.843 738.83 308.297 771.177 289.689 771.519C286.022 771.586 284.029 768.615 280.906 767.439C271.011 757.58 265.174 704.392 265.175 691.175Z" fill="#ACAFB6"/>
<path d="M324.618 801.666C329.33 814.008 333.226 828.023 338.202 839.704C336.341 838.642 331.438 836.528 330.979 834.25C329.608 823.565 323.904 814.156 324.618 801.666Z" fill="#5E6670"/>
<path d="M220.511 428.232C243.646 438.102 269.078 468.175 280.906 489.669C307.523 485.579 323.763 485.342 350.305 490.237L350.542 489.889C366.931 465.351 379.459 440.656 409.974 428.232C423.752 471.671 428.107 495.903 413.342 538.743C411.48 535.039 409.675 531.363 407.384 527.895C416.283 506.146 422.538 470.306 404.333 451.334C389.387 454.904 365.897 476.127 363.495 492.356C366.732 496.144 371.276 498.196 375.176 501.166C409.094 526.99 403.902 546.192 422.012 575.202C423.155 577.323 424.74 578.71 426.636 580.151C421.1 589.345 413.583 597.402 407.384 606.199C404.649 606.106 401.84 606.369 399.135 606.199C392.731 606.397 376.192 607.01 371.403 610.843C368.856 616.385 390.98 610.29 394.615 610.011C398.067 609.574 401.925 609.965 405.421 610.011C403.652 613.409 401.498 616.439 399.135 619.448C395.462 618.841 391.737 618.591 388.031 618.27C383.821 618.241 375.974 617.263 372.382 619.639L372.442 620.325C376.367 622.136 381.473 621.602 385.72 621.601C389.395 621.929 393.079 622.206 396.726 622.766C385.681 635.737 371.137 638.41 356.081 644.498C345.174 648.908 335.419 656.689 323.384 657.898C309.277 659.315 297.782 650.756 285.111 646.164C261.139 637.475 260.196 641.567 239.287 624.432C242.808 622.391 246.269 620.868 250.35 620.371C251.459 619.985 252.263 619.737 253.085 618.841L253.043 618.223C251.293 617.36 249.754 617.876 247.944 618.27C246.237 616.448 244.8 614.19 243.272 612.2C245.638 612.253 247.986 612.279 250.35 612.2C252.111 612.184 254.45 612.476 255.758 611.103L255.4 610.493C250.92 607.963 244.295 607.773 239.287 608.199C235.409 608.073 231.538 608.138 227.659 608.199C224.157 604.151 211.601 585.572 208.086 580.151C210.083 577.701 212.672 575.371 213.903 572.436C229.058 548.344 226.603 528.493 252.832 503.051C257.434 498.586 262.934 494.948 267.262 490.237C261.185 478.425 240.976 457.664 227.94 453.622C220.069 451.182 217.745 461.897 216.399 467.495C212.697 482.882 212.663 500.913 217.43 516.047C219.176 521.589 222.099 526.808 223.485 532.43C222.746 535.316 221.862 537.778 220.511 540.443C202.499 509.292 204.387 460.555 220.511 428.232Z" fill="#7F858E"/>
<path d="M239.287 624.431C242.808 622.391 246.269 620.868 250.35 620.371C260.688 625.756 269.27 629.795 279.779 634.71C321.481 654.208 322.313 649.051 361.284 633.366C369.164 630.194 379.635 627.966 385.72 621.601C389.395 621.929 393.079 622.206 396.726 622.765C385.681 635.737 371.137 638.41 356.081 644.498C345.174 648.908 335.419 656.689 323.384 657.898C309.277 659.314 297.782 650.756 285.111 646.164C261.139 637.475 260.196 641.567 239.287 624.431Z" fill="#5E6670"/>
<path d="M422.012 575.201C423.155 577.323 424.74 578.71 426.636 580.15C421.1 589.345 413.583 597.402 407.385 606.199C404.649 606.106 401.84 606.369 399.135 606.199C410.485 590.164 408.468 593.356 392.014 587.822C398.865 585.203 406.581 584.653 413.137 581.312C416.106 579.799 418.512 577.175 421.477 575.501L422.012 575.201Z" fill="#5E6670"/>
<path d="M213.903 572.436C219.826 586.374 225.115 585.607 238.147 588.582C233.909 592.256 230.057 595.081 227.659 600.355C230.886 604.043 234.438 607.083 239.287 608.199C235.409 608.073 231.538 608.138 227.659 608.199C224.157 604.151 211.601 585.572 208.086 580.15C210.083 577.701 212.672 575.371 213.903 572.436Z" fill="#5E6670"/>
<path d="M394.615 610.011C398.067 609.574 401.925 609.965 405.421 610.011C403.652 613.409 401.498 616.439 399.135 619.448C395.462 618.841 391.737 618.591 388.031 618.27C389.925 616.773 395.55 613.229 395.393 610.41L394.615 610.011Z" fill="#5E6670"/>
<path d="M315.993 587.822C324.495 586.981 332.717 589.641 335.129 598.518C332.789 605.823 325.632 609.157 320.808 614.532C324.468 624.19 336.58 631.167 343.88 620.552C345.223 618.597 345.469 614.649 347.869 613.681C352.49 611.817 351.727 623.234 344.158 629.275C335.211 636.416 325.413 632.755 319.041 624.432C317.068 622.136 314.43 628.863 310.125 631.612C294.048 641.872 277.846 615.658 286.506 614.59C289.089 614.271 298.328 635.272 309.452 622.815C315.633 615.893 311.872 613.076 306.377 608.349C293.225 597.039 301.571 587.698 315.993 587.822Z" fill="black"/>
<path d="M312.479 595.304C316.333 594.271 318.747 593.868 322.585 595.304C324.297 595.626 325.687 596.321 327.228 597.088C324.877 601.108 321.231 604.498 316.885 606.199C313.001 604.211 300.937 594.976 312.479 595.304Z" fill="#EF4442"/>
<path d="M312.479 595.304C316.333 594.271 318.747 593.868 322.585 595.304C320.481 600.026 314.194 601.048 312.479 595.304Z" fill="#FFFFEE"/>
<path d="M265.175 550.862C282.022 547.842 287.847 563.679 295.061 575.201C289.963 579.727 283.884 583.035 276.995 583.396C263.557 582.944 256.431 572.843 253.823 560.33C253.667 559.986 253.815 558.94 253.823 558.519C247.913 554.771 247.129 550.108 255.534 552.716C258.71 551.874 261.918 551.273 265.175 550.862Z" fill="black"/>
<path d="M265.175 558.519C267.136 558.191 268.886 558.339 270.845 558.519L269.763 562.152C268.851 567.443 268.748 571.22 269.763 576.495C267.764 574.703 265.697 572.962 264.062 570.817C261.496 567.68 259.911 564.095 258.519 560.33C260.645 559.513 262.912 558.782 265.175 558.519Z" fill="#FFFFEE"/>
<path d="M265.175 558.519C267.136 558.191 268.886 558.339 270.845 558.519L269.763 562.152C268.851 567.443 268.748 571.22 269.763 576.495C267.764 574.703 265.697 572.962 264.062 570.817C266.769 569.03 266.7 565.052 267.262 562.152C267.756 559.325 268.376 558.789 265.175 558.519Z" fill="#FFFEB3"/>
<path d="M279.155 562.152C283.257 564.283 287.075 571.232 289.202 575.201C287.978 575.758 286.669 576.106 285.384 576.495C282.619 577.253 279.844 577.522 276.995 577.75C277.492 572.533 278.363 567.331 279.155 562.152Z" fill="#F3C719"/>
<path d="M370.409 548.698C375.922 548.114 379.052 550.224 385.72 548.698C384.331 549.451 382.85 550.059 381.41 550.706L382.151 552.919C386.307 565.295 373.483 581.265 360.362 583.396C353.941 583.156 348.489 581.042 343.044 577.75C348.071 562.281 352.281 550.659 370.409 548.698Z" fill="black"/>
<path d="M358.809 560.33L359.149 560.437C360.595 562.452 362.786 573.558 363.495 576.495C360.482 577.138 358.086 577.086 355.077 576.495C353.002 576.331 351.132 576.05 349.216 575.201C351.366 569.738 354.458 564.321 358.809 560.33Z" fill="#F3C719"/>
<path d="M367.154 556.951C370.96 556.041 373.925 555.996 377.69 556.951C377.027 560.927 375.352 564.584 373.556 568.154C372.884 569.618 372.058 571.021 371.288 572.436C370.155 566.842 369.83 562.116 367.154 556.951Z" fill="#FFFEB3"/>
<path d="M274.2 527.895C279.151 528.04 286.046 533.822 282.005 538.743C278.752 536.443 270.751 531.351 274.2 527.895Z" fill="black"/>
<path d="M355.077 527.895C361.046 529.894 352.203 536.813 350.305 538.743C343.728 536.887 351.989 529.224 355.077 527.895Z" fill="black"/>
<path d="M607.557 859.875C603.183 821.688 587.851 801.326 602.702 757.366C607.991 741.709 628.78 704.834 650.185 712.429C665.17 717.798 652.422 742.691 647.466 751.146C627.312 785.531 636.135 796.451 642.598 832.307C652.117 885.112 633.649 931.905 577.126 939.388C575.937 935.337 575.112 930.992 573.078 927.268C575.824 920.936 578.395 912.776 581.464 906.939C605.456 891.85 609.8 888.653 607.557 859.875Z" fill="#5E6670"/>
<path d="M607.557 859.875C603.183 821.688 587.851 801.326 602.702 757.366C607.991 741.709 628.78 704.834 650.185 712.429C653.491 726.872 636.996 742.501 631.56 755.314C614.499 795.519 634.58 835.333 621.358 863.682C615.583 847.458 610.911 826.052 608.991 809.207C608.653 806.234 608.637 802.808 607.719 799.963L607.312 799.945C601.611 809.056 611.619 853.108 607.557 859.875Z" fill="#7F858E"/>
<path d="M304.77 818.856C315.856 833.838 324.406 837.593 338.202 847.259C341.071 863.341 343.705 915.327 333.966 929.83C327.377 939.643 311.697 944.885 307.917 957.579C307.573 959.919 307.172 962.236 306.724 964.558C301.981 964.362 297.239 964.151 292.566 963.251C281.964 963.801 289.562 949.93 295.061 947.23C292.864 938.092 283.444 951.954 282.005 957.579C282.01 959.463 282.07 961.369 282.005 963.251C280.941 961.917 279.98 960.64 279.155 959.134C269.77 942.364 300.01 930.592 305.43 921.049C314.894 904.386 308.028 873.647 310.501 854.812C307.124 843.213 308.195 830.637 304.77 818.856Z" fill="#7F858E"/>
<path d="M304.77 818.856C315.856 833.838 324.406 837.593 338.202 847.259C341.071 863.341 343.705 915.327 333.966 929.83C327.377 939.643 311.697 944.885 307.917 957.579C307.573 959.919 307.172 962.236 306.724 964.558C301.981 964.362 297.239 964.151 292.566 963.251C281.964 963.801 289.562 949.93 295.061 947.23C297.362 950.981 314.409 942.108 317.25 940.565C340.006 928.194 333.483 857.209 315.993 852.173C313.855 852.63 312.301 853.618 310.501 854.812C307.124 843.213 308.195 830.637 304.77 818.856Z" fill="#5E6670"/>
<path d="M292.566 963.251C297.769 961.609 302.527 958.593 307.917 957.579C307.573 959.919 307.172 962.236 306.724 964.558C301.981 964.362 297.239 964.151 292.566 963.251Z" fill="#3C4150"/>
<path d="M282.005 957.579C282.01 959.463 282.07 961.369 282.005 963.251C280.941 961.917 279.98 960.64 279.155 959.134C280.191 958.695 281.067 958.202 282.005 957.579Z" fill="#5E6670"/>
<path d="M225.817 459.183C241.642 467.738 248.936 476.754 260.385 489.669C253.884 493.504 248.626 498.203 243.272 503.47C237.397 510.465 233.221 518.111 227.659 524.707C219.177 506.567 217.854 485.226 223.485 466.114C224.064 463.724 224.742 461.406 225.817 459.183Z" fill="#F6B290"/>
<path d="M225.817 459.183C241.642 467.738 248.936 476.754 260.385 489.669C253.884 493.504 248.626 498.203 243.272 503.47C242.707 489.038 234.545 475.068 223.485 466.114C224.064 463.724 224.742 461.406 225.817 459.183Z" fill="#E87F3F"/>
<path d="M370.409 490.237C375.547 478.66 390.106 461.61 402.21 459.183L404.333 462.208C413.562 482.479 410.524 501.294 403.223 521.439C400.791 518.326 392.491 509.299 391.38 506.291C384.206 501.174 377.706 495.279 370.409 490.237Z" fill="#F6B290"/>
<path d="M370.409 490.237C375.547 478.66 390.106 461.61 402.21 459.183L404.333 462.208C393.085 466.928 384.618 490.032 389.283 501.2C389.984 502.881 390.974 504.512 391.38 506.291C384.206 501.174 377.706 495.279 370.409 490.237Z" fill="#E87F3F"/>
<path d="M407.384 863.682C412.296 860.979 415.719 855.76 420.685 853.398C413.511 879.352 403.219 904.53 420.685 930.602C411.465 927.645 399.353 920.461 393.615 912.537C398.372 893.728 400.314 878.824 403.223 859.875C404.581 861.174 405.99 862.421 407.384 863.682Z" fill="#5E6670"/>
<path d="M391.38 919.361C397.186 922.755 401.743 928.073 407.834 931.421C412.992 934.256 421.732 935.866 425.097 938.153L424.925 938.602C421.46 940.047 417.067 940.342 413.342 940.921C403.392 942.729 392.822 943.991 382.703 944.061C385.98 935.942 388.668 927.681 391.38 919.361Z" fill="#5E6670"/>
<path d="M230.652 612.2C237.198 612.573 243.86 611.271 250.35 612.2C247.986 612.279 245.638 612.253 243.272 612.2C244.8 614.19 246.237 616.448 247.944 618.27C243.667 618.285 240.374 618.944 236.371 620.371C234.036 617.854 232.335 615.181 230.652 612.2Z" fill="#5E6670"/>
</svg>
