<svg width="849" height="1183" viewBox="0 0 849 1183" fill="none" xmlns="http://www.w3.org/2000/svg">
<rect x="5" y="5" width="839" height="1173" rx="45" fill="white"/>
<rect x="5" y="5" width="839" height="1173" rx="45" stroke="black" stroke-width="10"/>
<circle cx="786.5" cy="1124.5" r="11.5" fill="black"/>
<circle cx="786.5" cy="59.5" r="11.5" fill="black"/>
<path d="M77 1124.5C77 1130.85 71.8513 1136 65.5 1136C59.1487 1136 54 1130.85 54 1124.5C54 1118.15 59.1487 1113 65.5 1113C71.8513 1113 77 1118.15 77 1124.5Z" fill="black"/>
<path d="M77 59.5C77 65.8513 71.8513 71 65.5 71C59.1487 71 54 65.8513 54 59.5C54 53.1487 59.1487 48 65.5 48C71.8513 48 77 53.1487 77 59.5Z" fill="black"/>
<mask id="path-6-inside-1_97_5" fill="white">
<path d="M708 48C713.523 48 717.934 52.4996 718.616 57.9801C723.122 94.1833 751.817 122.878 788.02 127.384C793.5 128.066 798 132.477 798 138V1046C798 1051.52 793.5 1055.93 788.02 1056.62C751.817 1061.12 723.122 1089.82 718.616 1126.02C717.934 1131.5 713.523 1136 708 1136H141C135.477 1136 131.066 1131.5 130.384 1126.02C125.878 1089.82 97.1833 1061.12 60.9801 1056.62C55.4996 1055.93 51 1051.52 51 1046V138C51 132.477 55.4996 128.066 60.9801 127.384C97.1833 122.878 125.878 94.1833 130.384 57.9801C131.066 52.4996 135.477 48 141 48H708Z"/>
</mask>
<path d="M708 48C713.523 48 717.934 52.4996 718.616 57.9801C723.122 94.1833 751.817 122.878 788.02 127.384C793.5 128.066 798 132.477 798 138V1046C798 1051.52 793.5 1055.93 788.02 1056.62C751.817 1061.12 723.122 1089.82 718.616 1126.02C717.934 1131.5 713.523 1136 708 1136H141C135.477 1136 131.066 1131.5 130.384 1126.02C125.878 1089.82 97.1833 1061.12 60.9801 1056.62C55.4996 1055.93 51 1051.52 51 1046V138C51 132.477 55.4996 128.066 60.9801 127.384C97.1833 122.878 125.878 94.1833 130.384 57.9801C131.066 52.4996 135.477 48 141 48H708Z" fill="#77B866"/>
<path d="M130.384 1126.02L138.322 1125.03L130.384 1126.02ZM718.616 1126.02L710.678 1125.03L718.616 1126.02ZM788.02 1056.62L789.008 1064.56L788.02 1056.62ZM718.616 57.9801L726.555 56.9922L718.616 57.9801ZM718.616 57.9801L710.678 58.9681C715.635 98.8063 747.194 130.365 787.032 135.322L788.02 127.384L789.008 119.445C756.44 115.392 730.608 89.5603 726.555 56.9922L718.616 57.9801ZM798 138H790V1046H798H806V138H798ZM788.02 1056.62L787.032 1048.68C747.194 1053.64 715.635 1085.19 710.678 1125.03L718.616 1126.02L726.555 1127.01C730.608 1094.44 756.44 1068.61 789.008 1064.56L788.02 1056.62ZM708 1136V1128H141V1136V1144H708V1136ZM130.384 1126.02L138.322 1125.03C133.365 1085.19 101.806 1053.64 61.9681 1048.68L60.9801 1056.62L59.9922 1064.56C92.5603 1068.61 118.392 1094.44 122.445 1127.01L130.384 1126.02ZM51 1046H59V138H51H43V1046H51ZM60.9801 127.384L61.9681 135.322C101.806 130.365 133.365 98.8063 138.322 58.9681L130.384 57.9801L122.445 56.9922C118.392 89.5603 92.5603 115.392 59.9922 119.445L60.9801 127.384ZM141 48V56H708V48V40H141V48ZM130.384 57.9801L138.322 58.9681C138.438 58.0389 138.872 57.2306 139.427 56.6958C139.954 56.1887 140.494 56 141 56V48V40C130.84 40 123.547 48.1329 122.445 56.9922L130.384 57.9801ZM51 138H59C59 137.494 59.1887 136.954 59.6958 136.427C60.2306 135.872 61.0389 135.438 61.9681 135.322L60.9801 127.384L59.9922 119.445C51.1329 120.547 43 127.84 43 138H51ZM60.9801 1056.62L61.9681 1048.68C61.0389 1048.56 60.2306 1048.13 59.6958 1047.57C59.1887 1047.05 59 1046.51 59 1046H51H43C43 1056.16 51.1329 1063.45 59.9922 1064.56L60.9801 1056.62ZM141 1136V1128C140.494 1128 139.954 1127.81 139.427 1127.3C138.872 1126.77 138.438 1125.96 138.322 1125.03L130.384 1126.02L122.445 1127.01C123.547 1135.87 130.84 1144 141 1144V1136ZM718.616 1126.02L710.678 1125.03C710.562 1125.96 710.128 1126.77 709.573 1127.3C709.046 1127.81 708.506 1128 708 1128V1136V1144C718.16 1144 725.453 1135.87 726.555 1127.01L718.616 1126.02ZM798 1046H790C790 1046.51 789.811 1047.05 789.304 1047.57C788.769 1048.13 787.961 1048.56 787.032 1048.68L788.02 1056.62L789.008 1064.56C797.867 1063.45 806 1056.16 806 1046H798ZM788.02 127.384L787.032 135.322C787.961 135.438 788.769 135.872 789.304 136.427C789.811 136.954 790 137.494 790 138H798H806C806 127.84 797.867 120.547 789.008 119.445L788.02 127.384ZM718.616 57.9801L726.555 56.9922C725.453 48.1329 718.16 40 708 40V48V56C708.506 56 709.046 56.1887 709.573 56.6958C710.128 57.2306 710.562 58.0389 710.678 58.9681L718.616 57.9801Z" fill="black" mask="url(#path-6-inside-1_97_5)"/>
<path d="M690 102C695.523 102 699.911 106.512 700.837 111.957C705.019 136.563 724.437 155.981 749.043 160.163C754.488 161.089 759 165.477 759 171V1014C759 1019.52 754.488 1023.91 749.043 1024.84C724.711 1028.97 705.454 1048 700.984 1072.22C699.993 1077.59 695.633 1082 690.175 1082H158.825C153.367 1082 149.007 1077.59 148.016 1072.22C143.546 1048 124.288 1028.97 99.9568 1024.84C94.5121 1023.91 90 1019.52 90 1014V171C90 165.477 94.512 161.089 99.9568 160.163C124.563 155.981 143.981 136.563 148.163 111.957C149.089 106.512 153.477 102 159 102H690Z" fill="#A3CC98"/>
<path d="M299.595 348.925V408H289.905V367.54L271.885 408H265.17L247.065 367.54V408H237.375V348.925H247.83L268.57 395.25L289.225 348.925H299.595ZM332.646 408.765C328.226 408.765 324.231 407.773 320.661 405.79C317.091 403.75 314.286 400.917 312.246 397.29C310.206 393.607 309.186 389.357 309.186 384.54C309.186 379.78 310.234 375.558 312.331 371.875C314.428 368.192 317.289 365.358 320.916 363.375C324.543 361.392 328.594 360.4 333.071 360.4C337.548 360.4 341.599 361.392 345.226 363.375C348.853 365.358 351.714 368.192 353.811 371.875C355.908 375.558 356.956 379.78 356.956 384.54C356.956 389.3 355.879 393.522 353.726 397.205C351.573 400.888 348.626 403.75 344.886 405.79C341.203 407.773 337.123 408.765 332.646 408.765ZM332.646 400.35C335.139 400.35 337.463 399.755 339.616 398.565C341.826 397.375 343.611 395.59 344.971 393.21C346.331 390.83 347.011 387.94 347.011 384.54C347.011 381.14 346.359 378.278 345.056 375.955C343.753 373.575 342.024 371.79 339.871 370.6C337.718 369.41 335.394 368.815 332.901 368.815C330.408 368.815 328.084 369.41 325.931 370.6C323.834 371.79 322.163 373.575 320.916 375.955C319.669 378.278 319.046 381.14 319.046 384.54C319.046 389.583 320.321 393.493 322.871 396.27C325.478 398.99 328.736 400.35 332.646 400.35ZM390.165 360.4C393.848 360.4 397.135 361.165 400.025 362.695C402.972 364.225 405.267 366.492 406.91 369.495C408.553 372.498 409.375 376.125 409.375 380.375V408H399.77V381.82C399.77 377.627 398.722 374.425 396.625 372.215C394.528 369.948 391.667 368.815 388.04 368.815C384.413 368.815 381.523 369.948 379.37 372.215C377.273 374.425 376.225 377.627 376.225 381.82V408H366.535V361.165H376.225V366.52C377.812 364.593 379.823 363.092 382.26 362.015C384.753 360.938 387.388 360.4 390.165 360.4ZM433.04 369.07V394.995C433.04 396.752 433.437 398.027 434.23 398.82C435.08 399.557 436.497 399.925 438.48 399.925H444.43V408H436.78C432.417 408 429.074 406.98 426.75 404.94C424.427 402.9 423.265 399.585 423.265 394.995V369.07H417.74V361.165H423.265V349.52H433.04V361.165H444.43V369.07H433.04ZM450.131 384.37C450.131 379.667 451.095 375.502 453.021 371.875C455.005 368.248 457.668 365.443 461.011 363.46C464.411 361.42 468.151 360.4 472.231 360.4C475.915 360.4 479.116 361.137 481.836 362.61C484.613 364.027 486.823 365.812 488.466 367.965V361.165H498.241V408H488.466V401.03C486.823 403.24 484.585 405.082 481.751 406.555C478.918 408.028 475.688 408.765 472.061 408.765C468.038 408.765 464.355 407.745 461.011 405.705C457.668 403.608 455.005 400.718 453.021 397.035C451.095 393.295 450.131 389.073 450.131 384.37ZM488.466 384.54C488.466 381.31 487.786 378.505 486.426 376.125C485.123 373.745 483.395 371.932 481.241 370.685C479.088 369.438 476.765 368.815 474.271 368.815C471.778 368.815 469.455 369.438 467.301 370.685C465.148 371.875 463.391 373.66 462.031 376.04C460.728 378.363 460.076 381.14 460.076 384.37C460.076 387.6 460.728 390.433 462.031 392.87C463.391 395.307 465.148 397.177 467.301 398.48C469.511 399.727 471.835 400.35 474.271 400.35C476.765 400.35 479.088 399.727 481.241 398.48C483.395 397.233 485.123 395.42 486.426 393.04C487.786 390.603 488.466 387.77 488.466 384.54ZM534.599 360.4C538.282 360.4 541.569 361.165 544.459 362.695C547.405 364.225 549.7 366.492 551.344 369.495C552.987 372.498 553.809 376.125 553.809 380.375V408H544.204V381.82C544.204 377.627 543.155 374.425 541.059 372.215C538.962 369.948 536.1 368.815 532.474 368.815C528.847 368.815 525.957 369.948 523.804 372.215C521.707 374.425 520.659 377.627 520.659 381.82V408H510.969V361.165H520.659V366.52C522.245 364.593 524.257 363.092 526.694 362.015C529.187 360.938 531.822 360.4 534.599 360.4ZM519.214 356.32C519.667 353.033 520.744 350.568 522.444 348.925C524.144 347.225 526.269 346.375 528.819 346.375C529.895 346.375 530.83 346.545 531.624 346.885C532.417 347.225 533.38 347.735 534.514 348.415C535.364 348.982 536.072 349.407 536.639 349.69C537.262 349.973 537.942 350.115 538.679 350.115C539.642 350.115 540.435 349.832 541.059 349.265C541.739 348.642 542.164 347.735 542.334 346.545H547.774C547.32 349.832 546.244 352.325 544.544 354.025C542.844 355.668 540.719 356.49 538.169 356.49C537.092 356.49 536.129 356.32 535.279 355.98C534.429 355.583 533.494 355.045 532.474 354.365C531.454 353.742 530.66 353.317 530.094 353.09C529.584 352.807 528.989 352.665 528.309 352.665C527.345 352.665 526.524 352.977 525.844 353.6C525.22 354.223 524.824 355.13 524.654 356.32H519.214ZM562.939 384.37C562.939 379.667 563.902 375.502 565.829 371.875C567.812 368.248 570.476 365.443 573.819 363.46C577.219 361.42 580.959 360.4 585.039 360.4C588.722 360.4 591.924 361.137 594.644 362.61C597.421 364.027 599.631 365.812 601.274 367.965V361.165H611.049V408H601.274V401.03C599.631 403.24 597.392 405.082 594.559 406.555C591.726 408.028 588.496 408.765 584.869 408.765C580.846 408.765 577.162 407.745 573.819 405.705C570.476 403.608 567.812 400.718 565.829 397.035C563.902 393.295 562.939 389.073 562.939 384.37ZM601.274 384.54C601.274 381.31 600.594 378.505 599.234 376.125C597.931 373.745 596.202 371.932 594.049 370.685C591.896 369.438 589.572 368.815 587.079 368.815C584.586 368.815 582.262 369.438 580.109 370.685C577.956 371.875 576.199 373.66 574.839 376.04C573.536 378.363 572.884 381.14 572.884 384.37C572.884 387.6 573.536 390.433 574.839 392.87C576.199 395.307 577.956 397.177 580.109 398.48C582.319 399.727 584.642 400.35 587.079 400.35C589.572 400.35 591.896 399.727 594.049 398.48C596.202 397.233 597.931 395.42 599.234 393.04C600.594 390.603 601.274 387.77 601.274 384.54Z" fill="black"/>
<mask id="path-10-outside-2_97_5" maskUnits="userSpaceOnUse" x="418" y="1007" width="24" height="31" fill="black">
<rect fill="white" x="418" y="1007" width="24" height="31"/>
<path d="M418.84 1030.92V1027.48L432.28 1008.2H437.8V1026.96H441.52V1030.92H437.8V1037H433.32V1030.92H418.84ZM433.52 1012.84L424.08 1026.96H433.52V1012.84Z"/>
</mask>
<path d="M418.84 1030.92V1027.48L432.28 1008.2H437.8V1026.96H441.52V1030.92H437.8V1037H433.32V1030.92H418.84ZM433.52 1012.84L424.08 1026.96H433.52V1012.84Z" fill="black"/>
<path d="M418.84 1030.92H418.54V1031.22H418.84V1030.92ZM418.84 1027.48L418.594 1027.31L418.54 1027.39V1027.48H418.84ZM432.28 1008.2V1007.9H432.123L432.034 1008.03L432.28 1008.2ZM437.8 1008.2H438.1V1007.9H437.8V1008.2ZM437.8 1026.96H437.5V1027.26H437.8V1026.96ZM441.52 1026.96H441.82V1026.66H441.52V1026.96ZM441.52 1030.92V1031.22H441.82V1030.92H441.52ZM437.8 1030.92V1030.62H437.5V1030.92H437.8ZM437.8 1037V1037.3H438.1V1037H437.8ZM433.32 1037H433.02V1037.3H433.32V1037ZM433.32 1030.92H433.62V1030.62H433.32V1030.92ZM433.52 1012.84H433.82V1011.85L433.271 1012.67L433.52 1012.84ZM424.08 1026.96L423.831 1026.79L423.519 1027.26H424.08V1026.96ZM433.52 1026.96V1027.26H433.82V1026.96H433.52ZM418.84 1030.92H419.14V1027.48H418.84H418.54V1030.92H418.84ZM418.84 1027.48L419.086 1027.65L432.526 1008.37L432.28 1008.2L432.034 1008.03L418.594 1027.31L418.84 1027.48ZM432.28 1008.2V1008.5H437.8V1008.2V1007.9H432.28V1008.2ZM437.8 1008.2H437.5V1026.96H437.8H438.1V1008.2H437.8ZM437.8 1026.96V1027.26H441.52V1026.96V1026.66H437.8V1026.96ZM441.52 1026.96H441.22V1030.92H441.52H441.82V1026.96H441.52ZM441.52 1030.92V1030.62H437.8V1030.92V1031.22H441.52V1030.92ZM437.8 1030.92H437.5V1037H437.8H438.1V1030.92H437.8ZM437.8 1037V1036.7H433.32V1037V1037.3H437.8V1037ZM433.32 1037H433.62V1030.92H433.32H433.02V1037H433.32ZM433.32 1030.92V1030.62H418.84V1030.92V1031.22H433.32V1030.92ZM433.52 1012.84L433.271 1012.67L423.831 1026.79L424.08 1026.96L424.329 1027.13L433.769 1013.01L433.52 1012.84ZM424.08 1026.96V1027.26H433.52V1026.96V1026.66H424.08V1026.96ZM433.52 1026.96H433.82V1012.84H433.52H433.22V1026.96H433.52Z" fill="black" mask="url(#path-10-outside-2_97_5)"/>
<path d="M252.295 197.975V272H231.715V231.155L217.75 272H200.53L186.46 230.84V272H165.88V197.975H190.765L209.35 246.065L227.515 197.975H252.295ZM291.415 272.735C285.535 272.735 280.25 271.51 275.56 269.06C270.94 266.61 267.3 263.11 264.64 258.56C261.98 254.01 260.65 248.655 260.65 242.495C260.65 236.405 261.98 231.085 264.64 226.535C267.37 221.985 271.045 218.485 275.665 216.035C280.355 213.585 285.64 212.36 291.52 212.36C297.4 212.36 302.65 213.585 307.27 216.035C311.96 218.485 315.635 221.985 318.295 226.535C321.025 231.085 322.39 236.405 322.39 242.495C322.39 248.585 321.025 253.94 318.295 258.56C315.635 263.11 311.96 266.61 307.27 269.06C302.58 271.51 297.295 272.735 291.415 272.735ZM291.415 254.885C294.285 254.885 296.665 253.835 298.555 251.735C300.515 249.565 301.495 246.485 301.495 242.495C301.495 238.505 300.515 235.46 298.555 233.36C296.665 231.26 294.32 230.21 291.52 230.21C288.72 230.21 286.375 231.26 284.485 233.36C282.595 235.46 281.65 238.505 281.65 242.495C281.65 246.555 282.56 249.635 284.38 251.735C286.2 253.835 288.545 254.885 291.415 254.885ZM391.033 213.095V272H370.348V263.6C368.598 266.26 366.183 268.43 363.103 270.11C360.023 271.72 356.488 272.525 352.498 272.525C345.638 272.525 340.213 270.285 336.223 265.805C332.303 261.255 330.343 255.095 330.343 247.325V213.095H350.818V244.7C350.818 248.06 351.693 250.72 353.443 252.68C355.263 254.57 357.643 255.515 360.583 255.515C363.593 255.515 365.973 254.57 367.723 252.68C369.473 250.72 370.348 248.06 370.348 244.7V213.095H391.033ZM441.28 212.57C448.07 212.57 453.46 214.845 457.45 219.395C461.44 223.875 463.435 229.965 463.435 237.665V272H442.855V240.395C442.855 237.035 441.98 234.41 440.23 232.52C438.48 230.56 436.135 229.58 433.195 229.58C430.115 229.58 427.7 230.56 425.95 232.52C424.2 234.41 423.325 237.035 423.325 240.395V272H402.745V213.095H423.325V221.495C425.145 218.835 427.595 216.7 430.675 215.09C433.755 213.41 437.29 212.57 441.28 212.57ZM509.483 254.465V272H500.558C485.508 272 477.983 264.545 477.983 249.635V230.21H470.738V213.095H477.983V198.815H498.668V213.095H509.378V230.21H498.668V249.95C498.668 251.56 499.018 252.715 499.718 253.415C500.488 254.115 501.748 254.465 503.498 254.465H509.483ZM515.562 242.495C515.562 236.405 516.647 231.085 518.817 226.535C521.057 221.985 524.067 218.485 527.847 216.035C531.697 213.585 535.967 212.36 540.657 212.36C544.717 212.36 548.217 213.165 551.157 214.775C554.097 216.385 556.372 218.555 557.982 221.285V213.095H578.562V272H557.982V263.81C556.372 266.54 554.062 268.71 551.052 270.32C548.112 271.93 544.647 272.735 540.657 272.735C535.967 272.735 531.697 271.51 527.847 269.06C524.067 266.61 521.057 263.11 518.817 258.56C516.647 253.94 515.562 248.585 515.562 242.495ZM557.982 242.495C557.982 238.715 556.932 235.74 554.832 233.57C552.802 231.4 550.282 230.315 547.272 230.315C544.192 230.315 541.637 231.4 539.607 233.57C537.577 235.67 536.562 238.645 536.562 242.495C536.562 246.275 537.577 249.285 539.607 251.525C541.637 253.695 544.192 254.78 547.272 254.78C550.282 254.78 552.802 253.695 554.832 251.525C556.932 249.355 557.982 246.345 557.982 242.495ZM600.684 207.635C597.044 207.635 594.104 206.655 591.864 204.695C589.694 202.665 588.609 200.145 588.609 197.135C588.609 194.055 589.694 191.5 591.864 189.47C594.104 187.44 597.044 186.425 600.684 186.425C604.254 186.425 607.124 187.44 609.294 189.47C611.534 191.5 612.654 194.055 612.654 197.135C612.654 200.145 611.534 202.665 609.294 204.695C607.124 206.655 604.254 207.635 600.684 207.635ZM610.869 213.095V272H590.289V213.095H610.869ZM661.124 212.57C667.914 212.57 673.304 214.845 677.294 219.395C681.284 223.875 683.279 229.965 683.279 237.665V272H662.699V240.395C662.699 237.035 661.824 234.41 660.074 232.52C658.324 230.56 655.979 229.58 653.039 229.58C649.959 229.58 647.544 230.56 645.794 232.52C644.044 234.41 643.169 237.035 643.169 240.395V272H622.589V213.095H643.169V221.495C644.989 218.835 647.439 216.7 650.519 215.09C653.599 213.41 657.134 212.57 661.124 212.57Z" fill="black"/>
<path d="M621.16 582.076C626.065 581.734 631.103 582.314 635.909 583.281C651.794 586.476 663.652 595.407 672.549 608.741C683.06 608.399 692.778 608.832 701.462 615.529C707.864 620.468 712.618 627.593 713.684 635.693C719.832 635.594 726.539 637.114 731.892 640.18C738.639 644.043 743.331 650.597 745.359 658.046C747.544 666.071 746.699 674.524 742.478 681.744C738.167 689.075 731.106 694.38 722.866 696.48C711.798 699.345 701.537 696.321 691.974 690.679C688.219 692.862 684.474 694.662 680.295 695.885C666.341 699.97 653.334 697.54 640.764 690.699C636.512 693.613 631.652 695.423 626.645 696.576C614.066 699.586 600.805 697.418 589.839 690.557C583.486 694.299 577.291 696.571 569.934 697.315C573.661 704.72 577.967 711.852 581.817 719.201C595.083 744.16 608.059 769.272 620.743 794.531L662.052 877.886C673.172 901.241 684.412 924.539 695.773 947.779C699.289 948.846 702.696 950.574 705.371 953.127C708.595 956.205 710.221 960.291 710.167 964.732C710.117 968.733 708.693 972.287 705.817 975.087C701.398 979.387 694.978 980.86 689.033 981.353C681.283 981.994 673.449 981.774 665.677 981.774L632.101 981.776L523.136 981.77L185.573 981.82L147.517 981.854C138.714 981.878 129.384 982.487 120.685 981.026C115.222 980.109 109.441 977.838 106.191 973.105C103.398 969.038 102.892 963.101 103.851 958.324C105.619 949.516 113.802 944.487 120.702 939.856C126.445 925.247 132.821 910.921 139.109 896.544C144.981 883.118 150.754 869.609 156.885 856.3C183.111 799.366 211.116 743.267 240.857 688.086C246.776 677.236 252.872 666.482 259.142 655.829C263.752 647.892 268.325 639.608 273.968 632.352C276.155 629.541 278.69 626.762 281.76 624.898C284.961 622.956 288.529 622.227 292.187 623.169C296.139 624.186 299.024 626.558 301.623 629.605C305.951 634.682 309.311 640.868 312.748 646.573C317.455 654.361 322.119 662.174 326.741 670.012C345.862 702.312 364.189 735.074 381.707 768.271C387.319 778.78 392.875 789.319 398.373 799.889C401.392 805.675 404.21 811.658 407.564 817.253C428.415 775.204 449.952 733.5 472.168 692.156L486.339 666.415C490.567 658.754 494.786 650.905 499.648 643.626C502.594 639.217 505.98 634.329 510.376 631.226C514.254 628.488 518.843 627.489 523.517 628.396C530.027 629.657 533.822 634.037 537.264 639.295C539.1 636.405 541.026 633.782 543.505 631.405C550.993 624.225 560.655 621.311 570.861 621.539C573.51 613.61 577.056 606.987 582.57 600.641C592.553 589.15 606.159 583.153 621.16 582.076Z" fill="black"/>
<path d="M459.308 862.338C487.616 860.837 505.151 869.093 526.332 886.976C532.659 892.317 538.719 897.98 545.418 902.863C555.144 909.954 566.333 915.353 577.453 919.885C585.179 923.032 593.225 925.904 601.162 928.479C614.906 932.938 689.79 955.191 696.5 961.239C697.491 962.133 698.457 963.392 698.364 964.804C698.299 965.787 697.718 966.684 697.024 967.348C693.743 970.491 687.094 970.72 682.804 970.966C670.294 971.685 657.425 971.073 644.881 971.072H571.379L345.055 971.077L201.063 971.079L154.881 971.094C146.287 971.096 137.503 971.487 128.939 970.881C125.265 970.621 120.221 970.242 117.203 967.932C115.89 966.927 115.294 965.364 115.135 963.747C114.867 961.016 116.231 958.578 117.988 956.595C123.812 950.026 147.812 936.673 156.457 931.789C170.989 923.579 189.612 912.115 205.903 908.571C218.698 905.788 231.915 910.388 244.382 913.113C259.814 916.487 277.638 918.561 293.074 914.52C306.686 910.957 323.373 899.055 336.152 892.1C345.413 887.06 354.963 882.092 364.846 878.372C393.251 867.684 429.127 864.17 459.308 862.338Z" fill="#438E29"/>
<path d="M355.234 743.114C360.812 752.794 365.993 762.734 371.283 772.573C381.449 791.409 391.428 810.346 401.216 829.381C398.315 835.529 395.044 841.539 391.912 847.574C389.604 852.023 387.428 856.669 384.817 860.939C364.386 865.853 347.801 872.535 329.46 882.941C317.754 889.582 303.657 899.897 290.848 903.308C273.3 907.981 254.243 903.558 237.004 899.661C227.067 897.413 217.116 894.965 206.887 896.685C187.951 899.87 153.771 919.843 136.614 930.356L138.255 926.853C163.693 867.121 191.195 808.289 220.715 750.465C224.101 757.307 233.913 777.211 238.453 781.838C239.943 783.355 241.753 784.094 243.887 784.019C252.71 783.706 273.653 759.606 280.533 752.31C285.922 758.722 291.288 765.254 297.475 770.928C301.558 774.671 306.521 778.632 312.388 778.26C325.098 777.452 346.582 752.511 355.234 743.114Z" fill="#C26C3C"/>
<path d="M224.425 810.134C225.22 810.127 226.062 810.219 226.813 810.5C228.306 811.06 229.576 812.199 230.17 813.687C231.003 815.773 230.296 817.633 229.47 819.575C226.632 826.254 222.941 832.79 219.67 839.28C217.57 843.443 215.291 849.406 212.468 852.925C211.515 854.114 210.437 854.614 209.047 855.166C208.064 855.153 207.121 855.096 206.201 854.712C204.909 854.171 203.804 853.223 203.261 851.913C202.247 849.47 203.36 847.203 204.377 844.973C207.23 838.713 210.558 832.596 213.609 826.426C215.545 822.509 218.357 815.359 221.005 812.172C221.942 811.044 223.081 810.633 224.425 810.134Z" fill="black"/>
<path d="M583.925 747.89C585.976 750.152 598.232 775.205 600.599 779.802C628.04 833.618 654.77 887.794 680.784 942.315C660.089 935.158 639.163 928.75 618.324 922.035C598.299 915.582 577.708 909.287 559.452 898.613C550.909 893.619 544.068 886.957 536.596 880.609C527.929 873.245 518.981 866.467 509.105 860.81C488.38 849.292 465.688 849.99 442.89 851.978C428.111 853.267 413.516 855.401 398.885 857.794C417.22 822.733 435.236 787.507 452.933 752.12C457.502 759.204 462.136 766.245 466.835 773.243C469.291 776.923 471.675 781.425 474.826 784.495C476.129 785.764 477.778 786.704 479.647 786.606C481.312 786.518 482.78 785.664 484.065 784.664C487.678 781.857 490.877 777.785 494.016 774.421C499.594 768.395 505.245 762.437 510.967 756.547C517.203 762.814 531.939 782.617 540.029 783.059C542.381 783.188 544.539 782.297 546.534 781.135C553.464 777.098 559.653 770.717 565.484 765.25L583.925 747.89Z" fill="#C26C3C"/>
<path d="M459.403 802.745C460.196 802.799 460.918 802.95 461.659 803.238C463.087 803.794 464.34 804.905 464.901 806.347C465.642 808.247 465.019 810.045 464.279 811.84C462.755 815.537 453.778 833.603 451.539 836.049C450.808 836.849 449.591 837.248 448.614 837.656C447.527 837.597 446.443 837.485 445.456 836.995C444.033 836.288 443.013 835.215 442.586 833.662C442.365 832.857 442.321 832.054 442.513 831.241C443.674 826.33 450.98 813.28 453.669 808.206C455.271 805.181 455.989 803.793 459.403 802.745Z" fill="black"/>
<path d="M619.72 593.908C624.489 593.2 630.23 593.777 634.902 594.888C644.51 597.174 653.781 603.006 659.861 610.83C661.521 612.965 662.74 615.491 664.173 617.781C667.606 623.267 672.55 620.941 677.802 620.338C680.512 620.027 683.381 620.246 686.033 620.865C693.978 622.722 700.714 628.847 702.55 636.909C703.186 639.707 703.322 643.185 704.957 645.602C707.451 649.289 716.217 647.31 720.362 648.174C725.402 649.223 729.784 652.309 732.468 656.702C735.17 661.008 736.03 666.22 734.854 671.166C733.688 676.012 730.549 680.097 726.337 682.702C719.936 686.662 710.127 687.189 703.358 683.83C700.139 682.232 695.96 677.724 692.294 677.997C689.747 678.187 687.169 680.163 684.991 681.413C675.787 686.698 666.03 687.071 655.874 684.723C654.222 684.212 652.526 683.673 650.985 682.877C648.424 681.553 645.194 678.97 642.429 678.41C638.904 677.696 631.174 683.112 627.24 684.365C622.089 685.972 616.67 686.534 611.3 686.018C607.716 685.647 604.032 684.694 600.686 683.365C597.692 682.177 591.458 677.815 588.532 678.003C585.845 678.177 580.111 683.032 576.823 684.232C572.424 685.836 568.007 685.773 563.4 685.752C556.737 674.473 550.476 662.881 544.17 651.397C545.368 647.969 546.88 644.824 549.251 642.041C553.705 636.807 560.385 633.847 567.218 633.588C569.704 633.494 572.247 633.816 574.719 633.574C576.481 633.4 578.257 632.811 579.407 631.397C581.413 628.93 581.782 624.95 582.946 622.006C584.724 617.627 587.133 613.532 590.097 609.851C597.603 600.555 607.913 595.225 619.72 593.908Z" fill="#7BDFE0"/>
<path d="M288.286 634.275C288.719 634.289 289.269 634.275 289.699 634.383C291.604 634.863 292.903 636.687 294.036 638.168C301.181 647.515 307.581 659.779 313.637 669.959C325.986 690.456 337.961 711.176 349.556 732.109C341.36 742.096 323.345 762.595 311.38 767.252C304.418 763.429 298.479 756.248 293.438 750.166C290.383 746.481 286.653 740.107 282.345 738.147C282.246 738.141 282.148 738.135 282.05 738.13C280.638 738.066 279.201 738.209 278.007 739.039C273.841 741.938 268.579 748.597 264.897 752.458C258.466 759.293 251.801 765.903 244.913 772.277C238.619 761.035 232.362 749.691 226.469 738.235C236.256 718.89 247.116 699.861 257.757 680.968C264.861 668.354 272.751 653.28 281.198 641.627C283.259 638.785 285.382 636.273 288.286 634.275Z" fill="#FEFEF6"/>
<path d="M518.807 639.767C519.688 639.73 520.671 639.648 521.53 639.87C524.32 640.59 526.595 644.083 528.155 646.344C534.499 655.549 540.01 666.832 545.497 676.657C556.823 696.819 567.969 717.082 578.936 737.442C569.835 744.787 548.604 767.984 540.369 771.454C531.731 765.027 524.11 752.52 515.425 745.128C514.057 744.22 512.565 743.385 510.871 743.481C509.435 743.562 508.208 744.22 507.082 745.072C503.215 747.998 499.895 752.009 496.557 755.53C491.097 761.25 485.686 767.018 480.325 772.831C472.684 762.601 465.634 751.909 458.496 741.328C469.488 720.61 480.666 699.991 492.03 679.474C498.093 668.665 503.936 657.191 511.287 647.195C513.472 644.224 515.669 641.746 518.807 639.767Z" fill="#FEFEF6"/>
<path d="M208.178 450.242C217.093 449.327 227.289 451.093 235.688 454.089C251.309 459.661 265.287 471.4 272.389 486.5L273.486 486.31C286 484.198 299.701 486.124 310.143 493.668C319.422 500.253 325.697 510.261 327.583 521.483C329.07 521.243 330.572 520.984 332.074 520.858C342.084 520.017 352.357 523.61 359.992 530.016C368.105 536.824 372.571 546.823 373.477 557.283C374.378 567.67 369.97 579.224 363.317 587.086C356.332 595.273 346.384 600.357 335.656 601.219C326.13 601.948 315.234 598.458 307.986 592.243C307.474 592.623 306.958 592.998 306.439 593.369C294.499 601.889 277.46 603.101 263.411 600.771C256.989 599.56 248.708 597.243 243.683 592.878C237.905 596.302 231.857 598.934 225.28 600.391C209.938 603.789 193.123 601.736 179.815 593.182C172.22 598.119 164.069 600.956 155.037 601.692C141.971 602.757 129.102 598.868 119.156 590.275C108.688 581.231 102.999 569.188 102.107 555.445C101.223 541.826 105.83 529.031 114.853 518.852C122.234 510.524 134.709 504.117 145.859 503.441C148.776 492.27 153.717 481.871 161.246 473.054C173.074 459.205 190.215 451.592 208.178 450.242Z" fill="black"/>
<path d="M207.254 462.402C212.394 461.524 218.842 462.22 223.929 463.22C237.146 465.82 250.859 474.174 258.499 485.415C260.959 489.035 262.334 493.332 264.806 496.858C268.009 501.425 275.694 497.837 280.233 497.342C283.466 496.994 286.734 497.127 289.929 497.737C302.579 500.081 312.744 509.506 316.034 521.944C317.042 525.822 316.895 530.613 319.22 533.995C323.457 536.16 332.731 532.064 339.69 533.162C346.61 534.254 352.986 538.369 356.983 544.08C361.326 550.287 362.762 557.962 361.407 565.376C359.968 573.099 355.514 579.932 349.03 584.366C341.312 589.69 330.184 591.359 321.517 587.284C317.475 585.383 312.236 579.539 307.736 579.878C304.853 580.095 301.672 582.691 299.188 584.12C288.332 590.362 275.685 591.178 263.578 588.912C260.359 588.134 257.297 587.136 254.301 585.712C251.677 584.465 246.207 580.517 243.735 580.17C241.416 579.843 234.402 584.558 232.019 585.689C230.088 586.597 228.096 587.371 226.057 588.002C219.638 589.93 212.903 590.578 206.234 589.909C201.394 589.468 196.636 588.368 192.094 586.638C188.205 585.115 183.097 579.993 178.894 580.41C175.437 580.752 171.478 584.512 168.415 586.1C164.585 588.086 160.809 589.133 156.541 589.689C146.495 590.996 135.936 588.422 127.892 582.181C119.929 576.035 114.812 566.912 113.72 556.913C111.675 538.958 122.768 522.11 140.069 516.893C143.79 515.749 152.483 515.649 155.047 513.293C157.646 510.903 158.6 501.169 160.17 497.221C162.2 492.121 164.998 487.362 168.468 483.11C178.157 471.106 192.008 464.041 207.254 462.402Z" fill="#7BDFE0"/>
<path d="M511.631 455.749C542.664 456.027 567.637 481.337 567.497 512.372C567.358 543.407 542.159 568.492 511.124 568.491C479.893 568.49 454.615 543.097 454.755 511.865C454.895 480.635 480.401 455.47 511.631 455.749Z" fill="black"/>
<path d="M508.339 467.419C533.014 465.846 554.302 484.552 555.914 509.224C557.528 533.896 538.856 555.215 514.186 556.868C489.46 558.524 468.082 539.801 466.465 515.072C464.849 490.343 483.607 468.995 508.339 467.419Z" fill="#FEBD20"/>
<path d="M409.761 606.72C416.626 606.193 423.101 607.395 428.775 611.468C434.795 615.788 437.425 621.805 438.59 628.923C444.639 628.849 450.008 630.079 454.477 634.384C458.749 638.499 460.981 644.329 461.015 650.217C461.049 656.011 459.016 661.724 454.852 665.83C448.333 672.261 440.279 671.801 431.778 671.738L418.158 671.675L399.546 671.738C394.663 671.754 389.307 672.128 384.512 671.113C381.662 670.5 378.968 669.315 376.592 667.628C371.415 663.994 368.081 658.416 367.079 652.196C366.018 645.616 367.228 638.709 371.172 633.252C375.648 627.06 381.258 624.758 388.606 623.581C389.751 621.063 390.879 618.611 392.511 616.366C396.767 610.508 402.769 607.812 409.761 606.72Z" fill="black"/>
<path d="M409.548 618.848C432.893 617.405 423.718 634.818 430.551 639.639C435.002 642.78 441.657 638.697 446.813 643.047C448.848 644.763 449.621 647.552 449.721 650.124C449.823 652.75 448.903 655.271 447.076 657.169C445.715 658.581 443.945 659.486 442.051 659.945C437.304 661.096 424.644 660.33 418.834 660.348L399.071 660.413C395.688 660.424 392.144 660.653 388.788 660.232C387.087 660.019 385.383 659.512 383.871 658.701C381.08 657.204 378.973 654.704 378.153 651.629C377.222 648.133 377.742 644.148 379.579 641.031C384.166 633.252 388.821 636.684 394.765 635.023C399.781 633.622 399.236 627.409 401.531 623.764C403.379 620.827 406.332 619.658 409.548 618.848Z" fill="#7BDFE0"/>
</svg>
