<svg width="849" height="1183" viewBox="0 0 849 1183" fill="none" xmlns="http://www.w3.org/2000/svg">
<rect x="5" y="5" width="839" height="1173" rx="45" fill="white"/>
<rect x="5" y="5" width="839" height="1173" rx="45" stroke="black" stroke-width="10"/>
<circle cx="786.5" cy="1124.5" r="11.5" fill="black"/>
<circle cx="786.5" cy="59.5" r="11.5" fill="black"/>
<path d="M77 1124.5C77 1130.85 71.8513 1136 65.5 1136C59.1487 1136 54 1130.85 54 1124.5C54 1118.15 59.1487 1113 65.5 1113C71.8513 1113 77 1118.15 77 1124.5Z" fill="black"/>
<path d="M77 59.5C77 65.8513 71.8513 71 65.5 71C59.1487 71 54 65.8513 54 59.5C54 53.1487 59.1487 48 65.5 48C71.8513 48 77 53.1487 77 59.5Z" fill="black"/>
<mask id="path-6-inside-1_97_41" fill="white">
<path d="M708 48C713.523 48 717.934 52.4996 718.616 57.9801C723.122 94.1833 751.817 122.878 788.02 127.384C793.5 128.066 798 132.477 798 138V1046C798 1051.52 793.5 1055.93 788.02 1056.62C751.817 1061.12 723.122 1089.82 718.616 1126.02C717.934 1131.5 713.523 1136 708 1136H141C135.477 1136 131.066 1131.5 130.384 1126.02C125.878 1089.82 97.1833 1061.12 60.9801 1056.62C55.4996 1055.93 51 1051.52 51 1046V138C51 132.477 55.4996 128.066 60.9801 127.384C97.1833 122.878 125.878 94.1833 130.384 57.9801C131.066 52.4996 135.477 48 141 48H708Z"/>
</mask>
<path d="M708 48C713.523 48 717.934 52.4996 718.616 57.9801C723.122 94.1833 751.817 122.878 788.02 127.384C793.5 128.066 798 132.477 798 138V1046C798 1051.52 793.5 1055.93 788.02 1056.62C751.817 1061.12 723.122 1089.82 718.616 1126.02C717.934 1131.5 713.523 1136 708 1136H141C135.477 1136 131.066 1131.5 130.384 1126.02C125.878 1089.82 97.1833 1061.12 60.9801 1056.62C55.4996 1055.93 51 1051.52 51 1046V138C51 132.477 55.4996 128.066 60.9801 127.384C97.1833 122.878 125.878 94.1833 130.384 57.9801C131.066 52.4996 135.477 48 141 48H708Z" fill="#77B866"/>
<path d="M130.384 1126.02L138.322 1125.03L130.384 1126.02ZM718.616 1126.02L710.678 1125.03L718.616 1126.02ZM788.02 1056.62L789.008 1064.56L788.02 1056.62ZM718.616 57.9801L726.555 56.9922L718.616 57.9801ZM718.616 57.9801L710.678 58.9681C715.635 98.8063 747.194 130.365 787.032 135.322L788.02 127.384L789.008 119.445C756.44 115.392 730.608 89.5603 726.555 56.9922L718.616 57.9801ZM798 138H790V1046H798H806V138H798ZM788.02 1056.62L787.032 1048.68C747.194 1053.64 715.635 1085.19 710.678 1125.03L718.616 1126.02L726.555 1127.01C730.608 1094.44 756.44 1068.61 789.008 1064.56L788.02 1056.62ZM708 1136V1128H141V1136V1144H708V1136ZM130.384 1126.02L138.322 1125.03C133.365 1085.19 101.806 1053.64 61.9681 1048.68L60.9801 1056.62L59.9922 1064.56C92.5603 1068.61 118.392 1094.44 122.445 1127.01L130.384 1126.02ZM51 1046H59V138H51H43V1046H51ZM60.9801 127.384L61.9681 135.322C101.806 130.365 133.365 98.8063 138.322 58.9681L130.384 57.9801L122.445 56.9922C118.392 89.5603 92.5603 115.392 59.9922 119.445L60.9801 127.384ZM141 48V56H708V48V40H141V48ZM130.384 57.9801L138.322 58.9681C138.438 58.0389 138.872 57.2306 139.427 56.6958C139.954 56.1887 140.494 56 141 56V48V40C130.84 40 123.547 48.1329 122.445 56.9922L130.384 57.9801ZM51 138H59C59 137.494 59.1887 136.954 59.6958 136.427C60.2306 135.872 61.0389 135.438 61.9681 135.322L60.9801 127.384L59.9922 119.445C51.1329 120.547 43 127.84 43 138H51ZM60.9801 1056.62L61.9681 1048.68C61.0389 1048.56 60.2306 1048.13 59.6958 1047.57C59.1887 1047.05 59 1046.51 59 1046H51H43C43 1056.16 51.1329 1063.45 59.9922 1064.56L60.9801 1056.62ZM141 1136V1128C140.494 1128 139.954 1127.81 139.427 1127.3C138.872 1126.77 138.438 1125.96 138.322 1125.03L130.384 1126.02L122.445 1127.01C123.547 1135.87 130.84 1144 141 1144V1136ZM718.616 1126.02L710.678 1125.03C710.562 1125.96 710.128 1126.77 709.573 1127.3C709.046 1127.81 708.506 1128 708 1128V1136V1144C718.16 1144 725.453 1135.87 726.555 1127.01L718.616 1126.02ZM798 1046H790C790 1046.51 789.811 1047.05 789.304 1047.57C788.769 1048.13 787.961 1048.56 787.032 1048.68L788.02 1056.62L789.008 1064.56C797.867 1063.45 806 1056.16 806 1046H798ZM788.02 127.384L787.032 135.322C787.961 135.438 788.769 135.872 789.304 136.427C789.811 136.954 790 137.494 790 138H798H806C806 127.84 797.867 120.547 789.008 119.445L788.02 127.384ZM718.616 57.9801L726.555 56.9922C725.453 48.1329 718.16 40 708 40V48V56C708.506 56 709.046 56.1887 709.573 56.6958C710.128 57.2306 710.562 58.0389 710.678 58.9681L718.616 57.9801Z" fill="black" mask="url(#path-6-inside-1_97_41)"/>
<path d="M690 102C695.523 102 699.911 106.512 700.837 111.957C705.019 136.563 724.437 155.981 749.043 160.163C754.488 161.089 759 165.477 759 171V1014C759 1019.52 754.488 1023.91 749.043 1024.84C724.711 1028.97 705.454 1048 700.984 1072.22C699.993 1077.59 695.633 1082 690.175 1082H158.825C153.367 1082 149.007 1077.59 148.016 1072.22C143.546 1048 124.288 1028.97 99.9568 1024.84C94.5121 1023.91 90 1019.52 90 1014V171C90 165.477 94.512 161.089 99.9568 160.163C124.563 155.981 143.981 136.563 148.163 111.957C149.089 106.512 153.477 102 159 102H690Z" fill="#A3CC98"/>
<path d="M211.06 408L197.46 384.37H190.065V408H180.375V348.925H200.775C205.308 348.925 209.133 349.718 212.25 351.305C215.423 352.892 217.775 355.017 219.305 357.68C220.892 360.343 221.685 363.318 221.685 366.605C221.685 370.458 220.552 373.972 218.285 377.145C216.075 380.262 212.647 382.387 208 383.52L222.62 408H211.06ZM190.065 376.635H200.775C204.402 376.635 207.122 375.728 208.935 373.915C210.805 372.102 211.74 369.665 211.74 366.605C211.74 363.545 210.833 361.165 209.02 359.465C207.207 357.708 204.458 356.83 200.775 356.83H190.065V376.635ZM277.006 383.435C277.006 385.192 276.893 386.778 276.666 388.195H240.881C241.164 391.935 242.553 394.938 245.046 397.205C247.539 399.472 250.599 400.605 254.226 400.605C259.439 400.605 263.123 398.423 265.276 394.06H275.731C274.314 398.367 271.736 401.908 267.996 404.685C264.313 407.405 259.723 408.765 254.226 408.765C249.749 408.765 245.726 407.773 242.156 405.79C238.643 403.75 235.866 400.917 233.826 397.29C231.843 393.607 230.851 389.357 230.851 384.54C230.851 379.723 231.814 375.502 233.741 371.875C235.724 368.192 238.473 365.358 241.986 363.375C245.556 361.392 249.636 360.4 254.226 360.4C258.646 360.4 262.584 361.363 266.041 363.29C269.498 365.217 272.189 367.937 274.116 371.45C276.043 374.907 277.006 378.902 277.006 383.435ZM266.891 380.375C266.834 376.805 265.559 373.943 263.066 371.79C260.573 369.637 257.484 368.56 253.801 368.56C250.458 368.56 247.596 369.637 245.216 371.79C242.836 373.887 241.419 376.748 240.966 380.375H266.891ZM296.232 345.1V408H286.542V345.1H296.232ZM305.724 384.37C305.724 379.667 306.687 375.502 308.614 371.875C310.597 368.248 313.261 365.443 316.604 363.46C320.004 361.42 323.744 360.4 327.824 360.4C331.507 360.4 334.709 361.137 337.429 362.61C340.206 364.027 342.416 365.812 344.059 367.965V361.165H353.834V408H344.059V401.03C342.416 403.24 340.177 405.082 337.344 406.555C334.511 408.028 331.281 408.765 327.654 408.765C323.631 408.765 319.947 407.745 316.604 405.705C313.261 403.608 310.597 400.718 308.614 397.035C306.687 393.295 305.724 389.073 305.724 384.37ZM344.059 384.54C344.059 381.31 343.379 378.505 342.019 376.125C340.716 373.745 338.987 371.932 336.834 370.685C334.681 369.438 332.357 368.815 329.864 368.815C327.371 368.815 325.047 369.438 322.894 370.685C320.741 371.875 318.984 373.66 317.624 376.04C316.321 378.363 315.669 381.14 315.669 384.37C315.669 387.6 316.321 390.433 317.624 392.87C318.984 395.307 320.741 397.177 322.894 398.48C325.104 399.727 327.427 400.35 329.864 400.35C332.357 400.35 334.681 399.727 336.834 398.48C338.987 397.233 340.716 395.42 342.019 393.04C343.379 390.603 344.059 387.77 344.059 384.54ZM340.149 348.585L321.364 357.85V350.71L340.149 340.34V348.585ZM423.257 360.4C426.94 360.4 430.227 361.165 433.117 362.695C436.063 364.225 438.358 366.492 440.002 369.495C441.702 372.498 442.552 376.125 442.552 380.375V408H432.947V381.82C432.947 377.627 431.898 374.425 429.802 372.215C427.705 369.948 424.843 368.815 421.217 368.815C417.59 368.815 414.7 369.948 412.547 372.215C410.45 374.425 409.402 377.627 409.402 381.82V408H399.797V381.82C399.797 377.627 398.748 374.425 396.652 372.215C394.555 369.948 391.693 368.815 388.067 368.815C384.44 368.815 381.55 369.948 379.397 372.215C377.3 374.425 376.252 377.627 376.252 381.82V408H366.562V361.165H376.252V366.52C377.838 364.593 379.85 363.092 382.287 362.015C384.723 360.938 387.33 360.4 390.107 360.4C393.847 360.4 397.19 361.193 400.137 362.78C403.083 364.367 405.35 366.662 406.937 369.665C408.353 366.832 410.563 364.593 413.567 362.95C416.57 361.25 419.8 360.4 423.257 360.4ZM464.572 368.05C466.215 365.897 468.454 364.083 471.287 362.61C474.12 361.137 477.322 360.4 480.892 360.4C484.972 360.4 488.684 361.42 492.027 363.46C495.427 365.443 498.09 368.248 500.017 371.875C501.944 375.502 502.907 379.667 502.907 384.37C502.907 389.073 501.944 393.295 500.017 397.035C498.09 400.718 495.427 403.608 492.027 405.705C488.684 407.745 484.972 408.765 480.892 408.765C477.322 408.765 474.149 408.057 471.372 406.64C468.595 405.167 466.329 403.353 464.572 401.2V430.27H454.882V361.165H464.572V368.05ZM493.047 384.37C493.047 381.14 492.367 378.363 491.007 376.04C489.704 373.66 487.947 371.875 485.737 370.685C483.584 369.438 481.26 368.815 478.767 368.815C476.33 368.815 474.007 369.438 471.797 370.685C469.644 371.932 467.887 373.745 466.527 376.125C465.224 378.505 464.572 381.31 464.572 384.54C464.572 387.77 465.224 390.603 466.527 393.04C467.887 395.42 469.644 397.233 471.797 398.48C474.007 399.727 476.33 400.35 478.767 400.35C481.26 400.35 483.584 399.727 485.737 398.48C487.947 397.177 489.704 395.307 491.007 392.87C492.367 390.433 493.047 387.6 493.047 384.37ZM509.259 384.37C509.259 379.667 510.223 375.502 512.149 371.875C514.133 368.248 516.796 365.443 520.139 363.46C523.539 361.42 527.279 360.4 531.359 360.4C535.043 360.4 538.244 361.137 540.964 362.61C543.741 364.027 545.951 365.812 547.594 367.965V361.165H557.369V408H547.594V401.03C545.951 403.24 543.713 405.082 540.879 406.555C538.046 408.028 534.816 408.765 531.189 408.765C527.166 408.765 523.483 407.745 520.139 405.705C516.796 403.608 514.133 400.718 512.149 397.035C510.223 393.295 509.259 389.073 509.259 384.37ZM547.594 384.54C547.594 381.31 546.914 378.505 545.554 376.125C544.251 373.745 542.523 371.932 540.369 370.685C538.216 369.438 535.893 368.815 533.399 368.815C530.906 368.815 528.583 369.438 526.429 370.685C524.276 371.875 522.519 373.66 521.159 376.04C519.856 378.363 519.204 381.14 519.204 384.37C519.204 387.6 519.856 390.433 521.159 392.87C522.519 395.307 524.276 397.177 526.429 398.48C528.639 399.727 530.963 400.35 533.399 400.35C535.893 400.35 538.216 399.727 540.369 398.48C542.523 397.233 544.251 395.42 545.554 393.04C546.914 390.603 547.594 387.77 547.594 384.54ZM588.967 360.4C592.593 360.4 595.795 361.137 598.572 362.61C601.405 364.027 603.615 365.812 605.202 367.965V361.165H614.977V408.765C614.977 413.072 614.07 416.897 612.257 420.24C610.443 423.64 607.808 426.303 604.352 428.23C600.952 430.157 596.872 431.12 592.112 431.12C585.765 431.12 580.495 429.618 576.302 426.615C572.108 423.668 569.728 419.645 569.162 414.545H578.767C579.503 416.982 581.062 418.937 583.442 420.41C585.878 421.94 588.768 422.705 592.112 422.705C596.022 422.705 599.167 421.515 601.547 419.135C603.983 416.755 605.202 413.298 605.202 408.765V400.945C603.558 403.155 601.32 405.025 598.487 406.555C595.71 408.028 592.537 408.765 588.967 408.765C584.887 408.765 581.147 407.745 577.747 405.705C574.403 403.608 571.74 400.718 569.757 397.035C567.83 393.295 566.867 389.073 566.867 384.37C566.867 379.667 567.83 375.502 569.757 371.875C571.74 368.248 574.403 365.443 577.747 363.46C581.147 361.42 584.887 360.4 588.967 360.4ZM605.202 384.54C605.202 381.31 604.522 378.505 603.162 376.125C601.858 373.745 600.13 371.932 597.977 370.685C595.823 369.438 593.5 368.815 591.007 368.815C588.513 368.815 586.19 369.438 584.037 370.685C581.883 371.875 580.127 373.66 578.767 376.04C577.463 378.363 576.812 381.14 576.812 384.37C576.812 387.6 577.463 390.433 578.767 392.87C580.127 395.307 581.883 397.177 584.037 398.48C586.247 399.727 588.57 400.35 591.007 400.35C593.5 400.35 595.823 399.727 597.977 398.48C600.13 397.233 601.858 395.42 603.162 393.04C604.522 390.603 605.202 387.77 605.202 384.54ZM648.019 408.765C643.599 408.765 639.604 407.773 636.034 405.79C632.464 403.75 629.659 400.917 627.619 397.29C625.579 393.607 624.559 389.357 624.559 384.54C624.559 379.78 625.607 375.558 627.704 371.875C629.801 368.192 632.662 365.358 636.289 363.375C639.916 361.392 643.967 360.4 648.444 360.4C652.921 360.4 656.972 361.392 660.599 363.375C664.226 365.358 667.087 368.192 669.184 371.875C671.281 375.558 672.329 379.78 672.329 384.54C672.329 389.3 671.252 393.522 669.099 397.205C666.946 400.888 663.999 403.75 660.259 405.79C656.576 407.773 652.496 408.765 648.019 408.765ZM648.019 400.35C650.512 400.35 652.836 399.755 654.989 398.565C657.199 397.375 658.984 395.59 660.344 393.21C661.704 390.83 662.384 387.94 662.384 384.54C662.384 381.14 661.732 378.278 660.429 375.955C659.126 373.575 657.397 371.79 655.244 370.6C653.091 369.41 650.767 368.815 648.274 368.815C645.781 368.815 643.457 369.41 641.304 370.6C639.207 371.79 637.536 373.575 636.289 375.955C635.042 378.278 634.419 381.14 634.419 384.54C634.419 389.583 635.694 393.493 638.244 396.27C640.851 398.99 644.109 400.35 648.019 400.35Z" fill="black"/>
<mask id="path-10-outside-2_97_41" maskUnits="userSpaceOnUse" x="400" y="1007" width="49" height="31" fill="black">
<rect fill="white" x="400" y="1007" width="49" height="31"/>
<path d="M400.84 1030.92V1027.48L414.28 1008.2H419.8V1026.96H423.52V1030.92H419.8V1037H415.32V1030.92H400.84ZM415.52 1012.84L406.08 1026.96H415.52V1012.84ZM427.298 1022.04C427.298 1017.43 428.072 1013.83 429.618 1011.24C431.192 1008.63 433.885 1007.32 437.698 1007.32C441.512 1007.32 444.192 1008.63 445.738 1011.24C447.312 1013.83 448.098 1017.43 448.098 1022.04C448.098 1026.71 447.312 1030.36 445.738 1033C444.192 1035.61 441.512 1036.92 437.698 1036.92C433.885 1036.92 431.192 1035.61 429.618 1033C428.072 1030.36 427.298 1026.71 427.298 1022.04ZM443.618 1022.04C443.618 1019.88 443.472 1018.05 443.178 1016.56C442.912 1015.07 442.352 1013.85 441.498 1012.92C440.645 1011.96 439.378 1011.48 437.698 1011.48C436.018 1011.48 434.752 1011.96 433.898 1012.92C433.045 1013.85 432.472 1015.07 432.178 1016.56C431.912 1018.05 431.778 1019.88 431.778 1022.04C431.778 1024.28 431.912 1026.16 432.178 1027.68C432.445 1029.2 433.005 1030.43 433.858 1031.36C434.738 1032.29 436.018 1032.76 437.698 1032.76C439.378 1032.76 440.645 1032.29 441.498 1031.36C442.378 1030.43 442.952 1029.2 443.218 1027.68C443.485 1026.16 443.618 1024.28 443.618 1022.04Z"/>
</mask>
<path d="M400.84 1030.92V1027.48L414.28 1008.2H419.8V1026.96H423.52V1030.92H419.8V1037H415.32V1030.92H400.84ZM415.52 1012.84L406.08 1026.96H415.52V1012.84ZM427.298 1022.04C427.298 1017.43 428.072 1013.83 429.618 1011.24C431.192 1008.63 433.885 1007.32 437.698 1007.32C441.512 1007.32 444.192 1008.63 445.738 1011.24C447.312 1013.83 448.098 1017.43 448.098 1022.04C448.098 1026.71 447.312 1030.36 445.738 1033C444.192 1035.61 441.512 1036.92 437.698 1036.92C433.885 1036.92 431.192 1035.61 429.618 1033C428.072 1030.36 427.298 1026.71 427.298 1022.04ZM443.618 1022.04C443.618 1019.88 443.472 1018.05 443.178 1016.56C442.912 1015.07 442.352 1013.85 441.498 1012.92C440.645 1011.96 439.378 1011.48 437.698 1011.48C436.018 1011.48 434.752 1011.96 433.898 1012.92C433.045 1013.85 432.472 1015.07 432.178 1016.56C431.912 1018.05 431.778 1019.88 431.778 1022.04C431.778 1024.28 431.912 1026.16 432.178 1027.68C432.445 1029.2 433.005 1030.43 433.858 1031.36C434.738 1032.29 436.018 1032.76 437.698 1032.76C439.378 1032.76 440.645 1032.29 441.498 1031.36C442.378 1030.43 442.952 1029.2 443.218 1027.68C443.485 1026.16 443.618 1024.28 443.618 1022.04Z" fill="black"/>
<path d="M400.84 1030.92H400.54V1031.22H400.84V1030.92ZM400.84 1027.48L400.594 1027.31L400.54 1027.39V1027.48H400.84ZM414.28 1008.2V1007.9H414.123L414.034 1008.03L414.28 1008.2ZM419.8 1008.2H420.1V1007.9H419.8V1008.2ZM419.8 1026.96H419.5V1027.26H419.8V1026.96ZM423.52 1026.96H423.82V1026.66H423.52V1026.96ZM423.52 1030.92V1031.22H423.82V1030.92H423.52ZM419.8 1030.92V1030.62H419.5V1030.92H419.8ZM419.8 1037V1037.3H420.1V1037H419.8ZM415.32 1037H415.02V1037.3H415.32V1037ZM415.32 1030.92H415.62V1030.62H415.32V1030.92ZM415.52 1012.84H415.82V1011.85L415.271 1012.67L415.52 1012.84ZM406.08 1026.96L405.831 1026.79L405.519 1027.26H406.08V1026.96ZM415.52 1026.96V1027.26H415.82V1026.96H415.52ZM400.84 1030.92H401.14V1027.48H400.84H400.54V1030.92H400.84ZM400.84 1027.48L401.086 1027.65L414.526 1008.37L414.28 1008.2L414.034 1008.03L400.594 1027.31L400.84 1027.48ZM414.28 1008.2V1008.5H419.8V1008.2V1007.9H414.28V1008.2ZM419.8 1008.2H419.5V1026.96H419.8H420.1V1008.2H419.8ZM419.8 1026.96V1027.26H423.52V1026.96V1026.66H419.8V1026.96ZM423.52 1026.96H423.22V1030.92H423.52H423.82V1026.96H423.52ZM423.52 1030.92V1030.62H419.8V1030.92V1031.22H423.52V1030.92ZM419.8 1030.92H419.5V1037H419.8H420.1V1030.92H419.8ZM419.8 1037V1036.7H415.32V1037V1037.3H419.8V1037ZM415.32 1037H415.62V1030.92H415.32H415.02V1037H415.32ZM415.32 1030.92V1030.62H400.84V1030.92V1031.22H415.32V1030.92ZM415.52 1012.84L415.271 1012.67L405.831 1026.79L406.08 1026.96L406.329 1027.13L415.769 1013.01L415.52 1012.84ZM406.08 1026.96V1027.26H415.52V1026.96V1026.66H406.08V1026.96ZM415.52 1026.96H415.82V1012.84H415.52H415.22V1026.96H415.52ZM429.618 1011.24L429.361 1011.09L429.361 1011.09L429.618 1011.24ZM445.738 1011.24L445.48 1011.39L445.482 1011.4L445.738 1011.24ZM445.738 1033L445.481 1032.85L445.48 1032.85L445.738 1033ZM429.618 1033L429.36 1033.15L429.361 1033.15L429.618 1033ZM443.178 1016.56L442.883 1016.61L442.884 1016.62L443.178 1016.56ZM441.498 1012.92L441.274 1013.12L441.277 1013.12L441.498 1012.92ZM433.898 1012.92L434.12 1013.12L434.123 1013.12L433.898 1012.92ZM432.178 1016.56L431.884 1016.5L431.883 1016.51L432.178 1016.56ZM432.178 1027.68L432.474 1027.63L432.178 1027.68ZM433.858 1031.36L433.637 1031.56L433.64 1031.57L433.858 1031.36ZM441.498 1031.36L441.28 1031.15L441.277 1031.16L441.498 1031.36ZM443.218 1027.68L443.514 1027.73L443.218 1027.68ZM427.298 1022.04H427.598C427.598 1017.45 428.368 1013.92 429.876 1011.39L429.618 1011.24L429.361 1011.09C427.775 1013.74 426.998 1017.4 426.998 1022.04H427.298ZM429.618 1011.24L429.875 1011.39C431.38 1008.89 433.96 1007.62 437.698 1007.62V1007.32V1007.02C433.81 1007.02 431.003 1008.36 429.361 1011.09L429.618 1011.24ZM437.698 1007.32V1007.62C441.437 1007.62 444.002 1008.89 445.48 1011.39L445.738 1011.24L445.997 1011.09C444.382 1008.36 441.586 1007.02 437.698 1007.02V1007.32ZM445.738 1011.24L445.482 1011.4C447.016 1013.92 447.798 1017.46 447.798 1022.04H448.098H448.398C448.398 1017.4 447.608 1013.74 445.995 1011.08L445.738 1011.24ZM448.098 1022.04H447.798C447.798 1026.68 447.016 1030.27 445.481 1032.85L445.738 1033L445.996 1033.15C447.608 1030.45 448.398 1026.73 448.398 1022.04H448.098ZM445.738 1033L445.48 1032.85C444.002 1035.35 441.437 1036.62 437.698 1036.62V1036.92V1037.22C441.586 1037.22 444.382 1035.88 445.997 1033.15L445.738 1033ZM437.698 1036.92V1036.62C433.96 1036.62 431.38 1035.35 429.875 1032.85L429.618 1033L429.361 1033.15C431.003 1035.88 433.81 1037.22 437.698 1037.22V1036.92ZM429.618 1033L429.877 1032.85C428.368 1030.27 427.598 1026.68 427.598 1022.04H427.298H426.998C426.998 1026.73 427.775 1030.45 429.36 1033.15L429.618 1033ZM443.618 1022.04H443.918C443.918 1019.87 443.771 1018.02 443.473 1016.5L443.178 1016.56L442.884 1016.62C443.172 1018.09 443.318 1019.89 443.318 1022.04H443.618ZM443.178 1016.56L443.474 1016.51C443.199 1014.97 442.619 1013.7 441.72 1012.72L441.498 1012.92L441.277 1013.12C442.085 1014.01 442.624 1015.16 442.883 1016.61L443.178 1016.56ZM441.498 1012.92L441.723 1012.72C440.796 1011.68 439.436 1011.18 437.698 1011.18V1011.48V1011.78C439.321 1011.78 440.494 1012.24 441.274 1013.12L441.498 1012.92ZM437.698 1011.48V1011.18C435.961 1011.18 434.601 1011.68 433.674 1012.72L433.898 1012.92L434.123 1013.12C434.903 1012.24 436.076 1011.78 437.698 1011.78V1011.48ZM433.898 1012.92L433.677 1012.72C432.78 1013.7 432.186 1014.97 431.884 1016.5L432.178 1016.56L432.473 1016.62C432.758 1015.17 433.311 1014.01 434.12 1013.12L433.898 1012.92ZM432.178 1016.56L431.883 1016.51C431.612 1018.02 431.478 1019.87 431.478 1022.04H431.778H432.078C432.078 1019.89 432.211 1018.08 432.474 1016.61L432.178 1016.56ZM431.778 1022.04H431.478C431.478 1024.29 431.612 1026.19 431.883 1027.73L432.178 1027.68L432.474 1027.63C432.211 1026.13 432.078 1024.27 432.078 1022.04H431.778ZM432.178 1027.68L431.883 1027.73C432.157 1029.3 432.737 1030.58 433.637 1031.56L433.858 1031.36L434.08 1031.16C433.273 1030.27 432.733 1029.1 432.474 1027.63L432.178 1027.68ZM433.858 1031.36L433.64 1031.57C434.593 1032.58 435.963 1033.06 437.698 1033.06V1032.76V1032.46C436.074 1032.46 434.884 1032.01 434.077 1031.15L433.858 1031.36ZM437.698 1032.76V1033.06C439.434 1033.06 440.793 1032.58 441.72 1031.56L441.498 1031.36L441.277 1031.16C440.498 1032.01 439.323 1032.46 437.698 1032.46V1032.76ZM441.498 1031.36L441.717 1031.57C442.644 1030.58 443.239 1029.3 443.514 1027.73L443.218 1027.68L442.923 1027.63C442.664 1029.1 442.112 1030.27 441.28 1031.15L441.498 1031.36ZM443.218 1027.68L443.514 1027.73C443.785 1026.19 443.918 1024.29 443.918 1022.04H443.618H443.318C443.318 1024.27 443.186 1026.13 442.923 1027.63L443.218 1027.68Z" fill="black" mask="url(#path-10-outside-2_97_41)"/>
<path d="M191.46 256.25H214.455V272H170.88V197.975H191.46V256.25ZM232.852 207.635C229.212 207.635 226.272 206.655 224.032 204.695C221.862 202.665 220.777 200.145 220.777 197.135C220.777 194.055 221.862 191.5 224.032 189.47C226.272 187.44 229.212 186.425 232.852 186.425C236.422 186.425 239.292 187.44 241.462 189.47C243.702 191.5 244.822 194.055 244.822 197.135C244.822 200.145 243.702 202.665 241.462 204.695C239.292 206.655 236.422 207.635 232.852 207.635ZM243.037 213.095V272H222.457V213.095H243.037ZM276.492 212.36C280.482 212.36 283.947 213.165 286.887 214.775C289.897 216.385 292.207 218.555 293.817 221.285V213.095H314.397V271.37C314.397 276.9 313.347 281.87 311.247 286.28C309.147 290.76 305.857 294.33 301.377 296.99C296.967 299.65 291.367 300.98 284.577 300.98C275.477 300.98 268.197 298.845 262.737 294.575C257.277 290.305 254.162 284.495 253.392 277.145H273.657C274.077 279.035 275.127 280.505 276.807 281.555C278.487 282.605 280.657 283.13 283.317 283.13C290.317 283.13 293.817 279.21 293.817 271.37V263.81C292.207 266.54 289.897 268.71 286.887 270.32C283.947 271.93 280.482 272.735 276.492 272.735C271.802 272.735 267.532 271.51 263.682 269.06C259.902 266.61 256.892 263.11 254.652 258.56C252.482 253.94 251.397 248.585 251.397 242.495C251.397 236.405 252.482 231.085 254.652 226.535C256.892 221.985 259.902 218.485 263.682 216.035C267.532 213.585 271.802 212.36 276.492 212.36ZM293.817 242.495C293.817 238.715 292.767 235.74 290.667 233.57C288.637 231.4 286.117 230.315 283.107 230.315C280.027 230.315 277.472 231.4 275.442 233.57C273.412 235.67 272.397 238.645 272.397 242.495C272.397 246.275 273.412 249.285 275.442 251.525C277.472 253.695 280.027 254.78 283.107 254.78C286.117 254.78 288.637 253.695 290.667 251.525C292.767 249.355 293.817 246.345 293.817 242.495ZM364.869 212.57C371.589 212.57 376.909 214.845 380.829 219.395C384.819 223.875 386.814 229.965 386.814 237.665V272H366.234V240.395C366.234 237.035 365.359 234.41 363.609 232.52C361.859 230.56 359.514 229.58 356.574 229.58C353.494 229.58 351.079 230.56 349.329 232.52C347.579 234.41 346.704 237.035 346.704 240.395V272H326.124V194.3H346.704V221.495C348.524 218.835 350.974 216.7 354.054 215.09C357.204 213.41 360.809 212.57 364.869 212.57ZM432.862 254.465V272H423.937C408.887 272 401.362 264.545 401.362 249.635V230.21H394.117V213.095H401.362V198.815H422.047V213.095H432.757V230.21H422.047V249.95C422.047 251.56 422.397 252.715 423.097 253.415C423.867 254.115 425.127 254.465 426.877 254.465H432.862ZM480.836 212.57C487.626 212.57 493.016 214.845 497.006 219.395C500.996 223.875 502.991 229.965 502.991 237.665V272H482.411V240.395C482.411 237.035 481.536 234.41 479.786 232.52C478.036 230.56 475.691 229.58 472.751 229.58C469.671 229.58 467.256 230.56 465.506 232.52C463.756 234.41 462.881 237.035 462.881 240.395V272H442.301V213.095H462.881V221.495C464.701 218.835 467.151 216.7 470.231 215.09C473.311 213.41 476.846 212.57 480.836 212.57ZM524.678 207.635C521.038 207.635 518.098 206.655 515.858 204.695C513.688 202.665 512.603 200.145 512.603 197.135C512.603 194.055 513.688 191.5 515.858 189.47C518.098 187.44 521.038 186.425 524.678 186.425C528.248 186.425 531.118 187.44 533.288 189.47C535.528 191.5 536.648 194.055 536.648 197.135C536.648 200.145 535.528 202.665 533.288 204.695C531.118 206.655 528.248 207.635 524.678 207.635ZM534.863 213.095V272H514.283V213.095H534.863ZM585.118 212.57C591.908 212.57 597.298 214.845 601.288 219.395C605.278 223.875 607.273 229.965 607.273 237.665V272H586.693V240.395C586.693 237.035 585.818 234.41 584.068 232.52C582.318 230.56 579.973 229.58 577.033 229.58C573.953 229.58 571.538 230.56 569.788 232.52C568.038 234.41 567.163 237.035 567.163 240.395V272H546.583V213.095H567.163V221.495C568.983 218.835 571.433 216.7 574.513 215.09C577.593 213.41 581.128 212.57 585.118 212.57ZM640.301 212.36C644.291 212.36 647.756 213.165 650.696 214.775C653.706 216.385 656.016 218.555 657.626 221.285V213.095H678.206V271.37C678.206 276.9 677.156 281.87 675.056 286.28C672.956 290.76 669.666 294.33 665.186 296.99C660.776 299.65 655.176 300.98 648.386 300.98C639.286 300.98 632.006 298.845 626.546 294.575C621.086 290.305 617.971 284.495 617.201 277.145H637.466C637.886 279.035 638.936 280.505 640.616 281.555C642.296 282.605 644.466 283.13 647.126 283.13C654.126 283.13 657.626 279.21 657.626 271.37V263.81C656.016 266.54 653.706 268.71 650.696 270.32C647.756 271.93 644.291 272.735 640.301 272.735C635.611 272.735 631.341 271.51 627.491 269.06C623.711 266.61 620.701 263.11 618.461 258.56C616.291 253.94 615.206 248.585 615.206 242.495C615.206 236.405 616.291 231.085 618.461 226.535C620.701 221.985 623.711 218.485 627.491 216.035C631.341 213.585 635.611 212.36 640.301 212.36ZM657.626 242.495C657.626 238.715 656.576 235.74 654.476 233.57C652.446 231.4 649.926 230.315 646.916 230.315C643.836 230.315 641.281 231.4 639.251 233.57C637.221 235.67 636.206 238.645 636.206 242.495C636.206 246.275 637.221 249.285 639.251 251.525C641.281 253.695 643.836 254.78 646.916 254.78C649.926 254.78 652.446 253.695 654.476 251.525C656.576 249.355 657.626 246.345 657.626 242.495Z" fill="black"/>
<path d="M244.03 466.32C251.829 465.705 260.022 466.165 267.862 466.167L313.771 466.166L457.028 466.169L560.426 466.168L590.611 466.154C598.071 466.152 605.58 465.873 612.988 466.909C628.925 469.009 643.936 475.598 656.27 485.907C673.123 500.163 683.66 520.5 685.587 542.489C686.286 551.079 685.887 559.897 685.883 568.522L685.871 613.423L685.875 756.238L685.881 860.699L685.882 890.497C685.883 898.092 686.181 905.783 685.082 913.318C682.909 928.732 676.36 943.2 666.214 955.005C650.979 972.836 630.033 983.362 606.654 985.219C577.355 985.593 548.013 985.28 518.71 985.28H353.255L276.072 985.279L254.096 985.289C248.007 985.295 241.92 985.479 235.876 984.599C220.694 982.258 206.435 975.831 194.626 966.008C177.822 951.952 166.385 931.443 164.454 909.506C163.704 900.985 164.109 892.187 164.11 883.629L164.125 839.654L164.127 699.305L164.121 592.036L164.117 561.734C164.117 553.597 163.814 545.424 165.014 537.35C167.351 522.067 173.865 507.727 183.838 495.913C199.278 477.684 220.575 468.236 244.03 466.32Z" fill="black"/>
<path d="M181.921 549.098C181.593 534.722 187.889 519.529 196.679 508.399C207.55 494.634 224.138 486.347 241.411 484.395C248.874 483.552 256.711 483.975 264.221 483.975L302.434 483.979L429.033 483.981L551.928 483.975L587.772 483.976C595.085 483.977 602.696 483.589 609.96 484.455C622.183 485.913 633.778 490.435 643.394 498.195C657.771 509.796 665.832 526.262 667.832 544.447C668.737 556.532 668.154 568.984 668.157 581.115L668.177 647.167L668.339 712.04L668.337 731.466C668.336 734.776 668.503 738.191 668.274 741.491C668.423 747.737 668.631 754.221 668.272 760.451L668.277 793.009C652.873 793.006 639.176 798.094 628.155 809.093C617.876 819.36 612.163 833.333 612.305 847.861C612.306 848.069 612.31 848.278 612.315 848.486C603.236 848.745 594.394 852.265 588.079 858.931C584.131 863.1 582.192 867.808 580.592 873.232C572.061 874.835 564.172 877.824 557.428 883.383C549.334 891.003 543.779 900.349 543.464 911.685C543.426 913.046 543.613 914.415 543.569 915.764C543.8 917.873 544.29 919.969 544.705 922.05C537.696 922.546 530.704 924.246 524.91 928.397C516.236 934.61 512.842 943.606 511.125 953.745C502.76 955.717 497.354 960.65 492.498 967.433L417.931 967.44C415.18 958.463 411.218 951.025 403.333 945.555C396.394 940.741 387.566 938.466 379.208 940.01C377.816 933.75 374.162 927.676 369.895 922.958C360.925 913.04 349.822 909.866 336.881 909.262C335.814 902.765 333.692 897.021 329.42 891.914C323.485 884.829 314.978 880.392 305.771 879.579C305.784 874.942 305.621 870.456 304.511 865.934C301.948 855.491 296.061 846.155 286.738 840.529C279.06 835.897 270.689 834.434 261.998 836.608C261.256 830.499 258.647 824.421 254.94 819.523C249.206 811.946 240.832 808.431 231.623 807.167C232.009 802.8 231.839 798.527 231.546 794.166C230.733 780.614 227.294 770.061 217.493 760.216C207.897 750.577 195.294 745.813 181.798 745.797C181.159 742.206 181.715 732.331 181.722 728.149L181.845 682.088L181.837 589.809C181.868 581.553 181.837 573.296 181.742 565.04C181.692 559.833 181.305 554.271 181.921 549.098Z" fill="black"/>
<path d="M181.921 549.098C181.593 534.722 187.889 519.529 196.679 508.399C207.55 494.634 224.138 486.347 241.411 484.395C248.874 483.552 256.711 483.975 264.221 483.975L302.434 483.979L429.033 483.981L551.928 483.975L587.772 483.976C595.085 483.977 602.696 483.589 609.96 484.455C622.183 485.913 633.778 490.435 643.394 498.195C657.771 509.796 665.832 526.262 667.832 544.447C668.737 556.532 668.154 568.984 668.157 581.115L668.177 647.167L668.339 712.04L668.337 731.466C668.336 734.776 668.503 738.192 668.274 741.491C667.825 738.839 668.051 735.817 668.054 733.116L668.075 718.659L668.037 666.848C665.858 669.01 663.461 670.706 660.64 671.938C653.541 675.039 647.129 674.423 640.097 671.623C639.121 677.025 637.778 681.947 634.769 686.621C630.931 692.579 625.175 696.861 618.204 698.34C611.852 699.688 606.709 698.209 601.363 694.745C600.969 695.414 600.534 696.063 600.1 696.706C596.504 702.027 590.732 706.289 584.352 707.462C577.269 708.765 571.68 706.242 565.948 702.297C563.819 706.267 561.103 709.599 557.332 712.125C550.328 716.818 545.724 715.69 537.925 714.168C535.045 709.246 533.27 703.316 529.774 698.823C523.053 690.186 509.239 693.942 499.765 692.781C496.739 692.409 492.55 691.525 490.185 689.468C484.814 684.798 486.809 671.911 479.717 665.329C475.344 661.27 467.699 661.968 462.316 657.876C459.755 655.928 457.815 653.389 455.856 650.869C458.296 645.589 460.823 640.421 464.121 635.609C467.654 635.225 471.227 635.172 474.766 634.798C484.942 633.72 495.427 630.947 503.925 625.121C510.678 627.627 517.059 628.485 524.236 627.737C540.223 626.069 552.064 616.049 561.846 604.048C564.652 600.478 566.904 596.605 569.037 592.613C569.429 591.559 569.626 590.611 569.162 589.534C568.91 588.947 568.332 588.627 567.737 588.476C566.544 588.175 564.908 588.718 563.824 589.188C560.885 590.462 558.204 592.255 555.381 593.746C547.478 597.919 537.987 602.284 528.971 602.671C520.709 603.026 513.753 599.422 507.392 594.427C505.999 593.333 504.267 591.432 502.511 591.08C501.157 590.808 499.654 591.828 498.635 592.59C496.044 594.527 493.637 596.636 490.898 598.38C480.215 605.183 468.15 606.764 455.757 605.028C441.977 603.098 429.141 597.975 420.623 586.489C419.117 584.446 417.803 582.268 416.696 579.983C415.221 576.899 412.678 567.236 408.915 566.834C405.005 566.416 400.883 568.74 397.03 569.313C379.852 571.865 368.376 562.719 357.629 550.648C355.793 548.587 353.957 546.501 352.255 544.328C350.625 542.245 349.056 539.745 347.079 537.987C346.416 537.398 345.791 537.032 344.893 536.954C344.245 536.899 343.455 537.147 343.007 537.621C341.907 538.787 342.085 540.795 342.294 542.241C342.851 546.1 344.405 550.137 345.769 553.795C350.559 566.643 357.054 579.915 368.422 588.184C370.532 589.719 372.823 591.218 375.171 592.362C368.101 601.55 362.292 608.3 350.588 611.022C347.921 611.642 344.554 611.977 342.268 613.6C340.143 615.109 338.731 617.262 337.245 619.348C333.3 624.887 329.064 629.208 321.996 630.166C317.333 630.797 307.721 628.966 304.825 630.188C301.936 631.407 297.103 639.058 293.815 641.673C291.128 643.771 288.266 645.636 285.26 647.245C281.829 649.114 268.195 655.084 266.59 657.012C266.141 657.551 265.876 658.125 265.922 658.843C265.976 659.678 266.534 660.678 267.256 661.135C269.321 662.44 293.712 661.697 297.691 661.325C299.678 661.139 301.621 660.81 303.508 660.142C308.485 658.378 309.742 655.022 313.776 652.627C313.868 652.573 313.957 652.514 314.048 652.458C318.391 652.368 322.744 652.27 327.073 651.871C326.584 657.091 325.742 663.719 323.165 668.316C321.778 670.789 319.749 673.138 319.001 675.907C317.333 682.083 319.542 705.183 323.37 709.856C323.941 710.553 324.723 711.065 325.653 711.085C326.557 711.104 327.239 710.592 327.8 709.941C330.234 707.116 331.71 697.779 333.01 693.781C334.045 690.632 335.298 687.559 336.761 684.585C337.791 682.484 338.931 680.338 340.342 678.464C342.134 676.083 345.051 674.048 346.099 671.21C347.579 667.203 347.013 662.754 347.882 658.624C349.663 650.168 354.482 642.566 358.593 635.064C363.244 633.797 367.976 633.228 372.52 631.512C381.808 628.005 386.356 620.625 391.785 612.887C394.054 609.654 396.477 606.515 398.681 603.242C407.058 616.638 414.839 621.592 429.002 627.698C425.271 633.027 419.341 646.272 417.019 652.631C416.112 655.116 413.254 666.687 412.431 667.745C411.655 668.743 409.836 669.216 408.671 669.572C394.223 673.991 390.819 676.256 385.745 690.843C380.544 690.844 376.183 691.173 372.29 695.098C369.578 697.833 368.447 701.396 366.226 704.413C359.589 706.106 352.596 705.626 346.023 707.219C337.118 709.378 331.631 723.56 324.525 729.879C318.495 729.83 312.478 729.158 306.443 729.024C304.841 728.056 303.055 727.525 301.473 726.526C293.199 730.046 286.735 730.686 278.26 727.247C276.363 726.484 274.506 725.626 272.696 724.676C265.674 730.871 257.13 735.706 247.449 735.048C240.361 734.567 233.992 731.094 229.39 725.738C225.858 721.63 223.932 716.894 222.699 711.675C213.931 715.653 205.455 717.388 196.158 713.87C190.991 711.914 185.09 707.85 181.975 703.234L181.989 732.523C181.989 736.628 182.511 741.866 181.798 745.797C181.159 742.207 181.715 732.331 181.722 728.149L181.845 682.088L181.837 589.809C181.868 581.553 181.837 573.296 181.742 565.04C181.692 559.833 181.305 554.271 181.921 549.098Z" fill="#003F54"/>
<path d="M181.921 549.098C181.593 534.722 187.888 519.529 196.678 508.399C207.549 494.634 224.138 486.347 241.41 484.395C248.874 483.552 256.711 483.975 264.221 483.975L302.434 483.979L429.033 483.981L551.927 483.975L587.772 483.976C595.085 483.977 602.696 483.589 609.96 484.455C622.183 485.913 633.777 490.435 643.394 498.195C657.771 509.796 665.831 526.262 667.832 544.447C665.157 546.291 662.589 548.314 659.796 549.979C651.833 554.726 642.513 556.806 633.342 555.143C624.222 553.489 616.302 548.034 611.12 540.409C606.985 534.322 605.297 527.95 604.195 520.776C594.508 524.075 583.841 525.141 574.354 520.431C572.82 519.669 571.344 518.797 570.032 517.689C562.192 524.897 552.422 529.777 541.556 529.337C532.576 528.973 524.706 524.896 518.72 518.292C515.427 514.659 513.017 510.286 511.049 505.819C505.095 512.31 497.251 516.732 488.331 517.139C481.644 517.445 475.779 515.535 470.122 512.081C469.181 523.499 464.671 533.846 455.876 541.361C447.197 548.633 436.015 552.217 424.725 551.344C414.34 550.601 404.714 545.635 398.088 537.605C395.528 534.551 393.18 530.999 391.739 527.269C380.076 526.993 369.463 521.628 361.509 513.222C359.197 510.779 357.159 508.124 355.18 505.411C349.996 516.407 343.588 523.512 331.898 527.731C320.783 531.655 308.565 531.007 297.927 525.928C293.897 523.993 290.426 521.372 287.166 518.332C282.878 530.622 275.807 539.961 263.919 545.763C253.636 550.782 241.448 551.791 230.598 548.018C226.468 546.581 222.736 544.454 219.066 542.106C214.116 552.641 206.537 561.002 195.41 565.072C190.976 566.694 186.693 567.02 182.008 566.913C182.016 561.097 182.482 554.865 181.921 549.098Z" fill="#005E77"/>
<path d="M569.037 592.613C577.218 595.435 586.634 594.418 594.374 590.664C596.555 589.606 598.502 588.289 600.453 586.858C603.024 589.549 605.354 592.52 608.043 595.087C614.597 601.386 623.278 604.994 632.365 605.197C638.703 605.317 644.382 604.158 650.384 602.254C647.578 607.588 641.624 611.373 635.986 613.104C627.229 615.793 617.693 614.311 609.696 610.026C605.565 607.813 602.223 604.983 599.147 601.469C589.55 606.518 576.173 608.567 565.661 605.388C564.373 604.998 563.106 604.518 561.846 604.049C564.652 600.479 566.904 596.606 569.037 592.613Z" fill="#005E77"/>
<path d="M483.433 648.286C488.257 651.521 492.486 654.014 498.454 654.339C505.067 654.699 509.153 652.624 514.021 648.312C514.855 649.743 515.65 651.236 516.616 652.582C520.721 658.302 528.02 661.993 534.867 663.016C542.999 664.231 550.635 662.699 557.288 657.813C560.838 661.046 564.473 663.873 568.828 665.956C579.406 671.016 591.05 670.291 601.867 666.485C600.771 668.427 599.445 669.83 597.84 671.34C596.718 672.203 595.508 672.937 594.283 673.645C587.526 677.557 579.391 679.563 571.71 677.453C565.857 675.846 559.611 671.985 556.57 666.629C554.817 668.103 553.022 669.452 551.009 670.551C544.153 674.293 535.881 675.575 528.337 673.349C520.545 671.05 515.202 666.645 511.373 659.537C507.588 661.986 503.586 662.954 499.102 662.471C493.872 661.907 489.376 659.408 486.113 655.28C484.656 653.437 483.132 650.707 483.433 648.286Z" fill="#005E77"/>
<path d="M286.913 577.28C287.104 577.455 287.296 577.629 287.489 577.802C294.197 583.775 303.322 586.552 312.216 586.11C315.73 585.936 319.178 585.278 322.681 585.086L323.009 585.395C322.934 585.814 322.824 586.142 322.583 586.498C319.565 590.965 313.668 593.895 308.495 594.878C300.866 596.327 294.31 593.961 288.069 589.693C285.44 596.629 280.047 602.104 273.785 605.904C267.819 609.062 261.41 610.353 254.725 609.085C246.847 607.59 240.497 603.048 236.057 596.445C246.736 599.234 258.361 599.939 268.727 595.65C277.582 591.986 283.297 586.064 286.913 577.28Z" fill="#005E77"/>
<path d="M499.914 558.427C503.132 560.863 505.149 563.489 508.934 565.456C516.123 569.191 524.211 569.434 531.9 567.225C534.251 566.549 536.51 565.588 538.839 564.842L539.212 565.046C539.276 565.346 539.347 565.589 539.32 565.909C539.132 568.12 535.69 570.957 534.041 572.27C528.794 576.369 522.149 578.248 515.532 577.505C509.612 576.793 504.25 574.243 500.543 569.529C500.5 569.554 500.451 569.573 500.414 569.607C497.985 571.849 495.476 574.427 492.463 575.887C485.739 579.146 477.368 580.359 470.207 577.795C465.547 576.127 461.351 572.783 459.216 568.274C461.866 568.723 464.536 569.181 467.22 569.366C480.161 570.259 490.152 566.869 499.914 558.427Z" fill="#005E77"/>
<path d="M640.097 671.623C647.129 674.423 653.54 675.04 660.64 671.938C663.461 670.706 665.858 669.01 668.037 666.849L668.075 718.659L668.054 733.117C668.05 735.817 667.825 738.839 668.274 741.491C668.423 747.738 668.63 754.221 668.272 760.451L668.277 793.009C652.873 793.006 639.176 798.094 628.155 809.093C617.876 819.36 612.163 833.333 612.305 847.861C612.306 848.069 612.31 848.278 612.315 848.486C603.236 848.745 594.393 852.265 588.079 858.932C584.131 863.1 582.192 867.808 580.592 873.232C572.061 874.835 564.172 877.824 557.428 883.383C556.711 881.692 555.548 880.125 554.712 878.473C548.939 867.063 550.396 857.573 554.183 845.917C563.169 847.74 572.426 843.929 581.337 843.076C584.072 842.814 586.797 844.355 589.473 843.287C589.987 842.785 590.291 842.415 590.334 841.664C590.53 838.294 580.156 834.254 577.432 833.363C573.499 832.077 569.254 831.567 565.443 829.953C563.607 829.176 562.113 828.298 560.88 826.694C560.817 826.612 560.757 826.529 560.695 826.447C565.723 821.641 569.114 819.55 576.093 818.591C576.916 814.621 578.353 811.569 580.426 808.08L581.584 806.955C580.321 800.961 575.517 798.522 572.681 793.579C570.712 790.145 570.879 785.797 568.491 782.587C566.116 779.393 562.361 777.386 560.242 774.021C557.34 769.415 556.834 763.763 553.455 759.105C551.452 756.343 548.553 754.678 545.903 752.626C545.735 749.823 545.786 747.002 545.779 744.194C549.902 743.773 554.065 743.301 558.214 743.327C560.14 744.561 561.363 746.386 562.835 748.086C568.597 754.742 575.765 753.492 583.585 754.028C589.324 758.548 592.177 760.691 599.802 761.022C602.046 761.12 604.328 761.036 606.538 761.486C608.334 761.852 609.661 763.483 611.362 763.796C611.986 763.91 612.527 763.58 612.911 763.105C613.19 762.761 613.37 762.284 613.341 761.843C613.194 759.639 609.929 757.867 608.197 756.879C606.248 755.769 604.245 754.764 602.56 753.258C598.029 749.207 596.62 742.013 592.295 738.74C588.222 735.657 582.251 737.214 578.225 734.444C575.342 732.46 573.698 728.645 571.094 726.223C565.764 721.264 559.654 721.775 552.943 722.026L541.969 722.433C540.558 719.712 539.261 716.927 537.925 714.168C545.724 715.69 550.328 716.818 557.332 712.126C561.103 709.599 563.819 706.267 565.948 702.297C571.679 706.242 577.269 708.765 584.352 707.463C590.732 706.289 596.504 702.027 600.1 696.706C600.534 696.063 600.968 695.414 601.363 694.745C606.709 698.209 611.852 699.689 618.204 698.34C625.175 696.861 630.931 692.579 634.768 686.621C637.778 681.947 639.121 677.026 640.097 671.623Z" fill="#00849C"/>
<path d="M634.897 777.753C633.191 771.518 632.194 765.527 633.856 759.142C635.573 752.524 639.864 746.867 645.775 743.43C652.823 739.338 660.414 739.617 668.051 741.645C668.071 747.831 667.665 754.309 668.272 760.451L668.277 793.009C652.873 793.006 639.176 798.094 628.155 809.093C617.876 819.36 612.163 833.333 612.305 847.861C612.306 848.069 612.31 848.278 612.315 848.486C603.236 848.745 594.393 852.265 588.079 858.931C584.131 863.1 582.192 867.808 580.592 873.231C572.061 874.835 564.172 877.824 557.428 883.383C556.711 881.692 555.548 880.124 554.712 878.472C548.938 867.063 550.396 857.572 554.183 845.916C563.169 847.74 572.426 843.929 581.337 843.076C584.072 842.814 586.797 844.354 589.473 843.287C589.987 842.785 590.291 842.415 590.334 841.664C590.53 838.294 580.156 834.254 577.432 833.363C573.499 832.077 569.254 831.567 565.443 829.953C563.607 829.175 562.113 828.298 560.88 826.693C560.817 826.612 560.757 826.529 560.695 826.447C565.723 821.64 569.114 819.55 576.093 818.59C576.916 814.62 578.353 811.569 580.426 808.079L581.584 806.955C583.623 805.547 585.637 804.244 587.963 803.357C593.206 801.357 598.005 801.888 603.04 804.155C602.401 801.314 602.566 798.256 603.235 795.436C604.724 789.34 608.59 784.092 613.971 780.863C620.427 776.911 627.58 776.004 634.897 777.753Z" fill="#00BAD3"/>
<path d="M272.553 811.923C274.614 804.166 278.727 795.88 285.924 791.7C288.871 789.989 292.113 789.411 295.422 790.352C299.079 791.392 301.395 794.708 303.879 795.549C304.301 797.916 304.644 800.154 304.653 802.559C304.664 805.823 301.841 811.003 300.78 814.276C299.785 817.41 299.096 820.633 298.723 823.901C298.548 825.408 298.249 827.421 299.145 828.732C299.81 829.035 300.108 829.119 300.808 828.821C305.83 826.688 306.984 818.548 310.137 814.477C312.393 811.563 315.75 809.737 317.957 806.744C324.234 808.765 329.458 810.033 332.784 816.417C333.694 818.163 334.301 820.031 334.849 821.916C340.379 818.931 346.532 818.104 352.615 819.981C353.795 820.345 354.961 820.774 356.123 821.196C353.844 826.681 350.366 830.728 344.811 833.031C335.518 836.882 334.725 837.216 329.371 845.989C328.388 847.599 326.814 849.227 326.135 850.963C325.815 851.782 325.807 852.348 326.181 853.163C326.831 853.716 326.952 853.793 327.789 853.939C331.569 852.837 335.391 846.78 338.974 844.469C342.416 842.248 346.652 842.66 350.007 840.089C350.092 847.735 348 848.476 346.882 854.698C346.231 858.326 346.583 861.989 345.546 865.574C344.271 869.982 338.191 877.994 339.747 882.241C340.224 882.693 340.416 882.913 341.142 882.81C344.028 882.4 349.144 874.838 350.603 872.207C352.966 867.945 353.776 862.869 356.473 858.792C360.929 852.055 366.985 850.908 368.977 842.028C369.023 842.091 369.067 842.153 369.114 842.215C370.087 843.499 371.381 844.456 372.371 845.705C375.213 849.29 376.094 855.71 375.542 860.114C375.07 863.879 373.531 867.352 371.895 870.737C376.715 869.652 381.325 869.94 385.598 872.627C389.77 875.251 392.525 879.519 393.573 884.293C394.438 888.238 393.499 891.855 393.671 895.761C393.164 896.749 392.654 897.739 392.227 898.765C391.538 900.418 390.329 903.463 391.314 905.134C391.625 905.663 392.085 906.001 392.708 906.039C393.579 906.091 394.446 905.455 395.034 904.878C397.115 902.837 398.387 899.962 400.308 897.763C403.008 894.67 406.887 892.117 410.134 889.589C410.25 889.685 410.364 889.783 410.482 889.876C412.144 891.19 414.849 891.797 416.773 892.871C422.997 896.35 426.666 903.878 427.653 910.692C428.363 915.592 427.787 920.306 426.532 925.065C431.022 923.65 438.135 921.841 442.702 923.935C443.328 924.517 443.63 924.786 444.492 924.99C445.023 924.879 445.451 924.789 445.924 924.518C448.042 925.36 450.042 926.59 451.852 927.968C459.151 933.527 462.604 940.853 463.848 949.786C464.354 949.05 464.873 948.324 465.405 947.607C470.616 940.636 478.248 934.749 487.074 933.583C493.435 932.743 498.34 934.603 503.342 938.402C504.945 932.399 507.532 927.021 511.865 922.502C517.204 916.931 524.568 913.398 532.332 913.263C534.988 913.217 541.749 914.003 543.569 915.765C543.8 917.874 544.29 919.97 544.705 922.051C537.696 922.547 530.704 924.247 524.91 928.397C516.236 934.611 512.842 943.607 511.125 953.746C502.76 955.718 497.354 960.65 492.498 967.434L417.931 967.44C415.18 958.463 411.218 951.026 403.333 945.556C396.394 940.741 387.566 938.466 379.208 940.011C377.816 933.751 374.162 927.677 369.895 922.959C360.925 913.04 349.822 909.867 336.881 909.263C335.814 902.766 333.692 897.022 329.42 891.915C323.485 884.83 314.978 880.393 305.771 879.579C305.784 874.943 305.621 870.457 304.511 865.935C301.948 855.492 296.062 846.156 286.738 840.53C279.06 835.897 270.689 834.435 261.999 836.609C261.256 830.5 258.647 824.421 254.94 819.523C249.206 811.947 240.832 808.431 231.623 807.167C232.009 802.8 231.84 798.528 231.546 794.166C231.666 793.387 231.58 792.897 232.331 792.438C233.281 791.857 234.81 791.782 235.9 791.609C241.57 790.704 246.587 790.679 252.068 792.658C261.333 796.005 267.995 803.437 272.553 811.923Z" fill="#00BAD3"/>
<path d="M461.703 805.342C462.778 803.256 463.952 801.213 464.868 799.049C467.373 793.128 469.139 787.055 471.899 781.196C475.989 789.738 479.754 790.714 488.323 793.137C490.166 793.658 492.094 794.136 493.652 795.303C497.915 798.496 497.923 806.991 498.764 811.818C500.044 819.172 503.846 819.312 508.961 823.135C509.992 823.906 510.89 824.834 511.417 826.025C513.653 831.09 511.441 840.413 512.506 846.303C513.604 852.377 516.972 851.127 520.914 854.029C524.385 856.584 522.756 863.487 523.419 867.242C524.101 871.108 528.205 873.179 530.79 875.704C532.537 877.411 534.106 879.482 535.258 881.637C536.376 883.728 537.622 887.865 539.745 889.043C540.481 889.451 540.658 889.398 541.432 889.221C542.016 888.674 542.3 888.313 542.499 887.525C543.129 885.037 541.077 877.952 540.143 875.46C539.109 872.7 537.093 869.48 536.934 866.533C536.645 861.182 539.99 856.275 538.923 850.805C537.84 845.25 533.007 841.932 532.302 836.36C531.997 833.95 532.283 831.354 532.402 828.937C533.801 829.195 535.32 829.408 536.618 830.006C544.205 833.498 543.807 842.862 554.183 845.916C550.396 857.573 548.939 867.063 554.712 878.472C555.548 880.125 556.712 881.692 557.428 883.383C549.334 891.003 543.779 900.349 543.464 911.685C543.427 913.046 543.613 914.415 543.569 915.764C541.749 914.002 534.988 913.217 532.332 913.263C524.568 913.398 517.205 916.931 511.865 922.501C507.532 927.021 504.945 932.398 503.342 938.402C498.34 934.602 493.435 932.742 487.074 933.583C478.248 934.748 470.616 940.635 465.405 947.606C464.873 948.324 464.354 949.05 463.848 949.785C462.604 940.853 459.151 933.526 451.852 927.967C450.042 926.59 448.043 925.359 445.924 924.518C448.167 919.017 451.588 916.103 456.726 913.391C458.465 912.473 460.184 911.602 461.668 910.286C464.029 908.192 464.36 904.902 466.307 902.543C468.429 899.972 471.415 899.228 473.635 896.214C475.786 898.738 478.87 900.337 480.651 903.203C482 905.372 482.638 907.783 483.333 910.215C484.694 914.979 486.681 918.197 489.947 921.91C491.018 923.128 492.248 924.799 493.584 925.696C494.353 926.213 494.883 926.225 495.769 926.07C496.143 925.762 496.495 925.591 496.665 925.116C497.545 922.665 494.747 918.252 493.993 915.852C491.674 908.462 495.404 899.802 492.019 892C490.225 887.866 484.235 885.2 483.735 880.756C482.888 873.237 490.328 865.748 487.742 858.293C485.563 852.01 478.052 849.216 475.042 843.343C472.062 837.526 475.012 831.341 473.117 825.465C471.933 821.791 469.015 818.486 466.988 815.227C465.009 812.052 463.244 808.75 461.703 805.342Z" fill="#00849C"/>
<path d="M181.798 745.798C182.511 741.867 181.989 736.628 181.989 732.523L181.975 703.234C185.09 707.85 190.991 711.915 196.158 713.87C205.455 717.389 213.931 715.654 222.699 711.676C223.932 716.895 225.858 721.63 229.39 725.739C233.992 731.095 240.362 734.568 247.45 735.049C257.13 735.707 265.674 730.872 272.696 724.676C274.506 725.627 276.363 726.485 278.26 727.247C286.735 730.686 293.199 730.047 301.473 726.527C303.055 727.526 304.841 728.057 306.443 729.025C301.829 729.314 298.06 730.552 294.89 734.11C291.713 737.675 290.035 742.974 286.139 745.759C283.623 747.556 279.143 748.517 276.189 749.83C271.646 751.847 267.533 754.493 263.227 756.944C261.04 758.189 258.486 759.257 256.509 760.807C255.748 761.404 255.157 761.975 254.873 762.921C255.079 763.72 255.159 763.87 255.723 764.471C258.841 765.757 269.174 762.632 273.254 762.378C276.276 762.189 279.319 762.569 282.268 763.223C280.969 766.199 276.74 776.203 277.949 778.942C278.127 779.346 278.323 779.362 278.684 779.562C280.061 779.45 280.979 778.507 281.846 777.504C285.395 773.399 287.723 768.48 289.658 763.46C300.912 761.076 300.747 752.938 306.796 751.521C309.316 750.931 312.238 751.404 314.787 751.63C313.859 756.478 312.33 767.797 310.424 771.701C309.464 773.667 307.655 775.187 306.15 776.739C298.945 784.172 302.506 786.939 303.879 795.549C301.395 794.708 299.078 791.392 295.422 790.352C292.113 789.411 288.871 789.989 285.924 791.7C278.727 795.88 274.614 804.166 272.553 811.923C267.995 803.437 261.333 796.005 252.068 792.658C246.587 790.679 241.57 790.704 235.899 791.609C234.81 791.782 233.281 791.857 232.33 792.438C231.58 792.897 231.666 793.387 231.546 794.166C230.733 780.615 227.294 770.062 217.493 760.217C207.897 750.578 195.294 745.814 181.798 745.798Z" fill="#00849C"/>
<path d="M438.478 748.854C442.343 755.042 446.199 759.091 452.467 762.876C450.497 768.12 448.71 773.431 447.11 778.798C446.031 782.533 445.348 786.656 443.78 790.206C442.055 794.113 437.533 795.577 436.381 800.13C435.201 804.792 436.773 809.435 437.683 813.989C432.79 829.395 417.617 830.144 415.088 839.439C413.806 844.147 414.918 849.946 414.893 854.813L414.672 855.09C412.027 858.315 407.446 859.126 405.127 862.527C403.448 864.988 402.834 868.219 402.066 871.063C400.034 878.589 398.02 889.498 393.671 895.761C393.499 891.855 394.438 888.238 393.573 884.293C392.525 879.519 389.77 875.251 385.598 872.627C381.325 869.94 376.715 869.652 371.895 870.737C373.531 867.352 375.07 863.879 375.542 860.114C376.094 855.71 375.213 849.29 372.371 845.705C371.381 844.456 370.087 843.499 369.114 842.215C369.067 842.153 369.023 842.091 368.977 842.028C369.098 840.967 369.215 839.892 369.463 838.852C370.156 835.938 372.042 833.68 374.065 831.579C375.809 829.77 377.628 827.685 379.729 826.296C382.211 824.655 385.44 823.902 388.254 822.984C393.204 821.369 398.105 819.717 402.539 816.919C410.875 811.659 410.405 808.945 411.153 799.699C411.313 797.71 411.668 795.962 412.776 794.262C416.952 787.858 425.466 784.368 427.583 776.487C429.718 768.535 426.984 759.662 428.874 751.6C428.897 751.501 428.923 751.403 428.947 751.304C429.73 750.481 430.566 749.7 431.376 748.903C433.636 749.242 436.228 749.303 438.478 748.854Z" fill="#00849C"/>
<path d="M347.833 740.501C352.533 742.461 357.208 742.239 362.155 741.565C362.136 741.679 362.118 741.792 362.098 741.904C361.074 747.559 355.621 751.557 353.852 757.06C351.051 765.774 353.646 775.139 350.534 783.961C349.894 785.777 349.071 787.643 348.088 789.3C346.728 791.593 342.202 796.616 343.862 799.202C344.145 799.644 344.374 799.688 344.818 799.92C347.256 799.969 354.186 793.702 356.078 791.869C360.976 787.121 363.734 781.298 366.121 775.004C367.171 772.232 368.13 769.456 369.637 766.888C374.941 757.847 381.694 755.556 383.827 744.036C388.738 747.788 394.579 749.562 400.756 748.752C402.553 748.516 404.345 748.076 406.077 747.545C406.06 752.047 405.777 756.716 406.084 761.198C406.041 763.374 405.943 765.489 405.66 767.647C400.849 773.069 392.885 775.883 389.384 782.492C387.184 786.647 387.795 796.548 385.632 798.886C384.114 800.528 381.977 801.156 379.877 801.662C365.118 805.21 361.44 806.509 356.122 821.195C354.96 820.774 353.795 820.345 352.614 819.981C346.532 818.104 340.379 818.93 334.848 821.915C334.301 820.03 333.694 818.162 332.784 816.416C329.458 810.033 324.234 808.764 317.957 806.744C320.293 802.502 319.109 798.378 318.784 793.877C318.226 786.154 326.93 783.041 331.404 778.126C338.184 770.678 334.871 760.236 338.949 751.826C340.965 747.669 344.826 743.962 347.833 740.501Z" fill="#00849C"/>
<path d="M445.449 675.458C449.045 679.508 453.996 681.568 458.963 683.401C460.548 683.986 462.498 684.533 463.827 685.589C465.902 687.237 465.174 692.933 465.562 695.493C466.326 700.536 468.954 703.71 472.537 707.105C475.858 710.252 479.27 713.086 483.545 714.816C485.92 715.777 488.368 716.336 490.906 716.637C494.797 717.099 511.981 716.918 513.991 718.958C515.677 720.67 517.016 725.98 518.162 728.324C519.052 730.146 520.349 731.797 521.493 733.469C524.467 737.811 526.13 741.985 526.638 747.225C520.844 750.428 515.598 751.577 509.089 749.728C506.046 748.864 503.44 747.489 500.78 745.801C496.772 748.543 492.837 750.937 487.894 751.343C481.547 742.999 472.11 745.402 466.702 739.846C461.051 734.039 461.476 723.185 457.841 715.936C455.104 710.477 450.25 706.655 447.093 701.51C442.428 693.908 443.499 683.731 445.449 675.458Z" fill="#003F54"/>
<path d="M487.895 751.343C492.837 750.938 496.773 748.544 500.78 745.802C503.44 747.489 506.046 748.864 509.089 749.729C515.598 751.577 520.844 750.428 526.638 747.225C526.655 751.646 525.09 763.897 528.23 766.811C531.07 769.448 535.761 768.483 538.468 771.733C542.185 776.193 540.172 783.5 544.931 787.499C548.697 790.664 553.657 788.655 557.678 790.646C560.678 792.132 561.553 795.611 563.982 797.678C567.015 800.261 571.069 801.237 574.338 803.419C576.448 804.827 577.818 807.658 580.426 808.08C578.353 811.569 576.917 814.621 576.093 818.591C569.114 819.55 565.723 821.641 560.695 826.447C551.783 812.649 547.366 812.477 532.585 808.023C530.351 807.35 527.641 806.635 525.813 805.115C521.582 801.597 520.814 787.529 516.938 781.399C510.918 771.878 497.512 773.332 493.951 768.67C490.512 764.167 491.123 756.818 488.09 751.67L487.895 751.343Z" fill="#00849C"/>
<path d="M410.133 889.589C413.653 885.718 415.647 880.688 419.374 877.046C423.311 873.199 430.064 871.351 433.059 866.692C436.66 861.091 433.923 852.578 437.023 848.051C439.408 844.568 446.557 840.134 450.008 836.594L450.071 837.052C450.608 841.157 450.057 845.459 451.084 849.471C453.638 859.445 462.71 861.665 465.215 868.32C464.929 872.287 463.606 880.718 462.155 884.296C461.68 885.468 461.137 886.311 460.184 887.141C458.216 888.855 455.883 890.355 454.573 892.674C452.639 896.098 453.114 899.969 451.79 903.504C450.948 905.754 449.588 907.652 448.049 909.471C443.71 914.599 443.262 917.416 442.702 923.935C438.135 921.841 431.022 923.65 426.532 925.065C427.787 920.306 428.363 915.592 427.653 910.692C426.666 903.878 422.997 896.35 416.773 892.872C414.849 891.797 412.144 891.19 410.482 889.876C410.363 889.783 410.25 889.685 410.133 889.589Z" fill="#00849C"/>
<path d="M408.025 696.969C409.965 696.186 411.922 695.604 413.937 695.043C414.687 702.48 416.139 709.401 420.5 715.647C422 717.796 423.874 719.733 425.275 721.932C422.761 724.565 420.086 727.024 417.391 729.47C412.682 733.742 406.68 738.223 406.345 745.143C406.09 750.424 406.863 755.961 406.084 761.198C405.777 756.717 406.06 752.047 406.077 747.545C404.346 748.076 402.553 748.516 400.756 748.752C394.579 749.562 388.738 747.788 383.827 744.036C384.98 734.021 384.916 723.909 390.902 715.211C396.345 713.702 401.543 712.745 404.59 707.352C406.356 704.227 407.12 700.416 408.025 696.969Z" fill="#003F54"/>
<path d="M355.25 731.894C357.705 731.396 360.194 731.144 362.648 730.672C362.611 734.277 361.966 737.992 362.155 741.566C357.208 742.239 352.533 742.461 347.833 740.502C350.361 737.684 352.702 734.679 355.25 731.894Z" fill="#003F54"/>
<path d="M431.376 748.904C433.039 747.406 434.718 745.925 436.411 744.462L438.478 748.854C436.228 749.303 433.636 749.242 431.376 748.904Z" fill="#003F54"/>
<path d="M357.146 562.176C358.824 563.007 361.301 565.78 362.884 567.114C366.232 569.935 370.128 572.64 374.065 574.571C383.29 579.094 395.808 579.975 405.502 576.614C407.584 583.213 410.855 588.914 415.239 594.264C425.203 606.425 439.414 613.102 454.957 614.636C472.049 616.323 488.53 612.691 502.02 601.662C506.796 605.089 511.617 608.1 517.279 609.833C528.703 613.331 540.439 609.989 550.648 604.541C545.013 610.241 539.644 614.875 532.068 617.876C521.235 622.169 512.949 620.931 502.596 616.493C500.087 618.255 497.554 619.99 494.796 621.345C483.932 626.681 470.766 627.689 458.853 627.687C454.961 634.6 447.883 645.15 447.197 653.071C451.976 659.994 457.067 665.54 465.216 668.232C467.428 668.963 469.818 669.282 471.988 670.073C473.562 670.646 474.698 671.561 475.551 673.011C478.201 677.514 478.293 686.075 481.21 691.633C482.689 694.451 485.245 695.917 487.967 697.351C495.759 701.456 503.436 702.088 512.097 701.711C515.135 701.578 518.376 701.167 521.304 702.197C526.134 703.897 528.084 711.401 529.779 715.686C530.866 718.411 532.017 721.109 533.231 723.779C534.301 726.081 535.609 728.729 537.956 729.957C542.248 732.203 554.995 727.271 561.896 729.695C567.633 731.71 569.076 738.251 574.095 741.162C578.389 743.652 583.357 742.374 587.77 744.118C591.88 745.742 592.766 750.994 594.458 754.645C593.143 753.455 592.092 752.072 590.955 750.718C585.976 744.791 582.695 747.635 576.042 747.023C570.883 746.548 568.637 744.115 565.521 740.362C562.974 737.294 561.119 736.351 557.176 736.009C553.51 735.692 542.372 736.09 539.56 738.472C538.013 741.339 538.8 752.899 539.319 756.511C544.305 761.409 550.229 763.998 552.232 771.333C552.894 773.759 553.167 776.303 553.719 778.762C556.907 781.381 561.482 782.39 563.707 786.227C564.068 786.85 564.084 787.156 563.888 787.828L563.665 787.785C558.351 781.854 551.256 784.893 548.441 781.313C547.2 779.735 546.88 772.459 545.383 769.366C543.022 764.488 534.467 760.972 533.532 758.659C532.595 756.339 533.235 749.485 533.089 746.484C532.96 743.824 532.68 741.104 532.091 738.504C530.751 732.591 526.967 728.328 524.552 722.915C522.962 719.351 521.772 714.344 519.241 711.375C516.086 707.673 498.499 709.268 493.171 708.875C488.679 708.544 485.471 707.119 481.746 704.679C466.662 694.804 476.686 686.766 469.103 679.743C465.499 676.406 459.192 676.018 454.905 673.557C449.782 670.615 445.543 664.939 441.745 660.5C440.467 664.023 439.34 667.6 438.366 671.219C435.136 683.691 433.935 697.626 442.119 708.502C445.172 712.559 449.042 716.606 451.128 721.279C452.48 724.309 453.112 727.644 453.896 730.853C455.001 735.372 456.55 739.537 458.94 743.544C463.236 750.747 466.979 750.467 474.425 752.394C476.581 752.951 478.849 753.635 480.503 755.2C485.302 759.745 482.662 770.322 489.515 775.19C495.537 779.468 506.318 778.184 510.351 785.029C514.689 792.394 512.911 804.655 519.393 810.496C527.541 817.84 541.411 815.105 548.892 823.325C550.814 825.436 552.031 828.061 553.48 830.495C556.615 835.762 561.433 837.444 567.002 838.87C563.841 838.92 560.206 839.552 557.106 838.884C548.942 837.125 549.175 825.695 538.58 822.214C535.933 821.345 528.794 819.299 526.371 820.869C525.771 821.258 525.447 821.901 525.299 822.58C524.961 824.129 525.213 826 525.171 827.608C525.058 831.955 524.059 837.084 525.762 841.232C527.447 845.337 531.785 848.119 532.457 852.628C533.052 856.616 530.585 861.136 530.175 865.243C529.351 860.808 529.935 851.457 526.059 848.667C523.89 847.106 521.308 846.215 519.348 844.354C519.273 844.284 519.202 844.212 519.129 844.14C518.201 837.826 519.523 831.214 518.71 824.86C517.434 814.871 512.222 817.73 508.41 812.717C504.458 807.52 505.451 793.805 500.73 789.992C495.101 785.445 485.92 786.602 480.897 781.002C477.529 777.248 475.846 764.054 472.702 762.297C472.402 762.13 471.973 762.012 471.654 762.183C468.921 763.651 459.968 791.289 457.99 796.015C456.652 799.214 454.326 801.612 453.393 805.046C454.879 810.468 458.23 815.861 461.348 820.509C462.908 822.835 464.86 825.255 465.799 827.909C466.456 829.767 466.417 831.637 466.352 833.572C466.137 839.954 465.776 844.725 470.078 850.002C472.814 853.359 478.63 857.631 479.751 861.758C481.115 866.778 474.478 875.926 476.949 883.84C479.058 890.592 485.746 890.115 486.797 899.636C484.24 895.974 480.616 893.512 477.574 890.321C476.27 888.953 475.454 887.223 474.065 885.935L473.622 886.014C471.59 887.688 470.264 890.052 468.477 891.971C464.045 896.731 461.372 897.974 458.142 903.979C458.6 900.658 458.906 896.676 461.526 894.255C462.715 893.157 464.104 892.277 465.308 891.195C466.561 890.068 467.666 888.513 468.348 886.974C469.315 884.795 472.97 869.171 473.083 866.716C473.359 860.687 464.087 856.251 460.535 851.764C455.975 846.005 459.44 839.758 457.006 833.629C455.584 830.049 452.735 826.996 450.115 824.251C447.081 827.99 444.102 832 440.358 835.063C437.67 837.263 434.564 838.962 431.978 841.28C426.488 846.198 428.512 852.954 428.236 859.427C426.602 864.65 419.82 867.227 415.83 870.494C413.519 872.386 411.811 874.431 410.099 876.868C410.433 874.069 410.152 870.775 411.102 868.128C413.068 862.652 421.007 862.336 422.686 856.302C424.109 851.188 420.877 843.829 424.152 839.453C425.908 837.106 429.098 835.553 431.543 833.993C438.072 829.826 442.788 822.77 446.045 815.883C445.067 810.451 441.454 803.447 446.018 798.9C447.485 797.438 449.381 796.107 450.249 794.188C451.941 790.448 452.845 786.011 454.128 782.091C456.006 776.351 458.241 770.734 460.366 765.083C460.751 764.057 462.37 759.987 462.168 759.029C461.875 757.637 455.85 755.281 454.491 754.503C453.065 753.683 451.698 752.765 450.399 751.755C444.586 747.155 441.514 737.708 438.856 731C434.082 735.896 426.154 741.462 422.545 746.641C418.836 751.963 422.579 769.053 419.073 776.111C415.882 782.533 407.181 785.294 404.357 791.862C402.317 796.604 404.606 802.777 401.803 807.281C397.815 813.685 384.015 815.109 377.514 818.721C374.186 820.57 364.981 830.699 363.672 834.155C362.635 836.89 363.065 840.001 361.669 842.682C360.26 845.385 357.585 847.529 355.775 850.027C357.681 845.061 357.236 841.392 356.922 836.236C356.666 832.01 359.81 829.325 361.728 825.925C363.616 822.577 364.317 818.368 366.76 815.363C373.04 807.634 386.121 810.727 392.866 803.241C397.09 798.555 393.962 790.193 397.243 784.791C400.776 778.975 407.934 776.67 412.313 771.754C412.375 771.685 412.434 771.613 412.495 771.542C413.732 766.072 413.279 757.821 413.406 752.03C413.459 749.645 413.402 747.121 414.007 744.797C415.452 739.245 426.828 731.263 431.085 726.654C432.757 724.842 434.003 722.933 435.192 720.78C435.171 720.749 435.149 720.717 435.129 720.686C433.202 717.772 430.583 715.446 428.464 712.683C422.153 704.452 421.342 694.602 421.064 684.573C416.117 685.821 408.819 687.1 404.473 689.443C399.688 692.024 399.864 696.229 398.568 700.83C396.435 708.397 390.956 704.668 386.041 707.668C382.126 710.058 378.354 724.917 377.651 729.398C376.914 734.1 376.925 738.981 375.876 743.626C374.085 751.56 366.344 756.909 362.655 764.039C360.412 768.376 359.817 773.718 358.617 778.436C358.557 775.706 358.718 772.942 358.832 770.213C359.15 762.602 360.133 759.291 364.615 753.172C366.029 751.242 368.08 749.061 368.762 746.755C370.168 742.001 369.67 736.103 370.067 731.145C370.336 727.782 371.033 724.411 371.61 721.088C366.37 722.338 356.479 722.92 352.375 724.595C348.853 726.032 335.91 741.374 333.335 745C332.23 746.557 331.133 748.406 330.513 750.215C328.156 757.088 329.339 765.218 325.907 771.785C323.413 776.559 318.839 778.778 315.315 782.564C310.516 787.719 311.218 794.109 311.411 800.589C309.871 794.486 308.041 786.593 312.209 781.194C313.622 779.364 315.777 777.849 316.861 775.806C318.945 771.875 321.173 757.248 322.699 751.54C323.177 749.757 324.792 747.009 324.295 745.282C322.213 744.06 314.907 744.356 312.136 744.257C300.242 743.834 301.73 747.325 294.75 753.559C290.386 757.457 283.823 755.805 278.5 755.546C289.158 752.827 290.261 753.051 297.008 743.861C298.486 741.848 299.96 739.588 301.851 737.933C302.901 737.014 304.104 736.308 305.494 736.075C308.82 735.516 312.922 736.518 316.255 736.889C319.994 737.31 323.743 737.636 327.498 737.87C331.855 734.902 337.76 725.842 341.098 721.47C342.407 719.757 343.716 717.761 345.508 716.515C350.307 713.177 367.698 714.751 372.048 710.956C374.695 708.646 375.135 704.204 377.61 701.516C380.683 698.179 384.544 699.462 388.469 699.096C392.307 698.739 395.235 685.971 398.742 682.719C404.213 677.645 414.49 679.505 420.65 671.7C422.505 669.35 423.403 661.978 424.46 658.774C426.971 651.155 430.552 643.598 434.11 636.417C435.598 633.414 437.577 630.42 438.767 627.301C439.167 626.252 439.346 625.378 439.182 624.268C438.326 622.99 426.716 618.777 424.101 617.49C421.271 616.097 418.276 614.53 415.786 612.574C410.38 608.327 406.114 601.852 402.849 595.887C401.862 594.083 400.62 590.828 398.575 590.193C396.525 591.645 394.782 595.258 393.365 597.402C389.421 603.369 380.229 617.661 374.73 621.363C370.492 624.217 365.461 625.351 360.533 626.331C357.999 626.836 355.443 627.204 353.164 628.498C351.634 630.608 350.416 633.029 349.123 635.293C345.504 641.637 341.436 648.209 340.288 655.543C339.68 659.428 340.096 664.151 338.725 667.82C337.493 671.116 332.655 676.831 330.686 680.846C328.168 685.979 327.428 691.135 325.287 695.727C324.701 690.021 324.735 681.212 327.31 676.045C328.884 672.885 330.897 669.872 332.077 666.536C333.366 662.89 335.501 649.048 335.622 645.002C335.644 644.28 335.473 644.018 334.994 643.511C332.564 643.173 329.718 643.925 327.245 644.091C321.772 644.459 314.64 643.497 309.817 646.583C306.698 648.579 304.447 652.094 300.854 653.304C296.599 654.737 289.306 654.425 284.66 654.628C294.313 651.012 301.015 645.182 308.184 638.051C312.294 638.475 316.39 638.844 320.518 638.446C334.562 637.092 338.541 631.397 346.889 621.3C350.919 620.161 354.772 619.464 358.622 617.7C368.404 613.217 376.998 604.581 383.106 595.822C384.222 594.222 385.661 592.428 386.272 590.572C386.374 590.26 386.503 589.814 386.316 589.484C385.934 588.814 376.75 584.812 375.324 583.93C366.718 578.612 361.58 571.025 357.146 562.176Z" fill="#FFF9CA"/>
<path d="M181.79 756.988C193.728 757.571 204.025 761.389 212.171 770.445C220.293 779.477 223.506 790.909 222.85 802.892C222.613 807.211 221.456 811.734 219.727 815.693C219.914 816.164 219.769 816.047 220.225 816.254C222.142 817.126 225.786 816.622 227.955 816.699C237.661 817.043 246.198 821.223 250.269 830.392C252.463 835.334 253.089 841.632 252.303 846.951C261.854 844.381 272.161 843.704 281.035 848.814C288.019 852.836 292.759 859.761 294.789 867.484C296.95 875.713 295.003 880.763 294.123 888.767C303.651 888.308 312.007 888.773 319.439 895.542C324.958 900.569 327.669 907.483 327.96 914.857C328.031 916.568 328.038 918.282 327.982 919.994C337.813 918.174 348.4 919.527 356.736 925.291C364.197 930.491 369.238 938.487 370.712 947.461C370.993 949.097 371.148 950.717 371.227 952.374C378.277 949.779 386.051 949.552 392.976 952.727C399.547 955.74 403.544 960.969 406.388 967.44C390.673 967.442 374.879 967.791 359.173 967.417C344.802 967.265 330.414 967.412 316.041 967.402L269.59 967.403C258.304 967.405 243.28 968.378 232.592 965.809C221.482 963.136 211.292 957.534 203.081 949.586C190.726 937.801 183.508 922.253 182.054 905.29C181.482 898.616 181.735 891.804 181.741 885.107C181.754 872.928 182.001 860.689 181.668 848.518C182.129 825.557 181.511 802.566 181.815 779.6L181.79 756.988Z" fill="#00BAD3"/>
<path d="M181.668 848.518C182.564 849.393 188.574 850.308 190.15 850.844C202.479 855.034 210.753 867.205 210.906 880.057C210.939 882.794 210.575 885.488 210.047 888.168C218.462 889.599 225.511 893.706 230.465 900.751C233.617 905.234 235.944 910.719 236.735 916.158C243.172 912.144 250.507 910.626 257.974 912.389C264.807 914.002 270.429 918.424 274.08 924.36C276.204 927.812 277.464 931.382 278.413 935.298C282.886 933.911 288.194 934.868 292.287 936.997C297.936 939.936 301.936 945.008 303.791 951.065C304.896 954.672 305.249 958.603 305.329 962.358C309.337 962.886 313.081 964.648 316.041 967.402L269.59 967.403C258.304 967.405 243.28 968.378 232.592 965.809C221.482 963.136 211.292 957.534 203.081 949.586C190.726 937.801 183.508 922.253 182.054 905.29C181.482 898.616 181.735 891.804 181.741 885.107C181.754 872.928 182.001 860.689 181.668 848.518Z" fill="#005E77"/>
<path d="M181.791 756.988C193.728 757.571 204.026 761.389 212.171 770.445C220.294 779.477 223.506 790.909 222.85 802.892C222.613 807.211 221.456 811.734 219.727 815.693C219.915 816.164 219.769 816.047 220.225 816.254C222.142 817.126 225.786 816.622 227.955 816.699C237.662 817.043 246.198 821.223 250.269 830.392C252.464 835.334 253.09 841.632 252.304 846.951C261.854 844.381 272.161 843.704 281.035 848.814C288.019 852.836 292.76 859.761 294.789 867.484C296.951 875.713 295.004 880.763 294.123 888.767C303.652 888.308 312.008 888.773 319.439 895.542C324.958 900.569 327.67 907.483 327.96 914.857C328.031 916.568 328.039 918.282 327.983 919.994C337.814 918.174 348.4 919.527 356.736 925.291C364.197 930.491 369.238 938.487 370.712 947.461C370.994 949.097 371.148 950.717 371.227 952.374C378.277 949.779 386.051 949.552 392.976 952.727C399.548 955.74 403.544 960.969 406.389 967.44C390.674 967.442 374.879 967.791 359.174 967.417C359.094 963.999 358.602 960.796 357.663 957.506C355.146 948.688 349.642 940.47 341.487 935.973C333.25 931.431 323.378 931.783 314.582 934.307C314.729 929.16 314.658 924.276 312.961 919.352C310.835 913.186 306.37 908.333 300.518 905.504C293.729 902.222 285.94 902.102 278.869 904.523C281.214 897.565 282.094 889.83 280.13 882.657C277.996 874.865 272.898 867.765 265.81 863.763C257.895 859.292 248.526 859.294 239.955 861.657C240.336 859.093 240.191 856.305 239.872 853.741C238.959 846.408 235.471 839.478 229.555 834.93C222.44 829.462 215.258 829.394 206.77 830.494C207.355 828.799 207.859 827.077 208.279 825.334C210.84 814.96 210.013 804.031 204.401 794.773C200.916 789.022 195.272 783.738 188.793 781.594C186.627 780.878 184.253 780.692 182.032 780.157L181.816 779.6L181.791 756.988Z" fill="#99FEF9"/>
<path d="M622.757 860.064C622.654 856.898 622.332 853.737 622.286 850.569C622.104 837.93 626.321 826.395 635.257 817.377C644.292 808.259 655.518 804.321 668.21 804.225C668.546 810.349 668.278 816.616 668.273 822.756L668.328 854.672L668.329 883.78C668.329 894.115 668.833 904.902 666.527 915.041C663.971 926.231 658.634 936.595 651.011 945.175C639.87 957.693 624.332 966.377 607.45 967.304C598.775 967.78 589.966 967.304 581.272 967.412L532.785 967.428C524.478 967.422 516.145 967.289 507.842 967.532C511.546 965.262 515.448 964.346 519.621 963.353C519.853 954.347 521.398 945.893 528.171 939.357C536.315 931.498 548.055 932.418 558.505 932.651C555.923 926.518 553.499 921.151 553.527 914.349C553.56 906.423 557.03 898.674 562.656 893.131C570.411 885.492 579.292 883.565 589.818 883.639C589.73 881.01 589.798 878.379 590.351 875.799C591.536 870.178 594.936 865.273 599.783 862.191C606.804 857.709 614.974 858.364 622.757 860.064Z" fill="#00BAD3"/>
<path d="M622.757 860.064C622.654 856.898 622.332 853.737 622.286 850.569C622.104 837.93 626.321 826.395 635.257 817.377C644.292 808.259 655.518 804.321 668.21 804.225C667.713 811.997 668.223 819.885 668.054 827.678C659.571 827.425 652.138 830.113 645.945 836.007C638.152 843.424 634.318 853.603 634.128 864.25C634.074 867.247 634.181 870.354 634.766 873.301C626.78 871.786 618.699 872.576 611.883 877.279C606.445 881.032 603.086 886.65 601.962 893.128C601.456 896.097 601.404 899.127 601.811 902.113C594.9 900.97 587.374 902.247 581.614 906.349C576.183 910.285 572.531 916.213 571.459 922.835C570.204 930.365 572.258 937.637 575.677 944.307C565.086 942.661 553.64 943.297 544.709 949.841C538.601 954.317 535.131 960.348 532.785 967.428C524.478 967.422 516.145 967.289 507.842 967.532C511.546 965.262 515.448 964.346 519.621 963.353C519.853 954.347 521.398 945.893 528.171 939.357C536.315 931.498 548.055 932.418 558.505 932.651C555.923 926.518 553.499 921.151 553.527 914.349C553.56 906.423 557.03 898.674 562.656 893.131C570.411 885.492 579.292 883.565 589.818 883.639C589.73 881.01 589.798 878.379 590.351 875.799C591.536 870.178 594.936 865.273 599.783 862.191C606.804 857.709 614.974 858.364 622.757 860.064Z" fill="#99FEF9"/>
<path d="M668.21 804.225C668.546 810.349 668.278 816.616 668.273 822.756L668.328 854.672L668.329 883.78C668.329 894.115 668.833 904.902 666.527 915.041C663.971 926.231 658.634 936.595 651.011 945.175C639.87 957.693 624.332 966.377 607.45 967.304C598.775 967.78 589.967 967.304 581.272 967.412C582.338 962.895 585.236 958.682 588.649 955.6C594.821 950.025 601.449 948.937 609.48 949.398C609.377 948.884 609.308 948.408 609.303 947.882C609.262 942.875 611.898 937.907 615.416 934.467C620.591 929.407 626.959 927.414 634.059 927.499C633.669 924.286 633.754 921.144 634.493 917.982C636.09 911.142 640.488 905.577 646.443 901.936C653.278 897.757 660.385 897.185 668.056 899.007L668.054 827.678C668.223 819.885 667.713 811.997 668.21 804.225Z" fill="#005E77"/>
</svg>
