<svg width="849" height="1183" viewBox="0 0 849 1183" fill="none" xmlns="http://www.w3.org/2000/svg">
<rect x="5" y="5" width="839" height="1173" rx="45" fill="white"/>
<rect x="5" y="5" width="839" height="1173" rx="45" stroke="black" stroke-width="10"/>
<circle cx="786.5" cy="1124.5" r="11.5" fill="black"/>
<circle cx="786.5" cy="59.5" r="11.5" fill="black"/>
<path d="M77 1124.5C77 1130.85 71.8513 1136 65.5 1136C59.1487 1136 54 1130.85 54 1124.5C54 1118.15 59.1487 1113 65.5 1113C71.8513 1113 77 1118.15 77 1124.5Z" fill="black"/>
<path d="M77 59.5C77 65.8513 71.8513 71 65.5 71C59.1487 71 54 65.8513 54 59.5C54 53.1487 59.1487 48 65.5 48C71.8513 48 77 53.1487 77 59.5Z" fill="black"/>
<mask id="path-6-inside-1_97_34" fill="white">
<path d="M708 48C713.523 48 717.934 52.4996 718.616 57.9801C723.122 94.1833 751.817 122.878 788.02 127.384C793.5 128.066 798 132.477 798 138V1046C798 1051.52 793.5 1055.93 788.02 1056.62C751.817 1061.12 723.122 1089.82 718.616 1126.02C717.934 1131.5 713.523 1136 708 1136H141C135.477 1136 131.066 1131.5 130.384 1126.02C125.878 1089.82 97.1833 1061.12 60.9801 1056.62C55.4996 1055.93 51 1051.52 51 1046V138C51 132.477 55.4996 128.066 60.9801 127.384C97.1833 122.878 125.878 94.1833 130.384 57.9801C131.066 52.4996 135.477 48 141 48H708Z"/>
</mask>
<path d="M708 48C713.523 48 717.934 52.4996 718.616 57.9801C723.122 94.1833 751.817 122.878 788.02 127.384C793.5 128.066 798 132.477 798 138V1046C798 1051.52 793.5 1055.93 788.02 1056.62C751.817 1061.12 723.122 1089.82 718.616 1126.02C717.934 1131.5 713.523 1136 708 1136H141C135.477 1136 131.066 1131.5 130.384 1126.02C125.878 1089.82 97.1833 1061.12 60.9801 1056.62C55.4996 1055.93 51 1051.52 51 1046V138C51 132.477 55.4996 128.066 60.9801 127.384C97.1833 122.878 125.878 94.1833 130.384 57.9801C131.066 52.4996 135.477 48 141 48H708Z" fill="#77B866"/>
<path d="M130.384 1126.02L138.322 1125.03L130.384 1126.02ZM718.616 1126.02L710.678 1125.03L718.616 1126.02ZM788.02 1056.62L789.008 1064.56L788.02 1056.62ZM718.616 57.9801L726.555 56.9922L718.616 57.9801ZM718.616 57.9801L710.678 58.9681C715.635 98.8063 747.194 130.365 787.032 135.322L788.02 127.384L789.008 119.445C756.44 115.392 730.608 89.5603 726.555 56.9922L718.616 57.9801ZM798 138H790V1046H798H806V138H798ZM788.02 1056.62L787.032 1048.68C747.194 1053.64 715.635 1085.19 710.678 1125.03L718.616 1126.02L726.555 1127.01C730.608 1094.44 756.44 1068.61 789.008 1064.56L788.02 1056.62ZM708 1136V1128H141V1136V1144H708V1136ZM130.384 1126.02L138.322 1125.03C133.365 1085.19 101.806 1053.64 61.9681 1048.68L60.9801 1056.62L59.9922 1064.56C92.5603 1068.61 118.392 1094.44 122.445 1127.01L130.384 1126.02ZM51 1046H59V138H51H43V1046H51ZM60.9801 127.384L61.9681 135.322C101.806 130.365 133.365 98.8063 138.322 58.9681L130.384 57.9801L122.445 56.9922C118.392 89.5603 92.5603 115.392 59.9922 119.445L60.9801 127.384ZM141 48V56H708V48V40H141V48ZM130.384 57.9801L138.322 58.9681C138.438 58.0389 138.872 57.2306 139.427 56.6958C139.954 56.1887 140.494 56 141 56V48V40C130.84 40 123.547 48.1329 122.445 56.9922L130.384 57.9801ZM51 138H59C59 137.494 59.1887 136.954 59.6958 136.427C60.2306 135.872 61.0389 135.438 61.9681 135.322L60.9801 127.384L59.9922 119.445C51.1329 120.547 43 127.84 43 138H51ZM60.9801 1056.62L61.9681 1048.68C61.0389 1048.56 60.2306 1048.13 59.6958 1047.57C59.1887 1047.05 59 1046.51 59 1046H51H43C43 1056.16 51.1329 1063.45 59.9922 1064.56L60.9801 1056.62ZM141 1136V1128C140.494 1128 139.954 1127.81 139.427 1127.3C138.872 1126.77 138.438 1125.96 138.322 1125.03L130.384 1126.02L122.445 1127.01C123.547 1135.87 130.84 1144 141 1144V1136ZM718.616 1126.02L710.678 1125.03C710.562 1125.96 710.128 1126.77 709.573 1127.3C709.046 1127.81 708.506 1128 708 1128V1136V1144C718.16 1144 725.453 1135.87 726.555 1127.01L718.616 1126.02ZM798 1046H790C790 1046.51 789.811 1047.05 789.304 1047.57C788.769 1048.13 787.961 1048.56 787.032 1048.68L788.02 1056.62L789.008 1064.56C797.867 1063.45 806 1056.16 806 1046H798ZM788.02 127.384L787.032 135.322C787.961 135.438 788.769 135.872 789.304 136.427C789.811 136.954 790 137.494 790 138H798H806C806 127.84 797.867 120.547 789.008 119.445L788.02 127.384ZM718.616 57.9801L726.555 56.9922C725.453 48.1329 718.16 40 708 40V48V56C708.506 56 709.046 56.1887 709.573 56.6958C710.128 57.2306 710.562 58.0389 710.678 58.9681L718.616 57.9801Z" fill="black" mask="url(#path-6-inside-1_97_34)"/>
<path d="M690 102C695.523 102 699.911 106.512 700.837 111.957C705.019 136.563 724.437 155.981 749.043 160.163C754.488 161.089 759 165.477 759 171V1014C759 1019.52 754.488 1023.91 749.043 1024.84C724.711 1028.97 705.454 1048 700.984 1072.22C699.993 1077.59 695.633 1082 690.175 1082H158.825C153.367 1082 149.007 1077.59 148.016 1072.22C143.546 1048 124.288 1028.97 99.9568 1024.84C94.5121 1023.91 90 1019.52 90 1014V171C90 165.477 94.512 161.089 99.9568 160.163C124.563 155.981 143.981 136.563 148.163 111.957C149.089 106.512 153.477 102 159 102H690Z" fill="#A3CC98"/>
<path d="M386.84 408.595C382.873 408.595 379.303 407.915 376.13 406.555C372.957 405.138 370.463 403.155 368.65 400.605C366.837 398.055 365.93 395.08 365.93 391.68H376.3C376.527 394.23 377.518 396.327 379.275 397.97C381.088 399.613 383.61 400.435 386.84 400.435C390.183 400.435 392.79 399.642 394.66 398.055C396.53 396.412 397.465 394.315 397.465 391.765C397.465 389.782 396.87 388.167 395.68 386.92C394.547 385.673 393.102 384.71 391.345 384.03C389.645 383.35 387.265 382.613 384.205 381.82C380.352 380.8 377.207 379.78 374.77 378.76C372.39 377.683 370.35 376.04 368.65 373.83C366.95 371.62 366.1 368.673 366.1 364.99C366.1 361.59 366.95 358.615 368.65 356.065C370.35 353.515 372.73 351.56 375.79 350.2C378.85 348.84 382.392 348.16 386.415 348.16C392.138 348.16 396.813 349.605 400.44 352.495C404.123 355.328 406.163 359.238 406.56 364.225H395.85C395.68 362.072 394.66 360.23 392.79 358.7C390.92 357.17 388.455 356.405 385.395 356.405C382.618 356.405 380.352 357.113 378.595 358.53C376.838 359.947 375.96 361.987 375.96 364.65C375.96 366.463 376.498 367.965 377.575 369.155C378.708 370.288 380.125 371.195 381.825 371.875C383.525 372.555 385.848 373.292 388.795 374.085C392.705 375.162 395.878 376.238 398.315 377.315C400.808 378.392 402.905 380.063 404.605 382.33C406.362 384.54 407.24 387.515 407.24 391.255C407.24 394.258 406.418 397.092 404.775 399.755C403.188 402.418 400.837 404.572 397.72 406.215C394.66 407.802 391.033 408.595 386.84 408.595ZM438.989 408.765C434.569 408.765 430.574 407.773 427.004 405.79C423.434 403.75 420.629 400.917 418.589 397.29C416.549 393.607 415.529 389.357 415.529 384.54C415.529 379.78 416.577 375.558 418.674 371.875C420.77 368.192 423.632 365.358 427.259 363.375C430.885 361.392 434.937 360.4 439.414 360.4C443.89 360.4 447.942 361.392 451.569 363.375C455.195 365.358 458.057 368.192 460.154 371.875C462.25 375.558 463.299 379.78 463.299 384.54C463.299 389.3 462.222 393.522 460.069 397.205C457.915 400.888 454.969 403.75 451.229 405.79C447.545 407.773 443.465 408.765 438.989 408.765ZM438.989 400.35C441.482 400.35 443.805 399.755 445.959 398.565C448.169 397.375 449.954 395.59 451.314 393.21C452.674 390.83 453.354 387.94 453.354 384.54C453.354 381.14 452.702 378.278 451.399 375.955C450.095 373.575 448.367 371.79 446.214 370.6C444.06 369.41 441.737 368.815 439.244 368.815C436.75 368.815 434.427 369.41 432.274 370.6C430.177 371.79 428.505 373.575 427.259 375.955C426.012 378.278 425.389 381.14 425.389 384.54C425.389 389.583 426.664 393.493 429.214 396.27C431.82 398.99 435.079 400.35 438.989 400.35ZM482.568 345.1V408H472.878V345.1H482.568Z" fill="black"/>
<path d="M353.81 272.735C345.2 272.735 338.13 270.705 332.6 266.645C327.07 262.515 324.095 256.635 323.675 249.005H345.62C345.83 251.595 346.6 253.485 347.93 254.675C349.26 255.865 350.975 256.46 353.075 256.46C354.965 256.46 356.505 256.005 357.695 255.095C358.955 254.115 359.585 252.785 359.585 251.105C359.585 248.935 358.57 247.255 356.54 246.065C354.51 244.875 351.22 243.545 346.67 242.075C341.84 240.465 337.92 238.925 334.91 237.455C331.97 235.915 329.38 233.71 327.14 230.84C324.97 227.9 323.885 224.085 323.885 219.395C323.885 214.635 325.075 210.575 327.455 207.215C329.835 203.785 333.125 201.195 337.325 199.445C341.525 197.695 346.285 196.82 351.605 196.82C360.215 196.82 367.075 198.85 372.185 202.91C377.365 206.9 380.13 212.535 380.48 219.815H358.115C358.045 217.575 357.345 215.895 356.015 214.775C354.755 213.655 353.11 213.095 351.08 213.095C349.54 213.095 348.28 213.55 347.3 214.46C346.32 215.37 345.83 216.665 345.83 218.345C345.83 219.745 346.355 220.97 347.405 222.02C348.525 223 349.89 223.875 351.5 224.645C353.11 225.345 355.49 226.255 358.64 227.375C363.33 228.985 367.18 230.595 370.19 232.205C373.27 233.745 375.895 235.95 378.065 238.82C380.305 241.62 381.425 245.19 381.425 249.53C381.425 253.94 380.305 257.895 378.065 261.395C375.895 264.895 372.71 267.66 368.51 269.69C364.38 271.72 359.48 272.735 353.81 272.735ZM451.262 213.095V272H430.577V263.6C428.827 266.26 426.412 268.43 423.332 270.11C420.252 271.72 416.717 272.525 412.727 272.525C405.867 272.525 400.442 270.285 396.452 265.805C392.532 261.255 390.572 255.095 390.572 247.325V213.095H411.047V244.7C411.047 248.06 411.922 250.72 413.672 252.68C415.492 254.57 417.872 255.515 420.812 255.515C423.822 255.515 426.202 254.57 427.952 252.68C429.702 250.72 430.577 248.06 430.577 244.7V213.095H451.262ZM501.51 212.57C508.3 212.57 513.69 214.845 517.68 219.395C521.67 223.875 523.665 229.965 523.665 237.665V272H503.085V240.395C503.085 237.035 502.21 234.41 500.46 232.52C498.71 230.56 496.365 229.58 493.425 229.58C490.345 229.58 487.93 230.56 486.18 232.52C484.43 234.41 483.555 237.035 483.555 240.395V272H462.975V213.095H483.555V221.495C485.375 218.835 487.825 216.7 490.905 215.09C493.985 213.41 497.52 212.57 501.51 212.57Z" fill="black"/>
<mask id="path-11-outside-2_97_34" maskUnits="userSpaceOnUse" x="401" y="1006" width="48" height="32" fill="black">
<rect fill="white" x="401" y="1006" width="48" height="32"/>
<path d="M402.32 1015.04C402.48 1012.56 403.427 1010.63 405.16 1009.24C406.92 1007.85 409.16 1007.16 411.88 1007.16C413.747 1007.16 415.36 1007.49 416.72 1008.16C418.08 1008.83 419.107 1009.73 419.8 1010.88C420.493 1012.03 420.84 1013.32 420.84 1014.76C420.84 1016.41 420.4 1017.83 419.52 1019C418.64 1020.17 417.587 1020.96 416.36 1021.36V1021.52C417.933 1022 419.16 1022.88 420.04 1024.16C420.92 1025.41 421.36 1027.03 421.36 1029C421.36 1030.57 421 1031.97 420.28 1033.2C419.56 1034.43 418.493 1035.4 417.08 1036.12C415.667 1036.81 413.973 1037.16 412 1037.16C409.12 1037.16 406.747 1036.43 404.88 1034.96C403.04 1033.47 402.053 1031.33 401.92 1028.56H406.32C406.427 1029.97 406.973 1031.13 407.96 1032.04C408.947 1032.92 410.28 1033.36 411.96 1033.36C413.587 1033.36 414.84 1032.92 415.72 1032.04C416.6 1031.13 417.04 1029.97 417.04 1028.56C417.04 1026.69 416.44 1025.37 415.24 1024.6C414.067 1023.8 412.253 1023.4 409.8 1023.4H408.76V1019.64H409.84C412 1019.61 413.64 1019.25 414.76 1018.56C415.907 1017.87 416.48 1016.77 416.48 1015.28C416.48 1014 416.067 1012.99 415.24 1012.24C414.413 1011.47 413.24 1011.08 411.72 1011.08C410.227 1011.08 409.067 1011.47 408.24 1012.24C407.413 1012.99 406.92 1013.92 406.76 1015.04H402.32ZM425.59 1030.92V1027.48L439.03 1008.2H444.55V1026.96H448.27V1030.92H444.55V1037H440.07V1030.92H425.59ZM440.27 1012.84L430.83 1026.96H440.27V1012.84Z"/>
</mask>
<path d="M402.32 1015.04C402.48 1012.56 403.427 1010.63 405.16 1009.24C406.92 1007.85 409.16 1007.16 411.88 1007.16C413.747 1007.16 415.36 1007.49 416.72 1008.16C418.08 1008.83 419.107 1009.73 419.8 1010.88C420.493 1012.03 420.84 1013.32 420.84 1014.76C420.84 1016.41 420.4 1017.83 419.52 1019C418.64 1020.17 417.587 1020.96 416.36 1021.36V1021.52C417.933 1022 419.16 1022.88 420.04 1024.16C420.92 1025.41 421.36 1027.03 421.36 1029C421.36 1030.57 421 1031.97 420.28 1033.2C419.56 1034.43 418.493 1035.4 417.08 1036.12C415.667 1036.81 413.973 1037.16 412 1037.16C409.12 1037.16 406.747 1036.43 404.88 1034.96C403.04 1033.47 402.053 1031.33 401.92 1028.56H406.32C406.427 1029.97 406.973 1031.13 407.96 1032.04C408.947 1032.92 410.28 1033.36 411.96 1033.36C413.587 1033.36 414.84 1032.92 415.72 1032.04C416.6 1031.13 417.04 1029.97 417.04 1028.56C417.04 1026.69 416.44 1025.37 415.24 1024.6C414.067 1023.8 412.253 1023.4 409.8 1023.4H408.76V1019.64H409.84C412 1019.61 413.64 1019.25 414.76 1018.56C415.907 1017.87 416.48 1016.77 416.48 1015.28C416.48 1014 416.067 1012.99 415.24 1012.24C414.413 1011.47 413.24 1011.08 411.72 1011.08C410.227 1011.08 409.067 1011.47 408.24 1012.24C407.413 1012.99 406.92 1013.92 406.76 1015.04H402.32ZM425.59 1030.92V1027.48L439.03 1008.2H444.55V1026.96H448.27V1030.92H444.55V1037H440.07V1030.92H425.59ZM440.27 1012.84L430.83 1026.96H440.27V1012.84Z" fill="black"/>
<path d="M402.32 1015.04L402.021 1015.02L402 1015.34H402.32V1015.04ZM405.16 1009.24L404.974 1009L404.973 1009.01L405.16 1009.24ZM416.72 1008.16L416.588 1008.43L416.72 1008.16ZM419.8 1010.88L420.057 1010.72L419.8 1010.88ZM419.52 1019L419.76 1019.18V1019.18L419.52 1019ZM416.36 1021.36L416.267 1021.07L416.06 1021.14V1021.36H416.36ZM416.36 1021.52H416.06V1021.74L416.272 1021.81L416.36 1021.52ZM420.04 1024.16L419.793 1024.33L419.794 1024.33L420.04 1024.16ZM420.28 1033.2L420.021 1033.05L420.28 1033.2ZM417.08 1036.12L417.212 1036.39L417.216 1036.39L417.08 1036.12ZM404.88 1034.96L404.691 1035.19L404.695 1035.2L404.88 1034.96ZM401.92 1028.56V1028.26H401.605L401.62 1028.57L401.92 1028.56ZM406.32 1028.56L406.619 1028.54L406.598 1028.26H406.32V1028.56ZM407.96 1032.04L407.757 1032.26L407.76 1032.26L407.96 1032.04ZM415.72 1032.04L415.932 1032.25L415.935 1032.25L415.72 1032.04ZM415.24 1024.6L415.071 1024.85L415.077 1024.85L415.24 1024.6ZM408.76 1023.4H408.46V1023.7H408.76V1023.4ZM408.76 1019.64V1019.34H408.46V1019.64H408.76ZM409.84 1019.64V1019.94L409.844 1019.94L409.84 1019.64ZM414.76 1018.56L414.605 1018.3L414.602 1018.3L414.76 1018.56ZM415.24 1012.24L415.035 1012.46L415.039 1012.46L415.24 1012.24ZM408.24 1012.24L408.441 1012.46L408.445 1012.46L408.24 1012.24ZM406.76 1015.04V1015.34H407.02L407.057 1015.08L406.76 1015.04ZM402.32 1015.04L402.619 1015.06C402.775 1012.65 403.688 1010.8 405.347 1009.47L405.16 1009.24L404.973 1009.01C403.165 1010.45 402.185 1012.47 402.021 1015.02L402.32 1015.04ZM405.16 1009.24L405.346 1009.48C407.042 1008.14 409.213 1007.46 411.88 1007.46V1007.16V1006.86C409.108 1006.86 406.798 1007.57 404.974 1009L405.16 1009.24ZM411.88 1007.16V1007.46C413.711 1007.46 415.277 1007.79 416.588 1008.43L416.72 1008.16L416.852 1007.89C415.443 1007.2 413.782 1006.86 411.88 1006.86V1007.16ZM416.72 1008.16L416.588 1008.43C417.903 1009.07 418.883 1009.94 419.543 1011.04L419.8 1010.88L420.057 1010.72C419.33 1009.52 418.257 1008.58 416.852 1007.89L416.72 1008.16ZM419.8 1010.88L419.543 1011.04C420.206 1012.13 420.54 1013.37 420.54 1014.76H420.84H421.14C421.14 1013.27 420.78 1011.92 420.057 1010.72L419.8 1010.88ZM420.84 1014.76H420.54C420.54 1016.36 420.116 1017.71 419.28 1018.82L419.52 1019L419.76 1019.18C420.684 1017.95 421.14 1016.47 421.14 1014.76H420.84ZM419.52 1019L419.28 1018.82C418.432 1019.95 417.427 1020.7 416.267 1021.07L416.36 1021.36L416.453 1021.65C417.746 1021.22 418.848 1020.4 419.76 1019.18L419.52 1019ZM416.36 1021.36H416.06V1021.52H416.36H416.66V1021.36H416.36ZM416.36 1021.52L416.272 1021.81C417.785 1022.27 418.954 1023.11 419.793 1024.33L420.04 1024.16L420.287 1023.99C419.366 1022.65 418.082 1021.73 416.448 1021.23L416.36 1021.52ZM420.04 1024.16L419.794 1024.33C420.63 1025.52 421.06 1027.07 421.06 1029H421.36H421.66C421.66 1026.98 421.21 1025.3 420.286 1023.99L420.04 1024.16ZM421.36 1029H421.06C421.06 1030.53 420.711 1031.87 420.021 1033.05L420.28 1033.2L420.539 1033.35C421.289 1032.07 421.66 1030.62 421.66 1029H421.36ZM420.28 1033.2L420.021 1033.05C419.334 1034.22 418.312 1035.16 416.944 1035.85L417.08 1036.12L417.216 1036.39C418.674 1035.64 419.786 1034.63 420.539 1033.35L420.28 1033.2ZM417.08 1036.12L416.948 1035.85C415.585 1036.52 413.939 1036.86 412 1036.86V1037.16V1037.46C414.008 1037.46 415.749 1037.11 417.212 1036.39L417.08 1036.12ZM412 1037.16V1036.86C409.172 1036.86 406.869 1036.14 405.065 1034.72L404.88 1034.96L404.695 1035.2C406.625 1036.71 409.068 1037.46 412 1037.46V1037.16ZM404.88 1034.96L405.069 1034.73C403.307 1033.3 402.35 1031.25 402.22 1028.55L401.92 1028.56L401.62 1028.57C401.757 1031.42 402.773 1033.64 404.691 1035.19L404.88 1034.96ZM401.92 1028.56V1028.86H406.32V1028.56V1028.26H401.92V1028.56ZM406.32 1028.56L406.021 1028.58C406.133 1030.07 406.711 1031.3 407.757 1032.26L407.96 1032.04L408.163 1031.82C407.236 1030.97 406.72 1029.88 406.619 1028.54L406.32 1028.56ZM407.96 1032.04L407.76 1032.26C408.816 1033.21 410.227 1033.66 411.96 1033.66V1033.36V1033.06C410.333 1033.06 409.078 1032.63 408.16 1031.82L407.96 1032.04ZM411.96 1033.36V1033.66C413.641 1033.66 414.98 1033.2 415.932 1032.25L415.72 1032.04L415.508 1031.83C414.7 1032.64 413.533 1033.06 411.96 1033.06V1033.36ZM415.72 1032.04L415.935 1032.25C416.876 1031.28 417.34 1030.04 417.34 1028.56H417.04H416.74C416.74 1029.91 416.324 1030.99 415.505 1031.83L415.72 1032.04ZM417.04 1028.56H417.34C417.34 1026.63 416.714 1025.19 415.403 1024.35L415.24 1024.6L415.077 1024.85C416.166 1025.55 416.74 1026.76 416.74 1028.56H417.04ZM415.24 1024.6L415.409 1024.35C414.161 1023.5 412.275 1023.1 409.8 1023.1V1023.4V1023.7C412.232 1023.7 413.972 1024.1 415.071 1024.85L415.24 1024.6ZM409.8 1023.4V1023.1H408.76V1023.4V1023.7H409.8V1023.4ZM408.76 1023.4H409.06V1019.64H408.76H408.46V1023.4H408.76ZM408.76 1019.64V1019.94H409.84V1019.64V1019.34H408.76V1019.64ZM409.84 1019.64L409.844 1019.94C412.027 1019.91 413.731 1019.55 414.918 1018.82L414.76 1018.56L414.602 1018.3C413.549 1018.96 411.973 1019.31 409.836 1019.34L409.84 1019.64ZM414.76 1018.56L414.915 1018.82C416.163 1018.06 416.78 1016.86 416.78 1015.28H416.48H416.18C416.18 1016.68 415.65 1017.67 414.605 1018.3L414.76 1018.56ZM416.48 1015.28H416.78C416.78 1013.93 416.34 1012.83 415.441 1012.02L415.24 1012.24L415.039 1012.46C415.793 1013.14 416.18 1014.07 416.18 1015.28H416.48ZM415.24 1012.24L415.445 1012.02C414.546 1011.18 413.289 1010.78 411.72 1010.78V1011.08V1011.38C413.191 1011.38 414.281 1011.75 415.035 1012.46L415.24 1012.24ZM411.72 1011.08V1010.78C410.176 1010.78 408.933 1011.18 408.035 1012.02L408.24 1012.24L408.445 1012.46C409.2 1011.75 410.278 1011.38 411.72 1011.38V1011.08ZM408.24 1012.24L408.039 1012.02C407.159 1012.81 406.633 1013.81 406.463 1015L406.76 1015.04L407.057 1015.08C407.207 1014.03 407.667 1013.16 408.441 1012.46L408.24 1012.24ZM406.76 1015.04V1014.74H402.32V1015.04V1015.34H406.76V1015.04ZM425.59 1030.92H425.29V1031.22H425.59V1030.92ZM425.59 1027.48L425.344 1027.31L425.29 1027.39V1027.48H425.59ZM439.03 1008.2V1007.9H438.873L438.784 1008.03L439.03 1008.2ZM444.55 1008.2H444.85V1007.9H444.55V1008.2ZM444.55 1026.96H444.25V1027.26H444.55V1026.96ZM448.27 1026.96H448.57V1026.66H448.27V1026.96ZM448.27 1030.92V1031.22H448.57V1030.92H448.27ZM444.55 1030.92V1030.62H444.25V1030.92H444.55ZM444.55 1037V1037.3H444.85V1037H444.55ZM440.07 1037H439.77V1037.3H440.07V1037ZM440.07 1030.92H440.37V1030.62H440.07V1030.92ZM440.27 1012.84H440.57V1011.85L440.021 1012.67L440.27 1012.84ZM430.83 1026.96L430.581 1026.79L430.269 1027.26H430.83V1026.96ZM440.27 1026.96V1027.26H440.57V1026.96H440.27ZM425.59 1030.92H425.89V1027.48H425.59H425.29V1030.92H425.59ZM425.59 1027.48L425.836 1027.65L439.276 1008.37L439.03 1008.2L438.784 1008.03L425.344 1027.31L425.59 1027.48ZM439.03 1008.2V1008.5H444.55V1008.2V1007.9H439.03V1008.2ZM444.55 1008.2H444.25V1026.96H444.55H444.85V1008.2H444.55ZM444.55 1026.96V1027.26H448.27V1026.96V1026.66H444.55V1026.96ZM448.27 1026.96H447.97V1030.92H448.27H448.57V1026.96H448.27ZM448.27 1030.92V1030.62H444.55V1030.92V1031.22H448.27V1030.92ZM444.55 1030.92H444.25V1037H444.55H444.85V1030.92H444.55ZM444.55 1037V1036.7H440.07V1037V1037.3H444.55V1037ZM440.07 1037H440.37V1030.92H440.07H439.77V1037H440.07ZM440.07 1030.92V1030.62H425.59V1030.92V1031.22H440.07V1030.92ZM440.27 1012.84L440.021 1012.67L430.581 1026.79L430.83 1026.96L431.079 1027.13L440.519 1013.01L440.27 1012.84ZM430.83 1026.96V1027.26H440.27V1026.96V1026.66H430.83V1026.96ZM440.27 1026.96H440.57V1012.84H440.27H439.97V1026.96H440.27Z" fill="black" mask="url(#path-11-outside-2_97_34)"/>
<path d="M418.194 542.527C506.468 539.172 580.797 607.911 584.341 696.177C587.884 784.443 519.307 858.92 431.048 862.654C342.521 866.398 267.768 797.566 264.213 709.031C260.659 620.496 329.653 545.891 418.194 542.527Z" fill="black"/>
<path d="M399.235 556.568C406.696 554.98 414.79 554.819 422.395 554.806C451.626 554.759 478.367 561.518 503.036 577.494C536.311 599.044 561.294 634.982 569.553 673.782C573.252 691.155 573.618 708.056 571.302 725.633C570.874 728.874 570.563 733.206 569.332 736.195C568.673 740.666 567.195 744.965 565.741 749.224C561.552 761.501 556.371 772.719 549.222 783.581C547.951 785.513 546.289 788.496 544.568 789.995C542.251 793.761 539.068 797.338 536.129 800.642C525.146 812.986 512.695 823.527 498.285 831.671C463.371 850.997 422.244 855.769 383.833 844.952C349.43 835.173 315.503 809.775 297.938 778.419C296.582 777.004 295.47 774.451 294.505 772.728C287.784 760.726 282.397 747.652 279.377 734.206C272.505 703.606 275.158 670.229 288.043 641.573C289.97 637.286 291.847 632.949 294.368 628.969C295.759 624.605 299.674 620.357 301.979 616.352C301.783 613.536 305.715 610.862 306.992 608.449C307.887 606.759 308.805 605.258 310.038 603.784C320.868 590.832 337.569 578.174 352.707 570.738C354.752 569.732 356.642 568.24 358.984 568.109C359.102 568.102 359.22 568.105 359.339 568.104C361.677 566.078 366.39 564.087 369.49 564.203C379.016 561.1 389.182 557.183 399.235 556.568Z" fill="url(#paint0_linear_97_34)"/>
<path d="M369.49 564.204C379.015 561.1 389.181 557.183 399.235 556.568L399.489 557.086C390.547 557.493 381.088 561.231 372.565 563.792C373.19 564.07 372.838 564.036 373.276 563.934C374.858 563.568 377.371 564.712 378.709 565.553C379.287 565.916 379.741 566.392 380.206 566.887C381.402 568.167 383.783 570.828 383.59 572.674C383.525 573.305 382.87 574.102 382.515 574.62C387.352 574.442 393.046 573.061 397.705 574.617C398.235 574.795 398.764 574.969 399.29 575.155C405.416 576.401 410.743 579.171 414.285 584.468C418.435 590.676 418.603 598.467 417.145 605.56C413.337 624.077 397.613 642.196 382.051 652.371C366.601 662.475 346.083 670.823 327.326 666.785C320.53 665.322 314.915 662.226 311.116 656.282C308.102 651.567 307.306 646.865 307.65 641.345C306.717 635.606 311.132 631.941 310.867 628.599C310.767 627.323 306.553 622.889 305.665 621.128C305.131 620.067 305.444 618.798 305.083 617.687C304.811 616.847 304.695 616.439 304.775 615.527C304.828 614.915 304.889 614.473 304.748 613.866C301.333 617.647 298.698 622.804 296.045 627.154C295.551 627.965 295.321 628.736 294.367 628.97C295.759 624.605 299.673 620.357 301.979 616.353C301.783 613.537 305.714 610.862 306.992 608.449C307.887 606.759 308.805 605.258 310.038 603.784C320.867 590.832 337.569 578.174 352.706 570.738C354.752 569.732 356.642 568.24 358.984 568.109C359.102 568.103 359.219 568.105 359.338 568.104C361.677 566.078 366.389 564.087 369.49 564.204Z" fill="#FCFDFC"/>
<path d="M369.49 564.204C379.015 561.1 389.181 557.183 399.235 556.568L399.489 557.086C390.547 557.493 381.088 561.231 372.565 563.792C373.19 564.07 372.838 564.036 373.276 563.934C374.858 563.568 377.371 564.712 378.709 565.553C379.287 565.916 379.741 566.392 380.206 566.887C381.402 568.167 383.783 570.828 383.59 572.674C383.525 573.305 382.87 574.102 382.515 574.62C387.352 574.442 393.046 573.061 397.705 574.617C398.235 574.795 398.764 574.969 399.29 575.155C394.093 574.898 388.926 574.629 383.755 575.436C365.862 578.225 346.096 591.258 332.936 603.185C322.09 613.016 310.3 626.532 307.65 641.345C306.717 635.606 311.132 631.941 310.867 628.599C310.767 627.323 306.553 622.889 305.665 621.128C305.131 620.067 305.444 618.798 305.083 617.687C304.811 616.847 304.695 616.439 304.775 615.527C304.828 614.915 304.889 614.473 304.748 613.866C301.333 617.647 298.698 622.804 296.045 627.154C295.551 627.965 295.321 628.736 294.367 628.97C295.759 624.605 299.673 620.357 301.979 616.353C301.783 613.537 305.714 610.862 306.992 608.449C307.887 606.759 308.805 605.258 310.038 603.784C320.867 590.832 337.569 578.174 352.706 570.738C354.752 569.732 356.642 568.24 358.984 568.109C359.102 568.103 359.219 568.105 359.338 568.104C361.677 566.078 366.389 564.087 369.49 564.204Z" fill="#FBEB59"/>
<path d="M301.979 616.352C301.783 613.537 305.715 610.862 306.992 608.449C307.887 606.759 308.805 605.258 310.038 603.784C320.868 590.832 337.569 578.174 352.706 570.738C354.752 569.732 356.642 568.24 358.984 568.109C359.102 568.102 359.22 568.105 359.339 568.104C361.677 566.078 366.389 564.087 369.49 564.204C348.088 573.926 330.427 584.166 314.144 601.437C312.206 603.495 302.649 615.94 301.979 616.352Z" fill="black"/>
<path d="M297.938 778.419C298.015 778.47 298.093 778.52 298.169 778.573C301.566 780.952 304.433 787.553 307.146 791.002C312.946 798.373 319.002 805.497 325.976 811.787C336.991 821.57 349.35 829.723 362.68 835.998C364.872 837.057 367.112 838.126 369.397 838.971C371.03 839.572 372.717 839.422 374.171 840.381L376.162 841.673C377.051 841.358 377.717 840.947 378.491 840.411C382.453 840.372 387.05 839.731 390.941 840.347C393.52 840.755 396.265 842.146 398.743 843.012C407.419 846.045 413.252 844.698 421.563 841.41C422.523 840.387 422.434 838.48 424.081 838.394C427.098 838.233 430.803 838.654 433.797 839.163C435.348 838.514 436.285 836.87 437.719 836.282C439.765 835.442 444.599 837.45 445.862 835.249C443.843 834.576 430.089 837.761 426.241 837.158C424.773 836.929 422.235 833.781 421.639 832.465C421.189 831.471 421.158 830.143 421.524 829.127L421.91 828.853C422.031 830.841 422.043 832.442 423.449 834.005C425.003 835.731 427.145 836.236 429.384 836.294C433.883 836.411 438.72 835.399 443.158 834.716C468.167 830.875 490.346 819.986 509.29 803.272C512.848 800.075 516.224 796.681 519.405 793.108C521.065 791.21 522.633 788.941 524.48 787.241L524.8 786.951C524.688 790.922 512.314 799.485 512.194 802.23C513.335 802.619 515.312 802.949 516.432 802.401C518.76 801.265 520.149 797.961 521.694 797.169C522.717 796.643 524.586 796.84 525.763 796.407C527.591 795.736 531.749 791.872 533.539 790.451C533.722 791.022 533.537 791.262 533.372 791.825L533.635 791.639C534.316 791.162 534.936 790.801 535.686 790.445C536.757 789.936 537.306 789.093 537.97 788.155L538.694 787.887L539.214 788.258L539.323 789.76C540.366 789.222 541.64 788.338 542.836 788.423C543.144 788.836 543.25 789.13 543.365 789.633L543.942 788.828L544.18 789.366L543.962 789.784L544.567 789.995C542.251 793.762 539.068 797.339 536.129 800.642C525.145 812.986 512.695 823.527 498.284 831.672C463.371 850.997 422.243 855.769 383.832 844.952C349.43 835.173 315.502 809.775 297.938 778.419Z" fill="#DB9103"/>
<path d="M421.91 828.853C421.948 828.783 421.986 828.712 422.026 828.641C422.891 827.106 423.823 825.933 425.483 825.246C430.021 823.367 435.881 823.767 440.745 823.153C445.768 822.519 450.89 821.503 455.772 820.149C463.133 818.108 470.458 814.894 477.202 811.324C504.632 796.941 525.548 772.646 535.696 743.384C537.105 739.371 538.528 735.281 539.443 731.121C540.425 726.659 540.019 720.535 542.393 716.621C543.167 715.344 544.29 714.599 545.747 714.298C547.217 714.006 548.742 714.311 549.987 715.148C551.287 716.009 552.302 717.467 552.529 719.027C552.946 721.895 551.769 726.217 551.263 729.112C547.451 750.913 537.64 769.244 524.8 786.952L524.48 787.241C522.633 788.941 521.065 791.21 519.405 793.108C516.225 796.681 512.848 800.075 509.29 803.273C490.346 819.986 468.167 830.875 443.158 834.716C438.72 835.399 433.883 836.411 429.384 836.294C427.145 836.236 425.003 835.731 423.449 834.005C422.043 832.442 422.032 830.841 421.91 828.853Z" fill="black"/>
<path d="M544.18 789.366C545.864 787.735 545.695 785.785 546.786 783.985C547.496 782.816 549.178 782.423 549.936 781.262C554.125 774.839 557.619 767.971 560.751 760.976C563.11 755.705 565.004 749.729 566.691 744.203C567.373 741.974 567.723 739.275 568.647 737.167C568.826 736.758 569.039 736.526 569.332 736.195C568.673 740.666 567.195 744.965 565.741 749.224C561.552 761.501 556.371 772.719 549.222 783.581C547.951 785.513 546.289 788.496 544.567 789.995L543.962 789.784L544.18 789.366Z" fill="#DB9103"/>
<path d="M308.993 671.937C316.204 670.548 323.177 675.262 324.577 682.469C325.976 689.678 321.273 696.658 314.067 698.068C306.844 699.481 299.847 694.766 298.445 687.543C297.043 680.319 301.769 673.329 308.993 671.937Z" fill="#FCFDFC"/>
<path d="M423.398 867.501C426.019 867.227 428.644 867.291 431.224 867.839C437.02 869.068 441.78 872.381 444.978 877.365C446.948 880.402 448.228 883.834 448.729 887.42C449.208 891.063 449.008 894.828 448.988 898.499L448.883 915.776C448.874 922.216 448.906 928.656 448.978 935.096C449.014 939.872 449.444 945.091 448.373 949.769C447.021 955.675 443.308 961.401 438.069 964.564C435.759 965.958 431.507 968.141 428.768 967.448C428.352 967.761 427.985 967.993 427.464 968.079C423.095 968.805 417.17 966.809 413.542 964.416C408.878 961.337 404.713 956.174 403.626 950.602C402.685 945.777 403.031 940.677 403.044 935.777L403.04 917.836L403.038 899.46C403.04 895.241 402.858 890.885 403.426 886.697C403.921 883.036 404.783 880.195 406.888 877.145C410.96 871.244 416.546 868.804 423.398 867.501Z" fill="black"/>
<path d="M414.182 947.205C413.631 943.262 413.936 938.912 413.931 934.924L413.915 912.616L413.885 895.726C413.882 892.728 413.563 889.225 414.14 886.295C414.684 883.531 416.813 880.988 419.072 879.392C422.209 877.175 425.083 876.812 428.821 877.437C428.953 878.388 429.089 879.311 429.306 880.246C429.467 880.938 429.435 881.262 429.205 881.927C428.719 882.273 428.389 882.473 427.803 882.604C429.52 882.774 431.627 883.767 432.72 885.153C432.807 885.264 432.865 885.395 432.937 885.517C433.957 886.265 434.845 886.797 436.154 886.581C436.78 886.478 437.19 886.236 437.706 885.883C438.223 890.341 438.019 894.926 438.027 899.41L438.057 920.852L438.084 938.146C438.083 941.38 438.29 944.89 437.805 948.087C437.519 949.962 436.563 951.745 435.384 953.216C433.288 955.829 430.218 957.74 426.842 958.038C423.642 958.321 420.477 956.797 418.111 954.716C415.788 952.675 414.604 950.251 414.182 947.205Z" fill="#FECE03"/>
<path d="M432.937 885.517C433.957 886.265 434.845 886.797 436.154 886.581C436.78 886.478 437.19 886.236 437.706 885.883C438.223 890.341 438.019 894.925 438.027 899.41L438.057 920.851L438.084 938.145C438.083 941.38 438.29 944.89 437.804 948.087C437.519 949.962 436.563 951.745 435.384 953.216C433.288 955.829 430.217 957.74 426.842 958.038C423.641 958.321 420.476 956.797 418.11 954.716C415.788 952.675 414.604 950.251 414.182 947.205C415.119 947.862 415.895 948.169 417.062 947.968C417.819 947.837 418.521 947.609 419.208 947.27C420.172 947.875 420.907 948.929 421.795 949.653C423.12 950.735 424.519 951.615 426.307 951.348C428.719 950.989 431.108 948.87 431.919 946.598C433.176 943.075 432.341 936.042 432.314 932.123C432.277 926.985 431.919 887.128 432.361 886.261C432.504 885.981 432.744 885.765 432.937 885.517Z" fill="#DB9103"/>
<path d="M414.182 947.205C413.631 943.262 413.936 938.912 413.931 934.924L413.915 912.616L413.885 895.726C413.882 892.728 413.563 889.225 414.14 886.295C414.684 883.531 416.813 880.988 419.072 879.392C422.209 877.175 425.083 876.812 428.821 877.437C428.953 878.388 429.089 879.311 429.306 880.246C429.467 880.938 429.435 881.262 429.205 881.927C428.719 882.273 428.389 882.473 427.803 882.604C425.516 883.461 422.308 884.234 421.247 886.677C419.772 890.076 420.363 926.839 420.405 933.718C420.428 937.497 420.987 941.95 420.36 945.638C420.22 946.466 419.931 946.767 419.265 947.247C419.248 947.259 419.226 947.263 419.208 947.271C418.521 947.609 417.819 947.837 417.062 947.968C415.895 948.169 415.119 947.862 414.182 947.205Z" fill="url(#paint1_linear_97_34)"/>
<path d="M428.821 877.437C433.16 879.108 435.652 881.77 437.706 885.883C437.19 886.236 436.78 886.478 436.154 886.581C434.845 886.797 433.957 886.265 432.937 885.517C432.865 885.395 432.807 885.264 432.72 885.153C431.627 883.767 429.52 882.774 427.803 882.604C428.389 882.473 428.719 882.273 429.205 881.926C429.435 881.262 429.467 880.938 429.306 880.246C429.089 879.311 428.953 878.387 428.821 877.437Z" fill="#FBEB59"/>
<path d="M423.362 439.185C428.466 438.413 433.932 440.125 438.179 442.957C443.631 446.593 447.233 452.465 448.436 458.871C449.268 463.297 448.963 468.063 448.95 472.556L448.856 493.254L448.941 509.167C448.962 512.402 449.181 515.821 448.718 519.027C448.207 522.764 446.804 526.322 444.627 529.402C441.059 534.443 435.597 537.475 429.602 538.518C424.08 538.87 418.623 538.441 413.848 535.424C408.77 532.216 404.849 527.087 403.583 521.172C402.635 516.738 403.04 511.774 403.048 507.252L403.085 487.615C403.081 479.258 402.288 466.831 403.35 458.96C403.835 455.353 405.023 452.148 407.049 449.121C410.988 443.237 416.543 440.485 423.362 439.185Z" fill="black"/>
<path d="M413.912 517.629C414.038 504.278 413.884 490.912 413.872 477.56C413.867 472.09 413.12 462.742 414.437 457.75C415.215 454.796 417.406 452.463 420.04 451.023C423.218 449.286 426.176 449.104 429.632 450.088C429.901 451.446 430.305 452.805 430.007 454.18C429.56 454.67 429.483 454.796 428.856 454.977C430.415 455.718 432.589 456.729 433.213 458.448C434.252 459.097 435.533 459.896 436.786 459.734C437.616 459.086 437.521 458.891 437.713 457.891C438.243 462.931 438.094 468.007 438.09 473.067L438.065 494.217C438.057 501.434 438.761 512.513 437.735 519.264C437.433 521.261 436.731 522.71 435.448 524.261C433.376 526.764 430.365 528.305 427.123 528.522C423.871 528.75 420.398 527.79 417.956 525.582C415.601 523.451 414.433 520.704 413.912 517.629Z" fill="#FECE03"/>
<path d="M437.713 457.892C438.243 462.931 438.094 468.007 438.09 473.067L438.065 494.217C438.057 501.434 438.761 512.513 437.736 519.264C437.433 521.261 436.731 522.71 435.448 524.261C433.376 526.764 430.366 528.305 427.123 528.522C423.871 528.75 420.398 527.79 417.957 525.582C415.601 523.452 414.433 520.704 413.913 517.629C414.888 517.417 415.89 517.288 416.876 517.127C420.175 518.681 422.036 522.705 426.182 522.642C428.762 522.603 430.529 520.775 432.14 518.996C432.763 512.318 432.448 505.386 432.403 498.68C432.331 487.911 432.241 477.171 432.42 466.401C432.449 464.676 432.042 460.75 432.656 459.224C432.775 458.929 433.027 458.707 433.213 458.448C434.253 459.097 435.533 459.896 436.786 459.734C437.616 459.086 437.521 458.891 437.713 457.892Z" fill="#DB9103"/>
<path d="M413.912 517.629C414.038 504.278 413.884 490.912 413.872 477.56C413.867 472.09 413.12 462.742 414.437 457.75C415.215 454.796 417.406 452.463 420.04 451.023C423.218 449.286 426.176 449.104 429.632 450.088C429.901 451.446 430.305 452.805 430.007 454.18C429.56 454.67 429.483 454.796 428.856 454.977C426.172 455.412 423.394 456.004 421.723 458.389C420.908 459.552 420.656 460.884 420.521 462.268C420.054 467.094 420.486 472.253 420.516 477.107C420.566 485.431 420.456 493.758 420.562 502.081C420.606 505.626 421.454 511.413 420.222 514.651C419.664 516.116 418.285 516.719 416.876 517.127C415.89 517.288 414.888 517.417 413.912 517.629Z" fill="#FCFDFC"/>
<path d="M429.632 450.088C433.156 451.387 435.963 454.659 437.713 457.892C437.521 458.891 437.616 459.086 436.786 459.734C435.533 459.896 434.252 459.097 433.212 458.448C432.589 456.729 430.415 455.718 428.856 454.977C429.482 454.796 429.56 454.67 430.007 454.18C430.305 452.805 429.901 451.446 429.632 450.088Z" fill="#FBEB59"/>
<path d="M333.058 844.933C337.886 844.353 342.396 845.058 346.583 847.608C351.786 850.777 355.987 855.819 357.374 861.814C358.146 865.144 358.236 869.074 357.348 872.391C355.335 879.905 345.325 893.17 340.679 900.494C335.398 908.82 324.726 926.856 317.362 932.098C314.298 934.279 311.141 935.246 307.506 936.059C302.223 936.262 297.527 936.18 292.839 933.385C288.137 930.583 284.421 925.901 283.08 920.57C281.242 913.251 284.035 906.103 287.788 899.902C293.278 890.828 299.523 882.199 305.407 873.378C310.097 866.35 315.36 856.253 321.508 850.663C324.961 847.524 328.583 846.042 333.058 844.933Z" fill="black"/>
<path d="M292.851 916.052C292.841 915.124 292.807 914.121 292.998 913.21C293.466 910.959 295.118 908.249 296.308 906.261C301.24 898.017 307.043 890.029 312.386 882.03C317.101 874.967 321.563 867.537 326.629 860.734C327.6 859.427 328.636 858.033 330.019 857.135C333.13 855.113 336.294 854.812 339.83 855.581C341.992 856.422 343.471 857.65 345.093 859.273L345.737 860.211C346.387 861.291 347.041 862.328 347.492 863.51C347.836 865.616 348.14 867.634 347.334 869.693C345.782 873.652 342.849 877.523 340.526 881.092C336.218 887.7 331.861 894.276 327.455 900.819C323.687 906.454 320.215 912.428 316.252 917.905C313.613 921.554 311.001 924.93 306.26 925.602C303.176 926.039 299.764 925.256 297.294 923.33C295.094 921.615 293.433 918.773 292.851 916.052Z" fill="#FECE03"/>
<path d="M292.851 916.052C292.841 915.124 292.807 914.121 292.998 913.21C293.466 910.959 295.118 908.249 296.308 906.261C301.24 898.017 307.043 890.029 312.386 882.03C317.101 874.967 321.563 867.537 326.629 860.734C327.6 859.427 328.636 858.033 330.019 857.135C333.13 855.113 336.294 854.812 339.83 855.581C339.964 856.895 340.31 858.335 339.675 859.545C339.04 860.076 338.503 860.043 337.718 860.076C335.47 861.252 333.584 862.473 331.965 864.459C329.222 867.821 327.362 871.894 324.968 875.501L305.553 904.631C303.103 908.35 298.868 912.816 297.619 917.107C297.598 917.182 297.585 917.258 297.568 917.333C297.459 917.403 297.362 917.5 297.241 917.541C296.188 917.893 293.903 916.498 292.851 916.052Z" fill="#FCFDFC"/>
<path d="M347.492 863.51C347.836 865.616 348.141 867.634 347.334 869.693C345.783 873.652 342.849 877.523 340.526 881.092C336.218 887.699 331.862 894.275 327.456 900.819C323.688 906.454 320.215 912.427 316.252 917.905C313.613 921.554 311.001 924.929 306.26 925.602C303.176 926.038 299.764 925.256 297.295 923.33C295.095 921.615 293.434 918.773 292.852 916.051C293.903 916.497 296.188 917.893 297.241 917.541C297.363 917.499 297.459 917.403 297.568 917.333C299.76 917.591 302.301 919.098 304.623 919.566C307.127 918.882 308.82 917.79 310.626 915.947C313.984 912.525 316.315 908.077 318.948 904.107L338.245 875.238C340.512 871.887 342.816 867.528 345.396 864.537C346.014 864.55 346.479 864.49 347.075 864.326L347.492 863.51Z" fill="url(#paint2_linear_97_34)"/>
<path d="M339.83 855.581C341.992 856.422 343.471 857.65 345.093 859.273L345.737 860.21C346.387 861.291 347.041 862.328 347.492 863.51L347.075 864.326C346.478 864.49 346.014 864.55 345.395 864.537L343.86 863.136C343.066 862.637 342.305 862.087 341.536 861.55C340.259 860.887 339.15 860.353 337.718 860.076C338.503 860.043 339.04 860.076 339.675 859.545C340.31 858.335 339.964 856.895 339.83 855.581Z" fill="#FBEB59"/>
<path d="M345.737 860.21C346.387 861.291 347.041 862.328 347.492 863.51L347.075 864.326C346.478 864.49 346.014 864.55 345.396 864.537L343.86 863.136C344.895 862.376 345.236 861.347 345.737 860.21Z" fill="#FBEB59"/>
<path d="M341.536 861.55C342.794 860.861 343.739 859.831 345.093 859.273L345.737 860.211C345.236 861.347 344.894 862.377 343.86 863.136C343.066 862.637 342.305 862.087 341.536 861.55Z" fill="#FBEB59"/>
<path d="M544.904 470.889C549.905 470.282 554.777 471.109 559.091 473.763C564.059 476.818 567.948 481.987 569.269 487.689C571.215 496.095 567.997 501.906 563.662 508.805C557.36 518.837 550.555 528.582 543.917 538.393C540.297 543.743 536.82 550.655 532.024 554.951C528.677 557.948 524.32 559.694 519.995 560.682C513.868 561.252 508.579 560.411 503.351 557.026C498.767 554.06 495.283 549.072 494.204 543.698C493.592 540.657 493.733 536.847 494.685 533.891C497.308 525.763 504.769 516.364 509.607 509.197L526.261 484.438C531.575 476.574 535.441 472.722 544.904 470.889Z" fill="black"/>
<path d="M503.943 540.076C503.867 539.371 503.885 538.695 504.063 538.007C505.465 532.564 522.611 508.892 526.923 502.537C530.312 497.542 533.474 492.246 537.151 487.465C538.451 485.774 539.994 483.715 541.863 482.625C545.049 480.769 547.83 480.986 551.245 481.799C554.194 482.89 556.632 484.733 558.01 487.647C558.574 488.837 558.791 489.989 558.969 491.278C559.794 495.076 557.69 498.857 555.693 501.945C551.067 509.097 545.961 515.945 541.229 523.028L530.788 538.448C528.835 541.277 527.096 544.247 524.74 546.77C523.053 548.577 521.502 549.834 519.016 550.396C515.765 551.131 512.044 550.543 509.221 548.755C506.66 547.133 504.648 544.438 504.059 541.436C503.971 540.989 503.949 540.531 503.943 540.076Z" fill="#FECE03"/>
<path d="M503.943 540.076C503.867 539.371 503.885 538.695 504.063 538.007C505.465 532.564 522.611 508.892 526.923 502.537C530.312 497.542 533.474 492.246 537.151 487.465C538.451 485.774 539.994 483.715 541.863 482.625C545.049 480.769 547.83 480.986 551.245 481.799C551.407 483.011 551.81 484.465 551.303 485.612L550.754 486.109C548.017 486.734 546.26 487.843 544.314 489.84C539.423 494.862 535.591 501.564 531.748 507.398C528.32 512.603 524.718 517.709 521.265 522.906C519.246 525.944 516.842 528.726 514.918 531.825C512.887 535.097 511.037 538.839 508.243 541.53C506.939 541.477 505.203 540.551 503.943 540.076Z" fill="#FCFDFC"/>
<path d="M555.273 490.442C556.467 491.207 557.563 491.359 558.969 491.278C559.794 495.076 557.69 498.856 555.693 501.945C551.067 509.097 545.961 515.945 541.229 523.028L530.788 538.447C528.835 541.276 527.096 544.246 524.74 546.769C523.053 548.577 521.502 549.834 519.016 550.396C515.765 551.131 512.044 550.543 509.221 548.755C506.66 547.133 504.648 544.437 504.059 541.436C503.971 540.989 503.949 540.531 503.943 540.076C505.203 540.55 506.939 541.476 508.243 541.53C508.873 541.924 509.515 542.299 510.167 542.656C512.735 544.042 515.844 544.784 518.673 543.766C520.228 543.208 521.844 541.109 522.87 539.836C527.581 534.001 531.452 527.51 535.733 521.372L546.468 505.876C548.056 503.595 549.856 501.371 551.314 499.009C552.994 496.285 553.974 493.332 555.273 490.442Z" fill="#DB9103"/>
<path d="M551.244 481.799C554.194 482.89 556.631 484.733 558.01 487.647C558.574 488.837 558.791 489.989 558.969 491.278C557.563 491.36 556.467 491.207 555.273 490.443C555.263 490.347 555.278 490.246 555.244 490.155C554.668 488.603 552.088 487.028 550.754 486.109L551.303 485.612C551.809 484.465 551.407 483.011 551.244 481.799Z" fill="#FBEB59"/>
<path d="M511.788 844.908C517.205 844.474 521.69 844.885 526.435 847.671C529.118 849.245 531.27 851.369 533.235 853.767C538.19 859.813 542.324 866.907 546.731 873.393C553.44 883.266 560.802 893.219 566.629 903.633C567.747 905.632 568.749 907.792 569.309 910.021C570.582 915.092 569.411 921.488 566.671 925.895C563.197 931.482 558.184 934.343 551.939 935.838C547.392 936.898 541.735 935.692 537.662 933.554C534.671 931.983 532.402 929.939 530.233 927.367C525.172 921.364 521.064 914.142 516.69 907.601C510.423 898.227 503.647 888.955 498.054 879.166C496.606 876.631 495.301 873.858 494.467 871.057C493.002 866.14 494.157 860.252 496.629 855.859C499.998 849.872 505.331 846.668 511.788 844.908Z" fill="black"/>
<path d="M503.952 865.435C503.846 864.726 503.957 864.032 504.156 863.348C505.024 860.276 507.127 857.701 509.963 856.234C512.442 854.945 514.666 854.528 517.359 855.346C519.844 856.038 521.634 857.366 523.353 859.245C525.789 861.909 527.794 865.155 529.837 868.131C533.423 873.369 536.982 878.625 540.513 883.9C546.013 892.019 552.481 900.287 557.274 908.781C557.791 909.699 558.222 910.662 558.626 911.635C558.789 912.466 558.961 913.314 559.006 914.161C559.162 917.088 558.061 920.182 556.035 922.333C554.195 924.287 551.404 925.209 548.772 925.331C546.052 925.457 542.846 924.804 540.803 922.916C535.711 918.208 530.042 907.895 525.943 901.784L512.331 881.335C510.045 877.844 507.532 874.39 505.565 870.707C504.619 868.934 504.039 867.461 503.952 865.435Z" fill="#FECE03"/>
<path d="M503.951 865.436C505.026 866.087 506.115 866.928 507.391 867.049C507.774 866.89 508.175 866.755 508.526 866.533C510.312 867.603 511.228 870.711 512.4 872.446C514.58 875.675 517.014 878.727 519.191 881.974C523.142 887.867 539.957 914.486 544.284 917.724C545.925 918.952 548.713 919.418 550.684 918.884C553.324 918.169 553.971 914.358 555.895 912.726C556.71 912.032 557.867 912.454 558.626 911.635C558.789 912.467 558.961 913.314 559.006 914.162C559.162 917.089 558.061 920.182 556.035 922.333C554.195 924.287 551.404 925.209 548.772 925.331C546.052 925.458 542.846 924.804 540.803 922.917C535.711 918.208 530.042 907.896 525.943 901.784L512.331 881.335C510.045 877.845 507.532 874.391 505.565 870.708C504.618 868.934 504.039 867.461 503.951 865.436Z" fill="#DB9103"/>
<path d="M503.952 865.435C503.846 864.726 503.957 864.032 504.156 863.348C505.024 860.276 507.127 857.701 509.963 856.234C512.442 854.945 514.666 854.528 517.359 855.346C517.56 856.557 517.746 857.771 517.917 858.987C513.483 861.026 511.208 862.46 508.526 866.533C508.175 866.755 507.774 866.89 507.391 867.049C506.115 866.928 505.027 866.087 503.952 865.435Z" fill="#FCFDFC"/>
<path d="M300.866 470.889C306.047 470.255 311.064 471.136 315.554 473.84C318.402 475.556 320.887 477.838 322.99 480.405C326.982 485.278 330.095 491.181 333.649 496.419C340.535 506.564 348.506 517.324 354.609 527.818C355.726 529.737 356.655 531.76 357.185 533.921C358.5 539.288 357.729 545.281 354.817 550.006C351.265 555.775 345.418 558.504 339.042 559.999C333.329 560.973 327.574 559.418 322.73 556.308C320.507 554.879 318.748 552.994 317.141 550.907C315.084 548.238 313.375 545.277 311.552 542.446L301.863 527.542C296.495 519.376 290.309 511.316 285.609 502.762C284.477 500.704 283.561 498.493 283.069 496.191C281.918 490.808 282.975 484.868 286.031 480.278C289.745 474.701 294.425 472.155 300.866 470.889Z" fill="black"/>
<path d="M292.967 492.152C293.528 489.46 294.153 486.932 295.949 484.757C297.826 482.483 300.729 481.067 303.67 480.924C307.306 480.748 309.845 482.436 312.453 484.685C314.54 487.267 317.127 490.444 318.553 493.447L337.241 521.173C340.482 526.016 344.447 531.07 346.86 536.364C347.038 536.72 347.21 537.059 347.325 537.439C347.968 539.582 347.453 542.057 346.341 543.949C344.712 546.721 341.703 549.366 338.531 550.052C335.411 550.727 332.356 549.835 329.719 548.172C328.044 547.115 326.944 545.722 325.781 544.145C320.479 536.945 315.898 528.932 310.971 521.441C306.066 513.983 300.66 506.795 296.131 499.102C294.829 496.891 293.544 494.672 292.967 492.152Z" fill="#FECE03"/>
<path d="M292.967 492.152C294.156 492.499 295.393 492.791 296.516 493.317C297.9 493.747 299.021 494.882 299.947 495.963C302.935 499.452 305.402 503.702 307.955 507.523L321.57 528.083C324.63 532.797 327.814 539.381 332.45 542.639C334.619 544.162 337.05 544.584 339.432 543.243C342.595 541.462 343.219 537.797 346.86 536.364C347.038 536.72 347.21 537.058 347.325 537.439C347.968 539.581 347.453 542.057 346.341 543.948C344.712 546.721 341.703 549.366 338.531 550.052C335.411 550.727 332.356 549.835 329.719 548.171C328.044 547.115 326.944 545.722 325.781 544.145C320.479 536.945 315.898 528.931 310.971 521.44C306.066 513.983 300.66 506.795 296.131 499.102C294.829 496.891 293.544 494.672 292.967 492.152Z" fill="#DB9103"/>
<path d="M292.967 492.152C293.528 489.46 294.153 486.932 295.949 484.757C297.826 482.483 300.729 481.067 303.67 480.924C307.306 480.748 309.845 482.436 312.453 484.685C311.876 486.48 311.341 487.35 309.66 488.247C307.815 487.248 305.779 486.448 303.677 487.165C300.418 488.276 298.882 492.18 296.516 493.317C295.393 492.791 294.156 492.499 292.967 492.152Z" fill="#FCFDFC"/>
<path d="M312.453 484.685C314.54 487.267 317.127 490.444 318.553 493.447C318.269 494.54 317.984 495.214 317.236 496.066L316.729 496.08C314.34 493.5 312.079 490.797 309.66 488.247C311.341 487.35 311.876 486.481 312.453 484.685Z" fill="#FBEB59"/>
<path d="M617.968 542.176C622.856 541.665 627.224 542.77 631.271 545.579C636.416 549.151 639.96 554.334 641.042 560.52C641.943 565.673 640.949 572.608 637.807 576.902C635.985 579.354 633.911 581.609 631.618 583.629C625.074 589.479 617.722 594.683 610.866 600.193C604.041 605.677 596.023 612.991 588.742 617.498C585.771 619.338 582.742 620.562 579.289 621.115C574.757 621.459 569.978 619.779 566.231 617.307C561.271 614.035 557.177 608.682 556.031 602.787C555.052 597.749 555.792 590.902 558.746 586.578C560.573 583.903 563.112 581.437 565.539 579.309C572.955 572.804 581.26 567.035 589.045 560.944L601.274 551.476C603.784 549.498 606.263 547.236 608.977 545.545C611.812 543.776 614.697 542.753 617.968 542.176Z" fill="black"/>
<path d="M565.507 599.287C565.559 597.842 565.605 596.363 566.07 594.98C566.731 593.021 567.922 591.445 569.404 590.029C571.803 587.736 574.585 585.835 577.19 583.788C582.41 579.639 587.653 575.519 592.918 571.43C598.477 567.085 611.535 555.402 617.308 552.91C619.626 551.911 621.18 552.22 623.397 553.101C626.694 554.572 628.914 556.691 630.391 560.025C631.494 564.215 631.677 567.186 629.442 571.058C628.308 573.023 626.503 574.667 624.807 576.146C622.033 578.567 618.993 580.725 616.098 583.003C610.959 587.12 605.796 591.207 600.61 595.266C595.643 599.147 590.916 603.47 585.82 607.159C584.339 608.232 582.652 609.472 580.864 609.949C577.618 610.818 574.173 610.151 571.358 608.381C568.873 606.821 566.532 604.174 565.779 601.288C565.609 600.638 565.551 599.956 565.507 599.287Z" fill="#FECE03"/>
<path d="M565.507 599.287C565.559 597.842 565.605 596.363 566.07 594.98C566.731 593.021 567.922 591.445 569.404 590.029C571.803 587.736 574.585 585.835 577.19 583.788C582.41 579.639 587.653 575.519 592.918 571.43C598.477 567.085 611.535 555.402 617.308 552.91C619.626 551.911 621.18 552.22 623.397 553.101C623.504 554.584 623.991 556.798 622.883 557.976C622.5 558.384 621.928 558.436 621.405 558.586C615.84 561.031 610.95 566.027 606.215 569.8L586.587 585.361C582.708 588.463 578.516 591.256 574.761 594.499C572.62 596.349 570.735 598.376 568.921 600.542C567.833 600.035 566.639 599.686 565.507 599.287Z" fill="#FCFDFC"/>
<path d="M630.391 560.025C631.494 564.215 631.677 567.185 629.442 571.058C628.308 573.023 626.503 574.667 624.807 576.146C622.033 578.567 618.993 580.725 616.098 583.003C610.959 587.12 605.796 591.207 600.61 595.266C595.643 599.147 590.916 603.47 585.82 607.159C584.339 608.232 582.652 609.472 580.864 609.949C577.618 610.817 574.173 610.15 571.358 608.381C568.873 606.821 566.532 604.173 565.779 601.288C565.609 600.638 565.551 599.956 565.507 599.287C566.639 599.686 567.833 600.035 568.921 600.542C570.512 601.618 572.209 602.896 573.946 603.712C575.365 604.378 577.267 604.549 578.736 603.939C584.863 601.397 602.505 586.078 608.67 581.244C613.856 577.179 619.919 573.493 624.49 568.754C626.372 566.804 627.212 564.18 628.295 561.758C628.997 561.185 629.696 560.607 630.391 560.025Z" fill="#DB9103"/>
<path d="M623.397 553.101C626.694 554.572 628.914 556.691 630.391 560.025C629.696 560.607 628.997 561.185 628.295 561.758C626.119 560.658 623.954 558.516 621.405 558.586C621.928 558.436 622.5 558.384 622.883 557.976C623.991 556.798 623.504 554.584 623.397 553.101Z" fill="#FBEB59"/>
<path d="M271.355 790.319C276.087 789.822 280.677 790.765 284.732 793.317C289.833 796.526 294.318 802.438 295.578 808.378C296.582 813.104 296.013 819.701 293.307 823.794C291.655 826.291 289.6 828.609 287.404 830.637C280.412 837.099 272.314 842.788 264.826 848.677C259.421 852.926 250.719 860.413 245.057 863.696C242.116 865.402 239.073 866.362 235.761 867.051C230.993 867.615 226.248 866.745 222.046 864.383C217.193 861.656 213.46 856.783 212.018 851.406C210.71 846.528 211.146 839.034 213.766 834.619C215.545 831.622 218.338 828.908 220.905 826.588C226.962 821.112 233.805 816.292 240.186 811.182C244.972 807.303 249.798 803.475 254.662 799.697C257.453 797.52 260.247 795.147 263.281 793.318C265.83 791.781 268.482 791.02 271.355 790.319Z" fill="black"/>
<path d="M221.37 845.854C221.269 845.063 221.314 844.34 221.456 843.551C221.808 841.6 222.802 839.667 224.146 838.212C227.22 834.887 231.089 832.229 234.609 829.39C240.423 824.605 246.287 819.881 252.199 815.217C257.607 810.917 262.904 805.9 268.644 802.111C271.132 800.47 273.663 800.172 276.523 800.763C279.856 801.708 282.674 803.645 284.359 806.736C284.617 807.204 284.853 807.684 285.064 808.174C285.963 811.715 286.389 815.53 284.286 818.791C283.073 820.673 281.083 822.429 279.403 823.893C274.125 828.486 268.273 832.561 262.811 836.961L249.963 847.201C246.906 849.667 243.919 852.323 240.684 854.546C239.197 855.568 237.757 856.544 235.938 856.846C232.491 857.441 228.952 856.579 226.164 854.465C223.725 852.604 221.877 849.769 221.466 846.708C221.429 846.425 221.397 846.139 221.37 845.854Z" fill="#FECE03"/>
<path d="M285.064 808.174C285.963 811.715 286.389 815.53 284.286 818.79C283.073 820.672 281.083 822.429 279.403 823.892C274.125 828.486 268.273 832.561 262.811 836.961L249.963 847.201C246.906 849.667 243.919 852.323 240.684 854.546C239.197 855.568 237.757 856.543 235.938 856.846C232.491 857.441 228.952 856.579 226.164 854.465C223.725 852.604 221.877 849.769 221.466 846.708C221.429 846.424 221.397 846.139 221.37 845.854C222.567 846.188 223.755 846.516 224.924 846.941C227.263 848.34 230.499 851.21 233.343 850.951C238.421 850.489 263.16 829.01 268.434 824.763C271.488 822.303 275.162 820.069 277.914 817.327C279.981 815.267 280.737 812.383 282.566 810.273C282.662 810.164 282.76 810.056 282.858 809.948C283.764 809.518 284.361 808.878 285.064 808.174Z" fill="#DB9103"/>
<path d="M221.37 845.854C221.269 845.063 221.314 844.34 221.456 843.551C221.808 841.6 222.802 839.667 224.146 838.212C227.22 834.887 231.089 832.229 234.609 829.39C240.423 824.605 246.287 819.881 252.199 815.217C257.607 810.917 262.904 805.9 268.644 802.111C271.132 800.47 273.663 800.172 276.523 800.763C276.912 801.984 277.583 803.393 277.273 804.671C276.878 805.037 276.642 805.261 276.112 805.39C269.344 809.421 261.418 816.693 255.124 821.731C246.174 828.896 236.681 835.802 228.134 843.427C226.912 844.516 225.821 845.564 224.924 846.941C223.755 846.516 222.567 846.188 221.37 845.854Z" fill="#FCFDFC"/>
<path d="M276.524 800.762C279.857 801.708 282.674 803.645 284.36 806.735C284.617 807.203 284.853 807.683 285.065 808.174C284.361 808.878 283.765 809.517 282.858 809.947C281.169 808.373 278.343 805.901 276.112 805.389C276.642 805.26 276.878 805.036 277.274 804.67C277.584 803.392 276.913 801.984 276.524 800.762Z" fill="#FBEB59"/>
<path d="M577.281 789.091C580.869 789.111 584.012 789.796 587.206 791.478C592.943 794.498 598.731 800.07 603.884 804.172C612.236 810.823 620.743 817.311 628.975 824.108C635.586 829.566 640.439 835.046 641.223 843.928C641.719 849.539 640.083 854.943 636.451 859.252C632.451 864 626.811 866.295 620.721 866.857C616.773 866.63 613.084 865.557 609.594 863.692C603.245 860.301 597.414 854.722 591.76 850.263C583.474 843.729 575.016 837.404 566.837 830.737C561.013 825.989 556.51 821.329 555.767 813.534C555.189 807.483 556.729 801.772 560.622 797.079C565.163 791.602 570.365 789.724 577.281 789.091Z" fill="black"/>
<path d="M565.498 810.272C565.724 806.988 567.176 804.179 569.671 802.022C571.859 800.131 574.526 799.019 577.459 799.242C583.396 799.691 588.703 805.328 593.13 808.883C594.815 810.235 596.868 811.524 598.283 813.144C598.307 813.172 598.323 813.204 598.342 813.234C600.511 814.901 608.996 821.042 610.105 822.752C615.619 826.775 626.382 834.151 629.628 839.834L630.619 842.625L631.356 845.191C630.597 848.198 629.702 851.023 627.526 853.331C625.626 855.347 623.192 856.314 620.444 856.363C618.273 856.402 616.8 855.581 614.985 854.49C607.631 850.067 600.987 843.985 594.183 838.752C588.962 834.761 583.774 830.727 578.616 826.653C575.636 824.326 572.357 822.048 569.636 819.423C567.085 816.964 565.541 813.832 565.498 810.272Z" fill="#FECE03"/>
<path d="M565.498 810.272L569.439 812.208C572.404 813.523 575.665 817.073 578.307 819.154C586.06 825.262 594.038 831.068 601.832 837.12C607.063 841.182 612.251 846.116 618.074 849.294C619.375 850.004 620.407 850.573 621.89 850.039C625.141 848.869 626.375 843.812 628.253 843.058C628.971 842.769 629.833 843.038 630.619 842.625L631.356 845.191C630.597 848.198 629.702 851.023 627.526 853.331C625.626 855.347 623.192 856.314 620.444 856.363C618.273 856.402 616.8 855.581 614.985 854.49C607.631 850.067 600.987 843.985 594.183 838.752C588.962 834.761 583.774 830.727 578.616 826.653C575.636 824.326 572.357 822.048 569.636 819.423C567.085 816.964 565.541 813.832 565.498 810.272Z" fill="#DB9103"/>
<path d="M565.498 810.272C565.724 806.988 567.176 804.179 569.671 802.022C571.859 800.131 574.526 799.019 577.459 799.242C583.396 799.691 588.703 805.328 593.13 808.883C594.815 810.235 596.868 811.524 598.283 813.144C598.307 813.172 598.323 813.204 598.342 813.234C598.733 815.332 601.604 815.46 601.441 817.68C600.818 818.488 599.827 819.142 598.8 819.298C597.807 819.448 597.165 818.826 596.438 818.245C595.767 817.709 595.345 817.554 594.485 817.511C589.763 814.33 585.382 809.699 580.369 807.132C578.613 806.233 576.673 805.744 574.755 806.428C572.08 807.382 570.64 809.818 569.439 812.208L565.498 810.272Z" fill="#FCFDFC"/>
<path d="M604.685 824.114C605.262 823.122 605.715 821.984 606.809 821.5C608.125 821.593 608.601 822.374 609.667 823.105L610.105 822.752C615.619 826.775 626.382 834.151 629.628 839.834L627.837 841.537C625.023 841.618 609.199 828.999 606.247 826.306L606.586 826C605.994 825.332 605.33 824.73 604.685 824.114Z" fill="#FBEB59"/>
<path d="M598.342 813.234C600.51 814.901 608.996 821.042 610.105 822.752L609.667 823.105C608.601 822.374 608.125 821.593 606.809 821.5C605.715 821.984 605.262 823.122 604.685 824.115C605.33 824.731 605.994 825.332 606.586 826.001L606.247 826.307C602.394 823.292 598.241 820.647 594.485 817.511C595.344 817.554 595.767 817.709 596.438 818.245C597.165 818.826 597.807 819.448 598.8 819.298C599.826 819.142 600.818 818.488 601.44 817.68C601.604 815.46 598.733 815.332 598.342 813.234Z" fill="#F8F39E"/>
<path d="M230.013 541.521C235.603 540.97 240.63 541.899 245.452 544.86C253.391 549.737 260.957 555.625 268.526 561.076C275.453 566.064 283.725 570.977 289.534 577.221C291.989 579.859 293.876 583.033 294.688 586.559C295.917 591.894 294.585 597.282 291.68 601.835C288.24 607.226 283.415 610.128 277.3 611.527C270.233 612.502 264.411 611.081 258.471 607.247C251.316 602.63 244.484 597.493 237.553 592.549C230.117 587.247 221.014 582.064 215.199 574.938C213.47 572.82 212.291 569.761 211.743 567.098C210.614 561.605 211.689 555.417 214.827 550.748C218.543 545.221 223.635 542.72 230.013 541.521Z" fill="black"/>
<path d="M221.252 563.021C221.62 559.692 222.924 556.19 225.602 554.006C227.931 552.106 231.355 551.406 234.306 551.814C240.609 552.684 250.78 561.33 255.985 565.401C259.781 568.003 263.758 570.548 267.334 573.45C272.171 576.618 280.049 581.325 283.402 585.958L284.495 587.811C285.102 590.763 284.785 594.057 283.057 596.584C281.287 599.17 278.149 601.054 275.087 601.623C273.473 601.923 271.529 601.912 269.953 601.383C263.239 599.124 247.765 587.111 241.262 582.405C238.23 580.212 235.093 578.175 232.012 576.052C226.848 572.493 222.454 569.535 221.252 563.021Z" fill="#FECE03"/>
<path d="M221.252 563.021C222.561 563.365 223.877 563.687 225.157 564.129C228.002 565.939 230.563 568.123 233.336 570.036L257.271 586.6C261.439 589.524 265.993 593.44 270.675 595.453C272.08 596.056 273.508 596.214 275.008 595.865C279.235 594.88 279.417 589.478 283.917 590.616C284.621 589.845 284.446 588.838 284.495 587.811C285.102 590.763 284.785 594.057 283.057 596.584C281.287 599.17 278.149 601.054 275.087 601.623C273.473 601.923 271.529 601.912 269.953 601.383C263.239 599.124 247.765 587.111 241.262 582.405C238.23 580.212 235.093 578.175 232.012 576.052C226.848 572.493 222.454 569.535 221.252 563.021Z" fill="#DB9103"/>
<path d="M221.252 563.021C221.62 559.692 222.924 556.19 225.602 554.006C227.931 552.106 231.355 551.406 234.306 551.814C240.609 552.684 250.78 561.33 255.985 565.401C259.781 568.003 263.758 570.548 267.334 573.45L266.647 573.754C265.983 573.377 265.432 572.989 264.839 572.507C263.69 572.607 263.089 573.18 262.348 574.074C262.076 574.404 261.822 574.75 261.569 575.094C262.278 575.616 262.686 575.785 263.023 576.613C260.328 575.242 255.523 572.747 253.643 570.438C246.843 566.298 240.043 559.978 232.442 557.624C228.723 558.815 227 560.861 225.157 564.129C223.877 563.687 222.561 563.365 221.252 563.021Z" fill="#FCFDFC"/>
<path d="M255.985 565.4C259.781 568.003 263.758 570.548 267.334 573.45L266.647 573.754C265.983 573.377 265.433 572.989 264.84 572.507C263.69 572.607 263.089 573.18 262.348 574.074C262.076 574.404 261.822 574.75 261.569 575.094C262.278 575.616 262.687 575.785 263.023 576.613C260.329 575.242 255.523 572.747 253.644 570.438C253.951 570.326 254.21 570.326 254.534 570.306C255.005 570.781 255.37 571.109 255.964 571.436C256.113 571.078 256.272 570.746 256.448 570.4L257.315 570.326L257.546 570.799L256.798 572.04L256.993 572.072C258.091 571.041 258.892 570.093 259.71 568.83C257.944 567.976 257.207 567.394 256.177 565.717L255.985 565.4Z" fill="#F8F39E"/>
<path d="M263.023 576.613C262.686 575.785 262.278 575.616 261.569 575.094C261.822 574.75 262.076 574.404 262.348 574.074C263.089 573.18 263.69 572.607 264.839 572.507C265.432 572.989 265.983 573.377 266.647 573.754L267.334 573.45C272.171 576.618 280.049 581.325 283.402 585.957C283.107 586.477 282.811 587.067 282.43 587.527C282.13 587.889 281.678 588.167 281.213 588.218C279.248 588.433 265.045 578.445 263.023 576.613Z" fill="#FBEB59"/>
<path d="M612.14 683.493C620.955 683.347 629.801 683.487 638.62 683.47C645.621 683.455 653.855 682.64 660.66 684.158C664.089 684.921 667.384 686.683 670.099 688.891C674.637 692.578 677.331 697.81 677.903 703.621C678.459 709.256 676.608 715.25 672.949 719.566C668.319 725.026 661.952 727.546 654.944 728.114C645.439 728.602 635.907 728.51 626.391 728.518C619.909 728.525 612.517 729.151 606.191 727.72C602.432 726.87 598.736 724.937 595.873 722.362C591.507 718.436 588.714 712.46 588.444 706.598C588.175 700.719 590.587 694.712 594.587 690.43C599.56 685.106 605.146 683.725 612.14 683.493Z" fill="black"/>
<path d="M598.243 705.967C598.487 702.762 599.447 699.906 601.812 697.599C603.086 696.356 604.838 695.173 606.59 694.799C613.049 693.42 620.609 694.151 627.243 694.146C636.613 694.137 646.019 693.976 655.384 694.191C659.991 694.298 661.745 695.028 664.929 698.356C665.945 699.648 666.575 700.889 667.226 702.392C668.164 704.565 667.618 707.475 666.757 709.627C665.412 712.987 662.491 715.782 659.112 717.056C655.393 718.459 618.104 718.063 612.034 717.587C609.918 717.421 607.425 717.142 605.483 716.244C602.186 714.719 600.003 712.009 598.848 708.616C598.545 707.727 598.33 706.906 598.243 705.967Z" fill="#FECE03"/>
<path d="M598.243 705.967C598.487 702.762 599.447 699.906 601.812 697.599C603.086 696.356 604.838 695.173 606.59 694.799C613.049 693.42 620.609 694.151 627.243 694.146C636.613 694.137 646.019 693.976 655.384 694.191C659.991 694.298 661.745 695.028 664.929 698.356C664.766 699.523 664.582 700.688 664.375 701.848C661.837 701.609 659.275 701.002 656.739 700.869C649.481 700.488 640.503 700.997 633.032 700.999C625.543 701.002 616.671 700.404 609.339 701.134C608.159 701.252 607.339 701.441 606.423 702.244C604.633 703.814 603.991 706.274 602.128 707.766L598.243 705.967Z" fill="#FCFDFC"/>
<path d="M667.226 702.392C668.164 704.564 667.618 707.475 666.757 709.627C665.412 712.987 662.491 715.782 659.112 717.056C655.393 718.459 618.104 718.063 612.034 717.587C609.918 717.421 607.425 717.142 605.483 716.244C602.186 714.719 600.003 712.009 598.848 708.616C598.545 707.727 598.33 706.906 598.243 705.967L602.128 707.766C603.754 708.76 605.348 710.068 607.114 710.782C610.456 712.136 654.239 712.242 658.099 710.989C662.478 709.566 662.781 704.283 666.842 702.553L667.226 702.392Z" fill="#DB9103"/>
<path d="M194.055 675.626C194.179 675.605 194.302 675.577 194.428 675.563C200.972 674.783 208.184 675.457 214.784 675.476C222.582 675.5 235.776 674.624 243.045 676.111C246.359 676.79 249.477 678.452 252.108 680.547C256.747 684.241 259.969 689.256 260.57 695.224C261.21 701.571 260.138 707.409 255.978 712.381C251.385 717.87 246.282 719.604 239.389 720.227C230.777 720.314 222.165 720.343 213.554 720.31C205.673 720.337 196.954 721.103 189.231 719.493C185.974 718.822 182.926 717.375 180.347 715.276C175.988 711.771 172.676 706.392 172.112 700.775C171.501 694.683 173.411 688.906 177.265 684.193C181.771 678.683 187.078 676.291 194.055 675.626Z" fill="black"/>
<path d="M182.58 697.143C182.784 696.481 182.91 695.767 183.06 695.09C183.191 694.499 183.301 693.902 183.521 693.335C184.728 690.226 187.122 688.158 190.157 686.917C191.794 686.247 193.808 686.024 195.563 685.903C201.407 685.499 238.634 685.425 241.512 686.55C244.866 687.834 247.926 689.363 249.468 692.839C249.508 692.927 249.544 693.016 249.582 693.105C249.977 694.208 250.449 695.319 250.635 696.479C250.863 700.116 250.423 703.428 247.91 706.283C245.245 709.31 241.766 710.022 237.901 710.163C229.54 710.469 221.083 710.142 212.712 710.144C206.651 710.145 197.317 710.952 191.637 709.671C189.616 709.215 187.659 707.989 186.15 706.594C183.98 704.585 182.493 701.988 182.425 698.978C182.411 698.356 182.39 697.742 182.58 697.143Z" fill="#FECE03"/>
<path d="M250.635 696.479C250.863 700.116 250.423 703.428 247.91 706.283C245.245 709.311 241.766 710.022 237.901 710.163C229.54 710.469 221.083 710.142 212.712 710.144C206.651 710.145 197.317 710.952 191.637 709.672C189.616 709.215 187.659 707.99 186.15 706.594C183.98 704.585 182.493 701.988 182.425 698.978C182.411 698.356 182.39 697.742 182.58 697.143C182.717 697.584 182.763 698.182 183.188 698.413C183.798 698.746 184.488 698.765 185.166 698.837C186.533 700.329 188.961 702.349 190.793 703.215C194.416 704.927 234.361 704.63 240.178 704.141C241.308 704.045 242.336 703.798 243.409 703.433C245.546 701.044 246.561 699.158 247.564 696.101C248.343 696.471 249.05 696.759 249.889 696.966L250.635 696.479Z" fill="#DB9103"/>
<path d="M182.58 697.143C182.784 696.481 182.91 695.767 183.06 695.09C183.191 694.499 183.301 693.902 183.521 693.335C184.728 690.226 187.122 688.158 190.157 686.917C191.794 686.247 193.808 686.024 195.563 685.903C201.407 685.499 238.634 685.425 241.512 686.55C241.219 688.655 240.525 690.507 239.765 692.486C230.125 694.388 196.872 691.326 191.192 693.702C188.656 694.763 187.319 697.312 185.166 698.837C184.488 698.765 183.798 698.745 183.188 698.413C182.763 698.182 182.717 697.584 182.58 697.143Z" fill="#FCFDFC"/>
<path d="M241.512 686.55C244.866 687.834 247.926 689.363 249.469 692.839C249.508 692.927 249.544 693.016 249.582 693.105C249.447 693.255 249.309 693.403 249.167 693.548C247.405 695.34 244.513 693.136 242.513 692.656C241.64 692.446 240.659 692.488 239.765 692.486C240.525 690.507 241.219 688.655 241.512 686.55Z" fill="#FBEB59"/>
<defs>
<linearGradient id="paint0_linear_97_34" x1="498.007" y1="818.467" x2="346.3" y2="580.27" gradientUnits="userSpaceOnUse">
<stop stop-color="#E59B00"/>
<stop offset="1" stop-color="#FFEC0B"/>
</linearGradient>
<linearGradient id="paint1_linear_97_34" x1="432.745" y1="917.921" x2="405.537" y2="904.835" gradientUnits="userSpaceOnUse">
<stop stop-color="#F5F4C8"/>
<stop offset="1" stop-color="#FDFFFF"/>
</linearGradient>
<linearGradient id="paint2_linear_97_34" x1="329.912" y1="898.567" x2="312.054" y2="888.3" gradientUnits="userSpaceOnUse">
<stop stop-color="#E58C00"/>
<stop offset="1" stop-color="#DA9D05"/>
</linearGradient>
</defs>
</svg>
