<svg width="849" height="1183" viewBox="0 0 849 1183" fill="none" xmlns="http://www.w3.org/2000/svg">
<rect x="5" y="5" width="839" height="1173" rx="45" fill="white"/>
<rect x="5" y="5" width="839" height="1173" rx="45" stroke="black" stroke-width="10"/>
<circle cx="786.5" cy="1124.5" r="11.5" fill="black"/>
<circle cx="786.5" cy="59.5" r="11.5" fill="black"/>
<path d="M77 1124.5C77 1130.85 71.8513 1136 65.5 1136C59.1487 1136 54 1130.85 54 1124.5C54 1118.15 59.1487 1113 65.5 1113C71.8513 1113 77 1118.15 77 1124.5Z" fill="black"/>
<path d="M77 59.5C77 65.8513 71.8513 71 65.5 71C59.1487 71 54 65.8513 54 59.5C54 53.1487 59.1487 48 65.5 48C71.8513 48 77 53.1487 77 59.5Z" fill="black"/>
<mask id="path-6-inside-1_97_11" fill="white">
<path d="M708 48C713.523 48 717.934 52.4996 718.616 57.9801C723.122 94.1833 751.817 122.878 788.02 127.384C793.5 128.066 798 132.477 798 138V1046C798 1051.52 793.5 1055.93 788.02 1056.62C751.817 1061.12 723.122 1089.82 718.616 1126.02C717.934 1131.5 713.523 1136 708 1136H141C135.477 1136 131.066 1131.5 130.384 1126.02C125.878 1089.82 97.1833 1061.12 60.9801 1056.62C55.4996 1055.93 51 1051.52 51 1046V138C51 132.477 55.4996 128.066 60.9801 127.384C97.1833 122.878 125.878 94.1833 130.384 57.9801C131.066 52.4996 135.477 48 141 48H708Z"/>
</mask>
<path d="M708 48C713.523 48 717.934 52.4996 718.616 57.9801C723.122 94.1833 751.817 122.878 788.02 127.384C793.5 128.066 798 132.477 798 138V1046C798 1051.52 793.5 1055.93 788.02 1056.62C751.817 1061.12 723.122 1089.82 718.616 1126.02C717.934 1131.5 713.523 1136 708 1136H141C135.477 1136 131.066 1131.5 130.384 1126.02C125.878 1089.82 97.1833 1061.12 60.9801 1056.62C55.4996 1055.93 51 1051.52 51 1046V138C51 132.477 55.4996 128.066 60.9801 127.384C97.1833 122.878 125.878 94.1833 130.384 57.9801C131.066 52.4996 135.477 48 141 48H708Z" fill="#006AB6"/>
<path d="M130.384 1126.02L138.322 1125.03L130.384 1126.02ZM718.616 1126.02L710.678 1125.03L718.616 1126.02ZM788.02 1056.62L789.008 1064.56L788.02 1056.62ZM718.616 57.9801L726.555 56.9922L718.616 57.9801ZM718.616 57.9801L710.678 58.9681C715.635 98.8063 747.194 130.365 787.032 135.322L788.02 127.384L789.008 119.445C756.44 115.392 730.608 89.5603 726.555 56.9922L718.616 57.9801ZM798 138H790V1046H798H806V138H798ZM788.02 1056.62L787.032 1048.68C747.194 1053.64 715.635 1085.19 710.678 1125.03L718.616 1126.02L726.555 1127.01C730.608 1094.44 756.44 1068.61 789.008 1064.56L788.02 1056.62ZM708 1136V1128H141V1136V1144H708V1136ZM130.384 1126.02L138.322 1125.03C133.365 1085.19 101.806 1053.64 61.9681 1048.68L60.9801 1056.62L59.9922 1064.56C92.5603 1068.61 118.392 1094.44 122.445 1127.01L130.384 1126.02ZM51 1046H59V138H51H43V1046H51ZM60.9801 127.384L61.9681 135.322C101.806 130.365 133.365 98.8063 138.322 58.9681L130.384 57.9801L122.445 56.9922C118.392 89.5603 92.5603 115.392 59.9922 119.445L60.9801 127.384ZM141 48V56H708V48V40H141V48ZM130.384 57.9801L138.322 58.9681C138.438 58.0389 138.872 57.2306 139.427 56.6958C139.954 56.1887 140.494 56 141 56V48V40C130.84 40 123.547 48.1329 122.445 56.9922L130.384 57.9801ZM51 138H59C59 137.494 59.1887 136.954 59.6958 136.427C60.2306 135.872 61.0389 135.438 61.9681 135.322L60.9801 127.384L59.9922 119.445C51.1329 120.547 43 127.84 43 138H51ZM60.9801 1056.62L61.9681 1048.68C61.0389 1048.56 60.2306 1048.13 59.6958 1047.57C59.1887 1047.05 59 1046.51 59 1046H51H43C43 1056.16 51.1329 1063.45 59.9922 1064.56L60.9801 1056.62ZM141 1136V1128C140.494 1128 139.954 1127.81 139.427 1127.3C138.872 1126.77 138.438 1125.96 138.322 1125.03L130.384 1126.02L122.445 1127.01C123.547 1135.87 130.84 1144 141 1144V1136ZM718.616 1126.02L710.678 1125.03C710.562 1125.96 710.128 1126.77 709.573 1127.3C709.046 1127.81 708.506 1128 708 1128V1136V1144C718.16 1144 725.453 1135.87 726.555 1127.01L718.616 1126.02ZM798 1046H790C790 1046.51 789.811 1047.05 789.304 1047.57C788.769 1048.13 787.961 1048.56 787.032 1048.68L788.02 1056.62L789.008 1064.56C797.867 1063.45 806 1056.16 806 1046H798ZM788.02 127.384L787.032 135.322C787.961 135.438 788.769 135.872 789.304 136.427C789.811 136.954 790 137.494 790 138H798H806C806 127.84 797.867 120.547 789.008 119.445L788.02 127.384ZM718.616 57.9801L726.555 56.9922C725.453 48.1329 718.16 40 708 40V48V56C708.506 56 709.046 56.1887 709.573 56.6958C710.128 57.2306 710.562 58.0389 710.678 58.9681L718.616 57.9801Z" fill="black" mask="url(#path-6-inside-1_97_11)"/>
<path d="M690 102C695.523 102 699.911 106.512 700.837 111.957C705.019 136.563 724.437 155.981 749.043 160.163C754.488 161.089 759 165.477 759 171V1014C759 1019.52 754.488 1023.91 749.043 1024.84C724.711 1028.97 705.454 1048 700.984 1072.22C699.993 1077.59 695.633 1082 690.175 1082H158.825C153.367 1082 149.007 1077.59 148.016 1072.22C143.546 1048 124.288 1028.97 99.9568 1024.84C94.5121 1023.91 90 1019.52 90 1014V171C90 165.477 94.512 161.089 99.9568 160.163C124.563 155.981 143.981 136.563 148.163 111.957C149.089 106.512 153.477 102 159 102H690Z" fill="#5298CB"/>
<path d="M288.145 378.335C288.145 372.555 289.477 367.37 292.14 362.78C294.86 358.19 298.515 354.62 303.105 352.07C307.752 349.463 312.823 348.16 318.32 348.16C324.61 348.16 330.192 349.718 335.065 352.835C339.995 355.895 343.565 360.258 345.775 365.925H334.13C332.6 362.808 330.475 360.485 327.755 358.955C325.035 357.425 321.89 356.66 318.32 356.66C314.41 356.66 310.925 357.538 307.865 359.295C304.805 361.052 302.397 363.573 300.64 366.86C298.94 370.147 298.09 373.972 298.09 378.335C298.09 382.698 298.94 386.523 300.64 389.81C302.397 393.097 304.805 395.647 307.865 397.46C310.925 399.217 314.41 400.095 318.32 400.095C321.89 400.095 325.035 399.33 327.755 397.8C330.475 396.27 332.6 393.947 334.13 390.83H345.775C343.565 396.497 339.995 400.86 335.065 403.92C330.192 406.98 324.61 408.51 318.32 408.51C312.767 408.51 307.695 407.235 303.105 404.685C298.515 402.078 294.86 398.48 292.14 393.89C289.477 389.3 288.145 384.115 288.145 378.335ZM377.432 408.765C373.012 408.765 369.017 407.773 365.447 405.79C361.877 403.75 359.072 400.917 357.032 397.29C354.992 393.607 353.972 389.357 353.972 384.54C353.972 379.78 355.021 375.558 357.117 371.875C359.214 368.192 362.076 365.358 365.702 363.375C369.329 361.392 373.381 360.4 377.857 360.4C382.334 360.4 386.386 361.392 390.012 363.375C393.639 365.358 396.501 368.192 398.597 371.875C400.694 375.558 401.742 379.78 401.742 384.54C401.742 389.3 400.666 393.522 398.512 397.205C396.359 400.888 393.412 403.75 389.672 405.79C385.989 407.773 381.909 408.765 377.432 408.765ZM377.432 400.35C379.926 400.35 382.249 399.755 384.402 398.565C386.612 397.375 388.397 395.59 389.757 393.21C391.117 390.83 391.797 387.94 391.797 384.54C391.797 381.14 391.146 378.278 389.842 375.955C388.539 373.575 386.811 371.79 384.657 370.6C382.504 369.41 380.181 368.815 377.687 368.815C375.194 368.815 372.871 369.41 370.717 370.6C368.621 371.79 366.949 373.575 365.702 375.955C364.456 378.278 363.832 381.14 363.832 384.54C363.832 389.583 365.107 393.493 367.657 396.27C370.264 398.99 373.522 400.35 377.432 400.35ZM408.091 384.54C408.091 379.723 409.055 375.502 410.981 371.875C412.965 368.192 415.685 365.358 419.141 363.375C422.598 361.392 426.565 360.4 431.041 360.4C436.708 360.4 441.383 361.76 445.066 364.48C448.806 367.143 451.328 370.968 452.631 375.955H442.176C441.326 373.632 439.966 371.818 438.096 370.515C436.226 369.212 433.875 368.56 431.041 368.56C427.075 368.56 423.901 369.977 421.521 372.81C419.198 375.587 418.036 379.497 418.036 384.54C418.036 389.583 419.198 393.522 421.521 396.355C423.901 399.188 427.075 400.605 431.041 400.605C436.651 400.605 440.363 398.14 442.176 393.21H452.631C451.271 397.97 448.721 401.767 444.981 404.6C441.241 407.377 436.595 408.765 431.041 408.765C426.565 408.765 422.598 407.773 419.141 405.79C415.685 403.75 412.965 400.917 410.981 397.29C409.055 393.607 408.091 389.357 408.091 384.54ZM486.513 360.4C490.083 360.4 493.256 361.165 496.033 362.695C498.866 364.225 501.076 366.492 502.663 369.495C504.306 372.498 505.128 376.125 505.128 380.375V408H495.523V381.82C495.523 377.627 494.475 374.425 492.378 372.215C490.281 369.948 487.42 368.815 483.793 368.815C480.166 368.815 477.276 369.948 475.123 372.215C473.026 374.425 471.978 377.627 471.978 381.82V408H462.288V345.1H471.978V366.605C473.621 364.622 475.69 363.092 478.183 362.015C480.733 360.938 483.51 360.4 486.513 360.4ZM560.413 383.435C560.413 385.192 560.3 386.778 560.073 388.195H524.288C524.572 391.935 525.96 394.938 528.453 397.205C530.947 399.472 534.007 400.605 537.633 400.605C542.847 400.605 546.53 398.423 548.683 394.06H559.138C557.722 398.367 555.143 401.908 551.403 404.685C547.72 407.405 543.13 408.765 537.633 408.765C533.157 408.765 529.133 407.773 525.563 405.79C522.05 403.75 519.273 400.917 517.233 397.29C515.25 393.607 514.258 389.357 514.258 384.54C514.258 379.723 515.222 375.502 517.148 371.875C519.132 368.192 521.88 365.358 525.393 363.375C528.963 361.392 533.043 360.4 537.633 360.4C542.053 360.4 545.992 361.363 549.448 363.29C552.905 365.217 555.597 367.937 557.523 371.45C559.45 374.907 560.413 378.902 560.413 383.435ZM550.298 380.375C550.242 376.805 548.967 373.943 546.473 371.79C543.98 369.637 540.892 368.56 537.208 368.56C533.865 368.56 531.003 369.637 528.623 371.79C526.243 373.887 524.827 376.748 524.373 380.375H550.298Z" fill="black"/>
<mask id="path-10-outside-2_97_11" maskUnits="userSpaceOnUse" x="419" y="1006" width="22" height="32" fill="black">
<rect fill="white" x="419" y="1006" width="22" height="32"/>
<path d="M425.08 1029.08C425.347 1030.41 425.92 1031.43 426.8 1032.12C427.68 1032.81 428.867 1033.16 430.36 1033.16C432.253 1033.16 433.64 1032.41 434.52 1030.92C435.4 1029.43 435.84 1026.88 435.84 1023.28C435.2 1024.19 434.293 1024.89 433.12 1025.4C431.973 1025.88 430.72 1026.12 429.36 1026.12C427.627 1026.12 426.053 1025.77 424.64 1025.08C423.227 1024.36 422.107 1023.31 421.28 1021.92C420.48 1020.51 420.08 1018.8 420.08 1016.8C420.08 1013.87 420.933 1011.53 422.64 1009.8C424.373 1008.04 426.747 1007.16 429.76 1007.16C433.387 1007.16 435.96 1008.37 437.48 1010.8C439.027 1013.2 439.8 1016.89 439.8 1021.88C439.8 1025.32 439.507 1028.13 438.92 1030.32C438.36 1032.51 437.373 1034.16 435.96 1035.28C434.547 1036.4 432.587 1036.96 430.08 1036.96C427.227 1036.96 425.027 1036.21 423.48 1034.72C421.933 1033.23 421.067 1031.35 420.88 1029.08H425.08ZM430.16 1022.28C431.76 1022.28 433.013 1021.79 433.92 1020.8C434.853 1019.79 435.32 1018.45 435.32 1016.8C435.32 1014.96 434.827 1013.53 433.84 1012.52C432.88 1011.48 431.56 1010.96 429.88 1010.96C428.2 1010.96 426.867 1011.49 425.88 1012.56C424.92 1013.6 424.44 1014.97 424.44 1016.68C424.44 1018.31 424.907 1019.65 425.84 1020.72C426.8 1021.76 428.24 1022.28 430.16 1022.28Z"/>
</mask>
<path d="M425.08 1029.08C425.347 1030.41 425.92 1031.43 426.8 1032.12C427.68 1032.81 428.867 1033.16 430.36 1033.16C432.253 1033.16 433.64 1032.41 434.52 1030.92C435.4 1029.43 435.84 1026.88 435.84 1023.28C435.2 1024.19 434.293 1024.89 433.12 1025.4C431.973 1025.88 430.72 1026.12 429.36 1026.12C427.627 1026.12 426.053 1025.77 424.64 1025.08C423.227 1024.36 422.107 1023.31 421.28 1021.92C420.48 1020.51 420.08 1018.8 420.08 1016.8C420.08 1013.87 420.933 1011.53 422.64 1009.8C424.373 1008.04 426.747 1007.16 429.76 1007.16C433.387 1007.16 435.96 1008.37 437.48 1010.8C439.027 1013.2 439.8 1016.89 439.8 1021.88C439.8 1025.32 439.507 1028.13 438.92 1030.32C438.36 1032.51 437.373 1034.16 435.96 1035.28C434.547 1036.4 432.587 1036.96 430.08 1036.96C427.227 1036.96 425.027 1036.21 423.48 1034.72C421.933 1033.23 421.067 1031.35 420.88 1029.08H425.08ZM430.16 1022.28C431.76 1022.28 433.013 1021.79 433.92 1020.8C434.853 1019.79 435.32 1018.45 435.32 1016.8C435.32 1014.96 434.827 1013.53 433.84 1012.52C432.88 1011.48 431.56 1010.96 429.88 1010.96C428.2 1010.96 426.867 1011.49 425.88 1012.56C424.92 1013.6 424.44 1014.97 424.44 1016.68C424.44 1018.31 424.907 1019.65 425.84 1020.72C426.8 1021.76 428.24 1022.28 430.16 1022.28Z" fill="black"/>
<path d="M425.08 1029.08L425.374 1029.02L425.326 1028.78H425.08V1029.08ZM426.8 1032.12L426.614 1032.36L426.8 1032.12ZM434.52 1030.92L434.262 1030.77L434.52 1030.92ZM435.84 1023.28H436.14V1022.33L435.595 1023.11L435.84 1023.28ZM433.12 1025.4L433.236 1025.68L433.239 1025.68L433.12 1025.4ZM424.64 1025.08L424.504 1025.35L424.508 1025.35L424.64 1025.08ZM421.28 1021.92L421.019 1022.07L421.022 1022.07L421.28 1021.92ZM422.64 1009.8L422.426 1009.59L422.426 1009.59L422.64 1009.8ZM437.48 1010.8L437.226 1010.96L437.228 1010.96L437.48 1010.8ZM438.92 1030.32L438.63 1030.24L438.629 1030.25L438.92 1030.32ZM435.96 1035.28L436.146 1035.52L435.96 1035.28ZM423.48 1034.72L423.272 1034.94L423.48 1034.72ZM420.88 1029.08V1028.78H420.554L420.581 1029.1L420.88 1029.08ZM433.92 1020.8L433.699 1020.6L433.699 1020.6L433.92 1020.8ZM433.84 1012.52L433.619 1012.72L433.625 1012.73L433.84 1012.52ZM425.88 1012.56L425.66 1012.36L425.66 1012.36L425.88 1012.56ZM425.84 1020.72L425.614 1020.92L425.62 1020.92L425.84 1020.72ZM425.08 1029.08L424.786 1029.14C425.063 1030.53 425.667 1031.61 426.614 1032.36L426.8 1032.12L426.986 1031.88C426.173 1031.24 425.63 1030.3 425.374 1029.02L425.08 1029.08ZM426.8 1032.12L426.614 1032.36C427.563 1033.1 428.822 1033.46 430.36 1033.46V1033.16V1032.86C428.912 1032.86 427.797 1032.52 426.986 1031.88L426.8 1032.12ZM430.36 1033.16V1033.46C432.348 1033.46 433.839 1032.67 434.778 1031.07L434.52 1030.92L434.262 1030.77C433.441 1032.16 432.159 1032.86 430.36 1032.86V1033.16ZM434.52 1030.92L434.778 1031.07C435.702 1029.5 436.14 1026.89 436.14 1023.28H435.84H435.54C435.54 1026.87 435.098 1029.35 434.262 1030.77L434.52 1030.92ZM435.84 1023.28L435.595 1023.11C434.991 1023.96 434.132 1024.64 433.001 1025.12L433.12 1025.4L433.239 1025.68C434.455 1025.15 435.409 1024.41 436.085 1023.45L435.84 1023.28ZM433.12 1025.4L433.004 1025.12C431.898 1025.59 430.684 1025.82 429.36 1025.82V1026.12V1026.42C430.756 1026.42 432.049 1026.17 433.236 1025.68L433.12 1025.4ZM429.36 1026.12V1025.82C427.668 1025.82 426.14 1025.48 424.772 1024.81L424.64 1025.08L424.508 1025.35C425.966 1026.06 427.586 1026.42 429.36 1026.42V1026.12ZM424.64 1025.08L424.776 1024.81C423.414 1024.12 422.336 1023.11 421.538 1021.77L421.28 1021.92L421.022 1022.07C421.877 1023.51 423.039 1024.6 424.504 1025.35L424.64 1025.08ZM421.28 1021.92L421.541 1021.77C420.772 1020.41 420.38 1018.76 420.38 1016.8H420.08H419.78C419.78 1018.84 420.188 1020.6 421.019 1022.07L421.28 1021.92ZM420.08 1016.8H420.38C420.38 1013.93 421.213 1011.68 422.854 1010.01L422.64 1009.8L422.426 1009.59C420.653 1011.39 419.78 1013.81 419.78 1016.8H420.08ZM422.64 1009.8L422.854 1010.01C424.519 1008.32 426.808 1007.46 429.76 1007.46V1007.16V1006.86C426.685 1006.86 424.228 1007.76 422.426 1009.59L422.64 1009.8ZM429.76 1007.16V1007.46C433.315 1007.46 435.775 1008.64 437.226 1010.96L437.48 1010.8L437.734 1010.64C436.145 1008.1 433.459 1006.86 429.76 1006.86V1007.16ZM437.48 1010.8L437.228 1010.96C438.728 1013.29 439.5 1016.91 439.5 1021.88H439.8H440.1C440.1 1016.87 439.326 1013.11 437.732 1010.64L437.48 1010.8ZM439.8 1021.88H439.5C439.5 1025.31 439.208 1028.09 438.63 1030.24L438.92 1030.32L439.21 1030.4C439.806 1028.18 440.1 1025.33 440.1 1021.88H439.8ZM438.92 1030.32L438.629 1030.25C438.081 1032.38 437.124 1033.97 435.774 1035.04L435.96 1035.28L436.146 1035.52C437.623 1034.35 438.639 1032.63 439.211 1030.39L438.92 1030.32ZM435.96 1035.28L435.774 1035.04C434.431 1036.11 432.545 1036.66 430.08 1036.66V1036.96V1037.26C432.628 1037.26 434.663 1036.69 436.146 1035.52L435.96 1035.28ZM430.08 1036.96V1036.66C427.278 1036.66 425.163 1035.93 423.688 1034.5L423.48 1034.72L423.272 1034.94C424.891 1036.5 427.175 1037.26 430.08 1037.26V1036.96ZM423.48 1034.72L423.688 1034.5C422.197 1033.06 421.36 1031.25 421.179 1029.06L420.88 1029.08L420.581 1029.1C420.773 1031.44 421.669 1033.39 423.272 1034.94L423.48 1034.72ZM420.88 1029.08V1029.38H425.08V1029.08V1028.78H420.88V1029.08ZM430.16 1022.28V1022.58C431.826 1022.58 433.166 1022.06 434.141 1021L433.92 1020.8L433.699 1020.6C432.86 1021.51 431.694 1021.98 430.16 1021.98V1022.28ZM433.92 1020.8L434.141 1021C435.135 1019.92 435.62 1018.51 435.62 1016.8H435.32H435.02C435.02 1018.39 434.572 1019.65 433.699 1020.6L433.92 1020.8ZM435.32 1016.8H435.62C435.62 1014.91 435.111 1013.4 434.055 1012.31L433.84 1012.52L433.625 1012.73C434.542 1013.67 435.02 1015.01 435.02 1016.8H435.32ZM433.84 1012.52L434.06 1012.32C433.033 1011.2 431.627 1010.66 429.88 1010.66V1010.96V1011.26C431.493 1011.26 432.727 1011.76 433.62 1012.72L433.84 1012.52ZM429.88 1010.96V1010.66C428.131 1010.66 426.712 1011.22 425.66 1012.36L425.88 1012.56L426.1 1012.76C427.021 1011.77 428.269 1011.26 429.88 1011.26V1010.96ZM425.88 1012.56L425.66 1012.36C424.638 1013.46 424.14 1014.91 424.14 1016.68H424.44H424.74C424.74 1015.03 425.202 1013.74 426.1 1012.76L425.88 1012.56ZM424.44 1016.68H424.14C424.14 1018.37 424.626 1019.79 425.614 1020.92L425.84 1020.72L426.066 1020.52C425.187 1019.52 424.74 1018.25 424.74 1016.68H424.44ZM425.84 1020.72L425.62 1020.92C426.654 1022.04 428.187 1022.58 430.16 1022.58V1022.28V1021.98C428.293 1021.98 426.946 1021.48 426.06 1020.52L425.84 1020.72Z" fill="black" mask="url(#path-10-outside-2_97_11)"/>
<path d="M329.36 234.83C329.36 227.55 330.865 221.075 333.875 215.405C336.955 209.665 341.295 205.22 346.895 202.07C352.495 198.85 358.935 197.24 366.215 197.24C375.455 197.24 383.225 199.725 389.525 204.695C395.825 209.595 399.885 216.28 401.705 224.75H379.55C378.22 221.95 376.365 219.815 373.985 218.345C371.675 216.875 368.98 216.14 365.9 216.14C361.14 216.14 357.325 217.855 354.455 221.285C351.655 224.645 350.255 229.16 350.255 234.83C350.255 240.57 351.655 245.155 354.455 248.585C357.325 251.945 361.14 253.625 365.9 253.625C368.98 253.625 371.675 252.89 373.985 251.42C376.365 249.95 378.22 247.815 379.55 245.015H401.705C399.885 253.485 395.825 260.205 389.525 265.175C383.225 270.075 375.455 272.525 366.215 272.525C358.935 272.525 352.495 270.95 346.895 267.8C341.295 264.58 336.955 260.135 333.875 254.465C330.865 248.725 329.36 242.18 329.36 234.83ZM408.09 242.495C408.09 236.405 409.175 231.085 411.345 226.535C413.585 221.985 416.595 218.485 420.375 216.035C424.225 213.585 428.495 212.36 433.185 212.36C437.245 212.36 440.745 213.165 443.685 214.775C446.625 216.385 448.9 218.555 450.51 221.285V213.095H471.09V272H450.51V263.81C448.9 266.54 446.59 268.71 443.58 270.32C440.64 271.93 437.175 272.735 433.185 272.735C428.495 272.735 424.225 271.51 420.375 269.06C416.595 266.61 413.585 263.11 411.345 258.56C409.175 253.94 408.09 248.585 408.09 242.495ZM450.51 242.495C450.51 238.715 449.46 235.74 447.36 233.57C445.33 231.4 442.81 230.315 439.8 230.315C436.72 230.315 434.165 231.4 432.135 233.57C430.105 235.67 429.09 238.645 429.09 242.495C429.09 246.275 430.105 249.285 432.135 251.525C434.165 253.695 436.72 254.78 439.8 254.78C442.81 254.78 445.33 253.695 447.36 251.525C449.46 249.355 450.51 246.345 450.51 242.495ZM503.398 223.49C505.708 220.13 508.508 217.47 511.798 215.51C515.088 213.55 518.623 212.57 522.403 212.57V234.515H516.628C512.148 234.515 508.823 235.39 506.653 237.14C504.483 238.89 503.398 241.935 503.398 246.275V272H482.818V213.095H503.398V223.49Z" fill="black"/>
<path d="M370.78 528.233C378.071 527.717 393.955 528.22 401.816 528.221L523.964 528.22C538.285 528.218 553.464 527.687 567.613 529.775C633.387 539.488 684.779 590.077 702.133 653.594C709.154 649.597 712.006 651.702 718.422 651.225C740.738 649.565 751.12 655.903 750.759 679.605C750.502 696.434 756.739 708.623 731.683 708.57V768.972C760.658 779.518 757.702 815.793 728.797 822.557C724.73 823.509 714.08 823.031 709.667 823.033L673.082 823.019C654.778 904.403 542.27 919.21 510.546 838.92C508.489 833.716 507.297 823.174 502.834 823.019H349.902C342.318 857.063 311.137 885.64 276.615 890.416C230.1 896.851 192.844 866.735 181.582 823.019L141.627 823.022C130.22 823.027 119.298 824.581 109.304 818.306C90.103 806.252 93.9045 773.618 117.012 768.972C117.452 738.224 115.45 712.093 133.87 684.905C167.096 633.638 216.698 639.268 269.626 640.019C273.667 634.306 278.046 626.348 281.77 620.125L306.177 579.769C324.996 548.752 331.98 534.444 370.78 528.233Z" fill="black"/>
<path d="M384.25 537.901L530.337 537.89C538.662 537.891 547.289 537.636 555.567 538.212C624.474 543.006 684.914 598.641 694.759 667.149C697.798 688.305 688.095 708.372 719.129 708.558L722.572 708.57V748.548V768.972H666.838C634.661 704.731 535.989 709.77 513.126 768.972H343.302C307.732 705.353 224.021 704.399 188.448 768.03H151.561H126.028C125.712 760.034 126.574 736.886 127.75 728.517C138.193 733.015 145.456 733.451 156.575 730.599C169.858 720.667 179.774 712.691 176.315 693.35C174.301 682.089 167.905 676.396 159.154 670.197C169.114 660.083 187.138 653.133 200.814 650.062C208.438 648.316 222.754 648.827 231.236 648.832L274.813 648.843C283.346 637.802 294.653 617.014 302.302 604.422L317.489 579.292C334.286 551.758 348.247 534.78 384.25 537.901Z" fill="#FF0F00"/>
<path d="M159.154 670.197C169.114 660.083 187.138 653.133 200.814 650.062C205.516 666.478 219.24 685.137 234.424 693.061C268.376 710.78 291.567 686.021 333.277 723.247C339.672 728.955 348.272 738.25 351.521 746.367C357.918 746.842 367.744 746.372 374.526 746.367L466.83 746.366C508.88 746.358 492.854 746.698 518.405 724.182C559.994 687.534 620.777 687.224 659.658 727.737C684.44 753.558 686.033 748.626 722.572 748.548V768.972H666.838C634.661 704.731 535.989 709.77 513.126 768.972H343.302C307.732 705.353 224.021 704.399 188.448 768.03H151.561H126.028C125.712 760.034 126.574 736.886 127.75 728.517C138.193 733.015 145.456 733.451 156.575 730.599C169.858 720.667 179.774 712.691 176.315 693.35C174.301 682.089 167.905 676.396 159.154 670.197Z" fill="#CC0D10"/>
<path d="M127.75 728.517C138.193 733.015 145.456 733.452 156.575 730.599C152.787 740.655 151.329 757.13 151.561 768.03H126.028C125.712 760.034 126.574 736.886 127.75 728.517Z" fill="#6D2825"/>
<path d="M274.813 648.843C283.346 637.802 294.653 617.014 302.302 604.422L317.489 579.292C334.286 551.758 348.247 534.78 384.25 537.901C378.813 543.553 372.958 547.953 366.474 552.272C368.177 552.242 370.64 552.122 372.274 552.272L430.893 552.288C463.976 552.274 463.152 545.425 462.995 580.3L463.031 636.987C463.054 646.133 466.033 653.443 454.012 653.553L308.122 653.6C301.691 653.599 295.453 655.968 292.935 648.843L292.845 648.73C292.137 648.335 276.6 648.792 274.813 648.843Z" fill="black"/>
<path d="M274.813 648.843C283.346 637.802 294.653 617.014 302.302 604.422L317.489 579.292C334.286 551.758 348.247 534.78 384.25 537.901C378.813 543.553 372.958 547.953 366.474 552.272C368.177 552.242 370.64 552.122 372.274 552.272C335.712 557.05 335.932 570.957 319.208 600.457L305.343 624.586C301.78 630.678 294.153 642.246 292.935 648.843L292.845 648.73C292.137 648.335 276.6 648.792 274.813 648.843Z" fill="#CC0D10"/>
<path d="M303.894 644.713L328.308 602.459C347.89 568.606 345.158 561.339 388.858 561.355L433.014 561.374H454.206V644.713H355.253C339.105 644.71 319.745 645.265 303.894 644.713Z" fill="#6CD3F8"/>
<path d="M433.014 561.374H454.206V644.713H355.253C356.545 641.375 424.111 571.174 433.014 561.374Z" fill="#07BBE2"/>
<path d="M477.592 552.272C502.951 551.725 529.353 550.893 553.929 557.709C573.824 563.226 602.748 574.165 614.236 592.285C619.386 600.412 613.509 612.095 611.142 620.387L604.067 645.879L603.823 646.589C603.067 648.729 602.055 652.072 599.74 653.032C597.378 654.013 490.39 653.986 479.157 653.584C469.095 653.224 472.128 639.136 472.127 632.3L472.201 573.46C472.211 567.593 469.401 553.434 477.592 552.272Z" fill="black"/>
<path d="M480.97 561.374C522.213 561.334 540.482 559.523 579.318 576.876C588.817 581.419 604.396 589.46 608.007 600.077C603.125 615.405 599.399 629.479 594.936 644.713H515.618H480.97V561.374Z" fill="#6CD3F8"/>
<path d="M579.318 576.876C588.817 581.419 604.396 589.46 608.007 600.078C603.125 615.405 599.399 629.479 594.936 644.713H515.618C520.127 636.286 569.355 588.151 579.318 576.876Z" fill="#07BBE2"/>
<path d="M456.478 668.795C464.159 668.775 480.287 668.056 487.276 669.448C506.792 673.337 505.899 701.04 483.964 703.6C475.341 703.619 466.724 703.715 458.105 703.551C434.768 703.107 432.044 671.135 456.478 668.795Z" fill="black"/>
<path d="M456.478 677.427C464.532 677.388 481.918 676.061 488.599 679.205C495.232 682.327 493.924 692.967 483.964 694.894C476.403 694.934 457.07 696.454 451.365 692.524C443.3 686.97 448.679 678.823 456.478 677.427Z" fill="#D4AF10"/>
<path d="M583.98 730.817C608.591 729.101 632.52 739.356 648.249 758.363C663.977 777.369 669.577 802.795 663.287 826.651C653.334 864.389 616.572 888.589 577.972 882.808C539.373 877.027 511.313 843.119 512.854 804.12C514.395 765.122 545.045 733.534 583.98 730.817Z" fill="#606E74"/>
<path d="M663.287 826.651C653.334 864.389 616.572 888.589 577.972 882.808C539.373 877.027 511.313 843.119 512.854 804.12C514.395 765.122 545.045 733.534 583.98 730.817C567.708 736.964 556.296 742.947 549.037 759.791C525.018 814.197 576.566 877.04 630.023 856.005C649.341 848.403 659.704 828.14 663.287 826.651Z" fill="#46565A"/>
<path d="M591.449 769.958C611.676 769.069 628.814 784.701 629.788 804.923C630.761 825.146 615.204 842.351 594.987 843.411C574.645 844.478 557.313 828.806 556.334 808.461C555.353 788.115 571.099 770.85 591.449 769.958Z" fill="black"/>
<path d="M590.656 778.79C606.061 777.465 619.596 788.944 620.801 804.36C622.007 819.774 610.423 833.219 594.999 834.306C579.743 835.381 566.477 823.949 565.285 808.703C564.091 793.457 575.42 780.101 590.656 778.79Z" fill="#BFB9B6"/>
<path d="M321.724 857.822C296.905 884.778 256.448 890.326 225.287 871.051C194.127 851.774 181.028 813.096 194.065 778.853C207.101 744.61 242.605 724.435 278.696 730.763C306.226 735.59 328.928 755.058 337.893 781.531C346.858 808.006 340.658 837.262 321.724 857.822Z" fill="#606E74"/>
<path d="M321.724 857.822C296.905 884.778 256.448 890.326 225.287 871.051C194.127 851.774 181.028 813.096 194.065 778.853C207.101 744.61 242.605 724.435 278.696 730.763C274.038 731.788 269.319 732.293 264.553 733.313C229.967 740.718 211.66 777.115 218.635 810.308C227.543 852.705 271.848 873.249 311.47 860.708C314.739 859.673 318.302 857.352 321.724 857.822Z" fill="#46565A"/>
<path d="M264.259 769.799C284.496 767.302 302.918 781.702 305.383 801.942C307.847 822.184 293.418 840.582 273.173 843.014C252.975 845.439 234.627 831.05 232.168 810.857C229.711 790.663 244.07 772.291 264.259 769.799Z" fill="black"/>
<path d="M263.924 778.733C279.238 775.991 293.864 786.217 296.548 801.542C299.231 816.866 288.95 831.454 273.615 834.079C258.362 836.69 243.868 826.476 241.2 811.233C238.532 795.99 248.691 781.458 263.924 778.733Z" fill="#BFB9B6"/>
<path d="M347.155 777.609H508.731C506.896 784.704 504.878 792.336 504.008 799.633C504.262 802.966 503.997 810.59 504.008 814.305H351.521V799.633C350.571 791.146 349.361 785.858 347.155 777.609Z" fill="#F1CA0D"/>
<path d="M351.521 799.633H504.008C504.262 802.966 503.997 810.59 504.008 814.304H351.521V799.633Z" fill="#D4AF10"/>
<path d="M150.34 814.304C142.354 814.708 134.227 814.033 126.154 814.05C105.298 814.093 89.6462 776.242 134.09 777.609H184.165C181.874 785.82 180.402 790.984 180.1 799.633C180.014 804.576 180.041 809.362 180.1 814.304C172.5 814.284 157.474 813.769 150.34 814.304Z" fill="#D4AF10"/>
<path d="M150.34 814.304C142.354 814.708 134.227 814.033 126.154 814.05C105.298 814.093 89.6462 776.242 134.09 777.609C129.377 781.112 131.652 796.796 134.09 801.965C139.322 809.769 147.08 810.33 150.34 814.304Z" fill="#AB891A"/>
<path d="M670.403 777.609L705.833 777.588C718.547 777.587 736.847 774.266 741.497 789.779C754.606 822.431 689.327 814.316 674.958 814.304C675.007 809.376 675.045 804.563 674.958 799.633C673.676 790.715 672.804 786.358 670.403 777.609Z" fill="#F1CA0D"/>
<path d="M741.497 789.779C754.607 822.431 689.327 814.315 674.958 814.304C675.008 809.376 675.046 804.563 674.958 799.633L708.69 799.647C723.392 799.69 730.975 802.39 741.497 789.779Z" fill="#D4AF10"/>
<path d="M708.436 659.91C715.412 659.872 722.389 659.814 729.365 659.848C742.227 659.911 740.859 669.264 741.687 678.424C742.178 683.867 743.394 689.431 743.23 694.894C741.701 697.47 741.119 698.332 738.651 700.018C732.944 699.75 707.355 702.289 705.474 695.3C704.163 690.424 703.327 666.908 703.544 662.202C705.539 661.026 706.255 660.719 708.436 659.91Z" fill="#F1CA0D"/>
<path d="M151.561 676.021C171.354 682.086 175.259 721.051 144.889 722.621C138.686 724.123 134.722 722.104 129.518 719.067C135.202 698.12 141.094 692.726 151.561 676.021Z" fill="#E5FF91"/>
</svg>
