<svg width="849" height="1183" viewBox="0 0 849 1183" fill="none" xmlns="http://www.w3.org/2000/svg">
<rect x="5" y="5" width="839" height="1173" rx="45" fill="white"/>
<rect x="5" y="5" width="839" height="1173" rx="45" stroke="black" stroke-width="10"/>
<circle cx="786.5" cy="1124.5" r="11.5" fill="black"/>
<circle cx="786.5" cy="59.5" r="11.5" fill="black"/>
<path d="M77 1124.5C77 1130.85 71.8513 1136 65.5 1136C59.1487 1136 54 1130.85 54 1124.5C54 1118.15 59.1487 1113 65.5 1113C71.8513 1113 77 1118.15 77 1124.5Z" fill="black"/>
<path d="M77 59.5C77 65.8513 71.8513 71 65.5 71C59.1487 71 54 65.8513 54 59.5C54 53.1487 59.1487 48 65.5 48C71.8513 48 77 53.1487 77 59.5Z" fill="black"/>
<mask id="path-6-inside-1_97_38" fill="white">
<path d="M708 48C713.523 48 717.934 52.4996 718.616 57.9801C723.122 94.1833 751.817 122.878 788.02 127.384C793.5 128.066 798 132.477 798 138V1046C798 1051.52 793.5 1055.93 788.02 1056.62C751.817 1061.12 723.122 1089.82 718.616 1126.02C717.934 1131.5 713.523 1136 708 1136H141C135.477 1136 131.066 1131.5 130.384 1126.02C125.878 1089.82 97.1833 1061.12 60.9801 1056.62C55.4996 1055.93 51 1051.52 51 1046V138C51 132.477 55.4996 128.066 60.9801 127.384C97.1833 122.878 125.878 94.1833 130.384 57.9801C131.066 52.4996 135.477 48 141 48H708Z"/>
</mask>
<path d="M708 48C713.523 48 717.934 52.4996 718.616 57.9801C723.122 94.1833 751.817 122.878 788.02 127.384C793.5 128.066 798 132.477 798 138V1046C798 1051.52 793.5 1055.93 788.02 1056.62C751.817 1061.12 723.122 1089.82 718.616 1126.02C717.934 1131.5 713.523 1136 708 1136H141C135.477 1136 131.066 1131.5 130.384 1126.02C125.878 1089.82 97.1833 1061.12 60.9801 1056.62C55.4996 1055.93 51 1051.52 51 1046V138C51 132.477 55.4996 128.066 60.9801 127.384C97.1833 122.878 125.878 94.1833 130.384 57.9801C131.066 52.4996 135.477 48 141 48H708Z" fill="#DBEE71"/>
<path d="M130.384 1126.02L138.322 1125.03L130.384 1126.02ZM718.616 1126.02L710.678 1125.03L718.616 1126.02ZM788.02 1056.62L789.008 1064.56L788.02 1056.62ZM718.616 57.9801L726.555 56.9922L718.616 57.9801ZM718.616 57.9801L710.678 58.9681C715.635 98.8063 747.194 130.365 787.032 135.322L788.02 127.384L789.008 119.445C756.44 115.392 730.608 89.5603 726.555 56.9922L718.616 57.9801ZM798 138H790V1046H798H806V138H798ZM788.02 1056.62L787.032 1048.68C747.194 1053.64 715.635 1085.19 710.678 1125.03L718.616 1126.02L726.555 1127.01C730.608 1094.44 756.44 1068.61 789.008 1064.56L788.02 1056.62ZM708 1136V1128H141V1136V1144H708V1136ZM130.384 1126.02L138.322 1125.03C133.365 1085.19 101.806 1053.64 61.9681 1048.68L60.9801 1056.62L59.9922 1064.56C92.5603 1068.61 118.392 1094.44 122.445 1127.01L130.384 1126.02ZM51 1046H59V138H51H43V1046H51ZM60.9801 127.384L61.9681 135.322C101.806 130.365 133.365 98.8063 138.322 58.9681L130.384 57.9801L122.445 56.9922C118.392 89.5603 92.5603 115.392 59.9922 119.445L60.9801 127.384ZM141 48V56H708V48V40H141V48ZM130.384 57.9801L138.322 58.9681C138.438 58.0389 138.872 57.2306 139.427 56.6958C139.954 56.1887 140.494 56 141 56V48V40C130.84 40 123.547 48.1329 122.445 56.9922L130.384 57.9801ZM51 138H59C59 137.494 59.1887 136.954 59.6958 136.427C60.2306 135.872 61.0389 135.438 61.9681 135.322L60.9801 127.384L59.9922 119.445C51.1329 120.547 43 127.84 43 138H51ZM60.9801 1056.62L61.9681 1048.68C61.0389 1048.56 60.2306 1048.13 59.6958 1047.57C59.1887 1047.05 59 1046.51 59 1046H51H43C43 1056.16 51.1329 1063.45 59.9922 1064.56L60.9801 1056.62ZM141 1136V1128C140.494 1128 139.954 1127.81 139.427 1127.3C138.872 1126.77 138.438 1125.96 138.322 1125.03L130.384 1126.02L122.445 1127.01C123.547 1135.87 130.84 1144 141 1144V1136ZM718.616 1126.02L710.678 1125.03C710.562 1125.96 710.128 1126.77 709.573 1127.3C709.046 1127.81 708.506 1128 708 1128V1136V1144C718.16 1144 725.453 1135.87 726.555 1127.01L718.616 1126.02ZM798 1046H790C790 1046.51 789.811 1047.05 789.304 1047.57C788.769 1048.13 787.961 1048.56 787.032 1048.68L788.02 1056.62L789.008 1064.56C797.867 1063.45 806 1056.16 806 1046H798ZM788.02 127.384L787.032 135.322C787.961 135.438 788.769 135.872 789.304 136.427C789.811 136.954 790 137.494 790 138H798H806C806 127.84 797.867 120.547 789.008 119.445L788.02 127.384ZM718.616 57.9801L726.555 56.9922C725.453 48.1329 718.16 40 708 40V48V56C708.506 56 709.046 56.1887 709.573 56.6958C710.128 57.2306 710.562 58.0389 710.678 58.9681L718.616 57.9801Z" fill="black" mask="url(#path-6-inside-1_97_38)"/>
<path d="M690 102C695.523 102 699.911 106.512 700.837 111.957C705.019 136.563 724.437 155.981 749.043 160.163C754.488 161.089 759 165.477 759 171V1014C759 1019.52 754.488 1023.91 749.043 1024.84C724.711 1028.97 705.454 1048 700.984 1072.22C699.993 1077.59 695.633 1082 690.175 1082H158.825C153.367 1082 149.007 1077.59 148.016 1072.22C143.546 1048 124.288 1028.97 99.9568 1024.84C94.5121 1023.91 90 1019.52 90 1014V171C90 165.477 94.512 161.089 99.9568 160.163C124.563 155.981 143.981 136.563 148.163 111.957C149.089 106.512 153.477 102 159 102H690Z" fill="#DFE4C2"/>
<path d="M319.145 378.335C319.145 372.555 320.477 367.37 323.14 362.78C325.86 358.19 329.515 354.62 334.105 352.07C338.752 349.463 343.823 348.16 349.32 348.16C355.61 348.16 361.192 349.718 366.065 352.835C370.995 355.895 374.565 360.258 376.775 365.925H365.13C363.6 362.808 361.475 360.485 358.755 358.955C356.035 357.425 352.89 356.66 349.32 356.66C345.41 356.66 341.925 357.538 338.865 359.295C335.805 361.052 333.397 363.573 331.64 366.86C329.94 370.147 329.09 373.972 329.09 378.335C329.09 382.698 329.94 386.523 331.64 389.81C333.397 393.097 335.805 395.647 338.865 397.46C341.925 399.217 345.41 400.095 349.32 400.095C352.89 400.095 356.035 399.33 358.755 397.8C361.475 396.27 363.6 393.947 365.13 390.83H376.775C374.565 396.497 370.995 400.86 366.065 403.92C361.192 406.98 355.61 408.51 349.32 408.51C343.767 408.51 338.695 407.235 334.105 404.685C329.515 402.078 325.86 398.48 323.14 393.89C320.477 389.3 319.145 384.115 319.145 378.335ZM393.047 354.96C391.291 354.96 389.817 354.365 388.627 353.175C387.437 351.985 386.842 350.512 386.842 348.755C386.842 346.998 387.437 345.525 388.627 344.335C389.817 343.145 391.291 342.55 393.047 342.55C394.747 342.55 396.192 343.145 397.382 344.335C398.572 345.525 399.167 346.998 399.167 348.755C399.167 350.512 398.572 351.985 397.382 353.175C396.192 354.365 394.747 354.96 393.047 354.96ZM397.807 361.165V408H388.117V361.165H397.807ZM453.454 383.435C453.454 385.192 453.341 386.778 453.114 388.195H417.329C417.613 391.935 419.001 394.938 421.494 397.205C423.988 399.472 427.048 400.605 430.674 400.605C435.888 400.605 439.571 398.423 441.724 394.06H452.179C450.763 398.367 448.184 401.908 444.444 404.685C440.761 407.405 436.171 408.765 430.674 408.765C426.198 408.765 422.174 407.773 418.604 405.79C415.091 403.75 412.314 400.917 410.274 397.29C408.291 393.607 407.299 389.357 407.299 384.54C407.299 379.723 408.263 375.502 410.189 371.875C412.173 368.192 414.921 365.358 418.434 363.375C422.004 361.392 426.084 360.4 430.674 360.4C435.094 360.4 439.033 361.363 442.489 363.29C445.946 365.217 448.638 367.937 450.564 371.45C452.491 374.907 453.454 378.902 453.454 383.435ZM443.339 380.375C443.283 376.805 442.008 373.943 439.514 371.79C437.021 369.637 433.933 368.56 430.249 368.56C426.906 368.56 424.044 369.637 421.664 371.79C419.284 373.887 417.868 376.748 417.414 380.375H443.339ZM472.68 345.1V408H462.99V345.1H472.68ZM505.717 408.765C501.297 408.765 497.302 407.773 493.732 405.79C490.162 403.75 487.357 400.917 485.317 397.29C483.277 393.607 482.257 389.357 482.257 384.54C482.257 379.78 483.306 375.558 485.402 371.875C487.499 368.192 490.361 365.358 493.987 363.375C497.614 361.392 501.666 360.4 506.142 360.4C510.619 360.4 514.671 361.392 518.297 363.375C521.924 365.358 524.786 368.192 526.882 371.875C528.979 375.558 530.027 379.78 530.027 384.54C530.027 389.3 528.951 393.522 526.797 397.205C524.644 400.888 521.697 403.75 517.957 405.79C514.274 407.773 510.194 408.765 505.717 408.765ZM505.717 400.35C508.211 400.35 510.534 399.755 512.687 398.565C514.897 397.375 516.682 395.59 518.042 393.21C519.402 390.83 520.082 387.94 520.082 384.54C520.082 381.14 519.431 378.278 518.127 375.955C516.824 373.575 515.096 371.79 512.942 370.6C510.789 369.41 508.466 368.815 505.972 368.815C503.479 368.815 501.156 369.41 499.002 370.6C496.906 371.79 495.234 373.575 493.987 375.955C492.741 378.278 492.117 381.14 492.117 384.54C492.117 389.583 493.392 393.493 495.942 396.27C498.549 398.99 501.807 400.35 505.717 400.35Z" fill="black"/>
<path d="M357.81 272.735C349.2 272.735 342.13 270.705 336.6 266.645C331.07 262.515 328.095 256.635 327.675 249.005H349.62C349.83 251.595 350.6 253.485 351.93 254.675C353.26 255.865 354.975 256.46 357.075 256.46C358.965 256.46 360.505 256.005 361.695 255.095C362.955 254.115 363.585 252.785 363.585 251.105C363.585 248.935 362.57 247.255 360.54 246.065C358.51 244.875 355.22 243.545 350.67 242.075C345.84 240.465 341.92 238.925 338.91 237.455C335.97 235.915 333.38 233.71 331.14 230.84C328.97 227.9 327.885 224.085 327.885 219.395C327.885 214.635 329.075 210.575 331.455 207.215C333.835 203.785 337.125 201.195 341.325 199.445C345.525 197.695 350.285 196.82 355.605 196.82C364.215 196.82 371.075 198.85 376.185 202.91C381.365 206.9 384.13 212.535 384.48 219.815H362.115C362.045 217.575 361.345 215.895 360.015 214.775C358.755 213.655 357.11 213.095 355.08 213.095C353.54 213.095 352.28 213.55 351.3 214.46C350.32 215.37 349.83 216.665 349.83 218.345C349.83 219.745 350.355 220.97 351.405 222.02C352.525 223 353.89 223.875 355.5 224.645C357.11 225.345 359.49 226.255 362.64 227.375C367.33 228.985 371.18 230.595 374.19 232.205C377.27 233.745 379.895 235.95 382.065 238.82C384.305 241.62 385.425 245.19 385.425 249.53C385.425 253.94 384.305 257.895 382.065 261.395C379.895 264.895 376.71 267.66 372.51 269.69C368.38 271.72 363.48 272.735 357.81 272.735ZM431.847 272L415.572 247.85V272H394.992V194.3H415.572V236.195L431.847 213.095H456.522L433.317 242.705L456.942 272H431.847ZM526.396 213.095L489.016 300.035H466.651L480.721 269.48L456.571 213.095H479.461L491.851 246.485L503.821 213.095H526.396Z" fill="black"/>
<mask id="path-11-outside-2_97_38" maskUnits="userSpaceOnUse" x="402" y="1006" width="44" height="32" fill="black">
<rect fill="white" x="402" y="1006" width="44" height="32"/>
<path d="M403.32 1015.04C403.48 1012.56 404.427 1010.63 406.16 1009.24C407.92 1007.85 410.16 1007.16 412.88 1007.16C414.747 1007.16 416.36 1007.49 417.72 1008.16C419.08 1008.83 420.107 1009.73 420.8 1010.88C421.493 1012.03 421.84 1013.32 421.84 1014.76C421.84 1016.41 421.4 1017.83 420.52 1019C419.64 1020.17 418.587 1020.96 417.36 1021.36V1021.52C418.933 1022 420.16 1022.88 421.04 1024.16C421.92 1025.41 422.36 1027.03 422.36 1029C422.36 1030.57 422 1031.97 421.28 1033.2C420.56 1034.43 419.493 1035.4 418.08 1036.12C416.667 1036.81 414.973 1037.16 413 1037.16C410.12 1037.16 407.747 1036.43 405.88 1034.96C404.04 1033.47 403.053 1031.33 402.92 1028.56H407.32C407.427 1029.97 407.973 1031.13 408.96 1032.04C409.947 1032.92 411.28 1033.36 412.96 1033.36C414.587 1033.36 415.84 1032.92 416.72 1032.04C417.6 1031.13 418.04 1029.97 418.04 1028.56C418.04 1026.69 417.44 1025.37 416.24 1024.6C415.067 1023.8 413.253 1023.4 410.8 1023.4H409.76V1019.64H410.84C413 1019.61 414.64 1019.25 415.76 1018.56C416.907 1017.87 417.48 1016.77 417.48 1015.28C417.48 1014 417.067 1012.99 416.24 1012.24C415.413 1011.47 414.24 1011.08 412.72 1011.08C411.227 1011.08 410.067 1011.47 409.24 1012.24C408.413 1012.99 407.92 1013.92 407.76 1015.04H403.32ZM445.63 1011.36L434.51 1037H429.91L441.15 1011.84H426.35V1007.96H445.63V1011.36Z"/>
</mask>
<path d="M403.32 1015.04C403.48 1012.56 404.427 1010.63 406.16 1009.24C407.92 1007.85 410.16 1007.16 412.88 1007.16C414.747 1007.16 416.36 1007.49 417.72 1008.16C419.08 1008.83 420.107 1009.73 420.8 1010.88C421.493 1012.03 421.84 1013.32 421.84 1014.76C421.84 1016.41 421.4 1017.83 420.52 1019C419.64 1020.17 418.587 1020.96 417.36 1021.36V1021.52C418.933 1022 420.16 1022.88 421.04 1024.16C421.92 1025.41 422.36 1027.03 422.36 1029C422.36 1030.57 422 1031.97 421.28 1033.2C420.56 1034.43 419.493 1035.4 418.08 1036.12C416.667 1036.81 414.973 1037.16 413 1037.16C410.12 1037.16 407.747 1036.43 405.88 1034.96C404.04 1033.47 403.053 1031.33 402.92 1028.56H407.32C407.427 1029.97 407.973 1031.13 408.96 1032.04C409.947 1032.92 411.28 1033.36 412.96 1033.36C414.587 1033.36 415.84 1032.92 416.72 1032.04C417.6 1031.13 418.04 1029.97 418.04 1028.56C418.04 1026.69 417.44 1025.37 416.24 1024.6C415.067 1023.8 413.253 1023.4 410.8 1023.4H409.76V1019.64H410.84C413 1019.61 414.64 1019.25 415.76 1018.56C416.907 1017.87 417.48 1016.77 417.48 1015.28C417.48 1014 417.067 1012.99 416.24 1012.24C415.413 1011.47 414.24 1011.08 412.72 1011.08C411.227 1011.08 410.067 1011.47 409.24 1012.24C408.413 1012.99 407.92 1013.92 407.76 1015.04H403.32ZM445.63 1011.36L434.51 1037H429.91L441.15 1011.84H426.35V1007.96H445.63V1011.36Z" fill="black"/>
<path d="M403.32 1015.04L403.021 1015.02L403 1015.34H403.32V1015.04ZM406.16 1009.24L405.974 1009L405.973 1009.01L406.16 1009.24ZM417.72 1008.16L417.588 1008.43L417.72 1008.16ZM420.8 1010.88L421.057 1010.72L420.8 1010.88ZM420.52 1019L420.76 1019.18V1019.18L420.52 1019ZM417.36 1021.36L417.267 1021.07L417.06 1021.14V1021.36H417.36ZM417.36 1021.52H417.06V1021.74L417.272 1021.81L417.36 1021.52ZM421.04 1024.16L420.793 1024.33L420.794 1024.33L421.04 1024.16ZM421.28 1033.2L421.021 1033.05L421.28 1033.2ZM418.08 1036.12L418.212 1036.39L418.216 1036.39L418.08 1036.12ZM405.88 1034.96L405.691 1035.19L405.695 1035.2L405.88 1034.96ZM402.92 1028.56V1028.26H402.605L402.62 1028.57L402.92 1028.56ZM407.32 1028.56L407.619 1028.54L407.598 1028.26H407.32V1028.56ZM408.96 1032.04L408.757 1032.26L408.76 1032.26L408.96 1032.04ZM416.72 1032.04L416.932 1032.25L416.935 1032.25L416.72 1032.04ZM416.24 1024.6L416.071 1024.85L416.077 1024.85L416.24 1024.6ZM409.76 1023.4H409.46V1023.7H409.76V1023.4ZM409.76 1019.64V1019.34H409.46V1019.64H409.76ZM410.84 1019.64V1019.94L410.844 1019.94L410.84 1019.64ZM415.76 1018.56L415.605 1018.3L415.602 1018.3L415.76 1018.56ZM416.24 1012.24L416.035 1012.46L416.039 1012.46L416.24 1012.24ZM409.24 1012.24L409.441 1012.46L409.445 1012.46L409.24 1012.24ZM407.76 1015.04V1015.34H408.02L408.057 1015.08L407.76 1015.04ZM403.32 1015.04L403.619 1015.06C403.775 1012.65 404.688 1010.8 406.347 1009.47L406.16 1009.24L405.973 1009.01C404.165 1010.45 403.185 1012.47 403.021 1015.02L403.32 1015.04ZM406.16 1009.24L406.346 1009.48C408.042 1008.14 410.213 1007.46 412.88 1007.46V1007.16V1006.86C410.108 1006.86 407.798 1007.57 405.974 1009L406.16 1009.24ZM412.88 1007.16V1007.46C414.711 1007.46 416.277 1007.79 417.588 1008.43L417.72 1008.16L417.852 1007.89C416.443 1007.2 414.782 1006.86 412.88 1006.86V1007.16ZM417.72 1008.16L417.588 1008.43C418.903 1009.07 419.883 1009.94 420.543 1011.04L420.8 1010.88L421.057 1010.72C420.33 1009.52 419.257 1008.58 417.852 1007.89L417.72 1008.16ZM420.8 1010.88L420.543 1011.04C421.206 1012.13 421.54 1013.37 421.54 1014.76H421.84H422.14C422.14 1013.27 421.78 1011.92 421.057 1010.72L420.8 1010.88ZM421.84 1014.76H421.54C421.54 1016.36 421.116 1017.71 420.28 1018.82L420.52 1019L420.76 1019.18C421.684 1017.95 422.14 1016.47 422.14 1014.76H421.84ZM420.52 1019L420.28 1018.82C419.432 1019.95 418.427 1020.7 417.267 1021.07L417.36 1021.36L417.453 1021.65C418.746 1021.22 419.848 1020.4 420.76 1019.18L420.52 1019ZM417.36 1021.36H417.06V1021.52H417.36H417.66V1021.36H417.36ZM417.36 1021.52L417.272 1021.81C418.785 1022.27 419.954 1023.11 420.793 1024.33L421.04 1024.16L421.287 1023.99C420.366 1022.65 419.082 1021.73 417.448 1021.23L417.36 1021.52ZM421.04 1024.16L420.794 1024.33C421.63 1025.52 422.06 1027.07 422.06 1029H422.36H422.66C422.66 1026.98 422.21 1025.3 421.286 1023.99L421.04 1024.16ZM422.36 1029H422.06C422.06 1030.53 421.711 1031.87 421.021 1033.05L421.28 1033.2L421.539 1033.35C422.289 1032.07 422.66 1030.62 422.66 1029H422.36ZM421.28 1033.2L421.021 1033.05C420.334 1034.22 419.312 1035.16 417.944 1035.85L418.08 1036.12L418.216 1036.39C419.674 1035.64 420.786 1034.63 421.539 1033.35L421.28 1033.2ZM418.08 1036.12L417.948 1035.85C416.585 1036.52 414.939 1036.86 413 1036.86V1037.16V1037.46C415.008 1037.46 416.749 1037.11 418.212 1036.39L418.08 1036.12ZM413 1037.16V1036.86C410.172 1036.86 407.869 1036.14 406.065 1034.72L405.88 1034.96L405.695 1035.2C407.625 1036.71 410.068 1037.46 413 1037.46V1037.16ZM405.88 1034.96L406.069 1034.73C404.307 1033.3 403.35 1031.25 403.22 1028.55L402.92 1028.56L402.62 1028.57C402.757 1031.42 403.773 1033.64 405.691 1035.19L405.88 1034.96ZM402.92 1028.56V1028.86H407.32V1028.56V1028.26H402.92V1028.56ZM407.32 1028.56L407.021 1028.58C407.133 1030.07 407.711 1031.3 408.757 1032.26L408.96 1032.04L409.163 1031.82C408.236 1030.97 407.72 1029.88 407.619 1028.54L407.32 1028.56ZM408.96 1032.04L408.76 1032.26C409.816 1033.21 411.227 1033.66 412.96 1033.66V1033.36V1033.06C411.333 1033.06 410.078 1032.63 409.16 1031.82L408.96 1032.04ZM412.96 1033.36V1033.66C414.641 1033.66 415.98 1033.2 416.932 1032.25L416.72 1032.04L416.508 1031.83C415.7 1032.64 414.533 1033.06 412.96 1033.06V1033.36ZM416.72 1032.04L416.935 1032.25C417.876 1031.28 418.34 1030.04 418.34 1028.56H418.04H417.74C417.74 1029.91 417.324 1030.99 416.505 1031.83L416.72 1032.04ZM418.04 1028.56H418.34C418.34 1026.63 417.714 1025.19 416.403 1024.35L416.24 1024.6L416.077 1024.85C417.166 1025.55 417.74 1026.76 417.74 1028.56H418.04ZM416.24 1024.6L416.409 1024.35C415.161 1023.5 413.275 1023.1 410.8 1023.1V1023.4V1023.7C413.232 1023.7 414.972 1024.1 416.071 1024.85L416.24 1024.6ZM410.8 1023.4V1023.1H409.76V1023.4V1023.7H410.8V1023.4ZM409.76 1023.4H410.06V1019.64H409.76H409.46V1023.4H409.76ZM409.76 1019.64V1019.94H410.84V1019.64V1019.34H409.76V1019.64ZM410.84 1019.64L410.844 1019.94C413.027 1019.91 414.731 1019.55 415.918 1018.82L415.76 1018.56L415.602 1018.3C414.549 1018.96 412.973 1019.31 410.836 1019.34L410.84 1019.64ZM415.76 1018.56L415.915 1018.82C417.163 1018.06 417.78 1016.86 417.78 1015.28H417.48H417.18C417.18 1016.68 416.65 1017.67 415.605 1018.3L415.76 1018.56ZM417.48 1015.28H417.78C417.78 1013.93 417.34 1012.83 416.441 1012.02L416.24 1012.24L416.039 1012.46C416.793 1013.14 417.18 1014.07 417.18 1015.28H417.48ZM416.24 1012.24L416.445 1012.02C415.546 1011.18 414.289 1010.78 412.72 1010.78V1011.08V1011.38C414.191 1011.38 415.281 1011.75 416.035 1012.46L416.24 1012.24ZM412.72 1011.08V1010.78C411.176 1010.78 409.933 1011.18 409.035 1012.02L409.24 1012.24L409.445 1012.46C410.2 1011.75 411.278 1011.38 412.72 1011.38V1011.08ZM409.24 1012.24L409.039 1012.02C408.159 1012.81 407.633 1013.81 407.463 1015L407.76 1015.04L408.057 1015.08C408.207 1014.03 408.667 1013.16 409.441 1012.46L409.24 1012.24ZM407.76 1015.04V1014.74H403.32V1015.04V1015.34H407.76V1015.04ZM445.63 1011.36L445.905 1011.48L445.93 1011.42V1011.36H445.63ZM434.51 1037V1037.3H434.707L434.785 1037.12L434.51 1037ZM429.91 1037L429.636 1036.88L429.447 1037.3H429.91V1037ZM441.15 1011.84L441.424 1011.96L441.613 1011.54H441.15V1011.84ZM426.35 1011.84H426.05V1012.14H426.35V1011.84ZM426.35 1007.96V1007.66H426.05V1007.96H426.35ZM445.63 1007.96H445.93V1007.66H445.63V1007.96ZM445.63 1011.36L445.355 1011.24L434.235 1036.88L434.51 1037L434.785 1037.12L445.905 1011.48L445.63 1011.36ZM434.51 1037V1036.7H429.91V1037V1037.3H434.51V1037ZM429.91 1037L430.184 1037.12L441.424 1011.96L441.15 1011.84L440.876 1011.72L429.636 1036.88L429.91 1037ZM441.15 1011.84V1011.54H426.35V1011.84V1012.14H441.15V1011.84ZM426.35 1011.84H426.65V1007.96H426.35H426.05V1011.84H426.35ZM426.35 1007.96V1008.26H445.63V1007.96V1007.66H426.35V1007.96ZM445.63 1007.96H445.33V1011.36H445.63H445.93V1007.96H445.63Z" fill="black" mask="url(#path-11-outside-2_97_38)"/>
<path d="M156 461.626C156 447.473 167.473 436 181.626 436H184.146H664.771H667.906C682.317 436 694 447.683 694 462.094V948.433C694 962.553 682.553 974 668.433 974H665.501H183.997H182.951C168.066 974 156 961.934 156 947.049V461.626Z" fill="black"/>
<path d="M190.211 448.19C191.719 448.054 193.294 448.078 194.811 448.069L505.126 448.066L610.498 448.067L643.888 448.069C649.96 448.069 656.25 447.752 662.299 448.224C667.331 448.617 672.351 450.065 675.994 453.724C682.788 460.547 681.926 470.622 681.921 479.468L681.905 495.401C678.966 493.886 676.02 492.47 672.848 491.501C660.088 487.604 646.855 489.862 635.277 496.14C618.112 505.449 606.643 522.174 601.188 540.604C598.49 539.833 595.514 539.354 592.724 539.123C582.057 538.241 571.89 542.101 562.225 546.107C558.381 547.701 554.546 549.433 550.471 550.358C542.675 552.128 534.116 551.253 526.152 552.129C518.39 552.982 510.928 555.282 503.275 556.734C498.159 557.705 492.905 557.866 487.831 558.809C486.739 559.012 485.633 559.368 484.8 560.135C484.083 560.797 483.69 561.703 483.669 562.675C483.653 563.853 484.12 564.986 484.962 565.809C485.758 566.582 486.707 566.939 487.784 567.125C491.034 567.69 494.571 567.209 497.873 567.338C502.594 567.523 507.353 568.028 512.059 568.452C522.396 569.384 533.176 570.129 543.368 572.111C546.689 572.757 549.988 573.848 553.257 574.736C557.569 575.925 561.948 576.856 566.371 577.526C572.011 578.303 577.684 578.819 583.373 579.071C588.385 579.318 593.495 579.357 598.45 580.196C603.204 581.002 607.909 582.497 612.608 583.6C618.575 584.971 624.625 585.95 630.719 586.531C647.666 588.249 664.885 588.227 681.905 588.007L681.9 695.299C668.841 690.142 655.473 690.239 642.438 695.319C641.132 688.126 638.453 681.252 634.545 675.074C626.065 661.614 612.546 652.114 597.009 648.697C582.007 645.452 566.331 648.316 553.446 656.654C538.555 666.188 530.135 681.377 526.479 698.322C516.794 693.647 506.036 692.757 495.641 695.452C480.165 699.465 467.245 710.837 459.302 724.442C456.033 723.644 452.794 723.139 449.431 722.964C432.38 722.074 416.319 728.76 399.763 731.535C387.823 733.537 375.231 733.282 363.139 733.612C358.637 733.745 354.134 733.832 349.63 733.873C347.527 733.884 345.101 733.563 343.044 733.867C342.039 734.016 341.044 734.447 340.316 735.167C339.621 735.856 339.205 736.775 339.246 737.76C339.294 738.917 339.99 740.104 340.856 740.845C341.415 741.323 342.073 741.594 342.794 741.707C345.441 742.121 348.327 742.04 351.009 742.167C355.315 742.388 359.616 742.692 363.911 743.078L418.092 748.249C421.956 748.601 425.374 750.476 428.916 751.905C431.743 753.06 434.631 754.059 437.568 754.899C451.099 758.73 465.159 761.025 479.119 762.573C492.591 764.07 506.117 765.046 519.665 765.5C527.397 765.805 535.15 766.179 542.886 765.798C554.861 765.209 566.804 762.587 578.769 762.556C583.35 762.543 587.983 763.072 592.55 763.402C598.112 763.791 603.682 764.068 609.255 764.235C623.344 764.628 637.439 764.718 651.531 764.507C661.655 764.48 671.776 764.243 681.89 763.797L681.9 863.134C677.537 860.543 673.049 858.446 668.146 857.094C654.463 853.321 640.653 856.219 628.476 863.17C621.408 850.375 608.777 840.583 595.13 835.675C579.661 830.111 563.204 831.182 548.393 838.229C531.89 846.081 520.668 859.356 514.633 876.448C509.177 874.617 503.571 873.267 497.88 872.415C483.215 870.286 469.232 873.152 456.012 879.682C451.847 881.739 447.663 884.595 443.1 885.665C436.346 887.248 430.042 886.086 423.842 887.13C422.698 887.323 421.476 887.712 420.561 888.448C419.747 889.102 419.448 889.896 419.365 890.925C419.285 891.913 419.515 892.854 420.208 893.593C423.12 896.699 438.047 897.382 442.944 898.637C446.447 899.534 449.389 901.661 452.667 903.114C460.407 906.546 468.627 909.633 476.946 911.277C489.802 913.817 502.865 914.331 515.914 915.032C526.896 915.621 537.756 916.361 548.76 916.175C556.004 916.053 563.186 914.715 570.449 914.904C580.903 915.176 591.37 917.174 601.82 917.883C621.865 919.243 641.802 919.399 661.877 919.35C668.522 919.339 675.278 918.996 681.905 918.526L681.911 934.18C678.787 933.415 675.383 933.125 672.172 933.051C660.804 932.788 649.08 936.414 640.797 944.357C640.344 944.229 639.888 944.111 639.431 944.002C633.035 942.468 627.913 943.312 622.315 946.751C620.688 945.401 618.901 944.256 616.995 943.343C608.165 939.154 599.33 941.199 590.571 944.362C587.286 938.652 582.837 933.927 577.489 930.105C566.223 922.053 551.774 918.376 538.076 920.68C522.204 923.349 508.992 932.697 499.795 945.697C483.502 942.439 466.635 948.461 450.465 950.08C445.821 950.521 441.16 950.766 436.495 950.815C433.429 950.842 430.293 950.681 427.236 950.896C426.226 950.968 425.384 951.282 424.741 952.099C424.206 952.781 423.923 953.635 424.045 954.502C424.456 957.439 428.835 959.963 431.085 961.601C423.839 961.329 416.525 961.506 409.27 961.506H369.484H250.44L207.809 961.512C200.212 961.512 192.055 962.079 184.527 961.149C180.563 960.658 177.019 958.988 174.178 956.164C171.161 953.164 169.427 949.257 168.692 945.101C167.85 940.343 168.06 935.38 168.061 930.563L168.075 912.967L168.07 848.843C184.645 849.541 201.143 850.158 217.736 850.241C227.476 850.29 237.262 850.288 246.981 849.59C253.549 849.117 260.198 848.429 266.674 847.212C270.852 846.426 275.222 844.862 279.468 844.705C284.476 844.52 292.451 846.725 298.043 847.288C310.452 848.539 323.154 848.733 335.615 848.327C354.706 847.704 373.666 846.121 392.295 841.689C397.746 840.35 403.156 838.853 408.52 837.201C411.649 836.257 414.929 835.007 418.154 834.469C421.568 833.899 425.368 834.271 428.839 834.311C434.025 834.369 439.112 834.219 444.257 833.51C453.842 832.187 463.237 829.919 472.695 827.94C476.102 827.228 479.898 826.962 483.165 825.773C484.076 825.442 484.788 824.946 485.344 824.147C485.999 823.206 486.175 822.064 485.924 820.956C485.698 819.961 485.024 818.99 484.126 818.486C482.454 817.546 466.975 817.871 463.203 817.57C453.678 816.811 444.154 815.332 434.728 813.782C427.436 812.583 420.097 811.145 412.7 810.831C406.948 810.587 401.637 811.157 396.121 812.793C395.765 811.822 395.314 810.874 394.877 809.937C388.666 796.612 377.094 784.944 363.146 779.903C349.991 775.149 337.406 777.149 325.03 783.012C323.68 775.081 321.36 767.807 317.247 760.838C309.201 747.203 296.391 736.468 280.894 732.557C266.504 728.926 251.476 731.599 238.792 739.189C221.686 749.423 213.16 765.331 208.512 784.132C195.782 778.189 181.04 779.209 168.077 783.837L168.07 650.635C192.815 651.217 217.572 651.007 242.303 650.002C248.48 649.701 254.644 649.163 260.78 648.39C264.949 647.86 269.289 646.904 273.502 646.985C278.558 647.082 283.611 648.556 288.519 649.641C292.613 650.551 296.754 651.233 300.923 651.687C323.407 654.142 346.777 652.758 369.206 650.318C382.649 648.855 396.368 646.473 409.235 642.228C411.771 641.385 414.272 640.441 416.732 639.398C420.11 637.934 425.24 634.844 428.758 634.457C431.895 634.112 435.218 634.21 438.382 634.129C444.059 634.008 449.734 633.813 455.405 633.545C469.705 632.872 483.914 631.381 498.135 629.796C504.285 629.111 510.621 628.754 516.715 627.721C518.194 627.471 520.337 627.059 521.212 625.722C521.78 624.853 522.231 623.771 521.897 622.726C521.611 621.834 520.849 621.152 520.067 620.691C519.145 620.146 518.036 619.819 516.98 619.671C515.177 619.419 513.271 619.51 511.446 619.387C507.691 619.123 503.944 618.759 500.209 618.296C493.584 617.518 486.978 616.585 480.397 615.499C475.046 614.618 469.628 613.506 464.216 613.1C457.793 612.618 451.28 613.545 444.906 612.85C440.234 612.341 436.11 609.945 431.774 608.306C425.101 605.712 418.106 604.036 410.981 603.326C403.335 602.591 396.368 603.387 389.014 605.427C382.554 594.845 374.037 586.665 362.775 581.315C347.509 574.061 333.528 574.536 317.911 580.05C311.743 563.067 303.633 550.188 287.486 540.968C273.585 533.029 257.561 530.646 242.088 534.888C222.465 540.267 209.282 552.23 199.359 569.608C189.261 564.341 179.14 564.309 168.09 565.953C167.749 544.778 168.08 523.551 168.069 502.371L168.054 481.888C168.052 476.558 167.801 471.005 168.673 465.733C169.319 461.825 170.878 458.04 173.463 455.013C177.866 449.857 183.755 448.684 190.211 448.19Z" fill="url(#paint0_linear_97_38)"/>
<path d="M295.452 470.139C301.228 469.789 301.849 479.629 305.504 483.533C309.09 487.363 316.925 485.993 320.529 489.379C321.103 489.918 321.522 490.641 321.487 491.45C321.323 495.157 309.963 496.147 306.972 497.984C301.521 501.331 302.902 508.834 298.632 512.901C298.081 513.053 297.502 513.211 296.925 513.218C292.725 513.269 291.858 501.997 289.238 499.206C285.786 495.527 275.796 496.06 273.331 492.851C272.922 492.317 272.657 491.759 272.773 491.07C273.446 487.063 284.612 486.655 287.821 484.589C293.093 481.194 291.09 474.006 295.452 470.139Z" fill="black"/>
<path d="M296.773 483.752C300.084 488.389 298.91 488.459 304.607 491.356C300.859 493.046 298.837 494.847 297.022 498.56L296.706 498.753C295.256 494.865 292.716 493.357 289.367 491.336C293.523 489.228 294.922 488.068 296.773 483.752Z" fill="#FEFEFE"/>
<path d="M338.329 676.907C343.614 677.252 343.202 684.945 346.674 688.647C349.823 692.004 356.44 691.167 358.98 694.275C359.517 694.928 359.742 695.784 359.595 696.617C358.914 700.285 349.902 700.873 347.085 703.165C343.12 706.389 344.116 712.874 339.954 715.689C339.451 715.726 338.929 715.75 338.429 715.669C335.235 715.154 334.187 706.577 331.904 703.955C328.797 700.389 321.44 700.973 319.13 697.703C318.625 696.988 318.423 695.995 318.716 695.155C319.857 691.881 328.221 691.587 330.939 689.183C334.665 685.885 333.933 679.064 338.329 676.907Z" fill="black"/>
<path d="M338.93 690.223C339.686 691.356 340.091 692.572 341.064 693.569C341.152 693.66 341.244 693.746 341.334 693.836C342.484 694.994 344.005 695.661 345.441 696.402C342.079 697.948 340.743 698.979 339.056 702.326C337.193 699.228 335.79 697.993 332.536 696.385C335.663 694.533 337.368 693.609 338.93 690.223Z" fill="#FEFEFE"/>
<path d="M557.95 485.649C558.487 485.638 559.108 485.588 559.634 485.683C562.289 486.164 563.638 492.742 565.395 494.758C567.932 497.67 572.817 497.439 574.678 500.015C575.16 500.681 575.315 501.532 575.148 502.331C574.464 505.591 568.166 505.742 565.934 507.888C562.911 510.795 563.386 516.01 559.953 518.361C554.389 518.779 555.36 510.873 551.845 507.901C549.511 505.927 546.086 505.821 543.837 503.872C543.117 503.247 542.67 502.402 542.713 501.425C542.866 497.971 549.058 497.554 551.267 495.836C554.759 493.12 554.57 488.297 557.95 485.649Z" fill="black"/>
<path d="M558.669 498.186C559.047 498.559 559.254 499.102 559.587 499.522C560.115 500.185 560.837 500.777 561.419 501.409C561.616 502.582 559.554 503.94 558.904 505.076C558.85 505.17 558.799 505.266 558.746 505.36C557.682 503.557 556.903 502.808 555.012 501.859C556.821 500.791 557.673 500.077 558.669 498.186Z" fill="#FEFEFE"/>
<path d="M602.769 777.235C608.82 777.159 606.657 784.561 610.182 787.598C612.496 789.591 616.241 789.397 618.417 791.455C619.049 792.051 619.388 792.822 619.362 793.7C619.255 797.325 612.761 797.541 610.549 799.59C607.44 802.472 608.15 807.327 605.022 810.048C604.408 810.061 603.688 810.121 603.078 810.034C600.37 809.651 599.304 802.55 597.659 800.441C595.559 797.748 590.294 797.804 588.757 795.039C588.309 794.234 588.187 793.236 588.478 792.348C589.359 789.661 595.518 789.158 597.657 786.924C600.317 784.146 599.072 779.29 602.769 777.235Z" fill="black"/>
<path d="M603.536 790.636C603.636 790.78 603.813 791.027 603.884 791.171C604.226 791.86 604.282 792.074 604.912 792.584C605.346 792.935 605.629 793.165 605.903 793.667C605.705 793.87 605.512 794.077 605.304 794.269C604.553 794.965 604.26 795.286 603.873 796.282C603.835 796.378 603.801 796.474 603.765 796.571C603.145 795.476 602.273 794.558 601.307 793.754C601.23 793.689 601.143 793.637 601.061 793.578C602.133 793.161 602.982 791.885 603.435 790.872C603.47 790.794 603.502 790.715 603.536 790.636Z" fill="#FEFEFE"/>
<path d="M611.975 610.683C612.231 610.68 612.486 610.681 612.742 610.686C616.876 610.779 616.849 616.928 618.838 619.67C620.948 622.579 625.443 622.06 627.633 624.586C628.151 625.183 628.428 626.028 628.268 626.815C627.586 630.166 621.872 630.178 619.638 632.27C616.594 635.119 617.249 640.139 613.809 642.386C613.309 642.424 612.782 642.477 612.281 642.429C609.535 642.168 608.461 635.588 607.007 633.48C604.89 630.415 600.089 630.917 598.195 628.068C597.732 627.371 597.651 626.473 597.842 625.672C598.488 622.956 604.568 622.171 606.681 620.186C609.504 617.535 608.468 612.883 611.975 610.683Z" fill="black"/>
<path d="M612.914 623.212C613.7 624.648 614.375 625.551 615.78 626.437C614.642 627.376 613.718 628.205 612.868 629.424C611.958 627.993 611.212 627.339 609.687 626.564C611.221 625.618 612.01 624.787 612.914 623.212Z" fill="#FEFEFE"/>
<path d="M461.237 531.34C461.649 531.345 462.044 531.352 462.448 531.446C465.979 532.266 466.318 538.98 469.562 541.047C471.537 542.305 475.398 542.954 476.532 545.122C476.876 545.778 476.944 547.074 476.614 547.776C475.524 550.095 470.437 550.964 468.462 552.852C465.88 555.32 466.202 559.604 462.617 561.126C457.906 560.824 458.092 554.944 454.991 552.359C452.967 550.672 449.689 550.433 447.949 548.452C447.315 547.728 447.049 546.753 447.227 545.807C447.86 542.587 454.362 542.06 456.409 539.38C458.444 536.717 458.118 533.274 461.237 531.34Z" fill="black"/>
<path d="M462.049 543.657C462.064 543.67 462.082 543.681 462.094 543.697C462.708 544.475 463.555 545.153 464.072 545.969C464.332 546.379 464.191 546.485 464.089 546.926C463.359 547.591 462.749 548.295 462.133 549.066C461.276 548.108 460.513 547.292 459.412 546.598C460.447 545.672 461.285 544.837 462.049 543.657Z" fill="#FEFEFE"/>
<path d="M217.405 858.912C217.904 858.9 218.428 858.875 218.924 858.944C221.703 859.33 222.464 864.928 223.781 866.951C225.409 869.453 229.216 869.038 230.745 871.397C231.125 871.983 231.235 872.765 231.102 873.445C230.519 876.419 225.294 876.955 223.519 879.481C221.843 881.866 222.209 885.16 219.531 886.905C214.472 887.196 215.649 881.168 212.793 878.462C211.183 876.936 208.704 876.767 207.044 875.366C206.326 874.76 205.907 873.791 205.952 872.847C206.103 869.708 210.707 869.392 212.598 867.568C215.104 865.151 214.662 861.231 217.405 858.912Z" fill="black"/>
<path d="M218.679 870.948C219.16 871.469 219.614 871.992 220.058 872.544C219.985 873.556 219.347 874.082 218.731 874.856C218.151 874.177 217.495 873.556 216.865 872.923C217.497 872.295 218.081 871.608 218.679 870.948Z" fill="#FEFEFE"/>
<path d="M218.381 512.192C219.024 512.153 219.682 512.109 220.324 512.185C222.845 512.484 223.319 516.626 224.655 518.396C226.191 520.43 229.472 520.286 230.783 522.303C231.148 522.865 231.274 523.74 231.124 524.4C230.483 527.211 226.096 527.704 224.472 529.98C223.02 532.014 223.11 534.42 220.802 535.86C215.512 535.832 217.315 531.837 214.361 529.261C212.815 527.912 210.579 527.528 209.053 526.152C208.415 525.576 208.038 524.834 208.03 523.97C208.004 520.938 212.973 520.434 214.646 518.406C216.224 516.493 216.51 513.961 218.381 512.192Z" fill="black"/>
<path d="M219.328 522.625C219.802 522.88 220.16 523.298 220.546 523.671C220.566 524.578 220.245 524.732 219.683 525.417C219.077 525.057 218.679 524.82 218.242 524.25C218.348 523.427 218.759 523.208 219.328 522.625Z" fill="#FEFEFE"/>
<path d="M248.484 703.43C248.573 703.428 248.662 703.423 248.751 703.424C252.677 703.499 252.238 708.076 254.697 710.16C255.993 711.258 258.183 711.554 259.245 712.888C259.791 713.575 260.007 714.371 259.77 715.234C259.121 717.604 255.323 718.269 253.815 720.097C252.15 722.118 252.517 724.542 249.992 725.947C245.942 725.328 246.657 722.146 244.324 719.663C242.895 718.142 240.004 717.883 238.942 716.177C238.607 715.637 238.405 714.692 238.575 714.052C239.156 711.866 243.283 710.913 244.818 709.155C246.46 707.276 246.273 705.134 248.484 703.43Z" fill="black"/>
<path d="M254.382 542.233C258.787 541.987 263.059 542.229 267.386 543.131C285.525 546.911 299.306 559.857 306.475 576.668C307.491 579.051 309.93 587.817 310.778 588.993C311.532 590.041 312.967 590.915 314.267 590.806C317.033 590.574 319.951 588.927 322.537 587.947C331.005 584.739 339.575 583.91 348.473 585.648C360.682 588.106 371.502 595.11 378.744 605.242C380.529 607.713 381.761 610.527 383.504 612.998C383.918 613.584 384.791 614.783 385.528 614.927C387.98 615.407 392.3 613.4 394.694 612.805C396.48 612.361 398.312 612.078 400.138 611.865C410.35 610.675 420.331 613.058 429.77 616.895C433.389 618.366 437.053 620.207 440.88 621.034C447.157 622.389 453.74 621.343 460.107 621.462C465.568 621.563 470.952 622.488 476.327 623.378C457.8 624.618 439.243 624.79 420.712 625.779C411.04 626.295 401.429 627.681 391.728 628.061C371.882 629.232 351.978 628.998 332.165 627.36C317.751 626.248 303.397 624.356 288.989 623.316C280.491 622.703 271.99 622.636 263.479 622.414C253.638 622.193 243.8 621.834 233.968 621.337C232.096 614.159 228.807 608.121 222.556 603.863C216.292 599.596 208.033 597.465 200.526 598.927C199.031 596.531 197.223 594.345 195.15 592.428C187.68 585.421 178.094 583.085 168.089 583.45L168.074 575.804C175.769 573.886 184.454 573.55 191.906 576.55C195.002 577.796 199.033 581.29 202.389 580.944C203.488 580.83 204.205 580.123 204.855 579.301C206.399 577.348 207.399 574.803 208.615 572.628C210.542 569.26 212.769 566.074 215.271 563.108C225.194 551.294 238.912 543.525 254.382 542.233Z" fill="#FEFEFE"/>
<path d="M266.228 739.785C269.337 739.565 272.633 739.893 275.699 740.417C294.716 743.666 310.898 760.566 315.446 779.037C316.169 781.973 316.73 790.962 317.973 792.596C318.827 793.719 320.325 794.396 321.736 794.148C324.027 793.745 326.606 791.762 328.689 790.667C336.09 786.777 344.915 784.988 353.21 786.222C367.035 788.277 378.823 798.526 385.423 810.47C387.288 813.846 388.411 818.42 390.734 821.392C391.138 821.91 391.677 822.504 392.323 822.705C393.466 823.062 399.227 820.958 400.706 820.586C410.544 818.106 420.598 820.543 430.372 822.172C435.635 823.038 440.909 823.841 446.193 824.578C439.593 825.226 432.966 825.8 426.33 825.81C422.157 825.817 417.974 825.409 413.808 825.499C406.316 825.66 398.829 826.236 391.335 826.336C378.325 826.434 365.315 826.1 352.327 825.334C333.594 825.047 314.187 823.096 295.602 820.692C287.056 819.587 278.55 818.15 269.994 817.127C263.999 816.41 257.962 815.993 251.952 815.412C242.341 814.484 232.65 813.282 222.988 813.214C220.676 808.931 218.296 804.738 214.745 801.336C201.737 788.881 183.365 792.993 167.321 793.302C179.464 788.409 193.801 786.419 206.006 792.317C208.221 793.388 210.542 796.251 213.179 795.988C213.564 795.948 213.938 795.838 214.284 795.663C215.218 795.2 215.616 794.477 215.952 793.526C216.662 791.515 216.793 789.198 217.201 787.099C218.002 782.976 218.979 778.912 220.458 774.975C222.884 768.521 226.292 762.434 230.832 757.223C239.949 746.759 252.431 740.704 266.228 739.785Z" fill="#FEFEFE"/>
<path d="M582.127 656.247C590.335 655.406 599.516 657.754 606.773 661.51C618.882 667.777 628.465 678.731 632.061 691.982C633.09 695.775 633.204 700.543 634.435 704.045C634.795 705.07 635.862 706.439 636.957 706.731C639.592 707.433 644.583 704.176 647.03 703.193C656.87 699.203 667.889 699.274 677.676 703.39C672.415 703.315 667.149 702.902 661.89 703.288C644.504 704.564 637.36 712.663 626.623 725.048C620.043 723.784 612.669 724.421 606.022 725.046C598.285 725.756 590.58 726.78 582.926 728.116C569.315 730.627 555.905 734.114 542.291 736.646C528.797 739.235 515.146 740.934 501.428 741.729C491.958 742.026 482.473 742.794 472.992 742.773C459.891 742.744 446.83 741.729 433.762 740.956C426.072 740.5 416.487 740.366 409.057 739.01C421.75 735.895 433.955 731.438 447.231 731.533C449.618 731.55 451.878 731.761 454.226 732.225C456.656 732.706 459.304 733.676 461.784 733.596C462.892 733.561 463.632 733.276 464.422 732.487C466.268 730.642 467.248 727.91 468.64 725.717C470.411 722.928 472.65 720.247 474.912 717.846C486.941 705.083 503.98 698.386 520.893 705.161C523.559 706.229 527.514 709.388 530.238 709.243C531.784 709.161 532.52 708.495 533.145 707.099C534.313 704.492 534.393 701.168 535.023 698.38C537.084 689.258 541.08 680.574 547.201 673.458C556.23 662.963 568.416 657.288 582.127 656.247Z" fill="#FEFEFE"/>
<path d="M571.62 841.183C588.941 839.558 606.955 848.54 617.38 862.176C619.567 865.036 622.347 871.27 624.689 873.15C628.75 873.751 634.483 869.531 638.331 867.897C641.417 866.564 644.628 865.54 647.916 864.84C660.517 862.248 670.225 865.785 680.613 872.638C671.652 873.531 663.992 868.605 655.061 868.935C650.91 869.089 646.647 869.929 642.65 871.026C637.561 872.423 631.692 874.96 626.363 874.566C621.404 874.2 617.029 871.417 612.518 869.577C599.471 864.257 585.166 868.751 576.278 879.377C574.708 881.254 572.275 885.862 570.799 887.135C570.58 887.324 569.965 887.492 569.676 887.615C552.513 893.074 534.458 893.673 516.626 894.263C502.971 894.715 489.077 895.17 475.43 894.434C467.315 893.997 459.314 893.009 451.272 891.891C468.945 881.386 485.272 877.786 505.551 882.79C508.674 883.561 515.224 886.047 518.193 885.724C519.41 885.592 520.087 885.204 520.757 884.165C522.249 881.851 522.822 878.834 523.764 876.26C525.818 870.644 529.087 865.292 532.944 860.737C542.564 849.379 556.86 842.394 571.62 841.183Z" fill="#FEFEFE"/>
<path d="M467.556 750.979C484.312 751.805 501.378 750.904 518.051 749.065C548.744 745.68 578.174 735.887 608.945 733.751C612.553 733.5 616.31 733.193 619.924 733.407C622.77 733.575 625.783 734.601 628.615 734.258C629.912 734.101 630.949 733.52 631.895 732.633C634.268 730.403 636.201 727.416 638.366 724.95C646.837 715.309 655.091 711.694 667.984 711.834C672.555 711.883 677.336 712.049 681.869 712.589L681.853 754.908C660.323 755.206 638.792 755.792 617.255 755.362C610.784 755.235 604.316 755.008 597.853 754.681C591.145 754.314 584.469 753.781 577.746 753.818C566.006 753.883 554.372 756.368 542.63 756.862C533.525 757.244 524.411 756.833 515.318 756.366C499.265 755.542 483.466 754.063 467.556 751.764V750.979Z" fill="#94CAE1"/>
<path d="M543.638 928.662C556.622 926.95 572.007 934.539 580.24 944.297C582.302 946.742 584.897 952.861 587.663 953.939C590.211 954.932 596.861 951.253 599.798 950.479C602.26 949.83 604.575 949.64 607.115 949.739C611.815 949.922 615.085 951.828 618.795 954.521C619.664 955.151 620.797 956.073 621.859 956.314C624.098 956.823 626.316 954.295 628.053 953.205C632.633 950.336 636.663 952.659 641.273 953.575C644.283 954.174 645.803 951.386 647.644 949.604C648.66 948.621 649.897 947.758 651.08 946.985C660.093 941.096 671.49 940.751 681.716 942.875C681.306 947.852 680.087 952.625 676.457 956.262C674.185 958.538 671.461 959.847 668.343 960.522C660.234 962.274 650.249 961.501 641.93 961.501L600.959 961.496L499.357 961.501L469.004 961.517C463.418 961.533 457.552 961.916 452.007 961.386C448.848 961.084 445.828 959.852 442.841 958.84C448.174 958.681 453.559 958.395 458.846 957.658C468.12 956.363 477.209 954.269 486.574 953.53C489.687 953.284 492.958 953.48 496.045 953.92C497.892 954.184 499.907 954.729 501.774 954.624C505.156 954.434 508.667 948.011 510.76 945.584C519.188 935.809 530.749 929.654 543.638 928.662Z" fill="#94CAE1"/>
<path d="M486.661 902.945C494.596 903.237 502.538 903.303 510.477 903.143C528.932 902.948 547.521 902.148 565.54 897.86C569.091 897.016 573.873 896.235 576.611 893.694C578.63 891.819 579.98 888.906 581.532 886.639C586.092 879.979 593.393 875.905 601.551 876.064C609.942 876.226 616.402 882.295 624.658 883.122C635.203 884.178 644.94 877.77 655.46 877.393C661.238 877.185 666.02 879.61 671.537 880.694C675.078 881.39 678.334 881.177 681.895 880.89L681.884 909.769C656.669 910.925 631.41 910.769 606.211 909.304C600.044 908.936 593.889 908.383 587.755 907.647C582.248 907.021 576.75 906.232 571.207 906.026C562.588 905.705 554.004 907.222 545.377 907.282C536.994 907.341 528.655 906.742 520.289 906.281C508.54 905.635 496.904 904.95 485.222 903.481C485.669 903.26 486.19 903.116 486.661 902.945Z" fill="#94CAE1"/>
<path d="M168.111 592.622C177.08 592.38 185.749 594.34 191.603 601.694C193.066 603.533 193.889 606.102 195.688 607.623C197.958 609.544 201.386 607.951 204.074 607.775C207.527 607.549 211.184 608.228 214.355 609.6C226.946 615.048 223.665 625.645 228.094 629.006C230.306 630.685 251.388 630.745 255.735 630.853C267.129 631.133 278.51 631.328 289.879 632.214C300.457 633.039 311.005 634.35 321.573 635.314C331.96 636.246 342.374 636.855 352.798 637.141C367.876 637.579 382.966 637.221 398.005 636.068C395.356 637.02 392.496 637.446 389.74 637.993C366.041 643.321 327.086 645.827 302.753 643.162C298.411 642.683 294.1 641.962 289.838 641.003C284.623 639.835 279.404 638.245 274.022 638.162C268.53 638.078 262.972 639.259 257.532 639.921C252.032 640.592 246.466 640.903 240.933 641.141C216.69 642.186 192.348 641.722 168.086 641.711L168.111 592.622Z" fill="#94CAE1"/>
<path d="M180.558 801.278C182.235 801.169 183.915 801.117 185.595 801.122C196.233 801.052 205.91 802.813 212.333 812.022C214.012 814.429 215.304 817.703 217.439 819.71C218.537 820.743 219.684 821.174 221.164 821.353C225.294 821.85 229.547 821.776 233.701 822.106C244.431 823.03 255.152 824.054 265.863 825.18C285.521 827.444 304.885 831.065 324.65 832.555C343.987 834.068 363.377 834.793 382.773 834.727C376.156 836.477 368.743 837.017 361.945 837.74C343.627 839.968 320.988 840.5 302.507 838.873C298.845 838.537 295.199 838.052 291.577 837.418C287.7 836.72 283.77 835.731 279.809 835.742C274.904 835.756 270.269 837.539 265.507 838.483C259.687 839.637 253.662 840.372 247.747 840.785C238.791 841.41 229.843 841.37 220.873 841.353C203.265 841.324 185.661 840.823 168.079 839.851L168.073 802.296C172.226 801.857 176.389 801.518 180.558 801.278Z" fill="#94CAE1"/>
<path d="M658.019 499.42C666.685 498.559 674.98 502.125 681.9 507.018L681.906 522.432C680.655 522.869 679.423 523.47 678.243 524.067C667.892 529.297 661.512 538.402 657.893 549.165C643.843 549.426 630.002 553.399 616.054 554.977C605.726 556.144 595.37 555.416 585.029 556.221C577.184 556.832 569.49 558.141 561.705 559.221C556.407 559.916 551.096 560.51 545.775 561.004C538.807 561.377 531.687 561.544 524.737 560.82L524.701 560.69C534.519 559.772 544.929 561.353 554.502 558.874C564.6 556.258 573.402 549.983 583.938 548.633C588.098 548.1 592.456 548.172 596.564 549.052C599.206 549.618 602.221 550.903 604.92 550.696C606.386 550.583 607.358 550.08 608.137 548.821C609.886 545.992 610.511 541.893 611.661 538.73C614.568 530.734 619.369 523.069 624.954 516.679C633.56 506.832 644.861 500.288 658.019 499.42Z" fill="#FEFEFE"/>
<path d="M681.553 533.18C682.462 534.772 681.753 573.585 681.774 578.878C663.104 579.079 643.984 579.574 625.468 576.92C620.581 576.219 615.661 575.329 610.86 574.179C606.063 573.03 601.399 571.645 596.49 571.015C588.233 569.955 579.813 570.24 571.521 569.337C567.625 568.937 563.75 568.185 559.889 567.528C570.011 566.96 580.086 565.418 590.222 564.832C599.538 564.295 608.838 564.844 618.133 563.756C628.922 562.492 639.44 559.612 650.225 558.373C653.02 558.051 662.204 558.729 664.041 557.279C666.019 555.717 667.016 550.805 668.019 548.448C670.861 541.771 675.363 536.874 681.553 533.18Z" fill="#94CAE1"/>
<path d="M461.386 750.753C463.443 750.691 465.503 750.857 467.556 750.98V751.765C465.491 751.482 463.433 751.145 461.386 750.753Z" fill="#A1D0E7"/>
<path d="M480.14 902.567C482.315 902.671 484.489 902.797 486.661 902.945C486.19 903.116 485.669 903.26 485.222 903.481C483.503 903.249 481.833 902.949 480.14 902.567Z" fill="#A1D0E7"/>
<defs>
<linearGradient id="paint0_linear_97_38" x1="422.957" y1="446.756" x2="426.549" y2="961.148" gradientUnits="userSpaceOnUse">
<stop stop-color="#317FBB"/>
<stop offset="1" stop-color="#61C9E5"/>
</linearGradient>
</defs>
</svg>
