<svg width="849" height="1183" viewBox="0 0 849 1183" fill="none" xmlns="http://www.w3.org/2000/svg">
<rect x="5" y="5" width="839" height="1173" rx="45" fill="white"/>
<rect x="5" y="5" width="839" height="1173" rx="45" stroke="black" stroke-width="10"/>
<circle cx="786.5" cy="1124.5" r="11.5" fill="black"/>
<circle cx="786.5" cy="59.5" r="11.5" fill="black"/>
<path d="M77 1124.5C77 1130.85 71.8513 1136 65.5 1136C59.1487 1136 54 1130.85 54 1124.5C54 1118.15 59.1487 1113 65.5 1113C71.8513 1113 77 1118.15 77 1124.5Z" fill="black"/>
<path d="M77 59.5C77 65.8513 71.8513 71 65.5 71C59.1487 71 54 65.8513 54 59.5C54 53.1487 59.1487 48 65.5 48C71.8513 48 77 53.1487 77 59.5Z" fill="black"/>
<mask id="path-6-inside-1_97_9" fill="white">
<path d="M708 48C713.523 48 717.934 52.4996 718.616 57.9801C723.122 94.1833 751.817 122.878 788.02 127.384C793.5 128.066 798 132.477 798 138V1046C798 1051.52 793.5 1055.93 788.02 1056.62C751.817 1061.12 723.122 1089.82 718.616 1126.02C717.934 1131.5 713.523 1136 708 1136H141C135.477 1136 131.066 1131.5 130.384 1126.02C125.878 1089.82 97.1833 1061.12 60.9801 1056.62C55.4996 1055.93 51 1051.52 51 1046V138C51 132.477 55.4996 128.066 60.9801 127.384C97.1833 122.878 125.878 94.1833 130.384 57.9801C131.066 52.4996 135.477 48 141 48H708Z"/>
</mask>
<path d="M708 48C713.523 48 717.934 52.4996 718.616 57.9801C723.122 94.1833 751.817 122.878 788.02 127.384C793.5 128.066 798 132.477 798 138V1046C798 1051.52 793.5 1055.93 788.02 1056.62C751.817 1061.12 723.122 1089.82 718.616 1126.02C717.934 1131.5 713.523 1136 708 1136H141C135.477 1136 131.066 1131.5 130.384 1126.02C125.878 1089.82 97.1833 1061.12 60.9801 1056.62C55.4996 1055.93 51 1051.52 51 1046V138C51 132.477 55.4996 128.066 60.9801 127.384C97.1833 122.878 125.878 94.1833 130.384 57.9801C131.066 52.4996 135.477 48 141 48H708Z" fill="#7047A3"/>
<path d="M130.384 1126.02L138.322 1125.03L130.384 1126.02ZM718.616 1126.02L710.678 1125.03L718.616 1126.02ZM788.02 1056.62L789.008 1064.56L788.02 1056.62ZM718.616 57.9801L726.555 56.9922L718.616 57.9801ZM718.616 57.9801L710.678 58.9681C715.635 98.8063 747.194 130.365 787.032 135.322L788.02 127.384L789.008 119.445C756.44 115.392 730.608 89.5603 726.555 56.9922L718.616 57.9801ZM798 138H790V1046H798H806V138H798ZM788.02 1056.62L787.032 1048.68C747.194 1053.64 715.635 1085.19 710.678 1125.03L718.616 1126.02L726.555 1127.01C730.608 1094.44 756.44 1068.61 789.008 1064.56L788.02 1056.62ZM708 1136V1128H141V1136V1144H708V1136ZM130.384 1126.02L138.322 1125.03C133.365 1085.19 101.806 1053.64 61.9681 1048.68L60.9801 1056.62L59.9922 1064.56C92.5603 1068.61 118.392 1094.44 122.445 1127.01L130.384 1126.02ZM51 1046H59V138H51H43V1046H51ZM60.9801 127.384L61.9681 135.322C101.806 130.365 133.365 98.8063 138.322 58.9681L130.384 57.9801L122.445 56.9922C118.392 89.5603 92.5603 115.392 59.9922 119.445L60.9801 127.384ZM141 48V56H708V48V40H141V48ZM130.384 57.9801L138.322 58.9681C138.438 58.0389 138.872 57.2306 139.427 56.6958C139.954 56.1887 140.494 56 141 56V48V40C130.84 40 123.547 48.1329 122.445 56.9922L130.384 57.9801ZM51 138H59C59 137.494 59.1887 136.954 59.6958 136.427C60.2306 135.872 61.0389 135.438 61.9681 135.322L60.9801 127.384L59.9922 119.445C51.1329 120.547 43 127.84 43 138H51ZM60.9801 1056.62L61.9681 1048.68C61.0389 1048.56 60.2306 1048.13 59.6958 1047.57C59.1887 1047.05 59 1046.51 59 1046H51H43C43 1056.16 51.1329 1063.45 59.9922 1064.56L60.9801 1056.62ZM141 1136V1128C140.494 1128 139.954 1127.81 139.427 1127.3C138.872 1126.77 138.438 1125.96 138.322 1125.03L130.384 1126.02L122.445 1127.01C123.547 1135.87 130.84 1144 141 1144V1136ZM718.616 1126.02L710.678 1125.03C710.562 1125.96 710.128 1126.77 709.573 1127.3C709.046 1127.81 708.506 1128 708 1128V1136V1144C718.16 1144 725.453 1135.87 726.555 1127.01L718.616 1126.02ZM798 1046H790C790 1046.51 789.811 1047.05 789.304 1047.57C788.769 1048.13 787.961 1048.56 787.032 1048.68L788.02 1056.62L789.008 1064.56C797.867 1063.45 806 1056.16 806 1046H798ZM788.02 127.384L787.032 135.322C787.961 135.438 788.769 135.872 789.304 136.427C789.811 136.954 790 137.494 790 138H798H806C806 127.84 797.867 120.547 789.008 119.445L788.02 127.384ZM718.616 57.9801L726.555 56.9922C725.453 48.1329 718.16 40 708 40V48V56C708.506 56 709.046 56.1887 709.573 56.6958C710.128 57.2306 710.562 58.0389 710.678 58.9681L718.616 57.9801Z" fill="black" mask="url(#path-6-inside-1_97_9)"/>
<path d="M690 102C695.523 102 699.911 106.512 700.837 111.957C705.019 136.563 724.437 155.981 749.043 160.163C754.488 161.089 759 165.477 759 171V1014C759 1019.52 754.488 1023.91 749.043 1024.84C724.711 1028.97 705.454 1048 700.984 1072.22C699.993 1077.59 695.633 1082 690.175 1082H158.825C153.367 1082 149.007 1077.59 148.016 1072.22C143.546 1048 124.288 1028.97 99.9568 1024.84C94.5121 1023.91 90 1019.52 90 1014V171C90 165.477 94.512 161.089 99.9568 160.163C124.563 155.981 143.981 136.563 148.163 111.957C149.089 106.512 153.477 102 159 102H690Z" fill="#B48FE1"/>
<path d="M279.995 377.655C283.168 378.222 285.86 379.893 288.07 382.67C290.28 385.447 291.385 388.592 291.385 392.105C291.385 395.108 290.592 397.828 289.005 400.265C287.475 402.645 285.237 404.543 282.29 405.96C279.343 407.32 275.915 408 272.005 408H248.375V348.925H270.9C274.923 348.925 278.38 349.605 281.27 350.965C284.16 352.325 286.342 354.167 287.815 356.49C289.288 358.757 290.025 361.307 290.025 364.14C290.025 367.54 289.118 370.373 287.305 372.64C285.492 374.907 283.055 376.578 279.995 377.655ZM258.065 373.745H270.05C273.223 373.745 275.688 373.037 277.445 371.62C279.258 370.147 280.165 368.05 280.165 365.33C280.165 362.667 279.258 360.598 277.445 359.125C275.688 357.595 273.223 356.83 270.05 356.83H258.065V373.745ZM271.155 400.095C274.442 400.095 277.02 399.302 278.89 397.715C280.76 396.128 281.695 393.918 281.695 391.085C281.695 388.195 280.703 385.9 278.72 384.2C276.737 382.5 274.102 381.65 270.815 381.65H258.065V400.095H271.155ZM306.845 354.96C305.088 354.96 303.615 354.365 302.425 353.175C301.235 351.985 300.64 350.512 300.64 348.755C300.64 346.998 301.235 345.525 302.425 344.335C303.615 343.145 305.088 342.55 306.845 342.55C308.545 342.55 309.99 343.145 311.18 344.335C312.37 345.525 312.965 346.998 312.965 348.755C312.965 350.512 312.37 351.985 311.18 353.175C309.99 354.365 308.545 354.96 306.845 354.96ZM311.605 361.165V408H301.915V361.165H311.605ZM321.097 384.54C321.097 379.723 322.06 375.502 323.987 371.875C325.97 368.192 328.69 365.358 332.147 363.375C335.604 361.392 339.57 360.4 344.047 360.4C349.714 360.4 354.389 361.76 358.072 364.48C361.812 367.143 364.334 370.968 365.637 375.955H355.182C354.332 373.632 352.972 371.818 351.102 370.515C349.232 369.212 346.88 368.56 344.047 368.56C340.08 368.56 336.907 369.977 334.527 372.81C332.204 375.587 331.042 379.497 331.042 384.54C331.042 389.583 332.204 393.522 334.527 396.355C336.907 399.188 340.08 400.605 344.047 400.605C349.657 400.605 353.369 398.14 355.182 393.21H365.637C364.277 397.97 361.727 401.767 357.987 404.6C354.247 407.377 349.6 408.765 344.047 408.765C339.57 408.765 335.604 407.773 332.147 405.79C328.69 403.75 325.97 400.917 323.987 397.29C322.06 393.607 321.097 389.357 321.097 384.54ZM380.224 354.96C378.467 354.96 376.994 354.365 375.804 353.175C374.614 351.985 374.019 350.512 374.019 348.755C374.019 346.998 374.614 345.525 375.804 344.335C376.994 343.145 378.467 342.55 380.224 342.55C381.924 342.55 383.369 343.145 384.559 344.335C385.749 345.525 386.344 346.998 386.344 348.755C386.344 350.512 385.749 351.985 384.559 353.175C383.369 354.365 381.924 354.96 380.224 354.96ZM384.984 361.165V408H375.294V361.165H384.984ZM394.476 384.54C394.476 379.723 395.439 375.502 397.366 371.875C399.349 368.192 402.069 365.358 405.526 363.375C408.983 361.392 412.949 360.4 417.426 360.4C423.093 360.4 427.768 361.76 431.451 364.48C435.191 367.143 437.713 370.968 439.016 375.955H428.561C427.711 373.632 426.351 371.818 424.481 370.515C422.611 369.212 420.259 368.56 417.426 368.56C413.459 368.56 410.286 369.977 407.906 372.81C405.583 375.587 404.421 379.497 404.421 384.54C404.421 389.583 405.583 393.522 407.906 396.355C410.286 399.188 413.459 400.605 417.426 400.605C423.036 400.605 426.748 398.14 428.561 393.21H439.016C437.656 397.97 435.106 401.767 431.366 404.6C427.626 407.377 422.979 408.765 417.426 408.765C412.949 408.765 408.983 407.773 405.526 405.79C402.069 403.75 399.349 400.917 397.366 397.29C395.439 393.607 394.476 389.357 394.476 384.54ZM458.363 345.1V408H448.673V345.1H458.363ZM514.01 383.435C514.01 385.192 513.897 386.778 513.67 388.195H477.885C478.168 391.935 479.557 394.938 482.05 397.205C484.543 399.472 487.603 400.605 491.23 400.605C496.443 400.605 500.127 398.423 502.28 394.06H512.735C511.318 398.367 508.74 401.908 505 404.685C501.317 407.405 496.727 408.765 491.23 408.765C486.753 408.765 482.73 407.773 479.16 405.79C475.647 403.75 472.87 400.917 470.83 397.29C468.847 393.607 467.855 389.357 467.855 384.54C467.855 379.723 468.818 375.502 470.745 371.875C472.728 368.192 475.477 365.358 478.99 363.375C482.56 361.392 486.64 360.4 491.23 360.4C495.65 360.4 499.588 361.363 503.045 363.29C506.502 365.217 509.193 367.937 511.12 371.45C513.047 374.907 514.01 378.902 514.01 383.435ZM503.895 380.375C503.838 376.805 502.563 373.943 500.07 371.79C497.577 369.637 494.488 368.56 490.805 368.56C487.462 368.56 484.6 369.637 482.22 371.79C479.84 373.887 478.423 376.748 477.97 380.375H503.895ZM534.851 369.07V394.995C534.851 396.752 535.248 398.027 536.041 398.82C536.891 399.557 538.308 399.925 540.291 399.925H546.241V408H538.591C534.228 408 530.884 406.98 528.561 404.94C526.238 402.9 525.076 399.585 525.076 394.995V369.07H519.551V361.165H525.076V349.52H534.851V361.165H546.241V369.07H534.851ZM551.942 384.37C551.942 379.667 552.905 375.502 554.832 371.875C556.815 368.248 559.479 365.443 562.822 363.46C566.222 361.42 569.962 360.4 574.042 360.4C577.725 360.4 580.927 361.137 583.647 362.61C586.424 364.027 588.634 365.812 590.277 367.965V361.165H600.052V408H590.277V401.03C588.634 403.24 586.395 405.082 583.562 406.555C580.729 408.028 577.499 408.765 573.872 408.765C569.849 408.765 566.165 407.745 562.822 405.705C559.479 403.608 556.815 400.718 554.832 397.035C552.905 393.295 551.942 389.073 551.942 384.37ZM590.277 384.54C590.277 381.31 589.597 378.505 588.237 376.125C586.934 373.745 585.205 371.932 583.052 370.685C580.899 369.438 578.575 368.815 576.082 368.815C573.589 368.815 571.265 369.438 569.112 370.685C566.959 371.875 565.202 373.66 563.842 376.04C562.539 378.363 561.887 381.14 561.887 384.37C561.887 387.6 562.539 390.433 563.842 392.87C565.202 395.307 566.959 397.177 569.112 398.48C571.322 399.727 573.645 400.35 576.082 400.35C578.575 400.35 580.899 399.727 583.052 398.48C585.205 397.233 586.934 395.42 588.237 393.04C589.597 390.603 590.277 387.77 590.277 384.54Z" fill="black"/>
<mask id="path-10-outside-2_97_9" maskUnits="userSpaceOnUse" x="417" y="1007" width="24" height="31" fill="black">
<rect fill="white" x="417" y="1007" width="24" height="31"/>
<path d="M417.8 1012V1007.84H426.12V1037H421.52V1012H417.8ZM431.784 1012V1007.84H440.104V1037H435.504V1012H431.784Z"/>
</mask>
<path d="M417.8 1012V1007.84H426.12V1037H421.52V1012H417.8ZM431.784 1012V1007.84H440.104V1037H435.504V1012H431.784Z" fill="black"/>
<path d="M417.8 1012H417.5V1012.3H417.8V1012ZM417.8 1007.84V1007.54H417.5V1007.84H417.8ZM426.12 1007.84H426.42V1007.54H426.12V1007.84ZM426.12 1037V1037.3H426.42V1037H426.12ZM421.52 1037H421.22V1037.3H421.52V1037ZM421.52 1012H421.82V1011.7H421.52V1012ZM417.8 1012H418.1V1007.84H417.8H417.5V1012H417.8ZM417.8 1007.84V1008.14H426.12V1007.84V1007.54H417.8V1007.84ZM426.12 1007.84H425.82V1037H426.12H426.42V1007.84H426.12ZM426.12 1037V1036.7H421.52V1037V1037.3H426.12V1037ZM421.52 1037H421.82V1012H421.52H421.22V1037H421.52ZM421.52 1012V1011.7H417.8V1012V1012.3H421.52V1012ZM431.784 1012H431.484V1012.3H431.784V1012ZM431.784 1007.84V1007.54H431.484V1007.84H431.784ZM440.104 1007.84H440.404V1007.54H440.104V1007.84ZM440.104 1037V1037.3H440.404V1037H440.104ZM435.504 1037H435.204V1037.3H435.504V1037ZM435.504 1012H435.804V1011.7H435.504V1012ZM431.784 1012H432.084V1007.84H431.784H431.484V1012H431.784ZM431.784 1007.84V1008.14H440.104V1007.84V1007.54H431.784V1007.84ZM440.104 1007.84H439.804V1037H440.104H440.404V1007.84H440.104ZM440.104 1037V1036.7H435.504V1037V1037.3H440.104V1037ZM435.504 1037H435.804V1012H435.504H435.204V1037H435.504ZM435.504 1012V1011.7H431.784V1012V1012.3H435.504V1012Z" fill="black" mask="url(#path-10-outside-2_97_9)"/>
<path d="M360.13 233.99C364.47 234.97 367.9 237.14 370.42 240.5C373.01 243.79 374.305 247.57 374.305 251.84C374.305 258.14 372.135 263.075 367.795 266.645C363.455 270.215 357.365 272 349.525 272H312.88V197.975H348.37C355.93 197.975 361.845 199.655 366.115 203.015C370.455 206.375 372.625 211.1 372.625 217.19C372.625 221.53 371.47 225.17 369.16 228.11C366.92 230.98 363.91 232.94 360.13 233.99ZM333.46 227.375H343.855C349.035 227.375 351.625 225.24 351.625 220.97C351.625 216.56 349.035 214.355 343.855 214.355H333.46V227.375ZM345.43 255.41C350.61 255.41 353.2 253.24 353.2 248.9C353.2 246.66 352.5 244.945 351.1 243.755C349.77 242.565 347.845 241.97 345.325 241.97H333.46V255.41H345.43ZM393.719 207.635C390.079 207.635 387.139 206.655 384.899 204.695C382.729 202.665 381.644 200.145 381.644 197.135C381.644 194.055 382.729 191.5 384.899 189.47C387.139 187.44 390.079 186.425 393.719 186.425C397.289 186.425 400.159 187.44 402.329 189.47C404.569 191.5 405.689 194.055 405.689 197.135C405.689 200.145 404.569 202.665 402.329 204.695C400.159 206.655 397.289 207.635 393.719 207.635ZM403.904 213.095V272H383.324V213.095H403.904ZM452.479 272L436.204 247.85V272H415.624V194.3H436.204V236.195L452.479 213.095H477.154L453.949 242.705L477.574 272H452.479ZM539.888 241.865C539.888 243.475 539.783 245.085 539.573 246.695H500.618C500.828 249.915 501.703 252.33 503.243 253.94C504.853 255.48 506.883 256.25 509.333 256.25C512.763 256.25 515.213 254.71 516.683 251.63H538.628C537.718 255.69 535.933 259.33 533.273 262.55C530.683 265.7 527.393 268.185 523.403 270.005C519.413 271.825 515.003 272.735 510.173 272.735C504.363 272.735 499.183 271.51 494.633 269.06C490.153 266.61 486.618 263.11 484.028 258.56C481.508 254.01 480.248 248.655 480.248 242.495C480.248 236.335 481.508 231.015 484.028 226.535C486.548 221.985 490.048 218.485 494.528 216.035C499.078 213.585 504.293 212.36 510.173 212.36C515.983 212.36 521.128 213.55 525.608 215.93C530.088 218.31 533.588 221.74 536.108 226.22C538.628 230.63 539.888 235.845 539.888 241.865ZM518.888 236.72C518.888 234.2 518.048 232.24 516.368 230.84C514.688 229.37 512.588 228.635 510.068 228.635C507.548 228.635 505.483 229.335 503.873 230.735C502.263 232.065 501.213 234.06 500.723 236.72H518.888Z" fill="black"/>
<path d="M460.897 495.216C472.894 494.788 485.786 495.055 497.812 495.509C500.209 495.6 504.541 496.952 506.869 496.989C518.816 497.174 529.41 496.43 540.464 502.094C547.289 505.592 553.165 510.854 555.688 518.439C556.715 521.531 557.174 526.193 555.637 529.211C564.834 541.576 550.215 545.523 544.963 554.577C543.835 556.522 540.95 559.585 539.38 561.203C543.564 565.529 546.67 577.427 548.683 583.361C552.307 594.05 555.986 604.72 559.724 615.369C560.774 618.383 561.843 621.567 562.907 624.564C566.068 633.456 568.581 629.319 574.696 626.374C580.48 623.532 586.484 621.16 592.653 619.283C616.666 612.045 643.132 611.018 667.543 616.97C677.666 619.44 681.763 624.564 678.822 634.949C704.504 646.276 724.7 662.613 738.681 687.32C754.538 715.344 758.267 754.294 749.015 785.052C738.589 819.72 716.393 843.64 685.198 860.796C693.583 861.424 736.034 862.317 740.08 865.775L740.043 866.414C739.901 866.541 739.841 866.599 739.681 866.722C725.347 877.589 339.076 875.702 287.638 874.887C255.935 874.427 224.238 873.635 192.552 872.511C174.68 871.869 151.838 871.264 134.326 869.275C132.146 869.069 121.75 868 121.189 866.19C121.333 865.957 121.367 865.868 121.545 865.684C124.912 862.216 166.622 861.026 173.692 860.747C151.733 849.236 136.861 837.288 122.98 816.056C106.912 791.477 100.297 755.471 106.661 726.724C93.0054 723.71 94.9699 713.46 98.9086 702.768C102.539 692.914 107.174 683.609 113.039 674.896C105.615 669.216 102.642 660.983 108.452 652.807C110.939 649.307 114.736 646.964 118.978 646.309C124.123 645.531 128.796 647.028 132.903 650.081C154.438 630.094 178.006 618.516 207.335 614.934C217.508 613.731 227.784 613.685 237.967 614.796C266.4 617.684 284.795 626.841 307.102 644.274C314.863 635.799 323.34 627.391 331.278 618.958C324.873 615.615 325.186 611.613 322.177 605.142C315.678 604.839 309.353 608.598 307.432 599.802C291.751 594.705 274.038 585.572 272.853 566.278C272.453 557.264 279.462 550.08 287.844 547.868C309.408 542.176 331.823 550.715 353.897 548.693C366.918 548.113 384.54 548.689 388.643 563.88C394.25 584.639 362.163 589.509 347.876 593.261C360.395 596.352 354.237 607.586 355.865 611.061C361.431 610.1 370.751 607.323 376.507 605.768L414.496 595.443L475.491 578.691C490.391 574.636 506.068 570.646 520.788 566.224C520.17 556.15 527.565 548.829 533.805 541.232C525.047 532.766 522.826 527.44 510.794 523.64C507.836 525.814 503.868 527.422 500.066 527.581C485.344 528.2 469.43 528.543 454.851 527.101C448.357 525.87 442.961 520.391 442.728 513.849C442.262 500.735 448.712 496.169 460.897 495.216ZM426.78 740.021C437.233 755.564 439.549 777.757 426.092 792.369C430.928 798.409 435.711 804.252 440.988 809.923C448.218 808.578 454.224 809.965 455.785 818.256C456.507 822.088 455.986 827.348 453.685 830.624C452.142 832.829 449.756 834.299 447.092 834.685C444.865 835.025 442.128 834.651 440.105 833.629C435.221 835.219 434.229 835.243 429.281 833.878C424.285 835.666 424.307 834.325 419.596 834.159C416.023 834.337 413.785 835.678 410.301 833.822C407.453 832.304 405.169 830.148 404.219 826.934C402.028 819.52 403.342 813.822 410.618 810.802C409.516 809.485 407.836 807.594 406.901 806.229C400.864 807.631 397.726 808.517 391.385 808.442C384.465 808.36 380.027 805.798 373.805 804.842C367.655 803.896 360.848 803.257 354.603 802.464C347.003 801.425 339.418 800.273 331.852 799.008C321.119 824.702 300.171 845.658 275.874 858.827L280.641 858.581C343.083 857.371 405.538 856.999 467.99 857.468L530.68 858.141C546.729 858.547 562.784 858.82 578.838 858.96C549.445 843.295 527.629 816.418 518.338 784.429C517.63 782.041 516.715 778.734 516.327 776.281C512.136 776.238 508.674 775.88 505.42 772.749C499.952 767.487 500.314 749.184 500.423 741.656C500.894 708.753 515.7 672.768 539.313 649.753C540.349 648.723 541.441 647.749 542.583 646.837C539.675 642.09 538.011 631.779 535.096 628.583C511.464 653.802 487.487 678.695 463.171 703.255C451.189 715.657 439.058 727.913 426.78 740.021ZM364.928 636.466C372.235 659.482 379.674 682.456 387.243 705.387L392.726 722.516C396.407 722.635 399.311 722.931 402.948 723.724C414.216 712.082 425.542 700.496 436.926 688.967L483.583 641.127C497.273 627.288 512.918 612.103 526.019 597.912C525.42 596.322 524.38 593.271 523.535 591.935L522.954 591.773C508.362 595.969 493.734 600.038 479.072 603.98L403.481 625.339C390.734 628.965 377.542 632.54 364.928 636.466ZM323.364 660.991C338.381 680.393 347.188 697.127 351.729 721.387L352.256 724.187L363.508 723.947C361.414 716.909 340.69 645.543 339.077 643.952C333.93 649.714 328.691 655.395 323.364 660.991ZM134.423 754.571C134.945 763.064 136.011 770.235 138.685 778.397L185.137 762.635C191.183 760.564 198.885 758.411 204.65 756.13C204.583 754.597 204.824 754.146 204.066 753.04C202.791 752.488 200.661 752.849 199.183 752.975L134.423 754.571ZM137.457 726.385C149.026 728.997 160.551 731.802 172.027 734.797C181.048 737.172 191.782 740.328 200.858 742.246L206.579 743.518L208.202 741.143C197.583 734.166 184.953 727.349 173.819 720.958C165.069 715.936 154.523 709.011 145.8 704.535C141.9 712.622 139.719 717.56 137.457 726.385ZM134.35 751.768C146.329 751.607 158.37 751.015 170.436 750.816C179.459 750.666 192.857 750.699 201.413 749.82C203.032 749.715 203.555 749.952 204.738 749.142C205.073 748.113 205.238 747.316 205.459 746.27C187.915 742.633 171.619 737.498 154.249 733.373C150.356 732.448 140.511 729.72 136.902 729.271C135.056 736.489 134.346 744.33 134.35 751.768ZM147.037 797.377C148.123 799.078 149.235 800.892 150.43 802.507C161.955 793.806 173.584 785.243 185.313 776.82C187.955 774.928 205.763 762.982 206.359 761.571C206.194 760.76 205.856 759.928 205.188 759.39C192.79 763.164 180.793 767.313 168.556 771.506C158.924 774.808 149.275 777.801 139.641 781.204C141.781 787.205 143.685 791.889 147.037 797.377ZM719.847 725.808C717.99 718.682 715.155 710.038 711.169 703.798L710.706 703.53C697.968 711.96 685.093 720.182 672.084 728.192C665.314 732.378 656.851 737.017 650.549 741.59L650.485 742.314C652.117 743.931 656.961 742.062 659.122 741.485C677.263 737.475 695.138 731.279 713.348 727.336C715.476 726.875 717.747 726.35 719.847 725.808ZM723.026 751.092C722.943 746.441 722.269 732.984 720.457 728.934L720.251 728.791C698.385 733.811 677.139 740.598 655.287 745.477C653.911 745.785 651.641 745.918 651.599 747.742C652.7 749.809 655.319 749.413 657.402 749.373C670.465 749.987 683.671 750.178 696.752 750.45C705.357 750.629 714.462 751.209 723.026 751.092ZM718.696 776.764L719.687 773.96C721.471 766.587 722.21 761.778 723.021 754.227C717.733 753.511 710.912 753.636 705.495 753.537C687.863 753.214 670.034 752.342 652.416 752.452L652.021 754.446C651.957 754.364 712.517 774.391 718.696 776.764ZM627.445 658.706C623.211 659.182 619.271 659.634 615.129 660.711C618.931 677.342 622.592 694.004 626.11 710.697C627.133 715.476 628.422 720.437 629.371 725.169C629.88 727.699 629.784 728.697 631.871 730.13C633.091 730.124 633.449 729.301 633.476 728.087C634.009 704.904 636.141 681.611 635.981 658.412C633.165 658.451 630.238 658.431 627.445 658.706ZM557.458 796.691C558.371 798.198 559.348 799.896 560.307 801.353C568.366 795.161 576.503 789.064 584.704 783.061C589.213 779.831 614.799 763.212 616.386 761.022C616.377 760.052 616.432 760.399 615.551 759.483L615.097 759.366C600.148 763.948 585.278 768.78 570.489 773.862C564.467 775.887 555.986 779.059 550.119 780.661C552.114 786.114 554.472 791.696 557.458 796.691ZM712.118 793.107C714.499 788.392 716.017 784.694 717.765 779.703C707.371 775.706 694.271 771.617 683.744 768.031C677.754 765.989 655.145 758.21 649.893 758.287C651.741 761.049 664.864 769.309 668.662 771.932L708.449 799.436C709.724 797.336 710.999 795.294 712.118 793.107ZM647.499 739.55C650.755 737.71 653.966 735.794 657.136 733.801C673.644 723.908 693.734 711.576 709.591 700.684C706.834 696.378 700.243 686.356 696.129 683.504C681.221 699.902 666.598 717.241 652.026 733.995C650.558 735.685 648.806 737.748 647.499 739.55ZM553.243 776.602C567.251 771.74 581.296 766.971 595.369 762.295C598.598 761.227 611.822 757.195 613.932 756.081L614.079 755.695C612.569 752.785 608.152 754.492 605.341 754.315C592.25 754.781 579.159 755.069 566.063 755.179C560.325 755.221 550.665 754.937 545.133 755.354C545.619 764.455 546.789 769.139 549.202 778.001L553.243 776.602ZM570.389 813.01C572.04 814.734 574.168 817.095 575.989 818.544C579.934 814.128 619.184 767.599 619.945 765.208C619.505 764.366 619.349 764.327 618.546 763.758C599.203 776.335 580.365 789.671 562.073 803.734C564.884 807.014 567.38 809.889 570.389 813.01ZM147.48 701.725C159.009 708.653 170.594 715.487 182.234 722.226C188.692 725.954 196.472 730.123 202.692 734.033C205.582 735.736 209.199 738.002 212.093 739.529C207.864 734.158 199.847 726.158 194.931 720.99L160.304 684.969C154.908 690.357 151.394 695.122 147.48 701.725ZM303.705 785.714C305.182 781.898 306.367 777.684 307.426 773.715C298.569 770.845 289.66 768.14 280.703 765.601C277.565 764.722 270.529 762.613 267.551 762.266C261.465 761.556 252.028 761.013 245.934 761.191C244.589 761.463 244.636 761.208 244.056 762.027C244.576 763.058 257.594 773.03 259.48 774.265C260.611 775.006 263.221 776.217 264.544 776.595C268.662 777.77 301.452 786.833 303.067 786.727C303.515 786.181 303.487 786.341 303.705 785.714ZM699.853 810.467C702.403 807.484 704.243 805.139 706.55 801.963C699.67 797.041 651.205 762.833 648.159 762.226C647.898 763.015 647.535 763.502 648.017 764.082C651.737 768.577 656.163 773.555 659.878 777.978L682.272 804.79C685.62 808.733 689.629 813.664 693.165 817.315C695.298 815.155 697.844 812.695 699.853 810.467ZM152.122 804.947C154.634 808.382 157.199 811.253 160.133 814.338C162.16 816.347 163.606 817.678 165.809 819.491C177.223 805.225 197.075 782.249 209.153 767.148C209.17 766.881 209.187 766.614 209.203 766.347C208.612 765.483 208.582 765.472 207.622 765.117C188.755 777.874 170.247 791.156 152.122 804.947ZM636.985 769.501C635.577 771.405 636.6 789.488 636.623 793.018L636.66 840.904C641.829 840.446 646.233 840.157 651.352 839.157L652.796 838.709C653.452 837.284 651.31 830.358 650.856 828.313L645.182 802.589C644.265 798.421 638.756 770.795 636.985 769.501ZM298.533 702.771C297.297 700.824 293.889 695.263 292.544 693.883C284.594 703.214 273.016 715.614 264.086 724.086L269.252 720.832C278.756 714.995 288.875 708.124 298.533 702.771ZM223.027 840.988C222.888 832.687 223.238 774.979 221.884 772.673C221.084 772.306 221.109 772.331 220.283 772.273C217.294 787.59 214.209 802.888 211.029 818.166C209.633 825.006 207.915 832.655 206.793 839.509L211.063 840.219C215.564 840.756 218.473 841.07 223.027 840.988ZM192.588 835.37C196.495 836.799 199.799 837.925 203.856 838.92L212.992 793.697C214.146 787.998 216.694 776.868 217.271 771.585L216.339 770.833C207.173 791.568 196.264 812.622 187.469 833.132C189.351 834.108 190.598 834.611 192.588 835.37ZM262.332 729.461C265.488 729.289 268.641 729.082 271.792 728.841C281.874 728.232 298.553 727.618 308.028 726.305C306.605 721.354 303.097 709.741 299.859 705.693L299.567 705.562C289.069 711.931 271.729 722.184 262.332 729.461ZM294.409 802.422L278.41 791.074C276.31 789.581 269.255 784.435 267.322 783.614C261.471 781.128 251.796 777.232 245.759 775.373C257.962 788.88 269.86 803.384 282.025 817.107C284.172 814.904 286.28 812.796 288.255 810.435C290.386 807.778 292.477 805.229 294.409 802.422ZM244.36 661.528C239.801 682.577 236.118 706.199 230.697 726.666C234.346 722.134 234.928 721.038 237.28 715.69C242.308 705.458 247.157 695.124 251.993 684.799C254.712 678.991 257.882 673.009 260.495 667.213C255.299 664.835 249.898 662.932 244.36 661.528ZM230.551 771.21C230.364 773.709 234.477 789.542 235.313 792.948L246.469 837.749C250.407 836.383 254.038 835.076 257.822 833.305L262.02 831.212C254.111 816.012 246.382 800.719 238.835 785.336C237.585 782.73 233.709 774.425 232.089 771.582C231.994 771.416 230.85 771.23 230.551 771.21ZM555.738 704.888C559.339 707.079 562.967 709.213 566.632 711.289C567.719 711.907 568.999 712.684 570.086 713.25C567.494 709.45 565.847 706.276 563.843 702.136C563.458 701.346 561.297 696.888 560.912 696.412C558.976 699.116 557.394 702.002 555.738 704.888ZM610.877 751.432L610.707 751.131C604.061 750.201 596.772 750.381 590.025 750C574.925 749.149 560.004 746.878 544.858 746.545L544.849 752.48C559.944 752.44 575.035 752.216 590.121 751.808C596.006 751.677 605.451 751.817 610.877 751.432ZM547.514 727.997C563.279 732.486 581.81 736.249 597.268 741.441C599.212 742.005 601.588 742.627 603.451 743.332C592.121 736.025 583.993 729.827 574.636 720.182C572.379 717.856 557.775 709.411 554.348 707.82C551.188 715.292 549.344 720.092 547.514 727.997ZM290.197 764.851C295.065 766.626 302.828 769.224 307.786 770.442L308.229 770.211L308.904 766.913C302.77 766.198 296.231 765.667 290.197 764.851ZM239.798 717.455C242.195 714.971 244.675 712.457 246.984 709.902C255.383 701.524 263.335 692.648 271.428 683.973C273.269 682 275.326 679.837 277.017 677.761C273.489 675.167 266.96 670.285 263.111 668.577C259.812 676.25 255.619 683.958 252.064 691.553C248.001 700.23 244.011 708.841 239.798 717.455ZM600.451 745.697L601.162 745.752C599.68 744.927 591.479 742.888 589.383 742.303C580.085 739.657 570.765 737.099 561.421 734.629C556.756 733.418 551.316 732.313 546.807 731.039C546.165 734.904 545.445 739.383 545.395 743.315C563.444 743.9 582.516 745.67 600.451 745.697ZM276.266 786.067C282.984 790.538 289.62 795.133 296.169 799.849L297.892 797.179C298.697 795.668 299.583 794.077 300.35 792.559L284.294 788.167C282.41 787.652 277.928 786.303 276.266 786.067ZM581.966 675.502C589.63 694.058 596.914 703.612 611.909 716.216L617.289 720.7C611.29 708.143 598.726 683.284 592.084 669.674C591.864 669.587 591.644 669.499 591.429 669.411C587.915 671.524 585.273 673.153 581.966 675.502ZM264.731 829.611C267.949 827.963 271.028 825.842 273.909 823.661L279.67 819.115C270.821 809.001 262.031 798.836 253.3 788.619C248.861 783.472 244.102 777.725 239.294 772.895C238.359 771.956 236.572 771.212 235.328 770.671C236.269 773.649 242.069 785.217 243.946 788.874C250.632 801.9 257.491 816.998 264.731 829.611ZM633.6 840.872C633.605 833.884 633.655 771.063 633.339 770.347C632.623 770.028 632.536 769.955 631.738 769.82C629.619 776.56 628.642 783.476 626.981 790.287C623.083 806.304 619.931 822.919 615.936 838.865C617.386 839.146 618.977 839.49 620.418 839.726C624.784 840.387 629.188 840.77 633.6 840.872ZM361.653 795.537C359.163 793.035 357.393 791.173 355.398 788.244C350.527 781.093 348.527 774.538 339.232 772.24C338.188 778.669 336.649 786.008 334.586 792.196C341.423 793.505 349.961 794.531 356.914 795.056L361.653 795.537ZM602.02 834.643C605.574 836.026 609.317 837.298 613.069 838.005L622.904 794.437C624.541 787.183 627.165 776.956 628.357 769.864C627.734 769.248 627.743 769.276 627 768.916C624.202 774.666 621.078 780.819 618.606 786.684C612.037 802.251 604.001 817.143 597.176 832.569C598.657 833.22 600.533 834.106 602.02 834.643ZM225.962 840.949C231.636 840.61 235.261 840.057 240.747 839.077C241.628 838.888 242.793 838.791 243.341 838.157C242.901 834.654 240.523 826.885 239.587 823.035L230.436 785.448C229.945 783.371 227.794 773.318 227.092 772.498L225.636 772.246C225.023 773.555 225.415 777.85 225.46 779.465C225.574 783.471 225.634 787.478 225.64 791.486L225.962 840.949ZM225.068 658.834C225.254 682.92 225.3 707.006 225.209 731.092L225.574 731.366C227.308 729.905 228.884 721.533 229.468 719.018L237.154 681.51C238.524 674.803 240.22 667.32 241.349 660.621C236.822 659.785 229.704 658.79 225.068 658.834ZM641.031 768.064C640.458 770.503 644.379 784.709 645.123 788.052L656.195 837.939C660.342 836.64 664.933 835.22 668.873 833.353C670.093 832.732 671.864 831.896 672.96 831.159C662.41 810.827 651.998 790.6 642.627 769.696C642.247 768.844 641.866 768.433 641.031 768.064ZM659.296 661.977C655.493 677.003 651.553 691.993 647.48 706.947C645.916 712.599 640.944 729.344 640.49 734.16C643.026 730.541 645.026 725.882 647.379 722.002C655.746 706.958 663.686 691.498 672.006 676.404C673.387 673.896 674.758 671.267 675.937 668.661C670.781 666.065 664.892 663.451 659.296 661.977ZM638.77 658.409C638.751 681.49 637.366 704.681 636.403 727.733C636.357 728.782 636.174 729.692 636.646 730.462L637.366 730.642C638.605 729.828 640.756 720.285 641.425 717.887L656.558 661.049C650.274 659.326 645.297 658.414 638.77 658.409ZM644.586 765.689C644.696 767.434 647.535 772.856 648.379 774.82C656.438 793.592 666.617 811.407 675.63 829.705C678.396 828.127 682.006 826.002 684.551 824.069C686.767 822.478 688.881 821.009 690.936 819.21C679.171 806.441 668.442 792.634 657.113 779.489C655.429 777.536 646.329 766.063 644.586 765.689ZM693.776 681.302C689.501 677.188 683.849 672.938 678.63 670.102L655.75 712.757C654.328 715.381 644.448 732.451 644.801 734.428L645.999 735.507C647.498 735.079 651.223 730.12 652.397 728.689C662.186 717.144 672.644 706.187 682.226 694.435C685.863 689.974 690.147 685.792 693.776 681.302ZM611.267 661.648C605.492 663.15 599.901 665.289 594.598 668.026C603.231 684.913 611.817 703.719 620.817 720.132C622.56 723.318 625.459 729.141 627.798 731.535C626.266 725.251 623.83 714.891 622.5 708.769C621.321 703.361 613.157 662.781 611.808 661.555L611.267 661.648ZM622.651 767.124C612.62 779.138 602.836 791.213 593.08 803.449C588.456 809.25 582.915 814.932 578.296 820.659C580.457 822.321 582.787 824.196 585.048 825.692C588.254 827.753 591.002 829.49 594.442 831.16C597.075 825.612 623.775 769.505 623.789 767.814C623.482 767.618 622.963 767.26 622.651 767.124ZM204.89 727.013C207.797 730.131 211.199 733.969 214.358 736.724C207.686 724.428 201.124 712.073 194.671 699.661L184.148 678.791C183.598 677.691 180.259 670.805 179.723 670.186C172.859 674.022 168.264 677.485 162.42 682.84L187.881 709.156C193.487 714.934 199.6 721.017 204.89 727.013ZM199.359 662.029C193.306 663.707 188.03 665.665 182.47 668.648C187.856 679.348 193.302 690.017 198.808 700.656C201.722 706.403 207.723 718.431 211.134 723.814C212.157 725.768 215.511 732.455 216.614 733.868C218.882 732.943 217.001 729.676 216.44 727.832C211.645 712.061 208.362 695.795 204.018 679.897C202.548 674.519 201.249 667.092 199.359 662.029ZM211.636 768.856C203.73 778.568 195.758 788.226 187.721 797.83C182.084 804.452 173.16 814.459 168.189 821.493C170.448 823.212 172.554 824.858 174.955 826.385C177.438 827.923 181.964 830.764 184.664 831.86C192.247 815.957 205.53 787.529 213.076 770.226C213.007 769.992 212.938 769.759 212.869 769.526L211.636 768.856ZM217.244 658.995C212.157 659.348 207.271 659.882 202.3 661.085C207.284 680.95 212.436 702.194 217.788 721.905C218.78 725.451 220.164 731.202 221.757 734.295C222.378 730.461 222.16 723.153 222.138 719.064C222.129 710.763 222.048 702.463 221.894 694.164C221.705 682.467 222.118 670.628 222.052 658.909C220.71 658.897 218.489 658.811 217.244 658.995Z" fill="black"/>
<path d="M534.073 569.013C535.85 571.207 552.899 621.384 555.587 628.981C552.816 630.285 549.115 631.488 546.179 632.331C543.643 625.895 541.812 619.128 539.058 612.788C522.01 631.899 502.291 651.459 484.418 670.025L448.793 706.63C439.19 716.515 429.523 726.75 419.546 736.249C416.029 732.96 412.96 731.158 408.899 728.588L494.165 642.13L517.222 618.999C521.561 614.679 531.413 604.824 535.009 600.161C533.71 594.755 531.063 586.973 529.377 581.482C523.123 582.74 515.604 585.083 509.368 586.861L477.795 595.846L388.561 621.044C377.077 624.248 365.42 627.712 353.912 630.716L373.649 689.912C377.403 701.327 381.237 712.715 385.15 724.076C380.963 724.453 376.784 724.925 372.618 725.492C365.533 699.803 357.217 674.277 349.692 648.702C347.583 641.539 345.447 634.238 343.071 627.168C335.092 635.392 326.034 645.977 318.35 654.582L279.805 697.409C273.182 704.694 266.465 711.893 259.657 719.005C256.039 722.785 250.901 727.642 247.769 731.758C243.612 737.222 241.937 745.564 237.91 751.341C235.301 755.084 232.432 755.962 227.999 756.726C226.238 757.079 223.847 757.17 222.385 755.902C218.501 752.534 221.501 747.285 223.927 744.333C229.19 737.931 234.919 732.093 240.612 726.16C249.362 717.125 258.061 708.042 266.709 698.909C291.301 672.94 315.874 645.947 340.762 620.397C340.27 618.437 339.468 616.069 338.863 614.104L347.004 611.518C348.339 614.531 349.753 618.718 351 621.922C360.245 619.24 369.602 616.865 378.878 614.266L477.003 586.975L508.238 578.268C514.839 576.492 521.787 574.784 528.285 572.686C530.256 572.05 532.378 570.299 534.073 569.013Z" fill="#1EF14B"/>
<path d="M631.417 636.965C660.154 635.076 690.542 647.661 710.99 667.546C754.74 710.088 755.29 787.075 711.27 829.644C689.244 850.942 663.259 863.074 632.394 862.52C603.254 862.01 575.489 850.049 555.096 829.224C533.102 806.336 522.826 777.804 523.425 746.223C527.337 746.168 531.524 746.292 535.456 746.338C535.695 760.541 536.444 767.946 540.817 781.861C562.623 843.997 632.481 870.141 688.285 833.295C708.22 820.133 724.751 796.032 729.778 772.625C735.998 744.984 730.916 716.003 715.664 692.129C695.115 660.47 656.154 643.995 619.023 650.24C602.635 652.997 589.796 659.289 575.957 668.305C574.719 664.54 573.444 660.786 572.132 657.045C573.687 655.587 577.737 653.065 579.627 651.948C596.149 642.196 612.583 638.245 631.417 636.965Z" fill="#343332"/>
<path d="M220.373 638.696C246.117 636.399 273.119 647.634 292.364 664.209C289.863 667.089 287.339 669.948 284.79 672.785C269.886 660.468 253.853 653.04 234.511 651.1C179.106 645.545 132.305 684.102 126.829 739.423C124.143 765.99 132.128 792.536 149.025 813.21C164.606 832.164 188.521 845.627 213.035 847.976C238.662 850.61 264.27 842.815 284.084 826.348C295.285 817.675 303.092 806.457 309.815 794.204L321.608 796.525C317.286 806.721 310.289 817.391 302.774 825.517C236.531 897.143 118.89 853.859 114.294 755.343C112.72 724.891 123.429 695.081 144.02 672.596C163.826 650.95 191.467 640.007 220.373 638.696Z" fill="#343332"/>
<path d="M386.063 729.537C398.124 729.105 407.403 732.052 416.37 740.233C423.343 746.561 427.475 755.431 427.835 764.841C428.129 772.869 424.87 783.373 419.331 789.304L413.276 782.154C417.443 775.416 419.488 769.481 418.356 761.399C416.221 746.144 400.57 735.151 385.485 737.833C378.251 739.08 371.81 743.154 367.58 749.156C363.326 755.383 361.742 763.054 363.182 770.458C365.748 783.795 376.492 792.937 390.156 793.317C393.453 793.408 396.225 792.8 399.416 792.138L404.876 798.578C397.576 800.753 392.503 801.232 384.939 799.78C374.23 796.995 366.038 791.683 360.536 781.938C356.382 774.58 353.255 768.761 344.738 765.723C335.878 762.563 326.442 761.224 317.132 759.884C300.025 757.484 282.838 755.702 265.604 754.54C257.855 754.077 249.675 754.021 241.834 753.688C242.551 752.089 248.988 738.739 249.174 738.606C254.129 735.07 283.764 734.883 289.138 734.652L349.94 732.134C361.949 731.559 374.559 729.984 386.063 729.537Z" fill="#51E1B1"/>
<path d="M299.116 554.383C309.786 553.363 324.649 556.608 336.149 556.97C344.939 557.246 357.492 556.38 365.78 557.058C368.736 557.274 371.633 557.99 374.35 559.175C381.367 562.316 384.352 570.266 376.637 574.718C369.944 578.582 361.716 580.721 354.321 582.925C342.436 586.381 329.834 589.306 317.419 591.565C304.569 593.903 283.334 581.054 281.487 567.489C280.103 557.333 291.182 555.036 299.116 554.383Z" fill="#0982B7"/>
<path d="M217.184 622.862C217.588 622.822 217.941 622.785 218.348 622.771C250.2 621.663 279.829 630.899 303.386 652.52L298.348 657.764C255.903 622.556 199.188 620.607 154.536 653.1C139.494 664.053 125.746 680.729 117.877 697.656C115.037 703.765 112.53 709.79 110.122 716.07C109.078 718.792 104.231 717.68 104.302 713.977C104.374 710.246 105.971 707.128 107.222 703.659C113.522 687.024 122.082 673.217 134.402 660.361C157.283 636.485 184.445 625.064 217.184 622.862Z" fill="#0982B7"/>
<path d="M556.554 633.716C557.087 633.726 557.683 633.699 558.174 633.937C560.426 635.036 571.865 672.05 574.003 677.415C576.338 683.376 579.195 689.118 582.544 694.575C595.635 715.679 616.074 729.54 633.862 746.247C636.522 748.747 638.008 752.727 633.362 754.76C631.825 755.434 629.844 754.519 628.445 753.667C621.734 748.657 615.358 743.507 608.634 738.462C601.414 733.047 591.869 727.48 585.585 720.938C570.32 705.048 561.898 678.808 554.004 658.521C551.711 652.622 548.197 643.029 546.592 637.321L556.554 633.716Z" fill="#1EF14B"/>
<path d="M547.151 653.626C547.986 654.483 549.775 660.199 550.298 661.732C549.05 662.951 547.825 664.193 546.624 665.46C526.653 686.883 516.636 715.179 515.697 744.238C515.467 751.341 516.434 758.563 516.674 765.727C515.399 766.268 514.125 766.551 512.786 766.893C507.765 765.36 508.504 752.48 508.408 747.796C507.658 711.115 521.852 679.893 547.151 653.626Z" fill="#0982B7"/>
<path d="M553.307 671.103C554.348 671.999 557.948 681.519 558.701 683.42C544.523 703.391 537.965 715.817 535.473 741.075L530.114 741.021L523.758 740.929C524.623 714.863 536.307 690.491 553.307 671.103Z" fill="#343332"/>
<path d="M460.58 502.768C465.997 502.666 471.541 502.994 476.98 502.937C482.618 502.981 488.287 502.895 493.921 502.955C497.004 502.987 500.54 502.949 502.996 505.042C506.616 508.123 507.514 513.287 504.219 516.963C502.279 519.126 500.299 518.985 497.66 519.085L472.672 519.056C469.54 519.047 466.281 519.048 463.157 519.004C455.986 518.903 452.598 518.945 450.757 511.184C452.029 505.265 454.66 503.156 460.58 502.768Z" fill="#343332"/>
<path d="M632.476 621.492C644.246 621.161 657.53 622.936 668.997 626.301C669.891 626.563 671.189 628.145 671.387 629.03C671.588 629.922 671.694 630.834 671.185 631.636C670.845 632.388 669.226 633.208 668.965 633.15C666.281 632.553 663.121 631.846 660.465 631.315C656.369 630.519 652.241 629.894 648.094 629.442C631.155 627.49 613.138 629.958 596.854 634.695C587.025 637.72 577.833 642.627 569.205 648.153L566.792 640.62C585.13 627.52 610.418 622.574 632.476 621.492Z" fill="#0982B7"/>
<path d="M386.882 742.197C403.562 740.506 417.472 754.676 413.184 771.513C412.558 773.973 411.291 776.138 410.076 778.35L406.811 774.458C407.264 773.21 407.726 771.94 408.057 770.65C412.032 755.187 394.371 742.963 381.27 752.071C378.152 754.238 376.552 756.345 374.733 759.663C370.373 773.853 378.029 783.806 392.543 784.642L395.693 788.383C389.36 789.015 384.694 788.94 378.911 785.574C373.589 782.504 369.737 777.409 368.234 771.45C364.46 756.977 372.866 745.593 386.882 742.197Z" fill="#343332"/>
<path d="M304.794 676.386C318.227 693.456 324.104 707.106 329.069 728.14L320.781 728.368L316.716 728.527C314.171 711.524 306.673 698.687 297 685.113C299.455 682.079 302.055 679.166 304.794 676.386Z" fill="#343332"/>
<path d="M315.325 664.277C316.611 665.479 321.049 671.785 322.333 673.634C334.585 691.267 340.828 706.072 344.243 727.256C342.448 727.287 340.631 727.447 338.839 727.581C337.898 727.672 337.407 727.643 336.457 727.599C336.302 727.477 336.147 727.354 335.992 727.232C334.669 720.717 333.439 713.994 331.226 707.716C329.144 701.805 326.539 695.688 323.51 690.199C319.663 683.23 314.63 676.768 309.791 670.463L315.325 664.277Z" fill="#0982B7"/>
<path d="M392.087 767.155C394.247 767.169 396.428 768.297 397.52 769.99C400.37 774.406 432.086 810.834 432.324 812.021C431.425 812.866 431.232 812.67 429.872 812.913C428.656 813.03 425.096 812.157 421.978 812.364C412.55 799.691 401.041 787.944 391.621 775.201C389.244 771.983 388.707 769.648 392.087 767.155Z" fill="#0982B7"/>
<path d="M511.475 506.626C527.447 508.107 535.672 518.923 545.798 529.668C547.674 531.661 549.348 533.377 550.816 535.714C550.069 536.761 549.225 537.702 548.39 538.679C548.28 538.759 548.17 538.84 548.055 538.918C547.229 539.486 545.702 540.386 544.67 540.1C538.545 538.403 530.708 518.863 511.698 515.408C512.692 511.727 512.499 510.21 511.475 506.626Z" fill="#0982B7"/>
<path d="M630.077 735.018C630.83 734.998 631.582 734.995 632.33 735.008C652.732 735.425 652.246 766.828 631.71 765.383C626.986 765.05 624.105 762.997 621.115 759.469C619.05 756.444 618.766 755.069 617.881 751.594C623.536 754.844 628.238 761.182 635.123 758.905C637.274 758.19 639.031 756.621 639.985 754.568C644.838 744.354 630.325 738.806 629.114 735.332L630.077 735.018Z" fill="#075186"/>
<path d="M439.047 818.179C453.02 812.952 450.029 829.361 441.707 826.141C439.414 825.254 438.931 825.186 436.711 826.132L436.333 826.294C433.143 827.228 432.283 826.525 429.314 825.162L424.53 826.905L420.155 825.37C417.329 826.556 413.776 827.894 411.824 824.273C411.182 823.077 411.058 821.671 411.48 820.381C412.814 816.192 416.57 817.044 419.663 818.212L423.658 816.811C425.77 816.731 427.204 817.401 429.177 818.116C433.856 816.481 434.298 816.299 439.047 818.179Z" fill="#F4641D"/>
<path d="M389.586 753.537C391.537 753.408 393.228 753.496 395.101 754.158C398.7 755.442 401.63 758.122 403.229 761.594C404.463 764.301 404.508 766.605 403.496 769.35C403.318 769.419 403.14 769.488 402.962 769.557C400.753 766.861 398.655 764.101 395.043 763.228C389.801 761.962 386.353 764.927 385.325 769.747C385.539 774.575 386.945 776.429 390.048 780.012C384.018 778.953 379.873 776.245 378.423 769.94C377.571 766.369 378.195 762.606 380.153 759.501C382.45 755.923 385.567 754.377 389.586 753.537Z" fill="#0982B7"/>
<path d="M223.645 736.315L224.307 736.476C224.03 737.401 221.974 739.685 221.184 740.463C213.584 747.946 213.38 760.474 226.106 761.514C229.627 761.802 233.644 760.049 237.087 758.642C235.996 762.349 235.104 763.4 231.982 765.663C226.634 768.522 221.095 768.961 215.8 765.628C212.527 763.531 210.227 760.215 209.41 756.414C207.176 746.478 214.185 738.386 223.645 736.315Z" fill="#753035"/>
<path d="M318.325 765.307C322.308 765.923 326.297 766.505 330.291 767.054C328.862 776.703 327.029 782.392 323.573 791.253C322.716 791.361 313.767 789.441 312.249 789.144C315.643 780.528 317.383 774.506 318.325 765.307Z" fill="#343332"/>
<path d="M117.961 667.98C114.474 665.214 112.623 660.96 115.891 657.1C117.258 655.477 119.229 654.484 121.347 654.353C124.158 654.194 125.763 655.303 127.709 657.084L128.682 658.274C128.565 659.296 121.2 667.273 119.839 668.78C118.86 668.724 118.788 668.593 117.961 667.98Z" fill="#FEAE12"/>
<path d="M127.709 657.084L128.682 658.273C128.565 659.295 121.2 667.273 119.839 668.78C118.86 668.724 118.788 668.593 117.961 667.98C121.151 664.34 124.487 660.752 127.709 657.084Z" fill="#F4641D"/>
<path d="M346.072 600.726C347.121 601.17 348.018 604.63 348.393 605.785C343.553 607.517 338.643 609.049 333.677 610.378C332.271 609.57 331.633 606.988 331.111 605.423L346.072 600.726Z" fill="#343332"/>
<path d="M338.765 593.147L339.157 593.227C339.815 594.143 339.748 594.392 339.851 595.57C338.8 597.384 336.159 597.703 334.01 598.297C333.194 597.577 333.005 596.113 332.71 594.967L338.765 593.147Z" fill="#343332"/>
</svg>
