<svg width="849" height="1183" viewBox="0 0 849 1183" fill="none" xmlns="http://www.w3.org/2000/svg">
<rect x="5" y="5" width="839" height="1173" rx="45" fill="white"/>
<rect x="5" y="5" width="839" height="1173" rx="45" stroke="black" stroke-width="10"/>
<circle cx="786.5" cy="1124.5" r="11.5" fill="black"/>
<circle cx="786.5" cy="59.5" r="11.5" fill="black"/>
<path d="M77 1124.5C77 1130.85 71.8513 1136 65.5 1136C59.1487 1136 54 1130.85 54 1124.5C54 1118.15 59.1487 1113 65.5 1113C71.8513 1113 77 1118.15 77 1124.5Z" fill="black"/>
<path d="M77 59.5C77 65.8513 71.8513 71 65.5 71C59.1487 71 54 65.8513 54 59.5C54 53.1487 59.1487 48 65.5 48C71.8513 48 77 53.1487 77 59.5Z" fill="black"/>
<mask id="path-6-inside-1_97_17" fill="white">
<path d="M708 48C713.523 48 717.934 52.4996 718.616 57.9801C723.122 94.1833 751.817 122.878 788.02 127.384C793.5 128.066 798 132.477 798 138V1046C798 1051.52 793.5 1055.93 788.02 1056.62C751.817 1061.12 723.122 1089.82 718.616 1126.02C717.934 1131.5 713.523 1136 708 1136H141C135.477 1136 131.066 1131.5 130.384 1126.02C125.878 1089.82 97.1833 1061.12 60.9801 1056.62C55.4996 1055.93 51 1051.52 51 1046V138C51 132.477 55.4996 128.066 60.9801 127.384C97.1833 122.878 125.878 94.1833 130.384 57.9801C131.066 52.4996 135.477 48 141 48H708Z"/>
</mask>
<path d="M708 48C713.523 48 717.934 52.4996 718.616 57.9801C723.122 94.1833 751.817 122.878 788.02 127.384C793.5 128.066 798 132.477 798 138V1046C798 1051.52 793.5 1055.93 788.02 1056.62C751.817 1061.12 723.122 1089.82 718.616 1126.02C717.934 1131.5 713.523 1136 708 1136H141C135.477 1136 131.066 1131.5 130.384 1126.02C125.878 1089.82 97.1833 1061.12 60.9801 1056.62C55.4996 1055.93 51 1051.52 51 1046V138C51 132.477 55.4996 128.066 60.9801 127.384C97.1833 122.878 125.878 94.1833 130.384 57.9801C131.066 52.4996 135.477 48 141 48H708Z" fill="#77B866"/>
<path d="M130.384 1126.02L138.322 1125.03L130.384 1126.02ZM718.616 1126.02L710.678 1125.03L718.616 1126.02ZM788.02 1056.62L789.008 1064.56L788.02 1056.62ZM718.616 57.9801L726.555 56.9922L718.616 57.9801ZM718.616 57.9801L710.678 58.9681C715.635 98.8063 747.194 130.365 787.032 135.322L788.02 127.384L789.008 119.445C756.44 115.392 730.608 89.5603 726.555 56.9922L718.616 57.9801ZM798 138H790V1046H798H806V138H798ZM788.02 1056.62L787.032 1048.68C747.194 1053.64 715.635 1085.19 710.678 1125.03L718.616 1126.02L726.555 1127.01C730.608 1094.44 756.44 1068.61 789.008 1064.56L788.02 1056.62ZM708 1136V1128H141V1136V1144H708V1136ZM130.384 1126.02L138.322 1125.03C133.365 1085.19 101.806 1053.64 61.9681 1048.68L60.9801 1056.62L59.9922 1064.56C92.5603 1068.61 118.392 1094.44 122.445 1127.01L130.384 1126.02ZM51 1046H59V138H51H43V1046H51ZM60.9801 127.384L61.9681 135.322C101.806 130.365 133.365 98.8063 138.322 58.9681L130.384 57.9801L122.445 56.9922C118.392 89.5603 92.5603 115.392 59.9922 119.445L60.9801 127.384ZM141 48V56H708V48V40H141V48ZM130.384 57.9801L138.322 58.9681C138.438 58.0389 138.872 57.2306 139.427 56.6958C139.954 56.1887 140.494 56 141 56V48V40C130.84 40 123.547 48.1329 122.445 56.9922L130.384 57.9801ZM51 138H59C59 137.494 59.1887 136.954 59.6958 136.427C60.2306 135.872 61.0389 135.438 61.9681 135.322L60.9801 127.384L59.9922 119.445C51.1329 120.547 43 127.84 43 138H51ZM60.9801 1056.62L61.9681 1048.68C61.0389 1048.56 60.2306 1048.13 59.6958 1047.57C59.1887 1047.05 59 1046.51 59 1046H51H43C43 1056.16 51.1329 1063.45 59.9922 1064.56L60.9801 1056.62ZM141 1136V1128C140.494 1128 139.954 1127.81 139.427 1127.3C138.872 1126.77 138.438 1125.96 138.322 1125.03L130.384 1126.02L122.445 1127.01C123.547 1135.87 130.84 1144 141 1144V1136ZM718.616 1126.02L710.678 1125.03C710.562 1125.96 710.128 1126.77 709.573 1127.3C709.046 1127.81 708.506 1128 708 1128V1136V1144C718.16 1144 725.453 1135.87 726.555 1127.01L718.616 1126.02ZM798 1046H790C790 1046.51 789.811 1047.05 789.304 1047.57C788.769 1048.13 787.961 1048.56 787.032 1048.68L788.02 1056.62L789.008 1064.56C797.867 1063.45 806 1056.16 806 1046H798ZM788.02 127.384L787.032 135.322C787.961 135.438 788.769 135.872 789.304 136.427C789.811 136.954 790 137.494 790 138H798H806C806 127.84 797.867 120.547 789.008 119.445L788.02 127.384ZM718.616 57.9801L726.555 56.9922C725.453 48.1329 718.16 40 708 40V48V56C708.506 56 709.046 56.1887 709.573 56.6958C710.128 57.2306 710.562 58.0389 710.678 58.9681L718.616 57.9801Z" fill="black" mask="url(#path-6-inside-1_97_17)"/>
<path d="M690 102C695.523 102 699.911 106.512 700.837 111.957C705.019 136.563 724.437 155.981 749.043 160.163C754.488 161.089 759 165.477 759 171V1014C759 1019.52 754.488 1023.91 749.043 1024.84C724.711 1028.97 705.454 1048 700.984 1072.22C699.993 1077.59 695.633 1082 690.175 1082H158.825C153.367 1082 149.007 1077.59 148.016 1072.22C143.546 1048 124.288 1028.97 99.9568 1024.84C94.5121 1023.91 90 1019.52 90 1014V171C90 165.477 94.512 161.089 99.9568 160.163C124.563 155.981 143.981 136.563 148.163 111.957C149.089 106.512 153.477 102 159 102H690Z" fill="#A3CC98"/>
<path d="M302.54 348.925V356.83H286.815V408H277.125V356.83H261.315V348.925H302.54ZM332.669 408.765C328.249 408.765 324.254 407.773 320.684 405.79C317.114 403.75 314.309 400.917 312.269 397.29C310.229 393.607 309.209 389.357 309.209 384.54C309.209 379.78 310.257 375.558 312.354 371.875C314.45 368.192 317.312 365.358 320.939 363.375C324.565 361.392 328.617 360.4 333.094 360.4C337.57 360.4 341.622 361.392 345.249 363.375C348.875 365.358 351.737 368.192 353.834 371.875C355.93 375.558 356.979 379.78 356.979 384.54C356.979 389.3 355.902 393.522 353.749 397.205C351.595 400.888 348.649 403.75 344.909 405.79C341.225 407.773 337.145 408.765 332.669 408.765ZM332.669 400.35C335.162 400.35 337.485 399.755 339.639 398.565C341.849 397.375 343.634 395.59 344.994 393.21C346.354 390.83 347.034 387.94 347.034 384.54C347.034 381.14 346.382 378.278 345.079 375.955C343.775 373.575 342.047 371.79 339.894 370.6C337.74 369.41 335.417 368.815 332.924 368.815C330.43 368.815 328.107 369.41 325.954 370.6C323.857 371.79 322.185 373.575 320.939 375.955C319.692 378.278 319.069 381.14 319.069 384.54C319.069 389.583 320.344 393.493 322.894 396.27C325.5 398.99 328.759 400.35 332.669 400.35ZM423.253 360.4C426.936 360.4 430.223 361.165 433.113 362.695C436.059 364.225 438.354 366.492 439.998 369.495C441.698 372.498 442.548 376.125 442.548 380.375V408H432.943V381.82C432.943 377.627 431.894 374.425 429.798 372.215C427.701 369.948 424.839 368.815 421.213 368.815C417.586 368.815 414.696 369.948 412.543 372.215C410.446 374.425 409.398 377.627 409.398 381.82V408H399.793V381.82C399.793 377.627 398.744 374.425 396.648 372.215C394.551 369.948 391.689 368.815 388.063 368.815C384.436 368.815 381.546 369.948 379.393 372.215C377.296 374.425 376.248 377.627 376.248 381.82V408H366.558V361.165H376.248V366.52C377.834 364.593 379.846 363.092 382.283 362.015C384.719 360.938 387.326 360.4 390.103 360.4C393.843 360.4 397.186 361.193 400.133 362.78C403.079 364.367 405.346 366.662 406.933 369.665C408.349 366.832 410.559 364.593 413.563 362.95C416.566 361.25 419.796 360.4 423.253 360.4ZM451.648 384.37C451.648 379.667 452.611 375.502 454.538 371.875C456.521 368.248 459.185 365.443 462.528 363.46C465.928 361.42 469.668 360.4 473.748 360.4C477.431 360.4 480.633 361.137 483.353 362.61C486.13 364.027 488.34 365.812 489.983 367.965V361.165H499.758V408H489.983V401.03C488.34 403.24 486.101 405.082 483.268 406.555C480.435 408.028 477.205 408.765 473.578 408.765C469.555 408.765 465.871 407.745 462.528 405.705C459.185 403.608 456.521 400.718 454.538 397.035C452.611 393.295 451.648 389.073 451.648 384.37ZM489.983 384.54C489.983 381.31 489.303 378.505 487.943 376.125C486.64 373.745 484.911 371.932 482.758 370.685C480.605 369.438 478.281 368.815 475.788 368.815C473.295 368.815 470.971 369.438 468.818 370.685C466.665 371.875 464.908 373.66 463.548 376.04C462.245 378.363 461.593 381.14 461.593 384.37C461.593 387.6 462.245 390.433 463.548 392.87C464.908 395.307 466.665 397.177 468.818 398.48C471.028 399.727 473.351 400.35 475.788 400.35C478.281 400.35 480.605 399.727 482.758 398.48C484.911 397.233 486.64 395.42 487.943 393.04C489.303 390.603 489.983 387.77 489.983 384.54ZM523.79 369.07V394.995C523.79 396.752 524.187 398.027 524.98 398.82C525.83 399.557 527.247 399.925 529.23 399.925H535.18V408H527.53C523.167 408 519.824 406.98 517.5 404.94C515.177 402.9 514.015 399.585 514.015 394.995V369.07H508.49V361.165H514.015V349.52H523.79V361.165H535.18V369.07H523.79ZM587.036 383.435C587.036 385.192 586.923 386.778 586.696 388.195H550.911C551.195 391.935 552.583 394.938 555.076 397.205C557.57 399.472 560.63 400.605 564.256 400.605C569.47 400.605 573.153 398.423 575.306 394.06H585.761C584.345 398.367 581.766 401.908 578.026 404.685C574.343 407.405 569.753 408.765 564.256 408.765C559.78 408.765 555.756 407.773 552.186 405.79C548.673 403.75 545.896 400.917 543.856 397.29C541.873 393.607 540.881 389.357 540.881 384.54C540.881 379.723 541.845 375.502 543.771 371.875C545.755 368.192 548.503 365.358 552.016 363.375C555.586 361.392 559.666 360.4 564.256 360.4C568.676 360.4 572.615 361.363 576.071 363.29C579.528 365.217 582.22 367.937 584.146 371.45C586.073 374.907 587.036 378.902 587.036 383.435ZM576.921 380.375C576.865 376.805 575.59 373.943 573.096 371.79C570.603 369.637 567.515 368.56 563.831 368.56C560.488 368.56 557.626 369.637 555.246 371.79C552.866 373.887 551.45 376.748 550.996 380.375H576.921Z" fill="black"/>
<mask id="path-10-outside-2_97_17" maskUnits="userSpaceOnUse" x="406" y="1006" width="37" height="32" fill="black">
<rect fill="white" x="406" y="1006" width="37" height="32"/>
<path d="M406.8 1012V1007.84H415.12V1037H410.52V1012H406.8ZM437.064 1014.6C436.771 1013.37 436.238 1012.45 435.464 1011.84C434.691 1011.23 433.611 1010.92 432.224 1010.92C430.118 1010.92 428.544 1011.73 427.504 1013.36C426.464 1014.96 425.918 1017.63 425.864 1021.36C426.558 1020.19 427.571 1019.28 428.904 1018.64C430.238 1018 431.678 1017.68 433.224 1017.68C434.984 1017.68 436.531 1018.07 437.864 1018.84C439.224 1019.59 440.278 1020.68 441.024 1022.12C441.798 1023.56 442.184 1025.28 442.184 1027.28C442.184 1029.15 441.811 1030.81 441.064 1032.28C440.344 1033.75 439.264 1034.91 437.824 1035.76C436.384 1036.59 434.651 1037 432.624 1037C429.878 1037 427.718 1036.4 426.144 1035.2C424.598 1033.97 423.504 1032.25 422.864 1030.04C422.251 1027.83 421.944 1025.07 421.944 1021.76C421.944 1012 425.384 1007.12 432.264 1007.12C434.931 1007.12 437.024 1007.84 438.544 1009.28C440.091 1010.72 440.998 1012.49 441.264 1014.6H437.064ZM432.224 1021.52C430.598 1021.52 429.211 1022.01 428.064 1023C426.944 1023.96 426.384 1025.36 426.384 1027.2C426.384 1029.04 426.904 1030.51 427.944 1031.6C429.011 1032.67 430.491 1033.2 432.384 1033.2C434.064 1033.2 435.384 1032.68 436.344 1031.64C437.331 1030.6 437.824 1029.21 437.824 1027.48C437.824 1025.67 437.344 1024.23 436.384 1023.16C435.451 1022.07 434.064 1021.52 432.224 1021.52Z"/>
</mask>
<path d="M406.8 1012V1007.84H415.12V1037H410.52V1012H406.8ZM437.064 1014.6C436.771 1013.37 436.238 1012.45 435.464 1011.84C434.691 1011.23 433.611 1010.92 432.224 1010.92C430.118 1010.92 428.544 1011.73 427.504 1013.36C426.464 1014.96 425.918 1017.63 425.864 1021.36C426.558 1020.19 427.571 1019.28 428.904 1018.64C430.238 1018 431.678 1017.68 433.224 1017.68C434.984 1017.68 436.531 1018.07 437.864 1018.84C439.224 1019.59 440.278 1020.68 441.024 1022.12C441.798 1023.56 442.184 1025.28 442.184 1027.28C442.184 1029.15 441.811 1030.81 441.064 1032.28C440.344 1033.75 439.264 1034.91 437.824 1035.76C436.384 1036.59 434.651 1037 432.624 1037C429.878 1037 427.718 1036.4 426.144 1035.2C424.598 1033.97 423.504 1032.25 422.864 1030.04C422.251 1027.83 421.944 1025.07 421.944 1021.76C421.944 1012 425.384 1007.12 432.264 1007.12C434.931 1007.12 437.024 1007.84 438.544 1009.28C440.091 1010.72 440.998 1012.49 441.264 1014.6H437.064ZM432.224 1021.52C430.598 1021.52 429.211 1022.01 428.064 1023C426.944 1023.96 426.384 1025.36 426.384 1027.2C426.384 1029.04 426.904 1030.51 427.944 1031.6C429.011 1032.67 430.491 1033.2 432.384 1033.2C434.064 1033.2 435.384 1032.68 436.344 1031.64C437.331 1030.6 437.824 1029.21 437.824 1027.48C437.824 1025.67 437.344 1024.23 436.384 1023.16C435.451 1022.07 434.064 1021.52 432.224 1021.52Z" fill="black"/>
<path d="M406.8 1012H406.5V1012.3H406.8V1012ZM406.8 1007.84V1007.54H406.5V1007.84H406.8ZM415.12 1007.84H415.42V1007.54H415.12V1007.84ZM415.12 1037V1037.3H415.42V1037H415.12ZM410.52 1037H410.22V1037.3H410.52V1037ZM410.52 1012H410.82V1011.7H410.52V1012ZM406.8 1012H407.1V1007.84H406.8H406.5V1012H406.8ZM406.8 1007.84V1008.14H415.12V1007.84V1007.54H406.8V1007.84ZM415.12 1007.84H414.82V1037H415.12H415.42V1007.84H415.12ZM415.12 1037V1036.7H410.52V1037V1037.3H415.12V1037ZM410.52 1037H410.82V1012H410.52H410.22V1037H410.52ZM410.52 1012V1011.7H406.8V1012V1012.3H410.52V1012ZM437.064 1014.6L436.773 1014.67L436.828 1014.9H437.064V1014.6ZM435.464 1011.84L435.651 1011.6L435.464 1011.84ZM427.504 1013.36L427.756 1013.52L427.757 1013.52L427.504 1013.36ZM425.864 1021.36L425.564 1021.36L425.548 1022.48L426.123 1021.51L425.864 1021.36ZM437.864 1018.84L437.714 1019.1L437.72 1019.1L437.864 1018.84ZM441.024 1022.12L440.758 1022.26L440.76 1022.26L441.024 1022.12ZM441.064 1032.28L440.797 1032.14L440.795 1032.15L441.064 1032.28ZM437.824 1035.76L437.974 1036.02L437.977 1036.02L437.824 1035.76ZM426.144 1035.2L425.958 1035.44L425.962 1035.44L426.144 1035.2ZM422.864 1030.04L422.575 1030.12L422.576 1030.12L422.864 1030.04ZM438.544 1009.28L438.338 1009.5L438.34 1009.5L438.544 1009.28ZM441.264 1014.6V1014.9H441.605L441.562 1014.56L441.264 1014.6ZM428.064 1023L428.26 1023.23L428.26 1023.23L428.064 1023ZM427.944 1031.6L427.727 1031.81L427.732 1031.81L427.944 1031.6ZM436.344 1031.64L436.127 1031.43L436.124 1031.44L436.344 1031.64ZM436.384 1023.16L436.156 1023.35L436.161 1023.36L436.384 1023.16ZM437.064 1014.6L437.356 1014.53C437.052 1013.26 436.49 1012.27 435.651 1011.6L435.464 1011.84L435.278 1012.08C435.986 1012.64 436.49 1013.49 436.773 1014.67L437.064 1014.6ZM435.464 1011.84L435.651 1011.6C434.807 1010.94 433.652 1010.62 432.224 1010.62V1010.92V1011.22C433.57 1011.22 434.575 1011.52 435.278 1012.08L435.464 1011.84ZM432.224 1010.92V1010.62C430.026 1010.62 428.352 1011.48 427.252 1013.2L427.504 1013.36L427.757 1013.52C428.736 1011.99 430.209 1011.22 432.224 1011.22V1010.92ZM427.504 1013.36L427.253 1013.2C426.164 1014.87 425.618 1017.61 425.564 1021.36L425.864 1021.36L426.164 1021.36C426.218 1017.64 426.764 1015.05 427.756 1013.52L427.504 1013.36ZM425.864 1021.36L426.123 1021.51C426.783 1020.39 427.75 1019.53 429.034 1018.91L428.904 1018.64L428.775 1018.37C427.392 1019.03 426.332 1019.98 425.606 1021.21L425.864 1021.36ZM428.904 1018.64L429.034 1018.91C430.325 1018.29 431.721 1017.98 433.224 1017.98V1017.68V1017.38C431.635 1017.38 430.15 1017.71 428.775 1018.37L428.904 1018.64ZM433.224 1017.68V1017.98C434.939 1017.98 436.432 1018.36 437.714 1019.1L437.864 1018.84L438.015 1018.58C436.63 1017.78 435.03 1017.38 433.224 1017.38V1017.68ZM437.864 1018.84L437.72 1019.1C439.025 1019.82 440.037 1020.87 440.758 1022.26L441.024 1022.12L441.291 1021.98C440.518 1020.49 439.423 1019.35 438.009 1018.58L437.864 1018.84ZM441.024 1022.12L440.76 1022.26C441.505 1023.65 441.884 1025.32 441.884 1027.28H442.184H442.484C442.484 1025.24 442.09 1023.47 441.289 1021.98L441.024 1022.12ZM442.184 1027.28H441.884C441.884 1029.11 441.52 1030.72 440.797 1032.14L441.064 1032.28L441.332 1032.42C442.103 1030.9 442.484 1029.19 442.484 1027.28H442.184ZM441.064 1032.28L440.795 1032.15C440.101 1033.56 439.063 1034.68 437.671 1035.5L437.824 1035.76L437.977 1036.02C439.466 1035.14 440.587 1033.93 441.334 1032.41L441.064 1032.28ZM437.824 1035.76L437.675 1035.5C436.29 1036.3 434.61 1036.7 432.624 1036.7V1037V1037.3C434.692 1037.3 436.479 1036.88 437.974 1036.02L437.824 1035.76ZM432.624 1037V1036.7C429.918 1036.7 427.83 1036.11 426.326 1034.96L426.144 1035.2L425.962 1035.44C427.605 1036.69 429.837 1037.3 432.624 1037.3V1037ZM426.144 1035.2L426.331 1034.96C424.841 1033.78 423.778 1032.12 423.153 1029.96L422.864 1030.04L422.576 1030.12C423.231 1032.39 424.355 1034.16 425.958 1035.44L426.144 1035.2ZM422.864 1030.04L423.153 1029.96C422.55 1027.78 422.244 1025.05 422.244 1021.76H421.944H421.644C421.644 1025.08 421.952 1027.87 422.575 1030.12L422.864 1030.04ZM421.944 1021.76H422.244C422.244 1016.91 423.101 1013.32 424.77 1010.95C426.424 1008.61 428.905 1007.42 432.264 1007.42V1007.12V1006.82C428.744 1006.82 426.065 1008.07 424.279 1010.61C422.507 1013.12 421.644 1016.85 421.644 1021.76H421.944ZM432.264 1007.12V1007.42C434.876 1007.42 436.888 1008.12 438.338 1009.5L438.544 1009.28L438.751 1009.06C437.161 1007.56 434.986 1006.82 432.264 1006.82V1007.12ZM438.544 1009.28L438.34 1009.5C439.835 1010.89 440.709 1012.6 440.967 1014.64L441.264 1014.6L441.562 1014.56C441.287 1012.39 440.347 1010.55 438.749 1009.06L438.544 1009.28ZM441.264 1014.6V1014.3H437.064V1014.6V1014.9H441.264V1014.6ZM432.224 1021.52V1021.22C430.532 1021.22 429.074 1021.74 427.869 1022.77L428.064 1023L428.26 1023.23C429.348 1022.29 430.664 1021.82 432.224 1021.82V1021.52ZM428.064 1023L427.869 1022.77C426.667 1023.8 426.084 1025.3 426.084 1027.2H426.384H426.684C426.684 1025.42 427.222 1024.12 428.26 1023.23L428.064 1023ZM426.384 1027.2H426.084C426.084 1029.1 426.623 1030.65 427.727 1031.81L427.944 1031.6L428.162 1031.39C427.186 1030.37 426.684 1028.98 426.684 1027.2H426.384ZM427.944 1031.6L427.732 1031.81C428.869 1032.95 430.433 1033.5 432.384 1033.5V1033.2V1032.9C430.549 1032.9 429.153 1032.38 428.157 1031.39L427.944 1031.6ZM432.384 1033.2V1033.5C434.131 1033.5 435.537 1032.96 436.565 1031.84L436.344 1031.64L436.124 1031.44C435.231 1032.4 433.998 1032.9 432.384 1032.9V1033.2ZM436.344 1031.64L436.562 1031.85C437.612 1030.74 438.124 1029.27 438.124 1027.48H437.824H437.524C437.524 1029.15 437.05 1030.46 436.127 1031.43L436.344 1031.64ZM437.824 1027.48H438.124C438.124 1025.61 437.629 1024.09 436.607 1022.96L436.384 1023.16L436.161 1023.36C437.06 1024.36 437.524 1025.72 437.524 1027.48H437.824ZM436.384 1023.16L436.613 1022.97C435.607 1021.79 434.126 1021.22 432.224 1021.22V1021.52V1021.82C434.003 1021.82 435.295 1022.35 436.156 1023.35L436.384 1023.16Z" fill="black" mask="url(#path-10-outside-2_97_17)"/>
<path d="M273.635 197.975V214.355H253.895V272H233.315V214.355H213.785V197.975H273.635ZM308.654 272.735C302.774 272.735 297.489 271.51 292.799 269.06C288.179 266.61 284.539 263.11 281.879 258.56C279.219 254.01 277.889 248.655 277.889 242.495C277.889 236.405 279.219 231.085 281.879 226.535C284.609 221.985 288.284 218.485 292.904 216.035C297.594 213.585 302.879 212.36 308.759 212.36C314.639 212.36 319.889 213.585 324.509 216.035C329.199 218.485 332.874 221.985 335.534 226.535C338.264 231.085 339.629 236.405 339.629 242.495C339.629 248.585 338.264 253.94 335.534 258.56C332.874 263.11 329.199 266.61 324.509 269.06C319.819 271.51 314.534 272.735 308.654 272.735ZM308.654 254.885C311.524 254.885 313.904 253.835 315.794 251.735C317.754 249.565 318.734 246.485 318.734 242.495C318.734 238.505 317.754 235.46 315.794 233.36C313.904 231.26 311.559 230.21 308.759 230.21C305.959 230.21 303.614 231.26 301.724 233.36C299.834 235.46 298.889 238.505 298.889 242.495C298.889 246.555 299.799 249.635 301.619 251.735C303.439 253.835 305.784 254.885 308.654 254.885ZM424.967 212.57C432.387 212.57 438.197 214.81 442.397 219.29C446.667 223.77 448.802 229.895 448.802 237.665V272H428.222V240.395C428.222 237.245 427.347 234.795 425.597 233.045C423.847 231.295 421.467 230.42 418.457 230.42C415.447 230.42 413.067 231.295 411.317 233.045C409.567 234.795 408.692 237.245 408.692 240.395V272H388.112V240.395C388.112 237.245 387.237 234.795 385.487 233.045C383.807 231.295 381.462 230.42 378.452 230.42C375.372 230.42 372.957 231.295 371.207 233.045C369.457 234.795 368.582 237.245 368.582 240.395V272H348.002V213.095H368.582V220.865C370.402 218.345 372.747 216.35 375.617 214.88C378.557 213.34 381.917 212.57 385.697 212.57C390.037 212.57 393.887 213.515 397.247 215.405C400.677 217.295 403.372 219.955 405.332 223.385C407.432 220.165 410.197 217.575 413.627 215.615C417.057 213.585 420.837 212.57 424.967 212.57ZM456.717 242.495C456.717 236.405 457.802 231.085 459.972 226.535C462.212 221.985 465.222 218.485 469.002 216.035C472.852 213.585 477.122 212.36 481.812 212.36C485.872 212.36 489.372 213.165 492.312 214.775C495.252 216.385 497.527 218.555 499.137 221.285V213.095H519.717V272H499.137V263.81C497.527 266.54 495.217 268.71 492.207 270.32C489.267 271.93 485.802 272.735 481.812 272.735C477.122 272.735 472.852 271.51 469.002 269.06C465.222 266.61 462.212 263.11 459.972 258.56C457.802 253.94 456.717 248.585 456.717 242.495ZM499.137 242.495C499.137 238.715 498.087 235.74 495.987 233.57C493.957 231.4 491.437 230.315 488.427 230.315C485.347 230.315 482.792 231.4 480.762 233.57C478.732 235.67 477.717 238.645 477.717 242.495C477.717 246.275 478.732 249.285 480.762 251.525C482.792 253.695 485.347 254.78 488.427 254.78C491.437 254.78 493.957 253.695 495.987 251.525C498.087 249.355 499.137 246.345 499.137 242.495ZM566.199 254.465V272H557.274C542.224 272 534.699 264.545 534.699 249.635V230.21H527.454V213.095H534.699V198.815H555.384V213.095H566.094V230.21H555.384V249.95C555.384 251.56 555.734 252.715 556.434 253.415C557.204 254.115 558.464 254.465 560.214 254.465H566.199ZM603.044 272.735C597.164 272.735 591.879 271.51 587.189 269.06C582.569 266.61 578.929 263.11 576.269 258.56C573.609 254.01 572.279 248.655 572.279 242.495C572.279 236.405 573.609 231.085 576.269 226.535C578.999 221.985 582.674 218.485 587.294 216.035C591.984 213.585 597.269 212.36 603.149 212.36C609.029 212.36 614.279 213.585 618.899 216.035C623.589 218.485 627.264 221.985 629.924 226.535C632.654 231.085 634.019 236.405 634.019 242.495C634.019 248.585 632.654 253.94 629.924 258.56C627.264 263.11 623.589 266.61 618.899 269.06C614.209 271.51 608.924 272.735 603.044 272.735ZM603.044 254.885C605.914 254.885 608.294 253.835 610.184 251.735C612.144 249.565 613.124 246.485 613.124 242.495C613.124 238.505 612.144 235.46 610.184 233.36C608.294 231.26 605.949 230.21 603.149 230.21C600.349 230.21 598.004 231.26 596.114 233.36C594.224 235.46 593.279 238.505 593.279 242.495C593.279 246.555 594.189 249.635 596.009 251.735C597.829 253.835 600.174 254.885 603.044 254.885Z" fill="black"/>
<path d="M422.525 451.146C443.975 448.925 449.014 472.492 455.2 487.79C474.007 485.782 492.123 489.795 507.232 501.464C515.924 498.817 522.723 496.067 530.537 491.2C532.778 489.905 537.755 484.758 540.058 484.455C556.364 482.311 538.644 512.225 537.123 515.142C586.499 529.985 609.142 579.523 607.855 628.415C626.036 628.435 632.185 631.776 647.275 639.07C662.404 635.977 674.326 619.162 677.437 619.27C691.065 619.743 673.99 647.262 669.418 653.329C696.453 655.62 710.201 667.394 725.727 689.765C787.129 779.023 698.737 883.151 598.425 886.347C592.313 886.541 585.444 886.672 579.492 885.535C574.94 890.483 571.502 897.431 567.001 902.789C525.41 952.303 453.656 973.064 392.679 951.839C345.597 934.547 328.77 907.23 311.134 864.05C305.051 866.123 295.275 867.628 288.652 868.127C76.9236 884.106 57.2139 630.363 178.968 620.554C175.222 616.22 164.887 607.058 169.013 601.054C172.916 595.672 178.619 601.258 182.875 602.73C200.02 608.658 216.962 600.369 233.883 597.25C230.375 594.038 222.341 588.099 221.509 583.813C216.483 557.903 262.614 541.122 276.209 593.316C279.267 593.046 281.477 592.919 284.508 593.316C284.131 560.987 315.623 522.633 346.775 514.458C351.263 513.28 355.682 512.165 360.135 511C349.486 500.877 340.861 478.451 364.329 492.064C379.218 500.701 398.763 497.08 414.808 494.053C409.89 487.179 400.324 479.773 397.987 472.181C401.124 460.11 410.448 453.024 422.525 451.146ZM136.522 738.424C141.164 736.456 140.282 733.701 139.061 729.29C134.559 713.014 138.226 696.078 145.551 681.216C147.82 676.562 151.666 669.744 143.224 669.962C129.629 681.748 120.363 735.493 136.522 738.424ZM338.854 820.425L338.272 819.944C339.848 816.621 334.678 822.458 332.086 813.987C331.768 815.561 331.71 815.687 330.674 816.915C324.771 832.167 329.637 855.19 335.626 869.987C337.774 875.295 344.483 871.352 344.246 868.968C342.285 849.276 334.81 846.112 338.854 820.425ZM464.092 560.551C448.562 581.042 437.926 595.507 410.543 601.48C391.767 605.575 409.978 577.24 413.429 564.796C407.317 566.166 347.727 581.157 364.876 559.498C370.293 552.658 375.031 544.042 383.055 540.071C385.501 536.686 385.88 536.431 389.285 534.257C380.692 529.346 376.06 526.834 368.602 520.153C363.99 520.987 358.073 522.344 353.761 523.926C324.892 529.017 303.938 554.915 296.728 582.325C295.41 585.339 294.425 590.936 293.755 594.273C303.746 595.728 309.399 597.977 318.532 601.973C321.617 603.324 328.502 603.056 331.942 604.077C338.845 605.518 344.39 608.259 350.772 610.756C354.036 612.83 361.315 618.168 364.18 619.364C381.521 620.072 407.716 651.843 414.808 666.469C417.584 671.954 420.277 679.357 422.525 685.225C428.846 685.303 439.402 685.17 445.597 684.219C453.361 683.821 461.781 680.378 470.356 680.123C482.388 666.176 496.254 658.896 513.916 654.362C512.252 650.5 510.939 647.492 509.652 643.479C504.785 627.854 504.921 610.638 517.607 633.154C519.653 637.027 521.633 640.219 524.558 643.479C537.081 641.034 545.6 640.1 558.489 639.07C535.956 626.37 551.52 593.845 574.713 602.197C587.08 606.65 592.137 619.29 597.553 630.078C602.918 594.473 585.909 559.236 558.489 537.098C551.735 532.279 544.654 529.063 537.123 525.776C534.767 525.209 531.9 524.597 529.616 523.926C521.039 531.586 513.941 534.468 504.617 540.071C506.404 541.894 509.818 546.483 511.277 547.74C523.904 568.286 518.587 610.343 507.347 589.822C497.529 571.897 483.633 563.565 464.092 560.551ZM376.078 513.241C376.964 512.168 378.53 509.836 378.833 508.505L377.314 507.98L379.242 507.492C375.519 506.637 370.78 505.41 367.085 504.827C369.688 507.48 373.178 510.844 376.078 513.241ZM521.902 508.946C524.869 508.214 524.696 508.291 526.99 510.559L526.667 510.8L527.325 511C529.479 508.826 531.762 504.272 533.231 501.464C530.248 503.138 526.18 505.418 523.492 507.492L521.902 508.946Z" fill="black"/>
<path d="M360.135 628.415C364.38 629.709 366.44 630.702 370.097 633.155C395.471 644.76 407.772 672.373 415.63 697.431C401.5 696.529 397.602 698.354 390.158 711.206C382.84 723.841 392.654 732.019 402.37 738.424C388.468 740.832 376.304 741.858 362.33 739.191C356.857 738.147 352.577 735.431 347.301 737.994L346.404 738.424V739.105C345.506 748.264 354.673 755.786 360.91 761.37C352.518 764.881 342.191 768.535 335.2 774.079C319.275 787.295 314.461 800.118 309.805 819.714C308.057 833.856 308.8 839.502 308.799 853.316L304.614 854.851C227.017 872.595 143.415 834.721 119.98 755.567C119.465 752.392 118.181 748.773 117.438 745.391C108.154 703.146 119.874 646.971 166.441 632.974C173.215 630.94 182.444 630.598 189.634 630.078C196.128 635.367 200.45 637.666 207.952 641.149C200.441 648.405 190.696 654.233 181.617 659.215C170.395 665.374 179.363 669.104 187.372 670.94C202.286 674.153 219.124 673.695 233.883 669.962C230.137 677.772 225.544 693.918 225.1 702.738C224.797 708.762 236.322 705.032 239.367 704.009C260.04 697.059 274.744 683.868 284.508 664.436C302.089 667.78 317.747 675.393 329.087 689.65C332.556 694.009 344.057 711.433 343.534 691.459C342.929 668.32 336.251 656.317 320.421 641.149C334.284 633.74 344.859 631.331 360.135 628.415ZM136.522 738.424C141.164 736.456 140.282 733.702 139.061 729.29C134.559 713.014 138.227 696.078 145.551 681.216C147.82 676.562 151.666 669.744 143.224 669.962C129.629 681.748 120.363 735.494 136.522 738.424Z" fill="#FF0600"/>
<path d="M119.98 755.566L121.072 754.309C122.042 754.431 126.28 757.711 127.361 758.501C174.201 792.762 238.262 797.005 293.511 785.51C296.587 784.869 301.532 783.603 304.615 783.392C305.367 782.569 306.293 781.92 307.18 781.22C316.04 779.558 326.392 773.662 335.2 774.079C319.275 787.295 314.462 800.118 309.806 819.713C308.058 833.855 308.801 839.501 308.799 853.316L304.615 854.85C227.017 872.595 143.416 834.721 119.98 755.566Z" fill="#DC1512"/>
<path d="M307.18 781.22C316.04 779.559 326.392 773.662 335.2 774.079C319.275 787.295 314.462 800.118 309.806 819.714C306.629 820.41 300.95 822.018 297.804 823.105C296.613 807.415 299.386 797.715 304.615 783.393C305.367 782.569 306.293 781.921 307.18 781.22Z" fill="#DC1512"/>
<path d="M297.804 823.105C300.95 822.018 306.629 820.41 309.806 819.714C308.058 833.856 308.8 839.502 308.799 853.316L304.614 854.85C301.632 845.188 298.038 833.292 297.804 823.105Z" fill="#DC1512"/>
<path d="M370.097 633.155C395.47 644.76 407.772 672.373 415.63 697.431C401.5 696.529 397.602 698.354 390.158 711.206C382.84 723.841 392.654 732.019 402.37 738.424C388.468 740.832 376.304 741.858 362.33 739.191C356.857 738.147 352.577 735.431 347.301 737.994L346.404 738.424C346.951 736.048 349.413 733.012 350.952 731.029C369.306 707.352 387.094 678.695 376.657 647.647C374.92 642.478 371.672 637.807 370.097 633.155Z" fill="#DC1512"/>
<path d="M307.18 781.22C312.024 771.879 336.331 744.817 346.404 739.104C345.506 748.263 354.673 755.786 360.91 761.37C352.518 764.881 342.191 768.535 335.2 774.079C326.392 773.662 316.04 779.558 307.18 781.22Z" fill="#DC1512"/>
<path d="M170.952 686.868C204.901 683.391 227.218 749.505 186.357 761.37C148.127 764.496 132.303 694.269 170.952 686.868Z" fill="#FF0600"/>
<path d="M170.952 697.431C191.648 696.153 210.203 734.137 186.357 750.912C160.29 752.64 149.412 705.953 170.952 697.431Z" fill="#FF0600"/>
<path d="M167.279 645.776C184.389 646.939 158.453 664.701 154.962 666.469C136.458 668.065 162.12 648.459 167.279 645.776Z" fill="#FAF2EE"/>
<path d="M511.277 745.383C517.96 745.213 520.926 745.974 527.325 748.047C529.082 748.729 531.758 749.755 533.232 750.912C577.964 771.652 590.752 836.736 570.201 878.209C555.702 907.469 522.572 929.625 492.873 940.769C443.719 959.212 383.926 950.264 348.031 909.768C342.702 904.222 338.149 899.032 335.2 891.893C315.969 867.446 314.6 825.94 328.025 798.726C336.88 780.777 355.74 773.793 373.689 767.991C379.763 770.987 382.649 772.475 389.285 774.079C380.008 786.939 369.365 790.468 359.708 799.578C356.892 807.411 368.554 807.824 373.571 807.95C388.23 808.317 400.68 803.102 413.429 796.614C412.81 802.667 405.14 825.886 407.412 827.148C419.307 833.763 447.068 797.021 455.2 785.824C468.925 783.881 483.396 790.107 493.369 799.307C495.458 800.65 498.372 806.099 500.352 807.06C517.37 815.312 505.739 771.316 489.25 761.37C499.926 756.015 502.672 751.494 511.277 745.383ZM338.854 820.425L338.272 819.944C339.849 816.621 334.679 822.458 332.086 813.987C331.768 815.561 331.71 815.687 330.675 816.915C324.771 832.167 329.638 855.19 335.626 869.987C337.775 875.295 344.483 871.352 344.247 868.968C342.285 849.276 334.811 846.112 338.854 820.425Z" fill="#FF0600"/>
<path d="M527.325 748.046C529.082 748.729 531.758 749.755 533.231 750.912C577.964 771.652 590.752 836.736 570.201 878.209C555.701 907.469 522.572 929.625 492.873 940.768C443.718 959.212 383.925 950.264 348.031 909.767C342.702 904.222 338.149 899.032 335.2 891.893C341.619 892.567 349.051 894.939 355.869 895.863C439.443 907.193 546.565 872.834 532.513 771.065C531.743 765.497 527.164 751.27 527.325 748.046Z" fill="#DC1512"/>
<path d="M533.231 750.912C577.963 771.652 590.752 836.736 570.201 878.209C555.701 907.469 522.572 929.625 492.873 940.768C443.718 959.212 383.925 950.264 348.031 909.768C351.44 908.08 359.491 915.116 363.493 916.476C433.462 940.232 523.963 918.435 551.224 843.613C560.539 816.746 557.257 785.4 541.076 761.888C538.465 758.094 535.148 755.327 533.231 750.912Z" fill="#DC1512"/>
<path d="M364.899 819.714C390.731 814.263 420.516 875.701 385.472 885.535C349.786 884.103 332.977 819.677 364.899 819.714Z" fill="#FF0600"/>
<path d="M364.18 829.318C382.082 827.688 399.775 866.013 385.472 875.043C368.442 875.145 348.316 839.104 364.18 829.318Z" fill="#FF0600"/>
<path d="M330.674 816.915C336.573 787.203 361.974 779.09 357.451 790.576C355.864 794.61 347.717 800.306 345.456 804.659C342.553 809.448 340.359 818.069 338.854 820.425L338.271 819.944C339.848 816.621 334.678 822.458 332.086 813.987C331.767 815.561 331.71 815.687 330.674 816.915Z" fill="#FAF2EE"/>
<path d="M643.087 676.674C657.211 669.356 661.241 660.723 679.117 664.436C684.539 665.929 696.913 672.018 700.042 676.674C715.489 686.809 729.525 712.373 733.062 730.351C748.511 808.837 671.039 877.533 596.313 875.043C591.751 875.081 587.891 874.899 583.176 875.043C586.445 865.571 587.868 859.954 589.509 850.057C591.179 838.089 590.32 831.265 590.423 819.714C580.295 781.525 562.953 740.919 517.607 735.167C517.752 729.808 518.809 724.361 518.413 719.306C518.039 716.426 517.905 715.534 515.947 713.425C525.405 707.917 553.151 701.005 564.029 700.443C563.197 705.49 552.067 738.256 564.234 734.819C586.786 728.45 598.634 714.209 609.809 695.222C624.11 699.385 630.778 701.118 641.535 712.35C644.346 714.541 647.86 720.023 650.621 721.782C668.332 733.06 660.489 689.033 643.087 676.674Z" fill="#DC1512"/>
<path d="M643.087 676.674C657.211 669.356 661.241 660.723 679.117 664.436C707.438 724.618 673.427 783.538 616.98 811.68C615.076 812.629 608.425 815.437 606.374 816.036C601.051 817.59 595.835 818.002 590.423 819.714C580.295 781.525 562.953 740.919 517.607 735.167C517.752 729.808 518.809 724.361 518.413 719.306C518.039 716.426 517.905 715.534 515.947 713.425C525.405 707.917 553.151 701.005 564.029 700.443C563.197 705.49 552.067 738.256 564.234 734.819C586.786 728.45 598.634 714.209 609.809 695.222C624.11 699.385 630.778 701.118 641.535 712.35C644.346 714.541 647.86 720.023 650.621 721.782C668.332 733.06 660.489 689.033 643.087 676.674Z" fill="#FF0600"/>
<path d="M518.413 719.306C518.547 719.87 518.941 722.302 519.45 722.394C536.068 725.399 551.191 731.004 565.379 740.314C566.558 739.52 566.828 739.655 567.886 740.583C586.884 757.228 599.924 779.46 604.488 804.363C605.127 807.861 605.511 812.747 606.374 816.035C601.051 817.589 595.835 818.002 590.423 819.713C580.295 781.525 562.953 740.919 517.607 735.167C517.752 729.808 518.809 724.361 518.413 719.306Z" fill="#DC1512"/>
<path d="M679.117 664.436C684.539 665.929 696.913 672.018 700.042 676.674C699.36 679.47 702.144 683.672 703.396 686.381C734.82 754.36 675.087 839.029 604.577 847.774C599.298 847.96 592.552 850.167 589.509 850.057C591.18 838.089 590.32 831.265 590.423 819.714C595.835 818.002 601.051 817.59 606.374 816.036C608.425 815.437 615.076 812.629 616.98 811.68C673.427 783.538 707.438 724.619 679.117 664.436Z" fill="#DC1512"/>
<path d="M606.374 816.036C606.675 826.674 606.741 837.285 604.577 847.773C599.298 847.96 592.552 850.167 589.509 850.057C591.18 838.089 590.32 831.265 590.423 819.714C595.835 818.002 601.051 817.59 606.374 816.036Z" fill="#DC1512"/>
<path d="M589.509 850.056C592.552 850.167 599.298 847.96 604.577 847.773C603.323 855.108 601.625 862.826 597.518 869.165C596.933 870.067 594.102 873.924 594.274 874.546L596.313 875.043C591.751 875.081 587.891 874.899 583.176 875.043C586.445 865.571 587.868 859.953 589.509 850.056Z" fill="#DC1512"/>
<path d="M353.761 523.926C358.073 522.344 363.99 520.987 368.602 520.153C376.06 526.834 380.692 529.346 389.285 534.257C385.88 536.431 385.501 536.686 383.055 540.071C375.031 544.042 370.293 552.658 364.876 559.498C347.727 581.157 407.317 566.166 413.429 564.796C409.978 577.24 391.767 605.575 410.543 601.48C437.925 595.507 448.562 581.042 464.092 560.551C483.632 563.565 497.529 571.897 507.347 589.822C518.587 610.343 523.904 568.286 511.277 547.74C509.818 546.483 506.404 541.894 504.617 540.071C513.941 534.468 521.039 531.586 529.615 523.926C531.9 524.596 534.767 525.209 537.123 525.776C544.654 529.063 551.735 532.279 558.489 537.098C585.909 559.236 602.918 594.473 597.553 630.078C592.137 619.29 587.08 606.65 574.713 602.197C551.52 593.845 535.956 626.37 558.489 639.07C545.6 640.1 537.081 641.034 524.558 643.479C521.633 640.219 519.653 637.027 517.607 633.154C504.921 610.638 504.785 627.854 509.652 643.479C510.939 647.492 512.252 650.5 513.916 654.361C496.254 658.896 482.388 666.176 470.356 680.123C461.781 680.378 453.361 683.821 445.597 684.219C439.402 685.17 428.846 685.303 422.525 685.224C420.277 679.357 417.584 671.954 414.808 666.469C407.716 651.843 381.521 620.072 364.18 619.364C361.315 618.168 354.036 612.83 350.772 610.756C344.39 608.259 338.845 605.518 331.942 604.077C328.502 603.056 321.617 603.324 318.532 601.973C309.399 597.977 303.746 595.728 293.755 594.273C294.425 590.936 295.41 585.339 296.728 582.325C303.938 554.915 324.892 529.017 353.761 523.926ZM330.674 582.325C338.255 568.427 325.964 563.169 317.953 579.99C312.372 595.862 327.668 597.278 330.674 582.325ZM325.996 552.997C327.941 558.49 330.154 559.715 336.026 558.953C340.587 554.473 334.161 547.21 330.674 543.504C327.764 546.933 326.966 548.44 325.996 552.997Z" fill="#FF0600"/>
<path d="M296.728 582.324C303.336 581.407 311.288 577.825 317.953 579.99C312.372 595.862 327.668 597.278 330.674 582.324C339.497 580.561 361.927 589.597 370.293 593.534C402.73 608.801 423.785 632.436 439.105 664.436C440.342 668.406 445.235 681.189 445.597 684.219C439.402 685.17 428.846 685.303 422.525 685.224C420.277 679.357 417.584 671.954 414.808 666.469C407.716 651.843 381.521 620.072 364.18 619.364C361.315 618.168 354.036 612.83 350.772 610.756C344.39 608.259 338.845 605.518 331.942 604.077C328.502 603.055 321.617 603.324 318.532 601.973C309.399 597.977 303.746 595.728 293.755 594.273C294.425 590.936 295.41 585.338 296.728 582.324Z" fill="#DC1512"/>
<path d="M439.105 664.436C440.342 668.406 445.235 681.189 445.597 684.219C439.402 685.17 428.846 685.303 422.525 685.224C420.277 679.357 417.584 671.954 414.808 666.469C419.793 662.713 432.874 664.46 439.105 664.436Z" fill="#DC1512"/>
<path d="M350.772 610.756C355.97 607.727 375.573 616.438 364.18 619.364C361.315 618.168 354.036 612.83 350.772 610.756Z" fill="#DC1512"/>
<path d="M558.49 537.098C585.909 559.236 602.918 594.473 597.553 630.078C592.138 619.29 587.08 606.65 574.713 602.197C551.52 593.845 535.956 626.37 558.49 639.07C545.6 640.1 537.081 641.034 524.558 643.479C521.633 640.219 519.653 637.027 517.607 633.154C532.813 622.454 552.747 585.846 556.74 567.42C558.97 557.124 558.189 547.162 558.49 537.098Z" fill="#DC1512"/>
<path d="M509.652 643.479C510.939 647.492 512.252 650.5 513.916 654.361C496.254 658.896 482.388 666.176 470.356 680.123C461.781 680.378 453.361 683.821 445.597 684.219C445.234 681.189 440.342 668.407 439.105 664.436C467.036 660.555 484.334 656.702 509.652 643.479Z" fill="#DC1512"/>
<path d="M529.615 523.926C531.9 524.596 534.767 525.209 537.123 525.776C532.326 539.475 517.929 541.21 511.277 547.739C509.818 546.483 506.404 541.893 504.616 540.071C513.94 534.468 521.039 531.586 529.615 523.926Z" fill="#DC1512"/>
<path d="M353.761 523.926C358.073 522.344 363.991 520.987 368.602 520.153C376.06 526.834 380.692 529.346 389.285 534.257C385.88 536.431 385.501 536.686 383.055 540.071C375.769 532.756 364.003 527.604 354.382 524.154L353.761 523.926Z" fill="#DC1512"/>
<path d="M330.674 543.504C344.169 528.529 362.408 534.572 353.3 546.143C349.259 551.593 342.665 557.423 336.026 558.953C340.586 554.473 334.161 547.21 330.674 543.504Z" fill="#FAF2EE"/>
<path d="M518.413 666.469C524.923 665.817 533.816 670.617 540.925 672.761C533.225 680.593 525.566 686.827 519.092 696.042C514.458 702.64 503.919 708.027 507.232 716.101C502.627 722.672 498.378 724.347 490.637 722.319C481.134 719.597 473.905 718.997 464.092 719.306C470.881 692.526 489.445 669.283 518.413 666.469Z" fill="#FF0600"/>
<path d="M504.617 680.123C522.008 680.411 507.731 697.267 494.847 700.443C477.458 701.437 486.83 683.962 504.617 680.123Z" fill="#FAF2EE"/>
<path d="M281.582 630.078C290.119 627.944 301.399 634.663 308.799 639.07C307.569 640.113 306.758 640.611 306.037 642.002C314.202 648.381 324.319 656.89 328.613 666.469C331.449 671.393 332.168 674.5 333.187 680.123C323.432 668.719 295.253 649.327 279.698 657.515C274.05 660.708 272.466 668.755 267.564 674.325C257.673 685.569 249.291 689.248 236.465 695.222C237.011 690.911 237.484 689.371 238.812 685.225C240.617 679.92 246.078 662.221 245.875 657.515C246.736 656.455 246.671 656.413 248.017 655.952C247.916 653.085 244.468 642.303 241.438 641.149C240.211 639.704 238.246 637.202 236.465 636.789C241.515 635.914 243.872 635.703 248.944 636.789C256.089 658.585 261.899 653.799 276.209 642.002C277.546 638.462 279.695 633.317 281.582 630.078Z" fill="#39AE1F"/>
<path d="M245.875 657.515C246.737 656.455 246.671 656.413 248.018 655.952L248.418 656.216C255.189 660.558 271.267 656.652 262.566 668.005C257.633 674.441 246.662 683.182 238.812 685.225C240.618 679.92 246.079 662.221 245.875 657.515Z" fill="#6AD13C"/>
<path d="M281.582 630.078C290.119 627.944 301.399 634.663 308.799 639.07C307.57 640.113 306.758 640.611 306.037 642.002H304.615C299.157 640.864 281.773 643.429 276.209 642.002C277.546 638.462 279.695 633.317 281.582 630.078Z" fill="#1D8D15"/>
<path d="M306.036 642.002C314.202 648.381 324.319 656.89 328.612 666.469C326.328 666.73 313.257 655.365 309.401 653.704C293.771 646.966 300.131 645.938 304.614 642.002H306.036Z" fill="#6AD13C"/>
<path d="M432.91 772.597C452.906 771.278 438.214 757.189 461.389 745.383C461.863 752.405 471.73 755.481 477.361 755.566C458.896 757.454 486.457 770.571 490.637 776.867C493.977 782.45 495.613 784.906 497.618 791.085C484.942 779.085 468.246 773.781 450.944 777.659C448.691 778.164 438.893 793.026 436.655 795.728C431.632 801.796 426.534 806.349 420.71 811.516C421.558 806.756 425.56 781.223 420.083 779.839C414.325 778.384 414.396 781.376 413.429 785.824C398.845 791.417 395.924 795.997 377.482 798.649C389.511 788.919 400.073 772.143 413.429 767.991C416.975 767.29 421.847 767.568 425.406 767.991C428.588 769.828 429.348 771.366 432.91 772.597Z" fill="#6AD13C"/>
<path d="M432.91 772.597C452.906 771.278 438.213 757.189 461.388 745.383C461.863 752.405 471.73 755.481 477.36 755.566C458.896 757.454 486.457 770.571 490.637 776.867C476.564 774.511 471.952 764.079 450.326 765.291C443.806 770.221 437.947 781.795 426.914 777.704C423.327 776.375 415.139 771.496 413.428 767.991C416.975 767.29 421.847 767.568 425.406 767.991C428.588 769.828 429.347 771.366 432.91 772.597Z" fill="#1D8D15"/>
<path d="M458.112 532.753C483.285 535.884 506.638 545.388 509.652 573.846C495.75 561.289 484.359 551.182 464.148 551.449C452.484 551.602 443.955 581.489 414.808 589.048C420.399 579.586 431 556.615 413.428 554.709C423.503 541.646 421.124 544.465 414.808 535.386C419.127 534.838 422.601 534.518 426.947 534.257C434.073 548.181 453.946 545.691 458.112 532.753Z" fill="#39AE1F"/>
<path d="M606.374 666.469C609.165 663.622 611.559 662.066 615.009 660.152C618.377 662.332 620.801 667.204 623.713 667.576C617.077 667.922 619.144 675.038 625.475 678.235C636.645 678.07 648.039 698.268 650.637 707.476C641.736 698.096 618.706 681.151 605.413 685.723C601.154 687.19 591.148 714.82 569.891 722.17L569.445 722.319C570.424 717.631 575.976 696.395 574.551 692.388C572.098 685.496 536.785 695.624 531.371 697.431C540.46 682.421 553.241 675.654 569.445 671.074C572.227 670.438 575.391 669.788 578.108 669.03C578.749 678.361 583.936 682.048 593.282 682.402C599.147 681.306 602.399 680.334 606.374 675.482C606.289 672.32 606.231 669.621 606.374 666.469Z" fill="#6AD13C"/>
<path d="M606.374 666.469C609.165 663.622 611.559 662.066 615.009 660.152C618.377 662.332 620.801 667.204 623.713 667.576C617.077 667.922 619.144 675.038 625.475 678.235L624.679 678.89C621.237 678.665 618.286 679.212 615.009 680.123C611.703 679.05 608.166 678.401 606.374 675.482C606.289 672.32 606.231 669.621 606.374 666.469Z" fill="#39AE1F"/>
<path d="M569.445 671.073C572.227 670.438 575.391 669.788 578.108 669.03C578.749 678.361 583.936 682.048 593.282 682.401C578.572 684.23 572.103 688.461 569.445 671.073Z" fill="#39AE1F"/>
<path d="M423.373 462.323C446.631 462.767 450.232 515.072 449.494 531.579C426.128 540.053 441.184 520.424 428.869 501.464C425.22 489.916 417.036 480.543 408.582 472.181C412.125 465.912 416.311 463.17 423.373 462.323Z" fill="#1D8D15"/>
<path d="M408.582 472.181C412.125 465.912 416.311 463.17 423.373 462.323C424.001 464.778 427.112 466.832 428.869 470.162C425.646 484.393 430.808 494.212 428.869 501.464C425.22 489.916 417.036 480.543 408.582 472.181Z" fill="#6AD13C"/>
<path d="M243.023 594.273C238.145 586.985 225.564 579.273 234.749 572.146C243.39 565.44 251.209 569.277 257.108 576.959C271.176 593.95 279.07 626.223 261.059 643.479C258.788 626.678 253.045 608.103 243.023 594.273Z" fill="#1D8D15"/>
<path d="M243.023 594.273C238.145 586.985 225.564 579.273 234.749 572.146C243.39 565.44 251.209 569.277 257.108 576.959C255.897 583.113 255.346 588.116 254.473 594.273C250.716 594.294 246.764 594.38 243.023 594.273Z" fill="#6AD13C"/>
<path d="M445.597 684.219C453.361 683.821 461.781 680.378 470.356 680.123C458.223 695.023 457.387 703.277 452.196 720.148H445.597C443.479 720.348 441.243 720.21 439.105 720.148C435.862 712.49 432.856 709.608 426.947 704.306C425.615 697.553 424.414 691.868 422.525 685.224C428.845 685.303 439.402 685.17 445.597 684.219Z" fill="#DC1512"/>
<path d="M445.597 684.219C453.361 683.821 461.781 680.378 470.356 680.123C458.223 695.023 457.388 703.277 452.196 720.148H445.597L446.093 719.782C445.974 707.091 448.667 699.034 445.597 684.219Z" fill="#DC1512"/>
<path d="M575.256 641.149C570.219 635.392 555.516 627.319 557.161 620.187C559.67 609.309 571.786 607.749 578.108 616.652C588.704 629.119 595.803 656.288 596.313 672.761C594.339 672.744 592.398 672.729 590.423 672.761L590.198 672.273C585.004 660.711 586.893 651.845 575.256 641.149Z" fill="#39AE1F"/>
<path d="M575.256 641.149C570.219 635.392 555.516 627.319 557.161 620.187C559.67 609.309 571.786 607.749 578.108 616.652C577.729 628.394 579.495 627.116 575.256 641.149Z" fill="#6AD13C"/>
<path d="M194.581 614.899C208.059 615.019 235.441 602.708 245.875 619.364C246.363 622.797 246.55 623.653 248.017 626.936C230.299 626.71 230.311 629.989 216.644 634.939C211.436 633.239 201.886 627.644 198.178 623.35C195.688 622.392 193.805 621.043 191.78 619.364C190.176 617.897 188.076 616.285 186.357 614.899C189.181 614.842 191.76 614.822 194.581 614.899Z" fill="#39AE1F"/>
<path d="M194.581 614.899C208.059 615.019 235.441 602.708 245.875 619.364C224.611 617.654 216.78 623.456 198.178 623.35C195.688 622.392 193.805 621.043 191.78 619.364C190.176 617.897 188.076 616.285 186.357 614.899C189.181 614.842 191.76 614.822 194.581 614.899Z" fill="#6AD13C"/>
<path d="M186.357 614.899C189.181 614.842 191.76 614.822 194.581 614.899C194.198 615.688 194.501 615.383 193.605 615.744L193.66 616.102C193.967 618.215 193.447 618.238 191.78 619.364C190.176 617.897 188.076 616.285 186.357 614.899Z" fill="#76F047"/>
<path d="M288.715 623.35C311.181 608.541 324.351 609.446 348.031 620.554C338.184 622.028 326.866 626.904 317.953 631.465C314.354 634.119 311.904 635.782 308.799 639.07C301.399 634.663 290.119 627.944 281.582 630.078C283.821 627.172 285.8 625.528 288.715 623.35Z" fill="#6AD13C"/>
<path d="M281.582 630.078C283.821 627.172 285.8 625.528 288.715 623.35C300.479 625.404 306.529 626.706 317.953 631.465C314.354 634.119 311.904 635.782 308.799 639.07C301.399 634.663 290.119 627.944 281.582 630.078Z" fill="#39AE1F"/>
<path d="M236.465 636.789C238.246 637.202 240.211 639.704 241.438 641.149C244.468 642.303 247.916 653.085 248.017 655.952C246.671 656.413 246.736 656.455 245.875 657.515C241.853 658.552 237.643 660.274 233.892 661.175C218.827 664.789 208.569 662.492 194.581 663.326C195.142 662.817 197.72 660.4 198.177 660.151C210.961 651.557 221.289 641.17 236.465 636.789Z" fill="#39AE1F"/>
<path d="M236.465 636.789C238.246 637.202 240.211 639.704 241.437 641.149C235.37 650.881 208.74 665.08 198.177 660.151C210.961 651.557 221.288 641.17 236.465 636.789Z" fill="#6AD13C"/>
<path d="M379.242 507.492C391.178 507.23 414.987 504.525 422.525 511C425.236 515.072 425.997 520.923 426.947 525.776C409.528 524.744 399.7 532.633 383.055 518.365C380.642 516.949 378.293 514.988 376.078 513.241C376.964 512.168 378.53 509.836 378.833 508.505L377.314 507.98L379.242 507.492Z" fill="#6AD13C"/>
<path d="M422.525 511C425.236 515.072 425.997 520.923 426.947 525.776C409.528 524.744 399.7 532.633 383.055 518.365C385.123 517.9 390.144 519.057 392.5 518.882C401.288 518.233 415.155 515.462 422.525 511Z" fill="#39AE1F"/>
<path d="M475.632 518.365C485.882 513.703 494.873 514.804 505.514 513.051C510.514 512.228 518.351 509.263 523.492 507.492L521.902 508.946C524.868 508.214 524.696 508.291 526.989 510.559L526.667 510.8L527.325 511C519.973 521.445 506.313 529.096 494.847 534.257C490.881 532.2 484.938 529.363 481.187 527.169C478.156 526.451 476.366 526.1 473.217 525.776C469.619 524.762 467.814 524.152 464.092 523.926C467.315 521.284 471.748 519.69 475.632 518.365Z" fill="#6AD13C"/>
<path d="M521.902 508.946C524.869 508.214 524.696 508.291 526.99 510.559L526.667 510.8L527.325 511C519.973 521.444 506.313 529.096 494.847 534.257C490.881 532.2 484.938 529.363 481.187 527.169C499.474 521.917 505.096 525.544 521.902 508.946Z" fill="#39AE1F"/>
<path d="M464.092 523.926C467.315 521.284 471.748 519.69 475.632 518.365L476.161 519.129C475.292 521.188 472.415 524.414 473.217 525.776C469.619 524.762 467.814 524.152 464.092 523.926Z" fill="#76F047"/>
<path d="M420.71 741.462C415.296 735.651 400.509 725.586 398.362 722.221C392.636 713.251 412.704 693.166 428.868 722.318C427.22 728.036 425.353 737.651 420.71 741.462Z" fill="#39AE1F"/>
<path d="M376.078 560.551L377.605 558.516C386.789 546.384 399.556 537.473 414.808 535.386C421.124 544.465 423.503 541.646 413.428 554.709C400.795 557.268 389.22 560.529 376.078 560.551Z" fill="#6AD13C"/>
<path d="M654.672 647.592L666.664 641.149C665.528 642.927 660.994 650.232 659.698 651.241C653.55 659.806 643.765 665.899 634.207 669.962C630.623 668.802 627.488 667.985 623.713 667.576C620.801 667.204 618.377 662.331 615.009 660.151C621.591 656.159 646.066 648.241 654.672 647.592Z" fill="#6AD13C"/>
<path d="M523.492 654.361C534.494 651.144 557.716 648.579 569.445 649.383C572.415 652.653 573.503 655.027 575.256 659.09C568.74 660.682 563.336 661.93 557.085 664.436C554.449 665.461 553.045 666.211 550.55 667.576C545.428 664.474 542.716 663.581 537.123 661.53C532.131 659.845 527.67 657.609 523.492 654.361Z" fill="#39AE1F"/>
<path d="M537.123 661.529C541.02 659.525 555.051 658.306 557.086 664.436C554.449 665.461 553.045 666.211 550.55 667.576C545.428 664.474 542.716 663.581 537.123 661.529Z" fill="#6AD13C"/>
<path d="M461.388 745.383C476.871 737.038 492.32 737.028 507.232 729.271C501.404 741.233 491.022 752.795 477.36 755.566C471.73 755.481 461.863 752.405 461.388 745.383Z" fill="#6AD13C"/>
<path d="M407.317 750.912C409.324 750.444 411.42 749.924 413.428 749.505C414.538 750.595 423.617 758.097 418.315 757.634C407.646 759.002 405.645 760.809 396.438 766.279C382.722 763.947 375.914 758.779 364.898 750.912C381.055 753.059 393.633 749.716 407.317 750.912Z" fill="#6AD13C"/>
<path d="M407.317 750.912C409.324 750.444 411.42 749.924 413.428 749.505C414.538 750.595 423.617 758.097 418.315 757.634C415.512 755.845 408.909 753.063 407.317 750.912Z" fill="#39AE1F"/>
<path d="M428.869 722.319C434.058 730.621 442.477 753.433 435.676 762.221L434.942 762.361C432.213 759.896 424.343 746.171 420.711 741.462C425.353 737.651 427.221 728.036 428.869 722.319Z" fill="#1D8D15"/>
<path d="M458.112 498.216C470.246 497.733 482.703 498.495 493.295 504.827C489.761 504.937 487.514 505.052 484.033 505.545C474.045 507.756 468.302 510.2 458.996 514.103C458.375 508.245 457.868 504.106 458.112 498.216Z" fill="#DC1512"/>
<path d="M607.854 639.07C617.661 638.52 623.115 639.681 632.082 643.479C626.137 644.154 623.156 645.35 617.618 647.592C613.194 649.542 608.832 652.04 604.577 654.362C603.079 650.157 601.425 643.512 600.191 639.07H607.854Z" fill="#FF0600"/>
<path d="M461.389 729.271C466.063 729.053 472.542 729.267 477.361 729.271C468.021 732.237 463.538 732.88 455.2 738.424C452.295 739.617 449.875 741.074 447.163 742.625C446.169 738.777 445.018 735.122 443.84 731.333C449.693 730.304 455.474 729.738 461.389 729.271Z" fill="#FF0600"/>
<path d="M279.698 602.346C288.165 602.79 293.764 603.351 302.131 605.648C298.755 606.956 296.832 607.655 293.755 609.473C288.298 611.459 285.806 614.009 281.582 617.806C281.461 612.375 280.624 607.649 279.698 602.346Z" fill="#FB3732"/>
</svg>
