<svg width="849" height="1183" viewBox="0 0 849 1183" fill="none" xmlns="http://www.w3.org/2000/svg">
<rect x="5" y="5" width="839" height="1173" rx="45" fill="white"/>
<rect x="5" y="5" width="839" height="1173" rx="45" stroke="black" stroke-width="10"/>
<circle cx="786.5" cy="1124.5" r="11.5" fill="black"/>
<circle cx="786.5" cy="59.5" r="11.5" fill="black"/>
<path d="M77 1124.5C77 1130.85 71.8513 1136 65.5 1136C59.1487 1136 54 1130.85 54 1124.5C54 1118.15 59.1487 1113 65.5 1113C71.8513 1113 77 1118.15 77 1124.5Z" fill="black"/>
<path d="M77 59.5C77 65.8513 71.8513 71 65.5 71C59.1487 71 54 65.8513 54 59.5C54 53.1487 59.1487 48 65.5 48C71.8513 48 77 53.1487 77 59.5Z" fill="black"/>
<mask id="path-6-inside-1_97_8" fill="white">
<path d="M708 48C713.523 48 717.934 52.4996 718.616 57.9801C723.122 94.1833 751.817 122.878 788.02 127.384C793.5 128.066 798 132.477 798 138V1046C798 1051.52 793.5 1055.93 788.02 1056.62C751.817 1061.12 723.122 1089.82 718.616 1126.02C717.934 1131.5 713.523 1136 708 1136H141C135.477 1136 131.066 1131.5 130.384 1126.02C125.878 1089.82 97.1833 1061.12 60.9801 1056.62C55.4996 1055.93 51 1051.52 51 1046V138C51 132.477 55.4996 128.066 60.9801 127.384C97.1833 122.878 125.878 94.1833 130.384 57.9801C131.066 52.4996 135.477 48 141 48H708Z"/>
</mask>
<path d="M708 48C713.523 48 717.934 52.4996 718.616 57.9801C723.122 94.1833 751.817 122.878 788.02 127.384C793.5 128.066 798 132.477 798 138V1046C798 1051.52 793.5 1055.93 788.02 1056.62C751.817 1061.12 723.122 1089.82 718.616 1126.02C717.934 1131.5 713.523 1136 708 1136H141C135.477 1136 131.066 1131.5 130.384 1126.02C125.878 1089.82 97.1833 1061.12 60.9801 1056.62C55.4996 1055.93 51 1051.52 51 1046V138C51 132.477 55.4996 128.066 60.9801 127.384C97.1833 122.878 125.878 94.1833 130.384 57.9801C131.066 52.4996 135.477 48 141 48H708Z" fill="#0089CB"/>
<path d="M130.384 1126.02L138.322 1125.03L130.384 1126.02ZM718.616 1126.02L710.678 1125.03L718.616 1126.02ZM788.02 1056.62L789.008 1064.56L788.02 1056.62ZM718.616 57.9801L726.555 56.9922L718.616 57.9801ZM718.616 57.9801L710.678 58.9681C715.635 98.8063 747.194 130.365 787.032 135.322L788.02 127.384L789.008 119.445C756.44 115.392 730.608 89.5603 726.555 56.9922L718.616 57.9801ZM798 138H790V1046H798H806V138H798ZM788.02 1056.62L787.032 1048.68C747.194 1053.64 715.635 1085.19 710.678 1125.03L718.616 1126.02L726.555 1127.01C730.608 1094.44 756.44 1068.61 789.008 1064.56L788.02 1056.62ZM708 1136V1128H141V1136V1144H708V1136ZM130.384 1126.02L138.322 1125.03C133.365 1085.19 101.806 1053.64 61.9681 1048.68L60.9801 1056.62L59.9922 1064.56C92.5603 1068.61 118.392 1094.44 122.445 1127.01L130.384 1126.02ZM51 1046H59V138H51H43V1046H51ZM60.9801 127.384L61.9681 135.322C101.806 130.365 133.365 98.8063 138.322 58.9681L130.384 57.9801L122.445 56.9922C118.392 89.5603 92.5603 115.392 59.9922 119.445L60.9801 127.384ZM141 48V56H708V48V40H141V48ZM130.384 57.9801L138.322 58.9681C138.438 58.0389 138.872 57.2306 139.427 56.6958C139.954 56.1887 140.494 56 141 56V48V40C130.84 40 123.547 48.1329 122.445 56.9922L130.384 57.9801ZM51 138H59C59 137.494 59.1887 136.954 59.6958 136.427C60.2306 135.872 61.0389 135.438 61.9681 135.322L60.9801 127.384L59.9922 119.445C51.1329 120.547 43 127.84 43 138H51ZM60.9801 1056.62L61.9681 1048.68C61.0389 1048.56 60.2306 1048.13 59.6958 1047.57C59.1887 1047.05 59 1046.51 59 1046H51H43C43 1056.16 51.1329 1063.45 59.9922 1064.56L60.9801 1056.62ZM141 1136V1128C140.494 1128 139.954 1127.81 139.427 1127.3C138.872 1126.77 138.438 1125.96 138.322 1125.03L130.384 1126.02L122.445 1127.01C123.547 1135.87 130.84 1144 141 1144V1136ZM718.616 1126.02L710.678 1125.03C710.562 1125.96 710.128 1126.77 709.573 1127.3C709.046 1127.81 708.506 1128 708 1128V1136V1144C718.16 1144 725.453 1135.87 726.555 1127.01L718.616 1126.02ZM798 1046H790C790 1046.51 789.811 1047.05 789.304 1047.57C788.769 1048.13 787.961 1048.56 787.032 1048.68L788.02 1056.62L789.008 1064.56C797.867 1063.45 806 1056.16 806 1046H798ZM788.02 127.384L787.032 135.322C787.961 135.438 788.769 135.872 789.304 136.427C789.811 136.954 790 137.494 790 138H798H806C806 127.84 797.867 120.547 789.008 119.445L788.02 127.384ZM718.616 57.9801L726.555 56.9922C725.453 48.1329 718.16 40 708 40V48V56C708.506 56 709.046 56.1887 709.573 56.6958C710.128 57.2306 710.562 58.0389 710.678 58.9681L718.616 57.9801Z" fill="black" mask="url(#path-6-inside-1_97_8)"/>
<path d="M690 102C695.523 102 699.911 106.512 700.837 111.957C705.019 136.563 724.437 155.981 749.043 160.163C754.488 161.089 759 165.477 759 171V1014C759 1019.52 754.488 1023.91 749.043 1024.84C724.711 1028.97 705.454 1048 700.984 1072.22C699.993 1077.59 695.633 1082 690.175 1082H158.825C153.367 1082 149.007 1077.59 148.016 1072.22C143.546 1048 124.288 1028.97 99.9568 1024.84C94.5121 1023.91 90 1019.52 90 1014V171C90 165.477 94.512 161.089 99.9568 160.163C124.563 155.981 143.981 136.563 148.163 111.957C149.089 106.512 153.477 102 159 102H690Z" fill="#4BADDC"/>
<path d="M293.595 348.925V408H283.905V367.54L265.885 408H259.17L241.065 367.54V408H231.375V348.925H241.83L262.57 395.25L283.225 348.925H293.595ZM303.101 384.37C303.101 379.667 304.064 375.502 305.991 371.875C307.974 368.248 310.638 365.443 313.981 363.46C317.381 361.42 321.121 360.4 325.201 360.4C328.884 360.4 332.086 361.137 334.806 362.61C337.583 364.027 339.793 365.812 341.436 367.965V361.165H351.211V408H341.436V401.03C339.793 403.24 337.554 405.082 334.721 406.555C331.888 408.028 328.658 408.765 325.031 408.765C321.008 408.765 317.324 407.745 313.981 405.705C310.638 403.608 307.974 400.718 305.991 397.035C304.064 393.295 303.101 389.073 303.101 384.37ZM341.436 384.54C341.436 381.31 340.756 378.505 339.396 376.125C338.093 373.745 336.364 371.932 334.211 370.685C332.058 369.438 329.734 368.815 327.241 368.815C324.748 368.815 322.424 369.438 320.271 370.685C318.118 371.875 316.361 373.66 315.001 376.04C313.698 378.363 313.046 381.14 313.046 384.37C313.046 387.6 313.698 390.433 315.001 392.87C316.361 395.307 318.118 397.177 320.271 398.48C322.481 399.727 324.804 400.35 327.241 400.35C329.734 400.35 332.058 399.727 334.211 398.48C336.364 397.233 338.093 395.42 339.396 393.04C340.756 390.603 341.436 387.77 341.436 384.54ZM387.568 360.4C391.252 360.4 394.538 361.165 397.428 362.695C400.375 364.225 402.67 366.492 404.313 369.495C405.957 372.498 406.778 376.125 406.778 380.375V408H397.173V381.82C397.173 377.627 396.125 374.425 394.028 372.215C391.932 369.948 389.07 368.815 385.443 368.815C381.817 368.815 378.927 369.948 376.773 372.215C374.677 374.425 373.628 377.627 373.628 381.82V408H363.938V361.165H373.628V366.52C375.215 364.593 377.227 363.092 379.663 362.015C382.157 360.938 384.792 360.4 387.568 360.4ZM427.724 400.095H448.974V408H416.504V400.095L437.839 369.07H416.504V361.165H448.974V369.07L427.724 400.095ZM455.918 384.37C455.918 379.667 456.882 375.502 458.808 371.875C460.792 368.248 463.455 365.443 466.798 363.46C470.198 361.42 473.938 360.4 478.018 360.4C481.702 360.4 484.903 361.137 487.623 362.61C490.4 364.027 492.61 365.812 494.253 367.965V361.165H504.028V408H494.253V401.03C492.61 403.24 490.372 405.082 487.538 406.555C484.705 408.028 481.475 408.765 477.848 408.765C473.825 408.765 470.142 407.745 466.798 405.705C463.455 403.608 460.792 400.718 458.808 397.035C456.882 393.295 455.918 389.073 455.918 384.37ZM494.253 384.54C494.253 381.31 493.573 378.505 492.213 376.125C490.91 373.745 489.182 371.932 487.028 370.685C484.875 369.438 482.552 368.815 480.058 368.815C477.565 368.815 475.242 369.438 473.088 370.685C470.935 371.875 469.178 373.66 467.818 376.04C466.515 378.363 465.863 381.14 465.863 384.37C465.863 387.6 466.515 390.433 467.818 392.87C469.178 395.307 470.935 397.177 473.088 398.48C475.298 399.727 477.622 400.35 480.058 400.35C482.552 400.35 484.875 399.727 487.028 398.48C489.182 397.233 490.91 395.42 492.213 393.04C493.573 390.603 494.253 387.77 494.253 384.54ZM540.386 360.4C544.069 360.4 547.356 361.165 550.246 362.695C553.193 364.225 555.488 366.492 557.131 369.495C558.774 372.498 559.596 376.125 559.596 380.375V408H549.991V381.82C549.991 377.627 548.943 374.425 546.846 372.215C544.749 369.948 541.888 368.815 538.261 368.815C534.634 368.815 531.744 369.948 529.591 372.215C527.494 374.425 526.446 377.627 526.446 381.82V408H516.756V361.165H526.446V366.52C528.033 364.593 530.044 363.092 532.481 362.015C534.974 360.938 537.609 360.4 540.386 360.4ZM568.726 384.37C568.726 379.667 569.689 375.502 571.616 371.875C573.599 368.248 576.263 365.443 579.606 363.46C583.006 361.42 586.746 360.4 590.826 360.4C594.509 360.4 597.711 361.137 600.431 362.61C603.208 364.027 605.418 365.812 607.061 367.965V361.165H616.836V408H607.061V401.03C605.418 403.24 603.179 405.082 600.346 406.555C597.513 408.028 594.283 408.765 590.656 408.765C586.633 408.765 582.949 407.745 579.606 405.705C576.263 403.608 573.599 400.718 571.616 397.035C569.689 393.295 568.726 389.073 568.726 384.37ZM607.061 384.54C607.061 381.31 606.381 378.505 605.021 376.125C603.718 373.745 601.989 371.932 599.836 370.685C597.683 369.438 595.359 368.815 592.866 368.815C590.373 368.815 588.049 369.438 585.896 370.685C583.743 371.875 581.986 373.66 580.626 376.04C579.323 378.363 578.671 381.14 578.671 384.37C578.671 387.6 579.323 390.433 580.626 392.87C581.986 395.307 583.743 397.177 585.896 398.48C588.106 399.727 590.429 400.35 592.866 400.35C595.359 400.35 597.683 399.727 599.836 398.48C601.989 397.233 603.718 395.42 605.021 393.04C606.381 390.603 607.061 387.77 607.061 384.54Z" fill="black"/>
<mask id="path-10-outside-2_97_8" maskUnits="userSpaceOnUse" x="407" y="1006" width="35" height="32" fill="black">
<rect fill="white" x="407" y="1006" width="35" height="32"/>
<path d="M407.8 1012V1007.84H416.12V1037H411.52V1012H407.8ZM424.904 1030.8C427.464 1028.59 429.478 1026.77 430.944 1025.36C432.438 1023.92 433.678 1022.43 434.664 1020.88C435.651 1019.33 436.144 1017.79 436.144 1016.24C436.144 1014.64 435.758 1013.39 434.984 1012.48C434.238 1011.57 433.051 1011.12 431.424 1011.12C429.851 1011.12 428.624 1011.63 427.744 1012.64C426.891 1013.63 426.438 1014.96 426.384 1016.64H421.984C422.064 1013.6 422.971 1011.28 424.704 1009.68C426.464 1008.05 428.691 1007.24 431.384 1007.24C434.291 1007.24 436.558 1008.04 438.184 1009.64C439.838 1011.24 440.664 1013.37 440.664 1016.04C440.664 1017.96 440.171 1019.81 439.184 1021.6C438.224 1023.36 437.064 1024.95 435.704 1026.36C434.371 1027.75 432.664 1029.36 430.584 1031.2L428.784 1032.8H441.464V1036.6H422.024V1033.28L424.904 1030.8Z"/>
</mask>
<path d="M407.8 1012V1007.84H416.12V1037H411.52V1012H407.8ZM424.904 1030.8C427.464 1028.59 429.478 1026.77 430.944 1025.36C432.438 1023.92 433.678 1022.43 434.664 1020.88C435.651 1019.33 436.144 1017.79 436.144 1016.24C436.144 1014.64 435.758 1013.39 434.984 1012.48C434.238 1011.57 433.051 1011.12 431.424 1011.12C429.851 1011.12 428.624 1011.63 427.744 1012.64C426.891 1013.63 426.438 1014.96 426.384 1016.64H421.984C422.064 1013.6 422.971 1011.28 424.704 1009.68C426.464 1008.05 428.691 1007.24 431.384 1007.24C434.291 1007.24 436.558 1008.04 438.184 1009.64C439.838 1011.24 440.664 1013.37 440.664 1016.04C440.664 1017.96 440.171 1019.81 439.184 1021.6C438.224 1023.36 437.064 1024.95 435.704 1026.36C434.371 1027.75 432.664 1029.36 430.584 1031.2L428.784 1032.8H441.464V1036.6H422.024V1033.28L424.904 1030.8Z" fill="black"/>
<path d="M407.8 1012H407.5V1012.3H407.8V1012ZM407.8 1007.84V1007.54H407.5V1007.84H407.8ZM416.12 1007.84H416.42V1007.54H416.12V1007.84ZM416.12 1037V1037.3H416.42V1037H416.12ZM411.52 1037H411.22V1037.3H411.52V1037ZM411.52 1012H411.82V1011.7H411.52V1012ZM407.8 1012H408.1V1007.84H407.8H407.5V1012H407.8ZM407.8 1007.84V1008.14H416.12V1007.84V1007.54H407.8V1007.84ZM416.12 1007.84H415.82V1037H416.12H416.42V1007.84H416.12ZM416.12 1037V1036.7H411.52V1037V1037.3H416.12V1037ZM411.52 1037H411.82V1012H411.52H411.22V1037H411.52ZM411.52 1012V1011.7H407.8V1012V1012.3H411.52V1012ZM424.904 1030.8L425.1 1031.03L425.101 1031.03L424.904 1030.8ZM430.944 1025.36L431.153 1025.58L431.153 1025.58L430.944 1025.36ZM434.984 1012.48L434.753 1012.67L434.756 1012.67L434.984 1012.48ZM427.744 1012.64L427.518 1012.44L427.517 1012.44L427.744 1012.64ZM426.384 1016.64V1016.94H426.675L426.684 1016.65L426.384 1016.64ZM421.984 1016.64L421.684 1016.63L421.676 1016.94H421.984V1016.64ZM424.704 1009.68L424.908 1009.9L424.908 1009.9L424.704 1009.68ZM438.184 1009.64L437.974 1009.85L437.976 1009.86L438.184 1009.64ZM439.184 1021.6L438.922 1021.45L438.921 1021.46L439.184 1021.6ZM435.704 1026.36L435.488 1026.15L435.488 1026.15L435.704 1026.36ZM430.584 1031.2L430.386 1030.98L430.385 1030.98L430.584 1031.2ZM428.784 1032.8L428.585 1032.58L427.995 1033.1H428.784V1032.8ZM441.464 1032.8H441.764V1032.5H441.464V1032.8ZM441.464 1036.6V1036.9H441.764V1036.6H441.464ZM422.024 1036.6H421.724V1036.9H422.024V1036.6ZM422.024 1033.28L421.829 1033.05L421.724 1033.14V1033.28H422.024ZM424.904 1030.8L425.101 1031.03C427.662 1028.81 429.68 1026.99 431.153 1025.58L430.944 1025.36L430.736 1025.14C429.275 1026.55 427.266 1028.36 424.708 1030.57L424.904 1030.8ZM430.944 1025.36L431.153 1025.58C432.661 1024.12 433.916 1022.61 434.917 1021.04L434.664 1020.88L434.411 1020.72C433.439 1022.24 432.215 1023.72 430.736 1025.14L430.944 1025.36ZM434.664 1020.88L434.917 1021.04C435.929 1019.46 436.444 1017.85 436.444 1016.24H436.144H435.844C435.844 1017.72 435.373 1019.21 434.411 1020.72L434.664 1020.88ZM436.144 1016.24H436.444C436.444 1014.59 436.046 1013.26 435.213 1012.29L434.984 1012.48L434.756 1012.67C435.469 1013.51 435.844 1014.69 435.844 1016.24H436.144ZM434.984 1012.48L435.216 1012.29C434.393 1011.29 433.104 1010.82 431.424 1010.82V1011.12V1011.42C432.998 1011.42 434.083 1011.86 434.753 1012.67L434.984 1012.48ZM431.424 1011.12V1010.82C429.781 1010.82 428.465 1011.35 427.518 1012.44L427.744 1012.64L427.971 1012.84C428.784 1011.9 429.921 1011.42 431.424 1011.42V1011.12ZM427.744 1012.64L427.517 1012.44C426.608 1013.5 426.139 1014.9 426.085 1016.63L426.384 1016.64L426.684 1016.65C426.736 1015.02 427.175 1013.76 427.971 1012.84L427.744 1012.64ZM426.384 1016.64V1016.34H421.984V1016.64V1016.94H426.384V1016.64ZM421.984 1016.64L422.284 1016.65C422.363 1013.66 423.25 1011.43 424.908 1009.9L424.704 1009.68L424.501 1009.46C422.692 1011.13 421.766 1013.54 421.684 1016.63L421.984 1016.64ZM424.704 1009.68L424.908 1009.9C426.606 1008.33 428.756 1007.54 431.384 1007.54V1007.24V1006.94C428.626 1006.94 426.323 1007.78 424.501 1009.46L424.704 1009.68ZM431.384 1007.24V1007.54C434.235 1007.54 436.418 1008.32 437.974 1009.85L438.184 1009.64L438.395 1009.43C436.698 1007.76 434.347 1006.94 431.384 1006.94V1007.24ZM438.184 1009.64L437.976 1009.86C439.561 1011.39 440.364 1013.44 440.364 1016.04H440.664H440.964C440.964 1013.31 440.114 1011.09 438.393 1009.42L438.184 1009.64ZM440.664 1016.04H440.364C440.364 1017.91 439.886 1019.71 438.922 1021.45L439.184 1021.6L439.447 1021.75C440.457 1019.92 440.964 1018.01 440.964 1016.04H440.664ZM439.184 1021.6L438.921 1021.46C437.974 1023.19 436.829 1024.76 435.488 1026.15L435.704 1026.36L435.921 1026.57C437.299 1025.14 438.475 1023.53 439.448 1021.74L439.184 1021.6ZM435.704 1026.36L435.488 1026.15C434.162 1027.53 432.462 1029.14 430.386 1030.98L430.584 1031.2L430.783 1031.42C432.867 1029.58 434.58 1027.96 435.921 1026.57L435.704 1026.36ZM430.584 1031.2L430.385 1030.98L428.585 1032.58L428.784 1032.8L428.984 1033.02L430.784 1031.42L430.584 1031.2ZM428.784 1032.8V1033.1H441.464V1032.8V1032.5H428.784V1032.8ZM441.464 1032.8H441.164V1036.6H441.464H441.764V1032.8H441.464ZM441.464 1036.6V1036.3H422.024V1036.6V1036.9H441.464V1036.6ZM422.024 1036.6H422.324V1033.28H422.024H421.724V1036.6H422.024ZM422.024 1033.28L422.22 1033.51L425.1 1031.03L424.904 1030.8L424.709 1030.57L421.829 1033.05L422.024 1033.28Z" fill="black" mask="url(#path-10-outside-2_97_8)"/>
<path d="M317.71 259.925H291.46L287.47 272H265.84L292.825 197.975H316.555L343.435 272H321.7L317.71 259.925ZM312.565 244.175L304.585 220.235L296.71 244.175H312.565ZM370.723 221.285C372.333 218.555 374.608 216.385 377.548 214.775C380.488 213.165 383.953 212.36 387.943 212.36C392.633 212.36 396.868 213.585 400.648 216.035C404.498 218.485 407.508 221.985 409.678 226.535C411.918 231.085 413.038 236.405 413.038 242.495C413.038 248.585 411.918 253.94 409.678 258.56C407.508 263.11 404.498 266.61 400.648 269.06C396.868 271.51 392.633 272.735 387.943 272.735C383.953 272.735 380.488 271.93 377.548 270.32C374.678 268.71 372.403 266.54 370.723 263.81V300.14H350.143V213.095H370.723V221.285ZM392.143 242.495C392.143 238.645 391.093 235.67 388.993 233.57C386.963 231.4 384.443 230.315 381.433 230.315C378.423 230.315 375.868 231.4 373.768 233.57C371.738 235.74 370.723 238.715 370.723 242.495C370.723 246.345 371.738 249.355 373.768 251.525C375.868 253.695 378.423 254.78 381.433 254.78C384.443 254.78 386.963 253.695 388.993 251.525C391.093 249.285 392.143 246.275 392.143 242.495ZM442.09 221.285C443.7 218.555 445.975 216.385 448.915 214.775C451.855 213.165 455.32 212.36 459.31 212.36C464 212.36 468.235 213.585 472.015 216.035C475.865 218.485 478.875 221.985 481.045 226.535C483.285 231.085 484.405 236.405 484.405 242.495C484.405 248.585 483.285 253.94 481.045 258.56C478.875 263.11 475.865 266.61 472.015 269.06C468.235 271.51 464 272.735 459.31 272.735C455.32 272.735 451.855 271.93 448.915 270.32C446.045 268.71 443.77 266.54 442.09 263.81V300.14H421.51V213.095H442.09V221.285ZM463.51 242.495C463.51 238.645 462.46 235.67 460.36 233.57C458.33 231.4 455.81 230.315 452.8 230.315C449.79 230.315 447.235 231.4 445.135 233.57C443.105 235.74 442.09 238.715 442.09 242.495C442.09 246.345 443.105 249.355 445.135 251.525C447.235 253.695 449.79 254.78 452.8 254.78C455.81 254.78 458.33 253.695 460.36 251.525C462.46 249.285 463.51 246.275 463.51 242.495ZM513.457 194.3V272H492.877V194.3H513.457ZM581.457 241.865C581.457 243.475 581.352 245.085 581.142 246.695H542.187C542.397 249.915 543.272 252.33 544.812 253.94C546.422 255.48 548.452 256.25 550.902 256.25C554.332 256.25 556.782 254.71 558.252 251.63H580.197C579.287 255.69 577.502 259.33 574.842 262.55C572.252 265.7 568.962 268.185 564.972 270.005C560.982 271.825 556.572 272.735 551.742 272.735C545.932 272.735 540.752 271.51 536.202 269.06C531.722 266.61 528.187 263.11 525.597 258.56C523.077 254.01 521.817 248.655 521.817 242.495C521.817 236.335 523.077 231.015 525.597 226.535C528.117 221.985 531.617 218.485 536.097 216.035C540.647 213.585 545.862 212.36 551.742 212.36C557.552 212.36 562.697 213.55 567.177 215.93C571.657 218.31 575.157 221.74 577.677 226.22C580.197 230.63 581.457 235.845 581.457 241.865ZM560.457 236.72C560.457 234.2 559.617 232.24 557.937 230.84C556.257 229.37 554.157 228.635 551.637 228.635C549.117 228.635 547.052 229.335 545.442 230.735C543.832 232.065 542.782 234.06 542.292 236.72H560.457Z" fill="black"/>
<path d="M468.092 438.117C488.48 435.596 507.565 474.504 504.592 491.353C502.403 503.754 491.491 505.794 482.496 512.106C458.574 528.892 439.231 556.921 433.99 586.093C439.256 583.343 444.667 580.337 449.921 577.545C521.18 539.666 604.376 568.001 632.806 645.166C658.501 714.907 647.757 789.04 617.906 855.838C593.422 910.627 548.254 984.168 478.548 977.895C437.469 974.268 436.177 959.305 393.458 976.24C373.057 984.328 353.858 983.848 333.787 975.117C254.981 940.031 207.243 810.142 203.227 731.577C199.658 661.777 238.277 582.833 316.454 580.801C267.174 558.102 243.883 521.478 238.063 466.767C235.268 449.72 238.521 448.796 255.251 448.332C318.281 446.584 371.393 475.475 395.718 534.124C401.726 505.473 436.387 442.26 468.092 438.117ZM388.551 599.963C388.746 596.348 388.66 593.414 388.551 589.815C382.832 589.805 374.51 589.515 369.012 589.815C371.226 591.058 386.798 599.456 388.551 599.963Z" fill="#2A1E1C"/>
<path d="M511.815 576.178C537.25 574.12 565.1 585.317 584.608 601.398C620.178 630.72 636.627 692.496 633.299 737.846C628.269 808.935 597.206 893.447 544.404 941.315C494.211 986.817 469.217 954.059 420.531 954.574C408.968 954.695 395.17 961.905 383.91 965.778C347.62 978.258 314.522 951.518 292.128 925.196L291.886 924.907C238.776 865.553 196.83 742.569 227.549 663.583C255.06 592.848 328.856 573.73 389.652 617.79C391.017 624.592 392.125 631.183 393.584 638.097C371.482 634.055 353.576 614.727 350.464 614.384C347.504 614.058 343.129 618.53 343.814 621.425C345.131 627 354.406 634.417 358.738 637.742C391.011 662.507 436.098 653.208 466.399 630.3C470.064 627.53 476.817 623.56 475.767 618.707C473.046 606.133 458.688 619.789 454.558 622.447C446.477 627.669 437.69 632.45 428.415 635.15C428.302 629.306 428.268 608.643 431.731 605.836C451.751 589.598 487.866 576.769 511.815 576.178Z" fill="#FF0000"/>
<path d="M511.814 576.178C537.249 574.12 565.099 585.317 584.607 601.398C620.177 630.72 636.626 692.496 633.298 737.846C628.268 808.935 597.205 893.447 544.403 941.315C494.21 986.817 469.216 954.059 420.53 954.574C408.967 954.695 395.169 961.905 383.909 965.778C347.619 978.258 314.521 951.518 292.128 925.196L291.886 924.907C294.948 923.862 299.266 926.281 302.325 927.618C334.295 935.548 376.843 916.906 402.787 898.597C453.043 863.127 482.661 821.401 509.697 768.001C541.621 703.287 555.311 639.13 511.814 576.178Z" fill="#C10B09"/>
<path d="M302.325 927.618C317.416 946.646 359.35 957.466 382.759 948.57C400.353 941.884 409.514 935.799 430.005 936.065C451.103 936.34 472.749 949.608 493.734 946.647C532.288 941.207 555.517 909.018 576.008 879.759C603.082 841.097 615.798 805.847 625.732 760.905C626.572 757.109 629.124 736.771 632.753 736.654L633.298 737.846C628.268 808.936 597.205 893.447 544.403 941.315C494.21 986.817 469.216 954.059 420.53 954.574C408.967 954.695 395.169 961.905 383.909 965.779C347.619 978.259 314.521 951.519 292.128 925.196L291.886 924.908C294.948 923.862 299.266 926.281 302.325 927.618Z" fill="#FF0000"/>
<path d="M585.69 708.88C589.053 708.926 592.407 709.717 593.429 713.539C609.633 774.193 583.266 841.123 547.497 889.744C542.283 896.833 532.96 908.67 525.231 911.753C520.936 911.93 517.039 909.69 516.525 905.08C516.006 900.444 521.295 897.239 524.104 894.115C562.767 851.106 589.635 789.254 582.517 730.599C581.858 725.158 580.299 720.075 579.842 714.692L579.798 714.145C581.428 711.293 582.633 709.995 585.69 708.88Z" fill="#2A1E1C"/>
<path d="M261.095 632.844C284.132 629.993 263.224 747.05 245.371 749.794C243.56 749.853 240.862 747.454 239.691 744.538C228.357 716.34 243.646 637.044 261.095 632.844Z" fill="#FF8D8F"/>
<path d="M259.661 770.01C276.333 768.35 292.161 851.451 271.877 855.741C255.958 856.594 238.559 775.303 259.661 770.01Z" fill="#FF8D8F"/>
<path d="M454.379 459.95C458.103 468.498 460.595 473.444 465.738 481.31C472.653 489.978 473.399 491.425 482.308 497.965C432.36 526.202 415.549 584.167 416.393 638.097C413.067 638.198 409.57 638.397 406.27 638.097C404.478 633.24 401.824 621.037 402.147 615.778C393.977 565.35 412.715 490.654 454.379 459.95Z" fill="#889E40"/>
<path d="M454.379 459.95C458.103 468.498 460.595 473.444 465.738 481.31C427.862 510.605 410.891 551.133 404.643 598.059C404.23 601.172 403.333 613.969 402.147 615.778C393.977 565.35 412.715 490.654 454.379 459.95Z" fill="#B2E87B"/>
<path d="M251.211 462.199C253.237 463.755 255.35 466.141 257.262 467.974C273.636 483.673 293.437 493.918 312.536 505.783C294.089 510.992 314.987 521.215 318.676 524.647C334.135 536.439 356.03 551.048 369.011 565.204C373.31 567.634 377.702 572.546 381.104 576.178C372.068 576.192 363.093 576.18 354.055 576.008C303.067 575.039 259.578 531.412 253.721 481.31C251.893 474.937 251.469 468.765 251.211 462.199Z" fill="#03A02F"/>
<path d="M253.722 481.31C264.538 485.482 293.124 564.384 368.764 565.324C368.848 565.284 368.93 565.245 369.012 565.204C373.31 567.634 377.702 572.545 381.105 576.178C372.068 576.191 363.094 576.18 354.056 576.008C303.068 575.039 259.578 531.412 253.722 481.31Z" fill="#008320"/>
<path d="M251.211 462.199C274.251 457.013 320.942 472.109 340.31 484.137C366.864 500.629 387.949 533.626 389.651 565.204C368.498 548.012 335.034 514.736 312.536 505.783C293.437 493.918 273.636 483.673 257.262 467.974C255.35 466.141 253.237 463.755 251.211 462.199Z" fill="#3BC841"/>
<path d="M468.092 449.944C480.354 450.345 495.882 479.12 493.133 489.163L492.355 489.553C483.559 484.909 459.711 458.806 468.092 449.944Z" fill="#3B3837"/>
</svg>
