<svg width="849" height="1183" viewBox="0 0 849 1183" fill="none" xmlns="http://www.w3.org/2000/svg">
<rect x="5" y="5" width="839" height="1173" rx="45" fill="white"/>
<rect x="5" y="5" width="839" height="1173" rx="45" stroke="black" stroke-width="10"/>
<circle cx="786.5" cy="1124.5" r="11.5" fill="black"/>
<circle cx="786.5" cy="59.5" r="11.5" fill="black"/>
<path d="M77 1124.5C77 1130.85 71.8513 1136 65.5 1136C59.1487 1136 54 1130.85 54 1124.5C54 1118.15 59.1487 1113 65.5 1113C71.8513 1113 77 1118.15 77 1124.5Z" fill="black"/>
<path d="M77 59.5C77 65.8513 71.8513 71 65.5 71C59.1487 71 54 65.8513 54 59.5C54 53.1487 59.1487 48 65.5 48C71.8513 48 77 53.1487 77 59.5Z" fill="black"/>
<mask id="path-6-inside-1_97_19" fill="white">
<path d="M708 48C713.523 48 717.934 52.4996 718.616 57.9801C723.122 94.1833 751.817 122.878 788.02 127.384C793.5 128.066 798 132.477 798 138V1046C798 1051.52 793.5 1055.93 788.02 1056.62C751.817 1061.12 723.122 1089.82 718.616 1126.02C717.934 1131.5 713.523 1136 708 1136H141C135.477 1136 131.066 1131.5 130.384 1126.02C125.878 1089.82 97.1833 1061.12 60.9801 1056.62C55.4996 1055.93 51 1051.52 51 1046V138C51 132.477 55.4996 128.066 60.9801 127.384C97.1833 122.878 125.878 94.1833 130.384 57.9801C131.066 52.4996 135.477 48 141 48H708Z"/>
</mask>
<path d="M708 48C713.523 48 717.934 52.4996 718.616 57.9801C723.122 94.1833 751.817 122.878 788.02 127.384C793.5 128.066 798 132.477 798 138V1046C798 1051.52 793.5 1055.93 788.02 1056.62C751.817 1061.12 723.122 1089.82 718.616 1126.02C717.934 1131.5 713.523 1136 708 1136H141C135.477 1136 131.066 1131.5 130.384 1126.02C125.878 1089.82 97.1833 1061.12 60.9801 1056.62C55.4996 1055.93 51 1051.52 51 1046V138C51 132.477 55.4996 128.066 60.9801 127.384C97.1833 122.878 125.878 94.1833 130.384 57.9801C131.066 52.4996 135.477 48 141 48H708Z" fill="#0089CB"/>
<path d="M130.384 1126.02L138.322 1125.03L130.384 1126.02ZM718.616 1126.02L710.678 1125.03L718.616 1126.02ZM788.02 1056.62L789.008 1064.56L788.02 1056.62ZM718.616 57.9801L726.555 56.9922L718.616 57.9801ZM718.616 57.9801L710.678 58.9681C715.635 98.8063 747.194 130.365 787.032 135.322L788.02 127.384L789.008 119.445C756.44 115.392 730.608 89.5603 726.555 56.9922L718.616 57.9801ZM798 138H790V1046H798H806V138H798ZM788.02 1056.62L787.032 1048.68C747.194 1053.64 715.635 1085.19 710.678 1125.03L718.616 1126.02L726.555 1127.01C730.608 1094.44 756.44 1068.61 789.008 1064.56L788.02 1056.62ZM708 1136V1128H141V1136V1144H708V1136ZM130.384 1126.02L138.322 1125.03C133.365 1085.19 101.806 1053.64 61.9681 1048.68L60.9801 1056.62L59.9922 1064.56C92.5603 1068.61 118.392 1094.44 122.445 1127.01L130.384 1126.02ZM51 1046H59V138H51H43V1046H51ZM60.9801 127.384L61.9681 135.322C101.806 130.365 133.365 98.8063 138.322 58.9681L130.384 57.9801L122.445 56.9922C118.392 89.5603 92.5603 115.392 59.9922 119.445L60.9801 127.384ZM141 48V56H708V48V40H141V48ZM130.384 57.9801L138.322 58.9681C138.438 58.0389 138.872 57.2306 139.427 56.6958C139.954 56.1887 140.494 56 141 56V48V40C130.84 40 123.547 48.1329 122.445 56.9922L130.384 57.9801ZM51 138H59C59 137.494 59.1887 136.954 59.6958 136.427C60.2306 135.872 61.0389 135.438 61.9681 135.322L60.9801 127.384L59.9922 119.445C51.1329 120.547 43 127.84 43 138H51ZM60.9801 1056.62L61.9681 1048.68C61.0389 1048.56 60.2306 1048.13 59.6958 1047.57C59.1887 1047.05 59 1046.51 59 1046H51H43C43 1056.16 51.1329 1063.45 59.9922 1064.56L60.9801 1056.62ZM141 1136V1128C140.494 1128 139.954 1127.81 139.427 1127.3C138.872 1126.77 138.438 1125.96 138.322 1125.03L130.384 1126.02L122.445 1127.01C123.547 1135.87 130.84 1144 141 1144V1136ZM718.616 1126.02L710.678 1125.03C710.562 1125.96 710.128 1126.77 709.573 1127.3C709.046 1127.81 708.506 1128 708 1128V1136V1144C718.16 1144 725.453 1135.87 726.555 1127.01L718.616 1126.02ZM798 1046H790C790 1046.51 789.811 1047.05 789.304 1047.57C788.769 1048.13 787.961 1048.56 787.032 1048.68L788.02 1056.62L789.008 1064.56C797.867 1063.45 806 1056.16 806 1046H798ZM788.02 127.384L787.032 135.322C787.961 135.438 788.769 135.872 789.304 136.427C789.811 136.954 790 137.494 790 138H798H806C806 127.84 797.867 120.547 789.008 119.445L788.02 127.384ZM718.616 57.9801L726.555 56.9922C725.453 48.1329 718.16 40 708 40V48V56C708.506 56 709.046 56.1887 709.573 56.6958C710.128 57.2306 710.562 58.0389 710.678 58.9681L718.616 57.9801Z" fill="black" mask="url(#path-6-inside-1_97_19)"/>
<path d="M690 102C695.523 102 699.911 106.512 700.837 111.957C705.019 136.563 724.437 155.981 749.043 160.163C754.488 161.089 759 165.477 759 171V1014C759 1019.52 754.488 1023.91 749.043 1024.84C724.711 1028.97 705.454 1048 700.984 1072.22C699.993 1077.59 695.633 1082 690.175 1082H158.825C153.367 1082 149.007 1077.59 148.016 1072.22C143.546 1048 124.288 1028.97 99.9568 1024.84C94.5121 1023.91 90 1019.52 90 1014V171C90 165.477 94.512 161.089 99.9568 160.163C124.563 155.981 143.981 136.563 148.163 111.957C149.089 106.512 153.477 102 159 102H690Z" fill="#4BADDC"/>
<path d="M350.14 348.925V356.83H325.065V374.255H344.615V382.16H325.065V408H315.375V348.925H350.14ZM368.81 367.965C370.227 365.585 372.097 363.743 374.42 362.44C376.8 361.08 379.605 360.4 382.835 360.4V370.43H380.37C376.573 370.43 373.683 371.393 371.7 373.32C369.773 375.247 368.81 378.59 368.81 383.35V408H359.12V361.165H368.81V367.965ZM434.667 383.435C434.667 385.192 434.554 386.778 434.327 388.195H398.542C398.826 391.935 400.214 394.938 402.707 397.205C405.201 399.472 408.261 400.605 411.887 400.605C417.101 400.605 420.784 398.423 422.937 394.06H433.392C431.976 398.367 429.397 401.908 425.657 404.685C421.974 407.405 417.384 408.765 411.887 408.765C407.411 408.765 403.387 407.773 399.817 405.79C396.304 403.75 393.527 400.917 391.487 397.29C389.504 393.607 388.512 389.357 388.512 384.54C388.512 379.723 389.476 375.502 391.402 371.875C393.386 368.192 396.134 365.358 399.647 363.375C403.217 361.392 407.297 360.4 411.887 360.4C416.307 360.4 420.246 361.363 423.702 363.29C427.159 365.217 429.851 367.937 431.777 371.45C433.704 374.907 434.667 378.902 434.667 383.435ZM424.552 380.375C424.496 376.805 423.221 373.943 420.727 371.79C418.234 369.637 415.146 368.56 411.462 368.56C408.119 368.56 405.257 369.637 402.877 371.79C400.497 373.887 399.081 376.748 398.627 380.375H424.552ZM461.203 408.765C457.52 408.765 454.205 408.113 451.258 406.81C448.368 405.45 446.073 403.637 444.373 401.37C442.673 399.047 441.766 396.468 441.653 393.635H451.683C451.853 395.618 452.788 397.29 454.488 398.65C456.245 399.953 458.426 400.605 461.033 400.605C463.753 400.605 465.85 400.095 467.323 399.075C468.853 397.998 469.618 396.638 469.618 394.995C469.618 393.238 468.768 391.935 467.068 391.085C465.425 390.235 462.79 389.3 459.163 388.28C455.65 387.317 452.788 386.382 450.578 385.475C448.368 384.568 446.441 383.18 444.798 381.31C443.211 379.44 442.418 376.975 442.418 373.915C442.418 371.422 443.155 369.155 444.628 367.115C446.101 365.018 448.198 363.375 450.918 362.185C453.695 360.995 456.868 360.4 460.438 360.4C465.765 360.4 470.043 361.76 473.273 364.48C476.56 367.143 478.316 370.798 478.543 375.445H468.853C468.683 373.348 467.833 371.677 466.303 370.43C464.773 369.183 462.705 368.56 460.098 368.56C457.548 368.56 455.593 369.042 454.233 370.005C452.873 370.968 452.193 372.243 452.193 373.83C452.193 375.077 452.646 376.125 453.553 376.975C454.46 377.825 455.565 378.505 456.868 379.015C458.171 379.468 460.098 380.063 462.648 380.8C466.048 381.707 468.825 382.642 470.978 383.605C473.188 384.512 475.086 385.872 476.673 387.685C478.26 389.498 479.081 391.907 479.138 394.91C479.138 397.573 478.401 399.953 476.928 402.05C475.455 404.147 473.358 405.79 470.638 406.98C467.975 408.17 464.83 408.765 461.203 408.765ZM486.378 384.37C486.378 379.667 487.342 375.502 489.268 371.875C491.252 368.248 493.915 365.443 497.258 363.46C500.658 361.42 504.398 360.4 508.478 360.4C512.162 360.4 515.363 361.137 518.083 362.61C520.86 364.027 523.07 365.812 524.713 367.965V361.165H534.488V408H524.713V401.03C523.07 403.24 520.832 405.082 517.998 406.555C515.165 408.028 511.935 408.765 508.308 408.765C504.285 408.765 500.602 407.745 497.258 405.705C493.915 403.608 491.252 400.718 489.268 397.035C487.342 393.295 486.378 389.073 486.378 384.37ZM524.713 384.54C524.713 381.31 524.033 378.505 522.673 376.125C521.37 373.745 519.642 371.932 517.488 370.685C515.335 369.438 513.012 368.815 510.518 368.815C508.025 368.815 505.702 369.438 503.548 370.685C501.395 371.875 499.638 373.66 498.278 376.04C496.975 378.363 496.323 381.14 496.323 384.37C496.323 387.6 496.975 390.433 498.278 392.87C499.638 395.307 501.395 397.177 503.548 398.48C505.758 399.727 508.082 400.35 510.518 400.35C513.012 400.35 515.335 399.727 517.488 398.48C519.642 397.233 521.37 395.42 522.673 393.04C524.033 390.603 524.713 387.77 524.713 384.54Z" fill="black"/>
<path d="M148.81 272.735C140.2 272.735 133.13 270.705 127.6 266.645C122.07 262.515 119.095 256.635 118.675 249.005H140.62C140.83 251.595 141.6 253.485 142.93 254.675C144.26 255.865 145.975 256.46 148.075 256.46C149.965 256.46 151.505 256.005 152.695 255.095C153.955 254.115 154.585 252.785 154.585 251.105C154.585 248.935 153.57 247.255 151.54 246.065C149.51 244.875 146.22 243.545 141.67 242.075C136.84 240.465 132.92 238.925 129.91 237.455C126.97 235.915 124.38 233.71 122.14 230.84C119.97 227.9 118.885 224.085 118.885 219.395C118.885 214.635 120.075 210.575 122.455 207.215C124.835 203.785 128.125 201.195 132.325 199.445C136.525 197.695 141.285 196.82 146.605 196.82C155.215 196.82 162.075 198.85 167.185 202.91C172.365 206.9 175.13 212.535 175.48 219.815H153.115C153.045 217.575 152.345 215.895 151.015 214.775C149.755 213.655 148.11 213.095 146.08 213.095C144.54 213.095 143.28 213.55 142.3 214.46C141.32 215.37 140.83 216.665 140.83 218.345C140.83 219.745 141.355 220.97 142.405 222.02C143.525 223 144.89 223.875 146.5 224.645C148.11 225.345 150.49 226.255 153.64 227.375C158.33 228.985 162.18 230.595 165.19 232.205C168.27 233.745 170.895 235.95 173.065 238.82C175.305 241.62 176.425 245.19 176.425 249.53C176.425 253.94 175.305 257.895 173.065 261.395C170.895 264.895 167.71 267.66 163.51 269.69C159.38 271.72 154.48 272.735 148.81 272.735ZM220.747 254.465V272H211.822C196.772 272 189.247 264.545 189.247 249.635V230.21H182.002V213.095H189.247V198.815H209.932V213.095H220.642V230.21H209.932V249.95C209.932 251.56 210.282 252.715 210.982 253.415C211.752 254.115 213.012 254.465 214.762 254.465H220.747ZM250.767 223.49C253.077 220.13 255.877 217.47 259.167 215.51C262.457 213.55 265.992 212.57 269.772 212.57V234.515H263.997C259.517 234.515 256.192 235.39 254.022 237.14C251.852 238.89 250.767 241.935 250.767 246.275V272H230.187V213.095H250.767V223.49ZM273.79 242.495C273.79 236.405 274.875 231.085 277.045 226.535C279.285 221.985 282.295 218.485 286.075 216.035C289.925 213.585 294.195 212.36 298.885 212.36C302.945 212.36 306.445 213.165 309.385 214.775C312.325 216.385 314.6 218.555 316.21 221.285V213.095H336.79V272H316.21V263.81C314.6 266.54 312.29 268.71 309.28 270.32C306.34 271.93 302.875 272.735 298.885 272.735C294.195 272.735 289.925 271.51 286.075 269.06C282.295 266.61 279.285 263.11 277.045 258.56C274.875 253.94 273.79 248.585 273.79 242.495ZM316.21 242.495C316.21 238.715 315.16 235.74 313.06 233.57C311.03 231.4 308.51 230.315 305.5 230.315C302.42 230.315 299.865 231.4 297.835 233.57C295.805 235.67 294.79 238.645 294.79 242.495C294.79 246.275 295.805 249.285 297.835 251.525C299.865 253.695 302.42 254.78 305.5 254.78C308.51 254.78 311.03 253.695 313.06 251.525C315.16 249.355 316.21 246.345 316.21 242.495ZM435.562 213.095L420.547 272H397.447L389.257 236.3L380.752 272H357.757L342.847 213.095H363.322L369.937 252.155L378.652 213.095H400.702L409.732 252.26L416.242 213.095H435.562ZM461.997 221.285C463.607 218.485 465.882 216.315 468.822 214.775C471.762 213.165 475.227 212.36 479.217 212.36C483.907 212.36 488.142 213.585 491.922 216.035C495.772 218.485 498.782 221.985 500.952 226.535C503.192 231.085 504.312 236.405 504.312 242.495C504.312 248.585 503.192 253.94 500.952 258.56C498.782 263.11 495.772 266.61 491.922 269.06C488.142 271.51 483.907 272.735 479.217 272.735C475.227 272.735 471.762 271.965 468.822 270.425C465.882 268.815 463.607 266.61 461.997 263.81V272H441.417V194.3H461.997V221.285ZM483.417 242.495C483.417 238.645 482.367 235.67 480.267 233.57C478.237 231.4 475.717 230.315 472.707 230.315C469.697 230.315 467.142 231.4 465.042 233.57C463.012 235.74 461.997 238.715 461.997 242.495C461.997 246.345 463.012 249.355 465.042 251.525C467.142 253.695 469.697 254.78 472.707 254.78C475.717 254.78 478.237 253.695 480.267 251.525C482.367 249.285 483.417 246.275 483.417 242.495ZM569.064 241.865C569.064 243.475 568.959 245.085 568.749 246.695H529.794C530.004 249.915 530.879 252.33 532.419 253.94C534.029 255.48 536.059 256.25 538.509 256.25C541.939 256.25 544.389 254.71 545.859 251.63H567.804C566.894 255.69 565.109 259.33 562.449 262.55C559.859 265.7 556.569 268.185 552.579 270.005C548.589 271.825 544.179 272.735 539.349 272.735C533.539 272.735 528.359 271.51 523.809 269.06C519.329 266.61 515.794 263.11 513.204 258.56C510.684 254.01 509.424 248.655 509.424 242.495C509.424 236.335 510.684 231.015 513.204 226.535C515.724 221.985 519.224 218.485 523.704 216.035C528.254 213.585 533.469 212.36 539.349 212.36C545.159 212.36 550.304 213.55 554.784 215.93C559.264 218.31 562.764 221.74 565.284 226.22C567.804 230.63 569.064 235.845 569.064 241.865ZM548.064 236.72C548.064 234.2 547.224 232.24 545.544 230.84C543.864 229.37 541.764 228.635 539.244 228.635C536.724 228.635 534.659 229.335 533.049 230.735C531.439 232.065 530.389 234.06 529.899 236.72H548.064ZM598.066 223.49C600.376 220.13 603.176 217.47 606.466 215.51C609.756 213.55 613.291 212.57 617.071 212.57V234.515H611.296C606.816 234.515 603.491 235.39 601.321 237.14C599.151 238.89 598.066 241.935 598.066 246.275V272H577.486V213.095H598.066V223.49ZM645.029 223.49C647.339 220.13 650.139 217.47 653.429 215.51C656.719 213.55 660.254 212.57 664.034 212.57V234.515H658.259C653.779 234.515 650.454 235.39 648.284 237.14C646.114 238.89 645.029 241.935 645.029 246.275V272H624.449V213.095H645.029V223.49ZM734.832 213.095L697.452 300.035H675.087L689.157 269.48L665.007 213.095H687.897L700.287 246.485L712.257 213.095H734.832Z" fill="black"/>
<mask id="path-11-outside-2_97_19" maskUnits="userSpaceOnUse" x="412" y="1007" width="37" height="32" fill="black">
<rect fill="white" x="412" y="1007" width="37" height="32"/>
<path d="M412.8 1012V1007.84H421.12V1037H416.52V1012H412.8ZM432.304 1021.76C429.531 1020.37 428.144 1018.19 428.144 1015.2C428.144 1013.76 428.504 1012.44 429.224 1011.24C429.944 1010.04 431.024 1009.09 432.464 1008.4C433.904 1007.68 435.664 1007.32 437.744 1007.32C439.798 1007.32 441.544 1007.68 442.984 1008.4C444.451 1009.09 445.544 1010.04 446.264 1011.24C446.984 1012.44 447.344 1013.76 447.344 1015.2C447.344 1016.69 446.958 1018.01 446.184 1019.16C445.438 1020.28 444.438 1021.15 443.184 1021.76C444.704 1022.32 445.904 1023.24 446.784 1024.52C447.664 1025.77 448.104 1027.25 448.104 1028.96C448.104 1030.69 447.664 1032.23 446.784 1033.56C445.904 1034.89 444.678 1035.92 443.104 1036.64C441.531 1037.36 439.744 1037.72 437.744 1037.72C435.744 1037.72 433.958 1037.36 432.384 1036.64C430.838 1035.92 429.624 1034.89 428.744 1033.56C427.864 1032.23 427.424 1030.69 427.424 1028.96C427.424 1027.23 427.864 1025.73 428.744 1024.48C429.624 1023.23 430.811 1022.32 432.304 1021.76ZM442.984 1015.76C442.984 1014.27 442.518 1013.12 441.584 1012.32C440.651 1011.52 439.371 1011.12 437.744 1011.12C436.144 1011.12 434.878 1011.52 433.944 1012.32C433.011 1013.12 432.544 1014.28 432.544 1015.8C432.544 1017.13 433.024 1018.23 433.984 1019.08C434.971 1019.91 436.224 1020.32 437.744 1020.32C439.264 1020.32 440.518 1019.89 441.504 1019.04C442.491 1018.19 442.984 1017.09 442.984 1015.76ZM437.744 1023.76C435.984 1023.76 434.544 1024.2 433.424 1025.08C432.331 1025.93 431.784 1027.17 431.784 1028.8C431.784 1030.32 432.318 1031.56 433.384 1032.52C434.451 1033.45 435.904 1033.92 437.744 1033.92C439.558 1033.92 440.984 1033.44 442.024 1032.48C443.091 1031.52 443.624 1030.29 443.624 1028.8C443.624 1027.2 443.078 1025.96 441.984 1025.08C440.918 1024.2 439.504 1023.76 437.744 1023.76Z"/>
</mask>
<path d="M412.8 1012V1007.84H421.12V1037H416.52V1012H412.8ZM432.304 1021.76C429.531 1020.37 428.144 1018.19 428.144 1015.2C428.144 1013.76 428.504 1012.44 429.224 1011.24C429.944 1010.04 431.024 1009.09 432.464 1008.4C433.904 1007.68 435.664 1007.32 437.744 1007.32C439.798 1007.32 441.544 1007.68 442.984 1008.4C444.451 1009.09 445.544 1010.04 446.264 1011.24C446.984 1012.44 447.344 1013.76 447.344 1015.2C447.344 1016.69 446.958 1018.01 446.184 1019.16C445.438 1020.28 444.438 1021.15 443.184 1021.76C444.704 1022.32 445.904 1023.24 446.784 1024.52C447.664 1025.77 448.104 1027.25 448.104 1028.96C448.104 1030.69 447.664 1032.23 446.784 1033.56C445.904 1034.89 444.678 1035.92 443.104 1036.64C441.531 1037.36 439.744 1037.72 437.744 1037.72C435.744 1037.72 433.958 1037.36 432.384 1036.64C430.838 1035.92 429.624 1034.89 428.744 1033.56C427.864 1032.23 427.424 1030.69 427.424 1028.96C427.424 1027.23 427.864 1025.73 428.744 1024.48C429.624 1023.23 430.811 1022.32 432.304 1021.76ZM442.984 1015.76C442.984 1014.27 442.518 1013.12 441.584 1012.32C440.651 1011.52 439.371 1011.12 437.744 1011.12C436.144 1011.12 434.878 1011.52 433.944 1012.32C433.011 1013.12 432.544 1014.28 432.544 1015.8C432.544 1017.13 433.024 1018.23 433.984 1019.08C434.971 1019.91 436.224 1020.32 437.744 1020.32C439.264 1020.32 440.518 1019.89 441.504 1019.04C442.491 1018.19 442.984 1017.09 442.984 1015.76ZM437.744 1023.76C435.984 1023.76 434.544 1024.2 433.424 1025.08C432.331 1025.93 431.784 1027.17 431.784 1028.8C431.784 1030.32 432.318 1031.56 433.384 1032.52C434.451 1033.45 435.904 1033.92 437.744 1033.92C439.558 1033.92 440.984 1033.44 442.024 1032.48C443.091 1031.52 443.624 1030.29 443.624 1028.8C443.624 1027.2 443.078 1025.96 441.984 1025.08C440.918 1024.2 439.504 1023.76 437.744 1023.76Z" fill="black"/>
<path d="M412.8 1012H412.5V1012.3H412.8V1012ZM412.8 1007.84V1007.54H412.5V1007.84H412.8ZM421.12 1007.84H421.42V1007.54H421.12V1007.84ZM421.12 1037V1037.3H421.42V1037H421.12ZM416.52 1037H416.22V1037.3H416.52V1037ZM416.52 1012H416.82V1011.7H416.52V1012ZM412.8 1012H413.1V1007.84H412.8H412.5V1012H412.8ZM412.8 1007.84V1008.14H421.12V1007.84V1007.54H412.8V1007.84ZM421.12 1007.84H420.82V1037H421.12H421.42V1007.84H421.12ZM421.12 1037V1036.7H416.52V1037V1037.3H421.12V1037ZM416.52 1037H416.82V1012H416.52H416.22V1037H416.52ZM416.52 1012V1011.7H412.8V1012V1012.3H416.52V1012ZM432.304 1021.76L432.41 1022.04L433.054 1021.8L432.439 1021.49L432.304 1021.76ZM429.224 1011.24L428.967 1011.09L429.224 1011.24ZM432.464 1008.4L432.595 1008.67L432.599 1008.67L432.464 1008.4ZM442.984 1008.4L442.85 1008.67L442.856 1008.67L442.984 1008.4ZM446.264 1011.24L446.522 1011.09L446.264 1011.24ZM446.184 1019.16L445.936 1018.99L445.935 1018.99L446.184 1019.16ZM443.184 1021.76L443.053 1021.49L442.422 1021.8L443.081 1022.04L443.184 1021.76ZM446.784 1024.52L446.537 1024.69L446.539 1024.69L446.784 1024.52ZM446.784 1033.56L447.035 1033.73L446.784 1033.56ZM443.104 1036.64L442.98 1036.37L443.104 1036.64ZM432.384 1036.64L432.258 1036.91L432.26 1036.91L432.384 1036.64ZM428.744 1033.56L428.494 1033.73L428.744 1033.56ZM428.744 1024.48L428.499 1024.31L428.744 1024.48ZM441.584 1012.32L441.78 1012.09V1012.09L441.584 1012.32ZM433.944 1012.32L433.749 1012.09V1012.09L433.944 1012.32ZM433.984 1019.08L433.785 1019.3L433.792 1019.31L433.984 1019.08ZM433.424 1025.08L433.609 1025.32L433.61 1025.32L433.424 1025.08ZM433.384 1032.52L433.184 1032.74L433.187 1032.75L433.384 1032.52ZM442.024 1032.48L441.824 1032.26L441.821 1032.26L442.024 1032.48ZM441.984 1025.08L441.793 1025.31L441.796 1025.31L441.984 1025.08ZM432.304 1021.76L432.439 1021.49C431.091 1020.82 430.097 1019.96 429.438 1018.92C428.779 1017.88 428.444 1016.65 428.444 1015.2H428.144H427.844C427.844 1016.74 428.203 1018.09 428.931 1019.24C429.659 1020.39 430.744 1021.32 432.17 1022.03L432.304 1021.76ZM428.144 1015.2H428.444C428.444 1013.81 428.79 1012.55 429.482 1011.39L429.224 1011.24L428.967 1011.09C428.218 1012.33 427.844 1013.71 427.844 1015.2H428.144ZM429.224 1011.24L429.482 1011.39C430.167 1010.25 431.2 1009.34 432.595 1008.67L432.464 1008.4L432.334 1008.13C430.849 1008.84 429.721 1009.83 428.967 1011.09L429.224 1011.24ZM432.464 1008.4L432.599 1008.67C433.987 1007.97 435.698 1007.62 437.744 1007.62V1007.32V1007.02C435.631 1007.02 433.822 1007.39 432.33 1008.13L432.464 1008.4ZM437.744 1007.32V1007.62C439.764 1007.62 441.462 1007.97 442.85 1008.67L442.984 1008.4L443.119 1008.13C441.627 1007.39 439.832 1007.02 437.744 1007.02V1007.32ZM442.984 1008.4L442.856 1008.67C444.278 1009.34 445.322 1010.25 446.007 1011.39L446.264 1011.24L446.522 1011.09C445.766 1009.83 444.624 1008.84 443.113 1008.13L442.984 1008.4ZM446.264 1011.24L446.007 1011.39C446.698 1012.55 447.044 1013.81 447.044 1015.2H447.344H447.644C447.644 1013.71 447.27 1012.33 446.522 1011.09L446.264 1011.24ZM447.344 1015.2H447.044C447.044 1016.64 446.673 1017.9 445.936 1018.99L446.184 1019.16L446.433 1019.33C447.243 1018.13 447.644 1016.75 447.644 1015.2H447.344ZM446.184 1019.16L445.935 1018.99C445.219 1020.07 444.26 1020.9 443.053 1021.49L443.184 1021.76L443.316 1022.03C444.615 1021.39 445.657 1020.49 446.434 1019.33L446.184 1019.16ZM443.184 1021.76L443.081 1022.04C444.545 1022.58 445.694 1023.46 446.537 1024.69L446.784 1024.52L447.032 1024.35C446.115 1023.02 444.864 1022.06 443.288 1021.48L443.184 1021.76ZM446.784 1024.52L446.539 1024.69C447.379 1025.89 447.804 1027.31 447.804 1028.96H448.104H448.404C448.404 1027.2 447.949 1025.66 447.03 1024.35L446.784 1024.52ZM448.104 1028.96H447.804C447.804 1030.64 447.379 1032.11 446.534 1033.39L446.784 1033.56L447.035 1033.73C447.95 1032.34 448.404 1030.75 448.404 1028.96H448.104ZM446.784 1033.56L446.534 1033.39C445.688 1034.68 444.506 1035.67 442.98 1036.37L443.104 1036.64L443.229 1036.91C444.849 1036.17 446.121 1035.11 447.035 1033.73L446.784 1033.56ZM443.104 1036.64L442.98 1036.37C441.451 1037.07 439.708 1037.42 437.744 1037.42V1037.72V1038.02C439.781 1038.02 441.611 1037.65 443.229 1036.91L443.104 1036.64ZM437.744 1037.72V1037.42C435.781 1037.42 434.038 1037.07 432.509 1036.37L432.384 1036.64L432.26 1036.91C433.878 1037.65 435.708 1038.02 437.744 1038.02V1037.72ZM432.384 1036.64L432.511 1036.37C431.011 1035.67 429.842 1034.68 428.995 1033.39L428.744 1033.56L428.494 1033.73C429.407 1035.11 430.664 1036.17 432.258 1036.91L432.384 1036.64ZM428.744 1033.56L428.995 1033.39C428.15 1032.11 427.724 1030.64 427.724 1028.96H427.424H427.124C427.124 1030.75 427.579 1032.34 428.494 1033.73L428.744 1033.56ZM427.424 1028.96H427.724C427.724 1027.28 428.15 1025.85 428.99 1024.65L428.744 1024.48L428.499 1024.31C427.579 1025.62 427.124 1027.17 427.124 1028.96H427.424ZM428.744 1024.48L428.99 1024.65C429.834 1023.45 430.97 1022.58 432.41 1022.04L432.304 1021.76L432.199 1021.48C430.652 1022.06 429.415 1023 428.499 1024.31L428.744 1024.48ZM442.984 1015.76H443.284C443.284 1014.2 442.794 1012.96 441.78 1012.09L441.584 1012.32L441.389 1012.55C442.242 1013.28 442.684 1014.33 442.684 1015.76H442.984ZM441.584 1012.32L441.78 1012.09C440.776 1011.23 439.419 1010.82 437.744 1010.82V1011.12V1011.42C439.323 1011.42 440.526 1011.81 441.389 1012.55L441.584 1012.32ZM437.744 1011.12V1010.82C436.095 1010.82 434.751 1011.23 433.749 1012.09L433.944 1012.32L434.14 1012.55C435.004 1011.81 436.194 1011.42 437.744 1011.42V1011.12ZM433.944 1012.32L433.749 1012.09C432.734 1012.96 432.244 1014.21 432.244 1015.8H432.544H432.844C432.844 1014.35 433.288 1013.28 434.14 1012.55L433.944 1012.32ZM432.544 1015.8H432.244C432.244 1017.22 432.758 1018.39 433.785 1019.3L433.984 1019.08L434.184 1018.86C433.29 1018.06 432.844 1017.05 432.844 1015.8H432.544ZM433.984 1019.08L433.792 1019.31C434.842 1020.19 436.167 1020.62 437.744 1020.62V1020.32V1020.02C436.281 1020.02 435.1 1019.62 434.177 1018.85L433.984 1019.08ZM437.744 1020.32V1020.62C439.324 1020.62 440.651 1020.18 441.701 1019.27L441.504 1019.04L441.308 1018.81C440.385 1019.61 439.205 1020.02 437.744 1020.02V1020.32ZM441.504 1019.04L441.701 1019.27C442.755 1018.36 443.284 1017.18 443.284 1015.76H442.984H442.684C442.684 1017.01 442.227 1018.02 441.308 1018.81L441.504 1019.04ZM437.744 1023.76V1023.46C435.933 1023.46 434.423 1023.91 433.239 1024.84L433.424 1025.08L433.61 1025.32C434.665 1024.49 436.035 1024.06 437.744 1024.06V1023.76ZM433.424 1025.08L433.24 1024.84C432.061 1025.76 431.484 1027.1 431.484 1028.8H431.784H432.084C432.084 1027.25 432.602 1026.1 433.609 1025.32L433.424 1025.08ZM431.784 1028.8H431.484C431.484 1030.4 432.05 1031.72 433.184 1032.74L433.384 1032.52L433.585 1032.3C432.586 1031.4 432.084 1030.24 432.084 1028.8H431.784ZM433.384 1032.52L433.187 1032.75C434.323 1033.74 435.854 1034.22 437.744 1034.22V1033.92V1033.62C435.955 1033.62 434.579 1033.17 433.582 1032.29L433.384 1032.52ZM437.744 1033.92V1034.22C439.611 1034.22 441.118 1033.72 442.228 1032.7L442.024 1032.48L441.821 1032.26C440.851 1033.16 439.504 1033.62 437.744 1033.62V1033.92ZM442.024 1032.48L442.225 1032.7C443.358 1031.68 443.924 1030.37 443.924 1028.8H443.624H443.324C443.324 1030.21 442.824 1031.36 441.824 1032.26L442.024 1032.48ZM443.624 1028.8H443.924C443.924 1027.12 443.347 1025.79 442.172 1024.85L441.984 1025.08L441.796 1025.31C442.808 1026.13 443.324 1027.28 443.324 1028.8H443.624ZM441.984 1025.08L442.175 1024.85C441.042 1023.91 439.555 1023.46 437.744 1023.46V1023.76V1024.06C439.454 1024.06 440.794 1024.49 441.793 1025.31L441.984 1025.08Z" fill="black" mask="url(#path-11-outside-2_97_19)"/>
<path d="M179.889 687.486C172.875 719.024 232.165 856.538 223 854.5C213.835 852.462 101 719.5 146.7 680.105C153.713 648.567 166.829 624.652 175.994 626.69C185.159 628.728 186.902 655.947 179.889 687.486Z" fill="#D9D9D9"/>
<path d="M460.009 636.706C433.133 654.638 385.211 827.31 380 819.5C365 797.018 380.884 605.279 441.138 608.424C468.014 590.492 494.025 582.287 499.236 590.097C504.447 597.907 486.884 618.775 460.009 636.706Z" fill="#D9D9D9"/>
<path d="M325.085 430C330.602 430.101 333.379 435.399 335.955 439.464C353.486 467.134 352.95 496.263 342.813 525.903C386.472 530.297 426.207 551.007 447.909 590.85C461.346 583.02 480.213 578.129 495.576 577.318C487.079 556.538 476.283 521.869 492.628 502.02C494.049 501.447 495.694 500.956 497.166 500.473C506.205 502.616 504.388 510.256 509.496 516.751C526.416 538.262 535.784 516.824 551.865 520.132C566.664 523.89 582.01 540.299 590.153 552.421C594.487 547.857 598.264 540.225 602.29 534.581C656.778 458.183 692.496 520.14 663.356 537.58C645.223 548.303 638.607 553.004 627.691 572.93C634.471 570.3 638.58 567.202 647.355 564.449C677.838 554.884 688.314 575.384 715.501 573.686C725.864 573.037 734.203 566.739 744.372 564.138C748.535 565.657 749.115 566.666 751 570.485C740.772 607.929 724.66 629.319 691.447 647.113C715.008 685.524 729.179 720.84 721.167 767.27C709.503 834.868 655.443 890.286 600.852 928.365C574.007 946.341 520.517 974.206 488.013 981.252C453.212 988.8 423.784 972.794 404.794 944.52C401.681 939.885 399.643 934.465 396.432 929.986C389.272 933.799 381.76 936.535 373.596 936.804C341.235 937.865 276.951 904.61 249.87 886.78C188.097 846.105 135.262 782.027 133.266 705.135C132.532 676.867 139.276 644.451 159.189 623.416C138.228 619.457 116.567 604.646 104.706 586.902C89.2632 563.8 108.657 569.556 121.641 570.357C138.879 572.082 142.741 561.547 149.596 548.472C160.183 528.279 189.667 534.335 205.933 543.397C204.971 539.033 203.573 534.762 202.431 530.432C197.327 511.095 195.232 471.223 205.527 452.448C215.428 434.393 241.21 440.932 246.901 464.928C240.734 488.478 236.358 498.42 244.58 524.555C247.586 501.186 259.551 480.671 282.427 471.926C298.507 465.78 310.463 466.514 315.462 443.694C316.141 440.592 316.946 435.429 318.256 432.65C320.984 431.122 322.13 430.837 325.085 430ZM486.213 603.551C488.464 599.703 493.877 594.402 497.166 590.85C401.464 598.115 370.836 708.099 378.075 789.481C378.933 799.139 380.182 808.473 381.429 817.877C382.681 811.001 381.326 788.647 381.446 780.462C382.435 713.335 413.08 622.177 486.213 603.551ZM170.025 644.969C169.348 640.508 168.794 636.55 168.352 632.056C151.496 653.177 146.918 675.003 146.497 702.063C145.663 755.75 178.987 813.013 219.632 847.031C218.134 843.697 212.972 838.606 210.53 835.461C190.02 809.029 169.932 777.633 162.109 744.759C155.043 715.061 153.616 671.756 170.025 644.969Z" fill="black"/>
<path d="M381.429 817.877C382.681 811.001 381.326 788.647 381.446 780.462C382.435 713.335 413.08 622.177 486.213 603.551C482.09 608.925 457.125 651.372 476.782 648.853C479.41 648.517 484.465 644.937 487.174 643.636C515.394 630.075 547.501 630.297 574.703 646.316C584.173 651.893 588.731 659.073 596.377 666.584C618.448 686.63 644.499 706.486 674.602 710.755C692.029 710.524 680.253 698.741 678.119 690.423C674.26 679.254 669.077 664.137 667.038 652.567C670.507 652.575 674.908 652.713 678.279 652.567C692.516 667.137 704.793 701.365 708.21 721.096C721.725 799.148 661.568 867.006 603.817 910.447C574.582 932.477 526.794 955.668 493.074 966.752C461.071 977.271 424.377 960.639 412.064 929.986C401.604 911.937 381.231 841.806 381.429 817.877Z" fill="#E70F49"/>
<path d="M678.279 652.567C692.516 667.137 704.792 701.365 708.21 721.096C721.725 799.148 661.568 867.006 603.817 910.447C574.581 932.477 526.794 955.668 493.074 966.751C461.071 977.271 424.377 960.638 412.063 929.986C416.413 931.987 420.053 937.307 424.147 940.143C439.001 950.429 459.198 947.273 475.378 942.222C478.931 941.081 496.685 935.507 498.231 933.809C508.037 943.914 516.964 934.762 521.891 925.412C526.94 923.376 560.21 900.668 563.624 896.281C561.234 881.301 589.508 858.733 591.912 876.822C602.473 869.778 613.736 855.806 623.039 847.031C619.586 835.063 633.723 812.047 646.41 822.319C649.701 815.816 668.988 780.535 667.037 774.945C675.588 767.581 683.282 747.528 669.795 741.112C672.091 731.097 673.375 720.945 674.602 710.755C692.029 710.524 680.253 698.74 678.119 690.423C674.259 679.254 669.077 664.137 667.037 652.567C670.507 652.575 674.908 652.713 678.279 652.567Z" fill="#BF0B17"/>
<path d="M563.624 896.281C561.234 881.301 589.508 858.733 591.912 876.822C591.861 895.902 572.488 916.763 563.624 896.281Z" fill="black"/>
<path d="M583.718 876.822C591.755 875.755 580.79 895.172 574.098 898.646C561.792 894.054 577.872 879.825 583.718 876.822Z" fill="#E70F1D"/>
<path d="M623.039 847.031C619.586 835.063 633.723 812.047 646.41 822.319C655.939 834.077 636.889 865.108 623.039 847.031Z" fill="black"/>
<path d="M639.498 825.807C647.831 826.276 640.387 842.744 631.872 847.031C624.38 840.459 632.599 829.478 639.498 825.807Z" fill="#E70F1D"/>
<path d="M669.795 741.113C683.282 747.528 675.588 767.581 667.038 774.945C644.081 791.43 647.296 740.464 669.795 741.113Z" fill="black"/>
<path d="M668.314 748.774L669.212 749.046C673.723 753.311 667.655 771.105 659.091 771.473C651.85 765.689 661.072 751.334 668.314 748.774Z" fill="#E70F1D"/>
<path d="M498.231 933.809C488.315 911.014 532.469 887.067 521.891 925.412C516.964 934.762 508.037 943.913 498.231 933.809Z" fill="black"/>
<path d="M515.617 911.095L516.089 911.425C519.156 916.803 514.702 933.692 505.16 931.353C496.132 925.453 509.635 913.966 515.617 911.095Z" fill="#E70F1D"/>
<path d="M446.476 639.783C458.518 638.724 455.159 676.029 430.725 677.703C410.844 666.458 430.65 643.494 446.476 639.783Z" fill="black"/>
<path d="M444.88 647.113L445.518 647.083L445.784 647.593C445.728 655.576 443.483 675.342 430.725 670.213C422.499 663.341 437.781 649.473 444.88 647.113Z" fill="#E70F1D"/>
<path d="M412.064 743.412C429.374 741.169 426.638 777.849 406.084 781.127C385.795 779.611 396.585 750.173 412.064 743.412Z" fill="black"/>
<path d="M413.231 750.112C418.098 750.84 416.512 775.035 405.364 774.945C396.171 766.558 404.691 754.744 413.231 750.112Z" fill="#E70F1D"/>
<path d="M555.419 681.819C572.965 679.3 566.072 716.072 549.109 717.524C533.94 720.351 538.809 686.396 555.419 681.819Z" fill="black"/>
<path d="M556.579 688.013L558.227 688.053C563.517 692.371 554.206 709.61 549.11 712.572C540.877 706.316 549.664 691.741 556.579 688.013Z" fill="#E70F1D"/>
<path d="M505.16 675.03C518.846 673.388 512.447 711.318 492.629 709.727C474.234 703.717 489.475 679.881 505.16 675.03Z" fill="black"/>
<path d="M503.693 681.819L505.046 681.924C508.806 685.905 503.141 703.379 493.589 703.972C485.401 696.337 496.382 685.332 503.693 681.819Z" fill="#E70F1D"/>
<path d="M580.149 779.897C595.808 780.382 588.436 811.139 569.851 815.134C550.653 809.563 564.243 782.886 580.149 779.897Z" fill="black"/>
<path d="M580.149 786.329C585.173 788.185 578.67 807.949 569.851 808.089C561.853 801.713 573.125 788.676 580.149 786.329Z" fill="#E70F1D"/>
<path d="M603.269 712.572C620.482 708.199 614.145 745.487 596.11 747.5C578.478 745.731 588.195 716.943 603.269 712.572Z" fill="black"/>
<path d="M605.101 717.523L605.494 717.74C609.423 724.028 603.752 740.85 594.914 741.112C588.341 735.067 599.651 721.234 605.101 717.523Z" fill="#E70F1D"/>
<path d="M498.232 810.207C516.474 809.506 508.14 841.571 490.894 847.031C472.285 842.148 485.454 816.477 498.232 810.207Z" fill="black"/>
<path d="M500.115 817.877C504.478 817.701 500.41 839.27 489.703 839.491C484.103 832.65 493.215 820.613 500.115 817.877Z" fill="#E70F1D"/>
<path d="M533.425 748.774C553.251 747.063 542.559 777.974 527.255 782.887C510.154 785.017 516.041 755.174 533.425 748.774Z" fill="black"/>
<path d="M536.772 754.005L537.3 754.275C539.131 760.96 532.492 776.444 524.711 776.868C519.626 767.52 529.106 758.112 536.772 754.005Z" fill="#E70F1D"/>
<path d="M438.015 815.134C447.278 816.283 445.759 853.17 423.827 851.737C409.213 838.835 424.883 819.253 438.015 815.134Z" fill="black"/>
<path d="M436.634 822.319L436.976 822.533C439.153 829.197 435.903 845.401 425.125 845.572C420.333 836.802 429.933 826.936 436.634 822.319Z" fill="#E70F1D"/>
<path d="M459.343 887.204C471.231 885.977 470.303 921.703 450.881 921.947C433.676 916.878 443.303 891.452 459.343 887.204Z" fill="black"/>
<path d="M459.343 892.658C462.289 894.699 460.96 918.392 450.882 915.453C444.208 907.426 452.04 897.129 459.343 892.658Z" fill="#E70F1D"/>
<path d="M480.633 744.885C492.963 743.951 489.362 780.003 468.677 778.848C449.931 774.249 466.966 751.316 480.633 744.885Z" fill="black"/>
<path d="M480.633 752.211L480.859 752.409C482.995 757.576 477.593 775.444 468.677 772.877C462.882 764.78 473.176 754.686 480.633 752.211Z" fill="#E70F1D"/>
<path d="M541.129 840.952C556.158 839.368 547.79 876.4 530.222 873.336C512.25 868.321 525.765 845.828 541.129 840.952Z" fill="black"/>
<path d="M541.129 847.031C544.809 848.435 539.653 869.861 530.222 867.206C522.884 860.913 535.486 850 541.129 847.031Z" fill="#E70F1D"/>
<path d="M170.025 644.969C171.418 652.834 178.54 691.207 191.817 686.044C201.715 682.198 206.891 620.593 276.948 609.376C308.818 604.272 325.44 604.484 356.89 592.383C362.616 590.18 368.535 587.145 374.256 585.262L374.883 585.058C382.17 588.044 391.562 595.049 397.792 600.082L398.15 600.97C380.727 601.151 393.815 625.857 401.902 632.056C388.71 646.082 374.937 680.772 371.054 699.651C345.488 684.803 354.105 719.986 365.096 727.209C365.4 740.715 363.431 755.601 363.477 769.919C347.258 769.054 356.119 795.225 365.096 800.91C367.661 815.188 369 829.564 371.805 843.775C374.624 858.056 379.012 873.202 381.429 887.204C384.976 895.429 389.118 909.883 391.149 918.697C373.719 925.764 363.508 927.68 344.622 918.697C306.65 908.186 246.122 873.181 219.632 847.031C218.134 843.697 212.972 838.607 210.53 835.461C190.02 809.029 169.932 777.633 162.109 744.759C155.043 715.062 153.616 671.756 170.025 644.969Z" fill="#E70F49"/>
<path d="M381.429 887.204C384.976 895.429 389.118 909.883 391.149 918.697C373.719 925.763 363.508 927.68 344.622 918.697C347.728 916.872 351.455 916.072 354.871 914.817C371.433 908.73 374.527 901.29 381.429 887.204Z" fill="#E70F1D"/>
<path d="M172.327 701.861C185.852 700.814 199.259 731.078 184.154 739.291C166.022 746.306 159.423 709.702 172.327 701.861Z" fill="black"/>
<path d="M174.262 708.214C181.052 712.049 189.798 728.083 182.312 734.038C171.112 735.476 169.293 715.733 174.262 708.214Z" fill="#E70F1D"/>
<path d="M239.266 673.087C252.579 672.637 266.587 697.797 252.647 709.727C233.016 715.737 227.439 682.124 239.266 673.087Z" fill="black"/>
<path d="M240.582 679.477C248.756 681.695 256.734 697.258 250.062 703.972C239.501 706.843 237.333 685.475 240.582 679.477Z" fill="#E70F1D"/>
<path d="M331.701 629.748C346.701 628.261 363.099 648.649 349.747 662.838C347.64 664.277 346.958 664.451 344.622 665.236C330.092 661.184 322.896 637.453 331.701 629.748Z" fill="black"/>
<path d="M334.543 636.117C343.439 636.676 352.096 649.077 346.476 657.62C337.435 662.718 333.127 641.556 334.543 636.117Z" fill="#E70F1D"/>
<path d="M307.405 708.214C322.406 707.262 335.248 732.379 320.333 741.112C299.373 749.13 296.744 712.059 307.405 708.214Z" fill="black"/>
<path d="M308.925 713.607C316.207 714.581 324.292 728.372 318.256 735.794C307.896 740.096 304.247 720.68 308.925 713.607Z" fill="#E70F1D"/>
<path d="M281.298 643.158C296.207 645.255 309.401 669.217 293.332 677.703C274.225 684.979 270.29 648.05 281.298 643.158Z" fill="black"/>
<path d="M283.867 649.426C291.184 654.046 294.6 659.901 294.733 668.618C293.391 670.657 292.969 671.419 291.093 673.087C281.452 674.305 277.403 655.372 283.867 649.426Z" fill="#E70F1D"/>
<path d="M219.631 802.114C231.668 801.822 250.699 824.623 235.166 835.266C220.333 842.365 205.573 810.075 219.631 802.114Z" fill="black"/>
<path d="M219.632 808.089C229.326 809.027 236.581 820.341 233.412 829.498C223.12 833.632 219.314 815.552 219.632 808.089Z" fill="#E70F1D"/>
<path d="M323.215 779.897C336.202 777.966 354.073 802.412 338.455 812.609C321.996 818.943 311.959 788.793 323.215 779.897Z" fill="black"/>
<path d="M325.085 786.329C335.142 786.917 340.913 799.769 336.055 808.089C326.334 808.665 321.477 790.61 325.085 786.329Z" fill="#E70F1D"/>
<path d="M263.206 743.412C276.476 742.825 292.512 766.436 276.853 776.868C260.089 784.494 252.503 752.254 263.206 743.412Z" fill="black"/>
<path d="M265.694 750.112C273.056 750.781 280.37 764.219 275.188 771.473C265.037 776.203 263.595 756.566 265.694 750.112Z" fill="#E70F1D"/>
<path d="M288.592 839.491C302.698 838.682 317.553 861.331 303.407 873.336C286.46 875.922 277.147 848.724 288.592 839.491Z" fill="black"/>
<path d="M291.093 845.572C298.2 848.217 306.871 858.076 301.933 865.656C293.189 872.575 288.777 854.07 291.093 845.572Z" fill="#E70F1D"/>
<path d="M346.475 847.031C358.457 845.873 377.004 868.811 361.867 878.682C346.027 884.308 332.368 855.517 346.475 847.031Z" fill="black"/>
<path d="M348.33 851.737C354.809 854.562 359.8 862.017 361.868 868.496C361.048 870.674 360.81 871.307 359.552 873.335C351.036 878.567 345.376 859.412 348.33 851.737Z" fill="#E70F1D"/>
<path d="M316.674 470.429C323.14 462.747 323.329 460.122 327.421 452.069C340.67 475.51 338.229 509.683 324.481 532.429C322.392 535.883 319.947 539.786 318.256 543.397C311.811 540.317 306.514 536.542 299.536 535.054C280.917 529.647 268.96 541.739 259.651 556.194C254.825 536.742 255.59 522.546 264.521 504.418C276.778 479.541 298.73 486.9 316.674 470.429Z" fill="#6EC847"/>
<path d="M316.674 470.429C323.14 462.747 323.329 460.122 327.421 452.069C340.67 475.51 338.23 509.683 324.481 532.429C322.392 535.883 319.947 539.786 318.256 543.397C311.811 540.317 306.514 536.542 299.536 535.054C302.052 533.445 308.466 523.692 310.182 520.949C316.562 510.75 321.833 481.405 316.674 470.429Z" fill="#30A328"/>
<path d="M613.886 609.459C621.741 589.567 646.758 572.733 667.89 576.006C680.942 578.028 692.181 585.502 707.811 587.442C717.356 587.451 723.669 585.75 732.929 583.688C719.22 612.907 697.57 638.039 662.906 639.783C658.293 631.197 657.258 627.579 650.354 620.838C640.163 609.628 628.003 608.615 613.886 609.459Z" fill="#6EC847"/>
<path d="M707.811 587.441C717.357 587.451 723.67 585.75 732.93 583.688C719.22 612.907 697.571 638.038 662.906 639.783C658.294 631.197 657.259 627.579 650.354 620.837C668.276 617.067 694.866 599.454 707.811 587.441Z" fill="#30A328"/>
<path d="M159.19 558.732C168.276 540.128 192.43 550.355 206.991 557.122C216.54 561.561 218.2 573.01 224.909 580.525C213.657 580.173 208.023 580.121 196.67 582.207C179.913 587.401 173.882 595.946 170.025 612.265C149.176 608.584 132.801 599.433 118.811 583.688C140.601 583.807 150.06 579.072 159.19 558.732Z" fill="#6EC847"/>
<path d="M159.189 558.732C168.275 540.128 192.43 550.355 206.991 557.122C216.54 561.561 218.2 573.01 224.909 580.525C213.657 580.173 208.023 580.121 196.669 582.207C189.83 567.761 174.991 560.656 159.189 558.732Z" fill="#30A328"/>
<path d="M498.231 524.555C505.919 535.657 516.967 540.58 530.222 539.042C537.668 537.688 542.151 535.58 549.109 532.642C563.363 540.79 574.825 552.596 583.717 566.324C579.34 578.637 577.584 585.346 574.097 597.861C569.832 591.031 565.433 584.37 558.915 579.455C545.237 569.296 529.68 570.558 515.616 579.455C501.131 568.076 495.642 541.982 498.231 524.555Z" fill="#6EC847"/>
<path d="M549.11 532.642C563.363 540.791 574.826 552.596 583.717 566.324C579.34 578.638 577.584 585.347 574.098 597.862C569.833 591.031 565.434 584.37 558.915 579.455C558.998 565.284 543.709 542.554 530.222 539.043C537.668 537.688 542.152 535.581 549.11 532.642Z" fill="#30A328"/>
<path d="M265.694 575.28C268.503 564.111 280.06 543.014 294.915 547.381C308.591 551.402 354.462 569.531 364.302 575.28C358.333 577.496 348.552 581.181 342.812 583.688C317.821 591.188 286.108 599.221 260.91 590.85C261.779 585.296 262.688 580.052 265.694 575.28Z" fill="#6EC847"/>
<path d="M265.694 575.28C268.504 564.111 280.06 543.014 294.916 547.381C308.592 551.402 354.463 569.531 364.302 575.28C358.333 577.496 348.552 581.181 342.812 583.688C341.255 582.47 302.763 566.465 296.455 564.502C287.027 561.567 273.114 570.445 265.694 575.28Z" fill="#30A328"/>
<path d="M618.336 622.324C651.246 621.438 650.861 651.538 660.11 676.549C662.13 682.009 665.463 690.666 667.037 695.764C661.545 694.008 652.488 690.944 647.657 688.013C626.639 678.623 605.695 657.135 590.153 639.783C599.511 628.013 602.316 624.335 618.336 622.324Z" fill="#6EC847"/>
<path d="M618.336 622.324C651.247 621.438 650.861 651.538 660.11 676.549C662.13 682.009 665.463 690.666 667.038 695.764C661.545 694.008 652.488 690.944 647.657 688.013C647.691 686.13 642.913 675.907 641.896 673.178C633.534 650.739 634.328 640.938 618.336 622.324Z" fill="#30A328"/>
<path d="M336.055 539.042C378.004 538.966 416.073 561.741 436.634 597.861C431.077 602.262 421.965 609.155 417.286 614.059C410.623 603.696 406.911 605.079 398.15 600.97L397.792 600.082C391.562 595.049 382.17 588.044 374.883 585.058C378.195 583.138 387.074 579.072 383.938 573.813C379.781 566.843 339.684 550.889 330.252 547.94C331.925 545.053 333.878 541.512 336.055 539.042Z" fill="#BF0B17"/>
<path d="M489.702 623.416C492.636 611.904 504.897 600.655 514.584 594.448C537.958 579.475 549.584 583.399 563.624 604.988C568.47 611.554 575.805 624.634 578.859 632.056C543.942 617.231 521.207 617.564 486.212 629.748C487.045 627.654 488.036 624.938 489.702 623.416Z" fill="#30A328"/>
<path d="M489.703 623.416C492.636 611.904 504.898 600.655 514.585 594.448C537.959 579.475 549.584 583.399 563.624 604.988C559.669 605.114 554.082 603.818 549.833 603.488C530.076 601.953 510.401 608.318 494.4 619.778C493.301 620.564 490.632 623.141 489.703 623.416Z" fill="#6EC847"/>
<path d="M240.582 580.525C236.931 577.009 233.159 569.846 230.727 565.401C213.44 533.786 204.946 498.217 215.239 462.805C218.457 451.734 229.099 454.411 233.412 464.928C229.125 475.516 226.379 485.535 227.264 497.107C226.511 524.635 239.339 547.733 253.398 570.485C251.469 575.707 250.392 579.587 249.039 585.058C246.766 584.208 241.94 582.626 240.582 580.525Z" fill="#EABD4E"/>
<path d="M242.535 577.318C241.291 569.446 238.066 563.487 235.14 556.319C231.14 546.516 218.648 505.461 227.264 497.107C226.511 524.635 239.339 547.733 253.398 570.485C251.468 575.707 250.392 579.587 249.039 585.058C246.765 584.208 241.939 582.626 240.582 580.525C241.703 579.621 241.981 578.628 242.535 577.318Z" fill="#D29C26"/>
<path d="M186.383 657.62C182.409 643.927 179.439 620.512 185.162 607.203C194.115 586.386 233.515 593.86 249.039 600.97C250.582 601.305 251.175 601.489 252.647 602.067C223.22 613.046 200.749 636.418 188.731 665.235C187.96 662.713 187.2 660.121 186.383 657.62Z" fill="#6EC847"/>
<path d="M249.038 600.97C250.582 601.305 251.175 601.489 252.646 602.067C223.219 613.046 200.748 636.418 188.731 665.236C187.96 662.714 187.2 660.121 186.383 657.62C193.347 648.915 198.99 631.592 209.139 618.687C218.782 606.427 234.37 605.001 248.295 601.182L249.038 600.97Z" fill="#30A328"/>
<path d="M583.718 610.27C586.604 587.116 603.321 553.379 617.367 535.997C623.678 528.188 646.621 502.571 657.715 512.391C668.403 524.214 646.78 530.893 638.913 537.728C618.218 555.709 606.342 587.543 599.346 614.059C595.151 615.684 593.907 616.468 590.153 618.951C587.737 615.932 585.943 613.403 583.718 610.27Z" fill="#EABD4E"/>
<path d="M657.715 512.391C668.403 524.215 646.78 530.893 638.913 537.728C618.218 555.709 606.342 587.543 599.346 614.059C595.151 615.684 593.907 616.468 590.153 618.951C587.737 615.932 585.943 613.404 583.718 610.27C595.847 611.906 605.702 573.202 609.844 564.645C623.629 536.173 632.254 528.859 657.715 512.391Z" fill="#D29C26"/>
<path d="M396.433 607.16C403.578 608.12 409.069 612.507 412.064 618.951C411.293 620.301 409.751 622.14 408.749 623.416L405.364 626.909C399.743 620.498 397.217 615.648 396.433 607.16Z" fill="#E70F1D"/>
<path d="M361.868 701.862C364.356 702.41 367.065 704.009 369.348 705.21C368.744 709.297 368.202 713.509 367.273 717.524C367.018 718.249 367.015 718.19 366.621 718.858L365.909 718.866C362.041 715.244 361.009 706.89 361.868 701.862Z" fill="#E70F1D"/>
<path d="M361.868 774.945C363.373 775.691 364.217 777.402 365.096 778.847C365.176 783.595 365.305 788.275 365.096 793.021C360.631 786.492 359.945 782.62 361.868 774.945Z" fill="#E70F1D"/>
</svg>
