<svg width="849" height="1183" viewBox="0 0 849 1183" fill="none" xmlns="http://www.w3.org/2000/svg">
<rect x="5" y="5" width="839" height="1173" rx="45" fill="white"/>
<rect x="5" y="5" width="839" height="1173" rx="45" stroke="black" stroke-width="10"/>
<circle cx="786.5" cy="1124.5" r="11.5" fill="black"/>
<circle cx="786.5" cy="59.5" r="11.5" fill="black"/>
<path d="M77 1124.5C77 1130.85 71.8513 1136 65.5 1136C59.1487 1136 54 1130.85 54 1124.5C54 1118.15 59.1487 1113 65.5 1113C71.8513 1113 77 1118.15 77 1124.5Z" fill="black"/>
<path d="M77 59.5C77 65.8513 71.8513 71 65.5 71C59.1487 71 54 65.8513 54 59.5C54 53.1487 59.1487 48 65.5 48C71.8513 48 77 53.1487 77 59.5Z" fill="black"/>
<mask id="path-6-inside-1_97_30" fill="white">
<path d="M708 48C713.523 48 717.934 52.4996 718.616 57.9801C723.122 94.1833 751.817 122.878 788.02 127.384C793.5 128.066 798 132.477 798 138V1046C798 1051.52 793.5 1055.93 788.02 1056.62C751.817 1061.12 723.122 1089.82 718.616 1126.02C717.934 1131.5 713.523 1136 708 1136H141C135.477 1136 131.066 1131.5 130.384 1126.02C125.878 1089.82 97.1833 1061.12 60.9801 1056.62C55.4996 1055.93 51 1051.52 51 1046V138C51 132.477 55.4996 128.066 60.9801 127.384C97.1833 122.878 125.878 94.1833 130.384 57.9801C131.066 52.4996 135.477 48 141 48H708Z"/>
</mask>
<path d="M708 48C713.523 48 717.934 52.4996 718.616 57.9801C723.122 94.1833 751.817 122.878 788.02 127.384C793.5 128.066 798 132.477 798 138V1046C798 1051.52 793.5 1055.93 788.02 1056.62C751.817 1061.12 723.122 1089.82 718.616 1126.02C717.934 1131.5 713.523 1136 708 1136H141C135.477 1136 131.066 1131.5 130.384 1126.02C125.878 1089.82 97.1833 1061.12 60.9801 1056.62C55.4996 1055.93 51 1051.52 51 1046V138C51 132.477 55.4996 128.066 60.9801 127.384C97.1833 122.878 125.878 94.1833 130.384 57.9801C131.066 52.4996 135.477 48 141 48H708Z" fill="#7047A3"/>
<path d="M130.384 1126.02L138.322 1125.03L130.384 1126.02ZM718.616 1126.02L710.678 1125.03L718.616 1126.02ZM788.02 1056.62L789.008 1064.56L788.02 1056.62ZM718.616 57.9801L726.555 56.9922L718.616 57.9801ZM718.616 57.9801L710.678 58.9681C715.635 98.8063 747.194 130.365 787.032 135.322L788.02 127.384L789.008 119.445C756.44 115.392 730.608 89.5603 726.555 56.9922L718.616 57.9801ZM798 138H790V1046H798H806V138H798ZM788.02 1056.62L787.032 1048.68C747.194 1053.64 715.635 1085.19 710.678 1125.03L718.616 1126.02L726.555 1127.01C730.608 1094.44 756.44 1068.61 789.008 1064.56L788.02 1056.62ZM708 1136V1128H141V1136V1144H708V1136ZM130.384 1126.02L138.322 1125.03C133.365 1085.19 101.806 1053.64 61.9681 1048.68L60.9801 1056.62L59.9922 1064.56C92.5603 1068.61 118.392 1094.44 122.445 1127.01L130.384 1126.02ZM51 1046H59V138H51H43V1046H51ZM60.9801 127.384L61.9681 135.322C101.806 130.365 133.365 98.8063 138.322 58.9681L130.384 57.9801L122.445 56.9922C118.392 89.5603 92.5603 115.392 59.9922 119.445L60.9801 127.384ZM141 48V56H708V48V40H141V48ZM130.384 57.9801L138.322 58.9681C138.438 58.0389 138.872 57.2306 139.427 56.6958C139.954 56.1887 140.494 56 141 56V48V40C130.84 40 123.547 48.1329 122.445 56.9922L130.384 57.9801ZM51 138H59C59 137.494 59.1887 136.954 59.6958 136.427C60.2306 135.872 61.0389 135.438 61.9681 135.322L60.9801 127.384L59.9922 119.445C51.1329 120.547 43 127.84 43 138H51ZM60.9801 1056.62L61.9681 1048.68C61.0389 1048.56 60.2306 1048.13 59.6958 1047.57C59.1887 1047.05 59 1046.51 59 1046H51H43C43 1056.16 51.1329 1063.45 59.9922 1064.56L60.9801 1056.62ZM141 1136V1128C140.494 1128 139.954 1127.81 139.427 1127.3C138.872 1126.77 138.438 1125.96 138.322 1125.03L130.384 1126.02L122.445 1127.01C123.547 1135.87 130.84 1144 141 1144V1136ZM718.616 1126.02L710.678 1125.03C710.562 1125.96 710.128 1126.77 709.573 1127.3C709.046 1127.81 708.506 1128 708 1128V1136V1144C718.16 1144 725.453 1135.87 726.555 1127.01L718.616 1126.02ZM798 1046H790C790 1046.51 789.811 1047.05 789.304 1047.57C788.769 1048.13 787.961 1048.56 787.032 1048.68L788.02 1056.62L789.008 1064.56C797.867 1063.45 806 1056.16 806 1046H798ZM788.02 127.384L787.032 135.322C787.961 135.438 788.769 135.872 789.304 136.427C789.811 136.954 790 137.494 790 138H798H806C806 127.84 797.867 120.547 789.008 119.445L788.02 127.384ZM718.616 57.9801L726.555 56.9922C725.453 48.1329 718.16 40 708 40V48V56C708.506 56 709.046 56.1887 709.573 56.6958C710.128 57.2306 710.562 58.0389 710.678 58.9681L718.616 57.9801Z" fill="black" mask="url(#path-6-inside-1_97_30)"/>
<path d="M690 102C695.523 102 699.911 106.512 700.837 111.957C705.019 136.563 724.437 155.981 749.043 160.163C754.488 161.089 759 165.477 759 171V1014C759 1019.52 754.488 1023.91 749.043 1024.84C724.711 1028.97 705.454 1048 700.984 1072.22C699.993 1077.59 695.633 1082 690.175 1082H158.825C153.367 1082 149.007 1077.59 148.016 1072.22C143.546 1048 124.288 1028.97 99.9568 1024.84C94.5121 1023.91 90 1019.52 90 1014V171C90 165.477 94.512 161.089 99.9568 160.163C124.563 155.981 143.981 136.563 148.163 111.957C149.089 106.512 153.477 102 159 102H690Z" fill="#B48FE1"/>
<path d="M234.145 378.335C234.145 372.555 235.477 367.37 238.14 362.78C240.86 358.19 244.515 354.62 249.105 352.07C253.752 349.463 258.823 348.16 264.32 348.16C270.61 348.16 276.192 349.718 281.065 352.835C285.995 355.895 289.565 360.258 291.775 365.925H280.13C278.6 362.808 276.475 360.485 273.755 358.955C271.035 357.425 267.89 356.66 264.32 356.66C260.41 356.66 256.925 357.538 253.865 359.295C250.805 361.052 248.397 363.573 246.64 366.86C244.94 370.147 244.09 373.972 244.09 378.335C244.09 382.698 244.94 386.523 246.64 389.81C248.397 393.097 250.805 395.647 253.865 397.46C256.925 399.217 260.41 400.095 264.32 400.095C267.89 400.095 271.035 399.33 273.755 397.8C276.475 396.27 278.6 393.947 280.13 390.83H291.775C289.565 396.497 285.995 400.86 281.065 403.92C276.192 406.98 270.61 408.51 264.32 408.51C258.767 408.51 253.695 407.235 249.105 404.685C244.515 402.078 240.86 398.48 238.14 393.89C235.477 389.3 234.145 384.115 234.145 378.335ZM299.887 384.37C299.887 379.667 300.851 375.502 302.777 371.875C304.761 368.248 307.424 365.443 310.767 363.46C314.167 361.42 317.907 360.4 321.987 360.4C325.671 360.4 328.872 361.137 331.592 362.61C334.369 364.027 336.579 365.812 338.222 367.965V361.165H347.997V408H338.222V401.03C336.579 403.24 334.341 405.082 331.507 406.555C328.674 408.028 325.444 408.765 321.817 408.765C317.794 408.765 314.111 407.745 310.767 405.705C307.424 403.608 304.761 400.718 302.777 397.035C300.851 393.295 299.887 389.073 299.887 384.37ZM338.222 384.54C338.222 381.31 337.542 378.505 336.182 376.125C334.879 373.745 333.151 371.932 330.997 370.685C328.844 369.438 326.521 368.815 324.027 368.815C321.534 368.815 319.211 369.438 317.057 370.685C314.904 371.875 313.147 373.66 311.787 376.04C310.484 378.363 309.832 381.14 309.832 384.37C309.832 387.6 310.484 390.433 311.787 392.87C313.147 395.307 314.904 397.177 317.057 398.48C319.267 399.727 321.591 400.35 324.027 400.35C326.521 400.35 328.844 399.727 330.997 398.48C333.151 397.233 334.879 395.42 336.182 393.04C337.542 390.603 338.222 387.77 338.222 384.54ZM370.415 345.1V408H360.725V345.1H370.415ZM425.552 361.165V408H415.862V402.475C414.332 404.402 412.32 405.932 409.827 407.065C407.39 408.142 404.783 408.68 402.007 408.68C398.323 408.68 395.008 407.915 392.062 406.385C389.172 404.855 386.877 402.588 385.177 399.585C383.533 396.582 382.712 392.955 382.712 388.705V361.165H392.317V387.26C392.317 391.453 393.365 394.683 395.462 396.95C397.558 399.16 400.42 400.265 404.047 400.265C407.673 400.265 410.535 399.16 412.632 396.95C414.785 394.683 415.862 391.453 415.862 387.26V361.165H425.552ZM448.027 367.965C449.444 365.585 451.314 363.743 453.637 362.44C456.017 361.08 458.822 360.4 462.052 360.4V370.43H459.587C455.79 370.43 452.9 371.393 450.917 373.32C448.99 375.247 448.027 378.59 448.027 383.35V408H438.337V361.165H448.027V367.965ZM491.274 408.765C486.854 408.765 482.859 407.773 479.289 405.79C475.719 403.75 472.914 400.917 470.874 397.29C468.834 393.607 467.814 389.357 467.814 384.54C467.814 379.78 468.862 375.558 470.959 371.875C473.056 368.192 475.917 365.358 479.544 363.375C483.171 361.392 487.222 360.4 491.699 360.4C496.176 360.4 500.227 361.392 503.854 363.375C507.481 365.358 510.342 368.192 512.439 371.875C514.536 375.558 515.584 379.78 515.584 384.54C515.584 389.3 514.507 393.522 512.354 397.205C510.201 400.888 507.254 403.75 503.514 405.79C499.831 407.773 495.751 408.765 491.274 408.765ZM491.274 400.35C493.767 400.35 496.091 399.755 498.244 398.565C500.454 397.375 502.239 395.59 503.599 393.21C504.959 390.83 505.639 387.94 505.639 384.54C505.639 381.14 504.987 378.278 503.684 375.955C502.381 373.575 500.652 371.79 498.499 370.6C496.346 369.41 494.022 368.815 491.529 368.815C489.036 368.815 486.712 369.41 484.559 370.6C482.462 371.79 480.791 373.575 479.544 375.955C478.297 378.278 477.674 381.14 477.674 384.54C477.674 389.583 478.949 393.493 481.499 396.27C484.106 398.99 487.364 400.35 491.274 400.35ZM542.163 408.765C538.48 408.765 535.165 408.113 532.218 406.81C529.328 405.45 527.033 403.637 525.333 401.37C523.633 399.047 522.726 396.468 522.613 393.635H532.643C532.813 395.618 533.748 397.29 535.448 398.65C537.205 399.953 539.386 400.605 541.993 400.605C544.713 400.605 546.81 400.095 548.283 399.075C549.813 397.998 550.578 396.638 550.578 394.995C550.578 393.238 549.728 391.935 548.028 391.085C546.385 390.235 543.75 389.3 540.123 388.28C536.61 387.317 533.748 386.382 531.538 385.475C529.328 384.568 527.401 383.18 525.758 381.31C524.171 379.44 523.378 376.975 523.378 373.915C523.378 371.422 524.115 369.155 525.588 367.115C527.061 365.018 529.158 363.375 531.878 362.185C534.655 360.995 537.828 360.4 541.398 360.4C546.725 360.4 551.003 361.76 554.233 364.48C557.52 367.143 559.276 370.798 559.503 375.445H549.813C549.643 373.348 548.793 371.677 547.263 370.43C545.733 369.183 543.665 368.56 541.058 368.56C538.508 368.56 536.553 369.042 535.193 370.005C533.833 370.968 533.153 372.243 533.153 373.83C533.153 375.077 533.606 376.125 534.513 376.975C535.42 377.825 536.525 378.505 537.828 379.015C539.131 379.468 541.058 380.063 543.608 380.8C547.008 381.707 549.785 382.642 551.938 383.605C554.148 384.512 556.046 385.872 557.633 387.685C559.22 389.498 560.041 391.907 560.098 394.91C560.098 397.573 559.361 399.953 557.888 402.05C556.415 404.147 554.318 405.79 551.598 406.98C548.935 408.17 545.79 408.765 542.163 408.765ZM590.883 408.765C586.463 408.765 582.468 407.773 578.898 405.79C575.328 403.75 572.523 400.917 570.483 397.29C568.443 393.607 567.423 389.357 567.423 384.54C567.423 379.78 568.472 375.558 570.568 371.875C572.665 368.192 575.527 365.358 579.153 363.375C582.78 361.392 586.832 360.4 591.308 360.4C595.785 360.4 599.837 361.392 603.463 363.375C607.09 365.358 609.952 368.192 612.048 371.875C614.145 375.558 615.193 379.78 615.193 384.54C615.193 389.3 614.117 393.522 611.963 397.205C609.81 400.888 606.863 403.75 603.123 405.79C599.44 407.773 595.36 408.765 590.883 408.765ZM590.883 400.35C593.377 400.35 595.7 399.755 597.853 398.565C600.063 397.375 601.848 395.59 603.208 393.21C604.568 390.83 605.248 387.94 605.248 384.54C605.248 381.14 604.597 378.278 603.293 375.955C601.99 373.575 600.262 371.79 598.108 370.6C595.955 369.41 593.632 368.815 591.138 368.815C588.645 368.815 586.322 369.41 584.168 370.6C582.072 371.79 580.4 373.575 579.153 375.955C577.907 378.278 577.283 381.14 577.283 384.54C577.283 389.583 578.558 393.493 581.108 396.27C583.715 398.99 586.973 400.35 590.883 400.35Z" fill="black"/>
<mask id="path-10-outside-2_97_30" maskUnits="userSpaceOnUse" x="401" y="1006" width="46" height="32" fill="black">
<rect fill="white" x="401" y="1006" width="46" height="32"/>
<path d="M404.92 1030.8C407.48 1028.59 409.493 1026.77 410.96 1025.36C412.453 1023.92 413.693 1022.43 414.68 1020.88C415.667 1019.33 416.16 1017.79 416.16 1016.24C416.16 1014.64 415.773 1013.39 415 1012.48C414.253 1011.57 413.067 1011.12 411.44 1011.12C409.867 1011.12 408.64 1011.63 407.76 1012.64C406.907 1013.63 406.453 1014.96 406.4 1016.64H402C402.08 1013.6 402.987 1011.28 404.72 1009.68C406.48 1008.05 408.707 1007.24 411.4 1007.24C414.307 1007.24 416.573 1008.04 418.2 1009.64C419.853 1011.24 420.68 1013.37 420.68 1016.04C420.68 1017.96 420.187 1019.81 419.2 1021.6C418.24 1023.36 417.08 1024.95 415.72 1026.36C414.387 1027.75 412.68 1029.36 410.6 1031.2L408.8 1032.8H421.48V1036.6H402.04V1033.28L404.92 1030.8ZM431.166 1029.08C431.433 1030.41 432.006 1031.43 432.886 1032.12C433.766 1032.81 434.953 1033.16 436.446 1033.16C438.339 1033.16 439.726 1032.41 440.606 1030.92C441.486 1029.43 441.926 1026.88 441.926 1023.28C441.286 1024.19 440.379 1024.89 439.206 1025.4C438.059 1025.88 436.806 1026.12 435.446 1026.12C433.713 1026.12 432.139 1025.77 430.726 1025.08C429.313 1024.36 428.193 1023.31 427.366 1021.92C426.566 1020.51 426.166 1018.8 426.166 1016.8C426.166 1013.87 427.019 1011.53 428.726 1009.8C430.459 1008.04 432.833 1007.16 435.846 1007.16C439.473 1007.16 442.046 1008.37 443.566 1010.8C445.113 1013.2 445.886 1016.89 445.886 1021.88C445.886 1025.32 445.593 1028.13 445.006 1030.32C444.446 1032.51 443.459 1034.16 442.046 1035.28C440.633 1036.4 438.673 1036.96 436.166 1036.96C433.313 1036.96 431.113 1036.21 429.566 1034.72C428.019 1033.23 427.153 1031.35 426.966 1029.08H431.166ZM436.246 1022.28C437.846 1022.28 439.099 1021.79 440.006 1020.8C440.939 1019.79 441.406 1018.45 441.406 1016.8C441.406 1014.96 440.913 1013.53 439.926 1012.52C438.966 1011.48 437.646 1010.96 435.966 1010.96C434.286 1010.96 432.953 1011.49 431.966 1012.56C431.006 1013.6 430.526 1014.97 430.526 1016.68C430.526 1018.31 430.993 1019.65 431.926 1020.72C432.886 1021.76 434.326 1022.28 436.246 1022.28Z"/>
</mask>
<path d="M404.92 1030.8C407.48 1028.59 409.493 1026.77 410.96 1025.36C412.453 1023.92 413.693 1022.43 414.68 1020.88C415.667 1019.33 416.16 1017.79 416.16 1016.24C416.16 1014.64 415.773 1013.39 415 1012.48C414.253 1011.57 413.067 1011.12 411.44 1011.12C409.867 1011.12 408.64 1011.63 407.76 1012.64C406.907 1013.63 406.453 1014.96 406.4 1016.64H402C402.08 1013.6 402.987 1011.28 404.72 1009.68C406.48 1008.05 408.707 1007.24 411.4 1007.24C414.307 1007.24 416.573 1008.04 418.2 1009.64C419.853 1011.24 420.68 1013.37 420.68 1016.04C420.68 1017.96 420.187 1019.81 419.2 1021.6C418.24 1023.36 417.08 1024.95 415.72 1026.36C414.387 1027.75 412.68 1029.36 410.6 1031.2L408.8 1032.8H421.48V1036.6H402.04V1033.28L404.92 1030.8ZM431.166 1029.08C431.433 1030.41 432.006 1031.43 432.886 1032.12C433.766 1032.81 434.953 1033.16 436.446 1033.16C438.339 1033.16 439.726 1032.41 440.606 1030.92C441.486 1029.43 441.926 1026.88 441.926 1023.28C441.286 1024.19 440.379 1024.89 439.206 1025.4C438.059 1025.88 436.806 1026.12 435.446 1026.12C433.713 1026.12 432.139 1025.77 430.726 1025.08C429.313 1024.36 428.193 1023.31 427.366 1021.92C426.566 1020.51 426.166 1018.8 426.166 1016.8C426.166 1013.87 427.019 1011.53 428.726 1009.8C430.459 1008.04 432.833 1007.16 435.846 1007.16C439.473 1007.16 442.046 1008.37 443.566 1010.8C445.113 1013.2 445.886 1016.89 445.886 1021.88C445.886 1025.32 445.593 1028.13 445.006 1030.32C444.446 1032.51 443.459 1034.16 442.046 1035.28C440.633 1036.4 438.673 1036.96 436.166 1036.96C433.313 1036.96 431.113 1036.21 429.566 1034.72C428.019 1033.23 427.153 1031.35 426.966 1029.08H431.166ZM436.246 1022.28C437.846 1022.28 439.099 1021.79 440.006 1020.8C440.939 1019.79 441.406 1018.45 441.406 1016.8C441.406 1014.96 440.913 1013.53 439.926 1012.52C438.966 1011.48 437.646 1010.96 435.966 1010.96C434.286 1010.96 432.953 1011.49 431.966 1012.56C431.006 1013.6 430.526 1014.97 430.526 1016.68C430.526 1018.31 430.993 1019.65 431.926 1020.72C432.886 1021.76 434.326 1022.28 436.246 1022.28Z" fill="black"/>
<path d="M404.92 1030.8L405.116 1031.03L405.116 1031.03L404.92 1030.8ZM410.96 1025.36L411.168 1025.58L411.168 1025.58L410.96 1025.36ZM415 1012.48L414.768 1012.67L414.772 1012.67L415 1012.48ZM407.76 1012.64L407.533 1012.44L407.533 1012.44L407.76 1012.64ZM406.4 1016.64V1016.94H406.691L406.7 1016.65L406.4 1016.64ZM402 1016.64L401.7 1016.63L401.692 1016.94H402V1016.64ZM404.72 1009.68L404.923 1009.9L404.924 1009.9L404.72 1009.68ZM418.2 1009.64L417.99 1009.85L417.991 1009.86L418.2 1009.64ZM419.2 1021.6L418.937 1021.45L418.937 1021.46L419.2 1021.6ZM415.72 1026.36L415.504 1026.15L415.504 1026.15L415.72 1026.36ZM410.6 1031.2L410.401 1030.98L410.401 1030.98L410.6 1031.2ZM408.8 1032.8L408.601 1032.58L408.011 1033.1H408.8V1032.8ZM421.48 1032.8H421.78V1032.5H421.48V1032.8ZM421.48 1036.6V1036.9H421.78V1036.6H421.48ZM402.04 1036.6H401.74V1036.9H402.04V1036.6ZM402.04 1033.28L401.844 1033.05L401.74 1033.14V1033.28H402.04ZM404.92 1030.8L405.116 1031.03C407.678 1028.81 409.696 1026.99 411.168 1025.58L410.96 1025.36L410.752 1025.14C409.291 1026.55 407.282 1028.36 404.724 1030.57L404.92 1030.8ZM410.96 1025.36L411.168 1025.58C412.676 1024.12 413.932 1022.61 414.933 1021.04L414.68 1020.88L414.427 1020.72C413.455 1022.24 412.23 1023.72 410.752 1025.14L410.96 1025.36ZM414.68 1020.88L414.933 1021.04C415.945 1019.46 416.46 1017.85 416.46 1016.24H416.16H415.86C415.86 1017.72 415.389 1019.21 414.427 1020.72L414.68 1020.88ZM416.16 1016.24H416.46C416.46 1014.59 416.062 1013.26 415.228 1012.29L415 1012.48L414.772 1012.67C415.485 1013.51 415.86 1014.69 415.86 1016.24H416.16ZM415 1012.48L415.232 1012.29C414.408 1011.29 413.12 1010.82 411.44 1010.82V1011.12V1011.42C413.013 1011.42 414.098 1011.86 414.768 1012.67L415 1012.48ZM411.44 1011.12V1010.82C409.796 1010.82 408.48 1011.35 407.533 1012.44L407.76 1012.64L407.987 1012.84C408.8 1011.9 409.937 1011.42 411.44 1011.42V1011.12ZM407.76 1012.64L407.533 1012.44C406.623 1013.5 406.155 1014.9 406.1 1016.63L406.4 1016.64L406.7 1016.65C406.752 1015.02 407.19 1013.76 407.987 1012.84L407.76 1012.64ZM406.4 1016.64V1016.34H402V1016.64V1016.94H406.4V1016.64ZM402 1016.64L402.3 1016.65C402.378 1013.66 403.266 1011.43 404.923 1009.9L404.72 1009.68L404.517 1009.46C402.708 1011.13 401.782 1013.54 401.7 1016.63L402 1016.64ZM404.72 1009.68L404.924 1009.9C406.621 1008.33 408.772 1007.54 411.4 1007.54V1007.24V1006.94C408.641 1006.94 406.339 1007.78 404.516 1009.46L404.72 1009.68ZM411.4 1007.24V1007.54C414.251 1007.54 416.433 1008.32 417.99 1009.85L418.2 1009.64L418.41 1009.43C416.713 1007.76 414.363 1006.94 411.4 1006.94V1007.24ZM418.2 1009.64L417.991 1009.86C419.577 1011.39 420.38 1013.44 420.38 1016.04H420.68H420.98C420.98 1013.31 420.13 1011.09 418.409 1009.42L418.2 1009.64ZM420.68 1016.04H420.38C420.38 1017.91 419.901 1019.71 418.937 1021.45L419.2 1021.6L419.463 1021.75C420.472 1019.92 420.98 1018.01 420.98 1016.04H420.68ZM419.2 1021.6L418.937 1021.46C417.989 1023.19 416.845 1024.76 415.504 1026.15L415.72 1026.36L415.936 1026.57C417.315 1025.14 418.491 1023.53 419.463 1021.74L419.2 1021.6ZM415.72 1026.36L415.504 1026.15C414.178 1027.53 412.478 1029.14 410.401 1030.98L410.6 1031.2L410.799 1031.42C412.882 1029.58 414.595 1027.96 415.936 1026.57L415.72 1026.36ZM410.6 1031.2L410.401 1030.98L408.601 1032.58L408.8 1032.8L408.999 1033.02L410.799 1031.42L410.6 1031.2ZM408.8 1032.8V1033.1H421.48V1032.8V1032.5H408.8V1032.8ZM421.48 1032.8H421.18V1036.6H421.48H421.78V1032.8H421.48ZM421.48 1036.6V1036.3H402.04V1036.6V1036.9H421.48V1036.6ZM402.04 1036.6H402.34V1033.28H402.04H401.74V1036.6H402.04ZM402.04 1033.28L402.236 1033.51L405.116 1031.03L404.92 1030.8L404.724 1030.57L401.844 1033.05L402.04 1033.28ZM431.166 1029.08L431.46 1029.02L431.412 1028.78H431.166V1029.08ZM432.886 1032.12L432.7 1032.36L432.886 1032.12ZM440.606 1030.92L440.347 1030.77L440.606 1030.92ZM441.926 1023.28H442.226V1022.33L441.681 1023.11L441.926 1023.28ZM439.206 1025.4L439.322 1025.68L439.325 1025.68L439.206 1025.4ZM430.726 1025.08L430.59 1025.35L430.594 1025.35L430.726 1025.08ZM427.366 1021.92L427.105 1022.07L427.108 1022.07L427.366 1021.92ZM428.726 1009.8L428.512 1009.59L428.512 1009.59L428.726 1009.8ZM443.566 1010.8L443.312 1010.96L443.314 1010.96L443.566 1010.8ZM445.006 1030.32L444.716 1030.24L444.715 1030.25L445.006 1030.32ZM442.046 1035.28L442.232 1035.52L442.046 1035.28ZM429.566 1034.72L429.358 1034.94L429.566 1034.72ZM426.966 1029.08V1028.78H426.64L426.667 1029.1L426.966 1029.08ZM440.006 1020.8L439.785 1020.6L439.785 1020.6L440.006 1020.8ZM439.926 1012.52L439.705 1012.72L439.711 1012.73L439.926 1012.52ZM431.966 1012.56L431.746 1012.36L431.745 1012.36L431.966 1012.56ZM431.926 1020.72L431.7 1020.92L431.705 1020.92L431.926 1020.72ZM431.166 1029.08L430.872 1029.14C431.149 1030.53 431.753 1031.61 432.7 1032.36L432.886 1032.12L433.072 1031.88C432.259 1031.24 431.716 1030.3 431.46 1029.02L431.166 1029.08ZM432.886 1032.12L432.7 1032.36C433.648 1033.1 434.908 1033.46 436.446 1033.46V1033.16V1032.86C434.998 1032.86 433.883 1032.52 433.072 1031.88L432.886 1032.12ZM436.446 1033.16V1033.46C438.434 1033.46 439.925 1032.67 440.864 1031.07L440.606 1030.92L440.347 1030.77C439.527 1032.16 438.245 1032.86 436.446 1032.86V1033.16ZM440.606 1030.92L440.864 1031.07C441.788 1029.5 442.226 1026.89 442.226 1023.28H441.926H441.626C441.626 1026.87 441.184 1029.35 440.347 1030.77L440.606 1030.92ZM441.926 1023.28L441.681 1023.11C441.077 1023.96 440.217 1024.64 439.087 1025.12L439.206 1025.4L439.325 1025.68C440.541 1025.15 441.495 1024.41 442.171 1023.45L441.926 1023.28ZM439.206 1025.4L439.09 1025.12C437.983 1025.59 436.77 1025.82 435.446 1025.82V1026.12V1026.42C436.842 1026.42 438.135 1026.17 439.322 1025.68L439.206 1025.4ZM435.446 1026.12V1025.82C433.754 1025.82 432.226 1025.48 430.858 1024.81L430.726 1025.08L430.594 1025.35C432.052 1026.06 433.671 1026.42 435.446 1026.42V1026.12ZM430.726 1025.08L430.862 1024.81C429.5 1024.12 428.422 1023.11 427.624 1021.77L427.366 1021.92L427.108 1022.07C427.963 1023.51 429.125 1024.6 430.59 1025.35L430.726 1025.08ZM427.366 1021.92L427.627 1021.77C426.858 1020.41 426.466 1018.76 426.466 1016.8H426.166H425.866C425.866 1018.84 426.274 1020.6 427.105 1022.07L427.366 1021.92ZM426.166 1016.8H426.466C426.466 1013.93 427.299 1011.68 428.94 1010.01L428.726 1009.8L428.512 1009.59C426.739 1011.39 425.866 1013.81 425.866 1016.8H426.166ZM428.726 1009.8L428.94 1010.01C430.605 1008.32 432.894 1007.46 435.846 1007.46V1007.16V1006.86C432.771 1006.86 430.314 1007.76 428.512 1009.59L428.726 1009.8ZM435.846 1007.16V1007.46C439.401 1007.46 441.861 1008.64 443.312 1010.96L443.566 1010.8L443.82 1010.64C442.23 1008.1 439.544 1006.86 435.846 1006.86V1007.16ZM443.566 1010.8L443.314 1010.96C444.814 1013.29 445.586 1016.91 445.586 1021.88H445.886H446.186C446.186 1016.87 445.412 1013.11 443.818 1010.64L443.566 1010.8ZM445.886 1021.88H445.586C445.586 1025.31 445.294 1028.09 444.716 1030.24L445.006 1030.32L445.296 1030.4C445.892 1028.18 446.186 1025.33 446.186 1021.88H445.886ZM445.006 1030.32L444.715 1030.25C444.167 1032.38 443.21 1033.97 441.86 1035.04L442.046 1035.28L442.232 1035.52C443.709 1034.35 444.724 1032.63 445.297 1030.39L445.006 1030.32ZM442.046 1035.28L441.86 1035.04C440.517 1036.11 438.631 1036.66 436.166 1036.66V1036.96V1037.26C438.714 1037.26 440.749 1036.69 442.232 1035.52L442.046 1035.28ZM436.166 1036.96V1036.66C433.364 1036.66 431.249 1035.93 429.774 1034.5L429.566 1034.72L429.358 1034.94C430.977 1036.5 433.261 1037.26 436.166 1037.26V1036.96ZM429.566 1034.72L429.774 1034.5C428.283 1033.06 427.446 1031.25 427.265 1029.06L426.966 1029.08L426.667 1029.1C426.859 1031.44 427.755 1033.39 429.358 1034.94L429.566 1034.72ZM426.966 1029.08V1029.38H431.166V1029.08V1028.78H426.966V1029.08ZM436.246 1022.28V1022.58C437.912 1022.58 439.252 1022.06 440.227 1021L440.006 1020.8L439.785 1020.6C438.946 1021.51 437.78 1021.98 436.246 1021.98V1022.28ZM440.006 1020.8L440.227 1021C441.221 1019.92 441.706 1018.51 441.706 1016.8H441.406H441.106C441.106 1018.39 440.658 1019.65 439.785 1020.6L440.006 1020.8ZM441.406 1016.8H441.706C441.706 1014.91 441.197 1013.4 440.141 1012.31L439.926 1012.52L439.711 1012.73C440.628 1013.67 441.106 1015.01 441.106 1016.8H441.406ZM439.926 1012.52L440.146 1012.32C439.119 1011.2 437.713 1010.66 435.966 1010.66V1010.96V1011.26C437.579 1011.26 438.813 1011.76 439.705 1012.72L439.926 1012.52ZM435.966 1010.96V1010.66C434.217 1010.66 432.798 1011.22 431.746 1012.36L431.966 1012.56L432.186 1012.76C433.107 1011.77 434.355 1011.26 435.966 1011.26V1010.96ZM431.966 1012.56L431.745 1012.36C430.724 1013.46 430.226 1014.91 430.226 1016.68H430.526H430.826C430.826 1015.03 431.288 1013.74 432.186 1012.76L431.966 1012.56ZM430.526 1016.68H430.226C430.226 1018.37 430.712 1019.79 431.7 1020.92L431.926 1020.72L432.152 1020.52C431.273 1019.52 430.826 1018.25 430.826 1016.68H430.526ZM431.926 1020.72L431.705 1020.92C432.74 1022.04 434.273 1022.58 436.246 1022.58V1022.28V1021.98C434.379 1021.98 433.031 1021.48 432.146 1020.52L431.926 1020.72Z" fill="black" mask="url(#path-10-outside-2_97_30)"/>
<path d="M402.135 197.975V272H381.555V242.285H356.46V272H335.88V197.975H356.46V225.8H381.555V197.975H402.135ZM441.317 272.735C435.437 272.735 430.152 271.51 425.462 269.06C420.842 266.61 417.202 263.11 414.542 258.56C411.882 254.01 410.552 248.655 410.552 242.495C410.552 236.405 411.882 231.085 414.542 226.535C417.272 221.985 420.947 218.485 425.567 216.035C430.257 213.585 435.542 212.36 441.422 212.36C447.302 212.36 452.552 213.585 457.172 216.035C461.862 218.485 465.537 221.985 468.197 226.535C470.927 231.085 472.292 236.405 472.292 242.495C472.292 248.585 470.927 253.94 468.197 258.56C465.537 263.11 461.862 266.61 457.172 269.06C452.482 271.51 447.197 272.735 441.317 272.735ZM441.317 254.885C444.187 254.885 446.567 253.835 448.457 251.735C450.417 249.565 451.397 246.485 451.397 242.495C451.397 238.505 450.417 235.46 448.457 233.36C446.567 231.26 444.222 230.21 441.422 230.21C438.622 230.21 436.277 231.26 434.387 233.36C432.497 235.46 431.552 238.505 431.552 242.495C431.552 246.555 432.462 249.635 434.282 251.735C436.102 253.835 438.447 254.885 441.317 254.885ZM515.42 254.465V272H506.495C491.445 272 483.92 264.545 483.92 249.635V230.21H476.675V213.095H483.92V198.815H504.605V213.095H515.315V230.21H504.605V249.95C504.605 251.56 504.955 252.715 505.655 253.415C506.425 254.115 507.685 254.465 509.435 254.465H515.42Z" fill="black"/>
<path d="M277.69 644.038C241.892 632.299 219.342 596.941 223.794 559.533C228.246 522.124 258.464 493.046 296.017 490.036C333.569 487.025 368.033 510.918 378.388 547.14C382.246 546.826 386.092 546.56 389.96 546.93C398.611 547.757 410.377 552.171 418.076 556.239C421.146 557.861 424.032 559.852 426.948 561.732C432.029 562.157 436.785 562.716 440.37 566.884C442.484 569.341 443.319 572.445 443.575 575.613C446.887 579.638 449.851 583.929 453.218 587.908C461.109 597.236 472.738 607.714 485.507 608.959C487.054 609.109 488.619 609.154 490.171 609.217C518.319 601.865 545.306 604.757 570.536 619.63C592.742 632.502 608.8 653.806 615.059 678.699C618.458 692.143 618.755 706.341 616.883 720.042C615.621 729.278 613.808 738.342 613.429 747.683C613.449 747.822 613.465 747.963 613.492 748.102C613.809 749.758 615.626 752.303 616.422 753.892C618.391 757.824 620.348 761.765 622.033 765.83C633.294 793.01 633.566 816.395 623.018 843.654C627.279 848.024 630.105 853.158 631.661 859.063C634.369 869.342 633.921 883.587 634.518 894.421C635.27 908.072 636.655 921.985 636.63 935.655C643.42 934.11 649.625 934.071 655.729 937.876C660.55 940.846 663.971 945.634 665.218 951.158C665.571 952.71 665.722 954.283 665.862 955.865C672.366 956.58 678.342 958.706 682.559 963.967C685.87 968.1 687.698 973.796 687.192 979.094C687.027 980.818 686.421 982.622 684.967 983.679C683.85 984.489 682.362 984.617 681.029 984.698C677.704 984.901 674.273 984.73 670.936 984.717L651.664 984.663L588.749 984.686H319.848L251.132 984.683L234.053 984.665C231.653 984.666 228.849 985.041 226.514 984.562C225.374 984.327 224.383 983.794 223.744 982.794C223.045 981.699 222.889 980.326 223.188 979.074C223.487 977.826 224.27 976.62 225.428 976.017C228.05 974.651 239.137 975.451 242.651 975.491C241.363 969.057 242.227 962.748 245.924 957.217C249.249 952.143 254.489 948.633 260.447 947.489C266.039 946.441 271.6 947.604 276.722 949.926C277.537 940.919 281.071 932.703 288.1 926.787C294.709 921.224 302.35 919.112 310.86 919.08C311.517 916.816 313.028 914.542 314.15 912.463C317.647 905.982 321.146 899.606 322.389 892.246C326.29 869.155 311.519 859.342 299.605 842.786C291.275 831.212 286.188 818.388 285.431 804.049C284.538 787.136 288.63 769.777 293.888 753.814C296.276 746.567 299.666 739.232 300.376 731.585C301.054 724.28 299.679 718.014 297.918 710.98C296.157 711.419 294.5 711.712 292.678 711.552C288.759 711.206 284.875 709.089 282.449 706.008C280.808 703.908 279.767 701.402 279.437 698.757C278.894 694.512 279.966 689.615 280.477 685.374L282.669 667.113C280.79 664.184 278.33 648.131 277.69 644.038Z" fill="black"/>
<path d="M277.69 644.038C241.892 632.299 219.342 596.941 223.794 559.533C228.246 522.124 258.464 493.046 296.017 490.036C333.569 487.025 368.034 510.918 378.388 547.14C382.246 546.826 386.093 546.56 389.96 546.93C398.611 547.757 410.378 552.171 418.076 556.239C421.147 557.861 424.032 559.852 426.948 561.732C432.029 562.157 436.785 562.716 440.37 566.884C442.485 569.341 443.319 572.445 443.575 575.613C446.887 579.638 449.852 583.929 453.218 587.908C461.11 597.236 472.738 607.714 485.507 608.959C487.054 609.109 488.619 609.154 490.172 609.217C466.452 617.066 447.546 630.316 436.03 653.17C434.23 656.742 432.928 660.436 431.359 664.099C428.938 665.069 426.526 665.929 424.006 666.61C421.854 667.191 419.317 667.481 417.332 668.46C416.317 668.96 415.315 669.785 414.905 670.871C414.351 672.337 414.915 673.537 415.547 674.865C400.946 690.823 392.813 711.46 393.782 733.144C394.556 750.475 402.838 768.002 415.657 779.672C419.409 783.087 423.458 786.097 427.585 789.039C426.459 790.689 425.468 792.328 425.811 794.408C426.147 796.454 427.275 797.552 428.925 798.656C437.025 804.075 445.185 809.609 453.654 814.44C457.837 816.825 462.143 819.053 466.436 821.235C471.277 823.695 476.815 825.841 480.762 829.648C485.549 834.266 488.411 840.469 489.692 846.934C493.166 864.469 483.639 891.872 477.827 908.66C472.726 901.927 466.376 896.837 457.762 895.677C450.174 894.656 443.611 896.776 437.121 900.585C433.229 892.023 427.463 884.991 418.42 881.582C411.012 878.789 402.543 878.848 395.331 882.188C387.665 885.737 381.802 892.271 377.743 899.553C370.803 893.644 361.678 890.336 352.525 891.086C344.332 891.775 336.761 895.734 331.52 902.069C326.788 907.668 324.129 914.726 323.99 922.056C319.819 920.324 315.405 919.15 310.861 919.08C311.518 916.816 313.028 914.542 314.15 912.463C317.647 905.982 321.146 899.606 322.389 892.246C326.29 869.155 311.519 859.342 299.605 842.786C291.275 831.212 286.188 818.388 285.431 804.049C284.538 787.136 288.63 769.777 293.889 753.814C296.277 746.567 299.666 739.232 300.376 731.585C301.055 724.28 299.679 718.014 297.918 710.98C296.157 711.419 294.501 711.712 292.679 711.552C288.76 711.206 284.876 709.089 282.449 706.008C280.808 703.908 279.767 701.402 279.437 698.757C278.894 694.512 279.966 689.615 280.478 685.374L282.669 667.113C280.791 664.184 278.331 648.131 277.69 644.038Z" fill="#FEE06F"/>
<path d="M277.69 644.038C241.892 632.299 219.342 596.941 223.794 559.533C228.246 522.124 258.464 493.046 296.017 490.036C333.569 487.025 368.034 510.918 378.388 547.14C386.434 575.287 378.275 605.576 357.181 625.875C336.087 646.173 305.507 653.16 277.69 644.038Z" fill="black"/>
<path d="M296.494 499.874C334.56 496.534 368.144 524.64 371.565 562.699C374.985 600.757 346.951 634.401 308.9 637.902C270.735 641.415 236.967 613.278 233.536 575.104C230.105 536.931 258.314 503.224 296.494 499.874Z" fill="#FECA3D"/>
<path d="M301.131 508.319C303.294 508.362 307.025 508.174 308.807 509.455C309.723 510.115 310.198 511.035 310.336 512.146C310.517 513.595 310.077 515.183 309.148 516.314C307.121 518.78 301.808 518.629 298.794 518.993C284.232 520.75 272.324 526.986 263.171 538.542C262.228 539.348 261.193 540.08 259.929 540.215C258.779 540.338 257.587 540.11 256.721 539.301C255.949 538.581 255.615 537.571 255.582 536.536C255.453 532.602 258.925 528.069 261.454 525.328C271.698 514.226 286.327 508.95 301.131 508.319Z" fill="#FEE06F"/>
<path d="M247.957 547.14C248.366 547.131 248.769 547.118 249.176 547.158C250.697 547.309 252.285 548.029 253.254 549.232C254.214 550.424 254.523 552.013 254.335 553.509C254.013 556.079 252.539 558.186 250.513 559.719C250.13 559.888 249.734 560.083 249.317 560.161C248.278 560.356 247.013 560.175 246.215 559.451C244.94 558.295 244.674 556.11 244.717 554.493C244.795 551.612 245.92 549.138 247.957 547.14Z" fill="#FEE06F"/>
<path d="M443.575 575.614C443.143 579.742 442.812 583.264 439.839 586.514C437.071 589.538 433.205 590.994 429.173 591.2C424.876 591.42 420.515 590.898 416.219 590.716C410.395 590.47 403.809 591.012 398.178 589.585C395.765 588.974 393.546 587.814 391.737 586.094C389.011 583.473 387.438 579.875 387.365 576.094C387.322 572.237 388.826 568.522 391.539 565.78C393.36 563.911 395.683 562.493 398.227 561.875C402.552 560.824 407.396 561.474 411.8 561.574C416.849 561.685 421.898 561.738 426.948 561.732C432.029 562.157 436.785 562.716 440.37 566.884C442.485 569.341 443.319 572.446 443.575 575.614Z" fill="black"/>
<path d="M403.283 570.609C408.392 570.364 428.152 570.247 431.762 572.529C432.74 573.147 433.394 574.109 433.628 575.239C433.904 576.576 433.615 578.448 432.835 579.577C431.905 580.922 430.223 581.331 428.71 581.54C423.916 581.295 402.188 581.04 399.283 579.161C398.263 578.508 397.547 577.474 397.296 576.29C397.073 575.22 397.284 573.961 397.915 573.058C399.115 571.339 401.362 570.912 403.283 570.609Z" fill="#FECA3D"/>
<path d="M282.669 667.113C283.814 662.978 285.68 659.452 289.577 657.281C293.043 655.327 297.168 654.913 300.954 656.137C304.582 657.269 307.592 659.831 309.288 663.233C310.234 665.155 310.675 667.218 310.773 669.348C310.973 673.716 308.395 698.567 307.076 702.256C305.77 705.905 303.255 708.689 299.702 710.298C299.123 710.56 298.519 710.773 297.918 710.98C296.157 711.419 294.501 711.712 292.679 711.552C288.76 711.206 284.876 709.089 282.449 706.007C280.808 703.908 279.767 701.402 279.437 698.757C278.894 694.512 279.966 689.615 280.478 685.374L282.669 667.113Z" fill="black"/>
<path d="M295.261 665.373C295.912 665.288 296.505 665.234 297.161 665.316C298.441 665.474 299.598 666.03 300.334 667.119C300.997 668.1 300.926 669.289 300.919 670.423C300.894 674.942 299.974 679.673 299.491 684.18C298.993 688.84 298.909 693.947 297.839 698.485C297.464 700.076 296.476 700.638 295.169 701.461C294.621 701.561 294.042 701.658 293.484 701.632C292.339 701.58 291.127 701.039 290.407 700.138C289.882 699.482 289.564 698.685 289.494 697.847C289.221 694.682 290.019 690.973 290.361 687.797C290.949 682.334 291.41 676.805 292.194 671.369C292.602 668.543 292.889 667.149 295.261 665.373Z" fill="#FECA3D"/>
<path d="M382.043 607.782C385.836 607.524 389.208 607.777 392.593 609.71C396.211 611.777 399.624 614.403 403.076 616.744C407.803 619.95 416.709 625.09 420.267 629.361C421.261 630.553 421.977 632.473 422.35 633.964C423.281 637.689 422.507 641.628 420.534 644.887C418.367 648.468 414.947 650.426 410.987 651.411C407.473 651.883 404.422 651.553 401.242 649.871C396.381 647.301 391.806 643.802 387.26 640.708C382.925 637.757 377.403 634.783 373.843 630.896C372.48 629.407 371.523 627.48 370.968 625.549C369.876 621.721 370.387 617.614 372.381 614.169C374.558 610.458 378.016 608.743 382.043 607.782Z" fill="black"/>
<path d="M383.161 617.219C383.742 617.171 384.319 617.127 384.902 617.143C385.831 617.167 386.524 617.41 387.342 617.845C390.097 619.31 411.504 633.784 412.325 634.94C412.891 635.736 413.088 636.843 412.938 637.8C412.651 639.639 411.241 640.832 409.799 641.836C409.233 641.945 408.535 642.05 407.962 641.983C405.413 641.687 382.372 626.225 380.735 623.824C380.165 622.988 379.958 621.679 380.178 620.697C380.561 618.986 381.749 618.097 383.161 617.219Z" fill="#FECA3D"/>
<path d="M346.059 643.27C349.234 643.046 352.399 643.835 355.098 645.523C356.901 646.643 358.335 648.19 359.493 649.956C361.766 653.425 371.843 675.686 372.657 679.294C373.521 683.123 372.927 687.601 370.757 690.92C368.472 694.417 364.724 696.293 360.766 697.187C357.307 697.5 353.947 696.916 351.001 694.993C349.226 693.835 347.801 692.267 346.67 690.487C343.934 686.183 334.782 665.015 333.836 660.196C333.085 656.366 333.702 652.041 335.993 648.817C338.394 645.438 342.097 643.903 346.059 643.27Z" fill="black"/>
<path d="M346.197 653.223C346.873 653.204 347.571 653.174 348.237 653.302C349.567 653.561 350.729 654.36 351.447 655.509C353.798 659.193 355.188 664.037 356.968 668.065C358.984 672.622 361.54 677.068 363.202 681.759C363.475 682.531 363.582 683.201 363.368 684.004C362.898 685.775 361.629 686.694 360.099 687.535C359.806 687.545 359.512 687.552 359.219 687.553C357.778 687.559 356.609 687.282 355.598 686.193C353.357 683.779 342.594 658.561 342.997 656.42C343.3 654.814 344.917 653.961 346.197 653.223Z" fill="#FECA3D"/>
<path d="M425.67 821.591C426.341 821.582 427.121 821.575 427.774 821.736C428.522 821.92 429.195 822.495 429.535 823.178C430.108 824.335 429.758 825.919 429.308 827.06C428.281 829.663 426.475 832.151 424.858 834.411C417.323 844.942 407.382 852.686 395.498 857.722C373.303 867.129 348.886 861.519 327.532 852.749C326.15 852.151 324.783 851.641 323.787 850.455C323.208 849.765 322.806 848.964 323.012 848.036C323.209 847.145 323.955 846.202 324.719 845.716C325.356 845.31 326.195 845.144 326.934 845.324C330.107 846.095 333.432 847.907 336.534 849.064C342.996 851.497 349.668 853.331 356.465 854.544C379.623 858.591 401.52 852.355 416.801 833.837C419.144 830.997 423.277 823.208 425.438 821.741C425.514 821.689 425.593 821.64 425.67 821.591Z" fill="black"/>
<path d="M393.218 766.725C394.151 766.592 395.067 766.48 395.984 766.77C396.737 767.007 397.394 767.461 397.709 768.21C398.23 769.449 397.734 771.045 397.234 772.207C393.011 782.032 381.119 790.227 371.506 793.977C353.205 801.116 334.341 797.933 316.807 790.322C316.215 790.072 315.637 789.787 315.077 789.47C314.029 788.881 313.126 788.164 312.901 786.912C312.723 785.919 313.045 784.943 313.74 784.221C314.556 783.371 315.617 783.088 316.748 783.3C319.5 783.814 322.496 785.52 325.152 786.513C333.54 789.646 342.103 791.541 351.11 791.265C363.719 790.878 377.503 786.065 386.044 776.421C388.653 773.475 390.345 769.693 393.032 766.911C393.093 766.848 393.156 766.787 393.218 766.725Z" fill="black"/>
<path d="M381.724 703.396C381.935 703.433 382.147 703.469 382.356 703.515C383.5 703.764 384.482 704.296 385.07 705.349C385.579 706.26 385.479 707.431 385.219 708.397C384.69 710.359 383.555 712.147 382.492 713.859C378.065 720.995 372.367 726.369 364.973 730.402C351.063 737.989 336.843 737.596 321.972 733.293C320.869 732.925 319.86 732.684 319.085 731.773C318.47 731.048 317.937 730.03 318.161 729.057C318.394 728.044 319.551 726.825 320.57 726.586C322.643 726.098 330.437 728.707 333.233 729.116C338.228 729.848 343.282 730.059 348.278 729.217C358.582 727.483 369.889 720.948 375.668 712.105C377.402 709.451 378.605 705.047 381.444 703.54C381.536 703.491 381.63 703.444 381.724 703.396Z" fill="black"/>
<path d="M613.429 747.683C613.45 747.822 613.466 747.963 613.492 748.102C613.809 749.758 615.626 752.303 616.422 753.892C618.391 757.824 620.349 761.765 622.033 765.83C633.294 793.01 633.566 816.394 623.019 843.654C620.284 840.896 617.327 839.013 613.856 837.302C614.339 834.818 614.496 832.308 614.204 829.791C612.935 818.881 604.189 811.934 596.099 805.624C597.714 800.705 598.146 796.302 597.866 791.147C602.962 793.185 609.085 794.28 614.563 794.72C616.506 794.876 618.779 794.755 620.287 793.361C621.178 792.538 621.699 791.286 621.531 790.072C621.08 786.811 618.989 782.688 617.936 779.458C614.661 769.409 612.691 758.281 613.429 747.683Z" fill="#FEE06F"/>
<path d="M406.062 889.36C406.347 889.331 406.634 889.301 406.92 889.289C416.303 888.892 424.495 894.946 428.076 903.417C429.147 905.949 429.661 911.012 431.849 912.64C434.851 914.874 441.215 908.965 443.893 907.542C446.257 906.285 448.815 905.371 451.478 905.025C456.481 904.335 461.548 905.72 465.504 908.858C471.099 913.231 474.258 920.854 473.347 927.93C472.991 930.692 471.883 933.696 472.308 936.478C472.489 937.664 473.02 938.738 474.071 939.391C477.633 941.604 483.134 936.432 486.239 934.864C487.902 934.024 489.552 933.641 491.358 933.27C492.071 939.561 492.605 945.905 493.114 952.217C485.899 953.053 479.556 955.791 474.451 961.09C470.441 965.251 469.031 969.805 469.107 975.518L329.018 975.49L252.268 975.471C251.848 973.837 251.509 972.197 251.504 970.5C251.495 966.675 252.863 962.802 255.592 960.075C257.386 958.282 259.79 957.077 262.272 956.596C272.293 954.657 278.065 963.825 283.218 963.502C284.198 963.441 284.962 962.98 285.595 962.232C287.74 959.703 286.09 954.952 285.911 951.898C285.571 946.081 287.93 940.165 291.784 935.861C299.491 927.255 311.689 926.104 321.907 930.598C324.13 931.575 326.607 934.093 329.113 933.89C335.187 933.397 332.686 923.51 333.292 919.292C333.87 915.264 335.555 911.26 338.136 908.104C341.794 903.63 347.148 901.06 352.867 900.563C363.718 899.618 368.284 904.325 375.969 910.708C377.164 911.7 379.083 912.872 380.723 912.576C383.792 912.022 385.127 906.544 386.36 904.046C387.126 902.497 388.103 901.016 389.152 899.645C393.423 894.059 399.044 890.302 406.062 889.36Z" fill="#82B442"/>
<path d="M403.64 929.844C406.477 929.624 409.543 930.159 412.117 931.344C418.659 934.355 421.354 940.831 423.704 947.155C424.773 946.915 425.938 946.829 427.035 946.868C430.466 946.99 433.778 948.591 436.101 951.1C437.923 953.066 439.695 956.145 439.507 958.921C439.436 959.958 439.041 960.975 438.153 961.584C437.285 962.178 435.978 962.351 434.97 962.076C432.719 961.463 432.109 958.273 430.958 956.533C427.101 950.702 422.289 957.547 419.127 956.629C418.026 956.309 417.394 955.438 416.815 954.518C416.748 953.048 416.776 951.526 416.517 950.075C415.809 946.107 413.748 941.08 410.291 938.802C407.909 937.231 405.049 937.121 402.341 937.789C400.335 938.302 398.473 939.266 396.897 940.608C391.458 945.19 395.007 948.218 392.724 951.644C392.159 952.493 390.981 953.228 389.972 953.36C389.186 953.464 388.434 953.204 387.821 952.721C386.596 951.758 385.942 950.067 385.748 948.563C385.249 944.686 386.932 940.72 389.289 937.729C392.913 933.129 397.87 930.517 403.64 929.844Z" fill="black"/>
<path d="M529.575 673.483C530.077 675.515 530.684 677.475 531.367 679.454C537.183 694.056 548.838 704.059 563.077 710.184C563.875 710.527 564.674 710.879 565.487 711.187C564.803 715.872 564.483 720.63 564.045 725.345C563.793 728.053 563.241 731.023 563.423 733.731C563.507 734.983 563.777 736.367 564.527 737.404C564.994 738.05 565.646 738.552 566.455 738.664C569.128 739.033 572.572 735.489 574.787 734.22C575.933 733.563 577.182 733.209 578.452 732.886C581.818 733.623 584.404 734.817 586.352 737.84C588.957 741.883 588.84 747.084 587.752 751.604C586.093 758.493 581.388 765.554 575.291 769.29C567.566 774.023 560.217 769.337 558.098 770.413C555.863 771.548 554.233 774.962 552.501 776.755C551.025 778.282 549.238 779.657 547.525 780.904C527.306 795.624 503.776 798.633 479.877 792.636C466.805 789.357 453.012 784.823 445.66 772.643C438.942 761.514 439.197 748.449 442.297 736.219C445.077 725.257 450.203 711.375 454.643 700.924C462.261 703.206 469.982 702.144 476.977 698.379C478.274 697.681 479.576 696.859 480.754 695.974C482.203 694.765 483.575 693.469 484.959 692.186C486.157 692.344 487.327 692.437 488.536 692.424C499.001 692.313 511.015 688.131 519.599 682.214C523.272 679.682 526.469 676.663 529.575 673.483Z" fill="#FBAB6C"/>
<path d="M529.575 673.483C530.077 675.515 530.684 677.475 531.367 679.454C531.287 679.482 531.207 679.507 531.129 679.537C529.186 680.286 524.456 684.671 521.891 686.217C510.646 692.993 501.797 695.585 488.819 696.554C486.711 696.712 483.435 697.239 481.47 696.403C481.15 696.267 481.02 696.16 480.754 695.974C482.203 694.765 483.575 693.469 484.959 692.186C486.157 692.344 487.327 692.437 488.536 692.424C499.001 692.313 511.015 688.131 519.599 682.214C523.272 679.682 526.469 676.663 529.575 673.483Z" fill="#F76B4C"/>
<path d="M512.612 742.556C512.468 742.377 512.328 742.194 512.182 742.016C510.723 740.233 509.977 738.418 509.664 736.116C508.928 730.704 510.774 723.439 514.103 719.098C515.998 716.628 518.645 715.046 521.75 714.679C525.68 714.214 529.69 715.712 532.728 718.17C535.643 720.527 538.2 724.197 538.503 727.999C538.667 730.04 538.167 731.821 536.854 733.385C537.41 734.938 536.354 737.923 535.664 739.355C533.928 742.958 530.885 746.332 527.057 747.691C523.775 748.855 520.185 748.269 517.135 746.719C515.39 745.832 513.937 744.781 512.744 743.216L512.612 742.556Z" fill="black"/>
<path d="M512.612 742.556C512.706 742.629 512.799 742.705 512.896 742.775C514.895 744.218 516.861 744.92 519.334 744.408C522.515 743.749 525.035 741.152 526.729 738.512C528.715 735.416 531.399 728.631 528.83 725.361C527.987 724.288 526.269 723.648 526.1 722.227C525.997 721.37 526.315 720.809 526.781 720.144C527.642 719.797 528.122 719.719 528.993 720.1C534.775 722.628 534.577 728.27 536.737 733.134C536.775 733.218 536.815 733.301 536.854 733.385C537.41 734.938 536.354 737.923 535.664 739.355C533.928 742.958 530.885 746.332 527.057 747.691C523.775 748.855 520.185 748.269 517.135 746.719C515.39 745.832 513.936 744.781 512.744 743.216L512.612 742.556Z" fill="#FEFEFE"/>
<path d="M494.36 755.271C494.687 755.251 495.014 755.228 495.342 755.226C499.197 755.199 502.704 756.304 505.412 759.166C508.249 762.196 509.751 766.238 509.581 770.385C509.453 773.608 508.396 776.953 505.907 779.13C502.352 782.24 497.583 781.922 493.207 781.624C488.704 781.289 483.591 780.218 480.022 777.267C478.178 775.742 476.92 773.716 476.763 771.293C476.546 767.921 478.204 764.599 480.337 762.085C483.961 757.815 488.871 755.725 494.36 755.271Z" fill="black"/>
<path d="M497.072 767.958C499.279 767.842 502.319 767.348 504.428 768.053C504.774 768.654 504.835 769.113 504.86 769.792C504.925 771.588 504.772 773.49 503.439 774.835C501.077 777.219 496.885 776.717 493.849 776.629C492.397 776.505 490.904 776.375 489.471 776.114C487.986 775.844 486.501 775.456 485.582 774.183C485.553 773.411 485.571 773.058 486.08 772.444C488.383 769.667 493.656 768.331 497.072 767.958Z" fill="#F76B4C"/>
<path d="M458.598 732.467C457.625 730.49 456.349 729.27 455.661 727.007C454.241 722.329 456.482 715.94 458.768 711.782C460.216 709.149 462.262 706.973 465.241 706.174C468.526 705.293 472.072 706.251 474.884 708.031C477.784 709.868 480.626 712.942 481.361 716.353C481.699 717.921 481.589 718.989 480.749 720.353C481.509 724.06 480.404 728.324 478.369 731.453C476.478 734.361 473.612 736.894 470.15 737.636C467.365 738.233 464.31 737.762 461.947 736.135C460.61 735.215 459.345 733.916 458.598 732.467Z" fill="black"/>
<path d="M458.599 732.467C460.321 733.877 462.083 734.853 464.38 734.687C467.006 734.498 469.144 732.746 470.752 730.787C473.27 727.722 476.359 720.706 474.278 716.872C473.44 715.329 471.461 714.695 471.262 712.81C471.671 712.018 471.874 711.719 472.666 711.237C473.286 711.204 473.779 711.202 474.371 711.415C477.676 712.606 479.397 717.38 480.75 720.353C481.509 724.06 480.405 728.324 478.369 731.453C476.478 734.361 473.612 736.894 470.15 737.636C467.365 738.233 464.311 737.762 461.947 736.135C460.61 735.215 459.345 733.916 458.599 732.467Z" fill="#FEFEFE"/>
<path d="M521.387 693.701C521.751 693.708 522.115 693.718 522.478 693.754C524.698 693.967 526.764 697.105 528.191 698.71C529.076 699.706 529.96 700.766 531.038 701.56C534.457 704.08 541.881 705.348 544.02 708.025C544.574 708.718 544.94 709.597 544.702 710.494C544.299 712.003 542.939 712.951 541.63 713.611C539.836 713.766 538.124 713.742 536.371 713.276C530.771 711.787 521.93 704.854 519.265 699.82C518.668 698.692 518.267 697.304 518.743 696.059C519.221 694.811 520.243 694.249 521.387 693.701Z" fill="black"/>
<path d="M569.415 761.725C569.078 762.177 568.504 762.75 567.956 762.938C567.302 763.162 566.748 763.162 566.148 762.784C565.46 762.35 565.112 761.56 564.972 760.791C564.306 757.131 566.89 751.655 569 748.708C570.617 746.451 573.08 743.897 575.945 743.508C577.158 743.343 577.887 743.682 578.859 744.375C579.699 744.229 580.321 744.112 581.091 744.629C581.748 745.069 582.064 745.812 582.139 746.576C582.484 750.061 579.939 754.238 577.665 756.745C576.159 758.404 572.706 761.717 570.368 761.806C570.001 761.82 569.765 761.774 569.415 761.725Z" fill="black"/>
<path d="M578.859 744.375C579.7 744.229 580.321 744.112 581.092 744.629C581.749 745.069 582.065 745.812 582.14 746.576C582.484 750.061 579.939 754.238 577.665 756.745C576.16 758.404 572.706 761.717 570.369 761.806C570.002 761.82 569.766 761.774 569.416 761.725C570.52 757.636 571.432 753.02 574.794 750.107C575.811 749.226 577.521 748.596 578.332 747.582C579.103 746.619 578.931 745.522 578.859 744.375Z" fill="#F76B4C"/>
<path d="M553.276 713.441C555.888 715.481 558.851 719.875 559.401 723.116C559.726 725.033 559.357 727.026 558.138 728.572C556.651 730.455 554.463 731.098 552.179 731.357C550.242 731.203 548.033 730.555 546.727 729.023C545.762 727.892 545.486 726.447 545.59 724.996C545.94 720.092 549.886 716.525 553.276 713.441Z" fill="#4ECCFD"/>
<path d="M488.48 746.352C488.134 747.324 487.558 748.454 486.538 748.858C485.597 749.231 484.539 749.057 483.696 748.535C482.013 747.492 480.595 744.681 480.191 742.828C479.557 739.918 480.115 737.091 481.769 734.616C482.972 732.815 484.975 730.735 487.209 730.344C488.231 730.165 489.493 730.428 490.287 731.129C491.357 732.074 491.287 733.165 491.373 734.498C492.355 735.948 492.524 738.126 492.194 739.823C491.712 742.312 490.236 744.571 488.48 746.352Z" fill="black"/>
<path d="M488.48 746.352C487.446 744.614 485.551 742 485.776 739.915C486.026 737.586 489.659 736.208 491.19 734.686C491.252 734.624 491.312 734.561 491.373 734.498C492.355 735.949 492.523 738.126 492.194 739.823C491.712 742.312 490.236 744.572 488.48 746.352Z" fill="#F76B4C"/>
<path d="M551.824 741.726C551.983 741.783 552.154 741.817 552.302 741.899C554.595 743.186 557.029 746.889 557.533 749.351C557.812 750.716 557.627 752.159 556.83 753.325C555.764 754.885 554.082 755.128 552.354 755.431C550.654 755.431 548.725 755.168 547.433 753.949C546.625 753.188 546.293 752.16 546.296 751.075C546.305 747.404 549.453 744.205 551.824 741.726Z" fill="#4ECCFD"/>
<path d="M454.921 747.927C456.507 747.472 458.162 748.393 458.611 749.981C459.06 751.569 458.133 753.219 456.543 753.663C454.962 754.104 453.322 753.183 452.875 751.603C452.428 750.024 453.343 748.38 454.921 747.927Z" fill="#F76B4C"/>
<path d="M530.571 752.889C531.591 752.574 532.703 752.834 533.476 753.571C534.25 754.308 534.564 755.405 534.298 756.439C534.032 757.474 533.228 758.284 532.195 758.557C530.644 758.966 529.05 758.06 528.608 756.518C528.167 754.976 529.039 753.363 530.571 752.889Z" fill="#F76B4C"/>
<path d="M513.488 749.998C515.02 749.48 516.684 750.292 517.215 751.82C517.746 753.348 516.946 755.018 515.423 755.561C513.883 756.111 512.189 755.3 511.652 753.755C511.115 752.21 511.939 750.523 513.488 749.998Z" fill="#F76B4C"/>
<path d="M465.914 741.973C467.449 741.588 469.013 742.494 469.441 744.018C469.869 745.543 469.007 747.131 467.495 747.602C466.479 747.918 465.371 747.658 464.603 746.922C463.834 746.185 463.526 745.089 463.799 744.061C464.071 743.032 464.881 742.232 465.914 741.973Z" fill="#F76B4C"/>
<path d="M449.08 737.304C450.527 736.659 452.222 737.298 452.883 738.737C453.545 740.176 452.925 741.879 451.494 742.557C450.553 743.002 449.446 742.907 448.595 742.309C447.743 741.711 447.279 740.7 447.38 739.665C447.48 738.629 448.13 737.727 449.08 737.304Z" fill="#F76B4C"/>
<path d="M520.512 759.354C522.011 758.947 523.557 759.835 523.962 761.335C524.367 762.835 523.477 764.38 521.976 764.783C520.478 765.184 518.937 764.297 518.533 762.799C518.13 761.302 519.015 759.76 520.512 759.354Z" fill="#F76B4C"/>
<path d="M443.124 783.763C456.329 796.44 472.052 800.268 489.536 802.82C490.16 804.182 490.767 805.585 491.513 806.884C495.493 813.821 502.817 817.479 510.304 819.442C520.791 822.19 530.773 820.458 540.063 815.018C548.067 810.331 551.843 803.614 554.163 794.83C564.967 797.474 575.719 802.761 585.237 808.445C581.951 811.886 577.296 814.157 573.601 817.179C570.271 819.904 567.63 823.389 564.253 826.064C561.721 824.906 560.433 823.016 558.2 821.654C557.199 821.045 555.673 820.851 554.543 821.169C553.817 821.372 553.199 821.842 552.882 822.538C552.314 823.784 552.586 825.27 553.094 826.485C554.802 830.568 559.185 832.483 563.027 833.988C560.234 836.683 557.505 839.381 555.104 842.438C552.262 843.28 549.523 844.293 546.891 845.668C539.944 849.295 533.59 855.253 531.236 862.92C529.526 868.49 530.676 873.522 533.359 878.538C534.009 879.529 534.738 880.544 535.559 881.4C538.513 884.482 541.737 884.821 545.755 884.887C547.407 886.104 549.108 887.338 551.081 887.973C554.425 889.05 557.05 887.841 560.016 886.399C563.845 888.357 566.092 888.372 570.114 887.195C568.778 894.401 569.071 902.206 569.254 909.512C566.592 910.633 563.852 911.556 561.055 912.275C544.145 916.691 512.094 918.284 495.739 913.244C492.952 912.385 490.614 911.109 488.106 909.63C493.99 889.296 503.571 867.119 499.677 845.554C497.877 835.593 492.312 824.604 483.731 818.808C481.271 817.147 478.418 815.911 475.764 814.578C471.48 812.465 467.243 810.254 463.059 807.948C454.087 802.955 445.626 797.332 437.175 791.521C439.203 788.97 441.186 786.384 443.124 783.763Z" fill="#F76B4C"/>
<path d="M461.091 636.958C465.52 632.61 470.637 629.156 476.092 626.225C496.96 615.008 522.74 613.172 545.246 620.066C565.375 626.232 586.017 640.248 596.045 659.139C595.811 670.035 596.517 676.382 587.936 684.675C581.478 690.917 573.198 693.398 564.322 693.17C561.542 693.099 554.39 691.54 552.887 691.719C550.842 690.474 548.802 688.177 547.255 686.333C544.083 682.608 541.667 678.301 540.142 673.653C538.895 669.783 539.073 660.995 536.387 658.658C530.454 653.494 522.681 664.842 519.142 668.411C517.04 670.526 514.719 672.411 512.217 674.034C505.541 678.38 497.357 680.993 489.45 681.75C489.674 681.146 489.877 680.534 490.057 679.915C491.329 675.536 490.745 671.258 488.573 667.286C491.423 662.649 492.638 657.098 491.344 651.739C490.474 648.016 488.121 644.809 484.831 642.863C481.35 640.82 477.346 640.568 473.51 641.634C472.825 641.013 472.137 640.385 471.412 639.809C468.408 637.422 464.861 636.577 461.091 636.958Z" fill="#5F4332"/>
<path d="M605.692 845.788C609.177 846.714 612.684 848.574 615.299 851.073C618.971 854.583 620.914 859.561 621.962 864.427C622.961 869.068 623.025 873.895 623.27 878.62L624.251 898.09C625.216 916.581 626.662 935.182 627.093 953.685C627.24 960.011 625.625 966.252 621.104 970.885C615.754 976.366 608.121 975.754 601.07 975.78C597.188 975.379 593.876 974.173 590.906 971.583C587.334 968.468 585.145 963.632 584.112 959.09C582.35 951.347 582.56 939.73 582.118 931.479L578.986 863.13C588.695 858.058 597.337 852.898 605.692 845.788Z" fill="#FEFEFE"/>
<path d="M598.201 858.893L598.604 858.865C600.129 858.774 601.658 858.77 602.82 859.92C603.755 860.845 604.003 861.974 604.188 863.229C604.705 866.743 604.755 870.393 604.975 873.943L606.137 892.409C607.106 907.966 608.453 923.622 608.882 939.196C612.791 941.771 616.184 944.938 617.607 949.553C618.737 953.219 618.431 957.447 616.502 960.797C614.513 964.253 611.341 965.979 607.605 966.942C606.471 967.108 605.273 967.166 604.132 967.066C600.725 966.769 597.491 965.328 595.353 962.6C592.926 959.505 592.135 955.154 592.694 951.317C593.45 946.118 596.56 942.998 600.613 940.077C600.313 932.649 599.637 925.22 599.13 917.804L596.858 883.932C596.504 878.945 594.95 865.93 595.655 861.89C595.893 860.523 597.143 859.623 598.201 858.893Z" fill="black"/>
<path d="M603.851 945.132C604.612 945.065 605.364 944.991 606.097 945.251C608.633 946.147 610.669 947.993 611.701 950.479C612.503 952.41 612.603 954.594 611.747 956.525C610.664 958.966 608.91 959.943 606.549 960.87C605.588 961.015 604.797 961.049 603.835 960.875C602.01 960.545 600.433 959.763 599.429 958.152C598.246 956.255 597.994 953.752 598.593 951.616C599.405 948.72 601.306 946.628 603.851 945.132Z" fill="#F76B4C"/>
<path d="M616.38 879.647C617.402 879.516 618.423 879.564 619.231 880.291C619.799 880.801 620.154 881.399 620.179 882.178C620.2 882.851 619.887 883.466 619.461 883.965C617.849 885.852 615.45 885.74 613.188 885.895C612.317 886.036 611.485 886.045 610.688 885.616C609.993 885.243 609.442 884.648 609.27 883.858C609.083 883 609.414 882.215 609.97 881.578C611.632 879.672 614.071 879.787 616.38 879.647Z" fill="black"/>
<path d="M617.007 897.365C618.311 897.255 619.569 897.033 620.67 897.915C621.255 898.375 621.596 899.08 621.591 899.825C621.585 900.612 621.192 901.438 620.673 902.018C619.582 903.236 618.047 903.207 616.538 903.358C615.192 903.505 613.609 903.829 612.362 903.132C611.55 902.678 611.172 902.074 610.933 901.183C611.021 900.233 611.224 899.652 611.881 898.936C613.274 897.418 615.111 897.492 617.007 897.365Z" fill="black"/>
<path d="M590.104 880.83C590.815 880.829 591.288 880.885 591.886 881.308C592.719 881.896 592.986 882.541 593.151 883.512C593.024 884.117 592.932 884.484 592.529 884.976C590.931 886.931 587.378 886.8 585.132 886.943C584.462 886.91 583.936 886.789 583.402 886.344C582.843 885.876 582.477 885.184 582.437 884.454C582.395 883.69 582.709 882.967 583.214 882.405C584.651 880.808 588.08 880.997 590.104 880.83Z" fill="black"/>
<path d="M590.43 899.431C591.229 899.297 591.922 899.212 592.71 899.526C593.411 899.804 593.908 900.348 594.098 901.079C594.32 901.933 593.967 902.799 593.445 903.465C592.247 904.993 590.511 904.959 588.741 905.166C588.39 905.193 588.04 905.213 587.689 905.236C586.774 905.297 586.063 905.312 585.202 904.937C584.333 904.558 583.908 904.111 583.578 903.206C583.664 902.496 583.791 902.022 584.278 901.471C585.956 899.571 588.096 899.612 590.43 899.431Z" fill="black"/>
<path d="M591.846 917.455C592.662 917.369 593.475 917.323 594.206 917.781C594.823 918.168 595.277 918.66 595.379 919.406C595.482 920.157 595.203 920.872 594.715 921.433C593.187 923.191 591.082 923.08 588.942 923.27C588.167 923.285 587.37 923.334 586.64 923.031C585.668 922.627 585.169 922.117 584.756 921.163C584.838 920.451 584.964 919.997 585.463 919.456C587.195 917.58 589.488 917.635 591.846 917.455Z" fill="black"/>
<path d="M617.234 915.373C618.154 915.283 619.738 914.956 620.608 915.266C621.487 915.579 622.235 916.168 622.49 917.103C622.702 917.882 622.337 918.733 621.843 919.326C620.717 920.676 619.079 920.598 617.475 920.718C616.191 920.959 614.344 921.203 613.243 920.376C612.69 919.96 612.276 919.255 612.284 918.549C612.291 917.834 612.74 916.994 613.24 916.492C614.311 915.418 615.826 915.473 617.234 915.373Z" fill="black"/>
<path d="M461.621 646.107C462.986 645.992 464.514 646.032 465.63 646.943C466.366 647.544 466.663 648.387 466.76 649.298C467.331 654.703 458.677 660.702 455.653 664.196C455.045 664.899 454.617 665.579 454.678 666.534L455.21 666.963C460.622 667.524 467.044 661.576 470.273 657.788C472.143 655.595 474.183 651.806 476.913 650.693C477.864 650.306 478.889 650.283 479.83 650.713C480.814 651.162 481.76 651.995 482.091 653.05C482.637 654.789 481.635 656.845 480.863 658.383C474.314 671.428 459.091 671.542 457.501 675.299C457.339 675.683 457.551 675.82 457.732 676.149C462.852 678.825 473.279 672.113 478.635 673.15C479.488 673.315 480.263 673.766 480.663 674.567C481.104 675.451 481.085 676.795 480.698 677.704C478.517 682.82 454.369 691.599 448.39 693.126C443.99 694.25 438.838 694.054 434.706 695.88C434.594 695.929 434.483 695.981 434.372 696.033C432.771 698.194 431.687 700.511 430.62 702.971C425.959 713.711 422.602 724.769 427.118 736.155C428.461 738.731 429.908 740.894 431.905 743.008C429.491 754.28 432.309 766.861 437.665 776.869C436.273 778.266 434.975 779.743 433.667 781.217C427.668 776.738 421.771 771.998 416.91 766.267C407.487 755.156 402.569 738.486 403.853 724.04C405.58 704.617 416.732 684.733 432.721 673.581C438.83 669.321 446.138 666.186 451.665 661.197C456.646 656.702 458.251 648.928 461.621 646.107Z" fill="url(#paint0_linear_97_30)"/>
<path d="M596.044 659.139C606.994 675.747 609.37 696.779 607.007 716.133C605.679 727.001 603.46 737.651 603.244 748.64C603 761.097 605.259 772.931 609.356 784.661C607.502 784.058 605.655 783.461 603.923 782.556C601.118 781.089 595.407 776.091 592.2 777.588C590.768 778.257 589.937 779.869 589.498 781.31C587.727 787.119 589.323 795.248 589.091 801.399C581.854 797.343 574.746 793.343 566.836 790.69C562.445 789.217 558.022 788.353 553.561 787.193C555.746 785.43 557.919 783.593 559.779 781.482C570.467 782.603 576.879 781.705 585.397 774.745C593.227 768.348 597.956 758.846 598.907 748.8C599.529 742.238 598.033 735.874 593.73 730.784C590.242 726.657 585.472 724.073 580.066 723.658C578.266 723.529 576.456 723.619 574.677 723.926C575.526 719.195 578.361 710.029 575.349 705.871C572.013 701.265 558.618 697.665 552.886 691.719C554.389 691.54 561.541 693.099 564.322 693.17C573.197 693.398 581.477 690.917 587.936 684.675C596.517 676.382 595.811 670.035 596.044 659.139Z" fill="#473125"/>
<path d="M591.991 813.631C595.398 816.373 598.989 819.655 601.523 823.22C603.899 826.562 605.39 830.557 604.616 834.704C602.368 846.738 582.329 854.009 573.023 860.238C572.019 864.503 570.813 866.207 567.657 869.244C568.192 870.522 568.838 871.855 569.23 873.183C569.72 874.842 570.108 877.434 569.066 878.969C568.617 879.631 568.019 879.893 567.262 880.057C566.029 880.326 564.517 879.978 563.483 879.277C559.532 876.601 560.577 871.293 559.502 867.368C559.298 866.624 559.088 866.336 558.441 865.95C558.189 865.987 557.992 866.002 557.75 866.11C554.02 867.78 556.878 876.585 555.647 879.728C555.366 880.447 555.1 880.657 554.423 880.976C553.833 880.923 553.391 880.716 552.902 880.383C550.121 878.492 549.216 876.245 548.62 873.091C548.469 870.422 549.034 867.957 549.145 865.333C549.164 864.903 549.163 864.339 548.841 864.024C548.304 863.5 547.511 863.265 546.775 863.371C543.072 863.904 544.912 875.613 543.749 877.319C543.652 877.324 543.555 877.341 543.458 877.333C542.638 877.268 541.67 876.665 541.1 876.087C539.207 874.167 538.186 870.897 538.247 868.245C538.427 860.377 545.695 853.584 552.501 850.665C554.925 849.626 558.067 849.234 560.186 847.67C562.335 846.083 564.105 843.608 566.002 841.705C568.757 838.94 571.78 836.369 574.863 833.975C578.312 831.296 583.302 829.897 586.199 827.182C586.445 826.508 586.531 825.717 586.242 825.031C585.964 824.369 585.46 823.904 584.787 823.656C582.28 822.729 578.634 824.782 576.396 825.818C581.664 820.533 586.729 818.258 591.991 813.631Z" fill="#FBAB6C"/>
<path d="M642.532 944.013C645.325 943.696 648.509 944.233 650.959 945.64C658.164 949.775 655.545 956.015 657.148 961.634C658.265 965.55 662.682 964.567 665.83 964.951C668.078 965.225 670.443 965.903 672.376 967.095C675.488 969.014 677.019 972.087 677.899 975.507L666.884 975.463L631.674 975.495C638.267 965.008 637.924 957.057 637.109 945.221C638.912 944.707 640.682 944.323 642.532 944.013Z" fill="#82B442"/>
<path d="M494.047 962.294C499.665 961.851 504.831 963.478 509.694 966.236C513.785 968.556 516.256 971.198 517.5 975.805L503.818 975.791C496.07 975.796 488.263 975.987 480.524 975.692C479.967 975.326 479.943 975.217 479.821 974.549C479.507 972.843 480.771 969.895 481.724 968.539C484.221 964.986 489.998 963.152 494.047 962.294Z" fill="#473125"/>
<path d="M540.625 962.899C541.214 962.868 541.804 962.844 542.393 962.827C547.872 962.675 555.837 964.364 559.846 968.355C561.969 970.467 561.867 973.037 561.882 975.817L549.774 975.793L528.437 975.826C528.939 973.052 529.39 970.422 531.08 968.065C533.372 964.868 536.906 963.566 540.625 962.899Z" fill="#473125"/>
<path d="M546.456 792.021C546.564 792.101 546.676 792.174 546.778 792.261C547.318 792.725 547.553 793.181 547.621 793.892C547.983 797.646 544.974 802.448 542.619 805.237C537.69 811.072 529.498 814.231 522.033 814.85C514.302 815.49 506.026 812.699 500.135 807.695C498.854 806.378 497.876 804.966 496.861 803.444C499.52 803.651 502.212 803.672 504.879 803.766C507.262 805.662 509.961 807.124 512.851 808.084C518.915 810.155 525.133 809.999 530.913 807.134C536.266 804.481 539.829 800.403 541.706 794.752C543.324 793.933 544.887 792.933 546.456 792.021Z" fill="#FEFEFE"/>
<path d="M542.422 925.201C547.948 924.946 553.443 924.229 558.85 923.057C559.007 926.373 559.416 929.717 559.718 933.025C559.853 934.672 560.024 936.316 560.231 937.956C554.77 938.002 549.355 938.341 543.906 938.646L543.478 934.833C542.948 931.684 542.759 928.384 542.422 925.201Z" fill="#F76B4C"/>
<path d="M543.478 934.834C543.534 934.19 543.599 933.546 543.672 932.904C547.983 931.497 554.529 934.352 559.717 933.025C559.853 934.672 560.024 936.317 560.231 937.956C554.77 938.002 549.355 938.341 543.906 938.646L543.478 934.834Z" fill="#FBAB6C"/>
<path d="M500.068 924.877C505.688 925.717 511.155 926.231 516.844 926.209C517.031 928.794 517.257 931.375 517.52 933.953C517.648 935.492 517.81 937.039 517.9 938.581C512.394 938.634 506.822 938.742 501.335 939.199C501.159 937.746 501.003 936.289 500.868 934.831C500.382 931.598 500.327 928.146 500.068 924.877Z" fill="#F76B4C"/>
<path d="M500.868 934.83L501.171 933.752C501.759 933.42 507.884 934.519 509.101 934.587C511.767 934.736 514.957 934.744 517.52 933.952C517.648 935.492 517.809 937.039 517.9 938.581C512.393 938.634 506.821 938.742 501.334 939.199C501.158 937.746 501.003 936.289 500.868 934.83Z" fill="#FBAB6C"/>
<path d="M526.996 926.271L533.11 926.064C534.017 932.269 534.806 938.49 535.476 944.724C535.794 947.613 536.369 950.712 536.136 953.611C535.559 954.335 534.746 954.495 533.9 954.842C532.457 955.341 531.099 956.075 529.73 956.748C528.584 946.635 528.003 936.41 526.996 926.271Z" fill="#FECA3D"/>
<path d="M518.39 945.549L518.623 945.581C519.497 946.741 519.567 958.901 519.625 961.064C516.268 958.563 512.889 956.446 509.062 954.739C506.86 953.914 504.567 953.374 502.38 952.497C502.179 950.277 502.003 948.056 501.852 945.833C507.362 945.611 512.879 945.817 518.39 945.549Z" fill="#FEFEFE"/>
<path d="M557.375 945.272C558.392 945.19 559.538 944.962 560.484 945.398C561.349 949.185 561.055 953.439 561.537 957.336C558.502 955.726 555.504 954.754 552.186 953.878C550.001 953.488 547.785 953.251 545.583 952.974C545.187 950.569 544.956 948.127 544.673 945.706C548.911 945.701 553.147 945.556 557.375 945.272Z" fill="#FEFEFE"/>
<path d="M570.334 920.763C571.318 921.402 571.277 928.68 571.356 930.074C572.007 941.497 571.841 955.959 574.852 966.883C575.711 969.999 578.291 972.455 579.085 975.38L578.483 975.506L572.488 975.477C572.427 968.247 568.407 923.107 569.002 921.359L570.334 920.763Z" fill="url(#paint1_linear_97_30)"/>
<path d="M438.664 709.841L441.735 713.886C439.784 718.457 437.768 722.965 435.994 727.612L435.516 728.745L435.221 728.553C433.856 722.273 436.389 715.594 438.664 709.841Z" fill="#FEE06F"/>
<path d="M482.01 920.054C484.085 920.867 489.887 922.107 491.063 923.795L490.783 924.226L489.721 924.452C487.172 924.895 484.822 925.65 482.405 926.554C482.417 924.387 482.184 922.213 482.01 920.054Z" fill="#FECA3D"/>
<path d="M531.031 798.885C531.281 799.065 531.177 798.936 531.258 799.33C526.919 803.161 522.684 803.467 517.19 803.169L516.843 802.808C518.254 801.928 520.955 801.93 522.65 801.497C525.514 800.767 528.285 799.987 531.031 798.885Z" fill="#FBAB6C"/>
<path d="M185.227 489.664C188.802 489.452 191.702 489.662 194.995 491.243C200.632 493.949 219.292 503.424 223.135 506.948C224.784 508.46 226.006 510.707 226.693 512.818C227.927 516.603 227.593 520.94 225.653 524.438C223.554 528.222 220.021 530.065 216.043 531.277C213.816 531.56 211.867 531.622 209.658 531.041C204.636 529.72 187.715 519.975 182.284 516.871C178.265 514.574 175.028 511.962 173.835 507.241C172.835 503.328 173.496 499.176 175.661 495.767C177.908 492.277 181.257 490.456 185.227 489.664Z" fill="black"/>
<path d="M186.435 498.761C187.058 498.746 187.686 498.74 188.303 498.835C190.643 499.193 211.325 510.576 214.365 512.456C215.325 513.049 216.463 513.717 217.089 514.676C217.696 515.601 217.9 516.733 217.655 517.812C217.272 519.485 216.08 520.53 214.712 521.437C214.04 521.488 213.321 521.557 212.651 521.464C211.012 521.238 189.765 509.988 186.883 508.219C185.883 507.605 184.734 506.903 184.067 505.92C183.324 504.824 183.077 503.506 183.426 502.226C183.906 500.462 184.893 499.626 186.435 498.761Z" fill="#FECA3D"/>
<path d="M170.426 552.586C176.083 552.205 181.929 552.474 187.605 552.463C192.5 552.453 198.041 551.938 202.842 552.766C205.086 553.152 207.122 553.929 208.991 555.245C212.079 557.412 214.125 560.766 214.638 564.503C215.207 568.354 214.22 572.273 211.896 575.395C209.259 578.906 205.805 580.46 201.588 581.111C195.338 581.134 189.089 581.215 182.841 581.351C178.775 581.433 174.461 581.803 170.432 581.276C168.343 581.002 166.376 580.394 164.543 579.351C161.195 577.462 158.777 574.273 157.862 570.539C156.925 566.662 157.657 562.568 159.881 559.256C162.436 555.389 166.029 553.544 170.426 552.586Z" fill="black"/>
<path d="M195.781 562.405C198.466 562.297 201.339 561.914 203.574 563.772C204.401 564.461 205.095 565.542 205.126 566.648C205.16 567.864 204.72 568.927 203.851 569.771C202.856 570.736 201.591 571.104 200.25 571.296C197.333 571.711 194.093 571.45 191.14 571.436C186.14 571.405 181.138 571.414 176.137 571.463C173.958 571.527 170.602 571.962 168.864 570.43C167.896 569.576 167.299 568.303 167.3 567.008C167.3 565.813 167.759 564.626 168.628 563.795C169.333 563.122 170.144 562.78 171.098 562.629C173.986 562.172 177.24 562.488 180.166 562.49L195.781 562.405Z" fill="#FECA3D"/>
<path d="M211.55 603.093C214.42 602.902 217.28 603.606 219.734 605.109C223 607.134 225.324 610.377 226.192 614.121C227.082 617.893 226.399 622.3 224.173 625.514C223.141 627.004 221.559 628.314 220.109 629.397C216.123 632.374 211.55 634.837 207.297 637.447C202.856 640.172 198.355 643.326 193.638 645.534C191.936 646.33 190.389 646.709 188.554 646.999C185.694 647.113 182.923 646.421 180.494 644.893C177.095 642.753 174.435 638.977 173.64 635.039C172.899 631.37 173.83 627.687 175.999 624.663C177.006 623.26 178.249 622.058 179.626 621.023C183.801 617.884 188.637 615.384 193.107 612.666C197.469 610.013 201.798 606.866 206.412 604.685C208.102 603.886 209.709 603.406 211.55 603.093Z" fill="black"/>
<path d="M212.26 612.746C212.934 612.799 213.684 612.962 214.305 613.234C215.403 613.714 216.145 614.688 216.546 615.792C216.96 616.93 216.925 618.023 216.394 619.115C215.891 620.15 215.042 620.909 214.143 621.599C210.423 624.454 191.971 635.932 188.22 637.11C187.683 637.06 187.179 636.982 186.67 636.798C185.403 636.34 184.291 635.262 183.731 634.041C183.266 633.025 183.202 631.947 183.636 630.908C183.99 630.057 184.581 629.404 185.301 628.839C188.568 626.275 192.729 624.209 196.301 622.047C201.371 618.977 206.812 615.02 212.26 612.746Z" fill="#FECA3D"/>
<path d="M378.502 448.573C381.992 448.234 385.362 449.074 388.261 451.058C391.526 453.292 393.853 456.48 394.539 460.433C395.326 464.969 393.784 468.481 391.288 472.115C388.144 476.691 375.269 494.325 371.353 497.156C369.453 498.531 367.314 499.123 365.051 499.549C361.943 499.853 358.925 499.279 356.212 497.692C352.664 495.657 350.12 492.239 349.19 488.256C348.247 484.084 349.293 480.698 351.544 477.221C354.709 472.332 367.615 454.635 371.567 451.461C373.607 449.823 375.994 449.102 378.502 448.573Z" fill="black"/>
<path d="M379.304 458.285C380.068 458.244 380.86 458.184 381.601 458.406C382.827 458.773 384.071 459.71 384.644 460.868C385.154 461.897 385.161 463.208 384.794 464.284C383.899 466.909 369.26 485.481 366.626 488.173C365.982 488.831 365.252 489.293 364.449 489.73C363.819 489.724 363.179 489.723 362.556 489.613C361.301 489.391 359.955 488.565 359.275 487.47C358.74 486.608 358.55 485.281 358.841 484.313C359.898 480.808 373.818 463.315 376.988 460.04C377.685 459.32 378.446 458.793 379.304 458.285Z" fill="#FECA3D"/>
<path d="M235.68 441.214C238.254 440.982 241.038 441.584 243.311 442.79C245 443.686 246.385 444.955 247.572 446.443C250.998 450.737 253.583 456.062 256.444 460.764C258.81 464.652 261.528 468.4 263.693 472.397C264.337 473.586 264.915 474.832 265.274 476.14C266.321 479.942 265.65 484.36 263.589 487.71C261.274 491.474 257.829 493.36 253.644 494.314C249.924 494.571 246.692 494.236 243.52 492.12C241.954 491.076 240.724 489.762 239.613 488.26C236.728 484.358 234.534 479.693 232.092 475.485C229.655 471.285 226.79 467.095 224.721 462.713C224.025 461.241 223.46 459.708 223.182 458.099C222.528 454.309 223.314 450.471 225.578 447.346C228.135 443.818 231.431 441.972 235.68 441.214Z" fill="black"/>
<path d="M235.39 451.236C236.106 451.149 236.866 451.029 237.586 451.092C238.789 451.197 239.479 451.812 240.205 452.713C242.979 456.157 245.155 460.41 247.457 464.204C250.109 468.577 253.225 473.042 255.332 477.687C255.75 478.607 256.116 479.449 255.984 480.471C255.763 482.191 254.506 483.27 253.221 484.276C252.324 484.519 251.435 484.644 250.503 484.531C249.484 484.408 248.756 483.931 248.121 483.134C245.502 479.849 234.954 461.254 233.336 457.21C232.976 456.309 232.741 455.57 232.897 454.588C233.146 453.017 234.184 452.143 235.39 451.236Z" fill="#FECA3D"/>
<path d="M310.252 427.597C313.56 427.327 316.954 427.901 319.767 429.746C323.052 431.899 325.13 435.522 325.798 439.35C326.581 443.83 323.195 467.382 321.722 472.565C321.199 474.402 320.374 476.207 319.266 477.766C316.821 481.205 313.291 482.916 309.226 483.591C306.196 483.886 302.892 483.231 300.265 481.683C297.035 479.78 294.86 476.304 293.975 472.712C293.557 471.012 293.455 469.301 293.543 467.56C293.796 462.616 294.949 457.555 295.648 452.646C296.285 448.179 296.527 443.488 297.652 439.124C298.087 437.387 298.796 435.73 299.753 434.217C302.234 430.368 305.91 428.523 310.252 427.597Z" fill="black"/>
<path d="M310.818 437.263C311.432 437.256 312.078 437.239 312.682 437.358C313.841 437.587 314.994 438.313 315.63 439.314C316.398 440.522 316.351 441.986 316.311 443.367C316.177 447.932 315.1 452.572 314.427 457.09C313.773 461.482 313.447 466.36 312.211 470.615C311.727 472.282 310.808 472.986 309.33 473.785C308.548 473.776 307.723 473.793 306.956 473.624C305.706 473.348 304.582 472.635 303.946 471.507C303.348 470.447 303.478 469.087 303.546 467.904C303.831 462.914 304.95 457.812 305.684 452.861C306.263 448.957 306.474 444.435 307.631 440.701C308.179 438.933 309.25 438.121 310.818 437.263Z" fill="#FECA3D"/>
<path d="M416.029 499.085C419.555 498.855 422.602 499.465 425.6 501.419C428.834 503.526 431.156 506.767 431.9 510.574C432.626 514.288 431.702 517.957 429.594 521.059C428.631 522.476 427.399 523.54 426.018 524.529C420.804 528.269 400.604 539.278 394.83 540.369C391.353 540.519 388.303 540.101 385.3 538.214C382.119 536.216 379.684 532.949 378.852 529.269C377.997 525.483 378.85 521.493 380.991 518.277C382.089 516.627 383.67 515.355 385.29 514.237C388.773 511.835 392.842 509.984 396.585 508.016C402.6 504.855 409.302 500.412 416.029 499.085Z" fill="black"/>
<path d="M417.475 508.549C418.12 508.672 418.805 508.784 419.414 509.038C420.617 509.54 421.684 510.747 422.167 511.944C422.57 512.944 422.448 514.062 421.949 515.002C421.432 515.98 420.667 516.67 419.75 517.27C416.382 519.474 396.987 529.521 393.718 530.542C392.983 530.507 392.186 530.465 391.49 530.212C390.491 529.848 389.564 529.163 389.167 528.146C388.685 526.91 388.599 525.436 389.191 524.226C389.812 522.956 391.066 522.028 392.212 521.26C396.061 518.675 400.551 516.803 404.706 514.731C408.899 512.641 413.108 510.239 417.475 508.549Z" fill="#FECA3D"/>
<path d="M246.134 640.3C249.212 640.143 252.018 640.563 254.75 642.086C258.024 643.912 260.583 647.046 261.585 650.671C262.67 654.6 261.82 658.286 259.79 661.725C257.18 666.145 243.298 685.21 239.557 688.296C237.56 689.942 235.47 690.739 233.01 691.388C229.628 691.846 226.192 691.086 223.319 689.244C220.096 687.226 217.825 683.993 217.019 680.278C216.024 675.805 217.346 672.089 219.77 668.393C222.926 663.578 235.714 645.927 239.297 643.108C241.297 641.533 243.68 640.798 246.134 640.3Z" fill="black"/>
<path d="M247.035 649.969C247.604 650.025 248.184 650.077 248.743 650.197C249.958 650.457 251.142 651.306 251.755 652.387C252.357 653.448 252.404 654.8 251.984 655.931C251.175 658.108 236.628 677.921 234.422 680.189C233.719 680.911 232.917 681.315 232 681.708C231.247 681.67 230.439 681.654 229.721 681.411C228.478 680.99 227.293 680.075 226.789 678.842C226.377 677.834 226.41 676.435 226.862 675.446C228.267 672.37 241.971 654.024 244.583 651.409C245.295 650.697 246.108 650.329 247.035 649.969Z" fill="#FECA3D"/>
<defs>
<linearGradient id="paint0_linear_97_30" x1="477.091" y1="738.289" x2="423.089" y2="682.026" gradientUnits="userSpaceOnUse">
<stop stop-color="#F69865"/>
<stop offset="1" stop-color="#FDB26F"/>
</linearGradient>
<linearGradient id="paint1_linear_97_30" x1="567.817" y1="947.861" x2="579.255" y2="948.49" gradientUnits="userSpaceOnUse">
<stop stop-color="#92CF44"/>
<stop offset="1" stop-color="#7DAD48"/>
</linearGradient>
</defs>
</svg>
