<svg width="250" height="42" viewBox="0 0 250 42" fill="none" xmlns="http://www.w3.org/2000/svg">
<mask id="path-1-outside-1_164_186" maskUnits="userSpaceOnUse" x="0" y="0" width="250" height="42" fill="black">
<rect fill="white" width="250" height="42"/>
<path d="M12.52 31.28H30.04V38H3.88V4.4H12.52V31.28ZM61.0113 13.52C61.0113 11.6 60.0513 10.64 58.1313 10.64H49.9713C48.0513 10.64 47.0913 11.6 47.0913 13.52V28.88C47.0913 30.8 48.0513 31.76 49.9713 31.76H58.1313C60.0513 31.76 61.0113 30.8 61.0113 28.88V13.52ZM69.6513 28.88C69.6513 32.24 68.8833 34.688 67.3473 36.224C65.8433 37.728 63.4113 38.48 60.0513 38.48H48.0513C44.6913 38.48 42.2433 37.728 40.7073 36.224C39.2033 34.688 38.4513 32.24 38.4513 28.88V13.52C38.4513 10.16 39.2033 7.728 40.7073 6.224C42.2433 4.688 44.6913 3.92 48.0513 3.92H60.0513C63.4113 3.92 65.8433 4.688 67.3473 6.224C68.8833 7.728 69.6513 10.16 69.6513 13.52V28.88ZM96.7938 38H88.1538V11.12H78.0738V4.4H106.874V11.12H96.7938V38ZM132.559 38H123.919V11.12H113.839V4.4H142.639V11.12H132.559V38ZM167.845 38H150.565V31.28H154.885V11.12H150.565V4.4H167.845V11.12H163.525V31.28H167.845V38ZM186.801 38H178.161V4.4H204.801V11.12H186.801V19.04H200.961V25.76H186.801V38ZM210.321 4.4H219.441L227.361 20.72L235.281 4.4H244.401L231.681 29.12V38H223.041V29.12L210.321 4.4Z"/>
</mask>
<path d="M12.52 31.28H30.04V38H3.88V4.4H12.52V31.28ZM61.0113 13.52C61.0113 11.6 60.0513 10.64 58.1313 10.64H49.9713C48.0513 10.64 47.0913 11.6 47.0913 13.52V28.88C47.0913 30.8 48.0513 31.76 49.9713 31.76H58.1313C60.0513 31.76 61.0113 30.8 61.0113 28.88V13.52ZM69.6513 28.88C69.6513 32.24 68.8833 34.688 67.3473 36.224C65.8433 37.728 63.4113 38.48 60.0513 38.48H48.0513C44.6913 38.48 42.2433 37.728 40.7073 36.224C39.2033 34.688 38.4513 32.24 38.4513 28.88V13.52C38.4513 10.16 39.2033 7.728 40.7073 6.224C42.2433 4.688 44.6913 3.92 48.0513 3.92H60.0513C63.4113 3.92 65.8433 4.688 67.3473 6.224C68.8833 7.728 69.6513 10.16 69.6513 13.52V28.88ZM96.7938 38H88.1538V11.12H78.0738V4.4H106.874V11.12H96.7938V38ZM132.559 38H123.919V11.12H113.839V4.4H142.639V11.12H132.559V38ZM167.845 38H150.565V31.28H154.885V11.12H150.565V4.4H167.845V11.12H163.525V31.28H167.845V38ZM186.801 38H178.161V4.4H204.801V11.12H186.801V19.04H200.961V25.76H186.801V38ZM210.321 4.4H219.441L227.361 20.72L235.281 4.4H244.401L231.681 29.12V38H223.041V29.12L210.321 4.4Z" fill="#F8D342"/>
<path d="M12.52 31.28H9.52V34.28H12.52V31.28ZM30.04 31.28H33.04V28.28H30.04V31.28ZM30.04 38V41H33.04V38H30.04ZM3.88 38H0.88V41H3.88V38ZM3.88 4.4V1.4H0.88V4.4H3.88ZM12.52 4.4H15.52V1.4H12.52V4.4ZM12.52 31.28V34.28H30.04V31.28V28.28H12.52V31.28ZM30.04 31.28H27.04V38H30.04H33.04V31.28H30.04ZM30.04 38V35H3.88V38V41H30.04V38ZM3.88 38H6.88V4.4H3.88H0.88V38H3.88ZM3.88 4.4V7.4H12.52V4.4V1.4H3.88V4.4ZM12.52 4.4H9.52V31.28H12.52H15.52V4.4H12.52ZM67.3473 36.224L65.2259 34.1027L65.2259 34.1027L67.3473 36.224ZM40.7073 36.224L38.5637 38.3229L38.5858 38.3454L38.6084 38.3675L40.7073 36.224ZM40.7073 6.224L38.5859 4.10268L38.5859 4.10268L40.7073 6.224ZM67.3473 6.224L65.2037 8.32287L65.2258 8.34543L65.2484 8.36753L67.3473 6.224ZM61.0113 13.52H64.0113C64.0113 12.0976 63.6536 10.4797 62.4126 9.23868C61.1715 7.99764 59.5537 7.64 58.1313 7.64V10.64V13.64C58.2474 13.64 58.3294 13.6473 58.382 13.6548C58.4344 13.6623 58.4519 13.6692 58.4426 13.666C58.4323 13.6626 58.3955 13.6491 58.3428 13.6175C58.2889 13.5852 58.2287 13.54 58.1699 13.4813C58.1112 13.4226 58.0661 13.3623 58.0338 13.3085C58.0021 13.2557 57.9886 13.219 57.9852 13.2087C57.9821 13.1993 57.9889 13.2169 57.9964 13.2693C58.0039 13.3219 58.0113 13.4038 58.0113 13.52H61.0113ZM58.1313 10.64V7.64H49.9713V10.64V13.64H58.1313V10.64ZM49.9713 10.64V7.64C48.5488 7.64 46.931 7.99764 45.6899 9.23868C44.4489 10.4797 44.0913 12.0976 44.0913 13.52H47.0913H50.0913C50.0913 13.4038 50.0986 13.3219 50.1061 13.2693C50.1136 13.2169 50.1204 13.1993 50.1173 13.2087C50.1139 13.219 50.1004 13.2557 50.0687 13.3085C50.0364 13.3623 49.9913 13.4226 49.9326 13.4813C49.8739 13.54 49.8136 13.5852 49.7597 13.6175C49.707 13.6491 49.6702 13.6626 49.6599 13.666C49.6506 13.6692 49.6681 13.6623 49.7205 13.6548C49.7731 13.6473 49.8551 13.64 49.9713 13.64V10.64ZM47.0913 13.52H44.0913V28.88H47.0913H50.0913V13.52H47.0913ZM47.0913 28.88H44.0913C44.0913 30.3024 44.4489 31.9203 45.6899 33.1613C46.931 34.4024 48.5488 34.76 49.9713 34.76V31.76V28.76C49.8551 28.76 49.7731 28.7527 49.7205 28.7452C49.6681 28.7377 49.6506 28.7308 49.6599 28.7339C49.6702 28.7374 49.707 28.7509 49.7597 28.7825C49.8136 28.8148 49.8739 28.86 49.9326 28.9187C49.9913 28.9774 50.0364 29.0377 50.0687 29.0915C50.1004 29.1443 50.1139 29.181 50.1173 29.1913C50.1204 29.2007 50.1136 29.1831 50.1061 29.1307C50.0986 29.0781 50.0913 28.9961 50.0913 28.88H47.0913ZM49.9713 31.76V34.76H58.1313V31.76V28.76H49.9713V31.76ZM58.1313 31.76V34.76C59.5537 34.76 61.1715 34.4024 62.4126 33.1613C63.6536 31.9203 64.0113 30.3024 64.0113 28.88H61.0113H58.0113C58.0113 28.9961 58.0039 29.0781 57.9964 29.1307C57.9889 29.1831 57.9821 29.2007 57.9852 29.1913C57.9886 29.181 58.0021 29.1443 58.0338 29.0915C58.0661 29.0377 58.1112 28.9774 58.1699 28.9187C58.2287 28.86 58.2889 28.8148 58.3428 28.7825C58.3955 28.7509 58.4323 28.7374 58.4426 28.7339C58.4519 28.7308 58.4344 28.7377 58.382 28.7452C58.3294 28.7527 58.2474 28.76 58.1313 28.76V31.76ZM61.0113 28.88H64.0113V13.52H61.0113H58.0113V28.88H61.0113ZM69.6513 28.88H66.6513C66.6513 31.869 65.9572 33.3714 65.2259 34.1027L67.3473 36.224L69.4686 38.3453C71.8093 36.0046 72.6513 32.611 72.6513 28.88H69.6513ZM67.3473 36.224L65.2259 34.1027C64.5365 34.7921 63.0619 35.48 60.0513 35.48V38.48V41.48C63.7606 41.48 67.15 40.6639 69.4686 38.3453L67.3473 36.224ZM60.0513 38.48V35.48H48.0513V38.48V41.48H60.0513V38.48ZM48.0513 38.48V35.48C45.048 35.48 43.5361 34.7952 42.8061 34.0805L40.7073 36.224L38.6084 38.3675C40.9504 40.6608 44.3345 41.48 48.0513 41.48V38.48ZM40.7073 36.224L42.8508 34.1251C42.1361 33.3952 41.4513 31.8833 41.4513 28.88H38.4513H35.4513C35.4513 32.5967 36.2704 35.9808 38.5637 38.3229L40.7073 36.224ZM38.4513 28.88H41.4513V13.52H38.4513H35.4513V28.88H38.4513ZM38.4513 13.52H41.4513C41.4513 10.5094 42.1391 9.03478 42.8286 8.34532L40.7073 6.224L38.5859 4.10268C36.2674 6.42121 35.4513 9.8106 35.4513 13.52H38.4513ZM40.7073 6.224L42.8286 8.34532C43.5598 7.61406 45.0623 6.92 48.0513 6.92V3.92V0.919998C44.3202 0.919998 40.9267 1.76193 38.5859 4.10268L40.7073 6.224ZM48.0513 3.92V6.92H60.0513V3.92V0.919998H48.0513V3.92ZM60.0513 3.92V6.92C63.0474 6.92 64.5126 7.61703 65.2037 8.32287L67.3473 6.224L69.4908 4.12512C67.1739 1.75896 63.7751 0.919998 60.0513 0.919998V3.92ZM67.3473 6.224L65.2484 8.36753C65.9542 9.05866 66.6513 10.5239 66.6513 13.52H69.6513H72.6513C72.6513 9.79612 71.8123 6.39733 69.4461 4.08047L67.3473 6.224ZM69.6513 13.52H66.6513V28.88H69.6513H72.6513V13.52H69.6513ZM96.7938 38V41H99.7938V38H96.7938ZM88.1538 38H85.1538V41H88.1538V38ZM88.1538 11.12H91.1538V8.12H88.1538V11.12ZM78.0738 11.12H75.0738V14.12H78.0738V11.12ZM78.0738 4.4V1.4H75.0738V4.4H78.0738ZM106.874 4.4H109.874V1.4H106.874V4.4ZM106.874 11.12V14.12H109.874V11.12H106.874ZM96.7938 11.12V8.12H93.7938V11.12H96.7938ZM96.7938 38V35H88.1538V38V41H96.7938V38ZM88.1538 38H91.1538V11.12H88.1538H85.1538V38H88.1538ZM88.1538 11.12V8.12H78.0738V11.12V14.12H88.1538V11.12ZM78.0738 11.12H81.0738V4.4H78.0738H75.0738V11.12H78.0738ZM78.0738 4.4V7.4H106.874V4.4V1.4H78.0738V4.4ZM106.874 4.4H103.874V11.12H106.874H109.874V4.4H106.874ZM106.874 11.12V8.12H96.7938V11.12V14.12H106.874V11.12ZM96.7938 11.12H93.7938V38H96.7938H99.7938V11.12H96.7938ZM132.559 38V41H135.559V38H132.559ZM123.919 38H120.919V41H123.919V38ZM123.919 11.12H126.919V8.12H123.919V11.12ZM113.839 11.12H110.839V14.12H113.839V11.12ZM113.839 4.4V1.4H110.839V4.4H113.839ZM142.639 4.4H145.639V1.4H142.639V4.4ZM142.639 11.12V14.12H145.639V11.12H142.639ZM132.559 11.12V8.12H129.559V11.12H132.559ZM132.559 38V35H123.919V38V41H132.559V38ZM123.919 38H126.919V11.12H123.919H120.919V38H123.919ZM123.919 11.12V8.12H113.839V11.12V14.12H123.919V11.12ZM113.839 11.12H116.839V4.4H113.839H110.839V11.12H113.839ZM113.839 4.4V7.4H142.639V4.4V1.4H113.839V4.4ZM142.639 4.4H139.639V11.12H142.639H145.639V4.4H142.639ZM142.639 11.12V8.12H132.559V11.12V14.12H142.639V11.12ZM132.559 11.12H129.559V38H132.559H135.559V11.12H132.559ZM167.845 38V41H170.845V38H167.845ZM150.565 38H147.565V41H150.565V38ZM150.565 31.28V28.28H147.565V31.28H150.565ZM154.885 31.28V34.28H157.885V31.28H154.885ZM154.885 11.12H157.885V8.12H154.885V11.12ZM150.565 11.12H147.565V14.12H150.565V11.12ZM150.565 4.4V1.4H147.565V4.4H150.565ZM167.845 4.4H170.845V1.4H167.845V4.4ZM167.845 11.12V14.12H170.845V11.12H167.845ZM163.525 11.12V8.12H160.525V11.12H163.525ZM163.525 31.28H160.525V34.28H163.525V31.28ZM167.845 31.28H170.845V28.28H167.845V31.28ZM167.845 38V35H150.565V38V41H167.845V38ZM150.565 38H153.565V31.28H150.565H147.565V38H150.565ZM150.565 31.28V34.28H154.885V31.28V28.28H150.565V31.28ZM154.885 31.28H157.885V11.12H154.885H151.885V31.28H154.885ZM154.885 11.12V8.12H150.565V11.12V14.12H154.885V11.12ZM150.565 11.12H153.565V4.4H150.565H147.565V11.12H150.565ZM150.565 4.4V7.4H167.845V4.4V1.4H150.565V4.4ZM167.845 4.4H164.845V11.12H167.845H170.845V4.4H167.845ZM167.845 11.12V8.12H163.525V11.12V14.12H167.845V11.12ZM163.525 11.12H160.525V31.28H163.525H166.525V11.12H163.525ZM163.525 31.28V34.28H167.845V31.28V28.28H163.525V31.28ZM167.845 31.28H164.845V38H167.845H170.845V31.28H167.845ZM186.801 38V41H189.801V38H186.801ZM178.161 38H175.161V41H178.161V38ZM178.161 4.4V1.4H175.161V4.4H178.161ZM204.801 4.4H207.801V1.4H204.801V4.4ZM204.801 11.12V14.12H207.801V11.12H204.801ZM186.801 11.12V8.12H183.801V11.12H186.801ZM186.801 19.04H183.801V22.04H186.801V19.04ZM200.961 19.04H203.961V16.04H200.961V19.04ZM200.961 25.76V28.76H203.961V25.76H200.961ZM186.801 25.76V22.76H183.801V25.76H186.801ZM186.801 38V35H178.161V38V41H186.801V38ZM178.161 38H181.161V4.4H178.161H175.161V38H178.161ZM178.161 4.4V7.4H204.801V4.4V1.4H178.161V4.4ZM204.801 4.4H201.801V11.12H204.801H207.801V4.4H204.801ZM204.801 11.12V8.12H186.801V11.12V14.12H204.801V11.12ZM186.801 11.12H183.801V19.04H186.801H189.801V11.12H186.801ZM186.801 19.04V22.04H200.961V19.04V16.04H186.801V19.04ZM200.961 19.04H197.961V25.76H200.961H203.961V19.04H200.961ZM200.961 25.76V22.76H186.801V25.76V28.76H200.961V25.76ZM186.801 25.76H183.801V38H186.801H189.801V25.76H186.801ZM210.321 4.4V1.4H205.404L207.654 5.77263L210.321 4.4ZM219.441 4.4L222.14 3.0902L221.32 1.4H219.441V4.4ZM227.361 20.72L224.662 22.0298L227.361 27.5913L230.06 22.0298L227.361 20.72ZM235.281 4.4V1.4H233.403L232.582 3.0902L235.281 4.4ZM244.401 4.4L247.069 5.77263L249.319 1.4H244.401V4.4ZM231.681 29.12L229.014 27.7474L228.681 28.3934V29.12H231.681ZM231.681 38V41H234.681V38H231.681ZM223.041 38H220.041V41H223.041V38ZM223.041 29.12H226.041V28.3934L225.709 27.7474L223.041 29.12ZM210.321 4.4V7.4H219.441V4.4V1.4H210.321V4.4ZM219.441 4.4L216.742 5.70979L224.662 22.0298L227.361 20.72L230.06 19.4102L222.14 3.0902L219.441 4.4ZM227.361 20.72L230.06 22.0298L237.98 5.70979L235.281 4.4L232.582 3.0902L224.662 19.4102L227.361 20.72ZM235.281 4.4V7.4H244.401V4.4V1.4H235.281V4.4ZM244.401 4.4L241.734 3.02737L229.014 27.7474L231.681 29.12L234.349 30.4926L247.069 5.77263L244.401 4.4ZM231.681 29.12H228.681V38H231.681H234.681V29.12H231.681ZM231.681 38V35H223.041V38V41H231.681V38ZM223.041 38H226.041V29.12H223.041H220.041V38H223.041ZM223.041 29.12L225.709 27.7474L212.989 3.02737L210.321 4.4L207.654 5.77263L220.374 30.4926L223.041 29.12Z" fill="black" mask="url(#path-1-outside-1_164_186)"/>
</svg>
