<svg width="371" height="416" viewBox="0 0 371 416" fill="none" xmlns="http://www.w3.org/2000/svg">
<path d="M7.11362 107.254C9.08272 104.079 12.0275 101.052 15.1233 98.9572C22.3385 94.0748 30.1534 89.8851 37.6601 85.4705L78.1628 61.61L141.414 24.404L160.965 12.9173C166.475 9.69015 172.458 5.15118 178.709 3.68477C183.41 2.58186 189.173 2.76625 193.685 4.56669C198.969 6.67502 203.778 10.0641 208.731 12.8463C222.685 20.6845 236.451 28.9086 250.281 36.9657L323.335 79.3797C333.58 85.4039 343.961 91.2272 354.015 97.5672C358.058 100.117 361.529 103.309 364.068 107.388L364.243 107.631L364.487 108.24C366.607 111.462 367.558 115.801 367.826 119.602C368.136 123.997 367.938 128.511 367.935 132.917C367.965 142.121 367.902 151.325 367.748 160.528L367.506 228.566L367.329 274.494C367.249 281.3 367.893 288.534 366.492 295.216C364.409 305.159 358.629 313.819 350.064 319.331C343.354 323.649 336.242 327.486 329.366 331.552L276.238 362.644L226.65 391.86C217.104 397.427 207.571 403.28 197.699 408.251C194.103 410.062 189.934 412.537 185.767 412.165L185.512 412.209C182.731 412.244 180.01 411.249 177.501 410.131C172.417 407.866 167.611 405.098 162.776 402.355C156.861 399.004 150.964 395.621 145.085 392.206L88.4471 359.087C72.6694 349.985 56.9555 340.772 41.3059 331.451L27.8732 323.462C24.8468 321.638 21.6754 319.842 18.8963 317.652C13.1096 313.091 8.73076 307.267 6.14503 300.349C4.73014 296.641 3.89201 292.739 3.65924 288.778C3.40395 284.97 3.54755 281.086 3.54521 277.267L3.52268 257.324L3.28992 199.871L3.1909 151.38L3.07217 132.072C3.05669 128.537 2.89244 124.91 3.11816 121.385C3.3697 117.458 4.8301 112.407 6.46507 108.806L6.85551 107.59L7.11362 107.254Z" fill="#C357B5" stroke="black" stroke-width="5"/>
<path d="M6.85551 107.59L68.3196 143.476L85.5469 153.458C88.4569 155.131 91.3632 156.963 94.3858 158.417L94.3872 158.532C96.7219 159.724 99.034 161.375 101.328 162.707C107.327 166.113 113.287 169.585 119.208 173.125L163.782 199.004C168.052 201.519 172.337 204.009 176.634 206.477C179.397 208.084 182.769 210.589 185.858 211.433C186.138 225.117 185.893 238.851 185.886 252.539L185.859 310.881L184.751 310.836C184.71 315.602 185.041 320.367 185.037 325.139L185.014 393.35C185.019 396.848 184.982 400.352 185.081 403.849C185.155 406.437 185.37 409.054 185.33 411.639L185.512 412.209C182.731 412.244 180.01 411.249 177.501 410.132C172.417 407.867 167.611 405.098 162.776 402.356C156.861 399.004 150.964 395.621 145.085 392.207L88.4471 359.087C72.6694 349.985 56.9555 340.773 41.3059 331.451L27.8732 323.462C24.8468 321.638 21.6754 319.843 18.8963 317.653C13.1096 313.092 8.73076 307.268 6.14503 300.349C4.73014 296.642 3.89201 292.74 3.65924 288.778C3.40395 284.971 3.54755 281.087 3.54521 277.267L3.52268 257.325L3.28992 199.871L3.1909 151.38L3.07217 132.073C3.05669 128.538 2.89244 124.911 3.11816 121.385C3.3697 117.458 4.8301 112.408 6.46507 108.807L6.85551 107.59Z" fill="#DBEE71" stroke="black" stroke-width="5"/>
<path d="M94.3872 158.532C96.7219 159.723 99.034 161.374 101.328 162.706C107.327 166.112 113.287 169.585 119.208 173.124L163.782 199.004C168.052 201.518 172.337 204.009 176.634 206.476C179.397 208.083 182.769 210.588 185.858 211.432C186.138 225.116 185.893 238.85 185.886 252.538L185.859 310.88L184.751 310.836C181.643 310.549 178.804 310.009 175.926 308.76C172.23 307.157 168.668 304.906 165.154 302.924L146.562 292.411L121.224 278.046C114.489 274.223 107.745 270.489 101.268 266.235C96.7266 261.863 93.8715 256.951 91.3814 251.245C90.8408 249.617 90.5199 247.975 90.3443 246.27C89.8765 241.723 90.1693 237.019 90.1149 232.447C89.8966 221.655 89.8366 210.862 89.9342 200.068L89.9257 180.465C89.9257 176.619 89.6695 172.512 90.2228 168.705C90.7188 165.29 92.2008 161.221 94.3872 158.532Z" fill="#E9EBE9" stroke="black" stroke-width="5"/>
<path d="M101.268 266.235C107.745 270.489 114.489 274.223 121.224 278.046L146.562 292.411L165.154 302.924C168.668 304.906 172.23 307.156 175.926 308.76C178.804 310.009 181.642 310.549 184.751 310.836C184.71 315.601 185.041 320.366 185.037 325.138L185.014 393.349C185.019 396.847 184.982 400.351 185.081 403.848C185.155 406.436 185.37 409.053 185.33 411.638C184.788 409.395 183.1 406.785 182.039 404.725C177.537 395.978 172.643 387.588 167.635 379.126L124.828 306.791C119.552 297.975 114.196 289.218 109.018 280.342C106.331 275.737 103.364 271.139 101.268 266.235Z" fill="#77B866" stroke="black" stroke-width="5"/>
<path d="M6.85551 107.59L68.3196 143.476L85.5469 153.458C88.4569 155.131 91.3632 156.963 94.3858 158.417L94.3872 158.532C92.2008 161.222 90.7188 165.29 90.2228 168.705C89.6695 172.513 89.9258 176.619 89.9258 180.466L89.9342 200.069C89.8366 210.862 89.8967 221.656 90.1149 232.448C90.1693 237.02 89.8765 241.724 90.3444 246.271C90.5199 247.975 90.8409 249.618 91.3815 251.246C90.129 249.568 89.0862 247.609 87.989 245.82C85.7055 242.1 83.4408 238.369 81.1953 234.625L58.9227 197.008L21.094 133.532L12.1434 118.399C10.239 115.222 8.20235 112.078 6.46507 108.807L6.85551 107.59Z" fill="#77B866" stroke="black" stroke-width="5"/>
<path d="M364.243 107.631L364.487 108.24C366.607 111.462 367.558 115.801 367.826 119.602C368.136 123.996 367.938 128.51 367.935 132.917C367.965 142.121 367.903 151.325 367.748 160.528L367.507 228.566L367.329 274.493C367.249 281.3 367.893 288.534 366.492 295.216C364.409 305.159 358.63 313.819 350.064 319.331C343.354 323.649 336.242 327.485 329.366 331.552L276.238 362.644L226.65 391.86C217.104 397.427 207.571 403.279 197.699 408.251C194.103 410.062 189.934 412.536 185.767 412.165L185.512 412.208L185.33 411.639C185.371 409.053 185.155 406.436 185.082 403.848C184.982 400.352 185.02 396.848 185.014 393.349L185.037 325.139C185.041 320.366 184.71 315.601 184.751 310.836L185.859 310.88L185.886 252.539C185.893 238.85 186.138 225.117 185.858 211.432C187.842 209.863 190.802 208.639 193.033 207.378L210.006 197.722C227.78 187.585 245.268 176.92 263.182 167.023C266.138 165.39 273.45 160.765 276.358 160.172L275.895 159.274C280.236 155.631 287.3 152.248 292.313 149.352L325.554 130.076L351.897 114.694C355.25 112.722 360.982 108.835 364.243 107.631Z" fill="#0089CB" stroke="black" stroke-width="5"/>
<path d="M276.357 160.172C278.084 162.759 279.377 165.826 279.779 168.925C280.245 172.518 279.989 176.371 279.984 179.994L279.95 199.847L279.948 232.244C279.946 238.1 280.13 244.038 279.85 249.884C278.72 256.666 275.784 261.412 270.701 265.988C265.798 269.338 260.546 272.119 255.382 275.041L233.095 287.736L210.594 300.601C205.884 303.32 201.13 306.444 196.162 308.655C192.953 310.082 189.378 310.925 185.858 310.88L185.886 252.539C185.893 238.85 186.138 225.117 185.858 211.432C187.842 209.863 190.801 208.639 193.033 207.378L210.006 197.722C227.78 187.585 245.268 176.92 263.182 167.023C266.137 165.39 273.45 160.765 276.357 160.172Z" fill="#B5CCDA" stroke="black" stroke-width="5"/>
<path d="M185.859 310.88C189.378 310.924 192.953 310.082 196.162 308.655C201.13 306.444 205.884 303.32 210.594 300.601L233.096 287.736L255.383 275.04C260.546 272.119 265.798 269.338 270.701 265.988C269.644 271.329 250.946 299.117 246.717 306.348L197.651 389.859C194.775 394.758 192.103 399.718 189.504 404.768C188.256 407.197 187.212 409.856 185.767 412.165L185.512 412.208L185.33 411.639C185.371 409.053 185.155 406.436 185.082 403.848C184.982 400.352 185.02 396.847 185.014 393.349L185.037 325.139C185.041 320.366 184.71 315.601 184.751 310.836L185.859 310.88Z" fill="#006AB6" stroke="black" stroke-width="5"/>
<path d="M364.243 107.631L364.487 108.24L363.966 108.291L363.996 108.439C363.946 108.51 363.893 108.578 363.847 108.651C363.656 108.955 363.569 109.187 363.444 109.513C362.174 112.823 357.914 119.383 355.962 122.721L336.717 155.124L282.249 247.325C281.668 248.302 281.045 249.621 280.167 250.331C279.874 249.99 279.958 250.153 279.85 249.884C280.13 244.038 279.946 238.1 279.949 232.244L279.95 199.847L279.984 179.994C279.989 176.371 280.245 172.518 279.779 168.925C279.377 165.826 278.085 162.759 276.358 160.172L275.895 159.274C280.236 155.631 287.3 152.248 292.313 149.352L325.554 130.076L351.897 114.694C355.25 112.722 360.982 108.835 364.243 107.631Z" fill="#006AB6" stroke="black" stroke-width="5"/>
<path d="M181.809 107.37C184.283 107.654 186.828 107.619 189.315 107.6C195.251 108.892 207.782 117.07 213.564 120.431L242.186 137.079L260.516 147.732C263.719 149.595 267.127 151.358 270.18 153.455C272.394 154.975 274.298 157.133 275.895 159.274L276.358 160.172C273.45 160.765 266.138 165.391 263.182 167.023C245.268 176.92 227.78 187.585 210.006 197.723L193.033 207.379C190.802 208.639 187.842 209.863 185.858 211.433C182.769 210.589 179.397 208.084 176.634 206.477C172.337 204.009 168.052 201.519 163.782 199.004L119.208 173.124C113.287 169.585 107.327 166.112 101.328 162.707C99.0341 161.375 96.7219 159.724 94.3873 158.532L94.3859 158.417C95.8388 156.871 97.47 155.262 99.2284 154.072C103.405 151.247 108.158 148.884 112.527 146.342L145.507 127.463L166.033 115.658C171.156 112.708 176.252 109.43 181.809 107.37Z" fill="#D2E1E9" stroke="black" stroke-width="5"/>
<path d="M7.11374 107.254C12.0933 106.974 17.1296 107.12 22.1162 107.116L47.6155 107.108L125.923 107.117L165.535 107.11C168.995 107.11 179.22 106.686 181.809 107.37C176.252 109.43 171.157 112.707 166.033 115.657L145.507 127.463L112.527 146.341C108.158 148.883 103.406 151.246 99.2285 154.072C97.4701 155.261 95.8388 156.871 94.3859 158.417C91.3633 156.963 88.457 155.13 85.547 153.458L68.3197 143.476L6.85564 107.59L7.11374 107.254Z" fill="#7047A3" stroke="black" stroke-width="5"/>
<path d="M189.315 107.599C193.905 106.563 202.909 107.101 207.887 107.104L242.158 107.111L323.821 107.092L347.757 107.078C351.825 107.056 355.919 106.874 359.983 106.961C361.373 106.991 362.709 107.08 364.069 107.387L364.243 107.631C360.982 108.835 355.25 112.722 351.897 114.694L325.554 130.076L292.313 149.352C287.3 152.248 280.236 155.63 275.895 159.273C274.298 157.133 272.394 154.975 270.18 153.455C267.127 151.358 263.719 149.595 260.516 147.732L242.186 137.079L213.564 120.431C207.782 117.07 195.251 108.892 189.315 107.599Z" fill="#7047A3" stroke="black" stroke-width="5"/>
</svg>
