<svg width="849" height="1183" viewBox="0 0 849 1183" fill="none" xmlns="http://www.w3.org/2000/svg">
<rect x="5" y="5" width="839" height="1173" rx="45" fill="white"/>
<rect x="5" y="5" width="839" height="1173" rx="45" stroke="black" stroke-width="10"/>
<circle cx="786.5" cy="1124.5" r="11.5" fill="black"/>
<circle cx="786.5" cy="59.5" r="11.5" fill="black"/>
<path d="M77 1124.5C77 1130.85 71.8513 1136 65.5 1136C59.1487 1136 54 1130.85 54 1124.5C54 1118.15 59.1487 1113 65.5 1113C71.8513 1113 77 1118.15 77 1124.5Z" fill="black"/>
<path d="M77 59.5C77 65.8513 71.8513 71 65.5 71C59.1487 71 54 65.8513 54 59.5C54 53.1487 59.1487 48 65.5 48C71.8513 48 77 53.1487 77 59.5Z" fill="black"/>
<mask id="path-6-inside-1_1_1407" fill="white">
<path d="M708 48C713.523 48 717.934 52.4996 718.616 57.9801C723.122 94.1833 751.817 122.878 788.02 127.384C793.5 128.066 798 132.477 798 138V1046C798 1051.52 793.5 1055.93 788.02 1056.62C751.817 1061.12 723.122 1089.82 718.616 1126.02C717.934 1131.5 713.523 1136 708 1136H141C135.477 1136 131.066 1131.5 130.384 1126.02C125.878 1089.82 97.1833 1061.12 60.9801 1056.62C55.4996 1055.93 51 1051.52 51 1046V138C51 132.477 55.4996 128.066 60.9801 127.384C97.1833 122.878 125.878 94.1833 130.384 57.9801C131.066 52.4996 135.477 48 141 48H708Z"/>
</mask>
<path d="M708 48C713.523 48 717.934 52.4996 718.616 57.9801C723.122 94.1833 751.817 122.878 788.02 127.384C793.5 128.066 798 132.477 798 138V1046C798 1051.52 793.5 1055.93 788.02 1056.62C751.817 1061.12 723.122 1089.82 718.616 1126.02C717.934 1131.5 713.523 1136 708 1136H141C135.477 1136 131.066 1131.5 130.384 1126.02C125.878 1089.82 97.1833 1061.12 60.9801 1056.62C55.4996 1055.93 51 1051.52 51 1046V138C51 132.477 55.4996 128.066 60.9801 127.384C97.1833 122.878 125.878 94.1833 130.384 57.9801C131.066 52.4996 135.477 48 141 48H708Z" fill="#C357B5"/>
<path d="M130.384 1126.02L138.322 1125.03L130.384 1126.02ZM718.616 1126.02L710.678 1125.03L718.616 1126.02ZM788.02 1056.62L789.008 1064.56L788.02 1056.62ZM718.616 57.9801L726.555 56.9922L718.616 57.9801ZM718.616 57.9801L710.678 58.9681C715.635 98.8063 747.194 130.365 787.032 135.322L788.02 127.384L789.008 119.445C756.44 115.392 730.608 89.5603 726.555 56.9922L718.616 57.9801ZM798 138H790V1046H798H806V138H798ZM788.02 1056.62L787.032 1048.68C747.194 1053.64 715.635 1085.19 710.678 1125.03L718.616 1126.02L726.555 1127.01C730.608 1094.44 756.44 1068.61 789.008 1064.56L788.02 1056.62ZM708 1136V1128H141V1136V1144H708V1136ZM130.384 1126.02L138.322 1125.03C133.365 1085.19 101.806 1053.64 61.9681 1048.68L60.9801 1056.62L59.9922 1064.56C92.5603 1068.61 118.392 1094.44 122.445 1127.01L130.384 1126.02ZM51 1046H59V138H51H43V1046H51ZM60.9801 127.384L61.9681 135.322C101.806 130.365 133.365 98.8063 138.322 58.9681L130.384 57.9801L122.445 56.9922C118.392 89.5603 92.5603 115.392 59.9922 119.445L60.9801 127.384ZM141 48V56H708V48V40H141V48ZM130.384 57.9801L138.322 58.9681C138.438 58.0389 138.872 57.2306 139.427 56.6958C139.954 56.1887 140.494 56 141 56V48V40C130.84 40 123.547 48.1329 122.445 56.9922L130.384 57.9801ZM51 138H59C59 137.494 59.1887 136.954 59.6958 136.427C60.2306 135.872 61.0389 135.438 61.9681 135.322L60.9801 127.384L59.9922 119.445C51.1329 120.547 43 127.84 43 138H51ZM60.9801 1056.62L61.9681 1048.68C61.0389 1048.56 60.2306 1048.13 59.6958 1047.57C59.1887 1047.05 59 1046.51 59 1046H51H43C43 1056.16 51.1329 1063.45 59.9922 1064.56L60.9801 1056.62ZM141 1136V1128C140.494 1128 139.954 1127.81 139.427 1127.3C138.872 1126.77 138.438 1125.96 138.322 1125.03L130.384 1126.02L122.445 1127.01C123.547 1135.87 130.84 1144 141 1144V1136ZM718.616 1126.02L710.678 1125.03C710.562 1125.96 710.128 1126.77 709.573 1127.3C709.046 1127.81 708.506 1128 708 1128V1136V1144C718.16 1144 725.453 1135.87 726.555 1127.01L718.616 1126.02ZM798 1046H790C790 1046.51 789.811 1047.05 789.304 1047.57C788.769 1048.13 787.961 1048.56 787.032 1048.68L788.02 1056.62L789.008 1064.56C797.867 1063.45 806 1056.16 806 1046H798ZM788.02 127.384L787.032 135.322C787.961 135.438 788.769 135.872 789.304 136.427C789.811 136.954 790 137.494 790 138H798H806C806 127.84 797.867 120.547 789.008 119.445L788.02 127.384ZM718.616 57.9801L726.555 56.9922C725.453 48.1329 718.16 40 708 40V48V56C708.506 56 709.046 56.1887 709.573 56.6958C710.128 57.2306 710.562 58.0389 710.678 58.9681L718.616 57.9801Z" fill="black" mask="url(#path-6-inside-1_1_1407)"/>
<path d="M690 102C695.523 102 699.911 106.512 700.837 111.957C705.019 136.563 724.437 155.981 749.043 160.163C754.488 161.089 759 165.477 759 171V1014C759 1019.52 754.488 1023.91 749.043 1024.84C724.711 1028.97 705.454 1048 700.984 1072.22C699.993 1077.59 695.633 1082 690.175 1082H158.825C153.367 1082 149.007 1077.59 148.016 1072.22C143.546 1048 124.288 1028.97 99.9568 1024.84C94.5121 1023.91 90 1019.52 90 1014V171C90 165.477 94.512 161.089 99.9568 160.163C124.563 155.981 143.981 136.563 148.163 111.957C149.089 106.512 153.477 102 159 102H690Z" fill="#D78BCD"/>
<mask id="path-9-outside-2_1_1407" maskUnits="userSpaceOnUse" x="400" y="1022" width="45" height="32" fill="black">
<rect fill="white" x="400" y="1022" width="45" height="32"/>
<path d="M401.32 1031.04C401.48 1028.56 402.427 1026.63 404.16 1025.24C405.92 1023.85 408.16 1023.16 410.88 1023.16C412.747 1023.16 414.36 1023.49 415.72 1024.16C417.08 1024.83 418.107 1025.73 418.8 1026.88C419.493 1028.03 419.84 1029.32 419.84 1030.76C419.84 1032.41 419.4 1033.83 418.52 1035C417.64 1036.17 416.587 1036.96 415.36 1037.36V1037.52C416.933 1038 418.16 1038.88 419.04 1040.16C419.92 1041.41 420.36 1043.03 420.36 1045C420.36 1046.57 420 1047.97 419.28 1049.2C418.56 1050.43 417.493 1051.4 416.08 1052.12C414.667 1052.81 412.973 1053.16 411 1053.16C408.12 1053.16 405.747 1052.43 403.88 1050.96C402.04 1049.47 401.053 1047.33 400.92 1044.56H405.32C405.427 1045.97 405.973 1047.13 406.96 1048.04C407.947 1048.92 409.28 1049.36 410.96 1049.36C412.587 1049.36 413.84 1048.92 414.72 1048.04C415.6 1047.13 416.04 1045.97 416.04 1044.56C416.04 1042.69 415.44 1041.37 414.24 1040.6C413.067 1039.8 411.253 1039.4 408.8 1039.4H407.76V1035.64H408.84C411 1035.61 412.64 1035.25 413.76 1034.56C414.907 1033.87 415.48 1032.77 415.48 1031.28C415.48 1030 415.067 1028.99 414.24 1028.24C413.413 1027.47 412.24 1027.08 410.72 1027.08C409.227 1027.08 408.067 1027.47 407.24 1028.24C406.413 1028.99 405.92 1029.92 405.76 1031.04H401.32ZM427.67 1046.8C430.23 1044.59 432.243 1042.77 433.71 1041.36C435.203 1039.92 436.443 1038.43 437.43 1036.88C438.417 1035.33 438.91 1033.79 438.91 1032.24C438.91 1030.64 438.523 1029.39 437.75 1028.48C437.003 1027.57 435.817 1027.12 434.19 1027.12C432.617 1027.12 431.39 1027.63 430.51 1028.64C429.657 1029.63 429.203 1030.96 429.15 1032.64H424.75C424.83 1029.6 425.737 1027.28 427.47 1025.68C429.23 1024.05 431.457 1023.24 434.15 1023.24C437.057 1023.24 439.323 1024.04 440.95 1025.64C442.603 1027.24 443.43 1029.37 443.43 1032.04C443.43 1033.96 442.937 1035.81 441.95 1037.6C440.99 1039.36 439.83 1040.95 438.47 1042.36C437.137 1043.75 435.43 1045.36 433.35 1047.2L431.55 1048.8H444.23V1052.6H424.79V1049.28L427.67 1046.8Z"/>
</mask>
<path d="M401.32 1031.04C401.48 1028.56 402.427 1026.63 404.16 1025.24C405.92 1023.85 408.16 1023.16 410.88 1023.16C412.747 1023.16 414.36 1023.49 415.72 1024.16C417.08 1024.83 418.107 1025.73 418.8 1026.88C419.493 1028.03 419.84 1029.32 419.84 1030.76C419.84 1032.41 419.4 1033.83 418.52 1035C417.64 1036.17 416.587 1036.96 415.36 1037.36V1037.52C416.933 1038 418.16 1038.88 419.04 1040.16C419.92 1041.41 420.36 1043.03 420.36 1045C420.36 1046.57 420 1047.97 419.28 1049.2C418.56 1050.43 417.493 1051.4 416.08 1052.12C414.667 1052.81 412.973 1053.16 411 1053.16C408.12 1053.16 405.747 1052.43 403.88 1050.96C402.04 1049.47 401.053 1047.33 400.92 1044.56H405.32C405.427 1045.97 405.973 1047.13 406.96 1048.04C407.947 1048.92 409.28 1049.36 410.96 1049.36C412.587 1049.36 413.84 1048.92 414.72 1048.04C415.6 1047.13 416.04 1045.97 416.04 1044.56C416.04 1042.69 415.44 1041.37 414.24 1040.6C413.067 1039.8 411.253 1039.4 408.8 1039.4H407.76V1035.64H408.84C411 1035.61 412.64 1035.25 413.76 1034.56C414.907 1033.87 415.48 1032.77 415.48 1031.28C415.48 1030 415.067 1028.99 414.24 1028.24C413.413 1027.47 412.24 1027.08 410.72 1027.08C409.227 1027.08 408.067 1027.47 407.24 1028.24C406.413 1028.99 405.92 1029.92 405.76 1031.04H401.32ZM427.67 1046.8C430.23 1044.59 432.243 1042.77 433.71 1041.36C435.203 1039.92 436.443 1038.43 437.43 1036.88C438.417 1035.33 438.91 1033.79 438.91 1032.24C438.91 1030.64 438.523 1029.39 437.75 1028.48C437.003 1027.57 435.817 1027.12 434.19 1027.12C432.617 1027.12 431.39 1027.63 430.51 1028.64C429.657 1029.63 429.203 1030.96 429.15 1032.64H424.75C424.83 1029.6 425.737 1027.28 427.47 1025.68C429.23 1024.05 431.457 1023.24 434.15 1023.24C437.057 1023.24 439.323 1024.04 440.95 1025.64C442.603 1027.24 443.43 1029.37 443.43 1032.04C443.43 1033.96 442.937 1035.81 441.95 1037.6C440.99 1039.36 439.83 1040.95 438.47 1042.36C437.137 1043.75 435.43 1045.36 433.35 1047.2L431.55 1048.8H444.23V1052.6H424.79V1049.28L427.67 1046.8Z" fill="black"/>
<path d="M401.32 1031.04L401.021 1031.02L401 1031.34H401.32V1031.04ZM404.16 1025.24L403.974 1025L403.973 1025.01L404.16 1025.24ZM415.72 1024.16L415.588 1024.43L415.72 1024.16ZM418.8 1026.88L419.057 1026.72L418.8 1026.88ZM418.52 1035L418.76 1035.18V1035.18L418.52 1035ZM415.36 1037.36L415.267 1037.07L415.06 1037.14V1037.36H415.36ZM415.36 1037.52H415.06V1037.74L415.272 1037.81L415.36 1037.52ZM419.04 1040.16L418.793 1040.33L418.794 1040.33L419.04 1040.16ZM419.28 1049.2L419.021 1049.05L419.28 1049.2ZM416.08 1052.12L416.212 1052.39L416.216 1052.39L416.08 1052.12ZM403.88 1050.96L403.691 1051.19L403.695 1051.2L403.88 1050.96ZM400.92 1044.56V1044.26H400.605L400.62 1044.57L400.92 1044.56ZM405.32 1044.56L405.619 1044.54L405.598 1044.26H405.32V1044.56ZM406.96 1048.04L406.757 1048.26L406.76 1048.26L406.96 1048.04ZM414.72 1048.04L414.932 1048.25L414.935 1048.25L414.72 1048.04ZM414.24 1040.6L414.071 1040.85L414.077 1040.85L414.24 1040.6ZM407.76 1039.4H407.46V1039.7H407.76V1039.4ZM407.76 1035.64V1035.34H407.46V1035.64H407.76ZM408.84 1035.64V1035.94L408.844 1035.94L408.84 1035.64ZM413.76 1034.56L413.605 1034.3L413.602 1034.3L413.76 1034.56ZM414.24 1028.24L414.035 1028.46L414.039 1028.46L414.24 1028.24ZM407.24 1028.24L407.441 1028.46L407.445 1028.46L407.24 1028.24ZM405.76 1031.04V1031.34H406.02L406.057 1031.08L405.76 1031.04ZM401.32 1031.04L401.619 1031.06C401.775 1028.65 402.688 1026.8 404.347 1025.47L404.16 1025.24L403.973 1025.01C402.165 1026.45 401.185 1028.47 401.021 1031.02L401.32 1031.04ZM404.16 1025.24L404.346 1025.48C406.042 1024.14 408.213 1023.46 410.88 1023.46V1023.16V1022.86C408.108 1022.86 405.798 1023.57 403.974 1025L404.16 1025.24ZM410.88 1023.16V1023.46C412.711 1023.46 414.277 1023.79 415.588 1024.43L415.72 1024.16L415.852 1023.89C414.443 1023.2 412.782 1022.86 410.88 1022.86V1023.16ZM415.72 1024.16L415.588 1024.43C416.903 1025.07 417.883 1025.94 418.543 1027.04L418.8 1026.88L419.057 1026.72C418.33 1025.52 417.257 1024.58 415.852 1023.89L415.72 1024.16ZM418.8 1026.88L418.543 1027.04C419.206 1028.13 419.54 1029.37 419.54 1030.76H419.84H420.14C420.14 1029.27 419.78 1027.92 419.057 1026.72L418.8 1026.88ZM419.84 1030.76H419.54C419.54 1032.36 419.116 1033.71 418.28 1034.82L418.52 1035L418.76 1035.18C419.684 1033.95 420.14 1032.47 420.14 1030.76H419.84ZM418.52 1035L418.28 1034.82C417.432 1035.95 416.427 1036.7 415.267 1037.07L415.36 1037.36L415.453 1037.65C416.746 1037.22 417.848 1036.4 418.76 1035.18L418.52 1035ZM415.36 1037.36H415.06V1037.52H415.36H415.66V1037.36H415.36ZM415.36 1037.52L415.272 1037.81C416.785 1038.27 417.954 1039.11 418.793 1040.33L419.04 1040.16L419.287 1039.99C418.366 1038.65 417.082 1037.73 415.448 1037.23L415.36 1037.52ZM419.04 1040.16L418.794 1040.33C419.63 1041.52 420.06 1043.07 420.06 1045H420.36H420.66C420.66 1042.98 420.21 1041.3 419.286 1039.99L419.04 1040.16ZM420.36 1045H420.06C420.06 1046.53 419.711 1047.87 419.021 1049.05L419.28 1049.2L419.539 1049.35C420.289 1048.07 420.66 1046.62 420.66 1045H420.36ZM419.28 1049.2L419.021 1049.05C418.334 1050.22 417.312 1051.16 415.944 1051.85L416.08 1052.12L416.216 1052.39C417.674 1051.64 418.786 1050.63 419.539 1049.35L419.28 1049.2ZM416.08 1052.12L415.948 1051.85C414.585 1052.52 412.939 1052.86 411 1052.86V1053.16V1053.46C413.008 1053.46 414.749 1053.11 416.212 1052.39L416.08 1052.12ZM411 1053.16V1052.86C408.172 1052.86 405.869 1052.14 404.065 1050.72L403.88 1050.96L403.695 1051.2C405.625 1052.71 408.068 1053.46 411 1053.46V1053.16ZM403.88 1050.96L404.069 1050.73C402.307 1049.3 401.35 1047.25 401.22 1044.55L400.92 1044.56L400.62 1044.57C400.757 1047.42 401.773 1049.64 403.691 1051.19L403.88 1050.96ZM400.92 1044.56V1044.86H405.32V1044.56V1044.26H400.92V1044.56ZM405.32 1044.56L405.021 1044.58C405.133 1046.07 405.711 1047.3 406.757 1048.26L406.96 1048.04L407.163 1047.82C406.236 1046.97 405.72 1045.88 405.619 1044.54L405.32 1044.56ZM406.96 1048.04L406.76 1048.26C407.816 1049.21 409.227 1049.66 410.96 1049.66V1049.36V1049.06C409.333 1049.06 408.078 1048.63 407.16 1047.82L406.96 1048.04ZM410.96 1049.36V1049.66C412.641 1049.66 413.98 1049.2 414.932 1048.25L414.72 1048.04L414.508 1047.83C413.7 1048.64 412.533 1049.06 410.96 1049.06V1049.36ZM414.72 1048.04L414.935 1048.25C415.876 1047.28 416.34 1046.04 416.34 1044.56H416.04H415.74C415.74 1045.91 415.324 1046.99 414.505 1047.83L414.72 1048.04ZM416.04 1044.56H416.34C416.34 1042.63 415.714 1041.19 414.403 1040.35L414.24 1040.6L414.077 1040.85C415.166 1041.55 415.74 1042.76 415.74 1044.56H416.04ZM414.24 1040.6L414.409 1040.35C413.161 1039.5 411.275 1039.1 408.8 1039.1V1039.4V1039.7C411.232 1039.7 412.972 1040.1 414.071 1040.85L414.24 1040.6ZM408.8 1039.4V1039.1H407.76V1039.4V1039.7H408.8V1039.4ZM407.76 1039.4H408.06V1035.64H407.76H407.46V1039.4H407.76ZM407.76 1035.64V1035.94H408.84V1035.64V1035.34H407.76V1035.64ZM408.84 1035.64L408.844 1035.94C411.027 1035.91 412.731 1035.55 413.918 1034.82L413.76 1034.56L413.602 1034.3C412.549 1034.96 410.973 1035.31 408.836 1035.34L408.84 1035.64ZM413.76 1034.56L413.915 1034.82C415.163 1034.06 415.78 1032.86 415.78 1031.28H415.48H415.18C415.18 1032.68 414.65 1033.67 413.605 1034.3L413.76 1034.56ZM415.48 1031.28H415.78C415.78 1029.93 415.34 1028.83 414.441 1028.02L414.24 1028.24L414.039 1028.46C414.793 1029.14 415.18 1030.07 415.18 1031.28H415.48ZM414.24 1028.24L414.445 1028.02C413.546 1027.18 412.289 1026.78 410.72 1026.78V1027.08V1027.38C412.191 1027.38 413.281 1027.75 414.035 1028.46L414.24 1028.24ZM410.72 1027.08V1026.78C409.176 1026.78 407.933 1027.18 407.035 1028.02L407.24 1028.24L407.445 1028.46C408.2 1027.75 409.278 1027.38 410.72 1027.38V1027.08ZM407.24 1028.24L407.039 1028.02C406.159 1028.81 405.633 1029.81 405.463 1031L405.76 1031.04L406.057 1031.08C406.207 1030.03 406.667 1029.16 407.441 1028.46L407.24 1028.24ZM405.76 1031.04V1030.74H401.32V1031.04V1031.34H405.76V1031.04ZM427.67 1046.8L427.866 1047.03L427.866 1047.03L427.67 1046.8ZM433.71 1041.36L433.918 1041.58L433.918 1041.58L433.71 1041.36ZM437.75 1028.48L437.518 1028.67L437.522 1028.67L437.75 1028.48ZM430.51 1028.64L430.283 1028.44L430.283 1028.44L430.51 1028.64ZM429.15 1032.64V1032.94H429.441L429.45 1032.65L429.15 1032.64ZM424.75 1032.64L424.45 1032.63L424.442 1032.94H424.75V1032.64ZM427.47 1025.68L427.673 1025.9L427.674 1025.9L427.47 1025.68ZM440.95 1025.64L440.74 1025.85L440.741 1025.86L440.95 1025.64ZM441.95 1037.6L441.687 1037.45L441.687 1037.46L441.95 1037.6ZM438.47 1042.36L438.254 1042.15L438.254 1042.15L438.47 1042.36ZM433.35 1047.2L433.151 1046.98L433.151 1046.98L433.35 1047.2ZM431.55 1048.8L431.351 1048.58L430.761 1049.1H431.55V1048.8ZM444.23 1048.8H444.53V1048.5H444.23V1048.8ZM444.23 1052.6V1052.9H444.53V1052.6H444.23ZM424.79 1052.6H424.49V1052.9H424.79V1052.6ZM424.79 1049.28L424.594 1049.05L424.49 1049.14V1049.28H424.79ZM427.67 1046.8L427.866 1047.03C430.428 1044.81 432.446 1042.99 433.918 1041.58L433.71 1041.36L433.502 1041.14C432.041 1042.55 430.032 1044.36 427.474 1046.57L427.67 1046.8ZM433.71 1041.36L433.918 1041.58C435.426 1040.12 436.682 1038.61 437.683 1037.04L437.43 1036.88L437.177 1036.72C436.205 1038.24 434.98 1039.72 433.502 1041.14L433.71 1041.36ZM437.43 1036.88L437.683 1037.04C438.695 1035.46 439.21 1033.85 439.21 1032.24H438.91H438.61C438.61 1033.72 438.139 1035.21 437.177 1036.72L437.43 1036.88ZM438.91 1032.24H439.21C439.21 1030.59 438.812 1029.26 437.978 1028.29L437.75 1028.48L437.522 1028.67C438.235 1029.51 438.61 1030.69 438.61 1032.24H438.91ZM437.75 1028.48L437.982 1028.29C437.158 1027.29 435.87 1026.82 434.19 1026.82V1027.12V1027.42C435.763 1027.42 436.848 1027.86 437.518 1028.67L437.75 1028.48ZM434.19 1027.12V1026.82C432.546 1026.82 431.23 1027.35 430.283 1028.44L430.51 1028.64L430.737 1028.84C431.55 1027.9 432.687 1027.42 434.19 1027.42V1027.12ZM430.51 1028.64L430.283 1028.44C429.373 1029.5 428.905 1030.9 428.85 1032.63L429.15 1032.64L429.45 1032.65C429.502 1031.02 429.94 1029.76 430.737 1028.84L430.51 1028.64ZM429.15 1032.64V1032.34H424.75V1032.64V1032.94H429.15V1032.64ZM424.75 1032.64L425.05 1032.65C425.128 1029.66 426.016 1027.43 427.673 1025.9L427.47 1025.68L427.267 1025.46C425.458 1027.13 424.532 1029.54 424.45 1032.63L424.75 1032.64ZM427.47 1025.68L427.674 1025.9C429.371 1024.33 431.522 1023.54 434.15 1023.54V1023.24V1022.94C431.391 1022.94 429.089 1023.78 427.266 1025.46L427.47 1025.68ZM434.15 1023.24V1023.54C437.001 1023.54 439.183 1024.32 440.74 1025.85L440.95 1025.64L441.16 1025.43C439.463 1023.76 437.113 1022.94 434.15 1022.94V1023.24ZM440.95 1025.64L440.741 1025.86C442.327 1027.39 443.13 1029.44 443.13 1032.04H443.43H443.73C443.73 1029.31 442.88 1027.09 441.159 1025.42L440.95 1025.64ZM443.43 1032.04H443.13C443.13 1033.91 442.651 1035.71 441.687 1037.45L441.95 1037.6L442.213 1037.75C443.222 1035.92 443.73 1034.01 443.73 1032.04H443.43ZM441.95 1037.6L441.687 1037.46C440.739 1039.19 439.595 1040.76 438.254 1042.15L438.47 1042.36L438.686 1042.57C440.065 1041.14 441.241 1039.53 442.213 1037.74L441.95 1037.6ZM438.47 1042.36L438.254 1042.15C436.928 1043.53 435.228 1045.14 433.151 1046.98L433.35 1047.2L433.549 1047.42C435.632 1045.58 437.345 1043.96 438.686 1042.57L438.47 1042.36ZM433.35 1047.2L433.151 1046.98L431.351 1048.58L431.55 1048.8L431.749 1049.02L433.549 1047.42L433.35 1047.2ZM431.55 1048.8V1049.1H444.23V1048.8V1048.5H431.55V1048.8ZM444.23 1048.8H443.93V1052.6H444.23H444.53V1048.8H444.23ZM444.23 1052.6V1052.3H424.79V1052.6V1052.9H444.23V1052.6ZM424.79 1052.6H425.09V1049.28H424.79H424.49V1052.6H424.79ZM424.79 1049.28L424.986 1049.51L427.866 1047.03L427.67 1046.8L427.474 1046.57L424.594 1049.05L424.79 1049.28Z" fill="black" mask="url(#path-9-outside-2_1_1407)"/>
<path d="M256.81 272.735C248.2 272.735 241.13 270.705 235.6 266.645C230.07 262.515 227.095 256.635 226.675 249.005H248.62C248.83 251.595 249.6 253.485 250.93 254.675C252.26 255.865 253.975 256.46 256.075 256.46C257.965 256.46 259.505 256.005 260.695 255.095C261.955 254.115 262.585 252.785 262.585 251.105C262.585 248.935 261.57 247.255 259.54 246.065C257.51 244.875 254.22 243.545 249.67 242.075C244.84 240.465 240.92 238.925 237.91 237.455C234.97 235.915 232.38 233.71 230.14 230.84C227.97 227.9 226.885 224.085 226.885 219.395C226.885 214.635 228.075 210.575 230.455 207.215C232.835 203.785 236.125 201.195 240.325 199.445C244.525 197.695 249.285 196.82 254.605 196.82C263.215 196.82 270.075 198.85 275.185 202.91C280.365 206.9 283.13 212.535 283.48 219.815H261.115C261.045 217.575 260.345 215.895 259.015 214.775C257.755 213.655 256.11 213.095 254.08 213.095C252.54 213.095 251.28 213.55 250.3 214.46C249.32 215.37 248.83 216.665 248.83 218.345C248.83 219.745 249.355 220.97 250.405 222.02C251.525 223 252.89 223.875 254.5 224.645C256.11 225.345 258.49 226.255 261.64 227.375C266.33 228.985 270.18 230.595 273.19 232.205C276.27 233.745 278.895 235.95 281.065 238.82C283.305 241.62 284.425 245.19 284.425 249.53C284.425 253.94 283.305 257.895 281.065 261.395C278.895 264.895 275.71 267.66 271.51 269.69C267.38 271.72 262.48 272.735 256.81 272.735ZM328.747 254.465V272H319.822C304.772 272 297.247 264.545 297.247 249.635V230.21H290.002V213.095H297.247V198.815H317.932V213.095H328.642V230.21H317.932V249.95C317.932 251.56 318.282 252.715 318.982 253.415C319.752 254.115 321.012 254.465 322.762 254.465H328.747ZM365.592 272.735C359.712 272.735 354.427 271.51 349.737 269.06C345.117 266.61 341.477 263.11 338.817 258.56C336.157 254.01 334.827 248.655 334.827 242.495C334.827 236.405 336.157 231.085 338.817 226.535C341.547 221.985 345.222 218.485 349.842 216.035C354.532 213.585 359.817 212.36 365.697 212.36C371.577 212.36 376.827 213.585 381.447 216.035C386.137 218.485 389.812 221.985 392.472 226.535C395.202 231.085 396.567 236.405 396.567 242.495C396.567 248.585 395.202 253.94 392.472 258.56C389.812 263.11 386.137 266.61 381.447 269.06C376.757 271.51 371.472 272.735 365.592 272.735ZM365.592 254.885C368.462 254.885 370.842 253.835 372.732 251.735C374.692 249.565 375.672 246.485 375.672 242.495C375.672 238.505 374.692 235.46 372.732 233.36C370.842 231.26 368.497 230.21 365.697 230.21C362.897 230.21 360.552 231.26 358.662 233.36C356.772 235.46 355.827 238.505 355.827 242.495C355.827 246.555 356.737 249.635 358.557 251.735C360.377 253.835 362.722 254.885 365.592 254.885ZM425.52 223.49C427.83 220.13 430.63 217.47 433.92 215.51C437.21 213.55 440.745 212.57 444.525 212.57V234.515H438.75C434.27 234.515 430.945 235.39 428.775 237.14C426.605 238.89 425.52 241.935 425.52 246.275V272H404.94V213.095H425.52V223.49ZM528.867 212.57C536.287 212.57 542.097 214.81 546.297 219.29C550.567 223.77 552.702 229.895 552.702 237.665V272H532.122V240.395C532.122 237.245 531.247 234.795 529.497 233.045C527.747 231.295 525.367 230.42 522.357 230.42C519.347 230.42 516.967 231.295 515.217 233.045C513.467 234.795 512.592 237.245 512.592 240.395V272H492.012V240.395C492.012 237.245 491.137 234.795 489.387 233.045C487.707 231.295 485.362 230.42 482.352 230.42C479.272 230.42 476.857 231.295 475.107 233.045C473.357 234.795 472.482 237.245 472.482 240.395V272H451.902V213.095H472.482V220.865C474.302 218.345 476.647 216.35 479.517 214.88C482.457 213.34 485.817 212.57 489.597 212.57C493.937 212.57 497.787 213.515 501.147 215.405C504.577 217.295 507.272 219.955 509.232 223.385C511.332 220.165 514.097 217.575 517.527 215.615C520.957 213.585 524.737 212.57 528.867 212.57ZM627.398 213.095L590.018 300.035H567.653L581.723 269.48L557.573 213.095H580.463L592.853 246.485L604.823 213.095H627.398Z" fill="black"/>
<path d="M354.62 347.177C366.269 346.352 379.278 348.473 390.232 352.194C415.311 360.713 434.469 379.22 446.022 402.727C456.669 387.034 474.96 373.696 492.606 367.274C516.863 358.447 546.826 359.69 570.154 370.738C593.791 381.931 611.435 401.211 620.257 425.818C625.513 424.497 631.405 424.633 636.704 425.627C648.626 427.783 659.172 434.658 665.955 444.696C672.517 454.399 674.91 466.329 672.599 477.812C675.881 478.247 679.115 478.996 682.254 480.05C700.683 486.052 715.967 499.139 724.736 516.424C732.864 532.572 734.649 552.319 728.829 569.488C722.772 587.357 709.458 603.614 692.347 611.895C677.681 618.992 658.223 621.218 642.696 615.851C627.969 635.094 613.138 654.258 598.205 673.341C606.796 673.416 615.385 673.694 623.975 673.725C630.422 673.749 641.052 672.931 647.049 674.408C649.605 675.06 651.785 676.729 653.082 679.027C654.725 681.871 654.815 685.43 653.935 688.541C653.402 690.427 652.457 691.789 651.262 693.305C646.984 698.727 642.296 703.906 637.807 709.157L611.663 739.566C587.165 767.947 562.465 796.153 537.565 824.181L474.752 894.403C463.824 906.533 453.155 919.282 441.634 930.826C439.818 932.646 437.344 935.158 435.01 936.266C432.877 937.278 430.241 937.205 428.1 936.285C426.507 935.601 425.328 934.505 424.699 932.869C423.559 929.901 424.516 926.521 425.538 923.66C427.961 916.877 431.477 910.224 434.456 903.652C439.663 892.176 444.785 880.662 449.823 869.111L488.703 780.492C495.714 764.547 502.948 748.684 509.775 732.66C489.033 732.548 468.304 733.031 447.565 733.021C446.365 735.467 445.147 737.758 443.428 739.883C438.717 745.705 431.464 749.418 424.039 750.159C416.345 750.927 408.594 749.117 402.6 744.086C396.938 739.333 393.671 732.652 393.064 725.318C391.13 701.926 405.337 672.134 420.24 654.336C421.044 653.3 422.049 652.357 422.948 651.397C425.279 654.717 427.913 657.765 430.059 661.229C437.547 673.317 442.729 687.986 446.693 701.592C459.219 676.642 472.039 651.84 485.147 627.192C477.751 625.257 471.124 621.739 464.749 617.62C461.809 620.742 458.883 623.869 455.531 626.561C441.243 638.039 422.671 642.733 404.587 640.683C384.556 638.412 367.57 628.487 355.062 612.846C347.576 625.837 339.034 638.398 330.962 651.043C339.233 650.515 347.517 650.758 355.797 650.569C365.481 650.347 380.834 649.507 390.053 650.687C393.336 651.108 396.377 652.157 398.394 654.953C399.958 657.12 400.4 659.99 399.912 662.58C399.421 665.184 398.109 667.519 396.534 669.615C392.529 674.945 388.089 680.043 383.88 685.217L358.328 716.678C325.457 757.661 292.283 798.401 258.807 838.892L242.568 858.437C237.522 864.602 227.609 878.552 221.392 882.464C219.369 883.737 216.837 884.475 214.461 883.891C212.52 883.413 210.658 882.097 209.707 880.316C208.487 878.032 208.978 875.258 209.498 872.852C211.06 865.639 213.571 858.548 215.879 851.546C219.456 840.754 223.098 829.984 226.806 819.237C238.642 784.674 250.934 750.18 262.265 715.453C252.286 715.769 242.309 716.171 232.337 716.658C226.767 716.905 221.075 717.403 215.504 717.169C213.661 717.092 211.553 716.939 209.885 716.114C207.721 715.043 206.091 712.684 205.312 710.457C204.629 708.503 204.467 706.452 204.986 704.441C206.981 696.731 214.837 681.602 218.392 673.95C227.754 653.554 237.275 633.231 246.951 612.982C243.327 611.086 239.869 608.889 236.612 606.415C228.799 611.277 220.145 614.828 210.911 615.667C196.074 617.014 184.031 612.042 172.824 602.631C162.28 605.509 151.425 605.542 141.279 601.043C130.952 596.507 122.862 588.038 118.805 577.514C114.611 566.095 115.138 553.476 120.269 542.447C125.604 531.054 134.902 524.111 146.491 519.841C146.062 502.866 151.696 486.467 160.982 472.374C172.683 454.603 190.942 442.186 211.769 437.834C214.61 422.736 221.582 410.712 234.317 401.769C248.051 392.124 263.393 389.294 279.76 392.092C282.522 387.227 286.165 382.7 289.881 378.524C306.412 359.853 329.722 348.566 354.62 347.177Z" fill="black"/>
<path d="M443.966 443.332C449.642 425.881 458.759 411.238 472.807 399.263C490.037 384.576 511.052 377.482 533.653 379.343C555.516 381.143 575.94 390.689 590.194 407.558C597.049 413.992 601.7 424.949 604.474 433.76C605.366 436.594 606.181 439.524 606.779 442.433C607.103 444.009 607.16 445.747 607.643 447.274C607.832 447.871 607.819 447.954 608.396 448.242L608.627 448.198C614.07 443.346 621.939 441.047 629.136 441.443C636.638 441.856 644.057 445.261 649.01 450.948C650.069 452.163 651.083 453.512 651.95 454.872C656.225 460.437 657.478 468.147 656.563 474.985C655.641 481.877 652.425 487.884 649.119 493.893C653.476 493.687 657.9 493.389 662.254 493.678C674.784 494.509 688.149 499.447 697.486 508.009C697.89 508.38 698.288 508.757 698.681 509.139C708.28 517.692 714.232 531.951 715.001 544.638C715.895 559.386 710.596 573.371 700.739 584.296C690.73 595.389 677.688 601.587 662.748 602.239C654.773 602.587 646.088 601.035 640.055 595.434C635.525 591.229 633.219 585.798 631.283 580.049C622.377 593.071 610.497 602.66 594.677 605.623C583.174 607.777 570.905 606.021 561.151 599.305C559.447 598.132 557.835 596.847 556.231 595.544C540.407 608.442 522.118 615.528 501.473 613.348C485.392 611.65 471.021 604.402 459.657 592.956C452.902 607.155 446.642 615.443 431.278 620.948C417.318 625.949 401.115 624.993 387.758 618.627C381.208 615.506 376.817 611.447 371.772 606.358C379.626 599.827 381.922 594.891 385.218 585.335C373.094 594.551 355.975 598.563 340.927 596.48C326.292 594.53 313.09 586.686 304.379 574.766C302.497 572.234 300.341 569.156 299.303 566.153C297.818 563.383 296.645 560.554 295.8 557.526L295.66 557.103C291.245 543.468 293.054 528.298 299.582 515.662C306.597 502.087 318.722 491.034 333.4 486.454C346.915 482.236 360.813 484.024 373.248 490.585C381.615 493.71 393.979 506.193 399.189 513.165C397.801 503.863 396.863 496.129 391.484 488.072C385.714 479.429 375.745 471.039 365.343 468.941C363.635 468.432 361.82 468.164 360.07 467.818C362.337 462.163 365.423 456.871 369.231 452.114C378.804 440.164 392.649 433.668 407.722 432.108C421.321 430.7 433.406 434.824 443.966 443.332Z" fill="#717071"/>
<path d="M698.68 509.146C708.279 517.699 714.231 531.958 715 544.646C715.894 559.394 710.595 573.378 700.738 584.303C690.73 595.396 677.688 601.595 662.747 602.247C654.772 602.595 646.087 601.042 640.055 595.441C635.525 591.237 633.218 585.806 631.282 580.056C622.376 593.078 610.497 602.668 594.676 605.63C583.173 607.784 570.905 606.029 561.15 599.312C559.447 598.139 557.834 596.854 556.23 595.551C540.406 608.449 522.118 615.535 501.473 613.355C485.391 611.657 471.021 604.409 459.656 592.963C452.901 607.162 446.641 615.45 431.277 620.955C417.318 625.957 401.115 625 387.757 618.634C381.207 615.513 376.816 611.454 371.771 606.366C379.625 599.835 381.921 594.899 385.218 585.342C373.093 594.558 355.975 598.57 340.927 596.488C326.292 594.537 313.089 586.693 304.378 574.773C302.496 572.241 300.34 569.163 299.303 566.16C301.624 567.427 303.731 569.756 305.784 571.473C308.715 573.918 311.816 576.151 315.064 578.156C327.581 585.847 342.516 589.64 356.97 586.159C372.579 582.401 385.444 571.72 393.75 558.236C397.392 562.114 401.587 565.432 406.202 568.08C419.419 575.654 435.134 577.571 449.784 573.396C464.832 569.218 476.974 559.653 484.581 546.14C488.977 549.2 493.402 551.76 498.393 553.741C513.61 559.826 530.639 559.502 545.614 552.843C560.152 546.433 569.332 535.357 574.919 520.758C578.032 525.463 581.636 529.321 586.242 532.605C596.676 540.044 609.412 544.052 622.23 541.844C634.053 539.809 644.066 533.27 650.945 523.484C653.445 528.515 656.139 532.99 660.701 536.42C665.804 540.256 672.198 542.045 678.541 541.085C684.986 540.111 690.805 536.362 694.607 531.1C699.48 524.354 699.916 517.096 698.68 509.146Z" fill="#45403F"/>
<path d="M443.966 443.332C449.643 425.881 458.759 411.238 472.807 399.263C490.037 384.576 511.052 377.482 533.654 379.343C555.516 381.143 575.94 390.689 590.194 407.558C590.079 407.546 589.962 407.546 589.85 407.52C589.523 407.444 576.204 399.365 573.716 398.133C547.893 385.335 517.604 384.811 491.881 398.336C472.805 408.225 458.543 425.414 452.345 445.987C451.466 448.846 450.743 451.783 450.124 454.71C436.927 444.853 424.128 440.536 407.518 443.012C389.713 445.665 376.542 455.333 365.343 468.941C363.635 468.432 361.82 468.164 360.07 467.818C362.337 462.163 365.423 456.871 369.231 452.114C378.804 440.164 392.649 433.668 407.722 432.108C421.321 430.7 433.406 434.824 443.966 443.332Z" fill="#EEEEF0"/>
<path d="M295.8 557.527L295.66 557.103C291.245 543.469 293.054 528.299 299.582 515.663C306.597 502.088 318.722 491.035 333.4 486.455C346.915 482.237 360.813 484.025 373.248 490.586L372.627 490.576C368.669 490.482 364.821 490.01 360.823 490.125C345.33 490.571 329.695 495.904 318.239 506.639C308.69 515.588 301.227 529.203 298.185 541.886C297.271 545.644 296.71 549.479 296.51 553.341C296.464 554.12 296.598 556.666 296.23 557.254C296.14 557.398 295.944 557.436 295.8 557.527Z" fill="#EEEEF0"/>
<path d="M608.626 448.207C614.07 443.355 621.939 441.056 629.136 441.452C636.638 441.865 644.057 445.27 649.01 450.957C650.069 452.172 651.083 453.521 651.95 454.881C649.093 454.67 642.389 450.752 637.33 449.971C627.147 448.399 617.908 451.582 609.727 457.55C609.591 454.519 609.618 451.094 608.626 448.207Z" fill="#EEEEF0"/>
<path d="M513.296 403.648C513.632 403.627 513.969 403.61 514.306 403.597C517.205 403.499 519.679 404.307 521.791 406.356C523.415 407.932 524.564 410.116 524.477 412.422C524.187 420.222 510.006 422.574 504.239 425.193C497.369 428.315 491.436 433.111 486.55 438.843C483.934 441.911 481.52 445.191 478.642 448.021C477.857 448.575 477.031 449.045 476.09 449.278C474.655 449.634 472.911 449.567 471.664 448.699C470.126 447.628 469.065 446.049 468.746 444.199C467.861 439.063 471.52 432.895 474.479 428.937C482.854 417.734 499.236 405.72 513.296 403.648Z" fill="#EEEEF0"/>
<path d="M588.503 455.735C592.864 455.365 597.594 455.933 601.468 458.047C608.267 461.756 611.301 468.625 613.389 475.697C622.188 474.581 630.155 475.802 637.414 481.174C646.021 487.544 648.969 494.467 650.478 504.7C647.871 499.666 645.047 496.01 640.491 492.585C637.529 490.543 634.035 489.027 630.556 488.136C620.72 485.614 610.594 488.295 602.035 493.338C602.506 485.589 602.597 476.996 597.338 470.672C591.209 463.3 581.601 462.296 572.676 461.532C577.908 458.213 582.289 456.275 588.503 455.735Z" fill="black"/>
<path d="M489.018 485.358C490.852 485.306 492.709 485.535 494.537 485.681C480.326 493.158 472.759 506.325 467.116 520.81C463.574 519.862 460.228 519.184 456.547 519.231C446.791 519.353 436.959 523.875 430.187 530.826C429.136 532.252 428.11 533.697 427.108 535.158C427.813 528.831 429.532 523.547 433.686 518.626C440.855 510.133 449.743 507.436 460.442 506.527C462.203 503.71 464.038 500.943 466.165 498.386C472.115 491.23 479.603 486.207 489.018 485.358Z" fill="black"/>
<path d="M340.828 506.319C341.924 506.197 343.008 506.147 344.102 506.341C346.412 506.749 349.087 508.505 350.319 510.512C351.004 511.628 351.197 512.85 350.854 514.118C349.054 520.763 338.969 522.553 334.615 527.265C330.42 531.808 329.964 538.402 324.357 541.862C324.212 541.912 324.069 541.967 323.923 542.011C321.951 542.601 318.937 542.745 317.08 541.739C315.901 541.102 315.159 540.069 314.82 538.782C313.548 533.96 316.476 527.216 318.937 523.14C323.635 515.363 331.968 508.564 340.828 506.319Z" fill="#EEEEF0"/>
<path d="M288.797 414.813C293.487 399.363 304.134 386.499 317.416 377.518C333.859 366.397 355.333 362.328 374.774 366.248C392.713 369.864 411.755 380.725 422.072 396.149C426.984 401.582 430.797 410.72 432.687 417.695C414.624 412.146 394.161 414.358 377.517 423.237C359.564 432.816 349.169 448.764 342.636 467.563C323.326 469.265 307.076 477.498 294.609 492.449C289.342 498.765 285.329 505.75 281.781 513.132C280.232 517.969 278.572 522.793 277.633 527.795C274.6 543.943 277.567 561.548 285.053 576.088C289.46 584.647 295.842 592.762 303.47 598.7C289.185 604.934 273.933 605.882 259.296 600.06C249.74 596.258 242.56 590.371 236.669 581.988C230.891 590.413 223.072 596.324 212.857 598.179C204.424 599.711 195.465 598.435 188.397 593.398C183.95 590.284 180.496 585.952 178.449 580.924C170.891 586.147 162.69 588.895 153.428 587.18C146.837 585.902 141.022 582.067 137.252 576.513C133.362 570.7 131.941 563.58 133.301 556.719C134.005 553.092 135.462 549.876 137.394 546.751C138.785 544.522 140.726 542.467 142.777 540.828C149.257 535.645 156.869 534.853 164.862 535.681C164.301 532.713 163.924 529.714 163.734 526.7C163.696 525.811 163.667 524.922 163.647 524.032C163.2 504.82 169.005 487.173 182.498 473.169C195.349 459.832 210.433 453.513 228.789 453.151C227.239 443.39 228.871 433.821 234.351 425.497C240.064 416.818 249.579 410.927 259.696 408.874C270.636 406.655 279.586 408.757 288.797 414.813Z" fill="#717071"/>
<path d="M210.367 538.092C215.666 541.284 221.254 542.537 227.401 542.665C243.469 542.998 258.721 536.223 270.321 525.295C274.258 521.586 277.505 517.222 281.407 513.487L281.781 513.133C280.232 517.97 278.572 522.793 277.632 527.795C274.6 543.943 277.567 561.548 285.053 576.088C289.46 584.648 295.841 592.762 303.47 598.7C289.185 604.934 273.933 605.882 259.295 600.06C249.74 596.259 242.559 590.372 236.669 581.989C230.891 590.413 223.072 596.324 212.857 598.18C204.424 599.712 195.465 598.436 188.397 593.398C183.95 590.284 180.496 585.953 178.449 580.924C170.891 586.147 162.69 588.896 153.428 587.18C146.837 585.902 141.022 582.068 137.252 576.514C133.362 570.701 131.941 563.58 133.301 556.719C134.005 553.092 135.462 549.877 137.394 546.751C138.091 548.417 138.48 550.221 139.205 551.883C140.87 555.696 144.927 558.917 148.736 560.368C153.233 562.032 158.21 561.834 162.56 559.815C169.193 556.719 172.509 550.824 174.809 544.21C177.893 548.247 181.514 551.556 186.443 553.143C190.894 554.576 195.974 554.287 200.134 552.106C206.057 549.001 208.373 544.098 210.367 538.092Z" fill="#45403F"/>
<path d="M288.798 414.813C293.487 399.363 304.135 386.499 317.416 377.518C333.859 366.397 355.334 362.328 374.774 366.248C392.714 369.864 411.755 380.725 422.073 396.149C421.935 396.111 421.794 396.083 421.659 396.036C419.871 395.413 418.04 394.022 416.413 393.043C412.272 390.551 408.161 387.905 403.875 385.669C399.632 383.455 395.186 381.876 390.658 380.355C371.418 373.892 352.636 373.95 333.86 382.168C313.874 390.916 302.258 405.912 294.548 425.814L294.375 426.262C283.383 420.542 272.376 417.45 260.131 421.279C250.953 424.15 243.015 430.366 238.575 438.97C235.189 445.535 234.563 452.812 235.766 460.031C214.392 461.706 196.726 470.012 182.676 486.453C175.044 495.254 169.499 505.664 166.455 516.908C165.643 519.887 165.435 524.258 164.057 526.915L163.735 526.7C163.697 525.811 163.668 524.922 163.648 524.032C163.201 504.82 169.006 487.173 182.499 473.169C195.35 459.832 210.433 453.513 228.79 453.151C227.239 443.39 228.872 433.821 234.351 425.497C240.065 416.818 249.58 410.927 259.697 408.874C270.636 406.655 279.587 408.757 288.798 414.813Z" fill="#EEEEF0"/>
<path d="M294.543 459.51C301.614 458.78 307.302 460.029 313.648 463.064C309.64 463.772 305.928 464.928 302.181 466.518C285.45 473.616 273.959 484.987 267.172 501.82C254.975 498.643 244.391 499.712 233.021 505.126C227.921 507.824 224.015 511.07 220.564 515.68C222.235 510.398 224.515 505.844 228.287 501.737C236.72 492.556 247.427 488.415 259.69 487.912C261.146 483.698 263.092 479.694 265.777 476.121C272.781 466.802 283.071 461.12 294.543 459.51Z" fill="black"/>
<path d="M347.927 389.872C348.819 389.821 349.645 389.828 350.532 389.951C353.251 390.327 355.698 391.587 357.305 393.856C358.405 395.409 359.072 397.22 358.65 399.13C358.167 401.318 356.427 403.129 354.695 404.436C349.999 407.98 343.954 409.271 339.033 412.448C334.199 415.569 330.513 420.25 325.656 423.289C325.052 423.517 324.458 423.693 323.822 423.806C321.875 424.15 319.869 423.84 318.251 422.659C316.506 421.384 315.272 419.442 314.975 417.297C314.506 413.915 316.51 410.142 318.506 407.515C323.944 400.359 338.903 391.125 347.927 389.872Z" fill="#EEEEF0"/>
<path d="M558.958 683.048L559.311 682.732C564.341 678.183 568.556 672.417 572.735 667.095C581.358 656.111 589.483 644.771 597.658 633.453C600.469 629.561 604.509 622.588 607.876 619.624C610.845 617.011 616.895 615.313 620.537 612.958C623.033 611.345 626.387 608.045 629.308 607.69C629.459 608.699 627.129 611.444 626.476 612.332C622.512 617.715 618.231 622.886 614.157 628.189L587.034 663.828C580.959 671.903 574.712 680.049 569.274 688.569C574.458 689.24 579.94 688.916 585.168 688.918L612.113 688.916L635.651 688.9L507.394 835.607C495.23 849.465 482.805 863.057 470.491 876.778C465.585 882.245 461.064 889.118 455.334 893.699C454.729 894.619 453.913 895.475 453.211 896.327C456.195 888.605 460.153 881.078 463.667 873.57C470.599 858.897 477.383 844.154 484.017 829.343C494.409 805.431 504.983 781.599 515.738 757.848C521.674 744.556 527.131 730.815 534.006 717.986C507.942 717.369 481.714 717.764 455.638 717.919C456.401 716.462 457.196 715.069 458.076 713.68C472.488 685.862 486.606 657.943 501.4 630.32C523.499 630.702 538.737 627.681 557.741 615.842C563.02 618.214 568.192 620.129 573.833 621.483C583.411 623.015 593.192 623.558 602.611 620.739C587.207 640.938 573.207 662.048 558.958 683.048Z" fill="#FED200"/>
<path d="M612.113 688.918L635.651 688.902L507.394 835.609C495.23 849.467 482.806 863.059 470.491 876.78C465.585 882.247 461.064 889.12 455.334 893.701C456.751 890.398 460.247 887.182 462.374 884.163C473.81 867.929 485.903 852.461 498.257 836.919C504.059 829.619 509.661 822.114 515.693 815.004C517.737 811.445 520.353 808.104 522.75 804.77C528.326 797.086 534.022 789.492 539.837 781.988C550.294 768.227 561.097 754.839 571.759 741.247C575.08 737.014 578.195 732.628 581.512 728.396C589.288 718.476 597.005 709.086 604.582 698.937C606.468 695.178 609.387 692.078 612.113 688.918Z" fill="#FC1013"/>
<path d="M560.362 682.613L569.273 658.215C574.302 653.666 568.555 672.417 572.734 667.095C581.357 656.111 589.482 644.771 597.657 633.453C600.468 629.561 604.508 622.588 607.875 619.624C610.844 617.011 616.894 615.313 620.536 612.958C623.032 611.345 626.386 608.045 629.307 607.69C629.458 608.699 627.128 611.444 626.475 612.332C622.511 617.715 618.23 622.886 614.156 628.188L587.033 663.828C580.958 671.903 574.711 680.049 569.273 688.569C564.861 687.884 560.114 688.209 555.644 688.181L535.922 687.893L563.959 639.261C567.228 633.457 571.333 627.637 573.832 621.483C583.41 623.015 594.596 623.123 604.015 620.304C599.062 644.684 574.611 661.614 560.362 682.613Z" fill="#FC1013"/>
<path d="M458.076 713.681C460.386 714.352 467.904 713.007 470.938 712.857C496.044 711.62 521.364 711.681 546.505 711.67C543.621 713.477 537.159 716.885 534.007 717.987C507.943 717.371 481.715 717.766 455.638 717.92C456.401 716.464 457.196 715.071 458.076 713.681Z" fill="#FA8100"/>
<path d="M547.821 718.237C548.419 718.243 549.358 718.207 549.921 718.434C550.841 718.805 550.954 719.041 551.301 719.889C551.09 722.675 545.954 731.224 544.441 734.292C533.086 757.319 521.634 780.149 509.26 802.646C504.88 810.612 500.841 819.058 495.805 826.618C495.117 827.248 495.11 827.356 494.192 827.404L493.559 826.787C492.484 823.378 497.085 815.153 498.645 811.691C507.513 792.02 517.179 772.724 526.385 753.21L534.454 735.775C536.41 731.539 538.281 726.797 541.031 723.017C542.907 720.439 544.925 719.333 547.821 718.237Z" fill="#FEFE91"/>
<path d="M509.27 636.835C510.738 636.845 511.766 637.026 512.853 638.066C513.151 638.757 513.362 639.327 513.228 640.091C512.094 646.575 499.739 665.806 496.008 672.468C489.852 683.459 483.476 696.327 476.466 706.618C475.204 708.471 473.595 709.856 471.783 711.137C471.189 711.216 470.375 711.338 469.779 711.181C468.779 710.919 468.673 710.727 468.188 709.89C468.204 708.692 468.584 707.718 469.031 706.621C470.944 701.924 473.644 697.345 475.987 692.842C480.632 683.857 485.371 674.922 490.201 666.036C493.677 659.528 497.271 653.085 500.981 646.708C502.457 644.162 503.891 641.156 505.746 638.886C506.625 637.808 508.02 637.353 509.27 636.835Z" fill="#FEFE91"/>
<path d="M568.349 692.179C572.399 692.112 585.488 691.188 588.759 692.881C589.513 693.271 589.808 693.577 590.11 694.355L589.621 695.069C585.258 697.419 578.791 697.35 573.892 697.738C568.416 698.285 558.143 699.385 553.409 696.445C552.619 695.954 552.325 695.65 552.139 694.751C552.214 694.641 552.276 694.521 552.364 694.422C554.817 691.635 564.792 692.264 568.349 692.179Z" fill="#FEFE91"/>
<path d="M320.585 607.386C326.235 609.786 331.477 611.213 337.546 612.149C334.515 618.141 330.677 623.803 327.112 629.491C319.239 642.051 310.989 654.346 303.009 666.835C320.81 665.935 338.644 666.207 356.46 665.81C364.828 665.577 373.199 665.47 381.571 665.489C369.978 678.395 359.316 692.4 348.369 705.863C323.469 736.487 299.003 767.467 273.851 797.887L253.671 822.588C249.809 827.336 245.848 832.929 241.296 837.002C237.822 841.442 234.399 845.921 231.029 850.44L266.929 748.469C270.482 738.302 273.974 728.113 277.405 717.904C279.547 711.588 281.531 705.171 284.029 698.987C279.503 699.459 274.77 699.344 270.212 699.556L243.015 700.959C235.936 701.321 228.793 701.544 221.753 702.402C222.591 700.945 223.397 699.496 224.409 698.15C228.106 690.583 231.359 682.745 234.826 675.066C243.419 656.034 252.073 636.803 261.881 618.358C282.511 622.371 298.173 620.836 316.61 610.382C317.857 609.254 319.2 608.331 320.585 607.386Z" fill="#FED200"/>
<path d="M356.463 665.814C364.831 665.582 373.203 665.475 381.574 665.493C369.981 678.4 359.319 692.405 348.372 705.868C323.472 736.491 299.006 767.472 273.854 797.892L253.674 822.592C249.812 827.341 245.851 832.934 241.298 837.007C242.953 833.28 245.814 829.745 248.134 826.397L260.229 809.009C268.773 796.588 277.05 783.985 285.052 771.209C295.596 755.336 305.222 738.92 316.16 723.291C321.654 715.44 327.043 707.448 332.785 699.779C338.9 691.614 345.351 683.751 350.959 675.211C352.337 671.86 354.446 668.806 356.463 665.814Z" fill="#FC1013"/>
<path d="M320.587 607.386C326.237 609.786 331.479 611.213 337.548 612.149C334.517 618.141 330.679 623.802 327.114 629.49C319.241 642.051 310.991 654.346 303.01 666.835C297.282 668.113 291.608 669.431 286.046 671.325C288.668 666.312 290.942 661.062 293.417 655.968C297.147 648.396 300.946 640.859 304.814 633.357C308.358 626.378 313.989 617.307 316.612 610.382C317.859 609.254 319.202 608.331 320.587 607.386Z" fill="#FC1013"/>
<path d="M224.409 698.146C246.939 694.813 269.678 693.096 292.454 693.009C289.443 694.723 286.601 696.651 284.029 698.983C279.504 699.454 274.77 699.339 270.212 699.552L243.015 700.955C235.936 701.317 228.793 701.539 221.753 702.398C222.591 700.941 223.397 699.492 224.409 698.146Z" fill="#FA8100"/>
<path d="M297.977 698.583C298.571 698.522 299.214 698.428 299.81 698.467C300.735 698.527 301.031 698.832 301.574 699.526C301.772 701.257 300.827 703.425 300.221 705.047C296.989 713.711 293.061 722.228 289.39 730.72C283.875 743.782 278.142 756.752 272.195 769.624C268.434 777.751 265.341 786.489 260.742 794.163C260.424 794.512 260.226 794.728 259.781 794.918C259.332 795.11 259.199 794.93 258.771 794.762C258.527 794.352 258.47 794.302 258.311 793.792C257.864 792.36 258.597 790.38 259.015 788.998C263.234 775.018 269.88 759.434 275.203 745.64C280.573 731.727 285.489 717.315 291.661 703.761C293.143 700.508 294.773 699.775 297.977 698.583Z" fill="#FEFE91"/>
<path d="M270.78 624.778C271.193 624.794 271.654 624.789 272.062 624.884C272.968 625.096 273.35 625.361 273.876 626.103C273.852 626.222 273.835 626.343 273.804 626.46C272.861 629.984 267.805 638.785 265.886 642.743L252.904 669.972C250.556 674.806 248.192 680.234 245.19 684.677C243.983 686.463 242.536 687.733 240.643 688.747C239.567 688.762 238.889 688.757 237.902 688.238C237.409 687.113 237.742 686.337 238.12 685.198C239.668 680.537 242.093 675.989 244.162 671.533C248.131 662.935 252.206 654.387 256.388 645.891C259.027 640.546 261.487 634.289 264.938 629.463C266.514 627.26 268.404 625.964 270.78 624.778Z" fill="#FEFE91"/>
<path d="M422.143 669.717C423.296 671.375 424.26 673.118 425.238 674.882C432.124 687.103 442.419 713.56 438.391 727.343C437.063 731.888 434.174 735.728 429.923 737.914C425.484 740.197 419.603 740.703 414.877 739.072C410.696 737.63 407.064 734.577 405.146 730.564C401.156 722.208 404.607 705.35 407.697 697.073C409.651 691.84 412.457 685.527 415.688 680.978C417.707 677.152 419.953 673.447 422.143 669.717Z" fill="#00CAF6"/>
<path d="M422.14 669.717C423.293 671.375 424.257 673.118 425.236 674.882C423.758 680.364 422.484 685.947 421.914 691.605C421.262 698.077 423.128 718.48 416.901 721.731C415.357 722.538 413.45 722.363 411.861 721.768C410.585 721.291 409.631 720.491 409.1 719.226C408.243 717.182 408.365 714.197 408.314 712.001C408.119 703.598 409.982 697.525 413.006 689.779C414.088 687.006 415.498 683.96 415.685 680.978C417.704 677.152 419.95 673.447 422.14 669.717Z" fill="#95F3FD"/>
<path d="M366.652 751.238C369.035 753.827 371.285 758.752 373.086 761.908C384.229 781.432 395.696 807.213 395.232 830.155C395.019 840.681 392.051 851.519 384.179 858.919C377.112 865.562 368.547 867.972 359.008 867.64C352.915 867.194 347.226 864.986 342.26 861.464C335.375 856.582 330.847 849.633 329.468 841.265C328.622 836.122 328.854 830.73 329.458 825.574C332.745 797.549 350.689 773.467 366.652 751.238Z" fill="black"/>
<path d="M360.632 778.553C361.633 776.954 362.645 775.361 363.67 773.777C364.368 772.718 365.25 771.129 366.547 770.86L367.013 771.932C370.35 778.334 373.356 785.261 375.964 791.992C382.099 806.886 388.204 828.347 381.626 843.843C379.44 848.995 375.376 853.577 370.126 855.695C366.248 857.26 362.377 857.336 358.269 856.989C354.153 856.24 350.304 854.979 347.026 852.292C342.524 848.602 340.173 843.052 339.643 837.349C338.106 820.794 345.082 804.506 353.024 790.409C355.299 786.371 357.673 782.126 360.632 778.553Z" fill="#00CAF6"/>
<path d="M360.634 778.553C361.635 776.954 362.648 775.361 363.673 773.777C364.37 772.718 365.252 771.129 366.549 770.86L367.015 771.932C366.993 772.036 366.97 772.14 366.95 772.243C366.213 776.02 366.528 779.966 365.742 783.729C363.832 792.882 360.755 801.292 359.786 810.709C359.006 818.272 360.316 826.17 359.151 833.633C358.863 835.481 358.302 837.182 356.716 838.316C355.376 839.273 353.775 839.39 352.199 839.078C349.891 838.62 348.041 837.359 346.256 835.889C343.5 815.164 349.599 806.754 357.084 788.561C358.313 785.572 360.372 781.776 360.634 778.553Z" fill="#95F3FD"/>
<path d="M375.964 792.002C382.099 806.896 388.204 828.357 381.627 843.853C379.441 849.005 375.376 853.587 370.127 855.705C366.249 857.27 362.378 857.346 358.27 856.999L359.479 856.564L360.352 857.134C359.78 856.651 357.029 857.149 356.561 856.564C359.479 854.666 362.376 851.7 363.956 850.586C366.788 848.59 369.079 845.888 371.013 843.037C378.73 831.669 378.227 818.432 376.947 805.316C376.552 801.265 375.186 796.362 375.893 792.364C375.915 792.242 375.941 792.123 375.964 792.002Z" fill="#0078B0"/>
<path d="M650.112 721.87C650.257 722.008 650.412 722.136 650.547 722.284C652.703 724.647 654.606 728.38 656.272 731.164C665.848 747.155 676.624 770.745 675.378 789.615C674.839 797.781 672.352 805.729 666.003 811.229C659.757 816.638 652.362 818.56 644.253 818.039C638.277 817.269 632.98 815.336 628.258 811.517C622.357 806.745 618.898 800.051 618.155 792.518C615.692 767.559 635.049 740.384 650.112 721.87Z" fill="black"/>
<path d="M649.086 740.461C649.999 742.009 650.751 743.661 651.546 745.272C658.825 758.662 668.381 779.454 663.975 794.721C662.592 799.513 659.754 803.824 655.239 806.185C650.731 808.542 645.234 808.719 640.454 807.096C635.836 805.566 632.033 802.235 629.908 797.859C626.287 790.403 628.865 778.771 631.569 771.313C634.05 764.466 638.712 754.91 643.305 749.271C645.19 746.307 647.118 743.37 649.086 740.461Z" fill="#00CAF6"/>
<path d="M649.086 740.461C649.999 742.009 650.751 743.661 651.546 745.272C649.87 752.441 646.657 759.615 645.708 766.882C644.922 772.894 645.702 779.206 645.518 785.272C645.439 787.888 645.817 791.82 643.264 793.402C641.669 794.389 638.954 794.904 637.114 794.476C636.003 794.217 635.118 793.558 634.555 792.564C631.838 787.77 634.484 774.617 636.127 769.426C637.476 765.162 643.291 752.466 643.305 749.271C645.19 746.307 647.117 743.37 649.086 740.461Z" fill="#95F3FD"/>
<path d="M182.541 696.386C182.659 696.49 182.786 696.585 182.895 696.699C185.061 698.946 186.832 702.807 188.337 705.597C196.756 721.211 206.466 745.604 205.894 763.468C205.63 771.705 203.047 779.229 196.901 784.916C190.838 790.527 183.064 792.472 174.972 792.193C169.365 791.602 164.138 789.681 159.824 785.963C154.301 781.204 151.177 773.655 150.648 766.48C148.754 740.745 166.476 714.916 182.541 696.386Z" fill="black"/>
<path d="M169.015 733.734C172.248 726.866 176.613 720.442 180.897 714.197L182.204 717.479C188.713 730.285 198.892 756.227 194.258 770.135C192.842 774.383 190.096 778.142 186.035 780.188C181.89 782.276 176.269 782.764 171.857 781.251C167.657 779.812 164.222 776.727 162.344 772.704C158.283 763.918 161.407 751.32 164.712 742.775C165.906 739.653 167.345 736.63 169.015 733.734Z" fill="#00CAF6"/>
<path d="M169.015 733.734C172.248 726.866 176.613 720.442 180.897 714.197L182.204 717.479C180.495 724.939 178.275 732.862 178.109 740.533C177.981 746.479 179.256 753.913 178.384 759.585C178.053 761.74 177.178 763.937 175.277 765.164C173.836 766.095 171.872 766.323 170.233 765.882C169.442 765.668 168.656 765.393 167.888 765.11C163.924 756.866 165.328 748.95 167.602 740.448C168.156 738.378 169.143 735.867 169.015 733.734Z" fill="#95F3FD"/>
<path d="M581.303 798.06C581.443 798.183 581.603 798.287 581.725 798.429C583.721 800.737 585.198 804.841 586.526 807.657C593.011 821.396 601.361 841.048 599.497 856.391C598.523 864.403 594.955 871.9 588.48 876.895C582.909 881.195 576.361 882.381 569.497 881.49C565.32 880.779 561.419 878.932 558.221 876.152C553.466 871.97 550.898 865.608 550.529 859.362C549.299 838.539 567.989 813.081 581.303 798.06Z" fill="black"/>
<path d="M571.455 827.523C573.884 823.716 576.345 819.303 579.368 815.962C579.981 816.538 580.156 817.518 580.427 818.308C585.602 831.093 593.338 847.896 587.653 861.569C585.984 865.584 583.213 869.263 579.032 870.858C575.464 872.22 571.191 871.916 567.782 870.233C564.698 868.71 562.469 866.131 561.424 862.853C558.316 853.106 564.001 840.547 568.639 832.104C569.493 830.549 570.415 828.963 571.455 827.523Z" fill="#00CAF6"/>
<path d="M571.456 827.523C573.885 823.716 576.346 819.303 579.369 815.962C579.982 816.538 580.157 817.518 580.428 818.308C578.322 825.719 576.216 833.318 575.5 841.007C575.013 846.229 575.427 852.091 574.349 857.178C574.043 858.615 573.61 860.294 572.256 861.078C570.803 861.918 568.655 861.953 567.086 861.448C565.406 860.908 563.911 859.53 563.219 857.911C561.784 854.557 562.708 849.418 564.176 846.241C567.043 840.035 571.368 834.844 571.456 827.523Z" fill="#95F3FD"/>
<path d="M151.371 615.473C151.467 615.56 151.568 615.641 151.659 615.733C161.405 625.522 173 657.552 173.264 671.059C173.411 678.579 170.725 685.466 165.432 690.836C160.201 696.142 153.741 698.086 146.442 698.161C141.04 697.649 135.877 696.059 131.78 692.356C126.986 688.021 124.728 681.657 124.535 675.302C124.102 661.05 132.952 640.787 140.727 628.834C143.862 624.015 147.432 619.651 151.371 615.473Z" fill="black"/>
<path d="M135.979 665.283C138.964 653.087 144.089 642.527 150.436 631.804C151.968 634.825 153.306 637.938 154.674 641.035C158.889 651.042 165.948 667.704 161.539 678.19C159.955 681.958 157.055 685.103 153.228 686.634C149.66 688.062 144.922 688.242 141.371 686.679C138.541 685.432 136.563 683.067 135.57 680.166C134.051 675.723 134.545 669.704 135.979 665.283Z" fill="#00CAF6"/>
<path d="M135.977 665.283C138.962 653.087 144.087 642.527 150.434 631.804C151.966 634.825 153.304 637.938 154.672 641.035C150.451 650.638 149.04 657.062 149.224 667.556C149.275 670.524 149.787 674.36 149.007 677.233C148.672 678.465 147.54 679.205 146.424 679.654C144.667 680.362 142.068 680.591 140.321 679.742C138.828 679.016 138.045 677.129 137.592 675.64C136.57 672.273 136.561 668.731 135.977 665.283Z" fill="#95F3FD"/>
<path d="M688.409 622.295C698.012 631.596 710.567 663.167 711.415 676.776C711.891 684.43 709.931 691.916 704.725 697.694C700.09 702.838 694.587 705.267 687.714 705.67C681.657 705.405 676.229 703.539 671.773 699.326C667.062 694.873 664.574 688.799 664.41 682.355C663.975 665.2 676.75 634.723 688.409 622.295Z" fill="black"/>
<path d="M685.588 643.932C686.416 642.247 687.181 640.475 688.159 638.873C689.105 640.924 690.127 642.969 690.97 645.064L691.582 646.719C696.328 656.832 704.238 674.613 700.298 685.541C698.938 689.312 696.137 692.593 692.429 694.21C689.104 695.66 685.343 695.519 682.026 694.112C679.003 692.83 676.584 690.51 675.44 687.407C673.336 681.692 674.647 675.845 676.09 670.173C678.578 661.143 681.639 652.427 685.588 643.932Z" fill="#00CAF6"/>
<path d="M685.588 643.932C686.415 642.247 687.181 640.475 688.159 638.873C689.105 640.924 690.127 642.969 690.97 645.064L691.582 646.719C691.534 646.81 691.484 646.9 691.439 646.991C689.044 651.854 687.389 666.236 687.098 671.874C686.928 675.151 687.51 680.164 686.309 683.18C686.018 683.91 685.179 684.551 684.443 684.776C682.969 685.226 680.45 684.7 679.212 683.834C677.455 682.604 676.917 680.142 676.639 678.16C676.27 675.542 676.635 672.744 676.09 670.173C678.578 661.143 681.639 652.427 685.588 643.932Z" fill="#95F3FD"/>
<path d="M685.587 643.932C686.415 642.247 687.18 640.475 688.158 638.873C689.104 640.924 690.126 642.969 690.969 645.064C690.104 645.381 689.35 645.625 688.416 645.576C687.133 645.507 686.414 644.837 685.587 643.932Z" fill="#95F3FD"/>
<path d="M444.049 751.55C445.423 753.2 446.559 755.401 447.67 757.238C455.158 769.625 463.073 788.244 462.576 802.711C462.315 810.335 459.533 818.566 453.8 823.83C448.845 828.38 443.038 829.396 436.558 829.153C432.046 828.362 427.972 826.8 424.515 823.695C419.737 819.402 417.687 813.235 417.396 806.956C416.505 787.664 431.475 765.284 444.049 751.55Z" fill="black"/>
<path d="M431.125 790.177C433.54 784.329 438.403 773.683 442.535 769.204C443.136 769.554 443.386 770.479 443.687 771.109C448.668 782.48 455.707 797.501 450.85 809.887C449.507 813.312 447.281 816.695 443.84 818.274C441.049 819.554 437.913 819.429 435.118 818.234C432.039 816.901 429.619 814.394 428.393 811.271C425.881 805.022 427.977 796.933 430.689 791.079C430.83 790.775 430.975 790.476 431.125 790.177Z" fill="#00CAF6"/>
<path d="M431.122 790.177C433.537 784.329 438.399 773.683 442.532 769.204C443.133 769.554 443.382 770.479 443.684 771.109C443.07 777.855 441.339 784.419 440.372 791.106C439.768 795.29 439.83 799.605 439.137 803.759C438.972 804.75 439.004 805.168 438.22 805.865C437.219 806.754 435.552 806.976 434.264 806.854C432.995 806.732 431.868 806.289 431.109 805.222C428.401 801.416 431.094 794.474 431.122 790.177Z" fill="#95F3FD"/>
<path d="M208.374 623.636C208.553 623.776 208.746 623.9 208.913 624.056C209.677 624.77 210.363 625.996 210.976 626.857C215.27 632.9 217.735 640 217.824 647.43C217.932 656.506 215.322 669.204 208.62 675.835C204.957 679.46 201.161 680.033 196.256 679.957C194.164 679.523 192.383 678.806 190.735 677.409C187.882 674.99 186.728 671.656 186.456 668.007C185.338 653.074 199.005 634.665 208.374 623.636Z" fill="black"/>
<path d="M202.035 649.635L207.124 641.613C207.449 643.664 207.661 645.69 207.818 647.76C207.815 654.406 206.011 663.515 201.01 668.301C200.111 669.162 199.353 669.654 198.093 669.789C197.27 669.361 197.104 669.265 196.769 668.336C195.272 664.183 199.561 653.692 201.784 650.005C201.861 649.876 201.952 649.758 202.035 649.635Z" fill="#00CAF6"/>
<path d="M202.037 649.635L207.125 641.613C207.451 643.664 207.663 645.69 207.82 647.76C206.796 648.803 205.58 650.464 203.96 650.329C203.273 650.272 202.646 649.927 202.037 649.635Z" fill="#95F3FD"/>
<path d="M420.348 837.389C420.457 837.509 420.58 837.617 420.675 837.749C421.474 838.853 421.952 841.051 422.327 842.389C425.082 852.228 424.484 862.739 422.002 872.564C420.043 880.316 415.664 891.758 408.263 895.908C405.328 897.553 402.758 897.568 399.594 896.671C399.298 896.496 398.999 896.326 398.717 896.133C396.513 894.626 395.258 892.159 394.826 889.571C392.197 873.804 411.246 849.775 420.348 837.389Z" fill="black"/>
<path d="M330.347 866.68C330.383 866.726 330.425 866.769 330.455 866.82C334.661 873.805 333.233 891.01 331.038 898.63C328.894 906.073 323.902 918.147 316.656 921.961C313.784 923.473 311.302 923.455 308.281 922.456C307.874 922.159 307.469 921.867 307.083 921.543C305.185 919.951 304.38 917.507 304.216 915.092C303.169 899.603 320.491 878.069 330.347 866.68Z" fill="black"/>
<path d="M532.697 853.625C532.759 853.716 532.835 853.798 532.882 853.897C533.475 855.16 533.671 856.896 533.911 858.264C535.635 868.063 534.286 878.962 530.629 888.176C528.259 894.146 524.113 903.477 517.705 906.075C515.067 907.144 512.799 906.855 510.247 905.762C508.047 903.925 507.098 901.99 506.873 899.108C505.693 884.052 523.343 864.485 532.697 853.625Z" fill="black"/>
<path d="M296.866 830.131C296.984 830.258 297.123 830.368 297.218 830.513C297.709 831.258 297.919 832.763 298.127 833.669C300.012 841.904 299.116 851.474 296.686 859.501C294.86 865.531 291.1 874.806 285.122 877.816C282.405 879.183 280.274 878.901 277.497 877.904C275.545 876.471 274.51 874.78 274.159 872.356C272.385 860.085 289.803 839.425 296.866 830.131Z" fill="black"/>
<path d="M213.519 792.244C213.604 792.374 213.693 792.501 213.775 792.633C217.06 797.882 216.194 808.498 214.729 814.199C213.216 820.082 209.62 829.257 204.068 832.387C201.774 833.681 200.041 833.502 197.592 832.767C197.507 832.713 197.42 832.66 197.334 832.605C195.715 831.549 194.697 830.129 194.327 828.214C192.54 818.957 208.056 799.893 213.519 792.244Z" fill="black"/>
<path d="M695.371 712.647C695.405 712.688 695.444 712.725 695.473 712.769C699.256 718.437 700.256 727.49 699.263 734.102C698.524 739.022 696.263 745.228 692.021 748.149C689.603 749.813 687.405 750.007 684.584 749.515C683.609 749.169 682.711 748.639 681.936 747.955C680.304 746.525 679.536 744.477 679.425 742.35C678.877 731.777 688.636 719.803 695.371 712.647Z" fill="black"/>
<path d="M629.578 826.37C629.691 826.488 629.827 826.589 629.919 826.725C633.007 831.314 632.884 844.08 631.512 849.313C630.297 853.947 627.61 859.423 623.289 861.84C620.642 863.32 618.523 863.105 615.685 862.36C615.079 862.002 614.463 861.635 613.943 861.156C612.347 859.684 611.666 857.501 611.658 855.373C611.619 845.127 622.674 833.255 629.578 826.37Z" fill="black"/>
<path d="M376.272 877.069C376.344 877.174 376.428 877.273 376.489 877.385C379.167 882.266 377.207 896.308 375.492 901.523C374.031 905.962 371.427 911.546 366.962 913.609C364.571 914.714 362.589 914.371 360.212 913.471C359.81 913.144 359.42 912.811 359.069 912.428C357.61 910.834 357.179 908.659 357.274 906.55C357.71 896.945 369.396 883.602 376.272 877.069Z" fill="black"/>
<path d="M227.736 729.1L228.184 729.412C231.193 735.834 232.581 742.754 231.551 749.824C230.866 754.517 228.895 760.201 224.895 763.052C222.785 764.556 220.601 764.875 218.09 764.451C217.112 764.057 216.171 763.658 215.374 762.948C213.898 761.633 213.176 759.674 213.041 757.738C212.331 747.524 221.475 736.422 227.736 729.1Z" fill="black"/>
<path d="M327.508 776.429C330.497 782.153 329.494 790.601 327.665 796.536C326.03 801.839 322.663 809.28 317.451 811.882C315.094 813.058 313.295 812.882 310.865 812.085C309.211 810.763 308.307 809.363 308.114 807.211C307.288 798.007 321.723 783.334 327.508 776.429Z" fill="black"/>
<path d="M479.346 736.691L479.801 736.968C482.667 742.821 483.753 749.386 482.924 755.849C482.29 760.571 480.264 766.544 476.291 769.45C474.001 771.126 471.911 771.331 469.171 770.909C468.271 770.577 467.409 770.143 466.692 769.493C465.289 768.22 464.606 766.283 464.525 764.428C464.085 754.392 473.172 743.752 479.346 736.691Z" fill="black"/>
<path d="M380.358 705.406C383.058 709.457 383.484 716.986 383.076 721.699C382.619 726.974 380.555 733.964 376.286 737.381C373.905 739.287 371.861 739.403 368.929 739.083C368.333 738.727 367.704 738.363 367.185 737.898C365.772 736.635 365.167 734.574 365.126 732.737C364.909 723.154 374.282 711.957 380.358 705.406Z" fill="black"/>
<path d="M611.505 757.05L611.964 757.667C612.781 766.565 613.026 777.046 608.472 785.089C607.278 787.197 605.66 789.24 603.199 789.853C601.128 790.369 599.424 789.528 597.693 788.472C596.211 786.732 595.307 785.178 595.328 782.83C595.399 775.131 606.051 762.455 611.505 757.05Z" fill="black"/>
<path d="M457.194 633.965C457.279 634.026 457.37 634.078 457.448 634.148C460.016 636.43 461.421 642.143 461.824 645.469C462.478 650.859 461.674 657.59 458.094 661.901C456.177 664.207 454.473 664.768 451.556 665.03C450.649 664.833 449.764 664.644 448.983 664.117C447.495 663.114 446.609 661.547 446.335 659.792C444.986 651.141 452.437 640.583 457.194 633.965Z" fill="black"/>
<path d="M648.214 638.802L648.678 639.083C650.888 642.714 652.063 646.296 652.3 650.555C652.579 655.553 651.358 661.913 647.823 665.641C646.151 667.403 644.501 667.938 642.12 667.968C641.253 667.715 640.252 667.409 639.529 666.852C638.224 665.847 637.439 664.216 637.218 662.608C636.099 654.455 643.65 644.923 648.214 638.802Z" fill="black"/>
<path d="M601.955 620.983L601.954 620.983C601.954 620.983 602.296 621.118 602.298 620.983L601.948 620.985L602.4 620.744L605.249 620.096L608.865 618.911L608.526 619.35L609.482 623.551L602.928 625.043L601.955 620.983Z" fill="#FC1013"/>
<rect x="592.987" y="624.804" width="9.65001" height="5.5143" transform="rotate(-21.0896 592.987 624.804)" fill="#FC1013"/>
</svg>
