<svg width="849" height="1183" viewBox="0 0 849 1183" fill="none" xmlns="http://www.w3.org/2000/svg">
<rect x="5" y="5" width="839" height="1173" rx="45" fill="white"/>
<rect x="5" y="5" width="839" height="1173" rx="45" stroke="black" stroke-width="10"/>
<circle cx="786.5" cy="1124.5" r="11.5" fill="black"/>
<circle cx="786.5" cy="59.5" r="11.5" fill="black"/>
<path d="M77 1124.5C77 1130.85 71.8513 1136 65.5 1136C59.1487 1136 54 1130.85 54 1124.5C54 1118.15 59.1487 1113 65.5 1113C71.8513 1113 77 1118.15 77 1124.5Z" fill="black"/>
<path d="M77 59.5C77 65.8513 71.8513 71 65.5 71C59.1487 71 54 65.8513 54 59.5C54 53.1487 59.1487 48 65.5 48C71.8513 48 77 53.1487 77 59.5Z" fill="black"/>
<mask id="path-6-inside-1_1_3452" fill="white">
<path d="M708 48C713.523 48 717.934 52.4996 718.616 57.9801C723.122 94.1833 751.817 122.878 788.02 127.384C793.5 128.066 798 132.477 798 138V1046C798 1051.52 793.5 1055.93 788.02 1056.62C751.817 1061.12 723.122 1089.82 718.616 1126.02C717.934 1131.5 713.523 1136 708 1136H141C135.477 1136 131.066 1131.5 130.384 1126.02C125.878 1089.82 97.1833 1061.12 60.9801 1056.62C55.4996 1055.93 51 1051.52 51 1046V138C51 132.477 55.4996 128.066 60.9801 127.384C97.1833 122.878 125.878 94.1833 130.384 57.9801C131.066 52.4996 135.477 48 141 48H708Z"/>
</mask>
<path d="M708 48C713.523 48 717.934 52.4996 718.616 57.9801C723.122 94.1833 751.817 122.878 788.02 127.384C793.5 128.066 798 132.477 798 138V1046C798 1051.52 793.5 1055.93 788.02 1056.62C751.817 1061.12 723.122 1089.82 718.616 1126.02C717.934 1131.5 713.523 1136 708 1136H141C135.477 1136 131.066 1131.5 130.384 1126.02C125.878 1089.82 97.1833 1061.12 60.9801 1056.62C55.4996 1055.93 51 1051.52 51 1046V138C51 132.477 55.4996 128.066 60.9801 127.384C97.1833 122.878 125.878 94.1833 130.384 57.9801C131.066 52.4996 135.477 48 141 48H708Z" fill="#C357B5"/>
<path d="M130.384 1126.02L138.322 1125.03L130.384 1126.02ZM718.616 1126.02L710.678 1125.03L718.616 1126.02ZM788.02 1056.62L789.008 1064.56L788.02 1056.62ZM718.616 57.9801L726.555 56.9922L718.616 57.9801ZM718.616 57.9801L710.678 58.9681C715.635 98.8063 747.194 130.365 787.032 135.322L788.02 127.384L789.008 119.445C756.44 115.392 730.608 89.5603 726.555 56.9922L718.616 57.9801ZM798 138H790V1046H798H806V138H798ZM788.02 1056.62L787.032 1048.68C747.194 1053.64 715.635 1085.19 710.678 1125.03L718.616 1126.02L726.555 1127.01C730.608 1094.44 756.44 1068.61 789.008 1064.56L788.02 1056.62ZM708 1136V1128H141V1136V1144H708V1136ZM130.384 1126.02L138.322 1125.03C133.365 1085.19 101.806 1053.64 61.9681 1048.68L60.9801 1056.62L59.9922 1064.56C92.5603 1068.61 118.392 1094.44 122.445 1127.01L130.384 1126.02ZM51 1046H59V138H51H43V1046H51ZM60.9801 127.384L61.9681 135.322C101.806 130.365 133.365 98.8063 138.322 58.9681L130.384 57.9801L122.445 56.9922C118.392 89.5603 92.5603 115.392 59.9922 119.445L60.9801 127.384ZM141 48V56H708V48V40H141V48ZM130.384 57.9801L138.322 58.9681C138.438 58.0389 138.872 57.2306 139.427 56.6958C139.954 56.1887 140.494 56 141 56V48V40C130.84 40 123.547 48.1329 122.445 56.9922L130.384 57.9801ZM51 138H59C59 137.494 59.1887 136.954 59.6958 136.427C60.2306 135.872 61.0389 135.438 61.9681 135.322L60.9801 127.384L59.9922 119.445C51.1329 120.547 43 127.84 43 138H51ZM60.9801 1056.62L61.9681 1048.68C61.0389 1048.56 60.2306 1048.13 59.6958 1047.57C59.1887 1047.05 59 1046.51 59 1046H51H43C43 1056.16 51.1329 1063.45 59.9922 1064.56L60.9801 1056.62ZM141 1136V1128C140.494 1128 139.954 1127.81 139.427 1127.3C138.872 1126.77 138.438 1125.96 138.322 1125.03L130.384 1126.02L122.445 1127.01C123.547 1135.87 130.84 1144 141 1144V1136ZM718.616 1126.02L710.678 1125.03C710.562 1125.96 710.128 1126.77 709.573 1127.3C709.046 1127.81 708.506 1128 708 1128V1136V1144C718.16 1144 725.453 1135.87 726.555 1127.01L718.616 1126.02ZM798 1046H790C790 1046.51 789.811 1047.05 789.304 1047.57C788.769 1048.13 787.961 1048.56 787.032 1048.68L788.02 1056.62L789.008 1064.56C797.867 1063.45 806 1056.16 806 1046H798ZM788.02 127.384L787.032 135.322C787.961 135.438 788.769 135.872 789.304 136.427C789.811 136.954 790 137.494 790 138H798H806C806 127.84 797.867 120.547 789.008 119.445L788.02 127.384ZM718.616 57.9801L726.555 56.9922C725.453 48.1329 718.16 40 708 40V48V56C708.506 56 709.046 56.1887 709.573 56.6958C710.128 57.2306 710.562 58.0389 710.678 58.9681L718.616 57.9801Z" fill="black" mask="url(#path-6-inside-1_1_3452)"/>
<path d="M690 102C695.523 102 699.911 106.512 700.837 111.957C705.019 136.563 724.437 155.981 749.043 160.163C754.488 161.089 759 165.477 759 171V1014C759 1019.52 754.488 1023.91 749.043 1024.84C724.711 1028.97 705.454 1048 700.984 1072.22C699.993 1077.59 695.633 1082 690.175 1082H158.825C153.367 1082 149.007 1077.59 148.016 1072.22C143.546 1048 124.288 1028.97 99.9568 1024.84C94.5121 1023.91 90 1019.52 90 1014V171C90 165.477 94.512 161.089 99.9568 160.163C124.563 155.981 143.981 136.563 148.163 111.957C149.089 106.512 153.477 102 159 102H690Z" fill="#D78BCD"/>
<mask id="path-9-outside-2_1_3452" maskUnits="userSpaceOnUse" x="406" y="1007" width="38" height="31" fill="black">
<rect fill="white" x="406" y="1007" width="38" height="31"/>
<path d="M406.8 1012V1007.84H415.12V1037H410.52V1012H406.8ZM420.824 1030.92V1027.48L434.264 1008.2H439.784V1026.96H443.504V1030.92H439.784V1037H435.304V1030.92H420.824ZM435.504 1012.84L426.064 1026.96H435.504V1012.84Z"/>
</mask>
<path d="M406.8 1012V1007.84H415.12V1037H410.52V1012H406.8ZM420.824 1030.92V1027.48L434.264 1008.2H439.784V1026.96H443.504V1030.92H439.784V1037H435.304V1030.92H420.824ZM435.504 1012.84L426.064 1026.96H435.504V1012.84Z" fill="black"/>
<path d="M406.8 1012H406.5V1012.3H406.8V1012ZM406.8 1007.84V1007.54H406.5V1007.84H406.8ZM415.12 1007.84H415.42V1007.54H415.12V1007.84ZM415.12 1037V1037.3H415.42V1037H415.12ZM410.52 1037H410.22V1037.3H410.52V1037ZM410.52 1012H410.82V1011.7H410.52V1012ZM406.8 1012H407.1V1007.84H406.8H406.5V1012H406.8ZM406.8 1007.84V1008.14H415.12V1007.84V1007.54H406.8V1007.84ZM415.12 1007.84H414.82V1037H415.12H415.42V1007.84H415.12ZM415.12 1037V1036.7H410.52V1037V1037.3H415.12V1037ZM410.52 1037H410.82V1012H410.52H410.22V1037H410.52ZM410.52 1012V1011.7H406.8V1012V1012.3H410.52V1012ZM420.824 1030.92H420.524V1031.22H420.824V1030.92ZM420.824 1027.48L420.578 1027.31L420.524 1027.39V1027.48H420.824ZM434.264 1008.2V1007.9H434.108L434.018 1008.03L434.264 1008.2ZM439.784 1008.2H440.084V1007.9H439.784V1008.2ZM439.784 1026.96H439.484V1027.26H439.784V1026.96ZM443.504 1026.96H443.804V1026.66H443.504V1026.96ZM443.504 1030.92V1031.22H443.804V1030.92H443.504ZM439.784 1030.92V1030.62H439.484V1030.92H439.784ZM439.784 1037V1037.3H440.084V1037H439.784ZM435.304 1037H435.004V1037.3H435.304V1037ZM435.304 1030.92H435.604V1030.62H435.304V1030.92ZM435.504 1012.84H435.804V1011.85L435.255 1012.67L435.504 1012.84ZM426.064 1026.96L425.815 1026.79L425.503 1027.26H426.064V1026.96ZM435.504 1026.96V1027.26H435.804V1026.96H435.504ZM420.824 1030.92H421.124V1027.48H420.824H420.524V1030.92H420.824ZM420.824 1027.48L421.07 1027.65L434.51 1008.37L434.264 1008.2L434.018 1008.03L420.578 1027.31L420.824 1027.48ZM434.264 1008.2V1008.5H439.784V1008.2V1007.9H434.264V1008.2ZM439.784 1008.2H439.484V1026.96H439.784H440.084V1008.2H439.784ZM439.784 1026.96V1027.26H443.504V1026.96V1026.66H439.784V1026.96ZM443.504 1026.96H443.204V1030.92H443.504H443.804V1026.96H443.504ZM443.504 1030.92V1030.62H439.784V1030.92V1031.22H443.504V1030.92ZM439.784 1030.92H439.484V1037H439.784H440.084V1030.92H439.784ZM439.784 1037V1036.7H435.304V1037V1037.3H439.784V1037ZM435.304 1037H435.604V1030.92H435.304H435.004V1037H435.304ZM435.304 1030.92V1030.62H420.824V1030.92V1031.22H435.304V1030.92ZM435.504 1012.84L435.255 1012.67L425.815 1026.79L426.064 1026.96L426.314 1027.13L435.754 1013.01L435.504 1012.84ZM426.064 1026.96V1027.26H435.504V1026.96V1026.66H426.064V1026.96ZM435.504 1026.96H435.804V1012.84H435.504H435.204V1026.96H435.504Z" fill="black" mask="url(#path-9-outside-2_1_3452)"/>
<path d="M201.9 195.5L184.6 266H160.5L150.8 222.8L140.9 266H116.8L99.7 195.5H120.9L129.1 243.7L140.2 195.5H161.7L172.5 243.3L180.7 195.5H201.9ZM207.017 237.9C207.017 232.1 208.051 227.033 210.117 222.7C212.251 218.367 215.117 215.033 218.717 212.7C222.384 210.367 226.451 209.2 230.917 209.2C234.784 209.2 238.117 209.967 240.917 211.5C243.717 213.033 245.884 215.1 247.417 217.7V209.9H267.017V266H247.417V258.2C245.884 260.8 243.684 262.867 240.817 264.4C238.017 265.933 234.717 266.7 230.917 266.7C226.451 266.7 222.384 265.533 218.717 263.2C215.117 260.867 212.251 257.533 210.117 253.2C208.051 248.8 207.017 243.7 207.017 237.9ZM247.417 237.9C247.417 234.3 246.417 231.467 244.417 229.4C242.484 227.333 240.084 226.3 237.217 226.3C234.284 226.3 231.851 227.333 229.917 229.4C227.984 231.4 227.017 234.233 227.017 237.9C227.017 241.5 227.984 244.367 229.917 246.5C231.851 248.567 234.284 249.6 237.217 249.6C240.084 249.6 242.484 248.567 244.417 246.5C246.417 244.433 247.417 241.567 247.417 237.9ZM311.286 249.3V266H302.786C288.453 266 281.286 258.9 281.286 244.7V226.2H274.386V209.9H281.286V196.3H300.986V209.9H311.186V226.2H300.986V245C300.986 246.533 301.319 247.633 301.986 248.3C302.719 248.967 303.919 249.3 305.586 249.3H311.286ZM373.876 237.3C373.876 238.833 373.776 240.367 373.576 241.9H336.476C336.676 244.967 337.509 247.267 338.976 248.8C340.509 250.267 342.442 251 344.776 251C348.042 251 350.376 249.533 351.776 246.6H372.676C371.809 250.467 370.109 253.933 367.576 257C365.109 260 361.976 262.367 358.176 264.1C354.376 265.833 350.176 266.7 345.576 266.7C340.042 266.7 335.109 265.533 330.776 263.2C326.509 260.867 323.142 257.533 320.676 253.2C318.276 248.867 317.076 243.767 317.076 237.9C317.076 232.033 318.276 226.967 320.676 222.7C323.076 218.367 326.409 215.033 330.676 212.7C335.009 210.367 339.976 209.2 345.576 209.2C351.109 209.2 356.009 210.333 360.276 212.6C364.542 214.867 367.876 218.133 370.276 222.4C372.676 226.6 373.876 231.567 373.876 237.3ZM353.876 232.4C353.876 230 353.076 228.133 351.476 226.8C349.876 225.4 347.876 224.7 345.476 224.7C343.076 224.7 341.109 225.367 339.576 226.7C338.042 227.967 337.042 229.867 336.576 232.4H353.876ZM401.497 219.8C403.697 216.6 406.364 214.067 409.497 212.2C412.63 210.333 415.997 209.4 419.597 209.4V230.3H414.097C409.83 230.3 406.664 231.133 404.597 232.8C402.53 234.467 401.497 237.367 401.497 241.5V266H381.897V209.9H401.497V219.8ZM499.923 209.4C506.99 209.4 512.523 211.533 516.523 215.8C520.59 220.067 522.623 225.9 522.623 233.3V266H503.023V235.9C503.023 232.9 502.19 230.567 500.523 228.9C498.857 227.233 496.59 226.4 493.723 226.4C490.857 226.4 488.59 227.233 486.923 228.9C485.257 230.567 484.423 232.9 484.423 235.9V266H464.823V235.9C464.823 232.9 463.99 230.567 462.323 228.9C460.723 227.233 458.49 226.4 455.623 226.4C452.69 226.4 450.39 227.233 448.723 228.9C447.057 230.567 446.223 232.9 446.223 235.9V266H426.623V209.9H446.223V217.3C447.957 214.9 450.19 213 452.923 211.6C455.723 210.133 458.923 209.4 462.523 209.4C466.657 209.4 470.323 210.3 473.523 212.1C476.79 213.9 479.357 216.433 481.223 219.7C483.223 216.633 485.857 214.167 489.123 212.3C492.39 210.367 495.99 209.4 499.923 209.4ZM586.962 237.3C586.962 238.833 586.862 240.367 586.662 241.9H549.562C549.762 244.967 550.595 247.267 552.062 248.8C553.595 250.267 555.528 251 557.862 251C561.128 251 563.462 249.533 564.862 246.6H585.762C584.895 250.467 583.195 253.933 580.662 257C578.195 260 575.062 262.367 571.262 264.1C567.462 265.833 563.262 266.7 558.662 266.7C553.128 266.7 548.195 265.533 543.862 263.2C539.595 260.867 536.228 257.533 533.762 253.2C531.362 248.867 530.162 243.767 530.162 237.9C530.162 232.033 531.362 226.967 533.762 222.7C536.162 218.367 539.495 215.033 543.762 212.7C548.095 210.367 553.062 209.2 558.662 209.2C564.195 209.2 569.095 210.333 573.362 212.6C577.628 214.867 580.962 218.133 583.362 222.4C585.762 226.6 586.962 231.567 586.962 237.3ZM566.962 232.4C566.962 230 566.162 228.133 564.562 226.8C562.962 225.4 560.962 224.7 558.562 224.7C556.162 224.7 554.195 225.367 552.662 226.7C551.128 227.967 550.128 229.867 549.662 232.4H566.962ZM614.583 192V266H594.983V192H614.583ZM651.845 266.7C646.245 266.7 641.211 265.533 636.745 263.2C632.345 260.867 628.878 257.533 626.345 253.2C623.811 248.867 622.545 243.767 622.545 237.9C622.545 232.1 623.811 227.033 626.345 222.7C628.945 218.367 632.445 215.033 636.845 212.7C641.311 210.367 646.345 209.2 651.945 209.2C657.545 209.2 662.545 210.367 666.945 212.7C671.411 215.033 674.911 218.367 677.445 222.7C680.045 227.033 681.345 232.1 681.345 237.9C681.345 243.7 680.045 248.8 677.445 253.2C674.911 257.533 671.411 260.867 666.945 263.2C662.478 265.533 657.445 266.7 651.845 266.7ZM651.845 249.7C654.578 249.7 656.845 248.7 658.645 246.7C660.511 244.633 661.445 241.7 661.445 237.9C661.445 234.1 660.511 231.2 658.645 229.2C656.845 227.2 654.611 226.2 651.945 226.2C649.278 226.2 647.045 227.2 645.245 229.2C643.445 231.2 642.545 234.1 642.545 237.9C642.545 241.767 643.411 244.7 645.145 246.7C646.878 248.7 649.111 249.7 651.845 249.7ZM726.019 209.4C732.485 209.4 737.619 211.567 741.419 215.9C745.219 220.167 747.119 225.967 747.119 233.3V266H727.519V235.9C727.519 232.7 726.685 230.2 725.019 228.4C723.352 226.533 721.119 225.6 718.319 225.6C715.385 225.6 713.085 226.533 711.419 228.4C709.752 230.2 708.919 232.7 708.919 235.9V266H689.319V209.9H708.919V217.9C710.652 215.367 712.985 213.333 715.919 211.8C718.852 210.2 722.219 209.4 726.019 209.4Z" fill="black"/>
<path d="M300.266 368C316.071 371.143 332.904 389.742 339.926 403.664C342.268 408.31 345.053 419.129 347.334 422.398C351.393 428.213 354.186 430.037 358.008 437.066C364.744 437.829 371.237 438.152 377.967 439.327C467.898 455.03 536.254 528.391 559.224 614.575C560.498 619.359 561.425 624.203 562.928 628.895C572.343 627.588 584.646 623.166 594.244 620.769L688.248 596.492C696.743 594.327 726.018 583.775 732.844 590.502C741.23 598.765 743.873 637.716 744.252 649.231C748.352 773.81 661.08 898.38 530.053 902.601C505.047 904.599 466.069 898.622 443.505 887.077C439.512 891.176 432.871 894.008 427.628 896.32C355.182 928.285 269.865 921.521 205.464 874.491C32.3159 748.054 96.2498 469.12 312.032 437.066C314.364 431.437 317.832 426.555 321.886 422.059C308.589 400.315 292.857 399.441 289.312 394.695C289.609 391.136 298.214 371.097 300.266 368Z" fill="black"/>
<path d="M362.488 447.289C385.081 448.889 436.489 464.069 453.604 480.964C459.311 483.398 467.165 490.019 472.093 494.111C513.908 528.834 542.872 577.951 554.449 631.017C541.308 634.488 527.731 637.783 514.694 641.397C509.085 642.917 503.225 644.6 497.588 645.916C482.341 650.047 466.514 654.254 451.192 658.063C445.333 659.85 438.815 661.369 432.849 662.947L402.499 671.104C394.615 673.145 386.621 674.94 378.791 677.137C354.493 684.316 329.308 689.362 305.181 697.001C288.895 702.156 299.179 727.434 304.657 737.335C309.981 765.429 353.846 824.579 374.301 841.387C382.338 849.388 398.837 860.704 403.847 866.394C410.685 869.648 423.927 878.117 430.66 882.497C413.016 891.022 393.707 898.204 374.301 901.271C369.53 902.668 358.752 903.827 353.586 904.062C347.592 904.636 339.179 905.062 333.307 904.678C326.809 905.134 316.488 904.516 309.84 904.062C302.529 903.166 294.152 901.372 287.02 899.604C283.62 899.537 278.214 898.082 274.901 897.069C158.107 861.352 90.28 733.74 124.092 617.142C148.539 526.567 216.223 463.096 308.03 447.289C304.944 460.012 305.526 467.556 318.944 472.778C324.01 474.038 330.944 475.044 336.184 475.1C347.911 475.084 354.016 473.204 361.268 463.509C361.903 461.035 362.145 459.051 362.488 456.525C362.416 453.701 362.641 449.764 362.488 447.289Z" fill="url(#paint0_linear_1_3452)"/>
<path d="M362.487 447.289C385.08 448.889 436.488 464.069 453.603 480.964C459.311 483.398 467.165 490.019 472.092 494.111C513.907 528.834 542.872 577.951 554.448 631.017C541.308 634.488 527.731 637.783 514.693 641.397C509.084 642.917 503.224 644.6 497.587 645.916C482.34 650.047 466.513 654.254 451.191 658.063C445.333 659.85 438.815 661.369 432.849 662.947L402.498 671.104C394.614 673.145 386.621 674.94 378.79 677.137C377.635 668.508 371.115 659.668 371.478 648.205C371.907 634.68 380.597 625.029 377.695 611.464C373.944 593.933 362.734 587.462 360.169 567.799C358.389 554.156 363.978 546.247 361.347 534.644C359.771 527.693 351.192 517.032 347.742 509.692C342.319 498.145 339.306 487.417 336.183 475.1C347.911 475.084 354.016 473.204 361.268 463.509C361.903 461.035 362.144 459.051 362.487 456.525C362.416 453.701 362.64 449.764 362.487 447.289Z" fill="#27B155"/>
<path d="M361.268 463.509C369.737 474.083 378.598 484.545 387.025 495.184C390.273 499.283 397.014 501.513 399.986 505.999C403.295 510.832 403.412 519.497 405.905 524.641C410.055 533.2 417.461 538.851 420.959 548.19C426.314 562.489 427.106 578.095 432.998 593.732C437.408 605.433 447.129 614.185 450.234 625.837C452.864 635.71 450.755 647.597 451.191 658.063C445.333 659.85 438.815 661.369 432.849 662.947L402.498 671.104C394.614 673.145 386.621 674.94 378.79 677.137C377.635 668.507 371.115 659.668 371.478 648.205C371.907 634.68 380.597 625.029 377.695 611.464C373.944 593.933 362.734 587.462 360.169 567.799C358.389 554.156 363.978 546.247 361.347 534.644C359.771 527.693 351.192 517.032 347.742 509.692C342.319 498.145 339.306 487.417 336.183 475.1C347.911 475.084 354.016 473.204 361.268 463.509Z" fill="#27B155"/>
<path d="M362.487 456.525C403.487 473.023 454.509 520.462 473.999 560.417C477.45 567.491 478.598 576.068 482.47 583.024C485.328 588.477 491.69 589.395 494.567 596.69C500.631 612.063 495.538 631.639 497.587 645.916C482.34 650.047 466.513 654.254 451.191 658.063C450.755 647.597 452.864 635.71 450.234 625.837C447.129 614.185 437.408 605.433 432.999 593.732C427.106 578.095 426.314 562.489 420.959 548.19C417.461 538.851 410.055 533.2 405.905 524.641C403.412 519.497 403.295 510.832 399.986 505.999C397.014 501.513 390.273 499.283 387.025 495.184C378.598 484.545 369.737 474.083 361.268 463.509C361.903 461.035 362.144 459.051 362.487 456.525Z" fill="#76F17B"/>
<path d="M447.151 549.503C465.361 548.797 481.484 585.339 460.535 593.058C457.098 593.214 454.631 593.208 451.191 593.058L450.984 592.902C440.047 584.786 426.203 553.808 447.151 549.503Z" fill="#B7FEBD"/>
<path d="M453.604 480.964C459.311 483.398 467.165 490.019 472.092 494.111C513.907 528.834 542.872 577.951 554.448 631.017C541.308 634.488 527.731 637.782 514.693 641.397C512.047 635.135 510.35 620.522 509.006 613.34C502.495 578.53 483.513 518.025 460.935 491.02C458.944 488.639 454.807 483.595 453.604 480.964Z" fill="#108D4B"/>
<path d="M124.092 617.142C124.622 617.756 125.324 618.682 125.542 619.457C135.022 653.145 141.533 663.048 160.514 690.051C178.617 706.491 191.081 714.648 209.983 728.111C209.579 729.125 209.686 728.585 209.983 729.808C213.667 749.076 218.43 751.133 223.016 765.473C225.574 773.472 224.692 781.917 228.543 789.67C232.187 797.007 239.326 802.006 242.346 809.453C245.298 816.734 244.746 824.61 248.893 831.577C253.309 839.003 261.545 842.927 265.93 849.866C270.64 857.325 272.613 868.415 278.429 875.263C289.655 888.48 298.763 893.774 309.84 904.062C302.529 903.166 294.152 901.372 287.02 899.604C283.62 899.537 278.214 898.082 274.901 897.069C158.107 861.352 90.28 733.74 124.092 617.142Z" fill="#108D4B"/>
<path d="M160.514 690.051C178.617 706.491 191.08 714.648 209.983 728.111C209.579 729.125 209.686 728.585 209.983 729.808C213.667 749.077 218.429 751.133 223.015 765.473C225.574 773.472 224.692 781.917 228.543 789.67C232.187 797.007 239.326 802.006 242.346 809.454C245.298 816.734 244.746 824.61 248.892 831.577C253.308 839.003 261.545 842.928 265.93 849.867C270.64 857.325 272.613 868.415 278.429 875.263C289.655 888.48 298.763 893.774 309.84 904.063C302.529 903.166 294.152 901.373 287.02 899.604C284.037 896.936 279.572 894.816 276.057 892.662C242.392 872.018 214.171 840.077 194.266 806.332C179.24 780.854 175.25 767.952 167.594 740.848C164.419 729.605 157.517 701.857 160.514 690.051Z" fill="#27B155"/>
<path d="M318.944 472.778C324.01 474.038 330.944 475.044 336.184 475.1C339.307 487.417 342.319 498.145 347.743 509.692C351.192 517.032 359.771 527.693 361.348 534.644C363.978 546.247 358.39 554.156 360.169 567.799C362.734 587.462 373.944 593.933 377.696 611.464C380.598 625.029 371.908 634.68 371.479 648.205C371.116 659.668 377.635 668.508 378.791 677.137C354.493 684.316 329.308 689.362 305.181 697.001C288.895 702.156 299.179 727.434 304.657 737.335C299.27 738.075 295.303 727.294 293.308 723.597C277.182 693.686 297.366 685.086 296.032 656.293C295.323 640.954 285.714 632.043 287.597 615.701C289.82 596.403 305.429 585.112 304.297 565.514C302.557 535.383 292.229 548.625 309.873 512.65C314.149 503.62 316.138 494.978 317.667 485.274C318.033 482.945 317.958 474.205 318.944 472.778Z" fill="#76F17B"/>
<path d="M160.514 690.051C161.608 681.208 164.153 673.045 163.933 664.031C163.654 652.587 160.847 644.117 162.196 632.501C163.444 621.748 170.273 615.088 172.701 606.537C176.082 594.635 175.327 585.595 180.537 573.211C195.933 536.614 262.749 469.753 304.657 455.449C292.309 469.296 281.189 481.738 270.896 497.267C268.732 500.532 261.857 503.495 259.767 507.178C255.638 514.125 256.566 523.207 252.251 530.149C241.777 547.173 236.911 546.469 235.819 569.029C234.763 590.828 224.645 607.285 215.375 626.234C204.902 647.642 213.825 660.706 213.552 680.65C213.363 694.541 207.113 707.254 209.493 721.49C209.727 722.894 210.042 726.778 209.983 728.111C191.081 714.648 178.617 706.491 160.514 690.051Z" fill="#76F17B"/>
<path d="M214.171 552.289C241.244 551.797 222.077 596.06 207.559 603.097C184.567 601.322 195.167 576.203 200.862 563.727C203.514 557.914 207.601 553.234 214.171 552.289Z" fill="#B7FEBD"/>
<path d="M189.053 619.231C200.193 619.158 207.183 646.976 189.053 651.132C176.586 651.589 169.258 624.804 189.053 619.231Z" fill="#B7FEBD"/>
<path d="M209.982 729.808L210.431 728.909C211.787 729.104 213.979 730.587 215.225 731.311C243.018 747.459 271.191 754.553 302.34 760.829C299.528 771.655 299.753 797.269 301.147 808.787C302.413 819.251 310.284 826.079 314.148 835.397C318.541 845.99 315.087 856.88 318.688 867.625C323.317 881.447 330.359 887.129 333.306 904.678C326.809 905.133 316.487 904.516 309.84 904.062C298.763 893.774 289.655 888.48 278.429 875.263C272.613 868.414 270.64 857.325 265.929 849.866C261.545 842.927 253.308 839.002 248.892 831.577C244.746 824.61 245.298 816.734 242.346 809.453C239.326 802.006 232.187 797.007 228.543 789.67C224.692 781.917 225.574 773.472 223.015 765.473C218.429 751.133 213.667 749.076 209.982 729.808Z" fill="#108D4B"/>
<path d="M374.301 841.387C382.338 849.388 398.837 860.704 403.847 866.394C410.685 869.648 423.927 878.117 430.66 882.497C413.016 891.022 393.707 898.204 374.301 901.271C369.53 902.668 358.751 903.827 353.585 904.062C356.986 895.67 360.01 888.191 362.623 879.504C366.732 865.845 363.604 851.786 374.301 841.387Z" fill="#108D4B"/>
<path d="M403.847 866.394C410.685 869.648 423.926 878.117 430.659 882.497C413.016 891.022 393.707 898.204 374.301 901.271C376.046 898.932 383.816 892.507 386.696 889.455C394.165 881.541 397.968 875.078 403.847 866.394Z" fill="#27B155"/>
<path d="M683.939 608.463C691.159 606.804 698.892 604.577 705.929 603.097C705.456 610.543 706.629 618.224 706.989 625.581C709.872 684.433 698.874 741.281 663.903 789.765C628.466 839.402 572.508 869.675 510.888 866.161C427.971 861.435 365.433 796.146 334.404 723.443C331.527 716.705 328.747 709.061 325.697 702.531C333.684 700.765 341.795 698.119 349.492 696.504C382.589 685.27 421.704 677.477 455.961 668.394L683.939 608.463Z" fill="#FA5856"/>
<path d="M683.939 608.463C691.159 606.804 698.892 604.577 705.929 603.097C705.456 610.543 706.629 618.224 706.989 625.581C709.872 684.433 698.874 741.281 663.903 789.765C628.466 839.402 572.508 869.675 510.888 866.161C427.971 861.435 365.433 796.146 334.404 723.443C331.527 716.705 328.747 709.061 325.697 702.531C333.684 700.765 341.795 698.119 349.492 696.504L349.717 697.591C375.14 776.503 449.786 855.245 539.433 842.009C644.944 824.067 700.307 707.658 683.939 608.463Z" fill="#F42B2D"/>
<path d="M447.151 718.217C456.606 718.116 458.845 772.382 429.648 758.787C407.312 745.301 433.239 723.851 447.151 718.217Z" fill="black"/>
<path d="M447.151 724.031C447.856 725.233 449.143 757.867 432.734 748.723C430.588 746.544 430.412 745.423 429.648 742.538C431.728 732.955 438.937 728.23 447.151 724.031Z" fill="#60595B"/>
<path d="M611.732 725.763C629.706 724.84 663.218 736.192 641.195 757.175C626.779 767.133 617.989 755.834 613.112 742.984C611.303 738.22 605.373 727.692 611.732 725.763Z" fill="black"/>
<path d="M613.671 729.807C621.53 730.263 646.013 737.117 636.356 748.722C625.131 758.162 616.199 738.081 613.671 729.807Z" fill="#60595B"/>
<path d="M535.752 688.107C543.717 688.451 572.967 714.952 551.071 729.808C522.077 739.164 526.753 701.763 535.752 688.107Z" fill="black"/>
<path d="M538.249 693.067C544.773 697.388 558.065 714.107 546.658 719.558C529.827 725.393 534.282 701.155 538.249 693.067Z" fill="#60595B"/>
<path d="M495.135 770.47C505.373 770.328 508.38 821.83 480.206 809.993C457.544 797.662 481.171 776.734 495.135 770.47Z" fill="black"/>
<path d="M495.135 775.427C497.208 776.264 499.236 807.537 482.59 799.908C471.963 791.727 488.562 779.505 495.135 775.427Z" fill="#60595B"/>
<path d="M560.773 777.43C568.825 776.673 601.228 799.667 580.989 814.543C554.245 829.787 552.008 788.59 560.773 777.43Z" fill="black"/>
<path d="M562.928 782.228C570.428 785.125 584.235 797.974 576.291 805.781C573.934 807.253 573.156 807.409 570.552 808.103C559.197 804.698 560.803 791.431 562.928 782.228Z" fill="#60595B"/>
<path d="M625.148 663.786C643.45 662.654 676.874 670.588 655.136 691.846C643.026 700.5 634.347 690.368 628.292 680.703C625.496 676.24 617.504 665.986 625.148 663.786Z" fill="black"/>
<path d="M626.514 667.629C634.655 667.566 658.484 671.144 648.757 684.13C640.15 691.261 628.962 674.277 626.514 667.629Z" fill="#60595B"/>
<path d="M725.098 598.601C725.835 598.402 726.316 598.773 726.522 599.473C741.56 650.792 732.834 713.118 712.422 761.582C668.251 866.454 549.275 923.955 442.495 876.222C376.558 846.795 335.175 789.254 309.84 724.03C304.855 710.578 301.431 707.647 316.704 705.545C350.975 792.195 409.749 869.773 511.026 876.444C597.247 882.124 670.769 822.864 700.264 744.344C715.35 704.182 723.317 644.35 715.458 601.025C718.666 600.292 721.906 599.422 725.098 598.601Z" fill="#76F17B"/>
<path d="M333.306 426.625C346.28 427.4 369.186 465.378 337.842 465.342C320.629 465.131 310.757 463.662 318.469 445.071C321.615 437.486 325.377 430.046 333.306 426.625Z" fill="#F42B2D"/>
<path d="M337.842 433.985C344.861 434.197 353.09 449.039 349.492 455.449C341.011 459.391 337.571 439.444 337.842 433.985Z" fill="#FEFEFE"/>
<path d="M303.379 370.89C321.857 379.338 338.253 398.123 343.656 417.8L344.752 421.792L340.708 420.903C337.936 420.294 336.354 419.924 334.786 419.862C333.329 419.805 331.793 420.02 329.31 420.837L329.179 420.88L329.043 420.908C328.15 421.096 326.725 421.715 325.358 422.242L323.215 423.069L322.21 421.002C318.632 413.637 315.133 408.822 310.762 405.054C306.357 401.258 300.919 398.394 293.22 395.144L290.981 394.199L291.862 391.934C292.5 390.296 293.196 388.713 293.861 387.174C295.872 382.101 297.834 377.196 300.052 372.156L301.073 369.835L303.379 370.89Z" fill="#FA5856" stroke="black" stroke-width="5"/>
<path d="M297.676 386.124C297.709 386.142 297.767 386.174 297.854 386.219C298.075 386.332 298.383 386.48 298.771 386.658C299.542 387.012 300.535 387.446 301.58 387.898C303.324 388.652 305.343 389.512 306.415 390.034L306.813 390.235C319.298 396.921 324.515 405.858 330.725 417.267L332.331 420.217L329.043 420.909C328.15 421.096 326.725 421.714 325.358 422.242L323.215 423.07L322.21 421.002C318.631 413.637 315.134 408.821 310.762 405.053C306.357 401.257 300.919 398.394 293.22 395.144L290.981 394.199L291.862 391.934C292.505 390.282 293.207 388.686 293.878 387.134L295.211 384.048L297.676 386.124Z" fill="#C76050" stroke="black" stroke-width="5"/>
<defs>
<linearGradient id="paint0_linear_1_3452" x1="189.669" y1="500.736" x2="418.23" y2="861.412" gradientUnits="userSpaceOnUse">
<stop stop-color="#0EA458"/>
<stop offset="1" stop-color="#3FBB52"/>
</linearGradient>
</defs>
</svg>
