<svg width="849" height="1183" viewBox="0 0 849 1183" fill="none" xmlns="http://www.w3.org/2000/svg">
<rect x="5" y="5" width="839" height="1173" rx="45" fill="white"/>
<rect x="5" y="5" width="839" height="1173" rx="45" stroke="black" stroke-width="10"/>
<circle cx="786.5" cy="1124.5" r="11.5" fill="black"/>
<circle cx="786.5" cy="59.5" r="11.5" fill="black"/>
<path d="M77 1124.5C77 1130.85 71.8513 1136 65.5 1136C59.1487 1136 54 1130.85 54 1124.5C54 1118.15 59.1487 1113 65.5 1113C71.8513 1113 77 1118.15 77 1124.5Z" fill="black"/>
<path d="M77 59.5C77 65.8513 71.8513 71 65.5 71C59.1487 71 54 65.8513 54 59.5C54 53.1487 59.1487 48 65.5 48C71.8513 48 77 53.1487 77 59.5Z" fill="black"/>
<mask id="path-6-inside-1_1_3039" fill="white">
<path d="M708 48C713.523 48 717.934 52.4996 718.616 57.9801C723.122 94.1833 751.817 122.878 788.02 127.384C793.5 128.066 798 132.477 798 138V1046C798 1051.52 793.5 1055.93 788.02 1056.62C751.817 1061.12 723.122 1089.82 718.616 1126.02C717.934 1131.5 713.523 1136 708 1136H141C135.477 1136 131.066 1131.5 130.384 1126.02C125.878 1089.82 97.1833 1061.12 60.9801 1056.62C55.4996 1055.93 51 1051.52 51 1046V138C51 132.477 55.4996 128.066 60.9801 127.384C97.1833 122.878 125.878 94.1833 130.384 57.9801C131.066 52.4996 135.477 48 141 48H708Z"/>
</mask>
<path d="M708 48C713.523 48 717.934 52.4996 718.616 57.9801C723.122 94.1833 751.817 122.878 788.02 127.384C793.5 128.066 798 132.477 798 138V1046C798 1051.52 793.5 1055.93 788.02 1056.62C751.817 1061.12 723.122 1089.82 718.616 1126.02C717.934 1131.5 713.523 1136 708 1136H141C135.477 1136 131.066 1131.5 130.384 1126.02C125.878 1089.82 97.1833 1061.12 60.9801 1056.62C55.4996 1055.93 51 1051.52 51 1046V138C51 132.477 55.4996 128.066 60.9801 127.384C97.1833 122.878 125.878 94.1833 130.384 57.9801C131.066 52.4996 135.477 48 141 48H708Z" fill="#0089CB"/>
<path d="M130.384 1126.02L138.322 1125.03L130.384 1126.02ZM718.616 1126.02L710.678 1125.03L718.616 1126.02ZM788.02 1056.62L789.008 1064.56L788.02 1056.62ZM718.616 57.9801L726.555 56.9922L718.616 57.9801ZM718.616 57.9801L710.678 58.9681C715.635 98.8063 747.194 130.365 787.032 135.322L788.02 127.384L789.008 119.445C756.44 115.392 730.608 89.5603 726.555 56.9922L718.616 57.9801ZM798 138H790V1046H798H806V138H798ZM788.02 1056.62L787.032 1048.68C747.194 1053.64 715.635 1085.19 710.678 1125.03L718.616 1126.02L726.555 1127.01C730.608 1094.44 756.44 1068.61 789.008 1064.56L788.02 1056.62ZM708 1136V1128H141V1136V1144H708V1136ZM130.384 1126.02L138.322 1125.03C133.365 1085.19 101.806 1053.64 61.9681 1048.68L60.9801 1056.62L59.9922 1064.56C92.5603 1068.61 118.392 1094.44 122.445 1127.01L130.384 1126.02ZM51 1046H59V138H51H43V1046H51ZM60.9801 127.384L61.9681 135.322C101.806 130.365 133.365 98.8063 138.322 58.9681L130.384 57.9801L122.445 56.9922C118.392 89.5603 92.5603 115.392 59.9922 119.445L60.9801 127.384ZM141 48V56H708V48V40H141V48ZM130.384 57.9801L138.322 58.9681C138.438 58.0389 138.872 57.2306 139.427 56.6958C139.954 56.1887 140.494 56 141 56V48V40C130.84 40 123.547 48.1329 122.445 56.9922L130.384 57.9801ZM51 138H59C59 137.494 59.1887 136.954 59.6958 136.427C60.2306 135.872 61.0389 135.438 61.9681 135.322L60.9801 127.384L59.9922 119.445C51.1329 120.547 43 127.84 43 138H51ZM60.9801 1056.62L61.9681 1048.68C61.0389 1048.56 60.2306 1048.13 59.6958 1047.57C59.1887 1047.05 59 1046.51 59 1046H51H43C43 1056.16 51.1329 1063.45 59.9922 1064.56L60.9801 1056.62ZM141 1136V1128C140.494 1128 139.954 1127.81 139.427 1127.3C138.872 1126.77 138.438 1125.96 138.322 1125.03L130.384 1126.02L122.445 1127.01C123.547 1135.87 130.84 1144 141 1144V1136ZM718.616 1126.02L710.678 1125.03C710.562 1125.96 710.128 1126.77 709.573 1127.3C709.046 1127.81 708.506 1128 708 1128V1136V1144C718.16 1144 725.453 1135.87 726.555 1127.01L718.616 1126.02ZM798 1046H790C790 1046.51 789.811 1047.05 789.304 1047.57C788.769 1048.13 787.961 1048.56 787.032 1048.68L788.02 1056.62L789.008 1064.56C797.867 1063.45 806 1056.16 806 1046H798ZM788.02 127.384L787.032 135.322C787.961 135.438 788.769 135.872 789.304 136.427C789.811 136.954 790 137.494 790 138H798H806C806 127.84 797.867 120.547 789.008 119.445L788.02 127.384ZM718.616 57.9801L726.555 56.9922C725.453 48.1329 718.16 40 708 40V48V56C708.506 56 709.046 56.1887 709.573 56.6958C710.128 57.2306 710.562 58.0389 710.678 58.9681L718.616 57.9801Z" fill="black" mask="url(#path-6-inside-1_1_3039)"/>
<path d="M690 102C695.523 102 699.911 106.512 700.837 111.957C705.019 136.563 724.437 155.981 749.043 160.163C754.488 161.089 759 165.477 759 171V1014C759 1019.52 754.488 1023.91 749.043 1024.84C724.711 1028.97 705.454 1048 700.984 1072.22C699.993 1077.59 695.633 1082 690.175 1082H158.825C153.367 1082 149.007 1077.59 148.016 1072.22C143.546 1048 124.288 1028.97 99.9568 1024.84C94.5121 1023.91 90 1019.52 90 1014V171C90 165.477 94.512 161.089 99.9568 160.163C124.563 155.981 143.981 136.563 148.163 111.957C149.089 106.512 153.477 102 159 102H690Z" fill="#4BADDC"/>
<path d="M148.81 272.735C140.2 272.735 133.13 270.705 127.6 266.645C122.07 262.515 119.095 256.635 118.675 249.005H140.62C140.83 251.595 141.6 253.485 142.93 254.675C144.26 255.865 145.975 256.46 148.075 256.46C149.965 256.46 151.505 256.005 152.695 255.095C153.955 254.115 154.585 252.785 154.585 251.105C154.585 248.935 153.57 247.255 151.54 246.065C149.51 244.875 146.22 243.545 141.67 242.075C136.84 240.465 132.92 238.925 129.91 237.455C126.97 235.915 124.38 233.71 122.14 230.84C119.97 227.9 118.885 224.085 118.885 219.395C118.885 214.635 120.075 210.575 122.455 207.215C124.835 203.785 128.125 201.195 132.325 199.445C136.525 197.695 141.285 196.82 146.605 196.82C155.215 196.82 162.075 198.85 167.185 202.91C172.365 206.9 175.13 212.535 175.48 219.815H153.115C153.045 217.575 152.345 215.895 151.015 214.775C149.755 213.655 148.11 213.095 146.08 213.095C144.54 213.095 143.28 213.55 142.3 214.46C141.32 215.37 140.83 216.665 140.83 218.345C140.83 219.745 141.355 220.97 142.405 222.02C143.525 223 144.89 223.875 146.5 224.645C148.11 225.345 150.49 226.255 153.64 227.375C158.33 228.985 162.18 230.595 165.19 232.205C168.27 233.745 170.895 235.95 173.065 238.82C175.305 241.62 176.425 245.19 176.425 249.53C176.425 253.94 175.305 257.895 173.065 261.395C170.895 264.895 167.71 267.66 163.51 269.69C159.38 271.72 154.48 272.735 148.81 272.735ZM220.747 254.465V272H211.822C196.772 272 189.247 264.545 189.247 249.635V230.21H182.002V213.095H189.247V198.815H209.932V213.095H220.642V230.21H209.932V249.95C209.932 251.56 210.282 252.715 210.982 253.415C211.752 254.115 213.012 254.465 214.762 254.465H220.747ZM250.767 223.49C253.077 220.13 255.877 217.47 259.167 215.51C262.457 213.55 265.992 212.57 269.772 212.57V234.515H263.997C259.517 234.515 256.192 235.39 254.022 237.14C251.852 238.89 250.767 241.935 250.767 246.275V272H230.187V213.095H250.767V223.49ZM273.79 242.495C273.79 236.405 274.875 231.085 277.045 226.535C279.285 221.985 282.295 218.485 286.075 216.035C289.925 213.585 294.195 212.36 298.885 212.36C302.945 212.36 306.445 213.165 309.385 214.775C312.325 216.385 314.6 218.555 316.21 221.285V213.095H336.79V272H316.21V263.81C314.6 266.54 312.29 268.71 309.28 270.32C306.34 271.93 302.875 272.735 298.885 272.735C294.195 272.735 289.925 271.51 286.075 269.06C282.295 266.61 279.285 263.11 277.045 258.56C274.875 253.94 273.79 248.585 273.79 242.495ZM316.21 242.495C316.21 238.715 315.16 235.74 313.06 233.57C311.03 231.4 308.51 230.315 305.5 230.315C302.42 230.315 299.865 231.4 297.835 233.57C295.805 235.67 294.79 238.645 294.79 242.495C294.79 246.275 295.805 249.285 297.835 251.525C299.865 253.695 302.42 254.78 305.5 254.78C308.51 254.78 311.03 253.695 313.06 251.525C315.16 249.355 316.21 246.345 316.21 242.495ZM435.562 213.095L420.547 272H397.447L389.257 236.3L380.752 272H357.757L342.847 213.095H363.322L369.937 252.155L378.652 213.095H400.702L409.732 252.26L416.242 213.095H435.562ZM461.997 221.285C463.607 218.485 465.882 216.315 468.822 214.775C471.762 213.165 475.227 212.36 479.217 212.36C483.907 212.36 488.142 213.585 491.922 216.035C495.772 218.485 498.782 221.985 500.952 226.535C503.192 231.085 504.312 236.405 504.312 242.495C504.312 248.585 503.192 253.94 500.952 258.56C498.782 263.11 495.772 266.61 491.922 269.06C488.142 271.51 483.907 272.735 479.217 272.735C475.227 272.735 471.762 271.965 468.822 270.425C465.882 268.815 463.607 266.61 461.997 263.81V272H441.417V194.3H461.997V221.285ZM483.417 242.495C483.417 238.645 482.367 235.67 480.267 233.57C478.237 231.4 475.717 230.315 472.707 230.315C469.697 230.315 467.142 231.4 465.042 233.57C463.012 235.74 461.997 238.715 461.997 242.495C461.997 246.345 463.012 249.355 465.042 251.525C467.142 253.695 469.697 254.78 472.707 254.78C475.717 254.78 478.237 253.695 480.267 251.525C482.367 249.285 483.417 246.275 483.417 242.495ZM569.064 241.865C569.064 243.475 568.959 245.085 568.749 246.695H529.794C530.004 249.915 530.879 252.33 532.419 253.94C534.029 255.48 536.059 256.25 538.509 256.25C541.939 256.25 544.389 254.71 545.859 251.63H567.804C566.894 255.69 565.109 259.33 562.449 262.55C559.859 265.7 556.569 268.185 552.579 270.005C548.589 271.825 544.179 272.735 539.349 272.735C533.539 272.735 528.359 271.51 523.809 269.06C519.329 266.61 515.794 263.11 513.204 258.56C510.684 254.01 509.424 248.655 509.424 242.495C509.424 236.335 510.684 231.015 513.204 226.535C515.724 221.985 519.224 218.485 523.704 216.035C528.254 213.585 533.469 212.36 539.349 212.36C545.159 212.36 550.304 213.55 554.784 215.93C559.264 218.31 562.764 221.74 565.284 226.22C567.804 230.63 569.064 235.845 569.064 241.865ZM548.064 236.72C548.064 234.2 547.224 232.24 545.544 230.84C543.864 229.37 541.764 228.635 539.244 228.635C536.724 228.635 534.659 229.335 533.049 230.735C531.439 232.065 530.389 234.06 529.899 236.72H548.064ZM598.066 223.49C600.376 220.13 603.176 217.47 606.466 215.51C609.756 213.55 613.291 212.57 617.071 212.57V234.515H611.296C606.816 234.515 603.491 235.39 601.321 237.14C599.151 238.89 598.066 241.935 598.066 246.275V272H577.486V213.095H598.066V223.49ZM645.029 223.49C647.339 220.13 650.139 217.47 653.429 215.51C656.719 213.55 660.254 212.57 664.034 212.57V234.515H658.259C653.779 234.515 650.454 235.39 648.284 237.14C646.114 238.89 645.029 241.935 645.029 246.275V272H624.449V213.095H645.029V223.49ZM734.832 213.095L697.452 300.035H675.087L689.157 269.48L665.007 213.095H687.897L700.287 246.485L712.257 213.095H734.832Z" fill="black"/>
<mask id="path-10-outside-2_1_3039" maskUnits="userSpaceOnUse" x="412" y="1007" width="37" height="32" fill="black">
<rect fill="white" x="412" y="1007" width="37" height="32"/>
<path d="M412.8 1012V1007.84H421.12V1037H416.52V1012H412.8ZM432.304 1021.76C429.531 1020.37 428.144 1018.19 428.144 1015.2C428.144 1013.76 428.504 1012.44 429.224 1011.24C429.944 1010.04 431.024 1009.09 432.464 1008.4C433.904 1007.68 435.664 1007.32 437.744 1007.32C439.798 1007.32 441.544 1007.68 442.984 1008.4C444.451 1009.09 445.544 1010.04 446.264 1011.24C446.984 1012.44 447.344 1013.76 447.344 1015.2C447.344 1016.69 446.958 1018.01 446.184 1019.16C445.438 1020.28 444.438 1021.15 443.184 1021.76C444.704 1022.32 445.904 1023.24 446.784 1024.52C447.664 1025.77 448.104 1027.25 448.104 1028.96C448.104 1030.69 447.664 1032.23 446.784 1033.56C445.904 1034.89 444.678 1035.92 443.104 1036.64C441.531 1037.36 439.744 1037.72 437.744 1037.72C435.744 1037.72 433.958 1037.36 432.384 1036.64C430.838 1035.92 429.624 1034.89 428.744 1033.56C427.864 1032.23 427.424 1030.69 427.424 1028.96C427.424 1027.23 427.864 1025.73 428.744 1024.48C429.624 1023.23 430.811 1022.32 432.304 1021.76ZM442.984 1015.76C442.984 1014.27 442.518 1013.12 441.584 1012.32C440.651 1011.52 439.371 1011.12 437.744 1011.12C436.144 1011.12 434.878 1011.52 433.944 1012.32C433.011 1013.12 432.544 1014.28 432.544 1015.8C432.544 1017.13 433.024 1018.23 433.984 1019.08C434.971 1019.91 436.224 1020.32 437.744 1020.32C439.264 1020.32 440.518 1019.89 441.504 1019.04C442.491 1018.19 442.984 1017.09 442.984 1015.76ZM437.744 1023.76C435.984 1023.76 434.544 1024.2 433.424 1025.08C432.331 1025.93 431.784 1027.17 431.784 1028.8C431.784 1030.32 432.318 1031.56 433.384 1032.52C434.451 1033.45 435.904 1033.92 437.744 1033.92C439.558 1033.92 440.984 1033.44 442.024 1032.48C443.091 1031.52 443.624 1030.29 443.624 1028.8C443.624 1027.2 443.078 1025.96 441.984 1025.08C440.918 1024.2 439.504 1023.76 437.744 1023.76Z"/>
</mask>
<path d="M412.8 1012V1007.84H421.12V1037H416.52V1012H412.8ZM432.304 1021.76C429.531 1020.37 428.144 1018.19 428.144 1015.2C428.144 1013.76 428.504 1012.44 429.224 1011.24C429.944 1010.04 431.024 1009.09 432.464 1008.4C433.904 1007.68 435.664 1007.32 437.744 1007.32C439.798 1007.32 441.544 1007.68 442.984 1008.4C444.451 1009.09 445.544 1010.04 446.264 1011.24C446.984 1012.44 447.344 1013.76 447.344 1015.2C447.344 1016.69 446.958 1018.01 446.184 1019.16C445.438 1020.28 444.438 1021.15 443.184 1021.76C444.704 1022.32 445.904 1023.24 446.784 1024.52C447.664 1025.77 448.104 1027.25 448.104 1028.96C448.104 1030.69 447.664 1032.23 446.784 1033.56C445.904 1034.89 444.678 1035.92 443.104 1036.64C441.531 1037.36 439.744 1037.72 437.744 1037.72C435.744 1037.72 433.958 1037.36 432.384 1036.64C430.838 1035.92 429.624 1034.89 428.744 1033.56C427.864 1032.23 427.424 1030.69 427.424 1028.96C427.424 1027.23 427.864 1025.73 428.744 1024.48C429.624 1023.23 430.811 1022.32 432.304 1021.76ZM442.984 1015.76C442.984 1014.27 442.518 1013.12 441.584 1012.32C440.651 1011.52 439.371 1011.12 437.744 1011.12C436.144 1011.12 434.878 1011.52 433.944 1012.32C433.011 1013.12 432.544 1014.28 432.544 1015.8C432.544 1017.13 433.024 1018.23 433.984 1019.08C434.971 1019.91 436.224 1020.32 437.744 1020.32C439.264 1020.32 440.518 1019.89 441.504 1019.04C442.491 1018.19 442.984 1017.09 442.984 1015.76ZM437.744 1023.76C435.984 1023.76 434.544 1024.2 433.424 1025.08C432.331 1025.93 431.784 1027.17 431.784 1028.8C431.784 1030.32 432.318 1031.56 433.384 1032.52C434.451 1033.45 435.904 1033.92 437.744 1033.92C439.558 1033.92 440.984 1033.44 442.024 1032.48C443.091 1031.52 443.624 1030.29 443.624 1028.8C443.624 1027.2 443.078 1025.96 441.984 1025.08C440.918 1024.2 439.504 1023.76 437.744 1023.76Z" fill="black"/>
<path d="M412.8 1012H412.5V1012.3H412.8V1012ZM412.8 1007.84V1007.54H412.5V1007.84H412.8ZM421.12 1007.84H421.42V1007.54H421.12V1007.84ZM421.12 1037V1037.3H421.42V1037H421.12ZM416.52 1037H416.22V1037.3H416.52V1037ZM416.52 1012H416.82V1011.7H416.52V1012ZM412.8 1012H413.1V1007.84H412.8H412.5V1012H412.8ZM412.8 1007.84V1008.14H421.12V1007.84V1007.54H412.8V1007.84ZM421.12 1007.84H420.82V1037H421.12H421.42V1007.84H421.12ZM421.12 1037V1036.7H416.52V1037V1037.3H421.12V1037ZM416.52 1037H416.82V1012H416.52H416.22V1037H416.52ZM416.52 1012V1011.7H412.8V1012V1012.3H416.52V1012ZM432.304 1021.76L432.41 1022.04L433.054 1021.8L432.439 1021.49L432.304 1021.76ZM429.224 1011.24L428.967 1011.09L429.224 1011.24ZM432.464 1008.4L432.595 1008.67L432.599 1008.67L432.464 1008.4ZM442.984 1008.4L442.85 1008.67L442.856 1008.67L442.984 1008.4ZM446.264 1011.24L446.522 1011.09L446.264 1011.24ZM446.184 1019.16L445.936 1018.99L445.935 1018.99L446.184 1019.16ZM443.184 1021.76L443.053 1021.49L442.422 1021.8L443.081 1022.04L443.184 1021.76ZM446.784 1024.52L446.537 1024.69L446.539 1024.69L446.784 1024.52ZM446.784 1033.56L447.035 1033.73L446.784 1033.56ZM443.104 1036.64L442.98 1036.37L443.104 1036.64ZM432.384 1036.64L432.258 1036.91L432.26 1036.91L432.384 1036.64ZM428.744 1033.56L428.494 1033.73L428.744 1033.56ZM428.744 1024.48L428.499 1024.31L428.744 1024.48ZM441.584 1012.32L441.78 1012.09V1012.09L441.584 1012.32ZM433.944 1012.32L433.749 1012.09V1012.09L433.944 1012.32ZM433.984 1019.08L433.785 1019.3L433.792 1019.31L433.984 1019.08ZM433.424 1025.08L433.609 1025.32L433.61 1025.32L433.424 1025.08ZM433.384 1032.52L433.184 1032.74L433.187 1032.75L433.384 1032.52ZM442.024 1032.48L441.824 1032.26L441.821 1032.26L442.024 1032.48ZM441.984 1025.08L441.793 1025.31L441.796 1025.31L441.984 1025.08ZM432.304 1021.76L432.439 1021.49C431.091 1020.82 430.097 1019.96 429.438 1018.92C428.779 1017.88 428.444 1016.65 428.444 1015.2H428.144H427.844C427.844 1016.74 428.203 1018.09 428.931 1019.24C429.659 1020.39 430.744 1021.32 432.17 1022.03L432.304 1021.76ZM428.144 1015.2H428.444C428.444 1013.81 428.79 1012.55 429.482 1011.39L429.224 1011.24L428.967 1011.09C428.218 1012.33 427.844 1013.71 427.844 1015.2H428.144ZM429.224 1011.24L429.482 1011.39C430.167 1010.25 431.2 1009.34 432.595 1008.67L432.464 1008.4L432.334 1008.13C430.849 1008.84 429.721 1009.83 428.967 1011.09L429.224 1011.24ZM432.464 1008.4L432.599 1008.67C433.987 1007.97 435.698 1007.62 437.744 1007.62V1007.32V1007.02C435.631 1007.02 433.822 1007.39 432.33 1008.13L432.464 1008.4ZM437.744 1007.32V1007.62C439.764 1007.62 441.462 1007.97 442.85 1008.67L442.984 1008.4L443.119 1008.13C441.627 1007.39 439.832 1007.02 437.744 1007.02V1007.32ZM442.984 1008.4L442.856 1008.67C444.278 1009.34 445.322 1010.25 446.007 1011.39L446.264 1011.24L446.522 1011.09C445.766 1009.83 444.624 1008.84 443.113 1008.13L442.984 1008.4ZM446.264 1011.24L446.007 1011.39C446.698 1012.55 447.044 1013.81 447.044 1015.2H447.344H447.644C447.644 1013.71 447.27 1012.33 446.522 1011.09L446.264 1011.24ZM447.344 1015.2H447.044C447.044 1016.64 446.673 1017.9 445.936 1018.99L446.184 1019.16L446.433 1019.33C447.243 1018.13 447.644 1016.75 447.644 1015.2H447.344ZM446.184 1019.16L445.935 1018.99C445.219 1020.07 444.26 1020.9 443.053 1021.49L443.184 1021.76L443.316 1022.03C444.615 1021.39 445.657 1020.49 446.434 1019.33L446.184 1019.16ZM443.184 1021.76L443.081 1022.04C444.545 1022.58 445.694 1023.46 446.537 1024.69L446.784 1024.52L447.032 1024.35C446.115 1023.02 444.864 1022.06 443.288 1021.48L443.184 1021.76ZM446.784 1024.52L446.539 1024.69C447.379 1025.89 447.804 1027.31 447.804 1028.96H448.104H448.404C448.404 1027.2 447.949 1025.66 447.03 1024.35L446.784 1024.52ZM448.104 1028.96H447.804C447.804 1030.64 447.379 1032.11 446.534 1033.39L446.784 1033.56L447.035 1033.73C447.95 1032.34 448.404 1030.75 448.404 1028.96H448.104ZM446.784 1033.56L446.534 1033.39C445.688 1034.68 444.506 1035.67 442.98 1036.37L443.104 1036.64L443.229 1036.91C444.849 1036.17 446.121 1035.11 447.035 1033.73L446.784 1033.56ZM443.104 1036.64L442.98 1036.37C441.451 1037.07 439.708 1037.42 437.744 1037.42V1037.72V1038.02C439.781 1038.02 441.611 1037.65 443.229 1036.91L443.104 1036.64ZM437.744 1037.72V1037.42C435.781 1037.42 434.038 1037.07 432.509 1036.37L432.384 1036.64L432.26 1036.91C433.878 1037.65 435.708 1038.02 437.744 1038.02V1037.72ZM432.384 1036.64L432.511 1036.37C431.011 1035.67 429.842 1034.68 428.995 1033.39L428.744 1033.56L428.494 1033.73C429.407 1035.11 430.664 1036.17 432.258 1036.91L432.384 1036.64ZM428.744 1033.56L428.995 1033.39C428.15 1032.11 427.724 1030.64 427.724 1028.96H427.424H427.124C427.124 1030.75 427.579 1032.34 428.494 1033.73L428.744 1033.56ZM427.424 1028.96H427.724C427.724 1027.28 428.15 1025.85 428.99 1024.65L428.744 1024.48L428.499 1024.31C427.579 1025.62 427.124 1027.17 427.124 1028.96H427.424ZM428.744 1024.48L428.99 1024.65C429.834 1023.45 430.97 1022.58 432.41 1022.04L432.304 1021.76L432.199 1021.48C430.652 1022.06 429.415 1023 428.499 1024.31L428.744 1024.48ZM442.984 1015.76H443.284C443.284 1014.2 442.794 1012.96 441.78 1012.09L441.584 1012.32L441.389 1012.55C442.242 1013.28 442.684 1014.33 442.684 1015.76H442.984ZM441.584 1012.32L441.78 1012.09C440.776 1011.23 439.419 1010.82 437.744 1010.82V1011.12V1011.42C439.323 1011.42 440.526 1011.81 441.389 1012.55L441.584 1012.32ZM437.744 1011.12V1010.82C436.095 1010.82 434.751 1011.23 433.749 1012.09L433.944 1012.32L434.14 1012.55C435.004 1011.81 436.194 1011.42 437.744 1011.42V1011.12ZM433.944 1012.32L433.749 1012.09C432.734 1012.96 432.244 1014.21 432.244 1015.8H432.544H432.844C432.844 1014.35 433.288 1013.28 434.14 1012.55L433.944 1012.32ZM432.544 1015.8H432.244C432.244 1017.22 432.758 1018.39 433.785 1019.3L433.984 1019.08L434.184 1018.86C433.29 1018.06 432.844 1017.05 432.844 1015.8H432.544ZM433.984 1019.08L433.792 1019.31C434.842 1020.19 436.167 1020.62 437.744 1020.62V1020.32V1020.02C436.281 1020.02 435.1 1019.62 434.177 1018.85L433.984 1019.08ZM437.744 1020.32V1020.62C439.324 1020.62 440.651 1020.18 441.701 1019.27L441.504 1019.04L441.308 1018.81C440.385 1019.61 439.205 1020.02 437.744 1020.02V1020.32ZM441.504 1019.04L441.701 1019.27C442.755 1018.36 443.284 1017.18 443.284 1015.76H442.984H442.684C442.684 1017.01 442.227 1018.02 441.308 1018.81L441.504 1019.04ZM437.744 1023.76V1023.46C435.933 1023.46 434.423 1023.91 433.239 1024.84L433.424 1025.08L433.61 1025.32C434.665 1024.49 436.035 1024.06 437.744 1024.06V1023.76ZM433.424 1025.08L433.24 1024.84C432.061 1025.76 431.484 1027.1 431.484 1028.8H431.784H432.084C432.084 1027.25 432.602 1026.1 433.609 1025.32L433.424 1025.08ZM431.784 1028.8H431.484C431.484 1030.4 432.05 1031.72 433.184 1032.74L433.384 1032.52L433.585 1032.3C432.586 1031.4 432.084 1030.24 432.084 1028.8H431.784ZM433.384 1032.52L433.187 1032.75C434.323 1033.74 435.854 1034.22 437.744 1034.22V1033.92V1033.62C435.955 1033.62 434.579 1033.17 433.582 1032.29L433.384 1032.52ZM437.744 1033.92V1034.22C439.611 1034.22 441.118 1033.72 442.228 1032.7L442.024 1032.48L441.821 1032.26C440.851 1033.16 439.504 1033.62 437.744 1033.62V1033.92ZM442.024 1032.48L442.225 1032.7C443.358 1031.68 443.924 1030.37 443.924 1028.8H443.624H443.324C443.324 1030.21 442.824 1031.36 441.824 1032.26L442.024 1032.48ZM443.624 1028.8H443.924C443.924 1027.12 443.347 1025.79 442.172 1024.85L441.984 1025.08L441.796 1025.31C442.808 1026.13 443.324 1027.28 443.324 1028.8H443.624ZM441.984 1025.08L442.175 1024.85C441.042 1023.91 439.555 1023.46 437.744 1023.46V1023.76V1024.06C439.454 1024.06 440.794 1024.49 441.793 1025.31L441.984 1025.08Z" fill="black" mask="url(#path-10-outside-2_1_3039)"/>
<path d="M179.535 620.532C171.586 651.848 226.761 791.064 217.661 788.754C208.561 786.445 99.7292 650.187 146.58 612.168C154.528 580.852 168.349 557.338 177.449 559.648C186.549 561.958 187.483 589.216 179.535 620.532Z" fill="#D9D9D9"/>
<path d="M458.484 562.36C431.609 580.292 383.687 752.964 378.476 745.154C363.476 722.672 379.36 530.933 439.614 534.078C466.49 516.146 492.501 507.941 497.712 515.751C502.923 523.561 485.36 544.429 458.484 562.36Z" fill="#D9D9D9"/>
<path d="M325.085 365C330.602 365.101 333.379 370.399 335.954 374.464C353.486 402.134 352.95 431.263 342.812 460.903C386.472 465.297 426.206 486.007 447.909 525.85C461.346 518.02 480.213 513.129 495.576 512.318C487.079 491.538 476.283 456.869 492.628 437.02C494.049 436.447 495.694 435.956 497.165 435.473C506.204 437.616 504.387 445.256 509.496 451.751C526.416 473.262 535.784 451.824 551.865 455.132C566.664 458.89 582.009 475.299 590.153 487.421C594.487 482.857 598.264 475.225 602.29 469.581C656.777 393.183 692.496 455.14 663.356 472.58C645.222 483.303 638.607 488.004 627.691 507.93C634.471 505.3 638.58 502.202 647.354 499.449C677.838 489.884 688.313 510.384 715.501 508.686C725.864 508.037 734.203 501.739 744.372 499.138C748.535 500.657 749.115 501.666 751 505.485C740.772 542.929 724.66 564.319 691.447 582.113C715.008 620.524 729.179 655.84 721.167 702.27C709.503 769.868 655.443 825.286 600.852 863.365C574.007 881.341 520.516 909.206 488.013 916.252C453.211 923.8 423.784 907.794 404.794 879.52C401.68 874.885 399.642 869.465 396.432 864.986C389.272 868.799 381.759 871.535 373.596 871.804C341.235 872.865 276.951 839.61 249.87 821.78C188.097 781.105 135.262 717.027 133.266 640.135C132.532 611.867 139.276 579.451 159.189 558.416C138.228 554.457 116.567 539.646 104.705 521.902C89.263 498.8 108.657 504.556 121.641 505.357C138.879 507.082 142.741 496.547 149.596 483.472C160.182 463.279 189.667 469.335 205.932 478.397C204.971 474.033 203.573 469.762 202.43 465.432C197.326 446.095 195.231 406.223 205.527 387.448C215.428 369.393 241.21 375.932 246.901 399.928C240.734 423.478 236.358 433.42 244.58 459.555C247.586 436.186 259.551 415.671 282.427 406.926C298.507 400.78 310.462 401.514 315.462 378.694C316.141 375.592 316.946 370.429 318.256 367.65C320.984 366.122 322.129 365.837 325.085 365ZM486.213 538.551C488.464 534.703 493.877 529.402 497.165 525.85C401.464 533.115 370.836 643.099 378.075 724.481C378.933 734.139 380.182 743.473 381.429 752.877C382.681 746.001 381.326 723.647 381.446 715.462C382.435 648.335 413.08 557.177 486.213 538.551ZM170.025 579.969C169.348 575.508 168.793 571.55 168.352 567.056C151.496 588.177 146.918 610.003 146.497 637.063C145.662 690.75 178.987 748.013 219.631 782.031C218.134 778.697 212.972 773.606 210.529 770.461C190.02 744.029 169.931 712.633 162.109 679.759C155.042 650.061 153.616 606.756 170.025 579.969Z" fill="black"/>
<path d="M381.429 752.877C382.681 746.001 381.326 723.647 381.446 715.462C382.435 648.335 413.08 557.177 486.212 538.551C482.09 543.925 457.125 586.372 476.782 583.853C479.41 583.517 484.465 579.937 487.174 578.636C515.394 565.075 547.501 565.297 574.703 581.316C584.173 586.893 588.73 594.073 596.376 601.584C618.448 621.63 644.499 641.486 674.602 645.755C692.029 645.524 680.253 633.741 678.119 625.423C674.259 614.254 669.077 599.137 667.037 587.567C670.507 587.575 674.907 587.713 678.279 587.567C692.516 602.137 704.792 636.365 708.21 656.096C721.725 734.148 661.568 802.006 603.816 845.447C574.581 867.477 526.794 890.668 493.073 901.752C461.071 912.271 424.377 895.639 412.063 864.986C401.604 846.937 381.231 776.806 381.429 752.877Z" fill="#E70F49"/>
<path d="M678.279 587.567C692.516 602.137 704.792 636.365 708.21 656.096C721.725 734.148 661.568 802.006 603.817 845.447C574.581 867.477 526.794 890.668 493.074 901.752C461.071 912.271 424.377 895.639 412.063 864.986C416.413 866.987 420.053 872.308 424.147 875.143C439.001 885.429 459.198 882.273 475.378 877.223C478.931 876.081 496.685 870.507 498.231 868.809C508.037 878.914 516.964 869.763 521.891 860.412C526.94 858.377 560.21 835.668 563.624 831.281C561.234 816.301 589.508 793.733 591.912 811.822C602.473 804.778 613.736 790.806 623.039 782.031C619.586 770.063 633.723 747.047 646.41 757.319C649.701 750.816 668.988 715.536 667.037 709.945C675.588 702.581 683.282 682.528 669.795 676.113C672.091 666.097 673.375 655.946 674.602 645.755C692.029 645.524 680.253 633.741 678.119 625.423C674.259 614.254 669.077 599.137 667.037 587.567C670.507 587.575 674.908 587.713 678.279 587.567Z" fill="#BF0B17"/>
<path d="M563.624 831.281C561.234 816.301 589.508 793.733 591.911 811.822C591.861 830.902 572.488 851.763 563.624 831.281Z" fill="black"/>
<path d="M583.717 811.822C591.755 810.755 580.79 830.172 574.097 833.646C561.792 829.054 577.871 814.825 583.717 811.822Z" fill="#E70F1D"/>
<path d="M623.039 782.031C619.586 770.063 633.723 747.047 646.41 757.319C655.939 769.077 636.889 800.108 623.039 782.031Z" fill="black"/>
<path d="M639.498 760.807C647.83 761.276 640.387 777.744 631.872 782.031C624.38 775.459 632.598 764.478 639.498 760.807Z" fill="#E70F1D"/>
<path d="M669.795 676.113C683.282 682.528 675.588 702.581 667.038 709.945C644.081 726.43 647.296 675.464 669.795 676.113Z" fill="black"/>
<path d="M668.314 683.774L669.212 684.046C673.723 688.311 667.655 706.105 659.091 706.473C651.85 700.689 661.072 686.334 668.314 683.774Z" fill="#E70F1D"/>
<path d="M498.231 868.809C488.315 846.014 532.469 822.067 521.891 860.412C516.964 869.762 508.037 878.913 498.231 868.809Z" fill="black"/>
<path d="M515.617 846.095L516.088 846.425C519.155 851.803 514.701 868.692 505.16 866.353C496.132 860.453 509.634 848.966 515.617 846.095Z" fill="#E70F1D"/>
<path d="M446.476 574.783C458.518 573.724 455.159 611.029 430.725 612.703C410.844 601.458 430.65 578.494 446.476 574.783Z" fill="black"/>
<path d="M444.88 582.113L445.518 582.084L445.783 582.594C445.728 590.576 443.482 610.342 430.725 605.213C422.498 598.342 437.781 584.474 444.88 582.113Z" fill="#E70F1D"/>
<path d="M412.063 678.412C429.373 676.169 426.638 712.849 406.084 716.127C385.794 714.611 396.584 685.173 412.063 678.412Z" fill="black"/>
<path d="M413.231 685.112C418.098 685.84 416.512 710.035 405.364 709.945C396.171 701.558 404.691 689.744 413.231 685.112Z" fill="#E70F1D"/>
<path d="M555.419 616.819C572.965 614.3 566.072 651.072 549.109 652.524C533.94 655.351 538.809 621.396 555.419 616.819Z" fill="black"/>
<path d="M556.579 623.013L558.227 623.053C563.516 627.371 554.206 644.61 549.109 647.572C540.877 641.316 549.664 626.741 556.579 623.013Z" fill="#E70F1D"/>
<path d="M505.16 610.03C518.845 608.388 512.447 646.318 492.628 644.727C474.234 638.717 489.475 614.881 505.16 610.03Z" fill="black"/>
<path d="M503.693 616.819L505.046 616.924C508.806 620.905 503.141 638.379 493.589 638.972C485.401 631.337 496.382 620.332 503.693 616.819Z" fill="#E70F1D"/>
<path d="M580.149 714.897C595.808 715.382 588.436 746.139 569.851 750.134C550.653 744.563 564.243 717.886 580.149 714.897Z" fill="black"/>
<path d="M580.149 721.329C585.173 723.185 578.67 742.949 569.851 743.089C561.853 736.713 573.125 723.676 580.149 721.329Z" fill="#E70F1D"/>
<path d="M603.268 647.572C620.482 643.199 614.144 680.487 596.109 682.501C578.478 680.731 588.195 651.943 603.268 647.572Z" fill="black"/>
<path d="M605.101 652.524L605.494 652.74C609.423 659.028 603.752 675.85 594.914 676.113C588.34 670.067 599.651 656.234 605.101 652.524Z" fill="#E70F1D"/>
<path d="M498.231 745.207C516.474 744.506 508.139 776.571 490.894 782.031C472.284 777.148 485.454 751.477 498.231 745.207Z" fill="black"/>
<path d="M500.114 752.877C504.478 752.701 500.409 774.27 489.702 774.491C484.102 767.65 493.215 755.613 500.114 752.877Z" fill="#E70F1D"/>
<path d="M533.424 683.774C553.25 682.063 542.559 712.974 527.255 717.887C510.153 720.017 516.041 690.174 533.424 683.774Z" fill="black"/>
<path d="M536.771 689.005L537.299 689.275C539.13 695.96 532.492 711.444 524.711 711.868C519.625 702.52 529.105 693.112 536.771 689.005Z" fill="#E70F1D"/>
<path d="M438.015 750.134C447.278 751.283 445.759 788.17 423.827 786.737C409.213 773.835 424.882 754.253 438.015 750.134Z" fill="black"/>
<path d="M436.634 757.319L436.976 757.533C439.153 764.197 435.903 780.401 425.125 780.572C420.333 771.802 429.933 761.936 436.634 757.319Z" fill="#E70F1D"/>
<path d="M459.342 822.204C471.231 820.977 470.303 856.703 450.881 856.947C433.675 851.878 443.303 826.452 459.342 822.204Z" fill="black"/>
<path d="M459.343 827.658C462.289 829.699 460.96 853.392 450.881 850.453C444.208 842.426 452.039 832.129 459.343 827.658Z" fill="#E70F1D"/>
<path d="M480.633 679.885C492.963 678.951 489.361 715.003 468.677 713.848C449.931 709.249 466.966 686.316 480.633 679.885Z" fill="black"/>
<path d="M480.633 687.211L480.858 687.409C482.995 692.576 477.593 710.444 468.677 707.877C462.882 699.78 473.176 689.686 480.633 687.211Z" fill="#E70F1D"/>
<path d="M541.128 775.952C556.158 774.368 547.79 811.4 530.222 808.336C512.25 803.321 525.764 780.828 541.128 775.952Z" fill="black"/>
<path d="M541.129 782.031C544.809 783.435 539.653 804.861 530.222 802.206C522.883 795.913 535.486 785 541.129 782.031Z" fill="#E70F1D"/>
<path d="M170.025 579.969C171.417 587.834 178.539 626.207 191.817 621.044C201.715 617.198 206.891 555.593 276.948 544.376C308.817 539.272 325.439 539.484 356.889 527.383C362.615 525.18 368.535 522.145 374.256 520.262L374.883 520.058C382.169 523.044 391.562 530.049 397.791 535.082L398.149 535.97C380.727 536.151 393.815 560.857 401.902 567.056C388.709 581.082 374.937 615.771 371.054 634.651C345.488 619.803 354.105 654.986 365.096 662.209C365.4 675.715 363.431 690.601 363.477 704.919C347.257 704.054 356.118 730.225 365.096 735.91C367.661 750.188 369 764.564 371.805 778.775C374.623 793.056 379.012 808.202 381.429 822.204C384.976 830.429 389.118 844.883 391.149 853.697C373.719 860.763 363.508 862.68 344.622 853.697C306.65 843.186 246.122 808.18 219.631 782.031C218.134 778.697 212.972 773.606 210.529 770.461C190.02 744.029 169.931 712.633 162.109 679.759C155.042 650.061 153.616 606.756 170.025 579.969Z" fill="#E70F49"/>
<path d="M381.429 822.204C384.976 830.429 389.118 844.883 391.149 853.697C373.719 860.763 363.508 862.68 344.622 853.697C347.728 851.872 351.455 851.072 354.871 849.817C371.433 843.73 374.527 836.29 381.429 822.204Z" fill="#E70F1D"/>
<path d="M172.327 636.861C185.851 635.814 199.259 666.078 184.154 674.291C166.022 681.306 159.422 644.702 172.327 636.861Z" fill="black"/>
<path d="M174.262 643.214C181.052 647.049 189.797 663.083 182.312 669.038C171.112 670.476 169.293 650.733 174.262 643.214Z" fill="#E70F1D"/>
<path d="M239.265 608.087C252.579 607.637 266.586 632.797 252.646 644.727C233.015 650.737 227.438 617.125 239.265 608.087Z" fill="black"/>
<path d="M240.582 614.477C248.756 616.695 256.734 632.258 250.061 638.972C239.5 641.843 237.333 620.475 240.582 614.477Z" fill="#E70F1D"/>
<path d="M331.701 564.747C346.701 563.261 363.099 583.649 349.747 597.838C347.64 599.277 346.958 599.451 344.622 600.235C330.092 596.184 322.896 572.453 331.701 564.747Z" fill="black"/>
<path d="M334.543 571.117C343.439 571.676 352.096 584.077 346.476 592.62C337.435 597.718 333.127 576.556 334.543 571.117Z" fill="#E70F1D"/>
<path d="M307.404 643.214C322.406 642.262 335.248 667.379 320.332 676.112C299.373 684.13 296.743 647.059 307.404 643.214Z" fill="black"/>
<path d="M308.925 648.607C316.207 649.581 324.292 663.372 318.256 670.794C307.896 675.096 304.246 655.68 308.925 648.607Z" fill="#E70F1D"/>
<path d="M281.298 578.158C296.207 580.254 309.401 604.217 293.332 612.703C274.225 619.978 270.29 583.05 281.298 578.158Z" fill="black"/>
<path d="M283.866 584.426C291.183 589.046 294.599 594.901 294.733 603.618C293.39 605.657 292.968 606.419 291.093 608.087C281.452 609.305 277.403 590.372 283.866 584.426Z" fill="#E70F1D"/>
<path d="M219.631 737.114C231.668 736.822 250.699 759.623 235.166 770.266C220.333 777.365 205.573 745.075 219.631 737.114Z" fill="black"/>
<path d="M219.632 743.089C229.326 744.027 236.581 755.341 233.412 764.498C223.12 768.632 219.314 750.552 219.632 743.089Z" fill="#E70F1D"/>
<path d="M323.215 714.897C336.202 712.966 354.073 737.412 338.455 747.609C321.996 753.943 311.959 723.793 323.215 714.897Z" fill="black"/>
<path d="M325.085 721.329C335.142 721.917 340.913 734.769 336.054 743.089C326.333 743.665 321.477 725.61 325.085 721.329Z" fill="#E70F1D"/>
<path d="M263.206 678.412C276.476 677.825 292.512 701.436 276.853 711.868C260.089 719.494 252.503 687.254 263.206 678.412Z" fill="black"/>
<path d="M265.694 685.112C273.056 685.781 280.37 699.219 275.188 706.473C265.037 711.203 263.595 691.566 265.694 685.112Z" fill="#E70F1D"/>
<path d="M288.592 774.491C302.698 773.682 317.552 796.331 303.406 808.336C286.46 810.922 277.146 783.724 288.592 774.491Z" fill="black"/>
<path d="M291.092 780.572C298.199 783.217 306.871 793.076 301.933 800.656C293.189 807.575 288.776 789.07 291.092 780.572Z" fill="#E70F1D"/>
<path d="M346.475 782.031C358.457 780.873 377.004 803.811 361.867 813.682C346.027 819.308 332.368 790.517 346.475 782.031Z" fill="black"/>
<path d="M348.33 786.737C354.808 789.562 359.8 797.017 361.867 803.496C361.047 805.674 360.809 806.307 359.551 808.335C351.036 813.567 345.376 794.412 348.33 786.737Z" fill="#E70F1D"/>
<path d="M316.673 405.429C323.14 397.747 323.329 395.122 327.42 387.069C340.669 410.51 338.229 444.683 324.481 467.429C322.392 470.883 319.947 474.786 318.255 478.397C311.811 475.317 306.513 471.542 299.535 470.054C280.917 464.647 268.959 476.74 259.65 491.194C254.824 471.742 255.589 457.546 264.521 439.418C276.777 414.542 298.729 421.9 316.673 405.429Z" fill="#6EC847"/>
<path d="M316.674 405.429C323.14 397.747 323.329 395.122 327.421 387.069C340.67 410.51 338.229 444.683 324.481 467.429C322.392 470.883 319.947 474.786 318.256 478.397C311.811 475.317 306.514 471.542 299.536 470.054C302.052 468.446 308.466 458.692 310.182 455.949C316.562 445.75 321.833 416.405 316.674 405.429Z" fill="#30A328"/>
<path d="M613.886 544.459C621.741 524.567 646.758 507.733 667.89 511.006C680.942 513.028 692.181 520.502 707.81 522.441C717.356 522.451 723.669 520.75 732.929 518.688C719.219 547.907 697.57 573.038 662.906 574.783C658.293 566.197 657.258 562.579 650.354 555.837C640.163 544.628 628.003 543.614 613.886 544.459Z" fill="#6EC847"/>
<path d="M707.811 522.441C717.356 522.451 723.669 520.75 732.929 518.688C719.219 547.907 697.57 573.038 662.906 574.783C658.293 566.197 657.258 562.579 650.354 555.837C668.275 552.067 694.866 534.454 707.811 522.441Z" fill="#30A328"/>
<path d="M159.189 493.732C168.275 475.128 192.43 485.355 206.991 492.122C216.54 496.561 218.2 508.01 224.909 515.525C213.657 515.173 208.023 515.121 196.669 517.207C179.913 522.402 173.882 530.946 170.025 547.265C149.175 543.584 132.8 534.433 118.811 518.688C140.6 518.807 150.06 514.072 159.189 493.732Z" fill="#6EC847"/>
<path d="M159.189 493.732C168.275 475.128 192.43 485.355 206.991 492.122C216.54 496.561 218.2 508.01 224.909 515.525C213.657 515.173 208.023 515.121 196.669 517.207C189.83 502.762 174.991 495.656 159.189 493.732Z" fill="#30A328"/>
<path d="M498.231 459.555C505.919 470.657 516.967 475.58 530.222 474.042C537.668 472.688 542.151 470.58 549.109 467.642C563.363 475.79 574.825 487.596 583.717 501.324C579.34 513.637 577.584 520.346 574.097 532.861C569.832 526.031 565.433 519.37 558.915 514.455C545.237 504.296 529.68 505.558 515.616 514.455C501.131 503.076 495.642 476.982 498.231 459.555Z" fill="#6EC847"/>
<path d="M549.109 467.642C563.363 475.79 574.825 487.596 583.717 501.324C579.34 513.638 577.584 520.347 574.097 532.861C569.832 526.031 565.433 519.37 558.915 514.455C558.998 500.284 543.709 477.554 530.222 474.042C537.668 472.688 542.151 470.58 549.109 467.642Z" fill="#30A328"/>
<path d="M265.694 510.28C268.503 499.111 280.06 478.014 294.915 482.381C308.591 486.402 354.462 504.531 364.302 510.28C358.333 512.496 348.552 516.181 342.812 518.688C317.821 526.188 286.108 534.221 260.91 525.85C261.779 520.296 262.688 515.052 265.694 510.28Z" fill="#6EC847"/>
<path d="M265.694 510.28C268.503 499.111 280.06 478.014 294.915 482.381C308.591 486.402 354.462 504.531 364.302 510.28C358.333 512.496 348.552 516.181 342.812 518.688C341.255 517.47 302.763 501.465 296.454 499.502C287.027 496.567 273.114 505.445 265.694 510.28Z" fill="#30A328"/>
<path d="M618.336 557.324C651.246 556.438 650.861 586.538 660.11 611.549C662.13 617.009 665.463 625.666 667.037 630.764C661.545 629.008 652.488 625.944 647.657 623.013C626.639 613.623 605.695 592.135 590.153 574.783C599.511 563.013 602.316 559.335 618.336 557.324Z" fill="#6EC847"/>
<path d="M618.335 557.324C651.246 556.438 650.861 586.538 660.11 611.549C662.13 617.009 665.463 625.666 667.037 630.764C661.545 629.008 652.487 625.944 647.657 623.013C647.69 621.13 642.912 610.907 641.895 608.178C633.534 585.739 634.328 575.938 618.335 557.324Z" fill="#30A328"/>
<path d="M336.054 474.043C378.004 473.966 416.072 496.741 436.634 532.861C431.077 537.262 421.964 544.155 417.286 549.059C410.623 538.696 406.911 540.079 398.15 535.97L397.792 535.082C391.562 530.049 382.17 523.044 374.883 520.058C378.195 518.138 387.074 514.072 383.937 508.813C379.781 501.843 339.684 485.889 330.252 482.94C331.924 480.053 333.878 476.512 336.054 474.043Z" fill="#BF0B17"/>
<path d="M489.702 558.416C492.636 546.904 504.897 535.655 514.584 529.448C537.958 514.475 549.584 518.399 563.624 539.988C568.47 546.554 575.805 559.634 578.859 567.056C543.942 552.231 521.207 552.564 486.212 564.748C487.045 562.654 488.036 559.938 489.702 558.416Z" fill="#30A328"/>
<path d="M489.702 558.416C492.636 546.904 504.897 535.655 514.585 529.448C537.959 514.475 549.584 518.399 563.624 539.988C559.669 540.114 554.081 538.818 549.833 538.488C530.076 536.953 510.401 543.318 494.399 554.778C493.301 555.564 490.632 558.141 489.702 558.416Z" fill="#6EC847"/>
<path d="M240.582 515.525C236.931 512.009 233.159 504.846 230.727 500.401C213.44 468.786 204.946 433.217 215.239 397.805C218.457 386.734 229.099 389.411 233.412 399.928C229.125 410.516 226.379 420.535 227.264 432.107C226.511 459.635 239.339 482.733 253.398 505.485C251.469 510.707 250.392 514.587 249.039 520.058C246.766 519.208 241.94 517.626 240.582 515.525Z" fill="#EABD4E"/>
<path d="M242.535 512.318C241.291 504.446 238.066 498.487 235.14 491.319C231.14 481.516 218.648 440.461 227.264 432.107C226.511 459.635 239.339 482.733 253.398 505.485C251.468 510.707 250.392 514.587 249.039 520.058C246.765 519.208 241.939 517.626 240.582 515.525C241.703 514.621 241.981 513.628 242.535 512.318Z" fill="#D29C26"/>
<path d="M186.383 592.62C182.409 578.927 179.439 555.512 185.162 542.203C194.115 521.386 233.515 528.86 249.038 535.97C250.582 536.305 251.175 536.489 252.646 537.067C223.219 548.046 200.748 571.418 188.731 600.235C187.96 597.713 187.2 595.121 186.383 592.62Z" fill="#6EC847"/>
<path d="M249.038 535.97C250.582 536.305 251.175 536.489 252.646 537.067C223.219 548.046 200.748 571.418 188.731 600.235C187.96 597.713 187.2 595.121 186.383 592.62C193.347 583.915 198.99 566.592 209.139 553.687C218.782 541.427 234.37 540 248.295 536.182L249.038 535.97Z" fill="#30A328"/>
<path d="M583.717 545.27C586.603 522.116 603.321 488.379 617.367 470.997C623.678 463.188 646.62 437.571 657.714 447.391C668.403 459.214 646.78 465.893 638.913 472.728C618.218 490.709 606.342 522.543 599.346 549.059C595.151 550.684 593.907 551.468 590.153 553.951C587.737 550.932 585.943 548.403 583.717 545.27Z" fill="#EABD4E"/>
<path d="M657.714 447.391C668.403 459.214 646.78 465.893 638.913 472.728C618.218 490.709 606.342 522.543 599.346 549.059C595.151 550.684 593.907 551.468 590.153 553.951C587.737 550.932 585.943 548.403 583.717 545.27C595.847 546.906 605.701 508.202 609.844 499.645C623.629 471.173 632.253 463.859 657.714 447.391Z" fill="#D29C26"/>
<path d="M396.432 542.16C403.577 543.12 409.068 547.507 412.063 553.951C411.292 555.301 409.75 557.14 408.749 558.416L405.364 561.909C399.742 555.498 397.217 550.648 396.432 542.16Z" fill="#E70F1D"/>
<path d="M361.867 636.862C364.355 637.41 367.065 639.009 369.347 640.21C368.744 644.297 368.201 648.509 367.272 652.524C367.017 653.249 367.014 653.19 366.621 653.858L365.908 653.866C362.041 650.244 361.009 641.89 361.867 636.862Z" fill="#E70F1D"/>
<path d="M361.868 709.945C363.373 710.691 364.217 712.402 365.096 713.847C365.176 718.595 365.305 723.275 365.096 728.021C360.631 721.492 359.945 717.62 361.868 709.945Z" fill="#E70F1D"/>
</svg>
