<svg width="849" height="1183" viewBox="0 0 849 1183" fill="none" xmlns="http://www.w3.org/2000/svg">
<rect x="5" y="5" width="839" height="1173" rx="45" fill="white"/>
<rect x="5" y="5" width="839" height="1173" rx="45" stroke="black" stroke-width="10"/>
<circle cx="786.5" cy="1124.5" r="11.5" fill="black"/>
<circle cx="786.5" cy="59.5" r="11.5" fill="black"/>
<path d="M77 1124.5C77 1130.85 71.8513 1136 65.5 1136C59.1487 1136 54 1130.85 54 1124.5C54 1118.15 59.1487 1113 65.5 1113C71.8513 1113 77 1118.15 77 1124.5Z" fill="black"/>
<path d="M77 59.5C77 65.8513 71.8513 71 65.5 71C59.1487 71 54 65.8513 54 59.5C54 53.1487 59.1487 48 65.5 48C71.8513 48 77 53.1487 77 59.5Z" fill="black"/>
<mask id="path-6-inside-1_1_505" fill="white">
<path d="M708 48C713.523 48 717.934 52.4996 718.616 57.9801C723.122 94.1833 751.817 122.878 788.02 127.384C793.5 128.066 798 132.477 798 138V1046C798 1051.52 793.5 1055.93 788.02 1056.62C751.817 1061.12 723.122 1089.82 718.616 1126.02C717.934 1131.5 713.523 1136 708 1136H141C135.477 1136 131.066 1131.5 130.384 1126.02C125.878 1089.82 97.1833 1061.12 60.9801 1056.62C55.4996 1055.93 51 1051.52 51 1046V138C51 132.477 55.4996 128.066 60.9801 127.384C97.1833 122.878 125.878 94.1833 130.384 57.9801C131.066 52.4996 135.477 48 141 48H708Z"/>
</mask>
<path d="M708 48C713.523 48 717.934 52.4996 718.616 57.9801C723.122 94.1833 751.817 122.878 788.02 127.384C793.5 128.066 798 132.477 798 138V1046C798 1051.52 793.5 1055.93 788.02 1056.62C751.817 1061.12 723.122 1089.82 718.616 1126.02C717.934 1131.5 713.523 1136 708 1136H141C135.477 1136 131.066 1131.5 130.384 1126.02C125.878 1089.82 97.1833 1061.12 60.9801 1056.62C55.4996 1055.93 51 1051.52 51 1046V138C51 132.477 55.4996 128.066 60.9801 127.384C97.1833 122.878 125.878 94.1833 130.384 57.9801C131.066 52.4996 135.477 48 141 48H708Z" fill="#006AB6"/>
<path d="M130.384 1126.02L138.322 1125.03L130.384 1126.02ZM718.616 1126.02L710.678 1125.03L718.616 1126.02ZM788.02 1056.62L789.008 1064.56L788.02 1056.62ZM718.616 57.9801L726.555 56.9922L718.616 57.9801ZM718.616 57.9801L710.678 58.9681C715.635 98.8063 747.194 130.365 787.032 135.322L788.02 127.384L789.008 119.445C756.44 115.392 730.608 89.5603 726.555 56.9922L718.616 57.9801ZM798 138H790V1046H798H806V138H798ZM788.02 1056.62L787.032 1048.68C747.194 1053.64 715.635 1085.19 710.678 1125.03L718.616 1126.02L726.555 1127.01C730.608 1094.44 756.44 1068.61 789.008 1064.56L788.02 1056.62ZM708 1136V1128H141V1136V1144H708V1136ZM130.384 1126.02L138.322 1125.03C133.365 1085.19 101.806 1053.64 61.9681 1048.68L60.9801 1056.62L59.9922 1064.56C92.5603 1068.61 118.392 1094.44 122.445 1127.01L130.384 1126.02ZM51 1046H59V138H51H43V1046H51ZM60.9801 127.384L61.9681 135.322C101.806 130.365 133.365 98.8063 138.322 58.9681L130.384 57.9801L122.445 56.9922C118.392 89.5603 92.5603 115.392 59.9922 119.445L60.9801 127.384ZM141 48V56H708V48V40H141V48ZM130.384 57.9801L138.322 58.9681C138.438 58.0389 138.872 57.2306 139.427 56.6958C139.954 56.1887 140.494 56 141 56V48V40C130.84 40 123.547 48.1329 122.445 56.9922L130.384 57.9801ZM51 138H59C59 137.494 59.1887 136.954 59.6958 136.427C60.2306 135.872 61.0389 135.438 61.9681 135.322L60.9801 127.384L59.9922 119.445C51.1329 120.547 43 127.84 43 138H51ZM60.9801 1056.62L61.9681 1048.68C61.0389 1048.56 60.2306 1048.13 59.6958 1047.57C59.1887 1047.05 59 1046.51 59 1046H51H43C43 1056.16 51.1329 1063.45 59.9922 1064.56L60.9801 1056.62ZM141 1136V1128C140.494 1128 139.954 1127.81 139.427 1127.3C138.872 1126.77 138.438 1125.96 138.322 1125.03L130.384 1126.02L122.445 1127.01C123.547 1135.87 130.84 1144 141 1144V1136ZM718.616 1126.02L710.678 1125.03C710.562 1125.96 710.128 1126.77 709.573 1127.3C709.046 1127.81 708.506 1128 708 1128V1136V1144C718.16 1144 725.453 1135.87 726.555 1127.01L718.616 1126.02ZM798 1046H790C790 1046.51 789.811 1047.05 789.304 1047.57C788.769 1048.13 787.961 1048.56 787.032 1048.68L788.02 1056.62L789.008 1064.56C797.867 1063.45 806 1056.16 806 1046H798ZM788.02 127.384L787.032 135.322C787.961 135.438 788.769 135.872 789.304 136.427C789.811 136.954 790 137.494 790 138H798H806C806 127.84 797.867 120.547 789.008 119.445L788.02 127.384ZM718.616 57.9801L726.555 56.9922C725.453 48.1329 718.16 40 708 40V48V56C708.506 56 709.046 56.1887 709.573 56.6958C710.128 57.2306 710.562 58.0389 710.678 58.9681L718.616 57.9801Z" fill="black" mask="url(#path-6-inside-1_1_505)"/>
<path d="M690 102C695.523 102 699.911 106.512 700.837 111.957C705.019 136.563 724.437 155.981 749.043 160.163C754.488 161.089 759 165.477 759 171V1014C759 1019.52 754.488 1023.91 749.043 1024.84C724.711 1028.97 705.454 1048 700.984 1072.22C699.993 1077.59 695.633 1082 690.175 1082H158.825C153.367 1082 149.007 1077.59 148.016 1072.22C143.546 1048 124.288 1028.97 99.9568 1024.84C94.5121 1023.91 90 1019.52 90 1014V171C90 165.477 94.512 161.089 99.9568 160.163C124.563 155.981 143.981 136.563 148.163 111.957C149.089 106.512 153.477 102 159 102H690Z" fill="#5298CB"/>
<mask id="path-9-outside-2_1_505" maskUnits="userSpaceOnUse" x="400" y="1007" width="49" height="31" fill="black">
<rect fill="white" x="400" y="1007" width="49" height="31"/>
<path d="M400.84 1030.92V1027.48L414.28 1008.2H419.8V1026.96H423.52V1030.92H419.8V1037H415.32V1030.92H400.84ZM415.52 1012.84L406.08 1026.96H415.52V1012.84ZM446.098 1011.76H432.698V1019.72C433.258 1018.97 434.085 1018.35 435.178 1017.84C436.298 1017.33 437.485 1017.08 438.738 1017.08C440.978 1017.08 442.792 1017.56 444.178 1018.52C445.592 1019.48 446.592 1020.69 447.178 1022.16C447.792 1023.63 448.098 1025.17 448.098 1026.8C448.098 1028.77 447.712 1030.53 446.938 1032.08C446.192 1033.6 445.058 1034.8 443.538 1035.68C442.045 1036.56 440.205 1037 438.018 1037C435.112 1037 432.778 1036.28 431.018 1034.84C429.258 1033.4 428.205 1031.49 427.858 1029.12H432.298C432.592 1030.37 433.245 1031.37 434.258 1032.12C435.272 1032.84 436.538 1033.2 438.058 1033.2C439.952 1033.2 441.365 1032.63 442.298 1031.48C443.258 1030.33 443.738 1028.81 443.738 1026.92C443.738 1025 443.258 1023.53 442.298 1022.52C441.338 1021.48 439.925 1020.96 438.058 1020.96C436.752 1020.96 435.645 1021.29 434.738 1021.96C433.858 1022.6 433.218 1023.48 432.818 1024.6H428.498V1007.76H446.098V1011.76Z"/>
</mask>
<path d="M400.84 1030.92V1027.48L414.28 1008.2H419.8V1026.96H423.52V1030.92H419.8V1037H415.32V1030.92H400.84ZM415.52 1012.84L406.08 1026.96H415.52V1012.84ZM446.098 1011.76H432.698V1019.72C433.258 1018.97 434.085 1018.35 435.178 1017.84C436.298 1017.33 437.485 1017.08 438.738 1017.08C440.978 1017.08 442.792 1017.56 444.178 1018.52C445.592 1019.48 446.592 1020.69 447.178 1022.16C447.792 1023.63 448.098 1025.17 448.098 1026.8C448.098 1028.77 447.712 1030.53 446.938 1032.08C446.192 1033.6 445.058 1034.8 443.538 1035.68C442.045 1036.56 440.205 1037 438.018 1037C435.112 1037 432.778 1036.28 431.018 1034.84C429.258 1033.4 428.205 1031.49 427.858 1029.12H432.298C432.592 1030.37 433.245 1031.37 434.258 1032.12C435.272 1032.84 436.538 1033.2 438.058 1033.2C439.952 1033.2 441.365 1032.63 442.298 1031.48C443.258 1030.33 443.738 1028.81 443.738 1026.92C443.738 1025 443.258 1023.53 442.298 1022.52C441.338 1021.48 439.925 1020.96 438.058 1020.96C436.752 1020.96 435.645 1021.29 434.738 1021.96C433.858 1022.6 433.218 1023.48 432.818 1024.6H428.498V1007.76H446.098V1011.76Z" fill="black"/>
<path d="M400.84 1030.92H400.54V1031.22H400.84V1030.92ZM400.84 1027.48L400.594 1027.31L400.54 1027.39V1027.48H400.84ZM414.28 1008.2V1007.9H414.123L414.034 1008.03L414.28 1008.2ZM419.8 1008.2H420.1V1007.9H419.8V1008.2ZM419.8 1026.96H419.5V1027.26H419.8V1026.96ZM423.52 1026.96H423.82V1026.66H423.52V1026.96ZM423.52 1030.92V1031.22H423.82V1030.92H423.52ZM419.8 1030.92V1030.62H419.5V1030.92H419.8ZM419.8 1037V1037.3H420.1V1037H419.8ZM415.32 1037H415.02V1037.3H415.32V1037ZM415.32 1030.92H415.62V1030.62H415.32V1030.92ZM415.52 1012.84H415.82V1011.85L415.271 1012.67L415.52 1012.84ZM406.08 1026.96L405.831 1026.79L405.519 1027.26H406.08V1026.96ZM415.52 1026.96V1027.26H415.82V1026.96H415.52ZM400.84 1030.92H401.14V1027.48H400.84H400.54V1030.92H400.84ZM400.84 1027.48L401.086 1027.65L414.526 1008.37L414.28 1008.2L414.034 1008.03L400.594 1027.31L400.84 1027.48ZM414.28 1008.2V1008.5H419.8V1008.2V1007.9H414.28V1008.2ZM419.8 1008.2H419.5V1026.96H419.8H420.1V1008.2H419.8ZM419.8 1026.96V1027.26H423.52V1026.96V1026.66H419.8V1026.96ZM423.52 1026.96H423.22V1030.92H423.52H423.82V1026.96H423.52ZM423.52 1030.92V1030.62H419.8V1030.92V1031.22H423.52V1030.92ZM419.8 1030.92H419.5V1037H419.8H420.1V1030.92H419.8ZM419.8 1037V1036.7H415.32V1037V1037.3H419.8V1037ZM415.32 1037H415.62V1030.92H415.32H415.02V1037H415.32ZM415.32 1030.92V1030.62H400.84V1030.92V1031.22H415.32V1030.92ZM415.52 1012.84L415.271 1012.67L405.831 1026.79L406.08 1026.96L406.329 1027.13L415.769 1013.01L415.52 1012.84ZM406.08 1026.96V1027.26H415.52V1026.96V1026.66H406.08V1026.96ZM415.52 1026.96H415.82V1012.84H415.52H415.22V1026.96H415.52ZM446.098 1011.76V1012.06H446.398V1011.76H446.098ZM432.698 1011.76V1011.46H432.398V1011.76H432.698ZM432.698 1019.72H432.398V1020.62L432.938 1019.9L432.698 1019.72ZM435.178 1017.84L435.055 1017.57L435.052 1017.57L435.178 1017.84ZM444.178 1018.52L444.008 1018.77L444.01 1018.77L444.178 1018.52ZM447.178 1022.16L446.9 1022.27L446.902 1022.28L447.178 1022.16ZM446.938 1032.08L446.67 1031.95L446.669 1031.95L446.938 1032.08ZM443.538 1035.68L443.388 1035.42L443.386 1035.42L443.538 1035.68ZM431.018 1034.84L431.208 1034.61L431.018 1034.84ZM427.858 1029.12V1028.82H427.511L427.562 1029.16L427.858 1029.12ZM432.298 1029.12L432.591 1029.05L432.536 1028.82H432.298V1029.12ZM434.258 1032.12L434.08 1032.36L434.085 1032.36L434.258 1032.12ZM442.298 1031.48L442.068 1031.29L442.066 1031.29L442.298 1031.48ZM442.298 1022.52L442.078 1022.72L442.081 1022.73L442.298 1022.52ZM434.738 1021.96L434.915 1022.2L434.916 1022.2L434.738 1021.96ZM432.818 1024.6V1024.9H433.03L433.101 1024.7L432.818 1024.6ZM428.498 1024.6H428.198V1024.9H428.498V1024.6ZM428.498 1007.76V1007.46H428.198V1007.76H428.498ZM446.098 1007.76H446.398V1007.46H446.098V1007.76ZM446.098 1011.76V1011.46H432.698V1011.76V1012.06H446.098V1011.76ZM432.698 1011.76H432.398V1019.72H432.698H432.998V1011.76H432.698ZM432.698 1019.72L432.938 1019.9C433.461 1019.2 434.244 1018.6 435.305 1018.11L435.178 1017.84L435.052 1017.57C433.927 1018.09 433.056 1018.74 432.458 1019.54L432.698 1019.72ZM435.178 1017.84L435.302 1018.11C436.382 1017.62 437.527 1017.38 438.738 1017.38V1017.08V1016.78C437.443 1016.78 436.214 1017.04 435.055 1017.57L435.178 1017.84ZM438.738 1017.08V1017.38C440.937 1017.38 442.685 1017.85 444.008 1018.77L444.178 1018.52L444.349 1018.27C442.898 1017.27 441.02 1016.78 438.738 1016.78V1017.08ZM444.178 1018.52L444.01 1018.77C445.378 1019.7 446.337 1020.86 446.9 1022.27L447.178 1022.16L447.457 1022.05C446.846 1020.52 445.806 1019.26 444.347 1018.27L444.178 1018.52ZM447.178 1022.16L446.902 1022.28C447.499 1023.7 447.798 1025.21 447.798 1026.8H448.098H448.398C448.398 1025.13 448.084 1023.55 447.455 1022.04L447.178 1022.16ZM448.098 1026.8H447.798C447.798 1028.73 447.42 1030.45 446.67 1031.95L446.938 1032.08L447.207 1032.21C448.004 1030.62 448.398 1028.81 448.398 1026.8H448.098ZM446.938 1032.08L446.669 1031.95C445.95 1033.41 444.859 1034.57 443.388 1035.42L443.538 1035.68L443.689 1035.94C445.258 1035.03 446.434 1033.79 447.208 1032.21L446.938 1032.08ZM443.538 1035.68L443.386 1035.42C441.95 1036.27 440.165 1036.7 438.018 1036.7V1037V1037.3C440.245 1037.3 442.141 1036.85 443.691 1035.94L443.538 1035.68ZM438.018 1037V1036.7C435.161 1036.7 432.901 1035.99 431.208 1034.61L431.018 1034.84L430.828 1035.07C432.656 1036.57 435.062 1037.3 438.018 1037.3V1037ZM431.018 1034.84L431.208 1034.61C429.51 1033.22 428.492 1031.38 428.155 1029.08L427.858 1029.12L427.562 1029.16C427.918 1031.61 429.007 1033.58 430.828 1035.07L431.018 1034.84ZM427.858 1029.12V1029.42H432.298V1029.12V1028.82H427.858V1029.12ZM432.298 1029.12L432.006 1029.19C432.316 1030.51 433.008 1031.57 434.08 1032.36L434.258 1032.12L434.436 1031.88C433.482 1031.18 432.868 1030.24 432.591 1029.05L432.298 1029.12ZM434.258 1032.12L434.085 1032.36C435.159 1033.13 436.49 1033.5 438.058 1033.5V1033.2V1032.9C436.587 1032.9 435.384 1032.55 434.432 1031.88L434.258 1032.12ZM438.058 1033.2V1033.5C440.015 1033.5 441.525 1032.9 442.531 1031.67L442.298 1031.48L442.066 1031.29C441.205 1032.35 439.889 1032.9 438.058 1032.9V1033.2ZM442.298 1031.48L442.528 1031.67C443.545 1030.46 444.038 1028.86 444.038 1026.92H443.738H443.438C443.438 1028.76 442.972 1030.21 442.068 1031.29L442.298 1031.48ZM443.738 1026.92H444.038C444.038 1024.95 443.546 1023.4 442.516 1022.31L442.298 1022.52L442.081 1022.73C442.971 1023.67 443.438 1025.05 443.438 1026.92H443.738ZM442.298 1022.52L442.519 1022.32C441.486 1021.2 439.981 1020.66 438.058 1020.66V1020.96V1021.26C439.869 1021.26 441.191 1021.76 442.078 1022.72L442.298 1022.52ZM438.058 1020.96V1020.66C436.699 1020.66 435.527 1021.01 434.561 1021.72L434.738 1021.96L434.916 1022.2C435.763 1021.58 436.805 1021.26 438.058 1021.26V1020.96ZM434.738 1021.96L434.562 1021.72C433.629 1022.4 432.954 1023.33 432.536 1024.5L432.818 1024.6L433.101 1024.7C433.483 1023.63 434.088 1022.8 434.915 1022.2L434.738 1021.96ZM432.818 1024.6V1024.3H428.498V1024.6V1024.9H432.818V1024.6ZM428.498 1024.6H428.798V1007.76H428.498H428.198V1024.6H428.498ZM428.498 1007.76V1008.06H446.098V1007.76V1007.46H428.498V1007.76ZM446.098 1007.76H445.798V1011.76H446.098H446.398V1007.76H446.098Z" fill="black" mask="url(#path-9-outside-2_1_505)"/>
<path d="M282.915 197.975V247.01C282.915 255.34 280.64 261.71 276.09 266.12C271.61 270.53 265.415 272.735 257.505 272.735C249.105 272.735 242.385 270.39 237.345 265.7C232.375 261.01 229.89 254.255 229.89 245.435H250.26C250.33 251.245 252.465 254.15 256.665 254.15C260.445 254.15 262.335 251.77 262.335 247.01V197.975H282.915ZM355.468 213.095V272H334.783V263.6C333.033 266.26 330.618 268.43 327.538 270.11C324.458 271.72 320.923 272.525 316.933 272.525C310.073 272.525 304.648 270.285 300.658 265.805C296.738 261.255 294.778 255.095 294.778 247.325V213.095H315.253V244.7C315.253 248.06 316.128 250.72 317.878 252.68C319.698 254.57 322.078 255.515 325.018 255.515C328.028 255.515 330.408 254.57 332.158 252.68C333.908 250.72 334.783 248.06 334.783 244.7V213.095H355.468ZM387.761 221.285C389.371 218.555 391.646 216.385 394.586 214.775C397.526 213.165 400.991 212.36 404.981 212.36C409.671 212.36 413.906 213.585 417.686 216.035C421.536 218.485 424.546 221.985 426.716 226.535C428.956 231.085 430.076 236.405 430.076 242.495C430.076 248.585 428.956 253.94 426.716 258.56C424.546 263.11 421.536 266.61 417.686 269.06C413.906 271.51 409.671 272.735 404.981 272.735C400.991 272.735 397.526 271.93 394.586 270.32C391.716 268.71 389.441 266.54 387.761 263.81V300.14H367.181V213.095H387.761V221.285ZM409.181 242.495C409.181 238.645 408.131 235.67 406.031 233.57C404.001 231.4 401.481 230.315 398.471 230.315C395.461 230.315 392.906 231.4 390.806 233.57C388.776 235.74 387.761 238.715 387.761 242.495C387.761 246.345 388.776 249.355 390.806 251.525C392.906 253.695 395.461 254.78 398.471 254.78C401.481 254.78 404.001 253.695 406.031 251.525C408.131 249.285 409.181 246.275 409.181 242.495ZM448.943 207.635C445.303 207.635 442.363 206.655 440.123 204.695C437.953 202.665 436.868 200.145 436.868 197.135C436.868 194.055 437.953 191.5 440.123 189.47C442.363 187.44 445.303 186.425 448.943 186.425C452.513 186.425 455.383 187.44 457.553 189.47C459.793 191.5 460.913 194.055 460.913 197.135C460.913 200.145 459.793 202.665 457.553 204.695C455.383 206.655 452.513 207.635 448.943 207.635ZM459.128 213.095V272H438.548V213.095H459.128ZM505.603 254.465V272H496.678C481.628 272 474.103 264.545 474.103 249.635V230.21H466.858V213.095H474.103V198.815H494.788V213.095H505.498V230.21H494.788V249.95C494.788 251.56 495.138 252.715 495.838 253.415C496.608 254.115 497.868 254.465 499.618 254.465H505.603ZM571.322 241.865C571.322 243.475 571.217 245.085 571.007 246.695H532.052C532.262 249.915 533.137 252.33 534.677 253.94C536.287 255.48 538.317 256.25 540.767 256.25C544.197 256.25 546.647 254.71 548.117 251.63H570.062C569.152 255.69 567.367 259.33 564.707 262.55C562.117 265.7 558.827 268.185 554.837 270.005C550.847 271.825 546.437 272.735 541.607 272.735C535.797 272.735 530.617 271.51 526.067 269.06C521.587 266.61 518.052 263.11 515.462 258.56C512.942 254.01 511.682 248.655 511.682 242.495C511.682 236.335 512.942 231.015 515.462 226.535C517.982 221.985 521.482 218.485 525.962 216.035C530.512 213.585 535.727 212.36 541.607 212.36C547.417 212.36 552.562 213.55 557.042 215.93C561.522 218.31 565.022 221.74 567.542 226.22C570.062 230.63 571.322 235.845 571.322 241.865ZM550.322 236.72C550.322 234.2 549.482 232.24 547.802 230.84C546.122 229.37 544.022 228.635 541.502 228.635C538.982 228.635 536.917 229.335 535.307 230.735C533.697 232.065 532.647 234.06 532.157 236.72H550.322ZM600.324 223.49C602.634 220.13 605.434 217.47 608.724 215.51C612.014 213.55 615.549 212.57 619.329 212.57V234.515H613.554C609.074 234.515 605.749 235.39 603.579 237.14C601.409 238.89 600.324 241.935 600.324 246.275V272H579.744V213.095H600.324V223.49Z" fill="black"/>
<path d="M410.977 340.286C577.589 333.095 718.49 462.314 725.712 628.924C732.933 795.533 603.74 936.458 437.132 943.709C270.481 950.963 129.512 821.729 122.289 655.076C115.066 488.426 244.324 347.48 410.977 340.286Z" fill="black"/>
<path d="M265.073 608.265C321.832 631.874 358.499 652.472 423.035 625.773C449.067 615.003 471.21 597.755 496.457 585.674C528.318 570.428 564.392 566.231 599.001 572.894C636.956 580.203 655.075 582.972 693.727 567.837C700.538 590.228 700.571 607.586 703.852 629.327C626.331 620.393 615.897 660.66 555.314 674.187C513.669 683.485 468.545 669.075 426.177 673.762C398.679 676.805 375.303 692.041 348.78 698.161C322.427 704.242 291.405 703.232 265.073 697.558C259.672 687.83 258.501 613.458 265.073 608.265Z" fill="#FDA735"/>
<path d="M299.868 667.987C315.629 666.128 330.127 676.697 310.513 680.413C294.268 683.413 279.435 671.811 299.868 667.987Z" fill="#FAF9FA"/>
<path d="M491.769 626.792C497.556 626.251 502.811 628 508.006 630.366C503.574 634.594 499.096 636.304 493.224 637.62C473.71 639.166 473.419 629.556 491.769 626.792Z" fill="black"/>
<path d="M608.196 601.323C624.454 601.67 628.413 609.01 611.232 610.968C594.37 611.392 590.218 602.378 608.196 601.323Z" fill="#FAF9FA"/>
<path d="M642.436 501.95C649.398 503.504 664.265 507.789 669.721 511.942C676.318 516.964 688.506 551.608 691.107 560.102L690.435 560.198C684.687 561.046 678.94 563.404 673.395 565.131C644.378 574.168 627.803 570.088 598.97 564.468C493.3 543.871 460.461 621.132 379.92 628.978C343.309 632.544 318.224 622.212 285.518 607.619C278.54 604.505 271.174 600.74 263.768 598.804C267.495 589.291 268.385 577.792 271.439 567.838C312.777 582.499 361.768 585.288 403.017 569.862C420.417 563.354 437.096 554.814 454.437 548.083C500.239 530.302 539.7 527.022 587.692 523.983C592.883 523.654 609.733 524.086 613.666 521.254C625.569 512.686 597.73 515.432 596.541 515.542C598.918 499.664 631.362 505.049 642.436 501.95Z" fill="#4B4A4A"/>
<path d="M227.135 442.739C230.696 438.889 234.941 435.411 238.921 432C292.285 386.255 367.969 355.865 439.04 361.347C497.397 367.066 547.48 383.974 594.516 420.896C517.815 411.072 480.664 425.003 406.847 440.681C369.603 448.592 315.177 454.791 276.536 449.533C261.91 449.897 241.543 445.366 227.135 442.739Z" fill="#8DBDD6"/>
<path d="M227.135 442.739C230.696 438.889 234.941 435.411 238.921 432C292.285 386.255 367.969 355.865 439.04 361.347L438.525 361.405C427.831 362.51 428.831 362.065 418.583 364.537C397.384 369.65 376.681 375.882 357.302 386.075L357.89 386.348C375.521 394.391 337.098 397.689 329.496 401.085L330.304 401.316C330.424 404.618 317.722 411.338 314.938 413.391C306.54 419.585 281.12 441.597 276.536 449.533C261.91 449.897 241.543 445.366 227.135 442.739Z" fill="#699EBA"/>
<path d="M357.301 386.074L357.89 386.348C375.52 394.39 337.097 397.688 329.495 401.084C325.432 402.675 305.61 412.346 303.366 411.695C296.293 400.148 350.173 388.334 357.301 386.074Z" fill="#FAF9FA"/>
<path d="M443.804 399.09C457.706 398.231 464.736 405.297 450.341 407.52C439.326 408.349 427.413 402.216 443.804 399.09Z" fill="#FAF9FA"/>
<path d="M696.516 702.496L696.745 702.719C697.792 709.823 683.528 745.575 680.27 753.482C659.143 754.646 637.453 750.581 616.439 748.621C542.594 741.735 482.843 777.105 410.254 765.396C376.155 759.896 356.273 754.014 319.859 757.974C274.044 762.956 232.536 784.078 187.406 791.795C182.856 783.935 178.819 775.513 173.791 767.966C169.729 755.878 162.72 742.443 158.01 729.779C213.81 740.33 228.342 734.06 284.703 724.742C332.042 716.917 379.055 716.852 426.237 725.511C440.471 728.124 454.536 731.595 468.763 734.228C529.096 745.395 581.528 735.043 638.918 718.779L696.516 702.496Z" fill="#D36643"/>
<path d="M293.628 770.34C360.336 754.554 388.279 776.344 445.297 775.622C488.942 775.069 530.003 759.338 573.235 756.06C610.428 753.239 642.99 762.54 676.6 760.543C670.669 775.001 658.397 794.51 648.874 806.913C640.878 809.546 633.032 812.606 625.022 815.206C567.226 833.972 530.496 823.143 476.33 808.918C426.059 795.717 381.515 798.859 333.645 816.17C321.846 808.527 296.495 781.847 293.628 770.34Z" fill="#F59F5E"/>
<path d="M526.365 783.425C543.033 781.435 560.42 791.455 537.658 795.423C532.485 795.657 516.844 797.116 514.957 790.204C515.351 785.086 522.353 783.983 526.365 783.425Z" fill="#FAF9FA"/>
<path d="M352.28 471.489C359.536 469.342 367.728 469.03 375.238 467.918C453.142 456.392 521.13 424.883 601.758 444.35C609.634 446.25 620.172 447.95 627.261 451.668C635.251 455.857 660.2 490.631 664.781 499.789C613.243 480.926 559.671 480.176 506.599 493.207C446.111 508.062 405.206 533.251 337.423 523.681C326.453 522.133 310.173 519.195 299.868 515.542C307.861 499.637 338.288 483.33 352.28 471.489Z" fill="#F59F5E"/>
<path d="M554.658 451.014C573.659 446.097 607.761 460.642 568.831 470.033C530.621 473.911 525.481 449.393 554.658 451.014Z" fill="#FAF9FA"/>
<path d="M464.002 477.576C473.543 476.584 484.972 481.531 472.003 485.477C462.264 486.953 450.348 480.977 464.002 477.576Z" fill="#FAF9FA"/>
<path d="M267.652 707.284C310.645 714.471 338.85 712.548 379.216 696.934C422.31 680.264 436.657 679.603 482.106 683.104C552.318 688.513 562.929 685.103 622.851 652.783C651.058 637.569 673.076 634.688 703.852 638.188C703.893 656.565 703.157 676.37 698.947 694.323C622.175 712.334 557.035 741.889 475.214 727.076C460.532 724.418 446.065 720.629 431.383 717.988C387.202 710.037 316.435 708.124 271.439 718.78C269.625 716.211 266.614 710.081 267.652 707.284Z" fill="#4B4A4A"/>
<path d="M345.439 820.817C381.361 807.954 421.515 806.734 458.828 813.821C476.661 817.209 493.646 823.414 511.276 827.543C553.213 837.366 599.459 836.441 639.521 819.608C630.173 831.01 594.168 870.221 578.554 871.818C537.074 876.062 498.857 870.422 457.939 865.299C447.032 863.933 435.671 863.784 424.946 861.397C405.885 851.256 356.288 835.997 345.439 820.817Z" fill="#F59F5E"/>
<path d="M293.628 523.338C302.875 524.77 311.772 527.383 320.946 529.147C385.343 541.534 422.602 527.733 483.313 507.981C534.988 491.169 589.913 486.204 642.435 501.949C631.362 505.048 598.918 499.663 596.541 515.541C554.555 514.21 492.776 525.181 454.713 539.177C439.724 544.688 425.535 551.876 410.702 557.71C358.805 578.123 325.4 573.219 274.532 560.101C274.21 555.24 290.474 524.98 293.628 523.338Z" fill="#D36643"/>
<path d="M144.187 618.411C153.189 615.743 161.667 611.438 170.546 608.378C204.097 596.816 231.383 597.125 265.073 608.265C258.501 613.459 259.672 687.83 265.073 697.558C218.901 689.684 196.331 673.176 146.926 681.237C143.904 658.783 146.565 637.675 144.187 618.411Z" fill="#F59F5E"/>
<path d="M162.369 655.422C167.965 655.21 186.922 652.974 190.287 658.373C190.806 660.909 189.77 662.605 187.405 663.419C183.154 663.506 161.922 664.062 159.22 662.517C154.736 659.954 158.174 656.089 162.369 655.422Z" fill="black"/>
<path d="M397.103 883.428C447.775 883.271 492.338 896.46 539.467 897.264C506.814 911.675 485.105 914.283 452.547 921.317C397.22 920.873 365.601 922.917 310.513 898.523C338.594 889.374 367.734 885.242 397.103 883.428Z" fill="#699EBA"/>
<path d="M225.642 839.031C271.295 844.474 302.823 835.066 345.44 820.816C356.289 835.996 405.886 851.255 424.946 861.396C414.262 862.037 403.433 861.079 392.708 861.593C355.171 863.389 319.464 871.203 284.438 884.709C266.082 874.693 239.289 854.871 225.642 839.031Z" fill="#D36643"/>
<path d="M314.513 846.248C337.88 843.623 349.053 859.063 320.067 860.595C293.277 862.473 285.515 848.559 314.513 846.248Z" fill="#FAF9FA"/>
<path d="M191.484 797.522C227.207 793.295 259.032 777.439 293.629 770.341C296.495 781.848 321.846 808.528 333.645 816.171C299.538 831.147 251.591 835.998 215.69 829.032C207.097 818.792 198.591 808.878 191.484 797.522Z" fill="#D36643"/>
<path d="M276.535 806.913C279.897 806.468 295.905 808.138 287.061 810.903C282.922 811.252 266.604 809.096 276.535 806.913Z" fill="#FAF9FA"/>
<path d="M209.993 461.265C250.287 470.521 291.935 474.311 333.239 472.157C339.563 471.827 345.948 471.223 352.28 471.488C338.288 483.329 307.862 499.636 299.868 515.541C259.488 507.979 237.372 492.981 191.909 505.629C186.842 507.039 181.898 509.053 176.636 509.641C186.829 492.48 197.715 476.983 209.993 461.265Z" fill="#D36643"/>
<path d="M285.696 491.412C294.426 490.762 301.441 496.403 289.249 498.284C278.41 498.76 272.624 492.58 285.696 491.412Z" fill="#FAF9FA"/>
<path d="M170.943 522.088C191.932 511.568 225.147 507.18 247.973 511.038C257.747 512.689 285.275 519.48 293.629 523.338C290.475 524.98 274.21 555.24 274.532 560.101C246.599 551.018 216.372 545.565 187.139 550.087C177.654 551.553 168.176 555.281 158.723 556.144L158.01 556.204C159.447 546.757 166.336 530.665 170.943 522.088Z" fill="#DA4C0E"/>
<path d="M153.732 567.837C208.366 547.413 221.768 557.89 271.439 567.837C268.385 577.791 267.495 589.29 263.767 598.803C231.625 589.753 206.062 588.004 173.149 599.07C163.75 602.231 154.79 606.504 145.425 609.723L145.522 609.348C148.79 597.208 150.959 580.754 153.732 567.837Z" fill="#2F2E2E"/>
<path d="M148.499 690.047C192.329 682.33 225.916 698.017 267.652 707.283C266.614 710.081 269.626 716.211 271.439 718.779C221.437 725.593 204.622 732.632 155.148 720.296C152.487 710.337 150.55 700.149 148.499 690.047Z" fill="#2F2E2E"/>
</svg>
