<svg width="849" height="1183" viewBox="0 0 849 1183" fill="none" xmlns="http://www.w3.org/2000/svg">
<rect x="5" y="5" width="839" height="1173" rx="45" fill="white"/>
<rect x="5" y="5" width="839" height="1173" rx="45" stroke="black" stroke-width="10"/>
<circle cx="786.5" cy="1124.5" r="11.5" fill="black"/>
<circle cx="786.5" cy="59.5" r="11.5" fill="black"/>
<path d="M77 1124.5C77 1130.85 71.8513 1136 65.5 1136C59.1487 1136 54 1130.85 54 1124.5C54 1118.15 59.1487 1113 65.5 1113C71.8513 1113 77 1118.15 77 1124.5Z" fill="black"/>
<path d="M77 59.5C77 65.8513 71.8513 71 65.5 71C59.1487 71 54 65.8513 54 59.5C54 53.1487 59.1487 48 65.5 48C71.8513 48 77 53.1487 77 59.5Z" fill="black"/>
<mask id="path-6-inside-1_1_1898" fill="white">
<path d="M708 48C713.523 48 717.934 52.4996 718.616 57.9801C723.122 94.1833 751.817 122.878 788.02 127.384C793.5 128.066 798 132.477 798 138V1046C798 1051.52 793.5 1055.93 788.02 1056.62C751.817 1061.12 723.122 1089.82 718.616 1126.02C717.934 1131.5 713.523 1136 708 1136H141C135.477 1136 131.066 1131.5 130.384 1126.02C125.878 1089.82 97.1833 1061.12 60.9801 1056.62C55.4996 1055.93 51 1051.52 51 1046V138C51 132.477 55.4996 128.066 60.9801 127.384C97.1833 122.878 125.878 94.1833 130.384 57.9801C131.066 52.4996 135.477 48 141 48H708Z"/>
</mask>
<path d="M708 48C713.523 48 717.934 52.4996 718.616 57.9801C723.122 94.1833 751.817 122.878 788.02 127.384C793.5 128.066 798 132.477 798 138V1046C798 1051.52 793.5 1055.93 788.02 1056.62C751.817 1061.12 723.122 1089.82 718.616 1126.02C717.934 1131.5 713.523 1136 708 1136H141C135.477 1136 131.066 1131.5 130.384 1126.02C125.878 1089.82 97.1833 1061.12 60.9801 1056.62C55.4996 1055.93 51 1051.52 51 1046V138C51 132.477 55.4996 128.066 60.9801 127.384C97.1833 122.878 125.878 94.1833 130.384 57.9801C131.066 52.4996 135.477 48 141 48H708Z" fill="#006AB6"/>
<path d="M130.384 1126.02L138.322 1125.03L130.384 1126.02ZM718.616 1126.02L710.678 1125.03L718.616 1126.02ZM788.02 1056.62L789.008 1064.56L788.02 1056.62ZM718.616 57.9801L726.555 56.9922L718.616 57.9801ZM718.616 57.9801L710.678 58.9681C715.635 98.8063 747.194 130.365 787.032 135.322L788.02 127.384L789.008 119.445C756.44 115.392 730.608 89.5603 726.555 56.9922L718.616 57.9801ZM798 138H790V1046H798H806V138H798ZM788.02 1056.62L787.032 1048.68C747.194 1053.64 715.635 1085.19 710.678 1125.03L718.616 1126.02L726.555 1127.01C730.608 1094.44 756.44 1068.61 789.008 1064.56L788.02 1056.62ZM708 1136V1128H141V1136V1144H708V1136ZM130.384 1126.02L138.322 1125.03C133.365 1085.19 101.806 1053.64 61.9681 1048.68L60.9801 1056.62L59.9922 1064.56C92.5603 1068.61 118.392 1094.44 122.445 1127.01L130.384 1126.02ZM51 1046H59V138H51H43V1046H51ZM60.9801 127.384L61.9681 135.322C101.806 130.365 133.365 98.8063 138.322 58.9681L130.384 57.9801L122.445 56.9922C118.392 89.5603 92.5603 115.392 59.9922 119.445L60.9801 127.384ZM141 48V56H708V48V40H141V48ZM130.384 57.9801L138.322 58.9681C138.438 58.0389 138.872 57.2306 139.427 56.6958C139.954 56.1887 140.494 56 141 56V48V40C130.84 40 123.547 48.1329 122.445 56.9922L130.384 57.9801ZM51 138H59C59 137.494 59.1887 136.954 59.6958 136.427C60.2306 135.872 61.0389 135.438 61.9681 135.322L60.9801 127.384L59.9922 119.445C51.1329 120.547 43 127.84 43 138H51ZM60.9801 1056.62L61.9681 1048.68C61.0389 1048.56 60.2306 1048.13 59.6958 1047.57C59.1887 1047.05 59 1046.51 59 1046H51H43C43 1056.16 51.1329 1063.45 59.9922 1064.56L60.9801 1056.62ZM141 1136V1128C140.494 1128 139.954 1127.81 139.427 1127.3C138.872 1126.77 138.438 1125.96 138.322 1125.03L130.384 1126.02L122.445 1127.01C123.547 1135.87 130.84 1144 141 1144V1136ZM718.616 1126.02L710.678 1125.03C710.562 1125.96 710.128 1126.77 709.573 1127.3C709.046 1127.81 708.506 1128 708 1128V1136V1144C718.16 1144 725.453 1135.87 726.555 1127.01L718.616 1126.02ZM798 1046H790C790 1046.51 789.811 1047.05 789.304 1047.57C788.769 1048.13 787.961 1048.56 787.032 1048.68L788.02 1056.62L789.008 1064.56C797.867 1063.45 806 1056.16 806 1046H798ZM788.02 127.384L787.032 135.322C787.961 135.438 788.769 135.872 789.304 136.427C789.811 136.954 790 137.494 790 138H798H806C806 127.84 797.867 120.547 789.008 119.445L788.02 127.384ZM718.616 57.9801L726.555 56.9922C725.453 48.1329 718.16 40 708 40V48V56C708.506 56 709.046 56.1887 709.573 56.6958C710.128 57.2306 710.562 58.0389 710.678 58.9681L718.616 57.9801Z" fill="black" mask="url(#path-6-inside-1_1_1898)"/>
<path d="M690 102C695.523 102 699.911 106.512 700.837 111.957C705.019 136.563 724.437 155.981 749.043 160.163C754.488 161.089 759 165.477 759 171V1014C759 1019.52 754.488 1023.91 749.043 1024.84C724.711 1028.97 705.454 1048 700.984 1072.22C699.993 1077.59 695.633 1082 690.175 1082H158.825C153.367 1082 149.007 1077.59 148.016 1072.22C143.546 1048 124.288 1028.97 99.9568 1024.84C94.5121 1023.91 90 1019.52 90 1014V171C90 165.477 94.512 161.089 99.9568 160.163C124.563 155.981 143.981 136.563 148.163 111.957C149.089 106.512 153.477 102 159 102H690Z" fill="#5298CB"/>
<mask id="path-9-outside-2_1_1898" maskUnits="userSpaceOnUse" x="403" y="1006" width="44" height="32" fill="black">
<rect fill="white" x="403" y="1006" width="44" height="32"/>
<path d="M406.92 1030.8C409.48 1028.59 411.493 1026.77 412.96 1025.36C414.453 1023.92 415.693 1022.43 416.68 1020.88C417.667 1019.33 418.16 1017.79 418.16 1016.24C418.16 1014.64 417.773 1013.39 417 1012.48C416.253 1011.57 415.067 1011.12 413.44 1011.12C411.867 1011.12 410.64 1011.63 409.76 1012.64C408.907 1013.63 408.453 1014.96 408.4 1016.64H404C404.08 1013.6 404.987 1011.28 406.72 1009.68C408.48 1008.05 410.707 1007.24 413.4 1007.24C416.307 1007.24 418.573 1008.04 420.2 1009.64C421.853 1011.24 422.68 1013.37 422.68 1016.04C422.68 1017.96 422.187 1019.81 421.2 1021.6C420.24 1023.36 419.08 1024.95 417.72 1026.36C416.387 1027.75 414.68 1029.36 412.6 1031.2L410.8 1032.8H423.48V1036.6H404.04V1033.28L406.92 1030.8ZM445.966 1011.36L434.846 1037H430.246L441.486 1011.84H426.686V1007.96H445.966V1011.36Z"/>
</mask>
<path d="M406.92 1030.8C409.48 1028.59 411.493 1026.77 412.96 1025.36C414.453 1023.92 415.693 1022.43 416.68 1020.88C417.667 1019.33 418.16 1017.79 418.16 1016.24C418.16 1014.64 417.773 1013.39 417 1012.48C416.253 1011.57 415.067 1011.12 413.44 1011.12C411.867 1011.12 410.64 1011.63 409.76 1012.64C408.907 1013.63 408.453 1014.96 408.4 1016.64H404C404.08 1013.6 404.987 1011.28 406.72 1009.68C408.48 1008.05 410.707 1007.24 413.4 1007.24C416.307 1007.24 418.573 1008.04 420.2 1009.64C421.853 1011.24 422.68 1013.37 422.68 1016.04C422.68 1017.96 422.187 1019.81 421.2 1021.6C420.24 1023.36 419.08 1024.95 417.72 1026.36C416.387 1027.75 414.68 1029.36 412.6 1031.2L410.8 1032.8H423.48V1036.6H404.04V1033.28L406.92 1030.8ZM445.966 1011.36L434.846 1037H430.246L441.486 1011.84H426.686V1007.96H445.966V1011.36Z" fill="black"/>
<path d="M406.92 1030.8L407.116 1031.03L407.116 1031.03L406.92 1030.8ZM412.96 1025.36L413.168 1025.58L413.168 1025.58L412.96 1025.36ZM417 1012.48L416.768 1012.67L416.772 1012.67L417 1012.48ZM409.76 1012.64L409.533 1012.44L409.533 1012.44L409.76 1012.64ZM408.4 1016.64V1016.94H408.691L408.7 1016.65L408.4 1016.64ZM404 1016.64L403.7 1016.63L403.692 1016.94H404V1016.64ZM406.72 1009.68L406.923 1009.9L406.924 1009.9L406.72 1009.68ZM420.2 1009.64L419.99 1009.85L419.991 1009.86L420.2 1009.64ZM421.2 1021.6L420.937 1021.45L420.937 1021.46L421.2 1021.6ZM417.72 1026.36L417.504 1026.15L417.504 1026.15L417.72 1026.36ZM412.6 1031.2L412.401 1030.98L412.401 1030.98L412.6 1031.2ZM410.8 1032.8L410.601 1032.58L410.011 1033.1H410.8V1032.8ZM423.48 1032.8H423.78V1032.5H423.48V1032.8ZM423.48 1036.6V1036.9H423.78V1036.6H423.48ZM404.04 1036.6H403.74V1036.9H404.04V1036.6ZM404.04 1033.28L403.844 1033.05L403.74 1033.14V1033.28H404.04ZM406.92 1030.8L407.116 1031.03C409.678 1028.81 411.696 1026.99 413.168 1025.58L412.96 1025.36L412.752 1025.14C411.291 1026.55 409.282 1028.36 406.724 1030.57L406.92 1030.8ZM412.96 1025.36L413.168 1025.58C414.676 1024.12 415.932 1022.61 416.933 1021.04L416.68 1020.88L416.427 1020.72C415.455 1022.24 414.23 1023.72 412.752 1025.14L412.96 1025.36ZM416.68 1020.88L416.933 1021.04C417.945 1019.46 418.46 1017.85 418.46 1016.24H418.16H417.86C417.86 1017.72 417.389 1019.21 416.427 1020.72L416.68 1020.88ZM418.16 1016.24H418.46C418.46 1014.59 418.062 1013.26 417.228 1012.29L417 1012.48L416.772 1012.67C417.485 1013.51 417.86 1014.69 417.86 1016.24H418.16ZM417 1012.48L417.232 1012.29C416.408 1011.29 415.12 1010.82 413.44 1010.82V1011.12V1011.42C415.013 1011.42 416.098 1011.86 416.768 1012.67L417 1012.48ZM413.44 1011.12V1010.82C411.796 1010.82 410.48 1011.35 409.533 1012.44L409.76 1012.64L409.987 1012.84C410.8 1011.9 411.937 1011.42 413.44 1011.42V1011.12ZM409.76 1012.64L409.533 1012.44C408.623 1013.5 408.155 1014.9 408.1 1016.63L408.4 1016.64L408.7 1016.65C408.752 1015.02 409.19 1013.76 409.987 1012.84L409.76 1012.64ZM408.4 1016.64V1016.34H404V1016.64V1016.94H408.4V1016.64ZM404 1016.64L404.3 1016.65C404.378 1013.66 405.266 1011.43 406.923 1009.9L406.72 1009.68L406.517 1009.46C404.708 1011.13 403.782 1013.54 403.7 1016.63L404 1016.64ZM406.72 1009.68L406.924 1009.9C408.621 1008.33 410.772 1007.54 413.4 1007.54V1007.24V1006.94C410.641 1006.94 408.339 1007.78 406.516 1009.46L406.72 1009.68ZM413.4 1007.24V1007.54C416.251 1007.54 418.433 1008.32 419.99 1009.85L420.2 1009.64L420.41 1009.43C418.713 1007.76 416.363 1006.94 413.4 1006.94V1007.24ZM420.2 1009.64L419.991 1009.86C421.577 1011.39 422.38 1013.44 422.38 1016.04H422.68H422.98C422.98 1013.31 422.13 1011.09 420.409 1009.42L420.2 1009.64ZM422.68 1016.04H422.38C422.38 1017.91 421.901 1019.71 420.937 1021.45L421.2 1021.6L421.463 1021.75C422.472 1019.92 422.98 1018.01 422.98 1016.04H422.68ZM421.2 1021.6L420.937 1021.46C419.989 1023.19 418.845 1024.76 417.504 1026.15L417.72 1026.36L417.936 1026.57C419.315 1025.14 420.491 1023.53 421.463 1021.74L421.2 1021.6ZM417.72 1026.36L417.504 1026.15C416.178 1027.53 414.478 1029.14 412.401 1030.98L412.6 1031.2L412.799 1031.42C414.882 1029.58 416.595 1027.96 417.936 1026.57L417.72 1026.36ZM412.6 1031.2L412.401 1030.98L410.601 1032.58L410.8 1032.8L410.999 1033.02L412.799 1031.42L412.6 1031.2ZM410.8 1032.8V1033.1H423.48V1032.8V1032.5H410.8V1032.8ZM423.48 1032.8H423.18V1036.6H423.48H423.78V1032.8H423.48ZM423.48 1036.6V1036.3H404.04V1036.6V1036.9H423.48V1036.6ZM404.04 1036.6H404.34V1033.28H404.04H403.74V1036.6H404.04ZM404.04 1033.28L404.236 1033.51L407.116 1031.03L406.92 1030.8L406.724 1030.57L403.844 1033.05L404.04 1033.28ZM445.966 1011.36L446.241 1011.48L446.266 1011.42V1011.36H445.966ZM434.846 1037V1037.3H435.043L435.121 1037.12L434.846 1037ZM430.246 1037L429.972 1036.88L429.783 1037.3H430.246V1037ZM441.486 1011.84L441.76 1011.96L441.949 1011.54H441.486V1011.84ZM426.686 1011.84H426.386V1012.14H426.686V1011.84ZM426.686 1007.96V1007.66H426.386V1007.96H426.686ZM445.966 1007.96H446.266V1007.66H445.966V1007.96ZM445.966 1011.36L445.691 1011.24L434.571 1036.88L434.846 1037L435.121 1037.12L446.241 1011.48L445.966 1011.36ZM434.846 1037V1036.7H430.246V1037V1037.3H434.846V1037ZM430.246 1037L430.52 1037.12L441.76 1011.96L441.486 1011.84L441.212 1011.72L429.972 1036.88L430.246 1037ZM441.486 1011.84V1011.54H426.686V1011.84V1012.14H441.486V1011.84ZM426.686 1011.84H426.986V1007.96H426.686H426.386V1011.84H426.686ZM426.686 1007.96V1008.26H445.966V1007.96V1007.66H426.686V1007.96ZM445.966 1007.96H445.666V1011.36H445.966H446.266V1007.96H445.966Z" fill="black" mask="url(#path-9-outside-2_1_1898)"/>
<path d="M275.81 272.735C267.2 272.735 260.13 270.705 254.6 266.645C249.07 262.515 246.095 256.635 245.675 249.005H267.62C267.83 251.595 268.6 253.485 269.93 254.675C271.26 255.865 272.975 256.46 275.075 256.46C276.965 256.46 278.505 256.005 279.695 255.095C280.955 254.115 281.585 252.785 281.585 251.105C281.585 248.935 280.57 247.255 278.54 246.065C276.51 244.875 273.22 243.545 268.67 242.075C263.84 240.465 259.92 238.925 256.91 237.455C253.97 235.915 251.38 233.71 249.14 230.84C246.97 227.9 245.885 224.085 245.885 219.395C245.885 214.635 247.075 210.575 249.455 207.215C251.835 203.785 255.125 201.195 259.325 199.445C263.525 197.695 268.285 196.82 273.605 196.82C282.215 196.82 289.075 198.85 294.185 202.91C299.365 206.9 302.13 212.535 302.48 219.815H280.115C280.045 217.575 279.345 215.895 278.015 214.775C276.755 213.655 275.11 213.095 273.08 213.095C271.54 213.095 270.28 213.55 269.3 214.46C268.32 215.37 267.83 216.665 267.83 218.345C267.83 219.745 268.355 220.97 269.405 222.02C270.525 223 271.89 223.875 273.5 224.645C275.11 225.345 277.49 226.255 280.64 227.375C285.33 228.985 289.18 230.595 292.19 232.205C295.27 233.745 297.895 235.95 300.065 238.82C302.305 241.62 303.425 245.19 303.425 249.53C303.425 253.94 302.305 257.895 300.065 261.395C297.895 264.895 294.71 267.66 290.51 269.69C286.38 271.72 281.48 272.735 275.81 272.735ZM351.527 212.57C358.317 212.57 363.707 214.845 367.697 219.395C371.687 223.875 373.682 229.965 373.682 237.665V272H353.102V240.395C353.102 237.035 352.227 234.41 350.477 232.52C348.727 230.56 346.382 229.58 343.442 229.58C340.362 229.58 337.947 230.56 336.197 232.52C334.447 234.41 333.572 237.035 333.572 240.395V272H312.992V213.095H333.572V221.495C335.392 218.835 337.842 216.7 340.922 215.09C344.002 213.41 347.537 212.57 351.527 212.57ZM412.38 272.735C406.5 272.735 401.215 271.51 396.525 269.06C391.905 266.61 388.265 263.11 385.605 258.56C382.945 254.01 381.615 248.655 381.615 242.495C381.615 236.405 382.945 231.085 385.605 226.535C388.335 221.985 392.01 218.485 396.63 216.035C401.32 213.585 406.605 212.36 412.485 212.36C418.365 212.36 423.615 213.585 428.235 216.035C432.925 218.485 436.6 221.985 439.26 226.535C441.99 231.085 443.355 236.405 443.355 242.495C443.355 248.585 441.99 253.94 439.26 258.56C436.6 263.11 432.925 266.61 428.235 269.06C423.545 271.51 418.26 272.735 412.38 272.735ZM412.38 254.885C415.25 254.885 417.63 253.835 419.52 251.735C421.48 249.565 422.46 246.485 422.46 242.495C422.46 238.505 421.48 235.46 419.52 233.36C417.63 231.26 415.285 230.21 412.485 230.21C409.685 230.21 407.34 231.26 405.45 233.36C403.56 235.46 402.615 238.505 402.615 242.495C402.615 246.555 403.525 249.635 405.345 251.735C407.165 253.835 409.51 254.885 412.38 254.885ZM538.773 213.095L523.758 272H500.658L492.468 236.3L483.963 272H460.968L446.058 213.095H466.533L473.148 252.155L481.863 213.095H503.913L512.943 252.26L519.453 213.095H538.773ZM608.048 213.095L570.668 300.035H548.303L562.373 269.48L538.223 213.095H561.113L573.503 246.485L585.473 213.095H608.048Z" fill="black"/>
<path d="M237.719 630.724C230.928 630.706 218.241 631.698 212.19 629.92C209.774 629.211 207.557 627.742 205.801 625.954C202.87 622.914 201.284 618.822 201.402 614.6C201.524 609.005 204.245 604.125 207.714 599.892C212.726 593.776 219.168 588.396 224.918 582.956L254.833 554.703L354.803 460.381L398.206 419.613C404.767 413.452 415.903 401.597 423.204 397.479C430.549 393.338 439.691 391.752 448.061 392.031C456.336 392.308 464.128 394.131 471.18 398.668C478.81 403.577 485.653 411.008 492.314 417.162L529.185 451.281L572.763 491.527C579.917 498.123 587.812 504.551 594.435 511.639C594.785 512.011 595.009 512.26 595.139 512.764C595.452 512.139 595.624 511.585 595.661 510.886C595.833 507.631 595.89 472.211 595.238 470.476C595.134 470.203 595.045 470.094 594.884 469.832C594.821 469.784 594.764 469.736 594.701 469.689C593.142 468.513 591.343 467.731 589.747 466.613C585.7 463.776 583.161 459.032 582.452 454.212C581.263 446.111 581.471 435.01 586.493 428.286C589.987 423.607 594.185 421.611 599.864 420.841C604.844 420.166 610.163 420.505 615.19 420.501L640.894 420.491L664.418 420.501C668.871 420.505 673.58 420.213 678.002 420.757C681.413 421.177 684.714 422.379 687.457 424.466C692.046 427.95 694.648 433.202 695.341 438.856C696.291 446.582 696.53 456.751 691.498 463.145C689.089 466.188 685.83 468.453 682.138 469.653C683.42 473.248 682.529 528.097 682.497 535.891C682.435 553.687 682.873 571.586 682.409 589.369C682.378 590.49 682.398 591.601 681.955 592.647C687.326 595.658 692.51 603.107 694.121 608.911C695.43 613.604 695.143 618.59 692.635 622.844C690.434 626.496 686.883 629.132 682.748 630.179C677.09 631.582 670.243 630.621 664.407 630.723C664.725 631.524 664.892 632.237 664.939 633.097C665.32 640.303 665.294 697.468 664.517 699.435C664.413 699.708 664.397 699.714 664.267 699.967L664.141 700.222C664.048 700.409 663.948 700.591 663.844 700.773C663.943 700.708 664.048 700.646 664.152 700.58C669.607 696.971 675.661 681.509 678.31 675.301C679.509 672.487 680.73 668.475 682.925 666.309C683.624 665.622 684.432 665.486 685.366 665.636C686.878 665.879 688.03 667.262 688.818 668.487C691.086 672.021 692.27 676.873 693.96 680.77C699.399 693.327 706.574 703.405 716.54 712.775C719.314 715.386 724.304 718.851 723.329 723.212C722.996 724.71 721.937 725.679 720.649 726.404C716.618 728.667 710.068 728.057 705.531 728.05C709.416 730.724 712.467 735.403 715.888 738.718C719.116 741.847 728.56 746.842 729.457 750.772C729.681 751.751 729.404 752.777 728.8 753.565C726.109 757.067 719.126 758.141 715.038 758.486C713.129 758.64 711.221 758.739 709.307 758.783C712.509 760.991 715.252 764.517 718.073 767.234C724.132 773.073 730.766 777.763 738.223 781.649C740.575 782.875 744.585 784.291 744.992 787.32C745.127 788.338 744.772 789.269 744.131 790.053C740.298 794.759 727.214 797.101 721.228 797.472C719.288 797.592 717.327 797.591 715.387 797.52C717.895 799.029 719.945 801.287 722.161 803.18C727.501 807.738 733.472 812.043 739.991 814.747C742.369 815.735 746.102 816.591 746.853 819.381C747.14 820.457 747.01 821.493 746.436 822.453C743.625 827.173 732.064 829.117 727.006 830.154C716.289 832.349 705.083 833.461 694.142 833.673C695.639 836.058 696.489 843.467 695.988 846.31C695.936 846.613 695.826 846.924 695.717 847.211C705.714 848.34 731.141 851.644 737.32 859.772C738.327 861.092 738.901 862.713 738.593 864.376C738.223 866.396 736.679 867.909 735.005 868.964C727.392 873.766 711.627 874.214 702.439 874.814C685.152 875.939 667.854 875.981 650.541 876.057L587.922 876.116L403.723 876.275C402.922 878.994 401.619 880.562 399.151 881.944C372.407 896.927 211.721 890.125 172.733 888.105L146.134 886.679C136.058 886.119 125.207 885.869 115.489 883.016C112.121 882.028 108.28 880.277 106.487 877.065C105.473 875.247 105.097 873.152 105.634 871.118C106.626 867.359 110.411 864.907 113.621 863.193C122.984 858.192 136.863 854.004 147.394 852.97C136.322 838.308 130.585 818.932 133.121 800.602C134.721 789.034 138.584 777.922 145.028 768.156C141.565 769.235 137.617 769.668 134.42 771.33C131.628 772.783 128.899 775.839 126.065 776.829C125.22 777.125 124.752 776.871 123.94 776.618C122.757 775.31 123.605 774.011 122.954 773.034C122.459 772.292 121.097 771.911 120.44 771.106L118.719 768.393C118.117 767.628 117.816 766.939 117.482 766.028C117.319 764.93 116.79 764.208 116.192 763.301C114.909 762.526 114.73 761.916 114.345 760.509C113.829 759.589 113.262 758.882 112.535 758.119L111.345 756.433C110.946 755.218 110.441 754.484 109.59 753.535C108.429 752.079 108.49 751.51 108.697 749.674C107.989 748.504 106.771 746.857 107.05 745.429C107.195 744.682 107.605 744.221 108.259 743.843C110.573 742.509 115.592 743.117 118.321 742.943L117.993 742.634C114.737 739.62 102.137 733.318 102.001 729.048C101.979 728.345 102.312 728.151 102.749 727.658C104.111 727.174 104.901 726.862 106.259 727.5C109.508 729.026 112.291 731.675 115.401 733.496C114.539 730.288 112.335 725.134 114.126 722.04C114.364 721.63 114.546 721.389 114.992 721.198C116.255 721.419 116.875 721.903 117.631 722.973C121.593 728.584 121.41 736.467 125.64 742.101C139.609 742.104 153.352 738.745 166.382 733.846C162.491 726.633 160.465 718.743 161.961 710.553C158.724 707.853 155.611 704.933 155.191 700.48C154.907 697.465 156.072 694.646 158.002 692.374C161.609 688.129 167.321 685.436 172.388 683.303C169.766 674.195 166.608 665.262 163.915 656.18C173.596 645.002 188.899 639.627 203.325 638.573C209.659 638.11 226.788 638.542 231.712 642.385C232.599 643.077 232.612 643.89 232.667 644.931C232.821 647.872 232.368 651.023 232.138 653.965C231.638 660.395 230.989 666.932 230.959 673.384C233.204 673.588 235.493 673.708 237.721 674.046L237.719 630.724Z" fill="#090908"/>
<path d="M109.589 753.535C111.802 752.751 114.22 752.26 116.52 751.784C118.143 751.449 122.337 750.246 123.621 751.089C124.521 752.371 125.254 753.647 125.951 755.049C121.976 756.634 118.1 758.457 114.345 760.509C113.829 759.589 113.262 758.882 112.535 758.119L111.345 756.433C110.946 755.218 110.441 754.484 109.589 753.535Z" fill="#CE2626"/>
<path d="M111.345 756.433C114.512 754.741 119.808 752.512 123.423 752.668C122.725 754.322 119.417 755.204 117.743 755.885C116.006 756.591 114.182 757.219 112.535 758.119L111.345 756.433Z" fill="#090908"/>
<path d="M116.191 763.301C118.99 761.424 123.371 757.679 126.715 757.534C127.542 758.013 127.536 758.021 127.867 758.919C125.036 761.841 120.596 763.248 117.482 766.029C117.319 764.93 116.79 764.208 116.191 763.301Z" fill="#CE2626"/>
<path d="M118.719 768.393L119.099 768.216C122.223 766.732 126.406 761.754 129.694 761.752C130.351 762.316 130.385 762.255 130.451 763.109C127.489 766.075 123.411 767.94 120.44 771.106L118.719 768.393Z" fill="#CE2626"/>
<path d="M221.553 600.594L351.154 478.65L398.337 434.557C407.035 426.452 415.651 417.724 424.87 410.235C427.873 407.795 430.878 406.05 434.569 404.843C443.841 401.81 454.603 402.217 463.306 406.784C470.632 410.628 479.516 420.191 485.887 426.067L515.426 453.269L637.958 566.051C641.473 569.307 673.356 597.814 674.07 600.095C677.799 601.818 682.669 607.214 684.02 611.032C684.755 613.111 684.959 615.456 683.916 617.478C683.175 618.915 681.653 620.266 680.088 620.724C675.974 621.928 660.59 621.177 655.599 621.178L598.252 621.136C590.102 621.069 581.946 620.594 573.8 620.643C573.263 623.277 572.283 628.827 569.889 630.377C569.769 630.452 569.649 630.516 569.529 630.585C568.773 630.233 568.659 630.175 568.372 629.375C567.892 628.021 568.127 625.727 568.095 624.249C562.923 618.533 557.097 613.278 551.565 607.902L519.344 576.746C505.73 563.463 491.951 550.35 478.01 537.412C471.716 531.593 465.352 524.855 458.344 519.939C455.136 517.7 451.353 516.427 447.444 516.271C439.511 515.904 434.07 519.859 428.566 524.972C396.167 555.068 365.038 586.49 333.07 617.03C331.195 618.821 328.307 621.102 327.24 623.485C326.276 625.639 327.422 630.249 325.26 631.172C323.229 630.514 322.478 628.85 321.555 627.034C320.456 624.869 320.108 622.84 319.735 620.467C297.418 621.188 275.167 621.17 252.838 621.185C242.077 621.192 230.509 621.904 219.859 621.143C218.32 621.032 215.082 620.815 213.907 619.743C212.46 618.421 211.508 616.561 211.541 614.579C211.633 609.158 217.958 604.057 221.553 600.594Z" fill="#FEFEFE"/>
<path d="M221.553 600.594C230.303 600.23 239.178 600.515 247.941 600.519L296.797 600.539C304.256 600.54 317.93 601.302 324.614 600.201C327.213 599.774 329.59 598.159 331.61 596.55C337.344 591.982 342.496 586.334 347.898 581.346L387.527 544.584C397.169 535.636 406.92 526.13 417.493 518.301C428.782 509.94 441.152 504.83 455.387 508.073C462.151 509.614 468.553 513.47 474.185 517.404C485.997 525.657 496.672 536.058 507.402 545.663L551.199 584.69C556.835 589.742 565.261 599.117 572.705 600.151C577.831 600.862 583.312 600.517 588.485 600.517L615.091 600.505L653.248 600.531C659.74 600.544 666.405 600.852 672.887 600.523C673.418 600.496 673.653 600.418 674.07 600.095C677.799 601.818 682.669 607.215 684.02 611.032C684.755 613.111 684.959 615.457 683.916 617.478C683.175 618.915 681.653 620.266 680.088 620.724C675.974 621.928 660.59 621.178 655.6 621.178L598.252 621.136C590.102 621.069 581.946 620.595 573.8 620.644C573.263 623.278 572.283 628.827 569.889 630.377C569.769 630.452 569.649 630.516 569.529 630.586C568.773 630.233 568.659 630.175 568.372 629.375C567.892 628.021 568.127 625.728 568.095 624.249C562.923 618.533 557.097 613.278 551.565 607.902L519.344 576.746C505.73 563.463 491.951 550.35 478.01 537.412C471.716 531.593 465.352 524.855 458.344 519.939C455.136 517.701 451.353 516.428 447.444 516.271C439.511 515.905 434.07 519.86 428.566 524.973C396.167 555.068 365.038 586.49 333.07 617.03C331.195 618.822 328.307 621.102 327.24 623.485C326.276 625.639 327.422 630.249 325.26 631.172C323.229 630.514 322.478 628.851 321.555 627.034C320.456 624.869 320.108 622.84 319.735 620.467C297.418 621.188 275.167 621.17 252.838 621.185C242.077 621.192 230.509 621.905 219.859 621.143C218.32 621.033 215.082 620.815 213.907 619.743C212.46 618.421 211.508 616.562 211.541 614.579C211.633 609.158 217.958 604.057 221.553 600.594Z" fill="#A6C7E0"/>
<path d="M342.757 633.07C340.681 633.058 338.646 633.195 337.041 631.644C336.721 631.335 336.588 630.744 336.424 630.328C336.491 628.48 337.379 627.118 338.543 625.756C341.918 621.807 346.101 618.269 349.837 614.631L371.394 593.548C392.741 572.711 413.914 551.543 435.75 531.222C438.904 528.288 441.945 524.903 446.612 525.026C448.846 525.086 450.987 525.729 452.782 527.083C459.046 531.807 464.749 538.032 470.451 543.439C481.731 554.02 492.916 564.704 504.002 575.488L543.017 613.471C547.236 617.64 551.918 621.634 555.928 625.958C556.916 627.022 557.841 628.365 557.752 629.871C557.704 630.67 557.27 631.391 556.621 631.875C554.837 633.202 552.342 633.049 550.24 633.036C541.863 633.017 533.468 632.896 525.094 633.138L525.111 802.217C521.538 804.029 518.417 806.208 515.224 808.603L499.185 808.577C498.546 760.378 499.147 712.084 499.137 663.875C501.928 662.529 504.347 660.951 505.955 658.218C507.569 655.473 507.705 652.355 506.853 649.334C504.829 642.158 497.658 636.862 491.459 633.351C470.651 621.565 443.506 619.484 420.642 625.824C409.815 628.827 393.812 635.037 388.075 645.456C386.346 648.597 385.613 652.571 386.678 656.054C387.834 659.839 390.74 662.038 394.083 663.837L394.112 808.585C387.511 808.482 378.707 809.574 372.433 808.346C371.161 808.098 369.854 807.288 368.72 806.671L368.681 633.099C360.049 632.897 351.392 633.048 342.757 633.07Z" fill="#FDD090"/>
<path d="M342.757 633.07C340.681 633.058 338.646 633.195 337.041 631.644C336.721 631.335 336.588 630.744 336.424 630.328C336.491 628.48 337.379 627.118 338.543 625.756C341.918 621.807 346.101 618.269 349.837 614.631L371.394 593.548C392.741 572.711 413.914 551.543 435.75 531.222C438.904 528.288 441.945 524.903 446.612 525.026C448.846 525.086 450.987 525.729 452.782 527.083C459.046 531.807 464.749 538.032 470.451 543.439C481.731 554.02 492.916 564.704 504.002 575.488L543.017 613.471C547.236 617.64 551.918 621.634 555.928 625.958C556.916 627.022 557.841 628.365 557.752 629.871C557.704 630.67 557.27 631.391 556.621 631.875C554.837 633.202 552.342 633.049 550.24 633.036C546.611 628.536 541.838 624.419 537.725 620.348L512.321 595.522C503.135 586.709 494.293 577.538 485.179 568.651C475.479 559.258 465.633 550.018 455.644 540.933C452.984 538.485 449.08 534.54 445.13 535.038C443.509 535.242 441.214 537.276 439.997 538.308C435.78 541.885 431.831 545.869 427.804 549.661C417.107 559.734 406.698 570.08 396.159 580.318C378.269 597.697 359.652 614.724 342.757 633.07Z" fill="#E2B174"/>
<path d="M446.347 551.063C448.803 551.891 498.057 601.892 504.539 608.313L448.648 608.326L389.981 608.309C408.542 589.004 427.332 569.921 446.347 551.063Z" fill="#090908"/>
<path d="M449.638 567.803C452.549 569.389 477.095 594.849 480.787 598.823C470.444 599.212 459.973 598.874 449.616 598.872L449.638 567.803Z" fill="#A6C7E0"/>
<path d="M442.643 568.329C443.943 570.214 443.163 594.708 443.15 598.877L413.774 598.892L413.512 598.613C413.82 596.453 439.654 571.326 442.643 568.329Z" fill="#A6C7E0"/>
<path d="M580.892 630.674L654.932 630.69C655.975 633.577 655.73 709.4 654.995 710.847C654.927 710.974 654.849 711.095 654.781 711.219C654.729 711.351 654.682 711.484 654.624 711.614C653.211 714.905 645.29 717.595 646.103 722.966C647.032 724.821 649.149 725.846 651.057 726.471C652.241 726.857 653.597 726.928 654.828 727.035C655.657 729.645 655.662 735.996 654.562 738.443C654.504 738.578 654.452 738.714 654.395 738.847C652.377 743.212 638.573 748.1 640.106 753.405C640.487 754.72 641.697 755.462 642.849 756.053C646.896 758.123 651.355 758.409 655.803 758.614C654.995 762.549 637.901 778.101 634.344 780.36C634.115 780.506 633.875 780.622 633.635 780.747C633.113 777.105 627.142 772.73 627.601 769.393C628.921 769.018 629.958 769.433 631.085 768.574C631.283 767.483 631.017 766.902 630.579 765.903C629.202 765.173 626.287 765.582 624.686 765.609C624.691 765.536 624.702 765.464 624.697 765.391C624.582 763.534 621.318 758.132 619.91 756.865C622.898 756.838 627.857 757.573 630.569 756.617C631.173 755.039 631.445 753.535 630.761 751.927C630.621 751.589 630.631 751.631 630.48 751.37L540.278 751.396L540.31 769.533L582.697 769.519C590.889 769.514 599.181 769.757 607.363 769.342C607.493 776.266 590.389 788.437 595.426 793.148C596.078 793.756 598.07 794.905 598.263 795.576C598.232 795.654 598.2 795.733 598.164 795.811C596.073 800.437 583.651 808.824 585.716 813.745C586.566 815.772 588.918 816.662 590.827 817.374C591.265 817.537 591.108 817.431 591.379 817.688C590.081 821.285 585.742 827.69 582.551 829.848C581.946 822.886 574.155 813.136 568.945 808.768C559.847 801.14 548.361 797.837 536.604 799.036C536.173 799.08 535.754 799.143 535.327 799.212L535.337 643.023C541.541 643.084 549.3 643.844 555.324 642.979C557.714 642.635 559.727 641.012 562.052 640.669C567.616 639.849 572.992 640.797 577.487 636.452C578.64 635.338 580.731 632.516 580.898 630.911C580.903 630.832 580.892 630.753 580.892 630.674Z" fill="#FDD090"/>
<path d="M630.569 756.617C631.492 758.522 631.612 763.136 630.923 765.185C630.829 765.475 630.73 765.621 630.579 765.903C629.202 765.173 626.287 765.582 624.686 765.609C624.692 765.536 624.702 765.464 624.697 765.391C624.582 763.534 621.318 758.132 619.91 756.865C622.898 756.838 627.857 757.573 630.569 756.617Z" fill="#CE2626"/>
<path d="M540.122 650.122L630.407 650.112C630.975 651.021 630.981 651.731 631.017 652.769C631.32 662.068 631.481 743.595 630.871 745.205C630.782 745.433 630.188 745.928 629.995 746.133C600.13 746.795 570.046 746.447 540.17 746.186C539.507 714.224 540.014 682.096 540.122 650.122Z" fill="#090908"/>
<path d="M549.642 700.437L582.358 700.476C582.639 700.954 582.869 701.466 582.968 702.015C583.495 704.959 583.641 725.671 582.368 727.518C583.479 729.429 583.474 733.887 582.916 736.023C582.801 736.475 582.634 736.751 582.389 737.144L570.202 737.15L549.601 737.192C549.694 724.94 549.708 712.688 549.642 700.437Z" fill="#A6C7E0"/>
<path d="M570.202 737.15L570.891 736.483L570.755 736.171C571.381 735.405 581.456 727.972 582.368 727.519C583.479 729.429 583.474 733.887 582.916 736.023C582.801 736.475 582.634 736.751 582.389 737.144L570.202 737.15Z" fill="#A6C7E0"/>
<path d="M616.41 700.442L621.229 700.419C621.349 700.721 621.411 700.853 621.484 701.151C622.261 704.243 622.006 730.599 621.656 735.25C621.599 735.965 621.395 736.525 621.036 737.146L593.064 737.147L588.214 737.159C588.344 736.809 588.454 736.466 588.537 736.102C589.309 732.889 589.121 706.649 588.694 702.365C588.621 701.671 588.381 701.089 588.016 700.498L616.41 700.442Z" fill="#A6C7E0"/>
<path d="M549.598 659.143L582.368 659.13C583.448 660.796 583.286 688.262 582.916 692.418C582.822 693.51 582.859 693.482 582.003 694.194L549.605 694.175C549.723 682.5 549.62 670.818 549.598 659.143Z" fill="#A6C7E0"/>
<path d="M587.969 659.127L621.025 659.125C621.38 659.713 621.583 660.241 621.635 660.926C621.954 664.876 622.225 690.243 621.609 692.797C621.484 693.309 621.161 693.633 620.817 694.011C619.424 694.685 591.39 694.423 588.422 693.959C588.986 689.914 589.309 661.309 587.969 659.127Z" fill="#A6C7E0"/>
<path d="M517.217 816.061C525.543 809.077 534.354 804.556 545.593 805.596C555.005 806.467 563.273 811.031 569.206 818.355C572.794 822.788 574.906 827.457 576.528 832.86C576.929 834.193 577.722 837.826 578.807 838.583C580.069 839.461 582.879 839.534 584.402 839.7C601.674 841.595 724.216 853.961 730.62 862.112C730.698 862.212 730.766 862.32 730.839 862.424C730.62 863.136 730.573 863.221 729.864 863.573C723.455 866.753 707.503 867.436 700.092 867.821C687.196 868.491 674.258 868.51 661.346 868.625C638.803 868.792 616.259 868.818 593.716 868.704L426.048 868.491C417.701 868.493 409.355 868.541 401.009 868.635C382.239 856.46 332.017 852.735 308.499 850.795C308.903 842.712 310.414 833.386 316.28 827.31C322.451 818.339 332.027 812.733 342.637 810.75C351.091 809.169 362.771 809.27 370.027 814.328C370.819 814.89 371.595 815.474 372.354 816.079L467.41 816.085C484.003 816.084 500.626 816.294 517.217 816.061Z" fill="#FEFEFE"/>
<path d="M316.28 827.31C318.607 827.861 327.116 823.039 330.343 822.201C336.135 820.697 342.404 820.544 348.349 820.782C364.368 821.421 377.717 831.308 393.89 833.044C401.628 833.874 409.489 833.829 417.264 833.86L452.637 833.935C464.625 833.977 477.014 833.914 488.874 835.877C478.939 838.181 468.979 840.271 458.821 841.318C453.817 841.849 448.796 842.204 443.767 842.379C435.046 842.715 393.241 842.613 389.228 848.138C389.601 849.07 390.121 849.321 391.038 849.726C394.376 851.201 398.175 851.879 401.649 853C411.181 856.079 418.998 861.432 426.048 868.491C417.701 868.493 409.355 868.541 401.009 868.635C382.239 856.46 332.017 852.735 308.499 850.795C308.903 842.712 310.414 833.386 316.28 827.31Z" fill="#A6C7E0"/>
<path d="M169.526 754.764L172.228 757.115L175.779 759.044C172.07 766.126 160.378 790.918 162.473 798.331C162.628 798.875 162.93 799.193 163.317 799.586C164.304 799.963 164.863 799.949 165.9 799.786C167.487 801.068 168.941 801.454 170.959 801.657C172.112 802.188 172.868 802.486 174.146 802.338C175.15 803.109 175.758 803.71 177.113 803.525C177.322 803.497 177.573 803.428 177.769 803.379L180.418 803.862C181.834 804.51 183.038 804.542 184.548 804.177L186.574 804.922C188.672 805.311 190.436 805.644 192.425 804.597C193.456 805.167 194.024 805.415 195.204 805.209C196.077 804.624 196.472 804.132 196.686 803.077C197.359 799.759 196.494 795.805 196.622 792.37C196.945 783.11 198.031 773.893 199.869 764.811C215.115 765.319 234.573 765.233 246.925 754.941C251.279 758.67 255.079 762.579 258.452 767.229C256.518 768.789 253.903 770.427 253.669 773.144C253.576 774.238 253.857 774.581 254.516 775.35C255.875 775.805 257.122 775.731 258.411 775.059C259.703 774.384 260.843 773.128 261.896 772.131C271.569 788.247 275.735 805.07 271.765 823.755C271.397 825.736 270.869 827.717 270.297 829.649C266.498 842.475 258.151 852.855 246.381 859.197C226.635 869.836 198.12 871.174 176.886 864.7C163.412 860.592 152.95 852.246 146.354 839.73C138.174 823.966 136.62 805.589 142.035 788.674C146.825 773.284 155.181 762.313 169.526 754.764Z" fill="#FEFEFE"/>
<path d="M169.526 754.764L172.228 757.115C169.329 760.486 165.889 763.426 163.201 766.965C156.746 775.464 155.044 787.552 155.818 797.949C156.974 813.483 163.988 826.851 175.799 836.939C190.484 849.481 208.993 853.838 228.004 852.284C241.122 851.213 254.28 846.32 262.957 836.088C266.244 832.213 268.523 827.572 271.765 823.755C271.397 825.736 270.869 827.717 270.297 829.649C266.498 842.475 258.151 852.855 246.381 859.197C226.635 869.836 198.12 871.174 176.886 864.7C163.412 860.592 152.95 852.246 146.354 839.73C138.174 823.966 136.62 805.589 142.035 788.674C146.825 773.284 155.181 762.313 169.526 754.764Z" fill="#A6C7E0"/>
<path d="M217.431 825.623C220.164 824.942 223.052 825.783 224.992 827.826C226.932 829.87 227.623 832.798 226.801 835.494C225.98 838.189 223.772 840.233 221.022 840.846C216.845 841.776 212.695 839.175 211.712 835.008C210.729 830.842 213.278 826.659 217.431 825.623Z" fill="#090908"/>
<path d="M217.319 799.373C221.49 798.399 225.668 800.963 226.688 805.124C227.708 809.285 225.189 813.492 221.041 814.558C218.317 815.257 215.426 814.439 213.473 812.415C211.52 810.39 210.804 807.473 211.6 804.774C212.396 802.075 214.579 800.013 217.319 799.373Z" fill="#090908"/>
<path d="M216.106 772.468C220.19 771.175 224.546 773.461 225.801 777.559C227.057 781.657 224.729 785.992 220.621 787.209C216.567 788.411 212.302 786.12 211.063 782.076C209.824 778.032 212.075 773.745 216.106 772.468Z" fill="#090908"/>
<path d="M442.936 651.124C454.108 650.412 467.041 652.046 477.406 656.388C482.245 658.415 486.877 661.098 491.534 663.513L491.561 721.781C490.684 721.278 489.791 720.746 488.856 720.359C486.276 719.291 483.199 719.242 480.64 720.389C476.897 722.066 475.056 725.394 473.652 729.05L433.527 729.038C426.513 729.037 419.455 728.869 412.451 729.242C411.919 735.215 411.996 794.518 413.075 798.227C417.207 799.432 475.328 799.14 481.272 798.506C481.996 787.717 481.421 776.509 481.417 765.666L481.332 745.663C485.528 746.785 487.669 746.566 491.519 744.468C492.007 765.786 491.568 787.242 491.565 808.573L401.936 808.568L401.905 663.417C406.051 661.862 409.939 659.481 413.944 657.585C423.364 653.128 432.618 651.755 442.936 651.124Z" fill="#CE2626"/>
<path d="M445.17 659.732C449.891 659.3 455.304 659.97 459.916 661.044C468.664 663.08 477.193 667.38 482.078 675.186C482.267 681.958 481.937 688.854 481.936 695.64C481.935 701.613 482.367 707.963 481.771 713.896C481.602 715.577 481.31 717.194 480.338 718.611C476.681 720.476 454.873 719.473 449.43 719.454L427.453 719.513C423.652 719.523 419.53 719.833 415.765 719.344C414.596 719.193 413.876 719.056 412.973 718.264C410.904 713.36 411.869 682.941 411.627 675.395C412.363 673.983 413.258 672.659 414.295 671.45C421.819 662.798 434.27 660.418 445.17 659.732Z" fill="#090908"/>
<path d="M440.72 665.989C443.454 665.001 449.028 665.758 452.088 665.8C456.909 666.471 461.502 667.302 466.021 669.191C470.408 670.79 473.711 673.591 476.669 677.161C476.742 683.451 476.728 689.741 476.628 696.03C468.126 695.972 459.369 696.44 450.908 695.886C448.244 695.943 445.562 695.842 442.898 695.807C434.247 696.26 425.472 695.968 416.807 695.96C416.777 689.677 416.593 683.349 416.904 677.072C419.657 673.478 423.567 671.355 427.427 669.168C431.699 667.333 436.164 666.719 440.72 665.989Z" fill="#CE2626"/>
<path d="M440.72 665.989L441.574 666.323C442.572 669.735 444.728 693.495 443.871 695.371L443.074 695.621C436.508 687.886 432.183 678.083 427.427 669.168C431.699 667.333 436.164 666.718 440.72 665.989Z" fill="#FDD090"/>
<path d="M452.088 665.8C456.909 666.471 461.503 667.301 466.022 669.19C463.482 673.963 461.1 678.851 458.385 683.525C455.98 687.669 453.244 691.608 450.682 695.653L449.426 695.513C449.273 695.314 449.033 695.16 448.966 694.919C448.381 692.812 451.603 670.097 452.088 665.8Z" fill="#FDD090"/>
<path d="M417.19 701.681C436.871 701.231 456.686 701.651 476.374 701.735L476.302 713.722C468.843 714.105 461.263 713.845 453.792 713.846L417.172 713.775L417.19 701.681Z" fill="#FDD090"/>
<path d="M655.287 720.025C665.565 715.519 679.514 692.451 683.545 682.138C683.973 681.038 684.573 679.937 684.375 678.738C687.498 682.554 689.303 688.453 691.67 692.858C697.85 704.354 704.676 711.393 713.854 720.504L713.697 720.949C708.931 723.214 702.063 719.526 697.229 719.958C696.077 720.06 695.633 720.507 694.966 721.348C694.006 726.585 708.081 740.592 712.049 744.182C713.885 745.841 717.994 748.49 719.074 750.465C719.136 750.583 719.194 750.706 719.256 750.827C712.018 753.885 703.231 749.632 699.023 751.1C698.392 751.783 698.063 752.073 698.178 753.098C699.044 760.988 719.256 777.734 725.551 782.283C728.002 784.051 731.584 785.398 733.691 787.431C733.816 787.552 733.936 787.677 734.061 787.8C733.206 788.562 731.615 788.938 730.536 789.293C726.114 790.751 720.748 791.047 716.112 790.713C712.514 790.454 707.148 788.291 703.789 789.655C703.252 790.302 703.023 790.429 703.08 791.318C703.461 796.964 720.659 811.329 725.519 814.635C728.539 816.69 732.564 818.155 735.25 820.534C735.307 820.584 735.36 820.637 735.417 820.689C735.224 820.817 734.948 821.008 734.729 821.118C722.479 827.285 675.906 827.505 661.153 826.085C655.506 825.541 649.9 824.293 644.434 822.787C647.662 820.67 650.671 816.048 652.882 812.88C656.314 807.96 665.982 793.323 664.97 787.627C664.762 787.489 664.59 787.26 664.345 787.214C664.204 787.187 655.693 789.864 654.244 790.035C647.949 790.778 642.547 790.107 636.842 787.452C638.849 786.381 640.81 784.29 642.542 782.775C649.498 776.686 666.029 761.078 668.391 751.94C668.689 750.792 668.558 750.26 667.953 749.292C666.399 748.865 659.688 751.087 657.331 751.423C654.426 751.836 651.584 751.843 648.653 751.788C656.929 748.04 668.104 736.153 672.928 728.357C675.197 724.69 678.633 718.998 677.585 714.587C673.836 717.028 666.071 719.409 661.607 719.374C659.667 720.063 657.331 719.941 655.287 720.025Z" fill="#39965C"/>
<path d="M655.287 720.025C665.565 715.519 679.515 692.451 683.546 682.138C683.973 681.038 684.573 679.937 684.375 678.738C687.498 682.554 689.303 688.453 691.67 692.858C697.85 704.354 704.676 711.393 713.854 720.504L713.697 720.949C708.509 721.085 695.587 708.085 692.322 703.845C690.351 701.288 687.858 696.56 685.72 694.603C685.71 694.725 685.715 694.848 685.694 694.969C685.512 696.216 684.343 697.758 683.66 698.842C678.315 707.319 670.19 714.334 661.607 719.374C659.667 720.063 657.331 719.941 655.287 720.025Z" fill="#8CBD44"/>
<path d="M247.275 630.619L312.615 630.675C313.53 632.487 314.739 634.312 316.148 635.778C320.854 640.678 326.445 639.455 332.461 640.478C334.408 640.809 336.016 642.316 337.938 642.698C344.233 643.948 352.112 643.002 358.572 643.098C359.428 644.897 359.112 789.678 358.926 803.801C352.934 803.149 347.514 803.181 341.544 804.116C338.404 798.182 333.955 794.249 327.487 792.211C320.354 789.971 312.62 790.684 306.016 794.191C304.185 795.176 302.659 796.446 301.113 797.823C295.991 792.995 289.995 790.075 282.832 790.288C280.938 790.344 279.085 790.659 277.241 791.073C274.753 783.377 271.561 775.988 267.274 769.107C296.282 769.885 325.374 769.496 354.395 769.527C354.315 763.466 354.299 757.404 354.346 751.343L309.559 751.243C301.052 751.244 292.495 751.058 283.994 751.333C285.392 749.668 286.801 748.036 287.957 746.187C310.034 746.233 332.143 746.43 354.216 746.162L354.237 650.108L265.823 650.107C265.826 682.105 265.433 714.153 265.847 746.146L279.298 746.159C277.995 747.916 276.733 749.735 275.264 751.358C271.931 751.335 268.535 751.195 265.21 751.396C265.18 753.751 266.278 759.498 264.637 761.273C264.087 761.869 263.363 762.384 262.724 762.883C258.791 758.06 254.857 753.767 250.047 749.812C250.793 745.911 251.792 737.305 249.451 733.97C249.294 733.746 249.119 733.535 248.95 733.32C248.858 733.203 248.77 733.084 248.677 732.967C248.621 732.897 248.562 732.831 248.504 732.762C253.016 722.157 254.038 711.371 249.677 700.482C248.924 698.603 248.075 696.72 247.11 694.941C250.147 692.715 254.001 689.962 254.596 685.943C254.858 684.177 254.313 682.361 253.215 680.968C251.894 679.291 247.641 677.094 247.161 675.966L247.221 675.434C246.929 670.598 247.133 665.616 247.129 660.764L247.275 630.619Z" fill="#FDD090"/>
<path d="M247.275 630.619L312.615 630.675C313.53 632.487 314.739 634.312 316.148 635.778C320.854 640.678 326.445 639.455 332.461 640.478C334.408 640.809 336.016 642.316 337.938 642.698C344.233 643.948 352.112 643.002 358.572 643.098L358.2 644.419C344.995 645.343 331.527 644.691 318.287 644.687L247.562 644.619C247.561 650.395 248.361 670.895 247.221 675.434C246.929 670.598 247.133 665.616 247.129 660.764L247.275 630.619Z" fill="#E2B174"/>
<path d="M262.618 855.216C299.689 856.189 344.948 858.377 380.862 867.378C385.18 868.46 393.136 870.13 396.199 873.481C396.654 873.979 396.636 874.257 396.754 874.92C395.913 876.543 394.165 877.175 392.509 877.709C382.833 880.825 365.682 881.759 355.184 882.488C300.627 886.273 245.752 884.284 191.17 882.085C191.181 882.024 191.176 881.957 191.205 881.901C192.086 880.204 213.616 875.76 217.149 874.356C233.953 872.739 250.201 866.891 262.618 855.216Z" fill="#FEFEFE"/>
<path d="M272.52 865.499C278.309 865.615 285.604 866.016 290.6 869.145C291.682 869.823 293.126 870.903 293.366 872.223C293.505 872.982 293.307 873.53 292.783 874.087C290.763 876.231 284.941 876.945 282.169 877.153C276.927 877.309 271.23 877.217 266.254 875.411C263.9 874.558 261.443 873.254 260.347 870.896C260.336 869.913 260.343 869.493 261.067 868.765C263.483 866.337 269.301 865.731 272.52 865.499Z" fill="#A6C7E0"/>
<path d="M416.854 733.725C429.682 734.033 442.565 733.785 455.4 733.782C461.334 733.781 467.398 733.548 473.312 734.016C473.823 737.34 475.102 740.293 477.029 743.049L477.019 794.18L428.054 794.16L416.832 794.176L416.854 733.725Z" fill="#CE2626"/>
<path d="M473.312 734.016C473.823 737.34 475.102 740.293 477.029 743.049L477.018 794.18L428.054 794.16C432.753 788.472 438.013 783.216 442.841 777.625C450.826 768.394 458.214 758.663 464.963 748.493C467.99 743.969 471.411 739.151 473.312 734.016Z" fill="#8D1A17"/>
<path d="M171.696 730.793L171.475 730.324C168.185 723.289 166.227 715.21 169.024 707.666C171.998 699.645 179.423 693.995 186.957 690.532C199.237 684.89 215.122 682.27 228.02 687.15C234.516 689.607 239.75 694.294 242.614 700.641C246.697 708.998 246.557 719.06 243.584 727.749C243.28 728.631 242.966 729.509 242.642 730.384L242.171 730.449C237.223 731.169 232.869 734.79 228.142 736.417C213.745 741.371 190.04 739.374 177.134 731.259C175.141 730.473 173.76 730.447 171.696 730.793Z" fill="#FEFEFE"/>
<path d="M171.696 730.793L171.475 730.324C168.185 723.289 166.227 715.21 169.024 707.666C171.998 699.645 179.423 693.995 186.957 690.532C199.237 684.89 215.122 682.27 228.02 687.15C234.516 689.607 239.75 694.294 242.614 700.641C242.54 700.607 242.466 700.574 242.393 700.538C239.207 698.97 236.057 695.638 232.13 693.77C221.501 688.713 205.352 690.562 194.453 694.076C186.87 696.522 178.846 700.79 175.143 708.193C172.693 713.09 172.453 718.784 174.195 723.941C175.036 726.432 176.341 728.771 177.134 731.259C175.141 730.473 173.76 730.447 171.696 730.793Z" fill="#A6C7E0"/>
<path d="M235.03 709.251C235.206 709.287 235.424 709.503 235.57 709.613C235.44 710.972 234.944 712.206 234.195 713.341C230.879 718.371 223.457 721.933 217.66 723.08C213.742 723.856 210.528 723.331 207.217 721.113C206.862 720.698 206.536 720.258 206.242 719.797C205.513 718.675 205.135 717.503 205.503 716.173C208.327 705.963 221.147 712.434 227.902 711.896C230.411 711.697 232.842 710.395 235.03 709.251Z" fill="#CE2626"/>
<path d="M193.809 720.437C197.87 722.301 200.89 725.784 205.156 727.385C210.486 729.385 216.708 729.404 221.73 726.54C223.657 725.44 225.468 723.915 227.517 723.065C228.692 722.579 229.591 722.611 230.741 723.089C231.28 723.751 231.437 723.901 231.478 724.748C231.547 726.215 230.728 727.062 229.789 728.058C225.087 732.302 219.64 734.403 213.294 734.429C206.558 734.458 198.462 731.867 193.652 726.977C192.453 725.759 191.695 724.533 191.713 722.777C192.106 721.56 192.778 721.131 193.809 720.437Z" fill="#090908"/>
<path d="M199.404 699.991C202.242 699.294 205.107 701.033 205.799 703.873C206.491 706.713 204.748 709.576 201.908 710.264C199.074 710.95 196.219 709.211 195.529 706.377C194.838 703.543 196.572 700.686 199.404 699.991Z" fill="#090908"/>
<path d="M224.758 699.326C227.656 698.944 230.312 700.99 230.683 703.89C231.054 706.79 228.999 709.44 226.099 709.801C223.213 710.16 220.58 708.117 220.21 705.231C219.841 702.345 221.875 699.705 224.758 699.326Z" fill="#090908"/>
<path d="M591.677 447.093C591.713 447.019 591.75 446.946 591.776 446.871C594.232 440.93 589.606 435.663 598.649 431.628C599.895 431.073 600.954 430.842 602.31 430.763C609.96 430.322 675.411 430.092 678.686 431.361C681.502 432.454 683.64 434.695 684.797 437.468C685.762 439.792 686.231 443.877 685.293 446.233C685.168 446.543 684.985 446.824 684.792 447.093C684.969 447.351 685.136 447.614 685.256 447.902C686.091 449.858 685.715 453.185 684.886 455.099C684.062 456.994 682.597 458.432 680.672 459.179C679.129 459.779 677.22 459.908 675.588 459.984C661.998 460.609 648.122 459.972 634.506 459.968C623.769 459.965 612.614 460.697 601.924 460.006C600.156 459.892 598.216 459.575 596.594 458.832C590.978 456.259 593.491 451.671 591.781 447.329C591.75 447.249 591.713 447.172 591.677 447.093Z" fill="#FEFEFE"/>
<path d="M591.677 447.093L654.4 447.099C664.423 447.097 674.816 447.734 684.792 447.093C684.969 447.351 685.136 447.614 685.256 447.902C686.091 449.858 685.715 453.185 684.886 455.099C684.062 456.994 682.597 458.432 680.672 459.179C679.129 459.779 677.22 459.908 675.588 459.984C661.998 460.609 648.122 459.972 634.506 459.968C623.769 459.964 612.614 460.697 601.924 460.006C600.156 459.892 598.216 459.575 596.594 458.832C590.978 456.259 593.491 451.671 591.781 447.328C591.75 447.249 591.713 447.172 591.677 447.093Z" fill="#A6C7E0"/>
<path d="M606.732 788.278C605.991 788.293 605.266 788.207 604.531 788.13L604.197 787.552C607.238 783.154 610.215 778.766 612.744 774.048C614.257 771.22 615.43 768.205 617 765.417L617.365 765.567L617.552 766.687C618.747 767.667 628.55 784.297 629.62 786.684C629.406 787.221 629.432 787.35 628.947 787.702C627.951 788.424 627.007 789.034 626.861 790.361C626.313 795.34 638.073 808.227 638.088 812.375C636.607 812.381 635.006 812.19 633.687 812.953C632.905 813.971 632.529 814.507 632.722 815.878C633.598 822.157 644.852 837.34 644.868 840.297C638 838.57 630.131 838.246 623.085 837.424C611.029 836.017 598.873 834.301 586.754 833.552C591.119 830.938 599.176 819.009 600.354 813.983C600.62 812.844 600.584 812.454 600.177 811.414C598.279 810.431 595.551 810.766 593.45 810.779C598.049 808.058 606.45 796.199 607.754 791.032C607.973 790.166 608.004 789.646 607.681 788.815L606.732 788.278Z" fill="#39965C"/>
<path d="M606.732 788.278C605.991 788.293 605.266 788.207 604.531 788.13L604.197 787.552C607.237 783.154 610.215 778.766 612.744 774.048C614.257 771.22 615.43 768.205 617 765.417L617.365 765.567L617.552 766.687C618.454 771.195 613.261 779.298 610.773 783.052C609.589 784.845 608.333 786.837 606.732 788.278Z" fill="#8CBD44"/>
<path d="M278.39 797.199C283.902 796.33 289.361 796.129 294.123 799.565C296.547 801.314 298.207 805.047 300.983 806.006C303.057 805.146 304.936 802.878 306.687 801.445C312.249 796.894 320.429 795.879 327.059 798.615C330.663 800.103 333.521 802.601 335.988 805.57C334.403 806.066 332.82 806.608 331.223 807.058C325.971 808.699 320.999 811.756 316.865 815.361C306.295 824.579 302.153 836.441 301.217 850.112C290.222 850.094 279.12 849.103 268.094 848.915C277.741 834.479 280.088 819.511 279.296 802.434L278.39 797.199Z" fill="#39965C"/>
<path d="M278.39 797.199C283.902 796.33 289.361 796.129 294.123 799.565C296.546 801.314 298.206 805.047 300.983 806.006C303.057 805.146 304.936 802.878 306.687 801.445C312.249 796.894 320.429 795.879 327.059 798.615C330.663 800.103 333.521 802.601 335.988 805.57C334.403 806.066 332.82 806.608 331.223 807.058C327.506 804.846 323.552 803.051 319.168 802.832C311.45 802.447 306.053 807.287 300.694 812.126C299.551 810.812 298.411 809.442 297.153 808.237C292.174 803.467 285.94 802.225 279.296 802.434L278.39 797.199Z" fill="#8CBD44"/>
<path d="M393.101 654.776C392.961 651.994 394.358 649.236 395.983 647.056C403.288 637.254 418.449 632.781 430.034 631.17C449.494 628.465 476.115 629.564 492.367 642.084C496.499 645.267 499.605 648.872 500.283 654.152C499.342 655.09 498.231 656.241 496.808 656.231C493.082 656.204 485.981 652.367 482.199 651.01C467.136 645.495 451.006 643.523 435.058 645.245C426.813 646.241 418.722 648.251 410.97 651.23C406.587 652.864 401.182 655.902 396.586 656.445C395.234 656.605 394.032 655.626 393.101 654.776Z" fill="#FEFEFE"/>
<path d="M393.101 654.776C405.017 647.061 416.131 642.13 430.321 640.259C453.68 637.179 481.035 639.397 500.283 654.152C499.342 655.09 498.231 656.241 496.808 656.231C493.082 656.204 485.981 652.367 482.199 651.01C467.136 645.495 451.006 643.523 435.058 645.245C426.813 646.241 418.722 648.251 410.97 651.229C406.587 652.864 401.182 655.902 396.586 656.445C395.234 656.605 394.032 655.626 393.101 654.776Z" fill="#A6C7E0"/>
<path d="M173.277 736.079C177.001 736.167 181.772 739.024 185.367 740.282C196.196 744.07 208.511 744.859 219.839 743.44C227.53 742.476 233.774 738.34 241.068 736.526C242.046 736.282 242.771 736.197 243.733 736.541C245.078 737.669 245.392 739.153 245.532 740.829C245.839 744.486 245.529 748.677 243.097 751.556C235.936 757.296 223.653 759.24 214.732 759.787C204.338 760.424 182.574 759.516 174.47 752.165C171.948 749.878 171.176 747.111 171.076 743.796C170.977 740.55 170.966 738.537 173.277 736.079Z" fill="#CE2626"/>
<path d="M153.869 859.288C158.365 862.906 162.856 865.728 168.064 868.211C184.151 874.333 200.054 876.033 217.149 874.356C213.615 875.761 192.085 880.204 191.204 881.901C191.175 881.957 191.181 882.024 191.169 882.086C182.781 882.056 174.311 881.383 165.927 880.953C149.649 880.118 133.421 879.232 117.337 876.478C116.203 876.257 114.653 876.041 113.648 875.48C112.992 875.113 112.67 874.544 112.552 873.82C112.388 872.818 112.912 871.752 113.538 871.001C119.125 864.304 145.413 860.159 153.869 859.288Z" fill="#A6C7E0"/>
<path d="M153.869 859.288C158.365 862.906 162.856 865.728 168.064 868.211C164.193 868.908 159.814 867.753 155.877 867.683C144.304 867.477 127.023 869.662 117.337 876.478C116.203 876.256 114.653 876.041 113.648 875.48C112.992 875.113 112.67 874.544 112.552 873.82C112.388 872.818 112.912 871.752 113.538 871.001C119.125 864.304 145.413 860.159 153.869 859.288Z" fill="#FEFEFE"/>
<path d="M314.239 700.46L345.552 700.473L345.504 737.093C335.15 737.462 324.635 737.144 314.266 737.155L314.239 700.46Z" fill="#A6C7E0"/>
<path d="M275.217 659.148C286.068 658.996 296.946 659.141 307.801 659.14L307.788 694.219C296.946 694.154 286.104 694.171 275.263 694.27L275.217 659.148Z" fill="#A6C7E0"/>
<path d="M313.993 659.13L345.565 659.144C345.58 665.097 346.351 690.457 345.325 694.132L326.159 694.243C322.302 694.276 318.315 694.534 314.478 694.107C313.807 693.179 313.986 692.58 314.006 691.487L313.993 659.13Z" fill="#A6C7E0"/>
<path d="M180.416 760.877C185.006 762.367 189.639 763.289 194.394 764.066C193.149 777.506 191.049 791.076 192.425 804.597C190.436 805.644 188.672 805.311 186.574 804.922L184.548 804.177C183.038 804.542 181.834 804.51 180.418 803.862L177.769 803.379C177.573 803.428 177.322 803.497 177.113 803.525C175.758 803.71 175.15 803.109 174.146 802.338C172.868 802.486 172.112 802.187 170.959 801.657C168.941 801.454 167.487 801.068 165.9 799.786C166.851 796.087 167.397 792.306 168.381 788.61C170.915 779.088 175.211 769.239 180.416 760.877Z" fill="#CE2626"/>
<path d="M170.959 801.657C171.633 798.471 172.414 790.793 174.503 788.55C175.732 790.201 174.413 799.781 174.146 802.338C172.868 802.486 172.112 802.188 170.959 801.657Z" fill="#090908"/>
<path d="M177.769 803.379L177.844 802.995C178.586 799.028 177.77 792.671 179.985 789.331L180.649 789.116C181.584 790.217 180.474 801.709 180.418 803.862L177.769 803.379Z" fill="#090908"/>
<path d="M184.548 804.178C184.568 804.07 184.59 803.961 184.607 803.852C185.293 799.707 183.964 793.75 185.824 790.023C186.913 792.228 187.13 802.38 186.574 804.922L184.548 804.178Z" fill="#090908"/>
<path d="M275.269 700.376C286.124 700.492 296.981 700.508 307.836 700.427C307.74 705.791 308.687 717.35 307.64 721.94C307.382 723.07 304.261 722.418 302.444 723.623C298.917 725.962 296.136 729.32 292.566 731.626L293.682 722.876C293.984 720.693 294.826 717.509 294.116 715.404C293.446 714.511 292.982 714.038 291.939 713.616C291.518 713.688 291.046 713.673 290.706 713.942C286.776 717.06 286.32 732.207 285.756 737.206L275.266 737.174L275.269 700.376Z" fill="#A6C7E0"/>
<path d="M605.068 505.226C609.642 504.414 615.06 504.961 619.748 504.965L649.592 505.003C649.785 505.341 649.978 505.717 650.072 506.097C650.703 508.746 650.87 517.55 649.545 519.774C646.046 520.756 638.761 520.025 634.808 520.015L604.792 519.991C604.823 519.931 604.849 519.87 604.881 519.811C604.917 519.743 604.959 519.677 604.99 519.609C606.038 517.489 605.788 507.502 605.068 505.226Z" fill="#CE2626"/>
<path d="M289.056 756.777L350.245 756.668L350.267 765.593L331.022 765.573L269.974 765.517L278.746 756.893C282.179 756.794 285.622 756.811 289.056 756.777Z" fill="#CE2626"/>
<path d="M604.964 470.409C609.323 469.369 615.221 470.112 619.774 470.12L649.644 470.122C650.108 470.983 650.129 471.67 650.166 472.622C650.285 475.494 651.057 482.846 649.19 484.879C634.406 485.062 619.612 484.946 604.828 484.948C604.912 484.796 605 484.647 605.078 484.493C606.048 482.568 605.657 472.523 604.964 470.409Z" fill="#CE2626"/>
<path d="M630 487.626C643.835 486.838 658.045 487.531 671.922 487.475C672.188 487.917 672.375 488.401 672.475 488.905C672.975 491.538 673.335 499.842 671.88 502.103C669.742 502.945 635.011 502.261 629.546 502.25C631.189 499.247 630.485 491.021 630 487.626Z" fill="#CE2626"/>
<path d="M630.089 522.834C634.986 522.578 639.987 522.78 644.894 522.781L671.943 522.724C672.198 523.138 672.391 523.539 672.48 524.022C672.986 526.655 673.236 535.245 671.818 537.011C667.74 537.661 662.833 537.161 658.687 537.156L629.583 537.131C631.262 534.426 630.37 526.083 630.089 522.834Z" fill="#CE2626"/>
<path d="M544.368 756.884L613.276 756.876C613.287 756.964 613.308 757.051 613.313 757.139C613.37 758.93 611.686 761.733 610.544 763.069C610.554 763.187 610.575 763.304 610.58 763.423C610.601 764.369 610.038 765.024 609.444 765.683C587.781 765.455 566.104 765.638 544.44 765.655L544.368 756.884Z" fill="#CE2626"/>
<path d="M165.984 739.397C166.688 742.649 166.417 746.702 166.548 750.063C157.45 755.972 147.436 760.489 137.602 765.01C135.739 763.164 134.162 761.191 132.564 759.122C130.005 755.428 127.934 751.871 126.326 747.663C140.197 746.949 152.86 743.759 165.984 739.397Z" fill="#CE2626"/>
<path d="M210.492 665.212C215.59 665.104 220.523 665.464 225.572 666.158C225.853 668.72 225.85 671.316 225.912 673.891C212.567 673.773 200.167 675.222 187.257 678.634C183.802 679.682 180.37 680.696 177.049 682.123C176 679.485 175.204 676.721 174.329 674.02C186.01 668.35 197.545 665.779 210.492 665.212Z" fill="#CE2626"/>
<path d="M605.146 487.624C612.327 486.914 620.061 487.494 627.299 487.523C627.507 487.907 627.664 488.185 627.742 488.621C628.211 491.261 628.404 500.004 627.059 502.103C623.059 502.975 609.913 502.277 604.833 502.269C605.996 500.156 605.736 490.011 605.146 487.624Z" fill="#CE2626"/>
<path d="M643.449 557.261C652.768 556.529 662.541 557.125 671.901 557.13C672.094 557.438 672.261 557.708 672.36 558.061C672.986 560.276 673.054 570.264 671.912 572.129C670.071 573.028 662.108 572.411 659.631 572.401C659.083 570.496 645.827 559.28 643.449 557.261Z" fill="#CE2626"/>
<path d="M652.033 505.23C657.576 504.256 666.024 504.974 671.88 504.972C672.256 505.595 672.454 506.127 672.511 506.849C672.746 509.696 673.445 517.982 671.765 519.907C667.755 520.651 656.846 520.096 651.965 520.185C652.997 517.663 652.935 507.696 652.033 505.23Z" fill="#CE2626"/>
<path d="M669.904 470.023C670.743 469.961 671.385 469.981 672.203 470.176C672.256 470.269 672.323 470.357 672.36 470.456C673.085 472.187 672.829 483.178 671.979 484.928L654.468 484.908L653.154 484.79C650.812 481.695 654.108 473.755 651.751 470.083C657.805 470.127 663.855 470.107 669.904 470.023Z" fill="#CE2626"/>
<path d="M652.106 540.047C658.379 539.161 665.549 539.856 671.917 539.879C671.948 539.944 671.979 540.008 672.011 540.071C672.151 540.344 672.308 540.627 672.396 540.923C673.126 543.371 673.194 551.991 671.922 554.134C670.238 555.083 654.791 554.447 651.803 554.427C651.845 554.357 651.887 554.288 651.928 554.216C653.295 551.668 652.924 542.803 652.106 540.047Z" fill="#CE2626"/>
<path d="M624.999 540.047C632.899 539.143 641.629 539.848 649.618 539.852C649.816 540.187 649.988 540.475 650.072 540.863C650.578 543.27 650.838 552.364 649.529 554.223C647.235 554.976 642.985 554.521 640.487 554.547C639.939 552.632 627.393 542.178 624.999 540.047Z" fill="#CE2626"/>
<path d="M647.511 831.104C651.073 831.265 654.807 832.168 658.363 832.601C663.667 833.247 669.017 833.473 674.352 833.733C674.571 834.137 674.764 834.567 674.837 835.027C675.124 836.868 674.785 841.459 673.804 842.973C673.783 843.227 673.627 843.48 673.523 843.712C667.682 843.956 660.814 842.349 654.948 841.594C654.541 840.005 648.867 833.154 647.511 831.104Z" fill="#A6C7E0"/>
<path d="M606.867 522.835C613.646 522.721 620.431 522.719 627.21 522.828C627.32 523.025 627.518 523.338 627.596 523.571C628.389 525.911 628.383 534.721 627.241 536.723C626.355 537.568 622.746 537.155 621.463 537.134C620.817 534.86 609.318 525.419 606.867 522.835Z" fill="#CE2626"/>
<path d="M483.153 725.677C484.244 725.639 485.426 725.555 486.505 725.731C488.648 726.08 489.883 727.482 491.115 729.107L491.077 737.074C489.724 738.568 488.499 739.655 486.758 740.685C485.951 740.721 485.106 740.682 484.309 740.552C482.647 740.281 481.066 739.022 480.148 737.652C478.875 735.752 478.545 733.348 479.024 731.137C479.589 728.527 480.965 727.044 483.153 725.677Z" fill="#FDD090"/>
<path d="M636.174 795.11C637.754 795.059 639.554 795.79 641.149 796.046C645.467 796.737 649.509 796.941 653.868 796.598C653.889 796.765 653.925 797.013 653.91 797.192C653.712 799.065 650.854 803.724 649.368 804.894C649.368 805.057 649.383 805.222 649.363 805.384C649.117 807.036 646.745 809.39 645.467 810.325C645.509 808.226 637.791 797.69 636.174 795.11Z" fill="#FDD090"/>
<path d="M680.672 833.843C683.285 833.688 685.944 833.774 688.568 833.763C689.866 836.108 689.715 842.18 689.558 844.976C689.532 845.537 689.183 845.639 688.787 846.001C685.991 845.237 682.633 845.133 679.744 844.859C681.017 842.091 680.782 836.89 680.672 833.843Z" fill="#85492B"/>
<path d="M307.61 727.241C308.246 730.254 307.868 734.05 307.87 737.164L296.466 737.156L296.248 736.957C296.509 735.845 306.013 728.635 307.61 727.241Z" fill="#A6C7E0"/>
<path d="M663.297 575.255C666.076 574.801 669.075 575.015 671.886 575.015C672.052 575.281 672.136 575.387 672.251 575.663C673.022 577.551 672.84 581.218 672.105 583.083C668.898 581.239 666.504 577.395 663.297 575.255Z" fill="#CE2626"/>
</svg>
