<svg width="849" height="1183" viewBox="0 0 849 1183" fill="none" xmlns="http://www.w3.org/2000/svg">
<rect x="5" y="5" width="839" height="1173" rx="45" fill="white"/>
<rect x="5" y="5" width="839" height="1173" rx="45" stroke="black" stroke-width="10"/>
<circle cx="786.5" cy="1124.5" r="11.5" fill="black"/>
<circle cx="786.5" cy="59.5" r="11.5" fill="black"/>
<path d="M77 1124.5C77 1130.85 71.8513 1136 65.5 1136C59.1487 1136 54 1130.85 54 1124.5C54 1118.15 59.1487 1113 65.5 1113C71.8513 1113 77 1118.15 77 1124.5Z" fill="black"/>
<path d="M77 59.5C77 65.8513 71.8513 71 65.5 71C59.1487 71 54 65.8513 54 59.5C54 53.1487 59.1487 48 65.5 48C71.8513 48 77 53.1487 77 59.5Z" fill="black"/>
<mask id="path-6-inside-1_1_126" fill="white">
<path d="M708 48C713.523 48 717.934 52.4996 718.616 57.9801C723.122 94.1833 751.817 122.878 788.02 127.384C793.5 128.066 798 132.477 798 138V1046C798 1051.52 793.5 1055.93 788.02 1056.62C751.817 1061.12 723.122 1089.82 718.616 1126.02C717.934 1131.5 713.523 1136 708 1136H141C135.477 1136 131.066 1131.5 130.384 1126.02C125.878 1089.82 97.1833 1061.12 60.9801 1056.62C55.4996 1055.93 51 1051.52 51 1046V138C51 132.477 55.4996 128.066 60.9801 127.384C97.1833 122.878 125.878 94.1833 130.384 57.9801C131.066 52.4996 135.477 48 141 48H708Z"/>
</mask>
<path d="M708 48C713.523 48 717.934 52.4996 718.616 57.9801C723.122 94.1833 751.817 122.878 788.02 127.384C793.5 128.066 798 132.477 798 138V1046C798 1051.52 793.5 1055.93 788.02 1056.62C751.817 1061.12 723.122 1089.82 718.616 1126.02C717.934 1131.5 713.523 1136 708 1136H141C135.477 1136 131.066 1131.5 130.384 1126.02C125.878 1089.82 97.1833 1061.12 60.9801 1056.62C55.4996 1055.93 51 1051.52 51 1046V138C51 132.477 55.4996 128.066 60.9801 127.384C97.1833 122.878 125.878 94.1833 130.384 57.9801C131.066 52.4996 135.477 48 141 48H708Z" fill="#77B866"/>
<path d="M130.384 1126.02L138.322 1125.03L130.384 1126.02ZM718.616 1126.02L710.678 1125.03L718.616 1126.02ZM788.02 1056.62L789.008 1064.56L788.02 1056.62ZM718.616 57.9801L726.555 56.9922L718.616 57.9801ZM718.616 57.9801L710.678 58.9681C715.635 98.8063 747.194 130.365 787.032 135.322L788.02 127.384L789.008 119.445C756.44 115.392 730.608 89.5603 726.555 56.9922L718.616 57.9801ZM798 138H790V1046H798H806V138H798ZM788.02 1056.62L787.032 1048.68C747.194 1053.64 715.635 1085.19 710.678 1125.03L718.616 1126.02L726.555 1127.01C730.608 1094.44 756.44 1068.61 789.008 1064.56L788.02 1056.62ZM708 1136V1128H141V1136V1144H708V1136ZM130.384 1126.02L138.322 1125.03C133.365 1085.19 101.806 1053.64 61.9681 1048.68L60.9801 1056.62L59.9922 1064.56C92.5603 1068.61 118.392 1094.44 122.445 1127.01L130.384 1126.02ZM51 1046H59V138H51H43V1046H51ZM60.9801 127.384L61.9681 135.322C101.806 130.365 133.365 98.8063 138.322 58.9681L130.384 57.9801L122.445 56.9922C118.392 89.5603 92.5603 115.392 59.9922 119.445L60.9801 127.384ZM141 48V56H708V48V40H141V48ZM130.384 57.9801L138.322 58.9681C138.438 58.0389 138.872 57.2306 139.427 56.6958C139.954 56.1887 140.494 56 141 56V48V40C130.84 40 123.547 48.1329 122.445 56.9922L130.384 57.9801ZM51 138H59C59 137.494 59.1887 136.954 59.6958 136.427C60.2306 135.872 61.0389 135.438 61.9681 135.322L60.9801 127.384L59.9922 119.445C51.1329 120.547 43 127.84 43 138H51ZM60.9801 1056.62L61.9681 1048.68C61.0389 1048.56 60.2306 1048.13 59.6958 1047.57C59.1887 1047.05 59 1046.51 59 1046H51H43C43 1056.16 51.1329 1063.45 59.9922 1064.56L60.9801 1056.62ZM141 1136V1128C140.494 1128 139.954 1127.81 139.427 1127.3C138.872 1126.77 138.438 1125.96 138.322 1125.03L130.384 1126.02L122.445 1127.01C123.547 1135.87 130.84 1144 141 1144V1136ZM718.616 1126.02L710.678 1125.03C710.562 1125.96 710.128 1126.77 709.573 1127.3C709.046 1127.81 708.506 1128 708 1128V1136V1144C718.16 1144 725.453 1135.87 726.555 1127.01L718.616 1126.02ZM798 1046H790C790 1046.51 789.811 1047.05 789.304 1047.57C788.769 1048.13 787.961 1048.56 787.032 1048.68L788.02 1056.62L789.008 1064.56C797.867 1063.45 806 1056.16 806 1046H798ZM788.02 127.384L787.032 135.322C787.961 135.438 788.769 135.872 789.304 136.427C789.811 136.954 790 137.494 790 138H798H806C806 127.84 797.867 120.547 789.008 119.445L788.02 127.384ZM718.616 57.9801L726.555 56.9922C725.453 48.1329 718.16 40 708 40V48V56C708.506 56 709.046 56.1887 709.573 56.6958C710.128 57.2306 710.562 58.0389 710.678 58.9681L718.616 57.9801Z" fill="black" mask="url(#path-6-inside-1_1_126)"/>
<path d="M690 102C695.523 102 699.911 106.512 700.837 111.957C705.019 136.563 724.437 155.981 749.043 160.163C754.488 161.089 759 165.477 759 171V1014C759 1019.52 754.488 1023.91 749.043 1024.84C724.711 1028.97 705.454 1048 700.984 1072.22C699.993 1077.59 695.633 1082 690.175 1082H158.825C153.367 1082 149.007 1077.59 148.016 1072.22C143.546 1048 124.288 1028.97 99.9568 1024.84C94.5121 1023.91 90 1019.52 90 1014V171C90 165.477 94.512 161.089 99.9568 160.163C124.563 155.981 143.981 136.563 148.163 111.957C149.089 106.512 153.477 102 159 102H690Z" fill="#A3CC98"/>
<path d="M251.81 272.735C243.2 272.735 236.13 270.705 230.6 266.645C225.07 262.515 222.095 256.635 221.675 249.005H243.62C243.83 251.595 244.6 253.485 245.93 254.675C247.26 255.865 248.975 256.46 251.075 256.46C252.965 256.46 254.505 256.005 255.695 255.095C256.955 254.115 257.585 252.785 257.585 251.105C257.585 248.935 256.57 247.255 254.54 246.065C252.51 244.875 249.22 243.545 244.67 242.075C239.84 240.465 235.92 238.925 232.91 237.455C229.97 235.915 227.38 233.71 225.14 230.84C222.97 227.9 221.885 224.085 221.885 219.395C221.885 214.635 223.075 210.575 225.455 207.215C227.835 203.785 231.125 201.195 235.325 199.445C239.525 197.695 244.285 196.82 249.605 196.82C258.215 196.82 265.075 198.85 270.185 202.91C275.365 206.9 278.13 212.535 278.48 219.815H256.115C256.045 217.575 255.345 215.895 254.015 214.775C252.755 213.655 251.11 213.095 249.08 213.095C247.54 213.095 246.28 213.55 245.3 214.46C244.32 215.37 243.83 216.665 243.83 218.345C243.83 219.745 244.355 220.97 245.405 222.02C246.525 223 247.89 223.875 249.5 224.645C251.11 225.345 253.49 226.255 256.64 227.375C261.33 228.985 265.18 230.595 268.19 232.205C271.27 233.745 273.895 235.95 276.065 238.82C278.305 241.62 279.425 245.19 279.425 249.53C279.425 253.94 278.305 257.895 276.065 261.395C273.895 264.895 270.71 267.66 266.51 269.69C262.38 271.72 257.48 272.735 251.81 272.735ZM349.262 213.095V272H328.577V263.6C326.827 266.26 324.412 268.43 321.332 270.11C318.252 271.72 314.717 272.525 310.727 272.525C303.867 272.525 298.442 270.285 294.452 265.805C290.532 261.255 288.572 255.095 288.572 247.325V213.095H309.047V244.7C309.047 248.06 309.922 250.72 311.672 252.68C313.492 254.57 315.872 255.515 318.812 255.515C321.822 255.515 324.202 254.57 325.952 252.68C327.702 250.72 328.577 248.06 328.577 244.7V213.095H349.262ZM399.51 212.57C406.3 212.57 411.69 214.845 415.68 219.395C419.67 223.875 421.665 229.965 421.665 237.665V272H401.085V240.395C401.085 237.035 400.21 234.41 398.46 232.52C396.71 230.56 394.365 229.58 391.425 229.58C388.345 229.58 385.93 230.56 384.18 232.52C382.43 234.41 381.555 237.035 381.555 240.395V272H360.975V213.095H381.555V221.495C383.375 218.835 385.825 216.7 388.905 215.09C391.985 213.41 395.52 212.57 399.51 212.57ZM453.537 223.49C455.847 220.13 458.647 217.47 461.937 215.51C465.227 213.55 468.762 212.57 472.542 212.57V234.515H466.767C462.287 234.515 458.962 235.39 456.792 237.14C454.622 238.89 453.537 241.935 453.537 246.275V272H432.957V213.095H453.537V223.49ZM490.315 207.635C486.675 207.635 483.735 206.655 481.495 204.695C479.325 202.665 478.24 200.145 478.24 197.135C478.24 194.055 479.325 191.5 481.495 189.47C483.735 187.44 486.675 186.425 490.315 186.425C493.885 186.425 496.755 187.44 498.925 189.47C501.165 191.5 502.285 194.055 502.285 197.135C502.285 200.145 501.165 202.665 498.925 204.695C496.755 206.655 493.885 207.635 490.315 207.635ZM500.5 213.095V272H479.92V213.095H500.5ZM537.315 272.735C531.995 272.735 527.235 271.86 523.035 270.11C518.905 268.29 515.615 265.84 513.165 262.76C510.785 259.61 509.455 256.075 509.175 252.155H529.125C529.405 254.045 530.28 255.515 531.75 256.565C533.22 257.615 535.04 258.14 537.21 258.14C538.89 258.14 540.22 257.79 541.2 257.09C542.18 256.39 542.67 255.48 542.67 254.36C542.67 252.89 541.865 251.805 540.255 251.105C538.645 250.405 535.985 249.635 532.275 248.795C528.075 247.955 524.575 247.01 521.775 245.96C518.975 244.91 516.525 243.195 514.425 240.815C512.395 238.435 511.38 235.215 511.38 231.155C511.38 227.655 512.325 224.505 514.215 221.705C516.105 218.835 518.87 216.56 522.51 214.88C526.22 213.2 530.665 212.36 535.845 212.36C543.545 212.36 549.6 214.25 554.01 218.03C558.42 221.81 560.975 226.78 561.675 232.94H543.09C542.74 231.05 541.9 229.615 540.57 228.635C539.31 227.585 537.595 227.06 535.425 227.06C533.745 227.06 532.45 227.375 531.54 228.005C530.7 228.635 530.28 229.51 530.28 230.63C530.28 232.03 531.085 233.115 532.695 233.885C534.305 234.585 536.895 235.32 540.465 236.09C544.735 237 548.27 238.015 551.07 239.135C553.94 240.255 556.425 242.075 558.525 244.595C560.695 247.045 561.78 250.405 561.78 254.675C561.78 258.105 560.765 261.185 558.735 263.915C556.775 266.645 553.94 268.815 550.23 270.425C546.59 271.965 542.285 272.735 537.315 272.735ZM628.178 241.865C628.178 243.475 628.073 245.085 627.863 246.695H588.908C589.118 249.915 589.993 252.33 591.533 253.94C593.143 255.48 595.173 256.25 597.623 256.25C601.053 256.25 603.503 254.71 604.973 251.63H626.918C626.008 255.69 624.223 259.33 621.563 262.55C618.973 265.7 615.683 268.185 611.693 270.005C607.703 271.825 603.293 272.735 598.463 272.735C592.653 272.735 587.473 271.51 582.923 269.06C578.443 266.61 574.908 263.11 572.318 258.56C569.798 254.01 568.538 248.655 568.538 242.495C568.538 236.335 569.798 231.015 572.318 226.535C574.838 221.985 578.338 218.485 582.818 216.035C587.368 213.585 592.583 212.36 598.463 212.36C604.273 212.36 609.418 213.55 613.898 215.93C618.378 218.31 621.878 221.74 624.398 226.22C626.918 230.63 628.178 235.845 628.178 241.865ZM607.178 236.72C607.178 234.2 606.338 232.24 604.658 230.84C602.978 229.37 600.878 228.635 598.358 228.635C595.838 228.635 593.773 229.335 592.163 230.735C590.553 232.065 589.503 234.06 589.013 236.72H607.178Z" fill="black"/>
<mask id="path-10-outside-2_1_126" maskUnits="userSpaceOnUse" x="402" y="1006" width="46" height="32" fill="black">
<rect fill="white" x="402" y="1006" width="46" height="32"/>
<path d="M421.2 1011.76H407.8V1019.72C408.36 1018.97 409.187 1018.35 410.28 1017.84C411.4 1017.33 412.587 1017.08 413.84 1017.08C416.08 1017.08 417.893 1017.56 419.28 1018.52C420.693 1019.48 421.693 1020.69 422.28 1022.16C422.893 1023.63 423.2 1025.17 423.2 1026.8C423.2 1028.77 422.813 1030.53 422.04 1032.08C421.293 1033.6 420.16 1034.8 418.64 1035.68C417.147 1036.56 415.307 1037 413.12 1037C410.213 1037 407.88 1036.28 406.12 1034.84C404.36 1033.4 403.307 1031.49 402.96 1029.12H407.4C407.693 1030.37 408.347 1031.37 409.36 1032.12C410.373 1032.84 411.64 1033.2 413.16 1033.2C415.053 1033.2 416.467 1032.63 417.4 1031.48C418.36 1030.33 418.84 1028.81 418.84 1026.92C418.84 1025 418.36 1023.53 417.4 1022.52C416.44 1021.48 415.027 1020.96 413.16 1020.96C411.853 1020.96 410.747 1021.29 409.84 1021.96C408.96 1022.6 408.32 1023.48 407.92 1024.6H403.6V1007.76H421.2V1011.76ZM430.467 1030.8C433.027 1028.59 435.04 1026.77 436.507 1025.36C438 1023.92 439.24 1022.43 440.227 1020.88C441.214 1019.33 441.707 1017.79 441.707 1016.24C441.707 1014.64 441.32 1013.39 440.547 1012.48C439.8 1011.57 438.614 1011.12 436.987 1011.12C435.414 1011.12 434.187 1011.63 433.307 1012.64C432.454 1013.63 432 1014.96 431.947 1016.64H427.547C427.627 1013.6 428.534 1011.28 430.267 1009.68C432.027 1008.05 434.254 1007.24 436.947 1007.24C439.854 1007.24 442.12 1008.04 443.747 1009.64C445.4 1011.24 446.227 1013.37 446.227 1016.04C446.227 1017.96 445.734 1019.81 444.747 1021.6C443.787 1023.36 442.627 1024.95 441.267 1026.36C439.934 1027.75 438.227 1029.36 436.147 1031.2L434.347 1032.8H447.027V1036.6H427.587V1033.28L430.467 1030.8Z"/>
</mask>
<path d="M421.2 1011.76H407.8V1019.72C408.36 1018.97 409.187 1018.35 410.28 1017.84C411.4 1017.33 412.587 1017.08 413.84 1017.08C416.08 1017.08 417.893 1017.56 419.28 1018.52C420.693 1019.48 421.693 1020.69 422.28 1022.16C422.893 1023.63 423.2 1025.17 423.2 1026.8C423.2 1028.77 422.813 1030.53 422.04 1032.08C421.293 1033.6 420.16 1034.8 418.64 1035.68C417.147 1036.56 415.307 1037 413.12 1037C410.213 1037 407.88 1036.28 406.12 1034.84C404.36 1033.4 403.307 1031.49 402.96 1029.12H407.4C407.693 1030.37 408.347 1031.37 409.36 1032.12C410.373 1032.84 411.64 1033.2 413.16 1033.2C415.053 1033.2 416.467 1032.63 417.4 1031.48C418.36 1030.33 418.84 1028.81 418.84 1026.92C418.84 1025 418.36 1023.53 417.4 1022.52C416.44 1021.48 415.027 1020.96 413.16 1020.96C411.853 1020.96 410.747 1021.29 409.84 1021.96C408.96 1022.6 408.32 1023.48 407.92 1024.6H403.6V1007.76H421.2V1011.76ZM430.467 1030.8C433.027 1028.59 435.04 1026.77 436.507 1025.36C438 1023.92 439.24 1022.43 440.227 1020.88C441.214 1019.33 441.707 1017.79 441.707 1016.24C441.707 1014.64 441.32 1013.39 440.547 1012.48C439.8 1011.57 438.614 1011.12 436.987 1011.12C435.414 1011.12 434.187 1011.63 433.307 1012.64C432.454 1013.63 432 1014.96 431.947 1016.64H427.547C427.627 1013.6 428.534 1011.28 430.267 1009.68C432.027 1008.05 434.254 1007.24 436.947 1007.24C439.854 1007.24 442.12 1008.04 443.747 1009.64C445.4 1011.24 446.227 1013.37 446.227 1016.04C446.227 1017.96 445.734 1019.81 444.747 1021.6C443.787 1023.36 442.627 1024.95 441.267 1026.36C439.934 1027.75 438.227 1029.36 436.147 1031.2L434.347 1032.8H447.027V1036.6H427.587V1033.28L430.467 1030.8Z" fill="black"/>
<path d="M421.2 1011.76V1012.06H421.5V1011.76H421.2ZM407.8 1011.76V1011.46H407.5V1011.76H407.8ZM407.8 1019.72H407.5V1020.62L408.04 1019.9L407.8 1019.72ZM410.28 1017.84L410.156 1017.57L410.154 1017.57L410.28 1017.84ZM419.28 1018.52L419.109 1018.77L419.111 1018.77L419.28 1018.52ZM422.28 1022.16L422.001 1022.27L422.003 1022.28L422.28 1022.16ZM422.04 1032.08L421.772 1031.95L421.771 1031.95L422.04 1032.08ZM418.64 1035.68L418.49 1035.42L418.488 1035.42L418.64 1035.68ZM406.12 1034.84L406.31 1034.61L406.12 1034.84ZM402.96 1029.12V1028.82H402.613L402.663 1029.16L402.96 1029.12ZM407.4 1029.12L407.692 1029.05L407.638 1028.82H407.4V1029.12ZM409.36 1032.12L409.182 1032.36L409.186 1032.36L409.36 1032.12ZM417.4 1031.48L417.17 1031.29L417.167 1031.29L417.4 1031.48ZM417.4 1022.52L417.18 1022.72L417.182 1022.73L417.4 1022.52ZM409.84 1021.96L410.016 1022.2L410.018 1022.2L409.84 1021.96ZM407.92 1024.6V1024.9H408.131L408.203 1024.7L407.92 1024.6ZM403.6 1024.6H403.3V1024.9H403.6V1024.6ZM403.6 1007.76V1007.46H403.3V1007.76H403.6ZM421.2 1007.76H421.5V1007.46H421.2V1007.76ZM421.2 1011.76V1011.46H407.8V1011.76V1012.06H421.2V1011.76ZM407.8 1011.76H407.5V1019.72H407.8H408.1V1011.76H407.8ZM407.8 1019.72L408.04 1019.9C408.563 1019.2 409.345 1018.6 410.406 1018.11L410.28 1017.84L410.154 1017.57C409.028 1018.09 408.157 1018.74 407.56 1019.54L407.8 1019.72ZM410.28 1017.84L410.404 1018.11C411.484 1017.62 412.628 1017.38 413.84 1017.38V1017.08V1016.78C412.545 1016.78 411.316 1017.04 410.156 1017.57L410.28 1017.84ZM413.84 1017.08V1017.38C416.039 1017.38 417.787 1017.85 419.109 1018.77L419.28 1018.52L419.451 1018.27C418 1017.27 416.121 1016.78 413.84 1016.78V1017.08ZM419.28 1018.52L419.111 1018.77C420.48 1019.7 421.439 1020.86 422.001 1022.27L422.28 1022.16L422.559 1022.05C421.948 1020.52 420.907 1019.26 419.449 1018.27L419.28 1018.52ZM422.28 1022.16L422.003 1022.28C422.601 1023.7 422.9 1025.21 422.9 1026.8H423.2H423.5C423.5 1025.13 423.186 1023.55 422.557 1022.04L422.28 1022.16ZM423.2 1026.8H422.9C422.9 1028.73 422.521 1030.45 421.772 1031.95L422.04 1032.08L422.308 1032.21C423.105 1030.62 423.5 1028.81 423.5 1026.8H423.2ZM422.04 1032.08L421.771 1031.95C421.051 1033.41 419.96 1034.57 418.49 1035.42L418.64 1035.68L418.79 1035.94C420.36 1035.03 421.535 1033.79 422.309 1032.21L422.04 1032.08ZM418.64 1035.68L418.488 1035.42C417.051 1036.27 415.267 1036.7 413.12 1036.7V1037V1037.3C415.346 1037.3 417.242 1036.85 418.792 1035.94L418.64 1035.68ZM413.12 1037V1036.7C410.263 1036.7 408.003 1035.99 406.31 1034.61L406.12 1034.84L405.93 1035.07C407.757 1036.57 410.164 1037.3 413.12 1037.3V1037ZM406.12 1034.84L406.31 1034.61C404.611 1033.22 403.593 1031.38 403.257 1029.08L402.96 1029.12L402.663 1029.16C403.02 1031.61 404.109 1033.58 405.93 1035.07L406.12 1034.84ZM402.96 1029.12V1029.42H407.4V1029.12V1028.82H402.96V1029.12ZM407.4 1029.12L407.108 1029.19C407.417 1030.51 408.11 1031.57 409.182 1032.36L409.36 1032.12L409.538 1031.88C408.583 1031.18 407.97 1030.24 407.692 1029.05L407.4 1029.12ZM409.36 1032.12L409.186 1032.36C410.261 1033.13 411.592 1033.5 413.16 1033.5V1033.2V1032.9C411.688 1032.9 410.486 1032.55 409.534 1031.88L409.36 1032.12ZM413.16 1033.2V1033.5C415.116 1033.5 416.627 1032.9 417.633 1031.67L417.4 1031.48L417.167 1031.29C416.306 1032.35 414.991 1032.9 413.16 1032.9V1033.2ZM417.4 1031.48L417.63 1031.67C418.646 1030.46 419.14 1028.86 419.14 1026.92H418.84H418.54C418.54 1028.76 418.074 1030.21 417.17 1031.29L417.4 1031.48ZM418.84 1026.92H419.14C419.14 1024.95 418.648 1023.4 417.618 1022.31L417.4 1022.52L417.182 1022.73C418.072 1023.67 418.54 1025.05 418.54 1026.92H418.84ZM417.4 1022.52L417.62 1022.32C416.587 1021.2 415.082 1020.66 413.16 1020.66V1020.96V1021.26C414.971 1021.26 416.293 1021.76 417.18 1022.72L417.4 1022.52ZM413.16 1020.96V1020.66C411.8 1020.66 410.628 1021.01 409.662 1021.72L409.84 1021.96L410.018 1022.2C410.865 1021.58 411.907 1021.26 413.16 1021.26V1020.96ZM409.84 1021.96L409.664 1021.72C408.73 1022.4 408.056 1023.33 407.637 1024.5L407.92 1024.6L408.203 1024.7C408.584 1023.63 409.19 1022.8 410.016 1022.2L409.84 1021.96ZM407.92 1024.6V1024.3H403.6V1024.6V1024.9H407.92V1024.6ZM403.6 1024.6H403.9V1007.76H403.6H403.3V1024.6H403.6ZM403.6 1007.76V1008.06H421.2V1007.76V1007.46H403.6V1007.76ZM421.2 1007.76H420.9V1011.76H421.2H421.5V1007.76H421.2ZM430.467 1030.8L430.663 1031.03L430.663 1031.03L430.467 1030.8ZM436.507 1025.36L436.715 1025.58L436.715 1025.58L436.507 1025.36ZM440.547 1012.48L440.315 1012.67L440.319 1012.67L440.547 1012.48ZM433.307 1012.64L433.08 1012.44L433.08 1012.44L433.307 1012.64ZM431.947 1016.64V1016.94H432.238L432.247 1016.65L431.947 1016.64ZM427.547 1016.64L427.247 1016.63L427.239 1016.94H427.547V1016.64ZM430.267 1009.68L430.47 1009.9L430.47 1009.9L430.267 1009.68ZM443.747 1009.64L443.536 1009.85L443.538 1009.86L443.747 1009.64ZM444.747 1021.6L444.484 1021.45L444.484 1021.46L444.747 1021.6ZM441.267 1026.36L441.051 1026.15L441.051 1026.15L441.267 1026.36ZM436.147 1031.2L435.948 1030.98L435.948 1030.98L436.147 1031.2ZM434.347 1032.8L434.148 1032.58L433.558 1033.1H434.347V1032.8ZM447.027 1032.8H447.327V1032.5H447.027V1032.8ZM447.027 1036.6V1036.9H447.327V1036.6H447.027ZM427.587 1036.6H427.287V1036.9H427.587V1036.6ZM427.587 1033.28L427.391 1033.05L427.287 1033.14V1033.28H427.587ZM430.467 1030.8L430.663 1031.03C433.225 1028.81 435.243 1026.99 436.715 1025.58L436.507 1025.36L436.299 1025.14C434.838 1026.55 432.829 1028.36 430.271 1030.57L430.467 1030.8ZM436.507 1025.36L436.715 1025.58C438.223 1024.12 439.479 1022.61 440.48 1021.04L440.227 1020.88L439.974 1020.72C439.002 1022.24 437.777 1023.72 436.299 1025.14L436.507 1025.36ZM440.227 1020.88L440.48 1021.04C441.491 1019.46 442.007 1017.85 442.007 1016.24H441.707H441.407C441.407 1017.72 440.936 1019.21 439.974 1020.72L440.227 1020.88ZM441.707 1016.24H442.007C442.007 1014.59 441.609 1013.26 440.775 1012.29L440.547 1012.48L440.319 1012.67C441.032 1013.51 441.407 1014.69 441.407 1016.24H441.707ZM440.547 1012.48L440.778 1012.29C439.955 1011.29 438.667 1010.82 436.987 1010.82V1011.12V1011.42C438.56 1011.42 439.645 1011.86 440.315 1012.67L440.547 1012.48ZM436.987 1011.12V1010.82C435.343 1010.82 434.027 1011.35 433.08 1012.44L433.307 1012.64L433.533 1012.84C434.346 1011.9 435.484 1011.42 436.987 1011.42V1011.12ZM433.307 1012.64L433.08 1012.44C432.17 1013.5 431.702 1014.9 431.647 1016.63L431.947 1016.64L432.247 1016.65C432.299 1015.02 432.737 1013.76 433.534 1012.84L433.307 1012.64ZM431.947 1016.64V1016.34H427.547V1016.64V1016.94H431.947V1016.64ZM427.547 1016.64L427.847 1016.65C427.925 1013.66 428.812 1011.43 430.47 1009.9L430.267 1009.68L430.063 1009.46C428.255 1011.13 427.328 1013.54 427.247 1016.63L427.547 1016.64ZM430.267 1009.68L430.47 1009.9C432.168 1008.33 434.319 1007.54 436.947 1007.54V1007.24V1006.94C434.188 1006.94 431.886 1007.78 430.063 1009.46L430.267 1009.68ZM436.947 1007.24V1007.54C439.797 1007.54 441.98 1008.32 443.537 1009.85L443.747 1009.64L443.957 1009.43C442.26 1007.76 439.91 1006.94 436.947 1006.94V1007.24ZM443.747 1009.64L443.538 1009.86C445.124 1011.39 445.927 1013.44 445.927 1016.04H446.227H446.527C446.527 1013.31 445.677 1011.09 443.956 1009.42L443.747 1009.64ZM446.227 1016.04H445.927C445.927 1017.91 445.448 1019.71 444.484 1021.45L444.747 1021.6L445.009 1021.75C446.019 1019.92 446.527 1018.01 446.527 1016.04H446.227ZM444.747 1021.6L444.484 1021.46C443.536 1023.19 442.392 1024.76 441.051 1026.15L441.267 1026.36L441.483 1026.57C442.862 1025.14 444.038 1023.53 445.01 1021.74L444.747 1021.6ZM441.267 1026.36L441.051 1026.15C439.725 1027.53 438.024 1029.14 435.948 1030.98L436.147 1031.2L436.346 1031.42C438.429 1029.58 440.142 1027.96 441.483 1026.57L441.267 1026.36ZM436.147 1031.2L435.948 1030.98L434.148 1032.58L434.347 1032.8L434.546 1033.02L436.346 1031.42L436.147 1031.2ZM434.347 1032.8V1033.1H447.027V1032.8V1032.5H434.347V1032.8ZM447.027 1032.8H446.727V1036.6H447.027H447.327V1032.8H447.027ZM447.027 1036.6V1036.3H427.587V1036.6V1036.9H447.027V1036.6ZM427.587 1036.6H427.887V1033.28H427.587H427.287V1036.6H427.587ZM427.587 1033.28L427.783 1033.51L430.663 1031.03L430.467 1030.8L430.271 1030.57L427.391 1033.05L427.587 1033.28Z" fill="black" mask="url(#path-10-outside-2_1_126)"/>
<path d="M583.833 346.177C588.119 345.943 592.561 346.206 596.866 346.186C609.777 346.124 620.766 346.183 632.096 353.197C642.104 359.327 649.234 369.219 651.879 380.651C653.823 389.113 653.242 398.201 653.238 406.833L653.233 437.118L653.229 550.969L653.224 779.989L653.22 854.442C653.224 868.011 653.71 881.796 653.031 895.342C652.635 903.291 651.137 910.211 646.854 917.022C640.611 926.947 630.119 934.104 618.694 936.615C608.927 938.761 594.512 937.776 584.139 937.766L532.181 937.758L323.777 937.762L284.968 937.784C278.663 937.784 271.947 938.243 265.686 937.717C265.118 937.668 264.668 937.483 264.194 937.182C263.163 937.82 262.09 937.775 260.918 937.811C257.668 937.906 254.413 937.735 251.161 937.762C234.774 937.906 220.961 936.718 208.489 924.855C199.715 916.509 195.419 905.64 195.139 893.61C194.851 881.251 195.136 868.825 195.137 856.462L195.127 783.201L195.126 559.753L195.125 441.828L195.107 406.254C195.104 399.511 194.702 392.473 195.477 385.776C196.628 376.129 200.872 367.113 207.572 360.077C214.181 353.213 223.482 348.341 232.911 346.889C242.627 345.393 256.305 346.237 266.456 346.236L330.966 346.258L501.426 346.242C528.878 346.228 556.389 346.672 583.833 346.177Z" fill="black"/>
<path d="M242.84 359.301C248.233 359.2 253.627 359.14 259.022 359.122L501.019 359.102L574.304 359.13C587.15 359.146 600.728 358.128 613.457 359.901C619.957 360.806 626.453 364.511 631.038 369.13C635.906 374.034 639.51 381.511 640.419 388.4C641.036 393.084 640.761 398.005 640.759 402.731L640.808 424.276L640.775 504.375L640.754 764.212C637.296 760.167 633.682 756.256 629.922 752.489C605.75 728.459 576.031 713.876 541.604 714.016C541.602 699.041 539.187 685.126 534.152 671.01C529.149 658.469 522.829 647.073 514.163 636.663C494.505 613.05 464.328 596.91 433.688 594.175C402.349 591.377 372.081 600.163 347.883 620.429C323.972 640.455 307.409 669.115 304.639 700.394C301.779 700.515 298.928 700.787 296.098 701.208C259.516 706.661 229.044 728.495 207.321 757.745L207.304 501.02L207.287 425.324L207.277 402.54C207.276 397.705 207.02 392.708 207.601 387.906C208.431 381.07 211.452 374.686 216.212 369.71C223.462 362.027 232.628 359.63 242.84 359.301Z" fill="#5DDBEB"/>
<path d="M285.024 432.491C291.542 431.517 298.773 432.722 304.73 435.4C314.848 439.948 320.824 448.445 324.638 458.513C328.162 457.491 332.057 457.073 335.722 457.019C343.673 456.903 351.468 458.959 357.251 464.668C362.884 470.313 366.075 477.945 366.135 485.919C366.135 493.98 362.946 501.714 357.263 507.433C347.737 516.987 335.922 517.34 323.393 517.35L306.342 517.339L274.965 517.427C266.137 517.442 256.71 518.083 248.047 516.19C242.593 514.998 237.26 512.572 233.019 508.906C227.629 504.174 224.339 497.495 223.873 490.339C223.477 483.636 225.637 476.851 230.17 471.848C235.97 465.448 242.692 464.002 250.92 463.594C251.865 458.102 254.336 452.56 257.671 448.122C264.402 439.164 274.045 434.072 285.024 432.491Z" fill="black"/>
<path d="M239.729 478.228C242.305 476.534 244.397 475.664 247.5 475.41C251.555 475.078 260.125 477.988 261.323 472.529C261.824 470.245 261.788 467.859 262.184 465.556C263.4 458.477 267.655 452.34 273.613 448.404C279.735 444.358 287.425 442.545 294.652 444.127C301.415 445.598 307.293 449.75 310.94 455.631C311.977 457.27 312.944 459.006 313.524 460.864C314.686 464.587 314.688 470.833 319.387 471.902C322.051 472.508 326.437 469.588 329.062 468.725C336.933 466.138 345.895 466.887 350.935 474.146C352.602 476.547 353.982 480.001 354.149 482.947C354.465 484.065 354.546 485.35 354.541 486.51C354.518 491.692 352.243 496.716 348.552 500.326C345.372 503.438 341.223 505.422 336.866 506.242C329.971 507.541 319.623 506.805 312.384 506.803C296.192 506.818 280.001 506.735 263.81 506.555C255.148 506.416 246.123 506.176 239.683 499.395C236.588 496.136 235.199 491.676 235.357 487.225C235.49 483.486 237.029 480.734 239.729 478.228Z" fill="#FCF2E3"/>
<path d="M239.729 478.229C239.277 483.94 239.583 489.44 243.469 494.019C247.372 498.618 253.412 500.366 259.254 500.798C271.088 501.673 283.327 501.271 295.205 501.333C303.022 501.38 310.84 501.349 318.657 501.24C324.826 501.173 331.368 501.43 337.419 500.134C341.274 499.308 344.824 497.265 347.77 494.677C350.329 492.428 353.897 488.261 354.182 484.699C354.228 484.124 354.183 483.523 354.149 482.949C354.465 484.066 354.546 485.352 354.541 486.512C354.518 491.694 352.243 496.718 348.552 500.328C345.372 503.44 341.223 505.424 336.866 506.244C329.971 507.543 319.623 506.807 312.384 506.805C296.192 506.82 280.001 506.737 263.81 506.557C255.148 506.417 246.123 506.178 239.683 499.397C236.588 496.138 235.199 491.678 235.357 487.226C235.49 483.487 237.029 480.736 239.729 478.229Z" fill="#DDC2A6"/>
<path d="M550.043 504.032C557.971 503.092 565.983 504.865 572.774 509.06C580.911 514.133 585.595 521.643 587.687 530.847C593.864 531.283 599.215 533.167 603.754 537.506C608.023 541.586 610.599 547.005 610.638 552.944C610.674 558.512 608.739 563.983 604.796 567.974C602.224 570.545 599.025 572.401 595.516 573.359C589.062 575.129 581.707 574.54 575.08 574.548L555.541 574.646C544.964 574.626 534.304 574.872 523.743 574.298C515.067 573.825 506.709 572.607 500.628 565.709C496.79 561.318 494.896 555.56 495.377 549.75C495.867 543.304 499.163 537.18 504.082 533.023C509.29 528.622 515.115 527.033 521.834 527.57C523.365 523.503 525.155 519.729 527.875 516.291C533.405 509.304 541.244 505.084 550.043 504.032Z" fill="black"/>
<path d="M509.335 543.236C511.923 540.647 514.666 538.625 518.477 538.579C521.349 538.544 527.449 541.789 529.516 539.609C531.336 537.689 531.358 533.551 532.139 531.029C534.803 522.421 543.188 515.557 552.17 514.888C558.385 514.426 565.114 516.32 569.836 520.464C573.58 523.751 576.47 528.745 576.748 533.787C576.89 536.348 575.957 541.414 577.908 543.382C578.736 544.218 580.256 544.528 581.389 544.446C583.341 544.304 584.231 542.654 585.879 541.933C588.633 540.729 593.039 542.476 595.215 544.185C597.667 546.109 598.886 548.361 599.588 551.349C599.51 554.016 599.051 556.318 597.546 558.571C596 560.884 593.157 563.086 590.39 563.619C584.199 564.811 569.006 563.82 561.954 563.763C548.794 563.654 531.987 564.501 519.24 563.018C516.304 562.677 513.541 562.159 511.068 560.448C508.617 558.752 507.03 556.118 506.548 553.189C505.924 549.403 507.153 546.267 509.335 543.236Z" fill="#FCF2E3"/>
<path d="M509.335 543.229C509.387 547.278 509.782 551.477 512.842 554.49C514.821 556.44 517.4 557.124 520.064 557.626C528.483 559.21 537.646 558.897 546.216 559.053C558.221 559.271 570.289 559.523 582.292 559.295C590.056 559.148 594.226 556.848 599.588 551.342C599.51 554.01 599.051 556.311 597.546 558.564C596 560.878 593.157 563.08 590.39 563.613C584.199 564.804 569.006 563.814 561.954 563.757C548.794 563.648 531.987 564.494 519.24 563.012C516.304 562.671 513.541 562.153 511.068 560.442C508.617 558.746 507.03 556.112 506.548 553.182C505.924 549.397 507.153 546.26 509.335 543.229Z" fill="#DDC2A6"/>
<path d="M421.756 471.52C422.651 471.527 423.617 471.688 424.462 471.997C425.977 472.55 427.102 473.696 427.742 475.159C428.332 476.508 428.267 478.237 428.317 479.697C428.855 495.425 428.375 511.334 428.373 527.079C428.371 541.936 428.879 556.994 428.329 571.832C428.292 572.846 428.144 573.852 427.72 574.784C426.812 576.777 425.097 577.509 423.162 578.164C422.18 578.131 421.176 577.973 420.261 577.601C418.827 577.017 417.65 575.727 417.137 574.272C416.153 571.478 416.419 487.694 416.679 479.311C416.724 477.871 416.669 475.987 417.392 474.698C418.367 472.961 419.947 472.119 421.756 471.52Z" fill="black"/>
<path d="M293.493 539.713C294.581 539.708 295.798 539.834 296.818 540.246C297.69 540.598 298.413 541.169 299.038 541.863C301.866 545 304.362 548.54 306.948 551.884L320.928 569.981L333.74 586.611C336.277 589.916 339.682 593.58 341.386 597.382C341.978 598.702 341.963 600.482 341.383 601.802C340.557 603.684 339.147 604.533 337.342 605.248C336.068 605.16 334.836 605.116 333.661 604.555C332.564 604.03 331.781 603.274 330.988 602.378C324.937 595.542 319.566 587.619 313.985 580.366C306.529 570.675 298.621 561.128 291.565 551.152C290.588 549.771 289.224 547.961 288.781 546.307C288.458 545.102 288.82 543.595 289.446 542.549C290.41 540.938 291.762 540.209 293.493 539.713Z" fill="black"/>
<path d="M576.618 598.446C577.647 598.42 578.608 598.414 579.592 598.772C581.228 599.369 582.791 600.596 583.45 602.237C584.011 603.632 583.844 605.102 583.218 606.442C582.689 607.573 582.003 608.309 581.081 609.121C575.137 614.353 568.289 618.947 561.978 623.747C557.247 627.346 542.707 639.382 538.029 641.236C536.758 641.417 535.306 641.432 534.088 640.958C532.73 640.43 531.431 639.212 530.895 637.847C530.315 636.367 530.541 634.718 531.178 633.298C531.654 632.24 532.444 631.446 533.302 630.69C538.838 625.811 545.285 621.507 551.176 617.033C556.165 613.244 571.9 600.242 576.618 598.446Z" fill="black"/>
<path d="M262.041 601.126C262.604 601.184 263.168 601.272 263.713 601.428C267.68 602.563 303.925 626.041 308.435 629.443C309.665 630.371 310.792 631.285 311.517 632.67C312.228 634.027 312.471 635.59 311.951 637.055C311.232 639.077 310.031 639.833 308.204 640.687C306.348 640.642 304.884 640.576 303.207 639.706C296.686 636.321 288.719 630.439 282.296 626.288L268.316 617.243C265.586 615.474 262.605 613.772 260.125 611.656C259.113 610.792 258.247 609.449 257.876 608.164C257.433 606.628 257.487 605.03 258.311 603.626C259.2 602.109 260.449 601.585 262.041 601.126Z" fill="black"/>
<path d="M246.841 653.455C248.023 653.328 249.16 653.326 250.332 653.532C257.119 654.726 263.883 656.861 270.586 658.493C276.843 660.018 285.477 661.404 291.213 663.817C292.484 664.351 293.659 665.359 294.408 666.527C295.149 667.684 295.364 669.024 295.042 670.357C294.512 672.552 293.01 673.507 291.185 674.537C286.246 675.342 260.313 668.126 253.209 666.379C249.988 665.586 245.305 664.689 243.575 661.554C242.86 660.26 242.81 658.832 243.208 657.427C243.804 655.322 245.049 654.458 246.841 653.455Z" fill="black"/>
<path d="M360.939 539.036C362.034 538.981 363.184 539.052 364.209 539.463C365.919 540.147 366.743 541.42 367.43 543.035C370.397 550.005 372.423 557.742 374.635 565C375.979 569.412 377.743 574.032 378.542 578.566C378.811 580.089 379.114 581.72 378.484 583.192C377.743 584.925 376.271 585.65 374.621 586.281C373.532 586.296 372.461 586.304 371.409 585.974C369.877 585.495 368.98 584.465 368.302 583.064C366.255 578.837 357.434 550.183 356.686 545.371C356.529 544.358 356.674 543.321 357.052 542.368C357.779 540.536 359.239 539.758 360.939 539.036Z" fill="black"/>
<path d="M472.554 542.073C473.558 542.004 474.774 541.922 475.754 542.181C477.249 542.577 478.503 543.326 479.252 544.714C479.958 546.021 479.758 547.422 479.566 548.829C479.023 552.807 477.651 556.812 476.629 560.7C475.083 566.584 473.662 572.547 471.909 578.372C471.017 581.336 470.371 582.72 467.561 584.233C466.845 584.266 466.114 584.298 465.405 584.18C463.705 583.894 462.142 583.006 461.226 581.517C459.754 579.122 460.613 576.068 461.25 573.512C462.583 568.175 467.217 548.618 469.369 544.777C470.09 543.49 471.33 542.802 472.554 542.073Z" fill="black"/>
<path d="M583.495 657.53C585.33 657.326 587.136 657.222 588.817 658.158C590.296 658.982 591.749 660.553 592.158 662.218C592.419 663.283 592.117 664.329 591.531 665.231C590.433 666.923 588.591 668 586.748 668.702C583.623 669.892 579.855 670.257 576.556 670.881L558.971 674.23C557.099 674.555 554.807 675.126 553.009 674.244C551.506 673.506 549.673 671.751 549.18 670.139C548.848 669.049 549.135 668.047 549.734 667.107C550.782 665.461 552.616 664.274 554.392 663.547C557.703 662.192 561.714 661.819 565.236 661.141L583.495 657.53Z" fill="black"/>
<path d="M515.732 587.65C517.177 587.554 518.499 587.581 519.881 588.049C521.116 588.468 522.232 589.117 522.782 590.352C523.465 591.888 523.187 593.789 522.558 595.3C520.916 599.249 512.41 607.615 508.445 609.281C507.438 609.45 506.385 609.452 505.391 609.194C503.945 608.82 502.444 607.89 501.711 606.548C501.043 605.326 501.126 603.915 501.512 602.62C502.635 598.861 512.171 589.463 515.732 587.65Z" fill="black"/>
<path d="M219.748 760.918C239.461 736.675 268.38 716.29 300.129 713.048C329.607 710.036 356.241 722.059 378.632 740.364C393.411 752.446 406.277 766.88 420.154 779.965C445.864 804.167 474.471 825.091 505.323 842.264C509.678 844.644 523.975 852.562 527.851 853.232C532.069 855.684 545.883 862.153 550.155 861.069C551.61 860.7 552.942 859.841 553.65 858.487C554.451 856.957 554.766 854.937 554.189 853.3C553.178 850.434 550.075 849.017 547.488 847.896C541.108 845.13 534.6 842.781 528.306 839.785C495.988 824.219 465.991 804.235 439.176 780.41C465.666 753.119 501.646 727.184 541.102 726.566C571.711 726.086 598.864 739.196 620.564 760.316C625.703 765.318 637.925 777.858 640.169 784.168C640.867 786.13 640.706 788.767 640.729 790.85C640.886 805.233 640.739 819.634 640.73 834.017C640.726 839.974 641.289 849.79 640.648 855.36C640.921 859.85 640.74 864.461 640.743 868.965L640.717 891.288C640.615 900.894 637.901 910.269 630.804 917.112C626.153 921.598 620.293 924.567 613.847 925.273C608.932 925.809 603.631 925.462 598.678 925.471L570.206 925.521L476.683 925.575L334.733 925.629L273.522 925.642C263.064 925.633 252.558 925.876 242.107 925.647C232.801 925.444 222.708 921.35 216.264 914.557C212.383 910.467 209.289 905.177 207.987 899.661C206.493 893.34 207.288 882.83 207.29 876.118C207.294 864.191 207.12 852.238 207.377 840.316C207.193 834.35 206.66 781.509 207.656 778.359C209.296 773.172 215.935 764.974 219.748 760.918Z" fill="#169E2D"/>
<path d="M207.378 840.317C209.333 842.837 211.058 845.518 213.034 848.02C217.767 854.008 223.318 859.681 229.17 864.584C252.358 884.002 291.675 893.827 321.26 897.539C330.082 898.641 338.983 899.294 347.842 900.049C374.019 902.281 400.273 903.487 426.545 903.667C432.632 903.707 438.74 903.433 444.834 903.406C483.404 903.244 525.961 902.596 563.562 893.863C587.884 888.217 612.213 878.959 632.021 863.518C635.109 861.111 637.744 858.007 640.649 855.362C640.922 859.852 640.741 864.463 640.744 868.966L640.719 891.29C640.616 900.895 637.902 910.271 630.805 917.114C626.154 921.599 620.294 924.569 613.848 925.275C608.933 925.81 603.632 925.464 598.679 925.473L570.207 925.522L476.684 925.576L334.735 925.63L273.523 925.644C263.065 925.635 252.559 925.878 242.108 925.648C232.802 925.446 222.709 921.352 216.265 914.558C212.384 910.469 209.29 905.178 207.988 899.663C206.494 893.342 207.289 882.832 207.291 876.12C207.295 864.193 207.121 852.24 207.378 840.317Z" fill="#017D38"/>
<path d="M219.75 760.918C239.463 736.675 268.382 716.29 300.131 713.048C329.609 710.036 356.243 722.059 378.634 740.364C393.413 752.446 406.279 766.88 420.156 779.965C445.866 804.167 474.473 825.092 505.325 842.264C509.68 844.644 523.977 852.562 527.853 853.232L527.609 853.912C523.988 851.968 519.982 850.551 516.283 848.715C512.965 847.073 509.673 844.855 506.265 843.47C504.858 842.894 502.066 842.637 500.665 843.299C499.58 843.812 498.184 843.573 497.23 844.212L498.081 843.938L498.148 844.693C500.448 845.35 502.474 846.709 504.676 847.631C510.726 850.164 517.978 853.012 524.314 854.483L524.664 854.56L524.389 854.704C522.756 853.822 519.881 853.448 518.008 852.868C513.639 851.563 509.338 850.038 505.12 848.302C487.873 840.923 471.32 832.024 455.659 821.699C438.522 810.475 422.763 796.987 407.409 783.473C376.899 756.616 345.88 726.113 302.042 727.826C281.295 728.636 262.639 735.559 244.797 745.763C239.61 748.729 234.715 751.959 229.764 755.295C227.291 756.962 224.772 758.931 222.171 760.37C221.415 760.789 220.857 760.96 219.987 760.932C219.908 760.93 219.829 760.923 219.75 760.918Z" fill="url(#paint0_linear_1_126)"/>
<path d="M327.31 789.444C327.75 789.44 328.186 789.458 328.622 789.52C332.779 790.137 337.264 793.367 340.71 795.675C354.723 805.069 366.996 816.644 378.581 828.846C386.287 836.962 393.651 845.33 402.009 852.802C407.252 857.49 422.834 867.334 425.646 871.315C426.517 872.548 426.883 873.844 426.591 875.346C426.289 876.898 425.488 878.379 424.137 879.256C423.157 879.89 422.528 879.868 421.464 879.643C421.14 879.809 420.796 879.985 420.439 880.07C419.434 880.3 418.246 879.773 417.393 879.292C387.218 862.245 370.711 834.136 344.172 813.869C341.046 811.439 337.802 809.167 334.453 807.057C330.837 804.74 326.434 802.495 323.419 799.405C322.613 798.577 322.072 797.583 321.798 796.458C321.461 795.072 321.686 793.713 322.429 792.494C323.592 790.591 325.257 789.907 327.31 789.444Z" fill="black"/>
<path d="M317.179 693.78C318.321 688.417 319.718 683.184 321.56 678.015C331.229 650.878 351.323 627.446 377.509 615.074C402.361 603.331 433.045 602.69 458.773 611.96C485.814 621.903 507.797 642.179 519.884 668.327C526.422 683.117 529.717 698.762 529.273 714.956C489.703 722.339 457.658 743.497 430.879 772.922C417.663 759.819 404.746 745.967 390.611 733.869C371.513 717.191 349.928 705.066 324.661 701.15L315.948 700.272L317.179 693.78Z" fill="#FDD413"/>
<path d="M519.894 668.34C526.432 683.13 529.727 698.775 529.283 714.97C489.713 722.352 457.668 743.51 430.889 772.935C417.673 759.832 404.756 745.98 390.621 733.883C396.211 733.987 401.798 734.568 407.39 734.352C435.492 733.269 464.437 725.103 488.39 710.283C499.985 703.109 511.38 692.628 516.653 679.781C518.164 676.102 518.985 672.198 519.894 668.34Z" fill="#FEAA01"/>
<path d="M317.179 693.792C319.953 695.385 323.599 697.115 324.514 700.475C324.576 700.701 324.617 700.933 324.661 701.163L315.948 700.284L317.179 693.792Z" fill="#FEAA01"/>
<path d="M392.719 619.737C393.908 619.555 395.758 619.409 396.883 619.873C398.068 620.361 399.335 621.651 399.847 622.823C400.36 623.999 400.284 625.255 399.75 626.411C396.217 634.069 363.195 651.624 354.672 654.485C352.977 654.836 351.021 655.275 349.474 654.251C348.397 653.539 347.556 652.245 347.371 650.966C347.075 648.915 348.203 646.926 349.372 645.33C357.398 634.368 379.232 621.764 392.719 619.737Z" fill="#FEEE91"/>
<defs>
<linearGradient id="paint0_linear_1_126" x1="359.911" y1="828.208" x2="371.994" y2="719.474" gradientUnits="userSpaceOnUse">
<stop stop-color="#46B72A"/>
<stop offset="1" stop-color="#8ECE26"/>
</linearGradient>
</defs>
</svg>
