<svg width="849" height="1183" viewBox="0 0 849 1183" fill="none" xmlns="http://www.w3.org/2000/svg">
<rect x="5" y="5" width="839" height="1173" rx="45" fill="white"/>
<rect x="5" y="5" width="839" height="1173" rx="45" stroke="black" stroke-width="10"/>
<circle cx="786.5" cy="1124.5" r="11.5" fill="black"/>
<circle cx="786.5" cy="59.5" r="11.5" fill="black"/>
<path d="M77 1124.5C77 1130.85 71.8513 1136 65.5 1136C59.1487 1136 54 1130.85 54 1124.5C54 1118.15 59.1487 1113 65.5 1113C71.8513 1113 77 1118.15 77 1124.5Z" fill="black"/>
<path d="M77 59.5C77 65.8513 71.8513 71 65.5 71C59.1487 71 54 65.8513 54 59.5C54 53.1487 59.1487 48 65.5 48C71.8513 48 77 53.1487 77 59.5Z" fill="black"/>
<mask id="path-6-inside-1_1_973" fill="white">
<path d="M708 48C713.523 48 717.934 52.4996 718.616 57.9801C723.122 94.1833 751.817 122.878 788.02 127.384C793.5 128.066 798 132.477 798 138V1046C798 1051.52 793.5 1055.93 788.02 1056.62C751.817 1061.12 723.122 1089.82 718.616 1126.02C717.934 1131.5 713.523 1136 708 1136H141C135.477 1136 131.066 1131.5 130.384 1126.02C125.878 1089.82 97.1833 1061.12 60.9801 1056.62C55.4996 1055.93 51 1051.52 51 1046V138C51 132.477 55.4996 128.066 60.9801 127.384C97.1833 122.878 125.878 94.1833 130.384 57.9801C131.066 52.4996 135.477 48 141 48H708Z"/>
</mask>
<path d="M708 48C713.523 48 717.934 52.4996 718.616 57.9801C723.122 94.1833 751.817 122.878 788.02 127.384C793.5 128.066 798 132.477 798 138V1046C798 1051.52 793.5 1055.93 788.02 1056.62C751.817 1061.12 723.122 1089.82 718.616 1126.02C717.934 1131.5 713.523 1136 708 1136H141C135.477 1136 131.066 1131.5 130.384 1126.02C125.878 1089.82 97.1833 1061.12 60.9801 1056.62C55.4996 1055.93 51 1051.52 51 1046V138C51 132.477 55.4996 128.066 60.9801 127.384C97.1833 122.878 125.878 94.1833 130.384 57.9801C131.066 52.4996 135.477 48 141 48H708Z" fill="#C357B5"/>
<path d="M130.384 1126.02L138.322 1125.03L130.384 1126.02ZM718.616 1126.02L710.678 1125.03L718.616 1126.02ZM788.02 1056.62L789.008 1064.56L788.02 1056.62ZM718.616 57.9801L726.555 56.9922L718.616 57.9801ZM718.616 57.9801L710.678 58.9681C715.635 98.8063 747.194 130.365 787.032 135.322L788.02 127.384L789.008 119.445C756.44 115.392 730.608 89.5603 726.555 56.9922L718.616 57.9801ZM798 138H790V1046H798H806V138H798ZM788.02 1056.62L787.032 1048.68C747.194 1053.64 715.635 1085.19 710.678 1125.03L718.616 1126.02L726.555 1127.01C730.608 1094.44 756.44 1068.61 789.008 1064.56L788.02 1056.62ZM708 1136V1128H141V1136V1144H708V1136ZM130.384 1126.02L138.322 1125.03C133.365 1085.19 101.806 1053.64 61.9681 1048.68L60.9801 1056.62L59.9922 1064.56C92.5603 1068.61 118.392 1094.44 122.445 1127.01L130.384 1126.02ZM51 1046H59V138H51H43V1046H51ZM60.9801 127.384L61.9681 135.322C101.806 130.365 133.365 98.8063 138.322 58.9681L130.384 57.9801L122.445 56.9922C118.392 89.5603 92.5603 115.392 59.9922 119.445L60.9801 127.384ZM141 48V56H708V48V40H141V48ZM130.384 57.9801L138.322 58.9681C138.438 58.0389 138.872 57.2306 139.427 56.6958C139.954 56.1887 140.494 56 141 56V48V40C130.84 40 123.547 48.1329 122.445 56.9922L130.384 57.9801ZM51 138H59C59 137.494 59.1887 136.954 59.6958 136.427C60.2306 135.872 61.0389 135.438 61.9681 135.322L60.9801 127.384L59.9922 119.445C51.1329 120.547 43 127.84 43 138H51ZM60.9801 1056.62L61.9681 1048.68C61.0389 1048.56 60.2306 1048.13 59.6958 1047.57C59.1887 1047.05 59 1046.51 59 1046H51H43C43 1056.16 51.1329 1063.45 59.9922 1064.56L60.9801 1056.62ZM141 1136V1128C140.494 1128 139.954 1127.81 139.427 1127.3C138.872 1126.77 138.438 1125.96 138.322 1125.03L130.384 1126.02L122.445 1127.01C123.547 1135.87 130.84 1144 141 1144V1136ZM718.616 1126.02L710.678 1125.03C710.562 1125.96 710.128 1126.77 709.573 1127.3C709.046 1127.81 708.506 1128 708 1128V1136V1144C718.16 1144 725.453 1135.87 726.555 1127.01L718.616 1126.02ZM798 1046H790C790 1046.51 789.811 1047.05 789.304 1047.57C788.769 1048.13 787.961 1048.56 787.032 1048.68L788.02 1056.62L789.008 1064.56C797.867 1063.45 806 1056.16 806 1046H798ZM788.02 127.384L787.032 135.322C787.961 135.438 788.769 135.872 789.304 136.427C789.811 136.954 790 137.494 790 138H798H806C806 127.84 797.867 120.547 789.008 119.445L788.02 127.384ZM718.616 57.9801L726.555 56.9922C725.453 48.1329 718.16 40 708 40V48V56C708.506 56 709.046 56.1887 709.573 56.6958C710.128 57.2306 710.562 58.0389 710.678 58.9681L718.616 57.9801Z" fill="black" mask="url(#path-6-inside-1_1_973)"/>
<path d="M690 102C695.523 102 699.911 106.512 700.837 111.957C705.019 136.563 724.437 155.981 749.043 160.163C754.488 161.089 759 165.477 759 171V1014C759 1019.52 754.488 1023.91 749.043 1024.84C724.711 1028.97 705.454 1048 700.984 1072.22C699.993 1077.59 695.633 1082 690.175 1082H158.825C153.367 1082 149.007 1077.59 148.016 1072.22C143.546 1048 124.288 1028.97 99.9568 1024.84C94.5121 1023.91 90 1019.52 90 1014V171C90 165.477 94.512 161.089 99.9568 160.163C124.563 155.981 143.981 136.563 148.163 111.957C149.089 106.512 153.477 102 159 102H690Z" fill="#D78BCD"/>
<mask id="path-9-outside-2_1_973" maskUnits="userSpaceOnUse" x="401" y="1006" width="47" height="33" fill="black">
<rect fill="white" x="401" y="1006" width="47" height="33"/>
<path d="M402.32 1015.04C402.48 1012.56 403.427 1010.63 405.16 1009.24C406.92 1007.85 409.16 1007.16 411.88 1007.16C413.747 1007.16 415.36 1007.49 416.72 1008.16C418.08 1008.83 419.107 1009.73 419.8 1010.88C420.493 1012.03 420.84 1013.32 420.84 1014.76C420.84 1016.41 420.4 1017.83 419.52 1019C418.64 1020.17 417.587 1020.96 416.36 1021.36V1021.52C417.933 1022 419.16 1022.88 420.04 1024.16C420.92 1025.41 421.36 1027.03 421.36 1029C421.36 1030.57 421 1031.97 420.28 1033.2C419.56 1034.43 418.493 1035.4 417.08 1036.12C415.667 1036.81 413.973 1037.16 412 1037.16C409.12 1037.16 406.747 1036.43 404.88 1034.96C403.04 1033.47 402.053 1031.33 401.92 1028.56H406.32C406.427 1029.97 406.973 1031.13 407.96 1032.04C408.947 1032.92 410.28 1033.36 411.96 1033.36C413.587 1033.36 414.84 1032.92 415.72 1032.04C416.6 1031.13 417.04 1029.97 417.04 1028.56C417.04 1026.69 416.44 1025.37 415.24 1024.6C414.067 1023.8 412.253 1023.4 409.8 1023.4H408.76V1019.64H409.84C412 1019.61 413.64 1019.25 414.76 1018.56C415.907 1017.87 416.48 1016.77 416.48 1015.28C416.48 1014 416.067 1012.99 415.24 1012.24C414.413 1011.47 413.24 1011.08 411.72 1011.08C410.227 1011.08 409.067 1011.47 408.24 1012.24C407.413 1012.99 406.92 1013.92 406.76 1015.04H402.32ZM431.07 1021.76C428.297 1020.37 426.91 1018.19 426.91 1015.2C426.91 1013.76 427.27 1012.44 427.99 1011.24C428.71 1010.04 429.79 1009.09 431.23 1008.4C432.67 1007.68 434.43 1007.32 436.51 1007.32C438.563 1007.32 440.31 1007.68 441.75 1008.4C443.217 1009.09 444.31 1010.04 445.03 1011.24C445.75 1012.44 446.11 1013.76 446.11 1015.2C446.11 1016.69 445.723 1018.01 444.95 1019.16C444.203 1020.28 443.203 1021.15 441.95 1021.76C443.47 1022.32 444.67 1023.24 445.55 1024.52C446.43 1025.77 446.87 1027.25 446.87 1028.96C446.87 1030.69 446.43 1032.23 445.55 1033.56C444.67 1034.89 443.443 1035.92 441.87 1036.64C440.297 1037.36 438.51 1037.72 436.51 1037.72C434.51 1037.72 432.723 1037.36 431.15 1036.64C429.603 1035.92 428.39 1034.89 427.51 1033.56C426.63 1032.23 426.19 1030.69 426.19 1028.96C426.19 1027.23 426.63 1025.73 427.51 1024.48C428.39 1023.23 429.577 1022.32 431.07 1021.76ZM441.75 1015.76C441.75 1014.27 441.283 1013.12 440.35 1012.32C439.417 1011.52 438.137 1011.12 436.51 1011.12C434.91 1011.12 433.643 1011.52 432.71 1012.32C431.777 1013.12 431.31 1014.28 431.31 1015.8C431.31 1017.13 431.79 1018.23 432.75 1019.08C433.737 1019.91 434.99 1020.32 436.51 1020.32C438.03 1020.32 439.283 1019.89 440.27 1019.04C441.257 1018.19 441.75 1017.09 441.75 1015.76ZM436.51 1023.76C434.75 1023.76 433.31 1024.2 432.19 1025.08C431.097 1025.93 430.55 1027.17 430.55 1028.8C430.55 1030.32 431.083 1031.56 432.15 1032.52C433.217 1033.45 434.67 1033.92 436.51 1033.92C438.323 1033.92 439.75 1033.44 440.79 1032.48C441.857 1031.52 442.39 1030.29 442.39 1028.8C442.39 1027.2 441.843 1025.96 440.75 1025.08C439.683 1024.2 438.27 1023.76 436.51 1023.76Z"/>
</mask>
<path d="M402.32 1015.04C402.48 1012.56 403.427 1010.63 405.16 1009.24C406.92 1007.85 409.16 1007.16 411.88 1007.16C413.747 1007.16 415.36 1007.49 416.72 1008.16C418.08 1008.83 419.107 1009.73 419.8 1010.88C420.493 1012.03 420.84 1013.32 420.84 1014.76C420.84 1016.41 420.4 1017.83 419.52 1019C418.64 1020.17 417.587 1020.96 416.36 1021.36V1021.52C417.933 1022 419.16 1022.88 420.04 1024.16C420.92 1025.41 421.36 1027.03 421.36 1029C421.36 1030.57 421 1031.97 420.28 1033.2C419.56 1034.43 418.493 1035.4 417.08 1036.12C415.667 1036.81 413.973 1037.16 412 1037.16C409.12 1037.16 406.747 1036.43 404.88 1034.96C403.04 1033.47 402.053 1031.33 401.92 1028.56H406.32C406.427 1029.97 406.973 1031.13 407.96 1032.04C408.947 1032.92 410.28 1033.36 411.96 1033.36C413.587 1033.36 414.84 1032.92 415.72 1032.04C416.6 1031.13 417.04 1029.97 417.04 1028.56C417.04 1026.69 416.44 1025.37 415.24 1024.6C414.067 1023.8 412.253 1023.4 409.8 1023.4H408.76V1019.64H409.84C412 1019.61 413.64 1019.25 414.76 1018.56C415.907 1017.87 416.48 1016.77 416.48 1015.28C416.48 1014 416.067 1012.99 415.24 1012.24C414.413 1011.47 413.24 1011.08 411.72 1011.08C410.227 1011.08 409.067 1011.47 408.24 1012.24C407.413 1012.99 406.92 1013.92 406.76 1015.04H402.32ZM431.07 1021.76C428.297 1020.37 426.91 1018.19 426.91 1015.2C426.91 1013.76 427.27 1012.44 427.99 1011.24C428.71 1010.04 429.79 1009.09 431.23 1008.4C432.67 1007.68 434.43 1007.32 436.51 1007.32C438.563 1007.32 440.31 1007.68 441.75 1008.4C443.217 1009.09 444.31 1010.04 445.03 1011.24C445.75 1012.44 446.11 1013.76 446.11 1015.2C446.11 1016.69 445.723 1018.01 444.95 1019.16C444.203 1020.28 443.203 1021.15 441.95 1021.76C443.47 1022.32 444.67 1023.24 445.55 1024.52C446.43 1025.77 446.87 1027.25 446.87 1028.96C446.87 1030.69 446.43 1032.23 445.55 1033.56C444.67 1034.89 443.443 1035.92 441.87 1036.64C440.297 1037.36 438.51 1037.72 436.51 1037.72C434.51 1037.72 432.723 1037.36 431.15 1036.64C429.603 1035.92 428.39 1034.89 427.51 1033.56C426.63 1032.23 426.19 1030.69 426.19 1028.96C426.19 1027.23 426.63 1025.73 427.51 1024.48C428.39 1023.23 429.577 1022.32 431.07 1021.76ZM441.75 1015.76C441.75 1014.27 441.283 1013.12 440.35 1012.32C439.417 1011.52 438.137 1011.12 436.51 1011.12C434.91 1011.12 433.643 1011.52 432.71 1012.32C431.777 1013.12 431.31 1014.28 431.31 1015.8C431.31 1017.13 431.79 1018.23 432.75 1019.08C433.737 1019.91 434.99 1020.32 436.51 1020.32C438.03 1020.32 439.283 1019.89 440.27 1019.04C441.257 1018.19 441.75 1017.09 441.75 1015.76ZM436.51 1023.76C434.75 1023.76 433.31 1024.2 432.19 1025.08C431.097 1025.93 430.55 1027.17 430.55 1028.8C430.55 1030.32 431.083 1031.56 432.15 1032.52C433.217 1033.45 434.67 1033.92 436.51 1033.92C438.323 1033.92 439.75 1033.44 440.79 1032.48C441.857 1031.52 442.39 1030.29 442.39 1028.8C442.39 1027.2 441.843 1025.96 440.75 1025.08C439.683 1024.2 438.27 1023.76 436.51 1023.76Z" fill="black"/>
<path d="M402.32 1015.04L402.021 1015.02L402 1015.34H402.32V1015.04ZM405.16 1009.24L404.974 1009L404.973 1009.01L405.16 1009.24ZM416.72 1008.16L416.588 1008.43L416.72 1008.16ZM419.8 1010.88L420.057 1010.72L419.8 1010.88ZM419.52 1019L419.76 1019.18V1019.18L419.52 1019ZM416.36 1021.36L416.267 1021.07L416.06 1021.14V1021.36H416.36ZM416.36 1021.52H416.06V1021.74L416.272 1021.81L416.36 1021.52ZM420.04 1024.16L419.793 1024.33L419.794 1024.33L420.04 1024.16ZM420.28 1033.2L420.021 1033.05L420.28 1033.2ZM417.08 1036.12L417.212 1036.39L417.216 1036.39L417.08 1036.12ZM404.88 1034.96L404.691 1035.19L404.695 1035.2L404.88 1034.96ZM401.92 1028.56V1028.26H401.605L401.62 1028.57L401.92 1028.56ZM406.32 1028.56L406.619 1028.54L406.598 1028.26H406.32V1028.56ZM407.96 1032.04L407.757 1032.26L407.76 1032.26L407.96 1032.04ZM415.72 1032.04L415.932 1032.25L415.935 1032.25L415.72 1032.04ZM415.24 1024.6L415.071 1024.85L415.077 1024.85L415.24 1024.6ZM408.76 1023.4H408.46V1023.7H408.76V1023.4ZM408.76 1019.64V1019.34H408.46V1019.64H408.76ZM409.84 1019.64V1019.94L409.844 1019.94L409.84 1019.64ZM414.76 1018.56L414.605 1018.3L414.602 1018.3L414.76 1018.56ZM415.24 1012.24L415.035 1012.46L415.039 1012.46L415.24 1012.24ZM408.24 1012.24L408.441 1012.46L408.445 1012.46L408.24 1012.24ZM406.76 1015.04V1015.34H407.02L407.057 1015.08L406.76 1015.04ZM402.32 1015.04L402.619 1015.06C402.775 1012.65 403.688 1010.8 405.347 1009.47L405.16 1009.24L404.973 1009.01C403.165 1010.45 402.185 1012.47 402.021 1015.02L402.32 1015.04ZM405.16 1009.24L405.346 1009.48C407.042 1008.14 409.213 1007.46 411.88 1007.46V1007.16V1006.86C409.108 1006.86 406.798 1007.57 404.974 1009L405.16 1009.24ZM411.88 1007.16V1007.46C413.711 1007.46 415.277 1007.79 416.588 1008.43L416.72 1008.16L416.852 1007.89C415.443 1007.2 413.782 1006.86 411.88 1006.86V1007.16ZM416.72 1008.16L416.588 1008.43C417.903 1009.07 418.883 1009.94 419.543 1011.04L419.8 1010.88L420.057 1010.72C419.33 1009.52 418.257 1008.58 416.852 1007.89L416.72 1008.16ZM419.8 1010.88L419.543 1011.04C420.206 1012.13 420.54 1013.37 420.54 1014.76H420.84H421.14C421.14 1013.27 420.78 1011.92 420.057 1010.72L419.8 1010.88ZM420.84 1014.76H420.54C420.54 1016.36 420.116 1017.71 419.28 1018.82L419.52 1019L419.76 1019.18C420.684 1017.95 421.14 1016.47 421.14 1014.76H420.84ZM419.52 1019L419.28 1018.82C418.432 1019.95 417.427 1020.7 416.267 1021.07L416.36 1021.36L416.453 1021.65C417.746 1021.22 418.848 1020.4 419.76 1019.18L419.52 1019ZM416.36 1021.36H416.06V1021.52H416.36H416.66V1021.36H416.36ZM416.36 1021.52L416.272 1021.81C417.785 1022.27 418.954 1023.11 419.793 1024.33L420.04 1024.16L420.287 1023.99C419.366 1022.65 418.082 1021.73 416.448 1021.23L416.36 1021.52ZM420.04 1024.16L419.794 1024.33C420.63 1025.52 421.06 1027.07 421.06 1029H421.36H421.66C421.66 1026.98 421.21 1025.3 420.286 1023.99L420.04 1024.16ZM421.36 1029H421.06C421.06 1030.53 420.711 1031.87 420.021 1033.05L420.28 1033.2L420.539 1033.35C421.289 1032.07 421.66 1030.62 421.66 1029H421.36ZM420.28 1033.2L420.021 1033.05C419.334 1034.22 418.312 1035.16 416.944 1035.85L417.08 1036.12L417.216 1036.39C418.674 1035.64 419.786 1034.63 420.539 1033.35L420.28 1033.2ZM417.08 1036.12L416.948 1035.85C415.585 1036.52 413.939 1036.86 412 1036.86V1037.16V1037.46C414.008 1037.46 415.749 1037.11 417.212 1036.39L417.08 1036.12ZM412 1037.16V1036.86C409.172 1036.86 406.869 1036.14 405.065 1034.72L404.88 1034.96L404.695 1035.2C406.625 1036.71 409.068 1037.46 412 1037.46V1037.16ZM404.88 1034.96L405.069 1034.73C403.307 1033.3 402.35 1031.25 402.22 1028.55L401.92 1028.56L401.62 1028.57C401.757 1031.42 402.773 1033.64 404.691 1035.19L404.88 1034.96ZM401.92 1028.56V1028.86H406.32V1028.56V1028.26H401.92V1028.56ZM406.32 1028.56L406.021 1028.58C406.133 1030.07 406.711 1031.3 407.757 1032.26L407.96 1032.04L408.163 1031.82C407.236 1030.97 406.72 1029.88 406.619 1028.54L406.32 1028.56ZM407.96 1032.04L407.76 1032.26C408.816 1033.21 410.227 1033.66 411.96 1033.66V1033.36V1033.06C410.333 1033.06 409.078 1032.63 408.16 1031.82L407.96 1032.04ZM411.96 1033.36V1033.66C413.641 1033.66 414.98 1033.2 415.932 1032.25L415.72 1032.04L415.508 1031.83C414.7 1032.64 413.533 1033.06 411.96 1033.06V1033.36ZM415.72 1032.04L415.935 1032.25C416.876 1031.28 417.34 1030.04 417.34 1028.56H417.04H416.74C416.74 1029.91 416.324 1030.99 415.505 1031.83L415.72 1032.04ZM417.04 1028.56H417.34C417.34 1026.63 416.714 1025.19 415.403 1024.35L415.24 1024.6L415.077 1024.85C416.166 1025.55 416.74 1026.76 416.74 1028.56H417.04ZM415.24 1024.6L415.409 1024.35C414.161 1023.5 412.275 1023.1 409.8 1023.1V1023.4V1023.7C412.232 1023.7 413.972 1024.1 415.071 1024.85L415.24 1024.6ZM409.8 1023.4V1023.1H408.76V1023.4V1023.7H409.8V1023.4ZM408.76 1023.4H409.06V1019.64H408.76H408.46V1023.4H408.76ZM408.76 1019.64V1019.94H409.84V1019.64V1019.34H408.76V1019.64ZM409.84 1019.64L409.844 1019.94C412.027 1019.91 413.731 1019.55 414.918 1018.82L414.76 1018.56L414.602 1018.3C413.549 1018.96 411.973 1019.31 409.836 1019.34L409.84 1019.64ZM414.76 1018.56L414.915 1018.82C416.163 1018.06 416.78 1016.86 416.78 1015.28H416.48H416.18C416.18 1016.68 415.65 1017.67 414.605 1018.3L414.76 1018.56ZM416.48 1015.28H416.78C416.78 1013.93 416.34 1012.83 415.441 1012.02L415.24 1012.24L415.039 1012.46C415.793 1013.14 416.18 1014.07 416.18 1015.28H416.48ZM415.24 1012.24L415.445 1012.02C414.546 1011.18 413.289 1010.78 411.72 1010.78V1011.08V1011.38C413.191 1011.38 414.281 1011.75 415.035 1012.46L415.24 1012.24ZM411.72 1011.08V1010.78C410.176 1010.78 408.933 1011.18 408.035 1012.02L408.24 1012.24L408.445 1012.46C409.2 1011.75 410.278 1011.38 411.72 1011.38V1011.08ZM408.24 1012.24L408.039 1012.02C407.159 1012.81 406.633 1013.81 406.463 1015L406.76 1015.04L407.057 1015.08C407.207 1014.03 407.667 1013.16 408.441 1012.46L408.24 1012.24ZM406.76 1015.04V1014.74H402.32V1015.04V1015.34H406.76V1015.04ZM431.07 1021.76L431.175 1022.04L431.819 1021.8L431.204 1021.49L431.07 1021.76ZM427.99 1011.24L427.733 1011.09L427.99 1011.24ZM431.23 1008.4L431.36 1008.67L431.364 1008.67L431.23 1008.4ZM441.75 1008.4L441.616 1008.67L441.622 1008.67L441.75 1008.4ZM445.03 1011.24L445.287 1011.09L445.03 1011.24ZM444.95 1019.16L444.701 1018.99L444.7 1018.99L444.95 1019.16ZM441.95 1021.76L441.818 1021.49L441.188 1021.8L441.846 1022.04L441.95 1021.76ZM445.55 1024.52L445.303 1024.69L445.304 1024.69L445.55 1024.52ZM445.55 1033.56L445.8 1033.73L445.55 1033.56ZM441.87 1036.64L441.745 1036.37L441.87 1036.64ZM431.15 1036.64L431.023 1036.91L431.025 1036.91L431.15 1036.64ZM427.51 1033.56L427.26 1033.73L427.51 1033.56ZM427.51 1024.48L427.264 1024.31L427.51 1024.48ZM440.35 1012.32L440.545 1012.09V1012.09L440.35 1012.32ZM432.71 1012.32L432.515 1012.09V1012.09L432.71 1012.32ZM432.75 1019.08L432.551 1019.3L432.557 1019.31L432.75 1019.08ZM432.19 1025.08L432.375 1025.32L432.375 1025.32L432.19 1025.08ZM432.15 1032.52L431.949 1032.74L431.952 1032.75L432.15 1032.52ZM440.79 1032.48L440.589 1032.26L440.587 1032.26L440.79 1032.48ZM440.75 1025.08L440.559 1025.31L440.562 1025.31L440.75 1025.08ZM431.07 1021.76L431.204 1021.49C429.857 1020.82 428.862 1019.96 428.203 1018.92C427.545 1017.88 427.21 1016.65 427.21 1015.2H426.91H426.61C426.61 1016.74 426.968 1018.09 427.697 1019.24C428.424 1020.39 429.51 1021.32 430.936 1022.03L431.07 1021.76ZM426.91 1015.2H427.21C427.21 1013.81 427.556 1012.55 428.247 1011.39L427.99 1011.24L427.733 1011.09C426.984 1012.33 426.61 1013.71 426.61 1015.2H426.91ZM427.99 1011.24L428.247 1011.39C428.933 1010.25 429.965 1009.34 431.36 1008.67L431.23 1008.4L431.1 1008.13C429.615 1008.84 428.487 1009.83 427.733 1011.09L427.99 1011.24ZM431.23 1008.4L431.364 1008.67C432.752 1007.97 434.463 1007.62 436.51 1007.62V1007.32V1007.02C434.397 1007.02 432.588 1007.39 431.096 1008.13L431.23 1008.4ZM436.51 1007.32V1007.62C438.529 1007.62 440.227 1007.97 441.616 1008.67L441.75 1008.4L441.884 1008.13C440.393 1007.39 438.597 1007.02 436.51 1007.02V1007.32ZM441.75 1008.4L441.622 1008.67C443.044 1009.34 444.088 1010.25 444.773 1011.39L445.03 1011.24L445.287 1011.09C444.532 1009.83 443.39 1008.84 441.878 1008.13L441.75 1008.4ZM445.03 1011.24L444.773 1011.39C445.464 1012.55 445.81 1013.81 445.81 1015.2H446.11H446.41C446.41 1013.71 446.036 1012.33 445.287 1011.09L445.03 1011.24ZM446.11 1015.2H445.81C445.81 1016.64 445.439 1017.9 444.701 1018.99L444.95 1019.16L445.199 1019.33C446.008 1018.13 446.41 1016.75 446.41 1015.2H446.11ZM444.95 1019.16L444.7 1018.99C443.984 1020.07 443.026 1020.9 441.818 1021.49L441.95 1021.76L442.082 1022.03C443.381 1021.39 444.422 1020.49 445.2 1019.33L444.95 1019.16ZM441.95 1021.76L441.846 1022.04C443.311 1022.58 444.46 1023.46 445.303 1024.69L445.55 1024.52L445.797 1024.35C444.88 1023.02 443.629 1022.06 442.054 1021.48L441.95 1021.76ZM445.55 1024.52L445.304 1024.69C446.145 1025.89 446.57 1027.31 446.57 1028.96H446.87H447.17C447.17 1027.2 446.715 1025.66 445.796 1024.35L445.55 1024.52ZM446.87 1028.96H446.57C446.57 1030.64 446.144 1032.11 445.3 1033.39L445.55 1033.56L445.8 1033.73C446.716 1032.34 447.17 1030.75 447.17 1028.96H446.87ZM445.55 1033.56L445.3 1033.39C444.453 1034.68 443.272 1035.67 441.745 1036.37L441.87 1036.64L441.995 1036.91C443.615 1036.17 444.887 1035.11 445.8 1033.73L445.55 1033.56ZM441.87 1036.64L441.745 1036.37C440.217 1037.07 438.474 1037.42 436.51 1037.42V1037.72V1038.02C438.546 1038.02 440.377 1037.65 441.995 1036.91L441.87 1036.64ZM436.51 1037.72V1037.42C434.546 1037.42 432.803 1037.07 431.275 1036.37L431.15 1036.64L431.025 1036.91C432.643 1037.65 434.474 1038.02 436.51 1038.02V1037.72ZM431.15 1036.64L431.277 1036.37C429.777 1035.67 428.608 1034.68 427.76 1033.39L427.51 1033.56L427.26 1033.73C428.172 1035.11 429.43 1036.17 431.023 1036.91L431.15 1036.64ZM427.51 1033.56L427.76 1033.39C426.916 1032.11 426.49 1030.64 426.49 1028.96H426.19H425.89C425.89 1030.75 426.344 1032.34 427.26 1033.73L427.51 1033.56ZM426.19 1028.96H426.49C426.49 1027.28 426.916 1025.85 427.756 1024.65L427.51 1024.48L427.264 1024.31C426.344 1025.62 425.89 1027.17 425.89 1028.96H426.19ZM427.51 1024.48L427.756 1024.65C428.599 1023.45 429.736 1022.58 431.175 1022.04L431.07 1021.76L430.965 1021.48C429.417 1022.06 428.181 1023 427.264 1024.31L427.51 1024.48ZM441.75 1015.76H442.05C442.05 1014.2 441.559 1012.96 440.545 1012.09L440.35 1012.32L440.155 1012.55C441.007 1013.28 441.45 1014.33 441.45 1015.76H441.75ZM440.35 1012.32L440.545 1012.09C439.542 1011.23 438.185 1010.82 436.51 1010.82V1011.12V1011.42C438.089 1011.42 439.291 1011.81 440.155 1012.55L440.35 1012.32ZM436.51 1011.12V1010.82C434.86 1010.82 433.517 1011.23 432.515 1012.09L432.71 1012.32L432.905 1012.55C433.77 1011.81 434.96 1011.42 436.51 1011.42V1011.12ZM432.71 1012.32L432.515 1012.09C431.5 1012.96 431.01 1014.21 431.01 1015.8H431.31H431.61C431.61 1014.35 432.054 1013.28 432.905 1012.55L432.71 1012.32ZM431.31 1015.8H431.01C431.01 1017.22 431.524 1018.39 432.551 1019.3L432.75 1019.08L432.949 1018.86C432.056 1018.06 431.61 1017.05 431.61 1015.8H431.31ZM432.75 1019.08L432.557 1019.31C433.607 1020.19 434.933 1020.62 436.51 1020.62V1020.32V1020.02C435.047 1020.02 433.866 1019.62 432.943 1018.85L432.75 1019.08ZM436.51 1020.32V1020.62C438.089 1020.62 439.416 1020.18 440.466 1019.27L440.27 1019.04L440.074 1018.81C439.15 1019.61 437.971 1020.02 436.51 1020.02V1020.32ZM440.27 1019.04L440.466 1019.27C441.52 1018.36 442.05 1017.18 442.05 1015.76H441.75H441.45C441.45 1017.01 440.993 1018.02 440.074 1018.81L440.27 1019.04ZM436.51 1023.76V1023.46C434.699 1023.46 433.189 1023.91 432.005 1024.84L432.19 1025.08L432.375 1025.32C433.431 1024.49 434.801 1024.06 436.51 1024.06V1023.76ZM432.19 1025.08L432.005 1024.84C430.826 1025.76 430.25 1027.1 430.25 1028.8H430.55H430.85C430.85 1027.25 431.367 1026.1 432.375 1025.32L432.19 1025.08ZM430.55 1028.8H430.25C430.25 1030.4 430.815 1031.72 431.949 1032.74L432.15 1032.52L432.351 1032.3C431.351 1031.4 430.85 1030.24 430.85 1028.8H430.55ZM432.15 1032.52L431.952 1032.75C433.088 1033.74 434.619 1034.22 436.51 1034.22V1033.92V1033.62C434.721 1033.62 433.345 1033.17 432.348 1032.29L432.15 1032.52ZM436.51 1033.92V1034.22C438.377 1034.22 439.884 1033.72 440.993 1032.7L440.79 1032.48L440.587 1032.26C439.616 1033.16 438.27 1033.62 436.51 1033.62V1033.92ZM440.79 1032.48L440.991 1032.7C442.123 1031.68 442.69 1030.37 442.69 1028.8H442.39H442.09C442.09 1030.21 441.59 1031.36 440.589 1032.26L440.79 1032.48ZM442.39 1028.8H442.69C442.69 1027.12 442.113 1025.79 440.938 1024.85L440.75 1025.08L440.562 1025.31C441.574 1026.13 442.09 1027.28 442.09 1028.8H442.39ZM440.75 1025.08L440.941 1024.85C439.807 1023.91 438.32 1023.46 436.51 1023.46V1023.76V1024.06C438.22 1024.06 439.559 1024.49 440.559 1025.31L440.75 1025.08Z" fill="black" mask="url(#path-9-outside-2_1_973)"/>
<path d="M229.365 272L214.665 244.7H212.46V272H191.88V197.975H224.325C230.275 197.975 235.315 199.025 239.445 201.125C243.575 203.155 246.69 205.99 248.79 209.63C250.89 213.2 251.94 217.225 251.94 221.705C251.94 226.745 250.54 231.19 247.74 235.04C245.01 238.82 240.985 241.515 235.665 243.125L252.36 272H229.365ZM212.46 230.63H222.645C225.445 230.63 227.545 229.965 228.945 228.635C230.345 227.305 231.045 225.38 231.045 222.86C231.045 220.48 230.31 218.625 228.84 217.295C227.44 215.895 225.375 215.195 222.645 215.195H212.46V230.63ZM257.939 242.495C257.939 236.405 259.024 231.085 261.194 226.535C263.434 221.985 266.444 218.485 270.224 216.035C274.074 213.585 278.344 212.36 283.034 212.36C287.094 212.36 290.594 213.165 293.534 214.775C296.474 216.385 298.749 218.555 300.359 221.285V213.095H320.939V272H300.359V263.81C298.749 266.54 296.439 268.71 293.429 270.32C290.489 271.93 287.024 272.735 283.034 272.735C278.344 272.735 274.074 271.51 270.224 269.06C266.444 266.61 263.434 263.11 261.194 258.56C259.024 253.94 257.939 248.585 257.939 242.495ZM300.359 242.495C300.359 238.715 299.309 235.74 297.209 233.57C295.179 231.4 292.659 230.315 289.649 230.315C286.569 230.315 284.014 231.4 281.984 233.57C279.954 235.67 278.939 238.645 278.939 242.495C278.939 246.275 279.954 249.285 281.984 251.525C284.014 253.695 286.569 254.78 289.649 254.78C292.659 254.78 295.179 253.695 297.209 251.525C299.309 249.355 300.359 246.345 300.359 242.495ZM343.061 207.635C339.421 207.635 336.481 206.655 334.241 204.695C332.071 202.665 330.986 200.145 330.986 197.135C330.986 194.055 332.071 191.5 334.241 189.47C336.481 187.44 339.421 186.425 343.061 186.425C346.631 186.425 349.501 187.44 351.671 189.47C353.911 191.5 355.031 194.055 355.031 197.135C355.031 200.145 353.911 202.665 351.671 204.695C349.501 206.655 346.631 207.635 343.061 207.635ZM353.246 213.095V272H332.666V213.095H353.246ZM403.501 212.57C410.291 212.57 415.681 214.845 419.671 219.395C423.661 223.875 425.656 229.965 425.656 237.665V272H405.076V240.395C405.076 237.035 404.201 234.41 402.451 232.52C400.701 230.56 398.356 229.58 395.416 229.58C392.336 229.58 389.921 230.56 388.171 232.52C386.421 234.41 385.546 237.035 385.546 240.395V272H364.966V213.095H385.546V221.495C387.366 218.835 389.816 216.7 392.896 215.09C395.976 213.41 399.511 212.57 403.501 212.57ZM457.528 221.285C459.138 218.485 461.413 216.315 464.353 214.775C467.293 213.165 470.758 212.36 474.748 212.36C479.438 212.36 483.673 213.585 487.453 216.035C491.303 218.485 494.313 221.985 496.483 226.535C498.723 231.085 499.843 236.405 499.843 242.495C499.843 248.585 498.723 253.94 496.483 258.56C494.313 263.11 491.303 266.61 487.453 269.06C483.673 271.51 479.438 272.735 474.748 272.735C470.758 272.735 467.293 271.965 464.353 270.425C461.413 268.815 459.138 266.61 457.528 263.81V272H436.948V194.3H457.528V221.285ZM478.948 242.495C478.948 238.645 477.898 235.67 475.798 233.57C473.768 231.4 471.248 230.315 468.238 230.315C465.228 230.315 462.673 231.4 460.573 233.57C458.543 235.74 457.528 238.715 457.528 242.495C457.528 246.345 458.543 249.355 460.573 251.525C462.673 253.695 465.228 254.78 468.238 254.78C471.248 254.78 473.768 253.695 475.798 251.525C477.898 249.285 478.948 246.275 478.948 242.495ZM535.721 272.735C529.841 272.735 524.556 271.51 519.866 269.06C515.246 266.61 511.606 263.11 508.946 258.56C506.286 254.01 504.956 248.655 504.956 242.495C504.956 236.405 506.286 231.085 508.946 226.535C511.676 221.985 515.351 218.485 519.971 216.035C524.661 213.585 529.946 212.36 535.826 212.36C541.706 212.36 546.956 213.585 551.576 216.035C556.266 218.485 559.941 221.985 562.601 226.535C565.331 231.085 566.696 236.405 566.696 242.495C566.696 248.585 565.331 253.94 562.601 258.56C559.941 263.11 556.266 266.61 551.576 269.06C546.886 271.51 541.601 272.735 535.721 272.735ZM535.721 254.885C538.591 254.885 540.971 253.835 542.861 251.735C544.821 249.565 545.801 246.485 545.801 242.495C545.801 238.505 544.821 235.46 542.861 233.36C540.971 231.26 538.626 230.21 535.826 230.21C533.026 230.21 530.681 231.26 528.791 233.36C526.901 235.46 525.956 238.505 525.956 242.495C525.956 246.555 526.866 249.635 528.686 251.735C530.506 253.835 532.851 254.885 535.721 254.885ZM662.113 213.095L647.098 272H623.998L615.808 236.3L607.303 272H584.308L569.398 213.095H589.873L596.488 252.155L605.203 213.095H627.253L636.283 252.26L642.793 213.095H662.113Z" fill="black"/>
<path d="M412.048 389.461C424.086 388.45 437.002 389.273 449.037 390.287C499.456 394.535 550.095 409.353 592.752 437.096C604.689 444.859 616.666 453.3 627.461 462.614C675.131 504 708.148 559.686 721.588 621.367C723.094 628.543 724.597 635.885 725.498 643.158C728.939 670.887 728.324 709.662 723.424 737.13C722.373 743.027 721.655 750.569 718.317 755.681C723.287 759.205 728.025 763.32 731.723 768.181C739.757 778.738 742.869 792.787 740.983 805.852C739.132 818.151 732.528 829.233 722.59 836.711C707.447 847.89 693.957 846.606 676.643 843.915C673.642 852.422 667.656 860.202 661.397 866.616C644.289 884.149 619.121 891.518 595.221 891.736C571.638 891.951 557.727 886.585 540.948 870.072C529.841 876.803 518.7 879.398 505.796 879.465C486.984 879.56 468.816 873.407 455.32 859.922C444.113 848.724 436.855 832.315 436.903 816.388C436.944 802.892 441.035 785.793 450.865 776.139C449.703 771.621 449.25 766.794 448.584 762.175C446.98 751.067 445.749 739.971 443.069 729.046C441.407 722.27 437.739 715.925 431.653 712.256C429.867 711.405 427.98 710.604 426.03 710.225C421.379 709.333 416.565 710.396 412.722 713.165C409.57 715.413 407.219 718.712 405.615 722.201C399.135 736.302 398.572 761.327 396.014 777.335C401.682 784.152 406.093 791.89 408.467 800.455C413.348 817.496 411.046 835.792 402.092 851.092C393.194 866.628 378.734 876.618 361.603 881.247C343.982 885.921 325.236 883.559 309.323 874.664C305.247 880.501 298.517 885.156 292.217 888.278C272.242 898.179 245.728 897.01 224.928 890.041C202.076 882.384 183.491 867.13 172.676 845.458C163.746 849.059 155.134 849.867 145.62 848.175C132.701 845.874 122.647 838.884 115.288 828.131C108.062 817.741 105.404 804.846 107.935 792.447C110.651 778.682 117.637 768.376 129.304 760.587C124.291 749.425 121.342 719.505 120.648 706.659C115.488 625.004 143.513 544.725 198.37 484.024C217.687 462.591 241.21 443.512 266.394 429.359C299.345 410.84 340.771 397.844 378.104 392.44C389.301 390.819 400.75 390.035 412.048 389.461Z" fill="black"/>
<path d="M420.217 484.087C431.662 483.129 443.983 484.509 455.302 486.327C494.973 492.699 532.806 508.358 563.632 534.481C604.251 568.763 629.637 617.737 634.236 670.689C635.423 684.533 635.677 698.44 634.996 712.317C623.754 711.303 614.316 711.495 603.99 716.598C605.037 675.485 599.374 635.772 575.476 601.249C571.293 595.206 567.053 589.512 561.99 584.172C555.328 577.147 548.322 570.223 540.659 564.284C510.868 541.201 472.263 528.828 434.792 527.84C387.855 526.602 337.381 540.801 302.784 573.633C272.123 602.732 253.794 641.458 248.444 683.2C247.608 689.719 246.824 696.178 246.667 702.754C246.512 709.232 246.523 715.9 247.094 722.352L243.114 720.538C233.481 716.48 221.84 715.903 211.698 718.118C212.023 697.759 210.945 677.881 215.289 657.781C216.069 649.805 219.501 638.207 221.987 630.537C223.638 625.445 225.19 620.244 227.135 615.256C236.983 590.529 251.492 567.924 269.876 548.674C309.433 508.047 363.518 484.812 420.217 484.087Z" fill="#FEDC46"/>
<path d="M420.217 484.087C431.662 483.129 443.983 484.509 455.302 486.327C494.973 492.699 532.806 508.358 563.632 534.481C604.251 568.763 629.637 617.737 634.236 670.689C635.423 684.533 635.677 698.44 634.996 712.317C623.754 711.303 614.316 711.495 603.99 716.598C605.037 675.485 599.374 635.772 575.476 601.249C571.293 595.206 567.053 589.512 561.99 584.172C555.328 577.147 548.322 570.223 540.659 564.284C510.868 541.201 472.263 528.828 434.792 527.84C387.855 526.602 337.381 540.801 302.784 573.633C272.123 602.732 253.794 641.458 248.444 683.2C247.608 689.719 246.824 696.178 246.667 702.754C246.512 709.232 246.523 715.9 247.094 722.352L243.114 720.538C243.878 720.223 244.039 720.167 244.53 719.515C243.619 712.524 243.472 704.87 243.847 697.823C244.248 690.294 246.136 682.629 244.438 675.133C248.529 659.25 252.931 643.383 259.416 628.281C270.095 603.414 288.244 578.861 309.434 561.964C347.58 531.546 403.672 518.605 451.762 524.182C504.845 530.338 552.658 557.458 581.096 603.186C586.751 612.281 591.455 620.879 595.201 630.949C597.399 636.89 599.378 642.91 601.132 648.997C602.269 652.903 604.331 666.292 606.592 668.831C608.145 670.578 612.625 672.316 614.955 672.37C615.147 672.375 615.34 672.365 615.532 672.365C616.901 672.359 618.195 672.295 619.536 671.96C622.546 671.207 624.902 669.369 626.447 666.682C630.923 658.909 627.011 646.781 625.035 638.722C622.067 626.619 618.721 617.847 613.658 606.569C595.638 566.422 567.286 537.446 529.85 514.805C501.126 497.433 464.985 488.319 431.722 486.497C428.104 486.298 422.546 484.694 419.121 485.666C418.588 485.816 418.116 485.9 417.568 485.971L417.171 485.378C418.872 484.711 421.091 484.909 422.909 484.855L422.935 484.639L420.217 484.087Z" fill="#FE982A"/>
<path d="M211.698 718.118C212.023 697.759 210.945 677.881 215.289 657.781C215.443 659.746 215.806 661.699 215.863 663.664C216.048 670.028 215.603 674.981 220.914 679.499C224.047 682.165 228.046 683.54 232.169 683.177C235.904 682.85 239.865 681.134 242.328 678.249C243.136 677.301 243.786 676.192 244.438 675.133C246.136 682.629 244.248 690.294 243.847 697.823C243.472 704.87 243.619 712.524 244.53 719.515C244.039 720.167 243.878 720.223 243.114 720.538C233.481 716.48 221.84 715.903 211.698 718.118Z" fill="#FEA500"/>
<path d="M286.632 539.687C287.414 539.878 288.204 540.13 288.921 540.508C290.088 541.125 291.013 542.18 291.395 543.45C292.19 546.09 291.134 548.926 289.943 551.277C285.243 560.554 271.061 578.116 262.52 583.976C260.879 585.101 259.069 585.696 257.198 586.321C256.817 586.331 256.425 586.361 256.047 586.278C254.61 585.961 253.66 584.068 253.126 582.854C252.05 580.407 252.523 577.624 253.458 575.209C257.716 564.203 276.029 544.298 286.632 539.687Z" fill="#FEFEFA"/>
<path d="M313.792 519.098C315.304 518.873 316.863 518.789 318.37 519.102C319.992 519.441 321.704 520.357 322.532 521.853C323.141 522.953 323.084 524.185 322.702 525.347C320.491 532.057 310.774 538.496 304.734 541.364C303.505 541.791 302.137 542.217 300.845 541.782C299.361 541.283 297.85 539.762 297.183 538.367C296.52 536.982 296.569 535.53 297.065 534.1C299.156 528.059 308.304 521.805 313.792 519.098Z" fill="#FEFEFA"/>
<path d="M343.714 503.353C344.969 503.359 346.135 503.498 347.297 504.011C348.607 504.591 349.969 505.828 350.458 507.199C350.817 508.211 350.66 509.267 350.207 510.222C347.889 515.098 339.686 518.966 334.913 520.734C333.926 520.902 332.818 521.042 331.894 520.576C330.528 519.888 328.909 518.375 328.412 516.892C328.057 515.83 328.222 514.699 328.71 513.706C331.043 508.959 338.992 505.027 343.714 503.353Z" fill="#FEFEFA"/>
<path d="M405.703 487.769C407.678 487.657 409.708 487.472 411.653 487.925C413.64 488.386 415.161 489.018 416.23 490.801C416.373 491.723 416.352 492.203 415.821 493.002C413.96 495.798 408.197 495.87 405.136 496.183C402.435 496.547 399.306 497.353 396.753 496.02C395.766 495.503 395.416 494.932 395.082 493.902C395.123 492.831 395.344 492.128 396.04 491.285C398.325 488.519 402.384 488.126 405.703 487.769Z" fill="#FEFEFA"/>
<path d="M246.691 590.456C247.981 590.54 249.72 590.993 250.583 592.05C251.111 592.696 251.358 593.387 251.283 594.212C251.01 597.23 248.398 599.628 246.298 601.561L244.952 602.089C243.979 601.907 243.183 601.878 242.54 601.004C241.779 599.973 241.697 598.416 241.891 597.204C242.436 593.772 243.999 592.35 246.691 590.456Z" fill="#FEFEFA"/>
<path d="M231.707 618.824C232.859 618.807 234.111 618.867 235.166 619.401C236.003 619.825 236.453 620.443 236.582 621.377C236.862 623.418 234.395 625.887 233.186 627.309C233.011 627.384 232.846 627.485 232.664 627.537C231.75 627.8 231.113 627.56 230.3 627.17C229.644 626.325 229.332 625.662 229.304 624.572C229.241 622.006 229.965 620.622 231.707 618.824Z" fill="#FEFEFA"/>
<path d="M363.213 498.75C363.989 498.817 365.129 498.93 365.763 499.441C366.527 500.058 366.559 500.357 366.7 501.263C365.925 503.6 364.552 504.347 362.534 505.511C361.801 505.582 360.665 505.395 360.039 504.967C359.211 504.399 359.289 503.99 359.179 503.075C359.985 500.753 361.216 499.982 363.213 498.75Z" fill="#FEFEFA"/>
<path d="M486.857 773.006C497.155 770.426 510.68 774.395 518.71 781.132C522.017 783.905 525.308 788.033 529.362 789.682C531.089 790.384 533.285 790.615 535.001 789.746C539.908 787.259 539.282 777.433 540.965 772.751C542.796 767.665 546.305 762.504 551.341 760.19C557.564 757.332 565.162 756.945 570.944 761.077C573.301 762.763 575.692 765.276 578.456 766.196C585.117 768.412 588.003 756.865 589.722 752.545C590.53 750.55 591.485 748.62 592.583 746.768C596.264 740.481 601.405 734.978 608.104 731.924C618.422 727.22 629.679 727.592 640.129 731.633C650.147 735.507 659.304 744.096 662.87 754.374C664.062 757.807 664.343 761.523 665.839 764.861C666.501 766.338 667.57 768.335 669.306 768.706C671.394 769.153 674.025 768.321 676.065 767.83C685.472 765.566 693.114 764.579 702.392 768.032C711.061 771.617 717.678 777.049 721.388 785.904C724.449 793.204 724.577 802.844 721.548 810.18C718.695 817.091 712.798 822.553 705.937 825.385C700.411 827.665 688.744 829.554 683.181 827.345C678.479 825.478 678.212 817.669 670.094 821.023C664.685 823.257 662.538 834.271 659.977 839.218C658.144 842.758 655.781 846.043 653.209 849.081C647.398 856.071 640.177 861.757 632.017 865.765C614.842 874.298 589.398 876.756 571.365 869.858C563.767 866.951 556.731 861.943 553.234 854.424C552.083 851.949 551.07 849.021 549.057 847.097C547.729 845.827 545.835 845.311 544.101 844.876L543.589 845.023C537.93 846.672 536.516 851.768 532.128 855.033C527.951 858.139 522.791 859.583 517.745 860.512C504.276 862.99 491.106 861.771 478.891 855.195C467.952 849.306 460.383 839.558 456.883 827.685C453.4 815.865 454.4 802.982 460.367 792.118C464.853 783.951 472.092 776.92 481.194 774.275C483.055 773.741 484.946 773.317 486.857 773.006Z" fill="#FEFEFA"/>
<path d="M702.392 768.033C711.061 771.617 717.678 777.049 721.388 785.905C724.449 793.204 724.577 802.845 721.548 810.181C718.695 817.091 712.798 822.554 705.937 825.385C700.411 827.666 688.744 829.555 683.181 827.346C678.479 825.479 678.212 817.67 670.094 821.023C664.685 823.258 662.538 834.272 659.977 839.218C658.144 842.759 655.781 846.043 653.209 849.081C647.398 856.071 640.177 861.757 632.017 865.766C614.842 874.299 589.398 876.757 571.365 869.859C563.767 866.952 556.731 861.944 553.234 854.424C552.083 851.95 551.07 849.022 549.057 847.098C547.729 845.827 545.835 845.312 544.101 844.877L543.589 845.024C537.93 846.672 536.516 851.769 532.128 855.034C527.951 858.139 522.791 859.584 517.745 860.513C504.276 862.991 491.106 861.771 478.891 855.196C467.952 849.306 460.383 839.558 456.883 827.686C453.4 815.865 454.4 802.983 460.367 792.119C464.853 783.952 472.092 776.921 481.194 774.276C483.055 773.742 484.946 773.318 486.857 773.007C486.072 775.304 484.324 777.364 482.99 779.397C478.676 785.962 476.479 792.619 476.593 800.538C476.825 811.13 481.286 821.189 488.979 828.473C500.193 839.159 517.503 843.418 532.494 839.567C535.775 838.724 541.484 835.733 544.798 836.422C547.86 837.059 550.782 840.313 553.353 842.024C564.182 849.233 578.044 851.937 590.849 851.553C612.482 850.904 632.373 840.464 643.717 821.809C646.821 816.703 648.785 809.749 652.986 805.525C657.069 801.42 666.993 805.692 672.121 806.673C675.506 807.351 678.956 807.656 682.408 807.581C689.691 807.362 698.356 805.295 703.489 799.746C709.71 793.017 708.418 783.508 705.142 775.776C704.223 773.601 702.387 770.65 702.381 768.308C702.381 768.216 702.389 768.125 702.392 768.033Z" fill="#E4C8B8"/>
<path d="M142.046 773.176C149.919 768.517 160.698 769.346 169.245 771.538C172.204 772.297 176.128 773.805 178.951 772.005C184.31 768.587 183.615 760.613 186.27 755.308C194.579 738.706 213.386 731.277 231.062 734.52C240.641 736.277 248.904 741.292 254.445 749.361C256.084 751.774 257.467 754.353 258.571 757.055C260.331 761.31 262.03 770.73 267.145 771.801C269.332 772.261 271.887 771.945 273.774 770.686C275.751 769.366 277.202 767.152 278.881 765.491C282.203 762.205 288.29 761.21 292.757 761.9C298.338 762.764 303.222 766.122 306.474 770.68C311.268 777.396 309.849 782.875 311.814 790.163C313.522 791.96 315.167 793.652 317.828 793.719C326.927 793.947 336.561 770.629 362.541 777.258C363.978 777.429 365.519 777.78 366.901 778.207C375.973 781.015 383.998 788.451 388.303 796.815C393.715 807.333 394.857 821.309 391.147 832.544C387.083 844.853 378.224 854.999 366.577 860.686C354.366 866.799 340.504 867.375 327.571 863.437C323.911 862.323 319.895 860.858 316.877 858.434C313.821 855.979 312.561 851.352 308.484 850.149C300.28 847.727 298.29 858.891 294.794 863.714C292.345 867.092 288.649 869.989 284.939 871.856C268.789 879.981 247.608 878.609 230.83 872.984C214.782 867.605 199.028 857.172 190.7 842.034C187.949 837.03 186.392 831.62 183.81 826.598C182.719 824.478 181.061 822.657 178.713 821.971C176.597 821.354 173.877 821.795 171.979 822.876C169.367 824.365 168.272 826.731 167.533 829.483C159.517 831.528 152.229 831.99 144.307 829.255C137.25 826.817 131.61 821.417 128.406 814.721C124.774 807.131 124.222 797.735 127.051 789.795C129.619 782.469 135.022 776.482 142.046 773.176Z" fill="#FEFEFA"/>
<path d="M167.533 829.484C159.517 831.528 152.229 831.991 144.307 829.256C137.25 826.817 131.61 821.418 128.406 814.721C124.774 807.131 124.222 797.735 127.051 789.795C129.619 782.47 135.022 776.482 142.046 773.176C142.035 773.277 142.028 773.378 142.015 773.478C141.707 775.983 140.511 778.38 139.772 780.785C137.422 788.431 137.615 796.121 142.595 802.756C146.82 808.386 154.145 810.918 160.885 811.804C164.723 812.308 168.534 812.1 172.353 811.536C177.376 810.796 189.294 806.738 193.587 808.296C195.196 808.879 197.132 811.197 198.172 812.527C201.687 817.019 203.82 822.494 206.999 827.218C218.04 843.618 234.647 852.31 253.949 854.823C266.277 856.427 280.369 854.979 291.51 849.195C295.762 846.988 299.721 843.874 304.233 842.264C304.409 842.201 304.585 842.13 304.761 842.065C321.178 846.395 335.593 847.656 350.987 838.624C360.326 833.145 367.177 824.702 369.917 814.167C373.247 801.36 371.551 793.139 364.981 782.089C364.019 780.471 362.899 779.145 362.541 777.258C363.978 777.43 365.519 777.78 366.901 778.207C375.973 781.016 383.998 788.451 388.303 796.816C393.715 807.333 394.857 821.309 391.147 832.545C387.083 844.853 378.224 854.999 366.577 860.687C354.366 866.8 340.504 867.375 327.571 863.437C323.911 862.323 319.895 860.858 316.877 858.434C313.821 855.979 312.561 851.352 308.484 850.149C300.28 847.728 298.29 858.892 294.794 863.714C292.345 867.092 288.649 869.99 284.939 871.857C268.789 879.981 247.608 878.61 230.83 872.985C214.782 867.605 199.028 857.173 190.7 842.034C187.949 837.031 186.392 831.62 183.81 826.598C182.719 824.479 181.061 822.657 178.713 821.972C176.597 821.355 173.877 821.796 171.979 822.876C169.367 824.365 168.272 826.732 167.533 829.484Z" fill="#E4C8B8"/>
<path d="M358.992 455.077C426.455 437.743 498.03 447.672 558.229 482.712C560.557 484.082 562.825 485.519 564.976 487.157C594.919 504.968 627.379 537.841 644.333 568.121C658.829 592.826 669.901 622.505 673.666 650.939C675.298 663.266 675.596 675.824 675.671 688.249C675.769 704.362 675.062 719.852 671.828 735.686C663.272 725.613 658.497 721.155 646.659 715.088C649.114 689.359 645.639 659.983 639.797 634.876C638.075 627.476 634.443 620.131 633.345 612.685C612.23 558.664 570.476 515.272 517.308 492.093C461.041 467.268 397.168 466.04 339.987 488.681C286.112 509.255 242.817 550.698 219.906 603.621C214.834 615.03 210.741 626.848 207.672 638.951C206.29 644.335 204.907 653.006 203.095 657.772C202.456 666.011 201.693 674.364 200.401 682.53C199.79 695.054 198.642 708.346 200.418 720.797C188.843 725.708 184.351 731.068 176.167 739.947C175.49 733.228 174.132 726.593 173.414 719.877C171.978 706.437 171.839 689.231 173.531 675.782C173.456 671.386 174.383 666.744 175.018 662.399C176.425 650.8 178.106 639.273 181.149 627.967C193.875 580.683 214.275 543.757 250.936 510.804C259.876 502.769 269.525 494.592 279.972 488.574C283.067 486.162 286.719 484.254 290.111 482.275C311.223 469.951 335.19 460.663 358.992 455.077Z" fill="#FE982A"/>
<path d="M644.333 568.121C658.829 592.826 669.901 622.505 673.666 650.939C675.298 663.266 675.596 675.824 675.671 688.249C675.769 704.361 675.062 719.852 671.828 735.685C663.272 725.613 658.497 721.154 646.659 715.087C649.114 689.359 645.639 659.983 639.796 634.876C638.075 627.476 634.443 620.131 633.345 612.685C641.18 623.345 646.17 647.27 647.731 660.457C648.727 668.875 648.986 677.564 649.393 686.044C649.759 693.637 649.364 701.746 650.616 709.234C650.994 711.498 651.661 713.581 653.203 715.334C655.01 717.388 657.823 719.048 660.62 719.064C662.746 719.076 664.689 718.158 666.198 716.693C677.847 705.376 670.819 649.805 667.657 634.179C665.944 625.717 663.078 616.975 660.321 608.795C657.536 600.535 653.804 592.08 650.204 584.155C648.355 580.084 645.668 575.488 644.469 571.199C644.238 570.369 644.273 569.445 644.307 568.591C644.313 568.435 644.325 568.277 644.333 568.121Z" fill="#F66306"/>
<path d="M198.192 681.234C197.778 674.189 200.425 664.209 203.095 657.772C202.456 666.011 201.693 674.365 200.401 682.53C199.79 695.055 198.642 708.346 200.418 720.797C188.843 725.708 184.351 731.068 176.167 739.947C175.49 733.228 174.132 726.593 173.414 719.877C171.978 706.437 171.839 689.231 173.531 675.782C174.271 681.009 173.958 686.681 175.075 691.753C175.078 699.974 175.251 709.902 179.173 717.284C180.53 719.839 183.676 723.284 186.552 724.032C187.972 724.403 189.812 723.697 190.991 722.93C192.914 721.678 194.217 719.598 194.884 717.436C195.696 714.8 195.774 711.897 195.993 709.165C196.735 699.92 196.116 690.304 198.192 681.234Z" fill="#F66306"/>
<path d="M358.992 455.077C426.455 437.743 498.03 447.672 558.229 482.712C560.557 484.082 562.825 485.519 564.976 487.157C561.854 486.588 550.312 479.187 546.626 477.161C537.574 472.187 528.246 468.463 518.57 464.949C487.175 453.546 454.261 446.743 420.723 447.263C414.459 447.36 406.944 446.914 400.892 448.67L400.704 449.104C404.793 449.408 408.986 448.694 413.074 448.491C418.117 448.238 423.282 448.359 428.332 448.505C462.394 449.487 488.989 455.101 520.85 466.946L520.918 467.165C517.128 466.366 513.756 464.641 510.098 463.403C502.683 460.871 495.16 458.66 487.555 456.774C457.917 449.539 427.274 447.34 396.906 450.272C385.841 451.448 374.853 453.61 363.906 455.585C356.494 458.22 348.662 459.953 341.121 462.255C333.029 464.727 324.876 467.97 317.084 471.264C309.453 474.49 301.809 478.018 294.484 481.887C290.804 483.831 287.172 486.45 283.318 487.988C282.27 488.407 281.087 488.481 279.973 488.574C283.067 486.162 286.719 484.254 290.111 482.275C311.223 469.951 335.19 460.663 358.992 455.077Z" fill="#F66306"/>
<path d="M175.02 662.398L175.598 665.352C176.547 670.351 175.555 675.977 175.283 681.022C175.09 684.594 175.184 688.177 175.077 691.753C173.96 686.681 174.272 681.008 173.533 675.782C173.457 671.386 174.385 666.744 175.02 662.398Z" fill="#F97C0D"/>
<path d="M427.221 405.806C438.051 404.901 455.618 407.201 466.525 408.909C521.544 417.523 572.503 438.599 615.239 474.787C650.976 505.05 680.618 546.771 695.553 591.292C695.51 591.405 695.466 591.517 695.425 591.63C694.753 593.527 694.909 595.267 694.662 597.22C693.955 602.799 691.226 608.887 685.943 611.425C684.219 612.251 682.476 612.539 680.606 612.779C678.861 611.257 677.179 609.409 675.29 608.096C673.034 603.067 671.39 597.618 669.37 592.472C666.37 584.83 662.844 577.49 659.022 570.226C640.206 534.46 611.072 503.454 577.53 481.083C572.506 477.735 567.399 474.173 562.036 471.386C551.921 466.099 541.917 460.79 531.373 456.382C487.296 437.933 439.168 431.304 391.746 437.154C375.836 439.053 359.456 441.799 344.126 446.635C321.968 453.629 301.275 462.904 280.879 473.994C248.88 492.163 222.193 519.578 201.809 550.009C198.661 554.707 195.87 559.616 193.181 564.589C191.706 567.315 190.259 570.807 188.39 573.239C187.362 573.803 186.766 574.32 186.107 575.299C184.058 578.348 182.732 582.116 181.289 585.491C177.548 594.244 174.282 603.177 170.6 611.948C167.306 612.847 163.727 614.091 160.478 612.313C156.757 610.277 154.344 603.636 153.348 599.721C153.039 598.506 152.88 597.593 152.19 596.516C161.064 566.548 175.58 538.549 194.958 514.027C198.863 509.04 202.861 503.586 207.602 499.355C214.692 490.401 223.13 482.406 231.686 474.873C264.393 446.072 300.568 427.452 342.947 416.948C346.5 414.716 370.699 409.957 375.842 409.234C379.523 408.716 383.112 408.437 386.834 408.459L390.498 407.807C397.276 405.439 409.56 405.812 416.767 405.8C420.249 405.763 423.742 405.664 427.221 405.806Z" fill="#FF4945"/>
<path d="M342.947 416.948C344.87 417.912 346.628 418.641 347.822 420.528C348.061 421.563 348.018 422.23 347.478 423.174C346.416 425.035 344.55 426.267 342.678 427.209C336.51 430.309 329.465 432.316 323.058 434.965C309.48 440.582 295.814 447.018 283.083 454.348C276.035 458.406 263.25 468.054 256.003 469.648C255.336 469.796 254.665 469.923 253.99 470.029C251.583 468.013 250.606 466.475 249.613 463.499C243.263 470.355 236.36 476.682 230.115 483.631C224.763 489.586 219.01 497.849 213.059 502.853C212.092 503.667 210.965 504.145 209.692 504.194C208.848 504.226 208.605 503.988 207.924 503.545C207.197 502.141 207.434 500.874 207.603 499.356C214.692 490.402 223.13 482.406 231.686 474.873C264.394 446.073 300.568 427.452 342.947 416.948Z" fill="#FEFEFA"/>
<path d="M280.879 473.994C280.856 473.369 280.95 472.904 281.115 472.303C284.995 468.219 292.002 465.385 297.024 462.891C305.563 458.653 313.939 454.369 322.769 450.739C334.251 446.019 348.424 441.686 360.503 438.577C368.39 436.547 376.672 435.191 384.727 434.005C442.296 425.532 504.991 435.406 555.377 465.225C558.094 466.832 561.217 468.189 562.036 471.386C551.921 466.099 541.917 460.79 531.373 456.382C487.297 437.933 439.169 431.304 391.746 437.154C375.836 439.053 359.456 441.799 344.126 446.635C321.968 453.628 301.275 462.904 280.879 473.994Z" fill="#EB1F08"/>
<path d="M416.767 405.8C420.249 405.763 423.742 405.664 427.221 405.806C427.652 405.864 428.085 405.925 428.509 406.023C429.861 406.334 431.469 407.463 432.152 408.684C432.535 409.379 432.602 410.205 432.337 410.952C431.947 412.056 431.281 412.867 430.198 413.338C427.236 414.623 415.041 415.616 412.11 414.167C411.543 413.887 411.314 413.451 411.156 412.852C410.686 411.069 410.463 408.661 411.378 407.004C412.648 405.965 415.131 406.019 416.767 405.8Z" fill="#FEFEFA"/>
<path d="M390.498 407.807C392.071 408.314 393.296 409.371 393.991 410.896C394.425 411.85 394.543 412.679 394.182 413.64C391.73 415.553 387.077 416.526 384.007 416.127C382.961 415.991 382.369 415.644 381.559 414.995C381.054 414.143 380.73 413.316 380.969 412.301C381.266 411.03 382.159 410.325 383.251 409.731C384.42 409.094 385.53 408.703 386.834 408.459L390.498 407.807Z" fill="#FEFEFA"/>
<path d="M366.195 414.832C366.402 414.831 366.608 414.827 366.815 414.83C367.807 414.845 368.682 415.078 369.362 415.854C369.809 416.365 369.942 417.095 369.818 417.759C369.475 419.584 368.163 420.631 366.732 421.646C366.388 421.649 366.169 421.661 365.843 421.635C364.697 421.546 363.986 421.147 363.224 420.286C363.057 419.778 362.901 419.323 362.993 418.778C363.314 416.878 364.723 415.878 366.195 414.832Z" fill="#FDC9C9"/>
<path d="M404.241 409.143C404.603 409.178 405.112 409.194 405.463 409.332C406.279 409.654 407.03 410.347 407.252 411.23C407.472 412.11 407.289 413.11 406.771 413.865C406.026 414.954 405.103 415.013 403.915 415.333C402.167 414.551 400.945 413.465 399.529 412.206C401.004 410.947 402.55 410.071 404.241 409.143Z" fill="#FEFEFA"/>
<path d="M385.514 606.613C405.079 598.701 419.417 594.857 440.756 598.876C448.083 600.256 454.842 602.11 461.709 605.021C476.343 611.224 488.24 621.256 498.32 633.39C508.764 644.805 515.892 660.479 519.911 675.261C520.599 677.789 521.618 680.775 521.765 683.379C523.249 689.304 524.365 695.126 524.459 701.25C524.543 703.473 524.687 705.705 524.555 707.929L524.501 708.618C525.1 712.57 524.798 716.88 524.818 720.882C524.913 730.105 524.68 739.33 524.12 748.537C523.738 754.569 522.864 760.612 522.783 766.651C515.199 762.123 508.464 759.234 499.719 757.721C499.679 753.247 499.54 748.75 499.606 744.278C499.249 738.754 498.758 733.241 498.132 727.742C495.014 701.931 485.543 672.895 464.218 656.349C450.311 645.559 434.571 640.825 416.979 643.185C399.673 645.506 383.804 655.547 373.398 669.4C358.615 689.083 352.156 712.087 349.597 736.241C348.713 744.59 348.065 753.023 349.254 761.382C339.588 763.476 334.684 765.889 326.556 771.5C326.254 763.587 324.785 755.647 324.208 747.729C323.545 738.65 323.816 729.318 323.905 720.216C323.801 689.723 330.46 663.563 347.829 638.222C355.915 624.335 370.859 612.554 385.514 606.613Z" fill="#76CAF6"/>
<path d="M323.905 720.217C327.895 720.174 331.163 723.777 335.609 723.613C350.708 723.054 352.424 701.639 356.867 691.122C361.161 680.956 366.537 671.247 374.042 663.095C387.559 648.417 403.787 638.697 424.237 637.982C447.933 637.154 469.838 652.726 482.35 671.897C486.617 678.433 489.992 686.912 495.713 692.195C498.804 695.05 502.809 697.263 507.134 696.971C510.512 696.743 514.571 694.946 516.763 692.321C518.598 690.126 519.302 688.197 519.091 685.369C519.79 687.59 520.597 689.834 521.013 692.125C520.623 689.276 521.674 686.287 521.765 683.379C523.249 689.304 524.365 695.126 524.459 701.25C524.543 703.474 524.687 705.705 524.555 707.929L524.501 708.618C525.1 712.57 524.798 716.88 524.818 720.882C524.913 730.105 524.68 739.33 524.12 748.538C523.738 754.57 522.864 760.612 522.783 766.652C515.199 762.123 508.464 759.235 499.719 757.721C499.679 753.247 499.54 748.751 499.606 744.278C499.249 738.755 498.758 733.242 498.132 727.742C495.014 701.931 485.543 672.895 464.218 656.35C450.311 645.559 434.571 640.826 416.979 643.186C399.673 645.506 383.804 655.548 373.398 669.401C358.615 689.084 352.156 712.088 349.597 736.241C348.713 744.59 348.065 753.024 349.254 761.382C339.588 763.476 334.684 765.89 326.556 771.501C326.254 763.588 324.785 755.647 324.208 747.73C323.545 738.65 323.816 729.319 323.905 720.217Z" fill="url(#paint0_linear_1_973)"/>
<path d="M524.501 708.618C525.1 712.57 524.798 716.88 524.818 720.882C524.913 730.105 524.68 739.33 524.12 748.537C523.737 754.569 522.863 760.612 522.782 766.651C515.198 762.123 508.464 759.234 499.719 757.721C499.679 753.247 499.539 748.75 499.605 744.278C502.077 744.445 504.231 745.83 506.693 746.164C509.966 746.606 513.836 745.098 516.386 743.089C518.275 741.619 519.792 739.725 520.814 737.559C522.62 733.682 524.125 724.695 524.264 720.346C524.386 716.575 524.01 712.668 524.46 708.927C524.472 708.824 524.487 708.72 524.501 708.618Z" fill="#6197D6"/>
<path d="M521.764 683.379C523.249 689.304 524.365 695.126 524.458 701.25C524.542 703.474 524.686 705.705 524.554 707.929C523.081 703.622 522.132 703.569 521.755 698.308C521.594 696.231 521.314 694.187 521.013 692.125C520.622 689.277 521.674 686.287 521.764 683.379Z" fill="#5D89CF"/>
<path d="M385.513 606.613C387.443 607.245 389.086 608.771 390.048 610.552C390.708 611.769 391.089 613.344 390.576 614.685C388.288 620.668 362.316 643.11 355.81 645.64C354.376 646.197 352.934 646.718 351.469 645.972C350.044 645.245 349.215 643.785 348.765 642.298C348.364 640.978 348.185 639.564 347.828 638.222C355.914 624.335 370.858 612.554 385.513 606.613Z" fill="#FEFEFA"/>
<path d="M498.319 633.39C508.764 644.804 515.892 660.479 519.911 675.261C520.598 677.789 521.617 680.775 521.764 683.379C521.674 686.287 520.622 689.276 521.013 692.124C520.596 689.833 519.79 687.589 519.09 685.369C518.466 683.139 518.197 680.794 517.601 678.536C515.264 669.662 512.163 660.762 507.916 652.612C506.437 649.777 504.858 646.947 503.147 644.249C501.422 641.529 498.875 638.688 497.846 635.641C497.511 634.649 497.901 634.274 498.319 633.39Z" fill="#6197D6"/>
<path d="M338.924 660.002C340.215 659.947 341.899 660.309 342.845 661.256C343.59 662.001 343.85 663.01 343.821 664.037C343.723 667.447 341.369 670.5 339.042 672.769C338.93 672.812 338.821 672.862 338.706 672.896C337.494 673.263 336.645 673.099 335.55 672.527C335.106 671.964 334.816 671.546 334.724 670.819C334.255 667.083 336.646 662.753 338.924 660.002Z" fill="#FEFEFA"/>
<path d="M402.475 602.831C403.15 602.759 403.837 602.683 404.516 602.689C405.778 602.703 407.324 603.162 408.083 604.245C408.74 605.187 408.614 606.319 408.262 607.339C407.365 609.941 405.339 610.767 403.023 611.819C402.224 611.962 401.399 612.123 400.584 612.086C399.48 612.036 398.347 611.716 397.683 610.759C397.001 609.777 397.167 608.647 397.509 607.584C398.344 604.983 400.205 603.987 402.475 602.831Z" fill="#FEFEFA"/>
<path d="M383.365 544.368C389.674 542.327 396.612 541.635 403.163 540.731C438.698 535.822 475.87 540.671 508.001 557.146C510.324 558.337 512.599 559.624 514.815 561.005C548.794 579.008 573.969 611.331 585.146 647.868C588.682 659.43 591.69 672.67 591.504 684.83C593.001 691.389 592.579 702.9 592.361 709.922C592.242 713.755 591.858 717.814 592.588 721.596C584.366 728.543 578.688 735.704 574.446 745.654C572.533 744.712 570.588 743.804 568.739 742.742C569.95 733.148 570.873 724.199 570.836 714.499C570.813 708.502 570.026 701.997 570.397 696.066C568.944 687.168 568.128 678.039 566.305 669.225C560.352 640.435 547.718 617.041 525.917 597.285C497.275 571.327 457.779 560.783 419.786 562.7C413.304 563.432 406.844 563.815 400.437 565.128C365.083 572.332 333.384 591.726 310.874 619.921C302.505 630.424 295.833 641.713 290.867 654.213C289.204 658.398 288.173 662.915 286.385 667.016C280.03 686.523 279.228 710.273 280.428 730.635C280.742 735.958 281.024 741.69 282.308 746.88C279.625 747.926 277.125 749.156 274.586 750.509C270.426 741.687 266.229 734.962 258.835 728.399C258.212 715.784 256.702 701.659 259.233 689.185C260.106 674.799 263.361 659.659 268.64 646.279C270.985 636.488 277.431 623.876 283.405 615.784C285.352 611.081 289.084 606.667 292.068 602.577C295.545 596.155 301.622 590.529 306.974 585.614C310.9 580.39 319.174 574.401 324.666 570.769C329.726 566.712 334.735 563.054 340.746 560.496C344.173 558.346 348.092 556.638 351.703 554.791C355.032 553.479 358.194 551.774 361.54 550.517C368.67 547.839 375.964 546.099 383.365 544.368Z" fill="#A7D750"/>
<path d="M283.101 669.678C283.769 664.716 285.715 659.631 287.461 654.961C296.497 630.793 313.101 609.486 333.01 593.186C351.73 577.86 379.276 565.411 403.206 562.054C407.453 561.457 412.025 560.822 416.307 561.251C415.678 561.742 412.279 561.656 411.374 561.717C406.501 562.05 401.654 562.677 396.857 563.597C381.926 566.419 367.487 572.473 354.28 579.897C351.432 581.5 335.863 590.069 335.135 592.673L335.938 592.835C339.351 591.894 341.812 589.399 344.655 587.44C355.515 579.951 369.65 573.478 382.204 569.376C384.354 568.674 386.52 568.368 388.65 567.729C396.435 565.395 402.093 563.716 410.338 562.896C413.442 562.587 416.699 562.115 419.786 562.7C413.304 563.432 406.844 563.814 400.437 565.128C365.083 572.332 333.384 591.725 310.874 619.921C302.505 630.424 295.833 641.713 290.867 654.213C289.204 658.398 288.173 662.914 286.385 667.016C280.03 686.523 279.228 710.272 280.428 730.635C280.742 735.958 281.024 741.69 282.308 746.88C279.625 747.925 277.125 749.156 274.586 750.509C270.426 741.687 266.229 734.962 258.835 728.399C258.212 715.784 256.702 701.658 259.233 689.184C260.471 691.407 260.661 694.318 261.284 696.782C262.262 700.657 264.633 705.869 268.26 707.877C271.165 709.486 273.648 708.967 276.665 708.208C277.984 701.986 278.334 695.464 279.163 689.155C280.027 682.565 281.441 676.111 283.101 669.678Z" fill="#98A933"/>
<path d="M588.547 684.686C588.733 684.562 588.963 684.486 589.107 684.313C589.535 683.796 588.75 671.443 589.263 669.323C590.288 673.689 589.37 678.495 590.775 682.709C591.012 683.418 591.25 684.128 591.504 684.83C593.001 691.389 592.578 702.9 592.361 709.922C592.241 713.755 591.857 717.814 592.587 721.596C584.365 728.543 578.687 735.704 574.446 745.654C572.533 744.711 570.587 743.804 568.738 742.742C569.949 733.148 570.872 724.199 570.835 714.498C570.812 708.502 570.025 701.997 570.396 696.066C574.262 696.218 578.385 696.566 581.938 694.702C585.903 692.621 587.402 688.721 588.547 684.686Z" fill="#98A933"/>
<path d="M383.365 544.367C385.023 544.614 387.892 546.239 388.837 547.623C389.389 548.431 389.516 549.308 389.267 550.252C388.474 553.234 383.901 555.566 381.299 556.798C375.605 559.495 359.346 566.291 353.576 564.485C352.552 564.163 351.764 563.245 351.299 562.308C350.132 559.954 351.393 557.213 351.703 554.79C355.032 553.479 358.194 551.774 361.539 550.517C368.67 547.838 375.963 546.098 383.365 544.367Z" fill="#FEFEFA"/>
<path d="M514.814 561.004C548.794 579.008 573.968 611.33 585.146 647.867C588.681 659.429 591.689 672.67 591.504 684.83C591.25 684.127 591.012 683.417 590.775 682.708C589.37 678.495 590.288 673.689 589.263 669.322C588.75 671.442 589.535 683.795 589.107 684.312C588.963 684.485 588.733 684.562 588.547 684.686C589.2 677.287 587.587 669.25 586.017 662.022C579.426 630.725 562.893 602.399 538.883 581.271C535.985 578.723 533.063 576.139 530.014 573.773C527.162 571.56 516.652 565.666 515.513 563.012C515.244 562.384 515.047 561.654 514.814 561.004Z" fill="url(#paint1_linear_1_973)"/>
<path d="M283.405 615.784C285.385 615.827 287.813 615.965 289.242 617.543C289.884 618.25 290.116 618.946 290.219 619.889C288.782 624.779 279.266 641.753 275.953 646.276C275.108 647.428 273.928 648.726 272.618 649.357C272.091 649.611 271.583 649.614 271.012 649.629C270.12 649.216 269.561 648.945 269.134 648.005C268.892 647.477 268.773 646.844 268.64 646.279C270.984 636.488 277.431 623.876 283.405 615.784Z" fill="#FEFEFA"/>
<path d="M306.974 585.614C309.256 587.223 311.945 588.825 312.408 591.834C312.884 594.935 310.305 598.681 308.437 600.992C305.851 604.194 300.373 610.172 296.032 610.571C295.004 610.665 294.082 610.372 293.334 609.653C291.534 607.92 292.008 604.861 292.068 602.577C295.546 596.155 301.622 590.529 306.974 585.614Z" fill="#FEFEFA"/>
<path d="M340.744 560.496C342.234 562.022 345.107 564.376 345.14 566.689C345.18 569.516 340.908 573.385 338.865 575.055C335.971 577.422 330.926 581.087 326.986 580.686C326.005 580.586 325.047 580.131 324.432 579.348C323.544 578.218 323.198 576.331 323.416 574.932C323.517 574.276 323.754 573.64 323.962 573.014C324.21 572.271 324.479 571.53 324.665 570.769C329.725 566.712 334.734 563.054 340.744 560.496Z" fill="#FEFEFA"/>
<path d="M386.276 580.381C420.447 569.17 457.641 571.712 489.969 587.468C491.528 588.242 493.106 588.995 494.619 589.859C524.063 605.755 543.291 629.515 552.873 661.56C556.012 672.06 558.305 684.275 558.181 695.26C559.408 705.758 559.488 716.153 559.004 726.711C558.771 731.78 558.061 737.057 558.181 742.111C548.211 743.743 541.668 746.441 534.479 753.695C535.916 745.44 535.975 736.937 536.179 728.574C536.266 724.96 536.017 720.939 536.654 717.401C536.13 710.178 536.156 702.923 535.498 695.702C534.678 686.696 532.582 677.538 529.892 668.908C520.407 638.489 501.716 612.54 473.093 597.626C447.025 584.043 417.653 583.785 390.033 592.563C368.304 599.469 349.065 615.627 336.59 634.512C332.878 640.129 329.886 646.219 326.788 652.186C324.472 658.494 321.341 664.428 319.495 670.935C313.305 692.748 309.298 733.631 314.224 755.539C307.215 749.536 301.532 747.425 292.637 745.42C291.875 733.161 291.148 721.253 291.644 708.957C291.763 705.992 291.666 702.775 292.162 699.859C292.051 694.003 293.099 688.267 294.239 682.552C297.969 663.865 304.861 646.844 315.991 631.298C330.545 611.106 350.236 595.174 373.021 585.152C377.132 583.355 381.836 581.121 386.276 580.381Z" fill="#83EBE9"/>
<path d="M310.18 719.34C310.082 698.114 313.852 673.818 323.174 654.507C324.783 651.177 327.23 648.166 329.012 644.863C328.519 647.395 326.462 649.75 326.788 652.185C324.472 658.494 321.341 664.428 319.495 670.935C313.305 692.748 309.298 733.63 314.224 755.539C307.215 749.536 301.532 747.425 292.637 745.42C291.875 733.161 291.148 721.253 291.644 708.956C291.763 705.992 291.666 702.775 292.162 699.859C292.602 703.163 291.521 706.705 292.386 709.901C293.203 710.689 293.779 711.355 294.229 712.412C294.836 713.842 295.499 715.247 296.306 716.579C297.695 718.87 299.694 721.069 302.425 721.623C305.386 722.223 307.786 720.878 310.18 719.34Z" fill="#76CAF6"/>
<path d="M558.181 695.259C559.408 705.757 559.488 716.152 559.004 726.71C558.771 731.779 558.061 737.057 558.181 742.11C548.211 743.742 541.667 746.44 534.479 753.694C535.916 745.439 535.975 736.936 536.179 728.573C536.266 724.959 536.017 720.938 536.653 717.4C538.541 717.749 540.145 718.489 542.114 718.647C545.809 718.944 549.579 718.127 552.372 715.566C557.291 711.056 558.044 701.586 558.181 695.259Z" fill="#76CAF6"/>
<path d="M386.275 580.381C420.446 569.17 457.64 571.712 489.968 587.468C491.528 588.242 493.106 588.995 494.618 589.859C494.271 590.2 493.92 590.532 493.525 590.818C490.545 592.973 484.518 589.217 481.276 588.48C479.477 588.071 477.622 588.059 475.809 587.728C470.794 586.814 465.989 584.362 461.139 582.809C452.877 580.163 443.331 578.927 434.68 578.5C426.042 578.075 416.799 578.849 408.181 579.687C406.081 579.89 400.817 581.577 399.181 581.266C402.343 579.137 406.191 580.201 409.283 577.071L408.943 576.589C403.186 574.57 391.383 581.223 386.275 580.381Z" fill="url(#paint2_linear_1_973)"/>
<path d="M388.379 669.735C395.173 662.681 403.055 657.887 412.634 655.533C426.402 652.148 440.162 654.665 452.209 661.882C458.268 665.043 465.116 672.004 468.751 677.856C478.207 689.818 484.006 707.716 486.049 722.603C487.433 734.006 488.347 745.252 488.417 756.742C479.548 757.653 473.822 759.442 465.93 763.52C466.105 753.949 464.039 739.669 461.896 730.337C458.893 717.254 453.155 704.5 441.311 697.164C433.408 692.269 422.778 691.19 413.834 693.379C402.12 696.244 395.649 704.341 389.663 714.221C387.364 719.799 384.947 725.697 384.002 731.684C382.01 743.326 380.653 754.621 380.68 766.451C373.932 763.267 367.75 761.619 360.296 761.068C360.22 751.76 359.603 734.376 362.517 725.888C362.522 725.775 362.523 725.66 362.534 725.545C362.764 722.856 363.541 719.985 364.126 717.348C367.785 700.819 375.574 681.217 388.379 669.735Z" fill="#C192E1"/>
<path d="M389.663 714.221C389.231 711.967 390.991 709.447 392.24 707.637C397.083 700.61 402.695 696.785 410.255 693.233L410.045 692.763C409.554 691.626 410.062 690.563 409.496 689.815C404.615 690.17 395.88 699.312 392.676 703.022C392.155 703.628 391.622 704.236 391.114 704.854C389.782 706.478 389.755 709.455 389.064 711.458C388.748 708.97 389.421 706.314 390.955 704.331C398.255 694.884 407.742 687.619 419.948 686.296C429.875 685.22 439.396 688.878 447.02 695.06C453.571 700.373 457.578 706.155 460.93 713.785C463.991 720.753 466.588 743.543 477.345 742.311C480.27 741.976 482.829 739.795 484.6 737.58C484.725 734.365 484.78 731.184 484.722 727.965C484.762 727.401 484.737 726.869 484.725 726.305C484.684 724.485 484.812 723.882 486.049 722.604C487.433 734.006 488.346 745.253 488.417 756.743C479.547 757.653 473.821 759.443 465.93 763.52C466.104 753.949 464.038 739.669 461.895 730.338C458.893 717.255 453.154 704.5 441.311 697.165C433.407 692.27 422.778 691.191 413.833 693.38C402.12 696.245 395.649 704.341 389.663 714.221Z" fill="#9F66BA"/>
<path d="M362.517 725.889L362.996 725.861L363.916 723.91C364.437 729.839 363.391 738.612 368.565 742.775C369.565 743.582 370.767 743.839 372.024 743.62C373.318 743.395 374.431 742.674 375.611 742.14C380.437 739.953 381.288 735.7 384.002 731.685C382.01 743.326 380.653 754.622 380.68 766.451C373.932 763.268 367.75 761.619 360.296 761.068C360.22 751.761 359.603 734.377 362.517 725.889Z" fill="#9F66BA"/>
<path d="M388.379 669.735C395.173 662.681 403.055 657.887 412.633 655.533C426.402 652.148 440.162 654.665 452.209 661.882C452.119 662.067 452.022 662.251 451.938 662.441C451.072 664.414 452.885 665.661 451.001 667.663C448.557 667.73 445.539 664.334 443.241 663.168C434.886 658.923 423.026 657.728 413.867 659.664C410.434 660.402 407.107 661.561 403.96 663.116C401.627 664.271 390.786 672.267 388.768 670.364C388.604 670.211 388.48 669.934 388.379 669.735Z" fill="#F7C5FE"/>
<path d="M468.75 677.857C478.206 689.818 484.005 707.716 486.048 722.604C484.812 723.882 484.683 724.485 484.724 726.305C484.737 726.87 484.761 727.401 484.721 727.966C483.561 724.127 483.044 720.167 482.24 716.248C481.227 711.309 479.836 706.342 478.235 701.562C477.168 698.362 475.921 695.226 474.497 692.168C472.905 688.784 470.262 684.712 469.502 681.109C469.272 680.02 469.003 678.941 468.75 677.857Z" fill="#AE77B9"/>
<path d="M170.6 611.949C174.283 603.177 177.548 594.245 181.29 585.492C182.732 582.117 184.058 578.349 186.108 575.3C186.766 574.32 187.363 573.803 188.39 573.24C184.648 582.706 180.655 592.186 177.281 601.789C171.89 617.133 167.432 633.707 164.705 649.775C163.521 656.749 162.988 663.856 162.269 670.89C161.478 678.63 160.576 686.177 160.417 693.969C160.466 698.507 160.539 703.044 160.637 707.58C161.48 717.57 162.652 727.912 164.448 737.777C165.503 743.574 167.045 749.268 168.117 755.064C160.157 754.241 152.51 753.938 144.516 754.354C143.835 747.733 142.177 741.201 141.255 734.602C138.571 715.385 136.621 693.986 138.31 674.689C138.291 668.088 139.114 661.568 139.86 655.02C142.111 635.247 145.735 615.394 152.19 596.516C152.88 597.594 153.039 598.506 153.348 599.721C154.345 603.636 156.758 610.277 160.479 612.313C163.727 614.092 167.307 612.847 170.6 611.949Z" fill="#FC4033"/>
<path d="M138.31 674.688C138.479 678.885 138.265 683.074 138.394 687.268C138.782 699.851 139.588 712.214 140.981 724.73C141.486 729.266 141.675 734.354 142.991 738.725L143.331 738.515C143.74 736.754 143.386 734.856 144.179 733.22L144.825 732.883C147.514 734.533 148.502 739.002 151.901 739.409C152.88 739.002 153.207 739.031 153.714 738.067C153.07 736.102 151.388 734.401 150.489 732.444C150.212 731.841 150.345 732.067 149.777 731.576C149.732 730.737 149.559 729.915 150.075 729.196C150.522 729.571 150.874 729.926 151.233 730.385C151.433 729.173 151.697 729.006 152.497 728.12C153.517 727.75 154.332 727.711 155.412 727.71C155.854 726.808 155.614 726.262 155.312 725.301C154.954 724.165 154.387 723.077 153.972 721.958C153.195 722.452 152.444 722.959 151.696 723.498C151.057 722.919 150.633 722.454 150.588 721.534C150.542 720.611 151.006 720.15 151.595 719.534L153.058 719.067C151.706 717.936 149.743 717.726 148.492 716.603C144.464 712.989 141.253 700.529 140.759 695.169C140.659 694.077 140.619 693.066 140.823 691.984L140.866 692.483C141.579 700.143 143.832 711.751 150.001 716.866C151.431 718.052 153.055 718.788 154.944 718.533C156.246 718.355 158.107 717.836 159.103 716.984C159.029 714.421 160.047 694.642 160.417 693.969C160.466 698.507 160.539 703.043 160.637 707.58C161.48 717.57 162.652 727.912 164.448 737.776C165.503 743.574 167.045 749.267 168.117 755.064C160.157 754.24 152.51 753.937 144.516 754.353C143.835 747.732 142.177 741.2 141.255 734.602C138.571 715.384 136.621 693.986 138.31 674.688Z" fill="#FF1A00"/>
<path d="M695.553 591.292C701.539 608.366 705.098 625.652 707.576 643.529C708.226 648.215 709.188 653.042 709.324 657.775C710.283 664.809 710.062 672.292 710.112 679.398C710.198 691.418 710.239 703.595 708.973 715.556C708.135 723.486 707.049 731.676 705.579 739.512C704.855 743.365 703.855 747.171 703.177 751.03C695.38 749.758 687.985 750.791 680.202 750.997C684.679 736.061 685.665 720.807 687.122 705.393C686.828 680.771 687.593 660.195 682.752 635.548C680.917 626.206 677.395 617.335 675.291 608.096C677.179 609.41 678.861 611.257 680.606 612.78C682.476 612.54 684.22 612.252 685.943 611.425C691.227 608.888 693.956 602.799 694.663 597.22C694.909 595.267 694.753 593.527 695.425 591.631C695.466 591.517 695.511 591.406 695.553 591.292Z" fill="#FC4033"/>
<path d="M687.121 705.393L687.513 705.841C688.54 706.201 689.512 706.449 690.608 706.47C693.696 706.533 696.282 705.162 698.417 703.011C709.143 692.204 707.53 664.316 707.53 649.747L707.747 649.794C708.714 651.85 708.593 658.509 709.065 661.331L709.323 657.774C710.283 664.809 710.061 672.292 710.112 679.398C710.197 691.417 710.239 703.594 708.973 715.556C708.134 723.485 707.049 731.675 705.578 739.512C704.854 743.364 703.855 747.171 703.177 751.029C695.38 749.757 687.984 750.79 680.202 750.997C684.679 736.06 685.664 720.807 687.121 705.393Z" fill="#FF1A00"/>
<defs>
<linearGradient id="paint0_linear_1_973" x1="393.11" y1="646.52" x2="438.694" y2="771.34" gradientUnits="userSpaceOnUse">
<stop stop-color="#5A97D6"/>
<stop offset="1" stop-color="#68BAF8"/>
</linearGradient>
<linearGradient id="paint1_linear_1_973" x1="543.523" y1="621.254" x2="568.188" y2="609.618" gradientUnits="userSpaceOnUse">
<stop stop-color="#95B73F"/>
<stop offset="1" stop-color="#8E9B33"/>
</linearGradient>
<linearGradient id="paint2_linear_1_973" x1="444.758" y1="595.681" x2="455.516" y2="572.24" gradientUnits="userSpaceOnUse">
<stop stop-color="#D9FCFF"/>
<stop offset="1" stop-color="#A2FFFF"/>
</linearGradient>
</defs>
</svg>
