<svg width="849" height="1183" viewBox="0 0 849 1183" fill="none" xmlns="http://www.w3.org/2000/svg">
<rect x="5" y="5" width="839" height="1173" rx="45" fill="white"/>
<rect x="5" y="5" width="839" height="1173" rx="45" stroke="black" stroke-width="10"/>
<circle cx="786.5" cy="1124.5" r="11.5" fill="black"/>
<circle cx="786.5" cy="59.5" r="11.5" fill="black"/>
<path d="M77 1124.5C77 1130.85 71.8513 1136 65.5 1136C59.1487 1136 54 1130.85 54 1124.5C54 1118.15 59.1487 1113 65.5 1113C71.8513 1113 77 1118.15 77 1124.5Z" fill="black"/>
<path d="M77 59.5C77 65.8513 71.8513 71 65.5 71C59.1487 71 54 65.8513 54 59.5C54 53.1487 59.1487 48 65.5 48C71.8513 48 77 53.1487 77 59.5Z" fill="black"/>
<mask id="path-6-inside-1_1_390" fill="white">
<path d="M708 48C713.523 48 717.934 52.4996 718.616 57.9801C723.122 94.1833 751.817 122.878 788.02 127.384C793.5 128.066 798 132.477 798 138V1046C798 1051.52 793.5 1055.93 788.02 1056.62C751.817 1061.12 723.122 1089.82 718.616 1126.02C717.934 1131.5 713.523 1136 708 1136H141C135.477 1136 131.066 1131.5 130.384 1126.02C125.878 1089.82 97.1833 1061.12 60.9801 1056.62C55.4996 1055.93 51 1051.52 51 1046V138C51 132.477 55.4996 128.066 60.9801 127.384C97.1833 122.878 125.878 94.1833 130.384 57.9801C131.066 52.4996 135.477 48 141 48H708Z"/>
</mask>
<path d="M708 48C713.523 48 717.934 52.4996 718.616 57.9801C723.122 94.1833 751.817 122.878 788.02 127.384C793.5 128.066 798 132.477 798 138V1046C798 1051.52 793.5 1055.93 788.02 1056.62C751.817 1061.12 723.122 1089.82 718.616 1126.02C717.934 1131.5 713.523 1136 708 1136H141C135.477 1136 131.066 1131.5 130.384 1126.02C125.878 1089.82 97.1833 1061.12 60.9801 1056.62C55.4996 1055.93 51 1051.52 51 1046V138C51 132.477 55.4996 128.066 60.9801 127.384C97.1833 122.878 125.878 94.1833 130.384 57.9801C131.066 52.4996 135.477 48 141 48H708Z" fill="#7047A3"/>
<path d="M130.384 1126.02L138.322 1125.03L130.384 1126.02ZM718.616 1126.02L710.678 1125.03L718.616 1126.02ZM788.02 1056.62L789.008 1064.56L788.02 1056.62ZM718.616 57.9801L726.555 56.9922L718.616 57.9801ZM718.616 57.9801L710.678 58.9681C715.635 98.8063 747.194 130.365 787.032 135.322L788.02 127.384L789.008 119.445C756.44 115.392 730.608 89.5603 726.555 56.9922L718.616 57.9801ZM798 138H790V1046H798H806V138H798ZM788.02 1056.62L787.032 1048.68C747.194 1053.64 715.635 1085.19 710.678 1125.03L718.616 1126.02L726.555 1127.01C730.608 1094.44 756.44 1068.61 789.008 1064.56L788.02 1056.62ZM708 1136V1128H141V1136V1144H708V1136ZM130.384 1126.02L138.322 1125.03C133.365 1085.19 101.806 1053.64 61.9681 1048.68L60.9801 1056.62L59.9922 1064.56C92.5603 1068.61 118.392 1094.44 122.445 1127.01L130.384 1126.02ZM51 1046H59V138H51H43V1046H51ZM60.9801 127.384L61.9681 135.322C101.806 130.365 133.365 98.8063 138.322 58.9681L130.384 57.9801L122.445 56.9922C118.392 89.5603 92.5603 115.392 59.9922 119.445L60.9801 127.384ZM141 48V56H708V48V40H141V48ZM130.384 57.9801L138.322 58.9681C138.438 58.0389 138.872 57.2306 139.427 56.6958C139.954 56.1887 140.494 56 141 56V48V40C130.84 40 123.547 48.1329 122.445 56.9922L130.384 57.9801ZM51 138H59C59 137.494 59.1887 136.954 59.6958 136.427C60.2306 135.872 61.0389 135.438 61.9681 135.322L60.9801 127.384L59.9922 119.445C51.1329 120.547 43 127.84 43 138H51ZM60.9801 1056.62L61.9681 1048.68C61.0389 1048.56 60.2306 1048.13 59.6958 1047.57C59.1887 1047.05 59 1046.51 59 1046H51H43C43 1056.16 51.1329 1063.45 59.9922 1064.56L60.9801 1056.62ZM141 1136V1128C140.494 1128 139.954 1127.81 139.427 1127.3C138.872 1126.77 138.438 1125.96 138.322 1125.03L130.384 1126.02L122.445 1127.01C123.547 1135.87 130.84 1144 141 1144V1136ZM718.616 1126.02L710.678 1125.03C710.562 1125.96 710.128 1126.77 709.573 1127.3C709.046 1127.81 708.506 1128 708 1128V1136V1144C718.16 1144 725.453 1135.87 726.555 1127.01L718.616 1126.02ZM798 1046H790C790 1046.51 789.811 1047.05 789.304 1047.57C788.769 1048.13 787.961 1048.56 787.032 1048.68L788.02 1056.62L789.008 1064.56C797.867 1063.45 806 1056.16 806 1046H798ZM788.02 127.384L787.032 135.322C787.961 135.438 788.769 135.872 789.304 136.427C789.811 136.954 790 137.494 790 138H798H806C806 127.84 797.867 120.547 789.008 119.445L788.02 127.384ZM718.616 57.9801L726.555 56.9922C725.453 48.1329 718.16 40 708 40V48V56C708.506 56 709.046 56.1887 709.573 56.6958C710.128 57.2306 710.562 58.0389 710.678 58.9681L718.616 57.9801Z" fill="black" mask="url(#path-6-inside-1_1_390)"/>
<path d="M690 102C695.523 102 699.911 106.512 700.837 111.957C705.019 136.563 724.437 155.981 749.043 160.163C754.488 161.089 759 165.477 759 171V1014C759 1019.52 754.488 1023.91 749.043 1024.84C724.711 1028.97 705.454 1048 700.984 1072.22C699.993 1077.59 695.633 1082 690.175 1082H158.825C153.367 1082 149.007 1077.59 148.016 1072.22C143.546 1048 124.288 1028.97 99.9568 1024.84C94.5121 1023.91 90 1019.52 90 1014V171C90 165.477 94.512 161.089 99.9568 160.163C124.563 155.981 143.981 136.563 148.163 111.957C149.089 106.512 153.477 102 159 102H690Z" fill="#B48FE1"/>
<mask id="path-9-outside-2_1_390" maskUnits="userSpaceOnUse" x="401" y="1007" width="47" height="31" fill="black">
<rect fill="white" x="401" y="1007" width="47" height="31"/>
<path d="M401.84 1030.92V1027.48L415.28 1008.2H420.8V1026.96H424.52V1030.92H420.8V1037H416.32V1030.92H401.84ZM416.52 1012.84L407.08 1026.96H416.52V1012.84ZM446.778 1011.36L435.658 1037H431.058L442.298 1011.84H427.498V1007.96H446.778V1011.36Z"/>
</mask>
<path d="M401.84 1030.92V1027.48L415.28 1008.2H420.8V1026.96H424.52V1030.92H420.8V1037H416.32V1030.92H401.84ZM416.52 1012.84L407.08 1026.96H416.52V1012.84ZM446.778 1011.36L435.658 1037H431.058L442.298 1011.84H427.498V1007.96H446.778V1011.36Z" fill="black"/>
<path d="M401.84 1030.92H401.54V1031.22H401.84V1030.92ZM401.84 1027.48L401.594 1027.31L401.54 1027.39V1027.48H401.84ZM415.28 1008.2V1007.9H415.123L415.034 1008.03L415.28 1008.2ZM420.8 1008.2H421.1V1007.9H420.8V1008.2ZM420.8 1026.96H420.5V1027.26H420.8V1026.96ZM424.52 1026.96H424.82V1026.66H424.52V1026.96ZM424.52 1030.92V1031.22H424.82V1030.92H424.52ZM420.8 1030.92V1030.62H420.5V1030.92H420.8ZM420.8 1037V1037.3H421.1V1037H420.8ZM416.32 1037H416.02V1037.3H416.32V1037ZM416.32 1030.92H416.62V1030.62H416.32V1030.92ZM416.52 1012.84H416.82V1011.85L416.271 1012.67L416.52 1012.84ZM407.08 1026.96L406.831 1026.79L406.519 1027.26H407.08V1026.96ZM416.52 1026.96V1027.26H416.82V1026.96H416.52ZM401.84 1030.92H402.14V1027.48H401.84H401.54V1030.92H401.84ZM401.84 1027.48L402.086 1027.65L415.526 1008.37L415.28 1008.2L415.034 1008.03L401.594 1027.31L401.84 1027.48ZM415.28 1008.2V1008.5H420.8V1008.2V1007.9H415.28V1008.2ZM420.8 1008.2H420.5V1026.96H420.8H421.1V1008.2H420.8ZM420.8 1026.96V1027.26H424.52V1026.96V1026.66H420.8V1026.96ZM424.52 1026.96H424.22V1030.92H424.52H424.82V1026.96H424.52ZM424.52 1030.92V1030.62H420.8V1030.92V1031.22H424.52V1030.92ZM420.8 1030.92H420.5V1037H420.8H421.1V1030.92H420.8ZM420.8 1037V1036.7H416.32V1037V1037.3H420.8V1037ZM416.32 1037H416.62V1030.92H416.32H416.02V1037H416.32ZM416.32 1030.92V1030.62H401.84V1030.92V1031.22H416.32V1030.92ZM416.52 1012.84L416.271 1012.67L406.831 1026.79L407.08 1026.96L407.329 1027.13L416.769 1013.01L416.52 1012.84ZM407.08 1026.96V1027.26H416.52V1026.96V1026.66H407.08V1026.96ZM416.52 1026.96H416.82V1012.84H416.52H416.22V1026.96H416.52ZM446.778 1011.36L447.054 1011.48L447.078 1011.42V1011.36H446.778ZM435.658 1037V1037.3H435.855L435.934 1037.12L435.658 1037ZM431.058 1037L430.785 1036.88L430.596 1037.3H431.058V1037ZM442.298 1011.84L442.572 1011.96L442.761 1011.54H442.298V1011.84ZM427.498 1011.84H427.198V1012.14H427.498V1011.84ZM427.498 1007.96V1007.66H427.198V1007.96H427.498ZM446.778 1007.96H447.078V1007.66H446.778V1007.96ZM446.778 1011.36L446.503 1011.24L435.383 1036.88L435.658 1037L435.934 1037.12L447.054 1011.48L446.778 1011.36ZM435.658 1037V1036.7H431.058V1037V1037.3H435.658V1037ZM431.058 1037L431.332 1037.12L442.572 1011.96L442.298 1011.84L442.025 1011.72L430.785 1036.88L431.058 1037ZM442.298 1011.84V1011.54H427.498V1011.84V1012.14H442.298V1011.84ZM427.498 1011.84H427.798V1007.96H427.498H427.198V1011.84H427.498ZM427.498 1007.96V1008.26H446.778V1007.96V1007.66H427.498V1007.96ZM446.778 1007.96H446.478V1011.36H446.778H447.078V1007.96H446.778Z" fill="black" mask="url(#path-9-outside-2_1_390)"/>
<path d="M252.04 197.975V240.92C252.04 244.91 252.95 247.99 254.77 250.16C256.66 252.33 259.495 253.415 263.275 253.415C267.055 253.415 269.89 252.33 271.78 250.16C273.74 247.92 274.72 244.84 274.72 240.92V197.975H295.3V240.92C295.3 247.71 293.865 253.52 290.995 258.35C288.125 263.11 284.205 266.715 279.235 269.165C274.335 271.545 268.875 272.735 262.855 272.735C256.835 272.735 251.445 271.545 246.685 269.165C241.995 266.715 238.285 263.11 235.555 258.35C232.895 253.59 231.565 247.78 231.565 240.92V197.975H252.04ZM327.211 223.49C329.521 220.13 332.321 217.47 335.611 215.51C338.901 213.55 342.436 212.57 346.216 212.57V234.515H340.441C335.961 234.515 332.636 235.39 330.466 237.14C328.296 238.89 327.211 241.935 327.211 246.275V272H306.631V213.095H327.211V223.49ZM350.234 242.495C350.234 236.405 351.319 231.085 353.489 226.535C355.729 221.985 358.739 218.485 362.519 216.035C366.369 213.585 370.639 212.36 375.329 212.36C379.389 212.36 382.889 213.165 385.829 214.775C388.769 216.385 391.044 218.555 392.654 221.285V213.095H413.234V272H392.654V263.81C391.044 266.54 388.734 268.71 385.724 270.32C382.784 271.93 379.319 272.735 375.329 272.735C370.639 272.735 366.369 271.51 362.519 269.06C358.739 266.61 355.729 263.11 353.489 258.56C351.319 253.94 350.234 248.585 350.234 242.495ZM392.654 242.495C392.654 238.715 391.604 235.74 389.504 233.57C387.474 231.4 384.954 230.315 381.944 230.315C378.864 230.315 376.309 231.4 374.279 233.57C372.249 235.67 371.234 238.645 371.234 242.495C371.234 246.275 372.249 249.285 374.279 251.525C376.309 253.695 378.864 254.78 381.944 254.78C384.954 254.78 387.474 253.695 389.504 251.525C391.604 249.355 392.654 246.345 392.654 242.495ZM463.496 212.57C470.286 212.57 475.676 214.845 479.666 219.395C483.656 223.875 485.651 229.965 485.651 237.665V272H465.071V240.395C465.071 237.035 464.196 234.41 462.446 232.52C460.696 230.56 458.351 229.58 455.411 229.58C452.331 229.58 449.916 230.56 448.166 232.52C446.416 234.41 445.541 237.035 445.541 240.395V272H424.961V213.095H445.541V221.495C447.361 218.835 449.811 216.7 452.891 215.09C455.971 213.41 459.506 212.57 463.496 212.57ZM557.213 213.095V272H536.528V263.6C534.778 266.26 532.363 268.43 529.283 270.11C526.203 271.72 522.668 272.525 518.678 272.525C511.818 272.525 506.393 270.285 502.403 265.805C498.483 261.255 496.523 255.095 496.523 247.325V213.095H516.998V244.7C516.998 248.06 517.873 250.72 519.623 252.68C521.443 254.57 523.823 255.515 526.763 255.515C529.773 255.515 532.153 254.57 533.903 252.68C535.653 250.72 536.528 248.06 536.528 244.7V213.095H557.213ZM594.021 272.735C588.701 272.735 583.941 271.86 579.741 270.11C575.611 268.29 572.321 265.84 569.871 262.76C567.491 259.61 566.161 256.075 565.881 252.155H585.831C586.111 254.045 586.986 255.515 588.456 256.565C589.926 257.615 591.746 258.14 593.916 258.14C595.596 258.14 596.926 257.79 597.906 257.09C598.886 256.39 599.376 255.48 599.376 254.36C599.376 252.89 598.571 251.805 596.961 251.105C595.351 250.405 592.691 249.635 588.981 248.795C584.781 247.955 581.281 247.01 578.481 245.96C575.681 244.91 573.231 243.195 571.131 240.815C569.101 238.435 568.086 235.215 568.086 231.155C568.086 227.655 569.031 224.505 570.921 221.705C572.811 218.835 575.576 216.56 579.216 214.88C582.926 213.2 587.371 212.36 592.551 212.36C600.251 212.36 606.306 214.25 610.716 218.03C615.126 221.81 617.681 226.78 618.381 232.94H599.796C599.446 231.05 598.606 229.615 597.276 228.635C596.016 227.585 594.301 227.06 592.131 227.06C590.451 227.06 589.156 227.375 588.246 228.005C587.406 228.635 586.986 229.51 586.986 230.63C586.986 232.03 587.791 233.115 589.401 233.885C591.011 234.585 593.601 235.32 597.171 236.09C601.441 237 604.976 238.015 607.776 239.135C610.646 240.255 613.131 242.075 615.231 244.595C617.401 247.045 618.486 250.405 618.486 254.675C618.486 258.105 617.471 261.185 615.441 263.915C613.481 266.645 610.646 268.815 606.936 270.425C603.296 271.965 598.991 272.735 594.021 272.735Z" fill="black"/>
<path d="M411.574 367.08C476.871 365.545 551.344 386.032 599.929 431.817L601.259 431.644C645.174 426.049 729.989 424.652 737.017 484.56C741.544 523.162 714.963 555.591 692.662 584.112C714.286 675.227 685.613 761.547 622.991 828.132C568.223 886.364 512.109 908.099 435.735 915.822C371.704 918.133 305.734 897.912 255.1 858.279C251.412 855.392 247.844 852.235 243.922 849.668L243.441 849.357C204.894 851.158 162.75 864.474 127.803 835.02C86.4442 800.16 126.522 727.827 153.46 696.84C151.389 688.903 150.258 680.105 149.445 671.939C135.828 535.194 225.299 405.76 359.46 374.43C377.99 370.103 392.877 368.944 411.574 367.08Z" fill="#020202"/>
<path d="M417.068 388.992C426.871 388.836 437.225 388.667 446.938 390.216C453.288 389.582 471.708 392.5 478.178 394.088C474.948 396.164 471.65 398.12 468.812 400.725C478.898 404.195 510.137 424.289 518.194 431.83C526.916 434.883 545.325 454.853 553.054 461.521C555.856 458.73 559.241 456.299 562.338 453.825L577.951 441.256C594.585 454.613 603.907 467.267 618.061 480.295C615.364 481.952 589.323 503.538 588.446 505.197C595.723 515.367 601.056 526.953 606.612 538.106C610.637 548.161 614.004 559.756 618.061 569.211C609.361 577.483 601.07 586.23 592.257 594.365C516.356 664.423 381.162 739.582 285.931 769.082C274.838 772.517 263.331 776.447 251.912 778.495C239.627 781.661 227.067 784.42 214.413 785.523C205.956 772.889 198.238 760.153 191.734 746.409C203.756 741.822 217.082 739.377 229.458 735.643C227.953 723.883 220.89 711.419 219.392 696.853C214.187 681.422 214.832 649.751 214.854 633.506C199.734 637.515 185.499 643.706 169.676 644.91C169.621 632.824 170.251 621.001 171.804 609.006C179.7 536.336 226.466 467.479 287.149 428.361C297.523 421.673 309.136 415.001 320.891 411.143C324.798 412.809 360.001 400.959 368.372 403.167C369.035 403.111 369.623 403.098 370.285 403.167C386.676 393.727 410.486 393.347 417.206 389.536L417.068 388.992Z" fill="#4ED1EA"/>
<path d="M417.068 388.992C426.871 388.836 437.225 388.667 446.938 390.216C453.288 389.582 471.708 392.5 478.178 394.088C474.948 396.164 471.65 398.12 468.812 400.725C478.898 404.195 510.137 424.289 518.194 431.83C526.916 434.883 545.325 454.853 553.054 461.521C551.748 462.277 550.469 463.046 549.219 463.893C544.183 467.162 539.338 470.752 534.37 474.129C457.741 526.203 375.719 570.783 289.999 605.974C265.385 616.078 240.527 626.361 214.854 633.506C199.734 637.515 185.499 643.706 169.676 644.91C169.621 632.825 170.251 621.001 171.804 609.007C179.7 536.336 226.465 467.479 287.149 428.361C297.523 421.673 309.136 415.001 320.891 411.143C324.798 412.809 360.001 400.959 368.372 403.167C369.035 403.111 369.623 403.098 370.285 403.167C386.676 393.727 410.486 393.347 417.206 389.536L417.068 388.992Z" fill="#4ED1EA"/>
<path d="M518.184 431.824C526.906 434.877 545.315 454.847 553.044 461.515C551.738 462.271 550.459 463.04 549.209 463.887C544.172 467.156 539.328 470.746 534.36 474.124C457.731 526.197 375.709 570.777 289.989 605.968C265.375 616.073 240.517 626.355 214.844 633.501C217.134 617.556 217.801 604.982 221.934 588.541C275.306 565.323 325.748 544.761 377.306 516.82C422.845 492.141 468.446 467.283 510.319 436.611C512.849 434.612 515.318 433.282 518.184 431.824Z" fill="#1EB3AD"/>
<path d="M518.186 431.824C526.907 434.877 545.317 454.847 553.046 461.515C551.739 462.271 550.46 463.04 549.21 463.887C541.87 460.127 530.931 449.851 522.719 444.73C520.232 443.18 511.529 438.556 510.32 436.611C512.851 434.612 515.32 433.282 518.186 431.824Z" fill="#1D8B89"/>
<path d="M320.89 411.135C324.798 412.801 360.001 400.951 368.372 403.159C362.406 407.388 355.666 410.493 349.353 414.174C331.706 424.463 316.206 436.965 301.335 450.887C297.636 454.35 293.867 458.722 289.645 461.512C278.387 478.876 262.983 491.105 253.287 511.878C243.653 526.717 237.08 550.532 229.458 561.165C226.096 569.843 224.301 579.516 221.944 588.538C217.811 604.979 217.144 617.553 214.854 633.498C199.734 637.506 185.498 643.697 169.676 644.901C169.621 632.816 170.251 620.993 171.804 608.998C179.7 536.328 226.465 467.471 287.149 428.352C297.523 421.665 309.136 414.993 320.89 411.135Z" fill="#77E5F5"/>
<path d="M229.446 561.149C221.742 565.381 211.649 566.503 208.563 556.124C202.594 536.045 266.092 454.351 282.163 449.69C289.377 451.827 289.999 454.048 289.633 461.497C278.375 478.86 262.971 491.089 253.275 511.862C243.641 526.701 237.068 550.516 229.446 561.149Z" fill="#FEFFFE"/>
<path d="M221.944 588.521C217.811 604.963 217.144 617.537 214.854 633.482C199.734 637.49 185.498 643.681 169.676 644.885C169.621 632.8 170.251 620.977 171.804 608.982C184.863 607.795 196.994 597.99 209.025 593.23C211.476 592.574 213.138 592.072 214.854 590.154C217.254 589.696 219.597 589.205 221.944 588.521Z" fill="#4ED1EA"/>
<path d="M209.026 574.813C217.337 577.629 219.633 583.075 214.854 590.175C213.138 592.093 211.476 592.595 209.026 593.251C196.293 591.364 198.569 578.307 209.026 574.813Z" fill="#FEFFFE"/>
<path d="M417.062 388.992C426.865 388.836 437.22 388.667 446.932 390.216C453.283 389.582 471.703 392.5 478.173 394.088C474.942 396.164 471.645 398.12 468.806 400.725C463.115 404.344 457.139 407.494 451.463 411.143C391.766 445.635 335.671 476.881 271.633 504.134C266.856 506.168 257.813 511.303 253.282 511.886C262.977 491.113 278.382 478.884 289.64 461.521C293.861 458.73 297.631 454.358 301.33 450.895C316.201 436.974 331.7 424.472 349.347 414.182C355.661 410.501 362.4 407.396 368.366 403.167C369.03 403.111 369.618 403.098 370.279 403.167C386.67 393.727 410.481 393.347 417.2 389.536L417.062 388.992Z" fill="#1EB3AD"/>
<path d="M417.064 388.992C426.867 388.836 437.221 388.667 446.933 390.216C453.284 389.582 471.704 392.5 478.174 394.088C474.944 396.164 471.646 398.12 468.808 400.725C463.116 404.344 457.141 407.494 451.464 411.143C418.427 404.128 401.541 404.941 370.281 403.167C386.672 393.727 410.482 393.347 417.201 389.536L417.064 388.992Z" fill="#1D8B89"/>
<path d="M446.936 390.195C453.286 389.562 471.706 392.479 478.176 394.067C474.946 396.143 471.648 398.099 468.81 400.704C461.589 397.063 453.785 394.537 446.936 390.195Z" fill="#034543"/>
<path d="M577.945 441.229C594.58 454.585 603.902 467.24 618.056 480.267C615.359 481.924 589.318 503.511 588.441 505.169C568.141 519.586 548.08 534.511 527.182 548.057C440.142 604.479 335.242 657.277 236.51 691.384C230.922 693.314 225.166 695.569 219.387 696.825C214.182 681.395 214.827 649.724 214.849 633.479C240.521 626.333 265.379 616.051 289.994 605.946C375.714 570.755 457.736 526.175 534.365 474.102C539.333 470.724 544.177 467.134 549.214 463.866C550.463 463.019 551.742 462.25 553.049 461.493C555.85 458.702 559.236 456.271 562.333 453.798L577.945 441.229Z" fill="#4ED1EA"/>
<path d="M577.951 441.229C594.586 454.585 603.908 467.24 618.062 480.267C615.365 481.924 589.324 503.511 588.447 505.169C583.74 498.724 579.27 492.109 574.09 486.023C568.26 477.231 560.602 468.847 553.055 461.493C555.857 458.702 559.242 456.271 562.339 453.798L577.951 441.229Z" fill="#1D8B89"/>
<path d="M219.385 696.852C225.164 695.596 230.921 693.341 236.508 691.411C335.24 657.303 440.141 604.506 527.18 548.084C548.079 534.538 568.139 519.613 588.439 505.196C595.716 515.367 601.05 526.953 606.605 538.105C510.036 617.173 363.067 693.619 243.513 731.671C239.118 733.069 233.998 735.03 229.452 735.642C227.946 723.882 220.883 711.418 219.385 696.852Z" fill="#1EB3AD"/>
<path d="M229.458 735.642C229.458 735.642 240.452 758.38 241.874 760.823C244.409 765.179 251.903 773.729 251.911 778.494C239.627 781.66 227.067 784.419 214.412 785.521C205.955 772.888 198.237 760.152 191.733 746.408C203.756 741.82 217.082 739.376 229.458 735.642Z" fill="#77E5F5"/>
<path d="M633.057 646.344C634.907 651.012 629.964 686.321 628.638 692.509C622.771 718.308 615.66 735.137 604.834 758.322C611.48 758.16 659.051 716.896 668.13 714.687C660.022 739.893 647.637 765.204 631.576 786.326C625.753 793.982 606.358 817.217 598.639 821.385C594.747 828.413 566.581 848.737 559.297 853.631C520.855 879.464 475.861 893.751 429.594 894.745C387.129 894.959 346.306 886.614 308.236 867.091C302.037 863.913 294.248 860.552 289.637 855.257C282.479 852.738 276.442 847.806 270.328 843.436C389.968 811.875 520.89 738.122 615.249 661.266C621.039 656.551 626.383 651.187 632.423 646.799L633.057 646.344Z" fill="#1EB3AD"/>
<path d="M604.832 758.316C611.478 758.153 659.05 716.889 668.128 714.681C660.021 739.886 647.636 765.198 631.574 786.32C625.752 793.975 606.356 817.211 598.638 821.379C594.746 828.407 566.579 848.731 559.296 853.625C520.853 879.458 475.86 893.745 429.593 894.739C387.128 894.953 346.305 886.608 308.235 867.085C302.036 863.907 294.247 860.546 289.635 855.251C308.153 853.145 318.01 850.371 335.251 846.926L335.713 846.838C343.986 853.085 386.244 867.704 398.6 867.145C402.257 864.854 406.915 863.45 410.915 861.758L439.293 849.736C486.634 829.338 531.419 805.217 575.128 777.955C581.207 774.164 598.659 760.903 604.832 759.985V758.316Z" fill="#4ED1EA"/>
<path d="M529.687 849.371C551.371 849.462 585.543 822.721 598.638 821.402C594.746 828.43 566.579 848.754 559.296 853.648C520.853 879.481 475.86 893.768 429.593 894.762C387.128 894.976 346.305 886.631 308.234 867.108C302.036 863.93 294.247 860.57 289.635 855.274C308.153 853.168 318.01 850.394 335.251 846.95L335.713 846.861C343.986 853.109 386.244 867.727 398.6 867.168C426.804 874.39 472.281 866.578 499.442 858.996C505.904 857.192 520.564 851.313 526.285 851.246C527.369 850.549 528.549 849.976 529.687 849.371Z" fill="#1D8B89"/>
<path d="M529.686 849.371C551.37 849.462 585.543 822.721 598.637 821.402C594.745 828.43 566.579 848.754 559.295 853.648C520.853 879.481 475.859 893.768 429.592 894.762C450.06 889.261 514.844 863.373 526.284 851.246C527.369 850.549 528.548 849.976 529.686 849.371Z" fill="#095850"/>
<path d="M604.842 758.316C611.488 758.153 659.06 716.889 668.138 714.681C660.031 739.886 647.645 765.198 631.584 786.32C625.762 793.975 606.366 817.211 598.648 821.379C585.553 822.698 551.381 849.438 529.697 849.348C551.906 831.096 571.517 811.065 587.776 787.224C593.827 778.349 598.749 768.796 604.842 759.985V758.316Z" fill="#1B6A67"/>
<path d="M633.057 646.344C634.908 651.012 629.965 686.321 628.638 692.509C619.917 696.633 612.773 703.289 604.903 708.739C563.7 737.275 520.763 762.641 476.615 786.36C432.508 810.055 384.363 834.414 335.715 846.844L335.252 846.932C318.011 850.377 308.155 853.151 289.637 855.257C282.479 852.738 276.442 847.805 270.328 843.436C389.968 811.875 520.89 738.122 615.25 661.266C621.04 656.551 626.384 651.187 632.423 646.799L633.057 646.344Z" fill="#4ED1EA"/>
<path d="M666.779 539.663C677.503 546.416 702.67 517.76 707.571 509.654C709.547 506.385 714.764 493.714 716.552 492.151C717.057 519.791 696.684 546.881 680.044 567.335C608.099 655.768 497.854 726.211 396.285 773.984C348.539 796.442 284.48 823.474 231.749 830.337C226.096 822.302 217.354 815.487 210.783 805.904C231.84 805.688 253.175 799.933 273.321 794.385C390.933 761.994 585.116 653.361 654.245 558.655C658.716 552.529 662.359 545.827 666.779 539.663Z" fill="url(#paint0_linear_1_390)"/>
<path d="M633.062 646.351C645.052 633.563 662.29 616.855 675.261 604.467C677.97 619.637 679.79 635.632 678.992 651.06C677.356 674.051 675.132 692.567 668.135 714.694C659.057 716.903 611.485 758.167 604.839 758.329C615.665 735.144 622.777 718.315 628.643 692.517C629.97 686.329 634.912 651.02 633.062 646.351Z" fill="#095850"/>
<path d="M633.064 646.351C645.055 633.563 662.292 616.855 675.263 604.467C677.972 619.637 679.792 635.632 678.994 651.06C661.864 663.782 646.505 679.6 628.646 692.517C629.972 686.329 634.915 651.02 633.064 646.351Z" fill="#1D8B89"/>
<path d="M159.417 721.971C163.394 734.532 167.875 746.435 173.585 758.316C155.281 788.96 180.292 808.847 210.789 805.91C217.361 815.493 226.102 822.308 231.755 830.343C135.155 844.299 99.901 813.05 159.417 721.971Z" fill="#B5DAF2"/>
<path d="M169.676 644.893C185.498 643.689 199.734 637.498 214.853 633.489C214.832 649.734 214.187 681.405 219.391 696.836C220.889 711.402 227.952 723.866 229.458 735.626C217.082 739.361 203.756 741.805 191.733 746.393C186.14 734.059 181.817 721.406 178 708.428C172.364 687.512 169.691 666.548 169.676 644.893Z" fill="#77E5F5"/>
<path d="M219.391 696.828C220.889 711.395 227.951 723.858 229.457 735.619C217.081 739.353 203.755 741.797 191.733 746.385C186.139 734.052 181.816 721.398 177.999 708.42C188.021 707.274 209.971 700.101 219.391 696.828Z" fill="#4ED1EA"/>
<path d="M619.139 449.69C650.338 451.392 717.609 444.896 716.548 492.154C714.76 493.716 709.543 506.388 707.568 509.657C702.666 517.762 677.499 546.419 666.775 539.666C684.897 508.16 681.611 479.176 640.918 478.453C634.542 468.12 625.699 459.766 619.139 449.69Z" fill="#B5DAF2"/>
<path d="M618.062 480.281C622.898 490.544 633.159 500.786 637.005 510.208C640.237 516.466 645.247 525.238 647.195 531.779C640.223 542.957 627.56 560.498 618.062 569.198C614.005 559.743 610.638 548.148 606.613 538.092C601.057 526.94 595.724 515.354 588.447 505.184C589.324 503.525 615.365 481.939 618.062 480.281Z" fill="#095850"/>
<path d="M606.612 538.085C618.25 529.366 626.539 518.597 637.004 510.2C640.236 516.459 645.246 525.231 647.194 531.771C640.222 542.95 627.559 560.491 618.061 569.191C614.004 559.735 610.637 548.14 606.612 538.085Z" fill="#1D8B89"/>
<path d="M478.174 394.059C511.039 401.153 552.139 418.458 577.947 441.227L562.334 453.796C559.237 456.27 555.852 458.701 553.05 461.491C545.321 454.824 526.912 434.853 518.19 431.801C510.133 424.26 478.894 404.166 468.808 400.696C471.646 398.09 474.944 396.135 478.174 394.059Z" fill="#095850"/>
<path d="M320.887 411.131C342.04 396.952 392.871 389.302 417.065 388.979L417.202 389.524C410.483 393.335 386.672 393.715 370.282 403.155C369.62 403.086 369.032 403.098 368.369 403.155C359.998 400.947 324.795 412.797 320.887 411.131Z" fill="#4ED1EA"/>
<defs>
<linearGradient id="paint0_linear_1_390" x1="497.599" y1="734.798" x2="444.512" y2="601.276" gradientUnits="userSpaceOnUse">
<stop stop-color="#838DAB"/>
<stop offset="1" stop-color="#8FB1D6"/>
</linearGradient>
</defs>
</svg>
