<svg width="849" height="1183" viewBox="0 0 849 1183" fill="none" xmlns="http://www.w3.org/2000/svg">
<rect x="5" y="5" width="839" height="1173" rx="45" fill="white"/>
<rect x="5" y="5" width="839" height="1173" rx="45" stroke="black" stroke-width="10"/>
<circle cx="786.5" cy="1124.5" r="11.5" fill="black"/>
<circle cx="786.5" cy="59.5" r="11.5" fill="black"/>
<path d="M77 1124.5C77 1130.85 71.8513 1136 65.5 1136C59.1487 1136 54 1130.85 54 1124.5C54 1118.15 59.1487 1113 65.5 1113C71.8513 1113 77 1118.15 77 1124.5Z" fill="black"/>
<path d="M77 59.5C77 65.8513 71.8513 71 65.5 71C59.1487 71 54 65.8513 54 59.5C54 53.1487 59.1487 48 65.5 48C71.8513 48 77 53.1487 77 59.5Z" fill="black"/>
<mask id="path-6-inside-1_1_918" fill="white">
<path d="M708 48C713.523 48 717.934 52.4996 718.616 57.9801C723.122 94.1833 751.817 122.878 788.02 127.384C793.5 128.066 798 132.477 798 138V1046C798 1051.52 793.5 1055.93 788.02 1056.62C751.817 1061.12 723.122 1089.82 718.616 1126.02C717.934 1131.5 713.523 1136 708 1136H141C135.477 1136 131.066 1131.5 130.384 1126.02C125.878 1089.82 97.1833 1061.12 60.9801 1056.62C55.4996 1055.93 51 1051.52 51 1046V138C51 132.477 55.4996 128.066 60.9801 127.384C97.1833 122.878 125.878 94.1833 130.384 57.9801C131.066 52.4996 135.477 48 141 48H708Z"/>
</mask>
<path d="M708 48C713.523 48 717.934 52.4996 718.616 57.9801C723.122 94.1833 751.817 122.878 788.02 127.384C793.5 128.066 798 132.477 798 138V1046C798 1051.52 793.5 1055.93 788.02 1056.62C751.817 1061.12 723.122 1089.82 718.616 1126.02C717.934 1131.5 713.523 1136 708 1136H141C135.477 1136 131.066 1131.5 130.384 1126.02C125.878 1089.82 97.1833 1061.12 60.9801 1056.62C55.4996 1055.93 51 1051.52 51 1046V138C51 132.477 55.4996 128.066 60.9801 127.384C97.1833 122.878 125.878 94.1833 130.384 57.9801C131.066 52.4996 135.477 48 141 48H708Z" fill="#006AB6"/>
<path d="M130.384 1126.02L138.322 1125.03L130.384 1126.02ZM718.616 1126.02L710.678 1125.03L718.616 1126.02ZM788.02 1056.62L789.008 1064.56L788.02 1056.62ZM718.616 57.9801L726.555 56.9922L718.616 57.9801ZM718.616 57.9801L710.678 58.9681C715.635 98.8063 747.194 130.365 787.032 135.322L788.02 127.384L789.008 119.445C756.44 115.392 730.608 89.5603 726.555 56.9922L718.616 57.9801ZM798 138H790V1046H798H806V138H798ZM788.02 1056.62L787.032 1048.68C747.194 1053.64 715.635 1085.19 710.678 1125.03L718.616 1126.02L726.555 1127.01C730.608 1094.44 756.44 1068.61 789.008 1064.56L788.02 1056.62ZM708 1136V1128H141V1136V1144H708V1136ZM130.384 1126.02L138.322 1125.03C133.365 1085.19 101.806 1053.64 61.9681 1048.68L60.9801 1056.62L59.9922 1064.56C92.5603 1068.61 118.392 1094.44 122.445 1127.01L130.384 1126.02ZM51 1046H59V138H51H43V1046H51ZM60.9801 127.384L61.9681 135.322C101.806 130.365 133.365 98.8063 138.322 58.9681L130.384 57.9801L122.445 56.9922C118.392 89.5603 92.5603 115.392 59.9922 119.445L60.9801 127.384ZM141 48V56H708V48V40H141V48ZM130.384 57.9801L138.322 58.9681C138.438 58.0389 138.872 57.2306 139.427 56.6958C139.954 56.1887 140.494 56 141 56V48V40C130.84 40 123.547 48.1329 122.445 56.9922L130.384 57.9801ZM51 138H59C59 137.494 59.1887 136.954 59.6958 136.427C60.2306 135.872 61.0389 135.438 61.9681 135.322L60.9801 127.384L59.9922 119.445C51.1329 120.547 43 127.84 43 138H51ZM60.9801 1056.62L61.9681 1048.68C61.0389 1048.56 60.2306 1048.13 59.6958 1047.57C59.1887 1047.05 59 1046.51 59 1046H51H43C43 1056.16 51.1329 1063.45 59.9922 1064.56L60.9801 1056.62ZM141 1136V1128C140.494 1128 139.954 1127.81 139.427 1127.3C138.872 1126.77 138.438 1125.96 138.322 1125.03L130.384 1126.02L122.445 1127.01C123.547 1135.87 130.84 1144 141 1144V1136ZM718.616 1126.02L710.678 1125.03C710.562 1125.96 710.128 1126.77 709.573 1127.3C709.046 1127.81 708.506 1128 708 1128V1136V1144C718.16 1144 725.453 1135.87 726.555 1127.01L718.616 1126.02ZM798 1046H790C790 1046.51 789.811 1047.05 789.304 1047.57C788.769 1048.13 787.961 1048.56 787.032 1048.68L788.02 1056.62L789.008 1064.56C797.867 1063.45 806 1056.16 806 1046H798ZM788.02 127.384L787.032 135.322C787.961 135.438 788.769 135.872 789.304 136.427C789.811 136.954 790 137.494 790 138H798H806C806 127.84 797.867 120.547 789.008 119.445L788.02 127.384ZM718.616 57.9801L726.555 56.9922C725.453 48.1329 718.16 40 708 40V48V56C708.506 56 709.046 56.1887 709.573 56.6958C710.128 57.2306 710.562 58.0389 710.678 58.9681L718.616 57.9801Z" fill="black" mask="url(#path-6-inside-1_1_918)"/>
<path d="M690 102C695.523 102 699.911 106.512 700.837 111.957C705.019 136.563 724.437 155.981 749.043 160.163C754.488 161.089 759 165.477 759 171V1014C759 1019.52 754.488 1023.91 749.043 1024.84C724.711 1028.97 705.454 1048 700.984 1072.22C699.993 1077.59 695.633 1082 690.175 1082H158.825C153.367 1082 149.007 1077.59 148.016 1072.22C143.546 1048 124.288 1028.97 99.9568 1024.84C94.5121 1023.91 90 1019.52 90 1014V171C90 165.477 94.512 161.089 99.9568 160.163C124.563 155.981 143.981 136.563 148.163 111.957C149.089 106.512 153.477 102 159 102H690Z" fill="#5298CB"/>
<mask id="path-9-outside-2_1_918" maskUnits="userSpaceOnUse" x="401" y="1006" width="46" height="32" fill="black">
<rect fill="white" x="401" y="1006" width="46" height="32"/>
<path d="M402.32 1015.04C402.48 1012.56 403.427 1010.63 405.16 1009.24C406.92 1007.85 409.16 1007.16 411.88 1007.16C413.747 1007.16 415.36 1007.49 416.72 1008.16C418.08 1008.83 419.107 1009.73 419.8 1010.88C420.493 1012.03 420.84 1013.32 420.84 1014.76C420.84 1016.41 420.4 1017.83 419.52 1019C418.64 1020.17 417.587 1020.96 416.36 1021.36V1021.52C417.933 1022 419.16 1022.88 420.04 1024.16C420.92 1025.41 421.36 1027.03 421.36 1029C421.36 1030.57 421 1031.97 420.28 1033.2C419.56 1034.43 418.493 1035.4 417.08 1036.12C415.667 1036.81 413.973 1037.16 412 1037.16C409.12 1037.16 406.747 1036.43 404.88 1034.96C403.04 1033.47 402.053 1031.33 401.92 1028.56H406.32C406.427 1029.97 406.973 1031.13 407.96 1032.04C408.947 1032.92 410.28 1033.36 411.96 1033.36C413.587 1033.36 414.84 1032.92 415.72 1032.04C416.6 1031.13 417.04 1029.97 417.04 1028.56C417.04 1026.69 416.44 1025.37 415.24 1024.6C414.067 1023.8 412.253 1023.4 409.8 1023.4H408.76V1019.64H409.84C412 1019.61 413.64 1019.25 414.76 1018.56C415.907 1017.87 416.48 1016.77 416.48 1015.28C416.48 1014 416.067 1012.99 415.24 1012.24C414.413 1011.47 413.24 1011.08 411.72 1011.08C410.227 1011.08 409.067 1011.47 408.24 1012.24C407.413 1012.99 406.92 1013.92 406.76 1015.04H402.32ZM431.83 1029.08C432.097 1030.41 432.67 1031.43 433.55 1032.12C434.43 1032.81 435.617 1033.16 437.11 1033.16C439.003 1033.16 440.39 1032.41 441.27 1030.92C442.15 1029.43 442.59 1026.88 442.59 1023.28C441.95 1024.19 441.043 1024.89 439.87 1025.4C438.723 1025.88 437.47 1026.12 436.11 1026.12C434.377 1026.12 432.803 1025.77 431.39 1025.08C429.977 1024.36 428.857 1023.31 428.03 1021.92C427.23 1020.51 426.83 1018.8 426.83 1016.8C426.83 1013.87 427.683 1011.53 429.39 1009.8C431.123 1008.04 433.497 1007.16 436.51 1007.16C440.137 1007.16 442.71 1008.37 444.23 1010.8C445.777 1013.2 446.55 1016.89 446.55 1021.88C446.55 1025.32 446.257 1028.13 445.67 1030.32C445.11 1032.51 444.123 1034.16 442.71 1035.28C441.297 1036.4 439.337 1036.96 436.83 1036.96C433.977 1036.96 431.777 1036.21 430.23 1034.72C428.683 1033.23 427.817 1031.35 427.63 1029.08H431.83ZM436.91 1022.28C438.51 1022.28 439.763 1021.79 440.67 1020.8C441.603 1019.79 442.07 1018.45 442.07 1016.8C442.07 1014.96 441.577 1013.53 440.59 1012.52C439.63 1011.48 438.31 1010.96 436.63 1010.96C434.95 1010.96 433.617 1011.49 432.63 1012.56C431.67 1013.6 431.19 1014.97 431.19 1016.68C431.19 1018.31 431.657 1019.65 432.59 1020.72C433.55 1021.76 434.99 1022.28 436.91 1022.28Z"/>
</mask>
<path d="M402.32 1015.04C402.48 1012.56 403.427 1010.63 405.16 1009.24C406.92 1007.85 409.16 1007.16 411.88 1007.16C413.747 1007.16 415.36 1007.49 416.72 1008.16C418.08 1008.83 419.107 1009.73 419.8 1010.88C420.493 1012.03 420.84 1013.32 420.84 1014.76C420.84 1016.41 420.4 1017.83 419.52 1019C418.64 1020.17 417.587 1020.96 416.36 1021.36V1021.52C417.933 1022 419.16 1022.88 420.04 1024.16C420.92 1025.41 421.36 1027.03 421.36 1029C421.36 1030.57 421 1031.97 420.28 1033.2C419.56 1034.43 418.493 1035.4 417.08 1036.12C415.667 1036.81 413.973 1037.16 412 1037.16C409.12 1037.16 406.747 1036.43 404.88 1034.96C403.04 1033.47 402.053 1031.33 401.92 1028.56H406.32C406.427 1029.97 406.973 1031.13 407.96 1032.04C408.947 1032.92 410.28 1033.36 411.96 1033.36C413.587 1033.36 414.84 1032.92 415.72 1032.04C416.6 1031.13 417.04 1029.97 417.04 1028.56C417.04 1026.69 416.44 1025.37 415.24 1024.6C414.067 1023.8 412.253 1023.4 409.8 1023.4H408.76V1019.64H409.84C412 1019.61 413.64 1019.25 414.76 1018.56C415.907 1017.87 416.48 1016.77 416.48 1015.28C416.48 1014 416.067 1012.99 415.24 1012.24C414.413 1011.47 413.24 1011.08 411.72 1011.08C410.227 1011.08 409.067 1011.47 408.24 1012.24C407.413 1012.99 406.92 1013.92 406.76 1015.04H402.32ZM431.83 1029.08C432.097 1030.41 432.67 1031.43 433.55 1032.12C434.43 1032.81 435.617 1033.16 437.11 1033.16C439.003 1033.16 440.39 1032.41 441.27 1030.92C442.15 1029.43 442.59 1026.88 442.59 1023.28C441.95 1024.19 441.043 1024.89 439.87 1025.4C438.723 1025.88 437.47 1026.12 436.11 1026.12C434.377 1026.12 432.803 1025.77 431.39 1025.08C429.977 1024.36 428.857 1023.31 428.03 1021.92C427.23 1020.51 426.83 1018.8 426.83 1016.8C426.83 1013.87 427.683 1011.53 429.39 1009.8C431.123 1008.04 433.497 1007.16 436.51 1007.16C440.137 1007.16 442.71 1008.37 444.23 1010.8C445.777 1013.2 446.55 1016.89 446.55 1021.88C446.55 1025.32 446.257 1028.13 445.67 1030.32C445.11 1032.51 444.123 1034.16 442.71 1035.28C441.297 1036.4 439.337 1036.96 436.83 1036.96C433.977 1036.96 431.777 1036.21 430.23 1034.72C428.683 1033.23 427.817 1031.35 427.63 1029.08H431.83ZM436.91 1022.28C438.51 1022.28 439.763 1021.79 440.67 1020.8C441.603 1019.79 442.07 1018.45 442.07 1016.8C442.07 1014.96 441.577 1013.53 440.59 1012.52C439.63 1011.48 438.31 1010.96 436.63 1010.96C434.95 1010.96 433.617 1011.49 432.63 1012.56C431.67 1013.6 431.19 1014.97 431.19 1016.68C431.19 1018.31 431.657 1019.65 432.59 1020.72C433.55 1021.76 434.99 1022.28 436.91 1022.28Z" fill="black"/>
<path d="M402.32 1015.04L402.021 1015.02L402 1015.34H402.32V1015.04ZM405.16 1009.24L404.974 1009L404.973 1009.01L405.16 1009.24ZM416.72 1008.16L416.588 1008.43L416.72 1008.16ZM419.8 1010.88L420.057 1010.72L419.8 1010.88ZM419.52 1019L419.76 1019.18V1019.18L419.52 1019ZM416.36 1021.36L416.267 1021.07L416.06 1021.14V1021.36H416.36ZM416.36 1021.52H416.06V1021.74L416.272 1021.81L416.36 1021.52ZM420.04 1024.16L419.793 1024.33L419.794 1024.33L420.04 1024.16ZM420.28 1033.2L420.021 1033.05L420.28 1033.2ZM417.08 1036.12L417.212 1036.39L417.216 1036.39L417.08 1036.12ZM404.88 1034.96L404.691 1035.19L404.695 1035.2L404.88 1034.96ZM401.92 1028.56V1028.26H401.605L401.62 1028.57L401.92 1028.56ZM406.32 1028.56L406.619 1028.54L406.598 1028.26H406.32V1028.56ZM407.96 1032.04L407.757 1032.26L407.76 1032.26L407.96 1032.04ZM415.72 1032.04L415.932 1032.25L415.935 1032.25L415.72 1032.04ZM415.24 1024.6L415.071 1024.85L415.077 1024.85L415.24 1024.6ZM408.76 1023.4H408.46V1023.7H408.76V1023.4ZM408.76 1019.64V1019.34H408.46V1019.64H408.76ZM409.84 1019.64V1019.94L409.844 1019.94L409.84 1019.64ZM414.76 1018.56L414.605 1018.3L414.602 1018.3L414.76 1018.56ZM415.24 1012.24L415.035 1012.46L415.039 1012.46L415.24 1012.24ZM408.24 1012.24L408.441 1012.46L408.445 1012.46L408.24 1012.24ZM406.76 1015.04V1015.34H407.02L407.057 1015.08L406.76 1015.04ZM402.32 1015.04L402.619 1015.06C402.775 1012.65 403.688 1010.8 405.347 1009.47L405.16 1009.24L404.973 1009.01C403.165 1010.45 402.185 1012.47 402.021 1015.02L402.32 1015.04ZM405.16 1009.24L405.346 1009.48C407.042 1008.14 409.213 1007.46 411.88 1007.46V1007.16V1006.86C409.108 1006.86 406.798 1007.57 404.974 1009L405.16 1009.24ZM411.88 1007.16V1007.46C413.711 1007.46 415.277 1007.79 416.588 1008.43L416.72 1008.16L416.852 1007.89C415.443 1007.2 413.782 1006.86 411.88 1006.86V1007.16ZM416.72 1008.16L416.588 1008.43C417.903 1009.07 418.883 1009.94 419.543 1011.04L419.8 1010.88L420.057 1010.72C419.33 1009.52 418.257 1008.58 416.852 1007.89L416.72 1008.16ZM419.8 1010.88L419.543 1011.04C420.206 1012.13 420.54 1013.37 420.54 1014.76H420.84H421.14C421.14 1013.27 420.78 1011.92 420.057 1010.72L419.8 1010.88ZM420.84 1014.76H420.54C420.54 1016.36 420.116 1017.71 419.28 1018.82L419.52 1019L419.76 1019.18C420.684 1017.95 421.14 1016.47 421.14 1014.76H420.84ZM419.52 1019L419.28 1018.82C418.432 1019.95 417.427 1020.7 416.267 1021.07L416.36 1021.36L416.453 1021.65C417.746 1021.22 418.848 1020.4 419.76 1019.18L419.52 1019ZM416.36 1021.36H416.06V1021.52H416.36H416.66V1021.36H416.36ZM416.36 1021.52L416.272 1021.81C417.785 1022.27 418.954 1023.11 419.793 1024.33L420.04 1024.16L420.287 1023.99C419.366 1022.65 418.082 1021.73 416.448 1021.23L416.36 1021.52ZM420.04 1024.16L419.794 1024.33C420.63 1025.52 421.06 1027.07 421.06 1029H421.36H421.66C421.66 1026.98 421.21 1025.3 420.286 1023.99L420.04 1024.16ZM421.36 1029H421.06C421.06 1030.53 420.711 1031.87 420.021 1033.05L420.28 1033.2L420.539 1033.35C421.289 1032.07 421.66 1030.62 421.66 1029H421.36ZM420.28 1033.2L420.021 1033.05C419.334 1034.22 418.312 1035.16 416.944 1035.85L417.08 1036.12L417.216 1036.39C418.674 1035.64 419.786 1034.63 420.539 1033.35L420.28 1033.2ZM417.08 1036.12L416.948 1035.85C415.585 1036.52 413.939 1036.86 412 1036.86V1037.16V1037.46C414.008 1037.46 415.749 1037.11 417.212 1036.39L417.08 1036.12ZM412 1037.16V1036.86C409.172 1036.86 406.869 1036.14 405.065 1034.72L404.88 1034.96L404.695 1035.2C406.625 1036.71 409.068 1037.46 412 1037.46V1037.16ZM404.88 1034.96L405.069 1034.73C403.307 1033.3 402.35 1031.25 402.22 1028.55L401.92 1028.56L401.62 1028.57C401.757 1031.42 402.773 1033.64 404.691 1035.19L404.88 1034.96ZM401.92 1028.56V1028.86H406.32V1028.56V1028.26H401.92V1028.56ZM406.32 1028.56L406.021 1028.58C406.133 1030.07 406.711 1031.3 407.757 1032.26L407.96 1032.04L408.163 1031.82C407.236 1030.97 406.72 1029.88 406.619 1028.54L406.32 1028.56ZM407.96 1032.04L407.76 1032.26C408.816 1033.21 410.227 1033.66 411.96 1033.66V1033.36V1033.06C410.333 1033.06 409.078 1032.63 408.16 1031.82L407.96 1032.04ZM411.96 1033.36V1033.66C413.641 1033.66 414.98 1033.2 415.932 1032.25L415.72 1032.04L415.508 1031.83C414.7 1032.64 413.533 1033.06 411.96 1033.06V1033.36ZM415.72 1032.04L415.935 1032.25C416.876 1031.28 417.34 1030.04 417.34 1028.56H417.04H416.74C416.74 1029.91 416.324 1030.99 415.505 1031.83L415.72 1032.04ZM417.04 1028.56H417.34C417.34 1026.63 416.714 1025.19 415.403 1024.35L415.24 1024.6L415.077 1024.85C416.166 1025.55 416.74 1026.76 416.74 1028.56H417.04ZM415.24 1024.6L415.409 1024.35C414.161 1023.5 412.275 1023.1 409.8 1023.1V1023.4V1023.7C412.232 1023.7 413.972 1024.1 415.071 1024.85L415.24 1024.6ZM409.8 1023.4V1023.1H408.76V1023.4V1023.7H409.8V1023.4ZM408.76 1023.4H409.06V1019.64H408.76H408.46V1023.4H408.76ZM408.76 1019.64V1019.94H409.84V1019.64V1019.34H408.76V1019.64ZM409.84 1019.64L409.844 1019.94C412.027 1019.91 413.731 1019.55 414.918 1018.82L414.76 1018.56L414.602 1018.3C413.549 1018.96 411.973 1019.31 409.836 1019.34L409.84 1019.64ZM414.76 1018.56L414.915 1018.82C416.163 1018.06 416.78 1016.86 416.78 1015.28H416.48H416.18C416.18 1016.68 415.65 1017.67 414.605 1018.3L414.76 1018.56ZM416.48 1015.28H416.78C416.78 1013.93 416.34 1012.83 415.441 1012.02L415.24 1012.24L415.039 1012.46C415.793 1013.14 416.18 1014.07 416.18 1015.28H416.48ZM415.24 1012.24L415.445 1012.02C414.546 1011.18 413.289 1010.78 411.72 1010.78V1011.08V1011.38C413.191 1011.38 414.281 1011.75 415.035 1012.46L415.24 1012.24ZM411.72 1011.08V1010.78C410.176 1010.78 408.933 1011.18 408.035 1012.02L408.24 1012.24L408.445 1012.46C409.2 1011.75 410.278 1011.38 411.72 1011.38V1011.08ZM408.24 1012.24L408.039 1012.02C407.159 1012.81 406.633 1013.81 406.463 1015L406.76 1015.04L407.057 1015.08C407.207 1014.03 407.667 1013.16 408.441 1012.46L408.24 1012.24ZM406.76 1015.04V1014.74H402.32V1015.04V1015.34H406.76V1015.04ZM431.83 1029.08L432.124 1029.02L432.076 1028.78H431.83V1029.08ZM433.55 1032.12L433.364 1032.36L433.55 1032.12ZM441.27 1030.92L441.012 1030.77L441.27 1030.92ZM442.59 1023.28H442.89V1022.33L442.345 1023.11L442.59 1023.28ZM439.87 1025.4L439.986 1025.68L439.989 1025.68L439.87 1025.4ZM431.39 1025.08L431.254 1025.35L431.258 1025.35L431.39 1025.08ZM428.03 1021.92L427.769 1022.07L427.772 1022.07L428.03 1021.92ZM429.39 1009.8L429.176 1009.59L429.176 1009.59L429.39 1009.8ZM444.23 1010.8L443.976 1010.96L443.978 1010.96L444.23 1010.8ZM445.67 1030.32L445.38 1030.24L445.379 1030.25L445.67 1030.32ZM442.71 1035.28L442.896 1035.52L442.71 1035.28ZM430.23 1034.72L430.022 1034.94L430.23 1034.72ZM427.63 1029.08V1028.78H427.304L427.331 1029.1L427.63 1029.08ZM440.67 1020.8L440.449 1020.6L440.449 1020.6L440.67 1020.8ZM440.59 1012.52L440.369 1012.72L440.375 1012.73L440.59 1012.52ZM432.63 1012.56L432.41 1012.36L432.41 1012.36L432.63 1012.56ZM432.59 1020.72L432.364 1020.92L432.37 1020.92L432.59 1020.72ZM431.83 1029.08L431.536 1029.14C431.813 1030.53 432.417 1031.61 433.364 1032.36L433.55 1032.12L433.736 1031.88C432.923 1031.24 432.38 1030.3 432.124 1029.02L431.83 1029.08ZM433.55 1032.12L433.364 1032.36C434.313 1033.1 435.572 1033.46 437.11 1033.46V1033.16V1032.86C435.662 1032.86 434.547 1032.52 433.736 1031.88L433.55 1032.12ZM437.11 1033.16V1033.46C439.098 1033.46 440.589 1032.67 441.528 1031.07L441.27 1030.92L441.012 1030.77C440.191 1032.16 438.909 1032.86 437.11 1032.86V1033.16ZM441.27 1030.92L441.528 1031.07C442.452 1029.5 442.89 1026.89 442.89 1023.28H442.59H442.29C442.29 1026.87 441.848 1029.35 441.012 1030.77L441.27 1030.92ZM442.59 1023.28L442.345 1023.11C441.741 1023.96 440.882 1024.64 439.751 1025.12L439.87 1025.4L439.989 1025.68C441.205 1025.15 442.159 1024.41 442.835 1023.45L442.59 1023.28ZM439.87 1025.4L439.754 1025.12C438.648 1025.59 437.434 1025.82 436.11 1025.82V1026.12V1026.42C437.506 1026.42 438.799 1026.17 439.986 1025.68L439.87 1025.4ZM436.11 1026.12V1025.82C434.418 1025.82 432.89 1025.48 431.522 1024.81L431.39 1025.08L431.258 1025.35C432.716 1026.06 434.336 1026.42 436.11 1026.42V1026.12ZM431.39 1025.08L431.526 1024.81C430.164 1024.12 429.086 1023.11 428.288 1021.77L428.03 1021.92L427.772 1022.07C428.627 1023.51 429.789 1024.6 431.254 1025.35L431.39 1025.08ZM428.03 1021.92L428.291 1021.77C427.522 1020.41 427.13 1018.76 427.13 1016.8H426.83H426.53C426.53 1018.84 426.938 1020.6 427.769 1022.07L428.03 1021.92ZM426.83 1016.8H427.13C427.13 1013.93 427.963 1011.68 429.604 1010.01L429.39 1009.8L429.176 1009.59C427.403 1011.39 426.53 1013.81 426.53 1016.8H426.83ZM429.39 1009.8L429.604 1010.01C431.269 1008.32 433.558 1007.46 436.51 1007.46V1007.16V1006.86C433.435 1006.86 430.978 1007.76 429.176 1009.59L429.39 1009.8ZM436.51 1007.16V1007.46C440.065 1007.46 442.525 1008.64 443.976 1010.96L444.23 1010.8L444.484 1010.64C442.895 1008.1 440.209 1006.86 436.51 1006.86V1007.16ZM444.23 1010.8L443.978 1010.96C445.478 1013.29 446.25 1016.91 446.25 1021.88H446.55H446.85C446.85 1016.87 446.076 1013.11 444.482 1010.64L444.23 1010.8ZM446.55 1021.88H446.25C446.25 1025.31 445.958 1028.09 445.38 1030.24L445.67 1030.32L445.96 1030.4C446.556 1028.18 446.85 1025.33 446.85 1021.88H446.55ZM445.67 1030.32L445.379 1030.25C444.831 1032.38 443.874 1033.97 442.524 1035.04L442.71 1035.28L442.896 1035.52C444.373 1034.35 445.389 1032.63 445.961 1030.39L445.67 1030.32ZM442.71 1035.28L442.524 1035.04C441.181 1036.11 439.295 1036.66 436.83 1036.66V1036.96V1037.26C439.378 1037.26 441.413 1036.69 442.896 1035.52L442.71 1035.28ZM436.83 1036.96V1036.66C434.028 1036.66 431.913 1035.93 430.438 1034.5L430.23 1034.72L430.022 1034.94C431.641 1036.5 433.925 1037.26 436.83 1037.26V1036.96ZM430.23 1034.72L430.438 1034.5C428.947 1033.06 428.11 1031.25 427.929 1029.06L427.63 1029.08L427.331 1029.1C427.523 1031.44 428.419 1033.39 430.022 1034.94L430.23 1034.72ZM427.63 1029.08V1029.38H431.83V1029.08V1028.78H427.63V1029.08ZM436.91 1022.28V1022.58C438.576 1022.58 439.916 1022.06 440.891 1021L440.67 1020.8L440.449 1020.6C439.61 1021.51 438.444 1021.98 436.91 1021.98V1022.28ZM440.67 1020.8L440.891 1021C441.885 1019.92 442.37 1018.51 442.37 1016.8H442.07H441.77C441.77 1018.39 441.322 1019.65 440.449 1020.6L440.67 1020.8ZM442.07 1016.8H442.37C442.37 1014.91 441.861 1013.4 440.805 1012.31L440.59 1012.52L440.375 1012.73C441.292 1013.67 441.77 1015.01 441.77 1016.8H442.07ZM440.59 1012.52L440.81 1012.32C439.783 1011.2 438.377 1010.66 436.63 1010.66V1010.96V1011.26C438.243 1011.26 439.477 1011.76 440.37 1012.72L440.59 1012.52ZM436.63 1010.96V1010.66C434.881 1010.66 433.462 1011.22 432.41 1012.36L432.63 1012.56L432.85 1012.76C433.771 1011.77 435.019 1011.26 436.63 1011.26V1010.96ZM432.63 1012.56L432.41 1012.36C431.388 1013.46 430.89 1014.91 430.89 1016.68H431.19H431.49C431.49 1015.03 431.952 1013.74 432.85 1012.76L432.63 1012.56ZM431.19 1016.68H430.89C430.89 1018.37 431.376 1019.79 432.364 1020.92L432.59 1020.72L432.816 1020.52C431.937 1019.52 431.49 1018.25 431.49 1016.68H431.19ZM432.59 1020.72L432.37 1020.92C433.404 1022.04 434.937 1022.58 436.91 1022.58V1022.28V1021.98C435.043 1021.98 433.696 1021.48 432.81 1020.52L432.59 1020.72Z" fill="black" mask="url(#path-9-outside-2_1_918)"/>
<path d="M254.635 197.975V214.355H234.895V272H214.315V214.355H194.785V197.975H254.635ZM300.994 212.57C307.714 212.57 313.034 214.845 316.954 219.395C320.944 223.875 322.939 229.965 322.939 237.665V272H302.359V240.395C302.359 237.035 301.484 234.41 299.734 232.52C297.984 230.56 295.639 229.58 292.699 229.58C289.619 229.58 287.204 230.56 285.454 232.52C283.704 234.41 282.829 237.035 282.829 240.395V272H262.249V194.3H282.829V221.495C284.649 218.835 287.099 216.7 290.179 215.09C293.329 213.41 296.934 212.57 300.994 212.57ZM394.502 213.095V272H373.817V263.6C372.067 266.26 369.652 268.43 366.572 270.11C363.492 271.72 359.957 272.525 355.967 272.525C349.107 272.525 343.682 270.285 339.692 265.805C335.772 261.255 333.812 255.095 333.812 247.325V213.095H354.287V244.7C354.287 248.06 355.162 250.72 356.912 252.68C358.732 254.57 361.112 255.515 364.052 255.515C367.062 255.515 369.442 254.57 371.192 252.68C372.942 250.72 373.817 248.06 373.817 244.7V213.095H394.502ZM444.749 212.57C451.539 212.57 456.929 214.845 460.919 219.395C464.909 223.875 466.904 229.965 466.904 237.665V272H446.324V240.395C446.324 237.035 445.449 234.41 443.699 232.52C441.949 230.56 439.604 229.58 436.664 229.58C433.584 229.58 431.169 230.56 429.419 232.52C427.669 234.41 426.794 237.035 426.794 240.395V272H406.214V213.095H426.794V221.495C428.614 218.835 431.064 216.7 434.144 215.09C437.224 213.41 440.759 212.57 444.749 212.57ZM474.836 242.495C474.836 236.405 475.921 231.085 478.091 226.535C480.331 221.985 483.376 218.485 487.226 216.035C491.076 213.585 495.346 212.36 500.036 212.36C503.816 212.36 507.176 213.165 510.116 214.775C513.126 216.315 515.471 218.45 517.151 221.18V194.3H537.836V272H517.151V263.81C515.541 266.54 513.266 268.71 510.326 270.32C507.386 271.93 503.921 272.735 499.931 272.735C495.241 272.735 490.971 271.51 487.121 269.06C483.341 266.61 480.331 263.11 478.091 258.56C475.921 253.94 474.836 248.585 474.836 242.495ZM517.256 242.495C517.256 238.715 516.206 235.74 514.106 233.57C512.076 231.4 509.556 230.315 506.546 230.315C503.466 230.315 500.911 231.4 498.881 233.57C496.851 235.67 495.836 238.645 495.836 242.495C495.836 246.275 496.851 249.285 498.881 251.525C500.911 253.695 503.466 254.78 506.546 254.78C509.556 254.78 512.076 253.695 514.106 251.525C516.206 249.355 517.256 246.345 517.256 242.495ZM605.844 241.865C605.844 243.475 605.739 245.085 605.529 246.695H566.574C566.784 249.915 567.659 252.33 569.199 253.94C570.809 255.48 572.839 256.25 575.289 256.25C578.719 256.25 581.169 254.71 582.639 251.63H604.584C603.674 255.69 601.889 259.33 599.229 262.55C596.639 265.7 593.349 268.185 589.359 270.005C585.369 271.825 580.959 272.735 576.129 272.735C570.319 272.735 565.139 271.51 560.589 269.06C556.109 266.61 552.574 263.11 549.984 258.56C547.464 254.01 546.204 248.655 546.204 242.495C546.204 236.335 547.464 231.015 549.984 226.535C552.504 221.985 556.004 218.485 560.484 216.035C565.034 213.585 570.249 212.36 576.129 212.36C581.939 212.36 587.084 213.55 591.564 215.93C596.044 218.31 599.544 221.74 602.064 226.22C604.584 230.63 605.844 235.845 605.844 241.865ZM584.844 236.72C584.844 234.2 584.004 232.24 582.324 230.84C580.644 229.37 578.544 228.635 576.024 228.635C573.504 228.635 571.439 229.335 569.829 230.735C568.219 232.065 567.169 234.06 566.679 236.72H584.844ZM634.846 223.49C637.156 220.13 639.956 217.47 643.246 215.51C646.536 213.55 650.071 212.57 653.851 212.57V234.515H648.076C643.596 234.515 640.271 235.39 638.101 237.14C635.931 238.89 634.846 241.935 634.846 246.275V272H614.266V213.095H634.846V223.49Z" fill="black"/>
<path d="M431.968 400.018C465.824 399.37 494.92 415.975 508.333 447.997C538.292 447.07 559.826 467.774 567.161 495.947C595.754 467.06 642.289 471.417 660.952 508.318C684.908 511.669 700.076 529.056 699.724 553.333C736.133 562.512 744.726 609.083 719.758 634.279C699.579 654.643 668.278 647.075 642.435 647.292C621.007 676.185 573.534 677.673 556.968 644.416L555.837 644.576C532.984 647.886 508.889 643.998 486.119 641.91C461.355 671.221 437.71 678.714 399.322 668.192L398.952 668.021C387.017 662.415 371.767 653.594 366.992 640.565C344.388 644.694 315.386 648.48 293.681 639.891C282.138 655.528 267.078 667.668 246.667 668.301C221.664 669.075 212.825 659.347 197.008 644.416C174.996 649.41 153.458 652.15 134.325 636.711C101.894 610.541 116.073 556.53 149.098 553.333C149.171 529.512 168.192 505.053 193.115 507.067C210.696 470.575 268.299 466.341 291.8 499.241C294.148 502.527 295.741 506.237 297.978 509.587L298.214 509.932C296.216 470.083 323.377 446.481 362.046 446.867C370.735 417.387 402.999 400.989 431.968 400.018Z" fill="#010101"/>
<path d="M368.918 456.109C375.79 413.216 431.81 399.557 467.387 416.076C485.462 424.469 495.157 437.883 501.731 456.109L508.846 456.097C535.291 456.302 556.885 476.825 559.132 503.068C559.364 505.783 558.328 516.483 559.715 518.344C560.095 518.853 584.318 524.891 595.356 536.11C617.846 553.335 617.516 590.3 601.209 611.342C576.414 643.331 531.157 638.559 495.504 634.175C491.177 633.643 486.479 633.371 482.276 632.276C467.509 649.418 457.112 661.721 431.852 663.651C411.119 665.234 389.203 657.559 376.502 640.596C375.014 638.606 372.646 634.148 370.841 632.724C365.35 628.389 312.346 648.956 281.69 622.627C267.648 610.567 258.885 592.853 259.948 574.213C259.452 545.507 278.508 520.491 308.17 519.218C301.556 479.55 327.092 449.579 368.918 456.109Z" fill="#514E4E"/>
<path d="M595.356 536.11C617.846 553.334 617.516 590.3 601.209 611.341C576.414 643.331 531.157 638.559 495.504 634.175C491.177 633.643 486.479 633.371 482.276 632.276C467.509 649.418 457.112 661.721 431.852 663.651C411.119 665.234 389.203 657.559 376.502 640.596C375.014 638.606 372.646 634.148 370.841 632.723C365.35 628.389 312.346 648.956 281.69 622.627C267.648 610.567 258.885 592.853 259.948 574.213C262.637 577.241 264.437 581.572 266.708 584.969C290.034 619.854 333.437 618.969 368.918 607.303C378.568 628.842 403.365 644.186 427.068 639.404C449.337 634.912 461.539 618.491 473.118 600.859C504.679 621.237 549.284 629.06 579.388 601.225C591.979 589.583 599.922 573.124 597.871 555.813C597.117 549.45 595 543.084 595.325 536.645L595.356 536.11Z" fill="#3C3A3A"/>
<path d="M433.512 447.997C451.568 442.666 469.453 460.16 476.425 475.352C497.021 451.901 535.582 463.707 536.443 501.347C534.809 495.797 532.615 490.883 530.048 485.724C514.519 468.744 487.797 461.999 473.118 483.408C458.403 460.484 446.631 445.078 415.182 456.11C420.937 451.556 426.191 448.842 433.512 447.997Z" fill="#868585"/>
<path d="M358.02 463.059C370.156 460.578 383.901 467.634 391.038 477.096C368.626 467.375 345.247 470.682 329.837 490.927C323.625 500.423 322.201 508.952 322.377 520.102C312.779 494.123 330.067 466.241 358.02 463.059Z" fill="#BEBDBD"/>
<path d="M295.673 528.74C299.184 528.472 305.704 529.438 307.118 533.359C305.846 540.316 290.783 535.185 281.412 547.033C279.507 549.632 277.874 552.516 276.152 555.245C277.112 541.427 281.015 532.147 295.673 528.74Z" fill="#868585"/>
<path d="M394.495 430.507C398.087 430.138 401.854 431.198 403.564 434.678C407.541 442.776 391.127 440.001 383.018 443.557C380.333 444.903 377.779 446.45 375.207 447.997C379.009 438.384 383.713 432.821 394.495 430.507Z" fill="#BEBDBD"/>
<path d="M215.566 495.947C233.042 474.971 279.892 485.855 289.756 514.319C282.26 517.066 275.873 521.484 269.921 526.748L268.434 528.74C244.175 557.655 244.839 599.007 272.283 625.366C276.763 629.266 281.054 632.692 286.248 635.63C280.715 642.432 275.373 648.453 267.846 653.126C244.919 667.362 215.177 658.123 201.307 635.63C189.21 638.91 177.164 641.795 164.519 640.482C140.148 637.952 120.886 618.76 123.857 593.389C125.902 574.655 139.848 563.055 157.828 559.78C155.901 534.134 171.591 514.376 198.071 515.954C199.054 513.892 199.967 511.792 201.307 509.932C203.98 504.726 209.485 496.716 215.566 495.947Z" fill="#514E4E"/>
<path d="M201.307 635.63C189.21 638.91 177.164 641.795 164.519 640.482C140.148 637.952 120.886 618.76 123.857 593.389C123.916 595.259 123.954 596.528 124.924 598.183C141.739 626.868 171.527 630.444 201.307 623.124C209.573 632.985 218.189 642.002 231.749 643.12C246.577 644.344 263.131 637.305 272.283 625.366C276.763 629.266 281.054 632.692 286.248 635.63C280.715 642.432 275.373 648.453 267.846 653.126C244.919 667.361 215.177 658.123 201.307 635.63Z" fill="#3C3A3A"/>
<path d="M228.421 519.218C244.159 506.861 261.124 507.791 269.921 526.748L268.434 528.74C253.843 519.354 250.769 512.412 228.421 519.218Z" fill="#868585"/>
<path d="M215.566 495.947C217.451 495.747 219.918 495.15 221.487 496.526C230.077 504.054 213.214 505.153 210.233 506.556C207.734 507.734 202.647 513.564 201.307 509.932C203.981 504.726 209.485 496.716 215.566 495.947Z" fill="#BEBDBD"/>
<path d="M197.008 519.218C205.49 519.415 212.666 522.689 218.586 528.74C200.055 525.833 185.095 526.429 173.446 543.623C169.51 548.789 167.644 554.886 165.241 560.832C163.845 539.216 174.377 521.486 197.008 519.218Z" fill="#BEBDBD"/>
<path d="M145.334 565.954C148.489 565.495 150.211 567.297 152.422 569.242C146.503 571.296 141.916 573.725 136.87 577.435L132.518 580.864C134.452 573.386 137.9 568.969 145.334 565.954Z" fill="#BEBDBD"/>
<path d="M578.392 497.536C598.274 474.494 644.245 485.546 654.854 515.954C679.684 519.64 695.111 532.402 691.092 559.442L691.038 559.78C704.316 561.285 715.21 568.887 720.911 580.865C734.128 604.183 718.422 635.066 692.185 639.369C677.976 641.698 654.243 638.985 638.5 639.072L638.018 639.424C634.057 642.37 631.193 646.483 627.57 649.796C607.624 668.031 582.137 662.814 565.753 642.889L569.85 641.91C610.185 630.616 633.062 590.918 616.689 551.163C608.826 532.068 595.14 521.955 576.64 514.32C573.976 513.303 571.18 512.625 568.43 511.88C568.1 505.205 573.731 501.471 578.392 497.536Z" fill="#514E4E"/>
<path d="M720.911 580.865C734.128 604.183 718.422 635.066 692.185 639.369C677.976 641.698 654.243 638.985 638.5 639.072L638.018 639.424C634.057 642.37 631.193 646.483 627.57 649.796C607.624 668.03 582.137 662.814 565.753 642.889L569.85 641.91C571.799 644.648 582.965 645.333 586.369 645.517C600.374 646.272 613.621 641.943 623.693 631.877C626.428 629.144 628.21 625.629 631.205 623.124C652.613 625.038 666.185 635.481 691.12 622.313C710.499 612.079 714.834 600.652 720.911 580.865Z" fill="#3C3A3A"/>
<path d="M578.392 497.536C581.636 497.306 585.312 496.925 587.978 499.201C595.677 505.767 583.532 507.071 580.569 508.714C578.462 509.881 578.362 512.995 576.639 514.32C573.976 513.303 571.179 512.625 568.429 511.88C568.099 505.205 573.731 501.471 578.392 497.536Z" fill="#BEBDBD"/>
<path d="M608.881 509.932C623.194 508.128 633.957 516.313 640.154 528.74C660.392 512.718 681.415 526.875 685.12 549.59C681.467 545.283 678.887 540.295 674.98 536.111C666.131 526.938 644.407 518.288 638.5 534.574C626.337 515.575 612.485 509.502 590.754 519.218C595.931 513.394 600.949 510.499 608.881 509.932Z" fill="#868585"/>
<path d="M603.524 717.504C614.033 717.509 649.459 712.752 642.474 734.461C639.542 743.577 626.549 761.785 621.377 771.258C628.607 771.231 644.957 769.983 650.646 772.998C667.099 781.723 649.489 799.759 643.341 808.084C630.075 826.046 610.679 848.801 600.014 868.074C595.033 873.445 590.397 884.801 581.12 881.893C567.452 877.608 573.576 863.677 576.517 854.222C580.733 840.666 585.575 827.416 590.303 814.038C579.722 813.689 562.114 817.881 557.192 804.979C553.732 795.909 559.39 789.222 563.7 781.693L592.583 732.124C595.583 727.017 597.566 719.667 603.524 717.504ZM575.255 801.814C580.166 794.413 583.777 786.256 588.377 778.676L614.862 733.734C615.561 732.547 616.456 731.571 617.033 730.306L616.65 729.766L614.456 729.579C612.421 729.56 610.386 729.527 608.351 729.579C602.727 738.023 569.596 793.897 568.285 799.318C569.564 802.28 572.502 801.773 575.255 801.814Z" fill="black"/>
<path d="M614.456 729.579C619.858 729.611 625.459 729.272 630.835 729.579C628.635 737.122 615.386 757.518 610.222 765.788C607.347 770.393 598.11 781.096 608.292 783.612C616.594 785.663 638.131 781.083 644.43 784.321C644.987 785.878 606.953 836.383 603.785 840.678C598.679 847.603 591.442 856.168 587.228 863.235C590.491 849.881 595.357 837.033 599.716 824.013C609.406 795.064 600.705 801.956 575.256 801.814C580.166 794.413 583.778 786.256 588.377 778.676L614.862 733.734C615.561 732.547 616.457 731.571 617.033 730.306L616.651 729.766L614.456 729.579Z" fill="#FECA04"/>
<path d="M243.663 717.504C254.561 714.269 281.869 717.053 276.567 735.333C274.591 742.15 261.199 762.902 257.081 771.258C264.001 771.237 277.38 769.229 282.874 772.349C300.48 782.349 280.377 802 273.472 811.337L244.103 851.392C239.432 857.84 234.438 864.086 230.243 870.866C226.028 875.431 222.242 885.085 214.471 882.756C200.448 878.551 208.673 859.354 211.497 850.365C215.318 838.206 219.441 826.159 223.372 814.038C195.553 813.98 181.905 812.172 199.878 780.817L226.979 733.789C231.509 725.942 233.708 718.831 243.663 717.504ZM211.918 801.814C213.299 795.314 233.762 761.873 238.87 753.045C243.345 745.312 248.375 737.895 251.731 729.579C249.045 729.572 246.347 729.512 243.663 729.579C235.886 741.763 205.136 793.518 203.926 799.716C205.076 802.684 209.41 801.836 211.918 801.814Z" fill="black"/>
<path d="M251.731 729.579C253.964 729.437 264.724 727.843 264.884 731.458C265.154 737.553 240.679 768.936 239.101 778.076C237.264 788.709 272.356 780.532 277.301 783.483C278.738 786.385 224.114 858.367 219.842 864.523C224.78 845.214 232.318 826.319 237.33 806.715C233.692 798.429 220.119 801.863 211.918 801.814C213.299 795.313 233.762 761.873 238.871 753.045C243.345 745.312 248.375 737.895 251.731 729.579Z" fill="#FECA04"/>
<path d="M428.601 705.236C439.632 704.916 462.737 701.408 467.426 714.256L468.12 716.149C471.969 726.76 455.286 747.555 450.416 757.862C460.171 758.179 494.153 754.094 486.629 775.872C483.905 783.753 456.813 820.644 450.762 829.675C446.291 836.348 439.784 843.375 437.322 851.082C430.967 858.532 419.761 872.195 410.339 856.668C405.39 848.514 420.425 810.626 423.201 799.286C415.714 799.311 407.652 799.887 400.218 799.151C388.599 798 382.1 788.141 387.279 777.708C391.805 768.591 423.547 708.765 428.601 705.236ZM404.681 787.3C407.06 781.739 410.769 776.509 413.795 771.26C420.937 758.873 438.202 729.316 442.013 717.624C439.256 717.626 436.495 717.654 433.736 717.624C429.04 729.666 398.388 778.904 397.952 785.586C399.357 787.605 402.492 787.229 404.681 787.3Z" fill="black"/>
<path d="M442.013 717.624C444.78 717.596 456.617 715.854 456.39 720.268C456.132 725.282 435.995 753.98 433.648 762.895C430.988 772.996 445.384 770.519 451.19 770.455C459.102 770.367 467.044 770.198 474.951 770.41C469.284 783.535 451.94 805.359 443.581 817.9L429.456 839.555C426.687 843.835 424.07 848.481 420.745 852.354C423.502 836.721 432.86 810.872 437.322 794.365C432.542 782.473 416.753 787.602 404.681 787.3C407.06 781.739 410.769 776.509 413.795 771.26C420.937 758.873 438.202 729.315 442.013 717.624Z" fill="#FECA04"/>
</svg>
