<svg width="849" height="1183" viewBox="0 0 849 1183" fill="none" xmlns="http://www.w3.org/2000/svg">
<rect x="5" y="5" width="839" height="1173" rx="45" fill="white"/>
<rect x="5" y="5" width="839" height="1173" rx="45" stroke="black" stroke-width="10"/>
<circle cx="786.5" cy="1124.5" r="11.5" fill="black"/>
<circle cx="786.5" cy="59.5" r="11.5" fill="black"/>
<path d="M77 1124.5C77 1130.85 71.8513 1136 65.5 1136C59.1487 1136 54 1130.85 54 1124.5C54 1118.15 59.1487 1113 65.5 1113C71.8513 1113 77 1118.15 77 1124.5Z" fill="black"/>
<path d="M77 59.5C77 65.8513 71.8513 71 65.5 71C59.1487 71 54 65.8513 54 59.5C54 53.1487 59.1487 48 65.5 48C71.8513 48 77 53.1487 77 59.5Z" fill="black"/>
<mask id="path-6-inside-1_1_1688" fill="white">
<path d="M708 48C713.523 48 717.934 52.4996 718.616 57.9801C723.122 94.1833 751.817 122.878 788.02 127.384C793.5 128.066 798 132.477 798 138V1046C798 1051.52 793.5 1055.93 788.02 1056.62C751.817 1061.12 723.122 1089.82 718.616 1126.02C717.934 1131.5 713.523 1136 708 1136H141C135.477 1136 131.066 1131.5 130.384 1126.02C125.878 1089.82 97.1833 1061.12 60.9801 1056.62C55.4996 1055.93 51 1051.52 51 1046V138C51 132.477 55.4996 128.066 60.9801 127.384C97.1833 122.878 125.878 94.1833 130.384 57.9801C131.066 52.4996 135.477 48 141 48H708Z"/>
</mask>
<path d="M708 48C713.523 48 717.934 52.4996 718.616 57.9801C723.122 94.1833 751.817 122.878 788.02 127.384C793.5 128.066 798 132.477 798 138V1046C798 1051.52 793.5 1055.93 788.02 1056.62C751.817 1061.12 723.122 1089.82 718.616 1126.02C717.934 1131.5 713.523 1136 708 1136H141C135.477 1136 131.066 1131.5 130.384 1126.02C125.878 1089.82 97.1833 1061.12 60.9801 1056.62C55.4996 1055.93 51 1051.52 51 1046V138C51 132.477 55.4996 128.066 60.9801 127.384C97.1833 122.878 125.878 94.1833 130.384 57.9801C131.066 52.4996 135.477 48 141 48H708Z" fill="#7047A3"/>
<path d="M130.384 1126.02L138.322 1125.03L130.384 1126.02ZM718.616 1126.02L710.678 1125.03L718.616 1126.02ZM788.02 1056.62L789.008 1064.56L788.02 1056.62ZM718.616 57.9801L726.555 56.9922L718.616 57.9801ZM718.616 57.9801L710.678 58.9681C715.635 98.8063 747.194 130.365 787.032 135.322L788.02 127.384L789.008 119.445C756.44 115.392 730.608 89.5603 726.555 56.9922L718.616 57.9801ZM798 138H790V1046H798H806V138H798ZM788.02 1056.62L787.032 1048.68C747.194 1053.64 715.635 1085.19 710.678 1125.03L718.616 1126.02L726.555 1127.01C730.608 1094.44 756.44 1068.61 789.008 1064.56L788.02 1056.62ZM708 1136V1128H141V1136V1144H708V1136ZM130.384 1126.02L138.322 1125.03C133.365 1085.19 101.806 1053.64 61.9681 1048.68L60.9801 1056.62L59.9922 1064.56C92.5603 1068.61 118.392 1094.44 122.445 1127.01L130.384 1126.02ZM51 1046H59V138H51H43V1046H51ZM60.9801 127.384L61.9681 135.322C101.806 130.365 133.365 98.8063 138.322 58.9681L130.384 57.9801L122.445 56.9922C118.392 89.5603 92.5603 115.392 59.9922 119.445L60.9801 127.384ZM141 48V56H708V48V40H141V48ZM130.384 57.9801L138.322 58.9681C138.438 58.0389 138.872 57.2306 139.427 56.6958C139.954 56.1887 140.494 56 141 56V48V40C130.84 40 123.547 48.1329 122.445 56.9922L130.384 57.9801ZM51 138H59C59 137.494 59.1887 136.954 59.6958 136.427C60.2306 135.872 61.0389 135.438 61.9681 135.322L60.9801 127.384L59.9922 119.445C51.1329 120.547 43 127.84 43 138H51ZM60.9801 1056.62L61.9681 1048.68C61.0389 1048.56 60.2306 1048.13 59.6958 1047.57C59.1887 1047.05 59 1046.51 59 1046H51H43C43 1056.16 51.1329 1063.45 59.9922 1064.56L60.9801 1056.62ZM141 1136V1128C140.494 1128 139.954 1127.81 139.427 1127.3C138.872 1126.77 138.438 1125.96 138.322 1125.03L130.384 1126.02L122.445 1127.01C123.547 1135.87 130.84 1144 141 1144V1136ZM718.616 1126.02L710.678 1125.03C710.562 1125.96 710.128 1126.77 709.573 1127.3C709.046 1127.81 708.506 1128 708 1128V1136V1144C718.16 1144 725.453 1135.87 726.555 1127.01L718.616 1126.02ZM798 1046H790C790 1046.51 789.811 1047.05 789.304 1047.57C788.769 1048.13 787.961 1048.56 787.032 1048.68L788.02 1056.62L789.008 1064.56C797.867 1063.45 806 1056.16 806 1046H798ZM788.02 127.384L787.032 135.322C787.961 135.438 788.769 135.872 789.304 136.427C789.811 136.954 790 137.494 790 138H798H806C806 127.84 797.867 120.547 789.008 119.445L788.02 127.384ZM718.616 57.9801L726.555 56.9922C725.453 48.1329 718.16 40 708 40V48V56C708.506 56 709.046 56.1887 709.573 56.6958C710.128 57.2306 710.562 58.0389 710.678 58.9681L718.616 57.9801Z" fill="black" mask="url(#path-6-inside-1_1_1688)"/>
<path d="M690 102C695.523 102 699.911 106.512 700.837 111.957C705.019 136.563 724.437 155.981 749.043 160.163C754.488 161.089 759 165.477 759 171V1014C759 1019.52 754.488 1023.91 749.043 1024.84C724.711 1028.97 705.454 1048 700.984 1072.22C699.993 1077.59 695.633 1082 690.175 1082H158.825C153.367 1082 149.007 1077.59 148.016 1072.22C143.546 1048 124.288 1028.97 99.9568 1024.84C94.5121 1023.91 90 1019.52 90 1014V171C90 165.477 94.512 161.089 99.9568 160.163C124.563 155.981 143.981 136.563 148.163 111.957C149.089 106.512 153.477 102 159 102H690Z" fill="#B48FE1"/>
<mask id="path-9-outside-2_1_1688" maskUnits="userSpaceOnUse" x="401" y="1006" width="46" height="32" fill="black">
<rect fill="white" x="401" y="1006" width="46" height="32"/>
<path d="M404.92 1030.8C407.48 1028.59 409.493 1026.77 410.96 1025.36C412.453 1023.92 413.693 1022.43 414.68 1020.88C415.667 1019.33 416.16 1017.79 416.16 1016.24C416.16 1014.64 415.773 1013.39 415 1012.48C414.253 1011.57 413.067 1011.12 411.44 1011.12C409.867 1011.12 408.64 1011.63 407.76 1012.64C406.907 1013.63 406.453 1014.96 406.4 1016.64H402C402.08 1013.6 402.987 1011.28 404.72 1009.68C406.48 1008.05 408.707 1007.24 411.4 1007.24C414.307 1007.24 416.573 1008.04 418.2 1009.64C419.853 1011.24 420.68 1013.37 420.68 1016.04C420.68 1017.96 420.187 1019.81 419.2 1021.6C418.24 1023.36 417.08 1024.95 415.72 1026.36C414.387 1027.75 412.68 1029.36 410.6 1031.2L408.8 1032.8H421.48V1036.6H402.04V1033.28L404.92 1030.8ZM431.166 1029.08C431.433 1030.41 432.006 1031.43 432.886 1032.12C433.766 1032.81 434.953 1033.16 436.446 1033.16C438.339 1033.16 439.726 1032.41 440.606 1030.92C441.486 1029.43 441.926 1026.88 441.926 1023.28C441.286 1024.19 440.379 1024.89 439.206 1025.4C438.059 1025.88 436.806 1026.12 435.446 1026.12C433.713 1026.12 432.139 1025.77 430.726 1025.08C429.313 1024.36 428.193 1023.31 427.366 1021.92C426.566 1020.51 426.166 1018.8 426.166 1016.8C426.166 1013.87 427.019 1011.53 428.726 1009.8C430.459 1008.04 432.833 1007.16 435.846 1007.16C439.473 1007.16 442.046 1008.37 443.566 1010.8C445.113 1013.2 445.886 1016.89 445.886 1021.88C445.886 1025.32 445.593 1028.13 445.006 1030.32C444.446 1032.51 443.459 1034.16 442.046 1035.28C440.633 1036.4 438.673 1036.96 436.166 1036.96C433.313 1036.96 431.113 1036.21 429.566 1034.72C428.019 1033.23 427.153 1031.35 426.966 1029.08H431.166ZM436.246 1022.28C437.846 1022.28 439.099 1021.79 440.006 1020.8C440.939 1019.79 441.406 1018.45 441.406 1016.8C441.406 1014.96 440.913 1013.53 439.926 1012.52C438.966 1011.48 437.646 1010.96 435.966 1010.96C434.286 1010.96 432.953 1011.49 431.966 1012.56C431.006 1013.6 430.526 1014.97 430.526 1016.68C430.526 1018.31 430.993 1019.65 431.926 1020.72C432.886 1021.76 434.326 1022.28 436.246 1022.28Z"/>
</mask>
<path d="M404.92 1030.8C407.48 1028.59 409.493 1026.77 410.96 1025.36C412.453 1023.92 413.693 1022.43 414.68 1020.88C415.667 1019.33 416.16 1017.79 416.16 1016.24C416.16 1014.64 415.773 1013.39 415 1012.48C414.253 1011.57 413.067 1011.12 411.44 1011.12C409.867 1011.12 408.64 1011.63 407.76 1012.64C406.907 1013.63 406.453 1014.96 406.4 1016.64H402C402.08 1013.6 402.987 1011.28 404.72 1009.68C406.48 1008.05 408.707 1007.24 411.4 1007.24C414.307 1007.24 416.573 1008.04 418.2 1009.64C419.853 1011.24 420.68 1013.37 420.68 1016.04C420.68 1017.96 420.187 1019.81 419.2 1021.6C418.24 1023.36 417.08 1024.95 415.72 1026.36C414.387 1027.75 412.68 1029.36 410.6 1031.2L408.8 1032.8H421.48V1036.6H402.04V1033.28L404.92 1030.8ZM431.166 1029.08C431.433 1030.41 432.006 1031.43 432.886 1032.12C433.766 1032.81 434.953 1033.16 436.446 1033.16C438.339 1033.16 439.726 1032.41 440.606 1030.92C441.486 1029.43 441.926 1026.88 441.926 1023.28C441.286 1024.19 440.379 1024.89 439.206 1025.4C438.059 1025.88 436.806 1026.12 435.446 1026.12C433.713 1026.12 432.139 1025.77 430.726 1025.08C429.313 1024.36 428.193 1023.31 427.366 1021.92C426.566 1020.51 426.166 1018.8 426.166 1016.8C426.166 1013.87 427.019 1011.53 428.726 1009.8C430.459 1008.04 432.833 1007.16 435.846 1007.16C439.473 1007.16 442.046 1008.37 443.566 1010.8C445.113 1013.2 445.886 1016.89 445.886 1021.88C445.886 1025.32 445.593 1028.13 445.006 1030.32C444.446 1032.51 443.459 1034.16 442.046 1035.28C440.633 1036.4 438.673 1036.96 436.166 1036.96C433.313 1036.96 431.113 1036.21 429.566 1034.72C428.019 1033.23 427.153 1031.35 426.966 1029.08H431.166ZM436.246 1022.28C437.846 1022.28 439.099 1021.79 440.006 1020.8C440.939 1019.79 441.406 1018.45 441.406 1016.8C441.406 1014.96 440.913 1013.53 439.926 1012.52C438.966 1011.48 437.646 1010.96 435.966 1010.96C434.286 1010.96 432.953 1011.49 431.966 1012.56C431.006 1013.6 430.526 1014.97 430.526 1016.68C430.526 1018.31 430.993 1019.65 431.926 1020.72C432.886 1021.76 434.326 1022.28 436.246 1022.28Z" fill="black"/>
<path d="M404.92 1030.8L405.116 1031.03L405.116 1031.03L404.92 1030.8ZM410.96 1025.36L411.168 1025.58L411.168 1025.58L410.96 1025.36ZM415 1012.48L414.768 1012.67L414.772 1012.67L415 1012.48ZM407.76 1012.64L407.533 1012.44L407.533 1012.44L407.76 1012.64ZM406.4 1016.64V1016.94H406.691L406.7 1016.65L406.4 1016.64ZM402 1016.64L401.7 1016.63L401.692 1016.94H402V1016.64ZM404.72 1009.68L404.923 1009.9L404.924 1009.9L404.72 1009.68ZM418.2 1009.64L417.99 1009.85L417.991 1009.86L418.2 1009.64ZM419.2 1021.6L418.937 1021.45L418.937 1021.46L419.2 1021.6ZM415.72 1026.36L415.504 1026.15L415.504 1026.15L415.72 1026.36ZM410.6 1031.2L410.401 1030.98L410.401 1030.98L410.6 1031.2ZM408.8 1032.8L408.601 1032.58L408.011 1033.1H408.8V1032.8ZM421.48 1032.8H421.78V1032.5H421.48V1032.8ZM421.48 1036.6V1036.9H421.78V1036.6H421.48ZM402.04 1036.6H401.74V1036.9H402.04V1036.6ZM402.04 1033.28L401.844 1033.05L401.74 1033.14V1033.28H402.04ZM404.92 1030.8L405.116 1031.03C407.678 1028.81 409.696 1026.99 411.168 1025.58L410.96 1025.36L410.752 1025.14C409.291 1026.55 407.282 1028.36 404.724 1030.57L404.92 1030.8ZM410.96 1025.36L411.168 1025.58C412.676 1024.12 413.932 1022.61 414.933 1021.04L414.68 1020.88L414.427 1020.72C413.455 1022.24 412.23 1023.72 410.752 1025.14L410.96 1025.36ZM414.68 1020.88L414.933 1021.04C415.945 1019.46 416.46 1017.85 416.46 1016.24H416.16H415.86C415.86 1017.72 415.389 1019.21 414.427 1020.72L414.68 1020.88ZM416.16 1016.24H416.46C416.46 1014.59 416.062 1013.26 415.228 1012.29L415 1012.48L414.772 1012.67C415.485 1013.51 415.86 1014.69 415.86 1016.24H416.16ZM415 1012.48L415.232 1012.29C414.408 1011.29 413.12 1010.82 411.44 1010.82V1011.12V1011.42C413.013 1011.42 414.098 1011.86 414.768 1012.67L415 1012.48ZM411.44 1011.12V1010.82C409.796 1010.82 408.48 1011.35 407.533 1012.44L407.76 1012.64L407.987 1012.84C408.8 1011.9 409.937 1011.42 411.44 1011.42V1011.12ZM407.76 1012.64L407.533 1012.44C406.623 1013.5 406.155 1014.9 406.1 1016.63L406.4 1016.64L406.7 1016.65C406.752 1015.02 407.19 1013.76 407.987 1012.84L407.76 1012.64ZM406.4 1016.64V1016.34H402V1016.64V1016.94H406.4V1016.64ZM402 1016.64L402.3 1016.65C402.378 1013.66 403.266 1011.43 404.923 1009.9L404.72 1009.68L404.517 1009.46C402.708 1011.13 401.782 1013.54 401.7 1016.63L402 1016.64ZM404.72 1009.68L404.924 1009.9C406.621 1008.33 408.772 1007.54 411.4 1007.54V1007.24V1006.94C408.641 1006.94 406.339 1007.78 404.516 1009.46L404.72 1009.68ZM411.4 1007.24V1007.54C414.251 1007.54 416.433 1008.32 417.99 1009.85L418.2 1009.64L418.41 1009.43C416.713 1007.76 414.363 1006.94 411.4 1006.94V1007.24ZM418.2 1009.64L417.991 1009.86C419.577 1011.39 420.38 1013.44 420.38 1016.04H420.68H420.98C420.98 1013.31 420.13 1011.09 418.409 1009.42L418.2 1009.64ZM420.68 1016.04H420.38C420.38 1017.91 419.901 1019.71 418.937 1021.45L419.2 1021.6L419.463 1021.75C420.472 1019.92 420.98 1018.01 420.98 1016.04H420.68ZM419.2 1021.6L418.937 1021.46C417.989 1023.19 416.845 1024.76 415.504 1026.15L415.72 1026.36L415.936 1026.57C417.315 1025.14 418.491 1023.53 419.463 1021.74L419.2 1021.6ZM415.72 1026.36L415.504 1026.15C414.178 1027.53 412.478 1029.14 410.401 1030.98L410.6 1031.2L410.799 1031.42C412.882 1029.58 414.595 1027.96 415.936 1026.57L415.72 1026.36ZM410.6 1031.2L410.401 1030.98L408.601 1032.58L408.8 1032.8L408.999 1033.02L410.799 1031.42L410.6 1031.2ZM408.8 1032.8V1033.1H421.48V1032.8V1032.5H408.8V1032.8ZM421.48 1032.8H421.18V1036.6H421.48H421.78V1032.8H421.48ZM421.48 1036.6V1036.3H402.04V1036.6V1036.9H421.48V1036.6ZM402.04 1036.6H402.34V1033.28H402.04H401.74V1036.6H402.04ZM402.04 1033.28L402.236 1033.51L405.116 1031.03L404.92 1030.8L404.724 1030.57L401.844 1033.05L402.04 1033.28ZM431.166 1029.08L431.46 1029.02L431.412 1028.78H431.166V1029.08ZM432.886 1032.12L432.7 1032.36L432.886 1032.12ZM440.606 1030.92L440.347 1030.77L440.606 1030.92ZM441.926 1023.28H442.226V1022.33L441.681 1023.11L441.926 1023.28ZM439.206 1025.4L439.322 1025.68L439.325 1025.68L439.206 1025.4ZM430.726 1025.08L430.59 1025.35L430.594 1025.35L430.726 1025.08ZM427.366 1021.92L427.105 1022.07L427.108 1022.07L427.366 1021.92ZM428.726 1009.8L428.512 1009.59L428.512 1009.59L428.726 1009.8ZM443.566 1010.8L443.312 1010.96L443.314 1010.96L443.566 1010.8ZM445.006 1030.32L444.716 1030.24L444.715 1030.25L445.006 1030.32ZM442.046 1035.28L442.232 1035.52L442.046 1035.28ZM429.566 1034.72L429.358 1034.94L429.566 1034.72ZM426.966 1029.08V1028.78H426.64L426.667 1029.1L426.966 1029.08ZM440.006 1020.8L439.785 1020.6L439.785 1020.6L440.006 1020.8ZM439.926 1012.52L439.705 1012.72L439.711 1012.73L439.926 1012.52ZM431.966 1012.56L431.746 1012.36L431.745 1012.36L431.966 1012.56ZM431.926 1020.72L431.7 1020.92L431.705 1020.92L431.926 1020.72ZM431.166 1029.08L430.872 1029.14C431.149 1030.53 431.753 1031.61 432.7 1032.36L432.886 1032.12L433.072 1031.88C432.259 1031.24 431.716 1030.3 431.46 1029.02L431.166 1029.08ZM432.886 1032.12L432.7 1032.36C433.648 1033.1 434.908 1033.46 436.446 1033.46V1033.16V1032.86C434.998 1032.86 433.883 1032.52 433.072 1031.88L432.886 1032.12ZM436.446 1033.16V1033.46C438.434 1033.46 439.925 1032.67 440.864 1031.07L440.606 1030.92L440.347 1030.77C439.527 1032.16 438.245 1032.86 436.446 1032.86V1033.16ZM440.606 1030.92L440.864 1031.07C441.788 1029.5 442.226 1026.89 442.226 1023.28H441.926H441.626C441.626 1026.87 441.184 1029.35 440.347 1030.77L440.606 1030.92ZM441.926 1023.28L441.681 1023.11C441.077 1023.96 440.217 1024.64 439.087 1025.12L439.206 1025.4L439.325 1025.68C440.541 1025.15 441.495 1024.41 442.171 1023.45L441.926 1023.28ZM439.206 1025.4L439.09 1025.12C437.983 1025.59 436.77 1025.82 435.446 1025.82V1026.12V1026.42C436.842 1026.42 438.135 1026.17 439.322 1025.68L439.206 1025.4ZM435.446 1026.12V1025.82C433.754 1025.82 432.226 1025.48 430.858 1024.81L430.726 1025.08L430.594 1025.35C432.052 1026.06 433.671 1026.42 435.446 1026.42V1026.12ZM430.726 1025.08L430.862 1024.81C429.5 1024.12 428.422 1023.11 427.624 1021.77L427.366 1021.92L427.108 1022.07C427.963 1023.51 429.125 1024.6 430.59 1025.35L430.726 1025.08ZM427.366 1021.92L427.627 1021.77C426.858 1020.41 426.466 1018.76 426.466 1016.8H426.166H425.866C425.866 1018.84 426.274 1020.6 427.105 1022.07L427.366 1021.92ZM426.166 1016.8H426.466C426.466 1013.93 427.299 1011.68 428.94 1010.01L428.726 1009.8L428.512 1009.59C426.739 1011.39 425.866 1013.81 425.866 1016.8H426.166ZM428.726 1009.8L428.94 1010.01C430.605 1008.32 432.894 1007.46 435.846 1007.46V1007.16V1006.86C432.771 1006.86 430.314 1007.76 428.512 1009.59L428.726 1009.8ZM435.846 1007.16V1007.46C439.401 1007.46 441.861 1008.64 443.312 1010.96L443.566 1010.8L443.82 1010.64C442.23 1008.1 439.544 1006.86 435.846 1006.86V1007.16ZM443.566 1010.8L443.314 1010.96C444.814 1013.29 445.586 1016.91 445.586 1021.88H445.886H446.186C446.186 1016.87 445.412 1013.11 443.818 1010.64L443.566 1010.8ZM445.886 1021.88H445.586C445.586 1025.31 445.294 1028.09 444.716 1030.24L445.006 1030.32L445.296 1030.4C445.892 1028.18 446.186 1025.33 446.186 1021.88H445.886ZM445.006 1030.32L444.715 1030.25C444.167 1032.38 443.21 1033.97 441.86 1035.04L442.046 1035.28L442.232 1035.52C443.709 1034.35 444.724 1032.63 445.297 1030.39L445.006 1030.32ZM442.046 1035.28L441.86 1035.04C440.517 1036.11 438.631 1036.66 436.166 1036.66V1036.96V1037.26C438.714 1037.26 440.749 1036.69 442.232 1035.52L442.046 1035.28ZM436.166 1036.96V1036.66C433.364 1036.66 431.249 1035.93 429.774 1034.5L429.566 1034.72L429.358 1034.94C430.977 1036.5 433.261 1037.26 436.166 1037.26V1036.96ZM429.566 1034.72L429.774 1034.5C428.283 1033.06 427.446 1031.25 427.265 1029.06L426.966 1029.08L426.667 1029.1C426.859 1031.44 427.755 1033.39 429.358 1034.94L429.566 1034.72ZM426.966 1029.08V1029.38H431.166V1029.08V1028.78H426.966V1029.08ZM436.246 1022.28V1022.58C437.912 1022.58 439.252 1022.06 440.227 1021L440.006 1020.8L439.785 1020.6C438.946 1021.51 437.78 1021.98 436.246 1021.98V1022.28ZM440.006 1020.8L440.227 1021C441.221 1019.92 441.706 1018.51 441.706 1016.8H441.406H441.106C441.106 1018.39 440.658 1019.65 439.785 1020.6L440.006 1020.8ZM441.406 1016.8H441.706C441.706 1014.91 441.197 1013.4 440.141 1012.31L439.926 1012.52L439.711 1012.73C440.628 1013.67 441.106 1015.01 441.106 1016.8H441.406ZM439.926 1012.52L440.146 1012.32C439.119 1011.2 437.713 1010.66 435.966 1010.66V1010.96V1011.26C437.579 1011.26 438.813 1011.76 439.705 1012.72L439.926 1012.52ZM435.966 1010.96V1010.66C434.217 1010.66 432.798 1011.22 431.746 1012.36L431.966 1012.56L432.186 1012.76C433.107 1011.77 434.355 1011.26 435.966 1011.26V1010.96ZM431.966 1012.56L431.745 1012.36C430.724 1013.46 430.226 1014.91 430.226 1016.68H430.526H430.826C430.826 1015.03 431.288 1013.74 432.186 1012.76L431.966 1012.56ZM430.526 1016.68H430.226C430.226 1018.37 430.712 1019.79 431.7 1020.92L431.926 1020.72L432.152 1020.52C431.273 1019.52 430.826 1018.25 430.826 1016.68H430.526ZM431.926 1020.72L431.705 1020.92C432.74 1022.04 434.273 1022.58 436.246 1022.58V1022.28V1021.98C434.379 1021.98 433.031 1021.48 432.146 1020.52L431.926 1020.72Z" fill="black" mask="url(#path-9-outside-2_1_1688)"/>
<path d="M402.135 197.975V272H381.555V242.285H356.46V272H335.88V197.975H356.46V225.8H381.555V197.975H402.135ZM441.317 272.735C435.437 272.735 430.152 271.51 425.462 269.06C420.842 266.61 417.202 263.11 414.542 258.56C411.882 254.01 410.552 248.655 410.552 242.495C410.552 236.405 411.882 231.085 414.542 226.535C417.272 221.985 420.947 218.485 425.567 216.035C430.257 213.585 435.542 212.36 441.422 212.36C447.302 212.36 452.552 213.585 457.172 216.035C461.862 218.485 465.537 221.985 468.197 226.535C470.927 231.085 472.292 236.405 472.292 242.495C472.292 248.585 470.927 253.94 468.197 258.56C465.537 263.11 461.862 266.61 457.172 269.06C452.482 271.51 447.197 272.735 441.317 272.735ZM441.317 254.885C444.187 254.885 446.567 253.835 448.457 251.735C450.417 249.565 451.397 246.485 451.397 242.495C451.397 238.505 450.417 235.46 448.457 233.36C446.567 231.26 444.222 230.21 441.422 230.21C438.622 230.21 436.277 231.26 434.387 233.36C432.497 235.46 431.552 238.505 431.552 242.495C431.552 246.555 432.462 249.635 434.282 251.735C436.102 253.835 438.447 254.885 441.317 254.885ZM515.42 254.465V272H506.495C491.445 272 483.92 264.545 483.92 249.635V230.21H476.675V213.095H483.92V198.815H504.605V213.095H515.315V230.21H504.605V249.95C504.605 251.56 504.955 252.715 505.655 253.415C506.425 254.115 507.685 254.465 509.435 254.465H515.42Z" fill="black"/>
<path d="M268.697 582.272C230.828 569.854 206.974 532.451 211.683 492.878C216.393 453.305 248.359 422.545 288.084 419.36C327.809 416.176 364.267 441.451 375.22 479.768C379.302 479.437 383.371 479.155 387.462 479.547C396.614 480.421 409.061 485.09 417.204 489.393C420.453 491.11 423.505 493.215 426.59 495.205C431.964 495.654 436.996 496.245 440.788 500.654C443.025 503.253 443.908 506.538 444.179 509.889C447.682 514.146 450.818 518.685 454.379 522.895C462.728 532.763 475.029 543.847 488.536 545.163C490.173 545.323 491.828 545.37 493.471 545.437C523.246 537.66 551.795 540.719 578.485 556.452C601.976 570.069 618.963 592.605 625.583 618.938C629.179 633.16 629.493 648.18 627.513 662.673C626.178 672.443 624.26 682.032 623.859 691.913C623.881 692.06 623.898 692.21 623.926 692.357C624.261 694.108 626.183 696.8 627.025 698.481C629.108 702.641 631.179 706.81 632.961 711.11C644.873 739.862 645.161 764.6 634.003 793.436C638.51 798.058 641.499 803.49 643.146 809.737C646.011 820.61 645.536 835.679 646.168 847.14C646.963 861.581 648.429 876.299 648.402 890.76C655.585 889.125 662.149 889.083 668.606 893.108C673.706 896.25 677.325 901.315 678.644 907.159C679.018 908.801 679.177 910.465 679.325 912.139C686.205 912.895 692.528 915.143 696.988 920.71C700.491 925.081 702.424 931.107 701.889 936.712C701.714 938.535 701.074 940.443 699.535 941.562C698.354 942.419 696.78 942.553 695.37 942.64C691.853 942.854 688.223 942.673 684.693 942.66L664.306 942.603L597.751 942.627H313.294L240.603 942.623L222.536 942.605C219.996 942.606 217.031 943.003 214.561 942.495C213.354 942.247 212.306 941.683 211.63 940.625C210.891 939.467 210.726 938.015 211.043 936.69C211.358 935.37 212.187 934.095 213.412 933.456C216.185 932.011 227.914 932.857 231.631 932.9C230.269 926.094 231.183 919.42 235.093 913.569C238.611 908.201 244.154 904.488 250.456 903.278C256.373 902.17 262.254 903.4 267.673 905.857C268.536 896.328 272.274 887.637 279.709 881.378C286.701 875.494 294.783 873.259 303.786 873.226C304.481 870.831 306.079 868.425 307.266 866.225C310.966 859.37 314.667 852.625 315.982 844.839C320.109 820.412 304.483 810.032 291.879 792.518C283.068 780.274 277.686 766.708 276.886 751.54C275.941 733.648 280.269 715.285 285.833 698.399C288.359 690.732 291.944 682.973 292.696 674.884C293.413 667.156 291.958 660.528 290.095 653.087C288.233 653.552 286.48 653.862 284.553 653.692C280.407 653.326 276.298 651.086 273.731 647.827C271.995 645.605 270.894 642.955 270.545 640.157C269.971 635.666 271.104 630.486 271.646 625.999L273.964 606.682C271.977 603.583 269.374 586.602 268.697 582.272Z" fill="black"/>
<path d="M268.697 582.272C230.828 569.854 206.974 532.451 211.683 492.878C216.392 453.305 248.359 422.545 288.084 419.36C327.809 416.176 364.267 441.451 375.22 479.768C379.302 479.437 383.371 479.155 387.462 479.547C396.614 480.421 409.061 485.09 417.204 489.393C420.452 491.11 423.505 493.215 426.59 495.205C431.964 495.654 436.996 496.245 440.788 500.654C443.025 503.253 443.908 506.538 444.179 509.889C447.682 514.146 450.818 518.685 454.379 522.895C462.727 532.763 475.029 543.847 488.536 545.163C490.172 545.323 491.828 545.37 493.471 545.437C468.379 553.74 448.379 567.757 436.197 591.933C434.293 595.711 432.916 599.619 431.256 603.493C428.695 604.52 426.143 605.429 423.477 606.15C421.201 606.765 418.517 607.071 416.417 608.107C415.344 608.636 414.284 609.508 413.849 610.658C413.264 612.208 413.86 613.478 414.529 614.882C399.083 631.763 390.48 653.594 391.505 676.533C392.324 694.867 401.084 713.408 414.646 725.752C418.614 729.365 422.898 732.549 427.263 735.662C426.072 737.407 425.024 739.141 425.386 741.341C425.742 743.505 426.936 744.667 428.681 745.835C437.25 751.568 445.881 757.422 454.841 762.532C459.266 765.055 463.821 767.412 468.362 769.72C473.483 772.323 479.341 774.593 483.517 778.62C488.581 783.505 491.608 790.067 492.963 796.905C496.638 815.455 486.561 844.443 480.412 862.203C475.016 855.08 468.298 849.695 459.186 848.469C451.159 847.389 444.216 849.632 437.351 853.66C433.234 844.603 427.134 837.164 417.568 833.558C409.731 830.604 400.773 830.667 393.144 834.199C385.034 837.953 378.832 844.866 374.538 852.568C367.196 846.318 357.544 842.818 347.861 843.612C339.194 844.341 331.186 848.529 325.641 855.23C320.635 861.153 317.822 868.62 317.675 876.373C313.262 874.542 308.593 873.3 303.786 873.226C304.481 870.831 306.079 868.425 307.266 866.225C310.966 859.37 314.667 852.625 315.982 844.839C320.109 820.412 304.483 810.032 291.879 792.518C283.068 780.274 277.686 766.708 276.886 751.54C275.941 733.648 280.269 715.285 285.832 698.399C288.359 690.732 291.944 682.973 292.696 674.884C293.413 667.156 291.958 660.528 290.095 653.087C288.232 653.552 286.48 653.862 284.552 653.692C280.407 653.326 276.298 651.086 273.731 647.827C271.995 645.605 270.894 642.955 270.545 640.157C269.971 635.666 271.104 630.486 271.646 625.999L273.964 606.682C271.977 603.583 269.374 586.602 268.697 582.272Z" fill="#FEE06F"/>
<path d="M268.697 582.272C230.828 569.854 206.974 532.451 211.683 492.878C216.392 453.305 248.359 422.545 288.084 419.36C327.809 416.176 364.267 441.451 375.22 479.768C383.731 509.544 375.101 541.585 352.786 563.058C330.472 584.53 298.122 591.922 268.697 582.272Z" fill="black"/>
<path d="M288.589 429.768C328.857 426.235 364.384 455.967 368.003 496.227C371.621 536.487 341.965 572.077 301.713 575.782C261.34 579.497 225.618 549.732 221.989 509.35C218.359 468.969 248.2 433.312 288.589 429.768Z" fill="#FECA3D"/>
<path d="M293.494 438.701C295.782 438.746 299.729 438.547 301.614 439.903C302.583 440.601 303.086 441.574 303.232 442.749C303.422 444.282 302.957 445.962 301.975 447.158C299.83 449.767 294.21 449.607 291.021 449.992C275.617 451.851 263.02 458.448 253.337 470.672C252.341 471.525 251.245 472.299 249.908 472.442C248.691 472.572 247.431 472.331 246.514 471.475C245.698 470.714 245.344 469.645 245.309 468.55C245.174 464.389 248.846 459.594 251.521 456.694C262.358 444.95 277.834 439.369 293.494 438.701Z" fill="#FEE06F"/>
<path d="M237.244 479.768C237.676 479.759 238.103 479.745 238.534 479.788C240.142 479.946 241.822 480.709 242.847 481.981C243.863 483.242 244.189 484.923 243.991 486.505C243.65 489.224 242.091 491.453 239.948 493.074C239.542 493.254 239.123 493.46 238.682 493.542C237.583 493.749 236.246 493.557 235.401 492.791C234.052 491.569 233.771 489.257 233.817 487.546C233.899 484.499 235.089 481.882 237.244 479.768Z" fill="#FEE06F"/>
<path d="M444.179 509.889C443.722 514.255 443.371 517.982 440.226 521.419C437.299 524.619 433.209 526.159 428.944 526.377C424.398 526.609 419.784 526.057 415.24 525.865C409.079 525.604 402.112 526.178 396.156 524.669C393.603 524.022 391.255 522.794 389.341 520.975C386.457 518.202 384.794 514.397 384.717 510.397C384.671 506.316 386.262 502.387 389.132 499.485C391.058 497.509 393.516 496.009 396.207 495.355C400.782 494.243 405.906 494.931 410.566 495.036C415.906 495.154 421.247 495.21 426.59 495.204C431.964 495.654 436.996 496.245 440.788 500.654C443.025 503.253 443.908 506.537 444.179 509.889Z" fill="black"/>
<path d="M401.556 504.594C406.961 504.336 427.863 504.212 431.682 506.626C432.717 507.279 433.409 508.297 433.656 509.493C433.948 510.907 433.642 512.887 432.817 514.081C431.833 515.504 430.054 515.937 428.453 516.158C423.382 515.899 400.397 515.629 397.324 513.641C396.245 512.951 395.488 511.857 395.222 510.605C394.986 509.472 395.21 508.141 395.877 507.186C397.146 505.367 399.523 504.915 401.556 504.594Z" fill="#FECA3D"/>
<path d="M273.964 606.682C275.175 602.308 277.149 598.578 281.272 596.281C284.938 594.215 289.302 593.776 293.306 595.071C297.145 596.268 300.329 598.979 302.122 602.578C303.123 604.61 303.59 606.793 303.693 609.047C303.906 613.667 301.178 639.955 299.782 643.858C298.401 647.718 295.741 650.663 291.982 652.365C291.369 652.643 290.731 652.868 290.095 653.087C288.232 653.552 286.48 653.862 284.552 653.692C280.407 653.326 276.298 651.086 273.731 647.827C271.995 645.605 270.894 642.955 270.545 640.157C269.971 635.666 271.104 630.486 271.646 625.999L273.964 606.682Z" fill="black"/>
<path d="M287.284 604.841C287.973 604.751 288.6 604.694 289.294 604.78C290.648 604.947 291.872 605.535 292.65 606.687C293.352 607.725 293.277 608.983 293.27 610.182C293.243 614.963 292.27 619.968 291.759 624.735C291.232 629.665 291.143 635.067 290.011 639.868C289.614 641.552 288.569 642.145 287.187 643.016C286.607 643.122 285.994 643.224 285.404 643.197C284.194 643.142 282.911 642.57 282.149 641.617C281.594 640.923 281.257 640.079 281.184 639.193C280.895 635.845 281.739 631.921 282.1 628.562C282.722 622.783 283.21 616.934 284.04 611.184C284.471 608.194 284.775 606.719 287.284 604.841Z" fill="#FECA3D"/>
<path d="M379.086 543.918C383.1 543.645 386.666 543.913 390.247 545.958C394.075 548.145 397.685 550.923 401.336 553.399C406.337 556.79 415.758 562.228 419.523 566.746C420.574 568.007 421.331 570.038 421.726 571.615C422.711 575.555 421.891 579.723 419.805 583.17C417.512 586.958 413.895 589.029 409.706 590.071C405.988 590.571 402.761 590.221 399.397 588.443C394.255 585.724 389.415 582.022 384.606 578.749C380.02 575.627 374.178 572.481 370.413 568.369C368.97 566.794 367.958 564.756 367.371 562.713C366.216 558.663 366.756 554.319 368.866 550.675C371.169 546.749 374.827 544.935 379.086 543.918Z" fill="black"/>
<path d="M380.27 553.901C380.884 553.851 381.494 553.804 382.111 553.821C383.094 553.846 383.827 554.103 384.692 554.563C387.607 556.113 410.252 571.424 411.121 572.648C411.719 573.489 411.927 574.661 411.769 575.673C411.465 577.618 409.974 578.881 408.449 579.943C407.849 580.058 407.111 580.169 406.506 580.098C403.809 579.785 379.435 563.428 377.703 560.889C377.1 560.004 376.881 558.619 377.114 557.58C377.519 555.77 378.776 554.83 380.27 553.901Z" fill="#FECA3D"/>
<path d="M341.021 581.459C344.38 581.222 347.728 582.057 350.583 583.842C352.491 585.027 354.008 586.664 355.232 588.532C357.637 592.202 368.297 615.751 369.158 619.567C370.072 623.617 369.444 628.354 367.148 631.866C364.731 635.566 360.766 637.549 356.579 638.496C352.92 638.826 349.366 638.209 346.249 636.174C344.371 634.949 342.864 633.291 341.667 631.407C338.773 626.855 329.091 604.462 328.091 599.364C327.297 595.313 327.95 590.738 330.373 587.327C332.913 583.752 336.83 582.129 341.021 581.459Z" fill="black"/>
<path d="M341.167 591.988C341.882 591.968 342.621 591.936 343.326 592.072C344.732 592.345 345.962 593.191 346.721 594.407C349.208 598.303 350.678 603.428 352.562 607.688C354.694 612.509 357.398 617.212 359.156 622.175C359.445 622.992 359.557 623.7 359.332 624.55C358.834 626.423 357.492 627.396 355.873 628.285C355.563 628.296 355.252 628.303 354.942 628.305C353.418 628.31 352.181 628.017 351.112 626.866C348.741 624.312 337.356 597.635 337.782 595.37C338.102 593.672 339.813 592.769 341.167 591.988Z" fill="#FECA3D"/>
<path d="M425.238 770.096C425.948 770.086 426.773 770.079 427.463 770.249C428.254 770.444 428.967 771.052 429.326 771.775C429.932 772.999 429.562 774.675 429.086 775.882C427.999 778.635 426.089 781.267 424.378 783.658C416.408 794.798 405.892 802.989 393.32 808.318C369.841 818.269 344.011 812.334 321.422 803.057C319.96 802.425 318.514 801.885 317.461 800.63C316.848 799.9 316.423 799.053 316.641 798.071C316.849 797.128 317.638 796.131 318.446 795.616C319.12 795.188 320.008 795.012 320.789 795.202C324.146 796.018 327.664 797.935 330.945 799.159C337.781 801.732 344.839 803.673 352.029 804.956C376.526 809.236 399.691 802.64 415.855 783.051C418.334 780.046 422.706 771.806 424.992 770.254C425.072 770.199 425.156 770.148 425.238 770.096Z" fill="black"/>
<path d="M390.908 712.057C391.895 711.916 392.864 711.797 393.834 712.103C394.631 712.355 395.326 712.835 395.659 713.627C396.211 714.938 395.685 716.626 395.156 717.855C390.689 728.248 378.109 736.918 367.941 740.885C348.581 748.437 328.626 745.07 310.077 737.018C309.45 736.753 308.839 736.453 308.247 736.117C307.138 735.494 306.183 734.736 305.945 733.411C305.757 732.361 306.098 731.328 306.832 730.564C307.696 729.665 308.818 729.366 310.014 729.59C312.926 730.134 316.094 731.938 318.904 732.988C327.778 736.303 336.836 738.308 346.364 738.015C359.703 737.606 374.284 732.515 383.319 722.313C386.079 719.197 387.869 715.196 390.712 712.253C390.776 712.186 390.843 712.122 390.908 712.057Z" fill="black"/>
<path d="M378.749 645.063C378.972 645.102 379.196 645.141 379.418 645.189C380.627 645.452 381.666 646.016 382.289 647.13C382.827 648.093 382.721 649.332 382.446 650.354C381.887 652.43 380.686 654.321 379.562 656.132C374.879 663.681 368.851 669.366 361.029 673.632C346.314 681.657 331.272 681.242 315.541 676.69C314.374 676.301 313.306 676.045 312.487 675.082C311.836 674.315 311.272 673.239 311.509 672.209C311.756 671.138 312.979 669.848 314.057 669.595C316.251 669.079 324.495 671.838 327.453 672.272C332.737 673.046 338.083 673.269 343.368 672.379C354.268 670.544 366.229 663.631 372.342 654.276C374.177 651.469 375.45 646.81 378.453 645.215C378.551 645.164 378.65 645.114 378.749 645.063Z" fill="black"/>
<path d="M623.859 691.913C623.881 692.06 623.898 692.209 623.926 692.356C624.261 694.108 626.183 696.8 627.025 698.481C629.108 702.641 631.179 706.809 632.961 711.11C644.873 739.862 645.161 764.599 634.003 793.436C631.11 790.519 627.982 788.527 624.31 786.716C624.821 784.089 624.988 781.433 624.678 778.771C623.336 767.229 614.084 759.881 605.526 753.206C607.234 748.002 607.691 743.345 607.396 737.891C612.786 740.048 619.263 741.206 625.059 741.671C627.114 741.836 629.518 741.708 631.113 740.234C632.056 739.363 632.607 738.038 632.429 736.754C631.952 733.304 629.74 728.943 628.626 725.526C625.163 714.896 623.078 703.124 623.859 691.913Z" fill="#FEE06F"/>
<path d="M404.495 841.785C404.797 841.755 405.1 841.723 405.403 841.71C415.329 841.29 423.995 847.695 427.783 856.655C428.916 859.334 429.46 864.69 431.774 866.412C434.95 868.775 441.682 862.525 444.515 861.019C447.016 859.69 449.721 858.723 452.538 858.357C457.831 857.627 463.191 859.092 467.376 862.412C473.295 867.038 476.637 875.101 475.673 882.587C475.296 885.509 474.124 888.686 474.573 891.63C474.765 892.884 475.327 894.02 476.439 894.711C480.207 897.052 486.026 891.58 489.31 889.922C491.07 889.034 492.815 888.629 494.726 888.236C495.48 894.891 496.045 901.602 496.584 908.279C488.951 909.163 482.241 912.06 476.84 917.665C472.598 922.067 471.108 926.884 471.188 932.928L322.995 932.899L241.805 932.879C241.36 931.15 241.001 929.415 240.996 927.62C240.986 923.574 242.433 919.477 245.32 916.591C247.218 914.695 249.761 913.42 252.386 912.911C262.988 910.86 269.094 920.559 274.545 920.217C275.581 920.152 276.39 919.664 277.06 918.874C279.328 916.199 277.583 911.172 277.394 907.942C277.034 901.788 279.53 895.53 283.606 890.977C291.759 881.873 304.663 880.655 315.472 885.409C317.824 886.443 320.444 889.107 323.095 888.892C329.52 888.37 326.875 877.911 327.515 873.449C328.127 869.189 329.909 864.953 332.64 861.614C336.509 856.881 342.173 854.163 348.223 853.637C359.701 852.637 364.531 857.616 372.661 864.369C373.925 865.418 375.956 866.658 377.691 866.345C380.937 865.759 382.349 859.964 383.654 857.322C384.464 855.683 385.498 854.116 386.607 852.665C391.125 846.756 397.071 842.782 404.495 841.785Z" fill="#82B442"/>
<path d="M401.933 884.612C404.934 884.379 408.177 884.944 410.9 886.198C417.821 889.383 420.672 896.234 423.158 902.924C424.289 902.67 425.521 902.579 426.681 902.62C430.311 902.749 433.814 904.443 436.272 907.097C438.2 909.177 440.074 912.434 439.875 915.371C439.8 916.468 439.382 917.543 438.442 918.187C437.525 918.816 436.142 918.999 435.075 918.708C432.695 918.059 432.049 914.685 430.832 912.845C426.752 906.676 421.66 913.917 418.316 912.946C417.151 912.608 416.483 911.686 415.87 910.712C415.799 909.157 415.829 907.548 415.555 906.013C414.806 901.815 412.625 896.497 408.969 894.087C406.449 892.426 403.424 892.31 400.559 893.016C398.437 893.559 396.467 894.579 394.8 895.999C389.046 900.845 392.801 904.048 390.386 907.672C389.788 908.571 388.542 909.349 387.475 909.488C386.643 909.597 385.847 909.322 385.199 908.812C383.904 907.793 383.211 906.004 383.006 904.413C382.479 900.312 384.259 896.117 386.752 892.953C390.585 888.087 395.829 885.324 401.933 884.612Z" fill="black"/>
<path d="M535.153 613.42C535.685 615.57 536.326 617.643 537.049 619.737C543.202 635.183 555.531 645.765 570.594 652.244C571.438 652.607 572.283 652.98 573.143 653.306C572.42 658.262 572.081 663.295 571.617 668.282C571.351 671.147 570.767 674.289 570.96 677.153C571.049 678.477 571.334 679.942 572.127 681.039C572.621 681.722 573.311 682.254 574.167 682.372C576.995 682.762 580.638 679.013 582.981 677.671C584.193 676.976 585.514 676.601 586.859 676.259C590.419 677.039 593.155 678.302 595.216 681.501C597.971 685.777 597.847 691.279 596.696 696.06C594.941 703.348 589.964 710.817 583.514 714.769C575.342 719.777 567.569 714.819 565.327 715.957C562.962 717.159 561.238 720.77 559.406 722.667C557.844 724.282 555.954 725.737 554.142 727.056C532.753 742.627 507.862 745.81 482.58 739.466C468.752 735.997 454.161 731.201 446.384 718.317C439.277 706.544 439.547 692.722 442.827 679.785C445.767 668.189 451.19 653.504 455.887 642.448C463.946 644.862 472.113 643.739 479.512 639.756C480.885 639.017 482.262 638.148 483.508 637.212C485.041 635.933 486.492 634.562 487.957 633.205C489.224 633.372 490.462 633.471 491.741 633.457C502.811 633.339 515.52 628.916 524.601 622.656C528.486 619.978 531.867 616.784 535.153 613.42Z" fill="#FBAB6C"/>
<path d="M535.153 613.42C535.685 615.57 536.326 617.643 537.049 619.737C536.965 619.766 536.88 619.792 536.797 619.824C534.742 620.616 529.739 625.256 527.025 626.891C515.13 634.059 505.769 636.801 492.039 637.826C489.81 637.993 486.344 638.551 484.266 637.666C483.927 637.522 483.789 637.409 483.508 637.212C485.041 635.933 486.492 634.562 487.957 633.205C489.224 633.372 490.462 633.471 491.741 633.457C502.811 633.339 515.52 628.916 524.601 622.656C528.486 619.978 531.867 616.784 535.153 613.42Z" fill="#F76B4C"/>
<path d="M517.209 686.489C517.057 686.299 516.909 686.106 516.755 685.918C515.211 684.031 514.422 682.111 514.091 679.676C513.312 673.951 515.266 666.266 518.787 661.674C520.791 659.061 523.592 657.388 526.876 656.999C531.034 656.508 535.275 658.092 538.489 660.692C541.572 663.186 544.277 667.068 544.599 671.09C544.771 673.249 544.242 675.132 542.854 676.787C543.442 678.431 542.325 681.588 541.595 683.103C539.759 686.914 536.539 690.483 532.49 691.921C529.019 693.153 525.221 692.533 521.994 690.893C520.148 689.955 518.61 688.843 517.349 687.187L517.209 686.489Z" fill="black"/>
<path d="M517.209 686.489C517.309 686.566 517.407 686.647 517.51 686.72C519.625 688.247 521.704 688.989 524.32 688.448C527.685 687.751 530.351 685.004 532.143 682.21C534.244 678.936 537.083 671.758 534.365 668.299C533.474 667.164 531.657 666.487 531.477 664.984C531.369 664.077 531.705 663.484 532.199 662.78C533.109 662.413 533.617 662.331 534.539 662.734C540.654 665.408 540.445 671.377 542.73 676.522C542.77 676.611 542.812 676.699 542.854 676.787C543.442 678.43 542.325 681.588 541.595 683.103C539.759 686.914 536.539 690.483 532.49 691.92C529.019 693.152 525.22 692.532 521.994 690.892C520.148 689.955 518.61 688.843 517.349 687.187L517.209 686.489Z" fill="#FEFEFE"/>
<path d="M497.902 699.939C498.248 699.918 498.594 699.893 498.941 699.892C503.018 699.863 506.728 701.032 509.593 704.06C512.594 707.265 514.183 711.541 514.003 715.928C513.868 719.337 512.749 722.875 510.117 725.178C506.356 728.468 501.311 728.132 496.682 727.817C491.919 727.462 486.51 726.33 482.734 723.208C480.783 721.594 479.453 719.451 479.287 716.888C479.057 713.321 480.811 709.807 483.068 707.148C486.901 702.63 492.095 700.42 497.902 699.939Z" fill="black"/>
<path d="M500.771 713.361C503.105 713.238 506.321 712.716 508.553 713.461C508.918 714.097 508.983 714.582 509.009 715.301C509.078 717.2 508.916 719.212 507.506 720.636C505.008 723.157 500.573 722.627 497.361 722.533C495.826 722.402 494.246 722.264 492.729 721.988C491.159 721.702 489.588 721.293 488.616 719.946C488.585 719.129 488.604 718.756 489.143 718.106C491.579 715.169 497.157 713.755 500.771 713.361Z" fill="#F76B4C"/>
<path d="M460.071 675.815C459.042 673.725 457.691 672.434 456.964 670.04C455.461 665.091 457.832 658.332 460.251 653.934C461.782 651.149 463.946 648.847 467.098 648.002C470.573 647.07 474.324 648.083 477.299 649.967C480.367 651.91 483.373 655.161 484.151 658.77C484.508 660.429 484.392 661.558 483.504 663.001C484.307 666.922 483.139 671.434 480.986 674.744C478.985 677.819 475.953 680.499 472.291 681.284C469.345 681.915 466.114 681.417 463.613 679.696C462.199 678.723 460.861 677.349 460.071 675.815Z" fill="black"/>
<path d="M460.071 675.816C461.894 677.308 463.757 678.341 466.187 678.165C468.965 677.965 471.226 676.111 472.928 674.04C475.592 670.796 478.859 663.375 476.658 659.32C475.771 657.686 473.677 657.016 473.467 655.022C473.899 654.184 474.115 653.868 474.952 653.358C475.609 653.323 476.13 653.321 476.756 653.546C480.252 654.806 482.073 659.856 483.504 663.001C484.307 666.923 483.139 671.434 480.985 674.744C478.985 677.82 475.953 680.499 472.291 681.284C469.345 681.916 466.114 681.417 463.613 679.696C462.199 678.723 460.86 677.349 460.071 675.816Z" fill="#FEFEFE"/>
<path d="M526.492 634.807C526.878 634.815 527.262 634.826 527.646 634.863C529.995 635.089 532.18 638.408 533.69 640.107C534.626 641.16 535.561 642.281 536.701 643.121C540.318 645.787 548.171 647.128 550.435 649.96C551.02 650.693 551.408 651.623 551.156 652.571C550.73 654.168 549.291 655.171 547.906 655.869C546.009 656.033 544.197 656.008 542.343 655.515C536.419 653.94 527.067 646.606 524.248 641.281C523.616 640.087 523.192 638.618 523.696 637.302C524.201 635.982 525.282 635.387 526.492 634.807Z" fill="black"/>
<path d="M577.299 706.767C576.942 707.246 576.335 707.851 575.755 708.05C575.063 708.287 574.478 708.287 573.843 707.887C573.115 707.429 572.747 706.593 572.599 705.779C571.894 701.907 574.627 696.115 576.86 692.997C578.57 690.609 581.176 687.907 584.206 687.496C585.49 687.322 586.261 687.68 587.289 688.413C588.178 688.259 588.836 688.136 589.651 688.682C590.346 689.148 590.68 689.934 590.759 690.742C591.124 694.428 588.431 698.847 586.026 701.499C584.433 703.254 580.78 706.759 578.307 706.853C577.919 706.867 577.669 706.819 577.299 706.767Z" fill="black"/>
<path d="M587.289 688.413C588.178 688.259 588.836 688.136 589.651 688.682C590.346 689.148 590.68 689.934 590.76 690.742C591.124 694.428 588.432 698.847 586.026 701.499C584.433 703.254 580.78 706.759 578.307 706.853C577.919 706.867 577.67 706.819 577.299 706.767C578.468 702.442 579.432 697.559 582.989 694.477C584.065 693.546 585.873 692.879 586.732 691.806C587.547 690.787 587.365 689.627 587.289 688.413Z" fill="#F76B4C"/>
<path d="M560.226 655.689C562.989 657.848 566.124 662.496 566.705 665.924C567.049 667.953 566.658 670.061 565.369 671.696C563.796 673.688 561.481 674.368 559.066 674.642C557.016 674.479 554.679 673.794 553.297 672.173C552.277 670.976 551.986 669.448 552.096 667.913C552.466 662.726 556.639 658.952 560.226 655.689Z" fill="#4ECCFD"/>
<path d="M491.681 690.504C491.316 691.533 490.706 692.729 489.628 693.156C488.632 693.551 487.512 693.366 486.621 692.814C484.841 691.711 483.34 688.737 482.913 686.777C482.243 683.699 482.833 680.708 484.582 678.089C485.855 676.185 487.974 673.984 490.337 673.571C491.418 673.381 492.753 673.66 493.593 674.401C494.725 675.401 494.651 676.555 494.742 677.965C495.781 679.499 495.959 681.803 495.611 683.598C495.1 686.231 493.539 688.621 491.681 690.504Z" fill="black"/>
<path d="M491.681 690.504C490.587 688.666 488.583 685.9 488.821 683.695C489.085 681.231 492.929 679.774 494.548 678.164C494.614 678.099 494.678 678.031 494.742 677.965C495.781 679.499 495.959 681.802 495.611 683.598C495.1 686.23 493.539 688.621 491.681 690.504Z" fill="#F76B4C"/>
<path d="M558.69 685.61C558.858 685.672 559.039 685.707 559.195 685.794C561.621 687.155 564.196 691.073 564.729 693.677C565.025 695.121 564.829 696.648 563.986 697.881C562.858 699.531 561.079 699.788 559.25 700.108C557.452 700.108 555.412 699.83 554.045 698.541C553.19 697.735 552.839 696.648 552.842 695.5C552.852 691.617 556.182 688.233 558.69 685.61Z" fill="#4ECCFD"/>
<path d="M456.181 692.171C457.859 691.69 459.609 692.664 460.084 694.343C460.559 696.023 459.578 697.769 457.897 698.238C456.224 698.705 454.489 697.73 454.016 696.059C453.544 694.388 454.512 692.65 456.181 692.171Z" fill="#F76B4C"/>
<path d="M536.207 697.42C537.286 697.086 538.462 697.361 539.281 698.141C540.099 698.92 540.431 700.081 540.15 701.175C539.869 702.27 539.018 703.127 537.926 703.415C536.284 703.848 534.599 702.89 534.131 701.258C533.664 699.627 534.586 697.921 536.207 697.42Z" fill="#F76B4C"/>
<path d="M518.136 694.362C519.756 693.813 521.516 694.673 522.078 696.289C522.64 697.905 521.794 699.672 520.183 700.247C518.553 700.828 516.762 699.97 516.194 698.336C515.625 696.701 516.498 694.917 518.136 694.362Z" fill="#F76B4C"/>
<path d="M467.809 685.872C469.434 685.464 471.088 686.423 471.541 688.036C471.994 689.648 471.082 691.328 469.482 691.826C468.407 692.161 467.236 691.886 466.422 691.107C465.609 690.328 465.284 689.169 465.572 688.081C465.86 686.992 466.717 686.146 467.809 685.872Z" fill="#F76B4C"/>
<path d="M450.002 680.933C451.533 680.251 453.326 680.927 454.025 682.449C454.725 683.972 454.069 685.773 452.555 686.49C451.56 686.961 450.389 686.86 449.488 686.228C448.588 685.595 448.097 684.526 448.203 683.43C448.31 682.335 448.997 681.38 450.002 680.933Z" fill="#F76B4C"/>
<path d="M525.566 704.259C527.153 703.828 528.788 704.767 529.216 706.354C529.645 707.941 528.703 709.575 527.115 710.001C525.531 710.426 523.901 709.488 523.473 707.903C523.046 706.319 523.983 704.688 525.566 704.259Z" fill="#F76B4C"/>
<path d="M443.702 730.08C457.671 743.491 474.303 747.539 492.799 750.239C493.459 751.68 494.101 753.164 494.889 754.539C499.101 761.877 506.848 765.746 514.768 767.823C525.861 770.73 536.421 768.898 546.249 763.143C554.716 758.185 558.71 751.079 561.164 741.787C572.593 744.584 583.967 750.177 594.036 756.19C590.559 759.829 585.635 762.232 581.726 765.429C578.204 768.311 575.41 771.998 571.838 774.828C569.16 773.603 567.797 771.603 565.435 770.163C564.376 769.518 562.761 769.313 561.566 769.649C560.798 769.865 560.144 770.361 559.809 771.098C559.208 772.416 559.496 773.988 560.033 775.273C561.84 779.593 566.476 781.618 570.541 783.211C567.586 786.061 564.699 788.915 562.16 792.149C559.154 793.04 556.256 794.112 553.471 795.566C546.123 799.403 539.401 805.706 536.911 813.816C535.102 819.708 536.318 825.031 539.157 830.338C539.844 831.386 540.615 832.459 541.484 833.366C544.609 836.626 548.019 836.984 552.269 837.054C554.018 838.342 555.817 839.647 557.904 840.319C561.442 841.458 564.219 840.179 567.356 838.654C571.406 840.725 573.783 840.741 578.038 839.495C576.624 847.118 576.934 855.374 577.128 863.104C574.313 864.289 571.414 865.266 568.455 866.027C550.566 870.698 516.661 872.383 499.36 867.052C496.412 866.143 493.939 864.793 491.286 863.228C497.51 841.718 507.646 818.258 503.526 795.446C501.623 784.908 495.735 773.284 486.658 767.153C484.055 765.395 481.037 764.088 478.23 762.678C473.698 760.442 469.216 758.104 464.789 755.664C455.299 750.382 446.349 744.434 437.408 738.286C439.554 735.588 441.652 732.853 443.702 730.08Z" fill="#F76B4C"/>
<path d="M462.708 574.782C467.393 570.182 472.806 566.529 478.577 563.428C500.652 551.563 527.923 549.619 551.731 556.913C573.025 563.435 594.861 578.263 605.469 598.246C605.222 609.773 605.968 616.486 596.891 625.259C590.059 631.863 581.3 634.487 571.911 634.246C568.969 634.171 561.404 632.522 559.814 632.711C557.651 631.394 555.493 628.964 553.856 627.013C550.501 623.073 547.946 618.516 546.332 613.599C545.013 609.506 545.201 600.209 542.36 597.738C536.084 592.275 527.861 604.279 524.118 608.055C521.894 610.292 519.438 612.286 516.792 614.003C509.729 618.601 501.072 621.364 492.708 622.166C492.944 621.526 493.159 620.879 493.349 620.224C494.695 615.592 494.077 611.066 491.779 606.864C494.794 601.959 496.079 596.087 494.711 590.418C493.791 586.479 491.302 583.088 487.821 581.028C484.139 578.867 479.903 578.601 475.846 579.729C475.12 579.072 474.393 578.407 473.626 577.798C470.448 575.273 466.696 574.379 462.708 574.782Z" fill="#5F4332"/>
<path d="M615.674 795.693C619.36 796.673 623.071 798.64 625.837 801.284C629.721 804.997 631.777 810.263 632.885 815.411C633.942 820.32 634.01 825.426 634.269 830.425L635.307 851.021C636.328 870.582 637.857 890.259 638.313 909.832C638.469 916.525 636.76 923.126 631.977 928.028C626.319 933.825 618.244 933.178 610.785 933.206C606.679 932.781 603.174 931.506 600.032 928.765C596.254 925.47 593.939 920.355 592.845 915.55C590.982 907.359 591.204 895.07 590.737 886.342L587.424 814.038C597.694 808.673 606.835 803.215 615.674 795.693Z" fill="#FEFEFE"/>
<path d="M607.75 809.556L608.176 809.527C609.789 809.43 611.407 809.426 612.636 810.642C613.625 811.621 613.887 812.815 614.083 814.143C614.63 817.86 614.684 821.722 614.915 825.476L616.145 845.01C617.17 861.467 618.595 878.029 619.049 894.504C623.184 897.229 626.774 900.579 628.279 905.461C629.474 909.339 629.15 913.811 627.11 917.355C625.005 921.011 621.65 922.837 617.698 923.856C616.499 924.031 615.231 924.092 614.024 923.987C610.42 923.672 606.999 922.148 604.737 919.262C602.17 915.989 601.334 911.385 601.924 907.327C602.724 901.827 606.014 898.526 610.301 895.436C609.984 887.579 609.269 879.72 608.733 871.875L606.329 836.043C605.955 830.768 604.311 817 605.057 812.726C605.309 811.28 606.63 810.329 607.75 809.556Z" fill="black"/>
<path d="M613.726 900.784C614.531 900.713 615.327 900.635 616.103 900.91C618.785 901.857 620.939 903.811 622.031 906.44C622.879 908.484 622.985 910.793 622.079 912.837C620.934 915.419 619.079 916.452 616.58 917.433C615.564 917.585 614.727 917.622 613.71 917.438C611.779 917.089 610.111 916.262 609.048 914.557C607.797 912.55 607.531 909.902 608.164 907.644C609.024 904.579 611.035 902.367 613.726 900.784Z" fill="#F76B4C"/>
<path d="M626.981 831.511C628.062 831.372 629.142 831.423 629.997 832.192C630.597 832.731 630.973 833.364 631 834.189C631.022 834.9 630.691 835.551 630.24 836.079C628.535 838.074 625.997 837.957 623.604 838.12C622.683 838.269 621.803 838.279 620.96 837.825C620.224 837.43 619.642 836.801 619.46 835.965C619.262 835.057 619.612 834.227 620.2 833.553C621.958 831.537 624.538 831.659 626.981 831.511Z" fill="black"/>
<path d="M627.644 850.254C629.024 850.137 630.354 849.902 631.519 850.836C632.138 851.322 632.498 852.069 632.493 852.856C632.487 853.689 632.071 854.563 631.522 855.176C630.368 856.464 628.744 856.434 627.148 856.594C625.724 856.749 624.049 857.092 622.73 856.355C621.871 855.875 621.471 855.236 621.219 854.293C621.312 853.288 621.527 852.673 622.222 851.916C623.695 850.31 625.639 850.388 627.644 850.254Z" fill="black"/>
<path d="M599.185 832.762C599.936 832.761 600.437 832.82 601.07 833.267C601.951 833.89 602.234 834.572 602.408 835.6C602.274 836.24 602.176 836.628 601.75 837.148C600.059 839.216 596.301 839.077 593.925 839.228C593.216 839.193 592.66 839.065 592.095 838.595C591.503 838.1 591.116 837.368 591.074 836.596C591.03 835.788 591.361 835.022 591.896 834.428C593.416 832.738 597.043 832.938 599.185 832.762Z" fill="black"/>
<path d="M599.529 852.44C600.375 852.297 601.107 852.208 601.942 852.54C602.682 852.834 603.209 853.409 603.41 854.183C603.644 855.086 603.271 856.002 602.719 856.707C601.452 858.324 599.616 858.287 597.742 858.506C597.371 858.535 597.001 858.556 596.63 858.581C595.663 858.644 594.909 858.661 593.999 858.264C593.079 857.863 592.63 857.391 592.281 856.433C592.372 855.682 592.507 855.181 593.021 854.597C594.796 852.587 597.06 852.631 599.529 852.44Z" fill="black"/>
<path d="M601.028 871.506C601.89 871.415 602.751 871.367 603.524 871.851C604.176 872.26 604.657 872.781 604.765 873.57C604.873 874.364 604.578 875.121 604.063 875.714C602.446 877.574 600.219 877.457 597.955 877.657C597.135 877.674 596.292 877.725 595.52 877.404C594.492 876.977 593.964 876.437 593.527 875.428C593.614 874.676 593.747 874.196 594.275 873.623C596.108 871.638 598.533 871.696 601.028 871.506Z" fill="black"/>
<path d="M627.884 869.303C628.856 869.208 630.533 868.862 631.453 869.19C632.383 869.521 633.174 870.144 633.443 871.134C633.668 871.958 633.282 872.857 632.76 873.485C631.568 874.913 629.835 874.83 628.139 874.957C626.781 875.212 624.826 875.471 623.662 874.595C623.077 874.155 622.639 873.41 622.647 872.663C622.655 871.907 623.13 871.018 623.659 870.487C624.792 869.351 626.395 869.409 627.884 869.303Z" fill="black"/>
<path d="M463.268 584.461C464.712 584.339 466.329 584.381 467.509 585.344C468.288 585.98 468.602 586.872 468.704 587.836C469.309 593.553 460.154 599.9 456.956 603.596C456.312 604.339 455.859 605.059 455.924 606.069L456.487 606.523C462.212 607.116 469.005 600.824 472.421 596.817C474.399 594.497 476.557 590.489 479.446 589.312C480.451 588.902 481.536 588.877 482.531 589.332C483.572 589.808 484.572 590.689 484.923 591.805C485.501 593.644 484.441 595.82 483.624 597.446C476.696 611.246 460.592 611.366 458.911 615.341C458.739 615.747 458.963 615.892 459.154 616.24C464.571 619.071 475.601 611.971 481.267 613.067C482.169 613.242 482.989 613.719 483.412 614.567C483.879 615.502 483.859 616.923 483.449 617.885C481.142 623.297 455.597 632.584 449.272 634.199C444.618 635.388 439.167 635.181 434.796 637.112C434.678 637.165 434.561 637.22 434.443 637.274C432.749 639.561 431.603 642.012 430.474 644.614C425.544 655.975 421.992 667.672 426.77 679.718C428.19 682.442 429.721 684.731 431.833 686.967C429.28 698.891 432.261 712.2 437.926 722.787C436.454 724.264 435.081 725.827 433.697 727.387C427.351 722.648 421.113 717.634 415.971 711.572C406.002 699.818 400.801 682.183 402.159 666.902C403.985 646.355 415.782 625.321 432.697 613.524C439.159 609.017 446.89 605.701 452.737 600.424C458.006 595.668 459.703 587.445 463.268 584.461Z" fill="url(#paint0_linear_1_1688)"/>
<path d="M605.468 598.247C617.052 615.815 619.565 638.063 617.065 658.538C615.66 670.034 613.313 681.3 613.085 692.925C612.826 706.103 615.216 718.622 619.55 731.03C617.589 730.392 615.635 729.761 613.803 728.803C610.836 727.252 604.794 721.964 601.402 723.548C599.887 724.255 599.007 725.961 598.543 727.485C596.67 733.63 598.358 742.229 598.113 748.737C590.457 744.445 582.938 740.214 574.57 737.408C569.925 735.85 565.247 734.936 560.527 733.708C562.838 731.843 565.138 729.9 567.105 727.667C578.412 728.853 585.194 727.903 594.205 720.54C602.488 713.773 607.49 703.722 608.497 693.095C609.154 686.153 607.572 679.42 603.02 674.036C599.33 669.67 594.284 666.937 588.566 666.498C586.661 666.362 584.747 666.457 582.865 666.781C583.763 661.777 586.762 652.08 583.576 647.682C580.047 642.81 565.877 639.002 559.813 632.711C561.403 632.522 568.969 634.171 571.911 634.246C581.3 634.487 590.058 631.863 596.891 625.26C605.968 616.487 605.222 609.773 605.468 598.247Z" fill="#473125"/>
<path d="M601.18 761.676C604.785 764.577 608.584 768.049 611.265 771.82C613.778 775.355 615.355 779.581 614.536 783.968C612.158 796.698 590.96 804.39 581.116 810.98C580.053 815.491 578.778 817.293 575.439 820.506C576.005 821.858 576.688 823.268 577.103 824.673C577.621 826.428 578.032 829.17 576.93 830.794C576.455 831.495 575.822 831.771 575.021 831.945C573.717 832.23 572.118 831.861 571.024 831.12C566.844 828.289 567.95 822.673 566.812 818.521C566.596 817.735 566.374 817.43 565.69 817.021C565.423 817.061 565.215 817.076 564.958 817.191C561.013 818.957 564.036 828.271 562.735 831.597C562.437 832.357 562.155 832.58 561.44 832.917C560.815 832.861 560.348 832.642 559.83 832.29C556.888 830.289 555.931 827.912 555.3 824.576C555.141 821.753 555.739 819.145 555.856 816.369C555.876 815.915 555.875 815.318 555.534 814.985C554.966 814.43 554.127 814.181 553.349 814.293C549.431 814.857 551.378 827.244 550.148 829.048C550.045 829.053 549.943 829.071 549.84 829.063C548.972 828.994 547.949 828.357 547.346 827.745C545.343 825.715 544.263 822.255 544.328 819.45C544.518 811.126 552.206 803.94 559.406 800.853C561.97 799.753 565.294 799.339 567.535 797.684C569.809 796.005 571.681 793.388 573.688 791.374C576.602 788.45 579.801 785.729 583.062 783.196C586.71 780.363 591.989 778.883 595.054 776.011C595.313 775.298 595.405 774.461 595.1 773.735C594.805 773.035 594.271 772.543 593.56 772.281C590.908 771.301 587.051 773.472 584.683 774.568C590.256 768.978 595.614 766.571 601.18 761.676Z" fill="#FBAB6C"/>
<path d="M654.645 899.601C657.6 899.265 660.968 899.834 663.56 901.321C671.182 905.696 668.412 912.297 670.107 918.241C671.288 922.384 675.961 921.344 679.292 921.75C681.67 922.039 684.172 922.757 686.216 924.018C689.508 926.048 691.128 929.299 692.059 932.917L680.407 932.87L643.16 932.904C650.134 921.811 649.771 913.399 648.908 900.879C650.817 900.335 652.688 899.928 654.645 899.601Z" fill="#82B442"/>
<path d="M497.57 918.939C503.514 918.471 508.978 920.191 514.123 923.109C518.45 925.563 521.064 928.358 522.38 933.232L507.906 933.217C499.711 933.222 491.452 933.424 483.265 933.112C482.676 932.724 482.651 932.609 482.521 931.902C482.189 930.098 483.527 926.979 484.534 925.545C487.176 921.786 493.287 919.847 497.57 918.939Z" fill="#473125"/>
<path d="M546.843 919.579C547.466 919.546 548.09 919.521 548.714 919.503C554.509 919.343 562.935 921.129 567.176 925.351C569.421 927.585 569.314 930.303 569.329 933.244L556.521 933.219L533.949 933.254C534.48 930.319 534.957 927.537 536.745 925.044C539.17 921.662 542.909 920.284 546.843 919.579Z" fill="#473125"/>
<path d="M553.011 738.815C553.125 738.9 553.244 738.977 553.352 739.07C553.923 739.56 554.171 740.042 554.244 740.794C554.627 744.765 551.444 749.846 548.953 752.796C543.738 758.969 535.073 762.31 527.176 762.965C518.997 763.642 510.243 760.689 504.011 755.396C502.655 754.003 501.621 752.51 500.547 750.899C503.36 751.118 506.208 751.14 509.029 751.24C511.55 753.246 514.405 754.792 517.463 755.807C523.877 757.999 530.454 757.834 536.569 754.803C542.232 751.996 546.001 747.682 547.987 741.705C549.698 740.839 551.352 739.78 553.011 738.815Z" fill="#FEFEFE"/>
<path d="M548.744 879.701C554.589 879.431 560.402 878.672 566.122 877.433C566.289 880.94 566.721 884.478 567.04 887.977C567.184 889.719 567.364 891.459 567.583 893.193C561.806 893.242 556.078 893.601 550.314 893.923L549.861 889.89C549.3 886.559 549.101 883.068 548.744 879.701Z" fill="#F76B4C"/>
<path d="M549.861 889.89C549.921 889.209 549.989 888.528 550.067 887.848C554.626 886.36 561.551 889.381 567.04 887.977C567.184 889.719 567.364 891.459 567.583 893.193C561.806 893.242 556.078 893.601 550.314 893.923L549.861 889.89Z" fill="#FBAB6C"/>
<path d="M503.939 879.357C509.885 880.246 515.668 880.79 521.686 880.767C521.884 883.501 522.123 886.231 522.401 888.958C522.536 890.587 522.708 892.223 522.803 893.854C516.978 893.911 511.084 894.025 505.279 894.508C505.093 892.971 504.929 891.43 504.786 889.887C504.272 886.467 504.213 882.816 503.939 879.357Z" fill="#F76B4C"/>
<path d="M504.785 889.887L505.107 888.745C505.728 888.395 512.207 889.557 513.495 889.629C516.315 889.787 519.69 889.795 522.401 888.958C522.536 890.587 522.707 892.223 522.803 893.854C516.978 893.91 511.084 894.025 505.279 894.508C505.093 892.97 504.929 891.43 504.785 889.887Z" fill="#FBAB6C"/>
<path d="M532.426 880.833L538.893 880.614C539.853 887.177 540.687 893.758 541.396 900.353C541.732 903.409 542.341 906.687 542.094 909.754C541.484 910.52 540.624 910.689 539.729 911.056C538.202 911.584 536.766 912.361 535.317 913.073C534.105 902.374 533.491 891.558 532.426 880.833Z" fill="#FECA3D"/>
<path d="M523.322 901.226L523.567 901.259C524.492 902.486 524.567 915.35 524.627 917.638C521.076 914.992 517.502 912.753 513.454 910.947C511.124 910.074 508.699 909.503 506.385 908.575C506.173 906.227 505.987 903.877 505.826 901.526C511.655 901.291 517.492 901.509 523.322 901.226Z" fill="#FEFEFE"/>
<path d="M564.562 900.932C565.637 900.845 566.851 900.604 567.851 901.065C568.766 905.071 568.455 909.572 568.965 913.694C565.754 911.991 562.583 910.962 559.073 910.036C556.762 909.624 554.417 909.373 552.088 909.079C551.669 906.535 551.425 903.952 551.125 901.391C555.608 901.386 560.089 901.232 564.562 900.932Z" fill="#FEFEFE"/>
<path d="M578.271 875.006C579.312 875.681 579.268 883.381 579.352 884.856C580.041 896.94 579.864 912.238 583.049 923.794C583.958 927.09 586.688 929.688 587.528 932.782L586.891 932.916L580.549 932.885C580.484 925.236 576.233 877.485 576.862 875.636L578.271 875.006Z" fill="url(#paint1_linear_1_1688)"/>
<path d="M438.984 651.881L442.232 656.161C440.168 660.996 438.036 665.765 436.159 670.681L435.653 671.879L435.341 671.676C433.898 665.033 436.576 657.968 438.984 651.881Z" fill="#FEE06F"/>
<path d="M484.837 874.256C487.033 875.115 493.17 876.427 494.414 878.213L494.118 878.669L492.994 878.908C490.298 879.376 487.812 880.176 485.255 881.132C485.268 878.84 485.021 876.54 484.837 874.256Z" fill="#FECA3D"/>
<path d="M536.694 746.076C536.959 746.267 536.848 746.13 536.934 746.547C532.344 750.599 527.864 750.923 522.052 750.608L521.685 750.227C523.178 749.296 526.035 749.297 527.828 748.84C530.858 748.067 533.789 747.242 536.694 746.076Z" fill="#FBAB6C"/>
<path d="M170.885 418.967C174.666 418.743 177.735 418.965 181.218 420.637C187.181 423.499 206.921 433.522 210.986 437.251C212.731 438.85 214.022 441.227 214.75 443.461C216.056 447.464 215.702 452.052 213.649 455.752C211.429 459.756 207.691 461.706 203.484 462.987C201.127 463.287 199.066 463.352 196.729 462.737C191.417 461.341 173.517 451.032 167.772 447.747C163.52 445.317 160.096 442.554 158.833 437.561C157.776 433.421 158.475 429.029 160.765 425.423C163.142 421.731 166.685 419.804 170.885 418.967Z" fill="black"/>
<path d="M172.163 428.59C172.822 428.574 173.486 428.568 174.139 428.668C176.614 429.047 198.493 441.089 201.708 443.077C202.724 443.705 203.927 444.411 204.59 445.426C205.232 446.404 205.448 447.602 205.189 448.743C204.784 450.513 203.523 451.619 202.076 452.578C201.364 452.632 200.604 452.704 199.895 452.607C198.162 452.367 175.686 440.466 172.636 438.595C171.579 437.946 170.363 437.203 169.657 436.163C168.872 435.004 168.611 433.61 168.979 432.256C169.487 430.39 170.532 429.506 172.163 428.59Z" fill="#FECA3D"/>
<path d="M155.227 485.529C161.212 485.126 167.395 485.41 173.4 485.398C178.579 485.388 184.44 484.843 189.519 485.718C191.893 486.127 194.046 486.949 196.024 488.342C199.29 490.633 201.454 494.182 201.997 498.135C202.599 502.208 201.555 506.354 199.096 509.657C196.307 513.371 192.653 515.015 188.192 515.703C181.581 515.728 174.97 515.813 168.361 515.958C164.06 516.044 159.496 516.435 155.234 515.878C153.024 515.588 150.943 514.945 149.005 513.842C145.463 511.843 142.905 508.47 141.936 504.52C140.945 500.418 141.72 496.088 144.072 492.584C146.775 488.493 150.576 486.542 155.227 485.529Z" fill="black"/>
<path d="M182.049 495.917C184.889 495.802 187.929 495.397 190.293 497.363C191.168 498.091 191.903 499.235 191.935 500.405C191.971 501.691 191.506 502.816 190.586 503.709C189.534 504.73 188.195 505.119 186.777 505.322C183.691 505.761 180.264 505.485 177.14 505.47C171.85 505.437 166.559 505.447 161.269 505.498C158.964 505.567 155.413 506.027 153.575 504.406C152.551 503.503 151.92 502.155 151.92 500.785C151.921 499.522 152.406 498.266 153.326 497.387C154.071 496.675 154.929 496.313 155.938 496.153C158.994 495.67 162.436 496.005 165.531 496.006L182.049 495.917Z" fill="#FECA3D"/>
<path d="M198.73 538.958C201.767 538.756 204.792 539.501 207.388 541.09C210.842 543.233 213.301 546.664 214.219 550.624C215.161 554.614 214.438 559.276 212.084 562.676C210.992 564.253 209.318 565.638 207.784 566.783C203.568 569.933 198.731 572.539 194.231 575.3C189.533 578.182 184.772 581.518 179.782 583.854C177.982 584.696 176.345 585.098 174.404 585.405C171.379 585.525 168.447 584.793 165.878 583.176C162.282 580.912 159.468 576.918 158.627 572.752C157.843 568.871 158.829 564.975 161.123 561.776C162.188 560.291 163.503 559.02 164.96 557.925C169.376 554.605 174.492 551.96 179.221 549.085C183.835 546.278 188.414 542.95 193.296 540.642C195.083 539.797 196.782 539.289 198.73 538.958Z" fill="black"/>
<path d="M199.482 549.169C200.195 549.225 200.988 549.398 201.645 549.685C202.807 550.194 203.591 551.224 204.016 552.391C204.453 553.595 204.416 554.751 203.855 555.907C203.323 557.002 202.425 557.804 201.474 558.534C197.538 561.555 178.019 573.696 174.051 574.943C173.483 574.889 172.95 574.807 172.411 574.613C171.071 574.129 169.894 572.988 169.302 571.696C168.811 570.621 168.743 569.481 169.201 568.382C169.576 567.482 170.202 566.791 170.963 566.193C174.419 563.481 178.821 561.295 182.599 559.008C187.963 555.761 193.718 551.574 199.482 549.169Z" fill="#FECA3D"/>
<path d="M375.341 375.498C379.033 375.14 382.598 376.028 385.665 378.128C389.118 380.49 391.58 383.863 392.306 388.044C393.138 392.843 391.508 396.559 388.867 400.403C385.541 405.244 371.921 423.897 367.779 426.893C365.768 428.346 363.506 428.973 361.112 429.423C357.824 429.745 354.632 429.138 351.762 427.459C348.008 425.306 345.318 421.691 344.333 417.477C343.336 413.064 344.442 409.482 346.823 405.804C350.172 400.633 363.824 381.911 368.005 378.554C370.163 376.821 372.688 376.059 375.341 375.498Z" fill="black"/>
<path d="M376.19 385.772C376.997 385.729 377.835 385.665 378.619 385.9C379.916 386.288 381.232 387.28 381.839 388.505C382.378 389.594 382.385 390.98 381.997 392.119C381.05 394.895 365.564 414.542 362.778 417.389C362.097 418.085 361.325 418.574 360.475 419.037C359.809 419.03 359.131 419.029 358.472 418.912C357.145 418.678 355.72 417.804 355.002 416.645C354.435 415.734 354.234 414.33 354.543 413.306C355.66 409.599 370.385 391.093 373.74 387.629C374.477 386.867 375.282 386.309 376.19 385.772Z" fill="#FECA3D"/>
<path d="M224.256 367.714C226.979 367.469 229.924 368.105 232.329 369.381C234.116 370.329 235.581 371.671 236.836 373.245C240.461 377.788 243.195 383.421 246.222 388.395C248.724 392.508 251.6 396.473 253.89 400.701C254.571 401.959 255.183 403.277 255.563 404.66C256.67 408.683 255.96 413.356 253.781 416.899C251.331 420.882 247.687 422.876 243.26 423.886C239.325 424.158 235.906 423.803 232.55 421.565C230.893 420.46 229.592 419.071 228.417 417.481C225.365 413.354 223.044 408.419 220.461 403.968C217.883 399.525 214.852 395.093 212.663 390.457C211.927 388.9 211.329 387.278 211.036 385.576C210.344 381.566 211.175 377.507 213.57 374.201C216.275 370.469 219.761 368.516 224.256 367.714Z" fill="black"/>
<path d="M223.95 378.315C224.707 378.224 225.511 378.097 226.273 378.164C227.545 378.275 228.276 378.924 229.044 379.878C231.978 383.522 234.28 388.02 236.715 392.034C239.52 396.66 242.816 401.384 245.046 406.297C245.488 407.271 245.875 408.161 245.736 409.242C245.501 411.062 244.172 412.202 242.812 413.267C241.864 413.524 240.923 413.656 239.937 413.537C238.86 413.407 238.09 412.902 237.417 412.059C234.646 408.584 223.488 388.914 221.777 384.636C221.396 383.682 221.148 382.901 221.313 381.861C221.576 380.2 222.674 379.275 223.95 378.315Z" fill="#FECA3D"/>
<path d="M303.142 353.309C306.642 353.024 310.232 353.631 313.208 355.582C316.683 357.86 318.881 361.692 319.588 365.743C320.416 370.482 316.835 395.396 315.277 400.879C314.723 402.822 313.85 404.732 312.678 406.38C310.092 410.018 306.358 411.829 302.058 412.543C298.852 412.855 295.357 412.162 292.578 410.524C289.162 408.51 286.86 404.834 285.924 401.034C285.482 399.236 285.373 397.425 285.467 395.584C285.735 390.354 286.954 385 287.694 379.807C288.367 375.082 288.623 370.119 289.814 365.503C290.273 363.665 291.023 361.913 292.036 360.312C294.661 356.241 298.549 354.289 303.142 353.309Z" fill="black"/>
<path d="M303.741 363.534C304.391 363.527 305.074 363.509 305.713 363.635C306.939 363.877 308.159 364.645 308.832 365.704C309.645 366.982 309.595 368.53 309.552 369.992C309.41 374.82 308.271 379.729 307.56 384.508C306.867 389.154 306.523 394.315 305.215 398.816C304.703 400.579 303.731 401.324 302.168 402.169C301.34 402.16 300.467 402.178 299.656 401.999C298.333 401.707 297.145 400.953 296.472 399.76C295.84 398.638 295.977 397.199 296.049 395.948C296.351 390.669 297.534 385.272 298.311 380.035C298.923 375.905 299.146 371.122 300.37 367.171C300.95 365.301 302.083 364.442 303.741 363.534Z" fill="#FECA3D"/>
<path d="M415.039 428.933C418.769 428.689 421.993 429.335 425.164 431.402C428.585 433.631 431.041 437.059 431.828 441.087C432.596 445.015 431.618 448.896 429.389 452.178C428.37 453.677 427.066 454.802 425.606 455.849C420.091 459.805 398.722 471.451 392.613 472.606C388.936 472.764 385.709 472.321 382.532 470.326C379.168 468.212 376.591 464.756 375.711 460.863C374.806 456.858 375.709 452.637 377.974 449.235C379.135 447.49 380.808 446.144 382.521 444.962C386.206 442.42 390.51 440.462 394.47 438.381C400.833 435.036 407.923 430.337 415.039 428.933Z" fill="black"/>
<path d="M416.568 438.944C417.251 439.074 417.975 439.193 418.619 439.462C419.892 439.993 421.021 441.27 421.532 442.536C421.958 443.594 421.829 444.776 421.302 445.771C420.755 446.806 419.945 447.536 418.976 448.17C415.412 450.502 394.895 461.13 391.438 462.209C390.659 462.172 389.816 462.128 389.081 461.861C388.024 461.476 387.043 460.751 386.623 459.675C386.113 458.367 386.023 456.808 386.649 455.529C387.306 454.185 388.632 453.204 389.844 452.391C393.916 449.657 398.666 447.676 403.061 445.484C407.496 443.273 411.949 440.732 416.568 438.944Z" fill="#FECA3D"/>
<path d="M235.315 578.318C238.571 578.152 241.539 578.595 244.429 580.207C247.893 582.138 250.601 585.453 251.66 589.288C252.808 593.445 251.909 597.344 249.761 600.982C247 605.657 232.316 625.826 228.358 629.09C226.245 630.832 224.034 631.674 221.433 632.361C217.854 632.845 214.22 632.042 211.18 630.093C207.771 627.958 205.368 624.538 204.516 620.608C203.464 615.876 204.862 611.945 207.426 608.035C210.765 602.942 224.293 584.27 228.083 581.288C230.199 579.622 232.719 578.845 235.315 578.318Z" fill="black"/>
<path d="M236.268 588.546C236.87 588.605 237.484 588.66 238.076 588.787C239.36 589.062 240.613 589.96 241.262 591.104C241.898 592.226 241.948 593.657 241.504 594.853C240.648 597.157 225.259 618.115 222.926 620.514C222.182 621.278 221.334 621.706 220.364 622.121C219.568 622.081 218.713 622.065 217.953 621.807C216.638 621.362 215.384 620.393 214.851 619.089C214.416 618.023 214.451 616.543 214.928 615.497C216.414 612.243 230.911 592.836 233.674 590.07C234.428 589.317 235.288 588.927 236.268 588.546Z" fill="#FECA3D"/>
<defs>
<linearGradient id="paint0_linear_1_1688" x1="479.633" y1="681.975" x2="422.507" y2="622.458" gradientUnits="userSpaceOnUse">
<stop stop-color="#F69865"/>
<stop offset="1" stop-color="#FDB26F"/>
</linearGradient>
<linearGradient id="paint1_linear_1_1688" x1="575.608" y1="903.672" x2="587.707" y2="904.336" gradientUnits="userSpaceOnUse">
<stop stop-color="#92CF44"/>
<stop offset="1" stop-color="#7DAD48"/>
</linearGradient>
</defs>
</svg>
