<svg width="849" height="1183" viewBox="0 0 849 1183" fill="none" xmlns="http://www.w3.org/2000/svg">
<rect x="5" y="5" width="839" height="1173" rx="45" fill="white"/>
<rect x="5" y="5" width="839" height="1173" rx="45" stroke="black" stroke-width="10"/>
<circle cx="786.5" cy="1124.5" r="11.5" fill="black"/>
<circle cx="786.5" cy="59.5" r="11.5" fill="black"/>
<path d="M77 1124.5C77 1130.85 71.8513 1136 65.5 1136C59.1487 1136 54 1130.85 54 1124.5C54 1118.15 59.1487 1113 65.5 1113C71.8513 1113 77 1118.15 77 1124.5Z" fill="black"/>
<path d="M77 59.5C77 65.8513 71.8513 71 65.5 71C59.1487 71 54 65.8513 54 59.5C54 53.1487 59.1487 48 65.5 48C71.8513 48 77 53.1487 77 59.5Z" fill="black"/>
<mask id="path-6-inside-1_1_568" fill="white">
<path d="M708 48C713.523 48 717.934 52.4996 718.616 57.9801C723.122 94.1833 751.817 122.878 788.02 127.384C793.5 128.066 798 132.477 798 138V1046C798 1051.52 793.5 1055.93 788.02 1056.62C751.817 1061.12 723.122 1089.82 718.616 1126.02C717.934 1131.5 713.523 1136 708 1136H141C135.477 1136 131.066 1131.5 130.384 1126.02C125.878 1089.82 97.1833 1061.12 60.9801 1056.62C55.4996 1055.93 51 1051.52 51 1046V138C51 132.477 55.4996 128.066 60.9801 127.384C97.1833 122.878 125.878 94.1833 130.384 57.9801C131.066 52.4996 135.477 48 141 48H708Z"/>
</mask>
<path d="M708 48C713.523 48 717.934 52.4996 718.616 57.9801C723.122 94.1833 751.817 122.878 788.02 127.384C793.5 128.066 798 132.477 798 138V1046C798 1051.52 793.5 1055.93 788.02 1056.62C751.817 1061.12 723.122 1089.82 718.616 1126.02C717.934 1131.5 713.523 1136 708 1136H141C135.477 1136 131.066 1131.5 130.384 1126.02C125.878 1089.82 97.1833 1061.12 60.9801 1056.62C55.4996 1055.93 51 1051.52 51 1046V138C51 132.477 55.4996 128.066 60.9801 127.384C97.1833 122.878 125.878 94.1833 130.384 57.9801C131.066 52.4996 135.477 48 141 48H708Z" fill="#C357B5"/>
<path d="M130.384 1126.02L138.322 1125.03L130.384 1126.02ZM718.616 1126.02L710.678 1125.03L718.616 1126.02ZM788.02 1056.62L789.008 1064.56L788.02 1056.62ZM718.616 57.9801L726.555 56.9922L718.616 57.9801ZM718.616 57.9801L710.678 58.9681C715.635 98.8063 747.194 130.365 787.032 135.322L788.02 127.384L789.008 119.445C756.44 115.392 730.608 89.5603 726.555 56.9922L718.616 57.9801ZM798 138H790V1046H798H806V138H798ZM788.02 1056.62L787.032 1048.68C747.194 1053.64 715.635 1085.19 710.678 1125.03L718.616 1126.02L726.555 1127.01C730.608 1094.44 756.44 1068.61 789.008 1064.56L788.02 1056.62ZM708 1136V1128H141V1136V1144H708V1136ZM130.384 1126.02L138.322 1125.03C133.365 1085.19 101.806 1053.64 61.9681 1048.68L60.9801 1056.62L59.9922 1064.56C92.5603 1068.61 118.392 1094.44 122.445 1127.01L130.384 1126.02ZM51 1046H59V138H51H43V1046H51ZM60.9801 127.384L61.9681 135.322C101.806 130.365 133.365 98.8063 138.322 58.9681L130.384 57.9801L122.445 56.9922C118.392 89.5603 92.5603 115.392 59.9922 119.445L60.9801 127.384ZM141 48V56H708V48V40H141V48ZM130.384 57.9801L138.322 58.9681C138.438 58.0389 138.872 57.2306 139.427 56.6958C139.954 56.1887 140.494 56 141 56V48V40C130.84 40 123.547 48.1329 122.445 56.9922L130.384 57.9801ZM51 138H59C59 137.494 59.1887 136.954 59.6958 136.427C60.2306 135.872 61.0389 135.438 61.9681 135.322L60.9801 127.384L59.9922 119.445C51.1329 120.547 43 127.84 43 138H51ZM60.9801 1056.62L61.9681 1048.68C61.0389 1048.56 60.2306 1048.13 59.6958 1047.57C59.1887 1047.05 59 1046.51 59 1046H51H43C43 1056.16 51.1329 1063.45 59.9922 1064.56L60.9801 1056.62ZM141 1136V1128C140.494 1128 139.954 1127.81 139.427 1127.3C138.872 1126.77 138.438 1125.96 138.322 1125.03L130.384 1126.02L122.445 1127.01C123.547 1135.87 130.84 1144 141 1144V1136ZM718.616 1126.02L710.678 1125.03C710.562 1125.96 710.128 1126.77 709.573 1127.3C709.046 1127.81 708.506 1128 708 1128V1136V1144C718.16 1144 725.453 1135.87 726.555 1127.01L718.616 1126.02ZM798 1046H790C790 1046.51 789.811 1047.05 789.304 1047.57C788.769 1048.13 787.961 1048.56 787.032 1048.68L788.02 1056.62L789.008 1064.56C797.867 1063.45 806 1056.16 806 1046H798ZM788.02 127.384L787.032 135.322C787.961 135.438 788.769 135.872 789.304 136.427C789.811 136.954 790 137.494 790 138H798H806C806 127.84 797.867 120.547 789.008 119.445L788.02 127.384ZM718.616 57.9801L726.555 56.9922C725.453 48.1329 718.16 40 708 40V48V56C708.506 56 709.046 56.1887 709.573 56.6958C710.128 57.2306 710.562 58.0389 710.678 58.9681L718.616 57.9801Z" fill="black" mask="url(#path-6-inside-1_1_568)"/>
<path d="M690 102C695.523 102 699.911 106.512 700.837 111.957C705.019 136.563 724.437 155.981 749.043 160.163C754.488 161.089 759 165.477 759 171V1014C759 1019.52 754.488 1023.91 749.043 1024.84C724.711 1028.97 705.454 1048 700.984 1072.22C699.993 1077.59 695.633 1082 690.175 1082H158.825C153.367 1082 149.007 1077.59 148.016 1072.22C143.546 1048 124.288 1028.97 99.9568 1024.84C94.5121 1023.91 90 1019.52 90 1014V171C90 165.477 94.512 161.089 99.9568 160.163C124.563 155.981 143.981 136.563 148.163 111.957C149.089 106.512 153.477 102 159 102H690Z" fill="#D78BCD"/>
<mask id="path-9-outside-2_1_568" maskUnits="userSpaceOnUse" x="400" y="1007" width="50" height="31" fill="black">
<rect fill="white" x="400" y="1007" width="50" height="31"/>
<path d="M400.84 1030.92V1027.48L414.28 1008.2H419.8V1026.96H423.52V1030.92H419.8V1037H415.32V1030.92H400.84ZM415.52 1012.84L406.08 1026.96H415.52V1012.84ZM426.738 1030.92V1027.48L440.178 1008.2H445.698V1026.96H449.418V1030.92H445.698V1037H441.218V1030.92H426.738ZM441.418 1012.84L431.978 1026.96H441.418V1012.84Z"/>
</mask>
<path d="M400.84 1030.92V1027.48L414.28 1008.2H419.8V1026.96H423.52V1030.92H419.8V1037H415.32V1030.92H400.84ZM415.52 1012.84L406.08 1026.96H415.52V1012.84ZM426.738 1030.92V1027.48L440.178 1008.2H445.698V1026.96H449.418V1030.92H445.698V1037H441.218V1030.92H426.738ZM441.418 1012.84L431.978 1026.96H441.418V1012.84Z" fill="black"/>
<path d="M400.84 1030.92H400.54V1031.22H400.84V1030.92ZM400.84 1027.48L400.594 1027.31L400.54 1027.39V1027.48H400.84ZM414.28 1008.2V1007.9H414.123L414.034 1008.03L414.28 1008.2ZM419.8 1008.2H420.1V1007.9H419.8V1008.2ZM419.8 1026.96H419.5V1027.26H419.8V1026.96ZM423.52 1026.96H423.82V1026.66H423.52V1026.96ZM423.52 1030.92V1031.22H423.82V1030.92H423.52ZM419.8 1030.92V1030.62H419.5V1030.92H419.8ZM419.8 1037V1037.3H420.1V1037H419.8ZM415.32 1037H415.02V1037.3H415.32V1037ZM415.32 1030.92H415.62V1030.62H415.32V1030.92ZM415.52 1012.84H415.82V1011.85L415.271 1012.67L415.52 1012.84ZM406.08 1026.96L405.831 1026.79L405.519 1027.26H406.08V1026.96ZM415.52 1026.96V1027.26H415.82V1026.96H415.52ZM400.84 1030.92H401.14V1027.48H400.84H400.54V1030.92H400.84ZM400.84 1027.48L401.086 1027.65L414.526 1008.37L414.28 1008.2L414.034 1008.03L400.594 1027.31L400.84 1027.48ZM414.28 1008.2V1008.5H419.8V1008.2V1007.9H414.28V1008.2ZM419.8 1008.2H419.5V1026.96H419.8H420.1V1008.2H419.8ZM419.8 1026.96V1027.26H423.52V1026.96V1026.66H419.8V1026.96ZM423.52 1026.96H423.22V1030.92H423.52H423.82V1026.96H423.52ZM423.52 1030.92V1030.62H419.8V1030.92V1031.22H423.52V1030.92ZM419.8 1030.92H419.5V1037H419.8H420.1V1030.92H419.8ZM419.8 1037V1036.7H415.32V1037V1037.3H419.8V1037ZM415.32 1037H415.62V1030.92H415.32H415.02V1037H415.32ZM415.32 1030.92V1030.62H400.84V1030.92V1031.22H415.32V1030.92ZM415.52 1012.84L415.271 1012.67L405.831 1026.79L406.08 1026.96L406.329 1027.13L415.769 1013.01L415.52 1012.84ZM406.08 1026.96V1027.26H415.52V1026.96V1026.66H406.08V1026.96ZM415.52 1026.96H415.82V1012.84H415.52H415.22V1026.96H415.52ZM426.738 1030.92H426.438V1031.22H426.738V1030.92ZM426.738 1027.48L426.492 1027.31L426.438 1027.39V1027.48H426.738ZM440.178 1008.2V1007.9H440.022L439.932 1008.03L440.178 1008.2ZM445.698 1008.2H445.998V1007.9H445.698V1008.2ZM445.698 1026.96H445.398V1027.26H445.698V1026.96ZM449.418 1026.96H449.718V1026.66H449.418V1026.96ZM449.418 1030.92V1031.22H449.718V1030.92H449.418ZM445.698 1030.92V1030.62H445.398V1030.92H445.698ZM445.698 1037V1037.3H445.998V1037H445.698ZM441.218 1037H440.918V1037.3H441.218V1037ZM441.218 1030.92H441.518V1030.62H441.218V1030.92ZM441.418 1012.84H441.718V1011.85L441.169 1012.67L441.418 1012.84ZM431.978 1026.96L431.729 1026.79L431.417 1027.26H431.978V1026.96ZM441.418 1026.96V1027.26H441.718V1026.96H441.418ZM426.738 1030.92H427.038V1027.48H426.738H426.438V1030.92H426.738ZM426.738 1027.48L426.985 1027.65L440.425 1008.37L440.178 1008.2L439.932 1008.03L426.492 1027.31L426.738 1027.48ZM440.178 1008.2V1008.5H445.698V1008.2V1007.9H440.178V1008.2ZM445.698 1008.2H445.398V1026.96H445.698H445.998V1008.2H445.698ZM445.698 1026.96V1027.26H449.418V1026.96V1026.66H445.698V1026.96ZM449.418 1026.96H449.118V1030.92H449.418H449.718V1026.96H449.418ZM449.418 1030.92V1030.62H445.698V1030.92V1031.22H449.418V1030.92ZM445.698 1030.92H445.398V1037H445.698H445.998V1030.92H445.698ZM445.698 1037V1036.7H441.218V1037V1037.3H445.698V1037ZM441.218 1037H441.518V1030.92H441.218H440.918V1037H441.218ZM441.218 1030.92V1030.62H426.738V1030.92V1031.22H441.218V1030.92ZM441.418 1012.84L441.169 1012.67L431.729 1026.79L431.978 1026.96L432.228 1027.13L441.668 1013.01L441.418 1012.84ZM431.978 1026.96V1027.26H441.418V1026.96V1026.66H431.978V1026.96ZM441.418 1026.96H441.718V1012.84H441.418H441.118V1026.96H441.418Z" fill="black" mask="url(#path-9-outside-2_1_568)"/>
<path d="M378.295 197.975V272H357.715V231.155L343.75 272H326.53L312.46 230.84V272H291.88V197.975H316.765L335.35 246.065L353.515 197.975H378.295ZM386.65 242.495C386.65 236.405 387.735 231.085 389.905 226.535C392.145 221.985 395.155 218.485 398.935 216.035C402.785 213.585 407.055 212.36 411.745 212.36C415.805 212.36 419.305 213.165 422.245 214.775C425.185 216.385 427.46 218.555 429.07 221.285V213.095H449.65V272H429.07V263.81C427.46 266.54 425.15 268.71 422.14 270.32C419.2 271.93 415.735 272.735 411.745 272.735C407.055 272.735 402.785 271.51 398.935 269.06C395.155 266.61 392.145 263.11 389.905 258.56C387.735 253.94 386.65 248.585 386.65 242.495ZM429.07 242.495C429.07 238.715 428.02 235.74 425.92 233.57C423.89 231.4 421.37 230.315 418.36 230.315C415.28 230.315 412.725 231.4 410.695 233.57C408.665 235.67 407.65 238.645 407.65 242.495C407.65 246.275 408.665 249.285 410.695 251.525C412.725 253.695 415.28 254.78 418.36 254.78C421.37 254.78 423.89 253.695 425.92 251.525C428.02 249.355 429.07 246.345 429.07 242.495ZM481.957 223.49C484.267 220.13 487.067 217.47 490.357 215.51C493.647 213.55 497.182 212.57 500.962 212.57V234.515H495.187C490.707 234.515 487.382 235.39 485.212 237.14C483.042 238.89 481.957 241.935 481.957 246.275V272H461.377V213.095H481.957V223.49ZM533.435 272.735C528.115 272.735 523.355 271.86 519.155 270.11C515.025 268.29 511.735 265.84 509.285 262.76C506.905 259.61 505.575 256.075 505.295 252.155H525.245C525.525 254.045 526.4 255.515 527.87 256.565C529.34 257.615 531.16 258.14 533.33 258.14C535.01 258.14 536.34 257.79 537.32 257.09C538.3 256.39 538.79 255.48 538.79 254.36C538.79 252.89 537.985 251.805 536.375 251.105C534.765 250.405 532.105 249.635 528.395 248.795C524.195 247.955 520.695 247.01 517.895 245.96C515.095 244.91 512.645 243.195 510.545 240.815C508.515 238.435 507.5 235.215 507.5 231.155C507.5 227.655 508.445 224.505 510.335 221.705C512.225 218.835 514.99 216.56 518.63 214.88C522.34 213.2 526.785 212.36 531.965 212.36C539.665 212.36 545.72 214.25 550.13 218.03C554.54 221.81 557.095 226.78 557.795 232.94H539.21C538.86 231.05 538.02 229.615 536.69 228.635C535.43 227.585 533.715 227.06 531.545 227.06C529.865 227.06 528.57 227.375 527.66 228.005C526.82 228.635 526.4 229.51 526.4 230.63C526.4 232.03 527.205 233.115 528.815 233.885C530.425 234.585 533.015 235.32 536.585 236.09C540.855 237 544.39 238.015 547.19 239.135C550.06 240.255 552.545 242.075 554.645 244.595C556.815 247.045 557.9 250.405 557.9 254.675C557.9 258.105 556.885 261.185 554.855 263.915C552.895 266.645 550.06 268.815 546.35 270.425C542.71 271.965 538.405 272.735 533.435 272.735Z" fill="black"/>
<path d="M417.299 340.076C583.963 336.377 722.101 468.421 725.919 635.082C729.738 801.743 597.792 939.976 431.134 943.914C264.306 947.855 125.903 815.747 122.081 648.918C118.258 482.088 250.466 343.778 417.299 340.076Z" fill="black"/>
<path d="M326.993 475.674C331.572 473.293 336.559 472.003 341.388 470.239C403.89 447.397 376.96 389.868 457.472 372.454C479.085 367.779 483.689 365.777 504.324 372.308C592.862 400.331 667.023 472.658 693.118 562.257C666.761 573.605 664.448 566.939 638.451 562.254C602.548 555.784 575.029 570.556 558.616 601.582C553.347 614.182 540.552 659.052 544.362 672.766C541.616 688.126 527.505 706.066 517.165 716.856C490.225 712.242 465.437 701.417 440.34 719.155C422.333 731.882 411.039 752.563 407.456 774.068C401.383 810.503 417.951 827.359 380.575 854.314C367.305 863.884 348.766 874.605 332.647 877.231C299.346 882.654 272.334 851.453 242.484 856.452C216.189 830.973 193.382 810.96 176.575 776.355C160.535 753.099 148.344 710.788 144.651 683.693C138.73 640.248 148.663 632.027 171.825 601.582C180.766 595.217 188.259 587.492 198.425 582.834C240.397 563.602 254.897 580.224 272.898 526.928C282.482 498.554 294.073 477.905 326.993 475.674Z" fill="#ED7C31"/>
<path d="M326.992 475.674C331.571 473.293 336.559 472.003 341.388 470.239C403.889 447.397 376.96 389.868 457.472 372.454C479.085 367.779 483.689 365.777 504.324 372.308C592.861 400.331 667.023 472.658 693.117 562.257C666.76 573.605 664.448 566.939 638.45 562.254C602.547 555.784 575.029 570.556 558.616 601.582C556.091 600.984 554.773 600.307 552.887 598.57C542.281 601.554 532.457 609.124 521.054 608.984C519.074 615.321 513.322 619.728 506.69 619.989C500.056 620.251 493.976 616.312 491.505 610.152C406.579 620.345 320.304 567.827 326.992 475.674Z" fill="#F4944A"/>
<path d="M491.505 610.152C488.931 603.741 490.852 596.401 496.236 592.073C501.62 587.744 509.202 587.445 514.91 591.335C520.618 595.226 523.112 602.391 521.054 608.985C519.074 615.321 513.322 619.728 506.69 619.989C500.056 620.252 493.976 616.312 491.505 610.152Z" fill="black"/>
<path d="M504.338 596.754C513.83 596.107 515.656 606.766 508.012 610.932C498.383 612.952 495.77 600.737 504.338 596.754Z" fill="#171915"/>
<path d="M521.003 405.186C528.404 400.863 557.709 410.883 565.604 414.361C591.383 425.717 616.251 444.83 626.611 471.887C640.482 508.112 622.045 530.075 588.747 542.357C560.668 546.749 532.036 547.645 508.981 526.967C474.54 496.079 461.355 407.937 521.003 405.186Z" fill="#FAB065"/>
<path d="M581.394 444.004C606.108 444.803 620.585 520.507 565.647 521.738C508.804 523.013 477.978 428.852 538.325 429.207C546.129 429.253 562.977 431.629 568.243 437.782C570.654 435.829 573.97 435.43 576.776 436.756C579.579 438.085 581.375 440.901 581.394 444.004Z" fill="#FCC77E"/>
<path d="M568.244 437.783C570.655 435.829 573.971 435.43 576.776 436.757C579.58 438.085 581.376 440.901 581.395 444.004C581.417 447.767 578.836 451.047 575.173 451.909C571.51 452.769 567.738 450.985 566.081 447.607C564.422 444.229 565.32 440.152 568.244 437.783Z" fill="black"/>
<path d="M586.124 455.548C593.679 455.266 594.42 462.129 588.747 465.533C580.736 466.008 580.093 459.017 586.124 455.548Z" fill="black"/>
<path d="M427.81 452.72C445.097 451.535 460.112 464.496 461.464 481.772C462.816 499.047 449.999 514.187 432.737 515.704C415.241 517.243 399.847 504.211 398.477 486.7C397.106 469.188 410.285 453.921 427.81 452.72Z" fill="black"/>
<path d="M421.356 463.84C426.843 461.457 433.059 461.378 438.607 463.617C444.523 466.007 449.135 470.815 451.278 476.826C453.418 482.838 452.886 489.478 449.813 495.071C444.999 503.832 434.948 508.325 425.208 506.069C415.822 503.895 408.887 495.945 408.012 486.348C407.136 476.751 412.517 467.676 421.356 463.84Z" fill="#E51715"/>
<path d="M438.606 463.616C444.523 466.007 449.135 470.815 451.277 476.825C453.418 482.837 452.885 489.477 449.812 495.071C431.641 497.612 418.961 471.406 438.606 463.616Z" fill="#F75047"/>
<path d="M421.356 463.839C422.599 475.509 407.267 479.959 425.208 506.069C415.822 503.895 408.887 495.944 408.012 486.348C407.136 476.751 412.517 467.676 421.356 463.839Z" fill="#C6372C"/>
<path d="M647.405 538.947C650.011 538.683 657.076 544.787 661.517 545.699C664.699 546.352 690.345 539.172 676.885 551.833C663.556 560.573 634.982 547.579 647.405 538.947Z" fill="black"/>
<path d="M171.825 601.583C175.112 605.621 172.275 618.076 172.073 622.898C169.462 685.379 187.564 744.917 224.885 795.517C227.7 799.336 248.656 826.929 228.561 823.247C203.464 818.647 184.271 779.04 176.575 776.355C160.535 753.1 148.344 710.789 144.651 683.694C138.73 640.249 148.663 632.028 171.825 601.583Z" fill="#FAB065"/>
<path d="M255.708 690.616C281.246 686.805 305.003 704.514 308.65 730.074C312.295 755.634 294.437 779.278 268.855 782.763C243.5 786.214 220.115 768.552 216.5 743.221C212.887 717.888 230.401 694.39 255.708 690.616Z" fill="black"/>
<path d="M241.25 706.606C252.715 698.922 269.208 696.166 280.986 704.983C288.836 709.072 294.368 716.961 297.894 724.901C302.091 746.788 293.407 769.736 269.396 773.247C237.067 781.363 207.127 732.242 241.25 706.606Z" fill="#E51715"/>
<path d="M280.986 704.982C288.837 709.071 294.368 716.96 297.894 724.9L297.384 725.488C290.246 716.06 298.764 726.484 295.488 736.445C288.608 757.362 248.086 743.867 259.92 714.28C266.098 698.838 279.407 707.288 281.221 705.812L280.246 705.226L280.986 704.982Z" fill="#F75047"/>
<path d="M269.396 773.247C237.067 781.363 207.127 732.242 241.25 706.605C242.214 710.85 238.153 715.134 236.777 718.962C228.197 742.852 242.368 764.532 265.38 770.957C266.637 771.308 268.346 771.491 269.261 772.441L268.52 772.77C268.957 773.115 268.905 773.077 269.396 773.247Z" fill="#C6372C"/>
<path d="M318.59 607.079C360.125 605.659 419.04 685.115 371.786 694.201C323.495 694.882 267.445 608.345 318.59 607.079Z" fill="black"/>
<path d="M318.591 617.163C354.645 618.123 397.578 679.381 371.787 684.531C335.478 686.034 292.916 619.571 318.591 617.163Z" fill="#39331C"/>
<path d="M438.921 694.202C440.998 693.538 443.853 693.104 445.213 695.298C449.022 701.437 437.436 704.377 433.781 705.976C397.921 721.663 403.708 754.402 396.09 760.078C377.525 763.625 399.565 700.179 438.921 694.202Z" fill="black"/>
<path d="M295.11 523.113C305.956 523.141 294.366 546.159 292.297 550.214C283.08 568.29 267.056 583.741 247.545 590.119C244.704 590.033 240.295 588.344 241.897 584.613C243.898 579.953 273.814 572.067 286.52 541.018C288.911 535.175 289.029 526.227 295.11 523.113Z" fill="black"/>
<path d="M275.416 819.388C282.474 818.965 287.113 825.626 280.985 830.334C272.995 831.552 268.154 823.856 275.416 819.388Z" fill="black"/>
<path d="M198.037 676.748C200.042 676.484 202.034 677.322 203.247 678.941C204.462 680.558 204.709 682.706 203.894 684.557C203.082 686.408 201.332 687.677 199.32 687.878C196.275 688.182 193.55 685.983 193.2 682.944C192.849 679.903 195.004 677.145 198.037 676.748Z" fill="black"/>
<path d="M192.046 656.672C194.92 655.536 198.171 656.949 199.303 659.824C200.435 662.7 199.021 665.949 196.146 667.08C193.272 668.211 190.026 666.798 188.895 663.924C187.763 661.052 189.173 657.806 192.046 656.672Z" fill="black"/>
<path d="M297.894 831.791C306.217 833.536 305.086 840.977 297.894 842.861C290.153 840.911 290.794 833.555 297.894 831.791Z" fill="black"/>
<path d="M382.812 864.976C423.906 833.21 412.381 829.93 416.418 783.187C418.183 762.746 426.708 743.389 442.715 730.094C460.545 715.284 472.822 717.795 493.654 722.423C539.125 732.526 577.433 724.52 597.568 676.882C604.259 661.049 607.623 642.508 621.546 630.991C637.291 617.969 661.006 610.46 681.325 612.289C690.579 612.462 697.585 616.375 705.736 620.305C704.378 669.837 705.352 692.1 686.546 742.36C679.133 736.466 671.799 731.387 663.144 727.43C625.558 712.663 607.575 730.77 583.906 756.238C552.655 798.468 521.717 774.368 503.095 799.694C481.662 828.843 502.885 892.817 458.715 900.156C439.605 903.33 412.949 879.031 396.09 867.777C391.618 866.769 387.389 865.544 382.812 864.976Z" fill="#C6372C"/>
<path d="M396.09 867.777C404.549 865.83 421.803 875.535 440.161 870.532C483.471 858.726 460.265 800.052 497.893 778.07C514.811 768.189 534.385 773.713 552.745 769.326C565.295 766.327 574.092 758.791 583.905 756.238C552.655 798.468 521.717 774.368 503.094 799.694C481.661 828.843 502.884 892.817 458.714 900.156C439.605 903.33 412.949 879.031 396.09 867.777Z" fill="#AC2421"/>
<path d="M681.325 612.29C690.58 612.463 697.586 616.375 705.737 620.305C704.379 669.837 705.352 692.1 686.547 742.36C679.133 736.466 671.8 731.388 663.145 727.431C666.71 720.469 667.916 712.167 671.432 704.983C682.903 705.384 685.473 691.903 674.788 688.056C680.558 681.67 680.535 627.237 681.325 612.29Z" fill="#AC2421"/>
<path d="M671.431 704.983C660.689 699.968 662.531 686.764 674.787 688.056C685.472 691.903 682.901 705.384 671.431 704.983Z" fill="black"/>
<path d="M490.698 890.139C504.034 859.565 497.111 841.247 505.478 816.614C513.103 794.166 531.322 796.653 550.627 792.41C596.176 782.395 601.814 716.559 658.703 736.671C667.594 740.715 674.883 745.609 682.127 752.14C653.822 819.845 595.16 874.12 527.665 901.754C442.614 936.575 328.783 925.129 256.227 866.355C284.734 871.208 296.763 891.456 335.816 886.668C361.682 881.574 373.903 864.978 400.395 882.7C409.523 888.806 422.148 898.284 430.754 905.293C433.704 905.934 436.535 907.243 439.371 908.27C462.595 916.69 476.53 905.74 490.698 890.139Z" fill="#AC2421"/>
<path d="M490.699 890.139C504.035 859.565 497.111 841.246 505.479 816.613C513.104 794.166 531.322 796.653 550.627 792.41C596.176 782.395 601.814 716.559 658.704 736.671C646.737 763.801 603.806 826.772 577.078 841.598C582.51 850.492 580.044 862.078 571.465 867.99C562.885 873.903 551.181 872.082 544.803 863.841C541.907 868.621 497.67 891.236 490.699 890.139Z" fill="#C6372C"/>
<path d="M544.803 863.841C540.354 858.091 539.447 850.352 542.447 843.729C545.448 837.107 551.864 832.685 559.121 832.238C566.379 831.791 573.288 835.394 577.078 841.598C582.509 850.492 580.044 862.079 571.465 867.99C562.884 873.904 551.18 872.083 544.803 863.841Z" fill="black"/>
<path d="M560.29 842.64C565.298 842.764 569.266 846.905 569.176 851.913C569.084 856.922 564.966 860.917 559.958 860.857C554.903 860.796 550.865 856.634 550.957 851.579C551.051 846.527 555.239 842.515 560.29 842.64Z" fill="#F75047"/>
<path d="M335.816 886.668C361.682 881.574 373.903 864.977 400.395 882.7C409.523 888.806 422.148 898.283 430.754 905.292C427.581 906.347 423.771 905.2 420.478 905.299C401.847 905.857 350.917 898.803 335.816 886.668Z" fill="#C6372C"/>
<path d="M191.95 532.044C197.878 528.404 203.981 527.138 210.109 522.462C237.56 501.506 241.972 469.676 262.303 453.309C274.662 443.357 290.637 448.56 305.135 446.444C339.467 441.439 366.915 395.731 398.715 375.95C399.672 376.845 407.707 379.364 411.066 381.707C383.205 404.332 379.682 438.131 353.638 454.591C335.701 465.926 313.646 465.698 295.111 475.674C262.33 498.789 268.474 534.745 248.644 553.344C231.615 569.315 198.906 566.548 178.587 584.394C178.649 582.909 178.634 581.441 178.587 579.955C179.771 573.46 191.968 532.973 191.95 532.044Z" fill="#C6372C"/>
<path d="M178.587 579.956C180.558 578.345 182.234 576.423 184.265 574.842C199.27 563.156 221.88 556.912 234.106 545.228C246.608 533.279 277.25 470.392 295.111 475.674C262.33 498.79 268.474 534.745 248.644 553.344C231.615 569.315 198.906 566.548 178.587 584.395C178.649 582.909 178.634 581.441 178.587 579.956Z" fill="#AC2421"/>
<path d="M167.746 526.114C175.089 506.023 192.096 482.488 205.297 465.607C255.239 401.743 324.717 370.288 403.042 360.736C395.906 365.975 378.667 380.411 371.786 383.552C367.871 389.444 359.939 395.575 354.711 400.717C339.748 415.434 327.737 431.903 306.065 436.321C279.01 441.837 264.453 428.902 244.3 458.876C232.661 476.185 217.929 512.496 196.524 518.923C188.524 524.752 177.316 525.712 167.746 526.114Z" fill="#706246"/>
<path d="M196.524 518.924C219.667 469.192 262.741 430.241 311.368 406.039C329.244 397.142 352.538 386.799 371.786 383.552C367.87 389.444 359.939 395.576 354.711 400.718C339.748 415.434 327.737 431.903 306.065 436.322C279.01 441.837 264.452 428.902 244.3 458.876C232.661 476.185 217.928 512.497 196.524 518.924Z" fill="#39331C"/>
<path d="M544.362 672.766C556.814 676.859 554.466 662.535 555.481 654.88C561.599 608.714 579.506 560.265 636.89 571.771C649.558 574.311 657.957 578.147 671.432 577.639C678.681 578.29 679.369 595.173 679.556 601.582C656.779 601.255 630.418 608.618 613.696 624.879C579.63 658.002 594.24 720.366 517.165 716.855C527.505 706.066 541.615 688.125 544.362 672.766Z" fill="#C6372C"/>
<path d="M163.288 535.615C173.15 535.705 182.396 534.304 191.95 532.044C191.968 532.973 179.771 573.459 178.587 579.955C178.633 581.44 178.649 582.908 178.587 584.394C162.751 595.751 151.234 611.658 141.875 628.473C142.571 598.942 153.034 562.794 163.288 535.615Z" fill="#F75047"/>
<path d="M671.431 577.64C680.613 577.056 687.958 575.307 696.163 570.895C698.801 582.524 701.998 595.172 702.642 607.08C695.25 603.339 687.87 601.468 679.555 601.583C679.369 595.173 678.68 578.291 671.431 577.64Z" fill="#AC2421"/>
<path d="M398.714 375.951C431.09 353.019 421.237 362.343 461.097 361.469C441.716 369.524 429.875 368.109 411.066 381.708C407.707 379.365 399.672 376.846 398.714 375.951Z" fill="#F75047"/>
</svg>
