<svg width="849" height="1183" viewBox="0 0 849 1183" fill="none" xmlns="http://www.w3.org/2000/svg">
<rect x="5" y="5" width="839" height="1173" rx="45" fill="white"/>
<rect x="5" y="5" width="839" height="1173" rx="45" stroke="black" stroke-width="10"/>
<circle cx="786.5" cy="1124.5" r="11.5" fill="black"/>
<circle cx="786.5" cy="59.5" r="11.5" fill="black"/>
<path d="M77 1124.5C77 1130.85 71.8513 1136 65.5 1136C59.1487 1136 54 1130.85 54 1124.5C54 1118.15 59.1487 1113 65.5 1113C71.8513 1113 77 1118.15 77 1124.5Z" fill="black"/>
<path d="M77 59.5C77 65.8513 71.8513 71 65.5 71C59.1487 71 54 65.8513 54 59.5C54 53.1487 59.1487 48 65.5 48C71.8513 48 77 53.1487 77 59.5Z" fill="black"/>
<mask id="path-6-inside-1_1_4205" fill="white">
<path d="M708 48C713.523 48 717.934 52.4996 718.616 57.9801C723.122 94.1833 751.817 122.878 788.02 127.384C793.5 128.066 798 132.477 798 138V1046C798 1051.52 793.5 1055.93 788.02 1056.62C751.817 1061.12 723.122 1089.82 718.616 1126.02C717.934 1131.5 713.523 1136 708 1136H141C135.477 1136 131.066 1131.5 130.384 1126.02C125.878 1089.82 97.1833 1061.12 60.9801 1056.62C55.4996 1055.93 51 1051.52 51 1046V138C51 132.477 55.4996 128.066 60.9801 127.384C97.1833 122.878 125.878 94.1833 130.384 57.9801C131.066 52.4996 135.477 48 141 48H708Z"/>
</mask>
<path d="M708 48C713.523 48 717.934 52.4996 718.616 57.9801C723.122 94.1833 751.817 122.878 788.02 127.384C793.5 128.066 798 132.477 798 138V1046C798 1051.52 793.5 1055.93 788.02 1056.62C751.817 1061.12 723.122 1089.82 718.616 1126.02C717.934 1131.5 713.523 1136 708 1136H141C135.477 1136 131.066 1131.5 130.384 1126.02C125.878 1089.82 97.1833 1061.12 60.9801 1056.62C55.4996 1055.93 51 1051.52 51 1046V138C51 132.477 55.4996 128.066 60.9801 127.384C97.1833 122.878 125.878 94.1833 130.384 57.9801C131.066 52.4996 135.477 48 141 48H708Z" fill="#7047A3"/>
<path d="M130.384 1126.02L138.322 1125.03L130.384 1126.02ZM718.616 1126.02L710.678 1125.03L718.616 1126.02ZM788.02 1056.62L789.008 1064.56L788.02 1056.62ZM718.616 57.9801L726.555 56.9922L718.616 57.9801ZM718.616 57.9801L710.678 58.9681C715.635 98.8063 747.194 130.365 787.032 135.322L788.02 127.384L789.008 119.445C756.44 115.392 730.608 89.5603 726.555 56.9922L718.616 57.9801ZM798 138H790V1046H798H806V138H798ZM788.02 1056.62L787.032 1048.68C747.194 1053.64 715.635 1085.19 710.678 1125.03L718.616 1126.02L726.555 1127.01C730.608 1094.44 756.44 1068.61 789.008 1064.56L788.02 1056.62ZM708 1136V1128H141V1136V1144H708V1136ZM130.384 1126.02L138.322 1125.03C133.365 1085.19 101.806 1053.64 61.9681 1048.68L60.9801 1056.62L59.9922 1064.56C92.5603 1068.61 118.392 1094.44 122.445 1127.01L130.384 1126.02ZM51 1046H59V138H51H43V1046H51ZM60.9801 127.384L61.9681 135.322C101.806 130.365 133.365 98.8063 138.322 58.9681L130.384 57.9801L122.445 56.9922C118.392 89.5603 92.5603 115.392 59.9922 119.445L60.9801 127.384ZM141 48V56H708V48V40H141V48ZM130.384 57.9801L138.322 58.9681C138.438 58.0389 138.872 57.2306 139.427 56.6958C139.954 56.1887 140.494 56 141 56V48V40C130.84 40 123.547 48.1329 122.445 56.9922L130.384 57.9801ZM51 138H59C59 137.494 59.1887 136.954 59.6958 136.427C60.2306 135.872 61.0389 135.438 61.9681 135.322L60.9801 127.384L59.9922 119.445C51.1329 120.547 43 127.84 43 138H51ZM60.9801 1056.62L61.9681 1048.68C61.0389 1048.56 60.2306 1048.13 59.6958 1047.57C59.1887 1047.05 59 1046.51 59 1046H51H43C43 1056.16 51.1329 1063.45 59.9922 1064.56L60.9801 1056.62ZM141 1136V1128C140.494 1128 139.954 1127.81 139.427 1127.3C138.872 1126.77 138.438 1125.96 138.322 1125.03L130.384 1126.02L122.445 1127.01C123.547 1135.87 130.84 1144 141 1144V1136ZM718.616 1126.02L710.678 1125.03C710.562 1125.96 710.128 1126.77 709.573 1127.3C709.046 1127.81 708.506 1128 708 1128V1136V1144C718.16 1144 725.453 1135.87 726.555 1127.01L718.616 1126.02ZM798 1046H790C790 1046.51 789.811 1047.05 789.304 1047.57C788.769 1048.13 787.961 1048.56 787.032 1048.68L788.02 1056.62L789.008 1064.56C797.867 1063.45 806 1056.16 806 1046H798ZM788.02 127.384L787.032 135.322C787.961 135.438 788.769 135.872 789.304 136.427C789.811 136.954 790 137.494 790 138H798H806C806 127.84 797.867 120.547 789.008 119.445L788.02 127.384ZM718.616 57.9801L726.555 56.9922C725.453 48.1329 718.16 40 708 40V48V56C708.506 56 709.046 56.1887 709.573 56.6958C710.128 57.2306 710.562 58.0389 710.678 58.9681L718.616 57.9801Z" fill="black" mask="url(#path-6-inside-1_1_4205)"/>
<path d="M690 102C695.523 102 699.911 106.512 700.837 111.957C705.019 136.563 724.437 155.981 749.043 160.163C754.488 161.089 759 165.477 759 171V1014C759 1019.52 754.488 1023.91 749.043 1024.84C724.711 1028.97 705.454 1048 700.984 1072.22C699.993 1077.59 695.633 1082 690.175 1082H158.825C153.367 1082 149.007 1077.59 148.016 1072.22C143.546 1048 124.288 1028.97 99.9568 1024.84C94.5121 1023.91 90 1019.52 90 1014V171C90 165.477 94.512 161.089 99.9568 160.163C124.563 155.981 143.981 136.563 148.163 111.957C149.089 106.512 153.477 102 159 102H690Z" fill="#B48FE1"/>
<mask id="path-9-outside-2_1_4205" maskUnits="userSpaceOnUse" x="414" y="1007" width="22" height="31" fill="black">
<rect fill="white" x="414" y="1007" width="22" height="31"/>
<path d="M433.2 1011.76H419.8V1019.72C420.36 1018.97 421.187 1018.35 422.28 1017.84C423.4 1017.33 424.587 1017.08 425.84 1017.08C428.08 1017.08 429.893 1017.56 431.28 1018.52C432.693 1019.48 433.693 1020.69 434.28 1022.16C434.893 1023.63 435.2 1025.17 435.2 1026.8C435.2 1028.77 434.813 1030.53 434.04 1032.08C433.293 1033.6 432.16 1034.8 430.64 1035.68C429.147 1036.56 427.307 1037 425.12 1037C422.213 1037 419.88 1036.28 418.12 1034.84C416.36 1033.4 415.307 1031.49 414.96 1029.12H419.4C419.693 1030.37 420.347 1031.37 421.36 1032.12C422.373 1032.84 423.64 1033.2 425.16 1033.2C427.053 1033.2 428.467 1032.63 429.4 1031.48C430.36 1030.33 430.84 1028.81 430.84 1026.92C430.84 1025 430.36 1023.53 429.4 1022.52C428.44 1021.48 427.027 1020.96 425.16 1020.96C423.853 1020.96 422.747 1021.29 421.84 1021.96C420.96 1022.6 420.32 1023.48 419.92 1024.6H415.6V1007.76H433.2V1011.76Z"/>
</mask>
<path d="M433.2 1011.76H419.8V1019.72C420.36 1018.97 421.187 1018.35 422.28 1017.84C423.4 1017.33 424.587 1017.08 425.84 1017.08C428.08 1017.08 429.893 1017.56 431.28 1018.52C432.693 1019.48 433.693 1020.69 434.28 1022.16C434.893 1023.63 435.2 1025.17 435.2 1026.8C435.2 1028.77 434.813 1030.53 434.04 1032.08C433.293 1033.6 432.16 1034.8 430.64 1035.68C429.147 1036.56 427.307 1037 425.12 1037C422.213 1037 419.88 1036.28 418.12 1034.84C416.36 1033.4 415.307 1031.49 414.96 1029.12H419.4C419.693 1030.37 420.347 1031.37 421.36 1032.12C422.373 1032.84 423.64 1033.2 425.16 1033.2C427.053 1033.2 428.467 1032.63 429.4 1031.48C430.36 1030.33 430.84 1028.81 430.84 1026.92C430.84 1025 430.36 1023.53 429.4 1022.52C428.44 1021.48 427.027 1020.96 425.16 1020.96C423.853 1020.96 422.747 1021.29 421.84 1021.96C420.96 1022.6 420.32 1023.48 419.92 1024.6H415.6V1007.76H433.2V1011.76Z" fill="black"/>
<path d="M433.2 1011.76V1012.06H433.5V1011.76H433.2ZM419.8 1011.76V1011.46H419.5V1011.76H419.8ZM419.8 1019.72H419.5V1020.62L420.04 1019.9L419.8 1019.72ZM422.28 1017.84L422.156 1017.57L422.154 1017.57L422.28 1017.84ZM431.28 1018.52L431.109 1018.77L431.111 1018.77L431.28 1018.52ZM434.28 1022.16L434.001 1022.27L434.003 1022.28L434.28 1022.16ZM434.04 1032.08L433.772 1031.95L433.771 1031.95L434.04 1032.08ZM430.64 1035.68L430.49 1035.42L430.488 1035.42L430.64 1035.68ZM418.12 1034.84L418.31 1034.61L418.12 1034.84ZM414.96 1029.12V1028.82H414.613L414.663 1029.16L414.96 1029.12ZM419.4 1029.12L419.692 1029.05L419.638 1028.82H419.4V1029.12ZM421.36 1032.12L421.182 1032.36L421.186 1032.36L421.36 1032.12ZM429.4 1031.48L429.17 1031.29L429.167 1031.29L429.4 1031.48ZM429.4 1022.52L429.18 1022.72L429.182 1022.73L429.4 1022.52ZM421.84 1021.96L422.016 1022.2L422.018 1022.2L421.84 1021.96ZM419.92 1024.6V1024.9H420.131L420.203 1024.7L419.92 1024.6ZM415.6 1024.6H415.3V1024.9H415.6V1024.6ZM415.6 1007.76V1007.46H415.3V1007.76H415.6ZM433.2 1007.76H433.5V1007.46H433.2V1007.76ZM433.2 1011.76V1011.46H419.8V1011.76V1012.06H433.2V1011.76ZM419.8 1011.76H419.5V1019.72H419.8H420.1V1011.76H419.8ZM419.8 1019.72L420.04 1019.9C420.563 1019.2 421.345 1018.6 422.406 1018.11L422.28 1017.84L422.154 1017.57C421.028 1018.09 420.157 1018.74 419.56 1019.54L419.8 1019.72ZM422.28 1017.84L422.404 1018.11C423.484 1017.62 424.628 1017.38 425.84 1017.38V1017.08V1016.78C424.545 1016.78 423.316 1017.04 422.156 1017.57L422.28 1017.84ZM425.84 1017.08V1017.38C428.039 1017.38 429.787 1017.85 431.109 1018.77L431.28 1018.52L431.451 1018.27C430 1017.27 428.121 1016.78 425.84 1016.78V1017.08ZM431.28 1018.52L431.111 1018.77C432.48 1019.7 433.439 1020.86 434.001 1022.27L434.28 1022.16L434.559 1022.05C433.948 1020.52 432.907 1019.26 431.449 1018.27L431.28 1018.52ZM434.28 1022.16L434.003 1022.28C434.601 1023.7 434.9 1025.21 434.9 1026.8H435.2H435.5C435.5 1025.13 435.186 1023.55 434.557 1022.04L434.28 1022.16ZM435.2 1026.8H434.9C434.9 1028.73 434.521 1030.45 433.772 1031.95L434.04 1032.08L434.308 1032.21C435.105 1030.62 435.5 1028.81 435.5 1026.8H435.2ZM434.04 1032.08L433.771 1031.95C433.051 1033.41 431.96 1034.57 430.49 1035.42L430.64 1035.68L430.79 1035.94C432.36 1035.03 433.535 1033.79 434.309 1032.21L434.04 1032.08ZM430.64 1035.68L430.488 1035.42C429.051 1036.27 427.267 1036.7 425.12 1036.7V1037V1037.3C427.346 1037.3 429.242 1036.85 430.792 1035.94L430.64 1035.68ZM425.12 1037V1036.7C422.263 1036.7 420.003 1035.99 418.31 1034.61L418.12 1034.84L417.93 1035.07C419.757 1036.57 422.164 1037.3 425.12 1037.3V1037ZM418.12 1034.84L418.31 1034.61C416.611 1033.22 415.593 1031.38 415.257 1029.08L414.96 1029.12L414.663 1029.16C415.02 1031.61 416.109 1033.58 417.93 1035.07L418.12 1034.84ZM414.96 1029.12V1029.42H419.4V1029.12V1028.82H414.96V1029.12ZM419.4 1029.12L419.108 1029.19C419.417 1030.51 420.11 1031.57 421.182 1032.36L421.36 1032.12L421.538 1031.88C420.583 1031.18 419.97 1030.24 419.692 1029.05L419.4 1029.12ZM421.36 1032.12L421.186 1032.36C422.261 1033.13 423.592 1033.5 425.16 1033.5V1033.2V1032.9C423.688 1032.9 422.486 1032.55 421.534 1031.88L421.36 1032.12ZM425.16 1033.2V1033.5C427.116 1033.5 428.627 1032.9 429.633 1031.67L429.4 1031.48L429.167 1031.29C428.306 1032.35 426.991 1032.9 425.16 1032.9V1033.2ZM429.4 1031.48L429.63 1031.67C430.646 1030.46 431.14 1028.86 431.14 1026.92H430.84H430.54C430.54 1028.76 430.074 1030.21 429.17 1031.29L429.4 1031.48ZM430.84 1026.92H431.14C431.14 1024.95 430.648 1023.4 429.618 1022.31L429.4 1022.52L429.182 1022.73C430.072 1023.67 430.54 1025.05 430.54 1026.92H430.84ZM429.4 1022.52L429.62 1022.32C428.587 1021.2 427.082 1020.66 425.16 1020.66V1020.96V1021.26C426.971 1021.26 428.293 1021.76 429.18 1022.72L429.4 1022.52ZM425.16 1020.96V1020.66C423.8 1020.66 422.628 1021.01 421.662 1021.72L421.84 1021.96L422.018 1022.2C422.865 1021.58 423.907 1021.26 425.16 1021.26V1020.96ZM421.84 1021.96L421.664 1021.72C420.73 1022.4 420.056 1023.33 419.637 1024.5L419.92 1024.6L420.203 1024.7C420.584 1023.63 421.19 1022.8 422.016 1022.2L421.84 1021.96ZM419.92 1024.6V1024.3H415.6V1024.6V1024.9H419.92V1024.6ZM415.6 1024.6H415.9V1007.76H415.6H415.3V1024.6H415.6ZM415.6 1007.76V1008.06H433.2V1007.76V1007.46H415.6V1007.76ZM433.2 1007.76H432.9V1011.76H433.2H433.5V1007.76H433.2Z" fill="black" mask="url(#path-9-outside-2_1_4205)"/>
<path d="M369.07 197.975V214.355H339.46V227.375H361.3V243.02H339.46V272H318.88V197.975H369.07ZM388.132 207.635C384.492 207.635 381.552 206.655 379.312 204.695C377.142 202.665 376.057 200.145 376.057 197.135C376.057 194.055 377.142 191.5 379.312 189.47C381.552 187.44 384.492 186.425 388.132 186.425C391.702 186.425 394.572 187.44 396.742 189.47C398.982 191.5 400.102 194.055 400.102 197.135C400.102 200.145 398.982 202.665 396.742 204.695C394.572 206.655 391.702 207.635 388.132 207.635ZM398.317 213.095V272H377.737V213.095H398.317ZM435.132 272.735C429.812 272.735 425.052 271.86 420.852 270.11C416.722 268.29 413.432 265.84 410.982 262.76C408.602 259.61 407.272 256.075 406.992 252.155H426.942C427.222 254.045 428.097 255.515 429.567 256.565C431.037 257.615 432.857 258.14 435.027 258.14C436.707 258.14 438.037 257.79 439.017 257.09C439.997 256.39 440.487 255.48 440.487 254.36C440.487 252.89 439.682 251.805 438.072 251.105C436.462 250.405 433.802 249.635 430.092 248.795C425.892 247.955 422.392 247.01 419.592 245.96C416.792 244.91 414.342 243.195 412.242 240.815C410.212 238.435 409.197 235.215 409.197 231.155C409.197 227.655 410.142 224.505 412.032 221.705C413.922 218.835 416.687 216.56 420.327 214.88C424.037 213.2 428.482 212.36 433.662 212.36C441.362 212.36 447.417 214.25 451.827 218.03C456.237 221.81 458.792 226.78 459.492 232.94H440.907C440.557 231.05 439.717 229.615 438.387 228.635C437.127 227.585 435.412 227.06 433.242 227.06C431.562 227.06 430.267 227.375 429.357 228.005C428.517 228.635 428.097 229.51 428.097 230.63C428.097 232.03 428.902 233.115 430.512 233.885C432.122 234.585 434.712 235.32 438.282 236.09C442.552 237 446.087 238.015 448.887 239.135C451.757 240.255 454.242 242.075 456.342 244.595C458.512 247.045 459.597 250.405 459.597 254.675C459.597 258.105 458.582 261.185 456.552 263.915C454.592 266.645 451.757 268.815 448.047 270.425C444.407 271.965 440.102 272.735 435.132 272.735ZM508.46 212.57C515.18 212.57 520.5 214.845 524.42 219.395C528.41 223.875 530.405 229.965 530.405 237.665V272H509.825V240.395C509.825 237.035 508.95 234.41 507.2 232.52C505.45 230.56 503.105 229.58 500.165 229.58C497.085 229.58 494.67 230.56 492.92 232.52C491.17 234.41 490.295 237.035 490.295 240.395V272H469.715V194.3H490.295V221.495C492.115 218.835 494.565 216.7 497.645 215.09C500.795 213.41 504.4 212.57 508.46 212.57Z" fill="black"/>
<path d="M391.276 429.138C393.412 428.892 395.978 428.964 398.075 429.44C400.534 429.997 402.54 431.487 403.844 433.64C407.906 440.346 404.793 450.23 403.146 457.345C413.538 453.576 428.643 448.517 439.6 452.402C442.394 453.393 444.869 455.166 446.138 457.915C448.351 462.708 446.813 467.977 445.107 472.646C453.98 470.458 464.765 467.698 473.787 470.517C477.026 471.529 479.804 473.397 481.387 476.473C484.441 482.408 481.91 489.23 479.959 495.068C488.193 494.57 498.81 493.248 506.029 498.053C508.171 499.479 509.639 501.47 510.099 504.033C511.675 512.825 503.047 523.108 498.227 529.875C525.175 542.181 552.945 552.545 581.981 558.71C588.753 560.148 595.6 561.677 602.536 562.041C624.021 563.17 647.736 550.522 663.223 536.483C680.936 520.424 683.793 497.228 684.961 474.668C685.373 466.654 687.147 458.912 693.383 453.373C696.767 450.373 700.97 448.439 705.556 448.767C713.421 449.329 720.442 455.832 725.366 461.551C745.598 485.028 750.786 517.811 748.5 547.826C745.991 580.732 729.873 601.509 705.581 622.379C708.488 625.588 712.149 628.231 715.31 631.214C721.361 636.933 726.226 643.963 730.533 651.051C746.468 677.274 747.899 708.305 740.674 737.617C736.541 754.383 728.084 776.144 712.458 785.477C707.325 788.544 700.051 790.435 694.133 788.878C676.44 784.222 675.322 755.741 672.053 741.025C670.164 732.533 667.655 724.038 663.268 716.471C652.635 698.142 635.901 692.142 616.389 686.981C608.578 693.215 601.021 699.778 593.255 706.072C566.37 725.73 541.544 745.241 511.033 759.258C493.185 767.457 474.29 773.435 455.845 780.136C456.231 791.849 456.764 805.344 448.076 814.524C443.506 819.353 438.053 820.275 431.716 820.486C427.951 830.698 425.898 840.79 417.54 848.582C412.256 853.509 406.02 855.198 398.881 854.952C370.51 853.975 329.59 818.003 308.547 799.268C302.939 794.275 298.228 787.3 291.704 783.496C285.943 780.137 278.723 779.296 272.411 777.284C265.961 775.228 259.654 772.652 253.377 770.126C221.742 757.415 191.878 740.677 164.524 720.325C153.932 712.562 143.549 704.548 134.584 694.888C124.344 683.854 117.341 672.234 117.905 656.7C116.891 655.912 115.89 655.109 114.901 654.289C107.137 647.817 100.984 639.831 100.109 629.406C99.4342 621.376 101.966 613.693 105.924 606.812C119.046 583.998 159.346 552.822 182.431 538.807C193.088 532.372 204.195 526.715 215.667 521.88C229.282 516.003 243.213 510.347 257.233 505.499C263.197 503.437 274.274 501.58 279.081 498.737C285.001 495.236 290.215 485.098 294.801 479.66C312.434 458.752 364.219 431.398 391.276 429.138Z" fill="black"/>
<path d="M335.003 515.805C335.494 515.453 336.111 514.929 336.674 514.715C337.768 514.3 338.568 514.898 339.529 515.345C354.318 514.926 368.805 516.033 383.541 516.955C383.296 517.602 383.008 518.33 383.04 519.032C383.201 522.642 386.624 529.84 387.224 534.653C387.703 538.5 387.25 542.739 386.158 546.448C384.449 552.256 380.927 557.475 376.497 561.569C375.389 562.593 373.67 563.582 372.838 564.811C372.194 565.764 371.886 567.101 372.143 568.216C373.027 568.912 373.422 569.009 374.611 568.927C378.265 568.676 382.073 565.696 384.252 562.934C387.664 558.611 389.214 552.714 392.04 549.221C392.608 548.519 393.06 548.087 393.979 547.978C397.614 547.547 403.235 550.731 405.903 553.051C410.56 557.1 413.354 563.276 413.734 569.396C414.188 576.702 411.631 584.816 406.748 590.307C403.766 593.656 399.989 596.2 395.764 597.705C392.727 598.777 380.267 598.966 380.594 603.665C380.657 604.569 380.934 605.211 381.662 605.769C383.159 606.918 387.912 606.694 389.934 607.184C398.2 609.188 408.337 616.36 410.342 625.088C411.683 630.922 410.009 637.491 406.807 642.436C402.007 649.849 394.135 654.472 385.77 656.768C383.351 657.431 380.316 657.859 378.169 659.17C376.905 659.941 376.4 660.833 376.725 662.319C376.883 663.042 377.698 663.759 378.309 664.113C380.558 665.412 383.467 665.568 385.952 666.238C392.856 668.1 399.571 673.566 401.637 680.561C403.07 685.417 402.381 690.418 399.934 694.813C395.751 702.326 386.95 708.588 378.736 710.832C377.291 711.226 375.822 711.568 374.319 711.576C371.044 711.595 361.636 709.407 359.841 712.432C359.292 713.356 359.155 714.668 359.561 715.67C360.152 717.131 362.551 717.933 363.932 718.404C370.737 720.719 375.332 721.926 378.77 728.918C380.919 733.29 381.615 738.411 379.956 743.064C378.013 748.519 373.107 752.466 367.986 754.813C363.785 756.738 359.203 757.738 355.003 759.699C354.519 760.61 353.839 761.654 354.137 762.72C354.485 763.967 355.185 765.319 356.395 765.914C358.576 766.985 361.685 765.937 363.783 765.091C367.401 763.634 370.873 761.681 374.322 759.869C380.564 755.276 384.18 749.995 387.826 743.275C396.931 748.006 407.22 752.276 417.716 751.744C420.541 751.6 423.394 750.024 426.204 750.876C427.239 751.887 427.452 753.221 427.82 754.575C428.417 763.755 427.485 771.003 422.212 778.861C411.986 781.607 401.026 782.028 390.513 782.835C342.278 786.539 301.416 781.146 256.346 763.46C248.001 760.186 239.354 757.148 231.439 752.925C235.559 747.533 239.391 741.929 243.268 736.361C259.933 711.857 273.134 672.821 275.297 643.763C278.086 606.307 266.442 561.703 241.711 532.93C249.989 530.712 258.024 527.594 266.282 525.286C288.641 518.967 311.768 515.776 335.003 515.805Z" fill="#13A3D5"/>
<path d="M231.439 752.925C235.559 747.533 239.391 741.929 243.268 736.361C261.132 747.725 283.202 752.2 303.653 756.611C302.169 758.538 301.411 759.939 301.824 762.44C301.99 763.439 302.248 763.989 303.022 764.635C304.334 765.032 305.236 764.781 306.436 764.134C308.968 762.77 310.753 760.225 312.536 758.035C318.916 759.892 326.51 759.312 333.114 759.347C340.414 759.385 347.708 759.371 355.003 759.699C354.519 760.61 353.839 761.654 354.137 762.72C354.485 763.967 355.185 765.32 356.395 765.914C358.576 766.985 361.685 765.937 363.783 765.091C367.401 763.634 370.873 761.681 374.322 759.869C380.564 755.276 384.18 749.995 387.826 743.275C396.931 748.006 407.22 752.276 417.716 751.744C420.541 751.601 423.394 750.024 426.204 750.876C427.239 751.887 427.452 753.221 427.82 754.575C428.417 763.755 427.485 771.003 422.212 778.861C411.986 781.607 401.026 782.028 390.513 782.835C342.278 786.54 301.416 781.146 256.346 763.46C248.001 760.186 239.354 757.148 231.439 752.925Z" fill="#007BB1"/>
<path d="M387.826 743.275C396.931 748.006 407.22 752.276 417.715 751.744C420.541 751.601 423.394 750.024 426.203 750.876C427.238 751.887 427.451 753.221 427.82 754.575C420.159 756.012 378.881 762.862 374.321 759.869C380.564 755.276 384.18 749.995 387.826 743.275Z" fill="#13A3D5"/>
<path d="M303.653 756.611C307.307 752.863 311.694 747.844 311.481 742.243C311.407 740.309 310.633 738.627 309.199 737.331C306.901 735.254 302.244 734.889 301.112 731.863C301.249 730.896 301.536 730.318 302.08 729.514C304.465 728.093 308.767 728.778 311.539 728.425C320.887 727.235 327.598 717.945 329.797 709.425C331.484 702.886 330.808 695.556 327.279 689.726C326.007 687.602 324.361 685.724 322.421 684.187C319.979 682.278 311.906 678.996 312.885 675.791C313.197 674.767 314.312 673.275 315.338 672.877C317.873 671.895 321.71 674.214 324.385 674.282C334.286 674.532 346.611 665.99 351.188 657.472C354.562 651.195 355.191 643.524 353.087 636.722C351.761 632.437 349.137 628.762 345.106 626.662C342.907 625.524 340.481 624.895 338.006 624.821C334.459 624.704 325.546 627.072 324.097 622.7C324.174 621.33 324.874 620.528 325.852 619.648C329.035 616.785 333.357 615.755 337.033 613.705C346.76 608.282 356.065 596.923 356.825 585.544C357.169 580.39 355.472 574.337 352.007 570.417C349.698 567.804 345.258 566.233 345.53 562.246C345.587 561.404 345.823 560.843 346.29 560.155C347.17 559.62 347.538 559.367 348.619 559.615C353.136 560.652 359.181 568.115 361.334 572.187C364.958 579.038 364.703 587.653 362.356 594.836C359.288 604.229 353.108 612.193 345.169 617.973C352.291 621.656 357.297 626.102 359.834 633.962C362.586 642.487 361.547 652.422 357.447 660.346C352.183 670.52 342.504 676.836 331.851 680.144C330.987 680.414 330.117 680.66 329.241 680.881C335.296 689.576 338.577 698.476 336.612 709.208C334.183 722.475 327.024 727.692 317.491 735.577C318.92 744.519 317.531 750.437 312.536 758.034C310.753 760.225 308.968 762.77 306.436 764.134C305.236 764.781 304.334 765.032 303.022 764.635C302.248 763.989 301.99 763.439 301.824 762.44C301.411 759.939 302.169 758.538 303.653 756.611Z" fill="black"/>
<path d="M335.003 515.805C335.494 515.453 336.111 514.929 336.674 514.715C337.768 514.3 338.568 514.898 339.529 515.345C345.773 524.633 349.724 534.502 347.514 545.952C345.618 555.451 340.047 563.818 332.014 569.229C329.025 571.252 323.777 574.836 320.066 574.171C319.634 574.093 319.274 573.718 318.924 573.457C318.441 572.616 318.134 571.752 318.34 570.765C318.542 569.796 318.985 569.14 319.83 568.631C321.272 567.763 322.88 567.187 324.33 566.287C331.573 561.789 336.782 555.309 339.319 547.137C341.892 538.85 340.496 532.05 337.492 524.214C336.438 521.466 335.358 518.751 335.003 515.805Z" fill="black"/>
<path d="M223.728 526.042C227.657 528.343 230.468 531.558 233.278 535.064C237.642 540.248 242.59 545.13 246.266 550.841C262.45 575.979 270.723 615.544 268.209 645.16C267.63 651.972 266.236 658.686 264.768 665.354C259.499 689.294 250.997 712.163 237.112 732.497C233.463 738.106 229.957 744.766 224.171 748.401C222.048 747.68 220.009 746.839 218.042 745.756C214.183 743.63 210.514 741.136 206.702 738.922C182.941 725.121 134.223 696.397 126.544 669.531C125.825 667.015 124.655 662.977 126.018 660.538C132.63 659.296 139.236 660.765 145.896 659.229C151.153 658.016 160.265 655.214 163.055 650.392C163.646 649.372 163.947 648.142 163.607 646.986C163.305 645.96 162.872 645.047 161.903 644.545C158.178 644.862 153.607 648.748 150.25 650.519C143.039 654.322 134.216 654.293 126.537 651.856C119.278 649.552 113.025 644.94 109.491 638.095C106.096 631.519 106.145 624.969 108.319 618.04C108.725 616.728 109.211 615.413 109.779 614.163C120.092 591.458 166.75 556.311 188.669 543.12C199.781 536.317 211.522 530.598 223.728 526.042Z" fill="#FEC61E"/>
<path d="M224.171 748.401C222.048 747.68 220.009 746.839 218.043 745.756C214.183 743.63 210.515 741.136 206.702 738.922C182.941 725.121 134.224 696.397 126.544 669.531C125.825 667.015 124.655 662.977 126.018 660.538C130.598 666.938 134.499 673.849 140.275 679.286C159.24 697.138 185.17 707.265 208.3 718.497C217.889 723.155 227.248 728.44 237.112 732.497C233.463 738.106 229.957 744.766 224.171 748.401Z" fill="#FEA300"/>
<path d="M223.728 526.042C227.657 528.343 230.468 531.558 233.278 535.064C228.201 537.89 222.668 539.968 217.334 542.266C210.139 545.347 203.054 548.68 196.093 552.259C172.977 564.349 152.344 580.835 132.228 597.296C128.185 600.604 123.739 603.839 119.992 607.464C116.873 610.481 114.21 614.081 110.88 616.863C110.111 617.505 109.36 618.039 108.319 618.04C108.725 616.728 109.211 615.413 109.779 614.163C120.092 591.458 166.75 556.311 188.669 543.12C199.781 536.317 211.522 530.598 223.728 526.042Z" fill="#FFE053"/>
<path d="M194.249 576.757C209.703 575.51 223.23 587.058 224.427 602.52C225.625 617.982 214.037 631.476 198.575 632.624C183.182 633.768 169.765 622.241 168.573 606.848C167.381 591.455 178.863 577.998 194.249 576.757Z" fill="black"/>
<path d="M194.55 583.811C205.84 582.909 215.748 591.276 216.749 602.561C217.75 613.845 209.472 623.827 198.199 624.929C186.786 626.043 176.654 617.636 175.64 606.211C174.626 594.786 183.12 584.725 194.55 583.811Z" fill="#464FBC"/>
<path d="M188.769 589.617C190.387 589.544 192.137 589.441 193.716 589.864C195.911 590.451 198.033 591.909 199.133 593.92C199.993 595.461 200.196 597.284 199.697 598.977C198.813 601.95 196.546 603.442 193.984 604.869C192.237 605.413 190.158 605.555 188.388 605.04C186.435 604.483 184.798 603.147 183.861 601.345C182.883 599.471 182.731 597.203 183.366 595.197C184.289 592.284 186.174 590.938 188.769 589.617Z" fill="white"/>
<path d="M617.482 568.346C632.478 564.049 646.862 558.886 659.368 549.321C677.916 535.134 688.082 515.83 690.869 492.756C691.719 485.738 691.525 478.621 692.484 471.616C693.16 466.649 694.581 460.503 698.859 457.349C700.806 455.913 703.166 455.482 705.522 455.874C713.337 457.174 719.593 464.685 723.891 470.88C742.92 498.313 744.645 531.988 738.911 563.882C734.275 582.693 723.195 596.91 709.427 610.074C708.19 611.258 706.943 612.406 705.566 613.429C703.614 614.88 693.721 620.628 695.882 623.708C696.091 624.003 696.444 624.256 696.727 624.48L696.856 624.839C718.162 641.096 733.639 663.046 737.301 690.056C739.825 708.661 736.536 727.041 730.966 744.789C730.106 747.637 729.157 750.372 728.01 753.119C724.02 763.496 716.9 775.471 706.873 780.948C703.609 782.733 699.629 783.854 695.957 782.734C682.785 778.717 681.508 750.315 678.919 738.894C676.962 730.237 674.294 721.393 670.011 713.577C663.353 701.55 652.834 692.117 640.159 686.797C634.385 684.41 628.229 682.84 622.242 681.085C625.984 675.778 630.525 670.903 634.614 665.852C645.212 649.682 648.641 632.73 645.649 613.626C642.663 594.548 632.955 579.659 617.482 568.346Z" fill="#FE504E"/>
<path d="M622.241 681.085C625.983 675.778 630.524 670.903 634.613 665.852L634.822 671.019C640.283 676.85 647.457 679.665 654.294 683.503C666.587 690.409 677.831 704.471 684.335 716.785C692.404 732.055 693.368 746.813 705.243 761.531C706.604 763.216 709.217 766.15 711.538 766.363C714.39 766.624 717.361 763.997 719.279 762.183C721.56 760.026 724.282 757.169 725.703 754.361L728.009 753.119C724.019 763.496 716.899 775.471 706.872 780.948C703.608 782.733 699.628 783.854 695.956 782.734C682.784 778.717 681.507 750.315 678.919 738.894C676.961 730.237 674.293 721.393 670.01 713.577C663.352 701.55 652.833 692.117 640.158 686.797C634.385 684.41 628.229 682.84 622.241 681.085Z" fill="#DB3433"/>
<path d="M738.911 563.882C734.275 582.693 723.195 596.91 709.427 610.074C708.19 611.258 706.942 612.406 705.566 613.429C703.613 614.879 693.721 620.628 695.882 623.708C696.091 624.003 696.444 624.256 696.727 624.48C693.11 624.499 689.542 626.193 686.044 627.008C684.579 626.71 682.909 626.272 681.776 625.239C681.041 624.57 680.698 623.803 680.728 622.806C680.792 620.643 682.616 618.51 683.997 616.975C687.838 612.709 692.479 609.077 696.95 605.507C706.088 598.215 716.124 591.168 724.372 582.877C730.151 577.071 733.366 569.302 738.911 563.882Z" fill="#DB3433"/>
<path d="M725.704 754.361C726.33 752.587 726.782 750.75 727.438 748.983C728.178 746.979 728.968 745.71 730.966 744.789C730.106 747.637 729.157 750.372 728.01 753.119L725.704 754.361Z" fill="#EB413F"/>
<path d="M686.044 627.008C689.542 626.193 693.109 624.499 696.726 624.48L696.855 624.839C692.861 626.888 690.665 628.195 686.044 627.008Z" fill="#EB413F"/>
<path d="M715.304 493.285C715.856 493.357 716.407 493.425 716.949 493.551C717.804 493.749 718.489 494.209 718.907 494.998C720.372 497.795 717.714 503.93 716.795 506.702C707.424 534.983 687.584 562.029 660.654 575.547C659.914 575.681 659.348 575.589 658.617 575.459C657.822 574.827 657.216 574.249 657.062 573.195C656.804 571.429 658.403 569.691 659.601 568.576C663.049 565.365 667.998 563.15 671.923 560.497C676.832 557.177 681.279 552.552 685.314 548.238C695.46 537.403 703.817 523.4 709.138 509.58C711.245 504.12 711.941 498.203 715.304 493.285Z" fill="#DB3433"/>
<path d="M659.934 664.81C670.472 666.817 681.289 675.225 688.568 682.744C699.887 694.438 708.04 709.504 713.247 724.828C714.4 728.215 715.861 731.891 715.761 735.518C715.697 737.856 714.951 738.948 713.317 740.506C711.682 739.552 710.41 738.592 709.069 737.251C705.476 715.8 693.765 692.84 675.495 680.287C670.542 676.886 662.502 674.251 658.513 670.327C657.832 669.657 657.598 669.264 657.598 668.314C657.603 666.897 659.01 665.756 659.934 664.81Z" fill="#DB3433"/>
<path d="M724.372 535.838C724.954 535.876 725.495 535.993 726.052 536.154C727.065 536.449 727.92 536.892 728.392 537.886C728.899 538.955 728.69 540.321 728.278 541.383C726.807 545.157 723.706 549.133 721.436 552.558C707.459 573.654 688.792 588.052 665.434 597.472C664.46 597.373 663.685 597.102 662.905 596.496C662.12 595.89 661.33 595.114 661.256 594.07C661.166 592.743 662.488 591.814 663.477 591.136C666.085 589.347 669.394 588.294 672.266 586.977C677.419 584.614 682.402 581.98 687.078 578.768C697.527 571.594 708.184 561.867 714.932 551.025C717.983 546.119 720.238 540.574 724.064 536.192L724.372 535.838Z" fill="#DB3433"/>
<path d="M672.221 642.922C675.977 643.183 679.55 645.013 682.844 646.729C698.038 654.602 710.827 666.422 719.875 680.948C721.724 683.866 723.945 687.166 724.943 690.486C725.326 691.758 725.624 693.347 724.879 694.545C724.188 695.659 722.881 695.976 721.684 696.204C717.803 692.542 716.621 687.807 713.868 683.445C709.555 676.61 703.772 670.408 697.695 665.116C692.26 660.381 686.183 656.198 679.624 653.172C676.33 651.65 669.995 650.879 667.7 648.277C667.446 647.441 667.307 646.99 667.695 646.128C668.529 644.264 670.422 643.512 672.221 642.922Z" fill="#DB3433"/>
<path d="M504.859 540.943C514.03 544.019 522.97 548.032 532.046 551.408C544.602 556.084 557.406 560.067 570.399 563.341C575.696 564.714 581.077 566.07 586.478 566.975C594.427 568.309 601.91 568.041 609.289 571.881C619.882 577.395 627.712 586.509 632.994 597.091C638.822 608.767 640.179 620.337 639.607 633.241C636.909 654.418 626.922 667.597 611.534 681.834C604.449 688.326 597.086 694.515 589.474 700.385C580.341 707.391 571.05 714.188 561.609 720.77C552.789 727.027 543.967 733.341 534.62 738.798C524.222 744.869 513.436 750.038 502.393 754.818C495.463 757.817 488.445 760.949 481.137 762.904C484.591 755.296 487.965 747.792 490.316 739.752C490.907 737.842 491.138 735.867 491.417 733.894C495.012 730.7 500.04 726.838 502.119 722.418C503.432 719.625 503.903 715.215 505.898 712.875C508.275 710.087 517.872 711.695 521.549 711.081C533.683 709.054 547.281 702.214 554.373 691.901C558.233 686.287 559.703 679.623 558.445 672.909C556.755 663.886 550.455 658.171 543.263 653.211C549.108 647.369 555.887 642.927 559.101 634.95C561.34 629.54 561.324 623.461 559.058 618.062C555.256 609.174 546.992 604.691 538.495 601.221C539.273 599.993 540.038 598.758 540.789 597.515C546.883 587.394 548.577 577.334 545.719 565.829C546.494 565.658 547.048 565.473 547.749 565.101C546.916 562.277 528.606 552.232 525.16 550.643C519.286 547.934 509.265 545.515 504.859 540.943Z" fill="#13A3D5"/>
<path d="M591.322 683.612C598.02 680.971 625.75 652.944 630.743 646.796C634.206 642.53 636.929 638.03 639.607 633.241C636.909 654.418 626.922 667.597 611.534 681.834C604.449 688.326 597.086 694.515 589.474 700.385C580.341 707.391 571.05 714.188 561.609 720.77C552.789 727.027 543.967 733.341 534.62 738.798C524.222 744.869 513.436 750.038 502.393 754.818C495.463 757.817 488.445 760.949 481.137 762.904C484.591 755.296 487.965 747.792 490.316 739.752C496.249 738.532 501.658 735.705 507.182 733.318C529.193 723.805 549.632 712.617 569.236 698.79C573.137 696.04 577.857 693.302 580.759 689.469C582.1 690.785 583.775 691.477 585.454 692.273C588.073 689.59 589.697 686.943 591.322 683.612Z" fill="#007BB1"/>
<path d="M587.894 610.783C585.489 612.855 582.806 616.26 579.661 617.047C578.707 617.285 577.773 617.183 576.963 616.597C576.014 615.908 575.328 614.663 575.199 613.508C576.685 609.559 582.259 606.016 585.206 602.965C590.647 597.333 590.428 589.967 590.353 582.76C590.339 581.319 590.209 579.961 591.412 578.959C592.276 578.24 592.902 578.247 593.951 578.252C595.272 578.867 595.953 579.703 596.465 581.069C599.282 588.55 595.993 597.717 593.012 604.627C599.53 606.453 604.713 609.692 608.072 615.733C611.232 621.415 611.873 628.463 610.034 634.678C606.69 646.017 597.881 653.249 587.894 658.595C588.321 659.294 588.734 659.998 589.136 660.707C593.414 668.156 593.503 675.487 591.322 683.612C589.698 686.943 588.073 689.59 585.454 692.273C583.775 691.476 582.1 690.785 580.759 689.469C583.76 683.481 587.188 676.252 585.738 669.41C583.656 659.562 575.626 660.614 569.793 656.319C568.934 655.687 568.814 655.373 568.65 654.354C570.345 649.306 578.458 652.345 582.463 652.05C585.216 651.847 587.963 650.761 590.348 649.409C596.485 645.928 601.622 639.482 603.441 632.644C604.628 628.176 604.251 623.539 601.871 619.525C598.676 614.13 593.643 612.259 587.894 610.783Z" fill="black"/>
<path d="M232.268 522.832C245.382 517.02 259.007 511.737 272.922 508.198C328.897 493.962 398.317 497.908 452.324 518.758C464.293 523.47 476.188 528.369 488.004 533.451C493.373 535.706 500.077 537.709 504.859 540.943C509.265 545.515 519.286 547.935 525.16 550.643C528.606 552.232 546.916 562.278 547.749 565.101C547.048 565.473 546.495 565.658 545.719 565.829C545.597 565.538 545.473 565.247 545.326 564.968C544.929 564.213 544.268 563.387 543.396 563.188C542.023 562.876 540.824 563.643 539.677 564.28C537.335 567.349 540.379 574.593 540.433 578.405C540.516 584.291 538.142 591.212 533.923 595.406C531.262 598.052 527.598 599.257 524.035 600.151C508.259 604.112 512.103 596.418 500.236 592.034C492.941 589.339 485.251 589.394 477.592 589.353C486.7 576.03 492.165 562.799 490.619 546.388C490.004 545.585 489.364 544.723 488.39 544.341C487.291 543.91 486.317 544.363 485.295 544.786C482.547 548.496 484.075 553.682 483.496 557.987C482.993 561.727 481.807 565.507 480.408 569.004C475.258 581.868 465.563 592.792 452.728 598.296C439.851 591.848 427.836 591.51 413.723 592.386C417.171 586.303 420.333 580.485 420.745 573.326C421.244 564.639 417.954 556.185 412.109 549.799C407.081 544.305 401.372 541.484 393.96 541.156C393.682 532.783 392.727 525.393 390.021 517.439C389.796 517.09 389.571 516.736 389.323 516.404C388.744 515.631 388.083 515.199 387.127 515.12C385.731 515.005 384.565 516.147 383.542 516.956C368.805 516.033 354.318 514.926 339.529 515.345C338.568 514.898 337.768 514.3 336.674 514.715C336.111 514.929 335.494 515.454 335.003 515.805C311.768 515.776 288.642 518.967 266.282 525.286C258.024 527.594 249.989 530.712 241.711 532.93C238.56 529.57 235.358 526.247 232.268 522.832Z" fill="#59C2E6"/>
<path d="M390.021 517.439C396.506 518.908 403.089 519.963 409.599 521.328C421.034 523.681 432.342 526.614 443.479 530.117C452.253 532.902 460.785 536.292 469.401 539.523C474.477 541.428 479.99 543.753 485.295 544.786C482.547 548.496 484.075 553.682 483.496 557.987C482.993 561.727 481.807 565.507 480.408 569.004C475.258 581.868 465.563 592.792 452.728 598.296C439.851 591.848 427.836 591.51 413.723 592.386C417.171 586.303 420.333 580.485 420.745 573.326C421.243 564.639 417.954 556.185 412.109 549.799C407.081 544.305 401.372 541.484 393.96 541.156C393.682 532.783 392.727 525.393 390.021 517.439Z" fill="#13A3D5"/>
<path d="M490.619 546.388C493.843 547.95 497.229 549.178 500.515 550.605C511.709 555.465 527.722 562.503 539.677 564.28C537.335 567.349 540.379 574.593 540.433 578.405C540.516 584.291 538.142 591.212 533.923 595.406C531.262 598.052 527.598 599.257 524.035 600.151C508.259 604.112 512.103 596.418 500.236 592.034C492.941 589.339 485.251 589.394 477.592 589.353C486.7 576.03 492.166 562.799 490.619 546.388Z" fill="#13A3D5"/>
<path d="M391.847 435.804C393.705 435.692 395.861 435.551 397.394 436.824C398.644 437.862 399.018 439.37 399.091 440.929C399.353 446.55 392.335 460.731 395.706 463.836C396.486 464.555 397.702 465.034 398.651 465.505C406.658 463.001 429.909 454.68 437.242 458.755C438.53 459.471 439.493 460.664 439.857 462.096C441.078 466.891 437.395 472.431 435.045 476.369L437.537 479.212C440.008 479.893 442.222 480.265 444.793 480.065C451.932 479.508 470.694 472.013 475.587 479.889C476.564 481.462 476.388 483.33 475.92 485.036C474.821 489.032 468.056 497.957 469.975 501.455C471.789 503.184 474.059 503.425 476.46 503.36C485.645 503.112 496.142 499.253 504.097 505.822C500.914 513.875 496.573 520.334 491.058 526.973C483.94 524.42 477.173 521.022 470.246 518.007C462.208 514.573 454.043 511.442 445.769 508.622C397.773 492.332 339.406 488.176 289.729 497.84C297.44 484.698 308.875 475.196 321.192 466.511C324.853 463.929 328.756 461.015 332.907 459.279C335.469 456.975 339.314 455.221 342.336 453.598C357.642 445.377 374.53 438.138 391.847 435.804Z" fill="#FE504E"/>
<path d="M332.907 459.279C335.468 456.975 339.314 455.221 342.336 453.598C357.642 445.377 374.53 438.138 391.847 435.804L393.035 436.327C393.159 436.928 393.317 436.99 392.948 437.543C390.546 441.144 364.479 451.745 358.574 454.545C354.349 456.599 350.184 458.774 346.084 461.067C333.859 467.884 321.972 475.539 310.451 483.479C304.514 487.572 298.761 492.208 292.644 496C299.248 482.806 313.004 473.644 324.794 465.411C327.469 463.543 331.023 462.006 332.907 459.279Z" fill="#FE807E"/>
<path d="M422.56 599.097C429.271 598.196 438.233 600.067 444.375 602.833C449.565 605.169 454.002 608.795 456.008 614.267C457.615 618.656 457.39 623.506 455.384 627.726C450.311 638.382 441.012 640.141 431.22 643.682C430.052 644.105 427.445 645.264 426.962 646.466C426.675 647.183 426.866 648.259 427.222 648.921C428.949 652.137 437.218 651.148 440.621 652.369C446.202 654.372 452.144 658.564 454.656 664.093C456.149 667.379 456.473 671.191 455.151 674.589C451.718 683.42 441.675 689.698 432.829 692.278C429.823 693.155 426.455 693.3 423.592 694.571C422.35 695.122 421.271 695.804 420.763 697.121C420.873 699.72 431.727 703.188 434.07 704.636C437.137 706.533 439.809 709.034 441.716 712.107C444.535 716.689 445.393 722.213 444.096 727.434C442.711 732.785 437.187 737.519 432.639 740.18C430.407 741.403 427.959 742.324 425.501 742.966C412.194 746.44 399.386 742.506 387.879 735.779C387.438 728.269 384.255 724.114 379.324 718.797C388.946 714.66 399.147 709.157 405.005 700.112C408.796 694.259 410.314 687.118 408.833 680.266C406.937 671.497 400.879 666.74 393.764 662.088C400.971 658.378 407.772 652.818 412.268 646.042C416.544 639.597 418.988 632.069 417.344 624.342C415.472 615.534 409.401 610.249 402.154 605.623C408.015 601.005 415.339 599.734 422.56 599.097Z" fill="#FE504E"/>
<path d="M479.476 597.215C479.647 597.187 479.818 597.155 479.991 597.136C487.843 596.284 498.085 598.068 504.226 603.244C506.501 605.161 507.931 607.62 508.118 610.62C508.619 618.661 501.237 627.402 495.457 632.455C492.054 635.428 488.307 637.847 485.316 641.285C485.152 642.171 485.284 642.546 485.676 643.347C487.827 645.558 492.1 645.85 494.982 646.65C499.265 647.838 502.938 650.629 505.101 654.558C506.71 657.482 506.967 660.788 505.998 663.964C503.843 671.024 494.142 678.837 486.995 680.502C483.932 681.215 480.019 681.044 477.276 682.657C476.263 683.252 475.415 684.192 475.189 685.375C475.148 685.587 475.018 686.628 475.119 686.805C476 688.339 490.412 691.841 495.423 700.6C497.831 704.81 499.1 709.793 497.743 714.557C495.925 720.94 490.479 724.262 485.021 727.247C482.114 728.299 479.216 729.024 476.159 729.471C470.866 730.245 457.662 731.171 453.471 727.74C450.383 725.211 452.097 720.261 451.631 716.834C450.489 708.442 443.081 702.879 436.823 698.103C445.863 693.964 456.143 688.544 460.749 679.241C463.266 674.156 463.725 668.391 461.826 663.023C458.904 654.763 452.115 650.41 444.58 646.836C452.391 642.187 460.265 636.626 463.042 627.474C465.468 619.474 463.365 612.103 459.563 604.984C465.501 600.52 472.138 598.093 479.476 597.215Z" fill="#FEC61E"/>
<path d="M305.248 786.32C311.684 787.088 318.006 788.667 324.449 789.444C343.604 791.69 362.917 792.288 382.175 791.235C397.018 790.294 411.793 788.471 426.42 785.777C430.214 785.04 443.019 781.811 446.464 782.763C446.987 782.908 447.588 783.522 447.896 783.944C450.382 787.358 449.088 794.117 448.306 797.882C447.006 802.872 445.406 808.002 440.705 810.821C436.427 813.387 429.2 811.601 427.096 813.13C426.015 813.915 425.146 817.1 424.687 818.394C418.651 835.386 414.741 852.723 392.09 846.767C368.416 840.541 337.545 816.14 319.206 799.51C313.981 795.77 309.694 790.924 305.248 786.32Z" fill="#FE504E"/>
<path d="M305.248 786.32C311.684 787.088 318.006 788.667 324.449 789.444C343.604 791.69 362.917 792.288 382.175 791.235C397.018 790.294 411.793 788.471 426.42 785.777C430.214 785.04 443.019 781.811 446.464 782.763C446.987 782.908 447.588 783.522 447.896 783.944C450.382 787.358 449.088 794.117 448.306 797.882L447.968 796.972C444.301 796.682 438.271 798.775 434.437 799.385C427.736 800.451 420.941 801.161 414.195 801.883C393.271 804.12 372.431 803.927 351.467 802.4C346.159 802.014 340.747 801.739 335.472 801.049C331.148 800.483 326.795 799.412 322.447 799.127C321.311 799.053 320.255 798.984 319.206 799.51C313.981 795.77 309.694 790.924 305.248 786.32Z" fill="#DB3433"/>
<path d="M525.413 606.557C530.815 605.588 537.822 608.266 542.452 611.012C546.696 613.529 551.507 617.392 552.763 622.421C558.416 645.054 529.771 646.738 527.343 651.496C527.021 652.128 527 653.049 527.255 653.716C528.52 657.029 536.508 657.719 539.593 659.015C544.093 660.906 548.795 666.189 550.566 670.722C552.309 675.183 551.885 680.078 549.948 684.402C545.734 693.813 536.321 698.851 527.156 702.327C519.718 704.654 512.824 704.271 505.195 703.571C501.686 695.992 498.298 690.797 491.236 686.077C500.004 681.871 508.269 676.343 512.146 666.989C514.059 662.374 514.475 656.925 512.518 652.253C509.883 645.964 504.209 642.749 498.215 640.279C503.983 634.634 510.788 626.518 513.044 618.603C513.897 615.613 513.63 612.286 514.705 609.377C517.527 606.655 521.737 606.813 525.413 606.557Z" fill="#FEC61E"/>
<path d="M450.279 733.771C462.001 737.599 472.264 737.735 484.341 735.642L482.639 742.457C479.897 749.063 476.099 761.037 470.985 765.931C469.479 767.372 467.441 768.328 465.538 769.116C455.111 773.432 442.494 776.575 431.257 777.697C435.08 769.758 435.753 762.486 435.441 753.842L434.277 747.879C440.498 743.823 444.678 738.453 450.279 733.771Z" fill="#007BB1"/>
<path d="M450.279 733.771C462.001 737.599 472.263 737.735 484.341 735.642L482.639 742.457C475.567 744.798 468.393 746.814 461.137 748.498C452.599 750.398 443.94 751.774 435.441 753.842L434.277 747.879C440.497 743.823 444.678 738.453 450.279 733.771Z" fill="#13A3D5"/>
</svg>
