<svg width="849" height="1183" viewBox="0 0 849 1183" fill="none" xmlns="http://www.w3.org/2000/svg">
<rect x="5" y="5" width="839" height="1173" rx="45" fill="white"/>
<rect x="5" y="5" width="839" height="1173" rx="45" stroke="black" stroke-width="10"/>
<circle cx="786.5" cy="1124.5" r="11.5" fill="black"/>
<circle cx="786.5" cy="59.5" r="11.5" fill="black"/>
<path d="M77 1124.5C77 1130.85 71.8513 1136 65.5 1136C59.1487 1136 54 1130.85 54 1124.5C54 1118.15 59.1487 1113 65.5 1113C71.8513 1113 77 1118.15 77 1124.5Z" fill="black"/>
<path d="M77 59.5C77 65.8513 71.8513 71 65.5 71C59.1487 71 54 65.8513 54 59.5C54 53.1487 59.1487 48 65.5 48C71.8513 48 77 53.1487 77 59.5Z" fill="black"/>
<mask id="path-6-inside-1_1_2017" fill="white">
<path d="M708 48C713.523 48 717.934 52.4996 718.616 57.9801C723.122 94.1833 751.817 122.878 788.02 127.384C793.5 128.066 798 132.477 798 138V1046C798 1051.52 793.5 1055.93 788.02 1056.62C751.817 1061.12 723.122 1089.82 718.616 1126.02C717.934 1131.5 713.523 1136 708 1136H141C135.477 1136 131.066 1131.5 130.384 1126.02C125.878 1089.82 97.1833 1061.12 60.9801 1056.62C55.4996 1055.93 51 1051.52 51 1046V138C51 132.477 55.4996 128.066 60.9801 127.384C97.1833 122.878 125.878 94.1833 130.384 57.9801C131.066 52.4996 135.477 48 141 48H708Z"/>
</mask>
<path d="M708 48C713.523 48 717.934 52.4996 718.616 57.9801C723.122 94.1833 751.817 122.878 788.02 127.384C793.5 128.066 798 132.477 798 138V1046C798 1051.52 793.5 1055.93 788.02 1056.62C751.817 1061.12 723.122 1089.82 718.616 1126.02C717.934 1131.5 713.523 1136 708 1136H141C135.477 1136 131.066 1131.5 130.384 1126.02C125.878 1089.82 97.1833 1061.12 60.9801 1056.62C55.4996 1055.93 51 1051.52 51 1046V138C51 132.477 55.4996 128.066 60.9801 127.384C97.1833 122.878 125.878 94.1833 130.384 57.9801C131.066 52.4996 135.477 48 141 48H708Z" fill="#C357B5"/>
<path d="M130.384 1126.02L138.322 1125.03L130.384 1126.02ZM718.616 1126.02L710.678 1125.03L718.616 1126.02ZM788.02 1056.62L789.008 1064.56L788.02 1056.62ZM718.616 57.9801L726.555 56.9922L718.616 57.9801ZM718.616 57.9801L710.678 58.9681C715.635 98.8063 747.194 130.365 787.032 135.322L788.02 127.384L789.008 119.445C756.44 115.392 730.608 89.5603 726.555 56.9922L718.616 57.9801ZM798 138H790V1046H798H806V138H798ZM788.02 1056.62L787.032 1048.68C747.194 1053.64 715.635 1085.19 710.678 1125.03L718.616 1126.02L726.555 1127.01C730.608 1094.44 756.44 1068.61 789.008 1064.56L788.02 1056.62ZM708 1136V1128H141V1136V1144H708V1136ZM130.384 1126.02L138.322 1125.03C133.365 1085.19 101.806 1053.64 61.9681 1048.68L60.9801 1056.62L59.9922 1064.56C92.5603 1068.61 118.392 1094.44 122.445 1127.01L130.384 1126.02ZM51 1046H59V138H51H43V1046H51ZM60.9801 127.384L61.9681 135.322C101.806 130.365 133.365 98.8063 138.322 58.9681L130.384 57.9801L122.445 56.9922C118.392 89.5603 92.5603 115.392 59.9922 119.445L60.9801 127.384ZM141 48V56H708V48V40H141V48ZM130.384 57.9801L138.322 58.9681C138.438 58.0389 138.872 57.2306 139.427 56.6958C139.954 56.1887 140.494 56 141 56V48V40C130.84 40 123.547 48.1329 122.445 56.9922L130.384 57.9801ZM51 138H59C59 137.494 59.1887 136.954 59.6958 136.427C60.2306 135.872 61.0389 135.438 61.9681 135.322L60.9801 127.384L59.9922 119.445C51.1329 120.547 43 127.84 43 138H51ZM60.9801 1056.62L61.9681 1048.68C61.0389 1048.56 60.2306 1048.13 59.6958 1047.57C59.1887 1047.05 59 1046.51 59 1046H51H43C43 1056.16 51.1329 1063.45 59.9922 1064.56L60.9801 1056.62ZM141 1136V1128C140.494 1128 139.954 1127.81 139.427 1127.3C138.872 1126.77 138.438 1125.96 138.322 1125.03L130.384 1126.02L122.445 1127.01C123.547 1135.87 130.84 1144 141 1144V1136ZM718.616 1126.02L710.678 1125.03C710.562 1125.96 710.128 1126.77 709.573 1127.3C709.046 1127.81 708.506 1128 708 1128V1136V1144C718.16 1144 725.453 1135.87 726.555 1127.01L718.616 1126.02ZM798 1046H790C790 1046.51 789.811 1047.05 789.304 1047.57C788.769 1048.13 787.961 1048.56 787.032 1048.68L788.02 1056.62L789.008 1064.56C797.867 1063.45 806 1056.16 806 1046H798ZM788.02 127.384L787.032 135.322C787.961 135.438 788.769 135.872 789.304 136.427C789.811 136.954 790 137.494 790 138H798H806C806 127.84 797.867 120.547 789.008 119.445L788.02 127.384ZM718.616 57.9801L726.555 56.9922C725.453 48.1329 718.16 40 708 40V48V56C708.506 56 709.046 56.1887 709.573 56.6958C710.128 57.2306 710.562 58.0389 710.678 58.9681L718.616 57.9801Z" fill="black" mask="url(#path-6-inside-1_1_2017)"/>
<path d="M690 102C695.523 102 699.911 106.512 700.837 111.957C705.019 136.563 724.437 155.981 749.043 160.163C754.488 161.089 759 165.477 759 171V1014C759 1019.52 754.488 1023.91 749.043 1024.84C724.711 1028.97 705.454 1048 700.984 1072.22C699.993 1077.59 695.633 1082 690.175 1082H158.825C153.367 1082 149.007 1077.59 148.016 1072.22C143.546 1048 124.288 1028.97 99.9568 1024.84C94.5121 1023.91 90 1019.52 90 1014V171C90 165.477 94.512 161.089 99.9568 160.163C124.563 155.981 143.981 136.563 148.163 111.957C149.089 106.512 153.477 102 159 102H690Z" fill="#D78BCD"/>
<mask id="path-9-outside-2_1_2017" maskUnits="userSpaceOnUse" x="407" y="1006" width="46" height="32" fill="black">
<rect fill="white" x="407" y="1006" width="46" height="32"/>
<path d="M410.92 1030.8C413.48 1028.59 415.493 1026.77 416.96 1025.36C418.453 1023.92 419.693 1022.43 420.68 1020.88C421.667 1019.33 422.16 1017.79 422.16 1016.24C422.16 1014.64 421.773 1013.39 421 1012.48C420.253 1011.57 419.067 1011.12 417.44 1011.12C415.867 1011.12 414.64 1011.63 413.76 1012.64C412.907 1013.63 412.453 1014.96 412.4 1016.64H408C408.08 1013.6 408.987 1011.28 410.72 1009.68C412.48 1008.05 414.707 1007.24 417.4 1007.24C420.307 1007.24 422.573 1008.04 424.2 1009.64C425.853 1011.24 426.68 1013.37 426.68 1016.04C426.68 1017.96 426.187 1019.81 425.2 1021.6C424.24 1023.36 423.08 1024.95 421.72 1026.36C420.387 1027.75 418.68 1029.36 416.6 1031.2L414.8 1032.8H427.48V1036.6H408.04V1033.28L410.92 1030.8ZM447.166 1014.6C446.873 1013.37 446.339 1012.45 445.566 1011.84C444.793 1011.23 443.713 1010.92 442.326 1010.92C440.219 1010.92 438.646 1011.73 437.606 1013.36C436.566 1014.96 436.019 1017.63 435.966 1021.36C436.659 1020.19 437.673 1019.28 439.006 1018.64C440.339 1018 441.779 1017.68 443.326 1017.68C445.086 1017.68 446.633 1018.07 447.966 1018.84C449.326 1019.59 450.379 1020.68 451.126 1022.12C451.899 1023.56 452.286 1025.28 452.286 1027.28C452.286 1029.15 451.913 1030.81 451.166 1032.28C450.446 1033.75 449.366 1034.91 447.926 1035.76C446.486 1036.59 444.753 1037 442.726 1037C439.979 1037 437.819 1036.4 436.246 1035.2C434.699 1033.97 433.606 1032.25 432.966 1030.04C432.353 1027.83 432.046 1025.07 432.046 1021.76C432.046 1012 435.486 1007.12 442.366 1007.12C445.033 1007.12 447.126 1007.84 448.646 1009.28C450.193 1010.72 451.099 1012.49 451.366 1014.6H447.166ZM442.326 1021.52C440.699 1021.52 439.313 1022.01 438.166 1023C437.046 1023.96 436.486 1025.36 436.486 1027.2C436.486 1029.04 437.006 1030.51 438.046 1031.6C439.113 1032.67 440.593 1033.2 442.486 1033.2C444.166 1033.2 445.486 1032.68 446.446 1031.64C447.433 1030.6 447.926 1029.21 447.926 1027.48C447.926 1025.67 447.446 1024.23 446.486 1023.16C445.553 1022.07 444.166 1021.52 442.326 1021.52Z"/>
</mask>
<path d="M410.92 1030.8C413.48 1028.59 415.493 1026.77 416.96 1025.36C418.453 1023.92 419.693 1022.43 420.68 1020.88C421.667 1019.33 422.16 1017.79 422.16 1016.24C422.16 1014.64 421.773 1013.39 421 1012.48C420.253 1011.57 419.067 1011.12 417.44 1011.12C415.867 1011.12 414.64 1011.63 413.76 1012.64C412.907 1013.63 412.453 1014.96 412.4 1016.64H408C408.08 1013.6 408.987 1011.28 410.72 1009.68C412.48 1008.05 414.707 1007.24 417.4 1007.24C420.307 1007.24 422.573 1008.04 424.2 1009.64C425.853 1011.24 426.68 1013.37 426.68 1016.04C426.68 1017.96 426.187 1019.81 425.2 1021.6C424.24 1023.36 423.08 1024.95 421.72 1026.36C420.387 1027.75 418.68 1029.36 416.6 1031.2L414.8 1032.8H427.48V1036.6H408.04V1033.28L410.92 1030.8ZM447.166 1014.6C446.873 1013.37 446.339 1012.45 445.566 1011.84C444.793 1011.23 443.713 1010.92 442.326 1010.92C440.219 1010.92 438.646 1011.73 437.606 1013.36C436.566 1014.96 436.019 1017.63 435.966 1021.36C436.659 1020.19 437.673 1019.28 439.006 1018.64C440.339 1018 441.779 1017.68 443.326 1017.68C445.086 1017.68 446.633 1018.07 447.966 1018.84C449.326 1019.59 450.379 1020.68 451.126 1022.12C451.899 1023.56 452.286 1025.28 452.286 1027.28C452.286 1029.15 451.913 1030.81 451.166 1032.28C450.446 1033.75 449.366 1034.91 447.926 1035.76C446.486 1036.59 444.753 1037 442.726 1037C439.979 1037 437.819 1036.4 436.246 1035.2C434.699 1033.97 433.606 1032.25 432.966 1030.04C432.353 1027.83 432.046 1025.07 432.046 1021.76C432.046 1012 435.486 1007.12 442.366 1007.12C445.033 1007.12 447.126 1007.84 448.646 1009.28C450.193 1010.72 451.099 1012.49 451.366 1014.6H447.166ZM442.326 1021.52C440.699 1021.52 439.313 1022.01 438.166 1023C437.046 1023.96 436.486 1025.36 436.486 1027.2C436.486 1029.04 437.006 1030.51 438.046 1031.6C439.113 1032.67 440.593 1033.2 442.486 1033.2C444.166 1033.2 445.486 1032.68 446.446 1031.64C447.433 1030.6 447.926 1029.21 447.926 1027.48C447.926 1025.67 447.446 1024.23 446.486 1023.16C445.553 1022.07 444.166 1021.52 442.326 1021.52Z" fill="black"/>
<path d="M410.92 1030.8L411.116 1031.03L411.116 1031.03L410.92 1030.8ZM416.96 1025.36L417.168 1025.58L417.168 1025.58L416.96 1025.36ZM421 1012.48L420.768 1012.67L420.772 1012.67L421 1012.48ZM413.76 1012.64L413.533 1012.44L413.533 1012.44L413.76 1012.64ZM412.4 1016.64V1016.94H412.691L412.7 1016.65L412.4 1016.64ZM408 1016.64L407.7 1016.63L407.692 1016.94H408V1016.64ZM410.72 1009.68L410.923 1009.9L410.924 1009.9L410.72 1009.68ZM424.2 1009.64L423.99 1009.85L423.991 1009.86L424.2 1009.64ZM425.2 1021.6L424.937 1021.45L424.937 1021.46L425.2 1021.6ZM421.72 1026.36L421.504 1026.15L421.504 1026.15L421.72 1026.36ZM416.6 1031.2L416.401 1030.98L416.401 1030.98L416.6 1031.2ZM414.8 1032.8L414.601 1032.58L414.011 1033.1H414.8V1032.8ZM427.48 1032.8H427.78V1032.5H427.48V1032.8ZM427.48 1036.6V1036.9H427.78V1036.6H427.48ZM408.04 1036.6H407.74V1036.9H408.04V1036.6ZM408.04 1033.28L407.844 1033.05L407.74 1033.14V1033.28H408.04ZM410.92 1030.8L411.116 1031.03C413.678 1028.81 415.696 1026.99 417.168 1025.58L416.96 1025.36L416.752 1025.14C415.291 1026.55 413.282 1028.36 410.724 1030.57L410.92 1030.8ZM416.96 1025.36L417.168 1025.58C418.676 1024.12 419.932 1022.61 420.933 1021.04L420.68 1020.88L420.427 1020.72C419.455 1022.24 418.23 1023.72 416.752 1025.14L416.96 1025.36ZM420.68 1020.88L420.933 1021.04C421.945 1019.46 422.46 1017.85 422.46 1016.24H422.16H421.86C421.86 1017.72 421.389 1019.21 420.427 1020.72L420.68 1020.88ZM422.16 1016.24H422.46C422.46 1014.59 422.062 1013.26 421.228 1012.29L421 1012.48L420.772 1012.67C421.485 1013.51 421.86 1014.69 421.86 1016.24H422.16ZM421 1012.48L421.232 1012.29C420.408 1011.29 419.12 1010.82 417.44 1010.82V1011.12V1011.42C419.013 1011.42 420.098 1011.86 420.768 1012.67L421 1012.48ZM417.44 1011.12V1010.82C415.796 1010.82 414.48 1011.35 413.533 1012.44L413.76 1012.64L413.987 1012.84C414.8 1011.9 415.937 1011.42 417.44 1011.42V1011.12ZM413.76 1012.64L413.533 1012.44C412.623 1013.5 412.155 1014.9 412.1 1016.63L412.4 1016.64L412.7 1016.65C412.752 1015.02 413.19 1013.76 413.987 1012.84L413.76 1012.64ZM412.4 1016.64V1016.34H408V1016.64V1016.94H412.4V1016.64ZM408 1016.64L408.3 1016.65C408.378 1013.66 409.266 1011.43 410.923 1009.9L410.72 1009.68L410.517 1009.46C408.708 1011.13 407.782 1013.54 407.7 1016.63L408 1016.64ZM410.72 1009.68L410.924 1009.9C412.621 1008.33 414.772 1007.54 417.4 1007.54V1007.24V1006.94C414.641 1006.94 412.339 1007.78 410.516 1009.46L410.72 1009.68ZM417.4 1007.24V1007.54C420.251 1007.54 422.433 1008.32 423.99 1009.85L424.2 1009.64L424.41 1009.43C422.713 1007.76 420.363 1006.94 417.4 1006.94V1007.24ZM424.2 1009.64L423.991 1009.86C425.577 1011.39 426.38 1013.44 426.38 1016.04H426.68H426.98C426.98 1013.31 426.13 1011.09 424.409 1009.42L424.2 1009.64ZM426.68 1016.04H426.38C426.38 1017.91 425.901 1019.71 424.937 1021.45L425.2 1021.6L425.463 1021.75C426.472 1019.92 426.98 1018.01 426.98 1016.04H426.68ZM425.2 1021.6L424.937 1021.46C423.989 1023.19 422.845 1024.76 421.504 1026.15L421.72 1026.36L421.936 1026.57C423.315 1025.14 424.491 1023.53 425.463 1021.74L425.2 1021.6ZM421.72 1026.36L421.504 1026.15C420.178 1027.53 418.478 1029.14 416.401 1030.98L416.6 1031.2L416.799 1031.42C418.882 1029.58 420.595 1027.96 421.936 1026.57L421.72 1026.36ZM416.6 1031.2L416.401 1030.98L414.601 1032.58L414.8 1032.8L414.999 1033.02L416.799 1031.42L416.6 1031.2ZM414.8 1032.8V1033.1H427.48V1032.8V1032.5H414.8V1032.8ZM427.48 1032.8H427.18V1036.6H427.48H427.78V1032.8H427.48ZM427.48 1036.6V1036.3H408.04V1036.6V1036.9H427.48V1036.6ZM408.04 1036.6H408.34V1033.28H408.04H407.74V1036.6H408.04ZM408.04 1033.28L408.236 1033.51L411.116 1031.03L410.92 1030.8L410.724 1030.57L407.844 1033.05L408.04 1033.28ZM447.166 1014.6L446.874 1014.67L446.929 1014.9H447.166V1014.6ZM445.566 1011.84L445.752 1011.6L445.566 1011.84ZM437.606 1013.36L437.857 1013.52L437.859 1013.52L437.606 1013.36ZM435.966 1021.36L435.666 1021.36L435.65 1022.48L436.224 1021.51L435.966 1021.36ZM447.966 1018.84L447.815 1019.1L447.822 1019.1L447.966 1018.84ZM451.126 1022.12L450.86 1022.26L450.862 1022.26L451.126 1022.12ZM451.166 1032.28L450.899 1032.14L450.897 1032.15L451.166 1032.28ZM447.926 1035.76L448.075 1036.02L448.079 1036.02L447.926 1035.76ZM436.246 1035.2L436.059 1035.44L436.064 1035.44L436.246 1035.2ZM432.966 1030.04L432.677 1030.12L432.678 1030.12L432.966 1030.04ZM448.646 1009.28L448.44 1009.5L448.442 1009.5L448.646 1009.28ZM451.366 1014.6V1014.9H451.706L451.664 1014.56L451.366 1014.6ZM438.166 1023L438.361 1023.23L438.362 1023.23L438.166 1023ZM438.046 1031.6L437.829 1031.81L437.834 1031.81L438.046 1031.6ZM446.446 1031.64L446.228 1031.43L446.225 1031.44L446.446 1031.64ZM446.486 1023.16L446.258 1023.35L446.263 1023.36L446.486 1023.16ZM447.166 1014.6L447.458 1014.53C447.153 1013.26 446.591 1012.27 445.752 1011.6L445.566 1011.84L445.38 1012.08C446.087 1012.64 446.592 1013.49 446.874 1014.67L447.166 1014.6ZM445.566 1011.84L445.752 1011.6C444.908 1010.94 443.753 1010.62 442.326 1010.62V1010.92V1011.22C443.672 1011.22 444.677 1011.52 445.38 1012.08L445.566 1011.84ZM442.326 1010.92V1010.62C440.128 1010.62 438.454 1011.48 437.353 1013.2L437.606 1013.36L437.859 1013.52C438.838 1011.99 440.31 1011.22 442.326 1011.22V1010.92ZM437.606 1013.36L437.354 1013.2C436.266 1014.87 435.719 1017.61 435.666 1021.36L435.966 1021.36L436.266 1021.36C436.319 1017.64 436.866 1015.05 437.857 1013.52L437.606 1013.36ZM435.966 1021.36L436.224 1021.51C436.885 1020.39 437.851 1019.53 439.136 1018.91L439.006 1018.64L438.876 1018.37C437.494 1019.03 436.434 1019.98 435.708 1021.21L435.966 1021.36ZM439.006 1018.64L439.136 1018.91C440.427 1018.29 441.822 1017.98 443.326 1017.98V1017.68V1017.38C441.736 1017.38 440.252 1017.71 438.876 1018.37L439.006 1018.64ZM443.326 1017.68V1017.98C445.041 1017.98 446.534 1018.36 447.815 1019.1L447.966 1018.84L448.116 1018.58C446.731 1017.78 445.131 1017.38 443.326 1017.38V1017.68ZM447.966 1018.84L447.822 1019.1C449.127 1019.82 450.139 1020.87 450.86 1022.26L451.126 1022.12L451.392 1021.98C450.62 1020.49 449.525 1019.35 448.11 1018.58L447.966 1018.84ZM451.126 1022.12L450.862 1022.26C451.607 1023.65 451.986 1025.32 451.986 1027.28H452.286H452.586C452.586 1025.24 452.192 1023.47 451.39 1021.98L451.126 1022.12ZM452.286 1027.28H451.986C451.986 1029.11 451.621 1030.72 450.899 1032.14L451.166 1032.28L451.433 1032.42C452.204 1030.9 452.586 1029.19 452.586 1027.28H452.286ZM451.166 1032.28L450.897 1032.15C450.203 1033.56 449.164 1034.68 447.773 1035.5L447.926 1035.76L448.079 1036.02C449.568 1035.14 450.689 1033.93 451.435 1032.41L451.166 1032.28ZM447.926 1035.76L447.777 1035.5C446.391 1036.3 444.712 1036.7 442.726 1036.7V1037V1037.3C444.794 1037.3 446.581 1036.88 448.075 1036.02L447.926 1035.76ZM442.726 1037V1036.7C440.02 1036.7 437.932 1036.11 436.428 1034.96L436.246 1035.2L436.064 1035.44C437.707 1036.69 439.939 1037.3 442.726 1037.3V1037ZM436.246 1035.2L436.432 1034.96C434.942 1033.78 433.88 1032.12 433.254 1029.96L432.966 1030.04L432.678 1030.12C433.332 1032.39 434.456 1034.16 436.06 1035.44L436.246 1035.2ZM432.966 1030.04L433.255 1029.96C432.651 1027.78 432.346 1025.05 432.346 1021.76H432.046H431.746C431.746 1025.08 432.054 1027.87 432.677 1030.12L432.966 1030.04ZM432.046 1021.76H432.346C432.346 1016.91 433.203 1013.32 434.871 1010.95C436.526 1008.61 439.006 1007.42 442.366 1007.42V1007.12V1006.82C438.846 1006.82 436.166 1008.07 434.381 1010.61C432.609 1013.12 431.746 1016.85 431.746 1021.76H432.046ZM442.366 1007.12V1007.42C444.978 1007.42 446.989 1008.12 448.44 1009.5L448.646 1009.28L448.852 1009.06C447.262 1007.56 445.088 1006.82 442.366 1006.82V1007.12ZM448.646 1009.28L448.442 1009.5C449.937 1010.89 450.81 1012.6 451.068 1014.64L451.366 1014.6L451.664 1014.56C451.388 1012.39 450.449 1010.55 448.85 1009.06L448.646 1009.28ZM451.366 1014.6V1014.3H447.166V1014.6V1014.9H451.366V1014.6ZM442.326 1021.52V1021.22C440.633 1021.22 439.176 1021.74 437.97 1022.77L438.166 1023L438.362 1023.23C439.45 1022.29 440.765 1021.82 442.326 1021.82V1021.52ZM438.166 1023L437.971 1022.77C436.768 1023.8 436.186 1025.3 436.186 1027.2H436.486H436.786C436.786 1025.42 437.324 1024.12 438.361 1023.23L438.166 1023ZM436.486 1027.2H436.186C436.186 1029.1 436.724 1030.65 437.829 1031.81L438.046 1031.6L438.263 1031.39C437.287 1030.37 436.786 1028.98 436.786 1027.2H436.486ZM438.046 1031.6L437.834 1031.81C438.97 1032.95 440.534 1033.5 442.486 1033.5V1033.2V1032.9C440.651 1032.9 439.255 1032.38 438.258 1031.39L438.046 1031.6ZM442.486 1033.2V1033.5C444.233 1033.5 445.639 1032.96 446.666 1031.84L446.446 1031.64L446.225 1031.44C445.333 1032.4 444.099 1032.9 442.486 1032.9V1033.2ZM446.446 1031.64L446.664 1031.85C447.714 1030.74 448.226 1029.27 448.226 1027.48H447.926H447.626C447.626 1029.15 447.151 1030.46 446.228 1031.43L446.446 1031.64ZM447.926 1027.48H448.226C448.226 1025.61 447.731 1024.09 446.709 1022.96L446.486 1023.16L446.263 1023.36C447.161 1024.36 447.626 1025.72 447.626 1027.48H447.926ZM446.486 1023.16L446.714 1022.97C445.709 1021.79 444.227 1021.22 442.326 1021.22V1021.52V1021.82C444.105 1021.82 445.397 1022.35 446.258 1023.35L446.486 1023.16Z" fill="black" mask="url(#path-9-outside-2_1_2017)"/>
<path d="M232.36 234.83C232.36 227.55 233.865 221.075 236.875 215.405C239.955 209.665 244.295 205.22 249.895 202.07C255.495 198.85 261.935 197.24 269.215 197.24C278.455 197.24 286.225 199.725 292.525 204.695C298.825 209.595 302.885 216.28 304.705 224.75H282.55C281.22 221.95 279.365 219.815 276.985 218.345C274.675 216.875 271.98 216.14 268.9 216.14C264.14 216.14 260.325 217.855 257.455 221.285C254.655 224.645 253.255 229.16 253.255 234.83C253.255 240.57 254.655 245.155 257.455 248.585C260.325 251.945 264.14 253.625 268.9 253.625C271.98 253.625 274.675 252.89 276.985 251.42C279.365 249.95 281.22 247.815 282.55 245.015H304.705C302.885 253.485 298.825 260.205 292.525 265.175C286.225 270.075 278.455 272.525 269.215 272.525C261.935 272.525 255.495 270.95 249.895 267.8C244.295 264.58 239.955 260.135 236.875 254.465C233.865 248.725 232.36 242.18 232.36 234.83ZM335.03 194.3V272H314.45V194.3H335.03ZM374.155 272.735C368.275 272.735 362.99 271.51 358.3 269.06C353.68 266.61 350.04 263.11 347.38 258.56C344.72 254.01 343.39 248.655 343.39 242.495C343.39 236.405 344.72 231.085 347.38 226.535C350.11 221.985 353.785 218.485 358.405 216.035C363.095 213.585 368.38 212.36 374.26 212.36C380.14 212.36 385.39 213.585 390.01 216.035C394.7 218.485 398.375 221.985 401.035 226.535C403.765 231.085 405.13 236.405 405.13 242.495C405.13 248.585 403.765 253.94 401.035 258.56C398.375 263.11 394.7 266.61 390.01 269.06C385.32 271.51 380.035 272.735 374.155 272.735ZM374.155 254.885C377.025 254.885 379.405 253.835 381.295 251.735C383.255 249.565 384.235 246.485 384.235 242.495C384.235 238.505 383.255 235.46 381.295 233.36C379.405 231.26 377.06 230.21 374.26 230.21C371.46 230.21 369.115 231.26 367.225 233.36C365.335 235.46 364.39 238.505 364.39 242.495C364.39 246.555 365.3 249.635 367.12 251.735C368.94 253.835 371.285 254.885 374.155 254.885ZM473.773 213.095V272H453.088V263.6C451.338 266.26 448.923 268.43 445.843 270.11C442.763 271.72 439.228 272.525 435.238 272.525C428.378 272.525 422.953 270.285 418.963 265.805C415.043 261.255 413.083 255.095 413.083 247.325V213.095H433.558V244.7C433.558 248.06 434.433 250.72 436.183 252.68C438.003 254.57 440.383 255.515 443.323 255.515C446.333 255.515 448.713 254.57 450.463 252.68C452.213 250.72 453.088 248.06 453.088 244.7V213.095H473.773ZM482.125 242.495C482.125 236.405 483.21 231.085 485.38 226.535C487.62 221.985 490.665 218.485 494.515 216.035C498.365 213.585 502.635 212.36 507.325 212.36C511.105 212.36 514.465 213.165 517.405 214.775C520.415 216.315 522.76 218.45 524.44 221.18V194.3H545.125V272H524.44V263.81C522.83 266.54 520.555 268.71 517.615 270.32C514.675 271.93 511.21 272.735 507.22 272.735C502.53 272.735 498.26 271.51 494.41 269.06C490.63 266.61 487.62 263.11 485.38 258.56C483.21 253.94 482.125 248.585 482.125 242.495ZM524.545 242.495C524.545 238.715 523.495 235.74 521.395 233.57C519.365 231.4 516.845 230.315 513.835 230.315C510.755 230.315 508.2 231.4 506.17 233.57C504.14 235.67 503.125 238.645 503.125 242.495C503.125 246.275 504.14 249.285 506.17 251.525C508.2 253.695 510.755 254.78 513.835 254.78C516.845 254.78 519.365 253.695 521.395 251.525C523.495 249.355 524.545 246.345 524.545 242.495ZM620.273 213.095L582.893 300.035H560.528L574.598 269.48L550.448 213.095H573.338L585.728 246.485L597.698 213.095H620.273Z" fill="black"/>
<path d="M379.012 409.058C408.742 407.768 433.426 428.182 448.589 451.246C477.415 427.936 518.098 450.93 525.952 484.197C566.434 487.687 590.572 532.885 576.82 568.973C564.239 601.992 529.937 617.914 496.149 605.266C477.529 616.798 463.691 618.045 442.579 612.613C423.871 628.47 397.106 631.684 374.515 621.984C369.983 619.927 365.829 617.501 361.662 614.827C344.311 627.045 318.742 627.217 299.664 619.225C295.337 617.412 291.915 614.001 287.371 612.613C266.229 617.258 248.505 622.449 228.044 608.468C218.74 602.112 222.608 602.351 210.76 598.957C150.343 581.654 162.382 484.444 227.209 480.251C229.246 476.288 231.151 472.193 233.589 468.448C249.208 444.456 279.8 436.673 305.712 449.122C308.203 446.474 310.122 443.121 312.323 440.223C327.666 420.024 353.478 408.609 379.012 409.058Z" fill="#000001"/>
<path d="M237.986 515.832L237.139 512.04C229.639 477.162 260.342 443.833 297.199 457.912C311.176 463.25 306.107 470.409 316.783 454.403C345.148 411.878 402.194 408.964 433.751 450.711C445.381 466.096 439.104 470.135 456.631 459.586C478.666 446.323 505.25 459.438 513.36 481.841C518.682 496.543 512.697 494.009 530.367 496.675C546.783 499.153 559.854 514.058 565.274 528.516C576.198 553.81 561.762 585.088 536.244 595.506C521.586 601.489 507.284 597.417 493.672 591.349C476.397 606.678 460.794 607.836 440.604 598.034C421.596 615.567 395.859 622.483 372.83 608.009C370.096 606.291 366.018 601.647 362.977 601.15C358.448 600.412 339.649 620.845 308.344 609.696C299.544 606.561 295.108 601.878 287.371 598.034C272.66 605.082 260.963 608.399 244.816 603.016C222.149 595.458 208.78 570.398 214.725 547.791C219.455 532.37 225.772 525.995 237.986 515.832Z" fill="#868686"/>
<path d="M565.274 528.516C576.198 553.811 561.762 585.089 536.244 595.506C521.586 601.489 507.284 597.417 493.672 591.349C476.397 606.678 460.794 607.836 440.604 598.034C421.596 615.567 395.859 622.483 372.83 608.009C370.096 606.291 366.018 601.647 362.977 601.15C358.448 600.412 339.649 620.845 308.344 609.696C299.544 606.561 295.108 601.878 287.371 598.034C272.66 605.082 260.963 608.399 244.816 603.016C222.149 595.458 208.78 570.398 214.725 547.791C216.875 551.202 218.224 555.1 220.438 558.516C235.825 582.255 265.226 588.65 290.759 576.634C313.177 597.137 334.188 595.473 359.205 579.098C377.749 599.806 416.362 597.289 433.761 576.634C453.233 586.811 473.317 584.732 490.773 571.252C528.505 593.825 558.366 565.512 565.274 528.516Z" fill="#474747"/>
<path d="M371.351 442.981C391.298 438.321 411.112 450.391 424.8 463.505C388.463 446.92 342.3 454.185 323.445 491.638C308.986 484.507 290.557 492.259 279.912 502.474C271.531 511.16 269.18 520.153 266.347 531.455C235.036 493.664 283.193 453.853 318.735 485.981C326.203 463.72 344.521 440.31 371.351 442.981Z" fill="#C5C3C3"/>
<path d="M224.18 491.638L224.756 491.858C225.813 495.509 225.142 506.297 225.12 510.473C222.655 514.776 218.501 517.709 215.16 521.328C203.345 534.126 198.753 556.973 203.393 573.077C204.72 577.687 207.001 582.034 208.532 586.599C204.983 584.298 201.646 581.815 198.421 579.098C180.216 564.771 178.576 536.663 189.094 517.627C196.607 504.029 209.392 496.027 224.18 491.638Z" fill="#5E5E5E"/>
<path d="M267.159 635.004C304.916 631.463 343.814 656.963 355.447 692.172C357.373 698.006 357.937 702.679 362.654 706.962C379.612 706.435 391.954 711.016 402.797 724.763C429.6 726.674 451.678 743.593 462.561 767.352L462.664 767.323C483.944 761.531 499.954 770.415 505.74 791.341C541.27 792.915 552.52 849.26 510.225 862.313C501.883 864.888 488.375 864.891 480.518 860.853C467.63 870.243 448.406 873.88 434.666 863.931C422.725 876.158 398.717 877.4 383.594 871.816C379.878 870.443 376.707 867.886 372.972 866.617C358.094 873.759 338.176 876.264 325.083 863.931C295.958 874.943 269.406 861.515 268.515 830.206C261.451 830.304 254.37 830.674 247.399 829.341C243.707 828.635 228.756 823.545 227.208 823.624C213.301 828.755 194.623 830.61 181.555 822.834C179.733 821.749 177.934 820.71 175.952 819.926C163.589 823.163 153.101 825.465 140.4 822.229C94.1383 810.444 91.495 754.408 135.211 729.98C136.593 700.438 160.443 678.878 190.779 681.921C204.472 655.296 237.014 635.472 267.159 635.004Z" fill="#000001"/>
<path d="M197.837 695.059C200.855 689.999 203.227 684.748 206.662 679.894C229.78 647.221 276.88 637.144 311.882 657.249C332.283 668.968 341.615 686.178 347.264 707.872L347.443 708.568C351.49 712.31 355.807 716.253 358.801 720.876C369.76 717.323 379.904 718.245 388.481 725.899C364.582 731.092 349.13 741.237 338.993 762.958C315.862 761.142 299.969 772.561 292.612 793.252C288.023 795.667 283.499 798.122 279.029 800.743C275.253 806.48 271.718 810.485 270.548 817.431C253.686 819.623 241.169 818.45 227.208 808.101C209.508 817.186 194.471 822.23 178.209 805.227C172.87 807.463 167.556 809.814 161.81 810.858C127.621 817.067 103.484 782.21 121.186 758.414C127.464 747.828 136.107 741.15 148.657 740.274C143.172 710.261 166.536 687.285 197.837 695.059Z" fill="#868686"/>
<path d="M121.186 758.414C122.094 769.866 119.166 776.967 130.074 786.411C141.967 796.707 164.644 794.638 178.209 788.347C195.147 802.024 210.086 803.59 229.625 794.846C241.16 811.09 263.707 804.699 279.029 800.743C275.253 806.48 271.718 810.485 270.548 817.432C253.686 819.623 241.169 818.451 227.208 808.102C209.508 817.186 194.471 822.23 178.209 805.227C172.87 807.463 167.556 809.814 161.81 810.858C127.621 817.068 103.484 782.21 121.186 758.414Z" fill="#474747"/>
<path d="M263.626 668.787C293.765 664.457 320.136 687.331 327.515 714.582C301.727 668.677 235.908 676.229 217.774 722.086C215.809 721.305 214.006 721.074 211.919 720.877C188.666 711.656 168.887 735.176 162.768 755.037C161.015 750.194 158.644 745.125 158.496 739.931C157.755 713.853 191.219 693.039 211.919 712.566C219.193 688.849 237.611 671.285 263.626 668.787Z" fill="#C5C3C3"/>
<path d="M395.625 736.292C426.239 735.426 448.062 754.228 456.28 782.779C476.587 767.517 493.673 778.609 495.286 802.013C507.284 802.016 520.345 807.628 523.537 819.926C514.905 838.943 493.714 847.294 475.937 834.451C461.717 848.435 449.255 847.585 434.666 834.451C427.676 839.884 421.915 845.655 413.55 849.24C398.258 854.894 385.471 850.186 372.972 840.627C356.02 849.489 344.462 856.03 329.483 837.904C323.995 841.158 317.881 844.996 311.412 845.943C280.703 850.435 266.398 808.539 303.233 805.227C302.38 778.938 325.39 773.296 347.443 773.886C356.961 751.571 368.585 738.965 395.625 736.292Z" fill="#5E5E5E"/>
<path d="M395.625 755.036C417.087 751.774 425.645 761.924 438.916 773.886C430.109 769.535 427.53 766.289 417.104 763.718C391.562 757.424 371.19 774.848 365.336 798.504C358.224 798.451 352.147 798.111 345.421 800.743C336.579 801.278 327.76 806.78 322.07 813.228C320.889 814.567 317.462 821.212 315.783 817.48C307.231 798.472 335.888 777.17 359.659 788.347C361.505 769.353 376.886 757.507 395.625 755.036Z" fill="#C5C3C3"/>
<path d="M627.584 583.376C630.366 582.988 633.732 583.312 636.542 583.49C674.283 585.883 707.547 609.819 718.588 645.812C720.464 651.929 720.627 658.407 722.544 664.51C775.243 709.891 726.94 790.396 662.691 774.27C656.745 772.778 651.212 770.357 645.634 767.907C635.151 774.492 623.608 776.13 611.373 775.921C601.089 775.151 588.613 772.191 580.731 765.319C514.088 799.04 467.313 723.621 513.241 687.529C511.689 658.827 525.01 636.069 556.016 632.384C568.128 602.618 596.074 587.644 627.584 583.376Z" fill="#000001"/>
<path d="M565.274 644.846C578.541 576.999 690.756 577.659 708.824 654.96C709.861 659.396 709.867 663.98 710.654 668.457L710.737 668.903L711.169 669.495C718.38 679.556 723.893 680.043 729.249 694.639C741.33 708.326 727.813 741.347 715.098 751.988C699.97 764.65 679.078 767.814 660.572 761.342C643.238 755.278 651.085 753.358 634.446 761.454C613.392 771.696 597.024 761.495 580.731 751.5C563.755 761.694 547.263 768.287 528.294 758.407C519.103 753.62 505.479 737.184 507.107 726.09L507.135 725.888C503.002 715.295 518.023 696.917 527.562 691.672C517.584 664.809 536.785 641.274 565.274 644.846Z" fill="#5E5E5E"/>
<path d="M729.249 694.639C741.329 708.326 727.812 741.347 715.097 751.988C699.97 764.651 679.078 767.815 660.571 761.342C643.238 755.278 651.084 753.358 634.446 761.454C613.392 771.697 597.024 761.495 580.731 751.5C563.755 761.694 547.263 768.287 528.294 758.407C519.103 753.62 505.478 737.184 507.107 726.09L507.135 725.888C523.277 746.64 551.278 749.993 574.271 738.706C591.522 754.884 620.008 748.395 638.242 737.2C679.391 755.284 722.76 740.563 729.249 694.639Z" fill="#414141"/>
<path d="M627.584 618.241C651.728 613.669 680.575 635.585 688.575 656.98C675.682 638.269 650.817 628.732 628.337 633.295C609.24 637.171 597.732 649.231 587.515 664.51C585.928 664.419 584.39 664.433 582.803 664.51C560.359 664.014 547.707 678.576 543.749 699.193C523.678 666.167 550.527 642.961 582.803 658.819C583.893 635.335 604.929 620.396 627.584 618.241Z" fill="#C5C3C3"/>
</svg>
