<svg width="849" height="1183" viewBox="0 0 849 1183" fill="none" xmlns="http://www.w3.org/2000/svg">
<rect x="5" y="5" width="839" height="1173" rx="45" fill="white"/>
<rect x="5" y="5" width="839" height="1173" rx="45" stroke="black" stroke-width="10"/>
<circle cx="786.5" cy="1124.5" r="11.5" fill="black"/>
<circle cx="786.5" cy="59.5" r="11.5" fill="black"/>
<path d="M77 1124.5C77 1130.85 71.8513 1136 65.5 1136C59.1487 1136 54 1130.85 54 1124.5C54 1118.15 59.1487 1113 65.5 1113C71.8513 1113 77 1118.15 77 1124.5Z" fill="black"/>
<path d="M77 59.5C77 65.8513 71.8513 71 65.5 71C59.1487 71 54 65.8513 54 59.5C54 53.1487 59.1487 48 65.5 48C71.8513 48 77 53.1487 77 59.5Z" fill="black"/>
<mask id="path-6-inside-1_1_3519" fill="white">
<path d="M708 48C713.523 48 717.934 52.4996 718.616 57.9801C723.122 94.1833 751.817 122.878 788.02 127.384C793.5 128.066 798 132.477 798 138V1046C798 1051.52 793.5 1055.93 788.02 1056.62C751.817 1061.12 723.122 1089.82 718.616 1126.02C717.934 1131.5 713.523 1136 708 1136H141C135.477 1136 131.066 1131.5 130.384 1126.02C125.878 1089.82 97.1833 1061.12 60.9801 1056.62C55.4996 1055.93 51 1051.52 51 1046V138C51 132.477 55.4996 128.066 60.9801 127.384C97.1833 122.878 125.878 94.1833 130.384 57.9801C131.066 52.4996 135.477 48 141 48H708Z"/>
</mask>
<path d="M708 48C713.523 48 717.934 52.4996 718.616 57.9801C723.122 94.1833 751.817 122.878 788.02 127.384C793.5 128.066 798 132.477 798 138V1046C798 1051.52 793.5 1055.93 788.02 1056.62C751.817 1061.12 723.122 1089.82 718.616 1126.02C717.934 1131.5 713.523 1136 708 1136H141C135.477 1136 131.066 1131.5 130.384 1126.02C125.878 1089.82 97.1833 1061.12 60.9801 1056.62C55.4996 1055.93 51 1051.52 51 1046V138C51 132.477 55.4996 128.066 60.9801 127.384C97.1833 122.878 125.878 94.1833 130.384 57.9801C131.066 52.4996 135.477 48 141 48H708Z" fill="#DBEE71"/>
<path d="M130.384 1126.02L138.322 1125.03L130.384 1126.02ZM718.616 1126.02L710.678 1125.03L718.616 1126.02ZM788.02 1056.62L789.008 1064.56L788.02 1056.62ZM718.616 57.9801L726.555 56.9922L718.616 57.9801ZM718.616 57.9801L710.678 58.9681C715.635 98.8063 747.194 130.365 787.032 135.322L788.02 127.384L789.008 119.445C756.44 115.392 730.608 89.5603 726.555 56.9922L718.616 57.9801ZM798 138H790V1046H798H806V138H798ZM788.02 1056.62L787.032 1048.68C747.194 1053.64 715.635 1085.19 710.678 1125.03L718.616 1126.02L726.555 1127.01C730.608 1094.44 756.44 1068.61 789.008 1064.56L788.02 1056.62ZM708 1136V1128H141V1136V1144H708V1136ZM130.384 1126.02L138.322 1125.03C133.365 1085.19 101.806 1053.64 61.9681 1048.68L60.9801 1056.62L59.9922 1064.56C92.5603 1068.61 118.392 1094.44 122.445 1127.01L130.384 1126.02ZM51 1046H59V138H51H43V1046H51ZM60.9801 127.384L61.9681 135.322C101.806 130.365 133.365 98.8063 138.322 58.9681L130.384 57.9801L122.445 56.9922C118.392 89.5603 92.5603 115.392 59.9922 119.445L60.9801 127.384ZM141 48V56H708V48V40H141V48ZM130.384 57.9801L138.322 58.9681C138.438 58.0389 138.872 57.2306 139.427 56.6958C139.954 56.1887 140.494 56 141 56V48V40C130.84 40 123.547 48.1329 122.445 56.9922L130.384 57.9801ZM51 138H59C59 137.494 59.1887 136.954 59.6958 136.427C60.2306 135.872 61.0389 135.438 61.9681 135.322L60.9801 127.384L59.9922 119.445C51.1329 120.547 43 127.84 43 138H51ZM60.9801 1056.62L61.9681 1048.68C61.0389 1048.56 60.2306 1048.13 59.6958 1047.57C59.1887 1047.05 59 1046.51 59 1046H51H43C43 1056.16 51.1329 1063.45 59.9922 1064.56L60.9801 1056.62ZM141 1136V1128C140.494 1128 139.954 1127.81 139.427 1127.3C138.872 1126.77 138.438 1125.96 138.322 1125.03L130.384 1126.02L122.445 1127.01C123.547 1135.87 130.84 1144 141 1144V1136ZM718.616 1126.02L710.678 1125.03C710.562 1125.96 710.128 1126.77 709.573 1127.3C709.046 1127.81 708.506 1128 708 1128V1136V1144C718.16 1144 725.453 1135.87 726.555 1127.01L718.616 1126.02ZM798 1046H790C790 1046.51 789.811 1047.05 789.304 1047.57C788.769 1048.13 787.961 1048.56 787.032 1048.68L788.02 1056.62L789.008 1064.56C797.867 1063.45 806 1056.16 806 1046H798ZM788.02 127.384L787.032 135.322C787.961 135.438 788.769 135.872 789.304 136.427C789.811 136.954 790 137.494 790 138H798H806C806 127.84 797.867 120.547 789.008 119.445L788.02 127.384ZM718.616 57.9801L726.555 56.9922C725.453 48.1329 718.16 40 708 40V48V56C708.506 56 709.046 56.1887 709.573 56.6958C710.128 57.2306 710.562 58.0389 710.678 58.9681L718.616 57.9801Z" fill="black" mask="url(#path-6-inside-1_1_3519)"/>
<path d="M690 102C695.523 102 699.911 106.512 700.837 111.957C705.019 136.563 724.437 155.981 749.043 160.163C754.488 161.089 759 165.477 759 171V1014C759 1019.52 754.488 1023.91 749.043 1024.84C724.711 1028.97 705.454 1048 700.984 1072.22C699.993 1077.59 695.633 1082 690.175 1082H158.825C153.367 1082 149.007 1077.59 148.016 1072.22C143.546 1048 124.288 1028.97 99.9568 1024.84C94.5121 1023.91 90 1019.52 90 1014V171C90 165.477 94.512 161.089 99.9568 160.163C124.563 155.981 143.981 136.563 148.163 111.957C149.089 106.512 153.477 102 159 102H690Z" fill="#DFE4C2"/>
<mask id="path-9-outside-2_1_3519" maskUnits="userSpaceOnUse" x="407" y="1006" width="35" height="32" fill="black">
<rect fill="white" x="407" y="1006" width="35" height="32"/>
<path d="M407.8 1012V1007.84H416.12V1037H411.52V1012H407.8ZM422.304 1015.04C422.464 1012.56 423.411 1010.63 425.144 1009.24C426.904 1007.85 429.144 1007.16 431.864 1007.16C433.731 1007.16 435.344 1007.49 436.704 1008.16C438.064 1008.83 439.091 1009.73 439.784 1010.88C440.478 1012.03 440.824 1013.32 440.824 1014.76C440.824 1016.41 440.384 1017.83 439.504 1019C438.624 1020.17 437.571 1020.96 436.344 1021.36V1021.52C437.918 1022 439.144 1022.88 440.024 1024.16C440.904 1025.41 441.344 1027.03 441.344 1029C441.344 1030.57 440.984 1031.97 440.264 1033.2C439.544 1034.43 438.478 1035.4 437.064 1036.12C435.651 1036.81 433.958 1037.16 431.984 1037.16C429.104 1037.16 426.731 1036.43 424.864 1034.96C423.024 1033.47 422.038 1031.33 421.904 1028.56H426.304C426.411 1029.97 426.958 1031.13 427.944 1032.04C428.931 1032.92 430.264 1033.36 431.944 1033.36C433.571 1033.36 434.824 1032.92 435.704 1032.04C436.584 1031.13 437.024 1029.97 437.024 1028.56C437.024 1026.69 436.424 1025.37 435.224 1024.6C434.051 1023.8 432.238 1023.4 429.784 1023.4H428.744V1019.64H429.824C431.984 1019.61 433.624 1019.25 434.744 1018.56C435.891 1017.87 436.464 1016.77 436.464 1015.28C436.464 1014 436.051 1012.99 435.224 1012.24C434.398 1011.47 433.224 1011.08 431.704 1011.08C430.211 1011.08 429.051 1011.47 428.224 1012.24C427.398 1012.99 426.904 1013.92 426.744 1015.04H422.304Z"/>
</mask>
<path d="M407.8 1012V1007.84H416.12V1037H411.52V1012H407.8ZM422.304 1015.04C422.464 1012.56 423.411 1010.63 425.144 1009.24C426.904 1007.85 429.144 1007.16 431.864 1007.16C433.731 1007.16 435.344 1007.49 436.704 1008.16C438.064 1008.83 439.091 1009.73 439.784 1010.88C440.478 1012.03 440.824 1013.32 440.824 1014.76C440.824 1016.41 440.384 1017.83 439.504 1019C438.624 1020.17 437.571 1020.96 436.344 1021.36V1021.52C437.918 1022 439.144 1022.88 440.024 1024.16C440.904 1025.41 441.344 1027.03 441.344 1029C441.344 1030.57 440.984 1031.97 440.264 1033.2C439.544 1034.43 438.478 1035.4 437.064 1036.12C435.651 1036.81 433.958 1037.16 431.984 1037.16C429.104 1037.16 426.731 1036.43 424.864 1034.96C423.024 1033.47 422.038 1031.33 421.904 1028.56H426.304C426.411 1029.97 426.958 1031.13 427.944 1032.04C428.931 1032.92 430.264 1033.36 431.944 1033.36C433.571 1033.36 434.824 1032.92 435.704 1032.04C436.584 1031.13 437.024 1029.97 437.024 1028.56C437.024 1026.69 436.424 1025.37 435.224 1024.6C434.051 1023.8 432.238 1023.4 429.784 1023.4H428.744V1019.64H429.824C431.984 1019.61 433.624 1019.25 434.744 1018.56C435.891 1017.87 436.464 1016.77 436.464 1015.28C436.464 1014 436.051 1012.99 435.224 1012.24C434.398 1011.47 433.224 1011.08 431.704 1011.08C430.211 1011.08 429.051 1011.47 428.224 1012.24C427.398 1012.99 426.904 1013.92 426.744 1015.04H422.304Z" fill="black"/>
<path d="M407.8 1012H407.5V1012.3H407.8V1012ZM407.8 1007.84V1007.54H407.5V1007.84H407.8ZM416.12 1007.84H416.42V1007.54H416.12V1007.84ZM416.12 1037V1037.3H416.42V1037H416.12ZM411.52 1037H411.22V1037.3H411.52V1037ZM411.52 1012H411.82V1011.7H411.52V1012ZM407.8 1012H408.1V1007.84H407.8H407.5V1012H407.8ZM407.8 1007.84V1008.14H416.12V1007.84V1007.54H407.8V1007.84ZM416.12 1007.84H415.82V1037H416.12H416.42V1007.84H416.12ZM416.12 1037V1036.7H411.52V1037V1037.3H416.12V1037ZM411.52 1037H411.82V1012H411.52H411.22V1037H411.52ZM411.52 1012V1011.7H407.8V1012V1012.3H411.52V1012ZM422.304 1015.04L422.005 1015.02L421.984 1015.34H422.304V1015.04ZM425.144 1009.24L424.959 1009L424.957 1009.01L425.144 1009.24ZM436.704 1008.16L436.572 1008.43L436.704 1008.16ZM439.784 1010.88L440.041 1010.72L439.784 1010.88ZM439.504 1019L439.744 1019.18V1019.18L439.504 1019ZM436.344 1021.36L436.251 1021.07L436.044 1021.14V1021.36H436.344ZM436.344 1021.52H436.044V1021.74L436.257 1021.81L436.344 1021.52ZM440.024 1024.16L439.777 1024.33L439.779 1024.33L440.024 1024.16ZM440.264 1033.2L440.006 1033.05L440.264 1033.2ZM437.064 1036.12L437.197 1036.39L437.201 1036.39L437.064 1036.12ZM424.864 1034.96L424.675 1035.19L424.679 1035.2L424.864 1034.96ZM421.904 1028.56V1028.26H421.59L421.605 1028.57L421.904 1028.56ZM426.304 1028.56L426.604 1028.54L426.583 1028.26H426.304V1028.56ZM427.944 1032.04L427.741 1032.26L427.745 1032.26L427.944 1032.04ZM435.704 1032.04L435.917 1032.25L435.92 1032.25L435.704 1032.04ZM435.224 1024.6L435.055 1024.85L435.062 1024.85L435.224 1024.6ZM428.744 1023.4H428.444V1023.7H428.744V1023.4ZM428.744 1019.64V1019.34H428.444V1019.64H428.744ZM429.824 1019.64V1019.94L429.828 1019.94L429.824 1019.64ZM434.744 1018.56L434.589 1018.3L434.586 1018.3L434.744 1018.56ZM435.224 1012.24L435.019 1012.46L435.023 1012.46L435.224 1012.24ZM428.224 1012.24L428.425 1012.46L428.429 1012.46L428.224 1012.24ZM426.744 1015.04V1015.34H427.005L427.041 1015.08L426.744 1015.04ZM422.304 1015.04L422.604 1015.06C422.759 1012.65 423.673 1010.8 425.332 1009.47L425.144 1009.24L424.957 1009.01C423.149 1010.45 422.17 1012.47 422.005 1015.02L422.304 1015.04ZM425.144 1009.24L425.33 1009.48C427.027 1008.14 429.197 1007.46 431.864 1007.46V1007.16V1006.86C429.092 1006.86 426.782 1007.57 424.959 1009L425.144 1009.24ZM431.864 1007.16V1007.46C433.696 1007.46 435.262 1007.79 436.572 1008.43L436.704 1008.16L436.836 1007.89C435.427 1007.2 433.766 1006.86 431.864 1006.86V1007.16ZM436.704 1008.16L436.572 1008.43C437.888 1009.07 438.868 1009.94 439.528 1011.04L439.784 1010.88L440.041 1010.72C439.314 1009.52 438.241 1008.58 436.836 1007.89L436.704 1008.16ZM439.784 1010.88L439.528 1011.04C440.191 1012.13 440.524 1013.37 440.524 1014.76H440.824H441.124C441.124 1013.27 440.765 1011.92 440.041 1010.72L439.784 1010.88ZM440.824 1014.76H440.524C440.524 1016.36 440.101 1017.71 439.264 1018.82L439.504 1019L439.744 1019.18C440.668 1017.95 441.124 1016.47 441.124 1014.76H440.824ZM439.504 1019L439.264 1018.82C438.416 1019.95 437.412 1020.7 436.251 1021.07L436.344 1021.36L436.437 1021.65C437.731 1021.22 438.833 1020.4 439.744 1019.18L439.504 1019ZM436.344 1021.36H436.044V1021.52H436.344H436.644V1021.36H436.344ZM436.344 1021.52L436.257 1021.81C437.769 1022.27 438.938 1023.11 439.777 1024.33L440.024 1024.16L440.272 1023.99C439.351 1022.65 438.066 1021.73 436.432 1021.23L436.344 1021.52ZM440.024 1024.16L439.779 1024.33C440.614 1025.52 441.044 1027.07 441.044 1029H441.344H441.644C441.644 1026.98 441.194 1025.3 440.27 1023.99L440.024 1024.16ZM441.344 1029H441.044C441.044 1030.53 440.696 1031.87 440.006 1033.05L440.264 1033.2L440.523 1033.35C441.273 1032.07 441.644 1030.62 441.644 1029H441.344ZM440.264 1033.2L440.006 1033.05C439.318 1034.22 438.297 1035.16 436.928 1035.85L437.064 1036.12L437.201 1036.39C438.659 1035.64 439.771 1034.63 440.523 1033.35L440.264 1033.2ZM437.064 1036.12L436.932 1035.85C435.569 1036.52 433.923 1036.86 431.984 1036.86V1037.16V1037.46C433.992 1037.46 435.733 1037.11 437.197 1036.39L437.064 1036.12ZM431.984 1037.16V1036.86C429.157 1036.86 426.853 1036.14 425.05 1034.72L424.864 1034.96L424.679 1035.2C426.609 1036.71 429.052 1037.46 431.984 1037.46V1037.16ZM424.864 1034.96L425.053 1034.73C423.291 1033.3 422.334 1031.25 422.204 1028.55L421.904 1028.56L421.605 1028.57C421.741 1031.42 422.758 1033.64 424.675 1035.19L424.864 1034.96ZM421.904 1028.56V1028.86H426.304V1028.56V1028.26H421.904V1028.56ZM426.304 1028.56L426.005 1028.58C426.117 1030.07 426.695 1031.3 427.741 1032.26L427.944 1032.04L428.147 1031.82C427.22 1030.97 426.705 1029.88 426.604 1028.54L426.304 1028.56ZM427.944 1032.04L427.745 1032.26C428.8 1033.21 430.211 1033.66 431.944 1033.66V1033.36V1033.06C430.317 1033.06 429.062 1032.63 428.144 1031.82L427.944 1032.04ZM431.944 1033.36V1033.66C433.625 1033.66 434.965 1033.2 435.917 1032.25L435.704 1032.04L435.492 1031.83C434.684 1032.64 433.517 1033.06 431.944 1033.06V1033.36ZM435.704 1032.04L435.92 1032.25C436.861 1031.28 437.324 1030.04 437.324 1028.56H437.024H436.724C436.724 1029.91 436.308 1030.99 435.489 1031.83L435.704 1032.04ZM437.024 1028.56H437.324C437.324 1026.63 436.698 1025.19 435.387 1024.35L435.224 1024.6L435.062 1024.85C436.15 1025.55 436.724 1026.76 436.724 1028.56H437.024ZM435.224 1024.6L435.393 1024.35C434.146 1023.5 432.259 1023.1 429.784 1023.1V1023.4V1023.7C432.216 1023.7 433.956 1024.1 435.055 1024.85L435.224 1024.6ZM429.784 1023.4V1023.1H428.744V1023.4V1023.7H429.784V1023.4ZM428.744 1023.4H429.044V1019.64H428.744H428.444V1023.4H428.744ZM428.744 1019.64V1019.94H429.824V1019.64V1019.34H428.744V1019.64ZM429.824 1019.64L429.828 1019.94C432.011 1019.91 433.715 1019.55 434.902 1018.82L434.744 1018.56L434.586 1018.3C433.534 1018.96 431.957 1019.31 429.821 1019.34L429.824 1019.64ZM434.744 1018.56L434.9 1018.82C436.148 1018.06 436.764 1016.86 436.764 1015.28H436.464H436.164C436.164 1016.68 435.634 1017.67 434.589 1018.3L434.744 1018.56ZM436.464 1015.28H436.764C436.764 1013.93 436.325 1012.83 435.425 1012.02L435.224 1012.24L435.023 1012.46C435.777 1013.14 436.164 1014.07 436.164 1015.28H436.464ZM435.224 1012.24L435.429 1012.02C434.53 1011.18 433.274 1010.78 431.704 1010.78V1011.08V1011.38C433.175 1011.38 434.265 1011.75 435.019 1012.46L435.224 1012.24ZM431.704 1011.08V1010.78C430.16 1010.78 428.918 1011.18 428.019 1012.02L428.224 1012.24L428.429 1012.46C429.185 1011.75 430.262 1011.38 431.704 1011.38V1011.08ZM428.224 1012.24L428.023 1012.02C427.144 1012.81 426.617 1013.81 426.447 1015L426.744 1015.04L427.041 1015.08C427.192 1014.03 427.652 1013.16 428.425 1012.46L428.224 1012.24ZM426.744 1015.04V1014.74H422.304V1015.04V1015.34H426.744V1015.04Z" fill="black" mask="url(#path-9-outside-2_1_3519)"/>
<path d="M263.13 233.99C267.47 234.97 270.9 237.14 273.42 240.5C276.01 243.79 277.305 247.57 277.305 251.84C277.305 258.14 275.135 263.075 270.795 266.645C266.455 270.215 260.365 272 252.525 272H215.88V197.975H251.37C258.93 197.975 264.845 199.655 269.115 203.015C273.455 206.375 275.625 211.1 275.625 217.19C275.625 221.53 274.47 225.17 272.16 228.11C269.92 230.98 266.91 232.94 263.13 233.99ZM236.46 227.375H246.855C252.035 227.375 254.625 225.24 254.625 220.97C254.625 216.56 252.035 214.355 246.855 214.355H236.46V227.375ZM248.43 255.41C253.61 255.41 256.2 253.24 256.2 248.9C256.2 246.66 255.5 244.945 254.1 243.755C252.77 242.565 250.845 241.97 248.325 241.97H236.46V255.41H248.43ZM282.964 242.495C282.964 236.405 284.049 231.085 286.219 226.535C288.459 221.985 291.469 218.485 295.249 216.035C299.099 213.585 303.369 212.36 308.059 212.36C312.119 212.36 315.619 213.165 318.559 214.775C321.499 216.385 323.774 218.555 325.384 221.285V213.095H345.964V272H325.384V263.81C323.774 266.54 321.464 268.71 318.454 270.32C315.514 271.93 312.049 272.735 308.059 272.735C303.369 272.735 299.099 271.51 295.249 269.06C291.469 266.61 288.459 263.11 286.219 258.56C284.049 253.94 282.964 248.585 282.964 242.495ZM325.384 242.495C325.384 238.715 324.334 235.74 322.234 233.57C320.204 231.4 317.684 230.315 314.674 230.315C311.594 230.315 309.039 231.4 307.009 233.57C304.979 235.67 303.964 238.645 303.964 242.495C303.964 246.275 304.979 249.285 307.009 251.525C309.039 253.695 311.594 254.78 314.674 254.78C317.684 254.78 320.204 253.695 322.234 251.525C324.334 249.355 325.384 246.345 325.384 242.495ZM396.227 212.57C403.017 212.57 408.407 214.845 412.397 219.395C416.387 223.875 418.382 229.965 418.382 237.665V272H397.802V240.395C397.802 237.035 396.927 234.41 395.177 232.52C393.427 230.56 391.082 229.58 388.142 229.58C385.062 229.58 382.647 230.56 380.897 232.52C379.147 234.41 378.272 237.035 378.272 240.395V272H357.692V213.095H378.272V221.495C380.092 218.835 382.542 216.7 385.622 215.09C388.702 213.41 392.237 212.57 396.227 212.57ZM426.314 242.495C426.314 236.405 427.399 231.085 429.569 226.535C431.809 221.985 434.819 218.485 438.599 216.035C442.449 213.585 446.719 212.36 451.409 212.36C455.469 212.36 458.969 213.165 461.909 214.775C464.849 216.385 467.124 218.555 468.734 221.285V213.095H489.314V272H468.734V263.81C467.124 266.54 464.814 268.71 461.804 270.32C458.864 271.93 455.399 272.735 451.409 272.735C446.719 272.735 442.449 271.51 438.599 269.06C434.819 266.61 431.809 263.11 429.569 258.56C427.399 253.94 426.314 248.585 426.314 242.495ZM468.734 242.495C468.734 238.715 467.684 235.74 465.584 233.57C463.554 231.4 461.034 230.315 458.024 230.315C454.944 230.315 452.389 231.4 450.359 233.57C448.329 235.67 447.314 238.645 447.314 242.495C447.314 246.275 448.329 249.285 450.359 251.525C452.389 253.695 454.944 254.78 458.024 254.78C461.034 254.78 463.554 253.695 465.584 251.525C467.684 249.355 468.734 246.345 468.734 242.495ZM539.576 212.57C546.366 212.57 551.756 214.845 555.746 219.395C559.736 223.875 561.731 229.965 561.731 237.665V272H541.151V240.395C541.151 237.035 540.276 234.41 538.526 232.52C536.776 230.56 534.431 229.58 531.491 229.58C528.411 229.58 525.996 230.56 524.246 232.52C522.496 234.41 521.621 237.035 521.621 240.395V272H501.041V213.095H521.621V221.495C523.441 218.835 525.891 216.7 528.971 215.09C532.051 213.41 535.586 212.57 539.576 212.57ZM569.664 242.495C569.664 236.405 570.749 231.085 572.919 226.535C575.159 221.985 578.169 218.485 581.949 216.035C585.799 213.585 590.069 212.36 594.759 212.36C598.819 212.36 602.319 213.165 605.259 214.775C608.199 216.385 610.474 218.555 612.084 221.285V213.095H632.664V272H612.084V263.81C610.474 266.54 608.164 268.71 605.154 270.32C602.214 271.93 598.749 272.735 594.759 272.735C590.069 272.735 585.799 271.51 581.949 269.06C578.169 266.61 575.159 263.11 572.919 258.56C570.749 253.94 569.664 248.585 569.664 242.495ZM612.084 242.495C612.084 238.715 611.034 235.74 608.934 233.57C606.904 231.4 604.384 230.315 601.374 230.315C598.294 230.315 595.739 231.4 593.709 233.57C591.679 235.67 590.664 238.645 590.664 242.495C590.664 246.275 591.679 249.285 593.709 251.525C595.739 253.695 598.294 254.78 601.374 254.78C604.384 254.78 606.904 253.695 608.934 251.525C611.034 249.355 612.084 246.345 612.084 242.495Z" fill="black"/>
<path d="M639.659 340.063C661.45 339.36 666.556 344.295 664.969 366.033L663.19 389.054C661.091 413.84 674.011 456.17 685.403 476.925C688.297 481.753 693.179 485.473 696.652 489.65C715.128 511.863 721.228 545.822 723.439 573.872C732.846 693.267 676.542 813.487 576.877 880.553C489.748 939.182 342.945 977.17 253.593 902.85C238.276 890.046 214.627 858.724 231.654 839.327C234.813 836.056 239.405 832.606 243.024 829.704C198.842 810.236 166.948 790.773 150.242 741.618C139.457 709.88 150.619 705.403 176.648 697.064C150.012 672.235 115.017 620.097 124.626 582.647C133.608 547.64 235.006 575.784 256.965 582.058C288.296 591.01 312.753 598.789 345.309 601.733C432.343 609.602 500.017 548.376 553.867 487.795C558.997 482.024 565.208 477.929 570.148 472.241C572.266 469.789 582.895 421.544 584.988 415.233C576.192 401.123 563.885 387.986 575.908 373.19C591.297 354.252 615.849 343.383 639.659 340.063Z" fill="black"/>
<path d="M619.299 416.668C629.06 412.518 636.634 410.957 647.123 411.476C652.76 436.235 661.899 477.938 680.387 495.928C697.678 512.753 703.4 541.025 706.153 564.242C726.044 734.822 611.319 879.739 446.9 919.142C384.763 934.034 299.453 930.815 253.74 879.512C265.946 881.981 303.768 895.22 305.198 877.883C302.048 863.271 254.565 869.361 243.149 857.723C236.941 851.394 255.909 842.413 259.76 840.295C285.901 825.92 313.25 814.496 341.952 806.294C383.032 794.557 426.724 789.029 464.22 767.27C531.977 727.951 578.216 659.518 602.025 586.019C605.621 574.914 612.484 538.773 619.299 532.852C622.701 523.285 629.649 516.818 636.668 509.662L636.577 509.102C634.906 498.52 635.814 487.404 634.588 476.693C632.03 454.317 623.453 437.141 619.299 416.668Z" fill="#E9BB14"/>
<path d="M619.299 532.852L619.49 533.319L619.117 533.782C616.962 536.463 600.416 588.209 598.929 597.284L599.942 597.494C599.527 601.25 601.002 608.47 597.009 610.165L596.402 609.873L596.22 608.639C594.465 610.605 596.611 614.696 592.706 613.389C588.778 622.306 584.71 630.828 580.498 639.614L581.007 640.111L581.437 640.098C583.531 640.05 585.066 640.293 587.13 640.532L587.031 641.135C580.005 643.418 584.937 639.218 583.926 649.698C588.719 651.608 590.732 647.189 592.92 651.391C596.482 652.125 594.527 656.262 593.171 659.604C591.914 663.64 597.355 677.355 599.419 680.582C603.42 686.841 606.941 681.788 605.3 691.353L606.797 690.665C609.908 692.501 612.11 688.358 612.64 695.031L612.975 694.932C613.684 692.593 616.633 691.725 617.845 688.469C621.495 678.652 626.819 665.696 631.059 656.04C630.672 649.374 634.516 645.543 633.39 632.758C636.483 629.433 635.567 624.647 637.111 620.451C638.458 616.798 632.876 617.155 637.201 614.297C637.763 609.298 637.718 604.6 638.085 599.604C638.31 596.537 641.561 594.637 642.447 591.302C642.228 590.978 643.786 555.545 643.888 552.067L644.517 554.856C644.661 588.983 640.966 623.271 631.059 656.04C595.67 767.518 498.049 845.86 382.784 863.962C367.297 866.394 351.68 867.216 336.129 868.814C330.654 869.377 329.119 874.585 329.537 879.512C324.993 880.267 309.542 879.622 305.198 877.882C302.048 863.271 254.565 869.361 243.149 857.723C236.941 851.394 255.909 842.413 259.76 840.295C285.901 825.92 313.25 814.496 341.952 806.294C383.032 794.557 426.724 789.028 464.22 767.27C531.977 727.951 578.216 659.518 602.025 586.019C605.621 574.914 612.484 538.773 619.299 532.852Z" fill="#F7D76A"/>
<path d="M644.517 554.856C644.573 548.302 642.889 538.993 652.42 538.953C663.035 539.303 659.859 556.889 659.917 563.817C660.731 662.148 619.674 746.698 544.847 810.305C488.277 858.394 410.593 882.447 337.286 884.661C333.567 884.772 330.981 882.795 329.537 879.512C329.119 874.585 330.654 869.377 336.129 868.814C351.68 867.216 367.297 866.394 382.784 863.962C498.049 845.86 595.67 767.517 631.059 656.04C640.966 623.271 644.66 588.983 644.517 554.856Z" fill="black"/>
<path d="M584.987 480.397C587.972 469.98 596.897 430.053 600.553 422.851C605.6 420.918 606.043 430.934 607.542 435.13C614.981 455.953 620.781 480.125 619.986 502.378C615.192 509.679 609.018 515.379 604.96 523.443C593.325 546.56 590.32 571.904 580.937 596.126C563.18 641.975 527.208 703.783 485.04 732.511C421.433 775.842 339.817 779.539 266.603 763.561C260.096 762.141 253.586 759.541 247.084 758.869C241.024 758.433 237.379 771.819 244.143 774.147C282.353 787.298 309.467 785.184 346.759 787.617C341.152 789.938 335.689 790.936 329.933 792.639C307.083 799.394 285.241 807.816 264.211 819.097C222.895 805.703 190.08 787.641 170.636 747.327C179.748 751.62 214.103 771.49 219.422 757.391C223.476 746.645 205.103 743.799 198.418 741.298C152.657 724.189 151.422 718.141 198.402 709.455C270.36 696.152 336.813 717.386 409.228 697.586C484.958 676.881 551.677 620.973 588.46 551.997C591.027 547.184 597.463 536.811 595.784 531.619C593.264 523.833 583.141 526.266 579.544 532.852C579.138 531.005 592.787 487.484 586.496 480.15L584.987 480.397Z" fill="url(#paint0_linear_1_3519)"/>
<path d="M584.988 480.398L586.496 480.15C592.787 487.484 579.138 531.005 579.544 532.852C537.055 615.626 459.639 682.553 363.248 687.006C317.894 689.101 272.205 673.154 232.167 653.359C227.235 650.912 221.732 647.302 216.535 645.762C213.112 643.012 193.211 629.951 190.61 628.904C184.58 619.506 146.177 601.843 141.071 589.819C135.455 576.598 186.194 584.203 190.396 584.766C265.869 594.894 340.699 638.173 417.553 610.92C464.311 594.337 504.447 562.963 539.018 528.092C541.738 525.35 584.56 481.296 584.988 480.398Z" fill="#F7D76A"/>
<path d="M143.772 615.151C152.181 620.968 191.172 657.405 190.61 628.904C193.212 629.951 213.112 643.012 216.535 645.762C184.169 659.504 265.336 685.863 272.403 688.332C260.663 688.345 242.608 689.327 231.654 688.332C220.835 690.536 209.325 691.898 198.352 693.299C178.209 681.557 159.744 655.155 150.889 634.4C148.952 627.951 145.892 621.615 143.772 615.151Z" fill="#E9BB14"/>
<path d="M150.889 634.4C153.254 632.254 157.174 636.898 159.027 638.512C170.036 648.104 218.938 688.399 231.654 688.332C220.835 690.536 209.325 691.898 198.352 693.299C178.209 681.557 159.744 655.155 150.889 634.4Z" fill="#DBA90A"/>
<path d="M648.551 356.181L649.033 356.248C649.696 357.397 646.816 390.359 647.123 395.906C627.688 395.873 616.162 399.565 598.857 407.686L594.688 400.208C592.568 396.269 588.494 389.941 587.166 386.054C599.28 367.229 627.042 357.143 648.551 356.181Z" fill="#744728"/>
<defs>
<linearGradient id="paint0_linear_1_3519" x1="467.265" y1="742.323" x2="365.701" y2="543.495" gradientUnits="userSpaceOnUse">
<stop stop-color="#EBBB08"/>
<stop offset="1" stop-color="#FFDC02"/>
</linearGradient>
</defs>
</svg>
