<svg width="849" height="1183" viewBox="0 0 849 1183" fill="none" xmlns="http://www.w3.org/2000/svg">
<rect x="5" y="5" width="839" height="1173" rx="45" fill="white"/>
<rect x="5" y="5" width="839" height="1173" rx="45" stroke="black" stroke-width="10"/>
<circle cx="786.5" cy="1124.5" r="11.5" fill="black"/>
<circle cx="786.5" cy="59.5" r="11.5" fill="black"/>
<path d="M77 1124.5C77 1130.85 71.8513 1136 65.5 1136C59.1487 1136 54 1130.85 54 1124.5C54 1118.15 59.1487 1113 65.5 1113C71.8513 1113 77 1118.15 77 1124.5Z" fill="black"/>
<path d="M77 59.5C77 65.8513 71.8513 71 65.5 71C59.1487 71 54 65.8513 54 59.5C54 53.1487 59.1487 48 65.5 48C71.8513 48 77 53.1487 77 59.5Z" fill="black"/>
<mask id="path-6-inside-1_1_2872" fill="white">
<path d="M708 48C713.523 48 717.934 52.4996 718.616 57.9801C723.122 94.1833 751.817 122.878 788.02 127.384C793.5 128.066 798 132.477 798 138V1046C798 1051.52 793.5 1055.93 788.02 1056.62C751.817 1061.12 723.122 1089.82 718.616 1126.02C717.934 1131.5 713.523 1136 708 1136H141C135.477 1136 131.066 1131.5 130.384 1126.02C125.878 1089.82 97.1833 1061.12 60.9801 1056.62C55.4996 1055.93 51 1051.52 51 1046V138C51 132.477 55.4996 128.066 60.9801 127.384C97.1833 122.878 125.878 94.1833 130.384 57.9801C131.066 52.4996 135.477 48 141 48H708Z"/>
</mask>
<path d="M708 48C713.523 48 717.934 52.4996 718.616 57.9801C723.122 94.1833 751.817 122.878 788.02 127.384C793.5 128.066 798 132.477 798 138V1046C798 1051.52 793.5 1055.93 788.02 1056.62C751.817 1061.12 723.122 1089.82 718.616 1126.02C717.934 1131.5 713.523 1136 708 1136H141C135.477 1136 131.066 1131.5 130.384 1126.02C125.878 1089.82 97.1833 1061.12 60.9801 1056.62C55.4996 1055.93 51 1051.52 51 1046V138C51 132.477 55.4996 128.066 60.9801 127.384C97.1833 122.878 125.878 94.1833 130.384 57.9801C131.066 52.4996 135.477 48 141 48H708Z" fill="#DBEE71"/>
<path d="M130.384 1126.02L138.322 1125.03L130.384 1126.02ZM718.616 1126.02L710.678 1125.03L718.616 1126.02ZM788.02 1056.62L789.008 1064.56L788.02 1056.62ZM718.616 57.9801L726.555 56.9922L718.616 57.9801ZM718.616 57.9801L710.678 58.9681C715.635 98.8063 747.194 130.365 787.032 135.322L788.02 127.384L789.008 119.445C756.44 115.392 730.608 89.5603 726.555 56.9922L718.616 57.9801ZM798 138H790V1046H798H806V138H798ZM788.02 1056.62L787.032 1048.68C747.194 1053.64 715.635 1085.19 710.678 1125.03L718.616 1126.02L726.555 1127.01C730.608 1094.44 756.44 1068.61 789.008 1064.56L788.02 1056.62ZM708 1136V1128H141V1136V1144H708V1136ZM130.384 1126.02L138.322 1125.03C133.365 1085.19 101.806 1053.64 61.9681 1048.68L60.9801 1056.62L59.9922 1064.56C92.5603 1068.61 118.392 1094.44 122.445 1127.01L130.384 1126.02ZM51 1046H59V138H51H43V1046H51ZM60.9801 127.384L61.9681 135.322C101.806 130.365 133.365 98.8063 138.322 58.9681L130.384 57.9801L122.445 56.9922C118.392 89.5603 92.5603 115.392 59.9922 119.445L60.9801 127.384ZM141 48V56H708V48V40H141V48ZM130.384 57.9801L138.322 58.9681C138.438 58.0389 138.872 57.2306 139.427 56.6958C139.954 56.1887 140.494 56 141 56V48V40C130.84 40 123.547 48.1329 122.445 56.9922L130.384 57.9801ZM51 138H59C59 137.494 59.1887 136.954 59.6958 136.427C60.2306 135.872 61.0389 135.438 61.9681 135.322L60.9801 127.384L59.9922 119.445C51.1329 120.547 43 127.84 43 138H51ZM60.9801 1056.62L61.9681 1048.68C61.0389 1048.56 60.2306 1048.13 59.6958 1047.57C59.1887 1047.05 59 1046.51 59 1046H51H43C43 1056.16 51.1329 1063.45 59.9922 1064.56L60.9801 1056.62ZM141 1136V1128C140.494 1128 139.954 1127.81 139.427 1127.3C138.872 1126.77 138.438 1125.96 138.322 1125.03L130.384 1126.02L122.445 1127.01C123.547 1135.87 130.84 1144 141 1144V1136ZM718.616 1126.02L710.678 1125.03C710.562 1125.96 710.128 1126.77 709.573 1127.3C709.046 1127.81 708.506 1128 708 1128V1136V1144C718.16 1144 725.453 1135.87 726.555 1127.01L718.616 1126.02ZM798 1046H790C790 1046.51 789.811 1047.05 789.304 1047.57C788.769 1048.13 787.961 1048.56 787.032 1048.68L788.02 1056.62L789.008 1064.56C797.867 1063.45 806 1056.16 806 1046H798ZM788.02 127.384L787.032 135.322C787.961 135.438 788.769 135.872 789.304 136.427C789.811 136.954 790 137.494 790 138H798H806C806 127.84 797.867 120.547 789.008 119.445L788.02 127.384ZM718.616 57.9801L726.555 56.9922C725.453 48.1329 718.16 40 708 40V48V56C708.506 56 709.046 56.1887 709.573 56.6958C710.128 57.2306 710.562 58.0389 710.678 58.9681L718.616 57.9801Z" fill="black" mask="url(#path-6-inside-1_1_2872)"/>
<path d="M690 102C695.523 102 699.911 106.512 700.837 111.957C705.019 136.563 724.437 155.981 749.043 160.163C754.488 161.089 759 165.477 759 171V1014C759 1019.52 754.488 1023.91 749.043 1024.84C724.711 1028.97 705.454 1048 700.984 1072.22C699.993 1077.59 695.633 1082 690.175 1082H158.825C153.367 1082 149.007 1077.59 148.016 1072.22C143.546 1048 124.288 1028.97 99.9568 1024.84C94.5121 1023.91 90 1019.52 90 1014V171C90 165.477 94.512 161.089 99.9568 160.163C124.563 155.981 143.981 136.563 148.163 111.957C149.089 106.512 153.477 102 159 102H690Z" fill="#DFE4C2"/>
<mask id="path-9-outside-2_1_2872" maskUnits="userSpaceOnUse" x="407" y="1006" width="37" height="32" fill="black">
<rect fill="white" x="407" y="1006" width="37" height="32"/>
<path d="M407.8 1012V1007.84H416.12V1037H411.52V1012H407.8ZM428.064 1029.08C428.331 1030.41 428.904 1031.43 429.784 1032.12C430.664 1032.81 431.851 1033.16 433.344 1033.16C435.238 1033.16 436.624 1032.41 437.504 1030.92C438.384 1029.43 438.824 1026.88 438.824 1023.28C438.184 1024.19 437.278 1024.89 436.104 1025.4C434.958 1025.88 433.704 1026.12 432.344 1026.12C430.611 1026.12 429.038 1025.77 427.624 1025.08C426.211 1024.36 425.091 1023.31 424.264 1021.92C423.464 1020.51 423.064 1018.8 423.064 1016.8C423.064 1013.87 423.918 1011.53 425.624 1009.8C427.358 1008.04 429.731 1007.16 432.744 1007.16C436.371 1007.16 438.944 1008.37 440.464 1010.8C442.011 1013.2 442.784 1016.89 442.784 1021.88C442.784 1025.32 442.491 1028.13 441.904 1030.32C441.344 1032.51 440.358 1034.16 438.944 1035.28C437.531 1036.4 435.571 1036.96 433.064 1036.96C430.211 1036.96 428.011 1036.21 426.464 1034.72C424.918 1033.23 424.051 1031.35 423.864 1029.08H428.064ZM433.144 1022.28C434.744 1022.28 435.998 1021.79 436.904 1020.8C437.838 1019.79 438.304 1018.45 438.304 1016.8C438.304 1014.96 437.811 1013.53 436.824 1012.52C435.864 1011.48 434.544 1010.96 432.864 1010.96C431.184 1010.96 429.851 1011.49 428.864 1012.56C427.904 1013.6 427.424 1014.97 427.424 1016.68C427.424 1018.31 427.891 1019.65 428.824 1020.72C429.784 1021.76 431.224 1022.28 433.144 1022.28Z"/>
</mask>
<path d="M407.8 1012V1007.84H416.12V1037H411.52V1012H407.8ZM428.064 1029.08C428.331 1030.41 428.904 1031.43 429.784 1032.12C430.664 1032.81 431.851 1033.16 433.344 1033.16C435.238 1033.16 436.624 1032.41 437.504 1030.92C438.384 1029.43 438.824 1026.88 438.824 1023.28C438.184 1024.19 437.278 1024.89 436.104 1025.4C434.958 1025.88 433.704 1026.12 432.344 1026.12C430.611 1026.12 429.038 1025.77 427.624 1025.08C426.211 1024.36 425.091 1023.31 424.264 1021.92C423.464 1020.51 423.064 1018.8 423.064 1016.8C423.064 1013.87 423.918 1011.53 425.624 1009.8C427.358 1008.04 429.731 1007.16 432.744 1007.16C436.371 1007.16 438.944 1008.37 440.464 1010.8C442.011 1013.2 442.784 1016.89 442.784 1021.88C442.784 1025.32 442.491 1028.13 441.904 1030.32C441.344 1032.51 440.358 1034.16 438.944 1035.28C437.531 1036.4 435.571 1036.96 433.064 1036.96C430.211 1036.96 428.011 1036.21 426.464 1034.72C424.918 1033.23 424.051 1031.35 423.864 1029.08H428.064ZM433.144 1022.28C434.744 1022.28 435.998 1021.79 436.904 1020.8C437.838 1019.79 438.304 1018.45 438.304 1016.8C438.304 1014.96 437.811 1013.53 436.824 1012.52C435.864 1011.48 434.544 1010.96 432.864 1010.96C431.184 1010.96 429.851 1011.49 428.864 1012.56C427.904 1013.6 427.424 1014.97 427.424 1016.68C427.424 1018.31 427.891 1019.65 428.824 1020.72C429.784 1021.76 431.224 1022.28 433.144 1022.28Z" fill="black"/>
<path d="M407.8 1012H407.5V1012.3H407.8V1012ZM407.8 1007.84V1007.54H407.5V1007.84H407.8ZM416.12 1007.84H416.42V1007.54H416.12V1007.84ZM416.12 1037V1037.3H416.42V1037H416.12ZM411.52 1037H411.22V1037.3H411.52V1037ZM411.52 1012H411.82V1011.7H411.52V1012ZM407.8 1012H408.1V1007.84H407.8H407.5V1012H407.8ZM407.8 1007.84V1008.14H416.12V1007.84V1007.54H407.8V1007.84ZM416.12 1007.84H415.82V1037H416.12H416.42V1007.84H416.12ZM416.12 1037V1036.7H411.52V1037V1037.3H416.12V1037ZM411.52 1037H411.82V1012H411.52H411.22V1037H411.52ZM411.52 1012V1011.7H407.8V1012V1012.3H411.52V1012ZM428.064 1029.08L428.359 1029.02L428.31 1028.78H428.064V1029.08ZM429.784 1032.12L429.599 1032.36L429.784 1032.12ZM437.504 1030.92L437.246 1030.77L437.504 1030.92ZM438.824 1023.28H439.124V1022.33L438.579 1023.11L438.824 1023.28ZM436.104 1025.4L436.22 1025.68L436.223 1025.68L436.104 1025.4ZM427.624 1025.08L427.488 1025.35L427.492 1025.35L427.624 1025.08ZM424.264 1021.92L424.003 1022.07L424.007 1022.07L424.264 1021.92ZM425.624 1009.8L425.411 1009.59L425.411 1009.59L425.624 1009.8ZM440.464 1010.8L440.21 1010.96L440.212 1010.96L440.464 1010.8ZM441.904 1030.32L441.615 1030.24L441.614 1030.25L441.904 1030.32ZM438.944 1035.28L439.131 1035.52L438.944 1035.28ZM426.464 1034.72L426.256 1034.94L426.464 1034.72ZM423.864 1029.08V1028.78H423.539L423.565 1029.1L423.864 1029.08ZM436.904 1020.8L436.684 1020.6L436.683 1020.6L436.904 1020.8ZM436.824 1012.52L436.604 1012.72L436.609 1012.73L436.824 1012.52ZM428.864 1012.56L428.644 1012.36L428.644 1012.36L428.864 1012.56ZM428.824 1020.72L428.599 1020.92L428.604 1020.92L428.824 1020.72ZM428.064 1029.08L427.77 1029.14C428.048 1030.53 428.651 1031.61 429.599 1032.36L429.784 1032.12L429.97 1031.88C429.157 1031.24 428.614 1030.3 428.359 1029.02L428.064 1029.08ZM429.784 1032.12L429.599 1032.36C430.547 1033.1 431.806 1033.46 433.344 1033.46V1033.16V1032.86C431.896 1032.86 430.782 1032.52 429.97 1031.88L429.784 1032.12ZM433.344 1033.16V1033.46C435.332 1033.46 436.823 1032.67 437.763 1031.07L437.504 1030.92L437.246 1030.77C436.426 1032.16 435.143 1032.86 433.344 1032.86V1033.16ZM437.504 1030.92L437.763 1031.07C438.687 1029.5 439.124 1026.89 439.124 1023.28H438.824H438.524C438.524 1026.87 438.082 1029.35 437.246 1030.77L437.504 1030.92ZM438.824 1023.28L438.579 1023.11C437.976 1023.96 437.116 1024.64 435.985 1025.12L436.104 1025.4L436.223 1025.68C437.439 1025.15 438.393 1024.41 439.069 1023.45L438.824 1023.28ZM436.104 1025.4L435.989 1025.12C434.882 1025.59 433.668 1025.82 432.344 1025.82V1026.12V1026.42C433.74 1026.42 435.034 1026.17 436.22 1025.68L436.104 1025.4ZM432.344 1026.12V1025.82C430.652 1025.82 429.125 1025.48 427.757 1024.81L427.624 1025.08L427.492 1025.35C428.951 1026.06 430.57 1026.42 432.344 1026.42V1026.12ZM427.624 1025.08L427.761 1024.81C426.399 1024.12 425.32 1023.11 424.522 1021.77L424.264 1021.92L424.007 1022.07C424.862 1023.51 426.024 1024.6 427.488 1025.35L427.624 1025.08ZM424.264 1021.92L424.525 1021.77C423.756 1020.41 423.364 1018.76 423.364 1016.8H423.064H422.764C422.764 1018.84 423.173 1020.6 424.003 1022.07L424.264 1021.92ZM423.064 1016.8H423.364C423.364 1013.93 424.198 1011.68 425.838 1010.01L425.624 1009.8L425.411 1009.59C423.638 1011.39 422.764 1013.81 422.764 1016.8H423.064ZM425.624 1009.8L425.838 1010.01C427.503 1008.32 429.793 1007.46 432.744 1007.46V1007.16V1006.86C429.67 1006.86 427.212 1007.76 425.411 1009.59L425.624 1009.8ZM432.744 1007.16V1007.46C436.299 1007.46 438.76 1008.64 440.21 1010.96L440.464 1010.8L440.719 1010.64C439.129 1008.1 436.443 1006.86 432.744 1006.86V1007.16ZM440.464 1010.8L440.212 1010.96C441.712 1013.29 442.484 1016.91 442.484 1021.88H442.784H443.084C443.084 1016.87 442.31 1013.11 440.717 1010.64L440.464 1010.8ZM442.784 1021.88H442.484C442.484 1025.31 442.192 1028.09 441.615 1030.24L441.904 1030.32L442.194 1030.4C442.79 1028.18 443.084 1025.33 443.084 1021.88H442.784ZM441.904 1030.32L441.614 1030.25C441.066 1032.38 440.108 1033.97 438.758 1035.04L438.944 1035.28L439.131 1035.52C440.607 1034.35 441.623 1032.63 442.195 1030.39L441.904 1030.32ZM438.944 1035.28L438.758 1035.04C437.415 1036.11 435.529 1036.66 433.064 1036.66V1036.96V1037.26C435.613 1037.26 437.647 1036.69 439.131 1035.52L438.944 1035.28ZM433.064 1036.96V1036.66C430.263 1036.66 428.147 1035.93 426.673 1034.5L426.464 1034.72L426.256 1034.94C427.875 1036.5 430.159 1037.26 433.064 1037.26V1036.96ZM426.464 1034.72L426.673 1034.5C425.182 1033.06 424.344 1031.25 424.163 1029.06L423.864 1029.08L423.565 1029.1C423.758 1031.44 424.654 1033.39 426.256 1034.94L426.464 1034.72ZM423.864 1029.08V1029.38H428.064V1029.08V1028.78H423.864V1029.08ZM433.144 1022.28V1022.58C434.811 1022.58 436.151 1022.06 437.125 1021L436.904 1020.8L436.683 1020.6C435.845 1021.51 434.678 1021.98 433.144 1021.98V1022.28ZM436.904 1020.8L437.125 1021C438.119 1019.92 438.604 1018.51 438.604 1016.8H438.304H438.004C438.004 1018.39 437.556 1019.65 436.684 1020.6L436.904 1020.8ZM438.304 1016.8H438.604C438.604 1014.91 438.095 1013.4 437.039 1012.31L436.824 1012.52L436.609 1012.73C437.527 1013.67 438.004 1015.01 438.004 1016.8H438.304ZM436.824 1012.52L437.045 1012.32C436.017 1011.2 434.611 1010.66 432.864 1010.66V1010.96V1011.26C434.478 1011.26 435.711 1011.76 436.604 1012.72L436.824 1012.52ZM432.864 1010.96V1010.66C431.115 1010.66 429.697 1011.22 428.644 1012.36L428.864 1012.56L429.085 1012.76C430.005 1011.77 431.254 1011.26 432.864 1011.26V1010.96ZM428.864 1012.56L428.644 1012.36C427.623 1013.46 427.124 1014.91 427.124 1016.68H427.424H427.724C427.724 1015.03 428.186 1013.74 429.085 1012.76L428.864 1012.56ZM427.424 1016.68H427.124C427.124 1018.37 427.61 1019.79 428.599 1020.92L428.824 1020.72L429.05 1020.52C428.172 1019.52 427.724 1018.25 427.724 1016.68H427.424ZM428.824 1020.72L428.604 1020.92C429.639 1022.04 431.172 1022.58 433.144 1022.58V1022.28V1021.98C431.277 1021.98 429.93 1021.48 429.045 1020.52L428.824 1020.72Z" fill="black" mask="url(#path-9-outside-2_1_2872)"/>
<path d="M215.365 222.65C215.365 227.13 214.315 231.225 212.215 234.935C210.185 238.575 207.07 241.515 202.87 243.755C198.74 245.925 193.665 247.01 187.645 247.01H177.46V272H156.88V197.975H187.645C193.595 197.975 198.635 199.025 202.765 201.125C206.965 203.225 210.115 206.13 212.215 209.84C214.315 213.55 215.365 217.82 215.365 222.65ZM185.65 230.63C191.46 230.63 194.365 227.97 194.365 222.65C194.365 217.26 191.46 214.565 185.65 214.565H177.46V230.63H185.65ZM234.028 207.635C230.388 207.635 227.448 206.655 225.208 204.695C223.038 202.665 221.953 200.145 221.953 197.135C221.953 194.055 223.038 191.5 225.208 189.47C227.448 187.44 230.388 186.425 234.028 186.425C237.598 186.425 240.468 187.44 242.638 189.47C244.878 191.5 245.998 194.055 245.998 197.135C245.998 200.145 244.878 202.665 242.638 204.695C240.468 206.655 237.598 207.635 234.028 207.635ZM244.213 213.095V272H223.633V213.095H244.213ZM294.468 212.57C301.258 212.57 306.648 214.845 310.638 219.395C314.628 223.875 316.623 229.965 316.623 237.665V272H296.043V240.395C296.043 237.035 295.168 234.41 293.418 232.52C291.668 230.56 289.323 229.58 286.383 229.58C283.303 229.58 280.888 230.56 279.138 232.52C277.388 234.41 276.513 237.035 276.513 240.395V272H255.933V213.095H276.513V221.495C278.333 218.835 280.783 216.7 283.863 215.09C286.943 213.41 290.478 212.57 294.468 212.57ZM384.195 241.865C384.195 243.475 384.09 245.085 383.88 246.695H344.925C345.135 249.915 346.01 252.33 347.55 253.94C349.16 255.48 351.19 256.25 353.64 256.25C357.07 256.25 359.52 254.71 360.99 251.63H382.935C382.025 255.69 380.24 259.33 377.58 262.55C374.99 265.7 371.7 268.185 367.71 270.005C363.72 271.825 359.31 272.735 354.48 272.735C348.67 272.735 343.49 271.51 338.94 269.06C334.46 266.61 330.925 263.11 328.335 258.56C325.815 254.01 324.555 248.655 324.555 242.495C324.555 236.335 325.815 231.015 328.335 226.535C330.855 221.985 334.355 218.485 338.835 216.035C343.385 213.585 348.6 212.36 354.48 212.36C360.29 212.36 365.435 213.55 369.915 215.93C374.395 218.31 377.895 221.74 380.415 226.22C382.935 230.63 384.195 235.845 384.195 241.865ZM363.195 236.72C363.195 234.2 362.355 232.24 360.675 230.84C358.995 229.37 356.895 228.635 354.375 228.635C351.855 228.635 349.79 229.335 348.18 230.735C346.57 232.065 345.52 234.06 345.03 236.72H363.195ZM389.257 242.495C389.257 236.405 390.342 231.085 392.512 226.535C394.752 221.985 397.762 218.485 401.542 216.035C405.392 213.585 409.662 212.36 414.352 212.36C418.412 212.36 421.912 213.165 424.852 214.775C427.792 216.385 430.067 218.555 431.677 221.285V213.095H452.257V272H431.677V263.81C430.067 266.54 427.757 268.71 424.747 270.32C421.807 271.93 418.342 272.735 414.352 272.735C409.662 272.735 405.392 271.51 401.542 269.06C397.762 266.61 394.752 263.11 392.512 258.56C390.342 253.94 389.257 248.585 389.257 242.495ZM431.677 242.495C431.677 238.715 430.627 235.74 428.527 233.57C426.497 231.4 423.977 230.315 420.967 230.315C417.887 230.315 415.332 231.4 413.302 233.57C411.272 235.67 410.257 238.645 410.257 242.495C410.257 246.275 411.272 249.285 413.302 251.525C415.332 253.695 417.887 254.78 420.967 254.78C423.977 254.78 426.497 253.695 428.527 251.525C430.627 249.355 431.677 246.345 431.677 242.495ZM484.564 221.285C486.174 218.555 488.449 216.385 491.389 214.775C494.329 213.165 497.794 212.36 501.784 212.36C506.474 212.36 510.709 213.585 514.489 216.035C518.339 218.485 521.349 221.985 523.519 226.535C525.759 231.085 526.879 236.405 526.879 242.495C526.879 248.585 525.759 253.94 523.519 258.56C521.349 263.11 518.339 266.61 514.489 269.06C510.709 271.51 506.474 272.735 501.784 272.735C497.794 272.735 494.329 271.93 491.389 270.32C488.519 268.71 486.244 266.54 484.564 263.81V300.14H463.984V213.095H484.564V221.285ZM505.984 242.495C505.984 238.645 504.934 235.67 502.834 233.57C500.804 231.4 498.284 230.315 495.274 230.315C492.264 230.315 489.709 231.4 487.609 233.57C485.579 235.74 484.564 238.715 484.564 242.495C484.564 246.345 485.579 249.355 487.609 251.525C489.709 253.695 492.264 254.78 495.274 254.78C498.284 254.78 500.804 253.695 502.834 251.525C504.934 249.285 505.984 246.275 505.984 242.495ZM555.932 221.285C557.542 218.555 559.817 216.385 562.757 214.775C565.697 213.165 569.162 212.36 573.152 212.36C577.842 212.36 582.077 213.585 585.857 216.035C589.707 218.485 592.717 221.985 594.887 226.535C597.127 231.085 598.247 236.405 598.247 242.495C598.247 248.585 597.127 253.94 594.887 258.56C592.717 263.11 589.707 266.61 585.857 269.06C582.077 271.51 577.842 272.735 573.152 272.735C569.162 272.735 565.697 271.93 562.757 270.32C559.887 268.71 557.612 266.54 555.932 263.81V300.14H535.352V213.095H555.932V221.285ZM577.352 242.495C577.352 238.645 576.302 235.67 574.202 233.57C572.172 231.4 569.652 230.315 566.642 230.315C563.632 230.315 561.077 231.4 558.977 233.57C556.947 235.74 555.932 238.715 555.932 242.495C555.932 246.345 556.947 249.355 558.977 251.525C561.077 253.695 563.632 254.78 566.642 254.78C569.652 254.78 572.172 253.695 574.202 251.525C576.302 249.285 577.352 246.275 577.352 242.495ZM627.299 194.3V272H606.719V194.3H627.299ZM695.299 241.865C695.299 243.475 695.194 245.085 694.984 246.695H656.029C656.239 249.915 657.114 252.33 658.654 253.94C660.264 255.48 662.294 256.25 664.744 256.25C668.174 256.25 670.624 254.71 672.094 251.63H694.039C693.129 255.69 691.344 259.33 688.684 262.55C686.094 265.7 682.804 268.185 678.814 270.005C674.824 271.825 670.414 272.735 665.584 272.735C659.774 272.735 654.594 271.51 650.044 269.06C645.564 266.61 642.029 263.11 639.439 258.56C636.919 254.01 635.659 248.655 635.659 242.495C635.659 236.335 636.919 231.015 639.439 226.535C641.959 221.985 645.459 218.485 649.939 216.035C654.489 213.585 659.704 212.36 665.584 212.36C671.394 212.36 676.539 213.55 681.019 215.93C685.499 218.31 688.999 221.74 691.519 226.22C694.039 230.63 695.299 235.845 695.299 241.865ZM674.299 236.72C674.299 234.2 673.459 232.24 671.779 230.84C670.099 229.37 667.999 228.635 665.479 228.635C662.959 228.635 660.894 229.335 659.284 230.735C657.674 232.065 656.624 234.06 656.134 236.72H674.299Z" fill="black"/>
<ellipse cx="378" cy="810.146" rx="61.5435" ry="119.427" transform="rotate(1.53098 378 810.146)" fill="white"/>
<ellipse cx="322.94" cy="536.75" rx="5.51493" ry="45.5181" transform="rotate(12.2358 322.94 536.75)" fill="white"/>
<ellipse cx="339.433" cy="577.173" rx="5.51493" ry="31.6327" transform="rotate(21.1296 339.433 577.173)" fill="white"/>
<ellipse cx="494.88" cy="377.187" rx="5.51493" ry="43.888" transform="rotate(18.2045 494.88 377.187)" fill="white"/>
<path d="M520.575 423.945C504.455 446.567 497.139 471.995 494.659 470.228C492.178 468.46 495.472 440.166 511.592 417.544C527.712 394.921 542.791 378.015 545.272 379.782C547.752 381.55 536.695 401.322 520.575 423.945Z" fill="white"/>
<path d="M530.577 465.243C521.197 475.105 503.944 498.154 502.15 496.448C500.357 494.742 514.704 468.928 524.083 459.067C533.463 449.205 542.52 442.594 544.313 444.299C546.107 446.005 539.957 455.382 530.577 465.243Z" fill="white"/>
<path d="M652.049 503.282C646.18 515.561 625.227 566.548 612.385 566.013C599.542 565.478 638.094 511.696 643.964 499.417C649.833 487.138 656.402 478.049 658.635 479.117C660.867 480.184 657.919 491.003 652.049 503.282Z" fill="white"/>
<path d="M670.876 559.752C658.405 568.154 620.845 623.679 612.385 623.806C603.925 623.933 647.703 559.752 664.335 553.626C673.639 543.692 682.645 537.011 684.451 538.703C686.257 540.394 680.18 549.818 670.876 559.752Z" fill="white"/>
<path d="M663.314 620.274C652.846 624.659 622.077 664.177 614.836 662.3C607.596 660.423 643.472 614.83 657.56 613.403C665.277 606.941 672.821 603.24 674.41 605.137C675.999 607.034 671.031 613.812 663.314 620.274Z" fill="white"/>
<path d="M633.203 674.371C638.605 678.102 687.836 779.525 648.773 790.227C609.709 800.93 622.701 692.065 625.054 678.102C612.385 670.453 619.292 660.695 621.542 659.665C623.792 658.635 629.013 665.219 633.203 674.371Z" fill="white"/>
<path d="M591.495 677.483C596.897 681.213 646.128 782.637 607.065 793.339C568.001 804.041 580.993 695.176 583.346 681.213C570.677 673.564 577.584 663.807 579.834 662.776C582.084 661.746 587.305 668.33 591.495 677.483Z" fill="white"/>
<path d="M395.429 322.014C400.027 321.652 407.458 328.254 411.042 331.247C431.149 348.043 445.272 369.186 455.32 393.082C463.506 369.178 487.135 332.005 512.085 322.014C513.758 322.498 515.565 322.947 516.416 324.639C520.079 331.923 500.685 386.65 496.039 402.592C510.313 394.356 519.188 385.786 536.182 378.694C554.12 371.208 554.945 379.669 544.909 391.938C528.769 411.666 515.191 436.817 504.667 459.777C507.967 457.831 512.269 454.481 515.74 452.706C518.432 451.355 557.23 434.051 554.055 445.115C553.172 448.193 548.059 450.391 545.456 451.96C547.226 454.15 550.039 456.512 552.106 458.503C575.185 480.663 585.617 503.472 593.202 533.556C602.623 512.423 635.008 486.73 654.511 476.89C683.507 462.262 635.159 546.008 632.524 552.559C638.052 549.724 688.59 526.07 690.238 540.029C690.604 543.138 686.96 546.626 684.778 548.373C663.68 565.794 644.891 587.59 630.129 610.588C638.583 607.832 669.526 599.641 676.508 602.423C687.131 606.658 656.99 627.324 654.191 629.667C644.743 637.577 635.881 647.928 629.007 658.131C691.966 719.646 674.661 886.469 609.09 939.008C563.984 975.149 477.58 967.065 437.549 926.09C433.381 921.806 430.11 915.273 426.272 910.399L425.893 909.921C420.441 911.564 413.144 917.793 406.98 920.7C381.061 932.925 353.015 937.115 324.812 931.973C265.752 918.784 241.448 860.082 230.118 806.915C220.132 760.06 217.405 699.801 244.631 658.131C234.805 654.386 224.971 647.675 214.917 643.798C209.637 641.762 180.841 631.887 177.814 629.448C162.644 617.225 210.571 606.932 221.511 607.616C203.376 589.09 176.345 577.848 158.632 562.055C156.069 559.771 156.52 553.436 160.021 552.135C176.831 545.881 205.876 554.363 221.511 558.787C211.998 547.613 182.749 509.286 178.956 496.592C175.584 485.306 195.939 493.406 199.741 495.062C222.876 505.133 237.148 519.226 255.025 536.195C252.471 506.259 266.162 474.947 281.629 450.096C283.374 447.293 286.616 441.956 290.248 445.734C294.697 450.362 296.661 509.677 296.793 519.953C304.959 511.64 321.313 488.57 333.688 487.836C337.535 487.609 337.291 492.5 336.682 495.115C331.35 518.011 325.484 541.015 322.903 564.444C330.356 558.854 350.253 537.376 358.552 543.952C362.099 546.763 356.979 556.732 355.166 560.45C347.431 576.316 338.309 592.558 337.18 610.588C338.88 611.036 340.72 611.424 342.443 611.821C351.089 567.977 367.857 532.955 403.482 506.01C391.788 493.406 382.172 481.549 369.621 468.936C366.445 465.743 338 444.695 352.617 440.372C368.685 435.616 385.62 445.87 399.987 451.96C388.294 431.401 376.447 411.273 362.944 391.817C354.7 379.942 354.946 372.775 372.032 378.171C388.212 383.281 402.823 392.109 416.055 402.592C411.975 389.448 387.113 329.494 395.429 322.014ZM604.274 732.905C611.465 730.894 601.899 710.573 595.944 710.504C586.347 715.731 600.223 730.702 604.274 732.905ZM379.644 637.165C375.394 632.817 369.593 625.987 363.023 626.453C358.66 635.139 373.88 643.199 378.351 643.635C379.833 641.438 379.569 639.856 379.644 637.165ZM383.046 814.776L383.78 814.604C384.773 812.801 385.075 811.128 385.779 809.231C390.843 795.604 400.891 772.913 403.482 759.331C393.009 750.992 366.881 734.13 354.756 727.577C346.92 746.15 339.829 765.216 332.671 784.075L366.831 804.574C372.412 807.994 377.776 810.854 383.046 814.776ZM538.582 458.337C527.722 467.202 514.928 487.038 508.547 499.344C517.266 503.537 531.185 512.92 537.684 519.953C542.458 523.171 548.224 530.052 552.336 534.471L543.087 480.247C542.111 474.773 540.518 463.493 539.275 458.615L538.582 458.337ZM649.211 713.518C648.619 714.277 647.805 715.383 647.187 716.073C644.49 717.747 643.756 718.455 642.082 721.165L642.227 721.851C647.083 744.531 649.67 758.597 646.654 782.829C646.511 783.97 646.582 784.467 647.187 785.319C647.476 786.942 647.572 788.164 647.696 789.811C651.203 787.798 652.595 784.613 654.076 781.106C658.891 762.089 655.441 731.342 649.211 713.518ZM618.368 619.659C622.895 598.471 664.652 559.171 683.355 541.645C681.312 542.059 679.584 542.51 677.577 543.048C654.941 560.646 621.451 593.937 613.145 622.775C614.541 622.159 617.658 620.9 618.368 619.659ZM317.306 571.774C316.178 549.885 331.882 503.258 330.703 494.959L329.904 495.229C329.229 499.972 324.332 509.564 322.903 516.023C317.508 532.287 312.082 560.017 313.141 576.95C314.489 574.839 315.258 573.104 317.306 571.774ZM391.422 692.46C391.704 696.013 397.294 703.867 401.626 700.984C403.411 696.131 394.935 692.894 391.422 692.46ZM286.184 470.703C287.051 485.436 283.962 528.318 287.701 539.315C288.414 537.072 291.892 530.375 291.836 528.737C291.168 509.273 290.316 483.539 287.701 464.578C287.303 465.886 286.415 470.127 286.184 470.703ZM640.513 714.771C642.103 713.386 643.641 711.939 645.186 710.504C645.461 710.144 646.809 708.788 647.187 708.39C644.174 696.632 640.151 686.679 634.28 676.103C629.426 670.192 626.989 666.995 619.248 669.293L618.701 669.434C620.103 670.217 620.998 670.011 622.558 670.796C627.127 677.048 638.875 706.631 640.513 714.771ZM623.722 652.628L624.187 652.881C625.273 652.57 627.895 648.991 628.804 647.79C640.694 632.068 655.658 620.315 670.654 607.616C668.15 608.236 665.871 608.7 663.334 609.188C656.427 615.359 624.841 644.069 623.722 652.628ZM318.723 718.398C314.181 725.973 325.59 733.177 331.679 732.905C337.378 727.273 324.529 718.521 318.723 718.398ZM502.481 495.229C506.434 497.513 510.606 484.75 513.377 480.617C522.635 466.81 531.441 457.345 544.303 446.99C541.834 447.366 538.221 448.588 535.634 449.296C535.616 449.74 535.6 450.183 535.584 450.629C520.879 464.096 511.763 477.61 502.481 495.229ZM544.303 382.313L541.48 383.776C522.126 408.739 508.401 422.676 498.279 455.524C497.134 459.243 494.165 465.927 496.039 469.43C496.823 467.425 497.451 465.074 498.139 462.997C508.324 432.246 526.62 408.547 544.303 382.313ZM482.982 415.764C490.123 408.946 489.281 408.411 491.504 399.063C496.283 378.977 504.777 359.724 508.547 339.387L508.13 339.372C502.672 352.243 482.298 403.005 482.982 415.764ZM341.325 659.611C329.413 666.527 354.736 678.608 358.325 679.626C369.795 673.176 347.955 660.517 341.325 659.611ZM656.918 483.272C648.051 500.49 614.176 553.538 613.145 565.894C626.57 554.259 621.595 558.697 630.242 542.458C634.408 534.635 657.649 488.588 657.353 482.822L656.918 483.272Z" fill="url(#paint0_linear_1_2872)"/>
<path d="M286.184 451.959C287.172 456.951 287.636 459.498 287.701 464.578C287.303 465.886 286.415 470.127 286.184 470.703C287.051 485.436 283.963 528.318 287.701 539.315C285.758 549.752 274.438 583.274 281.17 590.224C284.795 590.845 285.277 572.97 285.684 569.928C290.219 536.04 303.748 515.178 329.904 495.228C329.229 499.972 324.332 509.564 322.903 516.022C317.508 532.286 312.082 560.016 313.141 576.95C314.489 574.839 315.258 573.104 317.306 571.774C317.559 574.489 317.285 579.392 317.306 582.438C322.953 575.498 326.273 567.176 334.02 561.501C334.825 560.911 358.042 542.05 353.138 550.174C345.597 570.523 337.347 581.17 332.671 603.736C332.718 605.651 332.725 607.267 332.671 609.188C317.515 609.556 308.555 612.955 295.005 618.657C288.998 621.623 284.175 624.104 278.488 627.687C272.769 615.557 238.241 575.847 238.023 573.409C247.98 578.772 257.343 587.101 264.271 595.962C265.829 597.955 268.55 604.201 271.485 601.018C274.72 586.153 238.03 570.089 231.178 562.018C218.315 546.866 192.702 514.026 184.924 495.228C208.97 504.579 227.163 516.815 245.893 535.024C248.535 537.593 257.935 550.227 259.897 549.647L260.37 548.31C256.687 522.391 266.927 488.767 278.871 466.177C281.377 461.44 283.98 456.855 286.184 451.959Z" fill="#58D85E"/>
<path d="M286.184 451.959C287.172 456.951 287.636 459.498 287.701 464.578C287.303 465.886 286.415 470.127 286.184 470.703C275.918 483.609 270.424 515.807 265.73 531.9C264.653 535.596 264.906 547.503 260.602 547.951L260.37 548.31C256.687 522.391 266.927 488.767 278.871 466.177C281.377 461.44 283.98 456.855 286.184 451.959Z" fill="#36C048"/>
<path d="M332.671 603.737C329.945 591.712 345.146 553.277 353.137 550.174C345.597 570.523 337.346 581.171 332.671 603.737Z" fill="#FEFDFC"/>
<path d="M574.818 584.893C572.153 578.454 570.643 569.963 567.941 563.019C562.367 548.697 560.675 547.6 557.874 531.875L548.665 478.173C547.716 472.845 546.285 466.099 546.068 460.853L546.475 460.905C549.377 463.191 550.381 464.867 552.336 467.895C575.627 483.649 587.437 529.2 588.185 555.644C591.776 551.095 594.56 542.125 597.975 536.587C610.993 515.483 633.359 491.92 656.918 483.272C648.051 500.49 614.176 553.538 613.145 565.894C610.406 569.069 583.11 592.688 591.3 595.721C594.063 595.353 632.829 544.671 677.577 543.048C654.941 560.646 621.451 593.936 613.145 622.775C614.541 622.159 617.658 620.9 618.368 619.658C622.749 617.783 660.158 608.914 663.334 609.188C656.427 615.358 624.841 644.069 623.722 652.627C612.746 642.052 594.22 635.489 579.613 632.088C575.769 631.998 571.836 631.569 567.997 631.217C572.471 616.236 574.581 608.794 574.818 592.773C574.671 590.855 574.808 586.934 574.818 584.893Z" fill="#58D85E"/>
<path d="M574.818 584.893C572.153 578.453 570.643 569.962 567.941 563.019C562.367 548.697 560.675 547.6 557.874 531.875L548.665 478.173C547.716 472.845 546.285 466.099 546.068 460.853L546.475 460.905C549.377 463.191 550.381 464.867 552.336 467.895C546.641 464.757 555.905 484.177 556.8 487.815C559.895 500.419 580.465 576.655 574.818 584.893Z" fill="#36C048"/>
<path d="M574.818 592.773L574.886 593.298C576.851 607.692 578.879 616.121 579.613 632.089C575.769 631.999 571.836 631.57 567.997 631.217C572.471 616.236 574.581 608.794 574.818 592.773Z" fill="#36C048"/>
<path d="M398.262 329.214C417.893 339.145 437.035 367.78 447.083 388.065C450.693 395.351 452.801 405.087 456.426 411.761L456.676 412.212C462.468 380.007 481.679 346.151 510.622 329.214C510 333.054 509.655 335.657 508.547 339.387L508.129 339.372C502.672 352.242 482.298 403.004 482.982 415.763C480.566 419.282 457.345 452.284 466.348 454.535C468.188 453.466 470.58 446.4 471.561 444.145C481.499 421.293 516.128 388.341 541.48 383.775C522.126 408.739 508.401 422.676 498.279 455.524C497.134 459.243 494.165 465.927 496.039 469.429L496.896 470.774C497.511 470.713 519.886 452.458 535.634 449.296C535.616 449.739 535.6 450.183 535.584 450.628C520.879 464.096 511.763 477.609 502.48 495.228C501.375 493.95 498.947 493.129 497.342 492.555C494.371 494.447 494.096 494.86 492.589 497.986C482.415 491.897 470.082 490.223 458.435 489.727H455.32C453.824 481.673 452.639 471.428 451.618 463.239L452.748 462.255C456.48 447.525 427.366 418.289 424.795 410.623C418.428 391.643 411.725 372.724 405.73 353.624C403.127 345.293 401.877 337.179 398.262 329.214Z" fill="#58D85E"/>
<path d="M642.083 721.165L642.227 721.852C647.083 744.532 649.67 758.598 646.654 782.83C646.511 783.971 646.582 784.467 647.188 785.319L645.186 786.084C643.493 789.574 644.033 792.438 645.186 795.843L640.513 801.342C641.066 802.632 641.926 804.118 642.975 805.054C644.428 803.694 645.616 802.593 647.188 801.342C648.982 813.234 656.547 834.473 654.076 845.526C651.007 863.888 641.063 881.415 634.28 898.295C631.745 894.391 629.881 889.482 627.94 885.189L616.604 860.216C613.49 853.373 610.47 845.793 606.127 839.727C617.109 831.469 630.2 817.523 640.513 807.791C640.33 805.45 639.711 804.132 638.501 802.142L630.129 810.026C621.855 818.859 611.512 826.104 604.274 835.204C596.239 817.716 586.431 794.934 576.357 778.593C585.109 768.265 601.283 756.395 611.844 747.067C615.426 743.814 618.448 740.851 622.558 738.249C628.466 752.984 636.112 772.409 642.851 786.6L643.359 786.592L644.278 785.319C646.365 771.175 633.261 746.659 625.889 733.903C629.435 730.697 638.046 722.997 642.083 721.165Z" fill="#FCCC35"/>
<path d="M611.844 747.067C612.593 750.96 618.045 759.715 619.248 763.938C618.364 766.139 617.142 769.179 617.614 771.601C618.8 777.693 627.406 805.273 630.129 810.025C621.855 818.858 611.512 826.104 604.274 835.204C596.239 817.716 586.431 794.933 576.357 778.592C585.109 768.265 601.283 756.395 611.844 747.067Z" fill="#FAB618"/>
<path d="M642.083 721.165L642.227 721.852C647.083 744.532 649.67 758.598 646.654 782.83C646.511 783.971 646.582 784.467 647.188 785.319L645.186 786.084C643.493 789.574 644.033 792.438 645.186 795.843L640.513 801.342C639.466 794.055 630.085 758.403 621.104 761.661C619.947 762.08 619.623 762.873 619.248 763.939C622.534 772.347 623.924 781.342 629.007 788.744C630.279 787.834 631.324 787.081 632.524 786.084C634.022 791.682 635.785 796.99 638.5 802.142L630.129 810.026C627.406 805.273 618.8 777.694 617.613 771.601C617.142 769.179 618.364 766.139 619.248 763.939C618.045 759.715 612.593 750.96 611.844 747.067C615.426 743.814 618.448 740.851 622.558 738.249C628.466 752.984 636.112 772.409 642.851 786.6L643.359 786.592L644.278 785.319C646.365 771.175 633.261 746.659 625.889 733.903C629.435 730.697 638.046 722.997 642.083 721.165Z" fill="#FCCC35"/>
<path d="M619.248 763.938C619.622 762.872 619.947 762.079 621.104 761.66C630.084 758.403 639.466 794.055 640.512 801.341C641.065 802.631 641.926 804.117 642.974 805.053C649.344 813.749 652.223 832.271 650.677 842.38L649.211 851.375C647.211 854.022 643.021 867.427 640.512 872.104C643.891 854.404 644.185 825.368 640.512 807.791C640.33 805.45 639.71 804.132 638.5 802.142C635.785 796.99 634.022 791.681 632.524 786.084C631.324 787.08 630.279 787.834 629.007 788.743C623.924 781.342 622.534 772.347 619.248 763.938Z" fill="#FEFDFC"/>
<path d="M647.188 801.341C648.982 813.233 656.547 834.472 654.076 845.525C652.409 838.106 653.914 822.582 649.107 814.336L648.511 813.992C647.791 816.433 656.684 838.451 649.212 851.375L650.677 842.379C652.223 832.271 649.344 813.749 642.975 805.053C644.428 803.694 645.616 802.593 647.188 801.341Z" fill="#FEE05F"/>
<path d="M408.12 503.276C399.773 489.445 375.491 466.223 363.343 455.219C361.642 453.679 355.119 447.985 354.699 446.376C363.412 436.453 408.447 464.059 410.4 463.878C413.776 459.061 380.061 407.509 376.199 401.643C365.006 384.647 354.597 375.48 381.636 388.153C408.294 399.4 431.968 422.225 443.906 448.82C445.824 453.092 446.711 461.511 451.619 463.24C452.639 471.429 453.824 481.674 455.32 489.727H458.435C438.284 489.183 424.929 492.245 408.12 503.276Z" fill="#21A32F"/>
<path d="M381.635 388.153C408.294 399.4 431.968 422.225 443.906 448.82C445.824 453.092 446.711 461.511 451.619 463.24C452.639 471.429 453.824 481.674 455.32 489.727C452.975 489.469 450.345 489.407 448.008 489.727C441.235 471.716 419.325 440.82 408.466 423.006C404.473 416.455 381.406 390.645 381.635 388.153Z" fill="#36C048"/>
<path d="M498.969 499.344C502.45 501.081 504.374 502.165 507.434 504.597C560.612 536.79 575.745 571.048 564.461 629.687L564.325 631.363C563.973 631.629 534.369 631.19 526.581 633.371C516.557 610.898 501.213 590.888 490.885 568.602L491.124 568.179C493.372 568.007 496.832 569.702 498.969 570.598C509.624 575.147 524.434 581.212 533.152 589.262C535.261 591.211 535.957 596.18 538.582 598.987C539.725 598.526 540.597 598.366 541.184 597.338C542.689 584.412 506.309 512.236 498.969 499.344Z" fill="#21A32F"/>
<path d="M507.434 504.597C560.612 536.791 575.745 571.048 564.461 629.687C563.396 627.774 562.692 624.848 562.024 622.721C551.457 589.063 542.519 553.668 521.658 524.589C519.166 521.116 507.341 507.89 507.434 504.597Z" fill="#58D85E"/>
<path d="M498.969 570.598C509.624 575.147 524.433 581.212 533.151 589.262C535.261 591.211 535.957 596.18 538.582 598.987C541.722 606.934 505.483 575.744 500.513 573.158C499.479 572.62 499.09 571.73 498.969 570.598Z" fill="#58D85E"/>
<path d="M177.777 568.097C174.412 565.915 164.913 560.351 162.97 557.736L162.929 556.905C170.821 549.12 230.037 565.135 238.022 573.409C238.24 575.848 272.769 615.558 278.487 627.687C274.565 630.357 271.268 632.541 267.75 635.778C259.153 642.294 254.457 646.277 247.833 654.908C227.516 642.128 206.356 633.499 183.489 626.27C182.666 626.011 181.934 625.516 181.457 624.798L181.732 623.891C196.21 608.613 226.206 612.733 243.745 619.659C234.642 610.233 219.317 598.153 209.132 589.783C203.949 586.127 198.768 582.626 193.67 578.831C188.437 575.545 182.912 571.611 177.777 568.097Z" fill="#36C048"/>
<path d="M209.133 589.782C218.896 586.763 261.568 628.716 267.75 635.778C259.153 642.294 254.458 646.277 247.833 654.908C227.517 642.127 206.357 633.499 183.489 626.27C182.667 626.011 181.935 625.515 181.458 624.797L181.733 623.891C196.21 608.613 226.206 612.733 243.745 619.659C234.643 610.233 219.318 598.152 209.133 589.782Z" fill="#21A32F"/>
<path d="M177.777 568.097C181.96 565.517 193.338 574.868 193.671 578.832C188.437 575.546 182.912 571.611 177.777 568.097Z" fill="#21A32F"/>
<path d="M602.666 843.588L617.382 875.775C620.599 882.88 624.474 891.03 627.114 898.295L630.129 904.189C623.506 921.384 602.372 937.388 587.005 945.889C584.261 941.135 582.917 939.177 581.506 933.823C576.976 928.752 565.556 904.733 562.36 897.658C560.337 894.066 557.593 888.858 555.364 885.513C571.758 871.924 586.686 857.438 602.666 843.588Z" fill="#FCCC35"/>
<path d="M627.114 898.295L630.129 904.188C623.505 921.384 602.372 937.387 587.004 945.889C584.261 941.135 582.917 939.177 581.506 933.823C586.838 932.856 604.098 923.171 608.267 919.306C615.241 914.108 620.989 904.592 627.114 898.295Z" fill="#E98F0D"/>
<path d="M562.36 897.659C573.211 901.453 578.878 913.05 599.399 917.231C601.591 917.678 606.426 918.441 608.267 919.307C604.098 923.172 586.838 932.857 581.506 933.824C576.976 928.753 565.556 904.733 562.36 897.659Z" fill="#FAB618"/>
<path d="M606.127 866.722C612.164 867.356 618.097 882.669 619.248 888.042C618.541 889.833 618.367 890.149 617.233 891.706C610.918 891.524 603.848 871.097 604.001 868.367C604.796 867.12 604.604 867.488 606.127 866.722Z" fill="#FCFCF1"/>
<path d="M571.595 781.105C580.971 800.305 590.209 819.651 599.882 838.694C594.831 843.165 555.52 879.314 553.027 879.616L552.336 878.482C541.663 861.947 532.271 840.573 522.064 822.857C538.153 810.682 556.55 794.513 571.595 781.105Z" fill="#FCCC35"/>
<path d="M571.595 806.163C574.544 806.378 588.346 819.032 579.613 825.495C575.341 827.224 563.681 810.342 571.595 806.163Z" fill="#FCFCF1"/>
<path d="M538.582 721.165C542.84 725.461 564.742 768.924 568.516 776.486C552.706 790.805 535.53 803.669 519.7 818.01C518.578 816.4 512.169 803.491 510.861 801.016L498.343 777.253C495.607 772.009 492.392 766.275 490.4 760.769C502.773 748.709 524.537 731.44 538.582 721.165Z" fill="#FCCC35"/>
<path d="M536.692 757.458C537.861 755.618 538.936 754.742 540.68 753.516C545.048 756.315 547.785 760.987 549.719 765.669C550.49 768.52 551.061 770.465 551.406 773.381C549.314 773.75 547.574 773.518 545.456 773.381C541.197 769.627 538.122 762.853 536.692 757.458Z" fill="#FCFCF1"/>
<path d="M551.406 773.382C545.243 772.533 544.715 770.04 549.719 765.669C550.49 768.52 551.061 770.466 551.406 773.382Z" fill="#FEFDFC"/>
<path d="M481.995 858.074C492.777 848.305 506.365 835.479 517.971 826.927C527.656 842.509 539.268 870.985 549.72 883.917L516.874 911.24C512.591 914.761 506.835 919.98 502.481 922.824C497.764 914.354 492.252 906.747 487.558 898.295C481.178 887.881 476.601 878.249 470.644 868.031C474.45 864.888 478.292 861.372 481.995 858.074Z" fill="#FCCC35"/>
<path d="M481.995 858.075C483.97 863.027 487.956 896.963 487.558 898.295C481.178 887.882 476.601 878.25 470.644 868.031C474.45 864.888 478.292 861.373 481.995 858.075Z" fill="#FAB618"/>
<path d="M522.065 868.031C530.121 866.962 534.312 871.153 536.692 878.483C535.997 880.508 535.634 881.322 533.958 882.641C530.51 882.004 510.864 871.796 522.065 868.031Z" fill="#FEFDFC"/>
<path d="M442.22 807.791C450.687 798.908 475.889 771.017 485.931 765.669C486.604 766.974 488.322 769.478 489.186 770.811C496.205 788.41 507.49 804.327 515.158 821.704C506.866 829.811 491.998 841.961 482.982 849.571C478.162 854.556 473.476 857.91 468.579 863.487C464.015 854.993 460.876 847.498 456.873 838.845L442.22 807.791Z" fill="#FAB618"/>
<path d="M482.982 849.57C481.131 842.297 485.325 774.46 489.185 770.81C496.205 788.41 507.49 804.326 515.158 821.703C506.866 829.811 491.998 841.961 482.982 849.57Z" fill="#FCCC35"/>
<path d="M591.509 683.259C598.283 688.987 615.072 724.219 619.248 732.904C613.857 737.597 574.53 772.836 573.345 773.088L572.589 772.248C569.73 765.996 566.027 759.355 562.761 753.255L543.003 717.081C557.637 707.384 576.609 690.438 591.509 683.259ZM604.274 732.904C611.465 730.894 601.899 710.573 595.943 710.503C586.347 715.731 600.223 730.702 604.274 732.904Z" fill="#FCCC35"/>
<path d="M331.679 788.743C347.22 799.409 365.486 809.141 381.635 819.296C375.95 833.508 370.338 849.04 364.907 863.486C363.378 867.929 361.645 872.281 359.938 876.658C343.772 866.807 327.861 858.058 311.641 847.645C312.982 842.39 315.344 835.808 317.306 830.737C319.787 819.824 326.945 799.208 331.679 788.743Z" fill="#FCCC35"/>
<path d="M311.641 847.646C312.982 842.39 315.344 835.808 317.306 830.737C331.229 840.123 348.276 858.999 364.907 863.487C363.378 867.93 361.645 872.281 359.938 876.658C343.772 866.808 327.861 858.059 311.641 847.646Z" fill="#FAB618"/>
<path d="M347.091 820.408C338.274 815.206 344.212 810.578 352.367 811.781C374.533 815.692 371.998 843.652 347.091 820.408Z" fill="white"/>
<path d="M347.091 820.408C338.274 815.206 344.212 810.578 352.367 811.781L354.168 813.167L353.216 813.521C352.269 819.168 350.873 816.102 349.007 817.493C348.488 820.573 350.878 820.535 347.091 820.408Z" fill="#FCFCF1"/>
<path d="M354.756 727.577C366.881 734.129 393.009 750.992 403.482 759.331C400.891 772.912 390.843 795.604 385.779 809.23C385.075 811.128 384.773 812.801 383.781 814.604L383.046 814.776C377.776 810.853 372.412 807.994 366.831 804.574L332.671 784.074C339.829 765.216 346.92 746.149 354.756 727.577ZM386.023 753.516C380.571 752.718 383.552 751.792 383.063 754.741C382.448 758.427 379.955 758.728 383.046 761.971C390.338 764.471 393.92 757.718 386.023 753.516ZM371.787 745.912C365.193 743.452 361.592 748.411 365.827 751.978C371.618 753.305 369.837 746.5 378.603 750.629L379.147 750.175C377.266 748.324 373.571 748.639 371.787 745.912Z" fill="#FCCC35"/>
<path d="M371.787 745.913C375.966 747.324 382.768 750.491 386.023 753.516C380.571 752.719 383.552 751.793 383.063 754.741C382.448 758.428 379.955 758.729 383.047 761.972C380.747 760.961 367.816 753.406 365.827 751.979C371.618 753.306 369.837 746.501 378.603 750.63L379.147 750.176C377.266 748.325 373.571 748.64 371.787 745.913Z" fill="#FEFDFC"/>
<path d="M301.97 695.273C317.854 704.603 334.908 714.806 350.346 724.901C343.29 742.021 336.389 765.579 328.789 780.993L328.057 781.106C314.307 772.298 291.327 760.146 279.931 750.111C280.886 739.724 295.798 707.827 301.97 695.273ZM331.679 732.905C337.378 727.274 324.529 718.522 318.722 718.398C314.181 725.974 325.59 733.178 331.679 732.905Z" fill="#FCCC35"/>
<path d="M277.348 754.791C278.737 755.749 279.577 756.336 280.827 757.458C295.953 766.309 311.796 776.925 326.987 786.084C322.644 797.858 315.211 814.687 313.142 826.928C310.258 832.127 308.669 839.028 307.084 844.808C302.456 840.71 261.733 810.578 260.371 810.026C266.596 792.432 270.99 773.156 277.348 754.791Z" fill="#FAB618"/>
<path d="M280.827 757.457C295.953 766.308 311.796 776.925 326.987 786.083C322.644 797.857 315.211 814.686 313.142 826.927C295.887 808.288 288.796 786.604 281.768 762.864C281.176 760.868 280.146 759.515 280.827 757.457Z" fill="#FCCC35"/>
<path d="M510.623 669.293L512.085 672.427C518.043 685.191 529.43 704.134 536.693 716.073C525.265 724.076 498.815 744.384 490.4 754.791C489.793 755.105 488.207 756.16 487.558 756.569C481.886 745.479 470.607 721.956 467.174 710.504C467.144 708.605 465.548 704.763 464.839 702.971C467.168 700.463 468.922 699.209 471.714 697.288C476.661 691.555 503.308 673.027 510.623 669.293Z" fill="#FCCC35"/>
<path d="M510.623 669.293L512.085 672.427C498.825 679.778 488.042 742.284 490.4 754.791C489.793 755.105 488.207 756.16 487.558 756.569C481.886 745.479 470.607 721.956 467.174 710.504C467.144 708.605 465.548 704.763 464.839 702.971C467.168 700.463 468.922 699.209 471.714 697.288C476.661 691.555 503.308 673.027 510.623 669.293Z" fill="#FAB618"/>
<path d="M464.839 702.97C467.168 700.463 468.922 699.208 471.714 697.288C471.328 700.391 468.966 707.968 467.174 710.503C467.144 708.605 465.548 704.763 464.839 702.97Z" fill="#E98F0D"/>
<path d="M376.584 672.427C393.452 681.912 408.407 692.205 424.437 702.971C418.156 717.9 410.505 737.703 406.233 753.516C389.966 746.229 372.394 731.919 356.617 722.664C362.243 707.485 369.408 686.607 376.584 672.427ZM401.626 700.984C403.412 696.131 394.935 692.894 391.422 692.46C391.704 696.013 397.294 703.867 401.626 700.984Z" fill="#FCCC35"/>
<path d="M424.437 568.097C427.654 570.463 458.487 608.119 460.005 610.589C449.537 622.709 435.682 640.412 424.437 651.382C424.123 652.23 423.219 654.012 422.802 654.908C414.534 642.52 401.485 626.066 391.422 614.812C396.224 605.602 416.688 575.691 424.437 568.097Z" fill="#FAB618"/>
<path d="M432.584 598.987C434.934 596.619 435.375 596.45 438.739 595.989C443.86 600.732 446.393 604.092 449.009 610.588C443.298 622.557 433.447 605.644 432.584 598.987Z" fill="#FEFDFC"/>
<path d="M432.585 598.987C424.39 587.359 435.371 585.743 438.739 595.988C435.375 596.45 434.935 596.619 432.585 598.987Z" fill="#FEE05F"/>
<path d="M465.977 526.706C470.035 528.84 471.4 530.35 474.733 533.556C478.67 537.16 483.501 541.882 487.558 545.109C493.873 552.997 501.652 560.746 508.547 568.096C502.47 566.466 496.266 564.218 490.4 562.856C488.293 563.149 487.844 563.454 485.93 564.443C483.837 568.976 487.337 574.472 489.185 578.831C483.391 582.886 468.365 600.691 463.611 606.556C453.906 594.287 439.183 574.877 427.62 564.443C432.63 557.59 459.005 531.205 465.977 526.706Z" fill="#FCCC35"/>
<path d="M487.558 545.109C493.873 552.997 501.652 560.746 508.547 568.096C502.47 566.466 496.266 564.218 490.4 562.856C488.294 563.149 487.844 563.454 485.931 564.443C485.286 562.492 482.981 557.83 481.995 555.644C485.297 554.245 485.966 553.339 487.558 550.174L485.931 548.31C486.242 547.379 487.055 546.023 487.558 545.109Z" fill="#FCCC35"/>
<path d="M487.558 550.174C491.022 554.607 496.155 558.378 490.4 562.856C488.294 563.149 487.844 563.455 485.931 564.444C485.286 562.492 482.981 557.831 481.995 555.645C485.297 554.246 485.966 553.339 487.558 550.174Z" fill="#F7EFCB"/>
<path d="M474.733 533.556C478.671 537.161 483.501 541.882 487.558 545.109C487.056 546.023 486.242 547.379 485.931 548.311L487.558 550.174C485.966 553.339 485.297 554.246 481.995 555.645C476.399 551.043 474.521 547.714 470.644 541.645C471.495 540.315 473.66 537.668 474.733 536.195C474.036 535.729 472.498 534.916 471.714 534.472C472.717 534.47 473.769 533.938 474.733 533.556Z" fill="#FEFDFC"/>
<path d="M474.733 533.556C478.67 537.161 483.501 541.882 487.558 545.109C487.055 546.023 486.241 547.379 485.93 548.311C482.59 543.9 478.729 540.007 474.733 536.195C474.036 535.729 472.498 534.916 471.714 534.472C472.716 534.47 473.769 533.938 474.733 533.556Z" fill="#FEE05F"/>
<path d="M470.644 541.645C467.172 538.319 463.341 531.747 471.714 534.472C472.498 534.915 474.036 535.729 474.733 536.195C473.66 537.667 471.494 540.315 470.644 541.645Z" fill="#F7EFCB"/>
<path d="M460.005 707.178C462.011 709.884 471.703 735.459 473.897 740.349C476.835 746.9 480.822 754.004 482.982 760.769C470.98 771.138 455.559 785.219 445.288 797.43L440.991 802.142C434.781 791.758 430.189 773.346 426.44 761.684C425.367 758.342 430.152 747.972 431.502 744.208C438.028 726.04 443.714 717.549 460.005 707.178Z" fill="url(#paint1_linear_1_2872)"/>
<path d="M551.406 889.007C558.997 903.178 568.478 920.668 574.818 935.476C576.531 937.883 580.103 945.23 581.506 948.024C562.742 955.148 547.626 955.353 528.129 955.241C522.023 949.785 513.183 937.159 507.434 930.281L505.641 927.656C520.882 915.649 536.237 900.679 551.406 889.007Z" fill="#FAB618"/>
<path d="M507.434 930.281L507.944 930.343C532.868 933.517 546.65 939.76 574.818 935.476C576.531 937.883 580.102 945.23 581.506 948.024C562.742 955.148 547.626 955.353 528.129 955.241C522.023 949.785 513.183 937.16 507.434 930.281Z" fill="#E98F0D"/>
<path d="M310.136 853.111C326.661 863.196 340.51 872.968 358.325 881.07C353.978 890.507 350.042 901.442 345.923 911.183C344.154 915.031 341.494 923.481 340.136 927.655C325.234 926.326 309.34 921.281 296.793 913.213C297.623 906.777 298.531 900.782 299.609 894.38C301.418 882.116 306.596 865.353 310.136 853.111Z" fill="#FAB618"/>
<path d="M296.793 913.214C297.623 906.778 298.531 900.782 299.609 894.38C302.317 900.505 339.442 910.186 345.923 911.184C344.154 915.031 341.494 923.481 340.136 927.656C325.234 926.326 309.34 921.282 296.793 913.214Z" fill="#E98F0D"/>
<path d="M328.057 645.368C341.37 652.594 359.679 660.364 371.787 669.293C367.976 683.947 358.468 704.658 352.603 719.409C351.818 719.579 351.279 718.968 350.346 718.398C335.33 710.852 319.309 699.348 304.223 690.709C309.521 677.538 319.765 657.437 328.057 645.368ZM358.325 679.627C369.796 673.176 347.955 660.518 341.326 659.611C329.413 666.528 354.736 678.608 358.325 679.627Z" fill="#FCCC35"/>
<path d="M259.35 814.777C273.272 826.873 290.123 839.324 305.545 849.571C302.302 860.428 295.904 881.133 295.005 891.706C293.047 896.455 291.937 904.609 291.019 909.922C276.403 896.225 256.492 874.93 251.809 855.7C252.916 846.267 255.05 836.489 256.395 826.928C257.698 822.706 258.439 819.09 259.35 814.777Z" fill="#FAB618"/>
<path d="M256.395 826.927C260.388 848.181 277.563 879.555 295.005 891.705C293.047 896.455 291.937 904.608 291.019 909.921C276.403 896.225 256.492 874.929 251.809 855.699C252.916 846.266 255.05 836.488 256.395 826.927Z" fill="#E98F0D"/>
<path d="M558.822 643.636C564.571 648.366 584.515 671.887 588.185 678.288C572.593 689.977 556.139 700.259 540.68 712.734C535.641 703.011 529.569 692.785 524.035 683.259C520.828 677.196 517.474 672.263 515.158 665.726C518.214 663.759 520.651 662.863 524.035 661.551C530.333 656.638 551.389 645.573 558.822 643.636Z" fill="#FCCC35"/>
<path d="M524.035 661.551C523.913 666.538 524.646 680.244 524.035 683.259C520.828 677.195 517.474 672.263 515.158 665.725C518.214 663.759 520.651 662.863 524.035 661.551Z" fill="#FAB618"/>
<path d="M432.585 906.563C421.343 888.249 416.446 866.868 415.825 845.4C415.666 839.896 435.847 814.134 438.432 813.842L438.739 814.776C443.539 821.945 460.331 856.978 463.611 866.722C458.055 872.962 450.08 881.456 445.289 888.042C440.479 893.769 436.274 900.065 432.585 906.563Z" fill="#E98F0D"/>
<path d="M438.739 814.777C443.539 821.945 460.331 856.978 463.611 866.722C458.055 872.962 450.08 881.456 445.289 888.043C436.41 873.959 436.653 835.385 437.785 819.31C437.908 817.567 437.663 816.293 438.739 814.777Z" fill="#FAB618"/>
<path d="M386.023 822.857C393.949 826.67 401.385 831.422 409.071 835.203C408.926 851.553 409.093 860.725 412.908 876.657C414.226 881.515 416.254 887.883 417.266 892.597C419.472 895.914 421.097 898.909 422.802 902.508C416.638 901.469 412.038 899.841 406.233 897.658C395.64 894.079 374.11 884.445 364.907 878.482C366.013 874.865 367.932 870.317 369.334 866.722C374.667 852.238 381.089 837.22 386.023 822.857Z" fill="#FCCC35"/>
<path d="M369.334 866.722C381.314 870.735 400.431 876.874 412.908 876.658C414.226 881.515 416.254 887.883 417.266 892.597C419.472 895.914 421.097 898.91 422.802 902.508C416.638 901.469 412.038 899.841 406.233 897.658C395.64 894.079 374.11 884.445 364.907 878.483C366.013 874.865 367.932 870.317 369.334 866.722Z" fill="#FAB618"/>
<path d="M406.233 897.659C408.743 895.816 414.158 893.857 417.265 892.598C419.472 895.915 421.097 898.91 422.802 902.509C416.637 901.469 412.038 899.842 406.233 897.659Z" fill="#E98F0D"/>
<path d="M394.583 534.471C396.109 535.887 397.117 537.583 398.262 539.315C402.965 542.998 417.232 559.221 420.713 564.444C408.309 577.799 397.978 595.58 387.77 610.588L385.041 607.616C379.259 598.046 367.104 583.632 358.325 576.95C366.958 556.44 375.322 546.702 394.583 534.471Z" fill="#FCCC35"/>
<path d="M394.583 534.471C396.109 535.887 397.117 537.583 398.262 539.315C384.811 546.539 388.636 599.096 385.041 607.616C379.259 598.046 367.104 583.632 358.325 576.95C366.958 556.44 375.322 546.702 394.583 534.471Z" fill="#E98F0D"/>
<path d="M259.35 672.427C262.356 673.805 265.506 675.498 268.466 677.015C276.704 681.16 289.368 687.314 296.793 692.46C291.613 708.769 282.232 726.239 276.052 742.917C275.763 744.002 275.019 745.939 274.627 747.067C268.876 741.694 250.753 728.678 243.745 724.9C245.464 716.331 247.022 701.964 247.833 693.313C250.911 686.108 253.996 678.095 259.35 672.427Z" fill="#FAB618"/>
<path d="M268.466 677.014C276.704 681.16 289.368 687.314 296.793 692.46C291.613 708.769 282.232 726.239 276.052 742.917C270.912 738.406 264.57 684.418 268.466 677.014Z" fill="#FCCC35"/>
<path d="M463.611 614.812C471.514 621.932 483.491 638.889 490.4 647.782C474.309 661.406 463.009 671.843 451.619 690.709C450.771 691.86 451.293 691.611 450.196 691.94C441.785 682.187 435.673 668.395 425.894 657.397C438.344 644.319 451.147 626.969 463.611 614.812Z" fill="#FCCC35"/>
<path d="M448.009 894.38C452.225 887.065 460.772 877.884 467.174 872.104C477.186 892.682 487.243 907.386 498.969 926.162L496.039 927.655C491.364 932.709 482.503 938.647 476.691 943.404C457.788 934.855 448.712 926.999 436.03 911.183C439.835 905.017 443.199 899.836 448.009 894.38Z" fill="#FAB618"/>
<path d="M448.009 894.38C457.806 909.873 473.611 920.966 491.28 926.445C492.647 926.87 494.882 926.942 496.039 927.656C491.364 932.709 482.503 938.647 476.691 943.404C457.788 934.855 448.712 927 436.03 911.184C439.835 905.017 443.199 899.836 448.009 894.38Z" fill="#E98F0D"/>
<path d="M229.4 721.165C233.821 723.698 241.432 729.005 244.631 732.905C251.476 736.035 266.677 746.957 272.878 751.979C264.861 771.715 261.828 786.334 256.395 806.164C254.887 804.849 253.275 803.487 251.809 802.142C245.682 797.267 239.318 790.648 232.763 785.319C227.6 761.474 231.429 743.059 229.4 721.165Z" fill="#FAB618"/>
<path d="M229.4 721.165C233.821 723.698 241.432 729.005 244.631 732.905C240.243 738.073 250.221 788.931 251.809 802.142C245.682 797.267 239.318 790.648 232.763 785.319C227.6 761.474 231.429 743.059 229.4 721.165Z" fill="#E98F0D"/>
<path d="M286.184 634.745C296.359 636.016 313.519 639.396 322.903 643.636C315.807 658.79 306.626 672.219 299.609 688.554C288.919 681.517 279.043 677.106 268.467 670.797C265.218 669.771 263.404 668.858 260.371 667.31C264.355 661.827 270.037 654.429 274.627 649.748C278.184 643.928 282.764 640.375 286.184 634.745Z" fill="#FCCC35"/>
<path d="M274.627 649.747C274.817 652.788 269.935 667.855 268.467 670.796C265.218 669.77 263.404 668.858 260.371 667.31C264.355 661.826 270.037 654.429 274.627 649.747Z" fill="#FAB618"/>
<path d="M432.584 503.276C435.966 504.197 458.397 520.196 462.63 523.156C451.834 529.987 434.345 549.279 425.893 558.787C425.18 559.592 425.203 559.753 424.205 560.023C415.558 552.021 407.016 539.73 398.262 530.83C409.809 521.75 420.734 512.053 432.584 503.276Z" fill="#FCCC35"/>
<path d="M391.422 634.745C404.927 639.76 425.507 663.046 432.584 676.104C431.213 681.725 427.733 691.701 425.893 697.288L422.015 695.273C407.972 685.432 393.134 675.952 378.351 667.31C381.447 657.976 387.426 643.903 391.422 634.745Z" fill="#FCCC35"/>
<path d="M404.766 664.032C404.414 663.58 380.393 634.123 396.617 645.85C407.774 653.915 419.842 670.636 417.265 684.978C414.316 680.573 412.679 677.277 410.493 672.427C409.656 672.573 408.979 672.472 408.12 672.427C398.864 678.604 389.923 658.209 403.482 665.726L404.766 664.032Z" fill="#FEFDFC"/>
<path d="M404.766 664.031C407.794 666.806 408.966 668.538 410.493 672.426C409.656 672.572 408.979 672.471 408.12 672.426C407.227 669.973 405.474 667.419 403.482 665.725L404.766 664.031Z" fill="#FCCC35"/>
<path d="M491.46 582.438C493.306 583.977 518.597 630.069 519.7 634.745C510.933 636.626 502.532 639.978 495.34 645.368L494.568 645.465C486.276 633.893 476.269 621.569 467.174 610.589C474.322 600.564 483.523 592.01 491.46 582.438Z" fill="#FCCC35"/>
<path d="M363.023 883.917C373.771 889.795 388.452 897.014 399.987 901.188C405.259 903.022 410.925 904.697 416.055 906.563C400.07 921.268 366.796 928.329 345.923 927.655C346.949 923.134 349.531 914.908 352.367 911.183C353.954 904.943 360.078 889.83 363.023 883.917Z" fill="#E98F0D"/>
<path d="M363.023 883.917C373.771 889.795 388.452 897.014 399.987 901.188C389.336 908.093 364.637 909.691 352.367 911.183C353.954 904.943 360.078 889.83 363.023 883.917Z" fill="#FAB618"/>
<path d="M347.091 616.341C364.354 619.684 372.733 625.482 387.769 631.218C384.236 640.046 380.021 648.652 376.852 657.659C375.534 661.402 375.555 664.862 371.787 662.655C357.469 655.855 345.662 647.241 329.904 641.234C335.452 634.781 342.309 623.751 347.091 616.341ZM378.351 643.636C379.833 641.438 379.569 639.856 379.644 637.166C375.394 632.817 369.593 625.987 363.023 626.453C358.66 635.139 373.88 643.199 378.351 643.636Z" fill="#FCCC35"/>
<path d="M495.34 503.276C507.889 527.975 520.184 553.992 530.301 579.738C525.337 576.562 520.095 573.804 515.158 570.598C499.829 549.657 486.08 540.222 470.644 523.156C473.33 519.112 490.316 507.275 495.34 503.276Z" fill="#FCCC35"/>
<path d="M595.943 679.627C603.488 674.877 611.214 669.411 619.248 665.726C619.304 666.867 619.444 668.189 619.248 669.293L618.701 669.434C620.103 670.217 620.998 670.011 622.557 670.797C627.127 677.048 638.875 706.631 640.512 714.771C635.313 718.289 628.592 724.514 623.722 728.767C615.449 711.264 607.147 695.525 595.943 679.627Z" fill="#FCCC35"/>
<path d="M571.595 637.166C587.905 635.852 608.653 648.091 620.411 658.131C615.266 661.084 610.71 663.491 606.127 667.31C601.442 669.718 597.596 672.353 593.202 675.244C584.736 664.439 571.343 650.533 564.46 639.972C567.037 639.141 569.102 638.237 571.595 637.166Z" fill="#FCCC35"/>
<path d="M408.12 761.971C410.974 764.548 414.171 766.817 417.265 769.112C412.032 788.864 409.955 809.032 409.071 829.391C406.621 828.271 404.016 826.789 401.626 825.495C397.096 822.915 392.5 820.182 387.77 818.009C394.847 801.409 402.316 779.239 408.12 761.971Z" fill="#FCCC35"/>
<path d="M460.005 688.554C463.591 684.682 467.044 679.998 470.247 675.91C473.058 672.325 498.035 644.534 501.254 651.382C503.823 655.551 505.482 659.553 507.434 664.032C499.254 669.682 487.786 678.99 479.394 683.259C476.275 686.798 466.73 694.101 462.63 697.288C461.943 694.182 461.016 691.555 460.005 688.554Z" fill="#E98F0D"/>
<path d="M479.394 683.258L479.173 682.442C481.15 678.171 498.082 653.556 501.254 651.382C503.824 655.55 505.482 659.553 507.434 664.031C499.254 669.681 487.787 678.989 479.394 683.258Z" fill="#FCCC35"/>
<path d="M356.617 582.438C363.557 587.719 378.12 604.13 381.636 611.821C382.734 612.82 383.875 613.905 385.041 614.812C383.639 617.37 382.203 620.139 380.551 622.519L379.644 622.775C374.038 619.357 354.901 613.68 348.31 611.821C350.781 601.444 352.926 592.399 356.617 582.438Z" fill="#E98F0D"/>
<path d="M381.636 611.821C382.734 612.82 383.875 613.905 385.041 614.812C383.639 617.369 382.203 620.139 380.551 622.519L379.644 622.775C379.28 619.604 379.517 614.286 381.636 611.821Z" fill="#FAB618"/>
<path d="M329.904 614.812C333.159 614.387 339.037 614.669 342.443 614.812C337.815 622.598 329.867 632.149 326.986 639.973C320.214 637.447 314.004 635.417 307.084 633.371C300.353 631.803 294.529 630.678 287.701 629.688C298.584 621.229 316.353 616.049 329.904 614.812Z" fill="#FCCC35"/>
<path d="M451.619 495.228C462.875 494.423 479.612 496.725 490.4 500.288C484.654 505.854 476.966 509.535 471.714 516.022C468.685 517.889 468.729 517.516 465.977 519.952C456.003 512.499 447.311 506.326 436.978 499.344C442.072 495.982 445.687 495.308 451.619 495.228Z" fill="#FCCC35"/>
<path d="M522.065 639.972C535.342 635.807 550.589 635.524 564.461 635.779C545.061 643.58 533.691 649.454 515.158 659.611C514.927 659.829 512.518 661.283 512.085 661.551C509.782 656.352 507.555 651.379 504.667 646.475C509.689 643.936 516.666 641.245 522.065 639.972Z" fill="#FCCC35"/>
<path d="M504.667 646.475C509.689 643.936 516.666 641.245 522.065 639.972C520.126 643.644 514.993 656.067 515.158 659.611C514.927 659.829 512.518 661.283 512.085 661.551C509.782 656.352 507.555 651.379 504.667 646.475Z" fill="#E98F0D"/>
<path d="M422.802 772.248C424.256 773.294 434.47 803.448 436.03 807.791C431.371 812.785 425.358 819.616 422.015 825.495C419.275 828.633 418.339 830.044 416.055 833.567C415.082 820.557 419.506 786.655 422.802 772.248Z" fill="#E98F0D"/>
<path d="M427.62 705.891C431.413 708.094 435.163 710.941 438.739 713.518C430.661 728.062 423.783 746.046 418.987 761.971L418.692 762.486C418.085 762.491 410.361 758.076 409.071 757.457C414.407 747.56 425.061 716.947 427.62 705.891Z" fill="#FCCC35"/>
<path d="M246.586 667.31C249.157 668.171 251.141 669.371 253.415 670.796C248.989 677.821 245.291 685.107 243.745 693.312C245.008 693.427 246.543 693.343 247.833 693.312C247.022 701.964 245.464 716.331 243.745 724.9C240.725 722.064 234.877 716.754 231.426 714.771C233.425 700.99 238.718 678.571 246.586 667.31Z" fill="#E98F0D"/>
<path d="M234.275 794.351C237.788 796.384 251.135 808.305 255.025 811.781C252.126 821.23 250.108 828.808 249.425 838.695C248.647 840.49 248.179 842.891 247.833 844.808C242.445 832.44 236.118 807.273 234.275 794.351Z" fill="#E98F0D"/>
<path d="M649.211 713.519C651.166 712.441 652.223 711.806 654.076 710.504C658.112 736.237 663 749.799 662.479 778.593C660.154 781.339 657.512 783.689 654.829 786.084C653.765 784.488 654.041 783.052 654.076 781.106C658.891 762.09 655.441 731.343 649.211 713.519Z" fill="#FCCC35"/>
<path d="M502.481 931.973C501.853 931.721 519.301 954.597 519.7 955.241C514.893 954.402 509.47 953.087 504.667 952.012C498.567 950.658 488.449 948.41 482.982 945.889C486.825 942.28 497.911 934.112 502.481 931.973Z" fill="#E98F0D"/>
<path d="M436.03 681.504C438.359 683.31 445.269 695.703 446.844 698.889C444.72 701.946 442.88 705.18 440.991 708.389C437.212 705.832 433.587 703.399 429.714 700.983C431.766 694.493 433.786 687.925 436.03 681.504Z" fill="#FCCC35"/>
<path d="M279.931 634.745L280.23 634.899C280.208 635.811 260.05 659.969 256.395 665.726L251.808 664.032L249.425 662.655C256.803 651.061 267.349 640.509 279.931 634.745Z" fill="#FAB618"/>
<path d="M656.918 791.897C658.737 789.964 660.592 787.939 662.479 786.084C662.324 795.998 660.384 812.921 658.655 822.858C656.643 817.858 655.602 812.959 654.076 807.791C653.01 804.235 652.195 801.01 650.992 797.431C652.855 795.438 654.88 793.707 656.918 791.897Z" fill="#FAB618"/>
<path d="M656.918 791.896C657.013 794.879 655.292 805.162 654.076 807.791C653.01 804.235 652.195 801.01 650.992 797.43C652.855 795.437 654.88 793.707 656.918 791.896Z" fill="#FEE05F"/>
<path d="M427.62 499.344L428.377 499.492C428.299 499.667 397.58 525.41 395.441 526.9L394.583 526.706L391.422 523.156C399.284 513.969 416.11 503.022 427.62 499.344Z" fill="#E98F0D"/>
<path d="M636.26 676.103C642.365 684.416 648.583 696.129 651.968 705.891C650.236 706.607 648.533 707.132 647.187 708.39C644.174 696.632 640.151 686.678 634.28 676.103C635.043 676.298 635.416 676.172 636.26 676.103Z" fill="#FCCC35"/>
<path d="M388.707 619.659C393.278 624.242 397.272 630.594 402.1 634.826L404.766 637.166L401.626 635.778C395.917 631.518 390.675 629.111 385.041 625.303C386.099 622.517 386.615 621.778 388.707 619.659Z" fill="#FCCC35"/>
<path d="M456.677 693.312C457.207 695.972 457.772 698.353 458.435 700.984C455.281 704.851 450.633 708.144 446.844 712.734L446.393 713.013L446.097 712.749C446.639 709.649 454.555 696.046 456.677 693.312Z" fill="#E98F0D"/>
<path d="M619.248 665.726C621.795 664.194 623.038 663.655 625.889 662.655C628.625 667.143 633.064 671.58 636.26 676.104C635.416 676.173 635.043 676.298 634.28 676.104C629.425 670.192 626.989 666.995 619.248 669.293C619.444 668.189 619.304 666.867 619.248 665.726Z" fill="#FCCC35"/>
<path d="M387.769 527.599C389.142 528.602 390.193 529.664 391.422 530.83C385.101 534.844 381.905 537.869 376.584 543.048C371.579 547.288 386.998 528.382 387.769 527.599Z" fill="#FAB618"/>
<path d="M647.696 789.81C651.203 787.798 652.594 784.612 654.076 781.105C654.04 783.051 653.765 784.487 654.829 786.084C653.729 787.172 648.265 793.807 647.696 789.81Z" fill="#FCCC35"/>
<path d="M647.187 708.39C647.587 710.312 647.776 712.124 649.211 713.518C648.619 714.278 647.805 715.383 647.187 716.073C646.781 714.294 646.344 711.602 645.186 710.504C645.461 710.144 646.809 708.788 647.187 708.39Z" fill="#977CBD"/>
<defs>
<linearGradient id="paint0_linear_1_2872" x1="423.629" y1="322.725" x2="423.213" y2="960.647" gradientUnits="userSpaceOnUse">
<stop/>
<stop offset="1"/>
</linearGradient>
<linearGradient id="paint1_linear_1_2872" x1="429.813" y1="748.363" x2="480.676" y2="763.863" gradientUnits="userSpaceOnUse">
<stop stop-color="#DE7B04"/>
<stop offset="1" stop-color="#FFCE1C"/>
</linearGradient>
</defs>
</svg>
