<svg width="849" height="1183" viewBox="0 0 849 1183" fill="none" xmlns="http://www.w3.org/2000/svg">
<rect x="5" y="5" width="839" height="1173" rx="45" fill="white"/>
<rect x="5" y="5" width="839" height="1173" rx="45" stroke="black" stroke-width="10"/>
<circle cx="786.5" cy="1124.5" r="11.5" fill="black"/>
<circle cx="786.5" cy="59.5" r="11.5" fill="black"/>
<path d="M77 1124.5C77 1130.85 71.8513 1136 65.5 1136C59.1487 1136 54 1130.85 54 1124.5C54 1118.15 59.1487 1113 65.5 1113C71.8513 1113 77 1118.15 77 1124.5Z" fill="black"/>
<path d="M77 59.5C77 65.8513 71.8513 71 65.5 71C59.1487 71 54 65.8513 54 59.5C54 53.1487 59.1487 48 65.5 48C71.8513 48 77 53.1487 77 59.5Z" fill="black"/>
<mask id="path-6-inside-1_1_1356" fill="white">
<path d="M708 48C713.523 48 717.934 52.4996 718.616 57.9801C723.122 94.1833 751.817 122.878 788.02 127.384C793.5 128.066 798 132.477 798 138V1046C798 1051.52 793.5 1055.93 788.02 1056.62C751.817 1061.12 723.122 1089.82 718.616 1126.02C717.934 1131.5 713.523 1136 708 1136H141C135.477 1136 131.066 1131.5 130.384 1126.02C125.878 1089.82 97.1833 1061.12 60.9801 1056.62C55.4996 1055.93 51 1051.52 51 1046V138C51 132.477 55.4996 128.066 60.9801 127.384C97.1833 122.878 125.878 94.1833 130.384 57.9801C131.066 52.4996 135.477 48 141 48H708Z"/>
</mask>
<path d="M708 48C713.523 48 717.934 52.4996 718.616 57.9801C723.122 94.1833 751.817 122.878 788.02 127.384C793.5 128.066 798 132.477 798 138V1046C798 1051.52 793.5 1055.93 788.02 1056.62C751.817 1061.12 723.122 1089.82 718.616 1126.02C717.934 1131.5 713.523 1136 708 1136H141C135.477 1136 131.066 1131.5 130.384 1126.02C125.878 1089.82 97.1833 1061.12 60.9801 1056.62C55.4996 1055.93 51 1051.52 51 1046V138C51 132.477 55.4996 128.066 60.9801 127.384C97.1833 122.878 125.878 94.1833 130.384 57.9801C131.066 52.4996 135.477 48 141 48H708Z" fill="#006AB6"/>
<path d="M130.384 1126.02L138.322 1125.03L130.384 1126.02ZM718.616 1126.02L710.678 1125.03L718.616 1126.02ZM788.02 1056.62L789.008 1064.56L788.02 1056.62ZM718.616 57.9801L726.555 56.9922L718.616 57.9801ZM718.616 57.9801L710.678 58.9681C715.635 98.8063 747.194 130.365 787.032 135.322L788.02 127.384L789.008 119.445C756.44 115.392 730.608 89.5603 726.555 56.9922L718.616 57.9801ZM798 138H790V1046H798H806V138H798ZM788.02 1056.62L787.032 1048.68C747.194 1053.64 715.635 1085.19 710.678 1125.03L718.616 1126.02L726.555 1127.01C730.608 1094.44 756.44 1068.61 789.008 1064.56L788.02 1056.62ZM708 1136V1128H141V1136V1144H708V1136ZM130.384 1126.02L138.322 1125.03C133.365 1085.19 101.806 1053.64 61.9681 1048.68L60.9801 1056.62L59.9922 1064.56C92.5603 1068.61 118.392 1094.44 122.445 1127.01L130.384 1126.02ZM51 1046H59V138H51H43V1046H51ZM60.9801 127.384L61.9681 135.322C101.806 130.365 133.365 98.8063 138.322 58.9681L130.384 57.9801L122.445 56.9922C118.392 89.5603 92.5603 115.392 59.9922 119.445L60.9801 127.384ZM141 48V56H708V48V40H141V48ZM130.384 57.9801L138.322 58.9681C138.438 58.0389 138.872 57.2306 139.427 56.6958C139.954 56.1887 140.494 56 141 56V48V40C130.84 40 123.547 48.1329 122.445 56.9922L130.384 57.9801ZM51 138H59C59 137.494 59.1887 136.954 59.6958 136.427C60.2306 135.872 61.0389 135.438 61.9681 135.322L60.9801 127.384L59.9922 119.445C51.1329 120.547 43 127.84 43 138H51ZM60.9801 1056.62L61.9681 1048.68C61.0389 1048.56 60.2306 1048.13 59.6958 1047.57C59.1887 1047.05 59 1046.51 59 1046H51H43C43 1056.16 51.1329 1063.45 59.9922 1064.56L60.9801 1056.62ZM141 1136V1128C140.494 1128 139.954 1127.81 139.427 1127.3C138.872 1126.77 138.438 1125.96 138.322 1125.03L130.384 1126.02L122.445 1127.01C123.547 1135.87 130.84 1144 141 1144V1136ZM718.616 1126.02L710.678 1125.03C710.562 1125.96 710.128 1126.77 709.573 1127.3C709.046 1127.81 708.506 1128 708 1128V1136V1144C718.16 1144 725.453 1135.87 726.555 1127.01L718.616 1126.02ZM798 1046H790C790 1046.51 789.811 1047.05 789.304 1047.57C788.769 1048.13 787.961 1048.56 787.032 1048.68L788.02 1056.62L789.008 1064.56C797.867 1063.45 806 1056.16 806 1046H798ZM788.02 127.384L787.032 135.322C787.961 135.438 788.769 135.872 789.304 136.427C789.811 136.954 790 137.494 790 138H798H806C806 127.84 797.867 120.547 789.008 119.445L788.02 127.384ZM718.616 57.9801L726.555 56.9922C725.453 48.1329 718.16 40 708 40V48V56C708.506 56 709.046 56.1887 709.573 56.6958C710.128 57.2306 710.562 58.0389 710.678 58.9681L718.616 57.9801Z" fill="black" mask="url(#path-6-inside-1_1_1356)"/>
<path d="M690 102C695.523 102 699.911 106.512 700.837 111.957C705.019 136.563 724.437 155.981 749.043 160.163C754.488 161.089 759 165.477 759 171V1014C759 1019.52 754.488 1023.91 749.043 1024.84C724.711 1028.97 705.454 1048 700.984 1072.22C699.993 1077.59 695.633 1082 690.175 1082H158.825C153.367 1082 149.007 1077.59 148.016 1072.22C143.546 1048 124.288 1028.97 99.9568 1024.84C94.5121 1023.91 90 1019.52 90 1014V171C90 165.477 94.512 161.089 99.9568 160.163C124.563 155.981 143.981 136.563 148.163 111.957C149.089 106.512 153.477 102 159 102H690Z" fill="#5298CB"/>
<mask id="path-9-outside-2_1_1356" maskUnits="userSpaceOnUse" x="401" y="1006" width="45" height="32" fill="black">
<rect fill="white" x="401" y="1006" width="45" height="32"/>
<path d="M402.32 1015.04C402.48 1012.56 403.427 1010.63 405.16 1009.24C406.92 1007.85 409.16 1007.16 411.88 1007.16C413.747 1007.16 415.36 1007.49 416.72 1008.16C418.08 1008.83 419.107 1009.73 419.8 1010.88C420.493 1012.03 420.84 1013.32 420.84 1014.76C420.84 1016.41 420.4 1017.83 419.52 1019C418.64 1020.17 417.587 1020.96 416.36 1021.36V1021.52C417.933 1022 419.16 1022.88 420.04 1024.16C420.92 1025.41 421.36 1027.03 421.36 1029C421.36 1030.57 421 1031.97 420.28 1033.2C419.56 1034.43 418.493 1035.4 417.08 1036.12C415.667 1036.81 413.973 1037.16 412 1037.16C409.12 1037.16 406.747 1036.43 404.88 1034.96C403.04 1033.47 402.053 1031.33 401.92 1028.56H406.32C406.427 1029.97 406.973 1031.13 407.96 1032.04C408.947 1032.92 410.28 1033.36 411.96 1033.36C413.587 1033.36 414.84 1032.92 415.72 1032.04C416.6 1031.13 417.04 1029.97 417.04 1028.56C417.04 1026.69 416.44 1025.37 415.24 1024.6C414.067 1023.8 412.253 1023.4 409.8 1023.4H408.76V1019.64H409.84C412 1019.61 413.64 1019.25 414.76 1018.56C415.907 1017.87 416.48 1016.77 416.48 1015.28C416.48 1014 416.067 1012.99 415.24 1012.24C414.413 1011.47 413.24 1011.08 411.72 1011.08C410.227 1011.08 409.067 1011.47 408.24 1012.24C407.413 1012.99 406.92 1013.92 406.76 1015.04H402.32ZM426.07 1015.04C426.23 1012.56 427.177 1010.63 428.91 1009.24C430.67 1007.85 432.91 1007.16 435.63 1007.16C437.497 1007.16 439.11 1007.49 440.47 1008.16C441.83 1008.83 442.857 1009.73 443.55 1010.88C444.243 1012.03 444.59 1013.32 444.59 1014.76C444.59 1016.41 444.15 1017.83 443.27 1019C442.39 1020.17 441.337 1020.96 440.11 1021.36V1021.52C441.683 1022 442.91 1022.88 443.79 1024.16C444.67 1025.41 445.11 1027.03 445.11 1029C445.11 1030.57 444.75 1031.97 444.03 1033.2C443.31 1034.43 442.243 1035.4 440.83 1036.12C439.417 1036.81 437.723 1037.16 435.75 1037.16C432.87 1037.16 430.497 1036.43 428.63 1034.96C426.79 1033.47 425.803 1031.33 425.67 1028.56H430.07C430.177 1029.97 430.723 1031.13 431.71 1032.04C432.697 1032.92 434.03 1033.36 435.71 1033.36C437.337 1033.36 438.59 1032.92 439.47 1032.04C440.35 1031.13 440.79 1029.97 440.79 1028.56C440.79 1026.69 440.19 1025.37 438.99 1024.6C437.817 1023.8 436.003 1023.4 433.55 1023.4H432.51V1019.64H433.59C435.75 1019.61 437.39 1019.25 438.51 1018.56C439.657 1017.87 440.23 1016.77 440.23 1015.28C440.23 1014 439.817 1012.99 438.99 1012.24C438.163 1011.47 436.99 1011.08 435.47 1011.08C433.977 1011.08 432.817 1011.47 431.99 1012.24C431.163 1012.99 430.67 1013.92 430.51 1015.04H426.07Z"/>
</mask>
<path d="M402.32 1015.04C402.48 1012.56 403.427 1010.63 405.16 1009.24C406.92 1007.85 409.16 1007.16 411.88 1007.16C413.747 1007.16 415.36 1007.49 416.72 1008.16C418.08 1008.83 419.107 1009.73 419.8 1010.88C420.493 1012.03 420.84 1013.32 420.84 1014.76C420.84 1016.41 420.4 1017.83 419.52 1019C418.64 1020.17 417.587 1020.96 416.36 1021.36V1021.52C417.933 1022 419.16 1022.88 420.04 1024.16C420.92 1025.41 421.36 1027.03 421.36 1029C421.36 1030.57 421 1031.97 420.28 1033.2C419.56 1034.43 418.493 1035.4 417.08 1036.12C415.667 1036.81 413.973 1037.16 412 1037.16C409.12 1037.16 406.747 1036.43 404.88 1034.96C403.04 1033.47 402.053 1031.33 401.92 1028.56H406.32C406.427 1029.97 406.973 1031.13 407.96 1032.04C408.947 1032.92 410.28 1033.36 411.96 1033.36C413.587 1033.36 414.84 1032.92 415.72 1032.04C416.6 1031.13 417.04 1029.97 417.04 1028.56C417.04 1026.69 416.44 1025.37 415.24 1024.6C414.067 1023.8 412.253 1023.4 409.8 1023.4H408.76V1019.64H409.84C412 1019.61 413.64 1019.25 414.76 1018.56C415.907 1017.87 416.48 1016.77 416.48 1015.28C416.48 1014 416.067 1012.99 415.24 1012.24C414.413 1011.47 413.24 1011.08 411.72 1011.08C410.227 1011.08 409.067 1011.47 408.24 1012.24C407.413 1012.99 406.92 1013.92 406.76 1015.04H402.32ZM426.07 1015.04C426.23 1012.56 427.177 1010.63 428.91 1009.24C430.67 1007.85 432.91 1007.16 435.63 1007.16C437.497 1007.16 439.11 1007.49 440.47 1008.16C441.83 1008.83 442.857 1009.73 443.55 1010.88C444.243 1012.03 444.59 1013.32 444.59 1014.76C444.59 1016.41 444.15 1017.83 443.27 1019C442.39 1020.17 441.337 1020.96 440.11 1021.36V1021.52C441.683 1022 442.91 1022.88 443.79 1024.16C444.67 1025.41 445.11 1027.03 445.11 1029C445.11 1030.57 444.75 1031.97 444.03 1033.2C443.31 1034.43 442.243 1035.4 440.83 1036.12C439.417 1036.81 437.723 1037.16 435.75 1037.16C432.87 1037.16 430.497 1036.43 428.63 1034.96C426.79 1033.47 425.803 1031.33 425.67 1028.56H430.07C430.177 1029.97 430.723 1031.13 431.71 1032.04C432.697 1032.92 434.03 1033.36 435.71 1033.36C437.337 1033.36 438.59 1032.92 439.47 1032.04C440.35 1031.13 440.79 1029.97 440.79 1028.56C440.79 1026.69 440.19 1025.37 438.99 1024.6C437.817 1023.8 436.003 1023.4 433.55 1023.4H432.51V1019.64H433.59C435.75 1019.61 437.39 1019.25 438.51 1018.56C439.657 1017.87 440.23 1016.77 440.23 1015.28C440.23 1014 439.817 1012.99 438.99 1012.24C438.163 1011.47 436.99 1011.08 435.47 1011.08C433.977 1011.08 432.817 1011.47 431.99 1012.24C431.163 1012.99 430.67 1013.92 430.51 1015.04H426.07Z" fill="black"/>
<path d="M402.32 1015.04L402.021 1015.02L402 1015.34H402.32V1015.04ZM405.16 1009.24L404.974 1009L404.973 1009.01L405.16 1009.24ZM416.72 1008.16L416.588 1008.43L416.72 1008.16ZM419.8 1010.88L420.057 1010.72L419.8 1010.88ZM419.52 1019L419.76 1019.18V1019.18L419.52 1019ZM416.36 1021.36L416.267 1021.07L416.06 1021.14V1021.36H416.36ZM416.36 1021.52H416.06V1021.74L416.272 1021.81L416.36 1021.52ZM420.04 1024.16L419.793 1024.33L419.794 1024.33L420.04 1024.16ZM420.28 1033.2L420.021 1033.05L420.28 1033.2ZM417.08 1036.12L417.212 1036.39L417.216 1036.39L417.08 1036.12ZM404.88 1034.96L404.691 1035.19L404.695 1035.2L404.88 1034.96ZM401.92 1028.56V1028.26H401.605L401.62 1028.57L401.92 1028.56ZM406.32 1028.56L406.619 1028.54L406.598 1028.26H406.32V1028.56ZM407.96 1032.04L407.757 1032.26L407.76 1032.26L407.96 1032.04ZM415.72 1032.04L415.932 1032.25L415.935 1032.25L415.72 1032.04ZM415.24 1024.6L415.071 1024.85L415.077 1024.85L415.24 1024.6ZM408.76 1023.4H408.46V1023.7H408.76V1023.4ZM408.76 1019.64V1019.34H408.46V1019.64H408.76ZM409.84 1019.64V1019.94L409.844 1019.94L409.84 1019.64ZM414.76 1018.56L414.605 1018.3L414.602 1018.3L414.76 1018.56ZM415.24 1012.24L415.035 1012.46L415.039 1012.46L415.24 1012.24ZM408.24 1012.24L408.441 1012.46L408.445 1012.46L408.24 1012.24ZM406.76 1015.04V1015.34H407.02L407.057 1015.08L406.76 1015.04ZM402.32 1015.04L402.619 1015.06C402.775 1012.65 403.688 1010.8 405.347 1009.47L405.16 1009.24L404.973 1009.01C403.165 1010.45 402.185 1012.47 402.021 1015.02L402.32 1015.04ZM405.16 1009.24L405.346 1009.48C407.042 1008.14 409.213 1007.46 411.88 1007.46V1007.16V1006.86C409.108 1006.86 406.798 1007.57 404.974 1009L405.16 1009.24ZM411.88 1007.16V1007.46C413.711 1007.46 415.277 1007.79 416.588 1008.43L416.72 1008.16L416.852 1007.89C415.443 1007.2 413.782 1006.86 411.88 1006.86V1007.16ZM416.72 1008.16L416.588 1008.43C417.903 1009.07 418.883 1009.94 419.543 1011.04L419.8 1010.88L420.057 1010.72C419.33 1009.52 418.257 1008.58 416.852 1007.89L416.72 1008.16ZM419.8 1010.88L419.543 1011.04C420.206 1012.13 420.54 1013.37 420.54 1014.76H420.84H421.14C421.14 1013.27 420.78 1011.92 420.057 1010.72L419.8 1010.88ZM420.84 1014.76H420.54C420.54 1016.36 420.116 1017.71 419.28 1018.82L419.52 1019L419.76 1019.18C420.684 1017.95 421.14 1016.47 421.14 1014.76H420.84ZM419.52 1019L419.28 1018.82C418.432 1019.95 417.427 1020.7 416.267 1021.07L416.36 1021.36L416.453 1021.65C417.746 1021.22 418.848 1020.4 419.76 1019.18L419.52 1019ZM416.36 1021.36H416.06V1021.52H416.36H416.66V1021.36H416.36ZM416.36 1021.52L416.272 1021.81C417.785 1022.27 418.954 1023.11 419.793 1024.33L420.04 1024.16L420.287 1023.99C419.366 1022.65 418.082 1021.73 416.448 1021.23L416.36 1021.52ZM420.04 1024.16L419.794 1024.33C420.63 1025.52 421.06 1027.07 421.06 1029H421.36H421.66C421.66 1026.98 421.21 1025.3 420.286 1023.99L420.04 1024.16ZM421.36 1029H421.06C421.06 1030.53 420.711 1031.87 420.021 1033.05L420.28 1033.2L420.539 1033.35C421.289 1032.07 421.66 1030.62 421.66 1029H421.36ZM420.28 1033.2L420.021 1033.05C419.334 1034.22 418.312 1035.16 416.944 1035.85L417.08 1036.12L417.216 1036.39C418.674 1035.64 419.786 1034.63 420.539 1033.35L420.28 1033.2ZM417.08 1036.12L416.948 1035.85C415.585 1036.52 413.939 1036.86 412 1036.86V1037.16V1037.46C414.008 1037.46 415.749 1037.11 417.212 1036.39L417.08 1036.12ZM412 1037.16V1036.86C409.172 1036.86 406.869 1036.14 405.065 1034.72L404.88 1034.96L404.695 1035.2C406.625 1036.71 409.068 1037.46 412 1037.46V1037.16ZM404.88 1034.96L405.069 1034.73C403.307 1033.3 402.35 1031.25 402.22 1028.55L401.92 1028.56L401.62 1028.57C401.757 1031.42 402.773 1033.64 404.691 1035.19L404.88 1034.96ZM401.92 1028.56V1028.86H406.32V1028.56V1028.26H401.92V1028.56ZM406.32 1028.56L406.021 1028.58C406.133 1030.07 406.711 1031.3 407.757 1032.26L407.96 1032.04L408.163 1031.82C407.236 1030.97 406.72 1029.88 406.619 1028.54L406.32 1028.56ZM407.96 1032.04L407.76 1032.26C408.816 1033.21 410.227 1033.66 411.96 1033.66V1033.36V1033.06C410.333 1033.06 409.078 1032.63 408.16 1031.82L407.96 1032.04ZM411.96 1033.36V1033.66C413.641 1033.66 414.98 1033.2 415.932 1032.25L415.72 1032.04L415.508 1031.83C414.7 1032.64 413.533 1033.06 411.96 1033.06V1033.36ZM415.72 1032.04L415.935 1032.25C416.876 1031.28 417.34 1030.04 417.34 1028.56H417.04H416.74C416.74 1029.91 416.324 1030.99 415.505 1031.83L415.72 1032.04ZM417.04 1028.56H417.34C417.34 1026.63 416.714 1025.19 415.403 1024.35L415.24 1024.6L415.077 1024.85C416.166 1025.55 416.74 1026.76 416.74 1028.56H417.04ZM415.24 1024.6L415.409 1024.35C414.161 1023.5 412.275 1023.1 409.8 1023.1V1023.4V1023.7C412.232 1023.7 413.972 1024.1 415.071 1024.85L415.24 1024.6ZM409.8 1023.4V1023.1H408.76V1023.4V1023.7H409.8V1023.4ZM408.76 1023.4H409.06V1019.64H408.76H408.46V1023.4H408.76ZM408.76 1019.64V1019.94H409.84V1019.64V1019.34H408.76V1019.64ZM409.84 1019.64L409.844 1019.94C412.027 1019.91 413.731 1019.55 414.918 1018.82L414.76 1018.56L414.602 1018.3C413.549 1018.96 411.973 1019.31 409.836 1019.34L409.84 1019.64ZM414.76 1018.56L414.915 1018.82C416.163 1018.06 416.78 1016.86 416.78 1015.28H416.48H416.18C416.18 1016.68 415.65 1017.67 414.605 1018.3L414.76 1018.56ZM416.48 1015.28H416.78C416.78 1013.93 416.34 1012.83 415.441 1012.02L415.24 1012.24L415.039 1012.46C415.793 1013.14 416.18 1014.07 416.18 1015.28H416.48ZM415.24 1012.24L415.445 1012.02C414.546 1011.18 413.289 1010.78 411.72 1010.78V1011.08V1011.38C413.191 1011.38 414.281 1011.75 415.035 1012.46L415.24 1012.24ZM411.72 1011.08V1010.78C410.176 1010.78 408.933 1011.18 408.035 1012.02L408.24 1012.24L408.445 1012.46C409.2 1011.75 410.278 1011.38 411.72 1011.38V1011.08ZM408.24 1012.24L408.039 1012.02C407.159 1012.81 406.633 1013.81 406.463 1015L406.76 1015.04L407.057 1015.08C407.207 1014.03 407.667 1013.16 408.441 1012.46L408.24 1012.24ZM406.76 1015.04V1014.74H402.32V1015.04V1015.34H406.76V1015.04ZM426.07 1015.04L425.771 1015.02L425.75 1015.34H426.07V1015.04ZM428.91 1009.24L428.724 1009L428.723 1009.01L428.91 1009.24ZM440.47 1008.16L440.338 1008.43L440.47 1008.16ZM443.55 1010.88L443.807 1010.72L443.55 1010.88ZM443.27 1019L443.51 1019.18V1019.18L443.27 1019ZM440.11 1021.36L440.017 1021.07L439.81 1021.14V1021.36H440.11ZM440.11 1021.52H439.81V1021.74L440.022 1021.81L440.11 1021.52ZM443.79 1024.16L443.543 1024.33L443.544 1024.33L443.79 1024.16ZM444.03 1033.2L443.771 1033.05L444.03 1033.2ZM440.83 1036.12L440.962 1036.39L440.966 1036.39L440.83 1036.12ZM428.63 1034.96L428.441 1035.19L428.445 1035.2L428.63 1034.96ZM425.67 1028.56V1028.26H425.355L425.37 1028.57L425.67 1028.56ZM430.07 1028.56L430.369 1028.54L430.348 1028.26H430.07V1028.56ZM431.71 1032.04L431.507 1032.26L431.51 1032.26L431.71 1032.04ZM439.47 1032.04L439.682 1032.25L439.685 1032.25L439.47 1032.04ZM438.99 1024.6L438.821 1024.85L438.827 1024.85L438.99 1024.6ZM432.51 1023.4H432.21V1023.7H432.51V1023.4ZM432.51 1019.64V1019.34H432.21V1019.64H432.51ZM433.59 1019.64V1019.94L433.594 1019.94L433.59 1019.64ZM438.51 1018.56L438.355 1018.3L438.352 1018.3L438.51 1018.56ZM438.99 1012.24L438.785 1012.46L438.789 1012.46L438.99 1012.24ZM431.99 1012.24L432.191 1012.46L432.195 1012.46L431.99 1012.24ZM430.51 1015.04V1015.34H430.77L430.807 1015.08L430.51 1015.04ZM426.07 1015.04L426.369 1015.06C426.525 1012.65 427.438 1010.8 429.097 1009.47L428.91 1009.24L428.723 1009.01C426.915 1010.45 425.935 1012.47 425.771 1015.02L426.07 1015.04ZM428.91 1009.24L429.096 1009.48C430.792 1008.14 432.963 1007.46 435.63 1007.46V1007.16V1006.86C432.858 1006.86 430.548 1007.57 428.724 1009L428.91 1009.24ZM435.63 1007.16V1007.46C437.461 1007.46 439.027 1007.79 440.338 1008.43L440.47 1008.16L440.602 1007.89C439.193 1007.2 437.532 1006.86 435.63 1006.86V1007.16ZM440.47 1008.16L440.338 1008.43C441.653 1009.07 442.633 1009.94 443.293 1011.04L443.55 1010.88L443.807 1010.72C443.08 1009.52 442.007 1008.58 440.602 1007.89L440.47 1008.16ZM443.55 1010.88L443.293 1011.04C443.956 1012.13 444.29 1013.37 444.29 1014.76H444.59H444.89C444.89 1013.27 444.53 1011.92 443.807 1010.72L443.55 1010.88ZM444.59 1014.76H444.29C444.29 1016.36 443.866 1017.71 443.03 1018.82L443.27 1019L443.51 1019.18C444.434 1017.95 444.89 1016.47 444.89 1014.76H444.59ZM443.27 1019L443.03 1018.82C442.182 1019.95 441.177 1020.7 440.017 1021.07L440.11 1021.36L440.203 1021.65C441.496 1021.22 442.598 1020.4 443.51 1019.18L443.27 1019ZM440.11 1021.36H439.81V1021.52H440.11H440.41V1021.36H440.11ZM440.11 1021.52L440.022 1021.81C441.535 1022.27 442.704 1023.11 443.543 1024.33L443.79 1024.16L444.037 1023.99C443.116 1022.65 441.832 1021.73 440.198 1021.23L440.11 1021.52ZM443.79 1024.16L443.544 1024.33C444.38 1025.52 444.81 1027.07 444.81 1029H445.11H445.41C445.41 1026.98 444.96 1025.3 444.036 1023.99L443.79 1024.16ZM445.11 1029H444.81C444.81 1030.53 444.461 1031.87 443.771 1033.05L444.03 1033.2L444.289 1033.35C445.039 1032.07 445.41 1030.62 445.41 1029H445.11ZM444.03 1033.2L443.771 1033.05C443.084 1034.22 442.062 1035.16 440.694 1035.85L440.83 1036.12L440.966 1036.39C442.424 1035.64 443.536 1034.63 444.289 1033.35L444.03 1033.2ZM440.83 1036.12L440.698 1035.85C439.335 1036.52 437.689 1036.86 435.75 1036.86V1037.16V1037.46C437.758 1037.46 439.499 1037.11 440.962 1036.39L440.83 1036.12ZM435.75 1037.16V1036.86C432.922 1036.86 430.619 1036.14 428.815 1034.72L428.63 1034.96L428.445 1035.2C430.375 1036.71 432.818 1037.46 435.75 1037.46V1037.16ZM428.63 1034.96L428.819 1034.73C427.057 1033.3 426.1 1031.25 425.97 1028.55L425.67 1028.56L425.37 1028.57C425.507 1031.42 426.523 1033.64 428.441 1035.19L428.63 1034.96ZM425.67 1028.56V1028.86H430.07V1028.56V1028.26H425.67V1028.56ZM430.07 1028.56L429.771 1028.58C429.883 1030.07 430.461 1031.3 431.507 1032.26L431.71 1032.04L431.913 1031.82C430.986 1030.97 430.47 1029.88 430.369 1028.54L430.07 1028.56ZM431.71 1032.04L431.51 1032.26C432.566 1033.21 433.977 1033.66 435.71 1033.66V1033.36V1033.06C434.083 1033.06 432.828 1032.63 431.91 1031.82L431.71 1032.04ZM435.71 1033.36V1033.66C437.391 1033.66 438.73 1033.2 439.682 1032.25L439.47 1032.04L439.258 1031.83C438.45 1032.64 437.283 1033.06 435.71 1033.06V1033.36ZM439.47 1032.04L439.685 1032.25C440.626 1031.28 441.09 1030.04 441.09 1028.56H440.79H440.49C440.49 1029.91 440.074 1030.99 439.255 1031.83L439.47 1032.04ZM440.79 1028.56H441.09C441.09 1026.63 440.464 1025.19 439.153 1024.35L438.99 1024.6L438.827 1024.85C439.916 1025.55 440.49 1026.76 440.49 1028.56H440.79ZM438.99 1024.6L439.159 1024.35C437.911 1023.5 436.025 1023.1 433.55 1023.1V1023.4V1023.7C435.982 1023.7 437.722 1024.1 438.821 1024.85L438.99 1024.6ZM433.55 1023.4V1023.1H432.51V1023.4V1023.7H433.55V1023.4ZM432.51 1023.4H432.81V1019.64H432.51H432.21V1023.4H432.51ZM432.51 1019.64V1019.94H433.59V1019.64V1019.34H432.51V1019.64ZM433.59 1019.64L433.594 1019.94C435.777 1019.91 437.481 1019.55 438.668 1018.82L438.51 1018.56L438.352 1018.3C437.299 1018.96 435.723 1019.31 433.586 1019.34L433.59 1019.64ZM438.51 1018.56L438.665 1018.82C439.913 1018.06 440.53 1016.86 440.53 1015.28H440.23H439.93C439.93 1016.68 439.4 1017.67 438.355 1018.3L438.51 1018.56ZM440.23 1015.28H440.53C440.53 1013.93 440.09 1012.83 439.191 1012.02L438.99 1012.24L438.789 1012.46C439.543 1013.14 439.93 1014.07 439.93 1015.28H440.23ZM438.99 1012.24L439.195 1012.02C438.296 1011.18 437.039 1010.78 435.47 1010.78V1011.08V1011.38C436.941 1011.38 438.031 1011.75 438.785 1012.46L438.99 1012.24ZM435.47 1011.08V1010.78C433.925 1010.78 432.683 1011.18 431.785 1012.02L431.99 1012.24L432.195 1012.46C432.95 1011.75 434.028 1011.38 435.47 1011.38V1011.08ZM431.99 1012.24L431.789 1012.02C430.909 1012.81 430.383 1013.81 430.213 1015L430.51 1015.04L430.807 1015.08C430.957 1014.03 431.417 1013.16 432.191 1012.46L431.99 1012.24ZM430.51 1015.04V1014.74H426.07V1015.04V1015.34H430.51V1015.04Z" fill="black" mask="url(#path-9-outside-2_1_1356)"/>
<path d="M311.07 197.975V214.355H281.46V227.375H303.3V243.02H281.46V272H260.88V197.975H311.07ZM347.142 272.735C341.262 272.735 335.977 271.51 331.287 269.06C326.667 266.61 323.027 263.11 320.367 258.56C317.707 254.01 316.377 248.655 316.377 242.495C316.377 236.405 317.707 231.085 320.367 226.535C323.097 221.985 326.772 218.485 331.392 216.035C336.082 213.585 341.367 212.36 347.247 212.36C353.127 212.36 358.377 213.585 362.997 216.035C367.687 218.485 371.362 221.985 374.022 226.535C376.752 231.085 378.117 236.405 378.117 242.495C378.117 248.585 376.752 253.94 374.022 258.56C371.362 263.11 367.687 266.61 362.997 269.06C358.307 271.51 353.022 272.735 347.142 272.735ZM347.142 254.885C350.012 254.885 352.392 253.835 354.282 251.735C356.242 249.565 357.222 246.485 357.222 242.495C357.222 238.505 356.242 235.46 354.282 233.36C352.392 231.26 350.047 230.21 347.247 230.21C344.447 230.21 342.102 231.26 340.212 233.36C338.322 235.46 337.377 238.505 337.377 242.495C337.377 246.555 338.287 249.635 340.107 251.735C341.927 253.835 344.272 254.885 347.142 254.885ZM408.225 212.36C412.215 212.36 415.68 213.165 418.62 214.775C421.63 216.385 423.94 218.555 425.55 221.285V213.095H446.13V271.37C446.13 276.9 445.08 281.87 442.98 286.28C440.88 290.76 437.59 294.33 433.11 296.99C428.7 299.65 423.1 300.98 416.31 300.98C407.21 300.98 399.93 298.845 394.47 294.575C389.01 290.305 385.895 284.495 385.125 277.145H405.39C405.81 279.035 406.86 280.505 408.54 281.555C410.22 282.605 412.39 283.13 415.05 283.13C422.05 283.13 425.55 279.21 425.55 271.37V263.81C423.94 266.54 421.63 268.71 418.62 270.32C415.68 271.93 412.215 272.735 408.225 272.735C403.535 272.735 399.265 271.51 395.415 269.06C391.635 266.61 388.625 263.11 386.385 258.56C384.215 253.94 383.13 248.585 383.13 242.495C383.13 236.405 384.215 231.085 386.385 226.535C388.625 221.985 391.635 218.485 395.415 216.035C399.265 213.585 403.535 212.36 408.225 212.36ZM425.55 242.495C425.55 238.715 424.5 235.74 422.4 233.57C420.37 231.4 417.85 230.315 414.84 230.315C411.76 230.315 409.205 231.4 407.175 233.57C405.145 235.67 404.13 238.645 404.13 242.495C404.13 246.275 405.145 249.285 407.175 251.525C409.205 253.695 411.76 254.78 414.84 254.78C417.85 254.78 420.37 253.695 422.4 251.525C424.5 249.355 425.55 246.345 425.55 242.495ZM479.593 212.36C483.583 212.36 487.048 213.165 489.988 214.775C492.998 216.385 495.308 218.555 496.918 221.285V213.095H517.498V271.37C517.498 276.9 516.448 281.87 514.348 286.28C512.248 290.76 508.958 294.33 504.478 296.99C500.068 299.65 494.468 300.98 487.678 300.98C478.578 300.98 471.298 298.845 465.838 294.575C460.378 290.305 457.263 284.495 456.493 277.145H476.758C477.178 279.035 478.228 280.505 479.908 281.555C481.588 282.605 483.758 283.13 486.418 283.13C493.418 283.13 496.918 279.21 496.918 271.37V263.81C495.308 266.54 492.998 268.71 489.988 270.32C487.048 271.93 483.583 272.735 479.593 272.735C474.903 272.735 470.633 271.51 466.783 269.06C463.003 266.61 459.993 263.11 457.753 258.56C455.583 253.94 454.498 248.585 454.498 242.495C454.498 236.405 455.583 231.085 457.753 226.535C459.993 221.985 463.003 218.485 466.783 216.035C470.633 213.585 474.903 212.36 479.593 212.36ZM496.918 242.495C496.918 238.715 495.868 235.74 493.768 233.57C491.738 231.4 489.218 230.315 486.208 230.315C483.128 230.315 480.573 231.4 478.543 233.57C476.513 235.67 475.498 238.645 475.498 242.495C475.498 246.275 476.513 249.285 478.543 251.525C480.573 253.695 483.128 254.78 486.208 254.78C489.218 254.78 491.738 253.695 493.768 251.525C495.868 249.355 496.918 246.345 496.918 242.495ZM592.645 213.095L555.265 300.035H532.9L546.97 269.48L522.82 213.095H545.71L558.1 246.485L570.07 213.095H592.645Z" fill="black"/>
<path d="M595.158 347.109C596.432 347.093 597.706 347.085 598.98 347.085C631.728 347.1 659.365 360.262 682.321 383.304C696.895 397.934 708.424 420.758 712.437 441.043C716.212 460.12 715.099 479.598 715.11 498.937L715.12 570.488L715.143 818.056C715.014 849.73 703.544 880.213 680.839 902.658C669.147 914.214 655.639 922.386 640.477 928.592C635.303 930.711 630.121 932.664 624.631 933.819C605.382 937.868 584.304 936.89 564.707 936.911L496.367 936.932L253.462 936.834C245.956 936.671 238.555 936.328 231.132 935.141C208.359 931.485 187.228 921.015 170.523 905.112C162.981 897.865 155.469 889.049 150.03 880.118C139.433 862.717 133.814 841.597 133.439 821.342C132.917 793.156 133.399 764.861 133.398 736.665L133.39 570.887L133.362 498.21C133.317 480.714 131.841 462.512 135.192 445.257C139.666 421.956 150.805 400.455 167.258 383.361C184.479 365.538 201.374 355.105 225.655 349.737C242.684 345.972 260.408 347.185 277.733 347.191L336.922 347.18L506.22 347.184C535.851 347.185 565.535 347.593 595.158 347.109Z" fill="black"/>
<path d="M255.461 359.158L497.462 359.303L563.634 359.287C574.97 359.271 586.334 359.016 597.665 359.209C624.425 359.666 652.07 371.204 670.707 390.563C687.528 408.037 698.782 430.431 701.375 454.637C702.339 463.638 702.117 472.748 702.086 481.787C702.083 491.049 702.014 500.312 701.878 509.573C698.047 508.854 694.215 508.054 690.338 507.624C690.316 504.009 690.06 500.491 689.142 496.98C686.397 486.495 679.443 476.518 669.976 471.057C657.784 464.025 646.687 464.919 633.616 468.389C631.224 463.176 629.466 458.049 626.105 453.306C617.951 441.803 604.366 432.491 590.378 430.123C575.562 427.615 558.869 430.558 546.565 439.389C536.388 446.692 526.362 459.161 522.33 471.04C520.775 475.624 520.133 480.454 519.362 485.214C512.776 485.235 505.736 486.955 500.023 490.279C491.546 495.211 485.106 504.444 482.566 513.826C471.786 513.587 467.92 514.941 457.801 517.073C458.788 516.361 459.768 515.639 460.741 514.906C467.777 509.576 472.563 502.006 473.692 493.149C474.766 484.728 471.535 475.087 466.326 468.491C458.374 458.421 447.532 458.03 435.773 456.617C434.257 454.149 432.762 451.644 431.014 449.331C423.358 439.206 413.167 434.937 400.901 433.218C399.747 427.544 398.606 421.86 396.497 416.446C390.605 401.314 376.516 386.984 361.663 380.481C344.711 373.059 323.905 371.505 306.6 378.446C293.946 383.522 281.823 392.992 274.376 404.505C271.794 408.498 269.89 412.734 268.031 417.09C262.829 415.356 257.968 413.56 252.463 412.933C237.615 411.239 221.892 413.983 210.075 423.565C198.228 433.171 191.713 447.56 190.158 462.559C180.092 463.169 171.418 464.051 163.843 471.443C157.995 477.152 154.982 485.057 154.894 493.169C154.815 500.432 156.567 507.369 161.811 512.643C165.593 516.447 170.922 518.964 176.141 520.011C184.57 521.703 193.683 520.524 202.238 520.508L251.159 520.531L382.855 520.85L425.955 520.941C433.173 520.948 440.562 520.512 447.757 521.027C445.4 523.136 443.185 525.171 441.472 527.852C438.57 532.393 437.544 537.764 438.783 543.033C439.954 548.012 442.586 552.192 447.05 554.866C450.339 556.836 453.876 557.78 457.679 558.055C468.879 558.865 481.838 558.311 493.26 558.306L562.218 558.219L646.353 558.151L671.578 558.143C681.943 558.169 691.877 558.724 702.025 556.127C702.258 568.995 702.098 581.897 702.104 594.768C702.108 603.843 702.417 613.035 701.947 622.095C684.324 616.241 666.621 610.178 649.58 602.76C641.353 599.179 633.047 595.186 625.121 590.979C608.322 582.063 592.664 571.93 572.813 572.38C546.824 572.968 525.761 587.79 505.872 602.799C500.921 606.535 494.978 610.172 490.696 614.636C475.817 609.144 461.915 602.881 448.427 594.507C438.859 588.566 429.485 580.629 418.994 576.464C403.739 570.408 389.344 573.183 374.256 578.208C370.319 579.519 366.295 580.738 362.478 582.37C344.767 567.487 323.095 545.173 301.514 536.816C296.157 534.742 289.829 532.846 284.122 532.326C253.876 529.567 226.836 554.441 202.683 569.332C184.414 580.617 165.408 590.665 145.794 599.408C145.712 597.207 145.646 595.005 145.595 592.802C145.033 567.62 145.482 542.351 145.438 517.158L145.369 481.658C145.357 472.168 145.084 462.621 146.344 453.191C149.446 429.979 160.673 407.966 176.869 391.143C189.428 378.096 208.521 367.18 226.065 362.672C235.717 360.191 245.524 359.318 255.461 359.158Z" fill="#E1E6E7"/>
<path d="M255.461 359.158L497.462 359.303L563.634 359.287C574.97 359.271 586.334 359.016 597.665 359.209C624.425 359.666 652.07 371.204 670.707 390.563C687.528 408.037 698.782 430.431 701.375 454.637C702.339 463.638 702.117 472.748 702.086 481.787C702.083 491.049 702.014 500.312 701.878 509.573C698.047 508.854 694.215 508.054 690.338 507.624C690.316 504.009 690.06 500.491 689.142 496.98C686.397 486.495 679.443 476.518 669.976 471.057C657.784 464.025 646.687 464.919 633.616 468.389C631.224 463.176 629.466 458.049 626.105 453.306C617.951 441.803 604.366 432.491 590.378 430.123C575.562 427.615 558.869 430.558 546.565 439.389C536.388 446.692 526.362 459.161 522.33 471.04C520.775 475.624 520.133 480.454 519.362 485.214C512.776 485.235 505.736 486.955 500.023 490.279C491.546 495.211 485.106 504.444 482.566 513.826C471.786 513.587 467.92 514.941 457.801 517.073C458.788 516.361 459.768 515.639 460.741 514.906C467.777 509.576 472.563 502.006 473.692 493.149C474.766 484.728 471.535 475.087 466.326 468.491C458.374 458.421 447.532 458.03 435.773 456.617C434.257 454.149 432.762 451.644 431.014 449.331C423.358 439.206 413.167 434.937 400.901 433.218C399.747 427.544 398.606 421.86 396.497 416.446C390.605 401.314 376.516 386.984 361.663 380.481C344.711 373.059 323.905 371.505 306.6 378.446C293.946 383.522 281.823 392.992 274.376 404.505C271.794 408.498 269.89 412.734 268.031 417.09C262.829 415.356 257.968 413.56 252.463 412.933C237.615 411.239 221.892 413.983 210.075 423.565C198.228 433.171 191.713 447.56 190.158 462.559C180.092 463.169 171.418 464.051 163.843 471.443C157.995 477.152 154.982 485.057 154.894 493.169C154.815 500.432 156.567 507.369 161.811 512.643C165.593 516.447 170.922 518.964 176.141 520.011C184.57 521.703 193.683 520.524 202.238 520.508L251.159 520.531L382.855 520.85L425.955 520.941C433.173 520.948 440.562 520.512 447.757 521.027C445.4 523.136 443.185 525.171 441.472 527.852C438.57 532.393 437.544 537.764 438.783 543.033C439.954 548.012 442.586 552.192 447.05 554.866C450.339 556.836 453.876 557.78 457.679 558.055C468.879 558.865 481.838 558.311 493.26 558.306L562.218 558.219L646.353 558.151L671.578 558.143C681.943 558.169 691.877 558.724 702.025 556.127C702.258 568.995 702.098 581.897 702.104 594.768C702.108 603.843 702.417 613.035 701.947 622.095C684.324 616.241 666.621 610.178 649.58 602.76C641.353 599.179 633.047 595.186 625.121 590.979C608.322 582.063 592.664 571.93 572.813 572.38C546.824 572.968 525.761 587.79 505.872 602.799C500.921 606.535 494.978 610.172 490.696 614.636C475.817 609.144 461.915 602.881 448.427 594.507C438.859 588.566 429.485 580.629 418.994 576.464C403.739 570.408 389.344 573.183 374.256 578.208C370.319 579.519 366.295 580.738 362.478 582.37C344.767 567.487 323.095 545.173 301.514 536.816C296.157 534.742 289.829 532.846 284.122 532.326C253.876 529.567 226.836 554.441 202.683 569.332C184.414 580.617 165.408 590.665 145.794 599.408C145.712 597.207 145.646 595.005 145.595 592.802C145.033 567.62 145.482 542.351 145.438 517.158L145.369 481.658C145.357 472.168 145.084 462.621 146.344 453.191C149.446 429.979 160.673 407.966 176.869 391.143C189.428 378.096 208.521 367.18 226.065 362.672C235.717 360.191 245.524 359.318 255.461 359.158Z" fill="#E1E6E7"/>
<path d="M625.891 767.77C650.484 765.868 678.782 769.712 702.222 777.292C702.369 785.248 702.273 793.224 702.268 801.183C702.261 814.813 703.2 837.699 697.398 850.084C696.507 845.516 695.008 841.238 691.953 837.645C688.361 833.418 683.418 830.932 677.897 830.49C669.542 829.821 662.822 832.899 656.644 838.239C655.963 833.676 654.765 829.001 652.709 824.85C649.465 818.301 642.585 812.174 635.601 809.925C631.081 808.47 626.578 809.052 622.424 811.227C612.145 816.609 606.754 827.738 603.44 838.309C598.404 833.358 591.9 830.5 584.807 830.445C579.563 830.405 574.618 832.312 570.908 836.047C564.503 842.496 563.591 852.307 563.66 860.905C556.899 857.842 549.035 856.424 541.864 858.974C536.354 860.933 532.01 865.048 529.562 870.339C526.153 877.704 527.201 885.335 529.917 892.701C526.125 893.051 522.241 893.416 518.594 894.568C513.6 896.146 509.382 899.177 506.971 903.945C503.46 910.886 504.666 918.248 507.046 925.302C499.71 925.217 492.367 925.281 485.03 925.276L345.449 925.194C346.235 923.965 347.077 922.83 348.049 921.742C353.775 915.336 359.981 909.208 365.936 902.999C376.198 892.298 386.439 881.511 397.705 871.846C423.105 850.055 450.647 831.795 479.878 815.568C489.786 810.068 499.734 804.527 509.937 799.589C546.138 782.068 585.569 769.932 625.891 767.77Z" fill="#6D9879"/>
<path d="M287.667 710.779C309.712 705.039 332.348 704.55 355.01 704.44C371.116 704.361 387.425 703.829 403.513 704.671C425.095 705.8 446.554 708.619 468.093 710.363C500.501 713.113 532.978 714.974 565.488 715.945C593.672 716.776 621.88 715.944 649.965 713.454C667.439 711.843 684.797 709.096 702.25 707.51L702.247 734.791L702.296 751.855C702.138 756.86 702.281 761.912 702.282 766.921C689.883 763.251 677.199 760.63 664.361 759.086C610.103 752.761 555.425 767.09 506.62 790.204C496.567 794.965 486.951 800.621 477.176 805.918C470.11 801.112 462.527 797.058 455.088 792.866C439.693 784.19 424.838 775.939 407.854 770.745C400.428 768.476 392.884 766.61 385.257 765.155C376.695 763.539 368.199 762.379 359.907 759.573C352.402 757.034 345.552 753.383 338.946 749.06C334.245 746.688 328.457 741.15 324.24 737.717C312.346 728.207 300.339 719.229 287.667 710.779Z" fill="#E1E6E7"/>
<path d="M338.946 749.058C359.976 744.863 387.547 745.121 408.907 747.588C419.05 748.759 429.149 750.734 439.293 751.731C457.05 753.477 477.522 753.867 495.447 753.92C511.227 754.002 526.998 753.149 542.676 751.366C560.374 749.231 577.915 745.96 595.586 743.734C611.285 741.756 627.65 740.687 643.456 741.055C659.354 741.468 675.148 743.759 690.508 747.881C694.352 748.875 698.875 749.796 702.296 751.854C702.138 756.859 702.28 761.91 702.282 766.92C689.883 763.249 677.199 760.629 664.361 759.084C610.103 752.759 555.425 767.089 506.62 790.202C496.567 794.963 486.951 800.619 477.175 805.916C470.11 801.11 462.527 797.056 455.088 792.864C439.692 784.189 424.838 775.938 407.854 770.744C400.427 768.474 392.884 766.608 385.256 765.153C376.695 763.538 368.199 762.377 359.907 759.571C352.402 757.032 345.552 753.381 338.946 749.058Z" fill="#E1E6E7"/>
<path d="M324.241 737.717C328.136 735.86 334.056 735.715 338.406 735.079C361.3 731.73 384.984 732.141 407.914 734.855C420.331 736.324 432.609 738.542 445.066 739.742C460.842 741.175 476.667 742.003 492.507 742.226C516.023 742.433 539.487 739.885 562.77 736.774C600.201 731.771 632.115 725.893 670.303 729.387C681.026 730.369 691.858 731.906 702.248 734.791L702.297 751.855C698.876 749.798 694.352 748.877 690.509 747.883C675.148 743.761 659.355 741.47 643.456 741.057C627.65 740.689 611.286 741.758 595.587 743.736C577.916 745.962 560.375 749.233 542.677 751.368C526.998 753.151 511.227 754.004 495.447 753.922C477.523 753.868 457.051 753.478 439.293 751.733C429.149 750.736 419.051 748.761 408.908 747.589C387.548 745.123 359.976 744.864 338.947 749.06C334.245 746.688 328.457 741.15 324.241 737.717Z" fill="#96A8A8"/>
<path d="M233.613 622.757C249.342 622.283 266.088 628.837 276.034 641.348C277.53 643.229 280.229 648.676 281.953 649.752C282.993 650.401 289.149 646.625 290.449 645.944C303.733 638.982 319.19 635.746 333.876 639.97C349.676 644.514 358.673 654.331 366.393 668.273C371.213 667.379 375.801 665.979 380.697 665.347C400.581 662.78 419.806 667.761 436.842 678.151C442.14 681.382 447.375 686.722 453.359 688.424C458.57 689.907 465.232 687.211 470.442 686.339C474.175 685.678 477.965 685.398 481.755 685.504C488.701 685.717 495.579 687.607 501.985 690.245C504.061 691.1 506.864 692.939 508.995 693.239C509.398 693.295 509.791 693.305 510.081 692.993C510.877 692.139 513.074 685.734 514.06 683.917C517.98 676.697 523.6 671.255 530.498 666.86C548.676 655.494 570.604 651.759 591.52 656.466C602.549 658.997 615.267 663.951 623.15 672.344C625.698 675.057 627.596 678.208 629.57 681.342C634.771 680.306 639.005 674.997 643.362 672.041C647.321 669.336 651.555 667.058 655.993 665.243C668.944 660.02 689.132 657.907 702.234 663.54L702.304 698.334C690.197 700.524 677.668 701.366 665.446 702.836C653.236 703.786 641.146 705.533 628.891 706.189C590.56 708.241 551.86 707.181 513.541 705.128C475.834 703.108 438.3 698.442 400.602 696.467C386.904 695.75 373.168 695.851 359.455 695.868C340.435 695.89 321.154 696.116 302.307 698.855C293.578 700.124 284.865 702.117 276.314 704.266C245.931 686.411 211.265 677.153 176.025 677.481C165.875 677.579 155.308 678.346 145.44 680.831C145.244 666.326 145.01 651.62 145.531 637.128C157.337 634.542 169.673 636.098 180.468 641.533C183.736 643.171 186.701 645.231 189.789 647.166C191.848 643.857 193.941 640.627 196.569 637.728C206.215 627.086 219.704 623.396 233.613 622.757Z" fill="#E1E6E7"/>
<path d="M169.151 687.146C220.963 683.813 264.781 704.133 305.372 734.611C319.009 744.852 331.29 757.008 346.859 764.397C358.877 770.1 371.416 771.796 384.295 774.288C391.575 775.698 398.905 777.525 405.961 779.811C429.382 787.397 447.022 800.122 468.519 810.944C460.593 815.933 452.232 820.232 444.292 825.242C430.838 833.731 418.054 843.245 405.482 852.974C403.161 854.822 400.857 856.658 398.401 858.326C391.494 854.145 385.245 848.961 378.216 844.894C349.654 828.372 317.197 818.124 284.936 811.792C283.525 808.527 282.19 805.078 279.745 802.419C275.905 798.243 270.884 797.678 265.565 797.526C265.161 792.267 264.37 787.272 261.387 782.791C258.782 778.865 254.719 776.141 250.098 775.223C243.682 773.974 236.807 776.042 231.511 779.67C231.015 777.664 230.52 775.651 229.883 773.684C226.638 763.647 220.874 753.715 211.159 748.807C206.726 746.568 202.118 746.07 197.352 747.682C188.044 750.833 181.365 759.821 177.16 768.259C172.952 764.093 167.697 760.739 161.605 760.581C155.085 760.414 149.957 764.124 145.45 768.392C144.762 754.532 145.038 740.562 144.963 726.686C144.898 714.685 144.435 702.556 144.88 690.565C152.476 688.052 161.205 687.687 169.151 687.146Z" fill="#6D9879"/>
<path d="M223.268 815.948C271.234 815.64 323.473 826.386 366.057 848.926C374.737 853.52 382.88 858.94 390.993 864.452C379.103 875.029 368.086 886.948 357.11 898.464C350.982 904.893 343.806 911.507 338.733 918.784C337.259 920.899 336.536 922.759 335.92 925.241L315.007 925.266L270.243 925.273C261.337 925.273 252.238 925.646 243.365 924.957C221.469 923.26 200.868 914.202 183.779 900.568C175.875 894.261 169.02 886.197 163.559 877.705C152.874 861.089 148.557 846.919 146.333 827.488C168.818 818.004 199.098 816.627 223.268 815.948Z" fill="#6D9879"/>
<path d="M144.363 469.61C144.363 408.859 193.611 359.61 254.363 359.61H592.591C653.342 359.61 702.591 408.859 702.591 469.61V745.833H144.363V469.61Z" fill="#D9D9D9" fill-opacity="0.6"/>
<path d="M275.715 541.524C284.846 539.823 295.764 544.028 303.637 548.243C314.015 553.8 323.492 561.416 332.54 568.883C348.423 581.988 363.357 596.166 378.737 609.849C383.276 613.888 391.717 622.809 397.645 623.626C398.947 623.806 400.552 623.697 401.567 622.754C402.196 622.17 402.37 621.436 402.35 620.606C402.319 619.277 401.281 617.858 400.42 616.928C398.416 614.763 395.797 612.911 393.587 610.929C385.756 603.903 377.164 596.939 369.961 589.329L370.261 589.202C374.832 587.314 379.739 585.98 384.49 584.63C413.269 576.454 423.129 589.624 445.611 603.592C457.083 610.718 469.485 616.132 481.921 621.312C481.592 621.604 481.26 621.892 480.924 622.176C475.98 626.349 470.377 630.144 464.961 633.683C459.348 637.352 424.446 658.693 419.469 659.359C414.753 659.989 409.084 657.819 404.492 656.844C401.932 656.301 399.368 655.971 396.762 655.744C388.356 654.878 379.663 656.376 371.524 658.368C363.483 646.251 353.838 637.165 339.984 632.156C326.637 627.331 311.06 627.583 297.646 632.042C293.278 633.494 289.136 635.484 284.981 637.443C282.416 634.256 279.777 631.229 276.642 628.586C263.264 617.307 245.322 612.131 227.978 613.656C212.596 615.008 197.018 622.097 186.969 633.982C173.839 627.498 159.69 624.047 145.134 626.85C145.041 621.46 145.044 616.068 145.142 610.677C150.865 607.641 156.811 604.991 162.616 602.111C172.88 597.024 183.008 591.668 192.991 586.049C200.309 581.95 207.488 577.605 214.514 573.024C232.884 560.857 253.446 544.25 275.715 541.524Z" fill="#96A8A8"/>
<path d="M571.79 581.823C579.013 581.555 585.913 582.829 592.683 585.34C600.239 588.142 607.12 592.326 614.121 596.25C619.317 599.157 624.611 601.882 629.996 604.421C653.553 615.459 677.678 624.186 702.203 632.75C702.241 639.4 702.228 646.05 702.164 652.701C698.426 651.648 694.606 650.914 690.745 650.504C674.713 648.848 657.502 652.028 643.633 660.377C639.758 662.709 636.321 665.49 632.811 668.323C628.544 663.452 623.544 659.437 617.98 656.127C598.019 644.254 571.626 642.051 549.351 647.618C545.306 648.513 541.245 650.306 537.476 652.02C521.703 659.196 514.25 667.141 504.525 680.987C493.857 677.171 481.472 675.442 470.249 677.17C466.158 677.8 460.008 680.567 456.033 679.62C452.03 678.666 445.153 673.259 441.17 670.953C437.549 668.857 433.792 666.989 430.146 664.931C443.371 658.196 458.06 650.041 470.147 641.491C482.762 632.569 495.059 623.136 507.422 613.87C527.213 599.035 545.965 583.634 571.79 581.823Z" fill="#96A8A8"/>
<path d="M630.189 818.741C630.751 818.701 631.314 818.677 631.878 818.668C635.098 818.629 638.201 820.046 640.449 822.316C648.202 830.139 648.86 847.56 648.93 858.013C650.661 856.939 652.319 856.322 654.265 855.799C656.023 853.948 657.418 851.705 659.048 849.731C663.172 844.731 668.998 840.483 675.577 839.658C678.285 839.319 681.081 839.673 683.271 841.418C688.041 845.221 688.519 853.531 688.246 859.119C688.165 860.775 687.669 863.385 688.075 864.959C688.363 866.079 689.476 866.567 690.398 867.069L690.772 867.268C690.553 869.347 689.03 871.473 687.989 873.257C683.266 881.351 677.979 888.124 671.373 894.741C664.02 902.108 655.809 907.84 646.617 912.67C623.512 924.813 608.985 925.253 583.746 925.273L549.665 925.282L517.181 925.307C516.016 923.117 515.109 920.8 514.478 918.402C513.588 914.935 513.37 910.169 515.367 907.041C518.385 902.318 528.432 902.333 533.426 902.608C537.888 902.853 541.73 903.929 546.203 902.999C543.539 900.2 541.552 897.369 539.958 893.83C537.249 887.813 535.45 880.04 538.051 873.676C539.214 870.83 541.212 868.479 544.147 867.403C553.669 863.909 564.314 872.139 572.589 875.876C574.112 876.563 576.067 877.692 577.707 877.075C577.738 875.651 576.593 874.567 576.053 873.283C574.846 870.415 574 867.162 573.473 864.094C572.42 857.97 572.259 848.313 576.156 843.077C577.681 841.029 579.898 840.026 582.386 839.72C591.048 838.655 597.487 844.992 602.232 851.455C603.658 853.397 605.113 856.021 607.04 857.446C607.645 857.894 607.655 857.944 608.424 857.805C610.631 854.699 610.655 848.948 611.568 845.215C613.053 839.139 615.363 831.919 618.805 826.683C621.537 822.525 625.267 819.749 630.189 818.741Z" fill="#376448"/>
<path d="M202.156 755.925C204.018 755.713 205.914 756.043 207.649 756.731C216.807 760.362 221.64 774.7 223.226 783.506C223.809 786.747 223.636 790.84 224.924 793.852C228.954 796.423 237.628 784.009 246.639 783.706C249.089 783.624 251.596 784.528 253.356 786.261C258.22 791.049 254.746 797.592 254.852 803.179C254.875 804.416 255.209 805.412 256.175 806.241C259.277 808.903 264.094 805.76 267.445 805.774C270.659 805.788 272.589 807.992 274.623 810.148C253.661 806.586 228.978 806.103 207.664 806.95C190.266 807.846 160.673 810.358 145.127 817.585C144.911 806.761 144.366 795.745 145.003 784.935C148.321 781.348 149.975 776.569 153.586 773.284C155.823 771.249 158.839 769.364 161.969 769.596C169.84 770.181 173.372 779.921 177.532 784.524C178.35 785.429 178.973 785.759 180.189 785.796C181.206 785.211 181.748 784.643 182.256 783.573C183.039 781.927 183.298 779.919 183.719 778.151C184.806 773.591 186.224 769.133 188.781 765.165C192.014 760.145 196.327 757.199 202.156 755.925Z" fill="#376448"/>
<path d="M579.624 439.084C585.583 439.117 591.177 439.9 596.749 442.093C608.044 446.54 617.935 455.954 622.836 467.064C624.915 471.779 626.221 476.803 628.284 481.548C632.961 479.511 637.407 477.558 642.46 476.612C650.896 475.032 659.985 476.309 667.144 481.26C676.748 487.777 681.826 499.175 680.249 510.673C680.042 512.277 678.732 516.213 679.133 517.629C679.373 518.478 685.485 517.353 686.534 517.263C691.779 516.816 697.648 518.222 702.043 521.088L702.171 544.927C698.364 546.367 694.411 547.658 690.349 548.099C685.361 548.643 680.261 548.446 675.246 548.446L651.817 548.43L575.201 548.438L497.059 548.449L472.667 548.482C468.142 548.489 463.487 548.728 458.985 548.343C456.688 548.147 454.652 547.738 452.724 546.387C450.466 544.804 448.745 542.397 448.281 539.651C447.842 537.044 448.552 534.254 450.125 532.141C455.585 524.806 472.841 522.894 481.369 523.676C483.796 523.899 488.081 525.58 490.21 525.229C490.848 524.696 491.136 524.274 491.33 523.478C491.726 521.854 491.587 520.087 491.745 518.429C492.003 515.715 493.665 512.347 494.918 509.956C500.085 500.1 510.074 495.301 521.05 496.482C523.426 496.738 526.921 498.004 529.2 497.308C529.565 495.041 529.042 492.455 528.938 490.152C528.362 477.345 534.856 464.483 543.296 455.209C554.092 443.345 563.614 439.898 579.624 439.084Z" fill="#96A8A8"/>
<path d="M325.177 385.148C340.779 383.482 356.438 387.73 369.057 397.054C381.325 406.27 388.822 418.973 391.282 434.113C391.833 437.502 391.593 440.838 392.055 444.169C392.633 444.677 393.019 444.806 393.806 444.785C400.997 444.601 404.83 443.273 412.056 446.4C420.929 450.24 426.227 458.804 429.64 467.453C432.13 467.148 434.633 466.856 437.142 466.783C444.313 466.573 451.984 468.862 457.203 473.923C461.284 477.882 463.808 483.563 463.847 489.265C463.886 494.989 461.476 500.415 457.456 504.448C454.116 507.799 450.176 509.491 445.532 510.189C439.724 511.061 433.504 510.648 427.63 510.649L398.465 510.653L295.65 510.643L218.852 510.646L194.145 510.667C189.478 510.669 184.678 510.887 180.03 510.476C178.03 510.299 176.014 509.764 174.134 509.069C170.449 507.708 168.14 505.607 166.548 501.959C164.346 496.913 164.374 489.854 166.553 484.804C171.158 474.132 183.473 472.787 193.686 472.964C196.069 473.005 199.655 473.592 201.825 472.756C201.875 471.495 200.896 470.227 200.577 468.979C199.958 466.549 200.107 463.567 200.259 461.083C200.884 450.826 206.863 439.441 214.552 432.709C226.398 422.337 246.697 419.467 261.199 425.333C263.297 426.182 270.961 430.947 272.539 430.859C273.414 430.81 273.71 430.613 274.111 429.866C275.275 427.702 275.806 424.898 276.652 422.565C278.97 416.171 282.145 410.12 286.535 404.902C296.309 393.482 310.196 386.382 325.177 385.148Z" fill="#E1E6E7"/>
</svg>
