<svg width="849" height="1183" viewBox="0 0 849 1183" fill="none" xmlns="http://www.w3.org/2000/svg">
<rect x="5" y="5" width="839" height="1173" rx="45" fill="white"/>
<rect x="5" y="5" width="839" height="1173" rx="45" stroke="black" stroke-width="10"/>
<circle cx="786.5" cy="1124.5" r="11.5" fill="black"/>
<circle cx="786.5" cy="59.5" r="11.5" fill="black"/>
<path d="M77 1124.5C77 1130.85 71.8513 1136 65.5 1136C59.1487 1136 54 1130.85 54 1124.5C54 1118.15 59.1487 1113 65.5 1113C71.8513 1113 77 1118.15 77 1124.5Z" fill="black"/>
<path d="M77 59.5C77 65.8513 71.8513 71 65.5 71C59.1487 71 54 65.8513 54 59.5C54 53.1487 59.1487 48 65.5 48C71.8513 48 77 53.1487 77 59.5Z" fill="black"/>
<mask id="path-6-inside-1_1_233" fill="white">
<path d="M708 48C713.523 48 717.934 52.4996 718.616 57.9801C723.122 94.1833 751.817 122.878 788.02 127.384C793.5 128.066 798 132.477 798 138V1046C798 1051.52 793.5 1055.93 788.02 1056.62C751.817 1061.12 723.122 1089.82 718.616 1126.02C717.934 1131.5 713.523 1136 708 1136H141C135.477 1136 131.066 1131.5 130.384 1126.02C125.878 1089.82 97.1833 1061.12 60.9801 1056.62C55.4996 1055.93 51 1051.52 51 1046V138C51 132.477 55.4996 128.066 60.9801 127.384C97.1833 122.878 125.878 94.1833 130.384 57.9801C131.066 52.4996 135.477 48 141 48H708Z"/>
</mask>
<path d="M708 48C713.523 48 717.934 52.4996 718.616 57.9801C723.122 94.1833 751.817 122.878 788.02 127.384C793.5 128.066 798 132.477 798 138V1046C798 1051.52 793.5 1055.93 788.02 1056.62C751.817 1061.12 723.122 1089.82 718.616 1126.02C717.934 1131.5 713.523 1136 708 1136H141C135.477 1136 131.066 1131.5 130.384 1126.02C125.878 1089.82 97.1833 1061.12 60.9801 1056.62C55.4996 1055.93 51 1051.52 51 1046V138C51 132.477 55.4996 128.066 60.9801 127.384C97.1833 122.878 125.878 94.1833 130.384 57.9801C131.066 52.4996 135.477 48 141 48H708Z" fill="#C357B5"/>
<path d="M130.384 1126.02L138.322 1125.03L130.384 1126.02ZM718.616 1126.02L710.678 1125.03L718.616 1126.02ZM788.02 1056.62L789.008 1064.56L788.02 1056.62ZM718.616 57.9801L726.555 56.9922L718.616 57.9801ZM718.616 57.9801L710.678 58.9681C715.635 98.8063 747.194 130.365 787.032 135.322L788.02 127.384L789.008 119.445C756.44 115.392 730.608 89.5603 726.555 56.9922L718.616 57.9801ZM798 138H790V1046H798H806V138H798ZM788.02 1056.62L787.032 1048.68C747.194 1053.64 715.635 1085.19 710.678 1125.03L718.616 1126.02L726.555 1127.01C730.608 1094.44 756.44 1068.61 789.008 1064.56L788.02 1056.62ZM708 1136V1128H141V1136V1144H708V1136ZM130.384 1126.02L138.322 1125.03C133.365 1085.19 101.806 1053.64 61.9681 1048.68L60.9801 1056.62L59.9922 1064.56C92.5603 1068.61 118.392 1094.44 122.445 1127.01L130.384 1126.02ZM51 1046H59V138H51H43V1046H51ZM60.9801 127.384L61.9681 135.322C101.806 130.365 133.365 98.8063 138.322 58.9681L130.384 57.9801L122.445 56.9922C118.392 89.5603 92.5603 115.392 59.9922 119.445L60.9801 127.384ZM141 48V56H708V48V40H141V48ZM130.384 57.9801L138.322 58.9681C138.438 58.0389 138.872 57.2306 139.427 56.6958C139.954 56.1887 140.494 56 141 56V48V40C130.84 40 123.547 48.1329 122.445 56.9922L130.384 57.9801ZM51 138H59C59 137.494 59.1887 136.954 59.6958 136.427C60.2306 135.872 61.0389 135.438 61.9681 135.322L60.9801 127.384L59.9922 119.445C51.1329 120.547 43 127.84 43 138H51ZM60.9801 1056.62L61.9681 1048.68C61.0389 1048.56 60.2306 1048.13 59.6958 1047.57C59.1887 1047.05 59 1046.51 59 1046H51H43C43 1056.16 51.1329 1063.45 59.9922 1064.56L60.9801 1056.62ZM141 1136V1128C140.494 1128 139.954 1127.81 139.427 1127.3C138.872 1126.77 138.438 1125.96 138.322 1125.03L130.384 1126.02L122.445 1127.01C123.547 1135.87 130.84 1144 141 1144V1136ZM718.616 1126.02L710.678 1125.03C710.562 1125.96 710.128 1126.77 709.573 1127.3C709.046 1127.81 708.506 1128 708 1128V1136V1144C718.16 1144 725.453 1135.87 726.555 1127.01L718.616 1126.02ZM798 1046H790C790 1046.51 789.811 1047.05 789.304 1047.57C788.769 1048.13 787.961 1048.56 787.032 1048.68L788.02 1056.62L789.008 1064.56C797.867 1063.45 806 1056.16 806 1046H798ZM788.02 127.384L787.032 135.322C787.961 135.438 788.769 135.872 789.304 136.427C789.811 136.954 790 137.494 790 138H798H806C806 127.84 797.867 120.547 789.008 119.445L788.02 127.384ZM718.616 57.9801L726.555 56.9922C725.453 48.1329 718.16 40 708 40V48V56C708.506 56 709.046 56.1887 709.573 56.6958C710.128 57.2306 710.562 58.0389 710.678 58.9681L718.616 57.9801Z" fill="black" mask="url(#path-6-inside-1_1_233)"/>
<path d="M690 102C695.523 102 699.911 106.512 700.837 111.957C705.019 136.563 724.437 155.981 749.043 160.163C754.488 161.089 759 165.477 759 171V1014C759 1019.52 754.488 1023.91 749.043 1024.84C724.711 1028.97 705.454 1048 700.984 1072.22C699.993 1077.59 695.633 1082 690.175 1082H158.825C153.367 1082 149.007 1077.59 148.016 1072.22C143.546 1048 124.288 1028.97 99.9568 1024.84C94.5121 1023.91 90 1019.52 90 1014V171C90 165.477 94.512 161.089 99.9568 160.163C124.563 155.981 143.981 136.563 148.163 111.957C149.089 106.512 153.477 102 159 102H690Z" fill="#D78BCD"/>
<mask id="path-9-outside-2_1_233" maskUnits="userSpaceOnUse" x="401" y="1007" width="48" height="31" fill="black">
<rect fill="white" x="401" y="1007" width="48" height="31"/>
<path d="M420.2 1011.76H406.8V1019.72C407.36 1018.97 408.187 1018.35 409.28 1017.84C410.4 1017.33 411.587 1017.08 412.84 1017.08C415.08 1017.08 416.893 1017.56 418.28 1018.52C419.693 1019.48 420.693 1020.69 421.28 1022.16C421.893 1023.63 422.2 1025.17 422.2 1026.8C422.2 1028.77 421.813 1030.53 421.04 1032.08C420.293 1033.6 419.16 1034.8 417.64 1035.68C416.147 1036.56 414.307 1037 412.12 1037C409.213 1037 406.88 1036.28 405.12 1034.84C403.36 1033.4 402.307 1031.49 401.96 1029.12H406.4C406.693 1030.37 407.347 1031.37 408.36 1032.12C409.373 1032.84 410.64 1033.2 412.16 1033.2C414.053 1033.2 415.467 1032.63 416.4 1031.48C417.36 1030.33 417.84 1028.81 417.84 1026.92C417.84 1025 417.36 1023.53 416.4 1022.52C415.44 1021.48 414.027 1020.96 412.16 1020.96C410.853 1020.96 409.747 1021.29 408.84 1021.96C407.96 1022.6 407.32 1023.48 406.92 1024.6H402.6V1007.76H420.2V1011.76ZM426.947 1022.04C426.947 1017.43 427.72 1013.83 429.267 1011.24C430.84 1008.63 433.534 1007.32 437.347 1007.32C441.16 1007.32 443.84 1008.63 445.387 1011.24C446.96 1013.83 447.747 1017.43 447.747 1022.04C447.747 1026.71 446.96 1030.36 445.387 1033C443.84 1035.61 441.16 1036.92 437.347 1036.92C433.534 1036.92 430.84 1035.61 429.267 1033C427.72 1030.36 426.947 1026.71 426.947 1022.04ZM443.267 1022.04C443.267 1019.88 443.12 1018.05 442.827 1016.56C442.56 1015.07 442 1013.85 441.147 1012.92C440.294 1011.96 439.027 1011.48 437.347 1011.48C435.667 1011.48 434.4 1011.96 433.547 1012.92C432.694 1013.85 432.12 1015.07 431.827 1016.56C431.56 1018.05 431.427 1019.88 431.427 1022.04C431.427 1024.28 431.56 1026.16 431.827 1027.68C432.094 1029.2 432.654 1030.43 433.507 1031.36C434.387 1032.29 435.667 1032.76 437.347 1032.76C439.027 1032.76 440.294 1032.29 441.147 1031.36C442.027 1030.43 442.6 1029.2 442.867 1027.68C443.134 1026.16 443.267 1024.28 443.267 1022.04Z"/>
</mask>
<path d="M420.2 1011.76H406.8V1019.72C407.36 1018.97 408.187 1018.35 409.28 1017.84C410.4 1017.33 411.587 1017.08 412.84 1017.08C415.08 1017.08 416.893 1017.56 418.28 1018.52C419.693 1019.48 420.693 1020.69 421.28 1022.16C421.893 1023.63 422.2 1025.17 422.2 1026.8C422.2 1028.77 421.813 1030.53 421.04 1032.08C420.293 1033.6 419.16 1034.8 417.64 1035.68C416.147 1036.56 414.307 1037 412.12 1037C409.213 1037 406.88 1036.28 405.12 1034.84C403.36 1033.4 402.307 1031.49 401.96 1029.12H406.4C406.693 1030.37 407.347 1031.37 408.36 1032.12C409.373 1032.84 410.64 1033.2 412.16 1033.2C414.053 1033.2 415.467 1032.63 416.4 1031.48C417.36 1030.33 417.84 1028.81 417.84 1026.92C417.84 1025 417.36 1023.53 416.4 1022.52C415.44 1021.48 414.027 1020.96 412.16 1020.96C410.853 1020.96 409.747 1021.29 408.84 1021.96C407.96 1022.6 407.32 1023.48 406.92 1024.6H402.6V1007.76H420.2V1011.76ZM426.947 1022.04C426.947 1017.43 427.72 1013.83 429.267 1011.24C430.84 1008.63 433.534 1007.32 437.347 1007.32C441.16 1007.32 443.84 1008.63 445.387 1011.24C446.96 1013.83 447.747 1017.43 447.747 1022.04C447.747 1026.71 446.96 1030.36 445.387 1033C443.84 1035.61 441.16 1036.92 437.347 1036.92C433.534 1036.92 430.84 1035.61 429.267 1033C427.72 1030.36 426.947 1026.71 426.947 1022.04ZM443.267 1022.04C443.267 1019.88 443.12 1018.05 442.827 1016.56C442.56 1015.07 442 1013.85 441.147 1012.92C440.294 1011.96 439.027 1011.48 437.347 1011.48C435.667 1011.48 434.4 1011.96 433.547 1012.92C432.694 1013.85 432.12 1015.07 431.827 1016.56C431.56 1018.05 431.427 1019.88 431.427 1022.04C431.427 1024.28 431.56 1026.16 431.827 1027.68C432.094 1029.2 432.654 1030.43 433.507 1031.36C434.387 1032.29 435.667 1032.76 437.347 1032.76C439.027 1032.76 440.294 1032.29 441.147 1031.36C442.027 1030.43 442.6 1029.2 442.867 1027.68C443.134 1026.16 443.267 1024.28 443.267 1022.04Z" fill="black"/>
<path d="M420.2 1011.76V1012.06H420.5V1011.76H420.2ZM406.8 1011.76V1011.46H406.5V1011.76H406.8ZM406.8 1019.72H406.5V1020.62L407.04 1019.9L406.8 1019.72ZM409.28 1017.84L409.156 1017.57L409.154 1017.57L409.28 1017.84ZM418.28 1018.52L418.109 1018.77L418.111 1018.77L418.28 1018.52ZM421.28 1022.16L421.001 1022.27L421.003 1022.28L421.28 1022.16ZM421.04 1032.08L420.772 1031.95L420.771 1031.95L421.04 1032.08ZM417.64 1035.68L417.49 1035.42L417.488 1035.42L417.64 1035.68ZM405.12 1034.84L405.31 1034.61L405.12 1034.84ZM401.96 1029.12V1028.82H401.613L401.663 1029.16L401.96 1029.12ZM406.4 1029.12L406.692 1029.05L406.638 1028.82H406.4V1029.12ZM408.36 1032.12L408.182 1032.36L408.186 1032.36L408.36 1032.12ZM416.4 1031.48L416.17 1031.29L416.167 1031.29L416.4 1031.48ZM416.4 1022.52L416.18 1022.72L416.182 1022.73L416.4 1022.52ZM408.84 1021.96L409.016 1022.2L409.018 1022.2L408.84 1021.96ZM406.92 1024.6V1024.9H407.131L407.203 1024.7L406.92 1024.6ZM402.6 1024.6H402.3V1024.9H402.6V1024.6ZM402.6 1007.76V1007.46H402.3V1007.76H402.6ZM420.2 1007.76H420.5V1007.46H420.2V1007.76ZM420.2 1011.76V1011.46H406.8V1011.76V1012.06H420.2V1011.76ZM406.8 1011.76H406.5V1019.72H406.8H407.1V1011.76H406.8ZM406.8 1019.72L407.04 1019.9C407.563 1019.2 408.345 1018.6 409.406 1018.11L409.28 1017.84L409.154 1017.57C408.028 1018.09 407.157 1018.74 406.56 1019.54L406.8 1019.72ZM409.28 1017.84L409.404 1018.11C410.484 1017.62 411.628 1017.38 412.84 1017.38V1017.08V1016.78C411.545 1016.78 410.316 1017.04 409.156 1017.57L409.28 1017.84ZM412.84 1017.08V1017.38C415.039 1017.38 416.787 1017.85 418.109 1018.77L418.28 1018.52L418.451 1018.27C417 1017.27 415.121 1016.78 412.84 1016.78V1017.08ZM418.28 1018.52L418.111 1018.77C419.48 1019.7 420.439 1020.86 421.001 1022.27L421.28 1022.16L421.559 1022.05C420.948 1020.52 419.907 1019.26 418.449 1018.27L418.28 1018.52ZM421.28 1022.16L421.003 1022.28C421.601 1023.7 421.9 1025.21 421.9 1026.8H422.2H422.5C422.5 1025.13 422.186 1023.55 421.557 1022.04L421.28 1022.16ZM422.2 1026.8H421.9C421.9 1028.73 421.521 1030.45 420.772 1031.95L421.04 1032.08L421.308 1032.21C422.105 1030.62 422.5 1028.81 422.5 1026.8H422.2ZM421.04 1032.08L420.771 1031.95C420.051 1033.41 418.96 1034.57 417.49 1035.42L417.64 1035.68L417.79 1035.94C419.36 1035.03 420.535 1033.79 421.309 1032.21L421.04 1032.08ZM417.64 1035.68L417.488 1035.42C416.051 1036.27 414.267 1036.7 412.12 1036.7V1037V1037.3C414.346 1037.3 416.242 1036.85 417.792 1035.94L417.64 1035.68ZM412.12 1037V1036.7C409.263 1036.7 407.003 1035.99 405.31 1034.61L405.12 1034.84L404.93 1035.07C406.757 1036.57 409.164 1037.3 412.12 1037.3V1037ZM405.12 1034.84L405.31 1034.61C403.611 1033.22 402.593 1031.38 402.257 1029.08L401.96 1029.12L401.663 1029.16C402.02 1031.61 403.109 1033.58 404.93 1035.07L405.12 1034.84ZM401.96 1029.12V1029.42H406.4V1029.12V1028.82H401.96V1029.12ZM406.4 1029.12L406.108 1029.19C406.417 1030.51 407.11 1031.57 408.182 1032.36L408.36 1032.12L408.538 1031.88C407.583 1031.18 406.97 1030.24 406.692 1029.05L406.4 1029.12ZM408.36 1032.12L408.186 1032.36C409.261 1033.13 410.592 1033.5 412.16 1033.5V1033.2V1032.9C410.688 1032.9 409.486 1032.55 408.534 1031.88L408.36 1032.12ZM412.16 1033.2V1033.5C414.116 1033.5 415.627 1032.9 416.633 1031.67L416.4 1031.48L416.167 1031.29C415.306 1032.35 413.991 1032.9 412.16 1032.9V1033.2ZM416.4 1031.48L416.63 1031.67C417.646 1030.46 418.14 1028.86 418.14 1026.92H417.84H417.54C417.54 1028.76 417.074 1030.21 416.17 1031.29L416.4 1031.48ZM417.84 1026.92H418.14C418.14 1024.95 417.648 1023.4 416.618 1022.31L416.4 1022.52L416.182 1022.73C417.072 1023.67 417.54 1025.05 417.54 1026.92H417.84ZM416.4 1022.52L416.62 1022.32C415.587 1021.2 414.082 1020.66 412.16 1020.66V1020.96V1021.26C413.971 1021.26 415.293 1021.76 416.18 1022.72L416.4 1022.52ZM412.16 1020.96V1020.66C410.8 1020.66 409.628 1021.01 408.662 1021.72L408.84 1021.96L409.018 1022.2C409.865 1021.58 410.907 1021.26 412.16 1021.26V1020.96ZM408.84 1021.96L408.664 1021.72C407.73 1022.4 407.056 1023.33 406.637 1024.5L406.92 1024.6L407.203 1024.7C407.584 1023.63 408.19 1022.8 409.016 1022.2L408.84 1021.96ZM406.92 1024.6V1024.3H402.6V1024.6V1024.9H406.92V1024.6ZM402.6 1024.6H402.9V1007.76H402.6H402.3V1024.6H402.6ZM402.6 1007.76V1008.06H420.2V1007.76V1007.46H402.6V1007.76ZM420.2 1007.76H419.9V1011.76H420.2H420.5V1007.76H420.2ZM429.267 1011.24L429.01 1011.09L429.009 1011.09L429.267 1011.24ZM445.387 1011.24L445.129 1011.39L445.131 1011.4L445.387 1011.24ZM445.387 1033L445.129 1032.85L445.129 1032.85L445.387 1033ZM429.267 1033L429.008 1033.15L429.01 1033.15L429.267 1033ZM442.827 1016.56L442.532 1016.61L442.533 1016.62L442.827 1016.56ZM441.147 1012.92L440.923 1013.12L440.925 1013.12L441.147 1012.92ZM433.547 1012.92L433.768 1013.12L433.771 1013.12L433.547 1012.92ZM431.827 1016.56L431.532 1016.5L431.532 1016.51L431.827 1016.56ZM431.827 1027.68L432.122 1027.63L431.827 1027.68ZM433.507 1031.36L433.285 1031.56L433.289 1031.57L433.507 1031.36ZM441.147 1031.36L440.929 1031.15L440.925 1031.16L441.147 1031.36ZM442.867 1027.68L443.162 1027.73L442.867 1027.68ZM426.947 1022.04H427.247C427.247 1017.45 428.017 1013.92 429.524 1011.39L429.267 1011.24L429.009 1011.09C427.424 1013.74 426.647 1017.4 426.647 1022.04H426.947ZM429.267 1011.24L429.524 1011.39C431.029 1008.89 433.608 1007.62 437.347 1007.62V1007.32V1007.02C433.459 1007.02 430.651 1008.36 429.01 1011.09L429.267 1011.24ZM437.347 1007.32V1007.62C441.086 1007.62 443.65 1008.89 445.129 1011.39L445.387 1011.24L445.645 1011.09C444.03 1008.36 441.235 1007.02 437.347 1007.02V1007.32ZM445.387 1011.24L445.131 1011.4C446.664 1013.92 447.447 1017.46 447.447 1022.04H447.747H448.047C448.047 1017.4 447.256 1013.74 445.643 1011.08L445.387 1011.24ZM447.747 1022.04H447.447C447.447 1026.68 446.664 1030.27 445.129 1032.85L445.387 1033L445.645 1033.15C447.256 1030.45 448.047 1026.73 448.047 1022.04H447.747ZM445.387 1033L445.129 1032.85C443.65 1035.35 441.086 1036.62 437.347 1036.62V1036.92V1037.22C441.235 1037.22 444.03 1035.88 445.645 1033.15L445.387 1033ZM437.347 1036.92V1036.62C433.608 1036.62 431.029 1035.35 429.524 1032.85L429.267 1033L429.01 1033.15C430.651 1035.88 433.459 1037.22 437.347 1037.22V1036.92ZM429.267 1033L429.526 1032.85C428.017 1030.27 427.247 1026.68 427.247 1022.04H426.947H426.647C426.647 1026.73 427.424 1030.45 429.008 1033.15L429.267 1033ZM443.267 1022.04H443.567C443.567 1019.87 443.42 1018.02 443.121 1016.5L442.827 1016.56L442.533 1016.62C442.821 1018.09 442.967 1019.89 442.967 1022.04H443.267ZM442.827 1016.56L443.122 1016.51C442.848 1014.97 442.267 1013.7 441.368 1012.72L441.147 1012.92L440.925 1013.12C441.733 1014.01 442.273 1015.16 442.532 1016.61L442.827 1016.56ZM441.147 1012.92L441.371 1012.72C440.445 1011.68 439.085 1011.18 437.347 1011.18V1011.48V1011.78C438.969 1011.78 440.143 1012.24 440.923 1013.12L441.147 1012.92ZM437.347 1011.48V1011.18C435.609 1011.18 434.249 1011.68 433.323 1012.72L433.547 1012.92L433.771 1013.12C434.551 1012.24 435.725 1011.78 437.347 1011.78V1011.48ZM433.547 1012.92L433.325 1012.72C432.428 1013.7 431.834 1014.97 431.533 1016.5L431.827 1016.56L432.121 1016.62C432.406 1015.17 432.959 1014.01 433.768 1013.12L433.547 1012.92ZM431.827 1016.56L431.532 1016.51C431.261 1018.02 431.127 1019.87 431.127 1022.04H431.427H431.727C431.727 1019.89 431.86 1018.08 432.122 1016.61L431.827 1016.56ZM431.427 1022.04H431.127C431.127 1024.29 431.261 1026.19 431.531 1027.73L431.827 1027.68L432.122 1027.63C431.86 1026.13 431.727 1024.27 431.727 1022.04H431.427ZM431.827 1027.68L431.531 1027.73C431.806 1029.3 432.386 1030.58 433.285 1031.56L433.507 1031.36L433.728 1031.16C432.921 1030.27 432.381 1029.1 432.122 1027.63L431.827 1027.68ZM433.507 1031.36L433.289 1031.57C434.241 1032.58 435.611 1033.06 437.347 1033.06V1032.76V1032.46C435.723 1032.46 434.532 1032.01 433.725 1031.15L433.507 1031.36ZM437.347 1032.76V1033.06C439.082 1033.06 440.441 1032.58 441.368 1031.56L441.147 1031.36L440.925 1031.16C440.146 1032.01 438.972 1032.46 437.347 1032.46V1032.76ZM441.147 1031.36L441.365 1031.57C442.293 1030.58 442.888 1029.3 443.162 1027.73L442.867 1027.68L442.571 1027.63C442.313 1029.1 441.761 1030.27 440.929 1031.15L441.147 1031.36ZM442.867 1027.68L443.162 1027.73C443.433 1026.19 443.567 1024.29 443.567 1022.04H443.267H442.967C442.967 1024.27 442.834 1026.13 442.571 1027.63L442.867 1027.68Z" fill="black" mask="url(#path-9-outside-2_1_233)"/>
<path d="M279.365 272L264.665 244.7H262.46V272H241.88V197.975H274.325C280.275 197.975 285.315 199.025 289.445 201.125C293.575 203.155 296.69 205.99 298.79 209.63C300.89 213.2 301.94 217.225 301.94 221.705C301.94 226.745 300.54 231.19 297.74 235.04C295.01 238.82 290.985 241.515 285.665 243.125L302.36 272H279.365ZM262.46 230.63H272.645C275.445 230.63 277.545 229.965 278.945 228.635C280.345 227.305 281.045 225.38 281.045 222.86C281.045 220.48 280.31 218.625 278.84 217.295C277.44 215.895 275.375 215.195 272.645 215.195H262.46V230.63ZM338.704 272.735C332.824 272.735 327.539 271.51 322.849 269.06C318.229 266.61 314.589 263.11 311.929 258.56C309.269 254.01 307.939 248.655 307.939 242.495C307.939 236.405 309.269 231.085 311.929 226.535C314.659 221.985 318.334 218.485 322.954 216.035C327.644 213.585 332.929 212.36 338.809 212.36C344.689 212.36 349.939 213.585 354.559 216.035C359.249 218.485 362.924 221.985 365.584 226.535C368.314 231.085 369.679 236.405 369.679 242.495C369.679 248.585 368.314 253.94 365.584 258.56C362.924 263.11 359.249 266.61 354.559 269.06C349.869 271.51 344.584 272.735 338.704 272.735ZM338.704 254.885C341.574 254.885 343.954 253.835 345.844 251.735C347.804 249.565 348.784 246.485 348.784 242.495C348.784 238.505 347.804 235.46 345.844 233.36C343.954 231.26 341.609 230.21 338.809 230.21C336.009 230.21 333.664 231.26 331.774 233.36C329.884 235.46 328.939 238.505 328.939 242.495C328.939 246.555 329.849 249.635 331.669 251.735C333.489 253.835 335.834 254.885 338.704 254.885ZM374.692 242.495C374.692 236.405 375.952 231.085 378.472 226.535C380.992 221.985 384.492 218.485 388.972 216.035C393.522 213.585 398.702 212.36 404.512 212.36C412.002 212.36 418.302 214.425 423.412 218.555C428.522 222.615 431.812 228.32 433.282 235.67H411.442C410.182 231.82 407.732 229.895 404.092 229.895C401.502 229.895 399.437 230.98 397.897 233.15C396.427 235.25 395.692 238.365 395.692 242.495C395.692 246.625 396.427 249.775 397.897 251.945C399.437 254.115 401.502 255.2 404.092 255.2C407.802 255.2 410.252 253.275 411.442 249.425H433.282C431.812 256.705 428.522 262.41 423.412 266.54C418.302 270.67 412.002 272.735 404.512 272.735C398.702 272.735 393.522 271.51 388.972 269.06C384.492 266.61 380.992 263.11 378.472 258.56C375.952 254.01 374.692 248.655 374.692 242.495ZM478.686 272L462.411 247.85V272H441.831V194.3H462.411V236.195L478.686 213.095H503.361L480.156 242.705L503.781 272H478.686ZM566.095 241.865C566.095 243.475 565.99 245.085 565.78 246.695H526.825C527.035 249.915 527.91 252.33 529.45 253.94C531.06 255.48 533.09 256.25 535.54 256.25C538.97 256.25 541.42 254.71 542.89 251.63H564.835C563.925 255.69 562.14 259.33 559.48 262.55C556.89 265.7 553.6 268.185 549.61 270.005C545.62 271.825 541.21 272.735 536.38 272.735C530.57 272.735 525.39 271.51 520.84 269.06C516.36 266.61 512.825 263.11 510.235 258.56C507.715 254.01 506.455 248.655 506.455 242.495C506.455 236.335 507.715 231.015 510.235 226.535C512.755 221.985 516.255 218.485 520.735 216.035C525.285 213.585 530.5 212.36 536.38 212.36C542.19 212.36 547.335 213.55 551.815 215.93C556.295 218.31 559.795 221.74 562.315 226.22C564.835 230.63 566.095 235.845 566.095 241.865ZM545.095 236.72C545.095 234.2 544.255 232.24 542.575 230.84C540.895 229.37 538.795 228.635 536.275 228.635C533.755 228.635 531.69 229.335 530.08 230.735C528.47 232.065 527.42 234.06 526.93 236.72H545.095ZM609.272 254.465V272H600.347C585.297 272 577.772 264.545 577.772 249.635V230.21H570.527V213.095H577.772V198.815H598.457V213.095H609.167V230.21H598.457V249.95C598.457 251.56 598.807 252.715 599.507 253.415C600.277 254.115 601.537 254.465 603.287 254.465H609.272Z" fill="black"/>
<path d="M697.824 340.073C730.785 339.17 726.713 346.419 725.907 375.701C722.424 502.362 653.299 617.566 563.129 702.592C584.809 733.91 582.314 778.811 557.242 807.734C546.766 819.823 534.698 831.102 523.327 842.343L449.911 915.576C444.155 921.347 438.514 927.341 432.543 932.875C425.395 939.495 412.396 935.811 409.65 926.444C408.441 922.323 408.146 917.792 407.604 913.539L404.979 893.543C401.112 865.389 397.875 836.941 392.914 808.965C384.2 818.7 369.633 831.325 362.559 841.105C361.712 852.015 363.748 863.074 363.37 874.065C362.082 877.393 301.272 937.784 294.928 944C290.896 918.292 283.289 891.83 278.633 865.843C252.206 879.548 237.205 885.325 205.661 885.14C200.364 884.78 195.1 884.197 189.858 883.365C180.537 853.123 186.49 817.506 200.528 789.879C175.495 786.808 145.729 781.995 121 777.06C124.177 773.105 127.911 769.559 131.454 765.935L177.476 719.193C181.945 714.688 186.523 709.143 191.696 705.522C204.256 706.28 217.209 708.619 229.608 710.781C237.88 703.355 251.064 690.66 258.465 682.367C229.858 674.076 200.658 667.371 171.333 662.204C163.842 660.886 140.251 658.128 135.484 654.784C121.368 644.88 138.935 631.234 145.603 624.581L231.221 539.651C241.498 529.386 254.21 515.007 265.749 506.869C295.613 485.805 339.344 487.179 368.551 508.637C378.001 499.066 386.56 488.641 396.347 479.367C474.228 405.565 570.449 352.013 678.326 341.642C684.816 341.018 691.344 340.817 697.824 340.073Z" fill="#1D1F20"/>
<path d="M527.278 411.626C552.291 438.997 583.231 467.659 610.175 493.165C615.297 497.713 619.952 502.798 624.899 507.539L659.044 539.972C656.821 545.199 653.759 550.212 650.959 555.152C591.826 659.5 504.706 735.125 395.114 781.361C384.271 768.358 371.51 757.089 359.932 744.776L355.423 740.592C359.256 735.599 364.09 731.27 368.495 726.78L461.609 633.189C468.447 626.26 493.809 605.111 495.519 596.351C496.668 590.465 492.383 584.067 486.318 583.39C477.794 582.441 470.578 591.81 465.217 597.107L355.904 707.19C350.462 712.756 345.29 719.318 339.111 724.014L338.598 724.398C325.951 709.375 305.838 690.106 291.024 676.271C299.265 658.566 307.123 640.864 316.544 623.72C360.108 544.437 425.387 471.789 503.783 425.401C511.586 420.782 519.751 416.692 527.278 411.626Z" fill="#4D7792"/>
<path d="M610.175 493.166C615.296 497.713 619.952 502.799 624.898 507.539L659.044 539.973C656.821 545.2 653.758 550.213 650.958 555.152C591.825 659.501 504.705 735.125 395.114 781.361C384.271 768.359 371.51 757.089 359.932 744.776C411.547 723.285 457.924 692.181 500.423 656.156C511.396 646.854 561.382 600.128 567.195 587.969C582.418 581.48 594.408 569.162 600.485 553.77C606.562 538.378 606.22 521.192 599.536 506.055C602.983 503.271 607.281 496.808 610.175 493.166Z" fill="#32495A"/>
<path d="M567.194 587.968C535.854 601.328 499.61 586.838 486.116 555.554C472.622 524.27 486.956 487.964 518.181 474.336C549.406 460.709 585.774 474.887 599.536 506.054C606.219 521.191 606.562 538.378 600.485 553.77C594.408 569.161 582.418 581.479 567.194 587.968Z" fill="#1D1F20"/>
<path d="M512.545 554.714C500.687 539.607 501.705 518.086 514.938 504.166C528.171 490.247 549.612 488.141 565.301 499.221C577.692 507.973 583.824 523.157 580.988 538.059C578.151 552.961 566.867 564.832 552.128 568.418C537.389 572.004 521.912 566.647 512.545 554.714Z" fill="#FC8A0A"/>
<path d="M512.545 554.714C500.687 539.607 501.705 518.086 514.938 504.166C528.171 490.247 549.612 488.141 565.301 499.221C561.249 506.893 519.826 547.543 512.545 554.714Z" fill="#FECB11"/>
<path d="M549.009 400.626C588.769 379.678 659.629 363.02 702.838 363.576V368.336C703.688 417.707 689.185 473.607 669.546 518.647L638.399 488.042C631.657 481.517 624.709 475.209 618.151 468.495C594.424 446.825 570.95 424.126 549.009 400.626Z" fill="#F5F7F7"/>
<path d="M702.838 368.335C703.689 417.706 689.186 473.605 669.547 518.646L638.399 488.04C631.657 481.516 624.709 475.208 618.152 468.494C639.579 443.787 660.269 418.392 681.298 393.339C685.703 388.093 698.429 371.358 702.838 368.335Z" fill="#B0DAE9"/>
<path d="M166.204 637.822L257.278 546.83C276.735 527.129 304.592 503.296 334.813 518.646C341.674 519.366 347.43 523.041 353.424 526.217C326.261 558.482 286.332 621.012 271.805 662.436C264.797 660.03 257.793 657.802 250.643 655.856C222.897 648.616 194.581 641.975 166.204 637.822Z" fill="#FC384A"/>
<path d="M334.813 518.646C341.673 519.367 347.429 523.041 353.423 526.218C326.26 558.483 286.332 621.012 271.804 662.437C264.796 660.031 257.793 657.802 250.642 655.857C252.313 650.129 255.449 644.405 258.027 639.034C270.492 613.058 311.963 537.442 334.813 518.646Z" fill="#C70D2E"/>
<path d="M544.784 717.464C549.918 724.647 552.285 732.222 554.751 740.592C557.638 785.488 534.255 798.135 506.093 826.089L430.389 900.701C425.856 874.503 423.379 847.957 418.859 821.72C417.391 813.78 416.16 805.857 415.107 797.852C458.272 779.875 510.875 748.162 544.784 717.464Z" fill="#FC384A"/>
<path d="M544.784 717.464C549.918 724.647 552.285 732.222 554.751 740.592L554.223 740.912C549.352 743.915 545.033 748.129 540.609 751.758C517.533 770.692 449.286 814.465 418.859 821.72C417.391 813.78 416.16 805.857 415.107 797.852C458.272 779.875 510.875 748.162 544.784 717.464Z" fill="#C70D2E"/>
<path d="M282.628 783.986C299.756 800.882 323.434 822.758 338.598 841.106C338.374 849.334 339.125 857.627 339.582 865.844C329.044 875.019 320.48 886.317 309.976 895.424C305.619 879.445 294.244 836.775 294.928 824.069C267.854 845.27 245.148 862.945 209.237 861.952V855.63C214.279 855.333 242.443 824.565 247.047 820.067L270.742 796.726C274.668 792.797 279.677 788.671 282.628 783.986Z" fill="#FC8A0A"/>
<path d="M169.711 761.166C180.631 751.727 189.672 740.192 200.528 730.654C207.88 731.592 225.191 732.161 231.036 734.17C235.085 735.56 276.125 777.393 282.629 783.986C279.678 788.671 274.668 792.796 270.742 796.726L247.048 820.067C242.444 824.565 214.28 855.333 209.238 855.63C208.011 821.194 218.869 796.854 242.826 772.277C235.643 771.486 228.419 770.159 221.267 769.097L169.711 761.166Z" fill="#FECB11"/>
<path d="M325.581 743.084C342.85 757.911 359.255 777.409 376.81 793.246C367.884 802.074 359.353 811.402 350.294 820.068C334.66 801.793 316.256 786.08 299.986 768.406C302.733 766.647 324.361 745.451 325.581 743.084Z" fill="#048FF0"/>
<path d="M277.241 695.819C293.639 711.292 309.034 727.81 325.581 743.084C324.361 745.451 302.733 766.647 299.986 768.406C283.766 752.853 268.004 736.569 252.291 720.489C260.77 712.402 268.833 703.965 277.241 695.819Z" fill="#03D1F4"/>
</svg>
