<svg width="849" height="1183" viewBox="0 0 849 1183" fill="none" xmlns="http://www.w3.org/2000/svg">
<rect x="5" y="5" width="839" height="1173" rx="45" fill="white"/>
<rect x="5" y="5" width="839" height="1173" rx="45" stroke="black" stroke-width="10"/>
<circle cx="786.5" cy="1124.5" r="11.5" fill="black"/>
<circle cx="786.5" cy="59.5" r="11.5" fill="black"/>
<path d="M77 1124.5C77 1130.85 71.8513 1136 65.5 1136C59.1487 1136 54 1130.85 54 1124.5C54 1118.15 59.1487 1113 65.5 1113C71.8513 1113 77 1118.15 77 1124.5Z" fill="black"/>
<path d="M77 59.5C77 65.8513 71.8513 71 65.5 71C59.1487 71 54 65.8513 54 59.5C54 53.1487 59.1487 48 65.5 48C71.8513 48 77 53.1487 77 59.5Z" fill="black"/>
<mask id="path-6-inside-1_1_706" fill="white">
<path d="M708 48C713.523 48 717.934 52.4996 718.616 57.9801C723.122 94.1833 751.817 122.878 788.02 127.384C793.5 128.066 798 132.477 798 138V1046C798 1051.52 793.5 1055.93 788.02 1056.62C751.817 1061.12 723.122 1089.82 718.616 1126.02C717.934 1131.5 713.523 1136 708 1136H141C135.477 1136 131.066 1131.5 130.384 1126.02C125.878 1089.82 97.1833 1061.12 60.9801 1056.62C55.4996 1055.93 51 1051.52 51 1046V138C51 132.477 55.4996 128.066 60.9801 127.384C97.1833 122.878 125.878 94.1833 130.384 57.9801C131.066 52.4996 135.477 48 141 48H708Z"/>
</mask>
<path d="M708 48C713.523 48 717.934 52.4996 718.616 57.9801C723.122 94.1833 751.817 122.878 788.02 127.384C793.5 128.066 798 132.477 798 138V1046C798 1051.52 793.5 1055.93 788.02 1056.62C751.817 1061.12 723.122 1089.82 718.616 1126.02C717.934 1131.5 713.523 1136 708 1136H141C135.477 1136 131.066 1131.5 130.384 1126.02C125.878 1089.82 97.1833 1061.12 60.9801 1056.62C55.4996 1055.93 51 1051.52 51 1046V138C51 132.477 55.4996 128.066 60.9801 127.384C97.1833 122.878 125.878 94.1833 130.384 57.9801C131.066 52.4996 135.477 48 141 48H708Z" fill="#0089CB"/>
<path d="M130.384 1126.02L138.322 1125.03L130.384 1126.02ZM718.616 1126.02L710.678 1125.03L718.616 1126.02ZM788.02 1056.62L789.008 1064.56L788.02 1056.62ZM718.616 57.9801L726.555 56.9922L718.616 57.9801ZM718.616 57.9801L710.678 58.9681C715.635 98.8063 747.194 130.365 787.032 135.322L788.02 127.384L789.008 119.445C756.44 115.392 730.608 89.5603 726.555 56.9922L718.616 57.9801ZM798 138H790V1046H798H806V138H798ZM788.02 1056.62L787.032 1048.68C747.194 1053.64 715.635 1085.19 710.678 1125.03L718.616 1126.02L726.555 1127.01C730.608 1094.44 756.44 1068.61 789.008 1064.56L788.02 1056.62ZM708 1136V1128H141V1136V1144H708V1136ZM130.384 1126.02L138.322 1125.03C133.365 1085.19 101.806 1053.64 61.9681 1048.68L60.9801 1056.62L59.9922 1064.56C92.5603 1068.61 118.392 1094.44 122.445 1127.01L130.384 1126.02ZM51 1046H59V138H51H43V1046H51ZM60.9801 127.384L61.9681 135.322C101.806 130.365 133.365 98.8063 138.322 58.9681L130.384 57.9801L122.445 56.9922C118.392 89.5603 92.5603 115.392 59.9922 119.445L60.9801 127.384ZM141 48V56H708V48V40H141V48ZM130.384 57.9801L138.322 58.9681C138.438 58.0389 138.872 57.2306 139.427 56.6958C139.954 56.1887 140.494 56 141 56V48V40C130.84 40 123.547 48.1329 122.445 56.9922L130.384 57.9801ZM51 138H59C59 137.494 59.1887 136.954 59.6958 136.427C60.2306 135.872 61.0389 135.438 61.9681 135.322L60.9801 127.384L59.9922 119.445C51.1329 120.547 43 127.84 43 138H51ZM60.9801 1056.62L61.9681 1048.68C61.0389 1048.56 60.2306 1048.13 59.6958 1047.57C59.1887 1047.05 59 1046.51 59 1046H51H43C43 1056.16 51.1329 1063.45 59.9922 1064.56L60.9801 1056.62ZM141 1136V1128C140.494 1128 139.954 1127.81 139.427 1127.3C138.872 1126.77 138.438 1125.96 138.322 1125.03L130.384 1126.02L122.445 1127.01C123.547 1135.87 130.84 1144 141 1144V1136ZM718.616 1126.02L710.678 1125.03C710.562 1125.96 710.128 1126.77 709.573 1127.3C709.046 1127.81 708.506 1128 708 1128V1136V1144C718.16 1144 725.453 1135.87 726.555 1127.01L718.616 1126.02ZM798 1046H790C790 1046.51 789.811 1047.05 789.304 1047.57C788.769 1048.13 787.961 1048.56 787.032 1048.68L788.02 1056.62L789.008 1064.56C797.867 1063.45 806 1056.16 806 1046H798ZM788.02 127.384L787.032 135.322C787.961 135.438 788.769 135.872 789.304 136.427C789.811 136.954 790 137.494 790 138H798H806C806 127.84 797.867 120.547 789.008 119.445L788.02 127.384ZM718.616 57.9801L726.555 56.9922C725.453 48.1329 718.16 40 708 40V48V56C708.506 56 709.046 56.1887 709.573 56.6958C710.128 57.2306 710.562 58.0389 710.678 58.9681L718.616 57.9801Z" fill="black" mask="url(#path-6-inside-1_1_706)"/>
<path d="M690 102C695.523 102 699.911 106.512 700.837 111.957C705.019 136.563 724.437 155.981 749.043 160.163C754.488 161.089 759 165.477 759 171V1014C759 1019.52 754.488 1023.91 749.043 1024.84C724.711 1028.97 705.454 1048 700.984 1072.22C699.993 1077.59 695.633 1082 690.175 1082H158.825C153.367 1082 149.007 1077.59 148.016 1072.22C143.546 1048 124.288 1028.97 99.9568 1024.84C94.5121 1023.91 90 1019.52 90 1014V171C90 165.477 94.512 161.089 99.9568 160.163C124.563 155.981 143.981 136.563 148.163 111.957C149.089 106.512 153.477 102 159 102H690Z" fill="#4BADDC"/>
<mask id="path-9-outside-2_1_706" maskUnits="userSpaceOnUse" x="401" y="1006" width="47" height="32" fill="black">
<rect fill="white" x="401" y="1006" width="47" height="32"/>
<path d="M401.84 1030.92V1027.48L415.28 1008.2H420.8V1026.96H424.52V1030.92H420.8V1037H416.32V1030.92H401.84ZM416.52 1012.84L407.08 1026.96H416.52V1012.84ZM430.818 1030.8C433.378 1028.59 435.392 1026.77 436.858 1025.36C438.352 1023.92 439.592 1022.43 440.578 1020.88C441.565 1019.33 442.058 1017.79 442.058 1016.24C442.058 1014.64 441.672 1013.39 440.898 1012.48C440.152 1011.57 438.965 1011.12 437.338 1011.12C435.765 1011.12 434.538 1011.63 433.658 1012.64C432.805 1013.63 432.352 1014.96 432.298 1016.64H427.898C427.978 1013.6 428.885 1011.28 430.618 1009.68C432.378 1008.05 434.605 1007.24 437.298 1007.24C440.205 1007.24 442.472 1008.04 444.098 1009.64C445.752 1011.24 446.578 1013.37 446.578 1016.04C446.578 1017.96 446.085 1019.81 445.098 1021.6C444.138 1023.36 442.978 1024.95 441.618 1026.36C440.285 1027.75 438.578 1029.36 436.498 1031.2L434.698 1032.8H447.378V1036.6H427.938V1033.28L430.818 1030.8Z"/>
</mask>
<path d="M401.84 1030.92V1027.48L415.28 1008.2H420.8V1026.96H424.52V1030.92H420.8V1037H416.32V1030.92H401.84ZM416.52 1012.84L407.08 1026.96H416.52V1012.84ZM430.818 1030.8C433.378 1028.59 435.392 1026.77 436.858 1025.36C438.352 1023.92 439.592 1022.43 440.578 1020.88C441.565 1019.33 442.058 1017.79 442.058 1016.24C442.058 1014.64 441.672 1013.39 440.898 1012.48C440.152 1011.57 438.965 1011.12 437.338 1011.12C435.765 1011.12 434.538 1011.63 433.658 1012.64C432.805 1013.63 432.352 1014.96 432.298 1016.64H427.898C427.978 1013.6 428.885 1011.28 430.618 1009.68C432.378 1008.05 434.605 1007.24 437.298 1007.24C440.205 1007.24 442.472 1008.04 444.098 1009.64C445.752 1011.24 446.578 1013.37 446.578 1016.04C446.578 1017.96 446.085 1019.81 445.098 1021.6C444.138 1023.36 442.978 1024.95 441.618 1026.36C440.285 1027.75 438.578 1029.36 436.498 1031.2L434.698 1032.8H447.378V1036.6H427.938V1033.28L430.818 1030.8Z" fill="black"/>
<path d="M401.84 1030.92H401.54V1031.22H401.84V1030.92ZM401.84 1027.48L401.594 1027.31L401.54 1027.39V1027.48H401.84ZM415.28 1008.2V1007.9H415.123L415.034 1008.03L415.28 1008.2ZM420.8 1008.2H421.1V1007.9H420.8V1008.2ZM420.8 1026.96H420.5V1027.26H420.8V1026.96ZM424.52 1026.96H424.82V1026.66H424.52V1026.96ZM424.52 1030.92V1031.22H424.82V1030.92H424.52ZM420.8 1030.92V1030.62H420.5V1030.92H420.8ZM420.8 1037V1037.3H421.1V1037H420.8ZM416.32 1037H416.02V1037.3H416.32V1037ZM416.32 1030.92H416.62V1030.62H416.32V1030.92ZM416.52 1012.84H416.82V1011.85L416.271 1012.67L416.52 1012.84ZM407.08 1026.96L406.831 1026.79L406.519 1027.26H407.08V1026.96ZM416.52 1026.96V1027.26H416.82V1026.96H416.52ZM401.84 1030.92H402.14V1027.48H401.84H401.54V1030.92H401.84ZM401.84 1027.48L402.086 1027.65L415.526 1008.37L415.28 1008.2L415.034 1008.03L401.594 1027.31L401.84 1027.48ZM415.28 1008.2V1008.5H420.8V1008.2V1007.9H415.28V1008.2ZM420.8 1008.2H420.5V1026.96H420.8H421.1V1008.2H420.8ZM420.8 1026.96V1027.26H424.52V1026.96V1026.66H420.8V1026.96ZM424.52 1026.96H424.22V1030.92H424.52H424.82V1026.96H424.52ZM424.52 1030.92V1030.62H420.8V1030.92V1031.22H424.52V1030.92ZM420.8 1030.92H420.5V1037H420.8H421.1V1030.92H420.8ZM420.8 1037V1036.7H416.32V1037V1037.3H420.8V1037ZM416.32 1037H416.62V1030.92H416.32H416.02V1037H416.32ZM416.32 1030.92V1030.62H401.84V1030.92V1031.22H416.32V1030.92ZM416.52 1012.84L416.271 1012.67L406.831 1026.79L407.08 1026.96L407.329 1027.13L416.769 1013.01L416.52 1012.84ZM407.08 1026.96V1027.26H416.52V1026.96V1026.66H407.08V1026.96ZM416.52 1026.96H416.82V1012.84H416.52H416.22V1026.96H416.52ZM430.818 1030.8L431.014 1031.03L431.015 1031.03L430.818 1030.8ZM436.858 1025.36L437.067 1025.58L437.067 1025.58L436.858 1025.36ZM440.898 1012.48L440.667 1012.67L440.67 1012.67L440.898 1012.48ZM433.658 1012.64L433.432 1012.44L433.432 1012.44L433.658 1012.64ZM432.298 1016.64V1016.94H432.589L432.598 1016.65L432.298 1016.64ZM427.898 1016.64L427.599 1016.63L427.59 1016.94H427.898V1016.64ZM430.618 1009.68L430.822 1009.9L430.822 1009.9L430.618 1009.68ZM444.098 1009.64L443.888 1009.85L443.89 1009.86L444.098 1009.64ZM445.098 1021.6L444.836 1021.45L444.835 1021.46L445.098 1021.6ZM441.618 1026.36L441.402 1026.15L441.402 1026.15L441.618 1026.36ZM436.498 1031.2L436.3 1030.98L436.299 1030.98L436.498 1031.2ZM434.698 1032.8L434.499 1032.58L433.909 1033.1H434.698V1032.8ZM447.378 1032.8H447.678V1032.5H447.378V1032.8ZM447.378 1036.6V1036.9H447.678V1036.6H447.378ZM427.938 1036.6H427.638V1036.9H427.938V1036.6ZM427.938 1033.28L427.743 1033.05L427.638 1033.14V1033.28H427.938ZM430.818 1030.8L431.015 1031.03C433.576 1028.81 435.594 1026.99 437.067 1025.58L436.858 1025.36L436.65 1025.14C435.189 1026.55 433.18 1028.36 430.622 1030.57L430.818 1030.8ZM436.858 1025.36L437.067 1025.58C438.575 1024.12 439.83 1022.61 440.831 1021.04L440.578 1020.88L440.326 1020.72C439.353 1022.24 438.129 1023.72 436.65 1025.14L436.858 1025.36ZM440.578 1020.88L440.831 1021.04C441.843 1019.46 442.358 1017.85 442.358 1016.24H442.058H441.758C441.758 1017.72 441.287 1019.21 440.326 1020.72L440.578 1020.88ZM442.058 1016.24H442.358C442.358 1014.59 441.96 1013.26 441.127 1012.29L440.898 1012.48L440.67 1012.67C441.383 1013.51 441.758 1014.69 441.758 1016.24H442.058ZM440.898 1012.48L441.13 1012.29C440.307 1011.29 439.018 1010.82 437.338 1010.82V1011.12V1011.42C438.912 1011.42 439.997 1011.86 440.667 1012.67L440.898 1012.48ZM437.338 1011.12V1010.82C435.695 1010.82 434.379 1011.35 433.432 1012.44L433.658 1012.64L433.885 1012.84C434.698 1011.9 435.835 1011.42 437.338 1011.42V1011.12ZM433.658 1012.64L433.432 1012.44C432.522 1013.5 432.053 1014.9 431.999 1016.63L432.298 1016.64L432.598 1016.65C432.65 1015.02 433.089 1013.76 433.885 1012.84L433.658 1012.64ZM432.298 1016.64V1016.34H427.898V1016.64V1016.94H432.298V1016.64ZM427.898 1016.64L428.198 1016.65C428.277 1013.66 429.164 1011.43 430.822 1009.9L430.618 1009.68L430.415 1009.46C428.606 1011.13 427.68 1013.54 427.599 1016.63L427.898 1016.64ZM430.618 1009.68L430.822 1009.9C432.52 1008.33 434.671 1007.54 437.298 1007.54V1007.24V1006.94C434.54 1006.94 432.237 1007.78 430.415 1009.46L430.618 1009.68ZM437.298 1007.24V1007.54C440.149 1007.54 442.332 1008.32 443.888 1009.85L444.098 1009.64L444.309 1009.43C442.612 1007.76 440.261 1006.94 437.298 1006.94V1007.24ZM444.098 1009.64L443.89 1009.86C445.475 1011.39 446.278 1013.44 446.278 1016.04H446.578H446.878C446.878 1013.31 446.028 1011.09 444.307 1009.42L444.098 1009.64ZM446.578 1016.04H446.278C446.278 1017.91 445.8 1019.71 444.836 1021.45L445.098 1021.6L445.361 1021.75C446.371 1019.92 446.878 1018.01 446.878 1016.04H446.578ZM445.098 1021.6L444.835 1021.46C443.888 1023.19 442.743 1024.76 441.402 1026.15L441.618 1026.36L441.835 1026.57C443.214 1025.14 444.389 1023.53 445.362 1021.74L445.098 1021.6ZM441.618 1026.36L441.402 1026.15C440.076 1027.53 438.376 1029.14 436.3 1030.98L436.498 1031.2L436.697 1031.42C438.781 1029.58 440.494 1027.96 441.835 1026.57L441.618 1026.36ZM436.498 1031.2L436.299 1030.98L434.499 1032.58L434.698 1032.8L434.898 1033.02L436.698 1031.42L436.498 1031.2ZM434.698 1032.8V1033.1H447.378V1032.8V1032.5H434.698V1032.8ZM447.378 1032.8H447.078V1036.6H447.378H447.678V1032.8H447.378ZM447.378 1036.6V1036.3H427.938V1036.6V1036.9H447.378V1036.6ZM427.938 1036.6H428.238V1033.28H427.938H427.638V1036.6H427.938ZM427.938 1033.28L428.134 1033.51L431.014 1031.03L430.818 1030.8L430.623 1030.57L427.743 1033.05L427.938 1033.28Z" fill="black" mask="url(#path-9-outside-2_1_706)"/>
<path d="M328.91 197.975L303.395 272H277.04L251.42 197.975H273.47L290.27 251.42L306.965 197.975H328.91ZM391.602 241.865C391.602 243.475 391.497 245.085 391.287 246.695H352.332C352.542 249.915 353.417 252.33 354.957 253.94C356.567 255.48 358.597 256.25 361.047 256.25C364.477 256.25 366.927 254.71 368.397 251.63H390.342C389.432 255.69 387.647 259.33 384.987 262.55C382.397 265.7 379.107 268.185 375.117 270.005C371.127 271.825 366.717 272.735 361.887 272.735C356.077 272.735 350.897 271.51 346.347 269.06C341.867 266.61 338.332 263.11 335.742 258.56C333.222 254.01 331.962 248.655 331.962 242.495C331.962 236.335 333.222 231.015 335.742 226.535C338.262 221.985 341.762 218.485 346.242 216.035C350.792 213.585 356.007 212.36 361.887 212.36C367.697 212.36 372.842 213.55 377.322 215.93C381.802 218.31 385.302 221.74 387.822 226.22C390.342 230.63 391.602 235.845 391.602 241.865ZM370.602 236.72C370.602 234.2 369.762 232.24 368.082 230.84C366.402 229.37 364.302 228.635 361.782 228.635C359.262 228.635 357.197 229.335 355.587 230.735C353.977 232.065 352.927 234.06 352.437 236.72H370.602ZM438.56 212.57C445.35 212.57 450.74 214.845 454.73 219.395C458.72 223.875 460.715 229.965 460.715 237.665V272H440.135V240.395C440.135 237.035 439.26 234.41 437.51 232.52C435.76 230.56 433.415 229.58 430.475 229.58C427.395 229.58 424.98 230.56 423.23 232.52C421.48 234.41 420.605 237.035 420.605 240.395V272H400.025V213.095H420.605V221.495C422.425 218.835 424.875 216.7 427.955 215.09C431.035 213.41 434.57 212.57 438.56 212.57ZM532.277 213.095V272H511.592V263.6C509.842 266.26 507.427 268.43 504.347 270.11C501.267 271.72 497.732 272.525 493.742 272.525C486.882 272.525 481.457 270.285 477.467 265.805C473.547 261.255 471.587 255.095 471.587 247.325V213.095H492.062V244.7C492.062 248.06 492.937 250.72 494.687 252.68C496.507 254.57 498.887 255.515 501.827 255.515C504.837 255.515 507.217 254.57 508.967 252.68C510.717 250.72 511.592 248.06 511.592 244.7V213.095H532.277ZM569.084 272.735C563.764 272.735 559.004 271.86 554.804 270.11C550.674 268.29 547.384 265.84 544.934 262.76C542.554 259.61 541.224 256.075 540.944 252.155H560.894C561.174 254.045 562.049 255.515 563.519 256.565C564.989 257.615 566.809 258.14 568.979 258.14C570.659 258.14 571.989 257.79 572.969 257.09C573.949 256.39 574.439 255.48 574.439 254.36C574.439 252.89 573.634 251.805 572.024 251.105C570.414 250.405 567.754 249.635 564.044 248.795C559.844 247.955 556.344 247.01 553.544 245.96C550.744 244.91 548.294 243.195 546.194 240.815C544.164 238.435 543.149 235.215 543.149 231.155C543.149 227.655 544.094 224.505 545.984 221.705C547.874 218.835 550.639 216.56 554.279 214.88C557.989 213.2 562.434 212.36 567.614 212.36C575.314 212.36 581.369 214.25 585.779 218.03C590.189 221.81 592.744 226.78 593.444 232.94H574.859C574.509 231.05 573.669 229.615 572.339 228.635C571.079 227.585 569.364 227.06 567.194 227.06C565.514 227.06 564.219 227.375 563.309 228.005C562.469 228.635 562.049 229.51 562.049 230.63C562.049 232.03 562.854 233.115 564.464 233.885C566.074 234.585 568.664 235.32 572.234 236.09C576.504 237 580.039 238.015 582.839 239.135C585.709 240.255 588.194 242.075 590.294 244.595C592.464 247.045 593.549 250.405 593.549 254.675C593.549 258.105 592.534 261.185 590.504 263.915C588.544 266.645 585.709 268.815 581.999 270.425C578.359 271.965 574.054 272.735 569.084 272.735Z" fill="black"/>
<path d="M417.847 340.064C584.613 336.665 722.555 469.111 725.936 635.878C729.318 802.644 596.859 940.573 430.091 943.937C263.347 947.3 125.444 814.865 122.063 648.122C118.682 481.38 251.105 343.462 417.847 340.064Z" fill="black"/>
<path d="M652.76 489.842C654.907 491.2 657.155 494.051 657.956 496.492C685.105 531.628 702.006 605.1 699.86 647.761C692.23 655.929 681.83 661.626 671.802 666.37C609.177 682.393 532.738 671.874 482.014 710.803C452.749 733.263 431.038 766.764 398.441 784.773C341.522 822.755 263.008 787.297 221.934 828.49C189.767 794.364 168.215 754.179 156.225 708.912C179.055 715.291 198.713 709.876 216.025 692.966C236.99 672.488 256.106 657.533 288.151 669.884C304.315 675.099 318.542 684.137 335.579 687.027C406.838 699.112 411.434 619.197 469.657 595.95C529.654 571.995 599.838 614.438 640.219 541.185L641.581 539.058C636.905 538.744 632.606 538.979 632.295 535.203C632.843 533.889 634.112 532.497 634.948 531.316C637.805 519.138 643.962 497.619 652.76 489.842Z" fill="#FD9E30"/>
<path d="M156.225 708.911C179.055 715.29 198.713 709.875 216.025 692.965C236.99 672.487 256.106 657.532 288.151 669.883C287.262 674.443 302.61 696.356 305.965 701.329C329.392 736.05 361.514 765.053 398.441 784.772C341.522 822.754 263.008 787.296 221.934 828.489C189.767 794.363 168.215 754.178 156.225 708.911Z" fill="#F05D22"/>
<path d="M238.74 725.664C275.795 722.378 304.926 773.706 266.465 786.263C228.234 794.31 201.808 733.904 238.74 725.664Z" fill="black"/>
<path d="M242.334 737.116C266.868 738.632 284.876 769.032 263.231 775.709C240.602 777.858 219.764 739.732 242.334 737.116Z" fill="#11181E"/>
<path d="M652.76 489.842C654.907 491.2 657.155 494.051 657.956 496.492C685.105 531.628 702.006 605.1 699.86 647.761C692.23 655.929 681.83 661.626 671.802 666.37C670.431 662.025 671.018 655.428 670.855 650.776C670.239 633.177 667.524 619.332 664.58 602.045C678.164 584.862 668.485 569.793 661.28 587.324C659.048 586.095 645.376 549.271 640.219 541.185L641.581 539.058C636.905 538.744 632.606 538.979 632.295 535.203C632.843 533.889 634.112 532.497 634.948 531.316C637.805 519.138 643.962 497.619 652.76 489.842Z" fill="#FFDE8F"/>
<path d="M652.76 489.842C654.907 491.2 657.155 494.051 657.956 496.492C649.999 504.635 646.312 526.602 641.581 539.058C636.905 538.744 632.606 538.979 632.295 535.203C632.843 533.889 634.112 532.497 634.948 531.316C637.805 519.138 643.962 497.619 652.76 489.842Z" fill="black"/>
<path d="M661.28 587.324C668.485 569.793 678.164 584.862 664.58 602.045C661.584 605.076 651.85 614.094 648.641 606.451C647.115 602.816 658.138 594.555 661.28 587.324Z" fill="black"/>
<path d="M408.591 703.607C412.5 703.203 417.543 704.942 414.982 710.001C412.488 714.934 401.2 720.45 396.11 722.325C391.467 723.174 386.737 720.538 389.699 715.127C392.816 709.433 402.749 705.528 408.591 703.607Z" fill="black"/>
<path d="M511.209 626.711C514.946 626.67 519.637 629.859 516.988 634.017C514.123 638.512 504.651 640.953 499.719 641.949C495.338 642.009 489.924 638.739 493.386 633.739C496.504 629.232 506.179 627.647 511.209 626.711Z" fill="black"/>
<path d="M349.864 377.416C382.436 363.405 444.936 364.936 477.988 372.208C484.032 373.537 490.442 374.457 495.96 377.416C500.82 377.246 506.802 380.145 511.209 382.051C521.428 385.012 532.029 389.374 541.468 394.24C545.769 396.198 550.376 398.017 554.32 400.638C557.4 402.107 561.352 403.557 563.728 406.025C582.023 414.91 617.096 443.492 629.692 459.593C631.448 460.686 634.197 463.126 634.948 465.097C624.367 475.133 613.52 480.47 601.015 487.571C597.966 484.276 598.101 486.912 595.632 481.838H593.741C558.108 504.656 549.862 542.799 506.753 549.195C419.052 562.207 376.364 466.233 290.936 520.676C275.088 530.776 260.991 543.749 247.508 556.753L229.559 573.116C203.877 596.355 184.917 612.67 149.752 610.909C157.341 527.492 212.526 445.62 284.816 404.793C300.721 394.768 331.544 380.233 349.864 377.416Z" fill="#FD9E30"/>
<path d="M149.752 610.91C157.341 527.492 212.526 445.62 284.816 404.793C282.857 415.848 269.273 430.263 266.465 448.644C296.215 468.548 274.063 502.516 244.137 500.392C245.038 513.286 242.341 546.754 247.508 556.754L229.559 573.116C203.877 596.355 184.917 612.671 149.752 610.91Z" fill="#F05D22"/>
<path d="M244.137 500.392C202.784 493.814 233.668 438.575 266.465 448.644C296.215 468.548 274.063 502.516 244.137 500.392Z" fill="black"/>
<path d="M258.179 456.7C275.524 465.089 271.105 479.267 256.951 487.571C253.849 488.735 250.797 489.465 247.508 489.841C248.218 478.827 254.127 466.932 258.179 456.7Z" fill="#473B47"/>
<path d="M198.933 527.267C210.052 529.879 193.485 548.268 186.2 550.051C174.922 547.773 191.891 529.224 198.933 527.267Z" fill="black"/>
<path d="M349.864 377.416C382.436 363.405 444.936 364.936 477.988 372.208C484.032 373.537 490.442 374.457 495.961 377.416C500.82 377.246 506.802 380.145 511.209 382.051C521.429 385.012 532.03 389.374 541.468 394.24C545.769 396.198 550.376 398.017 554.32 400.638C557.4 402.107 561.352 403.557 563.729 406.025C560.928 427.277 563.677 427.288 542.715 442.345C539.692 440.217 535.41 438.682 531.99 437.264C524.583 432.649 516.096 429.815 508.263 426C504.331 424.346 499.974 423.614 495.961 422.1C490.172 414.972 432.034 397.314 419.751 393.988C413.072 392.18 401.724 390.927 396.11 387.855C394.784 387.81 393.476 387.751 392.153 387.855C382.135 381.405 348.362 385.742 349.864 377.416Z" fill="#FC9277"/>
<path d="M511.209 382.051C521.428 385.012 532.029 389.374 541.468 394.24C545.768 396.198 550.375 398.017 554.319 400.638C557.4 402.107 561.352 403.557 563.728 406.024C560.928 427.277 563.676 427.288 542.715 442.345C539.691 440.216 535.409 438.682 531.99 437.263C524.582 432.649 516.095 429.815 508.262 426C504.33 424.346 499.973 423.614 495.96 422.099C505.532 414.557 511.876 411.176 509.051 397.175H518.791C517.429 391.371 512.239 386.557 511.209 382.051Z" fill="#FDC49F"/>
<path d="M554.32 400.639C557.4 402.108 561.352 403.558 563.729 406.025C560.928 427.277 563.677 427.288 542.716 442.346C539.692 440.217 535.41 438.683 531.99 437.264C548.719 428.735 556.159 420.091 554.32 400.639Z" fill="#847C7F"/>
<path d="M509.051 397.176H518.791C520.31 409.121 517.935 418.658 508.262 426C504.33 424.346 499.973 423.614 495.96 422.1C505.532 414.557 511.876 411.177 509.051 397.176Z" fill="#847C7F"/>
<path d="M511.209 382.051C521.428 385.012 532.029 389.374 541.468 394.24C534.996 396.35 521.181 396.015 518.791 397.175C517.429 391.371 512.239 386.557 511.209 382.051Z" fill="#FC9277"/>
<path d="M396.11 387.856C430.52 376.314 473.667 394.282 509.051 397.176C511.877 411.177 505.532 414.557 495.96 422.1C490.172 414.972 432.034 397.315 419.751 393.989C413.072 392.18 401.723 390.927 396.11 387.856Z" fill="#FFDE8F"/>
<path d="M495.96 377.417C500.82 377.247 506.801 380.145 511.209 382.051C512.239 386.557 517.429 391.371 518.791 397.176H509.051C506.478 389.191 502.131 383.073 495.96 377.417Z" fill="#11181E"/>
<path d="M396.11 387.855C401.724 390.926 413.072 392.179 419.751 393.988C432.034 397.314 490.172 414.971 495.961 422.099C492.728 423.522 488.903 425.6 485.39 425.999C470.934 423.687 428.342 429.29 414.255 431.783C396.551 434.915 379.108 439.536 361.444 442.973C350.942 445.015 326.989 452.319 323.372 436.751C317.755 412.588 371.116 392.754 392.153 387.855C393.476 387.751 394.784 387.81 396.11 387.855Z" fill="#FECF5E"/>
<path d="M542.715 442.345C563.676 427.288 560.928 427.277 563.728 406.025C582.023 414.911 617.096 443.492 629.692 459.594C631.448 460.687 634.197 463.126 634.947 465.097C624.367 475.133 613.519 480.47 601.015 487.572C597.966 484.276 598.101 486.912 595.632 481.838H593.74C574.893 464.793 562.355 456.44 542.715 442.345Z" fill="#FFDE8F"/>
<path d="M629.692 459.593C631.448 460.687 634.197 463.126 634.948 465.097C624.367 475.133 613.519 480.47 601.015 487.571C597.966 484.276 598.101 486.912 595.632 481.838C597.13 479.474 620.17 469.297 629.692 459.593Z" fill="#11181E"/>
<path d="M508.262 426C516.095 429.815 524.582 432.649 531.99 437.264C507.32 450.417 496.186 481.43 471.105 478.51C461.968 477.447 447.471 472.753 449.287 461.073C451.69 445.612 494.05 436.928 508.262 426Z" fill="#F05D22"/>
<path d="M495.96 422.1C499.974 423.614 504.331 424.346 508.262 426C494.05 436.927 451.69 445.612 449.287 461.073C447.471 472.753 461.968 477.446 471.105 478.51C496.187 481.43 507.32 450.417 531.99 437.264C535.41 438.682 539.691 440.217 542.715 442.345C519.6 455.074 509.821 477.124 494.68 485.269C473.283 496.778 430.016 484.251 439.352 455.792C445.4 437.359 470.197 433.579 485.389 426C488.903 425.601 492.728 423.523 495.96 422.1Z" fill="black"/>
<path d="M634.948 465.097C640.874 473.425 647.694 480.886 652.76 489.841C643.962 497.617 637.805 519.137 634.948 531.315C634.112 532.496 632.843 533.887 632.295 535.202C618.186 560.995 588.285 578.578 558.733 575.765C547.138 577.702 535.05 576.115 523.348 576.423C469.671 577.835 442.121 589.105 409.544 632.898C369.566 686.636 358.906 684.834 300.613 662.513C294.102 660.02 287.244 658.578 280.858 655.755C279.705 652.626 277.686 649.365 276.241 646.321C264.547 621.695 256.522 596.028 249.839 569.619C277.614 541.997 312.873 509.14 355.097 515.764C387.282 520.813 413.535 544.017 444.198 553.943C470.137 562.338 482.637 560.144 507.218 561.405C510.447 560.086 514.055 559.531 517.437 558.683C554.92 549.273 570.919 509.323 601.015 487.571C613.52 480.47 624.367 475.132 634.948 465.097Z" fill="url(#paint0_linear_1_706)"/>
<path d="M634.948 465.097C640.874 473.425 647.695 480.886 652.76 489.841C643.963 497.617 637.805 519.137 634.948 531.315C634.112 532.496 632.843 533.887 632.295 535.202C618.187 560.995 588.286 578.578 558.734 575.765C545.431 573.949 509.777 575.936 496.939 577.304C491.754 577.856 486.759 579.241 481.672 579.783L481.144 579.216C481.304 577.787 482.521 577.303 482.658 575.933C478.227 573.577 485.931 569.462 474.991 563.831L474.96 562.957C473.355 561.613 473.223 563.339 470.345 560.95C475.552 559.519 501.001 565.126 507.218 561.405C510.448 560.086 514.056 559.531 517.437 558.683C554.92 549.273 570.92 509.323 601.015 487.571C613.52 480.47 624.368 475.132 634.948 465.097Z" fill="#854348"/>
<path d="M634.948 465.097C640.874 473.425 647.695 480.886 652.76 489.841C643.962 497.617 637.805 519.137 634.948 531.315C629.889 525.148 626.028 517.96 621.072 511.643C614.833 503.688 606.684 495.553 601.015 487.571C613.52 480.47 624.367 475.132 634.948 465.097Z" fill="#F6696F"/>
<path d="M595.211 517.976C603.886 517.318 611.437 523.849 612.038 532.528C612.64 541.206 606.06 548.716 597.379 549.261C588.776 549.8 581.349 543.294 580.754 534.694C580.159 526.096 586.616 518.627 595.211 517.976Z" fill="#F6696F"/>
<path d="M300.929 568.191C333.027 565.363 331.054 593.063 342.173 602.913C348.048 608.118 357.705 606.296 364.491 610.699C383.991 623.351 372.784 648.497 349.864 652.851C291.811 662.04 247.418 578.332 300.929 568.191Z" fill="#F6696F"/>
<path d="M382.43 565.963C390.408 564.855 397.776 570.417 398.899 578.392C400.022 586.368 394.476 593.748 386.503 594.886C378.506 596.028 371.1 590.463 369.974 582.465C368.848 574.467 374.428 567.072 382.43 565.963Z" fill="#F6696F"/>
<path d="M537.91 827.213C571.584 800.183 586.459 755.397 627.545 737.185C647.55 728.317 669.1 730.208 687.956 722.326C680.677 748.853 660.914 789.947 641.581 810.954C634.197 820.791 625.594 829.688 616.766 838.228C522.325 929.597 371.722 944.601 265.552 866.748C263.573 865.297 265.818 864.322 267.39 863.981C279.623 861.334 299.875 872.708 313.137 874.638C331.588 877.324 350.9 867.816 366.608 859.353C392.674 845.308 400.773 843.347 430.267 843.36C465.554 843.376 508.272 849.008 537.91 827.213Z" fill="#F05D22"/>
<path d="M537.91 827.213C571.584 800.183 586.459 755.397 627.544 737.185C647.549 728.317 669.1 730.208 687.955 722.326C680.676 748.853 660.913 789.947 641.581 810.954C633.534 812.397 625.934 815.734 618.14 818.102C591.46 826.21 581.214 828.625 553.014 828.499C548.948 828.48 541.248 829.721 537.91 827.213Z" fill="#FD9E30"/>
<path d="M507.218 867.459C513.697 866.712 517.019 870.06 511.903 875.063C500.473 886.239 476.949 888.465 461.198 888.173C434.076 886.091 482.227 875.234 483.422 874.883C491.377 872.538 498.981 868.747 507.218 867.459Z" fill="black"/>
<path d="M669.476 679.379C683.408 674.402 687.101 671.516 698.759 664.17C697.377 676.53 695.481 696.12 691.281 707.684C681.929 713.722 672.426 717.462 661.28 718.57C614.369 721.827 589.715 744.443 563.056 782.119C555.338 793.026 547.368 805.556 536.508 813.601C514.668 813.772 484.791 811.575 463.446 805.165C450.112 802.934 424.905 794.451 413.036 789.426C419.091 785.142 424.498 780.034 430.519 775.709C432.779 772.65 437.169 769.623 440.029 766.999C457.334 751.123 472.31 731.776 491.357 718.1C539.759 683.349 611.31 693.469 669.476 679.379Z" fill="url(#paint1_linear_1_706)"/>
<path d="M669.475 679.379C683.408 674.402 687.101 671.516 698.759 664.17C697.377 676.53 695.481 696.12 691.281 707.684C681.928 713.722 672.425 717.462 661.279 718.57C662.726 706.245 668.035 694.096 669.475 679.379Z" fill="#C16572"/>
<path d="M430.519 775.709C426.325 783.971 444.958 803.916 448.747 798.665L448.984 798.95C449.572 799.639 449.934 800.137 450.847 800.385L451.589 799.176L452.041 799.379L451.785 800.387L452.55 800.904C453.351 800.742 453.753 800.406 454.384 799.9L454.937 800.099L454.879 801.373C456.861 802.273 462.285 803.678 463.446 805.165C450.112 802.935 424.905 794.451 413.036 789.426C419.091 785.143 424.498 780.035 430.519 775.709Z" fill="#473B47"/>
<path d="M509.051 746.922C535.718 746.292 515.253 787.1 485.39 790.768C454.064 791.518 478.606 750.355 509.051 746.922Z" fill="#F6696F"/>
<path d="M584.678 708.911C595.7 706.701 595.623 717.019 588.9 722.325C580.156 721.835 576.229 712.91 584.678 708.911Z" fill="#FC9277"/>
<path d="M230.594 836.626C256.488 815.797 281.684 818.388 313.286 817.861C346.014 817.315 373.56 811.78 402.492 795.879C405.873 794.019 408.958 791.539 412.359 789.773L413.036 789.426C424.905 794.451 450.112 802.935 463.446 805.165C484.791 811.575 514.668 813.773 536.508 813.602C523.893 830.797 487.945 831.714 469.149 831.601L431.33 831.552C418.672 831.642 407.658 831.257 395.125 834.012C370.103 839.511 348.802 860.099 323.698 862.647C300.492 865.001 275.707 841.961 252.705 857.997C245.411 850.775 237.29 844.467 230.594 836.626Z" fill="#11181E"/>
<path d="M148.316 622.639C187.886 622.942 204.886 609.733 234.884 583.353C239.726 579.093 244.129 573.969 249.239 570.07L249.839 569.62C256.522 596.029 264.547 621.696 276.242 646.322C277.687 649.366 279.705 652.627 280.858 655.756C270.981 656.265 261.321 654.284 251.513 656.413C215.78 664.169 191.013 721.679 152.89 691.743C147.692 674.608 148.301 640.529 148.316 622.639Z" fill="#11181E"/>
<defs>
<linearGradient id="paint0_linear_1_706" x1="297.104" y1="667.288" x2="410.216" y2="514.81" gradientUnits="userSpaceOnUse">
<stop stop-color="#1F1D2B"/>
<stop offset="1" stop-color="#753B43"/>
</linearGradient>
<linearGradient id="paint1_linear_1_706" x1="482.744" y1="828.648" x2="622.532" y2="645.52" gradientUnits="userSpaceOnUse">
<stop stop-color="#2A2431"/>
<stop offset="1" stop-color="#91474D"/>
</linearGradient>
</defs>
</svg>
