<svg width="849" height="1183" viewBox="0 0 849 1183" fill="none" xmlns="http://www.w3.org/2000/svg">
<rect x="5" y="5" width="839" height="1173" rx="45" fill="white"/>
<rect x="5" y="5" width="839" height="1173" rx="45" stroke="black" stroke-width="10"/>
<circle cx="786.5" cy="1124.5" r="11.5" fill="black"/>
<circle cx="786.5" cy="59.5" r="11.5" fill="black"/>
<path d="M77 1124.5C77 1130.85 71.8513 1136 65.5 1136C59.1487 1136 54 1130.85 54 1124.5C54 1118.15 59.1487 1113 65.5 1113C71.8513 1113 77 1118.15 77 1124.5Z" fill="black"/>
<path d="M77 59.5C77 65.8513 71.8513 71 65.5 71C59.1487 71 54 65.8513 54 59.5C54 53.1487 59.1487 48 65.5 48C71.8513 48 77 53.1487 77 59.5Z" fill="black"/>
<mask id="path-6-inside-1_1_3358" fill="white">
<path d="M708 48C713.523 48 717.934 52.4996 718.616 57.9801C723.122 94.1833 751.817 122.878 788.02 127.384C793.5 128.066 798 132.477 798 138V1046C798 1051.52 793.5 1055.93 788.02 1056.62C751.817 1061.12 723.122 1089.82 718.616 1126.02C717.934 1131.5 713.523 1136 708 1136H141C135.477 1136 131.066 1131.5 130.384 1126.02C125.878 1089.82 97.1833 1061.12 60.9801 1056.62C55.4996 1055.93 51 1051.52 51 1046V138C51 132.477 55.4996 128.066 60.9801 127.384C97.1833 122.878 125.878 94.1833 130.384 57.9801C131.066 52.4996 135.477 48 141 48H708Z"/>
</mask>
<path d="M708 48C713.523 48 717.934 52.4996 718.616 57.9801C723.122 94.1833 751.817 122.878 788.02 127.384C793.5 128.066 798 132.477 798 138V1046C798 1051.52 793.5 1055.93 788.02 1056.62C751.817 1061.12 723.122 1089.82 718.616 1126.02C717.934 1131.5 713.523 1136 708 1136H141C135.477 1136 131.066 1131.5 130.384 1126.02C125.878 1089.82 97.1833 1061.12 60.9801 1056.62C55.4996 1055.93 51 1051.52 51 1046V138C51 132.477 55.4996 128.066 60.9801 127.384C97.1833 122.878 125.878 94.1833 130.384 57.9801C131.066 52.4996 135.477 48 141 48H708Z" fill="#006AB6"/>
<path d="M130.384 1126.02L138.322 1125.03L130.384 1126.02ZM718.616 1126.02L710.678 1125.03L718.616 1126.02ZM788.02 1056.62L789.008 1064.56L788.02 1056.62ZM718.616 57.9801L726.555 56.9922L718.616 57.9801ZM718.616 57.9801L710.678 58.9681C715.635 98.8063 747.194 130.365 787.032 135.322L788.02 127.384L789.008 119.445C756.44 115.392 730.608 89.5603 726.555 56.9922L718.616 57.9801ZM798 138H790V1046H798H806V138H798ZM788.02 1056.62L787.032 1048.68C747.194 1053.64 715.635 1085.19 710.678 1125.03L718.616 1126.02L726.555 1127.01C730.608 1094.44 756.44 1068.61 789.008 1064.56L788.02 1056.62ZM708 1136V1128H141V1136V1144H708V1136ZM130.384 1126.02L138.322 1125.03C133.365 1085.19 101.806 1053.64 61.9681 1048.68L60.9801 1056.62L59.9922 1064.56C92.5603 1068.61 118.392 1094.44 122.445 1127.01L130.384 1126.02ZM51 1046H59V138H51H43V1046H51ZM60.9801 127.384L61.9681 135.322C101.806 130.365 133.365 98.8063 138.322 58.9681L130.384 57.9801L122.445 56.9922C118.392 89.5603 92.5603 115.392 59.9922 119.445L60.9801 127.384ZM141 48V56H708V48V40H141V48ZM130.384 57.9801L138.322 58.9681C138.438 58.0389 138.872 57.2306 139.427 56.6958C139.954 56.1887 140.494 56 141 56V48V40C130.84 40 123.547 48.1329 122.445 56.9922L130.384 57.9801ZM51 138H59C59 137.494 59.1887 136.954 59.6958 136.427C60.2306 135.872 61.0389 135.438 61.9681 135.322L60.9801 127.384L59.9922 119.445C51.1329 120.547 43 127.84 43 138H51ZM60.9801 1056.62L61.9681 1048.68C61.0389 1048.56 60.2306 1048.13 59.6958 1047.57C59.1887 1047.05 59 1046.51 59 1046H51H43C43 1056.16 51.1329 1063.45 59.9922 1064.56L60.9801 1056.62ZM141 1136V1128C140.494 1128 139.954 1127.81 139.427 1127.3C138.872 1126.77 138.438 1125.96 138.322 1125.03L130.384 1126.02L122.445 1127.01C123.547 1135.87 130.84 1144 141 1144V1136ZM718.616 1126.02L710.678 1125.03C710.562 1125.96 710.128 1126.77 709.573 1127.3C709.046 1127.81 708.506 1128 708 1128V1136V1144C718.16 1144 725.453 1135.87 726.555 1127.01L718.616 1126.02ZM798 1046H790C790 1046.51 789.811 1047.05 789.304 1047.57C788.769 1048.13 787.961 1048.56 787.032 1048.68L788.02 1056.62L789.008 1064.56C797.867 1063.45 806 1056.16 806 1046H798ZM788.02 127.384L787.032 135.322C787.961 135.438 788.769 135.872 789.304 136.427C789.811 136.954 790 137.494 790 138H798H806C806 127.84 797.867 120.547 789.008 119.445L788.02 127.384ZM718.616 57.9801L726.555 56.9922C725.453 48.1329 718.16 40 708 40V48V56C708.506 56 709.046 56.1887 709.573 56.6958C710.128 57.2306 710.562 58.0389 710.678 58.9681L718.616 57.9801Z" fill="black" mask="url(#path-6-inside-1_1_3358)"/>
<path d="M690 102C695.523 102 699.911 106.512 700.837 111.957C705.019 136.563 724.437 155.981 749.043 160.163C754.488 161.089 759 165.477 759 171V1014C759 1019.52 754.488 1023.91 749.043 1024.84C724.711 1028.97 705.454 1048 700.984 1072.22C699.993 1077.59 695.633 1082 690.175 1082H158.825C153.367 1082 149.007 1077.59 148.016 1072.22C143.546 1048 124.288 1028.97 99.9568 1024.84C94.5121 1023.91 90 1019.52 90 1014V171C90 165.477 94.512 161.089 99.9568 160.163C124.563 155.981 143.981 136.563 148.163 111.957C149.089 106.512 153.477 102 159 102H690Z" fill="#5298CB"/>
<mask id="path-9-outside-2_1_3358" maskUnits="userSpaceOnUse" x="406" y="1007" width="37" height="31" fill="black">
<rect fill="white" x="406" y="1007" width="37" height="31"/>
<path d="M406.8 1012V1007.84H415.12V1037H410.52V1012H406.8ZM440.184 1011.76H426.784V1019.72C427.344 1018.97 428.171 1018.35 429.264 1017.84C430.384 1017.33 431.571 1017.08 432.824 1017.08C435.064 1017.08 436.878 1017.56 438.264 1018.52C439.678 1019.48 440.678 1020.69 441.264 1022.16C441.878 1023.63 442.184 1025.17 442.184 1026.8C442.184 1028.77 441.798 1030.53 441.024 1032.08C440.278 1033.6 439.144 1034.8 437.624 1035.68C436.131 1036.56 434.291 1037 432.104 1037C429.198 1037 426.864 1036.28 425.104 1034.84C423.344 1033.4 422.291 1031.49 421.944 1029.12H426.384C426.678 1030.37 427.331 1031.37 428.344 1032.12C429.358 1032.84 430.624 1033.2 432.144 1033.2C434.038 1033.2 435.451 1032.63 436.384 1031.48C437.344 1030.33 437.824 1028.81 437.824 1026.92C437.824 1025 437.344 1023.53 436.384 1022.52C435.424 1021.48 434.011 1020.96 432.144 1020.96C430.838 1020.96 429.731 1021.29 428.824 1021.96C427.944 1022.6 427.304 1023.48 426.904 1024.6H422.584V1007.76H440.184V1011.76Z"/>
</mask>
<path d="M406.8 1012V1007.84H415.12V1037H410.52V1012H406.8ZM440.184 1011.76H426.784V1019.72C427.344 1018.97 428.171 1018.35 429.264 1017.84C430.384 1017.33 431.571 1017.08 432.824 1017.08C435.064 1017.08 436.878 1017.56 438.264 1018.52C439.678 1019.48 440.678 1020.69 441.264 1022.16C441.878 1023.63 442.184 1025.17 442.184 1026.8C442.184 1028.77 441.798 1030.53 441.024 1032.08C440.278 1033.6 439.144 1034.8 437.624 1035.68C436.131 1036.56 434.291 1037 432.104 1037C429.198 1037 426.864 1036.28 425.104 1034.84C423.344 1033.4 422.291 1031.49 421.944 1029.12H426.384C426.678 1030.37 427.331 1031.37 428.344 1032.12C429.358 1032.84 430.624 1033.2 432.144 1033.2C434.038 1033.2 435.451 1032.63 436.384 1031.48C437.344 1030.33 437.824 1028.81 437.824 1026.92C437.824 1025 437.344 1023.53 436.384 1022.52C435.424 1021.48 434.011 1020.96 432.144 1020.96C430.838 1020.96 429.731 1021.29 428.824 1021.96C427.944 1022.6 427.304 1023.48 426.904 1024.6H422.584V1007.76H440.184V1011.76Z" fill="black"/>
<path d="M406.8 1012H406.5V1012.3H406.8V1012ZM406.8 1007.84V1007.54H406.5V1007.84H406.8ZM415.12 1007.84H415.42V1007.54H415.12V1007.84ZM415.12 1037V1037.3H415.42V1037H415.12ZM410.52 1037H410.22V1037.3H410.52V1037ZM410.52 1012H410.82V1011.7H410.52V1012ZM406.8 1012H407.1V1007.84H406.8H406.5V1012H406.8ZM406.8 1007.84V1008.14H415.12V1007.84V1007.54H406.8V1007.84ZM415.12 1007.84H414.82V1037H415.12H415.42V1007.84H415.12ZM415.12 1037V1036.7H410.52V1037V1037.3H415.12V1037ZM410.52 1037H410.82V1012H410.52H410.22V1037H410.52ZM410.52 1012V1011.7H406.8V1012V1012.3H410.52V1012ZM440.184 1011.76V1012.06H440.484V1011.76H440.184ZM426.784 1011.76V1011.46H426.484V1011.76H426.784ZM426.784 1019.72H426.484V1020.62L427.024 1019.9L426.784 1019.72ZM429.264 1017.84L429.141 1017.57L429.138 1017.57L429.264 1017.84ZM438.264 1018.52L438.094 1018.77L438.096 1018.77L438.264 1018.52ZM441.264 1022.16L440.986 1022.27L440.988 1022.28L441.264 1022.16ZM441.024 1032.08L440.756 1031.95L440.755 1031.95L441.024 1032.08ZM437.624 1035.68L437.474 1035.42L437.472 1035.42L437.624 1035.68ZM425.104 1034.84L425.294 1034.61L425.104 1034.84ZM421.944 1029.12V1028.82H421.597L421.648 1029.16L421.944 1029.12ZM426.384 1029.12L426.676 1029.05L426.622 1028.82H426.384V1029.12ZM428.344 1032.12L428.166 1032.36L428.171 1032.36L428.344 1032.12ZM436.384 1031.48L436.154 1031.29L436.152 1031.29L436.384 1031.48ZM436.384 1022.52L436.164 1022.72L436.167 1022.73L436.384 1022.52ZM428.824 1021.96L429.001 1022.2L429.002 1022.2L428.824 1021.96ZM426.904 1024.6V1024.9H427.116L427.187 1024.7L426.904 1024.6ZM422.584 1024.6H422.284V1024.9H422.584V1024.6ZM422.584 1007.76V1007.46H422.284V1007.76H422.584ZM440.184 1007.76H440.484V1007.46H440.184V1007.76ZM440.184 1011.76V1011.46H426.784V1011.76V1012.06H440.184V1011.76ZM426.784 1011.76H426.484V1019.72H426.784H427.084V1011.76H426.784ZM426.784 1019.72L427.024 1019.9C427.547 1019.2 428.329 1018.6 429.391 1018.11L429.264 1017.84L429.138 1017.57C428.013 1018.09 427.142 1018.74 426.544 1019.54L426.784 1019.72ZM429.264 1017.84L429.388 1018.11C430.468 1017.62 431.613 1017.38 432.824 1017.38V1017.08V1016.78C431.529 1016.78 430.3 1017.04 429.141 1017.57L429.264 1017.84ZM432.824 1017.08V1017.38C435.023 1017.38 436.771 1017.85 438.094 1018.77L438.264 1018.52L438.435 1018.27C436.984 1017.27 435.106 1016.78 432.824 1016.78V1017.08ZM438.264 1018.52L438.096 1018.77C439.464 1019.7 440.423 1020.86 440.986 1022.27L441.264 1022.16L441.543 1022.05C440.932 1020.52 439.892 1019.26 438.433 1018.27L438.264 1018.52ZM441.264 1022.16L440.988 1022.28C441.585 1023.7 441.884 1025.21 441.884 1026.8H442.184H442.484C442.484 1025.13 442.17 1023.55 441.541 1022.04L441.264 1022.16ZM442.184 1026.8H441.884C441.884 1028.73 441.506 1030.45 440.756 1031.95L441.024 1032.08L441.293 1032.21C442.09 1030.62 442.484 1028.81 442.484 1026.8H442.184ZM441.024 1032.08L440.755 1031.95C440.036 1033.41 438.945 1034.57 437.474 1035.42L437.624 1035.68L437.775 1035.94C439.344 1035.03 440.52 1033.79 441.294 1032.21L441.024 1032.08ZM437.624 1035.68L437.472 1035.42C436.035 1036.27 434.251 1036.7 432.104 1036.7V1037V1037.3C434.331 1037.3 436.227 1036.85 437.777 1035.94L437.624 1035.68ZM432.104 1037V1036.7C429.247 1036.7 426.987 1035.99 425.294 1034.61L425.104 1034.84L424.914 1035.07C426.741 1036.57 429.148 1037.3 432.104 1037.3V1037ZM425.104 1034.84L425.294 1034.61C423.596 1033.22 422.578 1031.38 422.241 1029.08L421.944 1029.12L421.648 1029.16C422.004 1031.61 423.093 1033.58 424.914 1035.07L425.104 1034.84ZM421.944 1029.12V1029.42H426.384V1029.12V1028.82H421.944V1029.12ZM426.384 1029.12L426.092 1029.19C426.401 1030.51 427.094 1031.57 428.166 1032.36L428.344 1032.12L428.522 1031.88C427.568 1031.18 426.954 1030.24 426.676 1029.05L426.384 1029.12ZM428.344 1032.12L428.171 1032.36C429.245 1033.13 430.576 1033.5 432.144 1033.5V1033.2V1032.9C430.673 1032.9 429.47 1032.55 428.518 1031.88L428.344 1032.12ZM432.144 1033.2V1033.5C434.101 1033.5 435.611 1032.9 436.617 1031.67L436.384 1031.48L436.152 1031.29C435.291 1032.35 433.975 1032.9 432.144 1032.9V1033.2ZM436.384 1031.48L436.614 1031.67C437.631 1030.46 438.124 1028.86 438.124 1026.92H437.824H437.524C437.524 1028.76 437.058 1030.21 436.154 1031.29L436.384 1031.48ZM437.824 1026.92H438.124C438.124 1024.95 437.632 1023.4 436.602 1022.31L436.384 1022.52L436.167 1022.73C437.057 1023.67 437.524 1025.05 437.524 1026.92H437.824ZM436.384 1022.52L436.605 1022.32C435.571 1021.2 434.067 1020.66 432.144 1020.66V1020.96V1021.26C433.955 1021.26 435.277 1021.76 436.164 1022.72L436.384 1022.52ZM432.144 1020.96V1020.66C430.784 1020.66 429.613 1021.01 428.647 1021.72L428.824 1021.96L429.002 1022.2C429.849 1021.58 430.891 1021.26 432.144 1021.26V1020.96ZM428.824 1021.96L428.648 1021.72C427.715 1022.4 427.04 1023.33 426.622 1024.5L426.904 1024.6L427.187 1024.7C427.569 1023.63 428.174 1022.8 429.001 1022.2L428.824 1021.96ZM426.904 1024.6V1024.3H422.584V1024.6V1024.9H426.904V1024.6ZM422.584 1024.6H422.884V1007.76H422.584H422.284V1024.6H422.584ZM422.584 1007.76V1008.06H440.184V1007.76V1007.46H422.584V1007.76ZM440.184 1007.76H439.884V1011.76H440.184H440.484V1007.76H440.184Z" fill="black" mask="url(#path-9-outside-2_1_3358)"/>
<path d="M250.36 234.83C250.36 227.55 251.865 221.075 254.875 215.405C257.955 209.665 262.295 205.22 267.895 202.07C273.495 198.85 279.935 197.24 287.215 197.24C296.455 197.24 304.225 199.725 310.525 204.695C316.825 209.595 320.885 216.28 322.705 224.75H300.55C299.22 221.95 297.365 219.815 294.985 218.345C292.675 216.875 289.98 216.14 286.9 216.14C282.14 216.14 278.325 217.855 275.455 221.285C272.655 224.645 271.255 229.16 271.255 234.83C271.255 240.57 272.655 245.155 275.455 248.585C278.325 251.945 282.14 253.625 286.9 253.625C289.98 253.625 292.675 252.89 294.985 251.42C297.365 249.95 299.22 247.815 300.55 245.015H322.705C320.885 253.485 316.825 260.205 310.525 265.175C304.225 270.075 296.455 272.525 287.215 272.525C279.935 272.525 273.495 270.95 267.895 267.8C262.295 264.58 257.955 260.135 254.875 254.465C251.865 248.725 250.36 242.18 250.36 234.83ZM329.09 242.495C329.09 236.405 330.175 231.085 332.345 226.535C334.585 221.985 337.595 218.485 341.375 216.035C345.225 213.585 349.495 212.36 354.185 212.36C358.245 212.36 361.745 213.165 364.685 214.775C367.625 216.385 369.9 218.555 371.51 221.285V213.095H392.09V272H371.51V263.81C369.9 266.54 367.59 268.71 364.58 270.32C361.64 271.93 358.175 272.735 354.185 272.735C349.495 272.735 345.225 271.51 341.375 269.06C337.595 266.61 334.585 263.11 332.345 258.56C330.175 253.94 329.09 248.585 329.09 242.495ZM371.51 242.495C371.51 238.715 370.46 235.74 368.36 233.57C366.33 231.4 363.81 230.315 360.8 230.315C357.72 230.315 355.165 231.4 353.135 233.57C351.105 235.67 350.09 238.645 350.09 242.495C350.09 246.275 351.105 249.285 353.135 251.525C355.165 253.695 357.72 254.78 360.8 254.78C363.81 254.78 366.33 253.695 368.36 251.525C370.46 249.355 371.51 246.345 371.51 242.495ZM424.398 223.49C426.708 220.13 429.508 217.47 432.798 215.51C436.088 213.55 439.623 212.57 443.403 212.57V234.515H437.628C433.148 234.515 429.823 235.39 427.653 237.14C425.483 238.89 424.398 241.935 424.398 246.275V272H403.818V213.095H424.398V223.49ZM471.36 223.49C473.67 220.13 476.47 217.47 479.76 215.51C483.05 213.55 486.585 212.57 490.365 212.57V234.515H484.59C480.11 234.515 476.785 235.39 474.615 237.14C472.445 238.89 471.36 241.935 471.36 246.275V272H450.78V213.095H471.36V223.49ZM525.148 272.735C519.268 272.735 513.983 271.51 509.293 269.06C504.673 266.61 501.033 263.11 498.373 258.56C495.713 254.01 494.383 248.655 494.383 242.495C494.383 236.405 495.713 231.085 498.373 226.535C501.103 221.985 504.778 218.485 509.398 216.035C514.088 213.585 519.373 212.36 525.253 212.36C531.133 212.36 536.383 213.585 541.003 216.035C545.693 218.485 549.368 221.985 552.028 226.535C554.758 231.085 556.123 236.405 556.123 242.495C556.123 248.585 554.758 253.94 552.028 258.56C549.368 263.11 545.693 266.61 541.003 269.06C536.313 271.51 531.028 272.735 525.148 272.735ZM525.148 254.885C528.018 254.885 530.398 253.835 532.288 251.735C534.248 249.565 535.228 246.485 535.228 242.495C535.228 238.505 534.248 235.46 532.288 233.36C530.398 231.26 528.053 230.21 525.253 230.21C522.453 230.21 520.108 231.26 518.218 233.36C516.328 235.46 515.383 238.505 515.383 242.495C515.383 246.555 516.293 249.635 518.113 251.735C519.933 253.835 522.278 254.885 525.148 254.885ZM599.251 254.465V272H590.326C575.276 272 567.751 264.545 567.751 249.635V230.21H560.506V213.095H567.751V198.815H588.436V213.095H599.146V230.21H588.436V249.95C588.436 251.56 588.786 252.715 589.486 253.415C590.256 254.115 591.516 254.465 593.266 254.465H599.251Z" fill="black"/>
<path d="M282.257 322.189C301.235 319.797 320.017 340.649 329.335 354.63C332.441 359.291 334.894 364.916 338.264 370.003C359.727 361.803 366.614 388.944 366.207 405.264C401.942 382.598 434.186 414.344 415.045 447.343C411.776 452.981 406.648 456.588 401.35 460.72C403.405 490.422 374.693 510.058 347.893 513.157C343.039 528.405 340.242 537.003 338.264 552.899C368.025 556.36 398.274 577.729 410.366 604.955C412.599 609.981 414.565 615.078 416.766 620.115C437.338 595.034 461.019 581.46 493.665 578.18C494.275 564.017 492.454 549.173 490.2 535.229C488.262 534.863 486.317 534.45 484.389 534.08C459.535 529.321 435.694 499.829 447.774 475.565C419.911 452.905 436.43 418.638 467.003 420.86C475.987 421.512 488.623 426.504 494.517 433.28C500.064 406.654 517.761 377.628 548.52 391.915C587.996 334.211 636.471 376.889 624.259 434.404C648.017 436.838 651.349 455.331 640.719 473.674C650.126 473.278 659.661 473.198 667.877 478.636C694.133 496.018 679.313 532.753 646.734 539.197C639.4 564.811 600.482 574.45 578.11 567.457C568.614 576.868 560.032 587.568 554.37 599.745C564.829 606.912 579.457 625.326 587.034 635.629C588.146 639.648 590.125 643.317 591.683 647.171C608.904 689.801 587.996 708.444 571.843 742.764C550.579 791.237 484.391 954.698 421.398 961.844C393.01 965.064 390.082 917.693 388.875 899.402C383.506 917.924 376.041 937.101 356.164 944.528C317.935 958.812 285.259 865.598 274.433 838.205C258.129 795.069 241.706 751.954 230.04 707.268C227.934 699.443 226.64 689.857 222.769 682.69C201.001 642.387 233.369 578.433 273.914 563.992C256.387 497.836 243.045 536.21 214.868 518.427C202.082 510.358 196.301 497.335 193.056 483.228C184.99 478.896 179.628 477.724 173.342 470.482C162.461 457.943 163.807 437.865 176.498 427.077C187.218 417.964 205.05 420.522 218.144 421.771C212.338 397.751 215.655 364.09 247.194 365.839C248.855 345.884 260.383 324.422 282.257 322.189ZM397.896 900.785C400.313 897.814 401.181 889.063 401.35 885.34L400.604 883L399.94 882.369C397.471 883.497 398.296 890.091 397.896 892.792C398.028 895.789 398.039 897.791 397.896 900.785Z" fill="black"/>
<path d="M321.985 560.279C356.414 558.381 392.85 581.93 405.112 614.546C406.817 619.08 408.064 624.372 410.132 628.743C396.344 654.089 397.091 697.812 393.863 726.389C393.733 728.826 393.425 736.998 392.959 739.015C392.554 762.288 390.6 786.455 389.676 809.784L388.666 839.391C388.484 845.201 388.346 854.066 387.525 859.71C379.02 863.169 368.742 867.41 359.523 867.464C335.352 867.142 343.074 877.543 357.628 876.44C369.285 876.544 376.659 873.859 387.525 869.769C383.127 890.381 376.742 921.414 358.804 933.378C345.265 942.409 334.425 935.129 326.485 923.179C312.264 908.222 294.39 863.89 286.423 844.878H292.566H300.337C310.783 841.875 308.426 835.209 298.4 838.105C295.767 838.623 292.712 839.316 290.075 839.47C288.397 839.606 285.749 839.491 283.998 839.47C282.322 834.086 279.959 829.366 278.656 823.991C288.551 824.632 304.277 823.969 313.633 820.525C317.654 817.925 315.756 812.572 311.118 813.583C299.094 816.204 287.788 815.962 275.49 815.854C259.011 774.124 245.518 732.405 234.163 689.007C230.363 674.481 223.756 672.26 223.877 654.969C224.239 603.461 271.73 560.005 321.985 560.279Z" fill="#FF8B40"/>
<path d="M321.985 560.279C356.414 558.381 392.85 581.93 405.112 614.546C406.817 619.08 408.064 624.372 410.132 628.743C396.343 654.089 397.091 697.812 393.863 726.389C389.487 724.97 387.656 723.729 382.248 722.34C385.541 716.587 387.928 660.795 387.525 651.155C384.783 649.008 385.141 645.32 387.525 643.085L388.251 642.353C392.493 626.386 377.109 605.255 364.626 596.587C360.47 593.701 355.101 590.578 351.521 587.165C361.964 587.979 363.374 579.278 346.697 578.18C336.685 561.977 328.642 565.673 321.985 560.279Z" fill="#FA6822"/>
<path d="M387.525 643.086C408.36 646.881 406.077 655.831 387.525 651.155C384.783 649.008 385.141 645.32 387.525 643.086Z" fill="#57312F"/>
<path d="M382.248 734.888C384.383 735.566 392.131 737.603 392.958 739.016C392.554 762.289 390.6 786.456 389.676 809.785L388.666 839.392C388.483 845.201 388.346 854.067 387.525 859.71C379.02 863.169 368.742 867.41 359.523 867.465C370.241 823.785 373.843 778.986 382.248 734.888Z" fill="#FA6822"/>
<path d="M357.629 876.44C369.286 876.544 376.659 873.86 387.525 869.77C383.127 890.382 376.742 921.415 358.805 933.378C345.265 942.41 334.425 935.13 326.485 923.18C340.059 919.747 357.065 890.102 357.629 876.44Z" fill="#FA6822"/>
<path d="M382.248 734.888C379.627 734.228 358.468 733.295 360.693 728.157C364.088 720.317 375.43 721.602 382.248 722.34C387.656 723.729 389.487 724.97 393.863 726.389C393.733 728.826 393.425 736.998 392.958 739.016C392.131 737.602 384.383 735.566 382.248 734.888Z" fill="#F2441D"/>
<path d="M292.566 844.878H300.337C302.656 849.459 311.674 873.905 306.258 876.934C300.832 876.11 293.303 851.059 292.566 844.878Z" fill="#FEC899"/>
<path d="M346.698 578.18C363.375 579.278 361.965 587.979 351.521 587.165C347.16 585.231 337.139 588.947 336.2 583.587C337.829 578.999 342.54 578.828 346.698 578.18Z" fill="black"/>
<path d="M290.075 839.47C280.595 832.44 296.861 821.011 298.4 838.105C295.767 838.623 292.712 839.316 290.075 839.47Z" fill="#FEC899"/>
<path d="M291.692 587.165C302.183 585.637 320.634 588.584 319.848 602.578C318.925 618.987 287.259 620.838 274.631 627.328C260.939 634.364 257.042 637.445 246 647.526C232.172 660.619 224.785 671.051 233.819 639.178C241.706 611.352 261.819 589.564 291.692 587.165Z" fill="#FEC899"/>
<path d="M294.441 599.745C296.981 599.272 302.043 598.552 302.733 602.189C303.918 608.442 295.53 606.748 292.078 607.357C279.008 609.658 262.82 616.364 254.524 627.168C235.94 636.669 251.033 603.655 294.441 599.745Z" fill="black"/>
<path d="M306.346 695.116L306.853 695.084C319.076 694.435 316.922 702.487 311.467 702.828C290.411 704.142 273.29 712.11 256.68 724.821C250.872 730.57 242.455 725.297 258.911 713.079C271.516 703.722 290.606 696.208 306.346 695.116Z" fill="black"/>
<path d="M261.095 732.332C274.111 731.826 278.62 757.723 279.275 767.147C278.175 769.729 277.763 770.614 275.49 772.226C264.842 774.545 252.811 738.347 261.095 732.332Z" fill="#FEC899"/>
<path d="M283.998 685.654C298.342 683.86 307.466 692.279 287.716 695.655C279.851 697 265.941 701.929 261.095 708.699C256.571 710.742 254.199 711.476 249.107 714.08C253.39 698.094 268.18 688.011 283.998 685.654Z" fill="#FEC899"/>
<path d="M335.054 767.147C349.124 762.902 371.197 778.07 335.054 779.979C318.871 788.07 304.137 766.78 335.054 767.147Z" fill="#F2441D"/>
<path d="M357.628 634.287C376.478 631.18 396.576 649.676 369.941 646.302C363.752 645.225 345.653 650.395 342.812 643.447C343.44 637.355 352.616 635.055 357.628 634.287Z" fill="#F2441D"/>
<path d="M278.656 778.294C286.821 778.146 290.283 805.218 289.406 809.364C287.962 811.512 286.481 811.589 283.998 812.253C281.538 810.964 263.096 781.428 278.656 778.294Z" fill="#FEC899"/>
<path d="M254.524 666.667C263.667 668.053 266.118 684.765 256.68 687.51C246.989 685.992 245.76 670.334 254.524 666.667Z" fill="#FEC899"/>
<path d="M286.423 625.002C292.762 624.786 292.359 634.418 283.998 635.629C275.323 631.933 278.68 626.019 286.423 625.002Z" fill="#FEC899"/>
<path d="M318.51 872.819C325.891 872.665 327.22 877.707 320.469 880.374C312.048 880.368 310.518 874.584 318.51 872.819Z" fill="black"/>
<path d="M496.621 588.637C533.06 581.158 580.035 627.458 587.214 661.402C593.972 698.505 575.552 709.667 562.399 740.836C545.358 781.211 528.127 821.38 507.323 859.994C499.89 873.79 490.008 886.118 482.162 899.402C474.062 896.861 458.99 892.693 451.799 889.14C434.63 883.806 432.687 892.655 447.774 898.089C456.62 901.594 467.907 905.29 477.141 907.354L476.599 907.836C461.982 920.963 421.104 979.466 404.703 939.965C400.799 929.572 397.741 911.885 397.895 900.785C400.313 897.814 401.181 889.063 401.35 885.34L400.604 883L399.94 882.369C397.471 883.497 398.296 890.091 397.895 892.792C397.447 886.453 397.877 874.189 397.895 867.464C397.091 862.23 397.639 854.891 397.895 849.478C398.25 849.38 400.112 849.466 400.604 849.478C403.823 850.335 406.826 850.484 410.132 850.79C412.744 847.902 412.729 846.482 410.132 843.59C406.448 842.117 404.738 841.548 401.35 839.47C395.507 839.401 398.188 829.394 398.779 823.992C402.68 825.561 427.842 834.215 430.596 831.876C441.108 822.956 417.566 820.815 412.69 819.793C408.758 818.754 406.847 817.714 403.261 815.854C402.515 815.699 400.542 815.012 399.721 814.752C398.951 803.033 400.465 789.216 400.815 777.307C401.658 748.764 402.882 664.257 415.102 639.08C428.681 611.107 465.058 586.37 496.621 588.637Z" fill="#FF8B40"/>
<path d="M496.621 588.637C533.06 581.158 580.035 627.458 587.214 661.402C593.972 698.505 575.552 709.667 562.399 740.836C545.358 781.211 528.127 821.38 507.322 859.994C499.89 873.79 490.008 886.118 482.162 899.402C474.062 896.861 458.99 892.693 451.799 889.14C454.658 883.263 461.884 876.011 466.214 870.727C489.435 842.402 508.908 812.466 525.819 779.979C527.067 776.733 528.58 772.617 531.565 770.541H529.738C538.665 742.758 559.201 689.883 562.351 661.854C566.21 627.511 527.972 592.14 496.621 588.637Z" fill="#FA6822"/>
<path d="M525.819 779.979C527.067 776.733 528.58 772.617 531.565 770.541C544.425 778.418 541.607 786.268 525.819 779.979Z" fill="#E62818"/>
<path d="M560.781 696.737C567.789 696.574 578.747 708.77 575.82 714.08C572.466 712.961 557.968 701.907 560.781 696.737Z" fill="black"/>
<path d="M447.774 898.088C456.62 901.594 467.907 905.29 477.141 907.354L476.599 907.835C461.983 920.963 421.104 979.465 404.703 939.965C413.81 936.757 442.973 907.13 447.774 898.088Z" fill="#FA6822"/>
<path d="M403.261 815.854C404.391 809.416 404.252 763.262 418.786 778.294C418.809 787.719 414.959 810.773 412.69 819.793C408.758 818.754 406.847 817.714 403.261 815.854Z" fill="#FEC899"/>
<path d="M397.895 849.478C398.25 849.38 400.112 849.466 400.604 849.478C403.823 850.334 406.826 850.484 410.132 850.79C409.587 856.373 409.42 877.377 403.261 878.179C401.157 879.767 401.179 880.365 400.604 883L399.94 882.369C397.471 883.497 398.296 890.091 397.895 892.792C397.447 886.453 397.877 874.189 397.895 867.464C397.091 862.23 397.639 854.891 397.895 849.478Z" fill="#FEC899"/>
<path d="M397.895 849.478C398.25 849.38 400.112 849.466 400.604 849.478C399.786 854.815 398.875 862.346 397.895 867.464C397.091 862.23 397.639 854.891 397.895 849.478Z" fill="#FE8739"/>
<path d="M507.156 764.099C515.611 763.693 522.531 766.216 529.738 770.541H531.565C528.58 772.617 527.067 776.733 525.819 779.979C520.264 778.244 493.775 772.201 507.156 764.099Z" fill="#F2441D"/>
<path d="M403.262 878.179C430.257 880.842 422.021 897.545 401.35 885.34L400.604 883C401.18 880.365 401.157 879.767 403.262 878.179Z" fill="black"/>
<path d="M401.35 839.471C405.641 822.461 417.093 838.48 410.132 843.591C406.449 842.117 404.738 841.548 401.35 839.471Z" fill="#FEC899"/>
<path d="M469.838 607.007C515.971 602.208 535.376 635.573 503.049 641.639C490.006 644.087 473.057 636.4 451.799 639.773C439.038 642.575 431.541 647.837 422.075 656.527C409.548 668.026 420.157 634.107 426.658 626.043C437.449 612.662 453.839 608.942 469.838 607.007Z" fill="#FEC899"/>
<path d="M466.089 618.872C504.4 616.656 506.192 636.201 497.723 633.076C491.426 630.751 486.009 628.439 479.334 627.168C468.42 625.384 459.369 626.348 449.794 631.948C440.204 637.557 436.694 621.263 466.089 618.872Z" fill="black"/>
<path d="M435.089 708.699C445.682 707.861 474.446 712.674 480.071 719.027C489.126 729.255 463.535 721.038 460.271 720.154C447.235 716.834 433.409 714.998 420.435 719.732C407.193 723.768 407.655 711.128 435.089 708.699Z" fill="black"/>
<path d="M461.878 791.316C490.52 789.641 502.748 813.059 486.521 810.373C478.708 809.01 470.528 805.986 462.772 804.242C452.353 801.901 448.76 793.394 461.878 791.316Z" fill="#F2441D"/>
<path d="M435.089 691.593C441.131 689.73 470.037 694.233 460.218 705.18C459.123 706.398 446.779 703.551 444.05 703.338C439.289 703.187 420.79 706.561 419.686 705.855C408.321 698.558 428.108 692.081 435.089 691.593Z" fill="#FEC899"/>
<path d="M418.786 730.493C430.723 732.072 422.872 767.759 414.788 770.541C401.445 766.385 410.214 732.608 418.786 730.493Z" fill="#FEC899"/>
<path d="M518.741 675.398C535.672 673.804 562.703 687.725 543.991 691.594C536.261 690.514 528.277 688.452 520.781 686.282C513.975 684.312 508.54 678.007 518.741 675.398Z" fill="#F2441D"/>
<path d="M429.711 666.667C445.21 661.67 437.695 685.634 432.474 689.483C418.196 693.245 422.002 670.627 429.711 666.667Z" fill="#FEC899"/>
<path d="M536.527 625.001C541.332 625.821 557.635 636.645 551.423 643.085C551.031 643.125 529.462 632.34 536.527 625.001Z" fill="black"/>
<path d="M472.536 643.086C482.081 641.854 485.238 649.958 477.141 655.066C469.326 656.896 464.481 647.348 472.536 643.086Z" fill="#FEC899"/>
<path d="M275.491 332.891C279.857 330.909 282.766 330.892 287.064 332.891C302.42 334.206 325.537 362.08 328.941 376.49C329.341 378.72 327.718 380.008 328.742 382.377C332.441 390.933 339.736 376.369 347.072 378.315C358.56 381.361 358.943 398.248 356.159 407.18C355.187 410.299 348.523 418.099 355.229 419.661C362.926 421.457 391.6 388.552 409.122 417.265C412.364 422.163 412.43 428.693 411.395 434.341C408.937 447.734 398.392 450.319 391.532 457.512C398.682 484.229 366.526 504.01 343.363 504.482C335.451 516.948 331.301 536.68 329.811 551.272H318.51C317.367 536.464 327.792 503.475 335.054 492.609C338.266 483.662 343.737 476.003 348.528 467.941C351.819 462.405 344.653 457.881 340.015 464.681C337.289 468.681 334.657 473.046 332.13 477.27C331.078 479.216 329.935 481.262 328.941 483.228C322.825 496.367 320.462 504.292 315.983 517.759C314.683 505.574 312.583 489.209 312.691 477.27C310.664 467.755 306.572 425.962 299.94 421.636C281.925 409.883 287.131 500.798 287.064 507.854C287.708 509.309 287.194 513.941 287.064 515.84L286.163 513.77C280.566 500.693 263.441 483.542 250.626 477.27C234.145 475.632 261.247 493.586 262.855 495.215C280.974 513.573 287.022 526.17 290.075 550.532C290.715 552.492 291.253 555.422 291.692 557.507C287.172 558.099 286.282 558.331 282.257 560.279C277.139 544.719 267.981 512.52 246.55 514.362C224.122 516.289 209.024 512.412 202.422 486.019C201.75 483.329 202.129 478.011 200.53 475.895C197.518 471.907 170.173 471.406 176.102 444.636C180.849 421.011 225.68 428.065 236.762 440.139C245.567 446.43 253.596 439.221 234.456 427.855C232.436 426.972 230.424 425.981 228.432 425.03C223.702 414.062 222.648 400.225 226.764 388.907C234.622 367.305 248.648 378.433 254.532 374.866C257.705 372.941 253.303 344.189 275.491 332.891Z" fill="#00F43B"/>
<path d="M409.122 417.265C412.364 422.163 412.43 428.693 411.394 434.341C408.937 447.734 398.392 450.319 391.532 457.511C398.682 484.228 366.525 504.01 343.362 504.482C335.451 516.948 331.301 536.68 329.811 551.272H318.51C317.367 536.464 327.792 503.475 335.054 492.609C350.564 492.029 367.88 485.498 377.489 472.857C383.483 464.97 380.874 460.665 379.627 452.07C385.432 437.833 400.497 445.885 409.122 417.265Z" fill="#298E43"/>
<path d="M282.257 560.279C277.139 544.719 267.981 512.52 246.55 514.362C224.122 516.289 209.024 512.412 202.422 486.019C201.75 483.329 202.129 478.011 200.53 475.895C197.518 471.907 170.173 471.406 176.102 444.636C178.243 446.147 179.162 446.617 181.522 447.77C188.952 460.125 195.459 464.63 210.158 466.874C221.265 510.413 232.401 494.238 259.035 506.837C282.392 517.887 280.737 539.696 290.075 550.532C290.715 552.492 291.253 555.422 291.692 557.507C287.172 558.099 286.282 558.331 282.257 560.279Z" fill="#298E43"/>
<path d="M275.49 332.891C286.739 340.514 271.528 343.799 267.902 356.684C264.925 367.265 269.347 386.841 257.074 387.974C250.286 388.602 245.636 383.081 240.133 389.826C230.757 401.318 235.713 415.013 234.456 427.855C232.436 426.972 230.423 425.981 228.432 425.03C223.702 414.061 222.648 400.225 226.764 388.907C234.622 367.305 248.648 378.433 254.531 374.865C257.705 372.941 253.302 344.189 275.49 332.891Z" fill="#C8F7E3"/>
<path d="M312.691 477.27L312.896 477.498L313.325 477.474C312.981 454.56 331.444 434.004 326.484 460.72C326.481 466.286 328.385 473.059 332.129 477.27C331.077 479.216 329.934 481.262 328.941 483.228C322.825 496.367 320.462 504.292 315.982 517.759C314.682 505.574 312.582 489.209 312.691 477.27Z" fill="#338C45"/>
<path d="M328.941 483.227C323.703 479.791 324.869 465.717 326.484 460.72C326.481 466.286 328.385 473.059 332.129 477.27C331.077 479.216 329.934 481.262 328.941 483.227Z" fill="#298E43"/>
<path d="M176.102 444.636C180.849 421.011 225.68 428.065 236.762 440.138C236.269 443.357 236.13 444.885 234.456 447.77L233.914 447.517C222.147 441.959 210.294 431.664 195.271 436.471C188.34 438.688 186.172 445.081 181.521 447.77C179.162 446.617 178.243 446.147 176.102 444.636Z" fill="#C8F7E3"/>
<path d="M250.625 477.27C265.975 474.113 280.125 496.875 287.064 507.854C287.707 509.309 287.194 513.941 287.064 515.84L286.163 513.771C280.566 500.693 263.44 483.542 250.625 477.27Z" fill="#298E43"/>
<path d="M287.064 332.891C302.42 334.206 325.536 362.079 328.941 376.49C325.812 374.826 323.952 370.026 321.959 367.039C313.944 355.02 307.709 346.939 295.698 338.567C293.165 336.812 289.096 334.981 287.064 332.891Z" fill="#298E43"/>
<path d="M582.175 374.676C586.061 373.739 587.438 374.048 591.265 374.676C600.272 374.193 606.136 383.471 610.64 389.914C617.253 403.191 623.464 428.862 610.64 440.138C608.555 451.848 617.746 444.567 622.099 442.634C647.636 443.523 636.897 465.636 627.474 478.038C619.286 488.817 625.772 490.742 635.554 485.761C644.596 481.156 655.355 480.751 664.079 486.624C662.246 511.841 649.725 513.474 627.755 523.134C619.475 526.772 608.446 524.373 599.555 525.116C601.497 512.513 586.393 522.542 582.175 525.116C569.831 533.862 558.577 545.237 549.767 557.507C550.968 550.9 558.104 525.944 560.781 519.486C562.824 505.765 574.291 465.385 569.589 456.784C561.27 441.564 540.893 497.919 539.425 502.877C533.841 512.561 526.437 532.665 523.015 543.295C521.756 534.501 519.691 524.395 518.741 515.84C504.863 480.383 488.587 486.703 496.075 496.803C513.244 519.96 516.6 533.017 514.917 563.991C513.664 566.93 512.187 577.32 511.68 580.767C507.824 579.437 506.299 578.875 502.279 578.18C502.306 566.163 503.159 535.682 496.622 526.403C467.889 522.245 444.644 507.198 457.216 473.674C450.738 465.631 435.448 456.575 444.05 442.634C445.507 438.013 447.117 434.774 451.73 432.476C475.619 420.573 500.586 447.837 513.351 464.721C529.669 464.493 509.053 444.699 505.017 440.138L502.279 437.327C504.041 416.151 529.595 381.938 549.767 405.264C556.598 393.037 568.283 378.895 582.175 374.676Z" fill="#00F43B"/>
<path d="M444.05 442.634L447.774 444.636C449.116 444.956 448.576 444.631 449.497 445.564L449.588 445.984C453.11 461.745 463.73 459.758 466.923 468.022C469.924 475.79 454.662 489.229 476.021 502.646C482.498 506.715 486.902 505.442 493.536 507.455C509.024 512.155 511.935 561.053 514.917 563.991C513.664 566.929 512.187 577.32 511.68 580.766C507.824 579.436 506.299 578.875 502.279 578.18C502.306 566.162 503.159 535.681 496.622 526.402C467.889 522.244 444.644 507.198 457.216 473.673C450.738 465.631 435.448 456.575 444.05 442.634Z" fill="#298E43"/>
<path d="M582.174 374.676C586.06 373.739 587.437 374.048 591.265 374.676C590.993 378.796 591.174 379.249 587.034 380.712C562.432 391.239 561.836 411.783 551.423 417.265C545.629 413.683 538.726 407.55 531.517 409.437C516.75 413.302 514.551 438.432 505.017 440.138L502.278 437.327C504.04 416.151 529.595 381.938 549.767 405.264C556.597 393.037 568.283 378.895 582.174 374.676Z" fill="#C8F7E3"/>
<path d="M444.049 442.634C445.506 438.012 447.117 434.774 451.73 432.476C475.619 420.573 500.586 447.837 513.351 464.72C511.669 466.769 510.664 467.648 508.573 469.227C492.338 456.42 473.325 427.652 447.774 444.636L444.049 442.634Z" fill="#C8F7E3"/>
<path d="M560.781 519.487C566.332 516.305 581.029 495.606 586.411 504.979C590.333 511.808 575.688 521.105 582.174 525.116C569.831 533.863 558.577 545.237 549.767 557.507C550.967 550.9 558.104 525.944 560.781 519.487Z" fill="#298E43"/>
<path d="M518.741 515.84C525.06 510.542 529.781 496.037 539.425 502.877C533.841 512.561 526.437 532.665 523.015 543.296C521.756 534.501 519.691 524.395 518.741 515.84Z" fill="#298E43"/>
<path d="M610.64 389.914C617.253 403.191 623.464 428.862 610.64 440.138C610.433 437.649 611.052 433.446 611.324 430.87C612.763 418.153 609.035 398.449 610.64 389.914Z" fill="#298E43"/>
<path d="M664.079 486.625C681.539 502.18 667.429 527.375 646.179 530.535C643.991 530.86 640.081 530.096 638.477 531.711C635.615 542.067 638.195 545.663 625.89 553.211C617.872 558.128 593.081 561.057 584.183 560.279C582.175 556.996 579.827 554.091 576.077 557.479C561.63 570.529 557.488 580.053 546.832 593.6C543.835 591.853 542.197 590.735 539.425 588.638C548.037 563.699 576.175 538.231 599.555 525.117C608.446 524.374 619.475 526.773 627.755 523.134C649.725 513.475 662.246 511.841 664.079 486.625Z" fill="#298E43"/>
<path d="M560.781 473.674C562.328 484.988 540.091 565.903 531.565 585.523C528.602 584.043 526.127 583.137 523.015 582.028C521.468 581.644 520.257 581.268 518.741 580.767C527.184 546.27 545.153 506.264 560.781 473.674Z" fill="#847A3D"/>
<path d="M296.303 433.28C304.415 447.12 307.202 525.292 312.691 551.272H309.097C305.999 552.04 301.69 553.469 298.4 554.385C293.836 534.062 293.143 445.498 296.303 433.28Z" fill="#847A3D"/>
</svg>
