<svg width="849" height="1183" viewBox="0 0 849 1183" fill="none" xmlns="http://www.w3.org/2000/svg">
<rect x="5" y="5" width="839" height="1173" rx="45" fill="white"/>
<rect x="5" y="5" width="839" height="1173" rx="45" stroke="black" stroke-width="10"/>
<circle cx="786.5" cy="1124.5" r="11.5" fill="black"/>
<circle cx="786.5" cy="59.5" r="11.5" fill="black"/>
<path d="M77 1124.5C77 1130.85 71.8513 1136 65.5 1136C59.1487 1136 54 1130.85 54 1124.5C54 1118.15 59.1487 1113 65.5 1113C71.8513 1113 77 1118.15 77 1124.5Z" fill="black"/>
<path d="M77 59.5C77 65.8513 71.8513 71 65.5 71C59.1487 71 54 65.8513 54 59.5C54 53.1487 59.1487 48 65.5 48C71.8513 48 77 53.1487 77 59.5Z" fill="black"/>
<mask id="path-6-inside-1_1_283" fill="white">
<path d="M708 48C713.523 48 717.934 52.4996 718.616 57.9801C723.122 94.1833 751.817 122.878 788.02 127.384C793.5 128.066 798 132.477 798 138V1046C798 1051.52 793.5 1055.93 788.02 1056.62C751.817 1061.12 723.122 1089.82 718.616 1126.02C717.934 1131.5 713.523 1136 708 1136H141C135.477 1136 131.066 1131.5 130.384 1126.02C125.878 1089.82 97.1833 1061.12 60.9801 1056.62C55.4996 1055.93 51 1051.52 51 1046V138C51 132.477 55.4996 128.066 60.9801 127.384C97.1833 122.878 125.878 94.1833 130.384 57.9801C131.066 52.4996 135.477 48 141 48H708Z"/>
</mask>
<path d="M708 48C713.523 48 717.934 52.4996 718.616 57.9801C723.122 94.1833 751.817 122.878 788.02 127.384C793.5 128.066 798 132.477 798 138V1046C798 1051.52 793.5 1055.93 788.02 1056.62C751.817 1061.12 723.122 1089.82 718.616 1126.02C717.934 1131.5 713.523 1136 708 1136H141C135.477 1136 131.066 1131.5 130.384 1126.02C125.878 1089.82 97.1833 1061.12 60.9801 1056.62C55.4996 1055.93 51 1051.52 51 1046V138C51 132.477 55.4996 128.066 60.9801 127.384C97.1833 122.878 125.878 94.1833 130.384 57.9801C131.066 52.4996 135.477 48 141 48H708Z" fill="#DBEE71"/>
<path d="M130.384 1126.02L138.322 1125.03L130.384 1126.02ZM718.616 1126.02L710.678 1125.03L718.616 1126.02ZM788.02 1056.62L789.008 1064.56L788.02 1056.62ZM718.616 57.9801L726.555 56.9922L718.616 57.9801ZM718.616 57.9801L710.678 58.9681C715.635 98.8063 747.194 130.365 787.032 135.322L788.02 127.384L789.008 119.445C756.44 115.392 730.608 89.5603 726.555 56.9922L718.616 57.9801ZM798 138H790V1046H798H806V138H798ZM788.02 1056.62L787.032 1048.68C747.194 1053.64 715.635 1085.19 710.678 1125.03L718.616 1126.02L726.555 1127.01C730.608 1094.44 756.44 1068.61 789.008 1064.56L788.02 1056.62ZM708 1136V1128H141V1136V1144H708V1136ZM130.384 1126.02L138.322 1125.03C133.365 1085.19 101.806 1053.64 61.9681 1048.68L60.9801 1056.62L59.9922 1064.56C92.5603 1068.61 118.392 1094.44 122.445 1127.01L130.384 1126.02ZM51 1046H59V138H51H43V1046H51ZM60.9801 127.384L61.9681 135.322C101.806 130.365 133.365 98.8063 138.322 58.9681L130.384 57.9801L122.445 56.9922C118.392 89.5603 92.5603 115.392 59.9922 119.445L60.9801 127.384ZM141 48V56H708V48V40H141V48ZM130.384 57.9801L138.322 58.9681C138.438 58.0389 138.872 57.2306 139.427 56.6958C139.954 56.1887 140.494 56 141 56V48V40C130.84 40 123.547 48.1329 122.445 56.9922L130.384 57.9801ZM51 138H59C59 137.494 59.1887 136.954 59.6958 136.427C60.2306 135.872 61.0389 135.438 61.9681 135.322L60.9801 127.384L59.9922 119.445C51.1329 120.547 43 127.84 43 138H51ZM60.9801 1056.62L61.9681 1048.68C61.0389 1048.56 60.2306 1048.13 59.6958 1047.57C59.1887 1047.05 59 1046.51 59 1046H51H43C43 1056.16 51.1329 1063.45 59.9922 1064.56L60.9801 1056.62ZM141 1136V1128C140.494 1128 139.954 1127.81 139.427 1127.3C138.872 1126.77 138.438 1125.96 138.322 1125.03L130.384 1126.02L122.445 1127.01C123.547 1135.87 130.84 1144 141 1144V1136ZM718.616 1126.02L710.678 1125.03C710.562 1125.96 710.128 1126.77 709.573 1127.3C709.046 1127.81 708.506 1128 708 1128V1136V1144C718.16 1144 725.453 1135.87 726.555 1127.01L718.616 1126.02ZM798 1046H790C790 1046.51 789.811 1047.05 789.304 1047.57C788.769 1048.13 787.961 1048.56 787.032 1048.68L788.02 1056.62L789.008 1064.56C797.867 1063.45 806 1056.16 806 1046H798ZM788.02 127.384L787.032 135.322C787.961 135.438 788.769 135.872 789.304 136.427C789.811 136.954 790 137.494 790 138H798H806C806 127.84 797.867 120.547 789.008 119.445L788.02 127.384ZM718.616 57.9801L726.555 56.9922C725.453 48.1329 718.16 40 708 40V48V56C708.506 56 709.046 56.1887 709.573 56.6958C710.128 57.2306 710.562 58.0389 710.678 58.9681L718.616 57.9801Z" fill="black" mask="url(#path-6-inside-1_1_283)"/>
<path d="M690 102C695.523 102 699.911 106.512 700.837 111.957C705.019 136.563 724.437 155.981 749.043 160.163C754.488 161.089 759 165.477 759 171V1014C759 1019.52 754.488 1023.91 749.043 1024.84C724.711 1028.97 705.454 1048 700.984 1072.22C699.993 1077.59 695.633 1082 690.175 1082H158.825C153.367 1082 149.007 1077.59 148.016 1072.22C143.546 1048 124.288 1028.97 99.9568 1024.84C94.5121 1023.91 90 1019.52 90 1014V171C90 165.477 94.512 161.089 99.9568 160.163C124.563 155.981 143.981 136.563 148.163 111.957C149.089 106.512 153.477 102 159 102H690Z" fill="#DFE4C2"/>
<mask id="path-9-outside-2_1_283" maskUnits="userSpaceOnUse" x="400" y="1006" width="48" height="32" fill="black">
<rect fill="white" x="400" y="1006" width="48" height="32"/>
<path d="M400.84 1030.92V1027.48L414.28 1008.2H419.8V1026.96H423.52V1030.92H419.8V1037H415.32V1030.92H400.84ZM415.52 1012.84L406.08 1026.96H415.52V1012.84ZM432.978 1029.08C433.245 1030.41 433.818 1031.43 434.698 1032.12C435.578 1032.81 436.765 1033.16 438.258 1033.16C440.152 1033.16 441.538 1032.41 442.418 1030.92C443.298 1029.43 443.738 1026.88 443.738 1023.28C443.098 1024.19 442.192 1024.89 441.018 1025.4C439.872 1025.88 438.618 1026.12 437.258 1026.12C435.525 1026.12 433.952 1025.77 432.538 1025.08C431.125 1024.36 430.005 1023.31 429.178 1021.92C428.378 1020.51 427.978 1018.8 427.978 1016.8C427.978 1013.87 428.832 1011.53 430.538 1009.8C432.272 1008.04 434.645 1007.16 437.658 1007.16C441.285 1007.16 443.858 1008.37 445.378 1010.8C446.925 1013.2 447.698 1016.89 447.698 1021.88C447.698 1025.32 447.405 1028.13 446.818 1030.32C446.258 1032.51 445.272 1034.16 443.858 1035.28C442.445 1036.4 440.485 1036.96 437.978 1036.96C435.125 1036.96 432.925 1036.21 431.378 1034.72C429.832 1033.23 428.965 1031.35 428.778 1029.08H432.978ZM438.058 1022.28C439.658 1022.28 440.912 1021.79 441.818 1020.8C442.752 1019.79 443.218 1018.45 443.218 1016.8C443.218 1014.96 442.725 1013.53 441.738 1012.52C440.778 1011.48 439.458 1010.96 437.778 1010.96C436.098 1010.96 434.765 1011.49 433.778 1012.56C432.818 1013.6 432.338 1014.97 432.338 1016.68C432.338 1018.31 432.805 1019.65 433.738 1020.72C434.698 1021.76 436.138 1022.28 438.058 1022.28Z"/>
</mask>
<path d="M400.84 1030.92V1027.48L414.28 1008.2H419.8V1026.96H423.52V1030.92H419.8V1037H415.32V1030.92H400.84ZM415.52 1012.84L406.08 1026.96H415.52V1012.84ZM432.978 1029.08C433.245 1030.41 433.818 1031.43 434.698 1032.12C435.578 1032.81 436.765 1033.16 438.258 1033.16C440.152 1033.16 441.538 1032.41 442.418 1030.92C443.298 1029.43 443.738 1026.88 443.738 1023.28C443.098 1024.19 442.192 1024.89 441.018 1025.4C439.872 1025.88 438.618 1026.12 437.258 1026.12C435.525 1026.12 433.952 1025.77 432.538 1025.08C431.125 1024.36 430.005 1023.31 429.178 1021.92C428.378 1020.51 427.978 1018.8 427.978 1016.8C427.978 1013.87 428.832 1011.53 430.538 1009.8C432.272 1008.04 434.645 1007.16 437.658 1007.16C441.285 1007.16 443.858 1008.37 445.378 1010.8C446.925 1013.2 447.698 1016.89 447.698 1021.88C447.698 1025.32 447.405 1028.13 446.818 1030.32C446.258 1032.51 445.272 1034.16 443.858 1035.28C442.445 1036.4 440.485 1036.96 437.978 1036.96C435.125 1036.96 432.925 1036.21 431.378 1034.72C429.832 1033.23 428.965 1031.35 428.778 1029.08H432.978ZM438.058 1022.28C439.658 1022.28 440.912 1021.79 441.818 1020.8C442.752 1019.79 443.218 1018.45 443.218 1016.8C443.218 1014.96 442.725 1013.53 441.738 1012.52C440.778 1011.48 439.458 1010.96 437.778 1010.96C436.098 1010.96 434.765 1011.49 433.778 1012.56C432.818 1013.6 432.338 1014.97 432.338 1016.68C432.338 1018.31 432.805 1019.65 433.738 1020.72C434.698 1021.76 436.138 1022.28 438.058 1022.28Z" fill="black"/>
<path d="M400.84 1030.92H400.54V1031.22H400.84V1030.92ZM400.84 1027.48L400.594 1027.31L400.54 1027.39V1027.48H400.84ZM414.28 1008.2V1007.9H414.123L414.034 1008.03L414.28 1008.2ZM419.8 1008.2H420.1V1007.9H419.8V1008.2ZM419.8 1026.96H419.5V1027.26H419.8V1026.96ZM423.52 1026.96H423.82V1026.66H423.52V1026.96ZM423.52 1030.92V1031.22H423.82V1030.92H423.52ZM419.8 1030.92V1030.62H419.5V1030.92H419.8ZM419.8 1037V1037.3H420.1V1037H419.8ZM415.32 1037H415.02V1037.3H415.32V1037ZM415.32 1030.92H415.62V1030.62H415.32V1030.92ZM415.52 1012.84H415.82V1011.85L415.271 1012.67L415.52 1012.84ZM406.08 1026.96L405.831 1026.79L405.519 1027.26H406.08V1026.96ZM415.52 1026.96V1027.26H415.82V1026.96H415.52ZM400.84 1030.92H401.14V1027.48H400.84H400.54V1030.92H400.84ZM400.84 1027.48L401.086 1027.65L414.526 1008.37L414.28 1008.2L414.034 1008.03L400.594 1027.31L400.84 1027.48ZM414.28 1008.2V1008.5H419.8V1008.2V1007.9H414.28V1008.2ZM419.8 1008.2H419.5V1026.96H419.8H420.1V1008.2H419.8ZM419.8 1026.96V1027.26H423.52V1026.96V1026.66H419.8V1026.96ZM423.52 1026.96H423.22V1030.92H423.52H423.82V1026.96H423.52ZM423.52 1030.92V1030.62H419.8V1030.92V1031.22H423.52V1030.92ZM419.8 1030.92H419.5V1037H419.8H420.1V1030.92H419.8ZM419.8 1037V1036.7H415.32V1037V1037.3H419.8V1037ZM415.32 1037H415.62V1030.92H415.32H415.02V1037H415.32ZM415.32 1030.92V1030.62H400.84V1030.92V1031.22H415.32V1030.92ZM415.52 1012.84L415.271 1012.67L405.831 1026.79L406.08 1026.96L406.329 1027.13L415.769 1013.01L415.52 1012.84ZM406.08 1026.96V1027.26H415.52V1026.96V1026.66H406.08V1026.96ZM415.52 1026.96H415.82V1012.84H415.52H415.22V1026.96H415.52ZM432.978 1029.08L433.273 1029.02L433.224 1028.78H432.978V1029.08ZM434.698 1032.12L434.513 1032.36L434.698 1032.12ZM442.418 1030.92L442.16 1030.77L442.418 1030.92ZM443.738 1023.28H444.038V1022.33L443.493 1023.11L443.738 1023.28ZM441.018 1025.4L441.134 1025.68L441.137 1025.68L441.018 1025.4ZM432.538 1025.08L432.402 1025.35L432.406 1025.35L432.538 1025.08ZM429.178 1021.92L428.917 1022.07L428.921 1022.07L429.178 1021.92ZM430.538 1009.8L430.325 1009.59L430.325 1009.59L430.538 1009.8ZM445.378 1010.8L445.124 1010.96L445.126 1010.96L445.378 1010.8ZM446.818 1030.32L446.529 1030.24L446.528 1030.25L446.818 1030.32ZM443.858 1035.28L444.045 1035.52L443.858 1035.28ZM431.378 1034.72L431.17 1034.94L431.378 1034.72ZM428.778 1029.08V1028.78H428.453L428.479 1029.1L428.778 1029.08ZM441.818 1020.8L441.598 1020.6L441.598 1020.6L441.818 1020.8ZM441.738 1012.52L441.518 1012.72L441.523 1012.73L441.738 1012.52ZM433.778 1012.56L433.558 1012.36L433.558 1012.36L433.778 1012.56ZM433.738 1020.72L433.513 1020.92L433.518 1020.92L433.738 1020.72ZM432.978 1029.08L432.684 1029.14C432.962 1030.53 433.565 1031.61 434.513 1032.36L434.698 1032.12L434.884 1031.88C434.071 1031.24 433.528 1030.3 433.273 1029.02L432.978 1029.08ZM434.698 1032.12L434.513 1032.36C435.461 1033.1 436.72 1033.46 438.258 1033.46V1033.16V1032.86C436.81 1032.86 435.696 1032.52 434.884 1031.88L434.698 1032.12ZM438.258 1033.16V1033.46C440.246 1033.46 441.737 1032.67 442.677 1031.07L442.418 1030.92L442.16 1030.77C441.34 1032.16 440.057 1032.86 438.258 1032.86V1033.16ZM442.418 1030.92L442.677 1031.07C443.601 1029.5 444.038 1026.89 444.038 1023.28H443.738H443.438C443.438 1026.87 442.996 1029.35 442.16 1030.77L442.418 1030.92ZM443.738 1023.28L443.493 1023.11C442.89 1023.96 442.03 1024.64 440.9 1025.12L441.018 1025.4L441.137 1025.68C442.354 1025.15 443.307 1024.41 443.984 1023.45L443.738 1023.28ZM441.018 1025.4L440.903 1025.12C439.796 1025.59 438.582 1025.82 437.258 1025.82V1026.12V1026.42C438.654 1026.42 439.948 1026.17 441.134 1025.68L441.018 1025.4ZM437.258 1026.12V1025.82C435.566 1025.82 434.039 1025.48 432.671 1024.81L432.538 1025.08L432.406 1025.35C433.865 1026.06 435.484 1026.42 437.258 1026.42V1026.12ZM432.538 1025.08L432.675 1024.81C431.313 1024.12 430.234 1023.11 429.436 1021.77L429.178 1021.92L428.921 1022.07C429.776 1023.51 430.938 1024.6 432.402 1025.35L432.538 1025.08ZM429.178 1021.92L429.44 1021.77C428.67 1020.41 428.278 1018.76 428.278 1016.8H427.978H427.678C427.678 1018.84 428.087 1020.6 428.917 1022.07L429.178 1021.92ZM427.978 1016.8H428.278C428.278 1013.93 429.112 1011.68 430.752 1010.01L430.538 1009.8L430.325 1009.59C428.552 1011.39 427.678 1013.81 427.678 1016.8H427.978ZM430.538 1009.8L430.752 1010.01C432.417 1008.32 434.707 1007.46 437.658 1007.46V1007.16V1006.86C434.584 1006.86 432.126 1007.76 430.325 1009.59L430.538 1009.8ZM437.658 1007.16V1007.46C441.213 1007.46 443.674 1008.64 445.124 1010.96L445.378 1010.8L445.633 1010.64C444.043 1008.1 441.357 1006.86 437.658 1006.86V1007.16ZM445.378 1010.8L445.126 1010.96C446.626 1013.29 447.398 1016.91 447.398 1021.88H447.698H447.998C447.998 1016.87 447.224 1013.11 445.631 1010.64L445.378 1010.8ZM447.698 1021.88H447.398C447.398 1025.31 447.106 1028.09 446.529 1030.24L446.818 1030.32L447.108 1030.4C447.704 1028.18 447.998 1025.33 447.998 1021.88H447.698ZM446.818 1030.32L446.528 1030.25C445.98 1032.38 445.022 1033.97 443.672 1035.04L443.858 1035.28L444.045 1035.52C445.521 1034.35 446.537 1032.63 447.109 1030.39L446.818 1030.32ZM443.858 1035.28L443.672 1035.04C442.329 1036.11 440.443 1036.66 437.978 1036.66V1036.96V1037.26C440.527 1037.26 442.561 1036.69 444.045 1035.52L443.858 1035.28ZM437.978 1036.96V1036.66C435.177 1036.66 433.061 1035.93 431.587 1034.5L431.378 1034.72L431.17 1034.94C432.789 1036.5 435.074 1037.26 437.978 1037.26V1036.96ZM431.378 1034.72L431.587 1034.5C430.096 1033.06 429.258 1031.25 429.077 1029.06L428.778 1029.08L428.479 1029.1C428.672 1031.44 429.568 1033.39 431.17 1034.94L431.378 1034.72ZM428.778 1029.08V1029.38H432.978V1029.08V1028.78H428.778V1029.08ZM438.058 1022.28V1022.58C439.725 1022.58 441.065 1022.06 442.039 1021L441.818 1020.8L441.598 1020.6C440.759 1021.51 439.592 1021.98 438.058 1021.98V1022.28ZM441.818 1020.8L442.039 1021C443.033 1019.92 443.518 1018.51 443.518 1016.8H443.218H442.918C442.918 1018.39 442.47 1019.65 441.598 1020.6L441.818 1020.8ZM443.218 1016.8H443.518C443.518 1014.91 443.01 1013.4 441.953 1012.31L441.738 1012.52L441.523 1012.73C442.441 1013.67 442.918 1015.01 442.918 1016.8H443.218ZM441.738 1012.52L441.959 1012.32C440.931 1011.2 439.525 1010.66 437.778 1010.66V1010.96V1011.26C439.392 1011.26 440.625 1011.76 441.518 1012.72L441.738 1012.52ZM437.778 1010.96V1010.66C436.029 1010.66 434.611 1011.22 433.558 1012.36L433.778 1012.56L433.999 1012.76C434.92 1011.77 436.168 1011.26 437.778 1011.26V1010.96ZM433.778 1012.56L433.558 1012.36C432.537 1013.46 432.038 1014.91 432.038 1016.68H432.338H432.638C432.638 1015.03 433.1 1013.74 433.999 1012.76L433.778 1012.56ZM432.338 1016.68H432.038C432.038 1018.37 432.524 1019.79 433.513 1020.92L433.738 1020.72L433.964 1020.52C433.086 1019.52 432.638 1018.25 432.638 1016.68H432.338ZM433.738 1020.72L433.518 1020.92C434.553 1022.04 436.086 1022.58 438.058 1022.58V1022.28V1021.98C436.191 1021.98 434.844 1021.48 433.959 1020.52L433.738 1020.72Z" fill="black" mask="url(#path-9-outside-2_1_283)"/>
<path d="M244.36 234.83C244.36 227.55 245.865 221.075 248.875 215.405C251.955 209.665 256.295 205.22 261.895 202.07C267.495 198.85 273.935 197.24 281.215 197.24C290.455 197.24 298.225 199.725 304.525 204.695C310.825 209.595 314.885 216.28 316.705 224.75H294.55C293.22 221.95 291.365 219.815 288.985 218.345C286.675 216.875 283.98 216.14 280.9 216.14C276.14 216.14 272.325 217.855 269.455 221.285C266.655 224.645 265.255 229.16 265.255 234.83C265.255 240.57 266.655 245.155 269.455 248.585C272.325 251.945 276.14 253.625 280.9 253.625C283.98 253.625 286.675 252.89 288.985 251.42C291.365 249.95 293.22 247.815 294.55 245.015H316.705C314.885 253.485 310.825 260.205 304.525 265.175C298.225 270.075 290.455 272.525 281.215 272.525C273.935 272.525 267.495 270.95 261.895 267.8C256.295 264.58 251.955 260.135 248.875 254.465C245.865 248.725 244.36 242.18 244.36 234.83ZM353.855 272.735C347.975 272.735 342.69 271.51 338 269.06C333.38 266.61 329.74 263.11 327.08 258.56C324.42 254.01 323.09 248.655 323.09 242.495C323.09 236.405 324.42 231.085 327.08 226.535C329.81 221.985 333.485 218.485 338.105 216.035C342.795 213.585 348.08 212.36 353.96 212.36C359.84 212.36 365.09 213.585 369.71 216.035C374.4 218.485 378.075 221.985 380.735 226.535C383.465 231.085 384.83 236.405 384.83 242.495C384.83 248.585 383.465 253.94 380.735 258.56C378.075 263.11 374.4 266.61 369.71 269.06C365.02 271.51 359.735 272.735 353.855 272.735ZM353.855 254.885C356.725 254.885 359.105 253.835 360.995 251.735C362.955 249.565 363.935 246.485 363.935 242.495C363.935 238.505 362.955 235.46 360.995 233.36C359.105 231.26 356.76 230.21 353.96 230.21C351.16 230.21 348.815 231.26 346.925 233.36C345.035 235.46 344.09 238.505 344.09 242.495C344.09 246.555 345 249.635 346.82 251.735C348.64 253.835 350.985 254.885 353.855 254.885ZM470.168 212.57C477.588 212.57 483.398 214.81 487.598 219.29C491.868 223.77 494.003 229.895 494.003 237.665V272H473.423V240.395C473.423 237.245 472.548 234.795 470.798 233.045C469.048 231.295 466.668 230.42 463.658 230.42C460.648 230.42 458.268 231.295 456.518 233.045C454.768 234.795 453.893 237.245 453.893 240.395V272H433.313V240.395C433.313 237.245 432.438 234.795 430.688 233.045C429.008 231.295 426.663 230.42 423.653 230.42C420.573 230.42 418.158 231.295 416.408 233.045C414.658 234.795 413.783 237.245 413.783 240.395V272H393.203V213.095H413.783V220.865C415.603 218.345 417.948 216.35 420.818 214.88C423.758 213.34 427.118 212.57 430.898 212.57C435.238 212.57 439.088 213.515 442.448 215.405C445.878 217.295 448.573 219.955 450.533 223.385C452.633 220.165 455.398 217.575 458.828 215.615C462.258 213.585 466.038 212.57 470.168 212.57ZM561.558 241.865C561.558 243.475 561.453 245.085 561.243 246.695H522.288C522.498 249.915 523.373 252.33 524.913 253.94C526.523 255.48 528.553 256.25 531.003 256.25C534.433 256.25 536.883 254.71 538.353 251.63H560.298C559.388 255.69 557.603 259.33 554.943 262.55C552.353 265.7 549.063 268.185 545.073 270.005C541.083 271.825 536.673 272.735 531.843 272.735C526.033 272.735 520.853 271.51 516.303 269.06C511.823 266.61 508.288 263.11 505.698 258.56C503.178 254.01 501.918 248.655 501.918 242.495C501.918 236.335 503.178 231.015 505.698 226.535C508.218 221.985 511.718 218.485 516.198 216.035C520.748 213.585 525.963 212.36 531.843 212.36C537.653 212.36 542.798 213.55 547.278 215.93C551.758 218.31 555.258 221.74 557.778 226.22C560.298 230.63 561.558 235.845 561.558 241.865ZM540.558 236.72C540.558 234.2 539.718 232.24 538.038 230.84C536.358 229.37 534.258 228.635 531.738 228.635C529.218 228.635 527.153 229.335 525.543 230.735C523.933 232.065 522.883 234.06 522.393 236.72H540.558ZM604.736 254.465V272H595.811C580.761 272 573.236 264.545 573.236 249.635V230.21H565.991V213.095H573.236V198.815H593.921V213.095H604.631V230.21H593.921V249.95C593.921 251.56 594.271 252.715 594.971 253.415C595.741 254.115 597.001 254.465 598.751 254.465H604.736Z" fill="black"/>
<path d="M718.455 342.115C723.338 341.331 728.254 344.631 729.265 349.505C730.842 357.113 719.018 367.557 714.608 372.818C664.119 433.048 606.223 501.013 564.636 567.964C572.328 559.921 581.361 553.767 589.362 546.133C619.898 517.004 661.852 477.183 688.135 445.235C654.452 519.941 608.386 586.442 560.749 652.743C548.593 669.661 537.014 687.15 525.476 704.497L463.551 799.253C429.82 850.501 395.511 905.286 336.747 930.152C298.208 946.458 254.941 945.505 216.476 929.924C141.678 899.054 104.495 814.594 126.641 737.729C140.369 690.082 178.596 659.316 216.668 630.729C273.556 588.011 333.649 554.466 391.058 514.583C424.046 491.667 456.17 466.781 489.295 443.62L513.277 427.139C517.885 424.022 522.467 420.648 527.337 417.958C498.81 442.573 464.785 478.189 446.41 510.059C519.612 452.381 600.924 392.452 686.826 354.772C695.884 350.799 709.021 343.793 718.455 342.115Z" fill="#010000"/>
<path d="M647.676 396.023C635.796 403.716 624.931 414.433 614.341 423.82C559.608 472.344 503.263 532.76 464.132 594.885C473 586.509 481.568 577.147 490.067 568.364L523.379 534.52C563.729 493.636 618.298 440.623 664.195 405.274C659.756 411.716 654.181 417.666 649.243 423.752C629.767 447.752 497.018 619.678 494.125 645.231C493.596 649.902 497.829 654.419 502.518 654.414C507.935 654.409 520.011 636.45 523.786 632.387C545.123 609.41 566.973 586.737 589.57 564.991C597.003 556.442 611.499 542.202 620.099 534.834C586.295 586 549.981 635.447 515.826 686.393L446.933 791.327C435.525 808.68 416.818 839.283 403.168 854.368C397.836 862.81 366.358 898.248 355.243 898.501C329.624 919.991 289.608 927.387 257.192 922.895C179.456 912.119 128.948 839.097 140.097 762.652C143.64 738.356 154.986 708.366 175.213 693.281C177.345 685.347 197.548 668.962 204.611 663.969C211.404 656.937 227.756 644.453 236.228 639.157C275.241 609.682 319.55 582.092 361.005 555.318C384.529 540.127 407.632 526.314 429.361 508.406C420.832 529.83 411.1 537.244 395.1 552.522C390.119 557.277 379.664 565.705 381.906 573.713C386.401 589.762 407.673 564.943 411.919 561.154C419.933 554.001 428.518 547.323 436.9 540.604C494.18 494.685 558.299 445.575 622.325 409.572C630.755 404.832 638.374 398.992 647.676 396.023Z" fill="#1E1F62"/>
<path d="M164.259 802.259C166.143 798.962 164.252 792.887 164.166 789.163C162.217 705.427 246.611 650.094 322.149 683.864C413.371 724.645 405.02 859.609 316.144 892.989C309.868 895.346 297.361 900.337 291.289 901.627C258.538 902.399 228.122 895.339 202.717 872.898C184.048 856.409 165.793 827.463 164.259 802.259Z" fill="#010000"/>
<path d="M240.996 875.142C204.346 860.696 180.561 824.966 181.378 785.58C182.194 746.194 207.44 711.478 244.657 698.564C281.872 685.649 323.195 697.265 348.233 727.678C375.512 760.813 376.934 808.204 351.692 842.916C326.448 877.63 280.927 890.883 240.996 875.142Z" fill="#7A6C86"/>
<path d="M331.538 804.773C334.444 791.707 336.145 777.208 332.524 764.094C329.266 752.288 320.438 739.522 334.47 728.924C338.976 725.519 343.197 727.213 348.238 727.675C375.518 760.811 376.94 808.201 351.698 842.914C326.454 877.627 280.933 890.88 241.001 875.139C249.422 861.157 326.279 835.403 323.044 815.817C324.712 814.736 325.953 813.108 326.554 811.212L327.907 811.528C328.804 809.161 330.272 806.962 331.538 804.773Z" fill="#4B3D47"/>
<path d="M331.531 804.757C352.915 792.225 367.913 820.849 349.316 831.214C335.598 838.858 325.802 825.918 327.901 811.511C328.797 809.145 330.266 806.946 331.531 804.757Z" fill="#010000"/>
<path d="M318.896 844.689C326.688 843.968 327.213 849.402 323.067 854.38C315.501 856.04 313.761 848.903 318.896 844.689Z" fill="#010000"/>
<path d="M323.045 815.817C319.547 818.087 314.924 817.512 312.088 814.455C309.252 811.398 309.028 806.744 311.554 803.426C314.081 800.108 318.628 799.089 322.328 801.01C326.029 802.931 327.812 807.237 326.554 811.212C325.954 813.108 324.713 814.736 323.045 815.817Z" fill="#010000"/>
<path d="M289.484 741.976C301.668 740.205 313.003 748.592 314.87 760.764C316.737 772.935 308.439 784.334 296.283 786.297C283.99 788.281 272.436 779.87 270.549 767.563C268.661 755.255 277.163 743.768 289.484 741.976Z" fill="#010000"/>
<path d="M230.218 807.248C240.142 807.184 248.253 815.152 248.363 825.076C248.473 835 240.54 843.147 230.617 843.3C220.631 843.454 212.422 835.461 212.312 825.475C212.202 815.49 220.231 807.317 230.218 807.248Z" fill="#010000"/>
<path d="M276.219 818.468C282.475 817.165 288.621 821.119 290.03 827.354C291.437 833.588 287.585 839.798 281.374 841.31C277.265 842.309 272.936 841.016 270.048 837.924C267.161 834.832 266.166 830.424 267.445 826.391C268.724 822.36 272.077 819.331 276.219 818.468Z" fill="#010000"/>
<path d="M304.821 728.281C304.811 724.88 306.704 721.757 309.724 720.19C312.743 718.623 316.385 718.874 319.163 720.84C321.939 722.808 323.384 726.161 322.908 729.529C324.317 731.546 323.507 733.84 323.06 736.047C320.864 738.655 318.027 740.278 314.985 741.685C308.43 739.425 304.011 735.681 304.821 728.281Z" fill="#FEDE04"/>
<path d="M304.821 728.269C304.834 733.305 308.939 737.368 313.974 737.333C318.478 737.3 322.278 733.975 322.908 729.516C324.317 731.533 323.507 733.827 323.06 736.034C320.864 738.642 318.027 740.265 314.985 741.672C308.43 739.412 304.011 735.668 304.821 728.269Z" fill="#6B3A01"/>
<path d="M213.972 731.155C209.723 720.467 228.921 715.686 228.956 731.155C229.55 741.595 216.384 740.888 213.972 731.155Z" fill="#FEDE04"/>
<path d="M228.965 731.156C229.559 741.596 216.394 740.889 213.982 731.156C218.794 738.185 224.076 737.621 228.965 731.156Z" fill="#6B3A01"/>
<path d="M246.799 718.577C250.093 717.689 253.485 719.628 254.393 722.916C255.302 726.204 253.384 729.609 250.101 730.537C246.789 731.473 243.35 729.535 242.434 726.217C241.517 722.901 243.476 719.473 246.799 718.577Z" fill="#010000"/>
<path d="M239.26 764.661C241.959 763.814 244.83 765.328 245.658 768.032C246.488 770.735 244.958 773.597 242.248 774.41C239.564 775.215 236.73 773.702 235.908 771.021C235.087 768.34 236.584 765.499 239.26 764.661Z" fill="#010000"/>
<path d="M204.622 775.03C206.267 774.37 208.141 774.644 209.527 775.752C210.912 776.858 211.596 778.624 211.315 780.374C211.034 782.125 209.833 783.589 208.17 784.208C205.646 785.146 202.839 783.882 201.868 781.37C200.896 778.859 202.124 776.035 204.622 775.03Z" fill="#010000"/>
<path d="M647.682 396.023C635.802 403.716 624.936 414.433 614.347 423.82C559.614 472.344 503.269 532.76 464.137 594.885C473.005 586.51 481.574 577.148 490.073 568.364L523.385 534.52C563.735 493.636 618.304 440.623 664.201 405.274C659.762 411.716 654.187 417.666 649.249 423.752C629.773 447.752 497.023 619.679 494.131 645.232C493.602 649.902 497.835 654.419 502.523 654.414C507.94 654.409 520.017 636.45 523.792 632.387C545.129 609.41 566.978 586.737 589.576 564.991C597.008 556.443 611.505 542.202 620.105 534.834C586.301 586.001 549.987 635.447 515.832 686.394L446.938 791.327C435.531 808.681 416.823 839.284 403.174 854.369C404.132 849.045 407.717 843.245 409.76 838.199C416.246 822.176 444.821 758.49 444.582 750.88C444.214 739.212 422.161 764.126 417.964 753.66C410.894 736.023 463.366 669.063 455.703 653.162C449.146 639.55 409.336 666.204 400.145 671.43C395.671 673.975 385.306 680.854 381.787 673.191C375.696 659.928 420.654 617.708 414.186 606.335C404.401 589.131 339.797 655.38 317.149 649.483C302.884 645.769 334.549 605.397 337.442 597.863L337.648 597.312C325.518 602.114 314.769 610.617 303.689 617.397C282.214 630.534 229.671 659.693 204.617 663.969C211.41 656.937 227.762 644.453 236.234 639.158C275.247 609.683 319.556 582.092 361.011 555.318C384.534 540.127 407.638 526.314 429.367 508.406C420.838 529.83 411.105 537.244 395.106 552.522C390.124 557.277 379.67 565.705 381.912 573.713C386.407 589.763 407.679 564.943 411.925 561.154C419.939 554.001 428.524 547.323 436.906 540.604C494.186 494.685 558.305 445.575 622.33 409.572C630.761 404.832 638.38 398.992 647.682 396.023Z" fill="#FEDE04"/>
<path d="M589.576 564.994C597.009 556.445 611.505 542.205 620.105 534.837C586.301 586.003 549.987 635.45 515.832 686.396L446.939 791.33C435.531 808.684 416.824 839.286 403.174 854.371C404.132 849.047 407.718 843.248 409.76 838.202C416.246 822.179 444.821 758.492 444.582 750.883C444.214 739.214 422.161 764.129 417.964 753.662C410.894 736.026 463.366 669.066 455.704 653.164C449.146 639.553 409.336 666.207 400.145 671.433C395.671 673.977 385.306 680.856 381.787 673.194C375.697 659.93 420.654 617.71 414.186 606.337C404.401 589.133 339.797 655.383 317.149 649.485C302.884 645.771 334.55 605.399 337.442 597.865L337.648 597.314C325.518 602.116 314.769 610.62 303.689 617.399C282.214 630.537 229.671 659.696 204.617 663.972C211.41 656.94 227.762 644.456 236.234 639.16C247.298 644.386 339.341 573.411 368.42 564.994C363.284 572.209 359.05 580.016 354.408 587.548C353.019 589.802 335.195 615.197 340.02 616.775C350.904 620.338 394.166 588.41 404.677 581.514C409.298 578.484 455.433 544.896 459.286 555.931C464.42 570.632 405.662 640.301 408.617 649.517C413.522 651.607 472.407 604.486 488.116 606.869C503.289 609.171 466.864 681.796 460.191 697.31C458.897 700.317 443.84 734.537 452.078 734.891C464.499 735.425 473.332 720.852 479.886 712.287L496.985 690.06C508.413 675.343 589.571 572.54 589.576 564.994Z" fill="#F05B0E"/>
<path d="M175.213 693.293C185.378 686.17 196.962 678.085 208.222 672.893C180.144 700.139 159.888 725.557 159.238 767.684C159.06 779.173 159.358 791.714 164.262 802.272C165.796 827.476 184.051 856.422 202.72 872.91C228.125 895.352 258.541 902.412 291.293 901.64C325.181 902.826 358.862 886.196 381.167 861.207C386.622 855.093 390.724 847.958 396.074 841.844L396.359 841.526C387.858 863.924 372.451 882.336 355.243 898.513C329.624 920.003 289.608 927.4 257.192 922.907C179.456 912.132 128.948 839.11 140.097 762.665C143.64 738.369 154.986 708.378 175.213 693.293Z" fill="#5473FC"/>
<path d="M627.446 733.193C636.049 735.247 628.028 753.689 649.837 759.571C674.629 766.261 645.573 770.193 640.236 775.026C632.089 782.404 632.633 795.267 629.116 798.191C623.406 797.284 623.597 792.112 622.242 787.33C616.84 768.257 598.127 770.883 596.609 764.737C597.733 760.854 609.389 758.861 613.888 756.079C624.04 749.795 621.364 736.719 627.446 733.193Z" fill="#FEAF1D"/>
<path d="M627.45 755.494C630.534 758.026 632.084 762.032 636.569 765.24C633.383 768.322 630.376 771.437 627.45 774.77C625.599 773.511 621.568 767.338 620.104 765.24C622.521 761.942 625.227 758.945 627.45 755.494Z" fill="#FEDE04"/>
<path d="M350.671 368.777C354.646 371.897 356.233 386.958 360.918 391.392C366.799 396.959 377.497 400.017 384.662 403.999C355.508 418.059 364.63 409.328 350.671 435.809C348.611 437.949 344.167 423.92 343.595 422.527C338.166 409.319 329.705 409.206 317.207 403.999C325.351 398.924 338.992 397.112 343.097 387.525C345.67 381.516 347.014 375.073 350.327 369.364L350.671 368.777Z" fill="#FEAF1D"/>
<path d="M350.671 396.023C358.899 397.479 360.722 406.407 352.283 409.706C342.573 410.347 342.492 399.691 350.671 396.023Z" fill="#FEDE04"/>
<path d="M140.981 567.972C145.433 572.334 144.385 580.464 149.712 584.312C153.932 587.363 159.608 588.906 164.264 591.311C142.346 604.796 154.311 591.102 141.209 614.609L140.981 615.01C131.262 596.351 139.91 602.376 118 591.311C123.15 588.078 129.184 586.781 134.351 583.469C137.627 578.708 137.941 572.78 140.981 567.972ZM143.181 594.899C146.47 590.731 143.419 588.707 138.843 588.346C138.133 591.122 137.836 595.15 141.454 595.602L143.181 594.899Z" fill="#FEAF1D"/>
<path d="M673.513 597.583C676.399 596.733 679.518 597.5 681.68 599.59C683.84 601.681 684.712 604.773 683.958 607.683C683.203 610.596 680.943 612.877 678.039 613.656C673.623 614.842 669.074 612.255 667.835 607.855C666.598 603.454 669.128 598.875 673.513 597.583Z" fill="#FEDE04"/>
<path d="M480.472 877.531C491.559 878.709 492.194 892.059 481.926 894.677C470.416 893.839 470.752 880.824 480.472 877.531Z" fill="#FEDE04"/>
<path d="M224.657 503.801C235.714 504.739 235.478 516.398 224.657 518.119C212.501 516.024 212.047 506.186 224.657 503.801Z" fill="#FEDE04"/>
</svg>
