<svg width="849" height="1183" viewBox="0 0 849 1183" fill="none" xmlns="http://www.w3.org/2000/svg">
<rect x="5" y="5" width="839" height="1173" rx="45" fill="white"/>
<rect x="5" y="5" width="839" height="1173" rx="45" stroke="black" stroke-width="10"/>
<circle cx="786.5" cy="1124.5" r="11.5" fill="black"/>
<circle cx="786.5" cy="59.5" r="11.5" fill="black"/>
<path d="M77 1124.5C77 1130.85 71.8513 1136 65.5 1136C59.1487 1136 54 1130.85 54 1124.5C54 1118.15 59.1487 1113 65.5 1113C71.8513 1113 77 1118.15 77 1124.5Z" fill="black"/>
<path d="M77 59.5C77 65.8513 71.8513 71 65.5 71C59.1487 71 54 65.8513 54 59.5C54 53.1487 59.1487 48 65.5 48C71.8513 48 77 53.1487 77 59.5Z" fill="black"/>
<mask id="path-6-inside-1_1_645" fill="white">
<path d="M708 48C713.523 48 717.934 52.4996 718.616 57.9801C723.122 94.1833 751.817 122.878 788.02 127.384C793.5 128.066 798 132.477 798 138V1046C798 1051.52 793.5 1055.93 788.02 1056.62C751.817 1061.12 723.122 1089.82 718.616 1126.02C717.934 1131.5 713.523 1136 708 1136H141C135.477 1136 131.066 1131.5 130.384 1126.02C125.878 1089.82 97.1833 1061.12 60.9801 1056.62C55.4996 1055.93 51 1051.52 51 1046V138C51 132.477 55.4996 128.066 60.9801 127.384C97.1833 122.878 125.878 94.1833 130.384 57.9801C131.066 52.4996 135.477 48 141 48H708Z"/>
</mask>
<path d="M708 48C713.523 48 717.934 52.4996 718.616 57.9801C723.122 94.1833 751.817 122.878 788.02 127.384C793.5 128.066 798 132.477 798 138V1046C798 1051.52 793.5 1055.93 788.02 1056.62C751.817 1061.12 723.122 1089.82 718.616 1126.02C717.934 1131.5 713.523 1136 708 1136H141C135.477 1136 131.066 1131.5 130.384 1126.02C125.878 1089.82 97.1833 1061.12 60.9801 1056.62C55.4996 1055.93 51 1051.52 51 1046V138C51 132.477 55.4996 128.066 60.9801 127.384C97.1833 122.878 125.878 94.1833 130.384 57.9801C131.066 52.4996 135.477 48 141 48H708Z" fill="#DBEE71"/>
<path d="M130.384 1126.02L138.322 1125.03L130.384 1126.02ZM718.616 1126.02L710.678 1125.03L718.616 1126.02ZM788.02 1056.62L789.008 1064.56L788.02 1056.62ZM718.616 57.9801L726.555 56.9922L718.616 57.9801ZM718.616 57.9801L710.678 58.9681C715.635 98.8063 747.194 130.365 787.032 135.322L788.02 127.384L789.008 119.445C756.44 115.392 730.608 89.5603 726.555 56.9922L718.616 57.9801ZM798 138H790V1046H798H806V138H798ZM788.02 1056.62L787.032 1048.68C747.194 1053.64 715.635 1085.19 710.678 1125.03L718.616 1126.02L726.555 1127.01C730.608 1094.44 756.44 1068.61 789.008 1064.56L788.02 1056.62ZM708 1136V1128H141V1136V1144H708V1136ZM130.384 1126.02L138.322 1125.03C133.365 1085.19 101.806 1053.64 61.9681 1048.68L60.9801 1056.62L59.9922 1064.56C92.5603 1068.61 118.392 1094.44 122.445 1127.01L130.384 1126.02ZM51 1046H59V138H51H43V1046H51ZM60.9801 127.384L61.9681 135.322C101.806 130.365 133.365 98.8063 138.322 58.9681L130.384 57.9801L122.445 56.9922C118.392 89.5603 92.5603 115.392 59.9922 119.445L60.9801 127.384ZM141 48V56H708V48V40H141V48ZM130.384 57.9801L138.322 58.9681C138.438 58.0389 138.872 57.2306 139.427 56.6958C139.954 56.1887 140.494 56 141 56V48V40C130.84 40 123.547 48.1329 122.445 56.9922L130.384 57.9801ZM51 138H59C59 137.494 59.1887 136.954 59.6958 136.427C60.2306 135.872 61.0389 135.438 61.9681 135.322L60.9801 127.384L59.9922 119.445C51.1329 120.547 43 127.84 43 138H51ZM60.9801 1056.62L61.9681 1048.68C61.0389 1048.56 60.2306 1048.13 59.6958 1047.57C59.1887 1047.05 59 1046.51 59 1046H51H43C43 1056.16 51.1329 1063.45 59.9922 1064.56L60.9801 1056.62ZM141 1136V1128C140.494 1128 139.954 1127.81 139.427 1127.3C138.872 1126.77 138.438 1125.96 138.322 1125.03L130.384 1126.02L122.445 1127.01C123.547 1135.87 130.84 1144 141 1144V1136ZM718.616 1126.02L710.678 1125.03C710.562 1125.96 710.128 1126.77 709.573 1127.3C709.046 1127.81 708.506 1128 708 1128V1136V1144C718.16 1144 725.453 1135.87 726.555 1127.01L718.616 1126.02ZM798 1046H790C790 1046.51 789.811 1047.05 789.304 1047.57C788.769 1048.13 787.961 1048.56 787.032 1048.68L788.02 1056.62L789.008 1064.56C797.867 1063.45 806 1056.16 806 1046H798ZM788.02 127.384L787.032 135.322C787.961 135.438 788.769 135.872 789.304 136.427C789.811 136.954 790 137.494 790 138H798H806C806 127.84 797.867 120.547 789.008 119.445L788.02 127.384ZM718.616 57.9801L726.555 56.9922C725.453 48.1329 718.16 40 708 40V48V56C708.506 56 709.046 56.1887 709.573 56.6958C710.128 57.2306 710.562 58.0389 710.678 58.9681L718.616 57.9801Z" fill="black" mask="url(#path-6-inside-1_1_645)"/>
<path d="M690 102C695.523 102 699.911 106.512 700.837 111.957C705.019 136.563 724.437 155.981 749.043 160.163C754.488 161.089 759 165.477 759 171V1014C759 1019.52 754.488 1023.91 749.043 1024.84C724.711 1028.97 705.454 1048 700.984 1072.22C699.993 1077.59 695.633 1082 690.175 1082H158.825C153.367 1082 149.007 1077.59 148.016 1072.22C143.546 1048 124.288 1028.97 99.9568 1024.84C94.5121 1023.91 90 1019.52 90 1014V171C90 165.477 94.512 161.089 99.9568 160.163C124.563 155.981 143.981 136.563 148.163 111.957C149.089 106.512 153.477 102 159 102H690Z" fill="#DFE4C2"/>
<path d="M304.46 214.46V226.535H328.085V242.18H304.46V255.515H331.235V272H283.88V197.975H331.235V214.46H304.46ZM338.044 242.495C338.044 236.405 339.129 231.085 341.299 226.535C343.539 221.985 346.549 218.485 350.329 216.035C354.179 213.585 358.449 212.36 363.139 212.36C367.199 212.36 370.699 213.165 373.639 214.775C376.579 216.385 378.854 218.555 380.464 221.285V213.095H401.044V272H380.464V263.81C378.854 266.54 376.544 268.71 373.534 270.32C370.594 271.93 367.129 272.735 363.139 272.735C358.449 272.735 354.179 271.51 350.329 269.06C346.549 266.61 343.539 263.11 341.299 258.56C339.129 253.94 338.044 248.585 338.044 242.495ZM380.464 242.495C380.464 238.715 379.414 235.74 377.314 233.57C375.284 231.4 372.764 230.315 369.754 230.315C366.674 230.315 364.119 231.4 362.089 233.57C360.059 235.67 359.044 238.645 359.044 242.495C359.044 246.275 360.059 249.285 362.089 251.525C364.119 253.695 366.674 254.78 369.754 254.78C372.764 254.78 375.284 253.695 377.314 251.525C379.414 249.355 380.464 246.345 380.464 242.495ZM433.352 223.49C435.662 220.13 438.462 217.47 441.752 215.51C445.042 213.55 448.577 212.57 452.357 212.57V234.515H446.582C442.102 234.515 438.777 235.39 436.607 237.14C434.437 238.89 433.352 241.935 433.352 246.275V272H412.772V213.095H433.352V223.49ZM494.489 254.465V272H485.564C470.514 272 462.989 264.545 462.989 249.635V230.21H455.744V213.095H462.989V198.815H483.674V213.095H494.384V230.21H483.674V249.95C483.674 251.56 484.024 252.715 484.724 253.415C485.494 254.115 486.754 254.465 488.504 254.465H494.489ZM542.674 212.57C549.394 212.57 554.714 214.845 558.634 219.395C562.624 223.875 564.619 229.965 564.619 237.665V272H544.039V240.395C544.039 237.035 543.164 234.41 541.414 232.52C539.664 230.56 537.319 229.58 534.379 229.58C531.299 229.58 528.884 230.56 527.134 232.52C525.384 234.41 524.509 237.035 524.509 240.395V272H503.929V194.3H524.509V221.495C526.329 218.835 528.779 216.7 531.859 215.09C535.009 213.41 538.614 212.57 542.674 212.57Z" fill="black"/>
<mask id="path-10-outside-2_1_645" maskUnits="userSpaceOnUse" x="401" y="1006" width="47" height="32" fill="black">
<rect fill="white" x="401" y="1006" width="47" height="32"/>
<path d="M401.84 1030.92V1027.48L415.28 1008.2H420.8V1026.96H424.52V1030.92H420.8V1037H416.32V1030.92H401.84ZM416.52 1012.84L407.08 1026.96H416.52V1012.84ZM428.218 1015.04C428.378 1012.56 429.325 1010.63 431.058 1009.24C432.818 1007.85 435.058 1007.16 437.778 1007.16C439.645 1007.16 441.258 1007.49 442.618 1008.16C443.978 1008.83 445.005 1009.73 445.698 1010.88C446.392 1012.03 446.738 1013.32 446.738 1014.76C446.738 1016.41 446.298 1017.83 445.418 1019C444.538 1020.17 443.485 1020.96 442.258 1021.36V1021.52C443.832 1022 445.058 1022.88 445.938 1024.16C446.818 1025.41 447.258 1027.03 447.258 1029C447.258 1030.57 446.898 1031.97 446.178 1033.2C445.458 1034.43 444.392 1035.4 442.978 1036.12C441.565 1036.81 439.872 1037.16 437.898 1037.16C435.018 1037.16 432.645 1036.43 430.778 1034.96C428.938 1033.47 427.952 1031.33 427.818 1028.56H432.218C432.325 1029.97 432.872 1031.13 433.858 1032.04C434.845 1032.92 436.178 1033.36 437.858 1033.36C439.485 1033.36 440.738 1032.92 441.618 1032.04C442.498 1031.13 442.938 1029.97 442.938 1028.56C442.938 1026.69 442.338 1025.37 441.138 1024.6C439.965 1023.8 438.152 1023.4 435.698 1023.4H434.658V1019.64H435.738C437.898 1019.61 439.538 1019.25 440.658 1018.56C441.805 1017.87 442.378 1016.77 442.378 1015.28C442.378 1014 441.965 1012.99 441.138 1012.24C440.312 1011.47 439.138 1011.08 437.618 1011.08C436.125 1011.08 434.965 1011.47 434.138 1012.24C433.312 1012.99 432.818 1013.92 432.658 1015.04H428.218Z"/>
</mask>
<path d="M401.84 1030.92V1027.48L415.28 1008.2H420.8V1026.96H424.52V1030.92H420.8V1037H416.32V1030.92H401.84ZM416.52 1012.84L407.08 1026.96H416.52V1012.84ZM428.218 1015.04C428.378 1012.56 429.325 1010.63 431.058 1009.24C432.818 1007.85 435.058 1007.16 437.778 1007.16C439.645 1007.16 441.258 1007.49 442.618 1008.16C443.978 1008.83 445.005 1009.73 445.698 1010.88C446.392 1012.03 446.738 1013.32 446.738 1014.76C446.738 1016.41 446.298 1017.83 445.418 1019C444.538 1020.17 443.485 1020.96 442.258 1021.36V1021.52C443.832 1022 445.058 1022.88 445.938 1024.16C446.818 1025.41 447.258 1027.03 447.258 1029C447.258 1030.57 446.898 1031.97 446.178 1033.2C445.458 1034.43 444.392 1035.4 442.978 1036.12C441.565 1036.81 439.872 1037.16 437.898 1037.16C435.018 1037.16 432.645 1036.43 430.778 1034.96C428.938 1033.47 427.952 1031.33 427.818 1028.56H432.218C432.325 1029.97 432.872 1031.13 433.858 1032.04C434.845 1032.92 436.178 1033.36 437.858 1033.36C439.485 1033.36 440.738 1032.92 441.618 1032.04C442.498 1031.13 442.938 1029.97 442.938 1028.56C442.938 1026.69 442.338 1025.37 441.138 1024.6C439.965 1023.8 438.152 1023.4 435.698 1023.4H434.658V1019.64H435.738C437.898 1019.61 439.538 1019.25 440.658 1018.56C441.805 1017.87 442.378 1016.77 442.378 1015.28C442.378 1014 441.965 1012.99 441.138 1012.24C440.312 1011.47 439.138 1011.08 437.618 1011.08C436.125 1011.08 434.965 1011.47 434.138 1012.24C433.312 1012.99 432.818 1013.92 432.658 1015.04H428.218Z" fill="black"/>
<path d="M401.84 1030.92H401.54V1031.22H401.84V1030.92ZM401.84 1027.48L401.594 1027.31L401.54 1027.39V1027.48H401.84ZM415.28 1008.2V1007.9H415.123L415.034 1008.03L415.28 1008.2ZM420.8 1008.2H421.1V1007.9H420.8V1008.2ZM420.8 1026.96H420.5V1027.26H420.8V1026.96ZM424.52 1026.96H424.82V1026.66H424.52V1026.96ZM424.52 1030.92V1031.22H424.82V1030.92H424.52ZM420.8 1030.92V1030.62H420.5V1030.92H420.8ZM420.8 1037V1037.3H421.1V1037H420.8ZM416.32 1037H416.02V1037.3H416.32V1037ZM416.32 1030.92H416.62V1030.62H416.32V1030.92ZM416.52 1012.84H416.82V1011.85L416.271 1012.67L416.52 1012.84ZM407.08 1026.96L406.831 1026.79L406.519 1027.26H407.08V1026.96ZM416.52 1026.96V1027.26H416.82V1026.96H416.52ZM401.84 1030.92H402.14V1027.48H401.84H401.54V1030.92H401.84ZM401.84 1027.48L402.086 1027.65L415.526 1008.37L415.28 1008.2L415.034 1008.03L401.594 1027.31L401.84 1027.48ZM415.28 1008.2V1008.5H420.8V1008.2V1007.9H415.28V1008.2ZM420.8 1008.2H420.5V1026.96H420.8H421.1V1008.2H420.8ZM420.8 1026.96V1027.26H424.52V1026.96V1026.66H420.8V1026.96ZM424.52 1026.96H424.22V1030.92H424.52H424.82V1026.96H424.52ZM424.52 1030.92V1030.62H420.8V1030.92V1031.22H424.52V1030.92ZM420.8 1030.92H420.5V1037H420.8H421.1V1030.92H420.8ZM420.8 1037V1036.7H416.32V1037V1037.3H420.8V1037ZM416.32 1037H416.62V1030.92H416.32H416.02V1037H416.32ZM416.32 1030.92V1030.62H401.84V1030.92V1031.22H416.32V1030.92ZM416.52 1012.84L416.271 1012.67L406.831 1026.79L407.08 1026.96L407.329 1027.13L416.769 1013.01L416.52 1012.84ZM407.08 1026.96V1027.26H416.52V1026.96V1026.66H407.08V1026.96ZM416.52 1026.96H416.82V1012.84H416.52H416.22V1026.96H416.52ZM428.218 1015.04L427.919 1015.02L427.898 1015.34H428.218V1015.04ZM431.058 1009.24L430.873 1009L430.871 1009.01L431.058 1009.24ZM442.618 1008.16L442.486 1008.43L442.618 1008.16ZM445.698 1010.88L445.955 1010.72L445.698 1010.88ZM445.418 1019L445.658 1019.18V1019.18L445.418 1019ZM442.258 1021.36L442.165 1021.07L441.958 1021.14V1021.36H442.258ZM442.258 1021.52H441.958V1021.74L442.171 1021.81L442.258 1021.52ZM445.938 1024.16L445.691 1024.33L445.693 1024.33L445.938 1024.16ZM446.178 1033.2L445.92 1033.05L446.178 1033.2ZM442.978 1036.12L443.111 1036.39L443.115 1036.39L442.978 1036.12ZM430.778 1034.96L430.589 1035.19L430.593 1035.2L430.778 1034.96ZM427.818 1028.56V1028.26H427.504L427.519 1028.57L427.818 1028.56ZM432.218 1028.56L432.518 1028.54L432.497 1028.26H432.218V1028.56ZM433.858 1032.04L433.655 1032.26L433.659 1032.26L433.858 1032.04ZM441.618 1032.04L441.831 1032.25L441.834 1032.25L441.618 1032.04ZM441.138 1024.6L440.969 1024.85L440.976 1024.85L441.138 1024.6ZM434.658 1023.4H434.358V1023.7H434.658V1023.4ZM434.658 1019.64V1019.34H434.358V1019.64H434.658ZM435.738 1019.64V1019.94L435.742 1019.94L435.738 1019.64ZM440.658 1018.56L440.503 1018.3L440.501 1018.3L440.658 1018.56ZM441.138 1012.24L440.933 1012.46L440.937 1012.46L441.138 1012.24ZM434.138 1012.24L434.34 1012.46L434.343 1012.46L434.138 1012.24ZM432.658 1015.04V1015.34H432.919L432.955 1015.08L432.658 1015.04ZM428.218 1015.04L428.518 1015.06C428.673 1012.65 429.587 1010.8 431.246 1009.47L431.058 1009.24L430.871 1009.01C429.064 1010.45 428.084 1012.47 427.919 1015.02L428.218 1015.04ZM431.058 1009.24L431.244 1009.48C432.941 1008.14 435.111 1007.46 437.778 1007.46V1007.16V1006.86C435.006 1006.86 432.696 1007.57 430.873 1009L431.058 1009.24ZM437.778 1007.16V1007.46C439.61 1007.46 441.176 1007.79 442.486 1008.43L442.618 1008.16L442.75 1007.89C441.341 1007.2 439.68 1006.86 437.778 1006.86V1007.16ZM442.618 1008.16L442.486 1008.43C443.802 1009.07 444.782 1009.94 445.442 1011.04L445.698 1010.88L445.955 1010.72C445.228 1009.52 444.155 1008.58 442.75 1007.89L442.618 1008.16ZM445.698 1010.88L445.442 1011.04C446.105 1012.13 446.438 1013.37 446.438 1014.76H446.738H447.038C447.038 1013.27 446.679 1011.92 445.955 1010.72L445.698 1010.88ZM446.738 1014.76H446.438C446.438 1016.36 446.015 1017.71 445.178 1018.82L445.418 1019L445.658 1019.18C446.582 1017.95 447.038 1016.47 447.038 1014.76H446.738ZM445.418 1019L445.178 1018.82C444.33 1019.95 443.326 1020.7 442.165 1021.07L442.258 1021.36L442.351 1021.65C443.645 1021.22 444.747 1020.4 445.658 1019.18L445.418 1019ZM442.258 1021.36H441.958V1021.52H442.258H442.558V1021.36H442.258ZM442.258 1021.52L442.171 1021.81C443.683 1022.27 444.852 1023.11 445.691 1024.33L445.938 1024.16L446.186 1023.99C445.265 1022.65 443.98 1021.73 442.346 1021.23L442.258 1021.52ZM445.938 1024.16L445.693 1024.33C446.528 1025.52 446.958 1027.07 446.958 1029H447.258H447.558C447.558 1026.98 447.108 1025.3 446.184 1023.99L445.938 1024.16ZM447.258 1029H446.958C446.958 1030.53 446.61 1031.87 445.92 1033.05L446.178 1033.2L446.437 1033.35C447.187 1032.07 447.558 1030.62 447.558 1029H447.258ZM446.178 1033.2L445.92 1033.05C445.232 1034.22 444.211 1035.16 442.842 1035.85L442.978 1036.12L443.115 1036.39C444.573 1035.64 445.685 1034.63 446.437 1033.35L446.178 1033.2ZM442.978 1036.12L442.846 1035.85C441.483 1036.52 439.837 1036.86 437.898 1036.86V1037.16V1037.46C439.906 1037.46 441.647 1037.11 443.111 1036.39L442.978 1036.12ZM437.898 1037.16V1036.86C435.071 1036.86 432.767 1036.14 430.964 1034.72L430.778 1034.96L430.593 1035.2C432.523 1036.71 434.966 1037.46 437.898 1037.46V1037.16ZM430.778 1034.96L430.967 1034.73C429.205 1033.3 428.248 1031.25 428.118 1028.55L427.818 1028.56L427.519 1028.57C427.655 1031.42 428.672 1033.64 430.589 1035.19L430.778 1034.96ZM427.818 1028.56V1028.86H432.218V1028.56V1028.26H427.818V1028.56ZM432.218 1028.56L431.919 1028.58C432.031 1030.07 432.609 1031.3 433.655 1032.26L433.858 1032.04L434.061 1031.82C433.134 1030.97 432.619 1029.88 432.518 1028.54L432.218 1028.56ZM433.858 1032.04L433.659 1032.26C434.714 1033.21 436.125 1033.66 437.858 1033.66V1033.36V1033.06C436.231 1033.06 434.976 1032.63 434.058 1031.82L433.858 1032.04ZM437.858 1033.36V1033.66C439.539 1033.66 440.879 1033.2 441.831 1032.25L441.618 1032.04L441.406 1031.83C440.598 1032.64 439.431 1033.06 437.858 1033.06V1033.36ZM441.618 1032.04L441.834 1032.25C442.775 1031.28 443.238 1030.04 443.238 1028.56H442.938H442.638C442.638 1029.91 442.222 1030.99 441.403 1031.83L441.618 1032.04ZM442.938 1028.56H443.238C443.238 1026.63 442.613 1025.19 441.301 1024.35L441.138 1024.6L440.976 1024.85C442.064 1025.55 442.638 1026.76 442.638 1028.56H442.938ZM441.138 1024.6L441.307 1024.35C440.06 1023.5 438.173 1023.1 435.698 1023.1V1023.4V1023.7C438.13 1023.7 439.871 1024.1 440.969 1024.85L441.138 1024.6ZM435.698 1023.4V1023.1H434.658V1023.4V1023.7H435.698V1023.4ZM434.658 1023.4H434.958V1019.64H434.658H434.358V1023.4H434.658ZM434.658 1019.64V1019.94H435.738V1019.64V1019.34H434.658V1019.64ZM435.738 1019.64L435.742 1019.94C437.925 1019.91 439.629 1019.55 440.816 1018.82L440.658 1018.56L440.501 1018.3C439.448 1018.96 437.871 1019.31 435.735 1019.34L435.738 1019.64ZM440.658 1018.56L440.814 1018.82C442.062 1018.06 442.678 1016.86 442.678 1015.28H442.378H442.078C442.078 1016.68 441.548 1017.67 440.503 1018.3L440.658 1018.56ZM442.378 1015.28H442.678C442.678 1013.93 442.239 1012.83 441.34 1012.02L441.138 1012.24L440.937 1012.46C441.691 1013.14 442.078 1014.07 442.078 1015.28H442.378ZM441.138 1012.24L441.343 1012.02C440.444 1011.18 439.188 1010.78 437.618 1010.78V1011.08V1011.38C439.089 1011.38 440.179 1011.75 440.933 1012.46L441.138 1012.24ZM437.618 1011.08V1010.78C436.074 1010.78 434.832 1011.18 433.933 1012.02L434.138 1012.24L434.343 1012.46C435.099 1011.75 436.176 1011.38 437.618 1011.38V1011.08ZM434.138 1012.24L433.937 1012.02C433.058 1012.81 432.531 1013.81 432.361 1015L432.658 1015.04L432.955 1015.08C433.106 1014.03 433.566 1013.16 434.34 1012.46L434.138 1012.24ZM432.658 1015.04V1014.74H428.218V1015.04V1015.34H432.658V1015.04Z" fill="black" mask="url(#path-10-outside-2_1_645)"/>
<ellipse cx="423.596" cy="642" rx="298.596" ry="302" fill="black"/>
<path d="M273.177 399.643C332.037 359.711 399.358 348.808 468.315 358.814C476.067 360.505 483.778 362.09 491.31 364.635C515.229 368.685 541.031 381.109 561.897 393.226C550.253 397.793 533.897 408.64 528.655 420.421C518.684 442.832 555.363 432.432 561.897 432.785C550.282 439.056 535.261 439.616 530.913 454.322C523.051 480.914 506.905 468.134 502.026 483.937C499.574 491.879 504.312 494.772 506.318 501.215C508.3 507.577 506.576 515.261 514.945 517.372C534.691 522.355 552.591 481.665 579.93 505.761C566.299 518.663 593.125 523.328 590.502 505.761C587.413 497.126 581.2 493.496 573.365 489.712C547.571 481.105 539.327 500.514 517.909 507.511C517.902 498.118 511.115 489.8 511.949 487.215C515.313 476.786 531.431 490.29 542.186 453.713C547.466 448.846 555.287 446.676 561.897 444.209C565.447 441.929 568.305 440.062 570.081 436.097C574.715 416.011 547.783 424.467 537.374 425.338C539.282 422.342 541.447 419.656 543.719 416.929C553.626 408.533 560.837 403.639 573.365 399.643C606.035 425.406 636.665 447.679 659.078 484.851C683.258 519.77 695.133 557.987 702.92 599.245C700.666 601.28 686.479 641.276 680.093 605.494C676.619 586.027 675.825 581.435 660.952 567.964C658.333 565.593 656.497 561.443 652.997 560.436C641.445 565.676 649.78 570.415 652.997 577.568C657.005 580.515 661.555 583.641 664.099 588.043C671.903 601.539 667.569 639.681 698.018 627.907C700.841 624.456 703.626 620.966 706.568 617.616C706.025 635.674 707.363 653.65 705.504 671.692C690.354 818.769 564.802 930.873 416.441 926.446C401.902 926.01 383.872 924.833 369.835 921.396C393.205 912.075 368.709 896.643 368.331 879.247C361.313 862.196 383.491 844.125 389.822 829.635C393.834 820.455 393.991 809.289 399.08 800.814C411.15 780.704 419.974 796.698 420.993 756.834C421.705 749.975 422.582 744.102 425.337 737.739C425.175 724.109 434.487 721.067 419.435 710.068C404.904 701.702 388.803 694.512 377.34 681.889C372.039 676.054 367.326 663.993 359.687 661.015C350.772 657.537 338.229 656.44 328.699 654.49C301.852 648.999 292.896 639.179 272.038 660.139C267.102 655.387 263.136 649.974 259.102 644.467C259.456 597.333 236.537 635.45 223.542 633.77C212.013 632.28 210.61 603.243 224.904 594.52C246.131 581.569 254.552 603.708 267.149 606.281C277.873 608.474 272.421 583.96 273.002 577.39C274.673 558.502 293.101 568.921 295.1 539.19C295.949 526.573 309.019 532.885 315.769 528.084C322.966 522.966 320.404 511.719 327.627 506.91C336.396 501.073 353.715 508.017 353.466 488.304C353.32 476.706 340.39 468.634 333.128 461.137C306.066 433.187 370.675 446.401 320.159 399.643C318.14 398.132 316.368 397.116 314.057 396.107C300.209 397.527 287.067 403.936 273.177 406.072C273.105 403.935 273.168 401.781 273.177 399.643Z" fill="#20A1DC"/>
<path d="M273.177 399.643C332.037 359.711 399.358 348.808 468.315 358.814C476.067 360.505 483.778 362.09 491.31 364.635C494.862 370.552 519.95 374.62 517.017 391.52C513.715 410.539 445.313 405.555 436.261 446.886C429.116 479.515 436.645 516.792 402.253 539.052C382.872 551.595 303.103 571.22 327.485 610.466C343.477 636.205 387.451 623.715 400.621 643.774C407.586 654.387 420.236 701.659 419.435 710.068C404.904 701.702 388.803 694.512 377.34 681.889C372.039 676.054 367.326 663.993 359.687 661.015C350.772 657.537 338.229 656.44 328.699 654.49C301.852 648.999 292.896 639.179 272.038 660.139C267.102 655.387 263.136 649.974 259.102 644.467C259.456 597.333 236.537 635.45 223.542 633.77C212.013 632.28 210.61 603.243 224.904 594.52C246.131 581.569 254.552 603.708 267.149 606.281C277.873 608.474 272.421 583.96 273.002 577.39C274.673 558.502 293.101 568.921 295.1 539.19C295.949 526.573 309.019 532.885 315.769 528.084C322.966 522.966 320.404 511.719 327.627 506.91C336.396 501.073 353.715 508.017 353.466 488.304C353.32 476.706 340.39 468.634 333.128 461.137C306.066 433.187 370.675 446.401 320.159 399.643C318.14 398.132 316.368 397.116 314.057 396.107C300.209 397.527 287.067 403.936 273.177 406.072C273.105 403.935 273.168 401.781 273.177 399.643Z" fill="#5FC8E9"/>
<path d="M336.622 389.402C357.52 393.053 424.633 364.557 442.858 390.466C456.43 409.759 418.182 423.677 406.984 431.791C394.225 441.035 391.058 451.959 373.912 455.57C342.201 446.388 360.123 407.069 358.953 404.338C356.384 398.337 339.264 397.08 333.821 396.107C333.895 393.38 333.685 390.501 336.622 389.402Z" fill="black"/>
<path d="M398.201 388.13C406.809 387.281 425.047 387.313 432.245 392.946C444.568 402.592 406.686 419.038 401.519 422.79C395.865 426.894 391.101 432.721 386.356 437.805C368.3 454.453 361.749 432.87 365.635 418.857C369.065 406.495 375.708 402.884 361.566 393.226C373.29 389.544 385.946 388.322 398.201 388.13Z" fill="#FE9B39"/>
<path d="M273.177 399.643C332.037 359.711 399.358 348.808 468.315 358.814C465.43 363.641 449.186 360.643 444.124 360.589C420.215 360.334 349.003 375.137 336.622 389.402C333.684 390.501 333.894 393.38 333.821 396.107C329.243 394.691 323.04 395.399 320.159 399.643C318.14 398.132 316.368 397.116 314.057 396.107C300.209 397.527 287.066 403.936 273.177 406.072C273.105 403.935 273.168 401.781 273.177 399.643Z" fill="#20A1DC"/>
<path d="M573.364 399.643C606.035 425.406 636.665 447.679 659.078 484.851C683.257 519.77 695.133 557.986 702.92 599.245C700.666 601.28 686.479 641.276 680.093 605.493C676.618 586.027 675.825 581.434 660.951 567.964C658.333 565.592 656.497 561.443 652.997 560.435C641.444 565.676 649.78 570.415 652.997 577.567C652.773 627.91 626.532 709.442 605.986 753.523C604.166 757.429 593.229 782.161 590.502 782.721C584.766 765.939 583.711 755.011 588.808 738.111C596.939 711.148 586.54 712.416 578.901 689.833C574.728 677.499 578.869 661.124 567.964 651.605C553.488 638.967 529.993 649.845 513.338 650.779C501.657 651.432 486.931 635.386 478.411 627.906C479.502 614.486 476.866 600.922 479.142 587.562C481.482 573.83 489.892 572.111 497.737 562.324C502.19 556.773 504.088 547.894 510.113 543.79C512 542.504 547.508 524.135 548.846 523.692C561.376 519.546 570.184 536.272 582.219 537.242C591.167 537.966 598.439 532.033 606.998 531.947C618.953 531.831 632.426 542.088 643.876 533.581C653.034 526.779 651.081 512.125 644.755 504.124C635.206 492.048 611.322 490.42 609.966 509.594C604.224 507.346 597.867 501.601 590.502 498.501C590.673 500.963 590.844 503.298 590.502 505.76C587.413 497.125 581.2 493.496 573.364 489.712C547.57 481.104 539.326 500.514 517.909 507.511C517.901 498.117 511.114 489.8 511.949 487.214C515.312 476.786 531.431 490.29 542.186 453.713C547.465 448.846 555.287 446.675 561.897 444.209C565.447 441.929 568.305 440.061 570.081 436.097C574.714 416.01 547.782 424.466 537.373 425.338C539.282 422.342 541.447 419.656 543.719 416.929C553.626 408.533 560.837 403.639 573.364 399.643Z" fill="url(#paint0_linear_1_645)"/>
<path d="M659.078 484.852C683.258 519.771 695.134 557.987 702.92 599.246C700.666 601.281 686.479 641.277 680.093 605.494C676.619 586.028 675.825 581.435 660.952 567.964C658.333 565.593 656.497 561.444 652.998 560.436C653.173 537.657 653.178 505.87 659.078 484.852Z" fill="#44932C"/>
<path d="M542.186 453.714C547.465 448.847 555.287 446.676 561.897 444.209C561.734 448.331 560.508 452.29 560.016 456.367C557.672 475.802 573.376 483.414 574.329 488.867L573.364 489.713C547.57 481.105 539.326 500.515 517.909 507.512C517.901 498.118 511.115 489.8 511.949 487.215C515.312 476.787 531.431 490.29 542.186 453.714Z" fill="#B4C922"/>
<path d="M543.719 416.93C554.875 421.135 571.554 411.113 578.73 425.067C582.556 432.505 578.337 437.047 570.081 436.098C574.715 416.012 547.783 424.468 537.374 425.339C539.282 422.343 541.447 419.657 543.719 416.93Z" fill="#B4C922"/>
<path d="M542.186 556.16C563.235 555.143 548.95 581.633 557.326 591.19C567.663 602.984 590.175 595.071 608.484 621.013C616.281 632.062 623.034 647.776 620.453 661.591C619.272 667.913 612.787 678.485 604.92 676.884C599.606 672.965 598.281 659.058 595.54 652.604C589.02 626.543 554.138 627.035 533.104 628.255C515.48 629.276 496.144 629.718 493.039 605.953C489.563 579.354 518.604 558.96 542.186 556.16Z" fill="#72BA32"/>
<path d="M609.966 509.595C611.322 490.421 635.206 492.049 644.755 504.125C651.081 512.126 653.034 526.78 643.876 533.582C632.426 542.089 618.953 531.831 606.998 531.948C598.439 532.034 591.167 537.967 582.219 537.243C570.184 536.272 561.376 519.547 548.846 523.692C547.508 524.136 512 542.505 510.113 543.791C504.088 547.895 502.19 556.773 497.737 562.325C489.892 572.112 481.482 573.831 479.142 587.563C476.866 600.923 479.502 614.487 478.411 627.907C486.931 635.387 501.657 651.433 513.338 650.779C529.993 649.846 553.488 638.968 567.964 651.606C578.869 661.124 574.728 677.499 578.901 689.834C586.54 712.417 596.939 711.148 588.808 738.111C583.711 755.012 584.766 765.94 590.502 782.722C593.229 782.162 604.165 757.43 605.986 753.524C626.532 709.442 652.773 627.911 652.997 577.568C657.004 580.515 661.554 583.641 664.099 588.043C671.903 601.539 667.569 639.682 698.018 627.907C700.841 624.456 703.626 620.967 706.567 617.617C706.025 635.675 707.363 653.651 705.503 671.693C690.354 818.769 564.801 930.874 416.441 926.447C401.902 926.011 383.872 924.834 369.835 921.397C393.205 912.075 368.708 896.643 368.331 879.247C382.226 880.576 395.784 883.289 409.815 883.83C466.387 886.013 525.931 866.263 569.978 830.415C574.045 827.105 578.903 820.989 584.061 819.668C587.547 799.192 574.675 776.102 574.318 754.09C574.129 742.393 582.92 730.087 581.198 720.202C579.449 710.143 570.964 701.521 567.754 691.696C565.161 683.765 566.274 675.253 564.329 667.219C559.005 645.243 525.229 661.484 510.418 660.827C497.854 660.268 471.404 640.351 469.165 629.755C466.162 615.541 466.52 582.898 473.682 571.991C477.366 566.381 483.402 562.885 487.791 557.902C494.234 550.584 496.348 540.739 504.748 534.911C510.115 531.187 516.588 530.016 522.366 527.145C530.831 522.934 536.381 515.836 546.189 513.853C562.498 510.558 566.875 518.283 578.212 525.476C587.261 531.221 599.143 520.374 609.239 521.341C617.835 522.163 626.001 529.022 635.066 526.468C649.352 522.446 632.914 500.155 620.379 505.751L620.101 506.668C623.529 510.899 632.385 507.467 635.256 512.673C639.731 520.782 613.616 522.908 610.122 510.187L609.966 509.595Z" fill="black"/>
<path d="M706.567 617.617C706.025 635.674 707.363 653.65 705.503 671.693C690.354 818.769 564.801 930.874 416.441 926.446C401.902 926.011 383.872 924.834 369.835 921.397C393.205 912.075 368.708 896.643 368.331 879.247C382.226 880.576 395.784 883.289 409.815 883.83C466.387 886.013 525.931 866.262 569.978 830.415C574.045 827.105 578.903 820.989 584.061 819.668C580.813 854.505 626.129 815.847 634.62 807.197C644.524 797.105 644.185 782.873 650.328 770.972C656.559 758.902 668.623 753.354 669.96 738.415C671.191 724.64 664.692 711.673 664.634 697.932C674.702 681.689 702.045 666.9 703.054 651.758C703.457 645.737 699.839 645.233 694.861 646.397L698.018 627.907C700.841 624.456 703.626 620.966 706.567 617.617Z" fill="#0477B2"/>
<path d="M652.997 577.568C657.005 580.515 661.555 583.641 664.099 588.043C671.903 601.539 667.569 639.682 698.018 627.907L694.861 646.397C686.053 670.319 664.331 672.973 655.083 692.213C649.107 704.643 659.946 721.748 659.071 734.944C658.226 747.672 643.917 758.017 638.476 769.537C634.055 778.897 634.308 790.419 627.41 798.519C618.928 808.479 606.185 815.104 595.541 822.516C595.331 806.141 595.815 798.943 590.502 782.722C593.23 782.161 604.166 757.43 605.987 753.523C626.532 709.442 652.774 627.911 652.997 577.568Z" fill="#44932C"/>
<path d="M425.337 737.739C427.971 740.513 424.64 757.277 422.429 759.526L421.75 759.427C421.392 758.546 421.157 757.77 420.993 756.834C421.705 749.975 422.582 744.102 425.337 737.739Z" fill="#5FC8E9"/>
<path d="M270.123 416.929C283.997 417.972 296.9 408.957 310.61 408.179C318.249 412.29 324.217 419.987 328.837 427.149C324.359 436.811 312.563 443.598 316.343 455.774C320.665 469.692 344.325 479.731 342.615 491.236C336.233 500.437 320.015 484.853 310.61 519.276C290.587 520.93 284.586 526.678 283.69 546.963C271.578 565.56 260.549 550.988 262.879 591.614C254.818 585.395 246.094 578.887 235.3 580.203C192.267 585.46 197.241 649.805 229.47 643.996C237.906 642.475 241.921 637.417 248.661 632.98C248.953 646.678 258.897 671.578 271.989 671.764C281.188 671.897 284.24 656.817 295.633 658.685C310.164 661.067 340.934 667.102 354.964 670.856C368.121 688.171 375.626 698.467 395.569 709.267C402.684 713.12 411.277 716.612 417.406 721.87C416.274 731.466 411.794 740.181 410.281 749.701C409.01 757.702 411.66 767.543 408.697 775.007C405.511 783.031 395.079 787.33 390.285 794.642C384.755 803.08 385.346 813.871 381.475 823.004C373.249 842.411 354.855 854.515 356.973 876.864C349.935 875.346 343.957 871.738 336.622 870.966C333.904 857.24 327.285 847.471 323.344 834.654C316.317 811.793 322.478 792.421 303.237 771.978C290.667 758.624 275.632 750.008 265.538 733.874C256.345 719.184 263.278 712.834 266.643 697.64C271.925 673.799 261.786 678.907 252.686 672.669C246.28 668.279 242.742 661.935 235.321 658.136C219.024 649.797 200.011 654.09 189.133 637.228C183.266 629.416 180.679 619.824 169.896 617.616C167.204 616.42 164.38 615.518 161.508 614.879C155.855 601.234 155.429 596.612 145.729 584.347C160.318 533.455 170.147 502.508 205.699 458.95C220.463 438.488 240.604 424.694 259.102 408.179C262.494 411.305 266.383 414.235 270.123 416.929Z" fill="#B4C922"/>
<path d="M205.699 458.95C207.811 464.463 211.015 476.693 212.7 482.972C221.082 505.957 254.083 503.21 239.278 537.791C222.819 576.235 177.352 567.118 187.668 624.026C188.444 628.309 189.715 632.873 189.133 637.228C183.266 629.416 180.679 619.824 169.896 617.616C167.204 616.42 164.38 615.518 161.508 614.879C155.855 601.234 155.429 596.612 145.729 584.347C160.318 533.455 170.147 502.508 205.699 458.95Z" fill="#72BA32"/>
<path d="M205.699 458.95C207.811 464.463 211.015 476.693 212.7 482.972C194.973 513.826 181.144 542.468 175.197 577.982C173.013 591.036 173.127 604.791 169.896 617.616C167.204 616.42 164.38 615.517 161.508 614.879C155.855 601.234 155.429 596.612 145.729 584.347C160.318 533.455 170.147 502.508 205.699 458.95Z" fill="#44932C"/>
<path d="M259.101 408.179C262.494 411.305 266.382 414.235 270.123 416.929C262.784 420.714 215.794 474.45 212.699 482.972C211.015 476.693 207.811 464.463 205.698 458.95C220.463 438.488 240.604 424.694 259.101 408.179Z" fill="#A9AD12"/>
<path d="M301.5 687.922C323.427 685.461 357.207 705.567 373.819 717.739C404.151 739.963 378.55 764.919 365.923 791.716C361.278 801.573 357.422 811.904 354.964 822.516C342.971 865.766 337.781 811.519 335.406 798.704C326.794 752.259 289.599 750.049 284.088 717.519C281.748 703.706 286.526 689.894 301.5 687.922Z" fill="#72BA32"/>
<path d="M304.119 416.93C329.492 417.671 300.588 461.303 298.687 467.129C295.287 477.557 303.591 496.667 283.689 487.066C249.305 468.479 282.872 424.514 304.119 416.93Z" fill="black"/>
<path d="M304.118 429.001C306.505 432.769 288.29 460.203 287.171 477.278L283.689 473.491C269.876 458.732 292.27 436.675 304.118 429.001Z" fill="#FFFEFE"/>
<path d="M143.462 599.246C145.643 602.984 147.812 607.073 149.125 611.209C154.072 626.794 154.262 621.731 169.266 627.652L169.896 627.907C179.727 637.991 180.116 649.456 195.77 656.623C207.692 661.079 220.877 662.715 232.319 668.302C243.672 673.844 237.531 679.901 257.358 685.167C257.393 698.755 249.834 710.864 250.389 724.189C259.372 758.318 290.035 766.514 302.844 789.777C310.841 804.3 308.845 822.486 313.331 838.253C316.089 847.948 321.585 856.499 324.656 866.097C327.08 892.07 334.186 904.364 356.973 918.763C292.25 903.459 229.74 859.207 192.22 804.37C154.147 748.722 130.709 667.172 143.462 599.246Z" fill="#20A1DC"/>
<path d="M143.462 599.246C145.643 602.984 147.812 607.073 149.125 611.209C154.072 626.794 154.262 621.731 169.266 627.652L169.896 627.907C164.045 722.547 216.658 815.098 302.274 856.913C309.532 860.458 316.842 863.955 324.656 866.097C327.08 892.07 334.186 904.364 356.973 918.763C292.25 903.459 229.74 859.207 192.22 804.37C154.147 748.722 130.709 667.172 143.462 599.246Z" fill="#0477B2"/>
<path d="M195.77 656.623C207.692 661.08 220.877 662.716 232.319 668.302C243.672 673.844 237.531 679.902 257.359 685.168C257.394 698.755 249.834 710.864 250.389 724.189C242.771 722.322 194.021 666.908 195.77 656.623Z" fill="#5FC8E9"/>
<path d="M336.622 870.966C343.957 871.738 349.935 875.346 356.973 876.864C357.204 891.076 362.904 897.162 368.331 909.443C347.731 905.951 339.333 890.658 336.622 870.966Z" fill="#44932C"/>
<defs>
<linearGradient id="paint0_linear_1_645" x1="488.66" y1="701.985" x2="666.632" y2="472.41" gradientUnits="userSpaceOnUse">
<stop stop-color="#C6D322"/>
<stop offset="1" stop-color="#76AF30"/>
</linearGradient>
</defs>
</svg>
