<svg width="849" height="1183" viewBox="0 0 849 1183" fill="none" xmlns="http://www.w3.org/2000/svg">
<rect x="5" y="5" width="839" height="1173" rx="45" fill="white"/>
<rect x="5" y="5" width="839" height="1173" rx="45" stroke="black" stroke-width="10"/>
<circle cx="786.5" cy="1124.5" r="11.5" fill="black"/>
<circle cx="786.5" cy="59.5" r="11.5" fill="black"/>
<path d="M77 1124.5C77 1130.85 71.8513 1136 65.5 1136C59.1487 1136 54 1130.85 54 1124.5C54 1118.15 59.1487 1113 65.5 1113C71.8513 1113 77 1118.15 77 1124.5Z" fill="black"/>
<path d="M77 59.5C77 65.8513 71.8513 71 65.5 71C59.1487 71 54 65.8513 54 59.5C54 53.1487 59.1487 48 65.5 48C71.8513 48 77 53.1487 77 59.5Z" fill="black"/>
<mask id="path-6-inside-1_1_2" fill="white">
<path d="M708 48C713.523 48 717.934 52.4996 718.616 57.9801C723.122 94.1833 751.817 122.878 788.02 127.384C793.5 128.066 798 132.477 798 138V1046C798 1051.52 793.5 1055.93 788.02 1056.62C751.817 1061.12 723.122 1089.82 718.616 1126.02C717.934 1131.5 713.523 1136 708 1136H141C135.477 1136 131.066 1131.5 130.384 1126.02C125.878 1089.82 97.1833 1061.12 60.9801 1056.62C55.4996 1055.93 51 1051.52 51 1046V138C51 132.477 55.4996 128.066 60.9801 127.384C97.1833 122.878 125.878 94.1833 130.384 57.9801C131.066 52.4996 135.477 48 141 48H708Z"/>
</mask>
<path d="M708 48C713.523 48 717.934 52.4996 718.616 57.9801C723.122 94.1833 751.817 122.878 788.02 127.384C793.5 128.066 798 132.477 798 138V1046C798 1051.52 793.5 1055.93 788.02 1056.62C751.817 1061.12 723.122 1089.82 718.616 1126.02C717.934 1131.5 713.523 1136 708 1136H141C135.477 1136 131.066 1131.5 130.384 1126.02C125.878 1089.82 97.1833 1061.12 60.9801 1056.62C55.4996 1055.93 51 1051.52 51 1046V138C51 132.477 55.4996 128.066 60.9801 127.384C97.1833 122.878 125.878 94.1833 130.384 57.9801C131.066 52.4996 135.477 48 141 48H708Z" fill="#0089CB"/>
<path d="M130.384 1126.02L138.322 1125.03L130.384 1126.02ZM718.616 1126.02L710.678 1125.03L718.616 1126.02ZM788.02 1056.62L789.008 1064.56L788.02 1056.62ZM718.616 57.9801L726.555 56.9922L718.616 57.9801ZM718.616 57.9801L710.678 58.9681C715.635 98.8063 747.194 130.365 787.032 135.322L788.02 127.384L789.008 119.445C756.44 115.392 730.608 89.5603 726.555 56.9922L718.616 57.9801ZM798 138H790V1046H798H806V138H798ZM788.02 1056.62L787.032 1048.68C747.194 1053.64 715.635 1085.19 710.678 1125.03L718.616 1126.02L726.555 1127.01C730.608 1094.44 756.44 1068.61 789.008 1064.56L788.02 1056.62ZM708 1136V1128H141V1136V1144H708V1136ZM130.384 1126.02L138.322 1125.03C133.365 1085.19 101.806 1053.64 61.9681 1048.68L60.9801 1056.62L59.9922 1064.56C92.5603 1068.61 118.392 1094.44 122.445 1127.01L130.384 1126.02ZM51 1046H59V138H51H43V1046H51ZM60.9801 127.384L61.9681 135.322C101.806 130.365 133.365 98.8063 138.322 58.9681L130.384 57.9801L122.445 56.9922C118.392 89.5603 92.5603 115.392 59.9922 119.445L60.9801 127.384ZM141 48V56H708V48V40H141V48ZM130.384 57.9801L138.322 58.9681C138.438 58.0389 138.872 57.2306 139.427 56.6958C139.954 56.1887 140.494 56 141 56V48V40C130.84 40 123.547 48.1329 122.445 56.9922L130.384 57.9801ZM51 138H59C59 137.494 59.1887 136.954 59.6958 136.427C60.2306 135.872 61.0389 135.438 61.9681 135.322L60.9801 127.384L59.9922 119.445C51.1329 120.547 43 127.84 43 138H51ZM60.9801 1056.62L61.9681 1048.68C61.0389 1048.56 60.2306 1048.13 59.6958 1047.57C59.1887 1047.05 59 1046.51 59 1046H51H43C43 1056.16 51.1329 1063.45 59.9922 1064.56L60.9801 1056.62ZM141 1136V1128C140.494 1128 139.954 1127.81 139.427 1127.3C138.872 1126.77 138.438 1125.96 138.322 1125.03L130.384 1126.02L122.445 1127.01C123.547 1135.87 130.84 1144 141 1144V1136ZM718.616 1126.02L710.678 1125.03C710.562 1125.96 710.128 1126.77 709.573 1127.3C709.046 1127.81 708.506 1128 708 1128V1136V1144C718.16 1144 725.453 1135.87 726.555 1127.01L718.616 1126.02ZM798 1046H790C790 1046.51 789.811 1047.05 789.304 1047.57C788.769 1048.13 787.961 1048.56 787.032 1048.68L788.02 1056.62L789.008 1064.56C797.867 1063.45 806 1056.16 806 1046H798ZM788.02 127.384L787.032 135.322C787.961 135.438 788.769 135.872 789.304 136.427C789.811 136.954 790 137.494 790 138H798H806C806 127.84 797.867 120.547 789.008 119.445L788.02 127.384ZM718.616 57.9801L726.555 56.9922C725.453 48.1329 718.16 40 708 40V48V56C708.506 56 709.046 56.1887 709.573 56.6958C710.128 57.2306 710.562 58.0389 710.678 58.9681L718.616 57.9801Z" fill="black" mask="url(#path-6-inside-1_1_2)"/>
<path d="M690 102C695.523 102 699.911 106.512 700.837 111.957C705.019 136.563 724.437 155.981 749.043 160.163C754.488 161.089 759 165.477 759 171V1014C759 1019.52 754.488 1023.91 749.043 1024.84C724.711 1028.97 705.454 1048 700.984 1072.22C699.993 1077.59 695.633 1082 690.175 1082H158.825C153.367 1082 149.007 1077.59 148.016 1072.22C143.546 1048 124.288 1028.97 99.9568 1024.84C94.5121 1023.91 90 1019.52 90 1014V171C90 165.477 94.512 161.089 99.9568 160.163C124.563 155.981 143.981 136.563 148.163 111.957C149.089 106.512 153.477 102 159 102H690Z" fill="#4BADDC"/>
<mask id="path-9-outside-2_1_2" maskUnits="userSpaceOnUse" x="401" y="1007" width="49" height="31" fill="black">
<rect fill="white" x="401" y="1007" width="49" height="31"/>
<path d="M420.2 1011.76H406.8V1019.72C407.36 1018.97 408.187 1018.35 409.28 1017.84C410.4 1017.33 411.587 1017.08 412.84 1017.08C415.08 1017.08 416.893 1017.56 418.28 1018.52C419.693 1019.48 420.693 1020.69 421.28 1022.16C421.893 1023.63 422.2 1025.17 422.2 1026.8C422.2 1028.77 421.813 1030.53 421.04 1032.08C420.293 1033.6 419.16 1034.8 417.64 1035.68C416.147 1036.56 414.307 1037 412.12 1037C409.213 1037 406.88 1036.28 405.12 1034.84C403.36 1033.4 402.307 1031.49 401.96 1029.12H406.4C406.693 1030.37 407.347 1031.37 408.36 1032.12C409.373 1032.84 410.64 1033.2 412.16 1033.2C414.053 1033.2 415.467 1032.63 416.4 1031.48C417.36 1030.33 417.84 1028.81 417.84 1026.92C417.84 1025 417.36 1023.53 416.4 1022.52C415.44 1021.48 414.027 1020.96 412.16 1020.96C410.853 1020.96 409.747 1021.29 408.84 1021.96C407.96 1022.6 407.32 1023.48 406.92 1024.6H402.6V1007.76H420.2V1011.76ZM426.387 1030.92V1027.48L439.827 1008.2H445.347V1026.96H449.067V1030.92H445.347V1037H440.867V1030.92H426.387ZM441.067 1012.84L431.627 1026.96H441.067V1012.84Z"/>
</mask>
<path d="M420.2 1011.76H406.8V1019.72C407.36 1018.97 408.187 1018.35 409.28 1017.84C410.4 1017.33 411.587 1017.08 412.84 1017.08C415.08 1017.08 416.893 1017.56 418.28 1018.52C419.693 1019.48 420.693 1020.69 421.28 1022.16C421.893 1023.63 422.2 1025.17 422.2 1026.8C422.2 1028.77 421.813 1030.53 421.04 1032.08C420.293 1033.6 419.16 1034.8 417.64 1035.68C416.147 1036.56 414.307 1037 412.12 1037C409.213 1037 406.88 1036.28 405.12 1034.84C403.36 1033.4 402.307 1031.49 401.96 1029.12H406.4C406.693 1030.37 407.347 1031.37 408.36 1032.12C409.373 1032.84 410.64 1033.2 412.16 1033.2C414.053 1033.2 415.467 1032.63 416.4 1031.48C417.36 1030.33 417.84 1028.81 417.84 1026.92C417.84 1025 417.36 1023.53 416.4 1022.52C415.44 1021.48 414.027 1020.96 412.16 1020.96C410.853 1020.96 409.747 1021.29 408.84 1021.96C407.96 1022.6 407.32 1023.48 406.92 1024.6H402.6V1007.76H420.2V1011.76ZM426.387 1030.92V1027.48L439.827 1008.2H445.347V1026.96H449.067V1030.92H445.347V1037H440.867V1030.92H426.387ZM441.067 1012.84L431.627 1026.96H441.067V1012.84Z" fill="black"/>
<path d="M420.2 1011.76V1012.06H420.5V1011.76H420.2ZM406.8 1011.76V1011.46H406.5V1011.76H406.8ZM406.8 1019.72H406.5V1020.62L407.04 1019.9L406.8 1019.72ZM409.28 1017.84L409.156 1017.57L409.154 1017.57L409.28 1017.84ZM418.28 1018.52L418.109 1018.77L418.111 1018.77L418.28 1018.52ZM421.28 1022.16L421.001 1022.27L421.003 1022.28L421.28 1022.16ZM421.04 1032.08L420.772 1031.95L420.771 1031.95L421.04 1032.08ZM417.64 1035.68L417.49 1035.42L417.488 1035.42L417.64 1035.68ZM405.12 1034.84L405.31 1034.61L405.12 1034.84ZM401.96 1029.12V1028.82H401.613L401.663 1029.16L401.96 1029.12ZM406.4 1029.12L406.692 1029.05L406.638 1028.82H406.4V1029.12ZM408.36 1032.12L408.182 1032.36L408.186 1032.36L408.36 1032.12ZM416.4 1031.48L416.17 1031.29L416.167 1031.29L416.4 1031.48ZM416.4 1022.52L416.18 1022.72L416.182 1022.73L416.4 1022.52ZM408.84 1021.96L409.016 1022.2L409.018 1022.2L408.84 1021.96ZM406.92 1024.6V1024.9H407.131L407.203 1024.7L406.92 1024.6ZM402.6 1024.6H402.3V1024.9H402.6V1024.6ZM402.6 1007.76V1007.46H402.3V1007.76H402.6ZM420.2 1007.76H420.5V1007.46H420.2V1007.76ZM420.2 1011.76V1011.46H406.8V1011.76V1012.06H420.2V1011.76ZM406.8 1011.76H406.5V1019.72H406.8H407.1V1011.76H406.8ZM406.8 1019.72L407.04 1019.9C407.563 1019.2 408.345 1018.6 409.406 1018.11L409.28 1017.84L409.154 1017.57C408.028 1018.09 407.157 1018.74 406.56 1019.54L406.8 1019.72ZM409.28 1017.84L409.404 1018.11C410.484 1017.62 411.628 1017.38 412.84 1017.38V1017.08V1016.78C411.545 1016.78 410.316 1017.04 409.156 1017.57L409.28 1017.84ZM412.84 1017.08V1017.38C415.039 1017.38 416.787 1017.85 418.109 1018.77L418.28 1018.52L418.451 1018.27C417 1017.27 415.121 1016.78 412.84 1016.78V1017.08ZM418.28 1018.52L418.111 1018.77C419.48 1019.7 420.439 1020.86 421.001 1022.27L421.28 1022.16L421.559 1022.05C420.948 1020.52 419.907 1019.26 418.449 1018.27L418.28 1018.52ZM421.28 1022.16L421.003 1022.28C421.601 1023.7 421.9 1025.21 421.9 1026.8H422.2H422.5C422.5 1025.13 422.186 1023.55 421.557 1022.04L421.28 1022.16ZM422.2 1026.8H421.9C421.9 1028.73 421.521 1030.45 420.772 1031.95L421.04 1032.08L421.308 1032.21C422.105 1030.62 422.5 1028.81 422.5 1026.8H422.2ZM421.04 1032.08L420.771 1031.95C420.051 1033.41 418.96 1034.57 417.49 1035.42L417.64 1035.68L417.79 1035.94C419.36 1035.03 420.535 1033.79 421.309 1032.21L421.04 1032.08ZM417.64 1035.68L417.488 1035.42C416.051 1036.27 414.267 1036.7 412.12 1036.7V1037V1037.3C414.346 1037.3 416.242 1036.85 417.792 1035.94L417.64 1035.68ZM412.12 1037V1036.7C409.263 1036.7 407.003 1035.99 405.31 1034.61L405.12 1034.84L404.93 1035.07C406.757 1036.57 409.164 1037.3 412.12 1037.3V1037ZM405.12 1034.84L405.31 1034.61C403.611 1033.22 402.593 1031.38 402.257 1029.08L401.96 1029.12L401.663 1029.16C402.02 1031.61 403.109 1033.58 404.93 1035.07L405.12 1034.84ZM401.96 1029.12V1029.42H406.4V1029.12V1028.82H401.96V1029.12ZM406.4 1029.12L406.108 1029.19C406.417 1030.51 407.11 1031.57 408.182 1032.36L408.36 1032.12L408.538 1031.88C407.583 1031.18 406.97 1030.24 406.692 1029.05L406.4 1029.12ZM408.36 1032.12L408.186 1032.36C409.261 1033.13 410.592 1033.5 412.16 1033.5V1033.2V1032.9C410.688 1032.9 409.486 1032.55 408.534 1031.88L408.36 1032.12ZM412.16 1033.2V1033.5C414.116 1033.5 415.627 1032.9 416.633 1031.67L416.4 1031.48L416.167 1031.29C415.306 1032.35 413.991 1032.9 412.16 1032.9V1033.2ZM416.4 1031.48L416.63 1031.67C417.646 1030.46 418.14 1028.86 418.14 1026.92H417.84H417.54C417.54 1028.76 417.074 1030.21 416.17 1031.29L416.4 1031.48ZM417.84 1026.92H418.14C418.14 1024.95 417.648 1023.4 416.618 1022.31L416.4 1022.52L416.182 1022.73C417.072 1023.67 417.54 1025.05 417.54 1026.92H417.84ZM416.4 1022.52L416.62 1022.32C415.587 1021.2 414.082 1020.66 412.16 1020.66V1020.96V1021.26C413.971 1021.26 415.293 1021.76 416.18 1022.72L416.4 1022.52ZM412.16 1020.96V1020.66C410.8 1020.66 409.628 1021.01 408.662 1021.72L408.84 1021.96L409.018 1022.2C409.865 1021.58 410.907 1021.26 412.16 1021.26V1020.96ZM408.84 1021.96L408.664 1021.72C407.73 1022.4 407.056 1023.33 406.637 1024.5L406.92 1024.6L407.203 1024.7C407.584 1023.63 408.19 1022.8 409.016 1022.2L408.84 1021.96ZM406.92 1024.6V1024.3H402.6V1024.6V1024.9H406.92V1024.6ZM402.6 1024.6H402.9V1007.76H402.6H402.3V1024.6H402.6ZM402.6 1007.76V1008.06H420.2V1007.76V1007.46H402.6V1007.76ZM420.2 1007.76H419.9V1011.76H420.2H420.5V1007.76H420.2ZM426.387 1030.92H426.087V1031.22H426.387V1030.92ZM426.387 1027.48L426.141 1027.31L426.087 1027.39V1027.48H426.387ZM439.827 1008.2V1007.9H439.67L439.581 1008.03L439.827 1008.2ZM445.347 1008.2H445.647V1007.9H445.347V1008.2ZM445.347 1026.96H445.047V1027.26H445.347V1026.96ZM449.067 1026.96H449.367V1026.66H449.067V1026.96ZM449.067 1030.92V1031.22H449.367V1030.92H449.067ZM445.347 1030.92V1030.62H445.047V1030.92H445.347ZM445.347 1037V1037.3H445.647V1037H445.347ZM440.867 1037H440.567V1037.3H440.867V1037ZM440.867 1030.92H441.167V1030.62H440.867V1030.92ZM441.067 1012.84H441.367V1011.85L440.817 1012.67L441.067 1012.84ZM431.627 1026.96L431.377 1026.79L431.065 1027.26H431.627V1026.96ZM441.067 1026.96V1027.26H441.367V1026.96H441.067ZM426.387 1030.92H426.687V1027.48H426.387H426.087V1030.92H426.387ZM426.387 1027.48L426.633 1027.65L440.073 1008.37L439.827 1008.2L439.581 1008.03L426.141 1027.31L426.387 1027.48ZM439.827 1008.2V1008.5H445.347V1008.2V1007.9H439.827V1008.2ZM445.347 1008.2H445.047V1026.96H445.347H445.647V1008.2H445.347ZM445.347 1026.96V1027.26H449.067V1026.96V1026.66H445.347V1026.96ZM449.067 1026.96H448.767V1030.92H449.067H449.367V1026.96H449.067ZM449.067 1030.92V1030.62H445.347V1030.92V1031.22H449.067V1030.92ZM445.347 1030.92H445.047V1037H445.347H445.647V1030.92H445.347ZM445.347 1037V1036.7H440.867V1037V1037.3H445.347V1037ZM440.867 1037H441.167V1030.92H440.867H440.567V1037H440.867ZM440.867 1030.92V1030.62H426.387V1030.92V1031.22H440.867V1030.92ZM441.067 1012.84L440.817 1012.67L431.377 1026.79L431.627 1026.96L431.876 1027.13L441.316 1013.01L441.067 1012.84ZM431.627 1026.96V1027.26H441.067V1026.96V1026.66H431.627V1026.96ZM441.067 1026.96H441.367V1012.84H441.067H440.767V1026.96H441.067Z" fill="black" mask="url(#path-9-outside-2_1_2)"/>
<path d="M261.445 272H240.865L213.46 230.63V272H192.88V197.975H213.46L240.865 239.87V197.975H261.445V272ZM283.563 207.635C279.923 207.635 276.983 206.655 274.743 204.695C272.573 202.665 271.488 200.145 271.488 197.135C271.488 194.055 272.573 191.5 274.743 189.47C276.983 187.44 279.923 186.425 283.563 186.425C287.133 186.425 290.003 187.44 292.173 189.47C294.413 191.5 295.533 194.055 295.533 197.135C295.533 200.145 294.413 202.665 292.173 204.695C290.003 206.655 287.133 207.635 283.563 207.635ZM293.748 213.095V272H273.168V213.095H293.748ZM327.203 212.36C331.193 212.36 334.658 213.165 337.598 214.775C340.608 216.385 342.918 218.555 344.528 221.285V213.095H365.108V271.37C365.108 276.9 364.058 281.87 361.958 286.28C359.858 290.76 356.568 294.33 352.088 296.99C347.678 299.65 342.078 300.98 335.288 300.98C326.188 300.98 318.908 298.845 313.448 294.575C307.988 290.305 304.873 284.495 304.103 277.145H324.368C324.788 279.035 325.838 280.505 327.518 281.555C329.198 282.605 331.368 283.13 334.028 283.13C341.028 283.13 344.528 279.21 344.528 271.37V263.81C342.918 266.54 340.608 268.71 337.598 270.32C334.658 271.93 331.193 272.735 327.203 272.735C322.513 272.735 318.243 271.51 314.393 269.06C310.613 266.61 307.603 263.11 305.363 258.56C303.193 253.94 302.108 248.585 302.108 242.495C302.108 236.405 303.193 231.085 305.363 226.535C307.603 221.985 310.613 218.485 314.393 216.035C318.243 213.585 322.513 212.36 327.203 212.36ZM344.528 242.495C344.528 238.715 343.478 235.74 341.378 233.57C339.348 231.4 336.828 230.315 333.818 230.315C330.738 230.315 328.183 231.4 326.153 233.57C324.123 235.67 323.108 238.645 323.108 242.495C323.108 246.275 324.123 249.285 326.153 251.525C328.183 253.695 330.738 254.78 333.818 254.78C336.828 254.78 339.348 253.695 341.378 251.525C343.478 249.355 344.528 246.345 344.528 242.495ZM415.58 212.57C422.3 212.57 427.62 214.845 431.54 219.395C435.53 223.875 437.525 229.965 437.525 237.665V272H416.945V240.395C416.945 237.035 416.07 234.41 414.32 232.52C412.57 230.56 410.225 229.58 407.285 229.58C404.205 229.58 401.79 230.56 400.04 232.52C398.29 234.41 397.415 237.035 397.415 240.395V272H376.835V194.3H397.415V221.495C399.235 218.835 401.685 216.7 404.765 215.09C407.915 213.41 411.52 212.57 415.58 212.57ZM483.573 254.465V272H474.648C459.598 272 452.073 264.545 452.073 249.635V230.21H444.828V213.095H452.073V198.815H472.758V213.095H483.468V230.21H472.758V249.95C472.758 251.56 473.108 252.715 473.807 253.415C474.578 254.115 475.838 254.465 477.588 254.465H483.573ZM524.827 230.21H515.587V272H494.902V230.21H488.497V213.095H494.902V212.57C494.902 205.01 497.107 199.235 501.517 195.245C505.997 191.185 512.402 189.155 520.732 189.155C522.412 189.155 523.707 189.19 524.617 189.26V206.795C524.057 206.725 523.287 206.69 522.307 206.69C520.067 206.69 518.422 207.215 517.372 208.265C516.322 209.245 515.727 210.855 515.587 213.095H524.827V230.21ZM528.822 242.495C528.822 236.405 529.907 231.085 532.077 226.535C534.317 221.985 537.327 218.485 541.107 216.035C544.957 213.585 549.227 212.36 553.917 212.36C557.977 212.36 561.477 213.165 564.417 214.775C567.357 216.385 569.632 218.555 571.242 221.285V213.095H591.822V272H571.242V263.81C569.632 266.54 567.322 268.71 564.312 270.32C561.372 271.93 557.907 272.735 553.917 272.735C549.227 272.735 544.957 271.51 541.107 269.06C537.327 266.61 534.317 263.11 532.077 258.56C529.907 253.94 528.822 248.585 528.822 242.495ZM571.242 242.495C571.242 238.715 570.192 235.74 568.092 233.57C566.062 231.4 563.542 230.315 560.532 230.315C557.452 230.315 554.897 231.4 552.867 233.57C550.837 235.67 549.822 238.645 549.822 242.495C549.822 246.275 550.837 249.285 552.867 251.525C554.897 253.695 557.452 254.78 560.532 254.78C563.542 254.78 566.062 253.695 568.092 251.525C570.192 249.355 571.242 246.345 571.242 242.495ZM624.129 194.3V272H603.549V194.3H624.129ZM656.429 194.3V272H635.849V194.3H656.429Z" fill="black"/>
<path d="M240.572 346.338C244.804 345.771 249.455 346.088 253.736 346.091L277.733 346.117L357.387 346.124L520.799 346.12L575.205 346.107C584.68 346.105 594.192 345.918 603.66 346.144C608.106 346.251 612.574 346.768 616.855 348.008C629.646 351.711 640.719 361.776 647.02 373.337C650.745 380.172 652.364 387.325 652.737 395.065C653.283 406.417 652.849 417.995 652.84 429.368L652.798 493.208L652.35 701.919L652.476 817.539L652.583 858.927C652.635 871.656 654.094 887.933 650.505 900.022C646.554 913.286 637.468 924.429 625.265 930.972C621.832 932.819 612.384 937.693 608.742 936.611C608.043 937.231 607.162 937.343 606.268 937.46C599.89 938.294 593.093 937.828 586.655 937.828L551.9 937.833L435.11 937.828L303.781 937.823L263.642 937.842C256.591 937.847 249.167 938.323 242.158 937.6C232.658 936.62 223.661 932.656 216.095 926.872C205.209 918.552 197.512 906.435 195.748 892.741C194.687 884.514 195.227 875.802 195.227 867.505L195.226 824.265L195.239 672.841L195.289 482.47L195.253 421.533C195.248 411.993 194.588 400.062 195.42 390.831C196.223 381.909 199.966 373.246 205.447 366.202C214.753 354.24 225.578 348.236 240.572 346.338Z" fill="black"/>
<path d="M242.052 363.804C246.187 363.248 250.795 363.602 254.978 363.607L279.382 363.636L362.202 363.629L522.598 363.636L574.905 363.613C584.136 363.607 593.419 363.399 602.646 363.635C606.277 363.728 609.645 364.161 613.099 365.348C621.649 368.287 628.647 374.826 632.546 382.954C634.526 387.082 635.343 391.517 635.511 396.066C635.832 404.765 635.558 413.578 635.549 422.286L635.523 471.682L635.505 623.2L635.504 798.416V859.347L635.508 878.287C635.512 881.818 635.71 885.502 635.389 889.014C635.149 891.65 634.494 894.299 633.617 896.789C630.408 905.898 622.901 913.272 614.242 917.325C612.267 918.248 608.459 919.918 606.293 919.134C605.908 919.466 605.486 919.633 604.988 919.727C601.487 920.38 597.247 919.937 593.657 919.941L569.996 919.946L482.165 919.941L322.139 919.937L271.022 919.951C262.029 919.96 252.734 920.45 243.779 919.815C237.868 919.396 232.645 917.138 227.819 913.794C220.225 908.533 214.602 900.684 212.982 891.486C211.962 885.698 212.506 879.234 212.523 873.343L212.572 842.878L212.575 728.121L212.576 504.34L212.568 432.759C212.555 420.283 212.01 407.535 212.629 395.083C212.935 388.917 214.434 383.476 218.069 378.409C224.405 369.578 231.444 365.535 242.052 363.804Z" fill="#34478D"/>
<path d="M431.174 763.441C438.236 742.345 450.641 725.666 470.92 715.571C487.494 707.32 507.762 705.697 525.356 711.595C540.645 716.797 553.252 727.839 560.42 742.308C564.365 750.271 566.686 759.22 567.413 768.063C567.493 768.077 567.573 768.091 567.653 768.096C571.256 768.497 575.236 767.13 578.97 767.294C591.66 767.839 605.072 775.642 613.05 785.278C622.31 796.462 625.171 811.168 623.811 825.374C622.398 840.126 615.792 853.685 604.268 863.143C595.198 870.592 583.633 874.789 572.092 876.375C556.418 878.53 536.186 877.214 520.054 876.925C498.94 876.664 477.824 876.552 456.708 876.59C447.068 876.594 437.446 877.093 427.812 877.13C408.784 877.2 389.697 877.312 370.672 877.103C363.711 877.028 356.756 876.683 349.796 876.599C341.739 876.496 333.666 876.813 325.605 876.841C322.627 876.851 319.461 877.056 316.499 876.776C315.979 876.725 315.522 876.561 315.066 876.314C313.03 877.382 309.799 877.009 307.606 876.659C298.45 875.209 289.507 869.141 284.175 861.59C279.993 855.672 278.368 848.578 279.621 841.446C279.966 828.793 283.224 816.811 292.634 807.805C302.011 798.831 315.21 795.954 327.851 796.364C330.896 796.462 341.428 798.822 342.875 798.482C344.262 794.536 345.671 790.576 347.629 786.873C353.559 775.665 363.875 765.964 375.285 760.503C388.63 754.111 404.562 752.432 418.646 757.411C423.082 758.978 427.094 761.118 431.174 763.441Z" fill="black"/>
<path d="M279.621 841.446C280.848 852.397 285.693 860.695 294.265 867.523C298.358 870.783 309.52 877.084 314.552 876.44C314.757 876.412 314.856 876.375 315.066 876.314C313.03 877.382 309.799 877.009 307.606 876.659C298.45 875.209 289.507 869.141 284.175 861.59C279.993 855.671 278.368 848.578 279.621 841.446Z" fill="#2A2F5F"/>
<path d="M444.704 766.948C445.867 762.998 447.195 759.131 449.031 755.437C455.867 741.675 468.91 729.758 483.57 724.894C497.989 720.11 515.33 721.362 528.905 728.135C540.733 734.553 548.178 745.082 551.943 757.891C553.386 762.839 554.144 767.96 554.196 773.118C554.234 776.383 553.61 780.669 554.456 783.785C554.8 785.049 555.851 786.257 557.003 786.873C558.809 787.838 561.018 787.512 562.879 786.882C565.35 786.042 567.71 784.676 570.098 783.608C576.674 780.674 583.006 781.038 589.459 784.163C598.328 788.458 605.634 796.387 608.788 805.752C612.44 816.592 610.968 829.086 605.887 839.249C601.037 849.025 592.451 856.436 582.068 859.808C575.621 861.925 568.804 862.854 562.046 863.194C555.262 863.539 548.41 863.399 541.617 863.381C521.756 863.325 501.856 862.439 482 862.644L373.715 862.896L338.543 862.924C332.084 862.933 325.478 863.217 319.038 862.821C314.366 862.532 309.77 861.576 305.586 859.412C299.926 856.487 295.177 851.604 293.315 845.42C291.311 838.759 292.986 831.227 296.246 825.248C300.027 818.312 306.209 813.513 313.766 811.298C323.48 808.448 332.745 810.127 341.889 813.924C344.543 815.024 347.684 816.717 350.553 816.979C352.055 817.114 353.35 816.358 354.112 815.076C355.104 813.401 355.259 811.121 355.576 809.227C355.66 806.112 356.493 802.767 357.443 799.796C361.06 788.5 369.481 779.27 379.972 773.879C389.164 769.159 400.807 767.093 410.914 769.541C414.694 770.455 418.11 772.064 421.773 773.235C423.345 774.513 425.289 775.376 426.872 776.658C430.475 779.587 432.993 784.433 437.86 785.557C438.928 785.805 440.044 785.856 440.984 785.208C444.209 782.997 443.831 771.071 444.704 766.948Z" fill="#63BED8"/>
<path d="M444.704 766.948C445.867 762.998 447.195 759.131 449.031 755.437C455.867 741.675 468.91 729.758 483.57 724.894C497.989 720.11 515.33 721.362 528.905 728.135C528.835 730.396 528.433 732.088 526.654 733.683C523.789 736.249 519.493 736.154 515.916 735.834C511.776 735.464 507.716 734.999 503.55 735.336C492.217 736.251 480.794 742.539 472.219 749.679C467.88 753.292 464.124 757.475 460.553 761.832C458.157 764.756 455.824 768.058 452.956 770.525C451.983 771.365 450.856 772.144 449.512 772.097C448.138 772.05 447.025 771.169 446.172 770.166C445.334 769.177 444.911 768.235 444.704 766.948Z" fill="#B6DFFD"/>
<path d="M355.576 809.227C355.661 806.112 356.493 802.768 357.443 799.797C361.06 788.501 369.481 779.271 379.972 773.879C389.164 769.159 400.808 767.093 410.914 769.542C414.694 770.456 418.11 772.065 421.773 773.235C422.393 776.267 424.321 780.94 422.372 783.818C421.87 784.56 421.02 785.045 420.145 785.184C416.271 785.809 411.426 784.135 407.42 783.883C392.674 782.955 380.031 790.497 371.159 801.779C368.781 804.801 364.72 811.998 360.737 812.506C359.514 812.66 358.46 812.24 357.513 811.489C356.712 810.855 356.117 810.09 355.576 809.227Z" fill="#B6DFFD"/>
<path d="M358.903 624.313C342.78 590.711 342.148 551.091 354.452 516.174C366.182 482.888 388.923 456.597 420.908 441.332C429.82 437.078 457.562 426.96 466.49 430.034C468.833 430.85 470.746 432.579 471.795 434.828C473.21 437.793 473.815 441.964 472.651 445.104C470.946 449.702 462.927 459.903 459.89 464.896C448.839 483.061 437.268 507.374 438.026 529.144C438.347 538.354 440.948 547.751 444.648 556.152C453.378 575.924 469.67 591.373 489.881 599.043C510.391 606.981 536.228 607.528 556.474 598.49C561.047 596.449 570.149 589.979 575.191 591.756C577.086 592.424 578.81 594.067 579.619 595.903C582.313 602.015 578.563 610.845 576.131 616.614C564.148 645.038 539.893 668.209 511.438 679.769C481.436 691.926 447.826 691.629 418.044 678.944C408.246 674.799 397.711 669.204 389.781 662.03C387.621 661.23 385.6 659.745 383.757 658.369C374.851 651.721 360.543 635.614 358.903 624.313Z" fill="black"/>
<path d="M358.903 624.313C364.998 633.911 370.974 641.771 378.635 650.148C382.195 654.039 386.62 657.871 389.781 662.031C387.621 661.23 385.6 659.745 383.757 658.369C374.851 651.721 360.543 635.614 358.903 624.313Z" fill="#2A2F5F"/>
<path d="M453.212 444.267C453.755 444.217 454.258 444.341 454.761 444.543C455.443 444.817 455.976 445.361 456.202 446.066C456.506 447.014 456.292 447.697 455.821 448.534C453.757 452.203 450.824 455.621 448.379 459.059C443.648 465.711 439.348 472.663 435.95 480.094C424.177 505.837 419.903 530.877 430.079 557.851C439.019 581.604 457.104 600.786 480.294 611.109C506.949 623.154 535.756 622 562.774 611.844C550.8 637.576 530.357 656.692 503.856 666.658C497.517 668.931 490.987 670.629 484.343 671.73C456.345 676.313 426.463 670.174 403.301 653.523C380.762 637.319 366.883 615.826 362.412 588.46C356.846 554.388 363.455 518.741 383.883 490.482C396.703 472.745 414.599 459.5 434.459 450.543C440.5 447.819 446.641 445.322 453.212 444.267Z" fill="url(#paint0_linear_1_2)"/>
<path d="M415.604 469.038C416.511 469.053 417.527 469.144 418.297 469.674C419.09 470.22 419.523 471.088 419.668 472.021C420.221 475.593 417.704 479.483 415.722 482.225C409.896 490.289 396.168 508.862 386.073 510.456C385.663 510.296 385.251 510.143 384.846 509.97C383.645 509.456 382.805 508.734 382.366 507.461C381.569 505.148 382.531 502.454 383.559 500.37C388.1 491.168 405.722 472.307 415.604 469.038Z" fill="#FFE682"/>
<path d="M247.911 658.488C248.496 652.885 250.01 648.364 254.51 644.719C261.68 638.911 271.223 639.122 278.762 634.256C288.865 627.737 289.251 608.891 305.95 610.913C310.313 611.441 313.751 613.951 316.395 617.36C320.141 622.192 322.113 629.599 326.981 633.312C333.864 638.562 352.162 635.92 356.83 648.18C357.819 650.743 358.132 653.516 357.738 656.235C356.191 666.999 346.962 671.502 343.792 679.671C339.479 690.782 353.048 706.137 337.439 717.406C333.721 720.091 329.332 721.443 324.755 720.702C318.114 719.627 312.608 715.101 306 713.787C303.425 714.996 300.281 714.98 297.616 716.191C293.395 718.109 289.931 721.325 285.469 722.87C284.395 723.246 283.286 723.514 282.16 723.672C277.633 724.283 273.668 722.545 270.127 719.838C267.48 717.814 265.598 715.504 265.152 712.143C261.027 702.42 264.335 696.917 264.265 687.476C264.237 683.677 263.186 681.35 260.486 678.735C260.016 678.665 259.549 678.572 259.094 678.433C254.823 677.123 250.948 674.931 248.783 670.885C246.694 666.979 246.668 662.655 247.911 658.488Z" fill="black"/>
<path d="M265.152 712.144C268.037 716.05 270.889 718.574 275.86 719.34C286.98 721.054 296.933 711.701 306 713.788C303.425 714.997 300.281 714.98 297.616 716.191C293.395 718.109 289.931 721.326 285.469 722.871C284.395 723.246 283.286 723.515 282.16 723.672C277.633 724.283 273.668 722.545 270.127 719.838C267.48 717.814 265.598 715.505 265.152 712.144Z" fill="#2A2F5F"/>
<path d="M247.911 658.487C249.219 667.174 255.121 672.419 260.486 678.735C260.016 678.665 259.549 678.572 259.094 678.432C254.823 677.122 250.948 674.931 248.783 670.884C246.694 666.979 246.668 662.655 247.911 658.487Z" fill="#2A2F5F"/>
<path d="M264.086 653.334C273.06 648.849 285.068 649.181 290.789 641.083C293.907 636.67 295.707 630.805 299.79 627.161C300.839 626.225 302.194 625.184 303.679 625.352C308.618 625.911 313.461 638.78 316.425 642.753C321.69 649.808 329.85 649.555 337.92 650.703C339.893 651.006 342.441 651.606 343.717 653.28C344.407 654.188 344.556 655.289 344.392 656.395C343.03 665.556 331.059 669.046 330.012 677.872C329.241 684.368 335.397 702.844 330.178 706.572C321.077 709.183 312.282 698.627 302.807 699.175C296.248 699.555 282.709 709.755 277.426 706.713C276.106 705.953 275.346 704.553 275.019 703.102C273.341 695.649 279.282 682.308 276.154 676.213C273.622 671.28 256.94 661.548 261.514 655.301C262.121 654.472 263.198 653.833 264.086 653.334Z" fill="#FFBE07"/>
<path d="M337.92 650.702C339.893 651.006 342.441 651.606 343.717 653.28C344.407 654.187 344.556 655.289 344.392 656.394C343.03 665.556 331.059 669.045 330.012 677.871C329.241 684.367 335.397 702.844 330.178 706.571C321.077 709.183 312.282 698.627 302.807 699.175C296.248 699.554 282.709 709.755 277.426 706.713C276.106 705.952 275.346 704.552 275.019 703.102C273.341 695.649 279.282 682.307 276.154 676.213C273.622 671.28 256.94 661.548 261.514 655.3C262.121 654.471 263.198 653.832 264.086 653.334C266.574 658.632 276.12 664.142 279.289 671.838C281.756 677.827 277.814 686.545 279.824 690.725C281.907 695.057 295.737 687.873 299.378 687.025C306.217 685.433 312.998 689.903 319.259 692.216C321.05 692.878 323.737 693.855 325.577 693.003C328.306 689.909 325.472 677.362 326.641 672.108C328.441 664.023 336.127 661.05 337.92 650.702Z" fill="#FE9200"/>
<path d="M246.816 459.997C247.366 455.316 248.968 451.639 252.741 448.675C259.378 443.461 266.84 443.888 272.523 439.928C282.232 433.161 283.302 415.339 298.677 417.209C302.621 417.689 305.479 419.931 307.855 422.995C311.16 427.256 313.358 434.104 317.635 437.328C325.771 443.46 339.45 439.535 344.33 450.817C345.474 453.461 345.895 456.581 345.541 459.438C344.352 469.045 336.707 472.883 334.21 480.504C330.611 491.492 341.106 505.4 329.863 513.952C326.145 516.78 321.585 517.891 316.975 517.203C313.28 516.651 310.132 515.017 306.963 513.147C304.643 512.663 302.112 512.09 299.732 512.296C292.704 512.904 286.786 521.505 277.811 522.736C272.459 523.471 267.873 521.416 263.688 518.227C259.605 515.092 256.972 510.432 256.393 505.318C255.973 501.84 256.567 499.605 258.736 496.882C259.501 492.022 260.015 487.124 260.276 482.211C255.283 478.381 248.474 473.647 246.361 467.503C245.466 464.9 245.642 462.468 246.816 459.997Z" fill="black"/>
<path d="M306.963 513.148C304.643 512.664 302.112 512.092 299.732 512.297C292.704 512.906 286.786 521.506 277.811 522.738C272.459 523.472 267.872 521.418 263.687 518.229C259.605 515.093 256.972 510.434 256.393 505.32C255.973 501.841 256.567 499.606 258.736 496.884C258.594 502.564 259.141 507.202 263.269 511.523C266.916 515.34 271.95 517.523 277.23 517.578C286.211 517.639 291.171 510.294 299.462 508.616C302.354 509.73 304.56 511.216 306.963 513.148Z" fill="#2A2F5F"/>
<path d="M260.276 482.211C255.283 478.381 248.474 473.647 246.361 467.503C245.466 464.9 245.642 462.468 246.816 459.997C248.588 471.298 259.184 474.621 260.276 482.211Z" fill="#2A2F5F"/>
<path d="M271.11 493.719C274.131 479.664 273.89 475.994 263.498 465.929C262.07 464.546 260.284 462.954 259.615 461.035C259.241 459.962 259.281 458.598 259.811 457.58C261.895 453.576 272.059 452.646 276.241 451.424C283.676 449.253 285.885 443.227 289.296 436.994C290.666 434.492 293.111 431.156 296.055 430.432C301.272 429.15 305.225 442.987 308.672 446.739C314.058 452.603 323.32 450.112 329.779 453.777C331.196 454.581 332.693 455.878 333.038 457.539C334.24 463.339 324.142 471.191 321.383 475.951C318.799 480.408 321.432 487.526 322.653 492.125C323.246 495.285 324.434 500.62 322.386 503.404C321.849 504.135 321.127 504.515 320.227 504.575C313.168 505.05 305.768 494.022 297.232 495.503C290.55 496.662 277.387 508.671 272.137 503.267C270.723 501.812 270.45 499.386 270.588 497.446C270.677 496.2 270.904 494.951 271.11 493.719Z" fill="#FFBE07"/>
<path d="M271.11 493.72C282.101 496.42 287.898 487.783 297.714 487.845C303.973 487.884 309.425 492.498 315.504 493.569C318.071 494.021 320.486 493.634 322.653 492.126C323.246 495.286 324.434 500.621 322.387 503.405C321.849 504.136 321.127 504.516 320.227 504.576C313.168 505.051 305.768 494.023 297.232 495.504C290.55 496.663 277.387 508.672 272.137 503.268C270.723 501.813 270.45 499.387 270.588 497.447C270.677 496.201 270.904 494.952 271.11 493.72Z" fill="#FE9200"/>
<path d="M504.917 458.774C503.536 455.147 502.953 451.347 504.561 447.656C506.238 443.806 510.27 441.169 514.063 439.718C519.022 437.821 525.543 437.793 529.824 434.481C536.911 428.999 535.934 417.477 547.383 415.643C550.152 415.2 552.91 415.501 555.456 416.697C562.493 420.005 564.929 427.696 570.691 432.315C578.148 438.293 591.936 434.093 595.641 444.964C596.983 448.903 595.716 452.786 593.901 456.355C591.237 461.594 587.641 466.22 583.718 470.566C583.968 479.458 587.833 491.59 580.9 498.781C579.246 500.497 577.259 501.536 575.046 502.357C565.202 507.504 559.652 499.111 550.458 499.783C543.602 500.285 539.152 506.02 531.173 505.878C526.767 505.8 522.901 503.832 519.904 500.643C517.685 498.282 517.17 495.969 517.298 492.808C516.224 486.211 518.405 479.636 517.18 472.906C515.152 471.914 513.266 470.459 511.538 469.01C508.349 466.334 505.275 463.095 504.917 458.774Z" fill="black"/>
<path d="M517.298 492.808C518.52 496.383 520.736 499.896 524.232 501.627C527.687 503.336 532.081 503.333 535.674 502.09C540.026 500.585 543.741 497.543 548.216 496.353C556.891 494.044 565.983 502.013 575.047 502.357C565.203 507.503 559.652 499.11 550.459 499.783C543.603 500.284 539.152 506.019 531.173 505.878C526.768 505.799 522.902 503.831 519.905 500.643C517.686 498.282 517.171 495.969 517.298 492.808Z" fill="#2A2F5F"/>
<path d="M504.917 458.774C508.581 463.631 515.075 467.137 517.18 472.906C515.153 471.914 513.266 470.46 511.538 469.01C508.349 466.335 505.275 463.095 504.917 458.774Z" fill="#2A2F5F"/>
<path d="M523.427 448.987C530.45 447.14 536.501 447.155 540.502 440.242C542.492 436.804 544.753 428.114 548.703 426.946C549.722 426.644 550.905 426.967 551.776 427.523C556.899 430.792 557.066 439.389 561.914 443.226C566.464 446.827 580.578 445.545 583.053 449.494C583.153 454.01 575.807 461.199 572.804 464.327C572.46 464.686 572.112 465.041 571.759 465.391C571.709 467.92 571.649 470.459 571.966 472.973C572.706 478.839 574.462 484.768 574.339 490.706C563.067 488.251 554.547 478.452 543.602 484.864C541.15 486.492 538.688 488.257 536.107 489.673C534.492 490.559 532.761 491.298 530.912 490.752C530.297 490.313 529.854 489.93 529.656 489.174C528.431 484.503 531.525 475.23 530.363 469.205C528.969 461.98 519.567 460.666 517.513 454.114C517.231 453.216 517.161 452.214 517.674 451.384C518.674 449.764 521.688 449.408 523.427 448.987Z" fill="#FFBE07"/>
<path d="M543.602 484.863C541.15 486.491 538.688 488.256 536.107 489.672C534.492 490.558 532.761 491.298 530.912 490.751C530.297 490.312 529.854 489.929 529.656 489.173C528.431 484.502 531.525 475.229 530.363 469.204C528.969 461.979 519.567 460.665 517.513 454.113C517.231 453.215 517.161 452.213 517.674 451.383C518.674 449.763 521.688 449.407 523.427 448.986C523.191 450.418 522.848 451.648 523.715 452.933C527.109 457.96 532.598 455.428 534.403 464.544C535.307 469.107 534.281 480.396 536.383 483.684C536.785 484.312 537.562 484.719 538.278 484.851C540.044 485.178 541.805 484.545 543.602 484.863Z" fill="#FE9200"/>
<path d="M262.991 568.314C266.384 567.531 269.786 569.582 270.678 572.946C271.57 576.311 269.631 579.777 266.296 580.777C264.041 581.455 261.595 580.849 259.916 579.198C258.238 577.547 257.592 575.112 258.232 572.846C258.872 570.581 260.696 568.843 262.991 568.314Z" fill="#FFE682"/>
<path d="M271.967 765.33C272.603 765.256 273.243 765.214 273.882 765.204C275.403 765.19 276.82 765.755 277.866 766.874C279.016 768.105 279.509 769.766 279.442 771.431C279.368 773.254 278.603 774.989 277.227 776.202C276.464 776.874 275.642 777.429 274.597 777.368C274.51 777.433 274.424 777.503 274.335 777.569C273.416 778.245 272.209 778.347 271.109 778.096C269.904 777.82 268.89 776.93 268.242 775.908C267.202 774.262 266.943 772.28 267.42 770.409C268.072 767.858 269.792 766.576 271.967 765.33Z" fill="#FFE682"/>
<path d="M389.421 710.369C390.604 710.366 391.82 710.533 392.884 711.085C394.142 711.738 394.985 712.779 395.4 714.13C395.962 715.959 395.539 718.019 394.635 719.667C393.439 721.847 391.873 722.722 389.561 723.385C388.711 723.294 387.748 723.107 386.962 722.761C385.458 722.098 384.233 720.88 383.681 719.319C383.099 717.668 383.337 715.88 384.122 714.341C385.274 712.085 387.103 711.124 389.421 710.369Z" fill="#FFE682"/>
<path d="M578.801 678.908C579.61 678.891 580.501 678.93 581.282 679.137C582.776 679.532 584.138 680.894 584.793 682.255C585.634 684.002 585.64 686.044 584.991 687.849C584.162 690.154 582.645 691.153 580.542 692.116C579.713 692.165 578.786 692.214 577.978 692.005C576.454 691.613 575.114 690.477 574.434 689.07C573.649 687.446 573.669 685.495 574.226 683.804C575.03 681.366 576.576 680.038 578.801 678.908Z" fill="#FFE682"/>
<path d="M384.718 411.627C385.551 411.584 386.376 411.55 387.191 411.765C388.566 412.119 389.733 413.029 390.411 414.278C391.157 415.683 391.132 417.384 390.618 418.862C389.85 421.07 388.369 422.186 386.375 423.161C385.451 423.187 384.521 423.222 383.633 422.924C382.128 422.413 380.918 421.274 380.319 419.802C379.716 418.318 379.854 416.589 380.501 415.145C381.381 413.178 382.833 412.388 384.718 411.627Z" fill="#FFE682"/>
<path d="M498.305 536.354C501.108 536.241 503.483 538.399 503.638 541.2C503.794 544 501.672 546.408 498.874 546.606C497.025 546.737 495.249 545.862 494.227 544.316C493.205 542.77 493.094 540.793 493.94 539.144C494.784 537.495 496.453 536.428 498.305 536.354Z" fill="#FFE682"/>
<defs>
<linearGradient id="paint0_linear_1_2" x1="475.116" y1="672.649" x2="433.883" y2="448.146" gradientUnits="userSpaceOnUse">
<stop stop-color="#FFC100"/>
<stop offset="1" stop-color="#FFDB06"/>
</linearGradient>
</defs>
</svg>
