<svg width="849" height="1183" viewBox="0 0 849 1183" fill="none" xmlns="http://www.w3.org/2000/svg">
<rect x="5" y="5" width="839" height="1173" rx="45" fill="white"/>
<rect x="5" y="5" width="839" height="1173" rx="45" stroke="black" stroke-width="10"/>
<circle cx="786.5" cy="1124.5" r="11.5" fill="black"/>
<circle cx="786.5" cy="59.5" r="11.5" fill="black"/>
<path d="M77 1124.5C77 1130.85 71.8513 1136 65.5 1136C59.1487 1136 54 1130.85 54 1124.5C54 1118.15 59.1487 1113 65.5 1113C71.8513 1113 77 1118.15 77 1124.5Z" fill="black"/>
<path d="M77 59.5C77 65.8513 71.8513 71 65.5 71C59.1487 71 54 65.8513 54 59.5C54 53.1487 59.1487 48 65.5 48C71.8513 48 77 53.1487 77 59.5Z" fill="black"/>
<mask id="path-6-inside-1_1_2681" fill="white">
<path d="M708 48C713.523 48 717.934 52.4996 718.616 57.9801C723.122 94.1833 751.817 122.878 788.02 127.384C793.5 128.066 798 132.477 798 138V1046C798 1051.52 793.5 1055.93 788.02 1056.62C751.817 1061.12 723.122 1089.82 718.616 1126.02C717.934 1131.5 713.523 1136 708 1136H141C135.477 1136 131.066 1131.5 130.384 1126.02C125.878 1089.82 97.1833 1061.12 60.9801 1056.62C55.4996 1055.93 51 1051.52 51 1046V138C51 132.477 55.4996 128.066 60.9801 127.384C97.1833 122.878 125.878 94.1833 130.384 57.9801C131.066 52.4996 135.477 48 141 48H708Z"/>
</mask>
<path d="M708 48C713.523 48 717.934 52.4996 718.616 57.9801C723.122 94.1833 751.817 122.878 788.02 127.384C793.5 128.066 798 132.477 798 138V1046C798 1051.52 793.5 1055.93 788.02 1056.62C751.817 1061.12 723.122 1089.82 718.616 1126.02C717.934 1131.5 713.523 1136 708 1136H141C135.477 1136 131.066 1131.5 130.384 1126.02C125.878 1089.82 97.1833 1061.12 60.9801 1056.62C55.4996 1055.93 51 1051.52 51 1046V138C51 132.477 55.4996 128.066 60.9801 127.384C97.1833 122.878 125.878 94.1833 130.384 57.9801C131.066 52.4996 135.477 48 141 48H708Z" fill="#006AB6"/>
<path d="M130.384 1126.02L138.322 1125.03L130.384 1126.02ZM718.616 1126.02L710.678 1125.03L718.616 1126.02ZM788.02 1056.62L789.008 1064.56L788.02 1056.62ZM718.616 57.9801L726.555 56.9922L718.616 57.9801ZM718.616 57.9801L710.678 58.9681C715.635 98.8063 747.194 130.365 787.032 135.322L788.02 127.384L789.008 119.445C756.44 115.392 730.608 89.5603 726.555 56.9922L718.616 57.9801ZM798 138H790V1046H798H806V138H798ZM788.02 1056.62L787.032 1048.68C747.194 1053.64 715.635 1085.19 710.678 1125.03L718.616 1126.02L726.555 1127.01C730.608 1094.44 756.44 1068.61 789.008 1064.56L788.02 1056.62ZM708 1136V1128H141V1136V1144H708V1136ZM130.384 1126.02L138.322 1125.03C133.365 1085.19 101.806 1053.64 61.9681 1048.68L60.9801 1056.62L59.9922 1064.56C92.5603 1068.61 118.392 1094.44 122.445 1127.01L130.384 1126.02ZM51 1046H59V138H51H43V1046H51ZM60.9801 127.384L61.9681 135.322C101.806 130.365 133.365 98.8063 138.322 58.9681L130.384 57.9801L122.445 56.9922C118.392 89.5603 92.5603 115.392 59.9922 119.445L60.9801 127.384ZM141 48V56H708V48V40H141V48ZM130.384 57.9801L138.322 58.9681C138.438 58.0389 138.872 57.2306 139.427 56.6958C139.954 56.1887 140.494 56 141 56V48V40C130.84 40 123.547 48.1329 122.445 56.9922L130.384 57.9801ZM51 138H59C59 137.494 59.1887 136.954 59.6958 136.427C60.2306 135.872 61.0389 135.438 61.9681 135.322L60.9801 127.384L59.9922 119.445C51.1329 120.547 43 127.84 43 138H51ZM60.9801 1056.62L61.9681 1048.68C61.0389 1048.56 60.2306 1048.13 59.6958 1047.57C59.1887 1047.05 59 1046.51 59 1046H51H43C43 1056.16 51.1329 1063.45 59.9922 1064.56L60.9801 1056.62ZM141 1136V1128C140.494 1128 139.954 1127.81 139.427 1127.3C138.872 1126.77 138.438 1125.96 138.322 1125.03L130.384 1126.02L122.445 1127.01C123.547 1135.87 130.84 1144 141 1144V1136ZM718.616 1126.02L710.678 1125.03C710.562 1125.96 710.128 1126.77 709.573 1127.3C709.046 1127.81 708.506 1128 708 1128V1136V1144C718.16 1144 725.453 1135.87 726.555 1127.01L718.616 1126.02ZM798 1046H790C790 1046.51 789.811 1047.05 789.304 1047.57C788.769 1048.13 787.961 1048.56 787.032 1048.68L788.02 1056.62L789.008 1064.56C797.867 1063.45 806 1056.16 806 1046H798ZM788.02 127.384L787.032 135.322C787.961 135.438 788.769 135.872 789.304 136.427C789.811 136.954 790 137.494 790 138H798H806C806 127.84 797.867 120.547 789.008 119.445L788.02 127.384ZM718.616 57.9801L726.555 56.9922C725.453 48.1329 718.16 40 708 40V48V56C708.506 56 709.046 56.1887 709.573 56.6958C710.128 57.2306 710.562 58.0389 710.678 58.9681L718.616 57.9801Z" fill="black" mask="url(#path-6-inside-1_1_2681)"/>
<path d="M690 102C695.523 102 699.911 106.512 700.837 111.957C705.019 136.563 724.437 155.981 749.043 160.163C754.488 161.089 759 165.477 759 171V1014C759 1019.52 754.488 1023.91 749.043 1024.84C724.711 1028.97 705.454 1048 700.984 1072.22C699.993 1077.59 695.633 1082 690.175 1082H158.825C153.367 1082 149.007 1077.59 148.016 1072.22C143.546 1048 124.288 1028.97 99.9568 1024.84C94.5121 1023.91 90 1019.52 90 1014V171C90 165.477 94.512 161.089 99.9568 160.163C124.563 155.981 143.981 136.563 148.163 111.957C149.089 106.512 153.477 102 159 102H690Z" fill="#5298CB"/>
<mask id="path-9-outside-2_1_2681" maskUnits="userSpaceOnUse" x="420" y="1006" width="33" height="32" fill="black">
<rect fill="white" x="420" y="1006" width="33" height="32"/>
<path d="M423.92 1030.8C426.48 1028.59 428.493 1026.77 429.96 1025.36C431.453 1023.92 432.693 1022.43 433.68 1020.88C434.667 1019.33 435.16 1017.79 435.16 1016.24C435.16 1014.64 434.773 1013.39 434 1012.48C433.253 1011.57 432.067 1011.12 430.44 1011.12C428.867 1011.12 427.64 1011.63 426.76 1012.64C425.907 1013.63 425.453 1014.96 425.4 1016.64H421C421.08 1013.6 421.987 1011.28 423.72 1009.68C425.48 1008.05 427.707 1007.24 430.4 1007.24C433.307 1007.24 435.573 1008.04 437.2 1009.64C438.853 1011.24 439.68 1013.37 439.68 1016.04C439.68 1017.96 439.187 1019.81 438.2 1021.6C437.24 1023.36 436.08 1024.95 434.72 1026.36C433.387 1027.75 431.68 1029.36 429.6 1031.2L427.8 1032.8H440.48V1036.6H421.04V1033.28L423.92 1030.8ZM443.886 1012V1007.84H452.206V1037H447.606V1012H443.886Z"/>
</mask>
<path d="M423.92 1030.8C426.48 1028.59 428.493 1026.77 429.96 1025.36C431.453 1023.92 432.693 1022.43 433.68 1020.88C434.667 1019.33 435.16 1017.79 435.16 1016.24C435.16 1014.64 434.773 1013.39 434 1012.48C433.253 1011.57 432.067 1011.12 430.44 1011.12C428.867 1011.12 427.64 1011.63 426.76 1012.64C425.907 1013.63 425.453 1014.96 425.4 1016.64H421C421.08 1013.6 421.987 1011.28 423.72 1009.68C425.48 1008.05 427.707 1007.24 430.4 1007.24C433.307 1007.24 435.573 1008.04 437.2 1009.64C438.853 1011.24 439.68 1013.37 439.68 1016.04C439.68 1017.96 439.187 1019.81 438.2 1021.6C437.24 1023.36 436.08 1024.95 434.72 1026.36C433.387 1027.75 431.68 1029.36 429.6 1031.2L427.8 1032.8H440.48V1036.6H421.04V1033.28L423.92 1030.8ZM443.886 1012V1007.84H452.206V1037H447.606V1012H443.886Z" fill="black"/>
<path d="M423.92 1030.8L424.116 1031.03L424.116 1031.03L423.92 1030.8ZM429.96 1025.36L430.168 1025.58L430.168 1025.58L429.96 1025.36ZM434 1012.48L433.768 1012.67L433.772 1012.67L434 1012.48ZM426.76 1012.64L426.533 1012.44L426.533 1012.44L426.76 1012.64ZM425.4 1016.64V1016.94H425.691L425.7 1016.65L425.4 1016.64ZM421 1016.64L420.7 1016.63L420.692 1016.94H421V1016.64ZM423.72 1009.68L423.923 1009.9L423.924 1009.9L423.72 1009.68ZM437.2 1009.64L436.99 1009.85L436.991 1009.86L437.2 1009.64ZM438.2 1021.6L437.937 1021.45L437.937 1021.46L438.2 1021.6ZM434.72 1026.36L434.504 1026.15L434.504 1026.15L434.72 1026.36ZM429.6 1031.2L429.401 1030.98L429.401 1030.98L429.6 1031.2ZM427.8 1032.8L427.601 1032.58L427.011 1033.1H427.8V1032.8ZM440.48 1032.8H440.78V1032.5H440.48V1032.8ZM440.48 1036.6V1036.9H440.78V1036.6H440.48ZM421.04 1036.6H420.74V1036.9H421.04V1036.6ZM421.04 1033.28L420.844 1033.05L420.74 1033.14V1033.28H421.04ZM423.92 1030.8L424.116 1031.03C426.678 1028.81 428.696 1026.99 430.168 1025.58L429.96 1025.36L429.752 1025.14C428.291 1026.55 426.282 1028.36 423.724 1030.57L423.92 1030.8ZM429.96 1025.36L430.168 1025.58C431.676 1024.12 432.932 1022.61 433.933 1021.04L433.68 1020.88L433.427 1020.72C432.455 1022.24 431.23 1023.72 429.752 1025.14L429.96 1025.36ZM433.68 1020.88L433.933 1021.04C434.945 1019.46 435.46 1017.85 435.46 1016.24H435.16H434.86C434.86 1017.72 434.389 1019.21 433.427 1020.72L433.68 1020.88ZM435.16 1016.24H435.46C435.46 1014.59 435.062 1013.26 434.228 1012.29L434 1012.48L433.772 1012.67C434.485 1013.51 434.86 1014.69 434.86 1016.24H435.16ZM434 1012.48L434.232 1012.29C433.408 1011.29 432.12 1010.82 430.44 1010.82V1011.12V1011.42C432.013 1011.42 433.098 1011.86 433.768 1012.67L434 1012.48ZM430.44 1011.12V1010.82C428.796 1010.82 427.48 1011.35 426.533 1012.44L426.76 1012.64L426.987 1012.84C427.8 1011.9 428.937 1011.42 430.44 1011.42V1011.12ZM426.76 1012.64L426.533 1012.44C425.623 1013.5 425.155 1014.9 425.1 1016.63L425.4 1016.64L425.7 1016.65C425.752 1015.02 426.19 1013.76 426.987 1012.84L426.76 1012.64ZM425.4 1016.64V1016.34H421V1016.64V1016.94H425.4V1016.64ZM421 1016.64L421.3 1016.65C421.378 1013.66 422.266 1011.43 423.923 1009.9L423.72 1009.68L423.517 1009.46C421.708 1011.13 420.782 1013.54 420.7 1016.63L421 1016.64ZM423.72 1009.68L423.924 1009.9C425.621 1008.33 427.772 1007.54 430.4 1007.54V1007.24V1006.94C427.641 1006.94 425.339 1007.78 423.516 1009.46L423.72 1009.68ZM430.4 1007.24V1007.54C433.251 1007.54 435.433 1008.32 436.99 1009.85L437.2 1009.64L437.41 1009.43C435.713 1007.76 433.363 1006.94 430.4 1006.94V1007.24ZM437.2 1009.64L436.991 1009.86C438.577 1011.39 439.38 1013.44 439.38 1016.04H439.68H439.98C439.98 1013.31 439.13 1011.09 437.409 1009.42L437.2 1009.64ZM439.68 1016.04H439.38C439.38 1017.91 438.901 1019.71 437.937 1021.45L438.2 1021.6L438.463 1021.75C439.472 1019.92 439.98 1018.01 439.98 1016.04H439.68ZM438.2 1021.6L437.937 1021.46C436.989 1023.19 435.845 1024.76 434.504 1026.15L434.72 1026.36L434.936 1026.57C436.315 1025.14 437.491 1023.53 438.463 1021.74L438.2 1021.6ZM434.72 1026.36L434.504 1026.15C433.178 1027.53 431.478 1029.14 429.401 1030.98L429.6 1031.2L429.799 1031.42C431.882 1029.58 433.595 1027.96 434.936 1026.57L434.72 1026.36ZM429.6 1031.2L429.401 1030.98L427.601 1032.58L427.8 1032.8L427.999 1033.02L429.799 1031.42L429.6 1031.2ZM427.8 1032.8V1033.1H440.48V1032.8V1032.5H427.8V1032.8ZM440.48 1032.8H440.18V1036.6H440.48H440.78V1032.8H440.48ZM440.48 1036.6V1036.3H421.04V1036.6V1036.9H440.48V1036.6ZM421.04 1036.6H421.34V1033.28H421.04H420.74V1036.6H421.04ZM421.04 1033.28L421.236 1033.51L424.116 1031.03L423.92 1030.8L423.724 1030.57L420.844 1033.05L421.04 1033.28ZM443.886 1012H443.586V1012.3H443.886V1012ZM443.886 1007.84V1007.54H443.586V1007.84H443.886ZM452.206 1007.84H452.506V1007.54H452.206V1007.84ZM452.206 1037V1037.3H452.506V1037H452.206ZM447.606 1037H447.306V1037.3H447.606V1037ZM447.606 1012H447.906V1011.7H447.606V1012ZM443.886 1012H444.186V1007.84H443.886H443.586V1012H443.886ZM443.886 1007.84V1008.14H452.206V1007.84V1007.54H443.886V1007.84ZM452.206 1007.84H451.906V1037H452.206H452.506V1007.84H452.206ZM452.206 1037V1036.7H447.606V1037V1037.3H452.206V1037ZM447.606 1037H447.906V1012H447.606H447.306V1037H447.606ZM447.606 1012V1011.7H443.886V1012V1012.3H447.606V1012Z" fill="black" mask="url(#path-9-outside-2_1_2681)"/>
<path d="M221.81 272.735C213.2 272.735 206.13 270.705 200.6 266.645C195.07 262.515 192.095 256.635 191.675 249.005H213.62C213.83 251.595 214.6 253.485 215.93 254.675C217.26 255.865 218.975 256.46 221.075 256.46C222.965 256.46 224.505 256.005 225.695 255.095C226.955 254.115 227.585 252.785 227.585 251.105C227.585 248.935 226.57 247.255 224.54 246.065C222.51 244.875 219.22 243.545 214.67 242.075C209.84 240.465 205.92 238.925 202.91 237.455C199.97 235.915 197.38 233.71 195.14 230.84C192.97 227.9 191.885 224.085 191.885 219.395C191.885 214.635 193.075 210.575 195.455 207.215C197.835 203.785 201.125 201.195 205.325 199.445C209.525 197.695 214.285 196.82 219.605 196.82C228.215 196.82 235.075 198.85 240.185 202.91C245.365 206.9 248.13 212.535 248.48 219.815H226.115C226.045 217.575 225.345 215.895 224.015 214.775C222.755 213.655 221.11 213.095 219.08 213.095C217.54 213.095 216.28 213.55 215.3 214.46C214.32 215.37 213.83 216.665 213.83 218.345C213.83 219.745 214.355 220.97 215.405 222.02C216.525 223 217.89 223.875 219.5 224.645C221.11 225.345 223.49 226.255 226.64 227.375C231.33 228.985 235.18 230.595 238.19 232.205C241.27 233.745 243.895 235.95 246.065 238.82C248.305 241.62 249.425 245.19 249.425 249.53C249.425 253.94 248.305 257.895 246.065 261.395C243.895 264.895 240.71 267.66 236.51 269.69C232.38 271.72 227.48 272.735 221.81 272.735ZM319.262 213.095V272H298.577V263.6C296.827 266.26 294.412 268.43 291.332 270.11C288.252 271.72 284.717 272.525 280.727 272.525C273.867 272.525 268.442 270.285 264.452 265.805C260.532 261.255 258.572 255.095 258.572 247.325V213.095H279.047V244.7C279.047 248.06 279.922 250.72 281.672 252.68C283.492 254.57 285.872 255.515 288.812 255.515C291.822 255.515 294.202 254.57 295.952 252.68C297.702 250.72 298.577 248.06 298.577 244.7V213.095H319.262ZM407.94 212.57C415.36 212.57 421.17 214.81 425.37 219.29C429.64 223.77 431.775 229.895 431.775 237.665V272H411.195V240.395C411.195 237.245 410.32 234.795 408.57 233.045C406.82 231.295 404.44 230.42 401.43 230.42C398.42 230.42 396.04 231.295 394.29 233.045C392.54 234.795 391.665 237.245 391.665 240.395V272H371.085V240.395C371.085 237.245 370.21 234.795 368.46 233.045C366.78 231.295 364.435 230.42 361.425 230.42C358.345 230.42 355.93 231.295 354.18 233.045C352.43 234.795 351.555 237.245 351.555 240.395V272H330.975V213.095H351.555V220.865C353.375 218.345 355.72 216.35 358.59 214.88C361.53 213.34 364.89 212.57 368.67 212.57C373.01 212.57 376.86 213.515 380.22 215.405C383.65 217.295 386.345 219.955 388.305 223.385C390.405 220.165 393.17 217.575 396.6 215.615C400.03 213.585 403.81 212.57 407.94 212.57ZM520.015 212.57C527.435 212.57 533.245 214.81 537.445 219.29C541.715 223.77 543.85 229.895 543.85 237.665V272H523.27V240.395C523.27 237.245 522.395 234.795 520.645 233.045C518.895 231.295 516.515 230.42 513.505 230.42C510.495 230.42 508.115 231.295 506.365 233.045C504.615 234.795 503.74 237.245 503.74 240.395V272H483.16V240.395C483.16 237.245 482.285 234.795 480.535 233.045C478.855 231.295 476.51 230.42 473.5 230.42C470.42 230.42 468.005 231.295 466.255 233.045C464.505 234.795 463.63 237.245 463.63 240.395V272H443.05V213.095H463.63V220.865C465.45 218.345 467.795 216.35 470.665 214.88C473.605 213.34 476.965 212.57 480.745 212.57C485.085 212.57 488.935 213.515 492.295 215.405C495.725 217.295 498.42 219.955 500.38 223.385C502.48 220.165 505.245 217.575 508.675 215.615C512.105 213.585 515.885 212.57 520.015 212.57ZM611.405 241.865C611.405 243.475 611.3 245.085 611.09 246.695H572.135C572.345 249.915 573.22 252.33 574.76 253.94C576.37 255.48 578.4 256.25 580.85 256.25C584.28 256.25 586.73 254.71 588.2 251.63H610.145C609.235 255.69 607.45 259.33 604.79 262.55C602.2 265.7 598.91 268.185 594.92 270.005C590.93 271.825 586.52 272.735 581.69 272.735C575.88 272.735 570.7 271.51 566.15 269.06C561.67 266.61 558.135 263.11 555.545 258.56C553.025 254.01 551.765 248.655 551.765 242.495C551.765 236.335 553.025 231.015 555.545 226.535C558.065 221.985 561.565 218.485 566.045 216.035C570.595 213.585 575.81 212.36 581.69 212.36C587.5 212.36 592.645 213.55 597.125 215.93C601.605 218.31 605.105 221.74 607.625 226.22C610.145 230.63 611.405 235.845 611.405 241.865ZM590.405 236.72C590.405 234.2 589.565 232.24 587.885 230.84C586.205 229.37 584.105 228.635 581.585 228.635C579.065 228.635 577 229.335 575.39 230.735C573.78 232.065 572.73 234.06 572.24 236.72H590.405ZM640.407 223.49C642.717 220.13 645.517 217.47 648.807 215.51C652.097 213.55 655.632 212.57 659.412 212.57V234.515H653.637C649.157 234.515 645.832 235.39 643.662 237.14C641.492 238.89 640.407 241.935 640.407 246.275V272H619.827V213.095H640.407V223.49Z" fill="black"/>
<rect x="114" y="366" width="620" height="551" rx="40" fill="black"/>
<path d="M123.291 652.842L123.302 472.332L123.262 427.187C123.256 418.664 122.303 408.851 124.07 400.544C125.591 393.393 130.147 386.609 136.376 382.699C141.035 379.774 146.19 378.465 151.637 378.264C166.421 377.72 181.387 378.184 196.187 378.191L280.811 378.202L540.857 378.216L654.073 378.192L682.19 378.201C689.009 378.207 696.724 377.523 703.357 379.127C711.581 381.117 717.052 385.777 721.397 392.862C722.903 396.41 724.457 399.991 724.754 403.884C725.83 418.045 724.941 434.966 724.929 449.489L724.923 537.266L724.931 818.619L724.893 826.157L724.961 860.234C724.969 867.358 725.641 875.241 724.182 882.209C723.125 887.261 720.859 892.219 717.182 895.894C712.986 900.095 707.655 903.213 701.735 904.102C693.509 905.348 684.292 904.597 675.964 904.597L627.415 904.565L453.069 904.603C449.109 905.16 428.737 905.129 424.854 904.522C424.374 904.559 423.9 904.59 423.418 904.603C402.849 905.004 382.181 904.584 361.601 904.584L238.279 904.578L179.188 904.559C168.84 904.59 157.47 905.573 147.238 904.152C141.177 903.307 135.368 900.108 131.054 895.819C127.454 892.244 125.181 887.154 124.132 882.246C122.504 874.627 123.268 865.987 123.272 858.218L123.362 823.258L123.317 815.527C123.016 797.339 123.309 779.098 123.308 760.906L123.291 652.842Z" fill="black"/>
<path d="M123.291 652.842L123.302 472.332L123.262 427.187C123.256 418.664 122.303 408.851 124.07 400.544C125.591 393.393 130.147 386.609 136.376 382.699C141.035 379.774 146.19 378.465 151.637 378.264C166.421 377.72 181.387 378.184 196.187 378.191L280.811 378.202L540.857 378.216L654.073 378.192L682.19 378.201C689.009 378.207 696.724 377.523 703.357 379.127C711.581 381.117 717.052 385.777 721.397 392.862C717.121 413.683 711.619 434.234 704.918 454.406C702.815 460.809 700.83 467.993 697.587 473.879C703.311 481.291 707.309 490.033 706.032 499.618C705.307 505.064 702.687 509.749 698.297 513.085C694.234 516.173 689.935 517.506 684.908 518.123C678.609 518.895 671.968 518.521 665.623 518.519L633.431 518.498C593.4 518.487 553.243 517.791 513.225 518.56C516.751 519.786 546.193 518.898 552.588 518.898L676.266 518.918C658.436 550.292 636.344 579.046 610.62 604.359C606.268 608.724 601.503 614.472 596.371 617.859C562.507 582.755 524.567 557.001 477.091 543.902C463.178 540.064 448.783 537.115 434.304 536.874C379.81 535.97 328.648 564.993 290.477 602.066C275.577 616.374 262.055 632.052 250.09 648.891C222.767 648.26 195.431 648.498 168.124 649.605C153.147 650.314 138.231 652.116 123.291 652.842Z" fill="#B2E8FD"/>
<path d="M546.577 460.387C552.531 448.74 559.689 439.34 571.071 432.543C584.721 424.549 600.979 422.279 616.297 426.227C634.678 430.961 647.151 443.589 656.562 459.496C659.634 459.027 662.787 458.771 665.895 458.886C678.453 459.347 689.078 464.847 697.587 473.879C703.311 481.291 707.309 490.032 706.032 499.618C705.307 505.064 702.687 509.749 698.297 513.085C694.233 516.173 689.935 517.506 684.908 518.123C678.609 518.895 671.968 518.521 665.623 518.519L633.431 518.498C593.399 518.487 553.242 517.791 513.225 518.56C511.551 518.469 509.838 518.392 508.191 518.064C503.63 517.155 499.299 514.803 496.718 510.845C493.507 505.921 493.604 499.582 494.879 494.049C497.56 482.405 504.927 472.92 514.954 466.617C524.5 460.617 535.467 457.846 546.577 460.387Z" fill="black"/>
<path d="M510.708 510.45C509.761 510.358 508.867 510.198 507.964 509.883C505.758 509.113 503.963 507.822 502.996 505.631C500.873 500.823 502.847 494.239 504.754 489.686C510.157 476.783 523.356 467.96 537.287 467.265C539.987 467.13 548.587 469.053 550.46 467.739C552.768 466.121 554.257 462.298 555.573 459.831C561.375 448.956 570.344 440.704 581.908 436.127C595.297 430.828 609.994 431.417 623.123 437.157C624.241 437.789 625.423 438.381 626.499 439.078C634.524 443.597 641.062 450.593 646.122 458.217C647.916 460.921 649.805 464.792 652.419 466.768C654.63 468.438 662.695 466.386 665.78 466.581C679.969 467.479 693.462 476.397 697.401 490.464C698.562 494.612 698.968 499.437 696.68 503.289C694.486 506.981 689.871 509.007 685.846 509.973C678.97 511.624 661.272 510.705 653.508 510.747L568.008 510.79L529.637 510.859C523.831 510.869 516.347 511.717 510.708 510.45Z" fill="#00CAC2"/>
<path d="M510.708 510.45C509.761 510.358 508.867 510.198 507.964 509.883C505.758 509.113 503.963 507.822 502.996 505.631C500.873 500.823 502.847 494.239 504.754 489.686C510.158 476.783 523.356 467.96 537.287 467.265C539.987 467.13 548.587 469.053 550.46 467.739C552.768 466.121 554.257 462.298 555.573 459.831C561.375 448.956 570.344 440.704 581.908 436.127C595.297 430.828 609.994 431.417 623.123 437.157L587.213 485.152C581.106 493.328 573.933 501.618 568.671 510.34C549.36 510.693 530.02 510.009 510.708 510.45Z" fill="#07F8F9"/>
<path d="M626.499 439.078C634.524 443.597 641.062 450.593 646.122 458.217C647.916 460.921 649.805 464.792 652.419 466.767C654.63 468.438 662.695 466.386 665.78 466.581C679.969 467.479 693.462 476.397 697.401 490.464C698.562 494.612 698.969 499.437 696.68 503.289C694.487 506.981 689.871 509.007 685.846 509.973C678.97 511.624 661.272 510.705 653.508 510.747L568.008 510.79L529.637 510.859C523.831 510.869 516.347 511.717 510.708 510.45C530.02 510.008 549.36 510.693 568.671 510.34C598.688 509.948 628.758 510.306 658.781 510.272C648.977 486.119 638.207 462.368 626.499 439.078Z" fill="#00A281"/>
<path d="M265.033 448.233C299.985 445.052 330.875 470.858 333.954 505.811C337.033 540.764 311.13 571.571 276.159 574.546C241.334 577.508 210.676 551.743 207.611 516.935C204.545 482.127 230.226 451.401 265.033 448.233Z" fill="black"/>
<path d="M223.12 539.584C209.464 516.55 214.244 487.048 234.475 469.502C254.705 451.956 284.593 451.39 305.474 468.158C322.768 482.046 330.11 504.907 324.133 526.264C318.157 547.621 300.015 563.355 278.024 566.255C256.032 569.155 234.431 558.661 223.12 539.584Z" fill="#FEF638"/>
<path d="M305.474 468.158C322.768 482.046 330.11 504.907 324.133 526.264C318.157 547.621 300.015 563.355 278.023 566.255C256.032 569.155 234.431 558.661 223.12 539.584C233.485 541.781 244.073 543.854 254.695 542.606C270.464 540.909 284.865 532.878 294.593 520.356C303.469 509.123 307.885 495.009 306.996 480.721C306.771 476.481 305.985 472.363 305.474 468.158Z" fill="#FFDA08"/>
<path d="M205.498 567.592C206.972 567.592 208.428 567.708 209.525 568.8C210.144 569.416 210.521 570.311 210.457 571.199C210.114 575.928 194.932 589.923 190.872 593.171C190.639 593.18 190.406 593.185 190.173 593.185C188.519 593.178 187.598 592.867 186.43 591.684C186.235 591.126 185.858 590.422 185.914 589.836C186.417 584.632 201.184 571.121 205.498 567.592Z" fill="black"/>
<path d="M187.572 430.444C187.936 430.431 188.299 430.42 188.664 430.422C192.66 430.433 203.779 442.83 206.866 446.095C208.271 447.58 210.392 449.56 210.212 451.776C210.084 453.35 208.854 454.307 207.76 455.29C205.073 455.442 204.075 454.713 202.129 453.013C199.08 450.349 185.372 437.809 185.341 434.494C185.324 432.776 186.502 431.634 187.572 430.444Z" fill="black"/>
<path d="M356.012 508.144C362.939 508.021 369.979 507.732 376.9 507.98C378.946 508.053 382.78 508.603 384.09 510.333C384.543 510.931 384.758 511.549 384.669 512.289C384.45 514.116 383.016 515.203 381.635 516.23C381.237 516.28 380.838 516.322 380.438 516.355C375.879 516.744 357.432 517.757 354.281 514.476C353.613 513.781 353.372 513.053 353.415 512.111C353.493 510.403 354.844 509.215 356.012 508.144Z" fill="black"/>
<path d="M157.904 508.555C162.572 508.09 182.679 507.016 185.847 510.018C186.574 510.706 186.814 511.458 186.787 512.425C186.742 514.097 185.486 515.256 184.399 516.374C179.637 516.74 160.271 517.877 156.913 514.872C156.223 514.254 155.908 513.517 155.858 512.605C155.764 510.941 156.873 509.714 157.904 508.555Z" fill="black"/>
<path d="M349.703 430.962C351.007 431.291 352.404 431.556 353.262 432.686C353.842 433.449 354.011 434.313 353.841 435.252C353.068 439.524 338.858 453.573 335.13 456.076C334.636 456.02 334.681 456.037 334.107 455.909C332.803 455.619 331.637 455.167 330.98 453.934C330.478 452.991 330.54 451.937 330.873 450.949C332.308 446.699 345.641 432.819 349.703 430.962Z" fill="black"/>
<path d="M268.827 400.894C270.527 400.923 271.965 401.171 273.249 402.347C275.468 406.141 274.51 420.225 274.314 424.924C274.192 427.848 274.06 429.492 271.799 431.571C271.548 431.578 271.296 431.58 271.044 431.576C269.736 431.553 268.232 431.358 267.337 430.302C265.017 427.563 265.897 410.725 266.215 406.394C266.406 403.8 266.811 402.606 268.827 400.894Z" fill="black"/>
<path d="M268.397 592.461C269.861 592.405 271.308 592.207 272.463 593.295C275.465 596.122 274.369 605.826 274.281 609.8C274.198 613.552 274.616 617.038 271.714 619.816C270.292 619.874 268.633 619.967 267.497 618.95C265.874 617.497 266.011 614.476 265.994 612.455C265.952 607.383 265.134 599.784 266.56 594.988C266.86 593.982 267.68 593.191 268.397 592.461Z" fill="black"/>
<path d="M123.362 823.258L124.264 823.628C130.247 820.986 135.994 817.799 141.898 814.982C152.867 809.742 163.994 804.844 175.265 800.293C235.045 776.05 298.226 761.228 362.552 756.356C379.252 755.043 395.797 754.931 412.502 754.295C413.207 768.272 414.395 782.242 415.235 796.215C417.068 826.733 418.893 857.235 422.566 887.599C423.108 892.075 423.306 900.202 424.927 904.158L424.855 904.521C424.374 904.559 423.9 904.59 423.418 904.603C402.85 905.004 382.181 904.584 361.601 904.584L238.279 904.578L179.188 904.559C168.84 904.59 157.47 905.573 147.238 904.152C141.177 903.307 135.368 900.108 131.054 895.819C127.454 892.244 125.181 887.154 124.132 882.246C122.504 874.627 123.268 865.987 123.272 858.218L123.362 823.258Z" fill="#FEC364"/>
<path d="M298.826 794.463C299.25 794.434 299.672 794.409 300.097 794.417C301.356 794.441 302.577 794.772 303.446 795.727C306.635 799.233 305.233 810.843 304.954 815.357C304.461 823.308 303.187 834.803 296.823 840.256C294.533 842.222 291.627 843.054 288.639 842.823C284.346 842.491 276.655 839.849 273.828 836.506C273.495 836.487 273.359 836.5 273.015 836.349C269.354 834.715 264.556 828.674 262.767 825.124C261.39 822.394 260.834 819.458 261.952 816.503C265.723 806.536 289.714 798.305 298.826 794.463Z" fill="black"/>
<path d="M297.1 803.428L297.398 803.733C298.818 810.111 297.143 822.132 295.133 828.449C294.361 830.878 293.316 833.689 290.922 834.909C290.036 835.141 289.183 835.079 288.289 834.916C284.64 834.252 278.293 831.986 276.152 828.805C275.934 828.755 275.72 828.699 275.509 828.624C272.415 827.56 269.786 822.063 268.46 819.371C275.795 811.714 287.557 807.732 297.1 803.428Z" fill="#FE8214"/>
<path d="M379.486 826.013C379.593 826.051 379.701 826.082 379.808 826.12C379.986 826.176 380.162 826.239 380.339 826.301C381.434 826.664 382.477 826.933 383.222 827.879C385.787 831.147 384.798 848.019 384.4 852.558C383.77 859.733 381.706 867.853 375.877 872.624C372.537 875.353 368.485 876.305 364.24 875.842C360.545 875.435 354.924 874.176 352.476 871.146C350.87 870.983 349.197 869.424 348.113 868.26C345.138 865.073 342.324 860.71 342.675 856.158C343.583 844.388 362.939 835.673 371.989 830.627C374.366 829.3 377.234 828.042 379.256 826.226C379.335 826.157 379.41 826.088 379.486 826.013Z" fill="black"/>
<path d="M375.605 836.838L376.663 837.351C377.744 841.402 377.177 846.936 376.777 851.093C376.275 856.315 375.076 862.569 370.713 866.037C368.718 867.603 366.16 868.273 363.652 867.884C360.884 867.471 356.998 865.9 355.287 863.621C354.946 863.571 354.791 863.571 354.487 863.446C351.931 862.431 350.494 858.418 349.657 856.071C351.262 855.075 355.219 849.578 357.71 847.7C362.081 844.401 372.523 840.532 375.605 836.838Z" fill="#FE8214"/>
<path d="M697.587 473.88C700.83 467.993 702.815 460.809 704.918 454.406C711.619 434.234 717.121 413.683 721.397 392.862C722.903 396.41 724.458 399.991 724.754 403.884C725.83 418.045 724.941 434.966 724.93 449.489L724.923 537.266L724.931 818.619C638.66 772.851 539.019 749.156 441.662 746.506L440.809 704.768C457.315 706.613 472.321 710.348 487.814 716.329C493.431 718.497 508.203 728.403 512.338 728.663C517.146 728.964 523.317 723.482 527.457 721.196C530.374 719.585 533.478 718.226 536.537 716.908C550.061 711.071 564.54 707.759 579.258 707.137C596.864 706.467 614.852 710.385 631.001 717.291C635.563 719.242 642.86 723.768 647.536 724.238C648.547 724.34 649.684 723.984 650.455 723.334C651.507 722.449 651.801 721.625 651.892 720.247C652.227 715.193 649.638 708.56 648.12 703.783C637.741 671.137 619.011 643.214 596.371 617.859C601.504 614.472 606.268 608.724 610.62 604.359C636.344 579.046 658.436 550.293 676.266 518.918L552.588 518.899C546.193 518.899 516.751 519.786 513.225 518.56C553.243 517.791 593.4 518.487 633.431 518.498L665.623 518.519C671.968 518.521 678.609 518.895 684.908 518.123C689.935 517.506 694.234 516.173 698.297 513.085C702.687 509.749 705.307 505.064 706.032 499.618C707.309 490.033 703.312 481.291 697.587 473.88Z" fill="#65C8FE"/>
<path d="M442.191 754.402C512.851 756.308 582.739 769.606 649.159 793.783C670.499 801.614 691.384 810.631 711.718 820.792C714.728 822.288 721.727 826.865 724.893 826.157L724.961 860.234C724.969 867.359 725.641 875.241 724.182 882.209C723.125 887.261 720.86 892.22 717.182 895.895C712.986 900.095 707.655 903.213 701.735 904.102C693.509 905.348 684.292 904.597 675.964 904.597L627.415 904.565L453.069 904.603L453.07 904.259C453.723 901.254 449.016 866.438 448.287 858.988C445.105 824.204 443.072 789.321 442.191 754.402Z" fill="#FEC364"/>
<path d="M595.658 813.41C596.622 813.285 597.634 813.129 598.608 813.129C600.026 813.129 601.397 813.448 602.346 814.575C604.133 816.697 603.467 821.111 603.133 823.628C601.796 833.707 598.65 852.364 590.022 858.781C587.91 860.353 585.4 861.048 582.783 860.609C578.88 859.958 571.958 855.739 569.733 852.552C569.215 852.514 568.982 852.402 568.546 852.114C563.435 848.739 554.433 839.636 553.383 833.451C553.001 831.203 553.446 829.256 554.741 827.378C560.891 818.456 585.4 815.051 595.658 813.41Z" fill="black"/>
<path d="M595.273 821.23C595.303 821.293 595.342 821.349 595.362 821.412C596.51 825.18 591.704 840.676 590.169 844.695C589.216 847.187 587.573 851.738 584.973 852.903C584.622 852.903 584.384 852.921 584.048 852.859C580.582 852.208 573.087 846.742 571.131 843.624C570.716 843.53 570.627 843.537 570.205 843.286C566.637 841.189 562.222 835.398 560.886 831.535C561.46 831.372 561.269 831.466 561.732 831.216C572.316 825.45 583.644 823.722 595.273 821.23Z" fill="#FE8214"/>
<path d="M123.29 652.842C138.23 652.116 153.146 650.314 168.123 649.605C195.431 648.498 222.767 648.26 250.09 648.891C237.585 667.196 226.792 686.083 220.142 707.348C219.248 710.207 217.313 714.956 218.013 717.967C218.332 719.339 218.889 719.716 219.942 720.514C224.075 721.479 233.655 715.217 238.004 713.449C267.216 701.575 300.65 708.58 328.289 721.5C332.291 723.372 335.959 725.907 339.854 727.983C341.295 728.751 343.178 729.639 344.834 729.561C347.828 729.419 369.941 716.958 375.445 714.852C386.977 710.438 399.162 707.557 411.369 705.791C412.417 719.273 412.731 732.685 412.952 746.199C395.357 746.685 377.815 747.202 360.266 748.649C294.663 753.793 230.267 769.156 169.41 794.183C157.851 798.936 146.434 804.031 135.176 809.46C131.253 811.382 127.014 813.21 123.317 815.526C123.016 797.339 123.308 779.098 123.308 760.905L123.29 652.842Z" fill="#65C8FE"/>
<path d="M420.686 704.869L432.791 704.718C434.681 762.378 435.758 819.803 442.18 877.206C442.843 883.129 443.786 898.981 445.402 903.777C447.83 904.772 450.511 904.547 453.07 904.259L453.069 904.603C449.11 905.16 428.737 905.129 424.855 904.522L424.926 904.158C427.441 904.666 430.043 904.434 432.588 904.271C432.079 893.628 429.883 882.709 428.841 872.06C426.547 848.451 424.771 824.792 423.514 801.101C422.362 782.822 421.697 764.517 421.521 746.203C421.367 732.582 422.021 718.407 420.686 704.869Z" fill="#B46F30"/>
<path d="M428.687 544.746L431.977 546.808C467.512 566.623 487.157 606.507 497.89 644.225C504.692 668.37 508.249 693.312 508.467 718.396C492.376 708.437 474.55 701.603 455.925 698.251C450.581 697.248 445.068 696.947 439.775 695.905C407.297 694.32 375.127 702.849 347.701 720.315C348.799 697.647 351.884 675.743 358.006 653.854C368.91 614.869 391.787 565.526 428.687 544.746Z" fill="#CA23FA"/>
<path d="M431.977 546.808C467.512 566.623 487.156 606.507 497.89 644.225C504.692 668.37 508.249 693.312 508.467 718.396C492.376 708.438 474.55 701.603 455.925 698.251C450.581 697.248 445.068 696.947 439.775 695.905C441.006 695.875 442.176 695.923 443.327 695.427C444.797 689.848 445.114 683.629 445.815 677.888C450.032 643.321 448.972 607.493 440.868 573.549C438.69 564.423 434.467 556.154 432.086 547.226L431.977 546.808Z" fill="#AB1ECE"/>
<path d="M448.273 545.694C460.481 547.662 473.018 550.19 484.556 554.74C542.611 572.299 596.907 617.906 625.463 671.206C632.725 684.909 638.545 699.328 642.829 714.233C626.426 705.696 608.434 700.639 589.983 699.382C563.89 697.805 539.052 705.322 516.685 718.371C516.555 710.039 516.087 701.715 515.283 693.42C510.121 639.945 490.938 580.849 448.273 545.694Z" fill="#FEF638"/>
<path d="M484.557 554.74C542.612 572.299 596.908 617.906 625.464 671.206C632.725 684.909 638.545 699.329 642.829 714.233C626.426 705.696 608.434 700.64 589.983 699.382C588.549 691.27 585.796 683.172 583 675.441C569.565 638.935 547.191 606.377 517.922 580.746C512.5 575.963 506.856 571.435 501.009 567.18C495.611 563.273 489.754 559.543 484.858 555.024L484.557 554.74Z" fill="#FFDA08"/>
<path d="M389.759 550.582C396.22 548.384 402.676 547.242 409.33 545.837C370.581 583.063 350.365 635.149 342.328 687.45C340.736 697.807 340.803 708.252 339.454 718.579C320.203 707.348 297.085 700.404 274.787 699.568C259.186 698.23 241.511 702.448 227.755 709.736C231.67 697.013 237.252 685.094 243.859 673.561C273.882 621.15 330.738 566.627 389.759 550.582Z" fill="#FE2928"/>
<path d="M227.755 709.735C231.67 697.012 237.252 685.093 243.859 673.561C273.882 621.15 330.738 566.626 389.759 550.582C389.685 550.666 389.611 550.75 389.535 550.832C385.514 555.179 379.925 558.466 375.319 562.198C366.636 569.281 358.267 576.74 350.237 584.555C324.91 609.737 303.761 638.795 287.585 670.634C284.448 676.914 281.51 683.29 278.775 689.756C277.426 692.947 276.356 696.5 274.787 699.567C259.186 698.23 241.511 702.447 227.755 709.735Z" fill="#FF6261"/>
</svg>
