<svg width="849" height="1183" viewBox="0 0 849 1183" fill="none" xmlns="http://www.w3.org/2000/svg">
<rect x="5" y="5" width="839" height="1173" rx="45" fill="white"/>
<rect x="5" y="5" width="839" height="1173" rx="45" stroke="black" stroke-width="10"/>
<circle cx="786.5" cy="1124.5" r="11.5" fill="black"/>
<circle cx="786.5" cy="59.5" r="11.5" fill="black"/>
<path d="M77 1124.5C77 1130.85 71.8513 1136 65.5 1136C59.1487 1136 54 1130.85 54 1124.5C54 1118.15 59.1487 1113 65.5 1113C71.8513 1113 77 1118.15 77 1124.5Z" fill="black"/>
<path d="M77 59.5C77 65.8513 71.8513 71 65.5 71C59.1487 71 54 65.8513 54 59.5C54 53.1487 59.1487 48 65.5 48C71.8513 48 77 53.1487 77 59.5Z" fill="black"/>
<mask id="path-6-inside-1_1_4324" fill="white">
<path d="M708 48C713.523 48 717.934 52.4996 718.616 57.9801C723.122 94.1833 751.817 122.878 788.02 127.384C793.5 128.066 798 132.477 798 138V1046C798 1051.52 793.5 1055.93 788.02 1056.62C751.817 1061.12 723.122 1089.82 718.616 1126.02C717.934 1131.5 713.523 1136 708 1136H141C135.477 1136 131.066 1131.5 130.384 1126.02C125.878 1089.82 97.1833 1061.12 60.9801 1056.62C55.4996 1055.93 51 1051.52 51 1046V138C51 132.477 55.4996 128.066 60.9801 127.384C97.1833 122.878 125.878 94.1833 130.384 57.9801C131.066 52.4996 135.477 48 141 48H708Z"/>
</mask>
<path d="M708 48C713.523 48 717.934 52.4996 718.616 57.9801C723.122 94.1833 751.817 122.878 788.02 127.384C793.5 128.066 798 132.477 798 138V1046C798 1051.52 793.5 1055.93 788.02 1056.62C751.817 1061.12 723.122 1089.82 718.616 1126.02C717.934 1131.5 713.523 1136 708 1136H141C135.477 1136 131.066 1131.5 130.384 1126.02C125.878 1089.82 97.1833 1061.12 60.9801 1056.62C55.4996 1055.93 51 1051.52 51 1046V138C51 132.477 55.4996 128.066 60.9801 127.384C97.1833 122.878 125.878 94.1833 130.384 57.9801C131.066 52.4996 135.477 48 141 48H708Z" fill="#006AB6"/>
<path d="M130.384 1126.02L138.322 1125.03L130.384 1126.02ZM718.616 1126.02L710.678 1125.03L718.616 1126.02ZM788.02 1056.62L789.008 1064.56L788.02 1056.62ZM718.616 57.9801L726.555 56.9922L718.616 57.9801ZM718.616 57.9801L710.678 58.9681C715.635 98.8063 747.194 130.365 787.032 135.322L788.02 127.384L789.008 119.445C756.44 115.392 730.608 89.5603 726.555 56.9922L718.616 57.9801ZM798 138H790V1046H798H806V138H798ZM788.02 1056.62L787.032 1048.68C747.194 1053.64 715.635 1085.19 710.678 1125.03L718.616 1126.02L726.555 1127.01C730.608 1094.44 756.44 1068.61 789.008 1064.56L788.02 1056.62ZM708 1136V1128H141V1136V1144H708V1136ZM130.384 1126.02L138.322 1125.03C133.365 1085.19 101.806 1053.64 61.9681 1048.68L60.9801 1056.62L59.9922 1064.56C92.5603 1068.61 118.392 1094.44 122.445 1127.01L130.384 1126.02ZM51 1046H59V138H51H43V1046H51ZM60.9801 127.384L61.9681 135.322C101.806 130.365 133.365 98.8063 138.322 58.9681L130.384 57.9801L122.445 56.9922C118.392 89.5603 92.5603 115.392 59.9922 119.445L60.9801 127.384ZM141 48V56H708V48V40H141V48ZM130.384 57.9801L138.322 58.9681C138.438 58.0389 138.872 57.2306 139.427 56.6958C139.954 56.1887 140.494 56 141 56V48V40C130.84 40 123.547 48.1329 122.445 56.9922L130.384 57.9801ZM51 138H59C59 137.494 59.1887 136.954 59.6958 136.427C60.2306 135.872 61.0389 135.438 61.9681 135.322L60.9801 127.384L59.9922 119.445C51.1329 120.547 43 127.84 43 138H51ZM60.9801 1056.62L61.9681 1048.68C61.0389 1048.56 60.2306 1048.13 59.6958 1047.57C59.1887 1047.05 59 1046.51 59 1046H51H43C43 1056.16 51.1329 1063.45 59.9922 1064.56L60.9801 1056.62ZM141 1136V1128C140.494 1128 139.954 1127.81 139.427 1127.3C138.872 1126.77 138.438 1125.96 138.322 1125.03L130.384 1126.02L122.445 1127.01C123.547 1135.87 130.84 1144 141 1144V1136ZM718.616 1126.02L710.678 1125.03C710.562 1125.96 710.128 1126.77 709.573 1127.3C709.046 1127.81 708.506 1128 708 1128V1136V1144C718.16 1144 725.453 1135.87 726.555 1127.01L718.616 1126.02ZM798 1046H790C790 1046.51 789.811 1047.05 789.304 1047.57C788.769 1048.13 787.961 1048.56 787.032 1048.68L788.02 1056.62L789.008 1064.56C797.867 1063.45 806 1056.16 806 1046H798ZM788.02 127.384L787.032 135.322C787.961 135.438 788.769 135.872 789.304 136.427C789.811 136.954 790 137.494 790 138H798H806C806 127.84 797.867 120.547 789.008 119.445L788.02 127.384ZM718.616 57.9801L726.555 56.9922C725.453 48.1329 718.16 40 708 40V48V56C708.506 56 709.046 56.1887 709.573 56.6958C710.128 57.2306 710.562 58.0389 710.678 58.9681L718.616 57.9801Z" fill="black" mask="url(#path-6-inside-1_1_4324)"/>
<path d="M690 102C695.523 102 699.911 106.512 700.837 111.957C705.019 136.563 724.437 155.981 749.043 160.163C754.488 161.089 759 165.477 759 171V1014C759 1019.52 754.488 1023.91 749.043 1024.84C724.711 1028.97 705.454 1048 700.984 1072.22C699.993 1077.59 695.633 1082 690.175 1082H158.825C153.367 1082 149.007 1077.59 148.016 1072.22C143.546 1048 124.288 1028.97 99.9568 1024.84C94.5121 1023.91 90 1019.52 90 1014V171C90 165.477 94.512 161.089 99.9568 160.163C124.563 155.981 143.981 136.563 148.163 111.957C149.089 106.512 153.477 102 159 102H690Z" fill="#5298CB"/>
<mask id="path-9-outside-2_1_4324" maskUnits="userSpaceOnUse" x="418" y="1006" width="21" height="32" fill="black">
<rect fill="white" x="418" y="1006" width="21" height="32"/>
<path d="M419.32 1015.04C419.48 1012.56 420.427 1010.63 422.16 1009.24C423.92 1007.85 426.16 1007.16 428.88 1007.16C430.747 1007.16 432.36 1007.49 433.72 1008.16C435.08 1008.83 436.107 1009.73 436.8 1010.88C437.493 1012.03 437.84 1013.32 437.84 1014.76C437.84 1016.41 437.4 1017.83 436.52 1019C435.64 1020.17 434.587 1020.96 433.36 1021.36V1021.52C434.933 1022 436.16 1022.88 437.04 1024.16C437.92 1025.41 438.36 1027.03 438.36 1029C438.36 1030.57 438 1031.97 437.28 1033.2C436.56 1034.43 435.493 1035.4 434.08 1036.12C432.667 1036.81 430.973 1037.16 429 1037.16C426.12 1037.16 423.747 1036.43 421.88 1034.96C420.04 1033.47 419.053 1031.33 418.92 1028.56H423.32C423.427 1029.97 423.973 1031.13 424.96 1032.04C425.947 1032.92 427.28 1033.36 428.96 1033.36C430.587 1033.36 431.84 1032.92 432.72 1032.04C433.6 1031.13 434.04 1029.97 434.04 1028.56C434.04 1026.69 433.44 1025.37 432.24 1024.6C431.067 1023.8 429.253 1023.4 426.8 1023.4H425.76V1019.64H426.84C429 1019.61 430.64 1019.25 431.76 1018.56C432.907 1017.87 433.48 1016.77 433.48 1015.28C433.48 1014 433.067 1012.99 432.24 1012.24C431.413 1011.47 430.24 1011.08 428.72 1011.08C427.227 1011.08 426.067 1011.47 425.24 1012.24C424.413 1012.99 423.92 1013.92 423.76 1015.04H419.32Z"/>
</mask>
<path d="M419.32 1015.04C419.48 1012.56 420.427 1010.63 422.16 1009.24C423.92 1007.85 426.16 1007.16 428.88 1007.16C430.747 1007.16 432.36 1007.49 433.72 1008.16C435.08 1008.83 436.107 1009.73 436.8 1010.88C437.493 1012.03 437.84 1013.32 437.84 1014.76C437.84 1016.41 437.4 1017.83 436.52 1019C435.64 1020.17 434.587 1020.96 433.36 1021.36V1021.52C434.933 1022 436.16 1022.88 437.04 1024.16C437.92 1025.41 438.36 1027.03 438.36 1029C438.36 1030.57 438 1031.97 437.28 1033.2C436.56 1034.43 435.493 1035.4 434.08 1036.12C432.667 1036.81 430.973 1037.16 429 1037.16C426.12 1037.16 423.747 1036.43 421.88 1034.96C420.04 1033.47 419.053 1031.33 418.92 1028.56H423.32C423.427 1029.97 423.973 1031.13 424.96 1032.04C425.947 1032.92 427.28 1033.36 428.96 1033.36C430.587 1033.36 431.84 1032.92 432.72 1032.04C433.6 1031.13 434.04 1029.97 434.04 1028.56C434.04 1026.69 433.44 1025.37 432.24 1024.6C431.067 1023.8 429.253 1023.4 426.8 1023.4H425.76V1019.64H426.84C429 1019.61 430.64 1019.25 431.76 1018.56C432.907 1017.87 433.48 1016.77 433.48 1015.28C433.48 1014 433.067 1012.99 432.24 1012.24C431.413 1011.47 430.24 1011.08 428.72 1011.08C427.227 1011.08 426.067 1011.47 425.24 1012.24C424.413 1012.99 423.92 1013.92 423.76 1015.04H419.32Z" fill="black"/>
<path d="M419.32 1015.04L419.021 1015.02L419 1015.34H419.32V1015.04ZM422.16 1009.24L421.974 1009L421.973 1009.01L422.16 1009.24ZM433.72 1008.16L433.588 1008.43L433.72 1008.16ZM436.8 1010.88L437.057 1010.72L436.8 1010.88ZM436.52 1019L436.76 1019.18V1019.18L436.52 1019ZM433.36 1021.36L433.267 1021.07L433.06 1021.14V1021.36H433.36ZM433.36 1021.52H433.06V1021.74L433.272 1021.81L433.36 1021.52ZM437.04 1024.16L436.793 1024.33L436.794 1024.33L437.04 1024.16ZM437.28 1033.2L437.021 1033.05L437.28 1033.2ZM434.08 1036.12L434.212 1036.39L434.216 1036.39L434.08 1036.12ZM421.88 1034.96L421.691 1035.19L421.695 1035.2L421.88 1034.96ZM418.92 1028.56V1028.26H418.605L418.62 1028.57L418.92 1028.56ZM423.32 1028.56L423.619 1028.54L423.598 1028.26H423.32V1028.56ZM424.96 1032.04L424.757 1032.26L424.76 1032.26L424.96 1032.04ZM432.72 1032.04L432.932 1032.25L432.935 1032.25L432.72 1032.04ZM432.24 1024.6L432.071 1024.85L432.077 1024.85L432.24 1024.6ZM425.76 1023.4H425.46V1023.7H425.76V1023.4ZM425.76 1019.64V1019.34H425.46V1019.64H425.76ZM426.84 1019.64V1019.94L426.844 1019.94L426.84 1019.64ZM431.76 1018.56L431.605 1018.3L431.602 1018.3L431.76 1018.56ZM432.24 1012.24L432.035 1012.46L432.039 1012.46L432.24 1012.24ZM425.24 1012.24L425.441 1012.46L425.445 1012.46L425.24 1012.24ZM423.76 1015.04V1015.34H424.02L424.057 1015.08L423.76 1015.04ZM419.32 1015.04L419.619 1015.06C419.775 1012.65 420.688 1010.8 422.347 1009.47L422.16 1009.24L421.973 1009.01C420.165 1010.45 419.185 1012.47 419.021 1015.02L419.32 1015.04ZM422.16 1009.24L422.346 1009.48C424.042 1008.14 426.213 1007.46 428.88 1007.46V1007.16V1006.86C426.108 1006.86 423.798 1007.57 421.974 1009L422.16 1009.24ZM428.88 1007.16V1007.46C430.711 1007.46 432.277 1007.79 433.588 1008.43L433.72 1008.16L433.852 1007.89C432.443 1007.2 430.782 1006.86 428.88 1006.86V1007.16ZM433.72 1008.16L433.588 1008.43C434.903 1009.07 435.883 1009.94 436.543 1011.04L436.8 1010.88L437.057 1010.72C436.33 1009.52 435.257 1008.58 433.852 1007.89L433.72 1008.16ZM436.8 1010.88L436.543 1011.04C437.206 1012.13 437.54 1013.37 437.54 1014.76H437.84H438.14C438.14 1013.27 437.78 1011.92 437.057 1010.72L436.8 1010.88ZM437.84 1014.76H437.54C437.54 1016.36 437.116 1017.71 436.28 1018.82L436.52 1019L436.76 1019.18C437.684 1017.95 438.14 1016.47 438.14 1014.76H437.84ZM436.52 1019L436.28 1018.82C435.432 1019.95 434.427 1020.7 433.267 1021.07L433.36 1021.36L433.453 1021.65C434.746 1021.22 435.848 1020.4 436.76 1019.18L436.52 1019ZM433.36 1021.36H433.06V1021.52H433.36H433.66V1021.36H433.36ZM433.36 1021.52L433.272 1021.81C434.785 1022.27 435.954 1023.11 436.793 1024.33L437.04 1024.16L437.287 1023.99C436.366 1022.65 435.082 1021.73 433.448 1021.23L433.36 1021.52ZM437.04 1024.16L436.794 1024.33C437.63 1025.52 438.06 1027.07 438.06 1029H438.36H438.66C438.66 1026.98 438.21 1025.3 437.286 1023.99L437.04 1024.16ZM438.36 1029H438.06C438.06 1030.53 437.711 1031.87 437.021 1033.05L437.28 1033.2L437.539 1033.35C438.289 1032.07 438.66 1030.62 438.66 1029H438.36ZM437.28 1033.2L437.021 1033.05C436.334 1034.22 435.312 1035.16 433.944 1035.85L434.08 1036.12L434.216 1036.39C435.674 1035.64 436.786 1034.63 437.539 1033.35L437.28 1033.2ZM434.08 1036.12L433.948 1035.85C432.585 1036.52 430.939 1036.86 429 1036.86V1037.16V1037.46C431.008 1037.46 432.749 1037.11 434.212 1036.39L434.08 1036.12ZM429 1037.16V1036.86C426.172 1036.86 423.869 1036.14 422.065 1034.72L421.88 1034.96L421.695 1035.2C423.625 1036.71 426.068 1037.46 429 1037.46V1037.16ZM421.88 1034.96L422.069 1034.73C420.307 1033.3 419.35 1031.25 419.22 1028.55L418.92 1028.56L418.62 1028.57C418.757 1031.42 419.773 1033.64 421.691 1035.19L421.88 1034.96ZM418.92 1028.56V1028.86H423.32V1028.56V1028.26H418.92V1028.56ZM423.32 1028.56L423.021 1028.58C423.133 1030.07 423.711 1031.3 424.757 1032.26L424.96 1032.04L425.163 1031.82C424.236 1030.97 423.72 1029.88 423.619 1028.54L423.32 1028.56ZM424.96 1032.04L424.76 1032.26C425.816 1033.21 427.227 1033.66 428.96 1033.66V1033.36V1033.06C427.333 1033.06 426.078 1032.63 425.16 1031.82L424.96 1032.04ZM428.96 1033.36V1033.66C430.641 1033.66 431.98 1033.2 432.932 1032.25L432.72 1032.04L432.508 1031.83C431.7 1032.64 430.533 1033.06 428.96 1033.06V1033.36ZM432.72 1032.04L432.935 1032.25C433.876 1031.28 434.34 1030.04 434.34 1028.56H434.04H433.74C433.74 1029.91 433.324 1030.99 432.505 1031.83L432.72 1032.04ZM434.04 1028.56H434.34C434.34 1026.63 433.714 1025.19 432.403 1024.35L432.24 1024.6L432.077 1024.85C433.166 1025.55 433.74 1026.76 433.74 1028.56H434.04ZM432.24 1024.6L432.409 1024.35C431.161 1023.5 429.275 1023.1 426.8 1023.1V1023.4V1023.7C429.232 1023.7 430.972 1024.1 432.071 1024.85L432.24 1024.6ZM426.8 1023.4V1023.1H425.76V1023.4V1023.7H426.8V1023.4ZM425.76 1023.4H426.06V1019.64H425.76H425.46V1023.4H425.76ZM425.76 1019.64V1019.94H426.84V1019.64V1019.34H425.76V1019.64ZM426.84 1019.64L426.844 1019.94C429.027 1019.91 430.731 1019.55 431.918 1018.82L431.76 1018.56L431.602 1018.3C430.549 1018.96 428.973 1019.31 426.836 1019.34L426.84 1019.64ZM431.76 1018.56L431.915 1018.82C433.163 1018.06 433.78 1016.86 433.78 1015.28H433.48H433.18C433.18 1016.68 432.65 1017.67 431.605 1018.3L431.76 1018.56ZM433.48 1015.28H433.78C433.78 1013.93 433.34 1012.83 432.441 1012.02L432.24 1012.24L432.039 1012.46C432.793 1013.14 433.18 1014.07 433.18 1015.28H433.48ZM432.24 1012.24L432.445 1012.02C431.546 1011.18 430.289 1010.78 428.72 1010.78V1011.08V1011.38C430.191 1011.38 431.281 1011.75 432.035 1012.46L432.24 1012.24ZM428.72 1011.08V1010.78C427.176 1010.78 425.933 1011.18 425.035 1012.02L425.24 1012.24L425.445 1012.46C426.2 1011.75 427.278 1011.38 428.72 1011.38V1011.08ZM425.24 1012.24L425.039 1012.02C424.159 1012.81 423.633 1013.81 423.463 1015L423.76 1015.04L424.057 1015.08C424.207 1014.03 424.667 1013.16 425.441 1012.46L425.24 1012.24ZM423.76 1015.04V1014.74H419.32V1015.04V1015.34H423.76V1015.04Z" fill="black" mask="url(#path-9-outside-2_1_4324)"/>
<path d="M319.13 222.335C317.94 220.375 316.295 218.87 314.195 217.82C312.165 216.77 309.75 216.245 306.95 216.245C301.77 216.245 297.675 217.925 294.665 221.285C291.725 224.645 290.255 229.16 290.255 234.83C290.255 241.2 291.83 246.065 294.98 249.425C298.2 252.715 302.855 254.36 308.945 254.36C316.155 254.36 321.3 251.105 324.38 244.595H303.695V229.79H342.125V249.74C340.515 253.66 338.135 257.335 334.985 260.765C331.905 264.195 327.985 267.03 323.225 269.27C318.465 271.44 313.04 272.525 306.95 272.525C299.53 272.525 292.95 270.95 287.21 267.8C281.54 264.58 277.13 260.135 273.98 254.465C270.9 248.725 269.36 242.18 269.36 234.83C269.36 227.55 270.9 221.075 273.98 215.405C277.13 209.665 281.54 205.22 287.21 202.07C292.88 198.85 299.425 197.24 306.845 197.24C316.155 197.24 323.855 199.48 329.945 203.96C336.035 208.44 339.815 214.565 341.285 222.335H319.13ZM371.928 223.49C374.238 220.13 377.038 217.47 380.328 215.51C383.618 213.55 387.153 212.57 390.933 212.57V234.515H385.158C380.678 234.515 377.353 235.39 375.183 237.14C373.013 238.89 371.928 241.935 371.928 246.275V272H351.348V213.095H371.928V223.49ZM394.951 242.495C394.951 236.405 396.036 231.085 398.206 226.535C400.446 221.985 403.456 218.485 407.236 216.035C411.086 213.585 415.356 212.36 420.046 212.36C424.106 212.36 427.606 213.165 430.546 214.775C433.486 216.385 435.761 218.555 437.371 221.285V213.095H457.951V272H437.371V263.81C435.761 266.54 433.451 268.71 430.441 270.32C427.501 271.93 424.036 272.735 420.046 272.735C415.356 272.735 411.086 271.51 407.236 269.06C403.456 266.61 400.446 263.11 398.206 258.56C396.036 253.94 394.951 248.585 394.951 242.495ZM437.371 242.495C437.371 238.715 436.321 235.74 434.221 233.57C432.191 231.4 429.671 230.315 426.661 230.315C423.581 230.315 421.026 231.4 418.996 233.57C416.966 235.67 415.951 238.645 415.951 242.495C415.951 246.275 416.966 249.285 418.996 251.525C421.026 253.695 423.581 254.78 426.661 254.78C429.671 254.78 432.191 253.695 434.221 251.525C436.321 249.355 437.371 246.345 437.371 242.495ZM494.773 272.735C489.453 272.735 484.693 271.86 480.493 270.11C476.363 268.29 473.073 265.84 470.623 262.76C468.243 259.61 466.913 256.075 466.633 252.155H486.583C486.863 254.045 487.738 255.515 489.208 256.565C490.678 257.615 492.498 258.14 494.668 258.14C496.348 258.14 497.678 257.79 498.658 257.09C499.638 256.39 500.128 255.48 500.128 254.36C500.128 252.89 499.323 251.805 497.713 251.105C496.103 250.405 493.443 249.635 489.733 248.795C485.533 247.955 482.033 247.01 479.233 245.96C476.433 244.91 473.983 243.195 471.883 240.815C469.853 238.435 468.838 235.215 468.838 231.155C468.838 227.655 469.783 224.505 471.673 221.705C473.563 218.835 476.328 216.56 479.968 214.88C483.678 213.2 488.123 212.36 493.303 212.36C501.003 212.36 507.058 214.25 511.468 218.03C515.878 221.81 518.433 226.78 519.133 232.94H500.548C500.198 231.05 499.358 229.615 498.028 228.635C496.768 227.585 495.053 227.06 492.883 227.06C491.203 227.06 489.908 227.375 488.998 228.005C488.158 228.635 487.738 229.51 487.738 230.63C487.738 232.03 488.543 233.115 490.153 233.885C491.763 234.585 494.353 235.32 497.923 236.09C502.193 237 505.728 238.015 508.528 239.135C511.398 240.255 513.883 242.075 515.983 244.595C518.153 247.045 519.238 250.405 519.238 254.675C519.238 258.105 518.223 261.185 516.193 263.915C514.233 266.645 511.398 268.815 507.688 270.425C504.048 271.965 499.743 272.735 494.773 272.735ZM554.451 272.735C549.131 272.735 544.371 271.86 540.171 270.11C536.041 268.29 532.751 265.84 530.301 262.76C527.921 259.61 526.591 256.075 526.311 252.155H546.261C546.541 254.045 547.416 255.515 548.886 256.565C550.356 257.615 552.176 258.14 554.346 258.14C556.026 258.14 557.356 257.79 558.336 257.09C559.316 256.39 559.806 255.48 559.806 254.36C559.806 252.89 559.001 251.805 557.391 251.105C555.781 250.405 553.121 249.635 549.411 248.795C545.211 247.955 541.711 247.01 538.911 245.96C536.111 244.91 533.661 243.195 531.561 240.815C529.531 238.435 528.516 235.215 528.516 231.155C528.516 227.655 529.461 224.505 531.351 221.705C533.241 218.835 536.006 216.56 539.646 214.88C543.356 213.2 547.801 212.36 552.981 212.36C560.681 212.36 566.736 214.25 571.146 218.03C575.556 221.81 578.111 226.78 578.811 232.94H560.226C559.876 231.05 559.036 229.615 557.706 228.635C556.446 227.585 554.731 227.06 552.561 227.06C550.881 227.06 549.586 227.375 548.676 228.005C547.836 228.635 547.416 229.51 547.416 230.63C547.416 232.03 548.221 233.115 549.831 233.885C551.441 234.585 554.031 235.32 557.601 236.09C561.871 237 565.406 238.015 568.206 239.135C571.076 240.255 573.561 242.075 575.661 244.595C577.831 247.045 578.916 250.405 578.916 254.675C578.916 258.105 577.901 261.185 575.871 263.915C573.911 266.645 571.076 268.815 567.366 270.425C563.726 271.965 559.421 272.735 554.451 272.735Z" fill="black"/>
<path d="M262.941 390.003C266.572 389.901 270.159 392.874 272.922 395.092C336.998 446.509 364.129 494.825 394.274 570.192C406.763 529.444 456.61 469.54 486.339 443.844C491.899 439.038 498.093 436.834 503.258 443.999C508.586 451.391 499.887 461.215 497.339 468.268C476.967 512.016 467.896 547.459 458.878 594.1C484.706 534.083 518.111 484.231 568.297 444.402C576.365 437.999 590.685 422.214 598.296 435.834C603.328 444.838 593.396 453.37 589.612 460.724C564.891 503.943 549.537 545.493 537.878 594.1C540.195 590.745 542.004 586.703 543.992 583.078C565.104 544.592 593.088 509.487 626.109 482.315C636.345 473.892 646.717 484.425 641.178 496.328C621.9 537.756 607.315 581.258 598.128 626.491C614.56 596.505 637.38 570.19 663.024 549.051C673.311 540.573 686.331 529.625 689.809 550.831C688.095 555.636 685.327 560.338 683.129 564.934C668.129 596.291 652.023 640.864 648.6 676.561C659.911 654.1 718.446 585.305 733.528 587.559C751.107 590.187 736.492 610.465 732.627 617.899C715.213 651.397 701.208 689.323 695.57 727.428C692.009 738.587 690.535 790.205 693.865 801.218C695.45 806.461 698.633 811.5 700.807 816.529C706.802 830.412 722.067 878.231 712.803 891.533C709.579 896.161 697.466 894.013 692.833 893.959L178.656 893.936C167.37 893.937 132.942 899.612 132.316 884.741C131.094 855.723 142.422 823.735 159.137 801.325C158.73 797.096 159.141 791.98 159.183 787.625C159.774 726.603 142.734 665.602 114.349 613.061C110.832 606.452 102.75 597.221 109.79 589.936C122.73 576.545 173.255 634.885 181.418 644.904C188.008 652.994 193.824 662.069 200.762 669.705C193.922 635.354 184.734 602.376 170.36 570.807C165.712 559.088 153.085 542.725 171.896 537.554C188.323 542.681 231.229 593.735 241.497 609.766C245.125 615.431 248.776 620.97 252.621 626.491C242.828 586.131 232.697 547.113 214.107 510.204C210.997 504.031 207.185 498.21 205.023 491.555C207.123 484.137 208.108 481.49 215.464 479.699C218.627 480.645 220.919 481.909 223.523 484.086C258.193 513.062 296.571 558.849 317.283 601.563C310.102 539.312 293.982 474.105 263.398 420.64C259.939 412.603 242.744 395.912 262.941 390.003Z" fill="black"/>
<path d="M568.708 753.333C570.64 763.612 568.855 820.995 568.644 833.353C568.453 844.397 567.356 854.718 567.407 866.143C573.499 848.723 577.109 837.422 586.176 820.257C594.235 804.999 605.28 788.48 611.087 771.963C618.117 802.392 617.913 828.54 613.941 859.541C628.947 832.853 638.476 818.929 649.575 789.543C659.383 810.828 660.711 829.647 668.011 847.542C674.552 835.096 678.945 822.093 680.654 807.862C692.012 826.785 702.263 855.992 705.631 878.173H145.106C147.308 864.724 150.443 854.521 155.516 842.034C157.909 845.484 176.938 872.311 178.39 872.611C182.341 857.094 191.278 832.304 197.707 816.873C203.196 824.83 213.676 860.24 217.053 870.648C221.611 856.952 230.583 839.632 236.95 826.367C243.263 836.254 251.69 856.151 256.254 867.126C263.786 855.168 274.165 833.883 282.877 824.354C292.883 838.518 299.976 855.535 308.687 870.648C309.556 849.548 327.068 815.25 336.84 796.639C339.907 816.493 359.136 853.282 370.721 866.143C368.991 844.659 372.052 805.724 374.345 784.757C382.728 797.609 392.277 823.379 398.076 837.926C400.944 845.119 404.995 852.105 407.723 859.541C417.487 833.515 427.192 814.861 434.451 787.09C451.745 813.095 453.734 836.709 459.958 866.143C469.052 840.99 481.166 815.152 496.52 793.772C500.354 819.52 502.706 837.472 509.484 862.547C527.75 813.473 532.093 795.001 568.708 753.333Z" fill="#85502B"/>
<path d="M294.679 437.865C297.791 441.572 302.058 445.74 305.487 449.245C310.999 457.068 317.516 464.016 323.114 471.597C379.75 548.307 411.943 669.413 412.418 765.397L412.473 786.467C412.478 788.642 412.631 794.809 412.416 796.639C410.946 800.645 409.29 804.705 407.723 808.679C403.94 801.99 397.847 787.559 394.766 780.057C390.119 770.874 376.679 728.373 364.39 746.466C360.566 752.329 355.839 782.696 354.688 791.385C351.458 780.662 351.429 765.339 340.342 763.021C338.218 763.807 337.227 764.779 335.427 766.204C347.854 672.488 337.863 563.584 308.688 475.008C304.089 462.523 299.925 450.116 294.679 437.865Z" fill="#98BA02"/>
<path d="M294.679 437.865C297.791 441.572 302.058 445.74 305.487 449.245C304.103 451.408 305.772 454.521 306.799 456.668L307.148 456.844L310.599 465.163C315.275 472.773 320.191 486.424 323.564 494.908C345.699 550.588 357.738 611.174 363.306 671.283C364.361 682.918 362.761 743.777 364.39 746.466C360.566 752.329 355.839 782.696 354.688 791.385C351.458 780.662 351.429 765.339 340.342 763.021C338.218 763.807 337.227 764.779 335.427 766.204C347.854 672.488 337.863 563.584 308.688 475.008C304.089 462.523 299.925 450.116 294.679 437.865Z" fill="#98BA02"/>
<path d="M294.679 437.865C297.791 441.572 302.058 445.74 305.487 449.245C304.103 451.408 305.772 454.521 306.799 456.668L307.148 456.844L310.599 465.163C308.287 463.656 304.079 448.628 301.009 445.787C298.798 454.106 309.349 466.009 308.688 475.008C304.089 462.523 299.925 450.116 294.679 437.865Z" fill="#83A501"/>
<path d="M307.148 456.844C310 457.443 315.524 471.472 317.959 475.578C362.819 551.221 389.079 653.896 394.319 744.134C394.767 751.856 394.124 760.915 394.765 768.311C394.951 771.923 395.335 776.585 394.765 780.057C390.119 770.874 376.679 728.373 364.389 746.466C362.76 743.777 364.361 682.918 363.306 671.284C357.738 611.174 345.699 550.588 323.563 494.908C320.191 486.424 315.275 472.773 310.598 465.163L307.148 456.844Z" fill="#DBEF01"/>
<path d="M394.766 768.311C400.9 776.018 407.392 790.833 412.416 796.639C410.946 800.645 409.29 804.705 407.723 808.679C403.94 801.99 397.847 787.559 394.766 780.057C395.335 776.585 394.951 771.923 394.766 768.311Z" fill="#345E02"/>
<path d="M555.348 483.331C557.314 483.361 556.743 483.831 559.093 483.331C514.237 576.277 507.912 664.004 515.553 766.204H514.823C512.796 754.004 501.799 748.904 496.52 761.864C485.195 771.618 473.7 791.935 465.569 804.913C463.787 800.673 462.283 796.809 459.958 792.868C456.099 783.303 446.575 768.261 440.473 759.986C436.918 698.445 475.109 597.867 505.358 547.334C511.985 536.261 546.226 488.283 555.348 483.331Z" fill="#98BA02"/>
<path d="M459.958 792.868C461.002 785.692 459.961 774.89 459.936 767.132C459.668 683.238 488.557 600.811 527.852 529.433C533.851 518.537 542.591 503.091 550.077 493.331L550.389 493.537C539.653 517.964 525.937 538.02 516.969 564.797C499.531 616.859 492.467 672.649 493.611 727.86C493.779 735.906 493.485 754.619 496.34 761.446L496.52 761.864C485.195 771.618 473.7 791.935 465.569 804.913C463.787 800.673 462.283 796.809 459.958 792.868Z" fill="#DBEF01"/>
<path d="M239.548 525.573C244.879 531.733 254.49 541.3 258.529 547.971C272.749 566.965 319.392 638.858 320.752 663.135C321.735 680.722 319.452 698.87 319.302 716.372C319.149 734.207 314.81 754.603 315.766 771.963C314.067 778.806 314.02 784.447 313.373 791.385C314.059 800.447 307.108 811.522 303.465 819.542C301.682 816.18 299.544 811.875 297.639 808.679C293.613 801.906 292.895 800.353 292.182 792.283C289.297 759.609 282.872 728.883 279.854 697.501C275.661 653.902 267.04 610.835 254.611 569.122C250.17 554.218 244.119 540.235 239.548 525.573Z" fill="#345E02"/>
<path d="M258.529 547.971C272.749 566.965 319.392 638.858 320.752 663.135C321.735 680.722 319.452 698.869 319.302 716.372C319.149 734.207 314.81 754.603 315.766 771.963C311.465 767.976 307.638 720.357 306.258 710.927C298.966 661.085 285.491 608.525 264.597 563.025C263.041 559.639 257.524 551.448 258.529 547.971Z" fill="#5C9002"/>
<path d="M305.487 771.963C308.302 777.768 311.039 786.909 313.373 791.385C314.059 800.447 307.107 811.522 303.465 819.542C301.682 816.18 299.544 811.875 297.639 808.679C299.366 806.812 304.486 776.758 305.487 771.963Z" fill="#254B01"/>
<path d="M192.749 583.389C199.096 589.727 216.819 609.895 220.534 617.529C249.052 658.123 264.051 710.19 268.933 760.246C269.778 768.918 271.728 784.415 271.141 792.868C271.461 796.989 272.071 800.894 271.141 804.913C270.01 806.117 268.747 807.536 267.594 808.679C266.22 812.083 260.831 819.504 258.529 824.354C255.821 819.299 251.204 807.785 249.418 802.252C253.22 790.738 260.19 780.367 263.622 768.84C266.094 760.538 255.077 744.917 242.451 770.043C236.535 781.49 224.189 804.582 220.534 816.873C215.055 806.844 215.749 806.292 217.165 794.783C225.957 723.393 217.517 650.303 192.749 583.389Z" fill="#345E02"/>
<path d="M220.535 617.529C249.052 658.123 264.051 710.19 268.933 760.246C269.778 768.918 271.728 784.415 271.141 792.868C271.461 796.989 272.072 800.894 271.141 804.913C270.011 806.117 268.747 807.536 267.594 808.679C266.22 812.083 260.832 819.504 258.529 824.354C255.821 819.299 251.204 807.785 249.418 802.252C253.22 790.738 260.19 780.367 263.622 768.84C266.094 760.538 255.077 744.917 242.451 770.043C241.423 766.703 242.49 745.877 242.532 740.833C242.758 712.882 239.5 685.751 232.717 658.75C231.195 652.69 219.856 620.212 220.535 617.529Z" fill="#5C9002"/>
<path d="M271.141 792.868C271.461 796.989 272.071 800.894 271.141 804.913C270.01 806.117 268.747 807.536 267.594 808.679C268.513 802.805 270.842 798.605 271.141 792.868Z" fill="#254B01"/>
<path d="M534.96 763.021C532.628 729.219 527.404 689.16 537.282 656.837C550.244 614.418 571.603 573.708 599.125 540.294C604.197 534.14 609.599 528.91 613.941 522.059C609.206 537.352 602.805 556.076 597.295 571.419C584.614 619.012 577.223 659.35 573.308 709.423C572.937 714.18 572.755 718.895 572.298 723.645C560.58 732.602 555.151 738.741 545.137 749.793C541.922 754.153 538.285 758.553 534.96 763.021Z" fill="#345E02"/>
<path d="M545.137 749.793C544.087 746.899 552.129 697.525 553.579 690.747C558.102 669.592 582.042 585.694 596.385 571.265L597.295 571.419C584.614 619.012 577.223 659.35 573.308 709.423C572.937 714.18 572.755 718.895 572.298 723.645C560.58 732.602 555.151 738.741 545.137 749.793Z" fill="#5C9002"/>
<path d="M587.752 777.479C587.615 709.749 606.739 641.268 651.335 591.975C654.872 588.064 658.762 584.487 662.181 580.458C658.637 588.432 657.332 591.597 654.261 600.009C642.184 638.774 632.858 679.057 631.938 720.068C631.511 739.132 632.902 758.484 631.856 777.479C630.947 767.513 623.873 729.606 613.941 726.541C603.082 726.52 601.914 741.643 598.259 751.121C594.889 759.864 591.562 768.96 587.752 777.479Z" fill="#345E02"/>
<path d="M613.941 726.541C615.782 721.271 616.161 714.38 616.933 708.729C620.32 683.94 636.249 617.937 653.521 599.918L654.26 600.009C642.184 638.774 632.858 679.057 631.938 720.068C631.511 739.131 632.902 758.484 631.855 777.479C630.947 767.513 623.872 729.606 613.941 726.541Z" fill="#5C9002"/>
<path d="M444.538 518.971C451.249 508.231 459.629 499.847 467.555 490.351C465.615 497.14 463.057 504.292 460.836 510.986C444.829 559.235 438.05 609.97 435.055 660.908C434.607 668.506 429.974 687.661 427.688 695.407C424.018 676.751 421.489 659.865 417.051 641.278C412.683 627.209 408.722 610.251 404.549 595.615C410.583 573.528 432.192 536.877 444.538 518.971Z" fill="#345E02"/>
<path d="M444.538 518.971C444.58 520.616 434.348 549.343 432.94 554.376C427.228 574.786 423.479 594.219 420.342 615.288C419.63 620.071 418.538 638.466 417.051 641.278C412.683 627.209 408.722 610.251 404.549 595.615C410.583 573.528 432.192 536.877 444.538 518.971Z" fill="#5C9002"/>
<path d="M139.567 633.372C142.084 636.1 145.657 640.095 147.904 642.984C150.027 645.501 151.793 647.588 153.496 650.469C164.495 660.83 199.681 720.745 200.63 735.576C201.465 748.621 198.866 761.84 199.654 774.914L198.992 775.163C196.093 773.3 190.731 765.229 189.262 761.864C186.747 766.104 175.993 785.409 173.493 788.342L173.217 784.757C173.855 736.575 160.13 676.241 139.567 633.372Z" fill="#DBEF01"/>
<path d="M139.567 633.372C142.084 636.1 145.657 640.095 147.904 642.984C150.027 645.501 151.793 647.588 153.496 650.469C152.647 649.97 151.504 648.984 150.642 648.947L150.862 649.699C151.154 650.713 151.304 651.512 151.492 652.546L151.649 652.943C166.38 689.478 179.672 713.495 187.582 755.428C187.945 757.352 188.659 760.011 189.262 761.864C186.747 766.104 175.993 785.409 173.493 788.342L173.217 784.757C173.855 736.575 160.13 676.241 139.567 633.372Z" fill="#5C9002"/>
<path d="M147.904 642.984C150.027 645.5 151.793 647.588 153.496 650.469C152.647 649.97 151.504 648.984 150.642 648.947L150.862 649.699C151.154 650.713 151.304 651.512 151.492 652.546C150.027 650.256 147.354 645.647 147.904 642.984Z" fill="#B7C410"/>
<path d="M699.232 650.469C701.504 646.088 707.794 640.627 711.341 636.188C707.53 644.077 707.683 644.25 705.631 652.546C692.597 668.977 679.479 751.026 680.654 770.95C672.566 762.492 669.082 767.481 665.741 777.479C664.512 775.045 663.201 772.582 662.18 770.043C651.859 747.488 646.487 745.03 656.282 721.219C663.106 704.629 685.126 661.954 699.232 650.469Z" fill="#98BA02"/>
<path d="M662.18 770.043C651.859 747.488 646.487 745.03 656.282 721.219C663.106 704.629 685.126 661.954 699.232 650.469C699.018 652.595 698.508 654.407 698.006 656.469C686.246 674.507 674.081 714.895 668.57 735.753C666.606 743.181 663.997 767.807 662.18 770.043Z" fill="#DBEF01"/>
<path d="M699.232 650.469C701.504 646.088 707.793 640.627 711.341 636.188C707.53 644.077 707.683 644.25 705.631 652.546C705.326 649.633 706.738 647.702 705.058 645.84C700.115 644.939 698.94 656.441 698.006 656.469C698.508 654.408 699.018 652.595 699.232 650.469Z" fill="#83A501"/>
<path d="M189.262 761.864C190.731 765.229 196.093 773.3 198.992 775.163L199.654 774.914L199.418 775.586C197.196 781.989 194.227 777.903 192.755 780.497C183.531 796.741 179.419 813.547 172.229 829.947C171.266 828.764 170.288 827.586 169.365 826.367C172.238 810.545 171.818 799.48 173.218 784.757L173.494 788.342C175.993 785.409 186.747 766.104 189.262 761.864Z" fill="#345E02"/>
<path d="M555.348 483.331C558.68 478.85 561.512 475.909 565.408 471.977C563.359 475.552 560.808 479.651 559.093 483.331C556.743 483.831 557.314 483.361 555.348 483.331Z" fill="#B7C410"/>
<path d="M514.823 766.204H515.553C515.8 767.936 516.148 774.683 515.52 775.996C514.97 772.791 514.94 769.468 514.823 766.204Z" fill="#5C9002"/>
</svg>
