<svg width="849" height="1183" viewBox="0 0 849 1183" fill="none" xmlns="http://www.w3.org/2000/svg">
<rect x="5" y="5" width="839" height="1173" rx="45" fill="white"/>
<rect x="5" y="5" width="839" height="1173" rx="45" stroke="black" stroke-width="10"/>
<circle cx="786.5" cy="1124.5" r="11.5" fill="black"/>
<circle cx="786.5" cy="59.5" r="11.5" fill="black"/>
<path d="M77 1124.5C77 1130.85 71.8513 1136 65.5 1136C59.1487 1136 54 1130.85 54 1124.5C54 1118.15 59.1487 1113 65.5 1113C71.8513 1113 77 1118.15 77 1124.5Z" fill="black"/>
<path d="M77 59.5C77 65.8513 71.8513 71 65.5 71C59.1487 71 54 65.8513 54 59.5C54 53.1487 59.1487 48 65.5 48C71.8513 48 77 53.1487 77 59.5Z" fill="black"/>
<mask id="path-6-inside-1_1_2314" fill="white">
<path d="M708 48C713.523 48 717.934 52.4996 718.616 57.9801C723.122 94.1833 751.817 122.878 788.02 127.384C793.5 128.066 798 132.477 798 138V1046C798 1051.52 793.5 1055.93 788.02 1056.62C751.817 1061.12 723.122 1089.82 718.616 1126.02C717.934 1131.5 713.523 1136 708 1136H141C135.477 1136 131.066 1131.5 130.384 1126.02C125.878 1089.82 97.1833 1061.12 60.9801 1056.62C55.4996 1055.93 51 1051.52 51 1046V138C51 132.477 55.4996 128.066 60.9801 127.384C97.1833 122.878 125.878 94.1833 130.384 57.9801C131.066 52.4996 135.477 48 141 48H708Z"/>
</mask>
<path d="M708 48C713.523 48 717.934 52.4996 718.616 57.9801C723.122 94.1833 751.817 122.878 788.02 127.384C793.5 128.066 798 132.477 798 138V1046C798 1051.52 793.5 1055.93 788.02 1056.62C751.817 1061.12 723.122 1089.82 718.616 1126.02C717.934 1131.5 713.523 1136 708 1136H141C135.477 1136 131.066 1131.5 130.384 1126.02C125.878 1089.82 97.1833 1061.12 60.9801 1056.62C55.4996 1055.93 51 1051.52 51 1046V138C51 132.477 55.4996 128.066 60.9801 127.384C97.1833 122.878 125.878 94.1833 130.384 57.9801C131.066 52.4996 135.477 48 141 48H708Z" fill="#7047A3"/>
<path d="M130.384 1126.02L138.322 1125.03L130.384 1126.02ZM718.616 1126.02L710.678 1125.03L718.616 1126.02ZM788.02 1056.62L789.008 1064.56L788.02 1056.62ZM718.616 57.9801L726.555 56.9922L718.616 57.9801ZM718.616 57.9801L710.678 58.9681C715.635 98.8063 747.194 130.365 787.032 135.322L788.02 127.384L789.008 119.445C756.44 115.392 730.608 89.5603 726.555 56.9922L718.616 57.9801ZM798 138H790V1046H798H806V138H798ZM788.02 1056.62L787.032 1048.68C747.194 1053.64 715.635 1085.19 710.678 1125.03L718.616 1126.02L726.555 1127.01C730.608 1094.44 756.44 1068.61 789.008 1064.56L788.02 1056.62ZM708 1136V1128H141V1136V1144H708V1136ZM130.384 1126.02L138.322 1125.03C133.365 1085.19 101.806 1053.64 61.9681 1048.68L60.9801 1056.62L59.9922 1064.56C92.5603 1068.61 118.392 1094.44 122.445 1127.01L130.384 1126.02ZM51 1046H59V138H51H43V1046H51ZM60.9801 127.384L61.9681 135.322C101.806 130.365 133.365 98.8063 138.322 58.9681L130.384 57.9801L122.445 56.9922C118.392 89.5603 92.5603 115.392 59.9922 119.445L60.9801 127.384ZM141 48V56H708V48V40H141V48ZM130.384 57.9801L138.322 58.9681C138.438 58.0389 138.872 57.2306 139.427 56.6958C139.954 56.1887 140.494 56 141 56V48V40C130.84 40 123.547 48.1329 122.445 56.9922L130.384 57.9801ZM51 138H59C59 137.494 59.1887 136.954 59.6958 136.427C60.2306 135.872 61.0389 135.438 61.9681 135.322L60.9801 127.384L59.9922 119.445C51.1329 120.547 43 127.84 43 138H51ZM60.9801 1056.62L61.9681 1048.68C61.0389 1048.56 60.2306 1048.13 59.6958 1047.57C59.1887 1047.05 59 1046.51 59 1046H51H43C43 1056.16 51.1329 1063.45 59.9922 1064.56L60.9801 1056.62ZM141 1136V1128C140.494 1128 139.954 1127.81 139.427 1127.3C138.872 1126.77 138.438 1125.96 138.322 1125.03L130.384 1126.02L122.445 1127.01C123.547 1135.87 130.84 1144 141 1144V1136ZM718.616 1126.02L710.678 1125.03C710.562 1125.96 710.128 1126.77 709.573 1127.3C709.046 1127.81 708.506 1128 708 1128V1136V1144C718.16 1144 725.453 1135.87 726.555 1127.01L718.616 1126.02ZM798 1046H790C790 1046.51 789.811 1047.05 789.304 1047.57C788.769 1048.13 787.961 1048.56 787.032 1048.68L788.02 1056.62L789.008 1064.56C797.867 1063.45 806 1056.16 806 1046H798ZM788.02 127.384L787.032 135.322C787.961 135.438 788.769 135.872 789.304 136.427C789.811 136.954 790 137.494 790 138H798H806C806 127.84 797.867 120.547 789.008 119.445L788.02 127.384ZM718.616 57.9801L726.555 56.9922C725.453 48.1329 718.16 40 708 40V48V56C708.506 56 709.046 56.1887 709.573 56.6958C710.128 57.2306 710.562 58.0389 710.678 58.9681L718.616 57.9801Z" fill="black" mask="url(#path-6-inside-1_1_2314)"/>
<path d="M690 102C695.523 102 699.911 106.512 700.837 111.957C705.019 136.563 724.437 155.981 749.043 160.163C754.488 161.089 759 165.477 759 171V1014C759 1019.52 754.488 1023.91 749.043 1024.84C724.711 1028.97 705.454 1048 700.984 1072.22C699.993 1077.59 695.633 1082 690.175 1082H158.825C153.367 1082 149.007 1077.59 148.016 1072.22C143.546 1048 124.288 1028.97 99.9568 1024.84C94.5121 1023.91 90 1019.52 90 1014V171C90 165.477 94.512 161.089 99.9568 160.163C124.563 155.981 143.981 136.563 148.163 111.957C149.089 106.512 153.477 102 159 102H690Z" fill="#B48FE1"/>
<mask id="path-9-outside-2_1_2314" maskUnits="userSpaceOnUse" x="402" y="1006" width="44" height="32" fill="black">
<rect fill="white" x="402" y="1006" width="44" height="32"/>
<path d="M405.92 1030.8C408.48 1028.59 410.493 1026.77 411.96 1025.36C413.453 1023.92 414.693 1022.43 415.68 1020.88C416.667 1019.33 417.16 1017.79 417.16 1016.24C417.16 1014.64 416.773 1013.39 416 1012.48C415.253 1011.57 414.067 1011.12 412.44 1011.12C410.867 1011.12 409.64 1011.63 408.76 1012.64C407.907 1013.63 407.453 1014.96 407.4 1016.64H403C403.08 1013.6 403.987 1011.28 405.72 1009.68C407.48 1008.05 409.707 1007.24 412.4 1007.24C415.307 1007.24 417.573 1008.04 419.2 1009.64C420.853 1011.24 421.68 1013.37 421.68 1016.04C421.68 1017.96 421.187 1019.81 420.2 1021.6C419.24 1023.36 418.08 1024.95 416.72 1026.36C415.387 1027.75 413.68 1029.36 411.6 1031.2L409.8 1032.8H422.48V1036.6H403.04V1033.28L405.92 1030.8ZM426.406 1015.04C426.566 1012.56 427.513 1010.63 429.246 1009.24C431.006 1007.85 433.246 1007.16 435.966 1007.16C437.833 1007.16 439.446 1007.49 440.806 1008.16C442.166 1008.83 443.193 1009.73 443.886 1010.88C444.579 1012.03 444.926 1013.32 444.926 1014.76C444.926 1016.41 444.486 1017.83 443.606 1019C442.726 1020.17 441.673 1020.96 440.446 1021.36V1021.52C442.019 1022 443.246 1022.88 444.126 1024.16C445.006 1025.41 445.446 1027.03 445.446 1029C445.446 1030.57 445.086 1031.97 444.366 1033.2C443.646 1034.43 442.579 1035.4 441.166 1036.12C439.753 1036.81 438.059 1037.16 436.086 1037.16C433.206 1037.16 430.833 1036.43 428.966 1034.96C427.126 1033.47 426.139 1031.33 426.006 1028.56H430.406C430.513 1029.97 431.059 1031.13 432.046 1032.04C433.033 1032.92 434.366 1033.36 436.046 1033.36C437.673 1033.36 438.926 1032.92 439.806 1032.04C440.686 1031.13 441.126 1029.97 441.126 1028.56C441.126 1026.69 440.526 1025.37 439.326 1024.6C438.153 1023.8 436.339 1023.4 433.886 1023.4H432.846V1019.64H433.926C436.086 1019.61 437.726 1019.25 438.846 1018.56C439.993 1017.87 440.566 1016.77 440.566 1015.28C440.566 1014 440.153 1012.99 439.326 1012.24C438.499 1011.47 437.326 1011.08 435.806 1011.08C434.313 1011.08 433.153 1011.47 432.326 1012.24C431.499 1012.99 431.006 1013.92 430.846 1015.04H426.406Z"/>
</mask>
<path d="M405.92 1030.8C408.48 1028.59 410.493 1026.77 411.96 1025.36C413.453 1023.92 414.693 1022.43 415.68 1020.88C416.667 1019.33 417.16 1017.79 417.16 1016.24C417.16 1014.64 416.773 1013.39 416 1012.48C415.253 1011.57 414.067 1011.12 412.44 1011.12C410.867 1011.12 409.64 1011.63 408.76 1012.64C407.907 1013.63 407.453 1014.96 407.4 1016.64H403C403.08 1013.6 403.987 1011.28 405.72 1009.68C407.48 1008.05 409.707 1007.24 412.4 1007.24C415.307 1007.24 417.573 1008.04 419.2 1009.64C420.853 1011.24 421.68 1013.37 421.68 1016.04C421.68 1017.96 421.187 1019.81 420.2 1021.6C419.24 1023.36 418.08 1024.95 416.72 1026.36C415.387 1027.75 413.68 1029.36 411.6 1031.2L409.8 1032.8H422.48V1036.6H403.04V1033.28L405.92 1030.8ZM426.406 1015.04C426.566 1012.56 427.513 1010.63 429.246 1009.24C431.006 1007.85 433.246 1007.16 435.966 1007.16C437.833 1007.16 439.446 1007.49 440.806 1008.16C442.166 1008.83 443.193 1009.73 443.886 1010.88C444.579 1012.03 444.926 1013.32 444.926 1014.76C444.926 1016.41 444.486 1017.83 443.606 1019C442.726 1020.17 441.673 1020.96 440.446 1021.36V1021.52C442.019 1022 443.246 1022.88 444.126 1024.16C445.006 1025.41 445.446 1027.03 445.446 1029C445.446 1030.57 445.086 1031.97 444.366 1033.2C443.646 1034.43 442.579 1035.4 441.166 1036.12C439.753 1036.81 438.059 1037.16 436.086 1037.16C433.206 1037.16 430.833 1036.43 428.966 1034.96C427.126 1033.47 426.139 1031.33 426.006 1028.56H430.406C430.513 1029.97 431.059 1031.13 432.046 1032.04C433.033 1032.92 434.366 1033.36 436.046 1033.36C437.673 1033.36 438.926 1032.92 439.806 1032.04C440.686 1031.13 441.126 1029.97 441.126 1028.56C441.126 1026.69 440.526 1025.37 439.326 1024.6C438.153 1023.8 436.339 1023.4 433.886 1023.4H432.846V1019.64H433.926C436.086 1019.61 437.726 1019.25 438.846 1018.56C439.993 1017.87 440.566 1016.77 440.566 1015.28C440.566 1014 440.153 1012.99 439.326 1012.24C438.499 1011.47 437.326 1011.08 435.806 1011.08C434.313 1011.08 433.153 1011.47 432.326 1012.24C431.499 1012.99 431.006 1013.92 430.846 1015.04H426.406Z" fill="black"/>
<path d="M405.92 1030.8L406.116 1031.03L406.116 1031.03L405.92 1030.8ZM411.96 1025.36L412.168 1025.58L412.168 1025.58L411.96 1025.36ZM416 1012.48L415.768 1012.67L415.772 1012.67L416 1012.48ZM408.76 1012.64L408.533 1012.44L408.533 1012.44L408.76 1012.64ZM407.4 1016.64V1016.94H407.691L407.7 1016.65L407.4 1016.64ZM403 1016.64L402.7 1016.63L402.692 1016.94H403V1016.64ZM405.72 1009.68L405.923 1009.9L405.924 1009.9L405.72 1009.68ZM419.2 1009.64L418.99 1009.85L418.991 1009.86L419.2 1009.64ZM420.2 1021.6L419.937 1021.45L419.937 1021.46L420.2 1021.6ZM416.72 1026.36L416.504 1026.15L416.504 1026.15L416.72 1026.36ZM411.6 1031.2L411.401 1030.98L411.401 1030.98L411.6 1031.2ZM409.8 1032.8L409.601 1032.58L409.011 1033.1H409.8V1032.8ZM422.48 1032.8H422.78V1032.5H422.48V1032.8ZM422.48 1036.6V1036.9H422.78V1036.6H422.48ZM403.04 1036.6H402.74V1036.9H403.04V1036.6ZM403.04 1033.28L402.844 1033.05L402.74 1033.14V1033.28H403.04ZM405.92 1030.8L406.116 1031.03C408.678 1028.81 410.696 1026.99 412.168 1025.58L411.96 1025.36L411.752 1025.14C410.291 1026.55 408.282 1028.36 405.724 1030.57L405.92 1030.8ZM411.96 1025.36L412.168 1025.58C413.676 1024.12 414.932 1022.61 415.933 1021.04L415.68 1020.88L415.427 1020.72C414.455 1022.24 413.23 1023.72 411.752 1025.14L411.96 1025.36ZM415.68 1020.88L415.933 1021.04C416.945 1019.46 417.46 1017.85 417.46 1016.24H417.16H416.86C416.86 1017.72 416.389 1019.21 415.427 1020.72L415.68 1020.88ZM417.16 1016.24H417.46C417.46 1014.59 417.062 1013.26 416.228 1012.29L416 1012.48L415.772 1012.67C416.485 1013.51 416.86 1014.69 416.86 1016.24H417.16ZM416 1012.48L416.232 1012.29C415.408 1011.29 414.12 1010.82 412.44 1010.82V1011.12V1011.42C414.013 1011.42 415.098 1011.86 415.768 1012.67L416 1012.48ZM412.44 1011.12V1010.82C410.796 1010.82 409.48 1011.35 408.533 1012.44L408.76 1012.64L408.987 1012.84C409.8 1011.9 410.937 1011.42 412.44 1011.42V1011.12ZM408.76 1012.64L408.533 1012.44C407.623 1013.5 407.155 1014.9 407.1 1016.63L407.4 1016.64L407.7 1016.65C407.752 1015.02 408.19 1013.76 408.987 1012.84L408.76 1012.64ZM407.4 1016.64V1016.34H403V1016.64V1016.94H407.4V1016.64ZM403 1016.64L403.3 1016.65C403.378 1013.66 404.266 1011.43 405.923 1009.9L405.72 1009.68L405.517 1009.46C403.708 1011.13 402.782 1013.54 402.7 1016.63L403 1016.64ZM405.72 1009.68L405.924 1009.9C407.621 1008.33 409.772 1007.54 412.4 1007.54V1007.24V1006.94C409.641 1006.94 407.339 1007.78 405.516 1009.46L405.72 1009.68ZM412.4 1007.24V1007.54C415.251 1007.54 417.433 1008.32 418.99 1009.85L419.2 1009.64L419.41 1009.43C417.713 1007.76 415.363 1006.94 412.4 1006.94V1007.24ZM419.2 1009.64L418.991 1009.86C420.577 1011.39 421.38 1013.44 421.38 1016.04H421.68H421.98C421.98 1013.31 421.13 1011.09 419.409 1009.42L419.2 1009.64ZM421.68 1016.04H421.38C421.38 1017.91 420.901 1019.71 419.937 1021.45L420.2 1021.6L420.463 1021.75C421.472 1019.92 421.98 1018.01 421.98 1016.04H421.68ZM420.2 1021.6L419.937 1021.46C418.989 1023.19 417.845 1024.76 416.504 1026.15L416.72 1026.36L416.936 1026.57C418.315 1025.14 419.491 1023.53 420.463 1021.74L420.2 1021.6ZM416.72 1026.36L416.504 1026.15C415.178 1027.53 413.478 1029.14 411.401 1030.98L411.6 1031.2L411.799 1031.42C413.882 1029.58 415.595 1027.96 416.936 1026.57L416.72 1026.36ZM411.6 1031.2L411.401 1030.98L409.601 1032.58L409.8 1032.8L409.999 1033.02L411.799 1031.42L411.6 1031.2ZM409.8 1032.8V1033.1H422.48V1032.8V1032.5H409.8V1032.8ZM422.48 1032.8H422.18V1036.6H422.48H422.78V1032.8H422.48ZM422.48 1036.6V1036.3H403.04V1036.6V1036.9H422.48V1036.6ZM403.04 1036.6H403.34V1033.28H403.04H402.74V1036.6H403.04ZM403.04 1033.28L403.236 1033.51L406.116 1031.03L405.92 1030.8L405.724 1030.57L402.844 1033.05L403.04 1033.28ZM426.406 1015.04L426.107 1015.02L426.086 1015.34H426.406V1015.04ZM429.246 1009.24L429.06 1009L429.059 1009.01L429.246 1009.24ZM440.806 1008.16L440.674 1008.43L440.806 1008.16ZM443.886 1010.88L444.143 1010.72L443.886 1010.88ZM443.606 1019L443.846 1019.18V1019.18L443.606 1019ZM440.446 1021.36L440.353 1021.07L440.146 1021.14V1021.36H440.446ZM440.446 1021.52H440.146V1021.74L440.358 1021.81L440.446 1021.52ZM444.126 1024.16L443.879 1024.33L443.88 1024.33L444.126 1024.16ZM444.366 1033.2L444.107 1033.05L444.366 1033.2ZM441.166 1036.12L441.298 1036.39L441.302 1036.39L441.166 1036.12ZM428.966 1034.96L428.777 1035.19L428.781 1035.2L428.966 1034.96ZM426.006 1028.56V1028.26H425.691L425.706 1028.57L426.006 1028.56ZM430.406 1028.56L430.705 1028.54L430.684 1028.26H430.406V1028.56ZM432.046 1032.04L431.843 1032.26L431.846 1032.26L432.046 1032.04ZM439.806 1032.04L440.018 1032.25L440.021 1032.25L439.806 1032.04ZM439.326 1024.6L439.157 1024.85L439.163 1024.85L439.326 1024.6ZM432.846 1023.4H432.546V1023.7H432.846V1023.4ZM432.846 1019.64V1019.34H432.546V1019.64H432.846ZM433.926 1019.64V1019.94L433.93 1019.94L433.926 1019.64ZM438.846 1018.56L438.691 1018.3L438.688 1018.3L438.846 1018.56ZM439.326 1012.24L439.121 1012.46L439.125 1012.46L439.326 1012.24ZM432.326 1012.24L432.527 1012.46L432.531 1012.46L432.326 1012.24ZM430.846 1015.04V1015.34H431.106L431.143 1015.08L430.846 1015.04ZM426.406 1015.04L426.705 1015.06C426.861 1012.65 427.774 1010.8 429.433 1009.47L429.246 1009.24L429.059 1009.01C427.251 1010.45 426.271 1012.47 426.107 1015.02L426.406 1015.04ZM429.246 1009.24L429.432 1009.48C431.128 1008.14 433.298 1007.46 435.966 1007.46V1007.16V1006.86C433.193 1006.86 430.884 1007.57 429.06 1009L429.246 1009.24ZM435.966 1007.16V1007.46C437.797 1007.46 439.363 1007.79 440.674 1008.43L440.806 1008.16L440.938 1007.89C439.528 1007.2 437.868 1006.86 435.966 1006.86V1007.16ZM440.806 1008.16L440.674 1008.43C441.989 1009.07 442.969 1009.94 443.629 1011.04L443.886 1010.88L444.143 1010.72C443.416 1009.52 442.343 1008.58 440.938 1007.89L440.806 1008.16ZM443.886 1010.88L443.629 1011.04C444.292 1012.13 444.626 1013.37 444.626 1014.76H444.926H445.226C445.226 1013.27 444.866 1011.92 444.143 1010.72L443.886 1010.88ZM444.926 1014.76H444.626C444.626 1016.36 444.202 1017.71 443.366 1018.82L443.606 1019L443.846 1019.18C444.77 1017.95 445.226 1016.47 445.226 1014.76H444.926ZM443.606 1019L443.366 1018.82C442.518 1019.95 441.513 1020.7 440.353 1021.07L440.446 1021.36L440.539 1021.65C441.832 1021.22 442.934 1020.4 443.846 1019.18L443.606 1019ZM440.446 1021.36H440.146V1021.52H440.446H440.746V1021.36H440.446ZM440.446 1021.52L440.358 1021.81C441.871 1022.27 443.04 1023.11 443.879 1024.33L444.126 1024.16L444.373 1023.99C443.452 1022.65 442.168 1021.73 440.533 1021.23L440.446 1021.52ZM444.126 1024.16L443.88 1024.33C444.716 1025.52 445.146 1027.07 445.146 1029H445.446H445.746C445.746 1026.98 445.296 1025.3 444.371 1023.99L444.126 1024.16ZM445.446 1029H445.146C445.146 1030.53 444.797 1031.87 444.107 1033.05L444.366 1033.2L444.625 1033.35C445.374 1032.07 445.746 1030.62 445.746 1029H445.446ZM444.366 1033.2L444.107 1033.05C443.419 1034.22 442.398 1035.16 441.03 1035.85L441.166 1036.12L441.302 1036.39C442.76 1035.64 443.872 1034.63 444.625 1033.35L444.366 1033.2ZM441.166 1036.12L441.034 1035.85C439.671 1036.52 438.025 1036.86 436.086 1036.86V1037.16V1037.46C438.094 1037.46 439.835 1037.11 441.298 1036.39L441.166 1036.12ZM436.086 1037.16V1036.86C433.258 1036.86 430.955 1036.14 429.151 1034.72L428.966 1034.96L428.781 1035.2C430.711 1036.71 433.153 1037.46 436.086 1037.46V1037.16ZM428.966 1034.96L429.155 1034.73C427.393 1033.3 426.436 1031.25 426.306 1028.55L426.006 1028.56L425.706 1028.57C425.843 1031.42 426.859 1033.64 428.777 1035.19L428.966 1034.96ZM426.006 1028.56V1028.86H430.406V1028.56V1028.26H426.006V1028.56ZM430.406 1028.56L430.107 1028.58C430.219 1030.07 430.797 1031.3 431.843 1032.26L432.046 1032.04L432.249 1031.82C431.322 1030.97 430.806 1029.88 430.705 1028.54L430.406 1028.56ZM432.046 1032.04L431.846 1032.26C432.902 1033.21 434.313 1033.66 436.046 1033.66V1033.36V1033.06C434.419 1033.06 433.164 1032.63 432.246 1031.82L432.046 1032.04ZM436.046 1033.36V1033.66C437.727 1033.66 439.066 1033.2 440.018 1032.25L439.806 1032.04L439.594 1031.83C438.786 1032.64 437.618 1033.06 436.046 1033.06V1033.36ZM439.806 1032.04L440.021 1032.25C440.962 1031.28 441.426 1030.04 441.426 1028.56H441.126H440.826C440.826 1029.91 440.41 1030.99 439.591 1031.83L439.806 1032.04ZM441.126 1028.56H441.426C441.426 1026.63 440.8 1025.19 439.488 1024.35L439.326 1024.6L439.163 1024.85C440.252 1025.55 440.826 1026.76 440.826 1028.56H441.126ZM439.326 1024.6L439.495 1024.35C438.247 1023.5 436.361 1023.1 433.886 1023.1V1023.4V1023.7C436.318 1023.7 438.058 1024.1 439.157 1024.85L439.326 1024.6ZM433.886 1023.4V1023.1H432.846V1023.4V1023.7H433.886V1023.4ZM432.846 1023.4H433.146V1019.64H432.846H432.546V1023.4H432.846ZM432.846 1019.64V1019.94H433.926V1019.64V1019.34H432.846V1019.64ZM433.926 1019.64L433.93 1019.94C436.113 1019.91 437.817 1019.55 439.004 1018.82L438.846 1018.56L438.688 1018.3C437.635 1018.96 436.059 1019.31 433.922 1019.34L433.926 1019.64ZM438.846 1018.56L439.001 1018.82C440.249 1018.06 440.866 1016.86 440.866 1015.28H440.566H440.266C440.266 1016.68 439.736 1017.67 438.691 1018.3L438.846 1018.56ZM440.566 1015.28H440.866C440.866 1013.93 440.426 1012.83 439.527 1012.02L439.326 1012.24L439.125 1012.46C439.879 1013.14 440.266 1014.07 440.266 1015.28H440.566ZM439.326 1012.24L439.531 1012.02C438.632 1011.18 437.375 1010.78 435.806 1010.78V1011.08V1011.38C437.276 1011.38 438.367 1011.75 439.121 1012.46L439.326 1012.24ZM435.806 1011.08V1010.78C434.261 1010.78 433.019 1011.18 432.121 1012.02L432.326 1012.24L432.531 1012.46C433.286 1011.75 434.364 1011.38 435.806 1011.38V1011.08ZM432.326 1012.24L432.125 1012.02C431.245 1012.81 430.719 1013.81 430.549 1015L430.846 1015.04L431.143 1015.08C431.293 1014.03 431.753 1013.16 432.527 1012.46L432.326 1012.24ZM430.846 1015.04V1014.74H426.406V1015.04V1015.34H430.846V1015.04Z" fill="black" mask="url(#path-9-outside-2_1_2314)"/>
<path d="M348.145 197.975L329.98 272H304.675L294.49 226.64L284.095 272H258.79L240.835 197.975H263.095L271.705 248.585L283.36 197.975H305.935L317.275 248.165L325.885 197.975H348.145ZM367.273 207.635C363.633 207.635 360.693 206.655 358.453 204.695C356.283 202.665 355.198 200.145 355.198 197.135C355.198 194.055 356.283 191.5 358.453 189.47C360.693 187.44 363.633 186.425 367.273 186.425C370.843 186.425 373.713 187.44 375.883 189.47C378.123 191.5 379.243 194.055 379.243 197.135C379.243 200.145 378.123 202.665 375.883 204.695C373.713 206.655 370.843 207.635 367.273 207.635ZM377.458 213.095V272H356.878V213.095H377.458ZM427.713 212.57C434.503 212.57 439.893 214.845 443.883 219.395C447.873 223.875 449.868 229.965 449.868 237.665V272H429.288V240.395C429.288 237.035 428.413 234.41 426.663 232.52C424.913 230.56 422.568 229.58 419.628 229.58C416.548 229.58 414.133 230.56 412.383 232.52C410.633 234.41 409.758 237.035 409.758 240.395V272H389.178V213.095H409.758V221.495C411.578 218.835 414.028 216.7 417.108 215.09C420.188 213.41 423.723 212.57 427.713 212.57ZM495.915 254.465V272H486.99C471.94 272 464.415 264.545 464.415 249.635V230.21H457.17V213.095H464.415V198.815H485.1V213.095H495.81V230.21H485.1V249.95C485.1 251.56 485.45 252.715 486.15 253.415C486.92 254.115 488.18 254.465 489.93 254.465H495.915ZM561.635 241.865C561.635 243.475 561.53 245.085 561.32 246.695H522.365C522.575 249.915 523.45 252.33 524.99 253.94C526.6 255.48 528.63 256.25 531.08 256.25C534.51 256.25 536.96 254.71 538.43 251.63H560.375C559.465 255.69 557.68 259.33 555.02 262.55C552.43 265.7 549.14 268.185 545.15 270.005C541.16 271.825 536.75 272.735 531.92 272.735C526.11 272.735 520.93 271.51 516.38 269.06C511.9 266.61 508.365 263.11 505.775 258.56C503.255 254.01 501.995 248.655 501.995 242.495C501.995 236.335 503.255 231.015 505.775 226.535C508.295 221.985 511.795 218.485 516.275 216.035C520.825 213.585 526.04 212.36 531.92 212.36C537.73 212.36 542.875 213.55 547.355 215.93C551.835 218.31 555.335 221.74 557.855 226.22C560.375 230.63 561.635 235.845 561.635 241.865ZM540.635 236.72C540.635 234.2 539.795 232.24 538.115 230.84C536.435 229.37 534.335 228.635 531.815 228.635C529.295 228.635 527.23 229.335 525.62 230.735C524.01 232.065 522.96 234.06 522.47 236.72H540.635ZM590.637 223.49C592.947 220.13 595.747 217.47 599.037 215.51C602.327 213.55 605.862 212.57 609.642 212.57V234.515H603.867C599.387 234.515 596.062 235.39 593.892 237.14C591.722 238.89 590.637 241.935 590.637 246.275V272H570.057V213.095H590.637V223.49Z" fill="black"/>
<path d="M422.851 365C428.802 365.171 434.503 365.872 440.086 368.053C449.449 371.71 457.453 378.932 461.421 388.24C465.984 398.943 464.766 410.702 460.526 421.245C493.458 431.36 520.028 454.789 536.742 484.624C539.456 489.489 541.932 494.484 544.159 499.59C545.573 502.849 546.753 506.358 548.437 509.48C549.456 511.37 551.558 512.965 553.058 514.5C555.703 517.205 557.856 519.898 559.631 523.252C563.665 530.872 564.843 540.679 562.206 548.951C559.739 556.693 554.377 561.942 547.308 565.617C547.598 567.151 547.87 568.688 548.121 570.229C553.069 601.039 545.659 632.556 527.501 657.933C533.474 663.1 537.927 668.107 541.532 675.173C544.659 670.143 548.265 665.344 551.602 660.448C554.092 656.793 556.342 652.98 558.871 649.354C555.232 648.149 551.948 646.181 550.013 642.746C548.578 640.199 548.346 637.426 549.202 634.646C552.225 624.823 585.835 590.543 595.538 585.294C598.555 583.662 602.139 583.099 605.44 584.186C614.927 587.312 649.457 622.24 654.232 632.516C655.43 635.094 655.484 638.148 654.487 640.801C652.885 645.062 649.326 647.371 645.372 649.138C650.113 655.286 654.231 662.148 658.558 668.614C664.749 677.867 673.18 688.52 677.195 698.863C679.066 703.684 679.498 709.229 677.29 714.026C674.982 719.041 670.757 721.682 665.786 723.509C671.663 732.474 677.835 741.292 683.961 750.089C688.056 755.968 693.128 762.131 695.907 768.736C697.857 773.356 697.89 778.562 696 783.207C693.957 788.109 689.753 792.128 684.828 794.079C674.336 798.236 662.074 793.472 652.394 789.252C652.109 791.805 651.461 794.436 650.268 796.725C648.256 800.669 644.7 803.603 640.445 804.828C633.032 807.037 625.546 804.193 619.083 800.642L619.141 844.317C629.209 840.863 639.886 839.55 650.491 840.46C667.301 842.021 682.77 850.299 693.395 863.42C697.34 868.23 703.21 876.355 702.38 882.965C702.066 885.467 700.795 887.551 698.814 889.089C697.316 890.251 695.56 890.799 693.685 890.936C690.247 891.187 686.704 891.033 683.257 891.031L664.579 891.022H606.158L551.707 891.028C540.506 891.029 529.082 891.538 517.934 890.397C513.061 893.32 508.485 896.645 503.466 899.359C476.116 914.143 448.587 919.64 417.71 919.215C386.535 918.915 354.532 907.535 328.556 890.741C310.928 891.09 293.296 891.184 275.665 891.023L197.134 891.033L164.251 891.035C158.656 891.035 147.125 891.751 142.359 890.359C140.475 889.808 138.741 888.183 137.812 886.485C136.176 883.496 136.466 879.996 137.484 876.862C141.479 864.573 155.015 852.082 166.351 846.465C184.169 837.636 203.105 838.773 221.488 845.03C221.806 830.508 221.478 815.933 221.542 801.403C217.669 803.521 213.303 805.117 208.932 805.785C203.873 806.559 198.769 805.883 194.602 802.67C190.387 799.419 188.751 794.949 188.011 789.904C182.814 792.179 177.56 794.207 171.969 795.296C164.907 796.671 157.435 796.329 151.339 792.14C147.368 789.385 144.656 785.163 143.8 780.406C143.238 777.203 143.511 773.487 144.658 770.437C147.132 763.863 152.554 757.497 156.54 751.705L174.792 725.245C173.057 724.635 171.403 723.892 169.85 722.904C165.794 720.323 162.771 716.57 161.763 711.786C160.963 707.986 161.484 704.083 162.832 700.472C166.099 691.714 172.728 683.496 177.949 675.785L194.909 650.43C194.427 650.192 193.952 649.94 193.485 649.674C190.246 647.83 187.355 645.145 186.4 641.418C185.616 638.352 186.304 635.843 187.823 633.168C193.297 623.531 228.141 587.592 237.894 585.205C241.579 584.303 244.866 585.126 248.038 587.07C258.001 593.181 292.442 626.39 294.729 636.899C295.341 639.711 294.658 642.603 293.087 644.985C291.297 647.697 288.627 649.6 285.447 650.254C291.211 659.484 297.383 668.291 303.687 677.158C307.56 669.463 311.911 663.723 318.432 658.062C316.935 656.141 315.502 654.172 314.134 652.158C297.766 627.81 292.18 594.179 297.864 565.581C297.611 565.455 297.356 565.329 297.107 565.195C290.407 561.6 285.68 556.149 283.516 548.802C280.349 538.046 283.317 525.839 290.468 517.319C292.582 514.8 295.698 512.657 297.323 509.82C299.18 506.581 300.341 502.714 301.79 499.265C304.033 493.921 306.569 488.706 309.387 483.642C325.807 453.889 352.692 430.517 385.625 420.989C383.686 416.09 382.361 411.154 382.102 405.873C381.59 395.442 384.698 385.451 391.848 377.715C400.227 368.65 410.859 365.49 422.851 365Z" fill="black"/>
<path d="M306.205 704.778C307.241 705.813 308.295 706.828 309.369 707.824C335.568 732.079 378.578 738.93 413.021 739.619C421.152 739.781 429.209 739.356 437.328 739.03C438.234 757.874 436.502 776.698 437.944 795.51C438.216 799.057 438.228 802.905 439.027 806.366C439.555 808.653 440.438 810.752 441.926 812.587C444.308 815.542 447.795 817.394 451.576 817.711C456.126 818.085 459.751 816.241 463.145 813.446C465.868 815.545 468.835 817.044 472.342 817.179C476.953 817.355 480.304 815.178 483.548 812.195C483.944 812.533 484.347 812.861 484.76 813.177C487.748 815.477 491.996 816.461 495.714 815.835C499.291 815.232 502.568 812.976 504.643 810.034C508.203 804.984 507.364 798.734 508.131 792.941C508.626 789.208 509.387 785.52 509.816 781.773C511.945 763.163 512.395 743.958 509.539 725.404C520.989 720.865 531.206 714.252 539.383 704.985C541.54 707.678 543.574 710.467 545.478 713.344C563.834 741.11 568.754 773.703 562.208 806.021C558.216 822.276 551.414 837.225 541.168 850.51C517.396 881.331 481.171 900.318 442.803 905.182C403.296 910.191 360.669 899.515 329.057 875.023C303.508 855.229 285.364 826.748 281.288 794.431C277.379 762.425 286.342 730.177 306.205 704.778Z" fill="#FDFDFD"/>
<path d="M419.604 788.88C426.616 787.496 433.416 792.082 434.761 799.102C436.107 806.122 431.484 812.896 424.457 814.204C417.484 815.501 410.772 810.921 409.437 803.955C408.102 796.989 412.645 790.252 419.604 788.88Z" fill="black"/>
<path d="M421.655 750.179C428.693 749.889 434.649 755.328 434.998 762.363C435.346 769.399 429.958 775.4 422.926 775.808C415.809 776.221 409.72 770.753 409.368 763.634C409.015 756.514 414.533 750.472 421.655 750.179Z" fill="black"/>
<path d="M421.315 827.257C428.253 826.623 434.405 831.7 435.099 838.632C435.794 845.564 430.77 851.761 423.844 852.515C416.832 853.278 410.543 848.179 409.84 841.161C409.138 834.143 414.292 827.899 421.315 827.257Z" fill="black"/>
<path d="M310.575 568.451C320.074 568.532 327.995 564.927 336.726 561.738C342.745 559.54 348.851 557.423 355.022 555.693C396.221 544.236 439.642 543.345 481.275 553.103C492.931 555.877 504.228 559.733 515.518 563.7C521.811 566.117 528.015 568.519 534.854 568.688C539.368 597.752 535.034 626.284 517.368 650.413C514.648 654.128 511.64 658.039 508.034 660.931C500.526 666.954 483.126 672.966 473.525 675.135C443.348 682.595 411.903 683.361 381.398 677.378C370.047 675.043 348.279 668.828 339.297 661.878C333.533 657.42 328.283 650.312 324.285 644.191C310.158 622.565 305.256 593.68 310.575 568.451Z" fill="#FDFDFD"/>
<path d="M515.518 563.7C521.811 566.117 528.015 568.519 534.854 568.688C539.368 597.752 535.034 626.284 517.368 650.413C514.648 654.129 511.64 658.039 508.034 660.931C500.526 666.954 483.126 672.966 473.525 675.135C473.621 674.359 473.728 673.832 474.232 673.194C476.155 670.76 478.91 668.999 481.235 666.967C484.671 663.966 487.977 660.639 491.017 657.236C497.229 650.285 503.28 642.147 507.483 633.808C515.292 618.315 518.386 599.584 517.688 582.35C517.436 576.136 515.836 570.129 515.53 564.003C515.524 563.902 515.522 563.8 515.518 563.7Z" fill="#EFEFEF"/>
<path d="M418.135 594.45C424.91 594.673 483.049 612.523 489.223 615.894C490.968 616.848 492.726 618.281 493.217 620.305C493.548 621.67 493.126 623.115 492.374 624.27C489.457 628.753 475.024 630.519 469.568 631.643C459.874 633.626 450.131 635.365 440.35 636.858C433.83 637.817 421.119 640.139 415.07 639.079C412.809 638.672 410.684 637.717 408.879 636.296C404.561 632.95 402.292 627.637 401.567 622.338C400.584 615.164 401.769 606.968 406.304 601.122C409.352 597.194 413.186 595.071 418.135 594.45Z" fill="black"/>
<path d="M418.439 602.576C423.445 603.044 428.695 604.966 433.553 606.336C449.214 610.751 464.645 616.007 480.121 621.021C474.839 622.36 469.475 623.42 464.128 624.465C453.403 626.821 442.144 628.474 431.258 629.866C427.04 630.406 422.504 631.237 418.245 631.112C416.76 631.069 415.317 630.861 414.052 630.034C411.629 628.452 410.337 625.393 409.749 622.665C408.652 617.577 409.284 611.129 412.235 606.74C413.806 604.404 415.711 603.155 418.439 602.576Z" fill="#EF8815"/>
<path d="M377.059 627.681C377.886 627.611 378.704 627.572 379.532 627.653C383.17 628.009 384.153 632.957 385.589 635.683C386.338 637.106 387.369 638.458 388.406 639.686C399.131 652.392 420.429 655.257 435.477 649.964C437.815 649.142 440.213 648.145 442.386 646.951C445.193 645.409 448.341 642.346 451.75 642.729C453.234 642.897 454.52 643.951 455.364 645.145C456.089 646.17 456.387 647.373 456.153 648.612C455.783 650.573 454.418 651.69 452.85 652.757C452.662 652.883 452.472 653.005 452.278 653.122C438.207 661.744 422.032 665.026 405.858 660.999C393.652 657.961 382.667 650.945 376.199 639.99C374.675 637.409 372.877 634.006 373.798 630.948C374.316 629.228 375.538 628.456 377.059 627.681Z" fill="black"/>
<path d="M381.408 568.974C384.185 568.736 387.106 569.531 389.417 571.075C392.696 573.265 394.781 576.903 395.539 580.724C396.409 585.109 395.584 589.789 392.98 593.459C390.625 596.778 387.548 598.427 383.622 599.128C380.899 599.365 378.033 598.632 375.738 597.155C372.444 595.034 370.363 591.446 369.571 587.665C368.648 583.254 369.443 578.481 372.012 574.743C374.354 571.335 377.443 569.707 381.408 568.974Z" fill="black"/>
<path d="M462.604 568.993C465.125 568.813 467.416 568.855 469.779 569.869C473.298 571.378 475.793 574.502 477.066 578.052C478.619 582.335 478.351 587.067 476.324 591.148C474.49 594.786 471.594 596.978 467.796 598.232C464.845 598.786 461.914 598.513 459.225 597.105C455.823 595.325 453.479 592.028 452.439 588.378C451.224 584.115 451.731 579.268 453.946 575.417C455.915 571.991 458.842 569.98 462.604 568.993Z" fill="black"/>
<path d="M269.946 649.823C274 654.419 277.082 660.338 280.45 665.482C286.431 674.616 292.911 683.763 300.237 691.882C294.225 698.225 289.54 705.96 285.026 713.399C282.893 712.448 280.788 711.436 278.713 710.364C276.611 709.543 274.843 709.008 272.687 709.972C271.2 710.638 270.066 711.824 269.559 713.381C269.074 714.871 269.275 716.426 270.051 717.784C272.018 721.228 276.532 722.218 279.827 723.92C269.973 746.268 267.169 767.672 268.17 791.928C263.224 789.617 258.348 786.97 254.099 783.508C250.529 780.6 246.974 776.293 242.825 774.359C241.604 773.789 240.45 773.99 239.228 774.437C235.203 775.909 231.564 779.931 228.185 782.604C223.177 786.567 209.713 796.095 202.983 792.973C201.879 792.461 201.161 791.578 200.805 790.426C199.166 785.122 205.004 775.512 199.121 772.125C197.714 771.315 196.041 771.231 194.5 771.684C192.137 772.378 190.03 774.249 187.961 775.566C181.235 779.848 173.499 783.458 165.389 783.58C162.817 783.494 159.994 783.115 157.991 781.334C156.614 780.111 156.07 778.529 155.992 776.725C155.92 775.041 156.853 773.588 157.664 772.176C160.249 767.677 163.33 763.421 166.276 759.154L179.233 740.388C182.061 736.271 186.947 728.015 190.017 724.723C194.003 724.192 198.991 723.403 202.569 721.544C204.381 720.603 206.002 719.201 206.534 717.156C207.106 714.953 206.356 712.982 205.26 711.098C203.624 709.732 202.559 709.356 200.416 709.566C195.409 710.057 190.554 712.241 185.491 712.895C182.665 713.443 178.217 713.375 175.757 711.712C174.612 710.938 173.883 709.787 173.641 708.426C173.26 706.273 174.611 703.506 175.626 701.625C179.012 695.348 183.779 689.427 187.762 683.488C195.093 672.559 202.191 661.358 209.877 650.679C210.329 655.611 211.004 659.593 213.069 664.113C215.373 667.594 218.27 670.133 222.494 670.93C226.744 671.732 230.93 670.431 234.58 668.294C237.015 666.88 239.111 665.152 241.225 663.303C242.187 664.572 243.372 665.689 244.476 666.835C248.034 669.779 252.299 671.852 257.039 671.52C261.115 671.234 263.873 669.147 266.411 666.143C269.283 661.014 269.993 655.654 269.946 649.823Z" fill="#599F33"/>
<path d="M205.26 711.098C206.907 710.851 208.267 711.26 209.609 712.266C210.733 713.122 211.466 714.393 211.642 715.794C211.887 717.822 210.929 719.468 209.685 720.978C206.761 724.525 203.056 727.514 199.967 730.951C195.409 736.021 191.389 741.517 187.124 746.827C180.922 754.549 164.541 772.646 165.35 783.156C165.361 783.298 165.376 783.439 165.389 783.58C162.817 783.494 159.994 783.115 157.991 781.334C156.614 780.111 156.07 778.529 155.992 776.725C155.92 775.041 156.853 773.588 157.664 772.176C160.249 767.678 163.33 763.421 166.276 759.154L179.233 740.388C182.061 736.271 186.947 728.015 190.017 724.723C194.003 724.192 198.991 723.403 202.569 721.544C204.381 720.603 206.002 719.201 206.534 717.156C207.106 714.953 206.356 712.983 205.26 711.098Z" fill="#428226"/>
<path d="M209.877 650.679C210.329 655.611 211.004 659.594 213.069 664.113C212.111 664.475 211.383 664.836 210.698 665.619C208.005 668.697 206.245 672.746 204.057 676.197C197.824 686.029 190.701 695.498 185.888 706.156C184.995 708.134 184.275 709.959 184.137 712.156L184.389 712.618L185.49 712.895C182.665 713.443 178.217 713.375 175.757 711.712C174.611 710.938 173.883 709.787 173.641 708.426C173.26 706.273 174.611 703.506 175.626 701.625C179.012 695.348 183.779 689.427 187.762 683.488C195.093 672.559 202.191 661.358 209.877 650.679Z" fill="#428226"/>
<path d="M269.946 649.823C274 654.419 277.082 660.338 280.45 665.482C286.431 674.616 292.911 683.763 300.236 691.882C294.225 698.225 289.54 705.96 285.026 713.399C282.893 712.448 280.788 711.436 278.713 710.364C279.068 710.049 279.415 709.735 279.75 709.397C282.809 706.308 286.27 699.491 286.11 695.108C285.929 690.127 274.569 675.139 271.008 670.861C269.597 669.167 268.015 667.652 266.411 666.143C269.283 661.014 269.993 655.654 269.946 649.823Z" fill="#428226"/>
<path d="M241.225 663.302C242.187 664.572 243.372 665.689 244.476 666.835C242.859 668.5 240.829 670.846 238.327 670.95C237.345 670.99 236.392 670.614 235.701 669.914C235.249 669.449 234.912 668.847 234.58 668.294C237.015 666.88 239.111 665.152 241.225 663.302Z" fill="#428226"/>
<path d="M231.26 713.441C234.533 712.829 237.68 714.993 238.28 718.268C238.88 721.542 236.706 724.681 233.429 725.27C230.169 725.857 227.048 723.696 226.45 720.436C225.852 717.177 228.004 714.049 231.26 713.441Z" fill="black"/>
<path d="M210.732 683.806C213.899 683.063 217.071 685.023 217.822 688.187C218.574 691.352 216.623 694.529 213.461 695.29C210.286 696.053 207.094 694.093 206.339 690.916C205.584 687.739 207.553 684.553 210.732 683.806Z" fill="black"/>
<path d="M210.728 745.265C212.51 744.632 214.496 745.009 215.922 746.252C217.349 747.495 217.994 749.41 217.61 751.263C217.227 753.115 215.874 754.617 214.072 755.192C211.347 756.06 208.43 754.584 207.517 751.874C206.604 749.163 208.033 746.222 210.728 745.265Z" fill="black"/>
<path d="M259.128 687.08C261.957 686.601 264.644 688.49 265.151 691.314C265.658 694.138 263.797 696.844 260.978 697.379C259.13 697.731 257.234 697.062 256.015 695.628C254.796 694.195 254.44 692.217 255.084 690.449C255.729 688.68 257.273 687.393 259.128 687.08Z" fill="black"/>
<path d="M254.453 739.164C257.12 738.729 259.641 740.523 260.103 743.186C260.564 745.849 258.795 748.388 256.137 748.876C253.441 749.371 250.859 747.571 250.391 744.871C249.922 742.17 251.748 739.606 254.453 739.164Z" fill="black"/>
<path d="M178.079 760.548C178.689 760.509 179.329 760.487 179.938 760.571C180.884 760.702 181.844 761.279 182.326 762.114C182.777 762.893 182.788 763.815 182.567 764.665C182.104 766.457 180.911 767.389 179.404 768.319C179.2 768.37 178.996 768.422 178.789 768.461C177.9 768.634 177.006 768.54 176.283 767.935C175.652 767.406 175.473 766.667 175.474 765.882C175.48 763.713 176.592 762.023 178.079 760.548Z" fill="#94C36C"/>
<path d="M544.975 690.851C548.754 685.512 552.727 680.313 556.474 674.948C562.178 666.808 567.642 658.501 572.857 650.04C573.067 655.833 574.227 660.563 577.393 665.431C579.855 668.137 582.569 669.828 586.326 670.016C591.108 670.256 595.081 668.046 598.848 665.392C599.965 664.469 601.026 663.472 602.1 662.5C603.058 663.352 604.075 664.15 605.062 664.969C609.393 667.517 613.935 670.183 619.178 669.569C622.94 669.128 625.632 667.096 627.928 664.226C630.341 659.628 631.036 655.164 631.111 649.994L651.916 681.242C656.318 687.762 661.614 694.513 665.036 701.606C665.912 703.424 666.681 705.417 666.253 707.458C665.931 708.992 665.088 710.278 663.738 711.092C659.825 713.451 653.65 711.828 649.468 711.018C645.875 710.108 638.365 707.16 635.167 708.951C633.804 709.713 632.929 711.192 632.604 712.69C632.219 714.46 632.767 716.477 633.766 717.957C633.992 718.285 634.229 718.605 634.477 718.916C639.432 722.12 644.727 722.398 650.393 723.427C657.623 732.993 664.149 743.175 670.954 753.053C675.018 758.952 681.093 766.515 684.128 772.854C684.868 774.402 685.242 775.969 685.011 777.694C684.816 779.161 684.139 780.381 682.957 781.281C679.976 783.553 675.469 783.452 671.936 782.842C668.968 782.329 666.115 781.41 663.316 780.314C660.899 779.347 658.558 778.202 656.31 776.89C653.018 774.989 649.114 771.803 645.389 771.065C643.916 770.773 642.15 770.712 640.88 771.646C636.488 774.874 640.994 784.485 640.104 789.196C639.873 790.418 639.357 791.572 638.285 792.27C636.939 793.147 634.933 793.044 633.408 792.885C625.268 792.04 617.361 785.587 611.328 780.499C608.616 778.212 605.356 774.714 601.762 773.968C600.757 773.76 599.508 773.743 598.566 774.197C595.22 775.812 592.036 779.496 589.114 781.858C585.398 784.88 581.492 787.659 577.418 790.177C578.443 765.79 575.324 746.471 565.731 723.997C568.998 722.536 574.102 721.23 575.711 717.766C576.474 716.109 576.495 714.206 575.769 712.531C575.222 711.276 574.241 710.229 572.929 709.781C569.521 708.619 563.938 712.029 560.795 713.506C557.773 708.507 554.559 703.627 551.163 698.874C548.923 696.718 546.897 693.356 544.975 690.851Z" fill="#599F33"/>
<path d="M634.477 718.916C639.432 722.12 644.727 722.398 650.393 723.427C657.623 732.993 664.149 743.175 670.954 753.053C675.018 758.951 681.093 766.515 684.128 772.854C684.868 774.402 685.242 775.969 685.011 777.694C684.816 779.161 684.139 780.381 682.957 781.281C679.976 783.553 675.469 783.452 671.936 782.841C668.968 782.329 666.115 781.41 663.316 780.314C663.928 779.498 664.571 778.671 665.076 777.783C666.81 774.729 667.424 771.262 666.44 767.857C664.629 761.591 653.945 748.769 649.637 742.805C646.003 737.812 642.538 732.698 639.249 727.471C637.652 724.937 635.277 721.793 634.477 718.916Z" fill="#428226"/>
<path d="M627.928 664.226C630.341 659.628 631.036 655.164 631.111 649.994L651.916 681.242C656.318 687.762 661.614 694.513 665.036 701.606C665.912 703.424 666.681 705.417 666.253 707.458C665.931 708.992 665.088 710.278 663.738 711.092C659.825 713.451 653.65 711.828 649.468 711.018C650.879 709.055 652.515 707.077 652.604 704.551C652.671 702.637 651.807 700.842 650.963 699.168C649.321 695.908 646.988 692.925 645.053 689.829C640.348 682.297 633.749 670.488 627.928 664.226Z" fill="#428226"/>
<path d="M544.975 690.851C548.754 685.512 552.727 680.313 556.474 674.948C562.178 666.808 567.642 658.501 572.857 650.04C573.067 655.833 574.227 660.563 577.393 665.431C571.557 670.222 562.998 683.032 558.682 689.668C557.515 691.462 554.411 697.74 553.093 698.692C552.736 698.95 551.598 698.88 551.163 698.874C548.923 696.718 546.897 693.356 544.975 690.851Z" fill="#428226"/>
<path d="M602.1 662.5C603.058 663.352 604.075 664.15 605.062 664.969C605.007 666.004 605.13 666.53 604.491 667.368C603.211 667.876 602.427 667.937 601.139 667.363C600.04 666.873 599.397 666.478 598.848 665.392C599.965 664.469 601.026 663.472 602.1 662.5Z" fill="#428226"/>
<path d="M627.389 745.258C630.538 744.624 633.618 746.617 634.328 749.75C635.039 752.882 633.12 756.009 630.006 756.796C627.924 757.321 625.72 756.676 624.248 755.112C622.776 753.547 622.268 751.308 622.921 749.261C623.573 747.215 625.284 745.683 627.389 745.258Z" fill="black"/>
<path d="M574.867 681.67C576.94 681.177 579.117 681.844 580.559 683.413C582.001 684.982 582.481 687.208 581.815 689.232C581.149 691.256 579.441 692.762 577.349 693.169C574.206 693.78 571.151 691.765 570.475 688.635C569.8 685.505 571.751 682.409 574.867 681.67Z" fill="black"/>
<path d="M598.607 711.606C600.667 711.096 602.841 711.736 604.297 713.28C605.753 714.824 606.262 717.033 605.632 719.059C605.001 721.085 603.327 722.614 601.253 723.059C598.114 723.732 595.015 721.762 594.293 718.635C593.57 715.507 595.491 712.378 598.607 711.606Z" fill="black"/>
<path d="M623.551 683.471C626.314 682.963 628.967 684.782 629.492 687.541C630.016 690.301 628.213 692.966 625.457 693.507C622.677 694.052 619.984 692.231 619.455 689.448C618.927 686.664 620.764 683.982 623.551 683.471Z" fill="black"/>
<path d="M584.361 744.323C586.891 743.462 589.637 744.83 590.475 747.366C591.314 749.903 589.925 752.637 587.381 753.455C584.867 754.263 582.172 752.893 581.344 750.386C580.515 747.879 581.861 745.173 584.361 744.323Z" fill="black"/>
<path d="M410.847 493.964C418.19 493.408 426.057 493.645 433.432 493.867C463.691 494.928 493.575 500.914 521.908 511.591C530.211 514.748 538.439 517.487 544.652 524.161C548.84 528.658 551.01 533.948 550.752 540.127C550.567 544.558 549.095 548.406 545.711 551.399C542.232 554.476 537.196 555.855 532.593 555.418C526.729 554.86 521.152 552.154 515.647 550.192C510.77 548.48 505.865 546.851 500.933 545.308C479.612 538.475 457.483 534.482 435.118 533.43C406.243 531.319 371.851 536.422 344.36 545.292C339.492 546.862 334.599 548.492 329.813 550.298C324.606 552.263 319.795 555.01 314.132 555.384C309.189 555.711 304.021 554.964 300.218 551.509C297.143 548.716 295.575 544.791 295.347 540.691C295.019 534.803 296.951 529.26 300.893 524.883C303.018 522.523 305.587 520.484 308.309 518.856C311.895 516.713 315.9 515.208 319.757 513.616C338.18 506.171 357.366 500.775 376.968 497.525C388.182 495.682 399.495 494.493 410.847 493.964Z" fill="#FDFDFD"/>
<path d="M416.598 429.175C429.677 427.639 448.222 431.209 460.69 435.381C492.899 446.156 515.624 471.238 530.441 500.939C499.447 488.456 462.087 480.697 428.684 480.537C387.966 480.342 352.797 486.673 314.81 501.486C320.465 489.545 327.065 478.292 335.843 468.347C356.873 444.521 384.928 431.124 416.598 429.175Z" fill="#D72D3C"/>
<path d="M153.054 874.276C156.142 869.452 160.652 865.2 165.364 861.987C178.345 853.138 194.281 851.032 209.414 854.651C213.946 855.734 218.286 857.987 222.863 858.756C227.905 859.602 231.358 855.854 235.147 853.18C249.027 843.382 267.699 839.415 284.371 842.299C290.339 853.85 298.3 863.621 307.212 873.01C309.043 874.789 310.889 876.552 312.751 878.298L150.55 878.315C151.333 876.971 152.066 875.478 153.054 874.276Z" fill="#FDFDFD"/>
<path d="M307.212 873.01C309.043 874.789 310.889 876.552 312.751 878.298L150.55 878.315C151.333 876.971 152.066 875.478 153.054 874.276C156.971 875.886 288.742 874.462 302.609 873.682C304.183 873.593 305.704 873.512 307.212 873.01Z" fill="#EFEFEF"/>
<path d="M562.23 841.354C577.346 841.322 590.323 844.943 603.009 853.249C605.928 855.16 608.729 858.013 612.212 858.771C616.505 859.705 622.273 856.753 626.438 855.656C645.471 850.64 665.733 853.251 680.123 867.545C683.334 870.734 685.958 874.394 688.225 878.301L533.679 878.306L539.231 872.764C546.922 864.407 553.541 855.931 559.464 846.243L562.23 841.354Z" fill="#FDFDFD"/>
<path d="M562.23 841.354C577.346 841.322 590.323 844.943 603.009 853.249C605.928 855.16 608.729 858.013 612.212 858.771C616.505 859.705 622.273 856.753 626.438 855.656C645.471 850.64 665.733 853.251 680.123 867.545C683.334 870.734 685.958 874.394 688.225 878.301L533.679 878.306L539.231 872.764C541.376 873.767 544.33 873.704 546.691 873.85C566.35 875.066 586.234 874.65 605.935 874.981C619.552 875.209 633.136 875.201 646.754 875.197C653.963 875.194 661.319 875.552 668.508 875.045C666.127 872.551 664.025 869.876 661.292 867.735C658.258 865.358 654.7 863.672 651.062 862.441C638.676 858.25 629.14 861.305 616.852 862.763C612.487 863.281 604.306 863.279 599.967 862.644C591.862 861.458 585.822 854.979 578.365 851.956C575.007 850.632 571.573 849.51 568.081 848.597C565.281 847.884 562.069 847.487 559.464 846.243L562.23 841.354Z" fill="#EFEFEF"/>
<path d="M240.693 597.295C240.824 597.325 240.96 597.337 241.086 597.384C243.475 598.276 246.157 601.069 248.101 602.755C258.063 611.268 267.3 620.593 275.72 630.633C277.958 633.272 280.451 635.933 282.258 638.89C282.181 638.886 282.105 638.881 282.028 638.879C277.997 638.744 274.135 637.603 270.125 637.338C253.093 636.211 262.084 654.56 256.542 658.351C252.632 661.025 246.562 649.54 241.279 648.706C241.174 648.69 241.068 648.676 240.963 648.66C236.293 649.861 233.564 654.726 229.592 657.225C228.355 658.003 226.523 658.939 225.01 658.45C220.539 657.002 222.182 645.775 219.65 641.239C215.303 633.454 204.24 640.095 199.858 638.375C199.398 638.194 199.455 637.999 199.302 637.579C200.14 634.763 203.724 631.887 205.738 629.728C216.497 618.198 227.895 606.583 240.693 597.295Z" fill="#FDFDFD"/>
<path d="M601.19 596.375C601.351 596.432 601.521 596.47 601.675 596.547C607.529 599.514 640.099 630.3 642.022 636.228C640.508 639.212 628.176 633.952 622.669 638.204C618.647 641.31 620.012 649.019 619.206 653.466C618.989 654.668 618.561 656.209 617.396 656.833C614.202 658.545 606.033 648.981 602.563 647.605C602.447 647.559 602.331 647.516 602.215 647.472C595.722 648.119 593.705 656.375 587.554 657.834C583.297 656.724 585.234 643.065 581.941 639.421C576.654 633.567 567.434 637.62 560.664 637.329C562.676 633.756 566.023 630.554 568.772 627.525C578.672 616.619 589.321 605.133 601.19 596.375Z" fill="#FDFDFD"/>
<path d="M399.074 417.626C397.976 415.479 397.149 413.086 396.596 410.739C395.008 404.004 395.304 396.577 399.064 390.603C402.808 384.656 408.971 380.777 415.767 379.266C424.634 377.294 433.452 378.65 441.076 383.569C446.247 387.534 449.853 392.716 450.721 399.284C451.583 405.799 449.849 411.791 447.605 417.841C443.159 417.007 438.672 416.26 434.162 415.885C422.343 414.923 410.724 415.318 399.074 417.626Z" fill="#FDFDFD"/>
<path d="M441.076 383.569C446.247 387.534 449.853 392.716 450.721 399.284C451.583 405.799 449.849 411.791 447.605 417.841C443.159 417.007 438.672 416.26 434.162 415.885C434.547 415.817 434.654 415.827 435.034 415.591C435.688 415.184 436.379 414.195 436.869 413.596C441.145 408.368 443.047 399.641 442.45 393.01C442.188 390.104 440.263 386.369 441.076 383.569Z" fill="#EFEFEF"/>
<path d="M490.056 754.346C493.059 754.25 496.063 754.175 499.066 754.121C499.063 763.401 498.418 772.531 497.608 781.77L486.214 782.438C474.033 783.567 461.64 783.245 449.414 783.864C449.356 774.58 449.775 765.311 449.649 756.019C463.094 755.224 476.596 754.848 490.056 754.346Z" fill="#D72D3C"/>
<path d="M490.057 754.346C493.059 754.25 496.063 754.175 499.067 754.121C499.063 763.401 498.418 772.531 497.609 781.77L486.214 782.438C488.419 773.224 489.707 763.814 490.057 754.346Z" fill="#C32533"/>
<path d="M487.177 716.307C489.836 716.13 492.538 716.043 495.178 715.679C497.285 724.783 498.87 733.473 499.151 742.839L489.34 742.989C476.025 743.292 462.718 743.883 449.429 744.761C449.287 736.144 448.769 727.362 447.573 718.827C460.737 717.536 473.969 716.969 487.177 716.307Z" fill="#D72D3C"/>
<path d="M487.177 716.307C489.836 716.13 492.538 716.043 495.178 715.679C497.285 724.783 498.87 733.473 499.151 742.839L489.34 742.989C489.347 734.584 488.59 724.583 487.177 716.307Z" fill="#C32533"/>
<path d="M509.596 675.538C513.27 673.253 516.666 670.776 519.88 667.874C525.589 672.754 531.221 678.836 531.834 686.717C532.22 691.674 530.611 696.175 527.376 699.934C521.933 706.259 514.252 709.79 506.739 712.993L505.188 707.366C502.489 698.305 498.469 690.443 492.333 683.235C498.357 681.23 503.99 678.488 509.596 675.538Z" fill="#C32533"/>
<path d="M509.596 675.539C512.931 677.88 514.488 683.847 515.173 687.616C515.969 691.99 515.501 695.92 512.838 699.621C511.119 702.011 508.738 703.614 506.674 705.649C506.129 706.187 505.767 706.876 505.188 707.366C502.489 698.305 498.469 690.443 492.333 683.235C498.357 681.231 503.99 678.488 509.596 675.539Z" fill="#D72D3C"/>
<path d="M409.287 694.217C416.305 694.626 423.673 694.97 430.671 694.263C432.028 698.911 433.137 703.627 433.992 708.393C434.477 711.149 436.984 724.603 435.808 726.283L434.553 726.391C425.568 727.229 416.404 727.036 407.404 726.618C406.983 715.782 407.615 704.931 409.287 694.217Z" fill="#D72D3C"/>
<path d="M375.309 689.297C382.739 691.406 390.406 692.372 398.051 693.333C396.389 699.833 395.918 710.932 395.89 717.806C395.884 719.589 396.425 724.524 395.471 725.892L394.859 725.858C386.98 725.21 379.145 724.104 371.395 722.545C371.622 711.191 372.509 700.335 375.309 689.297Z" fill="#D72D3C"/>
<path d="M345.55 679.556C351.658 682.443 358.106 684.674 364.558 686.65C361.446 697.573 360.575 708.518 360.323 719.824L357.364 719.091C350.615 717.049 344.015 714.772 337.611 711.807C337.783 700.211 340.538 689.956 345.55 679.556Z" fill="#D72D3C"/>
<path d="M478.719 687.657L479.399 687.603C484.098 689.445 489.23 700.154 491.529 704.516C479.171 705.004 466.823 705.739 454.495 706.719C451.676 706.939 448.883 707.264 446.079 707.616C445.418 702.828 444.216 698.185 442.991 693.518C455.031 692.461 466.973 690.502 478.719 687.657Z" fill="#D72D3C"/>
<path d="M600.632 788.684C602.562 790.489 604.514 792.137 606.601 793.763L606.566 840.34L602.866 838.37C600.076 836.82 597.16 835.512 594.269 834.165C594.534 820.887 594.385 807.582 594.39 794.301C596.543 792.525 598.569 790.564 600.632 788.684Z" fill="#7B4020"/>
<path d="M240.408 788.942C242.052 789.769 244.018 792.125 245.413 793.392L245.453 833.248C242.746 834.061 240.223 835.413 237.707 836.679L233.753 838.792L233.843 794.002C236.126 792.428 238.258 790.69 240.408 788.942Z" fill="#7B4020"/>
<path d="M326.465 668.147C328.055 668.521 333.884 673.449 335.81 674.69C330.737 684.637 327.177 694.82 326.654 706.063L324.223 704.5C321.747 702.847 319.37 701.001 317.505 698.659C314.718 695.159 313.538 690.87 314.093 686.433C315.062 678.689 320.555 672.718 326.465 668.147Z" fill="#D72D3C"/>
<path d="M257.965 800.824C262.028 802.868 266.07 804.611 270.427 805.934C271.642 810.749 272.746 815.736 274.482 820.396C275.28 822.54 277.459 826.619 277.499 828.726L276.915 828.818C270.48 828.726 264.148 829.3 257.785 830.192L257.747 810.93C257.741 807.657 257.439 804.047 257.965 800.824Z" fill="#B48FE1"/>
<path d="M581.695 801.817C582.406 803.27 581.962 826.667 581.959 830.431C578.069 829.599 574.131 829.178 570.171 828.873C569.628 828.815 569.101 828.702 568.565 828.598C568.158 827.828 569.313 825.48 569.638 824.576C571.985 818.043 573.807 811.618 575.255 804.827C577.422 803.867 579.569 802.863 581.695 801.817Z" fill="#B48FE1"/>
<path d="M494.995 794.285L495.749 794.321C496.499 796.136 496.138 800.415 495.475 802.265C495.16 803.146 494.633 803.969 493.702 804.29C492.768 804.613 491.956 804.23 491.107 803.879C490.333 803.138 489.763 802.234 489.157 801.358C488.942 799.175 488.86 797.004 488.798 794.812L494.995 794.285Z" fill="#EFEFEF"/>
<path d="M450.091 795.959L457.575 795.973C457.611 798.957 457.668 801.455 456.084 804.101C455.347 804.841 454.268 805.76 453.154 805.764C452.663 805.766 452.175 805.599 451.825 805.26C449.869 803.359 450.203 798.57 450.091 795.959Z" fill="#EFEFEF"/>
<path d="M469.63 795.388L476.818 795.381C476.711 798.311 476.722 801.102 475.569 803.848C474.818 804.541 473.972 805.153 472.913 805.234C472.198 805.289 471.613 805.042 471.137 804.508C469.24 802.381 469.631 798.097 469.63 795.388Z" fill="#EFEFEF"/>
<path d="M634.906 391.593C637.283 391.437 639.615 391.912 641.455 393.505C643.999 395.707 644.761 399.102 645.058 402.301C646.459 402.06 647.991 401.786 649.413 401.931C651.931 402.188 654.367 403.551 655.932 405.529C657.238 407.177 657.856 409.188 657.556 411.281C656.674 417.429 649.016 422.472 644.439 425.911C644.443 431.847 644.489 437.781 644.579 443.716C649.819 440.47 655.092 437.277 660.397 434.137C660.494 428.889 660.695 421.99 663.779 417.533C665.046 415.701 666.883 414.399 669.097 414.02C671.412 413.615 673.791 414.209 675.645 415.653C677.979 417.465 678.729 419.64 679.089 422.449C681.403 421.058 683.842 420.141 686.587 420.372C688.972 420.573 691.216 421.696 692.717 423.573C694.173 425.426 694.825 427.784 694.529 430.122C694.06 433.82 691.601 436.018 688.839 438.171C689.873 438.983 690.841 439.808 691.62 440.879C693.002 442.778 693.465 444.909 692.995 447.207C692.572 449.277 691.519 451.091 689.666 452.175C684.009 455.479 674.631 451.628 668.779 450.043C663.739 452.814 658.735 455.652 653.77 458.556C658.618 461.574 663.682 464.159 668.451 467.334C673.394 465.526 678.9 463.225 684.223 463.137C686.729 463.095 689.568 463.603 691.366 465.501C692.761 466.974 693.373 469.168 693.279 471.163C693.132 474.278 690.829 476.425 688.723 478.427C691.017 479.99 693.027 481.479 694.116 484.133C695.032 486.368 694.944 488.976 693.981 491.179C693.017 493.385 691.176 495.088 688.9 495.875C685.353 497.089 682.154 495.74 678.979 494.239C678.634 496.021 678.32 497.869 677.238 499.373C675.786 501.392 673.793 502.701 671.302 502.999C669.25 503.243 667.252 502.703 665.644 501.397C660.559 497.267 660.844 488.762 660.07 482.828L644.851 474.134C644.957 479.811 644.947 485.489 644.821 491.166C648.499 494.119 653.791 497.458 656.067 501.606C657.358 503.96 657.834 506.701 656.991 509.29C656.296 511.445 654.756 513.226 652.723 514.226C650.063 515.514 647.767 515.106 645.09 514.254C644.762 516.837 644.554 519.633 643.074 521.863C641.677 523.967 639.583 524.765 637.205 525.252C634.561 525.399 631.946 525.005 629.954 523.119C627.5 520.796 627.147 517.611 627.003 514.436C625.59 514.817 624.213 515.211 622.735 515.089C620.386 514.896 618.182 513.806 616.705 511.955C615.214 510.085 614.68 507.607 615.04 505.263C616.03 498.83 622.269 495.001 627.171 491.588C627.136 485.811 627.15 480.035 627.211 474.259C622.164 477.412 617.032 480.428 611.821 483.301C611.383 488.574 611.203 495.644 607.678 499.953C606.204 501.756 604.153 502.89 601.818 503.056C599.509 503.22 597.131 502.461 595.452 500.842C593.389 498.85 593.142 496.849 593.094 494.143C590.219 495.633 587.329 497.012 583.991 496.349C581.643 495.877 579.59 494.468 578.305 492.446C577.034 490.419 576.616 487.972 577.141 485.637C577.929 482.119 580.444 480.126 583.278 478.229C582.005 477.088 580.696 476.008 579.919 474.449C578.867 472.335 578.609 470.006 579.387 467.753C580.013 465.942 581.255 464.585 583.007 463.813C588.929 461.204 597.721 465.088 603.213 467.327C608.322 464.839 613.466 461.641 618.295 458.628C613.452 455.519 608.36 452.581 603.27 449.897C598.77 451.398 594.063 453.085 589.29 453.37C586.471 453.537 583.288 453.14 581.144 451.121C579.491 449.564 578.708 447.132 578.772 444.896C578.857 441.896 580.861 440.041 582.906 438.144C580.728 436.506 578.778 434.796 577.782 432.185C576.961 430.001 577.068 427.577 578.077 425.474C579.116 423.315 581.009 421.689 583.3 420.986C586.738 419.896 589.812 420.915 592.887 422.447C593.254 420.444 593.591 418.754 594.909 417.115C596.402 415.259 598.466 414.048 600.86 413.853C603.03 413.657 605.188 414.345 606.844 415.761C611.714 419.963 611.598 428.452 612.037 434.301L627.158 443.269C627.336 437.339 627.298 431.365 627.202 425.434C623.493 422.658 618.963 419.736 616.458 415.76C615.026 413.486 614.35 410.777 615.034 408.135C615.603 405.946 617.042 404.085 619.017 402.983C621.678 401.493 624.176 401.746 626.984 402.582C627.267 399.978 627.513 397.387 629.008 395.141C630.409 393.036 632.514 392.101 634.906 391.593Z" fill="#0179CA"/>
<path d="M634.977 397.785C635.963 397.76 636.964 397.728 637.746 398.457C640.189 400.739 639.114 410.829 639 414.369C641.373 412.849 646.307 407.465 649.252 408.049C650.201 408.237 650.54 408.636 651.097 409.348C651.301 410.005 651.392 410.325 651.258 411.026C650.664 414.156 641.773 419.999 639.143 421.989C638.781 432.39 639.27 442.95 639.3 453.369C644.441 450.622 649.415 447.49 654.4 444.47C658.249 442.139 662.363 439.896 665.92 437.14C666.417 433.042 666.264 425.184 668.286 421.744C668.784 420.896 670.034 419.988 671.044 419.947C671.684 419.922 672.162 420.106 672.541 420.638C674.327 423.145 672.509 430.585 672.084 433.529C675.923 431.558 681.516 427.149 685.711 426.715C686.468 426.913 687.092 427.253 687.524 427.931C687.929 428.566 688.085 429.207 687.901 429.948C686.959 433.743 678.482 437.472 675.171 439.272C678.403 440.201 683.25 441.152 685.686 443.563C686.376 444.245 686.456 444.771 686.454 445.71C686.103 446.427 685.861 446.734 685.205 447.192C680.059 447.72 673.799 444.851 669.045 443.009L642.738 458.294C650.968 464.247 660.215 469.508 669.27 474.125C673.3 472.657 680.287 468.833 684.369 468.971C685.171 468.999 685.89 469.375 686.389 470.011C686.833 470.578 687.037 471.197 686.82 471.91C685.997 474.609 678.323 476.841 675.92 477.796C679.315 480.062 685.627 482.239 687.597 485.916C688.034 486.731 688.208 487.746 687.826 488.621C687.503 489.363 686.919 489.847 686.141 490.06C683.575 490.765 674.79 484.763 672.134 483.286C672.926 486.412 674.164 492.059 672.717 495.099C672.48 495.598 672.03 496.14 671.478 496.281C670.731 496.471 669.911 496.249 669.28 495.819C666.605 493.997 666.157 482.836 665.787 479.372C657.492 473.765 648.121 468.789 639.261 464.157C639.246 474.367 639.01 484.519 639.249 494.733C642.225 497.309 649.697 501.533 651.145 505.11C651.425 505.804 651.421 506.779 651.033 507.449C650.652 508.109 650.256 508.517 649.49 508.692C646.537 509.369 641.366 504.483 638.918 502.927C638.9 506.581 638.96 510.261 638.804 513.912C638.712 516.099 638.61 517.786 636.926 519.344C635.978 519.317 635.012 519.274 634.285 518.559C631.901 516.215 632.994 506.343 633.111 502.805C630.884 504.408 626.387 508.765 623.57 508.69C622.715 508.667 622.042 508.418 621.477 507.749C620.96 507.138 620.8 506.387 620.971 505.611C621.625 502.629 630.134 497.103 632.888 495.052C632.948 484.721 632.941 474.39 632.866 464.06C627.523 467.003 622.22 470.017 616.956 473.1C613.526 475.083 609.969 476.957 606.734 479.245C605.88 482.774 605.196 493.165 603.246 495.381C602.714 495.986 602.021 496.347 601.205 496.337C600.473 496.329 599.8 496.055 599.373 495.444C597.555 492.851 599.293 486.307 599.742 483.308C597.311 484.642 588.082 490.361 585.972 490.097C585.339 490.017 584.534 489.348 584.184 488.831C583.725 488.151 583.705 487.525 583.922 486.756C584.91 483.27 593.391 479.48 596.337 477.822C593.239 476.566 588.168 475.418 585.922 472.796C585.408 472.196 585.085 471.471 585.267 470.666C585.424 469.964 585.949 469.327 586.576 468.987C589.189 467.57 600.259 472.725 603.058 473.881C612.117 469.041 621.008 463.89 629.713 458.437C625.535 455.797 621.067 453.525 616.799 451.022C612.25 448.353 607.781 445.338 603.026 443.061C598.768 444.627 591.893 447.733 587.459 447.509C586.64 447.467 586.112 447.102 585.625 446.447C585.234 445.921 585.153 445.096 585.401 444.502C586.567 441.7 594.564 440.296 597.383 439.486C594.082 437.044 585.902 434.219 584.156 430.701C583.756 429.896 583.75 429.039 584.149 428.232C584.501 427.52 585.004 427.115 585.758 426.89C588.658 426.027 597.145 431.839 600.066 433.436C599.522 430.03 598.326 425.592 599.093 422.192C599.328 421.151 599.731 420.706 600.597 420.125C601.727 420.028 602.502 420.197 603.371 420.979C605.544 422.934 606.121 434.071 606.431 437.156C611.98 441.712 626.137 449.43 632.839 452.723C632.932 442.51 633.219 432.187 632.706 421.986C629.928 419.936 622.921 415.106 621.382 412.397C620.86 411.477 620.925 410.16 621.292 409.184C621.532 408.544 621.997 408.034 622.677 407.861C625.396 407.166 630.618 412.131 632.814 413.643C632.954 410.29 632.692 406.937 632.81 403.586C632.898 401.113 633.132 399.501 634.977 397.785Z" fill="#8AD2F8"/>
<path d="M208.377 457.593C210.488 457.436 212.603 457.912 214.208 459.369C216.527 461.474 216.894 464.299 217.121 467.232C218.409 467.014 219.752 466.738 221.061 466.839C223.272 467.008 225.529 468.145 226.893 469.904C228.051 471.397 228.51 473.237 228.22 475.101C227.355 480.666 220.772 484.601 216.649 487.775L216.686 502.751C221.1 500.167 225.493 497.546 229.863 494.887C230.069 490.436 230.505 484.555 232.775 480.659C233.837 478.837 235.443 477.38 237.541 476.905C239.43 476.477 241.51 476.891 243.114 477.969C245.57 479.619 246.367 481.627 246.839 484.423C248.779 483.667 250.5 483.03 252.632 483.163C254.97 483.309 257.196 484.331 258.667 486.187C259.92 487.767 260.53 489.868 260.258 491.872C259.816 495.123 257.664 496.915 255.253 498.808C256.258 499.71 257.274 500.605 257.986 501.767C258.951 503.343 259.263 505.007 258.764 506.798C258.278 508.544 257.271 510.037 255.644 510.897C250.866 513.421 242.953 510.113 238.2 508.665C233.445 510.837 228.818 513.669 224.263 516.248C228.804 518.712 233.316 521.23 237.798 523.801C241.803 522.12 246.121 520.356 250.524 520.194C252.802 520.11 255.432 520.409 257.134 522.09C258.382 523.322 258.868 525.15 258.768 526.866C258.591 529.88 256.95 531.677 254.817 533.558C256.837 534.935 258.646 536.286 259.656 538.587C260.489 540.51 260.475 542.694 259.616 544.606C258.786 546.483 257.232 547.944 255.308 548.658C252.144 549.822 249.495 548.712 246.659 547.341C246.372 549.183 246.129 550.923 244.957 552.451C243.708 554.078 242.012 555.21 239.952 555.463C238.072 555.695 236.344 555.139 234.917 553.906C230.494 550.088 230.408 542.723 229.871 537.362C225.371 534.998 220.967 532.455 216.668 529.742C216.773 534.653 216.748 539.573 216.777 544.485C219.914 547.374 224.403 549.538 226.616 553.295C227.802 555.309 228.407 557.755 227.782 560.056C227.244 562.009 225.898 563.641 224.083 564.543C221.595 565.798 219.508 565.451 216.978 564.68C216.988 565.987 216.972 567.351 216.649 568.624C216.018 571.114 214.66 572.584 212.503 573.889C211.633 574.161 210.8 574.323 209.888 574.389C207.714 574.548 205.585 574.19 203.925 572.675C201.616 570.566 201.262 567.74 201.046 564.811C199.852 565.276 198.557 565.61 197.267 565.514C195.237 565.362 193.249 564.387 192.006 562.756C190.691 561.032 190.3 558.866 190.615 556.749C191.449 551.134 196.961 547.8 201.144 544.663L201.161 529.973C196.821 532.323 192.415 534.613 188.314 537.366C187.91 542.079 187.791 547.527 185.189 551.652C184.092 553.391 182.466 554.772 180.421 555.202C178.483 555.61 176.324 555.16 174.726 553.985C172.277 552.184 171.762 549.97 171.369 547.14C169.372 548.185 167.591 549.018 165.266 548.974C163.192 548.954 161.219 548.075 159.818 546.545C158.412 544.985 157.754 542.857 157.919 540.776C158.171 537.576 160.051 535.716 162.323 533.743C161.44 532.94 160.539 532.103 159.928 531.068C158.889 529.303 158.499 527.069 159.057 525.081C159.546 523.338 160.672 521.924 162.297 521.115C167.376 518.586 175.037 522.145 179.956 523.898C184.605 521.681 189.049 518.865 193.567 516.378C189.18 513.556 184.45 511.114 179.828 508.697C175.715 510.11 171.258 512.004 166.849 512.002C164.728 512.001 162.565 511.479 161.047 509.911C159.793 508.616 158.935 506.594 158.97 504.781C159.022 502.052 160.956 500.258 162.786 498.508C161.173 497.377 159.677 496.274 158.741 494.477C157.8 492.671 157.584 490.648 158.236 488.707C158.899 486.731 160.418 485.141 162.294 484.265C165.201 482.907 168.069 483.524 170.921 484.608C171.268 483.125 171.616 481.709 172.575 480.488C174.025 478.641 176.22 477.352 178.577 477.173C180.455 477.014 182.317 477.633 183.727 478.885C187.895 482.523 187.699 489.704 188.144 494.791C192.459 497.457 196.822 500.045 201.23 502.555C201.599 497.532 201.291 492.334 201.204 487.301C197.88 485.222 193.838 482.244 191.534 479.037C190.239 477.233 189.622 474.884 190.094 472.691C190.541 470.705 191.783 468.989 193.53 467.943C195.999 466.453 198.048 466.568 200.737 467.294C201.031 465.11 201.359 462.918 202.579 461.03C203.961 458.889 205.992 458.122 208.377 457.593Z" fill="#0179CA"/>
<path d="M208.745 463.253C209.451 463.44 210.218 463.581 210.711 464.174C212.783 466.668 211.815 474.311 211.805 477.626C213.924 475.991 217.257 472.322 219.97 472.067C220.74 471.995 221.426 472.107 221.997 472.676C222.477 473.155 222.74 473.956 222.615 474.629C222.158 477.105 214.071 482.829 211.762 484.588L211.729 511.545C219.566 507.727 227.723 502.666 234.935 497.741C235.236 493.553 235.093 488.052 236.8 484.237C237.168 483.415 237.818 482.544 238.76 482.363C239.566 482.208 239.945 482.476 240.599 482.857C242.46 485.592 240.918 491.048 240.453 494.168C242.94 493.006 249.82 488.038 252.237 488.412C253.009 488.532 253.783 488.912 254.251 489.556C254.697 490.169 254.889 490.707 254.67 491.46C253.773 494.542 246.539 497.744 243.803 499.313C246.479 500.277 250.684 500.968 252.6 503.19C252.991 503.644 253.229 504.211 253.119 504.805C252.983 505.536 252.576 506.176 251.884 506.507C249.387 507.703 240.455 503.735 237.819 502.704C229.956 506.837 222.552 511.977 214.822 516.372C221.86 520.254 230.816 526.733 237.802 529.644C242.164 528.148 247.041 525.589 251.692 525.62C252.437 525.956 252.626 526.272 253.032 526.969C253.053 527.437 253.14 527.731 252.919 528.166C251.537 530.88 245.763 532.159 243.054 532.916C246.251 534.735 252.153 537.113 254.065 540.231C254.431 540.829 254.649 541.576 254.4 542.263C254.064 543.193 253.204 543.641 252.339 543.95C249.176 543.596 243.8 539.49 240.692 537.956C241.092 540.76 242.024 544.498 241.413 547.255C241.212 548.161 240.716 549.001 239.835 549.395C239.223 549.669 238.637 549.567 238.128 549.142C235.654 547.08 235.671 538.141 235.009 534.849L234.926 534.455C227.419 529.666 219.543 524.956 211.592 520.949C211.35 529.696 211.592 538.51 211.589 547.265C214.307 549.614 220.877 553.419 222.169 556.672C222.625 557.82 222.379 558.449 221.894 559.491C221.501 559.808 221.307 560.076 220.785 560.143C218.069 560.489 213.593 555.897 211.623 554.272C211.685 558.103 211.758 561.922 211.593 565.751C211.529 566.208 211.485 566.761 211.32 567.191C211.069 567.846 210.37 568.512 209.677 568.713C208.847 568.956 208.624 568.888 207.882 568.557C205.564 565.937 206.541 558.219 206.442 554.673C204.226 556.102 200.716 559.693 198.087 559.785C197.32 559.811 196.687 559.58 196.179 558.978C195.859 558.598 195.7 558.026 195.738 557.536C196.002 554.134 203.675 549.604 206.299 547.52C206.438 538.745 206.437 529.969 206.294 521.194C198.371 525.503 190.562 530.17 182.902 534.931C182.67 537.94 182.428 546.077 180.721 548.318C180.069 549.173 179.231 549.464 178.195 549.588C177.685 549.358 177.443 549.343 177.12 548.862C175.376 546.266 176.906 540.767 177.538 537.938C174.333 539.377 169.846 543.223 166.372 543.327C165.603 543.35 164.928 543.089 164.406 542.503C163.953 541.994 163.745 541.396 163.912 540.72C164.643 537.754 171.435 534.949 173.975 533.609C171.538 532.6 166.168 531.304 164.787 528.956C164.54 528.535 164.449 528.126 164.575 527.66C164.767 526.948 165.33 526.271 166.004 525.94C168.426 524.752 176.961 528.923 179.45 529.989C182.396 528.56 185.251 526.682 188.095 525.037C193.182 522.141 198.239 519.191 203.263 516.188C197.226 512.246 186.262 505.511 179.834 502.798C176.042 504.195 171.502 506.542 167.432 506.586C166.646 506.594 165.881 506.357 165.384 505.704C164.821 504.965 164.874 504.634 164.964 503.777C166.784 500.998 171.586 500.174 174.641 499.282C171.648 497.441 167.158 495.653 164.922 492.958C164.31 492.22 163.884 491.348 164.073 490.363C164.231 489.536 164.789 489.212 165.438 488.799C169.022 488.335 173.759 492.046 176.746 493.835C176.599 491.361 175.726 486.175 177.06 484.046C177.461 483.405 177.847 483.029 178.61 482.883C179.055 482.797 179.766 482.978 180.108 483.243C182.629 485.196 182.624 494.663 182.883 497.709C190.755 501.9 198.128 507.022 206.101 511.065C206.272 502.283 206.308 493.498 206.207 484.714C203.667 482.275 196.71 478.07 195.816 474.851C195.612 474.119 195.563 473.469 196.014 472.817C196.297 472.406 196.845 472.014 197.326 471.931C199.909 471.487 204.081 475.357 206.088 476.843C206.024 473.476 205.174 467.981 206.545 464.963C207.025 463.907 207.727 463.603 208.745 463.253Z" fill="#8AD2F8"/>
<path d="M686.063 535.589C687.175 535.62 688.355 535.792 689.088 536.729C690.607 538.669 689.649 543.008 689.486 545.351C691.211 544.118 693.688 541.165 695.961 541.387C696.608 541.451 697.185 541.878 697.582 542.368C698.172 543.095 698.458 543.984 698.223 544.92C697.433 548.078 691.846 551.278 689.279 553.16C689.072 554.557 688.625 556.387 688.916 557.773C689.079 558.547 689.38 558.879 690.008 559.316C692.469 559.899 696.355 557.624 698.567 556.502C699.558 553.517 700.727 548.652 703.583 546.901C704.274 546.477 704.814 546.384 705.609 546.557C706.208 547.027 706.514 547.398 706.731 548.12C707.361 550.211 706.637 551.835 705.738 553.686C705.983 553.526 706.23 553.37 706.478 553.216C708.143 552.187 710.262 551.125 712.277 551.776C713.091 552.039 713.319 552.374 713.715 553.095C713.73 553.653 713.695 554.016 713.483 554.546C712.516 556.954 709.396 557.875 707.217 558.72C707.782 559.207 708.447 559.72 708.886 560.326C709.622 561.342 709.575 562.872 709.322 564.033C708.999 564.408 708.864 564.709 708.368 564.852C705.813 565.595 702.288 562.702 700.207 561.414C698.019 562.195 695.249 562.967 693.393 564.388C692.609 564.988 692.414 565.461 692.273 566.416C693.093 568.955 697.072 571.228 699.128 572.813C701.327 571.526 703.621 569.913 706.246 569.805C707.352 569.759 708.167 570.02 708.982 570.798C709.163 571.483 709.236 571.731 709.019 572.433C708.346 574.6 706.2 575.492 704.341 576.409C706.259 577.603 708.333 578.579 709.472 580.634C709.996 581.58 710.07 582.314 709.807 583.364C709.205 584.087 708.769 584.538 707.78 584.591C704.948 584.743 702.614 582.128 700.744 580.355C700.368 581.446 700.027 582.697 699.132 583.49C698.542 584.012 698.01 584.173 697.227 584.132C696.561 583.841 696.206 583.565 695.832 582.925C694.642 580.884 695.422 578.917 696.01 576.829C693.35 574.744 690.431 572.958 687.256 571.787C686.988 574.411 686.895 577.053 686.762 579.686C688.941 580.941 691.409 582.146 692.386 584.63C692.723 585.488 692.683 586.163 692.293 587.003C691.981 587.291 691.706 587.526 691.288 587.646C689.401 588.182 688.025 587.425 686.447 586.523L686.114 590.758C685.946 591.837 685.531 593.237 684.595 593.911C684.048 594.306 683.404 594.408 682.761 594.224C682.148 594.049 681.652 593.464 681.325 592.942C679.98 590.792 680.702 588.552 681.154 586.26C679.724 586.995 678.648 587.459 677.003 587.397C676.013 587.36 675.261 587.204 674.565 586.461C674.447 585.893 674.337 585.662 674.489 585.082C675.175 582.463 678.76 581.011 680.907 579.873C681.332 577.705 681.797 575.258 680.941 573.167C680.531 572.811 680.366 572.53 679.799 572.466C677.723 572.232 674.772 574.477 673.192 575.699C672.318 577.608 671.974 581.112 670.398 582.433C669.364 582.522 668.889 582.504 667.935 582.095C667.102 581.142 667.211 580.851 667.118 579.623C666.077 578.788 662.784 582.72 660.571 582.356C659.872 582.242 659.249 582.003 658.883 581.365C658.461 580.629 658.418 579.835 658.647 579.031C659.281 576.804 663.044 575.254 664.946 574.209C663.934 573.606 662.6 572.907 662.027 571.829C661.478 570.795 661.367 569.763 661.68 568.652C662.021 568.297 662.174 568.027 662.665 567.883C665.24 567.128 667.894 569.635 670.023 570.866C672.045 569.847 675.966 568.359 677.299 566.476C677.741 565.851 677.859 565.282 677.68 564.531C677.239 562.672 673.986 560.93 672.526 559.933C669.886 561.075 666.131 562.648 663.268 561.724C662.379 561.437 661.805 560.986 661.371 560.149C661.314 559.399 661.414 559.029 661.879 558.419C663.231 556.645 665.415 556.454 667.444 556.118C666.083 554.747 662.635 552.627 662.053 550.891C661.8 550.14 662.217 548.437 662.701 547.819C663.111 547.297 663.702 547.11 664.348 547.148C666.767 547.292 669.318 550.321 671.064 551.875C671.509 551.33 672.112 550.504 672.737 550.167C673.514 549.746 674.009 549.749 674.842 549.949C675.208 550.334 675.455 550.484 675.587 551.021C675.934 552.427 675.053 553.492 674.353 554.628C675.781 556.072 677.717 558.113 679.563 558.95C680.483 559.367 680.996 559.292 681.9 558.909C683.223 557.333 682.861 555.375 682.809 553.448C680.169 550.637 675.997 548.171 674.092 544.88C674.012 543.742 674.087 543.016 674.788 542.058C675.238 541.442 675.788 541 676.584 540.954C678.987 540.816 681.589 544.148 683.133 545.732C683.404 542.019 683.109 538.293 686.063 535.589Z" fill="#FDFDFD"/>
<path d="M280.787 400.21C281.762 400.272 282.598 400.452 283.253 401.243C285.272 403.679 284.552 408.55 284.405 411.481C285.978 409.403 287.634 406.886 290.236 406.055C291.188 405.751 291.767 405.901 292.621 406.357C292.914 406.868 293.003 407.133 292.99 407.741C292.935 410.205 290.341 412.457 288.75 414.075C290.013 414.11 291.307 414.114 292.562 414.265C294.515 414.501 296.449 415.236 297.664 416.828C297.822 417.555 297.935 417.911 297.439 418.575C295.783 420.798 290.684 420.285 288.208 420.261C289.583 421.786 291.136 423.355 292.118 425.168C292.783 426.397 293.162 427.414 292.745 428.787C292.235 429.212 292.098 429.363 291.398 429.372C288.848 429.404 286.167 426.306 284.425 424.667C284.417 426.366 284.439 428.067 284.384 429.763C284.316 431.863 283.965 433.304 282.416 434.777C281.993 434.878 281.565 434.971 281.125 434.957C280.373 434.934 279.65 434.578 279.207 433.957C277.757 431.921 278.476 427.723 278.615 425.358C276.928 427.225 275.226 429.721 272.635 430.327C271.863 430.508 271.311 430.437 270.628 430.026C270.259 429.453 270.09 429.008 270.088 428.314C270.082 424.874 273.354 422.199 275.602 420.039C273.693 420.028 271.609 420.166 269.729 419.81C267.937 419.472 266.422 418.933 265.371 417.387C265.304 416.705 265.181 416.384 265.672 415.824C267.584 413.642 271.405 413.851 274.01 413.889C273.948 413.829 273.885 413.771 273.824 413.711C272.338 412.256 270.015 410.182 270.181 407.895C270.233 407.192 270.443 406.583 271.041 406.174C271.745 405.695 272.347 405.665 273.17 405.811C275.553 406.234 277.094 408.599 278.426 410.398C278.44 408.407 278.379 406.355 278.559 404.374C278.738 402.398 279.303 401.475 280.787 400.21Z" fill="#FDFDFD"/>
<path d="M148.698 581.575C149.635 581.551 150.549 581.493 151.288 582.193C153.198 584.001 152.408 589.744 152.419 592.218C154.187 590.14 156.161 587.383 158.821 586.466C159.715 586.157 160.262 586.245 161.108 586.616C161.309 586.967 161.45 587.26 161.449 587.676C161.441 590.503 158.842 592.994 157.062 594.908C159.342 594.544 161.844 594.134 164.037 595.069C165.004 595.482 165.53 595.99 165.951 596.959C165.948 597.813 165.837 598.21 165.27 598.87C163.438 601.003 159.328 600.693 156.818 600.747C158.261 602.135 159.906 603.545 160.763 605.388C161.296 606.536 161.392 607.358 160.933 608.543C160.217 609.139 159.743 609.433 158.782 609.339C155.975 609.064 154.11 606.48 152.417 604.518C152.435 606.87 152.412 609.182 152.211 611.527C152.078 611.967 151.895 612.343 151.651 612.734C151.192 613.471 150.308 614.102 149.423 614.178C149.035 614.212 148.623 614.1 148.337 613.836C146.554 612.191 147.255 607.173 147.331 604.865C146.054 606.593 144.678 608.43 142.525 609.066C141.605 609.338 141.038 609.188 140.22 608.744C139.88 608.226 139.728 607.937 139.696 607.3C139.574 604.905 141.98 602.801 143.497 601.257C140.927 601.363 138.067 601.613 135.702 600.407C134.827 599.961 134.335 599.469 134 598.525C134.16 597.721 134.299 597.314 134.942 596.767C137.195 594.852 141.383 595.402 144.101 595.539C142.418 593.844 140.601 592.348 139.667 590.091C139.227 589.027 139.133 588.21 139.611 587.126C139.996 586.884 140.215 586.653 140.689 586.642C143.334 586.576 145.24 588.786 146.941 590.494C146.876 587.25 146.53 584.248 148.698 581.575Z" fill="#FDFDFD"/>
<path d="M527.55 392.684C533.58 391.511 539.422 395.436 540.614 401.462C541.807 407.488 537.899 413.342 531.877 414.553C525.829 415.769 519.943 411.841 518.745 405.789C517.548 399.737 521.494 393.863 527.55 392.684Z" fill="#FDFDFD"/>
<path d="M166.991 429.533C170.796 428.539 174.842 429.671 177.579 432.495C180.316 435.319 181.321 439.398 180.208 443.17C179.096 446.942 176.039 449.823 172.207 450.71C166.397 452.056 160.584 448.485 159.158 442.694C157.732 436.903 161.221 431.041 166.991 429.533Z" fill="#FDFDFD"/>
<path d="M692.941 633.744C698.505 632.435 704.082 635.864 705.423 641.42C706.765 646.977 703.367 652.573 697.818 653.946C692.225 655.33 686.573 651.899 685.221 646.298C683.869 640.697 687.332 635.065 692.941 633.744Z" fill="#FDFDFD"/>
<path d="M334.59 386.505C336.77 386.246 338.919 387.187 340.205 388.965C341.492 390.743 341.716 393.079 340.788 395.068C339.86 397.057 337.928 398.388 335.74 398.546C332.462 398.781 329.595 396.358 329.283 393.086C328.971 389.815 331.327 386.893 334.59 386.505Z" fill="#FDFDFD"/>
<path d="M601.834 530.945C605.048 530.569 607.982 532.804 608.473 536.002C608.964 539.199 606.836 542.212 603.658 542.818C601.498 543.23 599.285 542.429 597.889 540.731C596.493 539.032 596.136 536.706 596.958 534.667C597.78 532.627 599.651 531.2 601.834 530.945Z" fill="#FDFDFD"/>
<path d="M149.722 657.483C152.967 656.876 156.093 659.008 156.712 662.252C157.332 665.494 155.212 668.628 151.971 669.26C148.713 669.896 145.558 667.762 144.935 664.501C144.312 661.24 146.458 658.093 149.722 657.483Z" fill="#FDFDFD"/>
</svg>
