<svg width="849" height="1183" viewBox="0 0 849 1183" fill="none" xmlns="http://www.w3.org/2000/svg">
<rect x="5" y="5" width="839" height="1173" rx="45" fill="white"/>
<rect x="5" y="5" width="839" height="1173" rx="45" stroke="black" stroke-width="10"/>
<circle cx="786.5" cy="1124.5" r="11.5" fill="black"/>
<circle cx="786.5" cy="59.5" r="11.5" fill="black"/>
<path d="M77 1124.5C77 1130.85 71.8513 1136 65.5 1136C59.1487 1136 54 1130.85 54 1124.5C54 1118.15 59.1487 1113 65.5 1113C71.8513 1113 77 1118.15 77 1124.5Z" fill="black"/>
<path d="M77 59.5C77 65.8513 71.8513 71 65.5 71C59.1487 71 54 65.8513 54 59.5C54 53.1487 59.1487 48 65.5 48C71.8513 48 77 53.1487 77 59.5Z" fill="black"/>
<mask id="path-6-inside-1_1_3609" fill="white">
<path d="M708 48C713.523 48 717.934 52.4996 718.616 57.9801C723.122 94.1833 751.817 122.878 788.02 127.384C793.5 128.066 798 132.477 798 138V1046C798 1051.52 793.5 1055.93 788.02 1056.62C751.817 1061.12 723.122 1089.82 718.616 1126.02C717.934 1131.5 713.523 1136 708 1136H141C135.477 1136 131.066 1131.5 130.384 1126.02C125.878 1089.82 97.1833 1061.12 60.9801 1056.62C55.4996 1055.93 51 1051.52 51 1046V138C51 132.477 55.4996 128.066 60.9801 127.384C97.1833 122.878 125.878 94.1833 130.384 57.9801C131.066 52.4996 135.477 48 141 48H708Z"/>
</mask>
<path d="M708 48C713.523 48 717.934 52.4996 718.616 57.9801C723.122 94.1833 751.817 122.878 788.02 127.384C793.5 128.066 798 132.477 798 138V1046C798 1051.52 793.5 1055.93 788.02 1056.62C751.817 1061.12 723.122 1089.82 718.616 1126.02C717.934 1131.5 713.523 1136 708 1136H141C135.477 1136 131.066 1131.5 130.384 1126.02C125.878 1089.82 97.1833 1061.12 60.9801 1056.62C55.4996 1055.93 51 1051.52 51 1046V138C51 132.477 55.4996 128.066 60.9801 127.384C97.1833 122.878 125.878 94.1833 130.384 57.9801C131.066 52.4996 135.477 48 141 48H708Z" fill="#7047A3"/>
<path d="M130.384 1126.02L138.322 1125.03L130.384 1126.02ZM718.616 1126.02L710.678 1125.03L718.616 1126.02ZM788.02 1056.62L789.008 1064.56L788.02 1056.62ZM718.616 57.9801L726.555 56.9922L718.616 57.9801ZM718.616 57.9801L710.678 58.9681C715.635 98.8063 747.194 130.365 787.032 135.322L788.02 127.384L789.008 119.445C756.44 115.392 730.608 89.5603 726.555 56.9922L718.616 57.9801ZM798 138H790V1046H798H806V138H798ZM788.02 1056.62L787.032 1048.68C747.194 1053.64 715.635 1085.19 710.678 1125.03L718.616 1126.02L726.555 1127.01C730.608 1094.44 756.44 1068.61 789.008 1064.56L788.02 1056.62ZM708 1136V1128H141V1136V1144H708V1136ZM130.384 1126.02L138.322 1125.03C133.365 1085.19 101.806 1053.64 61.9681 1048.68L60.9801 1056.62L59.9922 1064.56C92.5603 1068.61 118.392 1094.44 122.445 1127.01L130.384 1126.02ZM51 1046H59V138H51H43V1046H51ZM60.9801 127.384L61.9681 135.322C101.806 130.365 133.365 98.8063 138.322 58.9681L130.384 57.9801L122.445 56.9922C118.392 89.5603 92.5603 115.392 59.9922 119.445L60.9801 127.384ZM141 48V56H708V48V40H141V48ZM130.384 57.9801L138.322 58.9681C138.438 58.0389 138.872 57.2306 139.427 56.6958C139.954 56.1887 140.494 56 141 56V48V40C130.84 40 123.547 48.1329 122.445 56.9922L130.384 57.9801ZM51 138H59C59 137.494 59.1887 136.954 59.6958 136.427C60.2306 135.872 61.0389 135.438 61.9681 135.322L60.9801 127.384L59.9922 119.445C51.1329 120.547 43 127.84 43 138H51ZM60.9801 1056.62L61.9681 1048.68C61.0389 1048.56 60.2306 1048.13 59.6958 1047.57C59.1887 1047.05 59 1046.51 59 1046H51H43C43 1056.16 51.1329 1063.45 59.9922 1064.56L60.9801 1056.62ZM141 1136V1128C140.494 1128 139.954 1127.81 139.427 1127.3C138.872 1126.77 138.438 1125.96 138.322 1125.03L130.384 1126.02L122.445 1127.01C123.547 1135.87 130.84 1144 141 1144V1136ZM718.616 1126.02L710.678 1125.03C710.562 1125.96 710.128 1126.77 709.573 1127.3C709.046 1127.81 708.506 1128 708 1128V1136V1144C718.16 1144 725.453 1135.87 726.555 1127.01L718.616 1126.02ZM798 1046H790C790 1046.51 789.811 1047.05 789.304 1047.57C788.769 1048.13 787.961 1048.56 787.032 1048.68L788.02 1056.62L789.008 1064.56C797.867 1063.45 806 1056.16 806 1046H798ZM788.02 127.384L787.032 135.322C787.961 135.438 788.769 135.872 789.304 136.427C789.811 136.954 790 137.494 790 138H798H806C806 127.84 797.867 120.547 789.008 119.445L788.02 127.384ZM718.616 57.9801L726.555 56.9922C725.453 48.1329 718.16 40 708 40V48V56C708.506 56 709.046 56.1887 709.573 56.6958C710.128 57.2306 710.562 58.0389 710.678 58.9681L718.616 57.9801Z" fill="black" mask="url(#path-6-inside-1_1_3609)"/>
<path d="M690 102C695.523 102 699.911 106.512 700.837 111.957C705.019 136.563 724.437 155.981 749.043 160.163C754.488 161.089 759 165.477 759 171V1014C759 1019.52 754.488 1023.91 749.043 1024.84C724.711 1028.97 705.454 1048 700.984 1072.22C699.993 1077.59 695.633 1082 690.175 1082H158.825C153.367 1082 149.007 1077.59 148.016 1072.22C143.546 1048 124.288 1028.97 99.9568 1024.84C94.5121 1023.91 90 1019.52 90 1014V171C90 165.477 94.512 161.089 99.9568 160.163C124.563 155.981 143.981 136.563 148.163 111.957C149.089 106.512 153.477 102 159 102H690Z" fill="#B48FE1"/>
<mask id="path-9-outside-2_1_3609" maskUnits="userSpaceOnUse" x="417" y="1007" width="24" height="31" fill="black">
<rect fill="white" x="417" y="1007" width="24" height="31"/>
<path d="M417.8 1012V1007.84H426.12V1037H421.52V1012H417.8ZM431.784 1012V1007.84H440.104V1037H435.504V1012H431.784Z"/>
</mask>
<path d="M417.8 1012V1007.84H426.12V1037H421.52V1012H417.8ZM431.784 1012V1007.84H440.104V1037H435.504V1012H431.784Z" fill="black"/>
<path d="M417.8 1012H417.5V1012.3H417.8V1012ZM417.8 1007.84V1007.54H417.5V1007.84H417.8ZM426.12 1007.84H426.42V1007.54H426.12V1007.84ZM426.12 1037V1037.3H426.42V1037H426.12ZM421.52 1037H421.22V1037.3H421.52V1037ZM421.52 1012H421.82V1011.7H421.52V1012ZM417.8 1012H418.1V1007.84H417.8H417.5V1012H417.8ZM417.8 1007.84V1008.14H426.12V1007.84V1007.54H417.8V1007.84ZM426.12 1007.84H425.82V1037H426.12H426.42V1007.84H426.12ZM426.12 1037V1036.7H421.52V1037V1037.3H426.12V1037ZM421.52 1037H421.82V1012H421.52H421.22V1037H421.52ZM421.52 1012V1011.7H417.8V1012V1012.3H421.52V1012ZM431.784 1012H431.484V1012.3H431.784V1012ZM431.784 1007.84V1007.54H431.484V1007.84H431.784ZM440.104 1007.84H440.404V1007.54H440.104V1007.84ZM440.104 1037V1037.3H440.404V1037H440.104ZM435.504 1037H435.204V1037.3H435.504V1037ZM435.504 1012H435.804V1011.7H435.504V1012ZM431.784 1012H432.084V1007.84H431.784H431.484V1012H431.784ZM431.784 1007.84V1008.14H440.104V1007.84V1007.54H431.784V1007.84ZM440.104 1007.84H439.804V1037H440.104H440.404V1007.84H440.104ZM440.104 1037V1036.7H435.504V1037V1037.3H440.104V1037ZM435.504 1037H435.804V1012H435.504H435.204V1037H435.504ZM435.504 1012V1011.7H431.784V1012V1012.3H435.504V1012Z" fill="black" mask="url(#path-9-outside-2_1_3609)"/>
<path d="M360.13 233.99C364.47 234.97 367.9 237.14 370.42 240.5C373.01 243.79 374.305 247.57 374.305 251.84C374.305 258.14 372.135 263.075 367.795 266.645C363.455 270.215 357.365 272 349.525 272H312.88V197.975H348.37C355.93 197.975 361.845 199.655 366.115 203.015C370.455 206.375 372.625 211.1 372.625 217.19C372.625 221.53 371.47 225.17 369.16 228.11C366.92 230.98 363.91 232.94 360.13 233.99ZM333.46 227.375H343.855C349.035 227.375 351.625 225.24 351.625 220.97C351.625 216.56 349.035 214.355 343.855 214.355H333.46V227.375ZM345.43 255.41C350.61 255.41 353.2 253.24 353.2 248.9C353.2 246.66 352.5 244.945 351.1 243.755C349.77 242.565 347.845 241.97 345.325 241.97H333.46V255.41H345.43ZM393.719 207.635C390.079 207.635 387.139 206.655 384.899 204.695C382.729 202.665 381.644 200.145 381.644 197.135C381.644 194.055 382.729 191.5 384.899 189.47C387.139 187.44 390.079 186.425 393.719 186.425C397.289 186.425 400.159 187.44 402.329 189.47C404.569 191.5 405.689 194.055 405.689 197.135C405.689 200.145 404.569 202.665 402.329 204.695C400.159 206.655 397.289 207.635 393.719 207.635ZM403.904 213.095V272H383.324V213.095H403.904ZM452.479 272L436.204 247.85V272H415.624V194.3H436.204V236.195L452.479 213.095H477.154L453.949 242.705L477.574 272H452.479ZM539.888 241.865C539.888 243.475 539.783 245.085 539.573 246.695H500.618C500.828 249.915 501.703 252.33 503.243 253.94C504.853 255.48 506.883 256.25 509.333 256.25C512.763 256.25 515.213 254.71 516.683 251.63H538.628C537.718 255.69 535.933 259.33 533.273 262.55C530.683 265.7 527.393 268.185 523.403 270.005C519.413 271.825 515.003 272.735 510.173 272.735C504.363 272.735 499.183 271.51 494.633 269.06C490.153 266.61 486.618 263.11 484.028 258.56C481.508 254.01 480.248 248.655 480.248 242.495C480.248 236.335 481.508 231.015 484.028 226.535C486.548 221.985 490.048 218.485 494.528 216.035C499.078 213.585 504.293 212.36 510.173 212.36C515.983 212.36 521.128 213.55 525.608 215.93C530.088 218.31 533.588 221.74 536.108 226.22C538.628 230.63 539.888 235.845 539.888 241.865ZM518.888 236.72C518.888 234.2 518.048 232.24 516.368 230.84C514.688 229.37 512.588 228.635 510.068 228.635C507.548 228.635 505.483 229.335 503.873 230.735C502.263 232.065 501.213 234.06 500.723 236.72H518.888Z" fill="black"/>
<path d="M465.897 452.216C477.894 451.788 490.786 452.055 502.812 452.509C505.209 452.6 509.541 453.952 511.869 453.989C523.816 454.174 534.41 453.43 545.464 459.094C552.289 462.592 558.165 467.854 560.688 475.439C561.715 478.531 562.174 483.193 560.637 486.211C569.834 498.576 555.215 502.523 549.963 511.577C548.835 513.522 545.95 516.585 544.38 518.203C548.564 522.529 551.67 534.427 553.683 540.361C557.307 551.05 560.986 561.72 564.724 572.369C565.774 575.383 566.843 578.567 567.907 581.564C571.068 590.456 573.581 586.319 579.696 583.374C585.48 580.532 591.484 578.16 597.653 576.283C621.666 569.045 648.132 568.018 672.543 573.97C682.666 576.44 686.763 581.564 683.822 591.949C709.504 603.276 729.7 619.613 743.681 644.32C759.538 672.344 763.267 711.294 754.015 742.052C743.589 776.72 721.393 800.64 690.198 817.796C698.583 818.424 741.034 819.317 745.08 822.775L745.043 823.414C744.901 823.541 744.841 823.599 744.681 823.722C730.347 834.589 344.076 832.702 292.638 831.887C260.935 831.427 229.238 830.635 197.552 829.511C179.68 828.869 156.838 828.264 139.326 826.275C137.146 826.069 126.75 825 126.189 823.19C126.333 822.957 126.367 822.868 126.545 822.684C129.912 819.216 171.622 818.026 178.692 817.747C156.733 806.236 141.861 794.288 127.98 773.056C111.912 748.477 105.297 712.471 111.661 683.724C98.0054 680.71 99.9699 670.46 103.909 659.768C107.539 649.914 112.174 640.609 118.039 631.896C110.615 626.216 107.642 617.983 113.452 609.807C115.939 606.307 119.736 603.964 123.978 603.309C129.123 602.531 133.796 604.028 137.903 607.081C159.438 587.094 183.006 575.516 212.335 571.934C222.508 570.731 232.784 570.685 242.967 571.796C271.4 574.684 289.795 583.841 312.102 601.274C319.863 592.799 328.34 584.391 336.278 575.958C329.873 572.615 330.186 568.613 327.177 562.142C320.678 561.839 314.353 565.598 312.432 556.802C296.751 551.705 279.038 542.572 277.853 523.278C277.453 514.264 284.462 507.08 292.844 504.868C314.408 499.176 336.823 507.715 358.897 505.693C371.918 505.113 389.54 505.689 393.643 520.88C399.25 541.639 367.163 546.509 352.876 550.261C365.395 553.352 359.237 564.586 360.865 568.061C366.431 567.1 375.751 564.323 381.507 562.768L419.496 552.443L480.491 535.691C495.391 531.636 511.068 527.646 525.788 523.224C525.17 513.15 532.565 505.829 538.805 498.232C530.047 489.766 527.826 484.44 515.794 480.64C512.836 482.814 508.868 484.422 505.066 484.581C490.344 485.2 474.43 485.543 459.851 484.101C453.357 482.87 447.961 477.391 447.728 470.849C447.262 457.735 453.712 453.169 465.897 452.216ZM431.78 697.021C442.233 712.564 444.549 734.757 431.092 749.369C435.928 755.409 440.711 761.252 445.988 766.923C453.218 765.578 459.224 766.965 460.785 775.256C461.507 779.088 460.986 784.348 458.685 787.624C457.142 789.829 454.756 791.299 452.092 791.685C449.865 792.025 447.128 791.651 445.105 790.629C440.221 792.219 439.229 792.243 434.281 790.878C429.285 792.666 429.307 791.325 424.596 791.159C421.023 791.337 418.785 792.678 415.301 790.822C412.453 789.304 410.169 787.148 409.219 783.934C407.028 776.52 408.342 770.822 415.618 767.802C414.516 766.485 412.836 764.594 411.901 763.229C405.864 764.631 402.726 765.517 396.385 765.442C389.465 765.36 385.027 762.798 378.805 761.842C372.655 760.896 365.848 760.257 359.603 759.464C352.003 758.425 344.418 757.273 336.852 756.008C326.119 781.702 305.171 802.658 280.874 815.827L285.641 815.581C348.083 814.371 410.538 813.999 472.99 814.468L535.68 815.141C551.729 815.547 567.784 815.82 583.838 815.96C554.445 800.295 532.629 773.418 523.338 741.429C522.63 739.041 521.715 735.734 521.327 733.281C517.136 733.238 513.674 732.88 510.42 729.749C504.952 724.487 505.314 706.184 505.423 698.656C505.894 665.753 520.7 629.768 544.313 606.753C545.349 605.723 546.441 604.749 547.583 603.837C544.675 599.09 543.011 588.779 540.096 585.583C516.464 610.802 492.487 635.695 468.171 660.255C456.189 672.657 444.058 684.913 431.78 697.021ZM369.928 593.466C377.235 616.482 384.674 639.456 392.243 662.387L397.726 679.516C401.407 679.635 404.311 679.931 407.948 680.724C419.216 669.082 430.542 657.496 441.926 645.967L488.583 598.127C502.273 584.288 517.918 569.103 531.019 554.912C530.42 553.322 529.38 550.271 528.535 548.935L527.954 548.773C513.362 552.969 498.734 557.038 484.072 560.98L408.481 582.339C395.734 585.965 382.542 589.54 369.928 593.466ZM328.364 617.991C343.381 637.393 352.188 654.127 356.729 678.387L357.256 681.187L368.508 680.947C366.414 673.909 345.69 602.543 344.077 600.952C338.93 606.714 333.691 612.395 328.364 617.991ZM139.423 711.571C139.945 720.064 141.011 727.235 143.685 735.397L190.137 719.635C196.183 717.564 203.885 715.411 209.65 713.13C209.583 711.597 209.824 711.146 209.066 710.04C207.791 709.488 205.661 709.849 204.183 709.975L139.423 711.571ZM142.457 683.385C154.026 685.997 165.551 688.802 177.027 691.797C186.048 694.172 196.782 697.328 205.858 699.246L211.579 700.518L213.202 698.143C202.583 691.166 189.953 684.349 178.819 677.958C170.069 672.936 159.523 666.011 150.8 661.535C146.9 669.622 144.719 674.56 142.457 683.385ZM139.35 708.768C151.329 708.607 163.37 708.015 175.436 707.816C184.459 707.666 197.857 707.699 206.413 706.82C208.032 706.715 208.555 706.952 209.738 706.142C210.073 705.113 210.238 704.316 210.459 703.27C192.915 699.633 176.619 694.498 159.249 690.373C155.356 689.448 145.511 686.72 141.902 686.271C140.056 693.489 139.346 701.33 139.35 708.768ZM152.037 754.377C153.123 756.078 154.235 757.892 155.43 759.507C166.955 750.806 178.584 742.243 190.313 733.82C192.955 731.928 210.763 719.982 211.359 718.571C211.194 717.76 210.856 716.928 210.188 716.39C197.79 720.164 185.793 724.313 173.556 728.506C163.924 731.808 154.275 734.801 144.641 738.204C146.781 744.205 148.685 748.889 152.037 754.377ZM724.847 682.808C722.99 675.682 720.155 667.038 716.169 660.798L715.706 660.53C702.968 668.96 690.093 677.182 677.084 685.192C670.314 689.378 661.851 694.017 655.549 698.59L655.485 699.314C657.117 700.931 661.961 699.062 664.122 698.485C682.263 694.475 700.138 688.279 718.348 684.336C720.476 683.875 722.747 683.35 724.847 682.808ZM728.026 708.092C727.943 703.441 727.269 689.984 725.457 685.934L725.251 685.791C703.385 690.811 682.139 697.598 660.287 702.477C658.911 702.785 656.641 702.918 656.599 704.742C657.7 706.809 660.319 706.413 662.402 706.373C675.465 706.987 688.671 707.178 701.752 707.45C710.357 707.629 719.462 708.209 728.026 708.092ZM723.696 733.764L724.687 730.96C726.471 723.587 727.21 718.778 728.021 711.227C722.733 710.511 715.912 710.636 710.495 710.537C692.863 710.214 675.034 709.342 657.416 709.452L657.021 711.446C656.957 711.364 717.517 731.391 723.696 733.764ZM632.445 615.706C628.211 616.182 624.271 616.634 620.129 617.711C623.931 634.342 627.592 651.004 631.11 667.697C632.133 672.476 633.422 677.437 634.371 682.169C634.88 684.699 634.784 685.697 636.871 687.13C638.091 687.124 638.449 686.301 638.476 685.087C639.009 661.904 641.141 638.611 640.981 615.412C638.165 615.451 635.238 615.431 632.445 615.706ZM562.458 753.691C563.371 755.198 564.348 756.896 565.307 758.353C573.366 752.161 581.503 746.064 589.704 740.061C594.213 736.831 619.799 720.212 621.386 718.022C621.377 717.052 621.432 717.399 620.551 716.483L620.097 716.366C605.148 720.948 590.278 725.78 575.489 730.862C569.467 732.887 560.986 736.059 555.119 737.661C557.114 743.114 559.472 748.696 562.458 753.691ZM717.118 750.107C719.499 745.392 721.017 741.694 722.765 736.703C712.371 732.706 699.271 728.617 688.744 725.031C682.754 722.989 660.145 715.21 654.893 715.287C656.741 718.049 669.864 726.309 673.662 728.932L713.449 756.436C714.724 754.336 715.999 752.294 717.118 750.107ZM652.499 696.55C655.755 694.71 658.966 692.794 662.136 690.801C678.644 680.908 698.734 668.576 714.591 657.684C711.834 653.378 705.243 643.356 701.129 640.504C686.221 656.902 671.598 674.241 657.026 690.995C655.558 692.685 653.806 694.748 652.499 696.55ZM558.243 733.602C572.251 728.74 586.296 723.971 600.369 719.295C603.598 718.227 616.822 714.195 618.932 713.081L619.079 712.695C617.569 709.785 613.152 711.492 610.341 711.315C597.25 711.781 584.159 712.069 571.063 712.179C565.325 712.221 555.665 711.937 550.133 712.354C550.619 721.455 551.789 726.139 554.202 735.001L558.243 733.602ZM575.389 770.01C577.04 771.734 579.168 774.095 580.989 775.544C584.934 771.128 624.184 724.599 624.945 722.208C624.505 721.366 624.349 721.327 623.546 720.758C604.203 733.335 585.365 746.671 567.073 760.734C569.884 764.014 572.38 766.889 575.389 770.01ZM152.48 658.725C164.009 665.653 175.594 672.487 187.234 679.226C193.692 682.954 201.472 687.123 207.692 691.033C210.582 692.736 214.199 695.002 217.093 696.529C212.864 691.158 204.847 683.158 199.931 677.99L165.304 641.969C159.908 647.357 156.394 652.122 152.48 658.725ZM308.705 742.714C310.182 738.898 311.367 734.684 312.426 730.715C303.569 727.845 294.66 725.14 285.703 722.601C282.565 721.722 275.529 719.613 272.551 719.266C266.465 718.556 257.028 718.013 250.934 718.191C249.589 718.463 249.636 718.208 249.056 719.027C249.576 720.058 262.594 730.03 264.48 731.265C265.611 732.006 268.221 733.217 269.544 733.595C273.662 734.77 306.452 743.833 308.067 743.727C308.515 743.181 308.487 743.341 308.705 742.714ZM704.853 767.467C707.403 764.484 709.243 762.139 711.55 758.963C704.67 754.041 656.205 719.833 653.159 719.226C652.898 720.015 652.535 720.502 653.017 721.082C656.737 725.577 661.163 730.555 664.878 734.978L687.272 761.79C690.62 765.733 694.629 770.664 698.165 774.315C700.298 772.155 702.844 769.695 704.853 767.467ZM157.122 761.947C159.634 765.382 162.199 768.253 165.133 771.338C167.16 773.347 168.606 774.678 170.809 776.491C182.223 762.225 202.075 739.249 214.153 724.148C214.17 723.881 214.187 723.614 214.203 723.347C213.612 722.483 213.582 722.472 212.622 722.117C193.755 734.874 175.247 748.156 157.122 761.947ZM641.985 726.501C640.577 728.405 641.6 746.488 641.623 750.018L641.66 797.904C646.829 797.446 651.233 797.157 656.352 796.157L657.796 795.709C658.452 794.284 656.31 787.358 655.856 785.313L650.182 759.589C649.265 755.421 643.756 727.795 641.985 726.501ZM303.533 659.771C302.297 657.824 298.889 652.263 297.544 650.883C289.594 660.214 278.016 672.614 269.086 681.086L274.252 677.832C283.756 671.995 293.875 665.124 303.533 659.771ZM228.027 797.988C227.888 789.687 228.238 731.979 226.884 729.673C226.084 729.306 226.109 729.331 225.283 729.273C222.294 744.59 219.209 759.888 216.029 775.166C214.633 782.006 212.915 789.655 211.793 796.509L216.063 797.219C220.564 797.756 223.473 798.07 228.027 797.988ZM197.588 792.37C201.495 793.799 204.799 794.925 208.856 795.92L217.992 750.697C219.146 744.998 221.694 733.868 222.271 728.585L221.339 727.833C212.173 748.568 201.264 769.622 192.469 790.132C194.351 791.108 195.598 791.611 197.588 792.37ZM267.332 686.461C270.488 686.289 273.641 686.082 276.792 685.841C286.874 685.232 303.553 684.618 313.028 683.305C311.605 678.354 308.097 666.741 304.859 662.693L304.567 662.562C294.069 668.931 276.729 679.184 267.332 686.461ZM299.409 759.422L283.41 748.074C281.31 746.581 274.255 741.435 272.322 740.614C266.471 738.128 256.796 734.232 250.759 732.373C262.962 745.88 274.86 760.384 287.025 774.107C289.172 771.904 291.28 769.796 293.255 767.435C295.386 764.778 297.477 762.229 299.409 759.422ZM249.36 618.528C244.801 639.577 241.118 663.199 235.697 683.666C239.346 679.134 239.928 678.038 242.28 672.69C247.308 662.458 252.157 652.124 256.993 641.799C259.712 635.991 262.882 630.009 265.495 624.213C260.299 621.835 254.898 619.932 249.36 618.528ZM235.551 728.21C235.364 730.709 239.477 746.542 240.313 749.948L251.469 794.749C255.407 793.383 259.038 792.076 262.822 790.305L267.02 788.212C259.111 773.012 251.382 757.719 243.835 742.336C242.585 739.73 238.709 731.425 237.089 728.582C236.994 728.416 235.85 728.23 235.551 728.21ZM560.738 661.888C564.339 664.079 567.967 666.213 571.632 668.289C572.719 668.907 573.999 669.684 575.086 670.25C572.494 666.45 570.847 663.276 568.843 659.136C568.458 658.346 566.297 653.888 565.912 653.412C563.976 656.116 562.394 659.002 560.738 661.888ZM615.877 708.432L615.707 708.131C609.061 707.201 601.772 707.381 595.025 707C579.925 706.149 565.004 703.878 549.858 703.545L549.849 709.48C564.944 709.44 580.035 709.216 595.121 708.808C601.006 708.677 610.451 708.817 615.877 708.432ZM552.514 684.997C568.279 689.486 586.81 693.249 602.268 698.441C604.212 699.005 606.588 699.627 608.451 700.332C597.121 693.025 588.993 686.827 579.636 677.182C577.379 674.856 562.775 666.411 559.348 664.82C556.188 672.292 554.344 677.092 552.514 684.997ZM295.197 721.851C300.065 723.626 307.828 726.224 312.786 727.442L313.229 727.211L313.904 723.913C307.77 723.198 301.231 722.667 295.197 721.851ZM244.798 674.455C247.195 671.971 249.675 669.457 251.984 666.902C260.383 658.524 268.335 649.648 276.428 640.973C278.269 639 280.326 636.837 282.017 634.761C278.489 632.167 271.96 627.285 268.111 625.577C264.812 633.25 260.619 640.958 257.064 648.553C253.001 657.23 249.011 665.841 244.798 674.455ZM605.451 702.697L606.162 702.752C604.68 701.927 596.479 699.888 594.383 699.303C585.085 696.657 575.765 694.099 566.421 691.629C561.756 690.418 556.316 689.313 551.807 688.039C551.165 691.904 550.445 696.383 550.395 700.315C568.444 700.9 587.516 702.67 605.451 702.697ZM281.266 743.067C287.984 747.538 294.62 752.133 301.169 756.849L302.892 754.179C303.697 752.668 304.583 751.077 305.35 749.559L289.294 745.167C287.41 744.652 282.928 743.303 281.266 743.067ZM586.966 632.502C594.63 651.058 601.914 660.612 616.909 673.216L622.289 677.7C616.29 665.143 603.726 640.284 597.084 626.674C596.864 626.587 596.644 626.499 596.429 626.411C592.915 628.524 590.273 630.153 586.966 632.502ZM269.731 786.611C272.949 784.963 276.028 782.842 278.909 780.661L284.67 776.115C275.821 766.001 267.031 755.836 258.3 745.619C253.861 740.472 249.102 734.725 244.294 729.895C243.359 728.956 241.572 728.212 240.328 727.671C241.269 730.649 247.069 742.217 248.946 745.874C255.632 758.9 262.491 773.998 269.731 786.611ZM638.6 797.872C638.605 790.884 638.655 728.063 638.339 727.347C637.623 727.028 637.536 726.955 636.738 726.82C634.619 733.56 633.642 740.476 631.981 747.287C628.083 763.304 624.931 779.919 620.936 795.865C622.386 796.146 623.977 796.49 625.418 796.726C629.784 797.387 634.188 797.77 638.6 797.872ZM366.653 752.537C364.163 750.035 362.393 748.173 360.398 745.244C355.527 738.093 353.527 731.538 344.232 729.24C343.188 735.669 341.649 743.008 339.586 749.196C346.423 750.505 354.961 751.531 361.914 752.056L366.653 752.537ZM607.02 791.643C610.574 793.026 614.317 794.298 618.069 795.005L627.904 751.437C629.541 744.183 632.165 733.956 633.357 726.864C632.734 726.248 632.743 726.276 632 725.916C629.202 731.666 626.078 737.819 623.606 743.684C617.037 759.251 609.001 774.143 602.176 789.569C603.657 790.22 605.533 791.106 607.02 791.643ZM230.962 797.949C236.636 797.61 240.261 797.057 245.747 796.077C246.628 795.888 247.793 795.791 248.341 795.157C247.901 791.654 245.523 783.885 244.587 780.035L235.436 742.448C234.945 740.371 232.794 730.318 232.092 729.498L230.636 729.246C230.023 730.555 230.415 734.85 230.46 736.465C230.574 740.471 230.634 744.478 230.64 748.486L230.962 797.949ZM230.068 615.834C230.254 639.92 230.3 664.006 230.209 688.092L230.574 688.366C232.308 686.905 233.884 678.533 234.468 676.018L242.154 638.51C243.524 631.803 245.22 624.32 246.349 617.621C241.822 616.785 234.704 615.79 230.068 615.834ZM646.031 725.064C645.458 727.503 649.379 741.709 650.123 745.052L661.195 794.939C665.342 793.64 669.933 792.22 673.873 790.353C675.093 789.732 676.864 788.896 677.96 788.159C667.41 767.827 656.998 747.6 647.627 726.696C647.247 725.844 646.866 725.433 646.031 725.064ZM664.296 618.977C660.493 634.003 656.553 648.993 652.48 663.947C650.916 669.599 645.944 686.344 645.49 691.16C648.026 687.541 650.026 682.882 652.379 679.002C660.746 663.958 668.686 648.498 677.006 633.404C678.387 630.896 679.758 628.267 680.937 625.661C675.781 623.065 669.892 620.451 664.296 618.977ZM643.77 615.409C643.751 638.49 642.366 661.681 641.403 684.733C641.357 685.782 641.174 686.692 641.646 687.462L642.366 687.642C643.605 686.828 645.756 677.285 646.425 674.887L661.558 618.049C655.274 616.326 650.297 615.414 643.77 615.409ZM649.586 722.689C649.696 724.434 652.535 729.856 653.379 731.82C661.438 750.592 671.617 768.407 680.63 786.705C683.396 785.127 687.006 783.002 689.551 781.069C691.767 779.478 693.881 778.009 695.936 776.21C684.171 763.441 673.442 749.634 662.113 736.489C660.429 734.536 651.329 723.063 649.586 722.689ZM698.776 638.302C694.501 634.188 688.849 629.938 683.63 627.102L660.75 669.757C659.328 672.381 649.448 689.451 649.801 691.428L650.999 692.507C652.498 692.079 656.223 687.12 657.397 685.689C667.186 674.144 677.644 663.187 687.226 651.435C690.863 646.974 695.147 642.792 698.776 638.302ZM616.267 618.648C610.492 620.15 604.901 622.289 599.598 625.026C608.231 641.913 616.817 660.719 625.817 677.132C627.56 680.318 630.459 686.141 632.798 688.535C631.266 682.251 628.83 671.891 627.5 665.769C626.321 660.361 618.157 619.781 616.808 618.555L616.267 618.648ZM627.651 724.124C617.62 736.138 607.836 748.213 598.08 760.449C593.456 766.25 587.915 771.932 583.296 777.659C585.457 779.321 587.787 781.196 590.048 782.692C593.254 784.753 596.002 786.49 599.442 788.16C602.075 782.612 628.775 726.505 628.789 724.814C628.482 724.618 627.963 724.26 627.651 724.124ZM209.89 684.013C212.797 687.131 216.199 690.969 219.358 693.724C212.686 681.428 206.124 669.073 199.671 656.661L189.148 635.791C188.598 634.691 185.259 627.805 184.723 627.186C177.859 631.022 173.264 634.485 167.42 639.84L192.881 666.156C198.487 671.934 204.6 678.017 209.89 684.013ZM204.359 619.029C198.306 620.707 193.03 622.665 187.47 625.648C192.856 636.348 198.302 647.017 203.808 657.656C206.722 663.403 212.723 675.431 216.134 680.814C217.157 682.768 220.511 689.455 221.614 690.868C223.882 689.943 222.001 686.676 221.44 684.832C216.645 669.061 213.362 652.795 209.018 636.897C207.548 631.519 206.249 624.092 204.359 619.029ZM216.636 725.856C208.73 735.568 200.758 745.226 192.721 754.83C187.084 761.452 178.16 771.459 173.189 778.493C175.448 780.212 177.554 781.858 179.955 783.385C182.438 784.923 186.964 787.764 189.664 788.86C197.247 772.957 210.53 744.529 218.076 727.226C218.007 726.992 217.938 726.759 217.869 726.526L216.636 725.856ZM222.244 615.995C217.157 616.348 212.271 616.882 207.3 618.085C212.284 637.95 217.436 659.194 222.788 678.905C223.78 682.451 225.164 688.202 226.757 691.295C227.378 687.461 227.16 680.153 227.138 676.064C227.129 667.763 227.048 659.463 226.894 651.164C226.705 639.467 227.118 627.628 227.052 615.909C225.71 615.897 223.489 615.811 222.244 615.995Z" fill="black"/>
<path d="M539.073 526.013C540.85 528.207 557.899 578.384 560.587 585.981C557.816 587.285 554.115 588.488 551.179 589.331C548.643 582.895 546.812 576.128 544.058 569.788C527.01 588.899 507.291 608.459 489.418 627.025L453.793 663.63C444.19 673.515 434.523 683.75 424.546 693.249C421.029 689.96 417.96 688.158 413.899 685.588L499.165 599.13L522.222 575.999C526.561 571.679 536.413 561.824 540.009 557.161C538.71 551.755 536.063 543.973 534.377 538.482C528.123 539.74 520.604 542.083 514.368 543.861L482.795 552.846L393.561 578.044C382.077 581.248 370.42 584.712 358.912 587.716L378.649 646.912C382.403 658.327 386.237 669.715 390.15 681.076C385.963 681.453 381.784 681.925 377.618 682.492C370.533 656.803 362.217 631.277 354.692 605.702C352.583 598.539 350.447 591.238 348.071 584.168C340.092 592.392 331.034 602.977 323.35 611.582L284.805 654.409C278.182 661.694 271.465 668.893 264.657 676.005C261.039 679.785 255.901 684.642 252.769 688.758C248.612 694.222 246.937 702.564 242.91 708.341C240.301 712.084 237.432 712.962 232.999 713.726C231.238 714.079 228.847 714.17 227.385 712.902C223.501 709.534 226.501 704.285 228.927 701.333C234.19 694.931 239.919 689.093 245.612 683.16C254.362 674.125 263.061 665.042 271.709 655.909C296.301 629.94 320.874 602.947 345.762 577.397C345.27 575.437 344.468 573.069 343.863 571.104L352.004 568.518C353.339 571.531 354.753 575.718 356 578.922C365.245 576.24 374.602 573.865 383.878 571.266L482.003 543.975L513.238 535.268C519.839 533.492 526.787 531.784 533.285 529.686C535.256 529.05 537.378 527.299 539.073 526.013Z" fill="#1EF14B"/>
<path d="M636.417 593.965C665.154 592.076 695.542 604.661 715.99 624.546C759.74 667.088 760.29 744.075 716.27 786.644C694.244 807.942 668.259 820.074 637.394 819.52C608.254 819.01 580.489 807.049 560.096 786.224C538.102 763.336 527.826 734.804 528.425 703.223C532.337 703.168 536.524 703.292 540.456 703.338C540.695 717.541 541.443 724.946 545.817 738.861C567.623 800.997 637.481 827.141 693.285 790.295C713.22 777.133 729.751 753.032 734.778 729.625C740.998 701.984 735.915 673.003 720.664 649.129C700.115 617.47 661.154 600.995 624.023 607.24C607.634 609.997 594.796 616.289 580.957 625.305C579.719 621.54 578.443 617.786 577.132 614.045C578.687 612.587 582.737 610.065 584.626 608.948C601.148 599.196 617.583 595.245 636.417 593.965Z" fill="#343332"/>
<path d="M225.373 595.696C251.117 593.399 278.119 604.634 297.364 621.209C294.863 624.089 292.339 626.948 289.79 629.785C274.886 617.468 258.853 610.04 239.511 608.1C184.106 602.545 137.305 641.102 131.829 696.423C129.143 722.99 137.128 749.536 154.025 770.21C169.606 789.164 193.521 802.627 218.035 804.976C243.662 807.61 269.27 799.815 289.084 783.348C300.285 774.675 308.092 763.457 314.815 751.204L326.608 753.525C322.286 763.721 315.289 774.391 307.774 782.517C241.531 854.143 123.89 810.859 119.294 712.343C117.72 681.891 128.429 652.081 149.02 629.596C168.826 607.95 196.467 597.007 225.373 595.696Z" fill="#343332"/>
<path d="M391.063 686.537C403.124 686.105 412.403 689.052 421.37 697.233C428.343 703.561 432.475 712.431 432.835 721.841C433.129 729.869 429.87 740.373 424.331 746.304L418.276 739.154C422.443 732.416 424.488 726.481 423.356 718.399C421.221 703.144 405.57 692.151 390.485 694.833C383.251 696.08 376.81 700.154 372.58 706.156C368.326 712.383 366.742 720.054 368.182 727.458C370.748 740.795 381.492 749.937 395.156 750.317C398.453 750.408 401.225 749.8 404.416 749.138L409.876 755.578C402.576 757.753 397.503 758.232 389.939 756.78C379.23 753.995 371.038 748.683 365.536 738.938C361.382 731.58 358.255 725.761 349.738 722.723C340.878 719.563 331.442 718.224 322.132 716.884C305.025 714.484 287.838 712.702 270.604 711.54C262.855 711.077 254.675 711.021 246.834 710.688C247.551 709.089 253.988 695.739 254.174 695.606C259.129 692.07 288.764 691.883 294.138 691.652L354.94 689.134C366.949 688.559 379.559 686.984 391.063 686.537Z" fill="#51E1B1"/>
<path d="M304.116 511.383C314.786 510.363 329.649 513.608 341.149 513.97C349.939 514.246 362.492 513.38 370.78 514.058C373.736 514.274 376.633 514.99 379.35 516.175C386.367 519.316 389.352 527.266 381.637 531.718C374.944 535.582 366.716 537.721 359.321 539.925C347.436 543.381 334.834 546.306 322.419 548.565C309.569 550.903 288.334 538.054 286.487 524.489C285.103 514.333 296.182 512.036 304.116 511.383Z" fill="#0982B7"/>
<path d="M222.184 579.862C222.588 579.822 222.941 579.785 223.348 579.771C255.2 578.663 284.829 587.898 308.386 609.52L303.348 614.764C260.903 579.556 204.188 577.607 159.536 610.1C144.494 621.053 130.746 637.729 122.877 654.656C120.037 660.765 117.53 666.79 115.122 673.07C114.078 675.792 109.231 674.68 109.302 670.977C109.374 667.246 110.971 664.128 112.222 660.659C118.522 644.023 127.082 630.217 139.402 617.361C162.283 593.485 189.445 582.064 222.184 579.862Z" fill="#0982B7"/>
<path d="M561.554 590.716C562.086 590.726 562.683 590.699 563.173 590.937C565.426 592.036 576.865 629.05 579.003 634.415C581.337 640.376 584.195 646.118 587.543 651.575C600.634 672.679 621.074 686.54 638.861 703.247C641.522 705.747 643.008 709.727 638.362 711.76C636.825 712.434 634.843 711.519 633.444 710.667C626.734 705.657 620.358 700.507 613.634 695.462C606.414 690.047 596.869 684.48 590.585 677.938C575.319 662.048 566.898 635.808 559.004 615.521C556.711 609.622 553.197 600.029 551.592 594.321L561.554 590.716Z" fill="#1EF14B"/>
<path d="M552.151 610.626C552.986 611.483 554.775 617.199 555.298 618.732C554.05 619.951 552.825 621.193 551.624 622.46C531.653 643.883 521.636 672.179 520.697 701.238C520.467 708.341 521.434 715.563 521.674 722.727C520.399 723.268 519.125 723.551 517.786 723.893C512.765 722.36 513.504 709.48 513.408 704.796C512.658 668.115 526.852 636.893 552.151 610.626Z" fill="#0982B7"/>
<path d="M558.307 628.103C559.348 628.999 562.948 638.519 563.701 640.42C549.523 660.391 542.965 672.817 540.473 698.075L535.114 698.021L528.758 697.929C529.623 671.863 541.307 647.491 558.307 628.103Z" fill="#343332"/>
<path d="M465.58 459.768C470.997 459.666 476.542 459.994 481.981 459.937C487.618 459.981 493.287 459.895 498.921 459.955C502.004 459.987 505.54 459.949 507.997 462.042C511.616 465.123 512.514 470.287 509.219 473.963C507.28 476.126 505.299 475.985 502.661 476.085L477.672 476.056C474.54 476.047 471.281 476.048 468.157 476.004C460.986 475.903 457.598 475.945 455.757 468.184C457.029 462.265 459.661 460.156 465.58 459.768Z" fill="#343332"/>
<path d="M637.476 578.492C649.246 578.161 662.53 579.936 673.997 583.301C674.891 583.563 676.19 585.145 676.387 586.03C676.589 586.922 676.694 587.834 676.185 588.636C675.846 589.388 674.226 590.208 673.965 590.15C671.282 589.553 668.121 588.846 665.465 588.315C661.369 587.519 657.241 586.894 653.095 586.442C636.155 584.49 618.138 586.958 601.855 591.695C592.025 594.72 582.833 599.627 574.205 605.153L571.792 597.62C590.131 584.52 615.418 579.574 637.476 578.492Z" fill="#0982B7"/>
<path d="M391.882 699.197C408.562 697.506 422.472 711.676 418.184 728.513C417.558 730.973 416.291 733.138 415.076 735.35L411.811 731.458C412.264 730.21 412.726 728.94 413.057 727.65C417.032 712.187 399.371 699.963 386.27 709.071C383.152 711.238 381.552 713.345 379.733 716.663C375.373 730.853 383.029 740.806 397.543 741.642L400.693 745.383C394.36 746.015 389.694 745.94 383.911 742.574C378.589 739.504 374.737 734.409 373.234 728.45C369.46 713.977 377.866 702.593 391.882 699.197Z" fill="#343332"/>
<path d="M309.794 633.386C323.227 650.456 329.104 664.106 334.069 685.14L325.781 685.368L321.716 685.527C319.171 668.524 311.673 655.687 302 642.113C304.455 639.079 307.055 636.166 309.794 633.386Z" fill="#343332"/>
<path d="M320.325 621.277C321.611 622.48 326.049 628.786 327.333 630.634C339.585 648.267 345.828 663.072 349.243 684.256C347.448 684.287 345.631 684.447 343.839 684.581C342.898 684.672 342.407 684.643 341.457 684.599C341.302 684.477 341.147 684.354 340.992 684.232C339.669 677.717 338.439 670.994 336.226 664.716C334.144 658.805 331.539 652.688 328.51 647.2C324.663 640.23 319.63 633.768 314.791 627.463L320.325 621.277Z" fill="#0982B7"/>
<path d="M397.087 724.155C399.247 724.169 401.428 725.297 402.52 726.99C405.37 731.406 437.086 767.834 437.324 769.021C436.425 769.866 436.232 769.67 434.872 769.913C433.656 770.03 430.096 769.157 426.978 769.365C417.55 756.691 406.041 744.944 396.621 732.201C394.244 728.983 393.707 726.648 397.087 724.155Z" fill="#0982B7"/>
<path d="M516.475 463.626C532.447 465.107 540.672 475.923 550.798 486.668C552.674 488.661 554.348 490.377 555.816 492.714C555.069 493.761 554.225 494.702 553.39 495.679C553.28 495.759 553.17 495.84 553.055 495.918C552.229 496.486 550.702 497.386 549.67 497.1C543.545 495.403 535.708 475.863 516.698 472.408C517.692 468.727 517.499 467.21 516.475 463.626Z" fill="#0982B7"/>
<path d="M635.077 692.018C635.83 691.999 636.582 691.995 637.33 692.008C657.732 692.425 657.246 723.828 636.71 722.383C631.986 722.05 629.105 719.997 626.115 716.469C624.05 713.445 623.766 712.069 622.881 708.594C628.536 711.844 633.238 718.182 640.123 715.905C642.274 715.19 644.031 713.621 644.985 711.568C649.838 701.354 635.325 695.806 634.114 692.332L635.077 692.018Z" fill="#075186"/>
<path d="M444.047 775.179C458.02 769.952 455.029 786.361 446.707 783.141C444.414 782.254 443.931 782.186 441.711 783.132L441.333 783.294C438.143 784.228 437.283 783.525 434.314 782.162L429.53 783.905L425.155 782.37C422.329 783.556 418.776 784.894 416.824 781.273C416.182 780.077 416.058 778.671 416.48 777.381C417.814 773.192 421.57 774.044 424.663 775.212L428.658 773.811C430.77 773.731 432.204 774.401 434.177 775.116C438.856 773.481 439.298 773.299 444.047 775.179Z" fill="#F4641D"/>
<path d="M394.586 710.537C396.537 710.408 398.228 710.496 400.101 711.158C403.7 712.441 406.63 715.122 408.229 718.594C409.463 721.3 409.508 723.604 408.496 726.35C408.318 726.419 408.14 726.488 407.962 726.557C405.753 723.86 403.655 721.101 400.043 720.228C394.801 718.962 391.353 721.927 390.325 726.747C390.539 731.575 391.945 733.429 395.048 737.012C389.018 735.953 384.873 733.245 383.423 726.94C382.571 723.369 383.195 719.606 385.153 716.501C387.45 712.923 390.567 711.377 394.586 710.537Z" fill="#0982B7"/>
<path d="M228.645 693.315L229.307 693.476C229.03 694.401 226.974 696.685 226.184 697.463C218.584 704.946 218.38 717.474 231.106 718.514C234.627 718.802 238.644 717.049 242.087 715.642C240.996 719.349 240.104 720.4 236.982 722.663C231.634 725.522 226.095 725.961 220.8 722.628C217.527 720.531 215.227 717.215 214.41 713.414C212.176 703.478 219.185 695.386 228.645 693.315Z" fill="#753035"/>
<path d="M323.325 722.307C327.308 722.923 331.297 723.505 335.291 724.054C333.862 733.703 332.029 739.392 328.573 748.253C327.716 748.361 318.767 746.441 317.249 746.144C320.643 737.528 322.383 731.506 323.325 722.307Z" fill="#343332"/>
<path d="M122.961 624.98C119.474 622.214 117.623 617.96 120.891 614.1C122.258 612.477 124.229 611.484 126.347 611.353C129.158 611.194 130.763 612.303 132.709 614.084L133.682 615.274C133.565 616.296 126.2 624.273 124.839 625.78C123.86 625.724 123.788 625.593 122.961 624.98Z" fill="#FEAE12"/>
<path d="M132.709 614.084L133.682 615.273C133.565 616.295 126.2 624.273 124.839 625.78C123.86 625.724 123.788 625.593 122.961 624.98C126.151 621.34 129.487 617.752 132.709 614.084Z" fill="#F4641D"/>
<path d="M351.072 557.726C352.121 558.17 353.018 561.63 353.393 562.785C348.553 564.517 343.643 566.049 338.677 567.378C337.271 566.569 336.633 563.988 336.111 562.423L351.072 557.726Z" fill="#343332"/>
<path d="M343.765 550.147L344.157 550.227C344.815 551.143 344.748 551.392 344.851 552.57C343.8 554.384 341.159 554.703 339.01 555.297C338.194 554.577 338.005 553.113 337.71 551.967L343.765 550.147Z" fill="#343332"/>
</svg>
