<svg width="849" height="1183" viewBox="0 0 849 1183" fill="none" xmlns="http://www.w3.org/2000/svg">
<rect x="5" y="5" width="839" height="1173" rx="45" fill="white"/>
<rect x="5" y="5" width="839" height="1173" rx="45" stroke="black" stroke-width="10"/>
<circle cx="786.5" cy="1124.5" r="11.5" fill="black"/>
<circle cx="786.5" cy="59.5" r="11.5" fill="black"/>
<path d="M77 1124.5C77 1130.85 71.8513 1136 65.5 1136C59.1487 1136 54 1130.85 54 1124.5C54 1118.15 59.1487 1113 65.5 1113C71.8513 1113 77 1118.15 77 1124.5Z" fill="black"/>
<path d="M77 59.5C77 65.8513 71.8513 71 65.5 71C59.1487 71 54 65.8513 54 59.5C54 53.1487 59.1487 48 65.5 48C71.8513 48 77 53.1487 77 59.5Z" fill="black"/>
<mask id="path-6-inside-1_1_3562" fill="white">
<path d="M708 48C713.523 48 717.934 52.4996 718.616 57.9801C723.122 94.1833 751.817 122.878 788.02 127.384C793.5 128.066 798 132.477 798 138V1046C798 1051.52 793.5 1055.93 788.02 1056.62C751.817 1061.12 723.122 1089.82 718.616 1126.02C717.934 1131.5 713.523 1136 708 1136H141C135.477 1136 131.066 1131.5 130.384 1126.02C125.878 1089.82 97.1833 1061.12 60.9801 1056.62C55.4996 1055.93 51 1051.52 51 1046V138C51 132.477 55.4996 128.066 60.9801 127.384C97.1833 122.878 125.878 94.1833 130.384 57.9801C131.066 52.4996 135.477 48 141 48H708Z"/>
</mask>
<path d="M708 48C713.523 48 717.934 52.4996 718.616 57.9801C723.122 94.1833 751.817 122.878 788.02 127.384C793.5 128.066 798 132.477 798 138V1046C798 1051.52 793.5 1055.93 788.02 1056.62C751.817 1061.12 723.122 1089.82 718.616 1126.02C717.934 1131.5 713.523 1136 708 1136H141C135.477 1136 131.066 1131.5 130.384 1126.02C125.878 1089.82 97.1833 1061.12 60.9801 1056.62C55.4996 1055.93 51 1051.52 51 1046V138C51 132.477 55.4996 128.066 60.9801 127.384C97.1833 122.878 125.878 94.1833 130.384 57.9801C131.066 52.4996 135.477 48 141 48H708Z" fill="#0089CB"/>
<path d="M130.384 1126.02L138.322 1125.03L130.384 1126.02ZM718.616 1126.02L710.678 1125.03L718.616 1126.02ZM788.02 1056.62L789.008 1064.56L788.02 1056.62ZM718.616 57.9801L726.555 56.9922L718.616 57.9801ZM718.616 57.9801L710.678 58.9681C715.635 98.8063 747.194 130.365 787.032 135.322L788.02 127.384L789.008 119.445C756.44 115.392 730.608 89.5603 726.555 56.9922L718.616 57.9801ZM798 138H790V1046H798H806V138H798ZM788.02 1056.62L787.032 1048.68C747.194 1053.64 715.635 1085.19 710.678 1125.03L718.616 1126.02L726.555 1127.01C730.608 1094.44 756.44 1068.61 789.008 1064.56L788.02 1056.62ZM708 1136V1128H141V1136V1144H708V1136ZM130.384 1126.02L138.322 1125.03C133.365 1085.19 101.806 1053.64 61.9681 1048.68L60.9801 1056.62L59.9922 1064.56C92.5603 1068.61 118.392 1094.44 122.445 1127.01L130.384 1126.02ZM51 1046H59V138H51H43V1046H51ZM60.9801 127.384L61.9681 135.322C101.806 130.365 133.365 98.8063 138.322 58.9681L130.384 57.9801L122.445 56.9922C118.392 89.5603 92.5603 115.392 59.9922 119.445L60.9801 127.384ZM141 48V56H708V48V40H141V48ZM130.384 57.9801L138.322 58.9681C138.438 58.0389 138.872 57.2306 139.427 56.6958C139.954 56.1887 140.494 56 141 56V48V40C130.84 40 123.547 48.1329 122.445 56.9922L130.384 57.9801ZM51 138H59C59 137.494 59.1887 136.954 59.6958 136.427C60.2306 135.872 61.0389 135.438 61.9681 135.322L60.9801 127.384L59.9922 119.445C51.1329 120.547 43 127.84 43 138H51ZM60.9801 1056.62L61.9681 1048.68C61.0389 1048.56 60.2306 1048.13 59.6958 1047.57C59.1887 1047.05 59 1046.51 59 1046H51H43C43 1056.16 51.1329 1063.45 59.9922 1064.56L60.9801 1056.62ZM141 1136V1128C140.494 1128 139.954 1127.81 139.427 1127.3C138.872 1126.77 138.438 1125.96 138.322 1125.03L130.384 1126.02L122.445 1127.01C123.547 1135.87 130.84 1144 141 1144V1136ZM718.616 1126.02L710.678 1125.03C710.562 1125.96 710.128 1126.77 709.573 1127.3C709.046 1127.81 708.506 1128 708 1128V1136V1144C718.16 1144 725.453 1135.87 726.555 1127.01L718.616 1126.02ZM798 1046H790C790 1046.51 789.811 1047.05 789.304 1047.57C788.769 1048.13 787.961 1048.56 787.032 1048.68L788.02 1056.62L789.008 1064.56C797.867 1063.45 806 1056.16 806 1046H798ZM788.02 127.384L787.032 135.322C787.961 135.438 788.769 135.872 789.304 136.427C789.811 136.954 790 137.494 790 138H798H806C806 127.84 797.867 120.547 789.008 119.445L788.02 127.384ZM718.616 57.9801L726.555 56.9922C725.453 48.1329 718.16 40 708 40V48V56C708.506 56 709.046 56.1887 709.573 56.6958C710.128 57.2306 710.562 58.0389 710.678 58.9681L718.616 57.9801Z" fill="black" mask="url(#path-6-inside-1_1_3562)"/>
<path d="M690 102C695.523 102 699.911 106.512 700.837 111.957C705.019 136.563 724.437 155.981 749.043 160.163C754.488 161.089 759 165.477 759 171V1014C759 1019.52 754.488 1023.91 749.043 1024.84C724.711 1028.97 705.454 1048 700.984 1072.22C699.993 1077.59 695.633 1082 690.175 1082H158.825C153.367 1082 149.007 1077.59 148.016 1072.22C143.546 1048 124.288 1028.97 99.9568 1024.84C94.5121 1023.91 90 1019.52 90 1014V171C90 165.477 94.512 161.089 99.9568 160.163C124.563 155.981 143.981 136.563 148.163 111.957C149.089 106.512 153.477 102 159 102H690Z" fill="#4BADDC"/>
<mask id="path-9-outside-2_1_3562" maskUnits="userSpaceOnUse" x="407" y="1006" width="35" height="32" fill="black">
<rect fill="white" x="407" y="1006" width="35" height="32"/>
<path d="M407.8 1012V1007.84H416.12V1037H411.52V1012H407.8ZM424.904 1030.8C427.464 1028.59 429.478 1026.77 430.944 1025.36C432.438 1023.92 433.678 1022.43 434.664 1020.88C435.651 1019.33 436.144 1017.79 436.144 1016.24C436.144 1014.64 435.758 1013.39 434.984 1012.48C434.238 1011.57 433.051 1011.12 431.424 1011.12C429.851 1011.12 428.624 1011.63 427.744 1012.64C426.891 1013.63 426.438 1014.96 426.384 1016.64H421.984C422.064 1013.6 422.971 1011.28 424.704 1009.68C426.464 1008.05 428.691 1007.24 431.384 1007.24C434.291 1007.24 436.558 1008.04 438.184 1009.64C439.838 1011.24 440.664 1013.37 440.664 1016.04C440.664 1017.96 440.171 1019.81 439.184 1021.6C438.224 1023.36 437.064 1024.95 435.704 1026.36C434.371 1027.75 432.664 1029.36 430.584 1031.2L428.784 1032.8H441.464V1036.6H422.024V1033.28L424.904 1030.8Z"/>
</mask>
<path d="M407.8 1012V1007.84H416.12V1037H411.52V1012H407.8ZM424.904 1030.8C427.464 1028.59 429.478 1026.77 430.944 1025.36C432.438 1023.92 433.678 1022.43 434.664 1020.88C435.651 1019.33 436.144 1017.79 436.144 1016.24C436.144 1014.64 435.758 1013.39 434.984 1012.48C434.238 1011.57 433.051 1011.12 431.424 1011.12C429.851 1011.12 428.624 1011.63 427.744 1012.64C426.891 1013.63 426.438 1014.96 426.384 1016.64H421.984C422.064 1013.6 422.971 1011.28 424.704 1009.68C426.464 1008.05 428.691 1007.24 431.384 1007.24C434.291 1007.24 436.558 1008.04 438.184 1009.64C439.838 1011.24 440.664 1013.37 440.664 1016.04C440.664 1017.96 440.171 1019.81 439.184 1021.6C438.224 1023.36 437.064 1024.95 435.704 1026.36C434.371 1027.75 432.664 1029.36 430.584 1031.2L428.784 1032.8H441.464V1036.6H422.024V1033.28L424.904 1030.8Z" fill="black"/>
<path d="M407.8 1012H407.5V1012.3H407.8V1012ZM407.8 1007.84V1007.54H407.5V1007.84H407.8ZM416.12 1007.84H416.42V1007.54H416.12V1007.84ZM416.12 1037V1037.3H416.42V1037H416.12ZM411.52 1037H411.22V1037.3H411.52V1037ZM411.52 1012H411.82V1011.7H411.52V1012ZM407.8 1012H408.1V1007.84H407.8H407.5V1012H407.8ZM407.8 1007.84V1008.14H416.12V1007.84V1007.54H407.8V1007.84ZM416.12 1007.84H415.82V1037H416.12H416.42V1007.84H416.12ZM416.12 1037V1036.7H411.52V1037V1037.3H416.12V1037ZM411.52 1037H411.82V1012H411.52H411.22V1037H411.52ZM411.52 1012V1011.7H407.8V1012V1012.3H411.52V1012ZM424.904 1030.8L425.1 1031.03L425.101 1031.03L424.904 1030.8ZM430.944 1025.36L431.153 1025.58L431.153 1025.58L430.944 1025.36ZM434.984 1012.48L434.753 1012.67L434.756 1012.67L434.984 1012.48ZM427.744 1012.64L427.518 1012.44L427.517 1012.44L427.744 1012.64ZM426.384 1016.64V1016.94H426.675L426.684 1016.65L426.384 1016.64ZM421.984 1016.64L421.684 1016.63L421.676 1016.94H421.984V1016.64ZM424.704 1009.68L424.908 1009.9L424.908 1009.9L424.704 1009.68ZM438.184 1009.64L437.974 1009.85L437.976 1009.86L438.184 1009.64ZM439.184 1021.6L438.922 1021.45L438.921 1021.46L439.184 1021.6ZM435.704 1026.36L435.488 1026.15L435.488 1026.15L435.704 1026.36ZM430.584 1031.2L430.386 1030.98L430.385 1030.98L430.584 1031.2ZM428.784 1032.8L428.585 1032.58L427.995 1033.1H428.784V1032.8ZM441.464 1032.8H441.764V1032.5H441.464V1032.8ZM441.464 1036.6V1036.9H441.764V1036.6H441.464ZM422.024 1036.6H421.724V1036.9H422.024V1036.6ZM422.024 1033.28L421.829 1033.05L421.724 1033.14V1033.28H422.024ZM424.904 1030.8L425.101 1031.03C427.662 1028.81 429.68 1026.99 431.153 1025.58L430.944 1025.36L430.736 1025.14C429.275 1026.55 427.266 1028.36 424.708 1030.57L424.904 1030.8ZM430.944 1025.36L431.153 1025.58C432.661 1024.12 433.916 1022.61 434.917 1021.04L434.664 1020.88L434.411 1020.72C433.439 1022.24 432.215 1023.72 430.736 1025.14L430.944 1025.36ZM434.664 1020.88L434.917 1021.04C435.929 1019.46 436.444 1017.85 436.444 1016.24H436.144H435.844C435.844 1017.72 435.373 1019.21 434.411 1020.72L434.664 1020.88ZM436.144 1016.24H436.444C436.444 1014.59 436.046 1013.26 435.213 1012.29L434.984 1012.48L434.756 1012.67C435.469 1013.51 435.844 1014.69 435.844 1016.24H436.144ZM434.984 1012.48L435.216 1012.29C434.393 1011.29 433.104 1010.82 431.424 1010.82V1011.12V1011.42C432.998 1011.42 434.083 1011.86 434.753 1012.67L434.984 1012.48ZM431.424 1011.12V1010.82C429.781 1010.82 428.465 1011.35 427.518 1012.44L427.744 1012.64L427.971 1012.84C428.784 1011.9 429.921 1011.42 431.424 1011.42V1011.12ZM427.744 1012.64L427.517 1012.44C426.608 1013.5 426.139 1014.9 426.085 1016.63L426.384 1016.64L426.684 1016.65C426.736 1015.02 427.175 1013.76 427.971 1012.84L427.744 1012.64ZM426.384 1016.64V1016.34H421.984V1016.64V1016.94H426.384V1016.64ZM421.984 1016.64L422.284 1016.65C422.363 1013.66 423.25 1011.43 424.908 1009.9L424.704 1009.68L424.501 1009.46C422.692 1011.13 421.766 1013.54 421.684 1016.63L421.984 1016.64ZM424.704 1009.68L424.908 1009.9C426.606 1008.33 428.756 1007.54 431.384 1007.54V1007.24V1006.94C428.626 1006.94 426.323 1007.78 424.501 1009.46L424.704 1009.68ZM431.384 1007.24V1007.54C434.235 1007.54 436.418 1008.32 437.974 1009.85L438.184 1009.64L438.395 1009.43C436.698 1007.76 434.347 1006.94 431.384 1006.94V1007.24ZM438.184 1009.64L437.976 1009.86C439.561 1011.39 440.364 1013.44 440.364 1016.04H440.664H440.964C440.964 1013.31 440.114 1011.09 438.393 1009.42L438.184 1009.64ZM440.664 1016.04H440.364C440.364 1017.91 439.886 1019.71 438.922 1021.45L439.184 1021.6L439.447 1021.75C440.457 1019.92 440.964 1018.01 440.964 1016.04H440.664ZM439.184 1021.6L438.921 1021.46C437.974 1023.19 436.829 1024.76 435.488 1026.15L435.704 1026.36L435.921 1026.57C437.299 1025.14 438.475 1023.53 439.448 1021.74L439.184 1021.6ZM435.704 1026.36L435.488 1026.15C434.162 1027.53 432.462 1029.14 430.386 1030.98L430.584 1031.2L430.783 1031.42C432.867 1029.58 434.58 1027.96 435.921 1026.57L435.704 1026.36ZM430.584 1031.2L430.385 1030.98L428.585 1032.58L428.784 1032.8L428.984 1033.02L430.784 1031.42L430.584 1031.2ZM428.784 1032.8V1033.1H441.464V1032.8V1032.5H428.784V1032.8ZM441.464 1032.8H441.164V1036.6H441.464H441.764V1032.8H441.464ZM441.464 1036.6V1036.3H422.024V1036.6V1036.9H441.464V1036.6ZM422.024 1036.6H422.324V1033.28H422.024H421.724V1036.6H422.024ZM422.024 1033.28L422.22 1033.51L425.1 1031.03L424.904 1030.8L424.709 1030.57L421.829 1033.05L422.024 1033.28Z" fill="black" mask="url(#path-9-outside-2_1_3562)"/>
<path d="M317.71 259.925H291.46L287.47 272H265.84L292.825 197.975H316.555L343.435 272H321.7L317.71 259.925ZM312.565 244.175L304.585 220.235L296.71 244.175H312.565ZM370.723 221.285C372.333 218.555 374.608 216.385 377.548 214.775C380.488 213.165 383.953 212.36 387.943 212.36C392.633 212.36 396.868 213.585 400.648 216.035C404.498 218.485 407.508 221.985 409.678 226.535C411.918 231.085 413.038 236.405 413.038 242.495C413.038 248.585 411.918 253.94 409.678 258.56C407.508 263.11 404.498 266.61 400.648 269.06C396.868 271.51 392.633 272.735 387.943 272.735C383.953 272.735 380.488 271.93 377.548 270.32C374.678 268.71 372.403 266.54 370.723 263.81V300.14H350.143V213.095H370.723V221.285ZM392.143 242.495C392.143 238.645 391.093 235.67 388.993 233.57C386.963 231.4 384.443 230.315 381.433 230.315C378.423 230.315 375.868 231.4 373.768 233.57C371.738 235.74 370.723 238.715 370.723 242.495C370.723 246.345 371.738 249.355 373.768 251.525C375.868 253.695 378.423 254.78 381.433 254.78C384.443 254.78 386.963 253.695 388.993 251.525C391.093 249.285 392.143 246.275 392.143 242.495ZM442.09 221.285C443.7 218.555 445.975 216.385 448.915 214.775C451.855 213.165 455.32 212.36 459.31 212.36C464 212.36 468.235 213.585 472.015 216.035C475.865 218.485 478.875 221.985 481.045 226.535C483.285 231.085 484.405 236.405 484.405 242.495C484.405 248.585 483.285 253.94 481.045 258.56C478.875 263.11 475.865 266.61 472.015 269.06C468.235 271.51 464 272.735 459.31 272.735C455.32 272.735 451.855 271.93 448.915 270.32C446.045 268.71 443.77 266.54 442.09 263.81V300.14H421.51V213.095H442.09V221.285ZM463.51 242.495C463.51 238.645 462.46 235.67 460.36 233.57C458.33 231.4 455.81 230.315 452.8 230.315C449.79 230.315 447.235 231.4 445.135 233.57C443.105 235.74 442.09 238.715 442.09 242.495C442.09 246.345 443.105 249.355 445.135 251.525C447.235 253.695 449.79 254.78 452.8 254.78C455.81 254.78 458.33 253.695 460.36 251.525C462.46 249.285 463.51 246.275 463.51 242.495ZM513.457 194.3V272H492.877V194.3H513.457ZM581.457 241.865C581.457 243.475 581.352 245.085 581.142 246.695H542.187C542.397 249.915 543.272 252.33 544.812 253.94C546.422 255.48 548.452 256.25 550.902 256.25C554.332 256.25 556.782 254.71 558.252 251.63H580.197C579.287 255.69 577.502 259.33 574.842 262.55C572.252 265.7 568.962 268.185 564.972 270.005C560.982 271.825 556.572 272.735 551.742 272.735C545.932 272.735 540.752 271.51 536.202 269.06C531.722 266.61 528.187 263.11 525.597 258.56C523.077 254.01 521.817 248.655 521.817 242.495C521.817 236.335 523.077 231.015 525.597 226.535C528.117 221.985 531.617 218.485 536.097 216.035C540.647 213.585 545.862 212.36 551.742 212.36C557.552 212.36 562.697 213.55 567.177 215.93C571.657 218.31 575.157 221.74 577.677 226.22C580.197 230.63 581.457 235.845 581.457 241.865ZM560.457 236.72C560.457 234.2 559.617 232.24 557.937 230.84C556.257 229.37 554.157 228.635 551.637 228.635C549.117 228.635 547.052 229.335 545.442 230.735C543.832 232.065 542.782 234.06 542.292 236.72H560.457Z" fill="black"/>
<path d="M475.873 322.138C499.859 319.171 522.312 364.946 518.814 384.769C516.239 399.358 503.402 401.757 492.819 409.184C464.675 428.932 441.919 461.907 435.753 496.227C441.948 492.991 448.314 489.456 454.496 486.17C538.329 441.607 636.207 474.942 669.654 565.725C699.883 647.773 687.243 734.989 652.124 813.574C623.32 878.032 570.181 964.551 488.174 957.171C439.846 952.904 438.326 935.299 388.068 955.223C364.067 964.739 341.48 964.175 317.867 953.902C225.154 912.624 168.992 759.814 164.267 667.385C160.069 585.267 205.503 492.391 297.475 490.001C239.499 463.297 212.098 420.21 205.251 355.844C201.962 335.789 205.789 334.701 225.472 334.156C299.624 332.099 362.109 366.088 390.727 435.087C397.795 401.379 438.573 327.012 475.873 322.138ZM382.295 512.545C382.525 508.291 382.423 504.84 382.295 500.606C375.567 500.594 365.776 500.253 359.308 500.606C361.913 502.069 380.233 511.948 382.295 512.545Z" fill="#2A1E1C"/>
<path d="M527.312 484.563C557.235 482.141 590 495.314 612.951 514.233C654.798 548.729 674.149 621.407 670.234 674.759C664.316 758.395 627.771 857.82 565.652 914.135C506.601 967.667 477.196 929.128 419.918 929.733C406.316 929.877 390.082 938.359 376.835 942.916C334.141 957.598 295.202 926.139 268.857 895.172L268.572 894.832C206.089 825.003 156.742 680.317 192.881 587.392C225.247 504.174 312.066 481.682 383.591 533.517C385.196 541.52 386.5 549.274 388.216 557.408C362.214 552.653 341.149 529.914 337.487 529.51C334.005 529.128 328.858 534.388 329.664 537.794C331.213 544.353 342.125 553.079 347.221 556.99C385.189 586.126 438.233 575.186 473.881 548.236C478.193 544.976 486.137 540.305 484.902 534.597C481.701 519.804 464.809 535.869 459.951 538.996C450.444 545.14 440.106 550.764 429.194 553.941C429.061 547.066 429.021 522.756 433.095 519.454C456.648 500.351 499.137 485.258 527.312 484.563Z" fill="#FF0000"/>
<path d="M527.31 484.563C557.234 482.141 589.999 495.314 612.95 514.233C654.797 548.729 674.148 621.407 670.233 674.759C664.315 758.395 627.77 857.82 565.651 914.135C506.6 967.667 477.195 929.128 419.917 929.733C406.314 929.877 390.081 938.359 376.834 942.916C334.14 957.598 295.201 926.139 268.856 895.172L268.571 894.832C272.174 893.602 277.254 896.448 280.853 898.021C318.464 907.35 368.521 885.419 399.043 863.879C458.168 822.149 493.013 773.06 524.82 710.237C562.377 634.103 578.483 558.624 527.31 484.563Z" fill="#C10B09"/>
<path d="M280.853 898.021C298.607 920.407 347.941 933.137 375.482 922.671C396.18 914.805 406.958 907.645 431.064 907.959C455.886 908.282 481.352 923.892 506.039 920.408C551.398 914.008 578.726 876.138 602.832 841.716C634.685 796.232 649.645 754.761 661.331 701.888C662.32 697.423 665.322 673.496 669.591 673.358L670.233 674.76C664.315 758.395 627.77 857.82 565.651 914.136C506.6 967.667 477.195 929.128 419.917 929.734C406.314 929.877 390.081 938.359 376.834 942.916C334.14 957.598 295.201 926.14 268.856 895.172L268.571 894.832C272.174 893.603 277.254 896.448 280.853 898.021Z" fill="#FF0000"/>
<path d="M614.223 640.683C618.179 640.736 622.126 641.668 623.328 646.164C642.391 717.521 611.372 796.263 569.291 853.463C563.156 861.804 552.188 875.729 543.095 879.357C538.042 879.565 533.458 876.93 532.852 871.506C532.242 866.052 538.465 862.282 541.769 858.606C587.255 808.007 618.864 735.241 610.491 666.235C609.715 659.832 607.881 653.853 607.343 647.52L607.291 646.876C609.209 643.522 610.627 641.994 614.223 640.683Z" fill="#2A1E1C"/>
<path d="M232.347 551.228C259.45 547.874 234.851 685.588 213.848 688.817C211.717 688.886 208.544 686.063 207.165 682.633C193.831 649.459 211.819 556.169 232.347 551.228Z" fill="#FF8D8F"/>
<path d="M230.66 712.6C250.275 710.647 268.896 808.413 245.032 813.459C226.304 814.464 205.834 718.827 230.66 712.6Z" fill="#FF8D8F"/>
<path d="M459.74 347.823C464.121 357.88 467.053 363.699 473.103 372.953C481.239 383.151 482.117 384.853 492.598 392.547C433.835 425.767 414.057 493.961 415.051 557.408C411.137 557.527 407.024 557.762 403.142 557.408C401.032 551.694 397.911 537.337 398.29 531.151C388.678 471.824 410.723 383.946 459.74 347.823Z" fill="#889E40"/>
<path d="M459.74 347.823C464.121 357.88 467.053 363.699 473.103 372.953C428.543 407.418 408.578 455.098 401.227 510.304C400.741 513.968 399.685 529.023 398.29 531.151C388.678 471.824 410.723 383.946 459.74 347.823Z" fill="#B2E87B"/>
<path d="M220.719 350.47C223.103 352.3 225.588 355.107 227.837 357.264C247.101 375.733 270.397 387.785 292.866 401.745C271.164 407.873 295.75 419.9 300.089 423.937C318.277 437.811 344.035 454.998 359.308 471.652C364.365 474.511 369.532 480.289 373.535 484.563C362.904 484.578 352.345 484.565 341.712 484.363C281.726 483.223 230.562 431.897 223.672 372.953C221.521 365.455 221.023 358.194 220.719 350.47Z" fill="#03A02F"/>
<path d="M223.672 372.953C236.397 377.861 270.028 470.687 359.016 471.793C359.115 471.746 359.211 471.7 359.308 471.651C364.365 474.511 369.532 480.289 373.535 484.563C362.904 484.578 352.345 484.564 341.712 484.363C281.726 483.223 230.563 431.897 223.672 372.953Z" fill="#008320"/>
<path d="M220.719 350.47C247.825 344.368 302.756 362.128 325.541 376.279C356.781 395.681 381.588 434.501 383.59 471.652C358.704 451.426 319.334 412.278 292.866 401.745C270.397 387.785 247.101 375.733 227.837 357.264C225.588 355.107 223.103 352.3 220.719 350.47Z" fill="#3BC841"/>
<path d="M475.873 336.052C490.299 336.523 508.567 370.377 505.333 382.192L504.417 382.651C494.069 377.187 466.013 346.477 475.873 336.052Z" fill="#3B3837"/>
</svg>
