<svg width="849" height="1183" viewBox="0 0 849 1183" fill="none" xmlns="http://www.w3.org/2000/svg">
<rect x="5" y="5" width="839" height="1173" rx="45" fill="white"/>
<rect x="5" y="5" width="839" height="1173" rx="45" stroke="black" stroke-width="10"/>
<circle cx="786.5" cy="1124.5" r="11.5" fill="black"/>
<circle cx="786.5" cy="59.5" r="11.5" fill="black"/>
<path d="M77 1124.5C77 1130.85 71.8513 1136 65.5 1136C59.1487 1136 54 1130.85 54 1124.5C54 1118.15 59.1487 1113 65.5 1113C71.8513 1113 77 1118.15 77 1124.5Z" fill="black"/>
<path d="M77 59.5C77 65.8513 71.8513 71 65.5 71C59.1487 71 54 65.8513 54 59.5C54 53.1487 59.1487 48 65.5 48C71.8513 48 77 53.1487 77 59.5Z" fill="black"/>
<mask id="path-6-inside-1_1_1252" fill="white">
<path d="M708 48C713.523 48 717.934 52.4996 718.616 57.9801C723.122 94.1833 751.817 122.878 788.02 127.384C793.5 128.066 798 132.477 798 138V1046C798 1051.52 793.5 1055.93 788.02 1056.62C751.817 1061.12 723.122 1089.82 718.616 1126.02C717.934 1131.5 713.523 1136 708 1136H141C135.477 1136 131.066 1131.5 130.384 1126.02C125.878 1089.82 97.1833 1061.12 60.9801 1056.62C55.4996 1055.93 51 1051.52 51 1046V138C51 132.477 55.4996 128.066 60.9801 127.384C97.1833 122.878 125.878 94.1833 130.384 57.9801C131.066 52.4996 135.477 48 141 48H708Z"/>
</mask>
<path d="M708 48C713.523 48 717.934 52.4996 718.616 57.9801C723.122 94.1833 751.817 122.878 788.02 127.384C793.5 128.066 798 132.477 798 138V1046C798 1051.52 793.5 1055.93 788.02 1056.62C751.817 1061.12 723.122 1089.82 718.616 1126.02C717.934 1131.5 713.523 1136 708 1136H141C135.477 1136 131.066 1131.5 130.384 1126.02C125.878 1089.82 97.1833 1061.12 60.9801 1056.62C55.4996 1055.93 51 1051.52 51 1046V138C51 132.477 55.4996 128.066 60.9801 127.384C97.1833 122.878 125.878 94.1833 130.384 57.9801C131.066 52.4996 135.477 48 141 48H708Z" fill="#77B866"/>
<path d="M130.384 1126.02L138.322 1125.03L130.384 1126.02ZM718.616 1126.02L710.678 1125.03L718.616 1126.02ZM788.02 1056.62L789.008 1064.56L788.02 1056.62ZM718.616 57.9801L726.555 56.9922L718.616 57.9801ZM718.616 57.9801L710.678 58.9681C715.635 98.8063 747.194 130.365 787.032 135.322L788.02 127.384L789.008 119.445C756.44 115.392 730.608 89.5603 726.555 56.9922L718.616 57.9801ZM798 138H790V1046H798H806V138H798ZM788.02 1056.62L787.032 1048.68C747.194 1053.64 715.635 1085.19 710.678 1125.03L718.616 1126.02L726.555 1127.01C730.608 1094.44 756.44 1068.61 789.008 1064.56L788.02 1056.62ZM708 1136V1128H141V1136V1144H708V1136ZM130.384 1126.02L138.322 1125.03C133.365 1085.19 101.806 1053.64 61.9681 1048.68L60.9801 1056.62L59.9922 1064.56C92.5603 1068.61 118.392 1094.44 122.445 1127.01L130.384 1126.02ZM51 1046H59V138H51H43V1046H51ZM60.9801 127.384L61.9681 135.322C101.806 130.365 133.365 98.8063 138.322 58.9681L130.384 57.9801L122.445 56.9922C118.392 89.5603 92.5603 115.392 59.9922 119.445L60.9801 127.384ZM141 48V56H708V48V40H141V48ZM130.384 57.9801L138.322 58.9681C138.438 58.0389 138.872 57.2306 139.427 56.6958C139.954 56.1887 140.494 56 141 56V48V40C130.84 40 123.547 48.1329 122.445 56.9922L130.384 57.9801ZM51 138H59C59 137.494 59.1887 136.954 59.6958 136.427C60.2306 135.872 61.0389 135.438 61.9681 135.322L60.9801 127.384L59.9922 119.445C51.1329 120.547 43 127.84 43 138H51ZM60.9801 1056.62L61.9681 1048.68C61.0389 1048.56 60.2306 1048.13 59.6958 1047.57C59.1887 1047.05 59 1046.51 59 1046H51H43C43 1056.16 51.1329 1063.45 59.9922 1064.56L60.9801 1056.62ZM141 1136V1128C140.494 1128 139.954 1127.81 139.427 1127.3C138.872 1126.77 138.438 1125.96 138.322 1125.03L130.384 1126.02L122.445 1127.01C123.547 1135.87 130.84 1144 141 1144V1136ZM718.616 1126.02L710.678 1125.03C710.562 1125.96 710.128 1126.77 709.573 1127.3C709.046 1127.81 708.506 1128 708 1128V1136V1144C718.16 1144 725.453 1135.87 726.555 1127.01L718.616 1126.02ZM798 1046H790C790 1046.51 789.811 1047.05 789.304 1047.57C788.769 1048.13 787.961 1048.56 787.032 1048.68L788.02 1056.62L789.008 1064.56C797.867 1063.45 806 1056.16 806 1046H798ZM788.02 127.384L787.032 135.322C787.961 135.438 788.769 135.872 789.304 136.427C789.811 136.954 790 137.494 790 138H798H806C806 127.84 797.867 120.547 789.008 119.445L788.02 127.384ZM718.616 57.9801L726.555 56.9922C725.453 48.1329 718.16 40 708 40V48V56C708.506 56 709.046 56.1887 709.573 56.6958C710.128 57.2306 710.562 58.0389 710.678 58.9681L718.616 57.9801Z" fill="black" mask="url(#path-6-inside-1_1_1252)"/>
<path d="M690 102C695.523 102 699.911 106.512 700.837 111.957C705.019 136.563 724.437 155.981 749.043 160.163C754.488 161.089 759 165.477 759 171V1014C759 1019.52 754.488 1023.91 749.043 1024.84C724.711 1028.97 705.454 1048 700.984 1072.22C699.993 1077.59 695.633 1082 690.175 1082H158.825C153.367 1082 149.007 1077.59 148.016 1072.22C143.546 1048 124.288 1028.97 99.9568 1024.84C94.5121 1023.91 90 1019.52 90 1014V171C90 165.477 94.512 161.089 99.9568 160.163C124.563 155.981 143.981 136.563 148.163 111.957C149.089 106.512 153.477 102 159 102H690Z" fill="#A3CC98"/>
<path d="M353.81 272.735C345.2 272.735 338.13 270.705 332.6 266.645C327.07 262.515 324.095 256.635 323.675 249.005H345.62C345.83 251.595 346.6 253.485 347.93 254.675C349.26 255.865 350.975 256.46 353.075 256.46C354.965 256.46 356.505 256.005 357.695 255.095C358.955 254.115 359.585 252.785 359.585 251.105C359.585 248.935 358.57 247.255 356.54 246.065C354.51 244.875 351.22 243.545 346.67 242.075C341.84 240.465 337.92 238.925 334.91 237.455C331.97 235.915 329.38 233.71 327.14 230.84C324.97 227.9 323.885 224.085 323.885 219.395C323.885 214.635 325.075 210.575 327.455 207.215C329.835 203.785 333.125 201.195 337.325 199.445C341.525 197.695 346.285 196.82 351.605 196.82C360.215 196.82 367.075 198.85 372.185 202.91C377.365 206.9 380.13 212.535 380.48 219.815H358.115C358.045 217.575 357.345 215.895 356.015 214.775C354.755 213.655 353.11 213.095 351.08 213.095C349.54 213.095 348.28 213.55 347.3 214.46C346.32 215.37 345.83 216.665 345.83 218.345C345.83 219.745 346.355 220.97 347.405 222.02C348.525 223 349.89 223.875 351.5 224.645C353.11 225.345 355.49 226.255 358.64 227.375C363.33 228.985 367.18 230.595 370.19 232.205C373.27 233.745 375.895 235.95 378.065 238.82C380.305 241.62 381.425 245.19 381.425 249.53C381.425 253.94 380.305 257.895 378.065 261.395C375.895 264.895 372.71 267.66 368.51 269.69C364.38 271.72 359.48 272.735 353.81 272.735ZM451.262 213.095V272H430.577V263.6C428.827 266.26 426.412 268.43 423.332 270.11C420.252 271.72 416.717 272.525 412.727 272.525C405.867 272.525 400.442 270.285 396.452 265.805C392.532 261.255 390.572 255.095 390.572 247.325V213.095H411.047V244.7C411.047 248.06 411.922 250.72 413.672 252.68C415.492 254.57 417.872 255.515 420.812 255.515C423.822 255.515 426.202 254.57 427.952 252.68C429.702 250.72 430.577 248.06 430.577 244.7V213.095H451.262ZM501.51 212.57C508.3 212.57 513.69 214.845 517.68 219.395C521.67 223.875 523.665 229.965 523.665 237.665V272H503.085V240.395C503.085 237.035 502.21 234.41 500.46 232.52C498.71 230.56 496.365 229.58 493.425 229.58C490.345 229.58 487.93 230.56 486.18 232.52C484.43 234.41 483.555 237.035 483.555 240.395V272H462.975V213.095H483.555V221.495C485.375 218.835 487.825 216.7 490.905 215.09C493.985 213.41 497.52 212.57 501.51 212.57Z" fill="black"/>
<mask id="path-10-outside-2_1_1252" maskUnits="userSpaceOnUse" x="401" y="1006" width="48" height="32" fill="black">
<rect fill="white" x="401" y="1006" width="48" height="32"/>
<path d="M402.32 1015.04C402.48 1012.56 403.427 1010.63 405.16 1009.24C406.92 1007.85 409.16 1007.16 411.88 1007.16C413.747 1007.16 415.36 1007.49 416.72 1008.16C418.08 1008.83 419.107 1009.73 419.8 1010.88C420.493 1012.03 420.84 1013.32 420.84 1014.76C420.84 1016.41 420.4 1017.83 419.52 1019C418.64 1020.17 417.587 1020.96 416.36 1021.36V1021.52C417.933 1022 419.16 1022.88 420.04 1024.16C420.92 1025.41 421.36 1027.03 421.36 1029C421.36 1030.57 421 1031.97 420.28 1033.2C419.56 1034.43 418.493 1035.4 417.08 1036.12C415.667 1036.81 413.973 1037.16 412 1037.16C409.12 1037.16 406.747 1036.43 404.88 1034.96C403.04 1033.47 402.053 1031.33 401.92 1028.56H406.32C406.427 1029.97 406.973 1031.13 407.96 1032.04C408.947 1032.92 410.28 1033.36 411.96 1033.36C413.587 1033.36 414.84 1032.92 415.72 1032.04C416.6 1031.13 417.04 1029.97 417.04 1028.56C417.04 1026.69 416.44 1025.37 415.24 1024.6C414.067 1023.8 412.253 1023.4 409.8 1023.4H408.76V1019.64H409.84C412 1019.61 413.64 1019.25 414.76 1018.56C415.907 1017.87 416.48 1016.77 416.48 1015.28C416.48 1014 416.067 1012.99 415.24 1012.24C414.413 1011.47 413.24 1011.08 411.72 1011.08C410.227 1011.08 409.067 1011.47 408.24 1012.24C407.413 1012.99 406.92 1013.92 406.76 1015.04H402.32ZM425.59 1030.92V1027.48L439.03 1008.2H444.55V1026.96H448.27V1030.92H444.55V1037H440.07V1030.92H425.59ZM440.27 1012.84L430.83 1026.96H440.27V1012.84Z"/>
</mask>
<path d="M402.32 1015.04C402.48 1012.56 403.427 1010.63 405.16 1009.24C406.92 1007.85 409.16 1007.16 411.88 1007.16C413.747 1007.16 415.36 1007.49 416.72 1008.16C418.08 1008.83 419.107 1009.73 419.8 1010.88C420.493 1012.03 420.84 1013.32 420.84 1014.76C420.84 1016.41 420.4 1017.83 419.52 1019C418.64 1020.17 417.587 1020.96 416.36 1021.36V1021.52C417.933 1022 419.16 1022.88 420.04 1024.16C420.92 1025.41 421.36 1027.03 421.36 1029C421.36 1030.57 421 1031.97 420.28 1033.2C419.56 1034.43 418.493 1035.4 417.08 1036.12C415.667 1036.81 413.973 1037.16 412 1037.16C409.12 1037.16 406.747 1036.43 404.88 1034.96C403.04 1033.47 402.053 1031.33 401.92 1028.56H406.32C406.427 1029.97 406.973 1031.13 407.96 1032.04C408.947 1032.92 410.28 1033.36 411.96 1033.36C413.587 1033.36 414.84 1032.92 415.72 1032.04C416.6 1031.13 417.04 1029.97 417.04 1028.56C417.04 1026.69 416.44 1025.37 415.24 1024.6C414.067 1023.8 412.253 1023.4 409.8 1023.4H408.76V1019.64H409.84C412 1019.61 413.64 1019.25 414.76 1018.56C415.907 1017.87 416.48 1016.77 416.48 1015.28C416.48 1014 416.067 1012.99 415.24 1012.24C414.413 1011.47 413.24 1011.08 411.72 1011.08C410.227 1011.08 409.067 1011.47 408.24 1012.24C407.413 1012.99 406.92 1013.92 406.76 1015.04H402.32ZM425.59 1030.92V1027.48L439.03 1008.2H444.55V1026.96H448.27V1030.92H444.55V1037H440.07V1030.92H425.59ZM440.27 1012.84L430.83 1026.96H440.27V1012.84Z" fill="black"/>
<path d="M402.32 1015.04L402.021 1015.02L402 1015.34H402.32V1015.04ZM405.16 1009.24L404.974 1009L404.973 1009.01L405.16 1009.24ZM416.72 1008.16L416.588 1008.43L416.72 1008.16ZM419.8 1010.88L420.057 1010.72L419.8 1010.88ZM419.52 1019L419.76 1019.18V1019.18L419.52 1019ZM416.36 1021.36L416.267 1021.07L416.06 1021.14V1021.36H416.36ZM416.36 1021.52H416.06V1021.74L416.272 1021.81L416.36 1021.52ZM420.04 1024.16L419.793 1024.33L419.794 1024.33L420.04 1024.16ZM420.28 1033.2L420.021 1033.05L420.28 1033.2ZM417.08 1036.12L417.212 1036.39L417.216 1036.39L417.08 1036.12ZM404.88 1034.96L404.691 1035.19L404.695 1035.2L404.88 1034.96ZM401.92 1028.56V1028.26H401.605L401.62 1028.57L401.92 1028.56ZM406.32 1028.56L406.619 1028.54L406.598 1028.26H406.32V1028.56ZM407.96 1032.04L407.757 1032.26L407.76 1032.26L407.96 1032.04ZM415.72 1032.04L415.932 1032.25L415.935 1032.25L415.72 1032.04ZM415.24 1024.6L415.071 1024.85L415.077 1024.85L415.24 1024.6ZM408.76 1023.4H408.46V1023.7H408.76V1023.4ZM408.76 1019.64V1019.34H408.46V1019.64H408.76ZM409.84 1019.64V1019.94L409.844 1019.94L409.84 1019.64ZM414.76 1018.56L414.605 1018.3L414.602 1018.3L414.76 1018.56ZM415.24 1012.24L415.035 1012.46L415.039 1012.46L415.24 1012.24ZM408.24 1012.24L408.441 1012.46L408.445 1012.46L408.24 1012.24ZM406.76 1015.04V1015.34H407.02L407.057 1015.08L406.76 1015.04ZM402.32 1015.04L402.619 1015.06C402.775 1012.65 403.688 1010.8 405.347 1009.47L405.16 1009.24L404.973 1009.01C403.165 1010.45 402.185 1012.47 402.021 1015.02L402.32 1015.04ZM405.16 1009.24L405.346 1009.48C407.042 1008.14 409.213 1007.46 411.88 1007.46V1007.16V1006.86C409.108 1006.86 406.798 1007.57 404.974 1009L405.16 1009.24ZM411.88 1007.16V1007.46C413.711 1007.46 415.277 1007.79 416.588 1008.43L416.72 1008.16L416.852 1007.89C415.443 1007.2 413.782 1006.86 411.88 1006.86V1007.16ZM416.72 1008.16L416.588 1008.43C417.903 1009.07 418.883 1009.94 419.543 1011.04L419.8 1010.88L420.057 1010.72C419.33 1009.52 418.257 1008.58 416.852 1007.89L416.72 1008.16ZM419.8 1010.88L419.543 1011.04C420.206 1012.13 420.54 1013.37 420.54 1014.76H420.84H421.14C421.14 1013.27 420.78 1011.92 420.057 1010.72L419.8 1010.88ZM420.84 1014.76H420.54C420.54 1016.36 420.116 1017.71 419.28 1018.82L419.52 1019L419.76 1019.18C420.684 1017.95 421.14 1016.47 421.14 1014.76H420.84ZM419.52 1019L419.28 1018.82C418.432 1019.95 417.427 1020.7 416.267 1021.07L416.36 1021.36L416.453 1021.65C417.746 1021.22 418.848 1020.4 419.76 1019.18L419.52 1019ZM416.36 1021.36H416.06V1021.52H416.36H416.66V1021.36H416.36ZM416.36 1021.52L416.272 1021.81C417.785 1022.27 418.954 1023.11 419.793 1024.33L420.04 1024.16L420.287 1023.99C419.366 1022.65 418.082 1021.73 416.448 1021.23L416.36 1021.52ZM420.04 1024.16L419.794 1024.33C420.63 1025.52 421.06 1027.07 421.06 1029H421.36H421.66C421.66 1026.98 421.21 1025.3 420.286 1023.99L420.04 1024.16ZM421.36 1029H421.06C421.06 1030.53 420.711 1031.87 420.021 1033.05L420.28 1033.2L420.539 1033.35C421.289 1032.07 421.66 1030.62 421.66 1029H421.36ZM420.28 1033.2L420.021 1033.05C419.334 1034.22 418.312 1035.16 416.944 1035.85L417.08 1036.12L417.216 1036.39C418.674 1035.64 419.786 1034.63 420.539 1033.35L420.28 1033.2ZM417.08 1036.12L416.948 1035.85C415.585 1036.52 413.939 1036.86 412 1036.86V1037.16V1037.46C414.008 1037.46 415.749 1037.11 417.212 1036.39L417.08 1036.12ZM412 1037.16V1036.86C409.172 1036.86 406.869 1036.14 405.065 1034.72L404.88 1034.96L404.695 1035.2C406.625 1036.71 409.068 1037.46 412 1037.46V1037.16ZM404.88 1034.96L405.069 1034.73C403.307 1033.3 402.35 1031.25 402.22 1028.55L401.92 1028.56L401.62 1028.57C401.757 1031.42 402.773 1033.64 404.691 1035.19L404.88 1034.96ZM401.92 1028.56V1028.86H406.32V1028.56V1028.26H401.92V1028.56ZM406.32 1028.56L406.021 1028.58C406.133 1030.07 406.711 1031.3 407.757 1032.26L407.96 1032.04L408.163 1031.82C407.236 1030.97 406.72 1029.88 406.619 1028.54L406.32 1028.56ZM407.96 1032.04L407.76 1032.26C408.816 1033.21 410.227 1033.66 411.96 1033.66V1033.36V1033.06C410.333 1033.06 409.078 1032.63 408.16 1031.82L407.96 1032.04ZM411.96 1033.36V1033.66C413.641 1033.66 414.98 1033.2 415.932 1032.25L415.72 1032.04L415.508 1031.83C414.7 1032.64 413.533 1033.06 411.96 1033.06V1033.36ZM415.72 1032.04L415.935 1032.25C416.876 1031.28 417.34 1030.04 417.34 1028.56H417.04H416.74C416.74 1029.91 416.324 1030.99 415.505 1031.83L415.72 1032.04ZM417.04 1028.56H417.34C417.34 1026.63 416.714 1025.19 415.403 1024.35L415.24 1024.6L415.077 1024.85C416.166 1025.55 416.74 1026.76 416.74 1028.56H417.04ZM415.24 1024.6L415.409 1024.35C414.161 1023.5 412.275 1023.1 409.8 1023.1V1023.4V1023.7C412.232 1023.7 413.972 1024.1 415.071 1024.85L415.24 1024.6ZM409.8 1023.4V1023.1H408.76V1023.4V1023.7H409.8V1023.4ZM408.76 1023.4H409.06V1019.64H408.76H408.46V1023.4H408.76ZM408.76 1019.64V1019.94H409.84V1019.64V1019.34H408.76V1019.64ZM409.84 1019.64L409.844 1019.94C412.027 1019.91 413.731 1019.55 414.918 1018.82L414.76 1018.56L414.602 1018.3C413.549 1018.96 411.973 1019.31 409.836 1019.34L409.84 1019.64ZM414.76 1018.56L414.915 1018.82C416.163 1018.06 416.78 1016.86 416.78 1015.28H416.48H416.18C416.18 1016.68 415.65 1017.67 414.605 1018.3L414.76 1018.56ZM416.48 1015.28H416.78C416.78 1013.93 416.34 1012.83 415.441 1012.02L415.24 1012.24L415.039 1012.46C415.793 1013.14 416.18 1014.07 416.18 1015.28H416.48ZM415.24 1012.24L415.445 1012.02C414.546 1011.18 413.289 1010.78 411.72 1010.78V1011.08V1011.38C413.191 1011.38 414.281 1011.75 415.035 1012.46L415.24 1012.24ZM411.72 1011.08V1010.78C410.176 1010.78 408.933 1011.18 408.035 1012.02L408.24 1012.24L408.445 1012.46C409.2 1011.75 410.278 1011.38 411.72 1011.38V1011.08ZM408.24 1012.24L408.039 1012.02C407.159 1012.81 406.633 1013.81 406.463 1015L406.76 1015.04L407.057 1015.08C407.207 1014.03 407.667 1013.16 408.441 1012.46L408.24 1012.24ZM406.76 1015.04V1014.74H402.32V1015.04V1015.34H406.76V1015.04ZM425.59 1030.92H425.29V1031.22H425.59V1030.92ZM425.59 1027.48L425.344 1027.31L425.29 1027.39V1027.48H425.59ZM439.03 1008.2V1007.9H438.873L438.784 1008.03L439.03 1008.2ZM444.55 1008.2H444.85V1007.9H444.55V1008.2ZM444.55 1026.96H444.25V1027.26H444.55V1026.96ZM448.27 1026.96H448.57V1026.66H448.27V1026.96ZM448.27 1030.92V1031.22H448.57V1030.92H448.27ZM444.55 1030.92V1030.62H444.25V1030.92H444.55ZM444.55 1037V1037.3H444.85V1037H444.55ZM440.07 1037H439.77V1037.3H440.07V1037ZM440.07 1030.92H440.37V1030.62H440.07V1030.92ZM440.27 1012.84H440.57V1011.85L440.021 1012.67L440.27 1012.84ZM430.83 1026.96L430.581 1026.79L430.269 1027.26H430.83V1026.96ZM440.27 1026.96V1027.26H440.57V1026.96H440.27ZM425.59 1030.92H425.89V1027.48H425.59H425.29V1030.92H425.59ZM425.59 1027.48L425.836 1027.65L439.276 1008.37L439.03 1008.2L438.784 1008.03L425.344 1027.31L425.59 1027.48ZM439.03 1008.2V1008.5H444.55V1008.2V1007.9H439.03V1008.2ZM444.55 1008.2H444.25V1026.96H444.55H444.85V1008.2H444.55ZM444.55 1026.96V1027.26H448.27V1026.96V1026.66H444.55V1026.96ZM448.27 1026.96H447.97V1030.92H448.27H448.57V1026.96H448.27ZM448.27 1030.92V1030.62H444.55V1030.92V1031.22H448.27V1030.92ZM444.55 1030.92H444.25V1037H444.55H444.85V1030.92H444.55ZM444.55 1037V1036.7H440.07V1037V1037.3H444.55V1037ZM440.07 1037H440.37V1030.92H440.07H439.77V1037H440.07ZM440.07 1030.92V1030.62H425.59V1030.92V1031.22H440.07V1030.92ZM440.27 1012.84L440.021 1012.67L430.581 1026.79L430.83 1026.96L431.079 1027.13L440.519 1013.01L440.27 1012.84ZM430.83 1026.96V1027.26H440.27V1026.96V1026.66H430.83V1026.96ZM440.27 1026.96H440.57V1012.84H440.27H439.97V1026.96H440.27Z" fill="black" mask="url(#path-10-outside-2_1_1252)"/>
<path d="M415.724 447.196C522.473 443.139 612.36 526.265 616.646 633.005C620.931 739.745 538 829.811 431.268 834.326C324.212 838.854 233.813 755.615 229.514 648.549C225.216 541.484 308.65 451.264 415.724 447.196Z" fill="black"/>
<path d="M392.796 464.176C401.818 462.256 411.607 462.061 420.804 462.045C456.153 461.988 488.49 470.162 518.323 489.482C558.562 515.542 588.774 559.001 598.762 605.923C603.235 626.932 603.678 647.371 600.877 668.626C600.36 672.546 599.983 677.784 598.495 681.399C597.698 686.805 595.911 692.004 594.152 697.156C589.086 712.002 582.821 725.568 574.176 738.703C572.639 741.039 570.628 744.647 568.547 746.459C565.746 751.014 561.896 755.34 558.342 759.335C545.06 774.262 530.003 787.01 512.577 796.859C470.356 820.229 420.62 826 374.17 812.919C332.567 801.093 291.538 770.38 270.297 732.46C268.657 730.749 267.313 727.662 266.145 725.579C258.017 711.064 251.503 695.254 247.851 678.994C239.541 641.989 242.749 601.626 258.331 566.973C260.662 561.788 262.931 556.544 265.979 551.731C267.662 546.453 272.396 541.316 275.184 536.473C274.947 533.068 279.701 529.833 281.247 526.915C282.328 524.872 283.439 523.056 284.93 521.274C298.026 505.611 318.223 490.304 336.529 481.311C339.002 480.095 341.288 478.29 344.121 478.132C344.263 478.124 344.405 478.127 344.549 478.126C347.377 475.676 353.076 473.268 356.826 473.409C368.345 469.656 380.638 464.919 392.796 464.176Z" fill="url(#paint0_linear_1_1252)"/>
<path d="M356.825 473.409C368.344 469.656 380.638 464.919 392.796 464.176L393.103 464.802C382.289 465.294 370.851 469.814 360.544 472.911C361.3 473.248 360.874 473.207 361.404 473.083C363.316 472.641 366.356 474.024 367.974 475.041C368.673 475.48 369.222 476.055 369.784 476.655C371.231 478.202 374.109 481.42 373.877 483.652C373.798 484.416 373.005 485.379 372.577 486.005C378.426 485.79 385.312 484.12 390.946 486.002C391.586 486.217 392.227 486.428 392.863 486.652C400.271 488.159 406.713 491.509 410.996 497.915C416.014 505.423 416.218 514.844 414.455 523.422C409.849 545.814 390.835 567.726 372.015 580.031C353.332 592.249 328.519 602.344 305.836 597.462C297.618 595.692 290.828 591.948 286.233 584.76C282.589 579.058 281.626 573.372 282.042 566.696C280.914 559.756 286.252 555.324 285.933 551.283C285.811 549.74 280.715 544.378 279.641 542.247C278.996 540.965 279.374 539.431 278.937 538.086C278.608 537.071 278.469 536.577 278.566 535.475C278.629 534.735 278.703 534.2 278.532 533.466C274.403 538.039 271.216 544.275 268.008 549.536C267.41 550.516 267.132 551.448 265.979 551.731C267.662 546.453 272.396 541.316 275.184 536.473C274.947 533.068 279.701 529.833 281.246 526.915C282.328 524.872 283.438 523.056 284.93 521.274C298.026 505.611 318.223 490.304 336.529 481.311C339.002 480.095 341.288 478.29 344.12 478.132C344.263 478.124 344.405 478.127 344.549 478.126C347.377 475.676 353.075 473.268 356.825 473.409Z" fill="#FCFDFC"/>
<path d="M356.825 473.409C368.344 469.656 380.638 464.919 392.796 464.176L393.103 464.802C382.289 465.294 370.851 469.814 360.544 472.911C361.3 473.248 360.874 473.207 361.404 473.083C363.316 472.641 366.356 474.024 367.974 475.041C368.673 475.48 369.222 476.055 369.784 476.655C371.231 478.202 374.109 481.42 373.877 483.652C373.798 484.416 373.005 485.379 372.577 486.005C378.426 485.79 385.312 484.12 390.946 486.002C391.586 486.217 392.227 486.428 392.863 486.652C386.577 486.342 380.33 486.016 374.076 486.992C352.438 490.366 328.535 506.127 312.621 520.549C299.505 532.438 285.246 548.783 282.042 566.696C280.914 559.756 286.252 555.324 285.933 551.283C285.811 549.74 280.715 544.378 279.641 542.247C278.996 540.965 279.374 539.431 278.937 538.086C278.608 537.071 278.469 536.577 278.566 535.475C278.629 534.735 278.703 534.2 278.532 533.466C274.403 538.039 271.216 544.275 268.008 549.536C267.41 550.516 267.132 551.448 265.979 551.731C267.662 546.453 272.396 541.316 275.184 536.473C274.947 533.068 279.701 529.833 281.246 526.915C282.328 524.872 283.438 523.056 284.93 521.274C298.026 505.611 318.223 490.304 336.529 481.311C339.002 480.095 341.288 478.29 344.12 478.132C344.263 478.124 344.405 478.127 344.549 478.126C347.377 475.676 353.075 473.268 356.825 473.409Z" fill="#FBEB59"/>
<path d="M275.184 536.473C274.947 533.068 279.701 529.833 281.247 526.915C282.329 524.872 283.439 523.056 284.93 521.274C298.026 505.611 318.223 490.304 336.529 481.311C339.003 480.095 341.288 478.29 344.121 478.132C344.263 478.124 344.405 478.127 344.549 478.126C347.377 475.676 353.076 473.268 356.826 473.409C330.944 485.167 309.586 497.549 289.895 518.436C287.551 520.924 275.994 535.975 275.184 536.473Z" fill="black"/>
<path d="M270.297 732.46C270.39 732.522 270.485 732.582 270.577 732.647C274.684 735.524 278.151 743.506 281.433 747.677C288.446 756.591 295.77 765.206 304.204 772.812C317.524 784.643 332.47 794.502 348.59 802.091C351.241 803.372 353.95 804.664 356.713 805.686C358.687 806.414 360.727 806.232 362.486 807.391L364.893 808.954C365.969 808.573 366.774 808.076 367.71 807.427C372.501 807.38 378.06 806.605 382.766 807.35C385.885 807.843 389.204 809.526 392.201 810.573C402.692 814.241 409.746 812.612 419.798 808.636C420.958 807.399 420.851 805.093 422.842 804.989C426.491 804.794 430.972 805.303 434.592 805.919C436.468 805.134 437.6 803.146 439.335 802.434C441.809 801.419 447.655 803.847 449.182 801.185C446.74 800.372 430.108 804.223 425.455 803.494C423.679 803.217 420.61 799.41 419.889 797.819C419.345 796.617 419.307 795.01 419.75 793.781L420.217 793.451C420.364 795.855 420.378 797.791 422.078 799.681C423.957 801.768 426.548 802.379 429.256 802.448C434.696 802.591 440.545 801.367 445.912 800.541C476.155 795.896 502.976 782.727 525.886 762.516C530.188 758.649 534.272 754.545 538.118 750.224C540.125 747.929 542.022 745.185 544.255 743.128L544.642 742.779C544.506 747.581 529.543 757.936 529.397 761.255C530.778 761.725 533.168 762.125 534.523 761.462C537.338 760.088 539.018 756.093 540.886 755.134C542.123 754.499 544.383 754.738 545.806 754.214C548.018 753.403 553.045 748.729 555.211 747.011C555.432 747.701 555.208 747.992 555.008 748.672L555.326 748.447C556.15 747.87 556.9 747.434 557.806 747.003C559.102 746.388 559.766 745.368 560.569 744.234L561.444 743.91L562.073 744.359L562.205 746.175C563.467 745.525 565.007 744.455 566.453 744.558C566.826 745.058 566.954 745.414 567.093 746.021L567.791 745.049L568.079 745.699L567.815 746.205L568.547 746.459C565.746 751.014 561.896 755.34 558.342 759.335C545.06 774.263 530.003 787.01 512.577 796.859C470.355 820.229 420.62 826 374.169 812.919C332.567 801.093 291.538 770.38 270.297 732.46Z" fill="#DB9103"/>
<path d="M420.217 793.451C420.263 793.365 420.309 793.28 420.358 793.195C421.403 791.338 422.531 789.919 424.538 789.089C430.026 786.816 437.112 787.3 442.994 786.558C449.069 785.791 455.262 784.562 461.166 782.925C470.068 780.456 478.926 776.57 487.081 772.252C520.252 754.859 545.547 725.479 557.819 690.092C559.522 685.24 561.243 680.294 562.35 675.263C563.538 669.866 563.046 662.461 565.917 657.728C566.853 656.184 568.212 655.282 569.974 654.919C571.751 654.566 573.596 654.934 575.101 655.947C576.673 656.987 577.901 658.751 578.174 660.638C578.679 664.106 577.255 669.332 576.643 672.834C572.034 699.198 560.169 721.365 544.642 742.779L544.255 743.128C542.022 745.185 540.125 747.929 538.118 750.224C534.272 754.545 530.188 758.649 525.886 762.516C502.976 782.727 476.155 795.896 445.912 800.541C440.545 801.367 434.696 802.591 429.256 802.449C426.548 802.379 423.957 801.768 422.078 799.681C420.378 797.791 420.364 795.855 420.217 793.451Z" fill="black"/>
<path d="M568.079 745.698C570.115 743.726 569.911 741.368 571.23 739.192C572.089 737.778 574.122 737.303 575.04 735.899C580.106 728.131 584.33 719.826 588.118 711.366C590.971 704.992 593.262 697.766 595.302 691.084C596.126 688.387 596.55 685.124 597.666 682.575C597.883 682.08 598.141 681.8 598.495 681.399C597.698 686.805 595.911 692.004 594.152 697.155C589.086 712.002 582.821 725.568 574.176 738.703C572.639 741.039 570.629 744.647 568.547 746.459L567.815 746.205L568.079 745.698Z" fill="#DB9103"/>
<path d="M283.666 603.691C292.386 602.012 300.819 607.712 302.511 616.428C304.204 625.146 298.516 633.587 289.802 635.292C281.068 637 272.606 631.299 270.911 622.563C269.215 613.828 274.93 605.374 283.666 603.691Z" fill="#FCFDFC"/>
<path d="M422.017 840.188C425.186 839.856 428.361 839.933 431.481 840.596C438.489 842.082 444.246 846.089 448.113 852.116C450.495 855.789 452.044 859.939 452.65 864.276C453.228 868.68 452.986 873.234 452.963 877.674L452.836 898.567C452.825 906.355 452.863 914.142 452.95 921.93C452.994 927.706 453.515 934.017 452.219 939.674C450.584 946.817 446.094 953.741 439.758 957.566C436.965 959.252 431.823 961.891 428.511 961.053C428.008 961.433 427.564 961.713 426.934 961.817C421.65 962.695 414.485 960.281 410.098 957.387C404.458 953.664 399.42 947.42 398.106 940.682C396.969 934.847 397.386 928.679 397.402 922.754L397.397 901.058L397.396 878.836C397.397 873.734 397.178 868.465 397.864 863.401C398.463 858.974 399.506 855.539 402.051 851.851C406.976 844.714 413.731 841.763 422.017 840.188Z" fill="black"/>
<path d="M410.871 936.574C410.205 931.806 410.574 926.545 410.568 921.723L410.549 894.745L410.512 874.32C410.509 870.695 410.123 866.458 410.821 862.915C411.479 859.573 414.053 856.497 416.785 854.567C420.579 851.887 424.054 851.447 428.574 852.203C428.734 853.353 428.898 854.469 429.161 855.6C429.356 856.437 429.318 856.829 429.039 857.633C428.451 858.052 428.052 858.294 427.344 858.452C429.42 858.658 431.968 859.858 433.289 861.534C433.395 861.669 433.465 861.827 433.552 861.974C434.785 862.879 435.859 863.523 437.442 863.262C438.2 863.137 438.695 862.844 439.32 862.417C439.944 867.809 439.698 873.352 439.707 878.776L439.744 904.705L439.777 925.618C439.775 929.53 440.025 933.775 439.438 937.64C439.094 939.908 437.937 942.064 436.511 943.843C433.977 947.003 430.263 949.314 426.181 949.675C422.311 950.016 418.484 948.174 415.622 945.657C412.813 943.189 411.382 940.258 410.871 936.574Z" fill="#FECE03"/>
<path d="M433.551 861.974C434.785 862.878 435.859 863.522 437.442 863.261C438.2 863.136 438.695 862.844 439.32 862.416C439.944 867.808 439.698 873.352 439.707 878.775L439.743 904.704L439.777 925.618C439.775 929.529 440.025 933.774 439.438 937.64C439.093 939.908 437.937 942.063 436.511 943.843C433.977 947.003 430.263 949.314 426.181 949.674C422.311 950.016 418.483 948.173 415.622 945.657C412.813 943.188 411.382 940.257 410.871 936.574C412.005 937.368 412.943 937.739 414.354 937.496C415.27 937.338 416.119 937.062 416.949 936.653C418.115 937.383 419.004 938.658 420.078 939.534C421.68 940.842 423.372 941.907 425.534 941.584C428.451 941.149 431.34 938.587 432.321 935.84C433.841 931.579 432.832 923.075 432.799 918.334C432.754 912.122 432.321 863.922 432.856 862.874C433.028 862.535 433.319 862.274 433.551 861.974Z" fill="#DB9103"/>
<path d="M410.871 936.574C410.205 931.806 410.574 926.545 410.568 921.723L410.549 894.745L410.512 874.32C410.509 870.695 410.123 866.458 410.821 862.915C411.479 859.573 414.053 856.497 416.785 854.567C420.579 851.887 424.054 851.447 428.574 852.203C428.734 853.353 428.898 854.469 429.161 855.6C429.356 856.437 429.318 856.829 429.039 857.633C428.451 858.052 428.052 858.294 427.344 858.452C424.577 859.488 420.698 860.423 419.415 863.377C417.631 867.488 418.346 911.945 418.397 920.265C418.425 924.834 419.1 930.219 418.343 934.679C418.174 935.681 417.824 936.044 417.019 936.625C416.998 936.639 416.971 936.644 416.949 936.653C416.119 937.063 415.27 937.338 414.354 937.496C412.943 937.74 412.005 937.368 410.871 936.574Z" fill="url(#paint1_linear_1_1252)"/>
<path d="M428.574 852.203C433.822 854.224 436.835 857.443 439.32 862.417C438.695 862.844 438.2 863.136 437.442 863.261C435.859 863.522 434.785 862.879 433.552 861.974C433.465 861.827 433.395 861.669 433.289 861.534C431.968 859.858 429.42 858.657 427.344 858.452C428.052 858.293 428.451 858.051 429.039 857.632C429.318 856.829 429.356 856.437 429.161 855.6C428.898 854.469 428.734 853.352 428.574 852.203Z" fill="#FBEB59"/>
<path d="M421.973 322.224C428.146 321.291 434.755 323.361 439.891 326.785C446.484 331.182 450.84 338.283 452.295 346.03C453.301 351.383 452.933 357.146 452.917 362.579L452.803 387.609L452.906 406.853C452.931 410.765 453.195 414.9 452.635 418.777C452.018 423.296 450.321 427.599 447.688 431.324C443.373 437.419 436.769 441.086 429.518 442.348C422.841 442.773 416.242 442.254 410.468 438.606C404.326 434.726 399.585 428.524 398.054 421.371C396.907 416.008 397.397 410.006 397.407 404.538L397.451 380.791C397.446 370.684 396.488 355.657 397.772 346.137C398.359 341.776 399.795 337.9 402.245 334.239C407.009 327.124 413.726 323.795 421.973 322.224Z" fill="black"/>
<path d="M410.545 417.086C410.697 400.941 410.51 384.777 410.496 368.63C410.49 362.016 409.587 350.712 411.179 344.675C412.12 341.102 414.77 338.28 417.955 336.54C421.798 334.439 425.376 334.219 429.555 335.408C429.88 337.051 430.369 338.694 430.008 340.358C429.468 340.95 429.374 341.102 428.617 341.321C430.502 342.217 433.131 343.44 433.885 345.518C435.142 346.303 436.691 347.269 438.206 347.073C439.21 346.29 439.095 346.054 439.327 344.845C439.968 350.939 439.788 357.078 439.783 363.197L439.753 388.774C439.743 397.502 440.594 410.899 439.354 419.063C438.989 421.478 438.14 423.23 436.588 425.106C434.083 428.133 430.442 429.997 426.521 430.259C422.588 430.534 418.388 429.373 415.435 426.704C412.587 424.127 411.175 420.804 410.545 417.086Z" fill="#FECE03"/>
<path d="M439.328 344.846C439.969 350.94 439.788 357.078 439.784 363.197L439.754 388.774C439.744 397.502 440.595 410.899 439.355 419.063C438.99 421.478 438.14 423.231 436.589 425.107C434.084 428.134 430.443 429.997 426.522 430.259C422.588 430.535 418.389 429.374 415.436 426.704C412.588 424.127 411.175 420.805 410.546 417.086C411.726 416.83 412.937 416.674 414.13 416.48C418.119 418.359 420.369 423.224 425.383 423.148C428.504 423.101 430.64 420.891 432.589 418.74C433.342 410.664 432.961 402.281 432.907 394.171C432.82 381.148 432.711 368.16 432.927 355.136C432.962 353.051 432.47 348.302 433.212 346.457C433.356 346.1 433.661 345.832 433.886 345.519C435.143 346.303 436.692 347.27 438.207 347.074C439.211 346.29 439.096 346.055 439.328 344.846Z" fill="#DB9103"/>
<path d="M410.545 417.086C410.697 400.941 410.51 384.777 410.496 368.63C410.49 362.016 409.587 350.712 411.179 344.675C412.12 341.102 414.77 338.28 417.955 336.54C421.798 334.439 425.376 334.219 429.555 335.408C429.88 337.051 430.369 338.694 430.008 340.358C429.468 340.95 429.374 341.102 428.617 341.321C425.371 341.847 422.012 342.563 419.99 345.447C419.005 346.854 418.7 348.464 418.537 350.138C417.972 355.973 418.494 362.213 418.531 368.083C418.591 378.149 418.458 388.219 418.586 398.284C418.64 402.571 419.665 409.57 418.175 413.485C417.501 415.256 415.832 415.985 414.129 416.479C412.936 416.674 411.725 416.83 410.545 417.086Z" fill="#FCFDFC"/>
<path d="M429.555 335.409C433.817 336.98 437.211 340.937 439.327 344.846C439.095 346.055 439.21 346.29 438.206 347.074C436.691 347.27 435.142 346.303 433.885 345.519C433.131 343.44 430.502 342.217 428.617 341.321C429.374 341.103 429.468 340.95 430.009 340.358C430.369 338.694 429.88 337.051 429.555 335.409Z" fill="#FBEB59"/>
<path d="M312.768 812.897C318.606 812.194 324.061 813.047 329.124 816.131C335.416 819.963 340.496 826.06 342.174 833.311C343.107 837.337 343.216 842.09 342.142 846.101C339.708 855.187 327.602 871.23 321.984 880.087C315.598 890.155 302.692 911.966 293.787 918.305C290.082 920.943 286.264 922.112 281.868 923.096C275.479 923.341 269.801 923.241 264.131 919.861C258.445 916.473 253.951 910.811 252.33 904.365C250.106 895.514 253.485 886.869 258.022 879.37C264.662 868.397 272.214 857.962 279.33 847.295C285.002 838.796 291.366 826.585 298.801 819.826C302.977 816.03 307.356 814.238 312.768 812.897Z" fill="black"/>
<path d="M264.146 898.9C264.133 897.779 264.092 896.566 264.323 895.463C264.889 892.741 266.887 889.464 268.326 887.06C274.29 877.091 281.308 867.431 287.769 857.757C293.471 849.217 298.867 840.232 304.993 832.004C306.168 830.424 307.42 828.738 309.092 827.651C312.855 825.206 316.681 824.843 320.957 825.772C323.572 826.789 325.361 828.275 327.322 830.237L328.1 831.371C328.886 832.678 329.677 833.932 330.223 835.362C330.639 837.908 331.007 840.349 330.031 842.838C328.155 847.626 324.608 852.307 321.799 856.624C316.589 864.614 311.321 872.566 305.992 880.479C301.436 887.294 297.236 894.517 292.444 901.141C289.252 905.554 286.094 909.636 280.361 910.449C276.631 910.977 272.505 910.031 269.519 907.702C266.858 905.628 264.85 902.191 264.146 898.9Z" fill="#FECE03"/>
<path d="M264.146 898.9C264.133 897.779 264.092 896.566 264.323 895.463C264.889 892.741 266.887 889.464 268.326 887.06C274.29 877.091 281.308 867.431 287.769 857.757C293.471 849.217 298.867 840.232 304.993 832.004C306.168 830.424 307.42 828.738 309.092 827.651C312.855 825.206 316.681 824.843 320.957 825.772C321.119 827.362 321.538 829.103 320.769 830.566C320.002 831.209 319.352 831.169 318.403 831.209C315.684 832.63 313.404 834.108 311.446 836.508C308.129 840.575 305.88 845.5 302.984 849.862L279.506 885.089C276.543 889.586 271.421 894.987 269.911 900.176C269.885 900.267 269.87 900.358 269.849 900.45C269.718 900.534 269.601 900.651 269.454 900.702C268.181 901.127 265.417 899.439 264.146 898.9Z" fill="#FCFDFC"/>
<path d="M330.223 835.361C330.639 837.908 331.008 840.348 330.032 842.838C328.156 847.625 324.608 852.307 321.8 856.623C316.59 864.613 311.321 872.566 305.993 880.478C301.436 887.294 297.237 894.517 292.445 901.141C289.253 905.553 286.095 909.636 280.361 910.449C276.632 910.977 272.505 910.031 269.519 907.701C266.859 905.628 264.85 902.191 264.146 898.9C265.418 899.439 268.181 901.126 269.454 900.701C269.601 900.65 269.719 900.533 269.85 900.45C272.501 900.761 275.574 902.583 278.381 903.149C281.41 902.322 283.456 901.002 285.641 898.773C289.702 894.636 292.521 889.256 295.704 884.455L319.041 849.544C321.782 845.492 324.569 840.22 327.688 836.603C328.436 836.619 328.997 836.546 329.719 836.348L330.223 835.361Z" fill="url(#paint2_linear_1_1252)"/>
<path d="M320.958 825.772C323.572 826.789 325.361 828.274 327.322 830.237L328.1 831.371C328.886 832.677 329.677 833.932 330.223 835.361L329.718 836.348C328.997 836.546 328.436 836.619 327.687 836.603L325.831 834.909C324.871 834.305 323.95 833.641 323.02 832.99C321.476 832.189 320.135 831.543 318.403 831.208C319.352 831.168 320.002 831.208 320.769 830.566C321.538 829.103 321.119 827.361 320.958 825.772Z" fill="#FBEB59"/>
<path d="M328.101 831.371C328.887 832.678 329.678 833.932 330.223 835.361L329.719 836.348C328.997 836.546 328.436 836.619 327.688 836.603L325.831 834.909C327.082 833.99 327.495 832.746 328.101 831.371Z" fill="#FBEB59"/>
<path d="M323.02 832.991C324.542 832.157 325.685 830.913 327.322 830.237L328.1 831.371C327.494 832.746 327.082 833.99 325.831 834.909C324.871 834.305 323.95 833.641 323.02 832.991Z" fill="#FBEB59"/>
<path d="M568.954 360.563C575.002 359.829 580.893 360.83 586.111 364.039C592.118 367.733 596.822 373.984 598.419 380.879C600.773 391.045 596.88 398.073 591.639 406.415C584.017 418.547 575.788 430.332 567.761 442.196C563.383 448.666 559.178 457.025 553.378 462.219C549.331 465.844 544.062 467.956 538.832 469.15C531.422 469.839 525.026 468.822 518.704 464.729C513.161 461.142 508.947 455.11 507.642 448.611C506.902 444.934 507.073 440.326 508.224 436.752C511.395 426.922 520.419 415.557 526.269 406.89L546.409 376.948C552.835 367.438 557.511 362.78 568.954 360.563Z" fill="black"/>
<path d="M519.419 444.231C519.328 443.379 519.35 442.561 519.565 441.729C521.26 435.147 541.995 406.52 547.21 398.835C551.308 392.795 555.132 386.39 559.578 380.609C561.15 378.564 563.017 376.074 565.277 374.756C569.129 372.511 572.492 372.774 576.622 373.757C580.188 375.076 583.136 377.306 584.803 380.828C585.485 382.268 585.747 383.661 585.963 385.22C586.961 389.813 584.416 394.385 582.001 398.119C576.406 406.769 570.232 415.05 564.51 423.615L551.884 442.262C549.522 445.683 547.419 449.275 544.57 452.326C542.53 454.512 540.654 456.032 537.647 456.712C533.716 457.601 529.216 456.889 525.803 454.727C522.706 452.766 520.272 449.506 519.56 445.876C519.454 445.335 519.427 444.782 519.419 444.231Z" fill="#FECE03"/>
<path d="M519.419 444.231C519.328 443.379 519.35 442.561 519.565 441.729C521.26 435.147 541.995 406.52 547.21 398.835C551.308 392.795 555.132 386.39 559.578 380.609C561.15 378.564 563.017 376.074 565.277 374.756C569.129 372.511 572.492 372.774 576.622 373.757C576.818 375.223 577.305 376.981 576.693 378.368L576.028 378.969C572.718 379.725 570.594 381.066 568.241 383.481C562.325 389.554 557.691 397.658 553.044 404.714C548.899 411.009 544.543 417.183 540.368 423.468C537.926 427.142 535.019 430.506 532.692 434.253C530.236 438.21 527.998 442.735 524.62 445.99C523.043 445.925 520.944 444.806 519.419 444.231Z" fill="#FCFDFC"/>
<path d="M581.493 384.209C582.937 385.134 584.262 385.318 585.962 385.22C586.96 389.812 584.415 394.385 582 398.119C576.406 406.769 570.232 415.05 564.509 423.615L551.883 442.262C549.522 445.683 547.418 449.275 544.57 452.326C542.53 454.512 540.654 456.032 537.647 456.712C533.715 457.601 529.215 456.889 525.802 454.727C522.706 452.766 520.271 449.506 519.56 445.876C519.454 445.335 519.427 444.782 519.419 444.231C520.944 444.805 523.042 445.925 524.619 445.99C525.382 446.466 526.158 446.92 526.946 447.352C530.052 449.028 533.812 449.925 537.233 448.694C539.113 448.019 541.067 445.481 542.308 443.942C548.005 436.885 552.687 429.035 557.863 421.612L570.845 402.874C572.765 400.115 574.942 397.425 576.705 394.569C578.737 391.275 579.922 387.704 581.493 384.209Z" fill="#DB9103"/>
<path d="M576.621 373.757C580.188 375.076 583.136 377.306 584.803 380.829C585.485 382.269 585.747 383.661 585.962 385.22C584.262 385.319 582.937 385.134 581.493 384.21C581.482 384.094 581.499 383.972 581.458 383.863C580.762 381.985 577.642 380.081 576.028 378.969L576.693 378.368C577.305 376.981 576.818 375.223 576.621 373.757Z" fill="#FBEB59"/>
<path d="M528.907 812.866C535.458 812.341 540.882 812.838 546.62 816.206C549.864 818.111 552.467 820.679 554.842 823.578C560.835 830.89 565.835 839.469 571.163 847.312C579.277 859.252 588.18 871.288 595.226 883.882C596.578 886.299 597.79 888.912 598.467 891.607C600.007 897.739 598.59 905.474 595.276 910.803C591.076 917.56 585.013 921.02 577.461 922.828C571.963 924.109 565.121 922.651 560.196 920.065C556.579 918.165 553.835 915.693 551.213 912.584C545.092 905.324 540.124 896.59 534.835 888.681C527.256 877.344 519.062 866.132 512.299 854.293C510.548 851.228 508.969 847.875 507.96 844.487C506.189 838.542 507.585 831.422 510.575 826.109C514.649 818.868 521.099 814.993 528.907 812.866Z" fill="black"/>
<path d="M519.43 837.689C519.302 836.832 519.437 835.992 519.677 835.165C520.727 831.45 523.27 828.336 526.699 826.563C529.698 825.003 532.387 824.499 535.643 825.489C538.649 826.325 540.814 827.931 542.892 830.203C545.839 833.425 548.263 837.351 550.734 840.949C555.07 847.283 559.374 853.64 563.644 860.018C570.295 869.837 578.118 879.836 583.913 890.107C584.539 891.217 585.059 892.382 585.548 893.558C585.746 894.564 585.953 895.589 586.008 896.614C586.197 900.154 584.865 903.894 582.415 906.496C580.19 908.859 576.814 909.974 573.632 910.121C570.343 910.274 566.466 909.483 563.995 907.201C557.837 901.507 550.982 889.036 546.025 881.645L529.564 856.917C526.799 852.696 523.761 848.519 521.382 844.065C520.237 841.92 519.536 840.139 519.43 837.689Z" fill="#FECE03"/>
<path d="M519.43 837.69C520.73 838.478 522.046 839.495 523.59 839.642C524.053 839.449 524.537 839.286 524.963 839.017C527.122 840.311 528.23 844.07 529.647 846.167C532.284 850.072 535.227 853.764 537.859 857.689C542.637 864.816 562.972 897.007 568.204 900.923C570.189 902.408 573.561 902.971 575.944 902.326C579.136 901.461 579.919 896.852 582.246 894.878C583.231 894.04 584.631 894.549 585.548 893.559C585.746 894.565 585.953 895.59 586.008 896.615C586.197 900.154 584.865 903.895 582.415 906.497C580.19 908.859 576.814 909.974 573.632 910.122C570.342 910.275 566.466 909.484 563.995 907.202C557.837 901.508 550.982 889.037 546.025 881.646L529.564 856.918C526.799 852.696 523.761 848.519 521.382 844.065C520.237 841.921 519.536 840.14 519.43 837.69Z" fill="#DB9103"/>
<path d="M519.43 837.689C519.302 836.832 519.437 835.992 519.677 835.165C520.727 831.45 523.27 828.336 526.699 826.563C529.698 825.003 532.387 824.499 535.643 825.489C535.887 826.953 536.112 828.421 536.319 829.892C530.957 832.358 528.205 834.091 524.963 839.016C524.537 839.285 524.053 839.448 523.59 839.641C522.046 839.494 520.73 838.477 519.43 837.689Z" fill="#FCFDFC"/>
<path d="M273.838 360.563C280.103 359.796 286.17 360.862 291.6 364.132C295.045 366.207 298.05 368.967 300.593 372.071C305.42 377.964 309.184 385.103 313.483 391.437C321.81 403.705 331.449 416.717 338.83 429.408C340.181 431.728 341.304 434.175 341.944 436.788C343.536 443.279 342.602 450.526 339.082 456.24C334.786 463.217 327.715 466.516 320.004 468.324C313.096 469.502 306.137 467.622 300.278 463.861C297.59 462.133 295.462 459.853 293.52 457.33C291.032 454.102 288.965 450.521 286.76 447.097L275.044 429.074C268.553 419.199 261.072 409.451 255.387 399.108C254.019 396.618 252.911 393.945 252.316 391.162C250.924 384.651 252.202 377.468 255.898 371.918C260.39 365.174 266.049 362.095 273.838 360.563Z" fill="black"/>
<path d="M264.286 386.277C264.964 383.021 265.72 379.965 267.892 377.334C270.161 374.585 273.673 372.872 277.23 372.699C281.626 372.486 284.696 374.528 287.85 377.247C290.374 380.37 293.503 384.212 295.227 387.843L317.826 421.372C321.746 427.229 326.541 433.341 329.459 439.743C329.674 440.173 329.882 440.583 330.021 441.043C330.799 443.634 330.176 446.628 328.831 448.915C326.861 452.268 323.223 455.466 319.386 456.296C315.614 457.112 311.919 456.034 308.731 454.022C306.705 452.744 305.374 451.06 303.968 449.152C297.557 440.445 292.016 430.755 286.058 421.696C280.127 412.677 273.589 403.985 268.112 394.682C266.538 392.009 264.983 389.325 264.286 386.277Z" fill="#FECE03"/>
<path d="M264.286 386.277C265.723 386.697 267.22 387.049 268.578 387.685C270.252 388.205 271.607 389.579 272.727 390.886C276.341 395.105 279.324 400.244 282.411 404.865L298.876 429.728C302.577 435.43 306.426 443.392 312.033 447.331C314.655 449.172 317.596 449.683 320.476 448.062C324.302 445.908 325.056 441.476 329.459 439.743C329.674 440.173 329.882 440.583 330.021 441.043C330.799 443.634 330.176 446.628 328.831 448.915C326.861 452.268 323.223 455.466 319.386 456.296C315.614 457.112 311.919 456.033 308.731 454.022C306.705 452.744 305.374 451.059 303.968 449.152C297.557 440.445 292.016 430.754 286.058 421.696C280.127 412.677 273.589 403.985 268.112 394.682C266.538 392.008 264.983 389.324 264.286 386.277Z" fill="#DB9103"/>
<path d="M264.286 386.277C264.964 383.021 265.72 379.965 267.892 377.334C270.161 374.585 273.673 372.872 277.23 372.699C281.626 372.486 284.696 374.528 287.85 377.247C287.153 379.419 286.506 380.47 284.473 381.554C282.242 380.346 279.779 379.38 277.238 380.246C273.296 381.59 271.439 386.311 268.578 387.686C267.22 387.05 265.723 386.697 264.286 386.277Z" fill="#FCFDFC"/>
<path d="M287.85 377.247C290.374 380.37 293.503 384.212 295.227 387.843C294.883 389.164 294.539 389.98 293.634 391.01L293.022 391.027C290.132 387.907 287.398 384.638 284.473 381.554C286.506 380.47 287.152 379.418 287.85 377.247Z" fill="#FBEB59"/>
<path d="M657.311 446.771C663.221 446.153 668.504 447.489 673.397 450.887C679.619 455.206 683.905 461.474 685.213 468.955C686.303 475.187 685.101 483.572 681.302 488.765C679.099 491.73 676.59 494.457 673.818 496.901C665.903 503.975 657.013 510.268 648.722 516.932C640.468 523.563 630.773 532.408 621.968 537.858C618.374 540.083 614.711 541.564 610.536 542.233C605.056 542.649 599.276 540.616 594.745 537.627C588.746 533.67 583.796 527.196 582.41 520.068C581.225 513.976 582.121 505.696 585.693 500.467C587.903 497.231 590.973 494.25 593.908 491.677C602.876 483.81 612.919 476.833 622.333 469.467L637.123 458.018C640.158 455.625 643.155 452.891 646.437 450.846C649.866 448.706 653.355 447.469 657.311 446.771Z" fill="black"/>
<path d="M593.869 515.836C593.932 514.088 593.987 512.299 594.55 510.628C595.349 508.258 596.79 506.352 598.582 504.64C601.483 501.867 604.847 499.567 607.997 497.092C614.309 492.075 620.65 487.093 627.018 482.147C633.74 476.893 649.53 462.765 656.512 459.752C659.316 458.543 661.195 458.917 663.876 459.983C667.863 461.762 670.547 464.324 672.334 468.356C673.667 473.423 673.889 477.015 671.186 481.698C669.815 484.074 667.632 486.062 665.581 487.851C662.226 490.778 658.55 493.388 655.049 496.143C648.835 501.122 642.59 506.065 636.319 510.972C630.312 515.667 624.596 520.894 618.434 525.356C616.642 526.652 614.602 528.152 612.44 528.729C608.514 529.779 604.348 528.973 600.945 526.833C597.94 524.946 595.109 521.745 594.198 518.256C593.992 517.47 593.922 516.644 593.869 515.836Z" fill="#FECE03"/>
<path d="M593.869 515.836C593.932 514.088 593.987 512.299 594.55 510.628C595.349 508.258 596.79 506.352 598.582 504.64C601.483 501.867 604.847 499.567 607.997 497.092C614.309 492.075 620.65 487.093 627.018 482.147C633.74 476.893 649.53 462.765 656.512 459.752C659.316 458.543 661.195 458.917 663.876 459.983C664.005 461.776 664.594 464.454 663.254 465.877C662.791 466.371 662.1 466.434 661.467 466.616C654.737 469.572 648.823 475.614 643.098 480.177L619.361 498.995C614.67 502.746 609.601 506.123 605.06 510.046C602.471 512.282 600.192 514.733 597.998 517.353C596.682 516.74 595.238 516.318 593.869 515.836Z" fill="#FCFDFC"/>
<path d="M672.334 468.356C673.667 473.423 673.889 477.015 671.186 481.698C669.815 484.074 667.632 486.062 665.581 487.851C662.226 490.779 658.55 493.388 655.049 496.143C648.835 501.122 642.59 506.065 636.319 510.973C630.312 515.667 624.596 520.894 618.434 525.356C616.642 526.653 614.602 528.152 612.44 528.729C608.514 529.78 604.348 528.973 600.945 526.833C597.94 524.946 595.109 521.745 594.198 518.256C593.992 517.47 593.922 516.644 593.869 515.836C595.238 516.318 596.682 516.741 597.998 517.353C599.921 518.654 601.974 520.2 604.075 521.187C605.791 521.992 608.091 522.199 609.867 521.462C617.277 518.387 638.611 499.862 646.067 494.016C652.338 489.1 659.67 484.643 665.198 478.912C667.474 476.553 668.489 473.381 669.799 470.452C670.648 469.759 671.493 469.06 672.334 468.356Z" fill="#DB9103"/>
<path d="M663.876 459.983C667.863 461.762 670.547 464.324 672.335 468.356C671.493 469.06 670.649 469.759 669.799 470.452C667.167 469.121 664.55 466.531 661.467 466.616C662.1 466.434 662.791 466.371 663.255 465.878C664.594 464.454 664.006 461.776 663.876 459.983Z" fill="#FBEB59"/>
<path d="M238.15 746.851C243.873 746.25 249.423 747.391 254.327 750.476C260.496 754.358 265.919 761.507 267.444 768.69C268.657 774.405 267.969 782.382 264.696 787.333C262.699 790.352 260.214 793.155 257.559 795.608C249.103 803.423 239.31 810.303 230.254 817.423C223.719 822.562 213.195 831.616 206.348 835.586C202.792 837.649 199.111 838.81 195.107 839.643C189.34 840.325 183.602 839.273 178.521 836.417C172.652 833.119 168.138 827.226 166.394 820.724C164.812 814.824 165.34 805.762 168.508 800.424C170.659 796.799 174.037 793.517 177.141 790.711C184.466 784.089 192.741 778.261 200.458 772.081C206.245 767.39 212.081 762.761 217.964 758.191C221.339 755.56 224.717 752.689 228.386 750.478C231.469 748.62 234.675 747.699 238.15 746.851Z" fill="black"/>
<path d="M177.704 814.01C177.582 813.053 177.636 812.179 177.808 811.225C178.234 808.865 179.435 806.528 181.06 804.769C184.778 800.747 189.456 797.533 193.713 794.099C200.744 788.314 207.836 782.601 214.985 776.961C221.525 771.761 227.931 765.694 234.872 761.112C237.881 759.127 240.941 758.766 244.401 759.481C248.431 760.625 251.838 762.967 253.877 766.704C254.188 767.27 254.473 767.851 254.729 768.444C255.816 772.725 256.331 777.339 253.788 781.282C252.32 783.558 249.915 785.682 247.882 787.452C241.5 793.007 234.423 797.935 227.818 803.255L212.28 815.639C208.584 818.621 204.972 821.833 201.06 824.522C199.262 825.757 197.52 826.937 195.32 827.302C191.152 828.022 186.872 826.98 183.5 824.424C180.551 822.173 178.317 818.744 177.82 815.043C177.775 814.7 177.736 814.355 177.704 814.01Z" fill="#FECE03"/>
<path d="M254.729 768.443C255.816 772.725 256.331 777.338 253.788 781.281C252.32 783.557 249.915 785.681 247.882 787.451C241.5 793.006 234.423 797.934 227.818 803.255L212.28 815.639C208.584 818.62 204.972 821.832 201.06 824.521C199.262 825.756 197.52 826.936 195.32 827.302C191.152 828.021 186.872 826.979 183.5 824.423C180.551 822.172 178.316 818.743 177.82 815.043C177.775 814.699 177.736 814.354 177.704 814.01C179.151 814.413 180.587 814.81 182.001 815.324C184.83 817.016 188.743 820.486 192.182 820.173C198.323 819.615 228.24 793.64 234.618 788.505C238.311 785.53 242.754 782.828 246.082 779.512C248.581 777.02 249.496 773.533 251.708 770.982C251.824 770.849 251.942 770.719 252.061 770.588C253.157 770.068 253.878 769.294 254.729 768.443Z" fill="#DB9103"/>
<path d="M177.704 814.01C177.582 813.053 177.636 812.179 177.808 811.225C178.234 808.865 179.435 806.528 181.06 804.769C184.778 800.747 189.456 797.533 193.713 794.099C200.744 788.314 207.836 782.601 214.985 776.961C221.525 771.761 227.931 765.694 234.872 761.112C237.881 759.127 240.941 758.766 244.401 759.481C244.871 760.958 245.682 762.662 245.307 764.207C244.829 764.65 244.544 764.92 243.903 765.077C235.718 769.951 226.133 778.745 218.523 784.837C207.698 793.503 196.219 801.854 185.883 811.075C184.406 812.392 183.086 813.659 182.001 815.325C180.588 814.811 179.151 814.414 177.704 814.01Z" fill="#FCFDFC"/>
<path d="M244.401 759.48C248.431 760.623 251.838 762.966 253.877 766.703C254.188 767.269 254.473 767.85 254.729 768.443C253.878 769.294 253.157 770.067 252.061 770.588C250.018 768.683 246.6 765.694 243.903 765.076C244.544 764.919 244.829 764.649 245.307 764.206C245.682 762.661 244.871 760.957 244.401 759.48Z" fill="#FBEB59"/>
<path d="M608.108 745.367C612.447 745.39 616.247 746.219 620.11 748.253C627.048 751.905 634.047 758.643 640.278 763.604C650.378 771.647 660.667 779.493 670.622 787.713C678.617 794.313 684.484 800.94 685.433 811.681C686.033 818.466 684.054 825.001 679.662 830.212C674.825 835.954 668.004 838.729 660.64 839.41C655.865 839.134 651.405 837.837 647.184 835.582C639.506 831.481 632.454 824.734 625.617 819.342C615.597 811.44 605.369 803.792 595.477 795.729C588.434 789.987 582.989 784.352 582.091 774.926C581.392 767.607 583.255 760.702 587.962 755.026C593.453 748.403 599.745 746.132 608.108 745.367Z" fill="black"/>
<path d="M593.858 770.98C594.132 767.009 595.887 763.612 598.905 761.003C601.551 758.716 604.776 757.372 608.323 757.641C615.502 758.185 621.921 765.002 627.274 769.301C629.311 770.936 631.795 772.494 633.506 774.454C633.534 774.487 633.553 774.526 633.577 774.563C636.199 776.578 646.461 784.005 647.802 786.072C654.47 790.937 667.485 799.857 671.411 806.73L672.61 810.105L673.5 813.208C672.583 816.844 671.501 820.26 668.869 823.052C666.571 825.489 663.628 826.659 660.305 826.718C657.679 826.765 655.898 825.772 653.703 824.453C644.81 819.104 636.775 811.75 628.548 805.422C622.234 800.594 615.959 795.717 609.722 790.79C606.119 787.976 602.153 785.221 598.862 782.047C595.778 779.073 593.91 775.285 593.858 770.98Z" fill="#FECE03"/>
<path d="M593.858 770.98L598.625 773.321C602.21 774.912 606.153 779.205 609.348 781.721C618.724 789.107 628.372 796.13 637.797 803.448C644.123 808.36 650.398 814.326 657.439 818.17C659.013 819.028 660.26 819.716 662.054 819.071C665.984 817.656 667.477 811.541 669.749 810.628C670.617 810.279 671.659 810.605 672.61 810.105L673.5 813.208C672.583 816.844 671.501 820.26 668.869 823.052C666.571 825.489 663.628 826.66 660.305 826.718C657.679 826.766 655.898 825.772 653.703 824.453C644.81 819.104 636.775 811.75 628.548 805.422C622.234 800.595 615.959 795.717 609.722 790.79C606.119 787.976 602.153 785.221 598.862 782.047C595.778 779.074 593.91 775.286 593.858 770.98Z" fill="#DB9103"/>
<path d="M593.858 770.98C594.132 767.009 595.887 763.612 598.905 761.003C601.551 758.716 604.776 757.372 608.323 757.641C615.502 758.185 621.921 765.002 627.274 769.301C629.311 770.936 631.795 772.494 633.506 774.454C633.534 774.487 633.553 774.526 633.577 774.563C634.05 777.1 637.522 777.255 637.324 779.939C636.571 780.916 635.372 781.707 634.131 781.895C632.93 782.077 632.154 781.324 631.274 780.622C630.463 779.973 629.952 779.787 628.913 779.735C623.202 775.888 617.905 770.288 611.842 767.183C609.718 766.096 607.373 765.505 605.053 766.332C601.818 767.485 600.077 770.431 598.625 773.321L593.858 770.98Z" fill="#FCFDFC"/>
<path d="M641.248 787.72C641.946 786.52 642.493 785.144 643.817 784.559C645.408 784.671 645.983 785.615 647.272 786.499L647.802 786.072C654.47 790.937 667.485 799.858 671.411 806.73L669.246 808.789C665.842 808.887 646.706 793.628 643.136 790.371L643.546 790.001C642.831 789.193 642.028 788.465 641.248 787.72Z" fill="#FBEB59"/>
<path d="M633.577 774.562C636.199 776.577 646.461 784.005 647.802 786.072L647.272 786.499C645.983 785.615 645.407 784.671 643.816 784.558C642.492 785.143 641.945 786.52 641.248 787.72C642.027 788.465 642.831 789.192 643.546 790.001L643.136 790.371C638.477 786.725 633.455 783.527 628.913 779.734C629.952 779.787 630.463 779.973 631.274 780.622C632.153 781.324 632.93 782.077 634.13 781.895C635.372 781.707 636.571 780.916 637.324 779.938C637.521 777.254 634.05 777.099 633.577 774.562Z" fill="#F8F39E"/>
<path d="M188.155 445.979C194.915 445.313 200.994 446.436 206.825 450.017C216.426 455.914 225.576 463.035 234.73 469.627C243.107 475.659 253.11 481.6 260.134 489.15C263.102 492.341 265.385 496.179 266.367 500.443C267.854 506.895 266.242 513.411 262.729 518.916C258.57 525.436 252.735 528.945 245.339 530.638C236.793 531.816 229.753 530.098 222.57 525.461C213.917 519.878 205.655 513.665 197.274 507.687C188.281 501.275 177.272 495.007 170.24 486.391C168.15 483.828 166.724 480.129 166.061 476.909C164.696 470.266 165.996 462.783 169.791 457.137C174.284 450.453 180.442 447.429 188.155 445.979Z" fill="black"/>
<path d="M177.561 471.98C178.006 467.953 179.582 463.719 182.821 461.077C185.638 458.779 189.778 457.933 193.347 458.427C200.969 459.478 213.269 469.934 219.563 474.856C224.154 478.004 228.963 481.082 233.288 484.591C239.137 488.422 248.664 494.114 252.719 499.716L254.041 501.957C254.775 505.527 254.391 509.511 252.302 512.567C250.162 515.694 246.367 517.973 242.663 518.661C240.712 519.023 238.361 519.01 236.455 518.37C228.336 515.638 209.623 501.111 201.759 495.421C198.092 492.768 194.299 490.304 190.573 487.737C184.328 483.434 179.014 479.856 177.561 471.98Z" fill="#FECE03"/>
<path d="M177.561 471.979C179.144 472.395 180.735 472.785 182.284 473.319C185.724 475.508 188.821 478.149 192.174 480.462L221.119 500.493C226.16 504.029 231.667 508.765 237.328 511.199C239.028 511.928 240.754 512.119 242.568 511.697C247.68 510.506 247.9 503.974 253.342 505.35C254.193 504.417 253.981 503.199 254.041 501.957C254.775 505.527 254.391 509.511 252.302 512.567C250.162 515.694 246.367 517.973 242.663 518.661C240.712 519.023 238.361 519.01 236.455 518.37C228.336 515.638 209.623 501.111 201.759 495.421C198.092 492.768 194.299 490.304 190.573 487.737C184.328 483.434 179.014 479.856 177.561 471.979Z" fill="#DB9103"/>
<path d="M177.561 471.98C178.006 467.953 179.582 463.719 182.821 461.077C185.638 458.779 189.778 457.933 193.347 458.427C200.969 459.478 213.269 469.934 219.563 474.856C224.154 478.004 228.963 481.082 233.288 484.591L232.457 484.958C231.654 484.503 230.988 484.033 230.271 483.451C228.881 483.571 228.154 484.264 227.259 485.346C226.929 485.744 226.622 486.163 226.316 486.579C227.174 487.21 227.668 487.415 228.074 488.416C224.816 486.758 219.005 483.74 216.732 480.949C208.508 475.941 200.284 468.299 191.093 465.452C186.595 466.893 184.511 469.367 182.284 473.319C180.735 472.785 179.144 472.395 177.561 471.98Z" fill="#FCFDFC"/>
<path d="M219.563 474.856C224.154 478.004 228.963 481.082 233.287 484.591L232.456 484.958C231.654 484.503 230.988 484.033 230.271 483.451C228.881 483.571 228.154 484.264 227.258 485.346C226.929 485.744 226.622 486.163 226.316 486.579C227.174 487.21 227.667 487.414 228.074 488.416C224.816 486.758 219.004 483.74 216.731 480.949C217.103 480.813 217.417 480.813 217.808 480.789C218.378 481.363 218.819 481.76 219.538 482.156C219.717 481.722 219.91 481.321 220.123 480.903L221.171 480.813L221.451 481.385L220.547 482.886L220.782 482.924C222.11 481.678 223.078 480.531 224.068 479.003C221.932 477.971 221.041 477.267 219.795 475.239L219.563 474.856Z" fill="#F8F39E"/>
<path d="M228.074 488.415C227.667 487.414 227.174 487.21 226.316 486.579C226.622 486.163 226.929 485.744 227.258 485.345C228.154 484.264 228.881 483.571 230.271 483.451C230.988 484.033 231.654 484.502 232.457 484.958L233.287 484.591C239.137 488.422 248.664 494.114 252.719 499.716C252.361 500.344 252.004 501.057 251.544 501.614C251.18 502.052 250.634 502.387 250.071 502.449C247.696 502.71 230.519 490.631 228.074 488.415Z" fill="#FBEB59"/>
<path d="M650.263 617.666C660.923 617.489 671.619 617.658 682.284 617.638C690.751 617.62 700.709 616.635 708.938 618.47C713.085 619.393 717.069 621.524 720.352 624.193C725.84 628.652 729.099 634.98 729.79 642.007C730.462 648.821 728.224 656.069 723.799 661.289C718.2 667.892 710.5 670.94 702.026 671.626C690.531 672.216 679.004 672.105 667.496 672.115C659.658 672.123 650.718 672.88 643.068 671.15C638.523 670.122 634.053 667.784 630.591 664.67C625.311 659.922 621.933 652.696 621.607 645.607C621.281 638.498 624.198 631.233 629.036 626.055C635.049 619.616 641.804 617.946 650.263 617.666Z" fill="black"/>
<path d="M633.457 644.844C633.752 640.969 634.913 637.514 637.773 634.724C639.313 633.222 641.433 631.791 643.55 631.338C651.362 629.671 660.504 630.555 668.527 630.549C679.858 630.538 691.233 630.343 702.557 630.603C708.129 630.732 710.25 631.615 714.1 635.64C715.329 637.203 716.091 638.704 716.879 640.521C718.013 643.148 717.352 646.667 716.311 649.271C714.685 653.334 711.152 656.714 707.066 658.254C702.568 659.951 657.475 659.472 650.135 658.896C647.576 658.695 644.561 658.359 642.212 657.272C638.225 655.428 635.585 652.151 634.189 648.048C633.822 646.972 633.563 645.979 633.457 644.844Z" fill="#FECE03"/>
<path d="M633.457 644.844C633.752 640.969 634.913 637.514 637.773 634.724C639.313 633.222 641.433 631.791 643.55 631.338C651.362 629.671 660.504 630.555 668.527 630.549C679.858 630.538 691.233 630.343 702.557 630.603C708.129 630.732 710.25 631.615 714.1 635.64C713.904 637.051 713.681 638.46 713.431 639.863C710.361 639.574 707.263 638.84 704.196 638.678C695.419 638.218 684.562 638.833 675.528 638.837C666.471 638.84 655.741 638.117 646.875 639C645.448 639.142 644.457 639.371 643.35 640.342C641.184 642.24 640.408 645.215 638.155 647.02L633.457 644.844Z" fill="#FCFDFC"/>
<path d="M716.879 640.521C718.013 643.148 717.352 646.667 716.311 649.271C714.685 653.334 711.152 656.714 707.066 658.254C702.568 659.951 657.475 659.472 650.135 658.896C647.576 658.695 644.561 658.358 642.212 657.272C638.225 655.428 635.585 652.151 634.189 648.048C633.822 646.972 633.563 645.979 633.457 644.844L638.155 647.02C640.121 648.222 642.049 649.804 644.185 650.667C648.226 652.304 701.173 652.432 705.841 650.917C711.136 649.196 711.503 642.808 716.414 640.716L716.879 640.521Z" fill="#DB9103"/>
<path d="M144.671 608.152C144.821 608.126 144.97 608.093 145.122 608.076C153.036 607.133 161.758 607.948 169.738 607.971C179.169 608 195.124 606.94 203.915 608.739C207.923 609.559 211.693 611.57 214.875 614.103C220.485 618.57 224.381 624.635 225.108 631.852C225.881 639.528 224.586 646.588 219.555 652.6C214 659.238 207.83 661.335 199.493 662.088C189.079 662.194 178.665 662.229 168.251 662.189C158.72 662.221 148.177 663.148 138.838 661.201C134.898 660.389 131.213 658.64 128.094 656.102C122.823 651.863 118.817 645.358 118.136 638.565C117.397 631.197 119.706 624.212 124.367 618.513C129.816 611.85 136.234 608.957 144.671 608.152Z" fill="black"/>
<path d="M130.794 634.174C131.041 633.373 131.194 632.51 131.375 631.691C131.533 630.976 131.666 630.254 131.933 629.568C133.392 625.809 136.287 623.308 139.958 621.807C141.937 620.997 144.372 620.727 146.495 620.581C153.563 620.093 198.581 620.002 202.062 621.363C206.117 622.916 209.818 624.765 211.683 628.969C211.73 629.075 211.775 629.182 211.821 629.29C212.298 630.625 212.868 631.967 213.094 633.37C213.37 637.769 212.837 641.773 209.799 645.226C206.576 648.887 202.368 649.748 197.694 649.919C187.584 650.289 177.356 649.893 167.234 649.895C159.903 649.896 148.616 650.872 141.747 649.324C139.303 648.772 136.936 647.29 135.112 645.602C132.488 643.173 130.689 640.032 130.607 636.393C130.59 635.64 130.564 634.898 130.794 634.174Z" fill="#FECE03"/>
<path d="M213.094 633.37C213.37 637.769 212.837 641.773 209.799 645.226C206.576 648.887 202.368 649.748 197.694 649.919C187.584 650.289 177.356 649.893 167.234 649.895C159.903 649.896 148.616 650.872 141.747 649.324C139.303 648.772 136.936 647.29 135.112 645.602C132.488 643.173 130.689 640.032 130.607 636.393C130.59 635.64 130.564 634.898 130.794 634.174C130.96 634.707 131.016 635.429 131.529 635.709C132.268 636.111 133.102 636.135 133.922 636.222C135.575 638.026 138.511 640.468 140.727 641.516C145.107 643.586 193.414 643.227 200.448 642.635C201.814 642.52 203.058 642.221 204.356 641.78C206.94 638.89 208.167 636.609 209.38 632.913C210.322 633.361 211.177 633.709 212.192 633.959L213.094 633.37Z" fill="#DB9103"/>
<path d="M130.794 634.174C131.041 633.373 131.194 632.51 131.375 631.691C131.534 630.976 131.666 630.254 131.933 629.568C133.392 625.809 136.287 623.308 139.958 621.807C141.937 620.997 144.372 620.727 146.495 620.581C153.563 620.093 198.581 620.002 202.062 621.363C201.707 623.909 200.867 626.149 199.949 628.542C188.291 630.841 148.078 627.139 141.21 630.012C138.142 631.295 136.526 634.378 133.922 636.222C133.102 636.135 132.268 636.111 131.53 635.709C131.016 635.429 130.961 634.707 130.794 634.174Z" fill="#FCFDFC"/>
<path d="M202.062 621.363C206.117 622.916 209.818 624.765 211.683 628.969C211.73 629.075 211.775 629.182 211.82 629.29C211.657 629.472 211.49 629.65 211.318 629.826C209.187 631.993 205.691 629.328 203.271 628.747C202.215 628.493 201.03 628.543 199.948 628.542C200.867 626.149 201.707 623.909 202.062 621.363Z" fill="#FBEB59"/>
<defs>
<linearGradient id="paint0_linear_1_1252" x1="512.241" y1="780.89" x2="328.782" y2="492.838" gradientUnits="userSpaceOnUse">
<stop stop-color="#E59B00"/>
<stop offset="1" stop-color="#FFEC0B"/>
</linearGradient>
<linearGradient id="paint1_linear_1_1252" x1="433.319" y1="901.16" x2="400.417" y2="885.335" gradientUnits="userSpaceOnUse">
<stop stop-color="#F5F4C8"/>
<stop offset="1" stop-color="#FDFFFF"/>
</linearGradient>
<linearGradient id="paint2_linear_1_1252" x1="308.964" y1="877.755" x2="287.367" y2="865.34" gradientUnits="userSpaceOnUse">
<stop stop-color="#E58C00"/>
<stop offset="1" stop-color="#DA9D05"/>
</linearGradient>
</defs>
</svg>
