<svg width="849" height="1183" viewBox="0 0 849 1183" fill="none" xmlns="http://www.w3.org/2000/svg">
<rect x="5" y="5" width="839" height="1173" rx="45" fill="white"/>
<rect x="5" y="5" width="839" height="1173" rx="45" stroke="black" stroke-width="10"/>
<circle cx="786.5" cy="1124.5" r="11.5" fill="black"/>
<circle cx="786.5" cy="59.5" r="11.5" fill="black"/>
<path d="M77 1124.5C77 1130.85 71.8513 1136 65.5 1136C59.1487 1136 54 1130.85 54 1124.5C54 1118.15 59.1487 1113 65.5 1113C71.8513 1113 77 1118.15 77 1124.5Z" fill="black"/>
<path d="M77 59.5C77 65.8513 71.8513 71 65.5 71C59.1487 71 54 65.8513 54 59.5C54 53.1487 59.1487 48 65.5 48C71.8513 48 77 53.1487 77 59.5Z" fill="black"/>
<mask id="path-6-inside-1_1_4132" fill="white">
<path d="M708 48C713.523 48 717.934 52.4996 718.616 57.9801C723.122 94.1833 751.817 122.878 788.02 127.384C793.5 128.066 798 132.477 798 138V1046C798 1051.52 793.5 1055.93 788.02 1056.62C751.817 1061.12 723.122 1089.82 718.616 1126.02C717.934 1131.5 713.523 1136 708 1136H141C135.477 1136 131.066 1131.5 130.384 1126.02C125.878 1089.82 97.1833 1061.12 60.9801 1056.62C55.4996 1055.93 51 1051.52 51 1046V138C51 132.477 55.4996 128.066 60.9801 127.384C97.1833 122.878 125.878 94.1833 130.384 57.9801C131.066 52.4996 135.477 48 141 48H708Z"/>
</mask>
<path d="M708 48C713.523 48 717.934 52.4996 718.616 57.9801C723.122 94.1833 751.817 122.878 788.02 127.384C793.5 128.066 798 132.477 798 138V1046C798 1051.52 793.5 1055.93 788.02 1056.62C751.817 1061.12 723.122 1089.82 718.616 1126.02C717.934 1131.5 713.523 1136 708 1136H141C135.477 1136 131.066 1131.5 130.384 1126.02C125.878 1089.82 97.1833 1061.12 60.9801 1056.62C55.4996 1055.93 51 1051.52 51 1046V138C51 132.477 55.4996 128.066 60.9801 127.384C97.1833 122.878 125.878 94.1833 130.384 57.9801C131.066 52.4996 135.477 48 141 48H708Z" fill="#0089CB"/>
<path d="M130.384 1126.02L138.322 1125.03L130.384 1126.02ZM718.616 1126.02L710.678 1125.03L718.616 1126.02ZM788.02 1056.62L789.008 1064.56L788.02 1056.62ZM718.616 57.9801L726.555 56.9922L718.616 57.9801ZM718.616 57.9801L710.678 58.9681C715.635 98.8063 747.194 130.365 787.032 135.322L788.02 127.384L789.008 119.445C756.44 115.392 730.608 89.5603 726.555 56.9922L718.616 57.9801ZM798 138H790V1046H798H806V138H798ZM788.02 1056.62L787.032 1048.68C747.194 1053.64 715.635 1085.19 710.678 1125.03L718.616 1126.02L726.555 1127.01C730.608 1094.44 756.44 1068.61 789.008 1064.56L788.02 1056.62ZM708 1136V1128H141V1136V1144H708V1136ZM130.384 1126.02L138.322 1125.03C133.365 1085.19 101.806 1053.64 61.9681 1048.68L60.9801 1056.62L59.9922 1064.56C92.5603 1068.61 118.392 1094.44 122.445 1127.01L130.384 1126.02ZM51 1046H59V138H51H43V1046H51ZM60.9801 127.384L61.9681 135.322C101.806 130.365 133.365 98.8063 138.322 58.9681L130.384 57.9801L122.445 56.9922C118.392 89.5603 92.5603 115.392 59.9922 119.445L60.9801 127.384ZM141 48V56H708V48V40H141V48ZM130.384 57.9801L138.322 58.9681C138.438 58.0389 138.872 57.2306 139.427 56.6958C139.954 56.1887 140.494 56 141 56V48V40C130.84 40 123.547 48.1329 122.445 56.9922L130.384 57.9801ZM51 138H59C59 137.494 59.1887 136.954 59.6958 136.427C60.2306 135.872 61.0389 135.438 61.9681 135.322L60.9801 127.384L59.9922 119.445C51.1329 120.547 43 127.84 43 138H51ZM60.9801 1056.62L61.9681 1048.68C61.0389 1048.56 60.2306 1048.13 59.6958 1047.57C59.1887 1047.05 59 1046.51 59 1046H51H43C43 1056.16 51.1329 1063.45 59.9922 1064.56L60.9801 1056.62ZM141 1136V1128C140.494 1128 139.954 1127.81 139.427 1127.3C138.872 1126.77 138.438 1125.96 138.322 1125.03L130.384 1126.02L122.445 1127.01C123.547 1135.87 130.84 1144 141 1144V1136ZM718.616 1126.02L710.678 1125.03C710.562 1125.96 710.128 1126.77 709.573 1127.3C709.046 1127.81 708.506 1128 708 1128V1136V1144C718.16 1144 725.453 1135.87 726.555 1127.01L718.616 1126.02ZM798 1046H790C790 1046.51 789.811 1047.05 789.304 1047.57C788.769 1048.13 787.961 1048.56 787.032 1048.68L788.02 1056.62L789.008 1064.56C797.867 1063.45 806 1056.16 806 1046H798ZM788.02 127.384L787.032 135.322C787.961 135.438 788.769 135.872 789.304 136.427C789.811 136.954 790 137.494 790 138H798H806C806 127.84 797.867 120.547 789.008 119.445L788.02 127.384ZM718.616 57.9801L726.555 56.9922C725.453 48.1329 718.16 40 708 40V48V56C708.506 56 709.046 56.1887 709.573 56.6958C710.128 57.2306 710.562 58.0389 710.678 58.9681L718.616 57.9801Z" fill="black" mask="url(#path-6-inside-1_1_4132)"/>
<path d="M690 102C695.523 102 699.911 106.512 700.837 111.957C705.019 136.563 724.437 155.981 749.043 160.163C754.488 161.089 759 165.477 759 171V1014C759 1019.52 754.488 1023.91 749.043 1024.84C724.711 1028.97 705.454 1048 700.984 1072.22C699.993 1077.59 695.633 1082 690.175 1082H158.825C153.367 1082 149.007 1077.59 148.016 1072.22C143.546 1048 124.288 1028.97 99.9568 1024.84C94.5121 1023.91 90 1019.52 90 1014V171C90 165.477 94.512 161.089 99.9568 160.163C124.563 155.981 143.981 136.563 148.163 111.957C149.089 106.512 153.477 102 159 102H690Z" fill="#4BADDC"/>
<mask id="path-9-outside-2_1_4132" maskUnits="userSpaceOnUse" x="419" y="1006" width="22" height="32" fill="black">
<rect fill="white" x="419" y="1006" width="22" height="32"/>
<path d="M435.08 1014.6C434.787 1013.37 434.253 1012.45 433.48 1011.84C432.707 1011.23 431.627 1010.92 430.24 1010.92C428.133 1010.92 426.56 1011.73 425.52 1013.36C424.48 1014.96 423.933 1017.63 423.88 1021.36C424.573 1020.19 425.587 1019.28 426.92 1018.64C428.253 1018 429.693 1017.68 431.24 1017.68C433 1017.68 434.547 1018.07 435.88 1018.84C437.24 1019.59 438.293 1020.68 439.04 1022.12C439.813 1023.56 440.2 1025.28 440.2 1027.28C440.2 1029.15 439.827 1030.81 439.08 1032.28C438.36 1033.75 437.28 1034.91 435.84 1035.76C434.4 1036.59 432.667 1037 430.64 1037C427.893 1037 425.733 1036.4 424.16 1035.2C422.613 1033.97 421.52 1032.25 420.88 1030.04C420.267 1027.83 419.96 1025.07 419.96 1021.76C419.96 1012 423.4 1007.12 430.28 1007.12C432.947 1007.12 435.04 1007.84 436.56 1009.28C438.107 1010.72 439.013 1012.49 439.28 1014.6H435.08ZM430.24 1021.52C428.613 1021.52 427.227 1022.01 426.08 1023C424.96 1023.96 424.4 1025.36 424.4 1027.2C424.4 1029.04 424.92 1030.51 425.96 1031.6C427.027 1032.67 428.507 1033.2 430.4 1033.2C432.08 1033.2 433.4 1032.68 434.36 1031.64C435.347 1030.6 435.84 1029.21 435.84 1027.48C435.84 1025.67 435.36 1024.23 434.4 1023.16C433.467 1022.07 432.08 1021.52 430.24 1021.52Z"/>
</mask>
<path d="M435.08 1014.6C434.787 1013.37 434.253 1012.45 433.48 1011.84C432.707 1011.23 431.627 1010.92 430.24 1010.92C428.133 1010.92 426.56 1011.73 425.52 1013.36C424.48 1014.96 423.933 1017.63 423.88 1021.36C424.573 1020.19 425.587 1019.28 426.92 1018.64C428.253 1018 429.693 1017.68 431.24 1017.68C433 1017.68 434.547 1018.07 435.88 1018.84C437.24 1019.59 438.293 1020.68 439.04 1022.12C439.813 1023.56 440.2 1025.28 440.2 1027.28C440.2 1029.15 439.827 1030.81 439.08 1032.28C438.36 1033.75 437.28 1034.91 435.84 1035.76C434.4 1036.59 432.667 1037 430.64 1037C427.893 1037 425.733 1036.4 424.16 1035.2C422.613 1033.97 421.52 1032.25 420.88 1030.04C420.267 1027.83 419.96 1025.07 419.96 1021.76C419.96 1012 423.4 1007.12 430.28 1007.12C432.947 1007.12 435.04 1007.84 436.56 1009.28C438.107 1010.72 439.013 1012.49 439.28 1014.6H435.08ZM430.24 1021.52C428.613 1021.52 427.227 1022.01 426.08 1023C424.96 1023.96 424.4 1025.36 424.4 1027.2C424.4 1029.04 424.92 1030.51 425.96 1031.6C427.027 1032.67 428.507 1033.2 430.4 1033.2C432.08 1033.2 433.4 1032.68 434.36 1031.64C435.347 1030.6 435.84 1029.21 435.84 1027.48C435.84 1025.67 435.36 1024.23 434.4 1023.16C433.467 1022.07 432.08 1021.52 430.24 1021.52Z" fill="black"/>
<path d="M435.08 1014.6L434.788 1014.67L434.843 1014.9H435.08V1014.6ZM433.48 1011.84L433.666 1011.6L433.48 1011.84ZM425.52 1013.36L425.772 1013.52L425.773 1013.52L425.52 1013.36ZM423.88 1021.36L423.58 1021.36L423.564 1022.48L424.138 1021.51L423.88 1021.36ZM435.88 1018.84L435.729 1019.1L435.736 1019.1L435.88 1018.84ZM439.04 1022.12L438.774 1022.26L438.776 1022.26L439.04 1022.12ZM439.08 1032.28L438.813 1032.14L438.811 1032.15L439.08 1032.28ZM435.84 1035.76L435.989 1036.02L435.993 1036.02L435.84 1035.76ZM424.16 1035.2L423.974 1035.44L423.978 1035.44L424.16 1035.2ZM420.88 1030.04L420.591 1030.12L420.592 1030.12L420.88 1030.04ZM436.56 1009.28L436.354 1009.5L436.356 1009.5L436.56 1009.28ZM439.28 1014.6V1014.9H439.62L439.578 1014.56L439.28 1014.6ZM426.08 1023L426.275 1023.23L426.276 1023.23L426.08 1023ZM425.96 1031.6L425.743 1031.81L425.748 1031.81L425.96 1031.6ZM434.36 1031.64L434.142 1031.43L434.14 1031.44L434.36 1031.64ZM434.4 1023.16L434.172 1023.35L434.177 1023.36L434.4 1023.16ZM435.08 1014.6L435.372 1014.53C435.067 1013.26 434.506 1012.27 433.666 1011.6L433.48 1011.84L433.294 1012.08C434.001 1012.64 434.506 1013.49 434.788 1014.67L435.08 1014.6ZM433.48 1011.84L433.666 1011.6C432.822 1010.94 431.667 1010.62 430.24 1010.62V1010.92V1011.22C431.586 1011.22 432.591 1011.52 433.294 1012.08L433.48 1011.84ZM430.24 1010.92V1010.62C428.042 1010.62 426.368 1011.48 425.267 1013.2L425.52 1013.36L425.773 1013.52C426.752 1011.99 428.225 1011.22 430.24 1011.22V1010.92ZM425.52 1013.36L425.268 1013.2C424.18 1014.87 423.634 1017.61 423.58 1021.36L423.88 1021.36L424.18 1021.36C424.233 1017.64 424.78 1015.05 425.772 1013.52L425.52 1013.36ZM423.88 1021.36L424.138 1021.51C424.799 1020.39 425.765 1019.53 427.05 1018.91L426.92 1018.64L426.79 1018.37C425.408 1019.03 424.348 1019.98 423.622 1021.21L423.88 1021.36ZM426.92 1018.64L427.05 1018.91C428.341 1018.29 429.736 1017.98 431.24 1017.98V1017.68V1017.38C429.651 1017.38 428.166 1017.71 426.79 1018.37L426.92 1018.64ZM431.24 1017.68V1017.98C432.955 1017.98 434.448 1018.36 435.729 1019.1L435.88 1018.84L436.031 1018.58C434.645 1017.78 433.045 1017.38 431.24 1017.38V1017.68ZM435.88 1018.84L435.736 1019.1C437.041 1019.82 438.053 1020.87 438.774 1022.26L439.04 1022.12L439.306 1021.98C438.534 1020.49 437.439 1019.35 436.024 1018.58L435.88 1018.84ZM439.04 1022.12L438.776 1022.26C439.521 1023.65 439.9 1025.32 439.9 1027.28H440.2H440.5C440.5 1025.24 440.106 1023.47 439.304 1021.98L439.04 1022.12ZM440.2 1027.28H439.9C439.9 1029.11 439.535 1030.72 438.813 1032.14L439.08 1032.28L439.347 1032.42C440.118 1030.9 440.5 1029.19 440.5 1027.28H440.2ZM439.08 1032.28L438.811 1032.15C438.117 1033.56 437.078 1034.68 435.687 1035.5L435.84 1035.76L435.993 1036.02C437.482 1035.14 438.603 1033.93 439.349 1032.41L439.08 1032.28ZM435.84 1035.76L435.691 1035.5C434.305 1036.3 432.626 1036.7 430.64 1036.7V1037V1037.3C432.708 1037.3 434.495 1036.88 435.989 1036.02L435.84 1035.76ZM430.64 1037V1036.7C427.934 1036.7 425.846 1036.11 424.342 1034.96L424.16 1035.2L423.978 1035.44C425.621 1036.69 427.853 1037.3 430.64 1037.3V1037ZM424.16 1035.2L424.346 1034.96C422.856 1033.78 421.794 1032.12 421.168 1029.96L420.88 1030.04L420.592 1030.12C421.246 1032.39 422.37 1034.16 423.974 1035.44L424.16 1035.2ZM420.88 1030.04L421.169 1029.96C420.565 1027.78 420.26 1025.05 420.26 1021.76H419.96H419.66C419.66 1025.08 419.968 1027.87 420.591 1030.12L420.88 1030.04ZM419.96 1021.76H420.26C420.26 1016.91 421.117 1013.32 422.785 1010.95C424.44 1008.61 426.92 1007.42 430.28 1007.42V1007.12V1006.82C426.76 1006.82 424.08 1008.07 422.295 1010.61C420.523 1013.12 419.66 1016.85 419.66 1021.76H419.96ZM430.28 1007.12V1007.42C432.892 1007.42 434.903 1008.12 436.354 1009.5L436.56 1009.28L436.766 1009.06C435.177 1007.56 433.002 1006.82 430.28 1006.82V1007.12ZM436.56 1009.28L436.356 1009.5C437.851 1010.89 438.724 1012.6 438.982 1014.64L439.28 1014.6L439.578 1014.56C439.302 1012.39 438.363 1010.55 436.764 1009.06L436.56 1009.28ZM439.28 1014.6V1014.3H435.08V1014.6V1014.9H439.28V1014.6ZM430.24 1021.52V1021.22C428.547 1021.22 427.09 1021.74 425.884 1022.77L426.08 1023L426.276 1023.23C427.364 1022.29 428.679 1021.82 430.24 1021.82V1021.52ZM426.08 1023L425.885 1022.77C424.682 1023.8 424.1 1025.3 424.1 1027.2H424.4H424.7C424.7 1025.42 425.238 1024.12 426.275 1023.23L426.08 1023ZM424.4 1027.2H424.1C424.1 1029.1 424.638 1030.65 425.743 1031.81L425.96 1031.6L426.177 1031.39C425.202 1030.37 424.7 1028.98 424.7 1027.2H424.4ZM425.96 1031.6L425.748 1031.81C426.884 1032.95 428.449 1033.5 430.4 1033.5V1033.2V1032.9C428.565 1032.9 427.169 1032.38 426.172 1031.39L425.96 1031.6ZM430.4 1033.2V1033.5C432.147 1033.5 433.553 1032.96 434.58 1031.84L434.36 1031.64L434.14 1031.44C433.247 1032.4 432.013 1032.9 430.4 1032.9V1033.2ZM434.36 1031.64L434.578 1031.85C435.628 1030.74 436.14 1029.27 436.14 1027.48H435.84H435.54C435.54 1029.15 435.065 1030.46 434.142 1031.43L434.36 1031.64ZM435.84 1027.48H436.14C436.14 1025.61 435.645 1024.09 434.623 1022.96L434.4 1023.16L434.177 1023.36C435.075 1024.36 435.54 1025.72 435.54 1027.48H435.84ZM434.4 1023.16L434.628 1022.97C433.623 1021.79 432.141 1021.22 430.24 1021.22V1021.52V1021.82C432.019 1021.82 433.311 1022.35 434.172 1023.35L434.4 1023.16Z" fill="black" mask="url(#path-9-outside-2_1_4132)"/>
<path d="M367.13 233.99C371.47 234.97 374.9 237.14 377.42 240.5C380.01 243.79 381.305 247.57 381.305 251.84C381.305 258.14 379.135 263.075 374.795 266.645C370.455 270.215 364.365 272 356.525 272H319.88V197.975H355.37C362.93 197.975 368.845 199.655 373.115 203.015C377.455 206.375 379.625 211.1 379.625 217.19C379.625 221.53 378.47 225.17 376.16 228.11C373.92 230.98 370.91 232.94 367.13 233.99ZM340.46 227.375H350.855C356.035 227.375 358.625 225.24 358.625 220.97C358.625 216.56 356.035 214.355 350.855 214.355H340.46V227.375ZM352.43 255.41C357.61 255.41 360.2 253.24 360.2 248.9C360.2 246.66 359.5 244.945 358.1 243.755C356.77 242.565 354.845 241.97 352.325 241.97H340.46V255.41H352.43ZM400.719 207.635C397.079 207.635 394.139 206.655 391.899 204.695C389.729 202.665 388.644 200.145 388.644 197.135C388.644 194.055 389.729 191.5 391.899 189.47C394.139 187.44 397.079 186.425 400.719 186.425C404.289 186.425 407.159 187.44 409.329 189.47C411.569 191.5 412.689 194.055 412.689 197.135C412.689 200.145 411.569 202.665 409.329 204.695C407.159 206.655 404.289 207.635 400.719 207.635ZM410.904 213.095V272H390.324V213.095H410.904ZM443.204 223.49C445.514 220.13 448.314 217.47 451.604 215.51C454.894 213.55 458.429 212.57 462.209 212.57V234.515H456.434C451.954 234.515 448.629 235.39 446.459 237.14C444.289 238.89 443.204 241.935 443.204 246.275V272H422.624V213.095H443.204V223.49ZM466.227 242.495C466.227 236.405 467.312 231.085 469.482 226.535C471.722 221.985 474.767 218.485 478.617 216.035C482.467 213.585 486.737 212.36 491.427 212.36C495.207 212.36 498.567 213.165 501.507 214.775C504.517 216.315 506.862 218.45 508.542 221.18V194.3H529.227V272H508.542V263.81C506.932 266.54 504.657 268.71 501.717 270.32C498.777 271.93 495.312 272.735 491.322 272.735C486.632 272.735 482.362 271.51 478.512 269.06C474.732 266.61 471.722 263.11 469.482 258.56C467.312 253.94 466.227 248.585 466.227 242.495ZM508.647 242.495C508.647 238.715 507.597 235.74 505.497 233.57C503.467 231.4 500.947 230.315 497.937 230.315C494.857 230.315 492.302 231.4 490.272 233.57C488.242 235.67 487.227 238.645 487.227 242.495C487.227 246.275 488.242 249.285 490.272 251.525C492.302 253.695 494.857 254.78 497.937 254.78C500.947 254.78 503.467 253.695 505.497 251.525C507.597 249.355 508.647 246.345 508.647 242.495Z" fill="black"/>
<rect x="221.071" y="692.81" width="88.6312" height="29.7407" transform="rotate(-55.0953 221.071 692.81)" fill="white"/>
<rect x="279.652" y="605.481" width="115.117" height="45.7738" transform="rotate(-55.0953 279.652 605.481)" fill="white"/>
<path d="M457.669 322.129C522.017 319.917 576.098 346.101 610.739 402.635C617.033 412.909 620.513 426.264 630.176 433.947C644.578 445.399 701.577 476.729 707.803 486.349C715.926 498.906 664.749 522.353 656.107 527.398C654.182 555.442 656.659 574.046 652.115 603.837C637.79 697.705 579.461 808.664 487.192 846.036C486.476 867.361 487.158 888.954 487.192 910.307C494.053 914.12 518.149 925.798 519.117 933.369C521.98 955.734 484.631 928.479 480.302 925.406C476.989 926.856 437.402 955.098 442.067 932.406C443.934 923.336 464.268 914.546 471.766 910.307C471.978 891.746 471.809 873.176 471.766 854.613C447.09 863.961 422.544 868.169 396.934 873.806V928.411C399.352 929.707 452.869 954.438 428.215 961.707C421.945 963.555 412.107 956.19 406.8 953.117C401.383 949.65 395.635 946.728 389.958 943.714C386.447 945.562 352.639 974.029 354.287 951.383C354.688 945.839 374.501 932.659 379.604 928.411C379.666 910.214 379.857 892.002 379.604 873.806C358.106 874.142 336.834 874.133 315.635 870.079C287.088 901.008 258.275 940.508 210.866 936.022C186.3 933.699 163.291 919.171 147.828 900.366C142.058 893.347 119.846 854.764 128.852 846.832C131.726 844.302 177.834 838.014 197.635 823.986C174.348 808.279 128.241 764.777 125.042 740.648C124.168 734.052 137.097 728.872 142.008 726.135C178.568 705.76 210.821 671.502 233.719 636.861C239.633 627.914 246.732 589.645 250.925 575.132C283.065 463.889 329.519 341.094 457.669 322.129ZM146.622 743.668C162.874 782.388 219.616 825.374 258.959 837.23C273.392 841.581 303.452 825.001 316.61 817.92C378.66 784.541 439.183 722.982 459.638 654.188C476.245 598.33 456.552 538.461 396.934 520.829C321.59 497.743 301.409 553.906 274.886 603.038C247.251 654.231 204.851 711.184 153.191 739.92L146.622 743.668Z" fill="black"/>
<path d="M267.508 583.796C269.973 564.121 278.89 545.048 285.61 526.556C307.496 466.317 335.63 399.778 391.806 363.835C474.718 310.785 554.742 346.351 604.309 424.528L601.604 425.345C560.518 437.976 573.525 469.535 578.011 501.34C580.843 521.434 582.62 549.738 588.649 568.363C593.773 564.454 598.741 560.848 604.309 557.574C615.913 550.145 627.779 544.111 639.947 537.712C642.847 697.227 540.3 854.051 369.972 857.065C356.619 857.3 342.171 857.303 328.994 855.063C314.074 852.527 313.698 851.133 295.408 849.701C306.555 843.015 337.71 824.322 349.02 819.67C419.693 769.396 511.244 666.973 475.462 572.427C454.007 515.742 388.736 483.539 331.36 506.209C291.373 522.008 282.703 549.297 267.508 583.796Z" fill="#FA5553"/>
<path d="M604.309 557.574C615.912 550.145 627.778 544.11 639.946 537.712C642.846 697.226 540.3 854.051 369.971 857.065C356.619 857.3 342.171 857.303 328.994 855.063C314.074 852.527 313.697 851.132 295.408 849.701C306.555 843.015 337.709 824.322 349.02 819.669C354.425 822.141 367.664 817.67 373.371 816.115C493.497 783.378 579.035 700.509 602.415 578.381C603.538 572.507 605.916 563.377 604.309 557.574Z" fill="#EF3D3B"/>
<path d="M479.24 397.374C489.798 395.061 500.781 398.605 508 406.649C515.22 414.692 517.555 425.996 514.118 436.242C510.681 446.488 502 454.096 491.393 456.16C475.254 459.301 459.593 448.873 456.264 432.771C452.936 416.672 463.178 400.892 479.24 397.374Z" fill="black"/>
<path d="M495.734 410.184C499.418 408.83 503.549 409.57 506.536 412.119C509.522 414.667 510.901 418.629 510.145 422.479C509.389 426.332 506.616 429.479 502.889 430.71C497.252 432.571 491.168 429.569 489.215 423.966C487.262 418.363 490.165 412.23 495.734 410.184Z" fill="#FEFDFD"/>
<path d="M153.191 739.92C204.851 711.184 247.251 654.231 274.886 603.038C301.409 553.906 321.59 497.743 396.934 520.829C456.552 538.461 476.245 598.33 459.637 654.188C439.182 722.982 378.66 784.541 316.61 817.92C303.452 825.001 273.392 841.581 258.959 837.231C219.615 825.374 162.874 782.388 146.622 743.668L153.191 739.92ZM315.635 588.362C323.762 577.418 331.015 565.284 342.35 557.238C348.925 552.567 364.335 548.097 368.281 542.117C374.467 532.754 362.302 527.811 355.095 527.398C329.019 540.596 308.277 553.909 301.786 583.796C306.173 587.035 310.045 589.358 315.635 588.362ZM240.256 702.962C249.01 696.946 310.912 627.877 273.682 630.024C263.185 637.531 254.733 660.941 241.957 674.078C233.026 683.263 216.842 698.964 240.256 702.962ZM307.475 606.509C317.276 599.293 313.738 589.664 302.514 588.436L301.786 588.362C291.857 596.593 294.14 607.351 307.475 606.509Z" fill="#F7689D"/>
<path d="M396.934 520.829C456.552 538.461 476.245 598.33 459.637 654.188C439.182 722.982 378.66 784.541 316.61 817.92C303.452 825.001 273.392 841.581 258.959 837.231C219.615 825.374 162.874 782.388 146.622 743.668L153.191 739.92C222.464 782.866 323.438 777.368 380.212 715.439C417.003 675.309 440.077 610.149 415.704 558.312C411.224 548.785 396.566 530.52 396.934 520.829Z" fill="#DA588E"/>
<path d="M213.39 835.271C227.182 843.336 242.423 848.55 256.059 856.871C269.167 858.42 282.386 864.241 295.408 867.111C271.89 889.182 249.739 919.738 213.786 918.652C190.575 917.949 167.981 902.267 156.228 882.546C151.789 875.617 149.216 868.724 146.622 860.928C174.324 855.47 188.988 849.312 213.39 835.271Z" fill="#EF3D3B"/>
<path d="M213.39 835.271C227.182 843.336 242.423 848.55 256.059 856.871C216.453 875.709 203.216 880.846 156.228 882.546C151.789 875.617 149.216 868.724 146.622 860.928C174.324 855.47 188.988 849.312 213.39 835.271Z" fill="#FA5553"/>
<path d="M601.486 442.693C618.186 441.555 674.167 481.039 685.657 491.656C671.49 497.2 658.297 505.937 645.191 513.635C630.388 521.915 614.459 530.088 601.486 541.078C596.559 512.845 592.064 484.501 588.648 456.04L589.352 454.312C592.048 447.756 595.056 445.377 601.486 442.693Z" fill="#FECE37"/>
</svg>
