<svg width="849" height="1183" viewBox="0 0 849 1183" fill="none" xmlns="http://www.w3.org/2000/svg">
<rect x="5" y="5" width="839" height="1173" rx="45" fill="white"/>
<rect x="5" y="5" width="839" height="1173" rx="45" stroke="black" stroke-width="10"/>
<circle cx="786.5" cy="1124.5" r="11.5" fill="black"/>
<circle cx="786.5" cy="59.5" r="11.5" fill="black"/>
<path d="M77 1124.5C77 1130.85 71.8513 1136 65.5 1136C59.1487 1136 54 1130.85 54 1124.5C54 1118.15 59.1487 1113 65.5 1113C71.8513 1113 77 1118.15 77 1124.5Z" fill="black"/>
<path d="M77 59.5C77 65.8513 71.8513 71 65.5 71C59.1487 71 54 65.8513 54 59.5C54 53.1487 59.1487 48 65.5 48C71.8513 48 77 53.1487 77 59.5Z" fill="black"/>
<mask id="path-6-inside-1_1_4275" fill="white">
<path d="M708 48C713.523 48 717.934 52.4996 718.616 57.9801C723.122 94.1833 751.817 122.878 788.02 127.384C793.5 128.066 798 132.477 798 138V1046C798 1051.52 793.5 1055.93 788.02 1056.62C751.817 1061.12 723.122 1089.82 718.616 1126.02C717.934 1131.5 713.523 1136 708 1136H141C135.477 1136 131.066 1131.5 130.384 1126.02C125.878 1089.82 97.1833 1061.12 60.9801 1056.62C55.4996 1055.93 51 1051.52 51 1046V138C51 132.477 55.4996 128.066 60.9801 127.384C97.1833 122.878 125.878 94.1833 130.384 57.9801C131.066 52.4996 135.477 48 141 48H708Z"/>
</mask>
<path d="M708 48C713.523 48 717.934 52.4996 718.616 57.9801C723.122 94.1833 751.817 122.878 788.02 127.384C793.5 128.066 798 132.477 798 138V1046C798 1051.52 793.5 1055.93 788.02 1056.62C751.817 1061.12 723.122 1089.82 718.616 1126.02C717.934 1131.5 713.523 1136 708 1136H141C135.477 1136 131.066 1131.5 130.384 1126.02C125.878 1089.82 97.1833 1061.12 60.9801 1056.62C55.4996 1055.93 51 1051.52 51 1046V138C51 132.477 55.4996 128.066 60.9801 127.384C97.1833 122.878 125.878 94.1833 130.384 57.9801C131.066 52.4996 135.477 48 141 48H708Z" fill="#77B866"/>
<path d="M130.384 1126.02L138.322 1125.03L130.384 1126.02ZM718.616 1126.02L710.678 1125.03L718.616 1126.02ZM788.02 1056.62L789.008 1064.56L788.02 1056.62ZM718.616 57.9801L726.555 56.9922L718.616 57.9801ZM718.616 57.9801L710.678 58.9681C715.635 98.8063 747.194 130.365 787.032 135.322L788.02 127.384L789.008 119.445C756.44 115.392 730.608 89.5603 726.555 56.9922L718.616 57.9801ZM798 138H790V1046H798H806V138H798ZM788.02 1056.62L787.032 1048.68C747.194 1053.64 715.635 1085.19 710.678 1125.03L718.616 1126.02L726.555 1127.01C730.608 1094.44 756.44 1068.61 789.008 1064.56L788.02 1056.62ZM708 1136V1128H141V1136V1144H708V1136ZM130.384 1126.02L138.322 1125.03C133.365 1085.19 101.806 1053.64 61.9681 1048.68L60.9801 1056.62L59.9922 1064.56C92.5603 1068.61 118.392 1094.44 122.445 1127.01L130.384 1126.02ZM51 1046H59V138H51H43V1046H51ZM60.9801 127.384L61.9681 135.322C101.806 130.365 133.365 98.8063 138.322 58.9681L130.384 57.9801L122.445 56.9922C118.392 89.5603 92.5603 115.392 59.9922 119.445L60.9801 127.384ZM141 48V56H708V48V40H141V48ZM130.384 57.9801L138.322 58.9681C138.438 58.0389 138.872 57.2306 139.427 56.6958C139.954 56.1887 140.494 56 141 56V48V40C130.84 40 123.547 48.1329 122.445 56.9922L130.384 57.9801ZM51 138H59C59 137.494 59.1887 136.954 59.6958 136.427C60.2306 135.872 61.0389 135.438 61.9681 135.322L60.9801 127.384L59.9922 119.445C51.1329 120.547 43 127.84 43 138H51ZM60.9801 1056.62L61.9681 1048.68C61.0389 1048.56 60.2306 1048.13 59.6958 1047.57C59.1887 1047.05 59 1046.51 59 1046H51H43C43 1056.16 51.1329 1063.45 59.9922 1064.56L60.9801 1056.62ZM141 1136V1128C140.494 1128 139.954 1127.81 139.427 1127.3C138.872 1126.77 138.438 1125.96 138.322 1125.03L130.384 1126.02L122.445 1127.01C123.547 1135.87 130.84 1144 141 1144V1136ZM718.616 1126.02L710.678 1125.03C710.562 1125.96 710.128 1126.77 709.573 1127.3C709.046 1127.81 708.506 1128 708 1128V1136V1144C718.16 1144 725.453 1135.87 726.555 1127.01L718.616 1126.02ZM798 1046H790C790 1046.51 789.811 1047.05 789.304 1047.57C788.769 1048.13 787.961 1048.56 787.032 1048.68L788.02 1056.62L789.008 1064.56C797.867 1063.45 806 1056.16 806 1046H798ZM788.02 127.384L787.032 135.322C787.961 135.438 788.769 135.872 789.304 136.427C789.811 136.954 790 137.494 790 138H798H806C806 127.84 797.867 120.547 789.008 119.445L788.02 127.384ZM718.616 57.9801L726.555 56.9922C725.453 48.1329 718.16 40 708 40V48V56C708.506 56 709.046 56.1887 709.573 56.6958C710.128 57.2306 710.562 58.0389 710.678 58.9681L718.616 57.9801Z" fill="black" mask="url(#path-6-inside-1_1_4275)"/>
<path d="M690 102C695.523 102 699.911 106.512 700.837 111.957C705.019 136.563 724.437 155.981 749.043 160.163C754.488 161.089 759 165.477 759 171V1014C759 1019.52 754.488 1023.91 749.043 1024.84C724.711 1028.97 705.454 1048 700.984 1072.22C699.993 1077.59 695.633 1082 690.175 1082H158.825C153.367 1082 149.007 1077.59 148.016 1072.22C143.546 1048 124.288 1028.97 99.9568 1024.84C94.5121 1023.91 90 1019.52 90 1014V171C90 165.477 94.512 161.089 99.9568 160.163C124.563 155.981 143.981 136.563 148.163 111.957C149.089 106.512 153.477 102 159 102H690Z" fill="#A3CC98"/>
<mask id="path-9-outside-2_1_4275" maskUnits="userSpaceOnUse" x="418" y="1007" width="24" height="31" fill="black">
<rect fill="white" x="418" y="1007" width="24" height="31"/>
<path d="M418.84 1030.92V1027.48L432.28 1008.2H437.8V1026.96H441.52V1030.92H437.8V1037H433.32V1030.92H418.84ZM433.52 1012.84L424.08 1026.96H433.52V1012.84Z"/>
</mask>
<path d="M418.84 1030.92V1027.48L432.28 1008.2H437.8V1026.96H441.52V1030.92H437.8V1037H433.32V1030.92H418.84ZM433.52 1012.84L424.08 1026.96H433.52V1012.84Z" fill="black"/>
<path d="M418.84 1030.92H418.54V1031.22H418.84V1030.92ZM418.84 1027.48L418.594 1027.31L418.54 1027.39V1027.48H418.84ZM432.28 1008.2V1007.9H432.123L432.034 1008.03L432.28 1008.2ZM437.8 1008.2H438.1V1007.9H437.8V1008.2ZM437.8 1026.96H437.5V1027.26H437.8V1026.96ZM441.52 1026.96H441.82V1026.66H441.52V1026.96ZM441.52 1030.92V1031.22H441.82V1030.92H441.52ZM437.8 1030.92V1030.62H437.5V1030.92H437.8ZM437.8 1037V1037.3H438.1V1037H437.8ZM433.32 1037H433.02V1037.3H433.32V1037ZM433.32 1030.92H433.62V1030.62H433.32V1030.92ZM433.52 1012.84H433.82V1011.85L433.271 1012.67L433.52 1012.84ZM424.08 1026.96L423.831 1026.79L423.519 1027.26H424.08V1026.96ZM433.52 1026.96V1027.26H433.82V1026.96H433.52ZM418.84 1030.92H419.14V1027.48H418.84H418.54V1030.92H418.84ZM418.84 1027.48L419.086 1027.65L432.526 1008.37L432.28 1008.2L432.034 1008.03L418.594 1027.31L418.84 1027.48ZM432.28 1008.2V1008.5H437.8V1008.2V1007.9H432.28V1008.2ZM437.8 1008.2H437.5V1026.96H437.8H438.1V1008.2H437.8ZM437.8 1026.96V1027.26H441.52V1026.96V1026.66H437.8V1026.96ZM441.52 1026.96H441.22V1030.92H441.52H441.82V1026.96H441.52ZM441.52 1030.92V1030.62H437.8V1030.92V1031.22H441.52V1030.92ZM437.8 1030.92H437.5V1037H437.8H438.1V1030.92H437.8ZM437.8 1037V1036.7H433.32V1037V1037.3H437.8V1037ZM433.32 1037H433.62V1030.92H433.32H433.02V1037H433.32ZM433.32 1030.92V1030.62H418.84V1030.92V1031.22H433.32V1030.92ZM433.52 1012.84L433.271 1012.67L423.831 1026.79L424.08 1026.96L424.329 1027.13L433.769 1013.01L433.52 1012.84ZM424.08 1026.96V1027.26H433.52V1026.96V1026.66H424.08V1026.96ZM433.52 1026.96H433.82V1012.84H433.52H433.22V1026.96H433.52Z" fill="black" mask="url(#path-9-outside-2_1_4275)"/>
<path d="M252.295 197.975V272H231.715V231.155L217.75 272H200.53L186.46 230.84V272H165.88V197.975H190.765L209.35 246.065L227.515 197.975H252.295ZM291.415 272.735C285.535 272.735 280.25 271.51 275.56 269.06C270.94 266.61 267.3 263.11 264.64 258.56C261.98 254.01 260.65 248.655 260.65 242.495C260.65 236.405 261.98 231.085 264.64 226.535C267.37 221.985 271.045 218.485 275.665 216.035C280.355 213.585 285.64 212.36 291.52 212.36C297.4 212.36 302.65 213.585 307.27 216.035C311.96 218.485 315.635 221.985 318.295 226.535C321.025 231.085 322.39 236.405 322.39 242.495C322.39 248.585 321.025 253.94 318.295 258.56C315.635 263.11 311.96 266.61 307.27 269.06C302.58 271.51 297.295 272.735 291.415 272.735ZM291.415 254.885C294.285 254.885 296.665 253.835 298.555 251.735C300.515 249.565 301.495 246.485 301.495 242.495C301.495 238.505 300.515 235.46 298.555 233.36C296.665 231.26 294.32 230.21 291.52 230.21C288.72 230.21 286.375 231.26 284.485 233.36C282.595 235.46 281.65 238.505 281.65 242.495C281.65 246.555 282.56 249.635 284.38 251.735C286.2 253.835 288.545 254.885 291.415 254.885ZM391.033 213.095V272H370.348V263.6C368.598 266.26 366.183 268.43 363.103 270.11C360.023 271.72 356.488 272.525 352.498 272.525C345.638 272.525 340.213 270.285 336.223 265.805C332.303 261.255 330.343 255.095 330.343 247.325V213.095H350.818V244.7C350.818 248.06 351.693 250.72 353.443 252.68C355.263 254.57 357.643 255.515 360.583 255.515C363.593 255.515 365.973 254.57 367.723 252.68C369.473 250.72 370.348 248.06 370.348 244.7V213.095H391.033ZM441.28 212.57C448.07 212.57 453.46 214.845 457.45 219.395C461.44 223.875 463.435 229.965 463.435 237.665V272H442.855V240.395C442.855 237.035 441.98 234.41 440.23 232.52C438.48 230.56 436.135 229.58 433.195 229.58C430.115 229.58 427.7 230.56 425.95 232.52C424.2 234.41 423.325 237.035 423.325 240.395V272H402.745V213.095H423.325V221.495C425.145 218.835 427.595 216.7 430.675 215.09C433.755 213.41 437.29 212.57 441.28 212.57ZM509.483 254.465V272H500.558C485.508 272 477.983 264.545 477.983 249.635V230.21H470.738V213.095H477.983V198.815H498.668V213.095H509.378V230.21H498.668V249.95C498.668 251.56 499.018 252.715 499.718 253.415C500.488 254.115 501.748 254.465 503.498 254.465H509.483ZM515.562 242.495C515.562 236.405 516.647 231.085 518.817 226.535C521.057 221.985 524.067 218.485 527.847 216.035C531.697 213.585 535.967 212.36 540.657 212.36C544.717 212.36 548.217 213.165 551.157 214.775C554.097 216.385 556.372 218.555 557.982 221.285V213.095H578.562V272H557.982V263.81C556.372 266.54 554.062 268.71 551.052 270.32C548.112 271.93 544.647 272.735 540.657 272.735C535.967 272.735 531.697 271.51 527.847 269.06C524.067 266.61 521.057 263.11 518.817 258.56C516.647 253.94 515.562 248.585 515.562 242.495ZM557.982 242.495C557.982 238.715 556.932 235.74 554.832 233.57C552.802 231.4 550.282 230.315 547.272 230.315C544.192 230.315 541.637 231.4 539.607 233.57C537.577 235.67 536.562 238.645 536.562 242.495C536.562 246.275 537.577 249.285 539.607 251.525C541.637 253.695 544.192 254.78 547.272 254.78C550.282 254.78 552.802 253.695 554.832 251.525C556.932 249.355 557.982 246.345 557.982 242.495ZM600.684 207.635C597.044 207.635 594.104 206.655 591.864 204.695C589.694 202.665 588.609 200.145 588.609 197.135C588.609 194.055 589.694 191.5 591.864 189.47C594.104 187.44 597.044 186.425 600.684 186.425C604.254 186.425 607.124 187.44 609.294 189.47C611.534 191.5 612.654 194.055 612.654 197.135C612.654 200.145 611.534 202.665 609.294 204.695C607.124 206.655 604.254 207.635 600.684 207.635ZM610.869 213.095V272H590.289V213.095H610.869ZM661.124 212.57C667.914 212.57 673.304 214.845 677.294 219.395C681.284 223.875 683.279 229.965 683.279 237.665V272H662.699V240.395C662.699 237.035 661.824 234.41 660.074 232.52C658.324 230.56 655.979 229.58 653.039 229.58C649.959 229.58 647.544 230.56 645.794 232.52C644.044 234.41 643.169 237.035 643.169 240.395V272H622.589V213.095H643.169V221.495C644.989 218.835 647.439 216.7 650.519 215.09C653.599 213.41 657.134 212.57 661.124 212.57Z" fill="black"/>
<path d="M622.16 508.076C627.065 507.734 632.103 508.314 636.909 509.281C652.794 512.476 664.652 521.407 673.549 534.741C684.06 534.399 693.778 534.832 702.462 541.529C708.864 546.468 713.618 553.593 714.684 561.693C720.832 561.594 727.539 563.114 732.892 566.18C739.639 570.043 744.331 576.597 746.359 584.046C748.544 592.071 747.699 600.524 743.478 607.744C739.167 615.075 732.106 620.38 723.866 622.48C712.798 625.345 702.537 622.321 692.974 616.679C689.219 618.862 685.474 620.662 681.295 621.885C667.341 625.97 654.334 623.54 641.764 616.699C637.512 619.613 632.652 621.423 627.645 622.576C615.066 625.586 601.805 623.418 590.839 616.557C584.486 620.299 578.291 622.571 570.934 623.315C574.661 630.72 578.967 637.852 582.817 645.201C596.083 670.16 609.059 695.272 621.743 720.531L663.052 803.886C674.172 827.241 685.412 850.539 696.773 873.779C700.289 874.846 703.696 876.574 706.371 879.127C709.595 882.205 711.221 886.291 711.167 890.732C711.117 894.733 709.693 898.287 706.817 901.087C702.398 905.387 695.978 906.86 690.033 907.353C682.283 907.994 674.449 907.774 666.677 907.774L633.101 907.776L524.136 907.77L186.573 907.82L148.517 907.854C139.714 907.878 130.384 908.487 121.685 907.026C116.222 906.109 110.441 903.838 107.191 899.105C104.398 895.038 103.892 889.101 104.851 884.324C106.619 875.516 114.802 870.487 121.702 865.856C127.445 851.247 133.821 836.921 140.109 822.544C145.981 809.118 151.754 795.609 157.885 782.3C184.111 725.366 212.116 669.267 241.857 614.086C247.776 603.236 253.872 592.482 260.142 581.829C264.752 573.892 269.325 565.608 274.968 558.352C277.155 555.541 279.69 552.762 282.76 550.898C285.961 548.956 289.529 548.227 293.187 549.169C297.139 550.186 300.024 552.558 302.623 555.605C306.951 560.682 310.311 566.868 313.748 572.573C318.455 580.361 323.119 588.174 327.741 596.012C346.862 628.312 365.189 661.074 382.707 694.271C388.319 704.78 393.875 715.319 399.373 725.889C402.392 731.675 405.21 737.658 408.564 743.253C429.415 701.204 450.952 659.5 473.168 618.156L487.339 592.415C491.567 584.754 495.786 576.905 500.648 569.626C503.594 565.217 506.98 560.329 511.376 557.226C515.254 554.488 519.843 553.489 524.517 554.396C531.027 555.657 534.822 560.037 538.264 565.295C540.1 562.405 542.026 559.782 544.505 557.405C551.993 550.225 561.655 547.311 571.861 547.539C574.51 539.61 578.056 532.987 583.57 526.641C593.553 515.15 607.159 509.153 622.16 508.076Z" fill="black"/>
<path d="M460.308 788.338C488.616 786.837 506.15 795.093 527.332 812.976C533.658 818.317 539.719 823.98 546.418 828.863C556.144 835.954 567.332 841.353 578.453 845.885C586.179 849.032 594.224 851.904 602.162 854.479C615.905 858.938 690.79 881.191 697.499 887.239C698.491 888.133 699.457 889.392 699.363 890.804C699.299 891.787 698.718 892.684 698.024 893.348C694.743 896.491 688.093 896.72 683.804 896.966C671.294 897.685 658.425 897.073 645.88 897.072H572.378L346.055 897.077L202.063 897.079L155.881 897.094C147.287 897.096 138.503 897.487 129.939 896.881C126.265 896.621 121.221 896.242 118.203 893.932C116.889 892.927 116.294 891.364 116.135 889.747C115.867 887.016 117.23 884.578 118.988 882.595C124.812 876.026 148.812 862.673 157.457 857.789C171.989 849.579 190.611 838.115 206.902 834.571C219.697 831.788 232.915 836.388 245.382 839.113C260.813 842.487 278.638 844.561 294.074 840.52C307.685 836.957 324.373 825.055 337.151 818.1C346.413 813.06 355.962 808.092 365.846 804.372C394.251 793.684 430.127 790.17 460.308 788.338Z" fill="#438E29"/>
<path d="M356.234 669.114C361.812 678.794 366.993 688.734 372.283 698.573C382.449 717.409 392.428 736.346 402.216 755.381C399.315 761.529 396.044 767.539 392.912 773.574C390.604 778.023 388.428 782.669 385.817 786.939C365.386 791.853 348.801 798.535 330.46 808.941C318.754 815.582 304.657 825.897 291.848 829.308C274.3 833.981 255.243 829.558 238.004 825.661C228.067 823.413 218.116 820.965 207.887 822.685C188.951 825.87 154.771 845.843 137.614 856.356L139.255 852.853C164.693 793.121 192.195 734.289 221.715 676.465C225.101 683.307 234.913 703.211 239.453 707.838C240.943 709.355 242.753 710.094 244.887 710.019C253.71 709.706 274.653 685.606 281.533 678.31C286.922 684.722 292.288 691.254 298.475 696.928C302.558 700.671 307.521 704.632 313.388 704.26C326.098 703.452 347.582 678.511 356.234 669.114Z" fill="#C26C3C"/>
<path d="M225.425 736.134C226.22 736.127 227.062 736.219 227.813 736.5C229.306 737.06 230.576 738.199 231.17 739.687C232.003 741.773 231.296 743.633 230.47 745.575C227.632 752.254 223.941 758.79 220.67 765.28C218.57 769.443 216.291 775.406 213.468 778.925C212.515 780.114 211.437 780.614 210.047 781.166C209.064 781.153 208.121 781.096 207.201 780.712C205.909 780.171 204.804 779.223 204.261 777.913C203.247 775.47 204.36 773.203 205.377 770.973C208.23 764.713 211.558 758.596 214.609 752.426C216.545 748.509 219.357 741.359 222.005 738.172C222.942 737.044 224.081 736.633 225.425 736.134Z" fill="black"/>
<path d="M584.925 673.89C586.976 676.152 599.232 701.205 601.599 705.802C629.04 759.618 655.77 813.794 681.784 868.315C661.089 861.158 640.163 854.75 619.324 848.035C599.299 841.582 578.708 835.287 560.452 824.613C551.909 819.619 545.068 812.957 537.596 806.609C528.929 799.245 519.981 792.467 510.105 786.81C489.38 775.292 466.688 775.99 443.89 777.978C429.111 779.267 414.516 781.401 399.885 783.794C418.22 748.733 436.236 713.507 453.933 678.12C458.502 685.204 463.136 692.245 467.835 699.243C470.291 702.923 472.675 707.425 475.826 710.495C477.129 711.764 478.778 712.704 480.647 712.606C482.312 712.518 483.78 711.664 485.065 710.664C488.678 707.857 491.877 703.785 495.016 700.421C500.594 694.395 506.245 688.437 511.967 682.547C518.203 688.814 532.939 708.617 541.029 709.059C543.381 709.188 545.539 708.297 547.534 707.135C554.464 703.098 560.653 696.717 566.484 691.25L584.925 673.89Z" fill="#C26C3C"/>
<path d="M460.403 728.745C461.196 728.799 461.918 728.95 462.659 729.238C464.087 729.794 465.34 730.905 465.901 732.347C466.642 734.247 466.019 736.044 465.279 737.84C463.755 741.537 454.778 759.602 452.539 762.049C451.808 762.849 450.591 763.248 449.614 763.656C448.527 763.597 447.443 763.485 446.456 762.995C445.033 762.288 444.013 761.215 443.586 759.662C443.365 758.857 443.321 758.054 443.513 757.241C444.674 752.33 451.98 739.28 454.669 734.206C456.271 731.181 456.989 729.793 460.403 728.745Z" fill="black"/>
<path d="M620.72 519.908C625.489 519.2 631.23 519.777 635.902 520.888C645.51 523.174 654.781 529.006 660.862 536.83C662.521 538.965 663.741 541.491 665.173 543.781C668.606 549.267 673.55 546.941 678.802 546.338C681.512 546.027 684.381 546.246 687.034 546.865C694.979 548.722 701.714 554.847 703.55 562.909C704.187 565.707 704.322 569.185 705.957 571.602C708.452 575.289 717.218 573.31 721.362 574.174C726.402 575.223 730.784 578.309 733.469 582.702C736.17 587.008 737.03 592.22 735.854 597.166C734.688 602.012 731.549 606.097 727.338 608.702C720.936 612.662 711.127 613.189 704.358 609.83C701.139 608.232 696.96 603.724 693.294 603.997C690.747 604.187 688.169 606.163 685.992 607.413C676.788 612.698 667.03 613.071 656.875 610.723C655.222 610.212 653.527 609.673 651.986 608.877C649.425 607.553 646.194 604.97 643.429 604.41C639.904 603.696 632.175 609.112 628.24 610.365C623.09 611.972 617.671 612.534 612.3 612.018C608.716 611.647 605.033 610.694 601.686 609.365C598.693 608.177 592.458 603.815 589.533 604.003C586.846 604.177 581.112 609.032 577.824 610.232C573.424 611.836 569.008 611.773 564.401 611.752C557.737 600.473 551.477 588.881 545.17 577.397C546.368 573.969 547.88 570.824 550.251 568.041C554.706 562.807 561.385 559.847 568.218 559.588C570.704 559.494 573.248 559.816 575.719 559.574C577.481 559.4 579.258 558.811 580.408 557.397C582.414 554.93 582.782 550.95 583.946 548.006C585.724 543.627 588.134 539.532 591.097 535.851C598.603 526.555 608.913 521.225 620.72 519.908Z" fill="#7BDFE0"/>
<path d="M289.286 560.275C289.719 560.289 290.269 560.275 290.699 560.383C292.604 560.863 293.903 562.687 295.036 564.168C302.181 573.515 308.581 585.779 314.637 595.959C326.986 616.456 338.961 637.176 350.556 658.109C342.36 668.096 324.345 688.595 312.38 693.252C305.418 689.429 299.479 682.248 294.438 676.166C291.383 672.481 287.653 666.107 283.345 664.147C283.246 664.141 283.148 664.135 283.05 664.13C281.638 664.066 280.201 664.209 279.007 665.039C274.841 667.938 269.579 674.597 265.897 678.458C259.466 685.293 252.801 691.903 245.913 698.277C239.619 687.035 233.362 675.691 227.469 664.235C237.256 644.89 248.116 625.861 258.757 606.968C265.861 594.354 273.751 579.28 282.198 567.627C284.259 564.785 286.382 562.273 289.286 560.275Z" fill="#FEFEF6"/>
<path d="M519.807 565.767C520.688 565.73 521.671 565.648 522.53 565.87C525.32 566.59 527.595 570.083 529.155 572.344C535.499 581.549 541.01 592.832 546.497 602.657C557.823 622.819 568.969 643.082 579.936 663.442C570.835 670.787 549.604 693.984 541.369 697.454C532.731 691.027 525.11 678.52 516.425 671.128C515.057 670.22 513.565 669.385 511.871 669.481C510.435 669.562 509.208 670.22 508.082 671.072C504.215 673.998 500.895 678.009 497.557 681.53C492.097 687.25 486.686 693.018 481.325 698.831C473.684 688.601 466.634 677.909 459.496 667.328C470.488 646.61 481.666 625.991 493.03 605.474C499.093 594.665 504.936 583.191 512.287 573.195C514.472 570.224 516.669 567.746 519.807 565.767Z" fill="#FEFEF6"/>
<path d="M209.178 376.242C218.093 375.327 228.289 377.093 236.688 380.089C252.309 385.661 266.287 397.4 273.389 412.5L274.486 412.31C287 410.198 300.701 412.124 311.143 419.668C320.422 426.253 326.697 436.261 328.583 447.483C330.07 447.243 331.572 446.984 333.074 446.858C343.084 446.017 353.357 449.61 360.992 456.016C369.105 462.824 373.571 472.823 374.477 483.283C375.378 493.67 370.97 505.224 364.317 513.086C357.332 521.273 347.384 526.357 336.656 527.219C327.13 527.948 316.234 524.458 308.986 518.243C308.474 518.623 307.958 518.998 307.439 519.369C295.499 527.889 278.46 529.101 264.411 526.771C257.989 525.56 249.708 523.243 244.683 518.878C238.905 522.302 232.857 524.934 226.28 526.391C210.938 529.789 194.123 527.736 180.815 519.182C173.22 524.119 165.069 526.956 156.037 527.692C142.971 528.757 130.102 524.868 120.156 516.275C109.688 507.231 103.999 495.188 103.107 481.445C102.223 467.826 106.83 455.031 115.853 444.852C123.234 436.524 135.709 430.117 146.859 429.441C149.776 418.27 154.717 407.871 162.246 399.054C174.074 385.205 191.215 377.592 209.178 376.242Z" fill="black"/>
<path d="M208.254 388.402C213.394 387.524 219.842 388.22 224.929 389.22C238.146 391.82 251.859 400.174 259.499 411.415C261.959 415.035 263.334 419.332 265.806 422.858C269.009 427.425 276.694 423.837 281.233 423.342C284.466 422.994 287.734 423.127 290.929 423.737C303.579 426.081 313.744 435.506 317.034 447.944C318.042 451.822 317.895 456.613 320.22 459.995C324.457 462.16 333.731 458.064 340.69 459.162C347.61 460.254 353.986 464.369 357.983 470.08C362.326 476.287 363.762 483.962 362.407 491.376C360.968 499.099 356.514 505.932 350.03 510.366C342.312 515.69 331.184 517.359 322.517 513.284C318.475 511.383 313.236 505.539 308.736 505.878C305.853 506.095 302.672 508.691 300.188 510.12C289.332 516.362 276.685 517.178 264.578 514.912C261.359 514.134 258.297 513.136 255.301 511.712C252.677 510.465 247.207 506.517 244.735 506.17C242.416 505.843 235.402 510.558 233.019 511.689C231.088 512.597 229.096 513.371 227.057 514.002C220.638 515.93 213.903 516.578 207.234 515.909C202.394 515.468 197.636 514.368 193.094 512.638C189.205 511.115 184.097 505.993 179.894 506.41C176.437 506.752 172.478 510.512 169.415 512.1C165.585 514.086 161.809 515.133 157.541 515.689C147.495 516.996 136.936 514.422 128.892 508.181C120.929 502.035 115.812 492.912 114.72 482.913C112.675 464.958 123.768 448.11 141.069 442.893C144.79 441.749 153.483 441.649 156.047 439.293C158.646 436.903 159.6 427.169 161.17 423.221C163.2 418.121 165.998 413.362 169.468 409.11C179.157 397.106 193.008 390.041 208.254 388.402Z" fill="#7BDFE0"/>
<path d="M512.631 381.749C543.665 382.027 568.637 407.337 568.498 438.372C568.358 469.407 543.16 494.492 512.124 494.491C480.893 494.49 455.615 469.097 455.755 437.865C455.896 406.635 481.401 381.47 512.631 381.749Z" fill="black"/>
<path d="M509.339 393.419C534.014 391.846 555.302 410.552 556.914 435.224C558.528 459.896 539.856 481.215 515.186 482.868C490.46 484.524 469.082 465.801 467.465 441.072C465.849 416.343 484.607 394.995 509.339 393.419Z" fill="#FEBD20"/>
<path d="M410.761 532.72C417.626 532.193 424.101 533.395 429.775 537.468C435.795 541.788 438.425 547.805 439.59 554.923C445.639 554.849 451.008 556.079 455.477 560.384C459.749 564.499 461.981 570.329 462.015 576.217C462.049 582.011 460.016 587.724 455.852 591.83C449.333 598.261 441.279 597.801 432.778 597.738L419.158 597.675L400.546 597.738C395.663 597.754 390.307 598.128 385.512 597.113C382.662 596.5 379.968 595.315 377.592 593.628C372.415 589.994 369.081 584.416 368.079 578.196C367.018 571.616 368.228 564.709 372.172 559.252C376.648 553.06 382.258 550.758 389.606 549.581C390.751 547.063 391.879 544.611 393.511 542.366C397.767 536.508 403.769 533.812 410.761 532.72Z" fill="black"/>
<path d="M410.549 544.848C433.893 543.405 424.719 560.818 431.552 565.639C436.002 568.78 442.657 564.697 447.814 569.047C449.848 570.763 450.621 573.552 450.721 576.124C450.824 578.75 449.903 581.271 448.077 583.169C446.716 584.581 444.945 585.486 443.051 585.945C438.305 587.096 425.644 586.33 419.834 586.348L400.071 586.413C396.688 586.424 393.144 586.653 389.788 586.232C388.087 586.019 386.383 585.512 384.871 584.701C382.081 583.204 379.973 580.704 379.154 577.629C378.222 574.133 378.742 570.148 380.58 567.031C385.166 559.252 389.821 562.684 395.765 561.023C400.781 559.622 400.236 553.409 402.531 549.764C404.38 546.827 407.332 545.658 410.549 544.848Z" fill="#7BDFE0"/>
</svg>
