<svg width="849" height="1183" viewBox="0 0 849 1183" fill="none" xmlns="http://www.w3.org/2000/svg">
<rect x="5" y="5" width="839" height="1173" rx="45" fill="white"/>
<rect x="5" y="5" width="839" height="1173" rx="45" stroke="black" stroke-width="10"/>
<circle cx="786.5" cy="1124.5" r="11.5" fill="black"/>
<circle cx="786.5" cy="59.5" r="11.5" fill="black"/>
<path d="M77 1124.5C77 1130.85 71.8513 1136 65.5 1136C59.1487 1136 54 1130.85 54 1124.5C54 1118.15 59.1487 1113 65.5 1113C71.8513 1113 77 1118.15 77 1124.5Z" fill="black"/>
<path d="M77 59.5C77 65.8513 71.8513 71 65.5 71C59.1487 71 54 65.8513 54 59.5C54 53.1487 59.1487 48 65.5 48C71.8513 48 77 53.1487 77 59.5Z" fill="black"/>
<mask id="path-6-inside-1_1_1514" fill="white">
<path d="M708 48C713.523 48 717.934 52.4996 718.616 57.9801C723.122 94.1833 751.817 122.878 788.02 127.384C793.5 128.066 798 132.477 798 138V1046C798 1051.52 793.5 1055.93 788.02 1056.62C751.817 1061.12 723.122 1089.82 718.616 1126.02C717.934 1131.5 713.523 1136 708 1136H141C135.477 1136 131.066 1131.5 130.384 1126.02C125.878 1089.82 97.1833 1061.12 60.9801 1056.62C55.4996 1055.93 51 1051.52 51 1046V138C51 132.477 55.4996 128.066 60.9801 127.384C97.1833 122.878 125.878 94.1833 130.384 57.9801C131.066 52.4996 135.477 48 141 48H708Z"/>
</mask>
<path d="M708 48C713.523 48 717.934 52.4996 718.616 57.9801C723.122 94.1833 751.817 122.878 788.02 127.384C793.5 128.066 798 132.477 798 138V1046C798 1051.52 793.5 1055.93 788.02 1056.62C751.817 1061.12 723.122 1089.82 718.616 1126.02C717.934 1131.5 713.523 1136 708 1136H141C135.477 1136 131.066 1131.5 130.384 1126.02C125.878 1089.82 97.1833 1061.12 60.9801 1056.62C55.4996 1055.93 51 1051.52 51 1046V138C51 132.477 55.4996 128.066 60.9801 127.384C97.1833 122.878 125.878 94.1833 130.384 57.9801C131.066 52.4996 135.477 48 141 48H708Z" fill="#DBEE71"/>
<path d="M130.384 1126.02L138.322 1125.03L130.384 1126.02ZM718.616 1126.02L710.678 1125.03L718.616 1126.02ZM788.02 1056.62L789.008 1064.56L788.02 1056.62ZM718.616 57.9801L726.555 56.9922L718.616 57.9801ZM718.616 57.9801L710.678 58.9681C715.635 98.8063 747.194 130.365 787.032 135.322L788.02 127.384L789.008 119.445C756.44 115.392 730.608 89.5603 726.555 56.9922L718.616 57.9801ZM798 138H790V1046H798H806V138H798ZM788.02 1056.62L787.032 1048.68C747.194 1053.64 715.635 1085.19 710.678 1125.03L718.616 1126.02L726.555 1127.01C730.608 1094.44 756.44 1068.61 789.008 1064.56L788.02 1056.62ZM708 1136V1128H141V1136V1144H708V1136ZM130.384 1126.02L138.322 1125.03C133.365 1085.19 101.806 1053.64 61.9681 1048.68L60.9801 1056.62L59.9922 1064.56C92.5603 1068.61 118.392 1094.44 122.445 1127.01L130.384 1126.02ZM51 1046H59V138H51H43V1046H51ZM60.9801 127.384L61.9681 135.322C101.806 130.365 133.365 98.8063 138.322 58.9681L130.384 57.9801L122.445 56.9922C118.392 89.5603 92.5603 115.392 59.9922 119.445L60.9801 127.384ZM141 48V56H708V48V40H141V48ZM130.384 57.9801L138.322 58.9681C138.438 58.0389 138.872 57.2306 139.427 56.6958C139.954 56.1887 140.494 56 141 56V48V40C130.84 40 123.547 48.1329 122.445 56.9922L130.384 57.9801ZM51 138H59C59 137.494 59.1887 136.954 59.6958 136.427C60.2306 135.872 61.0389 135.438 61.9681 135.322L60.9801 127.384L59.9922 119.445C51.1329 120.547 43 127.84 43 138H51ZM60.9801 1056.62L61.9681 1048.68C61.0389 1048.56 60.2306 1048.13 59.6958 1047.57C59.1887 1047.05 59 1046.51 59 1046H51H43C43 1056.16 51.1329 1063.45 59.9922 1064.56L60.9801 1056.62ZM141 1136V1128C140.494 1128 139.954 1127.81 139.427 1127.3C138.872 1126.77 138.438 1125.96 138.322 1125.03L130.384 1126.02L122.445 1127.01C123.547 1135.87 130.84 1144 141 1144V1136ZM718.616 1126.02L710.678 1125.03C710.562 1125.96 710.128 1126.77 709.573 1127.3C709.046 1127.81 708.506 1128 708 1128V1136V1144C718.16 1144 725.453 1135.87 726.555 1127.01L718.616 1126.02ZM798 1046H790C790 1046.51 789.811 1047.05 789.304 1047.57C788.769 1048.13 787.961 1048.56 787.032 1048.68L788.02 1056.62L789.008 1064.56C797.867 1063.45 806 1056.16 806 1046H798ZM788.02 127.384L787.032 135.322C787.961 135.438 788.769 135.872 789.304 136.427C789.811 136.954 790 137.494 790 138H798H806C806 127.84 797.867 120.547 789.008 119.445L788.02 127.384ZM718.616 57.9801L726.555 56.9922C725.453 48.1329 718.16 40 708 40V48V56C708.506 56 709.046 56.1887 709.573 56.6958C710.128 57.2306 710.562 58.0389 710.678 58.9681L718.616 57.9801Z" fill="black" mask="url(#path-6-inside-1_1_1514)"/>
<path d="M690 102C695.523 102 699.911 106.512 700.837 111.957C705.019 136.563 724.437 155.981 749.043 160.163C754.488 161.089 759 165.477 759 171V1014C759 1019.52 754.488 1023.91 749.043 1024.84C724.711 1028.97 705.454 1048 700.984 1072.22C699.993 1077.59 695.633 1082 690.175 1082H158.825C153.367 1082 149.007 1077.59 148.016 1072.22C143.546 1048 124.288 1028.97 99.9568 1024.84C94.5121 1023.91 90 1019.52 90 1014V171C90 165.477 94.512 161.089 99.9568 160.163C124.563 155.981 143.981 136.563 148.163 111.957C149.089 106.512 153.477 102 159 102H690Z" fill="#DFE4C2"/>
<mask id="path-9-outside-2_1_1514" maskUnits="userSpaceOnUse" x="403" y="1006" width="34" height="32" fill="black">
<rect fill="white" x="403" y="1006" width="34" height="32"/>
<path d="M404.32 1015.04C404.48 1012.56 405.427 1010.63 407.16 1009.24C408.92 1007.85 411.16 1007.16 413.88 1007.16C415.747 1007.16 417.36 1007.49 418.72 1008.16C420.08 1008.83 421.107 1009.73 421.8 1010.88C422.493 1012.03 422.84 1013.32 422.84 1014.76C422.84 1016.41 422.4 1017.83 421.52 1019C420.64 1020.17 419.587 1020.96 418.36 1021.36V1021.52C419.933 1022 421.16 1022.88 422.04 1024.16C422.92 1025.41 423.36 1027.03 423.36 1029C423.36 1030.57 423 1031.97 422.28 1033.2C421.56 1034.43 420.493 1035.4 419.08 1036.12C417.667 1036.81 415.973 1037.16 414 1037.16C411.12 1037.16 408.747 1036.43 406.88 1034.96C405.04 1033.47 404.053 1031.33 403.92 1028.56H408.32C408.427 1029.97 408.973 1031.13 409.96 1032.04C410.947 1032.92 412.28 1033.36 413.96 1033.36C415.587 1033.36 416.84 1032.92 417.72 1032.04C418.6 1031.13 419.04 1029.97 419.04 1028.56C419.04 1026.69 418.44 1025.37 417.24 1024.6C416.067 1023.8 414.253 1023.4 411.8 1023.4H410.76V1019.64H411.84C414 1019.61 415.64 1019.25 416.76 1018.56C417.907 1017.87 418.48 1016.77 418.48 1015.28C418.48 1014 418.067 1012.99 417.24 1012.24C416.413 1011.47 415.24 1011.08 413.72 1011.08C412.227 1011.08 411.067 1011.47 410.24 1012.24C409.413 1012.99 408.92 1013.92 408.76 1015.04H404.32ZM427.55 1012V1007.84H435.87V1037H431.27V1012H427.55Z"/>
</mask>
<path d="M404.32 1015.04C404.48 1012.56 405.427 1010.63 407.16 1009.24C408.92 1007.85 411.16 1007.16 413.88 1007.16C415.747 1007.16 417.36 1007.49 418.72 1008.16C420.08 1008.83 421.107 1009.73 421.8 1010.88C422.493 1012.03 422.84 1013.32 422.84 1014.76C422.84 1016.41 422.4 1017.83 421.52 1019C420.64 1020.17 419.587 1020.96 418.36 1021.36V1021.52C419.933 1022 421.16 1022.88 422.04 1024.16C422.92 1025.41 423.36 1027.03 423.36 1029C423.36 1030.57 423 1031.97 422.28 1033.2C421.56 1034.43 420.493 1035.4 419.08 1036.12C417.667 1036.81 415.973 1037.16 414 1037.16C411.12 1037.16 408.747 1036.43 406.88 1034.96C405.04 1033.47 404.053 1031.33 403.92 1028.56H408.32C408.427 1029.97 408.973 1031.13 409.96 1032.04C410.947 1032.92 412.28 1033.36 413.96 1033.36C415.587 1033.36 416.84 1032.92 417.72 1032.04C418.6 1031.13 419.04 1029.97 419.04 1028.56C419.04 1026.69 418.44 1025.37 417.24 1024.6C416.067 1023.8 414.253 1023.4 411.8 1023.4H410.76V1019.64H411.84C414 1019.61 415.64 1019.25 416.76 1018.56C417.907 1017.87 418.48 1016.77 418.48 1015.28C418.48 1014 418.067 1012.99 417.24 1012.24C416.413 1011.47 415.24 1011.08 413.72 1011.08C412.227 1011.08 411.067 1011.47 410.24 1012.24C409.413 1012.99 408.92 1013.92 408.76 1015.04H404.32ZM427.55 1012V1007.84H435.87V1037H431.27V1012H427.55Z" fill="black"/>
<path d="M404.32 1015.04L404.021 1015.02L404 1015.34H404.32V1015.04ZM407.16 1009.24L406.974 1009L406.973 1009.01L407.16 1009.24ZM418.72 1008.16L418.588 1008.43L418.72 1008.16ZM421.8 1010.88L422.057 1010.72L421.8 1010.88ZM421.52 1019L421.76 1019.18V1019.18L421.52 1019ZM418.36 1021.36L418.267 1021.07L418.06 1021.14V1021.36H418.36ZM418.36 1021.52H418.06V1021.74L418.272 1021.81L418.36 1021.52ZM422.04 1024.16L421.793 1024.33L421.794 1024.33L422.04 1024.16ZM422.28 1033.2L422.021 1033.05L422.28 1033.2ZM419.08 1036.12L419.212 1036.39L419.216 1036.39L419.08 1036.12ZM406.88 1034.96L406.691 1035.19L406.695 1035.2L406.88 1034.96ZM403.92 1028.56V1028.26H403.605L403.62 1028.57L403.92 1028.56ZM408.32 1028.56L408.619 1028.54L408.598 1028.26H408.32V1028.56ZM409.96 1032.04L409.757 1032.26L409.76 1032.26L409.96 1032.04ZM417.72 1032.04L417.932 1032.25L417.935 1032.25L417.72 1032.04ZM417.24 1024.6L417.071 1024.85L417.077 1024.85L417.24 1024.6ZM410.76 1023.4H410.46V1023.7H410.76V1023.4ZM410.76 1019.64V1019.34H410.46V1019.64H410.76ZM411.84 1019.64V1019.94L411.844 1019.94L411.84 1019.64ZM416.76 1018.56L416.605 1018.3L416.602 1018.3L416.76 1018.56ZM417.24 1012.24L417.035 1012.46L417.039 1012.46L417.24 1012.24ZM410.24 1012.24L410.441 1012.46L410.445 1012.46L410.24 1012.24ZM408.76 1015.04V1015.34H409.02L409.057 1015.08L408.76 1015.04ZM404.32 1015.04L404.619 1015.06C404.775 1012.65 405.688 1010.8 407.347 1009.47L407.16 1009.24L406.973 1009.01C405.165 1010.45 404.185 1012.47 404.021 1015.02L404.32 1015.04ZM407.16 1009.24L407.346 1009.48C409.042 1008.14 411.213 1007.46 413.88 1007.46V1007.16V1006.86C411.108 1006.86 408.798 1007.57 406.974 1009L407.16 1009.24ZM413.88 1007.16V1007.46C415.711 1007.46 417.277 1007.79 418.588 1008.43L418.72 1008.16L418.852 1007.89C417.443 1007.2 415.782 1006.86 413.88 1006.86V1007.16ZM418.72 1008.16L418.588 1008.43C419.903 1009.07 420.883 1009.94 421.543 1011.04L421.8 1010.88L422.057 1010.72C421.33 1009.52 420.257 1008.58 418.852 1007.89L418.72 1008.16ZM421.8 1010.88L421.543 1011.04C422.206 1012.13 422.54 1013.37 422.54 1014.76H422.84H423.14C423.14 1013.27 422.78 1011.92 422.057 1010.72L421.8 1010.88ZM422.84 1014.76H422.54C422.54 1016.36 422.116 1017.71 421.28 1018.82L421.52 1019L421.76 1019.18C422.684 1017.95 423.14 1016.47 423.14 1014.76H422.84ZM421.52 1019L421.28 1018.82C420.432 1019.95 419.427 1020.7 418.267 1021.07L418.36 1021.36L418.453 1021.65C419.746 1021.22 420.848 1020.4 421.76 1019.18L421.52 1019ZM418.36 1021.36H418.06V1021.52H418.36H418.66V1021.36H418.36ZM418.36 1021.52L418.272 1021.81C419.785 1022.27 420.954 1023.11 421.793 1024.33L422.04 1024.16L422.287 1023.99C421.366 1022.65 420.082 1021.73 418.448 1021.23L418.36 1021.52ZM422.04 1024.16L421.794 1024.33C422.63 1025.52 423.06 1027.07 423.06 1029H423.36H423.66C423.66 1026.98 423.21 1025.3 422.286 1023.99L422.04 1024.16ZM423.36 1029H423.06C423.06 1030.53 422.711 1031.87 422.021 1033.05L422.28 1033.2L422.539 1033.35C423.289 1032.07 423.66 1030.62 423.66 1029H423.36ZM422.28 1033.2L422.021 1033.05C421.334 1034.22 420.312 1035.16 418.944 1035.85L419.08 1036.12L419.216 1036.39C420.674 1035.64 421.786 1034.63 422.539 1033.35L422.28 1033.2ZM419.08 1036.12L418.948 1035.85C417.585 1036.52 415.939 1036.86 414 1036.86V1037.16V1037.46C416.008 1037.46 417.749 1037.11 419.212 1036.39L419.08 1036.12ZM414 1037.16V1036.86C411.172 1036.86 408.869 1036.14 407.065 1034.72L406.88 1034.96L406.695 1035.2C408.625 1036.71 411.068 1037.46 414 1037.46V1037.16ZM406.88 1034.96L407.069 1034.73C405.307 1033.3 404.35 1031.25 404.22 1028.55L403.92 1028.56L403.62 1028.57C403.757 1031.42 404.773 1033.64 406.691 1035.19L406.88 1034.96ZM403.92 1028.56V1028.86H408.32V1028.56V1028.26H403.92V1028.56ZM408.32 1028.56L408.021 1028.58C408.133 1030.07 408.711 1031.3 409.757 1032.26L409.96 1032.04L410.163 1031.82C409.236 1030.97 408.72 1029.88 408.619 1028.54L408.32 1028.56ZM409.96 1032.04L409.76 1032.26C410.816 1033.21 412.227 1033.66 413.96 1033.66V1033.36V1033.06C412.333 1033.06 411.078 1032.63 410.16 1031.82L409.96 1032.04ZM413.96 1033.36V1033.66C415.641 1033.66 416.98 1033.2 417.932 1032.25L417.72 1032.04L417.508 1031.83C416.7 1032.64 415.533 1033.06 413.96 1033.06V1033.36ZM417.72 1032.04L417.935 1032.25C418.876 1031.28 419.34 1030.04 419.34 1028.56H419.04H418.74C418.74 1029.91 418.324 1030.99 417.505 1031.83L417.72 1032.04ZM419.04 1028.56H419.34C419.34 1026.63 418.714 1025.19 417.403 1024.35L417.24 1024.6L417.077 1024.85C418.166 1025.55 418.74 1026.76 418.74 1028.56H419.04ZM417.24 1024.6L417.409 1024.35C416.161 1023.5 414.275 1023.1 411.8 1023.1V1023.4V1023.7C414.232 1023.7 415.972 1024.1 417.071 1024.85L417.24 1024.6ZM411.8 1023.4V1023.1H410.76V1023.4V1023.7H411.8V1023.4ZM410.76 1023.4H411.06V1019.64H410.76H410.46V1023.4H410.76ZM410.76 1019.64V1019.94H411.84V1019.64V1019.34H410.76V1019.64ZM411.84 1019.64L411.844 1019.94C414.027 1019.91 415.731 1019.55 416.918 1018.82L416.76 1018.56L416.602 1018.3C415.549 1018.96 413.973 1019.31 411.836 1019.34L411.84 1019.64ZM416.76 1018.56L416.915 1018.82C418.163 1018.06 418.78 1016.86 418.78 1015.28H418.48H418.18C418.18 1016.68 417.65 1017.67 416.605 1018.3L416.76 1018.56ZM418.48 1015.28H418.78C418.78 1013.93 418.34 1012.83 417.441 1012.02L417.24 1012.24L417.039 1012.46C417.793 1013.14 418.18 1014.07 418.18 1015.28H418.48ZM417.24 1012.24L417.445 1012.02C416.546 1011.18 415.289 1010.78 413.72 1010.78V1011.08V1011.38C415.191 1011.38 416.281 1011.75 417.035 1012.46L417.24 1012.24ZM413.72 1011.08V1010.78C412.176 1010.78 410.933 1011.18 410.035 1012.02L410.24 1012.24L410.445 1012.46C411.2 1011.75 412.278 1011.38 413.72 1011.38V1011.08ZM410.24 1012.24L410.039 1012.02C409.159 1012.81 408.633 1013.81 408.463 1015L408.76 1015.04L409.057 1015.08C409.207 1014.03 409.667 1013.16 410.441 1012.46L410.24 1012.24ZM408.76 1015.04V1014.74H404.32V1015.04V1015.34H408.76V1015.04ZM427.55 1012H427.25V1012.3H427.55V1012ZM427.55 1007.84V1007.54H427.25V1007.84H427.55ZM435.87 1007.84H436.17V1007.54H435.87V1007.84ZM435.87 1037V1037.3H436.17V1037H435.87ZM431.27 1037H430.97V1037.3H431.27V1037ZM431.27 1012H431.57V1011.7H431.27V1012ZM427.55 1012H427.85V1007.84H427.55H427.25V1012H427.55ZM427.55 1007.84V1008.14H435.87V1007.84V1007.54H427.55V1007.84ZM435.87 1007.84H435.57V1037H435.87H436.17V1007.84H435.87ZM435.87 1037V1036.7H431.27V1037V1037.3H435.87V1037ZM431.27 1037H431.57V1012H431.27H430.97V1037H431.27ZM431.27 1012V1011.7H427.55V1012V1012.3H431.27V1012Z" fill="black" mask="url(#path-9-outside-2_1_1514)"/>
<path d="M363.145 197.975L344.98 272H319.675L309.49 226.64L299.095 272H273.79L255.835 197.975H278.095L286.705 248.585L298.36 197.975H320.935L332.275 248.165L340.885 197.975H363.145ZM368.518 242.495C368.518 236.405 369.603 231.085 371.773 226.535C374.013 221.985 377.023 218.485 380.803 216.035C384.653 213.585 388.923 212.36 393.613 212.36C397.673 212.36 401.173 213.165 404.113 214.775C407.053 216.385 409.328 218.555 410.938 221.285V213.095H431.518V272H410.938V263.81C409.328 266.54 407.018 268.71 404.008 270.32C401.068 271.93 397.603 272.735 393.613 272.735C388.923 272.735 384.653 271.51 380.803 269.06C377.023 266.61 374.013 263.11 371.773 258.56C369.603 253.94 368.518 248.585 368.518 242.495ZM410.938 242.495C410.938 238.715 409.888 235.74 407.788 233.57C405.758 231.4 403.238 230.315 400.228 230.315C397.148 230.315 394.593 231.4 392.563 233.57C390.533 235.67 389.518 238.645 389.518 242.495C389.518 246.275 390.533 249.285 392.563 251.525C394.593 253.695 397.148 254.78 400.228 254.78C403.238 254.78 405.758 253.695 407.788 251.525C409.888 249.355 410.938 246.345 410.938 242.495ZM463.825 223.49C466.135 220.13 468.935 217.47 472.225 215.51C475.515 213.55 479.05 212.57 482.83 212.57V234.515H477.055C472.575 234.515 469.25 235.39 467.08 237.14C464.91 238.89 463.825 241.935 463.825 246.275V272H443.245V213.095H463.825V223.49ZM567.173 212.57C574.593 212.57 580.403 214.81 584.603 219.29C588.873 223.77 591.008 229.895 591.008 237.665V272H570.428V240.395C570.428 237.245 569.553 234.795 567.803 233.045C566.053 231.295 563.673 230.42 560.663 230.42C557.653 230.42 555.273 231.295 553.523 233.045C551.773 234.795 550.898 237.245 550.898 240.395V272H530.318V240.395C530.318 237.245 529.443 234.795 527.693 233.045C526.013 231.295 523.668 230.42 520.658 230.42C517.578 230.42 515.163 231.295 513.413 233.045C511.663 234.795 510.788 237.245 510.788 240.395V272H490.208V213.095H510.788V220.865C512.608 218.345 514.953 216.35 517.823 214.88C520.763 213.34 524.123 212.57 527.903 212.57C532.243 212.57 536.093 213.515 539.453 215.405C542.883 217.295 545.578 219.955 547.538 223.385C549.638 220.165 552.403 217.575 555.833 215.615C559.263 213.585 563.043 212.57 567.173 212.57Z" fill="black"/>
<path d="M400.015 573.003C415.469 570.858 429.322 585.782 430.419 600.338C464.137 590.238 483.442 628.004 460.213 651.592C483.968 673.616 467.395 710.765 430.419 703.666C427.339 711.529 421.833 717.796 414.438 721.875C414.491 729.649 414.175 737.392 414.438 745.169C423.857 730.071 439.441 720.915 457.479 720.07C500.86 718.039 482.702 762.769 465.304 779.726C451.112 793.56 433.118 795.729 414.438 795.436V843.883C428.15 847.444 438.106 852.898 445.322 865.862C460.994 861.36 475.285 864.71 488.396 874.451C494.474 872.335 500.22 870.188 506.617 869.268C508.526 862.551 511.66 845.223 517.902 841.641C521.437 839.611 525.366 841.34 527.13 844.912C529.782 850.287 523.383 864.241 521.355 869.891C528.582 872.59 533.995 875.724 539.66 880.972C547.49 874.942 555.363 872.443 565.367 874.451C570.008 866.106 577.998 858.294 587.063 855.078C567.795 854.727 554.89 856.669 539.429 842.519C522.381 826.915 503.916 785.042 542.703 786.354C560.003 786.941 575.289 793.455 587.063 806.146C587.304 800.776 587.093 795.378 587.087 790.003L587.063 760.808C576.688 757.573 568.712 752.391 565.367 741.339C536.332 748.523 517.416 710.053 539.66 696.049C520.132 678.613 534.534 644.812 565.367 652.493C572.887 625.992 606.124 623.028 617.064 651.592C647.48 644.774 662.686 672.132 643.82 696.049C663.824 714.341 644.179 745.533 618.902 740.146C614.036 750.096 611.276 754.974 600.945 759.691C600.863 765.297 601.866 770.925 600.945 776.477C611.59 765.666 625.549 757.506 641.18 758.197C652.614 758.705 662.718 762.328 661.882 775.39C659.822 807.625 633.696 831.962 600.945 829.615C600.458 837.004 600.939 844.859 600.945 852.288C616.154 852.155 628.564 859.756 637.847 871.657C639.807 871.039 644.859 870.491 646.16 869.57C653.242 864.561 649.086 845.766 655.752 841.378C658.996 839.242 663.661 840.409 665.56 843.734C668.679 849.198 664.032 863.246 662.253 869.268C674.671 871.319 682.866 877.704 690.933 886.947C721.365 879.858 745.232 895.881 741.578 928.006C734.511 938.449 706.031 934.103 693.533 934.107L503.499 934.104C484.13 934.104 464.678 934.545 445.322 934.104L130.012 934.075C109.525 934.014 93.7487 938.862 102.44 908.686C108.732 886.842 130.09 880.975 150.161 886.947C157.966 876.972 168.296 869.758 181.657 871.657C186.09 865.822 190.748 860.282 197.352 856.797C201.589 854.56 203.213 855.862 203.525 850.469C168.554 864.924 134.615 831.329 138.837 797.484C141.715 774.41 190.859 789.859 203.525 807.924L203.503 777.036C203.476 771.665 202.976 766.146 203.525 760.808C193.694 758.156 187.226 751.138 184.31 741.339C158.748 747.167 140.542 716.95 156.722 696.049C143.925 676.796 151.578 650.413 175.573 650.205C177.805 650.186 180.538 650.702 182.711 650.315C185.779 649.769 187.773 633.807 205.689 630.644C219.943 628.128 233.95 637.183 236.507 651.592C264.185 645.049 280.003 675.064 263.014 696.049C280.492 720.739 265.586 742.427 236.507 741.339C233.38 752.198 227.95 758.442 216.435 760.808C217.115 766.299 216.489 772.539 216.435 778.126C229.031 767.343 239.797 758.723 257.526 759.639C269.882 760.279 279.444 763.361 278.498 777.308C276.842 801.707 256.624 831.181 229.242 828.512C224.942 828.093 220.769 827.005 216.435 826.65V852.288C220.409 852.675 223.581 853.571 227.279 855.078C226.595 851.662 225.208 845.939 227.528 843.118C237.862 830.552 242.269 860.839 251.17 869.891C263.509 866.364 272.418 868.56 283.617 874.451C288.383 872.109 292.617 869.925 297.918 869.097C304.557 862.811 300.628 842.158 313.034 839.531C317.207 840.441 318.597 841.781 319.939 845.965C318.526 853.948 314.48 861.23 313.034 869.268C322.161 872.008 327.826 875.809 334.549 882.451C340.452 870.015 356.21 868.096 368.397 869.891C375.765 856.139 384.807 848.146 400.015 843.883C400.583 839.581 400.291 835.393 400.015 831.084C364.301 839.634 326.622 807.246 330.064 771.708C331.483 757.066 352.087 757.327 363.058 758.886C378.673 761.102 390.738 771.059 400.015 783.272C401.114 764.707 399.787 743.514 400.015 724.444C386.972 721.717 378.74 715.503 374.325 702.344C338.512 711.698 318.632 673.748 342.048 651.592C316.109 625.395 340.15 589.434 371.116 598.938C375.473 583.999 383.525 574.526 400.015 573.003ZM581.457 826.65C582.883 828.185 584.307 829.673 585.861 831.084C584.673 828.14 583.225 825.603 581.457 822.975C580.39 824.743 580.254 824.918 581.457 826.65Z" fill="black"/>
<path d="M114.764 917.938C118.447 902.585 129.895 893.95 145.476 900.997C147.746 902.023 149.826 904.005 152.328 904.391C157.724 905.222 162.503 893.426 167.783 889.888C175.115 884.971 185.487 888.104 188.932 885.562C192.56 882.886 195.088 875.952 200.82 871.71C226.19 852.928 241.371 885.799 245.903 886.269C249.923 886.684 257.072 882.115 262.611 882.263C271.766 882.509 279.511 890.615 284.65 890.45C289.581 890.289 294.616 881.444 307.127 882.57C324.757 884.156 326.769 901.154 334.512 901.356C342.049 901.553 344.73 877.436 363.606 883.843C378.174 888.788 375.029 886.071 381.399 873.315C391.678 852.722 422.953 851.105 433.04 872.705C440.291 888.236 438.44 884.473 453.466 878.027C461.872 874.421 471.531 877.293 477.113 884.548C487.454 897.991 484.383 895.256 496.493 886.612C508.443 878.083 527.172 884.757 533.426 897.292C534.73 899.904 535.786 905.175 538.109 906.884C548.122 914.251 550.733 901.897 548.394 893.081C554.196 888.551 558.24 888.241 565.286 889.449C574.922 891.101 575.676 884.2 580.53 877.577C592.314 861.5 614.8 863.57 626.162 879.126C638.168 895.563 634.461 885.986 651.996 882.451L654.159 882.819C655.981 894.043 645.457 908.428 642.68 917.938L133.373 917.943C127.172 917.946 120.962 918.157 114.764 917.938Z" fill="#754325"/>
<path d="M651.994 882.443C662.036 881.153 672.318 885.565 678.236 893.753C686.461 905.135 683.776 905.272 697.179 900.894C712.015 896.047 722.194 904.509 727.113 917.93L669.601 917.939C661.304 917.942 650.652 918.624 642.679 917.93C645.456 908.42 655.979 894.034 654.158 882.811L651.994 882.443Z" fill="#582F18"/>
<path d="M380.909 661.64C375.925 652.482 377.696 641.118 385.233 633.913C392.77 626.707 404.2 625.448 413.126 630.838C421.448 635.865 425.729 645.565 423.834 655.1C421.94 664.636 414.277 671.963 404.665 673.427C395.055 674.892 385.556 670.179 380.909 661.64Z" fill="#FFDC1E"/>
<path d="M413.127 630.846C421.449 635.873 425.73 645.573 423.836 655.107C421.941 664.643 414.279 671.97 404.667 673.435C395.056 674.899 385.558 670.187 380.911 661.647C399.053 664.797 414.175 649.392 413.127 630.846Z" fill="#FAA600"/>
<path d="M581.031 712.83C574.968 709.01 571.598 702.079 572.34 694.951C573.081 687.823 577.806 681.734 584.525 679.242C591.245 676.752 598.797 678.293 604.004 683.217C611.044 689.872 611.885 700.785 605.946 708.44C600.007 716.095 589.229 717.994 581.031 712.83Z" fill="#FFDC1E"/>
<path d="M604.004 683.217C611.044 689.872 611.884 700.785 605.946 708.44C600.007 716.095 589.228 717.994 581.031 712.83C596.799 702.591 601.449 704.636 604.004 683.217Z" fill="#FAA600"/>
<path d="M194.119 705.574C188.866 696.55 191.965 684.975 201.024 679.782C210.081 674.591 221.637 677.768 226.767 686.862C231.847 695.868 228.708 707.288 219.736 712.43C210.764 717.573 199.322 714.51 194.119 705.574Z" fill="#FFDC1E"/>
<path d="M226.766 686.855C231.846 695.861 228.708 707.281 219.735 712.423C210.763 717.566 199.321 714.503 194.118 705.567C207.584 704.961 222.262 703.525 226.766 686.855Z" fill="#FAA600"/>
<path d="M462.774 734.176C465.364 733.998 467.934 734.097 470.525 734.176C468.715 758.924 455.123 776.15 430.419 781.341C436.266 774.517 454.658 764.209 452.288 754.483C444.581 741.043 424.025 766.738 417.468 772.833C422.667 748.958 437.049 734.294 462.774 734.176Z" fill="#0DBD75"/>
<path d="M350.177 772.829C368.351 765.609 389.064 788.568 395.906 803.172C388.698 797.895 380.672 788.52 371.994 786.327L371.553 786.448C366.148 787.987 363.448 791.642 365.253 797.151C370.244 803.653 380.789 811.199 386.996 817.843C362.171 817.186 345.399 798.053 343.673 773.76C345.813 773.208 347.983 773.04 350.177 772.829Z" fill="#0DBD75"/>
<path d="M153.426 800.612C175.047 798.813 191.929 809.291 200.049 829.606C193.731 824.662 185.082 815.479 178.238 812.442C174.536 813.593 172.988 814.535 170.953 817.844C168.319 826.519 184.976 833.701 189.853 841.727C175.296 838.63 162.72 833.173 156.173 818.541C154.697 815.242 151.409 803.845 152.541 800.906L153.426 800.612Z" fill="#0DBD75"/>
<path d="M253.837 773.773C257.397 773.589 261.032 773.685 264.592 773.773C264.252 796.376 251.191 811.066 229.14 815.315C234.46 809.901 245.907 802.232 249.324 797.164L249.432 796.772C249.998 794.632 250.241 792.53 248.994 790.574C242.187 779.894 226.36 799.09 217.977 804.733C221.838 788.514 237.283 775.165 253.837 773.773Z" fill="#0DBD75"/>
<path d="M533.333 800.61C546.448 799.572 556.943 801.66 568.486 807.913C566.538 810.295 565.23 812.37 564.193 815.302C555.278 812.124 549.791 820.485 555.974 827.349C559.191 830.922 571.866 838.594 576.503 841.725C551.921 840.385 535.49 825.748 533.333 800.61Z" fill="#0DBD75"/>
<path d="M637.846 772.833C641.053 772.091 644.848 772.447 648.081 772.833C647.601 792.26 634.006 810.562 614.871 815.306C621.629 808.877 636.561 799.086 634.124 789.749C627.066 776.375 610.498 801.918 600.945 807.917C604.542 790.325 619.485 774.244 637.846 772.833Z" fill="#0DBD75"/>
<path d="M388.44 615.479C386.402 610.053 384.25 606.891 385.495 600.729C388.584 585.454 406.755 581.779 414.438 595.199C420.209 603.297 417.33 608.072 412.815 615.479C405.945 614.028 400.21 612.95 393.254 614.756C391.844 615.122 389.635 616.536 388.44 615.479Z" fill="#F96173"/>
<path d="M414.439 595.198C420.211 603.296 417.332 608.07 412.817 615.478C405.947 614.027 400.212 612.949 393.255 614.755C391.845 615.121 389.637 616.535 388.441 615.478C396.423 604.961 413.512 608.134 414.439 595.198Z" fill="#DE0733"/>
<path d="M359.061 644.377C330.282 637.974 351.234 596.662 373.138 616.471C374.856 618.352 376.216 620.339 377.516 622.527C370.926 629.121 366.004 634.682 365.253 644.377H359.061Z" fill="#F96173"/>
<path d="M359.06 644.369C365.561 633.965 356.483 627.253 373.137 616.462C374.855 618.343 376.215 620.33 377.515 622.518C370.925 629.113 366.003 634.673 365.252 644.369H359.06Z" fill="#DE0733"/>
<path d="M438.146 657.159C443.283 657.326 448.144 658.656 452.287 661.768C467.189 683.394 440.193 703.78 430.418 682.914C429.312 681.001 428.124 679.169 426.904 677.331C432.775 671.13 436.064 665.484 438.146 657.159Z" fill="#F96173"/>
<path d="M452.287 661.771C467.189 683.397 440.193 703.783 430.418 682.917C443.997 681.965 450.113 675.229 452.287 661.771Z" fill="#DE0733"/>
<path d="M355.737 689.325C339.471 679.216 343.603 657.651 365.254 658.146C366.439 662.941 368.438 666.945 371.116 671.062C372.967 674.043 374.873 676.284 377.517 678.582C371.42 688.083 367.381 693.126 355.737 689.325Z" fill="#F96173"/>
<path d="M371.116 671.062C372.967 674.043 374.873 676.283 377.517 678.582C371.42 688.083 367.381 693.125 355.737 689.324C355.792 689.241 355.845 689.157 355.9 689.074L356.175 688.663C360.211 682.555 365.918 676.227 371.116 671.062Z" fill="#DE0733"/>
<path d="M425.072 622.52C434.345 609.99 444.165 608.653 454.911 619.754C462.888 635.881 440.765 657.372 435.999 636.996C433.022 631.377 429.605 626.961 425.072 622.52Z" fill="#F96173"/>
<path d="M454.911 619.761C462.888 635.889 440.765 657.379 436 637.004C443.959 631.211 450.769 629.988 454.911 619.761Z" fill="#DE0733"/>
<path d="M410.236 687.365C412.042 686.68 413.946 686.323 415.828 685.904C423.253 712.168 398.322 716.525 389.671 703.654C385.721 698.578 386.752 691.602 388.44 685.904C395.456 687.534 403.053 688.09 410.236 687.365Z" fill="#F96173"/>
<path d="M410.234 687.365C412.041 686.68 413.944 686.323 415.827 685.904C423.251 712.168 398.321 716.525 389.669 703.654C400.278 703.268 410.122 699.701 410.234 687.365Z" fill="#DE0733"/>
<path d="M168.787 687.37C154.054 676.145 173.581 654.066 186.514 667.716C191.687 672.14 185.131 674.647 181.938 680.139C180.135 683.238 179.112 687.034 178.237 690.489C174.994 689.843 171.421 689.523 168.787 687.37Z" fill="#F96173"/>
<path d="M186.512 667.719C191.685 672.143 185.13 674.649 181.936 680.141C180.134 683.24 179.111 687.037 178.235 690.492C174.993 689.846 171.419 689.525 168.786 687.373C174.643 683.991 178.868 673.583 186.512 667.719Z" fill="#DE0733"/>
<path d="M580.005 665.681C572.221 648.718 595.416 636.207 604.144 654.679C606.125 659.478 605.212 662.83 604.144 667.726C601.304 666.445 598.406 665.233 595.617 663.849C590.457 663.624 585.026 664.589 580.005 665.681Z" fill="#F96173"/>
<path d="M604.145 654.679C606.126 659.478 605.213 662.829 604.145 667.726C601.305 666.445 598.406 665.233 595.617 663.849C596.912 661.176 602.005 657.702 604.145 654.679Z" fill="#DE0733"/>
<path d="M201.733 663.847C187.663 654.726 208.966 635.141 219.965 648.677C221.941 651.442 223.615 654.396 225.575 657.163C223.571 659.293 221.771 661.549 219.965 663.847C216.659 663.94 213.298 664.162 210.002 663.847C207.25 663.908 204.487 663.831 201.733 663.847Z" fill="#F96173"/>
<path d="M219.963 648.679C221.939 651.444 223.614 654.398 225.573 657.165C223.57 659.295 221.769 661.551 219.963 663.849C216.657 663.942 213.297 664.164 210 663.849C214.167 659.828 218.129 654.196 219.963 648.679Z" fill="#DE0733"/>
<path d="M614.872 673.495C617.583 670.383 619.268 665.731 623.223 664.036C629.468 661.359 635.645 666.555 637.847 672.111C640.434 682.374 633.901 688.937 623.536 689.323C622.846 687.772 622.19 686.224 621.593 684.635C619.323 680.939 617.03 677.258 614.872 673.495Z" fill="#F96173"/>
<path d="M637.847 672.123C640.434 682.386 633.901 688.949 623.536 689.335C622.846 687.784 622.19 686.236 621.593 684.647C629.772 681.788 632.549 678.572 637.847 672.123Z" fill="#DE0733"/>
<path d="M168.786 703.667C171.949 703.503 175.071 703.563 178.235 703.667L180.142 709.336C183.046 713.667 185.498 717.003 189.85 720.069C185.885 726.092 177.702 732.459 170.95 725.987C162.588 720.139 161.8 710.906 168.786 703.667Z" fill="#F96173"/>
<path d="M180.143 709.331C183.047 713.662 185.498 716.998 189.851 720.064C185.886 726.088 177.703 732.455 170.951 725.983C176.029 721.79 178.381 715.472 180.143 709.331Z" fill="#DE0733"/>
<path d="M552.636 689.332C532.105 676.972 556.33 651.469 568.487 672.119C566.157 675.79 563.635 679.486 560.961 682.915C560.236 685.827 559.399 688.753 558.842 691.702C556.782 690.884 554.729 690.058 552.636 689.332Z" fill="#F96173"/>
<path d="M552.635 689.331C554.96 686.677 557.761 684.414 560.96 682.914C560.236 685.826 559.399 688.752 558.841 691.701C556.781 690.884 554.729 690.057 552.635 689.331Z" fill="#DE0733"/>
<path d="M552.635 703.656C554.709 703.609 556.767 703.597 558.841 703.656C559.692 707.225 561.156 710.511 562.675 713.836C564.685 716.641 566.99 719.315 569.314 721.865C563.16 726.838 557.533 730.853 550.064 725.976C541.408 719.146 542.175 707.5 552.635 703.656Z" fill="#F96173"/>
<path d="M562.675 713.847C564.685 716.651 566.989 719.325 569.314 721.876C563.16 726.848 557.532 730.863 550.064 725.987C555.354 722.498 558.891 718.895 562.675 713.847Z" fill="#DE0733"/>
<path d="M242.533 703.656C245.281 703.613 248.486 703.071 251.169 703.656C263.382 719.197 253.881 729.842 236.506 727.453C235.743 725.955 234.76 724.381 234.206 722.801C230.909 718.985 234.949 718.208 237.458 714.962C240.02 711.648 241.414 707.641 242.533 703.656Z" fill="#DE0733"/>
<path d="M242.533 703.656C245.281 703.613 248.486 703.071 251.169 703.656C250.885 714.05 245.437 722.865 234.206 722.801C230.909 718.985 234.949 718.208 237.458 714.962C240.02 711.648 241.414 707.641 242.533 703.656Z" fill="#F96173"/>
<path d="M623.535 702.34C627.091 703.115 630.681 704.061 634.123 705.238C646.47 714.885 632.627 731.069 619.58 725.982C617.149 724.554 615.457 722.24 613.74 720.063C619.454 715.087 621.342 709.366 623.535 702.34Z" fill="#F96173"/>
<path d="M634.124 705.241C646.471 714.888 632.628 731.072 619.581 725.984C629.298 720.626 632.148 716.669 634.124 705.241Z" fill="#DE0733"/>
<path d="M201.733 728.88C208.188 730.168 213.545 730.594 219.965 728.88C230.692 736.834 212.214 760.318 200.05 742.624C198.145 739.9 197.273 737.337 196.438 734.174C197.915 732.246 200.007 730.603 201.733 728.88Z" fill="#F96173"/>
<path d="M219.962 728.88C230.689 736.834 212.211 760.318 200.047 742.624C210.786 744.268 215.752 738.073 219.962 728.88Z" fill="#DE0733"/>
<path d="M232.297 672.112C237.846 665.397 244.586 660.669 252.539 668.709C259.9 676.226 256.002 690.026 246.142 689.528C244.943 689.467 243.731 689.317 242.532 689.324C239.068 685.125 239.407 678.796 232.297 672.112Z" fill="#F96173"/>
<path d="M252.54 668.708C259.9 676.225 256.002 690.025 246.142 689.527C244.944 689.466 243.731 689.316 242.533 689.324C247.868 683.882 251.414 676.198 252.54 668.708Z" fill="#DE0733"/>
<path d="M576.504 732.713C577.548 731.207 578.656 730.098 580.006 728.88C585.13 730.019 590.398 730.159 595.618 729.94C598.743 729.389 601.901 729.153 605.061 728.88C604.986 740.879 596.325 753.529 584.439 745.161C580.071 741.969 578.321 737.599 576.504 732.713Z" fill="#F96173"/>
<path d="M595.616 729.94C598.741 729.389 601.9 729.153 605.06 728.88C604.985 740.879 596.324 753.529 584.438 745.161C590.381 741.953 595.009 736.983 595.616 729.94Z" fill="#DE0733"/>
<path d="M568.487 807.92C573.554 812.294 578.517 816.844 581.457 822.971C580.39 824.739 580.253 824.914 581.457 826.646C575.478 823.054 570.532 818.399 564.194 815.309C565.231 812.377 566.539 810.302 568.487 807.92Z" fill="#029F5D"/>
<path d="M607.758 395.771C633.753 394.33 655.985 414.255 657.387 440.253C658.79 466.25 638.83 488.451 612.831 489.814C586.887 491.174 564.745 471.266 563.345 445.324C561.946 419.384 581.819 397.212 607.758 395.771Z" fill="black"/>
<path d="M591.534 468.737C559.635 444.363 590.361 396.898 625.091 414.501C665.893 436.066 626.724 497.258 591.534 468.737Z" fill="#FFDC1E"/>
<path d="M625.091 414.508C665.892 436.073 626.724 497.265 591.533 468.743C600.068 468.695 606.352 469.88 614.384 466.119C631.75 457.992 638.256 438.868 629.366 421.947C628.029 419.401 626.244 417.165 625.091 414.508Z" fill="#FD9507"/>
<path d="M189.195 577.526C191.93 573.852 196.059 564.597 200.471 563.279C203.813 562.283 208.787 563.688 209.636 567.506C210.755 572.535 204.617 579.926 201.994 584.135C202.419 587.017 206.118 591.74 207.683 594.224C206.914 597.74 205.624 599.739 203.102 602.186C194.673 604.603 192.591 597.806 189.119 591.396C182.012 591.801 162.264 593.49 170.487 580.149C175.518 577.127 183.427 578.218 189.195 577.526Z" fill="black"/>
<path d="M614.83 605.812C619.792 602.123 628.151 603.952 633.979 604.417C636.105 599.617 639.724 591.481 644.898 590.022C648.609 588.976 652.578 591.912 653.474 595.478C654.558 599.778 649.679 605.744 647.644 609.354C646.821 610.105 646.391 610.955 645.831 611.907C648.672 617.558 649.933 620.942 645.649 626.292C638.275 628.928 635.469 625.624 632.011 619.28C625.738 618.692 618.62 619.771 613.648 615.264C612.812 611.531 612.409 609.192 614.83 605.812Z" fill="black"/>
<path d="M608.35 505.117C612.167 504.89 614.748 505.73 617.014 509.027C618.202 516.079 618.105 530.603 617.014 537.781C615.65 539.458 614.325 540.218 612.381 541.152C609.077 541.307 605.042 540.679 603.803 537.059C602.053 531.944 599.31 507.948 608.35 505.117Z" fill="black"/>
<path d="M658.166 483.516C662.464 483.879 693.533 509.756 671.969 513.675C667.234 512.641 636.374 488.575 658.166 483.516Z" fill="black"/>
<path d="M670.188 372.611C692.906 371.703 665.919 397.457 659.336 401.564C637.621 399.121 662.434 376.404 670.188 372.611Z" fill="black"/>
<path d="M676.299 434.283C683.94 433.792 692.053 434.365 699.754 434.283C706.412 438.278 706.04 445.399 699.754 449.271C696.231 449.881 681.125 449.721 677.725 449.059C668.838 447.324 669.64 438.124 676.299 434.283Z" fill="black"/>
<path d="M608.35 349.016C612.774 348.87 615.082 349.651 617.58 353.587C618.97 361.036 620.96 377.914 612.381 381.737C599.477 384.433 601.734 357.985 603.679 352.832C604.511 350.624 606.319 349.908 608.35 349.016Z" fill="black"/>
<path d="M562.794 483.51C568.171 482.77 574.04 487.844 570.83 493.384C568.678 497.099 556.227 510.753 552.321 511.85C529.685 510.162 556.675 486.127 562.794 483.51Z" fill="black"/>
<path d="M523.793 434.279C529.466 434.239 542.019 433.177 546.72 435.503C553.82 439.017 549.895 447.803 543.544 449.267C538.112 449.08 523.944 450.463 519.839 447.883C514.277 444.391 517.618 434.967 523.793 434.279Z" fill="black"/>
<path d="M549.323 372.604C553.984 372.884 582.289 395.977 562.794 401.557C557.586 400.399 528.808 377.313 549.323 372.604Z" fill="black"/>
<path d="M531.455 549.553C536.415 549.263 541.565 551.959 541.713 557.641C541.948 566.673 527.571 566.393 523.128 570.949C513.597 580.73 521.785 596.918 509.19 596.988C499.634 597.041 501.811 576.832 480.493 577.211C476.884 578.048 474.008 580.42 470.514 581.281C460.855 583.662 453.514 564.212 478.877 560.809C488.668 559.495 497.258 562.893 504.942 568.768C511.616 556.749 517.474 552.477 531.455 549.553Z" fill="black"/>
<path d="M313.359 544.993C317.959 544.791 322.195 546.35 323.62 551.202C325.968 559.199 311.595 563.635 307.682 571.026C303.448 579.023 309.822 585.396 311.958 592.77L311.814 593.322C309.796 600.816 304.581 602.998 297.333 600.774C296.04 598.688 295.115 596.298 294.106 594.059C286.443 590.524 279.898 588.429 271.789 592.77C267.102 595.859 266.338 598.911 260.293 600.774C239.589 592.878 264.911 566.191 290.241 574.999C290.952 561.068 300.239 549.651 313.359 544.993Z" fill="black"/>
<path d="M407.805 448.526C412.02 448.328 415.251 449.355 417.028 453.483C423.792 469.185 387.263 465.767 397.409 490.047C395.753 494.217 392.817 498.299 387.784 498.222C378.478 498.076 379.999 478.854 359.177 479.068C350.177 481.283 343.277 490.207 339.262 475.405C344.081 457.883 369.491 460.745 381.995 469.252C389.216 457.918 394.412 451.93 407.805 448.526Z" fill="black"/>
</svg>
