<svg width="849" height="1183" viewBox="0 0 849 1183" fill="none" xmlns="http://www.w3.org/2000/svg">
<rect x="5" y="5" width="839" height="1173" rx="45" fill="white"/>
<rect x="5" y="5" width="839" height="1173" rx="45" stroke="black" stroke-width="10"/>
<circle cx="786.5" cy="1124.5" r="11.5" fill="black"/>
<circle cx="786.5" cy="59.5" r="11.5" fill="black"/>
<path d="M77 1124.5C77 1130.85 71.8513 1136 65.5 1136C59.1487 1136 54 1130.85 54 1124.5C54 1118.15 59.1487 1113 65.5 1113C71.8513 1113 77 1118.15 77 1124.5Z" fill="black"/>
<path d="M77 59.5C77 65.8513 71.8513 71 65.5 71C59.1487 71 54 65.8513 54 59.5C54 53.1487 59.1487 48 65.5 48C71.8513 48 77 53.1487 77 59.5Z" fill="black"/>
<mask id="path-6-inside-1_1_3248" fill="white">
<path d="M708 48C713.523 48 717.934 52.4996 718.616 57.9801C723.122 94.1833 751.817 122.878 788.02 127.384C793.5 128.066 798 132.477 798 138V1046C798 1051.52 793.5 1055.93 788.02 1056.62C751.817 1061.12 723.122 1089.82 718.616 1126.02C717.934 1131.5 713.523 1136 708 1136H141C135.477 1136 131.066 1131.5 130.384 1126.02C125.878 1089.82 97.1833 1061.12 60.9801 1056.62C55.4996 1055.93 51 1051.52 51 1046V138C51 132.477 55.4996 128.066 60.9801 127.384C97.1833 122.878 125.878 94.1833 130.384 57.9801C131.066 52.4996 135.477 48 141 48H708Z"/>
</mask>
<path d="M708 48C713.523 48 717.934 52.4996 718.616 57.9801C723.122 94.1833 751.817 122.878 788.02 127.384C793.5 128.066 798 132.477 798 138V1046C798 1051.52 793.5 1055.93 788.02 1056.62C751.817 1061.12 723.122 1089.82 718.616 1126.02C717.934 1131.5 713.523 1136 708 1136H141C135.477 1136 131.066 1131.5 130.384 1126.02C125.878 1089.82 97.1833 1061.12 60.9801 1056.62C55.4996 1055.93 51 1051.52 51 1046V138C51 132.477 55.4996 128.066 60.9801 127.384C97.1833 122.878 125.878 94.1833 130.384 57.9801C131.066 52.4996 135.477 48 141 48H708Z" fill="#77B866"/>
<path d="M130.384 1126.02L138.322 1125.03L130.384 1126.02ZM718.616 1126.02L710.678 1125.03L718.616 1126.02ZM788.02 1056.62L789.008 1064.56L788.02 1056.62ZM718.616 57.9801L726.555 56.9922L718.616 57.9801ZM718.616 57.9801L710.678 58.9681C715.635 98.8063 747.194 130.365 787.032 135.322L788.02 127.384L789.008 119.445C756.44 115.392 730.608 89.5603 726.555 56.9922L718.616 57.9801ZM798 138H790V1046H798H806V138H798ZM788.02 1056.62L787.032 1048.68C747.194 1053.64 715.635 1085.19 710.678 1125.03L718.616 1126.02L726.555 1127.01C730.608 1094.44 756.44 1068.61 789.008 1064.56L788.02 1056.62ZM708 1136V1128H141V1136V1144H708V1136ZM130.384 1126.02L138.322 1125.03C133.365 1085.19 101.806 1053.64 61.9681 1048.68L60.9801 1056.62L59.9922 1064.56C92.5603 1068.61 118.392 1094.44 122.445 1127.01L130.384 1126.02ZM51 1046H59V138H51H43V1046H51ZM60.9801 127.384L61.9681 135.322C101.806 130.365 133.365 98.8063 138.322 58.9681L130.384 57.9801L122.445 56.9922C118.392 89.5603 92.5603 115.392 59.9922 119.445L60.9801 127.384ZM141 48V56H708V48V40H141V48ZM130.384 57.9801L138.322 58.9681C138.438 58.0389 138.872 57.2306 139.427 56.6958C139.954 56.1887 140.494 56 141 56V48V40C130.84 40 123.547 48.1329 122.445 56.9922L130.384 57.9801ZM51 138H59C59 137.494 59.1887 136.954 59.6958 136.427C60.2306 135.872 61.0389 135.438 61.9681 135.322L60.9801 127.384L59.9922 119.445C51.1329 120.547 43 127.84 43 138H51ZM60.9801 1056.62L61.9681 1048.68C61.0389 1048.56 60.2306 1048.13 59.6958 1047.57C59.1887 1047.05 59 1046.51 59 1046H51H43C43 1056.16 51.1329 1063.45 59.9922 1064.56L60.9801 1056.62ZM141 1136V1128C140.494 1128 139.954 1127.81 139.427 1127.3C138.872 1126.77 138.438 1125.96 138.322 1125.03L130.384 1126.02L122.445 1127.01C123.547 1135.87 130.84 1144 141 1144V1136ZM718.616 1126.02L710.678 1125.03C710.562 1125.96 710.128 1126.77 709.573 1127.3C709.046 1127.81 708.506 1128 708 1128V1136V1144C718.16 1144 725.453 1135.87 726.555 1127.01L718.616 1126.02ZM798 1046H790C790 1046.51 789.811 1047.05 789.304 1047.57C788.769 1048.13 787.961 1048.56 787.032 1048.68L788.02 1056.62L789.008 1064.56C797.867 1063.45 806 1056.16 806 1046H798ZM788.02 127.384L787.032 135.322C787.961 135.438 788.769 135.872 789.304 136.427C789.811 136.954 790 137.494 790 138H798H806C806 127.84 797.867 120.547 789.008 119.445L788.02 127.384ZM718.616 57.9801L726.555 56.9922C725.453 48.1329 718.16 40 708 40V48V56C708.506 56 709.046 56.1887 709.573 56.6958C710.128 57.2306 710.562 58.0389 710.678 58.9681L718.616 57.9801Z" fill="black" mask="url(#path-6-inside-1_1_3248)"/>
<path d="M690 102C695.523 102 699.911 106.512 700.837 111.957C705.019 136.563 724.437 155.981 749.043 160.163C754.488 161.089 759 165.477 759 171V1014C759 1019.52 754.488 1023.91 749.043 1024.84C724.711 1028.97 705.454 1048 700.984 1072.22C699.993 1077.59 695.633 1082 690.175 1082H158.825C153.367 1082 149.007 1077.59 148.016 1072.22C143.546 1048 124.288 1028.97 99.9568 1024.84C94.5121 1023.91 90 1019.52 90 1014V171C90 165.477 94.512 161.089 99.9568 160.163C124.563 155.981 143.981 136.563 148.163 111.957C149.089 106.512 153.477 102 159 102H690Z" fill="#A3CC98"/>
<mask id="path-9-outside-2_1_3248" maskUnits="userSpaceOnUse" x="406" y="1006" width="37" height="32" fill="black">
<rect fill="white" x="406" y="1006" width="37" height="32"/>
<path d="M406.8 1012V1007.84H415.12V1037H410.52V1012H406.8ZM437.064 1014.6C436.771 1013.37 436.238 1012.45 435.464 1011.84C434.691 1011.23 433.611 1010.92 432.224 1010.92C430.118 1010.92 428.544 1011.73 427.504 1013.36C426.464 1014.96 425.918 1017.63 425.864 1021.36C426.558 1020.19 427.571 1019.28 428.904 1018.64C430.238 1018 431.678 1017.68 433.224 1017.68C434.984 1017.68 436.531 1018.07 437.864 1018.84C439.224 1019.59 440.278 1020.68 441.024 1022.12C441.798 1023.56 442.184 1025.28 442.184 1027.28C442.184 1029.15 441.811 1030.81 441.064 1032.28C440.344 1033.75 439.264 1034.91 437.824 1035.76C436.384 1036.59 434.651 1037 432.624 1037C429.878 1037 427.718 1036.4 426.144 1035.2C424.598 1033.97 423.504 1032.25 422.864 1030.04C422.251 1027.83 421.944 1025.07 421.944 1021.76C421.944 1012 425.384 1007.12 432.264 1007.12C434.931 1007.12 437.024 1007.84 438.544 1009.28C440.091 1010.72 440.998 1012.49 441.264 1014.6H437.064ZM432.224 1021.52C430.598 1021.52 429.211 1022.01 428.064 1023C426.944 1023.96 426.384 1025.36 426.384 1027.2C426.384 1029.04 426.904 1030.51 427.944 1031.6C429.011 1032.67 430.491 1033.2 432.384 1033.2C434.064 1033.2 435.384 1032.68 436.344 1031.64C437.331 1030.6 437.824 1029.21 437.824 1027.48C437.824 1025.67 437.344 1024.23 436.384 1023.16C435.451 1022.07 434.064 1021.52 432.224 1021.52Z"/>
</mask>
<path d="M406.8 1012V1007.84H415.12V1037H410.52V1012H406.8ZM437.064 1014.6C436.771 1013.37 436.238 1012.45 435.464 1011.84C434.691 1011.23 433.611 1010.92 432.224 1010.92C430.118 1010.92 428.544 1011.73 427.504 1013.36C426.464 1014.96 425.918 1017.63 425.864 1021.36C426.558 1020.19 427.571 1019.28 428.904 1018.64C430.238 1018 431.678 1017.68 433.224 1017.68C434.984 1017.68 436.531 1018.07 437.864 1018.84C439.224 1019.59 440.278 1020.68 441.024 1022.12C441.798 1023.56 442.184 1025.28 442.184 1027.28C442.184 1029.15 441.811 1030.81 441.064 1032.28C440.344 1033.75 439.264 1034.91 437.824 1035.76C436.384 1036.59 434.651 1037 432.624 1037C429.878 1037 427.718 1036.4 426.144 1035.2C424.598 1033.97 423.504 1032.25 422.864 1030.04C422.251 1027.83 421.944 1025.07 421.944 1021.76C421.944 1012 425.384 1007.12 432.264 1007.12C434.931 1007.12 437.024 1007.84 438.544 1009.28C440.091 1010.72 440.998 1012.49 441.264 1014.6H437.064ZM432.224 1021.52C430.598 1021.52 429.211 1022.01 428.064 1023C426.944 1023.96 426.384 1025.36 426.384 1027.2C426.384 1029.04 426.904 1030.51 427.944 1031.6C429.011 1032.67 430.491 1033.2 432.384 1033.2C434.064 1033.2 435.384 1032.68 436.344 1031.64C437.331 1030.6 437.824 1029.21 437.824 1027.48C437.824 1025.67 437.344 1024.23 436.384 1023.16C435.451 1022.07 434.064 1021.52 432.224 1021.52Z" fill="black"/>
<path d="M406.8 1012H406.5V1012.3H406.8V1012ZM406.8 1007.84V1007.54H406.5V1007.84H406.8ZM415.12 1007.84H415.42V1007.54H415.12V1007.84ZM415.12 1037V1037.3H415.42V1037H415.12ZM410.52 1037H410.22V1037.3H410.52V1037ZM410.52 1012H410.82V1011.7H410.52V1012ZM406.8 1012H407.1V1007.84H406.8H406.5V1012H406.8ZM406.8 1007.84V1008.14H415.12V1007.84V1007.54H406.8V1007.84ZM415.12 1007.84H414.82V1037H415.12H415.42V1007.84H415.12ZM415.12 1037V1036.7H410.52V1037V1037.3H415.12V1037ZM410.52 1037H410.82V1012H410.52H410.22V1037H410.52ZM410.52 1012V1011.7H406.8V1012V1012.3H410.52V1012ZM437.064 1014.6L436.773 1014.67L436.828 1014.9H437.064V1014.6ZM435.464 1011.84L435.651 1011.6L435.464 1011.84ZM427.504 1013.36L427.756 1013.52L427.757 1013.52L427.504 1013.36ZM425.864 1021.36L425.564 1021.36L425.548 1022.48L426.123 1021.51L425.864 1021.36ZM437.864 1018.84L437.714 1019.1L437.72 1019.1L437.864 1018.84ZM441.024 1022.12L440.758 1022.26L440.76 1022.26L441.024 1022.12ZM441.064 1032.28L440.797 1032.14L440.795 1032.15L441.064 1032.28ZM437.824 1035.76L437.974 1036.02L437.977 1036.02L437.824 1035.76ZM426.144 1035.2L425.958 1035.44L425.962 1035.44L426.144 1035.2ZM422.864 1030.04L422.575 1030.12L422.576 1030.12L422.864 1030.04ZM438.544 1009.28L438.338 1009.5L438.34 1009.5L438.544 1009.28ZM441.264 1014.6V1014.9H441.605L441.562 1014.56L441.264 1014.6ZM428.064 1023L428.26 1023.23L428.26 1023.23L428.064 1023ZM427.944 1031.6L427.727 1031.81L427.732 1031.81L427.944 1031.6ZM436.344 1031.64L436.127 1031.43L436.124 1031.44L436.344 1031.64ZM436.384 1023.16L436.156 1023.35L436.161 1023.36L436.384 1023.16ZM437.064 1014.6L437.356 1014.53C437.052 1013.26 436.49 1012.27 435.651 1011.6L435.464 1011.84L435.278 1012.08C435.986 1012.64 436.49 1013.49 436.773 1014.67L437.064 1014.6ZM435.464 1011.84L435.651 1011.6C434.807 1010.94 433.652 1010.62 432.224 1010.62V1010.92V1011.22C433.57 1011.22 434.575 1011.52 435.278 1012.08L435.464 1011.84ZM432.224 1010.92V1010.62C430.026 1010.62 428.352 1011.48 427.252 1013.2L427.504 1013.36L427.757 1013.52C428.736 1011.99 430.209 1011.22 432.224 1011.22V1010.92ZM427.504 1013.36L427.253 1013.2C426.164 1014.87 425.618 1017.61 425.564 1021.36L425.864 1021.36L426.164 1021.36C426.218 1017.64 426.764 1015.05 427.756 1013.52L427.504 1013.36ZM425.864 1021.36L426.123 1021.51C426.783 1020.39 427.75 1019.53 429.034 1018.91L428.904 1018.64L428.775 1018.37C427.392 1019.03 426.332 1019.98 425.606 1021.21L425.864 1021.36ZM428.904 1018.64L429.034 1018.91C430.325 1018.29 431.721 1017.98 433.224 1017.98V1017.68V1017.38C431.635 1017.38 430.15 1017.71 428.775 1018.37L428.904 1018.64ZM433.224 1017.68V1017.98C434.939 1017.98 436.432 1018.36 437.714 1019.1L437.864 1018.84L438.015 1018.58C436.63 1017.78 435.03 1017.38 433.224 1017.38V1017.68ZM437.864 1018.84L437.72 1019.1C439.025 1019.82 440.037 1020.87 440.758 1022.26L441.024 1022.12L441.291 1021.98C440.518 1020.49 439.423 1019.35 438.009 1018.58L437.864 1018.84ZM441.024 1022.12L440.76 1022.26C441.505 1023.65 441.884 1025.32 441.884 1027.28H442.184H442.484C442.484 1025.24 442.09 1023.47 441.289 1021.98L441.024 1022.12ZM442.184 1027.28H441.884C441.884 1029.11 441.52 1030.72 440.797 1032.14L441.064 1032.28L441.332 1032.42C442.103 1030.9 442.484 1029.19 442.484 1027.28H442.184ZM441.064 1032.28L440.795 1032.15C440.101 1033.56 439.063 1034.68 437.671 1035.5L437.824 1035.76L437.977 1036.02C439.466 1035.14 440.587 1033.93 441.334 1032.41L441.064 1032.28ZM437.824 1035.76L437.675 1035.5C436.29 1036.3 434.61 1036.7 432.624 1036.7V1037V1037.3C434.692 1037.3 436.479 1036.88 437.974 1036.02L437.824 1035.76ZM432.624 1037V1036.7C429.918 1036.7 427.83 1036.11 426.326 1034.96L426.144 1035.2L425.962 1035.44C427.605 1036.69 429.837 1037.3 432.624 1037.3V1037ZM426.144 1035.2L426.331 1034.96C424.841 1033.78 423.778 1032.12 423.153 1029.96L422.864 1030.04L422.576 1030.12C423.231 1032.39 424.355 1034.16 425.958 1035.44L426.144 1035.2ZM422.864 1030.04L423.153 1029.96C422.55 1027.78 422.244 1025.05 422.244 1021.76H421.944H421.644C421.644 1025.08 421.952 1027.87 422.575 1030.12L422.864 1030.04ZM421.944 1021.76H422.244C422.244 1016.91 423.101 1013.32 424.77 1010.95C426.424 1008.61 428.905 1007.42 432.264 1007.42V1007.12V1006.82C428.744 1006.82 426.065 1008.07 424.279 1010.61C422.507 1013.12 421.644 1016.85 421.644 1021.76H421.944ZM432.264 1007.12V1007.42C434.876 1007.42 436.888 1008.12 438.338 1009.5L438.544 1009.28L438.751 1009.06C437.161 1007.56 434.986 1006.82 432.264 1006.82V1007.12ZM438.544 1009.28L438.34 1009.5C439.835 1010.89 440.709 1012.6 440.967 1014.64L441.264 1014.6L441.562 1014.56C441.287 1012.39 440.347 1010.55 438.749 1009.06L438.544 1009.28ZM441.264 1014.6V1014.3H437.064V1014.6V1014.9H441.264V1014.6ZM432.224 1021.52V1021.22C430.532 1021.22 429.074 1021.74 427.869 1022.77L428.064 1023L428.26 1023.23C429.348 1022.29 430.664 1021.82 432.224 1021.82V1021.52ZM428.064 1023L427.869 1022.77C426.667 1023.8 426.084 1025.3 426.084 1027.2H426.384H426.684C426.684 1025.42 427.222 1024.12 428.26 1023.23L428.064 1023ZM426.384 1027.2H426.084C426.084 1029.1 426.623 1030.65 427.727 1031.81L427.944 1031.6L428.162 1031.39C427.186 1030.37 426.684 1028.98 426.684 1027.2H426.384ZM427.944 1031.6L427.732 1031.81C428.869 1032.95 430.433 1033.5 432.384 1033.5V1033.2V1032.9C430.549 1032.9 429.153 1032.38 428.157 1031.39L427.944 1031.6ZM432.384 1033.2V1033.5C434.131 1033.5 435.537 1032.96 436.565 1031.84L436.344 1031.64L436.124 1031.44C435.231 1032.4 433.998 1032.9 432.384 1032.9V1033.2ZM436.344 1031.64L436.562 1031.85C437.612 1030.74 438.124 1029.27 438.124 1027.48H437.824H437.524C437.524 1029.15 437.05 1030.46 436.127 1031.43L436.344 1031.64ZM437.824 1027.48H438.124C438.124 1025.61 437.629 1024.09 436.607 1022.96L436.384 1023.16L436.161 1023.36C437.06 1024.36 437.524 1025.72 437.524 1027.48H437.824ZM436.384 1023.16L436.613 1022.97C435.607 1021.79 434.126 1021.22 432.224 1021.22V1021.52V1021.82C434.003 1021.82 435.295 1022.35 436.156 1023.35L436.384 1023.16Z" fill="black" mask="url(#path-9-outside-2_1_3248)"/>
<path d="M273.635 197.975V214.355H253.895V272H233.315V214.355H213.785V197.975H273.635ZM308.654 272.735C302.774 272.735 297.489 271.51 292.799 269.06C288.179 266.61 284.539 263.11 281.879 258.56C279.219 254.01 277.889 248.655 277.889 242.495C277.889 236.405 279.219 231.085 281.879 226.535C284.609 221.985 288.284 218.485 292.904 216.035C297.594 213.585 302.879 212.36 308.759 212.36C314.639 212.36 319.889 213.585 324.509 216.035C329.199 218.485 332.874 221.985 335.534 226.535C338.264 231.085 339.629 236.405 339.629 242.495C339.629 248.585 338.264 253.94 335.534 258.56C332.874 263.11 329.199 266.61 324.509 269.06C319.819 271.51 314.534 272.735 308.654 272.735ZM308.654 254.885C311.524 254.885 313.904 253.835 315.794 251.735C317.754 249.565 318.734 246.485 318.734 242.495C318.734 238.505 317.754 235.46 315.794 233.36C313.904 231.26 311.559 230.21 308.759 230.21C305.959 230.21 303.614 231.26 301.724 233.36C299.834 235.46 298.889 238.505 298.889 242.495C298.889 246.555 299.799 249.635 301.619 251.735C303.439 253.835 305.784 254.885 308.654 254.885ZM424.967 212.57C432.387 212.57 438.197 214.81 442.397 219.29C446.667 223.77 448.802 229.895 448.802 237.665V272H428.222V240.395C428.222 237.245 427.347 234.795 425.597 233.045C423.847 231.295 421.467 230.42 418.457 230.42C415.447 230.42 413.067 231.295 411.317 233.045C409.567 234.795 408.692 237.245 408.692 240.395V272H388.112V240.395C388.112 237.245 387.237 234.795 385.487 233.045C383.807 231.295 381.462 230.42 378.452 230.42C375.372 230.42 372.957 231.295 371.207 233.045C369.457 234.795 368.582 237.245 368.582 240.395V272H348.002V213.095H368.582V220.865C370.402 218.345 372.747 216.35 375.617 214.88C378.557 213.34 381.917 212.57 385.697 212.57C390.037 212.57 393.887 213.515 397.247 215.405C400.677 217.295 403.372 219.955 405.332 223.385C407.432 220.165 410.197 217.575 413.627 215.615C417.057 213.585 420.837 212.57 424.967 212.57ZM456.717 242.495C456.717 236.405 457.802 231.085 459.972 226.535C462.212 221.985 465.222 218.485 469.002 216.035C472.852 213.585 477.122 212.36 481.812 212.36C485.872 212.36 489.372 213.165 492.312 214.775C495.252 216.385 497.527 218.555 499.137 221.285V213.095H519.717V272H499.137V263.81C497.527 266.54 495.217 268.71 492.207 270.32C489.267 271.93 485.802 272.735 481.812 272.735C477.122 272.735 472.852 271.51 469.002 269.06C465.222 266.61 462.212 263.11 459.972 258.56C457.802 253.94 456.717 248.585 456.717 242.495ZM499.137 242.495C499.137 238.715 498.087 235.74 495.987 233.57C493.957 231.4 491.437 230.315 488.427 230.315C485.347 230.315 482.792 231.4 480.762 233.57C478.732 235.67 477.717 238.645 477.717 242.495C477.717 246.275 478.732 249.285 480.762 251.525C482.792 253.695 485.347 254.78 488.427 254.78C491.437 254.78 493.957 253.695 495.987 251.525C498.087 249.355 499.137 246.345 499.137 242.495ZM566.199 254.465V272H557.274C542.224 272 534.699 264.545 534.699 249.635V230.21H527.454V213.095H534.699V198.815H555.384V213.095H566.094V230.21H555.384V249.95C555.384 251.56 555.734 252.715 556.434 253.415C557.204 254.115 558.464 254.465 560.214 254.465H566.199ZM603.044 272.735C597.164 272.735 591.879 271.51 587.189 269.06C582.569 266.61 578.929 263.11 576.269 258.56C573.609 254.01 572.279 248.655 572.279 242.495C572.279 236.405 573.609 231.085 576.269 226.535C578.999 221.985 582.674 218.485 587.294 216.035C591.984 213.585 597.269 212.36 603.149 212.36C609.029 212.36 614.279 213.585 618.899 216.035C623.589 218.485 627.264 221.985 629.924 226.535C632.654 231.085 634.019 236.405 634.019 242.495C634.019 248.585 632.654 253.94 629.924 258.56C627.264 263.11 623.589 266.61 618.899 269.06C614.209 271.51 608.924 272.735 603.044 272.735ZM603.044 254.885C605.914 254.885 608.294 253.835 610.184 251.735C612.144 249.565 613.124 246.485 613.124 242.495C613.124 238.505 612.144 235.46 610.184 233.36C608.294 231.26 605.949 230.21 603.149 230.21C600.349 230.21 598.004 231.26 596.114 233.36C594.224 235.46 593.279 238.505 593.279 242.495C593.279 246.555 594.189 249.635 596.009 251.735C597.829 253.835 600.174 254.885 603.044 254.885Z" fill="black"/>
<path d="M421.525 387.146C442.975 384.925 448.014 408.492 454.2 423.79C473.007 421.782 491.123 425.795 506.232 437.464C514.924 434.817 521.723 432.067 529.537 427.2C531.778 425.905 536.755 420.758 539.058 420.455C555.364 418.311 537.644 448.225 536.123 451.142C585.499 465.985 608.142 515.523 606.855 564.415C625.036 564.435 631.185 567.776 646.275 575.07C661.404 571.977 673.326 555.162 676.437 555.27C690.065 555.743 672.99 583.262 668.418 589.329C695.453 591.62 709.201 603.394 724.727 625.765C786.129 715.023 697.737 819.151 597.425 822.347C591.313 822.541 584.444 822.672 578.492 821.535C573.94 826.483 570.502 833.431 566.001 838.789C524.41 888.303 452.656 909.064 391.679 887.839C344.597 870.547 327.77 843.23 310.134 800.05C304.051 802.123 294.275 803.628 287.652 804.127C75.9236 820.106 56.2139 566.363 177.968 556.554C174.222 552.22 163.887 543.058 168.013 537.054C171.916 531.672 177.619 537.258 181.875 538.73C199.02 544.658 215.962 536.369 232.883 533.25C229.375 530.038 221.341 524.099 220.509 519.813C215.483 493.903 261.614 477.122 275.209 529.316C278.267 529.046 280.477 528.919 283.508 529.316C283.131 496.987 314.623 458.633 345.775 450.458C350.263 449.28 354.682 448.165 359.135 447C348.486 436.877 339.861 414.451 363.329 428.064C378.218 436.701 397.763 433.08 413.808 430.053C408.89 423.179 399.324 415.773 396.987 408.181C400.124 396.11 409.448 389.024 421.525 387.146ZM135.522 674.424C140.164 672.456 139.282 669.701 138.061 665.29C133.559 649.014 137.226 632.078 144.551 617.216C146.82 612.562 150.666 605.744 142.224 605.962C128.629 617.748 119.363 671.493 135.522 674.424ZM337.854 756.425L337.272 755.944C338.848 752.621 333.678 758.458 331.086 749.987C330.768 751.561 330.71 751.687 329.674 752.915C323.771 768.167 328.637 791.19 334.626 805.987C336.774 811.295 343.483 807.352 343.246 804.968C341.285 785.276 333.81 782.112 337.854 756.425ZM463.092 496.551C447.562 517.042 436.926 531.507 409.543 537.48C390.767 541.575 408.978 513.24 412.429 500.796C406.317 502.166 346.727 517.157 363.876 495.498C369.293 488.658 374.031 480.042 382.055 476.071C384.501 472.686 384.88 472.431 388.285 470.257C379.692 465.346 375.06 462.834 367.602 456.153C362.99 456.987 357.073 458.344 352.761 459.926C323.892 465.017 302.938 490.915 295.728 518.325C294.41 521.339 293.425 526.936 292.755 530.273C302.746 531.728 308.399 533.977 317.532 537.973C320.617 539.324 327.502 539.056 330.942 540.077C337.845 541.518 343.39 544.259 349.772 546.756C353.036 548.83 360.315 554.168 363.18 555.364C380.521 556.072 406.716 587.843 413.808 602.469C416.584 607.954 419.277 615.357 421.525 621.225C427.846 621.303 438.402 621.17 444.597 620.219C452.361 619.821 460.781 616.378 469.356 616.123C481.388 602.176 495.254 594.896 512.916 590.362C511.252 586.5 509.939 583.492 508.652 579.479C503.785 563.854 503.921 546.638 516.607 569.154C518.653 573.027 520.633 576.219 523.558 579.479C536.081 577.034 544.6 576.1 557.489 575.07C534.956 562.37 550.52 529.845 573.713 538.197C586.08 542.65 591.137 555.29 596.553 566.078C601.918 530.473 584.909 495.236 557.489 473.098C550.735 468.279 543.654 465.063 536.123 461.776C533.767 461.209 530.9 460.597 528.616 459.926C520.039 467.586 512.941 470.468 503.617 476.071C505.404 477.894 508.818 482.483 510.277 483.74C522.904 504.286 517.587 546.343 506.347 525.822C496.529 507.897 482.633 499.565 463.092 496.551ZM375.078 449.241C375.964 448.168 377.53 445.836 377.833 444.505L376.314 443.98L378.242 443.492C374.519 442.637 369.78 441.41 366.085 440.827C368.688 443.48 372.178 446.844 375.078 449.241ZM520.902 444.946C523.869 444.214 523.696 444.291 525.99 446.559L525.667 446.8L526.325 447C528.479 444.826 530.762 440.272 532.231 437.464C529.248 439.138 525.18 441.418 522.492 443.492L520.902 444.946Z" fill="black"/>
<path d="M359.135 564.415C363.38 565.708 365.44 566.701 369.097 569.154C394.47 580.76 406.772 608.373 414.63 633.43C400.5 632.528 396.602 634.354 389.158 647.206C381.84 659.841 391.653 668.019 401.37 674.424C387.467 676.832 375.304 677.858 361.33 675.191C355.857 674.147 351.577 671.431 346.301 673.993L345.404 674.424V675.105C344.506 684.263 353.672 691.786 359.91 697.37C351.518 700.881 341.19 704.535 334.2 710.079C318.275 723.295 313.461 736.118 308.805 755.714C307.057 769.856 307.8 775.502 307.799 789.316L303.614 790.85C226.016 808.595 142.415 770.721 118.98 691.566C118.465 688.392 117.181 684.773 116.438 681.39C107.154 639.146 118.874 582.971 165.441 568.974C172.214 566.939 181.443 566.598 188.634 566.078C195.127 571.366 199.45 573.666 206.951 577.149C199.441 584.405 189.695 590.233 180.617 595.214C169.395 601.374 178.363 605.104 186.372 606.94C201.286 610.152 218.123 609.695 232.883 605.962C229.136 613.771 224.544 629.918 224.1 638.738C223.797 644.762 235.322 641.032 238.366 640.009C259.04 633.059 273.744 619.868 283.508 600.436C301.088 603.78 316.747 611.393 328.087 625.65C331.556 630.009 343.057 647.433 342.534 627.459C341.929 604.32 335.25 592.317 319.421 577.149C333.284 569.74 343.859 567.331 359.135 564.415ZM135.522 674.424C140.164 672.456 139.281 669.701 138.061 665.29C133.559 649.014 137.226 632.078 144.55 617.216C146.82 612.562 150.666 605.744 142.224 605.962C128.629 617.748 119.363 671.493 135.522 674.424Z" fill="#FF0600"/>
<path d="M118.98 691.566L120.072 690.309C121.042 690.431 125.28 693.712 126.361 694.501C173.201 728.762 237.262 733.006 292.511 721.511C295.587 720.869 300.532 719.603 303.615 719.393C304.367 718.569 305.293 717.92 306.18 717.22C315.04 715.558 325.392 709.662 334.2 710.079C318.275 723.295 313.462 736.118 308.806 755.713C307.058 769.856 307.801 775.501 307.799 789.316L303.615 790.85C226.017 808.595 142.416 770.721 118.98 691.566Z" fill="#DC1512"/>
<path d="M306.18 717.22C315.04 715.559 325.392 709.662 334.2 710.079C318.275 723.295 313.462 736.118 308.806 755.714C305.629 756.41 299.95 758.018 296.804 759.105C295.613 743.415 298.386 733.715 303.615 719.393C304.367 718.569 305.293 717.921 306.18 717.22Z" fill="#DC1512"/>
<path d="M296.804 759.105C299.95 758.018 305.629 756.41 308.806 755.714C307.058 769.856 307.8 775.502 307.799 789.316L303.614 790.85C300.632 781.188 297.038 769.292 296.804 759.105Z" fill="#DC1512"/>
<path d="M369.097 569.154C394.47 580.76 406.772 608.373 414.63 633.43C400.5 632.528 396.602 634.354 389.158 647.206C381.84 659.841 391.654 668.019 401.37 674.424C387.468 676.832 375.304 677.858 361.33 675.191C355.857 674.147 351.577 671.431 346.301 673.993L345.404 674.424C345.951 672.048 348.413 669.012 349.952 667.029C368.306 643.352 386.094 614.695 375.657 583.647C373.92 578.478 370.672 573.807 369.097 569.154Z" fill="#DC1512"/>
<path d="M306.18 717.22C311.024 707.879 335.331 680.817 345.404 675.105C344.506 684.263 353.673 691.786 359.91 697.37C351.518 700.881 341.191 704.535 334.2 710.079C325.392 709.662 315.04 715.558 306.18 717.22Z" fill="#DC1512"/>
<path d="M169.952 622.868C203.901 619.391 226.218 685.505 185.357 697.37C147.127 700.496 131.302 630.269 169.952 622.868Z" fill="#FF0600"/>
<path d="M169.952 633.431C190.648 632.153 209.203 670.137 185.357 686.912C159.291 688.64 148.412 641.953 169.952 633.431Z" fill="#FF0600"/>
<path d="M166.279 581.776C183.389 582.939 157.453 600.701 153.962 602.469C135.458 604.065 161.12 584.459 166.279 581.776Z" fill="#FAF2EE"/>
<path d="M510.277 681.383C516.96 681.213 519.926 681.974 526.325 684.047C528.082 684.729 530.758 685.755 532.232 686.912C576.964 707.652 589.752 772.736 569.201 814.209C554.702 843.469 521.572 865.625 491.873 876.769C442.719 895.212 382.926 886.264 347.031 845.768C341.702 840.222 337.149 835.032 334.2 827.893C314.969 803.446 313.6 761.94 327.025 734.726C335.88 716.777 354.74 709.793 372.689 703.991C378.763 706.987 381.649 708.475 388.285 710.079C379.008 722.939 368.365 726.468 358.708 735.578C355.892 743.411 367.554 743.824 372.571 743.95C387.23 744.317 399.68 739.102 412.429 732.614C411.81 738.667 404.14 761.886 406.412 763.148C418.307 769.763 446.068 733.021 454.2 721.824C467.925 719.881 482.396 726.107 492.369 735.307C494.458 736.65 497.372 742.099 499.352 743.06C516.37 751.312 504.739 707.316 488.25 697.37C498.926 692.015 501.672 687.494 510.277 681.383ZM337.854 756.425L337.272 755.944C338.849 752.621 333.679 758.458 331.086 749.987C330.768 751.561 330.71 751.687 329.675 752.915C323.771 768.167 328.638 791.19 334.626 805.987C336.775 811.295 343.483 807.352 343.247 804.968C341.285 785.276 333.811 782.112 337.854 756.425Z" fill="#FF0600"/>
<path d="M526.325 684.047C528.082 684.729 530.758 685.755 532.232 686.912C576.964 707.652 589.752 772.736 569.201 814.209C554.702 843.469 521.572 865.625 491.873 876.769C442.719 895.212 382.926 886.264 347.031 845.768C341.702 840.222 337.149 835.032 334.2 827.893C340.619 828.568 348.051 830.939 354.869 831.864C438.443 843.193 545.566 808.834 531.513 707.065C530.743 701.497 526.164 687.27 526.325 684.047Z" fill="#DC1512"/>
<path d="M532.231 686.912C576.963 707.652 589.751 772.736 569.201 814.209C554.701 843.469 521.571 865.625 491.873 876.768C442.718 895.212 382.925 886.264 347.03 845.768C350.44 844.08 358.49 851.116 362.493 852.476C432.462 876.232 522.963 854.435 550.224 779.613C559.539 752.746 556.256 721.4 540.075 697.888C537.465 694.094 534.147 691.327 532.231 686.912Z" fill="#DC1512"/>
<path d="M363.899 755.714C389.731 750.263 419.516 811.701 384.472 821.535C348.786 820.103 331.977 755.677 363.899 755.714Z" fill="#FF0600"/>
<path d="M363.18 765.318C381.082 763.688 398.775 802.013 384.472 811.043C367.442 811.145 347.316 775.104 363.18 765.318Z" fill="#FF0600"/>
<path d="M329.674 752.915C335.573 723.203 360.974 715.09 356.451 726.576C354.864 730.61 346.717 736.306 344.456 740.659C341.553 745.448 339.359 754.069 337.854 756.425L337.271 755.944C338.848 752.621 333.678 758.458 331.086 749.987C330.767 751.561 330.71 751.687 329.674 752.915Z" fill="#FAF2EE"/>
<path d="M642.087 612.674C656.211 605.356 660.241 596.723 678.117 600.436C683.538 601.929 695.913 608.018 699.042 612.674C714.489 622.809 728.525 648.373 732.062 666.351C747.511 744.837 670.039 813.533 595.313 811.043C590.751 811.081 586.891 810.899 582.176 811.043C585.444 801.571 586.868 795.954 588.508 786.057C590.179 774.089 589.319 767.265 589.423 755.714C579.295 717.525 561.953 676.919 516.606 671.167C516.752 665.808 517.809 660.361 517.413 655.306C517.039 652.426 516.905 651.534 514.946 649.425C524.405 643.917 552.151 637.005 563.029 636.443C562.197 641.49 551.067 674.256 563.234 670.819C585.786 664.45 597.634 650.209 608.809 631.222C623.11 635.385 629.778 637.118 640.534 648.35C643.345 650.541 646.86 656.023 649.62 657.782C667.331 669.06 659.489 625.033 642.087 612.674Z" fill="#DC1512"/>
<path d="M642.087 612.674C656.211 605.356 660.241 596.723 678.117 600.436C706.437 660.618 672.427 719.538 615.98 747.68C614.076 748.629 607.425 751.437 605.373 752.036C600.05 753.59 594.835 754.002 589.423 755.714C579.295 717.525 561.953 676.919 516.606 671.167C516.752 665.808 517.809 660.361 517.413 655.306C517.039 652.426 516.905 651.534 514.946 649.425C524.405 643.917 552.151 637.005 563.029 636.443C562.197 641.49 551.067 674.256 563.234 670.819C585.786 664.45 597.634 650.209 608.809 631.222C623.11 635.385 629.778 637.118 640.534 648.35C643.345 650.541 646.86 656.023 649.62 657.782C667.331 669.06 659.489 625.033 642.087 612.674Z" fill="#FF0600"/>
<path d="M517.413 655.306C517.546 655.87 517.941 658.302 518.45 658.394C535.068 661.399 550.191 667.004 564.378 676.314C565.558 675.52 565.828 675.655 566.886 676.583C585.884 693.228 598.924 715.46 603.487 740.363C604.127 743.861 604.511 748.747 605.373 752.035C600.05 753.589 594.835 754.002 589.423 755.713C579.295 717.525 561.953 676.919 516.606 671.167C516.752 665.808 517.809 660.361 517.413 655.306Z" fill="#DC1512"/>
<path d="M678.117 600.436C683.539 601.929 695.913 608.018 699.042 612.674C698.36 615.469 701.144 619.672 702.396 622.381C733.82 690.36 674.087 775.029 603.577 783.773C598.298 783.96 591.552 786.167 588.509 786.057C590.18 774.089 589.32 767.265 589.423 755.714C594.835 754.002 600.051 753.59 605.374 752.036C607.425 751.437 614.076 748.629 615.98 747.68C672.427 719.538 706.438 660.619 678.117 600.436Z" fill="#DC1512"/>
<path d="M605.374 752.036C605.675 762.674 605.741 773.285 603.577 783.773C598.298 783.96 591.552 786.167 588.509 786.057C590.18 774.089 589.32 767.265 589.423 755.714C594.835 754.002 600.051 753.59 605.374 752.036Z" fill="#DC1512"/>
<path d="M588.508 786.056C591.551 786.167 598.298 783.96 603.577 783.773C602.323 791.108 600.625 798.826 596.518 805.165C595.933 806.067 593.102 809.924 593.274 810.546L595.313 811.043C590.751 811.081 586.891 810.899 582.176 811.043C585.444 801.571 586.868 795.953 588.508 786.056Z" fill="#DC1512"/>
<path d="M352.761 459.926C357.073 458.344 362.99 456.987 367.602 456.153C375.06 462.834 379.691 465.346 388.285 470.257C384.879 472.431 384.5 472.686 382.055 476.071C374.03 480.042 369.293 488.658 363.876 495.498C346.727 517.157 406.317 502.166 412.428 500.796C408.978 513.24 390.766 541.575 409.543 537.48C436.925 531.507 447.562 517.042 463.091 496.551C482.632 499.565 496.529 507.897 506.347 525.822C517.587 546.343 522.904 504.286 510.277 483.74C508.818 482.483 505.404 477.894 503.616 476.071C512.94 470.468 520.039 467.586 528.615 459.926C530.9 460.596 533.767 461.209 536.123 461.776C543.653 465.063 550.735 468.279 557.489 473.098C584.909 495.236 601.918 530.473 596.553 566.078C591.137 555.29 586.079 542.65 573.713 538.197C550.52 529.845 534.955 562.37 557.489 575.07C544.599 576.1 536.08 577.034 523.558 579.479C520.633 576.219 518.653 573.027 516.606 569.154C503.921 546.638 503.785 563.854 508.651 579.479C509.939 583.492 511.251 586.5 512.916 590.361C495.254 594.896 481.388 602.176 469.356 616.123C460.781 616.378 452.361 619.821 444.597 620.219C438.402 621.17 427.845 621.303 421.525 621.224C419.276 615.357 416.584 607.954 413.808 602.469C406.716 587.843 380.521 556.072 363.18 555.364C360.314 554.168 353.036 548.83 349.771 546.756C343.39 544.259 337.844 541.518 330.942 540.077C327.502 539.056 320.617 539.324 317.532 537.973C308.399 533.977 302.745 531.728 292.754 530.273C293.425 526.936 294.41 521.339 295.727 518.325C302.938 490.915 323.892 465.017 352.761 459.926ZM329.674 518.325C337.255 504.427 324.964 499.169 316.953 515.99C311.372 531.862 326.668 533.278 329.674 518.325ZM324.996 488.997C326.941 494.49 329.154 495.715 335.026 494.953C339.586 490.473 333.161 483.21 329.674 479.504C326.763 482.933 325.966 484.44 324.996 488.997Z" fill="#FF0600"/>
<path d="M295.727 518.325C302.336 517.407 310.288 513.825 316.953 515.99C311.372 531.862 326.668 533.278 329.674 518.325C338.496 516.561 360.927 525.597 369.293 529.535C401.729 544.802 422.785 568.436 438.105 600.436C439.342 604.407 444.234 617.189 444.597 620.219C438.402 621.17 427.845 621.303 421.525 621.225C419.276 615.357 416.584 607.954 413.808 602.469C406.716 587.843 380.521 556.072 363.18 555.364C360.314 554.168 353.036 548.83 349.771 546.756C343.39 544.259 337.844 541.518 330.942 540.077C327.502 539.056 320.617 539.324 317.532 537.973C308.399 533.977 302.745 531.728 292.754 530.273C293.425 526.936 294.41 521.339 295.727 518.325Z" fill="#DC1512"/>
<path d="M438.105 600.436C439.343 604.406 444.235 617.189 444.597 620.219C438.403 621.17 427.846 621.303 421.525 621.224C419.277 615.357 416.585 607.954 413.809 602.469C418.793 598.713 431.874 600.46 438.105 600.436Z" fill="#DC1512"/>
<path d="M349.772 546.756C354.971 543.727 374.574 552.438 363.18 555.364C360.315 554.168 353.036 548.83 349.772 546.756Z" fill="#DC1512"/>
<path d="M557.489 473.098C584.909 495.236 601.918 530.473 596.553 566.078C591.137 555.29 586.08 542.65 573.713 538.197C550.52 529.845 534.956 562.37 557.489 575.07C544.599 576.1 536.081 577.033 523.558 579.479C520.633 576.219 518.653 573.026 516.606 569.154C531.813 558.454 551.746 521.846 555.74 503.42C557.97 493.124 557.189 483.162 557.489 473.098Z" fill="#DC1512"/>
<path d="M508.652 579.479C509.939 583.492 511.252 586.5 512.916 590.361C495.254 594.896 481.388 602.176 469.356 616.123C460.781 616.377 452.361 619.82 444.597 620.219C444.234 617.189 439.342 604.406 438.105 600.436C466.036 596.555 483.334 592.702 508.652 579.479Z" fill="#DC1512"/>
<path d="M528.615 459.926C530.9 460.596 533.767 461.209 536.123 461.776C531.326 475.475 516.929 477.21 510.276 483.739C508.818 482.483 505.404 477.893 503.616 476.071C512.94 470.468 520.038 467.586 528.615 459.926Z" fill="#DC1512"/>
<path d="M352.762 459.926C357.073 458.344 362.991 456.987 367.603 456.153C375.06 462.834 379.692 465.346 388.285 470.257C384.88 472.431 384.501 472.686 382.056 476.071C374.769 468.756 363.003 463.604 353.382 460.154L352.762 459.926Z" fill="#DC1512"/>
<path d="M329.674 479.504C343.169 464.529 361.408 470.572 352.3 482.143C348.259 487.593 341.665 493.423 335.026 494.953C339.586 490.473 333.161 483.21 329.674 479.504Z" fill="#FAF2EE"/>
<path d="M517.413 602.469C523.923 601.817 532.817 606.617 539.926 608.761C532.225 616.593 524.566 622.827 518.092 632.042C513.458 638.64 502.919 644.026 506.232 652.101C501.628 658.672 497.378 660.347 489.637 658.319C480.134 655.597 472.905 654.997 463.092 655.306C469.881 628.526 488.445 605.283 517.413 602.469Z" fill="#FF0600"/>
<path d="M503.617 616.123C521.008 616.411 506.731 633.267 493.847 636.443C476.458 637.437 485.83 619.962 503.617 616.123Z" fill="#FAF2EE"/>
<path d="M280.582 566.078C289.119 563.944 300.399 570.663 307.799 575.07C306.569 576.113 305.758 576.611 305.037 578.002C313.202 584.381 323.319 592.89 327.613 602.469C330.449 607.393 331.168 610.5 332.187 616.123C322.432 604.719 294.253 585.327 278.698 593.515C273.05 596.708 271.466 604.755 266.564 610.325C256.673 621.569 248.291 625.248 235.465 631.222C236.011 626.911 236.484 625.371 237.812 621.225C239.617 615.92 245.078 598.221 244.875 593.515C245.736 592.455 245.671 592.413 247.017 591.952C246.916 589.085 243.468 578.303 240.438 577.149C239.211 575.704 237.246 573.202 235.465 572.789C240.515 571.914 242.872 571.703 247.944 572.789C255.089 594.585 260.899 589.799 275.209 578.002C276.546 574.462 278.695 569.317 280.582 566.078Z" fill="#39AE1F"/>
<path d="M244.875 593.515C245.737 592.455 245.671 592.413 247.018 591.952L247.418 592.216C254.189 596.558 270.267 592.652 261.566 604.005C256.633 610.441 245.662 619.182 237.812 621.225C239.618 615.92 245.079 598.221 244.875 593.515Z" fill="#6AD13C"/>
<path d="M280.582 566.078C289.12 563.944 300.399 570.663 307.799 575.07C306.57 576.113 305.759 576.611 305.037 578.002H303.615C298.157 576.864 280.774 579.429 275.209 578.002C276.547 574.462 278.695 569.317 280.582 566.078Z" fill="#1D8D15"/>
<path d="M305.036 578.002C313.202 584.381 323.319 592.89 327.612 602.469C325.327 602.73 312.257 591.365 308.4 589.703C292.771 582.966 299.131 581.938 303.614 578.002H305.036Z" fill="#6AD13C"/>
<path d="M431.91 708.597C451.906 707.278 437.213 693.189 460.388 681.383C460.863 688.405 470.73 691.481 476.36 691.566C457.896 693.454 485.457 706.571 489.637 712.867C492.977 718.45 494.612 720.906 496.618 727.085C483.942 715.085 467.246 709.781 449.944 713.659C447.691 714.164 437.893 729.026 435.655 731.728C430.632 737.796 425.533 742.349 419.71 747.516C420.558 742.756 424.56 717.223 419.082 715.839C413.324 714.384 413.396 717.376 412.428 721.824C397.845 727.417 394.924 731.997 376.482 734.649C388.511 724.919 399.073 708.143 412.428 703.991C415.974 703.29 420.847 703.568 424.405 703.991C427.588 705.828 428.347 707.366 431.91 708.597Z" fill="#6AD13C"/>
<path d="M431.91 708.597C451.906 707.278 437.213 693.189 460.388 681.383C460.863 688.405 470.729 691.481 476.36 691.566C457.896 693.454 485.457 706.571 489.637 712.867C475.564 710.511 470.952 700.079 449.325 701.291C442.806 706.221 436.946 717.795 425.914 713.704C422.327 712.375 414.138 707.496 412.428 703.991C415.974 703.29 420.847 703.568 424.405 703.991C427.588 705.828 428.347 707.366 431.91 708.597Z" fill="#1D8D15"/>
<path d="M457.112 468.753C482.285 471.884 505.637 481.388 508.651 509.847C494.75 497.289 483.358 487.183 463.147 487.449C451.484 487.603 442.955 517.489 413.808 525.048C419.399 515.587 430 492.615 412.428 490.709C422.503 477.646 420.124 480.465 413.808 471.386C418.127 470.838 421.601 470.518 425.947 470.257C433.073 484.181 452.946 481.691 457.112 468.753Z" fill="#39AE1F"/>
<path d="M605.373 602.469C608.165 599.622 610.558 598.066 614.009 596.152C617.376 598.332 619.801 603.204 622.713 603.576C616.077 603.922 618.143 611.038 624.475 614.235C635.645 614.07 647.039 634.268 649.637 643.476C640.736 634.096 617.705 617.151 604.412 621.723C600.154 623.19 590.147 650.82 568.89 658.17L568.445 658.319C569.424 653.631 574.976 632.395 573.551 628.388C571.098 621.496 535.785 631.624 530.371 633.431C539.46 618.421 552.241 611.654 568.445 607.074C571.227 606.438 574.391 605.788 577.108 605.03C577.749 614.361 582.935 618.048 592.282 618.402C598.146 617.306 601.398 616.334 605.373 611.482C605.289 608.32 605.231 605.621 605.373 602.469Z" fill="#6AD13C"/>
<path d="M605.374 602.469C608.165 599.622 610.559 598.066 614.009 596.152C617.377 598.332 619.801 603.204 622.713 603.576C616.077 603.922 618.144 611.038 624.475 614.235L623.679 614.89C620.237 614.665 617.286 615.212 614.009 616.123C610.703 615.05 607.166 614.401 605.374 611.482C605.289 608.32 605.231 605.621 605.374 602.469Z" fill="#39AE1F"/>
<path d="M568.445 607.073C571.227 606.438 574.391 605.788 577.108 605.03C577.749 614.361 582.936 618.048 592.282 618.401C577.572 620.23 571.103 624.461 568.445 607.073Z" fill="#39AE1F"/>
<path d="M422.373 398.323C445.631 398.767 449.232 451.072 448.494 467.58C425.128 476.053 440.184 456.424 427.869 437.464C424.22 425.916 416.036 416.543 407.582 408.181C411.125 401.912 415.311 399.17 422.373 398.323Z" fill="#1D8D15"/>
<path d="M407.582 408.181C411.125 401.912 415.311 399.17 422.373 398.323C423.001 400.778 426.112 402.832 427.869 406.162C424.646 420.393 429.808 430.213 427.869 437.464C424.22 425.916 416.036 416.543 407.582 408.181Z" fill="#6AD13C"/>
<path d="M242.024 530.273C237.145 522.985 224.564 515.273 233.749 508.146C242.391 501.44 250.209 505.277 256.108 512.959C270.176 529.95 278.07 562.223 260.059 579.479C257.788 562.678 252.045 544.103 242.024 530.273Z" fill="#1D8D15"/>
<path d="M242.024 530.273C237.145 522.985 224.564 515.273 233.749 508.146C242.391 501.44 250.209 505.277 256.108 512.959C254.897 519.113 254.346 524.116 253.473 530.273C249.716 530.294 245.764 530.38 242.024 530.273Z" fill="#6AD13C"/>
<path d="M444.597 620.219C452.361 619.821 460.781 616.378 469.356 616.123C457.223 631.023 456.387 639.277 451.196 656.148H444.597C442.479 656.348 440.243 656.21 438.105 656.148C434.862 648.49 431.856 645.608 425.947 640.306C424.615 633.553 423.414 627.868 421.525 621.224C427.845 621.303 438.402 621.17 444.597 620.219Z" fill="#DC1512"/>
<path d="M444.597 620.219C452.361 619.821 460.781 616.378 469.356 616.123C457.223 631.023 456.388 639.277 451.197 656.148H444.597L445.093 655.782C444.975 643.091 447.667 635.034 444.597 620.219Z" fill="#DC1512"/>
<path d="M574.256 577.149C569.219 571.392 554.516 563.319 556.161 556.187C558.67 545.309 570.786 543.749 577.108 552.652C587.704 565.119 594.803 592.288 595.313 608.761C593.339 608.744 591.398 608.729 589.423 608.761L589.198 608.273C584.004 596.711 585.893 587.845 574.256 577.149Z" fill="#39AE1F"/>
<path d="M574.256 577.149C569.219 571.392 554.516 563.319 556.161 556.187C558.67 545.309 570.786 543.749 577.108 552.652C576.729 564.394 578.495 563.116 574.256 577.149Z" fill="#6AD13C"/>
<path d="M193.581 550.899C207.059 551.019 234.441 538.708 244.875 555.364C245.363 558.797 245.55 559.653 247.017 562.935C229.299 562.71 229.311 565.989 215.644 570.939C210.436 569.239 200.886 563.643 197.178 559.35C194.688 558.392 192.805 557.042 190.78 555.364C189.176 553.897 187.076 552.285 185.357 550.899C188.181 550.842 190.76 550.822 193.581 550.899Z" fill="#39AE1F"/>
<path d="M193.581 550.899C207.059 551.019 234.441 538.708 244.875 555.364C223.611 553.654 215.78 559.456 197.178 559.35C194.688 558.392 192.805 557.042 190.78 555.364C189.176 553.897 187.076 552.285 185.357 550.899C188.181 550.842 190.76 550.822 193.581 550.899Z" fill="#6AD13C"/>
<path d="M185.357 550.899C188.181 550.842 190.76 550.822 193.581 550.899C193.198 551.688 193.501 551.383 192.605 551.744L192.66 552.102C192.967 554.215 192.447 554.238 190.78 555.364C189.176 553.897 187.076 552.285 185.357 550.899Z" fill="#76F047"/>
<path d="M287.715 559.35C310.181 544.541 323.351 545.446 347.031 556.554C337.184 558.028 325.866 562.903 316.953 567.465C313.354 570.118 310.904 571.782 307.799 575.07C300.399 570.663 289.119 563.943 280.582 566.078C282.821 563.172 284.8 561.528 287.715 559.35Z" fill="#6AD13C"/>
<path d="M280.582 566.078C282.821 563.172 284.8 561.528 287.715 559.35C299.479 561.404 305.529 562.706 316.953 567.465C313.354 570.119 310.904 571.782 307.799 575.07C300.399 570.663 289.119 563.944 280.582 566.078Z" fill="#39AE1F"/>
<path d="M235.465 572.789C237.246 573.202 239.211 575.704 240.438 577.149C243.468 578.303 246.916 589.085 247.018 591.952C245.671 592.413 245.736 592.455 244.875 593.515C240.853 594.552 236.643 596.274 232.892 597.175C217.827 600.789 207.569 598.492 193.582 599.326C194.142 598.817 196.72 596.4 197.178 596.151C209.961 587.557 220.289 577.17 235.465 572.789Z" fill="#39AE1F"/>
<path d="M235.465 572.789C237.246 573.202 239.211 575.704 240.437 577.149C234.37 586.881 207.74 601.08 197.177 596.151C209.961 587.557 220.288 577.17 235.465 572.789Z" fill="#6AD13C"/>
<path d="M378.242 443.492C390.178 443.23 413.987 440.525 421.525 447C424.236 451.072 424.997 456.923 425.947 461.776C408.528 460.743 398.7 468.633 382.055 454.365C379.642 452.949 377.293 450.987 375.078 449.241C375.964 448.167 377.53 445.836 377.833 444.505L376.314 443.98L378.242 443.492Z" fill="#6AD13C"/>
<path d="M421.525 447C424.236 451.073 424.997 456.923 425.947 461.776C408.528 460.744 398.7 468.633 382.055 454.366C384.123 453.9 389.144 455.057 391.5 454.883C400.288 454.234 414.155 451.462 421.525 447Z" fill="#39AE1F"/>
<path d="M474.632 454.365C484.883 449.703 493.873 450.804 504.514 449.052C509.514 448.228 517.351 445.263 522.492 443.492L520.902 444.946C523.869 444.214 523.696 444.291 525.99 446.559L525.667 446.8L526.325 447C518.973 457.445 505.313 465.096 493.847 470.257C489.881 468.2 483.938 465.363 480.187 463.169C477.157 462.451 475.366 462.101 472.217 461.776C468.619 460.762 466.814 460.152 463.092 459.926C466.315 457.284 470.748 455.691 474.632 454.365Z" fill="#6AD13C"/>
<path d="M520.902 444.946C523.869 444.214 523.696 444.291 525.99 446.559L525.667 446.8L526.325 447C518.974 457.445 505.314 465.096 493.847 470.257C489.881 468.2 483.938 465.363 480.188 463.169C498.475 457.918 504.096 461.544 520.902 444.946Z" fill="#39AE1F"/>
<path d="M463.092 459.926C466.315 457.284 470.748 455.69 474.632 454.365L475.161 455.129C474.293 457.188 471.415 460.415 472.217 461.776C468.619 460.762 466.814 460.152 463.092 459.926Z" fill="#76F047"/>
<path d="M419.71 677.462C414.296 671.651 399.509 661.586 397.362 658.222C391.636 649.251 411.704 629.166 427.868 658.319C426.22 664.036 424.353 673.651 419.71 677.462Z" fill="#39AE1F"/>
<path d="M375.078 496.551L376.605 494.516C385.789 482.384 398.556 473.473 413.808 471.386C420.124 480.465 422.503 477.646 412.428 490.709C399.795 493.268 388.22 496.529 375.078 496.551Z" fill="#6AD13C"/>
<path d="M653.672 583.592L665.664 577.149C664.528 578.927 659.994 586.231 658.698 587.241C652.55 595.806 642.765 601.899 633.207 605.962C629.623 604.802 626.488 603.985 622.713 603.575C619.801 603.204 617.377 598.331 614.009 596.151C620.591 592.159 645.066 584.241 653.672 583.592Z" fill="#6AD13C"/>
<path d="M522.492 590.361C533.494 587.144 556.716 584.579 568.445 585.383C571.415 588.653 572.503 591.027 574.256 595.09C567.74 596.682 562.336 597.93 556.086 600.436C553.449 601.461 552.045 602.211 549.55 603.576C544.428 600.474 541.716 599.581 536.123 597.53C531.131 595.845 526.671 593.609 522.492 590.361Z" fill="#39AE1F"/>
<path d="M536.123 597.529C540.019 595.525 554.051 594.306 556.085 600.436C553.449 601.461 552.045 602.211 549.55 603.576C544.428 600.474 541.716 599.581 536.123 597.529Z" fill="#6AD13C"/>
<path d="M460.388 681.383C475.87 673.038 491.319 673.028 506.232 665.271C500.404 677.233 490.022 688.795 476.36 691.566C470.729 691.481 460.863 688.405 460.388 681.383Z" fill="#6AD13C"/>
<path d="M406.317 686.912C408.324 686.444 410.42 685.924 412.428 685.505C413.538 686.595 422.617 694.097 417.315 693.634C406.646 695.002 404.645 696.809 395.438 702.279C381.722 699.947 374.914 694.779 363.898 686.912C380.055 689.059 392.633 685.716 406.317 686.912Z" fill="#6AD13C"/>
<path d="M406.317 686.912C408.324 686.444 410.419 685.924 412.428 685.505C413.538 686.595 422.616 694.097 417.315 693.634C414.511 691.845 407.909 689.063 406.317 686.912Z" fill="#39AE1F"/>
<path d="M427.868 658.319C433.058 666.621 441.477 689.433 434.676 698.221L433.942 698.361C431.213 695.896 423.343 682.171 419.71 677.462C424.353 673.651 426.221 664.036 427.868 658.319Z" fill="#1D8D15"/>
<path d="M457.112 434.217C469.246 433.733 481.703 434.495 492.295 440.827C488.761 440.937 486.514 441.053 483.033 441.545C473.045 443.756 467.302 446.2 457.996 450.104C457.375 444.245 456.868 440.107 457.112 434.217Z" fill="#DC1512"/>
<path d="M606.855 575.07C616.661 574.52 622.116 575.681 631.082 579.479C625.137 580.154 622.157 581.35 616.618 583.592C612.194 585.542 607.833 588.04 603.577 590.361C602.079 586.157 600.425 579.512 599.191 575.07H606.855Z" fill="#FF0600"/>
<path d="M460.389 665.272C465.063 665.053 471.542 665.267 476.361 665.272C467.021 668.237 462.538 668.88 454.2 674.424C451.295 675.617 448.875 677.074 446.163 678.625C445.169 674.777 444.018 671.122 442.84 667.333C448.693 666.304 454.474 665.738 460.389 665.272Z" fill="#FF0600"/>
<path d="M278.697 538.346C287.165 538.79 292.764 539.351 301.131 541.648C297.754 542.956 295.832 543.655 292.754 545.473C287.298 547.459 284.806 550.009 280.582 553.806C280.46 548.375 279.624 543.649 278.697 538.346Z" fill="#FB3732"/>
</svg>
