<svg width="849" height="1183" viewBox="0 0 849 1183" fill="none" xmlns="http://www.w3.org/2000/svg">
<rect x="5" y="5" width="839" height="1173" rx="45" fill="white"/>
<rect x="5" y="5" width="839" height="1173" rx="45" stroke="black" stroke-width="10"/>
<circle cx="786.5" cy="1124.5" r="11.5" fill="black"/>
<circle cx="786.5" cy="59.5" r="11.5" fill="black"/>
<path d="M77 1124.5C77 1130.85 71.8513 1136 65.5 1136C59.1487 1136 54 1130.85 54 1124.5C54 1118.15 59.1487 1113 65.5 1113C71.8513 1113 77 1118.15 77 1124.5Z" fill="black"/>
<path d="M77 59.5C77 65.8513 71.8513 71 65.5 71C59.1487 71 54 65.8513 54 59.5C54 53.1487 59.1487 48 65.5 48C71.8513 48 77 53.1487 77 59.5Z" fill="black"/>
<mask id="path-6-inside-1_1_1615" fill="white">
<path d="M708 48C713.523 48 717.934 52.4996 718.616 57.9801C723.122 94.1833 751.817 122.878 788.02 127.384C793.5 128.066 798 132.477 798 138V1046C798 1051.52 793.5 1055.93 788.02 1056.62C751.817 1061.12 723.122 1089.82 718.616 1126.02C717.934 1131.5 713.523 1136 708 1136H141C135.477 1136 131.066 1131.5 130.384 1126.02C125.878 1089.82 97.1833 1061.12 60.9801 1056.62C55.4996 1055.93 51 1051.52 51 1046V138C51 132.477 55.4996 128.066 60.9801 127.384C97.1833 122.878 125.878 94.1833 130.384 57.9801C131.066 52.4996 135.477 48 141 48H708Z"/>
</mask>
<path d="M708 48C713.523 48 717.934 52.4996 718.616 57.9801C723.122 94.1833 751.817 122.878 788.02 127.384C793.5 128.066 798 132.477 798 138V1046C798 1051.52 793.5 1055.93 788.02 1056.62C751.817 1061.12 723.122 1089.82 718.616 1126.02C717.934 1131.5 713.523 1136 708 1136H141C135.477 1136 131.066 1131.5 130.384 1126.02C125.878 1089.82 97.1833 1061.12 60.9801 1056.62C55.4996 1055.93 51 1051.52 51 1046V138C51 132.477 55.4996 128.066 60.9801 127.384C97.1833 122.878 125.878 94.1833 130.384 57.9801C131.066 52.4996 135.477 48 141 48H708Z" fill="#0089CB"/>
<path d="M130.384 1126.02L138.322 1125.03L130.384 1126.02ZM718.616 1126.02L710.678 1125.03L718.616 1126.02ZM788.02 1056.62L789.008 1064.56L788.02 1056.62ZM718.616 57.9801L726.555 56.9922L718.616 57.9801ZM718.616 57.9801L710.678 58.9681C715.635 98.8063 747.194 130.365 787.032 135.322L788.02 127.384L789.008 119.445C756.44 115.392 730.608 89.5603 726.555 56.9922L718.616 57.9801ZM798 138H790V1046H798H806V138H798ZM788.02 1056.62L787.032 1048.68C747.194 1053.64 715.635 1085.19 710.678 1125.03L718.616 1126.02L726.555 1127.01C730.608 1094.44 756.44 1068.61 789.008 1064.56L788.02 1056.62ZM708 1136V1128H141V1136V1144H708V1136ZM130.384 1126.02L138.322 1125.03C133.365 1085.19 101.806 1053.64 61.9681 1048.68L60.9801 1056.62L59.9922 1064.56C92.5603 1068.61 118.392 1094.44 122.445 1127.01L130.384 1126.02ZM51 1046H59V138H51H43V1046H51ZM60.9801 127.384L61.9681 135.322C101.806 130.365 133.365 98.8063 138.322 58.9681L130.384 57.9801L122.445 56.9922C118.392 89.5603 92.5603 115.392 59.9922 119.445L60.9801 127.384ZM141 48V56H708V48V40H141V48ZM130.384 57.9801L138.322 58.9681C138.438 58.0389 138.872 57.2306 139.427 56.6958C139.954 56.1887 140.494 56 141 56V48V40C130.84 40 123.547 48.1329 122.445 56.9922L130.384 57.9801ZM51 138H59C59 137.494 59.1887 136.954 59.6958 136.427C60.2306 135.872 61.0389 135.438 61.9681 135.322L60.9801 127.384L59.9922 119.445C51.1329 120.547 43 127.84 43 138H51ZM60.9801 1056.62L61.9681 1048.68C61.0389 1048.56 60.2306 1048.13 59.6958 1047.57C59.1887 1047.05 59 1046.51 59 1046H51H43C43 1056.16 51.1329 1063.45 59.9922 1064.56L60.9801 1056.62ZM141 1136V1128C140.494 1128 139.954 1127.81 139.427 1127.3C138.872 1126.77 138.438 1125.96 138.322 1125.03L130.384 1126.02L122.445 1127.01C123.547 1135.87 130.84 1144 141 1144V1136ZM718.616 1126.02L710.678 1125.03C710.562 1125.96 710.128 1126.77 709.573 1127.3C709.046 1127.81 708.506 1128 708 1128V1136V1144C718.16 1144 725.453 1135.87 726.555 1127.01L718.616 1126.02ZM798 1046H790C790 1046.51 789.811 1047.05 789.304 1047.57C788.769 1048.13 787.961 1048.56 787.032 1048.68L788.02 1056.62L789.008 1064.56C797.867 1063.45 806 1056.16 806 1046H798ZM788.02 127.384L787.032 135.322C787.961 135.438 788.769 135.872 789.304 136.427C789.811 136.954 790 137.494 790 138H798H806C806 127.84 797.867 120.547 789.008 119.445L788.02 127.384ZM718.616 57.9801L726.555 56.9922C725.453 48.1329 718.16 40 708 40V48V56C708.506 56 709.046 56.1887 709.573 56.6958C710.128 57.2306 710.562 58.0389 710.678 58.9681L718.616 57.9801Z" fill="black" mask="url(#path-6-inside-1_1_1615)"/>
<path d="M690 102C695.523 102 699.911 106.512 700.837 111.957C705.019 136.563 724.437 155.981 749.043 160.163C754.488 161.089 759 165.477 759 171V1014C759 1019.52 754.488 1023.91 749.043 1024.84C724.711 1028.97 705.454 1048 700.984 1072.22C699.993 1077.59 695.633 1082 690.175 1082H158.825C153.367 1082 149.007 1077.59 148.016 1072.22C143.546 1048 124.288 1028.97 99.9568 1024.84C94.5121 1023.91 90 1019.52 90 1014V171C90 165.477 94.512 161.089 99.9568 160.163C124.563 155.981 143.981 136.563 148.163 111.957C149.089 106.512 153.477 102 159 102H690Z" fill="#4BADDC"/>
<mask id="path-9-outside-2_1_1615" maskUnits="userSpaceOnUse" x="401" y="1006" width="47" height="32" fill="black">
<rect fill="white" x="401" y="1006" width="47" height="32"/>
<path d="M402.32 1015.04C402.48 1012.56 403.427 1010.63 405.16 1009.24C406.92 1007.85 409.16 1007.16 411.88 1007.16C413.747 1007.16 415.36 1007.49 416.72 1008.16C418.08 1008.83 419.107 1009.73 419.8 1010.88C420.493 1012.03 420.84 1013.32 420.84 1014.76C420.84 1016.41 420.4 1017.83 419.52 1019C418.64 1020.17 417.587 1020.96 416.36 1021.36V1021.52C417.933 1022 419.16 1022.88 420.04 1024.16C420.92 1025.41 421.36 1027.03 421.36 1029C421.36 1030.57 421 1031.97 420.28 1033.2C419.56 1034.43 418.493 1035.4 417.08 1036.12C415.667 1036.81 413.973 1037.16 412 1037.16C409.12 1037.16 406.747 1036.43 404.88 1034.96C403.04 1033.47 402.053 1031.33 401.92 1028.56H406.32C406.427 1029.97 406.973 1031.13 407.96 1032.04C408.947 1032.92 410.28 1033.36 411.96 1033.36C413.587 1033.36 414.84 1032.92 415.72 1032.04C416.6 1031.13 417.04 1029.97 417.04 1028.56C417.04 1026.69 416.44 1025.37 415.24 1024.6C414.067 1023.8 412.253 1023.4 409.8 1023.4H408.76V1019.64H409.84C412 1019.61 413.64 1019.25 414.76 1018.56C415.907 1017.87 416.48 1016.77 416.48 1015.28C416.48 1014 416.067 1012.99 415.24 1012.24C414.413 1011.47 413.24 1011.08 411.72 1011.08C410.227 1011.08 409.067 1011.47 408.24 1012.24C407.413 1012.99 406.92 1013.92 406.76 1015.04H402.32ZM426.15 1022.04C426.15 1017.43 426.923 1013.83 428.47 1011.24C430.043 1008.63 432.737 1007.32 436.55 1007.32C440.363 1007.32 443.043 1008.63 444.59 1011.24C446.163 1013.83 446.95 1017.43 446.95 1022.04C446.95 1026.71 446.163 1030.36 444.59 1033C443.043 1035.61 440.363 1036.92 436.55 1036.92C432.737 1036.92 430.043 1035.61 428.47 1033C426.923 1030.36 426.15 1026.71 426.15 1022.04ZM442.47 1022.04C442.47 1019.88 442.323 1018.05 442.03 1016.56C441.763 1015.07 441.203 1013.85 440.35 1012.92C439.497 1011.96 438.23 1011.48 436.55 1011.48C434.87 1011.48 433.603 1011.96 432.75 1012.92C431.897 1013.85 431.323 1015.07 431.03 1016.56C430.763 1018.05 430.63 1019.88 430.63 1022.04C430.63 1024.28 430.763 1026.16 431.03 1027.68C431.297 1029.2 431.857 1030.43 432.71 1031.36C433.59 1032.29 434.87 1032.76 436.55 1032.76C438.23 1032.76 439.497 1032.29 440.35 1031.36C441.23 1030.43 441.803 1029.2 442.07 1027.68C442.337 1026.16 442.47 1024.28 442.47 1022.04Z"/>
</mask>
<path d="M402.32 1015.04C402.48 1012.56 403.427 1010.63 405.16 1009.24C406.92 1007.85 409.16 1007.16 411.88 1007.16C413.747 1007.16 415.36 1007.49 416.72 1008.16C418.08 1008.83 419.107 1009.73 419.8 1010.88C420.493 1012.03 420.84 1013.32 420.84 1014.76C420.84 1016.41 420.4 1017.83 419.52 1019C418.64 1020.17 417.587 1020.96 416.36 1021.36V1021.52C417.933 1022 419.16 1022.88 420.04 1024.16C420.92 1025.41 421.36 1027.03 421.36 1029C421.36 1030.57 421 1031.97 420.28 1033.2C419.56 1034.43 418.493 1035.4 417.08 1036.12C415.667 1036.81 413.973 1037.16 412 1037.16C409.12 1037.16 406.747 1036.43 404.88 1034.96C403.04 1033.47 402.053 1031.33 401.92 1028.56H406.32C406.427 1029.97 406.973 1031.13 407.96 1032.04C408.947 1032.92 410.28 1033.36 411.96 1033.36C413.587 1033.36 414.84 1032.92 415.72 1032.04C416.6 1031.13 417.04 1029.97 417.04 1028.56C417.04 1026.69 416.44 1025.37 415.24 1024.6C414.067 1023.8 412.253 1023.4 409.8 1023.4H408.76V1019.64H409.84C412 1019.61 413.64 1019.25 414.76 1018.56C415.907 1017.87 416.48 1016.77 416.48 1015.28C416.48 1014 416.067 1012.99 415.24 1012.24C414.413 1011.47 413.24 1011.08 411.72 1011.08C410.227 1011.08 409.067 1011.47 408.24 1012.24C407.413 1012.99 406.92 1013.92 406.76 1015.04H402.32ZM426.15 1022.04C426.15 1017.43 426.923 1013.83 428.47 1011.24C430.043 1008.63 432.737 1007.32 436.55 1007.32C440.363 1007.32 443.043 1008.63 444.59 1011.24C446.163 1013.83 446.95 1017.43 446.95 1022.04C446.95 1026.71 446.163 1030.36 444.59 1033C443.043 1035.61 440.363 1036.92 436.55 1036.92C432.737 1036.92 430.043 1035.61 428.47 1033C426.923 1030.36 426.15 1026.71 426.15 1022.04ZM442.47 1022.04C442.47 1019.88 442.323 1018.05 442.03 1016.56C441.763 1015.07 441.203 1013.85 440.35 1012.92C439.497 1011.96 438.23 1011.48 436.55 1011.48C434.87 1011.48 433.603 1011.96 432.75 1012.92C431.897 1013.85 431.323 1015.07 431.03 1016.56C430.763 1018.05 430.63 1019.88 430.63 1022.04C430.63 1024.28 430.763 1026.16 431.03 1027.68C431.297 1029.2 431.857 1030.43 432.71 1031.36C433.59 1032.29 434.87 1032.76 436.55 1032.76C438.23 1032.76 439.497 1032.29 440.35 1031.36C441.23 1030.43 441.803 1029.2 442.07 1027.68C442.337 1026.16 442.47 1024.28 442.47 1022.04Z" fill="black"/>
<path d="M402.32 1015.04L402.021 1015.02L402 1015.34H402.32V1015.04ZM405.16 1009.24L404.974 1009L404.973 1009.01L405.16 1009.24ZM416.72 1008.16L416.588 1008.43L416.72 1008.16ZM419.8 1010.88L420.057 1010.72L419.8 1010.88ZM419.52 1019L419.76 1019.18V1019.18L419.52 1019ZM416.36 1021.36L416.267 1021.07L416.06 1021.14V1021.36H416.36ZM416.36 1021.52H416.06V1021.74L416.272 1021.81L416.36 1021.52ZM420.04 1024.16L419.793 1024.33L419.794 1024.33L420.04 1024.16ZM420.28 1033.2L420.021 1033.05L420.28 1033.2ZM417.08 1036.12L417.212 1036.39L417.216 1036.39L417.08 1036.12ZM404.88 1034.96L404.691 1035.19L404.695 1035.2L404.88 1034.96ZM401.92 1028.56V1028.26H401.605L401.62 1028.57L401.92 1028.56ZM406.32 1028.56L406.619 1028.54L406.598 1028.26H406.32V1028.56ZM407.96 1032.04L407.757 1032.26L407.76 1032.26L407.96 1032.04ZM415.72 1032.04L415.932 1032.25L415.935 1032.25L415.72 1032.04ZM415.24 1024.6L415.071 1024.85L415.077 1024.85L415.24 1024.6ZM408.76 1023.4H408.46V1023.7H408.76V1023.4ZM408.76 1019.64V1019.34H408.46V1019.64H408.76ZM409.84 1019.64V1019.94L409.844 1019.94L409.84 1019.64ZM414.76 1018.56L414.605 1018.3L414.602 1018.3L414.76 1018.56ZM415.24 1012.24L415.035 1012.46L415.039 1012.46L415.24 1012.24ZM408.24 1012.24L408.441 1012.46L408.445 1012.46L408.24 1012.24ZM406.76 1015.04V1015.34H407.02L407.057 1015.08L406.76 1015.04ZM402.32 1015.04L402.619 1015.06C402.775 1012.65 403.688 1010.8 405.347 1009.47L405.16 1009.24L404.973 1009.01C403.165 1010.45 402.185 1012.47 402.021 1015.02L402.32 1015.04ZM405.16 1009.24L405.346 1009.48C407.042 1008.14 409.213 1007.46 411.88 1007.46V1007.16V1006.86C409.108 1006.86 406.798 1007.57 404.974 1009L405.16 1009.24ZM411.88 1007.16V1007.46C413.711 1007.46 415.277 1007.79 416.588 1008.43L416.72 1008.16L416.852 1007.89C415.443 1007.2 413.782 1006.86 411.88 1006.86V1007.16ZM416.72 1008.16L416.588 1008.43C417.903 1009.07 418.883 1009.94 419.543 1011.04L419.8 1010.88L420.057 1010.72C419.33 1009.52 418.257 1008.58 416.852 1007.89L416.72 1008.16ZM419.8 1010.88L419.543 1011.04C420.206 1012.13 420.54 1013.37 420.54 1014.76H420.84H421.14C421.14 1013.27 420.78 1011.92 420.057 1010.72L419.8 1010.88ZM420.84 1014.76H420.54C420.54 1016.36 420.116 1017.71 419.28 1018.82L419.52 1019L419.76 1019.18C420.684 1017.95 421.14 1016.47 421.14 1014.76H420.84ZM419.52 1019L419.28 1018.82C418.432 1019.95 417.427 1020.7 416.267 1021.07L416.36 1021.36L416.453 1021.65C417.746 1021.22 418.848 1020.4 419.76 1019.18L419.52 1019ZM416.36 1021.36H416.06V1021.52H416.36H416.66V1021.36H416.36ZM416.36 1021.52L416.272 1021.81C417.785 1022.27 418.954 1023.11 419.793 1024.33L420.04 1024.16L420.287 1023.99C419.366 1022.65 418.082 1021.73 416.448 1021.23L416.36 1021.52ZM420.04 1024.16L419.794 1024.33C420.63 1025.52 421.06 1027.07 421.06 1029H421.36H421.66C421.66 1026.98 421.21 1025.3 420.286 1023.99L420.04 1024.16ZM421.36 1029H421.06C421.06 1030.53 420.711 1031.87 420.021 1033.05L420.28 1033.2L420.539 1033.35C421.289 1032.07 421.66 1030.62 421.66 1029H421.36ZM420.28 1033.2L420.021 1033.05C419.334 1034.22 418.312 1035.16 416.944 1035.85L417.08 1036.12L417.216 1036.39C418.674 1035.64 419.786 1034.63 420.539 1033.35L420.28 1033.2ZM417.08 1036.12L416.948 1035.85C415.585 1036.52 413.939 1036.86 412 1036.86V1037.16V1037.46C414.008 1037.46 415.749 1037.11 417.212 1036.39L417.08 1036.12ZM412 1037.16V1036.86C409.172 1036.86 406.869 1036.14 405.065 1034.72L404.88 1034.96L404.695 1035.2C406.625 1036.71 409.068 1037.46 412 1037.46V1037.16ZM404.88 1034.96L405.069 1034.73C403.307 1033.3 402.35 1031.25 402.22 1028.55L401.92 1028.56L401.62 1028.57C401.757 1031.42 402.773 1033.64 404.691 1035.19L404.88 1034.96ZM401.92 1028.56V1028.86H406.32V1028.56V1028.26H401.92V1028.56ZM406.32 1028.56L406.021 1028.58C406.133 1030.07 406.711 1031.3 407.757 1032.26L407.96 1032.04L408.163 1031.82C407.236 1030.97 406.72 1029.88 406.619 1028.54L406.32 1028.56ZM407.96 1032.04L407.76 1032.26C408.816 1033.21 410.227 1033.66 411.96 1033.66V1033.36V1033.06C410.333 1033.06 409.078 1032.63 408.16 1031.82L407.96 1032.04ZM411.96 1033.36V1033.66C413.641 1033.66 414.98 1033.2 415.932 1032.25L415.72 1032.04L415.508 1031.83C414.7 1032.64 413.533 1033.06 411.96 1033.06V1033.36ZM415.72 1032.04L415.935 1032.25C416.876 1031.28 417.34 1030.04 417.34 1028.56H417.04H416.74C416.74 1029.91 416.324 1030.99 415.505 1031.83L415.72 1032.04ZM417.04 1028.56H417.34C417.34 1026.63 416.714 1025.19 415.403 1024.35L415.24 1024.6L415.077 1024.85C416.166 1025.55 416.74 1026.76 416.74 1028.56H417.04ZM415.24 1024.6L415.409 1024.35C414.161 1023.5 412.275 1023.1 409.8 1023.1V1023.4V1023.7C412.232 1023.7 413.972 1024.1 415.071 1024.85L415.24 1024.6ZM409.8 1023.4V1023.1H408.76V1023.4V1023.7H409.8V1023.4ZM408.76 1023.4H409.06V1019.64H408.76H408.46V1023.4H408.76ZM408.76 1019.64V1019.94H409.84V1019.64V1019.34H408.76V1019.64ZM409.84 1019.64L409.844 1019.94C412.027 1019.91 413.731 1019.55 414.918 1018.82L414.76 1018.56L414.602 1018.3C413.549 1018.96 411.973 1019.31 409.836 1019.34L409.84 1019.64ZM414.76 1018.56L414.915 1018.82C416.163 1018.06 416.78 1016.86 416.78 1015.28H416.48H416.18C416.18 1016.68 415.65 1017.67 414.605 1018.3L414.76 1018.56ZM416.48 1015.28H416.78C416.78 1013.93 416.34 1012.83 415.441 1012.02L415.24 1012.24L415.039 1012.46C415.793 1013.14 416.18 1014.07 416.18 1015.28H416.48ZM415.24 1012.24L415.445 1012.02C414.546 1011.18 413.289 1010.78 411.72 1010.78V1011.08V1011.38C413.191 1011.38 414.281 1011.75 415.035 1012.46L415.24 1012.24ZM411.72 1011.08V1010.78C410.176 1010.78 408.933 1011.18 408.035 1012.02L408.24 1012.24L408.445 1012.46C409.2 1011.75 410.278 1011.38 411.72 1011.38V1011.08ZM408.24 1012.24L408.039 1012.02C407.159 1012.81 406.633 1013.81 406.463 1015L406.76 1015.04L407.057 1015.08C407.207 1014.03 407.667 1013.16 408.441 1012.46L408.24 1012.24ZM406.76 1015.04V1014.74H402.32V1015.04V1015.34H406.76V1015.04ZM428.47 1011.24L428.213 1011.09L428.213 1011.09L428.47 1011.24ZM444.59 1011.24L444.332 1011.39L444.334 1011.4L444.59 1011.24ZM444.59 1033L444.332 1032.85L444.332 1032.85L444.59 1033ZM428.47 1033L428.211 1033.15L428.213 1033.15L428.47 1033ZM442.03 1016.56L441.735 1016.61L441.736 1016.62L442.03 1016.56ZM440.35 1012.92L440.126 1013.12L440.129 1013.12L440.35 1012.92ZM432.75 1012.92L432.971 1013.12L432.974 1013.12L432.75 1012.92ZM431.03 1016.56L430.736 1016.5L430.735 1016.51L431.03 1016.56ZM431.03 1027.68L431.325 1027.63L431.03 1027.68ZM432.71 1031.36L432.489 1031.56L432.492 1031.57L432.71 1031.36ZM440.35 1031.36L440.132 1031.15L440.129 1031.16L440.35 1031.36ZM442.07 1027.68L442.365 1027.73L442.07 1027.68ZM426.15 1022.04H426.45C426.45 1017.45 427.22 1013.92 428.727 1011.39L428.47 1011.24L428.213 1011.09C426.627 1013.74 425.85 1017.4 425.85 1022.04H426.15ZM428.47 1011.24L428.727 1011.39C430.232 1008.89 432.811 1007.62 436.55 1007.62V1007.32V1007.02C432.662 1007.02 429.855 1008.36 428.213 1011.09L428.47 1011.24ZM436.55 1007.32V1007.62C440.289 1007.62 442.853 1008.89 444.332 1011.39L444.59 1011.24L444.848 1011.09C443.233 1008.36 440.438 1007.02 436.55 1007.02V1007.32ZM444.59 1011.24L444.334 1011.4C445.867 1013.92 446.65 1017.46 446.65 1022.04H446.95H447.25C447.25 1017.4 446.459 1013.74 444.846 1011.08L444.59 1011.24ZM446.95 1022.04H446.65C446.65 1026.68 445.867 1030.27 444.332 1032.85L444.59 1033L444.848 1033.15C446.46 1030.45 447.25 1026.73 447.25 1022.04H446.95ZM444.59 1033L444.332 1032.85C442.853 1035.35 440.289 1036.62 436.55 1036.62V1036.92V1037.22C440.438 1037.22 443.233 1035.88 444.848 1033.15L444.59 1033ZM436.55 1036.92V1036.62C432.811 1036.62 430.232 1035.35 428.727 1032.85L428.47 1033L428.213 1033.15C429.855 1035.88 432.662 1037.22 436.55 1037.22V1036.92ZM428.47 1033L428.729 1032.85C427.22 1030.27 426.45 1026.68 426.45 1022.04H426.15H425.85C425.85 1026.73 426.627 1030.45 428.211 1033.15L428.47 1033ZM442.47 1022.04H442.77C442.77 1019.87 442.623 1018.02 442.324 1016.5L442.03 1016.56L441.736 1016.62C442.024 1018.09 442.17 1019.89 442.17 1022.04H442.47ZM442.03 1016.56L442.325 1016.51C442.051 1014.97 441.47 1013.7 440.571 1012.72L440.35 1012.92L440.129 1013.12C440.937 1014.01 441.476 1015.16 441.735 1016.61L442.03 1016.56ZM440.35 1012.92L440.574 1012.72C439.648 1011.68 438.288 1011.18 436.55 1011.18V1011.48V1011.78C438.172 1011.78 439.346 1012.24 440.126 1013.12L440.35 1012.92ZM436.55 1011.48V1011.18C434.812 1011.18 433.452 1011.68 432.526 1012.72L432.75 1012.92L432.974 1013.12C433.754 1012.24 434.928 1011.78 436.55 1011.78V1011.48ZM432.75 1012.92L432.529 1012.72C431.631 1013.7 431.037 1014.97 430.736 1016.5L431.03 1016.56L431.324 1016.62C431.609 1015.17 432.162 1014.01 432.971 1013.12L432.75 1012.92ZM431.03 1016.56L430.735 1016.51C430.464 1018.02 430.33 1019.87 430.33 1022.04H430.63H430.93C430.93 1019.89 431.063 1018.08 431.325 1016.61L431.03 1016.56ZM430.63 1022.04H430.33C430.33 1024.29 430.464 1026.19 430.735 1027.73L431.03 1027.68L431.325 1027.63C431.063 1026.13 430.93 1024.27 430.93 1022.04H430.63ZM431.03 1027.68L430.735 1027.73C431.009 1029.3 431.589 1030.58 432.489 1031.56L432.71 1031.36L432.931 1031.16C432.124 1030.27 431.584 1029.1 431.325 1027.63L431.03 1027.68ZM432.71 1031.36L432.492 1031.57C433.445 1032.58 434.814 1033.06 436.55 1033.06V1032.76V1032.46C434.926 1032.46 433.735 1032.01 432.928 1031.15L432.71 1031.36ZM436.55 1032.76V1033.06C438.285 1033.06 439.644 1032.58 440.571 1031.56L440.35 1031.36L440.129 1031.16C439.349 1032.01 438.175 1032.46 436.55 1032.46V1032.76ZM440.35 1031.36L440.568 1031.57C441.496 1030.58 442.091 1029.3 442.365 1027.73L442.07 1027.68L441.775 1027.63C441.516 1029.1 440.964 1030.27 440.132 1031.15L440.35 1031.36ZM442.07 1027.68L442.365 1027.73C442.636 1026.19 442.77 1024.29 442.77 1022.04H442.47H442.17C442.17 1024.27 442.037 1026.13 441.775 1027.63L442.07 1027.68Z" fill="black" mask="url(#path-9-outside-2_1_1615)"/>
<path d="M303.36 234.83C303.36 227.55 304.865 221.075 307.875 215.405C310.955 209.665 315.295 205.22 320.895 202.07C326.495 198.85 332.935 197.24 340.215 197.24C349.455 197.24 357.225 199.725 363.525 204.695C369.825 209.595 373.885 216.28 375.705 224.75H353.55C352.22 221.95 350.365 219.815 347.985 218.345C345.675 216.875 342.98 216.14 339.9 216.14C335.14 216.14 331.325 217.855 328.455 221.285C325.655 224.645 324.255 229.16 324.255 234.83C324.255 240.57 325.655 245.155 328.455 248.585C331.325 251.945 335.14 253.625 339.9 253.625C342.98 253.625 345.675 252.89 347.985 251.42C350.365 249.95 352.22 247.815 353.55 245.015H375.705C373.885 253.485 369.825 260.205 363.525 265.175C357.225 270.075 349.455 272.525 340.215 272.525C332.935 272.525 326.495 270.95 320.895 267.8C315.295 264.58 310.955 260.135 307.875 254.465C304.865 248.725 303.36 242.18 303.36 234.83ZM412.855 272.735C406.975 272.735 401.69 271.51 397 269.06C392.38 266.61 388.74 263.11 386.08 258.56C383.42 254.01 382.09 248.655 382.09 242.495C382.09 236.405 383.42 231.085 386.08 226.535C388.81 221.985 392.485 218.485 397.105 216.035C401.795 213.585 407.08 212.36 412.96 212.36C418.84 212.36 424.09 213.585 428.71 216.035C433.4 218.485 437.075 221.985 439.735 226.535C442.465 231.085 443.83 236.405 443.83 242.495C443.83 248.585 442.465 253.94 439.735 258.56C437.075 263.11 433.4 266.61 428.71 269.06C424.02 271.51 418.735 272.735 412.855 272.735ZM412.855 254.885C415.725 254.885 418.105 253.835 419.995 251.735C421.955 249.565 422.935 246.485 422.935 242.495C422.935 238.505 421.955 235.46 419.995 233.36C418.105 231.26 415.76 230.21 412.96 230.21C410.16 230.21 407.815 231.26 405.925 233.36C404.035 235.46 403.09 238.505 403.09 242.495C403.09 246.555 404 249.635 405.82 251.735C407.64 253.835 409.985 254.885 412.855 254.885ZM472.783 194.3V272H452.203V194.3H472.783ZM481.143 242.495C481.143 236.405 482.228 231.085 484.398 226.535C486.638 221.985 489.683 218.485 493.533 216.035C497.383 213.585 501.653 212.36 506.343 212.36C510.123 212.36 513.483 213.165 516.423 214.775C519.433 216.315 521.778 218.45 523.458 221.18V194.3H544.143V272H523.458V263.81C521.848 266.54 519.573 268.71 516.633 270.32C513.693 271.93 510.228 272.735 506.238 272.735C501.548 272.735 497.278 271.51 493.428 269.06C489.648 266.61 486.638 263.11 484.398 258.56C482.228 253.94 481.143 248.585 481.143 242.495ZM523.563 242.495C523.563 238.715 522.513 235.74 520.413 233.57C518.383 231.4 515.863 230.315 512.853 230.315C509.773 230.315 507.218 231.4 505.188 233.57C503.158 235.67 502.143 238.645 502.143 242.495C502.143 246.275 503.158 249.285 505.188 251.525C507.218 253.695 509.773 254.78 512.853 254.78C515.863 254.78 518.383 253.695 520.413 251.525C522.513 249.355 523.563 246.345 523.563 242.495Z" fill="black"/>
<path d="M409.163 322.34C416.038 321.411 423.838 322.544 430.598 323.839C445.56 326.708 460.46 331.085 475.241 334.82L552.946 354.348L625.986 372.474C639.591 375.809 653.603 378.605 666.966 382.733C680.035 386.769 690.857 394.192 697.307 406.591C701.073 413.832 702.735 421.364 703.248 429.438C704.406 447.714 703.489 466.492 703.489 484.828L703.475 590.854L703.449 737.116L703.439 783.682C703.436 798.915 705.2 820.977 700.599 835.152C696.395 848.102 687.613 856.807 675.672 862.938C664.621 868.605 652.653 872.993 641.167 877.742L584.391 901.252L492.818 939.002C478.076 945.094 463.472 951.716 448.586 957.435C446.374 958.28 442.884 960.048 440.599 959.308C438.594 961.064 434.976 961.437 432.41 961.712C424.49 962.57 416.272 961.444 408.668 959.216C396.522 955.66 384.472 950.328 372.598 945.88L304.677 920.602L220.543 889.284C205.812 883.834 190.656 878.974 176.202 872.856C171.541 870.884 167.213 868.605 163.264 865.395C154.998 858.681 148.475 848.383 147.458 837.621C146.685 829.44 147.123 820.97 147.128 812.749L147.156 769.097L147.103 628.478L147.072 499.176L147.062 459.588C147.071 450.52 146.749 441.264 147.794 432.246C148.812 423.467 152.84 414.889 158.531 408.172C163.714 402.055 170.387 396.802 177.762 393.569C189.703 388.335 202.987 384.876 215.424 380.937L281.835 360.017L358.743 335.821C374.433 330.937 392.881 323.701 409.163 322.34Z" fill="#070416"/>
<path d="M163.527 447.399C163.486 444.554 163.415 441.692 163.508 438.849C163.818 429.353 167.179 421.017 174.206 414.513C178.244 410.776 182.978 408.212 188.104 406.271C200.506 401.573 213.501 398.069 226.181 394.204C245.127 388.447 264.034 382.562 282.9 376.548L359.552 352.3C372.852 348.098 386.179 343.312 399.659 339.798C404.822 338.453 410.067 337.579 415.42 337.834C429.144 338.486 449.516 344.96 463.504 348.448L555.088 371.433L626.94 389.184C639.186 392.176 652.12 394.453 664.043 398.492C669.809 400.444 675.091 403.59 679.172 408.15C687.895 417.897 688.009 429.793 687.351 442.09L687.288 768.742C684.112 765.386 681.27 761.223 678.564 757.459C677.947 706.743 678.452 655.969 678.424 605.246L678.463 568.307C678.48 559.774 679.093 550.675 677.502 542.265C675.607 532.001 670.599 522.569 663.158 515.248C653.61 505.718 640.622 500.44 627.131 500.607C613.499 500.975 600.583 506.788 591.269 516.746C584.519 523.877 580.015 532.569 578.334 542.24C576.794 551.099 577.467 560.538 577.489 569.516L577.493 608.174L577.409 755.635C563.211 774.528 555.686 791.008 559.095 815.219C560.175 822.889 565.519 840.818 571.416 845.606C571.509 845.685 571.616 845.743 571.715 845.809C568.057 849.117 548.144 848.803 542.752 848.527C539.438 848.357 532.118 848.37 529.816 846.012C529.216 846.346 528.843 846.53 528.138 846.497C525.017 846.346 517.898 845.567 515.757 843.248C512.884 844.486 505.669 842.481 502.485 842.029C498.972 841.532 495.764 841.328 492.223 841.545C488.108 841.787 473.441 844.774 470.937 843.877C470.797 843.824 470.665 843.759 470.528 843.7C468.054 845.567 461.897 845.685 458.757 845.2C458.042 845.088 457.441 844.781 456.832 844.407C448.114 848.619 425.97 835.42 417.282 832.099C412.797 830.389 408.307 829.322 403.51 829.02C386.57 827.953 373.315 836.763 357.659 841.27C351.351 843.091 329.457 847.99 324.071 845.023L323.064 845.069C322.363 845.193 321.654 845.272 320.942 845.246C318.217 845.121 313.318 844.774 311.41 842.606C310.669 842.947 309.951 842.927 309.17 842.763C305.776 842.043 302.168 840.182 298.95 838.872C292.02 836.055 285.149 833.114 277.964 830.992C273.064 829.544 268.51 828.784 263.409 828.627C240.622 827.926 212.065 844.604 195.928 842.861C190.641 843.909 182.796 840.595 178.443 837.641C168.991 831.228 166.117 820.931 164.122 810.306C164.041 811.511 163.852 812.631 163.586 813.81C163.414 803.166 163.9 792.417 163.91 781.754L163.804 690.32L163.504 527.513C163.508 500.819 163.146 474.089 163.527 447.399Z" fill="#070416"/>
<path d="M163.528 447.399C163.486 444.554 163.415 441.692 163.508 438.849C163.818 429.353 167.179 421.017 174.206 414.513C178.244 410.776 182.978 408.212 188.104 406.271C200.506 401.573 213.501 398.069 226.182 394.204C245.127 388.447 264.034 382.562 282.9 376.548L359.552 352.3C372.852 348.098 386.18 343.312 399.66 339.798C404.822 338.453 410.067 337.579 415.42 337.834C429.144 338.486 449.516 344.96 463.505 348.448L555.089 371.433L626.94 389.184C639.187 392.176 652.12 394.453 664.043 398.492C669.809 400.444 675.091 403.59 679.172 408.15C687.896 417.897 688.01 429.793 687.351 442.09C685.632 434.419 683.51 421.07 676.252 416.571C674.286 415.352 672.026 414.866 669.754 415.414C661.161 417.488 652.183 421.755 643.883 424.873L591.523 444.53L534.461 465.857C526.045 469.013 515.298 472.116 507.5 476.265C502.406 473.168 496.756 471.76 492.232 467.707C476.204 451.857 455.206 441.178 434.091 433.808C389.797 418.349 343.119 418.786 300.632 439.341C294.13 442.845 287.733 446.494 281.598 450.614C265.178 444.894 247.862 440.726 231.118 435.897C217.285 431.907 201.922 426.41 187.804 424.019C185.289 423.593 182.969 423.646 180.53 424.436C172.616 427.001 168.667 433.216 165.991 440.707C165.228 442.841 164.709 445.142 163.663 447.151C163.619 447.234 163.573 447.316 163.528 447.399Z" fill="#61C7F3"/>
<path d="M163.528 447.399C163.486 444.554 163.415 441.692 163.508 438.849C163.818 429.353 167.179 421.017 174.206 414.513C178.244 410.776 182.978 408.212 188.104 406.271C200.506 401.573 213.501 398.069 226.182 394.204C245.127 388.447 264.034 382.562 282.9 376.548L359.552 352.3C372.852 348.098 386.18 343.312 399.66 339.798C404.822 338.453 410.067 337.579 415.42 337.834C429.144 338.486 449.516 344.96 463.505 348.448L555.089 371.433L626.94 389.184C639.187 392.176 652.12 394.453 664.043 398.492C669.809 400.444 675.091 403.59 679.172 408.15C687.896 417.897 688.01 429.793 687.351 442.09C685.632 434.419 683.51 421.07 676.252 416.571C674.286 415.352 672.026 414.866 669.754 415.414C661.161 417.488 652.183 421.755 643.883 424.873L591.523 444.53L534.461 465.857C526.045 469.013 515.298 472.116 507.5 476.265C502.406 473.168 496.756 471.76 492.232 467.707C503.978 463.415 515.808 459.397 527.502 454.869C545.861 447.759 564.006 440.034 582.304 432.761C592.449 428.762 602.573 424.706 612.673 420.595C617.033 418.831 621.877 417.302 626.031 415.133C627.37 414.433 628.741 413.25 629.521 411.955C630.232 410.774 630.279 409.887 630.015 408.57C629.032 407.252 627.866 406.471 626.424 405.737C617.418 401.154 601.448 398.378 591.377 395.925L537.513 382.704L462.741 364.11C449.577 360.896 435.488 356.322 421.976 355.461C414.317 354.973 406.921 355.704 399.454 357.436C389.938 359.644 380.689 363.187 371.421 366.262L332.536 378.818L276.938 396.454C263.811 400.48 250.474 404.15 237.488 408.565C234.421 409.608 231.017 411.103 229.646 414.274C229.182 415.345 229.239 416.282 229.756 417.323C230.296 418.412 231.002 419.141 232.095 419.679C238.609 422.882 246.757 424.383 253.773 426.341C269.375 430.693 285.112 434.719 300.632 439.341C294.13 442.845 287.733 446.494 281.598 450.614C265.178 444.894 247.862 440.726 231.118 435.897C217.285 431.907 201.922 426.41 187.804 424.019C185.289 423.593 182.969 423.646 180.53 424.436C172.616 427.001 168.667 433.216 165.991 440.707C165.228 442.841 164.709 445.142 163.663 447.151C163.619 447.234 163.573 447.316 163.528 447.399Z" fill="#FEFEF5"/>
<path d="M448.494 383.791C454.469 383.186 459.83 387.47 460.555 393.43C461.28 399.39 457.102 404.834 451.157 405.678C447.203 406.24 443.255 404.62 440.835 401.446C438.414 398.271 437.899 394.036 439.488 390.374C441.077 386.712 444.521 384.194 448.494 383.791Z" fill="#FEFEF5"/>
<path d="M349.278 392.099C353.944 391.955 357.853 395.601 358.03 400.264C358.208 404.927 354.59 408.861 349.927 409.072C345.216 409.285 341.233 405.623 341.053 400.912C340.873 396.201 344.565 392.245 349.278 392.099Z" fill="#FEFEF5"/>
<path d="M514.113 416.247C516.608 415.336 519.399 415.839 521.418 417.564C523.437 419.288 524.369 421.966 523.86 424.57C523.349 427.175 521.475 429.304 518.955 430.14C515.138 431.406 511.012 429.375 509.688 425.578C508.365 421.781 510.336 417.626 514.113 416.247Z" fill="#FEFEF5"/>
<path d="M472.674 420.191C474.054 419.844 475.515 420.267 476.495 421.299C477.476 422.331 477.822 423.812 477.403 425.172C476.984 426.533 475.864 427.561 474.472 427.863C472.37 428.318 470.291 427.005 469.8 424.911C469.309 422.817 470.588 420.717 472.674 420.191Z" fill="#FEFEF5"/>
<path d="M163.527 447.399C163.573 447.317 163.618 447.234 163.662 447.151C164.709 445.142 165.228 442.841 165.99 440.707C168.667 433.216 172.615 427.001 180.53 424.436C182.968 423.646 185.289 423.593 187.804 424.019C201.922 426.41 217.285 431.908 231.118 435.897C247.862 440.726 265.177 444.894 281.598 450.614C264.784 462.751 236.049 485.956 232.577 507.757C231.872 512.188 232.752 516.36 235.452 519.971C239.251 525.053 245.405 527.864 251.294 529.737C246.322 537.216 243.577 545.439 245.349 554.465C247.054 563.141 252.698 570.199 259.968 574.999C262.24 576.5 264.62 577.741 267.082 578.897L267.051 586.229C256.784 588.465 248.207 593.126 242.387 602.158C237.198 610.243 235.428 620.055 237.465 629.443C239.4 638.116 244.736 645.65 252.278 650.353C256.878 653.2 261.968 654.631 267.275 655.463C270.355 677.661 283.103 699.462 300.974 712.951C307.361 717.771 314.026 721.405 321.219 724.874C303.187 725.39 286.513 721.273 273.093 708.535C267.818 703.528 264.109 697.803 260.758 691.41C262.976 683.875 265.462 674.4 261.53 667.026C259.862 663.897 257.149 661.769 253.753 660.785C249.849 659.653 245.753 660.115 241.851 660.991C238.43 651.438 233.122 643.248 223.703 638.709C215.894 634.923 206.887 634.444 198.72 637.381C189.217 640.788 181.609 648.608 177.461 657.712C170.678 672.601 173.041 690.272 178.736 705.102C192.496 740.933 220.035 773.797 255.459 789.489C270.969 796.36 288.616 801.083 305.588 802.085C307.815 802.216 311.05 802.616 313.092 801.784C313.229 801.725 313.36 801.66 313.493 801.594C312.761 815.245 311.406 828.929 311.41 842.606C310.669 842.947 309.951 842.927 309.17 842.763C305.776 842.043 302.168 840.183 298.95 838.872C292.02 836.056 285.149 833.115 277.964 830.992C273.064 829.545 268.51 828.785 263.409 828.628C240.622 827.927 212.065 844.604 195.928 842.862C190.641 843.91 182.796 840.595 178.443 837.641C168.991 831.228 166.117 820.931 164.122 810.306C164.041 811.511 163.852 812.631 163.586 813.811C163.414 803.166 163.9 792.417 163.91 781.755L163.804 690.32L163.504 527.513C163.508 500.819 163.146 474.089 163.527 447.399Z" fill="#61C7F3"/>
<path d="M200.649 540.984C203.991 539.86 207.679 540.63 210.29 542.997C212.902 545.365 214.029 548.96 213.235 552.394C212.443 555.828 209.854 558.565 206.468 559.548C201.383 561.026 196.05 558.166 194.466 553.115C192.883 548.062 195.63 542.672 200.649 540.984Z" fill="#FEFEF5"/>
<path d="M206.673 469.786C211.54 468.24 216.738 470.933 218.279 475.8C219.821 480.666 217.12 485.861 212.251 487.396C207.389 488.928 202.205 486.234 200.666 481.376C199.126 476.517 201.815 471.331 206.673 469.786Z" fill="#FEFEF5"/>
<path d="M211.271 789.554C215.866 788.178 220.707 790.779 222.096 795.371C223.485 799.963 220.9 804.81 216.315 806.212C211.706 807.627 206.828 805.026 205.432 800.415C204.035 795.803 206.653 790.93 211.271 789.554Z" fill="#FEFEF5"/>
<path d="M221.312 581.242C224.578 580.771 227.614 583.017 228.118 586.277C228.622 589.537 226.407 592.595 223.152 593.133C221.016 593.486 218.855 592.665 217.493 590.983C216.131 589.301 215.778 587.016 216.568 585.002C217.358 582.986 219.169 581.551 221.312 581.242Z" fill="#FEFEF5"/>
<path d="M507.5 476.266C515.298 472.117 526.045 469.013 534.461 465.858L591.523 444.53L643.883 424.874C652.183 421.755 661.161 417.488 669.753 415.414C672.026 414.866 674.286 415.353 676.251 416.572C683.51 421.071 685.632 434.42 687.351 442.09L687.288 768.742C684.112 765.387 681.27 761.223 678.564 757.459C677.947 706.743 678.452 655.969 678.424 605.247L678.463 568.307C678.48 559.774 679.093 550.676 677.503 542.265C675.608 532.001 670.599 522.569 663.158 515.248C653.61 505.718 640.622 500.44 627.131 500.607C613.499 500.976 600.584 506.788 591.27 516.746C584.52 523.877 580.015 532.57 578.335 542.24C576.795 551.099 577.467 560.538 577.489 569.516L577.493 608.174L577.41 755.635C563.211 774.528 555.687 791.008 559.095 815.219C560.176 822.889 565.519 840.818 571.416 845.606C571.509 845.685 571.616 845.744 571.715 845.809C568.057 849.117 548.144 848.803 542.752 848.528C539.438 848.357 532.118 848.37 529.816 846.012C531.598 837.772 529.076 801.234 527.627 792.201C522.642 761.152 507.277 734.772 481.688 716.319C500.97 700.31 513.622 681.947 520.642 657.757C523.453 657.736 526.244 657.713 529.015 657.181C538.146 655.397 546.177 650.02 551.304 642.258C556.467 634.48 558.25 624.94 556.243 615.824C554.041 605.622 547.79 598.182 539.212 592.624C546.269 572.866 548.602 550.582 544.126 529.967C539.217 507.357 527.001 488.832 507.5 476.266Z" fill="#61C7F3"/>
<path d="M608.928 459.937C613.696 458.767 618.514 461.663 619.717 466.421C620.92 471.18 618.057 476.017 613.306 477.252C608.508 478.5 603.613 475.603 602.397 470.798C601.182 465.994 604.114 461.119 608.928 459.937Z" fill="#FEFEF5"/>
<path d="M550.236 681.489C555.023 681.362 559.054 685.04 559.366 689.817C559.677 694.595 556.158 698.765 551.394 699.26C548.145 699.599 544.972 698.133 543.123 695.44C541.274 692.748 541.046 689.26 542.53 686.35C544.013 683.441 546.97 681.575 550.236 681.489Z" fill="#FEFEF5"/>
<path d="M565.558 491.83C569.384 490.961 573.186 493.372 574.03 497.202C574.874 501.032 572.438 504.816 568.602 505.635C564.801 506.446 561.058 504.038 560.222 500.244C559.385 496.45 561.769 492.692 565.558 491.83Z" fill="#FEFEF5"/>
<path d="M526.453 725.176C528.425 724.413 530.658 724.813 532.242 726.212C533.827 727.612 534.498 729.779 533.983 731.829C533.469 733.879 531.854 735.471 529.796 735.958C526.902 736.642 523.971 734.968 523.09 732.128C522.209 729.287 523.679 726.249 526.453 725.176Z" fill="#FEFEF5"/>
<path d="M541.879 756.15C543.919 755.325 546.246 756.264 547.14 758.275C548.034 760.285 547.173 762.642 545.194 763.603C543.853 764.255 542.263 764.124 541.047 763.26C539.83 762.398 539.183 760.939 539.356 759.459C539.529 757.978 540.496 756.709 541.879 756.15Z" fill="#FEFEF5"/>
<path d="M205.346 725.588C221.448 720.404 238.014 713.851 252.932 705.86C260.214 716.96 269.754 725.596 281.826 731.27C298.001 738.871 315.852 740.803 332.829 734.701C338.496 739.628 360.292 742.992 368.201 743.922C396.858 747.291 449.542 745.886 472.901 727.445C496.512 744.594 509.268 767.264 513.858 795.954C515.734 807.686 517.432 831.431 515.757 843.248C512.884 844.486 505.67 842.482 502.485 842.03C498.972 841.532 495.765 841.329 492.224 841.545C488.109 841.787 473.442 844.775 470.937 843.877C470.798 843.825 470.665 843.759 470.529 843.7C468.054 845.567 461.898 845.685 458.758 845.2C458.042 845.089 457.441 844.781 456.832 844.408C448.114 848.62 425.97 835.421 417.282 832.099C412.797 830.39 408.308 829.322 403.51 829.021C386.57 827.953 373.315 836.763 357.66 841.27C351.351 843.091 329.458 847.991 324.071 845.023C324.001 839.082 324.566 833.082 324.945 827.154C325.611 815.94 326.448 804.738 327.454 793.55C328.173 786.148 329.314 778.727 329.831 771.314C329.921 770.019 330.134 768.149 329.512 766.963C328.857 765.692 327.685 764.766 326.298 764.422C324.836 764.075 323.41 764.36 322.185 765.216C316.426 769.243 315.785 782.236 314.699 788.775C306.367 788.598 298.066 787.675 289.896 786.024C252.383 778.181 226.054 757.148 205.346 725.588Z" fill="#FE750A"/>
<path d="M456.832 844.407C457.354 831.418 457.304 817.878 455.914 804.967C455.157 797.939 453.337 790.877 452.969 783.838C452.878 782.097 452.867 780.303 453.961 778.84C455.096 777.321 456.699 776.357 458.604 776.215C460.187 776.097 461.496 776.589 462.675 777.644C471.104 785.192 470.104 830.363 470.529 843.7C468.054 845.567 461.898 845.685 458.758 845.2C458.042 845.089 457.441 844.781 456.832 844.407Z" fill="#070416"/>
<path d="M467.054 723.415L472.901 727.445C449.542 745.885 396.858 747.29 368.201 743.921C360.292 742.992 338.496 739.627 332.829 734.7C335.309 733.581 337.565 732.126 339.863 730.681C375.202 742.593 433.274 739.64 467.054 723.415Z" fill="#FD6234"/>
<path d="M375.119 560.706C375.842 566.803 376.725 573.083 381.826 577.215C385.513 580.201 390.205 580.743 394.783 580.166C413.864 577.764 438.623 561.116 450.883 546.702C462.058 572.09 479.404 597.776 506.396 608.218C507.5 608.638 508.62 609.016 509.754 609.348C514.19 605.763 518.055 602.501 524.059 602.435C528.622 602.385 533.276 604.153 536.527 607.413C540.392 611.289 542.825 616.868 542.78 622.358C542.734 627.978 541.034 633.697 536.924 637.696C529.184 645.228 522.342 642.619 513.052 642.657C512.293 642.66 511.588 642.77 510.871 643.026C507.864 644.1 507.288 650.214 506.684 653.004C503.148 669.327 495.651 683.979 483.859 695.905C461.473 718.542 427.124 723.464 396.734 723.675C364.567 723.897 326.956 719.544 302.977 695.761C282.388 675.339 281.138 651.481 281.018 624.095L280.903 588.849L280.869 582.408C311.788 587.947 348.238 579.298 373.968 561.524C374.355 561.256 374.739 560.984 375.119 560.706Z" fill="#FEC290"/>
<path d="M375.119 560.706C375.842 566.803 376.725 573.083 381.826 577.215C385.513 580.201 390.205 580.743 394.783 580.166C413.864 577.764 438.623 561.116 450.883 546.702C462.058 572.09 479.404 597.776 506.396 608.218C507.5 608.638 508.62 609.016 509.754 609.348C508.987 610.229 508.153 611.291 507.086 611.808C505.281 612.683 503.108 612.386 501.261 611.812C476.491 604.12 460.586 578.101 449.005 556.674C437.286 567.201 423.233 577.415 408.364 582.946C400.21 585.979 390.006 588.202 381.778 584.329C375.967 581.594 373.221 576.722 371.083 570.931C342.898 587.68 313.246 593.033 280.903 588.849L280.869 582.408C311.788 587.947 348.238 579.298 373.968 561.524C374.355 561.256 374.739 560.984 375.119 560.706Z" fill="#FEA76A"/>
<path d="M459.276 633.61C469.659 631.689 479.641 638.529 481.593 648.904C483.545 659.28 476.732 669.279 466.361 671.262C455.945 673.252 445.892 666.406 443.932 655.987C441.971 645.568 448.848 635.539 459.276 633.61Z" fill="#FD6234"/>
<path d="M307.642 633.818C317.81 631.574 327.88 637.971 330.168 648.127C332.456 658.283 326.101 668.377 315.953 670.708C305.742 673.055 295.569 666.654 293.267 656.436C290.965 646.217 297.411 636.074 307.642 633.818Z" fill="#FD6234"/>
<path d="M417.095 657.624C418.848 657.695 420.704 658.233 422.109 659.304C423.194 660.131 423.922 661.318 424.085 662.681C424.424 665.511 422.856 668.32 421.131 670.446C414.074 679.138 402.212 684.593 391.212 685.645C377.031 687 364.195 682.867 353.205 673.811C351.799 672.436 350.268 671.035 349.286 669.31C348.123 667.268 347.516 664.08 348.211 661.787C348.591 660.535 349.357 659.587 350.549 659.022C352.135 658.27 354.642 658.175 356.261 658.857C360.932 660.825 364.544 667.682 373.943 670.885C383.467 674.131 399.148 673.264 407.096 666.461C410.311 663.709 412.764 659.66 416.636 657.836L417.095 657.624Z" fill="#070416"/>
<path d="M438.438 599.8C439.838 599.892 441.244 600.174 442.53 600.75C445.707 602.172 447.951 605.32 448.998 608.552C450.658 613.675 450.387 620.574 447.803 625.359C445.797 629.076 443.255 630.617 439.28 631.78C437.231 631.508 435.403 631.178 433.609 630.067C430.415 628.092 428.39 624.847 427.538 621.234C426.345 616.178 426.913 609.925 429.765 605.493C431.944 602.107 434.567 600.639 438.438 599.8Z" fill="#070416"/>
<path d="M326.615 600.305C328.556 600.088 330.434 599.929 332.324 600.59C335.343 601.647 337.717 604.053 339.104 606.887C341.414 611.607 341.504 618.259 339.786 623.179C338.328 627.354 336.185 629.502 332.249 631.38C330.543 631.619 329.018 631.729 327.321 631.268C324.247 630.434 321.828 628.367 320.304 625.606C317.725 620.938 317.451 614.163 319.028 609.133C320.398 604.762 322.607 602.388 326.615 600.305Z" fill="#070416"/>
<path d="M366.453 630.647C375.221 631.74 371.369 637.723 376.69 641.042C384.988 646.217 385.797 636.666 391.769 635.661C393.295 635.404 394.793 635.819 396.005 636.777C397.461 637.928 398.336 639.729 398.469 641.566C398.737 645.254 396.79 647.649 394.462 650.168C393.089 651.372 391.576 652.404 389.956 653.244C385.251 655.723 379.346 655.79 374.364 654.152C369.137 652.434 364.712 648.803 362.32 643.812C361.035 641.132 360.31 637.858 361.461 635.003C362.437 632.582 364.219 631.641 366.453 630.647Z" fill="#070416"/>
<path d="M247.657 512.633C246.426 510.566 246.369 509.09 246.923 506.806C250.988 490.065 283.484 465.391 297.948 456.791C333.647 435.563 374.013 433.716 413.693 443.8C433.3 448.782 454.084 456.408 470.617 468.306C476.306 472.4 481.113 477.746 486.894 481.629C490.516 484.063 494.955 485.514 498.806 487.598C507.638 492.378 515.161 500.956 520.213 509.52C525.425 518.357 529.931 529.897 530.605 540.213C534.396 552.397 529.62 576.262 526.04 588.258C519.282 588.484 514.26 590.203 508.461 593.575C487.095 582.371 472.019 562.544 463.618 540.216C461.947 535.773 461.351 529.242 457.867 525.837C456.765 524.76 455.179 523.885 453.594 524.031C449.667 524.393 445.894 531.611 443.693 534.524C434.352 546.888 411.085 563.551 395.455 565.601C393.742 565.826 391.606 565.877 390.204 564.72C383.767 559.409 396.978 541.386 395.88 534.847C395.696 533.752 395.197 532.78 394.261 532.151C391.699 530.428 389.002 530.884 386.606 532.593C381.497 536.239 377.153 541.571 372.19 545.589C357.042 557.854 337.616 565.457 318.473 568.409C304.213 570.608 278.446 571.65 266.29 562.585C262.156 559.503 259.413 555.035 258.747 549.896C257.141 537.516 268.848 532.185 275.03 523.887C275.724 522.954 276.069 521.893 275.83 520.729C274.83 515.855 261 517.354 256.851 516.592C253.215 515.923 250.668 514.743 247.657 512.633Z" fill="#A4511A"/>
<path d="M247.657 512.633C246.426 510.566 246.369 509.09 246.923 506.806C250.988 490.065 283.484 465.391 297.948 456.791C333.647 435.563 374.013 433.716 413.693 443.8C433.3 448.782 454.084 456.408 470.617 468.306C476.306 472.4 481.113 477.746 486.894 481.629C490.516 484.063 494.955 485.514 498.806 487.598C507.638 492.378 515.161 500.956 520.213 509.52C525.425 518.357 529.931 529.897 530.605 540.213C528.562 537.512 527.172 533.026 525.659 529.912C522.578 523.417 518.724 517.316 514.183 511.741C502.684 497.529 495.965 496.406 481.61 487.32C474.525 482.836 468.517 476.666 461.39 472.102C440.043 458.435 409.435 449.859 384.392 447.275C341.243 442.823 308.55 457.653 276.683 485.857C266.862 494.55 257.789 504.381 247.657 512.633Z" fill="#FEFEF5"/>
<path d="M205.512 649.919C210.237 649.563 214.684 649.648 218.959 651.971C229.359 657.621 228.485 668.066 231.617 677.751C232.183 679.498 233.324 681.849 235.134 682.56C240.632 684.718 243.95 674.695 248.324 673.011C249.107 672.71 249.09 672.898 249.783 673.229C251.584 677.984 247.792 688.526 246.005 693.116C241.252 695.746 236.136 697.772 231.154 699.93C220.28 704.64 209.403 709.012 197.936 712.073C194.67 706.135 191.764 699.939 189.787 693.446C186.638 683.103 185.7 670.962 191.041 661.152C194.314 655.139 199.064 651.857 205.512 649.919Z" fill="#FE060A"/>
<path d="M266.474 600.793C268.164 603.46 267.129 635.397 266.954 640.988C263.123 639.788 260.141 638.291 256.937 635.857C254.306 633.291 252.412 630.066 251.454 626.518C249.935 620.901 250.728 614.908 253.658 609.88C256.678 604.805 260.878 602.254 266.474 600.793Z" fill="#FEC290"/>
<path d="M163.587 813.81C163.852 812.631 164.041 811.511 164.122 810.306C166.118 820.93 168.991 831.228 178.444 837.641C182.796 840.595 190.641 843.909 195.928 842.861C212.065 844.604 240.622 827.926 263.409 828.627C268.51 828.784 273.064 829.544 277.965 830.992C285.149 833.114 292.02 836.055 298.95 838.872C302.168 840.182 305.776 842.042 309.17 842.763C309.952 842.927 310.67 842.946 311.41 842.606C313.319 844.774 318.217 845.121 320.942 845.246C321.655 845.272 322.363 845.193 323.064 845.069L324.071 845.023C329.458 847.99 351.351 843.09 357.66 841.269C373.315 836.763 386.57 827.952 403.51 829.02C408.307 829.321 412.797 830.389 417.282 832.099C425.97 835.42 448.114 848.619 456.832 844.407C457.441 844.781 458.042 845.088 458.757 845.2C461.898 845.684 468.054 845.567 470.529 843.7C470.665 843.759 470.798 843.824 470.937 843.877C473.441 844.774 488.109 841.787 492.224 841.545C495.765 841.328 498.972 841.532 502.485 842.029C505.67 842.481 512.884 844.486 515.757 843.248C517.898 845.567 525.018 846.346 528.138 846.497C528.844 846.529 529.216 846.346 529.816 846.012C532.118 848.37 539.438 848.357 542.752 848.527C548.144 848.802 568.057 849.117 571.715 845.809C574.195 850.171 583.626 860.711 588.324 862.329C588.521 862.395 588.737 862.395 588.943 862.427C589.962 863.443 591.077 864.157 592.303 864.89C596.493 867.399 607.366 873.445 611.839 872.325C611.028 873.072 610.255 873.681 609.247 874.146C599.889 878.456 589.994 882 580.454 885.911L520.058 910.763L468.034 932.314C458.923 936.113 449.768 940.469 440.458 943.725C435.944 945.297 431.201 946.102 426.421 946.122C422.23 946.109 418.067 945.454 414.076 944.176C402.482 940.528 391.004 935.799 379.594 931.587L314.975 907.815L228.089 875.816C212.948 870.203 197.495 864.989 182.596 858.779C178.769 857.18 173.967 855.163 171.076 852.182C161.074 841.885 163.424 826.924 163.587 813.81Z" fill="#FEFEF5"/>
<path d="M324.071 845.023C329.457 847.99 351.351 843.09 357.66 841.269C373.315 836.763 386.57 827.952 403.51 829.02C408.307 829.321 412.797 830.389 417.282 832.099C425.97 835.42 448.114 848.619 456.832 844.407C457.441 844.78 458.042 845.088 458.757 845.2C461.898 845.684 468.054 845.566 470.528 843.7C470.665 843.759 470.798 843.824 470.937 843.876C473.441 844.774 488.108 841.787 492.223 841.544C495.765 841.328 498.972 841.531 502.485 842.029C505.669 842.481 512.884 844.486 515.757 843.248C517.898 845.566 525.017 846.346 528.138 846.497C528.844 846.529 529.216 846.346 529.816 846.012C532.118 848.37 539.438 848.357 542.752 848.527C548.144 848.802 568.057 849.117 571.715 845.809C574.195 850.171 583.626 860.711 588.324 862.329C588.521 862.395 588.737 862.394 588.943 862.427C584.253 865.408 578.098 867.242 572.942 869.344L542.774 881.725L479.261 907.769C469.989 911.582 460.808 915.866 451.434 919.383C449.382 920.156 446.344 921.512 444.2 921.027C442.16 920.562 440.561 919.409 439.479 917.614C438.492 915.977 437.947 913.94 437.759 912.047C437.288 907.298 437.696 902.149 437.712 897.367L437.771 867.975C437.776 864.399 438.408 859.178 437.29 855.811C436.838 854.442 435.49 853.316 434.145 852.877C433.063 852.523 432.264 852.641 431.221 853.027C429.295 854.501 428.675 856.519 428.358 858.831C427.815 862.781 428.134 867.078 428.15 871.067L428.276 898.88C428.293 903.819 428.701 909.158 428.021 914.025C427.845 915.296 427.396 917.431 426.237 918.184C426.089 918.283 425.92 918.342 425.762 918.42C425.169 918.486 424.748 918.525 424.157 918.414C420.633 917.759 416.711 915.125 413.399 913.651C383.838 900.374 357.056 881.627 334.468 858.399C330.57 854.331 325.908 849.955 323.064 845.069L324.071 845.023Z" fill="#61C7F3"/>
<path d="M368.009 864.759C371.999 864.622 375.385 867.661 375.672 871.644C375.959 875.627 373.046 879.124 369.077 879.563C366.373 879.858 363.722 878.653 362.168 876.419C360.614 874.192 360.404 871.29 361.622 868.853C362.84 866.423 365.29 864.851 368.009 864.759Z" fill="#FEFEF5"/>
<path d="M195.928 842.861C212.065 844.604 240.622 827.927 263.409 828.627C268.511 828.785 273.064 829.545 277.965 830.992C285.149 833.114 292.02 836.056 298.95 838.872C302.168 840.182 305.776 842.043 309.17 842.763C309.952 842.927 310.67 842.947 311.41 842.606C313.319 844.774 318.217 845.121 320.942 845.246C321.655 845.272 322.363 845.193 323.064 845.069C325.909 849.956 330.57 854.331 334.468 858.399C357.056 881.627 383.838 900.374 413.399 913.652C416.711 915.126 420.633 917.759 424.157 918.414C424.748 918.525 425.169 918.486 425.762 918.421C425.147 920.084 424.266 921.087 422.754 922.036C419.706 923.949 415.943 924.309 412.481 923.497C402.393 921.119 392.215 916.58 382.492 912.938L336.461 895.894C291.093 879.02 245.3 862.991 200.17 845.534C198.483 844.879 196.916 844.473 195.928 842.861Z" fill="#A0E2F9" fill-opacity="0.376471"/>
<path d="M623.685 515.362C625.221 515.26 626.766 515.162 628.305 515.163C637.525 515.172 646.618 519.272 653.111 525.733C658.709 531.305 662.058 537.869 663.375 545.623C664.756 553.754 664.122 562.504 664.124 570.745L664.114 610.66L663.74 763.052C669.626 768.572 674.583 774.341 678.215 781.604C684.508 794.172 685.502 808.74 680.975 822.044C676.104 836.239 665.77 847.905 652.265 854.456C648.076 856.499 638.685 860.744 634.431 859.264C632.82 860.207 630.942 860.194 629.127 860.24C615.041 860.6 600.369 854.449 590.261 844.774C579.396 834.293 573.155 819.922 572.917 804.83C572.759 788.002 580.496 774.689 591.899 763.128L591.884 614.923L591.884 571.258C591.886 563.008 591.319 554.306 592.359 546.128C593.151 539.89 595.351 534.436 599.136 529.387C605.179 521.325 613.816 516.769 623.685 515.362Z" fill="#FEFEF5"/>
<path d="M621.327 588.165C621.322 582.648 619.883 565.102 623.732 561.29C625.005 560.029 626.932 559.159 628.745 559.261C630.082 559.336 631.1 559.957 631.93 560.988C635.583 565.526 634.59 575.021 634.55 580.564C638.315 580.496 647.808 579.244 650.778 581.785C651.677 582.553 652.06 583.53 652.04 584.703C652.025 585.609 651.477 586.52 650.774 587.064C647.138 589.881 638.858 588.393 634.544 588.444L634.525 609.909C638.394 609.845 647.985 608.6 650.993 611.282C651.842 612.04 652.073 613.038 652.011 614.14C651.936 615.456 650.934 616.226 649.994 616.998C645.535 618.481 639.347 617.588 634.598 617.795L634.581 638.56C638.436 638.495 647.746 637.301 650.792 639.919C651.593 640.607 652.119 641.611 652.06 642.69C651.996 643.869 651.217 644.804 650.256 645.411C646.537 647.758 638.712 646.349 634.41 646.435L634.298 667.975C639.12 667.801 646.946 666.49 651.124 669.287C651.796 670.384 652.246 670.971 651.948 672.33C651.747 673.247 650.968 674.395 650.138 674.854C647.038 676.568 638.162 675.497 634.425 675.507C634.293 681.061 634.368 686.589 634.505 692.143C638.487 692.082 647.779 690.911 650.967 693.503C651.782 694.165 652.066 694.872 652.104 695.887C652.145 696.961 651.606 697.937 650.856 698.677C648.04 701.46 638.278 699.927 634.385 700.016C634.423 705.232 634.324 710.493 634.574 715.702C638.606 715.69 647.941 714.459 650.974 717.328C651.736 718.05 652.02 718.912 652.256 719.905C651.873 721.255 651.705 721.543 650.469 722.258C648.735 723.263 647.032 723.439 645.804 725.178C645.243 726.913 645.97 766.777 645.963 772.941C654.183 777.99 660.218 785.283 662.487 794.788C664.674 803.958 663.379 814.341 658.283 822.345C653.262 830.232 645.013 835.616 635.931 837.614C626.297 839.776 616.197 837.955 607.923 832.57C600.21 827.572 594.885 819.633 593.191 810.6C591.392 801.338 592.993 791.303 598.373 783.456C601.578 778.782 605.727 775.429 610.575 772.581L610.579 738.905C608.747 738.879 607.027 739 605.36 738.137C604.485 737.193 603.824 736.135 603.838 734.792C603.851 733.621 604.451 732.731 605.391 732.077C608.661 729.802 616.733 730.903 620.732 731.02C620.531 728.197 620.62 725.675 622.401 723.349C621.251 722.349 621.277 722.104 621.175 720.583C620.972 717.529 621.217 714.311 621.282 711.248C617.895 711.259 607.581 712.393 605.245 710.183C604.117 709.115 603.83 707.969 603.85 706.47C604.519 705.082 605.015 704.38 606.588 703.852C610.911 702.404 616.592 703.384 621.11 703.337C621.233 696.626 621.247 689.914 621.151 683.203C616.498 683.298 608.49 684.504 604.58 681.603C603.94 680.482 603.572 679.886 603.949 678.532C604.269 677.384 605.383 676.119 606.501 675.702C610.129 674.35 617.065 675.281 621.076 675.269L621.391 653.409C618.167 653.396 607.693 654.457 605.474 652.526C604.377 651.571 603.942 650.225 603.775 648.835C604.271 647.545 604.483 646.99 605.811 646.332C609.887 644.314 616.81 645.557 621.299 645.441C621.157 638.38 621.102 631.317 621.135 624.254C617.913 624.282 607.522 625.391 605.294 623.287C604.233 622.284 603.864 620.911 603.819 619.506C604.512 618.095 605.008 617.445 606.614 616.924C610.85 615.547 616.695 616.312 621.106 616.404L621.159 596.214C617.523 596.274 607.536 597.423 604.828 594.682C604.067 593.912 603.864 593.195 603.934 592.143C604.003 591.123 604.631 589.815 605.429 589.154C608.15 586.898 617.618 588.369 621.327 588.165Z" fill="#070416"/>
<path d="M622.402 723.349C627.011 722.618 631.921 722.932 636.585 722.965L636.691 778.02C644.354 782.401 650.824 787.268 653.238 796.223C655.034 802.885 654.063 810.548 650.54 816.496C646.979 822.405 641.163 826.61 634.432 828.143C627.466 829.853 620.103 828.687 614.007 824.907C608.249 821.232 604.184 815.422 602.706 808.754C601.196 802.013 602.244 794.651 605.999 788.808C609.361 783.582 614.066 780.573 619.615 778.062C619.975 773.559 620.326 739.76 620.432 739.53C620.535 739.308 621.304 738.588 621.522 738.393C622.7 737.34 623.482 736.951 623.878 735.335C623.794 734.028 623.501 733.157 622.489 732.269C621.952 731.799 621.332 731.406 620.733 731.021C620.532 728.197 620.621 725.675 622.402 723.349Z" fill="#0590DE"/>
</svg>
