<svg width="849" height="1183" viewBox="0 0 849 1183" fill="none" xmlns="http://www.w3.org/2000/svg">
<rect x="5" y="5" width="839" height="1173" rx="45" fill="white"/>
<rect x="5" y="5" width="839" height="1173" rx="45" stroke="black" stroke-width="10"/>
<circle cx="786.5" cy="1124.5" r="11.5" fill="black"/>
<circle cx="786.5" cy="59.5" r="11.5" fill="black"/>
<path d="M77 1124.5C77 1130.85 71.8513 1136 65.5 1136C59.1487 1136 54 1130.85 54 1124.5C54 1118.15 59.1487 1113 65.5 1113C71.8513 1113 77 1118.15 77 1124.5Z" fill="black"/>
<path d="M77 59.5C77 65.8513 71.8513 71 65.5 71C59.1487 71 54 65.8513 54 59.5C54 53.1487 59.1487 48 65.5 48C71.8513 48 77 53.1487 77 59.5Z" fill="black"/>
<mask id="path-6-inside-1_1_185" fill="white">
<path d="M708 48C713.523 48 717.934 52.4996 718.616 57.9801C723.122 94.1833 751.817 122.878 788.02 127.384C793.5 128.066 798 132.477 798 138V1046C798 1051.52 793.5 1055.93 788.02 1056.62C751.817 1061.12 723.122 1089.82 718.616 1126.02C717.934 1131.5 713.523 1136 708 1136H141C135.477 1136 131.066 1131.5 130.384 1126.02C125.878 1089.82 97.1833 1061.12 60.9801 1056.62C55.4996 1055.93 51 1051.52 51 1046V138C51 132.477 55.4996 128.066 60.9801 127.384C97.1833 122.878 125.878 94.1833 130.384 57.9801C131.066 52.4996 135.477 48 141 48H708Z"/>
</mask>
<path d="M708 48C713.523 48 717.934 52.4996 718.616 57.9801C723.122 94.1833 751.817 122.878 788.02 127.384C793.5 128.066 798 132.477 798 138V1046C798 1051.52 793.5 1055.93 788.02 1056.62C751.817 1061.12 723.122 1089.82 718.616 1126.02C717.934 1131.5 713.523 1136 708 1136H141C135.477 1136 131.066 1131.5 130.384 1126.02C125.878 1089.82 97.1833 1061.12 60.9801 1056.62C55.4996 1055.93 51 1051.52 51 1046V138C51 132.477 55.4996 128.066 60.9801 127.384C97.1833 122.878 125.878 94.1833 130.384 57.9801C131.066 52.4996 135.477 48 141 48H708Z" fill="#006AB6"/>
<path d="M130.384 1126.02L138.322 1125.03L130.384 1126.02ZM718.616 1126.02L710.678 1125.03L718.616 1126.02ZM788.02 1056.62L789.008 1064.56L788.02 1056.62ZM718.616 57.9801L726.555 56.9922L718.616 57.9801ZM718.616 57.9801L710.678 58.9681C715.635 98.8063 747.194 130.365 787.032 135.322L788.02 127.384L789.008 119.445C756.44 115.392 730.608 89.5603 726.555 56.9922L718.616 57.9801ZM798 138H790V1046H798H806V138H798ZM788.02 1056.62L787.032 1048.68C747.194 1053.64 715.635 1085.19 710.678 1125.03L718.616 1126.02L726.555 1127.01C730.608 1094.44 756.44 1068.61 789.008 1064.56L788.02 1056.62ZM708 1136V1128H141V1136V1144H708V1136ZM130.384 1126.02L138.322 1125.03C133.365 1085.19 101.806 1053.64 61.9681 1048.68L60.9801 1056.62L59.9922 1064.56C92.5603 1068.61 118.392 1094.44 122.445 1127.01L130.384 1126.02ZM51 1046H59V138H51H43V1046H51ZM60.9801 127.384L61.9681 135.322C101.806 130.365 133.365 98.8063 138.322 58.9681L130.384 57.9801L122.445 56.9922C118.392 89.5603 92.5603 115.392 59.9922 119.445L60.9801 127.384ZM141 48V56H708V48V40H141V48ZM130.384 57.9801L138.322 58.9681C138.438 58.0389 138.872 57.2306 139.427 56.6958C139.954 56.1887 140.494 56 141 56V48V40C130.84 40 123.547 48.1329 122.445 56.9922L130.384 57.9801ZM51 138H59C59 137.494 59.1887 136.954 59.6958 136.427C60.2306 135.872 61.0389 135.438 61.9681 135.322L60.9801 127.384L59.9922 119.445C51.1329 120.547 43 127.84 43 138H51ZM60.9801 1056.62L61.9681 1048.68C61.0389 1048.56 60.2306 1048.13 59.6958 1047.57C59.1887 1047.05 59 1046.51 59 1046H51H43C43 1056.16 51.1329 1063.45 59.9922 1064.56L60.9801 1056.62ZM141 1136V1128C140.494 1128 139.954 1127.81 139.427 1127.3C138.872 1126.77 138.438 1125.96 138.322 1125.03L130.384 1126.02L122.445 1127.01C123.547 1135.87 130.84 1144 141 1144V1136ZM718.616 1126.02L710.678 1125.03C710.562 1125.96 710.128 1126.77 709.573 1127.3C709.046 1127.81 708.506 1128 708 1128V1136V1144C718.16 1144 725.453 1135.87 726.555 1127.01L718.616 1126.02ZM798 1046H790C790 1046.51 789.811 1047.05 789.304 1047.57C788.769 1048.13 787.961 1048.56 787.032 1048.68L788.02 1056.62L789.008 1064.56C797.867 1063.45 806 1056.16 806 1046H798ZM788.02 127.384L787.032 135.322C787.961 135.438 788.769 135.872 789.304 136.427C789.811 136.954 790 137.494 790 138H798H806C806 127.84 797.867 120.547 789.008 119.445L788.02 127.384ZM718.616 57.9801L726.555 56.9922C725.453 48.1329 718.16 40 708 40V48V56C708.506 56 709.046 56.1887 709.573 56.6958C710.128 57.2306 710.562 58.0389 710.678 58.9681L718.616 57.9801Z" fill="black" mask="url(#path-6-inside-1_1_185)"/>
<path d="M690 102C695.523 102 699.911 106.512 700.837 111.957C705.019 136.563 724.437 155.981 749.043 160.163C754.488 161.089 759 165.477 759 171V1014C759 1019.52 754.488 1023.91 749.043 1024.84C724.711 1028.97 705.454 1048 700.984 1072.22C699.993 1077.59 695.633 1082 690.175 1082H158.825C153.367 1082 149.007 1077.59 148.016 1072.22C143.546 1048 124.288 1028.97 99.9568 1024.84C94.5121 1023.91 90 1019.52 90 1014V171C90 165.477 94.512 161.089 99.9568 160.163C124.563 155.981 143.981 136.563 148.163 111.957C149.089 106.512 153.477 102 159 102H690Z" fill="#5298CB"/>
<mask id="path-9-outside-2_1_185" maskUnits="userSpaceOnUse" x="406" y="1007" width="34" height="31" fill="black">
<rect fill="white" x="406" y="1007" width="34" height="31"/>
<path d="M425.2 1011.76H411.8V1019.72C412.36 1018.97 413.187 1018.35 414.28 1017.84C415.4 1017.33 416.587 1017.08 417.84 1017.08C420.08 1017.08 421.893 1017.56 423.28 1018.52C424.693 1019.48 425.693 1020.69 426.28 1022.16C426.893 1023.63 427.2 1025.17 427.2 1026.8C427.2 1028.77 426.813 1030.53 426.04 1032.08C425.293 1033.6 424.16 1034.8 422.64 1035.68C421.147 1036.56 419.307 1037 417.12 1037C414.213 1037 411.88 1036.28 410.12 1034.84C408.36 1033.4 407.307 1031.49 406.96 1029.12H411.4C411.693 1030.37 412.347 1031.37 413.36 1032.12C414.373 1032.84 415.64 1033.2 417.16 1033.2C419.053 1033.2 420.467 1032.63 421.4 1031.48C422.36 1030.33 422.84 1028.81 422.84 1026.92C422.84 1025 422.36 1023.53 421.4 1022.52C420.44 1021.48 419.027 1020.96 417.16 1020.96C415.853 1020.96 414.747 1021.29 413.84 1021.96C412.96 1022.6 412.32 1023.48 411.92 1024.6H407.6V1007.76H425.2V1011.76ZM431.347 1012V1007.84H439.667V1037H435.067V1012H431.347Z"/>
</mask>
<path d="M425.2 1011.76H411.8V1019.72C412.36 1018.97 413.187 1018.35 414.28 1017.84C415.4 1017.33 416.587 1017.08 417.84 1017.08C420.08 1017.08 421.893 1017.56 423.28 1018.52C424.693 1019.48 425.693 1020.69 426.28 1022.16C426.893 1023.63 427.2 1025.17 427.2 1026.8C427.2 1028.77 426.813 1030.53 426.04 1032.08C425.293 1033.6 424.16 1034.8 422.64 1035.68C421.147 1036.56 419.307 1037 417.12 1037C414.213 1037 411.88 1036.28 410.12 1034.84C408.36 1033.4 407.307 1031.49 406.96 1029.12H411.4C411.693 1030.37 412.347 1031.37 413.36 1032.12C414.373 1032.84 415.64 1033.2 417.16 1033.2C419.053 1033.2 420.467 1032.63 421.4 1031.48C422.36 1030.33 422.84 1028.81 422.84 1026.92C422.84 1025 422.36 1023.53 421.4 1022.52C420.44 1021.48 419.027 1020.96 417.16 1020.96C415.853 1020.96 414.747 1021.29 413.84 1021.96C412.96 1022.6 412.32 1023.48 411.92 1024.6H407.6V1007.76H425.2V1011.76ZM431.347 1012V1007.84H439.667V1037H435.067V1012H431.347Z" fill="black"/>
<path d="M425.2 1011.76V1012.06H425.5V1011.76H425.2ZM411.8 1011.76V1011.46H411.5V1011.76H411.8ZM411.8 1019.72H411.5V1020.62L412.04 1019.9L411.8 1019.72ZM414.28 1017.84L414.156 1017.57L414.154 1017.57L414.28 1017.84ZM423.28 1018.52L423.109 1018.77L423.111 1018.77L423.28 1018.52ZM426.28 1022.16L426.001 1022.27L426.003 1022.28L426.28 1022.16ZM426.04 1032.08L425.772 1031.95L425.771 1031.95L426.04 1032.08ZM422.64 1035.68L422.49 1035.42L422.488 1035.42L422.64 1035.68ZM410.12 1034.84L410.31 1034.61L410.12 1034.84ZM406.96 1029.12V1028.82H406.613L406.663 1029.16L406.96 1029.12ZM411.4 1029.12L411.692 1029.05L411.638 1028.82H411.4V1029.12ZM413.36 1032.12L413.182 1032.36L413.186 1032.36L413.36 1032.12ZM421.4 1031.48L421.17 1031.29L421.167 1031.29L421.4 1031.48ZM421.4 1022.52L421.18 1022.72L421.182 1022.73L421.4 1022.52ZM413.84 1021.96L414.016 1022.2L414.018 1022.2L413.84 1021.96ZM411.92 1024.6V1024.9H412.131L412.203 1024.7L411.92 1024.6ZM407.6 1024.6H407.3V1024.9H407.6V1024.6ZM407.6 1007.76V1007.46H407.3V1007.76H407.6ZM425.2 1007.76H425.5V1007.46H425.2V1007.76ZM425.2 1011.76V1011.46H411.8V1011.76V1012.06H425.2V1011.76ZM411.8 1011.76H411.5V1019.72H411.8H412.1V1011.76H411.8ZM411.8 1019.72L412.04 1019.9C412.563 1019.2 413.345 1018.6 414.406 1018.11L414.28 1017.84L414.154 1017.57C413.028 1018.09 412.157 1018.74 411.56 1019.54L411.8 1019.72ZM414.28 1017.84L414.404 1018.11C415.484 1017.62 416.628 1017.38 417.84 1017.38V1017.08V1016.78C416.545 1016.78 415.316 1017.04 414.156 1017.57L414.28 1017.84ZM417.84 1017.08V1017.38C420.039 1017.38 421.787 1017.85 423.109 1018.77L423.28 1018.52L423.451 1018.27C422 1017.27 420.121 1016.78 417.84 1016.78V1017.08ZM423.28 1018.52L423.111 1018.77C424.48 1019.7 425.439 1020.86 426.001 1022.27L426.28 1022.16L426.559 1022.05C425.948 1020.52 424.907 1019.26 423.449 1018.27L423.28 1018.52ZM426.28 1022.16L426.003 1022.28C426.601 1023.7 426.9 1025.21 426.9 1026.8H427.2H427.5C427.5 1025.13 427.186 1023.55 426.557 1022.04L426.28 1022.16ZM427.2 1026.8H426.9C426.9 1028.73 426.521 1030.45 425.772 1031.95L426.04 1032.08L426.308 1032.21C427.105 1030.62 427.5 1028.81 427.5 1026.8H427.2ZM426.04 1032.08L425.771 1031.95C425.051 1033.41 423.96 1034.57 422.49 1035.42L422.64 1035.68L422.79 1035.94C424.36 1035.03 425.535 1033.79 426.309 1032.21L426.04 1032.08ZM422.64 1035.68L422.488 1035.42C421.051 1036.27 419.267 1036.7 417.12 1036.7V1037V1037.3C419.346 1037.3 421.242 1036.85 422.792 1035.94L422.64 1035.68ZM417.12 1037V1036.7C414.263 1036.7 412.003 1035.99 410.31 1034.61L410.12 1034.84L409.93 1035.07C411.757 1036.57 414.164 1037.3 417.12 1037.3V1037ZM410.12 1034.84L410.31 1034.61C408.611 1033.22 407.593 1031.38 407.257 1029.08L406.96 1029.12L406.663 1029.16C407.02 1031.61 408.109 1033.58 409.93 1035.07L410.12 1034.84ZM406.96 1029.12V1029.42H411.4V1029.12V1028.82H406.96V1029.12ZM411.4 1029.12L411.108 1029.19C411.417 1030.51 412.11 1031.57 413.182 1032.36L413.36 1032.12L413.538 1031.88C412.583 1031.18 411.97 1030.24 411.692 1029.05L411.4 1029.12ZM413.36 1032.12L413.186 1032.36C414.261 1033.13 415.592 1033.5 417.16 1033.5V1033.2V1032.9C415.688 1032.9 414.486 1032.55 413.534 1031.88L413.36 1032.12ZM417.16 1033.2V1033.5C419.116 1033.5 420.627 1032.9 421.633 1031.67L421.4 1031.48L421.167 1031.29C420.306 1032.35 418.991 1032.9 417.16 1032.9V1033.2ZM421.4 1031.48L421.63 1031.67C422.646 1030.46 423.14 1028.86 423.14 1026.92H422.84H422.54C422.54 1028.76 422.074 1030.21 421.17 1031.29L421.4 1031.48ZM422.84 1026.92H423.14C423.14 1024.95 422.648 1023.4 421.618 1022.31L421.4 1022.52L421.182 1022.73C422.072 1023.67 422.54 1025.05 422.54 1026.92H422.84ZM421.4 1022.52L421.62 1022.32C420.587 1021.2 419.082 1020.66 417.16 1020.66V1020.96V1021.26C418.971 1021.26 420.293 1021.76 421.18 1022.72L421.4 1022.52ZM417.16 1020.96V1020.66C415.8 1020.66 414.628 1021.01 413.662 1021.72L413.84 1021.96L414.018 1022.2C414.865 1021.58 415.907 1021.26 417.16 1021.26V1020.96ZM413.84 1021.96L413.664 1021.72C412.73 1022.4 412.056 1023.33 411.637 1024.5L411.92 1024.6L412.203 1024.7C412.584 1023.63 413.19 1022.8 414.016 1022.2L413.84 1021.96ZM411.92 1024.6V1024.3H407.6V1024.6V1024.9H411.92V1024.6ZM407.6 1024.6H407.9V1007.76H407.6H407.3V1024.6H407.6ZM407.6 1007.76V1008.06H425.2V1007.76V1007.46H407.6V1007.76ZM425.2 1007.76H424.9V1011.76H425.2H425.5V1007.76H425.2ZM431.347 1012H431.047V1012.3H431.347V1012ZM431.347 1007.84V1007.54H431.047V1007.84H431.347ZM439.667 1007.84H439.967V1007.54H439.667V1007.84ZM439.667 1037V1037.3H439.967V1037H439.667ZM435.067 1037H434.767V1037.3H435.067V1037ZM435.067 1012H435.367V1011.7H435.067V1012ZM431.347 1012H431.647V1007.84H431.347H431.047V1012H431.347ZM431.347 1007.84V1008.14H439.667V1007.84V1007.54H431.347V1007.84ZM439.667 1007.84H439.367V1037H439.667H439.967V1007.84H439.667ZM439.667 1037V1036.7H435.067V1037V1037.3H439.667V1037ZM435.067 1037H435.367V1012H435.067H434.767V1037H435.067ZM435.067 1012V1011.7H431.347V1012V1012.3H435.067V1012Z" fill="black" mask="url(#path-9-outside-2_1_185)"/>
<path d="M259.46 214.46V226.535H283.085V242.18H259.46V255.515H286.235V272H238.88V197.975H286.235V214.46H259.46ZM293.044 242.495C293.044 236.405 294.304 231.085 296.824 226.535C299.344 221.985 302.844 218.485 307.324 216.035C311.874 213.585 317.054 212.36 322.864 212.36C330.354 212.36 336.654 214.425 341.764 218.555C346.874 222.615 350.164 228.32 351.634 235.67H329.794C328.534 231.82 326.084 229.895 322.444 229.895C319.854 229.895 317.789 230.98 316.249 233.15C314.779 235.25 314.044 238.365 314.044 242.495C314.044 246.625 314.779 249.775 316.249 251.945C317.789 254.115 319.854 255.2 322.444 255.2C326.154 255.2 328.604 253.275 329.794 249.425H351.634C350.164 256.705 346.874 262.41 341.764 266.54C336.654 270.67 330.354 272.735 322.864 272.735C317.054 272.735 311.874 271.51 307.324 269.06C302.844 266.61 299.344 263.11 296.824 258.56C294.304 254.01 293.044 248.655 293.044 242.495ZM380.764 194.3V272H360.184V194.3H380.764ZM402.879 207.635C399.239 207.635 396.299 206.655 394.059 204.695C391.889 202.665 390.804 200.145 390.804 197.135C390.804 194.055 391.889 191.5 394.059 189.47C396.299 187.44 399.239 186.425 402.879 186.425C406.449 186.425 409.319 187.44 411.489 189.47C413.729 191.5 414.849 194.055 414.849 197.135C414.849 200.145 413.729 202.665 411.489 204.695C409.319 206.655 406.449 207.635 402.879 207.635ZM413.064 213.095V272H392.484V213.095H413.064ZM445.363 221.285C446.973 218.555 449.248 216.385 452.188 214.775C455.128 213.165 458.593 212.36 462.583 212.36C467.273 212.36 471.508 213.585 475.288 216.035C479.138 218.485 482.148 221.985 484.318 226.535C486.558 231.085 487.678 236.405 487.678 242.495C487.678 248.585 486.558 253.94 484.318 258.56C482.148 263.11 479.138 266.61 475.288 269.06C471.508 271.51 467.273 272.735 462.583 272.735C458.593 272.735 455.128 271.93 452.188 270.32C449.318 268.71 447.043 266.54 445.363 263.81V300.14H424.783V213.095H445.363V221.285ZM466.783 242.495C466.783 238.645 465.733 235.67 463.633 233.57C461.603 231.4 459.083 230.315 456.073 230.315C453.063 230.315 450.508 231.4 448.408 233.57C446.378 235.74 445.363 238.715 445.363 242.495C445.363 246.345 446.378 249.355 448.408 251.525C450.508 253.695 453.063 254.78 456.073 254.78C459.083 254.78 461.603 253.695 463.633 251.525C465.733 249.285 466.783 246.275 466.783 242.495ZM521.246 272.735C515.926 272.735 511.166 271.86 506.966 270.11C502.836 268.29 499.546 265.84 497.096 262.76C494.716 259.61 493.386 256.075 493.106 252.155H513.056C513.336 254.045 514.211 255.515 515.681 256.565C517.151 257.615 518.971 258.14 521.141 258.14C522.821 258.14 524.151 257.79 525.131 257.09C526.111 256.39 526.601 255.48 526.601 254.36C526.601 252.89 525.796 251.805 524.186 251.105C522.576 250.405 519.916 249.635 516.206 248.795C512.006 247.955 508.506 247.01 505.706 245.96C502.906 244.91 500.456 243.195 498.356 240.815C496.326 238.435 495.311 235.215 495.311 231.155C495.311 227.655 496.256 224.505 498.146 221.705C500.036 218.835 502.801 216.56 506.441 214.88C510.151 213.2 514.596 212.36 519.776 212.36C527.476 212.36 533.531 214.25 537.941 218.03C542.351 221.81 544.906 226.78 545.606 232.94H527.021C526.671 231.05 525.831 229.615 524.501 228.635C523.241 227.585 521.526 227.06 519.356 227.06C517.676 227.06 516.381 227.375 515.471 228.005C514.631 228.635 514.211 229.51 514.211 230.63C514.211 232.03 515.016 233.115 516.626 233.885C518.236 234.585 520.826 235.32 524.396 236.09C528.666 237 532.201 238.015 535.001 239.135C537.871 240.255 540.356 242.075 542.456 244.595C544.626 247.045 545.711 250.405 545.711 254.675C545.711 258.105 544.696 261.185 542.666 263.915C540.706 266.645 537.871 268.815 534.161 270.425C530.521 271.965 526.216 272.735 521.246 272.735ZM612.108 241.865C612.108 243.475 612.003 245.085 611.793 246.695H572.838C573.048 249.915 573.923 252.33 575.463 253.94C577.073 255.48 579.103 256.25 581.553 256.25C584.983 256.25 587.433 254.71 588.903 251.63H610.848C609.938 255.69 608.153 259.33 605.493 262.55C602.903 265.7 599.613 268.185 595.623 270.005C591.633 271.825 587.223 272.735 582.393 272.735C576.583 272.735 571.403 271.51 566.853 269.06C562.373 266.61 558.838 263.11 556.248 258.56C553.728 254.01 552.468 248.655 552.468 242.495C552.468 236.335 553.728 231.015 556.248 226.535C558.768 221.985 562.268 218.485 566.748 216.035C571.298 213.585 576.513 212.36 582.393 212.36C588.203 212.36 593.348 213.55 597.828 215.93C602.308 218.31 605.808 221.74 608.328 226.22C610.848 230.63 612.108 235.845 612.108 241.865ZM591.108 236.72C591.108 234.2 590.268 232.24 588.588 230.84C586.908 229.37 584.808 228.635 582.288 228.635C579.768 228.635 577.703 229.335 576.093 230.735C574.483 232.065 573.433 234.06 572.943 236.72H591.108Z" fill="black"/>
<path d="M294.377 401.237C313.361 398.965 317.404 413.527 329.915 422.917L330.458 423.32C349.797 422.728 368.129 426.555 386.322 432.836C393.363 430.088 400.079 425.944 407.031 422.855C552.491 358.227 718.134 455.724 737.773 614.239C753.66 742.489 661.44 864.099 532.442 879.868C525.617 881.357 517.93 881.322 510.965 881.608C469.967 883.29 430.753 873.187 394.647 854.353C370.981 861.437 353.822 861.07 330.458 862.054C316.213 872.89 312.34 887.481 289.895 881.684C272.156 877.103 269.662 861.092 261.397 847.159C234.83 835.952 210.376 818.76 190.116 798.293C172.684 797.559 151.782 802.698 145.601 779.212C142.369 766.934 149.22 757.355 155.185 747.212C150.956 736.023 145.317 725.465 141.385 714.092C136.986 701.367 135.3 689.633 132.183 676.842C100.046 655.3 99.8323 635.855 132.183 611.623C132.11 583.861 144.841 563.603 153.718 539.45C146.1 524.934 138.53 510.286 152.117 496.846C164.27 484.826 174.34 486.665 190.116 486.702C205.4 466.106 239.992 442.287 264.67 435.415C270.166 419.685 276.304 404.735 294.377 401.237Z" fill="#020205"/>
<path d="M410.063 446.362C436.841 459.606 476.017 484.501 492.816 510.555C496.612 513.951 499.663 519.261 502.595 523.458C557.387 601.892 547.962 710.587 484.544 781.298C470.683 796.752 432.388 827.239 410.195 828.496C391.488 829.556 372.813 816.218 359.137 804.785C329.435 780.274 305.137 738.477 295.231 702.012C270.545 611.144 308.11 510.355 387.354 459.004C394.585 454.319 402.09 449.675 410.063 446.362Z" fill="#474747"/>
<path d="M492.813 510.562C496.61 513.959 499.66 519.269 502.593 523.466C557.384 601.9 547.959 710.595 484.541 781.306C470.681 796.76 432.385 827.247 410.192 828.504C391.485 829.564 372.811 816.225 359.135 804.793C410.264 792.823 462.071 755.981 487.675 709.872C517.757 655.701 529.053 593.875 503.684 535.981C500.002 527.577 495.328 519.418 492.813 510.562Z" fill="#1C1C1C"/>
<path d="M384.166 733.261C400.201 732.111 414.117 744.215 415.201 760.255C416.285 776.296 404.124 790.161 388.08 791.179C372.128 792.191 358.36 780.116 357.282 764.169C356.204 748.222 368.223 734.405 384.166 733.261Z" fill="#020205"/>
<path d="M474.29 554.703C490.077 552.621 504.549 563.769 506.566 579.565C508.582 595.361 497.374 609.786 481.569 611.737C465.858 613.675 451.535 602.548 449.532 586.844C447.528 571.14 458.596 556.772 474.29 554.703Z" fill="#020205"/>
<path d="M391.208 504.017C402.278 502.517 412.459 510.295 413.924 521.368C415.389 532.442 407.579 542.6 396.502 544.03C385.471 545.454 375.369 537.686 373.91 526.662C372.451 515.637 380.188 505.51 391.208 504.017Z" fill="#020205"/>
<path d="M438.02 435.412C473.177 421.521 526.165 423.514 561.281 433.952C612.472 449.17 660.682 485.995 686.257 533.18C719.716 590.275 725.293 663.528 700.3 724.943C661.405 820.526 552.623 878.741 451.995 851.932C445.783 850.278 439.874 847.958 433.464 847.156C434.568 846.33 469.535 826.28 470.048 826.182L471.185 825.057C476.166 820.038 482.238 816.106 487.497 811.359C549.259 755.608 574.887 664.272 554.443 584.066C536.782 514.772 497.345 470.604 438.02 435.412Z" fill="#6392C8"/>
<path d="M686.257 533.185C719.716 590.28 725.293 663.533 700.3 724.948C661.405 820.53 552.623 878.746 451.995 851.937C445.783 850.283 439.874 847.963 433.464 847.161C434.568 846.335 469.535 826.285 470.048 826.186C471.635 827.148 483.258 826.213 485.673 826.141C539.193 824.557 594.757 800.489 631.429 761.262C633.034 759.545 636.099 756.743 636.019 754.281C641.318 749.235 643.311 748.314 647.188 741.394C654.793 741.482 674.091 702.421 677.379 695.077C696.856 651.576 701.202 602.355 691.119 555.898C689.616 548.969 685.523 540.24 686.257 533.185Z" fill="#3F7CAB"/>
<path d="M636.016 754.279C611.692 768.701 580.783 745.909 589.812 717.925C601.982 680.206 663.026 696.966 647.185 741.392C643.308 748.312 641.315 749.233 636.016 754.279Z" fill="#020205"/>
<path d="M587.592 479.634C604.636 476.908 620.664 488.515 623.39 505.559C626.116 522.603 614.509 538.63 597.464 541.356C580.421 544.082 564.394 532.475 561.668 515.431C558.942 498.388 570.549 482.36 587.592 479.634Z" fill="#020205"/>
<path d="M132.185 644.298C151.555 619.057 150.659 637.174 156.99 601.064C159.17 588.632 162.901 576.897 167.822 565.283C170.696 558.503 177.66 547.971 177.628 540.87C177.583 531.069 167.792 519.395 168.335 513.356C171.126 508.451 192.974 512.9 201.328 507.006C205.637 503.968 208.813 499.366 212.609 495.74C226.058 482.885 241.603 471.318 258.363 463.105C265.485 459.615 274.162 457.197 280.141 451.841C285.901 446.679 292.202 422.479 299.143 425.607C304.9 428.201 312.48 440.613 319.098 444.753C324.978 448.43 349.165 446.984 360.609 449.75C352.687 455.339 346.414 463.584 338.321 468.699L320.856 487.893C293.941 525.768 277.755 553.059 268.656 600.96C254.207 677.699 276.818 752.524 331.05 807.985C334.75 811.77 338.78 815.276 342.405 819.123C350.159 825.662 357.518 830.612 365.577 836.557C352.184 838.704 325.367 836.694 317.448 842.015C313.383 844.747 299.54 860.621 295.46 859.165C292.705 858.181 286.549 843.86 284.927 840.618C278.249 827.273 270.828 825.907 258.206 819.409C243.529 811.851 230.068 802.435 217.435 791.842C212.291 787.527 204.958 778.952 198.947 776.56C188.136 772.259 176.172 776.697 168.399 774.105C167.21 769.98 173.867 761.632 175.372 757.541C181.539 740.775 173.717 732.616 167.877 717.642C163.326 705.974 159.56 694.362 157.222 682.05C151.953 654.736 150.451 663.925 132.185 644.298Z" fill="url(#paint0_linear_1_185)"/>
<path d="M132.185 644.298C151.555 619.057 150.659 637.174 156.99 601.064C159.17 588.632 162.901 576.897 167.822 565.283C170.696 558.503 177.66 547.971 177.627 540.87C177.583 531.069 167.792 519.395 168.335 513.356C171.126 508.451 192.974 512.9 201.328 507.006C205.636 503.968 208.813 499.366 212.609 495.74C226.058 482.885 241.603 471.318 258.363 463.105C265.485 459.615 274.162 457.197 280.141 451.841C285.901 446.679 292.202 422.479 299.143 425.607C304.9 428.201 312.48 440.613 319.098 444.753C324.978 448.43 349.165 446.984 360.609 449.75C352.687 455.339 346.414 463.584 338.321 468.699C334.678 467.649 328.601 468.613 324.749 468.967C226.419 478.033 164.314 566.247 174.077 663.052C174.708 669.308 175.46 676.021 177.283 682.05C170.619 682.233 163.86 681.554 157.222 682.05C151.953 654.736 150.451 663.925 132.185 644.298Z" fill="#F43D38"/>
<path d="M157.219 682.05C163.857 681.554 170.617 682.233 177.28 682.05C191.179 755.759 254.918 808.781 327.635 818.198C331.693 818.723 338.551 820.698 342.402 819.123C350.156 825.662 357.515 830.613 365.574 836.558C352.181 838.704 325.364 836.694 317.445 842.016C313.38 844.748 299.537 860.621 295.458 859.165C292.702 858.181 286.546 843.86 284.924 840.618C278.246 827.274 270.825 825.907 258.203 819.409C243.526 811.851 230.066 802.436 217.432 791.842C212.288 787.528 204.955 778.952 198.944 776.561C188.133 772.26 176.169 776.697 168.396 774.106C167.208 769.981 173.864 761.632 175.369 757.541C181.536 740.776 173.715 732.616 167.874 717.643C163.323 705.975 159.557 694.362 157.219 682.05Z" fill="#CA2927"/>
<path d="M268.656 600.961C266.461 599.757 262.412 599.622 259.878 599.121C225.398 592.286 210.599 566.597 231.45 536.807C251.44 508.248 287.454 493.858 320.856 487.895C293.941 525.769 277.755 553.061 268.656 600.961Z" fill="#FE890C"/>
<defs>
<linearGradient id="paint0_linear_1_185" x1="397.295" y1="775.921" x2="209.058" y2="524.918" gradientUnits="userSpaceOnUse">
<stop stop-color="#EBAB1A"/>
<stop offset="1" stop-color="#FFD03F"/>
</linearGradient>
</defs>
</svg>
