<svg width="849" height="1183" viewBox="0 0 849 1183" fill="none" xmlns="http://www.w3.org/2000/svg">
<rect x="5" y="5" width="839" height="1173" rx="45" fill="white"/>
<rect x="5" y="5" width="839" height="1173" rx="45" stroke="black" stroke-width="10"/>
<circle cx="786.5" cy="1124.5" r="11.5" fill="black"/>
<circle cx="786.5" cy="59.5" r="11.5" fill="black"/>
<path d="M77 1124.5C77 1130.85 71.8513 1136 65.5 1136C59.1487 1136 54 1130.85 54 1124.5C54 1118.15 59.1487 1113 65.5 1113C71.8513 1113 77 1118.15 77 1124.5Z" fill="black"/>
<path d="M77 59.5C77 65.8513 71.8513 71 65.5 71C59.1487 71 54 65.8513 54 59.5C54 53.1487 59.1487 48 65.5 48C71.8513 48 77 53.1487 77 59.5Z" fill="black"/>
<mask id="path-6-inside-1_1_2748" fill="white">
<path d="M708 48C713.523 48 717.934 52.4996 718.616 57.9801C723.122 94.1833 751.817 122.878 788.02 127.384C793.5 128.066 798 132.477 798 138V1046C798 1051.52 793.5 1055.93 788.02 1056.62C751.817 1061.12 723.122 1089.82 718.616 1126.02C717.934 1131.5 713.523 1136 708 1136H141C135.477 1136 131.066 1131.5 130.384 1126.02C125.878 1089.82 97.1833 1061.12 60.9801 1056.62C55.4996 1055.93 51 1051.52 51 1046V138C51 132.477 55.4996 128.066 60.9801 127.384C97.1833 122.878 125.878 94.1833 130.384 57.9801C131.066 52.4996 135.477 48 141 48H708Z"/>
</mask>
<path d="M708 48C713.523 48 717.934 52.4996 718.616 57.9801C723.122 94.1833 751.817 122.878 788.02 127.384C793.5 128.066 798 132.477 798 138V1046C798 1051.52 793.5 1055.93 788.02 1056.62C751.817 1061.12 723.122 1089.82 718.616 1126.02C717.934 1131.5 713.523 1136 708 1136H141C135.477 1136 131.066 1131.5 130.384 1126.02C125.878 1089.82 97.1833 1061.12 60.9801 1056.62C55.4996 1055.93 51 1051.52 51 1046V138C51 132.477 55.4996 128.066 60.9801 127.384C97.1833 122.878 125.878 94.1833 130.384 57.9801C131.066 52.4996 135.477 48 141 48H708Z" fill="#C357B5"/>
<path d="M130.384 1126.02L138.322 1125.03L130.384 1126.02ZM718.616 1126.02L710.678 1125.03L718.616 1126.02ZM788.02 1056.62L789.008 1064.56L788.02 1056.62ZM718.616 57.9801L726.555 56.9922L718.616 57.9801ZM718.616 57.9801L710.678 58.9681C715.635 98.8063 747.194 130.365 787.032 135.322L788.02 127.384L789.008 119.445C756.44 115.392 730.608 89.5603 726.555 56.9922L718.616 57.9801ZM798 138H790V1046H798H806V138H798ZM788.02 1056.62L787.032 1048.68C747.194 1053.64 715.635 1085.19 710.678 1125.03L718.616 1126.02L726.555 1127.01C730.608 1094.44 756.44 1068.61 789.008 1064.56L788.02 1056.62ZM708 1136V1128H141V1136V1144H708V1136ZM130.384 1126.02L138.322 1125.03C133.365 1085.19 101.806 1053.64 61.9681 1048.68L60.9801 1056.62L59.9922 1064.56C92.5603 1068.61 118.392 1094.44 122.445 1127.01L130.384 1126.02ZM51 1046H59V138H51H43V1046H51ZM60.9801 127.384L61.9681 135.322C101.806 130.365 133.365 98.8063 138.322 58.9681L130.384 57.9801L122.445 56.9922C118.392 89.5603 92.5603 115.392 59.9922 119.445L60.9801 127.384ZM141 48V56H708V48V40H141V48ZM130.384 57.9801L138.322 58.9681C138.438 58.0389 138.872 57.2306 139.427 56.6958C139.954 56.1887 140.494 56 141 56V48V40C130.84 40 123.547 48.1329 122.445 56.9922L130.384 57.9801ZM51 138H59C59 137.494 59.1887 136.954 59.6958 136.427C60.2306 135.872 61.0389 135.438 61.9681 135.322L60.9801 127.384L59.9922 119.445C51.1329 120.547 43 127.84 43 138H51ZM60.9801 1056.62L61.9681 1048.68C61.0389 1048.56 60.2306 1048.13 59.6958 1047.57C59.1887 1047.05 59 1046.51 59 1046H51H43C43 1056.16 51.1329 1063.45 59.9922 1064.56L60.9801 1056.62ZM141 1136V1128C140.494 1128 139.954 1127.81 139.427 1127.3C138.872 1126.77 138.438 1125.96 138.322 1125.03L130.384 1126.02L122.445 1127.01C123.547 1135.87 130.84 1144 141 1144V1136ZM718.616 1126.02L710.678 1125.03C710.562 1125.96 710.128 1126.77 709.573 1127.3C709.046 1127.81 708.506 1128 708 1128V1136V1144C718.16 1144 725.453 1135.87 726.555 1127.01L718.616 1126.02ZM798 1046H790C790 1046.51 789.811 1047.05 789.304 1047.57C788.769 1048.13 787.961 1048.56 787.032 1048.68L788.02 1056.62L789.008 1064.56C797.867 1063.45 806 1056.16 806 1046H798ZM788.02 127.384L787.032 135.322C787.961 135.438 788.769 135.872 789.304 136.427C789.811 136.954 790 137.494 790 138H798H806C806 127.84 797.867 120.547 789.008 119.445L788.02 127.384ZM718.616 57.9801L726.555 56.9922C725.453 48.1329 718.16 40 708 40V48V56C708.506 56 709.046 56.1887 709.573 56.6958C710.128 57.2306 710.562 58.0389 710.678 58.9681L718.616 57.9801Z" fill="black" mask="url(#path-6-inside-1_1_2748)"/>
<path d="M690 102C695.523 102 699.911 106.512 700.837 111.957C705.019 136.563 724.437 155.981 749.043 160.163C754.488 161.089 759 165.477 759 171V1014C759 1019.52 754.488 1023.91 749.043 1024.84C724.711 1028.97 705.454 1048 700.984 1072.22C699.993 1077.59 695.633 1082 690.175 1082H158.825C153.367 1082 149.007 1077.59 148.016 1072.22C143.546 1048 124.288 1028.97 99.9568 1024.84C94.5121 1023.91 90 1019.52 90 1014V171C90 165.477 94.512 161.089 99.9568 160.163C124.563 155.981 143.981 136.563 148.163 111.957C149.089 106.512 153.477 102 159 102H690Z" fill="#D78BCD"/>
<mask id="path-9-outside-2_1_2748" maskUnits="userSpaceOnUse" x="401" y="1006" width="46" height="32" fill="black">
<rect fill="white" x="401" y="1006" width="46" height="32"/>
<path d="M404.92 1030.8C407.48 1028.59 409.493 1026.77 410.96 1025.36C412.453 1023.92 413.693 1022.43 414.68 1020.88C415.667 1019.33 416.16 1017.79 416.16 1016.24C416.16 1014.64 415.773 1013.39 415 1012.48C414.253 1011.57 413.067 1011.12 411.44 1011.12C409.867 1011.12 408.64 1011.63 407.76 1012.64C406.907 1013.63 406.453 1014.96 406.4 1016.64H402C402.08 1013.6 402.987 1011.28 404.72 1009.68C406.48 1008.05 408.707 1007.24 411.4 1007.24C414.307 1007.24 416.573 1008.04 418.2 1009.64C419.853 1011.24 420.68 1013.37 420.68 1016.04C420.68 1017.96 420.187 1019.81 419.2 1021.6C418.24 1023.36 417.08 1024.95 415.72 1026.36C414.387 1027.75 412.68 1029.36 410.6 1031.2L408.8 1032.8H421.48V1036.6H402.04V1033.28L404.92 1030.8ZM425.486 1022.04C425.486 1017.43 426.259 1013.83 427.806 1011.24C429.379 1008.63 432.073 1007.32 435.886 1007.32C439.699 1007.32 442.379 1008.63 443.926 1011.24C445.499 1013.83 446.286 1017.43 446.286 1022.04C446.286 1026.71 445.499 1030.36 443.926 1033C442.379 1035.61 439.699 1036.92 435.886 1036.92C432.073 1036.92 429.379 1035.61 427.806 1033C426.259 1030.36 425.486 1026.71 425.486 1022.04ZM441.806 1022.04C441.806 1019.88 441.659 1018.05 441.366 1016.56C441.099 1015.07 440.539 1013.85 439.686 1012.92C438.833 1011.96 437.566 1011.48 435.886 1011.48C434.206 1011.48 432.939 1011.96 432.086 1012.92C431.233 1013.85 430.659 1015.07 430.366 1016.56C430.099 1018.05 429.966 1019.88 429.966 1022.04C429.966 1024.28 430.099 1026.16 430.366 1027.68C430.633 1029.2 431.193 1030.43 432.046 1031.36C432.926 1032.29 434.206 1032.76 435.886 1032.76C437.566 1032.76 438.833 1032.29 439.686 1031.36C440.566 1030.43 441.139 1029.2 441.406 1027.68C441.673 1026.16 441.806 1024.28 441.806 1022.04Z"/>
</mask>
<path d="M404.92 1030.8C407.48 1028.59 409.493 1026.77 410.96 1025.36C412.453 1023.92 413.693 1022.43 414.68 1020.88C415.667 1019.33 416.16 1017.79 416.16 1016.24C416.16 1014.64 415.773 1013.39 415 1012.48C414.253 1011.57 413.067 1011.12 411.44 1011.12C409.867 1011.12 408.64 1011.63 407.76 1012.64C406.907 1013.63 406.453 1014.96 406.4 1016.64H402C402.08 1013.6 402.987 1011.28 404.72 1009.68C406.48 1008.05 408.707 1007.24 411.4 1007.24C414.307 1007.24 416.573 1008.04 418.2 1009.64C419.853 1011.24 420.68 1013.37 420.68 1016.04C420.68 1017.96 420.187 1019.81 419.2 1021.6C418.24 1023.36 417.08 1024.95 415.72 1026.36C414.387 1027.75 412.68 1029.36 410.6 1031.2L408.8 1032.8H421.48V1036.6H402.04V1033.28L404.92 1030.8ZM425.486 1022.04C425.486 1017.43 426.259 1013.83 427.806 1011.24C429.379 1008.63 432.073 1007.32 435.886 1007.32C439.699 1007.32 442.379 1008.63 443.926 1011.24C445.499 1013.83 446.286 1017.43 446.286 1022.04C446.286 1026.71 445.499 1030.36 443.926 1033C442.379 1035.61 439.699 1036.92 435.886 1036.92C432.073 1036.92 429.379 1035.61 427.806 1033C426.259 1030.36 425.486 1026.71 425.486 1022.04ZM441.806 1022.04C441.806 1019.88 441.659 1018.05 441.366 1016.56C441.099 1015.07 440.539 1013.85 439.686 1012.92C438.833 1011.96 437.566 1011.48 435.886 1011.48C434.206 1011.48 432.939 1011.96 432.086 1012.92C431.233 1013.85 430.659 1015.07 430.366 1016.56C430.099 1018.05 429.966 1019.88 429.966 1022.04C429.966 1024.28 430.099 1026.16 430.366 1027.68C430.633 1029.2 431.193 1030.43 432.046 1031.36C432.926 1032.29 434.206 1032.76 435.886 1032.76C437.566 1032.76 438.833 1032.29 439.686 1031.36C440.566 1030.43 441.139 1029.2 441.406 1027.68C441.673 1026.16 441.806 1024.28 441.806 1022.04Z" fill="black"/>
<path d="M404.92 1030.8L405.116 1031.03L405.116 1031.03L404.92 1030.8ZM410.96 1025.36L411.168 1025.58L411.168 1025.58L410.96 1025.36ZM415 1012.48L414.768 1012.67L414.772 1012.67L415 1012.48ZM407.76 1012.64L407.533 1012.44L407.533 1012.44L407.76 1012.64ZM406.4 1016.64V1016.94H406.691L406.7 1016.65L406.4 1016.64ZM402 1016.64L401.7 1016.63L401.692 1016.94H402V1016.64ZM404.72 1009.68L404.923 1009.9L404.924 1009.9L404.72 1009.68ZM418.2 1009.64L417.99 1009.85L417.991 1009.86L418.2 1009.64ZM419.2 1021.6L418.937 1021.45L418.937 1021.46L419.2 1021.6ZM415.72 1026.36L415.504 1026.15L415.504 1026.15L415.72 1026.36ZM410.6 1031.2L410.401 1030.98L410.401 1030.98L410.6 1031.2ZM408.8 1032.8L408.601 1032.58L408.011 1033.1H408.8V1032.8ZM421.48 1032.8H421.78V1032.5H421.48V1032.8ZM421.48 1036.6V1036.9H421.78V1036.6H421.48ZM402.04 1036.6H401.74V1036.9H402.04V1036.6ZM402.04 1033.28L401.844 1033.05L401.74 1033.14V1033.28H402.04ZM404.92 1030.8L405.116 1031.03C407.678 1028.81 409.696 1026.99 411.168 1025.58L410.96 1025.36L410.752 1025.14C409.291 1026.55 407.282 1028.36 404.724 1030.57L404.92 1030.8ZM410.96 1025.36L411.168 1025.58C412.676 1024.12 413.932 1022.61 414.933 1021.04L414.68 1020.88L414.427 1020.72C413.455 1022.24 412.23 1023.72 410.752 1025.14L410.96 1025.36ZM414.68 1020.88L414.933 1021.04C415.945 1019.46 416.46 1017.85 416.46 1016.24H416.16H415.86C415.86 1017.72 415.389 1019.21 414.427 1020.72L414.68 1020.88ZM416.16 1016.24H416.46C416.46 1014.59 416.062 1013.26 415.228 1012.29L415 1012.48L414.772 1012.67C415.485 1013.51 415.86 1014.69 415.86 1016.24H416.16ZM415 1012.48L415.232 1012.29C414.408 1011.29 413.12 1010.82 411.44 1010.82V1011.12V1011.42C413.013 1011.42 414.098 1011.86 414.768 1012.67L415 1012.48ZM411.44 1011.12V1010.82C409.796 1010.82 408.48 1011.35 407.533 1012.44L407.76 1012.64L407.987 1012.84C408.8 1011.9 409.937 1011.42 411.44 1011.42V1011.12ZM407.76 1012.64L407.533 1012.44C406.623 1013.5 406.155 1014.9 406.1 1016.63L406.4 1016.64L406.7 1016.65C406.752 1015.02 407.19 1013.76 407.987 1012.84L407.76 1012.64ZM406.4 1016.64V1016.34H402V1016.64V1016.94H406.4V1016.64ZM402 1016.64L402.3 1016.65C402.378 1013.66 403.266 1011.43 404.923 1009.9L404.72 1009.68L404.517 1009.46C402.708 1011.13 401.782 1013.54 401.7 1016.63L402 1016.64ZM404.72 1009.68L404.924 1009.9C406.621 1008.33 408.772 1007.54 411.4 1007.54V1007.24V1006.94C408.641 1006.94 406.339 1007.78 404.516 1009.46L404.72 1009.68ZM411.4 1007.24V1007.54C414.251 1007.54 416.433 1008.32 417.99 1009.85L418.2 1009.64L418.41 1009.43C416.713 1007.76 414.363 1006.94 411.4 1006.94V1007.24ZM418.2 1009.64L417.991 1009.86C419.577 1011.39 420.38 1013.44 420.38 1016.04H420.68H420.98C420.98 1013.31 420.13 1011.09 418.409 1009.42L418.2 1009.64ZM420.68 1016.04H420.38C420.38 1017.91 419.901 1019.71 418.937 1021.45L419.2 1021.6L419.463 1021.75C420.472 1019.92 420.98 1018.01 420.98 1016.04H420.68ZM419.2 1021.6L418.937 1021.46C417.989 1023.19 416.845 1024.76 415.504 1026.15L415.72 1026.36L415.936 1026.57C417.315 1025.14 418.491 1023.53 419.463 1021.74L419.2 1021.6ZM415.72 1026.36L415.504 1026.15C414.178 1027.53 412.478 1029.14 410.401 1030.98L410.6 1031.2L410.799 1031.42C412.882 1029.58 414.595 1027.96 415.936 1026.57L415.72 1026.36ZM410.6 1031.2L410.401 1030.98L408.601 1032.58L408.8 1032.8L408.999 1033.02L410.799 1031.42L410.6 1031.2ZM408.8 1032.8V1033.1H421.48V1032.8V1032.5H408.8V1032.8ZM421.48 1032.8H421.18V1036.6H421.48H421.78V1032.8H421.48ZM421.48 1036.6V1036.3H402.04V1036.6V1036.9H421.48V1036.6ZM402.04 1036.6H402.34V1033.28H402.04H401.74V1036.6H402.04ZM402.04 1033.28L402.236 1033.51L405.116 1031.03L404.92 1030.8L404.724 1030.57L401.844 1033.05L402.04 1033.28ZM427.806 1011.24L427.549 1011.09L427.548 1011.09L427.806 1011.24ZM443.926 1011.24L443.668 1011.39L443.67 1011.4L443.926 1011.24ZM443.926 1033L443.668 1032.85L443.668 1032.85L443.926 1033ZM427.806 1033L427.547 1033.15L427.549 1033.15L427.806 1033ZM441.366 1016.56L441.071 1016.61L441.072 1016.62L441.366 1016.56ZM439.686 1012.92L439.462 1013.12L439.465 1013.12L439.686 1012.92ZM432.086 1012.92L432.307 1013.12L432.31 1013.12L432.086 1012.92ZM430.366 1016.56L430.072 1016.5L430.071 1016.51L430.366 1016.56ZM430.366 1027.68L430.661 1027.63L430.366 1027.68ZM432.046 1031.36L431.825 1031.56L431.828 1031.57L432.046 1031.36ZM439.686 1031.36L439.468 1031.15L439.465 1031.16L439.686 1031.36ZM441.406 1027.68L441.701 1027.73L441.406 1027.68ZM425.486 1022.04H425.786C425.786 1017.45 426.556 1013.92 428.063 1011.39L427.806 1011.24L427.548 1011.09C425.963 1013.74 425.186 1017.4 425.186 1022.04H425.486ZM427.806 1011.24L428.063 1011.39C429.568 1008.89 432.147 1007.62 435.886 1007.62V1007.32V1007.02C431.998 1007.02 429.191 1008.36 427.549 1011.09L427.806 1011.24ZM435.886 1007.32V1007.62C439.625 1007.62 442.189 1008.89 443.668 1011.39L443.926 1011.24L444.184 1011.09C442.569 1008.36 439.774 1007.02 435.886 1007.02V1007.32ZM443.926 1011.24L443.67 1011.4C445.203 1013.92 445.986 1017.46 445.986 1022.04H446.286H446.586C446.586 1017.4 445.795 1013.74 444.182 1011.08L443.926 1011.24ZM446.286 1022.04H445.986C445.986 1026.68 445.203 1030.27 443.668 1032.85L443.926 1033L444.184 1033.15C445.795 1030.45 446.586 1026.73 446.586 1022.04H446.286ZM443.926 1033L443.668 1032.85C442.189 1035.35 439.625 1036.62 435.886 1036.62V1036.92V1037.22C439.774 1037.22 442.569 1035.88 444.184 1033.15L443.926 1033ZM435.886 1036.92V1036.62C432.147 1036.62 429.568 1035.35 428.063 1032.85L427.806 1033L427.549 1033.15C429.191 1035.88 431.998 1037.22 435.886 1037.22V1036.92ZM427.806 1033L428.065 1032.85C426.556 1030.27 425.786 1026.68 425.786 1022.04H425.486H425.186C425.186 1026.73 425.963 1030.45 427.547 1033.15L427.806 1033ZM441.806 1022.04H442.106C442.106 1019.87 441.959 1018.02 441.66 1016.5L441.366 1016.56L441.072 1016.62C441.36 1018.09 441.506 1019.89 441.506 1022.04H441.806ZM441.366 1016.56L441.661 1016.51C441.387 1014.97 440.806 1013.7 439.907 1012.72L439.686 1012.92L439.465 1013.12C440.273 1014.01 440.812 1015.16 441.071 1016.61L441.366 1016.56ZM439.686 1012.92L439.91 1012.72C438.984 1011.68 437.624 1011.18 435.886 1011.18V1011.48V1011.78C437.508 1011.78 438.682 1012.24 439.462 1013.12L439.686 1012.92ZM435.886 1011.48V1011.18C434.148 1011.18 432.788 1011.68 431.862 1012.72L432.086 1012.92L432.31 1013.12C433.09 1012.24 434.264 1011.78 435.886 1011.78V1011.48ZM432.086 1012.92L431.865 1012.72C430.967 1013.7 430.373 1014.97 430.072 1016.5L430.366 1016.56L430.66 1016.62C430.945 1015.17 431.498 1014.01 432.307 1013.12L432.086 1012.92ZM430.366 1016.56L430.071 1016.51C429.8 1018.02 429.666 1019.87 429.666 1022.04H429.966H430.266C430.266 1019.89 430.399 1018.08 430.661 1016.61L430.366 1016.56ZM429.966 1022.04H429.666C429.666 1024.29 429.8 1026.19 430.07 1027.73L430.366 1027.68L430.661 1027.63C430.399 1026.13 430.266 1024.27 430.266 1022.04H429.966ZM430.366 1027.68L430.07 1027.73C430.345 1029.3 430.925 1030.58 431.825 1031.56L432.046 1031.36L432.267 1031.16C431.46 1030.27 430.92 1029.1 430.661 1027.63L430.366 1027.68ZM432.046 1031.36L431.828 1031.57C432.78 1032.58 434.15 1033.06 435.886 1033.06V1032.76V1032.46C434.262 1032.46 433.071 1032.01 432.264 1031.15L432.046 1031.36ZM435.886 1032.76V1033.06C437.621 1033.06 438.98 1032.58 439.907 1031.56L439.686 1031.36L439.465 1031.16C438.685 1032.01 437.511 1032.46 435.886 1032.46V1032.76ZM439.686 1031.36L439.904 1031.57C440.832 1030.58 441.427 1029.3 441.701 1027.73L441.406 1027.68L441.11 1027.63C440.852 1029.1 440.3 1030.27 439.468 1031.15L439.686 1031.36ZM441.406 1027.68L441.701 1027.73C441.972 1026.19 442.106 1024.29 442.106 1022.04H441.806H441.506C441.506 1024.27 441.373 1026.13 441.11 1027.63L441.406 1027.68Z" fill="black" mask="url(#path-9-outside-2_1_2748)"/>
<path d="M278.81 272.735C270.2 272.735 263.13 270.705 257.6 266.645C252.07 262.515 249.095 256.635 248.675 249.005H270.62C270.83 251.595 271.6 253.485 272.93 254.675C274.26 255.865 275.975 256.46 278.075 256.46C279.965 256.46 281.505 256.005 282.695 255.095C283.955 254.115 284.585 252.785 284.585 251.105C284.585 248.935 283.57 247.255 281.54 246.065C279.51 244.875 276.22 243.545 271.67 242.075C266.84 240.465 262.92 238.925 259.91 237.455C256.97 235.915 254.38 233.71 252.14 230.84C249.97 227.9 248.885 224.085 248.885 219.395C248.885 214.635 250.075 210.575 252.455 207.215C254.835 203.785 258.125 201.195 262.325 199.445C266.525 197.695 271.285 196.82 276.605 196.82C285.215 196.82 292.075 198.85 297.185 202.91C302.365 206.9 305.13 212.535 305.48 219.815H283.115C283.045 217.575 282.345 215.895 281.015 214.775C279.755 213.655 278.11 213.095 276.08 213.095C274.54 213.095 273.28 213.55 272.3 214.46C271.32 215.37 270.83 216.665 270.83 218.345C270.83 219.745 271.355 220.97 272.405 222.02C273.525 223 274.89 223.875 276.5 224.645C278.11 225.345 280.49 226.255 283.64 227.375C288.33 228.985 292.18 230.595 295.19 232.205C298.27 233.745 300.895 235.95 303.065 238.82C305.305 241.62 306.425 245.19 306.425 249.53C306.425 253.94 305.305 257.895 303.065 261.395C300.895 264.895 297.71 267.66 293.51 269.69C289.38 271.72 284.48 272.735 278.81 272.735ZM336.572 221.285C338.182 218.555 340.457 216.385 343.397 214.775C346.337 213.165 349.802 212.36 353.792 212.36C358.482 212.36 362.717 213.585 366.497 216.035C370.347 218.485 373.357 221.985 375.527 226.535C377.767 231.085 378.887 236.405 378.887 242.495C378.887 248.585 377.767 253.94 375.527 258.56C373.357 263.11 370.347 266.61 366.497 269.06C362.717 271.51 358.482 272.735 353.792 272.735C349.802 272.735 346.337 271.93 343.397 270.32C340.527 268.71 338.252 266.54 336.572 263.81V300.14H315.992V213.095H336.572V221.285ZM357.992 242.495C357.992 238.645 356.942 235.67 354.842 233.57C352.812 231.4 350.292 230.315 347.282 230.315C344.272 230.315 341.717 231.4 339.617 233.57C337.587 235.74 336.572 238.715 336.572 242.495C336.572 246.345 337.587 249.355 339.617 251.525C341.717 253.695 344.272 254.78 347.282 254.78C350.292 254.78 352.812 253.695 354.842 251.525C356.942 249.285 357.992 246.275 357.992 242.495ZM407.939 223.49C410.249 220.13 413.049 217.47 416.339 215.51C419.629 213.55 423.164 212.57 426.944 212.57V234.515H421.169C416.689 234.515 413.364 235.39 411.194 237.14C409.024 238.89 407.939 241.935 407.939 246.275V272H387.359V213.095H407.939V223.49ZM444.717 207.635C441.077 207.635 438.137 206.655 435.897 204.695C433.727 202.665 432.642 200.145 432.642 197.135C432.642 194.055 433.727 191.5 435.897 189.47C438.137 187.44 441.077 186.425 444.717 186.425C448.287 186.425 451.157 187.44 453.327 189.47C455.567 191.5 456.687 194.055 456.687 197.135C456.687 200.145 455.567 202.665 453.327 204.695C451.157 206.655 448.287 207.635 444.717 207.635ZM454.902 213.095V272H434.322V213.095H454.902ZM505.157 212.57C511.947 212.57 517.337 214.845 521.327 219.395C525.317 223.875 527.312 229.965 527.312 237.665V272H506.732V240.395C506.732 237.035 505.857 234.41 504.107 232.52C502.357 230.56 500.012 229.58 497.072 229.58C493.992 229.58 491.577 230.56 489.827 232.52C488.077 234.41 487.202 237.035 487.202 240.395V272H466.622V213.095H487.202V221.495C489.022 218.835 491.472 216.7 494.552 215.09C497.632 213.41 501.167 212.57 505.157 212.57ZM560.34 212.36C564.33 212.36 567.795 213.165 570.735 214.775C573.745 216.385 576.055 218.555 577.665 221.285V213.095H598.245V271.37C598.245 276.9 597.195 281.87 595.095 286.28C592.995 290.76 589.705 294.33 585.225 296.99C580.815 299.65 575.215 300.98 568.425 300.98C559.325 300.98 552.045 298.845 546.585 294.575C541.125 290.305 538.01 284.495 537.24 277.145H557.505C557.925 279.035 558.975 280.505 560.655 281.555C562.335 282.605 564.505 283.13 567.165 283.13C574.165 283.13 577.665 279.21 577.665 271.37V263.81C576.055 266.54 573.745 268.71 570.735 270.32C567.795 271.93 564.33 272.735 560.34 272.735C555.65 272.735 551.38 271.51 547.53 269.06C543.75 266.61 540.74 263.11 538.5 258.56C536.33 253.94 535.245 248.585 535.245 242.495C535.245 236.405 536.33 231.085 538.5 226.535C540.74 221.985 543.75 218.485 547.53 216.035C551.38 213.585 555.65 212.36 560.34 212.36ZM577.665 242.495C577.665 238.715 576.615 235.74 574.515 233.57C572.485 231.4 569.965 230.315 566.955 230.315C563.875 230.315 561.32 231.4 559.29 233.57C557.26 235.67 556.245 238.645 556.245 242.495C556.245 246.275 557.26 249.285 559.29 251.525C561.32 253.695 563.875 254.78 566.955 254.78C569.965 254.78 572.485 253.695 574.515 251.525C576.615 249.355 577.665 246.345 577.665 242.495Z" fill="black"/>
<path d="M393.228 346.869C402.915 334.446 408.699 324.641 425.816 322.329C449.786 319.093 465.137 340.263 465.232 361.326C511.424 366.373 521.198 416.03 476.65 434.62C479.866 441.53 479.957 446.64 479.065 454.115C486.944 454.562 493.168 456.413 499.577 460.949C510.354 440.076 524.493 436.054 546.767 441.864C555.683 410.253 597.717 402.363 613.675 430.847C616.648 436.153 618.346 442.152 619.708 448.016C666.154 443.633 683.661 496.543 639.177 514.215C642.737 525.023 643.399 535.866 639.177 546.615C646.956 548.252 654.659 551.085 660.951 555.971C680.084 521.492 725.507 554.841 717.942 588.846C750.976 603.219 753.684 641.764 719.839 653.804C715.58 655.32 710.815 656.19 706.354 656.972C704.573 687.113 677.815 703.207 651.297 685.393C653.518 692.146 656.481 700.404 652.875 707.175C644.924 722.103 626.787 731.646 610.116 734.101C608.352 756.143 593.59 773.802 569.57 771.808C551.475 770.306 541.632 750.356 538.059 749.788C529.557 748.435 526.401 751.765 515.349 746.465C473.009 788.188 457.869 831.9 481.554 886.678C495.803 887.18 507.564 891.601 515.349 903.494C529.355 896.989 545.981 906.213 552.131 918.837C556.878 928.585 555.486 935.107 552.217 944.946C561.249 946.151 573.46 952.515 562.078 959.858C556.442 963.495 500.158 961.4 489.996 961.398L311.595 961.401C302.297 961.4 292.211 962.782 283.181 960.171C272.985 951.199 282.968 944.842 293.35 944.946C288.83 926.193 295.07 906.485 316.332 901.737C321.728 900.532 327.431 901.737 332.918 901.663C348.196 884.328 362.933 888.941 364.979 886.365C367.837 882.765 379.025 852.74 380.749 846.94C382.259 841.866 383.018 828.179 390.121 827.677C395.769 827.062 392.966 818.566 393.228 813.587C385.607 810.465 387.294 803.992 386.617 797.083C383.604 766.29 362.502 741.382 336.374 725.167C324.191 736.25 312.161 742.122 295.645 737.962C285.837 774.248 245.686 784.635 227.079 753.031C223.741 747.361 222.349 740.447 221.105 734.101C194.223 735.915 170.262 717.331 178.249 690.282C153.635 688.178 143.375 680.874 139.118 656.972C100.573 655.064 87.8046 604.935 131.489 588.846C122.18 552.681 160.815 527.387 192.209 556.811C197.905 552.813 202.482 551.253 209.234 549.666C203.378 540.06 202.854 526.448 207.209 516.139C163.094 486.729 187.788 440.187 234.811 446.455C242.779 412.084 297.019 398.666 308.398 449.968C342.274 445.1 365.438 469.276 351.801 501.89C362.268 506.405 375.256 510.408 383.864 517.889C383.712 501.706 383.301 485.199 389.286 469.813C350.418 476.59 331.891 434.981 355.451 411.291C316.104 374.782 359.147 327.799 393.228 346.869ZM392.259 635.007C389.875 663.68 357.314 671.126 341.212 652.372C339.492 650.368 338.129 647.869 336.374 645.975C329.307 646.266 323.375 645.178 316.592 643.432C316.244 650.745 315.681 657.2 313.496 664.246C326.015 665.408 327.281 673.685 336.374 676.403C361.177 685.273 383.83 695.917 403.528 713.378C411.7 683.519 424.671 663.208 419.564 630.641C418.884 626.302 418.745 620.931 416.194 617.176C410.921 627.255 403.696 633.239 392.259 635.007ZM518.565 623.215C526.183 620.788 533.684 621.265 541.001 624.522L546.767 627.258C556.091 613.33 572.989 605.396 589.902 609.114C594.066 603.628 598.819 599.704 604.264 595.472C599.946 586.575 600.027 579.024 602.519 569.602C596.813 568.015 591.609 565.073 585.93 563.395C567.948 594.423 539.187 601.997 518.565 623.215ZM269.957 555.971C261.695 563.752 254.032 568.585 242.366 569.602C245.302 575.456 247.438 581.069 247.312 587.671C256.924 585.046 265.984 583.088 275.986 582.412C285.65 582.33 295.006 583.304 304.55 584.699C304.491 579.795 304.665 576.366 307.006 571.909C295.219 570.02 288.055 570.385 277.708 563.055C274.976 561.119 272.84 557.44 269.957 555.971ZM515.349 561.929C514.161 565.747 510.953 571.802 510.38 574.355L510.589 574.489C517.469 570.472 523.918 566.559 529.754 561.142L529.785 560.543C524.967 561.281 520.248 562.061 515.349 561.929ZM348.869 555.971C350.981 553.749 353.103 551.653 355.451 549.666C348.733 545.925 341.837 543.655 334.873 540.56C334.245 545.723 333.359 550.019 331.221 554.785C336.703 554.993 341.218 556.223 346.313 558.137L348.869 555.971ZM481.554 593.198C483.759 591.741 485.953 590.143 488.256 588.846C480.706 587.874 471.836 585.265 465.232 584.699C467.571 589.843 468.77 595.266 470.081 600.719C473.817 598.04 477.492 595.401 481.554 593.198ZM491.674 653.455C474.328 677.729 467.367 709.012 464.122 737.962C466.087 736.232 468.061 734.52 470.081 732.85C475.215 726.502 481.938 721.194 488.256 715.981C488.08 702.748 489.551 693.03 499.577 683.625C490.242 675.472 489.18 664.584 491.674 653.455Z" fill="black"/>
<path d="M437.182 719.752C439.177 722.238 440.823 723.802 443.833 725.167H449.022C448.15 733.96 446.123 758.454 451.587 765.155C459.712 775.12 467.553 759.331 470.638 754.734C476.095 746.605 486.741 734.782 495.578 730.03L500.839 737.963C456.297 772.283 441.292 841.731 465.232 891.563C461.397 894.419 457.956 897.593 455.45 901.663H446.088C437.228 893.57 432.032 885.95 426.022 875.751C425.629 868.933 422.384 862.327 420.706 855.72C415.826 836.519 414.499 816.761 417.581 797.149C425.301 772.465 428.41 746.315 437.182 719.752Z" fill="#BA8048"/>
<path d="M435.697 814.433C449.205 813.741 447.185 827.359 447.813 836.605C448.345 844.441 450.48 851.018 440.998 854.132C436.1 854.22 433.009 852.687 430.962 848.023C427.843 840.924 424.241 818.552 435.697 814.433Z" fill="#F8B516"/>
<path d="M342.361 516.139C358.108 519.194 373.731 527.917 385.919 537.918C395.238 545.566 395.582 553.645 408.927 546.615C411.026 561.262 420.101 564.003 428.4 573.943C465.569 618.456 449.862 670.969 437.182 719.752C428.41 746.315 425.301 772.465 417.581 797.149L417.272 796.748C414.132 792.712 412.646 784.049 411.034 779.077C401.835 750.709 396.388 747.693 379.656 727.219L374.951 722.366C374.501 720.211 371.334 721.795 370.096 719.752L372.524 720.007C378.093 717.316 378.132 714.351 383.312 718.569L383.864 718.155C396.967 725.66 413.232 759.944 417.728 725.053C420.248 705.497 429.567 687.729 433.553 668.547C439.07 642.001 435.123 581.182 399.984 574.488C392.304 541.546 363.488 534.447 332.917 523.315C336.386 521.357 339.32 518.66 342.361 516.139Z" fill="#C77705"/>
<path d="M408.927 541.837C398.221 509.966 396.067 500.059 406.299 464.862C408.623 466.956 411.075 469.004 413.201 471.286C410.706 485.667 408.332 500.287 411.787 514.752C417.223 537.506 419.871 550.946 443.834 558.137C441.505 559.746 439.71 560.77 438.509 563.394C445.543 582.604 452.804 589.283 456.372 613.387C460.231 639.456 475.568 617.49 485.523 610.2C500.621 599.144 518.285 589.554 533.99 578.406C545.903 569.95 554.052 560.935 567.275 552.398C577.21 558.214 567.281 563.566 561.592 568.555C535.168 591.729 497.15 611.784 478.819 640.749C462.653 666.292 453.266 695.665 449.022 725.167H443.834C440.823 723.802 439.177 722.238 437.182 719.752C449.862 670.969 465.569 618.456 428.4 573.943C420.101 564.003 411.026 561.262 408.927 546.615C408.992 545.025 409.129 543.421 408.927 541.837Z" fill="#F8B516"/>
<path d="M399.984 841.624L401.594 843.813C404.617 847.899 409.363 850.368 412.818 854.028C418.732 860.297 420.276 869.534 426.023 875.751C432.032 885.95 437.229 893.57 446.088 901.663C436.609 903.638 430.728 906.898 423.179 912.593C409.905 902.473 406.04 901.507 389.286 901.663C386.842 898.406 384.025 895.49 380.576 893.241C384.115 882.726 389.257 872.838 393.28 862.51C395.936 855.69 397.427 848.491 399.984 841.624Z" fill="#6B3C12"/>
<path d="M343.41 706.87C353.216 708.197 372.164 720.068 379.204 726.658L379.656 727.219C396.387 747.693 401.835 750.709 411.034 779.077C412.646 784.05 414.132 792.712 417.272 796.748L417.581 797.149C414.499 816.761 415.826 836.519 420.706 855.72C422.384 862.327 425.629 868.933 426.022 875.751C420.275 869.534 418.731 860.297 412.818 854.028C409.362 850.368 404.617 847.899 401.594 843.813L399.984 841.624C401.487 833.38 399.733 827.488 390.121 827.677C395.769 827.062 392.966 818.566 393.228 813.587C395.122 813.622 397.015 813.596 398.909 813.587C406.548 805.764 404.395 795.219 402.801 785.446C398.307 757.89 378.653 735.616 356.632 718.852C351.049 714.601 343.067 712.898 343.41 706.87Z" fill="#A55801"/>
<path d="M343.41 695.691C351.638 698.509 379.043 711.926 383.864 718.156L383.312 718.569C378.132 714.351 380.085 717.871 374.516 720.562L374.296 721.212C375.534 723.255 378.755 724.503 379.205 726.658C372.164 720.068 353.216 708.197 343.41 706.87C343.502 703.139 343.546 699.423 343.41 695.691Z" fill="#F8B516"/>
<path d="M363.493 364.825C378.14 344.161 395.87 371.67 401.604 370.965C410.531 369.868 403.59 342.597 426 338.166C442.327 334.938 452.434 352.927 447.999 366.457C442.406 372.166 440.255 377.443 449.022 381.466C459.068 378 466.621 375.67 476.838 380.326C487.814 385.329 492.891 395.228 487.439 406.197C478.118 424.954 456.797 420.301 452.779 427.127C449.234 433.149 467.531 439.443 461.282 454.348C453.921 471.909 432.184 469.886 420.412 457.421C417.676 454.524 411.224 442.843 407.404 444.177C399.317 447.002 397.195 453.381 383.864 455.798C368.131 460.878 346.647 432.836 376.557 414.338C378.598 410.318 377.496 407.845 374.558 404.525C359.953 397.343 345.884 374.205 363.493 364.825Z" fill="#FA55A8"/>
<path d="M376.557 414.338C375.738 418.101 372.747 421.088 370.75 424.296C363.036 436.689 369.036 452.907 383.864 455.798C368.131 460.878 346.646 432.836 376.557 414.338Z" fill="#FA1E5A"/>
<path d="M374.558 404.526C359.953 397.343 345.884 374.205 363.493 364.825C363.117 367.779 361.607 370.471 361.361 373.431C360.207 387.402 372.051 393.417 374.558 404.526Z" fill="#FA1E5A"/>
<path d="M415.979 380.715C428.054 378.313 439.86 385.826 442.421 397.541C444.983 409.256 437.337 420.784 425.301 423.36C413.138 425.962 401.123 418.438 398.535 406.6C395.947 394.763 403.779 383.142 415.979 380.715Z" fill="black"/>
<path d="M418.203 390.975C424.348 389.684 430.402 393.495 431.702 399.472C433.001 405.45 429.052 411.315 422.894 412.551C416.777 413.78 410.788 409.972 409.497 404.032C408.205 398.093 412.096 392.257 418.203 390.975Z" fill="#FDD402"/>
<path d="M373.212 380.054C376.826 379.139 380.524 381.222 381.503 384.724C382.481 388.226 380.373 391.841 376.78 392.826C373.134 393.826 369.35 391.743 368.358 388.191C367.366 384.639 369.548 380.983 373.212 380.054Z" fill="black"/>
<path d="M423.179 351.984C432.605 351.628 432.81 361.69 425.244 364.825C415.419 364.857 414.283 355.236 423.179 351.984Z" fill="black"/>
<path d="M377.47 430.646C386.328 430.403 389.362 441.28 380.576 443.443C371.203 443.231 369.41 434.275 377.47 430.646Z" fill="black"/>
<path d="M424.861 438.817C427.138 438.061 429.656 438.556 431.449 440.115C433.244 441.674 434.031 444.053 433.509 446.335C432.988 448.617 431.24 450.449 428.936 451.124C425.464 452.142 421.792 450.27 420.682 446.915C419.57 443.561 421.429 439.959 424.861 438.817Z" fill="black"/>
<path d="M458.604 394.838C460.873 394.098 463.375 394.61 465.144 396.174C466.913 397.739 467.672 400.112 467.128 402.376C466.582 404.64 464.82 406.44 462.52 407.08C459.071 408.039 455.467 406.147 454.402 402.819C453.337 399.491 455.205 395.946 458.604 394.838Z" fill="black"/>
<path d="M249.457 464.862C247.939 421.631 294.85 423.183 293.823 457.637C293.722 461.004 292.174 464.122 290.874 467.181L291.125 467.66C296.283 477.3 300.934 471.083 306.985 467.197C315.814 461.531 332.097 465.821 337.596 474.27C347.058 488.805 331.862 511.765 313.496 514.215C303.632 519.559 313.2 523.765 315.33 529.746C322.2 539.739 319.614 553.181 305.526 555.201C279.187 558.977 277.054 527.05 267.117 529.351C261.21 530.72 261.961 539.98 258.368 545.27C242.093 569.225 204.581 542.348 226.902 514.215L226.651 513.549C225.747 511.21 225.206 508.991 224.735 506.536C206.413 502.241 188.06 477.816 210.501 465.491C237.178 450.839 238.773 474.716 249.457 464.862Z" fill="#1DD7DB"/>
<path d="M224.735 506.536C230.325 500.941 238.197 498.379 246.184 499.119C248.806 508.568 253.593 513.519 262.168 517.889C270.411 518.839 275.939 518.742 283.182 514.215C284.737 512.282 286.527 510.471 288.205 508.634C294.155 509.691 309.899 509.389 313.497 514.215C303.632 519.559 313.2 523.765 315.33 529.746C322.2 539.739 319.614 553.181 305.526 555.201C279.187 558.977 277.054 527.05 267.117 529.351C261.21 530.719 261.961 539.98 258.368 545.27C242.093 569.225 204.581 542.348 226.902 514.215L226.651 513.548C225.747 511.21 225.206 508.991 224.735 506.536Z" fill="#1DD7DB"/>
<path d="M288.205 508.634C294.155 509.691 309.899 509.389 313.496 514.215C303.632 519.56 313.2 523.765 315.33 529.746C311.058 533.684 307.605 542.155 300.175 540.309C292.004 538.278 287.207 521.332 283.182 514.215C284.737 512.283 286.527 510.471 288.205 508.634Z" fill="#1DD7DB"/>
<path d="M224.735 506.536C230.325 500.941 238.197 498.379 246.184 499.119C248.806 508.568 253.593 513.519 262.168 517.889C249.83 525.18 235.501 527.245 226.902 514.215L226.651 513.548C225.746 511.21 225.206 508.991 224.735 506.536Z" fill="#1DD7DB"/>
<path d="M235.384 530.477C238.484 529.877 241.513 531.776 242.229 534.768C242.942 537.759 241.083 540.761 238.027 541.548C235.965 542.079 233.769 541.477 232.296 539.977C230.824 538.478 230.307 536.317 230.95 534.34C231.592 532.363 233.292 530.883 235.384 530.477Z" fill="black"/>
<path d="M246.184 499.119C250.342 457.289 302.08 473.049 288.205 508.634C286.527 510.471 284.737 512.282 283.181 514.215C275.939 518.742 270.41 518.839 262.168 517.889C253.593 513.519 248.806 508.568 246.184 499.119Z" fill="black"/>
<path d="M266.154 486.787C271.744 485.104 277.679 488.151 279.397 493.586C281.118 499.023 277.97 504.782 272.372 506.441C266.791 508.096 260.886 505.048 259.172 499.628C257.456 494.21 260.582 488.465 266.154 486.787Z" fill="#F8B516"/>
<path d="M222.539 479.807C230.625 478.96 231.817 488.321 224.735 491.587C216.115 491.04 215.761 483.212 222.539 479.807Z" fill="black"/>
<path d="M265.814 449.968C273.194 449.551 276.41 457.379 269.957 460.949C261.202 462.325 258.554 453.761 265.814 449.968Z" fill="black"/>
<path d="M305.019 490.203C308.138 489.749 311.056 491.806 311.582 494.827C312.106 497.848 310.044 500.721 306.945 501.288C304.89 501.663 302.784 500.931 301.441 499.372C300.097 497.813 299.725 495.67 300.468 493.77C301.209 491.869 302.951 490.505 305.019 490.203Z" fill="black"/>
<path d="M506.184 656.972C508.971 640.28 525.951 630.011 540.405 643.184C550.163 652.074 554.099 662.234 558.027 642.375C562.088 621.834 593.034 613.223 598.088 639.502C601.532 657.404 585.636 663.947 596.381 671.274C610.576 670.953 618.518 670.909 629.502 681.045C637.829 688.73 642.588 697.639 633.647 706.464C606.917 732.839 582.705 693.429 593.429 727.277C597.005 738.57 588.999 756.639 575.03 756.131C562.463 755.313 557.812 750.651 552.217 739.329C554.724 734.982 557.978 730.904 560.705 726.658C561.193 724.632 561.463 722.666 560.197 720.839C554.191 712.165 547.65 724.297 544.024 728.438C532.762 738.047 517.158 734.348 509.43 722.102C494.976 699.192 519.866 690.111 520.211 686.704C520.779 681.104 504.921 672.362 506.184 656.972Z" fill="#E600F7"/>
<path d="M544.024 728.438C532.762 738.048 517.158 734.348 509.43 722.102C494.976 699.192 519.866 690.111 520.211 686.704C520.779 681.104 504.921 672.363 506.184 656.972C507.245 659.529 512.745 661.13 515.349 661.092C515.533 665.024 517.053 667.89 520.957 669.164C523.321 673.045 529.738 674.363 532.681 678.249C527.214 679.265 519.893 683.148 526.063 688.686L527.845 690.282C524.024 692.813 519.335 703.295 520.957 708.087C527.948 707.489 531.481 709.974 529.785 717.258C533.963 721.589 538.12 726.351 544.024 728.438Z" fill="#E600F7"/>
<path d="M520.957 708.087C527.948 707.489 531.481 709.974 529.785 717.257C521.874 724.299 512.02 716.045 520.957 708.087Z" fill="black"/>
<path d="M560.705 726.658C561.324 730.332 562.512 733.051 564.59 736.152C565.302 739.486 566.469 741.279 569.429 743.068C568.382 746.089 573.198 753.441 575.03 756.131C562.463 755.313 557.812 750.651 552.217 739.329C554.724 734.982 557.978 730.904 560.705 726.658Z" fill="#E600F7"/>
<path d="M532.681 678.249C546.136 684.273 538.368 694.807 527.845 690.282L526.063 688.686C519.893 683.148 527.214 679.265 532.681 678.249Z" fill="black"/>
<path d="M515.349 661.092C519.843 647.526 538.856 663.706 520.956 669.164C517.053 667.89 515.533 665.024 515.349 661.092Z" fill="black"/>
<path d="M564.589 736.152C569.568 718.588 588.384 744.532 569.428 743.068C566.468 741.279 565.301 739.486 564.589 736.152Z" fill="black"/>
<path d="M566.245 664.846C578.686 664.252 589.272 673.559 589.904 685.649C590.536 697.737 580.975 708.038 568.535 708.672C556.069 709.306 545.439 699.989 544.806 687.874C544.173 675.758 553.777 665.442 566.245 664.846Z" fill="black"/>
<path d="M565.376 676.161C569.244 675.502 573.177 676.933 575.651 679.897C578.126 682.862 578.754 686.896 577.292 690.439C575.831 693.983 572.508 696.479 568.613 696.961C562.777 697.685 557.415 693.75 556.536 688.097C555.657 682.447 559.582 677.147 565.376 676.161Z" fill="#FDD402"/>
<path d="M610.82 687.874C614.649 688.027 617.624 691.172 617.461 694.892C617.295 698.613 614.055 701.499 610.226 701.332C606.407 701.167 603.447 698.028 603.61 694.316C603.775 690.603 607.001 687.722 610.82 687.874Z" fill="black"/>
<path d="M571.536 639.842C582.334 638.5 581.201 648.429 575.03 653.455C567.694 651.892 564 643.52 571.536 639.842Z" fill="black"/>
<path d="M272.22 625.912C294.956 622.858 307.178 641.605 299.274 660.602C297.153 665.697 287.645 672.54 294.734 677.999C298.45 680.86 306.362 679.187 310.985 680.017C334.177 684.177 333.513 720.839 309.008 723.734C293.789 725.532 291.34 711.044 283.722 711.492C273.722 712.079 278.114 721.325 279.674 727.109C281.568 734.125 279.338 740.34 275.986 746.465C258.214 770.189 226.31 744.002 242.366 719.752C242.599 713.676 239.217 711.454 233.311 711.19C230.96 712.907 229.658 714.854 228.16 717.258C210.328 720.955 191.795 716.506 193.516 695.691C196.294 665.004 242.405 681.833 232.652 663.744C231.78 662.126 229.835 661.541 228.16 661.092C222.882 661.35 217.472 661.105 212.179 661.092C205.591 652.022 201.151 634.961 215.031 630.429C227.056 623.091 238.956 629.4 246.184 639.842C243.682 645.334 243.017 655.353 251.462 652.035C254.964 650.657 263.119 631.981 272.22 625.912Z" fill="#FA55A8"/>
<path d="M242.366 719.752C247.287 743.804 248.984 752.043 275.986 746.465C258.214 770.189 226.31 744.002 242.366 719.752Z" fill="#DA0A80"/>
<path d="M193.516 695.691L193.917 696.039C206.259 706.895 206.453 712.074 226.933 711.207C229.055 711.118 231.201 710.904 233.311 711.19C230.96 712.908 229.658 714.855 228.16 717.258C210.328 720.955 191.795 716.506 193.516 695.691Z" fill="#DA0A80"/>
<path d="M212.179 661.092C205.591 652.022 201.151 634.961 215.031 630.429C210.702 651.332 221.032 649.116 228.16 661.092C222.882 661.35 217.471 661.105 212.179 661.092Z" fill="#DA0A80"/>
<path d="M258.827 664.294C271.284 661.794 283.461 669.609 285.988 681.725C288.512 693.84 280.424 705.643 267.947 708.051C255.537 710.444 243.472 702.636 240.96 690.587C238.448 678.537 246.436 666.782 258.827 664.294Z" fill="black"/>
<path d="M261.138 676.431C266.657 675.231 272.129 678.616 273.346 683.983C274.562 689.351 271.058 694.656 265.531 695.818C260.03 696.974 254.605 693.591 253.394 688.25C252.185 682.911 255.647 677.625 261.138 676.431Z" fill="#FDD402"/>
<path d="M299.304 691.319C307.437 690.535 310.097 698.261 303.318 702.129C296.266 704.043 292.054 695.162 299.304 691.319Z" fill="black"/>
<path d="M271.082 638.473C273.984 637.549 277.114 639.043 278.135 641.839C279.158 644.637 277.696 647.715 274.843 648.773C272.935 649.483 270.783 649.13 269.219 647.855C267.654 646.579 266.924 644.58 267.311 642.632C267.698 640.683 269.141 639.092 271.082 638.473Z" fill="black"/>
<path d="M251.795 728.594C254.425 727.509 257.466 728.658 258.647 731.186C259.831 733.713 258.725 736.696 256.155 737.909C254.433 738.722 252.394 738.563 250.827 737.495C249.262 736.426 248.414 734.617 248.616 732.768C248.817 730.918 250.034 729.32 251.795 728.594Z" fill="black"/>
<path d="M208.883 685.625C211.618 685.083 214.303 686.747 214.949 689.387C215.594 692.026 213.966 694.687 211.271 695.397C209.451 695.876 207.507 695.356 206.198 694.036C204.888 692.717 204.422 690.81 204.981 689.06C205.539 687.31 207.034 685.993 208.883 685.625Z" fill="black"/>
<path d="M517.534 460.949C523.957 452.91 538.709 452.245 546.588 458.608C550.254 461.568 552.251 468.94 557.789 468.696C569.476 468.18 557.122 446.986 568.665 434.777C580.852 421.888 602.27 431.402 603.338 448.346C603.744 454.802 600.393 459.983 598.776 465.995C603.39 475.981 608.007 469.756 614.954 465.778C629.21 457.613 654.058 469.297 647.939 487.092C642.922 501.679 621.495 499.257 619.022 506.905C617.459 511.738 642.25 541.642 610.116 555.971C603.604 553.837 585.681 546.664 580.478 543.02C575.82 539.758 570.714 526.751 563.823 530.16C556.99 533.539 564.808 539.717 544.024 543.985C551.552 527.225 559.231 505.803 536.321 494.698C558.257 486.111 531.799 469.031 530.478 489.564C529.462 489.336 528.751 489.011 527.845 488.536C525.592 488.301 523.223 488.49 520.957 488.536C514.915 480.471 510.665 469.781 517.534 460.949Z" fill="#E600F7"/>
<path d="M517.534 460.949C517.15 474.136 518.626 479.323 527.845 488.536C525.592 488.302 523.223 488.491 520.957 488.536C514.915 480.471 510.665 469.781 517.534 460.949Z" fill="#E600F7"/>
<path d="M578.221 473.905C590.259 472.189 601.457 480.259 603.265 491.95C605.073 503.642 596.807 514.553 584.782 516.35C572.698 518.157 561.403 510.076 559.587 498.326C557.769 486.576 566.124 475.628 578.221 473.905Z" fill="black"/>
<path d="M579.756 484.208C585.94 483.093 591.883 487.058 593.033 493.065C594.184 499.073 590.106 504.85 583.925 505.971C577.738 507.093 571.788 503.128 570.636 497.115C569.485 491.103 573.569 485.323 579.756 484.208Z" fill="#FDD402"/>
<path d="M619.708 482.316C622.209 481.639 624.889 482.356 626.679 484.182C628.471 486.007 629.079 488.643 628.265 491.038C627.451 493.432 625.344 495.195 622.787 495.624C619.098 496.24 615.557 493.941 614.737 490.392C613.916 486.842 616.103 483.291 619.708 482.316Z" fill="black"/>
<path d="M576.942 446.5C580.653 445.527 584.477 447.648 585.501 451.248C586.527 454.848 584.37 458.579 580.672 459.598C576.94 460.628 573.057 458.508 572.023 454.873C570.987 451.24 573.195 447.483 576.942 446.5Z" fill="black"/>
<path d="M592.945 529.746C603.12 529.324 605.837 538.191 598.776 543.985L598.294 543.951C589.887 543.278 584.938 535.468 592.945 529.746Z" fill="black"/>
<path d="M633.977 563.395C656.311 555.798 654.701 585.883 664.756 582.939C671.995 580.819 671.06 548.565 689.408 557.492C701.684 563.465 703.453 579.869 701.092 591.408C698.913 602.047 702.823 600.451 712.513 603.853C722.992 607.53 732.555 618.695 726.674 629.614C715.989 649.446 693.13 634.268 688.476 641.587C684.596 647.69 696.688 659.496 685.723 671.243C677.333 680.232 666.033 678.617 658.535 669.164C657.342 668.615 656.242 667.171 655.447 666.182C653.123 663.83 650.928 661.374 649.354 658.471C646.159 652.587 654.769 643.747 643.781 642.515C639.308 642.014 635.072 646.348 631.887 648.923C627.537 651.7 616.763 655.254 614.763 648.572C612.793 641.993 614.085 634.77 610.116 623.215C612.83 617.144 616.352 612.959 622.806 610.403C630.094 610.125 631.649 607.431 631.887 600.718C630.089 598.841 628.17 597.161 626.187 595.472C609.634 583.692 615.205 569.917 633.977 563.395Z" fill="#1DD7DB"/>
<path d="M610.116 623.215C612.83 617.144 616.352 612.959 622.806 610.403C620.602 622.315 624.842 638.909 631.887 648.923C627.537 651.7 616.763 655.254 614.763 648.572C612.793 641.993 614.085 634.77 610.116 623.215Z" fill="#1DD7DB"/>
<path d="M626.187 595.472C609.634 583.692 615.204 569.916 633.976 563.394C630.654 568.013 625.326 574.99 627.533 580.982L628.443 581.416C624.98 584.912 624.992 588.02 628.443 591.582C627.671 592.869 626.894 594.149 626.187 595.472Z" fill="#1DD7DB"/>
<path d="M655.446 665.093C654.877 662.835 654.394 660.509 655.692 658.385C663.508 645.605 677.572 671.01 658.534 669.163C657.342 668.614 656.241 667.171 655.446 666.181V665.093Z" fill="black"/>
<path d="M655.447 665.094C656.322 666.712 657.085 667.979 658.535 669.164C657.342 668.615 656.241 667.171 655.447 666.182V665.094Z" fill="#FA1E5A"/>
<path d="M628.443 581.416C643.336 575.976 641.501 600.508 628.443 591.582C624.993 588.02 624.98 584.913 628.443 581.416Z" fill="black"/>
<path d="M662.907 595.58C674.452 593.964 685.14 601.804 686.7 613.036C688.26 624.269 680.097 634.582 668.523 635.998C657.099 637.394 646.649 629.583 645.108 618.493C643.566 607.404 651.51 597.178 662.907 595.58Z" fill="black"/>
<path d="M664.003 604.605C670.254 603.496 676.26 607.472 677.487 613.529C678.713 619.585 674.705 625.477 668.488 626.75C664.392 627.592 660.145 626.224 657.376 623.171C654.608 620.118 653.744 615.853 655.117 612.009C656.489 608.164 659.885 605.335 664.003 604.605Z" fill="#F8B516"/>
<path d="M700.584 620.452C710.509 619.494 713.786 628.007 706.354 633.609C697.396 635.32 693.662 625.251 700.584 620.452Z" fill="black"/>
<path d="M685.221 569.602C694.417 569.168 699.1 577.864 690.558 582.412C680.948 585.594 679.301 574.723 685.221 569.602Z" fill="black"/>
<path d="M158.893 641.133C158.224 637.994 156.572 634.768 153.378 633.414C145.846 630.223 147.015 647.24 131.004 639.136C111.405 629.215 120.615 603.842 141.688 602.438C146.94 602.087 155.072 603.938 158.021 598.116C162.121 590.021 156.875 590.647 151.296 588.08C137.879 581.91 152.552 550.851 171.385 560.543C182.797 566.856 184.452 578.886 188.727 581.187C200.169 587.352 196.511 556.958 219.428 569.006C230.417 574.784 234.198 587.152 227.83 597.622C224.183 603.616 216.97 607.179 214.393 613.584C211.815 614.604 209.452 615.549 207.209 617.176C204.84 608.897 203.252 601.354 194.831 596.752C175.519 586.196 150.451 606.195 164.85 630.429C166.919 632.406 169.434 634.137 171.385 636.157C178.652 638.972 184.872 638.222 192.21 636.157C189.573 645.854 189.937 656.343 195.378 665.093C190.565 668.81 184.339 673.028 178.249 674.328C168.643 675.637 160.146 671.469 156.577 662.561C152.586 652.601 155.115 649.523 158.893 641.133Z" fill="#FF0046"/>
<path d="M158.893 641.133C158.224 637.994 156.572 634.768 153.378 633.414C145.846 630.223 147.015 647.24 131.004 639.136C111.405 629.215 120.615 603.842 141.688 602.438C146.94 602.087 155.072 603.938 158.021 598.116C162.121 590.021 156.875 590.647 151.296 588.08C137.879 581.91 152.552 550.851 171.385 560.543C143.485 569.053 166.808 588.086 161.146 599.6C157.701 606.602 135.443 606.476 136.879 616.902L137.057 617.176C143.167 619.524 144.844 624.63 139.118 628.952C142.822 630.267 161.401 631.473 164.85 630.429C166.919 632.406 169.434 634.137 171.385 636.157C178.652 638.972 184.872 638.222 192.21 636.157C189.573 645.854 189.937 656.343 195.378 665.093C190.565 668.81 184.339 673.028 178.249 674.328C168.643 675.637 160.146 671.469 156.577 662.561C152.586 652.601 155.115 649.523 158.893 641.133Z" fill="#FF0046"/>
<path d="M172.447 661.092C165.747 657.087 166.178 641.13 171.385 636.157C178.652 638.972 184.872 638.222 192.21 636.157C189.573 645.854 189.937 656.343 195.378 665.093C190.565 668.81 184.339 673.028 178.249 674.328C177.103 673.216 177.142 670.285 178.249 669.164C174.889 667.478 173.029 664.708 172.447 661.092Z" fill="#FA1E5A"/>
<path d="M172.447 661.092C176.919 652.722 189.062 661.407 178.249 669.163C174.889 667.477 173.029 664.708 172.447 661.092Z" fill="black"/>
<path d="M137.057 617.175C143.167 619.523 144.844 624.63 139.118 628.952C131.523 627.403 129.233 619.841 137.057 617.175Z" fill="black"/>
<path d="M328.635 602.422C333.636 593.781 314.327 588.134 320.783 575.641C323.95 569.514 331.282 566.905 337.558 570.477C343.247 573.713 348.217 586.93 354.564 576.3C358.115 570.352 360.033 562.987 367.848 560.781C377.517 558.052 386.015 571.768 383.887 579.775C382.89 583.524 377.784 589.312 382.316 592.539C387.891 596.51 400.937 587.934 403.551 599.254C409.193 623.698 379.61 617.4 376.926 621.21C372.752 627.134 383.868 642.529 367.473 646.519C361.577 647.954 353.507 646.284 351.802 639.842C350.162 636.168 349.034 629.183 344.859 627.442C340.921 625.802 333.801 634.485 319.503 628.263C304.775 621.858 316.101 606.129 328.635 602.422Z" fill="#E600F7"/>
<path d="M351.802 639.842C350.162 636.168 349.034 629.183 344.859 627.442C340.921 625.802 333.801 634.485 319.503 628.263C304.775 621.858 316.101 606.129 328.635 602.422C331.77 624.187 355.603 617.695 357.547 630.624C358.139 634.564 355.016 637.901 351.802 639.842Z" fill="#E600F7"/>
<path d="M358.414 586.413C368.194 585.038 377.264 591.637 378.661 601.143C380.056 610.649 373.249 619.449 363.464 620.789C353.706 622.125 344.677 615.53 343.283 606.05C341.892 596.569 348.661 587.783 358.414 586.413Z" fill="black"/>
<path d="M361.582 597.034C370.098 598.257 369.795 609.705 361.582 610.403C350.795 609.185 351.284 598.674 361.582 597.034Z" fill="#F8B516"/>
<path d="M468.746 516.139C468.699 507.797 478.664 502.598 486.185 501.89C493.558 503.08 499.152 506.084 502.244 512.765C514.758 516.798 518.212 521.241 534.518 524.795C529.392 527.72 523.362 529.565 517.534 527.741C514.527 538.588 521.101 534.673 532.681 534.417C518.524 560.196 506.541 533.678 499.252 543.581C497.789 545.568 498.049 547.909 499.577 549.666C500.678 551.214 499.867 554.139 499.577 555.971C498.619 564.62 493.291 570.58 484.427 571.909C473.467 571.676 462.989 563.781 463.946 552.319C465.035 539.281 463.473 544.514 450.838 543.531C430.809 541.972 426.241 514.263 446.088 508.634H449.022C453.159 507.643 456.336 507.531 460.455 508.634C462.501 511.759 465.525 514.223 468.746 516.139Z" fill="#FF0046"/>
<path d="M468.746 516.139C468.699 507.797 478.664 502.598 486.184 501.89C493.558 503.08 499.151 506.084 502.244 512.765C511.052 536.782 481.727 547.771 468.746 527.741C467.435 523.583 467.901 520.299 468.746 516.139Z" fill="black"/>
<path d="M484.427 512.765C493.431 513.258 496.454 523.749 488.256 527.741C476.34 527.994 474.811 517.296 484.427 512.765Z" fill="#FDD402"/>
<path d="M499.577 549.666C500.678 551.214 499.867 554.139 499.577 555.971C498.619 564.62 493.291 570.58 484.427 571.909C481.334 566.195 475.154 555.97 484.427 552.398C489.244 549.627 494.196 549.811 499.577 549.666Z" fill="#FF0046"/>
<path d="M499.577 549.666C500.677 551.214 499.867 554.139 499.577 555.971C497.368 553.134 487.963 552.646 484.427 552.398C489.243 549.627 494.196 549.811 499.577 549.666Z" fill="#FA1E5A"/>
<path d="M449.022 508.634C453.159 507.643 456.336 507.531 460.455 508.634C462.5 511.759 465.525 514.223 468.746 516.139C467.901 520.299 467.435 523.582 468.746 527.741C465.24 528.721 459.102 528.035 455.45 527.741C452.374 525.992 450.708 524.469 449.022 521.381C449.224 517.174 449.213 512.842 449.022 508.634Z" fill="#FF0046"/>
<path d="M446.088 508.634H449.022C449.213 512.842 449.224 517.174 449.022 521.381C446.151 517.114 446.102 513.555 446.088 508.634Z" fill="#FA1E5A"/>
<path d="M334.873 921.457C344.604 919.405 343.734 912.972 350.122 907.442C356.764 901.691 367.581 901.842 373.404 908.419C376.332 912.437 377.703 920.559 383.478 921.52C387.986 922.27 399.532 910.943 410.088 923.747C415.095 929.818 414.203 937.747 413.202 944.946H334.873H312.574C306.063 937.522 305.788 924.508 315.592 919.444C323.608 915.303 327.193 919.04 334.339 921.293L334.873 921.457Z" fill="#0ED261"/>
<path d="M334.873 921.457C344.604 919.405 343.734 912.972 350.122 907.442C356.764 901.691 367.581 901.842 373.404 908.419C353.271 910.734 358.873 923.642 344.224 927.753C334.594 930.456 333.913 936.211 334.873 944.946H312.574C306.063 937.522 305.788 924.508 315.592 919.444C323.608 915.303 327.193 919.04 334.339 921.293L334.873 921.457Z" fill="#076317"/>
<path d="M433.749 944.946C432.291 935.217 432.1 921.989 444.305 918.826C451.625 916.931 454.512 921.626 460.063 921.113C466.081 920.559 476.175 890.665 495.578 906.477C504.821 911.132 502.371 925.645 512.08 922.921C518.909 921.006 523.127 915.481 530.854 919.528C541.558 925.136 541.377 941.756 528.303 944.369C518.21 946.383 471.234 945.522 458.833 944.946C450.481 944.826 442.104 944.941 433.749 944.946Z" fill="#0ED261"/>
<path d="M433.749 944.946C432.291 935.217 432.1 921.989 444.305 918.826C451.625 916.931 454.512 921.626 460.063 921.113C466.081 920.559 476.175 890.665 495.578 906.477C477.979 909.28 481.438 918.669 471.138 925.586C465.846 929.14 454.017 928.61 455.423 937.641C455.815 940.148 456.548 943.453 458.833 944.946C450.481 944.826 442.104 944.941 433.749 944.946Z" fill="#076317"/>
<path d="M460.455 508.634C474.773 506.257 459.061 494.427 458.43 491.674C454.827 475.965 476.544 464.434 491.674 473.96C490.763 481.591 490.648 495.712 486.185 501.89C478.664 502.598 468.699 507.797 468.746 516.139C465.525 514.223 462.5 511.759 460.455 508.634Z" fill="#FF0046"/>
<path d="M474.936 473.96C483.606 473.51 482.834 483.819 474.936 486.671C463.499 485.752 466.042 476.621 474.936 473.96Z" fill="black"/>
<path d="M491.674 473.96C497.763 480.828 501.027 487.322 501.819 496.368C503.536 515.98 515.056 494.192 529.999 509.474C533.151 512.698 540.491 521.261 534.517 524.795C518.212 521.241 514.758 516.798 502.244 512.765C499.151 506.084 493.558 503.081 486.185 501.89C490.648 495.712 490.763 481.591 491.674 473.96Z" fill="#FF0046"/>
<path d="M275.986 599.302C284.834 597.836 295.678 599.471 304.55 600.719C302.687 603.906 300.884 607.068 299.304 610.403C286.161 608.489 271.637 607.104 259.298 612.824C254.791 612.902 250.217 615.414 246.184 617.176C242.287 615.91 238.57 614.426 234.812 612.824C247.126 602.502 260.091 599.77 275.986 599.302Z" fill="#C77705"/>
<path d="M181.355 606.641C186.815 605.726 191.997 609.313 192.892 614.628C193.787 619.944 190.054 624.948 184.577 625.774C179.165 626.59 174.088 623.013 173.203 617.761C172.319 612.508 175.957 607.544 181.355 606.641Z" fill="#FDD402"/>
<path d="M427.327 479.807C430.114 480.166 432.901 479.944 435.698 479.807C436.538 484.796 437.418 489.755 438.509 494.698C436.159 496.06 433.956 497.559 431.741 499.119L426.023 503.684C425.762 495.697 426.646 487.758 427.327 479.807Z" fill="#F8B516"/>
</svg>
