<svg width="849" height="1183" viewBox="0 0 849 1183" fill="none" xmlns="http://www.w3.org/2000/svg">
<rect x="5" y="5" width="839" height="1173" rx="45" fill="white"/>
<rect x="5" y="5" width="839" height="1173" rx="45" stroke="black" stroke-width="10"/>
<circle cx="786.5" cy="1124.5" r="11.5" fill="black"/>
<circle cx="786.5" cy="59.5" r="11.5" fill="black"/>
<path d="M77 1124.5C77 1130.85 71.8513 1136 65.5 1136C59.1487 1136 54 1130.85 54 1124.5C54 1118.15 59.1487 1113 65.5 1113C71.8513 1113 77 1118.15 77 1124.5Z" fill="black"/>
<path d="M77 59.5C77 65.8513 71.8513 71 65.5 71C59.1487 71 54 65.8513 54 59.5C54 53.1487 59.1487 48 65.5 48C71.8513 48 77 53.1487 77 59.5Z" fill="black"/>
<mask id="path-6-inside-1_1_4387" fill="white">
<path d="M708 48C713.523 48 717.934 52.4996 718.616 57.9801C723.122 94.1833 751.817 122.878 788.02 127.384C793.5 128.066 798 132.477 798 138V1046C798 1051.52 793.5 1055.93 788.02 1056.62C751.817 1061.12 723.122 1089.82 718.616 1126.02C717.934 1131.5 713.523 1136 708 1136H141C135.477 1136 131.066 1131.5 130.384 1126.02C125.878 1089.82 97.1833 1061.12 60.9801 1056.62C55.4996 1055.93 51 1051.52 51 1046V138C51 132.477 55.4996 128.066 60.9801 127.384C97.1833 122.878 125.878 94.1833 130.384 57.9801C131.066 52.4996 135.477 48 141 48H708Z"/>
</mask>
<path d="M708 48C713.523 48 717.934 52.4996 718.616 57.9801C723.122 94.1833 751.817 122.878 788.02 127.384C793.5 128.066 798 132.477 798 138V1046C798 1051.52 793.5 1055.93 788.02 1056.62C751.817 1061.12 723.122 1089.82 718.616 1126.02C717.934 1131.5 713.523 1136 708 1136H141C135.477 1136 131.066 1131.5 130.384 1126.02C125.878 1089.82 97.1833 1061.12 60.9801 1056.62C55.4996 1055.93 51 1051.52 51 1046V138C51 132.477 55.4996 128.066 60.9801 127.384C97.1833 122.878 125.878 94.1833 130.384 57.9801C131.066 52.4996 135.477 48 141 48H708Z" fill="#C357B5"/>
<path d="M130.384 1126.02L138.322 1125.03L130.384 1126.02ZM718.616 1126.02L710.678 1125.03L718.616 1126.02ZM788.02 1056.62L789.008 1064.56L788.02 1056.62ZM718.616 57.9801L726.555 56.9922L718.616 57.9801ZM718.616 57.9801L710.678 58.9681C715.635 98.8063 747.194 130.365 787.032 135.322L788.02 127.384L789.008 119.445C756.44 115.392 730.608 89.5603 726.555 56.9922L718.616 57.9801ZM798 138H790V1046H798H806V138H798ZM788.02 1056.62L787.032 1048.68C747.194 1053.64 715.635 1085.19 710.678 1125.03L718.616 1126.02L726.555 1127.01C730.608 1094.44 756.44 1068.61 789.008 1064.56L788.02 1056.62ZM708 1136V1128H141V1136V1144H708V1136ZM130.384 1126.02L138.322 1125.03C133.365 1085.19 101.806 1053.64 61.9681 1048.68L60.9801 1056.62L59.9922 1064.56C92.5603 1068.61 118.392 1094.44 122.445 1127.01L130.384 1126.02ZM51 1046H59V138H51H43V1046H51ZM60.9801 127.384L61.9681 135.322C101.806 130.365 133.365 98.8063 138.322 58.9681L130.384 57.9801L122.445 56.9922C118.392 89.5603 92.5603 115.392 59.9922 119.445L60.9801 127.384ZM141 48V56H708V48V40H141V48ZM130.384 57.9801L138.322 58.9681C138.438 58.0389 138.872 57.2306 139.427 56.6958C139.954 56.1887 140.494 56 141 56V48V40C130.84 40 123.547 48.1329 122.445 56.9922L130.384 57.9801ZM51 138H59C59 137.494 59.1887 136.954 59.6958 136.427C60.2306 135.872 61.0389 135.438 61.9681 135.322L60.9801 127.384L59.9922 119.445C51.1329 120.547 43 127.84 43 138H51ZM60.9801 1056.62L61.9681 1048.68C61.0389 1048.56 60.2306 1048.13 59.6958 1047.57C59.1887 1047.05 59 1046.51 59 1046H51H43C43 1056.16 51.1329 1063.45 59.9922 1064.56L60.9801 1056.62ZM141 1136V1128C140.494 1128 139.954 1127.81 139.427 1127.3C138.872 1126.77 138.438 1125.96 138.322 1125.03L130.384 1126.02L122.445 1127.01C123.547 1135.87 130.84 1144 141 1144V1136ZM718.616 1126.02L710.678 1125.03C710.562 1125.96 710.128 1126.77 709.573 1127.3C709.046 1127.81 708.506 1128 708 1128V1136V1144C718.16 1144 725.453 1135.87 726.555 1127.01L718.616 1126.02ZM798 1046H790C790 1046.51 789.811 1047.05 789.304 1047.57C788.769 1048.13 787.961 1048.56 787.032 1048.68L788.02 1056.62L789.008 1064.56C797.867 1063.45 806 1056.16 806 1046H798ZM788.02 127.384L787.032 135.322C787.961 135.438 788.769 135.872 789.304 136.427C789.811 136.954 790 137.494 790 138H798H806C806 127.84 797.867 120.547 789.008 119.445L788.02 127.384ZM718.616 57.9801L726.555 56.9922C725.453 48.1329 718.16 40 708 40V48V56C708.506 56 709.046 56.1887 709.573 56.6958C710.128 57.2306 710.562 58.0389 710.678 58.9681L718.616 57.9801Z" fill="black" mask="url(#path-6-inside-1_1_4387)"/>
<path d="M690 102C695.523 102 699.911 106.512 700.837 111.957C705.019 136.563 724.437 155.981 749.043 160.163C754.488 161.089 759 165.477 759 171V1014C759 1019.52 754.488 1023.91 749.043 1024.84C724.711 1028.97 705.454 1048 700.984 1072.22C699.993 1077.59 695.633 1082 690.175 1082H158.825C153.367 1082 149.007 1077.59 148.016 1072.22C143.546 1048 124.288 1028.97 99.9568 1024.84C94.5121 1023.91 90 1019.52 90 1014V171C90 165.477 94.512 161.089 99.9568 160.163C124.563 155.981 143.981 136.563 148.163 111.957C149.089 106.512 153.477 102 159 102H690Z" fill="#D78BCD"/>
<mask id="path-9-outside-2_1_4387" maskUnits="userSpaceOnUse" x="418" y="1006" width="21" height="31" fill="black">
<rect fill="white" x="418" y="1006" width="21" height="31"/>
<path d="M421.92 1030.8C424.48 1028.59 426.493 1026.77 427.96 1025.36C429.453 1023.92 430.693 1022.43 431.68 1020.88C432.667 1019.33 433.16 1017.79 433.16 1016.24C433.16 1014.64 432.773 1013.39 432 1012.48C431.253 1011.57 430.067 1011.12 428.44 1011.12C426.867 1011.12 425.64 1011.63 424.76 1012.64C423.907 1013.63 423.453 1014.96 423.4 1016.64H419C419.08 1013.6 419.987 1011.28 421.72 1009.68C423.48 1008.05 425.707 1007.24 428.4 1007.24C431.307 1007.24 433.573 1008.04 435.2 1009.64C436.853 1011.24 437.68 1013.37 437.68 1016.04C437.68 1017.96 437.187 1019.81 436.2 1021.6C435.24 1023.36 434.08 1024.95 432.72 1026.36C431.387 1027.75 429.68 1029.36 427.6 1031.2L425.8 1032.8H438.48V1036.6H419.04V1033.28L421.92 1030.8Z"/>
</mask>
<path d="M421.92 1030.8C424.48 1028.59 426.493 1026.77 427.96 1025.36C429.453 1023.92 430.693 1022.43 431.68 1020.88C432.667 1019.33 433.16 1017.79 433.16 1016.24C433.16 1014.64 432.773 1013.39 432 1012.48C431.253 1011.57 430.067 1011.12 428.44 1011.12C426.867 1011.12 425.64 1011.63 424.76 1012.64C423.907 1013.63 423.453 1014.96 423.4 1016.64H419C419.08 1013.6 419.987 1011.28 421.72 1009.68C423.48 1008.05 425.707 1007.24 428.4 1007.24C431.307 1007.24 433.573 1008.04 435.2 1009.64C436.853 1011.24 437.68 1013.37 437.68 1016.04C437.68 1017.96 437.187 1019.81 436.2 1021.6C435.24 1023.36 434.08 1024.95 432.72 1026.36C431.387 1027.75 429.68 1029.36 427.6 1031.2L425.8 1032.8H438.48V1036.6H419.04V1033.28L421.92 1030.8Z" fill="black"/>
<path d="M421.92 1030.8L422.116 1031.03L422.116 1031.03L421.92 1030.8ZM427.96 1025.36L428.168 1025.58L428.168 1025.58L427.96 1025.36ZM432 1012.48L431.768 1012.67L431.772 1012.67L432 1012.48ZM424.76 1012.64L424.533 1012.44L424.533 1012.44L424.76 1012.64ZM423.4 1016.64V1016.94H423.691L423.7 1016.65L423.4 1016.64ZM419 1016.64L418.7 1016.63L418.692 1016.94H419V1016.64ZM421.72 1009.68L421.923 1009.9L421.924 1009.9L421.72 1009.68ZM435.2 1009.64L434.99 1009.85L434.991 1009.86L435.2 1009.64ZM436.2 1021.6L435.937 1021.45L435.937 1021.46L436.2 1021.6ZM432.72 1026.36L432.504 1026.15L432.504 1026.15L432.72 1026.36ZM427.6 1031.2L427.401 1030.98L427.401 1030.98L427.6 1031.2ZM425.8 1032.8L425.601 1032.58L425.011 1033.1H425.8V1032.8ZM438.48 1032.8H438.78V1032.5H438.48V1032.8ZM438.48 1036.6V1036.9H438.78V1036.6H438.48ZM419.04 1036.6H418.74V1036.9H419.04V1036.6ZM419.04 1033.28L418.844 1033.05L418.74 1033.14V1033.28H419.04ZM421.92 1030.8L422.116 1031.03C424.678 1028.81 426.696 1026.99 428.168 1025.58L427.96 1025.36L427.752 1025.14C426.291 1026.55 424.282 1028.36 421.724 1030.57L421.92 1030.8ZM427.96 1025.36L428.168 1025.58C429.676 1024.12 430.932 1022.61 431.933 1021.04L431.68 1020.88L431.427 1020.72C430.455 1022.24 429.23 1023.72 427.752 1025.14L427.96 1025.36ZM431.68 1020.88L431.933 1021.04C432.945 1019.46 433.46 1017.85 433.46 1016.24H433.16H432.86C432.86 1017.72 432.389 1019.21 431.427 1020.72L431.68 1020.88ZM433.16 1016.24H433.46C433.46 1014.59 433.062 1013.26 432.228 1012.29L432 1012.48L431.772 1012.67C432.485 1013.51 432.86 1014.69 432.86 1016.24H433.16ZM432 1012.48L432.232 1012.29C431.408 1011.29 430.12 1010.82 428.44 1010.82V1011.12V1011.42C430.013 1011.42 431.098 1011.86 431.768 1012.67L432 1012.48ZM428.44 1011.12V1010.82C426.796 1010.82 425.48 1011.35 424.533 1012.44L424.76 1012.64L424.987 1012.84C425.8 1011.9 426.937 1011.42 428.44 1011.42V1011.12ZM424.76 1012.64L424.533 1012.44C423.623 1013.5 423.155 1014.9 423.1 1016.63L423.4 1016.64L423.7 1016.65C423.752 1015.02 424.19 1013.76 424.987 1012.84L424.76 1012.64ZM423.4 1016.64V1016.34H419V1016.64V1016.94H423.4V1016.64ZM419 1016.64L419.3 1016.65C419.378 1013.66 420.266 1011.43 421.923 1009.9L421.72 1009.68L421.517 1009.46C419.708 1011.13 418.782 1013.54 418.7 1016.63L419 1016.64ZM421.72 1009.68L421.924 1009.9C423.621 1008.33 425.772 1007.54 428.4 1007.54V1007.24V1006.94C425.641 1006.94 423.339 1007.78 421.516 1009.46L421.72 1009.68ZM428.4 1007.24V1007.54C431.251 1007.54 433.433 1008.32 434.99 1009.85L435.2 1009.64L435.41 1009.43C433.713 1007.76 431.363 1006.94 428.4 1006.94V1007.24ZM435.2 1009.64L434.991 1009.86C436.577 1011.39 437.38 1013.44 437.38 1016.04H437.68H437.98C437.98 1013.31 437.13 1011.09 435.409 1009.42L435.2 1009.64ZM437.68 1016.04H437.38C437.38 1017.91 436.901 1019.71 435.937 1021.45L436.2 1021.6L436.463 1021.75C437.472 1019.92 437.98 1018.01 437.98 1016.04H437.68ZM436.2 1021.6L435.937 1021.46C434.989 1023.19 433.845 1024.76 432.504 1026.15L432.72 1026.36L432.936 1026.57C434.315 1025.14 435.491 1023.53 436.463 1021.74L436.2 1021.6ZM432.72 1026.36L432.504 1026.15C431.178 1027.53 429.478 1029.14 427.401 1030.98L427.6 1031.2L427.799 1031.42C429.882 1029.58 431.595 1027.96 432.936 1026.57L432.72 1026.36ZM427.6 1031.2L427.401 1030.98L425.601 1032.58L425.8 1032.8L425.999 1033.02L427.799 1031.42L427.6 1031.2ZM425.8 1032.8V1033.1H438.48V1032.8V1032.5H425.8V1032.8ZM438.48 1032.8H438.18V1036.6H438.48H438.78V1032.8H438.48ZM438.48 1036.6V1036.3H419.04V1036.6V1036.9H438.48V1036.6ZM419.04 1036.6H419.34V1033.28H419.04H418.74V1036.6H419.04ZM419.04 1033.28L419.236 1033.51L422.116 1031.03L421.92 1030.8L421.724 1030.57L418.844 1033.05L419.04 1033.28Z" fill="black" mask="url(#path-9-outside-2_1_4387)"/>
<path d="M299.07 197.975V214.355H269.46V227.375H291.3V243.02H269.46V272H248.88V197.975H299.07ZM328.317 194.3V272H307.737V194.3H328.317ZM367.442 272.735C361.562 272.735 356.277 271.51 351.587 269.06C346.967 266.61 343.327 263.11 340.667 258.56C338.007 254.01 336.677 248.655 336.677 242.495C336.677 236.405 338.007 231.085 340.667 226.535C343.397 221.985 347.072 218.485 351.692 216.035C356.382 213.585 361.667 212.36 367.547 212.36C373.427 212.36 378.677 213.585 383.297 216.035C387.987 218.485 391.662 221.985 394.322 226.535C397.052 231.085 398.417 236.405 398.417 242.495C398.417 248.585 397.052 253.94 394.322 258.56C391.662 263.11 387.987 266.61 383.297 269.06C378.607 271.51 373.322 272.735 367.442 272.735ZM367.442 254.885C370.312 254.885 372.692 253.835 374.582 251.735C376.542 249.565 377.522 246.485 377.522 242.495C377.522 238.505 376.542 235.46 374.582 233.36C372.692 231.26 370.347 230.21 367.547 230.21C364.747 230.21 362.402 231.26 360.512 233.36C358.622 235.46 357.677 238.505 357.677 242.495C357.677 246.555 358.587 249.635 360.407 251.735C362.227 253.835 364.572 254.885 367.442 254.885ZM493.835 213.095L478.82 272H455.72L447.53 236.3L439.025 272H416.03L401.12 213.095H421.595L428.21 252.155L436.925 213.095H458.975L468.005 252.26L474.515 213.095H493.835ZM555.971 241.865C555.971 243.475 555.866 245.085 555.656 246.695H516.701C516.911 249.915 517.786 252.33 519.326 253.94C520.936 255.48 522.966 256.25 525.416 256.25C528.846 256.25 531.296 254.71 532.766 251.63H554.711C553.801 255.69 552.016 259.33 549.356 262.55C546.766 265.7 543.476 268.185 539.486 270.005C535.496 271.825 531.086 272.735 526.256 272.735C520.446 272.735 515.266 271.51 510.716 269.06C506.236 266.61 502.701 263.11 500.111 258.56C497.591 254.01 496.331 248.655 496.331 242.495C496.331 236.335 497.591 231.015 500.111 226.535C502.631 221.985 506.131 218.485 510.611 216.035C515.161 213.585 520.376 212.36 526.256 212.36C532.066 212.36 537.211 213.55 541.691 215.93C546.171 218.31 549.671 221.74 552.191 226.22C554.711 230.63 555.971 235.845 555.971 241.865ZM534.971 236.72C534.971 234.2 534.131 232.24 532.451 230.84C530.771 229.37 528.671 228.635 526.151 228.635C523.631 228.635 521.566 229.335 519.956 230.735C518.346 232.065 517.296 234.06 516.806 236.72H534.971ZM584.973 223.49C587.283 220.13 590.083 217.47 593.373 215.51C596.663 213.55 600.198 212.57 603.978 212.57V234.515H598.203C593.723 234.515 590.398 235.39 588.228 237.14C586.058 238.89 584.973 241.935 584.973 246.275V272H564.393V213.095H584.973V223.49Z" fill="black"/>
<g clip-path="url(#clip0_1_4387)">
<path d="M399.878 323.726C408.306 323.216 416.456 325.05 423.567 329.663C434.109 336.504 440.493 347.395 443.115 359.506C447.634 357.404 452.426 355.942 457.349 355.164C468.917 353.317 480.281 356.264 489.679 363.201C499.954 370.786 506.213 381.366 508.128 393.935C512.73 389.321 517.563 386.909 523.889 385.503C526.669 378.147 531.099 371.528 538.283 367.874C544.588 364.667 552.471 363.956 559.211 366.15C568.985 369.332 573.516 376.982 577.879 385.667C579.533 385.827 581.135 386.084 582.753 386.466C589.861 388.139 595.946 392.113 599.801 398.392C603.5 404.529 604.626 411.878 602.933 418.841C600.603 428.183 593.49 435.158 585.475 439.923C583.881 447.936 580.191 455.871 573.319 460.686C567.316 464.894 560.404 465.676 553.356 464.438C542.216 487.538 530.993 509.799 509.95 525.464C502.26 531.188 493.518 535.561 486.078 541.555C458.796 563.534 455.293 600.458 454.128 632.971C453.524 649.816 453.736 666.676 453.743 683.53C453.746 693.04 454.075 702.872 453.02 712.329C455.36 706.993 457.503 701.586 459.98 696.306C472.113 670.439 487.352 645.927 507.559 625.568C504.979 622.116 503.015 618.244 501.754 614.123C498.919 604.921 499.838 595.873 504.413 587.404C512.51 572.417 527.474 564.054 543.251 559.316C540.978 552.641 540.026 545.694 539.978 538.658C539.898 527.178 542.374 515.021 550.763 506.626C557.553 499.831 567.513 496.325 577.014 496.339C593.201 496.363 606.038 504.216 617.112 515.404C621.773 510.498 626.614 506.209 632.632 503.021C642.776 497.646 656.651 494.993 667.809 498.565C676.49 501.344 682.807 508.163 686.878 516.118C693.879 529.798 694.178 546.803 689.443 561.245C696.466 562.693 703.009 564.831 709.243 568.423C718.613 573.823 726.171 581.856 728.941 592.513C731.469 602.234 729.3 611.965 724.256 620.493C716.384 633.801 703.184 644.067 688.182 647.879C690.419 654.072 692.041 660.242 692.385 666.846C692.948 677.65 689.725 688.556 682.396 696.656C676.031 703.649 667.139 707.814 657.691 708.227C641.387 708.969 628.439 700.46 616.841 689.944C612.078 695.41 607.03 699.407 600.696 702.919C608.639 709.038 612.525 715.894 614.873 725.523C615.168 725.623 615.461 725.725 615.754 725.828C623.459 728.556 629.393 734.361 632.858 741.728C636.408 749.271 636.476 758.544 633.668 766.336C630.358 775.517 623.941 782.352 615.171 786.503C615.001 787.301 614.78 788.084 614.545 788.866C612.004 797.328 605.68 804.119 597.944 808.203C589.969 812.411 580.223 813.512 571.597 810.741C561.68 807.554 555.96 800.23 551.38 791.273C550.06 790.824 548.761 790.318 547.486 789.755C538.848 785.963 530.822 778.63 527.377 769.721C524.039 761.089 525.786 752.765 529.416 744.578C526.258 742.893 522.983 741.44 519.616 740.229C508.046 746.786 484.691 765.693 478.033 777.009C474.884 782.359 473.977 794.436 472.976 801.017C466.687 842.389 462.111 893.117 472.981 933.674C474.012 936.793 475.283 939.903 476.082 943.087C477.024 946.845 476.959 950.848 474.828 954.211C473.138 956.879 470.659 958.592 467.566 959.211C463.678 959.986 459.154 959.529 455.171 959.529L433.436 959.536L407.834 959.542C403.406 959.542 398.666 959.879 394.287 959.323C392.454 959.086 390.899 958.379 389.411 957.292C386.298 955.023 384.468 951.729 384.383 947.842C384.274 942.866 388.17 930.658 389.293 924.917C394.082 900.441 397.303 873.973 393.528 849.129C390.271 827.696 382.028 805.974 370.502 787.635C366.946 781.977 362.923 776.079 357.449 772.113C346.551 764.216 330.165 766.121 317.623 768.112C318.908 774.891 318.947 781.718 316.604 788.285C313.464 797.088 307.273 802.754 298.99 806.678C298.788 807.304 298.564 807.924 298.321 808.536C295.048 816.833 288.342 823.284 280.157 826.71C271.691 830.253 261.938 830.529 253.413 827.009C242.953 822.69 236.55 814.171 232.296 804.009C231.753 803.747 231.214 803.474 230.681 803.192C221.984 798.577 215.695 790.424 212.861 781.05C210.137 772.229 211.056 762.686 215.413 754.547C219.524 747.003 225.986 742.316 234.119 739.889C237.219 734.404 240.496 729.415 245.461 725.429C251.951 720.218 260 717.449 268.338 718.384C277.765 719.44 283.874 725.166 289.553 732.217L301.691 728.517C292.449 722.524 284.238 715.289 277.724 706.363C274.864 706.423 271.977 706.45 269.125 706.213C256.498 705.163 246.28 699.924 238.106 690.277C234.15 694.643 230.083 698.855 225.222 702.231C215.928 708.686 203.579 712.928 192.203 710.799C183.435 709.153 175.713 704.013 170.812 696.559C161.333 682.388 161.27 664.376 164.465 648.234C162.017 647.576 159.619 646.744 157.288 645.749C145.669 640.826 135.549 632.251 130.772 620.353C126.808 610.481 126.723 600.508 130.987 590.719C137.36 576.09 150.047 566.194 164.621 560.481C161.949 551.486 160.819 542.102 162.149 532.771C163.647 522.259 168.758 511.837 177.438 505.441C186.377 498.853 197.943 497.177 208.736 498.804C221.818 500.777 232.054 507.663 239.823 518.192C245.059 510.694 252.613 504.064 260.945 500.242C269.549 496.294 278.946 495.294 287.898 498.693C298.153 502.586 306.795 511.291 311.219 521.258C316.734 533.682 315.396 546.218 310.574 558.568C315.103 559.001 319.451 559.791 323.752 561.314C338.007 566.362 346.796 576.486 353.09 589.815C374.029 600.549 391.86 614.543 407.361 632.2C408.674 600.086 414.186 565.88 432.388 538.633C427.764 541.674 422.728 544.038 417.434 545.653C405.948 549.259 393.501 548.175 382.813 542.636C368.96 535.314 361.147 524.066 356.687 509.391C351.049 511.333 345.34 512.348 339.366 512.236C327.834 512.134 316.825 507.414 308.799 499.133C300.465 490.495 295.954 478.869 296.279 466.871C296.688 453.136 303.694 442.002 313.448 432.831C309.45 428.653 305.969 424.195 303.366 419.006C298.099 408.557 297.247 396.431 301.001 385.348C304.934 373.976 313.226 364.635 324.051 359.381C334.934 354.165 346.296 354.075 357.556 358.091C359.619 351.162 363.096 344.735 367.768 339.217C376.331 329.21 386.917 324.676 399.878 323.726Z" fill="black"/>
<path d="M346.726 434.916C346.028 433.182 345.464 431.556 343.993 430.308C340.358 427.225 335.28 425.852 331.255 423.293C320.273 416.309 313.52 402.561 318.849 389.961C321.523 383.638 326.833 377.905 333.281 375.379C339.685 372.87 346.231 373.6 352.393 376.397C356.993 378.486 363.327 384.148 368.614 382.375C370.948 381.593 372.476 379.53 373.461 377.369C375.038 373.906 374.93 370.055 375.528 366.369C377.071 356.854 382.509 347.839 391.705 344.157C397.642 341.779 404.608 341.435 410.52 344.055C416.878 346.872 420.923 352.315 423.303 358.706C424.116 360.888 424.758 363.163 425.055 365.477C425.814 371.37 425.076 379.507 431.61 382.381C433.821 383.353 435.786 383.491 438.043 382.58C441.333 381.253 444.268 379.043 447.412 377.409C455.381 373.269 465.283 371.593 473.782 375.068C479.993 377.622 484.901 382.59 487.379 388.832C490.26 395.913 489.94 403.991 486.902 410.957C485.071 415.159 482.376 418.928 478.994 422.021C474.087 426.519 465.375 429.403 468.606 437.918C470.34 442.49 476.963 444.34 480.499 447.429C489.242 455.064 492.853 468.871 488.455 479.656C485.48 486.874 479.718 492.587 472.475 495.499C464.957 498.56 457.146 498.232 449.707 495.156C445.574 493.447 439.866 488.036 435.233 489.911C434.215 490.323 433.202 491.054 432.37 491.763C430.741 494.334 430.393 496.819 430.304 499.814C430.357 501.699 430.321 503.586 430.196 505.467C429.76 512.024 427.103 518.113 422.101 522.464C416.614 527.237 409.308 529.906 402.02 529.342C396.551 528.919 391.13 526.678 386.708 523.474C367.983 509.907 377.335 493.647 371.07 486.845C369.476 485.114 367.483 484.569 365.205 484.436L362.918 485.337C358.714 488.29 353.763 490.953 348.82 492.37C341.841 494.371 333.901 493.884 327.5 490.31C321.808 487.116 317.633 481.774 315.911 475.478C314.072 468.9 314.756 461.542 318.18 455.6C322.542 448.03 329.459 443.736 337.736 441.529C339.543 441.171 341.565 440.759 343.188 439.854C345.29 438.681 346.146 437.192 346.726 434.916Z" fill="black"/>
<path d="M346.726 434.916C346.028 433.182 345.464 431.556 343.993 430.308C340.358 427.225 335.28 425.852 331.255 423.293C320.273 416.309 313.52 402.561 318.849 389.961C321.523 383.638 326.833 377.905 333.281 375.379C339.684 372.87 346.231 373.6 352.393 376.397C356.993 378.486 363.327 384.148 368.614 382.375C370.948 381.593 372.476 379.53 373.461 377.369C375.038 373.906 374.929 370.055 375.528 366.369C377.071 356.854 382.509 347.839 391.704 344.157C397.642 341.779 404.608 341.435 410.52 344.055C416.878 346.872 420.923 352.315 423.303 358.706C424.116 360.888 424.758 363.163 425.055 365.477C425.814 371.37 425.076 379.507 431.61 382.381C433.821 383.353 435.786 383.491 438.043 382.58C441.333 381.253 444.268 379.043 447.412 377.409C455.381 373.269 465.283 371.593 473.782 375.068C479.993 377.622 484.901 382.59 487.379 388.832C490.26 395.913 489.939 403.991 486.902 410.957C485.071 415.159 482.376 418.928 478.994 422.021C474.087 426.519 465.375 429.403 468.606 437.918C470.34 442.49 476.963 444.34 480.499 447.429C489.242 455.064 492.853 468.871 488.454 479.656C485.48 486.874 479.718 492.587 472.474 495.499C464.957 498.56 457.146 498.232 449.707 495.156C445.574 493.447 439.866 488.036 435.233 489.911C434.214 490.323 433.202 491.054 432.369 491.763C432.084 487.764 431.815 483.654 430.346 479.876C429.827 478.542 429.262 477.115 427.912 476.5C429.083 476.117 430.065 475.719 430.972 474.858C432.386 473.514 433.034 471.746 433.061 469.814C433.146 463.829 425.772 454.044 421.691 449.979C426.454 452.164 437.726 458.536 442.143 459.582C443.679 459.946 445.232 459.905 446.733 459.405C449.222 458.576 451.357 456.513 452.401 454.118C453.197 452.295 453.174 450.428 452.399 448.605C449.457 441.689 437.913 438.396 431.349 435.626C437.973 432.659 448.289 430.706 452.344 424.19C453.329 422.608 453.613 420.856 453.088 419.059C452.376 416.625 450.451 414.172 448.164 413.044C446.914 412.428 445.588 412.178 444.201 412.311C437.954 412.908 426.547 418.374 419.957 420.549C423.364 415.197 427.314 410.199 430.708 404.85C432.594 401.878 434.523 398.065 433.606 394.472C433.083 392.414 431.652 390.728 429.782 389.749C427.64 388.628 425.087 388.504 422.809 389.275C416.763 391.323 411.284 400.878 408.551 406.169C408.828 403.906 409.047 401.634 409.206 399.359C409.603 393.499 411.303 385.221 406.964 380.499C405.646 379.066 403.868 378.007 401.883 377.956C399.659 377.899 397.52 379.053 395.944 380.55C391.188 385.073 392.252 393.711 392.125 399.811C390.148 397.039 388.348 393.894 385.935 391.488C383.999 389.556 381.519 388.326 378.739 388.396C376.371 388.455 373.997 389.461 372.434 391.267C367.91 396.496 372.215 402.106 375.358 406.551C377.212 409.174 379.1 411.773 381.023 414.346C382.059 415.75 383.568 417.404 383.733 419.194C383.603 419.382 383.537 419.638 383.343 419.758C380.904 421.258 362.325 410.956 355.099 413.357C352.96 414.067 351.709 415.321 350.794 417.35C349.796 419.564 349.538 421.891 350.511 424.166C353.49 431.137 366.688 433.028 373.318 435.757C369.631 437.757 365.769 439.504 361.976 441.294C358.824 439.479 356.226 437.529 352.681 436.414C350.904 435.854 348.999 435.721 347.252 435.108C347.076 435.046 346.902 434.98 346.726 434.916Z" fill="#F15C8E"/>
<path d="M393.421 465.869C393.483 471.286 392.186 482.884 395.606 487.022C396.946 488.644 399.014 489.749 401.129 489.839C403.271 489.929 405.374 489.042 406.919 487.576C411 483.704 410.01 474.689 410.05 469.538C410.432 469.274 410.258 469.357 410.704 469.199C411.708 468.844 412.636 468.469 413.589 467.994C415.715 471.409 417.943 475.77 422.168 476.837C424.014 477.303 426.08 476.909 427.912 476.5C429.262 477.115 429.827 478.542 430.346 479.876C431.815 483.654 432.084 487.764 432.369 491.763C430.741 494.334 430.393 496.819 430.304 499.814C430.357 501.699 430.321 503.586 430.196 505.467C429.759 512.024 427.103 518.113 422.101 522.464C416.614 527.237 409.308 529.906 402.02 529.342C396.551 528.919 391.129 526.678 386.708 523.474C367.983 509.907 377.335 493.647 371.07 486.845C369.476 485.114 367.483 484.569 365.205 484.436C366.035 483.506 367.703 482.816 368.782 482.136C371.326 480.534 373.321 478.994 375.319 476.747C377.039 477.641 378.713 478.34 380.549 478.959C381.36 478.881 382.186 478.763 382.974 478.549C387.754 477.258 391.086 469.803 393.421 465.869Z" fill="#F15C8E"/>
<path d="M375.319 476.747C377.039 477.641 378.713 478.34 380.549 478.959C380.5 479.136 380.456 479.315 380.403 479.491C379.644 481.992 377.542 484.013 376.349 486.304C374.001 490.814 375.946 498.513 378.066 502.853C381.225 509.276 386.838 514.154 393.637 516.389C400.807 518.804 409.342 518.236 416.094 514.824C422.466 511.604 427.236 506.226 430.304 499.814C430.357 501.699 430.321 503.586 430.196 505.467C429.759 512.024 427.103 518.113 422.101 522.464C416.614 527.237 409.308 529.906 402.02 529.342C396.551 528.919 391.129 526.678 386.708 523.474C367.983 509.907 377.335 493.647 371.07 486.845C369.476 485.114 367.483 484.569 365.205 484.436C366.035 483.506 367.703 482.816 368.782 482.136C371.326 480.534 373.321 478.994 375.319 476.747Z" fill="#F15C8E"/>
<path d="M346.726 434.916C346.902 434.98 347.076 435.046 347.252 435.108C349 435.721 350.904 435.854 352.681 436.414C356.226 437.529 358.824 439.479 361.976 441.294C357.856 443.428 352.843 446.473 351.351 451.172C351.283 451.388 351.22 451.606 351.161 451.825C351.821 454.847 352.885 457.668 355.681 459.356C358.103 460.818 360.885 460.749 363.528 460.011C366.438 459.199 369.273 457.611 371.982 456.288C372.943 458.343 374.204 460.243 375.723 461.928C373.846 464.743 371.389 467.803 371.983 471.413C372.317 473.45 373.743 475.461 375.32 476.747C373.321 478.994 371.326 480.534 368.782 482.136C367.703 482.816 366.035 483.506 365.205 484.436L362.918 485.337C358.714 488.29 353.763 490.953 348.82 492.37C341.841 494.371 333.901 493.884 327.5 490.31C321.808 487.116 317.633 481.774 315.911 475.478C314.072 468.9 314.756 461.542 318.18 455.6C322.542 448.03 329.459 443.736 337.736 441.529C339.543 441.171 341.565 440.759 343.188 439.854C345.29 438.681 346.146 437.192 346.726 434.916Z" fill="#F15C8E"/>
<path d="M362.918 485.337C358.714 488.29 353.763 490.953 348.82 492.37C341.841 494.371 333.901 493.884 327.5 490.31C321.808 487.116 317.633 481.774 315.911 475.478C314.072 468.9 314.756 461.542 318.18 455.6C322.542 448.03 329.459 443.736 337.736 441.529C337.626 441.699 337.519 441.87 337.406 442.038C336.153 443.892 333.805 445.359 332.228 446.982C327.917 451.417 326.701 458.644 327.646 464.592C328.779 471.377 332.573 477.43 338.186 481.407C344.261 485.702 350.541 486.668 357.773 485.762C359.372 485.562 361.349 484.972 362.918 485.337Z" fill="#F15C8E"/>
<path d="M371.982 456.288C376.287 453.751 381.236 451.972 385.269 449.097C381.649 453.042 378.74 457.52 375.723 461.927C374.204 460.243 372.943 458.342 371.982 456.288Z" fill="#F15C8E"/>
<path d="M410.009 462.838L413.589 467.994C412.636 468.469 411.707 468.844 410.704 469.199C410.258 469.357 410.432 469.274 410.05 469.538L410.009 462.838Z" fill="#F15C8E"/>
<path d="M400.837 426.031C403.842 425.039 407.148 425.744 409.487 427.876C411.825 430.007 412.833 433.234 412.123 436.318C411.413 439.402 409.096 441.863 406.061 442.757C401.471 444.11 396.645 441.531 395.219 436.964C393.793 432.397 396.294 427.53 400.837 426.031Z" fill="#F89B58"/>
<path d="M188.278 573.161C188.304 573.065 188.332 572.97 188.356 572.873C189.501 568.286 182.887 558.385 181.347 553.408C178.006 542.608 178.561 526.592 189.144 519.826C194.494 516.404 201.909 515.813 207.988 517.251C213.584 518.574 218.291 521.483 222.218 525.654C224.153 527.709 225.82 529.959 227.379 532.309C230.494 537.001 236.003 548.079 243.044 543.672C246.471 541.527 248.331 536.907 250.554 533.669C257.238 523.937 267.446 512.839 280.489 515.469C285.749 516.529 290.194 520.067 293.069 524.514C297.074 530.711 297.761 538.452 296.134 545.536C295.451 548.541 294.351 551.434 292.866 554.134C289.901 559.624 283.639 566.779 287.417 573.272C288.298 574.787 290.354 575.778 292.005 576.13C295.83 576.945 300.208 576.124 304.106 576.118C315.254 576.104 326.468 580.319 332.981 589.748C336.649 595.06 338.067 601.296 336.823 607.649C335.478 614.517 331.386 620.308 325.571 624.144C321.604 626.761 317.047 628.613 312.429 629.698C307.255 630.914 293.821 630.066 292.629 636.1C291.573 641.446 295.327 647.317 296.778 652.319C300.111 663.814 298.29 676.751 287.915 684.021C281.977 688.181 274.934 689.701 267.797 688.398C259.9 686.956 253.934 682.395 249.435 675.871C246.65 671.834 243.411 664.161 238.234 663.27C236.531 662.976 234.897 663.535 233.557 664.584C230.032 667.347 228.183 672.717 225.766 676.436C219.711 685.75 208.259 694.454 196.546 693.194C192.351 692.743 188.774 690.542 186.216 687.234C180.128 679.365 179.639 667.379 180.917 657.932C181.092 656.636 181.282 655.314 181.554 654.035C182.256 649.976 185.75 640.639 185.343 637.496C185.119 635.765 184.173 634.556 182.59 633.849C180.328 632.838 177.381 632.824 174.949 632.479C168.077 631.504 161.234 628.943 155.638 624.778C150.588 621.02 146.683 615.473 145.788 609.152C144.884 602.766 146.902 596.44 150.77 591.347C156.205 584.189 165.752 577.466 174.854 576.396C177.906 576.037 181.054 576.697 184.094 576.198C186.036 575.879 186.934 575.047 188.062 573.469L188.278 573.161Z" fill="black"/>
<path d="M188.278 573.161C188.304 573.065 188.332 572.97 188.355 572.873C189.5 568.286 182.887 558.385 181.347 553.408C178.006 542.608 178.561 526.592 189.144 519.826C194.494 516.404 201.909 515.813 207.988 517.251C213.584 518.574 218.291 521.483 222.218 525.654C224.153 527.709 225.82 529.959 227.379 532.309C230.494 537.001 236.003 548.079 243.044 543.672C246.471 541.527 248.33 536.907 250.554 533.669C257.237 523.937 267.446 512.839 280.489 515.469C285.749 516.529 290.194 520.067 293.069 524.514C297.074 530.711 297.761 538.452 296.134 545.536C295.45 548.541 294.35 551.434 292.866 554.134C289.9 559.624 283.639 566.779 287.417 573.272C288.298 574.787 290.354 575.778 292.005 576.13C295.83 576.945 300.208 576.124 304.105 576.118C315.254 576.104 326.467 580.319 332.98 589.748C336.649 595.06 338.067 601.296 336.822 607.649C335.477 614.517 331.385 620.308 325.57 624.144C321.604 626.761 317.047 628.613 312.429 629.698C307.255 630.914 293.821 630.066 292.629 636.1C291.572 641.446 295.327 647.317 296.777 652.319C300.111 663.814 298.29 676.751 287.915 684.021C281.977 688.181 274.934 689.701 267.797 688.398C259.9 686.956 253.934 682.395 249.435 675.871C246.65 671.834 243.41 664.161 238.234 663.27C236.53 662.976 234.897 663.535 233.557 664.584C230.032 667.347 228.183 672.717 225.765 676.436C219.71 685.75 208.259 694.454 196.545 693.194C192.351 692.743 188.774 690.542 186.215 687.234C180.128 679.365 179.639 667.379 180.917 657.932C181.092 656.636 181.282 655.314 181.554 654.035L182.799 654.566C185.406 662.56 187.037 668.955 195.158 672.997C200.944 675.877 207.764 676.119 213.845 674.041C221.352 671.477 228.454 665.465 231.8 658.233C232.288 657.177 232.585 655.987 233.27 655.044C234.549 656.877 236.014 658.081 238.263 658.505C240.655 658.956 243.15 658.275 245.076 656.811C249.205 653.671 248.34 649.951 248.929 645.491L248.967 645.229C251.455 642.994 253.049 640.151 254.659 637.264C256.718 639.317 258.544 640.909 261.202 642.157C262.679 642.076 264.057 641.908 265.504 641.601C267.335 643.68 269.525 645.194 272.381 645.307C274.685 645.4 276.923 644.521 278.546 642.883C280.275 641.16 281.2 638.789 281.096 636.351C280.806 629.417 272.338 622.547 267.727 618.083C271.834 617.819 276.785 617.962 280.636 616.426C282.823 615.554 283.982 614.2 284.867 612.064C286.867 611.598 288.595 611.065 290.2 609.702C291.896 608.263 292.969 606.272 293.142 604.047C293.317 601.615 292.49 599.217 290.853 597.41C288.813 595.171 286.472 594.617 283.577 594.444L282.835 594.072C282.009 592.458 280.685 589.384 279.246 588.341C277.459 587.046 275.207 587.612 273.26 588.082C274.634 585.755 276.495 583.036 276.804 580.306C276.966 578.876 276.806 577.828 275.922 576.689C277.667 574.115 278.688 572.114 278.407 568.864C278.199 566.442 277.19 563.881 275.244 562.337C273.877 561.252 272.164 560.862 270.447 561.049C264.585 561.689 260.61 567.501 257.13 571.698C255.462 567.869 252.508 564.477 251.032 560.681C250.394 559.037 250.427 556.183 249.345 554.851C249.13 554.586 248.415 554.256 248.102 554.056C246.479 551.298 244.568 548.73 241.308 547.836C239.669 547.386 237.902 547.532 236.413 548.379C234.122 549.683 232.78 552.559 232.174 555.017C232.004 555.731 231.854 556.45 231.723 557.172C227.533 559.497 225.123 568.383 223.629 572.846C220.647 568.703 217.367 562.531 211.954 561.505C209.797 561.097 207.444 561.391 205.634 562.696C203.973 563.894 202.96 565.758 202.737 567.781C202.377 571.058 203.795 574.066 205.224 576.908L204.684 579.558C203.1 578.879 201.57 577.807 200.015 577.022C196.171 575.079 192.469 574.017 188.278 573.161Z" fill="#FFBB00"/>
<path d="M188.278 573.161C192.469 574.018 196.171 575.079 200.016 577.022C201.57 577.808 203.101 578.879 204.684 579.558L204.449 583.474C205.964 585.866 207.878 587.375 210.093 589.07C207.645 588.919 206.236 589.251 204.368 590.89C203.191 591.942 202.041 593.021 200.917 594.129C200.106 594.146 198.904 594.026 198.194 594.378C194.608 594.604 190.446 594.923 187.91 597.821C186.675 599.229 186.098 601.096 186.323 602.955C186.599 605.377 188.109 607.434 190.04 608.84C192.144 610.373 194.542 611.096 197.059 611.601C199.786 614.694 204.896 615.527 208.478 617.353C206.468 618.284 202.928 619.441 202.022 621.591C201.602 622.588 201.847 623.589 202.339 624.494C202.948 625.613 203.801 626.529 204.664 627.453C202.522 630.37 200.141 633.386 200.706 637.257C201.059 639.682 202.515 641.822 204.511 643.208C206.633 644.68 209.369 645.439 211.92 644.829C213.741 644.393 214.725 643.064 215.853 641.689C216.759 642.4 217.779 642.885 218.798 643.412C224.167 642.537 228.25 641.136 232.56 637.752C232.386 643.487 231.218 649.549 233.271 655.044C232.586 655.988 232.288 657.178 231.8 658.233C228.454 665.465 221.353 671.477 213.846 674.041C207.764 676.119 200.944 675.877 195.158 672.997C187.038 668.955 185.406 662.56 182.799 654.566L181.554 654.035C182.256 649.976 185.75 640.639 185.343 637.496C185.119 635.765 184.173 634.556 182.59 633.849C180.328 632.838 177.381 632.824 174.949 632.479C168.077 631.504 161.234 628.943 155.638 624.778C150.588 621.02 146.683 615.473 145.788 609.153C144.884 602.766 146.902 596.44 150.77 591.347C156.205 584.189 165.752 577.466 174.854 576.396C177.906 576.037 181.054 576.697 184.094 576.198C186.036 575.879 186.934 575.047 188.062 573.469L188.278 573.161Z" fill="#FFBB00"/>
<path d="M215.853 641.689C219.076 635.989 228.294 625.451 233.659 621.995C233.329 627.226 233.184 632.55 232.56 637.752C228.25 641.136 224.167 642.537 218.798 643.412C217.779 642.885 216.759 642.4 215.853 641.689Z" fill="#DDFF00"/>
<path d="M275.922 576.689C276.806 577.828 276.966 578.876 276.805 580.306C276.495 583.036 274.635 585.755 273.261 588.082C275.208 587.612 277.459 587.046 279.246 588.341C280.686 589.384 282.009 592.458 282.835 594.072L283.578 594.444C279.336 594.319 275.137 594.244 270.908 594.719C266.731 595.188 262.62 596.102 258.437 596.557C264.538 589.946 270.483 583.893 275.922 576.689Z" fill="#DDFF00"/>
<path d="M248.967 645.229C249.009 637.501 249.861 629.756 248.717 622.051C254.437 628.312 260.443 634.815 265.504 641.601C264.057 641.908 262.679 642.076 261.202 642.157C258.544 640.909 256.718 639.317 254.659 637.264C253.049 640.151 251.455 642.994 248.967 645.229Z" fill="#DDFF00"/>
<path d="M197.059 611.601C204.072 611.974 214.047 610.675 220.502 612.162C215.004 617.146 209.334 621.613 204.664 627.453C203.8 626.529 202.947 625.613 202.339 624.494C201.847 623.589 201.602 622.588 202.022 621.591C202.928 619.441 206.468 618.284 208.477 617.352C204.895 615.527 199.785 614.694 197.059 611.601Z" fill="#DDFF00"/>
<path d="M205.224 576.908C209.929 584.347 215.572 590.826 221.633 597.171C213.864 595.936 206.082 594.44 198.194 594.378C198.904 594.026 200.106 594.146 200.917 594.129C202.041 593.021 203.191 591.942 204.367 590.89C206.236 589.251 207.645 588.919 210.093 589.07C207.878 587.375 205.964 585.866 204.449 583.474L204.684 579.558L205.224 576.908Z" fill="#DDFF00"/>
<path d="M223.629 572.846C225.123 568.383 227.533 559.497 231.723 557.172C231.206 567.395 232.16 577.571 233.301 587.719C230.115 582.737 226.766 577.859 223.629 572.846Z" fill="#DDFF00"/>
<path d="M248.103 554.056C248.416 554.256 249.131 554.586 249.345 554.851C250.427 556.183 250.394 559.037 251.033 560.681C252.508 564.477 255.462 567.869 257.13 571.698C253.968 575.646 250.879 579.629 248.126 583.878C247.991 574.65 250.153 562.829 248.103 554.056Z" fill="#DDFF00"/>
<path d="M258.793 610.614C267.531 611.313 276.097 611.896 284.867 612.064C283.982 614.2 282.823 615.554 280.636 616.426C276.785 617.962 271.834 617.819 267.727 618.083C264.734 615.611 261.756 613.121 258.793 610.614Z" fill="#DDFF00"/>
<path d="M239.2 596.555C243.845 595.69 248.312 598.749 249.184 603.392C250.057 608.034 247.005 612.506 242.364 613.386C237.712 614.268 233.228 611.207 232.354 606.555C231.479 601.902 234.546 597.422 239.2 596.555Z" fill="#F89B58"/>
<path d="M562.593 558.903C558.599 550.139 556.212 539.968 558.354 530.408C559.566 525.003 562.218 519.978 567.083 517.007C571.87 514.085 577.792 513.961 583.127 515.191C592.601 517.374 601.639 524.289 606.755 532.494C608.918 535.929 611.651 540.537 615.963 541.454C617.64 541.811 619.32 541.378 620.733 540.441C623.502 538.605 625.156 535.478 626.906 532.751C632.708 524.236 640.975 517.599 651.261 515.604C656.122 514.661 660.92 514.789 665.201 517.61C670.303 520.973 673.071 527.089 674.182 532.918C676.495 545.06 672.657 555.243 667.41 565.974C666.585 568.691 665.67 571.554 667.067 574.264C667.838 575.759 669.086 576.736 670.502 577.578C673.328 577.746 676.152 577.611 678.974 577.763C684.086 578.038 688.999 579.263 693.894 580.688C700.65 582.86 707.253 586.179 710.64 592.77C712.817 597.004 713.067 601.942 711.602 606.436C708.705 615.318 699.711 623.531 691.549 627.613C688.79 628.993 685.941 629.995 682.892 630.488C677.757 631.316 670.771 630.205 667.084 634.522C666.327 636.183 665.528 638.739 665.745 640.573C666.073 643.344 668.019 645.782 669.23 648.218C672.972 655.751 675.903 665.738 674.063 674.169C672.9 679.501 669.665 684.616 664.965 687.519C660.137 690.502 654.17 690.688 648.771 689.407C640.237 687.383 632.475 681.411 627.519 674.265C626.25 672.437 625.319 670.402 624.149 668.514C623.011 666.678 621.533 664.809 619.302 664.356C610.72 662.612 608.137 671.636 604.292 676.993C602.233 679.88 599.638 682.344 596.647 684.249C591.077 687.711 584.352 688.796 577.976 687.262C572.734 685.984 568.25 682.881 565.469 678.224C560.615 670.094 560.372 657.369 562.644 648.408C563.582 644.707 565.327 641.251 566.269 637.532L566.393 637.031C566.193 636.176 565.996 635.312 565.683 634.491C565.107 632.971 564.263 631.754 562.792 630.993C558.545 628.797 552.308 629.201 547.617 628.401C543.141 627.592 538.775 626.261 534.608 624.436C528.101 621.512 521.818 616.577 519.291 609.683C517.587 605.096 517.786 600.019 519.845 595.581C524.802 584.918 538.417 578.704 549.196 576.124C552.923 575.231 557.048 575.044 560.613 573.648C562.597 572.871 563.932 571.926 564.737 569.91C566.281 566.051 564.178 562.353 562.593 558.903Z" fill="#FF0C5F"/>
<path d="M626.906 532.751C632.709 524.236 640.975 517.599 651.261 515.604C656.123 514.661 660.92 514.789 665.201 517.61C670.303 520.972 673.071 527.089 674.182 532.917C676.495 545.06 672.657 555.242 667.411 565.974C664.224 562.351 665.62 553.723 665.272 549.036C665.08 546.444 664.502 543.866 663.691 541.399C662.171 536.769 659.595 531.93 655.015 529.723C647.116 525.917 637.375 530.434 629.818 532.957C628.534 533.386 628.115 533.366 626.906 532.751Z" fill="#F57F7F"/>
<path d="M693.894 580.688C700.65 582.86 707.253 586.179 710.641 592.77C712.817 597.004 713.067 601.942 711.602 606.436C708.706 615.318 699.711 623.531 691.549 627.613C688.79 628.993 685.941 629.995 682.892 630.487C677.757 631.316 670.771 630.205 667.084 634.522C665.692 632.719 661.856 630.556 659.639 627.674C671.405 627.026 679.905 625.757 689.637 618.491C697.688 612.48 703.363 602.057 699.659 591.88C698.831 589.608 693.787 582.276 693.733 581.824C693.687 581.444 693.841 581.066 693.894 580.688Z" fill="#F57F7F"/>
<path d="M562.593 558.903C558.599 550.139 556.213 539.968 558.354 530.408C559.566 525.003 562.218 519.978 567.083 517.007C571.87 514.085 577.793 513.961 583.128 515.191C592.601 517.374 601.639 524.289 606.756 532.494L606.654 533.519C605.078 533.65 600.209 530.333 598.306 529.593C588.321 525.711 575.508 526.579 568.279 535.218C564.817 539.356 562.203 546.088 562.729 551.483C562.968 553.922 563.786 556.673 562.593 558.903Z" fill="#F57F7F"/>
<path d="M606.259 563.229C606.12 558.672 605.106 552.923 608.625 549.383C610.489 547.507 613.261 546.656 615.863 546.706C618.547 546.758 621.009 547.845 622.814 549.842C627.332 554.837 626.02 564.96 625.958 571.286C627.193 571.995 627.958 572.422 628.541 573.782C633.603 568.67 639.684 561.385 647.558 561.263C649.323 561.236 650.932 561.716 652.226 562.956C654.349 564.989 655.647 569.211 655.604 572.148C655.531 577.138 650.738 581.446 647.336 584.602L643.125 588.461C643.248 588.523 643.369 588.59 643.495 588.646C643.996 588.868 644.403 588.965 644.926 589.091C645.836 589.309 646.623 589.547 647.173 590.374C647.521 590.898 647.628 591.456 647.761 592.056C653.877 592.689 663.173 592.227 667.511 597.291C668.905 598.917 669.764 601.026 669.533 603.189C669.284 605.506 667.807 607.582 665.985 608.963C661.105 612.664 653.771 612.119 648.023 611.846C646.406 613.702 644.146 614.214 641.882 614.92C646.748 619.985 654.913 627.722 654.823 635.308C654.793 637.84 653.635 639.99 651.804 641.691C650.118 643.258 648.194 643.915 645.905 643.803C644.206 643.721 642.623 643.195 641.002 642.729C639.334 643.092 637.393 642.971 635.891 642.084C634.639 641.346 632.141 638.968 630.702 639.253C628.556 639.679 627.897 639.441 625.988 638.451C625.994 640.092 626.421 645.384 625.731 646.618C625.692 649.117 625.309 651.609 623.923 653.744C622.082 656.578 619.293 657.629 616.149 658.31C613.923 657.784 612.016 656.916 610.404 655.246C605.025 649.676 606.716 638.18 606.927 630.975C604.341 634.535 595.327 642.736 591.238 643.459C590.515 643.587 589.743 643.503 589.032 643.352C587.685 644.056 586.231 644.637 584.696 644.718C581.706 644.876 578.469 643.599 576.307 641.548C574.499 639.834 573.56 637.564 573.589 635.079C573.668 628.549 580.608 622.285 585.003 618.045C581.763 617.729 579.658 616.641 577.142 614.677C574.891 614.812 573.659 614.661 571.674 613.552C569.186 613.114 566.753 612.185 564.822 610.521C562.712 608.704 561.446 606.177 561.315 603.386C561.209 601.112 561.908 599.021 563.473 597.351C569.101 591.344 582.943 591.793 590.464 591.663C584.956 586.677 574.324 579.857 573.836 571.747C573.657 568.767 574.717 565.682 576.763 563.494C578.389 561.756 580.574 560.755 582.965 560.779C590.703 560.857 598.312 568.801 603.326 573.919C603.633 571.322 602.769 568.476 603.515 565.991C603.979 564.444 604.891 563.909 606.259 563.229Z" fill="black"/>
<path d="M624.813 627.146C629.012 631.492 636.315 639.426 641.002 642.729C639.334 643.092 637.393 642.971 635.89 642.084C634.639 641.346 632.14 638.968 630.702 639.253C628.556 639.679 627.897 639.441 625.988 638.451C625.994 640.092 626.42 645.384 625.73 646.618C625.344 640.084 626.253 633.607 624.813 627.146Z" fill="#F15C8E"/>
<path d="M589.032 643.352C595.721 638.419 601.588 631.933 607.389 626.002C607.209 627.657 607.055 629.315 606.927 630.975C604.341 634.535 595.327 642.736 591.238 643.459C590.515 643.587 589.743 643.503 589.032 643.352Z" fill="#F15C8E"/>
<path d="M571.674 613.552C578.943 613.507 586.509 612.711 593.576 610.987C590.669 613.286 587.756 615.561 585.003 618.045C581.763 617.729 579.658 616.641 577.142 614.677C574.891 614.812 573.659 614.661 571.674 613.552Z" fill="#F15C8E"/>
<path d="M606.26 563.229C606.409 568.107 606.623 572.984 606.903 577.857C605.692 576.57 604.415 575.312 603.327 573.919C603.633 571.322 602.77 568.476 603.515 565.991C603.98 564.444 604.891 563.909 606.26 563.229Z" fill="#F15C8E"/>
<path d="M637.094 610.667C640.707 611.482 644.397 611.233 648.023 611.846C646.406 613.702 644.146 614.214 641.882 614.92C640.38 613.384 638.747 612.036 637.094 610.667Z" fill="#F15C8E"/>
<path d="M643.125 588.461C643.248 588.523 643.369 588.59 643.495 588.646C643.996 588.868 644.403 588.965 644.926 589.091C645.836 589.309 646.623 589.547 647.173 590.374C647.521 590.898 647.628 591.456 647.761 592.056L639.345 591.889C640.54 590.674 641.838 589.577 643.125 588.461Z" fill="#F15C8E"/>
<path d="M625.958 571.286C627.193 571.995 627.958 572.422 628.541 573.782L625.6 576.873L625.958 571.286Z" fill="#F15C8E"/>
<path d="M613.473 597.045C614.87 596.968 616.383 597.021 617.719 597.463C619.746 598.112 621.412 599.576 622.316 601.504C623.322 603.681 623.253 606.253 622.298 608.434C621.055 611.276 619.001 612.578 616.261 613.693C614.71 613.923 613.211 613.919 611.703 613.432C609.793 612.814 608.223 611.494 607.348 609.681C606.316 607.526 606.239 605.035 607.137 602.82C608.313 599.862 610.633 598.231 613.473 597.045Z" fill="#FFFB00"/>
<path d="M533.219 444.372C533.61 444.739 533.521 444.572 533.703 445.017C534.874 447.881 536.269 450.462 538.117 452.948C531.186 469.581 523.139 487.631 510.559 500.842C502.755 509.037 493.713 514.486 484.35 520.63C465.404 533.063 453.201 549.66 445.974 570.996C440.991 585.71 438.669 600.892 437.446 616.341C435.523 640.648 436.583 665.088 436.238 689.44L435.104 738.988C435.008 745.4 434.459 812.984 435.494 814.662C435.825 815.197 436.646 815.537 437.248 815.562C439.192 815.646 440.528 813.591 441.266 812.054C443.496 807.407 444.783 799.075 446.056 793.854C448.393 784.341 450.897 774.869 453.566 765.442C467.837 715.646 485.177 674.504 521.799 636.816C524.252 638.404 526.956 639.682 529.544 641.043C506.774 663.282 491.144 689.919 479.078 719.217C475.437 728.056 471.619 737.492 469.942 746.928C496.214 719.544 523.407 706.556 559.174 695.367C561.17 697.294 563.348 698.939 565.668 700.453C553.251 704.427 539.201 709.614 527.792 715.862C537.684 717.646 548.442 723.354 556.144 729.707C553.432 731.247 551.588 732.887 549.602 735.287C540.328 729.562 530.176 723.63 518.956 723.244C517.456 723.193 515.834 723.257 514.414 723.787C505.218 727.217 485.928 743.464 478.44 750.512C472.106 756.474 464.125 763.986 460.692 772.022C458.194 777.869 457.651 785.543 456.672 791.827C452.475 817.959 449.921 844.328 449.025 870.779C447.533 894.661 451.037 918.809 456.588 941.972L403.534 941.931C411.343 907.611 416.406 869.882 408.807 835.062C407.521 829.081 405.849 823.189 403.801 817.424C397.561 800.054 381.473 766.306 365.824 756.456C349.505 746.184 325.831 748.508 307.813 752.703C304.873 750.298 302.087 748.143 298.66 746.453C310.341 742.621 323.825 740.529 336.111 740.126C341.372 739.953 346.636 740.268 351.899 740.218C344.719 733.094 331.995 726.649 323.204 721.035C312.984 714.508 303.753 707.365 294.681 699.351L297.943 697.348C300.596 699.925 303.561 702.207 306.456 704.504C313.965 710.446 321.834 715.919 330.019 720.891C337.824 725.694 345.768 730.132 353.333 735.337C387.439 758.801 408.993 795.49 418.624 835.333C420.984 845.098 421.869 854.965 423.681 864.801C425.48 855.231 424.919 844.694 424.969 834.982L425.353 807.519C425.626 773.396 425.587 739.271 425.236 705.148C425.004 689.218 424.903 673.286 424.932 657.354C424.925 641.314 424.86 625.346 426.864 609.394C428.848 593.381 433.011 577.715 439.238 562.829C446.479 545.639 459.61 523.878 476.142 514.544C478.704 513.098 481.585 512.086 484.263 510.858C490.885 507.822 496.491 503.923 501.702 498.832C516.564 484.312 525.33 463.252 533.219 444.372Z" fill="#40A43D"/>
<path d="M342.385 633.146C347.079 634.054 362.645 648.018 366.785 652.107C382.13 667.264 394.088 683.95 402.982 703.629C404.493 706.974 406.745 710.904 407.267 714.56C408.01 719.764 407.28 725.55 407.261 730.838L407.283 767.379C403.157 760.122 398.001 753.526 392.605 747.184C373.591 725.314 351.995 715.16 328.732 699.397C322.226 694.989 316.252 690.208 310.231 685.162C310.698 684.341 311.153 683.514 311.597 682.681C317.281 671.925 317.491 659.401 313.918 647.975C325.031 645.671 334.2 641.041 342.385 633.146Z" fill="#D78BCD"/>
<path d="M582.318 716.164C584.148 715.85 586.022 715.892 587.836 716.288C599.741 718.849 595.52 733.496 599.504 739.163C601.592 742.135 605.839 741.864 609.057 742.358C611.769 742.774 614.493 744.11 616.09 746.399C618.407 749.721 618.519 754.684 617.817 758.566C615.75 769.984 609.394 768.071 602.506 772.997C599.371 775.24 599.545 777.757 598.912 781.194C598.142 785.38 594.94 789.498 591.432 791.786C586.855 794.771 582.115 795.296 576.847 794.136C576.154 793.917 575.477 793.672 574.819 793.357C568.537 790.347 567.68 785.702 565.476 779.879C563.079 773.544 557.174 774.687 551.984 772.266C548.322 770.557 545.339 767.527 544.03 763.668C542.814 760.081 542.817 755.51 544.534 752.077C546.017 749.11 548.667 747.934 551.641 746.937C554.257 748.486 556.978 749.871 560.125 749.446C561.952 749.2 563.89 748.382 565.32 747.214C572.454 741.387 563.786 729.447 570.051 721.578C573.089 717.762 577.767 716.79 582.318 716.164Z" fill="#FFEA00"/>
<path d="M575.281 749.264C577.418 749.178 579.191 749.372 581.101 750.413C583.218 751.578 584.743 753.584 585.301 755.935C585.9 758.453 585.411 761.107 583.956 763.247C582.146 765.938 579.661 767.005 576.606 767.61C574.412 767.64 572.566 767.527 570.595 766.419C568.454 765.215 566.935 763.279 566.309 760.901C565.701 758.602 566.057 756.154 567.294 754.124C569.099 751.16 572.044 749.966 575.281 749.264Z" fill="black"/>
<path d="M263.099 735.816C265.376 735.637 267.934 736.291 269.99 737.279C279.982 742.083 277.188 752.65 281.474 756.319C283.622 758.157 290.269 758.336 293.95 760.931C297.699 763.575 299.929 767.742 300.644 772.209C301.657 778.54 299.77 787.126 293.525 790.127C290.824 791.425 287.311 791.413 285.206 793.777C282.319 797.019 282.27 802.246 279.557 805.838C276.657 809.676 271.721 811.304 267.145 811.968C259.295 812.28 252.715 807.41 250.11 800.104C249.195 797.539 248.695 794.071 246.844 792.013C244.595 789.513 240.591 788.809 237.764 787.107C233.906 784.785 231.14 780.719 230.009 776.395C228.763 771.631 229.199 765.78 231.842 761.552C235.69 755.399 239.935 758.034 245.224 756.594C249.921 755.316 250.625 746.347 252.97 742.491C255.257 738.732 258.943 736.777 263.099 735.816Z" fill="#C9275E"/>
<path d="M260.27 767.668C262.296 767.532 264.235 767.822 266.118 768.608C268.596 769.643 270.647 771.636 271.561 774.181C272.385 776.451 272.249 778.958 271.184 781.126C269.771 783.934 267.345 785.128 264.49 786.013C262.093 786.191 259.942 785.986 257.774 784.861C255.311 783.616 253.487 781.389 252.751 778.729C252.136 776.463 252.373 773.901 253.626 771.888C255.189 769.375 257.539 768.388 260.27 767.668Z" fill="black"/>
<path d="M531.846 402.723L532.239 402.676C534.619 402.372 536.474 401.634 537.942 399.662C542.004 394.206 540.674 385.834 549.357 384.31C551.513 383.932 553.71 384.121 555.549 385.395C561.398 389.448 559.585 398.939 565.834 402.785C571.535 406.293 583.268 402.374 584.737 411.624C585.12 414.04 584.429 416.268 582.942 418.178C579.584 422.492 573.911 422.669 570.484 426.477C565.79 431.691 567.298 445.388 559.769 446.353C558.175 446.562 556.564 446.124 555.295 445.138C553.101 443.411 552.174 440.443 551.895 437.767C551.735 436.238 551.769 434.633 552.242 433.158C552.969 430.887 554.584 428.938 555.682 426.846C558 422.429 557.14 418.014 553.359 414.756C551.455 413.118 548.972 412.318 546.47 412.535C544.204 412.726 542.351 413.656 540.933 415.449C539.967 416.669 539.247 418.131 538.524 419.508C538.007 420.358 537.377 421.227 536.686 421.944C535.343 423.339 533.142 423.896 531.267 423.956C527.494 424.075 522.923 422.896 520.209 420.204C518.647 418.654 517.644 416.518 517.65 414.3C517.66 411.189 519.496 408.623 521.709 406.603C524.512 404.047 528.034 402.551 531.846 402.723Z" fill="#F15C8E"/>
<path d="M538.524 419.507C538.007 420.357 537.377 421.227 536.686 421.944C535.343 423.339 533.142 423.896 531.267 423.956C527.494 424.075 522.923 422.896 520.209 420.204C518.647 418.654 517.644 416.518 517.65 414.3C517.66 411.189 519.496 408.622 521.709 406.603C524.512 404.047 528.034 402.551 531.846 402.722C531.109 404.488 535.485 414.175 536.489 416.605C537.009 417.864 537.389 418.701 538.524 419.507Z" fill="#DA3E75"/>
<path d="M353.334 609.644C375.062 621.032 395.047 641.505 408.426 661.851C408.631 665.176 409.413 673.797 408.634 676.479L408.353 676.234C406.22 672.092 403.516 668.072 400.876 664.236C387.701 645.087 370.741 630.438 351.4 617.782C352.243 615.101 352.789 612.397 353.334 609.644Z" fill="#40A43D"/>
<path d="M543.746 651.686C544.205 652.369 543.497 659.548 543.474 660.968C543.358 667.788 545.343 674.802 547.612 681.171C536.636 683.48 524.577 689.215 514.254 693.57L510.945 695.123C520.425 677.014 529.102 665.896 543.746 651.686Z" fill="#D78BCD"/>
<path d="M500.772 424.368C501.807 425.326 502.713 427.172 503.537 428.379C507.128 433.643 510.165 436.305 515.793 439.299C513.179 445.198 510.378 451.025 507.726 456.909L507.523 457.074L507.183 456.906C505.246 448.574 498.991 439.861 493.352 433.602C496.133 430.734 498.465 427.616 500.772 424.368Z" fill="#D78BCD"/>
</g>
<defs>
<clipPath id="clip0_1_4387">
<rect width="640" height="640" fill="white" transform="translate(105 322)"/>
</clipPath>
</defs>
</svg>
