<svg width="849" height="1183" viewBox="0 0 849 1183" fill="none" xmlns="http://www.w3.org/2000/svg">
<rect x="5" y="5" width="839" height="1173" rx="45" fill="white"/>
<rect x="5" y="5" width="839" height="1173" rx="45" stroke="black" stroke-width="10"/>
<circle cx="786.5" cy="1124.5" r="11.5" fill="black"/>
<circle cx="786.5" cy="59.5" r="11.5" fill="black"/>
<path d="M77 1124.5C77 1130.85 71.8513 1136 65.5 1136C59.1487 1136 54 1130.85 54 1124.5C54 1118.15 59.1487 1113 65.5 1113C71.8513 1113 77 1118.15 77 1124.5Z" fill="black"/>
<path d="M77 59.5C77 65.8513 71.8513 71 65.5 71C59.1487 71 54 65.8513 54 59.5C54 53.1487 59.1487 48 65.5 48C71.8513 48 77 53.1487 77 59.5Z" fill="black"/>
<mask id="path-6-inside-1_1_1063" fill="white">
<path d="M708 48C713.523 48 717.934 52.4996 718.616 57.9801C723.122 94.1833 751.817 122.878 788.02 127.384C793.5 128.066 798 132.477 798 138V1046C798 1051.52 793.5 1055.93 788.02 1056.62C751.817 1061.12 723.122 1089.82 718.616 1126.02C717.934 1131.5 713.523 1136 708 1136H141C135.477 1136 131.066 1131.5 130.384 1126.02C125.878 1089.82 97.1833 1061.12 60.9801 1056.62C55.4996 1055.93 51 1051.52 51 1046V138C51 132.477 55.4996 128.066 60.9801 127.384C97.1833 122.878 125.878 94.1833 130.384 57.9801C131.066 52.4996 135.477 48 141 48H708Z"/>
</mask>
<path d="M708 48C713.523 48 717.934 52.4996 718.616 57.9801C723.122 94.1833 751.817 122.878 788.02 127.384C793.5 128.066 798 132.477 798 138V1046C798 1051.52 793.5 1055.93 788.02 1056.62C751.817 1061.12 723.122 1089.82 718.616 1126.02C717.934 1131.5 713.523 1136 708 1136H141C135.477 1136 131.066 1131.5 130.384 1126.02C125.878 1089.82 97.1833 1061.12 60.9801 1056.62C55.4996 1055.93 51 1051.52 51 1046V138C51 132.477 55.4996 128.066 60.9801 127.384C97.1833 122.878 125.878 94.1833 130.384 57.9801C131.066 52.4996 135.477 48 141 48H708Z" fill="#DBEE71"/>
<path d="M130.384 1126.02L138.322 1125.03L130.384 1126.02ZM718.616 1126.02L710.678 1125.03L718.616 1126.02ZM788.02 1056.62L789.008 1064.56L788.02 1056.62ZM718.616 57.9801L726.555 56.9922L718.616 57.9801ZM718.616 57.9801L710.678 58.9681C715.635 98.8063 747.194 130.365 787.032 135.322L788.02 127.384L789.008 119.445C756.44 115.392 730.608 89.5603 726.555 56.9922L718.616 57.9801ZM798 138H790V1046H798H806V138H798ZM788.02 1056.62L787.032 1048.68C747.194 1053.64 715.635 1085.19 710.678 1125.03L718.616 1126.02L726.555 1127.01C730.608 1094.44 756.44 1068.61 789.008 1064.56L788.02 1056.62ZM708 1136V1128H141V1136V1144H708V1136ZM130.384 1126.02L138.322 1125.03C133.365 1085.19 101.806 1053.64 61.9681 1048.68L60.9801 1056.62L59.9922 1064.56C92.5603 1068.61 118.392 1094.44 122.445 1127.01L130.384 1126.02ZM51 1046H59V138H51H43V1046H51ZM60.9801 127.384L61.9681 135.322C101.806 130.365 133.365 98.8063 138.322 58.9681L130.384 57.9801L122.445 56.9922C118.392 89.5603 92.5603 115.392 59.9922 119.445L60.9801 127.384ZM141 48V56H708V48V40H141V48ZM130.384 57.9801L138.322 58.9681C138.438 58.0389 138.872 57.2306 139.427 56.6958C139.954 56.1887 140.494 56 141 56V48V40C130.84 40 123.547 48.1329 122.445 56.9922L130.384 57.9801ZM51 138H59C59 137.494 59.1887 136.954 59.6958 136.427C60.2306 135.872 61.0389 135.438 61.9681 135.322L60.9801 127.384L59.9922 119.445C51.1329 120.547 43 127.84 43 138H51ZM60.9801 1056.62L61.9681 1048.68C61.0389 1048.56 60.2306 1048.13 59.6958 1047.57C59.1887 1047.05 59 1046.51 59 1046H51H43C43 1056.16 51.1329 1063.45 59.9922 1064.56L60.9801 1056.62ZM141 1136V1128C140.494 1128 139.954 1127.81 139.427 1127.3C138.872 1126.77 138.438 1125.96 138.322 1125.03L130.384 1126.02L122.445 1127.01C123.547 1135.87 130.84 1144 141 1144V1136ZM718.616 1126.02L710.678 1125.03C710.562 1125.96 710.128 1126.77 709.573 1127.3C709.046 1127.81 708.506 1128 708 1128V1136V1144C718.16 1144 725.453 1135.87 726.555 1127.01L718.616 1126.02ZM798 1046H790C790 1046.51 789.811 1047.05 789.304 1047.57C788.769 1048.13 787.961 1048.56 787.032 1048.68L788.02 1056.62L789.008 1064.56C797.867 1063.45 806 1056.16 806 1046H798ZM788.02 127.384L787.032 135.322C787.961 135.438 788.769 135.872 789.304 136.427C789.811 136.954 790 137.494 790 138H798H806C806 127.84 797.867 120.547 789.008 119.445L788.02 127.384ZM718.616 57.9801L726.555 56.9922C725.453 48.1329 718.16 40 708 40V48V56C708.506 56 709.046 56.1887 709.573 56.6958C710.128 57.2306 710.562 58.0389 710.678 58.9681L718.616 57.9801Z" fill="black" mask="url(#path-6-inside-1_1_1063)"/>
<path d="M690 102C695.523 102 699.911 106.512 700.837 111.957C705.019 136.563 724.437 155.981 749.043 160.163C754.488 161.089 759 165.477 759 171V1014C759 1019.52 754.488 1023.91 749.043 1024.84C724.711 1028.97 705.454 1048 700.984 1072.22C699.993 1077.59 695.633 1082 690.175 1082H158.825C153.367 1082 149.007 1077.59 148.016 1072.22C143.546 1048 124.288 1028.97 99.9568 1024.84C94.5121 1023.91 90 1019.52 90 1014V171C90 165.477 94.512 161.089 99.9568 160.163C124.563 155.981 143.981 136.563 148.163 111.957C149.089 106.512 153.477 102 159 102H690Z" fill="#DFE4C2"/>
<path d="M357.81 272.735C349.2 272.735 342.13 270.705 336.6 266.645C331.07 262.515 328.095 256.635 327.675 249.005H349.62C349.83 251.595 350.6 253.485 351.93 254.675C353.26 255.865 354.975 256.46 357.075 256.46C358.965 256.46 360.505 256.005 361.695 255.095C362.955 254.115 363.585 252.785 363.585 251.105C363.585 248.935 362.57 247.255 360.54 246.065C358.51 244.875 355.22 243.545 350.67 242.075C345.84 240.465 341.92 238.925 338.91 237.455C335.97 235.915 333.38 233.71 331.14 230.84C328.97 227.9 327.885 224.085 327.885 219.395C327.885 214.635 329.075 210.575 331.455 207.215C333.835 203.785 337.125 201.195 341.325 199.445C345.525 197.695 350.285 196.82 355.605 196.82C364.215 196.82 371.075 198.85 376.185 202.91C381.365 206.9 384.13 212.535 384.48 219.815H362.115C362.045 217.575 361.345 215.895 360.015 214.775C358.755 213.655 357.11 213.095 355.08 213.095C353.54 213.095 352.28 213.55 351.3 214.46C350.32 215.37 349.83 216.665 349.83 218.345C349.83 219.745 350.355 220.97 351.405 222.02C352.525 223 353.89 223.875 355.5 224.645C357.11 225.345 359.49 226.255 362.64 227.375C367.33 228.985 371.18 230.595 374.19 232.205C377.27 233.745 379.895 235.95 382.065 238.82C384.305 241.62 385.425 245.19 385.425 249.53C385.425 253.94 384.305 257.895 382.065 261.395C379.895 264.895 376.71 267.66 372.51 269.69C368.38 271.72 363.48 272.735 357.81 272.735ZM431.847 272L415.572 247.85V272H394.992V194.3H415.572V236.195L431.847 213.095H456.522L433.317 242.705L456.942 272H431.847ZM526.396 213.095L489.016 300.035H466.651L480.721 269.48L456.571 213.095H479.461L491.851 246.485L503.821 213.095H526.396Z" fill="black"/>
<mask id="path-10-outside-2_1_1063" maskUnits="userSpaceOnUse" x="402" y="1006" width="44" height="32" fill="black">
<rect fill="white" x="402" y="1006" width="44" height="32"/>
<path d="M403.32 1015.04C403.48 1012.56 404.427 1010.63 406.16 1009.24C407.92 1007.85 410.16 1007.16 412.88 1007.16C414.747 1007.16 416.36 1007.49 417.72 1008.16C419.08 1008.83 420.107 1009.73 420.8 1010.88C421.493 1012.03 421.84 1013.32 421.84 1014.76C421.84 1016.41 421.4 1017.83 420.52 1019C419.64 1020.17 418.587 1020.96 417.36 1021.36V1021.52C418.933 1022 420.16 1022.88 421.04 1024.16C421.92 1025.41 422.36 1027.03 422.36 1029C422.36 1030.57 422 1031.97 421.28 1033.2C420.56 1034.43 419.493 1035.4 418.08 1036.12C416.667 1036.81 414.973 1037.16 413 1037.16C410.12 1037.16 407.747 1036.43 405.88 1034.96C404.04 1033.47 403.053 1031.33 402.92 1028.56H407.32C407.427 1029.97 407.973 1031.13 408.96 1032.04C409.947 1032.92 411.28 1033.36 412.96 1033.36C414.587 1033.36 415.84 1032.92 416.72 1032.04C417.6 1031.13 418.04 1029.97 418.04 1028.56C418.04 1026.69 417.44 1025.37 416.24 1024.6C415.067 1023.8 413.253 1023.4 410.8 1023.4H409.76V1019.64H410.84C413 1019.61 414.64 1019.25 415.76 1018.56C416.907 1017.87 417.48 1016.77 417.48 1015.28C417.48 1014 417.067 1012.99 416.24 1012.24C415.413 1011.47 414.24 1011.08 412.72 1011.08C411.227 1011.08 410.067 1011.47 409.24 1012.24C408.413 1012.99 407.92 1013.92 407.76 1015.04H403.32ZM445.63 1011.36L434.51 1037H429.91L441.15 1011.84H426.35V1007.96H445.63V1011.36Z"/>
</mask>
<path d="M403.32 1015.04C403.48 1012.56 404.427 1010.63 406.16 1009.24C407.92 1007.85 410.16 1007.16 412.88 1007.16C414.747 1007.16 416.36 1007.49 417.72 1008.16C419.08 1008.83 420.107 1009.73 420.8 1010.88C421.493 1012.03 421.84 1013.32 421.84 1014.76C421.84 1016.41 421.4 1017.83 420.52 1019C419.64 1020.17 418.587 1020.96 417.36 1021.36V1021.52C418.933 1022 420.16 1022.88 421.04 1024.16C421.92 1025.41 422.36 1027.03 422.36 1029C422.36 1030.57 422 1031.97 421.28 1033.2C420.56 1034.43 419.493 1035.4 418.08 1036.12C416.667 1036.81 414.973 1037.16 413 1037.16C410.12 1037.16 407.747 1036.43 405.88 1034.96C404.04 1033.47 403.053 1031.33 402.92 1028.56H407.32C407.427 1029.97 407.973 1031.13 408.96 1032.04C409.947 1032.92 411.28 1033.36 412.96 1033.36C414.587 1033.36 415.84 1032.92 416.72 1032.04C417.6 1031.13 418.04 1029.97 418.04 1028.56C418.04 1026.69 417.44 1025.37 416.24 1024.6C415.067 1023.8 413.253 1023.4 410.8 1023.4H409.76V1019.64H410.84C413 1019.61 414.64 1019.25 415.76 1018.56C416.907 1017.87 417.48 1016.77 417.48 1015.28C417.48 1014 417.067 1012.99 416.24 1012.24C415.413 1011.47 414.24 1011.08 412.72 1011.08C411.227 1011.08 410.067 1011.47 409.24 1012.24C408.413 1012.99 407.92 1013.92 407.76 1015.04H403.32ZM445.63 1011.36L434.51 1037H429.91L441.15 1011.84H426.35V1007.96H445.63V1011.36Z" fill="black"/>
<path d="M403.32 1015.04L403.021 1015.02L403 1015.34H403.32V1015.04ZM406.16 1009.24L405.974 1009L405.973 1009.01L406.16 1009.24ZM417.72 1008.16L417.588 1008.43L417.72 1008.16ZM420.8 1010.88L421.057 1010.72L420.8 1010.88ZM420.52 1019L420.76 1019.18V1019.18L420.52 1019ZM417.36 1021.36L417.267 1021.07L417.06 1021.14V1021.36H417.36ZM417.36 1021.52H417.06V1021.74L417.272 1021.81L417.36 1021.52ZM421.04 1024.16L420.793 1024.33L420.794 1024.33L421.04 1024.16ZM421.28 1033.2L421.021 1033.05L421.28 1033.2ZM418.08 1036.12L418.212 1036.39L418.216 1036.39L418.08 1036.12ZM405.88 1034.96L405.691 1035.19L405.695 1035.2L405.88 1034.96ZM402.92 1028.56V1028.26H402.605L402.62 1028.57L402.92 1028.56ZM407.32 1028.56L407.619 1028.54L407.598 1028.26H407.32V1028.56ZM408.96 1032.04L408.757 1032.26L408.76 1032.26L408.96 1032.04ZM416.72 1032.04L416.932 1032.25L416.935 1032.25L416.72 1032.04ZM416.24 1024.6L416.071 1024.85L416.077 1024.85L416.24 1024.6ZM409.76 1023.4H409.46V1023.7H409.76V1023.4ZM409.76 1019.64V1019.34H409.46V1019.64H409.76ZM410.84 1019.64V1019.94L410.844 1019.94L410.84 1019.64ZM415.76 1018.56L415.605 1018.3L415.602 1018.3L415.76 1018.56ZM416.24 1012.24L416.035 1012.46L416.039 1012.46L416.24 1012.24ZM409.24 1012.24L409.441 1012.46L409.445 1012.46L409.24 1012.24ZM407.76 1015.04V1015.34H408.02L408.057 1015.08L407.76 1015.04ZM403.32 1015.04L403.619 1015.06C403.775 1012.65 404.688 1010.8 406.347 1009.47L406.16 1009.24L405.973 1009.01C404.165 1010.45 403.185 1012.47 403.021 1015.02L403.32 1015.04ZM406.16 1009.24L406.346 1009.48C408.042 1008.14 410.213 1007.46 412.88 1007.46V1007.16V1006.86C410.108 1006.86 407.798 1007.57 405.974 1009L406.16 1009.24ZM412.88 1007.16V1007.46C414.711 1007.46 416.277 1007.79 417.588 1008.43L417.72 1008.16L417.852 1007.89C416.443 1007.2 414.782 1006.86 412.88 1006.86V1007.16ZM417.72 1008.16L417.588 1008.43C418.903 1009.07 419.883 1009.94 420.543 1011.04L420.8 1010.88L421.057 1010.72C420.33 1009.52 419.257 1008.58 417.852 1007.89L417.72 1008.16ZM420.8 1010.88L420.543 1011.04C421.206 1012.13 421.54 1013.37 421.54 1014.76H421.84H422.14C422.14 1013.27 421.78 1011.92 421.057 1010.72L420.8 1010.88ZM421.84 1014.76H421.54C421.54 1016.36 421.116 1017.71 420.28 1018.82L420.52 1019L420.76 1019.18C421.684 1017.95 422.14 1016.47 422.14 1014.76H421.84ZM420.52 1019L420.28 1018.82C419.432 1019.95 418.427 1020.7 417.267 1021.07L417.36 1021.36L417.453 1021.65C418.746 1021.22 419.848 1020.4 420.76 1019.18L420.52 1019ZM417.36 1021.36H417.06V1021.52H417.36H417.66V1021.36H417.36ZM417.36 1021.52L417.272 1021.81C418.785 1022.27 419.954 1023.11 420.793 1024.33L421.04 1024.16L421.287 1023.99C420.366 1022.65 419.082 1021.73 417.448 1021.23L417.36 1021.52ZM421.04 1024.16L420.794 1024.33C421.63 1025.52 422.06 1027.07 422.06 1029H422.36H422.66C422.66 1026.98 422.21 1025.3 421.286 1023.99L421.04 1024.16ZM422.36 1029H422.06C422.06 1030.53 421.711 1031.87 421.021 1033.05L421.28 1033.2L421.539 1033.35C422.289 1032.07 422.66 1030.62 422.66 1029H422.36ZM421.28 1033.2L421.021 1033.05C420.334 1034.22 419.312 1035.16 417.944 1035.85L418.08 1036.12L418.216 1036.39C419.674 1035.64 420.786 1034.63 421.539 1033.35L421.28 1033.2ZM418.08 1036.12L417.948 1035.85C416.585 1036.52 414.939 1036.86 413 1036.86V1037.16V1037.46C415.008 1037.46 416.749 1037.11 418.212 1036.39L418.08 1036.12ZM413 1037.16V1036.86C410.172 1036.86 407.869 1036.14 406.065 1034.72L405.88 1034.96L405.695 1035.2C407.625 1036.71 410.068 1037.46 413 1037.46V1037.16ZM405.88 1034.96L406.069 1034.73C404.307 1033.3 403.35 1031.25 403.22 1028.55L402.92 1028.56L402.62 1028.57C402.757 1031.42 403.773 1033.64 405.691 1035.19L405.88 1034.96ZM402.92 1028.56V1028.86H407.32V1028.56V1028.26H402.92V1028.56ZM407.32 1028.56L407.021 1028.58C407.133 1030.07 407.711 1031.3 408.757 1032.26L408.96 1032.04L409.163 1031.82C408.236 1030.97 407.72 1029.88 407.619 1028.54L407.32 1028.56ZM408.96 1032.04L408.76 1032.26C409.816 1033.21 411.227 1033.66 412.96 1033.66V1033.36V1033.06C411.333 1033.06 410.078 1032.63 409.16 1031.82L408.96 1032.04ZM412.96 1033.36V1033.66C414.641 1033.66 415.98 1033.2 416.932 1032.25L416.72 1032.04L416.508 1031.83C415.7 1032.64 414.533 1033.06 412.96 1033.06V1033.36ZM416.72 1032.04L416.935 1032.25C417.876 1031.28 418.34 1030.04 418.34 1028.56H418.04H417.74C417.74 1029.91 417.324 1030.99 416.505 1031.83L416.72 1032.04ZM418.04 1028.56H418.34C418.34 1026.63 417.714 1025.19 416.403 1024.35L416.24 1024.6L416.077 1024.85C417.166 1025.55 417.74 1026.76 417.74 1028.56H418.04ZM416.24 1024.6L416.409 1024.35C415.161 1023.5 413.275 1023.1 410.8 1023.1V1023.4V1023.7C413.232 1023.7 414.972 1024.1 416.071 1024.85L416.24 1024.6ZM410.8 1023.4V1023.1H409.76V1023.4V1023.7H410.8V1023.4ZM409.76 1023.4H410.06V1019.64H409.76H409.46V1023.4H409.76ZM409.76 1019.64V1019.94H410.84V1019.64V1019.34H409.76V1019.64ZM410.84 1019.64L410.844 1019.94C413.027 1019.91 414.731 1019.55 415.918 1018.82L415.76 1018.56L415.602 1018.3C414.549 1018.96 412.973 1019.31 410.836 1019.34L410.84 1019.64ZM415.76 1018.56L415.915 1018.82C417.163 1018.06 417.78 1016.86 417.78 1015.28H417.48H417.18C417.18 1016.68 416.65 1017.67 415.605 1018.3L415.76 1018.56ZM417.48 1015.28H417.78C417.78 1013.93 417.34 1012.83 416.441 1012.02L416.24 1012.24L416.039 1012.46C416.793 1013.14 417.18 1014.07 417.18 1015.28H417.48ZM416.24 1012.24L416.445 1012.02C415.546 1011.18 414.289 1010.78 412.72 1010.78V1011.08V1011.38C414.191 1011.38 415.281 1011.75 416.035 1012.46L416.24 1012.24ZM412.72 1011.08V1010.78C411.176 1010.78 409.933 1011.18 409.035 1012.02L409.24 1012.24L409.445 1012.46C410.2 1011.75 411.278 1011.38 412.72 1011.38V1011.08ZM409.24 1012.24L409.039 1012.02C408.159 1012.81 407.633 1013.81 407.463 1015L407.76 1015.04L408.057 1015.08C408.207 1014.03 408.667 1013.16 409.441 1012.46L409.24 1012.24ZM407.76 1015.04V1014.74H403.32V1015.04V1015.34H407.76V1015.04ZM445.63 1011.36L445.905 1011.48L445.93 1011.42V1011.36H445.63ZM434.51 1037V1037.3H434.707L434.785 1037.12L434.51 1037ZM429.91 1037L429.636 1036.88L429.447 1037.3H429.91V1037ZM441.15 1011.84L441.424 1011.96L441.613 1011.54H441.15V1011.84ZM426.35 1011.84H426.05V1012.14H426.35V1011.84ZM426.35 1007.96V1007.66H426.05V1007.96H426.35ZM445.63 1007.96H445.93V1007.66H445.63V1007.96ZM445.63 1011.36L445.355 1011.24L434.235 1036.88L434.51 1037L434.785 1037.12L445.905 1011.48L445.63 1011.36ZM434.51 1037V1036.7H429.91V1037V1037.3H434.51V1037ZM429.91 1037L430.184 1037.12L441.424 1011.96L441.15 1011.84L440.876 1011.72L429.636 1036.88L429.91 1037ZM441.15 1011.84V1011.54H426.35V1011.84V1012.14H441.15V1011.84ZM426.35 1011.84H426.65V1007.96H426.35H426.05V1011.84H426.35ZM426.35 1007.96V1008.26H445.63V1007.96V1007.66H426.35V1007.96ZM445.63 1007.96H445.33V1011.36H445.63H445.93V1007.96H445.63Z" fill="black" mask="url(#path-10-outside-2_1_1063)"/>
<path d="M129 375.103C129 359.582 141.582 347 157.103 347H159.867H686.946H690.384C706.188 347 719 359.812 719 375.616V908.959C719 924.444 706.447 936.997 690.962 936.997H687.747H159.703H158.556C142.233 936.997 129 923.764 129 907.441V375.103Z" fill="black"/>
<path d="M166.517 360.376C168.171 360.227 169.898 360.253 171.561 360.242L511.87 360.24L627.427 360.241L664.044 360.242C670.703 360.243 677.601 359.895 684.235 360.413C689.753 360.844 695.258 362.431 699.254 366.444C706.704 373.926 705.759 384.975 705.753 394.677L705.736 412.149C702.512 410.488 699.281 408.934 695.804 407.873C681.81 403.598 667.298 406.074 654.601 412.96C635.777 423.168 623.199 441.51 617.217 461.721C614.258 460.876 610.994 460.35 607.935 460.097C596.237 459.13 585.087 463.362 574.488 467.756C570.272 469.504 566.066 471.403 561.598 472.417C553.048 474.358 543.662 473.4 534.929 474.36C526.416 475.296 518.232 477.818 509.84 479.41C504.23 480.474 498.468 480.651 492.904 481.686C491.705 481.908 490.493 482.298 489.58 483.139C488.793 483.865 488.363 484.859 488.339 485.926C488.322 487.217 488.834 488.46 489.757 489.362C490.63 490.21 491.671 490.601 492.851 490.806C496.416 491.425 500.295 490.897 503.916 491.039C509.093 491.242 514.313 491.795 519.473 492.261C530.81 493.282 542.631 494.099 553.809 496.273C557.45 496.982 561.068 498.178 564.653 499.152C569.382 500.455 574.184 501.477 579.034 502.211C585.22 503.063 591.441 503.629 597.68 503.906C603.176 504.176 608.781 504.219 614.214 505.14C619.427 506.023 624.588 507.663 629.741 508.872C636.284 510.376 642.919 511.45 649.603 512.087C668.187 513.971 687.071 513.947 705.736 513.706L705.73 631.367C691.409 625.712 676.749 625.818 662.454 631.389C661.022 623.501 658.083 615.963 653.798 609.187C644.499 594.426 629.672 584.008 612.634 580.261C596.182 576.703 578.991 579.843 564.86 588.987C548.53 599.442 539.297 616.1 535.287 634.683C524.665 629.555 512.868 628.579 501.468 631.535C484.496 635.935 470.328 648.407 461.617 663.326C458.032 662.452 454.48 661.898 450.791 661.706C432.092 660.73 414.48 668.062 396.324 671.106C383.229 673.3 369.42 673.022 356.16 673.383C351.223 673.529 346.284 673.624 341.345 673.67C339.039 673.682 336.377 673.329 334.122 673.663C333.02 673.826 331.929 674.299 331.131 675.089C330.368 675.844 329.912 676.851 329.957 677.932C330.009 679.2 330.772 680.502 331.723 681.316C332.335 681.84 333.058 682.136 333.848 682.26C336.751 682.714 339.916 682.626 342.857 682.765C347.579 683.008 352.296 683.341 357.006 683.764L416.423 689.435C420.662 689.821 424.409 691.877 428.294 693.444C431.395 694.711 434.562 695.807 437.782 696.727C452.621 700.928 468.04 703.445 483.349 705.143C498.124 706.784 512.957 707.855 527.814 708.353C536.293 708.687 544.796 709.097 553.279 708.68C566.413 708.034 579.509 705.159 592.631 705.124C597.655 705.111 602.736 705.69 607.744 706.053C613.844 706.479 619.952 706.783 626.064 706.966C641.514 707.396 656.972 707.496 672.426 707.264C683.528 707.234 694.628 706.975 705.719 706.485L705.73 815.423C700.946 812.581 696.024 810.282 690.647 808.799C675.641 804.662 660.496 807.839 647.143 815.463C639.391 801.431 625.539 790.693 610.574 785.31C593.61 779.209 575.562 780.383 559.319 788.111C541.221 796.722 528.914 811.28 522.296 830.024C516.313 828.016 510.165 826.536 503.923 825.602C487.842 823.266 472.507 826.41 458.009 833.57C453.441 835.826 448.853 838.958 443.849 840.131C436.442 841.868 429.528 840.594 422.73 841.738C421.475 841.95 420.135 842.377 419.131 843.183C418.239 843.901 417.911 844.771 417.82 845.9C417.732 846.984 417.984 848.016 418.744 848.826C421.938 852.233 438.307 852.982 443.677 854.358C447.519 855.342 450.745 857.674 454.341 859.268C462.828 863.031 471.844 866.417 480.967 868.219C495.065 871.004 509.391 871.568 523.7 872.337C535.744 872.983 547.654 873.794 559.722 873.591C567.665 873.457 575.541 871.989 583.507 872.197C594.972 872.495 606.45 874.687 617.91 875.464C639.893 876.955 661.756 877.127 683.772 877.072C691.059 877.06 698.468 876.685 705.736 876.168L705.742 893.336C702.317 892.497 698.583 892.178 695.061 892.097C682.595 891.81 669.738 895.785 660.655 904.496C660.158 904.356 659.658 904.227 659.156 904.107C652.142 902.425 646.525 903.35 640.386 907.122C638.602 905.641 636.642 904.386 634.551 903.384C624.869 898.791 615.179 901.034 605.573 904.502C601.971 898.24 597.092 893.058 591.227 888.867C578.872 880.037 563.026 876.005 548.004 878.531C530.598 881.458 516.11 891.709 506.023 905.966C488.156 902.393 469.658 908.997 451.926 910.773C446.833 911.256 441.721 911.525 436.606 911.579C433.244 911.609 429.804 911.431 426.452 911.667C425.344 911.746 424.42 912.09 423.716 912.987C423.129 913.735 422.819 914.672 422.952 915.622C423.403 918.842 428.205 921.611 430.673 923.407C422.726 923.108 414.705 923.303 406.749 923.303H363.117H232.567L185.816 923.309C177.485 923.309 168.54 923.931 160.284 922.911C155.936 922.373 152.05 920.542 148.935 917.444C145.626 914.155 143.724 909.87 142.918 905.312C141.994 900.094 142.225 894.652 142.226 889.369L142.241 870.073L142.236 799.751C160.413 800.516 178.506 801.193 196.702 801.284C207.384 801.337 218.116 801.336 228.774 800.57C235.977 800.052 243.269 799.297 250.37 797.962C254.952 797.101 259.744 795.385 264.401 795.213C269.894 795.01 278.639 797.428 284.771 798.046C298.38 799.418 312.31 799.631 325.975 799.185C346.912 798.501 367.703 796.766 388.134 791.905C394.111 790.437 400.044 788.795 405.926 786.984C409.358 785.948 412.955 784.578 416.491 783.988C420.235 783.363 424.403 783.771 428.21 783.814C433.896 783.878 439.475 783.714 445.118 782.936C455.629 781.485 465.932 778.997 476.305 776.828C480.04 776.047 484.203 775.755 487.787 774.451C488.786 774.088 489.566 773.544 490.176 772.668C490.894 771.636 491.088 770.384 490.812 769.169C490.564 768.078 489.825 767.013 488.84 766.46C487.006 765.429 470.031 765.785 465.895 765.455C455.449 764.623 445.005 763.001 434.668 761.302C426.671 759.986 418.622 758.41 410.51 758.065C404.202 757.798 398.379 758.423 392.33 760.217C391.939 759.152 391.444 758.113 390.965 757.085C384.154 742.472 371.463 729.676 356.167 724.148C341.74 718.935 327.939 721.128 314.367 727.557C312.886 718.86 310.342 710.883 305.832 703.24C297.008 688.288 282.959 676.515 265.965 672.226C250.184 668.245 233.704 671.176 219.793 679.499C201.035 690.722 191.684 708.168 186.587 728.786C172.626 722.268 156.459 723.387 142.244 728.462L142.236 582.386C169.372 583.025 196.522 582.794 223.644 581.692C230.418 581.362 237.177 580.772 243.906 579.924C248.479 579.343 253.238 578.295 257.858 578.383C263.403 578.49 268.944 580.106 274.327 581.297C278.817 582.294 283.358 583.042 287.929 583.54C312.587 586.232 338.216 584.715 362.812 582.039C377.555 580.435 392.6 577.822 406.71 573.167C409.491 572.243 412.235 571.207 414.933 570.063C418.636 568.458 424.262 565.069 428.121 564.645C431.561 564.267 435.205 564.374 438.675 564.285C444.901 564.152 451.124 563.939 457.344 563.645C473.025 562.906 488.607 561.271 504.203 559.534C510.948 558.782 517.896 558.39 524.579 557.258C526.201 556.983 528.552 556.532 529.51 555.065C530.133 554.112 530.629 552.926 530.262 551.78C529.948 550.802 529.113 550.054 528.256 549.548C527.244 548.95 526.027 548.592 524.869 548.43C522.892 548.154 520.803 548.253 518.801 548.118C514.683 547.829 510.574 547.43 506.477 546.922C499.212 546.069 491.968 545.046 484.75 543.854C478.883 542.888 472.941 541.669 467.006 541.224C459.962 540.695 452.819 541.711 445.829 540.949C440.706 540.391 436.183 537.764 431.428 535.966C424.11 533.121 416.439 531.284 408.625 530.506C400.24 529.699 392.6 530.572 384.536 532.809C377.45 521.204 368.11 512.234 355.76 506.366C339.018 498.411 323.687 498.933 306.56 504.979C299.796 486.355 290.901 472.231 273.194 462.12C257.949 453.414 240.377 450.801 223.409 455.453C201.889 461.352 187.431 474.47 176.549 493.529C165.475 487.752 154.376 487.717 142.258 489.52C141.883 466.299 142.246 443.02 142.235 419.792L142.218 397.33C142.216 391.485 141.941 385.396 142.897 379.613C143.605 375.329 145.316 371.178 148.15 367.858C152.979 362.203 159.437 360.917 166.517 360.376Z" fill="url(#paint0_linear_1_1063)"/>
<path d="M281.93 384.441C288.264 384.057 288.945 394.848 292.954 399.129C296.887 403.329 305.479 401.827 309.432 405.541C310.06 406.131 310.52 406.924 310.481 407.811C310.302 411.877 297.844 412.963 294.564 414.977C288.586 418.647 290.101 426.876 285.418 431.335C284.814 431.502 284.178 431.675 283.545 431.683C278.939 431.74 277.989 419.378 275.116 416.317C271.33 412.282 260.374 412.867 257.672 409.347C257.222 408.762 256.933 408.151 257.06 407.394C257.797 403.001 270.042 402.553 273.561 400.287C279.343 396.564 277.146 388.681 281.93 384.441Z" fill="black"/>
<path d="M283.379 399.372C287.01 404.456 285.722 404.533 291.97 407.71C287.86 409.563 285.642 411.538 283.652 415.61L283.305 415.822C281.715 411.559 278.93 409.904 275.257 407.689C279.814 405.377 281.349 404.105 283.379 399.372Z" fill="#FEFEFE"/>
<path d="M328.952 611.19C334.748 611.568 334.296 620.005 338.104 624.065C341.557 627.746 348.814 626.828 351.599 630.236C352.188 630.953 352.435 631.892 352.274 632.805C351.526 636.828 341.644 637.473 338.554 639.986C334.207 643.522 335.298 650.633 330.735 653.72C330.183 653.761 329.61 653.788 329.061 653.699C325.559 653.134 324.41 643.727 321.906 640.852C318.499 636.941 310.431 637.582 307.897 633.996C307.343 633.212 307.122 632.123 307.443 631.201C308.694 627.612 317.868 627.289 320.847 624.653C324.934 621.036 324.132 613.556 328.952 611.19Z" fill="black"/>
<path d="M329.611 625.796C330.44 627.039 330.884 628.373 331.951 629.467C332.048 629.566 332.149 629.661 332.247 629.759C333.509 631.029 335.176 631.761 336.752 632.573C333.064 634.268 331.599 635.399 329.749 639.07C327.707 635.672 326.167 634.317 322.6 632.555C326.028 630.523 327.898 629.51 329.611 625.796Z" fill="#FEFEFE"/>
<path d="M569.8 401.45C570.389 401.438 571.07 401.383 571.647 401.488C574.559 402.015 576.038 409.229 577.964 411.439C580.747 414.633 586.104 414.379 588.145 417.205C588.673 417.935 588.844 418.868 588.66 419.744C587.91 423.32 581.004 423.485 578.556 425.839C575.24 429.026 575.762 434.746 571.996 437.323C565.895 437.781 566.96 429.112 563.106 425.852C560.546 423.688 556.789 423.572 554.324 421.434C553.534 420.749 553.043 419.822 553.091 418.751C553.258 414.963 560.049 414.506 562.472 412.622C566.301 409.643 566.094 404.354 569.8 401.45Z" fill="black"/>
<path d="M570.589 415.199C571.003 415.608 571.23 416.205 571.596 416.664C572.175 417.392 572.966 418.041 573.604 418.734C573.82 420.021 571.559 421.509 570.847 422.755C570.787 422.858 570.731 422.964 570.673 423.067C569.506 421.09 568.652 420.269 566.578 419.227C568.561 418.056 569.496 417.274 570.589 415.199Z" fill="#FEFEFE"/>
<path d="M618.951 721.216C625.587 721.133 623.215 729.251 627.081 732.581C629.619 734.767 633.726 734.554 636.112 736.81C636.805 737.465 637.176 738.31 637.148 739.272C637.031 743.249 629.909 743.485 627.483 745.732C624.074 748.892 624.852 754.217 621.422 757.201C620.749 757.215 619.959 757.281 619.29 757.185C616.32 756.765 615.151 748.979 613.347 746.666C611.044 743.712 605.271 743.773 603.584 740.741C603.093 739.858 602.959 738.764 603.278 737.79C604.245 734.844 611 734.291 613.345 731.842C616.262 728.795 614.897 723.47 618.951 721.216Z" fill="black"/>
<path d="M619.792 735.913C619.903 736.072 620.097 736.342 620.174 736.5C620.549 737.256 620.611 737.49 621.302 738.05C621.777 738.435 622.088 738.687 622.388 739.237C622.171 739.459 621.959 739.687 621.732 739.898C620.908 740.661 620.586 741.013 620.162 742.105C620.121 742.21 620.083 742.316 620.044 742.421C619.363 741.221 618.407 740.215 617.348 739.333C617.264 739.262 617.169 739.204 617.078 739.14C618.254 738.683 619.185 737.283 619.682 736.172C619.72 736.086 619.756 736 619.792 735.913Z" fill="#FEFEFE"/>
<path d="M629.047 538.568C629.327 538.565 629.607 538.566 629.888 538.571C634.421 538.673 634.392 545.417 636.573 548.423C638.887 551.614 643.816 551.044 646.219 553.815C646.787 554.47 647.09 555.396 646.914 556.259C646.167 559.934 639.901 559.947 637.451 562.241C634.113 565.366 634.83 570.871 631.059 573.335C630.51 573.377 629.932 573.434 629.383 573.382C626.372 573.096 625.194 565.879 623.598 563.568C621.278 560.207 616.013 560.757 613.936 557.633C613.427 556.869 613.339 555.884 613.548 555.006C614.256 552.027 620.924 551.166 623.242 548.989C626.338 546.082 625.201 540.981 629.047 538.568Z" fill="black"/>
<path d="M630.076 552.308C630.938 553.883 631.678 554.874 633.219 555.845C631.972 556.875 630.958 557.784 630.025 559.121C629.027 557.551 628.21 556.834 626.537 555.985C628.219 554.947 629.085 554.035 630.076 552.308Z" fill="#FEFEFE"/>
<path d="M463.739 451.557C464.191 451.562 464.624 451.57 465.067 451.673C468.939 452.572 469.311 459.935 472.868 462.202C475.034 463.582 479.269 464.293 480.513 466.671C480.889 467.39 480.964 468.811 480.602 469.581C479.406 472.124 473.828 473.077 471.662 475.148C468.83 477.855 469.183 482.553 465.252 484.222C460.086 483.89 460.29 477.442 456.89 474.607C454.669 472.757 451.075 472.495 449.167 470.322C448.471 469.529 448.179 468.459 448.374 467.422C449.069 463.891 456.199 463.313 458.444 460.374C460.676 457.454 460.318 453.678 463.739 451.557Z" fill="black"/>
<path d="M464.631 465.066C464.647 465.08 464.667 465.092 464.68 465.11C465.354 465.963 466.282 466.706 466.849 467.602C467.134 468.05 466.98 468.167 466.867 468.65C466.067 469.38 465.398 470.152 464.722 470.997C463.783 469.947 462.946 469.052 461.739 468.291C462.873 467.276 463.793 466.36 464.631 465.066Z" fill="#FEFEFE"/>
<path d="M196.339 810.786C196.886 810.773 197.462 810.746 198.005 810.821C201.053 811.245 201.887 817.384 203.332 819.603C205.117 822.346 209.293 821.891 210.969 824.478C211.385 825.12 211.506 825.978 211.36 826.724C210.721 829.985 204.991 830.573 203.045 833.343C201.207 835.959 201.608 839.571 198.671 841.485C193.123 841.804 194.414 835.193 191.282 832.226C189.517 830.553 186.798 830.367 184.977 828.831C184.19 828.166 183.73 827.103 183.78 826.069C183.945 822.626 188.994 822.28 191.068 820.279C193.817 817.628 193.332 813.329 196.339 810.786Z" fill="black"/>
<path d="M197.738 823.986C198.265 824.557 198.763 825.131 199.249 825.737C199.169 826.846 198.469 827.423 197.795 828.272C197.159 827.527 196.438 826.846 195.748 826.152C196.441 825.463 197.081 824.709 197.738 823.986Z" fill="#FEFEFE"/>
<path d="M197.41 430.56C198.115 430.517 198.837 430.469 199.541 430.552C202.305 430.88 202.825 435.422 204.29 437.364C205.974 439.593 209.573 439.435 211.011 441.648C211.411 442.264 211.549 443.224 211.385 443.947C210.682 447.03 205.871 447.571 204.09 450.066C202.498 452.297 202.596 454.936 200.065 456.515C194.264 456.484 196.241 452.104 193.002 449.278C191.306 447.799 188.854 447.377 187.181 445.868C186.481 445.237 186.067 444.423 186.059 443.476C186.03 440.151 191.479 439.599 193.314 437.374C195.044 435.277 195.358 432.499 197.41 430.56Z" fill="black"/>
<path d="M198.449 442.001C198.968 442.281 199.361 442.74 199.784 443.149C199.806 444.144 199.454 444.312 198.837 445.063C198.173 444.669 197.737 444.408 197.258 443.784C197.373 442.881 197.825 442.641 198.449 442.001Z" fill="#FEFEFE"/>
<path d="M230.423 640.278C230.521 640.276 230.618 640.27 230.716 640.272C235.021 640.354 234.54 645.373 237.237 647.658C238.658 648.862 241.059 649.187 242.224 650.651C242.823 651.403 243.06 652.276 242.8 653.223C242.088 655.822 237.923 656.551 236.27 658.557C234.443 660.772 234.846 663.431 232.077 664.971C227.636 664.293 228.42 660.803 225.861 658.081C224.294 656.413 221.123 656.128 219.959 654.257C219.592 653.665 219.37 652.629 219.557 651.927C220.193 649.529 224.72 648.485 226.403 646.557C228.203 644.496 227.998 642.147 230.423 640.278Z" fill="black"/>
<path d="M236.891 463.499C241.722 463.229 246.407 463.495 251.153 464.484C271.045 468.629 286.158 482.826 294.02 501.262C295.134 503.875 297.809 513.489 298.738 514.779C299.565 515.927 301.139 516.886 302.564 516.766C305.598 516.512 308.798 514.706 311.635 513.632C320.921 510.113 330.319 509.204 340.077 511.11C353.466 513.806 365.332 521.486 373.273 532.597C375.231 535.308 376.582 538.393 378.494 541.103C378.948 541.746 379.905 543.061 380.714 543.219C383.403 543.745 388.14 541.544 390.765 540.891C392.724 540.404 394.733 540.094 396.736 539.861C407.935 538.556 418.88 541.169 429.232 545.377C433.201 546.99 437.218 549.01 441.416 549.916C448.3 551.402 455.518 550.255 462.501 550.385C468.489 550.496 474.395 551.51 480.288 552.487C459.971 553.846 439.62 554.035 419.299 555.119C408.691 555.685 398.151 557.206 387.513 557.622C365.749 558.906 343.92 558.649 322.192 556.853C306.385 555.634 290.645 553.559 274.844 552.419C265.525 551.746 256.202 551.673 246.868 551.429C236.075 551.187 225.286 550.793 214.505 550.248C212.451 542.377 208.844 535.755 201.989 531.086C195.12 526.406 186.062 524.069 177.831 525.672C176.191 523.045 174.208 520.648 171.934 518.545C163.742 510.861 153.229 508.3 142.258 508.699L142.242 500.315C150.68 498.212 160.205 497.842 168.377 501.132C171.772 502.5 176.193 506.331 179.873 505.951C181.078 505.827 181.865 505.051 182.578 504.149C184.271 502.007 185.368 499.217 186.701 496.831C188.814 493.138 191.257 489.644 194 486.392C204.883 473.436 219.926 464.916 236.891 463.499Z" fill="#FEFEFE"/>
<path d="M249.883 680.145C253.293 679.903 256.906 680.262 260.269 680.837C281.124 684.4 298.871 702.933 303.858 723.19C304.65 726.41 305.266 736.267 306.629 738.059C307.566 739.291 309.209 740.033 310.756 739.761C313.269 739.319 316.097 737.144 318.38 735.944C326.497 731.678 336.175 729.716 345.272 731.069C360.433 733.323 373.36 744.563 380.598 757.661C382.644 761.363 383.875 766.379 386.422 769.639C386.866 770.207 387.457 770.858 388.165 771.078C389.419 771.47 395.737 769.163 397.358 768.754C408.148 766.035 419.173 768.708 429.891 770.494C435.664 771.444 441.448 772.324 447.242 773.132C440.004 773.843 432.737 774.472 425.459 774.484C420.883 774.491 416.296 774.043 411.726 774.142C403.51 774.319 395.3 774.951 387.081 775.06C372.814 775.168 358.547 774.801 344.304 773.962C323.759 773.647 302.477 771.507 282.095 768.871C272.723 767.659 263.396 766.083 254.012 764.961C247.438 764.175 240.817 763.717 234.226 763.081C223.687 762.063 213.059 760.744 202.463 760.67C199.928 755.973 197.318 751.375 193.423 747.645C179.158 733.985 159.01 738.494 141.416 738.833C154.733 733.468 170.456 731.285 183.84 737.753C186.269 738.928 188.814 742.068 191.706 741.779C192.128 741.735 192.539 741.615 192.918 741.423C193.942 740.915 194.379 740.123 194.747 739.079C195.526 736.874 195.67 734.333 196.117 732.031C196.996 727.51 198.067 723.053 199.689 718.735C202.349 711.657 206.087 704.982 211.066 699.267C221.064 687.793 234.752 681.152 249.883 680.145Z" fill="#FEFEFE"/>
<path d="M596.315 588.536C605.316 587.614 615.384 590.189 623.342 594.308C636.621 601.18 647.131 613.194 651.075 627.725C652.203 631.884 652.328 637.113 653.678 640.954C654.073 642.079 655.243 643.579 656.444 643.9C659.334 644.669 664.807 641.098 667.491 640.019C678.282 635.644 690.366 635.722 701.099 640.236C695.329 640.153 689.554 639.701 683.786 640.124C664.721 641.523 656.885 650.405 645.111 663.987C637.895 662.601 629.808 663.299 622.519 663.984C614.034 664.763 605.584 665.886 597.191 667.351C582.264 670.106 567.557 673.929 552.628 676.706C537.829 679.546 522.86 681.408 507.816 682.28C497.43 682.606 487.028 683.448 476.63 683.425C462.264 683.393 447.941 682.281 433.609 681.432C425.175 680.932 414.664 680.785 406.516 679.298C420.436 675.882 433.82 670.994 448.38 671.099C450.998 671.117 453.476 671.348 456.051 671.858C458.716 672.385 461.62 673.449 464.339 673.362C465.554 673.323 466.367 673.01 467.233 672.145C469.257 670.122 470.331 667.126 471.858 664.72C473.8 661.662 476.256 658.722 478.737 656.089C491.928 642.092 510.614 634.748 529.161 642.178C532.086 643.35 536.423 646.813 539.41 646.654C541.105 646.565 541.913 645.835 542.598 644.304C543.878 641.444 543.967 637.799 544.657 634.742C546.917 624.738 551.3 615.215 558.013 607.411C567.915 595.901 581.278 589.678 596.315 588.536Z" fill="#FEFEFE"/>
<path d="M584.792 791.345C603.787 789.562 623.542 799.413 634.975 814.367C637.373 817.504 640.422 824.34 642.99 826.401C647.443 827.061 653.731 822.433 657.95 820.64C661.335 819.179 664.856 818.056 668.462 817.289C682.281 814.445 692.928 818.324 704.319 825.84C694.492 826.819 686.092 821.417 676.298 821.779C671.746 821.948 667.071 822.87 662.687 824.073C657.106 825.604 650.669 828.386 644.826 827.954C639.387 827.553 634.59 824.501 629.643 822.484C615.334 816.649 599.647 821.577 589.899 833.231C588.178 835.289 585.51 840.342 583.892 841.738C583.651 841.945 582.976 842.129 582.659 842.265C563.837 848.252 544.037 848.908 524.483 849.555C509.507 850.05 494.271 850.55 479.304 849.743C470.405 849.263 461.631 848.18 452.812 846.953C472.193 835.433 490.097 831.486 512.337 836.973C515.762 837.818 522.945 840.545 526.201 840.191C527.535 840.046 528.278 839.62 529.012 838.481C530.648 835.943 531.277 832.634 532.31 829.812C534.563 823.654 538.148 817.784 542.377 812.789C552.927 800.333 568.605 792.673 584.792 791.345Z" fill="#FEFEFE"/>
<path d="M470.67 692.423C489.045 693.328 507.761 692.34 526.045 690.324C559.705 686.611 591.979 675.873 625.725 673.529C629.681 673.255 633.801 672.917 637.765 673.152C640.886 673.337 644.19 674.462 647.295 674.086C648.719 673.914 649.856 673.276 650.892 672.303C653.496 669.859 655.615 666.582 657.99 663.879C667.279 653.305 676.331 649.341 690.47 649.494C695.482 649.549 700.726 649.73 705.697 650.322L705.68 696.731C682.069 697.058 658.457 697.701 634.837 697.229C627.742 697.091 620.649 696.842 613.561 696.483C606.205 696.08 598.883 695.496 591.51 695.537C578.636 695.608 565.877 698.332 553 698.874C543.015 699.293 533.02 698.843 523.048 698.331C505.444 697.427 488.118 695.805 470.67 693.284V692.423Z" fill="#94CAE1"/>
<path d="M554.105 887.27C568.344 885.391 585.216 893.715 594.245 904.416C596.506 907.096 599.352 913.807 602.385 914.989C605.18 916.078 612.472 912.043 615.693 911.195C618.394 910.484 620.932 910.275 623.717 910.383C628.872 910.584 632.458 912.675 636.527 915.628C637.48 916.319 638.722 917.33 639.887 917.594C642.342 918.152 644.774 915.379 646.679 914.185C651.702 911.038 656.122 913.585 661.177 914.591C664.478 915.247 666.145 912.19 668.164 910.235C669.278 909.157 670.635 908.211 671.932 907.364C681.816 900.905 694.315 900.527 705.529 902.856C705.079 908.314 703.742 913.548 699.761 917.536C697.27 920.032 694.283 921.469 690.863 922.209C681.971 924.13 671.021 923.283 661.897 923.283L616.967 923.277L505.544 923.283L472.258 923.3C466.132 923.317 459.698 923.738 453.618 923.156C450.153 922.825 446.842 921.474 443.565 920.364C449.414 920.19 455.319 919.876 461.118 919.067C471.288 917.648 481.256 915.352 491.526 914.541C494.94 914.271 498.527 914.486 501.912 914.969C503.938 915.258 506.147 915.855 508.195 915.741C511.904 915.533 515.754 908.488 518.049 905.827C527.292 895.107 539.97 888.357 554.105 887.27Z" fill="#94CAE1"/>
<path d="M491.622 859.072C500.324 859.392 509.034 859.464 517.739 859.289C537.978 859.075 558.364 858.197 578.125 853.496C582.019 852.569 587.263 851.714 590.266 848.927C592.48 846.871 593.96 843.676 595.663 841.19C600.664 833.886 608.67 829.419 617.617 829.593C626.818 829.771 633.903 836.426 642.957 837.332C654.521 838.491 665.2 831.464 676.736 831.05C683.072 830.822 688.317 833.481 694.367 834.671C698.25 835.434 701.821 835.2 705.726 834.885L705.714 866.556C678.062 867.823 650.361 867.652 622.727 866.046C615.963 865.642 609.214 865.036 602.487 864.228C596.447 863.541 590.419 862.676 584.339 862.451C574.887 862.098 565.474 863.762 556.013 863.828C546.819 863.892 537.675 863.236 528.5 862.731C515.615 862.022 502.855 861.27 490.043 859.66C490.534 859.418 491.105 859.26 491.622 859.072Z" fill="#94CAE1"/>
<path d="M142.281 518.757C152.117 518.492 161.624 520.641 168.044 528.706C169.648 530.722 170.551 533.54 172.523 535.208C175.013 537.314 178.772 535.568 181.72 535.375C185.507 535.127 189.517 535.871 192.995 537.376C206.803 543.351 203.205 554.972 208.062 558.658C210.488 560.499 233.607 560.565 238.374 560.683C250.87 560.99 263.351 561.204 275.818 562.176C287.419 563.08 298.987 564.518 310.576 565.575C321.967 566.597 333.387 567.265 344.82 567.579C361.354 568.059 377.903 567.666 394.396 566.402C391.491 567.446 388.355 567.913 385.332 568.513C359.343 574.356 316.622 577.105 289.937 574.182C285.175 573.657 280.447 572.866 275.774 571.814C270.054 570.533 264.332 568.79 258.429 568.699C252.406 568.607 246.311 569.901 240.345 570.628C234.314 571.363 228.21 571.704 222.142 571.965C195.556 573.112 168.861 572.602 142.254 572.59L142.281 518.757Z" fill="#94CAE1"/>
<path d="M155.933 747.584C157.771 747.465 159.613 747.408 161.456 747.413C173.122 747.337 183.735 749.268 190.778 759.366C192.619 762.006 194.036 765.597 196.377 767.798C197.582 768.931 198.84 769.403 200.463 769.599C204.992 770.144 209.656 770.064 214.211 770.425C225.979 771.438 237.736 772.562 249.483 773.796C271.04 776.279 292.276 780.25 313.951 781.884C335.157 783.544 356.421 784.338 377.692 784.266C370.436 786.185 362.306 786.777 354.851 787.571C334.762 790.014 309.936 790.597 289.668 788.813C285.652 788.445 281.654 787.913 277.682 787.217C273.43 786.452 269.12 785.367 264.776 785.379C259.397 785.394 254.314 787.35 249.091 788.385C242.71 789.65 236.102 790.457 229.616 790.91C219.794 791.595 209.98 791.551 200.143 791.532C180.834 791.501 161.528 790.951 142.247 789.886L142.241 748.7C146.795 748.219 151.36 747.847 155.933 747.584Z" fill="#94CAE1"/>
<path d="M679.542 416.552C689.045 415.607 698.142 419.519 705.731 424.885L705.737 441.788C704.365 442.267 703.014 442.927 701.72 443.581C690.369 449.317 683.372 459.302 679.403 471.105C663.995 471.391 648.817 475.748 633.52 477.478C622.193 478.758 610.837 477.96 599.497 478.843C590.893 479.513 582.455 480.948 573.918 482.133C568.108 482.895 562.284 483.546 556.449 484.088C548.806 484.498 540.999 484.68 533.377 483.886L533.338 483.744C544.104 482.737 555.521 484.471 566.018 481.752C577.093 478.883 586.746 472.002 598.3 470.521C602.862 469.937 607.642 470.016 612.147 470.981C615.044 471.601 618.35 473.01 621.31 472.783C622.918 472.66 623.984 472.109 624.838 470.728C626.756 467.625 627.442 463.13 628.703 459.662C631.891 450.893 637.155 442.487 643.28 435.479C652.718 424.68 665.111 417.504 679.542 416.552Z" fill="#FEFEFE"/>
<path d="M705.35 453.574C706.347 455.321 705.569 497.884 705.592 503.689C685.118 503.909 664.149 504.453 643.843 501.541C638.485 500.773 633.089 499.797 627.824 498.536C622.563 497.276 617.448 495.757 612.065 495.066C603.01 493.904 593.776 494.217 584.683 493.226C580.41 492.788 576.161 491.963 571.926 491.242C583.027 490.62 594.075 488.928 605.191 488.286C615.408 487.697 625.606 488.299 635.8 487.105C647.632 485.719 659.166 482.561 670.994 481.202C674.059 480.849 684.131 481.593 686.145 480.002C688.315 478.29 689.408 472.903 690.508 470.318C693.624 462.996 698.561 457.626 705.35 453.574Z" fill="#94CAE1"/>
<path d="M463.903 692.171C466.159 692.103 468.419 692.286 470.67 692.42V693.281C468.405 692.972 466.148 692.602 463.903 692.171Z" fill="#A1D0E7"/>
<path d="M484.47 858.657C486.855 858.77 489.238 858.909 491.621 859.071C491.104 859.259 490.533 859.417 490.042 859.659C488.157 859.404 486.326 859.076 484.47 858.657Z" fill="#A1D0E7"/>
<defs>
<linearGradient id="paint0_linear_1_1063" x1="421.759" y1="358.803" x2="425.698" y2="922.911" gradientUnits="userSpaceOnUse">
<stop stop-color="#317FBB"/>
<stop offset="1" stop-color="#61C9E5"/>
</linearGradient>
</defs>
</svg>
