<svg width="849" height="1183" viewBox="0 0 849 1183" fill="none" xmlns="http://www.w3.org/2000/svg">
<rect x="5" y="5" width="839" height="1173" rx="45" fill="white"/>
<rect x="5" y="5" width="839" height="1173" rx="45" stroke="black" stroke-width="10"/>
<circle cx="786.5" cy="1124.5" r="11.5" fill="black"/>
<circle cx="786.5" cy="59.5" r="11.5" fill="black"/>
<path d="M77 1124.5C77 1130.85 71.8513 1136 65.5 1136C59.1487 1136 54 1130.85 54 1124.5C54 1118.15 59.1487 1113 65.5 1113C71.8513 1113 77 1118.15 77 1124.5Z" fill="black"/>
<path d="M77 59.5C77 65.8513 71.8513 71 65.5 71C59.1487 71 54 65.8513 54 59.5C54 53.1487 59.1487 48 65.5 48C71.8513 48 77 53.1487 77 59.5Z" fill="black"/>
<mask id="path-6-inside-1_1_3936" fill="white">
<path d="M708 48C713.523 48 717.934 52.4996 718.616 57.9801C723.122 94.1833 751.817 122.878 788.02 127.384C793.5 128.066 798 132.477 798 138V1046C798 1051.52 793.5 1055.93 788.02 1056.62C751.817 1061.12 723.122 1089.82 718.616 1126.02C717.934 1131.5 713.523 1136 708 1136H141C135.477 1136 131.066 1131.5 130.384 1126.02C125.878 1089.82 97.1833 1061.12 60.9801 1056.62C55.4996 1055.93 51 1051.52 51 1046V138C51 132.477 55.4996 128.066 60.9801 127.384C97.1833 122.878 125.878 94.1833 130.384 57.9801C131.066 52.4996 135.477 48 141 48H708Z"/>
</mask>
<path d="M708 48C713.523 48 717.934 52.4996 718.616 57.9801C723.122 94.1833 751.817 122.878 788.02 127.384C793.5 128.066 798 132.477 798 138V1046C798 1051.52 793.5 1055.93 788.02 1056.62C751.817 1061.12 723.122 1089.82 718.616 1126.02C717.934 1131.5 713.523 1136 708 1136H141C135.477 1136 131.066 1131.5 130.384 1126.02C125.878 1089.82 97.1833 1061.12 60.9801 1056.62C55.4996 1055.93 51 1051.52 51 1046V138C51 132.477 55.4996 128.066 60.9801 127.384C97.1833 122.878 125.878 94.1833 130.384 57.9801C131.066 52.4996 135.477 48 141 48H708Z" fill="#006AB6"/>
<path d="M130.384 1126.02L138.322 1125.03L130.384 1126.02ZM718.616 1126.02L710.678 1125.03L718.616 1126.02ZM788.02 1056.62L789.008 1064.56L788.02 1056.62ZM718.616 57.9801L726.555 56.9922L718.616 57.9801ZM718.616 57.9801L710.678 58.9681C715.635 98.8063 747.194 130.365 787.032 135.322L788.02 127.384L789.008 119.445C756.44 115.392 730.608 89.5603 726.555 56.9922L718.616 57.9801ZM798 138H790V1046H798H806V138H798ZM788.02 1056.62L787.032 1048.68C747.194 1053.64 715.635 1085.19 710.678 1125.03L718.616 1126.02L726.555 1127.01C730.608 1094.44 756.44 1068.61 789.008 1064.56L788.02 1056.62ZM708 1136V1128H141V1136V1144H708V1136ZM130.384 1126.02L138.322 1125.03C133.365 1085.19 101.806 1053.64 61.9681 1048.68L60.9801 1056.62L59.9922 1064.56C92.5603 1068.61 118.392 1094.44 122.445 1127.01L130.384 1126.02ZM51 1046H59V138H51H43V1046H51ZM60.9801 127.384L61.9681 135.322C101.806 130.365 133.365 98.8063 138.322 58.9681L130.384 57.9801L122.445 56.9922C118.392 89.5603 92.5603 115.392 59.9922 119.445L60.9801 127.384ZM141 48V56H708V48V40H141V48ZM130.384 57.9801L138.322 58.9681C138.438 58.0389 138.872 57.2306 139.427 56.6958C139.954 56.1887 140.494 56 141 56V48V40C130.84 40 123.547 48.1329 122.445 56.9922L130.384 57.9801ZM51 138H59C59 137.494 59.1887 136.954 59.6958 136.427C60.2306 135.872 61.0389 135.438 61.9681 135.322L60.9801 127.384L59.9922 119.445C51.1329 120.547 43 127.84 43 138H51ZM60.9801 1056.62L61.9681 1048.68C61.0389 1048.56 60.2306 1048.13 59.6958 1047.57C59.1887 1047.05 59 1046.51 59 1046H51H43C43 1056.16 51.1329 1063.45 59.9922 1064.56L60.9801 1056.62ZM141 1136V1128C140.494 1128 139.954 1127.81 139.427 1127.3C138.872 1126.77 138.438 1125.96 138.322 1125.03L130.384 1126.02L122.445 1127.01C123.547 1135.87 130.84 1144 141 1144V1136ZM718.616 1126.02L710.678 1125.03C710.562 1125.96 710.128 1126.77 709.573 1127.3C709.046 1127.81 708.506 1128 708 1128V1136V1144C718.16 1144 725.453 1135.87 726.555 1127.01L718.616 1126.02ZM798 1046H790C790 1046.51 789.811 1047.05 789.304 1047.57C788.769 1048.13 787.961 1048.56 787.032 1048.68L788.02 1056.62L789.008 1064.56C797.867 1063.45 806 1056.16 806 1046H798ZM788.02 127.384L787.032 135.322C787.961 135.438 788.769 135.872 789.304 136.427C789.811 136.954 790 137.494 790 138H798H806C806 127.84 797.867 120.547 789.008 119.445L788.02 127.384ZM718.616 57.9801L726.555 56.9922C725.453 48.1329 718.16 40 708 40V48V56C708.506 56 709.046 56.1887 709.573 56.6958C710.128 57.2306 710.562 58.0389 710.678 58.9681L718.616 57.9801Z" fill="black" mask="url(#path-6-inside-1_1_3936)"/>
<path d="M690 102C695.523 102 699.911 106.512 700.837 111.957C705.019 136.563 724.437 155.981 749.043 160.163C754.488 161.089 759 165.477 759 171V1014C759 1019.52 754.488 1023.91 749.043 1024.84C724.711 1028.97 705.454 1048 700.984 1072.22C699.993 1077.59 695.633 1082 690.175 1082H158.825C153.367 1082 149.007 1077.59 148.016 1072.22C143.546 1048 124.288 1028.97 99.9568 1024.84C94.5121 1023.91 90 1019.52 90 1014V171C90 165.477 94.512 161.089 99.9568 160.163C124.563 155.981 143.981 136.563 148.163 111.957C149.089 106.512 153.477 102 159 102H690Z" fill="#5298CB"/>
<mask id="path-9-outside-2_1_3936" maskUnits="userSpaceOnUse" x="419" y="1006" width="22" height="32" fill="black">
<rect fill="white" x="419" y="1006" width="22" height="32"/>
<path d="M425.08 1029.08C425.347 1030.41 425.92 1031.43 426.8 1032.12C427.68 1032.81 428.867 1033.16 430.36 1033.16C432.253 1033.16 433.64 1032.41 434.52 1030.92C435.4 1029.43 435.84 1026.88 435.84 1023.28C435.2 1024.19 434.293 1024.89 433.12 1025.4C431.973 1025.88 430.72 1026.12 429.36 1026.12C427.627 1026.12 426.053 1025.77 424.64 1025.08C423.227 1024.36 422.107 1023.31 421.28 1021.92C420.48 1020.51 420.08 1018.8 420.08 1016.8C420.08 1013.87 420.933 1011.53 422.64 1009.8C424.373 1008.04 426.747 1007.16 429.76 1007.16C433.387 1007.16 435.96 1008.37 437.48 1010.8C439.027 1013.2 439.8 1016.89 439.8 1021.88C439.8 1025.32 439.507 1028.13 438.92 1030.32C438.36 1032.51 437.373 1034.16 435.96 1035.28C434.547 1036.4 432.587 1036.96 430.08 1036.96C427.227 1036.96 425.027 1036.21 423.48 1034.72C421.933 1033.23 421.067 1031.35 420.88 1029.08H425.08ZM430.16 1022.28C431.76 1022.28 433.013 1021.79 433.92 1020.8C434.853 1019.79 435.32 1018.45 435.32 1016.8C435.32 1014.96 434.827 1013.53 433.84 1012.52C432.88 1011.48 431.56 1010.96 429.88 1010.96C428.2 1010.96 426.867 1011.49 425.88 1012.56C424.92 1013.6 424.44 1014.97 424.44 1016.68C424.44 1018.31 424.907 1019.65 425.84 1020.72C426.8 1021.76 428.24 1022.28 430.16 1022.28Z"/>
</mask>
<path d="M425.08 1029.08C425.347 1030.41 425.92 1031.43 426.8 1032.12C427.68 1032.81 428.867 1033.16 430.36 1033.16C432.253 1033.16 433.64 1032.41 434.52 1030.92C435.4 1029.43 435.84 1026.88 435.84 1023.28C435.2 1024.19 434.293 1024.89 433.12 1025.4C431.973 1025.88 430.72 1026.12 429.36 1026.12C427.627 1026.12 426.053 1025.77 424.64 1025.08C423.227 1024.36 422.107 1023.31 421.28 1021.92C420.48 1020.51 420.08 1018.8 420.08 1016.8C420.08 1013.87 420.933 1011.53 422.64 1009.8C424.373 1008.04 426.747 1007.16 429.76 1007.16C433.387 1007.16 435.96 1008.37 437.48 1010.8C439.027 1013.2 439.8 1016.89 439.8 1021.88C439.8 1025.32 439.507 1028.13 438.92 1030.32C438.36 1032.51 437.373 1034.16 435.96 1035.28C434.547 1036.4 432.587 1036.96 430.08 1036.96C427.227 1036.96 425.027 1036.21 423.48 1034.72C421.933 1033.23 421.067 1031.35 420.88 1029.08H425.08ZM430.16 1022.28C431.76 1022.28 433.013 1021.79 433.92 1020.8C434.853 1019.79 435.32 1018.45 435.32 1016.8C435.32 1014.96 434.827 1013.53 433.84 1012.52C432.88 1011.48 431.56 1010.96 429.88 1010.96C428.2 1010.96 426.867 1011.49 425.88 1012.56C424.92 1013.6 424.44 1014.97 424.44 1016.68C424.44 1018.31 424.907 1019.65 425.84 1020.72C426.8 1021.76 428.24 1022.28 430.16 1022.28Z" fill="black"/>
<path d="M425.08 1029.08L425.374 1029.02L425.326 1028.78H425.08V1029.08ZM426.8 1032.12L426.614 1032.36L426.8 1032.12ZM434.52 1030.92L434.262 1030.77L434.52 1030.92ZM435.84 1023.28H436.14V1022.33L435.595 1023.11L435.84 1023.28ZM433.12 1025.4L433.236 1025.68L433.239 1025.68L433.12 1025.4ZM424.64 1025.08L424.504 1025.35L424.508 1025.35L424.64 1025.08ZM421.28 1021.92L421.019 1022.07L421.022 1022.07L421.28 1021.92ZM422.64 1009.8L422.426 1009.59L422.426 1009.59L422.64 1009.8ZM437.48 1010.8L437.226 1010.96L437.228 1010.96L437.48 1010.8ZM438.92 1030.32L438.63 1030.24L438.629 1030.25L438.92 1030.32ZM435.96 1035.28L436.146 1035.52L435.96 1035.28ZM423.48 1034.72L423.272 1034.94L423.48 1034.72ZM420.88 1029.08V1028.78H420.554L420.581 1029.1L420.88 1029.08ZM433.92 1020.8L433.699 1020.6L433.699 1020.6L433.92 1020.8ZM433.84 1012.52L433.619 1012.72L433.625 1012.73L433.84 1012.52ZM425.88 1012.56L425.66 1012.36L425.66 1012.36L425.88 1012.56ZM425.84 1020.72L425.614 1020.92L425.62 1020.92L425.84 1020.72ZM425.08 1029.08L424.786 1029.14C425.063 1030.53 425.667 1031.61 426.614 1032.36L426.8 1032.12L426.986 1031.88C426.173 1031.24 425.63 1030.3 425.374 1029.02L425.08 1029.08ZM426.8 1032.12L426.614 1032.36C427.563 1033.1 428.822 1033.46 430.36 1033.46V1033.16V1032.86C428.912 1032.86 427.797 1032.52 426.986 1031.88L426.8 1032.12ZM430.36 1033.16V1033.46C432.348 1033.46 433.839 1032.67 434.778 1031.07L434.52 1030.92L434.262 1030.77C433.441 1032.16 432.159 1032.86 430.36 1032.86V1033.16ZM434.52 1030.92L434.778 1031.07C435.702 1029.5 436.14 1026.89 436.14 1023.28H435.84H435.54C435.54 1026.87 435.098 1029.35 434.262 1030.77L434.52 1030.92ZM435.84 1023.28L435.595 1023.11C434.991 1023.96 434.132 1024.64 433.001 1025.12L433.12 1025.4L433.239 1025.68C434.455 1025.15 435.409 1024.41 436.085 1023.45L435.84 1023.28ZM433.12 1025.4L433.004 1025.12C431.898 1025.59 430.684 1025.82 429.36 1025.82V1026.12V1026.42C430.756 1026.42 432.049 1026.17 433.236 1025.68L433.12 1025.4ZM429.36 1026.12V1025.82C427.668 1025.82 426.14 1025.48 424.772 1024.81L424.64 1025.08L424.508 1025.35C425.966 1026.06 427.586 1026.42 429.36 1026.42V1026.12ZM424.64 1025.08L424.776 1024.81C423.414 1024.12 422.336 1023.11 421.538 1021.77L421.28 1021.92L421.022 1022.07C421.877 1023.51 423.039 1024.6 424.504 1025.35L424.64 1025.08ZM421.28 1021.92L421.541 1021.77C420.772 1020.41 420.38 1018.76 420.38 1016.8H420.08H419.78C419.78 1018.84 420.188 1020.6 421.019 1022.07L421.28 1021.92ZM420.08 1016.8H420.38C420.38 1013.93 421.213 1011.68 422.854 1010.01L422.64 1009.8L422.426 1009.59C420.653 1011.39 419.78 1013.81 419.78 1016.8H420.08ZM422.64 1009.8L422.854 1010.01C424.519 1008.32 426.808 1007.46 429.76 1007.46V1007.16V1006.86C426.685 1006.86 424.228 1007.76 422.426 1009.59L422.64 1009.8ZM429.76 1007.16V1007.46C433.315 1007.46 435.775 1008.64 437.226 1010.96L437.48 1010.8L437.734 1010.64C436.145 1008.1 433.459 1006.86 429.76 1006.86V1007.16ZM437.48 1010.8L437.228 1010.96C438.728 1013.29 439.5 1016.91 439.5 1021.88H439.8H440.1C440.1 1016.87 439.326 1013.11 437.732 1010.64L437.48 1010.8ZM439.8 1021.88H439.5C439.5 1025.31 439.208 1028.09 438.63 1030.24L438.92 1030.32L439.21 1030.4C439.806 1028.18 440.1 1025.33 440.1 1021.88H439.8ZM438.92 1030.32L438.629 1030.25C438.081 1032.38 437.124 1033.97 435.774 1035.04L435.96 1035.28L436.146 1035.52C437.623 1034.35 438.639 1032.63 439.211 1030.39L438.92 1030.32ZM435.96 1035.28L435.774 1035.04C434.431 1036.11 432.545 1036.66 430.08 1036.66V1036.96V1037.26C432.628 1037.26 434.663 1036.69 436.146 1035.52L435.96 1035.28ZM430.08 1036.96V1036.66C427.278 1036.66 425.163 1035.93 423.688 1034.5L423.48 1034.72L423.272 1034.94C424.891 1036.5 427.175 1037.26 430.08 1037.26V1036.96ZM423.48 1034.72L423.688 1034.5C422.197 1033.06 421.36 1031.25 421.179 1029.06L420.88 1029.08L420.581 1029.1C420.773 1031.44 421.669 1033.39 423.272 1034.94L423.48 1034.72ZM420.88 1029.08V1029.38H425.08V1029.08V1028.78H420.88V1029.08ZM430.16 1022.28V1022.58C431.826 1022.58 433.166 1022.06 434.141 1021L433.92 1020.8L433.699 1020.6C432.86 1021.51 431.694 1021.98 430.16 1021.98V1022.28ZM433.92 1020.8L434.141 1021C435.135 1019.92 435.62 1018.51 435.62 1016.8H435.32H435.02C435.02 1018.39 434.572 1019.65 433.699 1020.6L433.92 1020.8ZM435.32 1016.8H435.62C435.62 1014.91 435.111 1013.4 434.055 1012.31L433.84 1012.52L433.625 1012.73C434.542 1013.67 435.02 1015.01 435.02 1016.8H435.32ZM433.84 1012.52L434.06 1012.32C433.033 1011.2 431.627 1010.66 429.88 1010.66V1010.96V1011.26C431.493 1011.26 432.727 1011.76 433.62 1012.72L433.84 1012.52ZM429.88 1010.96V1010.66C428.131 1010.66 426.712 1011.22 425.66 1012.36L425.88 1012.56L426.1 1012.76C427.021 1011.77 428.269 1011.26 429.88 1011.26V1010.96ZM425.88 1012.56L425.66 1012.36C424.638 1013.46 424.14 1014.91 424.14 1016.68H424.44H424.74C424.74 1015.03 425.202 1013.74 426.1 1012.76L425.88 1012.56ZM424.44 1016.68H424.14C424.14 1018.37 424.626 1019.79 425.614 1020.92L425.84 1020.72L426.066 1020.52C425.187 1019.52 424.74 1018.25 424.74 1016.68H424.44ZM425.84 1020.72L425.62 1020.92C426.654 1022.04 428.187 1022.58 430.16 1022.58V1022.28V1021.98C428.293 1021.98 426.946 1021.48 426.06 1020.52L425.84 1020.72Z" fill="black" mask="url(#path-9-outside-2_1_3936)"/>
<path d="M329.36 234.83C329.36 227.55 330.865 221.075 333.875 215.405C336.955 209.665 341.295 205.22 346.895 202.07C352.495 198.85 358.935 197.24 366.215 197.24C375.455 197.24 383.225 199.725 389.525 204.695C395.825 209.595 399.885 216.28 401.705 224.75H379.55C378.22 221.95 376.365 219.815 373.985 218.345C371.675 216.875 368.98 216.14 365.9 216.14C361.14 216.14 357.325 217.855 354.455 221.285C351.655 224.645 350.255 229.16 350.255 234.83C350.255 240.57 351.655 245.155 354.455 248.585C357.325 251.945 361.14 253.625 365.9 253.625C368.98 253.625 371.675 252.89 373.985 251.42C376.365 249.95 378.22 247.815 379.55 245.015H401.705C399.885 253.485 395.825 260.205 389.525 265.175C383.225 270.075 375.455 272.525 366.215 272.525C358.935 272.525 352.495 270.95 346.895 267.8C341.295 264.58 336.955 260.135 333.875 254.465C330.865 248.725 329.36 242.18 329.36 234.83ZM408.09 242.495C408.09 236.405 409.175 231.085 411.345 226.535C413.585 221.985 416.595 218.485 420.375 216.035C424.225 213.585 428.495 212.36 433.185 212.36C437.245 212.36 440.745 213.165 443.685 214.775C446.625 216.385 448.9 218.555 450.51 221.285V213.095H471.09V272H450.51V263.81C448.9 266.54 446.59 268.71 443.58 270.32C440.64 271.93 437.175 272.735 433.185 272.735C428.495 272.735 424.225 271.51 420.375 269.06C416.595 266.61 413.585 263.11 411.345 258.56C409.175 253.94 408.09 248.585 408.09 242.495ZM450.51 242.495C450.51 238.715 449.46 235.74 447.36 233.57C445.33 231.4 442.81 230.315 439.8 230.315C436.72 230.315 434.165 231.4 432.135 233.57C430.105 235.67 429.09 238.645 429.09 242.495C429.09 246.275 430.105 249.285 432.135 251.525C434.165 253.695 436.72 254.78 439.8 254.78C442.81 254.78 445.33 253.695 447.36 251.525C449.46 249.355 450.51 246.345 450.51 242.495ZM503.398 223.49C505.708 220.13 508.508 217.47 511.798 215.51C515.088 213.55 518.623 212.57 522.403 212.57V234.515H516.628C512.148 234.515 508.823 235.39 506.653 237.14C504.483 238.89 503.398 241.935 503.398 246.275V272H482.818V213.095H503.398V223.49Z" fill="black"/>
<path d="M370.78 432.268C378.071 431.673 393.955 432.254 401.816 432.255L523.964 432.254C538.285 432.252 553.464 431.638 567.613 434.048C633.387 445.255 684.779 503.624 702.133 576.908C709.154 572.297 712.006 574.725 718.422 574.176C740.738 572.26 751.12 579.573 750.759 606.92C750.502 626.337 756.739 640.4 731.683 640.34V710.031C760.658 722.199 757.702 764.052 728.797 771.856C724.73 772.955 714.08 772.403 709.667 772.405L673.082 772.389C654.778 866.289 542.27 883.373 510.546 790.736C508.489 784.731 507.297 772.568 502.834 772.389H349.902C342.318 811.669 311.137 844.64 276.615 850.151C230.1 857.575 192.844 822.828 181.582 772.389L141.627 772.392C130.22 772.398 119.298 774.191 109.304 766.951C90.103 753.043 93.9045 715.391 117.012 710.031C117.452 674.554 115.45 644.404 133.87 613.035C167.096 553.884 216.698 560.38 269.626 561.246C273.667 554.655 278.046 545.472 281.77 538.293L306.177 491.731C324.996 455.943 331.98 439.435 370.78 432.268Z" fill="black"/>
<path d="M384.25 443.424L530.337 443.411C538.662 443.413 547.29 443.118 555.567 443.783C624.474 449.313 684.914 513.505 694.759 592.549C697.798 616.958 688.095 640.111 719.129 640.325L722.572 640.34V686.466V710.031H666.838C634.662 635.91 535.989 641.724 513.126 710.031H343.302C307.732 636.627 224.021 635.527 188.448 708.943H151.561H126.028C125.712 699.718 126.574 673.01 127.75 663.353C138.193 668.544 145.456 669.047 156.576 665.756C169.859 654.297 179.774 645.094 176.315 622.778C174.301 609.786 167.905 603.217 159.154 596.065C169.114 584.395 187.138 576.377 200.814 572.834C208.438 570.819 222.754 571.409 231.237 571.414L274.813 571.427C283.346 558.688 294.653 534.703 302.302 520.175L317.49 491.18C334.286 459.412 348.247 439.823 384.25 443.424Z" fill="#FF0F00"/>
<path d="M159.154 596.065C169.114 584.395 187.138 576.377 200.814 572.833C205.516 591.774 219.24 613.302 234.424 622.445C268.376 642.889 291.567 614.322 333.277 657.273C339.672 663.859 348.272 674.584 351.521 683.949C357.918 684.497 367.744 683.955 374.526 683.949L466.83 683.948C508.88 683.938 492.854 684.33 518.405 658.352C559.994 616.068 620.777 615.711 659.659 662.454C684.44 692.246 686.033 686.556 722.572 686.466V710.031H666.838C634.662 635.909 535.989 641.724 513.126 710.031H343.302C307.732 636.627 224.021 635.527 188.448 708.943H151.561H126.028C125.712 699.718 126.574 673.01 127.75 663.353C138.193 668.544 145.456 669.047 156.576 665.756C169.859 654.297 179.774 645.094 176.315 622.778C174.301 609.786 167.905 603.217 159.154 596.065Z" fill="#CC0D10"/>
<path d="M127.75 663.353C138.193 668.544 145.456 669.047 156.576 665.756C152.787 677.358 151.329 696.367 151.561 708.943H126.028C125.712 699.718 126.574 673.01 127.75 663.353Z" fill="#6D2825"/>
<path d="M274.812 571.427C283.346 558.688 294.652 534.703 302.302 520.175L317.489 491.18C334.286 459.412 348.246 439.823 384.25 443.424C378.813 449.945 372.958 455.022 366.473 460.005C368.177 459.97 370.64 459.831 372.273 460.005L430.893 460.024C463.976 460.007 463.152 452.105 462.995 492.343L463.031 557.748C463.053 568.301 466.033 576.734 454.012 576.861L308.122 576.916C301.69 576.914 295.452 579.648 292.935 571.427L292.844 571.297C292.136 570.841 276.6 571.368 274.812 571.427Z" fill="black"/>
<path d="M274.812 571.427C283.346 558.688 294.652 534.703 302.302 520.175L317.489 491.18C334.286 459.412 348.246 439.823 384.25 443.424C378.813 449.945 372.958 455.022 366.473 460.005C368.177 459.97 370.64 459.831 372.273 460.005C335.711 465.518 335.932 481.563 319.208 515.6L305.343 543.439C301.779 550.468 294.152 563.816 292.935 571.427L292.844 571.297C292.136 570.841 276.6 571.368 274.812 571.427Z" fill="#CC0D10"/>
<path d="M303.894 566.662L328.308 517.909C347.89 478.851 345.158 470.466 388.858 470.485L433.014 470.507H454.206V566.662H355.253C339.105 566.658 319.745 567.299 303.894 566.662Z" fill="#6CD3F8"/>
<path d="M433.014 470.506H454.206V566.662H355.253C356.545 562.81 424.111 481.814 433.014 470.506Z" fill="#07BBE2"/>
<path d="M477.592 460.005C502.951 459.373 529.353 458.414 553.929 466.278C573.824 472.644 602.748 485.264 614.236 506.172C619.386 515.548 613.509 529.028 611.142 538.595L604.067 568.008L603.823 568.826C603.067 571.295 602.055 575.152 599.74 576.26C597.378 577.392 490.39 577.361 479.157 576.897C469.095 576.482 472.128 560.228 472.127 552.34L472.201 484.451C472.211 477.682 469.401 461.346 477.592 460.005Z" fill="black"/>
<path d="M480.97 470.506C522.213 470.461 540.481 468.371 579.318 488.392C588.817 493.634 604.396 502.912 608.007 515.162C603.125 532.846 599.399 549.085 594.936 566.662H515.618H480.97V470.506Z" fill="#6CD3F8"/>
<path d="M579.318 488.392C588.817 493.634 604.396 502.912 608.007 515.162C603.125 532.846 599.399 549.086 594.936 566.662H515.618C520.127 556.939 569.355 501.401 579.318 488.392Z" fill="#07BBE2"/>
<path d="M456.478 594.448C464.159 594.424 480.287 593.594 487.276 595.201C506.792 599.688 505.899 631.651 483.964 634.605C475.341 634.627 466.724 634.737 458.105 634.549C434.768 634.036 432.044 597.147 456.478 594.448Z" fill="black"/>
<path d="M456.478 604.407C464.532 604.362 481.918 602.83 488.599 606.458C495.232 610.061 493.924 622.337 483.964 624.56C476.403 624.606 457.07 626.361 451.365 621.826C443.3 615.418 448.679 606.017 456.478 604.407Z" fill="#D4AF10"/>
<path d="M583.98 666.007C608.591 664.027 632.52 675.86 648.249 697.79C663.977 719.719 669.577 749.055 663.287 776.579C653.334 820.121 616.572 848.043 577.972 841.373C539.373 834.703 511.313 795.58 512.854 750.584C514.395 705.588 545.045 669.143 583.98 666.007Z" fill="#606E74"/>
<path d="M663.287 776.579C653.334 820.121 616.572 848.043 577.972 841.373C539.373 834.703 511.313 795.58 512.854 750.584C514.395 705.588 545.045 669.142 583.98 666.007C567.708 673.1 556.296 680.003 549.037 699.438C525.018 762.21 576.566 834.717 630.023 810.447C649.341 801.677 659.704 778.297 663.287 776.579Z" fill="#46565A"/>
<path d="M591.449 711.168C611.676 710.142 628.814 728.178 629.788 751.51C630.761 774.843 615.204 794.693 594.987 795.917C574.645 797.148 557.313 779.066 556.334 755.593C555.353 732.117 571.099 712.197 591.449 711.168Z" fill="black"/>
<path d="M590.656 721.358C606.061 719.829 619.596 733.074 620.801 750.86C622.007 768.645 610.423 784.157 594.999 785.412C579.743 786.652 566.477 773.462 565.285 755.871C564.091 738.28 575.42 722.871 590.656 721.358Z" fill="#BFB9B6"/>
<path d="M321.725 812.544C296.905 843.646 256.448 850.046 225.287 827.807C194.127 805.567 181.028 760.94 194.065 721.431C207.102 681.922 242.605 658.645 278.696 665.945C306.226 671.514 328.928 693.976 337.893 724.521C346.858 755.067 340.658 788.822 321.725 812.544Z" fill="#606E74"/>
<path d="M321.725 812.544C296.905 843.646 256.448 850.046 225.287 827.807C194.127 805.567 181.028 760.94 194.065 721.431C207.102 681.922 242.605 658.645 278.696 665.945C274.039 667.128 269.32 667.71 264.553 668.888C229.967 677.431 211.66 719.426 218.635 757.723C227.543 806.64 271.848 830.344 311.471 815.874C314.739 814.68 318.302 812.002 321.725 812.544Z" fill="#46565A"/>
<path d="M264.259 710.985C284.496 708.104 302.918 724.718 305.383 748.071C307.847 771.425 293.418 792.653 273.173 795.459C252.975 798.257 234.627 781.655 232.168 758.356C229.711 735.057 244.07 713.86 264.259 710.985Z" fill="black"/>
<path d="M263.924 721.292C279.238 718.129 293.864 729.927 296.548 747.61C299.23 765.29 288.949 782.121 273.614 785.15C258.362 788.163 243.868 776.378 241.2 758.79C238.532 741.203 248.69 724.437 263.924 721.292Z" fill="#BFB9B6"/>
<path d="M347.155 719.996H508.731C506.896 728.182 504.878 736.988 504.008 745.407C504.262 749.253 503.997 758.049 504.008 762.334H351.521V745.407C350.571 735.614 349.361 729.513 347.155 719.996Z" fill="#F1CA0D"/>
<path d="M351.521 745.406H504.008C504.262 749.252 503.997 758.049 504.008 762.334H351.521V745.406Z" fill="#D4AF10"/>
<path d="M150.34 762.334C142.354 762.799 134.227 762.021 126.154 762.041C105.297 762.091 89.6461 718.419 134.09 719.995H184.164C181.874 729.469 180.402 735.427 180.1 745.406C180.014 751.109 180.041 756.631 180.1 762.334C172.5 762.31 157.474 761.717 150.34 762.334Z" fill="#D4AF10"/>
<path d="M150.34 762.334C142.354 762.799 134.227 762.021 126.154 762.041C105.297 762.091 89.6461 718.419 134.09 719.995C129.376 724.037 131.652 742.134 134.09 748.097C139.322 757.102 147.08 757.748 150.34 762.334Z" fill="#AB891A"/>
<path d="M670.402 719.995L705.833 719.972C718.547 719.97 736.847 716.138 741.496 734.037C754.606 771.711 689.326 762.347 674.958 762.334C675.007 756.648 675.045 751.095 674.958 745.406C673.675 735.117 672.804 730.09 670.402 719.995Z" fill="#F1CA0D"/>
<path d="M741.497 734.037C754.607 771.711 689.327 762.347 674.958 762.334C675.008 756.647 675.046 751.094 674.958 745.406L708.69 745.423C723.392 745.472 730.975 748.587 741.497 734.037Z" fill="#D4AF10"/>
<path d="M708.436 584.196C715.412 584.152 722.389 584.086 729.365 584.124C742.227 584.198 740.859 594.988 741.687 605.557C742.178 611.837 743.394 618.256 743.23 624.56C741.701 627.533 741.119 628.527 738.651 630.472C732.944 630.163 707.355 633.093 705.474 625.029C704.163 619.403 703.327 592.27 703.544 586.84C705.539 585.483 706.255 585.13 708.436 584.196Z" fill="#F1CA0D"/>
<path d="M151.561 602.785C171.354 609.783 175.259 654.74 144.889 656.551C138.686 658.284 134.722 655.954 129.518 652.451C135.202 628.282 141.093 622.059 151.561 602.785Z" fill="#E5FF91"/>
</svg>
