<svg width="849" height="1183" viewBox="0 0 849 1183" fill="none" xmlns="http://www.w3.org/2000/svg">
<rect x="5" y="5" width="839" height="1173" rx="45" fill="white"/>
<rect x="5" y="5" width="839" height="1173" rx="45" stroke="black" stroke-width="10"/>
<circle cx="786.5" cy="1124.5" r="11.5" fill="black"/>
<circle cx="786.5" cy="59.5" r="11.5" fill="black"/>
<path d="M77 1124.5C77 1130.85 71.8513 1136 65.5 1136C59.1487 1136 54 1130.85 54 1124.5C54 1118.15 59.1487 1113 65.5 1113C71.8513 1113 77 1118.15 77 1124.5Z" fill="black"/>
<path d="M77 59.5C77 65.8513 71.8513 71 65.5 71C59.1487 71 54 65.8513 54 59.5C54 53.1487 59.1487 48 65.5 48C71.8513 48 77 53.1487 77 59.5Z" fill="black"/>
<mask id="path-6-inside-1_1_3999" fill="white">
<path d="M708 48C713.523 48 717.934 52.4996 718.616 57.9801C723.122 94.1833 751.817 122.878 788.02 127.384C793.5 128.066 798 132.477 798 138V1046C798 1051.52 793.5 1055.93 788.02 1056.62C751.817 1061.12 723.122 1089.82 718.616 1126.02C717.934 1131.5 713.523 1136 708 1136H141C135.477 1136 131.066 1131.5 130.384 1126.02C125.878 1089.82 97.1833 1061.12 60.9801 1056.62C55.4996 1055.93 51 1051.52 51 1046V138C51 132.477 55.4996 128.066 60.9801 127.384C97.1833 122.878 125.878 94.1833 130.384 57.9801C131.066 52.4996 135.477 48 141 48H708Z"/>
</mask>
<path d="M708 48C713.523 48 717.934 52.4996 718.616 57.9801C723.122 94.1833 751.817 122.878 788.02 127.384C793.5 128.066 798 132.477 798 138V1046C798 1051.52 793.5 1055.93 788.02 1056.62C751.817 1061.12 723.122 1089.82 718.616 1126.02C717.934 1131.5 713.523 1136 708 1136H141C135.477 1136 131.066 1131.5 130.384 1126.02C125.878 1089.82 97.1833 1061.12 60.9801 1056.62C55.4996 1055.93 51 1051.52 51 1046V138C51 132.477 55.4996 128.066 60.9801 127.384C97.1833 122.878 125.878 94.1833 130.384 57.9801C131.066 52.4996 135.477 48 141 48H708Z" fill="#C357B5"/>
<path d="M130.384 1126.02L138.322 1125.03L130.384 1126.02ZM718.616 1126.02L710.678 1125.03L718.616 1126.02ZM788.02 1056.62L789.008 1064.56L788.02 1056.62ZM718.616 57.9801L726.555 56.9922L718.616 57.9801ZM718.616 57.9801L710.678 58.9681C715.635 98.8063 747.194 130.365 787.032 135.322L788.02 127.384L789.008 119.445C756.44 115.392 730.608 89.5603 726.555 56.9922L718.616 57.9801ZM798 138H790V1046H798H806V138H798ZM788.02 1056.62L787.032 1048.68C747.194 1053.64 715.635 1085.19 710.678 1125.03L718.616 1126.02L726.555 1127.01C730.608 1094.44 756.44 1068.61 789.008 1064.56L788.02 1056.62ZM708 1136V1128H141V1136V1144H708V1136ZM130.384 1126.02L138.322 1125.03C133.365 1085.19 101.806 1053.64 61.9681 1048.68L60.9801 1056.62L59.9922 1064.56C92.5603 1068.61 118.392 1094.44 122.445 1127.01L130.384 1126.02ZM51 1046H59V138H51H43V1046H51ZM60.9801 127.384L61.9681 135.322C101.806 130.365 133.365 98.8063 138.322 58.9681L130.384 57.9801L122.445 56.9922C118.392 89.5603 92.5603 115.392 59.9922 119.445L60.9801 127.384ZM141 48V56H708V48V40H141V48ZM130.384 57.9801L138.322 58.9681C138.438 58.0389 138.872 57.2306 139.427 56.6958C139.954 56.1887 140.494 56 141 56V48V40C130.84 40 123.547 48.1329 122.445 56.9922L130.384 57.9801ZM51 138H59C59 137.494 59.1887 136.954 59.6958 136.427C60.2306 135.872 61.0389 135.438 61.9681 135.322L60.9801 127.384L59.9922 119.445C51.1329 120.547 43 127.84 43 138H51ZM60.9801 1056.62L61.9681 1048.68C61.0389 1048.56 60.2306 1048.13 59.6958 1047.57C59.1887 1047.05 59 1046.51 59 1046H51H43C43 1056.16 51.1329 1063.45 59.9922 1064.56L60.9801 1056.62ZM141 1136V1128C140.494 1128 139.954 1127.81 139.427 1127.3C138.872 1126.77 138.438 1125.96 138.322 1125.03L130.384 1126.02L122.445 1127.01C123.547 1135.87 130.84 1144 141 1144V1136ZM718.616 1126.02L710.678 1125.03C710.562 1125.96 710.128 1126.77 709.573 1127.3C709.046 1127.81 708.506 1128 708 1128V1136V1144C718.16 1144 725.453 1135.87 726.555 1127.01L718.616 1126.02ZM798 1046H790C790 1046.51 789.811 1047.05 789.304 1047.57C788.769 1048.13 787.961 1048.56 787.032 1048.68L788.02 1056.62L789.008 1064.56C797.867 1063.45 806 1056.16 806 1046H798ZM788.02 127.384L787.032 135.322C787.961 135.438 788.769 135.872 789.304 136.427C789.811 136.954 790 137.494 790 138H798H806C806 127.84 797.867 120.547 789.008 119.445L788.02 127.384ZM718.616 57.9801L726.555 56.9922C725.453 48.1329 718.16 40 708 40V48V56C708.506 56 709.046 56.1887 709.573 56.6958C710.128 57.2306 710.562 58.0389 710.678 58.9681L718.616 57.9801Z" fill="black" mask="url(#path-6-inside-1_1_3999)"/>
<path d="M690 102C695.523 102 699.911 106.512 700.837 111.957C705.019 136.563 724.437 155.981 749.043 160.163C754.488 161.089 759 165.477 759 171V1014C759 1019.52 754.488 1023.91 749.043 1024.84C724.711 1028.97 705.454 1048 700.984 1072.22C699.993 1077.59 695.633 1082 690.175 1082H158.825C153.367 1082 149.007 1077.59 148.016 1072.22C143.546 1048 124.288 1028.97 99.9568 1024.84C94.5121 1023.91 90 1019.52 90 1014V171C90 165.477 94.512 161.089 99.9568 160.163C124.563 155.981 143.981 136.563 148.163 111.957C149.089 106.512 153.477 102 159 102H690Z" fill="#D78BCD"/>
<mask id="path-9-outside-2_1_3999" maskUnits="userSpaceOnUse" x="414" y="1007" width="22" height="32" fill="black">
<rect fill="white" x="414" y="1007" width="22" height="32"/>
<path d="M419.32 1021.76C416.547 1020.37 415.16 1018.19 415.16 1015.2C415.16 1013.76 415.52 1012.44 416.24 1011.24C416.96 1010.04 418.04 1009.09 419.48 1008.4C420.92 1007.68 422.68 1007.32 424.76 1007.32C426.813 1007.32 428.56 1007.68 430 1008.4C431.467 1009.09 432.56 1010.04 433.28 1011.24C434 1012.44 434.36 1013.76 434.36 1015.2C434.36 1016.69 433.973 1018.01 433.2 1019.16C432.453 1020.28 431.453 1021.15 430.2 1021.76C431.72 1022.32 432.92 1023.24 433.8 1024.52C434.68 1025.77 435.12 1027.25 435.12 1028.96C435.12 1030.69 434.68 1032.23 433.8 1033.56C432.92 1034.89 431.693 1035.92 430.12 1036.64C428.547 1037.36 426.76 1037.72 424.76 1037.72C422.76 1037.72 420.973 1037.36 419.4 1036.64C417.853 1035.92 416.64 1034.89 415.76 1033.56C414.88 1032.23 414.44 1030.69 414.44 1028.96C414.44 1027.23 414.88 1025.73 415.76 1024.48C416.64 1023.23 417.827 1022.32 419.32 1021.76ZM430 1015.76C430 1014.27 429.533 1013.12 428.6 1012.32C427.667 1011.52 426.387 1011.12 424.76 1011.12C423.16 1011.12 421.893 1011.52 420.96 1012.32C420.027 1013.12 419.56 1014.28 419.56 1015.8C419.56 1017.13 420.04 1018.23 421 1019.08C421.987 1019.91 423.24 1020.32 424.76 1020.32C426.28 1020.32 427.533 1019.89 428.52 1019.04C429.507 1018.19 430 1017.09 430 1015.76ZM424.76 1023.76C423 1023.76 421.56 1024.2 420.44 1025.08C419.347 1025.93 418.8 1027.17 418.8 1028.8C418.8 1030.32 419.333 1031.56 420.4 1032.52C421.467 1033.45 422.92 1033.92 424.76 1033.92C426.573 1033.92 428 1033.44 429.04 1032.48C430.107 1031.52 430.64 1030.29 430.64 1028.8C430.64 1027.2 430.093 1025.96 429 1025.08C427.933 1024.2 426.52 1023.76 424.76 1023.76Z"/>
</mask>
<path d="M419.32 1021.76C416.547 1020.37 415.16 1018.19 415.16 1015.2C415.16 1013.76 415.52 1012.44 416.24 1011.24C416.96 1010.04 418.04 1009.09 419.48 1008.4C420.92 1007.68 422.68 1007.32 424.76 1007.32C426.813 1007.32 428.56 1007.68 430 1008.4C431.467 1009.09 432.56 1010.04 433.28 1011.24C434 1012.44 434.36 1013.76 434.36 1015.2C434.36 1016.69 433.973 1018.01 433.2 1019.16C432.453 1020.28 431.453 1021.15 430.2 1021.76C431.72 1022.32 432.92 1023.24 433.8 1024.52C434.68 1025.77 435.12 1027.25 435.12 1028.96C435.12 1030.69 434.68 1032.23 433.8 1033.56C432.92 1034.89 431.693 1035.92 430.12 1036.64C428.547 1037.36 426.76 1037.72 424.76 1037.72C422.76 1037.72 420.973 1037.36 419.4 1036.64C417.853 1035.92 416.64 1034.89 415.76 1033.56C414.88 1032.23 414.44 1030.69 414.44 1028.96C414.44 1027.23 414.88 1025.73 415.76 1024.48C416.64 1023.23 417.827 1022.32 419.32 1021.76ZM430 1015.76C430 1014.27 429.533 1013.12 428.6 1012.32C427.667 1011.52 426.387 1011.12 424.76 1011.12C423.16 1011.12 421.893 1011.52 420.96 1012.32C420.027 1013.12 419.56 1014.28 419.56 1015.8C419.56 1017.13 420.04 1018.23 421 1019.08C421.987 1019.91 423.24 1020.32 424.76 1020.32C426.28 1020.32 427.533 1019.89 428.52 1019.04C429.507 1018.19 430 1017.09 430 1015.76ZM424.76 1023.76C423 1023.76 421.56 1024.2 420.44 1025.08C419.347 1025.93 418.8 1027.17 418.8 1028.8C418.8 1030.32 419.333 1031.56 420.4 1032.52C421.467 1033.45 422.92 1033.92 424.76 1033.92C426.573 1033.92 428 1033.44 429.04 1032.48C430.107 1031.52 430.64 1030.29 430.64 1028.8C430.64 1027.2 430.093 1025.96 429 1025.08C427.933 1024.2 426.52 1023.76 424.76 1023.76Z" fill="black"/>
<path d="M419.32 1021.76L419.425 1022.04L420.069 1021.8L419.454 1021.49L419.32 1021.76ZM416.24 1011.24L415.983 1011.09L416.24 1011.24ZM419.48 1008.4L419.61 1008.67L419.614 1008.67L419.48 1008.4ZM430 1008.4L429.866 1008.67L429.872 1008.67L430 1008.4ZM433.28 1011.24L433.537 1011.09L433.28 1011.24ZM433.2 1019.16L432.951 1018.99L432.95 1018.99L433.2 1019.16ZM430.2 1021.76L430.068 1021.49L429.438 1021.8L430.096 1022.04L430.2 1021.76ZM433.8 1024.52L433.553 1024.69L433.554 1024.69L433.8 1024.52ZM433.8 1033.56L434.05 1033.73L433.8 1033.56ZM430.12 1036.64L429.995 1036.37L430.12 1036.64ZM419.4 1036.64L419.273 1036.91L419.275 1036.91L419.4 1036.64ZM415.76 1033.56L415.51 1033.73L415.76 1033.56ZM415.76 1024.48L415.514 1024.31L415.76 1024.48ZM428.6 1012.32L428.795 1012.09V1012.09L428.6 1012.32ZM420.96 1012.32L420.765 1012.09V1012.09L420.96 1012.32ZM421 1019.08L420.801 1019.3L420.807 1019.31L421 1019.08ZM420.44 1025.08L420.625 1025.32L420.625 1025.32L420.44 1025.08ZM420.4 1032.52L420.199 1032.74L420.202 1032.75L420.4 1032.52ZM429.04 1032.48L428.839 1032.26L428.837 1032.26L429.04 1032.48ZM429 1025.08L428.809 1025.31L428.812 1025.31L429 1025.08ZM419.32 1021.76L419.454 1021.49C418.107 1020.82 417.112 1019.96 416.453 1018.92C415.795 1017.88 415.46 1016.65 415.46 1015.2H415.16H414.86C414.86 1016.74 415.218 1018.09 415.947 1019.24C416.674 1020.39 417.76 1021.32 419.186 1022.03L419.32 1021.76ZM415.16 1015.2H415.46C415.46 1013.81 415.806 1012.55 416.497 1011.39L416.24 1011.24L415.983 1011.09C415.234 1012.33 414.86 1013.71 414.86 1015.2H415.16ZM416.24 1011.24L416.497 1011.39C417.183 1010.25 418.215 1009.34 419.61 1008.67L419.48 1008.4L419.35 1008.13C417.865 1008.84 416.737 1009.83 415.983 1011.09L416.24 1011.24ZM419.48 1008.4L419.614 1008.67C421.002 1007.97 422.713 1007.62 424.76 1007.62V1007.32V1007.02C422.647 1007.02 420.838 1007.39 419.346 1008.13L419.48 1008.4ZM424.76 1007.32V1007.62C426.779 1007.62 428.477 1007.97 429.866 1008.67L430 1008.4L430.134 1008.13C428.643 1007.39 426.847 1007.02 424.76 1007.02V1007.32ZM430 1008.4L429.872 1008.67C431.294 1009.34 432.338 1010.25 433.023 1011.39L433.28 1011.24L433.537 1011.09C432.782 1009.83 431.64 1008.84 430.128 1008.13L430 1008.4ZM433.28 1011.24L433.023 1011.39C433.714 1012.55 434.06 1013.81 434.06 1015.2H434.36H434.66C434.66 1013.71 434.286 1012.33 433.537 1011.09L433.28 1011.24ZM434.36 1015.2H434.06C434.06 1016.64 433.689 1017.9 432.951 1018.99L433.2 1019.16L433.449 1019.33C434.258 1018.13 434.66 1016.75 434.66 1015.2H434.36ZM433.2 1019.16L432.95 1018.99C432.234 1020.07 431.276 1020.9 430.068 1021.49L430.2 1021.76L430.332 1022.03C431.631 1021.39 432.672 1020.49 433.45 1019.33L433.2 1019.16ZM430.2 1021.76L430.096 1022.04C431.561 1022.58 432.71 1023.46 433.553 1024.69L433.8 1024.52L434.047 1024.35C433.13 1023.02 431.879 1022.06 430.304 1021.48L430.2 1021.76ZM433.8 1024.52L433.554 1024.69C434.395 1025.89 434.82 1027.31 434.82 1028.96H435.12H435.42C435.42 1027.2 434.965 1025.66 434.046 1024.35L433.8 1024.52ZM435.12 1028.96H434.82C434.82 1030.64 434.394 1032.11 433.55 1033.39L433.8 1033.56L434.05 1033.73C434.966 1032.34 435.42 1030.75 435.42 1028.96H435.12ZM433.8 1033.56L433.55 1033.39C432.703 1034.68 431.522 1035.67 429.995 1036.37L430.12 1036.64L430.245 1036.91C431.865 1036.17 433.137 1035.11 434.05 1033.73L433.8 1033.56ZM430.12 1036.64L429.995 1036.37C428.467 1037.07 426.724 1037.42 424.76 1037.42V1037.72V1038.02C426.796 1038.02 428.627 1037.65 430.245 1036.91L430.12 1036.64ZM424.76 1037.72V1037.42C422.796 1037.42 421.053 1037.07 419.525 1036.37L419.4 1036.64L419.275 1036.91C420.893 1037.65 422.724 1038.02 424.76 1038.02V1037.72ZM419.4 1036.64L419.527 1036.37C418.027 1035.67 416.858 1034.68 416.01 1033.39L415.76 1033.56L415.51 1033.73C416.422 1035.11 417.68 1036.17 419.273 1036.91L419.4 1036.64ZM415.76 1033.56L416.01 1033.39C415.166 1032.11 414.74 1030.64 414.74 1028.96H414.44H414.14C414.14 1030.75 414.594 1032.34 415.51 1033.73L415.76 1033.56ZM414.44 1028.96H414.74C414.74 1027.28 415.166 1025.85 416.006 1024.65L415.76 1024.48L415.514 1024.31C414.594 1025.62 414.14 1027.17 414.14 1028.96H414.44ZM415.76 1024.48L416.006 1024.65C416.849 1023.45 417.986 1022.58 419.425 1022.04L419.32 1021.76L419.215 1021.48C417.667 1022.06 416.431 1023 415.514 1024.31L415.76 1024.48ZM430 1015.76H430.3C430.3 1014.2 429.809 1012.96 428.795 1012.09L428.6 1012.32L428.405 1012.55C429.257 1013.28 429.7 1014.33 429.7 1015.76H430ZM428.6 1012.32L428.795 1012.09C427.792 1011.23 426.435 1010.82 424.76 1010.82V1011.12V1011.42C426.339 1011.42 427.541 1011.81 428.405 1012.55L428.6 1012.32ZM424.76 1011.12V1010.82C423.11 1010.82 421.767 1011.23 420.765 1012.09L420.96 1012.32L421.155 1012.55C422.02 1011.81 423.21 1011.42 424.76 1011.42V1011.12ZM420.96 1012.32L420.765 1012.09C419.75 1012.96 419.26 1014.21 419.26 1015.8H419.56H419.86C419.86 1014.35 420.304 1013.28 421.155 1012.55L420.96 1012.32ZM419.56 1015.8H419.26C419.26 1017.22 419.774 1018.39 420.801 1019.3L421 1019.08L421.199 1018.86C420.306 1018.06 419.86 1017.05 419.86 1015.8H419.56ZM421 1019.08L420.807 1019.31C421.857 1020.19 423.183 1020.62 424.76 1020.62V1020.32V1020.02C423.297 1020.02 422.116 1019.62 421.193 1018.85L421 1019.08ZM424.76 1020.32V1020.62C426.339 1020.62 427.666 1020.18 428.716 1019.27L428.52 1019.04L428.324 1018.81C427.4 1019.61 426.221 1020.02 424.76 1020.02V1020.32ZM428.52 1019.04L428.716 1019.27C429.77 1018.36 430.3 1017.18 430.3 1015.76H430H429.7C429.7 1017.01 429.243 1018.02 428.324 1018.81L428.52 1019.04ZM424.76 1023.76V1023.46C422.949 1023.46 421.439 1023.91 420.255 1024.84L420.44 1025.08L420.625 1025.32C421.681 1024.49 423.051 1024.06 424.76 1024.06V1023.76ZM420.44 1025.08L420.255 1024.84C419.076 1025.76 418.5 1027.1 418.5 1028.8H418.8H419.1C419.1 1027.25 419.617 1026.1 420.625 1025.32L420.44 1025.08ZM418.8 1028.8H418.5C418.5 1030.4 419.065 1031.72 420.199 1032.74L420.4 1032.52L420.601 1032.3C419.601 1031.4 419.1 1030.24 419.1 1028.8H418.8ZM420.4 1032.52L420.202 1032.75C421.338 1033.74 422.869 1034.22 424.76 1034.22V1033.92V1033.62C422.971 1033.62 421.595 1033.17 420.598 1032.29L420.4 1032.52ZM424.76 1033.92V1034.22C426.627 1034.22 428.134 1033.72 429.243 1032.7L429.04 1032.48L428.837 1032.26C427.866 1033.16 426.52 1033.62 424.76 1033.62V1033.92ZM429.04 1032.48L429.241 1032.7C430.373 1031.68 430.94 1030.37 430.94 1028.8H430.64H430.34C430.34 1030.21 429.84 1031.36 428.839 1032.26L429.04 1032.48ZM430.64 1028.8H430.94C430.94 1027.12 430.363 1025.79 429.188 1024.85L429 1025.08L428.812 1025.31C429.824 1026.13 430.34 1027.28 430.34 1028.8H430.64ZM429 1025.08L429.191 1024.85C428.057 1023.91 426.57 1023.46 424.76 1023.46V1023.76V1024.06C426.47 1024.06 427.809 1024.49 428.809 1025.31L429 1025.08Z" fill="black" mask="url(#path-9-outside-2_1_3999)"/>
<path d="M352.175 197.975C359.945 197.975 366.735 199.55 372.545 202.7C378.425 205.78 382.94 210.12 386.09 215.72C389.24 221.32 390.815 227.725 390.815 234.935C390.815 242.075 389.205 248.445 385.985 254.045C382.835 259.645 378.32 264.055 372.44 267.275C366.63 270.425 359.875 272 352.175 272H322.88V197.975H352.175ZM350.6 253.835C356.62 253.835 361.345 252.19 364.775 248.9C368.205 245.61 369.92 240.955 369.92 234.935C369.92 228.845 368.205 224.155 364.775 220.865C361.345 217.505 356.62 215.825 350.6 215.825H343.46V253.835H350.6ZM427.497 272.735C421.617 272.735 416.332 271.51 411.642 269.06C407.022 266.61 403.382 263.11 400.722 258.56C398.062 254.01 396.732 248.655 396.732 242.495C396.732 236.405 398.062 231.085 400.722 226.535C403.452 221.985 407.127 218.485 411.747 216.035C416.437 213.585 421.722 212.36 427.602 212.36C433.482 212.36 438.732 213.585 443.352 216.035C448.042 218.485 451.717 221.985 454.377 226.535C457.107 231.085 458.472 236.405 458.472 242.495C458.472 248.585 457.107 253.94 454.377 258.56C451.717 263.11 448.042 266.61 443.352 269.06C438.662 271.51 433.377 272.735 427.497 272.735ZM427.497 254.885C430.367 254.885 432.747 253.835 434.637 251.735C436.597 249.565 437.577 246.485 437.577 242.495C437.577 238.505 436.597 235.46 434.637 233.36C432.747 231.26 430.402 230.21 427.602 230.21C424.802 230.21 422.457 231.26 420.567 233.36C418.677 235.46 417.732 238.505 417.732 242.495C417.732 246.555 418.642 249.635 420.462 251.735C422.282 253.835 424.627 254.885 427.497 254.885ZM488.58 212.36C492.57 212.36 496.035 213.165 498.975 214.775C501.985 216.385 504.295 218.555 505.905 221.285V213.095H526.485V271.37C526.485 276.9 525.435 281.87 523.335 286.28C521.235 290.76 517.945 294.33 513.465 296.99C509.055 299.65 503.455 300.98 496.665 300.98C487.565 300.98 480.285 298.845 474.825 294.575C469.365 290.305 466.25 284.495 465.48 277.145H485.745C486.165 279.035 487.215 280.505 488.895 281.555C490.575 282.605 492.745 283.13 495.405 283.13C502.405 283.13 505.905 279.21 505.905 271.37V263.81C504.295 266.54 501.985 268.71 498.975 270.32C496.035 271.93 492.57 272.735 488.58 272.735C483.89 272.735 479.62 271.51 475.77 269.06C471.99 266.61 468.98 263.11 466.74 258.56C464.57 253.94 463.485 248.585 463.485 242.495C463.485 236.405 464.57 231.085 466.74 226.535C468.98 221.985 471.99 218.485 475.77 216.035C479.62 213.585 483.89 212.36 488.58 212.36ZM505.905 242.495C505.905 238.715 504.855 235.74 502.755 233.57C500.725 231.4 498.205 230.315 495.195 230.315C492.115 230.315 489.56 231.4 487.53 233.57C485.5 235.67 484.485 238.645 484.485 242.495C484.485 246.275 485.5 249.285 487.53 251.525C489.56 253.695 492.115 254.78 495.195 254.78C498.205 254.78 500.725 253.695 502.755 251.525C504.855 249.355 505.905 246.345 505.905 242.495Z" fill="black"/>
<path d="M206.502 322.182C234.536 319.906 252.215 339.3 263.26 363.439C298.444 350.801 358.469 346.303 392.813 365.219C419.134 302.798 478.067 314.477 500.215 373.5C515.391 413.945 510.75 405.912 540.802 433.877C580.747 471.051 512.384 566.729 441.346 497.567C439.387 516.953 434.354 537.722 424.837 554.768C445.468 591.163 467.985 612.2 513.945 611.583C560.542 610.957 570.16 606.658 615.615 629.789C621.48 625.143 627.631 620.956 633.312 616.058C677.788 577.732 688.757 515.468 663.992 462.647C658.479 450.889 640.788 435.185 657.669 428.411C690.08 433.618 720.274 463.356 732.45 492.591C763.412 566.947 725.206 641.192 653.88 670.479C692.518 730.683 666.233 795.448 690.763 834.531C694.096 839.842 698.487 844.498 700.128 850.705C693.253 874.111 688.682 898.525 685.048 922.634C684.294 927.632 683.835 951.97 679.186 953.929C677.064 954.823 615.171 955.585 608.456 953.189C593.755 947.941 599.219 922.273 615.615 915.427C621.407 911.904 626.83 911.768 633.392 911.744C636.581 900.007 644.038 868.895 635.477 858.379C631.588 853.599 618.805 846.159 613.221 842.398C608.202 849.283 600.577 853.812 594.057 859.11C567.257 880.896 566.376 914.817 558.603 923.11C555.113 926.836 509.978 926.717 503.66 925.312C480.819 920.238 490.235 882.677 517.911 882.677C523.247 870.853 530.894 858.58 539.042 848.489C526.255 839.894 516.243 827.146 508.237 814.116C486.074 825.719 463.633 834.71 439.156 840.029C436.659 856.038 433.301 871.98 430.381 887.924C424.598 919.493 419.938 954.199 379.925 961.161C374.257 962.148 337.51 962.282 331.582 961.158C300.641 955.286 320.639 902.163 355.821 898.801V837.401C346.254 834.822 334.541 831.283 326.446 825.423C323.63 833.101 323.057 841.518 322.057 849.593L316.326 899.497C313.124 927.365 309.194 952.752 275.277 960.505C267.825 962.207 236.998 962.464 229.125 961.234C198.964 956.524 213.06 906.169 249.912 898.801C246.03 845.748 239.758 796.148 240.277 741.983C240.447 724.333 239.559 721.542 236.976 704.791C230.31 661.56 243.406 620.077 258.005 579.878C223.476 563.255 217.939 531.817 212.543 496.688C198.037 507.501 192.74 517.072 171.477 520.125C138.347 524.878 109.688 500.028 105.476 467.522C101.357 435.729 124.877 432.996 140.421 409.114C158.809 380.863 163.489 327.277 206.502 322.182ZM226.878 518.64C230.604 511.193 252.883 472.465 264.48 478.353C266.943 479.603 268.234 483.146 266.657 485.566C263.409 490.557 253.41 493.576 247.028 504.452L247.698 505.25C258.687 503.835 286.803 476.759 296.07 482.344C316.559 472.712 341.122 469.639 360.348 484.395L360.717 483.497C363.429 480.888 380.38 483.704 385.089 483.146C375.365 476.144 380.51 466.481 399.317 480.579C413.556 491.248 421.037 504.063 427.257 520.405C433.16 487.806 438.222 430.075 421.055 399.632C415.182 385.112 405.722 381.227 392.139 375.286C352.636 358.008 305.443 357.886 265.463 373.494C252.759 378.453 240.707 383.101 234.924 396.309C232.147 399.95 230.735 404.981 229.244 409.251C217.891 441.749 218.634 484.929 226.878 518.64Z" fill="black"/>
<path d="M431.512 593.472L435.386 589.636C439.828 594.237 445.03 598.308 449.227 603.07C453.971 605.18 458.226 608.03 462.793 610.46C493.845 626.986 515.212 619.5 545.684 620.109C631.646 621.825 665.874 690.214 668.708 767.287C669.517 789.348 667.655 809.22 677.268 830.067C680.176 837.626 684.543 844.09 689.116 850.705C682.113 881.532 675.221 912.356 672.199 943.896H613.221C600.457 919.508 638.04 924.183 641.438 918.923C647.81 909.057 651.532 869.059 647.221 858.254C643.846 849.795 635.734 845.625 628.733 840.505C586.101 809.328 561.557 786.27 552.707 731.504C551.869 726.313 552.981 711.091 547.84 708.064C538.455 702.536 541.152 720.468 541.552 724.083C544.621 751.787 550.993 765.348 561.899 789.21C556.45 789.129 550.988 789.207 545.538 789.21C529.917 792.139 517.508 798.063 503.363 805.253C483.264 815.47 462.725 822.952 441.346 830.067C443.232 811.196 447.739 792.725 448.347 773.676C448.618 769.843 448.252 730.076 438.073 745.685C437.399 746.719 438.306 769.753 438.078 773.298C435.559 812.237 427.22 851.292 419.566 889.508C414.17 916.453 409.936 949.006 373.369 951.276C364.164 951.847 343.962 951.839 335.309 951.084C316.894 949.475 331.276 913.135 355.396 908.856C362.547 907.588 365.004 909.383 365.496 901.056C366.132 890.292 365.805 879.293 365.928 868.499L366.637 817.276C366.647 815.427 370.162 767.542 356.905 786.006C354.845 799.813 356.733 813.514 355.821 827.316C349.876 824.993 342.884 822.886 337.423 819.655C283.714 796.745 265.059 758.497 247.028 708.608C247.278 685.03 240.658 667.324 249.912 641.837C251.017 631.385 254.998 621.527 258.005 611.521C271.823 619.135 290 621.504 298.998 631.595C313.043 647.345 336.432 648.025 351.752 633.559C364.181 621.822 368.06 623.468 384.176 617.73C401.108 611.703 416.819 603.859 431.512 593.472Z" fill="#EB9B57"/>
<path d="M247.028 708.608C293.427 695.776 310.555 706.401 339.469 738.058C351.503 757.502 350.204 771.974 356.904 786.006C354.845 799.813 356.733 813.514 355.821 827.316C349.876 824.993 342.883 822.886 337.423 819.655C283.713 796.745 265.059 758.497 247.028 708.608Z" fill="#FECD79"/>
<ellipse cx="331.569" cy="427.693" rx="67.7372" ry="20.438" fill="white"/>
<path d="M339.469 738.058C351.504 757.502 350.205 771.974 356.905 786.006C354.845 799.813 356.733 813.514 355.821 827.316C349.876 824.993 342.884 822.886 337.423 819.655C340.853 795.157 334.699 753.837 339.469 738.058Z" fill="#FCC08C"/>
<path d="M449.226 603.07C453.971 605.18 458.226 608.03 462.793 610.46C493.845 626.986 515.212 619.5 545.684 620.109C631.646 621.825 665.874 690.213 668.708 767.287C669.517 789.348 667.655 809.22 677.268 830.067C674.663 829.781 672.404 827.61 670.59 825.845C640.514 796.558 665.92 732.904 629.52 679.65C577.448 603.464 496.612 662.561 441.346 609.526C443.89 607.153 446.254 604.911 449.226 603.07Z" fill="#FCC08C"/>
<path d="M448.347 773.675C469.747 766.511 517.098 760.398 535.748 769.679C545.63 774.599 546.398 779.449 545.538 789.21C529.917 792.138 517.508 798.063 503.363 805.253C483.264 815.469 462.725 822.952 441.346 830.067C443.232 811.196 447.739 792.725 448.347 773.675Z" fill="#FECD79"/>
<path d="M258.005 611.521C271.823 619.135 290 621.503 298.998 631.594C313.043 647.345 336.432 648.025 351.752 633.558C364.181 621.821 368.06 623.468 384.176 617.73C401.108 611.703 416.819 603.859 431.512 593.472C434.133 599.391 437.173 604.571 441.346 609.527C421.093 625.153 396.348 634.885 371.339 639.539C369.351 642.235 367.683 645.27 365.409 647.729C349.208 665.256 318.411 667.171 299.245 652.664C281.753 639.425 270.864 636.369 249.912 641.837C251.017 631.385 254.998 621.527 258.005 611.521Z" fill="#D57539"/>
<path d="M234.924 396.309C240.707 383.101 252.759 378.453 265.464 373.494C305.443 357.886 352.636 358.008 392.14 375.286C405.722 381.227 415.182 385.112 421.056 399.632C438.222 430.075 433.16 487.806 427.257 520.405C421.037 504.063 413.556 491.248 399.318 480.579C380.51 466.481 375.366 476.144 385.089 483.146C380.381 483.704 363.43 480.888 360.717 483.497L360.348 484.395C341.122 469.639 316.559 472.712 296.07 482.344C286.804 476.759 258.687 503.835 247.698 505.25L247.028 504.452C253.41 493.576 263.409 490.557 266.657 485.566C268.234 483.146 266.943 479.603 264.481 478.353C252.883 472.465 230.604 511.193 226.878 518.64C218.634 484.929 217.891 441.749 229.244 409.251C230.735 404.981 232.147 399.95 234.924 396.309ZM374.981 431.302C379.086 430.304 381.59 426.15 380.554 422.055C379.52 417.958 375.344 415.492 371.257 416.565C367.222 417.623 364.793 421.735 365.815 425.779C366.839 429.825 370.929 432.289 374.981 431.302ZM282.336 448.825C292.63 447.053 299.534 437.266 297.752 426.974C295.969 416.685 286.178 409.789 275.888 411.581C265.612 413.372 258.729 423.147 260.508 433.425C262.289 443.701 272.058 450.593 282.336 448.825Z" fill="#EB9B57"/>
<path d="M234.924 396.309C240.707 383.101 252.759 378.453 265.464 373.494C305.443 357.886 352.636 358.008 392.14 375.286C405.722 381.227 415.182 385.112 421.056 399.632C417.668 400.176 412.641 396.399 409.597 395.004C358.947 371.8 298.937 371.052 247.379 392.064C244.586 393.202 237.747 397.718 234.924 396.309Z" fill="#FCC08C"/>
<path d="M370.649 411.484C381.239 410.831 390.372 418.844 391.1 429.428C391.828 440.012 383.88 449.202 373.301 450.005C362.616 450.816 353.314 442.769 352.58 432.079C351.843 421.39 359.955 412.146 370.649 411.484ZM374.981 431.302C379.086 430.304 381.589 426.15 380.553 422.055C379.519 417.958 375.343 415.492 371.257 416.565C367.221 417.623 364.793 421.735 365.815 425.779C366.839 429.825 370.928 432.289 374.981 431.302Z" fill="black"/>
<path d="M275.888 411.581C286.178 409.789 295.969 416.684 297.751 426.974C299.534 437.266 292.629 447.053 282.336 448.825C272.058 450.593 262.288 443.701 260.508 433.424C258.729 423.146 265.611 413.372 275.888 411.581ZM287.041 432.028C291.512 431.198 294.483 426.923 293.699 422.444C292.917 417.963 288.672 414.95 284.185 415.685C281.239 416.168 278.78 418.196 277.746 420.995C276.711 423.794 277.26 426.935 279.182 429.217C281.105 431.499 284.106 432.574 287.041 432.028Z" fill="black"/>
<path d="M401.834 368.535C413.716 344.067 430.981 323.752 459.727 337.798C481.06 348.22 489.602 372.658 497.094 393.433C507.844 420.541 510.697 421.735 531.529 438.745C567.26 467.918 510.355 540.648 460.23 500.596C454.018 496.009 448.158 490.979 442.938 485.284C441.305 452.904 444.985 405.587 420.899 380.635C417.87 377.497 413.598 375.232 410.044 372.684C407.31 371.309 404.526 369.989 401.834 368.535Z" fill="#EB9B57"/>
<path d="M411.978 371.473C416.275 373.382 421.018 375.118 424.749 378.031C451.325 398.78 461.188 470.241 460.231 500.596C454.019 496.009 448.158 490.979 442.938 485.284C441.305 452.904 444.985 405.587 420.899 380.635C417.87 377.497 413.599 375.232 410.044 372.684L411.978 371.473Z" fill="#D57539"/>
<path d="M401.834 368.535C413.716 344.067 430.981 323.752 459.727 337.798C481.06 348.22 489.602 372.658 497.094 393.433L496.29 394.261C494.001 392.981 491.904 388.272 490.428 385.923C478.428 366.83 455.671 337.702 430.025 352.057C423.223 355.864 414.171 363.677 411.978 371.473L410.044 372.684C407.31 371.309 404.526 369.989 401.834 368.535Z" fill="#FCC08C"/>
<path d="M157.697 399.632C165.766 377.215 173.541 346.228 196.929 335.189C222.911 322.925 243.777 344.984 254.075 366.969C252.965 367.618 251.824 368.068 250.63 368.536L247.028 371.474C217.966 380.41 211.802 433.644 211.353 458.324C211.026 476.193 213.842 484.835 197.543 496.688C169.843 525.204 121.807 507.486 115.963 469.503C112.893 449.544 117.426 447.007 130.818 435.091C146.462 421.172 147.435 413.496 157.697 399.632Z" fill="#EB9B57"/>
<path d="M157.696 399.632C165.766 377.215 173.541 346.228 196.928 335.189C222.911 322.925 243.776 344.984 254.075 366.969C252.964 367.618 251.823 368.068 250.629 368.536C248.59 368.369 246.638 368.425 244.603 368.536C228.696 338.925 205.057 340.301 184.02 364.943C180.056 369.587 161.129 399.229 157.696 399.632Z" fill="#FCC08C"/>
<path d="M197.542 496.688C196.559 469.522 198.105 440.363 206.742 414.396C211.136 401.186 228.174 365.202 247.028 371.474C217.966 380.411 211.801 433.644 211.352 458.324C211.026 476.193 213.842 484.835 197.542 496.688Z" fill="#D57539"/>
<path d="M662.604 439.689C677.989 444.811 694.424 456.028 704.842 468.432C763.696 536.443 726.029 630.326 648.991 661.638C645.063 657.449 642.021 653.259 638.783 648.581C633.525 645.323 629.027 640.656 623.992 636.997C632.416 630.307 640.977 623.643 648.57 615.999C697.424 566.819 697.712 496.162 662.604 439.689Z" fill="#D57539"/>
<path d="M638.783 648.581C642.111 644.454 647.657 641.748 651.925 638.626C698.565 604.502 726.435 539.39 708.367 482.964C707.442 480.08 701.914 470.397 704.842 468.432C763.696 536.443 726.029 630.326 648.992 661.638C645.063 657.449 642.021 653.259 638.783 648.581Z" fill="#EB9B57"/>
<path d="M254.075 823.979C258.585 825.26 299.659 862.408 308.917 871.14L309.152 871.97C305.475 899.299 308.985 944.793 272.179 950.402C266.414 951.279 232.264 951.866 228.183 950.468C220.255 947.751 224.078 934.395 226.283 929.091C234.663 908.95 246.037 911.965 260.097 906.269C261.516 904.499 254.458 830.751 254.075 823.979Z" fill="#D57539"/>
<path d="M548.245 799.528C554.705 798.713 561.805 799.589 568.354 799.528C581.077 816.404 588.187 822.861 605.784 835.897C598.981 842.781 590.624 847.598 583.533 854.101C567.611 868.702 556.221 894.779 551.281 915.427H526.346C516.221 915.407 495.224 919.342 502.571 901.789C507.905 889.047 516.117 895.861 522.468 892.962C526.002 891.348 537.969 866.818 540.909 862.182C552.127 844.491 556.508 851.011 537.647 834.337C529.869 827.462 522.962 818.517 517.911 809.486C527.361 804.275 537.481 800.597 548.245 799.528Z" fill="#D57539"/>
<path d="M360.348 484.395L360.717 483.497C363.429 480.888 380.38 483.704 385.089 483.146C402.878 491.595 428.213 525.432 418.037 546.43C405.728 571.827 391.775 570.113 370.163 576.586C357.149 561.413 341.135 559.864 331.895 538.114C345.142 535.2 360.059 530.943 367.912 518.851C375.801 506.702 372.456 492.176 360.348 484.395Z" fill="#FECD79"/>
<path d="M247.028 504.452L247.698 505.25C258.687 503.835 286.804 476.759 296.07 482.344C282.642 492.588 276.522 506.993 288.264 521.207C297.105 531.911 310.3 535.237 323.22 538.114C311.635 565.296 290.189 562.753 279.433 576.585C256.857 570.348 237.456 558.453 231.56 534.631C234.237 523.789 240.226 513.247 247.028 504.452Z" fill="#FECD79"/>
<path d="M250.629 746.005C263.341 775.897 287.315 803.211 315.447 819.655C313.338 837.034 311.758 854.667 309.152 871.97L308.917 871.14C299.659 862.408 258.584 825.26 254.075 823.979C250.895 802.19 249.453 767.151 250.629 746.005Z" fill="#CF6831"/>
<path d="M331.895 558.509C339.151 564.714 346.715 571.556 354.84 576.586C354.736 578.723 354.687 580.789 354.84 582.93C354.748 598.693 356.889 613.111 344.769 625.86C334.136 637.046 317.814 636.73 307.065 625.939C295.287 614.113 296.088 598.398 296.07 582.93C296.013 580.82 296.064 578.698 296.07 576.586C305.834 572.254 314.471 565.922 322.105 558.509V567.973L322.052 590.295C322.03 594.253 321.493 599.011 322.292 602.878C323.127 606.903 328.438 607.207 330.611 604.167C333.088 600.699 331.883 574.008 331.895 567.973C331.878 564.82 331.822 561.662 331.895 558.509Z" fill="#FE867E"/>
<path d="M331.895 558.509C339.151 564.714 346.715 571.556 354.84 576.586C354.736 578.723 354.687 580.789 354.84 582.93C345.509 580.091 338.419 570.226 331.895 567.973C331.878 564.82 331.821 561.662 331.895 558.509Z" fill="#EE4B49"/>
<path d="M296.07 576.586C305.834 572.254 314.471 565.922 322.105 558.509V567.973C317.738 569.248 301.493 579.647 296.07 582.93C296.013 580.82 296.064 578.698 296.07 576.586Z" fill="#EE4B49"/>
<path d="M323.22 484.395C338.579 482.697 375.498 493.987 359.016 514.45C352.582 522.441 341.729 526.037 331.895 527.171C320.955 528.563 309.16 525.995 300.367 519.104C277.75 501.385 303.591 485.9 323.22 484.395Z" fill="#7E6460"/>
<path d="M323.22 489.03C327.047 488.364 349.169 488.335 341.712 497.166C337.775 498.813 330.737 497.569 326.446 497.567C325.139 497.533 302.52 500.771 307.251 494.025C309.739 490.477 319.158 489.214 323.22 489.03Z" fill="white"/>
<path d="M418.853 564.605C422.489 569.006 426.293 577.681 429.849 582.93C413.101 593.39 389.439 607.347 370.164 611.521C367.574 613.113 364.95 614.431 362.095 615.472C366.264 600.57 364.957 601.448 364.873 586.007C388.581 584.087 401.176 581.432 418.853 564.605Z" fill="#EE4B49"/>
<path d="M267.92 582.93C273.864 584.951 280.084 585.886 286.347 586.007C286.121 595.271 286.871 604.327 287.834 613.53L282.916 611.521C277.034 609.994 267.648 607.255 263.259 603.07C263.509 595.88 265.72 589.716 267.92 582.93Z" fill="#EE4B49"/>
</svg>
