<svg width="849" height="1183" viewBox="0 0 849 1183" fill="none" xmlns="http://www.w3.org/2000/svg">
<rect x="5" y="5" width="839" height="1173" rx="45" fill="white"/>
<rect x="5" y="5" width="839" height="1173" rx="45" stroke="black" stroke-width="10"/>
<circle cx="786.5" cy="1124.5" r="11.5" fill="black"/>
<circle cx="786.5" cy="59.5" r="11.5" fill="black"/>
<path d="M77 1124.5C77 1130.85 71.8513 1136 65.5 1136C59.1487 1136 54 1130.85 54 1124.5C54 1118.15 59.1487 1113 65.5 1113C71.8513 1113 77 1118.15 77 1124.5Z" fill="black"/>
<path d="M77 59.5C77 65.8513 71.8513 71 65.5 71C59.1487 71 54 65.8513 54 59.5C54 53.1487 59.1487 48 65.5 48C71.8513 48 77 53.1487 77 59.5Z" fill="black"/>
<mask id="path-6-inside-1_1_4062" fill="white">
<path d="M708 48C713.523 48 717.934 52.4996 718.616 57.9801C723.122 94.1833 751.817 122.878 788.02 127.384C793.5 128.066 798 132.477 798 138V1046C798 1051.52 793.5 1055.93 788.02 1056.62C751.817 1061.12 723.122 1089.82 718.616 1126.02C717.934 1131.5 713.523 1136 708 1136H141C135.477 1136 131.066 1131.5 130.384 1126.02C125.878 1089.82 97.1833 1061.12 60.9801 1056.62C55.4996 1055.93 51 1051.52 51 1046V138C51 132.477 55.4996 128.066 60.9801 127.384C97.1833 122.878 125.878 94.1833 130.384 57.9801C131.066 52.4996 135.477 48 141 48H708Z"/>
</mask>
<path d="M708 48C713.523 48 717.934 52.4996 718.616 57.9801C723.122 94.1833 751.817 122.878 788.02 127.384C793.5 128.066 798 132.477 798 138V1046C798 1051.52 793.5 1055.93 788.02 1056.62C751.817 1061.12 723.122 1089.82 718.616 1126.02C717.934 1131.5 713.523 1136 708 1136H141C135.477 1136 131.066 1131.5 130.384 1126.02C125.878 1089.82 97.1833 1061.12 60.9801 1056.62C55.4996 1055.93 51 1051.52 51 1046V138C51 132.477 55.4996 128.066 60.9801 127.384C97.1833 122.878 125.878 94.1833 130.384 57.9801C131.066 52.4996 135.477 48 141 48H708Z" fill="#DBEE71"/>
<path d="M130.384 1126.02L138.322 1125.03L130.384 1126.02ZM718.616 1126.02L710.678 1125.03L718.616 1126.02ZM788.02 1056.62L789.008 1064.56L788.02 1056.62ZM718.616 57.9801L726.555 56.9922L718.616 57.9801ZM718.616 57.9801L710.678 58.9681C715.635 98.8063 747.194 130.365 787.032 135.322L788.02 127.384L789.008 119.445C756.44 115.392 730.608 89.5603 726.555 56.9922L718.616 57.9801ZM798 138H790V1046H798H806V138H798ZM788.02 1056.62L787.032 1048.68C747.194 1053.64 715.635 1085.19 710.678 1125.03L718.616 1126.02L726.555 1127.01C730.608 1094.44 756.44 1068.61 789.008 1064.56L788.02 1056.62ZM708 1136V1128H141V1136V1144H708V1136ZM130.384 1126.02L138.322 1125.03C133.365 1085.19 101.806 1053.64 61.9681 1048.68L60.9801 1056.62L59.9922 1064.56C92.5603 1068.61 118.392 1094.44 122.445 1127.01L130.384 1126.02ZM51 1046H59V138H51H43V1046H51ZM60.9801 127.384L61.9681 135.322C101.806 130.365 133.365 98.8063 138.322 58.9681L130.384 57.9801L122.445 56.9922C118.392 89.5603 92.5603 115.392 59.9922 119.445L60.9801 127.384ZM141 48V56H708V48V40H141V48ZM130.384 57.9801L138.322 58.9681C138.438 58.0389 138.872 57.2306 139.427 56.6958C139.954 56.1887 140.494 56 141 56V48V40C130.84 40 123.547 48.1329 122.445 56.9922L130.384 57.9801ZM51 138H59C59 137.494 59.1887 136.954 59.6958 136.427C60.2306 135.872 61.0389 135.438 61.9681 135.322L60.9801 127.384L59.9922 119.445C51.1329 120.547 43 127.84 43 138H51ZM60.9801 1056.62L61.9681 1048.68C61.0389 1048.56 60.2306 1048.13 59.6958 1047.57C59.1887 1047.05 59 1046.51 59 1046H51H43C43 1056.16 51.1329 1063.45 59.9922 1064.56L60.9801 1056.62ZM141 1136V1128C140.494 1128 139.954 1127.81 139.427 1127.3C138.872 1126.77 138.438 1125.96 138.322 1125.03L130.384 1126.02L122.445 1127.01C123.547 1135.87 130.84 1144 141 1144V1136ZM718.616 1126.02L710.678 1125.03C710.562 1125.96 710.128 1126.77 709.573 1127.3C709.046 1127.81 708.506 1128 708 1128V1136V1144C718.16 1144 725.453 1135.87 726.555 1127.01L718.616 1126.02ZM798 1046H790C790 1046.51 789.811 1047.05 789.304 1047.57C788.769 1048.13 787.961 1048.56 787.032 1048.68L788.02 1056.62L789.008 1064.56C797.867 1063.45 806 1056.16 806 1046H798ZM788.02 127.384L787.032 135.322C787.961 135.438 788.769 135.872 789.304 136.427C789.811 136.954 790 137.494 790 138H798H806C806 127.84 797.867 120.547 789.008 119.445L788.02 127.384ZM718.616 57.9801L726.555 56.9922C725.453 48.1329 718.16 40 708 40V48V56C708.506 56 709.046 56.1887 709.573 56.6958C710.128 57.2306 710.562 58.0389 710.678 58.9681L718.616 57.9801Z" fill="black" mask="url(#path-6-inside-1_1_4062)"/>
<path d="M690 102C695.523 102 699.911 106.512 700.837 111.957C705.019 136.563 724.437 155.981 749.043 160.163C754.488 161.089 759 165.477 759 171V1014C759 1019.52 754.488 1023.91 749.043 1024.84C724.711 1028.97 705.454 1048 700.984 1072.22C699.993 1077.59 695.633 1082 690.175 1082H158.825C153.367 1082 149.007 1077.59 148.016 1072.22C143.546 1048 124.288 1028.97 99.9568 1024.84C94.5121 1023.91 90 1019.52 90 1014V171C90 165.477 94.512 161.089 99.9568 160.163C124.563 155.981 143.981 136.563 148.163 111.957C149.089 106.512 153.477 102 159 102H690Z" fill="#DFE4C2"/>
<mask id="path-9-outside-2_1_4062" maskUnits="userSpaceOnUse" x="418" y="1007" width="21" height="31" fill="black">
<rect fill="white" x="418" y="1007" width="21" height="31"/>
<path d="M437.88 1011.36L426.76 1037H422.16L433.4 1011.84H418.6V1007.96H437.88V1011.36Z"/>
</mask>
<path d="M437.88 1011.36L426.76 1037H422.16L433.4 1011.84H418.6V1007.96H437.88V1011.36Z" fill="black"/>
<path d="M437.88 1011.36L438.155 1011.48L438.18 1011.42V1011.36H437.88ZM426.76 1037V1037.3H426.957L427.035 1037.12L426.76 1037ZM422.16 1037L421.886 1036.88L421.697 1037.3H422.16V1037ZM433.4 1011.84L433.674 1011.96L433.863 1011.54H433.4V1011.84ZM418.6 1011.84H418.3V1012.14H418.6V1011.84ZM418.6 1007.96V1007.66H418.3V1007.96H418.6ZM437.88 1007.96H438.18V1007.66H437.88V1007.96ZM437.88 1011.36L437.605 1011.24L426.485 1036.88L426.76 1037L427.035 1037.12L438.155 1011.48L437.88 1011.36ZM426.76 1037V1036.7H422.16V1037V1037.3H426.76V1037ZM422.16 1037L422.434 1037.12L433.674 1011.96L433.4 1011.84L433.126 1011.72L421.886 1036.88L422.16 1037ZM433.4 1011.84V1011.54H418.6V1011.84V1012.14H433.4V1011.84ZM418.6 1011.84H418.9V1007.96H418.6H418.3V1011.84H418.6ZM418.6 1007.96V1008.26H437.88V1007.96V1007.66H418.6V1007.96ZM437.88 1007.96H437.58V1011.36H437.88H438.18V1007.96H437.88Z" fill="black" mask="url(#path-9-outside-2_1_4062)"/>
<path d="M330.36 234.83C330.36 227.55 331.865 221.075 334.875 215.405C337.955 209.665 342.295 205.22 347.895 202.07C353.495 198.85 359.935 197.24 367.215 197.24C376.455 197.24 384.225 199.725 390.525 204.695C396.825 209.595 400.885 216.28 402.705 224.75H380.55C379.22 221.95 377.365 219.815 374.985 218.345C372.675 216.875 369.98 216.14 366.9 216.14C362.14 216.14 358.325 217.855 355.455 221.285C352.655 224.645 351.255 229.16 351.255 234.83C351.255 240.57 352.655 245.155 355.455 248.585C358.325 251.945 362.14 253.625 366.9 253.625C369.98 253.625 372.675 252.89 374.985 251.42C377.365 249.95 379.22 247.815 380.55 245.015H402.705C400.885 253.485 396.825 260.205 390.525 265.175C384.225 270.075 376.455 272.525 367.215 272.525C359.935 272.525 353.495 270.95 347.895 267.8C342.295 264.58 337.955 260.135 334.875 254.465C331.865 248.725 330.36 242.18 330.36 234.83ZM409.09 242.495C409.09 236.405 410.175 231.085 412.345 226.535C414.585 221.985 417.595 218.485 421.375 216.035C425.225 213.585 429.495 212.36 434.185 212.36C438.245 212.36 441.745 213.165 444.685 214.775C447.625 216.385 449.9 218.555 451.51 221.285V213.095H472.09V272H451.51V263.81C449.9 266.54 447.59 268.71 444.58 270.32C441.64 271.93 438.175 272.735 434.185 272.735C429.495 272.735 425.225 271.51 421.375 269.06C417.595 266.61 414.585 263.11 412.345 258.56C410.175 253.94 409.09 248.585 409.09 242.495ZM451.51 242.495C451.51 238.715 450.46 235.74 448.36 233.57C446.33 231.4 443.81 230.315 440.8 230.315C437.72 230.315 435.165 231.4 433.135 233.57C431.105 235.67 430.09 238.645 430.09 242.495C430.09 246.275 431.105 249.285 433.135 251.525C435.165 253.695 437.72 254.78 440.8 254.78C443.81 254.78 446.33 253.695 448.36 251.525C450.46 249.355 451.51 246.345 451.51 242.495ZM518.573 254.465V272H509.648C494.598 272 487.073 264.545 487.073 249.635V230.21H479.828V213.095H487.073V198.815H507.758V213.095H518.468V230.21H507.758V249.95C507.758 251.56 508.108 252.715 508.807 253.415C509.578 254.115 510.838 254.465 512.588 254.465H518.573Z" fill="black"/>
<path d="M195.731 322.091C208.362 320.014 242.596 354.104 250.6 364.013C257.503 372.558 263.333 383.669 270.979 391.287L271.378 391.677C290.802 386.249 321.158 387.946 340.755 391.677C354.538 368.536 367.66 351.702 389.356 335.241C415.085 315.721 418.444 319.944 426.53 349.441C436.301 385.086 438.077 430.44 419.292 463.438C423.421 471.865 425.019 481.69 429.677 489.884C431.795 493.609 436.834 495.624 438.333 499.365C441.363 506.92 422.627 524.029 419.541 531.726L419.292 532.353C424.503 533.692 466.168 549.341 454.731 557.001C451.999 557.185 448.098 552.159 445.987 550.326C437.57 543.016 426.016 540.305 416.065 535.722C414.062 539.797 411.747 543.599 409.329 547.437C424.364 553.493 436.505 559.144 445.266 573.563C446.741 575.99 449.544 583.6 443.881 581.084C443.822 581.058 435.067 568.748 433.687 567.287C426.462 559.636 415.464 555.698 405.878 552.029C404.043 554.566 401.996 556.953 400.001 559.366C403.607 570.366 410.396 583.025 420.746 588.765C426.408 591.904 438.822 593.093 427.587 600.398C443.781 609.13 460.749 614.522 477.354 622.148C530.709 646.657 568.636 699.064 589.793 752.203C592.806 759.771 609.926 805.276 605.621 812.047C603.624 813.339 600.77 812.714 598.5 812.529C604.503 830.734 606.225 844.156 606.168 863.379C635.624 852.076 629.551 821.656 624.08 797.213C616.863 764.958 612.739 732.928 623.497 700.694C630.353 680.15 643.883 656.78 663.978 646.931C675.607 641.231 690.352 640.566 696.458 654.017C706.09 675.233 686.591 694.956 679.882 713.733C656.368 756.348 716.81 825.407 661.107 885.52C646.241 901.563 623.425 913.848 601.263 914.748C599.657 951.341 569.064 945.292 542.232 949.032C495.421 955.553 456.767 968.25 407.42 958.362C383.513 953.571 386.806 933.492 400.001 918.998C392.938 919.998 385.938 920.469 378.811 920.671C375.388 933.629 370.785 950.055 356.603 954.713C345.099 958.492 300.566 961.005 295.507 943.611C276.806 945.279 252.927 945.666 255.799 921.387C258.745 896.494 283.201 897.034 288.844 880.183C296.033 858.721 291.236 801.879 287.712 778.34C284.42 756.341 282.482 761.867 271.55 743.463C241.747 693.293 237.057 632.996 243.11 576.088C230.645 572.026 220.34 563.773 211.958 553.849C201.327 558.584 190.555 565.472 184.761 575.952C183.403 578.408 181.699 586.871 178.294 587.077C175.884 587.223 175.936 584.489 176.299 582.818C180.503 563.464 195.463 557.721 209.49 548.828C206.358 546.552 203.946 543.712 201.386 540.835C189.463 542.784 176.796 548.135 168.799 557.515C166.682 559.999 164.43 566.351 160.46 565.765C152.863 559.564 177.176 543.397 181.568 541.371C186.788 538.964 192.538 537.445 198.023 535.722C194.281 528.809 176.24 505.69 175.654 504.059C174.006 499.48 181.581 494.405 183.846 490.885C187.336 485.464 191.367 471.458 194.081 464.697C174.896 434.895 173.086 397.427 179.877 363.359C181.784 353.786 187.916 327.316 195.731 322.091Z" fill="black"/>
<path d="M393.76 564.631C399.811 576.806 406.295 589.539 419.292 595.483C416.688 596.602 415.041 598.365 413.131 600.398C417.925 602.39 422.204 605.406 426.671 608.023C444.119 618.243 463.982 623.217 481.723 632.793C530.004 658.855 561.297 704.127 581.795 753.637C588.555 769.961 592.922 787.235 598.5 803.988C595.169 802.126 592.246 799.691 588.396 801.477C593.094 828.944 605.562 846.221 595.381 878.486C593.612 884.093 590.396 888.991 588.396 894.458C592.636 899.952 594.922 911.985 594.09 918.865C590.878 945.421 557.212 940.005 538.172 942.699C514.512 946.048 491.531 951.47 467.61 953.52C454.199 954.67 441.016 954.438 427.588 954.438C427.042 950.669 426.934 947.372 427.588 943.611C428.738 939.235 440.307 930.216 432.479 930.301C423.606 930.397 421.704 947.056 421.764 953.378C402.968 950.571 407.304 950.236 413.923 933.912C416.384 927.842 402.859 930.933 403.478 949.862C391.055 945.367 400.535 926.574 407.791 921.444C422.099 911.327 458.976 914.016 476.078 918.066C481.671 919.39 490.33 923.154 495.136 923.754C498.546 924.18 500.366 921.801 497.47 919.24C486.648 909.665 453.993 907.484 439.459 908.163C428.589 900.156 423.362 885.282 421.377 872.419C412.069 812.091 467.052 739.862 531.929 770.357C552.717 780.127 545.619 770.144 533.965 764.321C488.072 741.398 445.364 768.375 424.369 810.931C418.753 813.601 414.882 819.502 409.329 822.559C407.752 821.133 406.159 819.723 404.623 818.254C404.795 811.29 407.981 787.651 405.069 782.825C403.72 780.59 401.115 781.606 400.444 783.831C399.437 787.177 399.695 798.897 399.405 803.296C396.571 846.126 388.616 871.143 374.589 910.871C360.304 951.331 365.109 949.997 318.692 949.862C317.527 945.341 317.042 941.29 317.21 936.624C326.966 925.184 317.645 928.491 314.766 931.807C310.917 936.243 310.972 942.086 311.433 947.573C303.169 946.635 300.3 941.941 302.466 934.168C307.203 917.171 327.117 913.642 333.904 898.372C351.305 859.222 338.367 791.646 323.991 753.929C319.401 741.889 311.972 736.929 315.741 752.434C321.07 766.391 325.474 782.238 331.102 795.446C328.997 794.246 323.453 791.855 322.934 789.279C301.979 776.02 270.511 738.007 266.315 713.733C255.126 702.585 248.525 642.443 248.527 627.498C248.406 621.42 248.407 615.363 248.527 609.285C248.813 599.367 249.86 589.243 249.304 579.34C279.402 584.734 298.994 605.189 328.313 594.475C336.68 591.417 343.673 586.247 351.703 582.69C367.781 575.569 377.409 575.615 393.76 564.631Z" fill="#7F858E"/>
<path d="M393.759 564.631C399.811 576.806 406.294 589.539 419.292 595.483C416.688 596.602 415.041 598.365 413.131 600.398C417.924 602.39 422.204 605.406 426.671 608.023C444.119 618.243 463.982 623.217 481.723 632.793C530.004 658.855 561.296 704.127 581.795 753.637C588.555 769.961 592.922 787.235 598.5 803.988C595.169 802.126 592.245 799.691 588.396 801.477C584.056 782.312 563.154 750.113 546.459 740.295C540.036 736.519 533.269 734.72 526.666 731.604C514.832 726.019 559.218 730.919 546.784 713.483C534.506 696.265 509.126 708.818 506.899 704.825C508.865 700.062 535.185 687.628 509.172 675.521C498.199 670.412 486.984 669.152 475.066 669.732C473.156 669.825 457.014 672.529 457.42 669.673C457.584 668.539 468.01 663.18 470.109 654.914C464.404 631.528 424.638 646.054 410.838 651.53C415.068 645.59 425.965 634.618 427.97 628.205C430.661 619.595 404.487 605.47 398.003 603.654C356.94 592.15 338.522 644.039 284.142 617.059C273.059 611.559 261.148 602.097 248.526 609.285C248.812 599.367 249.86 589.243 249.304 579.34C279.402 584.734 298.994 605.189 328.312 594.475C336.679 591.417 343.672 586.247 351.703 582.69C367.78 575.569 377.409 575.615 393.759 564.631Z" fill="#5E6670"/>
<path d="M588.396 894.459C592.636 899.952 594.922 911.985 594.09 918.866C590.878 945.421 557.212 940.005 538.172 942.699C514.512 946.049 491.531 951.47 467.609 953.52C454.198 954.671 441.016 954.439 427.587 954.439C427.042 950.669 426.934 947.372 427.587 943.611C437.363 947.423 524.032 934.018 538.832 931.581C549.684 929.791 561.546 929.149 571.869 925.246C593.977 916.885 582.825 904.371 588.396 894.459Z" fill="#5E6670"/>
<path d="M248.526 627.498C255.389 618.176 259.875 614.995 264.565 628.423C269.724 643.201 272.182 658.939 277.266 673.895C279.812 681.383 297.286 717.96 276.245 718.347C272.098 718.422 269.845 715.063 266.314 713.733C255.126 702.585 248.525 642.443 248.526 627.498Z" fill="#ACAFB6"/>
<path d="M315.741 752.435C321.07 766.391 325.475 782.238 331.102 795.447C328.997 794.246 323.453 791.856 322.934 789.279C321.383 777.198 314.934 766.558 315.741 752.435Z" fill="#5E6670"/>
<path d="M198.023 330.178C224.183 341.338 252.94 375.343 266.315 399.647C296.411 395.022 314.774 394.754 344.787 400.29L345.055 399.896C363.587 372.149 377.752 344.226 412.257 330.178C427.836 379.296 432.76 406.696 416.065 455.138C413.959 450.948 411.919 446.792 409.329 442.87C419.39 418.279 426.463 377.753 405.878 356.3C388.979 360.336 362.417 384.334 359.701 402.685C363.361 406.969 368.5 409.289 372.91 412.647C411.262 441.847 405.391 463.56 425.869 496.362C427.161 498.761 428.954 500.329 431.097 501.958C424.838 512.355 416.338 521.465 409.329 531.412C406.236 531.308 403.06 531.605 400.001 531.412C392.76 531.636 374.058 532.329 368.644 536.664C365.763 542.93 390.779 536.038 394.89 535.722C398.794 535.229 403.156 535.67 407.108 535.722C405.109 539.565 402.672 542.992 400.001 546.393C395.848 545.707 391.636 545.424 387.445 545.062C382.685 545.029 373.811 543.923 369.75 546.609L369.818 547.385C374.256 549.432 380.03 548.829 384.832 548.828C388.987 549.199 393.153 549.512 397.277 550.145C384.788 564.812 368.343 567.835 351.318 574.718C338.985 579.705 327.955 588.503 314.346 589.871C298.395 591.472 285.397 581.795 271.069 576.602C243.963 566.778 242.896 571.405 219.254 552.029C223.236 549.722 227.149 547.999 231.763 547.437C233.018 547.001 233.926 546.72 234.856 545.707L234.809 545.008C232.83 544.032 231.09 544.616 229.043 545.062C227.113 543.001 225.487 540.448 223.76 538.198C226.435 538.258 229.09 538.288 231.763 538.198C233.755 538.18 236.4 538.51 237.879 536.958L237.473 536.268C232.408 533.407 224.917 533.192 219.254 533.674C214.869 533.531 210.491 533.605 206.106 533.674C202.146 529.097 187.949 508.089 183.973 501.958C186.231 499.189 189.159 496.553 190.551 493.235C207.688 465.993 204.912 443.547 234.57 414.779C239.774 409.73 245.993 405.616 250.886 400.29C244.016 386.933 221.164 363.457 206.423 358.887C197.523 356.128 194.896 368.244 193.373 374.573C189.187 391.973 189.15 412.361 194.54 429.474C196.514 435.74 199.819 441.642 201.386 447.999C200.551 451.262 199.551 454.046 198.023 457.059C177.657 421.836 179.791 366.726 198.023 330.178Z" fill="#7F858E"/>
<path d="M219.254 552.028C223.236 549.721 227.149 547.999 231.763 547.437C243.453 553.527 253.157 558.093 265.04 563.65C312.194 585.698 313.135 579.867 357.201 562.131C366.111 558.544 377.952 556.025 384.832 548.828C388.987 549.199 393.153 549.512 397.277 550.145C384.788 564.812 368.343 567.835 351.318 574.718C338.985 579.705 327.955 588.503 314.346 589.871C298.394 591.472 285.397 581.795 271.069 576.602C243.963 566.778 242.896 571.405 219.254 552.028Z" fill="#5E6670"/>
<path d="M425.869 496.362C427.161 498.761 428.953 500.329 431.097 501.958C424.838 512.355 416.338 521.465 409.329 531.412C406.236 531.308 403.06 531.605 400.001 531.412C412.835 513.281 410.554 516.89 391.949 510.632C399.695 507.672 408.42 507.049 415.833 503.272C419.191 501.561 421.911 498.594 425.264 496.7L425.869 496.362Z" fill="#5E6670"/>
<path d="M190.551 493.235C197.248 508.995 203.229 508.128 217.965 511.492C213.172 515.647 208.816 518.841 206.106 524.805C209.754 528.974 213.77 532.412 219.254 533.674C214.868 533.531 210.491 533.605 206.106 533.674C202.145 529.097 187.948 508.088 183.973 501.958C186.231 499.189 189.159 496.553 190.551 493.235Z" fill="#5E6670"/>
<path d="M394.89 535.722C398.793 535.229 403.156 535.67 407.108 535.722C405.108 539.565 402.672 542.992 400.001 546.393C395.847 545.707 391.635 545.425 387.444 545.062C389.586 543.369 395.947 539.361 395.769 536.173L394.89 535.722Z" fill="#5E6670"/>
<path d="M305.989 510.633C315.603 509.682 324.9 512.69 327.626 522.727C324.981 530.987 316.889 534.757 311.433 540.835C315.572 551.756 329.267 559.644 337.521 547.642C339.041 545.431 339.319 540.967 342.032 539.873C347.258 537.765 346.395 550.674 337.837 557.505C327.72 565.58 316.64 561.44 309.435 552.029C307.205 549.432 304.221 557.04 299.354 560.147C281.175 571.75 262.854 542.108 272.646 540.9C275.568 540.539 286.015 564.286 298.592 550.2C305.582 542.374 301.329 539.188 295.115 533.844C280.244 521.055 289.681 510.492 305.989 510.633Z" fill="black"/>
<path d="M302.015 519.093C306.373 517.924 309.103 517.469 313.443 519.093C315.379 519.457 316.951 520.243 318.692 521.111C316.034 525.656 311.912 529.489 306.997 531.412C302.605 529.164 288.964 518.722 302.015 519.093Z" fill="#EF4442"/>
<path d="M302.015 519.093C306.373 517.924 309.103 517.469 313.443 519.093C311.064 524.432 303.955 525.587 302.015 519.093Z" fill="#FFFFEE"/>
<path d="M248.527 468.841C267.576 465.426 274.162 483.334 282.32 496.362C276.556 501.479 269.682 505.219 261.892 505.628C246.697 505.116 238.64 493.696 235.691 479.546C235.514 479.157 235.681 477.974 235.691 477.499C229.008 473.261 228.121 467.988 237.625 470.937C241.217 469.985 244.844 469.305 248.527 468.841Z" fill="black"/>
<path d="M248.527 477.499C250.744 477.128 252.722 477.294 254.938 477.499L253.714 481.606C252.683 487.59 252.567 491.861 253.714 497.824C251.455 495.798 249.116 493.829 247.269 491.405C244.367 487.858 242.574 483.804 241.001 479.546C243.404 478.623 245.968 477.796 248.527 477.499Z" fill="#FFFFEE"/>
<path d="M248.527 477.499C250.744 477.128 252.722 477.294 254.938 477.499L253.714 481.606C252.683 487.59 252.567 491.861 253.714 497.824C251.455 495.798 249.116 493.829 247.269 491.405C250.329 489.384 250.25 484.886 250.886 481.606C251.445 478.41 252.146 477.804 248.527 477.499Z" fill="#FFFEB3"/>
<path d="M264.334 481.606C268.973 484.016 273.29 491.874 275.695 496.362C274.311 496.991 272.83 497.385 271.378 497.824C268.251 498.682 265.114 498.986 261.892 499.244C262.454 493.344 263.439 487.462 264.334 481.606Z" fill="#F3C719"/>
<path d="M367.519 466.393C373.752 465.733 377.291 468.119 384.832 466.393C383.262 467.245 381.587 467.932 379.958 468.664L380.796 471.166C385.495 485.16 370.994 503.218 356.159 505.628C348.898 505.357 342.733 502.966 336.577 499.244C342.261 481.752 347.02 468.611 367.519 466.393Z" fill="black"/>
<path d="M354.403 479.546L354.787 479.667C356.422 481.946 358.899 494.504 359.701 497.824C356.295 498.551 353.586 498.493 350.182 497.824C347.836 497.64 345.722 497.321 343.555 496.362C345.986 490.184 349.483 484.059 354.403 479.546Z" fill="#F3C719"/>
<path d="M363.838 475.726C368.142 474.697 371.494 474.646 375.752 475.726C375.002 480.221 373.109 484.356 371.078 488.394C370.318 490.049 369.383 491.635 368.512 493.235C367.231 486.91 366.864 481.566 363.838 475.726Z" fill="#FFFEB3"/>
<path d="M258.732 442.87C264.33 443.035 272.127 449.572 267.557 455.137C263.879 452.536 254.832 446.778 258.732 442.87Z" fill="black"/>
<path d="M350.182 442.87C356.932 445.131 346.932 452.954 344.787 455.137C337.35 453.038 346.691 444.373 350.182 442.87Z" fill="black"/>
<path d="M635.673 818.254C630.727 775.075 613.39 752.05 630.183 702.343C636.163 684.64 659.67 642.943 683.874 651.531C700.818 657.602 686.403 685.749 680.799 695.311C658.01 734.191 667.986 746.538 675.295 787.083C686.059 846.791 665.176 899.702 601.263 908.163C599.919 903.582 598.986 898.669 596.685 894.458C599.791 887.299 602.698 878.072 606.168 871.471C633.297 854.41 638.209 850.794 635.673 818.254Z" fill="#5E6670"/>
<path d="M635.673 818.254C630.727 775.075 613.39 752.05 630.183 702.343C636.163 684.64 659.669 642.943 683.874 651.531C687.612 667.863 668.96 685.535 662.813 700.023C643.522 745.484 666.228 790.504 651.278 822.559C644.747 804.214 639.465 780.01 637.293 760.962C636.911 757.601 636.893 753.727 635.856 750.51L635.395 750.489C628.949 760.792 640.265 810.602 635.673 818.254Z" fill="#7F858E"/>
<path d="M293.299 771.873C305.834 788.813 315.501 793.06 331.102 803.989C334.345 822.174 337.324 880.956 326.311 897.356C318.861 908.451 301.131 914.379 296.857 928.733C296.468 931.378 296.014 933.999 295.508 936.624C290.145 936.402 284.783 936.164 279.499 935.146C267.511 935.768 276.102 920.083 282.32 917.031C279.835 906.698 269.184 922.372 267.557 928.733C267.563 930.863 267.63 933.018 267.557 935.146C266.354 933.638 265.268 932.193 264.335 930.491C253.722 911.528 287.916 898.217 294.045 887.426C304.746 868.584 296.983 833.827 299.779 812.529C295.96 799.414 297.171 785.194 293.299 771.873Z" fill="#7F858E"/>
<path d="M293.298 771.873C305.833 788.813 315.501 793.06 331.101 803.989C334.345 822.174 337.323 880.956 326.311 897.356C318.86 908.451 301.131 914.379 296.857 928.733C296.468 931.378 296.014 933.999 295.507 936.624C290.145 936.402 284.782 936.164 279.498 935.146C267.511 935.768 276.102 920.083 282.32 917.031C284.921 921.272 304.198 911.239 307.41 909.494C333.141 895.506 325.765 815.24 305.989 809.546C303.57 810.062 301.814 811.179 299.778 812.529C295.96 799.414 297.171 785.194 293.298 771.873Z" fill="#5E6670"/>
<path d="M279.499 935.146C285.382 933.289 290.763 929.88 296.857 928.733C296.468 931.378 296.014 933.999 295.507 936.624C290.145 936.402 284.783 936.163 279.499 935.146Z" fill="#3C4150"/>
<path d="M267.556 928.733C267.563 930.863 267.63 933.018 267.556 935.146C266.354 933.638 265.267 932.193 264.334 930.491C265.506 929.994 266.496 929.437 267.556 928.733Z" fill="#5E6670"/>
<path d="M204.023 365.176C221.917 374.849 230.165 385.043 243.11 399.647C235.759 403.984 229.814 409.297 223.76 415.253C217.117 423.162 212.395 431.807 206.106 439.266C196.515 418.754 195.018 394.623 201.386 373.012C202.041 370.31 202.807 367.689 204.023 365.176Z" fill="#F6B290"/>
<path d="M204.023 365.176C221.917 374.849 230.165 385.043 243.11 399.647C235.759 403.984 229.814 409.297 223.76 415.253C223.121 398.933 213.892 383.137 201.386 373.012C202.041 370.31 202.807 367.689 204.023 365.176Z" fill="#E87F3F"/>
<path d="M367.519 400.29C373.329 387.199 389.791 367.92 403.478 365.176L405.878 368.596C416.313 391.517 412.879 412.792 404.623 435.57C401.873 432.051 392.488 421.844 391.232 418.442C383.119 412.656 375.77 405.99 367.519 400.29Z" fill="#F6B290"/>
<path d="M367.519 400.29C373.329 387.199 389.791 367.92 403.478 365.176L405.878 368.596C393.16 373.932 383.585 400.058 388.861 412.686C389.653 414.586 390.773 416.431 391.232 418.442C383.119 412.656 375.77 405.99 367.519 400.29Z" fill="#E87F3F"/>
<path d="M409.329 822.559C414.882 819.502 418.753 813.601 424.369 810.931C416.256 840.277 404.618 868.748 424.369 898.228C413.943 894.885 400.247 886.761 393.759 877.801C399.138 856.533 401.334 839.681 404.623 818.254C406.159 819.723 407.752 821.133 409.329 822.559Z" fill="#5E6670"/>
<path d="M391.232 885.518C397.797 889.356 402.95 895.369 409.837 899.154C415.67 902.36 425.552 904.18 429.357 906.767L429.163 907.275C425.245 908.909 420.277 909.242 416.065 909.897C404.814 911.941 392.863 913.367 381.42 913.448C385.126 904.267 388.165 894.926 391.232 885.518Z" fill="#5E6670"/>
<path d="M209.49 538.198C216.891 538.619 224.425 537.147 231.763 538.198C229.09 538.288 226.435 538.258 223.76 538.198C225.487 540.448 227.113 543.001 229.042 545.062C224.206 545.078 220.483 545.823 215.957 547.437C213.316 544.591 211.393 541.568 209.49 538.198Z" fill="#5E6670"/>
</svg>
