<svg width="849" height="1183" viewBox="0 0 849 1183" fill="none" xmlns="http://www.w3.org/2000/svg">
<rect x="5" y="5" width="839" height="1173" rx="45" fill="white"/>
<rect x="5" y="5" width="839" height="1173" rx="45" stroke="black" stroke-width="10"/>
<circle cx="786.5" cy="1124.5" r="11.5" fill="black"/>
<circle cx="786.5" cy="59.5" r="11.5" fill="black"/>
<path d="M77 1124.5C77 1130.85 71.8513 1136 65.5 1136C59.1487 1136 54 1130.85 54 1124.5C54 1118.15 59.1487 1113 65.5 1113C71.8513 1113 77 1118.15 77 1124.5Z" fill="black"/>
<path d="M77 59.5C77 65.8513 71.8513 71 65.5 71C59.1487 71 54 65.8513 54 59.5C54 53.1487 59.1487 48 65.5 48C71.8513 48 77 53.1487 77 59.5Z" fill="black"/>
<mask id="path-6-inside-1_1_1809" fill="white">
<path d="M708 48C713.523 48 717.934 52.4996 718.616 57.9801C723.122 94.1833 751.817 122.878 788.02 127.384C793.5 128.066 798 132.477 798 138V1046C798 1051.52 793.5 1055.93 788.02 1056.62C751.817 1061.12 723.122 1089.82 718.616 1126.02C717.934 1131.5 713.523 1136 708 1136H141C135.477 1136 131.066 1131.5 130.384 1126.02C125.878 1089.82 97.1833 1061.12 60.9801 1056.62C55.4996 1055.93 51 1051.52 51 1046V138C51 132.477 55.4996 128.066 60.9801 127.384C97.1833 122.878 125.878 94.1833 130.384 57.9801C131.066 52.4996 135.477 48 141 48H708Z"/>
</mask>
<path d="M708 48C713.523 48 717.934 52.4996 718.616 57.9801C723.122 94.1833 751.817 122.878 788.02 127.384C793.5 128.066 798 132.477 798 138V1046C798 1051.52 793.5 1055.93 788.02 1056.62C751.817 1061.12 723.122 1089.82 718.616 1126.02C717.934 1131.5 713.523 1136 708 1136H141C135.477 1136 131.066 1131.5 130.384 1126.02C125.878 1089.82 97.1833 1061.12 60.9801 1056.62C55.4996 1055.93 51 1051.52 51 1046V138C51 132.477 55.4996 128.066 60.9801 127.384C97.1833 122.878 125.878 94.1833 130.384 57.9801C131.066 52.4996 135.477 48 141 48H708Z" fill="#77B866"/>
<path d="M130.384 1126.02L138.322 1125.03L130.384 1126.02ZM718.616 1126.02L710.678 1125.03L718.616 1126.02ZM788.02 1056.62L789.008 1064.56L788.02 1056.62ZM718.616 57.9801L726.555 56.9922L718.616 57.9801ZM718.616 57.9801L710.678 58.9681C715.635 98.8063 747.194 130.365 787.032 135.322L788.02 127.384L789.008 119.445C756.44 115.392 730.608 89.5603 726.555 56.9922L718.616 57.9801ZM798 138H790V1046H798H806V138H798ZM788.02 1056.62L787.032 1048.68C747.194 1053.64 715.635 1085.19 710.678 1125.03L718.616 1126.02L726.555 1127.01C730.608 1094.44 756.44 1068.61 789.008 1064.56L788.02 1056.62ZM708 1136V1128H141V1136V1144H708V1136ZM130.384 1126.02L138.322 1125.03C133.365 1085.19 101.806 1053.64 61.9681 1048.68L60.9801 1056.62L59.9922 1064.56C92.5603 1068.61 118.392 1094.44 122.445 1127.01L130.384 1126.02ZM51 1046H59V138H51H43V1046H51ZM60.9801 127.384L61.9681 135.322C101.806 130.365 133.365 98.8063 138.322 58.9681L130.384 57.9801L122.445 56.9922C118.392 89.5603 92.5603 115.392 59.9922 119.445L60.9801 127.384ZM141 48V56H708V48V40H141V48ZM130.384 57.9801L138.322 58.9681C138.438 58.0389 138.872 57.2306 139.427 56.6958C139.954 56.1887 140.494 56 141 56V48V40C130.84 40 123.547 48.1329 122.445 56.9922L130.384 57.9801ZM51 138H59C59 137.494 59.1887 136.954 59.6958 136.427C60.2306 135.872 61.0389 135.438 61.9681 135.322L60.9801 127.384L59.9922 119.445C51.1329 120.547 43 127.84 43 138H51ZM60.9801 1056.62L61.9681 1048.68C61.0389 1048.56 60.2306 1048.13 59.6958 1047.57C59.1887 1047.05 59 1046.51 59 1046H51H43C43 1056.16 51.1329 1063.45 59.9922 1064.56L60.9801 1056.62ZM141 1136V1128C140.494 1128 139.954 1127.81 139.427 1127.3C138.872 1126.77 138.438 1125.96 138.322 1125.03L130.384 1126.02L122.445 1127.01C123.547 1135.87 130.84 1144 141 1144V1136ZM718.616 1126.02L710.678 1125.03C710.562 1125.96 710.128 1126.77 709.573 1127.3C709.046 1127.81 708.506 1128 708 1128V1136V1144C718.16 1144 725.453 1135.87 726.555 1127.01L718.616 1126.02ZM798 1046H790C790 1046.51 789.811 1047.05 789.304 1047.57C788.769 1048.13 787.961 1048.56 787.032 1048.68L788.02 1056.62L789.008 1064.56C797.867 1063.45 806 1056.16 806 1046H798ZM788.02 127.384L787.032 135.322C787.961 135.438 788.769 135.872 789.304 136.427C789.811 136.954 790 137.494 790 138H798H806C806 127.84 797.867 120.547 789.008 119.445L788.02 127.384ZM718.616 57.9801L726.555 56.9922C725.453 48.1329 718.16 40 708 40V48V56C708.506 56 709.046 56.1887 709.573 56.6958C710.128 57.2306 710.562 58.0389 710.678 58.9681L718.616 57.9801Z" fill="black" mask="url(#path-6-inside-1_1_1809)"/>
<path d="M690 102C695.523 102 699.911 106.512 700.837 111.957C705.019 136.563 724.437 155.981 749.043 160.163C754.488 161.089 759 165.477 759 171V1014C759 1019.52 754.488 1023.91 749.043 1024.84C724.711 1028.97 705.454 1048 700.984 1072.22C699.993 1077.59 695.633 1082 690.175 1082H158.825C153.367 1082 149.007 1077.59 148.016 1072.22C143.546 1048 124.288 1028.97 99.9568 1024.84C94.5121 1023.91 90 1019.52 90 1014V171C90 165.477 94.512 161.089 99.9568 160.163C124.563 155.981 143.981 136.563 148.163 111.957C149.089 106.512 153.477 102 159 102H690Z" fill="#A3CC98"/>
<path d="M356.145 197.975L337.98 272H312.675L302.49 226.64L292.095 272H266.79L248.835 197.975H271.095L279.705 248.585L291.36 197.975H313.935L325.275 248.165L333.885 197.975H356.145ZM375.273 207.635C371.633 207.635 368.693 206.655 366.453 204.695C364.283 202.665 363.198 200.145 363.198 197.135C363.198 194.055 364.283 191.5 366.453 189.47C368.693 187.44 371.633 186.425 375.273 186.425C378.843 186.425 381.713 187.44 383.883 189.47C386.123 191.5 387.243 194.055 387.243 197.135C387.243 200.145 386.123 202.665 383.883 204.695C381.713 206.655 378.843 207.635 375.273 207.635ZM385.458 213.095V272H364.878V213.095H385.458ZM435.713 212.57C442.503 212.57 447.893 214.845 451.883 219.395C455.873 223.875 457.868 229.965 457.868 237.665V272H437.288V240.395C437.288 237.035 436.413 234.41 434.663 232.52C432.913 230.56 430.568 229.58 427.628 229.58C424.548 229.58 422.133 230.56 420.383 232.52C418.633 234.41 417.758 237.035 417.758 240.395V272H397.178V213.095H417.758V221.495C419.578 218.835 422.028 216.7 425.108 215.09C428.188 213.41 431.723 212.57 435.713 212.57ZM465.8 242.495C465.8 236.405 466.885 231.085 469.055 226.535C471.295 221.985 474.34 218.485 478.19 216.035C482.04 213.585 486.31 212.36 491 212.36C494.78 212.36 498.14 213.165 501.08 214.775C504.09 216.315 506.435 218.45 508.115 221.18V194.3H528.8V272H508.115V263.81C506.505 266.54 504.23 268.71 501.29 270.32C498.35 271.93 494.885 272.735 490.895 272.735C486.205 272.735 481.935 271.51 478.085 269.06C474.305 266.61 471.295 263.11 469.055 258.56C466.885 253.94 465.8 248.585 465.8 242.495ZM508.22 242.495C508.22 238.715 507.17 235.74 505.07 233.57C503.04 231.4 500.52 230.315 497.51 230.315C494.43 230.315 491.875 231.4 489.845 233.57C487.815 235.67 486.8 238.645 486.8 242.495C486.8 246.275 487.815 249.285 489.845 251.525C491.875 253.695 494.43 254.78 497.51 254.78C500.52 254.78 503.04 253.695 505.07 251.525C507.17 249.355 508.22 246.345 508.22 242.495ZM603.947 213.095L566.567 300.035H544.202L558.272 269.48L534.122 213.095H557.012L569.402 246.485L581.372 213.095H603.947Z" fill="black"/>
<mask id="path-10-outside-2_1_1809" maskUnits="userSpaceOnUse" x="407" y="1006" width="46" height="33" fill="black">
<rect fill="white" x="407" y="1006" width="46" height="33"/>
<path d="M410.92 1030.8C413.48 1028.59 415.493 1026.77 416.96 1025.36C418.453 1023.92 419.693 1022.43 420.68 1020.88C421.667 1019.33 422.16 1017.79 422.16 1016.24C422.16 1014.64 421.773 1013.39 421 1012.48C420.253 1011.57 419.067 1011.12 417.44 1011.12C415.867 1011.12 414.64 1011.63 413.76 1012.64C412.907 1013.63 412.453 1014.96 412.4 1016.64H408C408.08 1013.6 408.987 1011.28 410.72 1009.68C412.48 1008.05 414.707 1007.24 417.4 1007.24C420.307 1007.24 422.573 1008.04 424.2 1009.64C425.853 1011.24 426.68 1013.37 426.68 1016.04C426.68 1017.96 426.187 1019.81 425.2 1021.6C424.24 1023.36 423.08 1024.95 421.72 1026.36C420.387 1027.75 418.68 1029.36 416.6 1031.2L414.8 1032.8H427.48V1036.6H408.04V1033.28L410.92 1030.8ZM436.406 1021.76C433.633 1020.37 432.246 1018.19 432.246 1015.2C432.246 1013.76 432.606 1012.44 433.326 1011.24C434.046 1010.04 435.126 1009.09 436.566 1008.4C438.006 1007.68 439.766 1007.32 441.846 1007.32C443.899 1007.32 445.646 1007.68 447.086 1008.4C448.553 1009.09 449.646 1010.04 450.366 1011.24C451.086 1012.44 451.446 1013.76 451.446 1015.2C451.446 1016.69 451.059 1018.01 450.286 1019.16C449.539 1020.28 448.539 1021.15 447.286 1021.76C448.806 1022.32 450.006 1023.24 450.886 1024.52C451.766 1025.77 452.206 1027.25 452.206 1028.96C452.206 1030.69 451.766 1032.23 450.886 1033.56C450.006 1034.89 448.779 1035.92 447.206 1036.64C445.633 1037.36 443.846 1037.72 441.846 1037.72C439.846 1037.72 438.059 1037.36 436.486 1036.64C434.939 1035.92 433.726 1034.89 432.846 1033.56C431.966 1032.23 431.526 1030.69 431.526 1028.96C431.526 1027.23 431.966 1025.73 432.846 1024.48C433.726 1023.23 434.913 1022.32 436.406 1021.76ZM447.086 1015.76C447.086 1014.27 446.619 1013.12 445.686 1012.32C444.753 1011.52 443.473 1011.12 441.846 1011.12C440.246 1011.12 438.979 1011.52 438.046 1012.32C437.113 1013.12 436.646 1014.28 436.646 1015.8C436.646 1017.13 437.126 1018.23 438.086 1019.08C439.073 1019.91 440.326 1020.32 441.846 1020.32C443.366 1020.32 444.619 1019.89 445.606 1019.04C446.593 1018.19 447.086 1017.09 447.086 1015.76ZM441.846 1023.76C440.086 1023.76 438.646 1024.2 437.526 1025.08C436.433 1025.93 435.886 1027.17 435.886 1028.8C435.886 1030.32 436.419 1031.56 437.486 1032.52C438.553 1033.45 440.006 1033.92 441.846 1033.92C443.659 1033.92 445.086 1033.44 446.126 1032.48C447.193 1031.52 447.726 1030.29 447.726 1028.8C447.726 1027.2 447.179 1025.96 446.086 1025.08C445.019 1024.2 443.606 1023.76 441.846 1023.76Z"/>
</mask>
<path d="M410.92 1030.8C413.48 1028.59 415.493 1026.77 416.96 1025.36C418.453 1023.92 419.693 1022.43 420.68 1020.88C421.667 1019.33 422.16 1017.79 422.16 1016.24C422.16 1014.64 421.773 1013.39 421 1012.48C420.253 1011.57 419.067 1011.12 417.44 1011.12C415.867 1011.12 414.64 1011.63 413.76 1012.64C412.907 1013.63 412.453 1014.96 412.4 1016.64H408C408.08 1013.6 408.987 1011.28 410.72 1009.68C412.48 1008.05 414.707 1007.24 417.4 1007.24C420.307 1007.24 422.573 1008.04 424.2 1009.64C425.853 1011.24 426.68 1013.37 426.68 1016.04C426.68 1017.96 426.187 1019.81 425.2 1021.6C424.24 1023.36 423.08 1024.95 421.72 1026.36C420.387 1027.75 418.68 1029.36 416.6 1031.2L414.8 1032.8H427.48V1036.6H408.04V1033.28L410.92 1030.8ZM436.406 1021.76C433.633 1020.37 432.246 1018.19 432.246 1015.2C432.246 1013.76 432.606 1012.44 433.326 1011.24C434.046 1010.04 435.126 1009.09 436.566 1008.4C438.006 1007.68 439.766 1007.32 441.846 1007.32C443.899 1007.32 445.646 1007.68 447.086 1008.4C448.553 1009.09 449.646 1010.04 450.366 1011.24C451.086 1012.44 451.446 1013.76 451.446 1015.2C451.446 1016.69 451.059 1018.01 450.286 1019.16C449.539 1020.28 448.539 1021.15 447.286 1021.76C448.806 1022.32 450.006 1023.24 450.886 1024.52C451.766 1025.77 452.206 1027.25 452.206 1028.96C452.206 1030.69 451.766 1032.23 450.886 1033.56C450.006 1034.89 448.779 1035.92 447.206 1036.64C445.633 1037.36 443.846 1037.72 441.846 1037.72C439.846 1037.72 438.059 1037.36 436.486 1036.64C434.939 1035.92 433.726 1034.89 432.846 1033.56C431.966 1032.23 431.526 1030.69 431.526 1028.96C431.526 1027.23 431.966 1025.73 432.846 1024.48C433.726 1023.23 434.913 1022.32 436.406 1021.76ZM447.086 1015.76C447.086 1014.27 446.619 1013.12 445.686 1012.32C444.753 1011.52 443.473 1011.12 441.846 1011.12C440.246 1011.12 438.979 1011.52 438.046 1012.32C437.113 1013.12 436.646 1014.28 436.646 1015.8C436.646 1017.13 437.126 1018.23 438.086 1019.08C439.073 1019.91 440.326 1020.32 441.846 1020.32C443.366 1020.32 444.619 1019.89 445.606 1019.04C446.593 1018.19 447.086 1017.09 447.086 1015.76ZM441.846 1023.76C440.086 1023.76 438.646 1024.2 437.526 1025.08C436.433 1025.93 435.886 1027.17 435.886 1028.8C435.886 1030.32 436.419 1031.56 437.486 1032.52C438.553 1033.45 440.006 1033.92 441.846 1033.92C443.659 1033.92 445.086 1033.44 446.126 1032.48C447.193 1031.52 447.726 1030.29 447.726 1028.8C447.726 1027.2 447.179 1025.96 446.086 1025.08C445.019 1024.2 443.606 1023.76 441.846 1023.76Z" fill="black"/>
<path d="M410.92 1030.8L411.116 1031.03L411.116 1031.03L410.92 1030.8ZM416.96 1025.36L417.168 1025.58L417.168 1025.58L416.96 1025.36ZM421 1012.48L420.768 1012.67L420.772 1012.67L421 1012.48ZM413.76 1012.64L413.533 1012.44L413.533 1012.44L413.76 1012.64ZM412.4 1016.64V1016.94H412.691L412.7 1016.65L412.4 1016.64ZM408 1016.64L407.7 1016.63L407.692 1016.94H408V1016.64ZM410.72 1009.68L410.923 1009.9L410.924 1009.9L410.72 1009.68ZM424.2 1009.64L423.99 1009.85L423.991 1009.86L424.2 1009.64ZM425.2 1021.6L424.937 1021.45L424.937 1021.46L425.2 1021.6ZM421.72 1026.36L421.504 1026.15L421.504 1026.15L421.72 1026.36ZM416.6 1031.2L416.401 1030.98L416.401 1030.98L416.6 1031.2ZM414.8 1032.8L414.601 1032.58L414.011 1033.1H414.8V1032.8ZM427.48 1032.8H427.78V1032.5H427.48V1032.8ZM427.48 1036.6V1036.9H427.78V1036.6H427.48ZM408.04 1036.6H407.74V1036.9H408.04V1036.6ZM408.04 1033.28L407.844 1033.05L407.74 1033.14V1033.28H408.04ZM410.92 1030.8L411.116 1031.03C413.678 1028.81 415.696 1026.99 417.168 1025.58L416.96 1025.36L416.752 1025.14C415.291 1026.55 413.282 1028.36 410.724 1030.57L410.92 1030.8ZM416.96 1025.36L417.168 1025.58C418.676 1024.12 419.932 1022.61 420.933 1021.04L420.68 1020.88L420.427 1020.72C419.455 1022.24 418.23 1023.72 416.752 1025.14L416.96 1025.36ZM420.68 1020.88L420.933 1021.04C421.945 1019.46 422.46 1017.85 422.46 1016.24H422.16H421.86C421.86 1017.72 421.389 1019.21 420.427 1020.72L420.68 1020.88ZM422.16 1016.24H422.46C422.46 1014.59 422.062 1013.26 421.228 1012.29L421 1012.48L420.772 1012.67C421.485 1013.51 421.86 1014.69 421.86 1016.24H422.16ZM421 1012.48L421.232 1012.29C420.408 1011.29 419.12 1010.82 417.44 1010.82V1011.12V1011.42C419.013 1011.42 420.098 1011.86 420.768 1012.67L421 1012.48ZM417.44 1011.12V1010.82C415.796 1010.82 414.48 1011.35 413.533 1012.44L413.76 1012.64L413.987 1012.84C414.8 1011.9 415.937 1011.42 417.44 1011.42V1011.12ZM413.76 1012.64L413.533 1012.44C412.623 1013.5 412.155 1014.9 412.1 1016.63L412.4 1016.64L412.7 1016.65C412.752 1015.02 413.19 1013.76 413.987 1012.84L413.76 1012.64ZM412.4 1016.64V1016.34H408V1016.64V1016.94H412.4V1016.64ZM408 1016.64L408.3 1016.65C408.378 1013.66 409.266 1011.43 410.923 1009.9L410.72 1009.68L410.517 1009.46C408.708 1011.13 407.782 1013.54 407.7 1016.63L408 1016.64ZM410.72 1009.68L410.924 1009.9C412.621 1008.33 414.772 1007.54 417.4 1007.54V1007.24V1006.94C414.641 1006.94 412.339 1007.78 410.516 1009.46L410.72 1009.68ZM417.4 1007.24V1007.54C420.251 1007.54 422.433 1008.32 423.99 1009.85L424.2 1009.64L424.41 1009.43C422.713 1007.76 420.363 1006.94 417.4 1006.94V1007.24ZM424.2 1009.64L423.991 1009.86C425.577 1011.39 426.38 1013.44 426.38 1016.04H426.68H426.98C426.98 1013.31 426.13 1011.09 424.409 1009.42L424.2 1009.64ZM426.68 1016.04H426.38C426.38 1017.91 425.901 1019.71 424.937 1021.45L425.2 1021.6L425.463 1021.75C426.472 1019.92 426.98 1018.01 426.98 1016.04H426.68ZM425.2 1021.6L424.937 1021.46C423.989 1023.19 422.845 1024.76 421.504 1026.15L421.72 1026.36L421.936 1026.57C423.315 1025.14 424.491 1023.53 425.463 1021.74L425.2 1021.6ZM421.72 1026.36L421.504 1026.15C420.178 1027.53 418.478 1029.14 416.401 1030.98L416.6 1031.2L416.799 1031.42C418.882 1029.58 420.595 1027.96 421.936 1026.57L421.72 1026.36ZM416.6 1031.2L416.401 1030.98L414.601 1032.58L414.8 1032.8L414.999 1033.02L416.799 1031.42L416.6 1031.2ZM414.8 1032.8V1033.1H427.48V1032.8V1032.5H414.8V1032.8ZM427.48 1032.8H427.18V1036.6H427.48H427.78V1032.8H427.48ZM427.48 1036.6V1036.3H408.04V1036.6V1036.9H427.48V1036.6ZM408.04 1036.6H408.34V1033.28H408.04H407.74V1036.6H408.04ZM408.04 1033.28L408.236 1033.51L411.116 1031.03L410.92 1030.8L410.724 1030.57L407.844 1033.05L408.04 1033.28ZM436.406 1021.76L436.511 1022.04L437.155 1021.8L436.54 1021.49L436.406 1021.76ZM433.326 1011.24L433.069 1011.09L433.326 1011.24ZM436.566 1008.4L436.696 1008.67L436.7 1008.67L436.566 1008.4ZM447.086 1008.4L446.952 1008.67L446.958 1008.67L447.086 1008.4ZM450.366 1011.24L450.623 1011.09L450.366 1011.24ZM450.286 1019.16L450.037 1018.99L450.036 1018.99L450.286 1019.16ZM447.286 1021.76L447.154 1021.49L446.524 1021.8L447.182 1022.04L447.286 1021.76ZM450.886 1024.52L450.639 1024.69L450.64 1024.69L450.886 1024.52ZM450.886 1033.56L451.136 1033.73L450.886 1033.56ZM447.206 1036.64L447.081 1036.37L447.206 1036.64ZM436.486 1036.64L436.359 1036.91L436.361 1036.91L436.486 1036.64ZM432.846 1033.56L432.596 1033.73L432.846 1033.56ZM432.846 1024.48L432.6 1024.31L432.846 1024.48ZM445.686 1012.32L445.881 1012.09V1012.09L445.686 1012.32ZM438.046 1012.32L437.851 1012.09V1012.09L438.046 1012.32ZM438.086 1019.08L437.887 1019.3L437.893 1019.31L438.086 1019.08ZM437.526 1025.08L437.711 1025.32L437.711 1025.32L437.526 1025.08ZM437.486 1032.52L437.285 1032.74L437.288 1032.75L437.486 1032.52ZM446.126 1032.48L445.925 1032.26L445.922 1032.26L446.126 1032.48ZM446.086 1025.08L445.895 1025.31L445.898 1025.31L446.086 1025.08ZM436.406 1021.76L436.54 1021.49C435.193 1020.82 434.198 1019.96 433.539 1018.92C432.881 1017.88 432.546 1016.65 432.546 1015.2H432.246H431.946C431.946 1016.74 432.304 1018.09 433.033 1019.24C433.76 1020.39 434.846 1021.32 436.272 1022.03L436.406 1021.76ZM432.246 1015.2H432.546C432.546 1013.81 432.892 1012.55 433.583 1011.39L433.326 1011.24L433.069 1011.09C432.32 1012.33 431.946 1013.71 431.946 1015.2H432.246ZM433.326 1011.24L433.583 1011.39C434.269 1010.25 435.301 1009.34 436.696 1008.67L436.566 1008.4L436.436 1008.13C434.951 1008.84 433.823 1009.83 433.069 1011.09L433.326 1011.24ZM436.566 1008.4L436.7 1008.67C438.088 1007.97 439.799 1007.62 441.846 1007.62V1007.32V1007.02C439.733 1007.02 437.924 1007.39 436.432 1008.13L436.566 1008.4ZM441.846 1007.32V1007.62C443.865 1007.62 445.563 1007.97 446.952 1008.67L447.086 1008.4L447.22 1008.13C445.729 1007.39 443.933 1007.02 441.846 1007.02V1007.32ZM447.086 1008.4L446.958 1008.67C448.38 1009.34 449.424 1010.25 450.109 1011.39L450.366 1011.24L450.623 1011.09C449.868 1009.83 448.726 1008.84 447.214 1008.13L447.086 1008.4ZM450.366 1011.24L450.109 1011.39C450.8 1012.55 451.146 1013.81 451.146 1015.2H451.446H451.746C451.746 1013.71 451.372 1012.33 450.623 1011.09L450.366 1011.24ZM451.446 1015.2H451.146C451.146 1016.64 450.774 1017.9 450.037 1018.99L450.286 1019.16L450.535 1019.33C451.344 1018.13 451.746 1016.75 451.746 1015.2H451.446ZM450.286 1019.16L450.036 1018.99C449.32 1020.07 448.362 1020.9 447.154 1021.49L447.286 1021.76L447.418 1022.03C448.717 1021.39 449.758 1020.49 450.536 1019.33L450.286 1019.16ZM447.286 1021.76L447.182 1022.04C448.647 1022.58 449.795 1023.46 450.639 1024.69L450.886 1024.52L451.133 1024.35C450.216 1023.02 448.965 1022.06 447.39 1021.48L447.286 1021.76ZM450.886 1024.52L450.64 1024.69C451.481 1025.89 451.906 1027.31 451.906 1028.96H452.206H452.506C452.506 1027.2 452.051 1025.66 451.131 1024.35L450.886 1024.52ZM452.206 1028.96H451.906C451.906 1030.64 451.48 1032.11 450.636 1033.39L450.886 1033.56L451.136 1033.73C452.051 1032.34 452.506 1030.75 452.506 1028.96H452.206ZM450.886 1033.56L450.636 1033.39C449.789 1034.68 448.608 1035.67 447.081 1036.37L447.206 1036.64L447.331 1036.91C448.951 1036.17 450.223 1035.11 451.136 1033.73L450.886 1033.56ZM447.206 1036.64L447.081 1036.37C445.553 1037.07 443.81 1037.42 441.846 1037.42V1037.72V1038.02C443.882 1038.02 445.713 1037.65 447.331 1036.91L447.206 1036.64ZM441.846 1037.72V1037.42C439.882 1037.42 438.139 1037.07 436.611 1036.37L436.486 1036.64L436.361 1036.91C437.979 1037.65 439.81 1038.02 441.846 1038.02V1037.72ZM436.486 1036.64L436.613 1036.37C435.113 1035.67 433.944 1034.68 433.096 1033.39L432.846 1033.56L432.596 1033.73C433.508 1035.11 434.766 1036.17 436.359 1036.91L436.486 1036.64ZM432.846 1033.56L433.096 1033.39C432.251 1032.11 431.826 1030.64 431.826 1028.96H431.526H431.226C431.226 1030.75 431.68 1032.34 432.596 1033.73L432.846 1033.56ZM431.526 1028.96H431.826C431.826 1027.28 432.251 1025.85 433.091 1024.65L432.846 1024.48L432.6 1024.31C431.68 1025.62 431.226 1027.17 431.226 1028.96H431.526ZM432.846 1024.48L433.091 1024.65C433.935 1023.45 435.072 1022.58 436.511 1022.04L436.406 1021.76L436.301 1021.48C434.753 1022.06 433.517 1023 432.6 1024.31L432.846 1024.48ZM447.086 1015.76H447.386C447.386 1014.2 446.895 1012.96 445.881 1012.09L445.686 1012.32L445.491 1012.55C446.343 1013.28 446.786 1014.33 446.786 1015.76H447.086ZM445.686 1012.32L445.881 1012.09C444.878 1011.23 443.521 1010.82 441.846 1010.82V1011.12V1011.42C443.424 1011.42 444.627 1011.81 445.491 1012.55L445.686 1012.32ZM441.846 1011.12V1010.82C440.196 1010.82 438.853 1011.23 437.851 1012.09L438.046 1012.32L438.241 1012.55C439.105 1011.81 440.296 1011.42 441.846 1011.42V1011.12ZM438.046 1012.32L437.851 1012.09C436.835 1012.96 436.346 1014.21 436.346 1015.8H436.646H436.946C436.946 1014.35 437.39 1013.28 438.241 1012.55L438.046 1012.32ZM436.646 1015.8H436.346C436.346 1017.22 436.86 1018.39 437.887 1019.3L438.086 1019.08L438.285 1018.86C437.392 1018.06 436.946 1017.05 436.946 1015.8H436.646ZM438.086 1019.08L437.893 1019.31C438.943 1020.19 440.269 1020.62 441.846 1020.62V1020.32V1020.02C440.383 1020.02 439.202 1019.62 438.279 1018.85L438.086 1019.08ZM441.846 1020.32V1020.62C443.425 1020.62 444.752 1020.18 445.802 1019.27L445.606 1019.04L445.41 1018.81C444.486 1019.61 443.306 1020.02 441.846 1020.02V1020.32ZM445.606 1019.04L445.802 1019.27C446.856 1018.36 447.386 1017.18 447.386 1015.76H447.086H446.786C446.786 1017.01 446.329 1018.02 445.41 1018.81L445.606 1019.04ZM441.846 1023.76V1023.46C440.035 1023.46 438.525 1023.91 437.341 1024.84L437.526 1025.08L437.711 1025.32C438.767 1024.49 440.137 1024.06 441.846 1024.06V1023.76ZM437.526 1025.08L437.341 1024.84C436.162 1025.76 435.586 1027.1 435.586 1028.8H435.886H436.186C436.186 1027.25 436.703 1026.1 437.711 1025.32L437.526 1025.08ZM435.886 1028.8H435.586C435.586 1030.4 436.151 1031.72 437.285 1032.74L437.486 1032.52L437.687 1032.3C436.687 1031.4 436.186 1030.24 436.186 1028.8H435.886ZM437.486 1032.52L437.288 1032.75C438.424 1033.74 439.955 1034.22 441.846 1034.22V1033.92V1033.62C440.056 1033.62 438.681 1033.17 437.683 1032.29L437.486 1032.52ZM441.846 1033.92V1034.22C443.713 1034.22 445.22 1033.72 446.329 1032.7L446.126 1032.48L445.922 1032.26C444.952 1033.16 443.606 1033.62 441.846 1033.62V1033.92ZM446.126 1032.48L446.327 1032.7C447.459 1031.68 448.026 1030.37 448.026 1028.8H447.726H447.426C447.426 1030.21 446.926 1031.36 445.925 1032.26L446.126 1032.48ZM447.726 1028.8H448.026C448.026 1027.12 447.449 1025.79 446.274 1024.85L446.086 1025.08L445.898 1025.31C446.91 1026.13 447.426 1027.28 447.426 1028.8H447.726ZM446.086 1025.08L446.277 1024.85C445.143 1023.91 443.656 1023.46 441.846 1023.46V1023.76V1024.06C443.556 1024.06 444.895 1024.49 445.895 1025.31L446.086 1025.08Z" fill="black" mask="url(#path-10-outside-2_1_1809)"/>
<path d="M311.243 322.276C311.271 322.272 311.299 322.265 311.327 322.262C320.204 321.381 329.803 322.592 337.219 327.906C342.161 331.448 345.375 335.989 346.409 342.032C349.625 340.557 353.104 339.43 356.597 338.85C361.622 338.015 368.197 338.241 372.413 341.41C375.495 343.727 376.293 346.649 376.733 350.275C387.338 342.929 400.041 337.106 413.207 337.708C419.05 337.974 425.717 339.645 429.687 344.239C433.389 348.522 433.516 353.424 433.06 358.742C435.877 358.04 438.709 357.4 441.555 356.822C456.148 353.971 474.847 353.498 487.678 362.269C492.457 365.536 496.383 370.195 497.33 376.063C498.598 383.927 494.542 391.255 490.106 397.391C497.443 399.403 504.857 401.933 511.186 406.264C516.228 409.716 520.454 414.83 521.523 420.988C522.457 426.364 520.795 430.63 517.701 434.9C528.902 438.019 541.926 443.002 548.278 453.452C551.197 458.255 552.285 464.069 550.876 469.556C548.81 477.61 542.256 482.393 535.563 486.522C543.361 491.588 551.269 497.857 554.776 506.782C556.882 512.142 557.128 518.265 554.7 523.57C548.773 536.518 530.938 542.669 518.57 547.172C522.287 550.83 525.345 554.865 526.259 560.144C527.067 564.644 525.986 569.279 523.27 572.959C516.664 582.084 502.516 586.099 492.004 587.846C493.009 591.004 493.702 594.002 493.393 597.334C492.89 602.76 489.931 607.358 485.742 610.698C471.896 621.74 449.985 621.076 433.305 619.122C433.191 621.661 433.008 624.064 432.212 626.503C430.708 631.117 427.536 634.817 423.167 636.948C414.255 641.294 403.732 638.934 394.796 636.016C394.379 637.797 393.941 639.495 393.049 641.112C390.861 645.076 387.118 647.497 382.839 648.71C370.023 652.345 356.455 646.485 345.448 640.329C345.115 642.328 344.645 644.088 343.505 645.794C341.532 648.744 338.528 650.437 335.064 651.03C324.474 652.84 313.025 647.162 304.669 641.255C303.298 644.757 301.73 647.632 298.185 649.39C293.507 651.707 287.362 650.725 282.61 649.063C271.958 645.337 264.581 637.818 259.72 627.816C243.155 639.392 229.734 656.665 222.163 675.312C210.364 704.371 212.666 737.595 224.734 766.14C233.387 786.608 248.059 804.514 264.524 819.196C278.684 831.823 293.673 843.437 305.694 858.257C310.373 863.942 314.486 870.07 317.974 876.555C323.337 886.571 326.824 898.122 335.564 905.921C344.659 914.036 359.511 914.91 370.607 920.494C381.41 925.93 388.616 936.177 399.794 940.707C403.659 941.65 407.597 942.541 411.366 943.811C415.009 945.04 418.581 946.697 422.374 947.402C427.332 948.324 432.849 948.191 437.905 948.529C444.937 948.999 467.809 950.636 472.673 954.799C473.298 955.334 473.113 955.042 473.168 955.924C472.871 956.252 472.599 956.556 472.225 956.801C468.212 959.434 456.639 959.763 451.57 960.079C421.632 961.941 390.343 961.913 360.284 961.983L250.387 962C220.469 961.983 190.592 962.048 160.681 961.364C145.843 961.024 124.975 960.959 110.783 958.204C108.86 957.831 106.818 957.462 105.67 955.776L105.887 954.985C111.095 949.87 138.853 948.174 146.651 947.831C152.357 942.172 158.822 936.218 165.9 932.38C170.13 930.086 174.574 927.868 179.137 926.328C188.139 923.29 199.186 922.797 204.706 913.842C207.662 909.045 208.389 903.2 207.909 897.683C206.139 877.346 191.788 863.266 179.858 848.109C174.77 841.679 170.074 834.947 165.795 827.952C155.788 811.295 148.419 793.189 143.951 774.278C130.604 716.462 148.49 654.811 179.323 605.533C173.054 603.765 166.982 601.561 162.985 596.063C159.755 591.619 159.268 586.55 160.165 581.309C156.129 579.412 152.158 577.523 148.75 574.59C144.473 570.911 141.193 565.892 140.902 560.12C140.604 554.189 143.217 549.302 147.115 545.095C139.789 539.46 133.275 533.499 129.891 524.654C127.292 517.86 127.305 510.459 130.378 503.816C132.492 499.249 135.824 496.155 140.521 494.449C137.861 485.953 135.56 477.679 135.232 468.71C134.796 456.793 137.22 442.532 145.701 433.536C149.414 429.597 153.769 427.399 159.219 427.26C160.91 412.183 164.43 397.686 173.142 385.014C177.885 378.115 185.068 370.748 193.716 369.357C199.174 368.48 202.784 370.669 207.002 373.713C214.544 360.631 223.823 348.03 236.037 338.97C244.441 332.736 255.701 327.154 266.487 328.816C271.809 329.636 275.612 332.143 278.778 336.42C288.744 328.879 298.743 323.903 311.243 322.276Z" fill="#0D0E0D"/>
<path d="M268.89 359.129C272.095 356.708 274.925 353.776 277.945 351.132C282.08 347.512 286.738 344.157 291.447 341.33C301.039 335.572 313.137 332.477 324.184 335.269C327.971 336.225 331.3 337.88 333.267 341.43C337.487 349.046 331.626 358.485 329.595 365.972C332.199 364.264 334.523 362.033 336.977 360.108C342.541 355.742 354.16 348.49 361.627 349.649C362.795 349.831 363.879 350.413 364.573 351.388C368.139 356.399 362.645 368.977 361.693 374.655L361.584 375.331C361.913 374.937 362.248 374.552 362.582 374.163C370.05 365.446 387.326 355.434 398.321 351.616C403.563 349.796 412.438 347.593 417.695 350.308C419.16 351.065 420.201 352.332 420.644 353.925C422.766 361.561 415.664 371.577 411.966 377.65C429.3 371.828 447.104 366.237 465.645 367.811C469.987 368.18 474.742 368.929 478.668 370.924C481.386 372.305 483.92 374.656 484.754 377.674C487.146 386.321 474.716 395.682 468.875 400.201C466.814 401.796 463.455 403.751 462.244 406.019C462.641 407.052 464.796 406.818 465.833 406.847C477.338 407.157 488.425 407.443 498.99 412.689C502.627 414.494 507.227 417.154 508.49 421.262C509.213 423.609 508.612 425.94 507.435 428.024C504.038 434.041 496.397 438.206 489.946 440.024C504.052 443.895 528.997 445.474 537.822 458.668C539.351 460.953 540.212 463.85 539.55 466.578C537.306 475.821 525.211 480.259 517.283 483.05C514.693 483.962 511.615 484.704 509.303 486.183C509.216 486.239 509.131 486.299 509.046 486.357C509.13 486.481 509.197 486.618 509.298 486.729C510.694 488.261 517.8 490.033 520.125 491.06C528.175 494.613 544.091 504.675 544.509 514.588C544.65 517.936 542.912 520.809 540.647 523.136C538.79 525.041 536.502 526.889 534.093 528.027C518.343 528.581 506.076 528.521 491.393 522.14C497.693 519.522 502.657 517.327 507.599 512.536C501.866 514.038 495.401 514.163 489.595 512.938C484.91 511.95 480.323 509.692 477.627 505.6C469.219 507.284 462.09 510.828 453.214 510.398C447.334 510.112 443.799 508.057 439.903 503.787C451.058 501.34 461.654 493.221 469.679 485.444C466.77 487.115 463.777 488.464 460.657 489.691C443.901 496.28 425.212 498.875 408.333 491.498C415.344 487.215 421.259 482.184 426.612 475.942C415.807 480.504 402.768 484.552 391.07 485.279C394.651 472.817 406.54 462.365 415.742 453.731C412.675 454.997 409.463 455.958 406.37 457.174C391.529 463.015 384.807 473.824 378.698 487.928C373.162 489.836 367.295 491.643 361.51 492.599C354.182 495.657 331.312 500.49 323.072 501.586C326.872 492.216 331.385 482.307 338.768 475.221L343.764 476.622C344.671 476.796 345.593 476.97 346.515 477.045C356.874 477.887 363.999 471.362 371.301 465.084C364.234 467.003 355.06 469.453 347.71 467.879C345.77 467.464 343.302 466.509 342.223 464.719C341.468 463.466 341.497 462.04 341.903 460.677C344.884 450.682 363.039 438.935 372.224 433.946C368.968 433.763 365.725 433.524 362.481 433.96C353.539 435.158 344.629 441.317 337.959 447.052C336.018 448.721 334.326 450.641 332.364 452.284L331.472 452.101C331.066 451.551 330.913 451.485 330.848 450.765C330.09 442.407 344.246 426.189 349.386 419.738C341.566 424.721 333.933 429.474 327.713 436.518C321.001 444.12 320.713 452.271 321.339 461.913C318.523 465.907 315.294 469.534 312.662 473.683C309.136 479.142 306.059 484.917 302.327 490.242C291.521 505.656 276.917 518.264 260.847 527.919C261.856 520.018 262.571 511.921 262.575 503.954C262.583 489.487 259.703 480.631 265.694 466.482C268.29 459.989 271.521 451.557 276.333 446.385C282.616 439.634 290.98 442.682 293.153 428.013C287.296 431.737 280.538 436.327 273.173 434.697C270.972 434.211 269.055 433.056 267.937 431.054C265.896 427.395 267.096 422.15 268.316 418.361C270.087 412.86 273.177 407.27 277.171 403.07C270.62 404.693 266.129 407.681 262.604 413.513C258.13 420.915 257.233 428.833 257.802 437.306C253.651 442.006 250.399 447.141 246.591 452.075C242.057 446.271 241.474 439.556 242.334 432.462C243.215 425.196 245.959 418.423 249.035 411.841C241.813 415.527 237.599 420.918 235.111 428.597C232.419 436.908 231.672 446.896 235.839 454.844C237.487 457.989 239.662 460.492 242.096 463.046C239.722 469.499 237.774 475.892 236.699 482.706C234.274 485.025 231.681 487.676 228.056 487.589C225.111 487.518 222.688 485.927 220.233 484.483C218.84 481.647 218.37 478.721 217.816 475.64C216.156 481.004 213.947 486.451 208.726 489.289C206.825 490.323 204.891 490.664 202.783 490.958C198.608 487.937 196.246 483.993 195.441 478.884C194.03 469.931 196.786 458.449 202.21 451.182C202.683 450.559 203.18 449.953 203.7 449.367C195.837 453.395 190.87 457.456 188.073 466.126C185.734 473.375 185.333 481.476 186.507 488.987C180.369 498.847 178.696 509.395 179.386 520.923C179.875 525.805 179.865 530.635 181.437 535.348C183.731 542.23 188.318 548.01 190.933 554.728C194.876 564.855 193.212 584.619 186.038 593.13C185.128 594.21 184.061 595.072 182.622 595.24C179.451 595.611 174.351 592.165 172.123 590.045C171.117 589.088 169.899 587.717 169.775 586.256C169.664 584.952 170.494 583.671 171.398 582.818C173.652 580.695 178.152 579.892 179.301 576.958C178.54 575.8 177.337 575.668 176.042 575.401C167.001 573.537 157.855 570.464 152.551 562.323C151.246 560.321 151.203 558.551 151.74 556.236C152.077 554.786 152.687 553.122 153.973 552.258C156.132 550.807 163.434 550.932 166.24 550.443C168.708 550.006 171.128 549.334 173.467 548.437C166.615 544.511 158.949 541.444 153.24 535.824C150.225 533.542 147.284 531.119 144.823 528.232C141.183 523.961 138.462 518.572 139.046 512.811C139.312 510.192 140.217 506.852 142.427 505.186C147.673 501.234 151.77 506.409 156.76 507.079C157.5 507.178 157.185 507.24 157.803 506.763L157.446 505.602C149.338 489.734 143.202 470.854 147.994 453.05C149.57 447.196 152.12 441.955 157.549 438.825C162.862 440.231 166.819 444.925 169.72 449.333C169.835 441.42 169.424 433.473 170.317 425.594C171.869 411.904 178.211 392.529 189.566 383.755C191.461 382.29 194.001 380.771 196.508 381.182C197.776 381.39 198.787 382.152 199.532 383.175C204.146 389.526 202.32 400.95 201.374 408.167C214.285 386.971 223.314 362.928 244.19 347.81C249.336 344.083 257.975 339.205 264.559 340.405C266.423 340.745 268.171 341.591 269.247 343.203C271.963 347.273 269.73 354.642 268.89 359.129Z" fill="#488336"/>
<path d="M268.89 359.129C272.094 356.708 274.925 353.776 277.945 351.132C282.08 347.512 286.738 344.157 291.447 341.33C301.038 335.572 313.137 332.477 324.184 335.269C327.971 336.225 331.3 337.88 333.267 341.43C337.487 349.046 331.626 358.485 329.595 365.972C332.198 364.264 334.523 362.033 336.976 360.108C342.541 355.742 354.16 348.49 361.627 349.649C362.795 349.831 363.879 350.413 364.573 351.388C368.139 356.399 362.645 368.977 361.693 374.655L361.584 375.331C361.913 374.937 362.248 374.552 362.582 374.163C370.05 365.446 387.326 355.434 398.321 351.616C403.563 349.796 412.438 347.593 417.695 350.308C419.16 351.065 420.201 352.332 420.644 353.925C422.766 361.561 415.664 371.577 411.966 377.65C429.3 371.828 447.104 366.237 465.645 367.811C469.987 368.18 474.742 368.929 478.668 370.924C481.386 372.305 483.92 374.656 484.754 377.674C487.146 386.321 474.716 395.682 468.875 400.201C466.814 401.796 463.455 403.751 462.243 406.019C462.641 407.052 464.796 406.818 465.833 406.847C477.338 407.157 488.425 407.443 498.99 412.689C502.627 414.494 507.227 417.154 508.49 421.262C509.213 423.609 508.612 425.94 507.435 428.024C504.038 434.041 496.397 438.206 489.946 440.024C504.052 443.895 528.997 445.474 537.822 458.668C539.351 460.953 540.212 463.85 539.55 466.578C537.306 475.821 525.211 480.259 517.283 483.05C514.693 483.962 511.615 484.704 509.303 486.183C509.216 486.239 509.131 486.299 509.046 486.357L508.628 486.178C510.402 481.264 512.619 477.852 510.003 472.592C505.799 464.143 494.06 458.771 485.55 456.15C477.916 453.8 469.539 452.911 461.558 452.922C465.894 449.771 473.765 445.045 474.55 439.222C474.735 437.853 474.357 436.478 473.45 435.429C469.526 430.888 453.081 429.815 447.361 429.641C443.715 429.549 440.067 429.615 436.426 429.839C439.435 425.462 443.541 420.16 442.415 414.514C441.968 412.274 440.673 410.571 438.735 409.388C430.297 404.237 416.565 406.855 407.683 409.243C403.077 410.482 398.558 412.004 393.977 413.32C395.719 408.6 397.084 403.4 394.944 398.533C393.617 395.515 391.06 393.455 388.02 392.304C379.567 389.105 369.346 390.723 361.395 394.529C356.431 396.906 350.968 400.02 346.876 403.735C348.768 398.736 351.652 392.51 349.296 387.225C348.36 385.125 346.632 383.69 344.486 382.931C337.216 380.358 327.743 383.645 321.244 386.962C317.41 388.919 314.078 391.37 310.741 394.069C311.558 388.712 313.547 379.454 310.115 374.785C308.582 372.698 306.049 371.94 303.592 371.63C293.036 370.3 275.968 375.276 267.711 381.908C267.298 382.24 266.923 382.59 266.542 382.957C266.909 379.596 268.119 372.609 265.838 369.765C265.205 368.974 264.301 368.722 263.33 368.699C261.061 368.644 258.601 369.657 256.501 370.43C245.744 374.393 236.891 380.75 228.925 388.913C217.904 400.207 212.592 413.057 207.062 427.5C205.374 424.185 203.502 419.619 199.607 418.428C197.748 417.859 195.841 418.476 194.221 419.418C185.152 424.692 179.471 435.803 177.088 445.618C175.45 452.364 174.979 459.158 174.511 466.055C172.841 463.023 170.15 457.883 166.503 457.004C165.434 456.746 164.52 456.819 163.575 457.421C159.674 459.908 157.876 467.413 157.14 471.703C155.781 479.617 156.232 496.787 157.761 504.864L157.446 505.602C149.338 489.734 143.202 470.854 147.994 453.05C149.57 447.196 152.12 441.955 157.549 438.825C162.862 440.231 166.819 444.925 169.72 449.333C169.835 441.42 169.424 433.473 170.317 425.595C171.868 411.904 178.211 392.529 189.566 383.755C191.461 382.29 194.001 380.771 196.508 381.182C197.776 381.39 198.787 382.152 199.531 383.175C204.146 389.526 202.32 400.95 201.374 408.167C214.284 386.971 223.314 362.928 244.189 347.81C249.336 344.083 257.975 339.205 264.559 340.405C266.423 340.745 268.171 341.591 269.247 343.203C271.963 347.273 269.73 354.642 268.89 359.129Z" fill="#79A92D"/>
<path d="M172.385 537.287C169.021 532.94 164.938 528.354 163.314 523.002C163.004 521.982 162.71 520.963 163.242 519.968C166.587 518.587 172.335 524.2 177.339 522.546C178.432 522.185 178.887 521.929 179.386 520.924C179.876 525.806 179.866 530.637 181.437 535.349C183.731 542.231 188.318 548.012 190.933 554.729C194.876 564.856 193.213 584.62 186.038 593.131C185.128 594.212 184.061 595.073 182.622 595.241C179.451 595.612 174.351 592.166 172.123 590.046C171.117 589.09 169.899 587.718 169.775 586.257C169.664 584.953 170.494 583.672 171.399 582.82C173.652 580.696 178.153 579.893 179.301 576.959C178.541 575.801 177.338 575.67 176.042 575.402C167.001 573.538 157.855 570.465 152.551 562.324C151.247 560.323 151.203 558.552 151.74 556.237C152.077 554.787 152.688 553.123 153.973 552.259C156.132 550.808 163.434 550.933 166.24 550.444C168.708 550.007 171.128 549.335 173.468 548.439C166.615 544.512 158.95 541.445 153.24 535.825C158.314 537.109 165.911 538.558 170.478 540.505L170.63 539.976C170.136 539.609 169.626 539.241 169.172 538.826C168.644 538.341 167.86 537.716 167.808 536.993C169.093 536.59 170.649 537.33 172.059 537.298C172.168 537.295 172.276 537.29 172.385 537.287Z" fill="#295D32"/>
<path d="M302.812 458.081C302.573 463.682 302.269 468.541 306.247 473.09C306.784 473.704 307.37 474.276 307.955 474.843C309.487 474.432 311.09 473.876 312.662 473.684C309.135 479.143 306.059 484.918 302.326 490.242C291.52 505.657 276.916 518.265 260.847 527.92C261.855 520.019 262.571 511.922 262.575 503.955C262.583 489.488 259.702 480.632 265.693 466.483C268.458 471.286 271.34 476.555 277.151 478.059C281.166 479.098 285.287 477.866 288.706 475.7C294.856 471.805 299.61 464.457 302.812 458.081Z" fill="#295D32"/>
<path d="M338.768 475.223L343.764 476.624C343.518 477.947 343.156 479.136 342.682 480.395C344.19 484.607 345.387 488.399 349.801 490.355C353.574 492.026 357.573 491.833 361.51 492.601C354.182 495.658 331.312 500.491 323.072 501.587C326.872 492.218 331.385 482.308 338.768 475.223Z" fill="#295D32"/>
<path d="M264.619 442.328C265.773 442.8 266.747 443.156 267.64 444.047C266.854 446.812 263.917 450.619 262.233 453.039C251.924 473.178 253.513 485.663 253.741 507.208C253.645 520.127 252.325 532.004 247.034 543.939C246.073 546.106 245.075 548.661 243.74 550.6C242.938 552.158 242.271 553.235 242.448 555.031L242.927 555.394C245.611 554.258 249.324 549.366 251.676 547.268C254.353 544.92 257.101 542.655 259.917 540.477C267.288 534.696 275.383 529.881 282.914 524.32C291.029 518.328 297.777 511.446 303.992 503.531C313.926 490.879 320.158 476.142 332.024 464.89L333.056 468.191C321.31 479.628 316.405 495.284 307.588 508.746C303.753 514.6 298.774 518.826 294.15 523.945C294.275 523.998 294.396 524.064 294.527 524.104C296.395 524.674 303.867 519.859 305.786 518.881L306.474 519.137C309.678 517.8 316.934 515.612 320.407 516.466C320.28 517.143 320.235 516.938 320.383 517.508C320.413 517.624 320.454 517.737 320.49 517.852C275.579 530.456 238.482 571.51 216.276 610.993C209.787 622.531 204.959 634.549 201.147 647.206C200.28 649.714 199.485 652.245 198.761 654.798C203.11 646.618 208.342 638.939 214.366 631.899C220.522 624.694 227.247 618.242 235.082 612.853C255.478 598.827 303.602 579.661 328.161 574.394C344.23 570.947 363.166 569.439 379.652 568.147C390.205 566.122 401.18 565.482 411.602 562.992C408.02 564.696 403.704 566.973 399.899 567.955C385.757 573.825 370.491 577.307 355.306 579.097C346.427 580.143 337.274 580.612 328.53 582.484C320.463 584.21 312.899 586.964 305.31 590.118C299.833 592.871 294.103 595.094 288.66 597.93C252.586 616.726 222.84 639.806 209.446 679.816C199.064 710.831 202.612 748.059 217.31 777.195C227.024 796.452 240.169 811.683 256.37 825.756C268.878 836.622 281.753 846.675 292.767 859.152C299.533 866.818 304.91 875.257 309.482 884.382C314.109 893.616 317.893 903.866 324.867 911.652C329.969 917.348 336.562 921.274 343.803 923.629C354.814 927.21 365.018 929.03 374.348 936.535C378.511 939.884 382.124 943.885 386.361 947.138C378.947 945.576 372.069 942.435 364.719 940.664C340.473 934.822 325.374 935.007 310.253 911.96C305.531 904.762 301.401 896.693 297.627 888.953C295.53 884.652 293.607 880.217 291.215 876.069C286.594 868.057 275.329 851.394 266.411 848.727C277.297 860.415 285.625 875.45 290.755 890.531C295.457 904.355 296.283 919.696 307.012 930.663C314.475 938.293 322.993 941.181 331.306 946.987C332.774 947.485 334.401 948.742 335.759 949.543C316.079 950.069 293.009 952.263 275.668 941.154C265.404 934.579 258.819 921.674 256.268 910.062C254.434 903.152 253.544 896.32 250.063 889.97C250.504 895.981 251.309 902.034 251.996 908.023C252.838 916.213 252.038 924.461 246.675 931.072C238.015 941.747 219.147 946.589 206.115 947.843C201.481 948.289 196.818 948.328 192.177 948.656C195.169 947.489 204.851 942.501 206.102 939.675C206.157 939.55 206.177 939.412 206.216 939.279C201.631 941.206 196.621 942.203 191.815 943.432C182.045 945.93 172.619 948.71 162.457 949C169.575 943.936 176.312 939.555 184.732 936.908C190.777 935.008 196.919 933.919 202.55 930.868C210.039 926.845 215.593 919.976 217.959 911.811C219.605 906.169 219.616 900.316 218.926 894.519C216.306 872.526 202.183 857.884 189.357 841.219C182.919 832.854 176.866 824.247 171.772 814.988C138.817 755.091 146.696 688.005 176.856 628.767C179.314 623.884 181.944 619.089 184.74 614.391C191.779 602.796 199.483 592.048 201.642 578.297C202.743 571.294 202.79 563.647 200.793 556.796C199.249 551.502 196.514 546.629 194.078 541.707C187.318 528.043 186.647 516.302 190.899 501.656C191.341 499.682 191.786 497.689 193.062 496.073C193.954 495.914 194.543 496.344 195.298 496.752C195.445 496.977 195.721 497.159 195.74 497.427C195.874 499.324 194.457 503.631 194.076 505.738C193.71 507.758 193.877 509.826 193.545 511.803C193.522 511.943 193.455 512.071 193.409 512.205C193.234 516.521 193.106 520.689 193.901 524.963C196.586 539.395 207.985 549.668 209.501 564.577C210.259 572.032 208.169 578.488 207.602 585.763L207.565 586.283C214.124 580.302 219.682 571.967 224.779 564.733C240.036 543.077 243.445 529.385 244.388 503.332C244.808 491.748 245.71 481.068 249.192 469.913C252.313 459.725 257.573 450.321 264.619 442.328Z" fill="#9D5D22"/>
<path d="M196.506 747.978C195.598 746.631 195.428 743.285 195.202 741.541C193.225 727.152 193.329 712.553 195.512 698.193C200.201 667.96 215.245 638.612 240.289 620.373C258.152 607.363 274.265 599.457 294.858 591.875C296.899 591.123 302.292 588.569 304.33 589.051C304.941 589.194 305.007 589.623 305.31 590.119C299.833 592.872 294.103 595.094 288.66 597.93C252.586 616.727 222.84 639.807 209.446 679.817C199.063 710.831 202.612 748.06 217.31 777.196C227.024 796.453 240.169 811.684 256.37 825.757C268.878 836.623 281.753 846.675 292.767 859.153C299.533 866.818 304.91 875.258 309.482 884.383C314.109 893.617 317.893 903.867 324.867 911.653C329.969 917.349 336.562 921.275 343.803 923.63C354.814 927.211 365.018 929.031 374.348 936.536C378.511 939.885 382.124 943.886 386.361 947.139C378.947 945.576 372.069 942.436 364.719 940.665C340.473 934.823 325.374 935.008 310.253 911.961C305.531 904.763 301.401 896.694 297.627 888.954C295.53 884.653 293.607 880.218 291.215 876.07C286.593 868.058 275.329 851.395 266.411 848.728C262.207 845.498 259.279 839.603 255.98 835.403C254.892 834.017 253.605 832.814 252.506 831.43C252.492 831.199 252.494 830.966 252.464 830.737C252.022 827.382 237.717 815.037 234.569 811.799C223.795 800.715 214.629 788.92 207.56 775.14C204.854 769.863 202.301 764.35 200.48 758.698C199.45 755.505 198.858 752.141 197.614 749.023C197.401 748.49 196.959 748.313 196.506 747.978Z" fill="#76491D"/>
<path d="M305.786 518.881L306.473 519.137C309.678 517.8 316.934 515.612 320.407 516.466C320.28 517.143 320.235 516.938 320.383 517.508C320.413 517.624 320.453 517.737 320.49 517.852C275.579 530.456 238.482 571.51 216.276 610.993C209.787 622.531 204.959 634.549 201.147 647.206C200.371 646.961 200.208 646.922 199.67 646.324C198.78 643.13 199.312 639.427 199.67 636.177C203.201 604.156 241.356 563.689 265.856 544.159C272.574 538.804 279.639 533.809 286.675 528.881C288.838 527.366 292.114 525.731 293.948 524.143C294.019 524.081 294.082 524.01 294.15 523.945C294.275 523.998 294.396 524.065 294.527 524.104C296.395 524.674 303.867 519.859 305.786 518.881Z" fill="#76491D"/>
<path d="M251.995 908.022C252.838 916.212 252.037 924.461 246.675 931.071C238.015 941.746 219.147 946.588 206.115 947.842C201.481 948.288 196.817 948.327 192.177 948.656C195.169 947.488 204.85 942.5 206.101 939.674C206.157 939.549 206.177 939.411 206.215 939.279C209.19 936.701 213.62 935.218 216.888 932.862C218.591 933.101 220.013 932.798 221.676 932.481L222.183 932.792C230.8 931.618 237.755 928.44 243.527 921.839C246.801 918.093 247.652 910.309 251.995 908.022Z" fill="#76491D"/>
<path d="M256.268 910.062C260.426 911.916 263.881 919.786 266.856 923.42C270.419 927.773 274.866 932.06 279.731 934.937C290.174 941.115 303.164 943.121 315.037 944.415C320.157 944.972 325.059 945.102 329.974 946.848C330.472 947.025 330.784 947.052 331.306 946.987C332.774 947.486 334.401 948.742 335.759 949.544C316.079 950.07 293.009 952.264 275.668 941.155C265.404 934.58 258.819 921.675 256.268 910.062Z" fill="#76491D"/>
<path d="M216.889 932.863C221.211 929.32 225.178 927.096 227.933 921.992C235.474 908.018 229.676 882.875 224.175 868.915C222.3 864.156 219.255 859.588 217.816 854.709C217.78 854.584 217.747 854.459 217.712 854.334C222.164 859.646 226.289 865.189 229.471 871.368C236.24 884.513 239.516 901.636 234.901 915.995C232.579 923.217 228.468 928.945 221.677 932.483C220.014 932.8 218.592 933.102 216.889 932.863Z" fill="#0D0E0D"/>
<path d="M196.507 747.978C196.96 748.312 197.401 748.489 197.614 749.022C198.858 752.141 199.45 755.504 200.48 758.698C202.301 764.349 204.854 769.863 207.561 775.139C214.63 788.92 223.796 800.715 234.57 811.798C237.718 815.036 252.023 827.381 252.464 830.736C252.495 830.966 252.492 831.198 252.506 831.43C247.572 826.98 241.876 823.296 236.822 818.947C223.955 807.873 211.575 794.246 204.747 778.532C202.615 773.623 201.192 768.423 199.775 763.273C198.394 758.256 196.914 753.185 196.507 747.978Z" fill="#0D0E0D"/>
<path d="M243.74 550.6C242.769 547.915 248.388 527.906 249.063 522.774C249.658 518.246 249.037 511.867 251.075 507.763C251.533 506.84 251.785 506.796 252.691 506.529L253.742 507.208C253.645 520.128 252.325 532.005 247.034 543.939C246.073 546.107 245.075 548.661 243.74 550.6Z" fill="#76491D"/>
<path d="M264.619 442.328C265.773 442.8 266.747 443.156 267.64 444.047C266.853 446.812 263.916 450.619 262.233 453.039C261.964 453.148 261.658 453.191 261.425 453.366C260.398 454.135 252.46 468.772 250.237 471.577C250.217 470.986 250.215 470.704 249.969 470.153L249.191 469.913C252.313 459.725 257.573 450.321 264.619 442.328Z" fill="#76491D"/>
<path d="M190.899 501.656C191.341 499.682 191.786 497.689 193.061 496.073C193.954 495.914 194.543 496.345 195.298 496.752C195.445 496.977 195.721 497.159 195.74 497.428C195.873 499.324 194.457 503.631 194.076 505.738C193.71 507.758 193.876 509.826 193.545 511.803C193.522 511.943 193.454 512.072 193.409 512.205C192.657 512.452 192.491 512.866 191.993 513.46C190.202 511.729 191.293 504.87 190.996 502.383C190.967 502.14 190.931 501.898 190.899 501.656Z" fill="#76491D"/>
<path d="M179.373 642.821C180.038 644.742 173.242 666.854 172.277 670.751C169.054 683.766 167.794 697.071 167.139 710.436C165.459 744.693 171.736 774.556 187.727 804.988C191.794 812.726 196.465 820.162 200.965 827.653C199.709 826.769 198.522 825.77 197.319 824.815C182.68 809.028 172.884 786.217 167.146 765.692C164.443 756.025 162.495 745.836 161.706 735.826C159.403 706.609 164.866 668.601 179.373 642.821Z" fill="#0D0E0D"/>
<path d="M187.945 770.786C190.977 775.412 193.053 781.323 195.412 786.375C199.65 795.452 204.485 804.193 210.398 812.298C216.688 820.92 223.933 828.5 231.298 836.195C257.31 863.371 272.457 879.179 278.241 918.328C275.978 916.314 273.444 907.526 272.264 904.476C268.315 894.27 263.666 884.263 257.436 875.234C250.786 865.595 242.935 857.067 235.063 848.431C217.269 828.912 202.544 812.353 192.879 787.378C190.905 782.278 188.293 776.255 187.945 770.786Z" fill="#0D0E0D"/>
<path d="M234.001 565.623C234.013 567.438 226.49 577.001 224.999 579.203C217.13 590.823 208.868 602.31 202.129 614.638C198.984 620.407 195.98 626.253 193.121 632.171C190.899 636.727 188.815 641.513 186.089 645.793C185.957 645.342 185.874 644.943 185.881 644.47C185.944 640.371 188.304 635.461 189.881 631.702C197.833 612.754 208.269 597.539 220.914 581.495C225.148 576.123 229.299 570.599 234.001 565.623Z" fill="#0D0E0D"/>
<path d="M190.958 668.481L191.169 668.684C191.42 669.619 187.024 689.243 186.579 692.658C185.199 703.276 185.015 714.246 185.369 724.933C185.54 730.097 186.65 736.203 185.958 741.261L185.543 741.252L184.611 739.516C183.723 736.943 182.996 734.402 182.476 731.728C179.354 715.664 181.645 682.288 190.958 668.481Z" fill="#0D0E0D"/>
<path d="M400.467 500.039C413.655 506.494 425.644 506.653 439.903 503.786C443.799 508.056 447.334 510.112 453.214 510.397C462.09 510.828 469.219 507.284 477.627 505.6C480.323 509.691 484.909 511.95 489.595 512.938C495.401 514.163 501.866 514.038 507.599 512.536C502.657 517.326 497.693 519.522 491.393 522.14C506.076 528.521 518.343 528.581 534.093 528.027C524.914 534.569 513.792 537.172 503.011 539.723C500.16 540.398 496.689 540.614 494.072 541.852L493.885 542.504C494.084 542.939 494.254 543.155 494.661 543.414C499.858 546.72 505.321 549.348 509.829 553.674C512.48 556.218 514.955 559.117 514.912 563.009C514.804 572.775 496.343 576.368 488.952 577.359C486.153 577.734 472.9 577.945 471.577 579.223C471.731 582.027 476.507 585.389 478.337 587.712C480.352 590.269 482.649 593.961 482.131 597.339C481.79 599.561 480.083 601.244 478.341 602.507C466.698 610.941 446.296 610.036 432.653 607.927C428.237 607.244 423.96 605.866 419.554 605.191C418.387 605.012 417.267 604.723 416.294 605.443C415.696 608.209 422.434 615.173 422.117 621.003C421.996 623.224 421.074 625.121 419.36 626.545C412.323 632.386 398.165 627.207 390.97 623.686C388.773 622.611 383.405 618.756 381.018 618.942C380.078 619.015 379.955 619.174 379.419 619.859C378.973 623.371 381.881 627.263 382.902 630.609C383.432 632.343 383.618 634.493 382.661 636.12C381.692 637.768 379.973 638.618 378.153 638.985C366.825 641.272 352.62 633.66 343.96 627.109C340.74 624.673 337.162 620.935 333.574 619.173C332.717 618.752 332.35 619.079 331.534 619.413C330.271 621.692 333.611 627.444 334.292 629.948C335.351 633.838 335.276 637.019 333.255 640.532L332.99 640.984C332.318 640.994 331.646 640.973 330.977 640.921C320.823 640.07 310.689 634.048 303.852 626.707C301.894 624.603 300.356 622.043 298.367 620.012C297.615 619.243 297.235 619.002 296.17 618.971C292.829 622.011 295.961 633.74 293.621 638.471C293.281 639.158 292.843 639.581 292.111 639.774C288.82 640.642 283.613 638.326 280.753 636.653C275.677 633.685 270.745 628.214 269.276 622.439C269.363 621.892 269.467 621.428 269.782 620.96C273.745 615.077 305.717 598.701 313.454 596.962C317.019 598.472 319.735 600.937 322.749 603.291C327.647 607.118 333.273 610.378 339.399 611.697C350.867 614.167 359.678 610.875 369.203 604.745C366.821 605.418 364.532 605.929 362.053 606.004C349.578 606.374 336.721 601.356 327.613 592.866C337.967 588.563 350.539 589.512 361.52 587.936C375.376 585.856 388.982 582.367 402.129 577.522C407.248 581.323 412.47 584.339 418.748 585.745C431.327 588.562 443.946 584.684 454.634 578C452.773 578.537 450.878 578.947 448.961 579.224C437.803 580.739 424.149 579.722 414.894 572.646C417.801 570.741 420.65 568.744 423.535 566.806C434.419 566.301 444.686 565.014 454.106 559.048C458.497 556.267 462.618 553.078 467.029 550.299C451.817 555.081 427.301 559.882 412.171 554.055C419.113 546.559 427.701 541.53 436.559 536.66C434.91 536.682 433.262 536.764 431.619 536.905C421.267 537.718 409.68 542.45 401.851 549.306C399.429 551.426 397.377 553.949 395.299 556.398C387.622 557.832 366.293 561.448 359.666 560.544C358.796 560.426 358.739 560.351 358.252 559.677C357.656 556.256 358.77 552.605 359.489 549.255C352.509 553.964 340.979 561.45 332.63 562.184C331.064 562.322 329.684 562.133 328.472 561.067C325.264 558.25 325.175 552.928 324.785 549.015C320.202 554.527 317.223 560.673 311.542 565.358C300.326 574.607 280.101 579.842 266.516 585.597C254.396 590.805 242.614 596.767 231.238 603.445C231.566 602.765 231.904 602.104 232.287 601.454C236.846 593.707 243.027 586.625 249.024 579.966C265.459 561.717 287.212 541.364 309.889 531.304C320.103 526.772 331.531 525.54 342.231 522.445C353.454 519.198 364.4 514.635 375.694 511.759C378.478 516.252 383.05 519.888 387.722 522.259C399.463 528.216 412.26 524.739 424.073 520.866C412.625 521.904 399.951 519.406 390.967 511.832C389.6 510.68 387.616 509.137 387.466 507.3C390.81 504.473 396.466 502.139 400.467 500.039Z" fill="#295D32"/>
<path d="M202.783 490.958C204.891 490.665 206.824 490.324 208.725 489.29C213.947 486.451 216.156 481.005 217.816 475.64C218.37 478.722 218.84 481.647 220.233 484.484C222.688 485.927 225.111 487.519 228.056 487.59C231.681 487.677 234.274 485.026 236.699 482.706C236.037 489.737 235.999 496.686 235.787 503.737C235.099 526.703 231.285 538.36 218.226 557.281C211.642 538.862 195.787 524.42 204.197 503.335C208.632 500.292 213.3 499.076 217.177 495.035C212.553 493.944 206.664 493.939 202.783 490.958Z" fill="#295D32"/>
<path d="M383.645 495.432C387.045 493.719 391.077 493.01 394.765 492.123C390.314 494.767 382.145 500.273 377.283 501.192C370.909 504.017 364.285 506.012 357.633 508.051C345.314 511.826 333.054 514.999 320.489 517.853C320.453 517.738 320.413 517.625 320.382 517.508C320.235 516.938 320.28 517.143 320.407 516.466C316.934 515.612 309.678 517.8 306.473 519.137L305.786 518.882C320.58 509.273 331.99 508.977 348.568 505.204C360.59 502.469 372.007 499.518 383.645 495.432Z" fill="#9D5D22"/>
<path d="M383.645 495.432C387.045 493.719 391.077 493.01 394.765 492.123C390.314 494.767 382.145 500.273 377.283 501.192C377.322 500.929 377.477 500.695 377.588 500.452C378.531 500.147 379.099 499.985 379.825 499.272C379.166 498.776 377.821 499.315 376.96 499.368C378.707 497.857 381.736 497.257 383.808 495.924L383.645 495.432Z" fill="#76491D"/>
<path d="M548.491 767.825C549.418 767.945 550.404 768.285 551.183 768.808C553.076 770.078 554.708 772.306 556.247 773.987C559.978 778.059 564.312 782.073 569.279 784.589C587.283 793.705 604.572 788.866 623.293 801.222C631.571 806.685 637.593 814.02 643.941 821.479C646.511 824.497 649.075 827.773 652.161 830.278C652.273 830.369 652.388 830.455 652.501 830.544C656.749 830.507 662.989 827.828 666.909 829.114C667.946 829.455 668.912 830.755 669.131 831.809C669.308 832.663 668.987 833.439 668.428 834.072C665.373 837.53 656.22 837.646 652.058 837.77C651.146 838.795 650.302 839.899 649.433 840.964C646.813 843.756 643.753 846.083 640.591 848.226C627.214 857.295 612.356 860.487 596.453 857.405C580.364 854.288 566.954 845.452 557.849 831.817C548.469 817.766 545.386 801.123 544.733 784.524C544.585 780.752 544.119 776.466 544.955 772.747C545.497 770.329 546.384 769.09 548.491 767.825Z" fill="#0D0E0D"/>
<path d="M553.171 781.97C557.345 785.27 560.558 789.135 565.298 791.842C572.739 796.092 580.726 797.908 589.102 799.16C594.948 800.035 600.809 800.734 606.461 802.546C620.934 807.187 632.659 819.858 642.224 831.238C629.81 831.307 617.523 828.65 605.623 825.365C600.809 819.444 596.878 812.798 591.921 806.965C593.583 812.822 597.092 818.315 599.743 823.792C587.282 818.73 576.466 810.644 565.751 802.682C568.373 808.416 572.841 812.555 577.575 816.557C581 819.315 584.615 821.829 588.391 824.082C590.621 825.414 600.22 829.593 601.051 831.103C600.863 831.466 600.875 831.505 600.528 831.832C597.236 834.928 578.318 835.353 572.875 835.461C573.982 835.942 575.099 836.42 576.236 836.828C585.538 840.17 600.176 837.563 608.943 833.372C619.091 835.383 628.798 837.655 639.174 838.377C629.606 844.88 619.309 849.514 607.555 849.601C594.291 849.661 581.545 844.459 572.11 835.135C558.375 821.516 553.23 800.759 553.171 781.97Z" fill="#79A92D"/>
<path d="M499.645 636.584C521.094 634.503 533.256 649.584 550.95 657.791C554.7 659.53 560.305 659.35 563.33 661.085C563.957 661.444 564.206 661.78 564.272 662.524C564.47 664.758 562.338 667.146 560.884 668.578C557.801 671.613 554.235 674.344 550.87 677.062C534.963 689.906 518.146 698.236 497.372 698.224C482.106 698.25 468.755 691.688 457.238 682.128C452.232 683.31 449.069 686.274 444.516 688.202C443.37 688.687 441.873 689.196 440.686 688.561C439.947 688.166 439.436 687.558 439.304 686.72C439.083 685.315 439.583 683.808 440.376 682.658C442.948 678.924 447.614 677.286 450.415 673.785C453.785 669.571 455.66 664.281 459.112 659.968C469.206 647.36 483.455 638.325 499.645 636.584Z" fill="#0D0E0D"/>
<path d="M495.198 646.649C500.654 645.316 506.198 645.199 511.646 646.589C521.178 648.53 529.752 655.802 537.877 660.877C541.562 663.179 545.28 665.131 549.259 666.878C538.398 676.636 524.617 685.191 510.109 687.699C493.355 690.595 478.666 686.946 464.896 677.218C471.714 674.282 478.981 672.524 486.387 672.018C492.573 675.586 497.138 680.349 504.121 682.643C500.193 678.695 495.234 674.894 492.323 670.129C499.66 669.597 506.986 669.525 514.337 669.406C519.236 669.326 524.708 669.525 529.517 668.574C530.646 668.351 531.538 668.069 532.414 667.296L532.201 666.804C529.657 666.117 526.842 666.322 524.221 666.037C513.958 664.918 505.507 663.468 494.997 663.65C497.848 661.073 500.521 658.279 503.241 655.564C501.087 656.513 498.899 657.456 496.849 658.616C493.907 660.281 491.006 662.559 487.795 663.635C484.144 664.858 480.005 665.089 476.209 665.778C471.777 666.582 467.467 667.771 463.153 669.053C471.752 658.682 481.629 649.504 495.198 646.649Z" fill="#79A92D"/>
<path d="M741.947 522.153C742.528 522.162 743.03 522.179 743.569 522.437C744.703 522.981 745.327 524.177 745.707 525.317C746.428 527.489 746.438 530.057 746.482 532.327C746.738 545.26 743.308 559.393 737.234 570.806C730.48 583.499 719.77 593.901 705.779 598.058C693.601 601.675 682.593 600.441 671.539 594.41C666.867 596.077 662.804 599.109 658.061 600.764C657.352 600.956 656.637 601.143 655.911 601.26C654.112 601.552 651.474 601.867 650.008 600.549C649.18 599.805 648.619 598.538 648.76 597.418C649.353 592.72 662.412 590.907 666.425 587.161C666.515 587.077 666.603 586.991 666.691 586.906C666.61 583.528 666.517 580.111 666.861 576.744C668.766 558.101 683.735 545.584 700.69 540.262C709.398 537.529 718.593 536.3 726.975 532.56C732.594 530.053 737.213 525.994 741.947 522.153Z" fill="#0D0E0D"/>
<path d="M737.409 536.409L737.686 536.903C737.309 543.432 735.361 550.748 733.182 556.903C728.586 569.887 720.825 580.976 708.144 586.993C698.921 591.368 688.699 592.195 679.059 588.766C689.855 581.83 721.791 562.202 727.397 552.774L727.269 552.469C724.801 553.37 722.524 555.39 720.392 556.921C713.168 561.382 705.673 565.102 698.035 568.784C699.283 563.362 701.028 559.143 703.562 554.249C697.997 559.004 695.195 565.305 692.868 572.112C687.606 576.261 681.003 579.708 675.06 582.806C675.077 579.983 675.161 577.216 675.755 574.45C678.775 560.363 690.704 552.779 703.65 548.789C710.303 546.74 717.194 545.527 723.783 543.244C728.738 541.527 733.015 539.257 737.409 536.409Z" fill="#79A92D"/>
<path d="M677.402 405.013C678.121 405.062 678.871 405.091 679.558 405.334C680.522 405.674 681.099 406.343 681.504 407.258C683.279 411.262 677.912 424.66 676.187 429.025C669.254 446.577 659.347 464.037 641.146 471.787C628.833 477.031 616.57 475.47 604.513 470.592C600.868 472.512 598.041 475.646 594.436 477.682C593.744 477.93 593.067 478.159 592.349 478.32C590.544 478.726 589.085 478.695 587.562 477.512C586.883 476.984 586.372 476.354 586.319 475.464C585.969 469.577 597.056 466.78 599.541 462.653C600.432 461.174 599.406 451.441 599.883 448.509C600.816 442.777 603.72 437.027 607.34 432.535C620.364 416.371 639.113 414.35 657.819 409.823C664.272 408.261 670.796 405.735 677.402 405.013Z" fill="#0D0E0D"/>
<path d="M670.607 414.347C670.838 417.296 667.019 426.446 665.792 429.679C660.653 443.223 651.157 457.429 637.49 463.46C629.261 467.092 620.403 467.521 612.036 464.217C616.02 460.99 620.032 457.415 624.401 454.729C627.141 455.25 629.892 455.819 632.651 456.222C639.368 457.202 644.958 455.949 650.443 451.886C643.233 452.756 636.421 453.695 629.478 450.988C632.135 448.322 635.248 446 638.15 443.6L652.84 431.452C655.508 429.018 657.78 426.541 659.816 423.55C649.074 429.788 638.632 436.529 628.524 443.751C629.62 439.383 631.041 435.154 632.569 430.925C627.352 436.121 626.955 441.801 623.104 446.503C619.968 450.333 612.029 454.745 607.734 457.616C607.814 451.878 608.451 446.863 611.36 441.811C620.073 426.683 638.72 422.567 654.295 418.716C659.757 417.366 665.181 415.832 670.607 414.347Z" fill="#79A92D"/>
<path d="M309.513 678.122C314.769 677.479 320.412 678.21 325.377 679.999C332.569 682.59 339.245 687.72 342.5 694.774C344.911 699.997 345.321 706.069 343.219 711.479C341.272 716.487 336.843 721.187 331.92 723.349C327.572 725.258 322.315 725.643 317.872 723.812C314.688 722.5 311.476 719.616 310.171 716.388C309.068 713.664 309.59 709.969 310.82 707.367C311.381 706.18 312.017 705.746 313.219 705.302C316.02 705.955 315.617 711.987 318.615 713.962C320.516 715.214 322.827 715.243 324.978 714.736C327.967 714.031 330.799 712.173 332.389 709.508C333.993 706.819 333.73 703.366 332.867 700.476C331.596 696.219 329.186 692.864 325.221 690.733C319.534 687.618 312.836 686.913 306.624 688.774C299.911 690.787 294.442 695.037 291.115 701.236C287.3 708.347 287.045 716.76 289.397 724.388C293.249 736.882 303.468 745.891 314.776 751.714C341.327 765.389 379.148 765.447 408.012 760.552C419.702 758.471 431.231 755.575 442.516 751.886C463.733 744.978 483.944 734.818 505.355 728.686C498.737 734.224 490.835 737.942 483.244 741.957C455.373 756.7 427.882 767.977 396.365 771.926C365.072 775.847 323.068 773.405 297.389 753.255C286.685 744.856 278.857 733.558 277.313 719.809C276.165 709.576 278.541 699.19 285.05 691.08C291.384 683.187 299.589 679.26 309.513 678.122Z" fill="#0D0E0D"/>
<path d="M572.18 719.319C584.201 717.763 599.455 720.387 609.899 726.566C615.891 730.11 621.868 735.944 623.543 742.921C624.453 746.709 623.921 751.026 621.832 754.352C620.14 757.046 617.406 758.71 614.32 759.33C609.981 760.2 606.287 758.975 602.716 756.598C600.752 755.29 598.916 753.814 598.45 751.404C598.705 750.344 598.786 750.121 599.515 749.317C602.02 748.527 605.561 751.42 607.925 752.377C609.664 753.081 611.791 753.422 613.554 752.617C615.516 751.723 616.219 750.105 616.997 748.209C616.92 747.154 616.867 746.036 616.657 744.999C615.816 740.851 612.386 737.435 608.935 735.235C601.501 730.498 591.718 728.64 583.025 728.494C550.092 727.938 521.592 746.896 494.369 763.108C482.736 770.164 470.894 776.871 458.859 783.217C440.916 792.746 421.812 799.901 402.024 804.503C398.55 805.345 395.014 805.985 391.489 806.578C363.83 811.224 327.583 810.038 304.061 793.346C314.591 795.342 324.879 797.9 335.572 798.99C381.01 803.619 423.979 790.727 463.568 769.189C478.756 760.926 493.303 751.495 508.324 742.933C528.664 731.339 548.473 721.399 572.18 719.319Z" fill="#0D0E0D"/>
<path d="M725.253 702.588C726.233 702.531 727.364 702.503 728.234 703.026C729.661 703.888 730.199 705.616 730.421 707.17C731.879 717.372 723.469 736.948 717.221 745.064C710.503 753.79 700.695 760.078 689.674 761.473C682.107 762.429 676.582 760.406 670.677 755.784C668.125 756.576 665.591 757.44 663.05 758.271C660.721 758.86 658.688 759.208 656.343 758.473C655.047 758.067 653.732 757.349 653.19 756.029C652.76 754.983 652.941 753.945 653.335 752.929C654.43 750.1 662.921 750.661 665.785 749.335C669.427 747.649 668.354 742.568 669.884 738.571C676.73 720.673 696.425 715.176 712.431 708.64C716.816 706.848 720.922 704.493 725.253 702.588Z" fill="#0D0E0D"/>
<path d="M720.96 713.334L721.792 713.441C722.107 714.517 721.673 715.765 721.402 716.827C718.241 729.241 711.747 742.679 700.285 749.378C693.557 753.311 685.964 754.134 678.457 752.216C688.779 746.563 698.069 740.772 706.638 732.567C707.862 731.202 708.942 729.666 710.063 728.214C698.618 734.999 688.141 742.098 675.498 746.696C676.006 744.886 676.557 743.062 677.34 741.348C684.199 726.324 706.553 718.882 720.96 713.334Z" fill="#79A92D"/>
<path d="M640.696 654.276C647.815 653.381 655.898 654.377 662.501 657.179C666.901 659.046 670.363 661.438 672.222 666.001C670.32 671.849 665.536 676.567 661.021 680.538C651.234 689.145 642.093 693.529 628.951 692.663C625.917 692.321 623.022 691.607 620.104 690.72C616.368 689.584 598.775 683.173 596.901 680.911C596.682 679.499 597.202 678.522 598.032 677.429C600.252 674.506 603.596 672.079 606.503 669.885C616.727 662.168 627.798 655.822 640.696 654.276Z" fill="#0D0E0D"/>
<path d="M644.457 662.611C650.756 662.314 656.614 663.882 661.885 667.28C657.034 672.638 650.72 679.113 643.975 681.891C635.422 685.413 625.398 684.473 617.055 680.95C619.585 680.471 622.156 680.183 624.708 679.846C629.786 679.067 634.629 678.294 639.483 676.528C629.435 676.239 619.21 677.631 609.124 677.661C618.875 669.111 631.496 663.408 644.457 662.611Z" fill="#79A92D"/>
<path d="M473.234 810.349C481.642 809.587 489.983 811.369 498.343 811.858C502.927 812.126 508.257 811.327 512.664 812.613C512.885 812.952 513.109 813.254 513.229 813.653C513.81 815.584 512.449 817.804 511.501 819.373C503.732 832.236 491.87 841.62 477.227 845.195C464.367 847.962 455.994 844.384 444.454 839.606C442.472 838.786 439.936 838.441 438.161 837.27C437.307 836.707 436.934 836.013 436.78 835.011C436.583 833.736 437.105 832.482 437.915 831.516C447.571 819.994 457.905 812.007 473.234 810.349Z" fill="#0D0E0D"/>
<path d="M473.199 818.287C482.673 816.909 492.899 819.293 502.48 819.221C495.242 827.709 486.644 834.908 475.522 837.401C468.051 839.075 458.138 838.467 451.506 834.307L451.734 833.948C463.232 831.597 474.98 829.85 485.9 825.43C481.586 825.472 477.146 826.283 472.839 826.685C465.939 827.328 458.978 827.709 452.111 828.639C458.437 823.099 464.749 819.305 473.199 818.287Z" fill="#79A92D"/>
<path d="M607.257 520.23C609.386 519.981 611.764 519.643 613.599 521.017C614.621 521.783 615.17 522.858 615.341 524.112C616.134 529.924 609.847 539.05 606.435 543.397C598.235 553.842 586.766 560.73 573.562 562.353C571.323 562.416 568.802 562.724 566.652 562.042C565.849 561.381 565.373 560.818 565.17 559.782C564.314 555.403 570.125 547.143 572.523 543.703C580.973 531.581 592.536 522.824 607.257 520.23Z" fill="#0D0E0D"/>
<path d="M606.291 528.954L606.525 529.19C606.478 529.568 606.485 529.67 606.321 530.073C605.423 532.272 603.484 534.766 602.035 536.676C595.054 545.875 587.108 550.802 576.246 554.271L576.05 553.747C577.505 550.297 579.566 547.065 581.899 544.141C587.996 536.503 596.363 530.107 606.291 528.954Z" fill="#79A92D"/>
<path d="M558.052 597.211C564.896 597.36 572.163 598.561 577.942 602.475C580.782 604.398 583.363 607.234 583.898 610.739C584.279 613.237 583.412 615.637 581.871 617.584C578.129 622.315 570.159 625 564.34 625.597L563.909 625.658C556.775 626.601 548.369 624.868 542.665 620.318C540.199 618.35 538.276 615.642 537.955 612.436C537.649 609.375 538.864 606.414 540.842 604.12C545.164 599.107 551.771 597.643 558.052 597.211Z" fill="#0D0E0D"/>
<path d="M556.931 605.848C561.46 605.509 566.439 606.099 570.398 608.479C571.755 609.296 573.747 610.856 573.917 612.585C573.98 613.227 573.817 613.785 573.468 614.303C572.005 616.479 567.956 617.191 565.522 617.61C560.98 618.072 555.822 618.115 551.574 616.212C549.995 615.504 547.821 614.127 547.297 612.35C547.04 611.479 547.05 610.738 547.554 609.953C549.238 607.332 554.015 606.268 556.931 605.848Z" fill="#79A92D"/>
<path d="M257.06 697.344L257.772 697.669C258.845 700.971 257.012 706.384 256.958 709.951C256.926 715.419 257.626 720.865 259.04 726.146C263.88 744.321 277.509 759.969 294.064 768.628C299.325 771.381 305.314 772.945 310.405 775.943C310.52 776.011 310.635 776.083 310.75 776.152C308.992 776.387 307.232 776.498 305.463 776.618C291.489 775.752 277.325 768.255 267.287 758.74C257.035 749.023 250.728 736.089 250.367 721.875C250.171 714.188 251.471 703.178 257.06 697.344Z" fill="#0D0E0D"/>
<path d="M114.389 728.824C114.532 728.986 114.697 729.13 114.816 729.31C115.386 730.173 117.955 751.38 118.555 754.318C121.917 770.779 127.153 787.316 133.594 802.832C135.201 806.704 144.832 825.175 144.6 827.058L144.005 826.727C133.724 818.208 126.634 807.992 121.786 795.554C115.537 779.524 107.485 744.676 114.389 728.824Z" fill="#0D0E0D"/>
<path d="M483.836 882.313C488.933 882.773 493.099 885.837 497.708 887.8C507.482 891.96 518.257 893.857 528.86 893.878C532.199 893.885 544.691 892.286 546.87 894L546.905 894.736C546.013 896.114 544.574 896.816 543.206 897.661C539.374 899.668 535.386 901.15 531.13 901.971C518.166 904.477 504.738 901.744 493.785 894.369C489.521 891.478 484.832 887.62 483.836 882.313Z" fill="#0D0E0D"/>
<path d="M416.463 717.418C417.751 717.27 419.231 717.112 420.504 717.43C421.423 717.659 421.72 718.015 422.161 718.805C421.964 720.797 420.424 722.173 418.948 723.383C404.031 735.601 380.834 740.806 361.956 738.903C359.727 738.602 357.188 738.266 355.158 737.249C354.397 736.866 354.336 736.879 354.089 736.031C356.364 734.722 367.473 733.979 370.961 733.364C374.967 732.65 378.943 731.776 382.878 730.744C389.642 728.964 396.248 726.635 402.632 723.78C407.265 721.697 411.743 719.306 416.463 717.418Z" fill="#0D0E0D"/>
<path d="M104.352 805.613C108.581 806.876 112.156 814.366 114.653 817.861C120.105 825.496 126.078 833.075 133.04 839.4C137.647 843.586 146.046 848.504 149.404 853.317C148.518 853.31 147.656 853.252 146.779 853.125C133.721 851.224 121.288 841.256 113.699 830.909C108.825 824.263 103.022 814.195 104.352 805.613Z" fill="#0D0E0D"/>
<path d="M118.637 565.445C118.954 565.649 119.324 565.787 119.587 566.056C120.851 567.349 122.512 577.651 123.328 579.953C126.756 589.625 131.989 598.982 138.908 606.599C140.481 608.332 147.138 613.57 147.566 614.567C146.773 615.299 146.196 615.158 145.14 615.248C139.395 614.692 134.174 612.002 129.835 608.277C121.674 601.273 116.489 590.617 115.749 579.919C115.44 575.459 115.564 568.976 118.637 565.445Z" fill="#0D0E0D"/>
<path d="M336.023 825.634C339.896 825.289 347.62 828.518 351.862 829.374C359.288 830.871 366.582 832.116 374.16 832.538C378.478 832.778 390.503 831.364 393.418 832.722C393.971 832.98 393.796 832.943 393.981 833.614C393.276 834.812 391.942 835.369 390.763 836.024C386.656 837.957 381.898 838.984 377.407 839.493C365.906 840.797 348.453 837.918 339.318 830.4C337.654 829.031 336.264 827.852 336.023 825.634Z" fill="#0D0E0D"/>
<path d="M742.185 639.23C743.12 639.252 743.268 639.316 744.067 639.81C744.806 640.976 744.86 641.82 744.652 643.154C743.75 648.946 739.169 654.565 734.555 657.921C728.228 662.522 719.649 665.799 711.78 664.553C711.228 664.373 710.605 664.202 710.1 663.917C709.273 663.451 709.088 662.978 708.872 662.105C709.982 658.407 723.786 653.194 727.589 650.634C732.74 647.167 737.202 642.899 742.185 639.23Z" fill="#0D0E0D"/>
<path d="M701.293 490.597C701.929 490.506 702.577 490.48 703.22 490.454C705.182 490.376 707.172 490.602 708.622 492.053C709.307 492.738 709.739 493.512 709.712 494.503C709.7 494.948 709.674 495.032 709.436 495.42C708.821 496.425 707.798 496.865 706.732 497.252C704.008 498.24 700.937 498.672 698.11 499.324C693.566 500.342 689.126 501.78 684.847 503.619C678.694 506.288 672.963 509.699 667.913 514.123C666.216 515.701 664.506 517.264 662.784 518.815C663.685 516.011 664.692 513.677 666.376 511.258C673.862 500.494 688.603 492.818 701.293 490.597Z" fill="#0D0E0D"/>
<path d="M717.872 785.875C718.305 786.079 718.631 786.408 718.996 786.714C719.287 787.529 719.492 788.168 719.313 789.053C718.507 793.025 714.235 797.221 711.016 799.532C705.247 803.672 698.119 806.133 691.023 804.986C690.858 804.904 690.691 804.827 690.529 804.741C689.503 804.196 688.95 803.834 688.578 802.717C688.66 802.431 688.647 802.098 688.822 801.856C689.686 800.662 697.46 797.354 699.167 796.452C705.512 793.126 711.751 789.599 717.872 785.875Z" fill="#0D0E0D"/>
<path d="M103.422 612.346C103.964 612.453 104.454 612.575 104.925 612.883C107.779 614.751 110.405 618.301 112.874 620.736C116.159 623.977 119.61 626.94 123.204 629.827C124.086 630.535 126.494 632.047 126.722 633.061L125.899 633.868C119.531 634.35 114.285 632.563 109.482 628.428C106.04 625.464 102.235 620.803 102.01 616.115C101.93 614.431 102.313 613.594 103.422 612.346Z" fill="#0D0E0D"/>
</svg>
