<svg width="849" height="1183" viewBox="0 0 849 1183" fill="none" xmlns="http://www.w3.org/2000/svg">
<rect x="5" y="5" width="839" height="1173" rx="45" fill="white"/>
<rect x="5" y="5" width="839" height="1173" rx="45" stroke="black" stroke-width="10"/>
<circle cx="786.5" cy="1124.5" r="11.5" fill="black"/>
<circle cx="786.5" cy="59.5" r="11.5" fill="black"/>
<path d="M77 1124.5C77 1130.85 71.8513 1136 65.5 1136C59.1487 1136 54 1130.85 54 1124.5C54 1118.15 59.1487 1113 65.5 1113C71.8513 1113 77 1118.15 77 1124.5Z" fill="black"/>
<path d="M77 59.5C77 65.8513 71.8513 71 65.5 71C59.1487 71 54 65.8513 54 59.5C54 53.1487 59.1487 48 65.5 48C71.8513 48 77 53.1487 77 59.5Z" fill="black"/>
<mask id="path-6-inside-1_1_857" fill="white">
<path d="M708 48C713.523 48 717.934 52.4996 718.616 57.9801C723.122 94.1833 751.817 122.878 788.02 127.384C793.5 128.066 798 132.477 798 138V1046C798 1051.52 793.5 1055.93 788.02 1056.62C751.817 1061.12 723.122 1089.82 718.616 1126.02C717.934 1131.5 713.523 1136 708 1136H141C135.477 1136 131.066 1131.5 130.384 1126.02C125.878 1089.82 97.1833 1061.12 60.9801 1056.62C55.4996 1055.93 51 1051.52 51 1046V138C51 132.477 55.4996 128.066 60.9801 127.384C97.1833 122.878 125.878 94.1833 130.384 57.9801C131.066 52.4996 135.477 48 141 48H708Z"/>
</mask>
<path d="M708 48C713.523 48 717.934 52.4996 718.616 57.9801C723.122 94.1833 751.817 122.878 788.02 127.384C793.5 128.066 798 132.477 798 138V1046C798 1051.52 793.5 1055.93 788.02 1056.62C751.817 1061.12 723.122 1089.82 718.616 1126.02C717.934 1131.5 713.523 1136 708 1136H141C135.477 1136 131.066 1131.5 130.384 1126.02C125.878 1089.82 97.1833 1061.12 60.9801 1056.62C55.4996 1055.93 51 1051.52 51 1046V138C51 132.477 55.4996 128.066 60.9801 127.384C97.1833 122.878 125.878 94.1833 130.384 57.9801C131.066 52.4996 135.477 48 141 48H708Z" fill="#77B866"/>
<path d="M130.384 1126.02L138.322 1125.03L130.384 1126.02ZM718.616 1126.02L710.678 1125.03L718.616 1126.02ZM788.02 1056.62L789.008 1064.56L788.02 1056.62ZM718.616 57.9801L726.555 56.9922L718.616 57.9801ZM718.616 57.9801L710.678 58.9681C715.635 98.8063 747.194 130.365 787.032 135.322L788.02 127.384L789.008 119.445C756.44 115.392 730.608 89.5603 726.555 56.9922L718.616 57.9801ZM798 138H790V1046H798H806V138H798ZM788.02 1056.62L787.032 1048.68C747.194 1053.64 715.635 1085.19 710.678 1125.03L718.616 1126.02L726.555 1127.01C730.608 1094.44 756.44 1068.61 789.008 1064.56L788.02 1056.62ZM708 1136V1128H141V1136V1144H708V1136ZM130.384 1126.02L138.322 1125.03C133.365 1085.19 101.806 1053.64 61.9681 1048.68L60.9801 1056.62L59.9922 1064.56C92.5603 1068.61 118.392 1094.44 122.445 1127.01L130.384 1126.02ZM51 1046H59V138H51H43V1046H51ZM60.9801 127.384L61.9681 135.322C101.806 130.365 133.365 98.8063 138.322 58.9681L130.384 57.9801L122.445 56.9922C118.392 89.5603 92.5603 115.392 59.9922 119.445L60.9801 127.384ZM141 48V56H708V48V40H141V48ZM130.384 57.9801L138.322 58.9681C138.438 58.0389 138.872 57.2306 139.427 56.6958C139.954 56.1887 140.494 56 141 56V48V40C130.84 40 123.547 48.1329 122.445 56.9922L130.384 57.9801ZM51 138H59C59 137.494 59.1887 136.954 59.6958 136.427C60.2306 135.872 61.0389 135.438 61.9681 135.322L60.9801 127.384L59.9922 119.445C51.1329 120.547 43 127.84 43 138H51ZM60.9801 1056.62L61.9681 1048.68C61.0389 1048.56 60.2306 1048.13 59.6958 1047.57C59.1887 1047.05 59 1046.51 59 1046H51H43C43 1056.16 51.1329 1063.45 59.9922 1064.56L60.9801 1056.62ZM141 1136V1128C140.494 1128 139.954 1127.81 139.427 1127.3C138.872 1126.77 138.438 1125.96 138.322 1125.03L130.384 1126.02L122.445 1127.01C123.547 1135.87 130.84 1144 141 1144V1136ZM718.616 1126.02L710.678 1125.03C710.562 1125.96 710.128 1126.77 709.573 1127.3C709.046 1127.81 708.506 1128 708 1128V1136V1144C718.16 1144 725.453 1135.87 726.555 1127.01L718.616 1126.02ZM798 1046H790C790 1046.51 789.811 1047.05 789.304 1047.57C788.769 1048.13 787.961 1048.56 787.032 1048.68L788.02 1056.62L789.008 1064.56C797.867 1063.45 806 1056.16 806 1046H798ZM788.02 127.384L787.032 135.322C787.961 135.438 788.769 135.872 789.304 136.427C789.811 136.954 790 137.494 790 138H798H806C806 127.84 797.867 120.547 789.008 119.445L788.02 127.384ZM718.616 57.9801L726.555 56.9922C725.453 48.1329 718.16 40 708 40V48V56C708.506 56 709.046 56.1887 709.573 56.6958C710.128 57.2306 710.562 58.0389 710.678 58.9681L718.616 57.9801Z" fill="black" mask="url(#path-6-inside-1_1_857)"/>
<path d="M690 102C695.523 102 699.911 106.512 700.837 111.957C705.019 136.563 724.437 155.981 749.043 160.163C754.488 161.089 759 165.477 759 171V1014C759 1019.52 754.488 1023.91 749.043 1024.84C724.711 1028.97 705.454 1048 700.984 1072.22C699.993 1077.59 695.633 1082 690.175 1082H158.825C153.367 1082 149.007 1077.59 148.016 1072.22C143.546 1048 124.288 1028.97 99.9568 1024.84C94.5121 1023.91 90 1019.52 90 1014V171C90 165.477 94.512 161.089 99.9568 160.163C124.563 155.981 143.981 136.563 148.163 111.957C149.089 106.512 153.477 102 159 102H690Z" fill="#A3CC98"/>
<mask id="path-9-outside-2_1_857" maskUnits="userSpaceOnUse" x="400" y="1007" width="49" height="31" fill="black">
<rect fill="white" x="400" y="1007" width="49" height="31"/>
<path d="M400.84 1030.92V1027.48L414.28 1008.2H419.8V1026.96H423.52V1030.92H419.8V1037H415.32V1030.92H400.84ZM415.52 1012.84L406.08 1026.96H415.52V1012.84ZM427.298 1022.04C427.298 1017.43 428.072 1013.83 429.618 1011.24C431.192 1008.63 433.885 1007.32 437.698 1007.32C441.512 1007.32 444.192 1008.63 445.738 1011.24C447.312 1013.83 448.098 1017.43 448.098 1022.04C448.098 1026.71 447.312 1030.36 445.738 1033C444.192 1035.61 441.512 1036.92 437.698 1036.92C433.885 1036.92 431.192 1035.61 429.618 1033C428.072 1030.36 427.298 1026.71 427.298 1022.04ZM443.618 1022.04C443.618 1019.88 443.472 1018.05 443.178 1016.56C442.912 1015.07 442.352 1013.85 441.498 1012.92C440.645 1011.96 439.378 1011.48 437.698 1011.48C436.018 1011.48 434.752 1011.96 433.898 1012.92C433.045 1013.85 432.472 1015.07 432.178 1016.56C431.912 1018.05 431.778 1019.88 431.778 1022.04C431.778 1024.28 431.912 1026.16 432.178 1027.68C432.445 1029.2 433.005 1030.43 433.858 1031.36C434.738 1032.29 436.018 1032.76 437.698 1032.76C439.378 1032.76 440.645 1032.29 441.498 1031.36C442.378 1030.43 442.952 1029.2 443.218 1027.68C443.485 1026.16 443.618 1024.28 443.618 1022.04Z"/>
</mask>
<path d="M400.84 1030.92V1027.48L414.28 1008.2H419.8V1026.96H423.52V1030.92H419.8V1037H415.32V1030.92H400.84ZM415.52 1012.84L406.08 1026.96H415.52V1012.84ZM427.298 1022.04C427.298 1017.43 428.072 1013.83 429.618 1011.24C431.192 1008.63 433.885 1007.32 437.698 1007.32C441.512 1007.32 444.192 1008.63 445.738 1011.24C447.312 1013.83 448.098 1017.43 448.098 1022.04C448.098 1026.71 447.312 1030.36 445.738 1033C444.192 1035.61 441.512 1036.92 437.698 1036.92C433.885 1036.92 431.192 1035.61 429.618 1033C428.072 1030.36 427.298 1026.71 427.298 1022.04ZM443.618 1022.04C443.618 1019.88 443.472 1018.05 443.178 1016.56C442.912 1015.07 442.352 1013.85 441.498 1012.92C440.645 1011.96 439.378 1011.48 437.698 1011.48C436.018 1011.48 434.752 1011.96 433.898 1012.92C433.045 1013.85 432.472 1015.07 432.178 1016.56C431.912 1018.05 431.778 1019.88 431.778 1022.04C431.778 1024.28 431.912 1026.16 432.178 1027.68C432.445 1029.2 433.005 1030.43 433.858 1031.36C434.738 1032.29 436.018 1032.76 437.698 1032.76C439.378 1032.76 440.645 1032.29 441.498 1031.36C442.378 1030.43 442.952 1029.2 443.218 1027.68C443.485 1026.16 443.618 1024.28 443.618 1022.04Z" fill="black"/>
<path d="M400.84 1030.92H400.54V1031.22H400.84V1030.92ZM400.84 1027.48L400.594 1027.31L400.54 1027.39V1027.48H400.84ZM414.28 1008.2V1007.9H414.123L414.034 1008.03L414.28 1008.2ZM419.8 1008.2H420.1V1007.9H419.8V1008.2ZM419.8 1026.96H419.5V1027.26H419.8V1026.96ZM423.52 1026.96H423.82V1026.66H423.52V1026.96ZM423.52 1030.92V1031.22H423.82V1030.92H423.52ZM419.8 1030.92V1030.62H419.5V1030.92H419.8ZM419.8 1037V1037.3H420.1V1037H419.8ZM415.32 1037H415.02V1037.3H415.32V1037ZM415.32 1030.92H415.62V1030.62H415.32V1030.92ZM415.52 1012.84H415.82V1011.85L415.271 1012.67L415.52 1012.84ZM406.08 1026.96L405.831 1026.79L405.519 1027.26H406.08V1026.96ZM415.52 1026.96V1027.26H415.82V1026.96H415.52ZM400.84 1030.92H401.14V1027.48H400.84H400.54V1030.92H400.84ZM400.84 1027.48L401.086 1027.65L414.526 1008.37L414.28 1008.2L414.034 1008.03L400.594 1027.31L400.84 1027.48ZM414.28 1008.2V1008.5H419.8V1008.2V1007.9H414.28V1008.2ZM419.8 1008.2H419.5V1026.96H419.8H420.1V1008.2H419.8ZM419.8 1026.96V1027.26H423.52V1026.96V1026.66H419.8V1026.96ZM423.52 1026.96H423.22V1030.92H423.52H423.82V1026.96H423.52ZM423.52 1030.92V1030.62H419.8V1030.92V1031.22H423.52V1030.92ZM419.8 1030.92H419.5V1037H419.8H420.1V1030.92H419.8ZM419.8 1037V1036.7H415.32V1037V1037.3H419.8V1037ZM415.32 1037H415.62V1030.92H415.32H415.02V1037H415.32ZM415.32 1030.92V1030.62H400.84V1030.92V1031.22H415.32V1030.92ZM415.52 1012.84L415.271 1012.67L405.831 1026.79L406.08 1026.96L406.329 1027.13L415.769 1013.01L415.52 1012.84ZM406.08 1026.96V1027.26H415.52V1026.96V1026.66H406.08V1026.96ZM415.52 1026.96H415.82V1012.84H415.52H415.22V1026.96H415.52ZM429.618 1011.24L429.361 1011.09L429.361 1011.09L429.618 1011.24ZM445.738 1011.24L445.48 1011.39L445.482 1011.4L445.738 1011.24ZM445.738 1033L445.481 1032.85L445.48 1032.85L445.738 1033ZM429.618 1033L429.36 1033.15L429.361 1033.15L429.618 1033ZM443.178 1016.56L442.883 1016.61L442.884 1016.62L443.178 1016.56ZM441.498 1012.92L441.274 1013.12L441.277 1013.12L441.498 1012.92ZM433.898 1012.92L434.12 1013.12L434.123 1013.12L433.898 1012.92ZM432.178 1016.56L431.884 1016.5L431.883 1016.51L432.178 1016.56ZM432.178 1027.68L432.474 1027.63L432.178 1027.68ZM433.858 1031.36L433.637 1031.56L433.64 1031.57L433.858 1031.36ZM441.498 1031.36L441.28 1031.15L441.277 1031.16L441.498 1031.36ZM443.218 1027.68L443.514 1027.73L443.218 1027.68ZM427.298 1022.04H427.598C427.598 1017.45 428.368 1013.92 429.876 1011.39L429.618 1011.24L429.361 1011.09C427.775 1013.74 426.998 1017.4 426.998 1022.04H427.298ZM429.618 1011.24L429.875 1011.39C431.38 1008.89 433.96 1007.62 437.698 1007.62V1007.32V1007.02C433.81 1007.02 431.003 1008.36 429.361 1011.09L429.618 1011.24ZM437.698 1007.32V1007.62C441.437 1007.62 444.002 1008.89 445.48 1011.39L445.738 1011.24L445.997 1011.09C444.382 1008.36 441.586 1007.02 437.698 1007.02V1007.32ZM445.738 1011.24L445.482 1011.4C447.016 1013.92 447.798 1017.46 447.798 1022.04H448.098H448.398C448.398 1017.4 447.608 1013.74 445.995 1011.08L445.738 1011.24ZM448.098 1022.04H447.798C447.798 1026.68 447.016 1030.27 445.481 1032.85L445.738 1033L445.996 1033.15C447.608 1030.45 448.398 1026.73 448.398 1022.04H448.098ZM445.738 1033L445.48 1032.85C444.002 1035.35 441.437 1036.62 437.698 1036.62V1036.92V1037.22C441.586 1037.22 444.382 1035.88 445.997 1033.15L445.738 1033ZM437.698 1036.92V1036.62C433.96 1036.62 431.38 1035.35 429.875 1032.85L429.618 1033L429.361 1033.15C431.003 1035.88 433.81 1037.22 437.698 1037.22V1036.92ZM429.618 1033L429.877 1032.85C428.368 1030.27 427.598 1026.68 427.598 1022.04H427.298H426.998C426.998 1026.73 427.775 1030.45 429.36 1033.15L429.618 1033ZM443.618 1022.04H443.918C443.918 1019.87 443.771 1018.02 443.473 1016.5L443.178 1016.56L442.884 1016.62C443.172 1018.09 443.318 1019.89 443.318 1022.04H443.618ZM443.178 1016.56L443.474 1016.51C443.199 1014.97 442.619 1013.7 441.72 1012.72L441.498 1012.92L441.277 1013.12C442.085 1014.01 442.624 1015.16 442.883 1016.61L443.178 1016.56ZM441.498 1012.92L441.723 1012.72C440.796 1011.68 439.436 1011.18 437.698 1011.18V1011.48V1011.78C439.321 1011.78 440.494 1012.24 441.274 1013.12L441.498 1012.92ZM437.698 1011.48V1011.18C435.961 1011.18 434.601 1011.68 433.674 1012.72L433.898 1012.92L434.123 1013.12C434.903 1012.24 436.076 1011.78 437.698 1011.78V1011.48ZM433.898 1012.92L433.677 1012.72C432.78 1013.7 432.186 1014.97 431.884 1016.5L432.178 1016.56L432.473 1016.62C432.758 1015.17 433.311 1014.01 434.12 1013.12L433.898 1012.92ZM432.178 1016.56L431.883 1016.51C431.612 1018.02 431.478 1019.87 431.478 1022.04H431.778H432.078C432.078 1019.89 432.211 1018.08 432.474 1016.61L432.178 1016.56ZM431.778 1022.04H431.478C431.478 1024.29 431.612 1026.19 431.883 1027.73L432.178 1027.68L432.474 1027.63C432.211 1026.13 432.078 1024.27 432.078 1022.04H431.778ZM432.178 1027.68L431.883 1027.73C432.157 1029.3 432.737 1030.58 433.637 1031.56L433.858 1031.36L434.08 1031.16C433.273 1030.27 432.733 1029.1 432.474 1027.63L432.178 1027.68ZM433.858 1031.36L433.64 1031.57C434.593 1032.58 435.963 1033.06 437.698 1033.06V1032.76V1032.46C436.074 1032.46 434.884 1032.01 434.077 1031.15L433.858 1031.36ZM437.698 1032.76V1033.06C439.434 1033.06 440.793 1032.58 441.72 1031.56L441.498 1031.36L441.277 1031.16C440.498 1032.01 439.323 1032.46 437.698 1032.46V1032.76ZM441.498 1031.36L441.717 1031.57C442.644 1030.58 443.239 1029.3 443.514 1027.73L443.218 1027.68L442.923 1027.63C442.664 1029.1 442.112 1030.27 441.28 1031.15L441.498 1031.36ZM443.218 1027.68L443.514 1027.73C443.785 1026.19 443.918 1024.29 443.918 1022.04H443.618H443.318C443.318 1024.27 443.186 1026.13 442.923 1027.63L443.218 1027.68Z" fill="black" mask="url(#path-9-outside-2_1_857)"/>
<path d="M191.46 256.25H214.455V272H170.88V197.975H191.46V256.25ZM232.852 207.635C229.212 207.635 226.272 206.655 224.032 204.695C221.862 202.665 220.777 200.145 220.777 197.135C220.777 194.055 221.862 191.5 224.032 189.47C226.272 187.44 229.212 186.425 232.852 186.425C236.422 186.425 239.292 187.44 241.462 189.47C243.702 191.5 244.822 194.055 244.822 197.135C244.822 200.145 243.702 202.665 241.462 204.695C239.292 206.655 236.422 207.635 232.852 207.635ZM243.037 213.095V272H222.457V213.095H243.037ZM276.492 212.36C280.482 212.36 283.947 213.165 286.887 214.775C289.897 216.385 292.207 218.555 293.817 221.285V213.095H314.397V271.37C314.397 276.9 313.347 281.87 311.247 286.28C309.147 290.76 305.857 294.33 301.377 296.99C296.967 299.65 291.367 300.98 284.577 300.98C275.477 300.98 268.197 298.845 262.737 294.575C257.277 290.305 254.162 284.495 253.392 277.145H273.657C274.077 279.035 275.127 280.505 276.807 281.555C278.487 282.605 280.657 283.13 283.317 283.13C290.317 283.13 293.817 279.21 293.817 271.37V263.81C292.207 266.54 289.897 268.71 286.887 270.32C283.947 271.93 280.482 272.735 276.492 272.735C271.802 272.735 267.532 271.51 263.682 269.06C259.902 266.61 256.892 263.11 254.652 258.56C252.482 253.94 251.397 248.585 251.397 242.495C251.397 236.405 252.482 231.085 254.652 226.535C256.892 221.985 259.902 218.485 263.682 216.035C267.532 213.585 271.802 212.36 276.492 212.36ZM293.817 242.495C293.817 238.715 292.767 235.74 290.667 233.57C288.637 231.4 286.117 230.315 283.107 230.315C280.027 230.315 277.472 231.4 275.442 233.57C273.412 235.67 272.397 238.645 272.397 242.495C272.397 246.275 273.412 249.285 275.442 251.525C277.472 253.695 280.027 254.78 283.107 254.78C286.117 254.78 288.637 253.695 290.667 251.525C292.767 249.355 293.817 246.345 293.817 242.495ZM364.869 212.57C371.589 212.57 376.909 214.845 380.829 219.395C384.819 223.875 386.814 229.965 386.814 237.665V272H366.234V240.395C366.234 237.035 365.359 234.41 363.609 232.52C361.859 230.56 359.514 229.58 356.574 229.58C353.494 229.58 351.079 230.56 349.329 232.52C347.579 234.41 346.704 237.035 346.704 240.395V272H326.124V194.3H346.704V221.495C348.524 218.835 350.974 216.7 354.054 215.09C357.204 213.41 360.809 212.57 364.869 212.57ZM432.862 254.465V272H423.937C408.887 272 401.362 264.545 401.362 249.635V230.21H394.117V213.095H401.362V198.815H422.047V213.095H432.757V230.21H422.047V249.95C422.047 251.56 422.397 252.715 423.097 253.415C423.867 254.115 425.127 254.465 426.877 254.465H432.862ZM480.836 212.57C487.626 212.57 493.016 214.845 497.006 219.395C500.996 223.875 502.991 229.965 502.991 237.665V272H482.411V240.395C482.411 237.035 481.536 234.41 479.786 232.52C478.036 230.56 475.691 229.58 472.751 229.58C469.671 229.58 467.256 230.56 465.506 232.52C463.756 234.41 462.881 237.035 462.881 240.395V272H442.301V213.095H462.881V221.495C464.701 218.835 467.151 216.7 470.231 215.09C473.311 213.41 476.846 212.57 480.836 212.57ZM524.678 207.635C521.038 207.635 518.098 206.655 515.858 204.695C513.688 202.665 512.603 200.145 512.603 197.135C512.603 194.055 513.688 191.5 515.858 189.47C518.098 187.44 521.038 186.425 524.678 186.425C528.248 186.425 531.118 187.44 533.288 189.47C535.528 191.5 536.648 194.055 536.648 197.135C536.648 200.145 535.528 202.665 533.288 204.695C531.118 206.655 528.248 207.635 524.678 207.635ZM534.863 213.095V272H514.283V213.095H534.863ZM585.118 212.57C591.908 212.57 597.298 214.845 601.288 219.395C605.278 223.875 607.273 229.965 607.273 237.665V272H586.693V240.395C586.693 237.035 585.818 234.41 584.068 232.52C582.318 230.56 579.973 229.58 577.033 229.58C573.953 229.58 571.538 230.56 569.788 232.52C568.038 234.41 567.163 237.035 567.163 240.395V272H546.583V213.095H567.163V221.495C568.983 218.835 571.433 216.7 574.513 215.09C577.593 213.41 581.128 212.57 585.118 212.57ZM640.301 212.36C644.291 212.36 647.756 213.165 650.696 214.775C653.706 216.385 656.016 218.555 657.626 221.285V213.095H678.206V271.37C678.206 276.9 677.156 281.87 675.056 286.28C672.956 290.76 669.666 294.33 665.186 296.99C660.776 299.65 655.176 300.98 648.386 300.98C639.286 300.98 632.006 298.845 626.546 294.575C621.086 290.305 617.971 284.495 617.201 277.145H637.466C637.886 279.035 638.936 280.505 640.616 281.555C642.296 282.605 644.466 283.13 647.126 283.13C654.126 283.13 657.626 279.21 657.626 271.37V263.81C656.016 266.54 653.706 268.71 650.696 270.32C647.756 271.93 644.291 272.735 640.301 272.735C635.611 272.735 631.341 271.51 627.491 269.06C623.711 266.61 620.701 263.11 618.461 258.56C616.291 253.94 615.206 248.585 615.206 242.495C615.206 236.405 616.291 231.085 618.461 226.535C620.701 221.985 623.711 218.485 627.491 216.035C631.341 213.585 635.611 212.36 640.301 212.36ZM657.626 242.495C657.626 238.715 656.576 235.74 654.476 233.57C652.446 231.4 649.926 230.315 646.916 230.315C643.836 230.315 641.281 231.4 639.251 233.57C637.221 235.67 636.206 238.645 636.206 242.495C636.206 246.275 637.221 249.285 639.251 251.525C641.281 253.695 643.836 254.78 646.916 254.78C649.926 254.78 652.446 253.695 654.476 251.525C656.576 249.355 657.626 246.345 657.626 242.495Z" fill="black"/>
<path d="M216.748 360.347C225.201 359.68 234.082 360.179 242.58 360.181L292.343 360.18L447.624 360.183L559.702 360.182L592.419 360.167C600.506 360.164 608.645 359.863 616.674 360.986C633.95 363.262 650.221 370.404 663.59 381.578C681.858 397.031 693.279 419.075 695.368 442.91C696.126 452.22 695.692 461.778 695.688 471.127L695.676 519.798L695.679 674.6L695.686 787.829L695.688 820.128C695.688 828.361 696.011 836.698 694.821 844.865C692.465 861.573 685.367 877.255 674.368 890.05C657.855 909.379 635.151 920.788 609.809 922.801C578.051 923.206 546.246 922.867 514.484 922.867H335.141L251.479 922.866L227.659 922.877C221.059 922.883 214.46 923.083 207.909 922.129C191.453 919.591 175.997 912.625 163.197 901.977C144.982 886.741 132.586 864.511 130.492 840.732C129.679 831.497 130.118 821.96 130.12 812.683L130.135 765.017L130.137 612.888L130.131 496.615L130.127 463.77C130.126 454.95 129.798 446.09 131.099 437.339C133.632 420.773 140.693 405.229 151.503 392.424C168.239 372.665 191.324 362.424 216.748 360.347Z" fill="black"/>
<path d="M149.426 450.065C149.071 434.483 155.895 418.014 165.423 405.95C177.206 391.03 195.187 382.047 213.909 379.932C221.999 379.018 230.494 379.477 238.634 379.477L280.055 379.481L417.28 379.482L550.49 379.476L589.343 379.477C597.27 379.478 605.52 379.057 613.393 379.996C626.642 381.576 639.21 386.478 649.634 394.89C665.217 407.465 673.954 425.312 676.123 445.024C677.104 458.123 676.472 471.621 676.475 484.769L676.496 556.366L676.673 626.684L676.67 647.741C676.669 651.329 676.85 655.031 676.602 658.607C676.763 665.378 676.988 672.406 676.599 679.158L676.605 714.449C659.908 714.446 645.061 719.962 633.115 731.883C621.973 743.012 615.781 758.158 615.935 773.905C615.936 774.131 615.94 774.357 615.946 774.583C606.105 774.864 596.52 778.679 589.676 785.905C585.396 790.424 583.294 795.527 581.56 801.406C572.313 803.144 563.762 806.384 556.452 812.409C547.678 820.669 541.657 830.799 541.315 843.087C541.275 844.562 541.477 846.046 541.43 847.508C541.68 849.794 542.211 852.067 542.661 854.322C535.064 854.859 527.484 856.703 521.205 861.201C511.802 867.936 508.124 877.687 506.262 888.677C497.195 890.815 491.335 896.162 486.072 903.514L405.245 903.521C402.264 893.791 397.97 885.729 389.423 879.8C381.901 874.581 372.332 872.116 363.273 873.79C361.764 867.004 357.803 860.421 353.178 855.306C343.455 844.555 331.42 841.115 317.393 840.461C316.236 833.419 313.936 827.192 309.306 821.656C302.872 813.977 293.651 809.167 283.672 808.285C283.686 803.26 283.508 798.397 282.306 793.496C279.528 782.177 273.147 772.057 263.041 765.959C254.718 760.937 245.644 759.352 236.225 761.709C235.42 755.086 232.592 748.498 228.574 743.188C222.359 734.976 213.282 731.165 203.3 729.796C203.718 725.062 203.534 720.431 203.216 715.703C202.335 701.014 198.608 689.576 187.983 678.904C177.582 668.456 163.921 663.292 149.293 663.275C148.6 659.383 149.202 648.678 149.211 644.145L149.344 594.219L149.335 494.194C149.369 485.244 149.335 476.295 149.233 467.345C149.178 461.702 148.758 455.672 149.426 450.065Z" fill="black"/>
<path d="M149.426 450.065C149.071 434.483 155.895 418.014 165.423 405.95C177.206 391.03 195.187 382.047 213.909 379.932C221.999 379.018 230.494 379.477 238.634 379.477L280.055 379.481L417.28 379.482L550.49 379.476L589.343 379.477C597.27 379.478 605.52 379.057 613.394 379.996C626.643 381.576 639.211 386.478 649.634 394.89C665.218 407.465 673.955 425.312 676.124 445.024C677.104 458.123 676.473 471.62 676.476 484.769L676.497 556.365L676.673 626.684L676.671 647.74C676.67 651.328 676.851 655.03 676.603 658.607C676.116 655.732 676.36 652.456 676.364 649.529L676.387 633.858L676.345 577.699C673.984 580.042 671.385 581.88 668.328 583.216C660.632 586.577 653.682 585.909 646.061 582.874C645.003 588.73 643.547 594.065 640.285 599.131C636.125 605.589 629.886 610.231 622.329 611.834C615.444 613.295 609.87 611.692 604.076 607.937C603.648 608.662 603.177 609.365 602.706 610.063C598.809 615.83 592.552 620.45 585.636 621.722C577.958 623.134 571.9 620.399 565.688 616.123C563.38 620.426 560.435 624.038 556.348 626.776C548.756 631.862 543.766 630.64 535.312 628.99C532.19 623.656 530.267 617.228 526.477 612.358C519.192 602.995 504.219 607.067 493.949 605.808C490.669 605.405 486.129 604.447 483.565 602.217C477.744 597.156 479.906 583.187 472.218 576.052C467.479 571.653 459.191 572.409 453.357 567.974C450.58 565.862 448.478 563.11 446.354 560.379C449 554.655 451.739 549.053 455.313 543.838C459.143 543.421 463.016 543.364 466.852 542.958C477.882 541.79 489.247 538.784 498.458 532.469C505.778 535.185 512.695 536.115 520.474 535.305C537.803 533.497 550.638 522.636 561.241 509.628C564.283 505.758 566.724 501.56 569.036 497.232C569.461 496.09 569.675 495.063 569.172 493.895C568.898 493.259 568.272 492.912 567.626 492.749C566.333 492.422 564.561 493.011 563.385 493.52C560.2 494.901 557.294 496.845 554.233 498.461C545.667 502.984 535.38 507.715 525.607 508.135C516.651 508.519 509.112 504.613 502.216 499.199C500.707 498.013 498.83 495.953 496.926 495.571C495.458 495.276 493.829 496.381 492.724 497.208C489.916 499.308 487.307 501.594 484.338 503.483C472.758 510.857 459.681 512.572 446.247 510.69C431.31 508.597 417.397 503.045 408.164 490.595C406.532 488.38 405.107 486.019 403.908 483.543C402.309 480.199 399.552 469.726 395.473 469.29C391.235 468.837 386.767 471.355 382.59 471.976C363.971 474.743 351.532 464.83 339.882 451.745C337.893 449.512 335.902 447.25 334.058 444.895C332.29 442.637 330.59 439.927 328.447 438.022C327.728 437.383 327.051 436.986 326.077 436.902C325.375 436.842 324.519 437.111 324.033 437.625C322.841 438.888 323.034 441.065 323.261 442.633C323.864 446.816 325.548 451.191 327.027 455.156C332.219 469.083 339.259 483.468 351.581 492.432C353.869 494.095 356.352 495.721 358.897 496.961C351.234 506.92 344.937 514.236 332.251 517.186C329.359 517.859 325.71 518.222 323.232 519.982C320.929 521.616 319.398 523.951 317.788 526.212C313.512 532.216 308.92 536.899 301.258 537.937C296.204 538.622 285.785 536.637 282.646 537.962C279.514 539.283 274.276 547.576 270.712 550.411C267.799 552.685 264.697 554.706 261.439 556.451C257.721 558.477 242.942 564.947 241.202 567.037C240.715 567.621 240.428 568.244 240.478 569.022C240.536 569.927 241.141 571.01 241.924 571.506C244.162 572.92 270.601 572.115 274.913 571.712C277.067 571.51 279.174 571.154 281.219 570.429C286.614 568.518 287.976 564.88 292.349 562.284C292.448 562.225 292.545 562.162 292.643 562.101C297.351 562.003 302.07 561.897 306.762 561.464C306.231 567.123 305.319 574.307 302.526 579.289C301.023 581.971 298.823 584.517 298.013 587.518C296.204 594.212 298.599 619.251 302.748 624.316C303.367 625.072 304.215 625.627 305.223 625.649C306.203 625.669 306.942 625.114 307.55 624.408C310.189 621.347 311.788 611.225 313.197 606.892C314.319 603.479 315.677 600.148 317.263 596.924C318.38 594.647 319.615 592.321 321.144 590.289C323.087 587.709 326.249 585.503 327.385 582.427C328.989 578.083 328.375 573.261 329.318 568.784C331.248 559.618 336.471 551.378 340.927 543.246C345.969 541.873 351.098 541.256 356.023 539.397C366.091 535.596 371.021 527.596 376.906 519.208C379.365 515.704 381.991 512.302 384.38 508.754C393.46 523.274 401.895 528.644 417.247 535.262C413.202 541.038 406.774 555.396 404.258 562.288C403.274 564.981 400.177 577.524 399.285 578.671C398.443 579.752 396.472 580.265 395.209 580.651C379.548 585.441 375.859 587.896 370.359 603.708C364.721 603.709 359.993 604.066 355.774 608.32C352.835 611.284 351.609 615.146 349.201 618.417C342.007 620.252 334.427 619.731 327.302 621.458C317.65 623.798 311.702 639.171 304 646.02C297.464 645.967 290.942 645.238 284.4 645.093C282.663 644.044 280.728 643.469 279.013 642.386C270.045 646.201 263.038 646.894 253.852 643.167C251.796 642.34 249.782 641.41 247.82 640.38C240.209 647.096 230.948 652.336 220.455 651.623C212.772 651.102 205.868 647.337 200.879 641.532C197.051 637.078 194.963 631.945 193.627 626.288C184.123 630.6 174.935 632.481 164.858 628.667C159.257 626.547 152.861 622.142 149.485 617.138L149.499 648.886C149.499 653.335 150.066 659.013 149.293 663.275C148.6 659.382 149.202 648.678 149.211 644.144L149.344 594.218L149.335 494.194C149.369 485.244 149.335 476.294 149.233 467.345C149.178 461.701 148.758 455.672 149.426 450.065Z" fill="#003F54"/>
<path d="M149.423 450.065C149.068 434.483 155.892 418.014 165.419 405.95C177.203 391.03 195.183 382.047 213.906 379.932C221.996 379.018 230.49 379.477 238.631 379.477L280.052 379.481L417.277 379.482L550.487 379.476L589.34 379.477C597.267 379.478 605.517 379.057 613.391 379.996C626.639 381.576 639.207 386.478 649.631 394.89C665.214 407.465 673.952 425.312 676.121 445.024C673.221 447.023 670.437 449.215 667.409 451.02C658.778 456.166 648.676 458.421 638.736 456.618C628.85 454.825 620.265 448.912 614.649 440.646C610.166 434.049 608.337 427.142 607.142 419.366C596.642 422.941 585.079 424.098 574.796 418.992C573.133 418.166 571.533 417.221 570.111 416.02C561.613 423.833 551.023 429.123 539.245 428.646C529.511 428.251 520.98 423.832 514.492 416.674C510.923 412.736 508.311 407.996 506.178 403.153C499.723 410.19 491.221 414.982 481.553 415.424C474.305 415.755 467.947 413.686 461.815 409.941C460.795 422.318 455.907 433.533 446.373 441.679C436.966 449.562 424.845 453.446 412.608 452.5C401.351 451.694 390.917 446.312 383.735 437.607C380.96 434.297 378.415 430.447 376.853 426.404C364.211 426.105 352.707 420.29 344.086 411.178C341.58 408.53 339.37 405.653 337.225 402.711C331.607 414.63 324.66 422.332 311.989 426.905C299.941 431.158 286.697 430.455 275.167 424.95C270.798 422.853 267.036 420.012 263.502 416.717C258.854 430.038 251.189 440.161 238.304 446.451C227.158 451.89 213.946 452.984 202.186 448.894C197.709 447.337 193.664 445.032 189.686 442.486C184.321 453.905 176.106 462.969 164.045 467.38C159.238 469.138 154.596 469.492 149.517 469.376C149.526 463.072 150.032 456.317 149.423 450.065Z" fill="#005E77"/>
<path d="M569.036 497.249C577.903 500.308 588.11 499.204 596.499 495.136C598.864 493.989 600.974 492.562 603.088 491.011C605.876 493.927 608.401 497.148 611.316 499.93C618.42 506.758 627.829 510.668 637.679 510.888C644.549 511.019 650.705 509.762 657.211 507.699C654.169 513.48 647.715 517.583 641.604 519.459C632.113 522.374 621.776 520.767 613.107 516.122C608.63 513.724 605.008 510.657 601.673 506.848C591.271 512.32 576.77 514.542 565.376 511.095C563.98 510.673 562.607 510.152 561.241 509.645C564.283 505.774 566.723 501.576 569.036 497.249Z" fill="#005E77"/>
<path d="M476.246 557.592C481.474 561.098 486.059 563.801 492.528 564.153C499.696 564.543 504.125 562.294 509.402 557.62C510.306 559.172 511.167 560.789 512.215 562.248C516.664 568.449 524.575 572.449 531.997 573.558C540.812 574.876 549.089 573.215 556.3 567.919C560.148 571.423 564.088 574.487 568.809 576.745C580.275 582.23 592.896 581.444 604.621 577.319C603.434 579.424 601.995 580.944 600.256 582.581C599.04 583.517 597.728 584.312 596.401 585.08C589.076 589.32 580.258 591.494 571.933 589.208C565.588 587.465 558.818 583.281 555.522 577.475C553.622 579.072 551.677 580.535 549.495 581.726C542.063 585.782 533.096 587.171 524.919 584.759C516.473 582.266 510.682 577.492 506.531 569.787C502.429 572.442 498.091 573.492 493.231 572.968C487.561 572.357 482.688 569.647 479.151 565.173C477.572 563.176 475.92 560.217 476.246 557.592Z" fill="#005E77"/>
<path d="M263.227 480.625C263.435 480.815 263.642 481.003 263.852 481.191C271.124 487.664 281.013 490.674 290.654 490.196C294.463 490.007 298.201 489.294 301.998 489.085L302.353 489.421C302.272 489.875 302.152 490.23 301.892 490.616C298.621 495.458 292.229 498.634 286.621 499.7C278.352 501.27 271.245 498.706 264.481 494.079C261.631 501.598 255.785 507.532 248.998 511.651C242.531 515.075 235.584 516.474 228.338 515.099C219.798 513.479 212.916 508.556 208.103 501.398C219.678 504.422 232.279 505.185 243.516 500.536C253.113 496.565 259.308 490.146 263.227 480.625Z" fill="#005E77"/>
<path d="M494.109 460.177C497.598 462.818 499.784 465.664 503.887 467.796C511.678 471.844 520.446 472.107 528.78 469.713C531.329 468.981 533.777 467.939 536.302 467.13L536.706 467.351C536.775 467.677 536.852 467.941 536.823 468.287C536.619 470.683 532.889 473.759 531.1 475.182C525.413 479.625 518.211 481.662 511.038 480.856C504.622 480.085 498.809 477.32 494.791 472.21C494.744 472.238 494.691 472.258 494.651 472.295C492.018 474.725 489.299 477.52 486.033 479.102C478.745 482.636 469.671 483.95 461.909 481.171C456.858 479.362 452.31 475.739 449.995 470.851C452.868 471.338 455.762 471.834 458.671 472.034C472.699 473.002 483.528 469.327 494.109 460.177Z" fill="#005E77"/>
<path d="M646.06 582.884C653.682 585.919 660.632 586.587 668.328 583.226C671.385 581.89 673.983 580.052 676.345 577.709L676.387 633.868L676.364 649.539C676.36 652.466 676.115 655.742 676.602 658.617C676.764 665.387 676.989 672.415 676.6 679.168L676.605 714.459C659.908 714.456 645.061 719.971 633.116 731.893C621.974 743.022 615.781 758.168 615.935 773.915C615.936 774.14 615.94 774.367 615.946 774.592C606.105 774.873 596.52 778.689 589.676 785.915C585.396 790.433 583.295 795.537 581.56 801.415C572.313 803.153 563.762 806.393 556.452 812.419C555.675 810.586 554.414 808.887 553.508 807.096C547.25 794.729 548.829 784.442 552.934 771.807C562.675 773.784 572.709 769.653 582.368 768.728C585.332 768.445 588.287 770.114 591.187 768.957C591.744 768.413 592.073 768.012 592.12 767.198C592.333 763.545 581.088 759.166 578.135 758.2C573.872 756.806 569.271 756.253 565.14 754.504C563.149 753.661 561.531 752.71 560.193 750.971C560.126 750.883 560.06 750.793 559.993 750.703C565.443 745.494 569.119 743.228 576.684 742.188C577.576 737.884 579.133 734.577 581.381 730.795L582.636 729.576C581.266 723.078 576.059 720.434 572.986 715.077C570.851 711.354 571.032 706.641 568.444 703.162C565.869 699.7 561.8 697.524 559.502 693.877C556.356 688.885 555.808 682.758 552.146 677.709C549.975 674.715 546.833 672.911 543.96 670.687C543.777 667.648 543.833 664.59 543.825 661.547C548.295 661.09 552.807 660.579 557.304 660.606C559.391 661.944 560.717 663.923 562.313 665.765C568.559 672.98 576.328 671.625 584.805 672.206C591.026 677.105 594.118 679.429 602.383 679.787C604.815 679.893 607.288 679.802 609.685 680.29C611.631 680.687 613.069 682.455 614.914 682.794C615.589 682.917 616.176 682.56 616.592 682.045C616.895 681.672 617.09 681.155 617.059 680.677C616.899 678.288 613.36 676.367 611.482 675.296C609.37 674.093 607.198 673.004 605.372 671.371C600.461 666.98 598.934 659.182 594.246 655.635C589.83 652.293 583.359 653.981 578.994 650.978C575.869 648.827 574.088 644.693 571.265 642.066C565.487 636.692 558.865 637.246 551.591 637.518L539.696 637.959C538.166 635.01 536.76 631.99 535.312 629C543.765 630.65 548.756 631.872 556.347 626.786C560.435 624.048 563.38 620.436 565.687 616.133C571.9 620.409 577.958 623.144 585.636 621.732C592.552 620.46 598.808 615.84 602.705 610.073C603.176 609.375 603.647 608.672 604.075 607.947C609.87 611.702 615.444 613.305 622.329 611.844C629.886 610.24 636.125 605.599 640.284 599.141C643.547 594.074 645.002 588.74 646.06 582.884Z" fill="#00849C"/>
<path d="M640.424 697.917C638.575 691.159 637.494 684.665 639.295 677.744C641.157 670.571 645.808 664.438 652.215 660.713C659.854 656.277 668.082 656.58 676.361 658.778C676.382 665.483 675.943 672.505 676.6 679.163L676.605 714.453C659.908 714.45 645.061 719.966 633.116 731.888C621.974 743.016 615.781 758.163 615.935 773.909C615.936 774.135 615.941 774.361 615.946 774.587C606.105 774.868 596.52 778.684 589.676 785.909C585.396 790.428 583.295 795.531 581.561 801.41C572.313 803.148 563.763 806.388 556.452 812.413C555.675 810.58 554.415 808.881 553.508 807.09C547.25 794.723 548.83 784.436 552.934 771.802C562.676 773.778 572.71 769.647 582.368 768.723C585.333 768.439 588.287 770.109 591.187 768.951C591.745 768.408 592.073 768.007 592.12 767.193C592.333 763.54 581.088 759.16 578.135 758.195C573.872 756.8 569.271 756.248 565.14 754.499C563.149 753.656 561.531 752.704 560.194 750.965C560.126 750.877 560.06 750.787 559.994 750.698C565.443 745.488 569.119 743.222 576.684 742.182C577.576 737.879 579.133 734.571 581.381 730.789L582.636 729.57C584.846 728.044 587.029 726.632 589.551 725.67C595.233 723.503 600.435 724.078 605.892 726.535C605.201 723.456 605.379 720.141 606.104 717.085C607.718 710.477 611.908 704.789 617.741 701.288C624.739 697.004 632.492 696.022 640.424 697.917Z" fill="#00BAD3"/>
<path d="M247.663 734.955C249.897 726.547 254.355 717.566 262.157 713.035C265.351 711.18 268.865 710.554 272.452 711.573C276.415 712.701 278.927 716.296 281.619 717.207C282.076 719.773 282.448 722.199 282.458 724.805C282.47 728.343 279.409 733.958 278.26 737.506C277.182 740.903 276.434 744.397 276.03 747.938C275.84 749.573 275.516 751.755 276.487 753.175C277.208 753.504 277.531 753.595 278.29 753.272C283.733 750.959 284.984 742.137 288.402 737.724C290.848 734.565 294.486 732.586 296.879 729.342C303.682 731.532 309.345 732.907 312.95 739.826C313.936 741.719 314.594 743.744 315.188 745.787C321.182 742.552 327.852 741.656 334.445 743.69C335.725 744.085 336.988 744.55 338.247 745.007C335.777 750.953 332.008 755.339 325.987 757.835C315.914 762.009 315.054 762.371 309.251 771.881C308.185 773.626 306.479 775.39 305.743 777.272C305.396 778.16 305.387 778.773 305.793 779.657C306.497 780.257 306.629 780.34 307.536 780.498C311.632 779.303 315.776 772.738 319.659 770.234C323.391 767.826 327.982 768.273 331.618 765.485C331.711 773.773 329.443 774.576 328.231 781.321C327.525 785.253 327.907 789.224 326.783 793.11C325.401 797.888 318.811 806.572 320.498 811.176C321.014 811.666 321.222 811.904 322.01 811.792C325.138 811.348 330.683 803.152 332.265 800.299C334.826 795.68 335.704 790.178 338.627 785.758C343.457 778.456 350.022 777.213 352.18 767.588C352.23 767.655 352.279 767.723 352.329 767.79C353.384 769.182 354.787 770.219 355.86 771.573C358.941 775.459 359.895 782.417 359.297 787.191C358.785 791.272 357.117 795.038 355.343 798.706C360.569 797.53 365.565 797.842 370.197 800.755C374.719 803.599 377.706 808.225 378.841 813.4C379.779 817.676 378.761 821.597 378.947 825.831C378.398 826.901 377.845 827.975 377.383 829.087C376.636 830.878 375.325 834.179 376.393 835.991C376.73 836.564 377.228 836.93 377.904 836.971C378.848 837.028 379.788 836.339 380.425 835.713C382.681 833.501 384.06 830.384 386.142 828C389.068 824.648 393.273 821.881 396.792 819.14C396.918 819.244 397.042 819.351 397.17 819.452C398.971 820.876 401.904 821.533 403.989 822.699C410.736 826.469 414.713 834.629 415.783 842.015C416.552 847.326 415.928 852.436 414.567 857.594C419.434 856.061 427.144 854.1 432.094 856.369C432.773 857.001 433.101 857.292 434.034 857.513C434.61 857.393 435.074 857.295 435.586 857.002C437.883 857.914 440.051 859.247 442.012 860.741C449.924 866.766 453.667 874.708 455.015 884.39C455.564 883.593 456.126 882.806 456.702 882.028C462.351 874.472 470.624 868.091 480.191 866.827C487.085 865.917 492.402 867.932 497.824 872.051C499.561 865.544 502.366 859.715 507.062 854.816C512.85 848.778 520.832 844.948 529.247 844.802C532.126 844.752 539.454 845.603 541.428 847.513C541.678 849.799 542.209 852.072 542.659 854.327C535.062 854.865 527.483 856.708 521.203 861.206C511.801 867.941 508.122 877.693 506.26 888.683C497.193 890.82 491.333 896.167 486.07 903.519L405.244 903.526C402.262 893.796 397.968 885.734 389.421 879.805C381.899 874.587 372.33 872.121 363.271 873.795C361.762 867.009 357.801 860.426 353.176 855.311C343.453 844.56 331.418 841.12 317.391 840.466C316.234 833.424 313.934 827.197 309.304 821.661C302.87 813.982 293.649 809.172 283.67 808.291C283.684 803.265 283.507 798.402 282.304 793.501C279.526 782.182 273.145 772.062 263.038 765.964C254.716 760.942 245.642 759.357 236.223 761.714C235.418 755.092 232.59 748.503 228.572 743.194C222.357 734.981 213.28 731.171 203.298 729.801C203.716 725.067 203.532 720.436 203.214 715.708C203.345 714.863 203.251 714.333 204.065 713.835C205.095 713.205 206.753 713.124 207.933 712.936C214.08 711.956 219.518 711.928 225.459 714.073C235.501 717.701 242.722 725.758 247.663 734.955Z" fill="#00BAD3"/>
<path d="M452.69 727.829C453.855 725.568 455.128 723.354 456.121 721.008C458.836 714.59 460.751 708.007 463.742 701.657C468.176 710.916 472.256 711.973 481.545 714.6C483.542 715.165 485.632 715.683 487.321 716.948C491.941 720.409 491.95 729.617 492.862 734.849C494.249 742.82 498.37 742.971 503.915 747.116C505.033 747.951 506.006 748.958 506.577 750.248C509 755.739 506.603 765.843 507.757 772.228C508.948 778.812 512.599 777.458 516.871 780.603C520.633 783.372 518.868 790.855 519.586 794.925C520.326 799.116 524.775 801.361 527.576 804.097C529.47 805.948 531.17 808.192 532.42 810.528C533.632 812.794 534.981 817.279 537.283 818.556C538.081 818.998 538.273 818.941 539.111 818.748C539.745 818.156 540.052 817.764 540.269 816.91C540.951 814.214 538.727 806.534 537.715 803.833C536.593 800.842 534.409 797.351 534.236 794.156C533.923 788.357 537.548 783.037 536.392 777.108C535.218 771.087 529.98 767.49 529.215 761.45C528.884 758.838 529.194 756.024 529.323 753.404C530.84 753.685 532.486 753.916 533.894 754.563C542.117 758.349 541.686 768.498 552.933 771.809C548.828 784.444 547.248 794.731 553.507 807.098C554.413 808.889 555.674 810.588 556.451 812.421C547.676 820.68 541.656 830.811 541.314 843.099C541.274 844.573 541.476 846.058 541.428 847.52C539.455 845.61 532.127 844.759 529.248 844.809C520.832 844.955 512.85 848.784 507.062 854.822C502.366 859.721 499.562 865.55 497.825 872.058C492.402 867.939 487.086 865.923 480.191 866.834C470.624 868.097 462.351 874.479 456.703 882.035C456.126 882.812 455.564 883.6 455.016 884.397C453.667 874.715 449.924 866.773 442.012 860.747C440.051 859.254 437.883 857.92 435.586 857.008C438.018 851.045 441.726 847.887 447.296 844.947C449.18 843.952 451.044 843.009 452.653 841.582C455.212 839.312 455.57 835.746 457.68 833.189C459.981 830.402 463.217 829.596 465.624 826.328C467.955 829.065 471.298 830.798 473.229 833.905C474.691 836.255 475.383 838.869 476.136 841.506C477.611 846.668 479.765 850.157 483.305 854.182C484.466 855.502 485.799 857.313 487.247 858.285C488.081 858.846 488.656 858.859 489.616 858.691C490.021 858.357 490.402 858.172 490.587 857.657C491.541 855 488.508 850.217 487.691 847.615C485.177 839.605 489.22 830.218 485.551 821.761C483.606 817.28 477.114 814.39 476.571 809.573C475.653 801.423 483.718 793.305 480.915 785.224C478.553 778.414 470.411 775.386 467.149 769.02C463.919 762.715 467.116 756.011 465.063 749.641C463.779 745.659 460.616 742.076 458.419 738.544C456.274 735.103 454.361 731.523 452.69 727.829Z" fill="#00849C"/>
<path d="M149.293 663.276C150.066 659.014 149.499 653.336 149.5 648.887L149.485 617.139C152.861 622.142 159.258 626.548 164.858 628.668C174.935 632.482 184.123 630.601 193.627 626.289C194.963 631.946 197.051 637.079 200.879 641.533C205.868 647.338 212.772 651.103 220.455 651.624C230.949 652.337 240.209 647.096 247.82 640.381C249.782 641.411 251.796 642.341 253.852 643.168C263.038 646.895 270.045 646.202 279.013 642.387C280.728 643.47 282.663 644.045 284.4 645.094C279.399 645.408 275.314 646.75 271.877 650.606C268.433 654.471 266.615 660.215 262.392 663.233C259.665 665.181 254.809 666.223 251.607 667.645C246.683 669.833 242.224 672.701 237.557 675.357C235.186 676.707 232.418 677.864 230.275 679.545C229.45 680.192 228.809 680.81 228.502 681.836C228.724 682.702 228.812 682.864 229.423 683.516C232.803 684.909 244.003 681.522 248.426 681.247C251.701 681.043 255 681.454 258.196 682.164C256.788 685.389 252.204 696.232 253.515 699.202C253.707 699.639 253.92 699.657 254.311 699.874C255.804 699.752 256.799 698.73 257.739 697.643C261.586 693.194 264.109 687.862 266.207 682.42C278.405 679.836 278.226 671.015 284.783 669.479C287.514 668.839 290.682 669.352 293.445 669.597C292.439 674.852 290.781 687.121 288.715 691.353C287.674 693.484 285.714 695.131 284.083 696.814C276.273 704.87 280.132 707.87 281.621 717.202C278.929 716.291 276.418 712.697 272.454 711.569C268.867 710.549 265.354 711.175 262.159 713.031C254.358 717.562 249.9 726.543 247.665 734.951C242.724 725.753 235.504 717.696 225.461 714.069C219.52 711.923 214.082 711.951 207.935 712.932C206.755 713.12 205.097 713.201 204.067 713.831C203.253 714.328 203.347 714.859 203.216 715.704C202.336 701.015 198.608 689.576 187.984 678.905C177.582 668.456 163.921 663.293 149.293 663.276Z" fill="#00849C"/>
<path d="M427.517 666.59C431.707 673.299 435.886 677.688 442.68 681.79C440.545 687.474 438.609 693.23 436.874 699.049C435.705 703.097 434.965 707.566 433.265 711.414C431.395 715.649 426.493 717.236 425.244 722.171C423.965 727.224 425.669 732.257 426.655 737.193C421.352 753.892 404.905 754.704 402.164 764.78C400.775 769.883 401.98 776.169 401.953 781.444L401.713 781.743C398.847 785.24 393.88 786.119 391.367 789.805C389.547 792.473 388.882 795.975 388.049 799.057C385.847 807.216 383.663 819.04 378.949 825.829C378.763 821.595 379.781 817.674 378.843 813.399C377.708 808.223 374.721 803.597 370.199 800.753C365.567 797.84 360.571 797.528 355.345 798.704C357.119 795.036 358.787 791.27 359.298 787.19C359.897 782.416 358.942 775.457 355.861 771.571C354.789 770.218 353.386 769.18 352.331 767.788C352.28 767.721 352.232 767.653 352.182 767.586C352.314 766.436 352.441 765.27 352.709 764.143C353.461 760.984 355.505 758.537 357.698 756.26C359.588 754.299 361.559 752.039 363.837 750.533C366.527 748.754 370.028 747.938 373.078 746.943C378.443 745.193 383.756 743.402 388.562 740.369C397.598 734.668 397.088 731.725 397.898 721.704C398.072 719.548 398.457 717.653 399.658 715.81C404.184 708.868 413.414 705.086 415.707 696.543C418.022 687.923 415.058 678.306 417.107 669.568C417.132 669.461 417.16 669.353 417.186 669.247C418.035 668.354 418.941 667.508 419.819 666.645C422.269 667.011 425.079 667.078 427.517 666.59Z" fill="#00849C"/>
<path d="M329.263 657.536C334.357 659.66 339.424 659.42 344.787 658.69C344.766 658.813 344.747 658.935 344.725 659.057C343.614 665.187 337.704 669.52 335.787 675.485C332.75 684.931 335.563 695.081 332.19 704.644C331.496 706.612 330.604 708.635 329.539 710.432C328.065 712.917 323.159 718.361 324.958 721.164C325.265 721.643 325.513 721.691 325.994 721.943C328.637 721.996 336.148 715.203 338.199 713.215C343.509 708.069 346.498 701.758 349.085 694.935C350.224 691.931 351.263 688.922 352.896 686.138C358.646 676.338 365.966 673.855 368.278 661.368C373.601 665.435 379.932 667.358 386.627 666.479C388.575 666.223 390.518 665.747 392.395 665.171C392.377 670.051 392.07 675.113 392.403 679.971C392.356 682.329 392.25 684.621 391.943 686.961C386.728 692.838 378.096 695.888 374.301 703.052C371.916 707.556 372.578 718.287 370.234 720.822C368.588 722.602 366.272 723.283 363.996 723.83C347.998 727.676 344.011 729.085 338.247 745.004C336.988 744.547 335.725 744.082 334.445 743.687C327.852 741.653 321.182 742.549 315.188 745.784C314.594 743.741 313.936 741.716 312.95 739.823C309.345 732.904 303.682 731.529 296.878 729.339C299.41 724.741 298.127 720.271 297.775 715.393C297.171 707.021 306.605 703.647 311.455 698.319C318.804 690.246 315.213 678.928 319.633 669.812C321.817 665.305 326.003 661.287 329.263 657.536Z" fill="#00849C"/>
<path d="M435.074 587.042C438.971 591.432 444.338 593.664 449.722 595.651C451.44 596.285 453.554 596.878 454.995 598.023C457.244 599.809 456.455 605.984 456.875 608.759C457.703 614.224 460.552 617.664 464.436 621.345C468.035 624.756 471.734 627.828 476.368 629.704C478.942 630.745 481.595 631.351 484.347 631.677C488.564 632.178 507.191 631.981 509.369 634.192C511.197 636.049 512.648 641.804 513.89 644.345C514.855 646.32 516.261 648.109 517.501 649.921C520.725 654.628 522.527 659.153 523.077 664.832C516.798 668.304 511.111 669.55 504.056 667.546C500.757 666.609 497.932 665.118 495.05 663.289C490.705 666.261 486.439 668.857 481.082 669.296C474.202 660.252 463.973 662.857 458.111 656.834C451.985 650.54 452.446 638.774 448.506 630.917C445.539 625 440.278 620.857 436.856 615.28C431.799 607.04 432.96 596.009 435.074 587.042Z" fill="#003F54"/>
<path d="M481.081 669.29C486.437 668.851 490.704 666.256 495.048 663.284C497.931 665.113 500.756 666.603 504.054 667.54C511.11 669.544 516.796 668.298 523.076 664.826C523.095 669.619 521.399 682.897 524.802 686.057C527.88 688.915 532.964 687.869 535.9 691.391C539.928 696.226 537.746 704.146 542.904 708.481C546.987 711.912 552.363 709.734 556.721 711.893C559.974 713.503 560.922 717.273 563.555 719.515C566.843 722.314 571.236 723.372 574.78 725.737C577.067 727.264 578.552 730.332 581.379 730.789C579.132 734.572 577.575 737.879 576.683 742.183C569.117 743.223 565.442 745.489 559.992 750.698C550.331 735.742 545.544 735.555 529.522 730.728C527.101 729.998 524.163 729.223 522.182 727.576C517.596 723.763 516.763 708.513 512.562 701.869C506.036 691.548 491.505 693.124 487.645 688.072C483.917 683.191 484.58 675.225 481.292 669.644L481.081 669.29Z" fill="#00849C"/>
<path d="M396.793 819.139C400.608 814.944 402.769 809.491 406.81 805.544C411.077 801.374 418.396 799.371 421.643 794.321C425.546 788.249 422.579 779.022 425.94 774.115C428.525 770.34 436.274 765.533 440.015 761.696L440.082 762.193C440.665 766.642 440.068 771.305 441.181 775.654C443.949 786.465 453.783 788.871 456.498 796.085C456.188 800.386 454.753 809.524 453.181 813.402C452.667 814.672 452.077 815.587 451.044 816.486C448.912 818.344 446.382 819.97 444.962 822.484C442.866 826.195 443.382 830.391 441.946 834.223C441.034 836.661 439.56 838.719 437.891 840.69C433.188 846.248 432.702 849.302 432.095 856.368C427.145 854.098 419.435 856.059 414.568 857.593C415.929 852.434 416.553 847.325 415.783 842.014C414.713 834.628 410.737 826.468 403.99 822.697C401.905 821.532 398.972 820.875 397.17 819.45C397.042 819.35 396.919 819.243 396.793 819.139Z" fill="#00849C"/>
<path d="M394.507 610.353C396.611 609.506 398.732 608.875 400.916 608.266C401.728 616.328 403.302 623.83 408.03 630.6C409.656 632.929 411.687 635.028 413.205 637.412C410.48 640.267 407.581 642.931 404.659 645.582C399.555 650.214 393.049 655.07 392.687 662.571C392.411 668.296 393.248 674.297 392.404 679.974C392.071 675.116 392.378 670.055 392.396 665.175C390.519 665.75 388.577 666.227 386.629 666.483C379.933 667.361 373.602 665.438 368.279 661.372C369.528 650.515 369.459 639.555 375.947 630.127C381.847 628.491 387.481 627.454 390.785 621.608C392.698 618.221 393.526 614.09 394.507 610.353Z" fill="#003F54"/>
<path d="M337.303 648.22C339.963 647.68 342.661 647.407 345.321 646.895C345.281 650.802 344.582 654.829 344.787 658.703C339.425 659.433 334.358 659.674 329.263 657.549C332.003 654.495 334.54 651.238 337.303 648.22Z" fill="#003F54"/>
<path d="M419.818 666.65C421.621 665.026 423.441 663.421 425.277 661.835L427.516 666.596C425.078 667.083 422.268 667.017 419.818 666.65Z" fill="#003F54"/>
<path d="M339.358 464.244C341.177 465.145 343.862 468.151 345.578 469.596C349.208 472.654 353.43 475.586 357.698 477.679C367.697 482.582 381.265 483.537 391.774 479.894C394.03 487.047 397.576 493.226 402.327 499.025C413.128 512.207 428.532 519.445 445.379 521.108C463.906 522.936 481.771 519 496.393 507.044C501.569 510.759 506.796 514.022 512.933 515.901C525.316 519.693 538.036 516.07 549.103 510.165C542.995 516.344 537.175 521.367 528.963 524.62C517.22 529.272 508.24 527.931 497.017 523.12C494.298 525.03 491.552 526.911 488.562 528.379C476.786 534.163 462.516 535.255 449.602 535.254C445.383 542.747 437.712 554.182 436.968 562.769C442.148 570.273 447.667 576.284 456.5 579.202C458.897 579.994 461.488 580.341 463.84 581.197C465.546 581.818 466.777 582.811 467.702 584.382C470.575 589.264 470.674 598.543 473.836 604.568C475.439 607.622 478.21 609.211 481.16 610.766C489.606 615.215 497.928 615.9 507.316 615.491C510.609 615.348 514.122 614.901 517.296 616.019C522.531 617.861 524.645 625.995 526.482 630.64C527.66 633.593 528.908 636.518 530.223 639.411C531.383 641.907 532.801 644.777 535.345 646.108C539.998 648.542 553.814 643.197 561.294 645.825C567.513 648.008 569.077 655.098 574.517 658.254C579.171 660.953 584.557 659.567 589.341 661.458C593.795 663.218 594.756 668.911 596.59 672.869C595.164 671.578 594.025 670.079 592.792 668.612C587.396 662.187 583.84 665.27 576.628 664.607C571.036 664.092 568.601 661.454 565.224 657.387C562.463 654.061 560.453 653.039 556.178 652.669C552.205 652.325 540.132 652.756 537.084 655.338C535.407 658.445 536.26 670.976 536.822 674.891C542.227 680.201 548.648 683.007 550.819 690.957C551.537 693.586 551.833 696.344 552.432 699.01C555.886 701.849 560.846 702.943 563.257 707.101C563.649 707.777 563.666 708.109 563.454 708.837L563.212 708.79C557.452 702.362 549.761 705.655 546.71 701.775C545.365 700.065 545.018 692.178 543.395 688.825C540.836 683.537 531.563 679.726 530.55 677.219C529.534 674.705 530.227 667.275 530.07 664.022C529.93 661.139 529.626 658.191 528.988 655.373C527.536 648.963 523.433 644.342 520.816 638.476C519.092 634.612 517.803 629.185 515.059 625.966C511.639 621.954 492.576 623.683 486.801 623.257C481.932 622.898 478.455 621.353 474.417 618.709C458.067 608.005 468.932 599.292 460.712 591.68C456.806 588.062 449.97 587.642 445.323 584.974C439.771 581.785 435.176 575.633 431.058 570.821C429.673 574.64 428.451 578.517 427.396 582.44C423.894 595.958 422.593 611.063 431.464 622.852C434.773 627.25 438.968 631.636 441.229 636.702C442.695 639.986 443.38 643.602 444.23 647.08C445.427 651.977 447.106 656.492 449.697 660.836C454.354 668.644 458.411 668.34 466.482 670.429C468.818 671.033 471.277 671.773 473.069 673.47C478.272 678.396 475.41 689.861 482.838 695.138C489.366 699.776 501.052 698.383 505.423 705.803C510.126 713.786 508.198 727.076 515.224 733.408C524.056 741.368 539.09 738.403 547.2 747.313C549.283 749.602 550.602 752.447 552.173 755.085C555.571 760.794 560.793 762.618 566.829 764.163C563.403 764.218 559.463 764.902 556.103 764.178C547.253 762.272 547.506 749.882 536.022 746.109C533.152 745.167 525.415 742.949 522.788 744.652C522.138 745.073 521.786 745.77 521.626 746.506C521.26 748.185 521.532 750.213 521.487 751.955C521.365 756.668 520.282 762.227 522.128 766.724C523.954 771.173 528.656 774.188 529.385 779.076C530.03 783.399 527.355 788.298 526.911 792.75C526.018 787.943 526.651 777.807 522.449 774.783C520.099 773.091 517.3 772.125 515.175 770.108C515.094 770.031 515.017 769.953 514.938 769.876C513.932 763.031 515.365 755.865 514.484 748.977C513.101 738.15 507.451 741.249 503.32 735.815C499.035 730.182 500.111 715.316 494.994 711.182C488.893 706.254 478.941 707.508 473.496 701.438C469.846 697.369 468.022 683.067 464.614 681.163C464.289 680.982 463.824 680.854 463.478 681.039C460.516 682.63 450.811 712.588 448.667 717.711C447.217 721.178 444.695 723.778 443.684 727.5C445.295 733.378 448.927 739.223 452.307 744.261C453.998 746.782 456.114 749.405 457.131 752.282C457.843 754.296 457.802 756.323 457.731 758.42C457.498 765.338 457.107 770.509 461.77 776.23C464.736 779.869 471.04 784.499 472.255 788.972C473.733 794.414 466.538 804.33 469.218 812.908C471.504 820.227 478.753 819.709 479.892 830.03C477.12 826.061 473.192 823.392 469.895 819.933C468.482 818.45 467.596 816.575 466.091 815.178L465.611 815.264C463.409 817.079 461.972 819.641 460.034 821.721C455.23 826.88 452.333 828.228 448.832 834.738C449.328 831.137 449.66 826.821 452.5 824.197C453.789 823.006 455.294 822.053 456.6 820.88C457.958 819.659 459.155 817.973 459.894 816.305C460.942 813.943 464.905 797.008 465.027 794.347C465.326 787.811 455.276 783.003 451.426 778.14C446.482 771.897 450.239 765.126 447.6 758.483C446.059 754.602 442.971 751.293 440.131 748.317C436.843 752.37 433.613 756.717 429.556 760.037C426.641 762.422 423.275 764.263 420.471 766.775C414.521 772.107 416.715 779.429 416.415 786.446C414.644 792.107 407.293 794.901 402.969 798.441C400.463 800.492 398.612 802.709 396.757 805.351C397.118 802.317 396.814 798.747 397.844 795.876C399.975 789.941 408.58 789.599 410.4 783.059C411.942 777.515 408.439 769.539 411.989 764.795C413.892 762.251 417.35 760.568 420 758.877C427.077 754.36 432.189 746.712 435.72 739.246C434.659 733.359 430.743 725.767 435.691 720.838C437.28 719.254 439.335 717.811 440.277 715.73C442.11 711.677 443.09 706.867 444.481 702.618C446.516 696.396 448.939 690.308 451.242 684.182C451.66 683.071 453.415 678.659 453.196 677.621C452.878 676.111 446.348 673.558 444.874 672.715C443.328 671.826 441.847 670.83 440.439 669.736C434.138 664.75 430.808 654.509 427.927 647.239C422.752 652.545 414.159 658.579 410.247 664.193C406.227 669.961 410.284 688.486 406.484 696.136C403.025 703.098 393.594 706.09 390.532 713.21C388.321 718.35 390.803 725.04 387.763 729.923C383.441 736.864 368.483 738.408 361.437 742.323C357.829 744.327 347.851 755.307 346.432 759.052C345.309 762.017 345.774 765.389 344.261 768.295C342.734 771.225 339.835 773.549 337.872 776.256C339.939 770.874 339.456 766.897 339.116 761.308C338.838 756.728 342.246 753.817 344.325 750.132C346.371 746.503 347.132 741.94 349.779 738.683C356.586 730.306 370.765 733.657 378.077 725.544C382.655 720.464 379.264 711.4 382.822 705.544C386.651 699.241 394.409 696.742 399.157 691.413C399.223 691.338 399.288 691.26 399.353 691.184C400.694 685.255 400.203 676.311 400.341 670.034C400.399 667.449 400.337 664.713 400.992 662.194C402.558 656.176 414.89 647.524 419.504 642.528C421.317 640.564 422.667 638.494 423.956 636.161C423.933 636.127 423.909 636.093 423.887 636.059C421.798 632.901 418.96 630.379 416.663 627.384C409.822 618.462 408.943 607.786 408.642 596.914C403.279 598.267 395.368 599.654 390.658 602.194C385.471 604.991 385.662 609.549 384.257 614.537C381.946 622.739 376.007 618.697 370.679 621.949C366.435 624.539 362.346 640.646 361.585 645.502C360.786 650.599 360.797 655.89 359.661 660.924C357.719 669.525 349.329 675.322 345.33 683.051C342.898 687.752 342.254 693.543 340.953 698.657C340.888 695.697 341.063 692.702 341.186 689.743C341.531 681.494 342.596 677.905 347.454 671.272C348.987 669.179 351.21 666.815 351.95 664.316C353.474 659.163 352.934 652.77 353.364 647.396C353.656 643.75 354.412 640.096 355.036 636.494C349.357 637.849 338.636 638.48 334.187 640.296C330.37 641.854 316.34 658.483 313.549 662.414C312.351 664.102 311.162 666.106 310.49 668.067C307.935 675.517 309.217 684.329 305.498 691.447C302.794 696.622 297.836 699.027 294.016 703.131C288.815 708.718 289.576 715.645 289.785 722.669C288.116 716.054 286.131 707.498 290.649 701.646C292.181 699.662 294.517 698.02 295.692 695.805C297.951 691.545 300.366 675.69 302.021 669.503C302.538 667.57 304.289 664.591 303.75 662.719C301.493 661.395 293.574 661.716 290.571 661.609C277.679 661.15 279.291 664.934 271.726 671.691C266.995 675.916 259.881 674.126 254.112 673.845C265.664 670.898 266.86 671.141 274.173 661.18C275.775 658.998 277.373 656.547 279.422 654.754C280.561 653.758 281.864 652.993 283.371 652.74C286.977 652.134 291.422 653.22 295.035 653.622C299.088 654.078 303.152 654.432 307.222 654.685C311.944 651.468 318.345 641.648 321.964 636.909C323.382 635.052 324.801 632.888 326.743 631.538C331.946 627.92 350.797 629.626 355.511 625.512C358.38 623.008 358.857 618.193 361.54 615.28C364.871 611.663 369.056 613.054 373.31 612.657C377.471 612.27 380.645 598.43 384.446 594.905C390.376 589.405 401.516 591.422 408.193 582.961C410.203 580.414 411.177 572.424 412.323 568.95C415.044 560.692 418.926 552.5 422.783 544.717C424.396 541.462 426.541 538.216 427.83 534.835C428.264 533.698 428.458 532.751 428.28 531.548C427.353 530.162 414.768 525.596 411.934 524.2C408.866 522.691 405.619 520.993 402.92 518.872C397.061 514.268 392.436 507.25 388.898 500.784C387.828 498.829 386.482 495.301 384.265 494.612C382.043 496.186 380.153 500.103 378.617 502.427C374.343 508.894 364.379 524.386 358.418 528.399C353.825 531.492 348.372 532.722 343.03 533.784C340.283 534.331 337.513 534.73 335.043 536.132C333.384 538.42 332.063 541.044 330.663 543.499C326.74 550.374 322.33 557.499 321.086 565.448C320.427 569.659 320.877 574.779 319.391 578.755C318.056 582.328 312.812 588.523 310.677 592.874C307.948 598.439 307.146 604.028 304.826 609.005C304.191 602.82 304.227 593.271 307.018 587.671C308.724 584.246 310.907 580.98 312.185 577.363C313.583 573.411 315.896 558.407 316.028 554.023C316.052 553.24 315.866 552.956 315.347 552.406C312.713 552.04 309.628 552.855 306.948 553.035C301.015 553.433 293.285 552.391 288.057 555.736C284.676 557.9 282.236 561.71 278.342 563.021C273.73 564.575 265.825 564.236 260.788 564.456C271.251 560.536 278.516 554.217 286.287 546.488C290.742 546.947 295.182 547.348 299.656 546.916C314.879 545.448 319.192 539.275 328.241 528.331C332.609 527.096 336.786 526.341 340.959 524.429C351.562 519.569 360.877 510.208 367.497 500.714C368.707 498.98 370.267 497.035 370.929 495.023C371.04 494.685 371.18 494.202 370.977 493.844C370.563 493.118 360.609 488.78 359.062 487.824C349.735 482.059 344.165 473.835 339.358 464.244Z" fill="#FFF9CA"/>
<path d="M149.285 675.407C162.224 676.038 173.386 680.177 182.215 689.993C191.02 699.783 194.502 712.175 193.791 725.163C193.534 729.845 192.28 734.748 190.406 739.039C190.609 739.55 190.451 739.423 190.945 739.647C193.023 740.592 196.973 740.046 199.324 740.129C209.845 740.503 219.099 745.033 223.512 754.972C225.89 760.328 226.569 767.156 225.717 772.92C236.069 770.135 247.241 769.401 256.86 774.94C264.43 779.3 269.568 786.806 271.768 795.177C274.111 804.097 272.001 809.571 271.046 818.247C281.374 817.749 290.432 818.254 298.487 825.59C304.47 831.039 307.408 838.534 307.723 846.526C307.8 848.381 307.808 850.239 307.748 852.095C318.404 850.122 329.879 851.589 338.915 857.837C347.002 863.473 352.466 872.14 354.064 881.868C354.369 883.641 354.537 885.396 354.622 887.193C362.264 884.38 370.691 884.134 378.197 887.575C385.32 890.841 389.652 896.51 392.735 903.523C375.701 903.525 358.581 903.903 341.557 903.498C325.979 903.334 310.384 903.493 294.804 903.482L244.454 903.484C232.221 903.485 215.936 904.54 204.351 901.755C192.308 898.858 181.263 892.786 172.363 884.171C158.97 871.396 151.147 854.544 149.571 836.157C148.951 828.923 149.225 821.539 149.232 814.279C149.245 801.079 149.513 787.812 149.152 774.619C149.653 749.731 148.982 724.81 149.312 699.917L149.285 675.407Z" fill="#00BAD3"/>
<path d="M149.152 774.621C150.124 775.57 156.638 776.562 158.346 777.143C171.71 781.684 180.679 794.877 180.845 808.808C180.881 811.774 180.486 814.694 179.913 817.599C189.034 819.151 196.675 823.602 202.045 831.239C205.462 836.098 207.984 842.044 208.841 847.939C215.819 843.588 223.77 841.942 231.863 843.853C239.27 845.603 245.364 850.396 249.322 856.83C251.623 860.571 252.99 864.441 254.018 868.686C258.867 867.183 264.62 868.219 269.057 870.527C275.18 873.713 279.515 879.21 281.526 885.777C282.724 889.686 283.107 893.947 283.193 898.017C287.538 898.589 291.596 900.499 294.804 903.484L244.454 903.486C232.221 903.487 215.936 904.542 204.351 901.757C192.308 898.86 181.263 892.788 172.363 884.173C158.97 871.398 151.147 854.546 149.571 836.159C148.951 828.925 149.225 821.541 149.232 814.281C149.245 801.081 149.513 787.814 149.152 774.621Z" fill="#005E77"/>
<path d="M149.286 675.407C162.225 676.038 173.387 680.177 182.216 689.993C191.021 699.783 194.503 712.175 193.792 725.163C193.535 729.845 192.281 734.748 190.406 739.039C190.61 739.55 190.452 739.423 190.946 739.647C193.024 740.592 196.974 740.046 199.325 740.129C209.846 740.503 219.1 745.033 223.513 754.972C225.891 760.328 226.57 767.156 225.718 772.92C236.07 770.135 247.242 769.401 256.861 774.94C264.431 779.3 269.569 786.806 271.769 795.177C274.112 804.097 272.002 809.571 271.047 818.247C281.375 817.749 290.433 818.254 298.488 825.59C304.471 831.039 307.409 838.534 307.724 846.526C307.801 848.381 307.809 850.239 307.749 852.095C318.405 850.122 329.88 851.589 338.916 857.837C347.003 863.473 352.467 872.14 354.065 881.868C354.37 883.641 354.538 885.396 354.623 887.193C362.265 884.38 370.692 884.134 378.198 887.575C385.321 890.841 389.653 896.51 392.736 903.523C375.702 903.525 358.582 903.903 341.558 903.498C341.472 899.794 340.939 896.322 339.921 892.755C337.192 883.198 331.226 874.29 322.387 869.415C313.459 864.492 302.758 864.874 293.223 867.61C293.382 862.03 293.306 856.736 291.466 851.399C289.161 844.715 284.322 839.455 277.978 836.389C270.62 832.831 262.177 832.701 254.513 835.325C257.055 827.783 258.008 819.399 255.88 811.624C253.567 803.178 248.04 795.482 240.358 791.143C231.778 786.297 221.623 786.3 212.332 788.861C212.745 786.082 212.589 783.06 212.243 780.281C211.253 772.332 207.471 764.82 201.059 759.891C193.347 753.963 185.563 753.89 176.362 755.083C176.996 753.245 177.542 751.378 177.998 749.489C180.773 738.244 179.877 726.398 173.795 716.363C170.016 710.13 163.898 704.402 156.876 702.078C154.528 701.301 151.955 701.1 149.547 700.52L149.313 699.917L149.286 675.407Z" fill="#99FEF9"/>
<path d="M627.263 787.147C627.152 783.715 626.803 780.289 626.753 776.855C626.556 763.155 631.127 750.652 640.813 740.877C650.606 730.994 662.775 726.725 676.532 726.621C676.896 733.259 676.606 740.052 676.6 746.708L676.66 781.302L676.661 812.853C676.661 824.056 677.207 835.749 674.707 846.739C671.936 858.867 666.152 870.101 657.889 879.402C645.813 892.97 628.971 902.383 610.672 903.388C601.268 903.904 591.721 903.388 582.296 903.506L529.739 903.522C520.735 903.516 511.703 903.372 502.703 903.635C506.718 901.175 510.947 900.182 515.471 899.105C515.722 889.344 517.397 880.181 524.738 873.095C533.565 864.577 546.291 865.574 557.618 865.826C554.82 859.179 552.192 853.361 552.222 845.988C552.258 837.397 556.02 828.997 562.118 822.99C570.524 814.709 580.151 812.62 591.56 812.701C591.465 809.851 591.538 806.999 592.138 804.203C593.422 798.11 597.107 792.793 602.361 789.453C609.972 784.595 618.827 785.304 627.263 787.147Z" fill="#00BAD3"/>
<path d="M627.263 787.147C627.152 783.715 626.803 780.289 626.753 776.855C626.556 763.155 631.127 750.652 640.813 740.877C650.606 730.994 662.775 726.725 676.532 726.621C675.993 735.045 676.546 743.595 676.362 752.042C667.168 751.769 659.111 754.682 652.398 761.07C643.95 769.11 639.795 780.143 639.589 791.684C639.531 794.933 639.646 798.301 640.28 801.495C631.624 799.853 622.864 800.709 615.477 805.806C609.583 809.874 605.941 815.965 604.724 822.986C604.174 826.205 604.119 829.489 604.559 832.726C597.069 831.486 588.911 832.87 582.667 837.317C576.78 841.584 572.822 848.009 571.66 855.187C570.299 863.349 572.525 871.231 576.232 878.461C564.751 876.676 552.346 877.366 542.664 884.46C536.043 889.311 532.283 895.848 529.739 903.522C520.735 903.516 511.703 903.372 502.703 903.635C506.718 901.175 510.947 900.182 515.471 899.105C515.722 889.344 517.397 880.181 524.738 873.095C533.565 864.577 546.291 865.574 557.618 865.826C554.82 859.179 552.192 853.361 552.222 845.988C552.258 837.397 556.02 828.997 562.118 822.99C570.524 814.709 580.151 812.62 591.56 812.701C591.465 809.851 591.538 806.999 592.138 804.203C593.422 798.11 597.107 792.793 602.361 789.453C609.972 784.595 618.827 785.304 627.263 787.147Z" fill="#99FEF9"/>
<path d="M676.532 726.621C676.895 733.259 676.605 740.052 676.599 746.708L676.66 781.302L676.661 812.854C676.661 824.056 677.207 835.749 674.707 846.739C671.936 858.867 666.152 870.102 657.889 879.402C645.812 892.971 628.97 902.384 610.671 903.389C601.268 903.905 591.72 903.389 582.296 903.506C583.451 898.609 586.592 894.042 590.292 890.702C596.982 884.66 604.167 883.48 612.871 883.979C612.76 883.422 612.685 882.907 612.68 882.337C612.635 876.909 615.493 871.524 619.306 867.795C624.915 862.31 631.818 860.15 639.514 860.243C639.091 856.759 639.183 853.354 639.984 849.926C641.715 842.512 646.482 836.481 652.937 832.534C660.346 828.004 668.05 827.384 676.365 829.359L676.362 752.043C676.546 743.595 675.993 735.045 676.532 726.621Z" fill="#005E77"/>
</svg>
