<svg width="849" height="1183" viewBox="0 0 849 1183" fill="none" xmlns="http://www.w3.org/2000/svg">
<rect x="5" y="5" width="839" height="1173" rx="45" fill="white"/>
<rect x="5" y="5" width="839" height="1173" rx="45" stroke="black" stroke-width="10"/>
<circle cx="786.5" cy="1124.5" r="11.5" fill="black"/>
<circle cx="786.5" cy="59.5" r="11.5" fill="black"/>
<path d="M77 1124.5C77 1130.85 71.8513 1136 65.5 1136C59.1487 1136 54 1130.85 54 1124.5C54 1118.15 59.1487 1113 65.5 1113C71.8513 1113 77 1118.15 77 1124.5Z" fill="black"/>
<path d="M77 59.5C77 65.8513 71.8513 71 65.5 71C59.1487 71 54 65.8513 54 59.5C54 53.1487 59.1487 48 65.5 48C71.8513 48 77 53.1487 77 59.5Z" fill="black"/>
<mask id="path-6-inside-1_1_345" fill="white">
<path d="M708 48C713.523 48 717.934 52.4996 718.616 57.9801C723.122 94.1833 751.817 122.878 788.02 127.384C793.5 128.066 798 132.477 798 138V1046C798 1051.52 793.5 1055.93 788.02 1056.62C751.817 1061.12 723.122 1089.82 718.616 1126.02C717.934 1131.5 713.523 1136 708 1136H141C135.477 1136 131.066 1131.5 130.384 1126.02C125.878 1089.82 97.1833 1061.12 60.9801 1056.62C55.4996 1055.93 51 1051.52 51 1046V138C51 132.477 55.4996 128.066 60.9801 127.384C97.1833 122.878 125.878 94.1833 130.384 57.9801C131.066 52.4996 135.477 48 141 48H708Z"/>
</mask>
<path d="M708 48C713.523 48 717.934 52.4996 718.616 57.9801C723.122 94.1833 751.817 122.878 788.02 127.384C793.5 128.066 798 132.477 798 138V1046C798 1051.52 793.5 1055.93 788.02 1056.62C751.817 1061.12 723.122 1089.82 718.616 1126.02C717.934 1131.5 713.523 1136 708 1136H141C135.477 1136 131.066 1131.5 130.384 1126.02C125.878 1089.82 97.1833 1061.12 60.9801 1056.62C55.4996 1055.93 51 1051.52 51 1046V138C51 132.477 55.4996 128.066 60.9801 127.384C97.1833 122.878 125.878 94.1833 130.384 57.9801C131.066 52.4996 135.477 48 141 48H708Z" fill="#0089CB"/>
<path d="M130.384 1126.02L138.322 1125.03L130.384 1126.02ZM718.616 1126.02L710.678 1125.03L718.616 1126.02ZM788.02 1056.62L789.008 1064.56L788.02 1056.62ZM718.616 57.9801L726.555 56.9922L718.616 57.9801ZM718.616 57.9801L710.678 58.9681C715.635 98.8063 747.194 130.365 787.032 135.322L788.02 127.384L789.008 119.445C756.44 115.392 730.608 89.5603 726.555 56.9922L718.616 57.9801ZM798 138H790V1046H798H806V138H798ZM788.02 1056.62L787.032 1048.68C747.194 1053.64 715.635 1085.19 710.678 1125.03L718.616 1126.02L726.555 1127.01C730.608 1094.44 756.44 1068.61 789.008 1064.56L788.02 1056.62ZM708 1136V1128H141V1136V1144H708V1136ZM130.384 1126.02L138.322 1125.03C133.365 1085.19 101.806 1053.64 61.9681 1048.68L60.9801 1056.62L59.9922 1064.56C92.5603 1068.61 118.392 1094.44 122.445 1127.01L130.384 1126.02ZM51 1046H59V138H51H43V1046H51ZM60.9801 127.384L61.9681 135.322C101.806 130.365 133.365 98.8063 138.322 58.9681L130.384 57.9801L122.445 56.9922C118.392 89.5603 92.5603 115.392 59.9922 119.445L60.9801 127.384ZM141 48V56H708V48V40H141V48ZM130.384 57.9801L138.322 58.9681C138.438 58.0389 138.872 57.2306 139.427 56.6958C139.954 56.1887 140.494 56 141 56V48V40C130.84 40 123.547 48.1329 122.445 56.9922L130.384 57.9801ZM51 138H59C59 137.494 59.1887 136.954 59.6958 136.427C60.2306 135.872 61.0389 135.438 61.9681 135.322L60.9801 127.384L59.9922 119.445C51.1329 120.547 43 127.84 43 138H51ZM60.9801 1056.62L61.9681 1048.68C61.0389 1048.56 60.2306 1048.13 59.6958 1047.57C59.1887 1047.05 59 1046.51 59 1046H51H43C43 1056.16 51.1329 1063.45 59.9922 1064.56L60.9801 1056.62ZM141 1136V1128C140.494 1128 139.954 1127.81 139.427 1127.3C138.872 1126.77 138.438 1125.96 138.322 1125.03L130.384 1126.02L122.445 1127.01C123.547 1135.87 130.84 1144 141 1144V1136ZM718.616 1126.02L710.678 1125.03C710.562 1125.96 710.128 1126.77 709.573 1127.3C709.046 1127.81 708.506 1128 708 1128V1136V1144C718.16 1144 725.453 1135.87 726.555 1127.01L718.616 1126.02ZM798 1046H790C790 1046.51 789.811 1047.05 789.304 1047.57C788.769 1048.13 787.961 1048.56 787.032 1048.68L788.02 1056.62L789.008 1064.56C797.867 1063.45 806 1056.16 806 1046H798ZM788.02 127.384L787.032 135.322C787.961 135.438 788.769 135.872 789.304 136.427C789.811 136.954 790 137.494 790 138H798H806C806 127.84 797.867 120.547 789.008 119.445L788.02 127.384ZM718.616 57.9801L726.555 56.9922C725.453 48.1329 718.16 40 708 40V48V56C708.506 56 709.046 56.1887 709.573 56.6958C710.128 57.2306 710.562 58.0389 710.678 58.9681L718.616 57.9801Z" fill="black" mask="url(#path-6-inside-1_1_345)"/>
<path d="M690 102C695.523 102 699.911 106.512 700.837 111.957C705.019 136.563 724.437 155.981 749.043 160.163C754.488 161.089 759 165.477 759 171V1014C759 1019.52 754.488 1023.91 749.043 1024.84C724.711 1028.97 705.454 1048 700.984 1072.22C699.993 1077.59 695.633 1082 690.175 1082H158.825C153.367 1082 149.007 1077.59 148.016 1072.22C143.546 1048 124.288 1028.97 99.9568 1024.84C94.5121 1023.91 90 1019.52 90 1014V171C90 165.477 94.512 161.089 99.9568 160.163C124.563 155.981 143.981 136.563 148.163 111.957C149.089 106.512 153.477 102 159 102H690Z" fill="#4BADDC"/>
<mask id="path-9-outside-2_1_345" maskUnits="userSpaceOnUse" x="400" y="1007" width="49" height="32" fill="black">
<rect fill="white" x="400" y="1007" width="49" height="32"/>
<path d="M400.84 1030.92V1027.48L414.28 1008.2H419.8V1026.96H423.52V1030.92H419.8V1037H415.32V1030.92H400.84ZM415.52 1012.84L406.08 1026.96H415.52V1012.84ZM432.218 1021.76C429.445 1020.37 428.058 1018.19 428.058 1015.2C428.058 1013.76 428.418 1012.44 429.138 1011.24C429.858 1010.04 430.938 1009.09 432.378 1008.4C433.818 1007.68 435.578 1007.32 437.658 1007.32C439.712 1007.32 441.458 1007.68 442.898 1008.4C444.365 1009.09 445.458 1010.04 446.178 1011.24C446.898 1012.44 447.258 1013.76 447.258 1015.2C447.258 1016.69 446.872 1018.01 446.098 1019.16C445.352 1020.28 444.352 1021.15 443.098 1021.76C444.618 1022.32 445.818 1023.24 446.698 1024.52C447.578 1025.77 448.018 1027.25 448.018 1028.96C448.018 1030.69 447.578 1032.23 446.698 1033.56C445.818 1034.89 444.592 1035.92 443.018 1036.64C441.445 1037.36 439.658 1037.72 437.658 1037.72C435.658 1037.72 433.872 1037.36 432.298 1036.64C430.752 1035.92 429.538 1034.89 428.658 1033.56C427.778 1032.23 427.338 1030.69 427.338 1028.96C427.338 1027.23 427.778 1025.73 428.658 1024.48C429.538 1023.23 430.725 1022.32 432.218 1021.76ZM442.898 1015.76C442.898 1014.27 442.432 1013.12 441.498 1012.32C440.565 1011.52 439.285 1011.12 437.658 1011.12C436.058 1011.12 434.792 1011.52 433.858 1012.32C432.925 1013.12 432.458 1014.28 432.458 1015.8C432.458 1017.13 432.938 1018.23 433.898 1019.08C434.885 1019.91 436.138 1020.32 437.658 1020.32C439.178 1020.32 440.432 1019.89 441.418 1019.04C442.405 1018.19 442.898 1017.09 442.898 1015.76ZM437.658 1023.76C435.898 1023.76 434.458 1024.2 433.338 1025.08C432.245 1025.93 431.698 1027.17 431.698 1028.8C431.698 1030.32 432.232 1031.56 433.298 1032.52C434.365 1033.45 435.818 1033.92 437.658 1033.92C439.472 1033.92 440.898 1033.44 441.938 1032.48C443.005 1031.52 443.538 1030.29 443.538 1028.8C443.538 1027.2 442.992 1025.96 441.898 1025.08C440.832 1024.2 439.418 1023.76 437.658 1023.76Z"/>
</mask>
<path d="M400.84 1030.92V1027.48L414.28 1008.2H419.8V1026.96H423.52V1030.92H419.8V1037H415.32V1030.92H400.84ZM415.52 1012.84L406.08 1026.96H415.52V1012.84ZM432.218 1021.76C429.445 1020.37 428.058 1018.19 428.058 1015.2C428.058 1013.76 428.418 1012.44 429.138 1011.24C429.858 1010.04 430.938 1009.09 432.378 1008.4C433.818 1007.68 435.578 1007.32 437.658 1007.32C439.712 1007.32 441.458 1007.68 442.898 1008.4C444.365 1009.09 445.458 1010.04 446.178 1011.24C446.898 1012.44 447.258 1013.76 447.258 1015.2C447.258 1016.69 446.872 1018.01 446.098 1019.16C445.352 1020.28 444.352 1021.15 443.098 1021.76C444.618 1022.32 445.818 1023.24 446.698 1024.52C447.578 1025.77 448.018 1027.25 448.018 1028.96C448.018 1030.69 447.578 1032.23 446.698 1033.56C445.818 1034.89 444.592 1035.92 443.018 1036.64C441.445 1037.36 439.658 1037.72 437.658 1037.72C435.658 1037.72 433.872 1037.36 432.298 1036.64C430.752 1035.92 429.538 1034.89 428.658 1033.56C427.778 1032.23 427.338 1030.69 427.338 1028.96C427.338 1027.23 427.778 1025.73 428.658 1024.48C429.538 1023.23 430.725 1022.32 432.218 1021.76ZM442.898 1015.76C442.898 1014.27 442.432 1013.12 441.498 1012.32C440.565 1011.52 439.285 1011.12 437.658 1011.12C436.058 1011.12 434.792 1011.52 433.858 1012.32C432.925 1013.12 432.458 1014.28 432.458 1015.8C432.458 1017.13 432.938 1018.23 433.898 1019.08C434.885 1019.91 436.138 1020.32 437.658 1020.32C439.178 1020.32 440.432 1019.89 441.418 1019.04C442.405 1018.19 442.898 1017.09 442.898 1015.76ZM437.658 1023.76C435.898 1023.76 434.458 1024.2 433.338 1025.08C432.245 1025.93 431.698 1027.17 431.698 1028.8C431.698 1030.32 432.232 1031.56 433.298 1032.52C434.365 1033.45 435.818 1033.92 437.658 1033.92C439.472 1033.92 440.898 1033.44 441.938 1032.48C443.005 1031.52 443.538 1030.29 443.538 1028.8C443.538 1027.2 442.992 1025.96 441.898 1025.08C440.832 1024.2 439.418 1023.76 437.658 1023.76Z" fill="black"/>
<path d="M400.84 1030.92H400.54V1031.22H400.84V1030.92ZM400.84 1027.48L400.594 1027.31L400.54 1027.39V1027.48H400.84ZM414.28 1008.2V1007.9H414.123L414.034 1008.03L414.28 1008.2ZM419.8 1008.2H420.1V1007.9H419.8V1008.2ZM419.8 1026.96H419.5V1027.26H419.8V1026.96ZM423.52 1026.96H423.82V1026.66H423.52V1026.96ZM423.52 1030.92V1031.22H423.82V1030.92H423.52ZM419.8 1030.92V1030.62H419.5V1030.92H419.8ZM419.8 1037V1037.3H420.1V1037H419.8ZM415.32 1037H415.02V1037.3H415.32V1037ZM415.32 1030.92H415.62V1030.62H415.32V1030.92ZM415.52 1012.84H415.82V1011.85L415.271 1012.67L415.52 1012.84ZM406.08 1026.96L405.831 1026.79L405.519 1027.26H406.08V1026.96ZM415.52 1026.96V1027.26H415.82V1026.96H415.52ZM400.84 1030.92H401.14V1027.48H400.84H400.54V1030.92H400.84ZM400.84 1027.48L401.086 1027.65L414.526 1008.37L414.28 1008.2L414.034 1008.03L400.594 1027.31L400.84 1027.48ZM414.28 1008.2V1008.5H419.8V1008.2V1007.9H414.28V1008.2ZM419.8 1008.2H419.5V1026.96H419.8H420.1V1008.2H419.8ZM419.8 1026.96V1027.26H423.52V1026.96V1026.66H419.8V1026.96ZM423.52 1026.96H423.22V1030.92H423.52H423.82V1026.96H423.52ZM423.52 1030.92V1030.62H419.8V1030.92V1031.22H423.52V1030.92ZM419.8 1030.92H419.5V1037H419.8H420.1V1030.92H419.8ZM419.8 1037V1036.7H415.32V1037V1037.3H419.8V1037ZM415.32 1037H415.62V1030.92H415.32H415.02V1037H415.32ZM415.32 1030.92V1030.62H400.84V1030.92V1031.22H415.32V1030.92ZM415.52 1012.84L415.271 1012.67L405.831 1026.79L406.08 1026.96L406.329 1027.13L415.769 1013.01L415.52 1012.84ZM406.08 1026.96V1027.26H415.52V1026.96V1026.66H406.08V1026.96ZM415.52 1026.96H415.82V1012.84H415.52H415.22V1026.96H415.52ZM432.218 1021.76L432.324 1022.04L432.968 1021.8L432.353 1021.49L432.218 1021.76ZM429.138 1011.24L428.881 1011.09L429.138 1011.24ZM432.378 1008.4L432.509 1008.67L432.513 1008.67L432.378 1008.4ZM442.898 1008.4L442.764 1008.67L442.77 1008.67L442.898 1008.4ZM446.178 1011.24L446.436 1011.09L446.178 1011.24ZM446.098 1019.16L445.85 1018.99L445.849 1018.99L446.098 1019.16ZM443.098 1021.76L442.967 1021.49L442.336 1021.8L442.995 1022.04L443.098 1021.76ZM446.698 1024.52L446.451 1024.69L446.453 1024.69L446.698 1024.52ZM446.698 1033.56L446.949 1033.73L446.698 1033.56ZM443.018 1036.64L442.894 1036.37L443.018 1036.64ZM432.298 1036.64L432.172 1036.91L432.174 1036.91L432.298 1036.64ZM428.658 1033.56L428.408 1033.73L428.658 1033.56ZM428.658 1024.48L428.413 1024.31L428.658 1024.48ZM441.498 1012.32L441.694 1012.09V1012.09L441.498 1012.32ZM433.858 1012.32L433.663 1012.09V1012.09L433.858 1012.32ZM433.898 1019.08L433.699 1019.3L433.706 1019.31L433.898 1019.08ZM433.338 1025.08L433.523 1025.32L433.524 1025.32L433.338 1025.08ZM433.298 1032.52L433.098 1032.74L433.101 1032.75L433.298 1032.52ZM441.938 1032.48L441.738 1032.26L441.735 1032.26L441.938 1032.48ZM441.898 1025.08L441.708 1025.31L441.71 1025.31L441.898 1025.08ZM432.218 1021.76L432.353 1021.49C431.005 1020.82 430.011 1019.96 429.352 1018.92C428.693 1017.88 428.358 1016.65 428.358 1015.2H428.058H427.758C427.758 1016.74 428.117 1018.09 428.845 1019.24C429.573 1020.39 430.659 1021.32 432.084 1022.03L432.218 1021.76ZM428.058 1015.2H428.358C428.358 1013.81 428.705 1012.55 429.396 1011.39L429.138 1011.24L428.881 1011.09C428.132 1012.33 427.758 1013.71 427.758 1015.2H428.058ZM429.138 1011.24L429.396 1011.39C430.081 1010.25 431.114 1009.34 432.509 1008.67L432.378 1008.4L432.248 1008.13C430.763 1008.84 429.635 1009.83 428.881 1011.09L429.138 1011.24ZM432.378 1008.4L432.513 1008.67C433.901 1007.97 435.612 1007.62 437.658 1007.62V1007.32V1007.02C435.545 1007.02 433.736 1007.39 432.244 1008.13L432.378 1008.4ZM437.658 1007.32V1007.62C439.678 1007.62 441.376 1007.97 442.764 1008.67L442.898 1008.4L443.033 1008.13C441.541 1007.39 439.746 1007.02 437.658 1007.02V1007.32ZM442.898 1008.4L442.77 1008.67C444.192 1009.34 445.236 1010.25 445.921 1011.39L446.178 1011.24L446.436 1011.09C445.681 1009.83 444.538 1008.84 443.027 1008.13L442.898 1008.4ZM446.178 1011.24L445.921 1011.39C446.612 1012.55 446.958 1013.81 446.958 1015.2H447.258H447.558C447.558 1013.71 447.185 1012.33 446.436 1011.09L446.178 1011.24ZM447.258 1015.2H446.958C446.958 1016.64 446.587 1017.9 445.85 1018.99L446.098 1019.16L446.347 1019.33C447.157 1018.13 447.558 1016.75 447.558 1015.2H447.258ZM446.098 1019.16L445.849 1018.99C445.133 1020.07 444.174 1020.9 442.967 1021.49L443.098 1021.76L443.23 1022.03C444.529 1021.39 445.571 1020.49 446.348 1019.33L446.098 1019.16ZM443.098 1021.76L442.995 1022.04C444.459 1022.58 445.608 1023.46 446.451 1024.69L446.698 1024.52L446.946 1024.35C446.029 1023.02 444.778 1022.06 443.202 1021.48L443.098 1021.76ZM446.698 1024.52L446.453 1024.69C447.293 1025.89 447.718 1027.31 447.718 1028.96H448.018H448.318C448.318 1027.2 447.863 1025.66 446.944 1024.35L446.698 1024.52ZM448.018 1028.96H447.718C447.718 1030.64 447.293 1032.11 446.448 1033.39L446.698 1033.56L446.949 1033.73C447.864 1032.34 448.318 1030.75 448.318 1028.96H448.018ZM446.698 1033.56L446.448 1033.39C445.602 1034.68 444.42 1035.67 442.894 1036.37L443.018 1036.64L443.143 1036.91C444.763 1036.17 446.035 1035.11 446.949 1033.73L446.698 1033.56ZM443.018 1036.64L442.894 1036.37C441.365 1037.07 439.622 1037.42 437.658 1037.42V1037.72V1038.02C439.695 1038.02 441.525 1037.65 443.143 1036.91L443.018 1036.64ZM437.658 1037.72V1037.42C435.695 1037.42 433.952 1037.07 432.423 1036.37L432.298 1036.64L432.174 1036.91C433.792 1037.65 435.622 1038.02 437.658 1038.02V1037.72ZM432.298 1036.64L432.425 1036.37C430.925 1035.67 429.756 1034.68 428.909 1033.39L428.658 1033.56L428.408 1033.73C429.321 1035.11 430.578 1036.17 432.172 1036.91L432.298 1036.64ZM428.658 1033.56L428.909 1033.39C428.064 1032.11 427.638 1030.64 427.638 1028.96H427.338H427.038C427.038 1030.75 427.493 1032.34 428.408 1033.73L428.658 1033.56ZM427.338 1028.96H427.638C427.638 1027.28 428.064 1025.85 428.904 1024.65L428.658 1024.48L428.413 1024.31C427.493 1025.62 427.038 1027.17 427.038 1028.96H427.338ZM428.658 1024.48L428.904 1024.65C429.748 1023.45 430.885 1022.58 432.324 1022.04L432.218 1021.76L432.113 1021.48C430.566 1022.06 429.329 1023 428.413 1024.31L428.658 1024.48ZM442.898 1015.76H443.198C443.198 1014.2 442.708 1012.96 441.694 1012.09L441.498 1012.32L441.303 1012.55C442.156 1013.28 442.598 1014.33 442.598 1015.76H442.898ZM441.498 1012.32L441.694 1012.09C440.69 1011.23 439.333 1010.82 437.658 1010.82V1011.12V1011.42C439.237 1011.42 440.44 1011.81 441.303 1012.55L441.498 1012.32ZM437.658 1011.12V1010.82C436.009 1010.82 434.666 1011.23 433.663 1012.09L433.858 1012.32L434.054 1012.55C434.918 1011.81 436.108 1011.42 437.658 1011.42V1011.12ZM433.858 1012.32L433.663 1012.09C432.648 1012.96 432.158 1014.21 432.158 1015.8H432.458H432.758C432.758 1014.35 433.202 1013.28 434.054 1012.55L433.858 1012.32ZM432.458 1015.8H432.158C432.158 1017.22 432.672 1018.39 433.699 1019.3L433.898 1019.08L434.098 1018.86C433.205 1018.06 432.758 1017.05 432.758 1015.8H432.458ZM433.898 1019.08L433.706 1019.31C434.756 1020.19 436.081 1020.62 437.658 1020.62V1020.32V1020.02C436.196 1020.02 435.014 1019.62 434.091 1018.85L433.898 1019.08ZM437.658 1020.32V1020.62C439.238 1020.62 440.565 1020.18 441.615 1019.27L441.418 1019.04L441.222 1018.81C440.299 1019.61 439.119 1020.02 437.658 1020.02V1020.32ZM441.418 1019.04L441.615 1019.27C442.669 1018.36 443.198 1017.18 443.198 1015.76H442.898H442.598C442.598 1017.01 442.141 1018.02 441.222 1018.81L441.418 1019.04ZM437.658 1023.76V1023.46C435.847 1023.46 434.337 1023.91 433.153 1024.84L433.338 1025.08L433.524 1025.32C434.579 1024.49 435.949 1024.06 437.658 1024.06V1023.76ZM433.338 1025.08L433.154 1024.84C431.975 1025.76 431.398 1027.1 431.398 1028.8H431.698H431.998C431.998 1027.25 432.516 1026.1 433.523 1025.32L433.338 1025.08ZM431.698 1028.8H431.398C431.398 1030.4 431.964 1031.72 433.098 1032.74L433.298 1032.52L433.499 1032.3C432.5 1031.4 431.998 1030.24 431.998 1028.8H431.698ZM433.298 1032.52L433.101 1032.75C434.237 1033.74 435.768 1034.22 437.658 1034.22V1033.92V1033.62C435.869 1033.62 434.493 1033.17 433.496 1032.29L433.298 1032.52ZM437.658 1033.92V1034.22C439.525 1034.22 441.032 1033.72 442.142 1032.7L441.938 1032.48L441.735 1032.26C440.765 1033.16 439.418 1033.62 437.658 1033.62V1033.92ZM441.938 1032.48L442.139 1032.7C443.272 1031.68 443.838 1030.37 443.838 1028.8H443.538H443.238C443.238 1030.21 442.738 1031.36 441.738 1032.26L441.938 1032.48ZM443.538 1028.8H443.838C443.838 1027.12 443.261 1025.79 442.087 1024.85L441.898 1025.08L441.71 1025.31C442.722 1026.13 443.238 1027.28 443.238 1028.8H443.538ZM441.898 1025.08L442.089 1024.85C440.956 1023.91 439.469 1023.46 437.658 1023.46V1023.76V1024.06C439.368 1024.06 440.708 1024.49 441.708 1025.31L441.898 1025.08Z" fill="black" mask="url(#path-9-outside-2_1_345)"/>
<path d="M264.445 272H243.865L216.46 230.63V272H195.88V197.975H216.46L243.865 239.87V197.975H264.445V272ZM332.448 241.865C332.448 243.475 332.343 245.085 332.133 246.695H293.178C293.388 249.915 294.263 252.33 295.803 253.94C297.413 255.48 299.443 256.25 301.893 256.25C305.323 256.25 307.773 254.71 309.243 251.63H331.188C330.278 255.69 328.493 259.33 325.833 262.55C323.243 265.7 319.953 268.185 315.963 270.005C311.973 271.825 307.563 272.735 302.733 272.735C296.923 272.735 291.743 271.51 287.193 269.06C282.713 266.61 279.178 263.11 276.588 258.56C274.068 254.01 272.808 248.655 272.808 242.495C272.808 236.335 274.068 231.015 276.588 226.535C279.108 221.985 282.608 218.485 287.088 216.035C291.638 213.585 296.853 212.36 302.733 212.36C308.543 212.36 313.688 213.55 318.168 215.93C322.648 218.31 326.148 221.74 328.668 226.22C331.188 230.63 332.448 235.845 332.448 241.865ZM311.448 236.72C311.448 234.2 310.608 232.24 308.928 230.84C307.248 229.37 305.148 228.635 302.628 228.635C300.108 228.635 298.043 229.335 296.433 230.735C294.823 232.065 293.773 234.06 293.283 236.72H311.448ZM361.45 221.285C363.06 218.555 365.335 216.385 368.275 214.775C371.215 213.165 374.68 212.36 378.67 212.36C383.36 212.36 387.595 213.585 391.375 216.035C395.225 218.485 398.235 221.985 400.405 226.535C402.645 231.085 403.765 236.405 403.765 242.495C403.765 248.585 402.645 253.94 400.405 258.56C398.235 263.11 395.225 266.61 391.375 269.06C387.595 271.51 383.36 272.735 378.67 272.735C374.68 272.735 371.215 271.93 368.275 270.32C365.405 268.71 363.13 266.54 361.45 263.81V300.14H340.87V213.095H361.45V221.285ZM382.87 242.495C382.87 238.645 381.82 235.67 379.72 233.57C377.69 231.4 375.17 230.315 372.16 230.315C369.15 230.315 366.595 231.4 364.495 233.57C362.465 235.74 361.45 238.715 361.45 242.495C361.45 246.345 362.465 249.355 364.495 251.525C366.595 253.695 369.15 254.78 372.16 254.78C375.17 254.78 377.69 253.695 379.72 251.525C381.82 249.285 382.87 246.275 382.87 242.495ZM446.992 254.465V272H438.067C423.017 272 415.492 264.545 415.492 249.635V230.21H408.247V213.095H415.492V198.815H436.177V213.095H446.887V230.21H436.177V249.95C436.177 251.56 436.527 252.715 437.227 253.415C437.997 254.115 439.257 254.465 441.007 254.465H446.992ZM516.702 213.095V272H496.017V263.6C494.267 266.26 491.852 268.43 488.772 270.11C485.692 271.72 482.157 272.525 478.167 272.525C471.307 272.525 465.882 270.285 461.892 265.805C457.972 261.255 456.012 255.095 456.012 247.325V213.095H476.487V244.7C476.487 248.06 477.362 250.72 479.112 252.68C480.932 254.57 483.312 255.515 486.252 255.515C489.262 255.515 491.642 254.57 493.392 252.68C495.142 250.72 496.017 248.06 496.017 244.7V213.095H516.702ZM566.949 212.57C573.739 212.57 579.129 214.845 583.119 219.395C587.109 223.875 589.104 229.965 589.104 237.665V272H568.524V240.395C568.524 237.035 567.649 234.41 565.899 232.52C564.149 230.56 561.804 229.58 558.864 229.58C555.784 229.58 553.369 230.56 551.619 232.52C549.869 234.41 548.994 237.035 548.994 240.395V272H528.414V213.095H548.994V221.495C550.814 218.835 553.264 216.7 556.344 215.09C559.424 213.41 562.959 212.57 566.949 212.57ZM656.677 241.865C656.677 243.475 656.572 245.085 656.362 246.695H617.407C617.617 249.915 618.492 252.33 620.032 253.94C621.642 255.48 623.672 256.25 626.122 256.25C629.552 256.25 632.002 254.71 633.472 251.63H655.417C654.507 255.69 652.722 259.33 650.062 262.55C647.472 265.7 644.182 268.185 640.192 270.005C636.202 271.825 631.792 272.735 626.962 272.735C621.152 272.735 615.972 271.51 611.422 269.06C606.942 266.61 603.407 263.11 600.817 258.56C598.297 254.01 597.037 248.655 597.037 242.495C597.037 236.335 598.297 231.015 600.817 226.535C603.337 221.985 606.837 218.485 611.317 216.035C615.867 213.585 621.082 212.36 626.962 212.36C632.772 212.36 637.917 213.55 642.397 215.93C646.877 218.31 650.377 221.74 652.897 226.22C655.417 230.63 656.677 235.845 656.677 241.865ZM635.677 236.72C635.677 234.2 634.837 232.24 633.157 230.84C631.477 229.37 629.377 228.635 626.857 228.635C624.337 228.635 622.272 229.335 620.662 230.735C619.052 232.065 618.002 234.06 617.512 236.72H635.677Z" fill="black"/>
<circle cx="424" cy="642" r="302" fill="black"/>
<path d="M380.877 552.46C388.495 551.679 396.866 552.22 404.502 552.79C418.478 553.826 432.326 556.165 445.867 559.777C461.467 564.009 476.526 569.792 491.805 575.005C511.268 581.648 531.539 587.395 552.044 589.609C572.409 591.808 592.559 590.488 612.681 586.871C632.531 583.303 652.315 578.322 672.556 577.599C684.336 577.177 695.488 578.504 707.073 580.576C713.792 609.364 713.949 638.758 712.317 668.093C703.941 670.19 695.625 672.066 687.322 674.495C665.474 680.884 644.555 688.079 621.594 689.199C604.07 690.055 586.355 685.822 569.111 683.265C523.636 676.522 496.485 683.907 453.57 698.226C418.578 712.197 384.051 721.463 346.457 712.703C333.193 709.612 320.362 704.737 307.666 699.869C291.977 693.853 276.548 687.309 260.51 682.228C242.117 676.399 223.038 671.907 203.664 671.562C181.038 671.159 159.265 676.327 137.608 682.36C134.342 657.326 134.325 631.975 137.556 606.936C189.206 624.506 219.778 611.455 266.364 587.177C276.782 581.749 286.997 575.815 297.794 571.152C323.809 559.92 352.652 553.984 380.877 552.46Z" fill="#40496D"/>
<path d="M364.097 614.39C382.467 613.862 418.132 617.567 432.187 629.936C434.564 632.027 436.46 634.702 436.591 637.961C436.711 640.963 435.273 643.61 433.191 645.682C420.28 658.531 386.113 661.523 368.457 661.754C349.051 661.519 315.84 657.925 300.486 645.636C298.002 643.649 295.69 640.945 295.417 637.642C295.217 635.223 296.225 632.985 297.813 631.202C308.712 618.964 347.958 614.982 364.097 614.39Z" fill="black"/>
<path d="M362.949 623.385C377.461 622.607 413.33 626.503 424.57 635.445C425.502 636.186 426.247 637.041 426.31 638.283C426.348 639.02 425.93 639.791 425.434 640.325C423.865 642.019 421.092 643.142 419.001 644.05C404.192 650.481 386.049 652.515 370.032 652.713C355.194 652.714 339.814 651.071 325.528 646.947C321.214 645.702 307.829 641.399 305.653 637.481C305.81 636.681 305.875 636.366 306.455 635.746C308.085 634.002 311.437 632.945 313.643 632.124C329.249 626.321 346.401 624.107 362.949 623.385Z" fill="#40496D"/>
<path d="M361.34 632.771C373.174 631.644 388.141 633.157 399.002 638.173C391.393 640.712 383.402 641.724 375.41 642.017C362.408 642.847 350.541 641.561 337.976 638.132C345.397 634.837 353.313 633.554 361.34 632.771Z" fill="#637297"/>
<path d="M710.202 678.315L710.734 678.297L711.024 678.767C709.366 696.475 704.8 714.127 699.577 731.079C695.875 731.908 691.761 732.039 687.969 732.244C674.296 732.982 660.716 732.011 647.048 731.806C629.2 731.539 612.678 733.44 595.255 737.403C573.44 742.364 552.867 750.662 532.155 758.928C506.901 769.008 481.728 778.991 455.002 784.545C441.285 787.396 427.153 789.108 413.124 788.496C321.48 784.498 244.296 709.239 149.512 730.348C149.496 730.345 149.478 730.347 149.465 730.338C146.638 728.582 140.087 697.069 139.058 692.089C150.202 688.869 161.317 685.645 172.771 683.704C224.833 674.88 264.863 693.764 312.298 711.594C333.303 719.489 353.703 725.735 376.329 725.879C424.38 726.186 464.799 698.903 511.565 692.282C534.201 689.076 555.854 690.819 578.315 694.289C592.288 696.447 606.426 699.193 620.625 698.855C651.929 698.111 680.015 684.424 710.202 678.315Z" fill="#4B98D7"/>
<path d="M175.36 788.116C178.944 789.153 187.337 795.276 190.83 797.544C198.173 802.411 205.619 807.125 213.159 811.681C236.438 825.55 261.68 837.299 287.707 844.953C352.34 863.96 402.204 856.79 464.511 834.932C473.276 831.857 481.9 828.372 490.691 825.375C506.272 819.932 522.393 816.187 538.778 814.204C561.241 811.622 579.928 814.141 602.195 815.393C611.831 815.848 621.481 815.924 631.122 815.624C639.774 815.371 648.717 814.766 657.209 813.032C652.992 817.594 649.383 822.884 645.376 827.652C638.592 835.686 631.35 843.322 623.686 850.521C610.139 863.268 595.365 874.644 579.579 884.482C514.391 925.758 435.399 939.234 360.213 921.906C296.828 907.582 240.063 872.453 198.963 822.118C190.26 811.355 182.669 799.851 175.36 788.116Z" fill="#006CDE"/>
<path d="M377.919 497.115C403.272 495.563 429.164 499.056 453.805 504.834C477.393 510.364 500.403 518.09 523.827 524.249C566.412 535.446 599.67 537.918 642.29 525.911C655.778 522.241 668.923 517.411 681.577 511.475C691.527 530.343 698.814 549.977 704.555 570.479C672.731 563.149 643.148 571.694 611.884 577.203C596.765 579.867 581.534 581.512 566.166 580.994C540.475 580.127 515.865 573.297 491.712 564.92C480.102 560.893 468.606 556.442 456.792 553.035C448.136 549.959 438.539 548.066 429.497 546.509C384.18 538.792 337.604 544.123 295.203 561.881C286.842 565.449 278.921 569.976 270.894 574.219C258.775 580.624 246.561 586.94 234.031 592.506C226.281 595.949 218.37 599.209 210.178 601.454C186.611 607.751 161.647 606.329 138.948 597.396C142.415 577.516 147.532 558.178 155.4 539.557C164.317 538.259 173.409 537.87 182.368 536.799C196.126 535.068 209.783 532.609 223.281 529.43C247.788 523.786 271.756 515.933 296.111 509.684C323.15 502.746 350.025 498.473 377.919 497.115Z" fill="#4B98D7"/>
<path d="M418.736 356.672C422.454 356.577 426.174 356.582 429.892 356.687C485.791 357.951 539.005 373.678 585.735 404.641C601.438 415.045 616.444 427.087 629.474 440.716C612.204 450.475 592.885 456.095 573.31 458.815C541.747 463.202 520.196 460.887 489.236 454.665C478.314 452.47 467.427 450.246 456.63 447.479C441.209 443.527 425.992 439.057 410.313 436.146C393.587 433.204 376.651 431.617 359.669 431.399C348.936 431.201 338.201 431.688 327.529 432.86C299.37 435.896 280.446 442.791 255.54 456.151C247.214 460.617 239.195 465.676 230.93 470.262C211.599 480.99 201.019 487.13 178.805 491.105C189.348 474.795 200.966 459.671 214.368 445.587C268.722 388.464 340.279 358.572 418.736 356.672Z" fill="#006CDE"/>
<path d="M173.527 736.495C181.38 735.503 190.492 736.126 198.375 736.831C237.29 740.308 272.697 756.245 308.445 770.699C341.684 784.139 377.352 796.777 413.503 797.934C457.885 799.355 499.314 782.035 539.78 765.978C558.929 758.379 577.78 751.035 597.946 746.492C612.311 743.255 627.318 741.03 642.069 741.065C660.112 741.107 677.959 743.193 695.993 741.205C690.09 758.082 681.773 774.086 672.713 789.453C670.116 793.674 667.603 798.343 664.459 802.168C643.488 806.619 621.424 806.805 600.106 805.539C586.026 804.701 572.111 803.234 557.976 803.364C525.337 803.664 497.145 812.769 466.958 824.09C445.096 832.288 422.179 839.385 399.098 843.157C348.374 851.447 297.597 842.192 251.097 821.009C240.187 816.112 229.57 810.588 219.297 804.467C206.543 796.842 194.28 788.409 181.649 780.586C178.03 778.344 169.53 774.287 167.028 771.654C163.13 767.552 154.69 745.924 152.349 739.655C159.252 737.972 166.448 737.026 173.527 736.495Z" fill="#637297"/>
<path d="M221.424 486.391C224.083 484.45 227.201 482.941 230.068 481.313L246.636 471.89C261.577 463.346 276.879 455.073 293.236 449.539C325.142 438.744 368.039 439.224 400.955 444.333C422.632 447.698 443.644 454.207 464.927 459.349C485.89 464.412 511.373 469.477 532.866 470.652C568.223 472.586 605.449 465.239 636.291 447.593C651.434 464.191 666.827 483.542 677.277 503.509C650.811 515.198 620.807 523.715 591.727 524.224C546.138 525.021 503.347 507.366 459.812 496.528C432.222 489.428 403.749 486.36 375.28 487.418C336.786 488.972 300.029 498.516 263.186 509.015C240.337 515.526 214.955 523.198 191.509 525.946C180.872 527.526 170.167 528.614 159.429 529.205C163.112 519.963 167.573 510.388 172.696 501.844C190.247 499.153 205.565 494.454 221.424 486.391Z" fill="url(#paint0_linear_1_345)"/>
<path d="M172.696 501.844C190.247 499.153 205.565 494.454 221.424 486.391C220.863 488.754 216.434 493.627 214.856 495.616L199.406 514.967C196.954 518.035 193.95 521.196 191.884 524.516C191.589 524.99 191.52 525.398 191.509 525.947C180.872 527.526 170.167 528.614 159.429 529.205C163.112 519.963 167.573 510.389 172.696 501.844Z" fill="#40496D"/>
<defs>
<linearGradient id="paint0_linear_1_345" x1="363.954" y1="629.113" x2="517.661" y2="376.53" gradientUnits="userSpaceOnUse">
<stop stop-color="#58648A"/>
<stop offset="1" stop-color="#6A7A9F"/>
</linearGradient>
</defs>
</svg>
