<svg width="849" height="1183" viewBox="0 0 849 1183" fill="none" xmlns="http://www.w3.org/2000/svg">
<rect x="5" y="5" width="839" height="1173" rx="45" fill="white"/>
<rect x="5" y="5" width="839" height="1173" rx="45" stroke="black" stroke-width="10"/>
<circle cx="786.5" cy="1124.5" r="11.5" fill="black"/>
<circle cx="786.5" cy="59.5" r="11.5" fill="black"/>
<path d="M77 1124.5C77 1130.85 71.8513 1136 65.5 1136C59.1487 1136 54 1130.85 54 1124.5C54 1118.15 59.1487 1113 65.5 1113C71.8513 1113 77 1118.15 77 1124.5Z" fill="black"/>
<path d="M77 59.5C77 65.8513 71.8513 71 65.5 71C59.1487 71 54 65.8513 54 59.5C54 53.1487 59.1487 48 65.5 48C71.8513 48 77 53.1487 77 59.5Z" fill="black"/>
<mask id="path-6-inside-1_1_783" fill="white">
<path d="M708 48C713.523 48 717.934 52.4996 718.616 57.9801C723.122 94.1833 751.817 122.878 788.02 127.384C793.5 128.066 798 132.477 798 138V1046C798 1051.52 793.5 1055.93 788.02 1056.62C751.817 1061.12 723.122 1089.82 718.616 1126.02C717.934 1131.5 713.523 1136 708 1136H141C135.477 1136 131.066 1131.5 130.384 1126.02C125.878 1089.82 97.1833 1061.12 60.9801 1056.62C55.4996 1055.93 51 1051.52 51 1046V138C51 132.477 55.4996 128.066 60.9801 127.384C97.1833 122.878 125.878 94.1833 130.384 57.9801C131.066 52.4996 135.477 48 141 48H708Z"/>
</mask>
<path d="M708 48C713.523 48 717.934 52.4996 718.616 57.9801C723.122 94.1833 751.817 122.878 788.02 127.384C793.5 128.066 798 132.477 798 138V1046C798 1051.52 793.5 1055.93 788.02 1056.62C751.817 1061.12 723.122 1089.82 718.616 1126.02C717.934 1131.5 713.523 1136 708 1136H141C135.477 1136 131.066 1131.5 130.384 1126.02C125.878 1089.82 97.1833 1061.12 60.9801 1056.62C55.4996 1055.93 51 1051.52 51 1046V138C51 132.477 55.4996 128.066 60.9801 127.384C97.1833 122.878 125.878 94.1833 130.384 57.9801C131.066 52.4996 135.477 48 141 48H708Z" fill="#7047A3"/>
<path d="M130.384 1126.02L138.322 1125.03L130.384 1126.02ZM718.616 1126.02L710.678 1125.03L718.616 1126.02ZM788.02 1056.62L789.008 1064.56L788.02 1056.62ZM718.616 57.9801L726.555 56.9922L718.616 57.9801ZM718.616 57.9801L710.678 58.9681C715.635 98.8063 747.194 130.365 787.032 135.322L788.02 127.384L789.008 119.445C756.44 115.392 730.608 89.5603 726.555 56.9922L718.616 57.9801ZM798 138H790V1046H798H806V138H798ZM788.02 1056.62L787.032 1048.68C747.194 1053.64 715.635 1085.19 710.678 1125.03L718.616 1126.02L726.555 1127.01C730.608 1094.44 756.44 1068.61 789.008 1064.56L788.02 1056.62ZM708 1136V1128H141V1136V1144H708V1136ZM130.384 1126.02L138.322 1125.03C133.365 1085.19 101.806 1053.64 61.9681 1048.68L60.9801 1056.62L59.9922 1064.56C92.5603 1068.61 118.392 1094.44 122.445 1127.01L130.384 1126.02ZM51 1046H59V138H51H43V1046H51ZM60.9801 127.384L61.9681 135.322C101.806 130.365 133.365 98.8063 138.322 58.9681L130.384 57.9801L122.445 56.9922C118.392 89.5603 92.5603 115.392 59.9922 119.445L60.9801 127.384ZM141 48V56H708V48V40H141V48ZM130.384 57.9801L138.322 58.9681C138.438 58.0389 138.872 57.2306 139.427 56.6958C139.954 56.1887 140.494 56 141 56V48V40C130.84 40 123.547 48.1329 122.445 56.9922L130.384 57.9801ZM51 138H59C59 137.494 59.1887 136.954 59.6958 136.427C60.2306 135.872 61.0389 135.438 61.9681 135.322L60.9801 127.384L59.9922 119.445C51.1329 120.547 43 127.84 43 138H51ZM60.9801 1056.62L61.9681 1048.68C61.0389 1048.56 60.2306 1048.13 59.6958 1047.57C59.1887 1047.05 59 1046.51 59 1046H51H43C43 1056.16 51.1329 1063.45 59.9922 1064.56L60.9801 1056.62ZM141 1136V1128C140.494 1128 139.954 1127.81 139.427 1127.3C138.872 1126.77 138.438 1125.96 138.322 1125.03L130.384 1126.02L122.445 1127.01C123.547 1135.87 130.84 1144 141 1144V1136ZM718.616 1126.02L710.678 1125.03C710.562 1125.96 710.128 1126.77 709.573 1127.3C709.046 1127.81 708.506 1128 708 1128V1136V1144C718.16 1144 725.453 1135.87 726.555 1127.01L718.616 1126.02ZM798 1046H790C790 1046.51 789.811 1047.05 789.304 1047.57C788.769 1048.13 787.961 1048.56 787.032 1048.68L788.02 1056.62L789.008 1064.56C797.867 1063.45 806 1056.16 806 1046H798ZM788.02 127.384L787.032 135.322C787.961 135.438 788.769 135.872 789.304 136.427C789.811 136.954 790 137.494 790 138H798H806C806 127.84 797.867 120.547 789.008 119.445L788.02 127.384ZM718.616 57.9801L726.555 56.9922C725.453 48.1329 718.16 40 708 40V48V56C708.506 56 709.046 56.1887 709.573 56.6958C710.128 57.2306 710.562 58.0389 710.678 58.9681L718.616 57.9801Z" fill="black" mask="url(#path-6-inside-1_1_783)"/>
<path d="M690 102C695.523 102 699.911 106.512 700.837 111.957C705.019 136.563 724.437 155.981 749.043 160.163C754.488 161.089 759 165.477 759 171V1014C759 1019.52 754.488 1023.91 749.043 1024.84C724.711 1028.97 705.454 1048 700.984 1072.22C699.993 1077.59 695.633 1082 690.175 1082H158.825C153.367 1082 149.007 1077.59 148.016 1072.22C143.546 1048 124.288 1028.97 99.9568 1024.84C94.5121 1023.91 90 1019.52 90 1014V171C90 165.477 94.512 161.089 99.9568 160.163C124.563 155.981 143.981 136.563 148.163 111.957C149.089 106.512 153.477 102 159 102H690Z" fill="#B48FE1"/>
<mask id="path-9-outside-2_1_783" maskUnits="userSpaceOnUse" x="406" y="1007" width="36" height="31" fill="black">
<rect fill="white" x="406" y="1007" width="36" height="31"/>
<path d="M406.84 1030.92V1027.48L420.28 1008.2H425.8V1026.96H429.52V1030.92H425.8V1037H421.32V1030.92H406.84ZM421.52 1012.84L412.08 1026.96H421.52V1012.84ZM432.698 1012V1007.84H441.018V1037H436.418V1012H432.698Z"/>
</mask>
<path d="M406.84 1030.92V1027.48L420.28 1008.2H425.8V1026.96H429.52V1030.92H425.8V1037H421.32V1030.92H406.84ZM421.52 1012.84L412.08 1026.96H421.52V1012.84ZM432.698 1012V1007.84H441.018V1037H436.418V1012H432.698Z" fill="black"/>
<path d="M406.84 1030.92H406.54V1031.22H406.84V1030.92ZM406.84 1027.48L406.594 1027.31L406.54 1027.39V1027.48H406.84ZM420.28 1008.2V1007.9H420.123L420.034 1008.03L420.28 1008.2ZM425.8 1008.2H426.1V1007.9H425.8V1008.2ZM425.8 1026.96H425.5V1027.26H425.8V1026.96ZM429.52 1026.96H429.82V1026.66H429.52V1026.96ZM429.52 1030.92V1031.22H429.82V1030.92H429.52ZM425.8 1030.92V1030.62H425.5V1030.92H425.8ZM425.8 1037V1037.3H426.1V1037H425.8ZM421.32 1037H421.02V1037.3H421.32V1037ZM421.32 1030.92H421.62V1030.62H421.32V1030.92ZM421.52 1012.84H421.82V1011.85L421.271 1012.67L421.52 1012.84ZM412.08 1026.96L411.831 1026.79L411.519 1027.26H412.08V1026.96ZM421.52 1026.96V1027.26H421.82V1026.96H421.52ZM406.84 1030.92H407.14V1027.48H406.84H406.54V1030.92H406.84ZM406.84 1027.48L407.086 1027.65L420.526 1008.37L420.28 1008.2L420.034 1008.03L406.594 1027.31L406.84 1027.48ZM420.28 1008.2V1008.5H425.8V1008.2V1007.9H420.28V1008.2ZM425.8 1008.2H425.5V1026.96H425.8H426.1V1008.2H425.8ZM425.8 1026.96V1027.26H429.52V1026.96V1026.66H425.8V1026.96ZM429.52 1026.96H429.22V1030.92H429.52H429.82V1026.96H429.52ZM429.52 1030.92V1030.62H425.8V1030.92V1031.22H429.52V1030.92ZM425.8 1030.92H425.5V1037H425.8H426.1V1030.92H425.8ZM425.8 1037V1036.7H421.32V1037V1037.3H425.8V1037ZM421.32 1037H421.62V1030.92H421.32H421.02V1037H421.32ZM421.32 1030.92V1030.62H406.84V1030.92V1031.22H421.32V1030.92ZM421.52 1012.84L421.271 1012.67L411.831 1026.79L412.08 1026.96L412.329 1027.13L421.769 1013.01L421.52 1012.84ZM412.08 1026.96V1027.26H421.52V1026.96V1026.66H412.08V1026.96ZM421.52 1026.96H421.82V1012.84H421.52H421.22V1026.96H421.52ZM432.698 1012H432.398V1012.3H432.698V1012ZM432.698 1007.84V1007.54H432.398V1007.84H432.698ZM441.018 1007.84H441.318V1007.54H441.018V1007.84ZM441.018 1037V1037.3H441.318V1037H441.018ZM436.418 1037H436.118V1037.3H436.418V1037ZM436.418 1012H436.718V1011.7H436.418V1012ZM432.698 1012H432.998V1007.84H432.698H432.398V1012H432.698ZM432.698 1007.84V1008.14H441.018V1007.84V1007.54H432.698V1007.84ZM441.018 1007.84H440.718V1037H441.018H441.318V1007.84H441.018ZM441.018 1037V1036.7H436.418V1037V1037.3H441.018V1037ZM436.418 1037H436.718V1012H436.418H436.118V1037H436.418ZM436.418 1012V1011.7H432.698V1012V1012.3H436.418V1012Z" fill="black" mask="url(#path-9-outside-2_1_783)"/>
<path d="M286.295 197.975V272H265.715V231.155L251.75 272H234.53L220.46 230.84V272H199.88V197.975H224.765L243.35 246.065L261.515 197.975H286.295ZM354.29 241.865C354.29 243.475 354.185 245.085 353.975 246.695H315.02C315.23 249.915 316.105 252.33 317.645 253.94C319.255 255.48 321.285 256.25 323.735 256.25C327.165 256.25 329.615 254.71 331.085 251.63H353.03C352.12 255.69 350.335 259.33 347.675 262.55C345.085 265.7 341.795 268.185 337.805 270.005C333.815 271.825 329.405 272.735 324.575 272.735C318.765 272.735 313.585 271.51 309.035 269.06C304.555 266.61 301.02 263.11 298.43 258.56C295.91 254.01 294.65 248.655 294.65 242.495C294.65 236.335 295.91 231.015 298.43 226.535C300.95 221.985 304.45 218.485 308.93 216.035C313.48 213.585 318.695 212.36 324.575 212.36C330.385 212.36 335.53 213.55 340.01 215.93C344.49 218.31 347.99 221.74 350.51 226.22C353.03 230.63 354.29 235.845 354.29 241.865ZM333.29 236.72C333.29 234.2 332.45 232.24 330.77 230.84C329.09 229.37 326.99 228.635 324.47 228.635C321.95 228.635 319.885 229.335 318.275 230.735C316.665 232.065 315.615 234.06 315.125 236.72H333.29ZM383.292 223.49C385.602 220.13 388.402 217.47 391.692 215.51C394.982 213.55 398.517 212.57 402.297 212.57V234.515H396.522C392.042 234.515 388.717 235.39 386.547 237.14C384.377 238.89 383.292 241.935 383.292 246.275V272H362.712V213.095H383.292V223.49ZM406.315 242.495C406.315 236.405 407.575 231.085 410.095 226.535C412.615 221.985 416.115 218.485 420.595 216.035C425.145 213.585 430.325 212.36 436.135 212.36C443.625 212.36 449.925 214.425 455.035 218.555C460.145 222.615 463.435 228.32 464.905 235.67H443.065C441.805 231.82 439.355 229.895 435.715 229.895C433.125 229.895 431.06 230.98 429.52 233.15C428.05 235.25 427.315 238.365 427.315 242.495C427.315 246.625 428.05 249.775 429.52 251.945C431.06 254.115 433.125 255.2 435.715 255.2C439.425 255.2 441.875 253.275 443.065 249.425H464.905C463.435 256.705 460.145 262.41 455.035 266.54C449.925 270.67 443.625 272.735 436.135 272.735C430.325 272.735 425.145 271.51 420.595 269.06C416.115 266.61 412.615 263.11 410.095 258.56C407.575 254.01 406.315 248.655 406.315 242.495ZM533.724 213.095V272H513.039V263.6C511.289 266.26 508.874 268.43 505.794 270.11C502.714 271.72 499.179 272.525 495.189 272.525C488.329 272.525 482.904 270.285 478.914 265.805C474.994 261.255 473.034 255.095 473.034 247.325V213.095H493.509V244.7C493.509 248.06 494.384 250.72 496.134 252.68C497.954 254.57 500.334 255.515 503.274 255.515C506.284 255.515 508.664 254.57 510.414 252.68C512.164 250.72 513.039 248.06 513.039 244.7V213.095H533.724ZM566.017 223.49C568.327 220.13 571.127 217.47 574.417 215.51C577.707 213.55 581.242 212.57 585.022 212.57V234.515H579.247C574.767 234.515 571.442 235.39 569.272 237.14C567.102 238.89 566.017 241.935 566.017 246.275V272H545.437V213.095H566.017V223.49ZM655.82 213.095L618.44 300.035H596.075L610.145 269.48L585.995 213.095H608.885L621.275 246.485L633.245 213.095H655.82Z" fill="black"/>
<path d="M409.111 340.374C575.787 332.147 717.542 460.666 725.638 627.349C733.734 794.031 605.104 935.685 438.414 943.65C271.911 951.604 130.449 823.149 122.362 656.652C114.275 490.154 242.62 348.592 409.111 340.374Z" fill="#111111"/>
<path d="M217.928 442.111C225.417 435.256 232.361 428.106 240.207 421.588C272.338 394.854 309.993 375.57 350.464 365.121C409.062 349.955 470.929 353.416 527.47 375.024C545.195 381.851 561.765 390.339 578.113 399.953C573.47 404.687 567.474 409.046 561.873 412.582C554.284 417.524 541.746 424.289 532.902 425.628C528.278 426.483 523.682 427.235 518.959 427.146C512.409 427.023 505.953 425.536 499.634 423.915C492.069 421.996 484.598 419.722 477.247 417.101C460.461 411.13 444.049 403.883 425.868 403.982C410.543 404.065 399.302 410.856 387.84 420.398C384.284 423.359 380.722 426.692 376.467 428.62C369.217 431.906 360.717 432.494 352.9 433.389C343.387 434.509 330.75 435.471 324.329 443.62C320.766 448.142 319.977 454.25 320.755 459.811C322.331 471.09 329.858 480.463 338.764 487.095C343.247 490.373 347.935 493.36 352.8 496.039C360.199 500.14 368.709 503.724 374.596 509.948C389.404 525.605 388.481 545.408 408.064 559.381C420.917 568.551 432.294 569.225 447.142 571.404C451.454 572.037 455.767 572.973 460.047 573.809C474.478 576.625 488.029 580.388 498.153 591.743C502.256 596.345 505.432 601.997 506.34 608.155C507.66 617.105 503.458 624.442 499.472 632.089C490.348 649.591 479.801 667.98 487.296 688.126C489.897 695.116 494.206 701.393 500.191 705.897C510.252 713.467 523.083 714.565 534.413 719.367C542.35 722.731 549.25 727.839 556.51 732.392C572.239 742.259 590.149 747.389 608.724 744.631C632.246 741.14 645.175 726.8 660.287 710.25C647.919 744.653 643.612 755.445 618.104 782.33C610.856 775.361 602.557 772.91 592.609 773.072C585.141 773.194 577.496 774.655 570.205 776.224C547.639 781.082 532.056 786.73 508.25 782.307C496.558 780.134 486.405 775.276 477.803 767.02C468.887 758.462 461.741 747.826 454.426 737.932C435.207 711.931 415.54 699.181 382.024 699.807C353.474 700.341 319.685 704.232 297.099 682.549C287.607 673.436 281.287 661.009 275.364 649.429C265.527 630.197 254.85 603.874 229.105 604.266C213.6 604.502 202.546 614.378 189.75 621.138C184.282 624.027 178.732 626.114 172.671 627.325C169.813 627.577 167.049 627.652 164.227 627.037C160.238 626.168 156.354 623.972 154.185 620.426C151.686 616.338 151.616 611.125 152.806 606.601C155.075 597.969 161.407 593.028 168.814 588.767C180.898 582.313 193.632 576.164 200.776 563.823C207.875 551.558 207.116 538.897 203.613 525.677C202.243 519.998 200.019 514.694 200.849 508.724C202.919 493.83 219.007 485.677 229.784 477.415C235.374 472.16 239.12 468.077 241.633 460.763C241.905 458.47 241.969 456.052 241.573 453.77C240.871 449.709 238.875 445.798 235.381 443.462C230.276 440.05 223.599 440.943 217.928 442.111Z" fill="#FEB700"/>
<path d="M217.926 442.111C225.415 435.256 232.359 428.106 240.205 421.588C272.336 394.854 309.991 375.57 350.462 365.121C409.06 349.955 470.927 353.416 527.468 375.024C545.194 381.851 561.763 390.339 578.111 399.953C573.468 404.687 567.472 409.046 561.871 412.582C554.192 406.652 543.993 401.739 535.216 397.583C493.169 377.506 446.148 370.229 400 376.659C352.775 382.782 305.235 401.68 269.044 433.068C262.525 438.722 256.116 444.658 250.226 450.968C247.307 454.095 244.764 457.901 241.631 460.763C241.903 458.47 241.967 456.052 241.571 453.77C240.869 449.709 238.873 445.798 235.379 443.462C230.274 440.05 223.597 440.943 217.926 442.111Z" fill="#FC6D00"/>
<path d="M352.898 433.389C351.53 429.489 349.756 425.15 350.113 420.939C350.357 418.067 351.757 414.979 354.001 413.12C357.511 410.212 362.99 408.821 367.24 407.365C395.474 397.695 425.903 395.786 455.491 398.591C477.768 400.703 500.141 406.553 520.081 416.851C524.348 419.054 529.805 421.886 532.9 425.628C528.276 426.483 523.679 427.235 518.957 427.146C512.407 427.024 505.951 425.536 499.631 423.915C492.066 421.996 484.596 419.722 477.244 417.101C460.458 411.13 444.047 403.884 425.866 403.982C410.54 404.065 399.3 410.857 387.838 420.398C384.282 423.359 380.719 426.693 376.465 428.62C369.215 431.906 360.714 432.494 352.898 433.389Z" fill="#FCC73A"/>
<path d="M172.671 627.327C169.813 627.579 167.049 627.653 164.227 627.038C160.238 626.169 156.354 623.974 154.185 620.427C151.686 616.339 151.616 611.127 152.806 606.603C155.075 597.971 161.407 593.029 168.814 588.769C169.659 594.557 169.81 600.568 170.419 606.4C171.142 613.322 172.36 620.39 172.671 627.327Z" fill="#DC7800"/>
<path d="M203.612 525.675C202.242 519.996 200.018 514.692 200.848 508.722C202.918 493.828 219.006 485.675 229.783 477.413C229.266 480.633 222.803 488.671 220.744 491.994C217.982 496.45 215.555 501.226 213.224 505.921C211.623 509.145 205.707 523.924 203.938 525.445C203.837 525.532 203.721 525.598 203.612 525.675Z" fill="#FC6D00"/>
<path d="M250.528 524.488C263.712 518.929 284.358 514.743 298.101 520.304C303.084 522.32 307.915 525.976 310.063 531.042C311.883 535.333 311.543 540.173 309.723 544.395C304.993 555.37 292.846 562.078 282.259 566.18C276.69 568.339 270.737 570.038 264.785 570.693C258.073 571.826 250.691 571.521 244.122 569.713C238.046 568.039 231.726 564.747 228.635 558.999C226.38 554.805 226.295 549.881 227.721 545.411C231.1 534.82 241.254 529.187 250.528 524.488Z" fill="#DC7800"/>
<path d="M250.528 524.501C251.216 541.375 255.953 556.372 264.785 570.706C258.073 571.839 250.691 571.535 244.122 569.726C238.045 568.053 231.726 564.76 228.635 559.012C226.38 554.818 226.295 549.894 227.721 545.425C231.1 534.834 241.254 529.2 250.528 524.501Z" fill="#FC6D00"/>
<path d="M340.411 597.027C354.529 595.61 370.742 601.722 382.062 609.865C387.796 613.99 394.892 620.555 395.962 627.936C396.459 631.371 395.379 634.694 393.267 637.41C389.992 641.617 385.156 643.463 380.058 644.199C365.275 645.847 350.731 640.923 338.76 632.362C332.62 627.97 324.878 621.11 323.718 613.183C323.251 609.992 323.878 606.7 325.827 604.092C329.196 599.584 335.07 597.742 340.411 597.027Z" fill="#FC6D00"/>
<path d="M407.54 569.678C413.904 569.335 420.158 571.439 425.021 575.559C427.878 578.008 430.58 581.61 430.772 585.479C430.89 587.94 429.992 590.343 428.288 592.123C425.129 595.442 420.257 596.133 415.907 596.315C409.555 596.216 403.384 594.572 398.301 590.637C395.235 588.263 392.363 584.834 391.963 580.845C391.734 578.563 392.441 576.388 393.965 574.673C397.27 570.952 402.827 569.997 407.54 569.678Z" fill="#DC7800"/>
<path d="M478.38 707.183C484.757 707.232 491.425 708.68 496.522 712.741C499.13 714.818 501.399 717.759 501.738 721.178C501.955 723.362 501.147 725.419 499.708 727.045C496.4 730.786 491.13 732.296 486.338 732.697C479.668 732.69 472.628 730.651 467.467 726.302C464.968 724.196 462.74 721.257 462.55 717.88C462.43 715.81 463.149 713.779 464.544 712.245C467.839 708.561 473.687 707.469 478.38 707.183Z" fill="#DC7800"/>
<path d="M307.126 641.467C312.16 641.704 316.739 643.071 320.944 645.907C323.891 647.893 326.885 650.894 327.49 654.524C327.763 656.165 327.465 657.769 326.45 659.109C324.243 662.023 320.312 662.78 316.915 663.221C311.654 663.181 306.509 662.032 302.154 658.973C299.293 656.963 296.326 653.93 295.824 650.335C295.592 648.679 295.96 647.103 296.998 645.781C299.315 642.83 303.581 641.833 307.126 641.467Z" fill="#DC7800"/>
<path d="M286.497 484.623C288.908 484.454 292.135 484.91 294.161 486.253C295.593 487.2 296.585 488.651 296.854 490.355C297.162 492.295 296.527 494.192 295.376 495.749C293.065 498.874 289.714 499.999 286.05 500.602C283.277 500.688 279.831 500.203 277.572 498.523C276.203 497.506 275.256 496.082 275.067 494.365C274.867 492.544 275.533 490.791 276.65 489.374C279.086 486.283 282.733 485.056 286.497 484.623Z" fill="#FCC73A"/>
<path d="M302.523 420.505C304.642 420.327 306.643 420.375 308.591 421.331C310.241 422.141 311.546 423.494 312.123 425.258C312.739 427.14 312.424 429.162 311.449 430.864C309.819 433.713 307.035 435.038 303.993 435.851C302.003 435.944 300.146 435.761 298.303 434.953C296.506 434.165 295.044 432.804 294.404 430.916C293.834 429.241 294.01 427.473 294.791 425.9C296.349 422.761 299.408 421.542 302.523 420.505Z" fill="#FC6D00"/>
<path d="M453.074 657.487C454.758 657.359 456.464 657.287 458.106 657.76C460.784 658.533 463.314 660.326 464.63 662.818C465.367 664.214 465.73 665.899 465.187 667.426C464.403 669.632 462.497 670.664 460.484 671.538C458.739 671.679 457 671.581 455.298 671.15C452.689 670.488 450.034 668.992 448.716 666.558C447.945 665.133 447.663 663.359 448.249 661.815C449.089 659.6 451.045 658.446 453.074 657.487Z" fill="#DC7800"/>
<path d="M469.461 596.025C471.972 595.991 474.578 596.416 476.845 597.521C478.822 598.485 480.705 600.043 481.395 602.204C481.76 603.347 481.654 604.589 481.037 605.627C479.75 607.786 477.229 608.46 474.976 609.098C472.195 609.304 469.708 608.847 467.295 607.391C465.389 606.24 463.531 604.385 463.044 602.138C462.801 601.02 462.955 599.906 463.596 598.948C464.857 597.063 467.357 596.378 469.461 596.025Z" fill="#DC7800"/>
<path d="M175.389 641.522C182.625 640.124 189.914 637.291 196.413 633.795C208.83 627.116 225.501 612.353 239.963 622.176C259.501 635.447 265.923 678.786 291.465 697.852C311.024 712.453 336.544 716.327 360.393 715.723C380.438 715.217 397.082 712.473 416.119 722.076C426.738 727.431 434.058 736.102 441.012 745.467C459.385 770.211 471.771 790.306 504.446 796.963C517.497 799.713 530.956 799.913 544.083 797.55C550.76 796.321 557.341 794.624 563.931 793C576.141 789.991 595.321 783.92 606.7 791.59C608.366 792.714 609.717 794.155 610.907 795.762C621.105 811.778 617.379 824.481 638.791 831.241C632.882 838.422 625.984 845.104 619.221 851.471C574.757 893.335 515.325 921.225 454.404 927.124C423.715 930.096 397.626 928.25 367.399 922.599C367.462 911.202 364.099 902.8 356.014 894.603C338.742 877.091 310.841 872.596 310.35 842.73C309.644 835.101 310.035 827.612 308.644 820.009C305.501 802.841 296.257 785.565 281.634 775.586C267.243 765.766 250.425 763.668 233.557 766.794C214.72 770.304 195.317 781.606 182.078 795.434C153.312 752.305 138.432 699.845 137.202 648.214C136.982 639.003 137.46 629.833 137.967 620.641C139.843 626.575 142.844 631.547 147.717 635.497C155.824 642.07 165.432 642.568 175.389 641.522Z" fill="#565656"/>
<path d="M610.909 795.753C621.108 811.769 617.382 824.471 638.793 831.232C632.885 838.412 625.986 845.095 619.224 851.462C574.76 893.326 515.327 921.216 454.407 927.115C423.717 930.087 397.629 928.241 367.402 922.59C367.465 911.193 364.101 902.791 356.017 894.594C338.744 877.082 310.843 872.587 310.353 842.721C315.928 845.742 321.347 848.972 327.108 851.645C365.326 869.072 407.363 876.443 449.23 873.059C454.322 872.67 468.254 872.17 472.156 870.828C472.356 870.76 472.544 870.661 472.737 870.578C467.408 865.121 463.722 858.639 463.066 850.944C462.389 843 465.026 835.314 470.231 829.294C488.902 807.7 521.778 818.871 545.643 820.774C557.402 821.712 569.365 820.862 581.114 820.063C585.409 816.825 589.912 813.879 594.167 810.578C600.082 805.988 605.526 800.948 610.909 795.753Z" fill="#434343"/>
<path d="M472.736 870.586C467.407 865.129 463.721 858.648 463.065 850.953C462.388 843.008 465.024 835.322 470.229 829.303C488.901 807.708 521.777 818.88 545.642 820.783C557.401 821.72 569.364 820.871 581.113 820.072C585.078 820.258 588.781 821.117 591.641 824.116C593.81 826.391 594.804 829.723 594.685 832.826C594.293 842.959 584.453 854.672 577.255 861.079C559.048 877.01 535.331 885.189 511.174 883.867C497.809 883.024 482.878 879.837 472.736 870.586Z" fill="#111111"/>
<path d="M448.872 879.162C455.686 878.574 464.257 880.156 469.972 884.09C472.497 885.826 474.896 888.348 475.405 891.486C475.782 893.806 475.089 896.022 473.675 897.871C469.595 903.206 461.66 904.906 455.407 905.745C447.603 906.03 439.399 905.565 432.884 900.727C430.484 898.943 428.364 896.48 427.99 893.412C427.687 890.927 428.56 888.555 430.142 886.652C434.569 881.327 442.355 879.75 448.872 879.162Z" fill="#111111"/>
<path d="M137.967 620.643C139.843 626.578 142.844 631.549 147.717 635.5C155.824 642.072 165.432 642.571 175.389 641.525C176.638 646.898 177.682 652.308 179.084 657.647C184.693 679.008 192.372 698.51 202.275 718.188C206.425 726.436 210.744 734.733 215.756 742.496C219.3 747.985 223.079 753.32 227.082 758.485C229.18 761.215 231.694 763.923 233.557 766.796C214.72 770.306 195.317 781.609 182.078 795.437C153.312 752.307 138.432 699.848 137.202 648.216C136.982 639.005 137.46 629.836 137.967 620.643Z" fill="#434343"/>
<path d="M160.202 667.487C162.281 667.391 163.984 668.122 165.561 669.449C172.959 675.677 177.575 694.386 178.24 703.675C178.557 708.095 178.438 714.224 175.279 717.665C173.974 719.088 172.805 719.343 170.929 719.444C170.203 719.17 169.455 718.897 168.766 718.538C161.095 714.541 156.883 704.716 154.475 696.92C152.362 690.074 150.285 678.877 153.961 672.254C155.392 669.675 157.422 668.302 160.202 667.487Z" fill="#111111"/>
<path d="M181.543 740.928C183.211 740.672 184.816 740.664 186.455 741.111C191.307 742.432 195.524 746.489 197.991 750.771C199.863 754.019 201.369 758.436 200.27 762.151C199.588 764.454 198.26 765.82 196.207 766.953C194.544 767.401 192.8 767.456 191.112 767.114C186.46 766.128 182.597 762.461 180.159 758.519C177.943 754.936 176.408 750.099 177.517 745.924C178.17 743.469 179.38 742.169 181.543 740.928Z" fill="#111111"/>
<path d="M296.945 720.005C306.799 719.639 324.727 724.831 332.03 731.636C332.987 732.527 333.285 733.142 333.298 734.447C332.487 736.096 331.032 736.639 329.39 737.222C322.027 738.228 313.698 737.114 306.848 734.233C302.6 732.447 295.114 728.836 293.433 724.16C293.157 723.39 293.14 722.572 293.592 721.858C294.332 720.687 295.704 720.355 296.945 720.005Z" fill="#111111"/>
<path d="M361.634 826.318C366.966 825.937 372.377 826.678 377.285 828.85C379.899 830.006 382.949 831.902 383.942 834.739C384.284 835.716 384.272 836.72 383.773 837.647C382.499 840.015 379.172 841.28 376.723 841.964C370.78 843.12 364.007 841.991 358.937 838.619C356.769 837.177 354.315 834.813 353.848 832.126C353.666 831.073 353.91 830.054 354.577 829.216C356.246 827.123 359.146 826.644 361.634 826.318Z" fill="#111111"/>
<path d="M590.29 407.866C600.74 415.748 610.919 423.871 620.474 432.834C645.71 456.505 667.739 485.96 682.222 517.433C676.234 533.6 672.13 557.601 674.127 574.694C675.128 583.26 678.356 591.854 680.549 600.191C685.815 620.211 687.235 637.795 680.572 657.815C679.14 662.12 677.434 666.917 675.117 670.825C671.501 676.925 660.411 688.418 655.309 694.014C644.809 705.535 633.839 718.964 619.384 725.546C606.131 731.582 590.403 731.114 576.95 725.939C564.736 721.241 554.766 712.26 542.889 706.752C539.13 705.024 535.264 703.539 531.315 702.306C524.458 700.2 517.108 698.701 510.919 694.935C506.771 692.425 503.491 688.706 501.52 684.276C498.355 677.174 498.569 668.649 501.32 661.452C501.464 661.078 501.624 660.73 501.797 660.369C507.707 645.338 519.226 632.176 520.714 615.673C521.577 606.098 519.28 596.056 513.844 588.048C511.889 585.17 509.358 582.538 507.115 579.877C490.651 563.887 470.949 560.273 449.106 557.247C438.194 555.736 427.487 554.139 417.872 548.325C405.799 541.024 402.199 528.099 396.075 516.332C393.12 510.654 389.426 505.2 385.025 500.539C379.052 494.212 370.976 490.194 363.531 485.864C355.547 481.22 348.042 476.342 341.501 469.734C340.786 468.972 340.095 468.197 339.471 467.358C337.013 464.055 334.361 459.441 335.096 455.184C335.913 450.451 340.609 448.604 344.8 447.821C348.255 447.175 351.835 446.975 355.333 446.626C367.651 445.399 379.151 443.759 389.551 436.468C395.569 432.248 400.788 426.905 406.906 422.847C411.138 420.039 415.826 418.015 420.877 417.295C438.118 414.838 458.666 425.036 474.696 430.756C484.562 434.249 494.66 437.052 504.914 439.145C529.488 444.028 552 436.178 572.25 422.616C578.434 418.241 585.161 413.47 590.29 407.866Z" fill="#565656"/>
<path d="M590.29 407.866C600.74 415.748 610.919 423.871 620.475 432.834C645.711 456.505 667.739 485.96 682.223 517.433C676.235 533.6 672.131 557.601 674.127 574.694C675.128 583.26 678.356 591.854 680.55 600.191C685.816 620.211 687.235 637.795 680.573 657.815C679.14 662.12 677.435 666.917 675.118 670.825C671.502 676.925 660.411 688.418 655.31 694.014C644.809 705.535 633.839 718.964 619.384 725.546C606.131 731.582 590.403 731.114 576.95 725.939C564.736 721.241 554.766 712.26 542.89 706.752C539.131 705.024 535.265 703.539 531.316 702.306C524.459 700.2 517.108 698.701 510.919 694.935C506.772 692.425 503.491 688.706 501.521 684.276C498.355 677.174 498.569 668.649 501.321 661.452C501.464 661.078 501.624 660.73 501.797 660.369C501.981 660.426 502.253 660.523 502.457 660.552C504.02 660.776 506.392 660.3 507.931 659.905C521.076 656.536 527.437 642.099 535.371 632.444C539.205 627.839 543.592 623.723 548.434 620.191C556.193 614.543 565.286 610.679 574.577 608.384C582.195 606.503 589.795 605.302 596.692 601.321C600.405 599.177 603.692 596.393 606.655 593.308C616.598 582.959 622.771 568.844 636.061 562.048C639.095 560.51 642.247 559.217 645.487 558.179C649.049 557.059 653.415 556.743 656.524 554.558C657.43 553.921 657.703 553.486 657.836 552.381C658.343 548.184 656.923 543.185 655.83 539.164C651.546 523.415 644.814 508.613 636.737 494.466C634.491 490.532 632.205 486.39 629.479 482.767C619.504 466.326 605.871 450.968 591.511 438.236C585.444 432.642 578.757 427.683 572.25 422.616C578.435 418.241 585.161 413.47 590.29 407.866Z" fill="#434343"/>
<path d="M649.328 580.564C651.951 580.233 654.64 580.459 657.13 581.36C663.346 583.609 667.833 589.381 670.409 595.252C676.938 610.129 679.66 630.215 673.615 645.662C671.345 651.465 667.958 656.632 663.25 660.746C653.983 668.845 642.513 669.756 633.811 676.423C620.657 686.498 614.652 701.059 598.226 708.231C588.416 712.515 579.396 711.964 569.572 708.112C566.147 706.543 562.854 704.702 559.724 702.605C551.361 697.002 539.834 689.994 537.947 679.217C536.775 672.519 539.032 666.264 542.943 660.884C553.725 646.053 571.358 640.311 588.28 635.81C596.332 633.668 604.329 631.702 610.937 626.322C621.17 617.994 623.175 604.065 630.627 593.645C635.237 587.199 641.339 581.918 649.328 580.564Z" fill="#111111"/>
<path d="M341.501 469.744C340.786 468.981 340.095 468.207 339.471 467.368C337.013 464.065 334.361 459.45 335.096 455.194C335.913 450.461 340.609 448.613 344.801 447.83C348.255 447.185 351.835 446.984 355.333 446.636C367.651 445.408 379.151 443.769 389.551 436.477C395.569 432.258 400.788 426.915 406.906 422.856C411.139 420.049 415.826 418.024 420.877 417.304C438.119 414.848 458.666 425.046 474.697 430.766C484.562 434.259 494.66 437.062 504.915 439.154C529.488 444.038 552 436.188 572.25 422.626C578.757 427.693 585.444 432.651 591.511 438.246C605.871 450.977 619.504 466.336 629.479 482.776C611.085 473.977 589.507 474.605 569.823 478.108C561.519 479.586 553.343 481.598 544.954 482.607C526.416 484.838 506.214 484.218 488.194 479.027C482.023 477.186 476.027 474.804 470.277 471.906C458.937 466.23 446.536 457.036 433.318 461.779C428.322 463.573 423.972 466.627 419.487 469.391C409.108 475.789 398.848 478.507 386.767 479.519C383.995 479.75 375.273 479.575 373.889 481.88C374.577 484.039 392.191 493.015 395.335 495.024C399.917 497.952 404.441 501.274 407.559 505.799C410.299 509.776 411.466 514.16 412.952 518.692C416.21 528.632 422.788 535.957 432.071 540.729C455.811 552.934 495.314 543.02 506.01 575.417C506.459 576.778 507.107 578.458 507.116 579.886C490.651 563.897 470.949 560.283 449.106 557.257C438.194 555.745 427.487 554.149 417.873 548.334C405.8 541.034 402.199 528.109 396.076 516.342C393.12 510.663 389.426 505.21 385.025 500.549C379.053 494.221 370.976 490.204 363.531 485.873C355.547 481.23 348.042 476.352 341.501 469.744Z" fill="#787978"/>
<path d="M341.501 469.744C340.786 468.981 340.095 468.207 339.471 467.368C337.013 464.065 334.361 459.45 335.096 455.194C335.913 450.461 340.609 448.613 344.8 447.83C348.255 447.185 351.835 446.984 355.333 446.636C367.651 445.408 379.151 443.769 389.551 436.477C395.569 432.258 400.788 426.915 406.906 422.856C411.138 420.049 415.825 418.024 420.877 417.304C438.118 414.848 458.666 425.046 474.696 430.766C484.562 434.259 494.66 437.062 504.914 439.154C529.488 444.038 552 436.188 572.25 422.626C578.757 427.693 585.444 432.651 591.51 438.246C589.509 444.411 584.476 448.391 578.899 451.215C572.901 454.252 566.54 456.433 560.064 458.194C530.696 466.18 503.084 460.313 474.881 450.919C467.562 448.48 460.365 445.715 453 443.409C441.938 439.945 432.288 437.311 421.345 442.778C410.583 448.155 400.927 454.809 389.223 458.264C384.199 459.747 378.992 460.781 373.742 460.898C361.89 461.16 349.258 458.093 341.501 469.744Z" fill="#8E8E8E"/>
<path d="M601.459 489.787C606.402 489.276 611.257 490.757 615.36 493.483C623.967 499.201 630.095 509.634 632.009 519.68C633.249 526.195 632.801 533.429 628.892 539.008C624.844 544.786 618.236 547.643 611.515 548.91C604.858 549.29 599.429 548.253 593.992 544.173C586.724 538.721 581.607 529.36 580.341 520.415C579.262 512.796 580.869 505.05 585.616 498.89C589.582 493.744 595.029 490.583 601.459 489.787Z" fill="#111111"/>
<path d="M600.72 500.356C603.605 500.149 606.192 500.798 608.706 502.223C614.714 505.63 619.211 512.595 620.883 519.19C621.935 523.341 622.096 528.221 619.735 531.965C617.763 535.09 614.859 536.276 611.403 536.965C608.617 537.085 606.138 536.828 603.541 535.697C598.333 533.431 594.6 528.811 592.619 523.58C590.683 518.472 590.14 512.369 592.556 507.319C594.277 503.723 597.031 501.627 600.72 500.356Z" fill="#FEB700"/>
<path d="M466.85 512.025C475.836 511.868 485.46 514.45 492.747 519.845C496.105 522.332 499.417 525.919 499.959 530.218C500.186 532.027 499.848 533.779 498.679 535.215C495.988 538.519 490.958 539.599 486.944 540.028C477.971 540.734 468.2 538.701 460.981 533.096C457.47 530.37 454.024 526.181 453.602 521.612C453.422 519.662 453.919 517.795 455.206 516.298C458.089 512.942 462.708 512.336 466.85 512.025Z" fill="#111111"/>
<path d="M234.251 781.742C247.169 778.977 260.173 779.842 271.5 787.183C283.376 794.88 290.831 808.351 293.664 821.983C294.706 827 295.352 832.278 295.325 837.408C296.355 844.595 296.201 851.382 298.471 858.458C309.887 894.045 344.455 888.423 354.012 919.569C340.529 915.762 327.35 911.67 314.39 906.287C265.399 885.935 220.797 851.298 190.382 807.647C193.055 805.278 195.563 802.749 198.306 800.45C208.894 791.577 220.881 785.226 234.251 781.742Z" fill="#DC7800"/>
<path d="M234.251 781.742C247.169 778.977 260.173 779.842 271.5 787.183C283.376 794.88 290.831 808.351 293.664 821.983C294.706 827 295.352 832.278 295.325 837.408L295.174 840.108L294.808 840.264C270.46 822.565 251.957 806.417 234.251 781.742Z" fill="#FEB700"/>
<path d="M217.961 806.65C220.985 806.275 223.951 806.413 226.861 807.374C231.306 808.841 235.446 811.97 237.456 816.269C238.518 818.537 238.968 821.193 238.053 823.587C237.033 826.256 234.831 827.974 232.311 829.121C229.346 829.866 226.492 829.851 223.584 828.838C219.397 827.38 215.668 824.142 213.745 820.13C212.525 817.584 211.859 814.459 212.854 811.728C213.755 809.253 215.664 807.751 217.961 806.65Z" fill="#FC6D00"/>
<path d="M710.396 651.318C711.473 653.569 709 673.311 708.561 676.783C703.145 721.628 687.055 764.52 661.642 801.862C659.172 805.491 653.157 815.434 649.991 817.676C647.984 819.098 645.151 819.324 642.813 818.791C637.994 817.691 635.042 813.94 632.642 809.923C629.07 803.186 626.574 795.906 623.179 789.058C641.53 772.719 655.012 751.628 662.138 728.113C664.866 718.895 666.583 708.356 670.968 699.739C673.333 695.09 679.434 688.792 682.853 684.623C691.959 673.459 701.14 662.357 710.396 651.318Z" fill="#DC7800"/>
<path d="M175.214 500.555C179.713 491.379 193.262 468.71 201.072 462.461C205.679 458.776 212.399 455.962 217.955 454.047C220.815 453.062 225.01 451.632 227.895 453.014C228.673 453.386 229.32 453.966 229.533 454.837C230.083 457.083 227.963 460.068 226.655 461.773C221.366 468.668 213.784 473.184 207.006 478.411C195.925 486.959 186.448 498.198 188.255 512.98C190.361 530.204 199.565 543.861 187.114 559.809C182.375 565.879 175.248 570.262 168.411 573.628C157.527 580.13 148.483 584.565 141.144 595.463C143.148 587.282 144.569 578.977 146.691 570.81C151.757 551.341 158.819 532.448 167.766 514.43C170.075 509.775 172.403 504.925 175.214 500.555Z" fill="#FEB700"/>
<path d="M141.144 595.459C143.148 587.278 144.569 578.973 146.691 570.807C151.757 551.337 158.819 532.444 167.767 514.426C170.075 509.771 172.403 504.921 175.214 500.551C175.114 507.012 173.153 513.945 172.172 520.35C169.879 534.966 168.565 549.718 168.238 564.509C168.16 567.324 167.654 570.903 168.411 573.625C157.527 580.126 148.483 584.561 141.144 595.459Z" fill="#DC7800"/>
<path d="M690.902 538.217C692.656 540.693 694.424 547.565 695.431 550.608C704.167 576.999 709.109 603.457 710.288 631.226C707.882 633.239 705.483 635.24 703.204 637.396L699.033 641.678C702.503 617.528 692.619 599.64 689.116 577.088C687.163 564.509 688.175 550.631 690.902 538.217Z" fill="#434343"/>
</svg>
