<svg width="849" height="1183" viewBox="0 0 849 1183" fill="none" xmlns="http://www.w3.org/2000/svg">
<rect x="5" y="5" width="839" height="1173" rx="45" fill="white"/>
<rect x="5" y="5" width="839" height="1173" rx="45" stroke="black" stroke-width="10"/>
<circle cx="786.5" cy="1124.5" r="11.5" fill="black"/>
<circle cx="786.5" cy="59.5" r="11.5" fill="black"/>
<path d="M77 1124.5C77 1130.85 71.8513 1136 65.5 1136C59.1487 1136 54 1130.85 54 1124.5C54 1118.15 59.1487 1113 65.5 1113C71.8513 1113 77 1118.15 77 1124.5Z" fill="black"/>
<path d="M77 59.5C77 65.8513 71.8513 71 65.5 71C59.1487 71 54 65.8513 54 59.5C54 53.1487 59.1487 48 65.5 48C71.8513 48 77 53.1487 77 59.5Z" fill="black"/>
<mask id="path-6-inside-1_1_457" fill="white">
<path d="M708 48C713.523 48 717.934 52.4996 718.616 57.9801C723.122 94.1833 751.817 122.878 788.02 127.384C793.5 128.066 798 132.477 798 138V1046C798 1051.52 793.5 1055.93 788.02 1056.62C751.817 1061.12 723.122 1089.82 718.616 1126.02C717.934 1131.5 713.523 1136 708 1136H141C135.477 1136 131.066 1131.5 130.384 1126.02C125.878 1089.82 97.1833 1061.12 60.9801 1056.62C55.4996 1055.93 51 1051.52 51 1046V138C51 132.477 55.4996 128.066 60.9801 127.384C97.1833 122.878 125.878 94.1833 130.384 57.9801C131.066 52.4996 135.477 48 141 48H708Z"/>
</mask>
<path d="M708 48C713.523 48 717.934 52.4996 718.616 57.9801C723.122 94.1833 751.817 122.878 788.02 127.384C793.5 128.066 798 132.477 798 138V1046C798 1051.52 793.5 1055.93 788.02 1056.62C751.817 1061.12 723.122 1089.82 718.616 1126.02C717.934 1131.5 713.523 1136 708 1136H141C135.477 1136 131.066 1131.5 130.384 1126.02C125.878 1089.82 97.1833 1061.12 60.9801 1056.62C55.4996 1055.93 51 1051.52 51 1046V138C51 132.477 55.4996 128.066 60.9801 127.384C97.1833 122.878 125.878 94.1833 130.384 57.9801C131.066 52.4996 135.477 48 141 48H708Z" fill="#77B866"/>
<path d="M130.384 1126.02L138.322 1125.03L130.384 1126.02ZM718.616 1126.02L710.678 1125.03L718.616 1126.02ZM788.02 1056.62L789.008 1064.56L788.02 1056.62ZM718.616 57.9801L726.555 56.9922L718.616 57.9801ZM718.616 57.9801L710.678 58.9681C715.635 98.8063 747.194 130.365 787.032 135.322L788.02 127.384L789.008 119.445C756.44 115.392 730.608 89.5603 726.555 56.9922L718.616 57.9801ZM798 138H790V1046H798H806V138H798ZM788.02 1056.62L787.032 1048.68C747.194 1053.64 715.635 1085.19 710.678 1125.03L718.616 1126.02L726.555 1127.01C730.608 1094.44 756.44 1068.61 789.008 1064.56L788.02 1056.62ZM708 1136V1128H141V1136V1144H708V1136ZM130.384 1126.02L138.322 1125.03C133.365 1085.19 101.806 1053.64 61.9681 1048.68L60.9801 1056.62L59.9922 1064.56C92.5603 1068.61 118.392 1094.44 122.445 1127.01L130.384 1126.02ZM51 1046H59V138H51H43V1046H51ZM60.9801 127.384L61.9681 135.322C101.806 130.365 133.365 98.8063 138.322 58.9681L130.384 57.9801L122.445 56.9922C118.392 89.5603 92.5603 115.392 59.9922 119.445L60.9801 127.384ZM141 48V56H708V48V40H141V48ZM130.384 57.9801L138.322 58.9681C138.438 58.0389 138.872 57.2306 139.427 56.6958C139.954 56.1887 140.494 56 141 56V48V40C130.84 40 123.547 48.1329 122.445 56.9922L130.384 57.9801ZM51 138H59C59 137.494 59.1887 136.954 59.6958 136.427C60.2306 135.872 61.0389 135.438 61.9681 135.322L60.9801 127.384L59.9922 119.445C51.1329 120.547 43 127.84 43 138H51ZM60.9801 1056.62L61.9681 1048.68C61.0389 1048.56 60.2306 1048.13 59.6958 1047.57C59.1887 1047.05 59 1046.51 59 1046H51H43C43 1056.16 51.1329 1063.45 59.9922 1064.56L60.9801 1056.62ZM141 1136V1128C140.494 1128 139.954 1127.81 139.427 1127.3C138.872 1126.77 138.438 1125.96 138.322 1125.03L130.384 1126.02L122.445 1127.01C123.547 1135.87 130.84 1144 141 1144V1136ZM718.616 1126.02L710.678 1125.03C710.562 1125.96 710.128 1126.77 709.573 1127.3C709.046 1127.81 708.506 1128 708 1128V1136V1144C718.16 1144 725.453 1135.87 726.555 1127.01L718.616 1126.02ZM798 1046H790C790 1046.51 789.811 1047.05 789.304 1047.57C788.769 1048.13 787.961 1048.56 787.032 1048.68L788.02 1056.62L789.008 1064.56C797.867 1063.45 806 1056.16 806 1046H798ZM788.02 127.384L787.032 135.322C787.961 135.438 788.769 135.872 789.304 136.427C789.811 136.954 790 137.494 790 138H798H806C806 127.84 797.867 120.547 789.008 119.445L788.02 127.384ZM718.616 57.9801L726.555 56.9922C725.453 48.1329 718.16 40 708 40V48V56C708.506 56 709.046 56.1887 709.573 56.6958C710.128 57.2306 710.562 58.0389 710.678 58.9681L718.616 57.9801Z" fill="black" mask="url(#path-6-inside-1_1_457)"/>
<path d="M690 102C695.523 102 699.911 106.512 700.837 111.957C705.019 136.563 724.437 155.981 749.043 160.163C754.488 161.089 759 165.477 759 171V1014C759 1019.52 754.488 1023.91 749.043 1024.84C724.711 1028.97 705.454 1048 700.984 1072.22C699.993 1077.59 695.633 1082 690.175 1082H158.825C153.367 1082 149.007 1077.59 148.016 1072.22C143.546 1048 124.288 1028.97 99.9568 1024.84C94.5121 1023.91 90 1019.52 90 1014V171C90 165.477 94.512 161.089 99.9568 160.163C124.563 155.981 143.981 136.563 148.163 111.957C149.089 106.512 153.477 102 159 102H690Z" fill="#A3CC98"/>
<path d="M272.81 272.735C264.2 272.735 257.13 270.705 251.6 266.645C246.07 262.515 243.095 256.635 242.675 249.005H264.62C264.83 251.595 265.6 253.485 266.93 254.675C268.26 255.865 269.975 256.46 272.075 256.46C273.965 256.46 275.505 256.005 276.695 255.095C277.955 254.115 278.585 252.785 278.585 251.105C278.585 248.935 277.57 247.255 275.54 246.065C273.51 244.875 270.22 243.545 265.67 242.075C260.84 240.465 256.92 238.925 253.91 237.455C250.97 235.915 248.38 233.71 246.14 230.84C243.97 227.9 242.885 224.085 242.885 219.395C242.885 214.635 244.075 210.575 246.455 207.215C248.835 203.785 252.125 201.195 256.325 199.445C260.525 197.695 265.285 196.82 270.605 196.82C279.215 196.82 286.075 198.85 291.185 202.91C296.365 206.9 299.13 212.535 299.48 219.815H277.115C277.045 217.575 276.345 215.895 275.015 214.775C273.755 213.655 272.11 213.095 270.08 213.095C268.54 213.095 267.28 213.55 266.3 214.46C265.32 215.37 264.83 216.665 264.83 218.345C264.83 219.745 265.355 220.97 266.405 222.02C267.525 223 268.89 223.875 270.5 224.645C272.11 225.345 274.49 226.255 277.64 227.375C282.33 228.985 286.18 230.595 289.19 232.205C292.27 233.745 294.895 235.95 297.065 238.82C299.305 241.62 300.425 245.19 300.425 249.53C300.425 253.94 299.305 257.895 297.065 261.395C294.895 264.895 291.71 267.66 287.51 269.69C283.38 271.72 278.48 272.735 272.81 272.735ZM306.632 242.495C306.632 236.405 307.717 231.085 309.887 226.535C312.127 221.985 315.137 218.485 318.917 216.035C322.767 213.585 327.037 212.36 331.727 212.36C335.787 212.36 339.287 213.165 342.227 214.775C345.167 216.385 347.442 218.555 349.052 221.285V213.095H369.632V272H349.052V263.81C347.442 266.54 345.132 268.71 342.122 270.32C339.182 271.93 335.717 272.735 331.727 272.735C327.037 272.735 322.767 271.51 318.917 269.06C315.137 266.61 312.127 263.11 309.887 258.56C307.717 253.94 306.632 248.585 306.632 242.495ZM349.052 242.495C349.052 238.715 348.002 235.74 345.902 233.57C343.872 231.4 341.352 230.315 338.342 230.315C335.262 230.315 332.707 231.4 330.677 233.57C328.647 235.67 327.632 238.645 327.632 242.495C327.632 246.275 328.647 249.285 330.677 251.525C332.707 253.695 335.262 254.78 338.342 254.78C341.352 254.78 343.872 253.695 345.902 251.525C348.002 249.355 349.052 246.345 349.052 242.495ZM416.114 254.465V272H407.189C392.139 272 384.614 264.545 384.614 249.635V230.21H377.369V213.095H384.614V198.815H405.299V213.095H416.009V230.21H405.299V249.95C405.299 251.56 405.649 252.715 406.349 253.415C407.119 254.115 408.379 254.465 410.129 254.465H416.114ZM485.824 213.095V272H465.139V263.6C463.389 266.26 460.974 268.43 457.894 270.11C454.814 271.72 451.279 272.525 447.289 272.525C440.429 272.525 435.004 270.285 431.014 265.805C427.094 261.255 425.134 255.095 425.134 247.325V213.095H445.609V244.7C445.609 248.06 446.484 250.72 448.234 252.68C450.054 254.57 452.434 255.515 455.374 255.515C458.384 255.515 460.764 254.57 462.514 252.68C464.264 250.72 465.139 248.06 465.139 244.7V213.095H485.824ZM518.116 223.49C520.426 220.13 523.226 217.47 526.516 215.51C529.806 213.55 533.341 212.57 537.121 212.57V234.515H531.346C526.866 234.515 523.541 235.39 521.371 237.14C519.201 238.89 518.116 241.935 518.116 246.275V272H497.536V213.095H518.116V223.49ZM583.034 212.57C589.824 212.57 595.214 214.845 599.204 219.395C603.194 223.875 605.189 229.965 605.189 237.665V272H584.609V240.395C584.609 237.035 583.734 234.41 581.984 232.52C580.234 230.56 577.889 229.58 574.949 229.58C571.869 229.58 569.454 230.56 567.704 232.52C565.954 234.41 565.079 237.035 565.079 240.395V272H544.499V213.095H565.079V221.495C566.899 218.835 569.349 216.7 572.429 215.09C575.509 213.41 579.044 212.57 583.034 212.57Z" fill="black"/>
<mask id="path-10-outside-2_1_457" maskUnits="userSpaceOnUse" x="400" y="1006" width="49" height="32" fill="black">
<rect fill="white" x="400" y="1006" width="49" height="32"/>
<path d="M400.84 1030.92V1027.48L414.28 1008.2H419.8V1026.96H423.52V1030.92H419.8V1037H415.32V1030.92H400.84ZM415.52 1012.84L406.08 1026.96H415.52V1012.84ZM442.978 1014.6C442.685 1013.37 442.152 1012.45 441.378 1011.84C440.605 1011.23 439.525 1010.92 438.138 1010.92C436.032 1010.92 434.458 1011.73 433.418 1013.36C432.378 1014.96 431.832 1017.63 431.778 1021.36C432.472 1020.19 433.485 1019.28 434.818 1018.64C436.152 1018 437.592 1017.68 439.138 1017.68C440.898 1017.68 442.445 1018.07 443.778 1018.84C445.138 1019.59 446.192 1020.68 446.938 1022.12C447.712 1023.56 448.098 1025.28 448.098 1027.28C448.098 1029.15 447.725 1030.81 446.978 1032.28C446.258 1033.75 445.178 1034.91 443.738 1035.76C442.298 1036.59 440.565 1037 438.538 1037C435.792 1037 433.632 1036.4 432.058 1035.2C430.512 1033.97 429.418 1032.25 428.778 1030.04C428.165 1027.83 427.858 1025.07 427.858 1021.76C427.858 1012 431.298 1007.12 438.178 1007.12C440.845 1007.12 442.938 1007.84 444.458 1009.28C446.005 1010.72 446.912 1012.49 447.178 1014.6H442.978ZM438.138 1021.52C436.512 1021.52 435.125 1022.01 433.978 1023C432.858 1023.96 432.298 1025.36 432.298 1027.2C432.298 1029.04 432.818 1030.51 433.858 1031.6C434.925 1032.67 436.405 1033.2 438.298 1033.2C439.978 1033.2 441.298 1032.68 442.258 1031.64C443.245 1030.6 443.738 1029.21 443.738 1027.48C443.738 1025.67 443.258 1024.23 442.298 1023.16C441.365 1022.07 439.978 1021.52 438.138 1021.52Z"/>
</mask>
<path d="M400.84 1030.92V1027.48L414.28 1008.2H419.8V1026.96H423.52V1030.92H419.8V1037H415.32V1030.92H400.84ZM415.52 1012.84L406.08 1026.96H415.52V1012.84ZM442.978 1014.6C442.685 1013.37 442.152 1012.45 441.378 1011.84C440.605 1011.23 439.525 1010.92 438.138 1010.92C436.032 1010.92 434.458 1011.73 433.418 1013.36C432.378 1014.96 431.832 1017.63 431.778 1021.36C432.472 1020.19 433.485 1019.28 434.818 1018.64C436.152 1018 437.592 1017.68 439.138 1017.68C440.898 1017.68 442.445 1018.07 443.778 1018.84C445.138 1019.59 446.192 1020.68 446.938 1022.12C447.712 1023.56 448.098 1025.28 448.098 1027.28C448.098 1029.15 447.725 1030.81 446.978 1032.28C446.258 1033.75 445.178 1034.91 443.738 1035.76C442.298 1036.59 440.565 1037 438.538 1037C435.792 1037 433.632 1036.4 432.058 1035.2C430.512 1033.97 429.418 1032.25 428.778 1030.04C428.165 1027.83 427.858 1025.07 427.858 1021.76C427.858 1012 431.298 1007.12 438.178 1007.12C440.845 1007.12 442.938 1007.84 444.458 1009.28C446.005 1010.72 446.912 1012.49 447.178 1014.6H442.978ZM438.138 1021.52C436.512 1021.52 435.125 1022.01 433.978 1023C432.858 1023.96 432.298 1025.36 432.298 1027.2C432.298 1029.04 432.818 1030.51 433.858 1031.6C434.925 1032.67 436.405 1033.2 438.298 1033.2C439.978 1033.2 441.298 1032.68 442.258 1031.64C443.245 1030.6 443.738 1029.21 443.738 1027.48C443.738 1025.67 443.258 1024.23 442.298 1023.16C441.365 1022.07 439.978 1021.52 438.138 1021.52Z" fill="black"/>
<path d="M400.84 1030.92H400.54V1031.22H400.84V1030.92ZM400.84 1027.48L400.594 1027.31L400.54 1027.39V1027.48H400.84ZM414.28 1008.2V1007.9H414.123L414.034 1008.03L414.28 1008.2ZM419.8 1008.2H420.1V1007.9H419.8V1008.2ZM419.8 1026.96H419.5V1027.26H419.8V1026.96ZM423.52 1026.96H423.82V1026.66H423.52V1026.96ZM423.52 1030.92V1031.22H423.82V1030.92H423.52ZM419.8 1030.92V1030.62H419.5V1030.92H419.8ZM419.8 1037V1037.3H420.1V1037H419.8ZM415.32 1037H415.02V1037.3H415.32V1037ZM415.32 1030.92H415.62V1030.62H415.32V1030.92ZM415.52 1012.84H415.82V1011.85L415.271 1012.67L415.52 1012.84ZM406.08 1026.96L405.831 1026.79L405.519 1027.26H406.08V1026.96ZM415.52 1026.96V1027.26H415.82V1026.96H415.52ZM400.84 1030.92H401.14V1027.48H400.84H400.54V1030.92H400.84ZM400.84 1027.48L401.086 1027.65L414.526 1008.37L414.28 1008.2L414.034 1008.03L400.594 1027.31L400.84 1027.48ZM414.28 1008.2V1008.5H419.8V1008.2V1007.9H414.28V1008.2ZM419.8 1008.2H419.5V1026.96H419.8H420.1V1008.2H419.8ZM419.8 1026.96V1027.26H423.52V1026.96V1026.66H419.8V1026.96ZM423.52 1026.96H423.22V1030.92H423.52H423.82V1026.96H423.52ZM423.52 1030.92V1030.62H419.8V1030.92V1031.22H423.52V1030.92ZM419.8 1030.92H419.5V1037H419.8H420.1V1030.92H419.8ZM419.8 1037V1036.7H415.32V1037V1037.3H419.8V1037ZM415.32 1037H415.62V1030.92H415.32H415.02V1037H415.32ZM415.32 1030.92V1030.62H400.84V1030.92V1031.22H415.32V1030.92ZM415.52 1012.84L415.271 1012.67L405.831 1026.79L406.08 1026.96L406.329 1027.13L415.769 1013.01L415.52 1012.84ZM406.08 1026.96V1027.26H415.52V1026.96V1026.66H406.08V1026.96ZM415.52 1026.96H415.82V1012.84H415.52H415.22V1026.96H415.52ZM442.978 1014.6L442.687 1014.67L442.742 1014.9H442.978V1014.6ZM441.378 1011.84L441.565 1011.6L441.378 1011.84ZM433.418 1013.36L433.67 1013.52L433.671 1013.52L433.418 1013.36ZM431.778 1021.36L431.478 1021.36L431.462 1022.48L432.037 1021.51L431.778 1021.36ZM443.778 1018.84L443.628 1019.1L443.634 1019.1L443.778 1018.84ZM446.938 1022.12L446.672 1022.26L446.674 1022.26L446.938 1022.12ZM446.978 1032.28L446.711 1032.14L446.709 1032.15L446.978 1032.28ZM443.738 1035.76L443.888 1036.02L443.891 1036.02L443.738 1035.76ZM432.058 1035.2L431.872 1035.44L431.877 1035.44L432.058 1035.2ZM428.778 1030.04L428.489 1030.12L428.49 1030.12L428.778 1030.04ZM444.458 1009.28L444.252 1009.5L444.254 1009.5L444.458 1009.28ZM447.178 1014.6V1014.9H447.519L447.476 1014.56L447.178 1014.6ZM433.978 1023L434.174 1023.23L434.174 1023.23L433.978 1023ZM433.858 1031.6L433.641 1031.81L433.646 1031.81L433.858 1031.6ZM442.258 1031.64L442.041 1031.43L442.038 1031.44L442.258 1031.64ZM442.298 1023.16L442.07 1023.35L442.075 1023.36L442.298 1023.16ZM442.978 1014.6L443.27 1014.53C442.966 1013.26 442.404 1012.27 441.565 1011.6L441.378 1011.84L441.192 1012.08C441.9 1012.64 442.405 1013.49 442.687 1014.67L442.978 1014.6ZM441.378 1011.84L441.565 1011.6C440.721 1010.94 439.566 1010.62 438.138 1010.62V1010.92V1011.22C439.484 1011.22 440.49 1011.52 441.192 1012.08L441.378 1011.84ZM438.138 1010.92V1010.62C435.941 1010.62 434.267 1011.48 433.166 1013.2L433.418 1013.36L433.671 1013.52C434.65 1011.99 436.123 1011.22 438.138 1011.22V1010.92ZM433.418 1013.36L433.167 1013.2C432.078 1014.87 431.532 1017.61 431.478 1021.36L431.778 1021.36L432.078 1021.36C432.132 1017.64 432.679 1015.05 433.67 1013.52L433.418 1013.36ZM431.778 1021.36L432.037 1021.51C432.697 1020.39 433.664 1019.53 434.948 1018.91L434.818 1018.64L434.689 1018.37C433.307 1019.03 432.246 1019.98 431.52 1021.21L431.778 1021.36ZM434.818 1018.64L434.948 1018.91C436.239 1018.29 437.635 1017.98 439.138 1017.98V1017.68V1017.38C437.549 1017.38 436.064 1017.71 434.689 1018.37L434.818 1018.64ZM439.138 1017.68V1017.98C440.853 1017.98 442.346 1018.36 443.628 1019.1L443.778 1018.84L443.929 1018.58C442.544 1017.78 440.944 1017.38 439.138 1017.38V1017.68ZM443.778 1018.84L443.634 1019.1C444.939 1019.82 445.952 1020.87 446.672 1022.26L446.938 1022.12L447.205 1021.98C446.432 1020.49 445.337 1019.35 443.923 1018.58L443.778 1018.84ZM446.938 1022.12L446.674 1022.26C447.419 1023.65 447.798 1025.32 447.798 1027.28H448.098H448.398C448.398 1025.24 448.004 1023.47 447.203 1021.98L446.938 1022.12ZM448.098 1027.28H447.798C447.798 1029.11 447.434 1030.72 446.711 1032.14L446.978 1032.28L447.246 1032.42C448.017 1030.9 448.398 1029.19 448.398 1027.28H448.098ZM446.978 1032.28L446.709 1032.15C446.016 1033.56 444.977 1034.68 443.585 1035.5L443.738 1035.76L443.891 1036.02C445.38 1035.14 446.501 1033.93 447.248 1032.41L446.978 1032.28ZM443.738 1035.76L443.589 1035.5C442.204 1036.3 440.524 1036.7 438.538 1036.7V1037V1037.3C440.606 1037.3 442.393 1036.88 443.888 1036.02L443.738 1035.76ZM438.538 1037V1036.7C435.832 1036.7 433.745 1036.11 432.24 1034.96L432.058 1035.2L431.877 1035.44C433.519 1036.69 435.751 1037.3 438.538 1037.3V1037ZM432.058 1035.2L432.245 1034.96C430.755 1033.78 429.692 1032.12 429.067 1029.96L428.778 1030.04L428.49 1030.12C429.145 1032.39 430.269 1034.16 431.872 1035.44L432.058 1035.2ZM428.778 1030.04L429.068 1029.96C428.464 1027.78 428.158 1025.05 428.158 1021.76H427.858H427.558C427.558 1025.08 427.866 1027.87 428.489 1030.12L428.778 1030.04ZM427.858 1021.76H428.158C428.158 1016.91 429.015 1013.32 430.684 1010.95C432.338 1008.61 434.819 1007.42 438.178 1007.42V1007.12V1006.82C434.658 1006.82 431.979 1008.07 430.193 1010.61C428.421 1013.12 427.558 1016.85 427.558 1021.76H427.858ZM438.178 1007.12V1007.42C440.79 1007.42 442.802 1008.12 444.252 1009.5L444.458 1009.28L444.665 1009.06C443.075 1007.56 440.9 1006.82 438.178 1006.82V1007.12ZM444.458 1009.28L444.254 1009.5C445.749 1010.89 446.623 1012.6 446.881 1014.64L447.178 1014.6L447.476 1014.56C447.201 1012.39 446.261 1010.55 444.663 1009.06L444.458 1009.28ZM447.178 1014.6V1014.3H442.978V1014.6V1014.9H447.178V1014.6ZM438.138 1021.52V1021.22C436.446 1021.22 434.988 1021.74 433.783 1022.77L433.978 1023L434.174 1023.23C435.262 1022.29 436.578 1021.82 438.138 1021.82V1021.52ZM433.978 1023L433.783 1022.77C432.581 1023.8 431.998 1025.3 431.998 1027.2H432.298H432.598C432.598 1025.42 433.136 1024.12 434.174 1023.23L433.978 1023ZM432.298 1027.2H431.998C431.998 1029.1 432.537 1030.65 433.641 1031.81L433.858 1031.6L434.076 1031.39C433.1 1030.37 432.598 1028.98 432.598 1027.2H432.298ZM433.858 1031.6L433.646 1031.81C434.783 1032.95 436.347 1033.5 438.298 1033.5V1033.2V1032.9C436.463 1032.9 435.067 1032.38 434.071 1031.39L433.858 1031.6ZM438.298 1033.2V1033.5C440.045 1033.5 441.451 1032.96 442.479 1031.84L442.258 1031.64L442.038 1031.44C441.145 1032.4 439.912 1032.9 438.298 1032.9V1033.2ZM442.258 1031.64L442.476 1031.85C443.526 1030.74 444.038 1029.27 444.038 1027.48H443.738H443.438C443.438 1029.15 442.964 1030.46 442.041 1031.43L442.258 1031.64ZM443.738 1027.48H444.038C444.038 1025.61 443.543 1024.09 442.521 1022.96L442.298 1023.16L442.075 1023.36C442.974 1024.36 443.438 1025.72 443.438 1027.48H443.738ZM442.298 1023.16L442.527 1022.97C441.521 1021.79 440.04 1021.22 438.138 1021.22V1021.52V1021.82C439.917 1021.82 441.209 1022.35 442.07 1023.35L442.298 1023.16Z" fill="black" mask="url(#path-10-outside-2_1_457)"/>
<path d="M401.03 426.304C449.92 423.568 503.775 439.342 540.982 471.822C550.767 467.898 560.162 463.102 570.044 459.293C603.612 446.354 649.788 433.641 685.688 436.616C702.374 438 718.833 443.468 729.927 456.735C738.779 467.32 741.351 480.503 740.078 493.966C735.072 546.92 660.793 608.467 621.52 641.168C621.601 681.877 607.136 724.749 585.316 758.818C554.448 806.9 505.608 840.623 449.701 852.461C399.429 861.025 353.878 851.359 309.526 826.912C298.937 830.522 288.56 834.951 277.993 838.684C247.61 849.417 214.274 858.029 181.944 858C161.341 857.982 137.972 855.363 122.744 839.913C113.439 830.473 109.819 817.828 110.007 804.791C110.619 762.22 146.246 719.679 174.74 690.74C185.03 680.289 195.964 670.618 206.448 660.399C206.148 657.373 205.908 654.341 205.73 651.306C202.625 594.245 221.015 536.675 259.357 493.952C295.645 453.386 346.663 429.026 401.03 426.304ZM589.896 528.925C593.197 535.273 596.709 541.585 599.741 548.062L602.538 544.703C605.182 541.657 611.002 535.246 610.469 530.966C610.325 529.807 609.835 529.121 608.898 528.478C606.268 526.671 598.708 527.393 595.49 527.84C593.642 528.182 591.709 528.443 589.896 528.925ZM230.651 757.124C232.536 757.135 234.459 757.218 236.34 757.139C233.667 752.399 231.359 747.566 229.11 742.615C227.214 745.195 222.584 750.407 222.97 753.644C223.101 754.741 223.472 755.431 224.369 756.113C225.787 757.19 228.912 757.026 230.651 757.124Z" fill="#0E121A"/>
<path d="M257.472 749.385C236.192 722.096 225.744 679.604 224.165 645.62C221.752 594.077 240.04 543.707 274.961 505.713C308.592 469.255 355.353 447.676 404.921 445.741C453.121 444.09 500.076 461.231 535.869 493.546L535.207 495.9C535.645 501.798 534.375 530.267 531.479 534.07C505.15 507.562 467.371 479.797 428.255 479.741C427.982 479.741 427.708 479.743 427.435 479.747C474.031 492.873 508.719 518.425 532.561 560.922C539.271 572.882 544.651 586.002 547.815 599.363C512.982 627.823 473.799 652.214 435.001 674.915C382.232 705.791 320.205 740.414 260.145 753.296C259.263 752.046 258.154 750.746 257.472 749.385Z" fill="#FFCB3C"/>
<path d="M257.472 749.385C236.192 722.096 225.744 679.604 224.165 645.62C221.752 594.077 240.04 543.707 274.961 505.713C308.592 469.255 355.353 447.676 404.921 445.741C453.121 444.09 500.076 461.231 535.869 493.546L535.207 495.9C528.979 491.494 522.175 487.728 515.486 484.057C475.578 462.161 429.355 451.126 384.06 458.905C334.632 467.392 293.788 493.509 264.906 534.381C234.811 576.97 225.338 628.839 234.154 679.812C236.553 693.538 240.2 707.016 245.047 720.08C247.225 726.036 257.683 745.275 257.472 749.385Z" fill="#FEE79A"/>
<path d="M323.386 535.254C329.202 535.415 334.766 536.692 339.402 540.403C344.204 544.248 346.761 550.086 347.416 556.108C348.643 567.382 343.17 578.727 336.169 587.232C326.467 599.018 312.279 607.602 297.003 609.129C291.045 609.137 284.883 607.891 280.171 604.016C275.837 600.452 273.788 595.223 273.249 589.747C272.118 578.259 277.314 566.886 284.508 558.198C294.326 546.337 307.717 536.697 323.386 535.254Z" fill="#0E121A"/>
<path d="M320.491 544.625C324.982 544.26 329.093 544.426 333.001 546.935C335.87 548.777 337.552 551.586 338.192 554.889C339.779 563.08 336.342 571.781 331.717 578.404C324.405 588.875 312.164 597.484 299.529 599.741C295.217 600.053 290.742 599.788 286.968 597.45C284.583 595.973 283.038 593.64 282.437 590.923C280.745 583.275 284.418 574.48 288.508 568.19C295.708 557.114 307.472 547.415 320.491 544.625Z" fill="#FCC734"/>
<path d="M367.666 489.436C378.291 487.013 388.869 493.662 391.288 504.286C393.707 514.909 387.051 525.482 376.424 527.895C365.803 530.307 355.237 523.658 352.82 513.041C350.402 502.425 357.048 491.858 367.666 489.436Z" fill="#0E121A"/>
<path d="M369.207 498.937C372.694 497.902 376.468 498.842 379.061 501.392C381.654 503.942 382.657 507.698 381.68 511.201C380.704 514.704 377.901 517.4 374.362 518.24C369.096 519.491 363.79 516.324 362.394 511.095C360.998 505.867 364.018 500.477 369.207 498.937Z" fill="#FCC734"/>
<path d="M305.443 651.323C315.154 649.517 324.499 655.895 326.353 665.594C328.208 675.294 321.874 684.668 312.182 686.57C302.421 688.485 292.965 682.099 291.097 672.332C289.23 662.565 295.664 653.142 305.443 651.323Z" fill="#0E121A"/>
<path d="M306.506 660.732C309.525 659.909 312.754 660.786 314.942 663.023C317.13 665.259 317.934 668.506 317.044 671.505C316.153 674.505 313.707 676.787 310.652 677.467C306.079 678.487 301.53 675.67 300.403 671.124C299.277 666.578 301.986 661.965 306.506 660.732Z" fill="#FCC734"/>
<path d="M557.584 485.67C595.864 468.33 659.544 447.826 700.36 459.074C708.214 462.189 714.673 466.093 718.228 474.159C722.874 484.701 720.405 496.967 716.297 507.281C703.753 538.776 671.303 571.298 646.273 594.251C555.117 677.838 432.049 753.226 318.077 801.96C275.258 820.269 227.466 838.627 180.349 838.605C169.797 838.6 159.232 837.925 149.306 833.998C143.688 831.775 138.879 828.48 134.941 823.898C130.566 817.904 128.457 811.918 128.394 804.45C128.05 763.922 181.421 710.123 208.842 682.576C209.838 687.34 211.034 692.075 212.155 696.811C199.034 709.712 186.675 725.511 177.56 741.502C170.482 753.922 162.543 771.207 166.643 785.685C168.683 792.888 173.664 798.272 180.154 801.824C204.456 815.124 247.438 804.748 272.503 797.296C322.993 782.283 371.394 757.626 417.267 732.105C485.239 694.29 552.23 651.65 609.906 599.159C630.198 580.691 651.714 559.585 664.8 535.325C670.514 524.733 675.853 511.341 672.132 499.291C670.049 492.544 665.13 487.367 658.94 484.13C633.945 471.06 589.434 484.875 564.073 492.98C562.256 490.335 559.777 488.013 557.584 485.67Z" fill="#DDF1F1"/>
<path d="M700.36 459.075C708.214 462.189 714.673 466.093 718.228 474.159C722.874 484.702 720.405 496.968 716.297 507.282C703.753 538.776 671.303 571.299 646.273 594.251C555.118 677.838 432.049 753.226 318.077 801.96C275.258 820.269 227.466 838.627 180.349 838.605C169.797 838.6 159.232 837.925 149.306 833.998C143.688 831.775 138.879 828.48 134.941 823.898C140.211 824.722 145.583 827.019 150.785 828.345C160.255 830.759 170.384 831.347 180.118 831.504C280.962 833.13 437.037 742.407 519.199 684.697C556.018 658.835 592.132 630.473 624.434 599.127C654.906 569.56 687.544 531.297 697.286 489.196C699.582 479.277 700.211 469.227 700.36 459.075Z" fill="#97D0CB"/>
<path d="M622.064 486.81C633.908 486.161 648.585 485.68 658.623 492.943C662.82 495.98 665.227 500.136 665.944 505.261C668.005 519.986 655.452 538.313 647.029 549.511C636.055 564.1 622.837 577.278 609.537 589.733C551.27 644.296 476.443 691.335 406.555 729.369C356.056 756.85 288.082 791.304 230.775 799.383C215.705 801.508 193.348 802.97 180.629 793.167C176.263 789.802 173.662 785.155 173.012 779.689C170.721 760.398 189.684 734.861 200.863 720.574C205.246 715.096 209.86 709.806 214.691 704.718C216.522 710.752 218.354 716.736 220.64 722.618C217.596 725.928 214.789 729.448 212.239 733.153C207.005 740.858 201.562 751.225 203.477 760.764C204.313 764.929 206.655 768.463 210.204 770.812C221.647 778.39 241.305 776.061 254.101 773.582C278.865 768.783 302.892 760.155 326.088 750.384C364.01 734.411 400.598 715.107 436.25 694.601C485.341 666.365 533.649 635.224 576.857 598.5C593.43 584.413 610.717 568.946 622.931 550.811C628.015 543.263 632.897 534.025 630.954 524.632C630.012 520.081 627.384 516.292 623.498 513.753C611.651 506.016 591.572 508.876 578.462 511.634C575.505 507.184 572.338 502.924 569.112 498.665C586.369 493.117 603.93 488.284 622.064 486.81Z" fill="#FEE79A"/>
<path d="M599.563 658.325C600.073 662.126 598.878 667.119 598.203 670.893C594.768 690.103 589.365 709.29 580.903 726.925C559.197 772.156 518.548 809.349 471.11 825.98C426.066 841.772 377.771 837.318 335.008 816.828C351.36 808.119 368.624 800.883 385.206 792.588C418.716 776.092 451.512 758.183 483.505 738.909C502.953 726.677 523.021 714.552 541.491 700.876C536.141 712.987 530.619 724.709 523.016 735.613C502.826 764.568 473.516 788.023 440.233 800.093C427.944 804.549 415.369 807.35 402.536 809.665C433.77 813.505 470.713 801.719 496.829 784.916C533.623 760.849 559.573 723.38 569.157 680.478C579.604 673.655 589.631 665.884 599.563 658.325Z" fill="#F4AB34"/>
<path d="M535.869 493.545C558.546 513.904 573.593 538.76 585.816 566.401C578.519 573.64 570.897 580.265 562.995 586.829C555.028 567.093 545.165 550.434 531.479 534.069C534.375 530.267 535.645 501.798 535.207 495.9L535.869 493.545Z" fill="#F4AB34"/>
</svg>
