<svg width="849" height="1183" viewBox="0 0 849 1183" fill="none" xmlns="http://www.w3.org/2000/svg">
<rect x="5" y="5" width="839" height="1173" rx="45" fill="white"/>
<rect x="5" y="5" width="839" height="1173" rx="45" stroke="black" stroke-width="10"/>
<circle cx="786.5" cy="1124.5" r="11.5" fill="black"/>
<circle cx="786.5" cy="59.5" r="11.5" fill="black"/>
<path d="M77 1124.5C77 1130.85 71.8513 1136 65.5 1136C59.1487 1136 54 1130.85 54 1124.5C54 1118.15 59.1487 1113 65.5 1113C71.8513 1113 77 1118.15 77 1124.5Z" fill="black"/>
<path d="M77 59.5C77 65.8513 71.8513 71 65.5 71C59.1487 71 54 65.8513 54 59.5C54 53.1487 59.1487 48 65.5 48C71.8513 48 77 53.1487 77 59.5Z" fill="black"/>
<mask id="path-6-inside-1_1_1180" fill="white">
<path d="M708 48C713.523 48 717.934 52.4996 718.616 57.9801C723.122 94.1833 751.817 122.878 788.02 127.384C793.5 128.066 798 132.477 798 138V1046C798 1051.52 793.5 1055.93 788.02 1056.62C751.817 1061.12 723.122 1089.82 718.616 1126.02C717.934 1131.5 713.523 1136 708 1136H141C135.477 1136 131.066 1131.5 130.384 1126.02C125.878 1089.82 97.1833 1061.12 60.9801 1056.62C55.4996 1055.93 51 1051.52 51 1046V138C51 132.477 55.4996 128.066 60.9801 127.384C97.1833 122.878 125.878 94.1833 130.384 57.9801C131.066 52.4996 135.477 48 141 48H708Z"/>
</mask>
<path d="M708 48C713.523 48 717.934 52.4996 718.616 57.9801C723.122 94.1833 751.817 122.878 788.02 127.384C793.5 128.066 798 132.477 798 138V1046C798 1051.52 793.5 1055.93 788.02 1056.62C751.817 1061.12 723.122 1089.82 718.616 1126.02C717.934 1131.5 713.523 1136 708 1136H141C135.477 1136 131.066 1131.5 130.384 1126.02C125.878 1089.82 97.1833 1061.12 60.9801 1056.62C55.4996 1055.93 51 1051.52 51 1046V138C51 132.477 55.4996 128.066 60.9801 127.384C97.1833 122.878 125.878 94.1833 130.384 57.9801C131.066 52.4996 135.477 48 141 48H708Z" fill="#7047A3"/>
<path d="M130.384 1126.02L138.322 1125.03L130.384 1126.02ZM718.616 1126.02L710.678 1125.03L718.616 1126.02ZM788.02 1056.62L789.008 1064.56L788.02 1056.62ZM718.616 57.9801L726.555 56.9922L718.616 57.9801ZM718.616 57.9801L710.678 58.9681C715.635 98.8063 747.194 130.365 787.032 135.322L788.02 127.384L789.008 119.445C756.44 115.392 730.608 89.5603 726.555 56.9922L718.616 57.9801ZM798 138H790V1046H798H806V138H798ZM788.02 1056.62L787.032 1048.68C747.194 1053.64 715.635 1085.19 710.678 1125.03L718.616 1126.02L726.555 1127.01C730.608 1094.44 756.44 1068.61 789.008 1064.56L788.02 1056.62ZM708 1136V1128H141V1136V1144H708V1136ZM130.384 1126.02L138.322 1125.03C133.365 1085.19 101.806 1053.64 61.9681 1048.68L60.9801 1056.62L59.9922 1064.56C92.5603 1068.61 118.392 1094.44 122.445 1127.01L130.384 1126.02ZM51 1046H59V138H51H43V1046H51ZM60.9801 127.384L61.9681 135.322C101.806 130.365 133.365 98.8063 138.322 58.9681L130.384 57.9801L122.445 56.9922C118.392 89.5603 92.5603 115.392 59.9922 119.445L60.9801 127.384ZM141 48V56H708V48V40H141V48ZM130.384 57.9801L138.322 58.9681C138.438 58.0389 138.872 57.2306 139.427 56.6958C139.954 56.1887 140.494 56 141 56V48V40C130.84 40 123.547 48.1329 122.445 56.9922L130.384 57.9801ZM51 138H59C59 137.494 59.1887 136.954 59.6958 136.427C60.2306 135.872 61.0389 135.438 61.9681 135.322L60.9801 127.384L59.9922 119.445C51.1329 120.547 43 127.84 43 138H51ZM60.9801 1056.62L61.9681 1048.68C61.0389 1048.56 60.2306 1048.13 59.6958 1047.57C59.1887 1047.05 59 1046.51 59 1046H51H43C43 1056.16 51.1329 1063.45 59.9922 1064.56L60.9801 1056.62ZM141 1136V1128C140.494 1128 139.954 1127.81 139.427 1127.3C138.872 1126.77 138.438 1125.96 138.322 1125.03L130.384 1126.02L122.445 1127.01C123.547 1135.87 130.84 1144 141 1144V1136ZM718.616 1126.02L710.678 1125.03C710.562 1125.96 710.128 1126.77 709.573 1127.3C709.046 1127.81 708.506 1128 708 1128V1136V1144C718.16 1144 725.453 1135.87 726.555 1127.01L718.616 1126.02ZM798 1046H790C790 1046.51 789.811 1047.05 789.304 1047.57C788.769 1048.13 787.961 1048.56 787.032 1048.68L788.02 1056.62L789.008 1064.56C797.867 1063.45 806 1056.16 806 1046H798ZM788.02 127.384L787.032 135.322C787.961 135.438 788.769 135.872 789.304 136.427C789.811 136.954 790 137.494 790 138H798H806C806 127.84 797.867 120.547 789.008 119.445L788.02 127.384ZM718.616 57.9801L726.555 56.9922C725.453 48.1329 718.16 40 708 40V48V56C708.506 56 709.046 56.1887 709.573 56.6958C710.128 57.2306 710.562 58.0389 710.678 58.9681L718.616 57.9801Z" fill="black" mask="url(#path-6-inside-1_1_1180)"/>
<path d="M690 102C695.523 102 699.911 106.512 700.837 111.957C705.019 136.563 724.437 155.981 749.043 160.163C754.488 161.089 759 165.477 759 171V1014C759 1019.52 754.488 1023.91 749.043 1024.84C724.711 1028.97 705.454 1048 700.984 1072.22C699.993 1077.59 695.633 1082 690.175 1082H158.825C153.367 1082 149.007 1077.59 148.016 1072.22C143.546 1048 124.288 1028.97 99.9568 1024.84C94.5121 1023.91 90 1019.52 90 1014V171C90 165.477 94.512 161.089 99.9568 160.163C124.563 155.981 143.981 136.563 148.163 111.957C149.089 106.512 153.477 102 159 102H690Z" fill="#B48FE1"/>
<mask id="path-9-outside-2_1_1180" maskUnits="userSpaceOnUse" x="401" y="1006" width="47" height="32" fill="black">
<rect fill="white" x="401" y="1006" width="47" height="32"/>
<path d="M402.32 1015.04C402.48 1012.56 403.427 1010.63 405.16 1009.24C406.92 1007.85 409.16 1007.16 411.88 1007.16C413.747 1007.16 415.36 1007.49 416.72 1008.16C418.08 1008.83 419.107 1009.73 419.8 1010.88C420.493 1012.03 420.84 1013.32 420.84 1014.76C420.84 1016.41 420.4 1017.83 419.52 1019C418.64 1020.17 417.587 1020.96 416.36 1021.36V1021.52C417.933 1022 419.16 1022.88 420.04 1024.16C420.92 1025.41 421.36 1027.03 421.36 1029C421.36 1030.57 421 1031.97 420.28 1033.2C419.56 1034.43 418.493 1035.4 417.08 1036.12C415.667 1036.81 413.973 1037.16 412 1037.16C409.12 1037.16 406.747 1036.43 404.88 1034.96C403.04 1033.47 402.053 1031.33 401.92 1028.56H406.32C406.427 1029.97 406.973 1031.13 407.96 1032.04C408.947 1032.92 410.28 1033.36 411.96 1033.36C413.587 1033.36 414.84 1032.92 415.72 1032.04C416.6 1031.13 417.04 1029.97 417.04 1028.56C417.04 1026.69 416.44 1025.37 415.24 1024.6C414.067 1023.8 412.253 1023.4 409.8 1023.4H408.76V1019.64H409.84C412 1019.61 413.64 1019.25 414.76 1018.56C415.907 1017.87 416.48 1016.77 416.48 1015.28C416.48 1014 416.067 1012.99 415.24 1012.24C414.413 1011.47 413.24 1011.08 411.72 1011.08C410.227 1011.08 409.067 1011.47 408.24 1012.24C407.413 1012.99 406.92 1013.92 406.76 1015.04H402.32ZM444.95 1011.76H431.55V1019.72C432.11 1018.97 432.937 1018.35 434.03 1017.84C435.15 1017.33 436.337 1017.08 437.59 1017.08C439.83 1017.08 441.643 1017.56 443.03 1018.52C444.443 1019.48 445.443 1020.69 446.03 1022.16C446.643 1023.63 446.95 1025.17 446.95 1026.8C446.95 1028.77 446.563 1030.53 445.79 1032.08C445.043 1033.6 443.91 1034.8 442.39 1035.68C440.897 1036.56 439.057 1037 436.87 1037C433.963 1037 431.63 1036.28 429.87 1034.84C428.11 1033.4 427.057 1031.49 426.71 1029.12H431.15C431.443 1030.37 432.097 1031.37 433.11 1032.12C434.123 1032.84 435.39 1033.2 436.91 1033.2C438.803 1033.2 440.217 1032.63 441.15 1031.48C442.11 1030.33 442.59 1028.81 442.59 1026.92C442.59 1025 442.11 1023.53 441.15 1022.52C440.19 1021.48 438.777 1020.96 436.91 1020.96C435.603 1020.96 434.497 1021.29 433.59 1021.96C432.71 1022.6 432.07 1023.48 431.67 1024.6H427.35V1007.76H444.95V1011.76Z"/>
</mask>
<path d="M402.32 1015.04C402.48 1012.56 403.427 1010.63 405.16 1009.24C406.92 1007.85 409.16 1007.16 411.88 1007.16C413.747 1007.16 415.36 1007.49 416.72 1008.16C418.08 1008.83 419.107 1009.73 419.8 1010.88C420.493 1012.03 420.84 1013.32 420.84 1014.76C420.84 1016.41 420.4 1017.83 419.52 1019C418.64 1020.17 417.587 1020.96 416.36 1021.36V1021.52C417.933 1022 419.16 1022.88 420.04 1024.16C420.92 1025.41 421.36 1027.03 421.36 1029C421.36 1030.57 421 1031.97 420.28 1033.2C419.56 1034.43 418.493 1035.4 417.08 1036.12C415.667 1036.81 413.973 1037.16 412 1037.16C409.12 1037.16 406.747 1036.43 404.88 1034.96C403.04 1033.47 402.053 1031.33 401.92 1028.56H406.32C406.427 1029.97 406.973 1031.13 407.96 1032.04C408.947 1032.92 410.28 1033.36 411.96 1033.36C413.587 1033.36 414.84 1032.92 415.72 1032.04C416.6 1031.13 417.04 1029.97 417.04 1028.56C417.04 1026.69 416.44 1025.37 415.24 1024.6C414.067 1023.8 412.253 1023.4 409.8 1023.4H408.76V1019.64H409.84C412 1019.61 413.64 1019.25 414.76 1018.56C415.907 1017.87 416.48 1016.77 416.48 1015.28C416.48 1014 416.067 1012.99 415.24 1012.24C414.413 1011.47 413.24 1011.08 411.72 1011.08C410.227 1011.08 409.067 1011.47 408.24 1012.24C407.413 1012.99 406.92 1013.92 406.76 1015.04H402.32ZM444.95 1011.76H431.55V1019.72C432.11 1018.97 432.937 1018.35 434.03 1017.84C435.15 1017.33 436.337 1017.08 437.59 1017.08C439.83 1017.08 441.643 1017.56 443.03 1018.52C444.443 1019.48 445.443 1020.69 446.03 1022.16C446.643 1023.63 446.95 1025.17 446.95 1026.8C446.95 1028.77 446.563 1030.53 445.79 1032.08C445.043 1033.6 443.91 1034.8 442.39 1035.68C440.897 1036.56 439.057 1037 436.87 1037C433.963 1037 431.63 1036.28 429.87 1034.84C428.11 1033.4 427.057 1031.49 426.71 1029.12H431.15C431.443 1030.37 432.097 1031.37 433.11 1032.12C434.123 1032.84 435.39 1033.2 436.91 1033.2C438.803 1033.2 440.217 1032.63 441.15 1031.48C442.11 1030.33 442.59 1028.81 442.59 1026.92C442.59 1025 442.11 1023.53 441.15 1022.52C440.19 1021.48 438.777 1020.96 436.91 1020.96C435.603 1020.96 434.497 1021.29 433.59 1021.96C432.71 1022.6 432.07 1023.48 431.67 1024.6H427.35V1007.76H444.95V1011.76Z" fill="black"/>
<path d="M402.32 1015.04L402.021 1015.02L402 1015.34H402.32V1015.04ZM405.16 1009.24L404.974 1009L404.973 1009.01L405.16 1009.24ZM416.72 1008.16L416.588 1008.43L416.72 1008.16ZM419.8 1010.88L420.057 1010.72L419.8 1010.88ZM419.52 1019L419.76 1019.18V1019.18L419.52 1019ZM416.36 1021.36L416.267 1021.07L416.06 1021.14V1021.36H416.36ZM416.36 1021.52H416.06V1021.74L416.272 1021.81L416.36 1021.52ZM420.04 1024.16L419.793 1024.33L419.794 1024.33L420.04 1024.16ZM420.28 1033.2L420.021 1033.05L420.28 1033.2ZM417.08 1036.12L417.212 1036.39L417.216 1036.39L417.08 1036.12ZM404.88 1034.96L404.691 1035.19L404.695 1035.2L404.88 1034.96ZM401.92 1028.56V1028.26H401.605L401.62 1028.57L401.92 1028.56ZM406.32 1028.56L406.619 1028.54L406.598 1028.26H406.32V1028.56ZM407.96 1032.04L407.757 1032.26L407.76 1032.26L407.96 1032.04ZM415.72 1032.04L415.932 1032.25L415.935 1032.25L415.72 1032.04ZM415.24 1024.6L415.071 1024.85L415.077 1024.85L415.24 1024.6ZM408.76 1023.4H408.46V1023.7H408.76V1023.4ZM408.76 1019.64V1019.34H408.46V1019.64H408.76ZM409.84 1019.64V1019.94L409.844 1019.94L409.84 1019.64ZM414.76 1018.56L414.605 1018.3L414.602 1018.3L414.76 1018.56ZM415.24 1012.24L415.035 1012.46L415.039 1012.46L415.24 1012.24ZM408.24 1012.24L408.441 1012.46L408.445 1012.46L408.24 1012.24ZM406.76 1015.04V1015.34H407.02L407.057 1015.08L406.76 1015.04ZM402.32 1015.04L402.619 1015.06C402.775 1012.65 403.688 1010.8 405.347 1009.47L405.16 1009.24L404.973 1009.01C403.165 1010.45 402.185 1012.47 402.021 1015.02L402.32 1015.04ZM405.16 1009.24L405.346 1009.48C407.042 1008.14 409.213 1007.46 411.88 1007.46V1007.16V1006.86C409.108 1006.86 406.798 1007.57 404.974 1009L405.16 1009.24ZM411.88 1007.16V1007.46C413.711 1007.46 415.277 1007.79 416.588 1008.43L416.72 1008.16L416.852 1007.89C415.443 1007.2 413.782 1006.86 411.88 1006.86V1007.16ZM416.72 1008.16L416.588 1008.43C417.903 1009.07 418.883 1009.94 419.543 1011.04L419.8 1010.88L420.057 1010.72C419.33 1009.52 418.257 1008.58 416.852 1007.89L416.72 1008.16ZM419.8 1010.88L419.543 1011.04C420.206 1012.13 420.54 1013.37 420.54 1014.76H420.84H421.14C421.14 1013.27 420.78 1011.92 420.057 1010.72L419.8 1010.88ZM420.84 1014.76H420.54C420.54 1016.36 420.116 1017.71 419.28 1018.82L419.52 1019L419.76 1019.18C420.684 1017.95 421.14 1016.47 421.14 1014.76H420.84ZM419.52 1019L419.28 1018.82C418.432 1019.95 417.427 1020.7 416.267 1021.07L416.36 1021.36L416.453 1021.65C417.746 1021.22 418.848 1020.4 419.76 1019.18L419.52 1019ZM416.36 1021.36H416.06V1021.52H416.36H416.66V1021.36H416.36ZM416.36 1021.52L416.272 1021.81C417.785 1022.27 418.954 1023.11 419.793 1024.33L420.04 1024.16L420.287 1023.99C419.366 1022.65 418.082 1021.73 416.448 1021.23L416.36 1021.52ZM420.04 1024.16L419.794 1024.33C420.63 1025.52 421.06 1027.07 421.06 1029H421.36H421.66C421.66 1026.98 421.21 1025.3 420.286 1023.99L420.04 1024.16ZM421.36 1029H421.06C421.06 1030.53 420.711 1031.87 420.021 1033.05L420.28 1033.2L420.539 1033.35C421.289 1032.07 421.66 1030.62 421.66 1029H421.36ZM420.28 1033.2L420.021 1033.05C419.334 1034.22 418.312 1035.16 416.944 1035.85L417.08 1036.12L417.216 1036.39C418.674 1035.64 419.786 1034.63 420.539 1033.35L420.28 1033.2ZM417.08 1036.12L416.948 1035.85C415.585 1036.52 413.939 1036.86 412 1036.86V1037.16V1037.46C414.008 1037.46 415.749 1037.11 417.212 1036.39L417.08 1036.12ZM412 1037.16V1036.86C409.172 1036.86 406.869 1036.14 405.065 1034.72L404.88 1034.96L404.695 1035.2C406.625 1036.71 409.068 1037.46 412 1037.46V1037.16ZM404.88 1034.96L405.069 1034.73C403.307 1033.3 402.35 1031.25 402.22 1028.55L401.92 1028.56L401.62 1028.57C401.757 1031.42 402.773 1033.64 404.691 1035.19L404.88 1034.96ZM401.92 1028.56V1028.86H406.32V1028.56V1028.26H401.92V1028.56ZM406.32 1028.56L406.021 1028.58C406.133 1030.07 406.711 1031.3 407.757 1032.26L407.96 1032.04L408.163 1031.82C407.236 1030.97 406.72 1029.88 406.619 1028.54L406.32 1028.56ZM407.96 1032.04L407.76 1032.26C408.816 1033.21 410.227 1033.66 411.96 1033.66V1033.36V1033.06C410.333 1033.06 409.078 1032.63 408.16 1031.82L407.96 1032.04ZM411.96 1033.36V1033.66C413.641 1033.66 414.98 1033.2 415.932 1032.25L415.72 1032.04L415.508 1031.83C414.7 1032.64 413.533 1033.06 411.96 1033.06V1033.36ZM415.72 1032.04L415.935 1032.25C416.876 1031.28 417.34 1030.04 417.34 1028.56H417.04H416.74C416.74 1029.91 416.324 1030.99 415.505 1031.83L415.72 1032.04ZM417.04 1028.56H417.34C417.34 1026.63 416.714 1025.19 415.403 1024.35L415.24 1024.6L415.077 1024.85C416.166 1025.55 416.74 1026.76 416.74 1028.56H417.04ZM415.24 1024.6L415.409 1024.35C414.161 1023.5 412.275 1023.1 409.8 1023.1V1023.4V1023.7C412.232 1023.7 413.972 1024.1 415.071 1024.85L415.24 1024.6ZM409.8 1023.4V1023.1H408.76V1023.4V1023.7H409.8V1023.4ZM408.76 1023.4H409.06V1019.64H408.76H408.46V1023.4H408.76ZM408.76 1019.64V1019.94H409.84V1019.64V1019.34H408.76V1019.64ZM409.84 1019.64L409.844 1019.94C412.027 1019.91 413.731 1019.55 414.918 1018.82L414.76 1018.56L414.602 1018.3C413.549 1018.96 411.973 1019.31 409.836 1019.34L409.84 1019.64ZM414.76 1018.56L414.915 1018.82C416.163 1018.06 416.78 1016.86 416.78 1015.28H416.48H416.18C416.18 1016.68 415.65 1017.67 414.605 1018.3L414.76 1018.56ZM416.48 1015.28H416.78C416.78 1013.93 416.34 1012.83 415.441 1012.02L415.24 1012.24L415.039 1012.46C415.793 1013.14 416.18 1014.07 416.18 1015.28H416.48ZM415.24 1012.24L415.445 1012.02C414.546 1011.18 413.289 1010.78 411.72 1010.78V1011.08V1011.38C413.191 1011.38 414.281 1011.75 415.035 1012.46L415.24 1012.24ZM411.72 1011.08V1010.78C410.176 1010.78 408.933 1011.18 408.035 1012.02L408.24 1012.24L408.445 1012.46C409.2 1011.75 410.278 1011.38 411.72 1011.38V1011.08ZM408.24 1012.24L408.039 1012.02C407.159 1012.81 406.633 1013.81 406.463 1015L406.76 1015.04L407.057 1015.08C407.207 1014.03 407.667 1013.16 408.441 1012.46L408.24 1012.24ZM406.76 1015.04V1014.74H402.32V1015.04V1015.34H406.76V1015.04ZM444.95 1011.76V1012.06H445.25V1011.76H444.95ZM431.55 1011.76V1011.46H431.25V1011.76H431.55ZM431.55 1019.72H431.25V1020.62L431.79 1019.9L431.55 1019.72ZM434.03 1017.84L433.906 1017.57L433.904 1017.57L434.03 1017.84ZM443.03 1018.52L442.859 1018.77L442.861 1018.77L443.03 1018.52ZM446.03 1022.16L445.751 1022.27L445.753 1022.28L446.03 1022.16ZM445.79 1032.08L445.522 1031.95L445.521 1031.95L445.79 1032.08ZM442.39 1035.68L442.24 1035.42L442.238 1035.42L442.39 1035.68ZM429.87 1034.84L430.06 1034.61L429.87 1034.84ZM426.71 1029.12V1028.82H426.363L426.413 1029.16L426.71 1029.12ZM431.15 1029.12L431.442 1029.05L431.388 1028.82H431.15V1029.12ZM433.11 1032.12L432.932 1032.36L432.936 1032.36L433.11 1032.12ZM441.15 1031.48L440.92 1031.29L440.917 1031.29L441.15 1031.48ZM441.15 1022.52L440.93 1022.72L440.932 1022.73L441.15 1022.52ZM433.59 1021.96L433.766 1022.2L433.768 1022.2L433.59 1021.96ZM431.67 1024.6V1024.9H431.881L431.953 1024.7L431.67 1024.6ZM427.35 1024.6H427.05V1024.9H427.35V1024.6ZM427.35 1007.76V1007.46H427.05V1007.76H427.35ZM444.95 1007.76H445.25V1007.46H444.95V1007.76ZM444.95 1011.76V1011.46H431.55V1011.76V1012.06H444.95V1011.76ZM431.55 1011.76H431.25V1019.72H431.55H431.85V1011.76H431.55ZM431.55 1019.72L431.79 1019.9C432.313 1019.2 433.095 1018.6 434.156 1018.11L434.03 1017.84L433.904 1017.57C432.778 1018.09 431.907 1018.74 431.31 1019.54L431.55 1019.72ZM434.03 1017.84L434.154 1018.11C435.234 1017.62 436.378 1017.38 437.59 1017.38V1017.08V1016.78C436.295 1016.78 435.066 1017.04 433.906 1017.57L434.03 1017.84ZM437.59 1017.08V1017.38C439.789 1017.38 441.537 1017.85 442.859 1018.77L443.03 1018.52L443.201 1018.27C441.75 1017.27 439.871 1016.78 437.59 1016.78V1017.08ZM443.03 1018.52L442.861 1018.77C444.23 1019.7 445.189 1020.86 445.751 1022.27L446.03 1022.16L446.309 1022.05C445.698 1020.52 444.657 1019.26 443.199 1018.27L443.03 1018.52ZM446.03 1022.16L445.753 1022.28C446.351 1023.7 446.65 1025.21 446.65 1026.8H446.95H447.25C447.25 1025.13 446.936 1023.55 446.307 1022.04L446.03 1022.16ZM446.95 1026.8H446.65C446.65 1028.73 446.271 1030.45 445.522 1031.95L445.79 1032.08L446.058 1032.21C446.855 1030.62 447.25 1028.81 447.25 1026.8H446.95ZM445.79 1032.08L445.521 1031.95C444.801 1033.41 443.71 1034.57 442.24 1035.42L442.39 1035.68L442.54 1035.94C444.11 1035.03 445.285 1033.79 446.059 1032.21L445.79 1032.08ZM442.39 1035.68L442.238 1035.42C440.801 1036.27 439.017 1036.7 436.87 1036.7V1037V1037.3C439.096 1037.3 440.992 1036.85 442.542 1035.94L442.39 1035.68ZM436.87 1037V1036.7C434.013 1036.7 431.753 1035.99 430.06 1034.61L429.87 1034.84L429.68 1035.07C431.507 1036.57 433.914 1037.3 436.87 1037.3V1037ZM429.87 1034.84L430.06 1034.61C428.361 1033.22 427.343 1031.38 427.007 1029.08L426.71 1029.12L426.413 1029.16C426.77 1031.61 427.859 1033.58 429.68 1035.07L429.87 1034.84ZM426.71 1029.12V1029.42H431.15V1029.12V1028.82H426.71V1029.12ZM431.15 1029.12L430.858 1029.19C431.167 1030.51 431.86 1031.57 432.932 1032.36L433.11 1032.12L433.288 1031.88C432.333 1031.18 431.72 1030.24 431.442 1029.05L431.15 1029.12ZM433.11 1032.12L432.936 1032.36C434.011 1033.13 435.342 1033.5 436.91 1033.5V1033.2V1032.9C435.438 1032.9 434.236 1032.55 433.284 1031.88L433.11 1032.12ZM436.91 1033.2V1033.5C438.866 1033.5 440.377 1032.9 441.383 1031.67L441.15 1031.48L440.917 1031.29C440.056 1032.35 438.741 1032.9 436.91 1032.9V1033.2ZM441.15 1031.48L441.38 1031.67C442.396 1030.46 442.89 1028.86 442.89 1026.92H442.59H442.29C442.29 1028.76 441.824 1030.21 440.92 1031.29L441.15 1031.48ZM442.59 1026.92H442.89C442.89 1024.95 442.398 1023.4 441.368 1022.31L441.15 1022.52L440.932 1022.73C441.822 1023.67 442.29 1025.05 442.29 1026.92H442.59ZM441.15 1022.52L441.37 1022.32C440.337 1021.2 438.832 1020.66 436.91 1020.66V1020.96V1021.26C438.721 1021.26 440.043 1021.76 440.93 1022.72L441.15 1022.52ZM436.91 1020.96V1020.66C435.55 1020.66 434.378 1021.01 433.412 1021.72L433.59 1021.96L433.768 1022.2C434.615 1021.58 435.657 1021.26 436.91 1021.26V1020.96ZM433.59 1021.96L433.414 1021.72C432.48 1022.4 431.806 1023.33 431.387 1024.5L431.67 1024.6L431.953 1024.7C432.334 1023.63 432.94 1022.8 433.766 1022.2L433.59 1021.96ZM431.67 1024.6V1024.3H427.35V1024.6V1024.9H431.67V1024.6ZM427.35 1024.6H427.65V1007.76H427.35H427.05V1024.6H427.35ZM427.35 1007.76V1008.06H444.95V1007.76V1007.46H427.35V1007.76ZM444.95 1007.76H444.65V1011.76H444.95H445.25V1007.76H444.95Z" fill="black" mask="url(#path-9-outside-2_1_1180)"/>
<path d="M365.295 197.975V272H344.715V231.155L330.75 272H313.53L299.46 230.84V272H278.88V197.975H303.765L322.35 246.065L340.515 197.975H365.295ZM404.415 272.735C398.535 272.735 393.25 271.51 388.56 269.06C383.94 266.61 380.3 263.11 377.64 258.56C374.98 254.01 373.65 248.655 373.65 242.495C373.65 236.405 374.98 231.085 377.64 226.535C380.37 221.985 384.045 218.485 388.665 216.035C393.355 213.585 398.64 212.36 404.52 212.36C410.4 212.36 415.65 213.585 420.27 216.035C424.96 218.485 428.635 221.985 431.295 226.535C434.025 231.085 435.39 236.405 435.39 242.495C435.39 248.585 434.025 253.94 431.295 258.56C428.635 263.11 424.96 266.61 420.27 269.06C415.58 271.51 410.295 272.735 404.415 272.735ZM404.415 254.885C407.285 254.885 409.665 253.835 411.555 251.735C413.515 249.565 414.495 246.485 414.495 242.495C414.495 238.505 413.515 235.46 411.555 233.36C409.665 231.26 407.32 230.21 404.52 230.21C401.72 230.21 399.375 231.26 397.485 233.36C395.595 235.46 394.65 238.505 394.65 242.495C394.65 246.555 395.56 249.635 397.38 251.735C399.2 253.835 401.545 254.885 404.415 254.885ZM471.168 272.735C465.288 272.735 460.003 271.51 455.313 269.06C450.693 266.61 447.053 263.11 444.393 258.56C441.733 254.01 440.403 248.655 440.403 242.495C440.403 236.405 441.733 231.085 444.393 226.535C447.123 221.985 450.798 218.485 455.418 216.035C460.108 213.585 465.393 212.36 471.273 212.36C477.153 212.36 482.403 213.585 487.023 216.035C491.713 218.485 495.388 221.985 498.048 226.535C500.778 231.085 502.143 236.405 502.143 242.495C502.143 248.585 500.778 253.94 498.048 258.56C495.388 263.11 491.713 266.61 487.023 269.06C482.333 271.51 477.048 272.735 471.168 272.735ZM471.168 254.885C474.038 254.885 476.418 253.835 478.308 251.735C480.268 249.565 481.248 246.485 481.248 242.495C481.248 238.505 480.268 235.46 478.308 233.36C476.418 231.26 474.073 230.21 471.273 230.21C468.473 230.21 466.128 231.26 464.238 233.36C462.348 235.46 461.403 238.505 461.403 242.495C461.403 246.555 462.313 249.635 464.133 251.735C465.953 253.835 468.298 254.885 471.168 254.885ZM549.051 212.57C555.841 212.57 561.231 214.845 565.221 219.395C569.211 223.875 571.206 229.965 571.206 237.665V272H550.626V240.395C550.626 237.035 549.751 234.41 548.001 232.52C546.251 230.56 543.906 229.58 540.966 229.58C537.886 229.58 535.471 230.56 533.721 232.52C531.971 234.41 531.096 237.035 531.096 240.395V272H510.516V213.095H531.096V221.495C532.916 218.835 535.366 216.7 538.446 215.09C541.526 213.41 545.061 212.57 549.051 212.57Z" fill="black"/>
<path d="M416.537 334.227C424.665 333.777 432.915 334.069 441.041 334.473C506.073 337.707 576.672 365.342 625.777 408.251C686.221 461.067 723.445 535.555 729.399 615.603C735.696 699.138 708.17 781.701 653.006 844.746C628.495 872.631 600.914 893.945 568.622 912.108C552.115 921.392 534.932 929.556 516.855 935.304C490.156 943.792 461.663 948.112 433.757 949.916C373.572 951.129 325.625 939.346 273.287 909.219C253.645 897.912 235.299 885.132 218.572 869.796C158.061 814.546 122.265 737.315 119.214 655.431C118.038 628.132 121.793 594.754 128.52 568.385C131.254 557.675 134.932 547.184 138.776 536.828C149.65 507.536 163.167 480.261 181.945 455.15C187.639 447.537 194.067 440.397 200.5 433.405C218.492 413.829 238.922 396.642 261.288 382.266C309.302 351.241 359.538 336.564 416.537 334.227Z" fill="black"/>
<path d="M187.881 814.346C105.91 701.773 114.753 547.017 209.015 444.511C303.277 342.005 456.781 320.216 575.856 392.44C677.053 453.82 731.244 570.153 713.113 687.095C694.982 804.037 608.108 898.509 493.073 926.379C378.038 954.249 257.545 910.017 187.881 814.346Z" fill="#A5A5A5"/>
<path d="M575.854 392.439C677.052 453.82 731.242 570.153 713.111 687.094C694.98 804.037 608.107 898.508 493.072 926.379C378.036 954.249 257.544 910.017 187.88 814.346C191.114 813.642 194.647 815.97 197.299 817.681C200.911 820.013 204.245 822.774 207.811 825.177C213.533 829.034 219.797 832.613 225.81 836.019C260.845 855.862 303.076 869.649 343.642 868.861C340.733 863.152 338.973 859.107 339.853 852.555C352.251 852.513 364.634 853.085 377.028 853.285C382.809 853.38 388.756 853.632 394.517 853.239C397.232 856.54 399.968 860.27 403.178 863.092C413.98 872.589 432.171 874.272 445.889 873.332C462.802 872.172 478.522 865.959 489.758 852.964C498.495 842.857 501.428 832.758 500.451 819.57C504.306 817.195 508.567 815.37 512.52 813.125C537.964 798.677 567.198 776.099 583.674 751.661C586.099 748.066 588.414 744.257 590.178 740.287C591.77 736.706 592.708 731.652 595.15 728.642C597.658 725.552 602.043 723.432 605.29 721.189C607.775 719.473 610.169 717.533 612.411 715.509C630.261 699.396 642.62 674.346 647.283 650.938C648.827 643.186 649.765 634.946 649.376 627.052C648.946 618.299 644.287 599.171 646.484 592.081C647.033 590.309 648.146 588.751 649.827 587.903C652.818 586.393 656.072 587.341 659.011 588.419C659.042 582.033 658.167 566.603 656.262 560.825C655.523 558.583 654.113 556.585 653.433 554.315C652.307 550.559 653.087 546.949 655.003 543.665C654.075 536.95 652.355 530.162 650.624 523.608C640.377 484.817 620.805 447.67 596.252 416.055C592.195 410.865 587.916 405.854 583.424 401.036C581.249 398.719 578.378 396.384 576.51 393.876C576.177 393.429 576.026 392.96 575.854 392.439Z" fill="#757575"/>
<path d="M612.845 803.078C613.754 803.959 614.551 804.996 615.369 805.964C614.367 809.593 613.09 812.842 611.276 816.148C603.782 829.811 589.052 843.252 573.916 847.664C573.02 846.455 572.466 844.956 571.833 843.591C580.78 835.8 589.963 828.583 598.3 820.056C603.564 814.671 608.05 808.856 612.845 803.078Z" fill="black"/>
<path d="M538.621 872.741C539.272 872.821 539.484 872.98 540.026 873.324C540.503 874.215 541.129 875.254 541.15 876.286C541.182 877.837 539.89 879.342 538.84 880.354C536.05 883.047 532.316 885.161 528.969 887.064C518.344 893.107 509.284 895.981 497.065 895.667C496.192 895.443 495.579 895.298 494.809 894.803C494.14 894.375 494.351 894.583 494.16 893.758C497.576 889.059 517.097 883.925 523.211 881.104C528.529 878.651 533.351 875.284 538.621 872.741Z" fill="black"/>
<path d="M659.666 745.152C660.849 745.317 661.726 745.349 662.63 746.22C663.855 748.559 663.451 751.078 662.907 753.561C660.732 763.511 656.289 773.808 647.483 779.497C647.19 779.538 646.922 779.585 646.621 779.581C645.565 779.566 645.353 779.541 644.619 778.856C644.447 778.158 644.373 777.575 644.432 776.851C645.205 767.332 652.688 751.484 659.666 745.152Z" fill="black"/>
<path d="M685.386 656.153C686.324 656.774 686.899 657.738 687.383 658.736C689.469 663.038 688.102 669.238 686.595 673.57C685.346 677.159 683.746 681.109 680.186 682.856C678.943 682.713 678.54 682.783 677.553 681.968C676.612 679.995 676.801 678.077 677.185 675.962C677.949 671.755 681.202 661.46 683.561 657.795C684.003 657.108 684.724 656.61 685.386 656.153Z" fill="black"/>
<path d="M657.174 543.591C658.853 543.497 660.337 543.392 661.894 544.122C663.478 544.864 664.527 546.272 665.026 547.927C666.285 552.097 664.762 558.37 662.747 562.097C662.235 562.247 661.583 562.499 661.054 562.518C660.071 562.553 659.615 562.261 658.968 561.536C656.351 558.605 655.153 549.733 655.541 545.818C655.665 544.563 656.21 544.316 657.174 543.591Z" fill="black"/>
<path d="M342.504 894.442C347.685 894.872 353.893 896.024 358.832 897.653C360.804 898.304 363.03 898.996 364.011 900.965C363.763 902.006 363.515 902.006 362.633 902.644C362.488 902.689 362.344 902.739 362.198 902.78C357.03 904.196 348.496 903.655 343.808 900.926C342.557 900.199 341.487 899.151 341.269 897.656C341.097 896.47 341.912 895.399 342.504 894.442Z" fill="black"/>
<path d="M394.517 853.237C391.771 849.298 389.626 844.961 388.535 840.27C386.333 830.819 388.372 819.939 393.578 811.793C402.136 798.401 416.51 788.857 431.959 785.541C448.602 781.969 468.604 784.471 483.037 793.85C492.677 800.114 498.115 808.402 500.451 819.568C501.429 832.756 498.495 842.856 489.758 852.962C478.523 865.957 462.802 872.171 445.889 873.33C432.171 874.271 413.98 872.587 403.178 863.091C399.968 860.268 397.232 856.538 394.517 853.237Z" fill="black"/>
<path d="M418.143 852.516C417.432 852.222 416.792 851.904 416.136 851.495C410.469 847.963 405.93 842.002 404.436 835.445C403.097 829.566 404.275 823.602 407.416 818.508C412.85 809.693 423.374 804.802 433.092 802.46C445.889 799.375 462.008 799.398 473.52 806.629C478.995 810.069 481.929 814.578 483.381 820.828C484.134 829.105 481.796 836.732 476.461 843.148C469.458 851.57 457.477 856.055 446.807 856.984C437.328 857.81 426.85 856.427 418.143 852.516Z" fill="#A5A5A5"/>
<path d="M418.143 852.516C417.431 852.222 416.792 851.904 416.136 851.495C410.469 847.963 405.93 842.002 404.436 835.445C403.097 829.566 404.275 823.602 407.416 818.508C412.85 809.693 423.374 804.802 433.091 802.46C445.889 799.375 462.008 799.398 473.52 806.629C478.995 810.069 481.928 814.578 483.381 820.828L482.861 820.758C477.714 820.026 472.766 818.31 467.65 817.408C454.907 815.162 440.349 816.544 429.677 824.381C423.418 828.976 418.221 835.867 417.156 843.738C416.754 846.712 417.777 849.585 418.143 852.516Z" fill="#757575"/>
<path d="M477.342 405.683C495.164 404.582 516.653 411.885 530.418 423.246C542.254 433.015 550.412 450.793 551.839 465.91C553.297 481.366 549.121 496.099 539.204 508.094C526.393 523.59 509.585 531.601 489.716 533.524C489.577 533.538 489.438 533.555 489.299 533.568C469.418 535.399 456.488 531.163 441.304 518.416C427.239 506.608 416.48 494.353 414.922 475.336C413.55 458.582 418.561 439.926 429.647 427.057C441.627 413.149 459.477 406.935 477.342 405.683Z" fill="black"/>
<path d="M446.363 500.826C442.755 497.799 439.714 493.961 437.25 489.964C431.413 480.565 429.646 469.197 432.357 458.47C435.312 446.773 442.821 436.742 453.212 430.61C465.214 423.515 480.473 421.292 493.952 424.867C509.959 429.114 519.91 437.531 528.031 451.544C533.799 461.77 537.565 474.182 534.336 485.85C531.594 495.762 524.464 503.713 515.582 508.666C502.331 516.056 486.722 519.119 472.04 514.811C462.706 512.073 453.538 507.466 446.363 500.826Z" fill="#A5A5A5"/>
<path d="M446.363 500.826C442.755 497.799 439.714 493.961 437.25 489.964C431.413 480.565 429.646 469.197 432.357 458.47C435.312 446.773 442.821 436.742 453.212 430.61C465.214 423.515 480.473 421.292 493.952 424.867C509.959 429.114 519.91 437.531 528.031 451.544C527.913 451.508 527.795 451.476 527.678 451.437C523.292 449.987 519.47 446.142 515.321 443.983C502.007 437.058 483.218 436.497 469.647 442.954C458.826 448.191 450.535 457.523 446.611 468.885C443.886 476.704 443.796 484.523 445.016 492.651C445.422 495.36 446.23 498.093 446.363 500.826Z" fill="#757575"/>
<path d="M579.726 592.285C592.912 592.515 604.635 596.051 614.644 604.979C625.507 614.67 631.185 630.934 631.983 645.178C632.88 661.188 626.272 679.441 615.518 691.32C605.953 701.887 592.096 710.68 577.605 711.46C564.526 711.582 551.018 707.382 541.084 698.647C530.445 689.291 525.297 676.05 524.533 662.13C523.521 643.697 529.395 621.993 541.971 608.114C552.125 596.91 564.965 592.934 579.726 592.285Z" fill="black"/>
<path d="M552.606 686.085C548.903 682.072 546.283 677.772 544.531 672.585C539.935 658.971 541.736 642.613 548.15 629.868C552.861 620.507 560.586 612.485 570.746 609.237C578.076 606.893 585.541 607.079 592.431 610.655C602.602 615.934 608.884 626.325 612.169 636.964C615.85 649.392 615.204 663.162 608.939 674.642C603.744 684.162 595.966 691.362 585.42 694.397C577.037 696.811 567.575 696.037 559.891 691.797C557.16 690.314 554.698 688.383 552.606 686.085Z" fill="#A5A5A5"/>
<path d="M552.606 686.085C548.903 682.072 546.283 677.772 544.531 672.585C539.935 658.971 541.736 642.613 548.15 629.868C552.861 620.507 560.586 612.485 570.746 609.237C578.076 606.893 585.541 607.079 592.431 610.655C602.602 615.934 608.884 626.325 612.169 636.964C611.944 636.922 611.718 636.882 611.494 636.836C608.562 636.235 605.755 634.958 602.753 634.347C592.789 632.32 581.261 633.788 572.61 639.28C562.713 645.563 555.674 657.031 553.222 668.39C551.948 674.296 552.196 680.105 552.606 686.085Z" fill="#757575"/>
<path d="M200.148 664.168C200.184 664.164 200.221 664.159 200.258 664.157C210.731 663.505 219.876 666.604 227.886 673.423C246.376 689.161 258.913 718.923 260.646 742.945C261.478 754.482 260.424 767.154 252.459 776.224C247.772 781.56 241.581 784.512 234.535 785.02C224.111 784.853 214.642 782.149 206.278 775.809C188.434 762.285 177.155 739.226 174.205 717.36C172.372 703.769 173.103 685.364 181.903 674.052C186.61 668.001 192.679 665.139 200.148 664.168Z" fill="black"/>
<path d="M206.971 753.511C198.249 745.105 192.875 729.871 190.719 718.242C189.075 709.376 188.149 695.904 193.771 688.154C195.91 685.205 199.206 683.12 202.851 682.677C207.406 682.123 211.108 684.412 214.526 687.101C231.125 700.783 243.992 725.301 246.111 746.596C246.702 752.539 245.898 759.462 241.93 764.176C239.502 767.06 235.942 769.044 232.157 769.313C224.776 769.84 217.502 764.063 212.386 759.377C210.575 757.718 208.224 755.621 206.971 753.511Z" fill="#A5A5A5"/>
<path d="M206.971 753.511C198.249 745.105 192.875 729.871 190.719 718.242C189.075 709.376 188.149 695.904 193.771 688.154C195.91 685.205 199.206 683.12 202.851 682.677C207.406 682.123 211.108 684.412 214.526 687.101C212.392 689.765 210.221 692.05 208.464 695.01C202.153 705.644 200.773 720.188 202.096 732.252C202.379 734.831 202.768 737.489 203.418 740.006C204.448 743.999 207.48 749.464 206.971 753.511Z" fill="#757575"/>
<path d="M265.76 449.214C274.021 449.421 281.9 451.417 288.328 456.852C294.398 461.984 297.795 469.478 298.386 477.344C299.476 491.86 291.448 507.544 282.192 518.232C272.609 529.299 260.824 536.711 246.014 537.833C238.299 538.452 229.714 536.378 223.742 531.303C217.412 525.925 214.322 517.778 213.766 509.647C212.722 494.396 220.397 479.505 230.262 468.349C239.814 457.545 251.153 450.169 265.76 449.214Z" fill="black"/>
<path d="M238.221 522.078C235.632 521.336 233.486 520.385 231.573 518.434C228.848 515.653 227.757 511.782 227.792 507.961C227.899 496.223 236.532 483.256 244.75 475.471C250.707 469.828 258.673 464.873 267.183 465.257C271.362 465.446 275.46 467.09 278.222 470.304C281.571 474.201 282.019 479.097 281.646 483.998C279.28 496.995 271.311 508.186 260.474 515.679C254.423 519.864 246.365 523.575 238.827 522.199C238.624 522.162 238.423 522.118 238.221 522.078Z" fill="#757575"/>
<path d="M238.221 522.076C238.207 521.455 238.201 520.834 238.204 520.212C238.216 509.651 243.177 501.545 250.538 494.309C256.106 488.836 263.659 484.029 271.688 483.556C274.951 483.364 278.352 483.955 281.647 483.996C279.281 496.994 271.312 508.184 260.475 515.678C254.424 519.862 246.366 523.573 238.828 522.197C238.625 522.16 238.424 522.117 238.221 522.076Z" fill="#A5A5A5"/>
<path d="M292.344 594.738C307.614 592.866 321.511 603.726 323.379 618.994C325.248 634.262 314.38 648.152 299.108 650.016C283.843 651.878 269.958 641.019 268.09 625.757C266.222 610.497 277.08 596.61 292.344 594.738Z" fill="black"/>
<path d="M290.559 636.472C288.771 635.826 287.113 635.002 285.687 633.726C283.242 631.538 281.997 628.592 281.933 625.329C281.85 621.043 283.855 616.75 286.925 613.813C289.548 611.303 293.076 609.693 296.749 609.884C300.37 610.073 303.043 611.821 305.455 614.396C307.869 618.022 309.215 621.88 308.305 626.282C307.557 629.949 305.332 633.148 302.154 635.126C298.65 637.268 294.464 637.496 290.559 636.472Z" fill="#A5A5A5"/>
<path d="M290.559 636.472C288.771 635.826 287.113 635.002 285.687 633.726C283.242 631.538 281.997 628.592 281.933 625.329C281.85 621.043 283.855 616.75 286.925 613.813C289.548 611.303 293.076 609.693 296.749 609.884C300.37 610.073 303.043 611.821 305.455 614.396C300.012 615.686 295.281 617.611 292.211 622.613C289.166 627.571 289.971 631.148 290.559 636.472Z" fill="#757575"/>
<path d="M403.917 508.992C404.282 508.967 404.647 508.938 405.012 508.931C408.913 508.856 411.978 513.663 414.248 516.326C421.076 524.338 428.798 530.451 437.477 536.344C441.132 538.825 446.045 541.368 449.064 544.543C449.766 545.281 450.124 545.874 449.927 546.941C449.574 548.848 447.577 550.573 446.004 551.498C442.22 552.412 438.848 551.938 435.223 550.689C422.716 546.381 407.378 533.676 401.548 521.701C400.212 518.956 398.765 515.39 399.936 512.363C400.678 510.441 402.124 509.773 403.917 508.992Z" fill="#757575"/>
<path d="M156.506 603.033C157.766 602.978 159.189 602.922 160.418 603.257C163.03 603.97 165.157 606.244 166.442 608.537C170.131 615.126 171.392 633.604 169.079 640.807C168.06 643.979 166.777 645.342 163.883 646.882C163.125 646.941 162.334 647.002 161.593 646.794C158.601 645.951 156.454 642.948 155.121 640.328C150.664 631.573 149.374 617.099 152.615 607.788C153.461 605.36 154.173 604.154 156.506 603.033Z" fill="#757575"/>
<path d="M441.984 732.132C444.197 731.96 445.859 731.93 447.919 732.859C449.034 733.363 449.936 734.036 450.265 735.29C450.957 737.928 448.981 741.671 447.504 743.731C442.131 751.225 429.657 756.564 420.781 757.871C419.176 757.837 417.741 757.833 416.242 757.179C414.602 756.462 413.325 755.444 412.716 753.71C412.04 751.788 412.3 749.805 413.271 748.035C417.376 740.552 433.903 734.411 441.984 732.132Z" fill="#757575"/>
<path d="M252.678 810.162C253.282 810.145 253.885 810.132 254.489 810.171C260.868 810.576 272.353 819.905 276.327 824.715C278.021 826.767 279.572 829.234 279.242 832.014C278.964 834.359 277.166 835.697 275.394 837.001C274.925 837.021 274.483 837.035 274.015 836.986C265.39 836.081 257.837 831.646 252.501 824.877C250.409 822.225 248.356 818.904 248.879 815.385C249.253 812.866 250.746 811.639 252.678 810.162Z" fill="#757575"/>
<path d="M325.062 397.818C326.46 397.708 327.601 397.628 328.898 398.237C330.426 398.954 331.549 399.665 332.06 401.386C332.864 404.089 331.101 407.717 329.788 409.992C326.354 415.942 321.761 420.894 314.984 422.719C313.611 422.746 312.165 422.769 310.832 422.389C309.482 422.004 308.202 421.146 307.639 419.816C306.806 417.851 307.679 415.553 308.517 413.755C311.705 406.917 317.951 400.433 325.062 397.818Z" fill="#757575"/>
<path d="M337.776 751.144C340.247 751.09 342.842 751.498 345.096 752.519C349.238 754.396 352.608 757.91 354.103 762.232C354.77 764.16 355.069 766.271 354.058 768.135C352.935 770.206 351.485 771.051 349.284 771.696C347.128 771.802 345.085 771.79 343.036 771.018C338.758 769.407 335.315 765.997 333.445 761.851C332.515 759.791 331.89 757.371 332.818 755.195C333.757 752.997 335.628 751.929 337.776 751.144Z" fill="#757575"/>
<path d="M571.156 541.634C572.564 541.545 573.978 541.448 575.388 541.434C579.07 541.398 582.373 542.351 584.971 545.076C586.83 547.025 588.029 549.637 587.922 552.36C587.825 554.828 586.633 556.518 584.856 558.122C584.412 558.304 583.962 558.471 583.506 558.621C580.809 559.49 577.569 559.082 575.088 557.753C572.454 556.342 570.275 553.789 569.415 550.915C568.32 547.253 569.543 544.828 571.156 541.634Z" fill="#757575"/>
<path d="M544.257 751.46C544.726 751.431 544.894 751.385 545.398 751.562C546.542 751.965 548.273 753.265 548.819 754.393C549.912 756.65 548.917 759.53 547.971 761.661C545.629 766.933 541.744 771.584 536.268 773.679C535.423 773.762 534.797 773.733 533.966 773.56C531.645 771.793 531.353 768.471 530.697 765.796C531.118 764.468 531.633 763.17 532.239 761.914C534.736 756.796 538.961 753.386 544.257 751.46Z" fill="#757575"/>
<path d="M198.228 578.57L199.275 578.691C200.603 579.596 201.759 580.537 202.302 582.106C203.343 585.11 202.485 589.058 201.045 591.794C199.193 595.311 196.614 597.212 192.862 598.326C191.809 598.11 190.758 597.781 189.861 597.168C188.759 596.414 188.146 595.092 187.945 593.805C187.393 590.286 189.351 585.864 191.336 583.056C193.32 580.25 194.871 579.174 198.228 578.57Z" fill="#757575"/>
<path d="M499.259 667.877C500.124 667.788 501.008 667.674 501.837 668.019C503.487 668.706 504.702 670.337 505.299 671.973C506.445 675.109 506.275 679.007 504.851 682.024C503.799 684.252 502.294 685.089 500.054 685.901C499.487 685.885 498.923 685.875 498.36 685.797C496.622 685.556 495.017 684.861 493.975 683.398C492.758 681.69 492.694 679.46 493.078 677.467C493.866 673.383 495.87 670.227 499.259 667.877Z" fill="#757575"/>
<path d="M469.405 626.675C469.932 626.9 470.052 626.926 470.574 627.289C472.234 628.445 473.323 630.998 473.602 632.928C474.073 636.188 473.034 639.778 471.026 642.364C469.332 644.544 467.898 645.003 465.226 645.396C464.775 645.273 464.609 645.236 464.137 645.061C462.878 644.592 462.1 643.971 461.563 642.745C460.346 639.966 461.256 636.651 462.429 634.02C463.97 630.561 465.862 628.091 469.405 626.675Z" fill="#757575"/>
<path d="M595.866 498.259C596.351 498.358 596.735 498.548 597.184 498.75C599.186 501.498 600.865 504.838 601.412 508.21C601.722 510.119 601.574 512.388 600.314 513.957C599.099 515.472 597.747 515.588 595.932 515.774C593.744 515.39 591.843 515.119 590.507 513.172C589.289 511.396 589.184 509.244 589.591 507.19C590.381 503.217 592.572 500.463 595.866 498.259Z" fill="#757575"/>
</svg>
