<svg width="849" height="1183" viewBox="0 0 849 1183" fill="none" xmlns="http://www.w3.org/2000/svg">
<rect x="5" y="5" width="839" height="1173" rx="45" fill="white"/>
<rect x="5" y="5" width="839" height="1173" rx="45" stroke="black" stroke-width="10"/>
<circle cx="786.5" cy="1124.5" r="11.5" fill="black"/>
<circle cx="786.5" cy="59.5" r="11.5" fill="black"/>
<path d="M77 1124.5C77 1130.85 71.8513 1136 65.5 1136C59.1487 1136 54 1130.85 54 1124.5C54 1118.15 59.1487 1113 65.5 1113C71.8513 1113 77 1118.15 77 1124.5Z" fill="black"/>
<path d="M77 59.5C77 65.8513 71.8513 71 65.5 71C59.1487 71 54 65.8513 54 59.5C54 53.1487 59.1487 48 65.5 48C71.8513 48 77 53.1487 77 59.5Z" fill="black"/>
<mask id="path-6-inside-1_1_2252" fill="white">
<path d="M708 48C713.523 48 717.934 52.4996 718.616 57.9801C723.122 94.1833 751.817 122.878 788.02 127.384C793.5 128.066 798 132.477 798 138V1046C798 1051.52 793.5 1055.93 788.02 1056.62C751.817 1061.12 723.122 1089.82 718.616 1126.02C717.934 1131.5 713.523 1136 708 1136H141C135.477 1136 131.066 1131.5 130.384 1126.02C125.878 1089.82 97.1833 1061.12 60.9801 1056.62C55.4996 1055.93 51 1051.52 51 1046V138C51 132.477 55.4996 128.066 60.9801 127.384C97.1833 122.878 125.878 94.1833 130.384 57.9801C131.066 52.4996 135.477 48 141 48H708Z"/>
</mask>
<path d="M708 48C713.523 48 717.934 52.4996 718.616 57.9801C723.122 94.1833 751.817 122.878 788.02 127.384C793.5 128.066 798 132.477 798 138V1046C798 1051.52 793.5 1055.93 788.02 1056.62C751.817 1061.12 723.122 1089.82 718.616 1126.02C717.934 1131.5 713.523 1136 708 1136H141C135.477 1136 131.066 1131.5 130.384 1126.02C125.878 1089.82 97.1833 1061.12 60.9801 1056.62C55.4996 1055.93 51 1051.52 51 1046V138C51 132.477 55.4996 128.066 60.9801 127.384C97.1833 122.878 125.878 94.1833 130.384 57.9801C131.066 52.4996 135.477 48 141 48H708Z" fill="#0089CB"/>
<path d="M130.384 1126.02L138.322 1125.03L130.384 1126.02ZM718.616 1126.02L710.678 1125.03L718.616 1126.02ZM788.02 1056.62L789.008 1064.56L788.02 1056.62ZM718.616 57.9801L726.555 56.9922L718.616 57.9801ZM718.616 57.9801L710.678 58.9681C715.635 98.8063 747.194 130.365 787.032 135.322L788.02 127.384L789.008 119.445C756.44 115.392 730.608 89.5603 726.555 56.9922L718.616 57.9801ZM798 138H790V1046H798H806V138H798ZM788.02 1056.62L787.032 1048.68C747.194 1053.64 715.635 1085.19 710.678 1125.03L718.616 1126.02L726.555 1127.01C730.608 1094.44 756.44 1068.61 789.008 1064.56L788.02 1056.62ZM708 1136V1128H141V1136V1144H708V1136ZM130.384 1126.02L138.322 1125.03C133.365 1085.19 101.806 1053.64 61.9681 1048.68L60.9801 1056.62L59.9922 1064.56C92.5603 1068.61 118.392 1094.44 122.445 1127.01L130.384 1126.02ZM51 1046H59V138H51H43V1046H51ZM60.9801 127.384L61.9681 135.322C101.806 130.365 133.365 98.8063 138.322 58.9681L130.384 57.9801L122.445 56.9922C118.392 89.5603 92.5603 115.392 59.9922 119.445L60.9801 127.384ZM141 48V56H708V48V40H141V48ZM130.384 57.9801L138.322 58.9681C138.438 58.0389 138.872 57.2306 139.427 56.6958C139.954 56.1887 140.494 56 141 56V48V40C130.84 40 123.547 48.1329 122.445 56.9922L130.384 57.9801ZM51 138H59C59 137.494 59.1887 136.954 59.6958 136.427C60.2306 135.872 61.0389 135.438 61.9681 135.322L60.9801 127.384L59.9922 119.445C51.1329 120.547 43 127.84 43 138H51ZM60.9801 1056.62L61.9681 1048.68C61.0389 1048.56 60.2306 1048.13 59.6958 1047.57C59.1887 1047.05 59 1046.51 59 1046H51H43C43 1056.16 51.1329 1063.45 59.9922 1064.56L60.9801 1056.62ZM141 1136V1128C140.494 1128 139.954 1127.81 139.427 1127.3C138.872 1126.77 138.438 1125.96 138.322 1125.03L130.384 1126.02L122.445 1127.01C123.547 1135.87 130.84 1144 141 1144V1136ZM718.616 1126.02L710.678 1125.03C710.562 1125.96 710.128 1126.77 709.573 1127.3C709.046 1127.81 708.506 1128 708 1128V1136V1144C718.16 1144 725.453 1135.87 726.555 1127.01L718.616 1126.02ZM798 1046H790C790 1046.51 789.811 1047.05 789.304 1047.57C788.769 1048.13 787.961 1048.56 787.032 1048.68L788.02 1056.62L789.008 1064.56C797.867 1063.45 806 1056.16 806 1046H798ZM788.02 127.384L787.032 135.322C787.961 135.438 788.769 135.872 789.304 136.427C789.811 136.954 790 137.494 790 138H798H806C806 127.84 797.867 120.547 789.008 119.445L788.02 127.384ZM718.616 57.9801L726.555 56.9922C725.453 48.1329 718.16 40 708 40V48V56C708.506 56 709.046 56.1887 709.573 56.6958C710.128 57.2306 710.562 58.0389 710.678 58.9681L718.616 57.9801Z" fill="black" mask="url(#path-6-inside-1_1_2252)"/>
<path d="M690 102C695.523 102 699.911 106.512 700.837 111.957C705.019 136.563 724.437 155.981 749.043 160.163C754.488 161.089 759 165.477 759 171V1014C759 1019.52 754.488 1023.91 749.043 1024.84C724.711 1028.97 705.454 1048 700.984 1072.22C699.993 1077.59 695.633 1082 690.175 1082H158.825C153.367 1082 149.007 1077.59 148.016 1072.22C143.546 1048 124.288 1028.97 99.9568 1024.84C94.5121 1023.91 90 1019.52 90 1014V171C90 165.477 94.512 161.089 99.9568 160.163C124.563 155.981 143.981 136.563 148.163 111.957C149.089 106.512 153.477 102 159 102H690Z" fill="#4BADDC"/>
<mask id="path-9-outside-2_1_2252" maskUnits="userSpaceOnUse" x="401" y="1006" width="47" height="32" fill="black">
<rect fill="white" x="401" y="1006" width="47" height="32"/>
<path d="M404.92 1030.8C407.48 1028.59 409.493 1026.77 410.96 1025.36C412.453 1023.92 413.693 1022.43 414.68 1020.88C415.667 1019.33 416.16 1017.79 416.16 1016.24C416.16 1014.64 415.773 1013.39 415 1012.48C414.253 1011.57 413.067 1011.12 411.44 1011.12C409.867 1011.12 408.64 1011.63 407.76 1012.64C406.907 1013.63 406.453 1014.96 406.4 1016.64H402C402.08 1013.6 402.987 1011.28 404.72 1009.68C406.48 1008.05 408.707 1007.24 411.4 1007.24C414.307 1007.24 416.573 1008.04 418.2 1009.64C419.853 1011.24 420.68 1013.37 420.68 1016.04C420.68 1017.96 420.187 1019.81 419.2 1021.6C418.24 1023.36 417.08 1024.95 415.72 1026.36C414.387 1027.75 412.68 1029.36 410.6 1031.2L408.8 1032.8H421.48V1036.6H402.04V1033.28L404.92 1030.8ZM424.926 1030.92V1027.48L438.366 1008.2H443.886V1026.96H447.606V1030.92H443.886V1037H439.406V1030.92H424.926ZM439.606 1012.84L430.166 1026.96H439.606V1012.84Z"/>
</mask>
<path d="M404.92 1030.8C407.48 1028.59 409.493 1026.77 410.96 1025.36C412.453 1023.92 413.693 1022.43 414.68 1020.88C415.667 1019.33 416.16 1017.79 416.16 1016.24C416.16 1014.64 415.773 1013.39 415 1012.48C414.253 1011.57 413.067 1011.12 411.44 1011.12C409.867 1011.12 408.64 1011.63 407.76 1012.64C406.907 1013.63 406.453 1014.96 406.4 1016.64H402C402.08 1013.6 402.987 1011.28 404.72 1009.68C406.48 1008.05 408.707 1007.24 411.4 1007.24C414.307 1007.24 416.573 1008.04 418.2 1009.64C419.853 1011.24 420.68 1013.37 420.68 1016.04C420.68 1017.96 420.187 1019.81 419.2 1021.6C418.24 1023.36 417.08 1024.95 415.72 1026.36C414.387 1027.75 412.68 1029.36 410.6 1031.2L408.8 1032.8H421.48V1036.6H402.04V1033.28L404.92 1030.8ZM424.926 1030.92V1027.48L438.366 1008.2H443.886V1026.96H447.606V1030.92H443.886V1037H439.406V1030.92H424.926ZM439.606 1012.84L430.166 1026.96H439.606V1012.84Z" fill="black"/>
<path d="M404.92 1030.8L405.116 1031.03L405.116 1031.03L404.92 1030.8ZM410.96 1025.36L411.168 1025.58L411.168 1025.58L410.96 1025.36ZM415 1012.48L414.768 1012.67L414.772 1012.67L415 1012.48ZM407.76 1012.64L407.533 1012.44L407.533 1012.44L407.76 1012.64ZM406.4 1016.64V1016.94H406.691L406.7 1016.65L406.4 1016.64ZM402 1016.64L401.7 1016.63L401.692 1016.94H402V1016.64ZM404.72 1009.68L404.923 1009.9L404.924 1009.9L404.72 1009.68ZM418.2 1009.64L417.99 1009.85L417.991 1009.86L418.2 1009.64ZM419.2 1021.6L418.937 1021.45L418.937 1021.46L419.2 1021.6ZM415.72 1026.36L415.504 1026.15L415.504 1026.15L415.72 1026.36ZM410.6 1031.2L410.401 1030.98L410.401 1030.98L410.6 1031.2ZM408.8 1032.8L408.601 1032.58L408.011 1033.1H408.8V1032.8ZM421.48 1032.8H421.78V1032.5H421.48V1032.8ZM421.48 1036.6V1036.9H421.78V1036.6H421.48ZM402.04 1036.6H401.74V1036.9H402.04V1036.6ZM402.04 1033.28L401.844 1033.05L401.74 1033.14V1033.28H402.04ZM404.92 1030.8L405.116 1031.03C407.678 1028.81 409.696 1026.99 411.168 1025.58L410.96 1025.36L410.752 1025.14C409.291 1026.55 407.282 1028.36 404.724 1030.57L404.92 1030.8ZM410.96 1025.36L411.168 1025.58C412.676 1024.12 413.932 1022.61 414.933 1021.04L414.68 1020.88L414.427 1020.72C413.455 1022.24 412.23 1023.72 410.752 1025.14L410.96 1025.36ZM414.68 1020.88L414.933 1021.04C415.945 1019.46 416.46 1017.85 416.46 1016.24H416.16H415.86C415.86 1017.72 415.389 1019.21 414.427 1020.72L414.68 1020.88ZM416.16 1016.24H416.46C416.46 1014.59 416.062 1013.26 415.228 1012.29L415 1012.48L414.772 1012.67C415.485 1013.51 415.86 1014.69 415.86 1016.24H416.16ZM415 1012.48L415.232 1012.29C414.408 1011.29 413.12 1010.82 411.44 1010.82V1011.12V1011.42C413.013 1011.42 414.098 1011.86 414.768 1012.67L415 1012.48ZM411.44 1011.12V1010.82C409.796 1010.82 408.48 1011.35 407.533 1012.44L407.76 1012.64L407.987 1012.84C408.8 1011.9 409.937 1011.42 411.44 1011.42V1011.12ZM407.76 1012.64L407.533 1012.44C406.623 1013.5 406.155 1014.9 406.1 1016.63L406.4 1016.64L406.7 1016.65C406.752 1015.02 407.19 1013.76 407.987 1012.84L407.76 1012.64ZM406.4 1016.64V1016.34H402V1016.64V1016.94H406.4V1016.64ZM402 1016.64L402.3 1016.65C402.378 1013.66 403.266 1011.43 404.923 1009.9L404.72 1009.68L404.517 1009.46C402.708 1011.13 401.782 1013.54 401.7 1016.63L402 1016.64ZM404.72 1009.68L404.924 1009.9C406.621 1008.33 408.772 1007.54 411.4 1007.54V1007.24V1006.94C408.641 1006.94 406.339 1007.78 404.516 1009.46L404.72 1009.68ZM411.4 1007.24V1007.54C414.251 1007.54 416.433 1008.32 417.99 1009.85L418.2 1009.64L418.41 1009.43C416.713 1007.76 414.363 1006.94 411.4 1006.94V1007.24ZM418.2 1009.64L417.991 1009.86C419.577 1011.39 420.38 1013.44 420.38 1016.04H420.68H420.98C420.98 1013.31 420.13 1011.09 418.409 1009.42L418.2 1009.64ZM420.68 1016.04H420.38C420.38 1017.91 419.901 1019.71 418.937 1021.45L419.2 1021.6L419.463 1021.75C420.472 1019.92 420.98 1018.01 420.98 1016.04H420.68ZM419.2 1021.6L418.937 1021.46C417.989 1023.19 416.845 1024.76 415.504 1026.15L415.72 1026.36L415.936 1026.57C417.315 1025.14 418.491 1023.53 419.463 1021.74L419.2 1021.6ZM415.72 1026.36L415.504 1026.15C414.178 1027.53 412.478 1029.14 410.401 1030.98L410.6 1031.2L410.799 1031.42C412.882 1029.58 414.595 1027.96 415.936 1026.57L415.72 1026.36ZM410.6 1031.2L410.401 1030.98L408.601 1032.58L408.8 1032.8L408.999 1033.02L410.799 1031.42L410.6 1031.2ZM408.8 1032.8V1033.1H421.48V1032.8V1032.5H408.8V1032.8ZM421.48 1032.8H421.18V1036.6H421.48H421.78V1032.8H421.48ZM421.48 1036.6V1036.3H402.04V1036.6V1036.9H421.48V1036.6ZM402.04 1036.6H402.34V1033.28H402.04H401.74V1036.6H402.04ZM402.04 1033.28L402.236 1033.51L405.116 1031.03L404.92 1030.8L404.724 1030.57L401.844 1033.05L402.04 1033.28ZM424.926 1030.92H424.626V1031.22H424.926V1030.92ZM424.926 1027.48L424.68 1027.31L424.626 1027.39V1027.48H424.926ZM438.366 1008.2V1007.9H438.209L438.12 1008.03L438.366 1008.2ZM443.886 1008.2H444.186V1007.9H443.886V1008.2ZM443.886 1026.96H443.586V1027.26H443.886V1026.96ZM447.606 1026.96H447.906V1026.66H447.606V1026.96ZM447.606 1030.92V1031.22H447.906V1030.92H447.606ZM443.886 1030.92V1030.62H443.586V1030.92H443.886ZM443.886 1037V1037.3H444.186V1037H443.886ZM439.406 1037H439.106V1037.3H439.406V1037ZM439.406 1030.92H439.706V1030.62H439.406V1030.92ZM439.606 1012.84H439.906V1011.85L439.357 1012.67L439.606 1012.84ZM430.166 1026.96L429.917 1026.79L429.605 1027.26H430.166V1026.96ZM439.606 1026.96V1027.26H439.906V1026.96H439.606ZM424.926 1030.92H425.226V1027.48H424.926H424.626V1030.92H424.926ZM424.926 1027.48L425.172 1027.65L438.612 1008.37L438.366 1008.2L438.12 1008.03L424.68 1027.31L424.926 1027.48ZM438.366 1008.2V1008.5H443.886V1008.2V1007.9H438.366V1008.2ZM443.886 1008.2H443.586V1026.96H443.886H444.186V1008.2H443.886ZM443.886 1026.96V1027.26H447.606V1026.96V1026.66H443.886V1026.96ZM447.606 1026.96H447.306V1030.92H447.606H447.906V1026.96H447.606ZM447.606 1030.92V1030.62H443.886V1030.92V1031.22H447.606V1030.92ZM443.886 1030.92H443.586V1037H443.886H444.186V1030.92H443.886ZM443.886 1037V1036.7H439.406V1037V1037.3H443.886V1037ZM439.406 1037H439.706V1030.92H439.406H439.106V1037H439.406ZM439.406 1030.92V1030.62H424.926V1030.92V1031.22H439.406V1030.92ZM439.606 1012.84L439.357 1012.67L429.917 1026.79L430.166 1026.96L430.415 1027.13L439.855 1013.01L439.606 1012.84ZM430.166 1026.96V1027.26H439.606V1026.96V1026.66H430.166V1026.96ZM439.606 1026.96H439.906V1012.84H439.606H439.306V1026.96H439.606Z" fill="black" mask="url(#path-9-outside-2_1_2252)"/>
<path d="M282.81 272.735C274.2 272.735 267.13 270.705 261.6 266.645C256.07 262.515 253.095 256.635 252.675 249.005H274.62C274.83 251.595 275.6 253.485 276.93 254.675C278.26 255.865 279.975 256.46 282.075 256.46C283.965 256.46 285.505 256.005 286.695 255.095C287.955 254.115 288.585 252.785 288.585 251.105C288.585 248.935 287.57 247.255 285.54 246.065C283.51 244.875 280.22 243.545 275.67 242.075C270.84 240.465 266.92 238.925 263.91 237.455C260.97 235.915 258.38 233.71 256.14 230.84C253.97 227.9 252.885 224.085 252.885 219.395C252.885 214.635 254.075 210.575 256.455 207.215C258.835 203.785 262.125 201.195 266.325 199.445C270.525 197.695 275.285 196.82 280.605 196.82C289.215 196.82 296.075 198.85 301.185 202.91C306.365 206.9 309.13 212.535 309.48 219.815H287.115C287.045 217.575 286.345 215.895 285.015 214.775C283.755 213.655 282.11 213.095 280.08 213.095C278.54 213.095 277.28 213.55 276.3 214.46C275.32 215.37 274.83 216.665 274.83 218.345C274.83 219.745 275.355 220.97 276.405 222.02C277.525 223 278.89 223.875 280.5 224.645C282.11 225.345 284.49 226.255 287.64 227.375C292.33 228.985 296.18 230.595 299.19 232.205C302.27 233.745 304.895 235.95 307.065 238.82C309.305 241.62 310.425 245.19 310.425 249.53C310.425 253.94 309.305 257.895 307.065 261.395C304.895 264.895 301.71 267.66 297.51 269.69C293.38 271.72 288.48 272.735 282.81 272.735ZM380.262 213.095V272H359.577V263.6C357.827 266.26 355.412 268.43 352.332 270.11C349.252 271.72 345.717 272.525 341.727 272.525C334.867 272.525 329.442 270.285 325.452 265.805C321.532 261.255 319.572 255.095 319.572 247.325V213.095H340.047V244.7C340.047 248.06 340.922 250.72 342.672 252.68C344.492 254.57 346.872 255.515 349.812 255.515C352.822 255.515 355.202 254.57 356.952 252.68C358.702 250.72 359.577 248.06 359.577 244.7V213.095H380.262ZM430.51 212.57C437.3 212.57 442.69 214.845 446.68 219.395C450.67 223.875 452.665 229.965 452.665 237.665V272H432.085V240.395C432.085 237.035 431.21 234.41 429.46 232.52C427.71 230.56 425.365 229.58 422.425 229.58C419.345 229.58 416.93 230.56 415.18 232.52C413.43 234.41 412.555 237.035 412.555 240.395V272H391.975V213.095H412.555V221.495C414.375 218.835 416.825 216.7 419.905 215.09C422.985 213.41 426.52 212.57 430.51 212.57ZM502.492 212.57C509.282 212.57 514.672 214.845 518.662 219.395C522.652 223.875 524.647 229.965 524.647 237.665V272H504.067V240.395C504.067 237.035 503.192 234.41 501.442 232.52C499.692 230.56 497.347 229.58 494.407 229.58C491.327 229.58 488.912 230.56 487.162 232.52C485.412 234.41 484.537 237.035 484.537 240.395V272H463.957V213.095H484.537V221.495C486.357 218.835 488.807 216.7 491.887 215.09C494.967 213.41 498.502 212.57 502.492 212.57ZM599.36 213.095L561.98 300.035H539.615L553.685 269.48L529.535 213.095H552.425L564.815 246.485L576.785 213.095H599.36Z" fill="black"/>
<path d="M413.242 371.264C420.003 370.791 427.048 371.047 433.818 371.31C465.028 372.378 495.815 378.771 524.812 390.205C594.092 417.932 645.845 468.994 674.807 536.816C698.917 593.996 702.428 657.596 684.757 717.02C681.988 726.481 678.737 735.798 675.019 744.937C672.796 750.366 670.255 755.661 668.018 761.084C674.381 760.214 681.147 761.445 686.983 764.002C697.996 768.923 706.603 777.918 710.942 789.046C715.334 800.194 714.982 812.616 709.971 823.506C704.748 834.899 695.1 843.746 683.198 848.057C669.55 853.034 655.93 851.594 642.905 845.748C638.301 848.628 633.686 851.283 628.657 853.389C615.618 858.852 598.366 861.921 584.287 859.652C571.69 869.364 558.652 878.369 544.593 885.915C506.343 906.055 463.23 915.481 419.932 913.172C389.158 911.814 359.389 904.38 331.129 892.465C321.463 895.964 312.103 898.227 301.746 898.524C277.946 899.206 256.132 888.867 239.151 873.005C236.997 874.069 234.812 875.069 232.598 876.005C220.06 881.183 205.942 881.2 193.391 876.052C179.619 870.464 168.673 859.694 162.975 846.126C157.774 833.373 157.864 819.115 163.226 806.427C169.256 792.403 178.579 784.225 192.722 778.573C160.323 724.63 148.109 661.202 158.2 599.304C154.736 597.728 151.38 595.889 148.393 593.535C140.469 587.291 135.214 577.385 134.185 567.465C133.126 557.247 136.671 547.067 143.297 539.218C149.749 531.573 157.886 527.818 167.803 526.931C168.21 524.62 168.767 522.466 169.651 520.284C174.304 508.798 183.273 502.264 194.46 497.584C204.236 482.464 214.168 468.786 226.602 455.619C274.836 403.973 342.078 373.582 413.242 371.264Z" fill="#151515"/>
<path d="M412.004 385.724C421.308 385.077 431.093 385.353 440.408 385.882C494.588 388.929 546.413 408.746 588.512 442.511C630.908 477.35 661.32 524.281 675.566 576.855C679.672 592.312 681.977 608.003 683.562 623.878C682.905 622.878 682.213 621.9 681.486 620.948C677.241 615.375 672.198 613.927 665.507 612.979C664.268 610.951 662.976 609.017 661.266 607.339C657.39 603.537 653.083 602.78 647.842 602.832C646.454 599.41 644.988 596.315 642.416 593.591C637.686 588.581 630.771 585.849 623.891 585.635C616.169 585.394 608.364 588.066 602.75 593.371C596.641 599.142 594.713 606.49 594.53 614.591C589.672 617.15 585.478 620.073 582.643 624.845C579.778 629.669 578.747 635.919 580.254 641.346C581.557 646.037 584.831 649.738 589.079 652.096C602.724 659.674 630.599 657.991 645.9 656.867C652.82 656.359 660.04 655.983 666.746 654.124C675.222 651.773 679.918 647.849 684.219 640.35C683.707 679.821 675.751 719.335 658.123 754.982C653.825 749.58 649.124 745.071 642.743 742.127C633.027 737.644 623.283 738.218 613.403 741.733C613.371 741.659 613.339 741.585 613.305 741.513C607.193 728.506 596.901 719.398 583.173 714.633C568.701 709.611 553.261 710.708 539.494 717.148C536.68 711.502 534.127 705.732 531.844 699.858L555.014 694.952C560.381 693.819 565.948 692.84 571.161 691.142C574.104 690.183 576.614 689.156 578.061 686.295C578.201 685.41 578.262 684.461 578.148 683.567C577.935 681.89 576.918 680.284 575.845 679.013C572.27 674.775 567.456 671.174 563.203 667.612C556.641 662.041 549.985 656.576 543.24 651.22C549.517 645.233 576.643 625.324 578.341 618.827C578.694 617.476 578.422 616.05 577.677 614.872C576.934 613.718 575.864 612.804 574.6 612.241C569.903 610.175 562.973 609.312 557.887 608.195C548.831 606.188 539.792 604.103 530.773 601.939C534.721 594.174 551.785 566.279 550.497 558.925C550.281 557.618 549.517 556.461 548.392 555.738C546.816 554.731 544.881 554.479 543.04 554.511C537.149 554.611 530.899 556.177 525.105 557.214C516.789 558.703 508.417 560.053 500.149 561.776C499.667 552.842 501.719 518.748 498.44 513.557C497.737 512.445 496.566 511.789 495.272 511.579C493.216 511.244 491.206 511.888 489.381 512.776C482.085 516.328 475.459 522.355 469.022 527.27C463.413 531.476 457.75 535.612 452.035 539.676C448.145 531.73 444.173 523.824 440.12 515.957C437.744 511.258 435.517 505.942 432.538 501.602C431.567 500.188 430.39 498.868 428.874 498.008C427.256 497.089 425.477 496.73 423.674 497.307C421.486 498.007 419.613 499.736 418.268 501.523C415.041 505.807 412.781 511.232 410.367 516.011L397.932 540.675L377.155 524.296C372.501 520.575 367.724 516.181 362.548 513.197C360.92 512.259 359.046 511.475 357.13 511.465C355.539 511.457 354.111 512.054 353.041 513.221C351.817 514.555 351.147 516.31 350.755 518.042C349.85 522.05 349.851 526.443 349.714 530.542C349.357 541.202 349.74 551.875 349.967 562.533C341.638 559.102 333.055 556.222 324.537 553.284C319.149 543.869 315.963 537.077 305.154 532.439C297.815 529.291 291.08 529.524 283.766 532.414C280.547 526.431 276.194 521.577 269.829 518.764C263.184 515.827 256.061 516.07 249.347 518.573C247.491 514.765 245.367 511.187 242.517 508.011C235.042 499.684 225.316 495.94 214.259 495.235C218.573 487.568 226.798 477.947 232.712 471.266C268.885 430.592 317.379 402.483 371.015 391.1C384.571 388.23 398.181 386.646 412.004 385.724Z" fill="#2683E5"/>
<path d="M387.335 399.508C392.649 398.938 398.447 399.778 403.472 401.529C413.034 404.863 419.875 411.269 424.202 420.221C429.536 419.002 434.754 418.651 440.117 419.967C447.97 421.895 452.751 426.69 456.848 433.316C463.425 431.666 470.013 431.894 476.113 435.084C482.822 438.591 487.726 445.366 489.872 452.453C492.173 460.086 491.326 468.307 487.515 475.328C483.654 482.33 476.824 487.038 469.171 489.265C459.477 492.086 451.994 489.805 443.471 485.168C438.177 488.777 432.957 491.282 426.79 493.089C423.798 493.886 420.737 494.41 417.648 494.656C404.989 495.656 392.669 492.828 382.869 484.635C376.209 489.424 369.217 492.161 360.934 492.661C351.158 493.252 342.166 490.602 334.812 484.072C328.442 478.376 324.619 470.424 324.178 461.956C323.728 453.752 326.601 445.708 332.166 439.592C337.89 433.378 345.18 430.776 353.533 430.415C354.131 423.921 356.335 418.215 360.553 413.145C367.256 405.087 376.927 400.519 387.335 399.508Z" fill="#151515"/>
<path d="M389.152 405.988C399.399 404.723 410.416 409.896 415.835 418.536C417.189 420.694 418.59 424.954 420.681 426.342C423.243 428.044 429.364 425.552 432.559 425.438C435.472 425.338 438.373 425.865 441.058 426.984C448.046 429.923 451.857 439.849 454.749 440.698C458.768 441.879 463.235 436.596 471.591 440.396C477.101 442.9 481.193 448.321 483.212 453.844C485.259 459.448 485.21 465.37 482.547 470.771C479.812 476.314 474.533 480.556 468.632 482.47C463.784 484.043 457.846 484.391 453.208 482.037C451.253 481.045 449.484 479.694 447.498 478.758C446.295 478.191 444.803 477.843 443.471 478.104C440.328 478.722 436.386 482.125 433.502 483.689C431.283 484.892 429.028 485.789 426.639 486.608C416.293 489.962 402.693 489.371 393.196 483.853C389.962 481.974 386.476 478.046 382.553 478.005C379.687 477.975 374.121 482.533 371.119 483.827C368.009 485.168 364.672 485.932 361.305 486.296C353.701 487.118 346.71 485.497 340.728 480.659C335.269 476.23 331.805 469.854 331.089 462.918C330.491 456.625 332.357 450.071 336.49 445.193C342.406 438.213 347.35 438.272 355.824 437.458C361.413 436.921 359.895 430.622 360.986 426.656C361.933 423.211 363.796 419.914 366.095 417.174C371.871 410.293 380.278 406.776 389.152 405.988Z" fill="#7BD8F8"/>
<path d="M556.408 478.062C560.696 477.796 564.331 478.088 568.216 480.043C573.771 482.84 576.905 487.42 578.812 493.142C585.649 493.337 589.473 496.083 594.129 500.71C598.017 501.199 601.499 501.972 604.667 504.393C608.109 507.024 610.057 510.871 610.569 515.086C611.155 519.916 610.15 525.035 606.947 528.85C599.628 537.567 584.397 538.005 573.803 538.819C561.176 539.739 540.711 541.009 529.47 534.765C525.065 532.318 521.85 528.449 520.552 523.604C519.261 518.781 519.827 513.436 522.424 509.123C525.77 503.563 531.019 501.388 537.097 499.842C537.339 495.083 538.122 490.853 540.967 486.873C544.622 481.76 550.309 479.127 556.408 478.062Z" fill="#151515"/>
<path d="M556.45 484.488C573.109 482.626 571.355 497.521 574.825 499.585C576.953 500.85 580.029 499.075 582.427 499.887C585.973 501.087 587.221 504.443 590.327 506.084C593.689 507.86 597.814 507.042 601.003 509.457C603.072 511.023 603.821 513.555 604.099 516.014C604.479 519.383 604.003 522.532 601.747 525.193C596.009 531.963 583.014 532.082 574.703 532.704C563.539 533.033 543.993 534.955 533.909 530.228C530.704 528.726 528.071 526.294 526.923 522.919C525.722 519.382 526.011 515.618 527.822 512.34C530.483 507.524 534.679 507.412 539.372 505.906C545.4 503.973 542.308 497.39 545.281 492.112C547.618 487.964 551.963 485.665 556.45 484.488Z" fill="#F4F4F4"/>
<path d="M423.84 544.159C484.456 543.695 533.976 591.775 534.443 651.546C534.909 711.316 486.145 760.142 425.528 760.597C364.918 761.054 315.407 712.976 314.941 653.211C314.474 593.446 363.229 544.623 423.84 544.159Z" fill="#FEBF14"/>
<path d="M261.969 744.763C281.439 742.945 298.635 754.619 307.794 770.929C309.142 773.329 311.611 780.486 313.524 781.863C314.966 782.902 321.382 781.426 323.269 781.238C330.519 780.521 337.329 781.835 343.834 785.023C351.872 788.963 358.733 795.016 362.699 803.065C363.724 805.146 365.699 811.06 367.302 812.224C368.738 813.266 375.628 811.185 377.538 810.902C379.284 810.64 381.048 810.507 382.815 810.504C388.213 810.453 393.552 811.618 398.424 813.91C407.555 818.205 414.751 826.546 418.062 835.923C421.373 845.226 420.729 855.453 416.276 864.28C410.887 875.091 401.041 882.484 389.595 886.27C378.03 890.1 365.45 889.682 354.172 885.093C350.592 883.613 347.321 881.551 343.848 879.856C340.978 881.011 338.219 882.639 335.417 883.973C332.041 885.58 328.581 886.848 325.043 888.049C320.341 889.361 315.633 890.407 310.769 890.964C290.202 893.317 268.558 887.852 252.02 875.418C247.997 872.392 244.951 868.352 241.024 865.348C240.947 865.29 240.87 865.234 240.793 865.177C238.525 866.085 236.343 867.324 234.128 868.363C228.925 870.865 223.288 872.373 217.516 872.808C204.586 873.777 191.808 869.55 182.087 861.088C172.814 853.287 167.084 842.158 166.169 830.173C165.278 817.957 168.791 806.314 177.034 797.053C183.61 789.665 193.292 784.513 203.281 783.753C206.093 783.539 208.952 784.013 211.739 783.778C212.598 783.706 213.187 783.715 213.702 782.968C215.15 780.869 215.824 777.765 216.737 775.395C218.423 771.016 221.283 766.791 224.308 763.205C233.573 752.223 247.705 746.043 261.969 744.763Z" fill="#7BD8F8"/>
<path d="M560.033 718.568C574.996 716.882 593.607 723.598 602.6 735.782C604.286 738.066 608.998 748.237 610.624 748.981C612.267 749.734 621.272 746.466 623.914 746.091C627.255 745.617 631.134 745.57 634.417 746.427C653.414 751.385 654.061 766.529 658.734 768.947C660.579 769.902 669.265 767.828 672.441 767.883C677.215 767.968 681.879 769.192 686.186 771.192C695.25 775.4 701.841 783.143 705.125 792.413C708.764 802.519 708.114 813.645 703.323 823.273C698.593 832.647 690.264 839.772 680.185 843.069C671.33 845.949 660.96 845.982 652.195 842.757C648.988 841.577 646.001 839.916 642.951 838.4C640.014 840.187 637.255 842.235 634.277 843.958C628.312 847.409 621.979 849.594 615.388 851.533C596.45 856.323 573.773 855.299 556.526 845.545C553.875 844.046 550.004 839.596 547 839.467C544.781 839.372 535.994 845.003 532.761 846.282C528.282 848.064 523.576 849.231 518.776 849.75C506.701 851.011 494.504 847.758 485.034 840.163C476.245 833.22 470.645 823.093 469.489 812.047C467.451 792.703 479.48 774.609 498.283 768.735C500.702 767.983 512.36 766.359 513.404 765.399C515.17 763.776 515.068 757.841 515.62 755.48C515.969 753.986 516.546 752.49 517.078 751.051C519.125 745.495 522.129 740.33 525.958 735.782C534.816 725.209 546.33 719.817 560.033 718.568Z" fill="#7BD8F8"/>
<path d="M313.25 593.302C314.938 594.342 317.334 600.459 318.282 602.546C309.305 604.153 300.395 606.515 291.53 608.649C286.756 609.798 281.38 610.663 276.805 612.383C275.136 613.011 273.487 613.846 272.31 615.21C271.387 616.281 270.899 617.585 271.025 618.996C271.232 621.32 272.891 623.448 274.408 625.146C277.911 629.066 282.448 632.319 286.515 635.66C293.191 641.175 299.905 646.645 306.657 652.07C299.19 658.077 274.192 676.73 271.796 684.206C271.351 685.596 271.505 687.018 272.266 688.269C273.117 689.669 274.492 690.714 275.988 691.372C280.867 693.518 286.737 694.379 291.932 695.531L317.33 701.135C313.117 708.733 296.176 737.174 297.453 744.394C297.694 745.76 298.442 746.889 299.632 747.635C301.271 748.664 303.337 748.863 305.236 748.848C313.12 748.785 321.452 746.549 329.114 744.824C335.939 743.259 342.781 741.773 349.641 740.366C349.664 753.893 350.179 767.353 350.758 780.865C340.158 775.308 329.721 772.979 317.766 775.357C312.578 763.571 305.459 754.264 294.751 746.869C291.486 744.781 288.122 743.025 284.494 741.629C270.295 736.163 254.859 736.915 240.973 742.963C224.595 750.097 215.099 761.119 208.675 777.317C200.368 765.625 193.641 752.431 188.153 739.246C170.081 695.829 165.268 649.261 172.065 602.952C183.473 602.914 191.189 600.813 201.148 595.307C206.402 599.858 212.818 602.87 219.573 604.548C233.451 607.996 249.509 606.332 262.614 600.785C266.362 599.199 269.819 597.185 273.309 595.122C278.105 598.611 283.103 600.966 289.117 601.468C297.937 602.206 306.608 598.882 313.25 593.302Z" fill="#2683E5"/>
<path d="M207.67 502.222C209.402 501.91 211.466 501.977 213.23 502.02C224.225 502.287 234.382 507.467 240.554 516.527C242.381 519.208 243.887 524.056 246.592 525.823C249.623 526.36 253.444 524.184 256.439 523.498C263.543 521.873 271.252 525.261 275.43 531.023C277.071 533.287 278.32 537.587 280.947 538.836C283.187 539.9 286.851 538.174 289.013 537.542C294.324 535.991 299.985 537.201 304.755 539.817C311.615 543.579 316.587 550.177 318.702 557.582C320.889 565.239 319.979 573.999 315.953 580.923C312.187 587.398 305.65 592.429 298.316 594.325C292.439 595.843 285.914 595.353 280.767 591.958C279.023 590.807 277.469 589.259 275.618 588.286C275.051 587.988 274.187 587.665 273.529 587.771C270.893 588.199 265.986 592.007 263.398 593.339C260.776 594.687 258.1 595.75 255.307 596.701C251.321 597.985 247.218 598.886 243.055 599.392C231.597 600.801 219.088 599.885 209.068 593.738C207.325 592.669 205.772 591.164 204.128 589.942C203.101 589.179 201.825 588.535 200.505 588.645C197.35 588.911 193.607 591.725 190.671 592.993C187.166 594.528 183.456 595.559 179.654 596.054C170.532 597.201 160.824 594.786 153.546 589.167C146.806 583.962 142.364 575.932 141.355 567.569C140.338 559.504 142.676 551.377 147.836 545.041C151.948 539.96 157.812 535.85 164.437 534.863C166.583 534.544 168.783 534.642 170.925 534.33C175.622 533.648 175.732 526.796 177.055 523.225C177.995 520.691 179.473 518.279 181.149 516.154C187.572 508.011 197.464 503.496 207.67 502.222Z" fill="#7BD8F8"/>
<path d="M451.021 763.077C456.468 765.962 467.676 775.344 472.662 779.687C469.739 783.904 467.221 788.439 465.491 793.264C461.327 804.871 462.4 817.345 467.8 828.37C473.588 840.187 483.894 848.875 496.469 853.081C509.405 857.411 523.522 856.759 535.992 851.257C539.396 849.791 542.449 847.813 545.761 846.219L546.291 845.966C552.558 851.236 559.786 854.217 567.497 856.805C529.461 885.46 481.66 900.234 433.973 900.57C426.664 900.621 419.299 900.105 412.018 899.526C402.739 898.709 393.074 897.46 384.074 895.048C387.496 893.984 390.972 893.146 394.329 891.872C405.154 887.765 414.395 880.434 420.386 870.602C426.515 860.542 428.535 848.639 425.574 837.226C422.476 825.607 414.846 815.666 404.348 809.57C393.787 803.443 383.166 802.237 371.423 805.207C369.081 799.364 365.852 794.623 361.895 789.757C374.356 782.055 384.548 771.37 396.793 763.432C405.891 772.342 412.828 798.7 421.518 805.49C422.769 806.467 424.281 806.981 425.876 806.723C428.221 806.343 430.021 804.505 431.308 802.657C433.422 799.622 434.895 795.765 436.416 792.404C440.663 783.017 444.772 771.827 450.776 763.416L451.021 763.077Z" fill="#2683E5"/>
<path d="M619.302 592.246C628.451 591.541 636.959 594.107 640.916 603.034C641.748 604.91 642.625 608.423 644.378 609.599C646.531 611.042 651.096 609.151 653.831 610.203C658.289 611.919 658.559 616.59 662.056 618.841C665.055 620.771 669.334 618.539 674.021 622.357C676.711 624.581 678.391 627.77 678.69 631.219C679.024 635.326 677.676 639.394 674.946 642.513C668.544 649.802 654.674 649.912 645.598 650.532C633.583 651.865 601.529 652.806 591.749 646.418C588.799 644.49 586.593 641.813 585.932 638.323C585.479 635.936 585.809 633.515 586.552 631.222C589.754 621.338 598.268 621.972 600.309 617.599C600.934 616.26 600.729 614.067 600.78 612.608C600.906 608.495 602.236 604.505 604.609 601.12C608.137 596.093 613.295 593.323 619.302 592.246Z" fill="#F4F4F4"/>
<path d="M425.232 502.844C425.356 502.875 425.483 502.898 425.605 502.939C426.362 503.197 426.715 503.66 427.146 504.288C429.841 508.218 431.784 512.96 433.889 517.234C437.612 524.736 441.284 532.264 444.905 539.815C438.657 539.06 432.377 538.593 426.086 538.413C419.267 538.248 412.442 538.908 405.671 539.603C409.342 532.492 412.962 525.355 416.531 518.193C419.113 513.063 421.565 507.309 425.232 502.844Z" fill="#FEBF14"/>
<path d="M493.646 518.278C495.071 520.865 494.097 555.505 493.84 560.417C486.854 555.523 479.834 551.326 472.024 547.826C467.698 545.904 463.23 544.362 458.776 542.764C462.944 539.309 467.594 536.204 471.961 532.988C478.899 527.881 485.867 522.079 493.646 518.278Z" fill="#FEBF14"/>
<path d="M357.31 517.26C362.044 519.835 366.435 523.932 370.669 527.261C377.252 532.436 383.91 537.509 390.453 542.734C386.156 544.385 381.816 545.884 377.545 547.608C370.014 550.755 363.229 554.941 356.458 559.421C355.883 546.817 354.707 529.429 357.31 517.26Z" fill="#FEBF14"/>
<path d="M322.013 706.539C323.886 707.853 328.091 715.635 329.928 718.094C334.411 724.096 339.851 729.455 344.751 735.131C337.668 737.13 330.328 738.412 323.111 739.857C316.536 740.821 310.301 742.826 303.576 742.779C305.925 733.476 316.602 715.19 322.013 706.539Z" fill="#FEBF14"/>
<path d="M531.529 608.512C537.846 609.461 544.255 611.312 550.49 612.762C557.628 614.422 565.091 615.766 572.03 618.076C568.625 623.027 562.698 627.204 558.071 631.093C552.438 635.839 546.807 640.927 540.419 644.672C538.986 632.012 536 620.449 531.529 608.512Z" fill="#FEBF14"/>
<path d="M542.091 560.502C542.842 560.386 543.382 560.381 544.132 560.506C544.868 564.824 529.147 591.985 526.514 596.739C523.946 592.824 521.292 588.965 518.554 585.164C513.935 578.84 508.618 573.282 503.157 567.678C510.518 566.196 517.894 564.794 525.285 563.474C530.865 562.433 536.461 561.24 542.091 560.502Z" fill="#FEBF14"/>
<path d="M316.312 609.333L316.947 609.375C317.047 609.882 317.114 609.844 317.012 610.234C316.516 612.123 315.62 613.987 314.981 615.846C313.794 619.383 312.746 622.963 311.84 626.58C310.304 632.709 309.119 639.132 308.917 645.448C302.889 641.523 297.389 636.444 291.863 631.86C286.885 627.823 280.877 623.753 277.217 618.451C281.892 616.624 287.092 615.71 291.977 614.575C300.062 612.698 308.142 610.82 316.312 609.333Z" fill="#FEBF14"/>
<path d="M540.482 657.589C543.717 659.275 546.73 662.032 549.571 664.29C557.331 670.463 565.257 676.76 572.032 683.995C567.806 685.78 563.2 686.69 558.745 687.746L532.757 693.607C536.93 680.878 538.956 670.873 540.482 657.589Z" fill="#FEBF14"/>
<path d="M308.089 659.214L308.361 659.303C309.073 660.392 309.668 668.241 309.975 670.126C311.371 678.704 313.837 686.651 316.739 694.846C308.595 693.127 300.476 691.296 292.383 689.355C287.581 688.261 282.676 687.228 278.024 685.611C283.409 677.77 299.765 664.77 308.089 659.214Z" fill="#FEBF14"/>
<path d="M406.167 764.77C418.616 766.389 430.562 766.595 443.006 764.826C439.445 772.719 435.378 780.41 431.761 788.289C429.677 792.686 427.587 796.928 424.874 800.996C421.576 796.751 407.605 769.761 406.167 764.77Z" fill="#FEBF14"/>
<path d="M356.117 744.429C359.648 745.967 362.883 748.68 366.224 750.621C373.641 754.93 381.225 758.104 389.351 760.848C384.924 764.388 380.384 767.767 375.999 771.364C370.219 776.065 364.369 781.46 357.66 784.801C357.161 781.013 357.138 777.066 356.955 773.248C356.569 763.645 356.289 754.038 356.117 744.429Z" fill="#FEBF14"/>
<path d="M493.699 744.935C494.599 746.738 493.426 761.143 493.177 763.998C486.846 766.912 481.71 770.485 476.558 775.099C473.368 772.812 470.397 770.117 467.318 767.675C464.662 765.726 462.049 763.721 459.48 761.662C472.54 756.762 481.766 752.007 493.699 744.935Z" fill="#FEBF14"/>
<path d="M325.905 560.171C332.388 562.459 339.451 564.495 345.474 567.799C339.13 573.842 333.505 580.58 328.711 587.88C326.674 590.89 324.85 594.052 322.968 597.158C321.18 594.393 319.722 591.484 318.375 588.491C324.503 579.286 326.904 571.215 325.905 560.171Z" fill="#FEBF14"/>
<path d="M527.12 706.236C528.686 707.07 533.259 717.823 534.228 719.853C527.144 724.938 522.116 730.452 516.835 737.274L514.008 736.895C511.214 736.431 508.427 735.92 505.65 735.365C508.999 731.632 512.447 728.028 515.46 724.013C519.721 718.335 523.27 712.184 527.12 706.236Z" fill="#FEBF14"/>
<path d="M500.311 740.408L513.63 743.239C511.631 747.99 509.934 752.668 509.042 757.75C508.967 758.303 508.85 758.822 508.708 759.362C506.901 760.813 502.043 760.747 499.638 761.327C499.729 754.357 500.049 747.373 500.311 740.408Z" fill="#3C7ABB"/>
</svg>
