<svg width="849" height="1183" viewBox="0 0 849 1183" fill="none" xmlns="http://www.w3.org/2000/svg">
<rect x="5" y="5" width="839" height="1173" rx="45" fill="white"/>
<rect x="5" y="5" width="839" height="1173" rx="45" stroke="black" stroke-width="10"/>
<circle cx="786.5" cy="1124.5" r="11.5" fill="black"/>
<circle cx="786.5" cy="59.5" r="11.5" fill="black"/>
<path d="M77 1124.5C77 1130.85 71.8513 1136 65.5 1136C59.1487 1136 54 1130.85 54 1124.5C54 1118.15 59.1487 1113 65.5 1113C71.8513 1113 77 1118.15 77 1124.5Z" fill="black"/>
<path d="M77 59.5C77 65.8513 71.8513 71 65.5 71C59.1487 71 54 65.8513 54 59.5C54 53.1487 59.1487 48 65.5 48C71.8513 48 77 53.1487 77 59.5Z" fill="black"/>
<mask id="path-6-inside-1_1_3156" fill="white">
<path d="M708 48C713.523 48 717.934 52.4996 718.616 57.9801C723.122 94.1833 751.817 122.878 788.02 127.384C793.5 128.066 798 132.477 798 138V1046C798 1051.52 793.5 1055.93 788.02 1056.62C751.817 1061.12 723.122 1089.82 718.616 1126.02C717.934 1131.5 713.523 1136 708 1136H141C135.477 1136 131.066 1131.5 130.384 1126.02C125.878 1089.82 97.1833 1061.12 60.9801 1056.62C55.4996 1055.93 51 1051.52 51 1046V138C51 132.477 55.4996 128.066 60.9801 127.384C97.1833 122.878 125.878 94.1833 130.384 57.9801C131.066 52.4996 135.477 48 141 48H708Z"/>
</mask>
<path d="M708 48C713.523 48 717.934 52.4996 718.616 57.9801C723.122 94.1833 751.817 122.878 788.02 127.384C793.5 128.066 798 132.477 798 138V1046C798 1051.52 793.5 1055.93 788.02 1056.62C751.817 1061.12 723.122 1089.82 718.616 1126.02C717.934 1131.5 713.523 1136 708 1136H141C135.477 1136 131.066 1131.5 130.384 1126.02C125.878 1089.82 97.1833 1061.12 60.9801 1056.62C55.4996 1055.93 51 1051.52 51 1046V138C51 132.477 55.4996 128.066 60.9801 127.384C97.1833 122.878 125.878 94.1833 130.384 57.9801C131.066 52.4996 135.477 48 141 48H708Z" fill="#7047A3"/>
<path d="M130.384 1126.02L138.322 1125.03L130.384 1126.02ZM718.616 1126.02L710.678 1125.03L718.616 1126.02ZM788.02 1056.62L789.008 1064.56L788.02 1056.62ZM718.616 57.9801L726.555 56.9922L718.616 57.9801ZM718.616 57.9801L710.678 58.9681C715.635 98.8063 747.194 130.365 787.032 135.322L788.02 127.384L789.008 119.445C756.44 115.392 730.608 89.5603 726.555 56.9922L718.616 57.9801ZM798 138H790V1046H798H806V138H798ZM788.02 1056.62L787.032 1048.68C747.194 1053.64 715.635 1085.19 710.678 1125.03L718.616 1126.02L726.555 1127.01C730.608 1094.44 756.44 1068.61 789.008 1064.56L788.02 1056.62ZM708 1136V1128H141V1136V1144H708V1136ZM130.384 1126.02L138.322 1125.03C133.365 1085.19 101.806 1053.64 61.9681 1048.68L60.9801 1056.62L59.9922 1064.56C92.5603 1068.61 118.392 1094.44 122.445 1127.01L130.384 1126.02ZM51 1046H59V138H51H43V1046H51ZM60.9801 127.384L61.9681 135.322C101.806 130.365 133.365 98.8063 138.322 58.9681L130.384 57.9801L122.445 56.9922C118.392 89.5603 92.5603 115.392 59.9922 119.445L60.9801 127.384ZM141 48V56H708V48V40H141V48ZM130.384 57.9801L138.322 58.9681C138.438 58.0389 138.872 57.2306 139.427 56.6958C139.954 56.1887 140.494 56 141 56V48V40C130.84 40 123.547 48.1329 122.445 56.9922L130.384 57.9801ZM51 138H59C59 137.494 59.1887 136.954 59.6958 136.427C60.2306 135.872 61.0389 135.438 61.9681 135.322L60.9801 127.384L59.9922 119.445C51.1329 120.547 43 127.84 43 138H51ZM60.9801 1056.62L61.9681 1048.68C61.0389 1048.56 60.2306 1048.13 59.6958 1047.57C59.1887 1047.05 59 1046.51 59 1046H51H43C43 1056.16 51.1329 1063.45 59.9922 1064.56L60.9801 1056.62ZM141 1136V1128C140.494 1128 139.954 1127.81 139.427 1127.3C138.872 1126.77 138.438 1125.96 138.322 1125.03L130.384 1126.02L122.445 1127.01C123.547 1135.87 130.84 1144 141 1144V1136ZM718.616 1126.02L710.678 1125.03C710.562 1125.96 710.128 1126.77 709.573 1127.3C709.046 1127.81 708.506 1128 708 1128V1136V1144C718.16 1144 725.453 1135.87 726.555 1127.01L718.616 1126.02ZM798 1046H790C790 1046.51 789.811 1047.05 789.304 1047.57C788.769 1048.13 787.961 1048.56 787.032 1048.68L788.02 1056.62L789.008 1064.56C797.867 1063.45 806 1056.16 806 1046H798ZM788.02 127.384L787.032 135.322C787.961 135.438 788.769 135.872 789.304 136.427C789.811 136.954 790 137.494 790 138H798H806C806 127.84 797.867 120.547 789.008 119.445L788.02 127.384ZM718.616 57.9801L726.555 56.9922C725.453 48.1329 718.16 40 708 40V48V56C708.506 56 709.046 56.1887 709.573 56.6958C710.128 57.2306 710.562 58.0389 710.678 58.9681L718.616 57.9801Z" fill="black" mask="url(#path-6-inside-1_1_3156)"/>
<path d="M690 102C695.523 102 699.911 106.512 700.837 111.957C705.019 136.563 724.437 155.981 749.043 160.163C754.488 161.089 759 165.477 759 171V1014C759 1019.52 754.488 1023.91 749.043 1024.84C724.711 1028.97 705.454 1048 700.984 1072.22C699.993 1077.59 695.633 1082 690.175 1082H158.825C153.367 1082 149.007 1077.59 148.016 1072.22C143.546 1048 124.288 1028.97 99.9568 1024.84C94.5121 1023.91 90 1019.52 90 1014V171C90 165.477 94.512 161.089 99.9568 160.163C124.563 155.981 143.981 136.563 148.163 111.957C149.089 106.512 153.477 102 159 102H690Z" fill="#B48FE1"/>
<mask id="path-9-outside-2_1_3156" maskUnits="userSpaceOnUse" x="407" y="1007" width="35" height="31" fill="black">
<rect fill="white" x="407" y="1007" width="35" height="31"/>
<path d="M407.8 1012V1007.84H416.12V1037H411.52V1012H407.8ZM440.864 1011.36L429.744 1037H425.144L436.384 1011.84H421.584V1007.96H440.864V1011.36Z"/>
</mask>
<path d="M407.8 1012V1007.84H416.12V1037H411.52V1012H407.8ZM440.864 1011.36L429.744 1037H425.144L436.384 1011.84H421.584V1007.96H440.864V1011.36Z" fill="black"/>
<path d="M407.8 1012H407.5V1012.3H407.8V1012ZM407.8 1007.84V1007.54H407.5V1007.84H407.8ZM416.12 1007.84H416.42V1007.54H416.12V1007.84ZM416.12 1037V1037.3H416.42V1037H416.12ZM411.52 1037H411.22V1037.3H411.52V1037ZM411.52 1012H411.82V1011.7H411.52V1012ZM407.8 1012H408.1V1007.84H407.8H407.5V1012H407.8ZM407.8 1007.84V1008.14H416.12V1007.84V1007.54H407.8V1007.84ZM416.12 1007.84H415.82V1037H416.12H416.42V1007.84H416.12ZM416.12 1037V1036.7H411.52V1037V1037.3H416.12V1037ZM411.52 1037H411.82V1012H411.52H411.22V1037H411.52ZM411.52 1012V1011.7H407.8V1012V1012.3H411.52V1012ZM440.864 1011.36L441.14 1011.48L441.164 1011.42V1011.36H440.864ZM429.744 1037V1037.3H429.941L430.02 1037.12L429.744 1037ZM425.144 1037L424.87 1036.88L424.682 1037.3H425.144V1037ZM436.384 1011.84L436.658 1011.96L436.847 1011.54H436.384V1011.84ZM421.584 1011.84H421.284V1012.14H421.584V1011.84ZM421.584 1007.96V1007.66H421.284V1007.96H421.584ZM440.864 1007.96H441.164V1007.66H440.864V1007.96ZM440.864 1011.36L440.589 1011.24L429.469 1036.88L429.744 1037L430.02 1037.12L441.14 1011.48L440.864 1011.36ZM429.744 1037V1036.7H425.144V1037V1037.3H429.744V1037ZM425.144 1037L425.418 1037.12L436.658 1011.96L436.384 1011.84L436.11 1011.72L424.87 1036.88L425.144 1037ZM436.384 1011.84V1011.54H421.584V1011.84V1012.14H436.384V1011.84ZM421.584 1011.84H421.884V1007.96H421.584H421.284V1011.84H421.584ZM421.584 1007.96V1008.26H440.864V1007.96V1007.66H421.584V1007.96ZM440.864 1007.96H440.564V1011.36H440.864H441.164V1007.96H440.864Z" fill="black" mask="url(#path-9-outside-2_1_3156)"/>
<path d="M281.13 222.335C279.94 220.375 278.295 218.87 276.195 217.82C274.165 216.77 271.75 216.245 268.95 216.245C263.77 216.245 259.675 217.925 256.665 221.285C253.725 224.645 252.255 229.16 252.255 234.83C252.255 241.2 253.83 246.065 256.98 249.425C260.2 252.715 264.855 254.36 270.945 254.36C278.155 254.36 283.3 251.105 286.38 244.595H265.695V229.79H304.125V249.74C302.515 253.66 300.135 257.335 296.985 260.765C293.905 264.195 289.985 267.03 285.225 269.27C280.465 271.44 275.04 272.525 268.95 272.525C261.53 272.525 254.95 270.95 249.21 267.8C243.54 264.58 239.13 260.135 235.98 254.465C232.9 248.725 231.36 242.18 231.36 234.83C231.36 227.55 232.9 221.075 235.98 215.405C239.13 209.665 243.54 205.22 249.21 202.07C254.88 198.85 261.425 197.24 268.845 197.24C278.155 197.24 285.855 199.48 291.945 203.96C298.035 208.44 301.815 214.565 303.285 222.335H281.13ZM333.928 223.49C336.238 220.13 339.038 217.47 342.328 215.51C345.618 213.55 349.153 212.57 352.933 212.57V234.515H347.158C342.678 234.515 339.353 235.39 337.183 237.14C335.013 238.89 333.928 241.935 333.928 246.275V272H313.348V213.095H333.928V223.49ZM356.951 242.495C356.951 236.405 358.036 231.085 360.206 226.535C362.446 221.985 365.456 218.485 369.236 216.035C373.086 213.585 377.356 212.36 382.046 212.36C386.106 212.36 389.606 213.165 392.546 214.775C395.486 216.385 397.761 218.555 399.371 221.285V213.095H419.951V272H399.371V263.81C397.761 266.54 395.451 268.71 392.441 270.32C389.501 271.93 386.036 272.735 382.046 272.735C377.356 272.735 373.086 271.51 369.236 269.06C365.456 266.61 362.446 263.11 360.206 258.56C358.036 253.94 356.951 248.585 356.951 242.495ZM399.371 242.495C399.371 238.715 398.321 235.74 396.221 233.57C394.191 231.4 391.671 230.315 388.661 230.315C385.581 230.315 383.026 231.4 380.996 233.57C378.966 235.67 377.951 238.645 377.951 242.495C377.951 246.275 378.966 249.285 380.996 251.525C383.026 253.695 385.581 254.78 388.661 254.78C391.671 254.78 394.191 253.695 396.221 251.525C398.321 249.355 399.371 246.345 399.371 242.495ZM452.258 221.285C453.868 218.555 456.143 216.385 459.083 214.775C462.023 213.165 465.488 212.36 469.478 212.36C474.168 212.36 478.403 213.585 482.183 216.035C486.033 218.485 489.043 221.985 491.213 226.535C493.453 231.085 494.573 236.405 494.573 242.495C494.573 248.585 493.453 253.94 491.213 258.56C489.043 263.11 486.033 266.61 482.183 269.06C478.403 271.51 474.168 272.735 469.478 272.735C465.488 272.735 462.023 271.93 459.083 270.32C456.213 268.71 453.938 266.54 452.258 263.81V300.14H431.678V213.095H452.258V221.285ZM473.678 242.495C473.678 238.645 472.628 235.67 470.528 233.57C468.498 231.4 465.978 230.315 462.968 230.315C459.958 230.315 457.403 231.4 455.303 233.57C453.273 235.74 452.258 238.715 452.258 242.495C452.258 246.345 453.273 249.355 455.303 251.525C457.403 253.695 459.958 254.78 462.968 254.78C465.978 254.78 468.498 253.695 470.528 251.525C472.628 249.285 473.678 246.275 473.678 242.495ZM559.325 241.865C559.325 243.475 559.22 245.085 559.01 246.695H520.055C520.265 249.915 521.14 252.33 522.68 253.94C524.29 255.48 526.32 256.25 528.77 256.25C532.2 256.25 534.65 254.71 536.12 251.63H558.065C557.155 255.69 555.37 259.33 552.71 262.55C550.12 265.7 546.83 268.185 542.84 270.005C538.85 271.825 534.44 272.735 529.61 272.735C523.8 272.735 518.62 271.51 514.07 269.06C509.59 266.61 506.055 263.11 503.465 258.56C500.945 254.01 499.685 248.655 499.685 242.495C499.685 236.335 500.945 231.015 503.465 226.535C505.985 221.985 509.485 218.485 513.965 216.035C518.515 213.585 523.73 212.36 529.61 212.36C535.42 212.36 540.565 213.55 545.045 215.93C549.525 218.31 553.025 221.74 555.545 226.22C558.065 230.63 559.325 235.845 559.325 241.865ZM538.325 236.72C538.325 234.2 537.485 232.24 535.805 230.84C534.125 229.37 532.025 228.635 529.505 228.635C526.985 228.635 524.92 229.335 523.31 230.735C521.7 232.065 520.65 234.06 520.16 236.72H538.325ZM592.842 272.735C587.522 272.735 582.762 271.86 578.562 270.11C574.432 268.29 571.142 265.84 568.692 262.76C566.312 259.61 564.982 256.075 564.702 252.155H584.652C584.932 254.045 585.807 255.515 587.277 256.565C588.747 257.615 590.567 258.14 592.737 258.14C594.417 258.14 595.747 257.79 596.727 257.09C597.707 256.39 598.197 255.48 598.197 254.36C598.197 252.89 597.392 251.805 595.782 251.105C594.172 250.405 591.512 249.635 587.802 248.795C583.602 247.955 580.102 247.01 577.302 245.96C574.502 244.91 572.052 243.195 569.952 240.815C567.922 238.435 566.907 235.215 566.907 231.155C566.907 227.655 567.852 224.505 569.742 221.705C571.632 218.835 574.397 216.56 578.037 214.88C581.747 213.2 586.192 212.36 591.372 212.36C599.072 212.36 605.127 214.25 609.537 218.03C613.947 221.81 616.502 226.78 617.202 232.94H598.617C598.267 231.05 597.427 229.615 596.097 228.635C594.837 227.585 593.122 227.06 590.952 227.06C589.272 227.06 587.977 227.375 587.067 228.005C586.227 228.635 585.807 229.51 585.807 230.63C585.807 232.03 586.612 233.115 588.222 233.885C589.832 234.585 592.422 235.32 595.992 236.09C600.262 237 603.797 238.015 606.597 239.135C609.467 240.255 611.952 242.075 614.052 244.595C616.222 247.045 617.307 250.405 617.307 254.675C617.307 258.105 616.292 261.185 614.262 263.915C612.302 266.645 609.467 268.815 605.757 270.425C602.117 271.965 597.812 272.735 592.842 272.735Z" fill="black"/>
<ellipse cx="366.269" cy="342.482" rx="15.9024" ry="12.5292" transform="rotate(-34.5593 366.269 342.482)" fill="#3B9038"/>
<ellipse cx="372.887" cy="893.229" rx="24.0946" ry="16.8662" transform="rotate(-34.5593 372.887 893.229)" fill="white"/>
<ellipse cx="341.567" cy="823.562" rx="27.4679" ry="18.7938" transform="rotate(-76.3869 341.567 823.562)" fill="white"/>
<ellipse cx="307.333" cy="724.955" rx="27.4679" ry="18.7938" transform="rotate(-51.9573 307.333 724.955)" fill="white"/>
<ellipse cx="256.436" cy="647.665" rx="27.4679" ry="18.7938" transform="rotate(-51.9573 256.436 647.665)" fill="white"/>
<path d="M363.234 325.307C387.734 324.517 427.879 395.118 432.002 416.738C441.325 393.818 449.953 379.916 470.12 364.667C493.359 347.095 517.534 347.193 542.706 336.288C559.693 328.929 561.164 324.89 565.954 346.889C570.746 368.893 566.81 386.882 560.69 407.699C582.411 401.525 603.339 401.508 624.551 410.257C642.619 417.71 634.605 419.856 628.717 432.606C622.688 445.663 619.917 456.928 615.323 470.429C605.402 499.582 584.886 518.901 558.036 532.167C555.851 533.246 552.595 534.38 550.638 535.515L549.984 535.904L551.248 535.89C601.136 535.651 628.246 592.339 591.693 628.488C624.115 662.04 608.19 709.367 565.054 723.084C571.272 748.172 554.465 781.16 527.977 784.302C529.329 810.348 519.871 828.429 496.588 840.403C504.274 860.325 496.607 881.543 482.179 896.191C472.059 906.102 461.052 910.374 447.069 911.633C439.016 966.003 358.683 974.215 342.448 918.13C337.788 902.029 342.124 887.293 350.101 873.257C307.873 868.603 289.007 824.6 314.072 790.315C277.91 783.153 259.405 752.505 269.919 717.195L268.855 717.05C219.697 710.019 199.068 647.577 239.475 615.984C243.14 613.119 247.259 610.931 251.044 608.149C189.264 563.089 244.142 479.328 301.997 508.238C308.905 463.975 354.565 440.579 392.734 465.558C394.709 466.852 397.473 468.273 399.571 469.446C411.829 430.824 387.332 391 360.088 365.466C354.948 360.268 346.585 354.791 345.794 346.813C344.606 334.82 351.92 326.878 363.234 325.307ZM317.242 704.614C298.623 712.007 278.64 746.075 296.277 746.905C301.809 742.601 296.695 724.74 316.885 714.578C326.185 709.896 325.089 704.06 317.242 704.614ZM246.388 671.748C251.351 669.41 249.275 665.334 249.529 660.509C250.713 638.12 270.87 637.579 272.787 630.289C272.453 626.842 269.211 625.761 266.23 625.445C255.16 630.427 246.707 637.67 242.38 649.404C240.033 655.769 235.206 672.224 246.388 671.748ZM366.384 909.699C374.49 906.722 368.887 895.183 378.394 888.491C383.751 884.721 389.516 876.108 380.187 876.079C367.467 880.665 352.251 905.881 366.384 909.699ZM327.574 836.353C335.679 834.6 330.848 822.735 335.328 814.381C335.409 814.227 355.805 797.042 341.581 797.015C326.505 801.343 315.181 831.508 327.574 836.353ZM364.561 346.151C365.641 343.373 366.547 340.48 367.476 337.643C359.037 335.226 353.347 341.81 358.627 348.827C361.163 348.188 362.438 347.609 364.561 346.151Z" fill="black"/>
<path d="M439.897 451.474C437.454 427.614 443.905 408.319 459.174 389.196C486.648 354.79 522.143 360.331 554.628 342.128C559.543 365.622 557.849 392.701 545.589 413.806C543.254 417.825 535.586 418.446 536.844 424.864C538.365 434.639 556.007 421.881 559.836 420.177C577.054 412.514 605.292 411.596 621.942 421.29C596.276 469.81 608.478 502.555 539.104 528.019L532.983 520.282C515.908 502.893 506.356 500.082 482.494 500.439C509.983 480.448 527.968 463.892 565.69 462.079C582.705 461.26 576.38 450.903 569.853 450.913C526.681 450.977 498.964 471.845 469.449 498.788C467.376 463.655 487.38 419.032 518.737 401.404C528.169 396.102 522.122 385.565 510.182 393.459C478.526 414.389 463.973 447.925 458.63 483.977C451.43 478.029 448.073 474.548 439.421 471.325C439.675 464.619 439.851 458.183 439.897 451.474Z" fill="#5CB05B"/>
<path d="M439.897 451.474C437.454 427.614 443.905 408.319 459.174 389.196C486.648 354.79 522.143 360.331 554.628 342.128C559.543 365.622 557.849 392.701 545.589 413.806C543.254 417.825 535.586 418.446 536.844 424.864C538.365 434.639 556.007 421.881 559.836 420.177C577.054 412.514 605.292 411.596 621.942 421.29C596.276 469.81 608.478 502.555 539.104 528.019L532.983 520.282C575.187 495.41 588.31 475.629 601.521 430.238C584.294 426.018 567.504 430.39 551.726 435.9C519.516 447.146 520.911 426.224 532.898 404.974C539.522 393.232 542.891 375.968 543.075 362.344C492.899 371.206 458.556 389.609 443.408 440.556C442.614 443.223 441.253 449.504 439.897 451.474Z" fill="#3B9038"/>
<path d="M454.422 765.261C435.974 762.966 420.852 749.533 416.396 731.484C411.94 713.435 419.077 694.508 434.338 683.893C449.599 673.277 469.826 673.17 485.197 683.625C502.34 695.282 509.265 717.164 501.953 736.56C494.639 755.957 474.992 767.821 454.422 765.261Z" fill="#9537AC"/>
<path d="M485.197 683.625C502.339 695.282 509.265 717.164 501.952 736.56C494.639 755.957 474.992 767.821 454.422 765.262C456.231 763.733 461.642 762.845 464.104 762.303C494.927 755.529 508.989 723.781 492.548 696.638C490.328 692.974 485.812 687.703 485.197 683.625Z" fill="#841B99"/>
<path d="M444.78 689.715C447.968 689.455 452.191 690.51 451.536 694.855C450.261 703.303 432.093 699.998 436.582 723.812C437.426 728.286 437.222 729.56 433.184 731.574C416.949 731.32 425.48 698.672 444.78 689.715Z" fill="#FDF8FA"/>
<path d="M549.363 623.976C573.853 621.248 595.902 638.931 598.558 663.431C601.212 687.929 583.465 709.925 558.958 712.508C534.554 715.081 512.668 697.422 510.024 673.026C507.38 648.629 524.974 626.691 549.363 623.976Z" fill="#9537AC"/>
<path d="M539.549 636.756C542.916 636.564 545.796 638.498 545.417 642.122C545.07 645.449 532.796 653.465 529.738 664.662C528.132 669.966 529.665 674.906 525.394 678.435C507.245 674.294 526.421 643.92 539.549 636.756Z" fill="#FDF8FA"/>
<path d="M412.999 824.968C416.919 823.546 421.68 821.899 425.295 819.981C427.732 818.689 431.849 814.631 434.58 814.042C444.939 811.816 455.15 813.737 464.216 818.293C498.893 832.41 495.586 883.362 460.46 898.277C454.501 900.881 442.953 902.646 436.761 900.813C400.716 897.039 388.259 846.754 412.999 824.968Z" fill="#C25BC9"/>
<path d="M464.216 818.293C498.893 832.41 495.586 883.362 460.46 898.277C454.501 900.881 442.953 902.646 436.761 900.813C438.628 899.426 450.836 896.919 454.48 895.258C481.176 883.096 491.294 850.333 471.871 827.104C470.042 824.916 464.986 820.643 464.216 818.293Z" fill="#9537AC"/>
<path d="M437.077 825.545C452.439 829.868 425.5 840.108 422.435 856.509C421.49 861.567 424.545 867.674 418.031 868.556C401.225 862.933 420.684 829.286 437.077 825.545Z" fill="#FDF8FA"/>
<path d="M466.008 577.221C490.248 575.824 511.06 594.28 512.57 618.513C514.081 642.747 495.723 663.644 471.497 665.269C447.109 666.905 426.042 648.398 424.521 624.003C423 599.609 441.605 578.628 466.008 577.221Z" fill="#9537AC"/>
<path d="M459.862 588.159C462.113 588.445 463.591 589.1 464.6 591.281C469.189 601.161 446.213 597.91 446.396 619.121C446.448 625.214 450.025 630.237 443.17 633.389C425.496 627.231 440.404 594.872 459.862 588.159Z" fill="#FDF8FA"/>
<path d="M348.461 773.004C339.801 774.789 332.84 778.453 323.555 779.434C300.297 781.892 280.375 763.571 278.675 740.453C276.066 704.958 322.722 682.196 345.717 702.562C354.739 705.524 366.28 720.248 368.757 730.03C365.766 732.239 364.421 733.365 361.81 736.062C351.554 746.355 348.722 759.168 348.461 773.004ZM296.277 746.905C301.809 742.601 296.695 724.74 316.885 714.578C326.185 709.896 325.089 704.06 317.242 704.614C298.623 712.007 278.64 746.075 296.277 746.905Z" fill="#C25BC9"/>
<path d="M345.717 702.562C354.739 705.524 366.281 720.248 368.757 730.029C365.766 732.239 364.421 733.365 361.81 736.061C359.506 719.026 351.387 714.731 344.123 702.387L345.717 702.562Z" fill="#9537AC"/>
<path d="M254.916 701.852C208.861 680.41 230.433 603.94 281.08 617.339C285.14 636.446 296.546 646.337 312.845 654.52C314.269 655.1 315.841 655.79 317.285 656.266C316.898 676.186 313.523 684.598 296.245 691.423C289.267 695.584 286.212 697.739 280.666 703.738C279.751 704.743 278.608 705.747 277.594 706.682C270.505 706.753 260.872 706.183 254.916 701.852ZM246.388 671.748C251.351 669.41 249.275 665.334 249.529 660.509C250.713 638.12 270.87 637.579 272.787 630.289C272.453 626.842 269.211 625.76 266.23 625.445C255.16 630.427 246.707 637.669 242.38 649.404C240.033 655.769 235.206 672.224 246.388 671.748Z" fill="#C25BC9"/>
<path d="M312.845 654.52C314.269 655.1 315.841 655.79 317.285 656.266C316.898 676.186 313.523 684.598 296.245 691.423C299.449 681.889 312.174 681.602 312.845 654.52Z" fill="#9537AC"/>
<path d="M254.915 701.852C258.513 699.008 275.521 703.219 280.666 703.738C279.75 704.743 278.607 705.747 277.594 706.682C270.505 706.753 260.871 706.183 254.915 701.852Z" fill="#9537AC"/>
<path d="M354.549 619.1C338.785 586.773 376.73 546.668 411.457 561.851C421.347 564.463 428.526 570.501 434.732 578.485L429.719 583.759C416.807 598.674 413.352 609.226 414.205 628.991C414.606 631.612 415.279 634.523 415.828 637.146C393.809 653.627 363.515 644.804 354.549 619.1Z" fill="#C25BC9"/>
<path d="M354.549 619.1C358.412 620.134 361.228 626.372 364.432 628.979C380.761 642.264 401.134 649.902 414.205 628.991C414.606 631.612 415.279 634.523 415.827 637.146C393.809 653.627 363.515 644.804 354.549 619.1Z" fill="#9537AC"/>
<path d="M411.457 561.852C421.346 564.463 428.525 570.501 434.732 578.485L429.719 583.759C426.26 577.885 411.947 563.721 411.457 561.852Z" fill="#9537AC"/>
<path d="M385.922 571.918C388.561 571.176 392.02 572.805 390.893 575.276C386.812 584.22 373.738 582.279 369.917 605.131C369.337 608.161 369.195 610.45 366.487 612.28C353.503 612.508 365.566 576.121 385.922 571.918Z" fill="#FDF8FA"/>
<path d="M395.586 730.673C398.753 730.011 403.022 730.589 406.303 730.929C405.59 751.361 426.698 765.802 442.765 773.784C441.754 796.286 428.814 811.173 406.538 815.118C346.996 822.23 343.809 733.602 395.586 730.673Z" fill="#9537AC"/>
<path d="M387.506 744.018C389.774 744.18 392.637 745.263 393.194 747.843C394.55 754.122 381.039 756.459 378.843 768.737C377.61 775.626 383.147 784.071 374.421 786.613C358.385 781.703 370.641 750.2 387.506 744.018Z" fill="#FDF8FA"/>
<path d="M274.786 514.094C282.649 512.653 295.253 515.579 301.709 520.253C308.881 534.722 306.236 536.047 318.21 551.809C297.416 561.3 278.053 580.269 280.03 605.039C217.437 599.069 223.958 518.331 274.786 514.094Z" fill="#C25BC9"/>
<path d="M281.586 529.647C283.829 529.559 285.623 530.093 285.79 532.938C285.819 540.414 264.896 539.477 265.312 567.339C263.355 569.955 262.249 570.913 259.094 571.505C246.79 567.381 260.102 534.983 281.586 529.647Z" fill="#FDF8FA"/>
<path d="M381.867 550.493C361.432 512.1 386.763 470.743 432.2 480.216C448.178 484.777 453.987 493.837 461.801 507.244C458.124 510.231 454.836 513.37 451.38 516.602C437.901 533.34 434.999 542.474 436.234 563.677C418.38 549.481 404.159 545.414 381.867 550.493Z" fill="#C25BC9"/>
<path d="M432.2 480.215C448.178 484.777 453.986 493.836 461.801 507.244C458.124 510.231 454.836 513.37 451.38 516.602C449.49 498.662 429.305 484.074 430.431 480.712L432.2 480.215Z" fill="#9537AC"/>
<path d="M413.211 488.678C415.026 488.662 417.753 489.527 418.252 491.388C420.039 498.053 397.428 501.957 395.194 523.218C394.761 527.342 395.205 530.31 391.08 532.095C375.031 529.272 393.948 493.025 413.211 488.678Z" fill="#FDF8FA"/>
<path d="M450.071 571.224C432.479 521.576 494.056 490.584 523.863 526.041C536.744 541.368 534.604 551.681 533.139 568.9C529.088 577.74 523.635 586.982 515.43 592.514C513.732 590.491 512.992 589.368 511.57 587.135C498.908 570.82 468.366 560.305 450.071 571.224Z" fill="#C25BC9"/>
<path d="M511.57 587.135C518.001 584.176 520.591 581.464 524.779 576.107L524.956 576.503C529.898 575.953 530.28 571.242 533.139 568.9C529.088 577.74 523.635 586.983 515.43 592.514C513.732 590.491 512.992 589.368 511.57 587.135Z" fill="#841B99"/>
<path d="M476.809 522.813C490.536 525.243 470.867 538.555 469.013 543.123C466.906 548.311 467.231 555.644 463.798 557.681C448.131 557.958 464.798 529.067 476.809 522.813Z" fill="#FDF8FA"/>
<path d="M388.96 862.952C389.71 863.811 390.621 870.66 391.24 872.515C398.444 894.117 413.701 908.209 436.508 911.379C433.177 929.336 417.153 942.825 399.511 945.755C365.185 950.643 339.431 914.479 356.633 884.699C366.134 868.249 365.717 875.002 376.864 869.707C381.186 867.654 384.665 864.984 388.96 862.952ZM366.384 909.699C374.49 906.722 368.887 895.183 378.395 888.49C383.751 884.721 389.516 876.108 380.188 876.079C367.468 880.665 352.252 905.88 366.384 909.699Z" fill="#9537AC"/>
<path d="M332.852 549.318C289.292 516.155 325.732 454.442 368.218 468.694C377.374 468.774 382.462 471.901 389.744 477.324C387.1 479.119 385.887 480.053 383.504 482.176C369.732 493.957 356.928 522.117 366.53 539.121C366.909 541.168 367.314 544.064 368.077 545.919C369.068 548.987 369.687 550.193 371.203 553.079C368.641 555.086 367.146 556.141 364.072 557.47C360.146 555.836 357.914 554.038 353.742 552.661C346.124 549.216 341.074 549.279 332.852 549.318Z" fill="#C25BC9"/>
<path d="M368.218 468.694C377.374 468.773 382.462 471.9 389.744 477.324C387.1 479.119 385.887 480.053 383.504 482.176C380.554 479.237 369.746 471.756 368.218 468.694Z" fill="#9537AC"/>
<path d="M368.077 545.919C369.068 548.987 369.687 550.194 371.203 553.079C368.64 555.086 367.146 556.141 364.072 557.47C360.146 555.837 357.914 554.039 353.742 552.661C355.489 551.704 357.811 550.589 359.676 549.961C362.467 549.186 365.679 547.541 368.077 545.919Z" fill="#841B99"/>
<path d="M359.676 549.961C361.172 546.966 364.578 542.044 366.53 539.121C366.909 541.168 367.314 544.064 368.077 545.919C365.679 547.54 362.467 549.186 359.676 549.961Z" fill="#9537AC"/>
<path d="M351.093 478.271C359.535 477.361 362.252 485.053 356.284 486.401C328.293 492.719 337.986 511.535 330.592 519.308C313.451 520.564 325.969 486.397 351.093 478.271Z" fill="#FDF8FA"/>
<path d="M348.218 783.151C352.198 784.754 354.874 823.335 399.531 825.907C395.074 832.374 390.325 846.148 388.836 848C382.567 855.801 373.089 860.444 363.792 862.349C330.095 867.597 302.196 837.369 317.62 804.687C324.471 790.169 333.961 787.887 348.218 783.151ZM327.574 836.352C335.679 834.6 330.848 822.735 335.328 814.381C335.409 814.227 355.805 797.042 341.581 797.015C326.505 801.343 315.181 831.508 327.574 836.352Z" fill="#9537AC"/>
<path d="M354.078 638.758C371.984 655.188 390.097 662.257 413.679 650.943C415.904 649.826 418.27 648.728 420.34 647.371C423.885 652.489 426.577 655.694 430.483 660.577C430.291 669.7 429.743 673.8 422.554 679.881C415.656 685.528 409.871 695.743 406.948 704.03C402.556 705.269 397.756 707.362 393.354 708.245C357.102 715.511 328.814 675.577 354.078 638.758Z" fill="#C25BC9"/>
<path d="M413.679 650.943C415.903 649.826 418.27 648.728 420.34 647.371C423.885 652.489 426.577 655.694 430.483 660.577C430.291 669.7 429.743 673.8 422.553 679.881C421.304 668.65 420.775 661.87 413.679 650.943Z" fill="#9537AC"/>
<path d="M357.145 655.581C364.738 656.302 361.635 663.774 362.039 668.972C362.249 674.559 368.371 685.827 362.928 689.416C353.133 688.116 349.039 661.301 357.145 655.581Z" fill="#FDF8FA"/>
<path d="M332.597 559.962C340.932 558.635 348.434 561.585 355.854 564.651C338.196 587.618 335.106 604.594 347.43 631.095C343.192 636.356 339.262 643.159 335.765 647.292C332.401 647.657 326.754 647.17 323.24 646.992C273.673 632.545 281.985 564.36 332.597 559.962Z" fill="#C25BC9"/>
<path d="M325.074 570.46C334.086 573.918 325.535 579.664 321.629 582.803C305.674 595.617 314.622 611.649 305.027 616.55C289.741 608.484 309.8 575.969 325.074 570.46Z" fill="#FDF8FA"/>
<path d="M545.38 545.899L556.64 546.169C581.729 549.98 601.911 571.591 597.764 597.525C596.063 608.167 591.674 613.474 584.834 621.28C580.4 619.136 574.253 615.626 569.367 615.778C553.627 609.237 537.53 614.031 523.296 621.781C522.719 613.641 522.308 610.283 520.172 602.541C542.349 585.792 545.027 571.286 545.38 545.899Z" fill="#C25BC9"/>
<path d="M556.64 546.169C581.729 549.979 601.91 571.59 597.764 597.525C596.063 608.166 591.674 613.474 584.834 621.279C580.4 619.136 574.253 615.626 569.367 615.778C581.426 593.019 580.888 577.971 565.161 556.663C562.979 553.707 558.087 549.308 556.64 546.169Z" fill="#9537AC"/>
<path d="M501.052 758.279C504.401 761.156 505.066 762.246 507.286 765.906C527.469 783.874 516.514 818 492.663 830.729C492.013 829.484 491.233 828.083 490.643 826.829C475.896 809.259 467.654 804.927 444.52 802.872C450.968 792.906 451.954 786.945 453.757 775.528C473.525 777.027 486.716 771.431 501.052 758.279Z" fill="#9537AC"/>
<path d="M507.286 765.906C527.469 783.874 516.514 817.999 492.663 830.729C492.013 829.484 491.233 828.083 490.643 826.829C507.216 816.23 513.436 796.065 509.96 777.387C509.34 774.052 506.661 769.061 507.286 765.906Z" fill="#841B99"/>
<path d="M512.774 703.332C524.9 716.742 535.147 720.979 552.379 723.965C553.316 724.037 555.133 723.942 555.325 724.876C560.417 749.561 547.426 766.205 525.363 775.764L523.202 769.917C518.304 759.351 515.933 756.916 507.694 748.86C516.334 734.083 516.921 719.403 512.774 703.332Z" fill="#9537AC"/>
<path d="M552.379 723.965C553.316 724.037 555.132 723.942 555.325 724.876C560.417 749.561 547.426 766.205 525.363 775.764L523.202 769.917C546.459 762.721 549.634 745.336 552.379 723.965Z" fill="#841B99"/>
<path d="M367.476 337.643C373.347 340.834 377.831 347.04 382.313 351.933C410.475 382.683 431.796 425.725 428.491 468.376C422.184 467.702 417.251 467.879 410.962 467.955C419.094 424.426 401.904 390.308 370.382 359.997C366.758 356.51 361.858 352.438 358.627 348.827C361.163 348.188 362.438 347.609 364.561 346.151C365.641 343.373 366.547 340.48 367.476 337.643Z" fill="#3B9038"/>
<path d="M325.171 658.053L332.977 658.24C332.383 664.96 336.366 685.405 335.828 686.802L334.812 687.079C328.864 684.587 329.033 684.498 322.344 684.386C325.618 675.502 325.669 667.345 325.171 658.053Z" fill="#841B99"/>
<path d="M500.766 666.069C501.874 671.74 500.548 675.948 502.828 684.195C499.402 680.703 498.658 679.686 494.218 677.688C490.967 674.34 489.722 673.979 485.344 672.612C488.992 670.608 496.863 667.357 500.766 666.069Z" fill="#C25BC9"/>
<path d="M402.146 716.794C406.066 716.199 405.585 721.335 400.563 721.151C391.489 720.818 385.978 721.349 377.683 725.05C376.53 722.972 376.352 720.859 376.052 718.555C388.584 719.105 390.097 719.483 402.146 716.794Z" fill="#841B99"/>
</svg>
