<svg width="849" height="1183" viewBox="0 0 849 1183" fill="none" xmlns="http://www.w3.org/2000/svg">
<rect x="5" y="5" width="839" height="1173" rx="45" fill="white"/>
<rect x="5" y="5" width="839" height="1173" rx="45" stroke="black" stroke-width="10"/>
<circle cx="786.5" cy="1124.5" r="11.5" fill="black"/>
<circle cx="786.5" cy="59.5" r="11.5" fill="black"/>
<path d="M77 1124.5C77 1130.85 71.8513 1136 65.5 1136C59.1487 1136 54 1130.85 54 1124.5C54 1118.15 59.1487 1113 65.5 1113C71.8513 1113 77 1118.15 77 1124.5Z" fill="black"/>
<path d="M77 59.5C77 65.8513 71.8513 71 65.5 71C59.1487 71 54 65.8513 54 59.5C54 53.1487 59.1487 48 65.5 48C71.8513 48 77 53.1487 77 59.5Z" fill="black"/>
<mask id="path-6-inside-1_1_4507" fill="white">
<path d="M708 48C713.523 48 717.934 52.4996 718.616 57.9801C723.122 94.1833 751.817 122.878 788.02 127.384C793.5 128.066 798 132.477 798 138V1046C798 1051.52 793.5 1055.93 788.02 1056.62C751.817 1061.12 723.122 1089.82 718.616 1126.02C717.934 1131.5 713.523 1136 708 1136H141C135.477 1136 131.066 1131.5 130.384 1126.02C125.878 1089.82 97.1833 1061.12 60.9801 1056.62C55.4996 1055.93 51 1051.52 51 1046V138C51 132.477 55.4996 128.066 60.9801 127.384C97.1833 122.878 125.878 94.1833 130.384 57.9801C131.066 52.4996 135.477 48 141 48H708Z"/>
</mask>
<path d="M708 48C713.523 48 717.934 52.4996 718.616 57.9801C723.122 94.1833 751.817 122.878 788.02 127.384C793.5 128.066 798 132.477 798 138V1046C798 1051.52 793.5 1055.93 788.02 1056.62C751.817 1061.12 723.122 1089.82 718.616 1126.02C717.934 1131.5 713.523 1136 708 1136H141C135.477 1136 131.066 1131.5 130.384 1126.02C125.878 1089.82 97.1833 1061.12 60.9801 1056.62C55.4996 1055.93 51 1051.52 51 1046V138C51 132.477 55.4996 128.066 60.9801 127.384C97.1833 122.878 125.878 94.1833 130.384 57.9801C131.066 52.4996 135.477 48 141 48H708Z" fill="#DBEE71"/>
<path d="M130.384 1126.02L138.322 1125.03L130.384 1126.02ZM718.616 1126.02L710.678 1125.03L718.616 1126.02ZM788.02 1056.62L789.008 1064.56L788.02 1056.62ZM718.616 57.9801L726.555 56.9922L718.616 57.9801ZM718.616 57.9801L710.678 58.9681C715.635 98.8063 747.194 130.365 787.032 135.322L788.02 127.384L789.008 119.445C756.44 115.392 730.608 89.5603 726.555 56.9922L718.616 57.9801ZM798 138H790V1046H798H806V138H798ZM788.02 1056.62L787.032 1048.68C747.194 1053.64 715.635 1085.19 710.678 1125.03L718.616 1126.02L726.555 1127.01C730.608 1094.44 756.44 1068.61 789.008 1064.56L788.02 1056.62ZM708 1136V1128H141V1136V1144H708V1136ZM130.384 1126.02L138.322 1125.03C133.365 1085.19 101.806 1053.64 61.9681 1048.68L60.9801 1056.62L59.9922 1064.56C92.5603 1068.61 118.392 1094.44 122.445 1127.01L130.384 1126.02ZM51 1046H59V138H51H43V1046H51ZM60.9801 127.384L61.9681 135.322C101.806 130.365 133.365 98.8063 138.322 58.9681L130.384 57.9801L122.445 56.9922C118.392 89.5603 92.5603 115.392 59.9922 119.445L60.9801 127.384ZM141 48V56H708V48V40H141V48ZM130.384 57.9801L138.322 58.9681C138.438 58.0389 138.872 57.2306 139.427 56.6958C139.954 56.1887 140.494 56 141 56V48V40C130.84 40 123.547 48.1329 122.445 56.9922L130.384 57.9801ZM51 138H59C59 137.494 59.1887 136.954 59.6958 136.427C60.2306 135.872 61.0389 135.438 61.9681 135.322L60.9801 127.384L59.9922 119.445C51.1329 120.547 43 127.84 43 138H51ZM60.9801 1056.62L61.9681 1048.68C61.0389 1048.56 60.2306 1048.13 59.6958 1047.57C59.1887 1047.05 59 1046.51 59 1046H51H43C43 1056.16 51.1329 1063.45 59.9922 1064.56L60.9801 1056.62ZM141 1136V1128C140.494 1128 139.954 1127.81 139.427 1127.3C138.872 1126.77 138.438 1125.96 138.322 1125.03L130.384 1126.02L122.445 1127.01C123.547 1135.87 130.84 1144 141 1144V1136ZM718.616 1126.02L710.678 1125.03C710.562 1125.96 710.128 1126.77 709.573 1127.3C709.046 1127.81 708.506 1128 708 1128V1136V1144C718.16 1144 725.453 1135.87 726.555 1127.01L718.616 1126.02ZM798 1046H790C790 1046.51 789.811 1047.05 789.304 1047.57C788.769 1048.13 787.961 1048.56 787.032 1048.68L788.02 1056.62L789.008 1064.56C797.867 1063.45 806 1056.16 806 1046H798ZM788.02 127.384L787.032 135.322C787.961 135.438 788.769 135.872 789.304 136.427C789.811 136.954 790 137.494 790 138H798H806C806 127.84 797.867 120.547 789.008 119.445L788.02 127.384ZM718.616 57.9801L726.555 56.9922C725.453 48.1329 718.16 40 708 40V48V56C708.506 56 709.046 56.1887 709.573 56.6958C710.128 57.2306 710.562 58.0389 710.678 58.9681L718.616 57.9801Z" fill="black" mask="url(#path-6-inside-1_1_4507)"/>
<path d="M690 102C695.523 102 699.911 106.512 700.837 111.957C705.019 136.563 724.437 155.981 749.043 160.163C754.488 161.089 759 165.477 759 171V1014C759 1019.52 754.488 1023.91 749.043 1024.84C724.711 1028.97 705.454 1048 700.984 1072.22C699.993 1077.59 695.633 1082 690.175 1082H158.825C153.367 1082 149.007 1077.59 148.016 1072.22C143.546 1048 124.288 1028.97 99.9568 1024.84C94.5121 1023.91 90 1019.52 90 1014V171C90 165.477 94.512 161.089 99.9568 160.163C124.563 155.981 143.981 136.563 148.163 111.957C149.089 106.512 153.477 102 159 102H690Z" fill="#DFE4C2"/>
<mask id="path-9-outside-2_1_4507" maskUnits="userSpaceOnUse" x="418" y="1007" width="10" height="31" fill="black">
<rect fill="white" x="418" y="1007" width="10" height="31"/>
<path d="M418.8 1012V1007.84H427.12V1037H422.52V1012H418.8Z"/>
</mask>
<path d="M418.8 1012V1007.84H427.12V1037H422.52V1012H418.8Z" fill="black"/>
<path d="M418.8 1012H418.5V1012.3H418.8V1012ZM418.8 1007.84V1007.54H418.5V1007.84H418.8ZM427.12 1007.84H427.42V1007.54H427.12V1007.84ZM427.12 1037V1037.3H427.42V1037H427.12ZM422.52 1037H422.22V1037.3H422.52V1037ZM422.52 1012H422.82V1011.7H422.52V1012ZM418.8 1012H419.1V1007.84H418.8H418.5V1012H418.8ZM418.8 1007.84V1008.14H427.12V1007.84V1007.54H418.8V1007.84ZM427.12 1007.84H426.82V1037H427.12H427.42V1007.84H427.12ZM427.12 1037V1036.7H422.52V1037V1037.3H427.12V1037ZM422.52 1037H422.82V1012H422.52H422.22V1037H422.52ZM422.52 1012V1011.7H418.8V1012V1012.3H422.52V1012Z" fill="black" mask="url(#path-9-outside-2_1_4507)"/>
<path d="M366.635 197.975V214.355H346.895V272H326.315V214.355H306.785V197.975H366.635ZM394.829 223.49C397.139 220.13 399.939 217.47 403.229 215.51C406.519 213.55 410.054 212.57 413.834 212.57V234.515H408.059C403.579 234.515 400.254 235.39 398.084 237.14C395.914 238.89 394.829 241.935 394.829 246.275V272H374.249V213.095H394.829V223.49ZM477.492 241.865C477.492 243.475 477.387 245.085 477.177 246.695H438.222C438.432 249.915 439.307 252.33 440.847 253.94C442.457 255.48 444.487 256.25 446.937 256.25C450.367 256.25 452.817 254.71 454.287 251.63H476.232C475.322 255.69 473.537 259.33 470.877 262.55C468.287 265.7 464.997 268.185 461.007 270.005C457.017 271.825 452.607 272.735 447.777 272.735C441.967 272.735 436.787 271.51 432.237 269.06C427.757 266.61 424.222 263.11 421.632 258.56C419.112 254.01 417.852 248.655 417.852 242.495C417.852 236.335 419.112 231.015 421.632 226.535C424.152 221.985 427.652 218.485 432.132 216.035C436.682 213.585 441.897 212.36 447.777 212.36C453.587 212.36 458.732 213.55 463.212 215.93C467.692 218.31 471.192 221.74 473.712 226.22C476.232 230.63 477.492 235.845 477.492 241.865ZM456.492 236.72C456.492 234.2 455.652 232.24 453.972 230.84C452.292 229.37 450.192 228.635 447.672 228.635C445.152 228.635 443.087 229.335 441.477 230.735C439.867 232.065 438.817 234.06 438.327 236.72H456.492ZM542.194 241.865C542.194 243.475 542.089 245.085 541.879 246.695H502.924C503.134 249.915 504.009 252.33 505.549 253.94C507.159 255.48 509.189 256.25 511.639 256.25C515.069 256.25 517.519 254.71 518.989 251.63H540.934C540.024 255.69 538.239 259.33 535.579 262.55C532.989 265.7 529.699 268.185 525.709 270.005C521.719 271.825 517.309 272.735 512.479 272.735C506.669 272.735 501.489 271.51 496.939 269.06C492.459 266.61 488.924 263.11 486.334 258.56C483.814 254.01 482.554 248.655 482.554 242.495C482.554 236.335 483.814 231.015 486.334 226.535C488.854 221.985 492.354 218.485 496.834 216.035C501.384 213.585 506.599 212.36 512.479 212.36C518.289 212.36 523.434 213.55 527.914 215.93C532.394 218.31 535.894 221.74 538.414 226.22C540.934 230.63 542.194 235.845 542.194 241.865ZM521.194 236.72C521.194 234.2 520.354 232.24 518.674 230.84C516.994 229.37 514.894 228.635 512.374 228.635C509.854 228.635 507.789 229.335 506.179 230.735C504.569 232.065 503.519 234.06 503.029 236.72H521.194Z" fill="black"/>
<path d="M417.611 322.327C450.087 319.348 479.461 336.939 493.731 365.713C541.016 347.36 589.242 379.306 596.467 428.693C643.34 437.685 664.594 487.383 652.387 531.134C678.37 550.682 691.379 579.584 682.851 612.066C677.098 633.977 665.327 644.759 648.164 657.831C646.672 707.006 608.656 739.049 560.556 735.083C533.174 773.281 504.225 791.952 455.818 773.259C454.563 813.381 460.719 889.449 491.329 916.265C503.241 926.701 525.807 924.737 529.154 952.073C529.565 955.432 528.09 960.345 524.176 960.472C512.211 960.86 495.622 961.852 484.028 960.265C478.939 959.568 469.371 947.719 460.141 950.003C446.609 950.792 442.46 961.067 426.133 962C407.488 961.628 401.822 950.576 388.446 950.765C381.285 950.865 375.654 951.184 369.697 956.066C362.087 962.3 357.062 961.004 347.615 960.982L320.722 960.943C310.72 950.018 332.642 924.387 344.737 922.406C349.117 920.835 357.097 917.679 359.966 913.953C388.647 876.717 393.055 814.294 393.008 770.428C348.938 792.314 304.397 780.586 283.165 733.941C232.745 744.189 194.221 700.553 197.64 651.222C177.059 638.185 163.835 608.168 164.002 584.372C164.179 559.005 176.493 540.618 193.788 523.477C182.556 487.218 209.309 445.935 242.861 431.721C245.844 430.457 249.265 428.911 252.532 428.693C258.497 379.845 313.179 342.033 355.773 367.392C365.629 342.534 391.059 324.435 417.611 322.327Z" fill="black"/>
<path d="M336.286 372.443C365.43 378.338 354.46 392.131 369.394 365.77C395.113 320.376 462.414 323.486 483.75 372.565C489.216 384.751 497.452 374.809 508.382 373.111C542.504 366.794 574.481 389.176 583.363 421.739C590.345 447.331 578.718 431.853 604.169 443.024C630.917 454.765 647.203 482.462 644.27 511.543C643.469 519.489 640.265 527.6 640.185 534.983C641.912 538.219 644.096 539.848 647.067 541.96C681.978 566.796 682.804 617.679 648.341 643.296C644.503 646.151 640 648.22 636.28 651.221C636.804 672.52 633.092 687.991 617.889 704.006C590.128 733.251 557.798 719.652 551.858 726.508C548.277 730.642 546.159 736.653 542.714 740.915C521.238 767.481 489.253 776.325 457.993 762.567C458.001 757.017 459.501 741.457 463.68 737.573C465.638 727.115 468.147 720.412 473.498 710.858C480.194 710.868 509.088 703.729 500.351 694.176C493.401 686.575 472.028 712.75 451.827 687.345C447.685 683.487 450.132 679.367 448.06 676.44C443.348 669.785 435.075 675.551 437.149 683.187C438.059 686.531 437.522 691.28 436.4 694.099C433.493 702.185 430.401 710.266 428.22 718.574C421.861 699.318 414.216 686.756 399.773 672.203C381.124 653.417 387.19 672.677 377.365 685.635C370.354 679.386 363.595 673.007 353.789 671.929C346.685 677.001 348.201 681.07 355.697 684.266C374.98 692.491 383.542 714.69 386.999 733.941C390.25 738.197 390.659 751.364 393.007 758.054C375.168 766.893 361.381 774.001 340.799 769.272C322.99 765.187 307.764 754.558 298.15 738.956C286.267 719.672 297.483 720.928 276.713 723.487C234.627 728.675 201.072 687.423 210.022 647.286C207.176 644.161 201.865 640.367 198.41 637.117C171.407 611.722 166.491 569.945 191.656 541.591C205.115 526.424 206.846 533.593 203.59 512.161C200.306 479.387 227.991 441.064 261.04 438.488C264.3 435.04 264.395 423.66 266.184 418.43C277.225 386.122 302.51 368.968 336.286 372.443Z" fill="#10CC38"/>
<path d="M261.04 438.488C264.3 435.04 264.395 423.66 266.184 418.43C277.225 386.122 302.51 368.968 336.286 372.443C307.125 378.018 284.223 410.351 282.579 439.13C281.271 449.176 283.737 452.969 272.196 456.508C244.966 464.858 243.459 509.076 250.582 511.434C235.087 521.026 244.961 545.237 254.824 556.133C237.175 562.22 239.996 589.305 244.587 603.081C248.373 614.438 252.923 619.405 261.04 627.678C264.474 625.508 268.013 625.635 272.037 625.331C269.032 621.101 267.345 620.442 263.688 617.173C255.242 609.62 274.537 598.502 281.738 623.812C301.627 617.103 310.916 631.065 313.386 648.693C313.402 651.114 313.648 656.544 313.386 658.695C323.375 666.166 333.056 666.396 340.967 656.638C368.475 622.707 426.989 642.677 421.717 691.689C426.406 692.792 431.605 693.566 436.4 694.099C433.493 702.185 430.401 710.266 428.22 718.574C421.861 699.318 414.216 686.756 399.773 672.203C381.124 653.417 387.19 672.677 377.365 685.635C370.354 679.386 363.595 673.007 353.789 671.929C346.685 677.001 348.201 681.07 355.697 684.266C374.98 692.491 383.542 714.69 386.999 733.941C390.25 738.197 390.659 751.364 393.007 758.054C375.168 766.893 361.381 774.001 340.799 769.272C322.99 765.187 307.764 754.558 298.15 738.956C286.267 719.672 297.483 720.928 276.713 723.487C234.627 728.675 201.072 687.423 210.022 647.286C207.176 644.161 201.865 640.367 198.41 637.117C171.407 611.722 166.491 569.945 191.656 541.591C205.115 526.424 206.846 533.593 203.59 512.16C200.306 479.387 227.991 441.064 261.04 438.488Z" fill="#187F2B"/>
<path d="M210.022 647.287C207.176 644.162 201.865 640.367 198.41 637.118C171.407 611.723 166.491 569.946 191.656 541.592C205.115 526.424 206.845 533.594 203.59 512.161C200.306 479.387 227.991 441.064 261.04 438.488C241.921 468.06 215.478 484.626 222.623 522.763C224.169 531.017 228.39 535.378 221.362 541.742C195.657 565.017 195.208 607.492 223.115 629.373C225.769 631.454 230.521 635.275 232.335 638.049C228.934 654.773 228.427 665.743 238.35 681.265C248.83 697.657 271.987 705.441 290.737 702.504C307.362 699.901 302.738 705.172 310.895 719.235C325.384 744.213 357.93 754.674 382.596 737.668C383.715 736.896 386.694 735.072 386.999 733.942C390.25 738.198 390.658 751.366 393.007 758.055C375.167 766.895 361.381 774.002 340.799 769.273C322.99 765.188 307.763 754.559 298.15 738.957C286.267 719.673 297.482 720.93 276.713 723.488C234.627 728.676 201.072 687.424 210.022 647.287Z" fill="#005A03"/>
<path d="M272.038 625.333C269.032 621.102 267.345 620.444 263.689 617.175C255.243 609.622 274.537 598.504 281.739 623.814C301.627 617.105 310.916 631.067 313.386 648.695C313.403 651.116 313.648 656.546 313.386 658.697C311.109 662.302 309.045 667.342 306.807 671.091C272.407 727.694 214.235 636.956 261.04 627.68C264.474 625.51 268.013 625.637 272.038 625.333Z" fill="black"/>
<path d="M276.919 636.681C284.976 633.931 282.884 632.908 292.891 632.894C313.036 645.192 294.627 689.988 270.179 674.241C253.592 663.384 246.356 635.548 269.227 637.956L269.783 638.01C269.893 638.022 270.005 638.036 270.116 638.048C272.361 637.642 274.676 637.14 276.919 636.681Z" fill="#FF0000"/>
<path d="M276.92 636.679C280.164 638.295 285.918 635.126 290.679 634.631C306.979 647.177 295.701 680.066 276.025 660.77C272.386 657.202 260.726 638.775 270.117 638.047C272.362 637.641 274.677 637.138 276.92 636.679Z" fill="#FF0000"/>
<path d="M625.588 654.202C629.689 652.85 632.056 652.17 636.281 651.222C636.804 672.52 633.093 687.992 617.89 704.007C590.129 733.251 557.799 719.653 551.859 726.509C548.278 730.643 546.16 736.654 542.715 740.916C521.238 767.482 489.253 776.326 457.994 762.568C458.001 757.018 459.502 741.458 463.681 737.574C465.639 727.116 468.148 720.413 473.499 710.859C480.194 710.869 509.089 703.73 500.352 694.177C493.402 686.576 472.028 712.751 451.828 687.345C469.262 687.58 485.441 692.139 500.706 679.579C503.471 677.305 505.565 674.293 508.341 671.93C519.087 672.405 527.664 671.312 538.271 670.161C561.89 701.589 587.313 690.125 596.467 657.832C606.137 657.441 616.068 655.901 625.588 654.202Z" fill="#187F2B"/>
<path d="M625.587 654.202C629.689 652.85 632.055 652.17 636.28 651.222C636.804 672.52 633.093 687.992 617.889 704.007C590.129 733.251 557.798 719.653 551.858 726.509C548.277 730.643 546.159 736.654 542.714 740.916C521.238 767.482 489.253 776.326 457.993 762.568C458.001 757.018 459.501 741.458 463.68 737.574C487.896 750.935 509.897 745.31 527.559 723.777C543.705 704.098 527.6 701.008 559.889 701.721C593.557 703.535 617.186 687.312 625.587 654.202Z" fill="#005A03"/>
<path d="M270.116 503.756C267.433 498.795 264.52 496.523 261.287 492.241C258.118 488.04 270.373 477.06 279.908 500.95L280.029 501.26C310.108 494.142 317.685 530.544 303.497 551.291C301.307 554.493 299.215 557.349 296.748 560.169C280.951 572.482 269.957 568.943 254.825 556.133C244.961 545.237 235.088 521.026 250.582 511.434C256.686 505.291 261.688 504.847 270.116 503.756Z" fill="black"/>
<path d="M276.919 514.097C277.027 513.385 277.116 512.738 277.193 512.024L277.828 511.971L278.308 512.728C283.132 511.638 285.724 511.374 290.678 511.435C308.323 520.786 296.019 569.46 267.687 551.679C252.176 541.946 245.329 514.478 270.116 515.552C272.327 515.484 274.743 514.684 276.919 514.097Z" fill="#FF0000"/>
<path d="M276.919 514.095C281.366 514.178 286.555 513.545 290.678 514.095C294.108 517.042 296.48 522.152 296.527 526.664C296.933 565.694 254.926 530.97 270.116 515.55C272.327 515.482 274.743 514.683 276.919 514.095Z" fill="#FF0000"/>
<path d="M558.372 623.811C555.709 617.674 551.188 615.747 549.301 610.964C545.597 601.57 564.3 598.216 569.512 623.811C591.503 622.383 602.463 635.111 596.467 657.83C587.312 690.124 561.89 701.587 538.27 670.16C531.287 659.869 526.583 642.544 535.248 631.655C540.469 625.092 550.621 624.591 558.372 623.811Z" fill="black"/>
<path d="M560.556 635.838C567.717 635.7 570.793 632.902 579.184 635.838C580.779 636.093 582.661 636.341 584.216 636.682C590.811 652.529 580.907 672.307 565.902 678.337C546.17 669.829 526.472 633.512 560.556 635.838Z" fill="#FF0000"/>
<path d="M560.556 635.838C567.718 635.7 570.793 632.902 579.184 635.838C593.342 650.853 576.235 677.377 561.961 659.884C555.123 651.505 551.042 643.015 560.556 635.838Z" fill="#FF0000"/>
<path d="M254.825 556.132C269.957 568.942 280.951 572.48 296.748 560.167C296.39 563.294 295.09 566.565 294.19 569.597C287.511 591.772 291.142 600.418 311.788 609.517C329.177 617.178 329.946 634.95 316.037 646.52C315.327 647.11 313.807 647.87 313.386 648.692C310.916 631.065 301.627 617.103 281.739 623.812C274.537 598.501 255.243 609.62 263.688 617.172C267.345 620.441 269.032 621.1 272.037 625.33C268.013 625.635 264.474 625.508 261.04 627.677C252.923 619.404 248.373 614.438 244.587 603.08C239.997 589.304 237.176 562.219 254.825 556.132Z" fill="#19A825"/>
<path d="M484.432 416.496C492.974 415.217 498.702 428.799 501.224 435.032C545.212 425.263 535.297 497.697 498.467 501.26C472.455 498.584 449.463 464.15 467.126 443.59C473.069 436.671 481.445 436.545 489.98 436.106C486.804 428.909 471.261 420.669 484.432 416.496Z" fill="black"/>
<path d="M508.34 446.526C520.892 441.831 520.073 465.933 516.279 473.186C514.496 478.057 504.131 489.21 498.615 489.64C483.26 490.838 451.915 447.415 492.222 447.712C499.154 447.261 500.3 445.501 508.34 446.526Z" fill="#FF0000"/>
<path d="M516.279 473.187C514.497 478.058 504.131 489.211 498.615 489.641C483.26 490.839 451.915 447.416 492.222 447.713C478.891 457.235 498.086 492.22 513.247 474.724C514.63 473.991 516.192 472.009 516.232 470.419L516.416 470.354C516.22 471.515 516.115 471.994 516.279 473.187Z" fill="#FF0000"/>
<path d="M508.34 446.526C520.892 441.831 520.073 465.933 516.279 473.186C516.115 471.993 516.219 471.514 516.416 470.353L516.232 470.418C516.192 472.008 514.63 473.99 513.247 474.723C518.76 465.608 520.426 450.755 508.34 446.526Z" fill="#F82C16"/>
<path d="M463.68 584.356C471.063 585.88 475.474 594.303 477.791 600.764L478.303 600.696C516.766 595.85 515.006 662.849 471.398 666.898C436.253 667.833 416.846 601.871 466.427 602.672C463.727 597.121 460.224 595.118 457.993 590.437C459.492 586.547 460.001 586.084 463.68 584.356Z" fill="black"/>
<path d="M473.498 613.545C475.322 610.751 483.488 611.665 486.506 611.973C490.211 614.673 493.665 617.145 493.73 622.159C497.294 636.102 486.616 655.123 471.313 655.703C451.777 656.5 440.253 621.094 455.894 615.122C458.82 614.006 465.328 614.609 468.681 614.697C470.097 614.577 472.191 614.061 473.498 613.545Z" fill="#FF0000"/>
<path d="M493.73 622.16C497.294 636.104 486.616 655.125 471.313 655.705C451.777 656.501 440.253 621.096 455.894 615.124C458.82 614.008 465.328 614.611 468.681 614.699C458.806 624.594 466.642 646.476 480.799 647.124C488.465 647.476 491.978 633.102 493.73 627.678C493.821 627.271 493.738 622.884 493.73 622.16Z" fill="#FF0000"/>
<path d="M473.498 613.545C475.323 610.751 483.488 611.665 486.506 611.973C490.211 614.673 493.665 617.145 493.73 622.159C493.738 622.882 493.821 627.269 493.73 627.676C491.469 619.621 492.171 618.594 484.432 613.545C480.281 613.128 477.606 613.128 473.498 613.545Z" fill="#F82C16"/>
<path d="M337.724 398.587C347.311 398.402 351.677 408.298 352.286 416.497C404.326 412.848 381.975 478.145 352.286 482.895C319.199 484.974 291.484 418.459 341.967 418.144C339.855 409.672 329.494 403.736 337.724 398.587Z" fill="black"/>
<path d="M347.521 428.693C351.117 427.041 361.009 426.719 364.755 428.122C381.879 434.538 367.732 467.316 350.381 471.857C324.913 464.421 313.309 427.615 343.197 429.615C344.402 429.278 346.246 428.958 347.521 428.693Z" fill="#FF0000"/>
<path d="M347.521 428.693C351.117 427.041 361.009 426.719 364.755 428.122C381.879 434.538 367.732 467.316 350.381 471.857C324.913 464.421 313.309 427.615 343.197 429.615C328.994 442.952 355.967 478.724 367.487 452.01C376.557 430.981 362.458 428.798 347.521 428.693Z" fill="#FF0000"/>
<path d="M411.141 486.414C418.209 487.386 423.792 497.746 426.132 503.756C469.446 496.934 459.341 570.194 421.717 570.077C396.251 564.855 373.526 534.394 394.556 512.45C400.412 506.339 407.295 506.949 414.967 506.946C412.093 496.712 395.857 491.279 411.141 486.414Z" fill="black"/>
<path d="M416.387 518.349C423.248 516.386 424.217 515.303 432.458 514.095C442.288 516.246 445.224 527.307 443.271 536.068C440.396 548.96 432.754 552.78 423.107 560.167L422.568 559.784C419.761 557.814 415.959 555.854 412.313 554.026C393.946 544.818 391.584 513.698 416.387 518.349Z" fill="#FF0000"/>
<path d="M432.458 514.095C442.288 516.246 445.224 527.307 443.271 536.068C440.396 548.96 432.754 552.78 423.107 560.167L422.568 559.784C419.761 557.814 415.959 555.854 412.313 554.026C393.946 544.818 391.584 513.698 416.387 518.349C399.679 529.347 435.911 571.961 441.448 532.628C442.814 522.931 436.836 520.174 432.458 514.095Z" fill="#FF0000"/>
<path d="M567.274 490.145C575.054 490.042 581.206 500.96 584.216 506.946C590.359 506.345 597.858 505.594 603.305 508.736C626.821 522.305 610.175 566.865 584.216 574.26C558.469 574.827 520.544 513.838 572.54 508.601C568.837 501.513 555.674 495.877 567.274 490.145Z" fill="black"/>
<path d="M592.429 518.349C610.111 516.022 604.797 550.383 582.943 562.97C573.037 557.543 562.505 551.169 559.66 539.507C555.991 524.468 561.077 519.656 576.007 520.828C582.224 519.359 586.053 518.792 592.429 518.349Z" fill="#FF0000"/>
<path d="M576.009 520.83C582.226 519.361 586.055 518.793 592.431 518.351C608.469 524.564 598.691 560.778 581.264 546.704C574.893 541.557 568.462 527.421 576.009 520.83Z" fill="#FF0000"/>
<path d="M412.858 359.585C437.149 358.678 459.566 367.231 466.801 392.844C468.538 398.993 465.897 402.802 459.76 403.949C450.303 401.541 451.665 374.61 422.341 373.979C414.178 373.803 408.341 376.05 404.424 367.392C406.386 362.008 407.034 360.639 412.858 359.585Z" fill="#F4FFF3"/>
<path d="M517.504 393.357C546.544 392.599 574.729 438.003 556.223 446.527C552.871 446.889 551.348 445.623 549.013 443.37C544.074 416.546 538.983 415.406 516.996 407.165C509.121 404.213 510.128 396.328 517.504 393.357Z" fill="#F4FFF3"/>
<path d="M640.186 571.966C660.553 570.556 653.897 622.297 636.281 628.809C632.125 628.765 629.978 625.482 628.074 622.162C634.956 604.592 645.384 601.931 634.697 578.681C636.011 574.925 636.729 573.801 640.186 571.966Z" fill="#F4FFF3"/>
<path d="M514.76 556.176C522.376 555.525 529.095 561.133 529.814 568.743C530.535 576.355 524.988 583.123 517.384 583.914C509.683 584.713 502.806 579.079 502.076 571.369C501.346 563.661 507.044 556.835 514.76 556.176Z" fill="#1E8B49"/>
<path d="M359.139 552.415C363.893 551.453 368.795 553.128 371.968 556.795C375.14 560.463 376.091 565.555 374.456 570.12C372.819 574.685 368.852 578.015 364.072 578.834C356.834 580.072 349.94 575.272 348.593 568.053C347.245 560.835 351.942 553.871 359.139 552.415Z" fill="#1E8B49"/>
<path d="M391.731 682.37L392.483 681.873C400.384 684.733 416.425 716.988 419.099 725.241C420.398 729.254 421.142 733.537 422.974 737.299L423.107 737.576C424.141 738.302 424.983 738.955 426.132 739.5C436.173 738.233 445.13 708.124 447.115 699.484C452.086 703.915 455.589 705.936 461.963 707.429C459.239 712.285 457.071 716.729 455.817 722.168C436.173 772.283 442.796 846.081 463.807 894.92C469.505 908.162 478.885 923.804 492.222 930.505C505.649 934.691 510.321 936.328 517.504 949.466C512.731 949.501 507.08 949.669 502.38 949.466H487.884C479.81 943.149 472.617 938.445 461.963 937.659C444.325 940.162 431.129 954.048 417.871 949.515C408.299 946.243 402.92 939.005 390.989 938.386C377.627 937.692 369.652 941.101 359.617 949.466C353.886 949.936 335.501 950.258 331.02 949.466C340.403 934.264 342.448 936.428 357.434 929.426C400.195 907.14 406.715 796.452 403.358 756.094C401.515 733.931 394.709 713.875 384.611 694.101C387.531 690.714 390.323 686.641 391.731 682.37Z" fill="#A77545"/>
<path d="M384.611 694.098C387.531 690.71 390.323 686.637 391.731 682.366C423.566 744.158 420.347 783.784 412.99 852.484C409.486 885.208 406.547 913.395 441.086 929.28C445.765 931.433 458.944 935.749 461.963 937.655C444.325 940.158 431.129 954.044 417.871 949.511C408.299 946.239 402.92 939.001 390.989 938.382C377.627 937.688 369.652 941.097 359.617 949.462C353.886 949.932 335.501 950.254 331.02 949.462C340.403 934.26 342.448 936.424 357.434 929.423C400.195 907.136 406.715 796.448 403.358 756.09C401.515 733.927 394.709 713.871 384.611 694.098Z" fill="#704928"/>
<path d="M447.115 699.481C452.086 703.911 455.589 705.933 461.963 707.426C459.239 712.282 457.071 716.726 455.817 722.165C446.205 722.981 438.008 744.321 426.132 739.497C436.173 738.23 445.13 708.121 447.115 699.481Z" fill="#704928"/>
<path d="M492.222 930.502C505.649 934.688 510.32 936.325 517.503 949.463C512.731 949.498 507.08 949.666 502.38 949.463C500.784 943.738 492.425 932.709 492.222 930.502Z" fill="#704928"/>
<path d="M429.772 831.312C443.1 830.506 442.543 862.472 434.071 865.34C420.928 866.269 423.622 845.942 424.402 836.781C425.881 833.415 426.485 832.829 429.772 831.312Z" fill="#F1C829"/>
<path d="M438.135 871.702C446.87 871.178 453.155 888.549 454.915 895.294L454.736 895.839C453.431 899.723 452.691 900.491 448.952 902.368C438.571 902.995 434.383 886.794 432.458 878.422C433.708 874.631 434.601 873.566 438.135 871.702Z" fill="#F1C829"/>
</svg>
