<svg width="849" height="1183" viewBox="0 0 849 1183" fill="none" xmlns="http://www.w3.org/2000/svg">
<rect x="5" y="5" width="839" height="1173" rx="45" fill="white"/>
<rect x="5" y="5" width="839" height="1173" rx="45" stroke="black" stroke-width="10"/>
<circle cx="786.5" cy="1124.5" r="11.5" fill="black"/>
<circle cx="786.5" cy="59.5" r="11.5" fill="black"/>
<path d="M77 1124.5C77 1130.85 71.8513 1136 65.5 1136C59.1487 1136 54 1130.85 54 1124.5C54 1118.15 59.1487 1113 65.5 1113C71.8513 1113 77 1118.15 77 1124.5Z" fill="black"/>
<path d="M77 59.5C77 65.8513 71.8513 71 65.5 71C59.1487 71 54 65.8513 54 59.5C54 53.1487 59.1487 48 65.5 48C71.8513 48 77 53.1487 77 59.5Z" fill="black"/>
<mask id="path-6-inside-1_1_66" fill="white">
<path d="M708 48C713.523 48 717.934 52.4996 718.616 57.9801C723.122 94.1833 751.817 122.878 788.02 127.384C793.5 128.066 798 132.477 798 138V1046C798 1051.52 793.5 1055.93 788.02 1056.62C751.817 1061.12 723.122 1089.82 718.616 1126.02C717.934 1131.5 713.523 1136 708 1136H141C135.477 1136 131.066 1131.5 130.384 1126.02C125.878 1089.82 97.1833 1061.12 60.9801 1056.62C55.4996 1055.93 51 1051.52 51 1046V138C51 132.477 55.4996 128.066 60.9801 127.384C97.1833 122.878 125.878 94.1833 130.384 57.9801C131.066 52.4996 135.477 48 141 48H708Z"/>
</mask>
<path d="M708 48C713.523 48 717.934 52.4996 718.616 57.9801C723.122 94.1833 751.817 122.878 788.02 127.384C793.5 128.066 798 132.477 798 138V1046C798 1051.52 793.5 1055.93 788.02 1056.62C751.817 1061.12 723.122 1089.82 718.616 1126.02C717.934 1131.5 713.523 1136 708 1136H141C135.477 1136 131.066 1131.5 130.384 1126.02C125.878 1089.82 97.1833 1061.12 60.9801 1056.62C55.4996 1055.93 51 1051.52 51 1046V138C51 132.477 55.4996 128.066 60.9801 127.384C97.1833 122.878 125.878 94.1833 130.384 57.9801C131.066 52.4996 135.477 48 141 48H708Z" fill="#7047A3"/>
<path d="M130.384 1126.02L138.322 1125.03L130.384 1126.02ZM718.616 1126.02L710.678 1125.03L718.616 1126.02ZM788.02 1056.62L789.008 1064.56L788.02 1056.62ZM718.616 57.9801L726.555 56.9922L718.616 57.9801ZM718.616 57.9801L710.678 58.9681C715.635 98.8063 747.194 130.365 787.032 135.322L788.02 127.384L789.008 119.445C756.44 115.392 730.608 89.5603 726.555 56.9922L718.616 57.9801ZM798 138H790V1046H798H806V138H798ZM788.02 1056.62L787.032 1048.68C747.194 1053.64 715.635 1085.19 710.678 1125.03L718.616 1126.02L726.555 1127.01C730.608 1094.44 756.44 1068.61 789.008 1064.56L788.02 1056.62ZM708 1136V1128H141V1136V1144H708V1136ZM130.384 1126.02L138.322 1125.03C133.365 1085.19 101.806 1053.64 61.9681 1048.68L60.9801 1056.62L59.9922 1064.56C92.5603 1068.61 118.392 1094.44 122.445 1127.01L130.384 1126.02ZM51 1046H59V138H51H43V1046H51ZM60.9801 127.384L61.9681 135.322C101.806 130.365 133.365 98.8063 138.322 58.9681L130.384 57.9801L122.445 56.9922C118.392 89.5603 92.5603 115.392 59.9922 119.445L60.9801 127.384ZM141 48V56H708V48V40H141V48ZM130.384 57.9801L138.322 58.9681C138.438 58.0389 138.872 57.2306 139.427 56.6958C139.954 56.1887 140.494 56 141 56V48V40C130.84 40 123.547 48.1329 122.445 56.9922L130.384 57.9801ZM51 138H59C59 137.494 59.1887 136.954 59.6958 136.427C60.2306 135.872 61.0389 135.438 61.9681 135.322L60.9801 127.384L59.9922 119.445C51.1329 120.547 43 127.84 43 138H51ZM60.9801 1056.62L61.9681 1048.68C61.0389 1048.56 60.2306 1048.13 59.6958 1047.57C59.1887 1047.05 59 1046.51 59 1046H51H43C43 1056.16 51.1329 1063.45 59.9922 1064.56L60.9801 1056.62ZM141 1136V1128C140.494 1128 139.954 1127.81 139.427 1127.3C138.872 1126.77 138.438 1125.96 138.322 1125.03L130.384 1126.02L122.445 1127.01C123.547 1135.87 130.84 1144 141 1144V1136ZM718.616 1126.02L710.678 1125.03C710.562 1125.96 710.128 1126.77 709.573 1127.3C709.046 1127.81 708.506 1128 708 1128V1136V1144C718.16 1144 725.453 1135.87 726.555 1127.01L718.616 1126.02ZM798 1046H790C790 1046.51 789.811 1047.05 789.304 1047.57C788.769 1048.13 787.961 1048.56 787.032 1048.68L788.02 1056.62L789.008 1064.56C797.867 1063.45 806 1056.16 806 1046H798ZM788.02 127.384L787.032 135.322C787.961 135.438 788.769 135.872 789.304 136.427C789.811 136.954 790 137.494 790 138H798H806C806 127.84 797.867 120.547 789.008 119.445L788.02 127.384ZM718.616 57.9801L726.555 56.9922C725.453 48.1329 718.16 40 708 40V48V56C708.506 56 709.046 56.1887 709.573 56.6958C710.128 57.2306 710.562 58.0389 710.678 58.9681L718.616 57.9801Z" fill="black" mask="url(#path-6-inside-1_1_66)"/>
<path d="M690 102C695.523 102 699.911 106.512 700.837 111.957C705.019 136.563 724.437 155.981 749.043 160.163C754.488 161.089 759 165.477 759 171V1014C759 1019.52 754.488 1023.91 749.043 1024.84C724.711 1028.97 705.454 1048 700.984 1072.22C699.993 1077.59 695.633 1082 690.175 1082H158.825C153.367 1082 149.007 1077.59 148.016 1072.22C143.546 1048 124.288 1028.97 99.9568 1024.84C94.5121 1023.91 90 1019.52 90 1014V171C90 165.477 94.512 161.089 99.9568 160.163C124.563 155.981 143.981 136.563 148.163 111.957C149.089 106.512 153.477 102 159 102H690Z" fill="#B48FE1"/>
<mask id="path-9-outside-2_1_66" maskUnits="userSpaceOnUse" x="402" y="1006" width="46" height="32" fill="black">
<rect fill="white" x="402" y="1006" width="46" height="32"/>
<path d="M421.2 1011.76H407.8V1019.72C408.36 1018.97 409.187 1018.35 410.28 1017.84C411.4 1017.33 412.587 1017.08 413.84 1017.08C416.08 1017.08 417.893 1017.56 419.28 1018.52C420.693 1019.48 421.693 1020.69 422.28 1022.16C422.893 1023.63 423.2 1025.17 423.2 1026.8C423.2 1028.77 422.813 1030.53 422.04 1032.08C421.293 1033.6 420.16 1034.8 418.64 1035.68C417.147 1036.56 415.307 1037 413.12 1037C410.213 1037 407.88 1036.28 406.12 1034.84C404.36 1033.4 403.307 1031.49 402.96 1029.12H407.4C407.693 1030.37 408.347 1031.37 409.36 1032.12C410.373 1032.84 411.64 1033.2 413.16 1033.2C415.053 1033.2 416.467 1032.63 417.4 1031.48C418.36 1030.33 418.84 1028.81 418.84 1026.92C418.84 1025 418.36 1023.53 417.4 1022.52C416.44 1021.48 415.027 1020.96 413.16 1020.96C411.853 1020.96 410.747 1021.29 409.84 1021.96C408.96 1022.6 408.32 1023.48 407.92 1024.6H403.6V1007.76H421.2V1011.76ZM427.867 1015.04C428.027 1012.56 428.974 1010.63 430.707 1009.24C432.467 1007.85 434.707 1007.16 437.427 1007.16C439.294 1007.16 440.907 1007.49 442.267 1008.16C443.627 1008.83 444.654 1009.73 445.347 1010.88C446.04 1012.03 446.387 1013.32 446.387 1014.76C446.387 1016.41 445.947 1017.83 445.067 1019C444.187 1020.17 443.134 1020.96 441.907 1021.36V1021.52C443.48 1022 444.707 1022.88 445.587 1024.16C446.467 1025.41 446.907 1027.03 446.907 1029C446.907 1030.57 446.547 1031.97 445.827 1033.2C445.107 1034.43 444.04 1035.4 442.627 1036.12C441.214 1036.81 439.52 1037.16 437.547 1037.16C434.667 1037.16 432.294 1036.43 430.427 1034.96C428.587 1033.47 427.6 1031.33 427.467 1028.56H431.867C431.974 1029.97 432.52 1031.13 433.507 1032.04C434.494 1032.92 435.827 1033.36 437.507 1033.36C439.134 1033.36 440.387 1032.92 441.267 1032.04C442.147 1031.13 442.587 1029.97 442.587 1028.56C442.587 1026.69 441.987 1025.37 440.787 1024.6C439.614 1023.8 437.8 1023.4 435.347 1023.4H434.307V1019.64H435.387C437.547 1019.61 439.187 1019.25 440.307 1018.56C441.454 1017.87 442.027 1016.77 442.027 1015.28C442.027 1014 441.614 1012.99 440.787 1012.24C439.96 1011.47 438.787 1011.08 437.267 1011.08C435.774 1011.08 434.614 1011.47 433.787 1012.24C432.96 1012.99 432.467 1013.92 432.307 1015.04H427.867Z"/>
</mask>
<path d="M421.2 1011.76H407.8V1019.72C408.36 1018.97 409.187 1018.35 410.28 1017.84C411.4 1017.33 412.587 1017.08 413.84 1017.08C416.08 1017.08 417.893 1017.56 419.28 1018.52C420.693 1019.48 421.693 1020.69 422.28 1022.16C422.893 1023.63 423.2 1025.17 423.2 1026.8C423.2 1028.77 422.813 1030.53 422.04 1032.08C421.293 1033.6 420.16 1034.8 418.64 1035.68C417.147 1036.56 415.307 1037 413.12 1037C410.213 1037 407.88 1036.28 406.12 1034.84C404.36 1033.4 403.307 1031.49 402.96 1029.12H407.4C407.693 1030.37 408.347 1031.37 409.36 1032.12C410.373 1032.84 411.64 1033.2 413.16 1033.2C415.053 1033.2 416.467 1032.63 417.4 1031.48C418.36 1030.33 418.84 1028.81 418.84 1026.92C418.84 1025 418.36 1023.53 417.4 1022.52C416.44 1021.48 415.027 1020.96 413.16 1020.96C411.853 1020.96 410.747 1021.29 409.84 1021.96C408.96 1022.6 408.32 1023.48 407.92 1024.6H403.6V1007.76H421.2V1011.76ZM427.867 1015.04C428.027 1012.56 428.974 1010.63 430.707 1009.24C432.467 1007.85 434.707 1007.16 437.427 1007.16C439.294 1007.16 440.907 1007.49 442.267 1008.16C443.627 1008.83 444.654 1009.73 445.347 1010.88C446.04 1012.03 446.387 1013.32 446.387 1014.76C446.387 1016.41 445.947 1017.83 445.067 1019C444.187 1020.17 443.134 1020.96 441.907 1021.36V1021.52C443.48 1022 444.707 1022.88 445.587 1024.16C446.467 1025.41 446.907 1027.03 446.907 1029C446.907 1030.57 446.547 1031.97 445.827 1033.2C445.107 1034.43 444.04 1035.4 442.627 1036.12C441.214 1036.81 439.52 1037.16 437.547 1037.16C434.667 1037.16 432.294 1036.43 430.427 1034.96C428.587 1033.47 427.6 1031.33 427.467 1028.56H431.867C431.974 1029.97 432.52 1031.13 433.507 1032.04C434.494 1032.92 435.827 1033.36 437.507 1033.36C439.134 1033.36 440.387 1032.92 441.267 1032.04C442.147 1031.13 442.587 1029.97 442.587 1028.56C442.587 1026.69 441.987 1025.37 440.787 1024.6C439.614 1023.8 437.8 1023.4 435.347 1023.4H434.307V1019.64H435.387C437.547 1019.61 439.187 1019.25 440.307 1018.56C441.454 1017.87 442.027 1016.77 442.027 1015.28C442.027 1014 441.614 1012.99 440.787 1012.24C439.96 1011.47 438.787 1011.08 437.267 1011.08C435.774 1011.08 434.614 1011.47 433.787 1012.24C432.96 1012.99 432.467 1013.92 432.307 1015.04H427.867Z" fill="black"/>
<path d="M421.2 1011.76V1012.06H421.5V1011.76H421.2ZM407.8 1011.76V1011.46H407.5V1011.76H407.8ZM407.8 1019.72H407.5V1020.62L408.04 1019.9L407.8 1019.72ZM410.28 1017.84L410.156 1017.57L410.154 1017.57L410.28 1017.84ZM419.28 1018.52L419.109 1018.77L419.111 1018.77L419.28 1018.52ZM422.28 1022.16L422.001 1022.27L422.003 1022.28L422.28 1022.16ZM422.04 1032.08L421.772 1031.95L421.771 1031.95L422.04 1032.08ZM418.64 1035.68L418.49 1035.42L418.488 1035.42L418.64 1035.68ZM406.12 1034.84L406.31 1034.61L406.12 1034.84ZM402.96 1029.12V1028.82H402.613L402.663 1029.16L402.96 1029.12ZM407.4 1029.12L407.692 1029.05L407.638 1028.82H407.4V1029.12ZM409.36 1032.12L409.182 1032.36L409.186 1032.36L409.36 1032.12ZM417.4 1031.48L417.17 1031.29L417.167 1031.29L417.4 1031.48ZM417.4 1022.52L417.18 1022.72L417.182 1022.73L417.4 1022.52ZM409.84 1021.96L410.016 1022.2L410.018 1022.2L409.84 1021.96ZM407.92 1024.6V1024.9H408.131L408.203 1024.7L407.92 1024.6ZM403.6 1024.6H403.3V1024.9H403.6V1024.6ZM403.6 1007.76V1007.46H403.3V1007.76H403.6ZM421.2 1007.76H421.5V1007.46H421.2V1007.76ZM421.2 1011.76V1011.46H407.8V1011.76V1012.06H421.2V1011.76ZM407.8 1011.76H407.5V1019.72H407.8H408.1V1011.76H407.8ZM407.8 1019.72L408.04 1019.9C408.563 1019.2 409.345 1018.6 410.406 1018.11L410.28 1017.84L410.154 1017.57C409.028 1018.09 408.157 1018.74 407.56 1019.54L407.8 1019.72ZM410.28 1017.84L410.404 1018.11C411.484 1017.62 412.628 1017.38 413.84 1017.38V1017.08V1016.78C412.545 1016.78 411.316 1017.04 410.156 1017.57L410.28 1017.84ZM413.84 1017.08V1017.38C416.039 1017.38 417.787 1017.85 419.109 1018.77L419.28 1018.52L419.451 1018.27C418 1017.27 416.121 1016.78 413.84 1016.78V1017.08ZM419.28 1018.52L419.111 1018.77C420.48 1019.7 421.439 1020.86 422.001 1022.27L422.28 1022.16L422.559 1022.05C421.948 1020.52 420.907 1019.26 419.449 1018.27L419.28 1018.52ZM422.28 1022.16L422.003 1022.28C422.601 1023.7 422.9 1025.21 422.9 1026.8H423.2H423.5C423.5 1025.13 423.186 1023.55 422.557 1022.04L422.28 1022.16ZM423.2 1026.8H422.9C422.9 1028.73 422.521 1030.45 421.772 1031.95L422.04 1032.08L422.308 1032.21C423.105 1030.62 423.5 1028.81 423.5 1026.8H423.2ZM422.04 1032.08L421.771 1031.95C421.051 1033.41 419.96 1034.57 418.49 1035.42L418.64 1035.68L418.79 1035.94C420.36 1035.03 421.535 1033.79 422.309 1032.21L422.04 1032.08ZM418.64 1035.68L418.488 1035.42C417.051 1036.27 415.267 1036.7 413.12 1036.7V1037V1037.3C415.346 1037.3 417.242 1036.85 418.792 1035.94L418.64 1035.68ZM413.12 1037V1036.7C410.263 1036.7 408.003 1035.99 406.31 1034.61L406.12 1034.84L405.93 1035.07C407.757 1036.57 410.164 1037.3 413.12 1037.3V1037ZM406.12 1034.84L406.31 1034.61C404.611 1033.22 403.593 1031.38 403.257 1029.08L402.96 1029.12L402.663 1029.16C403.02 1031.61 404.109 1033.58 405.93 1035.07L406.12 1034.84ZM402.96 1029.12V1029.42H407.4V1029.12V1028.82H402.96V1029.12ZM407.4 1029.12L407.108 1029.19C407.417 1030.51 408.11 1031.57 409.182 1032.36L409.36 1032.12L409.538 1031.88C408.583 1031.18 407.97 1030.24 407.692 1029.05L407.4 1029.12ZM409.36 1032.12L409.186 1032.36C410.261 1033.13 411.592 1033.5 413.16 1033.5V1033.2V1032.9C411.688 1032.9 410.486 1032.55 409.534 1031.88L409.36 1032.12ZM413.16 1033.2V1033.5C415.116 1033.5 416.627 1032.9 417.633 1031.67L417.4 1031.48L417.167 1031.29C416.306 1032.35 414.991 1032.9 413.16 1032.9V1033.2ZM417.4 1031.48L417.63 1031.67C418.646 1030.46 419.14 1028.86 419.14 1026.92H418.84H418.54C418.54 1028.76 418.074 1030.21 417.17 1031.29L417.4 1031.48ZM418.84 1026.92H419.14C419.14 1024.95 418.648 1023.4 417.618 1022.31L417.4 1022.52L417.182 1022.73C418.072 1023.67 418.54 1025.05 418.54 1026.92H418.84ZM417.4 1022.52L417.62 1022.32C416.587 1021.2 415.082 1020.66 413.16 1020.66V1020.96V1021.26C414.971 1021.26 416.293 1021.76 417.18 1022.72L417.4 1022.52ZM413.16 1020.96V1020.66C411.8 1020.66 410.628 1021.01 409.662 1021.72L409.84 1021.96L410.018 1022.2C410.865 1021.58 411.907 1021.26 413.16 1021.26V1020.96ZM409.84 1021.96L409.664 1021.72C408.73 1022.4 408.056 1023.33 407.637 1024.5L407.92 1024.6L408.203 1024.7C408.584 1023.63 409.19 1022.8 410.016 1022.2L409.84 1021.96ZM407.92 1024.6V1024.3H403.6V1024.6V1024.9H407.92V1024.6ZM403.6 1024.6H403.9V1007.76H403.6H403.3V1024.6H403.6ZM403.6 1007.76V1008.06H421.2V1007.76V1007.46H403.6V1007.76ZM421.2 1007.76H420.9V1011.76H421.2H421.5V1007.76H421.2ZM427.867 1015.04L427.567 1015.02L427.547 1015.34H427.867V1015.04ZM430.707 1009.24L430.521 1009L430.519 1009.01L430.707 1009.24ZM442.267 1008.16L442.135 1008.43L442.267 1008.16ZM445.347 1010.88L445.604 1010.72L445.347 1010.88ZM445.067 1019L445.307 1019.18V1019.18L445.067 1019ZM441.907 1021.36L441.814 1021.07L441.607 1021.14V1021.36H441.907ZM441.907 1021.52H441.607V1021.74L441.819 1021.81L441.907 1021.52ZM445.587 1024.16L445.34 1024.33L445.341 1024.33L445.587 1024.16ZM445.827 1033.2L445.568 1033.05L445.827 1033.2ZM442.627 1036.12L442.759 1036.39L442.763 1036.39L442.627 1036.12ZM430.427 1034.96L430.238 1035.19L430.242 1035.2L430.427 1034.96ZM427.467 1028.56V1028.26H427.152L427.167 1028.57L427.467 1028.56ZM431.867 1028.56L432.166 1028.54L432.145 1028.26H431.867V1028.56ZM433.507 1032.04L433.304 1032.26L433.307 1032.26L433.507 1032.04ZM441.267 1032.04L441.479 1032.25L441.482 1032.25L441.267 1032.04ZM440.787 1024.6L440.618 1024.85L440.624 1024.85L440.787 1024.6ZM434.307 1023.4H434.007V1023.7H434.307V1023.4ZM434.307 1019.64V1019.34H434.007V1019.64H434.307ZM435.387 1019.64V1019.94L435.391 1019.94L435.387 1019.64ZM440.307 1018.56L440.152 1018.3L440.149 1018.3L440.307 1018.56ZM440.787 1012.24L440.582 1012.46L440.586 1012.46L440.787 1012.24ZM433.787 1012.24L433.988 1012.46L433.992 1012.46L433.787 1012.24ZM432.307 1015.04V1015.34H432.567L432.604 1015.08L432.307 1015.04ZM427.867 1015.04L428.166 1015.06C428.322 1012.65 429.235 1010.8 430.894 1009.47L430.707 1009.24L430.519 1009.01C428.712 1010.45 427.732 1012.47 427.567 1015.02L427.867 1015.04ZM430.707 1009.24L430.893 1009.48C432.589 1008.14 434.759 1007.46 437.427 1007.46V1007.16V1006.86C434.654 1006.86 432.345 1007.57 430.521 1009L430.707 1009.24ZM437.427 1007.16V1007.46C439.258 1007.46 440.824 1007.79 442.135 1008.43L442.267 1008.16L442.399 1007.89C440.989 1007.2 439.329 1006.86 437.427 1006.86V1007.16ZM442.267 1008.16L442.135 1008.43C443.45 1009.07 444.43 1009.94 445.09 1011.04L445.347 1010.88L445.604 1010.72C444.877 1009.52 443.804 1008.58 442.399 1007.89L442.267 1008.16ZM445.347 1010.88L445.09 1011.04C445.753 1012.13 446.087 1013.37 446.087 1014.76H446.387H446.687C446.687 1013.27 446.327 1011.92 445.604 1010.72L445.347 1010.88ZM446.387 1014.76H446.087C446.087 1016.36 445.663 1017.71 444.827 1018.82L445.067 1019L445.307 1019.18C446.231 1017.95 446.687 1016.47 446.687 1014.76H446.387ZM445.067 1019L444.827 1018.82C443.979 1019.95 442.974 1020.7 441.814 1021.07L441.907 1021.36L442 1021.65C443.293 1021.22 444.395 1020.4 445.307 1019.18L445.067 1019ZM441.907 1021.36H441.607V1021.52H441.907H442.207V1021.36H441.907ZM441.907 1021.52L441.819 1021.81C443.332 1022.27 444.5 1023.11 445.34 1024.33L445.587 1024.16L445.834 1023.99C444.913 1022.65 443.629 1021.73 441.994 1021.23L441.907 1021.52ZM445.587 1024.16L445.341 1024.33C446.177 1025.52 446.607 1027.07 446.607 1029H446.907H447.207C447.207 1026.98 446.757 1025.3 445.832 1023.99L445.587 1024.16ZM446.907 1029H446.607C446.607 1030.53 446.258 1031.87 445.568 1033.05L445.827 1033.2L446.086 1033.35C446.835 1032.07 447.207 1030.62 447.207 1029H446.907ZM445.827 1033.2L445.568 1033.05C444.88 1034.22 443.859 1035.16 442.491 1035.85L442.627 1036.12L442.763 1036.39C444.221 1035.64 445.333 1034.63 446.086 1033.35L445.827 1033.2ZM442.627 1036.12L442.495 1035.85C441.132 1036.52 439.486 1036.86 437.547 1036.86V1037.16V1037.46C439.555 1037.46 441.295 1037.11 442.759 1036.39L442.627 1036.12ZM437.547 1037.16V1036.86C434.719 1036.86 432.415 1036.14 430.612 1034.72L430.427 1034.96L430.242 1035.2C432.172 1036.71 434.614 1037.46 437.547 1037.46V1037.16ZM430.427 1034.96L430.616 1034.73C428.854 1033.3 427.897 1031.25 427.767 1028.55L427.467 1028.56L427.167 1028.57C427.304 1031.42 428.32 1033.64 430.238 1035.19L430.427 1034.96ZM427.467 1028.56V1028.86H431.867V1028.56V1028.26H427.467V1028.56ZM431.867 1028.56L431.568 1028.58C431.68 1030.07 432.258 1031.3 433.304 1032.26L433.507 1032.04L433.71 1031.82C432.783 1030.97 432.267 1029.88 432.166 1028.54L431.867 1028.56ZM433.507 1032.04L433.307 1032.26C434.362 1033.21 435.774 1033.66 437.507 1033.66V1033.36V1033.06C435.88 1033.06 434.625 1032.63 433.707 1031.82L433.507 1032.04ZM437.507 1033.36V1033.66C439.188 1033.66 440.527 1033.2 441.479 1032.25L441.267 1032.04L441.055 1031.83C440.247 1032.64 439.079 1033.06 437.507 1033.06V1033.36ZM441.267 1032.04L441.482 1032.25C442.423 1031.28 442.887 1030.04 442.887 1028.56H442.587H442.287C442.287 1029.91 441.871 1030.99 441.052 1031.83L441.267 1032.04ZM442.587 1028.56H442.887C442.887 1026.63 442.261 1025.19 440.949 1024.35L440.787 1024.6L440.624 1024.85C441.713 1025.55 442.287 1026.76 442.287 1028.56H442.587ZM440.787 1024.6L440.956 1024.35C439.708 1023.5 437.822 1023.1 435.347 1023.1V1023.4V1023.7C437.779 1023.7 439.519 1024.1 440.618 1024.85L440.787 1024.6ZM435.347 1023.4V1023.1H434.307V1023.4V1023.7H435.347V1023.4ZM434.307 1023.4H434.607V1019.64H434.307H434.007V1023.4H434.307ZM434.307 1019.64V1019.94H435.387V1019.64V1019.34H434.307V1019.64ZM435.387 1019.64L435.391 1019.94C437.574 1019.91 439.278 1019.55 440.465 1018.82L440.307 1018.56L440.149 1018.3C439.096 1018.96 437.52 1019.31 435.383 1019.34L435.387 1019.64ZM440.307 1018.56L440.462 1018.82C441.71 1018.06 442.327 1016.86 442.327 1015.28H442.027H441.727C441.727 1016.68 441.197 1017.67 440.152 1018.3L440.307 1018.56ZM442.027 1015.28H442.327C442.327 1013.93 441.887 1012.83 440.988 1012.02L440.787 1012.24L440.586 1012.46C441.34 1013.14 441.727 1014.07 441.727 1015.28H442.027ZM440.787 1012.24L440.992 1012.02C440.093 1011.18 438.836 1010.78 437.267 1010.78V1011.08V1011.38C438.737 1011.38 439.828 1011.75 440.582 1012.46L440.787 1012.24ZM437.267 1011.08V1010.78C435.722 1010.78 434.48 1011.18 433.582 1012.02L433.787 1012.24L433.992 1012.46C434.747 1011.75 435.825 1011.38 437.267 1011.38V1011.08ZM433.787 1012.24L433.586 1012.02C432.706 1012.81 432.18 1013.81 432.01 1015L432.307 1015.04L432.604 1015.08C432.754 1014.03 433.214 1013.16 433.988 1012.46L433.787 1012.24ZM432.307 1015.04V1014.74H427.867V1015.04V1015.34H432.307V1015.04Z" fill="black" mask="url(#path-9-outside-2_1_66)"/>
<path d="M269.81 272.735C261.2 272.735 254.13 270.705 248.6 266.645C243.07 262.515 240.095 256.635 239.675 249.005H261.62C261.83 251.595 262.6 253.485 263.93 254.675C265.26 255.865 266.975 256.46 269.075 256.46C270.965 256.46 272.505 256.005 273.695 255.095C274.955 254.115 275.585 252.785 275.585 251.105C275.585 248.935 274.57 247.255 272.54 246.065C270.51 244.875 267.22 243.545 262.67 242.075C257.84 240.465 253.92 238.925 250.91 237.455C247.97 235.915 245.38 233.71 243.14 230.84C240.97 227.9 239.885 224.085 239.885 219.395C239.885 214.635 241.075 210.575 243.455 207.215C245.835 203.785 249.125 201.195 253.325 199.445C257.525 197.695 262.285 196.82 267.605 196.82C276.215 196.82 283.075 198.85 288.185 202.91C293.365 206.9 296.13 212.535 296.48 219.815H274.115C274.045 217.575 273.345 215.895 272.015 214.775C270.755 213.655 269.11 213.095 267.08 213.095C265.54 213.095 264.28 213.55 263.3 214.46C262.32 215.37 261.83 216.665 261.83 218.345C261.83 219.745 262.355 220.97 263.405 222.02C264.525 223 265.89 223.875 267.5 224.645C269.11 225.345 271.49 226.255 274.64 227.375C279.33 228.985 283.18 230.595 286.19 232.205C289.27 233.745 291.895 235.95 294.065 238.82C296.305 241.62 297.425 245.19 297.425 249.53C297.425 253.94 296.305 257.895 294.065 261.395C291.895 264.895 288.71 267.66 284.51 269.69C280.38 271.72 275.48 272.735 269.81 272.735ZM367.262 213.095V272H346.577V263.6C344.827 266.26 342.412 268.43 339.332 270.11C336.252 271.72 332.717 272.525 328.727 272.525C321.867 272.525 316.442 270.285 312.452 265.805C308.532 261.255 306.572 255.095 306.572 247.325V213.095H327.047V244.7C327.047 248.06 327.922 250.72 329.672 252.68C331.492 254.57 333.872 255.515 336.812 255.515C339.822 255.515 342.202 254.57 343.952 252.68C345.702 250.72 346.577 248.06 346.577 244.7V213.095H367.262ZM417.51 212.57C424.3 212.57 429.69 214.845 433.68 219.395C437.67 223.875 439.665 229.965 439.665 237.665V272H419.085V240.395C419.085 237.035 418.21 234.41 416.46 232.52C414.71 230.56 412.365 229.58 409.425 229.58C406.345 229.58 403.93 230.56 402.18 232.52C400.43 234.41 399.555 237.035 399.555 240.395V272H378.975V213.095H399.555V221.495C401.375 218.835 403.825 216.7 406.905 215.09C409.985 213.41 413.52 212.57 417.51 212.57ZM476.052 272.735C470.732 272.735 465.972 271.86 461.772 270.11C457.642 268.29 454.352 265.84 451.902 262.76C449.522 259.61 448.192 256.075 447.912 252.155H467.862C468.142 254.045 469.017 255.515 470.487 256.565C471.957 257.615 473.777 258.14 475.947 258.14C477.627 258.14 478.957 257.79 479.937 257.09C480.917 256.39 481.407 255.48 481.407 254.36C481.407 252.89 480.602 251.805 478.992 251.105C477.382 250.405 474.722 249.635 471.012 248.795C466.812 247.955 463.312 247.01 460.512 245.96C457.712 244.91 455.262 243.195 453.162 240.815C451.132 238.435 450.117 235.215 450.117 231.155C450.117 227.655 451.062 224.505 452.952 221.705C454.842 218.835 457.607 216.56 461.247 214.88C464.957 213.2 469.402 212.36 474.582 212.36C482.282 212.36 488.337 214.25 492.747 218.03C497.157 221.81 499.712 226.78 500.412 232.94H481.827C481.477 231.05 480.637 229.615 479.307 228.635C478.047 227.585 476.332 227.06 474.162 227.06C472.482 227.06 471.187 227.375 470.277 228.005C469.437 228.635 469.017 229.51 469.017 230.63C469.017 232.03 469.822 233.115 471.432 233.885C473.042 234.585 475.632 235.32 479.202 236.09C483.472 237 487.007 238.015 489.807 239.135C492.677 240.255 495.162 242.075 497.262 244.595C499.432 247.045 500.517 250.405 500.517 254.675C500.517 258.105 499.502 261.185 497.472 263.915C495.512 266.645 492.677 268.815 488.967 270.425C485.327 271.965 481.022 272.735 476.052 272.735ZM566.915 241.865C566.915 243.475 566.81 245.085 566.6 246.695H527.645C527.855 249.915 528.73 252.33 530.27 253.94C531.88 255.48 533.91 256.25 536.36 256.25C539.79 256.25 542.24 254.71 543.71 251.63H565.655C564.745 255.69 562.96 259.33 560.3 262.55C557.71 265.7 554.42 268.185 550.43 270.005C546.44 271.825 542.03 272.735 537.2 272.735C531.39 272.735 526.21 271.51 521.66 269.06C517.18 266.61 513.645 263.11 511.055 258.56C508.535 254.01 507.275 248.655 507.275 242.495C507.275 236.335 508.535 231.015 511.055 226.535C513.575 221.985 517.075 218.485 521.555 216.035C526.105 213.585 531.32 212.36 537.2 212.36C543.01 212.36 548.155 213.55 552.635 215.93C557.115 218.31 560.615 221.74 563.135 226.22C565.655 230.63 566.915 235.845 566.915 241.865ZM545.915 236.72C545.915 234.2 545.075 232.24 543.395 230.84C541.715 229.37 539.615 228.635 537.095 228.635C534.575 228.635 532.51 229.335 530.9 230.735C529.29 232.065 528.24 234.06 527.75 236.72H545.915ZM610.092 254.465V272H601.167C586.117 272 578.592 264.545 578.592 249.635V230.21H571.347V213.095H578.592V198.815H599.277V213.095H609.987V230.21H599.277V249.95C599.277 251.56 599.627 252.715 600.327 253.415C601.097 254.115 602.357 254.465 604.107 254.465H610.092Z" fill="black"/>
<path d="M365.124 346.146L530.932 346.157L580.275 346.188C589.778 346.179 599.716 345.557 609.147 346.626C617.134 347.494 624.835 350.093 631.715 354.24C643.728 361.787 652.331 373.71 655.709 387.488C658.023 397.315 657.197 408.041 657.187 418.07L657.109 455.898L656.71 589.595L656.237 781.831L655.985 844.886C655.948 856.976 656.536 869.374 655.595 881.405C654.718 892.619 651.303 904.223 645.333 913.807C638.435 924.883 628.186 933.026 615.356 935.954C611.718 936.748 608.016 937.216 604.295 937.354C596.837 937.666 589.297 937.483 581.83 937.515L541.35 937.675L505.639 937.763C499.524 937.772 493.259 938.047 487.16 937.717C486.417 937.68 485.906 937.547 485.27 937.148C484.253 937.772 483.268 937.731 482.116 937.74L312.715 937.772H264.331C255.512 937.772 245.755 938.598 237.089 937.106C226.649 935.307 216.252 930.304 208.693 922.845C197.04 911.351 192.111 892.279 192 876.347L192.762 541.892L193.08 441.495L193.09 411.189C193.093 404.31 192.737 397.197 193.708 390.375C195.206 379.845 200.993 369.317 208.431 361.811C215.706 354.468 225.081 349.763 235.13 347.567C242.674 345.918 250.345 346.288 258.016 346.297L281.42 346.325L365.124 346.146Z" fill="black"/>
<path d="M244.244 360.572C246.214 360.308 248.375 360.393 250.361 360.381L496.388 360.371L570.473 360.372L592.733 360.349C597.919 360.345 603.232 360.124 608.383 360.802C616.956 361.885 624.932 365.767 631.074 371.845C636.95 377.72 641.345 385.846 642.55 394.123C643.266 399.048 642.885 404.215 642.897 409.184C642.914 416.21 643.109 423.228 643.072 430.258L642.915 494.132L642.577 733.374L522.254 733.385C535.354 707.148 537.759 680.062 528.864 652.068C527.089 646.772 524.942 641.609 522.439 636.616C509.127 610.212 484.872 590.534 456.917 581.39C428.687 572.353 398.042 574.718 371.534 587.98C343.932 601.976 323.789 625.234 314.238 654.691C305.347 682.115 307.632 707.7 320.711 733.331L205.964 733.381C205.788 725.411 206.024 717.386 206.064 709.412L206.171 667.237L206.781 511.603L206.941 433.63L207.141 411.063C207.166 405.693 206.891 400.132 207.517 394.794C208.383 387.481 211.36 380.579 216.085 374.93C223.335 366.162 233.065 361.629 244.244 360.572Z" fill="#FF8448"/>
<path d="M303.746 409.117C309.602 408.569 316.353 410.336 321.47 413.135C329.798 417.691 335.146 424.608 337.752 433.649C338.245 433.582 338.727 433.533 339.225 433.515C347.357 433.202 356.015 435.631 362.014 441.323C367.367 446.401 370.328 453.942 370.482 461.263C370.631 468.361 368.013 474.839 363.094 479.95C352.817 490.625 338.896 490.61 325.22 490.725L307.946 490.999C299.349 491.305 290.647 491.358 282.049 491.067C269.487 490.641 256.558 488.975 247.53 479.176C242.802 474.069 240.354 467.26 240.747 460.312C241.088 453.591 244.042 446.873 249.101 442.371C254.91 437.201 261.621 435.897 269.14 436.278C270.891 431.103 273.534 426.057 277.014 421.833C283.925 413.445 293.254 410.107 303.746 409.117Z" fill="black"/>
<path d="M302.152 422.513C302.814 422.436 303.513 422.435 304.18 422.426C312.924 422.308 321.113 427.355 324.106 435.729C325.175 438.719 325.288 444.17 327.747 446.315C330.307 448.548 337.157 446.641 340.308 446.569C345.113 446.458 350.455 447.829 353.977 451.257C356.905 454.109 358.308 458.353 358.324 462.381C358.34 466.413 356.96 469.92 354.081 472.774C346.817 479.974 334.752 479.214 325.292 479.222L309.999 479.211L291.4 479.243C281.422 479.254 268.454 480.263 259.853 474.22C256.485 471.853 254.126 468.301 253.472 464.214C252.841 460.271 253.265 456.016 255.699 452.724C261.461 444.931 267.301 450.679 274.312 449.527C279.766 448.632 280.27 442.674 281.923 438.483C282.903 436.046 284.196 433.746 285.768 431.641C289.84 426.183 295.498 423.435 302.152 422.513Z" fill="#FE9600"/>
<path d="M536.659 445.253C542.269 444.897 547.767 445.827 552.852 448.271C561.842 452.592 567.206 460.163 570.459 469.322C572.126 469.13 573.8 469.003 575.477 468.944C581.054 468.756 586.474 470.809 590.524 474.646C595.318 479.231 597.111 485.448 597.267 491.922C597.433 498.832 595.695 505.262 590.783 510.311C582.453 518.873 570.171 518.787 559.124 518.961L542.431 519.147C538.66 519.143 534.888 519.195 531.118 519.302C516.806 519.63 499.152 520.814 488.128 510.128C483.426 505.57 480.901 499.824 480.881 493.265C480.863 487.074 483.151 481.227 487.603 476.878C492.938 471.666 499.957 469.535 507.286 469.584C508.927 465.084 510.978 460.889 513.996 457.137C519.816 449.899 527.542 446.248 536.659 445.253Z" fill="black"/>
<path d="M494.624 486.457C496.332 484.128 498.063 482.471 501.05 482.045C505.607 481.395 512.298 484.941 515.691 480.508C517.391 478.288 517.812 474.883 518.714 472.27C521.055 465.493 527.266 459.087 534.534 457.83C540.093 456.869 545.675 457.935 550.224 461.349C560.482 469.042 557.204 477.762 560.799 482.014C561.855 483.264 564.126 483.311 565.628 483.103C571.308 482.319 576.643 479.318 581.983 483.181C584.335 484.882 585.819 487.36 586.252 490.217C586.441 491.463 586.391 492.799 586.328 494.054C586.065 495.982 585.694 497.823 584.811 499.576C583.328 502.519 580.681 504.963 577.519 505.991C574.711 506.904 571.752 507.37 568.815 507.603C560.715 508.244 552.29 507.876 544.144 507.975C532.822 508.112 519.805 508.83 508.665 507.661C505.948 507.375 503.482 506.93 501.044 505.638C497.437 503.725 494.685 500.575 493.515 496.641C492.427 492.984 492.819 489.773 494.624 486.457Z" fill="#FE9600"/>
<path d="M494.624 486.458C494.692 486.503 494.762 486.545 494.829 486.593C497.565 488.571 498.427 496.006 503.232 499.184C506.098 501.08 510.453 501.795 513.808 502.113C519.912 502.689 526.569 501.979 532.741 501.945C543.683 501.883 555.769 502.64 566.573 501.218C571.793 500.53 575.939 498.977 580.606 496.646C582.376 495.763 584.391 494.438 586.328 494.055C586.065 495.983 585.694 497.824 584.811 499.577C583.328 502.52 580.681 504.964 577.519 505.991C574.711 506.904 571.752 507.371 568.815 507.603C560.715 508.245 552.29 507.877 544.144 507.976C532.822 508.112 519.805 508.831 508.665 507.661C505.948 507.376 503.482 506.93 501.044 505.639C497.437 503.726 494.685 500.575 493.515 496.641C492.427 492.985 492.819 489.773 494.624 486.458Z" fill="#FF8448"/>
<path d="M423.492 470.279C424.356 470.243 425.32 470.157 426.173 470.324C427.955 470.671 429.442 471.618 430.446 473.136C431.601 474.883 431.601 477.533 431.703 479.567C432.038 486.253 431.787 493.081 431.759 499.78L431.485 536.191C431.426 541.652 432.029 555.39 430.986 559.879C430.403 562.387 428.637 563.623 426.567 564.832C425.534 564.978 424.397 565.094 423.372 564.86C421.699 564.477 420.258 563.484 419.382 562.002C418.545 560.586 418.444 559.109 418.35 557.511C418.007 551.632 418.234 545.619 418.233 539.723C418.208 527.948 418.265 516.174 418.404 504.401C418.442 498.892 417.689 479.227 418.944 475.101C419.715 472.563 421.292 471.462 423.492 470.279Z" fill="black"/>
<path d="M295.747 519.865C296.947 519.789 298.163 519.792 299.32 520.17C300.632 520.597 301.6 521.333 302.522 522.334C305.72 525.805 308.484 529.821 311.353 533.565L326.995 554.076L338.292 569.029C340.53 572.002 343.191 575.074 344.895 578.385C345.615 579.784 345.722 581.705 345.185 583.183C344.385 585.383 342.8 586.473 340.828 587.476C339.467 587.628 338.089 587.762 336.763 587.311C335.615 586.919 334.792 586.227 333.991 585.346C331.203 582.285 328.778 578.789 326.267 575.492L313.694 558.984L300.149 541.212C297.129 537.243 293.5 533.143 291.36 528.621C290.691 527.207 290.687 525.583 291.256 524.13C292.119 521.93 293.727 520.835 295.747 519.865Z" fill="black"/>
<path d="M542.952 543.609C544.279 543.478 545.497 543.374 546.769 543.901C548.425 544.587 549.927 545.979 550.584 547.657C551.235 549.317 551.058 551.244 550.337 552.856C548.867 556.143 518.852 589.415 514.622 593.427C513.718 594.284 512.873 594.815 511.705 595.256C510.653 595.348 509.545 595.449 508.513 595.167C506.839 594.71 505.144 593.23 504.344 591.706C503.462 590.025 503.496 588.089 504.144 586.333C505.112 583.71 535.356 549.99 539.579 545.902C540.605 544.909 541.681 544.245 542.952 543.609Z" fill="black"/>
<path d="M269.778 585.63C270.879 585.718 271.894 586.069 272.879 586.558C279.298 589.744 285.485 594.209 291.605 597.973C297.867 601.823 306.228 606.136 311.785 610.796C312.974 611.793 313.971 613.122 314.414 614.625C314.916 616.33 314.736 618.105 313.802 619.635C312.586 621.628 310.871 622.465 308.689 623.024C307.346 622.877 306.232 622.513 305.038 621.906C298.13 618.395 291.538 613.654 284.934 609.572C278.989 605.897 271.335 601.98 266.053 597.617C264.931 596.708 264.114 595.476 263.713 594.089C263.247 592.528 263.463 590.931 264.243 589.51C265.493 587.234 267.361 586.298 269.778 585.63Z" fill="black"/>
<path d="M587.02 656.982C589.514 656.745 592.009 656.626 594.231 658.018C595.666 658.917 596.643 660.973 596.955 662.612C597.278 664.308 596.53 666.253 595.497 667.596C594.711 668.619 593.783 669.262 592.55 669.642C588.35 670.936 583.423 671.028 579.053 671.528L555.771 674.187C553.523 674.501 551.06 674.497 549.077 673.229C547.562 672.261 546.572 670.551 546.279 668.797C545.973 666.97 546.391 664.988 547.518 663.502C548.308 662.46 549.357 661.776 550.593 661.381C554.991 659.977 560.138 659.857 564.731 659.363L587.02 656.982Z" fill="black"/>
<path d="M252.412 643.118C256.104 642.828 288.44 648.911 292.92 650.318C294.614 650.85 295.76 651.467 296.591 653.133C297.441 654.84 297.732 657.023 297.044 658.83C296.152 661.169 294.131 662.347 291.949 663.245C287.485 663.594 257.434 657.657 252.514 656.206C250.368 655.573 248.741 654.56 247.66 652.532C246.83 650.975 246.705 649.378 247.284 647.711C248.157 645.201 250.159 644.154 252.412 643.118Z" fill="black"/>
<path d="M288.699 692.769C289.986 692.71 291.449 693.127 292.549 693.776C293.971 694.615 295.045 695.859 295.442 697.481C295.915 699.411 295.509 701.557 294.386 703.195C293.684 704.219 292.829 704.94 291.68 705.397C287.922 706.89 283.268 707.456 279.304 708.305C271.177 710.097 263.028 711.792 254.861 713.388C252.564 713.257 251.005 712.608 249.062 711.412C248.281 710.142 247.573 708.821 247.375 707.319C247.147 705.588 247.515 704.114 248.582 702.724C249.53 701.49 250.904 700.906 252.328 700.399C256.878 698.778 262.134 698.133 266.868 697.139C274.086 695.623 281.394 693.763 288.699 692.769Z" fill="black"/>
<path d="M366.394 522.976C367.553 522.887 368.713 522.962 369.817 523.353C371.368 523.903 372.414 524.909 373.125 526.372C376.032 532.345 377.841 539.19 380.008 545.49C381.784 550.651 384.41 556.459 385.295 561.846C385.498 563.081 385.258 564.316 384.836 565.481C383.961 567.895 382.152 568.921 379.969 569.943C378.775 570.066 377.608 569.967 376.481 569.524C374.412 568.712 373.53 567.352 372.664 565.421C370.327 560.205 368.716 554.454 366.869 549.038C364.922 543.332 362.217 537.11 361.259 531.178C361.027 529.743 361.064 528.484 361.627 527.124C362.58 524.819 364.243 523.914 366.394 522.976Z" fill="black"/>
<path d="M567.183 602.833C568.382 602.724 569.695 602.754 570.837 603.171C572.571 603.804 573.934 605.244 574.63 606.938C575.373 608.723 575.327 610.74 574.503 612.49C573.872 613.835 572.86 614.738 571.681 615.593C567.38 618.715 562.099 621.102 557.403 623.631C551.975 626.555 546.414 630.062 540.649 632.227C539.733 632.371 538.842 632.378 537.934 632.159C536.221 631.745 534.321 630.465 533.475 628.91C532.526 627.164 532.289 624.97 532.964 623.089C533.375 621.943 533.939 621.245 534.899 620.523C539.461 617.097 545.571 614.56 550.6 611.836C556.081 608.866 561.488 605.352 567.183 602.833Z" fill="black"/>
<path d="M550.178 702.658C554.342 702.416 578.817 711.49 584.2 713.885C586.142 714.748 587.736 715.767 588.473 717.892C589.009 719.438 589.036 721.683 588.279 723.16C587.255 725.16 585.451 726.016 583.45 726.715C581.094 726.864 578.911 726.111 576.718 725.353C570.837 723.319 564.999 721.131 559.153 718.998C555.648 717.719 551.301 716.58 548.146 714.591C547.081 713.92 546.154 712.922 545.647 711.766C544.986 710.259 545.008 708.143 545.634 706.615C546.48 704.552 548.25 703.511 550.178 702.658Z" fill="black"/>
<path d="M476.519 532.236C477.624 532.25 478.727 532.259 479.777 532.645C481.424 533.253 482.752 534.347 483.431 535.992C485.123 540.088 478.487 560.822 476.513 565.719C475.447 568.362 474.141 569.389 471.581 570.49C470.575 570.568 469.473 570.547 468.506 570.243C466.861 569.731 465.513 568.542 464.8 566.975C464.228 565.735 464.029 564.417 464.116 563.064C464.456 557.8 469.034 544.1 471.015 538.463C472.147 535.236 473.426 533.717 476.519 532.236Z" fill="black"/>
<path d="M205.86 746.666L642.723 746.734L642.583 834.944L642.503 860.58C642.488 867.717 642.609 874.841 641.866 881.951C641.229 888.042 639.804 894.23 637.443 899.889C635.872 903.653 631.481 912.347 627.829 913.848C627.629 914.16 627.457 914.417 627.203 914.688C617.227 925.332 599.637 923.464 586.38 923.478L344.97 923.455L275.2 923.478L254.128 923.492C248.634 923.483 243.044 923.611 237.592 922.858C230.404 921.867 223.559 918.158 218.479 913.022C212.241 906.715 208.609 897.906 206.956 889.3C205.213 880.216 205.45 871.04 205.461 861.846L205.571 834.104L205.86 746.666Z" fill="#0F90C5"/>
<path d="M366.678 800.918L451.017 800.859C456.738 800.851 490.391 800.118 493.51 801.261C495.469 801.977 496.753 803.483 497.535 805.369C498.195 806.967 498.26 808.743 497.505 810.318C496.542 812.328 494.661 813.668 492.571 814.311C490.192 815.045 484.379 815.537 482.223 814.293C482.166 814.26 482.113 814.224 482.058 814.192C481.481 814.453 481.002 814.618 480.366 814.678C474.685 815.192 468.602 814.761 462.879 814.765L427.401 814.802L382.349 814.853C374.255 814.866 365.952 815.238 357.881 814.742C356.164 814.637 354.901 814.485 353.519 813.333C351.986 812.057 350.876 809.895 350.794 807.908C350.719 806.085 351.953 803.956 353.274 802.725C356.222 799.982 362.859 800.934 366.678 800.918Z" fill="black"/>
<path d="M368.614 767.176C373.484 767.195 383.094 765.66 386.861 769.006C388.168 770.167 388.851 771.942 388.946 773.663C389.053 775.613 388.393 777.576 387.018 778.985C385.867 780.164 384.533 780.577 382.945 780.772C375.938 781.63 367.406 781.039 360.216 781.075L311.979 781.177C307.004 781.134 295.796 782.604 292.013 779.303C290.688 778.147 290.013 776.289 289.994 774.558C289.978 772.655 290.715 770.823 292.044 769.46C293.009 768.48 294.26 767.785 295.627 767.587C302.223 766.629 312.251 767.29 319.149 767.282L368.614 767.176Z" fill="black"/>
<path d="M507.797 767.18L536.887 767.078C541.836 767.06 547.186 766.62 552.075 767.287C553.465 767.477 554.597 767.87 555.662 768.823C557.108 770.116 558.072 772.111 558.072 774.057C558.071 775.877 557.235 777.718 555.939 778.986C554.919 779.986 553.737 780.432 552.355 780.651C548.299 781.293 543.708 780.887 539.593 780.902L513.592 780.995L484.764 781.07C479.998 781.078 474.541 781.58 469.841 780.786C468.448 780.551 467.152 779.991 466.115 779.011C464.844 777.789 464.119 776.107 464.101 774.345C464.095 772.484 464.931 770.527 466.266 769.231C467.241 768.286 468.317 767.739 469.649 767.502C474.071 766.715 479.165 767.188 483.66 767.194L507.797 767.18Z" fill="black"/>
<path d="M545.542 828.944C545.987 829.059 546.613 829.036 547.076 829.059C548.994 829.165 550.794 829.61 552.418 830.693C553.622 831.496 554.295 832.685 554.594 834.081C554.971 835.843 554.905 837.514 553.857 839.052C552.215 841.466 549.13 842.453 546.418 843.018C541.972 843.945 522.124 845.354 519.224 843.445C519.015 843.536 518.855 843.624 518.635 843.674C517.124 844.032 514.214 843.477 512.902 842.692C511.262 841.71 510.052 839.892 509.709 838.019C509.384 836.252 509.754 834.443 510.815 832.984C512.059 831.276 513.947 830.39 515.973 829.991C518.907 829.413 522.458 829.876 525.449 829.936C531.785 830.064 538.978 830.179 545.235 829.004L545.542 828.944Z" fill="#30A9CC"/>
<path d="M285.28 811.222C288.68 810.979 292.168 810.754 295.306 812.329C297.163 813.256 298.869 814.922 299.485 816.946C299.933 818.415 299.934 819.898 299.167 821.265C297.938 823.455 295.41 824.791 293.04 825.364C290.218 826.044 272.577 826.37 270.749 825.236C270.263 825.525 269.828 825.69 269.271 825.773C265.652 826.301 261.436 826.26 258.441 823.882C256.971 822.716 255.958 821.031 255.776 819.14C255.621 817.529 256.039 815.923 257.098 814.679C258.262 813.311 259.938 812.475 261.662 812.053C266.291 810.919 279.472 811.626 285.28 811.222Z" fill="#30A9CC"/>
<path d="M323.687 669.488C329.842 642.321 344.971 619.629 368.734 604.698C391.51 590.412 419.043 585.794 445.236 591.865C470.876 597.729 493.129 613.551 507.087 635.839C514.056 646.969 518.664 659.41 520.628 672.393C523.699 693.873 519.482 715.123 507.724 733.391C488.041 733.068 468.307 733.33 448.618 733.324L335.397 733.309C322.839 713.959 320.032 691.921 323.687 669.488Z" fill="#FE9600"/>
<path d="M335.397 733.309C322.839 713.959 320.032 691.921 323.687 669.488C323.746 669.558 323.806 669.626 323.863 669.697C327.079 673.651 328.084 677.878 332.268 682.185C344.477 694.754 371.385 701.42 388.441 703.372C422.879 707.311 462.196 706.436 494.257 692.161C500.081 689.568 505.786 686.776 510.786 682.773C514.86 679.512 517.365 675.08 520.628 672.393C523.699 693.873 519.482 715.123 507.724 733.392C488.041 733.068 468.307 733.33 448.618 733.324L335.397 733.309Z" fill="#FF8448"/>
<path d="M391.195 606.284C392.908 606.107 394.639 606.165 396.19 606.996C397.301 607.593 397.899 608.492 398.278 609.669C398.978 611.842 398.987 614.381 397.848 616.413C395.776 620.11 386.473 623.341 382.645 625.949C377.872 629.201 373.734 633.439 368.882 636.488C367.678 637.244 366.301 637.638 364.947 638.041C363.287 638.041 361.502 638.048 359.999 637.234C358.511 636.429 357.157 634.423 356.739 632.787C356.205 630.697 356.947 628.513 358.041 626.735C363.189 618.363 381.777 608.455 391.195 606.284Z" fill="#FFC43F"/>
</svg>
