<svg width="849" height="1183" viewBox="0 0 849 1183" fill="none" xmlns="http://www.w3.org/2000/svg">
<rect x="5" y="5" width="839" height="1173" rx="45" fill="white"/>
<rect x="5" y="5" width="839" height="1173" rx="45" stroke="black" stroke-width="10"/>
<circle cx="786.5" cy="1124.5" r="11.5" fill="black"/>
<circle cx="786.5" cy="59.5" r="11.5" fill="black"/>
<path d="M77 1124.5C77 1130.85 71.8513 1136 65.5 1136C59.1487 1136 54 1130.85 54 1124.5C54 1118.15 59.1487 1113 65.5 1113C71.8513 1113 77 1118.15 77 1124.5Z" fill="black"/>
<path d="M77 59.5C77 65.8513 71.8513 71 65.5 71C59.1487 71 54 65.8513 54 59.5C54 53.1487 59.1487 48 65.5 48C71.8513 48 77 53.1487 77 59.5Z" fill="black"/>
<mask id="path-6-inside-1_1_1131" fill="white">
<path d="M708 48C713.523 48 717.934 52.4996 718.616 57.9801C723.122 94.1833 751.817 122.878 788.02 127.384C793.5 128.066 798 132.477 798 138V1046C798 1051.52 793.5 1055.93 788.02 1056.62C751.817 1061.12 723.122 1089.82 718.616 1126.02C717.934 1131.5 713.523 1136 708 1136H141C135.477 1136 131.066 1131.5 130.384 1126.02C125.878 1089.82 97.1833 1061.12 60.9801 1056.62C55.4996 1055.93 51 1051.52 51 1046V138C51 132.477 55.4996 128.066 60.9801 127.384C97.1833 122.878 125.878 94.1833 130.384 57.9801C131.066 52.4996 135.477 48 141 48H708Z"/>
</mask>
<path d="M708 48C713.523 48 717.934 52.4996 718.616 57.9801C723.122 94.1833 751.817 122.878 788.02 127.384C793.5 128.066 798 132.477 798 138V1046C798 1051.52 793.5 1055.93 788.02 1056.62C751.817 1061.12 723.122 1089.82 718.616 1126.02C717.934 1131.5 713.523 1136 708 1136H141C135.477 1136 131.066 1131.5 130.384 1126.02C125.878 1089.82 97.1833 1061.12 60.9801 1056.62C55.4996 1055.93 51 1051.52 51 1046V138C51 132.477 55.4996 128.066 60.9801 127.384C97.1833 122.878 125.878 94.1833 130.384 57.9801C131.066 52.4996 135.477 48 141 48H708Z" fill="#0089CB"/>
<path d="M130.384 1126.02L138.322 1125.03L130.384 1126.02ZM718.616 1126.02L710.678 1125.03L718.616 1126.02ZM788.02 1056.62L789.008 1064.56L788.02 1056.62ZM718.616 57.9801L726.555 56.9922L718.616 57.9801ZM718.616 57.9801L710.678 58.9681C715.635 98.8063 747.194 130.365 787.032 135.322L788.02 127.384L789.008 119.445C756.44 115.392 730.608 89.5603 726.555 56.9922L718.616 57.9801ZM798 138H790V1046H798H806V138H798ZM788.02 1056.62L787.032 1048.68C747.194 1053.64 715.635 1085.19 710.678 1125.03L718.616 1126.02L726.555 1127.01C730.608 1094.44 756.44 1068.61 789.008 1064.56L788.02 1056.62ZM708 1136V1128H141V1136V1144H708V1136ZM130.384 1126.02L138.322 1125.03C133.365 1085.19 101.806 1053.64 61.9681 1048.68L60.9801 1056.62L59.9922 1064.56C92.5603 1068.61 118.392 1094.44 122.445 1127.01L130.384 1126.02ZM51 1046H59V138H51H43V1046H51ZM60.9801 127.384L61.9681 135.322C101.806 130.365 133.365 98.8063 138.322 58.9681L130.384 57.9801L122.445 56.9922C118.392 89.5603 92.5603 115.392 59.9922 119.445L60.9801 127.384ZM141 48V56H708V48V40H141V48ZM130.384 57.9801L138.322 58.9681C138.438 58.0389 138.872 57.2306 139.427 56.6958C139.954 56.1887 140.494 56 141 56V48V40C130.84 40 123.547 48.1329 122.445 56.9922L130.384 57.9801ZM51 138H59C59 137.494 59.1887 136.954 59.6958 136.427C60.2306 135.872 61.0389 135.438 61.9681 135.322L60.9801 127.384L59.9922 119.445C51.1329 120.547 43 127.84 43 138H51ZM60.9801 1056.62L61.9681 1048.68C61.0389 1048.56 60.2306 1048.13 59.6958 1047.57C59.1887 1047.05 59 1046.51 59 1046H51H43C43 1056.16 51.1329 1063.45 59.9922 1064.56L60.9801 1056.62ZM141 1136V1128C140.494 1128 139.954 1127.81 139.427 1127.3C138.872 1126.77 138.438 1125.96 138.322 1125.03L130.384 1126.02L122.445 1127.01C123.547 1135.87 130.84 1144 141 1144V1136ZM718.616 1126.02L710.678 1125.03C710.562 1125.96 710.128 1126.77 709.573 1127.3C709.046 1127.81 708.506 1128 708 1128V1136V1144C718.16 1144 725.453 1135.87 726.555 1127.01L718.616 1126.02ZM798 1046H790C790 1046.51 789.811 1047.05 789.304 1047.57C788.769 1048.13 787.961 1048.56 787.032 1048.68L788.02 1056.62L789.008 1064.56C797.867 1063.45 806 1056.16 806 1046H798ZM788.02 127.384L787.032 135.322C787.961 135.438 788.769 135.872 789.304 136.427C789.811 136.954 790 137.494 790 138H798H806C806 127.84 797.867 120.547 789.008 119.445L788.02 127.384ZM718.616 57.9801L726.555 56.9922C725.453 48.1329 718.16 40 708 40V48V56C708.506 56 709.046 56.1887 709.573 56.6958C710.128 57.2306 710.562 58.0389 710.678 58.9681L718.616 57.9801Z" fill="black" mask="url(#path-6-inside-1_1_1131)"/>
<path d="M690 102C695.523 102 699.911 106.512 700.837 111.957C705.019 136.563 724.437 155.981 749.043 160.163C754.488 161.089 759 165.477 759 171V1014C759 1019.52 754.488 1023.91 749.043 1024.84C724.711 1028.97 705.454 1048 700.984 1072.22C699.993 1077.59 695.633 1082 690.175 1082H158.825C153.367 1082 149.007 1077.59 148.016 1072.22C143.546 1048 124.288 1028.97 99.9568 1024.84C94.5121 1023.91 90 1019.52 90 1014V171C90 165.477 94.512 161.089 99.9568 160.163C124.563 155.981 143.981 136.563 148.163 111.957C149.089 106.512 153.477 102 159 102H690Z" fill="#4BADDC"/>
<mask id="path-9-outside-2_1_1131" maskUnits="userSpaceOnUse" x="401" y="1006" width="47" height="32" fill="black">
<rect fill="white" x="401" y="1006" width="47" height="32"/>
<path d="M402.32 1015.04C402.48 1012.56 403.427 1010.63 405.16 1009.24C406.92 1007.85 409.16 1007.16 411.88 1007.16C413.747 1007.16 415.36 1007.49 416.72 1008.16C418.08 1008.83 419.107 1009.73 419.8 1010.88C420.493 1012.03 420.84 1013.32 420.84 1014.76C420.84 1016.41 420.4 1017.83 419.52 1019C418.64 1020.17 417.587 1020.96 416.36 1021.36V1021.52C417.933 1022 419.16 1022.88 420.04 1024.16C420.92 1025.41 421.36 1027.03 421.36 1029C421.36 1030.57 421 1031.97 420.28 1033.2C419.56 1034.43 418.493 1035.4 417.08 1036.12C415.667 1036.81 413.973 1037.16 412 1037.16C409.12 1037.16 406.747 1036.43 404.88 1034.96C403.04 1033.47 402.053 1031.33 401.92 1028.56H406.32C406.427 1029.97 406.973 1031.13 407.96 1032.04C408.947 1032.92 410.28 1033.36 411.96 1033.36C413.587 1033.36 414.84 1032.92 415.72 1032.04C416.6 1031.13 417.04 1029.97 417.04 1028.56C417.04 1026.69 416.44 1025.37 415.24 1024.6C414.067 1023.8 412.253 1023.4 409.8 1023.4H408.76V1019.64H409.84C412 1019.61 413.64 1019.25 414.76 1018.56C415.907 1017.87 416.48 1016.77 416.48 1015.28C416.48 1014 416.067 1012.99 415.24 1012.24C414.413 1011.47 413.24 1011.08 411.72 1011.08C410.227 1011.08 409.067 1011.47 408.24 1012.24C407.413 1012.99 406.92 1013.92 406.76 1015.04H402.32ZM441.83 1014.6C441.537 1013.37 441.003 1012.45 440.23 1011.84C439.457 1011.23 438.377 1010.92 436.99 1010.92C434.883 1010.92 433.31 1011.73 432.27 1013.36C431.23 1014.96 430.683 1017.63 430.63 1021.36C431.323 1020.19 432.337 1019.28 433.67 1018.64C435.003 1018 436.443 1017.68 437.99 1017.68C439.75 1017.68 441.297 1018.07 442.63 1018.84C443.99 1019.59 445.043 1020.68 445.79 1022.12C446.563 1023.56 446.95 1025.28 446.95 1027.28C446.95 1029.15 446.577 1030.81 445.83 1032.28C445.11 1033.75 444.03 1034.91 442.59 1035.76C441.15 1036.59 439.417 1037 437.39 1037C434.643 1037 432.483 1036.4 430.91 1035.2C429.363 1033.97 428.27 1032.25 427.63 1030.04C427.017 1027.83 426.71 1025.07 426.71 1021.76C426.71 1012 430.15 1007.12 437.03 1007.12C439.697 1007.12 441.79 1007.84 443.31 1009.28C444.857 1010.72 445.763 1012.49 446.03 1014.6H441.83ZM436.99 1021.52C435.363 1021.52 433.977 1022.01 432.83 1023C431.71 1023.96 431.15 1025.36 431.15 1027.2C431.15 1029.04 431.67 1030.51 432.71 1031.6C433.777 1032.67 435.257 1033.2 437.15 1033.2C438.83 1033.2 440.15 1032.68 441.11 1031.64C442.097 1030.6 442.59 1029.21 442.59 1027.48C442.59 1025.67 442.11 1024.23 441.15 1023.16C440.217 1022.07 438.83 1021.52 436.99 1021.52Z"/>
</mask>
<path d="M402.32 1015.04C402.48 1012.56 403.427 1010.63 405.16 1009.24C406.92 1007.85 409.16 1007.16 411.88 1007.16C413.747 1007.16 415.36 1007.49 416.72 1008.16C418.08 1008.83 419.107 1009.73 419.8 1010.88C420.493 1012.03 420.84 1013.32 420.84 1014.76C420.84 1016.41 420.4 1017.83 419.52 1019C418.64 1020.17 417.587 1020.96 416.36 1021.36V1021.52C417.933 1022 419.16 1022.88 420.04 1024.16C420.92 1025.41 421.36 1027.03 421.36 1029C421.36 1030.57 421 1031.97 420.28 1033.2C419.56 1034.43 418.493 1035.4 417.08 1036.12C415.667 1036.81 413.973 1037.16 412 1037.16C409.12 1037.16 406.747 1036.43 404.88 1034.96C403.04 1033.47 402.053 1031.33 401.92 1028.56H406.32C406.427 1029.97 406.973 1031.13 407.96 1032.04C408.947 1032.92 410.28 1033.36 411.96 1033.36C413.587 1033.36 414.84 1032.92 415.72 1032.04C416.6 1031.13 417.04 1029.97 417.04 1028.56C417.04 1026.69 416.44 1025.37 415.24 1024.6C414.067 1023.8 412.253 1023.4 409.8 1023.4H408.76V1019.64H409.84C412 1019.61 413.64 1019.25 414.76 1018.56C415.907 1017.87 416.48 1016.77 416.48 1015.28C416.48 1014 416.067 1012.99 415.24 1012.24C414.413 1011.47 413.24 1011.08 411.72 1011.08C410.227 1011.08 409.067 1011.47 408.24 1012.24C407.413 1012.99 406.92 1013.92 406.76 1015.04H402.32ZM441.83 1014.6C441.537 1013.37 441.003 1012.45 440.23 1011.84C439.457 1011.23 438.377 1010.92 436.99 1010.92C434.883 1010.92 433.31 1011.73 432.27 1013.36C431.23 1014.96 430.683 1017.63 430.63 1021.36C431.323 1020.19 432.337 1019.28 433.67 1018.64C435.003 1018 436.443 1017.68 437.99 1017.68C439.75 1017.68 441.297 1018.07 442.63 1018.84C443.99 1019.59 445.043 1020.68 445.79 1022.12C446.563 1023.56 446.95 1025.28 446.95 1027.28C446.95 1029.15 446.577 1030.81 445.83 1032.28C445.11 1033.75 444.03 1034.91 442.59 1035.76C441.15 1036.59 439.417 1037 437.39 1037C434.643 1037 432.483 1036.4 430.91 1035.2C429.363 1033.97 428.27 1032.25 427.63 1030.04C427.017 1027.83 426.71 1025.07 426.71 1021.76C426.71 1012 430.15 1007.12 437.03 1007.12C439.697 1007.12 441.79 1007.84 443.31 1009.28C444.857 1010.72 445.763 1012.49 446.03 1014.6H441.83ZM436.99 1021.52C435.363 1021.52 433.977 1022.01 432.83 1023C431.71 1023.96 431.15 1025.36 431.15 1027.2C431.15 1029.04 431.67 1030.51 432.71 1031.6C433.777 1032.67 435.257 1033.2 437.15 1033.2C438.83 1033.2 440.15 1032.68 441.11 1031.64C442.097 1030.6 442.59 1029.21 442.59 1027.48C442.59 1025.67 442.11 1024.23 441.15 1023.16C440.217 1022.07 438.83 1021.52 436.99 1021.52Z" fill="black"/>
<path d="M402.32 1015.04L402.021 1015.02L402 1015.34H402.32V1015.04ZM405.16 1009.24L404.974 1009L404.973 1009.01L405.16 1009.24ZM416.72 1008.16L416.588 1008.43L416.72 1008.16ZM419.8 1010.88L420.057 1010.72L419.8 1010.88ZM419.52 1019L419.76 1019.18V1019.18L419.52 1019ZM416.36 1021.36L416.267 1021.07L416.06 1021.14V1021.36H416.36ZM416.36 1021.52H416.06V1021.74L416.272 1021.81L416.36 1021.52ZM420.04 1024.16L419.793 1024.33L419.794 1024.33L420.04 1024.16ZM420.28 1033.2L420.021 1033.05L420.28 1033.2ZM417.08 1036.12L417.212 1036.39L417.216 1036.39L417.08 1036.12ZM404.88 1034.96L404.691 1035.19L404.695 1035.2L404.88 1034.96ZM401.92 1028.56V1028.26H401.605L401.62 1028.57L401.92 1028.56ZM406.32 1028.56L406.619 1028.54L406.598 1028.26H406.32V1028.56ZM407.96 1032.04L407.757 1032.26L407.76 1032.26L407.96 1032.04ZM415.72 1032.04L415.932 1032.25L415.935 1032.25L415.72 1032.04ZM415.24 1024.6L415.071 1024.85L415.077 1024.85L415.24 1024.6ZM408.76 1023.4H408.46V1023.7H408.76V1023.4ZM408.76 1019.64V1019.34H408.46V1019.64H408.76ZM409.84 1019.64V1019.94L409.844 1019.94L409.84 1019.64ZM414.76 1018.56L414.605 1018.3L414.602 1018.3L414.76 1018.56ZM415.24 1012.24L415.035 1012.46L415.039 1012.46L415.24 1012.24ZM408.24 1012.24L408.441 1012.46L408.445 1012.46L408.24 1012.24ZM406.76 1015.04V1015.34H407.02L407.057 1015.08L406.76 1015.04ZM402.32 1015.04L402.619 1015.06C402.775 1012.65 403.688 1010.8 405.347 1009.47L405.16 1009.24L404.973 1009.01C403.165 1010.45 402.185 1012.47 402.021 1015.02L402.32 1015.04ZM405.16 1009.24L405.346 1009.48C407.042 1008.14 409.213 1007.46 411.88 1007.46V1007.16V1006.86C409.108 1006.86 406.798 1007.57 404.974 1009L405.16 1009.24ZM411.88 1007.16V1007.46C413.711 1007.46 415.277 1007.79 416.588 1008.43L416.72 1008.16L416.852 1007.89C415.443 1007.2 413.782 1006.86 411.88 1006.86V1007.16ZM416.72 1008.16L416.588 1008.43C417.903 1009.07 418.883 1009.94 419.543 1011.04L419.8 1010.88L420.057 1010.72C419.33 1009.52 418.257 1008.58 416.852 1007.89L416.72 1008.16ZM419.8 1010.88L419.543 1011.04C420.206 1012.13 420.54 1013.37 420.54 1014.76H420.84H421.14C421.14 1013.27 420.78 1011.92 420.057 1010.72L419.8 1010.88ZM420.84 1014.76H420.54C420.54 1016.36 420.116 1017.71 419.28 1018.82L419.52 1019L419.76 1019.18C420.684 1017.95 421.14 1016.47 421.14 1014.76H420.84ZM419.52 1019L419.28 1018.82C418.432 1019.95 417.427 1020.7 416.267 1021.07L416.36 1021.36L416.453 1021.65C417.746 1021.22 418.848 1020.4 419.76 1019.18L419.52 1019ZM416.36 1021.36H416.06V1021.52H416.36H416.66V1021.36H416.36ZM416.36 1021.52L416.272 1021.81C417.785 1022.27 418.954 1023.11 419.793 1024.33L420.04 1024.16L420.287 1023.99C419.366 1022.65 418.082 1021.73 416.448 1021.23L416.36 1021.52ZM420.04 1024.16L419.794 1024.33C420.63 1025.52 421.06 1027.07 421.06 1029H421.36H421.66C421.66 1026.98 421.21 1025.3 420.286 1023.99L420.04 1024.16ZM421.36 1029H421.06C421.06 1030.53 420.711 1031.87 420.021 1033.05L420.28 1033.2L420.539 1033.35C421.289 1032.07 421.66 1030.62 421.66 1029H421.36ZM420.28 1033.2L420.021 1033.05C419.334 1034.22 418.312 1035.16 416.944 1035.85L417.08 1036.12L417.216 1036.39C418.674 1035.64 419.786 1034.63 420.539 1033.35L420.28 1033.2ZM417.08 1036.12L416.948 1035.85C415.585 1036.52 413.939 1036.86 412 1036.86V1037.16V1037.46C414.008 1037.46 415.749 1037.11 417.212 1036.39L417.08 1036.12ZM412 1037.16V1036.86C409.172 1036.86 406.869 1036.14 405.065 1034.72L404.88 1034.96L404.695 1035.2C406.625 1036.71 409.068 1037.46 412 1037.46V1037.16ZM404.88 1034.96L405.069 1034.73C403.307 1033.3 402.35 1031.25 402.22 1028.55L401.92 1028.56L401.62 1028.57C401.757 1031.42 402.773 1033.64 404.691 1035.19L404.88 1034.96ZM401.92 1028.56V1028.86H406.32V1028.56V1028.26H401.92V1028.56ZM406.32 1028.56L406.021 1028.58C406.133 1030.07 406.711 1031.3 407.757 1032.26L407.96 1032.04L408.163 1031.82C407.236 1030.97 406.72 1029.88 406.619 1028.54L406.32 1028.56ZM407.96 1032.04L407.76 1032.26C408.816 1033.21 410.227 1033.66 411.96 1033.66V1033.36V1033.06C410.333 1033.06 409.078 1032.63 408.16 1031.82L407.96 1032.04ZM411.96 1033.36V1033.66C413.641 1033.66 414.98 1033.2 415.932 1032.25L415.72 1032.04L415.508 1031.83C414.7 1032.64 413.533 1033.06 411.96 1033.06V1033.36ZM415.72 1032.04L415.935 1032.25C416.876 1031.28 417.34 1030.04 417.34 1028.56H417.04H416.74C416.74 1029.91 416.324 1030.99 415.505 1031.83L415.72 1032.04ZM417.04 1028.56H417.34C417.34 1026.63 416.714 1025.19 415.403 1024.35L415.24 1024.6L415.077 1024.85C416.166 1025.55 416.74 1026.76 416.74 1028.56H417.04ZM415.24 1024.6L415.409 1024.35C414.161 1023.5 412.275 1023.1 409.8 1023.1V1023.4V1023.7C412.232 1023.7 413.972 1024.1 415.071 1024.85L415.24 1024.6ZM409.8 1023.4V1023.1H408.76V1023.4V1023.7H409.8V1023.4ZM408.76 1023.4H409.06V1019.64H408.76H408.46V1023.4H408.76ZM408.76 1019.64V1019.94H409.84V1019.64V1019.34H408.76V1019.64ZM409.84 1019.64L409.844 1019.94C412.027 1019.91 413.731 1019.55 414.918 1018.82L414.76 1018.56L414.602 1018.3C413.549 1018.96 411.973 1019.31 409.836 1019.34L409.84 1019.64ZM414.76 1018.56L414.915 1018.82C416.163 1018.06 416.78 1016.86 416.78 1015.28H416.48H416.18C416.18 1016.68 415.65 1017.67 414.605 1018.3L414.76 1018.56ZM416.48 1015.28H416.78C416.78 1013.93 416.34 1012.83 415.441 1012.02L415.24 1012.24L415.039 1012.46C415.793 1013.14 416.18 1014.07 416.18 1015.28H416.48ZM415.24 1012.24L415.445 1012.02C414.546 1011.18 413.289 1010.78 411.72 1010.78V1011.08V1011.38C413.191 1011.38 414.281 1011.75 415.035 1012.46L415.24 1012.24ZM411.72 1011.08V1010.78C410.176 1010.78 408.933 1011.18 408.035 1012.02L408.24 1012.24L408.445 1012.46C409.2 1011.75 410.278 1011.38 411.72 1011.38V1011.08ZM408.24 1012.24L408.039 1012.02C407.159 1012.81 406.633 1013.81 406.463 1015L406.76 1015.04L407.057 1015.08C407.207 1014.03 407.667 1013.16 408.441 1012.46L408.24 1012.24ZM406.76 1015.04V1014.74H402.32V1015.04V1015.34H406.76V1015.04ZM441.83 1014.6L441.538 1014.67L441.593 1014.9H441.83V1014.6ZM440.23 1011.84L440.416 1011.6L440.23 1011.84ZM432.27 1013.36L432.522 1013.52L432.523 1013.52L432.27 1013.36ZM430.63 1021.36L430.33 1021.36L430.314 1022.48L430.888 1021.51L430.63 1021.36ZM442.63 1018.84L442.479 1019.1L442.486 1019.1L442.63 1018.84ZM445.79 1022.12L445.524 1022.26L445.526 1022.26L445.79 1022.12ZM445.83 1032.28L445.563 1032.14L445.561 1032.15L445.83 1032.28ZM442.59 1035.76L442.739 1036.02L442.743 1036.02L442.59 1035.76ZM430.91 1035.2L430.724 1035.44L430.728 1035.44L430.91 1035.2ZM427.63 1030.04L427.341 1030.12L427.342 1030.12L427.63 1030.04ZM443.31 1009.28L443.104 1009.5L443.106 1009.5L443.31 1009.28ZM446.03 1014.6V1014.9H446.37L446.328 1014.56L446.03 1014.6ZM432.83 1023L433.025 1023.23L433.026 1023.23L432.83 1023ZM432.71 1031.6L432.493 1031.81L432.498 1031.81L432.71 1031.6ZM441.11 1031.64L440.892 1031.43L440.89 1031.44L441.11 1031.64ZM441.15 1023.16L440.922 1023.35L440.927 1023.36L441.15 1023.16ZM441.83 1014.6L442.122 1014.53C441.817 1013.26 441.256 1012.27 440.416 1011.6L440.23 1011.84L440.044 1012.08C440.751 1012.64 441.256 1013.49 441.538 1014.67L441.83 1014.6ZM440.23 1011.84L440.416 1011.6C439.572 1010.94 438.417 1010.62 436.99 1010.62V1010.92V1011.22C438.336 1011.22 439.341 1011.52 440.044 1012.08L440.23 1011.84ZM436.99 1010.92V1010.62C434.792 1010.62 433.118 1011.48 432.017 1013.2L432.27 1013.36L432.523 1013.52C433.502 1011.99 434.975 1011.22 436.99 1011.22V1010.92ZM432.27 1013.36L432.018 1013.2C430.93 1014.87 430.384 1017.61 430.33 1021.36L430.63 1021.36L430.93 1021.36C430.983 1017.64 431.53 1015.05 432.522 1013.52L432.27 1013.36ZM430.63 1021.36L430.888 1021.51C431.549 1020.39 432.515 1019.53 433.8 1018.91L433.67 1018.64L433.54 1018.37C432.158 1019.03 431.098 1019.98 430.372 1021.21L430.63 1021.36ZM433.67 1018.64L433.8 1018.91C435.091 1018.29 436.486 1017.98 437.99 1017.98V1017.68V1017.38C436.401 1017.38 434.916 1017.71 433.54 1018.37L433.67 1018.64ZM437.99 1017.68V1017.98C439.705 1017.98 441.198 1018.36 442.479 1019.1L442.63 1018.84L442.781 1018.58C441.395 1017.78 439.795 1017.38 437.99 1017.38V1017.68ZM442.63 1018.84L442.486 1019.1C443.791 1019.82 444.803 1020.87 445.524 1022.26L445.79 1022.12L446.056 1021.98C445.284 1020.49 444.189 1019.35 442.774 1018.58L442.63 1018.84ZM445.79 1022.12L445.526 1022.26C446.271 1023.65 446.65 1025.32 446.65 1027.28H446.95H447.25C447.25 1025.24 446.856 1023.47 446.054 1021.98L445.79 1022.12ZM446.95 1027.28H446.65C446.65 1029.11 446.285 1030.72 445.563 1032.14L445.83 1032.28L446.097 1032.42C446.868 1030.9 447.25 1029.19 447.25 1027.28H446.95ZM445.83 1032.28L445.561 1032.15C444.867 1033.56 443.828 1034.68 442.437 1035.5L442.59 1035.76L442.743 1036.02C444.232 1035.14 445.353 1033.93 446.099 1032.41L445.83 1032.28ZM442.59 1035.76L442.441 1035.5C441.055 1036.3 439.376 1036.7 437.39 1036.7V1037V1037.3C439.458 1037.3 441.245 1036.88 442.739 1036.02L442.59 1035.76ZM437.39 1037V1036.7C434.684 1036.7 432.596 1036.11 431.092 1034.96L430.91 1035.2L430.728 1035.44C432.371 1036.69 434.603 1037.3 437.39 1037.3V1037ZM430.91 1035.2L431.096 1034.96C429.606 1033.78 428.544 1032.12 427.918 1029.96L427.63 1030.04L427.342 1030.12C427.996 1032.39 429.12 1034.16 430.724 1035.44L430.91 1035.2ZM427.63 1030.04L427.919 1029.96C427.315 1027.78 427.01 1025.05 427.01 1021.76H426.71H426.41C426.41 1025.08 426.718 1027.87 427.341 1030.12L427.63 1030.04ZM426.71 1021.76H427.01C427.01 1016.91 427.867 1013.32 429.535 1010.95C431.19 1008.61 433.67 1007.42 437.03 1007.42V1007.12V1006.82C433.51 1006.82 430.83 1008.07 429.045 1010.61C427.273 1013.12 426.41 1016.85 426.41 1021.76H426.71ZM437.03 1007.12V1007.42C439.642 1007.42 441.653 1008.12 443.104 1009.5L443.31 1009.28L443.516 1009.06C441.927 1007.56 439.752 1006.82 437.03 1006.82V1007.12ZM443.31 1009.28L443.106 1009.5C444.601 1010.89 445.474 1012.6 445.732 1014.64L446.03 1014.6L446.328 1014.56C446.052 1012.39 445.113 1010.55 443.514 1009.06L443.31 1009.28ZM446.03 1014.6V1014.3H441.83V1014.6V1014.9H446.03V1014.6ZM436.99 1021.52V1021.22C435.297 1021.22 433.84 1021.74 432.634 1022.77L432.83 1023L433.026 1023.23C434.114 1022.29 435.429 1021.82 436.99 1021.82V1021.52ZM432.83 1023L432.635 1022.77C431.432 1023.8 430.85 1025.3 430.85 1027.2H431.15H431.45C431.45 1025.42 431.988 1024.12 433.025 1023.23L432.83 1023ZM431.15 1027.2H430.85C430.85 1029.1 431.388 1030.65 432.493 1031.81L432.71 1031.6L432.927 1031.39C431.952 1030.37 431.45 1028.98 431.45 1027.2H431.15ZM432.71 1031.6L432.498 1031.81C433.634 1032.95 435.199 1033.5 437.15 1033.5V1033.2V1032.9C435.315 1032.9 433.919 1032.38 432.922 1031.39L432.71 1031.6ZM437.15 1033.2V1033.5C438.897 1033.5 440.303 1032.96 441.33 1031.84L441.11 1031.64L440.89 1031.44C439.997 1032.4 438.763 1032.9 437.15 1032.9V1033.2ZM441.11 1031.64L441.328 1031.85C442.378 1030.74 442.89 1029.27 442.89 1027.48H442.59H442.29C442.29 1029.15 441.815 1030.46 440.892 1031.43L441.11 1031.64ZM442.59 1027.48H442.89C442.89 1025.61 442.395 1024.09 441.373 1022.96L441.15 1023.16L440.927 1023.36C441.825 1024.36 442.29 1025.72 442.29 1027.48H442.59ZM441.15 1023.16L441.378 1022.97C440.373 1021.79 438.891 1021.22 436.99 1021.22V1021.52V1021.82C438.769 1021.82 440.061 1022.35 440.922 1023.35L441.15 1023.16Z" fill="black" mask="url(#path-9-outside-2_1_1131)"/>
<path d="M344.81 272.735C336.2 272.735 329.13 270.705 323.6 266.645C318.07 262.515 315.095 256.635 314.675 249.005H336.62C336.83 251.595 337.6 253.485 338.93 254.675C340.26 255.865 341.975 256.46 344.075 256.46C345.965 256.46 347.505 256.005 348.695 255.095C349.955 254.115 350.585 252.785 350.585 251.105C350.585 248.935 349.57 247.255 347.54 246.065C345.51 244.875 342.22 243.545 337.67 242.075C332.84 240.465 328.92 238.925 325.91 237.455C322.97 235.915 320.38 233.71 318.14 230.84C315.97 227.9 314.885 224.085 314.885 219.395C314.885 214.635 316.075 210.575 318.455 207.215C320.835 203.785 324.125 201.195 328.325 199.445C332.525 197.695 337.285 196.82 342.605 196.82C351.215 196.82 358.075 198.85 363.185 202.91C368.365 206.9 371.13 212.535 371.48 219.815H349.115C349.045 217.575 348.345 215.895 347.015 214.775C345.755 213.655 344.11 213.095 342.08 213.095C340.54 213.095 339.28 213.55 338.3 214.46C337.32 215.37 336.83 216.665 336.83 218.345C336.83 219.745 337.355 220.97 338.405 222.02C339.525 223 340.89 223.875 342.5 224.645C344.11 225.345 346.49 226.255 349.64 227.375C354.33 228.985 358.18 230.595 361.19 232.205C364.27 233.745 366.895 235.95 369.065 238.82C371.305 241.62 372.425 245.19 372.425 249.53C372.425 253.94 371.305 257.895 369.065 261.395C366.895 264.895 363.71 267.66 359.51 269.69C355.38 271.72 350.48 272.735 344.81 272.735ZM416.747 254.465V272H407.822C392.772 272 385.247 264.545 385.247 249.635V230.21H378.002V213.095H385.247V198.815H405.932V213.095H416.642V230.21H405.932V249.95C405.932 251.56 406.282 252.715 406.982 253.415C407.752 254.115 409.012 254.465 410.762 254.465H416.747ZM422.827 242.495C422.827 236.405 423.912 231.085 426.082 226.535C428.322 221.985 431.332 218.485 435.112 216.035C438.962 213.585 443.232 212.36 447.922 212.36C451.982 212.36 455.482 213.165 458.422 214.775C461.362 216.385 463.637 218.555 465.247 221.285V213.095H485.827V272H465.247V263.81C463.637 266.54 461.327 268.71 458.317 270.32C455.377 271.93 451.912 272.735 447.922 272.735C443.232 272.735 438.962 271.51 435.112 269.06C431.332 266.61 428.322 263.11 426.082 258.56C423.912 253.94 422.827 248.585 422.827 242.495ZM465.247 242.495C465.247 238.715 464.197 235.74 462.097 233.57C460.067 231.4 457.547 230.315 454.537 230.315C451.457 230.315 448.902 231.4 446.872 233.57C444.842 235.67 443.827 238.645 443.827 242.495C443.827 246.275 444.842 249.285 446.872 251.525C448.902 253.695 451.457 254.78 454.537 254.78C457.547 254.78 460.067 253.695 462.097 251.525C464.197 249.355 465.247 246.345 465.247 242.495ZM518.134 223.49C520.444 220.13 523.244 217.47 526.534 215.51C529.824 213.55 533.359 212.57 537.139 212.57V234.515H531.364C526.884 234.515 523.559 235.39 521.389 237.14C519.219 238.89 518.134 241.935 518.134 246.275V272H497.554V213.095H518.134V223.49Z" fill="black"/>
<path d="M489.725 358.063C491.942 357.964 494.105 357.895 496.251 358.561C498.88 359.375 500.559 361.199 502.023 363.445C507.005 371.083 510.414 380.754 514.196 389.093C521.345 405.009 528.738 420.814 536.373 436.503L586.127 441.002C595.695 441.853 605.947 442.019 615.332 443.904C618.088 444.458 620.772 445.017 622.814 447.087C624.667 448.978 625.668 451.541 625.59 454.186C625.516 456.304 624.783 457.912 623.433 459.512C617.454 466.594 609.237 472.66 602.348 478.951C588.19 491.872 574.125 504.892 560.154 518.015C564.185 534.351 567.342 550.991 570.841 567.453C572.803 576.68 575.806 586.617 576.576 595.976C576.816 598.89 576.795 602.098 575.501 604.791C574.536 606.8 572.894 608.298 570.71 608.871C567.715 609.655 564.361 608.798 561.583 607.634C553.849 604.389 546.39 599.14 539.14 594.873C524.061 586.078 509.062 577.148 494.144 568.08C493.104 567.441 492.345 566.983 491.088 567.328C486.817 568.502 481.49 572.695 477.614 575.07L445.179 595.02C438.703 598.996 432.062 603.661 425.059 606.641C421.673 608.082 417.9 609.2 414.179 608.833C411.789 608.599 409.251 607.681 407.945 605.52C406.847 603.706 406.649 601.196 406.795 599.13C407.51 588.981 410.603 578.413 412.797 568.482L423.972 517.361L384.046 480.307C377.139 473.87 369.437 467.535 363.246 460.414C361.924 458.894 360.695 457.32 360.467 455.253C360.143 452.327 361.618 449.07 363.571 446.959C365.248 445.148 367.495 444.405 369.845 443.883C378.756 441.903 388.662 442.125 397.806 441.235C415.159 439.546 432.543 437.197 449.943 436.124C457.328 420.381 464.613 404.592 471.803 388.758C475.689 380.22 479.231 370.03 484.593 362.314C485.934 360.383 487.736 359.245 489.725 358.063Z" fill="black"/>
<path d="M492.355 380.801C498.943 385.684 518.978 437.394 526.555 449.462C551.71 453.885 577.424 453.993 602.699 457.496C596.466 466.805 586.646 473.916 578.444 481.464C566.996 491.973 555.652 502.593 544.413 513.324C548.613 538.953 555.652 564.422 560.935 589.876C552.521 586.496 544.626 581.363 536.848 576.752C522.196 568.063 507.767 558.926 492.907 550.602C491.357 550.679 490.129 550.863 488.708 551.522C481.365 554.926 474.244 560.052 467.342 564.305C452.906 573.309 438.385 582.176 423.782 590.906C424.783 578.512 427.824 566.613 430.572 554.525C433.824 540.574 436.848 526.571 439.643 512.521C430.13 501.088 408.949 483.703 397.106 473.027C392.073 468.49 386.332 464.022 382.37 458.497C395.594 454.181 423.467 453.232 438.287 451.918C443.798 451.429 449.842 451.322 455.206 449.941C457.552 449.336 459.109 448.497 460.561 446.512C465.083 440.33 467.662 432.174 470.825 425.22C477.559 410.41 484.332 394.946 492.355 380.801Z" fill="#F5C355"/>
<path d="M199.256 508.058C200.641 508.266 202.097 508.532 203.376 509.127C210.2 512.299 222.374 548.111 226.14 556.73C234.893 557.195 268.22 558.371 273.389 564.352C274.682 565.849 275.163 567.11 274.998 569.087C274.36 576.804 246.37 598.438 239.57 604.484C241.891 614.249 250.756 643.188 248.243 651.302C247.69 653.085 246.609 654.587 244.802 655.266C242.627 656.085 239.946 655.463 237.828 654.718C229.324 651.732 209.013 638.45 200.066 633.24C191.491 637.414 161.338 658.543 153.926 656.675C152.367 656.281 151.539 655.537 150.751 654.192C146.48 646.888 157.288 612.935 159.546 603.899C151.689 596.614 126.719 579.127 124.318 570.056C123.795 568.075 123.812 565.877 125.179 564.21C129.514 558.922 165.282 557.91 174.014 556.762L184.772 530.116C188.151 521.761 190.367 511.829 199.256 508.058Z" fill="black"/>
<path d="M199.694 529.384C203.856 532.867 212.542 561.496 216.399 568.862C229.053 571.24 243.035 572.104 255.901 572.45C245.387 581.747 234.663 590.889 224.518 600.585C227.769 612.908 230.873 625.269 233.831 637.665C224.652 632.935 207.54 620.269 198.968 618.232C187.323 624.608 176.318 632.126 164.605 638.396C167.947 625.247 171.516 612.108 174.278 598.824C164.507 589.338 153.5 581.001 142.784 572.619C156.168 572.034 169.666 571.312 182.947 569.514C189.901 557.404 194.478 542.394 199.694 529.384Z" fill="#F5C355"/>
<path d="M651.755 721.163C654.197 720.986 656.036 720.839 658.296 721.914C666.421 725.782 675.407 755.001 678.997 764.232C687.35 764.411 718.291 765.191 723.484 770.084C724.862 771.381 725.635 772.773 725.529 774.718C725.118 782.202 698.781 802.784 692.665 808.28C694.637 816.754 704.021 847.602 700.581 854.057C699.754 855.608 698.577 856.634 696.837 857.046C689.437 858.798 663.599 841.68 656.248 837.477C650.385 835.042 624.331 859.319 613.107 857.257C611.439 856.95 609.913 856.411 609.067 854.822C606.243 849.519 615.767 816.336 617.75 808.92C610.734 802.511 584.363 783.519 583.128 775.536C582.839 773.665 583.187 772.448 584.388 770.979C589.099 765.218 622.64 764.747 631.209 764.224C635.301 754.608 642.659 731.544 648.14 724.28C649.089 723.021 650.476 722.061 651.755 721.163Z" fill="black"/>
<path d="M654.839 741.148C657.634 744.245 666.274 770.34 669.583 776.735C681.625 777.85 693.74 778.019 705.79 779.167C696.407 787.262 686.674 795.199 677.95 804.001C680.786 815.615 683.397 827.282 685.78 838.997C675.495 833.688 665.409 825.376 654.574 821.515C644.148 826.83 634.134 833.388 624.116 839.425C626.831 827.415 629.65 815.428 632.571 803.465C624.356 794.695 613.082 787.113 603.634 779.562C616.068 778.009 628.697 778.305 641.151 776.762C646.496 765.388 650.275 752.9 654.839 741.148Z" fill="#F5C355"/>
<path d="M369.429 805.527C371.307 805.539 374.267 805.221 375.952 806.098C381.495 808.985 390.741 835.9 393.463 842.388C402.882 843.455 427.487 843.173 434.033 848.603C435.275 849.633 436.142 850.903 436.089 852.586C435.864 859.822 412.751 878.163 407.012 883.371C409.018 892.14 415.852 913.591 413.319 921.495C412.79 923.147 411.68 924.72 409.99 925.333C403.604 927.649 380.719 912.587 374.024 908.768C368.9 906.813 346.502 927.327 336.217 925.932C334.645 925.718 333.025 925.159 332.192 923.719C329.151 918.465 337.468 890.301 339.182 882.712C333.011 877.395 310.421 860.285 309.701 853.021C309.591 851.901 309.87 850.944 310.571 850.094C316.237 843.21 341.787 843.858 350.863 843.116C354.697 833.66 361.606 811.046 369.429 805.527Z" fill="black"/>
<path d="M372.082 825.556C375.427 829.301 381.547 848.664 384.45 854.693C395.091 856.077 405.963 856.091 416.649 857.362C409.263 865.049 400.793 871.965 392.914 879.17C394.476 888.983 397.16 898.826 399.338 908.535C390.36 903.782 381.665 898.385 372.83 893.359C363.767 897.207 355.085 903.554 346.739 908.761L353.189 878.296C346.129 870.59 337.203 864.026 329.234 857.242C339.398 856.615 349.632 856.194 359.753 855.079C364.325 845.523 368.363 835.481 372.082 825.556Z" fill="#F5C355"/>
<path d="M193.743 719.687C195.034 719.655 196.333 719.725 197.625 719.763C203.162 722.675 201.699 730.736 205.832 735.14C210.755 740.39 220.264 740.3 224.066 746.066C223.958 752.134 213.306 753.462 209.156 756.641C202.989 761.367 202.877 769.57 198.085 775.266C197.062 775.22 195.734 775.242 194.766 774.914C189.576 773.161 189.611 762.597 185.939 758.678C181.22 753.64 170.699 753.59 167.563 747.92C168.54 741.222 180.777 740.535 185.205 735.865C189.5 731.334 189.79 724.51 193.743 719.687Z" fill="black"/>
<path d="M195.984 742.674C197.48 743.743 198.49 744.566 199.614 746.058C199.272 748.567 198.014 749.44 196.382 751.329L195.85 751.426C193.914 750.416 193.849 750.446 192.998 748.449C193.395 745.402 194.054 744.957 195.984 742.674Z" fill="#F5C355"/>
<path d="M475.341 700.744C481.484 703.104 480.427 712.548 484.65 716.755C488.177 720.268 494.361 719.437 497.91 723.288L497.724 724.678C495.362 727.196 492.082 727.793 488.919 728.921C480.933 731.77 481.186 739.513 477.959 746.325C473.073 743.739 471.642 735.698 469.284 730.813C465.842 729.419 456.829 727.114 454.915 724.333L455.419 722.978C458.383 720.624 461.992 719.696 465.395 718.15C466.181 717.794 468.288 716.992 468.9 716.357C471.924 713.217 473.704 704.94 475.341 700.744Z" fill="black"/>
<path d="M678.451 596.671C685.002 594.474 692.092 598.024 694.259 604.585C696.427 611.146 692.847 618.219 686.277 620.358C679.746 622.483 672.726 618.931 670.573 612.411C668.418 605.89 671.94 598.854 678.451 596.671Z" fill="black"/>
<path d="M196.784 407.834C203.379 406.397 209.909 410.507 211.465 417.075C213.021 423.641 209.029 430.244 202.491 431.918C198.155 433.027 193.559 431.71 190.469 428.474C187.379 425.237 186.277 420.585 187.586 416.305C188.895 412.027 192.413 408.788 196.784 407.834Z" fill="black"/>
<path d="M531.987 873.029C538.351 871.07 545.115 874.547 547.226 880.861C549.337 887.176 546.024 894.021 539.762 896.283C535.576 897.796 530.898 896.921 527.542 893.997C524.185 891.073 522.676 886.56 523.599 882.205C524.523 877.85 527.733 874.339 531.987 873.029Z" fill="black"/>
<path d="M668.605 407.532C672.599 409.579 673.926 415.736 675.439 419.707C678.42 420.859 683.218 422.058 684.909 424.866L684.523 426.249C682.058 428.413 678.698 429.217 675.639 430.277C674.045 434.073 672.377 437.792 670.55 441.482C669.967 441.469 669.278 441.207 668.711 441.059C666.369 437.945 665.353 434.016 664.082 430.366C660.802 429.269 656.908 428.539 654.581 425.835L654.757 424.265C657.14 421.824 660.837 420.941 663.987 419.788L668.605 407.532Z" fill="black"/>
<path d="M239.322 868.294C242.754 870.927 244.076 876.838 245.505 880.77C247.874 881.672 251.954 882.425 253.791 884.196C254.693 885.066 254.448 885.187 254.491 886.35C252.198 888.929 248.215 890.123 245.14 891.621C243.573 895.608 242.054 899.358 239.778 903.008C237.186 899.298 235.863 895.208 234.361 890.979C230.986 889.858 227.077 889.083 224.531 886.489L224.643 885.016C227.155 882.641 230.796 881.725 233.994 880.545C235.869 876.484 237.229 872.272 239.322 868.294Z" fill="black"/>
<path d="M333.373 637.203C338.913 635.112 345.099 637.924 347.164 643.474C349.23 649.024 346.387 655.196 340.827 657.236C335.305 659.26 329.184 656.443 327.133 650.93C325.08 645.416 327.87 639.283 333.373 637.203Z" fill="black"/>
</svg>
